<svg width="217" height="151" viewBox="0 0 217 151" fill="none" xmlns="http://www.w3.org/2000/svg">
<path fill-rule="evenodd" clip-rule="evenodd" d="M36.4972 125.04C38.2263 123.731 40.7198 124.167 42.7765 124.349C44.0506 124.458 44.6512 125.221 44.997 126.185L54.7163 150.209H47.1447C46.6897 148.446 46.1801 146.338 45.5431 144.612C42.3033 144.666 39.0635 144.63 35.8238 144.612L33.9855 150.209H26.7779C30.1451 141.886 33.1846 133.381 36.4972 125.04ZM37.6803 139.851C39.5732 139.832 41.4661 139.851 43.3589 139.851C42.9585 136.779 41.6299 133.781 40.5378 130.855C39.4458 133.763 37.9351 136.761 37.6803 139.851ZM174.478 127.093C174.442 125.403 176.225 124.331 177.754 124.385L211.772 124.422C214.12 125.221 215.539 127.675 216.176 129.965L204.564 129.928L204.528 150.209H198.103L197.921 129.547C192.333 129.601 186.746 129.583 181.158 129.583C180.157 130.019 179.993 135.144 182.286 135.307L188.784 135.198V139.614C186.837 139.433 184.889 139.469 182.942 139.487C181.813 139.396 180.83 140.469 180.885 141.559L180.94 150.191H174.515C174.551 142.577 174.424 134.726 174.478 127.093ZM150.198 124.458C153.584 124.258 156.987 124.422 160.372 124.367C162.211 124.404 164.231 124.058 165.869 125.13C168.454 126.748 169.764 129.91 169.673 132.89C169.619 136.325 169.746 139.76 169.6 143.176C169.4 146.647 166.524 150.1 162.939 150.209C158.534 150.445 154.111 150.137 149.707 150.173C145.957 150.027 144.319 145.739 143.955 142.558C143.992 138.688 143.81 134.817 143.955 130.946C144.101 127.638 146.904 124.785 150.198 124.458ZM152.874 129.692C151.745 130.183 150.671 131.237 150.726 132.563C150.617 135.471 150.489 138.36 150.526 141.268C150.471 143.067 151.982 145.048 153.911 144.921C155.95 144.903 158.006 145.066 160.027 144.83C161.392 144.666 162.848 143.74 162.957 142.249C163.175 139.142 162.993 136.016 163.03 132.909C163.121 131.073 161.537 129.528 159.717 129.601C157.442 129.656 155.131 129.438 152.874 129.692ZM123.206 124.531C125.354 124.149 127.593 124.567 129.777 124.276C129.886 130.364 129.777 136.47 129.831 142.577C129.831 143.831 131.087 144.921 132.325 144.703C134.891 144.594 137.476 144.775 140.042 144.521C140.898 146.593 141.516 147.792 143.318 150.209H125.154C123.789 150.191 123.152 148.574 123.279 147.392C123.261 139.778 123.17 132.163 123.206 124.531ZM96.1961 128.056C96.1051 126.348 97.4702 124.622 99.1811 124.385L118.219 124.258L118.237 129.619C113.341 129.565 108.427 129.256 103.513 129.492C102.039 131.037 102.075 134.998 104.951 134.708L116.836 134.653V139.669H104.805C102.057 139.633 101.529 143.431 103.695 144.576L118.383 144.467C118.328 146.447 118.474 148.247 118.438 150.246L99.1811 150.1C97.6886 150.155 96.1051 149.01 96.1961 147.411C96.1779 140.941 96.1961 134.508 96.1961 128.056ZM57.9743 127.729C58.0107 123.44 64.8724 123.404 65.8189 125.349C68.549 129.583 71.3337 133.817 74.0821 138.033C74.5007 138.651 75.2469 138.088 75.5017 137.597C78.0135 133.563 80.4888 129.51 83.0369 125.494C83.8741 124.058 91.5003 122.568 91.2637 128.056L91.1545 150.191H84.6932L84.5112 133.254L74.6463 150.5L64.8178 133.89L64.7268 150.209H57.8651C57.9561 142.776 57.7923 135.162 57.9743 127.729ZM6.68414 124.458C12.381 124.24 18.0961 124.603 23.7748 124.258C23.793 126.148 23.8476 128.02 23.7566 129.91C20.1528 129.71 7.7762 128.583 7.06636 132.018C6.68414 133.872 6.41113 141.577 7.52138 142.995C8.95925 144.848 17.2589 145.757 17.2771 142.995C17.3681 140.832 17.8413 138.524 16.3124 136.707C18.9697 136.598 21.6089 136.67 24.2662 136.616C24.6484 139.76 24.339 142.94 24.43 146.102C24.521 147.919 23.2652 150.427 21.1903 150.209H7.64879C5.57389 150.282 3.55359 149.192 2.17032 147.701C0.386632 145.557 -0.0501894 142.667 0.00441326 139.978C0.0954177 136.87 -0.0501894 133.763 0.0772168 130.673C0.277427 127.275 3.40798 124.658 6.68414 124.458ZM89.1706 0.572826C108.391 0.445615 127.647 0.372923 146.849 1.35426C152.601 1.69955 158.407 2.33561 163.885 4.2256C169.619 6.40636 174.715 10.4226 177.882 15.7109C180.83 20.654 182.778 26.1967 183.579 31.9031C184.525 37.7548 184.216 43.6973 184.27 49.6036C184.325 57.8541 184.38 66.1228 184.38 74.3733C184.088 84.0232 182.541 94.2728 176.699 102.251C173.859 105.885 170.037 108.829 165.796 110.665C163.721 111.737 161.647 110.21 160.282 108.738C159.99 107.866 161.01 107.285 161.501 106.703C166.506 102.251 169.728 95.9992 170.984 89.4751C172.167 83.1145 172.367 76.645 172.421 70.1936C172.203 61.5796 172.021 52.9292 170.82 44.3879C170.201 39.8628 168.891 35.3196 166.197 31.5941C163.558 28.2321 160.099 25.2881 155.895 24.1795C152.856 23.2891 149.67 23.6343 146.558 23.4163C124.335 22.7984 102.093 22.2895 79.8518 22.7802C73.0446 23.2891 66.0919 21.9624 59.4303 23.7252C53.333 25.1609 49.6201 31.4487 49.0194 37.3368C48.4006 46.0053 48.71 54.7102 48.5098 63.415C48.5098 69.1759 49.347 75.4274 53.4058 79.8616C55.7538 83.1509 59.7216 84.8955 63.7076 84.9318C85.1664 86.0222 106.68 85.7133 128.175 85.895C131.105 85.7496 134.145 86.2403 137.003 85.4407C140.279 84.0777 142.044 80.3522 142.026 76.9357C142.062 73.6101 142.317 70.1936 141.353 66.9769C140.788 65.0869 138.713 64.1601 136.857 64.2692C114.961 64.7053 93.0474 64.9416 71.1335 65.305C67.3113 65.1415 63.2525 66.7952 61.4142 70.3026C58.6841 69.9755 55.8812 69.8119 53.242 69.0487C52.8052 61.5069 52.605 53.9469 52.8416 46.4051C53.1874 39.8992 59.1391 34.52 65.6186 34.5563C91.1909 33.8657 116.781 33.5568 142.354 34.2837C149.124 34.738 156.569 36.2827 161.173 41.6983C164.741 45.5328 166.761 50.5485 167.362 55.7097C168.272 63.2878 167.853 70.9205 167.926 78.5349C167.707 83.6961 167.671 89.0026 165.742 93.8729C162.757 102.396 154.785 108.557 146.012 110.156C141.935 110.937 137.785 110.828 133.654 110.992C104.004 111.755 74.3005 111.773 44.724 109.647C38.8269 109.502 33.7307 105.667 30.9641 100.633C27.4696 94.3273 26.8325 86.9127 26.5231 79.8434C26.4867 63.4332 26.0681 47.023 26.0135 30.6128C26.2501 24.6884 26.9963 18.455 30.3999 13.4211C33.9491 7.71481 40.2284 4.33464 46.6533 2.89897C60.7226 0.954459 74.9921 1.04532 89.1706 0.572826Z" fill="white"/>
</svg>
