<svg width="292" height="151" viewBox="0 0 292 151" fill="none" xmlns="http://www.w3.org/2000/svg">
<path d="M23.6758 81.8273H14.1976C9.99777 81.8273 9.11867 80.3598 9.11867 76.5123V73.6525C9.11867 70.3532 9.99899 68.3364 14.6781 68.3364H24.3568C26.9953 68.3364 28.5151 68.8857 28.5151 70.7915V71.5247H37.3941C37.4736 64.0091 35.8352 61.5159 23.1965 61.5159H12.7586C4.75985 61.5159 0 63.3488 0 71.1211V79.0403C0 86.8137 4.75985 88.6455 12.7586 88.6455H27.076C35.9954 88.6455 37.7548 85.1232 37.7548 80.6513V78.158H28.8758C28.8758 81.4618 27.6751 81.8273 23.6758 81.8273ZM51.5942 81.4618H65.5522C68.313 81.4618 69.1933 82.3766 69.1933 85.1647V88.3552H78.0723V83.8463C78.0723 79.4831 75.8727 78.4192 73.233 77.9809V77.9058C77.3118 77.0258 78.1922 74.9361 78.1922 71.379V69.6929C78.1922 64.9262 76.352 61.8107 69.5136 61.8107H42.7152V88.3552H51.5942V81.4618ZM51.5942 68.4093H65.4727C68.2726 68.4093 69.5528 68.851 69.5528 71.1962V72.0752C69.5528 73.9821 68.6724 74.8621 66.2723 74.8621H51.5942V68.4093ZM115.188 81.9752H91.8702V77.7219H113.467V72.2231H91.8702V67.9698H114.668V61.8107H82.9923V88.3552H115.188V81.9752ZM129.828 83.6613H147.824L150.585 88.3552H160.463L144.545 61.8107H132.987L117.309 88.3552H127.227L129.828 83.6613ZM138.746 67.9698L144.505 77.9428H133.146L138.746 67.9698ZM177.102 88.3552V68.4093H189.581V61.8107H155.745V68.4093H168.222V88.3552H177.102ZM193.542 88.3552H202.421V61.8107H193.542V88.3552ZM220.618 88.6478H234.858C242.855 88.6478 247.616 86.8126 247.616 79.0425V71.1234C247.616 63.35 242.855 61.5181 234.858 61.5181H220.618C212.62 61.5181 207.859 63.3511 207.859 71.1234V79.0425C207.859 86.816 212.62 88.6478 220.618 88.6478ZM216.979 73.6525C216.979 70.3532 217.859 68.3364 222.538 68.3364H232.937C237.616 68.3364 238.496 70.3532 238.496 73.6525V76.5123C238.496 80.362 237.616 81.8273 233.417 81.8273H222.059C217.859 81.8273 216.98 80.3598 216.98 76.5123V73.6525H216.979ZM283.094 61.8107V81.0941H283.015L266.338 61.8107H252.578V88.3552H261.457V69.0696H261.536L278.216 88.3552H291.972V61.8107H283.094ZM194.266 110.395C194.266 113.397 192.997 114.253 188.587 114.253H177.134C173.996 114.253 171.456 113.394 171.456 109.538V101.212C171.456 97.3551 173.993 96.4974 177.134 96.4974H188.487C191.493 96.4974 194.03 96.6813 194.03 100.445V101.455H196.902V99.5568C196.902 96.5894 195.266 94.0468 189.323 94.0468H176.802C170.255 94.0468 168.186 96.7407 168.186 102.342V108.403C168.186 114.004 170.254 116.697 176.802 116.697H189.156C195.935 116.697 197.335 114.524 197.335 110.513V109.015H194.263V110.394H194.266V110.395ZM206.219 94.2934H202.947V116.458H224.986V114.008H206.218V94.2934H206.219ZM253.937 110.855C253.937 112.997 253.135 114.253 248.695 114.253H237.341C232.899 114.253 232.098 112.997 232.098 110.855V94.2934H228.825V110.886C228.825 115.387 231.296 116.702 237.441 116.702H248.594C254.738 116.702 257.209 115.386 257.209 110.886V94.2934H253.937V110.855V110.855ZM287.095 104.733V104.611C290.033 104.335 291 102.713 291 101.121V99.2239C291 96.6824 289.599 94.2957 284.589 94.2957H263.954V116.459H284.922C288.929 116.459 291.934 114.838 291.934 111.746V109.113C291.937 105.742 289.666 104.855 287.095 104.733ZM267.225 96.743H284.29C285.29 96.743 287.728 97.049 287.728 99.068V101.089C287.728 103.293 285.891 103.815 284.123 103.815H267.225V96.743ZM288.662 111.039C288.662 112.997 287.562 114.007 284.521 114.007H267.225V106.263H284.022C286.995 106.263 288.662 106.691 288.662 109.447V111.039V111.039ZM79.7547 57.0048C79.7547 57.0048 80.1105 56.9061 80.2242 56.6696C80.8148 55.4431 81.3821 54.2032 82.0558 53.0149C82.5326 52.173 83.0804 51.34 83.7492 50.6203C84.7457 49.5497 85.8326 48.5408 86.9636 47.5845C88.0591 46.6574 89.3307 45.9264 90.826 45.6877C91.6391 45.5565 92.49 45.626 93.3251 45.5991C94.2862 45.5688 95.1665 45.2863 95.6225 44.487C96.4332 43.3525 96.6386 41.4837 97.4724 40.7752C97.7928 40.5039 97.6717 39.5611 97.0775 39.3671C96.4833 39.1732 95.8341 39.0824 95.2239 39.1194C94.2495 39.181 93.286 39.3873 92.3189 39.5342C89.3026 39.9904 86.2911 40.4837 83.2662 40.885C82.2918 41.014 81.2696 40.9837 80.2866 40.8839C79.1092 40.764 78.1665 40.1227 77.2165 39.4972C76.3643 38.9344 76.396 37.4681 77.4916 36.9793C78.6054 36.4815 79.696 35.9199 80.7329 35.2966C81.6511 34.7439 82.6121 34.4513 83.6991 34.458C84.742 34.4636 85.7837 34.4726 86.8254 34.4546C87.9001 34.4367 88.9761 34.3807 89.865 33.7237C90.2636 33.4289 90.6328 33.0993 91.0131 32.7854C91.957 32.0096 92.3177 31.0186 92.067 29.911C91.8445 28.9334 91.5303 27.9592 91.1194 27.0355C90.6499 25.9806 90.5179 24.9357 90.87 23.8562C90.9874 23.4985 91.1781 23.077 91.4838 22.8685C92.5414 22.151 93.5978 21.3853 94.7752 20.8764C97.4467 19.7239 100.165 18.6578 102.91 17.6601C105.271 16.8024 107.717 16.6107 110.161 17.4381C111.405 17.8585 112.427 17.6186 113.345 16.752C113.998 16.1354 115.263 15.1814 115.431 15.0155C115.599 14.8496 115.826 14.6478 116.169 14.5211C117.028 14.2027 119.749 13.6769 122.326 12.6433C123.067 12.4202 123.962 12.8888 124.079 13.5334C124.268 14.5895 124.434 15.6511 124.588 16.7128C124.794 18.1466 125.165 19.5311 125.974 20.7923C126.348 21.3764 126.907 21.7553 127.587 21.9649C127.998 22.0905 128.445 22.1947 128.871 22.179C129.489 22.1555 129.972 21.6219 130.134 20.8999C130.602 18.8103 131.108 16.7318 132.092 14.7789C132.38 14.2072 132.347 13.6231 132.133 13.02C131.873 12.2857 131.327 11.7498 130.773 11.2173C129.745 10.2297 128.808 9.19045 128.235 7.90908C127.756 6.83959 128.012 6.16583 129.113 5.59297C130.349 4.94724 131.699 4.66586 133.084 4.78133C134.626 4.91137 136.164 5.16136 137.68 5.45396C150.391 7.90011 161.833 12.8272 172.032 20.2004C173.941 21.5782 175.012 23.3819 175.573 25.4727C175.902 26.6947 176.11 27.9447 176.346 29.1857C176.612 30.5937 176.519 32.0152 176.229 33.3964C175.962 34.68 175.471 35.9255 175.045 37.1777C174.618 38.4221 174.713 39.5622 175.608 40.6362C176.585 41.811 177.49 43.0352 178.441 44.2269C178.863 44.7561 179.381 45.2123 180.093 45.3715C181.215 45.6238 182.343 45.8614 183.482 46.0262C185.402 46.3054 186.983 47.0811 188.229 48.4634C190.198 50.6495 191.975 52.9364 192.984 55.655C193.15 56.0989 193.485 56.979 193.485 56.979H202.185C202.185 56.979 202.101 56.6292 202.058 56.4756C198.734 45.0083 192.858 34.7764 184.265 25.8998C172.676 13.9269 158.341 6.12435 141.352 2.43495C136.934 1.47644 132.454 0.886765 127.921 0.649101C127.163 0.608743 126.404 0.550448 125.646 0.5H120.186C120 0.523542 119.813 0.556053 119.626 0.569506C117.695 0.705154 115.761 0.799323 113.837 0.978692C109.217 1.4103 104.686 2.26791 100.223 3.44166C73.3761 10.5055 52.1395 29.9177 44.3731 54.4947C44.1139 55.3153 43.8779 56.1449 43.6248 56.9935C43.8009 57.0003 44.0332 57.0092 44.0332 57.0092L79.7547 57.0048ZM182.573 121.243C181.02 122.857 179.549 124.55 177.874 126.049C171.261 131.964 163.712 136.655 155.328 140.218C153.616 140.944 151.815 141.433 149.946 141.599C147.25 141.84 144.548 141.651 141.888 141.228C139.876 140.907 137.878 140.447 135.995 139.692C134.391 139.046 133.211 138.021 132.959 136.331C132.742 134.87 131.882 133.813 130.565 133.027C127.839 131.402 126.264 131.295 123.664 129.39C123.021 129.007 122.106 127.541 120.262 127.475C118.436 127.429 116.711 127.99 116.081 127.961C113.269 127.834 112.748 127.143 109.939 126.998C108.933 126.945 107.897 126.933 106.932 126.703C104.812 126.197 102.539 126.179 100.456 125.551C96.7058 124.421 93.0855 122.928 89.1302 122.667C88.4772 122.625 87.7803 122.48 87.1959 122.823C86.6384 123.15 85.6724 124.396 86.2826 125.805C88.2547 130.431 91.6501 130.431 93.5281 134.26C94.3803 135.152 94.6762 136.243 94.5209 137.448C94.3876 138.472 93.8814 139.363 93.4621 140.288C93.3202 140.603 93.1381 140.905 92.9742 141.215C88.789 139.595 84.8288 137.696 81.0398 135.498C76.2481 132.719 71.7413 129.59 67.7701 125.882C61.1212 119.665 55.9139 112.523 52.0099 104.587C50.2957 101.102 48.8762 97.5154 47.7807 93.826C47.6865 93.5087 47.409 93.4246 47.409 93.4246C47.409 93.4246 44.2508 93.4235 43.483 93.4235C43.5307 93.6174 43.5613 93.7621 43.6016 93.9033C46.8796 105.615 52.8156 116.058 61.57 125.102C73.156 137.075 87.4918 144.876 104.482 148.565C108.898 149.524 113.378 150.112 117.912 150.353C118.671 150.392 119.428 150.45 120.186 150.5H125.646C125.832 150.476 126.019 150.443 126.206 150.432C127.392 150.365 128.581 150.333 129.764 150.239C134.168 149.89 138.522 149.257 142.804 148.244C161.087 143.923 176.046 134.936 187.691 121.315C187.774 121.213 187.967 120.954 187.967 120.954L183.278 120.948C183.276 120.942 182.776 121.03 182.573 121.243ZM81.8834 115.064C79.7804 114.062 77.6921 113.033 75.5989 112.014C74.8494 111.65 74.1097 111.266 73.3516 110.918C72.7488 110.64 72.1595 110.712 71.6166 111.081C71.1141 111.421 71.1581 111.866 71.2963 112.351C71.6252 113.504 71.9602 114.659 72.2488 115.821C72.6828 117.569 73.7098 118.918 75.4399 119.754C76.4951 120.264 77.6077 120.676 78.7069 121.109C80.1851 121.691 81.5569 121.435 82.7405 120.496C83.2956 120.057 83.7027 119.421 83.8935 119.03C84.083 118.641 84.2603 118.189 84.017 117.148C83.7736 116.11 82.8725 115.534 81.8834 115.064ZM139.668 17.0491C139.112 16.8024 138.509 16.7699 137.917 16.9706C137.109 17.2453 136.298 17.5154 135.508 17.8305C135.198 17.9549 134.868 18.1455 134.676 18.3899C134.124 19.0973 133.632 19.8428 133.129 20.5804C132.654 21.28 133.079 22.3225 133.914 22.5299C135.198 22.9537 137.484 23.179 137.651 23.197C137.878 23.2104 138.124 23.1723 138.345 23.1163C139.908 22.7205 141.474 22.3371 143.023 21.9021C143.93 21.6465 144.276 20.475 143.6 19.8517C142.424 18.7677 141.194 17.724 139.668 17.0491ZM116.262 124.255C117.665 124.34 119.068 124.421 120.471 124.506C121.19 124.546 121.872 124.479 122.467 124.054C122.756 123.848 123.056 123.653 123.369 123.48C123.718 123.29 123.834 123.006 123.801 122.667C123.755 122.185 123.696 121.704 123.608 121.229C123.552 120.921 123.378 120.694 123.038 120.528C122.002 120.023 120.918 120.048 119.83 120.247C118.412 120.506 117.006 120.827 115.595 121.115C114.792 121.278 114.405 121.747 114.446 122.497C114.475 123.053 114.908 123.398 115.235 123.8C115.496 124.119 115.858 124.229 116.262 124.255ZM143.166 24.0826C143.176 24.2272 143.137 24.3763 143.112 24.5221C143.022 25.0927 143.336 25.4615 143.957 25.4974C144.191 25.512 146.275 25.4907 147.075 25.4077C147.866 25.327 148.611 25.0848 149.189 24.5299C149.457 24.2732 149.496 23.9761 149.241 23.7429C148.737 23.2799 148.205 22.8326 147.632 22.4447C147.437 22.3125 147.05 22.2945 146.802 22.3685C145.759 22.6746 144.733 23.0288 143.708 23.3831C143.374 23.4963 143.144 23.7104 143.166 24.0826Z" fill="white"/>
</svg>
