<svg width="329" height="151" viewBox="0 0 329 151" fill="none" xmlns="http://www.w3.org/2000/svg">
<path d="M0 0.5H36.8728L55.4049 31.392L48.8229 0.5H77.5799L96.1759 31.1544L89.9135 0.5H112.663L123.016 66.2447H89.8496L72.7231 40.7388L76.8767 66.2447H45.8831L0 0.5ZM116.689 0.5H150.303L178.548 66.2447H144.998L116.689 0.5ZM187.495 66.2447L159.249 0.5H191.968L212.801 48.9769H240.727L248.14 66.2447H187.495ZM314.856 59.0366C309.36 65.8485 300.158 66.3236 292.106 66.3236H253.444L225.198 0.579238H270.251C289.294 0.579238 297.474 5.49027 303.481 12.936C310.127 21.1739 318.179 37.8873 318.179 48.5807C318.179 53.5708 316.709 56.6601 314.856 59.0366ZM284.437 38.3625L279.262 26.3225C276.578 19.9857 273.126 17.2133 268.078 17.2133H263.796L277.727 49.6898H281.946C285.14 49.6898 287.057 48.5012 287.057 46.2044C286.994 44.3825 286.099 42.1646 284.437 38.3625Z" fill="white"/>
<path d="M121.421 150.5H60.7754L89.021 84.7568H121.74L100.907 133.233H128.834L121.421 150.5ZM160.402 150.5H126.788L155.034 84.7568H188.648L160.402 150.5ZM250.954 103.529H221.494L217.213 113.114H244.436L237.087 130.302H209.928L201.109 150.5H169.349L197.595 84.7568H259.007L250.954 103.529ZM321.76 101.391H289.489L285.846 109.391H315.881L308.98 125.55H279.008L275.302 133.867H308.724L301.567 150.5H237.535L265.78 84.7568H328.918L321.76 101.391Z" fill="white"/>
</svg>
