<svg width="290" height="151" viewBox="0 0 290 151" fill="none" xmlns="http://www.w3.org/2000/svg">
<path fill-rule="evenodd" clip-rule="evenodd" d="M39.1474 56.0484C46.9061 24.0571 73.3435 0.5 104.764 0.5C136.475 0.5 163.117 24.4947 170.599 56.9389L143.286 56.9517L140.138 48.9711C140.138 48.9711 145.509 43.4346 146.89 41.7705C149.234 38.9479 147.739 37.2853 146.44 35.6884C145.142 34.0907 142.69 31.012 141.059 29.2351C139.427 27.4574 137.516 25.8868 135.057 29.1199C134.444 29.9296 128.558 36.4333 128.558 36.4333L113.192 29.2327L113.16 18.1278C113.16 15.0244 111.778 14.6731 109.764 14.6371C107.75 14.6003 102.464 14.6315 100.629 14.6371C98.7947 14.6419 96.9993 15.154 96.9993 18.387C96.9993 21.7793 97.0819 29.3575 97.0819 29.3575L81.455 36.3093L74.2064 28.7367C71.9675 26.5125 70.4713 27.9582 69.3178 29.2727C68.165 30.5888 64.7305 34.6211 63.7407 35.7172C62.7517 36.8125 61.2816 38.9495 63.2422 41.5257L70.1003 49.0983L67.0325 56.1381L39.151 56.0516L39.1474 56.0484ZM67.0615 94.7779L70.0974 102.227C64.3762 108.433 64.0842 108.967 63.6197 109.466C60.9649 112.311 62.3706 114.143 63.2683 115.112C64.395 116.328 68.7577 121.077 69.7098 122.095C70.9589 123.431 72.7544 124.552 74.7064 122.311C76.2773 120.573 81.5637 114.764 81.5637 114.764L97.0782 121.965C97.0782 121.965 97.042 129.077 97.0782 132.569C97.1145 136.06 98.7505 136.529 100.156 136.489C101.562 136.449 108.705 136.53 109.876 136.489C111.047 136.448 112.921 136.451 113.153 132.572V121.84L128.78 114.889L146.843 134.383C135.27 144.474 120.654 150.5 104.764 150.5C73.2094 150.5 46.6793 126.74 39.0488 94.5387L67.0607 94.7779H67.0615Z" fill="white"/>
<path d="M0 61.1116H23.1232C29.5284 61.1116 32.6404 63.0294 32.6404 68.7042C32.6404 73.6574 31.0102 74.6167 28.7662 75.3367V75.4551C32.276 75.9327 33.5788 78.0105 33.5788 82.3652C33.5788 88.7209 30.1776 90.0394 25.5824 90.0394H0V61.1108V61.1116ZM8.03404 72.5789H22.2545C23.7384 72.5789 24.6057 71.9796 24.6057 70.3411C24.6057 68.6626 23.7384 68.0634 22.2545 68.0634H8.03404V72.5757V72.5789ZM8.03404 83.0877H22.4356C24.1724 83.0877 25.331 82.6477 25.331 80.9691C25.331 79.0114 24.1724 78.5722 22.4356 78.5722H8.03404V83.0877ZM38.4305 61.1116H67.0894V67.8241H46.4631V72.4589H66.0047V78.4521H46.4631V83.0869H67.5597V90.0418H38.4312L38.4305 61.1116ZM70.1297 61.1116H100.743V68.3042H89.4526V90.0418H81.42V68.3074H70.1297V61.1132V61.1116ZM103.891 61.1116H111.928V71.4196H128.863V61.1116H136.897V90.0418H128.863V79.0922H111.928V90.0426H103.891V61.1124V61.1116ZM141.964 61.1116H170.63V67.8241H150.003V72.4589H169.544V78.4521H150.003V83.0869H171.1V90.0418H141.964V61.1116ZM175.117 80.5699H183.15C183.187 83.6469 184.31 83.887 186.625 83.887H196.469C198.169 83.887 199.906 83.6869 199.906 81.4492C199.906 78.9322 198.966 78.7722 188.617 78.7722C176.531 78.7722 175.156 77.1736 175.156 70.0619C175.156 64.8271 175.59 60.7916 185.723 60.7916H196.941C206.204 60.7916 207.074 64.2679 207.074 69.3426V70.2627H199.038C199.038 68.141 198.821 67.2625 195.13 67.2625H186.229C184.42 67.2625 183.189 67.9417 183.189 69.5003C183.189 72.0172 184.167 72.0973 192.778 72.0573C205.262 72.018 208.157 72.8573 208.157 81.2884C208.157 89.0809 205.769 90.361 195.094 90.361H185.36C178.05 90.361 175.12 88.8409 175.12 82.5653V80.5667L175.117 80.5699ZM213.402 61.1116H237.647C245.68 61.1116 248.503 64.0286 248.503 71.1804V79.9723C248.503 87.1248 245.68 90.0426 237.647 90.0426H213.402V61.1124V61.1116ZM221.434 82.6077H235.693C239.131 82.6077 240.47 81.5292 240.47 77.4137V73.4982C240.47 69.3819 239.131 68.3034 235.693 68.3034H221.434V82.6077ZM264.967 61.1116H275.425L289.827 90.0418H280.888L278.393 84.927H262.109L259.757 90.045H250.782L264.967 61.1148L264.967 61.1116ZM265.112 78.6922H275.39L270.179 67.8233L265.113 78.6922H265.112ZM119.308 105.044C119.308 108.712 118.229 110.015 115.177 110.015H108.363C105.058 110.015 104.013 108.377 104.013 104.969V101.283C104.013 97.8744 105.058 96.2359 108.365 96.2359H114.604C116.796 96.2359 119.14 96.8319 119.14 99.941V100.423H117.588C117.588 97.9096 116.896 97.7232 112.816 97.7232H108.533C106.949 97.7232 105.666 98.2448 105.666 100.591V105.655C105.666 108.002 106.949 108.523 108.533 108.523H114.992C116.646 108.523 117.658 107.89 117.658 106.028V104.669H111.402V103.18H119.311V105.041L119.308 105.044ZM128.111 96.3855H130.168L137.417 109.867H135.546L134.028 107.018H124.247L122.729 109.867H120.858L128.11 96.3855H128.111ZM129.139 97.8752L125.041 105.529H133.238L129.139 97.8776V97.8752ZM139.359 96.3855H141.94L149.079 107.689L156.213 96.3855H158.793V109.867H157.141V98.024H157.108L149.67 109.867H148.489L141.046 98.024H141.012V109.867H139.36V96.3855H139.359ZM161.929 96.3855H173.919V97.8752H163.583V102.176H173.515V103.666H163.583V108.377H173.987V109.867H161.929V96.3855ZM184.661 105.621H186.213V106.571C186.213 107.893 186.854 108.526 188.911 108.526H194.038C196.432 108.526 197.14 107.967 197.14 106.031C197.14 104.337 196.533 103.908 194.476 103.908H191.34C186.297 103.908 184.645 103.573 184.645 99.9978C184.645 96.9255 186.297 96.2367 189.703 96.2367H193.262C197.358 96.2367 198.387 97.3912 198.387 99.793V100.259H196.837C196.803 98.1168 196.599 97.7256 192.265 97.7256H190.513C187.326 97.7256 186.196 97.912 186.196 100.128C186.196 101.732 186.651 102.27 189.232 102.27H194.123C197.343 102.27 198.692 103.294 198.692 105.585V106.46C198.692 109.775 196.228 110.019 193.782 110.019H189.196C186.783 110.019 184.658 109.553 184.658 106.61V105.621H184.661ZM206.618 97.8752H200.446V96.3855H214.442V97.8752H208.27V109.867H206.618V97.872L206.618 97.8752ZM216.515 96.3855H218.17V106.46C218.17 107.763 218.574 108.529 220.816 108.529H226.55C228.793 108.529 229.198 107.765 229.198 106.462V96.3887H230.85V106.481C230.85 109.217 229.602 110.019 226.499 110.019H220.868C217.765 110.019 216.517 109.217 216.517 106.481V96.3895L216.515 96.3855ZM233.987 96.3855H243.853C247.952 96.3855 249.064 97.8008 249.064 103.126C249.064 108.078 247.951 109.867 243.803 109.867H233.988V96.3855H233.987ZM247.411 102.474C247.411 98.5825 246.315 97.8744 244.291 97.8744H235.64V108.377H244.022C246.029 108.377 247.411 107.892 247.411 103.852V102.474ZM252.032 96.3855H253.684V109.867H252.032V96.3855ZM256.989 101.283C256.989 97.8752 258.035 96.2367 261.341 96.2367H268.372C271.678 96.2367 272.724 97.8752 272.724 101.283V104.97C272.724 108.378 271.678 110.019 268.372 110.019H261.341C258.035 110.019 256.989 108.378 256.989 104.973V101.286V101.283ZM271.07 100.594C271.07 98.2512 269.789 97.7288 268.203 97.7288H261.509C259.924 97.7288 258.643 98.2512 258.643 100.597V105.661C258.643 108.008 259.924 108.53 261.509 108.53H268.204C269.791 108.53 271.071 108.007 271.071 105.662V100.598L271.07 100.594ZM275.337 105.622H276.888V106.574C276.888 107.896 277.529 108.53 279.586 108.53H284.713C287.107 108.53 287.816 107.97 287.816 106.033C287.816 104.339 287.209 103.911 285.151 103.911H282.014C276.971 103.911 275.319 103.576 275.319 100C275.319 96.9279 276.971 96.2399 280.379 96.2399H283.937C288.035 96.2399 289.064 97.3936 289.064 99.7954V100.261H287.512C287.479 98.12 287.276 97.7288 282.942 97.7288H281.188C278.001 97.7288 276.871 97.9152 276.871 100.131C276.871 101.734 277.326 102.273 279.907 102.273H284.797C288.017 102.273 289.367 103.297 289.367 105.589V106.462C289.367 109.778 286.904 110.02 284.459 110.02H279.873C277.463 110.02 275.338 109.555 275.338 106.613V105.625L275.337 105.622ZM282.655 63.8694C282.654 63.4034 282.737 62.9417 282.898 62.511C283.059 62.0803 283.296 61.6889 283.594 61.3594C283.893 61.0299 284.247 60.7687 284.637 60.5908C285.027 60.4129 285.446 60.3218 285.868 60.3228C286.29 60.3226 286.707 60.4141 287.097 60.5923C287.487 60.7704 287.841 61.0317 288.14 61.361C288.438 61.6904 288.675 62.0815 288.836 62.5119C288.997 62.9423 289.08 63.4036 289.08 63.8694C289.08 64.3353 288.997 64.7966 288.836 65.227C288.675 65.6574 288.438 66.0485 288.14 66.3778C287.841 66.7072 287.487 66.9684 287.097 67.1466C286.707 67.3247 286.29 67.4163 285.868 67.4161C285.446 67.4169 285.028 67.3258 284.638 67.1478C284.247 66.9699 283.893 66.7087 283.595 66.3792C283.296 66.0497 283.06 65.6584 282.899 65.2277C282.737 64.797 282.655 64.3354 282.656 63.8694H282.655ZM288.347 63.8694C288.346 63.1439 288.084 62.4486 287.619 61.9357C287.155 61.4228 286.525 61.1343 285.868 61.1332C285.542 61.1316 285.219 61.2013 284.918 61.3383C284.616 61.4752 284.343 61.6767 284.112 61.9311C283.882 62.1855 283.699 62.4878 283.575 62.8205C283.451 63.1531 283.388 63.5097 283.39 63.8694C283.388 64.2293 283.451 64.586 283.575 64.9189C283.699 65.2518 283.881 65.5542 284.112 65.8088C284.342 66.0634 284.616 66.265 284.917 66.402C285.219 66.5391 285.542 66.6088 285.868 66.6072C286.525 66.606 287.155 66.3171 287.62 65.804C288.084 65.2908 288.346 64.5952 288.347 63.8694V63.8694ZM287.47 65.816H286.644L285.868 64.2415H285.218V65.8152H284.485V61.9781H286.222C287.023 61.9781 287.571 62.1357 287.571 63.1502C287.571 63.8574 287.242 64.1463 286.627 64.1927L287.47 65.8136L287.47 65.816ZM286.239 63.6262C286.627 63.6358 286.838 63.5334 286.838 63.0494C286.838 62.5941 286.399 62.5941 286.063 62.5941H285.218V63.627H286.239V63.6262Z" fill="white"/>
</svg>
