<svg width="118" height="150" viewBox="0 0 118 150" fill="none" xmlns="http://www.w3.org/2000/svg">
<path d="M100.487 101.757L100.465 101.998L100.443 102.261L100.4 102.502L100.335 102.741L100.293 102.958L100.227 103.198L100.141 103.414L100.054 103.606L99.968 103.822L99.8595 104.014L99.7509 104.206L99.6217 104.398L99.5129 104.59L99.384 104.758L99.2319 104.926L99.1027 105.07L98.9292 105.238L98.7783 105.382L98.6045 105.526L98.432 105.645L98.2595 105.789L98.0639 105.909L97.8696 106.005L97.6755 106.125L97.4581 106.221L97.2422 106.317L97.0263 106.389L96.8104 106.461L96.6149 106.533L96.399 106.581L96.2046 106.629L96.0105 106.677L95.7932 106.725L95.577 106.749L95.383 106.773L95.1656 106.797L94.9281 106.821L94.712 106.845H94.4961H94.2584H94.0195H93.8036L93.5874 106.821H93.3499L93.1338 106.797L92.9167 106.773L92.679 106.749L92.4631 106.701L92.2472 106.677L92.0298 106.629L91.8137 106.581L91.5978 106.533L91.3819 106.485L91.1648 106.413L90.9704 106.365L90.7545 106.293L90.5384 106.221L90.3431 106.125L90.1272 106.053L89.9328 105.981L89.7167 105.885L89.5214 105.789L89.3271 105.693L89.1327 105.574L88.9374 105.478L88.7431 105.358L88.5705 105.238L88.375 105.118L88.2025 104.998L88.0287 104.878L87.8562 104.734L87.6837 104.59L87.5099 104.446L87.3372 104.302L87.1852 104.158L87.0127 103.99L87.1431 103.798L87.2938 103.63L87.4242 103.438L87.5751 103.246L87.7055 103.078L87.8344 102.886L87.9866 102.693L88.1155 102.526L88.2677 102.334L88.3968 102.165L88.5487 101.973L88.6779 101.781L88.8083 101.613L88.959 101.421L89.0893 101.229L89.2401 101.061L89.3704 100.869L89.543 101.013L89.7373 101.157L89.911 101.301L90.1054 101.445L90.2791 101.565L90.4734 101.709L90.6457 101.829L90.8415 101.925L91.0138 102.046L91.2081 102.142L91.4037 102.237L91.5978 102.334L91.7923 102.406L91.9877 102.502L92.2036 102.574L92.4197 102.646L92.6138 102.718L92.8311 102.766L93.047 102.814L93.2629 102.862L93.5007 102.886L93.7178 102.934H93.9339L94.1714 102.958H94.3875H94.6468L94.8845 102.934L95.1019 102.886L95.296 102.838L95.4903 102.79L95.664 102.718L95.815 102.622L95.9887 102.478L96.1176 102.31L96.2046 102.117L96.2701 101.901L96.2914 101.661V101.613L96.2701 101.325L96.1831 101.085L96.0743 100.917L95.9236 100.773L95.7496 100.629L95.577 100.533L95.383 100.437L95.1656 100.341L94.9063 100.221L94.7554 100.173L94.5831 100.125L94.3875 100.053L94.1932 100.005L93.9773 99.9329L93.7599 99.8849L93.5225 99.8129L93.3063 99.765L93.0686 99.693L92.8527 99.645L92.6354 99.573L92.4197 99.5248L92.2036 99.4528L92.008 99.381L91.7923 99.3328L91.5978 99.2608L91.4037 99.1888L91.2081 99.1167L90.9704 99.0206L90.7545 98.9245L90.5384 98.8286L90.3213 98.7325L90.1272 98.6125L89.911 98.4926L89.7373 98.3726L89.543 98.2527L89.3704 98.1086L89.1967 97.9886L89.046 97.8443L88.894 97.6764L88.7431 97.5083L88.6127 97.3401L88.4838 97.1722L88.375 97.0044L88.2677 96.8121L88.1591 96.5963L88.0721 96.4297L88.0069 96.2375L87.9432 96.0214L87.878 95.8294L87.8344 95.5892L87.791 95.3732L87.7692 95.1332L87.7477 94.8931L87.7258 94.6293V94.365V94.3171V94.0769L87.7477 93.837L87.7692 93.6209L87.791 93.3807L87.8344 93.1649L87.878 92.9488L87.9432 92.7325L87.9866 92.5167L88.0721 92.3006L88.1591 92.0845L88.2458 91.8687L88.3534 91.6523L88.4617 91.4365L88.5909 91.2443L88.7215 91.0523L88.8722 90.8603L89.0242 90.6924L89.1751 90.5002L89.3489 90.332L89.4996 90.212L89.6733 90.068L89.8461 89.9239L90.0184 89.804L90.2139 89.684L90.4083 89.5879L90.6023 89.4679L90.7979 89.3721L91.0138 89.2998L91.2297 89.2039L91.4252 89.1319L91.5978 89.0837L91.7923 89.0358L91.9877 88.9878L92.2036 88.9399L92.3979 88.8917L92.6138 88.8679L92.8311 88.8438L93.047 88.8197L93.2629 88.7959H93.4789H93.7178H93.9557H94.1932L94.4309 88.8197L94.6686 88.8438H94.8845L95.1234 88.8679L95.3393 88.9158L95.577 88.9399L95.7932 88.9878L95.9887 89.0358L96.2046 89.0837L96.4205 89.1319L96.6149 89.1798L96.832 89.2518L97.0263 89.3239L97.2207 89.3721L97.4378 89.4679L97.6321 89.54L97.8262 89.6358L98.0205 89.7319L98.2376 89.8281L98.432 89.948L98.6045 90.0442L98.8001 90.1641L98.9944 90.2841L99.1669 90.4043L99.3622 90.5484L99.535 90.668L99.7087 90.8124L99.8813 90.9564L100.054 91.1002L99.9246 91.2925L99.8161 91.4844L99.6869 91.6764L99.5566 91.8687L99.4277 92.0845L99.3189 92.2765L99.1885 92.4687L99.0593 92.6607L98.951 92.8527L98.8216 93.045L98.6915 93.2369L98.5827 93.4289L98.4538 93.645L98.3232 93.837L98.1943 94.029L98.0857 94.221L97.9566 94.413L97.7828 94.2692L97.5887 94.1489L97.416 94.029L97.2422 93.8849L97.0481 93.7891L96.8742 93.6688L96.6801 93.5727L96.5075 93.4769L96.312 93.3807L96.1395 93.2849L95.9454 93.2129L95.7716 93.1167L95.5337 93.045L95.3178 92.9727L95.1019 92.9009L94.8845 92.8527L94.6686 92.8048L94.4527 92.7566L94.2368 92.7325L94.0195 92.7087L93.8254 92.6846H93.6092H93.3499L93.1122 92.7325L92.8949 92.7807L92.7008 92.8286L92.5283 92.9247L92.3761 93.0206L92.1818 93.2129L92.0514 93.4289L91.9661 93.645L91.944 93.8849V93.9331L91.9661 94.2451L92.0732 94.5091L92.1602 94.6531L92.3109 94.8213L92.5064 94.9413L92.679 95.0612L92.8949 95.1573L93.1338 95.2535L93.3933 95.3493L93.5658 95.3973L93.7384 95.4693L93.9339 95.5172L94.128 95.5892L94.3439 95.6374L94.5831 95.7095L94.8208 95.7812L95.0585 95.8535L95.296 95.9014L95.5119 95.9735L95.7496 96.0455L95.9669 96.0934L96.1831 96.1655L96.399 96.2375L96.5931 96.3095L96.8104 96.3815L97.0048 96.4536L97.1989 96.5256L97.4378 96.6201L97.6537 96.7403L97.8696 96.8362L98.0857 96.9562L98.2813 97.0764L98.4756 97.1963L98.6479 97.3163L98.8216 97.4604L98.9944 97.5803L99.1669 97.7485L99.3407 97.9164L99.4914 98.1086L99.6433 98.2765L99.7725 98.4687L99.9028 98.6846L100.01 98.8765L100.119 99.0929L100.206 99.2849L100.271 99.5007L100.335 99.7168L100.378 99.9329L100.422 100.173L100.465 100.413L100.487 100.653L100.509 100.917V101.181V101.229V101.493L100.487 101.757ZM85.3194 106.557H85.1023H84.8864H84.6705H84.4546H84.2373H84.0211H83.8054H83.5893H83.3504H83.1345H82.9186H82.7027H82.4851H82.2694H82.0533H81.8374H81.62H81.4041H81.1882H80.9723H80.7562H80.5391H80.3232H80.1073H79.8911H79.6738H79.4579H79.242H79.0042H78.7871H78.571H78.3551H78.1392H77.9221H77.7059H77.49H77.2739H77.0568H76.8409H76.625H76.4088H76.1915H75.9758H75.7597H75.5438H75.3267H75.1105H74.8728H74.6569H74.441H74.2236H74.0077H73.7916H73.5759H73.3588H73.1427H72.9268V106.317V106.077V105.837V105.598V105.358V105.118V104.878V104.638V104.398V104.158V103.918V103.678V103.438V103.198V102.958V102.718V102.478V102.237V102.021V101.781V101.541V101.301V101.061V100.821V100.581V100.341V100.101V99.8608V99.6209V99.381V99.1408V98.9006V98.6607V98.4205V98.1804V97.9405V97.7003V97.4604V97.2204V96.9803V96.7403V96.5015V96.2616V96.0214V95.7812V95.5413V95.3014V95.0612V94.8213V94.5811V94.3409V94.101V93.8608V93.6209V93.4048V93.1649V92.9247V92.6846V92.4446V92.2045V91.9645V91.7244V91.4844V91.2443V91.0044V90.7642V90.524V90.2841V90.0442V89.804V89.5641V89.3239V89.0837H73.1427H73.3588H73.5759H73.7916H74.0077H74.2236H74.441H74.6569H74.8728H75.0889H75.3061H75.5222H75.7379H75.954H76.1493H76.3655H76.5814H76.7975H77.0146H77.2305H77.4464H77.6626H77.8797H78.0956H78.3115H78.5276H78.745H78.9609H79.1768H79.3927H79.61H79.8262H80.0418H80.2577H80.4739H80.6912H80.9071H81.123H81.3389H81.5563H81.7722H81.9881H82.204H82.3998H82.6157H82.8316H83.0477H83.2648H83.4807H83.6966H83.9126H84.1299H84.3458H84.5617H84.7779H84.995H85.2111H85.427V89.3239V89.54V89.7799V90.0201V90.26V90.4761V90.7162V90.9564V91.1722V91.4124V91.6523V91.8687V92.1086V92.3485V92.5887V92.8048V93.045H85.2111H84.995H84.7779H84.5617H84.3458H84.1299H83.9344H83.7185H83.5026H83.2864H83.0693H82.8534H82.6373H82.4214H82.204H81.9881H81.7722H81.5563H81.3389H81.1448H80.9287H80.7128H80.4954H80.2798H80.0636H79.8477H79.6304H79.4145H79.1986H78.9827H78.7653H78.5492H78.3551H78.1392H77.9221H77.7059H77.49H77.2739H77.0568V93.2849V93.5248V93.7647V94.0049V94.2451V94.4612V94.7011V94.9413V95.1812V95.4213V95.6613V95.9014H77.2739H77.49H77.7059H77.9221H78.1392H78.3551H78.571H78.7871H78.9827H79.1986H79.4145H79.6304H79.8477H80.0636H80.2798H80.4954H80.7128H80.9287H81.1448H81.3607H81.5779H81.7938H82.0099H82.2261H82.4432H82.6591H82.8534H83.0693H83.2864H83.5026H83.7185H83.9344H84.1515H84.3676H84.5835V96.1414V96.3574V96.5963V96.8362V97.0523V97.2922V97.5324V97.7485V97.9886V98.2286V98.4687V98.6846V98.9245V99.1647V99.381V99.6209H84.3676H84.1515H83.9344H83.7185H83.5026H83.2864H83.0693H82.8534H82.6591H82.4432H82.2261H82.0099H81.7938H81.5779H81.3607H81.1448H80.9287H80.7128H80.4954H80.2798H80.0636H79.8477H79.6304H79.4145H79.1986H78.9827H78.7871H78.571H78.3551H78.1392H77.9221H77.7059H77.49H77.2739H77.0568V99.8608V100.125V100.365V100.605V100.869V101.109V101.349V101.613V101.853V102.093V102.357V102.597H77.2739H77.49H77.7059H77.9221H78.1392H78.3551H78.571H78.7871H79.0042H79.242H79.4579H79.6738H79.8911H80.1073H80.3232H80.5391H80.7562H80.9723H81.1882H81.4041H81.62H81.8374H82.0533H82.2694H82.4851H82.7027H82.9186H83.1345H83.3504H83.5893H83.8054H84.0211H84.2373H84.4546H84.6705H84.8864H85.1023H85.3194H85.5356V102.838V103.054V103.294V103.534V103.774V103.99V104.23V104.47V104.686V104.926V105.166V105.382V105.621V105.861V106.101V106.317V106.557H85.3194ZM69.5172 106.557H69.3013H69.0851H68.8465H68.6306H68.4144H68.1985H67.9812H67.7653H67.5275H67.3116H67.0955H66.8784H66.6625H66.4466H66.2089H65.9915H65.7756H65.5595V106.317V106.077V105.837V105.597V105.355V105.115V104.875V104.635V104.395V104.155V103.915V103.674V103.434V103.193V102.953V102.713V102.472V102.232V101.992V101.752V101.512V101.272V101.03V100.79V100.55V100.31V100.07V99.8298V99.5883V99.3481V99.1082V98.8682V98.6283V98.3881V98.1466V97.9067V97.6665V97.4266V97.1864V96.9449V96.705V96.4648V96.2246L65.4512 96.4166L65.322 96.6343L65.2132 96.8263L65.0843 97.0185L64.9757 97.2344L64.8451 97.4266L64.738 97.6186L64.6292 97.836L64.5003 98.028L64.3915 98.22L64.2614 98.4122L64.1541 98.6297L64.0237 98.8217L63.9164 99.0136L63.8076 99.2297L63.6772 99.423L63.5698 99.6153L63.4395 99.8311L63.3324 100.023L63.202 100.215L63.0947 100.433L62.9859 100.625L62.8557 100.817L62.7484 101.033L62.618 101.226L62.5107 101.418L62.3803 101.611L62.2715 101.826L62.1642 102.02L62.0341 102.212L61.9267 102.428L61.7963 102.62L61.6878 102.812L61.5586 103.03L61.4501 103.222H61.3643L61.2342 103.006L61.1254 102.812L60.9962 102.596L60.8877 102.404L60.7585 102.188L60.65 101.995L60.521 101.779L60.4123 101.586L60.2819 101.37L60.1745 101.178L60.0442 100.961L59.9371 100.769L59.8067 100.553L59.6979 100.361L59.569 100.143L59.4602 99.9513L59.3313 99.7353L59.2009 99.5433L59.0924 99.3259L58.9632 99.1339L58.8547 98.9178L58.7255 98.7258L58.6169 98.5081L58.4878 98.3161L58.3792 98.1L58.2489 97.9081L58.1415 97.692L58.0112 97.4984L57.9038 97.2826L57.7735 97.0903L57.6649 96.8742L57.536 96.6825L57.4269 96.4648L57.298 96.2728V96.5127V96.7529V96.9931V97.2344V97.4745V97.7145V97.9546V98.1948V98.4361V98.6763V98.8923V99.1323V99.3724V99.6124V99.8539V100.094V100.334V100.574V100.814V101.054V101.296V101.536V101.776V102.016V102.256V102.496V102.737V102.977V103.218V103.457V103.698V103.939V104.155V104.395V104.635V104.875V105.115V105.355V105.597V105.837V106.077V106.317V106.557H57.0821H56.865H56.6489H56.433H56.2171H56H55.7838H55.5679H55.3518H55.1347H54.9188H54.7026H54.4867H54.2696H54.0537H53.8376H53.6214H53.4043H53.1884V106.317V106.077V105.837V105.598V105.358V105.118V104.878V104.638V104.398V104.158V103.918V103.678V103.438V103.198V102.958V102.718V102.478V102.237V102.021V101.781V101.541V101.301V101.061V100.821V100.581V100.341V100.101V99.8608V99.6209V99.381V99.1408V98.9006V98.6607V98.4205V98.1804V97.9405V97.7003V97.4604V97.2204V96.9803V96.7403V96.5015V96.2616V96.0214V95.7812V95.5413V95.3014V95.0612V94.8213V94.5811V94.3409V94.101V93.8608V93.6209V93.4048V93.1649V92.9247V92.6846V92.4446V92.2045V91.9645V91.7244V91.4844V91.2443V91.0044V90.7642V90.524V90.2841V90.0442V89.804V89.5641V89.3239V89.0837H53.4043H53.6214H53.816H54.0317H54.2478H54.4649H54.6592H54.8751H55.0925H55.3084H55.5027H55.7186H55.936H56.1519H56.346H56.5619H56.7792H56.9954H57.1895H57.4054H57.6227L57.7301 89.2759L57.8386 89.4918L57.9676 89.6824L58.0764 89.8985L58.1849 90.0905L58.2922 90.3068L58.4008 90.4972L58.5302 90.7136L58.6385 90.9055L58.7473 91.0975L58.8547 91.312L58.9632 91.5043L59.0924 91.7201L59.2009 91.9123L59.3095 92.1268L59.4168 92.3188L59.5472 92.5108L59.656 92.7258L59.7631 92.9175L59.8717 93.1336L59.9792 93.3258L60.1096 93.5403L60.2182 93.7326L60.3253 93.9484L60.4341 94.139L60.5414 94.331L60.6718 94.5471L60.7803 94.7394L60.8877 94.9554L60.9962 95.1461L61.1036 95.3622L61.2342 95.5542L61.3427 95.7686L61.4501 95.9609L61.5586 95.7686L61.6672 95.5542L61.7963 95.3622L61.9047 95.1461L62.0122 94.9554L62.1208 94.7394L62.25 94.5471L62.3585 94.331L62.4673 94.139L62.5744 93.9484L62.7048 93.7326L62.8121 93.5403L62.9209 93.3258L63.0292 93.1336L63.1584 92.9175L63.2669 92.7258L63.3757 92.5108L63.4829 92.3188L63.5919 92.1268L63.7208 91.9123L63.8294 91.7201L63.9379 91.5043L64.0455 91.312L64.1756 91.0975L64.2832 90.9055L64.3915 90.7136L64.5003 90.4972L64.6292 90.3068L64.738 90.0905L64.8451 89.8985L64.9539 89.6824L65.0843 89.4918L65.1916 89.2759L65.3002 89.0837H65.5161H65.7322H65.9276H66.1437H66.3596H66.5755H66.771H66.9872H67.2029H67.419H67.6145H67.8304H68.0463H68.2625H68.4578H68.6739H68.8898H69.1057H69.3013H69.5172H69.7331V89.3239V89.5641V89.804V90.0442V90.2841V90.524V90.7642V91.0044V91.2443V91.4844V91.7244V91.9645V92.2045V92.4446V92.6846V92.9247V93.1649V93.4048V93.6209V93.8608V94.101V94.3409V94.5811V94.8213V95.0612V95.3014V95.5413V95.7812V96.0214V96.2616V96.5015V96.7403V96.9803V97.2204V97.4604V97.7003V97.9405V98.1804V98.4205V98.6607V98.9006V99.1408V99.381V99.6209V99.8608V100.101V100.341V100.581V100.821V101.061V101.301V101.541V101.781V102.021V102.237V102.478V102.718V102.958V103.198V103.438V103.678V103.918V104.158V104.398V104.638V104.878V105.118V105.358V105.598V105.837V106.077V106.317V106.557H69.5172ZM44.4234 99.3569L44.3582 99.1395L44.2727 98.8993L44.1857 98.6832L44.1205 98.4658L44.035 98.2497L43.9483 98.0095L43.8828 97.7921L43.7958 97.576L43.7105 97.3602L43.6451 97.1428L43.5581 96.9026L43.4944 96.6865L43.4074 96.4691L43.3204 96.253L43.2555 96.0369L43.1697 95.7957L43.083 95.5793L43.0178 95.3635L42.9308 95.1461L42.8452 94.9059L42.7801 94.6885L42.6931 94.4724L42.6075 94.6885L42.5426 94.9059L42.4556 95.1461L42.3686 95.3635L42.3046 95.5793L42.2179 95.7957L42.1309 96.0369L42.0454 96.253L41.9799 96.4691L41.8932 96.6865L41.8062 96.9026L41.7422 97.1428L41.6555 97.3602L41.5685 97.576L41.5036 97.7921L41.4178 98.0095L41.3308 98.2497L41.244 98.4658L41.1803 98.6832L41.0933 98.8993L41.0063 99.1395L40.9411 99.3569L40.8556 99.573H41.0715H41.2874H41.5036H41.7207H41.9366H42.1525H42.3686H42.586H42.7801H42.996H43.2133H43.4292H43.6451H43.8613H44.0772H44.2943H44.5102L44.4234 99.3569ZM51.2155 106.557H50.9984H50.8038H50.5881H50.3708H50.1549H49.9387H49.7446H49.5273H49.3114H49.0955H48.8793H48.6622H48.4679H48.252H48.0358H47.8187H47.6028H47.4085H47.1926H46.9755L46.8897 106.341L46.8245 106.125L46.7378 105.909L46.6508 105.669L46.5868 105.454L46.5001 105.238L46.4131 105.022L46.3491 104.806L46.2623 104.59L46.1754 104.374L46.1104 104.158L46.0246 103.918L45.9376 103.702L45.8725 103.486L45.7855 103.27H45.5696H45.3537H45.1378H44.9219H44.7263H44.5102H44.2943H44.0772H43.8613H43.6451H43.4292H43.2133H42.996H42.7801H42.586H42.3686H42.1525H41.9366H41.7207H41.5036H41.2874H41.0715H40.8556H40.6397H40.4439H40.2283H40.0121H39.7948H39.5789L39.4933 103.486L39.4281 103.702L39.3411 103.918L39.2544 104.158L39.1904 104.374L39.1037 104.59L39.0167 104.806L38.9515 105.022L38.866 105.238L38.779 105.454L38.7138 105.669L38.628 105.909L38.5413 106.125L38.4761 106.341L38.3891 106.557H38.1732H37.9573H37.7414H37.524H37.3081H37.0704H36.8545H36.6384H36.4213H36.2054H35.9895H35.7733H35.556H35.3403H35.1244H34.8867H34.6693H34.4534H34.2373H34.0214L34.1069 106.341L34.1939 106.125L34.2807 105.909L34.3664 105.669L34.4316 105.454L34.5186 105.238L34.6054 105.022L34.6909 104.806L34.7779 104.59L34.8649 104.35L34.9504 104.134L35.0374 103.918L35.1024 103.702L35.1893 103.486L35.2749 103.27L35.3619 103.03L35.4486 102.814L35.5344 102.597L35.6214 102.382L35.7081 102.165L35.7733 101.949L35.8589 101.709L35.9458 101.493L36.0328 101.277L36.1184 101.061L36.2054 100.845L36.2924 100.629L36.3779 100.389L36.4431 100.173L36.5301 99.957L36.6168 99.7409L36.7026 99.5248L36.7893 99.3087L36.8761 99.0688L36.9619 98.8527L37.0486 98.6366L37.1138 98.4205L37.2008 98.2047L37.2863 97.9886L37.3733 97.7485L37.4603 97.5324L37.5458 97.3163L37.6326 97.1002L37.7196 96.8844L37.7848 96.668L37.8705 96.4536L37.9573 96.2134L38.044 95.9976L38.1298 95.7812L38.2166 95.5651L38.3036 95.3493L38.3891 95.1332L38.4543 94.8931L38.5413 94.6772L38.628 94.4612L38.7138 94.2451L38.8008 94.029L38.8875 93.8129L38.9733 93.5727L39.0601 93.3569L39.1252 93.1408L39.212 92.9247L39.2978 92.7087L39.3845 92.4926L39.4715 92.2527L39.557 92.0366L39.644 91.8205L39.731 91.6044L39.7948 91.3886L39.8817 91.1722L39.9687 90.9323L40.0557 90.7162L40.1413 90.5002L40.2283 90.2841L40.315 90.068L40.4005 89.8522L40.466 89.612L40.5527 89.3959L40.6397 89.1798L40.7252 88.9637H40.9411H41.1367H41.3526H41.5685H41.7858H41.9799H42.1958H42.412H42.6293H42.8237H43.0393H43.2555H43.4726H43.6669H43.8828H44.0987H44.3161H44.5102H44.7263L44.8131 89.1798L44.9001 89.3959L44.9858 89.612L45.0726 89.8522L45.1378 90.068L45.2233 90.2841L45.3103 90.5002L45.397 90.7162L45.484 90.9323L45.5696 91.1722L45.6566 91.3886L45.7436 91.6044L45.8073 91.8205L45.8943 92.0366L45.9813 92.2527L46.0683 92.4926L46.1538 92.7087L46.2405 92.9247L46.3275 93.1408L46.4131 93.3569L46.4783 93.5727L46.565 93.8129L46.6508 94.029L46.7378 94.2451L46.8245 94.4612L46.9115 94.6772L46.997 94.8931L47.0838 95.1332L47.1492 95.3493L47.2348 95.5651L47.3215 95.7812L47.4085 95.9976L47.4955 96.2134L47.581 96.4536L47.668 96.668L47.7548 96.8844L47.8187 97.1002L47.9055 97.3163L47.9925 97.5324L48.0782 97.7485L48.165 97.9886L48.252 98.2047L48.339 98.4205L48.4245 98.6366L48.4897 98.8527L48.5764 99.0688L48.6622 99.3087L48.749 99.5248L48.836 99.7409L48.9227 99.957L49.0085 100.173L49.0955 100.389L49.1604 100.629L49.2462 100.845L49.3329 101.061L49.4199 101.277L49.5055 101.493L49.5925 101.709L49.6795 101.949L49.7664 102.165L49.8302 102.382L49.9172 102.597L50.0042 102.814L50.0897 103.03L50.1764 103.27L50.2634 103.486L50.3502 103.702L50.4357 103.918L50.5011 104.134L50.5881 104.35L50.6737 104.59L50.7604 104.806L50.8472 105.022L50.9329 105.238L51.0197 105.454L51.1067 105.669L51.1721 105.909L51.2574 106.125L51.3444 106.341L51.4311 106.557H51.2155ZM32.2683 104.326L32.0945 104.47L31.9436 104.59L31.7698 104.734L31.5973 104.854L31.4248 104.998L31.251 105.118L31.0785 105.238L30.8829 105.358L30.6886 105.478L30.4943 105.598L30.299 105.693L30.1046 105.813L29.8887 105.909L29.6946 106.005L29.4773 106.101L29.2832 106.197L29.0886 106.269L28.8933 106.341L28.699 106.413L28.4831 106.485L28.289 106.557L28.0716 106.605L27.8773 106.653L27.6614 106.701L27.4443 106.749L27.2281 106.773L26.9904 106.797L26.7745 106.821L26.5368 106.845L26.3195 106.869L26.082 106.893H25.8443H25.6063H25.3689H25.1515L24.9356 106.869L24.6979 106.845L24.482 106.821L24.2661 106.797L24.0487 106.773L23.8328 106.725L23.6167 106.677L23.4226 106.629L23.2055 106.581L23.0111 106.509L22.7952 106.461L22.5997 106.389L22.4054 106.293L22.211 106.221L21.9954 106.125L21.7998 106.029L21.6055 105.933L21.4114 105.837L21.2156 105.717L21.0433 105.598L20.849 105.478L20.6752 105.358L20.5027 105.238L20.329 105.094L20.1564 104.95L19.9837 104.806L19.8317 104.662L19.681 104.518L19.5289 104.35L19.3781 104.206L19.226 104.038L19.0752 103.87L18.9449 103.702L18.8157 103.51L18.6854 103.342L18.5768 103.15L18.4477 102.958L18.3393 102.766L18.2318 102.574L18.1232 102.357L18.0146 102.165L17.9291 101.949L17.8421 101.733L17.7554 101.517L17.6696 101.301L17.6044 101.109L17.5174 100.893L17.474 100.677L17.4101 100.461L17.3667 100.221L17.3015 100.005L17.2581 99.765L17.2363 99.5489L17.1927 99.3087L17.1714 99.0929L17.1493 98.8527L17.129 98.6125L17.1074 98.3726V98.1086V97.8684V97.8205V97.5803L17.129 97.3163V97.0764L17.1493 96.8362L17.1714 96.5722L17.2148 96.3336L17.2363 96.0934L17.2797 95.8773L17.3449 95.6374L17.3885 95.3973L17.4522 95.1812L17.5174 94.9413L17.5826 94.7252L17.6696 94.485L17.7554 94.2692L17.8421 94.0531L17.9291 93.837L18.0146 93.6209L18.1232 93.4048L18.2318 93.2129L18.3393 93.0206L18.4477 92.8286L18.5565 92.6366L18.6854 92.4446L18.8157 92.2527L18.9449 92.0607L19.0752 91.8922L19.226 91.7244L19.3563 91.5562L19.5073 91.3886L19.6592 91.2202L19.8099 91.0764L19.9837 90.9082L20.1346 90.7642L20.3072 90.6201L20.4809 90.5002L20.6534 90.3561L20.8274 90.2361L20.9997 90.1162L21.194 89.996L21.3896 89.876L21.5837 89.756L21.778 89.6599L21.9733 89.5641L22.1895 89.4438L22.362 89.3721L22.5779 89.2998L22.7737 89.2039L22.9678 89.1557L23.1619 89.0837L23.379 89.0358L23.5733 88.9637L23.7892 88.9158L24.0054 88.8917L24.2225 88.8438L24.4386 88.8197L24.6543 88.7959L24.8704 88.7718L25.0878 88.7477H25.3255H25.5414H25.7789H26.0166L26.2557 88.7718L26.4934 88.7959H26.7093L26.9252 88.8197L27.1629 88.8679L27.3585 88.8917L27.5744 88.9399L27.7905 88.9878L27.9858 89.0358L28.1799 89.0837L28.3745 89.1319L28.5701 89.2039L28.7642 89.2518L28.9367 89.3239L29.1322 89.3959L29.3266 89.4918L29.5207 89.5879L29.7162 89.684L29.9105 89.804L30.1046 89.9001L30.2786 90.0201L30.4727 90.14L30.6452 90.26L30.8408 90.3802L31.0133 90.524L31.1858 90.6442L31.3596 90.7883L31.5321 90.9323L31.7058 91.1002L31.8784 91.2443L31.748 91.4365L31.5973 91.6044L31.4669 91.7964L31.3162 91.9884L31.1858 92.1806L31.0567 92.3485L30.9045 92.5405L30.7756 92.7325L30.6452 92.9009L30.4943 93.0929L30.3642 93.2849L30.2132 93.4769L30.0828 93.645L29.9539 93.837L29.802 94.029L29.6726 94.221L29.5207 94.3891L29.3915 94.5811L29.2178 94.4371L29.0452 94.2692L28.8715 94.1489L28.699 94.0049L28.5265 93.8849L28.3527 93.7647L28.1799 93.645L27.9858 93.5248L27.8121 93.4289L27.6396 93.3328L27.4658 93.2608L27.2715 93.1888L27.0774 93.1167L26.8819 93.0688L26.666 93.0206L26.4501 92.9727L26.2339 92.9488L25.9962 92.9247L25.7573 92.9009H25.5196H25.3037L25.0878 92.9247L24.8922 92.9488L24.6763 92.9968L24.482 93.045L24.2864 93.1167L24.0924 93.1888L23.898 93.2849L23.7037 93.3807L23.5299 93.5007L23.3577 93.6209L23.1837 93.7411L23.033 93.8849L22.8808 94.029L22.7301 94.173L22.5997 94.3409L22.449 94.5091L22.3186 94.7011L22.211 94.8692L22.1025 95.0612L21.9954 95.2773L21.8866 95.4693L21.7998 95.6854L21.7346 95.9014L21.6489 96.1175L21.5837 96.3574L21.5403 96.5963L21.4969 96.8121L21.4533 97.0764L21.4317 97.3163L21.4114 97.5562V97.8205V97.8684V98.1086L21.4317 98.3485L21.4533 98.5646L21.4751 98.8048L21.5185 99.0206L21.5621 99.237L21.6055 99.4528L21.6707 99.6689L21.7346 99.8608L21.8216 100.101L21.9084 100.317L22.0157 100.533L22.1243 100.725L22.2328 100.917L22.362 101.109L22.4924 101.277L22.6431 101.445L22.7737 101.613L22.9242 101.757L23.0981 101.901L23.2707 102.046L23.443 102.165L23.6167 102.285L23.8113 102.382L24.0054 102.478L24.2007 102.574L24.4168 102.646L24.6327 102.718L24.8501 102.766L25.066 102.814L25.2819 102.838L25.5196 102.862H25.7573H26.0166L26.2557 102.838L26.4934 102.814L26.7093 102.79L26.9252 102.741L27.1426 102.693L27.3585 102.622L27.5526 102.574L27.7472 102.478L27.9209 102.382L28.115 102.285L28.2669 102.19L28.4397 102.069V101.829V101.59V101.349V101.109V100.845V100.605V100.365V100.125V99.8849H28.2236H28.0282H27.8121H27.5962H27.3803H27.1848H26.9686H26.7527H26.5368H26.3415H26.1254H25.9095H25.6933H25.498H25.2819V99.645V99.4289V99.1888V98.9488V98.7087V98.4926V98.2527V98.0125V97.7726V97.5562V97.3163V97.0764V96.8362V96.6201V96.3815H25.498H25.7151H25.9313H26.1469H26.3631H26.579H26.7963H27.0122H27.2281H27.4443H27.6614H27.8773H28.0932H28.3091H28.5265H28.7426H28.9585H29.1744H29.3915H29.6076H29.8236H30.0395H30.2566H30.4727H30.6886H30.9045H31.1219H31.3378H31.5539H31.7698H31.9869H32.2028H32.419V96.6201V96.86V97.1002V97.3163V97.5562V97.7964V98.0363V98.2765V98.5167V98.7325V98.9727V99.2129V99.4528V99.693V99.9329V100.173V100.389V100.629V100.869V101.109V101.349V101.59V101.829V102.046V102.285V102.526V102.766V103.006V103.246V103.462V103.702V103.942V104.182L32.2683 104.326Z" fill="white"/>
<path d="M25.3113 49.5491H34.6847V41.5372H25.3113V25.181H35.0579V17.1691H17.3516V74.9917H35.2062V66.9796H25.3113V49.5491Z" fill="white"/>
<path d="M92.4507 51.2844V64.3359C92.4507 66.649 91.4831 67.7222 89.4756 67.7222H87.9868C85.9041 67.7222 84.9365 66.649 84.9365 64.3359V27.8242C84.9365 25.5113 85.9041 24.4382 87.9868 24.4382H89.326C91.3348 24.4382 92.3024 25.5113 92.3024 27.8242V39.142H100.113V27.3286C100.113 20.1428 96.9882 16.6733 90.5173 16.6733H86.6478C80.1765 16.6733 76.9766 20.2248 76.9766 27.4119V64.7482C76.9766 71.9356 80.1765 75.4868 86.6478 75.4868H90.5912C97.0638 75.4868 100.262 71.9356 100.262 64.7482V51.2844H92.4507Z" fill="white"/>
<path d="M64.8086 74.9917H72.7696V17.1691H64.8086V74.9917Z" fill="white"/>
<path d="M53.2595 42.8588C53.2595 45.1719 52.2934 46.2464 50.2847 46.2464H47.0108V24.9341H50.2847C52.2934 24.9341 53.2595 26.0075 53.2595 28.3201V42.8588ZM51.5486 17.1691H39.0508V74.9917H47.0108V54.0098H51.5486C58.021 54.0098 61.2195 50.4585 61.2195 43.2727V27.9078C61.2195 20.7206 58.021 17.1691 51.5486 17.1691" fill="white"/>
<path fill-rule="evenodd" clip-rule="evenodd" d="M36.1309 127.274H81.6989L58.4402 135.75L36.1309 127.274Z" fill="white"/>
<path d="M4.38149 123.874C4.43561 123.919 4.48306 123.958 4.52167 123.99C4.63937 124.054 4.75083 124.114 4.85795 124.173C5.50177 124.523 5.98915 124.788 6.73418 125.118L6.74451 125.122L6.75477 125.127L54.1504 146.951L54.1744 146.962L54.1979 146.974C56.2677 148.017 57.1111 148.401 58.1256 148.483L58.8064 148.497L59.4872 148.483C60.5017 148.401 61.3452 148.017 63.4152 146.974L63.4387 146.962L63.4627 146.951L110.858 125.127L110.868 125.122L110.879 125.118C111.623 124.789 112.11 124.524 112.752 124.174C112.86 124.115 112.973 124.054 113.091 123.99C113.101 123.982 113.111 123.974 113.122 123.965C113.154 123.938 113.191 123.908 113.232 123.874C113.384 123.749 113.587 123.58 113.795 123.406C114.003 123.23 114.21 123.054 114.371 122.913C114.452 122.842 114.514 122.786 114.555 122.747C114.556 122.746 114.557 122.745 114.558 122.745C115.696 121.232 115.811 119.961 115.964 118.271C115.978 118.125 115.991 117.975 116.006 117.821C116.079 117.042 116.113 116.189 116.113 115.255V11.7428C116.113 7.54694 115.392 5.09726 114.089 3.66385C112.82 2.26978 110.684 1.5 106.932 1.5H10.6807C6.9294 1.5 4.79246 2.26979 3.5244 3.66383C2.22056 5.09724 1.5 7.54691 1.5 11.7428V115.255C1.5 116.19 1.53434 117.043 1.60705 117.822C1.62158 117.976 1.63513 118.125 1.64839 118.272C1.8014 119.961 1.91651 121.232 3.05502 122.744C3.05585 122.745 3.0567 122.746 3.05756 122.747C3.09906 122.786 3.16082 122.841 3.24197 122.913C3.40284 123.054 3.60957 123.23 3.81846 123.406C4.02594 123.58 4.22943 123.749 4.38149 123.874ZM114.591 122.712C114.591 122.712 114.589 122.714 114.585 122.718C114.589 122.714 114.591 122.712 114.591 122.712ZM3.02742 122.718C3.02382 122.714 3.0218 122.712 3.02171 122.712C3.02161 122.712 3.0234 122.714 3.02742 122.718Z" stroke="white" stroke-width="3"/>
</svg>
