<svg width="15" height="16" viewBox="0 0 15 16" fill="none" xmlns="http://www.w3.org/2000/svg">
<g opacity="0.5" clip-path="url(#clip0)">
<path d="M9.80761 14.3462L13.2692 14.3462C13.75 14.3462 14.1587 14.1779 14.4953 13.8414C14.8317 13.5049 15 13.0963 15 12.6154L15 9.15392C15 8.67308 14.8318 8.26452 14.4953 7.92804C14.1587 7.59159 13.7499 7.42324 13.2692 7.42324L11.25 7.42324C11.0097 7.42324 10.8053 7.33907 10.637 7.17085C10.4687 7.00272 10.3846 6.79828 10.3846 6.55778L10.3846 6.26948C10.3846 5.63242 10.61 5.08873 11.0607 4.63792C11.5114 4.18733 12.0552 3.96196 12.6924 3.96196L13.2692 3.96196C13.4256 3.96196 13.5607 3.90472 13.675 3.79061C13.7891 3.6765 13.8462 3.54124 13.8462 3.38498L13.8462 2.231C13.8462 2.075 13.7891 1.93948 13.675 1.82535C13.5606 1.71127 13.4256 1.654 13.2692 1.654L12.6923 1.654C12.0673 1.654 11.4708 1.77587 10.9029 2.01918C10.335 2.26251 9.8437 2.59164 9.42902 3.00632C9.01442 3.42104 8.68537 3.9122 8.442 4.48015C8.19866 5.04806 8.07694 5.64448 8.07694 6.26945L8.07694 12.6155C8.07694 13.0964 8.24523 13.505 8.58171 13.8415C8.91819 14.1779 9.32691 14.3462 9.80761 14.3462Z" fill="white"/>
<path d="M0.505827 13.8414C0.842274 14.1779 1.25093 14.3462 1.73176 14.3462L5.19322 14.3462C5.67406 14.3462 6.08268 14.1779 6.41916 13.8414C6.7556 13.5049 6.92383 13.0963 6.92383 12.6154L6.92383 9.15392C6.92383 8.67308 6.75561 8.26452 6.41916 7.92804C6.08268 7.59159 5.67402 7.42324 5.19322 7.42324L3.17401 7.42324C2.9337 7.42324 2.72917 7.33907 2.56091 7.17085C2.39282 7.00262 2.30851 6.79828 2.30851 6.55778L2.30851 6.26948C2.30851 5.63242 2.53392 5.08873 2.98469 4.63792C3.43537 4.18733 3.97907 3.96196 4.61625 3.96196L5.19322 3.96196C5.34945 3.96196 5.48474 3.90472 5.59885 3.79061C5.71305 3.6765 5.77023 3.54124 5.77023 3.38498L5.77023 2.231C5.77023 2.075 5.71305 1.93948 5.59885 1.82535C5.48477 1.71127 5.34948 1.654 5.19322 1.654L4.61625 1.654C3.99129 1.654 3.39486 1.77587 2.82686 2.01918C2.25904 2.26251 1.76785 2.59164 1.35313 3.00632C0.938447 3.42104 0.609199 3.91233 0.365988 4.48015C0.122683 5.04793 0.000904367 5.64448 0.000904313 6.26945L0.000903758 12.6155C0.000998606 13.0964 0.169128 13.505 0.505827 13.8414Z" fill="white"/>
</g>
<defs>
<clipPath id="clip0">
<rect width="15" height="15" fill="white" transform="translate(15 15.5) rotate(-180)"/>
</clipPath>
</defs>
</svg>
