<svg width="224" height="291" viewBox="0 0 224 291" fill="none" xmlns="http://www.w3.org/2000/svg">
<path d="M17.5913 112.838V284.335L195.432 182.055V10.5574L17.5913 112.838Z" fill="url(#paint0_linear)"/>
<path d="M17.6892 112.837V284.334L0.5 274.244V102.879L17.6892 112.837Z" fill="url(#paint1_linear)"/>
<path d="M0.5 102.879L17.6892 112.838L195.431 10.5571L178.077 0.5L0.5 102.879Z" fill="url(#paint2_linear)"/>
<path d="M21.6338 116.913V278.057L189.516 181.265V20.1211L21.6338 116.913Z" fill="url(#paint3_linear)"/>
<path d="M21.6338 114.613V135.285L22.3897 135.647L189.516 38.4609L190.272 18.1823L189.516 17.8208L21.6338 114.613Z" fill="url(#paint4_linear)"/>
<path d="M22.3896 117.308V278.452L190.271 181.66V20.5159L22.3896 117.308Z" fill="url(#paint5_linear)"/>
<path d="M22.3896 115.007V135.647L190.271 38.8556V18.1826L22.3896 115.007Z" fill="url(#paint6_linear)"/>
<path d="M182.943 28.7985C182.943 28.3055 182.614 28.1083 182.187 28.3712L171.045 34.9445C170.817 35.083 170.625 35.2752 170.488 35.5042C170.351 35.7333 170.271 35.9924 170.256 36.2592C170.256 36.7522 170.618 36.9494 171.045 36.6865L182.187 30.0803C182.407 29.9432 182.59 29.7551 182.722 29.5319C182.853 29.3088 182.929 29.0572 182.943 28.7985ZM170.256 40.1046C170.256 40.5976 170.618 40.7948 171.045 40.5318L182.187 33.9585C182.411 33.8183 182.597 33.625 182.729 33.3958C182.861 33.1665 182.934 32.9082 182.943 32.6439C182.943 32.1509 182.614 31.9537 182.187 32.2166L171.045 38.7899C170.824 38.9361 170.638 39.1302 170.501 39.3577C170.365 39.5852 170.281 39.8404 170.256 40.1046ZM170.256 44.0814C170.256 44.5415 170.618 44.7387 171.045 44.5087L182.187 37.9354C182.407 37.7911 182.591 37.5968 182.722 37.3684C182.853 37.14 182.929 36.8838 182.943 36.6207C182.943 36.1277 182.614 35.9305 182.187 36.1606L171.045 42.7339C170.82 42.8835 170.631 43.0827 170.495 43.3162C170.358 43.5498 170.276 43.8115 170.256 44.0814Z" fill="white"/>
<path d="M29.1602 121.318C29.1602 122.862 30.2119 123.454 31.5594 122.698C32.2498 122.248 32.8241 121.642 33.2353 120.928C33.6466 120.214 33.8832 119.413 33.9258 118.59C33.9258 117.078 32.8741 116.453 31.5594 117.209C30.8592 117.651 30.2756 118.255 29.858 118.971C29.4405 119.686 29.2011 120.491 29.1602 121.318Z" fill="white"/>
<path d="M36.3579 117.143C36.3579 118.655 37.4425 119.279 38.7572 118.523C39.4586 118.072 40.0442 117.462 40.4667 116.743C40.8891 116.023 41.1366 115.215 41.1893 114.382C41.1893 112.87 40.1376 112.279 38.8229 113.035C38.116 113.475 37.5239 114.078 37.0954 114.792C36.6668 115.506 36.414 116.312 36.3579 117.143Z" fill="white"/>
<path d="M43.5552 112.969C43.5552 114.481 44.6398 115.073 45.9544 114.317C46.6491 113.869 47.2284 113.263 47.6452 112.55C48.0621 111.836 48.3048 111.034 48.3537 110.209C48.3537 108.697 47.2691 108.072 45.9544 108.828C45.2608 109.285 44.683 109.897 44.2666 110.616C43.8503 111.335 43.6067 112.14 43.5552 112.969Z" fill="white"/>
<g style="mix-blend-mode:multiply">
<path d="M43.5547 141.596V143.962L54.2034 137.816V153.428L32.9717 165.72V147.709L43.5547 141.596Z" fill="#F1F2F2"/>
</g>
<path d="M44.8698 142.023V144.389L55.5185 138.243V153.887L35.963 167.198L34.2539 166.147V148.136L44.8698 142.023Z" fill="url(#paint7_linear)"/>
<path d="M56.471 154.217L35.2393 166.476V151.85L56.471 139.591V154.217Z" fill="white"/>
<path d="M57.2269 154.874L35.9951 167.133V154.118L57.2269 141.859V154.874Z" fill="url(#paint8_linear)"/>
<g style="mix-blend-mode:multiply">
<path d="M74.3511 123.75V126.149L84.9998 119.97V135.614L63.7681 147.874V129.863L74.3511 123.75Z" fill="#F1F2F2"/>
</g>
<path d="M75.6662 124.176V126.576L86.3149 120.43V136.041L66.7593 149.352L65.0503 148.3V130.29L75.6662 124.176Z" fill="url(#paint9_linear)"/>
<path d="M87.2674 136.37L66.0356 148.663V134.004L87.2674 121.745V136.37Z" fill="white"/>
<path d="M88.0232 137.028L66.7915 149.32V136.272L88.0232 124.012V137.028Z" fill="url(#paint10_linear)"/>
<g style="mix-blend-mode:multiply">
<path d="M105.147 105.903V108.303L115.796 102.156V117.768L94.564 130.027V112.049L105.147 105.903Z" fill="#F1F2F2"/>
</g>
<path d="M106.462 106.33V108.73L117.111 102.583V118.195L97.5553 131.506L95.8462 130.454V112.476L106.462 106.33Z" fill="url(#paint11_linear)"/>
<path d="M118.063 118.524L96.8315 130.816V116.158L118.063 103.898V118.524Z" fill="white"/>
<path d="M118.819 119.214L97.5874 131.473V118.425L118.819 106.166V119.214Z" fill="url(#paint12_linear)"/>
<g style="mix-blend-mode:multiply">
<path d="M135.942 88.0892V90.4556L146.623 84.3096V99.9211L125.359 112.18V94.2024L135.942 88.0892Z" fill="#F1F2F2"/>
</g>
<path d="M137.257 88.516V90.8824L147.906 84.7363V100.348L128.35 113.659L126.641 112.607V94.6291L137.257 88.516Z" fill="url(#paint13_linear)"/>
<path d="M148.858 100.71L127.626 112.969V98.3107L148.858 86.0515V100.71Z" fill="white"/>
<path d="M149.614 101.367L128.382 113.626V100.578L149.614 88.3191V101.367Z" fill="url(#paint14_linear)"/>
<g style="mix-blend-mode:multiply">
<path d="M166.738 70.2428V72.6092L177.387 66.4631V82.0747L156.155 94.3339V76.3559L166.738 70.2428Z" fill="#F1F2F2"/>
</g>
<path d="M168.052 70.6698V73.0362L178.701 66.8901V82.5017L159.145 95.8126L157.469 94.7609V76.7829L168.052 70.6698Z" fill="url(#paint15_linear)"/>
<path d="M179.655 82.8638L158.423 95.1229V80.4645L179.655 68.2053V82.8638Z" fill="white"/>
<path d="M180.41 83.5209L159.179 95.7801V82.7321L180.41 70.4729V83.5209Z" fill="url(#paint16_linear)"/>
<g style="mix-blend-mode:multiply">
<path d="M43.5547 228.56V230.927L54.2034 224.781V240.392L32.9717 252.652V234.674L43.5547 228.56Z" fill="#F1F2F2"/>
</g>
<path d="M44.8698 228.988V231.354L55.5185 225.208V240.82L35.963 254.131L34.2539 253.079V235.101L44.8698 228.988Z" fill="url(#paint17_linear)"/>
<path d="M56.471 241.148L35.2393 253.44V238.782L56.471 226.523V241.148Z" fill="white"/>
<path d="M57.2269 241.838L35.9951 254.097V241.049L57.2269 228.79V241.838Z" fill="url(#paint18_linear)"/>
<g style="mix-blend-mode:multiply">
<path d="M74.3511 210.714V213.08L84.9998 206.934V222.546L63.7681 234.805V216.827L74.3511 210.714Z" fill="#F1F2F2"/>
</g>
<path d="M75.6662 211.141V213.507L86.3149 207.361V222.973L66.7593 236.317L65.0503 235.232V217.254L75.6662 211.141Z" fill="url(#paint19_linear)"/>
<path d="M87.2674 223.335L66.0356 235.594V220.936L87.2674 208.677V223.335Z" fill="white"/>
<path d="M88.0232 223.992L66.7915 236.251V223.203L88.0232 210.944V223.992Z" fill="url(#paint20_linear)"/>
<g style="mix-blend-mode:multiply">
<path d="M105.147 192.868V195.234L115.796 189.088V204.7L94.564 216.959V198.981L105.147 192.868Z" fill="#F1F2F2"/>
</g>
<path d="M106.462 193.295V195.661L117.111 189.515V205.126L97.5553 218.47L95.8462 217.419V199.408L106.462 193.295Z" fill="url(#paint21_linear)"/>
<path d="M118.063 205.489L96.8315 217.748V203.089L118.063 190.83V205.489Z" fill="white"/>
<path d="M118.819 206.146L97.5874 218.405V205.357L118.819 193.098V206.146Z" fill="url(#paint22_linear)"/>
<g style="mix-blend-mode:multiply">
<path d="M135.942 175.021V177.387L146.623 171.241V186.853L125.359 199.145V181.134L135.942 175.021Z" fill="#F1F2F2"/>
</g>
<path d="M137.257 175.448V177.814L147.906 171.668V187.28L128.35 200.623L126.641 199.572V181.561L137.257 175.448Z" fill="url(#paint23_linear)"/>
<path d="M148.858 187.642L127.626 199.901V185.275L148.858 172.983V187.642Z" fill="white"/>
<path d="M149.614 188.299L128.382 200.558V187.543L149.614 175.251V188.299Z" fill="url(#paint24_linear)"/>
<g style="mix-blend-mode:multiply">
<path d="M166.738 157.174V159.541L177.387 153.395V169.006L156.155 181.298V163.288L166.738 157.174Z" fill="#F1F2F2"/>
</g>
<path d="M168.052 157.601V159.968L178.701 153.822V169.466L159.145 182.777L157.469 181.725V163.715L168.052 157.601Z" fill="url(#paint25_linear)"/>
<path d="M179.655 169.795L158.423 182.054V167.429L179.655 155.137V169.795Z" fill="white"/>
<path d="M180.41 170.452L159.179 182.711V169.696L180.41 157.404V170.452Z" fill="url(#paint26_linear)"/>
<g style="mix-blend-mode:multiply">
<path d="M43.5547 199.375V201.742L54.2034 195.596V211.207L32.9717 223.499V205.488L43.5547 199.375Z" fill="#F1F2F2"/>
</g>
<path d="M44.8698 199.802V202.168L55.5185 196.022V211.667L35.963 224.978L34.2539 223.926V205.915L44.8698 199.802Z" fill="url(#paint27_linear)"/>
<path d="M56.471 211.996L35.2393 224.255V209.63L56.471 197.338V211.996Z" fill="white"/>
<path d="M57.2269 212.653L35.9951 224.912V211.897L57.2269 199.605V212.653Z" fill="url(#paint28_linear)"/>
<g style="mix-blend-mode:multiply">
<path d="M74.3511 181.529V183.895L84.9998 177.749V193.394L63.7681 205.653V187.642L74.3511 181.529Z" fill="#F1F2F2"/>
</g>
<path d="M75.6662 181.956V184.355L86.3149 178.176V193.821L66.7593 207.132L65.0503 206.08V188.069L75.6662 181.956Z" fill="url(#paint29_linear)"/>
<path d="M87.2674 194.15L66.0356 206.409V191.783L87.2674 179.524V194.15Z" fill="white"/>
<path d="M88.0232 194.807L66.7915 207.066V194.051L88.0232 181.792V194.807Z" fill="url(#paint30_linear)"/>
<g style="mix-blend-mode:multiply">
<path d="M105.147 163.683V166.082L115.796 159.903V175.548L94.564 187.807V169.796L105.147 163.683Z" fill="#F1F2F2"/>
</g>
<path d="M106.462 164.11V166.509L117.111 160.363V175.974L97.5553 189.285L95.8462 188.234V170.256L106.462 164.11Z" fill="url(#paint31_linear)"/>
<path d="M118.063 176.304L96.8315 188.596V173.937L118.063 161.678V176.304Z" fill="white"/>
<path d="M118.819 176.961L97.5874 189.253V176.205L118.819 163.946V176.961Z" fill="url(#paint32_linear)"/>
<g style="mix-blend-mode:multiply">
<path d="M135.942 145.836V148.235L146.623 142.089V157.7L125.359 169.96V151.982L135.942 145.836Z" fill="#F1F2F2"/>
</g>
<path d="M137.257 146.263V148.662L147.906 142.516V158.127L128.35 171.438L126.641 170.387V152.409L137.257 146.263Z" fill="url(#paint33_linear)"/>
<path d="M148.858 158.457L127.626 170.749V156.09L148.858 143.831V158.457Z" fill="white"/>
<path d="M149.614 159.147L128.382 171.406V158.358L149.614 146.099V159.147Z" fill="url(#paint34_linear)"/>
<g style="mix-blend-mode:multiply">
<path d="M166.738 128.022V130.389L177.387 124.243V139.854L156.155 152.113V134.135L166.738 128.022Z" fill="#F1F2F2"/>
</g>
<path d="M168.052 128.449V130.815L178.701 124.669V140.281L159.145 153.592L157.469 152.54V134.562L168.052 128.449Z" fill="url(#paint35_linear)"/>
<path d="M179.655 140.61L158.423 152.902V138.244L179.655 125.985V140.61Z" fill="white"/>
<path d="M180.41 141.3L159.179 153.559V140.511L180.41 128.252V141.3Z" fill="url(#paint36_linear)"/>
<g style="mix-blend-mode:multiply">
<path d="M43.5547 170.782V173.148L54.2034 167.002V182.614L32.9717 194.873V176.895L43.5547 170.782Z" fill="#F1F2F2"/>
</g>
<path d="M44.8698 171.209V173.575L55.5185 167.429V183.041L35.963 196.351L34.2539 195.3V177.322L44.8698 171.209Z" fill="url(#paint37_linear)"/>
<path d="M56.471 183.402L35.2393 195.662V181.003L56.471 168.744V183.402Z" fill="white"/>
<path d="M57.2269 184.059L35.9951 196.319V183.271L57.2269 171.011V184.059Z" fill="url(#paint38_linear)"/>
<g style="mix-blend-mode:multiply">
<path d="M74.3511 152.935V155.302L84.9998 149.156V164.767L63.7681 177.027V159.049L74.3511 152.935Z" fill="#F1F2F2"/>
</g>
<path d="M75.6662 153.362V155.729L86.3149 149.583V165.194L66.7593 178.538L65.0503 177.453V159.475L75.6662 153.362Z" fill="url(#paint39_linear)"/>
<path d="M87.2674 165.556L66.0356 177.815V163.157L87.2674 150.898V165.556Z" fill="white"/>
<path d="M88.0232 166.213L66.7915 178.472V165.424L88.0232 153.165V166.213Z" fill="url(#paint40_linear)"/>
<g style="mix-blend-mode:multiply">
<path d="M105.147 135.089V137.455L115.796 131.309V146.921L94.564 159.18V141.202L105.147 135.089Z" fill="#F1F2F2"/>
</g>
<path d="M106.462 135.516V137.882L117.111 131.736V147.348L97.5553 160.692L95.8462 159.64V141.629L106.462 135.516Z" fill="url(#paint41_linear)"/>
<path d="M118.063 147.71L96.8315 159.969V145.344L118.063 133.052V147.71Z" fill="white"/>
<path d="M118.819 148.367L97.5874 160.626V147.611L118.819 135.319V148.367Z" fill="url(#paint42_linear)"/>
<g style="mix-blend-mode:multiply">
<path d="M166.738 99.3959V101.795L177.387 95.6162V111.261L156.155 123.52V105.509L166.738 99.3959Z" fill="#F1F2F2"/>
</g>
<path d="M168.052 99.8226V102.222L178.701 96.043V111.687L159.145 124.998L157.469 123.947V105.936L168.052 99.8226Z" fill="url(#paint43_linear)"/>
<path d="M179.655 112.017L158.423 124.276V109.65L179.655 97.3911V112.017Z" fill="white"/>
<path d="M180.41 112.674L159.179 124.966V111.918L180.41 99.6587V112.674Z" fill="url(#paint44_linear)"/>
<g style="mix-blend-mode:multiply">
<path d="M136.073 108.697V112.805L154.478 102.156V129.14L117.767 150.339V119.247L136.073 108.697Z" fill="#F1F2F2"/>
</g>
<path d="M138.309 109.453V113.528L156.714 102.912V129.896L122.96 152.902L120.002 151.095V120.003L138.309 109.453Z" fill="url(#paint45_linear)"/>
<path d="M158.389 130.487L121.677 151.686V126.379L158.389 105.213V130.487Z" fill="white"/>
<path d="M159.671 131.638L122.992 152.837V130.291L159.671 109.125V131.638Z" fill="url(#paint46_linear)"/>
<g style="mix-blend-mode:multiply" opacity="0.1">
<path d="M182.252 286.898C196.747 293.701 202.827 289.725 212.095 284.367C221.364 279.01 225.242 274.113 214.396 268.822C203.55 263.53 193.789 267.573 184.487 272.93C175.186 278.287 174.365 283.151 182.252 286.898Z" fill="black"/>
</g>
<path d="M217.649 184.552C217.649 188.167 217.846 200.985 214.691 209.3C211.536 217.616 215.118 222.743 215.841 227.213C216.728 234.871 216.529 242.616 215.25 250.219C214.165 259.553 214.231 263.957 215.25 265.962C216.268 267.967 215.611 270.761 209.662 272.535C203.713 274.31 196.516 274.245 197.337 268.756C197.567 266.948 202.695 271.089 204.404 268.394C206.113 265.699 208.118 261.328 207.132 251.468C206.146 241.608 204.962 235.561 204.404 230.138C203.845 224.715 202.793 218.01 201.709 210.779C200.624 203.549 199.441 182.021 199.441 182.021L217.649 184.552Z" fill="url(#paint47_radial)"/>
<path d="M211.109 264.418C211.109 261.46 210.386 253.9 210.386 248.839C210.386 243.778 206.836 226.457 208.447 222.907C210.813 217.78 207.559 210.747 207.559 208.085C207.559 205.422 207.559 187.017 207.559 183.008L217.419 184.519C217.419 188.135 217.616 200.953 214.461 209.268C211.306 217.583 214.888 222.71 215.612 227.18C216.499 234.839 216.299 242.584 215.02 250.187C213.935 259.521 214.001 263.925 215.02 265.93C216.039 267.934 215.381 270.728 209.433 272.503C208.041 272.873 206.624 273.137 205.193 273.292L206.54 272.536C206.54 272.536 211.109 267.376 211.109 264.418Z" fill="url(#paint48_radial)"/>
<path d="M215.907 265.732C217.047 266.956 217.731 268.534 217.847 270.202C217.584 272.24 215.973 274.738 215.907 276.578C215.842 278.419 215.907 279.865 215.907 279.865C215.459 279.893 215.009 279.893 214.56 279.865L214.001 279.405V272.897C212.125 272.672 210.224 273.015 208.545 273.883C205.645 275.561 202.22 276.089 198.948 275.362C196.681 274.409 195.07 267.54 195.3 266.521C195.53 265.502 201.052 268.362 201.873 268.756C202.267 268.939 202.673 269.093 203.09 269.216C203.09 269.216 200.263 268.394 199.573 269.446C199.374 269.846 199.279 270.289 199.297 270.734C199.314 271.18 199.443 271.615 199.672 271.997C199.902 272.38 200.223 272.699 200.608 272.926C200.992 273.152 201.428 273.277 201.873 273.291C204.108 273.686 206.935 270.498 209.301 269.676C211.668 268.855 215.382 267.277 215.907 265.732Z" fill="#10054D"/>
<path d="M206.047 196.844C204.765 200.328 203.089 207.23 201.544 212.127C200 217.024 198.258 222.184 199.047 225.734C200.997 231.392 202.104 237.305 202.333 243.285C202.333 251.337 201.413 268.329 202.596 270.86C203.779 273.39 204.864 275.79 204.239 277.433C203.615 279.076 198.061 280.325 193.656 283.25C189.252 286.175 183.238 279.964 185.506 278.616C187.773 277.269 188.135 278.912 189.844 277.827C191.356 276.937 192.635 275.702 193.578 274.223C194.521 272.743 195.099 271.061 195.267 269.315C195.267 265.24 190.567 238.585 189.318 232.702C188.067 227.301 187.275 221.803 186.952 216.269C186.36 208.863 186.36 201.423 186.952 194.018C187.609 187.445 209.662 186.985 206.047 196.844Z" fill="url(#paint49_radial)"/>
<path d="M193.098 283.382L197.338 278.057C196.873 276.571 196.716 275.005 196.878 273.456C197.959 271.03 198.465 268.387 198.357 265.732C197.232 255.33 195.553 244.996 193.328 234.772C192.441 231.19 194.511 227.805 194.216 224.912C193.92 222.02 190.929 213.935 191.849 208.479C192.309 205.192 193.755 196.056 194.873 189.417C194.12 189.484 193.373 189.605 192.638 189.778C199.211 188.332 208.513 190.271 206.048 196.943C204.766 200.427 203.09 207.329 201.545 212.226C200 217.123 198.258 222.283 199.047 225.833C200.997 231.49 202.104 237.404 202.334 243.383C202.334 251.436 201.413 268.428 202.597 270.958C203.78 273.489 204.864 275.888 204.24 277.532C203.615 279.175 198.061 280.424 193.657 283.349C193.084 283.733 192.437 283.994 191.758 284.112C191.079 284.231 190.382 284.206 189.713 284.039C190.884 284.235 192.086 284.001 193.098 283.382Z" fill="url(#paint50_radial)"/>
<path d="M211.503 167.33L188.497 168.283C188.497 168.283 187.051 184.914 186.525 191.29C185.999 197.666 185.802 217.419 185.802 217.419C189.554 219.325 193.773 220.123 197.962 219.719C203.55 218.635 216.433 215.677 216.433 215.677C216.433 215.677 216.893 209.498 217.222 203.845C217.551 198.192 218.767 185.407 216.861 179.885C214.954 174.364 211.503 167.33 211.503 167.33Z" fill="url(#paint51_linear)"/>
<path d="M211.503 167.33L188.497 168.283C188.497 168.283 187.051 184.914 186.525 191.29C185.999 197.666 185.802 217.419 185.802 217.419C189.554 219.325 193.773 220.123 197.962 219.719C203.55 218.635 216.433 215.677 216.433 215.677C216.433 215.677 216.893 209.498 217.222 203.845C217.551 198.192 218.767 185.407 216.861 179.885C214.954 174.364 211.503 167.33 211.503 167.33Z" fill="url(#paint52_linear)"/>
<path d="M203.484 272.7C204.179 273.343 204.718 274.136 205.06 275.019C205.401 275.902 205.537 276.851 205.456 277.795C204.897 280.522 203.352 280.687 203.352 282.659V287.72L202.169 288.18L200.887 287.687V279.865C198.704 280.537 196.649 281.57 194.807 282.922C193.595 283.892 192.148 284.524 190.612 284.755C189.077 284.986 187.508 284.807 186.064 284.236C183.961 283.152 180.017 277.663 181.036 276.578C182.055 275.494 189.68 277.729 189.68 277.729C189.68 277.729 186.787 278.025 186.393 279.471C185.999 280.917 188.431 282.757 190.403 281.903C192.955 280.002 195.635 278.278 198.422 276.743C200.574 276.112 202.392 274.66 203.484 272.7Z" fill="#10054D"/>
<g style="mix-blend-mode:multiply">
<path d="M186.36 191.126C186.853 185.44 188.07 171.209 188.3 168.645L193.197 169.5C193.197 169.5 193.624 187.445 193.788 195.596C193.788 202.169 193.098 214.593 192.737 219.654C190.332 219.238 187.997 218.485 185.802 217.419C185.802 217.419 185.802 197.403 186.36 191.126Z" fill="#D1D3D4"/>
</g>
<path d="M215.775 128.679C217.582 132.689 220.277 146.723 219.061 150.897C218.371 153.592 211.929 169.434 211.929 169.434L206.605 161.907L215.775 128.679Z" fill="url(#paint53_linear)"/>
<path d="M197.01 132.459C194.676 134.464 187.15 140.051 185.802 144.225C184.936 147.306 185.157 150.59 186.427 153.527C187.91 157.547 188.471 161.848 188.07 166.114C187.445 172.688 185.934 191.093 185.638 193.262C185.342 195.431 187.708 196.319 189.878 196.549C196.795 197.256 203.784 196.665 210.485 194.807C217.058 192.276 218.701 191.29 218.701 189.745C218.661 184.551 217.53 179.423 215.382 174.693C212.73 169.618 211.322 163.985 211.274 158.259C211.537 154.743 217.255 139.821 216.96 134.234C216.664 128.647 214.264 123.651 210.386 124.9C205.715 127.024 201.239 129.554 197.01 132.459Z" fill="url(#paint54_linear)"/>
<path d="M199.606 196.845C196.245 193.968 194.154 189.882 193.788 185.473C193.493 178.374 194.807 171.702 196.451 171.472C198.094 171.242 199.409 168.514 199.409 166.443C199.409 156.78 202.301 139.756 199.934 137.291C197.924 136.004 195.541 135.425 193.164 135.647L197.009 132.361C201.164 129.455 205.563 126.915 210.156 124.768C214.133 123.519 216.729 128.482 216.729 134.07C216.729 139.657 211.306 154.611 211.043 158.128C211.142 163.917 212.63 169.598 215.382 174.693C217.536 179.465 218.656 184.64 218.668 189.877C218.668 191.422 217.058 192.408 210.452 194.938C204.747 196.601 198.799 197.268 192.868 196.91C194.709 196.976 197.075 196.976 199.606 196.845Z" fill="url(#paint55_linear)"/>
<path d="M210.386 125.951C209.07 127.12 207.432 127.864 205.686 128.087C202.399 128.613 200.822 128.087 199.737 128.942C198.735 129.833 197.852 130.849 197.108 131.965C198.381 131.011 199.872 130.39 201.446 130.158C204.183 130.224 206.91 129.801 209.499 128.909C210.978 127.857 210.715 127.167 210.715 126.904C210.647 126.573 210.537 126.253 210.386 125.951Z" fill="url(#paint56_linear)"/>
<g style="mix-blend-mode:multiply">
<path d="M209.926 125.195C209.926 125.195 212.72 127.66 212.391 129.928C212.062 132.196 209.762 134.266 205.818 133.97C203.092 133.349 200.261 133.349 197.535 133.97C195.728 134.759 192.31 136.468 192.31 136.468C192.31 136.468 195.859 130.684 198.883 130.191C201.822 130.119 204.748 129.778 207.625 129.172C209.433 128.252 210.55 127.956 210.912 126.838C210.935 126.497 210.853 126.156 210.677 125.862C210.501 125.568 210.239 125.335 209.926 125.195Z" fill="#D1D3D4"/>
</g>
<path d="M209.926 125.195C209.926 125.195 212.522 126.641 212.161 128.909C211.799 131.177 209.532 133.247 205.588 132.919C202.786 132.401 199.902 132.559 197.174 133.379C195.457 134.326 193.829 135.426 192.31 136.665C192.31 136.665 195.859 130.881 198.883 130.388C201.822 130.316 204.748 129.975 207.625 129.369C209.433 128.449 210.55 128.153 210.912 127.036C210.98 126.663 210.92 126.277 210.741 125.943C210.561 125.609 210.274 125.345 209.926 125.195Z" fill="url(#paint57_linear)"/>
<path style="mix-blend-mode:color-dodge" d="M196.812 132.919C199.543 132.116 202.424 131.959 205.226 132.459C209.236 132.788 211.536 130.684 211.799 128.449C211.892 127.813 211.764 127.163 211.438 126.609C211.698 126.927 211.891 127.296 212.004 127.691C212.117 128.087 212.148 128.502 212.095 128.91C211.766 131.112 209.466 133.248 205.522 132.919C202.72 132.401 199.836 132.559 197.108 133.379C195.391 134.327 193.763 135.427 192.244 136.666C192.244 136.666 192.572 136.107 193.131 135.351C194.288 134.439 195.519 133.625 196.812 132.919Z" fill="url(#paint58_radial)"/>
<path d="M152.475 144.389C151.776 143.773 150.96 143.303 150.075 143.009C147.61 142.187 142.746 139.722 142.746 138.309C143.099 136.61 143.697 134.972 144.521 133.445C144.521 133.445 139.788 129.041 139.591 128.679C139.394 128.318 140.183 127.627 141.53 128.679C143.491 130.123 145.556 131.419 147.709 132.557L149.484 132.82C148.834 132.077 148.241 131.286 147.709 130.454C147.446 129.829 147.709 128.745 148.334 128.843C148.958 128.942 151.226 132.13 152.113 132.919C153.23 134.218 154.099 135.711 154.677 137.323C155.035 138.173 155.452 138.997 155.926 139.788C155.926 139.788 154.249 145.803 152.475 144.389Z" fill="url(#paint59_linear)"/>
<path d="M156.583 139.656L155.499 138.44L150.897 143.502L152.245 144.389L156.583 139.656Z" fill="url(#paint60_linear)"/>
<path d="M195.661 103.668C192.933 105.804 191.092 113.528 192.834 118.852C194.576 124.177 196.844 124.571 197.731 125.031C198.619 125.491 201.478 130.126 200.394 132.229C199.309 134.332 207.756 133.149 209.859 131.407C211.963 129.665 212.028 128.942 212.028 128.942C210.878 127.237 210.453 125.144 210.845 123.125C211.831 120.66 216.137 111.655 210.845 105.476C209.027 103.287 206.439 101.88 203.614 101.544C200.788 101.207 197.942 101.968 195.661 103.668Z" fill="url(#paint61_radial)"/>
<path d="M193.558 136.764C194.28 136.379 195.078 136.159 195.894 136.121C196.711 136.082 197.526 136.225 198.281 136.539C199.036 136.853 199.711 137.332 200.259 137.939C200.806 138.546 201.212 139.268 201.446 140.051C201.984 142.214 201.687 144.501 200.615 146.456C199.543 148.411 197.775 149.89 195.662 150.601C189.292 154.166 183.125 158.083 177.191 162.334C176.099 163.367 174.652 163.943 173.148 163.943C171.645 163.943 170.198 163.367 169.106 162.334C165.556 159.245 151.358 144.225 151.358 144.225L156.222 139.065C156.222 139.065 166.082 149.516 168.481 150.962L172.951 153.789C172.951 153.789 190.272 138.539 193.558 136.764Z" fill="url(#paint62_linear)"/>
<g style="mix-blend-mode:multiply" opacity="0.5">
<path d="M195.858 148.892C189.488 152.458 183.321 156.375 177.387 160.626C176.294 161.659 174.848 162.235 173.344 162.235C171.841 162.235 170.394 161.659 169.302 160.626C166.245 157.964 155.202 146.362 152.31 143.305L151.422 144.225C151.422 144.225 165.621 159.245 169.17 162.335C170.263 163.368 171.709 163.944 173.213 163.944C174.716 163.944 176.163 163.368 177.255 162.335C183.169 158.086 189.313 154.169 195.661 150.601C197.414 149.959 198.929 148.796 200.004 147.269C201.079 145.742 201.662 143.923 201.675 142.056C201.347 143.588 200.644 145.015 199.628 146.208C198.613 147.401 197.317 148.323 195.858 148.892Z" fill="#D1D3D4"/>
</g>
<path d="M191.882 110.307C193.182 111.471 194.616 112.475 196.155 113.298C197.897 114.021 199.441 117.045 199.803 117.768C200.274 118.796 200.4 119.948 200.164 121.054C199.31 129.304 193.591 129.172 194.61 137.159C195.892 149.056 208.611 156.419 216.959 152.803C223.237 150.108 225.603 141.004 220.673 129.797C218.109 123.979 217.814 121.975 216.105 111.852C215.865 109.982 215.26 108.177 214.322 106.542C213.384 104.907 212.133 103.472 210.64 102.321C209.147 101.17 207.442 100.325 205.621 99.8343C203.801 99.3435 201.902 99.2166 200.033 99.461C189.286 101.597 191.882 110.307 191.882 110.307Z" fill="url(#paint63_linear)"/>
<g style="mix-blend-mode:multiply">
<path d="M220.673 129.796C219.061 126.232 217.954 122.46 217.387 118.589C215.97 122.853 213.244 126.562 209.597 129.188C205.951 131.814 201.569 133.223 197.075 133.214C196.352 133.214 195.662 133.214 194.939 133.214C194.628 134.561 194.562 135.953 194.742 137.323C196.024 149.22 208.743 156.582 217.091 152.967C223.237 150.174 225.603 141.07 220.673 129.796Z" fill="#D1D3D4"/>
</g>
<defs>
<linearGradient id="paint0_linear" x1="10383.9" y1="13119" x2="36381.1" y2="8062.43" gradientUnits="userSpaceOnUse">
<stop stop-color="#25054D"/>
<stop offset="1" stop-color="#45108A"/>
</linearGradient>
<linearGradient id="paint1_linear" x1="249.227" y1="11770.5" x2="1163" y2="11751.1" gradientUnits="userSpaceOnUse">
<stop stop-color="#25054D"/>
<stop offset="1" stop-color="#45108A"/>
</linearGradient>
<linearGradient id="paint2_linear" x1="23345.4" y1="-9527.97" x2="18993.6" y2="4864.82" gradientUnits="userSpaceOnUse">
<stop stop-color="#25054D"/>
<stop offset="1" stop-color="#45108A"/>
</linearGradient>
<linearGradient id="paint3_linear" x1="7248.95" y1="11681.4" x2="15822.7" y2="11681.4" gradientUnits="userSpaceOnUse">
<stop stop-color="#25054D"/>
<stop offset="1" stop-color="#45108A"/>
</linearGradient>
<linearGradient id="paint4_linear" x1="110.965" y1="90.4885" x2="77.8683" y2="-0.584416" gradientUnits="userSpaceOnUse">
<stop offset="0.01" stop-color="#5B15A3"/>
<stop offset="0.28" stop-color="#4E51BB"/>
<stop offset="0.93" stop-color="#2EE5F8"/>
<stop offset="1" stop-color="#2AF6FF"/>
</linearGradient>
<linearGradient id="paint5_linear" x1="-1.161e+06" y1="14550.1" x2="-1.14343e+06" y2="11985.8" gradientUnits="userSpaceOnUse">
<stop stop-color="#25054D"/>
<stop offset="1" stop-color="#45108A"/>
</linearGradient>
<linearGradient id="paint6_linear" x1="22.5211" y1="137.455" x2="190.271" y2="16.3092" gradientUnits="userSpaceOnUse">
<stop offset="0.03" stop-color="#7C1DC9"/>
<stop offset="0.28" stop-color="#6E41D2"/>
<stop offset="0.83" stop-color="#4C9CE9"/>
<stop offset="1" stop-color="#41B9F0"/>
</linearGradient>
<linearGradient id="paint7_linear" x1="44.9026" y1="152.507" x2="42.8978" y2="125.556" gradientUnits="userSpaceOnUse">
<stop offset="0.04" stop-color="#FFA98C"/>
<stop offset="0.32" stop-color="#FFB892"/>
<stop offset="0.86" stop-color="#FEE1A3"/>
<stop offset="1" stop-color="#FEECA8"/>
</linearGradient>
<linearGradient id="paint8_linear" x1="261281" y1="1601.95" x2="261405" y2="1194.09" gradientUnits="userSpaceOnUse">
<stop offset="0.04" stop-color="#FFA98C"/>
<stop offset="0.32" stop-color="#FFB892"/>
<stop offset="0.86" stop-color="#FEE1A3"/>
<stop offset="1" stop-color="#FEECA8"/>
</linearGradient>
<linearGradient id="paint9_linear" x1="261585" y1="1301.05" x2="261609" y2="1065.24" gradientUnits="userSpaceOnUse">
<stop offset="0.04" stop-color="#FFA98C"/>
<stop offset="0.32" stop-color="#FFB892"/>
<stop offset="0.86" stop-color="#FEE1A3"/>
<stop offset="1" stop-color="#FEECA8"/>
</linearGradient>
<linearGradient id="paint10_linear" x1="261112" y1="1448.58" x2="261237" y2="1040.28" gradientUnits="userSpaceOnUse">
<stop offset="0.04" stop-color="#FFA98C"/>
<stop offset="0.32" stop-color="#FFB892"/>
<stop offset="0.86" stop-color="#FEE1A3"/>
<stop offset="1" stop-color="#FEECA8"/>
</linearGradient>
<linearGradient id="paint11_linear" x1="261417" y1="1126.15" x2="261440" y2="890.381" gradientUnits="userSpaceOnUse">
<stop offset="0.04" stop-color="#FFA98C"/>
<stop offset="0.32" stop-color="#FFB892"/>
<stop offset="0.86" stop-color="#FEE1A3"/>
<stop offset="1" stop-color="#FEECA8"/>
</linearGradient>
<linearGradient id="paint12_linear" x1="260944" y1="1293.32" x2="261069" y2="885.283" gradientUnits="userSpaceOnUse">
<stop offset="0.04" stop-color="#FFA98C"/>
<stop offset="0.32" stop-color="#FFB892"/>
<stop offset="0.86" stop-color="#FEE1A3"/>
<stop offset="1" stop-color="#FEECA8"/>
</linearGradient>
<linearGradient id="paint13_linear" x1="261248" y1="951.253" x2="261272" y2="715.484" gradientUnits="userSpaceOnUse">
<stop offset="0.04" stop-color="#FFA98C"/>
<stop offset="0.32" stop-color="#FFB892"/>
<stop offset="0.86" stop-color="#FEE1A3"/>
<stop offset="1" stop-color="#FEECA8"/>
</linearGradient>
<linearGradient id="paint14_linear" x1="260776" y1="1138.06" x2="260900" y2="729.971" gradientUnits="userSpaceOnUse">
<stop offset="0.04" stop-color="#FFA98C"/>
<stop offset="0.32" stop-color="#FFB892"/>
<stop offset="0.86" stop-color="#FEE1A3"/>
<stop offset="1" stop-color="#FEECA8"/>
</linearGradient>
<linearGradient id="paint15_linear" x1="260676" y1="776.647" x2="260700" y2="540.595" gradientUnits="userSpaceOnUse">
<stop offset="0.04" stop-color="#FFA98C"/>
<stop offset="0.32" stop-color="#FFB892"/>
<stop offset="0.86" stop-color="#FEE1A3"/>
<stop offset="1" stop-color="#FEECA8"/>
</linearGradient>
<linearGradient id="paint16_linear" x1="260608" y1="982.791" x2="260732" y2="574.704" gradientUnits="userSpaceOnUse">
<stop offset="0.04" stop-color="#FFA98C"/>
<stop offset="0.32" stop-color="#FFB892"/>
<stop offset="0.86" stop-color="#FEE1A3"/>
<stop offset="1" stop-color="#FEECA8"/>
</linearGradient>
<linearGradient id="paint17_linear" x1="261754" y1="2327.87" x2="261777" y2="2092.1" gradientUnits="userSpaceOnUse">
<stop offset="0.04" stop-color="#FFA98C"/>
<stop offset="0.32" stop-color="#FFB892"/>
<stop offset="0.86" stop-color="#FEE1A3"/>
<stop offset="1" stop-color="#FEECA8"/>
</linearGradient>
<linearGradient id="paint18_linear" x1="261281" y1="2360.17" x2="261405" y2="1952.12" gradientUnits="userSpaceOnUse">
<stop offset="0.04" stop-color="#FFA98C"/>
<stop offset="0.32" stop-color="#FFB892"/>
<stop offset="0.86" stop-color="#FEE1A3"/>
<stop offset="1" stop-color="#FEECA8"/>
</linearGradient>
<linearGradient id="paint19_linear" x1="261585" y1="2155.19" x2="261609" y2="1919.12" gradientUnits="userSpaceOnUse">
<stop offset="0.04" stop-color="#FFA98C"/>
<stop offset="0.32" stop-color="#FFB892"/>
<stop offset="0.86" stop-color="#FEE1A3"/>
<stop offset="1" stop-color="#FEECA8"/>
</linearGradient>
<linearGradient id="paint20_linear" x1="261112" y1="2204.9" x2="261237" y2="1796.86" gradientUnits="userSpaceOnUse">
<stop offset="0.04" stop-color="#FFA98C"/>
<stop offset="0.32" stop-color="#FFB892"/>
<stop offset="0.86" stop-color="#FEE1A3"/>
<stop offset="1" stop-color="#FEECA8"/>
</linearGradient>
<linearGradient id="paint21_linear" x1="261417" y1="1980.4" x2="261440" y2="1744.08" gradientUnits="userSpaceOnUse">
<stop offset="0.04" stop-color="#FFA98C"/>
<stop offset="0.32" stop-color="#FFB892"/>
<stop offset="0.86" stop-color="#FEE1A3"/>
<stop offset="1" stop-color="#FEECA8"/>
</linearGradient>
<linearGradient id="paint22_linear" x1="260944" y1="2049.88" x2="261069" y2="1641.58" gradientUnits="userSpaceOnUse">
<stop offset="0.04" stop-color="#FFA98C"/>
<stop offset="0.32" stop-color="#FFB892"/>
<stop offset="0.86" stop-color="#FEE1A3"/>
<stop offset="1" stop-color="#FEECA8"/>
</linearGradient>
<linearGradient id="paint23_linear" x1="261248" y1="1805.33" x2="261272" y2="1569" gradientUnits="userSpaceOnUse">
<stop offset="0.04" stop-color="#FFA98C"/>
<stop offset="0.32" stop-color="#FFB892"/>
<stop offset="0.86" stop-color="#FEE1A3"/>
<stop offset="1" stop-color="#FEECA8"/>
</linearGradient>
<linearGradient id="paint24_linear" x1="260776" y1="1894.62" x2="260900" y2="1486.28" gradientUnits="userSpaceOnUse">
<stop offset="0.04" stop-color="#FFA98C"/>
<stop offset="0.32" stop-color="#FFB892"/>
<stop offset="0.86" stop-color="#FEE1A3"/>
<stop offset="1" stop-color="#FEECA8"/>
</linearGradient>
<linearGradient id="paint25_linear" x1="260676" y1="1630.25" x2="260700" y2="1393.94" gradientUnits="userSpaceOnUse">
<stop offset="0.04" stop-color="#FFA98C"/>
<stop offset="0.32" stop-color="#FFB892"/>
<stop offset="0.86" stop-color="#FEE1A3"/>
<stop offset="1" stop-color="#FEECA8"/>
</linearGradient>
<linearGradient id="paint26_linear" x1="260608" y1="1739.35" x2="260732" y2="1331.01" gradientUnits="userSpaceOnUse">
<stop offset="0.04" stop-color="#FFA98C"/>
<stop offset="0.32" stop-color="#FFB892"/>
<stop offset="0.86" stop-color="#FEE1A3"/>
<stop offset="1" stop-color="#FEECA8"/>
</linearGradient>
<linearGradient id="paint27_linear" x1="261754" y1="2044.24" x2="261778" y2="1807.92" gradientUnits="userSpaceOnUse">
<stop offset="0.04" stop-color="#FFA98C"/>
<stop offset="0.32" stop-color="#FFB892"/>
<stop offset="0.86" stop-color="#FEE1A3"/>
<stop offset="1" stop-color="#FEECA8"/>
</linearGradient>
<linearGradient id="paint28_linear" x1="261281" y1="2106.5" x2="261405" y2="1698.2" gradientUnits="userSpaceOnUse">
<stop offset="0.04" stop-color="#FFA98C"/>
<stop offset="0.32" stop-color="#FFB892"/>
<stop offset="0.86" stop-color="#FEE1A3"/>
<stop offset="1" stop-color="#FEECA8"/>
</linearGradient>
<linearGradient id="paint29_linear" x1="261585" y1="1869.17" x2="261609" y2="1632.81" gradientUnits="userSpaceOnUse">
<stop offset="0.04" stop-color="#FFA98C"/>
<stop offset="0.32" stop-color="#FFB892"/>
<stop offset="0.86" stop-color="#FEE1A3"/>
<stop offset="1" stop-color="#FEECA8"/>
</linearGradient>
<linearGradient id="paint30_linear" x1="261112" y1="1948.97" x2="261236" y2="1541.11" gradientUnits="userSpaceOnUse">
<stop offset="0.04" stop-color="#FFA98C"/>
<stop offset="0.32" stop-color="#FFB892"/>
<stop offset="0.86" stop-color="#FEE1A3"/>
<stop offset="1" stop-color="#FEECA8"/>
</linearGradient>
<linearGradient id="paint31_linear" x1="261417" y1="1692.39" x2="261440" y2="1456.62" gradientUnits="userSpaceOnUse">
<stop offset="0.04" stop-color="#FFA98C"/>
<stop offset="0.32" stop-color="#FFB892"/>
<stop offset="0.86" stop-color="#FEE1A3"/>
<stop offset="1" stop-color="#FEECA8"/>
</linearGradient>
<linearGradient id="paint32_linear" x1="260944" y1="1796.01" x2="261069" y2="1387.71" gradientUnits="userSpaceOnUse">
<stop offset="0.04" stop-color="#FFA98C"/>
<stop offset="0.32" stop-color="#FFB892"/>
<stop offset="0.86" stop-color="#FEE1A3"/>
<stop offset="1" stop-color="#FEECA8"/>
</linearGradient>
<linearGradient id="paint33_linear" x1="261248" y1="1517.49" x2="261272" y2="1281.72" gradientUnits="userSpaceOnUse">
<stop offset="0.04" stop-color="#FFA98C"/>
<stop offset="0.32" stop-color="#FFB892"/>
<stop offset="0.86" stop-color="#FEE1A3"/>
<stop offset="1" stop-color="#FEECA8"/>
</linearGradient>
<linearGradient id="paint34_linear" x1="260776" y1="1640.73" x2="260900" y2="1232.64" gradientUnits="userSpaceOnUse">
<stop offset="0.04" stop-color="#FFA98C"/>
<stop offset="0.32" stop-color="#FFB892"/>
<stop offset="0.86" stop-color="#FEE1A3"/>
<stop offset="1" stop-color="#FEECA8"/>
</linearGradient>
<linearGradient id="paint35_linear" x1="260676" y1="1342.6" x2="260700" y2="1106.84" gradientUnits="userSpaceOnUse">
<stop offset="0.04" stop-color="#FFA98C"/>
<stop offset="0.32" stop-color="#FFB892"/>
<stop offset="0.86" stop-color="#FEE1A3"/>
<stop offset="1" stop-color="#FEECA8"/>
</linearGradient>
<linearGradient id="paint36_linear" x1="260608" y1="1485.48" x2="260732" y2="1077.39" gradientUnits="userSpaceOnUse">
<stop offset="0.04" stop-color="#FFA98C"/>
<stop offset="0.32" stop-color="#FFB892"/>
<stop offset="0.86" stop-color="#FEE1A3"/>
<stop offset="1" stop-color="#FEECA8"/>
</linearGradient>
<linearGradient id="paint37_linear" x1="261754" y1="1761.92" x2="261778" y2="1525.86" gradientUnits="userSpaceOnUse">
<stop offset="0.04" stop-color="#FFA98C"/>
<stop offset="0.32" stop-color="#FFB892"/>
<stop offset="0.86" stop-color="#FEE1A3"/>
<stop offset="1" stop-color="#FEECA8"/>
</linearGradient>
<linearGradient id="paint38_linear" x1="261281" y1="1857.48" x2="261405" y2="1449.44" gradientUnits="userSpaceOnUse">
<stop offset="0.04" stop-color="#FFA98C"/>
<stop offset="0.32" stop-color="#FFB892"/>
<stop offset="0.86" stop-color="#FEE1A3"/>
<stop offset="1" stop-color="#FEECA8"/>
</linearGradient>
<linearGradient id="paint39_linear" x1="261585" y1="1588.66" x2="261609" y2="1352.31" gradientUnits="userSpaceOnUse">
<stop offset="0.04" stop-color="#FFA98C"/>
<stop offset="0.32" stop-color="#FFB892"/>
<stop offset="0.86" stop-color="#FEE1A3"/>
<stop offset="1" stop-color="#FEECA8"/>
</linearGradient>
<linearGradient id="paint40_linear" x1="261112" y1="1702.47" x2="261237" y2="1294.17" gradientUnits="userSpaceOnUse">
<stop offset="0.04" stop-color="#FFA98C"/>
<stop offset="0.32" stop-color="#FFB892"/>
<stop offset="0.86" stop-color="#FEE1A3"/>
<stop offset="1" stop-color="#FEECA8"/>
</linearGradient>
<linearGradient id="paint41_linear" x1="261417" y1="1413.59" x2="261440" y2="1177.27" gradientUnits="userSpaceOnUse">
<stop offset="0.04" stop-color="#FFA98C"/>
<stop offset="0.32" stop-color="#FFB892"/>
<stop offset="0.86" stop-color="#FEE1A3"/>
<stop offset="1" stop-color="#FEECA8"/>
</linearGradient>
<linearGradient id="paint42_linear" x1="260944" y1="1547.2" x2="261069" y2="1138.9" gradientUnits="userSpaceOnUse">
<stop offset="0.04" stop-color="#FFA98C"/>
<stop offset="0.32" stop-color="#FFB892"/>
<stop offset="0.86" stop-color="#FEE1A3"/>
<stop offset="1" stop-color="#FEECA8"/>
</linearGradient>
<linearGradient id="paint43_linear" x1="260676" y1="1063.44" x2="260700" y2="827.417" gradientUnits="userSpaceOnUse">
<stop offset="0.04" stop-color="#FFA98C"/>
<stop offset="0.32" stop-color="#FFB892"/>
<stop offset="0.86" stop-color="#FEE1A3"/>
<stop offset="1" stop-color="#FEECA8"/>
</linearGradient>
<linearGradient id="paint44_linear" x1="260608" y1="1236.71" x2="260732" y2="828.368" gradientUnits="userSpaceOnUse">
<stop offset="0.04" stop-color="#FFA98C"/>
<stop offset="0.32" stop-color="#FFB892"/>
<stop offset="0.86" stop-color="#FEE1A3"/>
<stop offset="1" stop-color="#FEECA8"/>
</linearGradient>
<linearGradient id="paint45_linear" x1="138.407" y1="127.529" x2="134.956" y2="80.9904" gradientUnits="userSpaceOnUse">
<stop offset="0.04" stop-color="#138BBD"/>
<stop offset="0.23" stop-color="#169AC7"/>
<stop offset="0.59" stop-color="#1FC3DF"/>
<stop offset="1" stop-color="#2AF6FF"/>
</linearGradient>
<linearGradient id="paint46_linear" x1="450306" y1="2668.48" x2="450676" y2="1450.53" gradientUnits="userSpaceOnUse">
<stop offset="0.04" stop-color="#138BBD"/>
<stop offset="0.23" stop-color="#169AC7"/>
<stop offset="0.59" stop-color="#1FC3DF"/>
<stop offset="1" stop-color="#2AF6FF"/>
</linearGradient>
<radialGradient id="paint47_radial" cx="0" cy="0" r="1" gradientUnits="userSpaceOnUse" gradientTransform="translate(245.421 226.752) rotate(180) scale(67.0147)">
<stop offset="0.03" stop-color="#FEDFCB"/>
<stop offset="1" stop-color="#F9B69E"/>
</radialGradient>
<radialGradient id="paint48_radial" cx="0" cy="0" r="1" gradientUnits="userSpaceOnUse" gradientTransform="translate(56202.5 6468.59) scale(205.321 1515.87)">
<stop offset="0.03" stop-color="#FEDFCB"/>
<stop offset="1" stop-color="#F9B69E"/>
</radialGradient>
<radialGradient id="paint49_radial" cx="0" cy="0" r="1" gradientUnits="userSpaceOnUse" gradientTransform="translate(98320 6777.93) scale(398.934 1764)">
<stop offset="0.03" stop-color="#FEDFCB"/>
<stop offset="1" stop-color="#F9B69E"/>
</radialGradient>
<radialGradient id="paint50_radial" cx="0" cy="0" r="1" gradientUnits="userSpaceOnUse" gradientTransform="translate(76886.9 7177.59) scale(303.839 1721.69)">
<stop offset="0.03" stop-color="#FEDFCB"/>
<stop offset="1" stop-color="#F9B69E"/>
</radialGradient>
<linearGradient id="paint51_linear" x1="220.016" y1="193.623" x2="166.641" y2="193.623" gradientUnits="userSpaceOnUse">
<stop offset="0.04" stop-color="#9F19AB"/>
<stop offset="0.24" stop-color="#AE25B1"/>
<stop offset="0.65" stop-color="#D744BF"/>
<stop offset="1" stop-color="#FF63CE"/>
</linearGradient>
<linearGradient id="paint52_linear" x1="147660" y1="3267.47" x2="147159" y2="3246.2" gradientUnits="userSpaceOnUse">
<stop offset="0.04" stop-color="#9F19AB"/>
<stop offset="0.24" stop-color="#AE25B1"/>
<stop offset="0.65" stop-color="#D744BF"/>
<stop offset="1" stop-color="#FF63CE"/>
</linearGradient>
<linearGradient id="paint53_linear" x1="58694.7" y1="1998.49" x2="58897" y2="1965.8" gradientUnits="userSpaceOnUse">
<stop offset="0.04" stop-color="#9F19AB"/>
<stop offset="0.24" stop-color="#AE25B1"/>
<stop offset="0.65" stop-color="#D744BF"/>
<stop offset="1" stop-color="#FF63CE"/>
</linearGradient>
<linearGradient id="paint54_linear" x1="184.487" y1="165.359" x2="223.927" y2="157.273" gradientUnits="userSpaceOnUse">
<stop offset="0.07" stop-color="#9F19AB"/>
<stop offset="0.27" stop-color="#AE25B1"/>
<stop offset="0.66" stop-color="#D744BF"/>
<stop offset="1" stop-color="#FF63CE"/>
</linearGradient>
<linearGradient id="paint55_linear" x1="48397.4" y1="3657.72" x2="48664.4" y2="3657.72" gradientUnits="userSpaceOnUse">
<stop offset="0.04" stop-color="#9F19AB"/>
<stop offset="0.24" stop-color="#AE25B1"/>
<stop offset="0.65" stop-color="#D744BF"/>
<stop offset="1" stop-color="#FF63CE"/>
</linearGradient>
<linearGradient id="paint56_linear" x1="210.353" y1="134.365" x2="202.662" y2="128.054" gradientUnits="userSpaceOnUse">
<stop offset="0.04" stop-color="#9D9EB3"/>
<stop offset="0.58" stop-color="#D4D1D8"/>
<stop offset="1" stop-color="#EEEBF2"/>
</linearGradient>
<linearGradient id="paint57_linear" x1="91371.7" y1="580.226" x2="91492.6" y2="580.226" gradientUnits="userSpaceOnUse">
<stop offset="0.04" stop-color="#9F19AB"/>
<stop offset="0.24" stop-color="#AE25B1"/>
<stop offset="0.65" stop-color="#D744BF"/>
<stop offset="1" stop-color="#FF63CE"/>
</linearGradient>
<radialGradient id="paint58_radial" cx="0" cy="0" r="1" gradientUnits="userSpaceOnUse" gradientTransform="translate(-76207.2 540.862) rotate(180) scale(47.703 24.1371)">
<stop stop-color="white"/>
<stop offset="1"/>
</radialGradient>
<linearGradient id="paint59_linear" x1="155.926" y1="136.304" x2="139.558" y2="136.304" gradientUnits="userSpaceOnUse">
<stop offset="0.01" stop-color="#F9B69E"/>
<stop offset="0.81" stop-color="#FDD7C2"/>
<stop offset="1" stop-color="#FEDFCB"/>
</linearGradient>
<linearGradient id="paint60_linear" x1="158.49" y1="147.249" x2="153.56" y2="141.398" gradientUnits="userSpaceOnUse">
<stop stop-color="#D4D1D8"/>
<stop offset="1" stop-color="white"/>
</linearGradient>
<radialGradient id="paint61_radial" cx="0" cy="0" r="1" gradientUnits="userSpaceOnUse" gradientTransform="translate(-187587 1235.7) rotate(180) scale(87.6652 131.376)">
<stop offset="0.03" stop-color="#FEDFCB"/>
<stop offset="1" stop-color="#F9B69E"/>
</radialGradient>
<linearGradient id="paint62_linear" x1="-490767" y1="1695.09" x2="-490810" y2="1299.53" gradientUnits="userSpaceOnUse">
<stop offset="0.04" stop-color="#9F19AB"/>
<stop offset="0.24" stop-color="#AE25B1"/>
<stop offset="0.65" stop-color="#D744BF"/>
<stop offset="1" stop-color="#FF63CE"/>
</linearGradient>
<linearGradient id="paint63_linear" x1="212.884" y1="154.71" x2="199.606" y2="98.5408" gradientUnits="userSpaceOnUse">
<stop offset="0.04" stop-color="#602213"/>
<stop offset="0.57" stop-color="#6D310E"/>
<stop offset="1" stop-color="#7A4108"/>
</linearGradient>
</defs>
</svg>
