<svg width="257" height="288" viewBox="0 0 257 288" fill="none" xmlns="http://www.w3.org/2000/svg">
<path d="M236.783 0.306641L71.5405 95.6977V161.561L184.415 96.4228L187.637 84.8614L243.833 4.85866L236.783 0.306641Z" fill="url(#paint0_linear)"/>
<path d="M243.671 4.17383L78.4287 99.5649V165.428L191.303 100.29L194.525 88.7286L243.671 60.3691V4.17383Z" fill="url(#paint1_linear)"/>
<path d="M224.255 62.7057L94.623 137.633V105.124L224.255 30.2373V62.7057Z" fill="white"/>
<path d="M222.039 31.5264V61.7792L94.623 135.377V137.633L224.255 62.7057V30.2373L222.039 31.5264Z" fill="#8B8C9E"/>
<path d="M82.9413 65.2837L72.0648 59.6441C70.4229 58.7692 68.5657 58.3803 66.7107 58.523C64.8558 58.6657 63.0799 59.334 61.5911 60.4497L14.3387 87.7216C10.1912 90.4111 6.73766 94.0423 4.25954 98.3195C1.78142 102.597 0.348806 107.399 0.0784203 112.335V208.572C-0.176199 210.529 0.192812 212.517 1.13298 214.253C2.07315 215.988 3.53661 217.384 5.31526 218.24L16.3932 224.121V218.562L17.1183 218.199L64.3707 190.928C68.5138 188.233 71.9639 184.601 74.4414 180.325C76.919 176.049 78.3542 171.249 78.631 166.314V70.0774C78.631 69.5538 78.631 69.0704 78.631 68.587L82.9413 65.2837ZM47.6934 159.748C47.4604 164.211 46.1701 168.554 43.9289 172.421C41.6876 176.287 38.5596 179.565 34.8027 181.985L32.0634 183.556C24.9333 187.584 19.1727 184.402 19.1727 176.224V163.333L28.3171 109.636C29.4594 108.539 30.7153 107.566 32.0634 106.735L34.8027 105.043C41.9328 101.015 47.6934 104.238 47.6934 112.415V159.748Z" fill="url(#paint2_linear)"/>
<path d="M72.7097 66.2504L25.4171 93.5222C21.274 96.2165 17.8239 99.8489 15.3463 104.125C12.8688 108.401 11.4335 113.201 11.1567 118.135V214.372C11.1567 223.436 17.5618 227.062 25.4171 222.429L72.7097 195.157C76.8484 192.458 80.2951 188.825 82.772 184.549C85.249 180.274 86.687 175.477 86.97 170.544V74.3876C86.97 65.3239 80.565 61.6984 72.7097 66.2504ZM55.8713 164.058C55.6383 168.521 54.348 172.865 52.1068 176.731C49.8656 180.597 46.7375 183.875 42.9806 186.295L40.2413 187.866C33.1112 191.894 27.3507 188.712 27.3507 180.534V133.242C27.5966 128.776 28.8921 124.432 31.1318 120.562C33.3716 116.691 36.4926 113.403 40.2413 110.965L42.9806 109.394C50.1108 105.366 55.8713 108.588 55.8713 116.766V164.058Z" fill="url(#paint3_linear)"/>
<g style="mix-blend-mode:color-dodge">
<path style="mix-blend-mode:color-dodge" d="M41.772 187.866L44.471 186.295C48.2242 183.867 51.3514 180.588 53.5983 176.724C55.8453 172.861 57.1485 168.521 57.402 164.058V116.846C57.402 111.489 54.9044 108.266 51.1983 107.782C52.5932 108.665 53.7111 109.923 54.4236 111.413C55.1361 112.902 55.4144 114.562 55.2267 116.202V163.414C54.9874 167.87 53.6942 172.205 51.4532 176.064C49.2123 179.922 46.0876 183.194 42.336 185.61L39.5967 187.181C37.608 188.45 35.2627 189.044 32.9097 188.873C34.3515 189.468 35.9208 189.688 37.4706 189.512C39.0205 189.336 40.5004 188.769 41.772 187.866Z" fill="url(#paint4_radial)"/>
<path style="mix-blend-mode:color-dodge" d="M12.687 214.372V118.135C12.9574 113.2 14.39 108.397 16.8681 104.12C19.3463 99.843 22.7998 96.2117 26.9473 93.5222L74.2803 66.2504C76.5145 64.8075 79.1624 64.142 81.8133 64.357C80.2231 63.7553 78.5093 63.5545 76.8231 63.7723C75.1369 63.9901 73.5303 64.6198 72.1453 65.6058L24.772 92.9582C20.6289 95.6525 17.1788 99.2849 14.7013 103.561C12.2238 107.837 10.7885 112.637 10.5117 117.571V213.808C10.5117 219.69 13.2107 223.235 17.239 223.799C15.6554 222.83 14.3841 221.426 13.5769 219.755C12.7697 218.083 12.4608 216.215 12.687 214.372Z" fill="url(#paint5_radial)"/>
</g>
<path d="M119.56 106.333C119.412 109.121 118.605 111.835 117.205 114.252C115.804 116.668 113.85 118.717 111.503 120.23C107.072 122.808 103.446 120.754 103.446 115.638C103.606 112.852 104.419 110.143 105.818 107.729C107.218 105.315 109.165 103.263 111.503 101.74C115.974 99.1621 119.56 101.217 119.56 106.333Z" fill="url(#paint6_linear)"/>
<path d="M140.386 94.5296C140.235 97.3177 139.427 100.031 138.027 102.446C136.626 104.862 134.674 106.911 132.329 108.427C127.898 111.005 124.272 108.951 124.272 103.835C124.432 101.049 125.245 98.34 126.644 95.9259C128.044 93.5119 129.991 91.4605 132.329 89.9373C136.76 87.3592 140.386 89.4136 140.386 94.5296Z" fill="url(#paint7_linear)"/>
<path d="M161.172 82.7266C161.012 85.5179 160.2 88.2328 158.801 90.6534C157.402 93.0739 155.455 95.1328 153.116 96.6647C148.644 99.2025 145.059 97.1481 145.059 92.0321C145.216 89.2455 146.027 86.5351 147.427 84.1205C148.827 81.7059 150.776 79.6551 153.116 78.1343C157.547 75.5562 161.172 77.6106 161.172 82.7266Z" fill="url(#paint8_linear)"/>
<path d="M181.959 70.9238C181.799 73.7151 180.987 76.43 179.588 78.8506C178.188 81.2711 176.241 83.33 173.902 84.8619C169.431 87.3997 165.846 85.3453 165.846 80.2696C165.996 77.476 166.805 74.7576 168.205 72.3355C169.605 69.9135 171.557 67.8563 173.902 66.3315C178.334 63.7937 181.959 65.8481 181.959 70.9238Z" fill="url(#paint9_linear)"/>
<path d="M202.745 59.1609C202.588 61.9474 201.777 64.6578 200.377 67.0724C198.977 69.487 197.028 71.5378 194.688 73.0586C190.257 75.6368 186.631 73.542 186.631 68.4663C186.791 65.675 187.604 62.9602 189.003 60.5396C190.402 58.119 192.349 56.0602 194.688 54.5283C199.159 51.9904 202.745 54.0449 202.745 59.1609Z" fill="url(#paint10_linear)"/>
<path d="M249.19 160.393C248.949 164.824 249.432 180.534 245.524 190.726C241.617 200.918 246.048 207.242 246.934 212.68C248.017 222.067 247.773 231.56 246.209 240.879C244.88 252.279 245.001 257.717 246.209 260.134C247.418 262.551 246.652 266.016 239.321 268.191C231.989 270.366 223.207 270.245 224.215 263.518C224.497 261.302 230.781 266.418 232.875 263.075C234.97 259.731 237.548 254.092 236.34 242.007C235.131 229.922 233.681 222.51 232.996 215.863C232.312 209.216 231.022 200.998 229.693 192.136C228.364 183.274 226.914 156.888 226.914 156.888L249.19 160.393Z" fill="url(#paint11_radial)"/>
<path d="M241.174 258.322C241.174 254.696 240.247 245.431 240.247 239.268C240.247 233.104 235.897 211.835 237.871 207.444C240.771 201.16 236.783 192.579 236.783 189.276C236.783 185.973 236.783 163.495 236.783 158.58L248.868 160.393C248.626 164.824 249.11 180.535 245.202 190.726C241.295 200.918 245.726 207.242 246.612 212.681C247.695 222.068 247.45 231.56 245.887 240.879C244.558 252.279 244.679 257.717 245.887 260.134C247.096 262.551 246.33 266.016 238.999 268.191C237.178 268.695 235.319 269.046 233.439 269.239L235.091 268.352C235.091 268.352 241.174 262.149 241.174 258.322Z" fill="url(#paint12_radial)"/>
<path d="M247.055 259.973C248.434 261.48 249.259 263.413 249.392 265.452C249.069 267.909 247.096 270.971 247.055 273.267C247.015 275.563 247.055 277.295 247.055 277.295C246.492 277.329 245.927 277.329 245.363 277.295L244.679 276.771V268.715C242.374 268.441 240.042 268.876 237.992 269.963C234.443 271.998 230.266 272.644 226.269 271.776C223.449 270.568 221.475 262.189 221.798 260.9C222.12 259.611 228.847 263.196 229.854 263.679C230.337 263.893 230.835 264.068 231.345 264.203C231.345 264.203 227.84 263.236 226.994 264.485C226.795 264.96 226.712 265.475 226.75 265.988C226.789 266.501 226.948 266.998 227.215 267.438C227.482 267.878 227.849 268.249 228.287 268.52C228.725 268.791 229.22 268.954 229.733 268.997C232.513 269.48 235.937 265.613 238.837 264.565C241.738 263.518 246.29 261.866 247.055 259.973Z" fill="#10054D"/>
<path d="M234.97 175.539C233.399 179.809 231.305 188.269 229.411 194.231C227.518 200.193 225.383 206.598 226.35 210.908C228.759 217.851 230.116 225.115 230.378 232.46C230.378 242.289 229.29 263.156 230.7 266.257C232.11 269.359 233.48 272.26 232.714 274.314C231.949 276.368 225.181 277.819 219.743 281.404C214.305 284.989 207.014 277.376 209.753 275.764C212.492 274.153 212.976 276.086 215.111 274.757C216.962 273.664 218.528 272.149 219.683 270.336C220.838 268.523 221.549 266.463 221.757 264.324C221.516 259.369 215.997 226.659 214.426 219.448C212.89 212.828 211.92 206.09 211.525 199.306C210.82 190.229 210.82 181.112 211.525 172.035C212.331 163.978 239.442 163.454 234.97 175.539Z" fill="url(#paint13_radial)"/>
<path d="M219.059 281.606L224.255 275.039C223.684 273.218 223.505 271.296 223.731 269.4C225.038 266.434 225.658 263.212 225.544 259.973C224.14 247.169 222.056 234.448 219.3 221.865C218.213 217.515 220.751 213.325 220.388 209.78C220.025 206.235 216.601 196.326 217.488 189.397C218.052 185.369 219.824 174.21 221.194 166.073C220.285 166.142 219.383 166.277 218.495 166.476C226.551 164.703 237.911 167.08 234.93 175.298C233.359 179.568 231.264 188.027 229.371 193.989C227.478 199.951 225.343 206.356 226.31 210.667C228.719 217.61 230.076 224.874 230.338 232.218C230.338 242.047 229.25 262.914 230.66 266.016C232.07 269.118 233.44 272.018 232.674 274.073C231.909 276.127 225.141 277.577 219.703 281.162C219.02 281.675 218.237 282.04 217.405 282.235C216.573 282.429 215.709 282.448 214.869 282.29C216.303 282.562 217.786 282.319 219.059 281.606Z" fill="url(#paint14_radial)"/>
<path d="M241.658 139.324L213.218 140.493C213.218 140.493 211.445 160.876 210.801 168.691C210.156 176.506 210.076 200.918 210.076 200.918C214.677 203.248 219.846 204.226 224.981 203.738C231.869 202.408 247.62 198.742 247.62 198.742C247.62 198.742 248.184 191.209 248.587 184.24C248.989 177.271 250.48 161.682 248.184 154.914C245.888 148.147 241.658 139.324 241.658 139.324Z" fill="url(#paint15_linear)"/>
<path d="M241.658 139.324L213.218 140.493C213.218 140.493 211.445 160.876 210.801 168.691C210.156 176.506 210.076 200.918 210.076 200.918C214.677 203.248 219.846 204.226 224.981 203.738C231.869 202.408 247.62 198.742 247.62 198.742C247.62 198.742 248.184 191.209 248.587 184.24C248.989 177.271 250.48 161.682 248.184 154.914C245.888 148.147 241.658 139.324 241.658 139.324Z" fill="url(#paint16_linear)"/>
<path d="M231.788 268.513C232.645 269.297 233.309 270.269 233.729 271.352C234.148 272.435 234.311 273.6 234.205 274.757C233.521 278.06 231.627 278.302 231.627 280.679V286.882L230.177 287.446L228.606 286.882V277.376C225.942 278.179 223.435 279.433 221.194 281.082C219.71 282.274 217.939 283.054 216.058 283.344C214.177 283.634 212.252 283.423 210.479 282.733C207.9 281.404 203.026 274.677 204.315 273.347C205.604 272.018 214.869 274.757 214.869 274.757C214.869 274.757 211.365 275.12 210.841 276.892C210.317 278.665 213.379 280.92 215.756 279.873C218.872 277.514 222.157 275.386 225.585 273.508C226.898 273.129 228.123 272.491 229.188 271.634C230.253 270.776 231.137 269.715 231.788 268.513Z" fill="#10054D"/>
<g style="mix-blend-mode:multiply">
<path d="M210.801 168.53C211.405 161.601 212.936 144.118 213.178 140.976L219.18 142.064C219.18 142.064 219.703 164.059 219.905 174.049C219.905 181.904 219.059 197.333 218.656 203.536C215.686 202.992 212.801 202.057 210.076 200.757C210.076 200.757 210.116 176.184 210.801 168.53Z" fill="#D1D3D4"/>
</g>
<path d="M246.855 91.8706C249.07 96.8255 252.373 114.026 250.883 119.102C249.997 122.446 242.101 141.822 242.101 141.822L235.575 132.637L246.855 91.8706Z" fill="url(#paint17_linear)"/>
<path d="M223.892 96.6239C220.992 99.0409 211.807 105.929 210.115 111.005C209.044 114.796 209.329 118.842 210.921 122.446C212.722 127.363 213.396 132.621 212.895 137.834C212.13 145.89 210.277 168.489 209.954 171.148C209.632 173.807 212.452 174.854 215.111 175.176C223.6 176.061 232.18 175.35 240.409 173.082C248.465 169.98 250.439 168.731 250.439 166.878C250.425 160.46 249.052 154.117 246.411 148.267C243.171 142.043 241.446 135.142 241.375 128.125C241.738 123.815 248.707 105.527 248.385 98.6381C248.062 91.7496 245.041 85.6668 240.328 87.2379C234.574 89.8573 229.072 92.9992 223.892 96.6239Z" fill="url(#paint18_linear)"/>
<path d="M227.034 175.499C222.89 171.942 220.326 166.886 219.904 161.44C219.542 152.699 221.153 144.521 223.167 144.239C225.181 143.957 226.793 140.614 226.793 138.076C226.793 126.232 230.337 105.366 227.437 102.385C224.983 100.784 222.054 100.073 219.139 100.37C221.113 98.6786 222.885 97.309 223.892 96.3421C228.973 92.7622 234.366 89.6478 240.005 87.0367C244.88 85.4656 247.861 91.5484 248.062 98.4369C248.264 105.325 241.415 123.614 241.053 127.924C241.123 134.941 242.849 141.842 246.088 148.066C248.729 153.916 250.102 160.259 250.117 166.677C250.117 168.53 248.143 169.779 240.086 172.881C233.075 174.889 225.774 175.692 218.494 175.257C221.335 175.486 224.185 175.567 227.034 175.499Z" fill="url(#paint19_linear)"/>
<path d="M240.287 88.6482C238.669 90.0664 236.662 90.9647 234.526 91.2263C230.498 91.9111 228.524 91.2263 227.195 92.2737C225.973 93.3872 224.89 94.6452 223.972 96.02C225.528 94.8416 227.358 94.0791 229.29 93.8045C232.647 93.8726 235.989 93.3405 239.159 92.2334C241.012 90.9443 240.649 90.1387 240.649 89.8164C240.583 89.4122 240.461 89.0192 240.287 88.6482Z" fill="url(#paint20_linear)"/>
<g style="mix-blend-mode:multiply">
<path d="M239.723 87.7214C239.723 87.7214 243.148 90.7427 242.704 93.5222C242.261 96.3018 239.482 98.8396 234.648 98.4368C231.323 97.6501 227.861 97.6501 224.537 98.4368C222.321 99.4036 218.091 101.498 218.091 101.498C218.091 101.498 222.442 94.4085 226.148 93.8042C229.765 93.705 233.366 93.2734 236.904 92.5152C239.119 91.4275 240.489 91.065 240.932 89.6953C240.958 89.282 240.856 88.8707 240.64 88.5175C240.423 88.1642 240.103 87.8863 239.723 87.7214Z" fill="#D1D3D4"/>
</g>
<path d="M239.723 87.7214C239.723 87.7214 242.866 89.4536 242.422 92.2332C241.979 95.0127 239.24 97.5506 234.366 97.188C230.935 96.5464 227.401 96.7259 224.053 97.7117C221.956 98.8842 219.962 100.232 218.091 101.74C218.091 101.74 222.442 94.6502 226.148 94.0459C229.765 93.9467 233.366 93.5152 236.904 92.7569C239.119 91.6692 240.489 91.3067 240.932 89.937C241.013 89.4853 240.938 89.0194 240.718 88.6165C240.498 88.2136 240.147 87.8978 239.723 87.7214Z" fill="url(#paint21_linear)"/>
<path style="mix-blend-mode:color-dodge" d="M223.61 97.188C226.954 96.1842 230.489 95.9909 233.923 96.624C238.878 97.0269 241.657 94.4085 241.979 91.7095C242.113 90.9157 241.955 90.1004 241.536 89.4133C241.864 89.7987 242.105 90.2497 242.244 90.736C242.383 91.2224 242.417 91.7329 242.342 92.2332C241.939 94.9724 239.159 97.5506 234.285 97.188C230.855 96.5464 227.321 96.7258 223.973 97.7117C221.875 98.8842 219.881 100.232 218.011 101.74C218.011 101.74 218.414 101.055 219.098 100.088C220.508 98.9816 222.018 98.0105 223.61 97.188Z" fill="url(#paint22_radial)"/>
<path d="M169.308 111.247C168.437 110.502 167.442 109.916 166.368 109.515C163.347 108.548 157.385 105.486 157.385 103.795C157.807 101.715 158.526 99.7074 159.52 97.8326C159.52 97.8326 153.678 92.3943 153.477 91.8707C153.276 91.347 154.242 90.5816 155.854 91.8707C158.248 93.6656 160.78 95.2684 163.427 96.6644L165.602 96.9866C164.797 96.068 164.07 95.0845 163.427 94.046C163.105 93.2806 163.427 91.9915 164.192 92.1124C164.958 92.2332 167.778 96.1407 168.865 97.0672C170.206 98.6941 171.267 100.532 172.007 102.505C172.438 103.544 172.936 104.553 173.498 105.527C173.498 105.527 171.443 113.1 169.308 111.247Z" fill="url(#paint23_linear)"/>
<path d="M174.304 105.446L172.975 103.915L167.335 110.119L169.027 111.247L174.304 105.446Z" fill="url(#paint24_linear)"/>
<path d="M222.161 61.2955C218.858 63.9542 216.602 73.3805 218.697 79.9467C220.791 86.5129 223.611 86.956 224.739 87.5199C225.867 88.0839 229.291 93.7639 227.962 96.3017C226.632 98.8396 236.985 97.4297 239.563 95.3349C242.141 93.2402 242.222 92.3137 242.222 92.3137C240.816 90.2215 240.295 87.6585 240.772 85.1835C242.021 82.1623 247.257 71.1246 240.772 63.5513C238.549 60.8629 235.379 59.1301 231.916 58.7103C228.454 58.2906 224.962 59.2159 222.161 61.2955Z" fill="url(#paint25_radial)"/>
<path d="M219.622 101.901C220.509 101.429 221.49 101.16 222.494 101.112C223.497 101.064 224.499 101.239 225.427 101.624C226.355 102.009 227.186 102.595 227.861 103.339C228.536 104.084 229.038 104.968 229.331 105.929C229.982 108.576 229.619 111.37 228.315 113.763C227.01 116.156 224.858 117.974 222.281 118.86C214.456 123.201 206.896 128.003 199.642 133.242C198.303 134.508 196.53 135.214 194.687 135.214C192.844 135.214 191.071 134.508 189.732 133.242C185.381 129.455 167.979 111.045 167.979 111.045L173.901 104.681C173.901 104.681 185.986 117.491 188.967 119.304L194.405 122.728C194.405 122.728 215.594 103.915 219.622 101.901Z" fill="url(#paint26_linear)"/>
<g style="mix-blend-mode:multiply" opacity="0.5">
<path d="M222.482 116.766C214.646 121.087 207.085 125.89 199.843 131.147C198.493 132.407 196.715 133.108 194.868 133.108C193.021 133.108 191.243 132.407 189.893 131.147C186.147 127.844 172.652 113.664 169.067 109.877L167.979 111.045C167.979 111.045 185.381 129.455 189.732 133.242C191.071 134.508 192.844 135.214 194.687 135.214C196.53 135.214 198.303 134.508 199.642 133.242C206.896 128.003 214.456 123.201 222.281 118.86C224.43 118.073 226.287 116.648 227.605 114.776C228.922 112.905 229.637 110.675 229.653 108.387C229.24 110.266 228.369 112.014 227.119 113.476C225.868 114.937 224.275 116.067 222.482 116.766Z" fill="#D1D3D4"/>
</g>
<path d="M217.609 69.4328C219.189 70.8868 220.949 72.1323 222.845 73.1389C224.94 74.0251 226.874 77.6909 227.277 78.5772C227.859 79.8358 228.015 81.2503 227.72 82.6055C226.672 92.7166 219.663 92.5152 220.912 102.304C222.483 116.927 238.113 125.91 248.305 121.519C255.999 118.176 258.939 107.057 252.857 93.3209C249.714 86.1504 249.352 83.7334 247.257 71.3261C245.726 62.1818 237.307 54.2057 227.559 56.1393C214.386 58.7577 217.609 69.4328 217.609 69.4328Z" fill="url(#paint27_linear)"/>
<g style="mix-blend-mode:multiply">
<path d="M252.857 93.3614C250.879 88.9792 249.523 84.342 248.828 79.5845C247.082 84.8086 243.74 89.3528 239.274 92.5763C234.807 95.7997 229.442 97.5397 223.933 97.5509C223.047 97.5509 222.161 97.5509 221.315 97.5509C220.917 99.1847 220.821 100.878 221.033 102.546C222.604 117.169 238.234 126.152 248.426 121.761C255.999 118.297 258.94 107.179 252.857 93.3614Z" fill="#D1D3D4"/>
</g>
<defs>
<linearGradient id="paint0_linear" x1="-18.8956" y1="140.694" x2="314.892" y2="25.4032" gradientUnits="userSpaceOnUse">
<stop offset="0.04" stop-color="#9D9EB3"/>
<stop offset="0.58" stop-color="#D4D1D8"/>
<stop offset="1" stop-color="#EEEBF2"/>
</linearGradient>
<linearGradient id="paint1_linear" x1="5733.02" y1="4558" x2="22939.4" y2="-8308.94" gradientUnits="userSpaceOnUse">
<stop offset="0.04" stop-color="#9D9EB3"/>
<stop offset="0.58" stop-color="#D4D1D8"/>
<stop offset="1" stop-color="#EEEBF2"/>
</linearGradient>
<linearGradient id="paint2_linear" x1="154.807" y1="227.545" x2="-6.56834" y2="102.747" gradientUnits="userSpaceOnUse">
<stop offset="0.04" stop-color="#6B24D6"/>
<stop offset="0.29" stop-color="#7733DC"/>
<stop offset="0.79" stop-color="#975CED"/>
<stop offset="1" stop-color="#A56EF4"/>
</linearGradient>
<linearGradient id="paint3_linear" x1="735.932" y1="9620.97" x2="6641.41" y2="1452.05" gradientUnits="userSpaceOnUse">
<stop offset="0.04" stop-color="#6B24D6"/>
<stop offset="0.29" stop-color="#7733DC"/>
<stop offset="0.79" stop-color="#975CED"/>
<stop offset="1" stop-color="#A56EF4"/>
</linearGradient>
<radialGradient id="paint4_radial" cx="0" cy="0" r="1" gradientUnits="userSpaceOnUse" gradientTransform="translate(70.9372 176.667) scale(30.2125)">
<stop stop-color="white"/>
<stop offset="1"/>
</radialGradient>
<radialGradient id="paint5_radial" cx="0" cy="0" r="1" gradientUnits="userSpaceOnUse" gradientTransform="translate(1048.66 4223.39) scale(1096.62 2462.52)">
<stop stop-color="white"/>
<stop offset="1"/>
</radialGradient>
<linearGradient id="paint6_linear" x1="67.8809" y1="186.458" x2="229.081" y2="63.8487" gradientUnits="userSpaceOnUse">
<stop offset="0.1" stop-color="#45108A"/>
<stop offset="1" stop-color="#7C1DC9"/>
</linearGradient>
<linearGradient id="paint7_linear" x1="-5729.06" y1="-20048.5" x2="-5100.98" y2="-20390.3" gradientUnits="userSpaceOnUse">
<stop offset="0.1" stop-color="#45108A"/>
<stop offset="1" stop-color="#7C1DC9"/>
</linearGradient>
<linearGradient id="paint8_linear" x1="-5676.37" y1="-20015.5" x2="-5048.09" y2="-20357.2" gradientUnits="userSpaceOnUse">
<stop offset="0.1" stop-color="#45108A"/>
<stop offset="1" stop-color="#7C1DC9"/>
</linearGradient>
<linearGradient id="paint9_linear" x1="-5623.68" y1="-19945.5" x2="-4995.89" y2="-20287.3" gradientUnits="userSpaceOnUse">
<stop offset="0.1" stop-color="#45108A"/>
<stop offset="1" stop-color="#7C1DC9"/>
</linearGradient>
<linearGradient id="paint10_linear" x1="-5570.99" y1="-19914.9" x2="-4943.02" y2="-20256.5" gradientUnits="userSpaceOnUse">
<stop offset="0.1" stop-color="#45108A"/>
<stop offset="1" stop-color="#7C1DC9"/>
</linearGradient>
<radialGradient id="paint11_radial" cx="0" cy="0" r="1" gradientUnits="userSpaceOnUse" gradientTransform="translate(283.23 212.197) rotate(180) scale(82.1378)">
<stop offset="0.03" stop-color="#FEDFCB"/>
<stop offset="1" stop-color="#F9B69E"/>
</radialGradient>
<radialGradient id="paint12_radial" cx="0" cy="0" r="1" gradientUnits="userSpaceOnUse" gradientTransform="translate(72101.1 6064.42) scale(259.045 1857.96)">
<stop offset="0.03" stop-color="#FEDFCB"/>
<stop offset="1" stop-color="#F9B69E"/>
</radialGradient>
<radialGradient id="paint13_radial" cx="0" cy="0" r="1" gradientUnits="userSpaceOnUse" gradientTransform="translate(122735 6352.91) scale(489.643 2161.75)">
<stop offset="0.03" stop-color="#FEDFCB"/>
<stop offset="1" stop-color="#F9B69E"/>
</radialGradient>
<radialGradient id="paint14_radial" cx="0" cy="0" r="1" gradientUnits="userSpaceOnUse" gradientTransform="translate(95978 6855.11) scale(372.943 2114.03)">
<stop offset="0.03" stop-color="#FEDFCB"/>
<stop offset="1" stop-color="#F9B69E"/>
</radialGradient>
<linearGradient id="paint15_linear" x1="252.051" y1="171.591" x2="186.631" y2="171.591" gradientUnits="userSpaceOnUse">
<stop offset="0.04" stop-color="#9F19AB"/>
<stop offset="0.24" stop-color="#AE25B1"/>
<stop offset="0.65" stop-color="#D744BF"/>
<stop offset="1" stop-color="#FF63CE"/>
</linearGradient>
<linearGradient id="paint16_linear" x1="184109" y1="2902.1" x2="183494" y2="2876.1" gradientUnits="userSpaceOnUse">
<stop offset="0.04" stop-color="#9F19AB"/>
<stop offset="0.24" stop-color="#AE25B1"/>
<stop offset="0.65" stop-color="#D744BF"/>
<stop offset="1" stop-color="#FF63CE"/>
</linearGradient>
<linearGradient id="paint17_linear" x1="73345.1" y1="1571.94" x2="73593.9" y2="1531.68" gradientUnits="userSpaceOnUse">
<stop offset="0.04" stop-color="#9F19AB"/>
<stop offset="0.24" stop-color="#AE25B1"/>
<stop offset="0.65" stop-color="#D744BF"/>
<stop offset="1" stop-color="#FF63CE"/>
</linearGradient>
<linearGradient id="paint18_linear" x1="208.544" y1="136.907" x2="256.884" y2="126.998" gradientUnits="userSpaceOnUse">
<stop offset="0.07" stop-color="#9F19AB"/>
<stop offset="0.27" stop-color="#AE25B1"/>
<stop offset="0.66" stop-color="#D744BF"/>
<stop offset="1" stop-color="#FF63CE"/>
</linearGradient>
<linearGradient id="paint19_linear" x1="58185.7" y1="2973.35" x2="58512.9" y2="2973.35" gradientUnits="userSpaceOnUse">
<stop offset="0.04" stop-color="#9F19AB"/>
<stop offset="0.24" stop-color="#AE25B1"/>
<stop offset="0.65" stop-color="#D744BF"/>
<stop offset="1" stop-color="#FF63CE"/>
</linearGradient>
<linearGradient id="paint20_linear" x1="-59143" y1="269.185" x2="-59157.8" y2="241.812" gradientUnits="userSpaceOnUse">
<stop offset="0.04" stop-color="#9D9EB3"/>
<stop offset="0.58" stop-color="#D4D1D8"/>
<stop offset="1" stop-color="#EEEBF2"/>
</linearGradient>
<linearGradient id="paint21_linear" x1="113901" y1="416.037" x2="114049" y2="416.037" gradientUnits="userSpaceOnUse">
<stop offset="0.04" stop-color="#9F19AB"/>
<stop offset="0.24" stop-color="#AE25B1"/>
<stop offset="0.65" stop-color="#D744BF"/>
<stop offset="1" stop-color="#FF63CE"/>
</linearGradient>
<radialGradient id="paint22_radial" cx="0" cy="0" r="1" gradientUnits="userSpaceOnUse" gradientTransform="translate(-94924.3 396.841) rotate(180) scale(58.4879 29.5841)">
<stop stop-color="white"/>
<stop offset="1"/>
</radialGradient>
<linearGradient id="paint23_linear" x1="173.498" y1="101.297" x2="153.477" y2="101.297" gradientUnits="userSpaceOnUse">
<stop offset="0.01" stop-color="#F9B69E"/>
<stop offset="0.81" stop-color="#FDD7C2"/>
<stop offset="1" stop-color="#FEDFCB"/>
</linearGradient>
<linearGradient id="paint24_linear" x1="176.641" y1="114.711" x2="170.639" y2="107.541" gradientUnits="userSpaceOnUse">
<stop stop-color="#D4D1D8"/>
<stop offset="1" stop-color="white"/>
</linearGradient>
<radialGradient id="paint25_radial" cx="0" cy="0" r="1" gradientUnits="userSpaceOnUse" gradientTransform="translate(-231394 813.104) rotate(180) scale(107.393 160.896)">
<stop offset="0.03" stop-color="#FEDFCB"/>
<stop offset="1" stop-color="#F9B69E"/>
</radialGradient>
<linearGradient id="paint26_linear" x1="-605477" y1="1457.97" x2="-605529" y2="973.238" gradientUnits="userSpaceOnUse">
<stop offset="0.04" stop-color="#9F19AB"/>
<stop offset="0.24" stop-color="#AE25B1"/>
<stop offset="0.65" stop-color="#D744BF"/>
<stop offset="1" stop-color="#FF63CE"/>
</linearGradient>
<linearGradient id="paint27_linear" x1="243.309" y1="123.896" x2="227.035" y2="55.0114" gradientUnits="userSpaceOnUse">
<stop offset="0.04" stop-color="#602213"/>
<stop offset="0.57" stop-color="#6D310E"/>
<stop offset="1" stop-color="#7A4108"/>
</linearGradient>
</defs>
</svg>
