<svg width="277" height="290" viewBox="0 0 277 290" fill="none" xmlns="http://www.w3.org/2000/svg">
<path d="M95.6459 203.443V290L0.345703 235.185V148.664L95.6459 203.443Z" fill="url(#paint0_linear)"/>
<path d="M95.6094 203.443V290L189.567 235.221V148.737L95.6094 203.443Z" fill="url(#paint1_linear)"/>
<path d="M189.568 148.737L95.6097 203.443L0.345703 148.664L94.4125 93.8855L189.568 148.737Z" fill="url(#paint2_linear)"/>
<path d="M101.161 209.392V278.573L183.22 230.687V161.579L101.161 209.392Z" fill="url(#paint3_linear)"/>
<path d="M180.499 229.127V166.331L103.882 210.952V273.784L180.499 229.127Z" fill="url(#paint4_linear)"/>
<path style="mix-blend-mode:color-dodge" d="M180.499 166.331V167.854L105.043 211.786V273.095L103.882 273.784V210.952L180.499 166.331Z" fill="url(#paint5_radial)"/>
<path d="M175.165 193.503V177.142L109.358 214.906V231.34L175.165 193.503Z" fill="url(#paint6_linear)"/>
<path d="M119.337 220.457L114.875 223.032V217.917L119.337 215.305V220.457Z" fill="#FFE4A7"/>
<path d="M127.716 215.595L123.254 218.171V213.056L127.716 210.48V215.595Z" fill="#2AF6FF"/>
<path d="M136.098 210.771L131.636 213.346V208.231L136.098 205.656V210.771Z" fill="#2AF6FF"/>
<path d="M144.515 205.909L140.053 208.485V203.37L144.515 200.794V205.909Z" fill="#4B61B8"/>
<path d="M152.894 201.084L148.432 203.66V198.545L152.894 195.933V201.084Z" fill="#4B61B8"/>
<path d="M161.272 196.223L156.81 198.799V193.684L161.272 191.108V196.223Z" fill="#4B61B8"/>
<path d="M169.655 191.398L165.192 193.974V188.823L169.655 186.247V191.398Z" fill="#4B61B8"/>
<path d="M95.4636 169.668V200.649L5.24219 148.736V117.792L95.4636 169.668Z" fill="url(#paint7_linear)"/>
<path d="M95.4287 169.668V200.649L184.417 148.773V117.865L95.4287 169.668Z" fill="url(#paint8_linear)"/>
<path d="M95.5003 109.557V196.078L0.236328 141.3V54.7786L95.5003 109.557Z" fill="url(#paint9_linear)"/>
<path d="M95.4639 109.557V196.078L189.422 141.3V54.8511L95.4639 109.557Z" fill="url(#paint10_linear)"/>
<path d="M189.422 54.8511L95.464 109.557L0.236328 54.7786L94.2668 0L189.422 54.8511Z" fill="url(#paint11_linear)"/>
<path d="M105.621 114.563V178.629L178.575 137.418V73.3887L105.621 114.563Z" fill="url(#paint12_linear)"/>
<path d="M104.278 180.987V113.802L179.916 71.0308V138.18L104.278 180.987ZM106.999 115.362V176.307L177.195 136.62V75.7105L106.999 115.362Z" fill="#25054D"/>
<path d="M208.248 111.407V150.55L126.806 104.261L161.559 84.6709L208.248 111.407Z" fill="url(#paint13_linear)"/>
<path d="M212.239 109.085L208.212 111.407L161.56 84.6709L165.695 82.2766L212.239 109.085Z" fill="url(#paint14_linear)"/>
<path style="mix-blend-mode:multiply" d="M142.296 93.6312L148.971 97.6217L158.548 91.636V145.834L118.534 177.395L108.703 171.337V113.003L142.296 93.6312Z" fill="url(#paint15_linear)"/>
<path d="M148.21 96.9688V101.576L179.372 83.4374C179.626 83.2996 179.91 83.2296 180.198 83.2344C180.486 83.2391 180.768 83.3184 181.017 83.4645C181.265 83.6106 181.471 83.8186 181.616 84.0681C181.76 84.3177 181.837 84.6003 181.839 84.8885V142.533L122.2 177.178C121.521 177.587 120.743 177.804 119.95 177.804C119.158 177.804 118.38 177.587 117.701 177.178L116.432 176.38C115.849 176.022 115.37 175.521 115.039 174.923C114.708 174.325 114.538 173.652 114.545 172.97V116.087C114.537 115.293 114.742 114.511 115.137 113.822C115.533 113.133 116.105 112.563 116.794 112.169L145.635 95.5177C145.887 95.3376 146.186 95.2332 146.496 95.2167C146.805 95.2002 147.113 95.2723 147.384 95.4246C147.654 95.5768 147.875 95.803 148.022 96.0764C148.168 96.3499 148.234 96.6595 148.21 96.9688Z" fill="url(#paint16_linear)"/>
<g style="mix-blend-mode:color-dodge">
<path style="mix-blend-mode:color-dodge" d="M180.17 84.1267L148.899 102.265V101.213L179.372 83.4374C179.734 83.2379 180.156 83.1793 180.558 83.2731C180.96 83.367 181.313 83.6064 181.549 83.9453C181.32 83.8747 181.078 83.8543 180.84 83.8856C180.602 83.9169 180.374 83.9992 180.17 84.1267Z" fill="url(#paint17_radial)"/>
<path style="mix-blend-mode:color-dodge" d="M116.903 112.169L145.744 95.5178C146.103 95.3097 146.528 95.2464 146.933 95.3408C147.337 95.4352 147.69 95.6801 147.92 96.0257C147.686 95.9018 147.424 95.837 147.159 95.837C146.893 95.837 146.632 95.9018 146.397 96.0257L117.701 112.749C117.015 113.137 116.444 113.702 116.049 114.384C115.653 115.067 115.447 115.842 115.452 116.631V173.514C115.448 174.538 115.837 175.526 116.541 176.271C115.991 175.905 115.542 175.408 115.231 174.826C114.921 174.244 114.76 173.593 114.763 172.933V116.087C114.744 115.303 114.932 114.529 115.308 113.841C115.684 113.153 116.234 112.577 116.903 112.169Z" fill="url(#paint18_radial)"/>
</g>
<path d="M185.032 137.382L117.701 176.271V125.192L185.032 86.3032V137.382Z" fill="white"/>
<g style="mix-blend-mode:multiply">
<path d="M185.029 139.087L118.896 177.287V129.509L185.029 91.3096V139.087Z" fill="#E6CFC8"/>
</g>
<path d="M184.523 141.191L122.199 177.142C121.558 177.507 120.833 177.7 120.095 177.7C119.357 177.7 118.632 177.507 117.991 177.142L117.592 176.924H117.991C118.226 177.011 118.479 177.041 118.728 177.01C118.976 176.979 119.214 176.889 119.421 176.746C119.627 176.604 119.796 176.414 119.914 176.192C120.031 175.97 120.093 175.724 120.095 175.473V132.92C120.102 132.124 120.317 131.344 120.717 130.657C121.118 129.97 121.691 129.399 122.38 129.002L184.959 92.7245C185.212 92.5867 185.496 92.5167 185.784 92.5215C186.072 92.5262 186.354 92.6055 186.603 92.7516C186.851 92.8978 187.058 93.1057 187.202 93.3552C187.346 93.6048 187.423 93.8874 187.425 94.1756V136.112C187.424 137.138 187.155 138.145 186.646 139.035C186.137 139.926 185.406 140.669 184.523 141.191Z" fill="url(#paint19_linear)"/>
<path style="mix-blend-mode:color-dodge" d="M117.991 177.141C118.226 177.229 118.479 177.259 118.728 177.228C118.976 177.197 119.214 177.106 119.421 176.964C119.627 176.821 119.796 176.631 119.914 176.41C120.031 176.188 120.093 175.941 120.095 175.69V132.92C120.102 132.124 120.317 131.344 120.717 130.657C121.118 129.97 121.691 129.399 122.38 129.002L184.959 92.7244C185.294 92.5455 185.68 92.4841 186.055 92.5498C186.43 92.6156 186.772 92.8047 187.026 93.0872C186.793 92.9798 186.539 92.9242 186.283 92.9242C186.026 92.9242 185.772 92.9798 185.539 93.0872L122.961 129.364C122.279 129.767 121.713 130.339 121.318 131.026C120.924 131.713 120.715 132.49 120.712 133.282V176.126C120.715 176.504 120.581 176.871 120.334 177.158C120.087 177.445 119.744 177.633 119.369 177.686C118.889 177.6 118.424 177.441 117.991 177.214L117.592 176.996L117.991 177.141Z" fill="url(#paint20_radial)"/>
<path style="mix-blend-mode:multiply" d="M154.705 100.742L161.416 104.732L170.993 98.7466V152.908L130.98 184.506L121.148 178.448V120.114L154.705 100.742Z" fill="url(#paint21_linear)"/>
<path d="M160.654 104.043V108.832L191.889 90.6931C192.143 90.5463 192.431 90.4692 192.725 90.4695C193.018 90.4697 193.306 90.5474 193.56 90.6945C193.814 90.8417 194.025 91.0532 194.171 91.3077C194.317 91.5622 194.393 91.8507 194.392 92.1441V149.607L134.752 184.288C134.069 184.705 133.285 184.925 132.485 184.925C131.685 184.925 130.901 184.705 130.218 184.288L128.948 183.526C128.373 183.162 127.899 182.658 127.569 182.062C127.24 181.466 127.065 180.797 127.062 180.116V123.343C127.064 122.555 127.273 121.782 127.668 121.101C128.062 120.42 128.629 119.855 129.311 119.461L158.332 102.81C158.564 102.707 158.816 102.658 159.069 102.666C159.322 102.675 159.57 102.742 159.794 102.86C160.018 102.979 160.211 103.148 160.361 103.353C160.51 103.557 160.61 103.794 160.654 104.043Z" fill="url(#paint22_linear)"/>
<g style="mix-blend-mode:color-dodge">
<path style="mix-blend-mode:color-dodge" d="M192.576 91.2373L161.305 109.376V108.433L191.886 90.6931C192.255 90.4991 192.681 90.4436 193.087 90.5368C193.493 90.63 193.852 90.8656 194.099 91.201C193.861 91.0826 193.598 91.0241 193.333 91.0304C193.067 91.0367 192.807 91.1077 192.576 91.2373Z" fill="url(#paint23_radial)"/>
<path style="mix-blend-mode:color-dodge" d="M129.31 119.28L158.332 102.628C158.696 102.418 159.127 102.354 159.538 102.448C159.948 102.542 160.308 102.788 160.545 103.136C160.31 103.012 160.048 102.948 159.783 102.948C159.517 102.948 159.256 103.012 159.021 103.136L129.999 119.751C129.319 120.156 128.755 120.729 128.361 121.416C127.967 122.102 127.757 122.878 127.75 123.669V180.624C127.751 181.637 128.14 182.611 128.838 183.345C128.294 182.983 127.848 182.492 127.538 181.916C127.228 181.341 127.064 180.698 127.061 180.044V123.343C127.031 122.525 127.224 121.714 127.62 120.999C128.017 120.283 128.601 119.688 129.31 119.28Z" fill="url(#paint24_radial)"/>
</g>
<path d="M197.477 137.527L130.146 176.38V125.302L197.477 86.4124V137.527Z" fill="white"/>
<g style="mix-blend-mode:multiply">
<path d="M197.474 146.197L131.341 184.397V136.62L197.474 98.4202V146.197Z" fill="#E6CFC8"/>
</g>
<path d="M196.933 148.265L134.645 184.252C133.995 184.608 133.265 184.794 132.523 184.794C131.782 184.794 131.052 184.608 130.401 184.252L130.002 184.034H130.437C130.672 184.122 130.925 184.151 131.174 184.12C131.423 184.089 131.661 183.999 131.867 183.857C132.074 183.714 132.243 183.524 132.36 183.302C132.477 183.081 132.54 182.834 132.541 182.583V140.03C132.541 139.237 132.749 138.458 133.143 137.771C133.538 137.084 134.106 136.512 134.791 136.112L197.369 99.8349C197.623 99.6882 197.911 99.6111 198.205 99.6113C198.498 99.6116 198.786 99.6892 199.04 99.8364C199.294 99.9835 199.504 100.195 199.651 100.45C199.797 100.704 199.873 100.993 199.872 101.286V143.222C199.871 144.248 199.599 145.254 199.082 146.14C198.566 147.026 197.825 147.759 196.933 148.265Z" fill="url(#paint25_linear)"/>
<path style="mix-blend-mode:color-dodge" d="M130.437 184.252C130.672 184.339 130.925 184.369 131.174 184.338C131.423 184.307 131.661 184.217 131.867 184.074C132.074 183.932 132.243 183.742 132.36 183.52C132.477 183.298 132.54 183.052 132.541 182.801V140.03C132.541 139.237 132.749 138.458 133.143 137.771C133.538 137.084 134.106 136.512 134.791 136.112L197.369 99.8349C197.703 99.6495 198.09 99.5843 198.467 99.6504C198.843 99.7164 199.185 99.9096 199.437 100.198C199.212 100.083 198.963 100.023 198.711 100.023C198.459 100.023 198.21 100.083 197.985 100.198L135.407 136.475C134.713 136.867 134.136 137.436 133.735 138.125C133.333 138.813 133.122 139.596 133.122 140.393V183.236C133.124 183.611 132.989 183.973 132.741 184.254C132.494 184.535 132.151 184.715 131.78 184.76C131.3 184.687 130.835 184.54 130.401 184.324L130.002 184.107L130.437 184.252Z" fill="url(#paint26_radial)"/>
<path d="M153.433 162.667V201.81L106.744 175.074V135.894L153.433 162.667Z" fill="url(#paint27_linear)"/>
<path d="M157.423 160.345L153.397 162.667L106.744 135.894V131.07L157.423 160.345Z" fill="url(#paint28_linear)"/>
<path d="M151.619 147.721V213.963L147.12 211.387V145.145L151.619 147.721Z" fill="url(#paint29_linear)"/>
<path d="M151.584 147.721V213.963L233.425 166.259V100.053L151.584 147.721Z" fill="url(#paint30_linear)"/>
<path d="M230.775 164.735V104.66L154.23 149.245V209.356L230.775 164.735Z" fill="url(#paint31_linear)"/>
<path d="M233.424 100.053L151.582 147.721L147.12 145.145L229.07 97.4407L233.424 100.053Z" fill="url(#paint32_linear)"/>
<path style="mix-blend-mode:color-dodge" d="M232.77 99.7261V100.996L151.981 148.047V213.02L150.893 213.637V147.394L232.77 99.7261Z" fill="url(#paint33_radial)"/>
<path d="M225.372 131.577V115.216L159.565 152.981V169.414L225.372 131.577Z" fill="url(#paint34_linear)"/>
<path d="M169.941 158.06L165.479 160.636V155.521L169.941 152.945V158.06Z" fill="#FFE4A7"/>
<path d="M178.32 153.235L173.857 155.811V150.659L178.32 148.084V153.235Z" fill="#2AF6FF"/>
<path d="M186.701 148.374L182.239 150.95V145.834L186.701 143.259V148.374Z" fill="#2AF6FF"/>
<path d="M195.116 143.549L190.617 146.125V140.973L195.116 138.398V143.549Z" fill="#4B61B8"/>
<path d="M203.497 138.688L199.035 141.264V136.148L203.497 133.573V138.688Z" fill="#4B61B8"/>
<path d="M211.875 133.863L207.413 136.438V131.287L211.875 128.711V133.863Z" fill="#4B61B8"/>
<path d="M220.258 129.002L215.796 131.577V126.462L220.258 123.887V129.002Z" fill="#4B61B8"/>
<path d="M274.598 158.495C274.381 162.449 274.816 176.634 271.333 185.558C267.851 194.482 271.805 200.25 272.603 205.148C273.557 213.505 273.337 221.955 271.95 230.251C270.753 240.445 270.862 245.27 271.95 247.447C273.038 249.623 272.349 252.707 265.819 254.485C259.289 256.262 251.635 256.335 252.36 250.313C252.614 248.354 258.237 252.888 260.087 249.914C261.938 246.939 264.151 242.223 263.062 231.449C261.974 220.674 260.704 214.036 260.087 208.086C259.471 202.137 258.31 194.845 257.149 186.936C255.988 179.028 254.646 155.484 254.646 155.484L274.598 158.495Z" fill="url(#paint35_radial)"/>
<path d="M267.452 245.851C267.452 242.622 266.618 234.351 266.618 228.837C266.618 223.323 262.736 204.35 264.513 200.468C267.089 194.845 263.534 187.19 263.534 184.252C263.534 181.314 263.715 161.216 263.715 156.826L274.599 158.495C274.381 162.449 274.816 176.634 271.334 185.558C267.851 194.482 271.805 200.25 272.603 205.148C273.557 213.505 273.337 221.955 271.95 230.251C270.753 240.445 270.862 245.27 271.95 247.447C273.039 249.624 272.349 252.707 265.819 254.485C264.2 254.918 262.551 255.233 260.886 255.428L262.337 254.63C262.337 254.63 267.452 249.116 267.452 245.851Z" fill="url(#paint36_radial)"/>
<path d="M272.676 247.302C272.676 247.302 275.106 250.023 274.78 252.199C274.453 254.376 272.748 257.133 272.676 259.201C272.603 261.268 272.676 262.828 272.676 262.828C272.187 262.938 271.689 262.999 271.188 263.01L270.572 262.538V255.283C268.524 255.035 266.45 255.415 264.622 256.371C261.447 258.186 257.715 258.767 254.138 258.004C251.635 256.915 249.894 249.442 250.148 248.318C250.402 247.193 256.424 250.349 257.403 250.784C257.837 250.977 258.286 251.134 258.745 251.256C258.745 251.256 255.626 250.385 254.9 251.51C254.72 251.932 254.644 252.392 254.676 252.85C254.709 253.307 254.849 253.751 255.087 254.144C255.324 254.537 255.651 254.868 256.041 255.11C256.431 255.353 256.873 255.499 257.331 255.537C259.797 255.972 262.845 252.489 265.457 251.582C268.069 250.676 272.023 249.007 272.676 247.302Z" fill="#10054D"/>
<path d="M217.935 115.797L223.957 148.156L243.075 137.237L237.016 104.769L217.935 115.797Z" fill="url(#paint37_linear)"/>
<path d="M219.132 116.813L225.19 149.172L243.075 137.237L237.016 104.769L219.132 116.813Z" fill="url(#paint38_linear)"/>
<path d="M221.343 116.014L227.365 148.374L243.073 137.237L237.014 104.769L221.343 116.014Z" fill="url(#paint39_linear)"/>
<path d="M261.903 171.954C260.488 175.799 258.638 183.345 256.969 188.678C255.3 194.01 253.341 199.561 254.212 203.551C256.38 209.742 257.603 216.223 257.84 222.778C257.84 231.557 256.824 250.168 258.13 252.925C259.436 255.682 260.597 258.294 259.908 260.18C259.218 262.066 253.16 263.3 248.335 266.492C243.51 269.685 236.944 262.865 239.447 261.45C241.95 260.035 242.313 261.74 244.163 260.543C245.823 259.581 247.229 258.236 248.264 256.62C249.298 255.005 249.932 253.166 250.113 251.256C250.113 246.83 244.961 217.627 243.583 211.351C242.222 205.387 241.36 199.32 241.007 193.212C240.372 185.111 240.372 176.972 241.007 168.87C241.733 161.687 265.857 161.18 261.903 171.954Z" fill="url(#paint40_radial)"/>
<path d="M247.718 266.637L252.362 260.797C251.861 259.166 251.713 257.447 251.926 255.754C253.082 253.104 253.628 250.228 253.522 247.338C252.293 235.953 250.452 224.642 248.008 213.455C247.065 209.537 249.314 205.837 248.988 202.572C248.661 199.307 245.578 190.564 246.412 184.433C246.884 180.806 248.48 170.866 249.677 163.574C248.873 163.666 248.074 163.799 247.283 163.973C254.538 162.377 264.623 164.517 261.794 171.809C260.379 175.654 258.529 183.2 256.86 188.533C255.191 193.865 253.232 199.416 254.103 203.406C256.271 209.597 257.494 216.078 257.731 222.633C257.731 231.412 256.715 250.023 258.021 252.78C259.327 255.537 260.488 258.149 259.798 260.035C259.109 261.921 253.051 263.155 248.226 266.347C247.607 266.77 246.905 267.056 246.167 267.188C245.429 267.319 244.672 267.292 243.945 267.109C245.219 267.411 246.558 267.243 247.718 266.637Z" fill="url(#paint41_radial)"/>
<path d="M267.85 139.667L242.456 140.719C242.456 140.719 240.859 158.858 240.279 165.751C239.699 172.643 239.626 194.482 239.626 194.482C243.736 196.563 248.354 197.431 252.94 196.985C259.071 195.788 273.146 192.559 273.146 192.559C273.146 192.559 273.654 185.812 274.017 179.608C274.38 173.405 275.686 159.475 273.618 153.416C271.927 148.739 270.002 144.151 267.85 139.667Z" fill="url(#paint42_linear)"/>
<path d="M267.85 139.667L242.456 140.719C242.456 140.719 240.859 158.858 240.279 165.751C239.699 172.643 239.626 194.482 239.626 194.482C243.736 196.563 248.354 197.431 252.94 196.985C259.071 195.788 273.146 192.559 273.146 192.559C273.146 192.559 273.654 185.812 274.017 179.608C274.38 173.405 275.686 159.475 273.618 153.416C271.927 148.739 270.002 144.151 267.85 139.667Z" fill="url(#paint43_linear)"/>
<path d="M259.182 254.92C259.943 255.627 260.533 256.497 260.91 257.464C261.287 258.432 261.441 259.472 261.359 260.507C260.742 263.481 259.037 263.663 259.037 265.803V271.354L257.768 271.861L256.353 271.317V262.865C253.969 263.581 251.724 264.698 249.714 266.166C248.396 267.234 246.818 267.932 245.141 268.187C243.464 268.442 241.749 268.245 240.173 267.617C237.851 266.456 233.535 260.362 234.659 259.273C235.784 258.185 244.091 260.507 244.091 260.507C244.091 260.507 240.935 260.833 240.463 262.429C239.992 264.026 242.713 266.057 244.853 265.078C247.629 262.985 250.551 261.094 253.596 259.418C257.731 257.568 258.82 255.573 259.182 254.92Z" fill="#10054D"/>
<path d="M231.211 133.645L225.806 131.36C225.806 131.36 223.811 128.349 222.432 127.732C221.054 127.115 220.183 127.188 220.074 126.752C219.965 126.317 219.856 125.628 219.856 125.628C219.602 125.575 219.339 125.578 219.085 125.636C218.831 125.695 218.593 125.807 218.387 125.965C218.18 126.123 218.01 126.324 217.888 126.554C217.766 126.784 217.695 127.037 217.68 127.297C217.462 129.256 218.188 129.292 218.188 129.292C218.025 129.35 217.881 129.452 217.773 129.586C217.664 129.721 217.594 129.882 217.571 130.054C217.531 130.321 217.553 130.594 217.635 130.852C217.717 131.11 217.856 131.345 218.043 131.541L218.369 131.868C218.277 132.041 218.229 132.234 218.229 132.43C218.229 132.626 218.277 132.819 218.369 132.992C218.512 133.5 218.834 133.938 219.276 134.226C219.276 134.226 219.276 135.568 219.893 135.894C220.509 136.221 221.235 136.293 222.287 136.656L229.289 138.978L231.211 133.645Z" fill="url(#paint44_radial)"/>
<path d="M225.733 131.831C225.724 130.338 225.429 128.86 224.862 127.478C224.028 125.954 223.048 124.358 222.722 123.85C222.395 123.342 221.597 122.544 220.944 123.088C220.291 123.633 220.581 123.705 220.944 125.193C221.307 126.68 220.944 127.587 221.488 128.82C222.032 130.054 225.733 131.831 225.733 131.831Z" fill="url(#paint45_radial)"/>
<g style="mix-blend-mode:multiply">
<path d="M240.354 165.75C240.898 159.547 242.241 143.984 242.494 141.155L247.827 142.098C247.827 142.098 248.299 161.724 248.48 170.648C248.48 177.649 247.718 191.435 247.356 196.949C244.703 196.48 242.128 195.65 239.701 194.482C239.701 194.482 239.737 172.571 240.354 165.75Z" fill="#D1D3D4"/>
</g>
<path d="M272.532 97.3318C274.527 101.721 277.429 117.067 276.16 121.638C275.398 124.612 268.36 141.916 268.36 141.916L262.52 133.682L272.532 97.3318Z" fill="url(#paint46_linear)"/>
<path d="M251.926 101.576C249.351 103.753 241.043 109.884 239.628 114.455C238.686 117.834 238.943 121.436 240.354 124.648C241.956 129.031 242.563 133.715 242.131 138.361C241.442 145.617 239.773 165.714 239.483 168.072C239.193 170.43 241.732 171.41 244.09 171.7C251.664 172.483 259.317 171.843 266.655 169.814C273.91 167.057 275.615 165.968 275.615 164.263C275.589 158.543 274.352 152.893 271.988 147.684C269.074 142.08 267.532 135.863 267.489 129.546C267.779 125.7 274.019 109.376 273.729 103.245C273.439 97.114 270.754 91.6725 266.473 93.051C261.383 95.4598 256.515 98.3126 251.926 101.576Z" fill="url(#paint47_linear)"/>
<path d="M254.828 171.954C251.186 168.826 248.908 164.401 248.479 159.62C248.153 151.82 249.604 144.528 251.381 144.274C253.159 144.021 254.646 141.046 254.646 138.76C254.646 128.204 257.802 109.739 255.19 106.909C253.038 105.521 250.487 104.883 247.935 105.095C249.676 103.608 251.272 102.374 252.179 101.467C256.765 98.2808 261.621 95.501 266.69 93.1599C271.044 91.7813 273.728 97.2229 273.946 103.354C274.163 109.485 267.996 125.809 267.706 129.655C267.749 135.972 269.29 142.188 272.204 147.793C274.569 153.002 275.805 158.652 275.832 164.372C275.832 166.077 274.091 167.165 266.872 169.922C260.619 171.728 254.105 172.452 247.608 172.063C249.495 172.099 251.925 172.099 254.828 171.954Z" fill="url(#paint48_linear)"/>
<path d="M261.502 66.3511C260.054 65.9317 258.537 65.8041 257.039 65.9755C255.541 66.1468 254.092 66.6139 252.776 67.3496C251.46 68.0852 250.303 69.0748 249.372 70.261C248.442 71.4471 247.756 72.8062 247.354 74.2595C246.301 79.3895 246.613 84.7062 248.261 89.6773C249.495 91.6 253.122 91.2735 254.102 92.8697C254.66 93.7908 255.025 94.8156 255.174 95.882C255.324 96.9484 255.255 98.0341 254.972 99.0731C254.361 99.9353 253.669 100.737 252.905 101.467L262.01 100.379L267.162 97.1142C267.162 97.1142 264.767 92.7609 265.856 90.8745C266.944 88.9881 273.111 83.4377 271.116 74.9488C270.547 72.7235 269.33 70.7176 267.618 69.1866C265.906 67.6555 263.777 66.6685 261.502 66.3511Z" fill="url(#paint49_radial)"/>
<path d="M266.655 94.3208C265.215 95.6029 263.417 96.4132 261.503 96.6425C257.875 97.2593 256.17 96.6425 254.973 97.5857C253.888 98.5666 252.926 99.675 252.107 100.887C253.499 99.8402 255.135 99.1659 256.86 98.928C259.856 98.9797 262.838 98.5133 265.675 97.5495C267.308 96.3886 267.017 95.6631 267.017 95.3728C266.943 95.0078 266.821 94.654 266.655 94.3208Z" fill="url(#paint50_linear)"/>
<g style="mix-blend-mode:multiply">
<path d="M266.147 93.6313C266.147 93.6313 269.195 96.3159 268.832 98.7827C268.469 101.25 265.966 103.535 261.576 103.172C258.591 102.5 255.493 102.5 252.507 103.172C250.548 104.043 246.775 105.893 246.775 105.893C246.775 105.893 250.657 99.5808 254.031 99.0367C257.251 98.9556 260.457 98.5792 263.608 97.9121C265.567 96.9326 266.8 96.6061 267.054 95.3727C267.082 95.0266 267.011 94.6797 266.851 94.3718C266.691 94.0638 266.447 93.8073 266.147 93.6313Z" fill="#D1D3D4"/>
</g>
<path d="M266.147 93.6313C266.147 93.6313 268.941 95.1913 268.578 97.6581C268.215 100.125 265.712 102.41 261.323 102.048C258.255 101.478 255.095 101.652 252.108 102.556C250.238 103.554 248.454 104.706 246.775 106.002C246.775 106.002 250.657 99.6896 254.031 99.1455C257.251 99.0644 260.457 98.688 263.608 98.0209C265.567 97.0414 266.8 96.7149 267.054 95.4815C267.104 95.1179 267.044 94.7479 266.882 94.4185C266.721 94.089 266.465 93.8151 266.147 93.6313Z" fill="url(#paint51_linear)"/>
<path style="mix-blend-mode:color-dodge" d="M251.927 102.048C254.872 101.185 257.978 101.024 260.996 101.576C265.386 101.903 267.889 99.6173 268.251 97.1504C268.348 96.4477 268.207 95.7329 267.852 95.1189C268.138 95.4716 268.349 95.8783 268.474 96.3147C268.599 96.751 268.634 97.208 268.578 97.6583C268.215 100.089 265.712 102.411 261.323 102.048C258.255 101.478 255.095 101.652 252.108 102.556C250.238 103.554 248.454 104.707 246.775 106.002C246.775 106.002 247.138 105.385 247.755 104.551C249.071 103.598 250.467 102.761 251.927 102.048Z" fill="url(#paint52_radial)"/>
<path d="M252.25 75.7468C250.868 74.6442 249.116 74.112 247.353 74.2594C243.725 74.731 247.063 67.004 255.262 64.8999C261.537 63.1949 270.425 65.5892 271.913 72.7358C273.981 82.6758 268.466 86.9202 267.959 90.5842C267.451 94.2482 256.314 93.6315 257.692 87.8271C258.381 84.8887 258.744 82.2767 256.386 82.4581C254.028 82.6395 253.956 77.5969 252.25 75.7468Z" fill="url(#paint53_linear)"/>
<path d="M258.094 114.055C258.094 119.207 256.135 135.822 255.736 140.139C255.337 144.456 252.398 148.083 249.315 147.394C246.231 146.705 235.493 142.751 232.772 141.844C230.051 140.937 225.517 139.776 225.517 139.776C225.296 138.088 225.483 136.371 226.061 134.77C226.698 133.588 227.465 132.481 228.346 131.469C228.346 131.469 231.974 132.521 235.82 133.573C239.665 134.625 246.703 136.112 246.703 136.112C246.727 130.851 246.436 125.594 245.832 120.368C244.998 115.398 243.655 109.702 246.521 106.873C249.677 103.68 258.057 105.204 258.094 114.055Z" fill="url(#paint54_linear)"/>
<g style="mix-blend-mode:multiply" opacity="0.5">
<path d="M231.79 138.869C234.511 139.776 245.212 143.803 248.332 144.42C251.452 145.036 254.354 141.445 254.753 137.164C255.152 132.883 257.148 116.232 257.111 111.081C257.149 110.489 257.149 109.895 257.111 109.303C257.845 110.818 258.218 112.482 258.2 114.164C258.2 119.316 256.241 135.931 255.842 140.248C255.443 144.565 252.504 148.192 249.421 147.503C246.337 146.814 235.599 142.86 232.878 141.953C230.157 141.046 225.623 139.885 225.623 139.885C225.527 138.944 225.527 137.996 225.623 137.055C226.856 137.418 229.831 138.216 231.79 138.869Z" fill="#D1D3D4"/>
</g>
<g style="mix-blend-mode:multiply">
<path d="M252.761 76.3635C261.83 76.3635 266.583 74.8761 270.9 70.2327C271.32 71.0196 271.625 71.8625 271.807 72.7358C273.875 82.6757 268.36 86.9202 267.853 90.5842C267.345 94.2482 256.208 93.6315 257.586 87.8271C258.275 84.8887 258.638 82.2767 256.28 82.4581C253.922 82.6395 253.886 78.5401 252.652 76.3635H252.761Z" fill="#D1D3D4"/>
</g>
<path d="M273.692 75.9281C268.033 72.4818 265.421 77.5606 263.788 82.1315C262.156 86.7025 260.814 90.8381 266.763 91.8538C275.143 93.2687 279.787 79.8098 273.692 75.9281Z" fill="url(#paint55_linear)"/>
<g style="mix-blend-mode:multiply">
<path d="M263.862 82.1317C265.096 78.6853 266.873 74.8762 270.102 74.8762C267.091 77.7421 267.2 81.6963 271.517 81.9503C273.218 82.1087 274.931 81.8211 276.487 81.1159C276.777 86.3398 272.859 92.9423 266.837 91.9991C260.815 91.0559 262.23 86.7389 263.862 82.1317Z" fill="#D1D3D4"/>
</g>
<defs>
<linearGradient id="paint0_linear" x1="-715090" y1="8908.68" x2="-721756" y2="7562.42" gradientUnits="userSpaceOnUse">
<stop stop-color="#25054D"/>
<stop offset="1" stop-color="#45108A"/>
</linearGradient>
<linearGradient id="paint1_linear" x1="-698755" y1="10035.8" x2="-707143" y2="8785.68" gradientUnits="userSpaceOnUse">
<stop stop-color="#25054D"/>
<stop offset="1" stop-color="#45108A"/>
</linearGradient>
<linearGradient id="paint2_linear" x1="-1.45097e+06" y1="-1088.22" x2="-1.4488e+06" y2="6036.22" gradientUnits="userSpaceOnUse">
<stop stop-color="#25054D"/>
<stop offset="1" stop-color="#45108A"/>
</linearGradient>
<linearGradient id="paint3_linear" x1="-609228" y1="7602.4" x2="-614298" y2="6760.7" gradientUnits="userSpaceOnUse">
<stop stop-color="#25054D"/>
<stop offset="1" stop-color="#45108A"/>
</linearGradient>
<linearGradient id="paint4_linear" x1="224.322" y1="254.521" x2="69.745" y2="189.657" gradientUnits="userSpaceOnUse">
<stop stop-color="#300962"/>
<stop offset="0.53" stop-color="#45108A"/>
<stop offset="1" stop-color="#6217AB"/>
</linearGradient>
<radialGradient id="paint5_radial" cx="0" cy="0" r="1" gradientUnits="userSpaceOnUse" gradientTransform="translate(131.598 216.538) rotate(180) scale(46.6525)">
<stop stop-color="white"/>
<stop offset="1"/>
</radialGradient>
<linearGradient id="paint6_linear" x1="-483165" y1="3205.73" x2="-487637" y2="3410.15" gradientUnits="userSpaceOnUse">
<stop stop-color="#25054D"/>
<stop offset="1" stop-color="#45108A"/>
</linearGradient>
<linearGradient id="paint7_linear" x1="-678555" y1="3737.82" x2="-683716" y2="3836.06" gradientUnits="userSpaceOnUse">
<stop offset="0.01" stop-color="#FFE4A7"/>
<stop offset="0.1" stop-color="#FAC098"/>
<stop offset="0.2" stop-color="#F49587"/>
<stop offset="0.46" stop-color="#A142B5"/>
<stop offset="0.6" stop-color="#7C1DC9"/>
<stop offset="0.63" stop-color="#7926CB"/>
<stop offset="0.7" stop-color="#703ED1"/>
<stop offset="0.78" stop-color="#6165DB"/>
<stop offset="0.87" stop-color="#4C9CE9"/>
<stop offset="0.97" stop-color="#32E1FA"/>
<stop offset="1" stop-color="#2AF6FF"/>
</linearGradient>
<linearGradient id="paint8_linear" x1="-664066" y1="4122.16" x2="-668418" y2="3625.6" gradientUnits="userSpaceOnUse">
<stop offset="0.01" stop-color="#FFE4A7"/>
<stop offset="0.1" stop-color="#FAC098"/>
<stop offset="0.2" stop-color="#F49587"/>
<stop offset="0.46" stop-color="#A142B5"/>
<stop offset="0.6" stop-color="#7C1DC9"/>
<stop offset="0.63" stop-color="#7926CB"/>
<stop offset="0.7" stop-color="#703ED1"/>
<stop offset="0.78" stop-color="#6165DB"/>
<stop offset="0.87" stop-color="#4C9CE9"/>
<stop offset="0.97" stop-color="#32E1FA"/>
<stop offset="1" stop-color="#2AF6FF"/>
</linearGradient>
<linearGradient id="paint9_linear" x1="-718720" y1="5154.3" x2="-725383" y2="3809.42" gradientUnits="userSpaceOnUse">
<stop stop-color="#25054D"/>
<stop offset="1" stop-color="#45108A"/>
</linearGradient>
<linearGradient id="paint10_linear" x1="-702614" y1="6284.38" x2="-711001" y2="5033.31" gradientUnits="userSpaceOnUse">
<stop stop-color="#25054D"/>
<stop offset="1" stop-color="#45108A"/>
</linearGradient>
<linearGradient id="paint11_linear" x1="-1.45861e+06" y1="-4017.44" x2="-1.45644e+06" y2="3106.77" gradientUnits="userSpaceOnUse">
<stop stop-color="#25054D"/>
<stop offset="1" stop-color="#45108A"/>
</linearGradient>
<linearGradient id="paint12_linear" x1="-543093" y1="3126.42" x2="-540785" y2="4109.4" gradientUnits="userSpaceOnUse">
<stop stop-color="#25054D"/>
<stop offset="1" stop-color="#45108A"/>
</linearGradient>
<linearGradient id="paint13_linear" x1="-607850" y1="2217.84" x2="-611461" y2="880.557" gradientUnits="userSpaceOnUse">
<stop stop-color="#25054D"/>
<stop offset="1" stop-color="#45108A"/>
</linearGradient>
<linearGradient id="paint14_linear" x1="-368348" y1="156.265" x2="-368081" y2="1041.35" gradientUnits="userSpaceOnUse">
<stop stop-color="#25054D"/>
<stop offset="1" stop-color="#45108A"/>
</linearGradient>
<linearGradient id="paint15_linear" x1="107.905" y1="94.7921" x2="152.163" y2="157.951" gradientUnits="userSpaceOnUse">
<stop stop-color="white"/>
<stop offset="0.27" stop-color="#F4EEF4"/>
<stop offset="0.79" stop-color="#D8C4D7"/>
<stop offset="1" stop-color="#CCB1CB"/>
</linearGradient>
<linearGradient id="paint16_linear" x1="148.355" y1="129.763" x2="141.789" y2="41.5735" gradientUnits="userSpaceOnUse">
<stop offset="0.04" stop-color="#FFA98C"/>
<stop offset="0.32" stop-color="#FFB892"/>
<stop offset="0.86" stop-color="#FEE1A3"/>
<stop offset="1" stop-color="#FEECA8"/>
</linearGradient>
<radialGradient id="paint17_radial" cx="0" cy="0" r="1" gradientUnits="userSpaceOnUse" gradientTransform="translate(-227154 569.976) rotate(180) scale(120.15 70.0518)">
<stop stop-color="white"/>
<stop offset="1"/>
</radialGradient>
<radialGradient id="paint18_radial" cx="0" cy="0" r="1" gradientUnits="userSpaceOnUse" gradientTransform="translate(-231346 2815.98) rotate(180) scale(220.173 537.659)">
<stop stop-color="white"/>
<stop offset="1"/>
</radialGradient>
<linearGradient id="paint19_linear" x1="545265" y1="6171.71" x2="546595" y2="1901.54" gradientUnits="userSpaceOnUse">
<stop offset="0.04" stop-color="#FFA98C"/>
<stop offset="0.32" stop-color="#FFB892"/>
<stop offset="0.86" stop-color="#FEE1A3"/>
<stop offset="1" stop-color="#FEECA8"/>
</linearGradient>
<radialGradient id="paint20_radial" cx="0" cy="0" r="1" gradientUnits="userSpaceOnUse" gradientTransform="translate(-514539 3270.75) rotate(180) scale(742.95 911.228)">
<stop stop-color="white"/>
<stop offset="1"/>
</radialGradient>
<linearGradient id="paint21_linear" x1="390104" y1="2506.88" x2="389009" y2="3415.01" gradientUnits="userSpaceOnUse">
<stop stop-color="white"/>
<stop offset="0.27" stop-color="#F4EEF4"/>
<stop offset="0.79" stop-color="#D8C4D7"/>
<stop offset="1" stop-color="#CCB1CB"/>
</linearGradient>
<linearGradient id="paint22_linear" x1="526165" y1="3654.29" x2="526403" y2="1370.25" gradientUnits="userSpaceOnUse">
<stop offset="0.04" stop-color="#FFA98C"/>
<stop offset="0.32" stop-color="#FFB892"/>
<stop offset="0.86" stop-color="#FEE1A3"/>
<stop offset="1" stop-color="#FEECA8"/>
</linearGradient>
<radialGradient id="paint23_radial" cx="0" cy="0" r="1" gradientUnits="userSpaceOnUse" gradientTransform="translate(-228188 610.347) rotate(180) scale(120.684 69.4902)">
<stop stop-color="white"/>
<stop offset="1"/>
</radialGradient>
<radialGradient id="paint24_radial" cx="0" cy="0" r="1" gradientUnits="userSpaceOnUse" gradientTransform="translate(-233810 2979.8) rotate(180) scale(222.353 537.438)">
<stop stop-color="white"/>
<stop offset="1"/>
</radialGradient>
<linearGradient id="paint25_linear" x1="545321" y1="6346.06" x2="546651" y2="2074.29" gradientUnits="userSpaceOnUse">
<stop offset="0.04" stop-color="#FFA98C"/>
<stop offset="0.32" stop-color="#FFB892"/>
<stop offset="0.86" stop-color="#FEE1A3"/>
<stop offset="1" stop-color="#FEECA8"/>
</linearGradient>
<radialGradient id="paint26_radial" cx="0" cy="0" r="1" gradientUnits="userSpaceOnUse" gradientTransform="translate(-514313 3443.71) rotate(180) scale(742.95 910.94)">
<stop stop-color="white"/>
<stop offset="1"/>
</radialGradient>
<linearGradient id="paint27_linear" x1="-336877" y1="3355.22" x2="-338568" y2="2996.59" gradientUnits="userSpaceOnUse">
<stop stop-color="#25054D"/>
<stop offset="1" stop-color="#45108A"/>
</linearGradient>
<linearGradient id="paint28_linear" x1="-369131" y1="572.801" x2="-368793" y2="1604.57" gradientUnits="userSpaceOnUse">
<stop stop-color="#25054D"/>
<stop offset="1" stop-color="#45108A"/>
</linearGradient>
<linearGradient id="paint29_linear" x1="-7264.92" y1="3570.21" x2="-7324.65" y2="3569.04" gradientUnits="userSpaceOnUse">
<stop stop-color="#25054D"/>
<stop offset="1" stop-color="#45108A"/>
</linearGradient>
<linearGradient id="paint30_linear" x1="-607847" y1="5953.91" x2="-614042" y2="4955.87" gradientUnits="userSpaceOnUse">
<stop stop-color="#25054D"/>
<stop offset="1" stop-color="#45108A"/>
</linearGradient>
<linearGradient id="paint31_linear" x1="-567234" y1="5322.71" x2="-570730" y2="4749.76" gradientUnits="userSpaceOnUse">
<stop stop-color="#300962"/>
<stop offset="0.53" stop-color="#45108A"/>
<stop offset="1" stop-color="#6217AB"/>
</linearGradient>
<linearGradient id="paint32_linear" x1="-645883" y1="1569.14" x2="-645795" y2="1854.87" gradientUnits="userSpaceOnUse">
<stop stop-color="#25054D"/>
<stop offset="1" stop-color="#45108A"/>
</linearGradient>
<radialGradient id="paint33_radial" cx="0" cy="0" r="1" gradientUnits="userSpaceOnUse" gradientTransform="translate(-611396 4686.9) rotate(180) scale(1119.27 1557.16)">
<stop stop-color="white"/>
<stop offset="1"/>
</radialGradient>
<linearGradient id="paint34_linear" x1="-484957" y1="2219.19" x2="-489429" y2="2422.8" gradientUnits="userSpaceOnUse">
<stop stop-color="#25054D"/>
<stop offset="1" stop-color="#45108A"/>
</linearGradient>
<radialGradient id="paint35_radial" cx="0" cy="0" r="1" gradientUnits="userSpaceOnUse" gradientTransform="translate(304.962 204.676) rotate(180) scale(73.28)">
<stop offset="0.03" stop-color="#FEDFCB"/>
<stop offset="1" stop-color="#F9B69E"/>
</radialGradient>
<radialGradient id="paint36_radial" cx="0" cy="0" r="1" gradientUnits="userSpaceOnUse" gradientTransform="translate(85721.3 5795.84) scale(228.181 1640.73)">
<stop offset="0.03" stop-color="#FEDFCB"/>
<stop offset="1" stop-color="#F9B69E"/>
</radialGradient>
<linearGradient id="paint37_linear" x1="259.145" y1="132.883" x2="165.768" y2="111.951" gradientUnits="userSpaceOnUse">
<stop offset="0.04" stop-color="#6B24D6"/>
<stop offset="0.29" stop-color="#7733DC"/>
<stop offset="0.79" stop-color="#975CED"/>
<stop offset="1" stop-color="#A56EF4"/>
</linearGradient>
<linearGradient id="paint38_linear" x1="258.384" y1="133.065" x2="169.432" y2="113.149" gradientUnits="userSpaceOnUse">
<stop offset="0.04" stop-color="#9D9EB3"/>
<stop offset="0.58" stop-color="#D4D1D8"/>
<stop offset="1" stop-color="#EEEBF2"/>
</linearGradient>
<linearGradient id="paint39_linear" x1="135842" y1="1694.61" x2="136355" y2="1637.21" gradientUnits="userSpaceOnUse">
<stop offset="0.04" stop-color="#6B24D6"/>
<stop offset="0.29" stop-color="#7733DC"/>
<stop offset="0.79" stop-color="#975CED"/>
<stop offset="1" stop-color="#A56EF4"/>
</linearGradient>
<radialGradient id="paint40_radial" cx="0" cy="0" r="1" gradientUnits="userSpaceOnUse" gradientTransform="translate(146318 6082.29) scale(432.542 1913.09)">
<stop offset="0.03" stop-color="#FEDFCB"/>
<stop offset="1" stop-color="#F9B69E"/>
</radialGradient>
<radialGradient id="paint41_radial" cx="0" cy="0" r="1" gradientUnits="userSpaceOnUse" gradientTransform="translate(114564 6516.77) scale(329.873 1867.27)">
<stop offset="0.03" stop-color="#FEDFCB"/>
<stop offset="1" stop-color="#F9B69E"/>
</radialGradient>
<linearGradient id="paint42_linear" x1="277.173" y1="168.435" x2="218.803" y2="168.435" gradientUnits="userSpaceOnUse">
<stop offset="0.04" stop-color="#9F19AB"/>
<stop offset="0.24" stop-color="#AE25B1"/>
<stop offset="0.65" stop-color="#D744BF"/>
<stop offset="1" stop-color="#FF63CE"/>
</linearGradient>
<linearGradient id="paint43_linear" x1="219682" y1="2823.47" x2="219139" y2="2800.4" gradientUnits="userSpaceOnUse">
<stop offset="0.04" stop-color="#9F19AB"/>
<stop offset="0.24" stop-color="#AE25B1"/>
<stop offset="0.65" stop-color="#D744BF"/>
<stop offset="1" stop-color="#FF63CE"/>
</linearGradient>
<radialGradient id="paint44_radial" cx="0" cy="0" r="1" gradientUnits="userSpaceOnUse" gradientTransform="translate(85618.4 602.179) scale(38.1099 37.3506)">
<stop offset="0.03" stop-color="#FEDFCB"/>
<stop offset="1" stop-color="#F9B69E"/>
</radialGradient>
<radialGradient id="paint45_radial" cx="0" cy="0" r="1" gradientUnits="userSpaceOnUse" gradientTransform="translate(32587.6 439.842) scale(14.9096 25.7047)">
<stop offset="0.03" stop-color="#FEDFCB"/>
<stop offset="1" stop-color="#F9B69E"/>
</radialGradient>
<linearGradient id="paint46_linear" x1="87264.5" y1="1598.5" x2="87483.8" y2="1563.11" gradientUnits="userSpaceOnUse">
<stop offset="0.04" stop-color="#9F19AB"/>
<stop offset="0.24" stop-color="#AE25B1"/>
<stop offset="0.65" stop-color="#D744BF"/>
<stop offset="1" stop-color="#FF63CE"/>
</linearGradient>
<linearGradient id="paint47_linear" x1="238.322" y1="137.527" x2="281.456" y2="128.675" gradientUnits="userSpaceOnUse">
<stop offset="0.07" stop-color="#9F19AB"/>
<stop offset="0.27" stop-color="#AE25B1"/>
<stop offset="0.66" stop-color="#D744BF"/>
<stop offset="1" stop-color="#FF63CE"/>
</linearGradient>
<linearGradient id="paint48_linear" x1="5781.14" y1="2987.68" x2="6070.71" y2="2987.68" gradientUnits="userSpaceOnUse">
<stop offset="0.04" stop-color="#9F19AB"/>
<stop offset="0.24" stop-color="#AE25B1"/>
<stop offset="0.65" stop-color="#D744BF"/>
<stop offset="1" stop-color="#FF63CE"/>
</linearGradient>
<radialGradient id="paint49_radial" cx="0" cy="0" r="1" gradientUnits="userSpaceOnUse" gradientTransform="translate(154811 886.761) scale(104.269 149.732)">
<stop offset="0.03" stop-color="#FEDFCB"/>
<stop offset="1" stop-color="#F9B69E"/>
</radialGradient>
<linearGradient id="paint50_linear" x1="93394.6" y1="281.916" x2="93407.7" y2="257.717" gradientUnits="userSpaceOnUse">
<stop offset="0.04" stop-color="#9D9EB3"/>
<stop offset="0.58" stop-color="#D4D1D8"/>
<stop offset="1" stop-color="#EEEBF2"/>
</linearGradient>
<linearGradient id="paint51_linear" x1="136456" y1="433.945" x2="136588" y2="433.945" gradientUnits="userSpaceOnUse">
<stop offset="0.04" stop-color="#9F19AB"/>
<stop offset="0.24" stop-color="#AE25B1"/>
<stop offset="0.65" stop-color="#D744BF"/>
<stop offset="1" stop-color="#FF63CE"/>
</linearGradient>
<radialGradient id="paint52_radial" cx="0" cy="0" r="1" gradientUnits="userSpaceOnUse" gradientTransform="translate(-114028 410.948) rotate(180) scale(51.9517 25.9019)">
<stop stop-color="white"/>
<stop offset="1"/>
</radialGradient>
<linearGradient id="paint53_linear" x1="263.388" y1="93.2324" x2="257.474" y2="66.6775" gradientUnits="userSpaceOnUse">
<stop offset="0.04" stop-color="#602213"/>
<stop offset="0.57" stop-color="#6D310E"/>
<stop offset="1" stop-color="#7A4108"/>
</linearGradient>
<linearGradient id="paint54_linear" x1="6387.73" y1="1685.5" x2="6808.5" y2="1588.11" gradientUnits="userSpaceOnUse">
<stop offset="0.04" stop-color="#9F19AB"/>
<stop offset="0.24" stop-color="#AE25B1"/>
<stop offset="0.65" stop-color="#D744BF"/>
<stop offset="1" stop-color="#FF63CE"/>
</linearGradient>
<linearGradient id="paint55_linear" x1="88063.4" y1="509.395" x2="88063.4" y2="419.968" gradientUnits="userSpaceOnUse">
<stop offset="0.04" stop-color="#602213"/>
<stop offset="0.57" stop-color="#6D310E"/>
<stop offset="1" stop-color="#7A4108"/>
</linearGradient>
</defs>
</svg>
