<svg width="332" height="290" viewBox="0 0 332 290" fill="none" xmlns="http://www.w3.org/2000/svg">
<path d="M7.05556 73.7204V170.831L0.5 167.054V69.9426L7.05556 73.7204Z" fill="url(#paint0_linear)"/>
<path d="M7 73.7209V170.832L127 100.888V3.83203L7 73.7209Z" fill="url(#paint1_linear)"/>
<path d="M127 3.83237L6.99999 73.7212L0.5 69.9435L120.611 -0.000976562L127 3.83237Z" fill="url(#paint2_linear)"/>
<path style="mix-blend-mode:color-dodge" d="M126.056 3.33301V5.22192L7.61121 74.1664V169.444L6.05566 170.333V73.2219L126.056 3.33301Z" fill="url(#paint3_radial)"/>
<path d="M318.223 140.055V212.388L118.278 95.5548L118.445 26.4993L318.223 140.055Z" fill="url(#paint4_linear)"/>
<path d="M325.557 135.777L318.113 140.055L118.446 26.499L126.113 22.1101L325.557 135.777Z" fill="url(#paint5_linear)"/>
<path style="mix-blend-mode:multiply" d="M95.0576 29.3874L107.391 36.7763L125.058 25.7207V125.776L51.1687 184.11L33.0576 172.943V65.1652L95.0576 29.3874Z" fill="url(#paint6_linear)"/>
<path d="M106.001 35.5549V44.1105L163.723 10.7772C164.193 10.5187 164.721 10.3859 165.257 10.3915C165.792 10.3972 166.318 10.5411 166.781 10.8093C167.245 11.0775 167.632 11.461 167.904 11.9225C168.176 12.3841 168.324 12.9081 168.335 13.4438V119.666L58.1679 183.722C56.9068 184.47 55.4675 184.864 54.0012 184.864C52.5349 184.864 51.0956 184.47 49.8345 183.722L47.4456 182.277C46.3828 181.612 45.5082 180.686 44.9051 179.587C44.3021 178.488 43.9909 177.253 44.0012 175.999V70.8327C44.0003 69.369 44.3849 67.9309 45.1163 66.663C45.8478 65.3952 46.9003 64.3423 48.1679 63.6105L101.39 32.8882C101.857 32.6122 102.389 32.4652 102.931 32.4626C103.473 32.4599 104.006 32.6015 104.476 32.873C104.945 33.1444 105.334 33.5359 105.602 34.0072C105.87 34.4785 106.008 35.0127 106.001 35.5549Z" fill="url(#paint7_linear)"/>
<g style="mix-blend-mode:color-dodge">
<path style="mix-blend-mode:color-dodge" d="M165 12.1109L107.223 45.4443V43.6665L163.723 11.0554C164.396 10.6838 165.183 10.5746 165.932 10.7491C166.681 10.9235 167.338 11.3691 167.778 11.9998C167.339 11.7974 166.859 11.7019 166.376 11.7212C165.893 11.7405 165.422 11.8741 165 12.1109Z" fill="url(#paint8_radial)"/>
<path style="mix-blend-mode:color-dodge" d="M48.1677 63.6108L101.39 32.8886C102.06 32.5041 102.851 32.3878 103.603 32.563C104.356 32.7383 105.014 33.1921 105.445 33.8331C105.02 33.5997 104.542 33.4773 104.057 33.4773C103.571 33.4773 103.093 33.5997 102.668 33.8331L49.3899 64.5553C48.1298 65.2956 47.0834 66.3503 46.3531 67.6162C45.6227 68.8822 45.2334 70.316 45.2233 71.7775V176.833C45.2382 178.719 45.9736 180.527 47.2788 181.889C46.2672 181.223 45.4376 180.316 44.8653 179.249C44.2929 178.181 43.9959 176.988 44.001 175.778V70.8331C44.0001 69.3693 44.3847 67.9312 45.1162 66.6634C45.8476 65.3955 46.9001 64.3427 48.1677 63.6108Z" fill="url(#paint9_radial)"/>
</g>
<path d="M174.003 110.222L49.6699 182V87.6664L174.003 15.833V110.222Z" fill="white"/>
<g style="mix-blend-mode:multiply">
<path d="M174 113.388L51.8887 183.888V95.6659L174 25.1104V113.388Z" fill="#E6CFC8"/>
</g>
<path d="M173.06 117.222L57.9491 183.889C56.7614 184.556 55.4222 184.906 54.0602 184.906C52.6982 184.906 51.359 184.556 50.1713 183.889L49.3936 183.5H50.1713C50.6042 183.674 51.0734 183.738 51.5371 183.687C52.0008 183.636 52.4447 183.471 52.8295 183.207C53.2142 182.944 53.5279 182.589 53.7426 182.175C53.9573 181.761 54.0664 181.3 54.0602 180.833V101.944C54.0634 100.489 54.4502 99.0602 55.1818 97.802C55.9133 96.5437 56.9636 95.5006 58.2269 94.7778L173.838 28.1111C174.307 27.8527 174.835 27.7199 175.371 27.7255C175.907 27.7311 176.432 27.8751 176.896 28.1433C177.36 28.4115 177.747 28.795 178.019 29.2566C178.291 29.7181 178.439 30.2421 178.449 30.7778V108C178.398 109.866 177.877 111.689 176.936 113.301C175.994 114.913 174.661 116.262 173.06 117.222Z" fill="url(#paint10_linear)"/>
<path style="mix-blend-mode:color-dodge" d="M50.1713 183.667C50.6042 183.841 51.0734 183.905 51.5371 183.854C52.0008 183.803 52.4447 183.638 52.8295 183.374C53.2142 183.11 53.5279 182.756 53.7426 182.341C53.9573 181.927 54.0664 181.467 54.0602 181V101.944C54.0634 100.489 54.4502 99.0602 55.1818 97.802C55.9133 96.5438 56.9636 95.5006 58.2269 94.7778L173.838 28.1112C174.437 27.8023 175.122 27.7002 175.785 27.8208C176.448 27.9414 177.053 28.2778 177.505 28.7778C177.084 28.5588 176.617 28.4444 176.144 28.4444C175.67 28.4444 175.203 28.5588 174.782 28.7778L59.338 95.4445C58.0742 96.1806 57.0247 97.2344 56.2938 98.5013C55.5629 99.7682 55.176 101.204 55.1713 102.667V181.667C55.1779 182.355 54.9333 183.023 54.4834 183.544C54.0335 184.066 53.4091 184.406 52.7269 184.5C51.8289 184.391 50.9608 184.108 50.1713 183.667L49.3936 183.278L50.1713 183.667Z" fill="url(#paint11_radial)"/>
<path style="mix-blend-mode:multiply" d="M117.725 42.4977L130.058 49.8311L147.725 38.8311V138.887L73.8357 197.164L55.7246 186.053V78.2755L117.725 42.4977Z" fill="url(#paint12_linear)"/>
<path d="M128.669 48.6089V57.22L186.391 23.8867C186.858 23.6106 187.389 23.4637 187.932 23.461C188.474 23.4583 189.007 23.6 189.477 23.8714C189.946 24.1429 190.335 24.5344 190.603 25.0057C190.871 25.477 191.009 26.0111 191.002 26.5533V132.776L80.7799 196.831C79.5293 197.58 78.0988 197.976 76.6411 197.976C75.1833 197.976 73.7528 197.58 72.5022 196.831L70.1133 195.331C69.0517 194.674 68.174 193.759 67.562 192.671C66.9499 191.583 66.6235 190.357 66.6133 189.109V83.9422C66.6179 82.4796 67.0049 81.0437 67.7358 79.7768C68.4667 78.5099 69.5161 77.4561 70.7799 76.72L124.058 45.9422C124.527 45.6838 125.055 45.551 125.591 45.5566C126.127 45.5623 126.652 45.7062 127.116 45.9744C127.58 46.2426 127.966 46.6261 128.238 47.0876C128.51 47.5492 128.659 48.0732 128.669 48.6089Z" fill="url(#paint13_linear)"/>
<g style="mix-blend-mode:color-dodge">
<path style="mix-blend-mode:color-dodge" d="M187.672 24.9418L129.895 58.2752V56.553L186.395 23.9418C187.065 23.5573 187.856 23.441 188.608 23.6163C189.361 23.7915 190.019 24.2453 190.45 24.8863C190.02 24.6613 189.54 24.5485 189.054 24.5582C188.569 24.5679 188.093 24.6998 187.672 24.9418Z" fill="url(#paint14_radial)"/>
<path style="mix-blend-mode:color-dodge" d="M70.7827 76.7206L124.06 45.9428C124.734 45.5712 125.521 45.4621 126.27 45.6365C127.018 45.8109 127.676 46.2565 128.116 46.8873C127.686 46.6678 127.21 46.5534 126.727 46.5534C126.244 46.5534 125.768 46.6678 125.338 46.8873L71.9493 77.7761C70.6817 78.508 69.6292 79.5608 68.8978 80.8287C68.1664 82.0965 67.7817 83.5347 67.7827 84.9984V189.887C67.7796 191.782 68.4942 193.609 69.7827 194.998C68.7848 194.319 67.9657 193.408 67.3951 192.344C66.8244 191.28 66.519 190.094 66.5049 188.887V83.9428C66.5208 82.4693 66.9246 81.026 67.6755 79.7582C68.4265 78.4903 69.4982 77.4426 70.7827 76.7206Z" fill="url(#paint15_radial)"/>
</g>
<path d="M196.67 123.332L72.3369 195.11V100.721L196.67 28.9434V123.332Z" fill="white"/>
<g style="mix-blend-mode:multiply">
<path d="M196.669 126.443L74.502 196.999V108.721L196.669 38.2207V126.443Z" fill="#E6CFC8"/>
</g>
<path d="M195.672 130.275L80.6161 196.942C79.4284 197.609 78.0893 197.959 76.7272 197.959C75.3652 197.959 74.0261 197.609 72.8384 196.942L72.0605 196.553H72.8384C73.2713 196.727 73.7404 196.791 74.2041 196.74C74.6678 196.689 75.1117 196.524 75.4965 196.261C75.8812 195.997 76.1949 195.642 76.4096 195.228C76.6243 194.814 76.7334 194.353 76.7272 193.887V115.053C76.7319 113.591 77.1188 112.155 77.8497 110.888C78.5806 109.621 79.6301 108.567 80.8939 107.831L196.505 41.1643C196.966 40.9043 197.487 40.7686 198.016 40.7705C198.546 40.7724 199.066 40.9118 199.525 41.1751C199.984 41.4384 200.367 41.8164 200.636 42.2722C200.906 42.7281 201.052 43.246 201.061 43.7754V120.998C201.051 122.88 200.548 124.727 199.603 126.355C198.657 127.982 197.302 129.334 195.672 130.275Z" fill="url(#paint16_linear)"/>
<path style="mix-blend-mode:color-dodge" d="M72.8384 196.721C73.2713 196.894 73.7404 196.959 74.2041 196.908C74.6678 196.857 75.1117 196.692 75.4965 196.428C75.8812 196.164 76.1949 195.809 76.4096 195.395C76.6243 194.981 76.7334 194.52 76.7272 194.054V115.054C76.7319 113.591 77.1188 112.155 77.8497 110.888C78.5806 109.622 79.6301 108.568 80.8939 107.832L196.505 41.165C197.107 40.811 197.814 40.6784 198.504 40.79C199.194 40.9015 199.823 41.2503 200.283 41.7761C199.868 41.5705 199.412 41.4635 198.949 41.4635C198.487 41.4635 198.031 41.5705 197.616 41.7761L82.005 108.443C80.7449 109.183 79.6985 110.238 78.9681 111.504C78.2378 112.77 77.8485 114.203 77.8383 115.665V194.665C77.8353 195.357 77.5887 196.026 77.1417 196.554C76.6947 197.082 76.0759 197.436 75.3939 197.554C74.4988 197.401 73.6353 197.1 72.8384 196.665L72.0605 196.276L72.8384 196.721Z" fill="url(#paint17_radial)"/>
<path style="mix-blend-mode:multiply" d="M140.669 55.6105L153.002 62.9439L170.669 51.9438V151.999L96.7801 210.277L78.6689 199.166V91.3883L140.669 55.6105Z" fill="url(#paint18_linear)"/>
<path d="M151.613 61.7217V70.3328L209.335 36.9995C209.802 36.7234 210.333 36.5764 210.875 36.5738C211.418 36.5711 211.951 36.7128 212.42 36.9842C212.89 37.2557 213.278 37.6472 213.546 38.1185C213.815 38.5898 213.952 39.1239 213.946 39.6661V145.888L103.779 209.944C102.518 210.692 101.079 211.087 99.6126 211.087C98.1463 211.087 96.7071 210.692 95.446 209.944L93.0571 208.444C91.9949 207.792 91.1194 206.877 90.5158 205.786C89.9123 204.696 89.6011 203.468 89.6126 202.222V97.055C89.606 95.5902 89.9882 94.1498 90.7202 92.881C91.4523 91.6122 92.5078 90.5603 93.7793 89.8328L147.002 59.055C147.471 58.7966 147.999 58.6638 148.535 58.6694C149.071 58.675 149.596 58.819 150.06 59.0872C150.523 59.3554 150.91 59.7389 151.182 60.2004C151.454 60.662 151.602 61.186 151.613 61.7217Z" fill="url(#paint19_linear)"/>
<g style="mix-blend-mode:color-dodge">
<path style="mix-blend-mode:color-dodge" d="M210.834 38.0562L153.057 71.3896V69.6118L209.557 37.0007C210.227 36.6162 211.018 36.4999 211.77 36.6751C212.523 36.8503 213.181 37.3041 213.612 37.9451C213.177 37.7285 212.695 37.6252 212.209 37.6446C211.724 37.664 211.251 37.8056 210.834 38.0562Z" fill="url(#paint20_radial)"/>
<path style="mix-blend-mode:color-dodge" d="M93.779 89.8905L147.001 59.1127C147.674 58.7411 148.461 58.632 149.21 58.8064C149.959 58.9808 150.617 59.4264 151.057 60.0572C150.627 59.8377 150.151 59.7233 149.668 59.7233C149.185 59.7233 148.709 59.8377 148.279 60.0572L95.0012 90.835C93.7374 91.5711 92.6879 92.6249 91.957 93.8918C91.2261 95.1586 90.8392 96.5946 90.8345 98.0572V203.113C90.8605 204.996 91.5943 206.801 92.8901 208.168C91.8854 207.496 91.0612 206.587 90.4897 205.521C89.9182 204.456 89.617 203.266 89.6123 202.057V97.0572C89.6155 95.6018 90.0023 94.1729 90.7339 92.9147C91.4654 91.6565 92.5157 90.6134 93.779 89.8905Z" fill="url(#paint21_radial)"/>
</g>
<path d="M219.615 136.445L95.2812 208.223V113.834L219.615 42.0562V136.445Z" fill="white"/>
<g style="mix-blend-mode:multiply">
<path d="M219.613 139.556L97.4463 210.111V121.834L219.613 51.3335V139.556Z" fill="#E6CFC8"/>
</g>
<path d="M218.672 143.388L103.56 210.055C102.373 210.721 101.034 211.071 99.6715 211.071C98.3095 211.071 96.9703 210.721 95.7827 210.055L95.0049 209.666H95.7827C96.2156 209.84 96.6847 209.904 97.1484 209.853C97.6121 209.802 98.056 209.637 98.4408 209.373C98.8255 209.109 99.1392 208.755 99.3539 208.34C99.5686 207.926 99.6777 207.466 99.6715 206.999V128.166C99.6762 126.703 100.063 125.267 100.794 124C101.525 122.733 102.574 121.68 103.838 120.943L219.449 54.2768C219.915 54.0146 220.44 53.879 220.974 53.8834C221.508 53.8878 222.032 54.032 222.493 54.3018C222.954 54.5716 223.336 54.9575 223.601 55.421C223.867 55.8845 224.006 56.4094 224.005 56.9435V134.332C223.973 136.174 223.465 137.976 222.531 139.563C221.596 141.149 220.267 142.467 218.672 143.388Z" fill="url(#paint22_linear)"/>
<path style="mix-blend-mode:color-dodge" d="M95.7827 209.833C96.2156 210.006 96.6847 210.071 97.1484 210.02C97.6121 209.969 98.056 209.804 98.4408 209.54C98.8255 209.276 99.1392 208.921 99.3539 208.507C99.5686 208.093 99.6777 207.632 99.6715 207.166V128.166C99.6762 126.703 100.063 125.267 100.794 124C101.525 122.734 102.574 121.68 103.838 120.944L219.449 54.2769C220.063 53.9292 220.777 53.8003 221.473 53.9114C222.17 54.0224 222.808 54.3668 223.283 54.8881C222.857 54.6856 222.392 54.5806 221.922 54.5806C221.451 54.5806 220.986 54.6856 220.56 54.8881L104.949 121.555C103.689 122.295 102.643 123.35 101.912 124.616C101.182 125.882 100.793 127.315 100.783 128.777V207.777C100.78 208.469 100.533 209.138 100.086 209.666C99.639 210.194 99.0202 210.548 98.3382 210.666C97.4431 210.513 96.5796 210.212 95.7827 209.777L95.0049 209.388L95.7827 209.833Z" fill="url(#paint23_radial)"/>
<path style="mix-blend-mode:multiply" d="M163.276 68.1108L175.665 75.4441L193.332 64.4441V164.5L119.443 222.833L101.276 211.666V103.889L163.276 68.1108Z" fill="url(#paint24_linear)"/>
<path d="M174.22 74.2227V82.8339L231.997 49.5005C232.467 49.2421 232.995 49.1093 233.531 49.1149C234.067 49.1205 234.592 49.2644 235.056 49.5327C235.519 49.8009 235.906 50.1844 236.178 50.6459C236.45 51.1075 236.599 51.6315 236.609 52.1672V158.389L126.386 222.445C125.125 223.193 123.686 223.588 122.22 223.588C120.753 223.588 119.314 223.193 118.053 222.445L115.72 221.001C114.65 220.339 113.767 219.414 113.155 218.316C112.542 217.217 112.221 215.981 112.22 214.723V109.556C112.224 108.093 112.611 106.658 113.342 105.391C114.073 104.124 115.123 103.07 116.386 102.334L169.664 71.6116C170.122 71.3336 170.647 71.1835 171.183 71.1768C171.719 71.1702 172.247 71.3073 172.712 71.5739C173.177 71.8404 173.562 72.2267 173.827 72.6925C174.092 73.1584 174.228 73.6868 174.22 74.2227Z" fill="url(#paint25_linear)"/>
<g style="mix-blend-mode:color-dodge">
<path style="mix-blend-mode:color-dodge" d="M233.051 50.5552L175.273 83.8886V82.1108L231.773 49.4997C232.447 49.1281 233.234 49.019 233.983 49.1934C234.731 49.3678 235.389 49.8134 235.829 50.4441C235.39 50.2417 234.91 50.1462 234.427 50.1655C233.944 50.1848 233.472 50.3184 233.051 50.5552Z" fill="url(#paint26_radial)"/>
<path style="mix-blend-mode:color-dodge" d="M116.386 102.332L169.664 71.6095C170.331 71.2114 171.126 71.0874 171.882 71.2635C172.639 71.4396 173.297 71.9022 173.72 72.5539C173.294 72.3205 172.816 72.1982 172.331 72.1982C171.845 72.1982 171.368 72.3205 170.942 72.5539L117.664 103.276C116.4 104.012 115.351 105.066 114.62 106.333C113.889 107.6 113.502 109.036 113.498 110.498V215.554C113.492 217.433 114.208 219.243 115.497 220.609C114.5 219.93 113.681 219.019 113.11 217.956C112.539 216.892 112.234 215.706 112.22 214.498V109.554C112.224 108.091 112.611 106.655 113.342 105.389C114.073 104.122 115.123 103.068 116.386 102.332Z" fill="url(#paint27_radial)"/>
</g>
<path d="M242.277 148.943L117.943 220.72V126.387L242.277 54.5537V148.943Z" fill="white"/>
<g style="mix-blend-mode:multiply">
<path d="M242.274 152.112L120.107 222.612V134.334L242.274 63.8337V152.112Z" fill="#E6CFC8"/>
</g>
<path d="M241.277 155.944L126.222 222.611C125.02 223.267 123.674 223.611 122.305 223.611C120.936 223.611 119.589 223.267 118.388 222.611L117.666 222.166L118.444 222.5C118.877 222.673 119.346 222.738 119.81 222.687C120.273 222.636 120.717 222.471 121.102 222.207C121.487 221.943 121.8 221.588 122.015 221.174C122.23 220.76 122.339 220.299 122.333 219.833V140.666C122.343 139.205 122.732 137.771 123.462 136.505C124.193 135.239 125.239 134.184 126.499 133.444L242.11 66.7773C242.576 66.5151 243.102 66.3795 243.636 66.3839C244.17 66.3883 244.693 66.5325 245.154 66.8023C245.615 67.0721 245.997 67.458 246.262 67.9215C246.528 68.385 246.667 68.9099 246.666 69.444V146.666C246.624 148.542 246.108 150.376 245.166 151.999C244.223 153.621 242.886 154.978 241.277 155.944Z" fill="url(#paint28_linear)"/>
<path style="mix-blend-mode:color-dodge" d="M118.442 222.39C118.875 222.564 119.344 222.628 119.807 222.577C120.271 222.526 120.715 222.361 121.1 222.097C121.485 221.833 121.798 221.479 122.013 221.064C122.228 220.65 122.337 220.19 122.331 219.723V140.667C122.341 139.206 122.73 137.772 123.46 136.506C124.191 135.24 125.237 134.186 126.497 133.445L242.108 66.7785C242.714 66.4199 243.428 66.2899 244.121 66.4122C244.814 66.5345 245.44 66.901 245.886 67.4452C245.476 67.2264 245.018 67.1119 244.553 67.1119C244.088 67.1119 243.63 67.2264 243.219 67.4452L127.497 134.334C126.23 135.066 125.177 136.119 124.446 137.387C123.714 138.654 123.33 140.093 123.331 141.556V220.556C123.335 221.253 123.083 221.928 122.622 222.451C122.161 222.973 121.523 223.308 120.831 223.39C119.942 223.239 119.081 222.958 118.275 222.556L117.553 222.112L118.442 222.39Z" fill="url(#paint29_radial)"/>
<path style="mix-blend-mode:multiply" d="M185.942 80.999L198.331 88.3323L215.998 77.3323V177.388L142.109 235.721L123.942 224.555V116.777L185.942 80.999Z" fill="url(#paint30_linear)"/>
<path d="M196.886 87.1106V95.7217L254.664 62.3884C255.129 62.1262 255.655 61.9906 256.189 61.995C256.723 61.9994 257.246 62.1436 257.707 62.4134C258.168 62.6832 258.55 63.0691 258.815 63.5326C259.081 63.9961 259.22 64.521 259.219 65.055V171.277L149.052 235.333C147.791 236.081 146.352 236.476 144.886 236.476C143.419 236.476 141.98 236.081 140.719 235.333L138.386 233.833C137.317 233.184 136.433 232.27 135.82 231.18C135.207 230.091 134.885 228.861 134.886 227.611V122.444C134.89 120.981 135.277 119.545 136.008 118.279C136.739 117.012 137.789 115.958 139.052 115.222L192.33 84.3328C192.801 84.0455 193.341 83.8934 193.893 83.8932C194.444 83.8931 194.985 84.0448 195.455 84.3319C195.926 84.6189 196.309 85.0301 196.561 85.5203C196.813 86.0105 196.926 86.5607 196.886 87.1106Z" fill="url(#paint31_linear)"/>
<g style="mix-blend-mode:color-dodge">
<path style="mix-blend-mode:color-dodge" d="M255.883 63.4449L198.161 96.7782V95.0005L254.661 62.3894C255.331 62.0049 256.122 61.8885 256.875 62.0638C257.627 62.239 258.285 62.6928 258.717 63.3338C258.272 63.1173 257.78 63.0141 257.286 63.0335C256.792 63.0528 256.31 63.1942 255.883 63.4449Z" fill="url(#paint32_radial)"/>
<path style="mix-blend-mode:color-dodge" d="M139.052 115.222L192.33 84.3328C192.982 83.9325 193.764 83.8014 194.51 83.9673C195.257 84.1332 195.909 84.5831 196.33 85.2217C195.9 85.0023 195.424 84.8878 194.941 84.8878C194.458 84.8878 193.982 85.0023 193.552 85.2217L140.33 115.999C139.059 116.727 138.003 117.779 137.271 119.048C136.539 120.317 136.157 121.757 136.163 123.222V228.777C136.169 230.654 136.883 232.46 138.163 233.833C137.159 233.16 136.335 232.251 135.763 231.186C135.192 230.12 134.89 228.931 134.886 227.722V122.444C134.89 120.981 135.277 119.545 136.008 118.279C136.739 117.012 137.789 115.958 139.052 115.222Z" fill="url(#paint33_radial)"/>
</g>
<path d="M264.888 161.833L140.555 233.611V139.222L264.888 67.4446V161.833Z" fill="white"/>
<g style="mix-blend-mode:multiply">
<path d="M264.885 164.944L142.773 235.5V147.222L264.885 76.7219V164.944Z" fill="#E6CFC8"/>
</g>
<path d="M263.943 168.779L148.832 235.445C147.641 236.102 146.303 236.446 144.943 236.446C143.583 236.446 142.245 236.102 141.054 235.445L140.332 235.001L141.11 235.334C141.547 235.496 142.018 235.549 142.48 235.489C142.943 235.429 143.384 235.258 143.767 234.991C144.149 234.723 144.46 234.367 144.675 233.953C144.89 233.539 145.001 233.079 144.999 232.612V153.557C144.998 152.093 145.382 150.655 146.114 149.387C146.845 148.119 147.898 147.066 149.165 146.334L264.721 79.6677C265.188 79.3916 265.719 79.2447 266.262 79.242C266.804 79.2393 267.337 79.3809 267.806 79.6524C268.276 79.9239 268.665 80.3154 268.933 80.7867C269.201 81.258 269.339 81.7921 269.332 82.3343V159.501C269.334 161.386 268.836 163.237 267.889 164.867C266.942 166.496 265.581 167.846 263.943 168.779Z" fill="url(#paint34_linear)"/>
<path style="mix-blend-mode:color-dodge" d="M141.11 235.278C141.547 235.439 142.018 235.492 142.48 235.433C142.943 235.373 143.384 235.202 143.767 234.934C144.149 234.667 144.46 234.311 144.675 233.896C144.89 233.482 145.001 233.022 144.999 232.556V153.556C144.998 152.092 145.382 150.654 146.114 149.386C146.845 148.118 147.898 147.065 149.165 146.333L264.721 79.6668C265.335 79.3042 266.058 79.1722 266.76 79.2944C267.463 79.4165 268.099 79.7849 268.554 80.3334C268.134 80.1143 267.667 79.9999 267.193 79.9999C266.719 79.9999 266.252 80.1143 265.832 80.3334L150.276 147C149.009 147.732 147.956 148.785 147.225 150.053C146.493 151.32 146.109 152.759 146.11 154.222V233.278C146.103 233.972 145.846 234.64 145.387 235.16C144.928 235.68 144.297 236.018 143.61 236.111C142.726 235.943 141.867 235.663 141.054 235.278L140.332 234.833L141.11 235.278Z" fill="url(#paint35_radial)"/>
<path style="mix-blend-mode:multiply" d="M208.887 94.1088L221.276 101.442L238.942 90.4421V190.498L165.053 248.831L146.887 237.664V129.887L208.887 94.1088Z" fill="url(#paint36_linear)"/>
<path d="M219.831 100.22V108.832L277.609 75.4983C278.074 75.2361 278.6 75.1004 279.134 75.1048C279.668 75.1092 280.192 75.2535 280.652 75.5233C281.113 75.7931 281.495 76.179 281.761 76.6425C282.026 77.106 282.165 77.6309 282.164 78.1649V184.332L171.942 248.443C170.681 249.191 169.242 249.586 167.775 249.586C166.309 249.586 164.87 249.191 163.609 248.443L161.275 246.998C160.21 246.332 159.33 245.407 158.718 244.31C158.106 243.212 157.781 241.977 157.775 240.72V135.554C157.78 134.091 158.167 132.655 158.898 131.388C159.629 130.121 160.678 129.068 161.942 128.332L215.22 97.6094C215.679 97.3167 216.209 97.1545 216.754 97.1404C217.298 97.1262 217.836 97.2605 218.31 97.5288C218.784 97.7972 219.176 98.1895 219.444 98.6637C219.712 99.1379 219.846 99.676 219.831 100.22Z" fill="url(#paint37_linear)"/>
<g style="mix-blend-mode:color-dodge">
<path style="mix-blend-mode:color-dodge" d="M278.882 76.553L221.104 109.886V108.109L277.493 75.4975C278.167 75.1259 278.954 75.0168 279.702 75.1912C280.451 75.3656 281.109 75.8112 281.549 76.4419C281.128 76.2447 280.666 76.1517 280.202 76.1711C279.738 76.1904 279.285 76.3214 278.882 76.553Z" fill="url(#paint38_radial)"/>
<path style="mix-blend-mode:color-dodge" d="M161.996 128.332L215.274 97.6095C215.937 97.2196 216.724 97.0945 217.475 97.2593C218.227 97.4241 218.889 97.8666 219.329 98.4984C218.888 98.2825 218.404 98.1702 217.912 98.1702C217.421 98.1702 216.937 98.2825 216.496 98.4984L163.274 129.221C162.01 129.957 160.96 131.011 160.229 132.277C159.499 133.544 159.112 134.98 159.107 136.443V241.498C159.101 243.378 159.817 245.187 161.107 246.554C160.109 245.874 159.29 244.964 158.719 243.9C158.149 242.836 157.843 241.65 157.829 240.443V135.554C157.834 134.091 158.221 132.655 158.952 131.389C159.682 130.122 160.732 129.068 161.996 128.332Z" fill="url(#paint39_radial)"/>
</g>
<path d="M287.888 174.943L163.499 246.721V152.388L287.888 80.5544V174.943Z" fill="white"/>
<g style="mix-blend-mode:multiply">
<path d="M287.884 178.11L165.718 248.61V160.332L287.884 89.8318V178.11Z" fill="#E6CFC8"/>
</g>
<path d="M286.887 181.886L171.832 248.553C170.626 249.195 169.281 249.531 167.915 249.531C166.549 249.531 165.204 249.195 163.999 248.553L163.276 248.109L164.054 248.442C164.492 248.604 164.962 248.657 165.425 248.597C165.887 248.537 166.329 248.366 166.711 248.098C167.093 247.831 167.405 247.475 167.619 247.061C167.834 246.646 167.945 246.186 167.943 245.72V166.664C167.953 165.203 168.342 163.769 169.073 162.503C169.803 161.237 170.85 160.182 172.11 159.442L287.721 92.7754C288.186 92.5132 288.712 92.3775 289.246 92.3819C289.78 92.3863 290.304 92.5306 290.764 92.8004C291.225 93.0702 291.607 93.4561 291.873 93.9196C292.138 94.3831 292.277 94.908 292.276 95.442V172.609C292.278 174.493 291.78 176.345 290.833 177.974C289.887 179.604 288.525 180.954 286.887 181.886Z" fill="url(#paint40_linear)"/>
<path style="mix-blend-mode:color-dodge" d="M164.054 248.388C164.492 248.549 164.962 248.602 165.425 248.542C165.887 248.483 166.329 248.312 166.711 248.044C167.093 247.777 167.405 247.42 167.619 247.006C167.834 246.592 167.945 246.132 167.943 245.666V166.665C167.953 165.204 168.342 163.77 169.073 162.504C169.803 161.238 170.85 160.184 172.11 159.443L287.721 92.7766C288.326 92.4179 289.04 92.288 289.733 92.4103C290.426 92.5326 291.052 92.899 291.499 93.4433C291.078 93.2242 290.611 93.1098 290.137 93.1098C289.664 93.1098 289.197 93.2242 288.776 93.4433L173.221 160.11C171.953 160.842 170.901 161.895 170.169 163.162C169.438 164.43 169.053 165.868 169.054 167.332V246.388C169.047 247.081 168.791 247.75 168.332 248.27C167.873 248.79 167.242 249.128 166.554 249.221C165.67 249.053 164.811 248.773 163.999 248.388L163.276 247.943L164.054 248.388Z" fill="url(#paint41_radial)"/>
<path d="M190.391 198.443V270.777L9.44629 167.832V95.499L190.391 198.443Z" fill="url(#paint42_linear)"/>
<path d="M197.724 194.167L190.28 198.444L9.44629 95.4999L17.2241 91.0554L197.724 194.167Z" fill="url(#paint43_linear)"/>
<path d="M180.165 167.612V290.001L171.887 285.223V162.89L180.165 167.612Z" fill="url(#paint44_linear)"/>
<path d="M180.111 167.612V290.001L331.334 201.834V79.5566L180.111 167.612Z" fill="url(#paint45_linear)"/>
<path d="M326.444 199V88.0554L185 170.444V281.444L326.444 199Z" fill="url(#paint46_linear)"/>
<path d="M331.331 79.5558L180.109 167.611L171.887 162.889L323.22 74.7224L331.331 79.5558Z" fill="url(#paint47_linear)"/>
<path style="mix-blend-mode:color-dodge" d="M330.108 78.9436V81.3325L180.886 168.221V288.221L178.886 289.388V166.999L330.108 78.9436Z" fill="url(#paint48_radial)"/>
<path d="M316.446 137.833V107.611L194.891 177.389V207.666L316.446 137.833Z" fill="url(#paint49_linear)"/>
<path d="M214.001 186.722L205.778 191.5V182L214.001 177.278V186.722Z" fill="#FFE4A7"/>
<path d="M229.501 177.777L221.278 182.555V173.055L229.501 168.277V177.777Z" fill="#2AF6FF"/>
<path d="M245.001 168.833L236.778 173.611V164.111L245.001 159.333V168.833Z" fill="#2AF6FF"/>
<path d="M260.502 159.89L252.225 164.668V155.168L260.502 150.39V159.89Z" fill="#4B61B8"/>
<path d="M276.002 150.946L267.725 155.724V146.224L276.002 141.446V150.946Z" fill="#4B61B8"/>
<path d="M291.503 142L283.226 146.778V137.278L291.503 132.5V142Z" fill="#4B61B8"/>
<path d="M307.003 133.056L298.726 137.834V128.334L307.003 123.556V133.056Z" fill="#4B61B8"/>
<defs>
<linearGradient id="paint0_linear" x1="-8212.52" y1="9630.17" x2="-8295.88" y2="9628.54" gradientUnits="userSpaceOnUse">
<stop stop-color="#25054D"/>
<stop offset="1" stop-color="#45108A"/>
</linearGradient>
<linearGradient id="paint1_linear" x1="-884952" y1="16085.9" x2="-893647" y2="14685.1" gradientUnits="userSpaceOnUse">
<stop stop-color="#25054D"/>
<stop offset="1" stop-color="#45108A"/>
</linearGradient>
<linearGradient id="paint2_linear" x1="-939938" y1="5538.76" x2="-939815" y2="5939.63" gradientUnits="userSpaceOnUse">
<stop stop-color="#25054D"/>
<stop offset="1" stop-color="#45108A"/>
</linearGradient>
<radialGradient id="paint3_radial" cx="0" cy="0" r="1" gradientUnits="userSpaceOnUse" gradientTransform="translate(-889535 14308.6) rotate(180) scale(1570.8 2186.03)">
<stop stop-color="white"/>
<stop offset="1"/>
</radialGradient>
<linearGradient id="paint4_linear" x1="-1.50335e+06" y1="17901.6" x2="-1.51934e+06" y2="12754.9" gradientUnits="userSpaceOnUse">
<stop stop-color="#25054D"/>
<stop offset="1" stop-color="#45108A"/>
</linearGradient>
<linearGradient id="paint5_linear" x1="-1.5672e+06" y1="2418.75" x2="-1.56422e+06" y2="12387.4" gradientUnits="userSpaceOnUse">
<stop stop-color="#25054D"/>
<stop offset="1" stop-color="#45108A"/>
</linearGradient>
<linearGradient id="paint6_linear" x1="31.5576" y1="31.4985" x2="113.28" y2="148.221" gradientUnits="userSpaceOnUse">
<stop stop-color="white"/>
<stop offset="0.27" stop-color="#F4EEF4"/>
<stop offset="0.79" stop-color="#D8C4D7"/>
<stop offset="1" stop-color="#CCB1CB"/>
</linearGradient>
<linearGradient id="paint7_linear" x1="-921917" y1="15735.7" x2="-922448" y2="10647.2" gradientUnits="userSpaceOnUse">
<stop offset="0.04" stop-color="#FFA98C"/>
<stop offset="0.32" stop-color="#FFB892"/>
<stop offset="0.86" stop-color="#FEE1A3"/>
<stop offset="1" stop-color="#FEECA8"/>
</linearGradient>
<radialGradient id="paint8_radial" cx="0" cy="0" r="1" gradientUnits="userSpaceOnUse" gradientTransform="translate(-426820 2716.96) rotate(180) scale(268.867 154.407)">
<stop stop-color="white"/>
<stop offset="1"/>
</radialGradient>
<radialGradient id="paint9_radial" cx="0" cy="0" r="1" gradientUnits="userSpaceOnUse" gradientTransform="translate(-434204 13105.4) rotate(180) scale(492.17 1196.74)">
<stop stop-color="white"/>
<stop offset="1"/>
</radialGradient>
<linearGradient id="paint10_linear" x1="-957028" y1="20942.2" x2="-959986" y2="11434.5" gradientUnits="userSpaceOnUse">
<stop offset="0.04" stop-color="#FFA98C"/>
<stop offset="0.32" stop-color="#FFB892"/>
<stop offset="0.86" stop-color="#FEE1A3"/>
<stop offset="1" stop-color="#FEECA8"/>
</linearGradient>
<radialGradient id="paint11_radial" cx="0" cy="0" r="1" gradientUnits="userSpaceOnUse" gradientTransform="translate(-950660 14446.8) rotate(180) scale(1652.63 2021.8)">
<stop stop-color="white"/>
<stop offset="1"/>
</radialGradient>
<linearGradient id="paint12_linear" x1="714696" y1="12840.1" x2="712260" y2="14860.4" gradientUnits="userSpaceOnUse">
<stop stop-color="white"/>
<stop offset="0.27" stop-color="#F4EEF4"/>
<stop offset="0.79" stop-color="#D8C4D7"/>
<stop offset="1" stop-color="#CCB1CB"/>
</linearGradient>
<linearGradient id="paint13_linear" x1="-921863" y1="16162.6" x2="-922394" y2="11072.9" gradientUnits="userSpaceOnUse">
<stop offset="0.04" stop-color="#FFA98C"/>
<stop offset="0.32" stop-color="#FFB892"/>
<stop offset="0.86" stop-color="#FEE1A3"/>
<stop offset="1" stop-color="#FEECA8"/>
</linearGradient>
<radialGradient id="paint14_radial" cx="0" cy="0" r="1" gradientUnits="userSpaceOnUse" gradientTransform="translate(-426596 2808.87) rotate(180) scale(268.867 154.239)">
<stop stop-color="white"/>
<stop offset="1"/>
</radialGradient>
<radialGradient id="paint15_radial" cx="0" cy="0" r="1" gradientUnits="userSpaceOnUse" gradientTransform="translate(-435269 13474.5) rotate(180) scale(493.505 1197.04)">
<stop stop-color="white"/>
<stop offset="1"/>
</radialGradient>
<linearGradient id="paint16_linear" x1="-956094" y1="21325.7" x2="-959054" y2="11819.9" gradientUnits="userSpaceOnUse">
<stop offset="0.04" stop-color="#FFA98C"/>
<stop offset="0.32" stop-color="#FFB892"/>
<stop offset="0.86" stop-color="#FEE1A3"/>
<stop offset="1" stop-color="#FEECA8"/>
</linearGradient>
<radialGradient id="paint17_radial" cx="0" cy="0" r="1" gradientUnits="userSpaceOnUse" gradientTransform="translate(-951021 14835.1) rotate(180) scale(1654.07 2022.75)">
<stop stop-color="white"/>
<stop offset="1"/>
</radialGradient>
<linearGradient id="paint18_linear" x1="714339" y1="13226.9" x2="711903" y2="15247.2" gradientUnits="userSpaceOnUse">
<stop stop-color="white"/>
<stop offset="0.27" stop-color="#F4EEF4"/>
<stop offset="0.79" stop-color="#D8C4D7"/>
<stop offset="1" stop-color="#CCB1CB"/>
</linearGradient>
<linearGradient id="paint19_linear" x1="-920944" y1="16587.4" x2="-921475" y2="11497.8" gradientUnits="userSpaceOnUse">
<stop offset="0.04" stop-color="#FFA98C"/>
<stop offset="0.32" stop-color="#FFB892"/>
<stop offset="0.86" stop-color="#FEE1A3"/>
<stop offset="1" stop-color="#FEECA8"/>
</linearGradient>
<radialGradient id="paint20_radial" cx="0" cy="0" r="1" gradientUnits="userSpaceOnUse" gradientTransform="translate(-426369 2908.5) rotate(180) scale(268.867 154.486)">
<stop stop-color="white"/>
<stop offset="1"/>
</radialGradient>
<radialGradient id="paint21_radial" cx="0" cy="0" r="1" gradientUnits="userSpaceOnUse" gradientTransform="translate(-433745 13840.4) rotate(180) scale(492.17 1197.04)">
<stop stop-color="white"/>
<stop offset="1"/>
</radialGradient>
<linearGradient id="paint22_linear" x1="-955585" y1="21709.7" x2="-958544" y2="12204" gradientUnits="userSpaceOnUse">
<stop offset="0.04" stop-color="#FFA98C"/>
<stop offset="0.32" stop-color="#FFB892"/>
<stop offset="0.86" stop-color="#FEE1A3"/>
<stop offset="1" stop-color="#FEECA8"/>
</linearGradient>
<radialGradient id="paint23_radial" cx="0" cy="0" r="1" gradientUnits="userSpaceOnUse" gradientTransform="translate(-950945 15217.4) rotate(180) scale(1654.78 2022.63)">
<stop stop-color="white"/>
<stop offset="1"/>
</radialGradient>
<linearGradient id="paint24_linear" x1="714417" y1="13600.3" x2="711980" y2="15623.4" gradientUnits="userSpaceOnUse">
<stop stop-color="white"/>
<stop offset="0.27" stop-color="#F4EEF4"/>
<stop offset="0.79" stop-color="#D8C4D7"/>
<stop offset="1" stop-color="#CCB1CB"/>
</linearGradient>
<linearGradient id="paint25_linear" x1="-920886" y1="16990.5" x2="-921416" y2="11902" gradientUnits="userSpaceOnUse">
<stop offset="0.04" stop-color="#FFA98C"/>
<stop offset="0.32" stop-color="#FFB892"/>
<stop offset="0.86" stop-color="#FEE1A3"/>
<stop offset="1" stop-color="#FEECA8"/>
</linearGradient>
<radialGradient id="paint26_radial" cx="0" cy="0" r="1" gradientUnits="userSpaceOnUse" gradientTransform="translate(-426145 2997.79) rotate(180) scale(268.867 154.407)">
<stop stop-color="white"/>
<stop offset="1"/>
</radialGradient>
<radialGradient id="paint27_radial" cx="0" cy="0" r="1" gradientUnits="userSpaceOnUse" gradientTransform="translate(-433947 14187.3) rotate(180) scale(492.615 1196.89)">
<stop stop-color="white"/>
<stop offset="1"/>
</radialGradient>
<linearGradient id="paint28_linear" x1="-955081" y1="22082.9" x2="-958041" y2="12573.6" gradientUnits="userSpaceOnUse">
<stop offset="0.04" stop-color="#FFA98C"/>
<stop offset="0.32" stop-color="#FFB892"/>
<stop offset="0.86" stop-color="#FEE1A3"/>
<stop offset="1" stop-color="#FEECA8"/>
</linearGradient>
<radialGradient id="paint29_radial" cx="0" cy="0" r="1" gradientUnits="userSpaceOnUse" gradientTransform="translate(-950874 15605.3) rotate(180) scale(1655.5 2025.59)">
<stop stop-color="white"/>
<stop offset="1"/>
</radialGradient>
<linearGradient id="paint30_linear" x1="714065" y1="13980.7" x2="711628" y2="16002.4" gradientUnits="userSpaceOnUse">
<stop stop-color="white"/>
<stop offset="0.27" stop-color="#F4EEF4"/>
<stop offset="0.79" stop-color="#D8C4D7"/>
<stop offset="1" stop-color="#CCB1CB"/>
</linearGradient>
<linearGradient id="paint31_linear" x1="-919972" y1="17407.1" x2="-920503" y2="12320.2" gradientUnits="userSpaceOnUse">
<stop offset="0.04" stop-color="#FFA98C"/>
<stop offset="0.32" stop-color="#FFB892"/>
<stop offset="0.86" stop-color="#FEE1A3"/>
<stop offset="1" stop-color="#FEECA8"/>
</linearGradient>
<radialGradient id="paint32_radial" cx="0" cy="0" r="1" gradientUnits="userSpaceOnUse" gradientTransform="translate(-425920 3092.9) rotate(180) scale(268.867 154.486)">
<stop stop-color="white"/>
<stop offset="1"/>
</radialGradient>
<radialGradient id="paint33_radial" cx="0" cy="0" r="1" gradientUnits="userSpaceOnUse" gradientTransform="translate(-433289 14596.2) rotate(180) scale(492.17 1200.98)">
<stop stop-color="white"/>
<stop offset="1"/>
</radialGradient>
<linearGradient id="paint34_linear" x1="-954579" y1="22457.3" x2="-957539" y2="12949.1" gradientUnits="userSpaceOnUse">
<stop offset="0.04" stop-color="#FFA98C"/>
<stop offset="0.32" stop-color="#FFB892"/>
<stop offset="0.86" stop-color="#FEE1A3"/>
<stop offset="1" stop-color="#FEECA8"/>
</linearGradient>
<radialGradient id="paint35_radial" cx="0" cy="0" r="1" gradientUnits="userSpaceOnUse" gradientTransform="translate(-949514 15966.2) rotate(180) scale(1654.07 2023.51)">
<stop stop-color="white"/>
<stop offset="1"/>
</radialGradient>
<linearGradient id="paint36_linear" x1="713707" y1="14367.6" x2="711271" y2="16389.3" gradientUnits="userSpaceOnUse">
<stop stop-color="white"/>
<stop offset="0.27" stop-color="#F4EEF4"/>
<stop offset="0.79" stop-color="#D8C4D7"/>
<stop offset="1" stop-color="#CCB1CB"/>
</linearGradient>
<linearGradient id="paint37_linear" x1="-919911" y1="17833.8" x2="-920442" y2="12745.1" gradientUnits="userSpaceOnUse">
<stop offset="0.04" stop-color="#FFA98C"/>
<stop offset="0.32" stop-color="#FFB892"/>
<stop offset="0.86" stop-color="#FEE1A3"/>
<stop offset="1" stop-color="#FEECA8"/>
</linearGradient>
<radialGradient id="paint38_radial" cx="0" cy="0" r="1" gradientUnits="userSpaceOnUse" gradientTransform="translate(-424834 3186.54) rotate(180) scale(268.373 154.407)">
<stop stop-color="white"/>
<stop offset="1"/>
</radialGradient>
<radialGradient id="paint39_radial" cx="0" cy="0" r="1" gradientUnits="userSpaceOnUse" gradientTransform="translate(-433488 14906.8) rotate(180) scale(492.615 1196.42)">
<stop stop-color="white"/>
<stop offset="1"/>
</radialGradient>
<linearGradient id="paint40_linear" x1="-954067" y1="22833.4" x2="-957026" y2="13328" gradientUnits="userSpaceOnUse">
<stop offset="0.04" stop-color="#FFA98C"/>
<stop offset="0.32" stop-color="#FFB892"/>
<stop offset="0.86" stop-color="#FEE1A3"/>
<stop offset="1" stop-color="#FEECA8"/>
</linearGradient>
<radialGradient id="paint41_radial" cx="0" cy="0" r="1" gradientUnits="userSpaceOnUse" gradientTransform="translate(-949007 16348.9) rotate(180) scale(1654.07 2023.44)">
<stop stop-color="white"/>
<stop offset="1"/>
</radialGradient>
<linearGradient id="paint42_linear" x1="-1.35813e+06" y1="19558.3" x2="-1.37247e+06" y2="15125.4" gradientUnits="userSpaceOnUse">
<stop stop-color="#25054D"/>
<stop offset="1" stop-color="#45108A"/>
</linearGradient>
<linearGradient id="paint43_linear" x1="-1.42409e+06" y1="4178.27" x2="-1.42163e+06" y2="12404" gradientUnits="userSpaceOnUse">
<stop stop-color="#25054D"/>
<stop offset="1" stop-color="#45108A"/>
</linearGradient>
<linearGradient id="paint44_linear" x1="-21517.5" y1="14642.1" x2="-21650" y2="14639.5" gradientUnits="userSpaceOnUse">
<stop stop-color="#25054D"/>
<stop offset="1" stop-color="#45108A"/>
</linearGradient>
<linearGradient id="paint45_linear" x1="-1.12e+06" y1="24461.7" x2="-1.13381e+06" y2="22236.8" gradientUnits="userSpaceOnUse">
<stop stop-color="#25054D"/>
<stop offset="1" stop-color="#45108A"/>
</linearGradient>
<linearGradient id="paint46_linear" x1="451.944" y1="228.778" x2="152.722" y2="161.667" gradientUnits="userSpaceOnUse">
<stop stop-color="#300962"/>
<stop offset="0.53" stop-color="#45108A"/>
<stop offset="1" stop-color="#6217AB"/>
</linearGradient>
<linearGradient id="paint47_linear" x1="-1.19074e+06" y1="8358.57" x2="-1.19054e+06" y2="8994.52" gradientUnits="userSpaceOnUse">
<stop stop-color="#25054D"/>
<stop offset="1" stop-color="#45108A"/>
</linearGradient>
<radialGradient id="paint48_radial" cx="0" cy="0" r="1" gradientUnits="userSpaceOnUse" gradientTransform="translate(-1.12728e+06 21639) rotate(180) scale(2493.65 3470.23)">
<stop stop-color="white"/>
<stop offset="1"/>
</radialGradient>
<linearGradient id="paint49_linear" x1="-895633" y1="10182.2" x2="-905595" y2="10636.7" gradientUnits="userSpaceOnUse">
<stop stop-color="#25054D"/>
<stop offset="1" stop-color="#45108A"/>
</linearGradient>
</defs>
</svg>
