<svg width="361" height="287" viewBox="0 0 361 287" fill="none" xmlns="http://www.w3.org/2000/svg">
<path d="M358.229 86.124H350.523V149.071C350.523 150.303 352.247 151.288 354.358 151.288C356.469 151.288 358.158 150.303 358.158 149.071L358.229 86.124Z" fill="url(#paint0_linear)"/>
<path d="M310.094 113.815H302.459V176.797C302.459 178.029 304.183 179.014 306.259 179.014C308.335 179.014 310.094 178.029 310.094 176.797V113.815Z" fill="url(#paint1_linear)"/>
<path style="mix-blend-mode:multiply" d="M358.229 84.2949H350.523V97.4192C350.523 98.6507 352.247 99.6359 354.358 99.6359C356.469 99.6359 358.158 98.6507 358.158 97.4192L358.229 84.2949Z" fill="url(#paint2_linear)"/>
<path style="mix-blend-mode:multiply" d="M310.094 62.1631H302.459V125.11C302.459 126.342 304.183 127.327 306.259 127.327C308.335 127.327 310.094 126.342 310.094 125.11V62.1631Z" fill="url(#paint3_linear)"/>
<path d="M202.737 51.9238H195.102V114.871C195.102 116.102 196.826 117.088 198.902 117.088C200.978 117.088 202.737 116.138 202.737 114.906V51.9238Z" fill="url(#paint4_linear)"/>
<path d="M360.159 88.4816V84.2242L356.993 83.4853L252.597 23.4586C251.04 22.5993 249.304 22.1138 247.527 22.0405C245.75 21.9672 243.98 22.3082 242.358 23.0364L195.139 50.6219L193.239 50.1645V54.9146C193.361 55.6119 193.653 56.2685 194.089 56.8267C194.525 57.385 195.09 57.8278 195.737 58.1164L300.836 118.565C302.387 119.424 304.117 119.91 305.888 119.983C307.66 120.056 309.424 119.715 311.04 118.988L358.435 91.3317C358.976 91.085 359.429 90.6811 359.737 90.1727C360.045 89.6643 360.192 89.0749 360.159 88.4816Z" fill="url(#paint5_linear)"/>
<path d="M311.041 114.273L358.436 86.6168C361.04 85.1038 360.723 82.4649 357.697 80.7056L252.598 20.2919C251.043 19.4246 249.307 18.9346 247.529 18.8612C245.75 18.7879 243.979 19.1333 242.359 19.8696L194.999 47.5255C192.395 49.0385 192.712 51.6774 195.738 53.4015L300.837 113.85C302.385 114.717 304.116 115.207 305.889 115.281C307.662 115.354 309.427 115.009 311.041 114.273Z" fill="url(#paint6_linear)"/>
<path style="mix-blend-mode:color-dodge" d="M195.703 52.944L300.802 113.393C302.35 114.26 304.081 114.75 305.854 114.823C307.626 114.897 309.392 114.551 311.006 113.815L358.401 86.1593C358.86 85.9385 359.258 85.6078 359.559 85.1966C359.859 84.7854 360.054 84.3063 360.125 83.8018C360.15 84.3893 360 84.9709 359.693 85.4724C359.386 85.9738 358.936 86.3722 358.401 86.6167L311.006 114.273C309.392 115.009 307.626 115.354 305.854 115.281C304.081 115.207 302.35 114.717 300.802 113.85L195.703 53.2959C194.994 53.0085 194.383 52.5246 193.94 51.9012C193.498 51.2778 193.242 50.5409 193.205 49.7773C193.344 50.4641 193.642 51.1085 194.076 51.6586C194.51 52.2087 195.067 52.649 195.703 52.944Z" fill="url(#paint7_radial)"/>
<path style="mix-blend-mode:color-dodge" d="M311.078 117.017C311.078 120.535 309.178 123.667 306.785 123.667C304.393 123.667 302.528 120.676 302.528 116.982C302.528 113.287 304.463 110.332 306.82 110.332C309.178 110.332 311.113 113.322 311.078 117.017Z" fill="url(#paint8_radial)"/>
<path d="M352.908 63.4297V82.0781L355.969 80.3188V61.6704L352.908 63.4297Z" fill="url(#paint9_linear)"/>
<path d="M352.945 63.4295V82.0778L246.685 20.9252V2.27686L352.945 63.4295Z" fill="url(#paint10_linear)"/>
<path d="M246.684 2.27686L352.945 63.4295L355.971 61.6702L249.71 0.517578L246.684 2.27686Z" fill="url(#paint11_linear)"/>
<path style="mix-blend-mode:color-dodge" d="M352.345 63.1836V81.6209L352.943 82.0783V63.5706L352.345 63.1836Z" fill="url(#paint12_radial)"/>
<path d="M296.583 89.0094L303.69 84.8223L313.436 98.791L296.583 89.0094Z" fill="url(#paint13_linear)"/>
<path d="M321.846 70.3961L338.313 79.9314C338.622 80.1181 338.879 80.3812 339.057 80.6954C339.236 81.0096 339.331 81.3644 339.333 81.7259V83.3444C339.327 83.4966 339.282 83.6448 339.202 83.7743C339.122 83.9038 339.009 84.0103 338.876 84.0833L314.07 99.0372L313.648 95.0964L296.583 85.2092L321.212 70.3961C321.416 70.3139 321.643 70.3139 321.846 70.3961Z" fill="url(#paint14_linear)"/>
<path d="M313.649 95.0965L296.583 85.2094L321.213 70.3962C321.338 70.3285 321.477 70.293 321.618 70.293C321.759 70.293 321.899 70.3285 322.023 70.3962L338.49 79.9315L313.649 95.0965Z" fill="url(#paint15_linear)"/>
<path d="M314.28 96.6798V98.2279C314.279 98.3637 314.243 98.4969 314.175 98.6143C314.107 98.7318 314.009 98.8292 313.892 98.8969C313.774 98.9647 313.641 99.0003 313.505 99.0002C313.369 99.0001 313.236 98.9643 313.118 98.8965L296.933 89.5371V85.4556L313.294 94.9557C313.602 95.1243 313.856 95.3745 314.03 95.6788C314.204 95.9831 314.29 96.3295 314.28 96.6798Z" fill="url(#paint16_linear)"/>
<g style="mix-blend-mode:multiply">
<path d="M313.822 98.6854V97.102C313.819 96.7591 313.727 96.4229 313.554 96.1267C313.381 95.8305 313.134 95.5845 312.837 95.4131L296.933 86.1945V85.4556L313.294 94.9557C313.602 95.1243 313.856 95.3745 314.03 95.6788C314.204 95.9831 314.29 96.3295 314.28 96.6798V98.2279C314.281 98.391 314.23 98.5502 314.135 98.6829C314.041 98.8156 313.906 98.915 313.752 98.9668C313.796 98.8793 313.82 98.7832 313.822 98.6854Z" fill="#D1D3D4"/>
</g>
<path d="M313.436 98.7912H313.683C313.813 98.7912 313.939 98.7393 314.031 98.6469C314.123 98.5545 314.175 98.4292 314.175 98.2986V96.68C314.178 96.3767 314.098 96.0784 313.943 95.8178C313.788 95.5572 313.564 95.3442 313.296 95.2022L296.583 85.4558V85.1392L313.472 94.9208C313.783 95.0964 314.042 95.3521 314.221 95.6615C314.401 95.9708 314.494 96.3225 314.492 96.68V98.2986C314.491 98.4383 314.453 98.5754 314.384 98.6964C314.314 98.8174 314.214 98.9183 314.093 98.9891C313.973 99.06 313.836 99.0984 313.696 99.1008C313.556 99.1031 313.418 99.0691 313.296 99.0023L296.583 89.3263V88.9392L313.436 98.7912Z" fill="url(#paint17_linear)"/>
<path opacity="0.2" d="M266.565 89.4672L232.4 69.6929C230.922 68.8132 230.887 68.3558 232.611 67.3706L256.396 53.7186C258.085 52.7334 258.508 52.8038 259.915 53.7186L293.939 73.3874C295.417 74.2318 295.241 75.0411 293.517 76.0615L270.365 89.3968C269.835 89.841 269.169 90.0902 268.477 90.1031C267.786 90.1159 267.111 89.8915 266.565 89.4672Z" fill="black"/>
<path d="M266.602 89.1503L252 79.8613H251.226C250.856 79.9029 250.483 79.8159 250.17 79.615L249.185 79.052C248.954 78.915 248.752 78.736 248.587 78.5242L247.813 77.3631L232.683 69.5167C231.979 69.0945 231.592 68.7778 231.592 68.4611V68.0037C231.592 67.687 232.085 67.7222 232.894 67.2296L256.433 53.6832C256.921 53.2575 257.546 53.0229 258.193 53.0229C258.84 53.0229 259.465 53.2575 259.952 53.6832L293.66 73.176C294.293 73.563 294.645 73.4575 294.645 73.8445V74.4075C294.645 74.8649 294.152 75.3575 293.237 75.8501L270.296 89.1151C269.774 89.5339 269.125 89.765 268.455 89.7714C267.785 89.7777 267.133 89.559 266.602 89.1503Z" fill="url(#paint18_linear)"/>
<path d="M266.6 88.7282L251.998 79.4392H251.224C250.856 79.4634 250.488 79.3777 250.169 79.1929L249.184 78.6299C248.952 78.4799 248.749 78.2891 248.585 78.0669L247.811 76.941L232.682 69.0946C231.204 68.2149 231.169 67.7927 232.893 66.8075L256.502 53.2962C258.191 52.3111 258.613 52.3814 260.021 53.2962L293.729 72.7891C295.206 73.6335 295.03 74.4428 293.306 75.428L270.365 88.693C269.834 89.1233 269.173 89.361 268.489 89.3674C267.805 89.3738 267.14 89.1485 266.6 88.7282Z" fill="url(#paint19_linear)"/>
<path style="mix-blend-mode:multiply" d="M251.998 79.0171H251.083C250.863 79.0694 250.634 79.0694 250.415 79.0171L249.394 78.4189C249.214 78.3406 249.066 78.2044 248.972 78.0319L248.092 76.8004L274.024 62.0928L278.035 64.3798L251.998 79.0171Z" fill="url(#paint20_radial)"/>
<path opacity="0.2" d="M250.31 77.7851L232.225 68.1443V67.898L258.086 53.2256L276.171 62.8664L250.31 77.7851Z" fill="black"/>
<path d="M250.31 77.7853L232.225 67.8982V67.6871L258.086 52.9795L276.171 62.8666L250.31 77.7853Z" fill="#F1F2F2"/>
<path d="M250.31 77.7855L247.178 75.9207L232.225 67.6873V67.3002L258.086 52.7686L276.171 62.8668L250.31 77.7855Z" fill="#D1D3D4"/>
<path d="M250.31 77.926L249.782 77.539C247.843 76.1421 245.822 74.8614 243.73 73.7038L232.225 67.3704L258.086 52.4517L276.171 63.0073L250.31 77.926Z" fill="#F1F2F2"/>
<path d="M250.307 77.9263C248.557 76.1999 246.608 74.688 244.501 73.4225L232.644 67.1243L258.505 52.2056L276.098 63.0076L250.307 77.9263Z" fill="#D1D3D4"/>
<path opacity="0.2" d="M268.397 89.0448L250.312 77.7854L276.173 62.8667L294.259 73.7742V74.1261L268.397 89.0448Z" fill="black"/>
<path d="M268.397 88.7985L250.312 77.7854L276.173 62.8667L294.259 73.5631V73.915L268.397 88.7985Z" fill="#F1F2F2"/>
<path d="M268.397 88.4818L250.312 77.7854L276.173 62.8667L294.259 73.352V73.5631L268.397 88.4818Z" fill="#D1D3D4"/>
<path d="M268.397 88.2355L250.312 77.7854L276.173 62.8667L294.259 73.1057V73.3168L268.397 88.2355Z" fill="#F1F2F2"/>
<path d="M268.397 87.9892L250.312 77.7854L276.173 62.8667L294.224 72.6835L294.259 73.1057L268.397 87.9892Z" fill="#D1D3D4"/>
<path d="M268.397 87.6022L250.312 77.7854L276.173 62.8667L294.259 72.3668V72.6835H294.224L268.397 87.6022Z" fill="#F1F2F2"/>
<path d="M268.397 87.2855L250.312 77.7854L276.173 62.8667L294.259 72.3668L268.397 87.2855Z" fill="#D1D3D4"/>
<path d="M268.397 86.7929L250.312 77.7854L276.173 62.8667L294.259 71.9094L268.397 86.7929Z" fill="#F1F2F2"/>
<path d="M268.046 86.3002L264.949 84.5761C260.378 81.7356 255.458 79.5003 250.312 77.926L276.173 63.0073C281.13 64.5516 285.861 66.7401 290.248 69.5167L293.766 71.5222L268.046 86.3002Z" fill="#D1D3D4"/>
<path d="M267.94 85.7726L261.255 80.741C258.6 78.6395 255.278 77.5652 251.895 77.7151H250.312L276.173 62.7964C278.029 62.5334 279.919 62.6439 281.732 63.1212C283.544 63.5985 285.243 64.4331 286.729 65.576L293.766 70.8187L267.94 85.7726Z" fill="url(#paint21_linear)"/>
<g style="mix-blend-mode:multiply">
<path d="M289.538 71.1L284.225 67.3703C281.916 65.6064 279.107 64.6208 276.203 64.5554C275.758 64.5204 275.311 64.5204 274.866 64.5554L275.394 64.2388H276.836C279.656 64.2565 282.395 65.1818 284.647 66.8777L290.171 70.8888L289.538 71.1Z" fill="#A7A9AC"/>
</g>
<g style="mix-blend-mode:multiply">
<path d="M288.027 71.9795L282.679 68.0739C280.365 66.3247 277.557 65.3518 274.656 65.2942C274.211 65.26 273.764 65.26 273.319 65.2942L273.847 64.9775H275.29C278.113 64.9748 280.858 65.9022 283.101 67.6165L288.66 71.6628L288.027 71.9795Z" fill="#A7A9AC"/>
</g>
<g style="mix-blend-mode:multiply">
<path d="M286.48 72.8589L281.167 68.9533C278.847 67.2104 276.045 66.2273 273.144 66.1384H271.807L272.335 65.8569H273.778C276.59 65.854 279.324 66.7819 281.554 68.4959L287.183 72.5422L286.48 72.8589Z" fill="#A7A9AC"/>
</g>
<g style="mix-blend-mode:multiply">
<path d="M284.962 73.7034L279.614 69.833C277.3 68.0776 274.494 67.093 271.591 67.0181H270.254L270.782 66.7366C271.262 66.7024 271.745 66.7024 272.225 66.7366C275.041 66.7417 277.78 67.6548 280.036 69.3404L285.56 73.4219L284.962 73.7034Z" fill="#A7A9AC"/>
</g>
<g style="mix-blend-mode:multiply">
<path d="M283.415 74.5832L278.102 70.8887C275.782 69.1459 272.98 68.1628 270.079 68.0739H268.742L269.27 67.7924C269.738 67.7573 270.209 67.7573 270.677 67.7924C273.495 67.7873 276.238 68.7014 278.489 70.3961L284.048 74.4073L283.415 74.5832Z" fill="#A7A9AC"/>
</g>
<g style="mix-blend-mode:multiply">
<path d="M281.902 75.4626L276.624 71.5922C274.319 69.8218 271.508 68.8354 268.602 68.7774H267.265L267.792 68.4959C268.273 68.461 268.755 68.461 269.235 68.4959C272.055 68.5136 274.794 69.4389 277.046 71.1348L282.57 75.1812L281.902 75.4626Z" fill="#A7A9AC"/>
</g>
<g style="mix-blend-mode:multiply">
<path d="M280.356 76.3423L275.043 72.4719C272.735 70.708 269.926 69.7224 267.021 69.657H265.684L266.212 69.3403H267.619C270.44 69.353 273.18 70.2788 275.431 71.9793L280.99 76.0256L280.356 76.3423Z" fill="#A7A9AC"/>
</g>
<g style="mix-blend-mode:multiply">
<path d="M278.839 77.2222L273.491 73.3166C271.174 71.5717 268.368 70.5993 265.468 70.5369C265.023 70.5018 264.576 70.5018 264.131 70.5369L264.659 70.2202H266.102C268.924 70.2227 271.668 71.1496 273.913 72.8591L279.437 76.9055L278.839 77.2222Z" fill="#A7A9AC"/>
</g>
<g style="mix-blend-mode:multiply">
<path d="M277.292 78.1016L271.979 74.196C269.659 72.4532 266.857 71.47 263.956 71.3811C263.511 71.3449 263.064 71.3449 262.619 71.3811L263.147 71.0645H264.554C267.377 71.0617 270.123 71.9891 272.366 73.7034L277.925 77.9257L277.292 78.1016Z" fill="#A7A9AC"/>
</g>
<g style="mix-blend-mode:multiply">
<path d="M275.746 78.9461L270.433 75.0757C268.113 73.3329 265.311 72.3497 262.41 72.2609H261.073L261.601 71.9794C262.081 71.9444 262.563 71.9444 263.044 71.9794C265.866 71.9818 268.609 72.9087 270.855 74.6183L276.379 78.6646L275.746 78.9461Z" fill="#A7A9AC"/>
</g>
<g style="mix-blend-mode:multiply">
<path d="M274.233 79.8261L268.885 75.9556C266.574 74.196 263.767 73.2109 260.863 73.1408H259.561L260.089 72.8593C260.557 72.8242 261.028 72.8242 261.496 72.8593C264.313 72.8593 267.054 73.7729 269.307 75.463L274.867 79.5446L274.233 79.8261Z" fill="#A7A9AC"/>
</g>
<g style="mix-blend-mode:multiply">
<path d="M272.687 80.7053L267.374 76.8349C265.065 75.071 262.256 74.0854 259.352 74.02H258.015L258.542 73.7385C259.023 73.7024 259.505 73.7024 259.985 73.7385C262.795 73.7512 265.524 74.6775 267.761 76.3775L273.32 80.459L272.687 80.7053Z" fill="#A7A9AC"/>
</g>
<g style="mix-blend-mode:multiply">
<path d="M271.17 81.4448L265.821 77.5744C263.519 75.7995 260.706 74.8126 257.799 74.7595H256.462L256.99 74.478H258.432C261.253 74.4907 263.993 75.4165 266.244 77.1169L271.803 81.4448H271.17Z" fill="#A7A9AC"/>
</g>
<g style="mix-blend-mode:multiply">
<path d="M269.588 82.4648L264.275 78.5592C261.951 76.829 259.149 75.8582 256.253 75.7796C255.808 75.7436 255.36 75.7436 254.916 75.7796L255.443 75.4629H256.886C259.696 75.4756 262.425 76.4018 264.662 78.1018L270.221 82.1482L269.588 82.4648Z" fill="#A7A9AC"/>
</g>
<path d="M259.036 51.6426L261.428 52.3463C267.462 54.0355 272.723 57.7663 276.312 62.902L250.38 77.9262L250.134 77.6096C246.511 72.5815 241.268 68.9536 235.286 67.3354L233.104 66.7372L259.036 51.6426Z" fill="url(#paint22_linear)"/>
<g style="mix-blend-mode:multiply">
<path d="M260.023 54.422L258.228 53.9294L258.721 53.6479L260.585 54.1757C265.844 55.6527 270.5 58.7566 273.886 63.0425L273.428 63.2888C269.986 59.0164 265.301 55.9182 260.023 54.422Z" fill="#A7A9AC"/>
</g>
<g style="mix-blend-mode:multiply">
<path d="M258.476 55.3019L256.716 54.8093L257.209 54.5278L259.039 55.0556C264.292 56.5047 268.949 59.585 272.339 63.852L271.881 64.0983C268.435 59.845 263.749 56.7705 258.476 55.3019Z" fill="#A7A9AC"/>
</g>
<g style="mix-blend-mode:multiply">
<path d="M256.922 56.1813L255.163 55.6887L255.656 55.4072L257.521 55.935C262.779 57.4119 267.435 60.5158 270.821 64.8018L270.328 65.0481C266.898 60.7617 262.209 57.6602 256.922 56.1813Z" fill="#A7A9AC"/>
</g>
<g style="mix-blend-mode:multiply">
<path d="M255.521 57.0612L253.761 56.5686L254.219 56.2871L256.083 56.8149C261.342 58.2918 265.998 61.3957 269.384 65.6817L268.926 65.928C265.49 61.6486 260.803 58.5488 255.521 57.0612Z" fill="#A7A9AC"/>
</g>
<g style="mix-blend-mode:multiply">
<path d="M253.864 57.9406L252.105 57.448L252.598 57.1665L254.462 57.6943C259.721 59.1712 264.377 62.2751 267.763 66.5611L267.27 66.8074C263.834 62.528 259.147 59.4282 253.864 57.9406Z" fill="#A7A9AC"/>
</g>
<g style="mix-blend-mode:multiply">
<path d="M252.353 58.8205L250.593 58.3279L251.051 58.0464L252.916 58.5742C258.114 60.0589 262.716 63.1351 266.075 67.3706L265.618 67.6169C262.208 63.3877 257.575 60.3154 252.353 58.8205Z" fill="#A7A9AC"/>
</g>
<g style="mix-blend-mode:multiply">
<path d="M250.806 59.6999L249.047 59.2073L249.539 58.9258L251.404 59.4536C256.663 60.9305 261.319 64.0344 264.704 68.3203L264.212 68.5666C260.776 64.2873 256.089 61.1875 250.806 59.6999Z" fill="#A7A9AC"/>
</g>
<g style="mix-blend-mode:multiply">
<path d="M249.288 60.5797L247.494 60.0871L247.986 59.8057L249.851 60.3334C255.11 61.8104 259.765 64.9143 263.151 69.2002L262.694 69.4465C259.258 65.1671 254.571 62.0674 249.288 60.5797Z" fill="#A7A9AC"/>
</g>
<g style="mix-blend-mode:multiply">
<path d="M247.741 61.4591L245.982 60.9665L246.475 60.6851L248.304 61.2128C253.57 62.6941 258.236 65.7965 261.64 70.0796L261.147 70.3259C257.711 66.0465 253.024 62.9467 247.741 61.4591Z" fill="#A7A9AC"/>
</g>
<g style="mix-blend-mode:multiply">
<path d="M246.23 62.339L244.436 61.8464L244.928 61.5649L246.793 62.0927C252.036 63.5639 256.687 66.64 260.093 70.8891L259.636 71.1354C256.183 66.8891 251.5 63.8162 246.23 62.339Z" fill="#A7A9AC"/>
</g>
<g style="mix-blend-mode:multiply">
<path d="M244.683 63.2184L242.924 62.7258L243.416 62.4443L245.246 62.9721C250.512 64.4534 255.178 67.5558 258.581 71.8389L258.089 72.0852C254.653 67.8058 249.966 64.706 244.683 63.2184Z" fill="#A7A9AC"/>
</g>
<g style="mix-blend-mode:multiply">
<path d="M243.13 64.0983L241.371 63.6057L241.863 63.3242L243.728 63.852C248.98 65.3421 253.633 68.4435 257.028 72.7188L256.571 72.9651C253.12 68.6849 248.423 65.5858 243.13 64.0983Z" fill="#A7A9AC"/>
</g>
<g style="mix-blend-mode:multiply">
<path d="M241.618 64.9777L239.859 64.4851L240.316 64.2036L242.181 64.7314C247.45 66.2061 252.118 69.3097 255.516 73.5982L255.059 73.8797C251.625 69.5741 246.922 66.4594 241.618 64.9777Z" fill="#A7A9AC"/>
</g>
<g style="mix-blend-mode:multiply">
<path d="M240.072 65.8576L238.312 65.365L238.805 65.0835L240.67 65.6113C245.913 67.0825 250.564 70.1585 253.97 74.4077L253.477 74.6892C250.051 70.4068 245.359 67.316 240.072 65.8576Z" fill="#A7A9AC"/>
</g>
<g style="mix-blend-mode:multiply">
<path d="M266.386 82.1484L268.11 83.3447L267.476 83.6614L265.823 82.5003L266.386 82.1484Z" fill="#A7A9AC"/>
</g>
<g style="mix-blend-mode:multiply">
<path d="M237.921 67.0539L236.162 66.5613L236.655 66.2798L238.52 66.8076L237.921 67.0539Z" fill="#A7A9AC"/>
</g>
<path opacity="0.2" d="M325.891 94.1816L342.745 84.5408C343.554 84.0482 343.554 83.837 342.745 83.2741L319.276 68.9887C318.361 68.4609 318.115 68.4961 317.341 68.9887L300.558 78.5592C299.783 79.0166 299.889 79.474 300.804 80.0018L323.921 94.0761C324.194 94.3031 324.534 94.4359 324.889 94.4549C325.243 94.4739 325.595 94.3781 325.891 94.1816Z" fill="black"/>
<path d="M341.338 84.3295L334.512 80.3535L325.117 93.7592L341.338 84.3295Z" fill="url(#paint23_linear)"/>
<path d="M317.058 66.4553L301.26 75.6387C300.962 75.8185 300.716 76.0712 300.543 76.3729C300.371 76.6746 300.278 77.0154 300.274 77.3628V78.911C300.283 79.058 300.329 79.2003 300.409 79.3237C300.49 79.4472 300.601 79.5475 300.732 79.6147L324.552 94.0056L324.975 90.2056L341.371 80.7055L317.867 66.6312C317.759 66.5349 317.627 66.4681 317.486 66.4372C317.344 66.4064 317.197 66.4126 317.058 66.4553Z" fill="url(#paint24_linear)"/>
<path d="M324.944 90.2059L341.34 80.7058L317.836 66.6315C317.716 66.5698 317.584 66.5376 317.449 66.5376C317.314 66.5376 317.182 66.5698 317.062 66.6315L301.264 75.639L324.944 90.2059Z" fill="url(#paint25_linear)"/>
<path d="M324.306 91.7185V93.2314C324.306 93.3632 324.34 93.4928 324.406 93.6067C324.473 93.7206 324.568 93.8148 324.683 93.8794C324.798 93.944 324.928 93.9767 325.06 93.9741C325.191 93.9716 325.32 93.9338 325.432 93.8648L340.984 84.9628V80.9517L325.256 90.0647C324.964 90.2294 324.721 90.4699 324.554 90.761C324.387 91.052 324.301 91.3828 324.306 91.7185Z" fill="url(#paint26_linear)"/>
<g style="mix-blend-mode:multiply">
<path d="M324.764 93.6538V92.0001C324.766 91.6658 324.854 91.3379 325.021 91.048C325.187 90.7582 325.426 90.5165 325.714 90.3463L340.984 81.5148V80.811L325.256 89.9241C324.964 90.0887 324.721 90.3293 324.554 90.6203C324.387 90.9114 324.301 91.2422 324.306 91.5778V93.0908C324.317 93.2465 324.373 93.3958 324.466 93.5206C324.56 93.6455 324.688 93.7406 324.834 93.7945C324.806 93.7499 324.783 93.7028 324.764 93.6538Z" fill="#D1D3D4"/>
</g>
<path d="M325.12 93.7595H324.909C324.778 93.7595 324.653 93.7076 324.561 93.6152C324.468 93.5228 324.417 93.3975 324.417 93.2669V91.7187C324.415 91.4294 324.493 91.1452 324.642 90.897C324.791 90.6489 325.005 90.4463 325.261 90.3113L341.341 80.9519V80.6353L325.12 90.0298C324.818 90.1956 324.567 90.4403 324.394 90.7378C324.22 91.0353 324.131 91.3744 324.135 91.7187V93.2669C324.129 93.4056 324.16 93.5433 324.226 93.6657C324.291 93.7881 324.388 93.8907 324.507 93.9626C324.626 94.0346 324.762 94.0733 324.901 94.0747C325.039 94.0761 325.176 94.0401 325.296 93.9706L341.341 84.6464V84.2946L325.12 93.7595Z" fill="url(#paint27_linear)"/>
<path d="M197.886 113.111C203.375 114.448 214.423 113.111 220.158 112.513C225.097 111.71 229.896 110.206 234.408 108.045C234.408 108.045 235.781 132.147 236.062 135.525C236.344 138.902 236.062 144.638 236.062 145.799C236.062 146.96 236.801 150.478 240.249 149.071C244.233 147.655 248.299 146.48 252.423 145.552C253.796 145.236 245.07 142.456 244.084 138.973C243.768 137.917 241.903 136.158 244.084 127.361C245.617 119.498 246.465 111.516 246.618 103.506C246.618 101.465 246.618 97.8056 242.431 97.0667C238.244 96.3278 198.484 97.0667 198.484 97.0667L197.886 113.111Z" fill="url(#paint28_linear)"/>
<path d="M236.164 143.054C235.477 144.783 235.477 146.709 236.164 148.438C237.308 150.516 238.342 152.654 239.26 154.842L241.055 154.279L240.07 149.775C241.571 149.19 243.174 148.914 244.785 148.966C247.142 149.142 250.379 150.866 253.053 149.599C255.727 148.332 256.888 146.467 255.974 144.849C255.059 143.23 253.053 143.653 250.942 143.16C249.146 142.632 247.412 141.912 245.77 141.014C245.856 141.411 245.858 141.821 245.777 142.219C245.696 142.617 245.532 142.993 245.297 143.324C245.062 143.655 244.76 143.934 244.412 144.142C244.063 144.35 243.675 144.483 243.272 144.532C240.803 144.877 238.291 144.355 236.164 143.054Z" fill="url(#paint29_linear)"/>
<path d="M205.8 190.239C204.439 190.238 203.102 189.874 201.929 189.183L170.614 171.027C169.937 170.637 169.378 170.071 168.994 169.391C168.61 168.71 168.416 167.938 168.433 167.157C168.432 166.38 168.641 165.617 169.037 164.948C169.433 164.279 170.002 163.73 170.684 163.357L201.155 146.292V129.403C201.155 128.964 201.329 128.543 201.64 128.233C201.95 127.923 202.37 127.749 202.809 127.749C203.248 127.749 203.668 127.923 203.978 128.233C204.288 128.543 204.463 128.964 204.463 129.403V147.277C204.467 147.572 204.39 147.862 204.241 148.116C204.092 148.37 203.877 148.579 203.618 148.72L172.303 166.312C172.135 166.409 171.996 166.547 171.897 166.714C171.798 166.88 171.744 167.069 171.74 167.262C171.734 167.454 171.779 167.643 171.872 167.811C171.965 167.978 172.102 168.117 172.268 168.212L203.583 186.368C204.261 186.764 205.032 186.972 205.817 186.972C206.602 186.972 207.373 186.764 208.052 186.368L235.145 170.535V124.793C235.145 124.355 235.319 123.934 235.629 123.624C235.939 123.314 236.36 123.14 236.798 123.14C237.237 123.14 237.657 123.314 237.968 123.624C238.278 123.934 238.452 124.355 238.452 124.793V171.414C238.461 171.701 238.39 171.984 238.247 172.233C238.104 172.481 237.895 172.685 237.643 172.822L209.776 189.148C208.578 189.876 207.201 190.254 205.8 190.239Z" fill="url(#paint30_linear)"/>
<path opacity="0.3" d="M205.557 188.831C204.328 188.85 203.114 188.547 202.039 187.951L171.075 169.76C170.564 169.474 170.141 169.054 169.85 168.546C169.558 168.038 169.41 167.461 169.421 166.875C169.451 166.295 169.624 165.73 169.925 165.233C170.226 164.736 170.645 164.321 171.146 164.025L202.179 146.679V129.086C202.179 128.936 202.239 128.793 202.344 128.688C202.45 128.582 202.593 128.523 202.742 128.523C202.885 128.532 203.02 128.595 203.118 128.7C203.216 128.804 203.27 128.942 203.27 129.086V146.96C203.272 147.055 203.247 147.149 203.197 147.231C203.147 147.312 203.075 147.377 202.989 147.417L171.673 165.01C171.337 165.2 171.056 165.476 170.861 165.81C170.666 166.144 170.564 166.524 170.564 166.91C170.564 167.297 170.666 167.677 170.861 168.01C171.056 168.344 171.337 168.62 171.673 168.81L202.742 187.001C203.593 187.475 204.548 187.729 205.522 187.74C206.501 187.733 207.46 187.466 208.302 186.966L235.957 170.816V124.547C235.966 124.404 236.03 124.269 236.134 124.171C236.239 124.073 236.377 124.019 236.52 124.019C236.66 124.019 236.795 124.075 236.894 124.174C236.993 124.273 237.048 124.407 237.048 124.547V171.133C237.047 171.223 237.024 171.312 236.981 171.391C236.938 171.471 236.877 171.539 236.802 171.59L208.865 187.916C207.861 188.505 206.721 188.821 205.557 188.831Z" fill="white"/>
<path opacity="0.5" d="M205.417 188.198C204.322 188.197 203.244 187.919 202.286 187.389L171.076 169.198C170.642 168.943 170.283 168.577 170.035 168.138C169.788 167.7 169.662 167.203 169.669 166.699C169.671 166.194 169.81 165.699 170.07 165.265C170.33 164.832 170.702 164.476 171.147 164.236L202.391 146.644V128.945V146.82L171.076 164.412C170.665 164.629 170.321 164.952 170.079 165.349C169.837 165.745 169.708 166.2 169.704 166.664C169.699 167.135 169.821 167.599 170.056 168.008C170.291 168.416 170.631 168.754 171.041 168.986L202.321 187.142C203.241 187.673 204.285 187.953 205.347 187.953C206.409 187.953 207.453 187.673 208.373 187.142L236.205 170.851V124.371V170.957L208.549 187.353C207.599 187.91 206.518 188.201 205.417 188.198Z" fill="white"/>
<path d="M203.693 142.914V146.327L241.341 124.547V121.063L203.693 142.914Z" fill="url(#paint31_linear)"/>
<path d="M203.692 142.914V146.327L166.782 124.899V121.38L203.692 142.914Z" fill="url(#paint32_linear)"/>
<path d="M203.693 140.838V144.251L241.341 122.471V118.988L203.693 140.838Z" fill="url(#paint33_linear)"/>
<path d="M203.692 140.838V144.251L166.782 122.823V119.339L203.692 140.838Z" fill="url(#paint34_linear)"/>
<path d="M166.782 119.34L203.692 140.838L241.341 118.988L204.396 97.4893L166.782 119.34Z" fill="url(#paint35_linear)"/>
<path d="M258.154 77.6093C259.057 77.2843 260.009 77.1177 260.969 77.1167C263.608 77.1167 269.202 76.5537 269.695 75.2166C269.946 73.4428 269.946 71.6423 269.695 69.8684C269.695 69.8684 275.852 67.2999 276.204 66.948C276.556 66.5962 275.958 65.7165 274.34 66.1739C271.932 66.8785 269.473 67.3961 266.986 67.7221L265.191 67.3703C266.086 66.8686 266.945 66.3042 267.76 65.6814C268.217 65.1888 268.428 64.098 267.76 63.9221C267.091 63.7461 263.713 66.2091 262.623 66.4906C261.068 67.4036 259.696 68.5966 258.576 70.0092C257.932 70.7031 257.238 71.3499 256.5 71.9444C256.5 71.9444 255.937 78.3482 258.154 77.6093Z" fill="url(#paint36_linear)"/>
<path d="M255.873 71.5925L257.386 70.7832L260.025 77.3277L258.371 77.6796L255.873 71.5925Z" fill="url(#paint37_linear)"/>
<path d="M207.28 121.063C212.769 122.401 223.817 121.063 229.552 120.465C234.541 119.664 239.388 118.148 243.943 115.962C243.943 115.962 245.315 140.064 245.562 143.442C245.768 146.863 245.768 150.294 245.562 153.716C245.562 154.877 246.301 158.395 249.784 156.988C253.756 155.573 257.81 154.398 261.923 153.469C263.33 153.153 254.604 150.373 253.584 146.89C253.303 145.834 251.438 144.075 253.584 135.278C255.141 127.418 256.001 119.435 256.153 111.423C256.153 109.382 256.153 105.723 251.93 104.984C247.708 104.245 207.983 104.984 207.983 104.984L207.28 121.063Z" fill="url(#paint38_linear)"/>
<path d="M196.021 89.9243C199.706 91.7311 203.608 93.0556 207.632 93.8651L218.54 95.0614C224.466 95.8517 230.435 96.2864 236.414 96.3633C238.942 96.4076 241.402 97.1953 243.485 98.6282C245.569 100.061 247.185 102.076 248.131 104.421C249.538 107.658 246.794 112.478 244.612 116.032C242.431 119.586 243.205 118.565 239.264 119.973C235.323 121.38 219.736 131.936 205.415 126.13C190.18 120.149 190.602 109.593 190.602 106.075C191.241 100.367 193.088 94.8618 196.021 89.9243Z" fill="url(#paint39_linear)"/>
<path d="M245.561 150.971C244.87 152.699 244.87 154.627 245.561 156.355C246.72 158.426 247.754 160.564 248.657 162.759L250.452 162.196L249.502 157.692C251.002 157.106 252.606 156.831 254.216 156.883C256.539 157.059 259.776 158.783 262.485 157.516C265.194 156.249 266.32 154.384 265.405 152.766C264.491 151.147 262.485 151.57 260.339 151.077C258.556 150.544 256.834 149.825 255.202 148.931C255.288 149.327 255.29 149.738 255.209 150.136C255.128 150.534 254.964 150.91 254.729 151.241C254.494 151.572 254.192 151.851 253.844 152.059C253.495 152.267 253.107 152.4 252.703 152.449C250.223 152.803 247.697 152.28 245.561 150.971Z" fill="url(#paint40_linear)"/>
<path d="M193.131 49.0034C190.422 51.8183 186.833 65.8573 185.425 68.4962C184.018 71.1352 179.444 78.2427 184.511 81.3038C189.447 83.5404 194.732 84.9092 200.133 85.3502L196.614 77.4686L191.9 75.3223L197.248 62.5851L193.131 49.0034Z" fill="url(#paint41_linear)"/>
<path d="M219.17 20.9251C221.95 23.1418 223.85 31.1289 222.056 36.5475C220.261 41.9661 217.939 42.4587 216.989 42.9161C216.039 43.3735 213.154 48.1588 214.28 50.3051C215.406 52.4514 206.715 51.2551 204.533 49.4606C202.352 47.6662 202.316 46.9625 202.316 46.9625C203.493 45.1931 203.923 43.0306 203.513 40.9457C202.492 38.4123 198.094 29.1585 203.513 22.7899C205.385 20.529 208.054 19.0744 210.969 18.7273C213.883 18.3801 216.82 19.167 219.17 20.9251Z" fill="url(#paint42_linear)"/>
<path d="M203.054 46.4697C201.604 45.8344 200.017 45.5785 198.441 45.7263C196.865 45.874 195.353 46.4204 194.046 47.3141C190.528 50.516 191.267 53.7883 191.724 59.981C192.428 69.3403 196.404 78.9812 196.791 83.2035C197.178 87.4257 191.407 102.133 191.407 102.133C191.407 102.133 193.835 106.813 203.265 107.798C210.848 108.472 218.402 106.219 224.376 101.5C224.376 101.5 220.576 84.2238 220.682 81.409C220.787 78.5941 223.567 74.3719 223.849 69.5163C224.13 64.6606 224.2 57.342 220.576 54.9846C218.365 53.5808 216.26 52.0167 214.278 50.3049C212.008 50.6904 209.682 50.5945 207.452 50.0234C206.469 49.8751 205.544 49.4677 204.771 48.8431C203.998 48.2185 203.405 47.3993 203.054 46.4697Z" fill="url(#paint43_linear)"/>
<g style="mix-blend-mode:multiply" opacity="0.1">
<path d="M224.374 101.5C224.374 101.5 220.574 84.2238 220.68 81.409C220.785 78.5941 223.565 74.3718 223.847 69.5162C224.128 64.6606 224.163 58.9605 221.595 55.9346C217.795 56.1809 212.622 57.2364 212.235 60.4735C212.464 69.4028 213.239 78.3098 214.558 87.1442C214.874 89.7128 213.185 102.38 212.939 107.094C217.105 106.063 221.003 104.155 224.374 101.5Z" fill="black"/>
</g>
<path d="M221.179 55.6534C220.622 55.0196 219.931 54.5182 219.155 54.1858C218.38 53.8534 217.54 53.6983 216.697 53.7321C215.854 53.7658 215.029 53.9874 214.282 54.3807C213.536 54.774 212.887 55.329 212.382 56.0053C211.094 57.9001 210.563 60.2096 210.895 62.477C211.227 64.7445 212.399 66.8046 214.177 68.2499C219.081 73.9416 223.64 79.9221 227.829 86.1594C228.527 87.5364 229.722 88.5968 231.172 89.1259C232.622 89.655 234.219 89.6134 235.64 89.0094C240.179 87.2853 259.215 77.8555 259.215 77.8555L256.4 71.1351C256.4 71.1351 243.029 77.6796 240.32 78.1722L235.007 79.2982C235.007 79.2982 223.853 58.3979 221.179 55.6534Z" fill="url(#paint44_linear)"/>
<path d="M223.003 27.7512C221.66 28.9468 220.184 29.9856 218.605 30.8476C216.811 31.5865 217.268 32.9939 217.479 34.1198C217.479 34.1198 215.333 34.6828 214.84 35.4217C214.348 36.1606 213.433 37.568 214.488 38.9403C215.573 39.9499 216.382 41.2202 216.838 42.6305C217.294 44.0407 217.381 45.5441 217.092 46.9978C215.368 52.1701 222.687 55.9349 222.687 55.9349C222.687 55.9349 210.125 61.4942 201.575 57.5535C193.905 54.0349 191.829 47.3496 193.975 46.0478C196.122 44.7459 199.992 44.0774 199.148 31.9735C199.021 30.059 199.318 28.1402 200.015 26.353C200.713 24.5657 201.795 22.9536 203.185 21.6309C204.575 20.3083 206.238 19.3073 208.058 18.6989C209.877 18.0905 211.809 17.8896 213.714 18.1104C224.974 18.9548 223.003 27.7512 223.003 27.7512Z" fill="url(#paint45_radial)"/>
<path d="M203.762 104.561L200.067 89.6074L197.323 91.1908L201.017 106.074C202.805 113.304 203.703 120.724 203.691 128.171V140.873L206.471 139.36V126.482C206.451 119.093 205.541 111.733 203.762 104.561Z" fill="url(#paint46_linear)"/>
<path d="M197.319 91.1904L160.515 69.5513L164.034 84.5755C165.801 91.7845 166.699 99.1792 166.708 106.602V119.339L203.653 140.873V128.17C203.67 120.725 202.784 113.306 201.014 106.074L197.319 91.1904Z" fill="url(#paint47_linear)"/>
<path d="M160.412 69.5516L197.321 91.1907L200.066 89.6074L163.121 68.0034L160.412 69.5516Z" fill="url(#paint48_linear)"/>
<path d="M197.851 182.884H190.216V245.831C190.216 247.063 191.905 248.048 194.016 248.048C196.127 248.048 197.851 247.063 197.851 245.831V182.884Z" fill="url(#paint49_linear)"/>
<path d="M149.683 210.575H142.083V273.557C142.083 274.789 143.772 275.774 145.883 275.774C147.994 275.774 149.683 274.789 149.683 273.557V210.575Z" fill="url(#paint50_linear)"/>
<path style="mix-blend-mode:multiply" d="M197.851 181.055H190.216V194.039C190.216 195.27 191.905 196.255 194.016 196.255C196.127 196.255 197.851 195.27 197.851 194.039V181.055Z" fill="url(#paint51_linear)"/>
<path style="mix-blend-mode:multiply" d="M149.683 158.853H142.083V221.87C142.083 223.101 143.772 224.087 145.883 224.087C147.994 224.087 149.683 223.101 149.683 221.87V158.853Z" fill="url(#paint52_linear)"/>
<path d="M42.3257 148.684H34.7256V211.631C34.7256 212.863 36.4145 213.848 38.5256 213.848C40.6368 213.848 42.3257 212.863 42.3257 211.631V148.684Z" fill="url(#paint53_linear)"/>
<path d="M199.785 185.172V180.984L196.618 180.246L92.2224 120.149C90.6653 119.289 88.9297 118.804 87.1527 118.73C85.3757 118.657 83.606 118.998 81.9834 119.726L34.7643 147.382L32.8291 146.925V151.816C32.9459 152.515 33.2355 153.174 33.6718 153.734C34.1081 154.293 34.6771 154.734 35.3273 155.018L140.462 215.326C142.013 216.185 143.743 216.67 145.514 216.743C147.285 216.817 149.049 216.476 150.666 215.748L198.026 188.092C198.585 187.846 199.054 187.434 199.369 186.911C199.684 186.388 199.829 185.78 199.785 185.172Z" fill="url(#paint54_linear)"/>
<path d="M150.666 211.033L198.026 183.483C200.665 181.97 200.313 179.331 197.287 177.571L92.223 117.052C90.6686 116.185 88.9322 115.695 87.1538 115.621C85.3753 115.548 83.6045 115.894 81.984 116.63L34.6241 144.286C31.9852 145.799 32.3371 148.438 35.363 150.162L140.462 210.611C142.011 211.478 143.741 211.968 145.514 212.041C147.287 212.114 149.052 211.769 150.666 211.033Z" fill="url(#paint55_linear)"/>
<path style="mix-blend-mode:color-dodge" d="M35.3615 149.704L140.461 210.153C142.009 211.02 143.74 211.51 145.512 211.583C147.285 211.657 149.05 211.311 150.665 210.575L198.025 182.919C198.488 182.701 198.891 182.371 199.198 181.96C199.505 181.549 199.706 181.069 199.784 180.562C199.811 181.154 199.657 181.741 199.343 182.244C199.029 182.746 198.569 183.142 198.025 183.377L150.665 211.033C149.05 211.769 147.285 212.114 145.512 212.041C143.74 211.967 142.009 211.477 140.461 210.611L35.3615 150.162C34.653 149.874 34.0415 149.39 33.5989 148.767C33.1563 148.144 32.9011 147.407 32.8633 146.643C33.0121 147.313 33.3155 147.938 33.7493 148.47C34.183 149.001 34.7352 149.424 35.3615 149.704Z" fill="url(#paint56_radial)"/>
<path style="mix-blend-mode:color-dodge" d="M150.701 213.777C150.701 217.296 148.766 220.427 146.409 220.427C144.051 220.427 142.151 217.436 142.151 213.742C142.151 210.047 144.087 207.092 146.444 207.092C148.801 207.092 150.701 210.083 150.701 213.777Z" fill="url(#paint57_radial)"/>
<path d="M192.531 160.189V178.838L195.592 177.043V158.43L192.531 160.189Z" fill="url(#paint58_linear)"/>
<path d="M192.533 160.19V178.838L86.3076 117.685V99.0371L192.533 160.19Z" fill="url(#paint59_linear)"/>
<path d="M86.3086 99.0371L192.534 160.19L195.595 158.43L89.3345 97.2778L86.3086 99.0371Z" fill="url(#paint60_linear)"/>
<path style="mix-blend-mode:color-dodge" d="M191.968 159.943V178.381L192.531 178.838V160.33L191.968 159.943Z" fill="url(#paint61_radial)"/>
<path d="M139.3 184.714L146.408 180.527L156.154 194.496L139.3 184.714Z" fill="url(#paint62_linear)"/>
<path d="M164.561 166.101L181.028 175.671C181.339 175.847 181.598 176.103 181.778 176.412C181.957 176.721 182.05 177.073 182.048 177.431V179.049C182.099 179.227 182.084 179.417 182.006 179.585C181.929 179.752 181.794 179.887 181.626 179.964L156.996 194.918L156.574 190.977L139.403 180.914L164.033 166.101C164.205 166.044 164.39 166.044 164.561 166.101Z" fill="url(#paint63_linear)"/>
<path d="M156.363 190.801L139.403 180.914L164.033 166.101C164.157 166.033 164.296 165.998 164.438 165.998C164.579 165.998 164.718 166.033 164.843 166.101L181.309 175.671L156.363 190.801Z" fill="url(#paint64_linear)"/>
<path d="M156.997 192.384V194.038C157.003 194.177 156.972 194.315 156.907 194.437C156.841 194.559 156.744 194.662 156.625 194.734C156.507 194.806 156.371 194.844 156.232 194.846C156.093 194.847 155.956 194.811 155.836 194.742L139.651 185.347V181.16L156.012 190.52C156.342 190.698 156.612 190.971 156.787 191.303C156.963 191.635 157.036 192.011 156.997 192.384Z" fill="url(#paint65_linear)"/>
<g style="mix-blend-mode:multiply">
<path d="M156.54 194.39V192.807C156.537 192.464 156.444 192.128 156.272 191.831C156.099 191.535 155.852 191.289 155.555 191.118L139.651 181.899V181.16L156.012 190.52C156.319 190.688 156.574 190.938 156.748 191.243C156.922 191.547 157.008 191.893 156.997 192.244V194.038C156.998 194.201 156.948 194.36 156.853 194.493C156.758 194.626 156.624 194.725 156.47 194.777C156.531 194.658 156.556 194.523 156.54 194.39Z" fill="#D1D3D4"/>
</g>
<path d="M156.152 194.496C156.231 194.525 156.319 194.525 156.398 194.496C156.468 194.511 156.541 194.511 156.611 194.496C156.681 194.48 156.746 194.45 156.803 194.406C156.86 194.362 156.907 194.307 156.94 194.243C156.974 194.18 156.993 194.11 156.996 194.038V192.42C156.999 192.121 156.922 191.826 156.774 191.567C156.625 191.307 156.411 191.091 156.152 190.942L139.403 181.231V180.914L156.292 190.696C156.604 190.871 156.863 191.127 157.042 191.436C157.222 191.746 157.315 192.097 157.313 192.455V194.038C157.312 194.178 157.274 194.315 157.204 194.436C157.134 194.557 157.034 194.658 156.914 194.729C156.793 194.8 156.657 194.838 156.517 194.84C156.377 194.843 156.239 194.809 156.116 194.742L139.403 185.101V184.714L156.152 194.496Z" fill="url(#paint66_linear)"/>
<path opacity="0.2" d="M111.261 185.066L77.1306 165.256C75.6177 164.412 75.6177 163.954 77.3418 162.969L101.092 149.317C102.816 148.297 103.203 148.402 104.611 149.317L138.6 168.986C140.078 169.865 139.902 170.675 138.178 171.66L115.061 185.03C114.519 185.452 113.853 185.684 113.167 185.69C112.48 185.697 111.81 185.477 111.261 185.066Z" fill="black"/>
<path d="M111.257 184.749L96.7608 175.46H95.9515C95.5942 175.484 95.2383 175.398 94.9311 175.214L93.9107 174.616C93.6833 174.488 93.4901 174.307 93.3478 174.088L92.4681 172.927L77.3383 165.08C76.6346 164.658 76.2827 164.342 76.2476 164.025V163.567C76.2476 163.216 76.7402 163.251 77.5494 162.793L101.089 149.247C102.813 148.262 103.2 148.332 104.607 149.247L138.315 168.74C138.984 169.092 139.3 169.021 139.3 169.408V169.901C139.3 170.393 138.808 170.851 137.893 171.379L114.987 184.608C114.468 185.04 113.821 185.288 113.146 185.313C112.471 185.338 111.807 185.14 111.257 184.749Z" fill="url(#paint67_linear)"/>
<path d="M111.262 184.327L96.7654 175.003H95.9562C95.6006 175.009 95.2492 174.925 94.9358 174.756L93.9154 174.158C93.6954 174.02 93.5042 173.841 93.3525 173.63L92.5432 172.504L77.4134 164.623C75.9356 163.778 75.9356 163.356 77.6245 162.371L101.164 148.825C102.888 147.839 103.275 147.91 104.682 148.825L138.39 168.317C139.868 169.197 139.692 170.006 137.968 170.992L115.062 184.221C114.533 184.665 113.87 184.916 113.18 184.935C112.491 184.955 111.815 184.74 111.262 184.327Z" fill="url(#paint68_linear)"/>
<path style="mix-blend-mode:multiply" d="M96.7299 174.616H95.7798C95.5481 174.667 95.3079 174.667 95.0761 174.616L94.0557 174.018C93.8989 173.907 93.7569 173.777 93.6335 173.631L92.7891 172.399L118.721 157.656L122.732 159.979L96.7299 174.616Z" fill="url(#paint69_radial)"/>
<path opacity="0.2" d="M94.9028 173.349L76.8525 163.743V163.497L102.714 148.824L120.764 158.43L94.9028 173.349Z" fill="black"/>
<path d="M94.9028 173.349L76.8525 163.497V163.251L102.714 148.578L120.764 158.43L94.9028 173.349Z" fill="#F1F2F2"/>
<path d="M94.9028 173.349L91.8064 171.484L76.8525 163.251V162.899L102.714 148.332L120.764 158.43L94.9028 173.349Z" fill="#D1D3D4"/>
<path d="M94.9028 173.349L94.4102 172.997C92.4584 171.6 90.4259 170.319 88.3231 169.162L76.8525 162.899L102.714 147.98L120.764 158.536L94.9028 173.349Z" fill="#F1F2F2"/>
<path d="M94.9 173.349C93.1444 171.644 91.2097 170.134 89.1295 168.845L77.272 162.547L103.133 147.664L120.726 158.43L94.9 173.349Z" fill="#D1D3D4"/>
<path opacity="0.2" d="M113.019 184.608L94.9331 173.349L120.795 158.465L138.845 169.373L138.88 169.725L113.019 184.608Z" fill="black"/>
<path d="M113.019 184.397L94.9331 173.349L120.795 158.465L138.845 169.162L138.88 169.478L113.019 184.397Z" fill="#F1F2F2"/>
<path d="M113.019 184.045L94.9331 173.349L120.795 158.465L138.845 168.915V169.162L113.019 184.045Z" fill="#D1D3D4"/>
<path d="M113.019 183.799L94.9331 173.349L120.795 158.465L138.845 168.704V168.915L113.019 183.799Z" fill="#F1F2F2"/>
<path d="M113.019 183.588L94.9331 173.349L120.795 158.465L138.845 168.282V168.704L113.019 183.588Z" fill="#D1D3D4"/>
<path d="M113.019 183.201L94.9331 173.349L120.795 158.465L138.845 167.965V168.282L113.019 183.201Z" fill="#F1F2F2"/>
<path d="M112.983 182.849L94.9331 173.349L120.795 158.465L138.845 167.965L112.983 182.849Z" fill="#D1D3D4"/>
<path d="M113.019 182.392L94.9331 173.349L120.795 158.465L138.88 167.473L113.019 182.392Z" fill="#F1F2F2"/>
<path d="M112.631 181.899L109.535 180.175C104.977 177.289 100.071 174.995 94.9331 173.349L120.795 158.465C125.755 159.999 130.488 162.188 134.869 164.975L138.387 166.98L112.631 181.899Z" fill="#D1D3D4"/>
<path d="M112.526 181.371L105.841 176.445C103.173 174.373 99.8566 173.313 96.4813 173.454H94.9331L120.795 158.571C122.648 158.303 124.536 158.408 126.349 158.879C128.162 159.35 129.862 160.179 131.35 161.315L138.387 166.558L112.526 181.371Z" fill="url(#paint70_linear)"/>
<g style="mix-blend-mode:multiply">
<path d="M134.168 166.664L128.855 162.794C126.542 161.038 123.736 160.054 120.833 159.979H119.496L120.023 159.697H121.466C124.288 159.7 127.032 160.627 129.277 162.336L134.801 166.383L134.168 166.664Z" fill="#A7A9AC"/>
</g>
<g style="mix-blend-mode:multiply">
<path d="M132.622 167.544L127.309 163.673C124.989 161.931 122.187 160.947 119.286 160.859H117.949L118.477 160.577C118.945 160.542 119.416 160.542 119.884 160.577C122.701 160.577 125.442 161.491 127.696 163.181L133.255 167.262L132.622 167.544Z" fill="#A7A9AC"/>
</g>
<g style="mix-blend-mode:multiply">
<path d="M131.104 168.423L125.755 164.553C123.45 162.782 120.639 161.796 117.733 161.738H116.396L116.924 161.456C117.404 161.421 117.886 161.421 118.366 161.456C121.186 161.474 123.925 162.399 126.178 164.095L131.702 168.177L131.104 168.423Z" fill="#A7A9AC"/>
</g>
<g style="mix-blend-mode:multiply">
<path d="M129.557 169.408L124.244 165.538C121.935 163.774 119.126 162.789 116.221 162.723H114.884L115.412 162.442C115.881 162.407 116.351 162.407 116.819 162.442C119.64 162.454 122.38 163.38 124.631 165.081L130.19 169.127L129.557 169.408Z" fill="#A7A9AC"/>
</g>
<g style="mix-blend-mode:multiply">
<path d="M128.045 170.183L122.697 166.312C120.392 164.542 117.581 163.555 114.675 163.497C114.23 163.462 113.783 163.462 113.338 163.497L113.866 163.181H115.308C118.128 163.198 120.867 164.124 123.12 165.82L128.644 169.866L128.045 170.183Z" fill="#A7A9AC"/>
</g>
<g style="mix-blend-mode:multiply">
<path d="M126.499 171.062L121.186 167.156C118.861 165.426 116.06 164.455 113.163 164.377C112.718 164.341 112.271 164.341 111.826 164.377L112.354 164.06H113.761C116.584 164.057 119.33 164.985 121.573 166.699L127.132 170.745L126.499 171.062Z" fill="#A7A9AC"/>
</g>
<g style="mix-blend-mode:multiply">
<path d="M124.952 171.942L119.639 168.036C117.319 166.293 114.517 165.31 111.617 165.221H110.28L110.808 164.94H112.25C115.072 164.942 117.816 165.869 120.061 167.579L125.586 171.625L124.952 171.942Z" fill="#A7A9AC"/>
</g>
<g style="mix-blend-mode:multiply">
<path d="M123.434 172.927L118.086 169.057C115.775 167.297 112.967 166.312 110.064 166.242H108.727L109.29 165.96C109.758 165.925 110.228 165.925 110.697 165.96C113.52 165.958 116.265 166.885 118.508 168.599L124.067 172.646L123.434 172.927Z" fill="#A7A9AC"/>
</g>
<g style="mix-blend-mode:multiply">
<path d="M121.818 173.666L116.505 169.795C114.185 168.052 111.383 167.069 108.483 166.98H107.146L107.674 166.699C108.154 166.663 108.636 166.663 109.116 166.699C111.922 166.699 114.652 167.613 116.892 169.303L122.452 173.384L121.818 173.666Z" fill="#A7A9AC"/>
</g>
<g style="mix-blend-mode:multiply">
<path d="M120.376 174.545L115.028 170.675C112.725 168.9 109.912 167.913 107.006 167.86H105.668L106.196 167.579H107.639C110.459 167.591 113.2 168.517 115.45 170.218L121.009 174.299L120.376 174.545Z" fill="#A7A9AC"/>
</g>
<g style="mix-blend-mode:multiply">
<path d="M118.829 175.425L113.516 171.555C111.207 169.791 108.398 168.805 105.494 168.74H104.157L104.685 168.423H106.127C108.937 168.436 111.666 169.362 113.903 171.062L119.462 175.109L118.829 175.425Z" fill="#A7A9AC"/>
</g>
<g style="mix-blend-mode:multiply">
<path d="M117.311 176.445L111.963 172.399C109.646 170.654 106.84 169.682 103.941 169.619C103.496 169.585 103.049 169.585 102.604 169.619L103.131 169.303H104.574C107.394 169.32 110.132 170.246 112.385 171.942L117.909 175.988L117.311 176.445Z" fill="#A7A9AC"/>
</g>
<g style="mix-blend-mode:multiply">
<path d="M115.764 177.185L110.451 173.279C108.127 171.549 105.325 170.578 102.429 170.499C101.984 170.463 101.537 170.463 101.092 170.499L101.62 170.183H103.027C105.85 170.18 108.595 171.107 110.838 172.822L116.398 176.868L115.764 177.185Z" fill="#A7A9AC"/>
</g>
<g style="mix-blend-mode:multiply">
<path d="M114.253 178.029L108.905 174.158C106.591 172.403 103.785 171.418 100.882 171.343H99.5454L100.073 171.062H101.516C104.338 171.064 107.082 171.991 109.327 173.701L114.781 177.747L114.253 178.029Z" fill="#A7A9AC"/>
</g>
<path d="M103.552 147.241L105.945 147.91C111.972 149.612 117.229 153.34 120.828 158.465L94.9671 173.384L94.7559 173.032C91.0922 168.03 85.8484 164.41 79.8724 162.758L77.6909 162.16L103.552 147.241Z" fill="url(#paint71_linear)"/>
<g style="mix-blend-mode:multiply">
<path d="M104.61 149.986L102.851 149.493L103.308 149.212L105.173 149.74C110.426 151.23 115.078 154.331 118.473 158.606L118.016 158.888C114.572 154.609 109.89 151.5 104.61 149.986Z" fill="#A7A9AC"/>
</g>
<g style="mix-blend-mode:multiply">
<path d="M103.064 150.866L101.305 150.373L101.798 150.092L103.663 150.62C108.915 152.11 113.567 155.211 116.963 159.486L116.47 159.768C113.026 155.489 108.344 152.38 103.064 150.866Z" fill="#A7A9AC"/>
</g>
<g style="mix-blend-mode:multiply">
<path d="M101.552 151.816L99.793 151.323L100.25 151.042L102.115 151.569C107.368 153.059 112.02 156.161 115.415 160.436L114.958 160.718C111.514 156.439 106.832 153.33 101.552 151.816Z" fill="#A7A9AC"/>
</g>
<g style="mix-blend-mode:multiply">
<path d="M100.006 152.625L98.2466 152.133L98.7392 151.851L100.569 152.379C105.835 153.86 110.501 156.963 113.904 161.246L113.412 161.527C109.968 157.249 105.285 154.139 100.006 152.625Z" fill="#A7A9AC"/>
</g>
<g style="mix-blend-mode:multiply">
<path d="M98.4883 153.54L96.6938 153.012L97.1864 152.73L99.0513 153.258C104.304 154.748 108.956 157.85 112.351 162.125L111.894 162.407C108.458 158.127 103.771 155.027 98.4883 153.54Z" fill="#A7A9AC"/>
</g>
<g style="mix-blend-mode:multiply">
<path d="M96.9409 154.42L95.1816 153.892L95.6742 153.646L97.5039 154.138C102.77 155.619 107.436 158.722 110.839 163.005L110.347 163.286C106.91 159.007 102.224 155.907 96.9409 154.42Z" fill="#A7A9AC"/>
</g>
<g style="mix-blend-mode:multiply">
<path d="M95.4292 155.334L93.6699 154.771L94.1625 154.525L96.0274 155.017C101.28 156.508 105.932 159.609 109.328 163.884L108.87 164.166C105.413 159.9 100.716 156.814 95.4292 155.334Z" fill="#A7A9AC"/>
</g>
<g style="mix-blend-mode:multiply">
<path d="M93.8828 156.178L92.1235 155.651L92.6161 155.334L94.4458 155.827C99.7115 157.327 104.367 160.455 107.746 164.764L107.289 165.045C103.852 160.766 99.1656 157.666 93.8828 156.178Z" fill="#A7A9AC"/>
</g>
<g style="mix-blend-mode:multiply">
<path d="M92.3301 157.058L90.5708 156.53L91.0634 156.284L92.9282 156.777C98.1806 158.267 102.833 161.368 106.228 165.644L105.771 165.925C102.321 161.645 97.6227 158.546 92.3301 157.058Z" fill="#A7A9AC"/>
</g>
<g style="mix-blend-mode:multiply">
<path d="M90.8179 157.938L89.0586 157.446L89.516 157.164L91.3808 157.657C96.6373 159.138 101.292 162.241 104.681 166.523L104.224 166.805C100.787 162.526 96.1007 159.426 90.8179 157.938Z" fill="#A7A9AC"/>
</g>
<g style="mix-blend-mode:multiply">
<path d="M89.272 158.853L87.5127 158.36L88.0053 158.079L89.8701 158.571C95.1225 160.061 99.7746 163.163 103.17 167.438L102.678 167.719C99.2478 163.433 94.5588 160.332 89.272 158.853Z" fill="#A7A9AC"/>
</g>
<g style="mix-blend-mode:multiply">
<path d="M87.7598 159.697L86.0005 159.204L86.6338 158.853L88.4987 159.345C93.7511 160.835 98.4032 163.937 101.799 168.212L101.341 168.493C97.8487 164.21 93.0974 161.132 87.7598 159.697Z" fill="#A7A9AC"/>
</g>
<g style="mix-blend-mode:multiply">
<path d="M86.2134 160.577L84.4541 160.084L84.9467 159.803L86.8115 160.295C92.0639 161.785 96.716 164.887 100.112 169.162L99.6191 169.444C96.1828 165.164 91.4962 162.064 86.2134 160.577Z" fill="#A7A9AC"/>
</g>
<g style="mix-blend-mode:multiply">
<path d="M84.6976 161.457L83.1143 160.964L83.5717 160.683L85.4365 161.21C90.6924 162.673 95.349 165.765 98.7367 170.042L98.2793 170.323C94.7967 166.014 90.0444 162.911 84.6976 161.457Z" fill="#A7A9AC"/>
</g>
<g style="mix-blend-mode:multiply">
<path d="M110.978 177.712L112.703 178.943L112.069 179.26L110.451 178.099L110.978 177.712Z" fill="#A7A9AC"/>
</g>
<g style="mix-blend-mode:multiply">
<path d="M82.5503 162.653L80.7559 162.16L81.2485 161.878L83.1133 162.406L82.5503 162.653Z" fill="#A7A9AC"/>
</g>
<path opacity="0.2" d="M155.66 189.253L139.404 179.647C138.56 179.154 138.56 178.908 139.404 178.345L164.281 163.18C165.266 162.617 165.477 162.652 166.321 163.18L182.647 172.715C183.527 173.208 183.386 173.701 182.436 174.264L157.806 189.217C157.505 189.465 157.129 189.603 156.739 189.61C156.35 189.616 155.969 189.49 155.66 189.253Z" fill="black"/>
<path d="M139.3 178.979L146.408 174.792L156.154 188.76L139.3 178.979Z" fill="url(#paint72_linear)"/>
<path d="M164.561 160.366L181.028 169.936C181.339 170.112 181.598 170.367 181.778 170.677C181.957 170.986 182.05 171.338 182.048 171.695V173.314C182.05 173.468 182.008 173.619 181.927 173.75C181.846 173.881 181.729 173.986 181.591 174.053L156.961 189.007L156.539 185.066L139.403 175.179L164.033 160.366C164.205 160.309 164.39 160.309 164.561 160.366Z" fill="url(#paint73_linear)"/>
<path d="M156.363 185.066L139.403 175.179L164.033 160.365C164.157 160.298 164.296 160.262 164.438 160.262C164.579 160.262 164.718 160.298 164.843 160.365L181.309 169.936L156.363 185.066Z" fill="url(#paint74_linear)"/>
<path d="M156.997 186.649V188.197C156.997 188.333 156.961 188.466 156.893 188.584C156.825 188.701 156.727 188.798 156.61 188.866C156.492 188.934 156.359 188.97 156.223 188.969C156.087 188.969 155.954 188.934 155.836 188.866L139.651 179.506V175.425L156.012 184.925C156.319 185.093 156.574 185.344 156.748 185.648C156.922 185.952 157.008 186.299 156.997 186.649Z" fill="url(#paint75_linear)"/>
<g style="mix-blend-mode:multiply">
<path d="M156.54 188.655V187.001C156.537 186.658 156.444 186.322 156.272 186.026C156.099 185.729 155.852 185.483 155.555 185.312L139.651 176.093V175.354L156.012 184.855C156.319 185.023 156.574 185.273 156.748 185.578C156.922 185.882 157.008 186.228 156.997 186.579V188.127C156.998 188.29 156.948 188.449 156.853 188.582C156.758 188.715 156.624 188.814 156.47 188.866C156.505 188.8 156.528 188.728 156.54 188.655Z" fill="#D1D3D4"/>
</g>
<path d="M156.152 188.76C156.231 188.79 156.319 188.79 156.398 188.76C156.529 188.76 156.654 188.708 156.746 188.616C156.839 188.524 156.891 188.398 156.891 188.268V186.649C156.893 186.35 156.816 186.056 156.668 185.796C156.52 185.537 156.305 185.321 156.046 185.171L139.403 175.495V175.179L156.292 184.96C156.604 185.136 156.863 185.392 157.042 185.701C157.222 186.01 157.315 186.362 157.313 186.72V188.338C157.312 188.478 157.274 188.615 157.204 188.736C157.134 188.857 157.034 188.958 156.914 189.029C156.793 189.1 156.657 189.138 156.517 189.14C156.377 189.143 156.239 189.109 156.116 189.042L139.403 179.366V178.979L156.152 188.76Z" fill="url(#paint76_linear)"/>
<path d="M54.5357 242.595C54.0823 244.162 54.0099 245.814 54.3246 247.415C55.0679 248.318 56.0934 248.944 57.2358 249.193C58.3783 249.442 59.5714 249.299 60.6228 248.787C63.1562 247.556 64.1414 244.987 65.1969 244.284C68.8688 243.392 72.3573 241.868 75.5063 239.78C79.4823 236.261 79.0249 232.743 74.9433 232.743C70.1336 232.9 65.4154 234.101 61.1154 236.261C58.7018 238.131 56.4959 240.254 54.5357 242.595Z" fill="#10054D"/>
<path d="M56.4378 246.253C59.4961 246.256 62.4358 245.07 64.636 242.946C66.3249 241.503 69.3157 242.242 73.1861 239.216C77.0565 236.19 78.3936 234.044 76.7047 233.024C72.2105 232.018 67.5024 232.733 63.5101 235.029C58.4785 237.739 54.96 239.779 54.96 239.779C54.96 239.779 53.7637 243.509 54.3618 244.318C54.96 245.127 54.96 245.937 56.4378 246.253Z" fill="url(#paint77_linear)"/>
<path d="M56.3991 183.482C55.0591 190.32 54.8216 197.329 55.6954 204.242C57.1028 215.853 54.8862 216.381 54.3584 224.614C53.8306 232.848 50.8398 242.981 55.1676 245.057C56.9812 245.659 58.9406 245.658 60.7539 245.056C62.5672 244.454 64.1374 243.282 65.2307 241.715C66.3424 240.629 67.2263 239.332 67.8304 237.9C68.4346 236.468 68.747 234.93 68.7493 233.376C67.9104 229.894 68.0075 226.252 69.0308 222.82C71.0149 213.33 72.3317 203.712 72.9716 194.038C73.0159 191.243 72.2852 188.491 70.8604 186.086L56.3991 183.482Z" fill="url(#paint78_linear)"/>
<path d="M75.8279 254.663C75.8279 254.663 74.3501 259.097 76.1798 260.047C77.252 260.621 78.4349 260.959 79.6488 261.038C80.8626 261.117 82.0793 260.935 83.2169 260.504C85.5391 259.484 86.4892 258.463 88.917 258.463C93.9869 257.189 98.7024 254.783 102.71 251.426C104.539 249.104 102.71 246.465 98.1708 246.817C94.081 247.017 90.0052 247.44 85.9614 248.084C84.7299 248.576 75.8279 254.663 75.8279 254.663Z" fill="#10054D"/>
<path d="M77.8651 257.935C81.1264 258.113 84.3884 257.598 87.4356 256.422C91.3764 255.613 102.565 251.074 102.354 248.576C102.143 246.077 99.5746 246.605 97.3931 246.816C95.2116 247.027 88.3152 247.485 87.7874 247.485C87.2596 247.485 76.0706 252.552 76.0706 252.552C76.0706 252.552 75.2613 256.246 76.0706 256.774C76.8799 257.302 76.7039 257.794 77.8651 257.935Z" fill="url(#paint79_linear)"/>
<path d="M64.9561 191.962C67.8857 194.312 70.2868 197.253 72.0026 200.594C73.7184 203.934 74.7103 207.599 74.9136 211.349C74.9136 223.383 73.6117 254.417 75.4414 256.141C77.0767 257.109 78.9288 257.652 80.8282 257.72C82.7276 257.787 84.6137 257.378 86.3137 256.528C90.5712 253.431 92.8231 248.998 92.436 247.485C92.049 245.972 88.7415 240.448 89.8675 235.592C92.5949 224.706 94.0008 213.53 94.0546 202.307C94.0363 200.486 93.6364 198.69 92.8808 197.034C92.1253 195.378 91.0308 193.899 89.668 192.692C88.3052 191.485 86.7045 190.577 84.9692 190.027C83.2338 189.477 81.4024 189.297 79.5933 189.499C74.6677 190.015 69.7791 190.837 64.9561 191.962Z" fill="url(#paint80_linear)"/>
<path d="M45.4231 286.999C44.0619 286.998 42.7256 286.634 41.5526 285.943L10.2374 267.928C9.55637 267.546 8.98938 266.989 8.59478 266.315C8.20018 265.641 7.99219 264.874 7.99219 264.093C7.99219 263.312 8.20018 262.545 8.59478 261.871C8.98938 261.197 9.55637 260.64 10.2374 260.258L40.8841 243.052V226.163C40.8841 225.724 41.0583 225.304 41.3685 224.994C41.6786 224.683 42.0993 224.509 42.5378 224.509C42.9764 224.509 43.3971 224.683 43.7072 224.994C44.0173 225.304 44.1916 225.724 44.1916 226.163V244.037C44.1954 244.332 44.1188 244.622 43.97 244.876C43.8212 245.13 43.6058 245.339 43.3471 245.48L12.0319 263.073C11.8595 263.164 11.7157 263.3 11.6163 263.468C11.5169 263.636 11.4659 263.828 11.4689 264.023C11.4625 264.214 11.5082 264.403 11.6012 264.571C11.6941 264.738 11.8309 264.877 11.9967 264.973L43.3119 283.128C43.99 283.524 44.7611 283.733 45.5462 283.733C46.3313 283.733 47.1024 283.524 47.7805 283.128L74.8734 267.295V221.554C74.8734 221.115 75.0477 220.694 75.3578 220.384C75.6679 220.074 76.0886 219.9 76.5271 219.9C76.9657 219.9 77.3864 220.074 77.6965 220.384C78.0066 220.694 78.1809 221.115 78.1809 221.554V268.175C78.1819 268.46 78.1076 268.74 77.9655 268.987C77.8234 269.234 77.6185 269.439 77.3716 269.582L49.4694 285.908C48.2503 286.646 46.8477 287.024 45.4231 286.999Z" fill="url(#paint81_linear)"/>
<path opacity="0.3" d="M45.1405 285.521C43.9806 285.518 42.8411 285.215 41.833 284.641L10.5178 266.45C10.0135 266.16 9.59451 265.743 9.30316 265.239C9.01181 264.736 8.8584 264.164 8.8584 263.583C8.8584 263.001 9.01181 262.43 9.30316 261.926C9.59451 261.423 10.0135 261.005 10.5178 260.715L41.5867 243.298V225.705C41.5867 225.556 41.6461 225.413 41.7516 225.307C41.8572 225.202 42.0004 225.142 42.1497 225.142C42.299 225.142 42.4422 225.202 42.5478 225.307C42.6534 225.413 42.7127 225.556 42.7127 225.705V243.58C42.715 243.675 42.6897 243.769 42.6398 243.85C42.5898 243.931 42.5173 243.996 42.4312 244.037L11.0808 261.63C10.748 261.826 10.4702 262.103 10.2733 262.435C10.0764 262.767 9.96685 263.144 9.95486 263.53C9.9565 263.914 10.0579 264.291 10.2491 264.624C10.4403 264.957 10.7148 265.235 11.0456 265.43L42.3608 283.621C43.2135 284.09 44.1676 284.343 45.1405 284.36C46.1305 284.354 47.1014 284.087 47.9553 283.586L75.576 267.435V221.307C75.5833 221.175 75.6366 221.05 75.7266 220.954C75.8166 220.857 75.9377 220.796 76.0686 220.779C76.212 220.779 76.3502 220.833 76.4548 220.932C76.5594 221.03 76.6226 221.164 76.6316 221.307V267.928C76.634 268.023 76.6087 268.117 76.5587 268.198C76.5087 268.28 76.4363 268.345 76.3501 268.385L48.4479 284.712C47.4344 285.264 46.2945 285.543 45.1405 285.521Z" fill="white"/>
<path d="M43.2817 239.674V243.087L80.9304 221.307V217.823L43.2817 239.674Z" fill="url(#paint82_linear)"/>
<path d="M43.315 239.674V243.087L6.40527 221.659V218.14L43.315 239.674Z" fill="url(#paint83_linear)"/>
<path d="M43.2817 237.598V241.011L80.9304 219.231V215.748L43.2817 237.598Z" fill="url(#paint84_linear)"/>
<path d="M43.315 237.598V241.011L6.40527 219.582V216.099L43.315 237.598Z" fill="url(#paint85_linear)"/>
<path d="M6.40479 216.099L43.3145 237.598L80.9279 215.747L44.0182 194.249L6.40479 216.099Z" fill="url(#paint86_linear)"/>
<path d="M67.6631 162.371C70.3089 163.121 73.0412 163.524 75.791 163.568C77.9373 163.849 80.0836 163.884 80.154 162.794C80.154 160.647 71.3224 159.697 71.3224 159.697L67.6631 162.371Z" fill="url(#paint87_radial)"/>
<path d="M61.9975 153.786C65.5491 152.367 69.1934 151.191 72.905 150.267C75.4126 149.666 78.055 150.044 80.294 151.323C82.0181 152.097 83.2144 152.836 83.0385 153.856C83.0385 154.314 81.9829 153.856 81.9829 153.856C81.9829 153.856 84.0237 154.842 83.9533 156.108C83.8829 157.375 82.6162 156.319 82.6162 156.319C82.6162 156.319 84.8329 157.445 84.6922 158.677C84.5514 159.908 83.2496 158.677 83.2496 158.677C83.2496 158.677 85.1144 159.662 85.1848 160.718C85.2551 161.773 84.5866 161.703 83.2144 161.281C80.5228 160.369 77.6595 160.081 74.8402 160.436C71.6383 161.14 69.8439 163.251 67.3457 162.301C65.4281 161.812 63.4093 161.898 61.54 162.547L61.9975 153.786Z" fill="url(#paint88_radial)"/>
<path d="M63.7918 151.815C64.4839 152.315 65.0332 152.987 65.385 153.765C65.7369 154.543 65.879 155.399 65.7973 156.249C65.287 158.927 64.3484 161.505 63.0177 163.884H33.4618C33.4618 163.884 12.7726 165.467 16.3967 156.847C20.0209 148.226 20.6542 146.291 31.0691 148.754C38.5125 150.727 46.1698 151.778 53.8694 151.886C58.1621 151.815 63.7918 151.815 63.7918 151.815Z" fill="url(#paint89_linear)"/>
<g style="mix-blend-mode:multiply">
<path d="M64.6691 160.366C63.6487 162.653 63.0154 163.884 63.0154 163.884H33.4595C33.4595 163.884 15.8667 166.171 16.3945 156.847C25.1536 159.161 34.1499 160.46 43.2059 160.718C54.6764 160.718 61.6783 160.471 64.6691 160.366Z" fill="#D1D3D4"/>
</g>
<path d="M26.2499 192.49C29.2758 191.224 45.989 182.181 50.8798 183.659C58.7262 185.911 73.9264 200.865 73.9264 200.865C73.9264 200.865 34.5889 229.224 20.4091 218.668C6.22927 208.113 26.2499 192.49 26.2499 192.49Z" fill="url(#paint90_linear)"/>
<path d="M41.9099 200.583C44.9711 199.351 62.3879 191.962 67.6306 192.349C79.7345 193.299 86.9123 209.555 86.9123 209.555C86.9123 209.555 51.4452 235.311 36.1043 226.901C18.3356 217.085 41.9099 200.583 41.9099 200.583Z" fill="url(#paint91_linear)"/>
<path d="M51.4435 122.647C54.2936 124.617 57.0028 127.608 55.9473 135.313C54.8917 143.019 54.4343 146.749 52.7454 147.523C51.0565 148.297 50.0361 147.101 49.2268 149.212C48.8108 151.094 48.6218 153.02 48.6638 154.947L32.4785 148.578C33.4143 146.924 33.7382 144.994 33.3933 143.125C32.7248 140.204 28.7136 134.047 33.6396 126.693C35.5633 123.914 38.4588 121.957 41.7547 121.208C45.0506 120.459 48.5076 120.972 51.4435 122.647Z" fill="url(#paint92_radial)"/>
<path d="M56.7941 130.176C56.6182 131.654 55.3515 133.906 53.2755 133.695C52.8254 133.687 52.3787 133.775 51.9654 133.954C51.5521 134.132 51.1816 134.397 50.8786 134.73C50.5756 135.063 50.347 135.457 50.2082 135.885C50.0694 136.313 50.0235 136.766 50.0736 137.214C50.3551 138.445 50.0736 138.691 50.0736 138.691C50.0736 138.691 48.631 137.847 47.7514 138.973C46.8717 140.099 47.3643 142.843 47.7514 143.934C48.1384 145.025 44.2328 147.453 41.242 147.453C38.2513 147.453 34.5568 146.327 33.5364 144.673C32.0388 142.531 31.0807 140.06 30.7438 137.468C30.4069 134.877 30.701 132.243 31.6012 129.789C32.753 126.35 35.207 123.499 38.4367 121.848C41.6665 120.196 45.4147 119.877 48.8773 120.958C50.9859 121.491 52.8782 122.664 54.2953 124.314C55.7123 125.964 56.5851 128.011 56.7941 130.176Z" fill="url(#paint93_linear)"/>
<g style="mix-blend-mode:multiply">
<path d="M31.2467 130.211C33.3023 132.322 35.8551 133.883 38.6709 134.75C42.4067 135.94 46.3547 136.312 50.247 135.841C50.1173 136.253 50.1173 136.696 50.247 137.108C50.5285 138.339 50.247 138.586 50.247 138.586C50.247 138.586 48.8044 137.741 47.9247 138.867C47.0451 139.993 47.5377 142.738 47.9247 143.828C48.3118 144.919 44.4062 147.347 41.4154 147.347C38.4246 147.347 34.7301 146.221 33.7097 144.567C32.2209 142.526 31.2239 140.168 30.7967 137.678C30.3694 135.188 30.5235 132.632 31.2467 130.211Z" fill="#D1D3D4"/>
</g>
<path d="M37.7553 151.604C35.53 150.4 33.4718 148.909 31.633 147.171H25.4051C23.2471 147.285 21.1926 148.132 19.5806 149.571C17.9686 151.01 16.8955 152.956 16.5384 155.088C15.5388 162.399 15.0451 169.77 15.0606 177.149C13.442 205.298 8.19939 206.916 16.7847 211.525C25.37 216.135 37.896 218.985 44.9332 212.933C51.9703 206.881 50.9499 206.318 52.6036 193.194C54.2574 180.069 58.9722 174.229 54.4685 166.593C51.6943 161.095 47.3297 156.559 41.9424 153.575C40.5091 153.001 39.111 152.343 37.7553 151.604Z" fill="url(#paint94_linear)"/>
<path d="M52.0736 159.205C51.4403 155.334 48.2032 154.631 45.8106 153.751C41.9775 152.484 38.2772 150.846 34.7623 148.86C34.2225 148.532 33.7809 148.065 33.4837 147.508C33.1866 146.951 33.0448 146.324 33.0734 145.693L31.3845 147.136C31.3845 147.136 30.8919 150.655 35.8882 153.223C40.8846 155.792 46.9013 156.742 49.6458 159.873C50.4766 160.945 51.4203 161.924 52.4606 162.794C52.4606 162.794 52.7773 163.005 52.0736 159.205Z" fill="url(#paint95_linear)"/>
<g style="mix-blend-mode:multiply">
<path d="M42.3313 170.534C47.6795 164.799 53.0981 170.886 56.8981 175.953C55.1702 181.628 53.7606 187.396 52.6758 193.229C51.0221 206.353 52.1832 206.916 45.0054 212.968C43.4591 214.423 41.5955 215.499 39.562 216.109C37.5284 216.72 35.3807 216.849 33.2886 216.487C34.1682 213.777 35.4349 178.064 42.3313 170.534Z" fill="#D1D3D4"/>
</g>
<path d="M99.3989 178.099C101.239 176.245 102.966 174.283 104.571 172.223C105.838 170.499 107.316 168.916 108.09 169.619C109.708 170.992 104.184 178.134 104.184 178.134L99.3989 178.099Z" fill="url(#paint96_radial)"/>
<path d="M98.0593 187.6C101.9 187.517 105.731 187.188 109.53 186.614C112.057 186.156 114.319 184.761 115.863 182.709C117.165 181.337 117.974 180.175 117.411 179.19C116.848 178.205 116.497 179.753 116.497 179.753C116.497 179.753 117.939 178.029 117.376 176.903C116.813 175.777 116.11 177.22 116.11 177.22C116.11 177.22 117.693 175.32 117.06 174.229C116.426 173.138 115.687 174.687 115.687 174.687C115.687 174.687 117.024 173.033 116.637 172.048C116.25 171.062 115.687 171.379 114.597 172.294C112.51 174.243 109.989 175.667 107.243 176.446C104.041 177.044 101.578 175.848 99.6427 177.712C98.0745 178.912 96.1927 179.633 94.2241 179.788L98.0593 187.6Z" fill="url(#paint97_radial)"/>
<path d="M43.9791 166.77C42.9054 167.445 41.9919 168.347 41.3022 169.411C40.6125 170.476 40.1633 171.678 39.9858 172.934C39.8082 174.19 39.9067 175.47 40.2743 176.684C40.6419 177.898 41.2698 179.018 42.1143 179.964C45.6328 184.292 64.2108 195.2 70.2628 196.009C76.3147 196.818 101.543 189.605 101.543 189.605C101.696 187.1 101.566 184.586 101.156 182.11C101.039 181.357 100.74 180.644 100.287 180.031C99.8334 179.418 99.2381 178.924 98.552 178.592C98.552 178.592 80.9592 183.131 75.611 182.11C70.2628 181.09 62.3812 174.405 57.2089 170.675C52.0366 166.945 48.4125 163.99 43.9791 166.77Z" fill="url(#paint98_linear)"/>
<path d="M43.3838 201.322L39.6893 186.368L36.9448 187.951L40.4634 202.835C42.2626 210.062 43.1725 217.483 43.1727 224.931V237.633L45.9172 236.12V223.242C45.9544 215.86 45.1039 208.5 43.3838 201.322Z" fill="url(#paint99_linear)"/>
<path d="M36.9449 187.951L0 166.312L3.51856 181.336C5.30339 188.542 6.20141 195.938 6.19266 203.362V216.099L43.1376 237.633V224.931C43.1465 217.472 42.2485 210.041 40.4635 202.799L36.9449 187.951Z" fill="url(#paint100_linear)"/>
<path d="M0 166.312L36.9449 187.951L39.6894 186.368L2.70929 164.764L0 166.312Z" fill="url(#paint101_linear)"/>
<defs>
<linearGradient id="paint0_linear" x1="1421.84" y1="2275.63" x2="1438.25" y2="2275.63" gradientUnits="userSpaceOnUse">
<stop stop-color="#8A92B3"/>
<stop offset="0.06" stop-color="#8E95B6"/>
<stop offset="0.13" stop-color="#9C9EBE"/>
<stop offset="0.2" stop-color="#B1ACCB"/>
<stop offset="0.25" stop-color="#C7BAD8"/>
<stop offset="0.33" stop-color="#B2AACC"/>
<stop offset="0.45" stop-color="#9A97BE"/>
<stop offset="0.56" stop-color="#8B8CB6"/>
<stop offset="0.65" stop-color="#8688B3"/>
<stop offset="0.85" stop-color="#AAABCB"/>
<stop offset="1" stop-color="#9396B3"/>
</linearGradient>
<linearGradient id="paint1_linear" x1="1259.54" y1="2817.62" x2="1275.81" y2="2817.62" gradientUnits="userSpaceOnUse">
<stop stop-color="#8A92B3"/>
<stop offset="0.06" stop-color="#8E95B6"/>
<stop offset="0.13" stop-color="#9C9EBE"/>
<stop offset="0.2" stop-color="#B1ACCB"/>
<stop offset="0.25" stop-color="#C7BAD8"/>
<stop offset="0.33" stop-color="#B2AACC"/>
<stop offset="0.45" stop-color="#9A97BE"/>
<stop offset="0.56" stop-color="#8B8CB6"/>
<stop offset="0.65" stop-color="#8688B3"/>
<stop offset="0.85" stop-color="#AAABCB"/>
<stop offset="1" stop-color="#9396B3"/>
</linearGradient>
<linearGradient id="paint2_linear" x1="1428.01" y1="461.528" x2="1448.12" y2="502.6" gradientUnits="userSpaceOnUse">
<stop stop-color="#4C4C4C"/>
<stop offset="1" stop-color="white"/>
</linearGradient>
<linearGradient id="paint3_linear" x1="1267.71" y1="2142.19" x2="1267.71" y2="2388.51" gradientUnits="userSpaceOnUse">
<stop stop-color="#4C4C4C"/>
<stop offset="1" stop-color="white"/>
</linearGradient>
<linearGradient id="paint4_linear" x1="919.231" y1="1607.38" x2="935.494" y2="1607.38" gradientUnits="userSpaceOnUse">
<stop stop-color="#8A92B3"/>
<stop offset="0.06" stop-color="#8E95B6"/>
<stop offset="0.13" stop-color="#9C9EBE"/>
<stop offset="0.2" stop-color="#B1ACCB"/>
<stop offset="0.25" stop-color="#C7BAD8"/>
<stop offset="0.33" stop-color="#B2AACC"/>
<stop offset="0.45" stop-color="#9A97BE"/>
<stop offset="0.56" stop-color="#8B8CB6"/>
<stop offset="0.65" stop-color="#8688B3"/>
<stop offset="0.85" stop-color="#AAABCB"/>
<stop offset="1" stop-color="#9396B3"/>
</linearGradient>
<linearGradient id="paint5_linear" x1="19663.4" y1="3473.23" x2="19806.1" y2="732.908" gradientUnits="userSpaceOnUse">
<stop stop-color="#45108A"/>
<stop offset="1" stop-color="#7C1DC9"/>
</linearGradient>
<linearGradient id="paint6_linear" x1="20630.5" y1="309.133" x2="20210.2" y2="2947.57" gradientUnits="userSpaceOnUse">
<stop stop-color="#45108A"/>
<stop offset="1" stop-color="#7C1DC9"/>
</linearGradient>
<radialGradient id="paint7_radial" cx="0" cy="0" r="1" gradientUnits="userSpaceOnUse" gradientTransform="translate(447950 1577.54) scale(3007.96 1180.54)">
<stop stop-color="white"/>
<stop offset="1"/>
</radialGradient>
<radialGradient id="paint8_radial" cx="0" cy="0" r="1" gradientUnits="userSpaceOnUse" gradientTransform="translate(-37679.3 9898.35) scale(20.0084 31.2047)">
<stop stop-color="#972A74"/>
<stop offset="0.04" stop-color="#8A266A"/>
<stop offset="0.19" stop-color="#601B4A"/>
<stop offset="0.35" stop-color="#3D112F"/>
<stop offset="0.51" stop-color="#230A1B"/>
<stop offset="0.67" stop-color="#0F040C"/>
<stop offset="0.83" stop-color="#040103"/>
<stop offset="1"/>
</radialGradient>
<linearGradient id="paint9_linear" x1="779.76" y1="479.619" x2="795.032" y2="478.936" gradientUnits="userSpaceOnUse">
<stop stop-color="#45108A"/>
<stop offset="1" stop-color="#7C1DC9"/>
</linearGradient>
<linearGradient id="paint10_linear" x1="13465.5" y1="1056.45" x2="13624.3" y2="-515.847" gradientUnits="userSpaceOnUse">
<stop stop-color="#45108A"/>
<stop offset="1" stop-color="#7C1DC9"/>
</linearGradient>
<linearGradient id="paint11_linear" x1="14139.2" y1="311.931" x2="14037.5" y2="647.475" gradientUnits="userSpaceOnUse">
<stop stop-color="#45108A"/>
<stop offset="1" stop-color="#7C1DC9"/>
</linearGradient>
<radialGradient id="paint12_radial" cx="0" cy="0" r="1" gradientUnits="userSpaceOnUse" gradientTransform="translate(439.758 432.575) scale(2.21913 70.0993)">
<stop stop-color="white"/>
<stop offset="1"/>
</radialGradient>
<linearGradient id="paint13_linear" x1="86775.5" y1="470.497" x2="87053.9" y2="395.268" gradientUnits="userSpaceOnUse">
<stop offset="0.04" stop-color="#9F19AB"/>
<stop offset="0.24" stop-color="#AE25B1"/>
<stop offset="0.65" stop-color="#D744BF"/>
<stop offset="1" stop-color="#FF63CE"/>
</linearGradient>
<linearGradient id="paint14_linear" x1="219883" y1="715.571" x2="219817" y2="872.653" gradientUnits="userSpaceOnUse">
<stop offset="0.03" stop-color="#B82CB4"/>
<stop offset="0.54" stop-color="#DE4AC2"/>
<stop offset="0.72" stop-color="#EC55C7"/>
<stop offset="1" stop-color="#D644BF"/>
</linearGradient>
<linearGradient id="paint15_linear" x1="215734" y1="413.578" x2="215637" y2="726.555" gradientUnits="userSpaceOnUse">
<stop offset="0.04" stop-color="#9F19AB"/>
<stop offset="0.24" stop-color="#AE25B1"/>
<stop offset="0.65" stop-color="#D744BF"/>
<stop offset="1" stop-color="#FF63CE"/>
</linearGradient>
<linearGradient id="paint16_linear" x1="95852.3" y1="465.516" x2="96154.3" y2="378.65" gradientUnits="userSpaceOnUse">
<stop offset="0.04" stop-color="#9D9EB3"/>
<stop offset="0.58" stop-color="#D4D1D8"/>
<stop offset="1" stop-color="#EEEBF2"/>
</linearGradient>
<linearGradient id="paint17_linear" x1="92178.3" y1="477.602" x2="92500" y2="385.116" gradientUnits="userSpaceOnUse">
<stop offset="0.04" stop-color="#9F19AB"/>
<stop offset="0.24" stop-color="#AE25B1"/>
<stop offset="0.65" stop-color="#D744BF"/>
<stop offset="1" stop-color="#FF63CE"/>
</linearGradient>
<linearGradient id="paint18_linear" x1="504741" y1="793.506" x2="504663" y2="793.506" gradientUnits="userSpaceOnUse">
<stop stop-color="#8A1694"/>
<stop offset="0.1" stop-color="#A729A3"/>
<stop offset="0.24" stop-color="#CD41B7"/>
<stop offset="0.35" stop-color="#E450C3"/>
<stop offset="0.42" stop-color="#EC55C7"/>
<stop offset="0.59" stop-color="#FF7AE1"/>
<stop offset="0.77" stop-color="#E24DC3"/>
<stop offset="1" stop-color="#9F19AB"/>
</linearGradient>
<linearGradient id="paint19_linear" x1="-70995.6" y1="789.368" x2="-69862.9" y2="789.368" gradientUnits="userSpaceOnUse">
<stop offset="0.04" stop-color="#9F19AB"/>
<stop offset="0.24" stop-color="#AE25B1"/>
<stop offset="0.65" stop-color="#D744BF"/>
<stop offset="1" stop-color="#FF63CE"/>
</linearGradient>
<radialGradient id="paint20_radial" cx="0" cy="0" r="1" gradientUnits="userSpaceOnUse" gradientTransform="translate(-35536.7 420.363) scale(67.0722 37.9983)">
<stop stop-color="#818181"/>
<stop offset="0.2" stop-color="#9B9B9B"/>
<stop offset="1" stop-color="white"/>
</radialGradient>
<linearGradient id="paint21_linear" x1="347922" y1="503.466" x2="347889" y2="610.558" gradientUnits="userSpaceOnUse">
<stop offset="0.02" stop-color="#DEDDE0"/>
<stop offset="0.12" stop-color="#ECECED"/>
<stop offset="0.25" stop-color="#FAF9FA"/>
<stop offset="0.37" stop-color="#FEFEFE"/>
<stop offset="0.54" stop-color="#F9F8FA"/>
<stop offset="1" stop-color="#EEEBF2"/>
</linearGradient>
<linearGradient id="paint22_linear" x1="346045" y1="586.514" x2="346096" y2="446.967" gradientUnits="userSpaceOnUse">
<stop stop-color="#F0EFF1"/>
<stop offset="0.18" stop-color="#FAF9FA"/>
<stop offset="0.37" stop-color="#FEFEFE"/>
<stop offset="0.54" stop-color="#F9F8FA"/>
<stop offset="1" stop-color="#EEEBF2"/>
</linearGradient>
<linearGradient id="paint23_linear" x1="2368.58" y1="431.449" x2="2625.99" y2="361.748" gradientUnits="userSpaceOnUse">
<stop offset="0.04" stop-color="#FFA98C"/>
<stop offset="0.32" stop-color="#FFB892"/>
<stop offset="0.86" stop-color="#FEE1A3"/>
<stop offset="1" stop-color="#FEECA8"/>
</linearGradient>
<linearGradient id="paint24_linear" x1="5690.12" y1="652.932" x2="5629.52" y2="797.945" gradientUnits="userSpaceOnUse">
<stop offset="0.02" stop-color="#F9B696"/>
<stop offset="0.72" stop-color="#FFDAA7"/>
<stop offset="1" stop-color="#FFBB96"/>
</linearGradient>
<linearGradient id="paint25_linear" x1="5730.02" y1="373.515" x2="5641.24" y2="660.382" gradientUnits="userSpaceOnUse">
<stop offset="0.04" stop-color="#FFA98C"/>
<stop offset="0.32" stop-color="#FFB892"/>
<stop offset="0.86" stop-color="#FEE1A3"/>
<stop offset="1" stop-color="#FEECA8"/>
</linearGradient>
<linearGradient id="paint26_linear" x1="7388.63" y1="427.613" x2="7667.63" y2="347.609" gradientUnits="userSpaceOnUse">
<stop offset="0.04" stop-color="#9D9EB3"/>
<stop offset="0.58" stop-color="#D4D1D8"/>
<stop offset="1" stop-color="#EEEBF2"/>
</linearGradient>
<linearGradient id="paint27_linear" x1="2479.59" y1="439.066" x2="2776.43" y2="353.782" gradientUnits="userSpaceOnUse">
<stop offset="0.04" stop-color="#FFA98C"/>
<stop offset="0.32" stop-color="#FFB892"/>
<stop offset="0.86" stop-color="#FEE1A3"/>
<stop offset="1" stop-color="#FEECA8"/>
</linearGradient>
<linearGradient id="paint28_linear" x1="197.886" y1="123.034" x2="252.635" y2="123.034" gradientUnits="userSpaceOnUse">
<stop offset="0.01" stop-color="#F9B69E"/>
<stop offset="0.81" stop-color="#FDD7C2"/>
<stop offset="1" stop-color="#FEDFCB"/>
</linearGradient>
<linearGradient id="paint29_linear" x1="236.489" y1="149.287" x2="256.481" y2="145.019" gradientUnits="userSpaceOnUse">
<stop offset="0.09" stop-color="#10054D"/>
<stop offset="0.89" stop-color="#270656"/>
</linearGradient>
<linearGradient id="paint30_linear" x1="6664.98" y1="3808.91" x2="7581.04" y2="2278.17" gradientUnits="userSpaceOnUse">
<stop offset="0.04" stop-color="#6B24D6"/>
<stop offset="0.29" stop-color="#7733DC"/>
<stop offset="0.79" stop-color="#975CED"/>
<stop offset="1" stop-color="#A56EF4"/>
</linearGradient>
<linearGradient id="paint31_linear" x1="3941.07" y1="1102.54" x2="4715.21" y2="756.901" gradientUnits="userSpaceOnUse">
<stop offset="0.04" stop-color="#6B24D6"/>
<stop offset="0.29" stop-color="#7733DC"/>
<stop offset="0.79" stop-color="#975CED"/>
<stop offset="1" stop-color="#A56EF4"/>
</linearGradient>
<linearGradient id="paint32_linear" x1="3037.62" y1="1146.44" x2="4054.54" y2="809.043" gradientUnits="userSpaceOnUse">
<stop offset="0.04" stop-color="#6B24D6"/>
<stop offset="0.29" stop-color="#7733DC"/>
<stop offset="0.79" stop-color="#975CED"/>
<stop offset="1" stop-color="#A56EF4"/>
</linearGradient>
<linearGradient id="paint33_linear" x1="3941.07" y1="1085.56" x2="4715.21" y2="739.92" gradientUnits="userSpaceOnUse">
<stop offset="0.04" stop-color="#9F19AB"/>
<stop offset="0.24" stop-color="#AE25B1"/>
<stop offset="0.65" stop-color="#D744BF"/>
<stop offset="1" stop-color="#FF63CE"/>
</linearGradient>
<linearGradient id="paint34_linear" x1="3037.62" y1="1128.25" x2="4054.25" y2="790.476" gradientUnits="userSpaceOnUse">
<stop offset="0.04" stop-color="#9F19AB"/>
<stop offset="0.24" stop-color="#AE25B1"/>
<stop offset="0.65" stop-color="#D744BF"/>
<stop offset="1" stop-color="#FF63CE"/>
</linearGradient>
<linearGradient id="paint35_linear" x1="8207.9" y1="693.534" x2="7856.23" y2="1846.59" gradientUnits="userSpaceOnUse">
<stop offset="0.04" stop-color="#9F19AB"/>
<stop offset="0.24" stop-color="#AE25B1"/>
<stop offset="0.65" stop-color="#D744BF"/>
<stop offset="1" stop-color="#FF63CE"/>
</linearGradient>
<linearGradient id="paint36_linear" x1="-12361.1" y1="13149" x2="-12272" y2="13181.8" gradientUnits="userSpaceOnUse">
<stop offset="0.01" stop-color="#F9B69E"/>
<stop offset="0.81" stop-color="#FDD7C2"/>
<stop offset="1" stop-color="#FEDFCB"/>
</linearGradient>
<linearGradient id="paint37_linear" x1="251.526" y1="78.4781" x2="258.327" y2="74.57" gradientUnits="userSpaceOnUse">
<stop stop-color="#D4D1D8"/>
<stop offset="1" stop-color="white"/>
</linearGradient>
<linearGradient id="paint38_linear" x1="5593.22" y1="2056.76" x2="6445.86" y2="2056.76" gradientUnits="userSpaceOnUse">
<stop offset="0.01" stop-color="#F9B69E"/>
<stop offset="0.81" stop-color="#FDD7C2"/>
<stop offset="1" stop-color="#FEDFCB"/>
</linearGradient>
<linearGradient id="paint39_linear" x1="5608.51" y1="1258.34" x2="6561.78" y2="1258.34" gradientUnits="userSpaceOnUse">
<stop offset="0.09" stop-color="#10054D"/>
<stop offset="0.89" stop-color="#270656"/>
</linearGradient>
<linearGradient id="paint40_linear" x1="28451.8" y1="-10141.6" x2="28571.9" y2="-10141.6" gradientUnits="userSpaceOnUse">
<stop offset="0.09" stop-color="#10054D"/>
<stop offset="0.89" stop-color="#270656"/>
</linearGradient>
<linearGradient id="paint41_linear" x1="1884.24" y1="745.771" x2="1695.18" y2="792.458" gradientUnits="userSpaceOnUse">
<stop offset="0.04" stop-color="#138BBD"/>
<stop offset="0.23" stop-color="#169AC7"/>
<stop offset="0.59" stop-color="#1FC3DF"/>
<stop offset="1" stop-color="#2AF6FF"/>
</linearGradient>
<linearGradient id="paint42_linear" x1="2313.09" y1="340.817" x2="2449.28" y2="340.817" gradientUnits="userSpaceOnUse">
<stop offset="0.01" stop-color="#F9B69E"/>
<stop offset="0.81" stop-color="#FDD7C2"/>
<stop offset="1" stop-color="#FEDFCB"/>
</linearGradient>
<linearGradient id="paint43_linear" x1="3151.65" y1="1752.65" x2="3791.91" y2="1516.98" gradientUnits="userSpaceOnUse">
<stop offset="0.04" stop-color="#138BBD"/>
<stop offset="0.23" stop-color="#169AC7"/>
<stop offset="0.59" stop-color="#1FC3DF"/>
<stop offset="1" stop-color="#2AF6FF"/>
</linearGradient>
<linearGradient id="paint44_linear" x1="-37918.5" y1="42236.8" x2="-37685.6" y2="41806.3" gradientUnits="userSpaceOnUse">
<stop offset="0.04" stop-color="#138BBD"/>
<stop offset="0.23" stop-color="#169AC7"/>
<stop offset="0.59" stop-color="#1FC3DF"/>
<stop offset="1" stop-color="#2AF6FF"/>
</linearGradient>
<radialGradient id="paint45_radial" cx="0" cy="0" r="1" gradientUnits="userSpaceOnUse" gradientTransform="translate(213.292 31.9243) scale(19.3873 25.2035)">
<stop stop-color="#FDD65B"/>
<stop offset="1" stop-color="#FFA98C"/>
</radialGradient>
<linearGradient id="paint46_linear" x1="1074.55" y1="1774.19" x2="1132.91" y2="1771.07" gradientUnits="userSpaceOnUse">
<stop offset="0.04" stop-color="#9F19AB"/>
<stop offset="0.24" stop-color="#AE25B1"/>
<stop offset="0.65" stop-color="#D744BF"/>
<stop offset="1" stop-color="#FF63CE"/>
</linearGradient>
<linearGradient id="paint47_linear" x1="3396.71" y1="2449.54" x2="4865.26" y2="2250.42" gradientUnits="userSpaceOnUse">
<stop offset="0.04" stop-color="#9F19AB"/>
<stop offset="0.24" stop-color="#AE25B1"/>
<stop offset="0.65" stop-color="#D744BF"/>
<stop offset="1" stop-color="#FF63CE"/>
</linearGradient>
<linearGradient id="paint48_linear" x1="3803.04" y1="533.605" x2="3780.26" y2="607.49" gradientUnits="userSpaceOnUse">
<stop offset="0.04" stop-color="#9F19AB"/>
<stop offset="0.24" stop-color="#AE25B1"/>
<stop offset="0.65" stop-color="#D744BF"/>
<stop offset="1" stop-color="#FF63CE"/>
</linearGradient>
<linearGradient id="paint49_linear" x1="903.732" y1="4164.39" x2="919.995" y2="4164.39" gradientUnits="userSpaceOnUse">
<stop stop-color="#8A92B3"/>
<stop offset="0.06" stop-color="#8E95B6"/>
<stop offset="0.13" stop-color="#9C9EBE"/>
<stop offset="0.2" stop-color="#B1ACCB"/>
<stop offset="0.25" stop-color="#C7BAD8"/>
<stop offset="0.33" stop-color="#B2AACC"/>
<stop offset="0.45" stop-color="#9A97BE"/>
<stop offset="0.56" stop-color="#8B8CB6"/>
<stop offset="0.65" stop-color="#8688B3"/>
<stop offset="0.85" stop-color="#AAABCB"/>
<stop offset="1" stop-color="#9396B3"/>
</linearGradient>
<linearGradient id="paint50_linear" x1="748.341" y1="4707.35" x2="764.529" y2="4707.35" gradientUnits="userSpaceOnUse">
<stop stop-color="#8A92B3"/>
<stop offset="0.06" stop-color="#8E95B6"/>
<stop offset="0.13" stop-color="#9C9EBE"/>
<stop offset="0.2" stop-color="#B1ACCB"/>
<stop offset="0.25" stop-color="#C7BAD8"/>
<stop offset="0.33" stop-color="#B2AACC"/>
<stop offset="0.45" stop-color="#9A97BE"/>
<stop offset="0.56" stop-color="#8B8CB6"/>
<stop offset="0.65" stop-color="#8688B3"/>
<stop offset="0.85" stop-color="#AAABCB"/>
<stop offset="1" stop-color="#9396B3"/>
</linearGradient>
<linearGradient id="paint51_linear" x1="909.84" y1="972.833" x2="929.77" y2="1013.53" gradientUnits="userSpaceOnUse">
<stop stop-color="#4C4C4C"/>
<stop offset="1" stop-color="white"/>
</linearGradient>
<linearGradient id="paint52_linear" x1="756.473" y1="4035.07" x2="756.473" y2="4281.65" gradientUnits="userSpaceOnUse">
<stop stop-color="#4C4C4C"/>
<stop offset="1" stop-color="white"/>
</linearGradient>
<linearGradient id="paint53_linear" x1="409.106" y1="3496.15" x2="425.294" y2="3496.15" gradientUnits="userSpaceOnUse">
<stop stop-color="#8A92B3"/>
<stop offset="0.06" stop-color="#8E95B6"/>
<stop offset="0.13" stop-color="#9C9EBE"/>
<stop offset="0.2" stop-color="#B1ACCB"/>
<stop offset="0.25" stop-color="#C7BAD8"/>
<stop offset="0.33" stop-color="#B2AACC"/>
<stop offset="0.45" stop-color="#9A97BE"/>
<stop offset="0.56" stop-color="#8B8CB6"/>
<stop offset="0.65" stop-color="#8688B3"/>
<stop offset="0.85" stop-color="#AAABCB"/>
<stop offset="1" stop-color="#9396B3"/>
</linearGradient>
<linearGradient id="paint54_linear" x1="11895.6" y1="6268.29" x2="12038.5" y2="3526" gradientUnits="userSpaceOnUse">
<stop stop-color="#45108A"/>
<stop offset="1" stop-color="#7C1DC9"/>
</linearGradient>
<linearGradient id="paint55_linear" x1="12859.7" y1="3057.96" x2="12439.4" y2="5696.39" gradientUnits="userSpaceOnUse">
<stop stop-color="#45108A"/>
<stop offset="1" stop-color="#7C1DC9"/>
</linearGradient>
<radialGradient id="paint56_radial" cx="0" cy="0" r="1" gradientUnits="userSpaceOnUse" gradientTransform="translate(455399 3470.65) scale(3007.96 1178.64)">
<stop stop-color="white"/>
<stop offset="1"/>
</radialGradient>
<radialGradient id="paint57_radial" cx="0" cy="0" r="1" gradientUnits="userSpaceOnUse" gradientTransform="translate(-38588.5 10450.8) scale(20.0072 31.2047)">
<stop stop-color="#972A74"/>
<stop offset="0.04" stop-color="#8A266A"/>
<stop offset="0.19" stop-color="#601B4A"/>
<stop offset="0.35" stop-color="#3D112F"/>
<stop offset="0.51" stop-color="#230A1B"/>
<stop offset="0.67" stop-color="#0F040C"/>
<stop offset="0.83" stop-color="#040103"/>
<stop offset="1"/>
</radialGradient>
<linearGradient id="paint58_linear" x1="479.852" y1="1137.59" x2="495.095" y2="1136.91" gradientUnits="userSpaceOnUse">
<stop stop-color="#45108A"/>
<stop offset="1" stop-color="#7C1DC9"/>
</linearGradient>
<linearGradient id="paint59_linear" x1="8458.99" y1="3347.73" x2="8617.89" y2="1775.45" gradientUnits="userSpaceOnUse">
<stop stop-color="#45108A"/>
<stop offset="1" stop-color="#7C1DC9"/>
</linearGradient>
<linearGradient id="paint60_linear" x1="8996.44" y1="2138.77" x2="8895.31" y2="2473.94" gradientUnits="userSpaceOnUse">
<stop stop-color="#45108A"/>
<stop offset="1" stop-color="#7C1DC9"/>
</linearGradient>
<radialGradient id="paint61_radial" cx="0" cy="0" r="1" gradientUnits="userSpaceOnUse" gradientTransform="translate(248.573 1048.94) scale(2.08857 70.0992)">
<stop stop-color="white"/>
<stop offset="1"/>
</radialGradient>
<linearGradient id="paint62_linear" x1="87371.4" y1="946.151" x2="87649.9" y2="870.921" gradientUnits="userSpaceOnUse">
<stop offset="0.04" stop-color="#9F19AB"/>
<stop offset="0.24" stop-color="#AE25B1"/>
<stop offset="0.65" stop-color="#D744BF"/>
<stop offset="1" stop-color="#FF63CE"/>
</linearGradient>
<linearGradient id="paint63_linear" x1="221242" y1="1599.79" x2="221175" y2="1757.39" gradientUnits="userSpaceOnUse">
<stop offset="0.03" stop-color="#B82CB4"/>
<stop offset="0.54" stop-color="#DE4AC2"/>
<stop offset="0.72" stop-color="#EC55C7"/>
<stop offset="1" stop-color="#D644BF"/>
</linearGradient>
<linearGradient id="paint64_linear" x1="217450" y1="1184.19" x2="217353" y2="1496.95" gradientUnits="userSpaceOnUse">
<stop offset="0.04" stop-color="#9F19AB"/>
<stop offset="0.24" stop-color="#AE25B1"/>
<stop offset="0.65" stop-color="#D744BF"/>
<stop offset="1" stop-color="#FF63CE"/>
</linearGradient>
<linearGradient id="paint65_linear" x1="96520.6" y1="937.436" x2="96823.3" y2="851.246" gradientUnits="userSpaceOnUse">
<stop offset="0.04" stop-color="#9D9EB3"/>
<stop offset="0.58" stop-color="#D4D1D8"/>
<stop offset="1" stop-color="#EEEBF2"/>
</linearGradient>
<linearGradient id="paint66_linear" x1="92821.6" y1="951.189" x2="93143.3" y2="858.505" gradientUnits="userSpaceOnUse">
<stop offset="0.04" stop-color="#9F19AB"/>
<stop offset="0.24" stop-color="#AE25B1"/>
<stop offset="0.65" stop-color="#D744BF"/>
<stop offset="1" stop-color="#FF63CE"/>
</linearGradient>
<linearGradient id="paint67_linear" x1="507371" y1="1889.01" x2="507292" y2="1889.01" gradientUnits="userSpaceOnUse">
<stop stop-color="#8A1694"/>
<stop offset="0.1" stop-color="#A729A3"/>
<stop offset="0.24" stop-color="#CD41B7"/>
<stop offset="0.35" stop-color="#E450C3"/>
<stop offset="0.42" stop-color="#EC55C7"/>
<stop offset="0.59" stop-color="#FF7AE1"/>
<stop offset="0.77" stop-color="#E24DC3"/>
<stop offset="1" stop-color="#9F19AB"/>
</linearGradient>
<linearGradient id="paint68_linear" x1="-73836.4" y1="1885.87" x2="-72704.5" y2="1885.87" gradientUnits="userSpaceOnUse">
<stop offset="0.04" stop-color="#9F19AB"/>
<stop offset="0.24" stop-color="#AE25B1"/>
<stop offset="0.65" stop-color="#D744BF"/>
<stop offset="1" stop-color="#FF63CE"/>
</linearGradient>
<radialGradient id="paint69_radial" cx="0" cy="0" r="1" gradientUnits="userSpaceOnUse" gradientTransform="translate(-37014.6 978.498) scale(67.0722 38.0759)">
<stop stop-color="#818181"/>
<stop offset="0.2" stop-color="#9B9B9B"/>
<stop offset="1" stop-color="white"/>
</radialGradient>
<linearGradient id="paint70_linear" x1="349686" y1="1219.41" x2="349653" y2="1325.82" gradientUnits="userSpaceOnUse">
<stop offset="0.02" stop-color="#DEDDE0"/>
<stop offset="0.12" stop-color="#ECECED"/>
<stop offset="0.25" stop-color="#FAF9FA"/>
<stop offset="0.37" stop-color="#FEFEFE"/>
<stop offset="0.54" stop-color="#F9F8FA"/>
<stop offset="1" stop-color="#EEEBF2"/>
</linearGradient>
<linearGradient id="paint71_linear" x1="347232" y1="1389.29" x2="347282" y2="1250.74" gradientUnits="userSpaceOnUse">
<stop stop-color="#F0EFF1"/>
<stop offset="0.18" stop-color="#FAF9FA"/>
<stop offset="0.37" stop-color="#FEFEFE"/>
<stop offset="0.54" stop-color="#F9F8FA"/>
<stop offset="1" stop-color="#EEEBF2"/>
</linearGradient>
<linearGradient id="paint72_linear" x1="87371.4" y1="917.645" x2="87649.9" y2="842.416" gradientUnits="userSpaceOnUse">
<stop offset="0.04" stop-color="#6B24D6"/>
<stop offset="0.29" stop-color="#7733DC"/>
<stop offset="0.79" stop-color="#975CED"/>
<stop offset="1" stop-color="#A56EF4"/>
</linearGradient>
<linearGradient id="paint73_linear" x1="221090" y1="1538.56" x2="221024" y2="1695.45" gradientUnits="userSpaceOnUse">
<stop offset="0.04" stop-color="#5918A6"/>
<stop offset="0.72" stop-color="#7C1DC9"/>
<stop offset="1" stop-color="#6519B0"/>
</linearGradient>
<linearGradient id="paint74_linear" x1="217450" y1="1138.02" x2="217353" y2="1450.79" gradientUnits="userSpaceOnUse">
<stop offset="0.04" stop-color="#6B24D6"/>
<stop offset="0.29" stop-color="#7733DC"/>
<stop offset="0.79" stop-color="#975CED"/>
<stop offset="1" stop-color="#A56EF4"/>
</linearGradient>
<linearGradient id="paint75_linear" x1="96470.3" y1="901.823" x2="96772.4" y2="814.954" gradientUnits="userSpaceOnUse">
<stop offset="0.04" stop-color="#9D9EB3"/>
<stop offset="0.58" stop-color="#D4D1D8"/>
<stop offset="1" stop-color="#EEEBF2"/>
</linearGradient>
<linearGradient id="paint76_linear" x1="92821.6" y1="924.643" x2="93143.4" y2="832.157" gradientUnits="userSpaceOnUse">
<stop offset="0.04" stop-color="#6B24D6"/>
<stop offset="0.29" stop-color="#7733DC"/>
<stop offset="0.79" stop-color="#975CED"/>
<stop offset="1" stop-color="#A56EF4"/>
</linearGradient>
<linearGradient id="paint77_linear" x1="165523" y1="1169.27" x2="165523" y2="1117.44" gradientUnits="userSpaceOnUse">
<stop offset="0.09" stop-color="#25054D"/>
<stop offset="0.47" stop-color="#330A68"/>
<stop offset="0.89" stop-color="#45108A"/>
</linearGradient>
<linearGradient id="paint78_linear" x1="1222.81" y1="4426.03" x2="942.513" y2="3722.31" gradientUnits="userSpaceOnUse">
<stop offset="0.04" stop-color="#138BBD"/>
<stop offset="0.23" stop-color="#169AC7"/>
<stop offset="0.59" stop-color="#1FC3DF"/>
<stop offset="1" stop-color="#2AF6FF"/>
</linearGradient>
<linearGradient id="paint79_linear" x1="189707" y1="1071.65" x2="189715" y2="1016.96" gradientUnits="userSpaceOnUse">
<stop offset="0.09" stop-color="#25054D"/>
<stop offset="0.47" stop-color="#330A68"/>
<stop offset="0.89" stop-color="#45108A"/>
</linearGradient>
<linearGradient id="paint80_linear" x1="-182243" y1="4489.41" x2="-182257" y2="3783.34" gradientUnits="userSpaceOnUse">
<stop offset="0.04" stop-color="#138BBD"/>
<stop offset="0.23" stop-color="#169AC7"/>
<stop offset="0.59" stop-color="#1FC3DF"/>
<stop offset="1" stop-color="#2AF6FF"/>
</linearGradient>
<linearGradient id="paint81_linear" x1="3320.9" y1="5750.96" x2="4235.93" y2="4218.29" gradientUnits="userSpaceOnUse">
<stop offset="0.04" stop-color="#6B24D6"/>
<stop offset="0.29" stop-color="#7733DC"/>
<stop offset="0.79" stop-color="#975CED"/>
<stop offset="1" stop-color="#A56EF4"/>
</linearGradient>
<linearGradient id="paint82_linear" x1="2064.64" y1="1894.04" x2="2838.78" y2="1548.4" gradientUnits="userSpaceOnUse">
<stop offset="0.04" stop-color="#6B24D6"/>
<stop offset="0.29" stop-color="#7733DC"/>
<stop offset="0.79" stop-color="#975CED"/>
<stop offset="1" stop-color="#A56EF4"/>
</linearGradient>
<linearGradient id="paint83_linear" x1="1194.9" y1="1929.23" x2="2211.43" y2="1591.85" gradientUnits="userSpaceOnUse">
<stop offset="0.04" stop-color="#6B24D6"/>
<stop offset="0.29" stop-color="#7733DC"/>
<stop offset="0.79" stop-color="#975CED"/>
<stop offset="1" stop-color="#A56EF4"/>
</linearGradient>
<linearGradient id="paint84_linear" x1="2064.64" y1="1877.06" x2="2838.78" y2="1531.42" gradientUnits="userSpaceOnUse">
<stop offset="0.04" stop-color="#9F19AB"/>
<stop offset="0.24" stop-color="#AE25B1"/>
<stop offset="0.65" stop-color="#D744BF"/>
<stop offset="1" stop-color="#FF63CE"/>
</linearGradient>
<linearGradient id="paint85_linear" x1="1194.9" y1="1910.08" x2="2211.15" y2="1572.31" gradientUnits="userSpaceOnUse">
<stop offset="0.04" stop-color="#9F19AB"/>
<stop offset="0.24" stop-color="#AE25B1"/>
<stop offset="0.65" stop-color="#D744BF"/>
<stop offset="1" stop-color="#FF63CE"/>
</linearGradient>
<linearGradient id="paint86_linear" x1="4646.96" y1="1982.38" x2="4294.79" y2="3135.6" gradientUnits="userSpaceOnUse">
<stop offset="0.04" stop-color="#9F19AB"/>
<stop offset="0.24" stop-color="#AE25B1"/>
<stop offset="0.65" stop-color="#D744BF"/>
<stop offset="1" stop-color="#FF63CE"/>
</linearGradient>
<radialGradient id="paint87_radial" cx="0" cy="0" r="1" gradientUnits="userSpaceOnUse" gradientTransform="translate(14444.6 -15957.7) scale(47.965 15.5049)">
<stop offset="0.03" stop-color="#FEDFCB"/>
<stop offset="0.78" stop-color="#F9B69E"/>
<stop offset="0.99" stop-color="#F2A78C"/>
</radialGradient>
<radialGradient id="paint88_radial" cx="0" cy="0" r="1" gradientUnits="userSpaceOnUse" gradientTransform="translate(-18228 -35197.1) scale(102.876 54.6314)">
<stop offset="0.03" stop-color="#FEDFCB"/>
<stop offset="1" stop-color="#F9B69E"/>
</radialGradient>
<linearGradient id="paint89_linear" x1="-299758" y1="13354.3" x2="-300465" y2="13389.7" gradientUnits="userSpaceOnUse">
<stop offset="0.04" stop-color="#6B24D6"/>
<stop offset="0.29" stop-color="#7733DC"/>
<stop offset="0.79" stop-color="#975CED"/>
<stop offset="1" stop-color="#A56EF4"/>
</linearGradient>
<linearGradient id="paint90_linear" x1="3044.1" y1="2361.18" x2="2979.23" y2="2204.47" gradientUnits="userSpaceOnUse">
<stop offset="0.04" stop-color="#138BBD"/>
<stop offset="0.23" stop-color="#169AC7"/>
<stop offset="0.59" stop-color="#1FC3DF"/>
<stop offset="1" stop-color="#2AF6FF"/>
</linearGradient>
<linearGradient id="paint91_linear" x1="3240.24" y1="2461.5" x2="3242.3" y2="2086.61" gradientUnits="userSpaceOnUse">
<stop offset="0.04" stop-color="#138BBD"/>
<stop offset="0.23" stop-color="#169AC7"/>
<stop offset="0.59" stop-color="#1FC3DF"/>
<stop offset="1" stop-color="#2AF6FF"/>
</linearGradient>
<radialGradient id="paint92_radial" cx="0" cy="0" r="1" gradientUnits="userSpaceOnUse" gradientTransform="translate(-109569 248.253) rotate(-171.384) scale(145.707 198.918)">
<stop offset="0.03" stop-color="#FEDFCB"/>
<stop offset="1" stop-color="#F9B69E"/>
</radialGradient>
<linearGradient id="paint93_linear" x1="132099" y1="14711.6" x2="131990" y2="14526.4" gradientUnits="userSpaceOnUse">
<stop offset="0.04" stop-color="#602213"/>
<stop offset="0.57" stop-color="#6D310E"/>
<stop offset="1" stop-color="#7A4108"/>
</linearGradient>
<linearGradient id="paint94_linear" x1="-1773.07" y1="36827.3" x2="-1123.94" y2="36332" gradientUnits="userSpaceOnUse">
<stop offset="0.04" stop-color="#6B24D6"/>
<stop offset="0.29" stop-color="#7733DC"/>
<stop offset="0.79" stop-color="#975CED"/>
<stop offset="1" stop-color="#A56EF4"/>
</linearGradient>
<linearGradient id="paint95_linear" x1="1228.85" y1="965.579" x2="1125.94" y2="860.44" gradientUnits="userSpaceOnUse">
<stop offset="0.04" stop-color="#9D9EB3"/>
<stop offset="0.58" stop-color="#D4D1D8"/>
<stop offset="1" stop-color="#EEEBF2"/>
</linearGradient>
<radialGradient id="paint96_radial" cx="0" cy="0" r="1" gradientUnits="userSpaceOnUse" gradientTransform="translate(-27520.7 -13285.3) rotate(-157.13) scale(37.8389 36.5686)">
<stop offset="0.03" stop-color="#FEDFCB"/>
<stop offset="0.78" stop-color="#F9B69E"/>
<stop offset="0.99" stop-color="#F2A78C"/>
</radialGradient>
<radialGradient id="paint97_radial" cx="0" cy="0" r="1" gradientUnits="userSpaceOnUse" gradientTransform="translate(-52176.3 -57280.5) rotate(-123.77) scale(101.655 70.2819)">
<stop offset="0.03" stop-color="#FEDFCB"/>
<stop offset="1" stop-color="#F9B69E"/>
</radialGradient>
<linearGradient id="paint98_linear" x1="3786.4" y1="-10938.2" x2="3825.06" y2="-11219.1" gradientUnits="userSpaceOnUse">
<stop offset="0.04" stop-color="#6B24D6"/>
<stop offset="0.29" stop-color="#7733DC"/>
<stop offset="0.79" stop-color="#975CED"/>
<stop offset="1" stop-color="#A56EF4"/>
</linearGradient>
<linearGradient id="paint99_linear" x1="488.402" y1="3280.75" x2="545.654" y2="3277.75" gradientUnits="userSpaceOnUse">
<stop offset="0.04" stop-color="#9F19AB"/>
<stop offset="0.24" stop-color="#AE25B1"/>
<stop offset="0.65" stop-color="#D744BF"/>
<stop offset="1" stop-color="#FF63CE"/>
</linearGradient>
<linearGradient id="paint100_linear" x1="1269.97" y1="4507.64" x2="2738.51" y2="4308.52" gradientUnits="userSpaceOnUse">
<stop offset="0.04" stop-color="#9F19AB"/>
<stop offset="0.24" stop-color="#AE25B1"/>
<stop offset="0.65" stop-color="#D744BF"/>
<stop offset="1" stop-color="#FF63CE"/>
</linearGradient>
<linearGradient id="paint101_linear" x1="1836.43" y1="1268.02" x2="1813.85" y2="1341.78" gradientUnits="userSpaceOnUse">
<stop offset="0.04" stop-color="#9F19AB"/>
<stop offset="0.24" stop-color="#AE25B1"/>
<stop offset="0.65" stop-color="#D744BF"/>
<stop offset="1" stop-color="#FF63CE"/>
</linearGradient>
</defs>
</svg>
