<svg width="254" height="3228" viewBox="0 0 254 3228" fill="none" xmlns="http://www.w3.org/2000/svg">
<path d="M127.001 80.5C220.667 148 351.801 330.5 127.001 520.5C-97.7993 710.5 33.334 909.333 127.001 985" stroke="#A100FF" stroke-width="5"/>
<path d="M127.001 992C220.667 1059.5 351.801 1242 127.001 1432C-97.7993 1622 33.334 1820.83 127.001 1896.5" stroke="#A100FF" stroke-width="5"/>
<path d="M127.001 1876C220.667 1943.5 351.801 2126 127.001 2316C-97.7993 2506 33.334 2704.83 127.001 2780.5" stroke="#A100FF" stroke-width="5"/>
<path d="M127 2754C220.667 2821.5 351.8 3004 127 3194" stroke="#A100FF" stroke-width="5"/>
<circle cx="122.5" cy="80.5" r="80.5" fill="white" fill-opacity="0.05"/>
<circle cx="122.5" cy="520.5" r="80.5" fill="white" fill-opacity="0.05"/>
<circle cx="126" cy="82" r="50" fill="white"/>
<path d="M97.536 80.952C97.536 75.416 98.704 71.064 101.04 67.896C103.408 64.728 107.04 63.144 111.936 63.144C116.8 63.144 120.416 64.744 122.784 67.944C125.152 71.112 126.336 75.448 126.336 80.952C126.336 86.488 125.152 90.856 122.784 94.056C120.416 97.224 116.8 98.808 111.936 98.808C107.04 98.808 103.408 97.224 101.04 94.056C98.704 90.856 97.536 86.488 97.536 80.952ZM115.824 80.952C115.824 78.392 115.568 76.472 115.056 75.192C114.544 73.88 113.504 73.224 111.936 73.224C110.336 73.224 109.28 73.88 108.768 75.192C108.256 76.472 108 78.392 108 80.952C108 83.544 108.256 85.496 108.768 86.808C109.28 88.088 110.336 88.728 111.936 88.728C113.504 88.728 114.544 88.088 115.056 86.808C115.568 85.496 115.824 83.544 115.824 80.952ZM130.661 73.896V63.912H146.933V99H135.749V73.896H130.661Z" fill="#A100FF"/>
<circle cx="121" cy="520" r="52" fill="white"/>
<path d="M91.536 519.952C91.536 514.416 92.704 510.064 95.04 506.896C97.408 503.728 101.04 502.144 105.936 502.144C110.8 502.144 114.416 503.744 116.784 506.944C119.152 510.112 120.336 514.448 120.336 519.952C120.336 525.488 119.152 529.856 116.784 533.056C114.416 536.224 110.8 537.808 105.936 537.808C101.04 537.808 97.408 536.224 95.04 533.056C92.704 529.856 91.536 525.488 91.536 519.952ZM109.824 519.952C109.824 517.392 109.568 515.472 109.056 514.192C108.544 512.88 107.504 512.224 105.936 512.224C104.336 512.224 103.28 512.88 102.768 514.192C102.256 515.472 102 517.392 102 519.952C102 522.544 102.256 524.496 102.768 525.808C103.28 527.088 104.336 527.728 105.936 527.728C107.504 527.728 108.544 527.088 109.056 525.808C109.568 524.496 109.824 522.544 109.824 519.952ZM125.525 529.504C129.813 526.304 133.205 523.408 135.701 520.816C138.197 518.192 139.445 515.744 139.445 513.472C139.445 512.704 139.269 512.112 138.917 511.696C138.597 511.28 138.165 511.072 137.621 511.072C136.981 511.072 136.469 511.408 136.085 512.08C135.733 512.72 135.605 513.712 135.701 515.056H125.381C125.477 512.08 126.117 509.632 127.301 507.712C128.517 505.792 130.085 504.384 132.005 503.488C133.925 502.592 136.037 502.144 138.341 502.144C142.437 502.144 145.429 503.136 147.317 505.12C149.237 507.072 150.197 509.584 150.197 512.656C150.197 515.888 149.157 518.928 147.077 521.776C145.029 524.592 142.453 526.976 139.349 528.928H150.341V537.52H125.525V529.504Z" fill="#A100FF"/>
<circle cx="116.5" cy="980.5" r="80.5" fill="white" fill-opacity="0.05"/>
<circle cx="122.5" cy="1416.5" r="80.5" fill="white" fill-opacity="0.05"/>
<circle cx="120" cy="982" r="50" fill="white"/>
<circle cx="121" cy="1416" r="52" fill="white"/>
<path d="M91.536 980.952C91.536 975.416 92.704 971.064 95.04 967.896C97.408 964.728 101.04 963.144 105.936 963.144C110.8 963.144 114.416 964.744 116.784 967.944C119.152 971.112 120.336 975.448 120.336 980.952C120.336 986.488 119.152 990.856 116.784 994.056C114.416 997.224 110.8 998.808 105.936 998.808C101.04 998.808 97.408 997.224 95.04 994.056C92.704 990.856 91.536 986.488 91.536 980.952ZM109.824 980.952C109.824 978.392 109.568 976.472 109.056 975.192C108.544 973.88 107.504 973.224 105.936 973.224C104.336 973.224 103.28 973.88 102.768 975.192C102.256 976.472 102 978.392 102 980.952C102 983.544 102.256 985.496 102.768 986.808C103.28 988.088 104.336 988.728 105.936 988.728C107.504 988.728 108.544 988.088 109.056 986.808C109.568 985.496 109.824 983.544 109.824 980.952ZM126.341 974.904C126.437 971.096 127.541 968.184 129.653 966.168C131.797 964.152 134.821 963.144 138.725 963.144C141.253 963.144 143.413 963.576 145.205 964.44C146.997 965.304 148.341 966.472 149.237 967.944C150.165 969.416 150.629 971.08 150.629 972.936C150.629 975.176 150.101 976.936 149.045 978.216C147.989 979.464 146.805 980.312 145.493 980.76V980.952C149.333 982.392 151.253 985.064 151.253 988.968C151.253 991.016 150.773 992.824 149.813 994.392C148.853 995.96 147.477 997.176 145.685 998.04C143.925 998.904 141.829 999.336 139.397 999.336C135.237 999.336 131.973 998.344 129.605 996.36C127.237 994.376 126.021 991.272 125.957 987.048H136.325C136.261 988.2 136.421 989.08 136.805 989.688C137.221 990.264 137.925 990.552 138.917 990.552C139.493 990.552 139.973 990.344 140.357 989.928C140.741 989.48 140.933 988.904 140.933 988.2C140.933 987.304 140.629 986.632 140.021 986.184C139.445 985.704 138.453 985.464 137.045 985.464H135.269V976.872H136.997C139.173 977 140.261 976.136 140.261 974.28C140.261 973.48 140.085 972.888 139.733 972.504C139.413 972.12 138.997 971.928 138.485 971.928C137.301 971.928 136.709 972.92 136.709 974.904H126.341Z" fill="#A100FF"/>
<path d="M91.536 1415.95C91.536 1410.42 92.704 1406.06 95.04 1402.9C97.408 1399.73 101.04 1398.14 105.936 1398.14C110.8 1398.14 114.416 1399.74 116.784 1402.94C119.152 1406.11 120.336 1410.45 120.336 1415.95C120.336 1421.49 119.152 1425.86 116.784 1429.06C114.416 1432.22 110.8 1433.81 105.936 1433.81C101.04 1433.81 97.408 1432.22 95.04 1429.06C92.704 1425.86 91.536 1421.49 91.536 1415.95ZM109.824 1415.95C109.824 1413.39 109.568 1411.47 109.056 1410.19C108.544 1408.88 107.504 1408.22 105.936 1408.22C104.336 1408.22 103.28 1408.88 102.768 1410.19C102.256 1411.47 102 1413.39 102 1415.95C102 1418.54 102.256 1420.5 102.768 1421.81C103.28 1423.09 104.336 1423.73 105.936 1423.73C107.504 1423.73 108.544 1423.09 109.056 1421.81C109.568 1420.5 109.824 1418.54 109.824 1415.95ZM126.677 1428.72V1419.84L140.981 1399.44H152.453V1419.5H155.909V1428.72H152.453V1434H141.701V1428.72H126.677ZM142.565 1411.58L137.381 1419.5H142.565V1411.58Z" fill="#A100FF"/>
<circle cx="122.5" cy="1855.5" r="80.5" fill="white" fill-opacity="0.05"/>
<circle cx="122.5" cy="2306.5" r="80.5" fill="white" fill-opacity="0.05"/>
<circle cx="122" cy="1855" r="50" fill="white"/>
<path d="M91.536 1857.95C91.536 1852.42 92.704 1848.06 95.04 1844.9C97.408 1841.73 101.04 1840.14 105.936 1840.14C110.8 1840.14 114.416 1841.74 116.784 1844.94C119.152 1848.11 120.336 1852.45 120.336 1857.95C120.336 1863.49 119.152 1867.86 116.784 1871.06C114.416 1874.22 110.8 1875.81 105.936 1875.81C101.04 1875.81 97.408 1874.22 95.04 1871.06C92.704 1867.86 91.536 1863.49 91.536 1857.95ZM109.824 1857.95C109.824 1855.39 109.568 1853.47 109.056 1852.19C108.544 1850.88 107.504 1850.22 105.936 1850.22C104.336 1850.22 103.28 1850.88 102.768 1852.19C102.256 1853.47 102 1855.39 102 1857.95C102 1860.54 102.256 1862.5 102.768 1863.81C103.28 1865.09 104.336 1865.73 105.936 1865.73C107.504 1865.73 108.544 1865.09 109.056 1863.81C109.568 1862.5 109.824 1860.54 109.824 1857.95ZM152.213 1850.27H138.293V1854.3C138.901 1853.76 139.685 1853.33 140.645 1853.01C141.637 1852.69 142.741 1852.53 143.957 1852.53C146.133 1852.53 147.973 1853.04 149.477 1854.06C150.981 1855.09 152.101 1856.46 152.837 1858.19C153.573 1859.89 153.941 1861.78 153.941 1863.86C153.941 1867.7 152.853 1870.69 150.677 1872.83C148.533 1874.94 145.573 1876 141.797 1876C139.045 1876 136.661 1875.52 134.645 1874.56C132.661 1873.6 131.141 1872.27 130.085 1870.58C129.061 1868.88 128.581 1866.94 128.645 1864.77H139.013C139.013 1865.28 139.189 1865.76 139.541 1866.21C139.893 1866.66 140.469 1866.88 141.269 1866.88C142.069 1866.88 142.661 1866.59 143.045 1866.02C143.429 1865.44 143.621 1864.66 143.621 1863.66C143.621 1862.74 143.397 1862.03 142.949 1861.55C142.533 1861.07 141.925 1860.83 141.125 1860.83C140.453 1860.83 139.941 1860.99 139.589 1861.31C139.237 1861.63 139.061 1862 139.061 1862.42H128.693V1840.91H152.213V1850.27Z" fill="#A100FF"/>
<circle cx="121" cy="2306" r="52" fill="white"/>
<path d="M91.536 2305.95C91.536 2300.42 92.704 2296.06 95.04 2292.9C97.408 2289.73 101.04 2288.14 105.936 2288.14C110.8 2288.14 114.416 2289.74 116.784 2292.94C119.152 2296.11 120.336 2300.45 120.336 2305.95C120.336 2311.49 119.152 2315.86 116.784 2319.06C114.416 2322.22 110.8 2323.81 105.936 2323.81C101.04 2323.81 97.408 2322.22 95.04 2319.06C92.704 2315.86 91.536 2311.49 91.536 2305.95ZM109.824 2305.95C109.824 2303.39 109.568 2301.47 109.056 2300.19C108.544 2298.88 107.504 2298.22 105.936 2298.22C104.336 2298.22 103.28 2298.88 102.768 2300.19C102.256 2301.47 102 2303.39 102 2305.95C102 2308.54 102.256 2310.5 102.768 2311.81C103.28 2313.09 104.336 2313.73 105.936 2313.73C107.504 2313.73 108.544 2313.09 109.056 2311.81C109.568 2310.5 109.824 2308.54 109.824 2305.95ZM141.701 2299.57C141.509 2298.61 141.221 2297.9 140.837 2297.46C140.485 2297.01 139.925 2296.78 139.157 2296.78C137.941 2296.78 137.125 2297.41 136.709 2298.66C136.325 2299.87 136.133 2301.78 136.133 2304.37C136.709 2303.47 137.541 2302.77 138.629 2302.26C139.717 2301.74 140.949 2301.49 142.325 2301.49C145.397 2301.49 147.845 2302.43 149.669 2304.32C151.525 2306.21 152.453 2308.94 152.453 2312.53C152.453 2314.93 151.941 2317.02 150.917 2318.82C149.925 2320.58 148.501 2321.94 146.645 2322.9C144.789 2323.86 142.597 2324.34 140.069 2324.34C135.045 2324.34 131.557 2322.8 129.605 2319.73C127.653 2316.62 126.677 2312.29 126.677 2306.72C126.677 2302.37 127.125 2298.85 128.021 2296.16C128.917 2293.47 130.325 2291.49 132.245 2290.21C134.197 2288.93 136.725 2288.29 139.829 2288.29C143.637 2288.29 146.501 2289.38 148.421 2291.55C150.373 2293.73 151.445 2296.4 151.637 2299.57H141.701ZM139.685 2309.65C138.821 2309.65 138.133 2309.89 137.621 2310.37C137.109 2310.85 136.853 2311.52 136.853 2312.38C136.853 2313.34 137.093 2314.06 137.573 2314.54C138.085 2314.99 138.789 2315.22 139.685 2315.22C140.581 2315.22 141.269 2314.99 141.749 2314.54C142.261 2314.06 142.517 2313.34 142.517 2312.38C142.517 2311.52 142.261 2310.85 141.749 2310.37C141.237 2309.89 140.549 2309.65 139.685 2309.65Z" fill="#A100FF"/>
<circle cx="122.5" cy="2735.5" r="80.5" fill="white" fill-opacity="0.05"/>
<circle cx="122.5" cy="3147.5" r="80.5" fill="white" fill-opacity="0.05"/>
<circle cx="126" cy="2737" r="50" fill="white"/>
<path d="M97.536 2735.95C97.536 2730.42 98.704 2726.06 101.04 2722.9C103.408 2719.73 107.04 2718.14 111.936 2718.14C116.8 2718.14 120.416 2719.74 122.784 2722.94C125.152 2726.11 126.336 2730.45 126.336 2735.95C126.336 2741.49 125.152 2745.86 122.784 2749.06C120.416 2752.22 116.8 2753.81 111.936 2753.81C107.04 2753.81 103.408 2752.22 101.04 2749.06C98.704 2745.86 97.536 2741.49 97.536 2735.95ZM115.824 2735.95C115.824 2733.39 115.568 2731.47 115.056 2730.19C114.544 2728.88 113.504 2728.22 111.936 2728.22C110.336 2728.22 109.28 2728.88 108.768 2730.19C108.256 2731.47 108 2733.39 108 2735.95C108 2738.54 108.256 2740.5 108.768 2741.81C109.28 2743.09 110.336 2743.73 111.936 2743.73C113.504 2743.73 114.544 2743.09 115.056 2741.81C115.568 2740.5 115.824 2738.54 115.824 2735.95ZM154.277 2726.74L143.333 2754H132.389L143.429 2728.03H131.045V2718.91H154.277V2726.74Z" fill="#A100FF"/>
<circle cx="121" cy="3147" r="52" fill="white"/>
<path d="M91.536 3146.95C91.536 3141.42 92.704 3137.06 95.04 3133.9C97.408 3130.73 101.04 3129.14 105.936 3129.14C110.8 3129.14 114.416 3130.74 116.784 3133.94C119.152 3137.11 120.336 3141.45 120.336 3146.95C120.336 3152.49 119.152 3156.86 116.784 3160.06C114.416 3163.22 110.8 3164.81 105.936 3164.81C101.04 3164.81 97.408 3163.22 95.04 3160.06C92.704 3156.86 91.536 3152.49 91.536 3146.95ZM109.824 3146.95C109.824 3144.39 109.568 3142.47 109.056 3141.19C108.544 3139.88 107.504 3139.22 105.936 3139.22C104.336 3139.22 103.28 3139.88 102.768 3141.19C102.256 3142.47 102 3144.39 102 3146.95C102 3149.54 102.256 3151.5 102.768 3152.81C103.28 3154.09 104.336 3154.73 105.936 3154.73C107.504 3154.73 108.544 3154.09 109.056 3152.81C109.568 3151.5 109.824 3149.54 109.824 3146.95ZM131.333 3145.7C130.053 3144.97 129.045 3144.01 128.309 3142.82C127.605 3141.61 127.253 3140.17 127.253 3138.5C127.253 3136.78 127.717 3135.21 128.645 3133.8C129.573 3132.39 130.981 3131.27 132.869 3130.44C134.789 3129.58 137.141 3129.14 139.925 3129.14C142.709 3129.14 145.045 3129.58 146.933 3130.44C148.853 3131.27 150.277 3132.39 151.205 3133.8C152.133 3135.21 152.597 3136.78 152.597 3138.5C152.597 3140.17 152.229 3141.61 151.493 3142.82C150.789 3144.01 149.797 3144.97 148.517 3145.7C151.749 3147.59 153.365 3150.42 153.365 3154.2C153.365 3156.63 152.757 3158.7 151.541 3160.39C150.325 3162.09 148.693 3163.37 146.645 3164.23C144.597 3165.1 142.357 3165.53 139.925 3165.53C137.493 3165.53 135.253 3165.1 133.205 3164.23C131.157 3163.37 129.525 3162.09 128.309 3160.39C127.093 3158.7 126.485 3156.63 126.485 3154.2C126.485 3150.42 128.101 3147.59 131.333 3145.7ZM142.133 3140.28C142.133 3139.38 141.925 3138.68 141.509 3138.17C141.093 3137.62 140.565 3137.35 139.925 3137.35C139.285 3137.35 138.757 3137.62 138.341 3138.17C137.925 3138.68 137.717 3139.38 137.717 3140.28C137.717 3141.21 137.925 3141.91 138.341 3142.39C138.757 3142.87 139.285 3143.11 139.925 3143.11C140.565 3143.11 141.093 3142.87 141.509 3142.39C141.925 3141.91 142.133 3141.21 142.133 3140.28ZM139.925 3150.26C138.965 3150.26 138.197 3150.58 137.621 3151.22C137.077 3151.83 136.805 3152.62 136.805 3153.58C136.805 3154.54 137.077 3155.32 137.621 3155.93C138.165 3156.54 138.933 3156.84 139.925 3156.84C140.917 3156.84 141.685 3156.54 142.229 3155.93C142.773 3155.32 143.045 3154.54 143.045 3153.58C143.045 3152.62 142.757 3151.83 142.181 3151.22C141.637 3150.58 140.885 3150.26 139.925 3150.26Z" fill="#A100FF"/>
</svg>
