<svg width="23" height="19" viewBox="0 0 23 19" fill="none" xmlns="http://www.w3.org/2000/svg">
<path d="M19.95 4.51167H2.1375V3.90799L17.8125 2.84551V3.90799H19.95V2.09695C19.95 0.768851 18.6803 -0.163232 17.1299 0.023909L2.8215 1.75526C1.26968 1.94361 0 3.18357 0 4.51167V16.5853C0 17.2257 0.300267 17.8399 0.834746 18.2927C1.36922 18.7456 2.09413 19 2.85 19H19.95C20.7059 19 21.4308 18.7456 21.9653 18.2927C22.4997 17.8399 22.8 17.2257 22.8 16.5853V6.92639C22.8 6.28597 22.4997 5.67177 21.9653 5.21892C21.4308 4.76608 20.7059 4.51167 19.95 4.51167ZM17.8125 12.9704C17.5317 12.9704 17.2537 12.9234 16.9943 12.8323C16.7349 12.7412 16.4993 12.6077 16.3008 12.4394C16.1023 12.2711 15.9449 12.0714 15.8375 11.8515C15.7301 11.6317 15.6749 11.3961 15.675 11.1582C15.6751 10.9203 15.7305 10.6847 15.838 10.465C15.9456 10.2452 16.1032 10.0455 16.3018 9.87734C16.5004 9.70917 16.7362 9.57579 16.9956 9.48482C17.2551 9.39385 17.5331 9.34707 17.8139 9.34715C18.381 9.34731 18.9248 9.53833 19.3257 9.87819C19.7265 10.2181 19.9516 10.6789 19.9514 11.1594C19.9512 11.6399 19.7258 12.1006 19.3247 12.4402C18.9235 12.7799 18.3796 12.9706 17.8125 12.9704Z" fill="#206AAE"/>
</svg>
