<svg width="66" height="67" viewBox="0 0 66 67" fill="none" xmlns="http://www.w3.org/2000/svg">
<path d="M13.8516 20.2358L18.407 24.7947H25.7947L28.4398 29.1338L25.7947 32.9374L21.0388 36.1917L16.8173 38.3613L17.8727 46.504L18.7009 52.1476" stroke="url(#paint0_linear)" stroke-width="3" stroke-linecap="round" stroke-linejoin="round"/>
<path d="M51.9962 18.4102L44.9223 25.2867L36.6484 26.3314V29.9812L38.3088 34.1732H42.7178L48.229 35.7337L57.619 33.1285" stroke="url(#paint1_linear)" stroke-width="3" stroke-linecap="round" stroke-linejoin="round"/>
<path d="M54.8837 43.3283L44.7485 41.2043H40.4321L36.6484 43.4121L40.4321 49.4906L41.4702 55.7926" stroke="url(#paint2_linear)" stroke-width="3" stroke-linecap="round" stroke-linejoin="round"/>
<path d="M33.9129 56.7062C47.0053 56.7062 57.6188 46.0927 57.6188 33.0003C57.6188 19.9079 47.0053 9.29443 33.9129 9.29443C20.8205 9.29443 10.207 19.9079 10.207 33.0003C10.207 46.0927 20.8205 56.7062 33.9129 56.7062Z" stroke="url(#paint3_linear)" stroke-width="3" stroke-linecap="round" stroke-linejoin="round"/>
<path d="M63.0859 21.1475C63.4425 22.3377 63.7469 23.5555 63.9977 24.7945" stroke="url(#paint4_linear)" stroke-width="3" stroke-linecap="round" stroke-linejoin="round"/>
<path d="M33.9102 2C39.1453 1.99821 44.2996 3.24615 48.9132 5.6325C53.5268 8.01886 57.4564 11.4694 60.3513 15.6765" stroke="url(#paint5_linear)" stroke-width="3" stroke-linecap="round" stroke-linejoin="round"/>
<path d="M2 36.6485C2 35.438 2 34.2202 2 33.0015" stroke="url(#paint6_linear)" stroke-width="3" stroke-linecap="round" stroke-linejoin="round"/>
<path d="M4.73759 46.6749C3.97574 44.9156 3.36532 43.0844 2.91406 41.2043" stroke="url(#paint7_linear)" stroke-width="3" stroke-linecap="round" stroke-linejoin="round"/>
<path d="M33.9099 64.9103C28.7011 64.921 23.5686 63.6803 18.96 61.2965C14.3513 58.9128 10.4063 55.4582 7.46875 51.2339" stroke="url(#paint8_linear)" stroke-width="3" stroke-linecap="round" stroke-linejoin="round"/>
<defs>
<linearGradient id="paint0_linear" x1="28.4398" y1="36.1917" x2="13.8516" y2="36.1917" gradientUnits="userSpaceOnUse">
<stop stop-color="#4CBA85"/>
<stop offset="1" stop-color="#2569AC"/>
</linearGradient>
<linearGradient id="paint1_linear" x1="57.619" y1="27.0719" x2="36.6484" y2="27.0719" gradientUnits="userSpaceOnUse">
<stop stop-color="#4CBA85"/>
<stop offset="1" stop-color="#2569AC"/>
</linearGradient>
<linearGradient id="paint2_linear" x1="54.8837" y1="48.4985" x2="36.6484" y2="48.4985" gradientUnits="userSpaceOnUse">
<stop stop-color="#4CBA85"/>
<stop offset="1" stop-color="#2569AC"/>
</linearGradient>
<linearGradient id="paint3_linear" x1="57.6188" y1="33.0003" x2="10.207" y2="33.0003" gradientUnits="userSpaceOnUse">
<stop stop-color="#4CBA85"/>
<stop offset="1" stop-color="#2569AC"/>
</linearGradient>
<linearGradient id="paint4_linear" x1="63.9977" y1="22.971" x2="63.0859" y2="22.971" gradientUnits="userSpaceOnUse">
<stop stop-color="#4CBA85"/>
<stop offset="1" stop-color="#2569AC"/>
</linearGradient>
<linearGradient id="paint5_linear" x1="60.3513" y1="8.83823" x2="33.9102" y2="8.83823" gradientUnits="userSpaceOnUse">
<stop stop-color="#4CBA85"/>
<stop offset="1" stop-color="#2569AC"/>
</linearGradient>
<linearGradient id="paint6_linear" x1="3" y1="34.825" x2="2" y2="34.825" gradientUnits="userSpaceOnUse">
<stop stop-color="#4CBA85"/>
<stop offset="1" stop-color="#2569AC"/>
</linearGradient>
<linearGradient id="paint7_linear" x1="4.73759" y1="43.9396" x2="2.91406" y2="43.9396" gradientUnits="userSpaceOnUse">
<stop stop-color="#4CBA85"/>
<stop offset="1" stop-color="#2569AC"/>
</linearGradient>
<linearGradient id="paint8_linear" x1="33.9099" y1="58.0721" x2="7.46875" y2="58.0721" gradientUnits="userSpaceOnUse">
<stop stop-color="#4CBA85"/>
<stop offset="1" stop-color="#2569AC"/>
</linearGradient>
</defs>
</svg>
