<svg width="30" height="30" viewBox="0 0 30 30" fill="none" xmlns="http://www.w3.org/2000/svg">
<path fill-rule="evenodd" clip-rule="evenodd" d="M15 30C23.2843 30 30 23.2843 30 15C30 6.71573 23.2843 0 15 0C6.71573 0 0 6.71573 0 15C0 23.2843 6.71573 30 15 30ZM12.5976 15.989H10.9533C10.8197 15.989 10.7114 15.8807 10.7114 15.747V13.2868C10.7114 13.1532 10.8197 13.0449 10.9533 13.0449H12.6794V11.2182C12.645 11.0204 12.5011 9.8795 13.5367 8.92666C14.4713 8.06682 15.6545 8 15.9949 8C16.0402 8 16.0709 8.00111 16.0848 8.00179H18.0466C18.1803 8.00179 18.2886 8.11008 18.2886 8.24373V10.5312C18.2886 10.6648 18.1803 10.7731 18.0466 10.7731H16.6231C16.123 10.7731 15.8694 11.0119 15.8694 11.4828V13.0449H18.0466C18.1156 13.0449 18.1813 13.0744 18.2272 13.1259C18.2731 13.1773 18.2948 13.246 18.2869 13.3145L17.9998 15.8066C17.9858 15.9287 17.8824 16.0209 17.7595 16.0209H15.8693V22.7581C15.8693 22.8917 15.761 23 15.6274 23H12.8395C12.7059 23 12.5976 22.8917 12.5976 22.7581V15.989Z" fill="#B698CC"/>
</svg>
