<svg width="63" height="20" viewBox="0 0 63 20" fill="none" xmlns="http://www.w3.org/2000/svg">
<path d="M4.75395 6.05547C4.63057 6.05547 4.6017 6.00417 4.66207 5.92387L5.30782 5.22129C5.36819 5.14323 5.52044 5.09193 5.64382 5.09193H16.5953C16.716 5.09193 16.7475 5.16999 16.6871 5.24806L16.1648 5.92387C16.1044 6.00417 15.9495 6.08 15.8576 6.08L4.75395 6.05547ZM0.123472 8.45316C9.79041e-05 8.45316 -0.0314019 8.40186 0.0315977 8.3238L0.674719 7.61899C0.735094 7.54092 0.889968 7.48962 1.01334 7.48962H14.9993C15.1226 7.48962 15.183 7.56769 15.1515 7.64575L14.9074 8.27027C14.8759 8.3751 14.7551 8.42639 14.6318 8.42639L0.123472 8.45316ZM7.54693 10.8509C7.42356 10.8509 7.39206 10.7728 7.45505 10.6947L7.88293 10.0434C7.9433 9.96538 8.06668 9.88731 8.19005 9.88731H14.3246C14.448 9.88731 14.5084 9.96538 14.5084 10.0702L14.448 10.6947C14.448 10.7996 14.3246 10.8776 14.2328 10.8776L7.54693 10.8509ZM39.3854 5.58708C37.4534 6.00417 36.133 6.31642 34.2325 6.73351C33.7705 6.83611 33.7417 6.86288 33.34 6.47255C32.8833 6.0287 32.5447 5.74321 31.9015 5.48225C29.9669 4.67484 28.0953 4.90904 26.3497 5.87257C24.2628 7.01901 23.1892 8.71412 23.2207 10.8241C23.2496 12.9095 24.9375 14.6292 27.3603 14.9169C29.4472 15.1511 31.1928 14.5266 32.5762 13.1972C32.8518 12.9095 33.0959 12.5973 33.403 12.2315H27.4837C26.8406 12.2315 26.6857 11.8925 26.9009 11.4508C27.2999 10.6434 28.0349 9.28733 28.4654 8.60929C28.5312 8.48367 28.6388 8.3772 28.7751 8.30307C28.9113 8.22893 29.0702 8.19038 29.2319 8.1922H40.396C40.3356 8.89701 40.3356 9.59959 40.2122 10.3044C39.8945 12.1599 39.0294 13.917 37.6975 15.412C35.4899 17.8878 32.605 19.4268 28.9563 19.8416C25.9507 20.1807 23.1577 19.6855 20.706 18.1242C18.4354 16.6633 17.1465 14.734 16.8105 12.3363C16.4115 9.49476 17.3932 6.94094 19.4171 4.69938C21.5958 2.27715 24.4781 0.738165 28.0061 0.191714C30.8883 -0.252138 33.6498 0.0355845 36.133 1.46751C37.7605 2.38198 38.9234 3.63101 39.6925 5.14323C39.8762 5.37742 39.7529 5.50902 39.3854 5.58708ZM49.5388 20C46.7458 19.9465 44.1996 19.2684 42.0524 17.7049C40.2661 16.4257 39.0886 14.638 38.7396 12.6753C38.1884 9.73118 39.1386 7.12383 41.2255 4.80421C43.4646 2.30168 46.1631 0.999123 49.8144 0.452672C52.9434 -0.0157148 55.8887 0.243012 58.5556 1.782C60.9785 3.18716 62.4826 5.09193 62.8816 7.59222C63.4014 11.1118 62.207 13.9779 59.3536 16.4291C57.3298 18.1755 54.8439 19.2684 51.9906 19.7636C51.1637 19.8952 50.3368 19.9197 49.5388 20ZM56.8363 9.47023C56.8074 9.13121 56.8074 8.87025 56.747 8.60929C56.1958 6.0287 53.4028 4.57001 50.4891 5.14323C47.6357 5.68968 45.7956 7.22866 45.121 9.67765C44.5697 11.7118 45.7352 13.7705 47.9428 14.6046C49.6307 15.2292 51.3159 15.1511 52.9434 14.4485C55.3663 13.3779 56.684 11.7118 56.8389 9.47023H56.8363Z" fill="white"/>
</svg>
