<svg width="30" height="30" viewBox="0 0 30 30" fill="none" xmlns="http://www.w3.org/2000/svg">
<path fill-rule="evenodd" clip-rule="evenodd" d="M15 30C23.2843 30 30 23.2843 30 15C30 6.71573 23.2843 0 15 0C6.71573 0 0 6.71573 0 15C0 23.2843 6.71573 30 15 30ZM8.48034 11.8256H11.4916C11.6253 11.8256 11.7335 11.934 11.7335 12.0676V21.7415C11.7335 21.8751 11.6253 21.9834 11.4916 21.9834H8.48034C8.34669 21.9834 8.2384 21.8751 8.2384 21.7415V12.0676C8.2384 11.934 8.34669 11.8256 8.48034 11.8256ZM9.98706 7.0165C8.89139 7.0165 8 7.90692 8 9.00138C8 10.0963 8.89139 10.9871 9.98706 10.9871C11.0819 10.9871 11.9725 10.0963 11.9725 9.00138C11.9726 7.90692 11.0819 7.0165 9.98706 7.0165ZM16.5052 12.6959C17.0475 12.1051 17.9415 11.5852 19.151 11.5852C22.5427 11.5852 23 14.037 23 16.4353V21.7416C23 21.8752 22.8917 21.9835 22.758 21.9835H19.7522C19.6186 21.9835 19.5103 21.8752 19.5103 21.7416V17.0382C19.5103 15.7213 19.413 14.7139 18.1885 14.7139C17.0642 14.7139 16.6261 15.3423 16.6261 16.9552V21.7415C16.6261 21.8752 16.5178 21.9835 16.3842 21.9835H13.3795C13.2458 21.9835 13.1375 21.8752 13.1375 21.7415V12.0676C13.1375 11.934 13.2458 11.8257 13.3795 11.8257H16.2633C16.3969 11.8257 16.5052 11.934 16.5052 12.0676V12.6959Z" fill="#B698CC"/>
</svg>
