<svg width="20" height="15" viewBox="0 0 20 15" fill="none" xmlns="http://www.w3.org/2000/svg">
<path d="M17.6562 0H2.34375C1.05141 0 0 1.01061 0 2.25282V11.8648C0 13.107 1.05141 14.1176 2.34375 14.1176H17.6562C18.9486 14.1176 20 13.107 20 11.8648V2.25282C20 1.01061 18.9486 0 17.6562 0ZM18.4375 11.8648C18.4375 12.2789 18.087 12.6158 17.6562 12.6158H2.34375C1.91297 12.6158 1.5625 12.2789 1.5625 11.8648V2.25282C1.5625 1.83875 1.91297 1.50188 2.34375 1.50188H17.6562C18.087 1.50188 18.4375 1.83875 18.4375 2.25282V11.8648Z" fill="white"/>
<path d="M18.7526 1.51597C18.5021 1.19232 18.0406 1.12458 17.7077 1.36259L10.5807 6.45803C10.2329 6.70672 9.7654 6.70672 9.41754 6.45803L2.29058 1.36259C1.95767 1.12458 1.49615 1.19232 1.24569 1.51597C0.981419 1.85745 1.05374 2.35013 1.40499 2.60126L9.41755 8.32982C9.7654 8.57851 10.2329 8.57851 10.5807 8.32982L18.5933 2.60126C18.9445 2.35013 19.0169 1.85745 18.7526 1.51597Z" fill="white"/>
</svg>
