<svg width="13" height="13" viewBox="0 0 13 13" fill="none" xmlns="http://www.w3.org/2000/svg">
<g clip-path="url(#clip0)">
<path d="M8.42166 7.04077L7.33288 8.13323C6.89137 8.57629 6.11452 8.58584 5.66345 8.13323L4.57463 7.04077L0.664062 10.964C0.809627 11.0313 0.970121 11.0715 1.14075 11.0715H11.8556C12.0262 11.0715 12.1867 11.0314 12.3322 10.9641L8.42166 7.04077Z" fill="url(#paint0_linear)"/>
<path d="M11.8555 1.92969H1.1407C0.97007 1.92969 0.809576 1.96986 0.664062 2.03717L4.84277 6.22974C4.84305 6.23002 4.84338 6.23007 4.84366 6.23035C4.84394 6.23063 4.84399 6.23101 4.84399 6.23101L6.20272 7.59423C6.34704 7.73855 6.64924 7.73855 6.79356 7.59423L8.15201 6.23124C8.15201 6.23124 8.15234 6.23063 8.15262 6.23035C8.15262 6.23035 8.15323 6.23002 8.15351 6.22974L12.3321 2.03714C12.1866 1.9698 12.0262 1.92969 11.8555 1.92969Z" fill="url(#paint1_linear)"/>
<path d="M0.12152 2.56934C0.0462109 2.72163 0 2.89068 0 3.07177V9.92723C0 10.1083 0.0461602 10.2774 0.121494 10.4297L4.03884 6.49963L0.12152 2.56934Z" fill="url(#paint2_linear)"/>
<path d="M12.8782 2.56909L8.96094 6.49943L12.8782 10.4295C12.9535 10.2772 12.9997 10.1082 12.9997 9.92704V3.07157C12.9997 2.89044 12.9535 2.72138 12.8782 2.56909Z" fill="url(#paint3_linear)"/>
</g>
<defs>
<linearGradient id="paint0_linear" x1="12.3322" y1="9.05614" x2="0.664063" y2="9.05614" gradientUnits="userSpaceOnUse">
<stop stop-color="#4CBA85"/>
<stop offset="1" stop-color="#2569AC"/>
</linearGradient>
<linearGradient id="paint1_linear" x1="12.3321" y1="4.81608" x2="0.664063" y2="4.81608" gradientUnits="userSpaceOnUse">
<stop stop-color="#4CBA85"/>
<stop offset="1" stop-color="#2569AC"/>
</linearGradient>
<linearGradient id="paint2_linear" x1="4.03884" y1="6.4995" x2="2.7746e-09" y2="6.4995" gradientUnits="userSpaceOnUse">
<stop stop-color="#4CBA85"/>
<stop offset="1" stop-color="#2569AC"/>
</linearGradient>
<linearGradient id="paint3_linear" x1="12.9997" y1="6.4993" x2="8.96094" y2="6.4993" gradientUnits="userSpaceOnUse">
<stop stop-color="#4CBA85"/>
<stop offset="1" stop-color="#2569AC"/>
</linearGradient>
<clipPath id="clip0">
<rect width="13" height="13" fill="white"/>
</clipPath>
</defs>
</svg>
