<svg width="105" height="106" viewBox="0 0 105 106" fill="none" xmlns="http://www.w3.org/2000/svg">
<g clip-path="url(#clip0)">
<path d="M19.7487 81.9407C18.2787 81.9407 16.8656 82.3076 15.6119 82.9966C9.00773 74.5307 5.38281 64.014 5.38281 53.2402C5.38281 26.5528 27.0939 4.8418 53.7812 4.8418C57.0257 4.8418 60.2684 5.16463 63.4199 5.8015C64.5286 6.0258 65.6117 5.30803 65.836 4.19772C66.0603 3.08742 65.3425 2.00595 64.2322 1.78085C60.814 1.09031 57.298 0.740234 53.7812 0.740234C39.7582 0.740234 26.574 6.20124 16.6581 16.1171C6.74226 26.0329 1.28125 39.2172 1.28125 53.2402C1.28125 65.0362 5.28668 76.5478 12.579 85.7763C11.6401 87.179 11.1354 88.8277 11.1354 90.554C11.1354 92.8547 12.0318 95.0177 13.6588 96.6439C15.285 98.2709 17.448 99.1673 19.7487 99.1673C22.0494 99.1673 24.2123 98.2709 25.8394 96.6439C27.4664 95.0177 28.362 92.8539 28.362 90.5532C28.362 88.2533 27.4664 86.0896 25.8394 84.4634C24.2123 82.8364 22.0494 81.9407 19.7487 81.9407ZM22.9386 93.7439C22.0871 94.5963 20.9535 95.0657 19.7487 95.0657C18.5439 95.0657 17.4111 94.5963 16.5588 93.7439C15.7064 92.8916 15.237 91.7589 15.237 90.554C15.237 89.3484 15.7064 88.2157 16.5588 87.3633C17.4103 86.5109 18.5439 86.0423 19.7487 86.0423C20.9535 86.0423 22.0863 86.5117 22.9386 87.3633C23.791 88.2157 24.2604 89.3484 24.2604 90.554C24.2604 91.7589 23.791 92.8916 22.9386 93.7439Z" fill="white"/>
<path d="M94.9804 20.702C97.2098 17.3575 96.8517 12.7849 93.9029 9.8361C92.2759 8.20989 90.113 7.31348 87.8122 7.31348C85.5115 7.31348 83.3486 8.20989 81.7216 9.8361C80.0946 11.4631 79.199 13.626 79.199 15.9268C79.199 18.2275 80.0946 20.3904 81.7216 22.0174C83.3486 23.6444 85.5115 24.54 87.8122 24.54C89.2822 24.54 90.6954 24.1731 91.9491 23.4842C98.5532 31.9509 102.178 42.4667 102.178 53.2406C102.178 79.9279 80.4671 101.639 53.7797 101.639C50.5673 101.639 47.355 101.323 44.2331 100.698C43.1228 100.476 42.0422 101.196 41.8194 102.306C41.5975 103.417 42.3177 104.497 43.428 104.72C46.8142 105.397 50.2973 105.741 53.7797 105.741C67.8027 105.741 80.987 100.28 90.9028 90.3637C100.819 80.4479 106.28 67.2636 106.28 53.2406C106.28 41.4438 102.273 29.9313 94.9804 20.702ZM84.6223 19.1175C83.77 18.2651 83.3005 17.1324 83.3005 15.9268C83.3005 14.7219 83.77 13.5892 84.6223 12.7368C85.4739 11.8845 86.6074 11.415 87.8122 11.415C89.0171 11.415 90.1506 11.8845 91.003 12.7368C92.7614 14.496 92.7614 17.3583 91.003 19.1175C90.1506 19.969 89.0171 20.4385 87.8122 20.4385C86.6066 20.4385 85.4739 19.969 84.6223 19.1175Z" fill="white"/>
<path d="M45.3179 88.5137C45.3179 89.6464 46.2367 90.5645 47.3687 90.5645H60.1917C61.3244 90.5645 62.2424 89.6464 62.2424 88.5137V84.5379C64.9389 83.8121 67.5168 82.7434 69.9393 81.348L72.7463 84.155C73.1308 84.5395 73.6523 84.7558 74.197 84.7558C74.7402 84.7558 75.2625 84.5395 75.647 84.1542L84.7105 75.0843C85.5108 74.2832 85.5108 72.9846 84.7105 72.1843L81.9067 69.3805C83.3022 66.958 84.3708 64.3801 85.0966 61.6837H89.0572C90.1899 61.6837 91.108 60.7656 91.108 59.6329V46.8099C91.108 45.6772 90.1899 44.7591 89.0572 44.7591H85.0958C84.37 42.0635 83.3022 39.4856 81.9067 37.0631L84.6953 34.2745C85.0798 33.89 85.2961 33.3677 85.2961 32.8237C85.2953 32.2798 85.079 31.7575 84.6945 31.373L75.6238 22.3095C74.8235 21.5092 73.5249 21.5092 72.7239 22.3103L69.9393 25.0957C67.5168 23.7002 64.9389 22.6315 62.2424 21.9057V17.9668C62.2424 16.8341 61.3244 15.916 60.1917 15.916H47.3687C46.2367 15.916 45.3179 16.8341 45.3179 17.9668V21.9065C42.6222 22.6315 40.0443 23.7002 37.6218 25.0957L34.8365 22.3103C34.0362 21.51 32.7376 21.5092 31.9365 22.3095L22.8666 31.3738C22.4813 31.7583 22.265 32.2798 22.265 32.8237C22.265 33.3677 22.4813 33.89 22.8658 34.2745L25.6544 37.0631C24.2589 39.4856 23.1903 42.0627 22.4645 44.7591H18.5111C17.3784 44.7591 16.4603 45.6772 16.4603 46.8091L16.4531 59.6321C16.4523 60.176 16.6686 60.6983 17.0531 61.0829C17.4377 61.4674 17.9592 61.6837 18.5039 61.6837H22.4645C23.1903 64.3801 24.2589 66.958 25.6544 69.3805L22.8506 72.1843C22.0503 72.9846 22.0495 74.2832 22.8506 75.0843L31.9141 84.1542C32.2986 84.5387 32.8201 84.7558 33.3641 84.7558H33.3649C33.9088 84.7558 34.4303 84.5395 34.8148 84.155L37.621 81.348C40.0443 82.7434 42.6222 83.8121 45.3179 84.5379V88.5137ZM38.4253 77.0349C37.6138 76.5102 36.546 76.6239 35.8619 77.3073L33.3649 79.8043L27.2005 73.6351L29.6951 71.1397C30.3784 70.4564 30.4922 69.3885 29.9675 68.577C28.1081 65.6995 26.8008 62.5457 26.083 59.2019C25.8795 58.2574 25.0448 57.5821 24.0779 57.5821H20.5555L20.5603 48.8607H24.0779C25.0448 48.8607 25.8795 48.1862 26.083 47.2409C26.8008 43.898 28.1081 40.7441 29.9675 37.8666C30.4922 37.0551 30.3784 35.9872 29.6951 35.3039L27.2165 32.8245L33.3857 26.6602L35.8619 29.1371C36.546 29.8205 37.613 29.9334 38.4253 29.4095C41.302 27.5502 44.4559 26.2428 47.7996 25.525C48.7441 25.3216 49.4194 24.486 49.4194 23.5199V20.0176H58.1409V23.5191C58.1409 24.486 58.8154 25.3216 59.7607 25.5242C63.1036 26.2428 66.2583 27.5494 69.135 29.4087C69.9465 29.9334 71.0143 29.8205 71.6977 29.1363L74.1746 26.6602L80.3438 32.8245L77.8652 35.3031C77.1811 35.9872 77.0681 37.0551 77.5929 37.8666C79.4522 40.7441 80.7588 43.898 81.4773 47.2409C81.68 48.1862 82.5155 48.8607 83.4824 48.8607H87.0064V57.5821H83.4824C82.5155 57.5821 81.6808 58.2574 81.4773 59.2019C80.7596 62.5449 79.4522 65.6995 77.5929 68.5762C77.0681 69.3885 77.1819 70.4564 77.8652 71.1397L80.3598 73.6343L74.1954 79.8035L71.6985 77.3073C71.0143 76.6231 69.9465 76.5102 69.135 77.0349C66.2575 78.8942 63.1036 80.2008 59.7607 80.9194C58.8154 81.1228 58.1409 81.9576 58.1409 82.9245V86.4629H49.4194V82.9245C49.4194 81.9584 48.7441 81.1228 47.7996 80.9194C44.4567 80.2016 41.3028 78.8942 38.4253 77.0349Z" fill="white"/>
<path d="M70.7248 53.2403C70.7248 43.8964 63.1232 36.2949 53.7794 36.2949C44.4355 36.2949 36.834 43.8964 36.834 53.2403C36.834 62.5842 44.4355 70.1857 53.7794 70.1857C63.1232 70.1857 70.7248 62.5842 70.7248 53.2403ZM40.9355 53.2403C40.9355 46.1579 46.697 40.3965 53.7794 40.3965C60.8618 40.3965 66.6232 46.1587 66.6232 53.2403C66.6232 60.3219 60.8618 66.0841 53.7794 66.0841C46.697 66.0841 40.9355 60.3227 40.9355 53.2403Z" fill="white"/>
<path d="M72.6641 8.49655C73.204 8.49655 73.7327 8.27705 74.114 7.89573C74.4953 7.51201 74.7148 6.98329 74.7148 6.44336C74.7148 5.90663 74.4961 5.37711 74.114 4.99339C73.7327 4.61208 73.204 4.39258 72.6641 4.39258C72.1225 4.39258 71.5962 4.61208 71.2149 4.99339C70.8328 5.37711 70.6133 5.90423 70.6133 6.44336C70.6133 6.98489 70.8328 7.51201 71.2149 7.89573C71.5962 8.27705 72.1225 8.49655 72.6641 8.49655Z" fill="white"/>
<path d="M33.707 98.0205C33.1679 98.0205 32.6384 98.24 32.2571 98.6213C31.8757 99.0026 31.6562 99.5322 31.6562 100.071C31.6562 100.613 31.8757 101.14 32.2571 101.521C32.6384 101.903 33.1679 102.122 33.707 102.122C34.2462 102.122 34.7757 101.903 35.157 101.521C35.5383 101.14 35.7578 100.61 35.7578 100.071C35.7578 99.5322 35.5383 99.0026 35.157 98.6213C34.7757 98.24 34.2462 98.0205 33.707 98.0205Z" fill="white"/>
</g>
<defs>
<clipPath id="clip0">
<rect width="105" height="105" fill="white" transform="translate(0 0.740234)"/>
</clipPath>
</defs>
</svg>
