<svg width="34" height="22" viewBox="0 0 34 22" fill="none" xmlns="http://www.w3.org/2000/svg">
<path d="M16.6973 5.65723C13.7468 5.65723 11.3496 8.00534 11.3496 10.8953C11.3496 13.7853 13.7468 16.1334 16.6973 16.1334C19.6477 16.1334 22.0449 13.7853 22.0449 10.8953C22.0449 8.00534 19.6477 5.65723 16.6973 5.65723ZM16.2916 9.34196C15.6277 9.34196 15.0745 9.88383 15.0745 10.5341H13.3043C13.3411 8.90846 14.6688 7.60797 16.2916 7.60797V9.34196Z" fill="white"/>
<path d="M32.9239 9.81139C31.1168 7.60778 24.6628 0.418945 16.6966 0.418945C8.73046 0.418945 2.27641 7.60778 0.469274 9.81139C-0.0470498 10.4255 -0.0470498 11.3286 0.469274 11.9789C2.27641 14.1825 8.73046 21.3713 16.6966 21.3713C24.6628 21.3713 31.1168 14.1825 32.9239 11.9789C33.4403 11.3648 33.4403 10.4616 32.9239 9.81139ZM16.6966 18.4813C12.4185 18.4813 8.95175 15.0856 8.95175 10.8951C8.95175 6.70466 12.4185 3.30893 16.6966 3.30893C20.9747 3.30893 24.4415 6.70466 24.4415 10.8951C24.4415 15.0856 20.9747 18.4813 16.6966 18.4813Z" fill="white"/>
</svg>
