<svg width="100" height="101" viewBox="0 0 100 101" fill="none" xmlns="http://www.w3.org/2000/svg">
<g clip-path="url(#clip0)">
<path d="M1.96485 100.448C3.05 100.448 3.9297 99.5686 3.9297 98.4834C3.9297 97.3983 3.05 96.5186 1.96485 96.5186C0.879692 96.5186 0 97.3983 0 98.4834C0 99.5686 0.879692 100.448 1.96485 100.448Z" fill="white"/>
<path d="M52.1484 50.6133C53.2314 50.6133 54.1094 49.7353 54.1094 48.6523C54.1094 47.5693 53.2314 46.6914 52.1484 46.6914C51.0654 46.6914 50.1875 47.5693 50.1875 48.6523C50.1875 49.7353 51.0654 50.6133 52.1484 50.6133Z" fill="white"/>
<path d="M77.8277 23.7932C76.2513 22.2166 74.1554 21.3486 71.9261 21.3486C69.6968 21.3486 67.6007 22.217 66.0246 23.7932C62.7705 27.0475 62.7705 32.3424 66.0246 35.5965C67.6519 37.2237 69.7886 38.037 71.9261 38.037C74.0631 38.037 76.2007 37.2233 77.8277 35.5965C81.0818 32.3422 81.0818 27.0473 77.8277 23.7932ZM75.0549 32.8233C73.3297 34.5483 70.5224 34.5483 68.7976 32.8233C67.0724 31.0983 67.0724 28.2912 68.7976 26.566C69.6334 25.7303 70.7443 25.2701 71.9261 25.2701C73.108 25.2701 74.2189 25.7303 75.0547 26.566C76.7799 28.2912 76.7799 31.0983 75.0549 32.8233Z" fill="white"/>
<path d="M24.494 81.1014C23.5244 80.6185 22.3475 81.0133 21.8647 81.9826L19.5291 86.6731C18.5135 88.7123 16.4709 90.076 14.1979 90.2315L11.4814 90.4174C11.0223 90.4481 10.7203 90.2194 10.5807 90.0797C10.441 89.9401 10.2117 89.6375 10.243 89.1787L10.4289 86.4625C10.5846 84.1896 11.9482 82.1469 13.9873 81.1312L18.6776 78.7957C19.6471 78.3129 20.0416 77.1357 19.5588 76.1664C19.0762 75.1971 17.899 74.8023 16.9295 75.2851L12.2393 77.6207C8.95956 79.2539 6.76659 82.5391 6.5162 86.1945L6.33026 88.9108C6.22987 90.377 6.76815 91.8137 7.80722 92.8528C8.76386 93.8094 10.0578 94.3418 11.4016 94.3418C11.517 94.3418 11.6332 94.3379 11.7492 94.3299L14.4656 94.144C18.1211 93.8938 21.4063 91.701 23.0395 88.4209L25.375 83.7307C25.8578 82.7611 25.4633 81.5842 24.494 81.1014Z" fill="white"/>
<path d="M98.6471 2.3384C97.727 1.43196 96.4594 0.957931 95.1719 1.04172L93.3461 1.15813C76.9752 2.20325 61.6542 10.1054 51.3118 22.8386L47.0142 28.1295L35.7675 27.7992C35.7483 27.7986 35.729 27.7984 35.71 27.7984C26.7905 27.7984 18.4047 31.2719 12.0975 37.5789L0.578342 49.0983C0.0304895 49.6461 -0.143534 50.4655 0.134591 51.1885C0.412717 51.9117 1.09045 52.4035 1.86428 52.443L26.2479 53.6957L25.2538 54.9198C24.7528 55.5368 24.6735 56.395 25.0534 57.093C25.4354 57.7954 25.8358 58.4866 26.2534 59.1666L20.471 66.0313C19.9766 66.6182 19.8702 67.4397 20.1981 68.1335C21.4612 70.8024 23.1376 73.2005 25.1813 75.261C27.2747 77.372 29.7225 79.0981 32.4565 80.3921C32.7237 80.5186 33.0102 80.5806 33.295 80.5806C33.7366 80.5806 34.1745 80.4313 34.5308 80.1425C35.7765 79.1319 37.2126 77.9333 38.6017 76.7743C39.5917 75.9481 40.6046 75.103 41.5513 74.3237C42.1163 74.6637 42.6884 74.9934 43.269 75.3093C43.5628 75.469 43.8849 75.5477 44.2058 75.5477C44.6327 75.5477 45.0569 75.4087 45.4081 75.136L46.7446 74.0989L48.0028 98.5853C48.0427 99.3591 48.5343 100.037 49.2573 100.315C49.4862 100.403 49.7241 100.446 49.9605 100.446C50.4712 100.446 50.9728 100.246 51.3474 99.8712L62.8667 88.3519C69.174 82.0446 72.6472 73.6591 72.6472 64.7393V53.9981L77.1916 50.4717C90.8105 39.9033 99.1049 23.967 99.9479 6.74857L99.9945 5.79427C100.058 4.50442 99.5668 3.24504 98.6471 2.3384ZM6.46976 48.753L14.8706 40.3521C20.4301 34.7926 27.8204 31.7277 35.6817 31.7201L43.9015 31.9615L29.3096 49.9264L6.46976 48.753ZM36.0892 73.7632C35.0655 74.6171 34.0161 75.4928 33.0423 76.2938C31.1587 75.2737 29.4548 74.0009 27.9657 72.4993C26.5235 71.0452 25.296 69.3895 24.3061 67.5657L28.5397 62.5397C29.8198 64.2571 31.221 65.8838 32.7347 67.4079C32.7358 67.409 32.737 67.41 32.7382 67.4112C32.7386 67.4116 32.7389 67.4122 32.7393 67.4126C32.7399 67.4131 32.7405 67.4135 32.7411 67.4141C34.4194 69.1032 36.2247 70.6532 38.1397 72.0549C37.4636 72.6163 36.7708 73.1944 36.0892 73.7632ZM68.7261 64.7393C68.7261 72.6114 65.6607 80.0122 60.0941 85.5788L51.6933 93.9796L50.521 71.1686L68.7259 57.0416V64.7393H68.7261ZM96.0315 6.55697C95.2445 22.6306 87.5016 37.5076 74.7879 47.3735L44.0339 71.2385C41.4835 69.7483 39.1063 67.9887 36.9308 65.9952L47.2991 55.6268C48.0648 54.8612 48.0648 53.6194 47.2991 52.8535C46.5333 52.0877 45.2917 52.0877 44.5259 52.8535L34.1673 63.2122C32.2628 61.1038 30.5761 58.8096 29.1399 56.3559L54.356 25.3111C64.0107 13.4246 78.3131 6.04759 93.5957 5.0722L95.4215 4.95579C95.6608 4.94095 95.8209 5.0597 95.8947 5.13235C95.9684 5.20481 96.09 5.36243 96.0783 5.60286L96.0315 6.55697Z" fill="white"/>
</g>
<defs>
<clipPath id="clip0">
<rect width="100" height="100" fill="white" transform="translate(0 0.740234)"/>
</clipPath>
</defs>
</svg>
