<svg width="25" height="26" viewBox="0 0 25 26" fill="none" xmlns="http://www.w3.org/2000/svg">
<path d="M12.5 0.470703C10.071 0.475314 7.69573 1.18558 5.66355 2.51499C3.63137 3.8444 2.02998 5.73557 1.05444 7.95815C0.0788904 10.1807 -0.228707 12.6388 0.169111 15.0329C0.56693 17.4271 1.65299 19.654 3.29502 21.4424C4.46777 22.7125 5.89112 23.7262 7.47538 24.4195C9.05963 25.1128 10.7704 25.4707 12.5 25.4707C14.2296 25.4707 15.9404 25.1128 17.5246 24.4195C19.1089 23.7262 20.5322 22.7125 21.705 21.4424C23.347 19.654 24.4331 17.4271 24.8309 15.0329C25.2287 12.6388 24.9211 10.1807 23.9456 7.95815C22.97 5.73557 21.3686 3.8444 19.3364 2.51499C17.3043 1.18558 14.929 0.475314 12.5 0.470703ZM12.5 22.994C9.90565 22.99 7.41398 21.9808 5.5493 20.1786C6.11543 18.8016 7.07849 17.6238 8.31612 16.7949C9.55375 15.9661 11.0101 15.5235 12.5 15.5235C13.9899 15.5235 15.4463 15.9661 16.6839 16.7949C17.9215 17.6238 18.8846 18.8016 19.4507 20.1786C17.586 21.9808 15.0943 22.99 12.5 22.994ZM9.99524 10.481C9.99524 9.98608 10.1421 9.50224 10.4174 9.09069C10.6926 8.67914 11.0838 8.35838 11.5415 8.16896C11.9992 7.97955 12.5028 7.92999 12.9887 8.02655C13.4745 8.12311 13.9208 8.36146 14.2711 8.71145C14.6214 9.06145 14.86 9.50737 14.9566 9.99282C15.0533 10.4783 15.0037 10.9815 14.8141 11.4387C14.6245 11.896 14.3035 12.2869 13.8916 12.5619C13.4797 12.8369 12.9954 12.9836 12.5 12.9836C11.8357 12.9836 11.1986 12.72 10.7289 12.2506C10.2591 11.7813 9.99524 11.1448 9.99524 10.481ZM21.1539 17.9888C20.035 16.0765 18.3128 14.5891 16.2571 13.7594C16.8948 13.037 17.3103 12.1461 17.4537 11.1936C17.5972 10.2411 17.4625 9.26744 17.0659 8.38951C16.6692 7.51158 16.0274 6.76666 15.2175 6.24413C14.4077 5.7216 13.4641 5.44365 12.5 5.44365C11.5359 5.44365 10.5923 5.7216 9.78245 6.24413C8.97257 6.76666 8.33079 7.51158 7.93414 8.38951C7.53749 9.26744 7.4028 10.2411 7.54625 11.1936C7.6897 12.1461 8.10519 13.037 8.74286 13.7594C6.68721 14.5891 4.96502 16.0765 3.84606 17.9888C2.9543 16.4711 2.48312 14.7435 2.48097 12.9836C2.48097 10.3287 3.53654 7.78256 5.41548 5.90525C7.29441 4.02795 9.84279 2.97329 12.5 2.97329C15.1572 2.97329 17.7056 4.02795 19.5845 5.90525C21.4635 7.78256 22.519 10.3287 22.519 12.9836C22.5169 14.7435 22.0457 16.4711 21.1539 17.9888Z" fill="url(#paint0_linear)"/>
<defs>
<linearGradient id="paint0_linear" x1="-0.104583" y1="12.9836" x2="25.1046" y2="12.9836" gradientUnits="userSpaceOnUse">
<stop stop-color="#2569AC"/>
<stop offset="1" stop-color="#4CBA85"/>
</linearGradient>
</defs>
</svg>
