<svg width="45" height="45" viewBox="0 0 45 45" fill="none" xmlns="http://www.w3.org/2000/svg">
<path d="M22.5 0C18.1278 0.0082999 13.8523 1.28678 10.1944 3.67971C6.53647 6.07265 3.65397 9.47676 1.89799 13.4774C0.142003 17.4781 -0.411672 21.9026 0.304401 26.212C1.02047 30.5215 2.97539 34.5299 5.93103 37.749C8.04199 40.0352 10.604 41.8598 13.4557 43.1078C16.3073 44.3557 19.3868 45 22.5 45C25.6132 45 28.6927 44.3557 31.5443 43.1078C34.396 41.8598 36.958 40.0352 39.069 37.749C42.0246 34.5299 43.9795 30.5215 44.6956 26.212C45.4117 21.9026 44.858 17.4781 43.102 13.4774C41.346 9.47676 38.4635 6.07265 34.8056 3.67971C31.1477 1.28678 26.8722 0.0082999 22.5 0ZM22.5 40.5419C17.8302 40.5348 13.3452 38.7181 9.98874 35.4742C11.0078 32.9956 12.7413 30.8756 14.969 29.3836C17.1967 27.8917 19.8181 27.0951 22.5 27.0951C25.1819 27.0951 27.8033 27.8917 30.031 29.3836C32.2587 30.8756 33.9922 32.9956 35.0113 35.4742C31.6548 38.7181 27.1698 40.5348 22.5 40.5419ZM17.9914 18.0186C17.9914 17.1277 18.2559 16.2568 18.7513 15.516C19.2467 14.7752 19.9508 14.1978 20.7746 13.8569C21.5985 13.5159 22.505 13.4267 23.3796 13.6005C24.2542 13.7743 25.0575 14.2034 25.688 14.8334C26.3186 15.4633 26.748 16.266 26.9219 17.1398C27.0959 18.0136 27.0066 18.9194 26.6654 19.7425C26.3241 20.5656 25.7463 21.2691 25.0048 21.7641C24.2634 22.2591 23.3917 22.5233 22.5 22.5233C21.3043 22.5233 20.1575 22.0487 19.312 21.2039C18.4664 20.3591 17.9914 19.2133 17.9914 18.0186ZM38.0771 31.5326C36.063 28.0905 32.963 25.4131 29.2628 23.9197C30.4107 22.6194 31.1585 21.0157 31.4167 19.3012C31.675 17.5867 31.4325 15.8341 30.7185 14.2538C30.0046 12.6736 28.8494 11.3327 27.3916 10.3922C25.9338 9.45161 24.2353 8.95131 22.5 8.95131C20.7647 8.95131 19.0662 9.45161 17.6084 10.3922C16.1506 11.3327 14.9954 12.6736 14.2815 14.2538C13.5675 15.8341 13.325 17.5867 13.5833 19.3012C13.8415 21.0157 14.5893 22.6194 15.7372 23.9197C12.037 25.4131 8.93704 28.0905 6.92291 31.5326C5.31774 28.8007 4.46962 25.6911 4.46575 22.5233C4.46575 17.7444 6.36578 13.1613 9.74786 9.78219C13.1299 6.40304 17.717 4.50466 22.5 4.50466C27.283 4.50466 31.8701 6.40304 35.2521 9.78219C38.6342 13.1613 40.5343 17.7444 40.5343 22.5233C40.5304 25.6911 39.6823 28.8007 38.0771 31.5326Z" fill="white"/>
</svg>
