<svg width="104" height="100" viewBox="0 0 104 100" fill="none" xmlns="http://www.w3.org/2000/svg">
<path d="M83.9673 71.9998L81.6049 70.2432C84.4106 66.4645 86.4336 62.1637 87.5553 57.593C88.6769 53.0222 88.8747 48.2735 88.137 43.6253C87.3993 38.9771 85.7409 34.5229 83.2592 30.5241C80.7775 26.5252 77.5223 23.0621 73.6845 20.3378C69.8468 17.6135 65.5037 15.6829 60.91 14.6592C56.3163 13.6354 51.5645 13.5392 46.9331 14.376C42.3017 15.2129 37.884 16.9661 33.9391 19.5327C29.9942 22.0994 26.6015 25.4278 23.9598 29.3229L21.5234 27.6672C24.3771 23.4283 28.0502 19.8032 32.3264 17.0054C36.6025 14.2077 41.3953 12.2939 46.4224 11.3768C51.4494 10.4597 56.6092 10.5578 61.5978 11.6653C66.5864 12.7728 71.303 14.8673 75.4697 17.8255C79.6365 20.7837 83.1691 24.5458 85.8597 28.8902C88.5502 33.2346 90.3443 38.0734 91.1361 43.1217C91.928 48.1701 91.7016 53.3258 90.4705 58.2853C89.2393 63.2449 87.0281 67.9079 83.9673 71.9998Z" fill="url(#paint0_linear)"/>
<path d="M90.5159 82.6137C90.2332 82.3436 89.8552 82.1963 89.4644 82.2039C89.0735 82.2115 88.7015 82.3733 88.4295 82.6541C87.0066 84.1292 85.4745 85.4948 83.8462 86.7394C83.5361 86.979 83.3337 87.3317 83.2833 87.7202C83.2328 88.1088 83.3384 88.5015 83.5769 88.8123C83.7048 88.9741 83.8646 89.1078 84.0464 89.205C84.2282 89.3023 84.4281 89.3611 84.6336 89.3777C84.9985 89.3994 85.3591 89.2895 85.6499 89.0681C87.3855 87.7312 89.023 86.2715 90.5495 84.7001C90.8188 84.4175 90.9663 84.0403 90.96 83.65C90.9537 83.2597 90.7942 82.8875 90.5159 82.6137ZM80.1378 91.0737C80.0425 90.9038 79.9146 90.7544 79.7615 90.634C79.6084 90.5136 79.4331 90.4246 79.2455 90.3721C79.0579 90.3196 78.8619 90.3046 78.6685 90.328C78.4752 90.3513 78.2883 90.4127 78.1187 90.5084C69.5754 95.3607 59.7962 97.6001 49.9927 96.9493C46.4135 96.6751 42.8786 95.9839 39.4598 94.8898C39.2759 94.831 39.0823 94.809 38.89 94.8251C38.6976 94.8411 38.5103 94.8949 38.3388 94.9833C38.1672 95.0718 38.0148 95.1931 37.8901 95.3405C37.7655 95.4878 37.6711 95.6583 37.6123 95.8421C37.5535 96.026 37.5315 96.2196 37.5476 96.4119C37.5636 96.6043 37.6174 96.7916 37.7058 96.9631C37.7943 97.1347 37.9156 97.2871 38.063 97.4118C38.2103 97.5364 38.3808 97.6308 38.5646 97.6896C42.1983 98.8595 45.9574 99.596 49.7639 99.8837C60.1497 100.572 70.5098 98.204 79.5657 93.0726C79.9059 92.8827 80.157 92.5658 80.2642 92.1912C80.3714 91.8166 80.3259 91.4149 80.1378 91.0737Z" fill="url(#paint1_linear)"/>
<path d="M18.1584 32.6543C18.0776 32.8158 17.9968 32.9841 17.9228 33.1456C15.7981 38.0483 14.7053 43.3359 14.7124 48.6792C14.8196 55.138 16.4011 61.487 19.3362 67.2414L21.9677 65.8953C19.2436 60.5673 17.7683 54.689 17.6536 48.7061C17.6475 43.7679 18.6578 38.8813 20.6216 34.3503C20.6216 34.283 20.6822 34.2225 20.7159 34.1484L18.1584 32.6543Z" fill="url(#paint2_linear)"/>
<path d="M53.6809 87.6814C47.8711 87.6985 42.1327 86.4008 36.8955 83.8856L38.1675 81.1934C43.0043 83.5326 48.3082 84.7453 53.6809 84.7403C62.0669 84.7395 70.1901 81.8144 76.6515 76.4688L78.5292 78.7369C71.5372 84.5147 62.7513 87.6774 53.6809 87.6814Z" fill="url(#paint3_linear)"/>
<path d="M20.8302 35.6093C19.9154 35.6106 19.0208 35.3405 18.2595 34.8333C17.4983 34.326 16.9046 33.6044 16.5536 32.7596C16.2026 31.9149 16.1101 30.985 16.2877 30.0876C16.4654 29.1903 16.9052 28.3658 17.5516 27.7185C18.198 27.0711 19.0218 26.6301 19.9189 26.4512C20.816 26.2722 21.746 26.3634 22.5913 26.7131C23.4366 27.0629 24.1591 27.6555 24.6674 28.416C25.1758 29.1765 25.4472 30.0708 25.4472 30.9855C25.4454 32.2101 24.9586 33.3841 24.0933 34.2507C23.228 35.1172 22.0547 35.6057 20.8302 35.6093ZM20.8302 29.3097C20.4982 29.3057 20.1725 29.4004 19.8944 29.5818C19.6163 29.7632 19.3984 30.0231 19.2682 30.3286C19.1381 30.634 19.1016 30.9712 19.1634 31.2975C19.2253 31.6237 19.3826 31.9242 19.6155 32.1608C19.8483 32.3975 20.1463 32.5596 20.4714 32.6267C20.7966 32.6938 21.1344 32.6628 21.4419 32.5376C21.7494 32.4124 22.0128 32.1987 22.1986 31.9235C22.3845 31.6484 22.4845 31.3243 22.4858 30.9923C22.4841 30.5518 22.3098 30.1296 22.0002 29.8163C21.6907 29.5029 21.2706 29.3235 20.8302 29.3164V29.3097Z" fill="url(#paint4_linear)"/>
<path d="M80.3668 81.4152C79.1368 81.4152 77.9344 81.0504 76.9118 80.3671C75.8891 79.6838 75.092 78.7125 74.6213 77.5762C74.1506 76.4398 74.0275 75.1894 74.2674 73.9831C74.5074 72.7768 75.0997 71.6687 75.9694 70.799C76.8391 69.9293 77.9472 69.337 79.1535 69.097C80.3599 68.8571 81.6103 68.9802 82.7466 69.4509C83.8829 69.9216 84.8542 70.7187 85.5375 71.7414C86.2208 72.764 86.5856 73.9664 86.5856 75.1963C86.5838 76.8451 85.928 78.4259 84.7621 79.5917C83.5963 80.7576 82.0155 81.4134 80.3668 81.4152ZM80.3668 71.9523C79.7182 71.951 79.0839 72.1421 78.544 72.5015C78.0041 72.8608 77.5829 73.3722 77.3338 73.971C77.0847 74.5698 77.0188 75.2291 77.1445 75.8653C77.2703 76.5015 77.5819 77.0862 78.04 77.5453C78.4981 78.0043 79.0821 78.3172 79.7181 78.4442C80.3541 78.5712 81.0135 78.5067 81.6128 78.2588C82.2121 78.0109 82.7244 77.5908 83.0848 77.0517C83.4453 76.5125 83.6377 75.8785 83.6377 75.23C83.6359 74.3624 83.291 73.5308 82.6781 72.9167C82.0653 72.3026 81.2343 71.9559 80.3668 71.9523Z" fill="url(#paint5_linear)"/>
<path d="M50.0195 0.0527162L50.1474 2.9804C51.2781 2.94002 52.4222 2.92656 53.5529 2.9804L53.6269 0.0392556C52.4222 -0.0213172 51.2242 -0.00785657 50.0195 0.0527162ZM57.2142 0.227704L56.9315 3.16212C58.0622 3.2698 59.1929 3.41114 60.2967 3.59286L60.7813 0.685365C59.6102 0.496917 58.4055 0.335389 57.2142 0.227704ZM46.4457 0.335389C45.2679 0.476726 44.0699 0.651714 42.8921 0.873814L43.4305 3.77458C44.541 3.55921 45.6717 3.38422 46.7957 3.25634L46.4457 0.335389ZM64.3416 1.40551L63.6686 4.27935C64.7656 4.54183 65.8761 4.8447 66.9462 5.18794L67.8279 2.3814C66.6501 2.01797 65.4858 1.68818 64.3214 1.40551H64.3416ZM39.3721 1.66799C38.2145 1.97085 37.0637 2.34102 35.933 2.71119L36.8752 5.49081C37.9453 5.14083 39.0424 4.81778 40.1259 4.51491L39.3721 1.66799ZM71.1931 3.59286L70.1095 6.33209C71.146 6.74264 72.1959 7.2003 73.2054 7.67816L74.4909 5.03315C73.3871 4.52837 72.2901 4.03033 71.1729 3.59286H71.1931ZM32.5611 3.99668C31.464 4.4678 30.3603 4.97257 29.2969 5.51773L30.6429 8.14255C31.6592 7.62431 32.662 7.13973 33.7187 6.70899L32.5611 3.99668ZM77.6542 6.72918L76.1802 9.2867C77.1561 9.83859 78.1253 10.451 79.0675 11.077L80.703 8.62713C79.6934 7.96756 78.6906 7.34164 77.6743 6.72918H77.6542ZM83.6239 10.7674L81.8068 13.0893C82.6952 13.7624 83.5634 14.5094 84.3979 15.2632L86.3766 13.0893C85.4815 12.2682 84.5662 11.4741 83.6239 10.7472V10.7674ZM88.9611 15.5863L86.841 17.6054C87.6285 18.4063 88.3957 19.2678 89.1091 20.1292L91.3705 18.2447C90.61 17.3294 89.7889 16.4208 88.9611 15.5661V15.5863ZM93.5848 21.1051L91.1955 22.8214C91.8686 23.7232 92.4945 24.6789 93.08 25.6346L95.5904 24.0799C94.951 23.0636 94.2848 22.0541 93.5848 21.0849V21.1051ZM97.3807 27.2297L94.7626 28.5758C95.2943 29.5786 95.7923 30.5949 96.2365 31.6381L98.9286 30.4603C98.4643 29.3699 97.9326 28.2729 97.3807 27.2095V27.2297ZM100.268 33.8254L97.4951 34.8148C97.8653 35.8782 98.2152 36.9617 98.5114 38.0588L101.352 37.2646C101.029 36.0935 100.665 34.9359 100.268 33.8052V33.8254ZM102.186 40.7644L99.2988 41.3566C99.5209 42.4469 99.7094 43.5776 99.8507 44.7218L102.772 44.3449C102.624 43.1132 102.422 41.922 102.186 40.7442V40.7644ZM103.101 47.9052L100.16 48.0802C100.221 48.9955 100.241 49.931 100.241 50.8598V51.4723H103.189V50.7993C103.189 49.8503 103.162 48.8609 103.101 47.885V47.9052ZM100.08 54.8644C99.9853 55.9816 99.8507 57.1257 99.6757 58.2295L102.583 58.6804C102.772 57.5026 102.913 56.2979 103.007 55.0999L100.08 54.8644ZM99.0431 61.5947C98.7941 62.685 98.4979 63.7955 98.1681 64.8656L100.981 65.7271C101.338 64.5829 101.654 63.4051 101.917 62.2408L99.0431 61.5947ZM97.0644 68.0692C96.6605 69.1326 96.2119 70.1736 95.7183 71.1921L98.4104 72.4372C98.9152 71.3671 99.3863 70.2498 99.8103 69.1326L97.0644 68.0692Z" fill="url(#paint6_linear)"/>
<path d="M94.5608 81.6845C93.6835 81.6845 92.826 81.4244 92.0967 80.937C91.3673 80.4497 90.7988 79.757 90.4631 78.9465C90.1274 78.1361 90.0396 77.2443 90.2107 76.384C90.3818 75.5236 90.8043 74.7333 91.4246 74.113C92.0448 73.4927 92.8351 73.0703 93.6955 72.8992C94.5558 72.7281 95.4476 72.8159 96.2581 73.1516C97.0685 73.4873 97.7612 74.0558 98.2486 74.7851C98.7359 75.5145 98.996 76.372 98.996 77.2492C98.9943 78.425 98.5264 79.5521 97.695 80.3835C96.8636 81.2149 95.7365 81.6827 94.5608 81.6845ZM94.5608 75.7618C94.2647 75.7605 93.9749 75.8472 93.7281 76.0108C93.4814 76.1745 93.2889 76.4078 93.1749 76.6811C93.061 76.9544 93.0309 77.2553 93.0883 77.5458C93.1457 77.8363 93.2882 78.1031 93.4975 78.3125C93.7069 78.5218 93.9738 78.6643 94.2642 78.7217C94.5547 78.7791 94.8556 78.749 95.1289 78.6351C95.4022 78.5211 95.6355 78.3286 95.7992 78.0819C95.9628 77.8351 96.0495 77.5453 96.0482 77.2492C96.0464 76.8553 95.8891 76.478 95.6106 76.1995C95.332 75.9209 94.9547 75.7636 94.5608 75.7618Z" fill="url(#paint7_linear)"/>
<path d="M22.6877 18.1503C21.318 18.1503 19.979 17.7441 18.8401 16.9831C17.7012 16.2222 16.8136 15.1405 16.2894 13.8751C15.7652 12.6096 15.6281 11.2171 15.8953 9.87371C16.1625 8.5303 16.8221 7.2963 17.7906 6.32775C18.7592 5.3592 19.9932 4.69961 21.3366 4.43239C22.68 4.16517 24.0725 4.30232 25.338 4.82649C26.6034 5.35067 27.6851 6.23832 28.446 7.37721C29.207 8.5161 29.6132 9.85508 29.6132 11.2248C29.6132 13.0616 28.8835 14.8231 27.5848 16.1219C26.286 17.4206 24.5245 18.1503 22.6877 18.1503ZM22.6877 7.2472C21.8991 7.24586 21.1278 7.47858 20.4716 7.91587C19.8153 8.35317 19.3036 8.97537 19.0012 9.70369C18.6988 10.432 18.6193 11.2337 18.7729 12.0072C18.9264 12.7807 19.306 13.4913 19.8636 14.0489C20.4212 14.6065 21.1318 14.9861 21.9053 15.1396C22.6788 15.2932 23.4805 15.2137 24.2088 14.9113C24.9371 14.6089 25.5593 14.0972 25.9966 13.4409C26.4339 12.7847 26.6666 12.0134 26.6653 11.2248C26.6635 10.1704 26.2439 9.15974 25.4983 8.41418C24.7528 7.66862 23.7421 7.24897 22.6877 7.2472Z" fill="url(#paint8_linear)"/>
<path d="M24.4578 97.1509C23.6294 97.1491 22.802 97.0929 21.981 96.9826L21.0859 96.8615L19.7937 93.1665C18.9136 92.8885 18.0618 92.528 17.2496 92.0897L13.7364 93.7252L13.0297 93.18C12.4149 92.7083 11.8346 92.1932 11.2933 91.6388C10.7586 91.0992 10.2616 90.5236 9.8059 89.9158L9.24728 89.1957L10.9635 85.6757C10.5404 84.8599 10.1956 84.0058 9.93378 83.1249L6.25902 81.7789L6.15133 80.877C5.98 79.3644 5.99356 77.8366 6.19172 76.3273L6.30614 75.4255L10.0145 74.14C10.2945 73.2585 10.655 72.4046 11.0914 71.5892L9.44919 68.0625L9.98761 67.3491C10.4611 66.7317 10.9809 66.1513 11.5423 65.6127C12.0809 65.0867 12.6494 64.5923 13.2451 64.132L13.9652 63.5801L17.4852 65.2896C17.7813 65.1415 18.064 65.0137 18.3399 64.8992C18.8159 64.6766 19.3061 64.4855 19.8071 64.3272L20.0494 64.2531L21.3955 60.5717L22.2974 60.4707C23.8064 60.2923 25.3312 60.2923 26.8403 60.4707L27.7422 60.5918L29.0344 64.3002C29.9107 64.5824 30.7599 64.9428 31.5717 65.3771L35.1051 63.7349L35.8185 64.2733C36.4237 64.744 36.995 65.2568 37.528 65.8078C38.0643 66.3474 38.5656 66.9206 39.0289 67.5241L39.5875 68.2442L37.8713 71.7776C38.2965 72.5979 38.6435 73.4565 38.9077 74.3419L42.596 75.6879L42.6969 76.5965C42.8652 78.1093 42.8517 79.6367 42.6565 81.1462L42.5421 82.0548L38.8337 83.3941C38.7193 83.7643 38.578 84.1412 38.4165 84.545C38.2177 85.0214 37.993 85.4864 37.7434 85.9382L39.3991 89.4783L38.8203 90.1985C38.3626 90.7638 37.8578 91.3359 37.3261 91.8811C36.7741 92.4209 36.1898 92.9266 35.5763 93.3954L34.8561 93.9473L31.3294 92.2378C30.5141 92.6568 29.6626 93.0014 28.7854 93.2675L27.4393 96.9624L26.5307 97.0634C25.8418 97.1293 25.1498 97.1585 24.4578 97.1509ZM23.2598 94.1626C23.9321 94.205 24.6065 94.205 25.2789 94.1626L26.5307 90.7975L27.2845 90.6023C28.4214 90.317 29.5131 89.8753 30.5285 89.2899L31.2016 88.8928L34.459 90.4744C34.7148 90.2523 34.9705 90.0168 35.2196 89.8014C35.4686 89.586 35.6907 89.3033 35.8926 89.0476L34.3648 85.7834L34.7686 85.1104C35.0963 84.5757 35.3799 84.0152 35.6166 83.4345C35.7856 83.031 35.9295 82.6174 36.0474 82.1961L36.1214 81.9606L36.2897 81.1193L39.7625 79.928C39.8063 79.2422 39.8063 78.5543 39.7625 77.8686L36.3637 76.6369L36.1752 75.8629C35.8982 74.7213 35.4561 73.6261 34.8628 72.6122L34.4657 71.9392L36.0474 68.6884C35.8185 68.4192 35.5964 68.1769 35.3743 67.9481C35.1522 67.7192 34.8561 67.4433 34.6205 67.2347L31.3362 68.7624L30.6631 68.3519C29.6586 67.7509 28.5729 67.2976 27.4393 67.0058L26.6855 66.8107L25.4942 63.3849C24.8107 63.3412 24.1251 63.3412 23.4415 63.3849L22.2031 66.7905L21.4224 66.9722C21.1465 67.0395 20.8907 67.1068 20.6148 67.1943C20.2125 67.3234 19.8191 67.4785 19.437 67.6587C19.009 67.8284 18.5968 68.0356 18.2053 68.2779L17.5323 68.6817L14.2748 67.1001C14.0258 67.3154 13.7768 67.5443 13.521 67.7731C13.2653 68.0019 13.0432 68.2509 12.848 68.5067L14.3758 71.7978L13.9652 72.4708C13.3607 73.4711 12.9071 74.5552 12.6192 75.6879L12.424 76.4552L8.99153 77.6465C8.95233 78.3189 8.95233 78.9931 8.99153 79.6655L12.3567 80.9106L12.5451 81.6644C12.8351 82.8008 13.2885 83.889 13.8912 84.895L14.3017 85.568L12.7134 88.8322C12.9422 89.1014 13.1666 89.3505 13.3864 89.5793C13.6287 89.8283 13.8845 90.0706 14.1402 90.2994L17.4179 88.7784L18.0909 89.1822C19.0942 89.7856 20.1803 90.2391 21.3147 90.5283L22.0753 90.7302L23.2598 94.1626Z" fill="url(#paint9_linear)"/>
<path d="M24.4173 86.5372C23.3836 86.5382 22.3599 86.3341 21.4057 85.9367C20.4514 85.5393 19.5855 84.9564 18.8581 84.222C18.0889 83.5035 17.4731 82.6368 17.0477 81.674C16.6223 80.7113 16.3962 79.6724 16.3829 78.6199C16.3697 77.5675 16.5695 76.5232 16.9705 75.55C17.3715 74.5769 17.9653 73.6949 18.7161 72.9573C19.4669 72.2196 20.3592 71.6416 21.3394 71.2579C22.3195 70.8742 23.3671 70.6929 24.4192 70.7248C25.4712 70.7567 26.506 71.0012 27.461 71.4435C28.4161 71.8859 29.2718 72.5169 29.9765 73.2987C31.0514 74.3943 31.7789 75.7828 32.0678 77.2901C32.3566 78.7975 32.194 80.3566 31.6003 81.7719C31.0066 83.1872 30.0082 84.3957 28.7303 85.2459C27.4525 86.096 25.9521 86.5499 24.4173 86.5507V86.5372ZM20.9512 82.1491C21.624 82.8333 22.4845 83.3027 23.424 83.4979C24.3635 83.6932 25.3398 83.6055 26.2295 83.2459C27.1192 82.8864 27.8823 82.2711 28.4224 81.4779C28.9624 80.6847 29.2552 79.7492 29.2637 78.7897C29.2721 77.8301 28.9959 76.8896 28.4699 76.087C27.9439 75.2844 27.1918 74.6558 26.3086 74.2806C25.4254 73.9054 24.4508 73.8005 23.508 73.9791C22.5652 74.1578 21.6965 74.6119 21.0118 75.2842C20.5568 75.7308 20.1943 76.2627 19.945 76.8495C19.6958 77.4363 19.5646 78.0665 19.5589 78.7041C19.5533 79.3416 19.6734 79.974 19.9123 80.5651C20.1511 81.1562 20.5042 81.6945 20.9512 82.1491Z" fill="url(#paint10_linear)"/>
<path d="M1.92487 41.2218C2.98794 41.2218 3.84974 40.36 3.84974 39.2969C3.84974 38.2339 2.98794 37.3721 1.92487 37.3721C0.861793 37.3721 0 38.2339 0 39.2969C0 40.36 0.861793 41.2218 1.92487 41.2218Z" fill="#10B6FF"/>
<path d="M8.56794 41.2218C9.63101 41.2218 10.4928 40.36 10.4928 39.2969C10.4928 38.2339 9.63101 37.3721 8.56794 37.3721C7.50486 37.3721 6.64307 38.2339 6.64307 39.2969C6.64307 40.36 7.50486 41.2218 8.56794 41.2218Z" fill="#10B6FF"/>
<path d="M3.91713 45.7047C3.91713 45.324 3.80424 44.9518 3.59273 44.6353C3.38122 44.3187 3.08059 44.072 2.72887 43.9263C2.37714 43.7806 1.99012 43.7425 1.61673 43.8168C1.24334 43.891 0.900369 44.0744 0.631171 44.3436C0.361973 44.6128 0.178641 44.9557 0.10437 45.3291C0.030098 45.7025 0.0682167 46.0895 0.213905 46.4413C0.359594 46.793 0.606317 47.0936 0.92286 47.3051C1.2394 47.5166 1.61155 47.6295 1.99226 47.6295C2.50276 47.6295 2.99236 47.4267 3.35334 47.0657C3.71433 46.7048 3.91713 46.2152 3.91713 45.7047Z" fill="#10B6FF"/>
<path d="M10.5665 45.7047C10.5665 45.324 10.4536 44.9518 10.2421 44.6353C10.0306 44.3187 9.73001 44.072 9.37828 43.9263C9.02656 43.7806 8.63953 43.7425 8.26614 43.8168C7.89275 43.891 7.54977 44.0744 7.28057 44.3436C7.01138 44.6128 6.82806 44.9557 6.75378 45.3291C6.67951 45.7025 6.71763 46.0895 6.86332 46.4413C7.00901 46.793 7.25572 47.0936 7.57226 47.3051C7.88881 47.5166 8.26096 47.6295 8.64166 47.6295C9.15217 47.6295 9.64178 47.4267 10.0028 47.0657C10.3637 46.7048 10.5665 46.2152 10.5665 45.7047Z" fill="#10B6FF"/>
<path d="M1.92487 53.8077C2.98794 53.8077 3.84974 52.946 3.84974 51.8829C3.84974 50.8198 2.98794 49.958 1.92487 49.958C0.861793 49.958 0 50.8198 0 51.8829C0 52.946 0.861793 53.8077 1.92487 53.8077Z" fill="#10B6FF"/>
<path d="M8.56794 53.8077C9.63101 53.8077 10.4928 52.946 10.4928 51.8829C10.4928 50.8198 9.63101 49.958 8.56794 49.958C7.50486 49.958 6.64307 50.8198 6.64307 51.8829C6.64307 52.946 7.50486 53.8077 8.56794 53.8077Z" fill="#10B6FF"/>
<path d="M10.5665 58.2833C10.5665 57.9026 10.4536 57.5304 10.2421 57.2139C10.0306 56.8973 9.73001 56.6506 9.37828 56.5049C9.02656 56.3592 8.63953 56.3211 8.26614 56.3954C7.89275 56.4697 7.54977 56.653 7.28057 56.9222C7.01138 57.1914 6.82806 57.5344 6.75378 57.9077C6.67951 58.2811 6.71763 58.6682 6.86332 59.0199C7.00901 59.3716 7.25572 59.6722 7.57226 59.8837C7.88881 60.0952 8.26096 60.2081 8.64166 60.2081C9.15217 60.2081 9.64178 60.0053 10.0028 59.6444C10.3637 59.2834 10.5665 58.7938 10.5665 58.2833Z" fill="#10B6FF"/>
<path d="M10.5665 21.2261C10.5665 20.8454 10.4536 20.4733 10.2421 20.1567C10.0306 19.8402 9.73001 19.5935 9.37828 19.4478C9.02656 19.3021 8.63953 19.264 8.26614 19.3383C7.89275 19.4125 7.54977 19.5959 7.28057 19.8651C7.01138 20.1342 6.82806 20.4772 6.75378 20.8506C6.67951 21.224 6.71763 21.611 6.86332 21.9628C7.00901 22.3145 7.25572 22.6151 7.57226 22.8266C7.88881 23.0381 8.26096 23.151 8.64166 23.151C9.15217 23.151 9.64178 22.9482 10.0028 22.5872C10.3637 22.2262 10.5665 21.7366 10.5665 21.2261Z" fill="#10B6FF"/>
<path d="M1.92487 29.3361C2.98794 29.3361 3.84974 28.4743 3.84974 27.4112C3.84974 26.3481 2.98794 25.4863 1.92487 25.4863C0.861793 25.4863 0 26.3481 0 27.4112C0 28.4743 0.861793 29.3361 1.92487 29.3361Z" fill="#10B6FF"/>
<path d="M8.56794 29.3361C9.63101 29.3361 10.4928 28.4743 10.4928 27.4112C10.4928 26.3481 9.63101 25.4863 8.56794 25.4863C7.50486 25.4863 6.64307 26.3481 6.64307 27.4112C6.64307 28.4743 7.50486 29.3361 8.56794 29.3361Z" fill="#10B6FF"/>
<path d="M3.91713 33.8116C3.91713 33.4309 3.80424 33.0587 3.59273 32.7422C3.38122 32.4256 3.08059 32.1789 2.72887 32.0332C2.37714 31.8876 1.99012 31.8494 1.61673 31.9237C1.24334 31.998 0.900369 32.1813 0.631171 32.4505C0.361973 32.7197 0.178641 33.0627 0.10437 33.4361C0.030098 33.8095 0.0682167 34.1965 0.213905 34.5482C0.359594 34.8999 0.606317 35.2006 0.92286 35.4121C1.2394 35.6236 1.61155 35.7365 1.99226 35.7365C2.50276 35.7365 2.99236 35.5337 3.35334 35.1727C3.71433 34.8117 3.91713 34.3221 3.91713 33.8116Z" fill="#10B6FF"/>
<path d="M10.5665 33.8116C10.5665 33.4309 10.4536 33.0587 10.2421 32.7422C10.0306 32.4256 9.73001 32.1789 9.37828 32.0332C9.02656 31.8876 8.63953 31.8494 8.26614 31.9237C7.89275 31.998 7.54977 32.1813 7.28057 32.4505C7.01138 32.7197 6.82806 33.0627 6.75378 33.4361C6.67951 33.8095 6.71763 34.1965 6.86332 34.5482C7.00901 34.8999 7.25572 35.2006 7.57226 35.4121C7.88881 35.6236 8.26096 35.7365 8.64166 35.7365C9.15217 35.7365 9.64178 35.5337 10.0028 35.1727C10.3637 34.8117 10.5665 34.3221 10.5665 33.8116Z" fill="#10B6FF"/>
<path d="M48.4449 73.5411L47.5699 73.3324C46.5563 73.0876 45.5602 72.7751 44.5884 72.3969C43.6142 72.0346 42.6672 71.6028 41.7549 71.1047L40.9608 70.6807L41.0819 65.2965C39.9449 64.4308 38.9006 63.4497 37.9658 62.3688L32.6152 62.786L32.144 62.0188C31.0685 60.247 30.2184 58.3478 29.6134 56.3653L29.3375 55.4904L33.2545 51.7618C33.0595 50.3368 33.0189 48.8949 33.1334 47.4611L29.0952 43.9816L29.2837 43.1134C29.5197 42.0989 29.8278 41.1025 30.2057 40.1318C30.5776 39.1605 31.0114 38.2141 31.5047 37.2984L31.9287 36.5042L37.3129 36.6253C38.1822 35.487 39.1704 34.4446 40.2608 33.5159L39.857 28.1317L40.6242 27.6606C42.3937 26.5879 44.2878 25.7358 46.2642 25.1232L47.1392 24.854L50.8543 28.7643C52.2749 28.5711 53.7119 28.5283 55.1415 28.6365L58.6413 24.5444L59.5162 24.7531C60.5138 25.0025 61.4959 25.3104 62.4574 25.6751C63.4311 26.0464 64.3798 26.4803 65.2975 26.9741L66.0984 27.3981L65.9773 32.7823C67.1203 33.656 68.1671 34.6487 69.1002 35.7437L74.4844 35.3062L74.9555 36.0936C76.0236 37.8685 76.8712 39.767 77.4794 41.7471L77.7486 42.622L73.771 46.3776C73.9725 47.7975 74.0154 49.2354 73.8989 50.6648L77.9909 54.1511L77.7688 55.0395C77.5152 56.0359 77.2074 57.0177 76.8467 57.9806C76.4794 58.9539 76.0501 59.9025 75.5613 60.8208L75.1373 61.6284L69.753 61.5073C68.883 62.6428 67.8973 63.6849 66.8119 64.6167L67.2359 70.0009L66.4484 70.4721C64.6702 71.5394 62.7668 72.3826 60.7815 72.9825L59.9133 73.2449L56.2184 69.3548C54.7961 69.5544 53.3564 69.5995 51.9244 69.4894L48.4449 73.5411ZM43.949 68.9241C44.5009 69.1933 45.0662 69.4356 45.6316 69.6442C46.1969 69.8529 46.8161 70.075 47.3882 70.2365L50.6928 66.3733L51.4668 66.4675C53.1411 66.6622 54.8351 66.6101 56.4943 66.3127L57.275 66.1714L60.7882 69.8663C61.9504 69.4648 63.0762 68.9649 64.1534 68.3722L63.7496 63.2976L64.362 62.8062C65.68 61.7648 66.8406 60.5384 67.8079 59.1651L68.2589 58.4921L73.3605 58.6065C73.6431 58.0277 73.8787 57.4691 74.0941 56.9172C74.3094 56.3653 74.5046 55.7394 74.6729 55.1606L70.8097 51.8628L70.8972 51.082C71.0986 49.4172 71.0487 47.7315 70.7491 46.0814L70.601 45.294L74.3094 41.7942C73.9004 40.634 73.3985 39.5086 72.8086 38.4291L67.7406 38.8396L67.2493 38.2272C66.2006 36.9029 64.9677 35.7357 63.5881 34.761L62.915 34.3034L63.0294 29.2153C62.4641 28.9393 61.9055 28.7038 61.3468 28.4884C60.7882 28.273 60.1354 28.0577 59.6104 27.9029L56.2857 31.793L55.4982 31.692C53.8308 31.4967 52.1438 31.5466 50.4909 31.8401L49.7102 31.968L46.1969 28.273C45.0351 28.6808 43.9095 29.1851 42.8318 29.7806L43.2221 34.8755L42.603 35.36C41.2842 36.398 40.1234 37.6223 39.157 38.9944L38.7061 39.6674L33.6112 39.553C33.3824 40.0443 33.1401 40.5962 32.8776 41.2625C32.6152 41.9288 32.4536 42.4269 32.2988 42.972L36.1889 46.2968L36.1284 47.0506C35.9264 48.7197 35.9741 50.4096 36.2697 52.0647L36.4111 52.8454L32.7228 56.3519C33.1247 57.5139 33.6245 58.6396 34.217 59.717L39.2916 59.3132L39.783 59.9324C40.8237 61.2506 42.0475 62.4133 43.4173 63.385L44.0903 63.836L43.949 68.9241Z" fill="url(#paint11_linear)"/>
<path d="M53.1562 60.2487C51.735 60.2456 50.3283 59.9626 49.0165 59.4159C47.7047 58.8692 46.5133 58.0694 45.5106 57.0623C44.5078 56.0551 43.7133 54.8603 43.1722 53.5461C42.6312 52.2319 42.3544 50.824 42.3574 49.4028C42.3605 47.9816 42.6435 46.5749 43.1903 45.2631C43.737 43.9512 44.5368 42.7599 45.5439 41.7572C46.551 40.7544 47.7458 39.9598 49.06 39.4188C50.3742 38.8778 51.7821 38.6009 53.2034 38.604C56.0736 38.6103 58.8238 39.7565 60.849 41.7905C62.8742 43.8245 64.0084 46.5797 64.0021 49.4499C63.9959 52.3202 62.8497 55.0704 60.8157 57.0956C58.7817 59.1207 56.0265 60.255 53.1562 60.2487ZM53.2034 41.5519C51.239 41.5512 49.3452 42.2847 47.8939 43.6085C46.4425 44.9323 45.5384 46.7508 45.3589 48.707C45.1794 50.6632 45.7376 52.6158 46.9239 54.1816C48.1101 55.7474 49.8388 56.8132 51.7706 57.1699C53.7023 57.5266 55.6976 57.1484 57.3648 56.1095C59.0321 55.0707 60.2508 53.4461 60.7818 51.5549C61.3127 49.6636 61.1176 47.6421 60.2348 45.8873C59.3519 44.1325 57.845 42.771 56.0099 42.0701C55.1139 41.7274 54.1627 41.5518 53.2034 41.5519Z" fill="url(#paint12_linear)"/>
<defs>
<linearGradient id="paint0_linear" x1="17089.8" y1="3967.79" x2="24381.8" y2="3967.79" gradientUnits="userSpaceOnUse">
<stop stop-color="#10C2FF"/>
<stop offset="0.34" stop-color="#10C0FF"/>
<stop offset="0.52" stop-color="#11B8FF"/>
<stop offset="0.68" stop-color="#13AAFF"/>
<stop offset="0.81" stop-color="#1596FF"/>
<stop offset="0.92" stop-color="#187DFF"/>
<stop offset="1" stop-color="#1A68FF"/>
</linearGradient>
<linearGradient id="paint1_linear" x1="39.5674" y1="101.923" x2="116.044" y2="71.8452" gradientUnits="userSpaceOnUse">
<stop stop-color="#10C2FF"/>
<stop offset="0.22" stop-color="#10BEFF"/>
<stop offset="0.43" stop-color="#12B3FF"/>
<stop offset="0.63" stop-color="#14A0FF"/>
<stop offset="0.83" stop-color="#1786FF"/>
<stop offset="1" stop-color="#1A68FF"/>
</linearGradient>
<linearGradient id="paint2_linear" x1="32.3728" y1="95.8317" x2="4.26699" y2="-3.58169" gradientUnits="userSpaceOnUse">
<stop stop-color="#FF059D"/>
<stop offset="0.13" stop-color="#FF2787"/>
<stop offset="0.56" stop-color="#FF9741"/>
<stop offset="0.86" stop-color="#FFDE15"/>
<stop offset="1" stop-color="#FFF904"/>
</linearGradient>
<linearGradient id="paint3_linear" x1="9765.02" y1="1773.76" x2="11582.8" y2="-1173.6" gradientUnits="userSpaceOnUse">
<stop stop-color="#FF059D"/>
<stop offset="0.13" stop-color="#FF2787"/>
<stop offset="0.56" stop-color="#FF9741"/>
<stop offset="0.86" stop-color="#FFDE15"/>
<stop offset="1" stop-color="#FFF904"/>
</linearGradient>
<linearGradient id="paint4_linear" x1="2195.54" y1="480.781" x2="2322.51" y2="480.781" gradientUnits="userSpaceOnUse">
<stop stop-color="#FF059D"/>
<stop offset="0.24" stop-color="#FF3C7B"/>
<stop offset="0.79" stop-color="#FFC425"/>
<stop offset="1" stop-color="#FFF904"/>
</linearGradient>
<linearGradient id="paint5_linear" x1="4076.32" y1="1497.06" x2="4306.17" y2="1497.06" gradientUnits="userSpaceOnUse">
<stop stop-color="#1A68FF"/>
<stop offset="0.17" stop-color="#1786FF"/>
<stop offset="0.37" stop-color="#14A0FF"/>
<stop offset="0.57" stop-color="#12B3FF"/>
<stop offset="0.78" stop-color="#10BEFF"/>
<stop offset="1" stop-color="#10C2FF"/>
</linearGradient>
<linearGradient id="paint6_linear" x1="18878.4" y1="4119.5" x2="26993.3" y2="4119.5" gradientUnits="userSpaceOnUse">
<stop stop-color="#E3F24C"/>
<stop offset="0.2" stop-color="#CAED62"/>
<stop offset="1" stop-color="#64D8BC"/>
</linearGradient>
<linearGradient id="paint7_linear" x1="3154.9" y1="1118.39" x2="3271.81" y2="1118.39" gradientUnits="userSpaceOnUse">
<stop stop-color="#E3F24C"/>
<stop offset="0.2" stop-color="#CAED62"/>
<stop offset="1" stop-color="#64D8BC"/>
</linearGradient>
<linearGradient id="paint8_linear" x1="3270.88" y1="278.133" x2="3555.93" y2="278.133" gradientUnits="userSpaceOnUse">
<stop stop-color="#E3F24C"/>
<stop offset="0.2" stop-color="#CAED62"/>
<stop offset="1" stop-color="#64D8BC"/>
</linearGradient>
<linearGradient id="paint9_linear" x1="8117.83" y1="4481.84" x2="10128.3" y2="4481.84" gradientUnits="userSpaceOnUse">
<stop stop-color="#E3F24C"/>
<stop offset="0.2" stop-color="#CAED62"/>
<stop offset="1" stop-color="#64D8BC"/>
</linearGradient>
<linearGradient id="paint10_linear" x1="3755.77" y1="1971.84" x2="4121.95" y2="1971.84" gradientUnits="userSpaceOnUse">
<stop stop-color="#E3F24C"/>
<stop offset="0.2" stop-color="#CAED62"/>
<stop offset="1" stop-color="#64D8BC"/>
</linearGradient>
<linearGradient id="paint11_linear" x1="12486.3" y1="3747.8" x2="16041" y2="3747.8" gradientUnits="userSpaceOnUse">
<stop stop-color="#FFF904"/>
<stop offset="1" stop-color="#FF059D"/>
</linearGradient>
<linearGradient id="paint12_linear" x1="5984.7" y1="1695.07" x2="6680.58" y2="1695.07" gradientUnits="userSpaceOnUse">
<stop stop-color="#FFF904"/>
<stop offset="1" stop-color="#FF059D"/>
</linearGradient>
</defs>
</svg>
