<svg width="89" height="92" viewBox="0 0 89 92" fill="none" xmlns="http://www.w3.org/2000/svg">
<path d="M3.91249 49.1926H0.893066V27.9228C0.893066 27.7245 0.932163 27.5282 1.00803 27.345C1.0839 27.1619 1.19509 26.9955 1.33528 26.8553C1.47546 26.7151 1.64185 26.6039 1.82502 26.528C2.00819 26.4521 2.20452 26.4131 2.40278 26.4131H11.2916V29.4325H3.91249V49.1926Z" fill="url(#paint0_linear)"/>
<path d="M75.2698 14.6595H64.5185C64.1181 14.6595 63.734 14.5004 63.4509 14.2173C63.1678 13.9342 63.0088 13.5502 63.0088 13.1498V1.8623H66.0282V11.6401H75.2698V14.6595Z" fill="url(#paint1_linear)"/>
<path d="M56.1293 16.3314H40.8701C40.4697 16.3314 40.0857 16.1724 39.8026 15.8892C39.5194 15.6061 39.3604 15.2221 39.3604 14.8217C39.3604 14.4213 39.5194 14.0373 39.8026 13.7542C40.0857 13.4711 40.4697 13.312 40.8701 13.312H56.1293C56.5297 13.312 56.9137 13.4711 57.1968 13.7542C57.4799 14.0373 57.639 14.4213 57.639 14.8217C57.639 15.2221 57.4799 15.6061 57.1968 15.8892C56.9137 16.1724 56.5297 16.3314 56.1293 16.3314Z" fill="url(#paint2_linear)"/>
<path d="M53.6883 25.2132H40.8701C40.4697 25.2132 40.0857 25.0542 39.8026 24.7711C39.5194 24.4879 39.3604 24.1039 39.3604 23.7035C39.3604 23.3031 39.5194 22.9192 39.8026 22.636C40.0857 22.3529 40.4697 22.1938 40.8701 22.1938H53.6883C54.0887 22.1938 54.4728 22.3529 54.7559 22.636C55.0391 22.9192 55.1981 23.3031 55.1981 23.7035C55.1981 24.1039 55.0391 24.4879 54.7559 24.7711C54.4728 25.0542 54.0887 25.2132 53.6883 25.2132Z" fill="url(#paint3_linear)"/>
<path d="M45.0551 34.0033H22.2967C21.8963 34.0033 21.5124 33.8442 21.2292 33.5611C20.9461 33.278 20.7871 32.894 20.7871 32.4936C20.7871 32.0932 20.9461 31.7092 21.2292 31.4261C21.5124 31.1429 21.8963 30.9839 22.2967 30.9839H45.0551C45.4555 30.9839 45.8396 31.1429 46.1227 31.4261C46.4058 31.7092 46.5648 32.0932 46.5648 32.4936C46.5648 32.894 46.4058 33.278 46.1227 33.5611C45.8396 33.8442 45.4555 34.0033 45.0551 34.0033Z" fill="url(#paint4_linear)"/>
<path d="M27.7629 26.3627C26.1918 26.3627 24.656 25.8968 23.3497 25.024C22.0434 24.1511 21.0252 22.9105 20.424 21.459C19.8228 20.0075 19.6655 18.4103 19.972 16.8694C20.2785 15.3285 21.0351 13.9131 22.146 12.8022C23.2569 11.6913 24.6723 10.9347 26.2132 10.6282C27.7541 10.3217 29.3513 10.479 30.8028 11.0803C32.2543 11.6815 33.4949 12.6996 34.3677 14.0059C35.2406 15.3123 35.7064 16.8481 35.7064 18.4191C35.7046 20.5253 34.867 22.5447 33.3777 24.034C31.8884 25.5233 29.869 26.3608 27.7629 26.3627ZM27.7629 13.502C26.7862 13.502 25.8314 13.7917 25.0194 14.3343C24.2073 14.8769 23.5743 15.6482 23.2006 16.5505C22.8268 17.4529 22.7289 18.4458 22.9195 19.4037C23.11 20.3617 23.5804 21.2416 24.271 21.9322C24.9616 22.6228 25.8415 23.0932 26.7995 23.2837C27.7574 23.4742 28.7503 23.3764 29.6527 23.0027C30.555 22.6289 31.3263 21.996 31.8689 21.1839C32.4115 20.3718 32.7011 19.417 32.7011 18.4403C32.7011 17.1306 32.1809 15.8745 31.2548 14.9484C30.3287 14.0223 29.0726 13.502 27.7629 13.502Z" fill="url(#paint5_linear)"/>
<path d="M22.8753 81.8278V78.8154H25.8877V81.8278H22.8753ZM20.0957 81.8278V78.8154H17.0834V81.8278H20.0957ZM14.3109 81.8278V78.8154H11.2915V81.8278H14.3109Z" fill="url(#paint6_linear)"/>
<path d="M39.6802 53.0233H36.8583C36.4411 53.0233 36.041 52.8576 35.746 52.5626C35.4509 52.2675 35.2852 51.8674 35.2852 51.4501C35.2852 51.0329 35.4509 50.6328 35.746 50.3377C36.041 50.0427 36.4411 49.877 36.8583 49.877H39.6802C39.8868 49.877 40.0914 49.9176 40.2822 49.9967C40.4731 50.0758 40.6466 50.1916 40.7927 50.3377C40.9387 50.4838 41.0546 50.6572 41.1337 50.8481C41.2127 51.039 41.2535 51.2436 41.2535 51.4501C41.2535 51.6567 41.2127 51.8613 41.1337 52.0522C41.0546 52.243 40.9387 52.4165 40.7927 52.5626C40.6466 52.7086 40.4731 52.8245 40.2822 52.9036C40.0914 52.9826 39.8868 53.0233 39.6802 53.0233Z" fill="black"/>
<path d="M31.291 53.0238H15.8555C15.4383 53.0238 15.0381 52.8581 14.743 52.563C14.448 52.268 14.2822 51.8679 14.2822 51.4506C14.2822 51.0334 14.448 50.6332 14.743 50.3382C15.0381 50.0432 15.4383 49.8774 15.8555 49.8774H31.291C31.7083 49.8774 32.1085 50.0432 32.4035 50.3382C32.6985 50.6332 32.8643 51.0334 32.8643 51.4506C32.8643 51.8679 32.6985 52.268 32.4035 52.563C32.1085 52.8581 31.7083 53.0238 31.291 53.0238Z" fill="black"/>
<path d="M39.6792 52.9598H36.8574C36.457 52.9598 36.073 52.8008 35.7899 52.5176C35.5067 52.2345 35.3477 51.8505 35.3477 51.4501C35.3477 51.0497 35.5067 50.6657 35.7899 50.3826C36.073 50.0995 36.457 49.9404 36.8574 49.9404H39.6792C40.0796 49.9404 40.4637 50.0995 40.7468 50.3826C41.0299 50.6657 41.1889 51.0497 41.1889 51.4501C41.1889 51.8505 41.0299 52.2345 40.7468 52.5176C40.4637 52.8008 40.0796 52.9598 39.6792 52.9598Z" fill="url(#paint7_linear)"/>
<path d="M31.291 52.9598H15.8554C15.455 52.9598 15.0709 52.8008 14.7878 52.5176C14.5047 52.2345 14.3457 51.8505 14.3457 51.4501C14.3457 51.0497 14.5047 50.6657 14.7878 50.3826C15.0709 50.0995 15.455 49.9404 15.8554 49.9404H31.291C31.6913 49.9404 32.0754 50.0995 32.3585 50.3826C32.6417 50.6657 32.8007 51.0497 32.8007 51.4501C32.8007 51.8505 32.6417 52.2345 32.3585 52.5176C32.0754 52.8008 31.6913 52.9598 31.291 52.9598Z" fill="url(#paint8_linear)"/>
<path d="M73.9565 56.9528L75.9459 53.4819L77.9354 56.9528H73.9565ZM77.9354 50.526L75.9459 47.0551L73.9565 50.526H77.9354ZM73.9565 43.3726L75.9459 39.9087L77.9354 43.3726H73.9565ZM77.9354 36.9528L75.9459 33.4819L73.9565 36.9528H77.9354Z" fill="url(#paint9_linear)"/>
<path d="M46.1481 90.293H43.1499V83.4147C43.1518 80.5527 44.2896 77.8083 46.3134 75.7845C48.3372 73.7607 51.0815 72.623 53.9436 72.6211H86.4938V75.6405H53.9436C51.8855 75.6405 49.9116 76.4581 48.4563 77.9134C47.001 79.3687 46.1834 81.3425 46.1834 83.4006L46.1481 90.293Z" fill="url(#paint10_linear)"/>
<path d="M12.8158 39.9854H9.79639V1.84077C9.79639 1.64251 9.83548 1.44619 9.91135 1.26303C9.98722 1.07986 10.0984 0.913434 10.2386 0.773245C10.3788 0.633057 10.5452 0.521854 10.7283 0.445985C10.9115 0.370115 11.1078 0.331065 11.3061 0.331065H64.5336C64.7386 0.330312 64.9415 0.371907 65.1297 0.453241C65.3178 0.534576 65.4872 0.653897 65.6271 0.803728L76.3854 12.0912C76.6499 12.3721 76.7985 12.7425 76.8016 13.1282V23.7102H73.7752V13.7561L63.8987 3.35046H12.8158V39.9854Z" fill="url(#paint11_linear)"/>
<path d="M82.8331 91.7035H6.16289C4.76581 91.7017 3.42657 91.1458 2.43869 90.158C1.4508 89.1701 0.894933 87.8308 0.893066 86.4337V39.9857C0.893066 39.5853 1.05215 39.2013 1.33528 38.9182C1.6184 38.6351 2.00238 38.476 2.40278 38.476H49.6056L56.8437 27.3438L58.7132 24.6841C59.2563 23.9149 59.976 23.2872 60.812 22.8539C61.6479 22.4206 62.5758 22.1942 63.5174 22.1938H86.5932C86.9936 22.1938 87.3777 22.3529 87.6608 22.636C87.9439 22.9192 88.1029 23.3031 88.1029 23.7035V86.4337C88.101 87.8308 87.5453 89.1701 86.5574 90.158C85.5695 91.1458 84.2302 91.7017 82.8331 91.7035ZM3.91249 41.4954V86.4337C3.91249 87.0305 4.14958 87.6029 4.57162 88.025C4.99366 88.447 5.56603 88.6841 6.16289 88.6841H82.8331C83.1286 88.6841 83.4212 88.6259 83.6943 88.5128C83.9673 88.3997 84.2154 88.234 84.4244 88.025C84.6333 87.816 84.7991 87.5679 84.9122 87.2949C85.0253 87.0219 85.0835 86.7292 85.0835 86.4337V25.2132H63.5174C63.0594 25.2135 62.6083 25.3239 62.2019 25.5351C61.7955 25.7463 61.4458 26.0521 61.1824 26.4267L59.3481 29.0369L51.6867 40.8111C51.5531 41.0259 51.3672 41.2033 51.1463 41.3267C50.9255 41.4501 50.6769 41.5154 50.424 41.5166L3.91249 41.4954Z" fill="url(#paint12_linear)"/>
<defs>
<linearGradient id="paint0_linear" x1="13.1047" y1="28.3954" x2="-3.88295" y2="43.9933" gradientUnits="userSpaceOnUse">
<stop stop-color="#E3F24C"/>
<stop offset="0.2" stop-color="#CAED62"/>
<stop offset="1" stop-color="#64D8BC"/>
</linearGradient>
<linearGradient id="paint1_linear" x1="64.194" y1="14.8006" x2="71.0934" y2="5.66477" gradientUnits="userSpaceOnUse">
<stop stop-color="#FF059D"/>
<stop offset="0.45" stop-color="#FF9841"/>
<stop offset="1" stop-color="#FFF904"/>
</linearGradient>
<linearGradient id="paint2_linear" x1="26123.6" y1="107.487" x2="26107.9" y2="194.904" gradientUnits="userSpaceOnUse">
<stop stop-color="#E3F24C"/>
<stop offset="0.2" stop-color="#CAED62"/>
<stop offset="1" stop-color="#64D8BC"/>
</linearGradient>
<linearGradient id="paint3_linear" x1="22597.9" y1="156.98" x2="22582.3" y2="232.572" gradientUnits="userSpaceOnUse">
<stop stop-color="#E3F24C"/>
<stop offset="0.2" stop-color="#CAED62"/>
<stop offset="1" stop-color="#64D8BC"/>
</linearGradient>
<linearGradient id="paint4_linear" x1="36339" y1="192.763" x2="36323.3" y2="315.974" gradientUnits="userSpaceOnUse">
<stop stop-color="#E3F24C"/>
<stop offset="0.2" stop-color="#CAED62"/>
<stop offset="1" stop-color="#64D8BC"/>
</linearGradient>
<linearGradient id="paint5_linear" x1="22.9798" y1="24.7542" x2="32.546" y2="12.0841" gradientUnits="userSpaceOnUse">
<stop stop-color="#1A58FF"/>
<stop offset="0.05" stop-color="#1963FF"/>
<stop offset="0.23" stop-color="#1685FF"/>
<stop offset="0.42" stop-color="#13A0FF"/>
<stop offset="0.6" stop-color="#11B3FF"/>
<stop offset="0.8" stop-color="#10BEFF"/>
<stop offset="1" stop-color="#10C2FF"/>
</linearGradient>
<linearGradient id="paint6_linear" x1="20043.1" y1="492.17" x2="20052.2" y2="433.651" gradientUnits="userSpaceOnUse">
<stop stop-color="#FF059D"/>
<stop offset="0.45" stop-color="#FF9841"/>
<stop offset="1" stop-color="#FFF904"/>
</linearGradient>
<linearGradient id="paint7_linear" x1="8258.71" y1="313.926" x2="8202.76" y2="413.349" gradientUnits="userSpaceOnUse">
<stop stop-color="#E3F24C"/>
<stop offset="0.2" stop-color="#CAED62"/>
<stop offset="1" stop-color="#64D8BC"/>
</linearGradient>
<linearGradient id="paint8_linear" x1="25819.5" y1="282.615" x2="25796.9" y2="409.559" gradientUnits="userSpaceOnUse">
<stop stop-color="#E3F24C"/>
<stop offset="0.2" stop-color="#CAED62"/>
<stop offset="1" stop-color="#64D8BC"/>
</linearGradient>
<linearGradient id="paint9_linear" x1="5912.59" y1="1775.02" x2="5782.99" y2="1795.19" gradientUnits="userSpaceOnUse">
<stop stop-color="#E3F24C"/>
<stop offset="0.2" stop-color="#CAED62"/>
<stop offset="1" stop-color="#64D8BC"/>
</linearGradient>
<linearGradient id="paint10_linear" x1="61719.7" y1="2781.2" x2="62074.8" y2="1627.91" gradientUnits="userSpaceOnUse">
<stop stop-color="#FF059D"/>
<stop offset="0.45" stop-color="#FF9841"/>
<stop offset="1" stop-color="#FFF904"/>
</linearGradient>
<linearGradient id="paint11_linear" x1="92223.8" y1="3267.45" x2="93927.5" y2="-545.131" gradientUnits="userSpaceOnUse">
<stop stop-color="#FF059D"/>
<stop offset="0.45" stop-color="#FF9841"/>
<stop offset="1" stop-color="#FFF904"/>
</linearGradient>
<linearGradient id="paint12_linear" x1="119851" y1="11143" x2="125595" y2="1598.96" gradientUnits="userSpaceOnUse">
<stop stop-color="#1A58FF"/>
<stop offset="0.05" stop-color="#1963FF"/>
<stop offset="0.23" stop-color="#1685FF"/>
<stop offset="0.42" stop-color="#13A0FF"/>
<stop offset="0.6" stop-color="#11B3FF"/>
<stop offset="0.8" stop-color="#10BEFF"/>
<stop offset="1" stop-color="#10C2FF"/>
</linearGradient>
</defs>
</svg>
