<svg width="92" height="92" viewBox="0 0 92 92" fill="none" xmlns="http://www.w3.org/2000/svg">
<path d="M47.0354 50.8796C46.69 50.8797 46.3585 50.7444 46.1117 50.5028C45.865 50.2612 45.7228 49.9325 45.7156 49.5872C45.712 49.42 45.7417 49.2537 45.803 49.0981C45.8644 48.9424 45.9561 48.8006 46.0728 48.6808C46.1895 48.561 46.329 48.4656 46.4829 48.4003C46.6369 48.335 46.8024 48.301 46.9697 48.3003H47.0135C47.1832 48.2996 47.3514 48.3323 47.5085 48.3966C47.6656 48.4609 47.8084 48.5555 47.9289 48.675C48.0495 48.7945 48.1453 48.9365 48.2109 49.0931C48.2765 49.2496 48.3106 49.4175 48.3113 49.5872C48.3128 49.756 48.2809 49.9233 48.2175 50.0797C48.1541 50.2361 48.0604 50.3784 47.9418 50.4985C47.8233 50.6186 47.6822 50.714 47.5266 50.7794C47.3711 50.8448 47.2041 50.8789 47.0354 50.8796Z" fill="black"/>
<path d="M26.4009 53.3812H13.8494V50.8786H20.2566C20.433 50.8901 20.6099 50.8653 20.7764 50.8057C20.9428 50.7461 21.0953 50.653 21.2243 50.5321C21.3533 50.4112 21.4562 50.2651 21.5265 50.1029C21.5968 49.9407 21.6331 49.7658 21.6331 49.589C21.6331 49.4122 21.5968 49.2373 21.5265 49.075C21.4562 48.9128 21.3533 48.7667 21.2243 48.6459C21.0953 48.525 20.9428 48.4319 20.7764 48.3722C20.6099 48.3126 20.433 48.2878 20.2566 48.2993H8.41708V44.5481C8.41708 44.2068 8.2815 43.8795 8.04016 43.6382C7.79881 43.3968 7.47146 43.2612 7.13015 43.2612C6.78884 43.2612 6.46153 43.3968 6.22018 43.6382C5.97884 43.8795 5.84326 44.2068 5.84326 44.5481V50.8786H11.2756V55.955H26.4009C26.7422 55.955 27.0695 55.8195 27.3109 55.5781C27.5522 55.3368 27.6878 55.0095 27.6878 54.6681C27.6878 54.3268 27.5522 53.9995 27.3109 53.7582C27.0695 53.5168 26.7422 53.3812 26.4009 53.3812Z" fill="url(#paint0_linear)"/>
<path d="M86.0526 25.3869V20.3323H79.3607C79.1843 20.3208 79.0074 20.3456 78.8409 20.4053C78.6745 20.4649 78.522 20.558 78.393 20.6789C78.264 20.7997 78.1611 20.9458 78.0908 21.108C78.0205 21.2703 77.9842 21.4452 77.9842 21.622C77.9842 21.7988 78.0205 21.9737 78.0908 22.1359C78.1611 22.2981 78.264 22.4442 78.393 22.5651C78.522 22.686 78.6745 22.7791 78.8409 22.8387C79.0074 22.8983 79.1843 22.9231 79.3607 22.9116H83.4733V48.3266H61.5686C61.2411 48.348 60.9339 48.4931 60.7095 48.7326C60.4851 48.9721 60.3603 49.2881 60.3603 49.6163C60.3603 49.9445 60.4851 50.2604 60.7095 50.4999C60.9339 50.7394 61.2411 50.8845 61.5686 50.9059H86.069V27.9607H88.9167V53.3811H61.6233C61.282 53.3811 60.9547 53.5167 60.7133 53.7581C60.472 53.9994 60.3364 54.3267 60.3364 54.6681C60.3364 55.0094 60.472 55.3367 60.7133 55.578C60.9547 55.8194 61.282 55.9549 61.6233 55.9549H91.4686V25.3869H86.0526Z" fill="url(#paint1_linear)"/>
<path d="M64.0276 13.7617C63.6863 13.7617 63.359 13.8973 63.1176 14.1386C62.8763 14.38 62.7407 14.7073 62.7407 15.0486C62.7407 15.3899 62.8763 15.7173 63.1176 15.9586C63.359 16.1999 63.6863 16.3355 64.0276 16.3355H78.0631V43.2291H65.2214C64.8801 43.2291 64.5528 43.3647 64.3115 43.606C64.0701 43.8474 63.9345 44.1747 63.9345 44.516C63.9345 44.8573 64.0701 45.1846 64.3115 45.426C64.5528 45.6673 64.8801 45.8029 65.2214 45.8029H80.6369V13.7617H64.0276Z" fill="url(#paint2_linear)"/>
<path d="M17.8246 13.7617H0.629395V45.8139H16.598C16.9393 45.8139 17.2666 45.6783 17.508 45.4369C17.7493 45.1956 17.8849 44.8683 17.8849 44.527C17.8849 44.1856 17.7493 43.8583 17.508 43.617C17.2666 43.3756 16.9393 43.24 16.598 43.24H3.20321V16.3574H17.8246C18.166 16.3574 18.4933 16.2218 18.7346 15.9805C18.976 15.7392 19.1115 15.4118 19.1115 15.0705C19.1115 14.7292 18.976 14.4019 18.7346 14.1606C18.4933 13.9192 18.166 13.7836 17.8246 13.7836V13.7617Z" fill="url(#paint3_linear)"/>
<path d="M40.8849 45.8302C37.426 45.8241 34.0723 44.6399 31.3765 42.4726C28.6807 40.3054 26.8036 37.2844 26.0545 33.9076C25.3054 30.5307 25.7291 26.9994 27.2557 23.8955C28.7822 20.7916 31.3206 18.3004 34.4525 16.8323C37.5845 15.3642 41.1231 15.0069 44.4853 15.8191C47.8476 16.6313 50.8328 18.5647 52.9491 21.3007C55.0655 24.0367 56.1866 27.412 56.1278 30.8704C56.0691 34.3289 54.8339 37.6641 52.6259 40.3266C51.3538 41.8688 49.7883 43.143 48.0201 44.0755C46.2519 45.008 44.3162 45.5803 42.3252 45.759C41.8432 45.8028 41.3613 45.8302 40.8849 45.8302ZM40.9232 17.9783C37.9511 17.9798 35.0748 19.0295 32.8003 20.9427C30.5259 22.856 28.9992 25.5101 28.4889 28.4381C27.9786 31.3661 28.5173 34.3803 30.0104 36.9502C31.5034 39.52 33.8551 41.481 36.6515 42.4878C39.4479 43.4947 42.5098 43.4829 45.2984 42.4547C48.0869 41.4264 50.4235 39.4475 51.8968 36.8663C53.3701 34.285 53.8858 31.2668 53.353 28.3428C52.8202 25.4188 51.2732 22.7764 48.9842 20.8807C46.7189 19.001 43.8668 17.9741 40.9232 17.9783Z" fill="url(#paint4_linear)"/>
<path d="M55.7418 64.5095L50.0903 55.8242L51.5087 55.2273C52.8823 54.6454 54.2002 53.9397 55.4461 53.119C56.6112 52.3766 57.7104 51.5357 58.7318 50.6054L59.827 49.5649L65.4401 58.1899L55.7418 64.5095ZM53.9018 56.9633L56.4975 60.9445L61.8915 57.4342L59.3232 53.4914C58.5291 54.13 57.703 54.7277 56.848 55.2821C55.8998 55.8998 54.916 56.4612 53.9018 56.9633Z" fill="url(#paint5_linear)"/>
<path d="M40.9676 59.9971C37.0503 60.0021 33.1717 59.2221 29.5608 57.7031C25.95 56.1841 22.6802 53.9569 19.9445 51.1531C10.635 41.5588 8.99214 26.6088 16.0236 15.4538L16.3412 14.9062L16.6205 14.5447L16.8669 14.1778L17.179 13.6795L17.5076 13.2907C17.6555 13.0881 17.8033 12.8964 17.9566 12.6993L18.0552 12.5733C18.1812 12.409 19.0847 11.4014 19.6324 10.8045C20.1612 10.1674 20.7498 9.58244 21.3902 9.0576C21.79 8.69617 22.2007 8.34569 22.6333 7.99521L23.0057 7.70498C25.6287 5.67895 28.574 4.10907 31.7183 3.06117L31.8278 3.0283C39.604 0.366876 48.6124 1.38545 55.9559 5.7664C59.6314 7.93124 62.7784 10.8877 65.1683 14.4209C67.5582 17.9542 69.131 21.9755 69.7724 26.1926C70.1478 28.5888 70.2251 31.0224 70.0023 33.4376C69.3646 40.5827 66.1074 47.2396 60.8571 52.1278L60.5121 52.4564C59.3804 53.505 58.1561 54.4489 56.854 55.2766L56.5255 55.4847C55.2473 56.2992 53.9049 57.008 52.5114 57.604L52.2595 57.7026C48.6889 59.2215 44.8478 60.002 40.9676 59.9971ZM18.0333 17.1131C11.8507 27.2385 13.384 40.6935 21.7955 49.3569C25.5487 53.2039 30.3753 55.829 35.6443 56.889C40.9133 57.9491 46.3796 57.3948 51.3286 55.2985L51.5914 55.1945C52.9256 54.6123 54.2079 53.918 55.4247 53.119L55.7588 52.9055C56.8038 52.2229 57.7893 51.4535 58.705 50.6054C58.8528 50.4685 58.9569 50.3755 59.0555 50.2714C62.2438 47.2908 64.6539 43.5748 66.0752 39.4482C67.4966 35.3215 67.886 30.9097 67.2095 26.5978C66.6251 22.7536 65.1915 19.0878 63.0128 15.8671C60.8341 12.6464 57.965 9.95166 54.6143 7.97879C47.8786 3.95926 39.6204 3.05021 32.5233 5.50354L32.2933 5.58021C29.3803 6.56439 26.6603 8.04671 24.2543 9.96116L23.8874 10.2569C23.5643 10.5252 23.2466 10.8045 22.94 11.0783L22.3321 11.6259C21.6531 12.3378 20.514 13.5974 20.1416 14.0135L20.0486 14.134C19.7474 14.5009 19.4626 14.8843 19.1888 15.2731L18.8054 15.8207L18.57 16.1766L18.455 16.3519L18.3893 16.4559L18.0333 17.1131ZM40.9238 51.8321C36.7626 51.8321 32.6948 50.5982 29.2348 48.2863C25.7749 45.9745 23.0783 42.6885 21.4858 38.8441C19.8934 34.9996 19.4767 30.7693 20.2885 26.688C21.1004 22.6067 23.1042 18.8578 26.0466 15.9154C28.989 12.973 32.7379 10.9692 36.8192 10.1573C40.9005 9.34552 45.1308 9.76218 48.9753 11.3546C52.8197 12.947 56.1057 15.6437 58.4175 19.1037C60.7294 22.5636 61.9633 26.6314 61.9633 30.7926C61.9561 36.3704 59.7371 41.7177 55.793 45.6618C51.8489 49.6059 46.5016 51.8249 40.9238 51.8321ZM40.9238 12.3269C37.2716 12.3269 33.7015 13.4099 30.6648 15.4389C27.6281 17.468 25.2613 20.3519 23.8637 23.7261C22.4661 27.1002 22.1004 30.8131 22.8129 34.3951C23.5254 37.9771 25.2841 41.2673 27.8666 43.8498C30.449 46.4323 33.7393 48.191 37.3213 48.9035C40.9033 49.616 44.6162 49.2503 47.9903 47.8527C51.3645 46.4551 54.2484 44.0883 56.2775 41.0516C58.3065 38.0149 59.3895 34.4448 59.3895 30.7926C59.3851 25.8965 57.4383 21.2022 53.9762 17.7402C50.5142 14.2781 45.8199 12.3312 40.9238 12.3269Z" fill="url(#paint6_linear)"/>
<path d="M74.1148 79.0767C73.6663 78.9812 73.1995 79.0209 72.7736 79.1909C72.3477 79.3609 71.9819 79.6535 71.7224 80.0316C71.4629 80.4098 71.3215 80.8564 71.3161 81.3149C71.3107 81.7735 71.4415 82.2233 71.6919 82.6075C71.9424 82.9916 72.3012 83.2928 72.723 83.4728C73.1448 83.6528 73.6105 83.7036 74.0612 83.6187C74.5118 83.5338 74.9271 83.3171 75.2545 82.9959C75.5819 82.6748 75.8065 82.2637 75.9001 81.8148C76.025 81.2151 75.9073 80.5903 75.5728 80.0772C75.2382 79.564 74.714 79.2043 74.1148 79.0767Z" fill="url(#paint7_linear)"/>
<path d="M42.8728 84.9516C42.5742 84.951 42.2851 84.8471 42.0545 84.6574C41.8238 84.4677 41.666 84.204 41.6078 83.9112L39.4995 73.1614C39.4413 72.8298 39.5153 72.4887 39.7056 72.2111C39.896 71.9335 40.1875 71.7415 40.5178 71.6763C40.848 71.6111 41.1907 71.6779 41.4722 71.8623C41.7538 72.0468 41.9519 72.3343 42.024 72.6631L44.1378 83.4128C44.1744 83.5813 44.1768 83.7554 44.1449 83.9248C44.1129 84.0943 44.0472 84.2555 43.9516 84.399C43.8561 84.5426 43.7327 84.6655 43.5888 84.7604C43.4449 84.8553 43.2833 84.9203 43.1138 84.9516C43.0337 84.9593 42.953 84.9593 42.8728 84.9516ZM39.8281 69.4978C39.5292 69.4983 39.2395 69.3947 39.0087 69.2048C38.7779 69.0149 38.6203 68.7507 38.5631 68.4573L38.1962 66.579C38.1301 66.2435 38.2 65.8955 38.3905 65.6115C38.581 65.3276 38.8765 65.1309 39.212 65.0648C39.5475 64.9988 39.8955 65.0687 40.1795 65.2592C40.4634 65.4497 40.6601 65.7452 40.7262 66.0807L41.0931 67.9645C41.1257 68.1306 41.1252 68.3016 41.0916 68.4675C41.0581 68.6335 40.9921 68.7912 40.8975 68.9316C40.8029 69.072 40.6814 69.1924 40.5402 69.2858C40.399 69.3792 40.2408 69.4438 40.0745 69.4759C39.9933 69.4913 39.9107 69.4987 39.8281 69.4978Z" fill="url(#paint8_linear)"/>
<path d="M9.8077 74.1968C9.54931 74.1967 9.29695 74.1188 9.08347 73.9732C8.86998 73.8277 8.70525 73.6212 8.61072 73.3808C8.51618 73.1403 8.49621 72.8769 8.55343 72.625C8.61064 72.373 8.74241 72.1441 8.93152 71.968L16.9596 64.5149C17.0837 64.3999 17.2292 64.3104 17.3878 64.2515C17.5464 64.1927 17.7151 64.1657 17.8842 64.1721C18.0533 64.1784 18.2195 64.218 18.3732 64.2886C18.527 64.3592 18.6654 64.4593 18.7804 64.5834C18.8955 64.7074 18.985 64.8529 19.0438 65.0116C19.1027 65.1702 19.1297 65.3389 19.1233 65.508C19.1169 65.6771 19.0774 65.8432 19.0068 65.997C18.9362 66.1508 18.836 66.2892 18.712 66.4042L10.6839 73.8518C10.4459 74.0734 10.1329 74.1967 9.8077 74.1968ZM21.3515 63.4854C21.0931 63.4853 20.8408 63.4074 20.6273 63.2618C20.4138 63.1163 20.2491 62.9098 20.1545 62.6693C20.06 62.4289 20.04 62.1655 20.0972 61.9135C20.1545 61.6616 20.2862 61.4327 20.4753 61.2566L21.8772 59.9478C22.0013 59.8327 22.1468 59.7432 22.3054 59.6844C22.464 59.6256 22.6327 59.5986 22.8018 59.6049C22.9709 59.6113 23.1371 59.6509 23.2908 59.7214C23.4446 59.792 23.583 59.8922 23.698 60.0162C23.8131 60.1403 23.9026 60.2858 23.9615 60.4444C24.0203 60.6031 24.0473 60.7718 24.0409 60.9408C24.0346 61.1099 23.995 61.2761 23.9244 61.4299C23.8538 61.5836 23.7536 61.722 23.6296 61.8371L22.2277 63.1404C21.9897 63.362 21.6767 63.4852 21.3515 63.4854Z" fill="url(#paint9_linear)"/>
<path d="M24.2813 84.2622C24.1454 84.2617 24.0104 84.2395 23.8815 84.1965C23.7187 84.1438 23.568 84.0594 23.4381 83.9481C23.3082 83.8367 23.2017 83.7007 23.1248 83.5479C23.0479 83.395 23.0021 83.2284 22.99 83.0578C22.978 82.8871 22.9999 82.7157 23.0546 82.5536L26.5211 71.9024C26.6271 71.5778 26.8577 71.3086 27.1622 71.1541C27.4667 70.9995 27.8201 70.9723 28.1447 71.0783C28.4693 71.1843 28.7385 71.4149 28.8931 71.7194C29.0477 72.0239 29.0749 72.3774 28.9689 72.702L25.508 83.3477C25.4275 83.6109 25.2651 83.8415 25.0445 84.006C24.8239 84.1705 24.5565 84.2602 24.2813 84.2622ZM29.2099 69.0548C29.0744 69.0536 28.9399 69.0333 28.8101 68.9946C28.6477 68.9413 28.4975 68.8565 28.368 68.745C28.2385 68.6335 28.1323 68.4976 28.0554 68.3449C27.9786 68.1923 27.9327 68.026 27.9203 67.8555C27.9079 67.6851 27.9293 67.5139 27.9832 67.3517L28.5801 65.5281C28.633 65.3649 28.7175 65.2137 28.8288 65.0831C28.9401 64.9525 29.076 64.8451 29.2288 64.767C29.3816 64.689 29.5483 64.6418 29.7193 64.6282C29.8904 64.6145 30.0625 64.6347 30.2257 64.6876C30.389 64.7404 30.5402 64.8249 30.6708 64.9362C30.8014 65.0475 30.9088 65.1835 30.9868 65.3363C31.0649 65.4891 31.1121 65.6557 31.1257 65.8268C31.1393 65.9978 31.1192 66.1699 31.0663 66.3332L30.4749 68.1567C30.3925 68.423 30.2267 68.6557 30.0018 68.8204C29.7769 68.9852 29.505 69.0731 29.2263 69.0712L29.2099 69.0548Z" fill="url(#paint10_linear)"/>
<path d="M62.5433 80.7352L51.6841 64.0711L66.7107 54.2852L77.5645 70.9492L62.5433 80.7352ZM55.2491 64.8268L63.2936 77.1756L73.9996 70.2044L65.955 57.8556L55.2491 64.8268Z" fill="url(#paint11_linear)"/>
<path d="M74.2791 91.2497C72.7855 91.2533 71.3146 90.884 69.9997 90.1755C68.6849 89.4669 67.5677 88.4414 66.7493 87.1919L61.1362 78.5778L76.1629 68.7974L81.7705 77.4114C83.0594 79.4039 83.5045 81.8266 83.0081 84.1471C82.5995 86.1595 81.5067 87.9682 79.9154 89.266C78.3241 90.5638 76.3325 91.2706 74.2791 91.2662V91.2497ZM64.7012 79.3335L68.9069 85.7845C69.5934 86.8473 70.5811 87.6813 71.7438 88.18C72.9065 88.6787 74.1916 88.8195 75.4347 88.5844C76.6778 88.3493 77.8227 87.7489 78.723 86.8601C79.6233 85.9712 80.2382 84.8341 80.4891 83.594C80.8422 81.9413 80.5251 80.216 79.6074 78.7969L75.4236 72.3569L64.7012 79.3335Z" fill="url(#paint12_linear)"/>
<defs>
<linearGradient id="paint0_linear" x1="14269" y1="3882.63" x2="15140.6" y2="3882.63" gradientUnits="userSpaceOnUse">
<stop stop-color="#E3F24C"/>
<stop offset="0.2" stop-color="#CAED62"/>
<stop offset="1" stop-color="#64D8BC"/>
</linearGradient>
<linearGradient id="paint1_linear" x1="23481.7" y1="10048.9" x2="25255.9" y2="10048.9" gradientUnits="userSpaceOnUse">
<stop stop-color="#E3F24C"/>
<stop offset="0.2" stop-color="#CAED62"/>
<stop offset="1" stop-color="#64D8BC"/>
</linearGradient>
<linearGradient id="paint2_linear" x1="15031.5" y1="9230.09" x2="10860" y2="8417.23" gradientUnits="userSpaceOnUse">
<stop stop-color="#FF059D"/>
<stop offset="0.45" stop-color="#FF9841"/>
<stop offset="1" stop-color="#FFF904"/>
</linearGradient>
<linearGradient id="paint3_linear" x1="15227" y1="10389" x2="10929.3" y2="9524.46" gradientUnits="userSpaceOnUse">
<stop stop-color="#FF059D"/>
<stop offset="0.45" stop-color="#FF9841"/>
<stop offset="1" stop-color="#FFF904"/>
</linearGradient>
<linearGradient id="paint4_linear" x1="21002.9" y1="8165.42" x2="22693.7" y2="8165.42" gradientUnits="userSpaceOnUse">
<stop stop-color="#E3F24C"/>
<stop offset="0.2" stop-color="#CAED62"/>
<stop offset="1" stop-color="#64D8BC"/>
</linearGradient>
<linearGradient id="paint5_linear" x1="11312.8" y1="4772.48" x2="11743.6" y2="4772.48" gradientUnits="userSpaceOnUse">
<stop stop-color="#1A58FF"/>
<stop offset="0.05" stop-color="#1963FF"/>
<stop offset="0.23" stop-color="#1685FF"/>
<stop offset="0.42" stop-color="#13A0FF"/>
<stop offset="0.6" stop-color="#11B3FF"/>
<stop offset="0.8" stop-color="#10BEFF"/>
<stop offset="1" stop-color="#10C2FF"/>
</linearGradient>
<linearGradient id="paint6_linear" x1="45118.4" y1="17403.1" x2="37751.6" y2="13405.2" gradientUnits="userSpaceOnUse">
<stop stop-color="#1A58FF"/>
<stop offset="0.05" stop-color="#1963FF"/>
<stop offset="0.23" stop-color="#1685FF"/>
<stop offset="0.42" stop-color="#13A0FF"/>
<stop offset="0.6" stop-color="#11B3FF"/>
<stop offset="0.8" stop-color="#10BEFF"/>
<stop offset="1" stop-color="#10C2FF"/>
</linearGradient>
<linearGradient id="paint7_linear" x1="3650.16" y1="1748.76" x2="3689.45" y2="1748.76" gradientUnits="userSpaceOnUse">
<stop stop-color="#1A58FF"/>
<stop offset="0.05" stop-color="#1963FF"/>
<stop offset="0.23" stop-color="#1685FF"/>
<stop offset="0.42" stop-color="#13A0FF"/>
<stop offset="0.6" stop-color="#11B3FF"/>
<stop offset="0.8" stop-color="#10BEFF"/>
<stop offset="1" stop-color="#10C2FF"/>
</linearGradient>
<linearGradient id="paint8_linear" x1="4306.84" y1="7012.44" x2="4372.25" y2="7012.44" gradientUnits="userSpaceOnUse">
<stop stop-color="#E3F24C"/>
<stop offset="0.2" stop-color="#CAED62"/>
<stop offset="1" stop-color="#64D8BC"/>
</linearGradient>
<linearGradient id="paint9_linear" x1="10218.3" y1="4934.19" x2="10658.3" y2="4934.19" gradientUnits="userSpaceOnUse">
<stop stop-color="#E3F24C"/>
<stop offset="0.2" stop-color="#CAED62"/>
<stop offset="1" stop-color="#64D8BC"/>
</linearGradient>
<linearGradient id="paint10_linear" x1="5594.93" y1="6895.57" x2="5715.6" y2="6895.57" gradientUnits="userSpaceOnUse">
<stop stop-color="#E3F24C"/>
<stop offset="0.2" stop-color="#CAED62"/>
<stop offset="1" stop-color="#64D8BC"/>
</linearGradient>
<linearGradient id="paint11_linear" x1="19116.5" y1="8919.27" x2="20339.6" y2="8919.27" gradientUnits="userSpaceOnUse">
<stop stop-color="#FF059D"/>
<stop offset="0.45" stop-color="#FF9841"/>
<stop offset="1" stop-color="#FFF904"/>
</linearGradient>
<linearGradient id="paint12_linear" x1="16699.9" y1="8112.64" x2="17589.4" y2="8112.64" gradientUnits="userSpaceOnUse">
<stop stop-color="#E3F24C"/>
<stop offset="0.2" stop-color="#CAED62"/>
<stop offset="1" stop-color="#64D8BC"/>
</linearGradient>
</defs>
</svg>
