<svg width="86" height="100" viewBox="0 0 86 100" fill="none" xmlns="http://www.w3.org/2000/svg">
<path d="M85.2622 32.3969H47.4229V6.91211H85.2622V32.3969ZM50.1878 29.657H82.5223V9.6395H50.1628L50.1878 29.657Z" fill="url(#paint0_linear)"/>
<path d="M50.1626 32.3969H0V6.91211H50.1626V32.3969ZM2.7399 29.657H47.4227V9.6395H2.7399V29.657Z" fill="url(#paint1_linear)"/>
<path d="M85.2622 63.1052H47.4229V37.6079H85.2622V63.1052ZM50.1628 60.3653H82.4973V40.3478H50.1628V60.3653Z" fill="url(#paint2_linear)"/>
<path d="M50.1626 63.1052H0V37.6079H50.1626V63.1052ZM2.7399 60.3653H47.4227V40.3478H2.7399V60.3653Z" fill="url(#paint3_linear)"/>
<path d="M50.1626 94.0325H0V68.5352H50.1626V94.0325ZM2.7399 91.2926H47.4227V71.2751H2.7399V91.2926Z" fill="url(#paint4_linear)"/>
<path d="M85.2622 94.0262H47.4229V68.5352H85.2622V94.0262ZM50.1878 91.2926H82.5223V71.2751H50.1628L50.1878 91.2926Z" fill="url(#paint5_linear)"/>
<path d="M29.1942 18.2534H20.105V20.9933H29.1942V18.2534Z" fill="url(#paint6_linear)"/>
<path d="M30.9269 48.6987H20.105V51.4386H30.9269V48.6987Z" fill="url(#paint7_linear)"/>
<path d="M32.0153 80.0825H18.5723V82.8224H32.0153V80.0825Z" fill="url(#paint8_linear)"/>
<path d="M77.8243 88.3401C77.7369 88.3462 77.6491 88.3462 77.5616 88.3401C77.4725 88.3209 77.3847 88.2958 77.2989 88.265L77.0674 88.1336C76.9933 88.0818 76.9242 88.0232 76.861 87.9585C76.7326 87.833 76.6305 87.6832 76.5607 87.5177C76.4909 87.3523 76.4548 87.1747 76.4544 86.9952C76.4482 86.9077 76.4482 86.8199 76.4544 86.7324C76.4722 86.6414 76.5016 86.5532 76.542 86.4697C76.5727 86.3883 76.6126 86.3106 76.6608 86.2382C76.7126 86.1641 76.7713 86.095 76.836 86.0318C76.8958 85.9636 76.9654 85.9046 77.0424 85.8567C77.1112 85.8129 77.1988 85.7691 77.2738 85.7315C77.3587 85.6979 77.4468 85.6728 77.5366 85.6565C77.7599 85.6088 77.9916 85.6182 78.2103 85.6838C78.4289 85.7494 78.6275 85.8691 78.7877 86.0318C78.8541 86.0934 78.9129 86.1627 78.9628 86.2382C79.0111 86.3106 79.0509 86.3883 79.0817 86.4697C79.122 86.5532 79.1514 86.6414 79.1693 86.7324C79.2026 86.906 79.2026 87.0843 79.1693 87.2579C79.1514 87.3488 79.122 87.4371 79.0817 87.5206C79.0484 87.6008 79.0086 87.6782 78.9628 87.7521C78.9129 87.8276 78.8541 87.8969 78.7877 87.9585C78.7245 88.0232 78.6554 88.0818 78.5813 88.1336L78.3498 88.265L78.0871 88.3401C77.9996 88.3462 77.9118 88.3462 77.8243 88.3401ZM75.4473 84.3428C75.6947 84.3415 75.9371 84.2723 76.1479 84.1426C76.3033 84.0517 76.4392 83.9308 76.5477 83.7869C76.6562 83.6431 76.7351 83.4792 76.7799 83.3047C76.8247 83.1303 76.8345 82.9486 76.8087 82.7703C76.7828 82.592 76.722 82.4206 76.6295 82.266C76.4434 81.9545 76.1418 81.7292 75.7903 81.639C75.4389 81.5488 75.066 81.601 74.7529 81.7843C74.4973 81.9397 74.2992 82.174 74.1887 82.452C74.0782 82.7299 74.0613 83.0363 74.1405 83.3247C74.2196 83.6132 74.3906 83.868 74.6275 84.0505C74.8644 84.2331 75.1544 84.3335 75.4535 84.3366L75.4473 84.3428ZM73.0764 80.3331C73.3232 80.333 73.5654 80.266 73.7771 80.1391C74.0885 79.953 74.3139 79.6514 74.4041 79.2999C74.4943 78.9485 74.442 78.5756 74.2587 78.2625C74.0717 77.9519 73.7691 77.7281 73.4174 77.6401C73.0656 77.5522 72.6933 77.6073 72.3821 77.7933C72.1231 77.9453 71.9216 78.1785 71.8087 78.4567C71.6959 78.7349 71.678 79.0426 71.7578 79.3321C71.8376 79.6215 72.0107 79.8765 72.2503 80.0575C72.4898 80.2385 72.7825 80.3353 73.0827 80.3331H73.0764ZM70.9746 76.3171L71.2248 76.242C71.3077 76.2092 71.3856 76.165 71.4563 76.1106C71.5329 76.0671 71.6025 76.0123 71.6627 75.948C71.7917 75.8216 71.8942 75.6707 71.9641 75.5042C72.0341 75.3378 72.0701 75.159 72.0701 74.9784C72.0701 74.7978 72.0341 74.619 71.9641 74.4525C71.8942 74.286 71.7917 74.1352 71.6627 74.0088C71.3997 73.7679 71.056 73.6343 70.6993 73.6343C70.3427 73.6343 69.999 73.7679 69.736 74.0088C69.5435 74.1992 69.412 74.4425 69.3583 74.7079C69.3046 74.9732 69.3311 75.2486 69.4345 75.4988C69.5378 75.7491 69.7132 75.9629 69.9385 76.1131C70.1637 76.2632 70.4286 76.343 70.6993 76.3421C70.7918 76.3456 70.8843 76.3372 70.9746 76.3171ZM65.9702 84.3553C66.2097 84.3549 66.4449 84.2918 66.6523 84.1721C66.8598 84.0525 67.0322 83.8806 67.1525 83.6735C67.2449 83.5189 67.3058 83.3475 67.3316 83.1692C67.3574 82.9909 67.3477 82.8093 67.3029 82.6348C67.2581 82.4603 67.1792 82.2964 67.0707 82.1526C66.9622 82.0087 66.8263 81.8878 66.6708 81.7968C66.5162 81.7044 66.3448 81.6435 66.1665 81.6177C65.9882 81.5919 65.8066 81.6017 65.6321 81.6465C65.4576 81.6913 65.2937 81.7702 65.1499 81.8787C65.0061 81.9871 64.8852 82.123 64.7942 82.2785C64.6728 82.4863 64.6079 82.7222 64.6061 82.9629C64.6044 83.2035 64.6657 83.4404 64.7841 83.6499C64.9025 83.8595 65.0737 84.0343 65.2807 84.1569C65.4878 84.2796 65.7233 84.3459 65.964 84.3491L65.9702 84.3553ZM68.3473 80.3456C68.5854 80.3458 68.8196 80.2843 69.0268 80.167C69.234 80.0497 69.4072 79.8806 69.5296 79.6762C69.6212 79.5214 69.6814 79.35 69.7068 79.1719C69.7321 78.9938 69.7222 78.8124 69.6774 78.6382C69.6327 78.4639 69.5541 78.3002 69.4461 78.1563C69.338 78.0124 69.2028 77.8912 69.0479 77.7996C68.8943 77.7058 68.7235 77.6435 68.5455 77.6163C68.3676 77.5891 68.186 77.5976 68.0114 77.6413C67.8367 77.6849 67.6725 77.7629 67.5283 77.8706C67.384 77.9784 67.2627 78.1137 67.1713 78.2688C66.9885 78.5808 66.9352 78.952 67.0229 79.3028C67.1106 79.6536 67.3323 79.9561 67.6404 80.1454C67.8493 80.262 68.0832 80.3264 68.3223 80.3331L68.3473 80.3456ZM64.594 87.946C64.8476 87.6896 64.9893 87.3432 64.9881 86.9826C64.9943 86.8952 64.9943 86.8074 64.9881 86.7199C64.9881 86.6323 64.9443 86.5448 64.913 86.4572C64.8781 86.3753 64.8341 86.2977 64.7817 86.2257C64.734 86.1503 64.6772 86.081 64.6128 86.0193C64.5501 85.954 64.4809 85.8954 64.4063 85.8441C64.3298 85.7975 64.2505 85.7557 64.1687 85.719C64.0862 85.6846 64.0002 85.6594 63.9122 85.644C63.6889 85.5963 63.4572 85.6057 63.2385 85.6713C63.0198 85.7369 62.8212 85.8566 62.6611 86.0193C62.5929 86.0791 62.5339 86.1487 62.4859 86.2257C62.4379 86.2993 62.3961 86.3767 62.3608 86.4572C62.3272 86.5421 62.302 86.6301 62.2858 86.7199C62.2441 86.8926 62.2441 87.0727 62.2858 87.2454C62.302 87.3352 62.3272 87.4232 62.3608 87.5081C62.3983 87.5832 62.4421 87.6707 62.4859 87.7395C62.5339 87.8166 62.5929 87.8861 62.6611 87.946C62.7857 88.0755 62.9354 88.1783 63.101 88.2482C63.2666 88.3181 63.4446 88.3536 63.6244 88.3526C63.973 88.3346 64.3017 88.1847 64.544 87.9335L64.594 87.946ZM73.1265 88.3526C73.4854 88.3379 73.8243 88.1828 74.07 87.9207C74.3157 87.6586 74.4486 87.3105 74.4401 86.9514C74.4401 86.5891 74.2967 86.2416 74.0411 85.9849C73.7855 85.7281 73.4387 85.5831 73.0764 85.5814C72.7131 85.5814 72.3646 85.7257 72.1077 85.9827C71.8508 86.2396 71.7065 86.588 71.7065 86.9514C71.7065 87.3147 71.8508 87.6631 72.1077 87.9201C72.3646 88.177 72.7131 88.3213 73.0764 88.3213L73.1265 88.3526ZM68.3723 88.3526C68.5522 88.3526 68.7304 88.3172 68.8966 88.2483C69.0628 88.1795 69.2138 88.0785 69.341 87.9513C69.4682 87.8241 69.5691 87.6731 69.638 87.5069C69.7068 87.3407 69.7423 87.1625 69.7423 86.9826C69.7423 86.6193 69.5979 86.2709 69.341 86.0139C69.0841 85.757 68.7356 85.6127 68.3723 85.6127C68.009 85.6127 67.6605 85.757 67.4036 86.0139C67.1467 86.2709 67.0024 86.6193 67.0024 86.9826C67.0024 87.346 67.1467 87.6944 67.4036 87.9513C67.6605 88.2082 68.009 88.3526 68.3723 88.3526ZM58.9891 82.5287C59.1561 82.5288 59.3214 82.4954 59.4752 82.4306C59.6291 82.3658 59.7684 82.2708 59.885 82.1513C60.0016 82.0318 60.0931 81.8902 60.1541 81.7348C60.2151 81.5793 60.2444 81.4133 60.2402 81.2464C60.2402 80.9146 60.1084 80.5963 59.8737 80.3617C59.6391 80.1271 59.3209 79.9953 58.9891 79.9953C58.6498 79.9953 58.3244 80.1301 58.0845 80.37C57.8446 80.6099 57.7099 80.9352 57.7099 81.2745C57.7099 81.6138 57.8446 81.9392 58.0845 82.1791C58.3244 82.419 58.6498 82.5538 58.9891 82.5538V82.5287ZM53.8784 82.5287C54.213 82.5206 54.5312 82.3819 54.765 82.1423C54.9988 81.9027 55.1296 81.5811 55.1295 81.2464C55.1295 80.9146 54.9977 80.5963 54.763 80.3617C54.5284 80.1271 54.2102 79.9953 53.8784 79.9953C53.5391 79.9953 53.2137 80.1301 52.9738 80.37C52.7339 80.6099 52.5991 80.9352 52.5991 81.2745C52.5991 81.6138 52.7339 81.9392 52.9738 82.1791C53.2137 82.419 53.5391 82.5538 53.8784 82.5538V82.5287Z" fill="url(#paint9_linear)"/>
<path d="M76.4106 45.7213C76.231 45.721 76.0534 45.6848 75.888 45.615C75.7226 45.5452 75.5728 45.4431 75.4473 45.3147C75.3202 45.1886 75.2193 45.0385 75.1504 44.8731C75.0816 44.7078 75.0462 44.5305 75.0462 44.3514C75.0462 44.1723 75.0816 43.995 75.1504 43.8296C75.2193 43.6643 75.3202 43.5142 75.4473 43.3881C75.7075 43.1417 76.0522 43.0044 76.4106 43.0044C76.7689 43.0044 77.1137 43.1417 77.3739 43.3881C77.5634 43.5796 77.6922 43.8227 77.7441 44.0871C77.7961 44.3514 77.769 44.6252 77.6662 44.8742C77.5634 45.1233 77.3895 45.3364 77.1661 45.4871C76.9428 45.6378 76.68 45.7192 76.4106 45.7213ZM70.6993 45.7213C71.0627 45.7213 71.4111 45.577 71.668 45.3201C71.925 45.0632 72.0693 44.7147 72.0693 44.3514C72.0693 43.9881 71.925 43.6396 71.668 43.3827C71.4111 43.1258 71.0627 42.9814 70.6993 42.9814C70.336 42.9814 69.9876 43.1258 69.7307 43.3827C69.4737 43.6396 69.3294 43.9881 69.3294 44.3514C69.3294 44.7147 69.4737 45.0632 69.7307 45.3201C69.9876 45.577 70.336 45.7213 70.6993 45.7213ZM65.9577 45.3147C66.2099 45.0575 66.3511 44.7116 66.3511 44.3514C66.3511 43.9912 66.2099 43.6453 65.9577 43.3881C65.6954 43.1408 65.3486 43.0032 64.9881 43.0032C64.6277 43.0032 64.2808 43.1408 64.0185 43.3881C63.8914 43.5142 63.7905 43.6643 63.7217 43.8296C63.6528 43.995 63.6174 44.1723 63.6174 44.3514C63.6174 44.5305 63.6528 44.7078 63.7217 44.8731C63.7905 45.0385 63.8914 45.1886 64.0185 45.3147C64.144 45.4431 64.2938 45.5452 64.4592 45.615C64.6247 45.6848 64.8023 45.721 64.9819 45.7213C65.1633 45.7212 65.3429 45.6853 65.5104 45.6155C65.6779 45.5457 65.8299 45.4435 65.9577 45.3147ZM64.9819 51.4326C65.1634 51.4326 65.343 51.3966 65.5105 51.3265C65.6779 51.2565 65.8298 51.1539 65.9573 51.0247C66.0847 50.8955 66.1852 50.7423 66.253 50.5739C66.3207 50.4055 66.3543 50.2254 66.3518 50.0439C66.3518 49.6805 66.2074 49.3321 65.9505 49.0752C65.6936 48.8183 65.3452 48.6739 64.9819 48.6739C64.6353 48.6974 64.3107 48.8516 64.0735 49.1053C63.8364 49.3591 63.7044 49.6934 63.7044 50.0407C63.7044 50.3881 63.8364 50.7224 64.0735 50.9762C64.3107 51.2299 64.6353 51.3841 64.9819 51.4076V51.4326ZM65.9577 56.7435C66.0172 56.679 66.0716 56.61 66.1204 56.5371C66.175 56.462 66.2191 56.38 66.2517 56.2931C66.2863 56.2123 66.3135 56.1286 66.333 56.0429C66.333 55.9553 66.333 55.8677 66.333 55.7801C66.333 55.6926 66.333 55.5925 66.333 55.5049C66.3135 55.4192 66.2863 55.3355 66.2517 55.2547C66.2204 55.1691 66.1762 55.089 66.1204 55.017C66.0733 54.9409 66.0188 54.8697 65.9577 54.8043C65.7657 54.612 65.5209 54.4811 65.2543 54.4282C64.9877 54.3754 64.7115 54.4031 64.4607 54.5077C64.2099 54.6123 63.9959 54.7892 63.8458 55.0157C63.6958 55.2423 63.6166 55.5084 63.6182 55.7801C63.62 56.1414 63.7638 56.4874 64.0185 56.7435C64.2751 56.9982 64.6203 57.1439 64.9819 57.1501C65.3471 57.1439 65.6962 56.9985 65.9577 56.7435ZM70.6993 57.1501C71.0627 57.1501 71.4111 57.0058 71.668 56.7488C71.925 56.4919 72.0693 56.1435 72.0693 55.7801C72.066 55.419 71.9202 55.0737 71.6637 54.8195C71.4071 54.5653 71.0605 54.4227 70.6993 54.4227C70.336 54.4227 69.9876 54.567 69.7307 54.824C69.4737 55.0809 69.3294 55.4293 69.3294 55.7927C69.3294 56.156 69.4737 56.5044 69.7307 56.7614C69.9876 57.0183 70.336 57.1626 70.6993 57.1626V57.1501ZM77.3739 56.7435C77.5035 56.6189 77.6063 56.4692 77.6762 56.3036C77.7461 56.138 77.7816 55.9599 77.7805 55.7801C77.7804 55.5987 77.7445 55.4191 77.6747 55.2516C77.6049 55.0841 77.5027 54.9321 77.3739 54.8043C77.111 54.5634 76.7672 54.4298 76.4106 54.4298C76.0539 54.4298 75.7102 54.5634 75.4473 54.8043C75.3193 54.9324 75.2181 55.0846 75.1494 55.2521C75.0807 55.4196 75.0458 55.5991 75.0469 55.7801C75.0447 55.9595 75.079 56.1374 75.1479 56.303C75.2167 56.4687 75.3186 56.6185 75.4473 56.7435C75.7039 56.9982 76.049 57.1439 76.4106 57.1501C76.7725 57.1459 77.1185 56.9999 77.3739 56.7435ZM76.4106 51.4326C76.7728 51.426 77.1177 51.2762 77.3698 51.0159C77.6218 50.7557 77.7605 50.4062 77.7555 50.0439C77.7555 49.6805 77.6112 49.3321 77.3543 49.0752C77.0974 48.8183 76.7489 48.6739 76.3856 48.6739C76.039 48.6974 75.7144 48.8516 75.4772 49.1053C75.2401 49.3591 75.1081 49.6934 75.1081 50.0407C75.1081 50.3881 75.2401 50.7224 75.4772 50.9762C75.7144 51.2299 76.039 51.3841 76.3856 51.4076L76.4106 51.4326ZM58.9891 51.3888C59.1561 51.3889 59.3214 51.3555 59.4752 51.2907C59.6291 51.2258 59.7684 51.1309 59.885 51.0114C60.0016 50.8919 60.0931 50.7502 60.1541 50.5948C60.2151 50.4394 60.2444 50.2733 60.2402 50.1064C60.2402 49.7746 60.1084 49.4564 59.8737 49.2218C59.6391 48.9871 59.3209 48.8553 58.9891 48.8553C58.6498 48.8553 58.3244 48.9901 58.0845 49.23C57.8446 49.4699 57.7099 49.7953 57.7099 50.1346C57.7099 50.4739 57.8446 50.7992 58.0845 51.0391C58.3244 51.279 58.6498 51.4138 58.9891 51.4138V51.3888ZM53.8784 51.3888C54.213 51.3806 54.5312 51.2419 54.765 51.0023C54.9988 50.7627 55.1296 50.4412 55.1295 50.1064C55.1295 49.7746 54.9977 49.4564 54.763 49.2218C54.5284 48.9871 54.2102 48.8553 53.8784 48.8553C53.5391 48.8553 53.2137 48.9901 52.9738 49.23C52.7339 49.4699 52.5991 49.7953 52.5991 50.1346C52.5991 50.4739 52.7339 50.7992 52.9738 51.0391C53.2137 51.279 53.5391 51.4138 53.8784 51.4138V51.3888Z" fill="url(#paint10_linear)"/>
<path d="M72.2006 25.9851C72.1216 25.8246 72.0752 25.6501 72.0639 25.4715C72.0527 25.293 72.0768 25.114 72.1349 24.9449C72.193 24.7757 72.284 24.6197 72.4027 24.4858C72.5213 24.3519 72.6652 24.2428 72.8261 24.1647C73.1515 24.0068 73.5262 23.9839 73.8684 24.1011C74.2106 24.2182 74.4925 24.466 74.6527 24.7903C74.732 24.9535 74.7781 25.1309 74.7883 25.3121C74.7985 25.4934 74.7726 25.6748 74.7121 25.8459C74.6515 26.017 74.5576 26.1744 74.4357 26.3089C74.3139 26.4434 74.1665 26.5523 74.0021 26.6294C73.8222 26.7216 73.6226 26.7688 73.4204 26.767C73.164 26.7652 72.9133 26.6908 72.6974 26.5524C72.4815 26.414 72.3093 26.2173 72.2006 25.9851ZM67.2963 26.6106C67.1346 26.5326 66.9899 26.4232 66.8708 26.2889C66.7516 26.1545 66.6603 25.9978 66.6021 25.828C66.5439 25.6581 66.52 25.4783 66.5318 25.2991C66.5436 25.1199 66.5908 24.9449 66.6707 24.784C66.831 24.4598 67.1129 24.212 67.4551 24.0948C67.7973 23.9776 68.172 24.0005 68.4973 24.1585C68.6591 24.2366 68.8037 24.3459 68.9229 24.4803C69.042 24.6146 69.1333 24.7713 69.1915 24.9412C69.2497 25.1111 69.2736 25.2908 69.2618 25.47C69.25 25.6492 69.2028 25.8243 69.1229 25.9851C69.011 26.221 68.8335 26.4197 68.6116 26.5572C68.3897 26.6948 68.1328 26.7655 67.8718 26.7608C67.6705 26.7443 67.4746 26.6868 67.2963 26.5919V26.6106ZM76.5982 22.4445C76.245 22.3612 75.9393 22.1412 75.7481 21.8328C75.5569 21.5243 75.4959 21.1527 75.5785 20.7993C75.6646 20.4451 75.8871 20.1393 76.1976 19.9484C76.508 19.7574 76.8813 19.6968 77.2362 19.7797C77.5883 19.8643 77.8925 20.0849 78.0824 20.3932C78.2723 20.7014 78.3324 21.0724 78.2496 21.4249C78.1803 21.7266 78.0109 21.996 77.769 22.1891C77.527 22.3822 77.2268 22.4876 76.9172 22.4883C76.8093 22.4759 76.7027 22.455 76.5982 22.4257V22.4445ZM63.1364 21.3373C63.056 20.9847 63.1189 20.6147 63.3113 20.3085C63.5036 20.0023 63.8098 19.7851 64.1623 19.7046C64.518 19.626 64.8904 19.691 65.1984 19.8854C65.5065 20.0799 65.7254 20.3881 65.8075 20.743C65.8462 20.9188 65.8498 21.1005 65.8183 21.2777C65.7867 21.455 65.7205 21.6242 65.6235 21.7758C65.5265 21.9275 65.4005 22.0585 65.2528 22.1614C65.1052 22.2643 64.9386 22.3371 64.7628 22.3757C64.661 22.3882 64.5581 22.3882 64.4563 22.3757C64.1491 22.3748 63.8514 22.2698 63.6116 22.0777C63.3719 21.8857 63.2043 21.6181 63.1364 21.3185V21.3373ZM74.659 16.5518C74.4352 16.2652 74.3339 15.9018 74.3773 15.5408C74.4207 15.1798 74.6051 14.8506 74.8904 14.6252C75.0318 14.5146 75.1936 14.4331 75.3666 14.3855C75.5397 14.3379 75.7204 14.3251 75.8984 14.3478C76.0764 14.3705 76.2481 14.4282 76.4037 14.5177C76.5592 14.6072 76.6955 14.7266 76.8046 14.8691C76.9162 15.0093 76.9989 15.1702 77.048 15.3425C77.0971 15.5148 77.1116 15.6952 77.0907 15.8731C77.0697 16.0511 77.0138 16.2231 76.926 16.3793C76.8383 16.5355 76.7205 16.6728 76.5794 16.7833C76.3376 16.9709 76.041 17.0742 75.7349 17.0773C75.5259 17.0747 75.3203 17.0242 75.1339 16.9299C74.9474 16.8356 74.7849 16.6998 74.659 16.5331V16.5518ZM64.8504 16.7207C64.5685 16.4906 64.3887 16.1585 64.3501 15.7967C64.3114 15.4348 64.417 15.0723 64.6439 14.7878C64.873 14.5063 65.204 14.3267 65.5648 14.288C65.9257 14.2494 66.2872 14.3548 66.5706 14.5814C66.8513 14.8082 67.0307 15.137 67.0694 15.4958C67.108 15.8546 67.0029 16.2141 66.7771 16.4955C66.648 16.6546 66.4849 16.7827 66.2998 16.8704C66.1147 16.9581 65.9122 17.0031 65.7074 17.0022C65.3967 16.9977 65.0959 16.8923 64.8504 16.702V16.7207ZM70.7618 14.6126H70.6992C70.337 14.6126 69.9895 14.4692 69.7328 14.2136C69.476 13.958 69.331 13.6112 69.3293 13.2489C69.331 12.8867 69.476 12.5399 69.7328 12.2843C69.9895 12.0287 70.337 11.8853 70.6992 11.8853H70.7868C71.1431 11.895 71.4818 12.0425 71.7314 12.2969C71.9811 12.5512 72.1224 12.8925 72.1255 13.2489C72.1189 13.6079 71.9717 13.95 71.7155 14.2015C71.4593 14.453 71.1146 14.5939 70.7556 14.5939L70.7618 14.6126ZM57.6941 19.9986C57.6899 19.8317 57.7192 19.6656 57.7802 19.5102C57.8412 19.3548 57.9327 19.2132 58.0493 19.0937C58.1659 18.9741 58.3052 18.8792 58.4591 18.8144C58.613 18.7495 58.7783 18.7162 58.9452 18.7162C59.1122 18.7162 59.2775 18.7495 59.4313 18.8144C59.5852 18.8792 59.7245 18.9741 59.8411 19.0937C59.9577 19.2132 60.0492 19.3548 60.1102 19.5102C60.1712 19.6656 60.2005 19.8317 60.1963 19.9986C60.1963 20.3304 60.0645 20.6486 59.8299 20.8833C59.5953 21.1179 59.277 21.2497 58.9452 21.2497C58.7793 21.2497 58.6151 21.2167 58.4621 21.1527C58.3091 21.0887 58.1703 20.9948 58.0539 20.8766C57.9374 20.7585 57.8457 20.6183 57.7839 20.4644C57.7222 20.3104 57.6916 20.1457 57.6941 19.9798V19.9986ZM52.5771 19.9986C52.577 19.6638 52.7079 19.3423 52.9416 19.1027C53.1754 18.8631 53.4936 18.7244 53.8282 18.7162C54.1629 18.7244 54.4811 18.8631 54.7149 19.1027C54.9486 19.3423 55.0794 19.6638 55.0793 19.9986C55.0793 20.3304 54.9475 20.6486 54.7129 20.8833C54.4783 21.1179 54.1601 21.2497 53.8282 21.2497C53.4957 21.2416 53.1794 21.1046 52.946 20.8677C52.7125 20.6308 52.5803 20.3124 52.5771 19.9798V19.9986Z" fill="url(#paint11_linear)"/>
<path d="M48.8924 100C48.7125 100 48.5344 99.9646 48.3682 99.8957C48.2019 99.8269 48.0509 99.726 47.9237 99.5988C47.7965 99.4715 47.6956 99.3205 47.6268 99.1543C47.5579 98.9881 47.5225 98.81 47.5225 98.6301V1.36995C47.5225 1.00662 47.6668 0.658164 47.9237 0.401249C48.1807 0.144333 48.5291 0 48.8924 0C49.2557 0 49.6042 0.144333 49.8611 0.401249C50.118 0.658164 50.2624 1.00662 50.2624 1.36995V98.6301C50.2624 98.9934 50.118 99.3418 49.8611 99.5988C49.6042 99.8557 49.2557 100 48.8924 100Z" fill="url(#paint12_linear)"/>
<path d="M46.0653 89.0342H26.373L36.2192 72.4385L46.0653 89.0342ZM31.1772 86.3256H41.2611L36.2192 77.8307L31.1772 86.3256Z" fill="url(#paint13_linear)"/>
<path d="M24.4338 89.0342H4.73535L14.5752 72.4385L24.4338 89.0342ZM9.57082 86.3256H19.6546L14.5752 77.7994L9.57082 86.3256Z" fill="url(#paint14_linear)"/>
<path d="M13.7184 28.0185C12.0563 28.0197 10.4311 27.5279 9.04863 26.6053C7.66611 25.6826 6.58837 24.3706 5.95174 22.8353C5.31511 21.2999 5.1482 19.6102 5.47216 17.98C5.79611 16.3497 6.59635 14.8522 7.77165 13.6769C8.94694 12.5016 10.4445 11.7014 12.0747 11.3774C13.7049 11.0535 15.3946 11.2204 16.93 11.857C18.4653 12.4936 19.7774 13.5714 20.7 14.9539C21.6227 16.3364 22.1145 17.9616 22.1132 19.6237C22.1099 21.8491 21.2244 23.9824 19.6508 25.5561C18.0772 27.1297 15.9438 28.0152 13.7184 28.0185ZM13.7184 13.9625C12.6062 13.9625 11.519 14.2919 10.5939 14.9091C9.66872 15.5264 8.94708 16.4038 8.52006 17.4307C8.09304 18.4577 7.97975 19.588 8.19446 20.6793C8.40916 21.7705 8.94229 22.7737 9.72652 23.5623C10.5108 24.3509 11.511 24.8895 12.601 25.1103C13.691 25.331 14.822 25.224 15.8513 24.8027C16.8806 24.3814 17.762 23.6646 18.3843 22.7429C19.0067 21.8212 19.3421 20.7358 19.3483 19.6237C19.3467 18.1281 18.754 16.6938 17.6995 15.6334C16.6449 14.573 15.2139 13.9724 13.7184 13.9625Z" fill="url(#paint15_linear)"/>
<path d="M36.2192 28.0185C34.5565 28.0222 32.9302 27.5325 31.546 26.6114C30.1619 25.6902 29.0822 24.3791 28.4436 22.8439C27.8051 21.3088 27.6364 19.6187 27.9589 17.9876C28.2815 16.3566 29.0807 14.8579 30.2555 13.6814C31.4303 12.5048 32.9278 11.7033 34.5584 11.3784C36.1889 11.0534 37.8793 11.2195 39.4154 11.8558C40.9514 12.4921 42.2642 13.5698 43.1874 14.9526C44.1106 16.3354 44.6028 17.961 44.6015 19.6236C44.5999 21.8474 43.7166 23.9798 42.1453 25.5535C40.5741 27.1271 38.4429 28.0135 36.2192 28.0185ZM36.2192 13.9624C35.107 13.9625 34.0198 14.2919 33.0946 14.9091C32.1695 15.5264 31.4479 16.4038 31.0209 17.4307C30.5938 18.4576 30.4806 19.588 30.6953 20.6793C30.91 21.7705 31.4431 22.7737 32.2273 23.5623C33.0115 24.3509 34.0117 24.8895 35.1018 25.1103C36.1918 25.331 37.3228 25.224 38.3521 24.8027C39.3813 24.3813 40.2627 23.6646 40.8851 22.7429C41.5075 21.8212 41.8429 20.7358 41.8491 19.6236C41.8475 18.1281 41.2548 16.6938 40.2002 15.6334C39.1457 14.573 37.7147 13.9723 36.2192 13.9624Z" fill="url(#paint16_linear)"/>
<path d="M21.3687 57.7192H6.06787V42.4121H21.3687V57.7192ZM8.80151 54.9794H18.6351V45.152H8.80151V54.9794Z" fill="url(#paint17_linear)"/>
<path d="M43.8698 57.7192H28.5688V42.4121H43.8698V57.7192ZM31.3025 54.9794H41.1361V45.152H31.3025V54.9794Z" fill="url(#paint18_linear)"/>
<defs>
<linearGradient id="paint0_linear" x1="35133.6" y1="1660.37" x2="38191.7" y2="-1472.07" gradientUnits="userSpaceOnUse">
<stop stop-color="#FF059D"/>
<stop offset="1" stop-color="#FFF904"/>
</linearGradient>
<linearGradient id="paint1_linear" x1="43626.5" y1="807.645" x2="47649" y2="807.645" gradientUnits="userSpaceOnUse">
<stop stop-color="#10C2FF"/>
<stop offset="0.22" stop-color="#10BEFF"/>
<stop offset="0.43" stop-color="#12B3FF"/>
<stop offset="0.63" stop-color="#14A0FF"/>
<stop offset="0.83" stop-color="#1786FF"/>
<stop offset="1" stop-color="#1A68FF"/>
</linearGradient>
<linearGradient id="paint2_linear" x1="19.0668" y1="80.4329" x2="115.589" y2="19.0104" gradientUnits="userSpaceOnUse">
<stop stop-color="#FF059D"/>
<stop offset="0.6" stop-color="#FF9841"/>
<stop offset="1" stop-color="#FFF904"/>
</linearGradient>
<linearGradient id="paint3_linear" x1="43626.5" y1="2090.14" x2="47649" y2="2090.14" gradientUnits="userSpaceOnUse">
<stop stop-color="#10C2FF"/>
<stop offset="0.22" stop-color="#10BEFF"/>
<stop offset="0.43" stop-color="#12B3FF"/>
<stop offset="0.63" stop-color="#14A0FF"/>
<stop offset="0.83" stop-color="#1786FF"/>
<stop offset="1" stop-color="#1A68FF"/>
</linearGradient>
<linearGradient id="paint4_linear" x1="43626.5" y1="3381.66" x2="47649" y2="3381.66" gradientUnits="userSpaceOnUse">
<stop stop-color="#10C2FF"/>
<stop offset="0.22" stop-color="#10BEFF"/>
<stop offset="0.43" stop-color="#12B3FF"/>
<stop offset="0.63" stop-color="#14A0FF"/>
<stop offset="0.83" stop-color="#1786FF"/>
<stop offset="1" stop-color="#1A68FF"/>
</linearGradient>
<linearGradient id="paint5_linear" x1="34400.3" y1="4779.79" x2="37820.4" y2="674.606" gradientUnits="userSpaceOnUse">
<stop stop-color="#FF059D"/>
<stop offset="0.6" stop-color="#FF9841"/>
<stop offset="1" stop-color="#FFF904"/>
</linearGradient>
<linearGradient id="paint6_linear" x1="8217.09" y1="104.204" x2="8349.16" y2="104.204" gradientUnits="userSpaceOnUse">
<stop stop-color="#64D8BC"/>
<stop offset="1" stop-color="#E3F24C"/>
</linearGradient>
<linearGradient id="paint7_linear" x1="9779.78" y1="267.973" x2="9967" y2="267.973" gradientUnits="userSpaceOnUse">
<stop stop-color="#64D8BC"/>
<stop offset="1" stop-color="#E3F24C"/>
</linearGradient>
<linearGradient id="paint8_linear" x1="12109.1" y1="436.816" x2="12398" y2="436.816" gradientUnits="userSpaceOnUse">
<stop stop-color="#64D8BC"/>
<stop offset="1" stop-color="#E3F24C"/>
</linearGradient>
<linearGradient id="paint9_linear" x1="24487.1" y1="2530.86" x2="26354.6" y2="584.591" gradientUnits="userSpaceOnUse">
<stop stop-color="#FF059D"/>
<stop offset="0.6" stop-color="#FF9841"/>
<stop offset="1" stop-color="#FFF904"/>
</linearGradient>
<linearGradient id="paint10_linear" x1="22918.3" y1="1759.61" x2="24734.1" y2="-20.9885" gradientUnits="userSpaceOnUse">
<stop stop-color="#FF059D"/>
<stop offset="0.6" stop-color="#FF9841"/>
<stop offset="1" stop-color="#FFF904"/>
</linearGradient>
<linearGradient id="paint11_linear" x1="23799" y1="864.911" x2="26099" y2="-879.433" gradientUnits="userSpaceOnUse">
<stop stop-color="#FF059D"/>
<stop offset="0.6" stop-color="#FF9841"/>
<stop offset="1" stop-color="#FFF904"/>
</linearGradient>
<linearGradient id="paint12_linear" x1="2644.56" y1="18039" x2="2644.56" y2="-2497" gradientUnits="userSpaceOnUse">
<stop stop-color="#64D8BC"/>
<stop offset="1" stop-color="#E3F24C"/>
</linearGradient>
<linearGradient id="paint13_linear" x1="17983" y1="2214.29" x2="18602.9" y2="2214.29" gradientUnits="userSpaceOnUse">
<stop stop-color="#64D8BC"/>
<stop offset="1" stop-color="#E3F24C"/>
</linearGradient>
<linearGradient id="paint14_linear" x1="17285.6" y1="2214.29" x2="17905.9" y2="2214.29" gradientUnits="userSpaceOnUse">
<stop stop-color="#64D8BC"/>
<stop offset="1" stop-color="#E3F24C"/>
</linearGradient>
<linearGradient id="paint15_linear" x1="14761" y1="538.302" x2="15212.1" y2="538.302" gradientUnits="userSpaceOnUse">
<stop stop-color="#64D8BC"/>
<stop offset="1" stop-color="#E3F24C"/>
</linearGradient>
<linearGradient id="paint16_linear" x1="15388" y1="538.302" x2="15839" y2="538.302" gradientUnits="userSpaceOnUse">
<stop stop-color="#64D8BC"/>
<stop offset="1" stop-color="#E3F24C"/>
</linearGradient>
<linearGradient id="paint17_linear" x1="13461.6" y1="1267.44" x2="13835.9" y2="1267.44" gradientUnits="userSpaceOnUse">
<stop stop-color="#64D8BC"/>
<stop offset="1" stop-color="#E3F24C"/>
</linearGradient>
<linearGradient id="paint18_linear" x1="14034.6" y1="1267.44" x2="14408.8" y2="1267.44" gradientUnits="userSpaceOnUse">
<stop stop-color="#64D8BC"/>
<stop offset="1" stop-color="#E3F24C"/>
</linearGradient>
</defs>
</svg>
