<svg width="99" height="100" viewBox="0 0 99 100" fill="none" xmlns="http://www.w3.org/2000/svg">
<path d="M20.4082 34.6748H17.6235V64.7657H20.4082V34.6748Z" fill="url(#paint0_linear)"/>
<path d="M65.4715 17.1528H33.3335V19.9375H65.4715V17.1528Z" fill="url(#paint1_linear)"/>
<path d="M81.0034 34.6748H78.2188V64.7657H81.0034V34.6748Z" fill="url(#paint2_linear)"/>
<path d="M65.7894 80.4692H33.3335V83.2539H65.7894V80.4692Z" fill="url(#paint3_linear)"/>
<path d="M70.5561 28.5751L59.5103 38.2246L61.3381 40.317L72.384 30.6674L70.5561 28.5751Z" fill="url(#paint4_linear)"/>
<path d="M37.8097 57.3833L25.4683 68.1494L27.2947 70.243L39.6361 59.4769L37.8097 57.3833Z" fill="url(#paint5_linear)"/>
<path d="M61.4653 57.0995L59.6362 59.1992L71.8174 69.8105L73.6465 67.7108L61.4653 57.0995Z" fill="url(#paint6_linear)"/>
<path d="M29.1581 28.9494L27.3286 31.0488L37.8878 40.2505L39.7173 38.1511L29.1581 28.9494Z" fill="url(#paint7_linear)"/>
<path d="M49.5705 64.721C46.4269 64.721 43.3539 63.7889 40.7401 62.0424C38.1263 60.2959 36.0892 57.8136 34.8862 54.9093C33.6832 52.005 33.3684 48.8092 33.9817 45.726C34.5949 42.6429 36.1088 39.8108 38.3316 37.5879C40.5545 35.3651 43.3865 33.8513 46.4697 33.238C49.5529 32.6247 52.7487 32.9395 55.653 34.1425C58.5573 35.3455 61.0396 37.3827 62.786 39.9965C64.5325 42.6103 65.4647 45.6833 65.4647 48.8268C65.4647 53.0422 63.7902 57.085 60.8094 60.0657C57.8287 63.0465 53.7859 64.721 49.5705 64.721ZM49.5705 35.7745C46.9827 35.7745 44.453 36.5419 42.3014 37.9796C40.1497 39.4173 38.4727 41.4607 37.4823 43.8515C36.492 46.2424 36.2329 48.8731 36.7378 51.4112C37.2426 53.9493 38.4888 56.2806 40.3186 58.1105C42.1485 59.9403 44.4799 61.1865 47.0179 61.6913C49.556 62.1962 52.1867 61.9371 54.5775 60.9468C56.9684 59.9565 59.0119 58.2794 60.4496 56.1278C61.8873 53.9761 62.6546 51.4464 62.6546 48.8586C62.6513 45.3895 61.2716 42.0635 58.8186 39.6105C56.3656 37.1575 53.0396 35.7779 49.5705 35.7745Z" fill="url(#paint8_linear)"/>
<path d="M57.4673 41.8716C56.8456 41.1118 56.0124 40.5536 55.0732 40.2677C54.134 39.9818 53.1311 39.9811 52.1915 40.2657C51.2519 40.5503 50.418 41.1074 49.7953 41.8663C49.1726 42.6253 48.7892 43.5521 48.6936 44.5291C48.618 45.3548 48.7537 46.1862 49.0878 46.9451L41.0644 53.5189C40.8432 53.7012 40.6837 53.9473 40.6076 54.2237C40.5315 54.5 40.5425 54.7931 40.6392 55.0629C40.7359 55.3328 40.9134 55.5662 41.1477 55.7313C41.3819 55.8965 41.6615 55.9853 41.9481 55.9857C42.2704 55.9837 42.5822 55.8715 42.8319 55.6678L43.6011 55.032L45.3305 57.1428L47.4794 55.3817L45.75 53.271L46.8309 52.3809L48.5601 54.4916L50.709 52.7305L48.9798 50.6198L50.8489 49.0876C51.5293 49.5626 52.3188 49.8579 53.144 49.9459C53.3092 49.9554 53.4748 49.9554 53.6399 49.9459C54.5768 49.94 55.4929 49.6692 56.2824 49.1647C57.0719 48.6602 57.7025 47.9426 58.1015 47.0949C58.5004 46.2471 58.6513 45.3038 58.5369 44.3739C58.4224 43.444 58.0472 42.5655 57.4545 41.8398L57.4673 41.8716ZM55.0132 46.7035C54.7431 46.9254 54.4237 47.0792 54.0817 47.1518C53.7398 47.2244 53.3854 47.2138 53.0485 47.1208C52.7115 47.0277 52.4018 46.8551 52.1456 46.6173C51.8893 46.3796 51.6939 46.0837 51.5759 45.7547C51.4579 45.4256 51.4208 45.073 51.4677 44.7266C51.5145 44.3802 51.6438 44.0501 51.8449 43.7642C52.046 43.4783 52.3129 43.2449 52.6231 43.0837C52.9333 42.9225 53.2776 42.8382 53.6272 42.838C54.0767 42.8377 54.5154 42.9763 54.8831 43.2349C55.2508 43.4936 55.5297 43.8595 55.6814 44.2827C55.8331 44.7058 55.8504 45.1656 55.7308 45.5989C55.6112 46.0323 55.3605 46.418 55.0132 46.7035Z" fill="url(#paint9_linear)"/>
<path d="M60.913 0.355957H58.1284V8.11869H60.913V0.355957Z" fill="black"/>
<path d="M86.4517 41.1278C86.0819 41.1328 85.719 41.0277 85.4092 40.8258C85.0994 40.624 84.8567 40.3344 84.712 39.9942C84.5673 39.6539 84.5272 39.2782 84.5967 38.915C84.6662 38.5519 84.8422 38.2176 85.1023 37.9548C85.3624 37.692 85.6948 37.5125 86.0573 37.4393C86.4197 37.366 86.7958 37.4023 87.1376 37.5435C87.4793 37.6847 87.7713 37.9244 87.9764 38.2321C88.1814 38.5398 88.2903 38.9016 88.2891 39.2713C88.2874 39.7599 88.0939 40.2283 87.7502 40.5755C87.4065 40.9228 86.9402 41.1211 86.4517 41.1278ZM98.9255 37.879H91.1627V40.6573H98.9255V37.879Z" fill="url(#paint10_linear)"/>
<path d="M86.4516 47.9116C86.0832 47.9116 85.7231 47.8024 85.4167 47.5977C85.1104 47.393 84.8717 47.1021 84.7307 46.7617C84.5897 46.4213 84.5528 46.0468 84.6247 45.6854C84.6965 45.3241 84.874 44.9922 85.1345 44.7316C85.395 44.4711 85.7269 44.2937 86.0882 44.2218C86.4495 44.15 86.8242 44.1868 87.1646 44.3278C87.5049 44.4688 87.7959 44.7076 88.0005 45.0139C88.2052 45.3203 88.3145 45.6804 88.3145 46.0488C88.3128 46.5424 88.116 47.0152 87.767 47.3642C87.418 47.7132 86.9452 47.91 86.4516 47.9116ZM98.9254 44.6756H91.1627V47.4539H98.9254V44.6756Z" fill="url(#paint11_linear)"/>
<path d="M86.4516 54.689C86.0832 54.689 85.7231 54.5797 85.4167 54.375C85.1104 54.1704 84.8717 53.8794 84.7307 53.539C84.5897 53.1987 84.5528 52.8241 84.6247 52.4628C84.6965 52.1014 84.874 51.7695 85.1345 51.509C85.395 51.2485 85.7269 51.071 86.0882 50.9992C86.4495 50.9273 86.8242 50.9642 87.1646 51.1052C87.5049 51.2462 87.7959 51.4849 88.0005 51.7913C88.2052 52.0976 88.3145 52.4578 88.3145 52.8262C88.3145 53.3202 88.1182 53.794 87.7688 54.1434C87.4195 54.4927 86.9457 54.689 86.4516 54.689ZM98.9254 51.4338H91.1627V54.2122H98.9254V51.4338Z" fill="url(#paint12_linear)"/>
<path d="M86.4516 61.4658C86.0832 61.4658 85.7231 61.3566 85.4167 61.1519C85.1104 60.9472 84.8717 60.6563 84.7307 60.3159C84.5897 59.9755 84.5528 59.601 84.6247 59.2396C84.6965 58.8783 84.874 58.5464 85.1345 58.2858C85.395 58.0253 85.7269 57.8479 86.0882 57.776C86.4495 57.7042 86.8242 57.741 87.1646 57.882C87.5049 58.023 87.7959 58.2618 88.0005 58.5681C88.2052 58.8745 88.3145 59.2346 88.3145 59.603C88.3145 60.0971 88.1182 60.5709 87.7688 60.9202C87.4195 61.2696 86.9457 61.4658 86.4516 61.4658ZM98.9254 58.2107H91.1627V60.9954H98.9254V58.2107Z" fill="url(#paint13_linear)"/>
<path d="M57.6704 87.5264C57.6704 87.1579 57.7796 86.7978 57.9843 86.4915C58.189 86.1851 58.48 85.9464 58.8203 85.8054C59.1607 85.6644 59.5353 85.6275 59.8967 85.6994C60.258 85.7712 60.5899 85.9487 60.8504 86.2092C61.1109 86.4697 61.2883 86.8016 61.3602 87.163C61.4321 87.5243 61.3952 87.8988 61.2542 88.2392C61.1132 88.5796 60.8745 88.8706 60.5682 89.0752C60.2618 89.2799 59.9017 89.3892 59.5332 89.3892C59.2886 89.3892 59.0463 89.341 58.8203 89.2474C58.5943 89.1538 58.389 89.0165 58.216 88.8436C58.043 88.6706 57.9058 88.4652 57.8122 88.2392C57.7186 88.0132 57.6704 87.771 57.6704 87.5264ZM60.951 99.9874V92.2374H58.1727V99.9874H60.951Z" fill="url(#paint14_linear)"/>
<path d="M50.8867 87.5264C50.8867 87.1579 50.996 86.7978 51.2006 86.4915C51.4053 86.1851 51.6963 85.9464 52.0366 85.8054C52.377 85.6644 52.7516 85.6275 53.1129 85.6994C53.4743 85.7712 53.8062 85.9487 54.0667 86.2092C54.3272 86.4697 54.5047 86.8016 54.5765 87.163C54.6484 87.5243 54.6115 87.8988 54.4705 88.2392C54.3295 88.5796 54.0907 88.8706 53.7844 89.0752C53.478 89.2799 53.1179 89.3892 52.7495 89.3892C52.2559 89.3875 51.7831 89.1907 51.4342 88.8417C51.0852 88.4927 50.8884 88.0199 50.8867 87.5264ZM54.1418 100V92.2374H51.3635V99.9874L54.1418 100Z" fill="url(#paint15_linear)"/>
<path d="M44.1094 87.5264C44.1094 87.1579 44.2186 86.7978 44.4233 86.4915C44.628 86.1851 44.9189 85.9464 45.2593 85.8054C45.5997 85.6644 45.9742 85.6275 46.3356 85.6994C46.6969 85.7712 47.0289 85.9487 47.2894 86.2092C47.5499 86.4697 47.7273 86.8016 47.7992 87.163C47.8711 87.5243 47.8342 87.8988 47.6932 88.2392C47.5522 88.5796 47.3135 88.8706 47.0071 89.0752C46.7008 89.2799 46.3406 89.3892 45.9721 89.3892C45.7275 89.3892 45.4853 89.341 45.2593 89.2474C45.0333 89.1538 44.8279 89.0165 44.655 88.8436C44.482 88.6706 44.3448 88.4652 44.2512 88.2392C44.1576 88.0132 44.1094 87.771 44.1094 87.5264ZM47.3645 100V92.2374H44.5862V99.9874L47.3645 100Z" fill="url(#paint16_linear)"/>
<path d="M37.332 87.5264C37.332 87.1579 37.4413 86.7978 37.646 86.4915C37.8506 86.1851 38.1416 85.9464 38.482 85.8054C38.8223 85.6644 39.1969 85.6275 39.5582 85.6994C39.9196 85.7712 40.2515 85.9487 40.512 86.2092C40.7726 86.4697 40.95 86.8016 41.0218 87.163C41.0937 87.5243 41.0568 87.8988 40.9158 88.2392C40.7748 88.5796 40.5361 88.8706 40.2298 89.0752C39.9234 89.2799 39.5633 89.3892 39.1949 89.3892C38.9502 89.3892 38.708 89.341 38.482 89.2474C38.256 89.1538 38.0506 89.0165 37.8776 88.8436C37.7046 88.6706 37.5674 88.4652 37.4738 88.2392C37.3802 88.0132 37.332 87.771 37.332 87.5264ZM40.6063 99.9874V92.2374H37.8216V99.9874H40.6063Z" fill="url(#paint17_linear)"/>
<path d="M41.147 12.4674C41.147 12.8358 41.0378 13.196 40.8331 13.5023C40.6284 13.8087 40.3375 14.0474 39.9971 14.1884C39.6567 14.3294 39.2821 14.3663 38.9208 14.2944C38.5594 14.2225 38.2275 14.0451 37.967 13.7846C37.7065 13.5241 37.5291 13.1922 37.4572 12.8308C37.3853 12.4695 37.4222 12.0949 37.5632 11.7546C37.7042 11.4142 37.943 11.1232 38.2493 10.9186C38.5557 10.7139 38.9158 10.6046 39.2842 10.6046C39.7783 10.6046 40.2521 10.8009 40.6014 11.1502C40.9507 11.4996 41.147 11.9734 41.147 12.4674ZM37.8919 0V7.76273H40.6765V0H37.8919Z" fill="url(#paint18_linear)"/>
<path d="M47.9243 12.4674C47.9243 12.8358 47.8151 13.196 47.6104 13.5023C47.4057 13.8087 47.1148 14.0474 46.7744 14.1884C46.434 14.3294 46.0595 14.3663 45.6981 14.2944C45.3368 14.2225 45.0048 14.0451 44.7443 13.7846C44.4838 13.5241 44.3064 13.1922 44.2345 12.8308C44.1626 12.4695 44.1995 12.0949 44.3405 11.7546C44.4815 11.4142 44.7203 11.1232 45.0266 10.9186C45.3329 10.7139 45.6931 10.6046 46.0615 10.6046C46.5555 10.6046 47.0294 10.8009 47.3788 11.1502C47.7281 11.4996 47.9243 11.9734 47.9243 12.4674ZM44.6756 0V7.76273H47.4539V0H44.6756Z" fill="url(#paint19_linear)"/>
<path d="M54.7017 12.4674C54.7017 12.8358 54.5924 13.196 54.3877 13.5023C54.183 13.8087 53.8921 14.0474 53.5517 14.1884C53.2113 14.3294 52.8368 14.3663 52.4754 14.2944C52.1141 14.2225 51.7822 14.0451 51.5217 13.7846C51.2612 13.5241 51.0837 13.1922 51.0119 12.8308C50.94 12.4695 50.9769 12.0949 51.1179 11.7546C51.2589 11.4142 51.4976 11.1232 51.8039 10.9186C52.1103 10.7139 52.4704 10.6046 52.8388 10.6046C53.3329 10.6046 53.8067 10.8009 54.156 11.1502C54.5054 11.4996 54.7017 11.9734 54.7017 12.4674ZM51.4529 0V7.76273H54.2312V0H51.4529Z" fill="url(#paint20_linear)"/>
<path d="M61.4854 12.4674C61.4854 12.8358 61.3761 13.196 61.1714 13.5023C60.9668 13.8087 60.6758 14.0474 60.3354 14.1884C59.9951 14.3294 59.6205 14.3663 59.2592 14.2944C58.8978 14.2225 58.5659 14.0451 58.3054 13.7846C58.0448 13.5241 57.8674 13.1922 57.7956 12.8308C57.7237 12.4695 57.7606 12.0949 57.9016 11.7546C58.0426 11.4142 58.2814 11.1232 58.5877 10.9186C58.894 10.7139 59.2542 10.6046 59.6226 10.6046C60.1167 10.6046 60.5904 10.8009 60.9398 11.1502C61.2891 11.4996 61.4854 11.9734 61.4854 12.4674ZM58.2302 0V7.76273H61.0085V0H58.2302Z" fill="url(#paint21_linear)"/>
<path d="M10.6047 39.2715C10.6034 38.9028 10.7116 38.542 10.9155 38.2349C11.1194 37.9277 11.4099 37.6879 11.7502 37.546C12.0904 37.404 12.4651 37.3662 12.8269 37.4374C13.1887 37.5085 13.5212 37.6854 13.7823 37.9457C14.0435 38.206 14.2215 38.5379 14.2939 38.8994C14.3663 39.2609 14.3298 39.6358 14.189 39.9765C14.0482 40.3173 13.8095 40.6086 13.503 40.8136C13.1965 41.0185 12.8361 41.1279 12.4674 41.1279C11.9745 41.1279 11.5016 40.9326 11.1525 40.5846C10.8033 40.2366 10.6063 39.7644 10.6047 39.2715ZM0 40.6575H7.76271V37.8792H0V40.6575Z" fill="url(#paint22_linear)"/>
<path d="M10.6047 46.0488C10.6047 45.6804 10.7139 45.3203 10.9186 45.0139C11.1233 44.7076 11.4142 44.4688 11.7546 44.3278C12.095 44.1868 12.4695 44.15 12.8308 44.2218C13.1922 44.2937 13.5241 44.4711 13.7846 44.7316C14.0451 44.9922 14.2225 45.3241 14.2944 45.6854C14.3663 46.0468 14.3294 46.4213 14.1885 46.7617C14.0475 47.1021 13.8087 47.393 13.5023 47.5977C13.196 47.8024 12.8358 47.9116 12.4674 47.9116C11.9734 47.9116 11.4996 47.7154 11.1502 47.366C10.8009 47.0167 10.6047 46.5429 10.6047 46.0488ZM0 47.4348H7.76271V44.6756H0V47.4348Z" fill="url(#paint23_linear)"/>
<path d="M10.6047 52.8262C10.6047 52.4578 10.7139 52.0976 10.9186 51.7913C11.1233 51.4849 11.4142 51.2462 11.7546 51.1052C12.095 50.9642 12.4695 50.9273 12.8308 50.9992C13.1922 51.071 13.5241 51.2485 13.7846 51.509C14.0451 51.7695 14.2225 52.1014 14.2944 52.4628C14.3663 52.8241 14.3294 53.1987 14.1885 53.539C14.0475 53.8794 13.8087 54.1704 13.5023 54.375C13.196 54.5797 12.8358 54.689 12.4674 54.689C11.9734 54.689 11.4996 54.4927 11.1502 54.1434C10.8009 53.794 10.6047 53.3202 10.6047 52.8262ZM0 54.2122H7.76271V51.4338H0V54.2122Z" fill="url(#paint24_linear)"/>
<path d="M10.6047 59.603C10.6047 59.2346 10.7139 58.8745 10.9186 58.5681C11.1233 58.2618 11.4142 58.023 11.7546 57.882C12.095 57.741 12.4695 57.7042 12.8308 57.776C13.1922 57.8479 13.5241 58.0253 13.7846 58.2858C14.0451 58.5464 14.2225 58.8783 14.2944 59.2396C14.3663 59.601 14.3294 59.9755 14.1885 60.3159C14.0475 60.6563 13.8087 60.9472 13.5023 61.1519C13.196 61.3566 12.8358 61.4658 12.4674 61.4658C11.9734 61.4658 11.4996 61.2696 11.1502 60.9202C10.8009 60.5709 10.6047 60.0971 10.6047 59.603ZM0 60.9954H7.76271V58.2107H0V60.9954Z" fill="url(#paint25_linear)"/>
<path d="M79.611 0.235352L63.9966 9.25055V27.2746L79.611 36.2834L95.2255 27.2746V9.25055L79.611 0.235352ZM91.0994 10.077L79.7128 16.6572L68.2244 10.0198L79.611 3.44598L91.0994 10.077ZM66.7813 12.3976L78.3204 19.0605V32.3289L66.7813 25.6661V12.3976ZM81.0987 32.2145V19.0605L92.4409 12.5184V25.6661L81.0987 32.2145Z" fill="url(#paint26_linear)"/>
<path d="M18.9905 63.1572L3.37598 72.1788V90.2028L18.9905 99.2053L34.605 90.2028V72.1788L18.9905 63.1572ZM30.4788 73.0053L19.0922 79.5791L7.60385 72.9481L18.9905 66.3742L30.4788 73.0053ZM6.16065 75.3258L17.7189 81.9887V95.2508L6.17974 88.5943L6.16065 75.3258ZM20.4845 95.1364V81.9887L31.8266 75.4403V88.5943L20.4845 95.1364Z" fill="url(#paint27_linear)"/>
<path d="M18.9905 0.235352L3.37598 9.25055V27.2746L18.9905 36.2834L34.605 27.2746V9.25055L18.9905 0.235352ZM30.4788 10.077L19.0922 16.6572L7.60385 10.0198L18.9905 3.44598L30.4788 10.077ZM6.16065 12.3976L17.7189 19.0605V32.3289L6.17974 25.6661L6.16065 12.3976ZM20.4845 32.2145V19.0605L31.8266 12.5184V25.6661L20.4845 32.2145Z" fill="url(#paint28_linear)"/>
<path d="M79.611 63.1572L63.9966 72.1788V90.2028L79.611 99.2053L95.2255 90.2028V72.1788L79.611 63.1572ZM78.3395 95.2508L66.8003 88.5943V75.3258L78.3395 81.9887V95.2508ZM68.2435 72.9481L79.6301 66.3742L91.1184 73.0053L79.7318 79.5791L68.2435 72.9481ZM92.4599 88.5943L81.1178 95.1364V81.9887L92.4599 75.4403V88.5943Z" fill="url(#paint29_linear)"/>
<defs>
<linearGradient id="paint0_linear" x1="4283.82" y1="3769.86" x2="4283.82" y2="-327.62" gradientUnits="userSpaceOnUse">
<stop stop-color="#E3F24C"/>
<stop offset="1" stop-color="#64D8BC"/>
</linearGradient>
<linearGradient id="paint1_linear" x1="49577.3" y1="105.343" x2="52638.1" y2="-612.187" gradientUnits="userSpaceOnUse">
<stop stop-color="#E3F24C"/>
<stop offset="1" stop-color="#64D8BC"/>
</linearGradient>
<linearGradient id="paint2_linear" x1="4609.85" y1="3688.01" x2="4609.85" y2="1147.44" gradientUnits="userSpaceOnUse">
<stop stop-color="#E3F24C"/>
<stop offset="1" stop-color="#64D8BC"/>
</linearGradient>
<linearGradient id="paint3_linear" x1="51288.7" y1="509.251" x2="51290.3" y2="12.7926" gradientUnits="userSpaceOnUse">
<stop stop-color="#E3F24C"/>
<stop offset="1" stop-color="#64D8BC"/>
</linearGradient>
<linearGradient id="paint4_linear" x1="23464.3" y1="188.729" x2="23761.5" y2="188.728" gradientUnits="userSpaceOnUse">
<stop stop-color="#10C2FF"/>
<stop offset="0.22" stop-color="#10BEFF"/>
<stop offset="0.43" stop-color="#12B3FF"/>
<stop offset="0.63" stop-color="#14A0FF"/>
<stop offset="0.83" stop-color="#1786FF"/>
<stop offset="1" stop-color="#1A68FF"/>
</linearGradient>
<linearGradient id="paint5_linear" x1="25280" y1="345.734" x2="25645" y2="345.734" gradientUnits="userSpaceOnUse">
<stop stop-color="#10C2FF"/>
<stop offset="0.22" stop-color="#10BEFF"/>
<stop offset="0.43" stop-color="#12B3FF"/>
<stop offset="0.63" stop-color="#14A0FF"/>
<stop offset="0.83" stop-color="#1786FF"/>
<stop offset="1" stop-color="#1A68FF"/>
</linearGradient>
<linearGradient id="paint6_linear" x1="4509.63" y1="1697.27" x2="4571" y2="1697.27" gradientUnits="userSpaceOnUse">
<stop stop-color="#10C2FF"/>
<stop offset="0.22" stop-color="#10BEFF"/>
<stop offset="0.43" stop-color="#12B3FF"/>
<stop offset="0.63" stop-color="#14A0FF"/>
<stop offset="0.83" stop-color="#1786FF"/>
<stop offset="1" stop-color="#1A68FF"/>
</linearGradient>
<linearGradient id="paint7_linear" x1="4334.75" y1="814.166" x2="4389.02" y2="814.166" gradientUnits="userSpaceOnUse">
<stop stop-color="#10C2FF"/>
<stop offset="0.22" stop-color="#10BEFF"/>
<stop offset="0.43" stop-color="#12B3FF"/>
<stop offset="0.63" stop-color="#14A0FF"/>
<stop offset="0.83" stop-color="#1786FF"/>
<stop offset="1" stop-color="#1A68FF"/>
</linearGradient>
<linearGradient id="paint8_linear" x1="50872.9" y1="1890.33" x2="48686.8" y2="4184.82" gradientUnits="userSpaceOnUse">
<stop stop-color="#FFF904"/>
<stop offset="1" stop-color="#FF059D"/>
</linearGradient>
<linearGradient id="paint9_linear" x1="28252.9" y1="1376.15" x2="28763.8" y2="1376.15" gradientUnits="userSpaceOnUse">
<stop stop-color="#E3F24C"/>
<stop offset="1" stop-color="#64D8BC"/>
</linearGradient>
<linearGradient id="paint10_linear" x1="23413.2" y1="273.978" x2="24332.9" y2="273.978" gradientUnits="userSpaceOnUse">
<stop stop-color="#FF059D"/>
<stop offset="1" stop-color="#FFF904"/>
</linearGradient>
<linearGradient id="paint11_linear" x1="23371.9" y1="320.477" x2="24290" y2="320.477" gradientUnits="userSpaceOnUse">
<stop stop-color="#FF059D"/>
<stop offset="1" stop-color="#FFF904"/>
</linearGradient>
<linearGradient id="paint12_linear" x1="23371.9" y1="366.969" x2="24290" y2="366.969" gradientUnits="userSpaceOnUse">
<stop stop-color="#FF059D"/>
<stop offset="1" stop-color="#FFF904"/>
</linearGradient>
<linearGradient id="paint13_linear" x1="23371.9" y1="413.461" x2="24290" y2="413.461" gradientUnits="userSpaceOnUse">
<stop stop-color="#FF059D"/>
<stop offset="1" stop-color="#FFF904"/>
</linearGradient>
<linearGradient id="paint14_linear" x1="114982" y1="3177.2" x2="114982" y2="3415.79" gradientUnits="userSpaceOnUse">
<stop stop-color="#FF059D"/>
<stop offset="1" stop-color="#FFF904"/>
</linearGradient>
<linearGradient id="paint15_linear" x1="114936" y1="3170.42" x2="114936" y2="3409.01" gradientUnits="userSpaceOnUse">
<stop stop-color="#FF059D"/>
<stop offset="1" stop-color="#FFF904"/>
</linearGradient>
<linearGradient id="paint16_linear" x1="114783" y1="3163.64" x2="114783" y2="3402.23" gradientUnits="userSpaceOnUse">
<stop stop-color="#FF059D"/>
<stop offset="1" stop-color="#FFF904"/>
</linearGradient>
<linearGradient id="paint17_linear" x1="114524" y1="3156.87" x2="114524" y2="3395.45" gradientUnits="userSpaceOnUse">
<stop stop-color="#FF059D"/>
<stop offset="1" stop-color="#FFF904"/>
</linearGradient>
<linearGradient id="paint18_linear" x1="12894.6" y1="20355.5" x2="12894.6" y2="20116.9" gradientUnits="userSpaceOnUse">
<stop stop-color="#FF059D"/>
<stop offset="1" stop-color="#FFF904"/>
</linearGradient>
<linearGradient id="paint19_linear" x1="13047.3" y1="20348.7" x2="13047.3" y2="20110.1" gradientUnits="userSpaceOnUse">
<stop stop-color="#FF059D"/>
<stop offset="1" stop-color="#FFF904"/>
</linearGradient>
<linearGradient id="paint20_linear" x1="13200.1" y1="20341.9" x2="13200.1" y2="20103.3" gradientUnits="userSpaceOnUse">
<stop stop-color="#FF059D"/>
<stop offset="1" stop-color="#FFF904"/>
</linearGradient>
<linearGradient id="paint21_linear" x1="13352.8" y1="20335.2" x2="13352.8" y2="20096.6" gradientUnits="userSpaceOnUse">
<stop stop-color="#FF059D"/>
<stop offset="1" stop-color="#FFF904"/>
</linearGradient>
<linearGradient id="paint22_linear" x1="107020" y1="273.978" x2="106102" y2="273.978" gradientUnits="userSpaceOnUse">
<stop stop-color="#FF059D"/>
<stop offset="1" stop-color="#FFF904"/>
</linearGradient>
<linearGradient id="paint23_linear" x1="107020" y1="320.477" x2="106102" y2="320.477" gradientUnits="userSpaceOnUse">
<stop stop-color="#FF059D"/>
<stop offset="1" stop-color="#FFF904"/>
</linearGradient>
<linearGradient id="paint24_linear" x1="107020" y1="366.969" x2="106102" y2="366.969" gradientUnits="userSpaceOnUse">
<stop stop-color="#FF059D"/>
<stop offset="1" stop-color="#FFF904"/>
</linearGradient>
<linearGradient id="paint25_linear" x1="107020" y1="413.461" x2="106102" y2="413.461" gradientUnits="userSpaceOnUse">
<stop stop-color="#FF059D"/>
<stop offset="1" stop-color="#FFF904"/>
</linearGradient>
<linearGradient id="paint26_linear" x1="50117.4" y1="1097.9" x2="51651.4" y2="1097.9" gradientUnits="userSpaceOnUse">
<stop stop-color="#10C2FF"/>
<stop offset="0.22" stop-color="#10BEFF"/>
<stop offset="0.43" stop-color="#12B3FF"/>
<stop offset="0.63" stop-color="#14A0FF"/>
<stop offset="0.83" stop-color="#1786FF"/>
<stop offset="1" stop-color="#1A68FF"/>
</linearGradient>
<linearGradient id="paint27_linear" x1="47080.2" y1="4728.5" x2="48614.1" y2="4728.5" gradientUnits="userSpaceOnUse">
<stop stop-color="#10C2FF"/>
<stop offset="0.22" stop-color="#10BEFF"/>
<stop offset="0.43" stop-color="#12B3FF"/>
<stop offset="0.63" stop-color="#14A0FF"/>
<stop offset="0.83" stop-color="#1786FF"/>
<stop offset="1" stop-color="#1A68FF"/>
</linearGradient>
<linearGradient id="paint28_linear" x1="47080.2" y1="1097.9" x2="48614.1" y2="1097.9" gradientUnits="userSpaceOnUse">
<stop stop-color="#10C2FF"/>
<stop offset="0.22" stop-color="#10BEFF"/>
<stop offset="0.43" stop-color="#12B3FF"/>
<stop offset="0.63" stop-color="#14A0FF"/>
<stop offset="0.83" stop-color="#1786FF"/>
<stop offset="1" stop-color="#1A68FF"/>
</linearGradient>
<linearGradient id="paint29_linear" x1="50117.4" y1="4728.5" x2="51651.4" y2="4728.5" gradientUnits="userSpaceOnUse">
<stop stop-color="#10C2FF"/>
<stop offset="0.22" stop-color="#10BEFF"/>
<stop offset="0.43" stop-color="#12B3FF"/>
<stop offset="0.63" stop-color="#14A0FF"/>
<stop offset="0.83" stop-color="#1786FF"/>
<stop offset="1" stop-color="#1A68FF"/>
</linearGradient>
</defs>
</svg>
