<svg width="105" height="92" viewBox="0 0 105 92" fill="none" xmlns="http://www.w3.org/2000/svg">
<path d="M104.041 82.6004H29.2804C28.8723 82.6004 28.481 82.4342 28.1925 82.1383C27.9039 81.8424 27.7418 81.4411 27.7418 81.0227C27.7418 80.6043 27.9039 80.2029 28.1925 79.9071C28.481 79.6112 28.8723 79.4449 29.2804 79.4449H100.957V17.4293H21.3578V55.443C21.3323 55.8445 21.1587 56.2211 20.8724 56.4962C20.586 56.7713 20.2083 56.9244 19.8159 56.9244C19.4235 56.9244 19.0458 56.7713 18.7594 56.4962C18.473 56.2211 18.2995 55.8445 18.2739 55.443V14.2671H104.048L104.041 82.6004Z" fill="url(#paint0_linear)"/>
<path d="M91.0244 10.3057H75.9648C75.7539 10.3198 75.5423 10.2894 75.3433 10.2163C75.1443 10.1432 74.9621 10.0291 74.8078 9.88086C74.6536 9.73265 74.5305 9.55357 74.4465 9.35469C74.3624 9.15581 74.3191 8.94136 74.3191 8.7246C74.3191 8.50784 74.3624 8.29339 74.4465 8.09451C74.5305 7.89562 74.6536 7.71654 74.8078 7.56834C74.9621 7.42014 75.1443 7.30597 75.3433 7.23289C75.5423 7.15982 75.7539 7.12939 75.9648 7.14349H91.0244C91.4159 7.16967 91.7831 7.34764 92.0514 7.64127C92.3197 7.93491 92.469 8.32222 92.469 8.7246C92.469 9.12698 92.3197 9.51429 92.0514 9.80793C91.7831 10.1016 91.4159 10.2795 91.0244 10.3057ZM70.288 10.3057H67.9964C67.7854 10.3198 67.5739 10.2894 67.3749 10.2163C67.1759 10.1432 66.9936 10.0291 66.8393 9.88086C66.6851 9.73265 66.5621 9.55357 66.4781 9.35469C66.394 9.15581 66.3506 8.94136 66.3506 8.7246C66.3506 8.50784 66.394 8.29339 66.4781 8.09451C66.5621 7.89562 66.6851 7.71654 66.8393 7.56834C66.9936 7.42014 67.1759 7.30597 67.3749 7.23289C67.5739 7.15982 67.7854 7.12939 67.9964 7.14349H70.288C70.6796 7.16967 71.0469 7.34764 71.3152 7.64127C71.5835 7.93491 71.7328 8.32222 71.7328 8.7246C71.7328 9.12698 71.5835 9.51429 71.3152 9.80793C71.0469 10.1016 70.6796 10.2795 70.288 10.3057Z" fill="url(#paint1_linear)"/>
<path d="M39.7896 7.06935C39.4697 7.06935 39.157 7.16661 38.8911 7.34883C38.6251 7.53104 38.4179 7.79004 38.2954 8.09305C38.173 8.39607 38.141 8.7295 38.2034 9.05119C38.2659 9.37287 38.4198 9.66835 38.646 9.90027C38.8722 10.1322 39.1603 10.2901 39.474 10.3541C39.7878 10.4181 40.113 10.3853 40.4085 10.2597C40.704 10.1342 40.9566 9.92168 41.1343 9.64898C41.312 9.37627 41.4068 9.05565 41.4068 8.72767C41.4077 8.50964 41.3665 8.2936 41.2855 8.09201C41.2045 7.89041 41.0855 7.70725 40.9351 7.55308C40.7848 7.39891 40.6061 7.2768 40.4095 7.19377C40.2129 7.11075 40.0022 7.06846 39.7896 7.06935Z" fill="url(#paint2_linear)"/>
<path d="M34.4727 7.06934C34.1528 7.06934 33.8401 7.16659 33.5742 7.34881C33.3082 7.53103 33.101 7.79002 32.9785 8.09304C32.8561 8.39606 32.8242 8.72949 32.8866 9.05117C32.949 9.37285 33.1029 9.66834 33.3291 9.90026C33.5553 10.1322 33.8434 10.2901 34.1572 10.3541C34.4709 10.4181 34.7961 10.3852 35.0916 10.2597C35.3871 10.1342 35.6397 9.92167 35.8174 9.64896C35.9951 9.37625 36.0899 9.05564 36.0899 8.72765C36.0899 8.28784 35.9196 7.86604 35.6163 7.55505C35.313 7.24405 34.9016 7.06934 34.4727 7.06934Z" fill="url(#paint3_linear)"/>
<path d="M29.1622 10.386C30.0554 10.386 30.7794 9.64351 30.7794 8.72765C30.7794 7.81179 30.0554 7.06934 29.1622 7.06934C28.269 7.06934 27.5449 7.81179 27.5449 8.72765C27.5449 9.64351 28.269 10.386 29.1622 10.386Z" fill="url(#paint4_linear)"/>
<path d="M104.035 17.4224H18.2612V6.61312C18.263 4.85976 18.943 3.17872 20.1521 1.9389C21.3613 0.699086 23.0007 0.00177736 24.7106 0H97.5725C99.2818 0.00177944 100.921 0.699303 102.129 1.93931C103.337 3.17932 104.015 4.86038 104.015 6.61312L104.035 17.4224ZM21.3582 14.2669H100.958V6.61312C100.951 5.69905 100.59 4.82513 99.9557 4.18318C99.321 3.54123 98.464 3.18371 97.5725 3.18907H24.7237C23.8357 3.18904 22.9836 3.54893 22.3532 4.1903C21.7228 4.83168 21.3652 5.70255 21.3582 6.61312V14.2669Z" fill="url(#paint5_linear)"/>
<path d="M58.8492 28.9698H29.2475C28.8559 28.9437 28.4887 28.7657 28.2204 28.4721C27.952 28.1784 27.8027 27.7911 27.8027 27.3887C27.8027 26.9863 27.952 26.599 28.2204 26.3054C28.4887 26.0118 28.8559 25.8338 29.2475 25.8076H58.8492C59.2408 25.8338 59.6081 26.0118 59.8764 26.3054C60.1447 26.599 60.2939 26.9863 60.2939 27.3887C60.2939 27.7911 60.1447 28.1784 59.8764 28.4721C59.6081 28.7657 59.2408 28.9437 58.8492 28.9698Z" fill="url(#paint6_linear)"/>
<path d="M57.448 46.0295H32.3902C31.9822 46.0295 31.5908 45.8633 31.3023 45.5674C31.0137 45.2715 30.8516 44.8702 30.8516 44.4518C30.8516 44.0333 31.0137 43.632 31.3023 43.3361C31.5908 43.0402 31.9822 42.874 32.3902 42.874H57.448C57.8561 42.874 58.2475 43.0402 58.536 43.3361C58.8246 43.632 58.9866 44.0333 58.9866 44.4518C58.9866 44.8702 58.8246 45.2715 58.536 45.5674C58.2475 45.8633 57.8561 46.0295 57.448 46.0295Z" fill="url(#paint7_linear)"/>
<path d="M56.6035 37.4968H38.2702C37.8621 37.4968 37.4707 37.3306 37.1822 37.0347C36.8936 36.7388 36.7314 36.3375 36.7314 35.9191C36.7314 35.5006 36.8936 35.0993 37.1822 34.8034C37.4707 34.5075 37.8621 34.3413 38.2702 34.3413H56.6035C57.0116 34.3413 57.4029 34.5075 57.6915 34.8034C57.98 35.0993 58.1422 35.5006 58.1422 35.9191C58.1422 36.3375 57.98 36.7388 57.6915 37.0347C57.4029 37.3306 57.0116 37.4968 56.6035 37.4968Z" fill="url(#paint8_linear)"/>
<path d="M36.1422 62.9155C35.1342 62.9155 34.1422 62.6568 33.2568 62.1628C32.3713 61.6689 31.6207 60.9554 31.0732 60.0876C30.5257 59.2198 30.1988 58.2252 30.1224 57.1946C30.0459 56.164 30.2224 55.1302 30.6356 54.1875C31.0807 53.1722 31.7845 52.2987 32.673 51.6591C33.5615 51.0195 34.6017 50.6374 35.6842 50.553C36.7666 50.4686 37.8513 50.685 38.8238 51.1796C39.7964 51.6741 40.6209 52.4284 41.2105 53.363C41.8002 54.2976 42.1332 55.378 42.1744 56.4903C42.2156 57.6027 41.9635 58.7058 41.4447 59.6836C40.9259 60.6614 40.1596 61.4777 39.2264 62.0464C38.2933 62.6152 37.2278 62.9154 36.1422 62.9155ZM36.1422 53.6772C35.7839 53.6777 35.4287 53.746 35.0945 53.8786C34.3584 54.1628 33.7626 54.7352 33.438 55.4698C33.1955 56.0177 33.1173 56.6272 33.2134 57.2208C33.3094 57.8144 33.5754 58.3653 33.9776 58.8035C34.3797 59.2417 34.8997 59.5475 35.4717 59.6819C36.0437 59.8163 36.6417 59.7734 37.1898 59.5585C37.7377 59.3465 38.212 58.9725 38.5525 58.4839C38.893 57.9953 39.0845 57.4141 39.1027 56.8139C39.1209 56.2136 38.9651 55.6214 38.6549 55.112C38.3447 54.6026 37.8941 54.1991 37.3601 53.9525C36.9777 53.7733 36.5626 53.6794 36.1422 53.6772Z" fill="url(#paint9_linear)"/>
<path d="M73.8566 37.0472L72.7762 34.4691H67.8983L66.7982 37.0472H64.0352L69.0637 25.1167H71.578L76.6197 37.0472H73.8566ZM70.3471 28.6683L68.8804 32.1259H71.7941L70.3471 28.6683ZM85.9893 26.1842C86.4185 26.6023 86.7512 27.1135 86.963 27.6803C87.1748 28.2472 87.2605 28.8554 87.2137 29.4605C87.2636 30.063 87.1759 30.6691 86.9577 31.2308C86.7395 31.7924 86.3967 32.2943 85.9566 32.6966C85.1185 33.368 83.8351 33.7171 82.1197 33.7171H80.5482V37.074H77.9292V25.1167H82.0477C83.8548 25.1167 85.1687 25.4725 85.9893 26.1842ZM84.084 30.8839C84.4219 30.4365 84.5873 29.8773 84.5488 29.3128C84.575 29.0351 84.533 28.7551 84.4267 28.4983C84.3203 28.2415 84.153 28.016 83.9399 27.8425C83.3649 27.509 82.7066 27.3572 82.0477 27.4061H80.5482V31.4344H82.2965C82.6158 31.4721 82.9391 31.4421 83.2466 31.3463C83.5541 31.2504 83.8392 31.0907 84.084 30.8772V30.8839ZM89.2435 25.1234H91.8625V37.0472H89.2435V25.1234Z" fill="url(#paint10_linear)"/>
<path d="M63.9507 67.4331C63.7119 67.4326 63.4765 67.3752 63.2631 67.2653L54.6661 62.6462C54.4234 62.5193 54.2187 62.3275 54.0735 62.0912C53.9282 61.8548 53.8479 61.5827 53.8411 61.3034C53.8357 61.0192 53.9052 60.7388 54.0424 60.4919C54.1795 60.2449 54.3792 60.0404 54.6203 59.9002L63.1977 54.932C63.3739 54.8216 63.57 54.7487 63.7743 54.7177C63.9785 54.6867 64.1867 54.6981 64.3866 54.7514C64.5865 54.8046 64.7738 54.8986 64.9375 55.0276C65.1012 55.1567 65.2379 55.3182 65.3395 55.5025C65.441 55.6869 65.5053 55.8903 65.5286 56.1007C65.5519 56.3111 65.5336 56.5241 65.4749 56.7271C65.4162 56.9301 65.3182 57.1189 65.1868 57.2822C65.0554 57.4456 64.8934 57.5802 64.7102 57.6779L58.6012 61.2228L64.6447 64.4656C64.9524 64.6274 65.1983 64.8903 65.3431 65.2124C65.4878 65.5344 65.523 65.8969 65.4431 66.2419C65.3631 66.5869 65.1726 66.8944 64.902 67.1152C64.6315 67.3361 64.2965 67.4575 63.9507 67.46V67.4331Z" fill="url(#paint11_linear)"/>
<path d="M77.4977 67.7086C77.151 67.7094 76.8142 67.5901 76.5419 67.3701C76.2696 67.1501 76.0778 66.8423 75.9974 66.4965C75.9171 66.1507 75.953 65.7872 76.0994 65.4649C76.2457 65.1426 76.4939 64.8805 76.8037 64.721L82.8537 61.4715L76.7382 57.9266C76.5624 57.8243 76.4079 57.6875 76.2836 57.524C76.1593 57.3605 76.0676 57.1735 76.0138 56.9737C75.96 56.7739 75.9451 56.5652 75.97 56.3595C75.9948 56.1538 76.059 55.9551 76.1587 55.7748C76.2585 55.5945 76.3918 55.4361 76.5513 55.3086C76.7107 55.1812 76.8931 55.0872 77.088 55.032C77.2828 54.9769 77.4864 54.9616 77.687 54.9871C77.8876 55.0126 78.0814 55.0783 78.2572 55.1806L86.828 60.1556C87.0693 60.2944 87.2697 60.4974 87.408 60.7431C87.5463 60.9889 87.6174 61.2683 87.6138 61.552C87.6023 61.8301 87.5201 62.1003 87.3754 62.3359C87.2307 62.5714 87.0284 62.7641 86.7888 62.8948L78.1852 67.5072C77.9746 67.6288 77.7391 67.6978 77.4977 67.7086Z" fill="url(#paint12_linear)"/>
<path d="M66.5697 71.8039C66.3104 71.8043 66.0551 71.7375 65.8277 71.6097C65.6003 71.4818 65.4082 71.2971 65.269 71.0727C65.1299 70.8483 65.0483 70.5915 65.0319 70.3261C65.0155 70.0608 65.0647 69.7954 65.1751 69.5548L73.5101 51.2395C73.5961 51.0517 73.7173 50.8831 73.8669 50.7433C74.0164 50.6036 74.1913 50.4954 74.3816 50.4249C74.5719 50.3545 74.7739 50.3232 74.976 50.3327C75.1781 50.3423 75.3764 50.3926 75.5596 50.4808C75.7427 50.569 75.9071 50.6933 76.0434 50.8466C76.1797 50.9999 76.2852 51.1793 76.354 51.3744C76.4227 51.5695 76.4532 51.7766 76.4439 51.9839C76.4345 52.1911 76.3854 52.3944 76.2994 52.5822L67.9643 70.8976C67.8386 71.1679 67.641 71.3964 67.3943 71.5567C67.1476 71.7171 66.8618 71.8028 66.5697 71.8039Z" fill="url(#paint13_linear)"/>
<path d="M89.8721 73.2078H88.1566C87.765 73.1816 87.3978 73.0036 87.1295 72.71C86.8612 72.4163 86.7119 72.029 86.7119 71.6266C86.7119 71.2243 86.8612 70.837 87.1295 70.5433C87.3978 70.2497 87.765 70.0717 88.1566 70.0455H89.8721C89.9065 70.0455 89.9405 70.0386 89.9723 70.0251C90.0041 70.0116 90.0329 69.9918 90.0573 69.9669C90.0816 69.9419 90.1008 69.9123 90.114 69.8798C90.1272 69.8472 90.134 69.8123 90.134 69.777V63.8352C90.1344 62.8238 90.4769 61.8439 91.103 61.0624C90.4768 60.2836 90.1343 59.3057 90.134 58.2963V52.3479C90.134 52.3129 90.1272 52.2783 90.1139 52.2461C90.1007 52.2139 90.0813 52.1847 90.0569 52.1603C90.0324 52.1359 90.0036 52.1168 89.9718 52.104C89.9401 52.0913 89.9061 52.0851 89.8721 52.086H88.1566C87.765 52.0599 87.3978 51.8819 87.1295 51.5883C86.8612 51.2946 86.7119 50.9073 86.7119 50.5049C86.7119 50.1026 86.8612 49.7152 87.1295 49.4216C87.3978 49.128 87.765 48.95 88.1566 48.9238H89.8721C90.7572 48.9256 91.6056 49.2869 92.2314 49.9287C92.8573 50.5704 93.2096 51.4403 93.2113 52.3479V58.3098C93.2131 58.6255 93.3366 58.9278 93.555 59.1505C93.7734 59.3731 94.0689 59.4981 94.3768 59.4981C94.7684 59.5243 95.1357 59.7023 95.404 59.9959C95.6723 60.2895 95.8215 60.6768 95.8215 61.0792C95.8215 61.4816 95.6723 61.8689 95.404 62.1625C95.1357 62.4562 94.7684 62.6341 94.3768 62.6603C94.0689 62.6603 93.7734 62.7853 93.555 63.008C93.3366 63.2306 93.2131 63.5329 93.2113 63.8487V69.7904C93.2079 70.6968 92.8548 71.565 92.2291 72.2053C91.6034 72.8456 90.756 73.206 89.8721 73.2078Z" fill="url(#paint14_linear)"/>
<path d="M53.7359 73.2082H52.0269C51.1396 73.2082 50.2886 72.8468 49.6611 72.2034C49.0336 71.56 48.6811 70.6874 48.6811 69.7775V63.8357C48.6811 63.5206 48.559 63.2183 48.3417 62.9954C48.1243 62.7726 47.8296 62.6474 47.5222 62.6474C47.3113 62.6615 47.0997 62.6311 46.9007 62.558C46.7017 62.4849 46.5194 62.3707 46.3651 62.2225C46.2109 62.0743 46.0879 61.8953 46.0039 61.6964C45.9198 61.4975 45.8765 61.283 45.8765 61.0663C45.8765 60.8495 45.9198 60.6351 46.0039 60.4362C46.0879 60.2373 46.2109 60.0582 46.3651 59.91C46.5194 59.7618 46.7017 59.6477 46.9007 59.5746C47.0997 59.5015 47.3113 59.4711 47.5222 59.4852C47.8296 59.4852 48.1243 59.36 48.3417 59.1371C48.559 58.9143 48.6811 58.612 48.6811 58.2968V52.3484C48.6828 51.4396 49.0361 50.5687 49.6634 49.9268C50.2907 49.2848 51.1407 48.9243 52.0269 48.9243H53.7359C54.1275 48.9505 54.4947 49.1285 54.763 49.4221C55.0313 49.7157 55.1806 50.103 55.1806 50.5054C55.1806 50.9078 55.0313 51.2951 54.763 51.5887C54.4947 51.8824 54.1275 52.0604 53.7359 52.0865H52.0269C51.9928 52.0856 51.959 52.0917 51.9273 52.1045C51.8955 52.1173 51.8665 52.1364 51.8421 52.1608C51.8177 52.1852 51.7983 52.2144 51.7851 52.2466C51.7718 52.2788 51.7651 52.3134 51.7651 52.3484V58.3103C51.7651 59.3209 51.42 60.2996 50.7895 61.0764C51.4204 61.8555 51.7656 62.8364 51.7651 63.8492V69.7909C51.7651 69.8621 51.7926 69.9304 51.8417 69.9808C51.8908 70.0312 51.9575 70.0595 52.0269 70.0595H53.7359C54.1275 70.0856 54.4947 70.2636 54.763 70.5572C55.0313 70.8509 55.1806 71.2382 55.1806 71.6406C55.1806 72.0429 55.0313 72.4303 54.763 72.7239C54.4947 73.0175 54.1275 73.1955 53.7359 73.2217V73.2082Z" fill="url(#paint15_linear)"/>
<path d="M91.3653 45.3856H88.2486V43.2305H91.3653V45.3856ZM85.1254 45.3856H82.0087V43.2305H85.132L85.1254 45.3856ZM78.8921 45.3856H75.7754V43.2305H78.8921V45.3856ZM72.6587 45.3856H69.5421V43.2305H72.6915L72.6587 45.3856ZM66.4189 45.3856H63.3022V43.2305H66.4189V45.3856Z" fill="url(#paint16_linear)"/>
<path d="M15.0069 29.2453C15.1662 29.5982 15.1834 30.0012 15.0547 30.367C14.9259 30.7327 14.6617 31.0317 14.3194 31.199C13.9805 31.3662 13.5909 31.3894 13.2354 31.2637C12.8798 31.138 12.587 30.8735 12.4206 30.5276C12.2578 30.1811 12.2353 29.7826 12.358 29.4191C12.4807 29.0556 12.7385 28.7566 13.0753 28.5873H13.1147C13.4516 28.423 13.8377 28.3999 14.191 28.5227C14.5443 28.6456 14.837 28.9047 15.0069 29.2453ZM11.2355 31.2594C11.3274 31.3604 11.4026 31.476 11.4581 31.6018C11.581 31.892 11.611 32.2146 11.5439 32.5234C11.4769 32.8322 11.3162 33.1112 11.0849 33.3206C10.9415 33.4454 10.7755 33.5399 10.5964 33.5986C10.4173 33.6574 10.2286 33.6793 10.0412 33.6631C9.85375 33.6469 9.67134 33.5929 9.50437 33.5041C9.3374 33.4154 9.18916 33.2937 9.06821 33.146C8.97552 33.0471 8.9022 32.9308 8.85216 32.8036C8.72347 32.5156 8.69029 32.1923 8.75769 31.8832C8.82508 31.574 8.98931 31.296 9.22534 31.0916C9.32899 30.9995 9.44611 30.9248 9.57238 30.87C9.85499 30.7416 10.171 30.7121 10.4716 30.7861C10.7721 30.8601 11.0406 31.0335 11.2355 31.2796V31.2594ZM8.12539 34.2202C8.34044 34.373 8.51215 34.5815 8.62301 34.8245C8.72165 35.0546 8.76134 35.3067 8.73843 35.5569C8.71551 35.8072 8.6307 36.0473 8.49201 36.2545C8.27881 36.5697 7.95299 36.786 7.58524 36.8564C7.21749 36.9268 6.83747 36.8456 6.52773 36.6305C6.31216 36.483 6.14187 36.2758 6.03666 36.033C5.93677 35.8031 5.89639 35.5508 5.91932 35.3003C5.94226 35.0498 6.0278 34.8096 6.16766 34.6029C6.31325 34.3809 6.51773 34.2062 6.75696 34.0994C6.97818 34.0028 7.21956 33.9651 7.4588 33.9897C7.69803 34.0144 7.92733 34.1006 8.12539 34.2404V34.2202ZM5.90574 37.9397C6.08755 38.0069 6.25458 38.1103 6.39729 38.244C6.53999 38.3776 6.65557 38.5389 6.7373 38.7185C6.88761 39.0621 6.90165 39.4521 6.77654 39.8061C6.71479 39.9879 6.6187 40.1553 6.49376 40.2989C6.36881 40.4426 6.21748 40.5595 6.04841 40.6431C5.87933 40.7266 5.69589 40.7752 5.5085 40.7859C5.3211 40.7967 5.13348 40.7695 4.95636 40.7058C4.77391 40.6394 4.6066 40.5355 4.46473 40.4004C4.32287 40.2653 4.20943 40.1019 4.13136 39.9203C3.982 39.5792 3.96555 39.1924 4.08548 38.8393C4.15157 38.6511 4.25411 38.4786 4.38688 38.3321C4.51966 38.1856 4.67995 38.0681 4.85813 37.9867C5.18933 37.8373 5.56308 37.8205 5.90574 37.9397ZM4.66823 42.109C4.92457 42.1295 5.17087 42.2201 5.38158 42.3712C5.59228 42.5223 5.75967 42.7285 5.86641 42.9683C5.96831 43.1901 6.00911 43.4362 5.9843 43.68C5.95253 44.0642 5.77484 44.4203 5.48948 44.6715C5.20411 44.9226 4.83395 45.0488 4.45874 45.0228C4.20307 45.0059 3.95677 44.9175 3.74667 44.7672C3.53657 44.6169 3.37066 44.4104 3.26703 44.1701C3.16625 43.9455 3.12345 43.6982 3.14266 43.4517C3.16183 43.1868 3.25128 42.9323 3.40131 42.7158C3.55133 42.4992 3.75617 42.3289 3.9938 42.2231C4.19569 42.1329 4.41582 42.0938 4.63554 42.109H4.66823ZM4.54386 46.4662C4.86046 46.4047 5.18801 46.4547 5.47333 46.6083C5.75865 46.7619 5.98488 47.01 6.11522 47.3122C6.16246 47.4115 6.19343 47.5181 6.2069 47.6277C6.24479 47.8166 6.2454 48.0114 6.20866 48.2005C6.17192 48.3897 6.09861 48.5693 5.99302 48.7289C5.88743 48.8885 5.75167 49.0248 5.59386 49.1297C5.43605 49.2346 5.25936 49.306 5.07418 49.3398C4.7575 49.4026 4.42942 49.3531 4.14383 49.1993C3.85824 49.0456 3.63212 48.7968 3.50273 48.4938C3.46054 48.3926 3.42978 48.2867 3.41106 48.1783C3.351 47.8536 3.39986 47.5177 3.54965 47.2251C3.69944 46.9326 3.94135 46.7006 4.23606 46.567C4.32441 46.5245 4.41652 46.4908 4.51109 46.4662H4.54386ZM7.4313 51.3808V51.421C7.58794 51.7654 7.60717 52.159 7.48485 52.5177C7.36253 52.8764 7.10834 53.1719 6.77654 53.3412C6.43529 53.5129 6.04152 53.5386 5.68178 53.4127C5.32204 53.2868 5.02582 53.0196 4.85813 52.6698C4.70457 52.3239 4.68687 51.9307 4.80882 51.5718C4.93077 51.213 5.18297 50.9161 5.5129 50.743H5.56525C5.89309 50.5936 6.26377 50.5763 6.6035 50.6944C6.94322 50.8126 7.22711 51.0577 7.39861 51.3808H7.4313ZM9.56583 54.684C9.66201 54.7954 9.73944 54.9225 9.79498 55.0599C9.9186 55.345 9.94971 55.6633 9.8837 55.9679C9.81769 56.2725 9.6581 56.5473 9.42836 56.7518C9.28661 56.8782 9.12192 56.9746 8.94376 57.0356C8.7656 57.0966 8.57745 57.1209 8.39011 57.1072C8.20276 57.0935 8.01994 57.042 7.85204 56.9557C7.68414 56.8693 7.53451 56.7499 7.41172 56.6041C7.31515 56.4955 7.23756 56.3706 7.18249 56.2349C7.05749 55.9495 7.0263 55.6302 7.09361 55.325C7.16092 55.0199 7.32314 54.7454 7.55575 54.543C7.6461 54.4389 7.75221 54.3505 7.87002 54.2811C8.15251 54.1553 8.46714 54.1266 8.76688 54.1992C9.06662 54.2718 9.33542 54.4418 9.53314 54.684H9.56583ZM12.4599 57.2889C12.688 57.4611 12.8666 57.693 12.9772 57.9603C13.0725 58.1848 13.1115 58.43 13.0909 58.6739C13.0703 58.9177 12.9908 59.1525 12.8593 59.3568C12.6489 59.6746 12.3256 59.8954 11.9585 59.972C11.5914 60.0485 11.2097 59.9747 10.895 59.7663C10.6682 59.61 10.4889 59.3913 10.3777 59.1352C10.2798 58.9099 10.2399 58.6627 10.2617 58.417C10.2835 58.1714 10.3662 57.9356 10.5022 57.732C10.652 57.5038 10.8604 57.3226 11.1045 57.2084C11.3189 57.1088 11.5537 57.0642 11.7886 57.0782C12.0235 57.0922 12.2517 57.1646 12.4534 57.2889H12.4599Z" fill="url(#paint17_linear)"/>
<path d="M37.7601 68.6225L25.2607 66.7628L19.6559 55.1411L14.0642 66.7628L1.55176 68.6225L10.6006 77.666L8.47263 90.4223L19.6559 84.3798L30.8392 90.4223L28.7047 77.666L37.7601 68.6225ZM28.8226 87.5622L20.3893 83.0102C20.1684 82.8942 19.9238 82.8336 19.6756 82.8336C19.4274 82.8336 19.1827 82.8942 18.9618 83.0102L10.5351 87.5622L12.1393 77.9346C12.1828 77.6833 12.1661 77.425 12.0908 77.1818C12.0156 76.9386 11.8839 76.7177 11.7071 76.5381L4.878 69.7236L14.2935 68.3271C14.5419 68.2911 14.7777 68.1925 14.98 68.0402C15.1822 67.8879 15.3445 67.6866 15.4523 67.4543L19.669 58.7263L23.8726 67.4543C23.9849 67.6858 24.1501 67.8861 24.3542 68.0381C24.5583 68.1901 24.7951 68.2892 25.0446 68.3271L34.4601 69.7236L27.644 76.5381C27.4639 76.7157 27.3292 76.9359 27.2515 77.1794C27.1739 77.4229 27.1558 77.6822 27.1988 77.9346L28.8226 87.5622Z" fill="url(#paint18_linear)"/>
<path d="M39.2264 68.1387C39.1408 67.8551 38.9796 67.6016 38.7609 67.4071C38.5422 67.2125 38.2748 67.0845 37.9889 67.0376L26.2818 65.2988L21.0437 54.4156C20.9176 54.1519 20.7219 53.9297 20.4788 53.7742C20.2358 53.6188 19.9551 53.5363 19.6687 53.5361C19.3806 53.5369 19.0984 53.6194 18.8533 53.7747C18.6083 53.93 18.4101 54.1518 18.2806 54.4156L13.0425 65.2988L1.32225 67.0376C1.03631 67.0805 0.767748 67.2045 0.546794 67.3954C0.32584 67.5864 0.161252 67.8369 0.0716283 68.1186C-0.0138439 68.3988 -0.0229906 68.6976 0.0450926 68.9827C0.113176 69.2679 0.255959 69.5286 0.457995 69.7366L8.96989 78.196L6.96629 90.1601C6.91931 90.4538 6.95611 90.7552 7.07227 91.0279C7.18843 91.3007 7.37901 91.5332 7.62105 91.6975C7.8516 91.8702 8.12478 91.9731 8.40953 91.9944C8.69427 92.0158 8.97912 91.9548 9.23174 91.8184L19.7079 86.1721L30.1841 91.8184C30.403 91.9402 30.6488 92.0026 30.8979 91.9997C31.2229 92.0016 31.5399 91.8956 31.8014 91.6975C32.0388 91.5287 32.2258 91.2955 32.3414 91.024C32.457 90.7525 32.4968 90.4534 32.4562 90.1601L30.446 78.196L38.9187 69.7366C39.1075 69.5245 39.236 69.2635 39.2903 68.9817C39.3445 68.7 39.3224 68.4085 39.2264 68.1387ZM27.6436 76.5377C27.4636 76.7153 27.3288 76.9355 27.2512 77.179C27.1736 77.4225 27.1555 77.6818 27.1984 77.9342L28.8091 87.5618L20.3758 83.0098C20.1549 82.8938 19.9103 82.8332 19.6621 82.8332C19.4139 82.8332 19.1693 82.8938 18.9485 83.0098L10.5217 87.5618L12.1258 77.9342C12.1693 77.6829 12.1526 77.4246 12.0774 77.1814C12.0021 76.9382 11.8704 76.7173 11.6936 76.5377L4.87764 69.7232L14.2931 68.3267C14.5416 68.2907 14.7774 68.1921 14.9796 68.0398C15.1818 67.8875 15.3441 67.6862 15.452 67.4539L19.6687 58.7259L23.8722 67.4539C23.9845 67.6855 24.1498 67.8858 24.3538 68.0377C24.5579 68.1897 24.7948 68.2888 25.0442 68.3267L34.4597 69.7232L27.6436 76.5377Z" fill="#FF059D"/>
<defs>
<linearGradient id="paint0_linear" x1="130471" y1="5500.75" x2="141706" y2="5500.75" gradientUnits="userSpaceOnUse">
<stop stop-color="#10C2FF"/>
<stop offset="0.34" stop-color="#10C0FF"/>
<stop offset="0.52" stop-color="#11B8FF"/>
<stop offset="0.68" stop-color="#13AAFF"/>
<stop offset="0.81" stop-color="#1596FF"/>
<stop offset="0.92" stop-color="#187DFF"/>
<stop offset="1" stop-color="#1A68FF"/>
</linearGradient>
<linearGradient id="paint1_linear" x1="41710.4" y1="74.1629" x2="42752" y2="74.1629" gradientUnits="userSpaceOnUse">
<stop stop-color="#FFF904"/>
<stop offset="1" stop-color="#FF059D"/>
</linearGradient>
<linearGradient id="paint2_linear" x1="5055.77" y1="77.2164" x2="5071.75" y2="77.2164" gradientUnits="userSpaceOnUse">
<stop stop-color="#E3F24C"/>
<stop offset="0.2" stop-color="#CAED62"/>
<stop offset="1" stop-color="#64D8BC"/>
</linearGradient>
<linearGradient id="paint3_linear" x1="5024.17" y1="77.2161" x2="5040.15" y2="77.2161" gradientUnits="userSpaceOnUse">
<stop stop-color="#E3F24C"/>
<stop offset="0.2" stop-color="#CAED62"/>
<stop offset="1" stop-color="#64D8BC"/>
</linearGradient>
<linearGradient id="paint4_linear" x1="4992.64" y1="77.2161" x2="5008.62" y2="77.2161" gradientUnits="userSpaceOnUse">
<stop stop-color="#E3F24C"/>
<stop offset="0.2" stop-color="#CAED62"/>
<stop offset="1" stop-color="#64D8BC"/>
</linearGradient>
<linearGradient id="paint5_linear" x1="130471" y1="368.483" x2="141705" y2="368.483" gradientUnits="userSpaceOnUse">
<stop stop-color="#10C2FF"/>
<stop offset="0.34" stop-color="#10C0FF"/>
<stop offset="0.52" stop-color="#11B8FF"/>
<stop offset="0.68" stop-color="#13AAFF"/>
<stop offset="0.81" stop-color="#1596FF"/>
<stop offset="0.92" stop-color="#187DFF"/>
<stop offset="1" stop-color="#1A68FF"/>
</linearGradient>
<linearGradient id="paint6_linear" x1="49911.5" y1="180.598" x2="51533.1" y2="180.598" gradientUnits="userSpaceOnUse">
<stop stop-color="#E3F24C"/>
<stop offset="0.2" stop-color="#CAED62"/>
<stop offset="1" stop-color="#64D8BC"/>
</linearGradient>
<linearGradient id="paint7_linear" x1="43361.7" y1="277.517" x2="44570.7" y2="277.517" gradientUnits="userSpaceOnUse">
<stop stop-color="#FFF904"/>
<stop offset="1" stop-color="#FF059D"/>
</linearGradient>
<linearGradient id="paint8_linear" x1="33203.5" y1="228.878" x2="33904" y2="228.878" gradientUnits="userSpaceOnUse">
<stop stop-color="#E3F24C"/>
<stop offset="0.2" stop-color="#CAED62"/>
<stop offset="1" stop-color="#64D8BC"/>
</linearGradient>
<linearGradient id="paint9_linear" x1="18611" y1="1197.32" x2="18833.9" y2="1197.32" gradientUnits="userSpaceOnUse">
<stop stop-color="#E3F24C"/>
<stop offset="0.2" stop-color="#CAED62"/>
<stop offset="1" stop-color="#64D8BC"/>
</linearGradient>
<linearGradient id="paint10_linear" x1="44332.1" y1="676.074" x2="45513.1" y2="676.074" gradientUnits="userSpaceOnUse">
<stop stop-color="#E3F24C"/>
<stop offset="0.2" stop-color="#CAED62"/>
<stop offset="1" stop-color="#64D8BC"/>
</linearGradient>
<linearGradient id="paint11_linear" x1="18480" y1="1319.15" x2="18688.2" y2="1319.15" gradientUnits="userSpaceOnUse">
<stop stop-color="#E3F24C"/>
<stop offset="0.2" stop-color="#CAED62"/>
<stop offset="1" stop-color="#64D8BC"/>
</linearGradient>
<linearGradient id="paint12_linear" x1="18834.1" y1="1322.6" x2="19041.6" y2="1322.6" gradientUnits="userSpaceOnUse">
<stop stop-color="#E3F24C"/>
<stop offset="0.2" stop-color="#CAED62"/>
<stop offset="1" stop-color="#64D8BC"/>
</linearGradient>
<linearGradient id="paint13_linear" x1="18243.9" y1="2178.29" x2="18442.8" y2="2178.29" gradientUnits="userSpaceOnUse">
<stop stop-color="#E3F24C"/>
<stop offset="0.2" stop-color="#CAED62"/>
<stop offset="1" stop-color="#64D8BC"/>
</linearGradient>
<linearGradient id="paint14_linear" x1="14892.3" y1="2455.46" x2="15021.6" y2="2455.46" gradientUnits="userSpaceOnUse">
<stop stop-color="#10C2FF"/>
<stop offset="0.34" stop-color="#10C0FF"/>
<stop offset="0.52" stop-color="#11B8FF"/>
<stop offset="0.68" stop-color="#13AAFF"/>
<stop offset="0.81" stop-color="#1596FF"/>
<stop offset="0.92" stop-color="#187DFF"/>
<stop offset="1" stop-color="#1A68FF"/>
</linearGradient>
<linearGradient id="paint15_linear" x1="14590.1" y1="2456.79" x2="14722.2" y2="2456.79" gradientUnits="userSpaceOnUse">
<stop stop-color="#10C2FF"/>
<stop offset="0.34" stop-color="#10C0FF"/>
<stop offset="0.52" stop-color="#11B8FF"/>
<stop offset="0.68" stop-color="#13AAFF"/>
<stop offset="0.81" stop-color="#1596FF"/>
<stop offset="0.92" stop-color="#187DFF"/>
<stop offset="1" stop-color="#1A68FF"/>
</linearGradient>
<linearGradient id="paint16_linear" x1="44674" y1="203.034" x2="45876.8" y2="203.034" gradientUnits="userSpaceOnUse">
<stop stop-color="#FFF904"/>
<stop offset="1" stop-color="#FF059D"/>
</linearGradient>
<linearGradient id="paint17_linear" x1="17978.7" y1="2362.69" x2="18199.3" y2="2362.69" gradientUnits="userSpaceOnUse">
<stop stop-color="#E3F24C"/>
<stop offset="0.2" stop-color="#CAED62"/>
<stop offset="1" stop-color="#64D8BC"/>
</linearGradient>
<linearGradient id="paint18_linear" x1="54146.4" y1="4167.87" x2="56148" y2="4167.87" gradientUnits="userSpaceOnUse">
<stop stop-color="#FFF904"/>
<stop offset="1" stop-color="#FF059D"/>
</linearGradient>
</defs>
</svg>
