<svg width="109" height="100" viewBox="0 0 109 100" fill="none" xmlns="http://www.w3.org/2000/svg">
<path d="M67.466 100H40.8952C40.5828 99.9992 40.2783 99.9025 40.0226 99.7231C39.767 99.5437 39.5724 99.2903 39.4653 98.9969C39.3581 98.7035 39.3435 98.3844 39.4233 98.0824C39.5032 97.7805 39.6737 97.5102 39.9118 97.3082L63.4839 77.4602C63.6917 77.2864 63.942 77.171 64.2091 77.1259C64.4762 77.0807 64.7505 77.1074 65.0039 77.2032C65.2573 77.299 65.4807 77.4605 65.6511 77.6711C65.8215 77.8818 65.9328 78.1339 65.9736 78.4017L69.0003 98.2427C69.0346 98.4601 69.0213 98.6824 68.9614 98.8941C68.9014 99.1059 68.7962 99.3021 68.6529 99.4693C68.5097 99.6364 68.3319 99.7704 68.1318 99.862C67.9316 99.9537 67.714 100.001 67.4939 100H67.466ZM45.0795 96.9455H65.7156L63.3723 81.547L45.0795 96.9455Z" fill="url(#paint0_linear)"/>
<path d="M108.327 64.4327H0V9.06618C0 6.66168 0.955188 4.35566 2.65543 2.65542C4.35567 0.955185 6.66168 0 9.06618 0H99.2747C101.679 0 103.985 0.955185 105.685 2.65542C107.386 4.35566 108.341 6.66168 108.341 9.06618L108.327 64.4327ZM3.01975 61.385H105.279V9.08013C105.284 8.28801 105.132 7.50277 104.833 6.76944C104.533 6.03612 104.092 5.36914 103.534 4.80675C102.976 4.24436 102.313 3.79763 101.582 3.49217C100.851 3.18671 100.067 3.02853 99.2747 3.02671H9.07316C7.47751 3.02856 5.94773 3.66324 4.81943 4.79154C3.69113 5.91984 3.05646 7.44961 3.05461 9.04526L3.01975 61.385Z" fill="url(#paint1_linear)"/>
<path d="M69.2027 100H39.1309L42.2204 76.2886H66.1132L69.2027 100ZM42.6039 96.9455H65.7297L63.4352 79.3223H44.8984L42.6039 96.9455Z" fill="url(#paint2_linear)"/>
<path d="M73.8195 99.9999H34.5141C34.1091 99.9999 33.7206 99.839 33.4342 99.5526C33.1478 99.2662 32.9868 98.8777 32.9868 98.4726C32.9868 98.0676 33.1478 97.6791 33.4342 97.3926C33.7206 97.1062 34.1091 96.9453 34.5141 96.9453H73.8195C74.2246 96.9453 74.6131 97.1062 74.8995 97.3926C75.1859 97.6791 75.3468 98.0676 75.3468 98.4726C75.3468 98.8777 75.1859 99.2662 74.8995 99.5526C74.6131 99.839 74.2246 99.9999 73.8195 99.9999Z" fill="url(#paint3_linear)"/>
<path d="M54.1672 73.0526C55.8619 73.0526 57.2357 71.6788 57.2357 69.9841C57.2357 68.2894 55.8619 66.9155 54.1672 66.9155C52.4725 66.9155 51.0986 68.2894 51.0986 69.9841C51.0986 71.6788 52.4725 73.0526 54.1672 73.0526Z" fill="url(#paint4_linear)"/>
<path d="M87.3915 51.88C87.0745 51.8801 86.7636 51.7938 86.492 51.6304C86.2205 51.4669 85.9986 51.2326 85.8503 50.9525L80.815 41.3842C80.7064 41.1677 80.6499 40.9289 80.6499 40.6868C80.6499 40.4446 80.7064 40.2058 80.815 39.9894L84.03 33.8941C84.2066 33.5699 84.4946 33.3207 84.8408 33.1925C85.187 33.0643 85.5679 33.0658 85.913 33.1967C86.0088 33.2338 86.1116 33.2493 86.2141 33.2421C86.3165 33.2349 86.4162 33.2051 86.5058 33.1549C86.5963 33.1068 86.675 33.0394 86.7365 32.9574C86.798 32.8755 86.8406 32.781 86.8614 32.6806C86.9067 32.4651 86.9981 32.2618 87.1293 32.0849C87.2605 31.9079 87.4285 31.7614 87.6216 31.6555C87.8064 31.5507 88.0112 31.4859 88.2227 31.4655C88.4342 31.4451 88.6476 31.4694 88.8491 31.5369L89.3721 31.7043C89.7474 31.8286 90.0599 32.0936 90.2439 32.4435L96.9249 45.1292C97.0949 45.4307 97.1713 45.776 97.1444 46.121C97.1175 46.466 96.9885 46.7953 96.7738 47.0668C96.5592 47.3383 96.2686 47.5397 95.939 47.6455C95.6095 47.7513 95.2559 47.7566 94.9234 47.6608L90.5507 46.4752L89.0164 50.7224C88.9037 51.0413 88.7006 51.3206 88.4319 51.5262C88.1632 51.7318 87.8405 51.8547 87.5031 51.88H87.3915ZM83.8906 40.6868L87.1614 46.9006L88.0889 44.3202C88.2339 43.9068 88.531 43.5642 88.9196 43.3621C89.3083 43.16 89.7594 43.1136 90.1811 43.2323L92.7963 43.9297L88.3748 35.5609C88.2329 35.6644 88.0837 35.7577 87.9285 35.8399C87.3986 36.126 86.808 36.2815 86.2059 36.2932L83.8906 40.6868ZM89.393 46.1753H89.4488H89.393ZM90.9831 45.2757L90.9343 45.4012C90.9539 45.3583 90.9702 45.314 90.9831 45.2687V45.2757Z" fill="white"/>
<path d="M76.9372 51.8798H76.8117C76.4816 51.8556 76.1652 51.7386 75.8987 51.5424C75.6322 51.3463 75.4265 51.0789 75.3053 50.771L73.778 46.475L69.4123 47.6606C69.0793 47.7566 68.7253 47.7516 68.3952 47.6463C68.0651 47.541 67.7736 47.34 67.5578 47.0689C67.3419 46.7978 67.2114 46.4687 67.1828 46.1234C67.1541 45.7781 67.2286 45.432 67.3968 45.129L74.1685 32.269C74.3004 32.0248 74.4956 31.8208 74.7338 31.6784C74.9719 31.536 75.244 31.4606 75.5215 31.46H75.9539C76.2987 31.4578 76.6339 31.5735 76.9041 31.7878C77.1742 32.0021 77.3631 32.3023 77.4393 32.6386C77.4609 32.7396 77.5046 32.8345 77.5673 32.9165C77.63 32.9985 77.7102 33.0655 77.802 33.1128C77.8925 33.1641 77.9933 33.1945 78.0971 33.2017C78.2009 33.2089 78.305 33.1929 78.4017 33.1547L80.4939 32.1434C81.0053 31.8974 81.5654 31.7697 82.1328 31.7697C82.7002 31.7697 83.2604 31.8974 83.7717 32.1434L85.822 33.1407C86.0299 33.2178 86.2193 33.3378 86.3779 33.4928C86.5365 33.6477 86.6607 33.8343 86.7426 34.0404C86.8256 34.2417 86.8648 34.4584 86.8576 34.676C86.8504 34.8937 86.7969 35.1073 86.7008 35.3027L78.4854 50.9523C78.3348 51.2319 78.1114 51.4657 77.8389 51.629C77.5664 51.7922 77.2548 51.8789 76.9372 51.8798ZM74.6009 43.1554C74.9543 43.1568 75.299 43.2647 75.5901 43.4649C75.8812 43.6652 76.1052 43.9487 76.2328 44.2782L77.1604 46.9004L83.2835 35.2817L82.4606 34.8842C82.365 34.8374 82.2601 34.8131 82.1537 34.8131C82.0473 34.8131 81.9424 34.8374 81.8469 34.8842L79.8035 35.8745L79.4757 36.007C78.9732 36.1955 78.4359 36.2737 77.9005 36.2364C77.365 36.1991 76.8439 36.0472 76.3723 35.7908C76.2161 35.7102 76.0668 35.6169 75.9259 35.5119L71.4975 43.8807L74.1476 43.1833C74.2967 43.153 74.4493 43.1436 74.6009 43.1554ZM74.9705 46.1612H74.9078H74.9705Z" fill="white"/>
<path d="M78.1714 36.2511C77.5458 36.2499 76.9301 36.0941 76.3791 35.7978C75.9055 35.5442 75.4917 35.192 75.1656 34.7649C74.8396 34.3378 74.6089 33.8458 74.4891 33.3221L74.3566 32.7572C74.2836 32.3705 74.3626 31.9706 74.5771 31.6408C74.7917 31.3109 75.1253 31.0766 75.5084 30.9867C75.8915 30.8968 76.2944 30.9582 76.6334 31.1581C76.9723 31.358 77.221 31.681 77.3276 32.0598L77.4601 32.6316C77.4816 32.7326 77.5254 32.8275 77.5881 32.9095C77.6508 32.9915 77.731 33.0586 77.8227 33.1059C77.9133 33.1571 78.0141 33.1875 78.1179 33.1947C78.2217 33.202 78.3257 33.1859 78.4225 33.1477L80.5147 32.1365C81.026 31.8905 81.5861 31.7627 82.1536 31.7627C82.721 31.7627 83.2811 31.8905 83.7925 32.1365L85.8428 33.1338C86.2266 33.274 86.5399 33.5597 86.7147 33.929C86.8896 34.2983 86.9121 34.7216 86.7773 35.1074C86.7112 35.2962 86.608 35.4698 86.4737 35.6181C86.3394 35.7664 86.1768 35.8863 85.9955 35.9708C85.8142 36.0553 85.6178 36.1026 85.4179 36.11C85.218 36.1175 85.0187 36.0848 84.8316 36.014L84.4899 35.8745L82.4535 34.8842C82.3579 34.8374 82.253 34.8131 82.1466 34.8131C82.0402 34.8131 81.9353 34.8374 81.8398 34.8842L79.7964 35.8745L79.4686 36.0071C79.0545 36.1662 78.615 36.2489 78.1714 36.2511Z" fill="white"/>
<path d="M87.3909 51.8797C87.0739 51.8798 86.763 51.7935 86.4914 51.63C86.2199 51.4666 85.998 51.2323 85.8497 50.9522L80.4448 40.6865L84.6292 32.6943L85.8845 33.1615C85.9803 33.1986 86.0831 33.2141 86.1856 33.2069C86.2881 33.1997 86.3877 33.1699 86.4773 33.1197C86.5678 33.0716 86.6466 33.0042 86.708 32.9222C86.7695 32.8403 86.8122 32.7458 86.833 32.6454L87.2096 31.0205L89.9085 31.9062L96.8825 45.1568C97.0386 45.4541 97.1055 45.7901 97.0753 46.1245C97.045 46.459 96.9188 46.7775 96.7118 47.0419C96.5048 47.3064 96.2259 47.5054 95.9085 47.6151C95.5912 47.7248 95.2489 47.7406 94.9228 47.6604L90.5501 46.4749L89.0158 50.722C88.9031 51.041 88.7 51.3203 88.4313 51.5259C88.1626 51.7314 87.8399 51.8544 87.5025 51.8797H87.3909ZM83.89 40.6865L87.1608 46.9003L88.0883 44.3199C88.2333 43.9065 88.5304 43.5639 88.919 43.3618C89.3077 43.1597 89.7588 43.1133 90.1805 43.232L92.7957 43.9294L88.3742 35.5606C88.2323 35.6641 88.0832 35.7573 87.9279 35.8395C87.398 36.1257 86.8074 36.2811 86.2053 36.2928L83.89 40.6865ZM89.3924 46.175H89.4482H89.3924ZM90.9825 45.2753L90.9337 45.4009C90.9533 45.358 90.9696 45.3137 90.9825 45.2684V45.2753Z" fill="url(#paint5_linear)"/>
<path d="M76.9372 51.8798H76.8117C76.4816 51.8555 76.1652 51.7386 75.8987 51.5424C75.6322 51.3462 75.4265 51.0788 75.3053 50.7709L73.778 46.475L69.4123 47.6605C69.0793 47.7565 68.7253 47.7516 68.3952 47.6463C68.0651 47.5409 67.7736 47.34 67.5578 47.0689C67.3419 46.7978 67.2114 46.4687 67.1828 46.1234C67.1541 45.778 67.2286 45.432 67.3968 45.129L74.6009 31.46H77.1604L77.4324 32.6386C77.4539 32.7395 77.4976 32.8344 77.5603 32.9164C77.6231 32.9985 77.7032 33.0655 77.795 33.1128C77.8855 33.1641 77.9863 33.1944 78.0901 33.2017C78.1939 33.2089 78.298 33.1928 78.3948 33.1546L80.487 32.1434C80.9983 31.8974 81.5584 31.7696 82.1258 31.7696C82.6933 31.7696 83.2534 31.8974 83.7647 32.1434L85.8151 33.1407L87.44 33.7474L86.6938 35.3026L78.4854 50.9523C78.3348 51.2319 78.1114 51.4657 77.8389 51.629C77.5664 51.7922 77.2548 51.8789 76.9372 51.8798ZM74.6009 43.1553C74.9543 43.1567 75.299 43.2646 75.5901 43.4649C75.8812 43.6652 76.1052 43.9486 76.2328 44.2781L77.1604 46.9004L83.2835 35.2817L82.4606 34.8842C82.365 34.8374 82.2601 34.8131 82.1537 34.8131C82.0473 34.8131 81.9424 34.8374 81.8469 34.8842L79.8035 35.8745L79.4757 36.007C78.9732 36.1955 78.4359 36.2737 77.9005 36.2364C77.365 36.1991 76.8439 36.0471 76.3723 35.7908C76.2161 35.7102 76.0668 35.6169 75.9259 35.5118L71.4975 43.8806L74.1476 43.1832C74.2967 43.1529 74.4493 43.1436 74.6009 43.1553ZM74.9705 46.1611H74.9078H74.9705Z" fill="url(#paint6_linear)"/>
<path d="M78.1717 36.2511C77.5461 36.2498 76.9304 36.0941 76.3794 35.7978C75.9057 35.5442 75.492 35.192 75.1659 34.7649C74.8399 34.3378 74.6092 33.8458 74.4894 33.322L74.3569 32.7572L77.3279 32.0598L77.4604 32.6316C77.4819 32.7326 77.5257 32.8275 77.5884 32.9095C77.6511 32.9915 77.7312 33.0586 77.823 33.1059C77.9135 33.1571 78.0144 33.1875 78.1182 33.1947C78.222 33.202 78.326 33.1859 78.4228 33.1477L80.515 32.1365C81.0263 31.8904 81.5864 31.7627 82.1538 31.7627C82.7213 31.7627 83.2814 31.8904 83.7928 32.1365L85.8431 33.1337L84.8319 36.014L84.4902 35.8745L82.4538 34.8842C82.3582 34.8374 82.2533 34.8131 82.1469 34.8131C82.0405 34.8131 81.9356 34.8374 81.84 34.8842L79.7967 35.8745L79.4689 36.007C79.0548 36.1662 78.6153 36.2489 78.1717 36.2511Z" fill="url(#paint7_linear)"/>
<path d="M78.1716 36.2509C77.546 36.2496 76.9303 36.0939 76.3793 35.7976C75.9056 35.544 75.4918 35.1918 75.1658 34.7647C74.8398 34.3376 74.6091 33.8456 74.4893 33.3219L73.9802 31.1041C73.9557 30.9979 73.9079 30.8984 73.8404 30.8128C73.7729 30.7272 73.6873 30.6576 73.5897 30.609L71.5812 29.6256C71.068 29.382 70.6168 29.025 70.2617 28.5815C69.9066 28.1381 69.6569 27.6198 69.5313 27.0657C69.4057 26.5117 69.4076 25.9363 69.5368 25.3831C69.666 24.8299 69.9191 24.3132 70.277 23.8721L71.6718 22.1007C71.7394 22.0181 71.7872 21.921 71.8114 21.8171C71.8356 21.7131 71.8355 21.6049 71.8113 21.501L71.3092 19.2623C71.1848 18.7106 71.186 18.138 71.3128 17.5869C71.4395 17.0357 71.6885 16.5201 72.0414 16.0782C72.3942 15.6363 72.842 15.2793 73.3514 15.0337C73.8608 14.7882 74.419 14.6603 74.9845 14.6595H77.265C77.3709 14.66 77.4756 14.6365 77.571 14.5906C77.6665 14.5446 77.7502 14.4776 77.8159 14.3945L79.2526 12.6091C79.6053 12.166 80.0534 11.8081 80.5635 11.5622C81.0737 11.3162 81.6327 11.1885 82.1991 11.1885C82.7654 11.1885 83.3245 11.3162 83.8346 11.5622C84.3447 11.8081 84.7929 12.166 85.1456 12.6091L86.5404 14.3875C86.6061 14.4728 86.6906 14.5418 86.7874 14.589C86.8842 14.6362 86.9906 14.6603 87.0983 14.6595H89.3718C89.9388 14.6598 90.4985 14.7879 91.0092 15.0343C91.5198 15.2806 91.9684 15.6389 92.3215 16.0825C92.6747 16.5262 92.9233 17.0436 93.049 17.5966C93.1746 18.1495 93.1739 18.7236 93.0471 19.2762L92.552 21.487C92.5245 21.5925 92.5222 21.703 92.5452 21.8096C92.5682 21.9162 92.6159 22.0159 92.6845 22.1007L94.0793 23.8791C94.4317 24.322 94.68 24.8386 94.8057 25.3906C94.9314 25.9425 94.9313 26.5157 94.8054 27.0676C94.6795 27.6195 94.431 28.136 94.0783 28.5788C93.7257 29.0216 93.2779 29.3794 92.7681 29.6256L90.7178 30.616C90.6186 30.6634 90.5314 30.7325 90.4626 30.8182C90.3938 30.9039 90.3451 31.004 90.3203 31.1111L89.8112 33.3288C89.6899 33.8499 89.4592 34.3392 89.1344 34.7644C88.8096 35.1895 88.398 35.5406 87.9271 35.7946C87.4562 36.0485 86.9367 36.1993 86.403 36.2372C85.8694 36.275 85.3337 36.1988 84.8317 36.0138L84.49 35.8743L82.4536 34.884C82.3581 34.8372 82.2532 34.8129 82.1468 34.8129C82.0404 34.8129 81.9354 34.8372 81.8399 34.884L79.7965 35.8743L79.4688 36.0068C79.0547 36.166 78.6152 36.2487 78.1716 36.2509ZM74.9566 17.7071C74.8468 17.703 74.7375 17.7249 74.6378 17.771C74.538 17.8172 74.4506 17.8862 74.3826 17.9726C74.3146 18.0589 74.268 18.1601 74.2466 18.2679C74.2251 18.3757 74.2295 18.487 74.2592 18.5928L74.7613 20.8105C74.8905 21.3601 74.8948 21.9317 74.7742 22.4832C74.6535 23.0347 74.4108 23.5522 74.0639 23.9976L72.6691 25.776C72.5963 25.8589 72.5443 25.9579 72.5172 26.0648C72.49 26.1717 72.4887 26.2835 72.5132 26.3911C72.5377 26.4986 72.5874 26.5988 72.6581 26.6835C72.7289 26.7681 72.8187 26.8347 72.9202 26.8779L74.9635 27.8612C75.4733 28.1105 75.9212 28.4701 76.2746 28.914C76.6281 29.358 76.8782 29.875 77.007 30.4277L77.5091 32.6384C77.5306 32.7394 77.5743 32.8343 77.6371 32.9163C77.6998 32.9983 77.7799 33.0654 77.8717 33.1126C77.9622 33.1639 78.0631 33.1943 78.1668 33.2015C78.2706 33.2087 78.3747 33.1927 78.4715 33.1545L80.5637 32.1433C81.075 31.8972 81.6351 31.7695 82.2025 31.7695C82.77 31.7695 83.3301 31.8972 83.8415 32.1433L85.8918 33.1405C85.9946 33.188 86.1064 33.2126 86.2196 33.2126C86.3328 33.2126 86.4446 33.188 86.5474 33.1405C86.6378 33.0925 86.7166 33.0251 86.7781 32.9431C86.8395 32.8611 86.8822 32.7666 86.903 32.6663L87.4121 30.4555C87.5385 29.9019 87.7878 29.3838 88.1415 28.9396C88.4952 28.4953 88.9443 28.1363 89.4555 27.8891L91.5059 26.9058C91.6062 26.8623 91.6949 26.7958 91.7647 26.7118C91.8346 26.6277 91.8838 26.5284 91.9082 26.4218C91.9326 26.3152 91.9317 26.2044 91.9054 26.0983C91.8791 25.9922 91.8282 25.8937 91.7569 25.8109L90.3621 24.0255C90.0145 23.5777 89.7715 23.0579 89.6508 22.504C89.5302 21.9501 89.5349 21.3763 89.6647 20.8245L90.1669 18.6207C90.1931 18.5162 90.1948 18.407 90.1718 18.3018C90.1489 18.1965 90.1018 18.098 90.0344 18.014C89.968 17.9254 89.8815 17.854 89.7821 17.8055C89.6826 17.757 89.5731 17.7328 89.4625 17.735H87.189C86.6017 17.7451 86.0202 17.6187 85.4901 17.3657C84.96 17.1128 84.4959 16.7402 84.1343 16.2774L82.7396 14.4991C82.6747 14.4111 82.5901 14.3396 82.4926 14.2904C82.3951 14.2411 82.2874 14.2154 82.1782 14.2154C82.0689 14.2154 81.9611 14.2411 81.8636 14.2904C81.7661 14.3396 81.6816 14.4111 81.6167 14.4991L80.222 16.2774C79.8657 16.7138 79.4168 17.0654 78.9077 17.3067C78.3987 17.548 77.8422 17.6728 77.2789 17.6722L74.9566 17.7071Z" fill="#E3F24C"/>
<path d="M22.7633 32.4637C21.0425 32.4609 19.3612 31.9481 17.9317 30.9901C16.5023 30.0321 15.3889 28.6718 14.7323 27.0812C14.0757 25.4906 13.9053 23.7411 14.2427 22.0537C14.5801 20.3663 15.4101 18.8167 16.6279 17.6009C17.8457 16.3851 19.3965 15.5576 21.0844 15.2229C22.7723 14.8882 24.5216 15.0613 26.1112 15.7205C27.7007 16.3797 29.0592 17.4952 30.015 18.9262C30.9707 20.3572 31.4808 22.0394 31.4808 23.7602C31.4771 26.0698 30.5571 28.2835 28.9226 29.9153C27.2882 31.5472 25.0729 32.4637 22.7633 32.4637ZM22.7633 18.1043C21.6444 18.1029 20.5502 18.4334 19.6192 19.0541C18.6881 19.6747 17.9621 20.5576 17.533 21.5909C17.1038 22.6243 16.9908 23.7617 17.2083 24.8593C17.4257 25.9569 17.9639 26.9653 18.7546 27.757C19.5453 28.5487 20.553 29.0881 21.6504 29.3069C22.7477 29.5257 23.8853 29.4141 24.9192 28.9862C25.953 28.5583 26.8368 27.8334 27.4586 26.9031C28.0804 25.9729 28.4122 24.8791 28.4122 23.7602C28.4104 22.2619 27.8149 20.8254 26.7561 19.7653C25.6974 18.7052 24.2616 18.108 22.7633 18.1043Z" fill="url(#paint8_linear)"/>
<path d="M59.8091 21.3476H37.7783C37.3732 21.3476 36.9847 21.1867 36.6983 20.9002C36.4119 20.6138 36.251 20.2253 36.251 19.8203C36.251 19.4152 36.4119 19.0267 36.6983 18.7403C36.9847 18.4539 37.3732 18.293 37.7783 18.293H59.8091C60.2141 18.293 60.6026 18.4539 60.8891 18.7403C61.1755 19.0267 61.3364 19.4152 61.3364 19.8203C61.3364 20.2253 61.1755 20.6138 60.8891 20.9002C60.6026 21.1867 60.2141 21.3476 59.8091 21.3476Z" fill="url(#paint9_linear)"/>
<path d="M59.8091 30.602H37.7783C37.3732 30.602 36.9847 30.4411 36.6983 30.1546C36.4119 29.8682 36.251 29.4797 36.251 29.0747C36.251 28.6696 36.4119 28.2811 36.6983 27.9947C36.9847 27.7083 37.3732 27.5474 37.7783 27.5474H59.8091C60.2141 27.5474 60.6026 27.7083 60.8891 27.9947C61.1755 28.2811 61.3364 28.6696 61.3364 29.0747C61.3364 29.4797 61.1755 29.8682 60.8891 30.1546C60.6026 30.4411 60.2141 30.602 59.8091 30.602Z" fill="url(#paint10_linear)"/>
<path d="M59.8091 39.8564H16.417C16.0119 39.8564 15.6234 39.6955 15.337 39.409C15.0505 39.1226 14.8896 38.7341 14.8896 38.3291C14.8896 37.924 15.0505 37.5355 15.337 37.2491C15.6234 36.9627 16.0119 36.8018 16.417 36.8018H59.8091C60.2141 36.8018 60.6026 36.9627 60.8891 37.2491C61.1755 37.5355 61.3364 37.924 61.3364 38.3291C61.3364 38.7341 61.1755 39.1226 60.8891 39.409C60.6026 39.6955 60.2141 39.8564 59.8091 39.8564Z" fill="url(#paint11_linear)"/>
<path d="M59.809 48.595H16.4168C16.0305 48.5688 15.6685 48.3969 15.4041 48.114C15.1397 47.8311 14.9927 47.4584 14.9927 47.0712C14.9927 46.684 15.1397 46.3112 15.4041 46.0283C15.6685 45.7454 16.0305 45.5735 16.4168 45.5474H59.809C60.1953 45.5735 60.5573 45.7454 60.8217 46.0283C61.086 46.3112 61.2331 46.684 61.2331 47.0712C61.2331 47.4584 61.086 47.8311 60.8217 48.114C60.5573 48.3969 60.1953 48.5688 59.809 48.595Z" fill="url(#paint12_linear)"/>
<path d="M99.2751 79.3223H9.07351C6.66901 79.3223 4.36299 78.3672 2.66275 76.6669C0.962512 74.9667 0.00732422 72.6607 0.00732422 70.2562V61.3853H108.327V70.2562C108.327 72.6583 107.374 74.9622 105.677 76.662C103.98 78.3618 101.677 79.3187 99.2751 79.3223ZM3.03405 64.4329V70.2562C3.0359 71.8518 3.67058 73.3816 4.79888 74.5099C5.92717 75.6382 7.45695 76.2729 9.05261 76.2747H99.2751C100.869 76.271 102.396 75.6353 103.522 74.507C104.647 73.3787 105.28 71.85 105.28 70.2562V64.4329H3.03405Z" fill="url(#paint13_linear)"/>
<defs>
<linearGradient id="paint0_linear" x1="21259.9" y1="3735.37" x2="21852.2" y2="2719.48" gradientUnits="userSpaceOnUse">
<stop stop-color="#FF059D"/>
<stop offset="0.45" stop-color="#FF9841"/>
<stop offset="1" stop-color="#FFF904"/>
</linearGradient>
<linearGradient id="paint1_linear" x1="73204.9" y1="7873.67" x2="78096.7" y2="-3019.81" gradientUnits="userSpaceOnUse">
<stop stop-color="#1A58FF"/>
<stop offset="0.05" stop-color="#1963FF"/>
<stop offset="0.23" stop-color="#1685FF"/>
<stop offset="0.42" stop-color="#13A0FF"/>
<stop offset="0.6" stop-color="#11B3FF"/>
<stop offset="0.8" stop-color="#10BEFF"/>
<stop offset="1" stop-color="#10C2FF"/>
</linearGradient>
<linearGradient id="paint2_linear" x1="21373" y1="3782.4" x2="22032.1" y2="2675.48" gradientUnits="userSpaceOnUse">
<stop stop-color="#FF059D"/>
<stop offset="0.45" stop-color="#FF9841"/>
<stop offset="1" stop-color="#FFF904"/>
</linearGradient>
<linearGradient id="paint3_linear" x1="30213.7" y1="598.39" x2="30221.6" y2="452.085" gradientUnits="userSpaceOnUse">
<stop stop-color="#FF059D"/>
<stop offset="0.45" stop-color="#FF9841"/>
<stop offset="1" stop-color="#FFF904"/>
</linearGradient>
<linearGradient id="paint4_linear" x1="437.184" y1="219.73" x2="156.165" y2="477.795" gradientUnits="userSpaceOnUse">
<stop stop-color="#E3F24C"/>
<stop offset="0.2" stop-color="#CAED62"/>
<stop offset="1" stop-color="#64D8BC"/>
</linearGradient>
<linearGradient id="paint5_linear" x1="-12737.4" y1="-20206.5" x2="-13297.8" y2="-19796.1" gradientUnits="userSpaceOnUse">
<stop stop-color="#E3F24C"/>
<stop offset="0.2" stop-color="#CAED62"/>
<stop offset="1" stop-color="#64D8BC"/>
</linearGradient>
<linearGradient id="paint6_linear" x1="-15958.3" y1="-19947.7" x2="-16530.7" y2="-19426.3" gradientUnits="userSpaceOnUse">
<stop stop-color="#E3F24C"/>
<stop offset="0.2" stop-color="#CAED62"/>
<stop offset="1" stop-color="#64D8BC"/>
</linearGradient>
<linearGradient id="paint7_linear" x1="-8554.14" y1="-3793.88" x2="-8644.94" y2="-3580.52" gradientUnits="userSpaceOnUse">
<stop stop-color="#E3F24C"/>
<stop offset="0.2" stop-color="#CAED62"/>
<stop offset="1" stop-color="#64D8BC"/>
</linearGradient>
<linearGradient id="paint8_linear" x1="11993.6" y1="594.538" x2="11673.9" y2="888.195" gradientUnits="userSpaceOnUse">
<stop stop-color="#E3F24C"/>
<stop offset="0.2" stop-color="#CAED62"/>
<stop offset="1" stop-color="#64D8BC"/>
</linearGradient>
<linearGradient id="paint9_linear" x1="17828.6" y1="157.033" x2="17836.8" y2="68.1688" gradientUnits="userSpaceOnUse">
<stop stop-color="#1A58FF"/>
<stop offset="0.05" stop-color="#1963FF"/>
<stop offset="0.23" stop-color="#1685FF"/>
<stop offset="0.42" stop-color="#13A0FF"/>
<stop offset="0.6" stop-color="#11B3FF"/>
<stop offset="0.8" stop-color="#10BEFF"/>
<stop offset="1" stop-color="#10C2FF"/>
</linearGradient>
<linearGradient id="paint10_linear" x1="17828.6" y1="206.822" x2="17836.8" y2="117.958" gradientUnits="userSpaceOnUse">
<stop stop-color="#1A58FF"/>
<stop offset="0.05" stop-color="#1963FF"/>
<stop offset="0.23" stop-color="#1685FF"/>
<stop offset="0.42" stop-color="#13A0FF"/>
<stop offset="0.6" stop-color="#11B3FF"/>
<stop offset="0.8" stop-color="#10BEFF"/>
<stop offset="1" stop-color="#10C2FF"/>
</linearGradient>
<linearGradient id="paint11_linear" x1="31988.8" y1="279.093" x2="31996.8" y2="119.28" gradientUnits="userSpaceOnUse">
<stop stop-color="#1A58FF"/>
<stop offset="0.05" stop-color="#1963FF"/>
<stop offset="0.23" stop-color="#1685FF"/>
<stop offset="0.42" stop-color="#13A0FF"/>
<stop offset="0.6" stop-color="#11B3FF"/>
<stop offset="0.8" stop-color="#10BEFF"/>
<stop offset="1" stop-color="#10C2FF"/>
</linearGradient>
<linearGradient id="paint12_linear" x1="31846.9" y1="325.503" x2="31854.9" y2="166.056" gradientUnits="userSpaceOnUse">
<stop stop-color="#1A58FF"/>
<stop offset="0.05" stop-color="#1963FF"/>
<stop offset="0.23" stop-color="#1685FF"/>
<stop offset="0.42" stop-color="#13A0FF"/>
<stop offset="0.6" stop-color="#11B3FF"/>
<stop offset="0.8" stop-color="#10BEFF"/>
<stop offset="1" stop-color="#10C2FF"/>
</linearGradient>
<linearGradient id="paint13_linear" x1="83488.7" y1="1173.31" x2="82902.9" y2="4421.18" gradientUnits="userSpaceOnUse">
<stop stop-color="#E3F24C"/>
<stop offset="0.2" stop-color="#CAED62"/>
<stop offset="1" stop-color="#64D8BC"/>
</linearGradient>
</defs>
</svg>
