<svg width="108" height="100" viewBox="0 0 108 100" fill="none" xmlns="http://www.w3.org/2000/svg">
<path d="M40.3849 95.7598H35.9999C35.4034 95.7598 34.9199 96.2433 34.9199 96.8397V98.9199C34.9199 99.5163 35.4034 99.9998 35.9999 99.9998H40.3849C40.9813 99.9998 41.4648 99.5163 41.4648 98.9199V96.8397C41.4648 96.2433 40.9813 95.7598 40.3849 95.7598Z" fill="#95E290"/>
<path d="M8.32087 84.2431H11.9448C12.2313 84.2431 12.506 84.3568 12.7085 84.5594C12.911 84.7619 13.0248 85.0366 13.0248 85.323V89.592C13.0248 90.309 12.7399 90.9967 12.2329 91.5037C11.7259 92.0107 11.0383 92.2955 10.3213 92.2955H9.91538C9.56036 92.2955 9.20884 92.2256 8.88083 92.0897C8.55283 91.9539 8.25482 91.7547 8.00377 91.5037C7.75273 91.2526 7.55357 90.9546 7.41771 90.6266C7.28185 90.2986 7.21191 89.9471 7.21191 89.592V85.323C7.21186 85.1787 7.24069 85.0359 7.29676 84.9029C7.35284 84.77 7.43502 84.6496 7.53839 84.5489C7.64176 84.4483 7.76427 84.3693 7.89866 84.3168C8.03305 84.2643 8.17663 84.2392 8.32087 84.2431Z" fill="#95E290"/>
<path d="M98.6232 95.7598H94.2381C93.6417 95.7598 93.1582 96.2433 93.1582 96.8397V98.9199C93.1582 99.5163 93.6417 99.9998 94.2381 99.9998H98.6232C99.2196 99.9998 99.7031 99.5163 99.7031 98.9199V96.8397C99.7031 96.2433 99.2196 95.7598 98.6232 95.7598Z" fill="#95E290"/>
<path d="M13.4523 32.159C13.455 31.7406 13.3341 31.3307 13.1047 30.9807C12.8752 30.6308 12.5475 30.3564 12.1627 30.1921C11.7779 30.0278 11.3531 29.9808 10.9416 30.0571C10.5302 30.1333 10.1505 30.3295 9.8501 30.6208C9.54974 30.9122 9.34218 31.2857 9.25342 31.6947C9.16465 32.1036 9.19865 32.5296 9.35118 32.9193C9.50372 33.3089 9.76796 33.6448 10.1107 33.8848C10.4535 34.1248 10.8596 34.2582 11.2779 34.2682C11.5598 34.2749 11.8403 34.2255 12.1029 34.1227C12.3655 34.0199 12.6049 33.8658 12.8073 33.6695C13.0097 33.4732 13.171 33.2385 13.2817 32.9791C13.3925 32.7198 13.4505 32.441 13.4523 32.159Z" fill="#95E290"/>
<path d="M13.4524 54.5625C13.4538 54.1422 13.3305 53.7309 13.098 53.3807C12.8656 53.0306 12.5344 52.7572 12.1465 52.5954C11.7586 52.4335 11.3313 52.3904 10.9189 52.4716C10.5065 52.5527 10.1274 52.7544 9.82965 53.0511C9.53193 53.3478 9.32895 53.7262 9.24642 54.1383C9.16389 54.5505 9.20552 54.9778 9.36604 55.3663C9.52656 55.7548 9.79878 56.0869 10.1482 56.3205C10.4976 56.5542 10.9084 56.6789 11.3287 56.6789C11.8907 56.679 12.4298 56.4562 12.8278 56.0595C13.2259 55.6628 13.4505 55.1245 13.4524 54.5625Z" fill="#95E290"/>
<path d="M13.4524 76.8209C13.4524 76.4009 13.3278 75.9903 13.0945 75.6411C12.8611 75.2919 12.5295 75.0196 12.1414 74.8589C11.7534 74.6982 11.3264 74.6561 10.9144 74.7381C10.5025 74.82 10.1241 75.0223 9.82708 75.3193C9.53008 75.6163 9.32782 75.9947 9.24588 76.4066C9.16394 76.8186 9.20601 77.2456 9.36674 77.6336C9.52747 78.0216 9.79963 78.3533 10.1489 78.5867C10.4981 78.82 10.9087 78.9446 11.3287 78.9446C11.8919 78.9446 12.4321 78.7208 12.8304 78.3226C13.2287 77.9243 13.4524 77.3841 13.4524 76.8209Z" fill="#95E290"/>
<path d="M13.4527 10.3501C13.4427 9.9346 13.3109 9.53116 13.0738 9.18981C12.8366 8.84846 12.5045 8.5842 12.1186 8.4298C11.7327 8.27539 11.31 8.23763 10.9028 8.32118C10.4957 8.40473 10.1219 8.60593 9.82803 8.89984C9.53412 9.19374 9.33295 9.56743 9.2494 9.97459C9.16584 10.3817 9.20364 10.8045 9.35804 11.1904C9.51245 11.5763 9.7767 11.9084 10.1181 12.1455C10.4594 12.3827 10.8628 12.5145 11.2783 12.5245C11.5658 12.5315 11.8516 12.48 12.1186 12.3732C12.3855 12.2663 12.628 12.1064 12.8313 11.9031C13.0347 11.6998 13.1945 11.4573 13.3013 11.1904C13.4081 10.9234 13.4597 10.6376 13.4527 10.3501Z" fill="#95E290"/>
<path d="M64.3908 22.2657V19.7724H69.9862V8.60331C69.9843 6.32216 69.0772 4.13499 67.4642 2.52197C65.8512 0.908954 63.6641 0.00191935 61.3829 0H8.6034C6.32225 0.00191935 4.13502 0.908954 2.52201 2.52197C0.908988 4.13499 0.00191935 6.32216 0 8.60331V19.7724H5.62441V22.2512H0V42.0381H5.63167V44.6111H0V64.398H5.63167V66.913H0V78.0966C0.00191588 80.3765 0.907988 82.5626 2.51944 84.1754C4.13089 85.7882 6.31625 86.6961 8.59614 86.6999H34.7901V47.9162C34.7877 47.4648 34.8389 47.0147 34.9424 46.5753C35.1956 45.4921 35.7432 44.4999 36.5246 43.7082C37.3061 42.9165 38.2911 42.3561 39.3709 42.0888L39.6028 42.0308C40 41.9418 40.4061 41.898 40.8132 41.9004H69.9862V22.2657H64.3908ZM3.20362 16.6123V8.63955C3.20362 7.1991 3.7754 5.81753 4.79327 4.7983C5.81114 3.77907 7.19188 3.20551 8.63233 3.20359H61.4119C62.8536 3.20359 64.2362 3.77631 65.2557 4.79575C66.2751 5.81519 66.8479 7.19784 66.8479 8.63955V16.6123H3.20362ZM61.2235 19.7869V22.2657H8.82804V19.7724L61.2235 19.7869ZM31.6518 83.5688H8.62507C7.18588 83.5669 5.80625 82.9943 4.78858 81.9767C3.77092 80.959 3.19829 79.5793 3.19637 78.1401V70.0949H31.6518V83.5688ZM31.6518 66.9565H8.82804V64.4415H31.6518V66.9565ZM31.6518 47.9452V61.2741H3.19637V47.8002H31.6518V47.9452ZM32.2534 44.6546H8.82804V42.1468H33.7465C33.1203 42.8885 32.6163 43.7253 32.2534 44.6256V44.6546ZM66.8479 38.7475H40.8422C40.2558 38.7434 39.6705 38.7993 39.0955 38.9142H3.19637V25.4403H5.65343H64.3618H66.8189L66.8479 38.7475Z" fill="url(#paint0_linear)"/>
<path d="M56.541 11.618H39.5882C39.1672 11.618 38.7634 11.4507 38.4657 11.1531C38.1681 10.8554 38.0008 10.4516 38.0008 10.0307C38.0008 9.60968 38.1681 9.20594 38.4657 8.90827C38.7634 8.61059 39.1672 8.44336 39.5882 8.44336H56.541C56.962 8.44336 57.3657 8.61059 57.6634 8.90827C57.9611 9.20594 58.1284 9.60968 58.1284 10.0307C58.1284 10.4516 57.9611 10.8554 57.6634 11.1531C57.3657 11.4507 56.962 11.618 56.541 11.618ZM33.2462 11.618H30.7094C30.2884 11.618 29.8847 11.4507 29.587 11.1531C29.2893 10.8554 29.1221 10.4516 29.1221 10.0307C29.1221 9.60968 29.2893 9.20594 29.587 8.90827C29.8847 8.61059 30.2884 8.44336 30.7094 8.44336H33.2462C33.6672 8.44336 34.0708 8.61059 34.3685 8.90827C34.6662 9.20594 34.8335 9.60968 34.8335 10.0307C34.8335 10.4516 34.6662 10.8554 34.3685 11.1531C34.0708 11.4507 33.6672 11.618 33.2462 11.618Z" fill="#95E290"/>
<path d="M103.139 89.7078H31.6525V47.9162C31.648 47.2233 31.7259 46.5323 31.8845 45.8578C32.27 44.2029 33.1045 42.6865 34.2964 41.4755C35.4882 40.2645 36.9911 39.4058 38.6396 38.9939C38.7548 38.9535 38.8738 38.9244 38.9947 38.907C39.602 38.7767 40.2218 38.7135 40.843 38.7185H93.9414C96.3796 38.7224 98.7168 39.6926 100.441 41.4167C102.165 43.1408 103.135 45.478 103.139 47.9162V89.7078ZM34.8199 86.5332H99.9644V47.9162C99.9644 46.3181 99.3301 44.7854 98.2007 43.6547C97.0714 42.524 95.5395 41.8878 93.9414 41.8859H40.843C40.4239 41.8842 40.0059 41.9279 39.5963 42.0163L39.4006 42.0743C38.3203 42.3429 37.335 42.9047 36.5536 43.6976C35.7721 44.4905 35.2248 45.4839 34.9721 46.5681C34.8687 47.0099 34.8177 47.4624 34.8199 47.9162V86.5332Z" fill="url(#paint1_linear)"/>
<path d="M99.0506 96.8326H35.5659C33.3141 96.8288 31.1557 95.9326 29.5635 94.3404C27.9713 92.7481 27.0751 90.5898 27.0713 88.338V86.5405H107.523V88.338C107.52 90.586 106.626 92.7411 105.039 94.3327C103.451 95.9243 101.299 96.823 99.0506 96.8326ZM30.4198 89.7079C30.7242 90.8404 31.3932 91.8411 32.3234 92.5551C33.2536 93.2691 34.3932 93.6568 35.5659 93.658H99.0506C100.224 93.658 101.364 93.2708 102.294 92.5566C103.225 91.8423 103.893 90.841 104.197 89.7079H30.4198Z" fill="url(#paint2_linear)"/>
<path d="M63.5285 59.636H41.9297V49.7788H63.5285V59.636ZM45.1043 56.4687H60.325V52.9824H45.1043V56.4687Z" fill="#95E290"/>
<path d="M92.3825 52.9459H69.1891C68.7876 52.9187 68.4114 52.74 68.1366 52.446C67.8618 52.152 67.709 51.7646 67.709 51.3622C67.709 50.9598 67.8618 50.5724 68.1366 50.2784C68.4114 49.9844 68.7876 49.8057 69.1891 49.7785H92.3825C92.5995 49.7638 92.8171 49.7939 93.022 49.8668C93.2269 49.9398 93.4146 50.054 93.5735 50.2025C93.7324 50.351 93.8591 50.5306 93.9457 50.7301C94.0323 50.9296 94.077 51.1447 94.077 51.3622C94.077 51.5797 94.0323 51.7948 93.9457 51.9943C93.8591 52.1938 93.7324 52.3734 93.5735 52.5219C93.4146 52.6704 93.2269 52.7846 93.022 52.8576C92.8171 52.9305 92.5995 52.9606 92.3825 52.9459Z" fill="url(#paint3_linear)"/>
<path d="M92.3825 59.6358H69.1891C68.7876 59.6086 68.4114 59.43 68.1366 59.136C67.8618 58.842 67.709 58.4546 67.709 58.0521C67.709 57.6497 67.8618 57.2623 68.1366 56.9683C68.4114 56.6743 68.7876 56.4956 69.1891 56.4685H92.3825C92.5995 56.4538 92.8171 56.4838 93.022 56.5568C93.2269 56.6297 93.4146 56.744 93.5735 56.8925C93.7324 57.041 93.8591 57.2205 93.9457 57.42C94.0323 57.6195 94.077 57.8347 94.077 58.0521C94.077 58.2696 94.0323 58.4848 93.9457 58.6843C93.8591 58.8837 93.7324 59.0633 93.5735 59.2118C93.4146 59.3603 93.2269 59.4746 93.022 59.5475C92.8171 59.6205 92.5995 59.6505 92.3825 59.6358Z" fill="url(#paint4_linear)"/>
<path d="M92.3821 66.2535H69.1886C68.9716 66.2682 68.7539 66.2381 68.549 66.1652C68.3442 66.0922 68.1565 65.978 67.9976 65.8295C67.8387 65.681 67.712 65.5014 67.6254 65.3019C67.5388 65.1024 67.4941 64.8873 67.4941 64.6698C67.4941 64.4523 67.5388 64.2372 67.6254 64.0377C67.712 63.8382 67.8387 63.6586 67.9976 63.5101C68.1565 63.3616 68.3442 63.2474 68.549 63.1744C68.7539 63.1015 68.9716 63.0715 69.1886 63.0861H92.3821C92.599 63.0715 92.8167 63.1015 93.0216 63.1744C93.2264 63.2474 93.4141 63.3616 93.573 63.5101C93.7319 63.6586 93.8586 63.8382 93.9453 64.0377C94.0319 64.2372 94.0765 64.4523 94.0765 64.6698C94.0765 64.8873 94.0319 65.1024 93.9453 65.3019C93.8586 65.5014 93.7319 65.681 93.573 65.8295C93.4141 65.978 93.2264 66.0922 93.0216 66.1652C92.8167 66.2381 92.599 66.2682 92.3821 66.2535Z" fill="url(#paint5_linear)"/>
<path d="M97.7823 91.6865C97.7838 91.3852 97.6958 91.0902 97.5294 90.839C97.363 90.5877 97.1258 90.3915 96.8478 90.2752C96.5698 90.1589 96.2635 90.1277 95.9678 90.1856C95.6721 90.2435 95.4002 90.3879 95.1866 90.6005C94.9731 90.813 94.8274 91.0842 94.7681 91.3797C94.7087 91.6751 94.7385 91.9815 94.8534 92.2601C94.9684 92.5386 95.1635 92.7768 95.4139 92.9443C95.6644 93.1119 95.959 93.2014 96.2603 93.2014C96.4598 93.2023 96.6576 93.1638 96.8422 93.0881C97.0268 93.0124 97.1947 92.901 97.3362 92.7602C97.4776 92.6195 97.5898 92.4522 97.6664 92.2679C97.7429 92.0837 97.7824 91.8861 97.7823 91.6865Z" fill="#95E290"/>
<path d="M39.972 91.6867C39.972 91.3871 39.8832 91.0942 39.7167 90.8451C39.5503 90.596 39.3137 90.4018 39.0369 90.2872C38.7601 90.1725 38.4555 90.1425 38.1617 90.201C37.8678 90.2594 37.5979 90.4037 37.386 90.6156C37.1742 90.8274 37.0299 91.0973 36.9715 91.3912C36.913 91.685 36.943 91.9896 37.0577 92.2664C37.1723 92.5432 37.3665 92.7798 37.6156 92.9462C37.8647 93.1127 38.1576 93.2015 38.4572 93.2015C38.6564 93.2025 38.8538 93.1639 39.038 93.0882C39.2222 93.0124 39.3896 92.9008 39.5305 92.76C39.6713 92.6191 39.7829 92.4517 39.8586 92.2675C39.9344 92.0833 39.9729 91.8859 39.972 91.6867Z" fill="#95E290"/>
<path d="M60.0777 78.1837C59.8159 78.1823 59.5587 78.1152 59.3295 77.9885C59.1003 77.8619 58.9065 77.6798 58.7659 77.459C58.5388 77.1132 58.4557 76.6925 58.5342 76.2863C58.6127 75.8802 58.8467 75.5208 59.1863 75.2846L63.854 72.1245L59.237 69.2253C59.061 69.1149 58.9083 68.9709 58.7879 68.8015C58.6674 68.6321 58.5816 68.4406 58.5352 68.238C58.4887 68.0355 58.4826 67.8257 58.5172 67.6208C58.5518 67.4159 58.6265 67.2197 58.7369 67.0437C58.8473 66.8676 58.9913 66.715 59.1607 66.5945C59.3301 66.4741 59.5215 66.3882 59.7241 66.3418C59.9267 66.2953 60.1365 66.2892 60.3414 66.3239C60.5463 66.3585 60.7424 66.4331 60.9185 66.5435L67.5939 70.7329C67.8161 70.8737 67.9998 71.0676 68.1285 71.2971C68.2572 71.5266 68.3269 71.7844 68.3312 72.0475C68.3355 72.3106 68.2743 72.5706 68.1532 72.8042C68.0321 73.0377 67.8549 73.2375 67.6374 73.3856L60.9693 77.9083C60.7073 78.089 60.3961 78.1852 60.0777 78.1837Z" fill="url(#paint6_linear)"/>
<path d="M48.7133 77.7923C48.395 77.7937 48.0839 77.6976 47.8218 77.5169L41.1536 72.9942C40.9286 72.8509 40.7439 72.6526 40.617 72.4179C40.4902 72.1832 40.4254 71.92 40.4288 71.6533C40.4304 71.3905 40.4975 71.1322 40.6241 70.9019C40.7507 70.6715 40.9326 70.4764 41.1536 70.3342L47.8291 66.1449C48.1849 65.9438 48.6046 65.8877 49.0008 65.9883C49.397 66.089 49.739 66.3386 49.9557 66.6852C50.1725 67.0317 50.2471 67.4486 50.1642 67.8488C50.0813 68.2491 49.8471 68.6019 49.5105 68.8338L44.8936 71.733L49.5612 74.8931C49.8415 75.084 50.0534 75.3597 50.1656 75.6798C50.2778 75.9998 50.2846 76.3474 50.1849 76.6715C50.0852 76.9957 49.8843 77.2794 49.6117 77.4811C49.339 77.6828 49.0089 77.7918 48.6698 77.7923H48.7133Z" fill="url(#paint7_linear)"/>
<path d="M52.0479 81.1264C51.9036 81.1245 51.76 81.105 51.6203 81.0685C51.4196 81.0125 51.2319 80.9173 51.0681 80.7885C50.9043 80.6596 50.7676 80.4996 50.6659 80.3178C50.5641 80.1359 50.4994 79.9356 50.4754 79.7286C50.4514 79.5216 50.4685 79.3119 50.5259 79.1115L55.1501 62.7167C55.1985 62.5073 55.289 62.31 55.416 62.1367C55.5429 61.9633 55.7037 61.8176 55.8887 61.7082C56.0736 61.5989 56.2788 61.5282 56.4919 61.5005C56.705 61.4729 56.9215 61.4887 57.1282 61.5471C57.335 61.6056 57.5277 61.7054 57.6947 61.8405C57.8618 61.9757 57.9997 62.1433 58.1001 62.3333C58.2004 62.5233 58.2612 62.7317 58.2786 62.9458C58.296 63.16 58.2697 63.3755 58.2014 63.5792L53.5773 79.974C53.4815 80.3058 53.2807 80.5975 53.0049 80.8054C52.7291 81.0132 52.3933 81.1259 52.0479 81.1264Z" fill="url(#paint8_linear)"/>
<path d="M92.3828 73.1461H83.2287C83.0117 73.1608 82.794 73.1307 82.5891 73.0578C82.3842 72.9848 82.1965 72.8706 82.0376 72.7221C81.8787 72.5736 81.7521 72.394 81.6655 72.1945C81.5789 71.995 81.5342 71.7799 81.5342 71.5624C81.5342 71.3449 81.5789 71.1298 81.6655 70.9303C81.7521 70.7308 81.8787 70.5512 82.0376 70.4027C82.1965 70.2542 82.3842 70.14 82.5891 70.067C82.794 69.9941 83.0117 69.964 83.2287 69.9787H92.3828C92.5998 69.964 92.8175 69.9941 93.0223 70.067C93.2272 70.14 93.4149 70.2542 93.5738 70.4027C93.7327 70.5512 93.8594 70.7308 93.946 70.9303C94.0326 71.1298 94.0773 71.3449 94.0773 71.5624C94.0773 71.7799 94.0326 71.995 93.946 72.1945C93.8594 72.394 93.7327 72.5736 93.5738 72.7221C93.4149 72.8706 93.2272 72.9848 93.0223 73.0578C92.8175 73.1307 92.5998 73.1608 92.3828 73.1461Z" fill="#95E290"/>
<path d="M92.3828 80.2642H83.2287C83.0117 80.2789 82.794 80.2489 82.5891 80.1759C82.3842 80.103 82.1965 79.9887 82.0376 79.8402C81.8787 79.6917 81.7521 79.5122 81.6655 79.3127C81.5789 79.1132 81.5342 78.898 81.5342 78.6806C81.5342 78.4631 81.5789 78.2479 81.6655 78.0484C81.7521 77.849 81.8787 77.6694 82.0376 77.5209C82.1965 77.3724 82.3842 77.2581 82.5891 77.1852C82.794 77.1123 83.0117 77.0822 83.2287 77.0969H92.3828C92.5998 77.0822 92.8175 77.1123 93.0223 77.1852C93.2272 77.2581 93.4149 77.3724 93.5738 77.5209C93.7327 77.6694 93.8594 77.849 93.946 78.0484C94.0326 78.2479 94.0773 78.4631 94.0773 78.6806C94.0773 78.898 94.0326 79.1132 93.946 79.3127C93.8594 79.5122 93.7327 79.6917 93.5738 79.8402C93.4149 79.9887 93.2272 80.103 93.0223 80.1759C92.8175 80.2489 92.5998 80.2789 92.3828 80.2642Z" fill="#95E290"/>
<path d="M78.4518 69.957H74.9365V73.4723H78.4518V69.957Z" fill="#95E290"/>
<path d="M78.4518 76.7705H74.9365V80.2857H78.4518V76.7705Z" fill="#95E290"/>
<path d="M94.1732 35.2033C93.8297 35.1189 93.5331 34.903 93.3474 34.602C93.1616 34.301 93.1016 33.9391 93.1803 33.5942C93.266 33.2524 93.483 32.9581 93.7841 32.775C94.0852 32.5919 94.4463 32.5347 94.7893 32.6157C95.13 32.6983 95.4242 32.9123 95.6075 33.2111C95.7909 33.5099 95.8485 33.8692 95.7677 34.2103V34.2538C95.6773 34.5881 95.4603 34.8742 95.1627 35.0514C94.8651 35.2286 94.5103 35.283 94.1732 35.2033ZM94.898 31.3183C94.7761 31.325 94.6538 31.3127 94.5356 31.2821C94.2572 31.2092 94.0096 31.0486 93.8295 30.8241C93.6494 30.5996 93.5462 30.3231 93.5354 30.0355C93.5286 29.8614 93.5566 29.6877 93.6177 29.5245C93.6788 29.3614 93.7717 29.212 93.8912 29.0852C94.0106 28.9583 94.154 28.8565 94.3132 28.7857C94.4724 28.7149 94.6441 28.6766 94.8183 28.6729C94.9427 28.6633 95.0678 28.6756 95.1879 28.7091C95.4675 28.7774 95.7169 28.9357 95.8976 29.1596C96.0784 29.3836 96.1805 29.6608 96.1882 29.9485C96.1929 30.0756 96.1782 30.2027 96.1446 30.3254C96.0722 30.6008 95.9135 30.8457 95.6918 31.0244C95.4701 31.203 95.197 31.3061 94.9125 31.3183H94.898ZM94.6081 27.3827C94.3704 27.4441 94.121 27.4441 93.8833 27.3827C93.6637 27.3235 93.4625 27.2102 93.2979 27.0532C93.1333 26.8962 93.0107 26.7005 92.9411 26.484C92.8393 26.1466 92.8751 25.7827 93.0408 25.4717C93.2065 25.1607 93.4886 24.9279 93.8253 24.8242C94.0616 24.7524 94.3139 24.7524 94.5501 24.8242C94.7718 24.879 94.9754 24.9908 95.1406 25.1484C95.3059 25.306 95.4271 25.5041 95.4923 25.7229C95.5624 25.9595 95.5624 26.2112 95.4923 26.4477C95.436 26.6622 95.328 26.8597 95.1776 27.0227C95.0272 27.1857 94.8391 27.3093 94.6298 27.3827H94.6081ZM93.289 23.6428C93.1374 23.7383 92.9681 23.8022 92.7913 23.8309C92.6145 23.8595 92.4337 23.8522 92.2598 23.8095C91.9287 23.7272 91.6428 23.5192 91.4625 23.2297C91.276 22.9305 91.2154 22.5697 91.2942 22.226C91.373 21.8824 91.5846 21.5839 91.8828 21.3959C92.0342 21.3001 92.2038 21.2365 92.3809 21.209C92.5579 21.1816 92.7388 21.1909 92.9121 21.2365C93.2418 21.3215 93.5269 21.5288 93.7093 21.8163C93.8048 21.9706 93.8681 22.1425 93.8955 22.3219C93.9229 22.5012 93.9138 22.6843 93.8688 22.86C93.7874 23.1836 93.5851 23.4638 93.3035 23.6428H93.289ZM91.0566 20.3957C90.8928 20.5696 90.6853 20.6963 90.4558 20.7626C90.2263 20.8289 89.9833 20.8324 89.752 20.7726C89.5361 20.7234 89.3379 20.6155 89.1794 20.4609C88.9221 20.2209 88.7701 19.8889 88.7565 19.5373C88.743 19.1856 88.8689 18.8429 89.1069 18.5837C89.2688 18.4091 89.4747 18.2814 89.703 18.2138C89.9312 18.1462 90.1735 18.1413 90.4043 18.1996C90.6204 18.2577 90.8193 18.3671 90.9841 18.5185C91.1599 18.6826 91.2883 18.891 91.3559 19.1218C91.4235 19.3526 91.4278 19.5973 91.3683 19.8304C91.3139 20.0391 91.2122 20.2325 91.0711 20.3957H91.0566ZM88.0415 17.8372C87.9 18.1018 87.6739 18.3113 87.3992 18.4322C87.1246 18.5531 86.8173 18.5784 86.5266 18.504C86.4307 18.476 86.3382 18.4371 86.2512 18.388C86.0956 18.3085 85.9575 18.1988 85.845 18.0652C85.7324 17.9317 85.6477 17.777 85.5957 17.6103C85.5438 17.4435 85.5256 17.2681 85.5423 17.0942C85.559 16.9203 85.6103 16.7516 85.6932 16.5978C85.8327 16.3314 86.0586 16.1203 86.3338 15.9991C86.6091 15.878 86.9173 15.8539 87.208 15.931C87.305 15.9558 87.3978 15.9949 87.4834 16.0469C87.7497 16.1842 87.9607 16.4091 88.0808 16.6836C88.2009 16.9582 88.2229 17.2657 88.143 17.5545C88.1224 17.6511 88.0933 17.7457 88.056 17.8372H88.0415ZM82.8809 17.1559C82.5439 17.0748 82.2523 16.8644 82.0692 16.5701C81.8861 16.2758 81.8261 15.9212 81.9024 15.5831C81.9837 15.24 82.1962 14.9424 82.4942 14.754C82.7923 14.5657 83.1523 14.5017 83.497 14.5756C83.8334 14.6584 84.1244 14.8688 84.3084 15.1624C84.4924 15.4559 84.5549 15.8096 84.4827 16.1484V16.1991C84.3938 16.5333 84.1785 16.8198 83.8824 16.9983C83.5863 17.1768 83.2324 17.2333 82.8955 17.1559H82.8809ZM79.3004 16.837C79.1661 16.8437 79.0316 16.829 78.9018 16.7935C78.6292 16.7208 78.387 16.5626 78.2108 16.3421C78.0347 16.1217 77.9339 15.8505 77.9233 15.5686C77.9145 15.3941 77.9405 15.2197 77.9997 15.0553C78.0589 14.891 78.1502 14.7401 78.2682 14.6113C78.3862 14.4825 78.5286 14.3784 78.6871 14.3051C78.8456 14.2318 79.0171 14.1907 79.1917 14.1842C79.3261 14.1763 79.4608 14.191 79.5904 14.2277C79.8632 14.3011 80.1058 14.4593 80.2829 14.6794C80.4601 14.8996 80.5627 15.1703 80.5761 15.4526C80.5767 15.5843 80.5622 15.7156 80.5326 15.844C80.4676 16.1238 80.3139 16.3751 80.0945 16.5606C79.8751 16.746 79.6017 16.8557 79.3149 16.8732L79.3004 16.837ZM75.7779 17.4603C75.5407 17.525 75.2904 17.525 75.0531 17.4603C74.8378 17.4027 74.6402 17.2924 74.4782 17.1393C74.3162 16.9862 74.1949 16.7951 74.1254 16.5833C74.0182 16.2469 74.0489 15.8817 74.2106 15.5679C74.3723 15.254 74.6518 15.0171 74.9879 14.909C75.2252 14.8443 75.4755 14.8443 75.7127 14.909C75.9294 14.9646 76.1279 15.0752 76.2892 15.2301C76.4505 15.385 76.569 15.579 76.6332 15.7932C76.7041 16.0296 76.7041 16.2817 76.6332 16.518C76.583 16.734 76.4788 16.9336 76.3305 17.0984C76.1823 17.2632 75.9946 17.3877 75.7852 17.4603H75.7779Z" fill="#95E290"/>
<path d="M80.9302 35.9643C79.5626 35.9643 78.2257 35.5588 77.0886 34.799C75.9515 34.0392 75.0653 32.9593 74.5419 31.6959C74.0186 30.4324 73.8817 29.0421 74.1485 27.7008C74.4153 26.3595 75.0739 25.1275 76.0409 24.1605C77.0079 23.1935 78.24 22.5349 79.5813 22.2681C80.9226 22.0013 82.3128 22.1382 83.5763 22.6616C84.8398 23.1849 85.9196 24.0712 86.6794 25.2083C87.4392 26.3454 87.8447 27.6822 87.8447 29.0498C87.8428 30.883 87.1137 32.6407 85.8174 33.937C84.5211 35.2333 82.7634 35.9624 80.9302 35.9643ZM80.9302 25.3099C80.1905 25.3099 79.4674 25.5292 78.8524 25.9401C78.2374 26.3511 77.758 26.9352 77.4749 27.6186C77.1919 28.302 77.1178 29.0539 77.2621 29.7794C77.4064 30.5049 77.7626 31.1713 78.2856 31.6943C78.8087 32.2174 79.4751 32.5736 80.2006 32.7179C80.9261 32.8622 81.6781 32.7881 82.3614 32.5051C83.0448 32.222 83.6289 31.7426 84.0398 31.1276C84.4508 30.5126 84.6701 29.7895 84.6701 29.0498C84.6682 28.0585 84.2736 27.1083 83.5726 26.4074C82.8716 25.7064 81.9215 25.3118 80.9302 25.3099Z" fill="url(#paint9_linear)"/>
<defs>
<linearGradient id="paint0_linear" x1="105083" y1="24322.8" x2="111841" y2="24322.8" gradientUnits="userSpaceOnUse">
<stop stop-color="#10C2FF"/>
<stop offset="0.22" stop-color="#12B4FF"/>
<stop offset="0.62" stop-color="#1690FF"/>
<stop offset="1" stop-color="#1A68FF"/>
</linearGradient>
<linearGradient id="paint1_linear" x1="31.6525" y1="64.2096" x2="103.139" y2="64.2096" gradientUnits="userSpaceOnUse">
<stop stop-color="#FF059D"/>
<stop offset="1" stop-color="#FFF904"/>
</linearGradient>
<linearGradient id="paint2_linear" x1="123826" y1="3660.16" x2="132760" y2="3660.16" gradientUnits="userSpaceOnUse">
<stop stop-color="#FF059D"/>
<stop offset="1" stop-color="#FFF904"/>
</linearGradient>
<linearGradient id="paint3_linear" x1="42117.9" y1="975.456" x2="43076.3" y2="975.456" gradientUnits="userSpaceOnUse">
<stop stop-color="#10C2FF"/>
<stop offset="0.22" stop-color="#12B4FF"/>
<stop offset="0.62" stop-color="#1690FF"/>
<stop offset="1" stop-color="#1A68FF"/>
</linearGradient>
<linearGradient id="paint4_linear" x1="42117.9" y1="1011.26" x2="43076.3" y2="1011.26" gradientUnits="userSpaceOnUse">
<stop stop-color="#10C2FF"/>
<stop offset="0.22" stop-color="#12B4FF"/>
<stop offset="0.62" stop-color="#1690FF"/>
<stop offset="1" stop-color="#1A68FF"/>
</linearGradient>
<linearGradient id="paint5_linear" x1="42459.8" y1="1047.02" x2="43425.8" y2="1047.02" gradientUnits="userSpaceOnUse">
<stop stop-color="#10C2FF"/>
<stop offset="0.22" stop-color="#12B4FF"/>
<stop offset="0.62" stop-color="#1690FF"/>
<stop offset="1" stop-color="#1A68FF"/>
</linearGradient>
<linearGradient id="paint6_linear" x1="15620.9" y1="3873.18" x2="15754.5" y2="3873.18" gradientUnits="userSpaceOnUse">
<stop stop-color="#10C2FF"/>
<stop offset="0.22" stop-color="#12B4FF"/>
<stop offset="0.62" stop-color="#1690FF"/>
<stop offset="1" stop-color="#1A68FF"/>
</linearGradient>
<linearGradient id="paint7_linear" x1="15342.5" y1="3857.08" x2="15476" y2="3857.08" gradientUnits="userSpaceOnUse">
<stop stop-color="#10C2FF"/>
<stop offset="0.22" stop-color="#12B4FF"/>
<stop offset="0.62" stop-color="#1690FF"/>
<stop offset="1" stop-color="#1A68FF"/>
</linearGradient>
<linearGradient id="paint8_linear" x1="12334.5" y1="6329.51" x2="12418.7" y2="6329.51" gradientUnits="userSpaceOnUse">
<stop stop-color="#10C2FF"/>
<stop offset="0.22" stop-color="#12B4FF"/>
<stop offset="0.62" stop-color="#1690FF"/>
<stop offset="1" stop-color="#1A68FF"/>
</linearGradient>
<linearGradient id="paint9_linear" x1="22250" y1="3628.76" x2="22513.7" y2="3628.76" gradientUnits="userSpaceOnUse">
<stop stop-color="#FF059D"/>
<stop offset="1" stop-color="#FFF904"/>
</linearGradient>
</defs>
</svg>
