<svg width="120" height="120" viewBox="0 0 120 120" fill="none" xmlns="http://www.w3.org/2000/svg">
<path d="M92.9688 72.9721H91.9033V69.8486H92.9688C104.886 69.8486 114.651 60.821 115.198 49.2976C115.376 45.7235 114.662 42.1614 113.121 38.9318C111.579 35.7022 109.259 32.9066 106.369 30.7967C103.479 28.6867 100.109 27.3286 96.5636 26.8446C93.0179 26.3606 89.4076 26.7659 86.0576 28.0241C85.6878 28.1619 85.2923 28.217 84.8989 28.1855C84.5055 28.154 84.1238 28.0366 83.7807 27.8416C83.4455 27.6508 83.1565 27.3884 82.9345 27.073C82.7125 26.7576 82.5628 26.3971 82.4962 26.0172C81.1894 19.5284 77.5187 13.7564 72.1963 9.82146C66.8739 5.88648 60.2795 4.06907 53.6927 4.72193C47.1059 5.37479 40.9966 8.45136 36.5502 13.3546C32.1038 18.2578 29.6375 24.638 29.63 31.2571C29.6309 32.1955 29.6796 33.1333 29.7759 34.0668C29.8221 34.4934 29.7615 34.9248 29.5998 35.3222C29.438 35.7196 29.18 36.0706 28.8491 36.3437C28.5108 36.6263 28.1073 36.8196 27.6752 36.9063C27.243 36.993 26.7961 36.9702 26.3751 36.84C23.4313 35.955 20.3014 35.8925 17.3247 36.6592C14.3479 37.4259 11.6377 38.9926 9.48765 41.1896C7.9152 42.7858 6.67827 44.6808 5.84977 46.7627C5.02128 48.8445 4.618 51.0712 4.66371 53.3114C4.83157 62.4339 12.6914 69.8559 22.1277 69.8559H37.5409V72.9721H22.1569C11.0056 72.9721 1.76643 64.2146 1.56939 53.3698C1.51189 50.2843 2.16986 47.2273 3.49174 44.4387C4.81361 41.65 6.76344 39.2055 9.18837 37.2966C11.6133 35.3878 14.4474 34.0666 17.4685 33.4366C20.4896 32.8066 23.6156 32.8849 26.6013 33.6654C26.5356 32.8626 26.5064 32.0672 26.5064 31.2644C26.5107 23.911 29.2319 16.8186 34.1472 11.3494C39.0624 5.88022 45.8252 2.42004 53.1364 1.63353C60.4475 0.847026 67.7915 2.78965 73.7575 7.08826C79.7236 11.3869 83.891 17.7383 85.4592 24.9225C88.0854 23.9993 90.8491 23.528 93.6329 23.5286C96.98 23.5305 100.292 24.2121 103.368 25.5319C106.444 26.8517 109.22 28.7823 111.528 31.2067C113.835 33.6312 115.627 36.4989 116.793 39.6362C117.96 42.7735 118.478 46.1149 118.314 49.4581C117.694 62.6455 106.55 72.9721 92.9688 72.9721Z" fill="url(#paint0_linear)"/>
<path d="M20.339 91.8228C20.7939 91.8228 21.2301 92.0035 21.5517 92.3251C21.8733 92.6467 22.054 93.0829 22.054 93.5378C22.054 93.9933 21.8736 94.4303 21.5522 94.7531C21.2307 95.0759 20.7945 95.2582 20.339 95.2601C19.8822 95.2601 19.4441 95.0786 19.1212 94.7556C18.7982 94.4327 18.6167 93.9946 18.6167 93.5378C18.6186 93.0823 18.8009 92.6461 19.1237 92.3246C19.4465 92.0032 19.8835 91.8227 20.339 91.8228ZM22.054 101.113C22.055 100.887 22.0113 100.663 21.9256 100.454C21.8398 100.246 21.7136 100.056 21.5543 99.8956C21.3949 99.7356 21.2056 99.6086 20.997 99.522C20.7885 99.4353 20.5648 99.3907 20.339 99.3907C20.1128 99.3907 19.8889 99.4353 19.6799 99.5218C19.471 99.6084 19.2811 99.7353 19.1212 99.8952C18.9612 100.055 18.8344 100.245 18.7478 100.454C18.6612 100.663 18.6167 100.887 18.6167 101.113C18.6186 101.569 18.8009 102.005 19.1237 102.326C19.4465 102.648 19.8835 102.828 20.339 102.828C20.5642 102.828 20.7872 102.784 20.9953 102.698C21.2034 102.611 21.3925 102.485 21.5517 102.326C21.711 102.166 21.8373 101.977 21.9235 101.769C22.0097 101.561 22.054 101.338 22.054 101.113ZM22.054 108.681C22.054 108.225 21.8736 107.788 21.5522 107.466C21.2307 107.143 20.7945 106.961 20.339 106.959C19.8822 106.959 19.4441 107.14 19.1212 107.463C18.7982 107.786 18.6167 108.224 18.6167 108.681C18.6186 109.137 18.8009 109.573 19.1237 109.894C19.4465 110.216 19.8835 110.396 20.339 110.396C20.7939 110.396 21.2301 110.215 21.5517 109.894C21.8733 109.572 22.054 109.136 22.054 108.681ZM28.6587 101.113C28.6587 100.887 28.6141 100.663 28.5276 100.454C28.441 100.245 28.3141 100.055 28.1542 99.8952C27.9943 99.7353 27.8044 99.6084 27.5954 99.5218C27.3865 99.4353 27.1625 99.3907 26.9363 99.3907C26.7105 99.3907 26.4869 99.4353 26.2783 99.522C26.0698 99.6086 25.8804 99.7356 25.7211 99.8956C25.5617 100.056 25.4355 100.246 25.3498 100.454C25.264 100.663 25.2204 100.887 25.2213 101.113C25.2213 101.338 25.2657 101.561 25.3519 101.769C25.4381 101.977 25.5644 102.166 25.7236 102.326C25.8829 102.485 26.072 102.611 26.28 102.698C26.4881 102.784 26.7111 102.828 26.9363 102.828C27.3919 102.828 27.8288 102.648 28.1516 102.326C28.4744 102.005 28.6567 101.569 28.6587 101.113ZM28.6587 108.681C28.6587 108.224 28.4772 107.786 28.1542 107.463C27.8312 107.14 27.3931 106.959 26.9363 106.959C26.4808 106.961 26.0446 107.143 25.7232 107.466C25.4018 107.788 25.2213 108.225 25.2213 108.681C25.2213 109.136 25.402 109.572 25.7236 109.894C26.0453 110.215 26.4815 110.396 26.9363 110.396C27.3919 110.396 27.8288 110.216 28.1516 109.894C28.4744 109.573 28.6567 109.137 28.6587 108.681ZM35.2268 108.681C35.2271 108.235 35.0547 107.807 34.7458 107.486C34.4369 107.165 34.0155 106.976 33.5702 106.959C33.1134 106.959 32.6753 107.14 32.3523 107.463C32.0293 107.786 31.8479 108.224 31.8479 108.681C31.8498 109.137 32.0321 109.573 32.3549 109.894C32.6777 110.216 33.1146 110.396 33.5702 110.396C34.0199 110.388 34.4487 110.204 34.764 109.884C35.0794 109.563 35.2561 109.131 35.256 108.681H35.2268ZM42.2401 108.681C42.2401 108.224 42.0587 107.786 41.7357 107.463C41.4127 107.14 40.9746 106.959 40.5178 106.959C40.0623 106.961 39.6261 107.143 39.3047 107.466C38.9832 107.788 38.8028 108.225 38.8028 108.681C38.8028 109.136 38.9835 109.572 39.3051 109.894C39.6267 110.215 40.063 110.396 40.5178 110.396C40.7458 110.4 40.9723 110.358 41.1842 110.274C41.3961 110.19 41.5891 110.064 41.752 109.905C41.9149 109.745 42.0446 109.555 42.1334 109.345C42.2222 109.135 42.2684 108.909 42.2693 108.681H42.2401ZM49.2461 108.681C49.2461 108.225 49.0657 107.788 48.7443 107.466C48.4229 107.143 47.9866 106.961 47.5311 106.959C47.0743 106.959 46.6363 107.14 46.3133 107.463C45.9903 107.786 45.8088 108.224 45.8088 108.681C45.8107 109.137 45.9931 109.573 46.3158 109.894C46.6386 110.216 47.0756 110.396 47.5311 110.396C47.7588 110.4 47.9849 110.358 48.1964 110.274C48.4079 110.189 48.6004 110.064 48.7627 109.904C48.9251 109.745 49.054 109.554 49.1421 109.344C49.2301 109.134 49.2754 108.909 49.2753 108.681H49.2461ZM56.2522 108.681C56.2522 108.225 56.0717 107.788 55.7503 107.466C55.4289 107.143 54.9927 106.961 54.5372 106.959C54.0804 106.959 53.6423 107.14 53.3193 107.463C52.9963 107.786 52.8148 108.224 52.8148 108.681C52.8168 109.137 52.9991 109.573 53.3219 109.894C53.6446 110.216 54.0816 110.396 54.5372 110.396C54.7648 110.4 54.991 110.358 55.2024 110.274C55.4139 110.189 55.6064 110.064 55.7688 109.904C55.9311 109.745 56.0601 109.554 56.1481 109.344C56.2361 109.134 56.2814 108.909 56.2814 108.681H56.2522Z" fill="url(#paint1_linear)"/>
<path d="M83.0355 44.2843H73.4898C72.8492 44.2843 72.2348 44.0298 71.7817 43.5767C71.3287 43.1237 71.0742 42.5093 71.0742 41.8686V32.104H74.1977V41.1389H83.0355V44.2843Z" fill="url(#paint2_linear)"/>
<path d="M79.6786 96.7341H40.6419C39.4083 96.736 38.2243 96.2484 37.35 95.3781C36.4756 94.5079 35.9824 93.3262 35.9785 92.0926V34.9425C35.9804 33.7624 36.4501 32.6312 37.2845 31.7967C38.119 30.9623 39.2502 30.4927 40.4303 30.4907H72.3149H72.5704C72.7494 30.5093 72.9257 30.5485 73.0958 30.6075C73.2177 30.6397 73.3353 30.6862 73.4461 30.7462C73.6562 30.8501 73.8523 30.98 74.03 31.1329C74.1034 31.1955 74.1718 31.2638 74.2343 31.3373L83.8457 40.956C83.9809 41.0907 84.1009 41.24 84.2033 41.4011C84.2948 41.5318 84.3685 41.6742 84.4222 41.8244C84.4222 41.8755 84.4222 41.9485 84.4733 42.0142C84.5177 42.1624 84.5519 42.3136 84.5755 42.4666C84.5825 42.5419 84.5825 42.6176 84.5755 42.6929V53.9974H81.452V43.0505L72.0741 33.6142H40.4303C40.0786 33.6162 39.7419 33.7567 39.4932 34.0054C39.2445 34.254 39.104 34.5908 39.102 34.9425V92.0926C39.1078 92.4965 39.2728 92.8819 39.5612 93.1647C39.8495 93.4476 40.2379 93.6052 40.6419 93.6033H79.6786V96.7341Z" fill="url(#paint3_linear)"/>
<path d="M56.1285 61.5654H47.2834C46.8692 61.5654 46.472 61.4009 46.1791 61.108C45.8862 60.8151 45.7217 60.4179 45.7217 60.0037C45.7217 59.5895 45.8862 59.1922 46.1791 58.8993C46.472 58.6064 46.8692 58.4419 47.2834 58.4419H56.1285C56.5427 58.4419 56.94 58.6064 57.2329 58.8993C57.5258 59.1922 57.6903 59.5895 57.6903 60.0037C57.6903 60.4179 57.5258 60.8151 57.2329 61.108C56.94 61.4009 56.5427 61.5654 56.1285 61.5654Z" fill="url(#paint4_linear)"/>
<path d="M53.275 70.1406H47.2834C47.0783 70.1406 46.8753 70.1002 46.6858 70.0217C46.4963 69.9432 46.3241 69.8282 46.1791 69.6832C46.0341 69.5381 45.919 69.366 45.8406 69.1765C45.7621 68.987 45.7217 68.784 45.7217 68.5789C45.7217 68.3738 45.7621 68.1707 45.8406 67.9812C45.919 67.7917 46.0341 67.6195 46.1791 67.4745C46.3241 67.3295 46.4963 67.2145 46.6858 67.136C46.8753 67.0575 47.0783 67.0171 47.2834 67.0171H53.275C53.6892 67.0171 54.0865 67.1816 54.3794 67.4745C54.6723 67.7674 54.8368 68.1647 54.8368 68.5789C54.8368 68.9931 54.6723 69.3903 54.3794 69.6832C54.0865 69.9761 53.6892 70.1406 53.275 70.1406Z" fill="url(#paint5_linear)"/>
<path d="M87.145 112.381C86.85 112.382 86.5608 112.298 86.3114 112.141C86.062 111.983 85.8626 111.758 85.7365 111.491L75.4246 89.8815C75.3219 89.67 75.2686 89.4379 75.2686 89.2028C75.2686 88.9677 75.3219 88.7356 75.4246 88.5241C75.5263 88.3122 75.6752 88.1263 75.8599 87.9808C76.0446 87.8354 76.2602 87.7341 76.49 87.6849C77.7755 87.3961 79.0241 86.9628 80.212 86.3931C81.4039 85.8304 82.5257 85.1299 83.5545 84.3059C83.7384 84.1584 83.9532 84.0543 84.1829 84.0012C84.4127 83.9481 84.6514 83.9475 84.8814 83.9994C85.1114 84.0513 85.3267 84.1543 85.5114 84.3009C85.6961 84.4475 85.8454 84.6338 85.9482 84.846L96.2602 106.47C96.4383 106.842 96.4616 107.271 96.3248 107.66C96.188 108.05 95.9024 108.37 95.5304 108.55L87.8165 112.199C87.6089 112.308 87.3796 112.371 87.145 112.381ZM79.0516 90.2172L87.8821 108.732L92.7718 106.404L83.9266 87.8746C83.166 88.3709 82.3737 88.8171 81.5548 89.2101C80.7419 89.5948 79.9059 89.9287 79.0516 90.2099V90.2172Z" fill="url(#paint6_linear)"/>
<path d="M61.113 46.0283H47.2834C46.8692 46.0283 46.472 45.8638 46.1791 45.5709C45.8862 45.278 45.7217 44.8808 45.7217 44.4666C45.7217 44.0524 45.8862 43.6551 46.1791 43.3622C46.472 43.0693 46.8692 42.9048 47.2834 42.9048H61.113C61.5272 42.9048 61.9245 43.0693 62.2174 43.3622C62.5102 43.6551 62.6748 44.0524 62.6748 44.4666C62.6748 44.8808 62.5102 45.278 62.2174 45.5709C61.9245 45.8638 61.5272 46.0283 61.113 46.0283Z" fill="url(#paint7_linear)"/>
<path d="M64.8351 53.8735H47.3201C46.9059 53.8735 46.5086 53.709 46.2157 53.4161C45.9228 53.1232 45.7583 52.726 45.7583 52.3118C45.7583 51.8976 45.9228 51.5003 46.2157 51.2074C46.5086 50.9145 46.9059 50.75 47.3201 50.75H64.8351C65.0402 50.75 65.2433 50.7904 65.4328 50.8689C65.6223 50.9474 65.7944 51.0624 65.9394 51.2074C66.0845 51.3525 66.1995 51.5246 66.278 51.7141C66.3565 51.9036 66.3969 52.1067 66.3969 52.3118C66.3969 52.5169 66.3565 52.7199 66.278 52.9094C66.1995 53.0989 66.0845 53.2711 65.9394 53.4161C65.7944 53.5611 65.6223 53.6762 65.4328 53.7547C65.2433 53.8331 65.0402 53.8735 64.8351 53.8735Z" fill="url(#paint8_linear)"/>
<path d="M72.8477 69.0239H60.7185C60.3043 69.0239 59.9071 68.8594 59.6142 68.5665C59.3213 68.2736 59.1567 67.8764 59.1567 67.4622C59.1567 67.048 59.3213 66.6507 59.6142 66.3578C59.9071 66.0649 60.3043 65.9004 60.7185 65.9004H72.8477C73.2619 65.9004 73.6591 66.0649 73.952 66.3578C74.2449 66.6507 74.4094 67.048 74.4094 67.4622C74.4094 67.8764 74.2449 68.2736 73.952 68.5665C73.6591 68.8594 73.2619 69.0239 72.8477 69.0239Z" fill="url(#paint9_linear)"/>
<path d="M70.0602 76.3877H61.0911C60.6769 76.3877 60.2796 76.2232 59.9867 75.9303C59.6938 75.6374 59.5293 75.2401 59.5293 74.8259C59.5293 74.4117 59.6938 74.0145 59.9867 73.7216C60.2796 73.4287 60.6769 73.2642 61.0911 73.2642H70.0602C70.4744 73.2642 70.8717 73.4287 71.1645 73.7216C71.4574 74.0145 71.622 74.4117 71.622 74.8259C71.622 75.2401 71.4574 75.6374 71.1645 75.9303C70.8717 76.2232 70.4744 76.3877 70.0602 76.3877Z" fill="url(#paint10_linear)"/>
<path d="M51.2027 83.554C51.2027 83.1657 51.0875 82.7861 50.8718 82.4633C50.6561 82.1405 50.3495 81.8888 49.9908 81.7403C49.6321 81.5917 49.2373 81.5528 48.8565 81.6285C48.4757 81.7043 48.1259 81.8912 47.8514 82.1658C47.5768 82.4403 47.3898 82.7902 47.3141 83.171C47.2383 83.5518 47.2772 83.9465 47.4258 84.3052C47.5744 84.6639 47.826 84.9706 48.1488 85.1863C48.4717 85.402 48.8512 85.5171 49.2395 85.5171C49.7602 85.5171 50.2595 85.3103 50.6277 84.9421C50.9958 84.574 51.2027 84.0746 51.2027 83.554Z" fill="url(#paint11_linear)"/>
<path d="M92.8444 118.664C91.7402 118.665 90.6584 118.353 89.7245 117.764C88.7906 117.175 88.0428 116.333 87.568 115.336L85.7362 111.483C85.647 111.299 85.5951 111.099 85.5835 110.894C85.572 110.69 85.6009 110.485 85.6687 110.291C85.7365 110.098 85.8419 109.92 85.9787 109.768C86.1156 109.615 86.2812 109.491 86.466 109.403L94.1726 105.754C94.3576 105.665 94.5583 105.613 94.7634 105.601C94.9684 105.589 95.1738 105.618 95.3676 105.686C95.5615 105.754 95.7401 105.859 95.8932 105.996C96.0463 106.133 96.1709 106.299 96.2599 106.484L98.0989 110.33C98.4281 111.025 98.6169 111.777 98.6545 112.545C98.692 113.313 98.5777 114.08 98.3179 114.804C98.0676 115.527 97.6752 116.192 97.1639 116.761C96.6525 117.33 96.0325 117.791 95.3403 118.117C94.559 118.481 93.7066 118.668 92.8444 118.664ZM89.1955 111.549L90.3631 113.994C90.517 114.319 90.7338 114.61 91.001 114.851C91.2682 115.092 91.5804 115.277 91.9198 115.397C92.2591 115.516 92.6187 115.567 92.9778 115.547C93.3369 115.526 93.6885 115.435 94.0121 115.278C94.3359 115.123 94.6259 114.905 94.8655 114.637C95.105 114.37 95.2894 114.058 95.4081 113.719C95.5267 113.38 95.5773 113.021 95.5569 112.662C95.5365 112.303 95.4455 111.952 95.2892 111.629L94.1435 109.213L89.1955 111.549Z" fill="url(#paint12_linear)"/>
<path d="M72.6216 91.2172C68.8713 91.2335 65.1854 90.2422 61.9492 88.3469C58.713 86.4516 56.0453 83.7218 54.2249 80.4429C52.4044 77.164 51.4981 73.4564 51.6006 69.7074C51.7031 65.9585 52.8106 62.3059 54.8075 59.1314C56.8043 55.9568 59.6172 53.3769 62.9521 51.6612C66.287 49.9455 70.0215 49.1571 73.7653 49.3782C77.5092 49.5994 81.1248 50.8221 84.2345 52.9185C87.3442 55.0149 89.8338 57.9081 91.443 61.2956C93.4731 65.5853 93.9917 70.4358 92.9144 75.0577C91.8371 79.6796 89.2273 83.8009 85.5097 86.7508C84.2935 87.7267 82.9657 88.5547 81.5543 89.2176C78.7612 90.5364 75.7104 91.2193 72.6216 91.2172ZM72.5194 52.4651C69.5128 52.469 66.556 53.2338 63.9246 54.6883C61.2932 56.1428 59.0727 58.2397 57.47 60.7836C55.8673 63.3275 54.9346 66.2356 54.7587 69.2371C54.5828 72.2386 55.1694 75.2358 56.464 77.9495C58.2196 81.5858 61.1516 84.5227 64.7849 86.2843C68.4182 88.046 72.5399 88.5293 76.4822 87.6558C77.7677 87.3638 79.0162 86.928 80.2041 86.3568C81.4032 85.7989 82.5304 85.098 83.5612 84.2696C86.7267 81.7611 88.9497 78.2547 89.868 74.3215C90.7864 70.3884 90.346 66.2602 88.6187 62.6093C87.1623 59.5765 84.8779 57.0176 82.0292 55.2278C79.1805 53.438 75.8837 52.4904 72.5194 52.4943V52.4651Z" fill="url(#paint13_linear)"/>
<path d="M72.5565 84.2478C69.1276 84.2518 65.8176 82.9918 63.2592 80.7088C60.7009 78.4258 59.0738 75.2799 58.6891 71.8726C58.3044 68.4654 59.1891 65.0358 61.174 62.2398C63.1588 59.4439 66.1046 57.4776 69.4481 56.7169C72.7916 55.9563 76.2981 56.4547 79.2972 58.1169C82.2963 59.7791 84.5775 62.4884 85.7046 65.7267C86.8318 68.9651 86.7257 72.5053 85.4068 75.6703C84.0879 78.8354 81.6486 81.4033 78.5554 82.883C76.684 83.7836 74.6334 84.2501 72.5565 84.2478ZM72.5565 59.4932C70.9326 59.4917 69.3291 59.856 67.8651 60.5589C66.4012 61.2619 65.1143 62.2855 64.1001 63.5538C63.0858 64.8221 62.3701 66.3025 62.0062 67.8852C61.6424 69.4679 61.6395 71.1122 61.998 72.6961C62.3565 74.28 63.067 75.7629 64.077 77.0347C65.0869 78.3064 66.3702 79.3344 67.8318 80.0424C69.2933 80.7504 70.8955 81.1201 72.5195 81.1242C74.1435 81.1283 75.7475 80.7666 77.2126 80.0661C79.4246 79.0083 81.2116 77.2303 82.2805 75.0237C83.3494 72.8171 83.6368 70.3127 83.0955 67.9213C82.5543 65.5299 81.2166 63.3933 79.3017 61.862C77.3868 60.3306 75.0084 59.4954 72.5565 59.4932Z" fill="url(#paint14_linear)"/>
<defs>
<linearGradient id="paint0_linear" x1="5327.81" y1="24370.5" x2="9619.94" y2="15088.4" gradientUnits="userSpaceOnUse">
<stop stop-color="#1A58FF"/>
<stop offset="0.05" stop-color="#1963FF"/>
<stop offset="0.23" stop-color="#1685FF"/>
<stop offset="0.42" stop-color="#13A0FF"/>
<stop offset="0.6" stop-color="#11B3FF"/>
<stop offset="0.8" stop-color="#10BEFF"/>
<stop offset="1" stop-color="#10C2FF"/>
</linearGradient>
<linearGradient id="paint1_linear" x1="2301.47" y1="6630.07" x2="1852" y2="7466.86" gradientUnits="userSpaceOnUse">
<stop stop-color="#E3F24C"/>
<stop offset="0.2" stop-color="#CAED62"/>
<stop offset="1" stop-color="#64D8BC"/>
</linearGradient>
<linearGradient id="paint2_linear" x1="1235.99" y1="3373.88" x2="1432.03" y2="3373.88" gradientUnits="userSpaceOnUse">
<stop stop-color="#FF059D"/>
<stop offset="0.45" stop-color="#FF9841"/>
<stop offset="1" stop-color="#FFF904"/>
</linearGradient>
<linearGradient id="paint3_linear" x1="2420.4" y1="23293.2" x2="6593.18" y2="19238.6" gradientUnits="userSpaceOnUse">
<stop stop-color="#FF059D"/>
<stop offset="0.45" stop-color="#FF9841"/>
<stop offset="1" stop-color="#FFF904"/>
</linearGradient>
<linearGradient id="paint4_linear" x1="851.928" y1="1023.17" x2="860.524" y2="979.52" gradientUnits="userSpaceOnUse">
<stop stop-color="#1A58FF"/>
<stop offset="0.05" stop-color="#1963FF"/>
<stop offset="0.23" stop-color="#1685FF"/>
<stop offset="0.42" stop-color="#13A0FF"/>
<stop offset="0.6" stop-color="#11B3FF"/>
<stop offset="0.8" stop-color="#10BEFF"/>
<stop offset="1" stop-color="#10C2FF"/>
</linearGradient>
<linearGradient id="paint5_linear" x1="648.231" y1="1065.48" x2="656.999" y2="1031.66" gradientUnits="userSpaceOnUse">
<stop stop-color="#1A58FF"/>
<stop offset="0.05" stop-color="#1963FF"/>
<stop offset="0.23" stop-color="#1685FF"/>
<stop offset="0.42" stop-color="#13A0FF"/>
<stop offset="0.6" stop-color="#11B3FF"/>
<stop offset="0.8" stop-color="#10BEFF"/>
<stop offset="1" stop-color="#10C2FF"/>
</linearGradient>
<linearGradient id="paint6_linear" x1="2372.6" y1="10554.2" x2="2903.21" y2="10031.5" gradientUnits="userSpaceOnUse">
<stop stop-color="#1A58FF"/>
<stop offset="0.05" stop-color="#1963FF"/>
<stop offset="0.23" stop-color="#1685FF"/>
<stop offset="0.42" stop-color="#13A0FF"/>
<stop offset="0.6" stop-color="#11B3FF"/>
<stop offset="0.8" stop-color="#10BEFF"/>
<stop offset="1" stop-color="#10C2FF"/>
</linearGradient>
<linearGradient id="paint7_linear" x1="1224.47" y1="946.257" x2="1232.87" y2="885.933" gradientUnits="userSpaceOnUse">
<stop stop-color="#1A58FF"/>
<stop offset="0.05" stop-color="#1963FF"/>
<stop offset="0.23" stop-color="#1685FF"/>
<stop offset="0.42" stop-color="#13A0FF"/>
<stop offset="0.6" stop-color="#11B3FF"/>
<stop offset="0.8" stop-color="#10BEFF"/>
<stop offset="1" stop-color="#10C2FF"/>
</linearGradient>
<linearGradient id="paint8_linear" x1="1514.4" y1="991.491" x2="1522.68" y2="918.975" gradientUnits="userSpaceOnUse">
<stop stop-color="#1A58FF"/>
<stop offset="0.05" stop-color="#1963FF"/>
<stop offset="0.23" stop-color="#1685FF"/>
<stop offset="0.42" stop-color="#13A0FF"/>
<stop offset="0.6" stop-color="#11B3FF"/>
<stop offset="0.8" stop-color="#10BEFF"/>
<stop offset="1" stop-color="#10C2FF"/>
</linearGradient>
<linearGradient id="paint9_linear" x1="1295.54" y1="1048.09" x2="1614.32" y2="1048.09" gradientUnits="userSpaceOnUse">
<stop stop-color="#1A58FF"/>
<stop offset="0.05" stop-color="#1963FF"/>
<stop offset="0.23" stop-color="#1685FF"/>
<stop offset="0.42" stop-color="#13A0FF"/>
<stop offset="0.6" stop-color="#11B3FF"/>
<stop offset="0.8" stop-color="#10BEFF"/>
<stop offset="1" stop-color="#10C2FF"/>
</linearGradient>
<linearGradient id="paint10_linear" x1="1045.93" y1="1086.97" x2="1245.7" y2="1086.97" gradientUnits="userSpaceOnUse">
<stop stop-color="#1A58FF"/>
<stop offset="0.05" stop-color="#1963FF"/>
<stop offset="0.23" stop-color="#1685FF"/>
<stop offset="0.42" stop-color="#13A0FF"/>
<stop offset="0.6" stop-color="#11B3FF"/>
<stop offset="0.8" stop-color="#10BEFF"/>
<stop offset="1" stop-color="#10C2FF"/>
</linearGradient>
<linearGradient id="paint11_linear" x1="305.862" y1="1411.19" x2="318.544" y2="1394.38" gradientUnits="userSpaceOnUse">
<stop stop-color="#1A58FF"/>
<stop offset="0.05" stop-color="#1963FF"/>
<stop offset="0.23" stop-color="#1685FF"/>
<stop offset="0.42" stop-color="#13A0FF"/>
<stop offset="0.6" stop-color="#11B3FF"/>
<stop offset="0.8" stop-color="#10BEFF"/>
<stop offset="1" stop-color="#10C2FF"/>
</linearGradient>
<linearGradient id="paint12_linear" x1="1834.17" y1="4935.73" x2="1666.26" y2="5090.22" gradientUnits="userSpaceOnUse">
<stop stop-color="#E3F24C"/>
<stop offset="0.2" stop-color="#CAED62"/>
<stop offset="1" stop-color="#64D8BC"/>
</linearGradient>
<linearGradient id="paint13_linear" x1="5098.64" y1="12567.6" x2="3329.42" y2="14191.8" gradientUnits="userSpaceOnUse">
<stop stop-color="#E3F24C"/>
<stop offset="0.2" stop-color="#CAED62"/>
<stop offset="1" stop-color="#64D8BC"/>
</linearGradient>
<linearGradient id="paint14_linear" x1="3222.21" y1="8571.2" x2="2437.44" y2="9291.57" gradientUnits="userSpaceOnUse">
<stop stop-color="#E3F24C"/>
<stop offset="0.2" stop-color="#CAED62"/>
<stop offset="1" stop-color="#64D8BC"/>
</linearGradient>
</defs>
</svg>
