<svg width="129" height="129" viewBox="0 0 129 129" fill="none" xmlns="http://www.w3.org/2000/svg">
<path d="M112.604 100.608H14.4513C14.0061 100.608 13.5791 100.431 13.2642 100.116C12.9494 99.8012 12.7725 99.3742 12.7725 98.9289V39.6892C12.7725 37.8165 13.5164 36.0206 14.8405 34.6965C16.1647 33.3723 17.9606 32.6284 19.8332 32.6284H54.6584V35.994H19.8018C18.8308 35.994 17.8993 36.3787 17.2111 37.0639C16.523 37.749 16.1344 38.6789 16.1302 39.6499V97.2814H110.886V39.6892C110.883 38.7188 110.497 37.789 109.81 37.1036C109.123 36.4182 108.192 36.0333 107.222 36.0333H72.4437V32.6676H107.292C109.165 32.6676 110.961 33.4115 112.285 34.7357C113.609 36.0598 114.353 37.8558 114.353 39.7284V98.9289C114.353 99.1554 114.308 99.3797 114.219 99.5881C114.13 99.7966 114 99.9849 113.837 100.142C113.673 100.299 113.48 100.421 113.268 100.501C113.056 100.581 112.83 100.617 112.604 100.608Z" fill="url(#paint0_linear)"/>
<path d="M34.4407 111.129H15.9572C14.355 111.132 12.7678 110.819 11.2869 110.207C9.80587 109.596 8.46013 108.698 7.32679 107.565C6.19346 106.433 5.29483 105.088 4.68239 103.607C4.06994 102.126 3.75575 100.539 3.75782 98.9372C3.75782 98.4919 3.93469 98.0649 4.24954 97.7501C4.56439 97.4352 4.99143 97.2583 5.4367 97.2583H34.4642C34.6854 97.2573 34.9045 97.2999 35.1091 97.3839C35.3137 97.4678 35.4998 97.5913 35.6565 97.7473C35.8132 97.9033 35.9376 98.0887 36.0224 98.2929C36.1073 98.4971 36.151 98.7161 36.151 98.9372V109.45C36.151 109.673 36.1066 109.894 36.0203 110.1C35.9339 110.305 35.8074 110.492 35.6482 110.648C35.489 110.805 35.3002 110.928 35.0928 111.01C34.8855 111.093 34.6638 111.133 34.4407 111.129ZM7.25681 100.616C7.58455 102.348 8.4298 103.94 9.681 105.182C10.5044 106.007 11.483 106.66 12.5602 107.104C13.6374 107.549 14.792 107.775 15.9572 107.771H32.7775V100.616H7.25681Z" fill="url(#paint1_linear)"/>
<path d="M111.121 111.129H92.614C92.1687 111.129 91.7416 110.952 91.4268 110.637C91.1119 110.322 90.9351 109.895 90.9351 109.45V98.9372C90.9351 98.4919 91.1119 98.0649 91.4268 97.75C91.7416 97.4352 92.1687 97.2583 92.614 97.2583H121.642C122.087 97.2583 122.514 97.4352 122.829 97.75C123.143 98.0649 123.32 98.4919 123.32 98.9372C123.318 102.171 122.032 105.272 119.744 107.558C117.457 109.845 114.355 111.129 111.121 111.129ZM94.2928 107.771H111.121C113.171 107.767 115.156 107.052 116.737 105.747C118.318 104.442 119.397 102.628 119.79 100.616H94.2928V107.771Z" fill="url(#paint2_linear)"/>
<path d="M79.5588 23.1987C79.1135 23.1987 78.6865 23.0218 78.3716 22.7069C78.0567 22.3921 77.8799 21.965 77.8799 21.5198V19.7075C77.909 19.2811 78.099 18.8816 78.4113 18.5898C78.7237 18.298 79.1353 18.1357 79.5627 18.1357C79.9902 18.1357 80.4016 18.298 80.714 18.5898C81.0264 18.8816 81.2164 19.2811 81.2455 19.7075V21.5198C81.2455 21.7409 81.2018 21.9599 81.117 22.1641C81.0321 22.3683 80.9077 22.5537 80.751 22.7097C80.5943 22.8657 80.4083 22.9892 80.2037 23.0731C79.9991 23.157 79.7799 23.1997 79.5588 23.1987Z" fill="black"/>
<path d="M79.5588 50.1471C79.1135 50.1471 78.6865 49.9702 78.3716 49.6554C78.0567 49.3405 77.8799 48.9135 77.8799 48.4682V26.2739C77.909 25.8475 78.099 25.448 78.4113 25.1562C78.7237 24.8644 79.1353 24.7021 79.5627 24.7021C79.9902 24.7021 80.4016 24.8644 80.714 25.1562C81.0264 25.448 81.2164 25.8475 81.2455 26.2739V48.4682C81.2455 48.6894 81.2018 48.9083 81.117 49.1125C81.0321 49.3167 80.9077 49.5022 80.751 49.6582C80.5943 49.8142 80.4083 49.9377 80.2037 50.0216C79.9991 50.1055 79.7799 50.1481 79.5588 50.1471Z" fill="black"/>
<path d="M79.5588 23.1987C79.1135 23.1987 78.6865 23.0218 78.3716 22.7069C78.0567 22.3921 77.8799 21.965 77.8799 21.5198V19.7075C77.909 19.2811 78.099 18.8816 78.4113 18.5898C78.7237 18.298 79.1353 18.1357 79.5627 18.1357C79.9902 18.1357 80.4016 18.298 80.714 18.5898C81.0264 18.8816 81.2164 19.2811 81.2455 19.7075V21.5198C81.2455 21.7409 81.2018 21.9599 81.117 22.1641C81.0321 22.3683 80.9077 22.5537 80.751 22.7097C80.5943 22.8657 80.4083 22.9892 80.2037 23.0731C79.9991 23.157 79.7799 23.1997 79.5588 23.1987Z" fill="url(#paint3_linear)"/>
<path d="M79.5588 50.1471C79.1135 50.1471 78.6865 49.9702 78.3716 49.6554C78.0567 49.3405 77.8799 48.9135 77.8799 48.4682V26.2739C77.909 25.8475 78.099 25.448 78.4113 25.1562C78.7237 24.8644 79.1353 24.7021 79.5627 24.7021C79.9902 24.7021 80.4016 24.8644 80.714 25.1562C81.0264 25.448 81.2164 25.8475 81.2455 26.2739V48.4682C81.2455 48.6894 81.2018 48.9083 81.117 49.1125C81.0321 49.3167 80.9077 49.5022 80.751 49.6582C80.5943 49.8142 80.4083 49.9377 80.2037 50.0216C79.9991 50.1055 79.7799 50.1481 79.5588 50.1471Z" fill="url(#paint4_linear)"/>
<path d="M67.0847 13.0626C66.8623 13.0657 66.6415 13.0246 66.435 12.9416C66.2286 12.8586 66.0408 12.7355 65.8824 12.5793C65.724 12.423 65.5982 12.2369 65.5123 12.0317C65.4265 11.8264 65.3823 11.6062 65.3823 11.3837V9.57928C65.3823 9.13401 65.5592 8.70698 65.874 8.39213C66.1889 8.07727 66.616 7.90039 67.0612 7.90039C67.5065 7.90039 67.9335 8.07727 68.2484 8.39213C68.5632 8.70698 68.7401 9.13401 68.7401 9.57928V11.3837C68.7402 11.8249 68.5665 12.2484 68.2567 12.5626C67.947 12.8768 67.5259 13.0564 67.0847 13.0626Z" fill="black"/>
<path d="M67.0842 31.2312C66.8618 31.2343 66.641 31.1932 66.4346 31.1102C66.2281 31.0273 66.0403 30.9041 65.8819 30.7479C65.7235 30.5917 65.5977 30.4055 65.5118 30.2003C65.426 29.9951 65.3818 29.7748 65.3818 29.5523V16.1369C65.3818 15.6916 65.5587 15.2646 65.8736 14.9497C66.1884 14.6349 66.6155 14.458 67.0607 14.458C67.506 14.458 67.933 14.6349 68.2479 14.9497C68.5627 15.2646 68.7396 15.6916 68.7396 16.1369V29.5523C68.7397 29.9936 68.566 30.4171 68.2563 30.7312C67.9465 31.0454 67.5254 31.225 67.0842 31.2312Z" fill="black"/>
<path d="M67.0847 13.0626C66.8623 13.0657 66.6415 13.0246 66.435 12.9416C66.2286 12.8586 66.0408 12.7355 65.8824 12.5793C65.724 12.423 65.5982 12.2369 65.5123 12.0317C65.4265 11.8264 65.3823 11.6062 65.3823 11.3837V9.57928C65.3823 9.13401 65.5592 8.70698 65.874 8.39213C66.1889 8.07727 66.616 7.90039 67.0612 7.90039C67.5065 7.90039 67.9335 8.07727 68.2484 8.39213C68.5632 8.70698 68.7401 9.13401 68.7401 9.57928V11.3837C68.7402 11.8249 68.5665 12.2484 68.2567 12.5626C67.947 12.8768 67.5259 13.0564 67.0847 13.0626Z" fill="url(#paint5_linear)"/>
<path d="M67.0842 31.2312C66.8618 31.2343 66.641 31.1932 66.4346 31.1102C66.2281 31.0273 66.0403 30.9041 65.8819 30.7479C65.7235 30.5917 65.5977 30.4055 65.5118 30.2003C65.426 29.9951 65.3818 29.7748 65.3818 29.5523V16.1369C65.3818 15.6916 65.5587 15.2646 65.8736 14.9497C66.1884 14.6349 66.6155 14.458 67.0607 14.458C67.506 14.458 67.933 14.6349 68.2479 14.9497C68.5627 15.2646 68.7396 15.6916 68.7396 16.1369V29.5523C68.7397 29.9936 68.566 30.4171 68.2563 30.7312C67.9465 31.0454 67.5254 31.225 67.0842 31.2312Z" fill="url(#paint6_linear)"/>
<path d="M59.3181 13.0626C58.8728 13.0626 58.4457 12.8857 58.1309 12.5709C57.816 12.256 57.6392 11.829 57.6392 11.3837V9.57928C57.6392 9.13401 57.816 8.70698 58.1309 8.39213C58.4457 8.07727 58.8728 7.90039 59.3181 7.90039C59.7633 7.90039 60.1903 8.07727 60.5052 8.39213C60.8201 8.70698 60.9969 9.13401 60.9969 9.57928V11.3837C60.9969 11.829 60.8201 12.256 60.5052 12.5709C60.1903 12.8857 59.7633 13.0626 59.3181 13.0626Z" fill="black"/>
<path d="M59.3176 31.2312C58.8723 31.2312 58.4452 31.0543 58.1304 30.7395C57.8155 30.4246 57.6387 29.9976 57.6387 29.5523V16.1369C57.6387 15.6916 57.8155 15.2646 58.1304 14.9497C58.4452 14.6349 58.8723 14.458 59.3176 14.458C59.7628 14.458 60.1899 14.6349 60.5047 14.9497C60.8196 15.2646 60.9964 15.6916 60.9964 16.1369V29.5523C60.9964 29.9976 60.8196 30.4246 60.5047 30.7395C60.1899 31.0543 59.7628 31.2312 59.3176 31.2312Z" fill="black"/>
<path d="M59.3181 13.0626C58.8728 13.0626 58.4457 12.8857 58.1309 12.5709C57.816 12.256 57.6392 11.829 57.6392 11.3837V9.57928C57.6392 9.13401 57.816 8.70698 58.1309 8.39213C58.4457 8.07727 58.8728 7.90039 59.3181 7.90039C59.7633 7.90039 60.1903 8.07727 60.5052 8.39213C60.8201 8.70698 60.9969 9.13401 60.9969 9.57928V11.3837C60.9969 11.829 60.8201 12.256 60.5052 12.5709C60.1903 12.8857 59.7633 13.0626 59.3181 13.0626Z" fill="url(#paint7_linear)"/>
<path d="M59.3176 31.2312C58.8723 31.2312 58.4452 31.0543 58.1304 30.7395C57.8155 30.4246 57.6387 29.9976 57.6387 29.5523V16.1369C57.6387 15.6916 57.8155 15.2646 58.1304 14.9497C58.4452 14.6349 58.8723 14.458 59.3176 14.458C59.7628 14.458 60.1899 14.6349 60.5047 14.9497C60.8196 15.2646 60.9964 15.6916 60.9964 16.1369V29.5523C60.9964 29.9976 60.8196 30.4246 60.5047 30.7395C60.1899 31.0543 59.7628 31.2312 59.3176 31.2312Z" fill="url(#paint8_linear)"/>
<path d="M47.4867 23.1987C47.2629 23.2039 47.0404 23.1643 46.8321 23.0823C46.6239 23.0003 46.4342 22.8774 46.2741 22.721C46.114 22.5646 45.9868 22.3777 45.9 22.1714C45.8132 21.9652 45.7685 21.7436 45.7686 21.5198V19.7075C45.7977 19.2811 45.9877 18.8816 46.3 18.5898C46.6124 18.298 47.0239 18.1357 47.4514 18.1357C47.8788 18.1357 48.2903 18.298 48.6027 18.5898C48.9151 18.8816 49.1051 19.2811 49.1342 19.7075V21.5198C49.1343 21.9597 48.9617 22.382 48.6536 22.696C48.3455 23.0099 47.9265 23.1904 47.4867 23.1987Z" fill="black"/>
<path d="M47.4862 50.155C47.2624 50.1602 47.0399 50.1206 46.8316 50.0386C46.6234 49.9566 46.4337 49.8337 46.2736 49.6773C46.1135 49.5209 45.9863 49.334 45.8995 49.1277C45.8127 48.9214 45.768 48.6999 45.7681 48.4761V26.2739C45.7972 25.8475 45.9872 25.448 46.2996 25.1562C46.6119 24.8644 47.0234 24.7021 47.4509 24.7021C47.8783 24.7021 48.2898 24.8644 48.6022 25.1562C48.9146 25.448 49.1046 25.8475 49.1337 26.2739V48.4761C49.1338 48.916 48.9612 49.3383 48.6531 49.6523C48.345 49.9662 47.926 50.1467 47.4862 50.155Z" fill="black"/>
<path d="M47.4867 23.1987C47.2629 23.2039 47.0404 23.1643 46.8321 23.0823C46.6239 23.0003 46.4342 22.8774 46.2741 22.721C46.114 22.5646 45.9868 22.3777 45.9 22.1714C45.8132 21.9652 45.7685 21.7436 45.7686 21.5198V19.7075C45.7977 19.2811 45.9877 18.8816 46.3 18.5898C46.6124 18.298 47.0239 18.1357 47.4514 18.1357C47.8788 18.1357 48.2903 18.298 48.6027 18.5898C48.9151 18.8816 49.1051 19.2811 49.1342 19.7075V21.5198C49.1343 21.9597 48.9617 22.382 48.6536 22.696C48.3455 23.0099 47.9265 23.1904 47.4867 23.1987Z" fill="url(#paint9_linear)"/>
<path d="M47.4862 50.155C47.2624 50.1602 47.0399 50.1206 46.8316 50.0386C46.6234 49.9566 46.4337 49.8337 46.2736 49.6773C46.1135 49.5209 45.9863 49.334 45.8995 49.1277C45.8127 48.9214 45.768 48.6999 45.7681 48.4761V26.2739C45.7972 25.8475 45.9872 25.448 46.2996 25.1562C46.6119 24.8644 47.0234 24.7021 47.4509 24.7021C47.8783 24.7021 48.2898 24.8644 48.6022 25.1562C48.9146 25.448 49.1046 25.8475 49.1337 26.2739V48.4761C49.1338 48.916 48.9612 49.3383 48.6531 49.6523C48.345 49.9662 47.926 50.1467 47.4862 50.155Z" fill="url(#paint10_linear)"/>
<path d="M99.439 66.0885H102.797V69.4384H99.439V66.0885ZM99.439 88.7535H102.797V85.4035H99.439V88.7535ZM99.439 63.0053H102.797V59.6239H99.439V63.0053ZM99.439 82.3204H102.797V78.9626H99.439V82.3204ZM99.439 56.5643H102.797V53.2144H99.439V56.5643ZM99.439 75.8794H102.797V72.5294H99.439V75.8794Z" fill="url(#paint11_linear)"/>
<path d="M24.0615 66.0885H27.4115V69.4384H24.0615V66.0885ZM24.0615 88.7535H27.4115V85.4035H24.0615V88.7535ZM24.0615 63.0053H27.4115V59.6239H24.0615V63.0053ZM24.0615 82.3204H27.4115V78.9626H24.0615V82.3204ZM24.0615 56.5643H27.4115V53.2144H24.0615V56.5643ZM24.0615 75.8794H27.4115V72.5294H24.0615V75.8794Z" fill="url(#paint12_linear)"/>
<path d="M92.6134 111.129H34.4406C33.9953 111.129 33.5683 110.952 33.2534 110.637C32.9386 110.322 32.7617 109.895 32.7617 109.45V98.9372C32.7617 98.4919 32.9386 98.0649 33.2534 97.75C33.5683 97.4352 33.9953 97.2583 34.4406 97.2583H92.6134C93.0587 97.2583 93.4857 97.4352 93.8005 97.75C94.1154 98.0649 94.2922 98.4919 94.2922 98.9372V109.45C94.2922 109.895 94.1154 110.322 93.8005 110.637C93.4857 110.952 93.0587 111.129 92.6134 111.129ZM36.1273 107.771H90.9345V100.616H36.1273V107.771Z" fill="url(#paint13_linear)"/>
<path d="M63.5229 90.4248C57.7358 90.4183 52.1299 88.4058 47.6601 84.7301C43.1902 81.0543 40.1329 75.9427 39.0088 70.2658C37.8847 64.5889 38.7634 58.6979 41.4952 53.5962C44.227 48.4944 48.6429 44.4975 53.9909 42.2861L55.2697 45.4242C50.6526 47.3308 46.8399 50.7799 44.4816 55.1834C42.1232 59.5868 41.3654 64.672 42.3372 69.5717C43.3091 74.4715 45.9505 78.8824 49.811 82.0524C53.6715 85.2224 58.512 86.9551 63.5072 86.9551C68.5024 86.9551 73.343 85.2224 77.2035 82.0524C81.0639 78.8824 83.7053 74.4715 84.6772 69.5717C85.649 64.672 84.8912 59.5868 82.5329 55.1834C80.1746 50.7799 76.3618 47.3308 71.7447 45.4242L73.0235 42.2861C77.6042 44.1786 81.521 47.3866 84.2789 51.5046C87.0367 55.6226 88.5119 60.4657 88.518 65.4219C88.5055 72.0479 85.8684 78.3991 81.1838 83.0851C76.4993 87.7711 70.1489 90.4103 63.5229 90.4248Z" fill="url(#paint14_linear)"/>
<path d="M63.5235 79.088C63.3032 79.0878 63.0851 79.044 62.8818 78.9592C62.6785 78.8744 62.494 78.7502 62.3388 78.5938L46.2952 62.558C46.0615 62.3212 45.9026 62.0209 45.8385 61.6944C45.7743 61.368 45.8076 61.0299 45.9343 60.7222C46.0627 60.4128 46.2807 60.1488 46.5603 59.9642C46.8399 59.7797 47.1684 59.683 47.5034 59.6866H52.9951V29.5529C52.9951 29.1076 53.172 28.6806 53.4868 28.3658C53.8017 28.0509 54.2287 27.874 54.674 27.874H72.4436C72.8888 27.874 73.3158 28.0509 73.6307 28.3658C73.9455 28.6806 74.1225 29.1076 74.1225 29.5529V59.6866H79.6142C79.9492 59.683 80.2776 59.7797 80.5572 59.9642C80.8368 60.1488 81.0549 60.4128 81.1832 60.7222C81.3099 61.0299 81.3432 61.368 81.2791 61.6944C81.2149 62.0209 81.056 62.3212 80.8223 62.558L64.7787 78.5938C64.6153 78.7589 64.4193 78.8881 64.2032 78.9732C63.987 79.0583 63.7556 79.0974 63.5235 79.088ZM51.5359 63.0444L63.5235 75.032L75.511 63.0444H72.4436C71.9983 63.0444 71.5713 62.8675 71.2564 62.5527C70.9416 62.2378 70.7646 61.8108 70.7646 61.3655V31.2318H56.3136V61.3655C56.3136 61.8108 56.1368 62.2378 55.8219 62.5527C55.5071 62.8675 55.08 63.0444 54.6347 63.0444H51.5359Z" fill="#FFF904"/>
<defs>
<linearGradient id="paint0_linear" x1="48966.5" y1="9806.24" x2="53857.4" y2="127.535" gradientUnits="userSpaceOnUse">
<stop stop-color="#1A58FF"/>
<stop offset="0.05" stop-color="#1963FF"/>
<stop offset="0.23" stop-color="#1685FF"/>
<stop offset="0.42" stop-color="#13A0FF"/>
<stop offset="0.6" stop-color="#11B3FF"/>
<stop offset="0.8" stop-color="#10BEFF"/>
<stop offset="1" stop-color="#10C2FF"/>
</linearGradient>
<linearGradient id="paint1_linear" x1="15682.7" y1="1748.99" x2="15407.2" y2="2339.72" gradientUnits="userSpaceOnUse">
<stop stop-color="#E3F24C"/>
<stop offset="0.2" stop-color="#CAED62"/>
<stop offset="1" stop-color="#64D8BC"/>
</linearGradient>
<linearGradient id="paint2_linear" x1="19304.5" y1="1720.79" x2="18985.4" y2="2404.41" gradientUnits="userSpaceOnUse">
<stop stop-color="#E3F24C"/>
<stop offset="0.2" stop-color="#CAED62"/>
<stop offset="1" stop-color="#64D8BC"/>
</linearGradient>
<linearGradient id="paint3_linear" x1="1919.64" y1="141.165" x2="1822.85" y2="200.22" gradientUnits="userSpaceOnUse">
<stop stop-color="#E3F24C"/>
<stop offset="0.2" stop-color="#CAED62"/>
<stop offset="1" stop-color="#64D8BC"/>
</linearGradient>
<linearGradient id="paint4_linear" x1="1955.45" y1="937.922" x2="1824.56" y2="953.813" gradientUnits="userSpaceOnUse">
<stop stop-color="#E3F24C"/>
<stop offset="0.2" stop-color="#CAED62"/>
<stop offset="1" stop-color="#64D8BC"/>
</linearGradient>
<linearGradient id="paint5_linear" x1="1849.45" y1="66.648" x2="1777.18" y2="109.826" gradientUnits="userSpaceOnUse">
<stop stop-color="#E3F24C"/>
<stop offset="0.2" stop-color="#CAED62"/>
<stop offset="1" stop-color="#64D8BC"/>
</linearGradient>
<linearGradient id="paint6_linear" x1="1875.81" y1="348.92" x2="1781.01" y2="366.34" gradientUnits="userSpaceOnUse">
<stop stop-color="#E3F24C"/>
<stop offset="0.2" stop-color="#CAED62"/>
<stop offset="1" stop-color="#64D8BC"/>
</linearGradient>
<linearGradient id="paint7_linear" x1="1808.44" y1="66.6462" x2="1736.17" y2="109.824" gradientUnits="userSpaceOnUse">
<stop stop-color="#E3F24C"/>
<stop offset="0.2" stop-color="#CAED62"/>
<stop offset="1" stop-color="#64D8BC"/>
</linearGradient>
<linearGradient id="paint8_linear" x1="1834.8" y1="348.916" x2="1740" y2="366.336" gradientUnits="userSpaceOnUse">
<stop stop-color="#E3F24C"/>
<stop offset="0.2" stop-color="#CAED62"/>
<stop offset="1" stop-color="#64D8BC"/>
</linearGradient>
<linearGradient id="paint9_linear" x1="1749.92" y1="141.176" x2="1653.13" y2="200.229" gradientUnits="userSpaceOnUse">
<stop stop-color="#E3F24C"/>
<stop offset="0.2" stop-color="#CAED62"/>
<stop offset="1" stop-color="#64D8BC"/>
</linearGradient>
<linearGradient id="paint10_linear" x1="1785.73" y1="938.22" x2="1654.78" y2="954.121" gradientUnits="userSpaceOnUse">
<stop stop-color="#E3F24C"/>
<stop offset="0.2" stop-color="#CAED62"/>
<stop offset="1" stop-color="#64D8BC"/>
</linearGradient>
<linearGradient id="paint11_linear" x1="1982.76" y1="3817.87" x2="2195.26" y2="3791.29" gradientUnits="userSpaceOnUse">
<stop stop-color="#FF059D"/>
<stop offset="0.45" stop-color="#FF9841"/>
<stop offset="1" stop-color="#FFF904"/>
</linearGradient>
<linearGradient id="paint12_linear" x1="1581.12" y1="3817.87" x2="1793.13" y2="3791.41" gradientUnits="userSpaceOnUse">
<stop stop-color="#FF059D"/>
<stop offset="0.45" stop-color="#FF9841"/>
<stop offset="1" stop-color="#FFF904"/>
</linearGradient>
<linearGradient id="paint13_linear" x1="31208.4" y1="2269.51" x2="31379.9" y2="1262.07" gradientUnits="userSpaceOnUse">
<stop stop-color="#1A58FF"/>
<stop offset="0.05" stop-color="#1963FF"/>
<stop offset="0.23" stop-color="#1685FF"/>
<stop offset="0.42" stop-color="#13A0FF"/>
<stop offset="0.6" stop-color="#11B3FF"/>
<stop offset="0.8" stop-color="#10BEFF"/>
<stop offset="1" stop-color="#10C2FF"/>
</linearGradient>
<linearGradient id="paint14_linear" x1="27436.2" y1="3017.25" x2="25170" y2="5178.03" gradientUnits="userSpaceOnUse">
<stop stop-color="#E3F24C"/>
<stop offset="0.2" stop-color="#CAED62"/>
<stop offset="1" stop-color="#64D8BC"/>
</linearGradient>
</defs>
</svg>
