<svg width="100" height="100" viewBox="0 0 100 100" fill="none" xmlns="http://www.w3.org/2000/svg">
<path d="M15.4418 52.7523H12.8389V34.4162C12.8389 34.2453 12.8726 34.0761 12.938 33.9182C13.0034 33.7603 13.0992 33.6168 13.2201 33.4959C13.3409 33.3751 13.4844 33.2792 13.6423 33.2138C13.8002 33.1484 13.9694 33.1147 14.1403 33.1147H21.8032V35.7177H15.4418V52.7523Z" fill="url(#paint0_linear)"/>
<path d="M76.9566 22.9822H67.6882C67.343 22.9822 67.0119 22.8451 66.7679 22.6011C66.5238 22.357 66.3867 22.0259 66.3867 21.6808V11.9502H68.9897V20.3793H76.9566V22.9822Z" fill="url(#paint1_linear)"/>
<path d="M60.456 24.4237H47.3015C46.9563 24.4237 46.6253 24.2866 46.3812 24.0425C46.1371 23.7985 46 23.4674 46 23.1223C46 22.7771 46.1371 22.4461 46.3812 22.202C46.6253 21.9579 46.9563 21.8208 47.3015 21.8208H60.456C60.8012 21.8208 61.1322 21.9579 61.3763 22.202C61.6203 22.4461 61.7575 22.7771 61.7575 23.1223C61.7575 23.4674 61.6203 23.7985 61.3763 24.0425C61.1322 24.2866 60.8012 24.4237 60.456 24.4237Z" fill="url(#paint2_linear)"/>
<path d="M58.3517 32.0805H47.3015C46.9563 32.0805 46.6253 31.9433 46.3812 31.6993C46.1371 31.4552 46 31.1242 46 30.779C46 30.4338 46.1371 30.1028 46.3812 29.8587C46.6253 29.6147 46.9563 29.4775 47.3015 29.4775H58.3517C58.6969 29.4775 59.028 29.6147 59.2721 29.8587C59.5161 30.1028 59.6532 30.4338 59.6532 30.779C59.6532 31.1242 59.5161 31.4552 59.2721 31.6993C59.028 31.9433 58.6969 32.0805 58.3517 32.0805Z" fill="url(#paint3_linear)"/>
<path d="M50.9099 39.6581H31.2907C30.9455 39.6581 30.6145 39.521 30.3704 39.2769C30.1263 39.0328 29.9893 38.7018 29.9893 38.3566C29.9893 38.0115 30.1263 37.6804 30.3704 37.4364C30.6145 37.1923 30.9455 37.0552 31.2907 37.0552H50.9099C51.2551 37.0552 51.5862 37.1923 51.8303 37.4364C52.0744 37.6804 52.2114 38.0115 52.2114 38.3566C52.2114 38.7018 52.0744 39.0328 51.8303 39.2769C51.5862 39.521 51.2551 39.6581 50.9099 39.6581Z" fill="url(#paint4_linear)"/>
<path d="M36.0022 33.0713C34.6478 33.0713 33.3239 32.6697 32.1977 31.9172C31.0716 31.1647 30.1939 30.0953 29.6756 28.844C29.1573 27.5927 29.0217 26.2158 29.2859 24.8874C29.5501 23.5591 30.2023 22.3389 31.16 21.3812C32.1177 20.4235 33.3379 19.7713 34.6662 19.5071C35.9946 19.2428 37.3715 19.3785 38.6228 19.8968C39.8741 20.4151 40.9436 21.2928 41.696 22.4189C42.4485 23.545 42.8501 24.869 42.8501 26.2234C42.8485 28.0391 42.1265 29.7799 40.8426 31.0638C39.5587 32.3477 37.8178 33.0697 36.0022 33.0713ZM36.0022 21.9845C35.1602 21.9845 34.3372 22.2342 33.6371 22.702C32.937 23.1697 32.3914 23.8346 32.0692 24.6125C31.7469 25.3904 31.6626 26.2464 31.8268 27.0722C31.9911 27.898 32.3966 28.6565 32.9919 29.2519C33.5873 29.8472 34.3459 30.2527 35.1717 30.417C35.9975 30.5812 36.8534 30.4969 37.6313 30.1747C38.4092 29.8525 39.0741 29.3068 39.5418 28.6068C40.0096 27.9067 40.2593 27.0836 40.2593 26.2416C40.2593 25.1126 39.8108 24.0298 39.0125 23.2314C38.2141 22.433 37.1312 21.9845 36.0022 21.9845Z" fill="url(#paint5_linear)"/>
<path d="M31.7888 80.8859V78.2891H34.3856V80.8859H31.7888ZM29.3926 80.8859V78.2891H26.7958V80.8859H29.3926ZM24.4057 80.8859V78.2891H21.8027V80.8859H24.4057Z" fill="url(#paint6_linear)"/>
<path d="M46.2752 56.0547H43.8425C43.4828 56.0547 43.1379 55.9118 42.8836 55.6575C42.6292 55.4031 42.4863 55.0582 42.4863 54.6985C42.4863 54.3388 42.6292 53.9938 42.8836 53.7395C43.1379 53.4852 43.4828 53.3423 43.8425 53.3423H46.2752C46.4533 53.3423 46.6296 53.3774 46.7942 53.4455C46.9587 53.5137 47.1082 53.6136 47.2342 53.7395C47.3601 53.8654 47.46 54.0149 47.5282 54.1795C47.5963 54.344 47.6314 54.5204 47.6314 54.6985C47.6314 54.8766 47.5963 55.0529 47.5282 55.2175C47.46 55.382 47.3601 55.5315 47.2342 55.6575C47.1082 55.7834 46.9587 55.8833 46.7942 55.9515C46.6296 56.0196 46.4533 56.0547 46.2752 56.0547Z" fill="black"/>
<path d="M39.0436 56.0547H25.7371C25.3774 56.0547 25.0324 55.9118 24.7781 55.6575C24.5238 55.4031 24.3809 55.0582 24.3809 54.6985C24.3809 54.3388 24.5238 53.9938 24.7781 53.7395C25.0324 53.4852 25.3774 53.3423 25.7371 53.3423H39.0436C39.4033 53.3423 39.7483 53.4852 40.0026 53.7395C40.257 53.9938 40.3999 54.3388 40.3999 54.6985C40.3999 55.0582 40.257 55.4031 40.0026 55.6575C39.7483 55.9118 39.4033 56.0547 39.0436 56.0547Z" fill="black"/>
<path d="M46.2742 55.9999H43.8415C43.4963 55.9999 43.1653 55.8628 42.9213 55.6187C42.6772 55.3746 42.54 55.0436 42.54 54.6984C42.54 54.3533 42.6772 54.0222 42.9213 53.7782C43.1653 53.5341 43.4963 53.397 43.8415 53.397H46.2742C46.6193 53.397 46.9504 53.5341 47.1945 53.7782C47.4386 54.0222 47.5756 54.3533 47.5756 54.6984C47.5756 55.0436 47.4386 55.3746 47.1945 55.6187C46.9504 55.8628 46.6193 55.9999 46.2742 55.9999Z" fill="url(#paint7_linear)"/>
<path d="M39.0435 55.9999H25.737C25.3919 55.9999 25.0608 55.8628 24.8167 55.6187C24.5726 55.3746 24.4355 55.0436 24.4355 54.6984C24.4355 54.3533 24.5726 54.0222 24.8167 53.7782C25.0608 53.5341 25.3919 53.397 25.737 53.397H39.0435C39.3887 53.397 39.7198 53.5341 39.9639 53.7782C40.2079 54.0222 40.345 54.3533 40.345 54.6984C40.345 55.0436 40.2079 55.3746 39.9639 55.6187C39.7198 55.8628 39.3887 55.9999 39.0435 55.9999Z" fill="url(#paint8_linear)"/>
<path d="M75.8242 59.442L77.5392 56.4499L79.2543 59.442H75.8242ZM79.2543 53.9017L77.5392 50.9095L75.8242 53.9017H79.2543ZM75.8242 47.7349L77.5392 44.7488L79.2543 47.7349H75.8242ZM79.2543 42.2006L77.5392 39.2085L75.8242 42.2006H79.2543Z" fill="url(#paint9_linear)"/>
<path d="M23.1166 44.8151H20.5137V11.9318C20.5137 11.7609 20.5474 11.5917 20.6128 11.4338C20.6782 11.2759 20.774 11.1324 20.8949 11.0116C21.0157 10.8907 21.1592 10.7949 21.3171 10.7294C21.475 10.664 21.6442 10.6304 21.8151 10.6304H67.701C67.8777 10.6297 68.0526 10.6656 68.2148 10.7357C68.377 10.8058 68.523 10.9087 68.6436 11.0378L77.918 20.7684C78.146 21.0106 78.2741 21.3299 78.2768 21.6624V30.7848H75.6679V22.2037L67.1536 13.2333H23.1166V44.8151Z" fill="url(#paint10_linear)"/>
<path d="M51.8513 88.1837H49.2666V82.2541C49.2682 79.7868 50.2491 77.421 51.9938 75.6763C53.7384 73.9317 56.1042 72.9508 58.5715 72.9492H86.632V75.5522H58.5715C56.7973 75.5522 55.0957 76.257 53.8411 77.5115C52.5865 78.7661 51.8817 80.4677 51.8817 82.2419L51.8513 88.1837Z" fill="url(#paint11_linear)"/>
<path d="M83.4768 89.3997H17.3818C16.1774 89.3981 15.0229 88.9189 14.1713 88.0673C13.3197 87.2157 12.8405 86.0611 12.8389 84.8567V44.8154C12.8389 44.4702 12.976 44.1392 13.2201 43.8951C13.4642 43.651 13.7952 43.5139 14.1403 43.5139H54.8324L61.0722 33.9171L62.6838 31.6243C63.152 30.9612 63.7724 30.4201 64.4931 30.0466C65.2138 29.673 66.0136 29.4778 66.8254 29.4775H86.7183C87.0635 29.4775 87.3946 29.6147 87.6386 29.8587C87.8827 30.1028 88.0198 30.4338 88.0198 30.779V84.8567C88.0182 86.0611 87.539 87.2157 86.6874 88.0673C85.8358 88.9189 84.6812 89.3981 83.4768 89.3997ZM15.4418 46.1168V84.8567C15.4418 85.3712 15.6462 85.8647 16.01 86.2285C16.3739 86.5923 16.8673 86.7967 17.3818 86.7967H83.4768C83.7316 86.7967 83.9838 86.7466 84.2192 86.6491C84.4546 86.5516 84.6684 86.4087 84.8486 86.2285C85.0287 86.0484 85.1717 85.8345 85.2692 85.5991C85.3667 85.3637 85.4168 85.1115 85.4168 84.8567V32.0805H66.8254C66.4305 32.0807 66.0416 32.1759 65.6913 32.3579C65.341 32.54 65.0395 32.8036 64.8124 33.1265L63.2311 35.3767L56.6265 45.5269C56.5113 45.7121 56.351 45.865 56.1606 45.9714C55.9703 46.0777 55.756 46.134 55.5379 46.1351L15.4418 46.1168Z" fill="url(#paint12_linear)"/>
<defs>
<linearGradient id="paint0_linear" x1="23.3661" y1="34.8237" x2="8.72161" y2="48.2701" gradientUnits="userSpaceOnUse">
<stop stop-color="#E3F24C"/>
<stop offset="0.2" stop-color="#CAED62"/>
<stop offset="1" stop-color="#64D8BC"/>
</linearGradient>
<linearGradient id="paint1_linear" x1="67.4084" y1="23.1039" x2="73.3562" y2="15.2282" gradientUnits="userSpaceOnUse">
<stop stop-color="#FF059D"/>
<stop offset="0.45" stop-color="#FF9841"/>
<stop offset="1" stop-color="#FFF904"/>
</linearGradient>
<linearGradient id="paint2_linear" x1="22532.4" y1="103.006" x2="22518.8" y2="178.365" gradientUnits="userSpaceOnUse">
<stop stop-color="#E3F24C"/>
<stop offset="0.2" stop-color="#CAED62"/>
<stop offset="1" stop-color="#64D8BC"/>
</linearGradient>
<linearGradient id="paint3_linear" x1="19493.1" y1="145.672" x2="19479.5" y2="210.838" gradientUnits="userSpaceOnUse">
<stop stop-color="#E3F24C"/>
<stop offset="0.2" stop-color="#CAED62"/>
<stop offset="1" stop-color="#64D8BC"/>
</linearGradient>
<linearGradient id="paint4_linear" x1="31338.8" y1="176.52" x2="31325.2" y2="282.737" gradientUnits="userSpaceOnUse">
<stop stop-color="#E3F24C"/>
<stop offset="0.2" stop-color="#CAED62"/>
<stop offset="1" stop-color="#64D8BC"/>
</linearGradient>
<linearGradient id="paint5_linear" x1="31.8789" y1="31.6847" x2="40.1255" y2="20.7621" gradientUnits="userSpaceOnUse">
<stop stop-color="#1A58FF"/>
<stop offset="0.05" stop-color="#1963FF"/>
<stop offset="0.23" stop-color="#1685FF"/>
<stop offset="0.42" stop-color="#13A0FF"/>
<stop offset="0.6" stop-color="#11B3FF"/>
<stop offset="0.8" stop-color="#10BEFF"/>
<stop offset="1" stop-color="#10C2FF"/>
</linearGradient>
<linearGradient id="paint6_linear" x1="17290.6" y1="434.629" x2="17298.4" y2="384.182" gradientUnits="userSpaceOnUse">
<stop stop-color="#FF059D"/>
<stop offset="0.45" stop-color="#FF9841"/>
<stop offset="1" stop-color="#FFF904"/>
</linearGradient>
<linearGradient id="paint7_linear" x1="7131.65" y1="280.971" x2="7083.42" y2="366.68" gradientUnits="userSpaceOnUse">
<stop stop-color="#E3F24C"/>
<stop offset="0.2" stop-color="#CAED62"/>
<stop offset="1" stop-color="#64D8BC"/>
</linearGradient>
<linearGradient id="paint8_linear" x1="22270.3" y1="253.979" x2="22250.8" y2="363.413" gradientUnits="userSpaceOnUse">
<stop stop-color="#E3F24C"/>
<stop offset="0.2" stop-color="#CAED62"/>
<stop offset="1" stop-color="#64D8BC"/>
</linearGradient>
<linearGradient id="paint9_linear" x1="5109.13" y1="1540.54" x2="4997.41" y2="1557.93" gradientUnits="userSpaceOnUse">
<stop stop-color="#E3F24C"/>
<stop offset="0.2" stop-color="#CAED62"/>
<stop offset="1" stop-color="#64D8BC"/>
</linearGradient>
<linearGradient id="paint10_linear" x1="79515.3" y1="2827.11" x2="80984.1" y2="-459.596" gradientUnits="userSpaceOnUse">
<stop stop-color="#FF059D"/>
<stop offset="0.45" stop-color="#FF9841"/>
<stop offset="1" stop-color="#FFF904"/>
</linearGradient>
<linearGradient id="paint11_linear" x1="53218.7" y1="2407.93" x2="53524.8" y2="1413.72" gradientUnits="userSpaceOnUse">
<stop stop-color="#FF059D"/>
<stop offset="0.45" stop-color="#FF9841"/>
<stop offset="1" stop-color="#FFF904"/>
</linearGradient>
<linearGradient id="paint12_linear" x1="103332" y1="9616.42" x2="108284" y2="1388.76" gradientUnits="userSpaceOnUse">
<stop stop-color="#1A58FF"/>
<stop offset="0.05" stop-color="#1963FF"/>
<stop offset="0.23" stop-color="#1685FF"/>
<stop offset="0.42" stop-color="#13A0FF"/>
<stop offset="0.6" stop-color="#11B3FF"/>
<stop offset="0.8" stop-color="#10BEFF"/>
<stop offset="1" stop-color="#10C2FF"/>
</linearGradient>
</defs>
</svg>
