<svg width="100" height="100" viewBox="0 0 100 100" fill="none" xmlns="http://www.w3.org/2000/svg">
<path d="M89.4051 77.1906H78.3217V74.4822H86.6968V9.32747H38.5004V15.8572H35.792V6.61914H89.4051V77.1906Z" fill="url(#paint0_linear)"/>
<path d="M66.1016 81.8636C66.1016 81.5634 66.1905 81.2699 66.3573 81.0203C66.5241 80.7707 66.7612 80.5761 67.0385 80.4612C67.3159 80.3464 67.6211 80.3163 67.9155 80.3749C68.21 80.4334 68.4804 80.578 68.6927 80.7903C68.9049 81.0026 69.0495 81.273 69.1081 81.5674C69.1666 81.8619 69.1366 82.1671 69.0217 82.4444C68.9068 82.7218 68.7123 82.9588 68.4627 83.1256C68.2131 83.2924 67.9196 83.3814 67.6194 83.3814C67.2168 83.3814 66.8308 83.2215 66.5461 82.9369C66.2614 82.6522 66.1016 82.2661 66.1016 81.8636Z" fill="url(#paint1_linear)"/>
<path d="M64.7922 65.0955H46.0541C45.6831 65.0955 45.3273 64.9481 45.0649 64.6858C44.8026 64.4234 44.6553 64.0676 44.6553 63.6967C44.6553 63.3257 44.8026 62.9699 45.0649 62.7076C45.3273 62.4452 45.6831 62.2979 46.0541 62.2979H64.8041C65.1751 62.2979 65.5309 62.4452 65.7932 62.7076C66.0555 62.9699 66.2029 63.3257 66.2029 63.6967C66.2029 64.0676 66.0555 64.4234 65.7932 64.6858C65.5309 64.9481 65.1751 65.0955 64.8041 65.0955H64.7922Z" fill="url(#paint2_linear)"/>
<path d="M56.1725 70.238H46.0951C45.7241 70.238 45.3684 70.0907 45.106 69.8283C44.8437 69.566 44.6963 69.2102 44.6963 68.8392C44.6963 68.4683 44.8437 68.1125 45.106 67.8501C45.3684 67.5878 45.7241 67.4404 46.0951 67.4404H56.1725C56.5435 67.4404 56.8993 67.5878 57.1616 67.8501C57.424 68.1125 57.5713 68.4683 57.5713 68.8392C57.5713 69.2102 57.424 69.566 57.1616 69.8283C56.8993 70.0907 56.5435 70.238 56.1725 70.238Z" fill="url(#paint3_linear)"/>
<path d="M47.1788 26.7859H30.9466C30.763 26.7859 30.5811 26.7497 30.4114 26.6794C30.2416 26.6091 30.0874 26.5061 29.9575 26.3762C29.8276 26.2463 29.7246 26.0921 29.6543 25.9224C29.584 25.7527 29.5479 25.5708 29.5479 25.3871C29.5479 25.2034 29.584 25.0215 29.6543 24.8518C29.7246 24.6821 29.8276 24.5279 29.9575 24.398C30.0874 24.2681 30.2416 24.1651 30.4114 24.0948C30.5811 24.0245 30.763 23.9883 30.9466 23.9883H47.1788C47.5498 23.9883 47.9056 24.1357 48.1679 24.398C48.4303 24.6603 48.5776 25.0161 48.5776 25.3871C48.5776 25.7581 48.4303 26.1139 48.1679 26.3762C47.9056 26.6385 47.5498 26.7859 47.1788 26.7859Z" fill="url(#paint4_linear)"/>
<path d="M54.899 32.2498H30.9466C30.5757 32.2498 30.2198 32.1024 29.9575 31.8401C29.6952 31.5777 29.5479 31.2219 29.5479 30.851C29.5479 30.48 29.6952 30.1242 29.9575 29.8619C30.2198 29.5995 30.5757 29.4521 30.9466 29.4521H54.899C55.27 29.4521 55.6258 29.5995 55.8882 29.8619C56.1505 30.1242 56.2978 30.48 56.2978 30.851C56.2978 31.2219 56.1505 31.5777 55.8882 31.8401C55.6258 32.1024 55.27 32.2498 54.899 32.2498Z" fill="url(#paint5_linear)"/>
<path d="M48.6128 85.6727H46.5294C46.344 85.685 46.1581 85.6591 45.9831 85.5966C45.8081 85.5342 45.6479 85.4364 45.5122 85.3095C45.3766 85.1825 45.2684 85.0291 45.1945 84.8586C45.1206 84.6882 45.0825 84.5044 45.0825 84.3186C45.0825 84.1328 45.1206 83.949 45.1945 83.7785C45.2684 83.6081 45.3766 83.4546 45.5122 83.3277C45.6479 83.2007 45.8081 83.103 45.9831 83.0405C46.1581 82.978 46.344 82.9521 46.5294 82.9644H48.6128C48.9564 82.9872 49.2785 83.1398 49.5138 83.3912C49.7491 83.6427 49.88 83.9742 49.88 84.3186C49.88 84.663 49.7491 84.9945 49.5138 85.2459C49.2785 85.4974 48.9564 85.6499 48.6128 85.6727ZM41.3211 85.6727H22.3211C21.9774 85.6499 21.6553 85.4974 21.42 85.2459C21.1847 84.9945 21.0537 84.663 21.0537 84.3186C21.0537 83.9742 21.1847 83.6427 21.42 83.3912C21.6553 83.1398 21.9774 82.9872 22.3211 82.9644H41.3211C41.6647 82.9872 41.9868 83.1398 42.2222 83.3912C42.4575 83.6427 42.5884 83.9742 42.5884 84.3186C42.5884 84.663 42.4575 84.9945 42.2222 85.2459C41.9868 85.4974 41.6647 85.6499 41.3211 85.6727Z" fill="url(#paint6_linear)"/>
<path d="M35.2082 71.2622C34.1086 71.2644 33.037 70.9149 32.1501 70.2648C31.2633 69.6146 30.6075 68.6979 30.2788 67.6486C29.95 66.5992 29.9654 65.4723 30.3227 64.4323C30.6801 63.3923 31.3606 62.4939 32.265 61.8683C33.1693 61.2426 34.25 60.9226 35.3492 60.9549C36.4484 60.9872 37.5083 61.3701 38.3744 62.0478C39.2404 62.7254 39.867 63.6623 40.1627 64.7214C40.4583 65.7806 40.4075 66.9065 40.0177 67.9348C39.6454 68.9099 38.9867 69.7496 38.1283 70.3434C37.2699 70.9373 36.252 71.2576 35.2082 71.2622ZM35.2082 63.6669C34.8 63.6665 34.3982 63.7684 34.0396 63.9634C33.681 64.1585 33.377 64.4403 33.1556 64.7832C32.9341 65.1261 32.8021 65.5191 32.7718 65.9262C32.7414 66.3332 32.8138 66.7414 32.982 67.1133C33.1138 67.4057 33.3017 67.6692 33.5353 67.8889C33.7688 68.1086 34.0434 68.2801 34.3433 68.3937C34.6431 68.5073 34.9624 68.5607 35.2829 68.5509C35.6034 68.5411 35.9188 68.4683 36.2112 68.3366C36.5035 68.2048 36.7671 68.0168 36.9867 67.7833C37.2064 67.5497 37.378 67.2752 37.4916 66.9753C37.6052 66.6755 37.6586 66.3562 37.6488 66.0357C37.639 65.7152 37.5661 65.3997 37.4344 65.1074C37.2398 64.6796 36.9267 64.3166 36.5322 64.0613C36.1376 63.806 35.6782 63.6691 35.2082 63.6669Z" fill="url(#paint7_linear)"/>
<path d="M61.6725 14.5059H20.4106V75.0654H8.50588V82.5713C8.50114 85.2905 9.50421 87.915 11.3214 89.9377C13.1386 91.9605 15.641 93.2381 18.3451 93.5237C18.4106 93.5237 18.4761 93.5237 18.6487 93.5237C18.9344 93.5237 19.244 93.5535 19.5178 93.5535H68.6725C68.9701 93.5535 69.2678 93.5535 69.6309 93.5178C69.6963 93.5178 69.7677 93.5178 69.8273 93.5178C72.5314 93.2322 75.0337 91.9546 76.851 89.9318C78.6682 87.909 79.6713 85.2846 79.6666 82.5654V30.238L61.6725 14.5059ZM62.5178 18.8451L74.7142 29.494H62.5178V18.8451ZM61.4463 90.869H19.5237C19.3035 90.869 19.0773 90.869 18.9285 90.869C18.8393 90.8629 18.7498 90.8629 18.6606 90.869C16.6221 90.6528 14.7357 89.6897 13.3651 88.1652C11.9946 86.6408 11.2369 84.663 11.238 82.613V77.8154H57.6666V82.619C57.6716 84.1841 58.0115 85.7301 58.6634 87.1531C59.3153 88.5761 60.2642 89.8431 61.4463 90.869ZM76.9642 82.5713C76.959 84.6294 76.1923 86.6127 74.8119 88.1393C73.4316 89.6658 71.5352 90.6275 69.488 90.8392H69.3392C69.1249 90.8392 68.9047 90.8392 68.6785 90.8392C68.3809 90.8392 68.0832 90.8392 67.8213 90.7975C65.7828 90.5814 63.8965 89.6182 62.5259 88.0938C61.1554 86.5694 60.3976 84.5915 60.3987 82.5416V75.0654H23.1368V17.2142H59.8273V32.2023H76.982L76.9642 82.5713Z" fill="url(#paint8_linear)"/>
<path d="M28.792 36.7803V58.2088H71.0539V36.7803H28.792ZM41.3932 39.4886H48.5837V43.1315H41.3932V39.4886ZM38.6848 43.1315H31.5004V39.4886H38.6848V43.1315ZM51.292 39.4886H58.4825V43.1315H51.292V39.4886ZM48.5956 45.8338V55.5184H41.4051V45.8338H48.5956ZM51.3039 45.8338H58.4944V55.5184H51.3039V45.8338ZM61.1967 45.8338H68.3872V55.5184H61.1967V45.8338ZM68.3872 43.1255H61.1967V39.4886H68.3872V43.1255ZM31.4825 45.8338H38.667V55.5184H31.4825V45.8338Z" fill="url(#paint9_linear)"/>
<defs>
<linearGradient id="paint0_linear" x1="83605.7" y1="4974.85" x2="88434.6" y2="4974.85" gradientUnits="userSpaceOnUse">
<stop stop-color="#FF059D"/>
<stop offset="0.2" stop-color="#CAED62"/>
<stop offset="1" stop-color="#64D8BC"/>
</linearGradient>
<linearGradient id="paint1_linear" x1="5005.05" y1="523.895" x2="4932.01" y2="481.396" gradientUnits="userSpaceOnUse">
<stop stop-color="#E3F24C"/>
<stop offset="0.2" stop-color="#CAED62"/>
<stop offset="1" stop-color="#64D8BC"/>
</linearGradient>
<linearGradient id="paint2_linear" x1="33952.6" y1="361.671" x2="34732.8" y2="361.671" gradientUnits="userSpaceOnUse">
<stop stop-color="#E3F24C"/>
<stop offset="0.2" stop-color="#CAED62"/>
<stop offset="1" stop-color="#64D8BC"/>
</linearGradient>
<linearGradient id="paint3_linear" x1="20306.9" y1="390.873" x2="20585.3" y2="390.873" gradientUnits="userSpaceOnUse">
<stop stop-color="#E3F24C"/>
<stop offset="0.2" stop-color="#CAED62"/>
<stop offset="1" stop-color="#64D8BC"/>
</linearGradient>
<linearGradient id="paint4_linear" x1="29492.7" y1="143.279" x2="30101.1" y2="143.279" gradientUnits="userSpaceOnUse">
<stop stop-color="#E3F24C"/>
<stop offset="0.2" stop-color="#CAED62"/>
<stop offset="1" stop-color="#64D8BC"/>
</linearGradient>
<linearGradient id="paint5_linear" x1="41445.7" y1="174.453" x2="42647.9" y2="174.453" gradientUnits="userSpaceOnUse">
<stop stop-color="#E3F24C"/>
<stop offset="0.2" stop-color="#CAED62"/>
<stop offset="1" stop-color="#64D8BC"/>
</linearGradient>
<linearGradient id="paint6_linear" x1="45791.2" y1="467.005" x2="42775.1" y2="646.994" gradientUnits="userSpaceOnUse">
<stop stop-color="#FF059D"/>
<stop offset="0.45" stop-color="#FF9841"/>
<stop offset="1" stop-color="#FFF904"/>
</linearGradient>
<linearGradient id="paint7_linear" x1="16000.6" y1="1205.93" x2="16179.2" y2="1205.93" gradientUnits="userSpaceOnUse">
<stop stop-color="#FF059D"/>
<stop offset="0.2" stop-color="#CAED62"/>
<stop offset="1" stop-color="#64D8BC"/>
</linearGradient>
<linearGradient id="paint8_linear" x1="115808" y1="13389.4" x2="104871" y2="529.574" gradientUnits="userSpaceOnUse">
<stop stop-color="#FF059D"/>
<stop offset="0.45" stop-color="#FF9841"/>
<stop offset="1" stop-color="#FFF904"/>
</linearGradient>
<linearGradient id="paint9_linear" x1="68808.8" y1="2259.14" x2="66347.3" y2="-323.935" gradientUnits="userSpaceOnUse">
<stop stop-color="#1A58FF"/>
<stop offset="0.05" stop-color="#1963FF"/>
<stop offset="0.23" stop-color="#1685FF"/>
<stop offset="0.42" stop-color="#13A0FF"/>
<stop offset="0.6" stop-color="#11B3FF"/>
<stop offset="0.8" stop-color="#10BEFF"/>
<stop offset="1" stop-color="#10C2FF"/>
</linearGradient>
</defs>
</svg>
