<svg width="110" height="110" viewBox="0 0 110 110" fill="none" xmlns="http://www.w3.org/2000/svg">
<path d="M82.8805 54.3676H85.7638V57.2308H82.9073L82.8805 54.3676ZM76.5854 57.2308H79.442V54.3676H76.5854V57.2308ZM82.8805 51.7385H85.7638V48.8819H82.9073L82.8805 51.7385ZM76.5854 51.7385H79.442V48.8819H76.5854V51.7385ZM82.8805 46.2462H85.7638V43.3896H82.9073L82.8805 46.2462ZM76.5854 46.2462H79.442V43.3896H76.5854V46.2462Z" fill="url(#paint0_linear)"/>
<path d="M31.8168 54.3676H34.6733V57.2308H31.8168V54.3676ZM25.5552 57.2308H28.4117V54.3676H25.5552V57.2308ZM31.8503 51.7385H34.7068V48.8819H31.8503V51.7385ZM25.5552 51.7385H28.4117V48.8819H25.5552V51.7385ZM31.8503 46.2462H34.7068V43.3896H31.8503V46.2462ZM25.5552 46.2462H28.4117V43.3896H25.5552V46.2462Z" fill="url(#paint1_linear)"/>
<path d="M43.7383 77.6484L41.6778 81.2409L39.604 77.6484H43.7383ZM39.604 84.2847L41.6644 87.8704L43.7249 84.2847H39.604ZM43.7249 91.6836L41.6644 95.276L39.604 91.7104L43.7249 91.6836Z" fill="url(#paint2_linear)"/>
<path d="M71.6546 77.6484L69.5942 81.2409L67.5337 77.6484H71.6546ZM67.5337 84.3382L69.5942 87.9239L71.6546 84.3382H67.5337ZM71.6546 91.7371L69.5942 95.3295L67.5337 91.7371H71.6546Z" fill="url(#paint3_linear)"/>
<path d="M56.9707 20.3901H54.1074V37.4625H56.9707V20.3901Z" fill="url(#paint4_linear)"/>
<path d="M12.7573 48.5273H9.89404V33.9436C9.89581 32.8222 10.3416 31.7472 11.1339 30.9536C11.9262 30.16 13.0006 29.7125 14.122 29.709H96.9548C98.0762 29.7125 99.1505 30.16 99.9429 30.9536C100.735 31.7472 101.181 32.8222 101.183 33.9436V47.5774H98.3195V33.9436C98.3196 33.5856 98.1797 33.2418 97.9298 32.9855C97.6798 32.7293 97.3395 32.5809 96.9816 32.5722H14.122C13.7641 32.5809 13.4238 32.7293 13.1738 32.9855C12.9238 33.2418 12.7839 33.5856 12.784 33.9436L12.7573 48.5273Z" fill="url(#paint5_linear)"/>
<path d="M56.9707 64.3022H54.1074V93.1017H56.9707V64.3022Z" fill="url(#paint6_linear)"/>
<path d="M86.8604 81.9834H83.9971V71.8684C83.9971 71.5136 83.8562 71.1733 83.6053 70.9224C83.3543 70.6714 83.014 70.5305 82.6592 70.5305H28.472C28.1171 70.5305 27.7768 70.6714 27.5259 70.9224C27.275 71.1733 27.134 71.5136 27.134 71.8684V81.6823H24.2173V71.8684C24.2173 70.7465 24.6625 69.6704 25.4552 68.8765C26.2479 68.0825 27.3233 67.6356 28.4452 67.6338H82.6324C83.7544 67.6356 84.8297 68.0825 85.6224 68.8765C86.4151 69.6704 86.8604 70.7465 86.8604 71.8684V81.9834Z" fill="url(#paint7_linear)"/>
<path d="M55.5382 64.5893C55.3502 64.5903 55.1639 64.5534 54.9904 64.481C54.8169 64.4086 54.6596 64.3022 54.528 64.1679L41.677 51.3235C41.4097 51.0528 41.2605 50.6871 41.2622 50.3067C41.2615 50.1193 41.2978 49.9336 41.369 49.7603C41.4402 49.5869 41.5448 49.4294 41.677 49.2965L54.528 36.4521C54.6598 36.3203 54.8162 36.2156 54.9884 36.1443C55.1606 36.0729 55.3451 36.0361 55.5315 36.0361C55.7179 36.0361 55.9025 36.0729 56.0746 36.1443C56.2468 36.2156 56.4033 36.3203 56.535 36.4521L69.386 49.2965C69.5182 49.4294 69.6229 49.5869 69.694 49.7603C69.7652 49.9336 69.8015 50.1193 69.8008 50.3067C69.8025 50.6871 69.6534 51.0528 69.386 51.3235L56.535 64.1679C56.4049 64.3005 56.2499 64.4061 56.0788 64.4784C55.9077 64.5508 55.724 64.5885 55.5382 64.5893ZM44.7141 50.3067L55.5382 61.1307L66.3623 50.3067L55.5382 39.4625L44.7141 50.3067Z" fill="#FFF904"/>
<path d="M11.3258 63.0843C9.74472 63.0843 8.1991 62.6154 6.88445 61.737C5.5698 60.8586 4.54514 59.61 3.94007 58.1493C3.33501 56.6885 3.17669 55.0811 3.48515 53.5304C3.79362 51.9796 4.55499 50.5552 5.67301 49.4372C6.79103 48.3192 8.21549 47.5578 9.76623 47.2493C11.317 46.9409 12.9244 47.0992 14.3851 47.7042C15.8459 48.3093 17.0944 49.334 17.9728 50.6486C18.8513 51.9633 19.3201 53.5089 19.3201 55.09C19.3113 57.2075 18.4662 59.2358 16.9689 60.7331C15.4716 62.2304 13.4433 63.0755 11.3258 63.0843ZM11.3258 49.9589C10.311 49.9589 9.31897 50.2599 8.47517 50.8237C7.63137 51.3875 6.9737 52.1888 6.58534 53.1264C6.19698 54.064 6.09538 55.0957 6.29336 56.091C6.49134 57.0863 6.98003 58.0006 7.69762 58.7182C8.41522 59.4358 9.32947 59.9245 10.3248 60.1225C11.3201 60.3204 12.3518 60.2188 13.2894 59.8305C14.227 59.4421 15.0283 58.7844 15.5921 57.9406C16.156 57.0968 16.4569 56.1048 16.4569 55.09C16.4551 53.7297 15.914 52.4256 14.9521 51.4637C13.9902 50.5019 12.6861 49.9607 11.3258 49.9589Z" fill="url(#paint8_linear)"/>
<path d="M25.6481 96.5398C24.067 96.5398 22.5214 96.071 21.2067 95.1926C19.8921 94.3141 18.8674 93.0656 18.2623 91.6048C17.6573 90.1441 17.499 88.5367 17.8074 86.9859C18.1159 85.4352 18.8773 84.0108 19.9953 82.8927C21.1133 81.7747 22.5378 81.0133 24.0885 80.7049C25.6392 80.3964 27.2466 80.5547 28.7074 81.1598C30.1681 81.7649 31.4167 82.7895 32.2951 84.1042C33.1735 85.4188 33.6424 86.9644 33.6424 88.5455C33.6336 90.6631 32.7885 92.6913 31.2912 94.1886C29.7939 95.686 27.7656 96.531 25.6481 96.5398ZM25.6481 83.4145C24.6333 83.4145 23.6412 83.7154 22.7974 84.2792C21.9536 84.843 21.296 85.6444 20.9076 86.582C20.5192 87.5196 20.4176 88.5512 20.6156 89.5466C20.8136 90.5419 21.3023 91.4562 22.0199 92.1738C22.7375 92.8914 23.6517 93.38 24.6471 93.578C25.6424 93.776 26.6741 93.6744 27.6117 93.286C28.5493 92.8977 29.3506 92.24 29.9144 91.3962C30.4782 90.5524 30.7792 89.5604 30.7792 88.5455C30.7774 87.1852 30.2362 85.8812 29.2743 84.9193C28.3125 83.9574 27.0084 83.4163 25.6481 83.4145Z" fill="url(#paint9_linear)"/>
<path d="M85.4281 96.5398C83.8484 96.5332 82.3061 96.0587 80.9959 95.1763C79.6856 94.2938 78.6662 93.043 78.0663 91.5817C77.4663 90.1203 77.3128 88.514 77.625 86.9655C77.9372 85.417 78.7012 83.9956 79.8206 82.881C80.9399 81.7663 82.3644 81.0082 83.9142 80.7025C85.464 80.3967 87.0697 80.5569 88.5285 81.163C89.9873 81.769 91.2339 82.7937 92.1109 84.1076C92.9878 85.4215 93.4558 86.9658 93.4558 88.5455C93.447 90.6688 92.5973 92.7021 91.0928 94.2003C89.5883 95.6986 87.5514 96.5398 85.4281 96.5398ZM85.4281 83.4144C84.4133 83.4144 83.4212 83.7154 82.5774 84.2792C81.7337 84.843 81.076 85.6443 80.6876 86.5819C80.2993 87.5195 80.1977 88.5512 80.3956 89.5465C80.5936 90.5418 81.0823 91.4561 81.7999 92.1737C82.5175 92.8913 83.4318 93.38 84.4271 93.5779C85.4224 93.7759 86.4541 93.6743 87.3917 93.286C88.3293 92.8976 89.1306 92.24 89.6944 91.3962C90.2583 90.5524 90.5592 89.5603 90.5592 88.5455C90.5574 87.1852 90.0162 85.8811 89.0544 84.9192C88.0925 83.9574 86.7884 83.4162 85.4281 83.4144Z" fill="url(#paint10_linear)"/>
<path d="M105.418 60.8033H94.0454C93.6657 60.8033 93.3016 60.6525 93.0331 60.384C92.7646 60.1155 92.6138 59.7514 92.6138 59.3717V48.0325C92.6129 47.844 92.6493 47.6571 92.7208 47.4826C92.7924 47.3082 92.8977 47.1495 93.0307 47.0159C93.1637 46.8823 93.3219 46.7762 93.496 46.7038C93.6701 46.6315 93.8568 46.5942 94.0454 46.5942H105.418C105.607 46.5942 105.793 46.6315 105.967 46.7038C106.142 46.7762 106.3 46.8823 106.433 47.0159C106.566 47.1495 106.671 47.3082 106.743 47.4826C106.814 47.6571 106.851 47.844 106.85 48.0325V59.3717C106.85 59.7514 106.699 60.1155 106.43 60.384C106.162 60.6525 105.798 60.8033 105.418 60.8033ZM95.5105 57.9401H103.986V49.4976H95.5105V57.9401Z" fill="url(#paint11_linear)"/>
<path d="M61.212 105.872H49.8393C49.4596 105.872 49.0955 105.721 48.8271 105.453C48.5586 105.184 48.4077 104.82 48.4077 104.44V93.101C48.4077 92.7213 48.5586 92.3572 48.8271 92.0887C49.0955 91.8202 49.4596 91.6694 49.8393 91.6694H61.212C61.5916 91.6694 61.9558 91.8202 62.2243 92.0887C62.4928 92.3572 62.6436 92.7213 62.6436 93.101V104.44C62.6436 104.82 62.4928 105.184 62.2243 105.453C61.9558 105.721 61.5916 105.872 61.212 105.872ZM51.2977 103.015H59.7737V94.5327H51.2977V103.015Z" fill="url(#paint12_linear)"/>
<path d="M80.3704 21.8223H30.7055C30.3259 21.8223 29.9617 21.6714 29.6932 21.4029C29.4248 21.1345 29.2739 20.7703 29.2739 20.3906V10.5366C29.2739 10.1569 29.4248 9.79278 29.6932 9.5243C29.9617 9.25582 30.3259 9.10498 30.7055 9.10498H80.3704C80.7501 9.10498 81.1143 9.25582 81.3827 9.5243C81.6512 9.79278 81.8021 10.1569 81.8021 10.5366V20.3906C81.8021 20.7703 81.6512 21.1345 81.3827 21.4029C81.1143 21.6714 80.7501 21.8223 80.3704 21.8223ZM32.1371 18.959H78.9656V11.9682H32.1371V18.959Z" fill="url(#paint13_linear)"/>
<defs>
<linearGradient id="paint0_linear" x1="5194.99" y1="4293.87" x2="5407.86" y2="4107.01" gradientUnits="userSpaceOnUse">
<stop stop-color="#1A58FF"/>
<stop offset="0.05" stop-color="#1963FF"/>
<stop offset="0.23" stop-color="#1685FF"/>
<stop offset="0.42" stop-color="#13A0FF"/>
<stop offset="0.6" stop-color="#11B3FF"/>
<stop offset="0.8" stop-color="#10BEFF"/>
<stop offset="1" stop-color="#10C2FF"/>
</linearGradient>
<linearGradient id="paint1_linear" x1="4430.5" y1="4293.87" x2="4643.29" y2="4107.63" gradientUnits="userSpaceOnUse">
<stop stop-color="#1A58FF"/>
<stop offset="0.05" stop-color="#1963FF"/>
<stop offset="0.23" stop-color="#1685FF"/>
<stop offset="0.42" stop-color="#13A0FF"/>
<stop offset="0.6" stop-color="#11B3FF"/>
<stop offset="0.8" stop-color="#10BEFF"/>
<stop offset="1" stop-color="#10C2FF"/>
</linearGradient>
<linearGradient id="paint2_linear" x1="2163.13" y1="6122.85" x2="2055.2" y2="6146.09" gradientUnits="userSpaceOnUse">
<stop stop-color="#E3F24C"/>
<stop offset="0.2" stop-color="#CAED62"/>
<stop offset="1" stop-color="#64D8BC"/>
</linearGradient>
<linearGradient id="paint3_linear" x1="2312.39" y1="6288.66" x2="2337.77" y2="6288.66" gradientUnits="userSpaceOnUse">
<stop stop-color="#E3F24C"/>
<stop offset="0.2" stop-color="#CAED62"/>
<stop offset="1" stop-color="#64D8BC"/>
</linearGradient>
<linearGradient id="paint4_linear" x1="1584.05" y1="4430.85" x2="1506.52" y2="4442.79" gradientUnits="userSpaceOnUse">
<stop stop-color="#E3F24C"/>
<stop offset="0.2" stop-color="#CAED62"/>
<stop offset="1" stop-color="#64D8BC"/>
</linearGradient>
<linearGradient id="paint5_linear" x1="51994.2" y1="4591.46" x2="51298.8" y2="7688.8" gradientUnits="userSpaceOnUse">
<stop stop-color="#E3F24C"/>
<stop offset="0.2" stop-color="#CAED62"/>
<stop offset="1" stop-color="#64D8BC"/>
</linearGradient>
<linearGradient id="paint6_linear" x1="1596.54" y1="9531.84" x2="1472.17" y2="9543.2" gradientUnits="userSpaceOnUse">
<stop stop-color="#E3F24C"/>
<stop offset="0.2" stop-color="#CAED62"/>
<stop offset="1" stop-color="#64D8BC"/>
</linearGradient>
<linearGradient id="paint7_linear" x1="34887" y1="4492.18" x2="34485.4" y2="6101.51" gradientUnits="userSpaceOnUse">
<stop stop-color="#E3F24C"/>
<stop offset="0.2" stop-color="#CAED62"/>
<stop offset="1" stop-color="#64D8BC"/>
</linearGradient>
<linearGradient id="paint8_linear" x1="7254.63" y1="5065.91" x2="7484.86" y2="4761.01" gradientUnits="userSpaceOnUse">
<stop stop-color="#1A58FF"/>
<stop offset="0.05" stop-color="#1963FF"/>
<stop offset="0.23" stop-color="#1685FF"/>
<stop offset="0.42" stop-color="#13A0FF"/>
<stop offset="0.6" stop-color="#11B3FF"/>
<stop offset="0.8" stop-color="#10BEFF"/>
<stop offset="1" stop-color="#10C2FF"/>
</linearGradient>
<linearGradient id="paint9_linear" x1="7611.27" y1="5898.79" x2="7841.5" y2="5593.89" gradientUnits="userSpaceOnUse">
<stop stop-color="#1A58FF"/>
<stop offset="0.05" stop-color="#1963FF"/>
<stop offset="0.23" stop-color="#1685FF"/>
<stop offset="0.42" stop-color="#13A0FF"/>
<stop offset="0.6" stop-color="#11B3FF"/>
<stop offset="0.8" stop-color="#10BEFF"/>
<stop offset="1" stop-color="#10C2FF"/>
</linearGradient>
<linearGradient id="paint10_linear" x1="9099.81" y1="5898.77" x2="9330.05" y2="5593.87" gradientUnits="userSpaceOnUse">
<stop stop-color="#1A58FF"/>
<stop offset="0.05" stop-color="#1963FF"/>
<stop offset="0.23" stop-color="#1685FF"/>
<stop offset="0.42" stop-color="#13A0FF"/>
<stop offset="0.6" stop-color="#11B3FF"/>
<stop offset="0.8" stop-color="#10BEFF"/>
<stop offset="1" stop-color="#10C2FF"/>
</linearGradient>
<linearGradient id="paint11_linear" x1="8412.93" y1="4500.57" x2="8652.79" y2="4182.42" gradientUnits="userSpaceOnUse">
<stop stop-color="#1A58FF"/>
<stop offset="0.05" stop-color="#1963FF"/>
<stop offset="0.23" stop-color="#1685FF"/>
<stop offset="0.42" stop-color="#13A0FF"/>
<stop offset="0.6" stop-color="#11B3FF"/>
<stop offset="0.8" stop-color="#10BEFF"/>
<stop offset="1" stop-color="#10C2FF"/>
</linearGradient>
<linearGradient id="paint12_linear" x1="7428" y1="5500.36" x2="7667.58" y2="5182.26" gradientUnits="userSpaceOnUse">
<stop stop-color="#FF059D"/>
<stop offset="0.45" stop-color="#FF9841"/>
<stop offset="1" stop-color="#FFF904"/>
</linearGradient>
<linearGradient id="paint13_linear" x1="26740.4" y1="3434.76" x2="26911.7" y2="2497.65" gradientUnits="userSpaceOnUse">
<stop stop-color="#FF059D"/>
<stop offset="0.45" stop-color="#FF9841"/>
<stop offset="1" stop-color="#FFF904"/>
</linearGradient>
</defs>
</svg>
