<svg width="86" height="100" viewBox="0 0 86 100" fill="none" xmlns="http://www.w3.org/2000/svg">
<path d="M69.4684 17.5633C69.2634 17.5647 69.0602 17.5248 68.8709 17.4461C68.6816 17.3674 68.5099 17.2515 68.3662 17.1053L54.9394 3.66414C54.6761 3.36652 54.5356 2.97998 54.5465 2.58274C54.5573 2.1855 54.7187 1.8072 54.9978 1.52439C55.277 1.24158 55.6532 1.07537 56.0503 1.05938C56.4473 1.04339 56.8356 1.17882 57.1367 1.43827L70.5778 14.9009C70.795 15.1205 70.9424 15.3993 71.0017 15.7024C71.0609 16.0055 71.0293 16.3194 70.9108 16.6046C70.7923 16.8898 70.5922 17.1336 70.3356 17.3054C70.0789 17.4773 69.7773 17.5695 69.4684 17.5705V17.5633Z" fill="url(#paint0_linear)"/>
<path d="M12.1613 13.1908C11.7953 13.1908 11.4374 13.0824 11.1329 12.8794C10.8284 12.6763 10.5908 12.3876 10.4501 12.0497C10.3094 11.7119 10.2718 11.3399 10.3422 10.9807C10.4126 10.6215 10.5877 10.2912 10.8455 10.0314C11.1033 9.77157 11.4323 9.5939 11.7909 9.52077C12.1496 9.44763 12.5218 9.48231 12.8608 9.62042C13.1997 9.75853 13.4902 9.99389 13.6956 10.2968C13.901 10.5998 14.0121 10.9568 14.015 11.3228C14.0178 11.5677 13.9719 11.8107 13.88 12.0377C13.788 12.2647 13.6518 12.4711 13.4793 12.6449C13.3068 12.8188 13.1014 12.9566 12.8751 13.0503C12.6488 13.144 12.4062 13.1918 12.1613 13.1908ZM19.9268 11.3228C19.9282 10.9558 19.8207 10.5968 19.6179 10.291C19.415 9.9852 19.126 9.74649 18.7874 9.60509C18.4488 9.46369 18.0759 9.42595 17.7158 9.49666C17.3558 9.56738 17.0248 9.74337 16.7649 10.0023C16.5049 10.2613 16.3276 10.5916 16.2555 10.9513C16.1834 11.3111 16.2197 11.6842 16.3598 12.0233C16.4999 12.3625 16.7375 12.6524 17.0425 12.8564C17.3475 13.0604 17.7061 13.1693 18.0731 13.1693C18.5635 13.1693 19.0339 12.975 19.3813 12.6289C19.7288 12.2828 19.9249 11.8132 19.9268 11.3228ZM25.8458 11.3228C25.8472 10.9555 25.7395 10.5962 25.5363 10.2902C25.3332 9.9843 25.0438 9.7456 24.7048 9.60441C24.3657 9.46322 23.9924 9.4259 23.6322 9.4972C23.2719 9.5685 22.941 9.74519 22.6813 10.0049C22.4216 10.2645 22.2449 10.5955 22.1736 10.9557C22.1023 11.316 22.1396 11.6893 22.2808 12.0283C22.422 12.3673 22.6607 12.6568 22.9667 12.8599C23.2726 13.063 23.632 13.1707 23.9992 13.1693C24.2429 13.1712 24.4846 13.1248 24.7102 13.0329C24.9359 12.9409 25.1412 12.8052 25.3142 12.6336C25.4872 12.4619 25.6245 12.2577 25.7182 12.0327C25.8118 11.8078 25.8601 11.5665 25.8601 11.3228H25.8458Z" fill="url(#paint1_linear)"/>
<path d="M23.9761 41.3827H13.8487C13.433 41.3827 13.0343 41.2175 12.7403 40.9236C12.4464 40.6296 12.2813 40.231 12.2812 39.8153V29.7022C12.2812 29.2865 12.4464 28.8878 12.7403 28.5939C13.0343 28.2999 13.433 28.1348 13.8487 28.1348H23.9761C24.3918 28.1348 24.7904 28.2999 25.0844 28.5939C25.3783 28.8878 25.5435 29.2865 25.5435 29.7022V39.8296C25.5397 40.2428 25.3729 40.6378 25.0794 40.9287C24.7858 41.2195 24.3893 41.3827 23.9761 41.3827ZM15.3875 38.2478H22.38V31.2553H15.4161L15.3875 38.2478Z" fill="url(#paint2_linear)"/>
<path d="M58.1291 32.3647H31.984C31.5876 32.3378 31.2161 32.1614 30.9447 31.8711C30.6734 31.5807 30.5225 31.1982 30.5225 30.8008C30.5225 30.4034 30.6734 30.0209 30.9447 29.7306C31.2161 29.4402 31.5876 29.2638 31.984 29.237H58.1291C58.3434 29.2225 58.5583 29.2521 58.7607 29.3242C58.963 29.3962 59.1483 29.509 59.3052 29.6557C59.4621 29.8023 59.5872 29.9796 59.6728 30.1766C59.7583 30.3736 59.8024 30.5861 59.8024 30.8008C59.8024 31.0156 59.7583 31.228 59.6728 31.425C59.5872 31.622 59.4621 31.7993 59.3052 31.946C59.1483 32.0926 58.963 32.2054 58.7607 32.2775C58.5583 32.3495 58.3434 32.3792 58.1291 32.3647Z" fill="url(#paint3_linear)"/>
<path d="M47.5365 39.9511H31.984C31.5876 39.9242 31.2161 39.7478 30.9447 39.4575C30.6734 39.1672 30.5225 38.7846 30.5225 38.3872C30.5225 37.9899 30.6734 37.6073 30.9447 37.317C31.2161 37.0267 31.5876 36.8502 31.984 36.8234H47.5365C47.7508 36.8089 47.9658 36.8386 48.1681 36.9106C48.3704 36.9826 48.5557 37.0955 48.7126 37.2421C48.8695 37.3887 48.9946 37.5661 49.0802 37.763C49.1657 37.96 49.2098 38.1725 49.2098 38.3872C49.2098 38.602 49.1657 38.8144 49.0802 39.0114C48.9946 39.2084 48.8695 39.3858 48.7126 39.5324C48.5557 39.679 48.3704 39.7919 48.1681 39.8639C47.9658 39.9359 47.7508 39.9656 47.5365 39.9511Z" fill="url(#paint4_linear)"/>
<path d="M23.9761 60.8073H13.8487C13.4391 60.8074 13.0457 60.6472 12.7528 60.3609C12.4599 60.0747 12.2906 59.6851 12.2812 59.2757V49.1197C12.2812 48.704 12.4464 48.3053 12.7403 48.0113C13.0343 47.7174 13.433 47.5522 13.8487 47.5522H23.9761C24.3918 47.5522 24.7904 47.7174 25.0844 48.0113C25.3783 48.3053 25.5435 48.704 25.5435 49.1197V59.2757C25.5341 59.6851 25.3649 60.0747 25.0719 60.3609C24.779 60.6472 24.3856 60.8074 23.9761 60.8073ZM15.3875 57.6796H22.38V50.6871H15.4161L15.3875 57.6796Z" fill="url(#paint5_linear)"/>
<path d="M58.1305 51.7823H31.9854C31.5697 51.7823 31.171 51.6172 30.8771 51.3232C30.5831 51.0293 30.418 50.6306 30.418 50.2149C30.418 49.7992 30.5831 49.4005 30.8771 49.1066C31.171 48.8126 31.5697 48.6475 31.9854 48.6475H58.1305C58.5462 48.6475 58.9449 48.8126 59.2388 49.1066C59.5328 49.4005 59.6979 49.7992 59.6979 50.2149C59.6979 50.6306 59.5328 51.0293 59.2388 51.3232C58.9449 51.6172 58.5462 51.7823 58.1305 51.7823Z" fill="url(#paint6_linear)"/>
<path d="M47.5379 59.3761H31.9854C31.5697 59.3761 31.171 59.2109 30.8771 58.917C30.5831 58.623 30.418 58.2243 30.418 57.8086C30.418 57.3929 30.5831 56.9942 30.8771 56.7003C31.171 56.4063 31.5697 56.2412 31.9854 56.2412H47.5379C47.9536 56.2412 48.3523 56.4063 48.6462 56.7003C48.9402 56.9942 49.1053 57.3929 49.1053 57.8086C49.1053 58.2243 48.9402 58.623 48.6462 58.917C48.3523 59.2109 47.9536 59.3761 47.5379 59.3761Z" fill="url(#paint7_linear)"/>
<path d="M23.9761 80.2246H13.8487C13.433 80.2246 13.0343 80.0595 12.7403 79.7655C12.4464 79.4716 12.2813 79.0729 12.2812 78.6572V68.5298C12.2812 68.1141 12.4464 67.7154 12.7403 67.4215C13.0343 67.1275 13.433 66.9624 13.8487 66.9624H23.9761C24.3918 66.9624 24.7904 67.1275 25.0844 67.4215C25.3783 67.7154 25.5435 68.1141 25.5435 68.5298V78.6572C25.5435 79.0729 25.3783 79.4716 25.0844 79.7655C24.7904 80.0595 24.3918 80.2246 23.9761 80.2246ZM15.3875 77.0898H22.38V70.0972H15.4161L15.3875 77.0898Z" fill="url(#paint8_linear)"/>
<path d="M58.1291 71.1923H31.984C31.5876 71.1655 31.2161 70.989 30.9447 70.6987C30.6734 70.4084 30.5225 70.0258 30.5225 69.6285C30.5225 69.2311 30.6734 68.8485 30.9447 68.5582C31.2161 68.2679 31.5876 68.0915 31.984 68.0646H58.1291C58.3434 68.0501 58.5583 68.0798 58.7607 68.1518C58.963 68.2238 59.1483 68.3367 59.3052 68.4833C59.4621 68.6299 59.5872 68.8073 59.6728 69.0043C59.7583 69.2012 59.8024 69.4137 59.8024 69.6285C59.8024 69.8432 59.7583 70.0557 59.6728 70.2527C59.5872 70.4496 59.4621 70.627 59.3052 70.7736C59.1483 70.9202 58.963 71.0331 58.7607 71.1051C58.5583 71.1771 58.3434 71.2068 58.1291 71.1923Z" fill="url(#paint9_linear)"/>
<path d="M47.5365 78.786H31.984C31.5876 78.7592 31.2161 78.5828 30.9447 78.2925C30.6734 78.0021 30.5225 77.6196 30.5225 77.2222C30.5225 76.8248 30.6734 76.4423 30.9447 76.1519C31.2161 75.8616 31.5876 75.6852 31.984 75.6584H47.5365C47.7508 75.6439 47.9658 75.6735 48.1681 75.7456C48.3704 75.8176 48.5557 75.9304 48.7126 76.0771C48.8695 76.2237 48.9946 76.401 49.0802 76.598C49.1657 76.795 49.2098 77.0074 49.2098 77.2222C49.2098 77.437 49.1657 77.6494 49.0802 77.8464C48.9946 78.0434 48.8695 78.2207 48.7126 78.3673C48.5557 78.514 48.3704 78.6268 48.1681 78.6988C47.9658 78.7708 47.7508 78.8005 47.5365 78.786Z" fill="url(#paint10_linear)"/>
<path d="M50.3294 13.8921H47.6455V11.2153H50.3294V13.8921ZM50.3294 19.0453H47.6455V16.3327H50.3294V19.0453ZM50.3294 24.5348H47.6455V21.8509H50.3294V24.5348ZM56.2269 24.5348H53.5645V21.8509H56.2413L56.2269 24.5348ZM62.1745 24.5348H59.4978V21.8509H62.1531L62.1745 24.5348Z" fill="url(#paint11_linear)"/>
<path d="M20.642 85.8574L24.829 88.2622L20.642 90.6599V85.8574ZM12.6904 90.6599L16.8774 88.2622L12.6904 85.8574V90.6599ZM28.4004 90.6599L32.5873 88.2622L28.4004 85.8574V90.6599Z" fill="url(#paint12_linear)"/>
<path d="M83.9965 88.7276H70.4623C70.2481 88.7421 70.0331 88.7124 69.8308 88.6404C69.6285 88.5684 69.4431 88.4555 69.2862 88.3089C69.1293 88.1623 69.0042 87.9849 68.9187 87.788C68.8332 87.591 68.7891 87.3785 68.7891 87.1638C68.7891 86.949 68.8332 86.7365 68.9187 86.5396C69.0042 86.3426 69.1293 86.1652 69.2862 86.0186C69.4431 85.872 69.6285 85.7591 69.8308 85.6871C70.0331 85.6151 70.2481 85.5854 70.4623 85.5999H82.4363V24.7641H70.4623C70.2481 24.7786 70.0331 24.7489 69.8308 24.6769C69.6285 24.6048 69.4431 24.492 69.2862 24.3454C69.1293 24.1987 69.0042 24.0214 68.9187 23.8244C68.8332 23.6274 68.7891 23.415 68.7891 23.2002C68.7891 22.9855 68.8332 22.773 68.9187 22.576C69.0042 22.379 69.1293 22.2017 69.2862 22.0551C69.4431 21.9084 69.6285 21.7956 69.8308 21.7236C70.0331 21.6516 70.2481 21.6219 70.4623 21.6364H83.9965C84.4122 21.6364 84.8109 21.8015 85.1049 22.0955C85.3988 22.3894 85.564 22.7881 85.564 23.2038V87.1888C85.5564 87.5995 85.388 87.9909 85.0949 88.2787C84.8017 88.5665 84.4073 88.7277 83.9965 88.7276Z" fill="url(#paint13_linear)"/>
<path d="M70.1615 18.5514H55.0528C54.6371 18.5514 54.2384 18.3862 53.9444 18.0923C53.6505 17.7983 53.4854 17.3997 53.4854 16.984V1.88236C53.4854 1.46666 53.6505 1.06797 53.9444 0.774026C54.2384 0.480078 54.6371 0.314941 55.0528 0.314941C55.4685 0.314941 55.8672 0.480078 56.1611 0.774026C56.455 1.06797 56.6202 1.46666 56.6202 1.88236V15.4237H70.1615C70.558 15.4505 70.9295 15.627 71.2008 15.9173C71.4722 16.2076 71.6231 16.5902 71.6231 16.9875C71.6231 17.3849 71.4722 17.7675 71.2008 18.0578C70.9295 18.3481 70.558 18.5246 70.1615 18.5514Z" fill="url(#paint14_linear)"/>
<path d="M67.1628 100H4.8955C3.59961 100 2.35658 99.4862 1.43891 98.5712C0.521237 97.6562 0.00378915 96.4147 0 95.1188V4.5736C0.00189285 3.36124 0.484342 2.19906 1.34162 1.34179C2.19889 0.484512 3.36106 0.00206016 4.57342 0.000167311H53.693C54.3421 -0.00519941 54.9859 0.118592 55.5867 0.364338C56.1876 0.610083 56.7335 0.972874 57.1929 1.4316L70.5767 14.9014C71.0339 15.3619 71.3956 15.9081 71.6412 16.5086C71.8869 17.1092 72.0116 17.7524 72.0082 18.4012V95.1188C72.0063 96.4066 71.4964 97.6417 70.5891 98.5557C69.6818 99.4697 68.4505 99.9887 67.1628 100ZM4.53048 3.13501C4.15084 3.13501 3.78675 3.28582 3.51831 3.55426C3.24986 3.82271 3.09905 4.1868 3.09905 4.56644V95.1188C3.09999 95.35 3.14646 95.5788 3.23581 95.792C3.32516 96.0053 3.45563 96.1989 3.61979 96.3617C3.78395 96.5245 3.97857 96.6534 4.19254 96.7411C4.40652 96.8287 4.63565 96.8733 4.86687 96.8723H67.1342C67.5992 96.8723 68.0452 96.6876 68.3741 96.3587C68.7029 96.0299 68.8877 95.5839 68.8877 95.1188V18.3869C68.8875 18.1474 68.8399 17.9103 68.7478 17.6892C68.6557 17.4681 68.5208 17.2674 68.3509 17.0986L54.9383 3.66464C54.595 3.32604 54.1323 3.13584 53.6501 3.13501H4.53048Z" fill="url(#paint15_linear)"/>
<defs>
<linearGradient id="paint0_linear" x1="1973.55" y1="3953.3" x2="2053.84" y2="3847.25" gradientUnits="userSpaceOnUse">
<stop stop-color="#1A58FF"/>
<stop offset="0.05" stop-color="#1963FF"/>
<stop offset="0.23" stop-color="#1685FF"/>
<stop offset="0.42" stop-color="#13A0FF"/>
<stop offset="0.6" stop-color="#11B3FF"/>
<stop offset="0.8" stop-color="#10BEFF"/>
<stop offset="1" stop-color="#10C2FF"/>
</linearGradient>
<linearGradient id="paint1_linear" x1="718.877" y1="900.78" x2="1056.83" y2="900.78" gradientUnits="userSpaceOnUse">
<stop stop-color="#FF059D"/>
<stop offset="0.45" stop-color="#FF9841"/>
<stop offset="1" stop-color="#FFF904"/>
</linearGradient>
<linearGradient id="paint2_linear" x1="679.371" y1="3756.23" x2="872.468" y2="3500.21" gradientUnits="userSpaceOnUse">
<stop stop-color="#FF059D"/>
<stop offset="0.45" stop-color="#FF9841"/>
<stop offset="1" stop-color="#FFF904"/>
</linearGradient>
<linearGradient id="paint3_linear" x1="2553.58" y1="896.767" x2="2561.9" y2="793.789" gradientUnits="userSpaceOnUse">
<stop stop-color="#1A58FF"/>
<stop offset="0.05" stop-color="#1963FF"/>
<stop offset="0.23" stop-color="#1685FF"/>
<stop offset="0.42" stop-color="#13A0FF"/>
<stop offset="0.6" stop-color="#11B3FF"/>
<stop offset="0.8" stop-color="#10BEFF"/>
<stop offset="1" stop-color="#10C2FF"/>
</linearGradient>
<linearGradient id="paint4_linear" x1="1791.24" y1="883.006" x2="1774.56" y2="974.404" gradientUnits="userSpaceOnUse">
<stop stop-color="#E3F24C"/>
<stop offset="0.2" stop-color="#CAED62"/>
<stop offset="1" stop-color="#64D8BC"/>
</linearGradient>
<linearGradient id="paint5_linear" x1="679.371" y1="4137.27" x2="872.601" y2="3881.22" gradientUnits="userSpaceOnUse">
<stop stop-color="#FF059D"/>
<stop offset="0.45" stop-color="#FF9841"/>
<stop offset="1" stop-color="#FFF904"/>
</linearGradient>
<linearGradient id="paint6_linear" x1="2187.47" y1="968.221" x2="3385.02" y2="968.221" gradientUnits="userSpaceOnUse">
<stop stop-color="#1A58FF"/>
<stop offset="0.05" stop-color="#1963FF"/>
<stop offset="0.23" stop-color="#1685FF"/>
<stop offset="0.42" stop-color="#13A0FF"/>
<stop offset="0.6" stop-color="#11B3FF"/>
<stop offset="0.8" stop-color="#10BEFF"/>
<stop offset="1" stop-color="#10C2FF"/>
</linearGradient>
<linearGradient id="paint7_linear" x1="1407.11" y1="1009.08" x2="1894.85" y2="1009.08" gradientUnits="userSpaceOnUse">
<stop stop-color="#E3F24C"/>
<stop offset="0.2" stop-color="#CAED62"/>
<stop offset="1" stop-color="#64D8BC"/>
</linearGradient>
<linearGradient id="paint8_linear" x1="679.371" y1="4518.56" x2="872.734" y2="4262.46" gradientUnits="userSpaceOnUse">
<stop stop-color="#FF059D"/>
<stop offset="0.45" stop-color="#FF9841"/>
<stop offset="1" stop-color="#FFF904"/>
</linearGradient>
<linearGradient id="paint9_linear" x1="2187.58" y1="1072.65" x2="3385.13" y2="1072.65" gradientUnits="userSpaceOnUse">
<stop stop-color="#1A58FF"/>
<stop offset="0.05" stop-color="#1963FF"/>
<stop offset="0.23" stop-color="#1685FF"/>
<stop offset="0.42" stop-color="#13A0FF"/>
<stop offset="0.6" stop-color="#11B3FF"/>
<stop offset="0.8" stop-color="#10BEFF"/>
<stop offset="1" stop-color="#10C2FF"/>
</linearGradient>
<linearGradient id="paint10_linear" x1="1407.22" y1="1113.5" x2="1894.96" y2="1113.5" gradientUnits="userSpaceOnUse">
<stop stop-color="#E3F24C"/>
<stop offset="0.2" stop-color="#CAED62"/>
<stop offset="1" stop-color="#64D8BC"/>
</linearGradient>
<linearGradient id="paint11_linear" x1="1467.57" y1="3316.44" x2="1762.51" y2="3316.44" gradientUnits="userSpaceOnUse">
<stop stop-color="#E3F24C"/>
<stop offset="0.2" stop-color="#CAED62"/>
<stop offset="1" stop-color="#64D8BC"/>
</linearGradient>
<linearGradient id="paint12_linear" x1="1264.4" y1="205.438" x2="1155.88" y2="618.321" gradientUnits="userSpaceOnUse">
<stop stop-color="#E3F24C"/>
<stop offset="0.2" stop-color="#CAED62"/>
<stop offset="1" stop-color="#64D8BC"/>
</linearGradient>
<linearGradient id="paint13_linear" x1="2888.14" y1="18382.4" x2="1184.2" y2="18773.5" gradientUnits="userSpaceOnUse">
<stop stop-color="#E3F24C"/>
<stop offset="0.2" stop-color="#CAED62"/>
<stop offset="1" stop-color="#64D8BC"/>
</linearGradient>
<linearGradient id="paint14_linear" x1="2019.8" y1="4557.6" x2="2253.2" y2="4250.08" gradientUnits="userSpaceOnUse">
<stop stop-color="#1A58FF"/>
<stop offset="0.05" stop-color="#1963FF"/>
<stop offset="0.23" stop-color="#1685FF"/>
<stop offset="0.42" stop-color="#13A0FF"/>
<stop offset="0.6" stop-color="#11B3FF"/>
<stop offset="0.8" stop-color="#10BEFF"/>
<stop offset="1" stop-color="#10C2FF"/>
</linearGradient>
<linearGradient id="paint15_linear" x1="2243.06" y1="35951" x2="11966.1" y2="26678.4" gradientUnits="userSpaceOnUse">
<stop stop-color="#1A58FF"/>
<stop offset="0.05" stop-color="#1963FF"/>
<stop offset="0.23" stop-color="#1685FF"/>
<stop offset="0.42" stop-color="#13A0FF"/>
<stop offset="0.6" stop-color="#11B3FF"/>
<stop offset="0.8" stop-color="#10BEFF"/>
<stop offset="1" stop-color="#10C2FF"/>
</linearGradient>
</defs>
</svg>
