<svg width="302" height="290" viewBox="0 0 302 290" fill="none" xmlns="http://www.w3.org/2000/svg">
<path d="M297.93 133.869H285.864V232.326C285.864 234.256 288.518 235.825 291.897 235.825C295.275 235.825 297.93 234.256 297.93 232.326V133.869Z" fill="url(#paint0_linear)"/>
<path d="M222.646 177.186H210.581V275.703C210.581 277.633 213.235 279.202 216.614 279.202C219.992 279.202 222.646 277.633 222.646 275.703V177.186Z" fill="url(#paint1_linear)"/>
<path style="mix-blend-mode:multiply" d="M297.93 131.035H285.864V151.547C285.864 153.477 288.518 154.986 291.897 154.986C295.275 154.986 297.93 153.477 297.93 151.547V131.035Z" fill="url(#paint2_linear)"/>
<path style="mix-blend-mode:multiply" d="M222.646 96.5264H210.581V194.862C210.581 196.793 213.235 198.361 216.614 198.361C219.992 198.361 222.646 196.793 222.646 194.862V96.5264Z" fill="url(#paint3_linear)"/>
<path d="M54.75 80.3569H42.6843V178.874C42.6843 180.804 45.3387 182.373 48.7171 182.373C52.0955 182.373 54.75 180.804 54.75 178.874V80.3569Z" fill="url(#paint4_linear)"/>
<path d="M301.015 137.489V130.913L296.068 129.767L132.759 36.1974C130.323 34.8688 127.614 34.1179 124.842 34.0029C122.07 33.8878 119.309 34.4116 116.772 35.5338L42.9292 78.4274L39.9128 77.7035V85.0636C40.0784 86.1574 40.5197 87.191 41.1952 88.067C41.8707 88.943 42.7581 89.6326 43.7738 90.0709L208.23 184.606C210.665 185.934 213.374 186.685 216.146 186.8C218.918 186.915 221.679 186.392 224.217 185.269L298.3 142.014C299.164 141.631 299.888 140.991 300.374 140.181C300.86 139.371 301.084 138.431 301.015 137.489Z" fill="url(#paint5_linear)"/>
<path d="M224.214 177.909L298.297 134.654C302.339 132.301 301.857 128.138 297.091 125.423L132.755 30.9487C130.345 29.5555 127.637 28.7575 124.857 28.6211C122.076 28.4847 119.303 29.0138 116.768 30.1645L42.6848 73.3598C38.5824 75.7729 39.1254 79.8753 43.831 82.5901L208.227 177.246C210.662 178.574 213.371 179.325 216.143 179.44C218.915 179.555 221.676 179.032 224.214 177.909Z" fill="url(#paint6_linear)"/>
<path style="mix-blend-mode:color-dodge" d="M44.0105 82.0468L208.225 176.521C210.661 177.85 213.369 178.601 216.141 178.716C218.913 178.831 221.675 178.307 224.212 177.185L298.296 133.929C299.017 133.588 299.643 133.074 300.117 132.431C300.59 131.789 300.898 131.039 301.011 130.249C301.054 131.171 300.818 132.085 300.334 132.871C299.849 133.657 299.139 134.278 298.296 134.653L224.212 177.909C221.675 179.031 218.913 179.555 216.141 179.44C213.369 179.325 210.661 178.574 208.225 177.245L44.0105 82.7104C42.8862 82.2767 41.9176 81.5162 41.2294 80.527C40.5412 79.5377 40.1651 78.3651 40.1495 77.1602C40.3586 78.2228 40.8179 79.2204 41.4893 80.0701C42.1608 80.9199 43.025 81.5975 44.0105 82.0468Z" fill="url(#paint7_radial)"/>
<path style="mix-blend-mode:color-dodge" d="M224.212 182.193C224.212 187.924 221.196 192.63 217.516 192.63C213.835 192.63 210.879 187.924 210.879 182.193C210.879 176.462 213.896 171.756 217.576 171.756C221.256 171.756 224.272 176.462 224.212 182.193Z" fill="url(#paint8_radial)"/>
<path d="M289.662 98.3967V127.535L294.428 124.76V95.6216L289.662 98.3967Z" fill="url(#paint9_linear)"/>
<path d="M289.666 98.3958V127.535L123.521 31.9136V2.7749L289.666 98.3958Z" fill="url(#paint10_linear)"/>
<path d="M123.517 2.77512L289.662 98.396L294.428 95.6209L128.222 0L123.517 2.77512Z" fill="url(#paint11_linear)"/>
<path style="mix-blend-mode:color-dodge" d="M288.761 97.9751V126.873L289.666 127.536V98.5784L288.761 97.9751Z" fill="url(#paint12_radial)"/>
<g opacity="0.2">
<path opacity="0.09" d="M157.127 78.9705L218.602 114.625C219.566 115.111 220.368 115.865 220.914 116.796C221.46 117.727 221.725 118.795 221.679 119.873C221.729 120.334 221.729 120.8 221.679 121.261C220.937 123.114 219.572 124.651 217.818 125.605L182.767 145.392C180.622 146.618 178.178 147.224 175.709 147.142C174.756 147.137 173.806 147.036 172.873 146.84C171.868 146.569 170.896 146.184 169.977 145.694L108.744 110.341C107.776 109.861 106.969 109.109 106.422 108.176C105.876 107.244 105.613 106.172 105.667 105.093C105.581 104.553 105.581 104.004 105.667 103.464C106.451 101.702 107.785 100.242 109.468 99.3013L143.915 79.4531L145.122 78.7895C146.94 78.0404 148.887 77.6511 150.853 77.6433C153.029 77.4694 155.208 77.9305 157.127 78.9705Z" fill="black"/>
<path opacity="0.18" d="M157.008 79.2699L218.483 114.622C219.434 115.084 220.214 115.834 220.713 116.766C221.211 117.698 221.402 118.764 221.258 119.811C221.202 120.268 221.08 120.715 220.896 121.138C220.049 122.912 218.681 124.385 216.975 125.361L182.768 145.149C180.609 146.334 178.171 146.917 175.71 146.838C174.778 146.781 173.85 146.66 172.935 146.476C171.95 146.173 171 145.769 170.099 145.269L109.167 110.038C108.227 109.575 107.452 108.835 106.945 107.918C106.438 107.002 106.224 105.952 106.332 104.91C106.401 104.363 106.564 103.832 106.814 103.341C107.647 101.658 108.973 100.269 110.615 99.3593L144.58 79.7525L145.787 79.1492C147.548 78.3464 149.462 77.9347 151.397 77.9427C153.351 77.8861 155.286 78.3437 157.008 79.2699Z" fill="black"/>
<path opacity="0.27" d="M156.822 79.5126L218.297 114.986C219.231 115.435 219.988 116.184 220.447 117.114C220.906 118.043 221.041 119.099 220.831 120.114C220.745 120.572 220.604 121.018 220.409 121.441C219.433 123.115 218.04 124.507 216.367 125.483L182.764 144.788C180.595 145.941 178.16 146.503 175.705 146.417C174.786 146.355 173.875 146.193 172.991 145.934C172.001 145.674 171.048 145.289 170.155 144.788L109.344 109.798C108.406 109.349 107.642 108.603 107.173 107.676C106.704 106.748 106.555 105.691 106.75 104.67C106.877 104.169 107.059 103.683 107.293 103.222C108.229 101.642 109.56 100.333 111.154 99.4211L144.636 80.0556L145.843 79.4523C147.571 78.6781 149.439 78.2674 151.333 78.2457C153.241 78.1916 155.131 78.6278 156.822 79.5126Z" fill="black"/>
<path opacity="0.36" d="M156.701 79.815L218.175 115.288C219.087 115.732 219.812 116.485 220.221 117.413C220.629 118.341 220.696 119.384 220.408 120.356C220.273 120.768 220.112 121.171 219.925 121.562C218.848 123.127 217.45 124.443 215.823 125.424L182.763 144.789C180.611 145.983 178.159 146.528 175.704 146.358C174.803 146.301 173.913 146.139 173.05 145.875C172.075 145.546 171.127 145.143 170.214 144.668L109.886 109.678C108.976 109.246 108.247 108.507 107.828 107.591C107.409 106.676 107.326 105.641 107.593 104.67C107.743 104.187 107.945 103.722 108.196 103.283C109.245 101.807 110.578 100.556 112.118 99.6028L145.057 80.5993L146.264 79.9357C147.981 79.1949 149.824 78.7855 151.693 78.7291C153.424 78.6957 155.139 79.0675 156.701 79.815Z" fill="black"/>
<path opacity="0.45" d="M156.53 80.0548L218.004 115.528C218.924 115.939 219.646 116.692 220.018 117.627C220.39 118.562 220.382 119.606 219.995 120.535C219.869 120.971 219.665 121.38 219.392 121.742C219.392 122.707 216.376 124.758 215.29 125.422L182.411 144.365C180.273 145.533 177.842 146.057 175.412 145.873C174.509 145.798 173.618 145.616 172.758 145.33C171.791 145.007 170.861 144.582 169.983 144.064L109.654 109.254C108.747 108.843 108.028 108.107 107.637 107.191C107.246 106.275 107.212 105.246 107.543 104.307C107.748 103.846 107.99 103.402 108.267 102.98C109.362 101.573 110.713 100.386 112.248 99.4806L144.705 80.7184L145.912 80.1151C147.591 79.3145 149.421 78.8825 151.281 78.8482C153.106 78.7815 154.917 79.1977 156.53 80.0548Z" fill="black"/>
<path opacity="0.55" d="M156.338 80.2983L217.813 115.832C218.266 116.026 218.675 116.311 219.014 116.67C219.354 117.028 219.616 117.452 219.786 117.915C219.955 118.378 220.028 118.871 220 119.364C219.972 119.856 219.844 120.338 219.623 120.779C219.424 121.167 219.181 121.532 218.899 121.865C218.899 122.709 215.581 124.821 214.676 125.364L182.279 144.066C180.136 145.277 177.673 145.803 175.221 145.574C174.34 145.451 173.472 145.249 172.627 144.971C171.694 144.61 170.787 144.187 169.912 143.704L109.583 109.015C108.69 108.596 107.999 107.84 107.66 106.914C107.321 105.987 107.362 104.964 107.774 104.068C107.991 103.62 108.254 103.195 108.558 102.801C109.705 101.488 111.073 100.385 112.6 99.5431L144.574 81.0222L145.72 80.4189C147.392 79.6597 149.195 79.2295 151.029 79.152C152.869 79.0646 154.699 79.4598 156.338 80.2983Z" fill="black"/>
<path opacity="0.64" d="M156.229 80.5979L217.704 116.071C218.148 116.266 218.546 116.554 218.869 116.916C219.192 117.278 219.433 117.706 219.576 118.169C219.719 118.633 219.761 119.122 219.698 119.603C219.635 120.084 219.469 120.546 219.212 120.958C218.985 121.324 218.722 121.668 218.428 121.983C217.17 123.31 215.728 124.448 214.144 125.362L182.11 143.822C179.97 144.98 177.531 145.463 175.112 145.21C174.226 145.115 173.355 144.913 172.518 144.607C171.609 144.213 170.723 143.77 169.863 143.279L109.957 108.59C109.516 108.4 109.12 108.118 108.797 107.763C108.473 107.409 108.229 106.989 108.081 106.532C107.932 106.075 107.883 105.592 107.936 105.115C107.989 104.638 108.143 104.177 108.388 103.764C108.63 103.32 108.935 102.914 109.293 102.557C110.465 101.345 111.806 100.308 113.275 99.4807L144.827 81.3821L145.973 80.7185C147.603 79.9598 149.366 79.5293 151.161 79.4516C152.921 79.3951 154.665 79.7897 156.229 80.5979Z" fill="black"/>
<path opacity="0.73" d="M156.034 80.8404L217.509 116.314C217.965 116.497 218.371 116.784 218.696 117.153C219.02 117.522 219.253 117.962 219.376 118.437C219.499 118.913 219.509 119.41 219.405 119.89C219.301 120.37 219.085 120.819 218.776 121.2C218.507 121.551 218.204 121.875 217.871 122.166C216.544 123.369 215.087 124.421 213.528 125.303L181.976 143.401C179.834 144.613 177.358 145.1 174.917 144.789C174.056 144.639 173.208 144.417 172.383 144.125L169.789 142.798L110.064 108.592C109.628 108.404 109.24 108.119 108.93 107.76C108.62 107.4 108.395 106.975 108.273 106.516C108.151 106.057 108.135 105.577 108.226 105.111C108.316 104.645 108.512 104.205 108.797 103.826C109.036 103.346 109.363 102.916 109.762 102.559C110.999 101.431 112.355 100.44 113.804 99.6027L144.874 81.5041L146.02 80.9008C147.607 80.1423 149.33 79.7115 151.087 79.6339C152.814 79.5947 154.52 80.0109 156.034 80.8404Z" fill="black"/>
<path opacity="0.82" d="M155.919 81.1405L217.394 116.614C217.844 116.791 218.242 117.077 218.553 117.448C218.864 117.818 219.077 118.26 219.173 118.734C219.269 119.208 219.245 119.698 219.102 120.16C218.96 120.623 218.705 121.042 218.359 121.38C218.067 121.712 217.744 122.015 217.394 122.285C216.004 123.4 214.532 124.408 212.99 125.301L181.8 143.4C179.662 144.558 177.216 145.022 174.802 144.727C173.936 144.566 173.088 144.323 172.268 144.003L169.674 142.615L110.371 108.168C109.933 107.997 109.545 107.722 109.237 107.367C108.93 107.012 108.714 106.588 108.607 106.13C108.5 105.673 108.506 105.197 108.624 104.743C108.742 104.288 108.969 103.87 109.285 103.522C109.621 103.173 109.984 102.85 110.371 102.557C111.685 101.556 113.055 100.63 114.473 99.782L145.06 82.1057L146.146 81.5024C147.711 80.744 149.415 80.3129 151.153 80.2355C152.794 80.0947 154.443 80.4077 155.919 81.1405Z" fill="black"/>
<path opacity="0.91" d="M155.74 81.3821L217.215 116.855C217.658 117.045 218.047 117.345 218.342 117.727C218.638 118.109 218.831 118.56 218.903 119.037C218.976 119.514 218.925 120.002 218.756 120.454C218.588 120.907 218.306 121.308 217.938 121.621L216.913 122.466C216.913 122.466 212.63 125.181 212.449 125.241L181.681 143.038C179.511 144.166 177.049 144.608 174.623 144.305C173.785 144.088 172.959 143.826 172.149 143.521C172.149 143.521 169.736 142.133 169.615 142.133L110.372 107.927C109.932 107.754 109.543 107.472 109.243 107.106C108.942 106.741 108.74 106.305 108.655 105.84C108.571 105.374 108.606 104.895 108.759 104.447C108.912 103.999 109.176 103.598 109.528 103.281C109.871 102.916 110.256 102.592 110.674 102.316C110.674 102.316 114.656 99.8427 114.837 99.722L145.001 82.3474L146.087 81.7441C147.622 80.9528 149.309 80.5001 151.034 80.4169C152.661 80.3088 154.287 80.6423 155.74 81.3821Z" fill="black"/>
<path opacity="0.2" d="M172.032 143.159L110.376 107.625C107.963 106.238 108.265 103.824 111.04 102.196L146.151 82.0458C147.588 81.2419 149.192 80.785 150.837 80.7117C152.481 80.6383 154.12 80.9506 155.623 81.6235L217.098 117.157C219.511 118.545 219.209 121.018 216.374 122.587L181.504 142.736C180.067 143.54 178.463 143.997 176.818 144.071C175.173 144.144 173.535 143.832 172.032 143.159Z" fill="black"/>
</g>
<path d="M172.028 143.098L110.372 107.625C109.92 107.408 109.532 107.076 109.246 106.664C108.961 106.252 108.787 105.772 108.743 105.272V102.196C108.743 101.17 109.527 102.98 111.035 102.196L145.966 82.0458C147.402 81.2419 149.007 80.785 150.651 80.7117C152.296 80.6383 153.935 80.9506 155.437 81.6235L217.093 117.097C217.877 117.579 218.481 115.589 218.662 116.192C218.843 116.795 218.662 119.208 218.662 119.389C218.585 120.075 218.327 120.727 217.913 121.279C217.499 121.83 216.946 122.261 216.309 122.526L181.439 142.676C180.01 143.47 178.416 143.922 176.783 143.995C175.15 144.068 173.522 143.761 172.028 143.098Z" fill="url(#paint13_linear)"/>
<path d="M172.02 140.084L110.365 104.61C107.951 103.223 108.253 100.749 111.028 99.1206L145.958 78.9708C147.413 78.132 149.044 77.6459 150.72 77.5516C152.397 77.4573 154.072 77.7574 155.611 78.4278L217.086 114.082C219.499 115.47 219.197 117.943 216.362 119.572L181.492 139.722C180.057 140.535 178.448 140.992 176.8 141.055C175.152 141.118 173.513 140.785 172.02 140.084Z" fill="url(#paint14_linear)"/>
<path d="M176.124 139.841C174.911 139.868 173.711 139.598 172.625 139.057L111.15 103.524C110.788 103.524 110.125 102.86 110.125 102.257C110.125 101.653 110.788 100.809 111.874 100.206L146.563 80.0558C148.031 79.2824 149.67 78.8883 151.329 78.9095C152.544 78.8626 153.75 79.1329 154.828 79.6938L216.484 115.167C216.846 115.167 217.449 115.831 217.449 116.494C217.449 117.158 216.846 117.882 215.76 118.485L180.89 138.756C179.427 139.536 177.781 139.911 176.124 139.841Z" fill="url(#paint15_linear)"/>
<path style="mix-blend-mode:screen" d="M216.37 119.028L181.5 139.177C180.063 139.981 178.459 140.438 176.814 140.512C175.17 140.585 173.531 140.273 172.028 139.6L110.372 104.126C109.953 103.913 109.588 103.606 109.305 103.23C109.023 102.853 108.831 102.417 108.744 101.955C108.718 102.509 108.86 103.059 109.15 103.532C109.441 104.005 109.867 104.38 110.372 104.609L172.028 140.082C173.521 140.783 175.16 141.116 176.808 141.054C178.456 140.991 180.065 140.533 181.5 139.72L216.37 119.571C217.036 119.297 217.611 118.84 218.027 118.253C218.444 117.665 218.685 116.972 218.723 116.252C218.562 116.861 218.268 117.426 217.86 117.906C217.453 118.387 216.944 118.77 216.37 119.028Z" fill="url(#paint16_radial)"/>
<path style="mix-blend-mode:color-dodge" d="M159.236 86.7512C160.865 91.5171 155.677 97.55 147.713 100.325C139.75 103.1 131.847 101.471 130.218 96.7657C128.589 92.0601 133.777 85.9669 141.801 83.1918C149.825 80.4166 157.607 82.0455 159.236 86.7512Z" fill="url(#paint17_radial)"/>
<path d="M182.766 127.05L132.874 98.213C131.848 97.6097 131.969 96.6445 132.874 95.9808L151.636 85.1217C152.248 84.8275 152.918 84.6748 153.597 84.6748C154.276 84.6748 154.946 84.8275 155.557 85.1217L205.449 113.959C206.475 114.562 206.354 115.527 205.449 116.251L186.868 126.688C186.262 127.069 185.574 127.3 184.86 127.363C184.147 127.426 183.429 127.319 182.766 127.05Z" fill="url(#paint18_linear)"/>
<path style="mix-blend-mode:screen" opacity="0.3" d="M153.14 86.3887C153.362 86.2673 153.611 86.2036 153.864 86.2036C154.117 86.2036 154.366 86.2673 154.588 86.3887L157.786 88.2589C158.208 88.2589 158.208 88.8622 157.786 89.1035C157.552 89.2204 157.293 89.2812 157.032 89.2812C156.77 89.2812 156.512 89.2204 156.278 89.1035L153.08 87.2333C152.597 86.992 152.597 86.63 153.14 86.3887ZM158.63 89.5258C159.096 89.3441 159.613 89.3441 160.078 89.5258L161.586 90.4307C162.009 90.4307 162.009 91.034 161.586 91.2753C161.364 91.3968 161.116 91.4604 160.863 91.4604C160.609 91.4604 160.361 91.3968 160.139 91.2753L158.63 90.4911C158.208 90.4911 158.208 89.7671 158.63 89.5258ZM162.431 91.758C162.653 91.6365 162.902 91.5729 163.155 91.5729C163.408 91.5729 163.657 91.6365 163.879 91.758L165.387 92.6026C165.809 92.6026 165.809 93.2059 165.387 93.4472C165.165 93.5686 164.916 93.6323 164.663 93.6323C164.41 93.6323 164.161 93.5686 163.939 93.4472L162.431 92.6026C162.009 92.3613 162.009 91.9993 162.431 91.758ZM166.232 93.9298C166.454 93.8083 166.703 93.7447 166.956 93.7447C167.209 93.7447 167.458 93.8083 167.68 93.9298L169.188 94.8347C169.61 94.8347 169.61 95.438 169.188 95.6793C168.722 95.8611 168.206 95.8611 167.74 95.6793L166.232 94.7744C165.809 94.5331 165.809 94.1711 166.232 93.9298ZM170.032 96.1016C170.254 95.9802 170.503 95.9165 170.756 95.9165C171.009 95.9165 171.258 95.9802 171.48 96.1016L172.989 97.0066C173.411 97.0066 173.411 97.6098 172.989 97.8512C172.767 97.9726 172.518 98.0363 172.265 98.0363C172.012 98.0363 171.763 97.9726 171.541 97.8512L170.032 96.9462C169.61 96.5239 169.61 96.5239 170.032 96.1016ZM173.773 98.3338C174.007 98.2169 174.265 98.1561 174.527 98.1561C174.789 98.1561 175.047 98.2169 175.281 98.3338L176.789 99.1784C177.212 99.1784 177.212 99.7817 176.789 100.023C176.567 100.144 176.318 100.208 176.065 100.208C175.812 100.208 175.563 100.144 175.341 100.023L173.773 99.1784C173.697 99.1367 173.635 99.0755 173.591 99.0012C173.547 98.9269 173.524 98.8423 173.524 98.7561C173.524 98.6699 173.547 98.5852 173.591 98.511C173.635 98.4367 173.697 98.3755 173.773 98.3338ZM177.574 100.506C177.808 100.389 178.066 100.328 178.328 100.328C178.589 100.328 178.848 100.389 179.082 100.506L180.59 101.35C180.682 101.385 180.762 101.446 180.818 101.527C180.875 101.608 180.905 101.704 180.905 101.803C180.905 101.901 180.875 101.997 180.818 102.078C180.762 102.159 180.682 102.221 180.59 102.255C180.352 102.36 180.096 102.414 179.836 102.414C179.576 102.414 179.319 102.36 179.082 102.255L177.574 101.411C177.481 101.376 177.402 101.315 177.345 101.234C177.289 101.153 177.259 101.057 177.259 100.958C177.259 100.86 177.289 100.763 177.345 100.683C177.402 100.602 177.481 100.54 177.574 100.506ZM181.374 102.677C181.579 102.547 181.812 102.468 182.053 102.447C182.295 102.426 182.538 102.464 182.762 102.557L184.33 103.462C184.406 103.503 184.469 103.565 184.512 103.639C184.556 103.713 184.579 103.798 184.579 103.884C184.579 103.97 184.556 104.055 184.512 104.129C184.469 104.203 184.406 104.265 184.33 104.306C184.096 104.423 183.838 104.484 183.576 104.484C183.315 104.484 183.056 104.423 182.822 104.306L181.314 103.401C180.952 103.281 180.952 102.919 181.374 102.557V102.677ZM185.175 104.91C185.397 104.788 185.646 104.725 185.899 104.725C186.152 104.725 186.401 104.788 186.623 104.91L188.131 105.754C188.553 105.754 188.553 106.358 188.131 106.599C187.897 106.716 187.639 106.776 187.377 106.776C187.115 106.776 186.857 106.716 186.623 106.599L185.115 105.754C184.753 105.513 184.753 105.091 185.175 104.91ZM188.976 107.081C189.198 106.96 189.447 106.896 189.7 106.896C189.953 106.896 190.202 106.96 190.424 107.081L191.932 107.926C192.354 107.926 192.354 108.59 191.932 108.771C191.71 108.892 191.461 108.956 191.208 108.956C190.955 108.956 190.706 108.892 190.484 108.771L188.976 107.926C188.795 107.685 188.795 107.323 188.795 107.081H188.976ZM192.776 109.253C192.998 109.132 193.247 109.068 193.5 109.068C193.753 109.068 194.002 109.132 194.224 109.253L195.732 110.158C196.155 110.158 196.155 110.761 195.732 111.003C195.511 111.124 195.262 111.188 195.009 111.188C194.756 111.188 194.507 111.124 194.285 111.003L192.776 110.098C192.354 109.857 192.354 109.495 192.776 109.253ZM196.577 111.425C197.043 111.243 197.559 111.243 198.025 111.425L199.533 112.33C199.955 112.33 199.955 112.933 199.533 113.175C199.311 113.296 199.062 113.36 198.809 113.36C198.556 113.36 198.307 113.296 198.085 113.175L196.577 112.33C196.485 112.296 196.405 112.234 196.349 112.153C196.293 112.072 196.262 111.976 196.262 111.878C196.262 111.779 196.293 111.683 196.349 111.602C196.405 111.521 196.485 111.459 196.577 111.425ZM200.438 113.718C200.66 113.596 200.909 113.532 201.162 113.532C201.415 113.532 201.664 113.596 201.886 113.718L203.394 114.562C203.817 114.562 203.817 115.165 203.394 115.407C203.172 115.528 202.923 115.592 202.67 115.592C202.417 115.592 202.168 115.528 201.946 115.407L200.438 114.562C200.016 114.623 200.016 113.899 200.438 113.718ZM149.762 88.3796L151.029 87.5953C151.294 87.4754 151.582 87.4133 151.874 87.4133C152.165 87.4133 152.453 87.4754 152.718 87.5953L154.045 88.3796C154.468 88.3796 154.468 89.0432 154.045 89.3448L152.718 90.0688C152.461 90.217 152.17 90.2951 151.874 90.2951C151.577 90.2951 151.286 90.217 151.029 90.0688L149.762 89.3448C149.279 89.0432 149.279 88.6209 149.762 88.3796ZM154.83 92.3009L153.502 91.5167C153.414 91.471 153.339 91.4018 153.288 91.3166C153.236 91.2315 153.208 91.1337 153.208 91.034C153.208 90.9343 153.236 90.8365 153.288 90.7514C153.339 90.6663 153.414 90.5971 153.502 90.5514L154.83 89.7671C155.091 89.6346 155.381 89.5655 155.674 89.5655C155.968 89.5655 156.257 89.6346 156.519 89.7671L157.786 90.4911C158.268 90.7927 158.268 91.215 157.786 91.4563L156.459 92.2406C156.206 92.3614 155.93 92.4291 155.65 92.4395C155.37 92.4499 155.091 92.4027 154.83 92.3009ZM157.303 92.7232L158.63 91.9993C158.887 91.851 159.178 91.773 159.475 91.773C159.771 91.773 160.063 91.851 160.32 91.9993L161.586 92.7232C162.069 93.0249 162.069 93.4472 161.586 93.6885L160.32 94.4728C160.054 94.5927 159.766 94.6547 159.475 94.6547C159.184 94.6547 158.896 94.5927 158.63 94.4728L157.303 93.6885C156.881 93.4472 156.881 93.0249 157.303 92.7232ZM161.104 94.9554L162.431 94.1711C162.686 94.0524 162.964 93.9909 163.245 93.9909C163.527 93.9909 163.805 94.0524 164.06 94.1711L165.387 94.9554C165.87 94.9554 165.87 95.619 165.387 95.9206L164.12 96.6446C163.863 96.7929 163.572 96.8709 163.276 96.8709C162.979 96.8709 162.688 96.7929 162.431 96.6446L161.104 95.9206C160.682 95.619 160.682 95.1967 161.104 94.9554ZM169.188 98.0925L167.921 98.8164C167.664 98.9647 167.373 99.0427 167.076 99.0427C166.78 99.0427 166.489 98.9647 166.232 98.8164L164.905 98.0925C164.422 97.7908 164.422 97.3685 164.905 97.1272L166.232 96.5239C166.487 96.4052 166.765 96.3437 167.046 96.3437C167.328 96.3437 167.606 96.4052 167.861 96.5239L169.188 97.3082C169.25 97.3529 169.301 97.4118 169.336 97.48C169.371 97.5481 169.389 97.6237 169.389 97.7003C169.389 97.777 169.371 97.8525 169.336 97.9207C169.301 97.9889 169.25 98.0478 169.188 98.0925ZM172.989 100.264L171.661 101.049C171.406 101.167 171.128 101.229 170.847 101.229C170.566 101.229 170.288 101.167 170.032 101.049L168.705 100.264C168.223 100.264 168.223 99.6007 168.705 99.299L170.032 98.5751C170.278 98.426 170.56 98.3471 170.847 98.3471C171.134 98.3471 171.416 98.426 171.661 98.5751L172.989 99.299C173.471 99.6007 173.471 100.023 172.989 100.264ZM176.729 102.557L175.402 103.281C175.147 103.399 174.869 103.461 174.587 103.461C174.306 103.461 174.028 103.399 173.773 103.281L172.506 102.557C172.023 102.557 172.023 101.893 172.506 101.592L173.773 100.868C174.038 100.748 174.326 100.686 174.617 100.686C174.909 100.686 175.197 100.748 175.462 100.868L176.789 101.652C177.272 101.773 177.272 102.195 176.729 102.557ZM180.53 104.729L179.202 105.453C178.957 105.602 178.675 105.681 178.388 105.681C178.101 105.681 177.819 105.602 177.574 105.453L176.246 104.729C175.764 104.427 175.764 104.005 176.246 103.763L177.513 102.979C177.779 102.859 178.067 102.797 178.358 102.797C178.649 102.797 178.937 102.859 179.202 102.979L180.53 103.763C180.608 103.808 180.674 103.871 180.722 103.947C180.769 104.023 180.798 104.11 180.804 104.2C180.81 104.289 180.793 104.379 180.756 104.461C180.719 104.543 180.662 104.614 180.59 104.668L180.53 104.729ZM184.33 106.9L183.003 107.685C182.738 107.805 182.45 107.867 182.159 107.867C181.867 107.867 181.579 107.805 181.314 107.685L180.047 106.9C179.919 106.9 179.796 106.85 179.706 106.759C179.615 106.669 179.564 106.546 179.564 106.418C179.564 106.29 179.615 106.167 179.706 106.077C179.796 105.986 179.919 105.935 180.047 105.935L181.314 105.211C181.571 105.063 181.862 104.985 182.159 104.985C182.455 104.985 182.746 105.063 183.003 105.211L184.33 105.935C184.813 106.177 184.813 106.599 184.391 106.84L184.33 106.9ZM188.131 109.133L186.804 109.857C186.538 109.976 186.25 110.039 185.959 110.039C185.668 110.039 185.38 109.976 185.115 109.857L183.848 109.072C183.365 109.072 183.365 108.409 183.848 108.107L185.175 107.383C185.44 107.263 185.728 107.201 186.02 107.201C186.311 107.201 186.599 107.263 186.864 107.383L188.191 108.167C188.795 108.59 188.795 108.59 188.191 109.072L188.131 109.133ZM187.588 110.339L188.795 109.495C189.06 109.375 189.348 109.313 189.639 109.313C189.931 109.313 190.218 109.375 190.484 109.495L191.751 110.279C192.233 110.279 192.233 110.942 191.751 111.244L190.484 111.968C190.227 112.116 189.936 112.194 189.639 112.194C189.343 112.194 189.051 112.116 188.795 111.968L187.467 111.244C187.226 110.942 187.226 110.52 187.648 110.279L187.588 110.339ZM195.672 113.476L194.405 114.261C194.14 114.38 193.852 114.443 193.561 114.443C193.269 114.443 192.981 114.38 192.716 114.261L191.389 113.476C191.3 113.431 191.226 113.361 191.174 113.276C191.122 113.191 191.095 113.093 191.095 112.994C191.095 112.894 191.122 112.796 191.174 112.711C191.226 112.626 191.3 112.557 191.389 112.511L192.716 111.787C192.973 111.639 193.264 111.561 193.561 111.561C193.857 111.561 194.148 111.639 194.405 111.787L195.672 112.511C196.215 112.752 196.215 113.175 195.732 113.416L195.672 113.476ZM201.222 116.674L199.955 117.458C199.69 117.578 199.402 117.64 199.111 117.64C198.82 117.64 198.532 117.578 198.266 117.458L195.25 115.708C195.161 115.663 195.087 115.594 195.035 115.508C194.983 115.423 194.956 115.326 194.956 115.226C194.956 115.126 194.983 115.028 195.035 114.943C195.087 114.858 195.161 114.789 195.25 114.743L196.577 114.019C196.834 113.871 197.125 113.793 197.422 113.793C197.718 113.793 198.009 113.871 198.266 114.019L201.222 115.708C201.765 115.95 201.765 116.372 201.283 116.613L201.222 116.674ZM146.203 90.4911L147.53 89.7671C147.787 89.6189 148.078 89.5408 148.374 89.5408C148.671 89.5408 148.962 89.6189 149.219 89.7671L152.175 91.5167C152.658 91.5167 152.658 92.1803 152.175 92.4819L150.908 93.2059C150.643 93.3258 150.355 93.3878 150.064 93.3878C149.772 93.3878 149.485 93.3258 149.219 93.2059L146.203 91.4563C145.78 91.0944 145.78 90.4911 146.203 90.4911ZM151.693 93.6885L153.02 92.9042C153.275 92.7855 153.553 92.724 153.834 92.724C154.116 92.724 154.394 92.7855 154.649 92.9042L155.976 93.6885C156.459 93.6885 156.459 94.3521 155.976 94.6537L154.709 95.3777C154.452 95.5259 154.161 95.604 153.864 95.604C153.568 95.604 153.277 95.5259 153.02 95.3777L151.693 94.6537C151.21 94.2314 151.21 93.8091 151.693 93.5678V93.6885ZM155.493 96.8256C155.365 96.8256 155.242 96.7747 155.152 96.6842C155.061 96.5937 155.011 96.471 155.011 96.3429C155.011 96.2149 155.061 96.0922 155.152 96.0017C155.242 95.9112 155.365 95.8603 155.493 95.8603L156.82 95.1364C157.066 94.9872 157.348 94.9084 157.635 94.9084C157.922 94.9084 158.204 94.9872 158.449 95.1364L159.777 95.8603C160.259 96.162 160.259 96.5843 159.777 96.8256L158.449 97.6099C158.194 97.7286 157.916 97.7901 157.635 97.7901C157.354 97.7901 157.076 97.7286 156.82 97.6099L155.493 96.8256ZM159.294 98.9974C158.811 98.9974 158.811 98.3338 159.294 98.0321L160.561 97.3082C160.818 97.1599 161.109 97.0819 161.405 97.0819C161.702 97.0819 161.993 97.1599 162.25 97.3082L163.577 98.0321C164.06 98.3338 164.06 98.7561 163.577 98.9974L162.25 99.7817C161.995 99.9004 161.717 99.9619 161.436 99.9619C161.154 99.9619 160.876 99.9004 160.621 99.7817L159.294 98.9974ZM166.051 99.48L167.378 100.264C167.8 100.264 167.8 100.928 167.378 101.23L166.051 101.954C165.805 102.103 165.524 102.182 165.236 102.182C164.949 102.182 164.667 102.103 164.422 101.954L163.095 101.23C162.612 100.928 162.612 100.506 163.095 100.264L164.362 99.48C164.618 99.3408 164.902 99.2581 165.193 99.2372C165.484 99.2164 165.777 99.2581 166.051 99.3594V99.48ZM169.791 101.652L171.239 102.496C171.661 102.496 171.661 103.1 171.239 103.341L169.791 104.186C169.557 104.303 169.299 104.363 169.037 104.363C168.775 104.363 168.517 104.303 168.283 104.186L166.775 103.341C166.352 103.341 166.352 102.738 166.775 102.496L168.283 101.652C168.508 101.516 168.761 101.434 169.023 101.413C169.285 101.392 169.548 101.433 169.791 101.531V101.652ZM173.532 103.824L175.04 104.668C175.132 104.703 175.212 104.764 175.268 104.845C175.324 104.926 175.354 105.022 175.354 105.121C175.354 105.219 175.324 105.315 175.268 105.396C175.212 105.477 175.132 105.539 175.04 105.573L173.592 106.418C173.358 106.535 173.099 106.596 172.838 106.596C172.576 106.596 172.318 106.535 172.084 106.418L170.575 105.513C170.153 105.513 170.153 104.91 170.575 104.668L172.023 103.824C172.248 103.688 172.501 103.606 172.763 103.585C173.025 103.564 173.288 103.605 173.532 103.703V103.824ZM177.332 105.996L178.84 106.84C178.933 106.874 179.012 106.936 179.069 107.017C179.125 107.098 179.155 107.194 179.155 107.293C179.155 107.391 179.125 107.487 179.069 107.568C179.012 107.649 178.933 107.711 178.84 107.745L177.393 108.59C177.158 108.707 176.9 108.767 176.638 108.767C176.377 108.767 176.119 108.707 175.884 108.59L174.376 107.745C174.284 107.711 174.204 107.649 174.148 107.568C174.092 107.487 174.061 107.391 174.061 107.293C174.061 107.194 174.092 107.098 174.148 107.017C174.204 106.936 174.284 106.874 174.376 106.84L175.824 105.996C176.049 105.86 176.302 105.778 176.564 105.757C176.826 105.736 177.089 105.776 177.332 105.875V105.996ZM181.133 108.228L182.641 109.072C183.063 109.072 183.063 109.676 182.641 109.917L181.133 110.761C180.899 110.878 180.641 110.939 180.379 110.939C180.117 110.939 179.859 110.878 179.625 110.761L178.177 109.917C177.755 109.917 177.755 109.314 178.177 109.072L179.625 108.228C179.849 108.092 180.103 108.01 180.365 107.989C180.626 107.968 180.889 108.009 181.133 108.107V108.228ZM184.934 110.4L186.442 111.244C186.517 111.286 186.58 111.347 186.624 111.421C186.668 111.496 186.691 111.58 186.691 111.666C186.691 111.753 186.668 111.837 186.624 111.912C186.58 111.986 186.517 112.047 186.442 112.089L184.934 112.933C184.699 113.05 184.441 113.111 184.18 113.111C183.918 113.111 183.66 113.05 183.425 112.933L181.978 112.089C181.555 112.089 181.555 111.485 181.978 111.244L183.425 110.4C183.65 110.264 183.903 110.182 184.165 110.161C184.427 110.14 184.69 110.18 184.934 110.279V110.4ZM187.226 115.165L185.778 114.321C185.686 114.287 185.606 114.225 185.55 114.144C185.494 114.063 185.464 113.967 185.464 113.868C185.464 113.77 185.494 113.674 185.55 113.593C185.606 113.512 185.686 113.45 185.778 113.416L187.226 112.571C187.46 112.455 187.718 112.394 187.98 112.394C188.242 112.394 188.5 112.455 188.734 112.571L190.182 113.416C190.275 113.45 190.354 113.512 190.411 113.593C190.467 113.674 190.497 113.77 190.497 113.868C190.497 113.967 190.467 114.063 190.411 114.144C190.354 114.225 190.275 114.287 190.182 114.321L188.734 115.165C188.491 115.264 188.228 115.304 187.966 115.283C187.704 115.263 187.451 115.181 187.226 115.045V115.165ZM191.027 117.337L189.579 116.493C189.157 116.493 189.157 115.829 189.579 115.648L191.027 114.623C191.264 114.518 191.521 114.464 191.781 114.464C192.041 114.464 192.297 114.518 192.535 114.623L193.983 115.467C194.405 115.467 194.405 116.07 193.983 116.312L192.535 117.156C192.306 117.283 192.05 117.354 191.788 117.364C191.526 117.375 191.266 117.324 191.027 117.217V117.337ZM197.904 118.725L196.396 119.569C196.162 119.686 195.904 119.747 195.642 119.747C195.38 119.747 195.122 119.686 194.888 119.569L193.44 118.725C193.018 118.725 193.018 118.122 193.44 117.88L194.828 116.915C195.062 116.798 195.32 116.737 195.582 116.737C195.843 116.737 196.102 116.798 196.336 116.915L197.784 117.76C198.266 118.001 198.266 118.363 197.904 118.604V118.725ZM142.643 92.6026L144.091 91.758C144.325 91.6411 144.584 91.5803 144.845 91.5803C145.107 91.5803 145.365 91.6411 145.599 91.758L150.365 94.4728C150.458 94.507 150.537 94.5688 150.594 94.6497C150.65 94.7305 150.68 94.8267 150.68 94.9252C150.68 95.0237 150.65 95.1199 150.594 95.2008C150.537 95.2817 150.458 95.3434 150.365 95.3777L148.917 96.2223C148.683 96.3391 148.425 96.4 148.163 96.4C147.902 96.4 147.643 96.3391 147.409 96.2223L142.643 93.4472C142.221 93.0852 142.221 92.7232 142.643 92.4819V92.6026ZM149.702 96.5239L151.15 95.6793C151.384 95.5625 151.642 95.5017 151.904 95.5017C152.165 95.5017 152.424 95.5625 152.658 95.6793L154.166 96.5843C154.588 96.5843 154.588 97.1875 154.166 97.4289L152.718 98.2735C152.484 98.3903 152.226 98.4511 151.964 98.4511C151.702 98.4511 151.444 98.3903 151.21 98.2735L149.702 97.4289C149.609 97.3946 149.53 97.3329 149.473 97.252C149.417 97.1711 149.387 97.0749 149.387 96.9764C149.387 96.8779 149.417 96.7817 149.473 96.7008C149.53 96.6199 149.609 96.5582 149.702 96.5239ZM153.502 98.7561L154.95 97.9115C155.185 97.7946 155.443 97.7338 155.704 97.7338C155.966 97.7338 156.224 97.7946 156.459 97.9115L157.967 98.7561C158.389 98.7561 158.389 99.3594 157.967 99.6007L156.459 100.445C156.224 100.562 155.966 100.623 155.704 100.623C155.443 100.623 155.185 100.562 154.95 100.445L153.502 99.6007C153.08 99.3594 153.08 98.9974 153.502 98.7561ZM157.303 100.928L158.63 100.083C158.865 99.9665 159.123 99.9056 159.384 99.9056C159.646 99.9056 159.904 99.9665 160.139 100.083L161.647 100.928C161.739 100.962 161.819 101.024 161.875 101.105C161.931 101.186 161.961 101.282 161.961 101.38C161.961 101.479 161.931 101.575 161.875 101.656C161.819 101.737 161.739 101.799 161.647 101.833L160.139 102.677C159.895 102.776 159.632 102.816 159.37 102.795C159.108 102.774 158.855 102.693 158.63 102.557L157.182 101.652C156.881 101.531 156.881 101.169 157.303 100.928ZM162.552 104.849L161.104 104.005C161.011 103.97 160.932 103.909 160.876 103.828C160.819 103.747 160.789 103.651 160.789 103.552C160.789 103.454 160.819 103.358 160.876 103.277C160.932 103.196 161.011 103.134 161.104 103.1L162.552 102.557C162.786 102.44 163.044 102.379 163.306 102.379C163.568 102.379 163.826 102.44 164.06 102.557L165.508 103.401C165.6 103.436 165.68 103.497 165.736 103.578C165.792 103.659 165.822 103.755 165.822 103.854C165.822 103.952 165.792 104.049 165.736 104.129C165.68 104.21 165.6 104.272 165.508 104.306L164.06 105.151C163.803 105.224 163.532 105.234 163.269 105.182C163.007 105.129 162.761 105.015 162.552 104.849ZM166.352 107.021L164.663 106.177C164.241 106.177 164.241 105.573 164.663 105.332L166.111 104.487C166.345 104.37 166.603 104.31 166.865 104.31C167.127 104.31 167.385 104.37 167.619 104.487L169.067 105.332C169.49 105.332 169.49 105.935 169.067 106.177L167.619 107.021C167.213 107.185 166.759 107.185 166.352 107.021ZM170.153 109.193L168.645 108.348C168.569 108.307 168.507 108.245 168.463 108.171C168.419 108.097 168.396 108.012 168.396 107.926C168.396 107.84 168.419 107.755 168.463 107.681C168.507 107.607 168.569 107.545 168.645 107.504L170.153 106.659C170.387 106.542 170.645 106.481 170.907 106.481C171.169 106.481 171.427 106.542 171.661 106.659L173.109 107.504C173.202 107.538 173.281 107.6 173.338 107.681C173.394 107.762 173.424 107.858 173.424 107.956C173.424 108.055 173.394 108.151 173.338 108.232C173.281 108.313 173.202 108.374 173.109 108.409L171.661 109.253C171.42 109.349 171.161 109.392 170.901 109.382C170.641 109.372 170.387 109.307 170.153 109.193ZM173.954 111.425L172.446 110.581C172.353 110.546 172.274 110.484 172.217 110.404C172.161 110.323 172.131 110.227 172.131 110.128C172.131 110.03 172.161 109.933 172.217 109.852C172.274 109.772 172.353 109.71 172.446 109.676L173.954 108.59C174.188 108.473 174.446 108.412 174.708 108.412C174.97 108.412 175.228 108.473 175.462 108.59L176.91 109.434C177.002 109.469 177.082 109.53 177.138 109.611C177.194 109.692 177.225 109.788 177.225 109.887C177.225 109.985 177.194 110.081 177.138 110.162C177.082 110.243 177.002 110.305 176.91 110.339L175.462 111.184C175.247 111.34 174.999 111.443 174.737 111.485C174.475 111.527 174.207 111.506 173.954 111.425ZM177.755 113.597L176.246 112.752C175.824 112.752 175.824 112.149 176.246 111.908L177.694 111.063C177.928 110.946 178.187 110.885 178.448 110.885C178.71 110.885 178.968 110.946 179.202 111.063L180.711 111.908C181.133 111.908 181.133 112.511 180.711 112.752L179.263 113.597C179.029 113.714 178.77 113.775 178.509 113.775C178.247 113.775 177.989 113.714 177.755 113.597ZM181.555 115.769L180.047 114.924C179.625 114.924 179.625 114.321 180.047 114.08L181.495 113.235C181.729 113.118 181.987 113.057 182.249 113.057C182.511 113.057 182.769 113.118 183.003 113.235L184.511 114.08C184.934 114.08 184.934 114.683 184.511 114.924L183.063 115.769C182.829 115.886 182.571 115.946 182.309 115.946C182.048 115.946 181.789 115.886 181.555 115.769ZM183.848 116.251L185.296 115.407C185.53 115.29 185.788 115.229 186.05 115.229C186.311 115.229 186.57 115.29 186.804 115.407L188.312 116.251C188.404 116.286 188.484 116.347 188.54 116.428C188.597 116.509 188.627 116.605 188.627 116.704C188.627 116.802 188.597 116.899 188.54 116.979C188.484 117.06 188.404 117.122 188.312 117.156L186.804 118.001C186.57 118.118 186.311 118.179 186.05 118.179C185.788 118.179 185.53 118.118 185.296 118.001L183.848 117.156C183.755 117.122 183.676 117.06 183.619 116.979C183.563 116.899 183.533 116.802 183.533 116.704C183.533 116.605 183.563 116.509 183.619 116.428C183.676 116.347 183.755 116.286 183.848 116.251ZM194.345 120.655L192.897 121.5C192.663 121.617 192.405 121.678 192.143 121.678C191.881 121.678 191.623 121.617 191.389 121.5L187.648 119.328C187.556 119.294 187.476 119.232 187.42 119.151C187.364 119.07 187.334 118.974 187.334 118.876C187.334 118.777 187.364 118.681 187.42 118.6C187.476 118.519 187.556 118.458 187.648 118.423L188.795 117.579C189.029 117.462 189.287 117.401 189.549 117.401C189.811 117.401 190.069 117.462 190.303 117.579L194.043 119.75C194.157 119.731 194.274 119.753 194.372 119.812C194.471 119.872 194.545 119.964 194.582 120.074C194.618 120.183 194.614 120.302 194.571 120.408C194.528 120.515 194.447 120.603 194.345 120.655ZM139.144 94.4728L140.532 93.7488C140.797 93.6289 141.085 93.5669 141.376 93.5669C141.668 93.5669 141.956 93.6289 142.221 93.7488L148.978 97.6702C149.46 97.6702 149.46 98.3338 148.978 98.6354L147.711 99.3594C147.454 99.5076 147.163 99.5857 146.866 99.5857C146.57 99.5857 146.278 99.5076 146.022 99.3594L139.265 95.438C138.662 95.1967 138.662 94.7744 139.144 94.4728ZM148.374 99.842L149.641 99.1181C149.909 98.9702 150.21 98.8926 150.516 98.8926C150.822 98.8926 151.123 98.9702 151.391 99.1181L152.658 99.842C152.786 99.842 152.909 99.8929 152.999 99.9834C153.09 100.074 153.14 100.197 153.14 100.325C153.14 100.453 153.09 100.575 152.999 100.666C152.909 100.756 152.786 100.807 152.658 100.807L151.391 101.531C151.134 101.679 150.843 101.758 150.546 101.758C150.25 101.758 149.958 101.679 149.702 101.531L148.374 100.807C148.286 100.762 148.212 100.692 148.16 100.607C148.108 100.522 148.08 100.424 148.08 100.325C148.08 100.225 148.108 100.127 148.16 100.042C148.212 99.9569 148.286 99.8877 148.374 99.842ZM152.175 102.014L153.442 101.29C153.708 101.17 153.995 101.108 154.287 101.108C154.578 101.108 154.866 101.17 155.131 101.29L156.459 102.014C156.881 102.315 156.941 102.738 156.459 103.039L155.192 103.763C154.915 103.881 154.617 103.942 154.317 103.942C154.016 103.942 153.719 103.881 153.442 103.763L152.175 102.979C151.693 102.557 151.693 102.557 152.175 102.014ZM155.976 104.186L157.243 103.462C157.508 103.342 157.796 103.28 158.087 103.28C158.379 103.28 158.667 103.342 158.932 103.462L160.259 104.246C160.682 104.246 160.682 104.91 160.259 105.211L158.992 105.935C158.724 106.083 158.424 106.161 158.118 106.161C157.812 106.161 157.511 106.083 157.243 105.935L155.976 105.211C155.493 104.91 155.493 104.487 155.976 104.186ZM159.777 106.418L161.043 105.694C161.3 105.546 161.592 105.468 161.888 105.468C162.185 105.468 162.476 105.546 162.733 105.694L164 106.418C164.128 106.418 164.25 106.469 164.341 106.559C164.431 106.65 164.482 106.772 164.482 106.9C164.482 107.028 164.431 107.151 164.341 107.242C164.25 107.332 164.128 107.383 164 107.383L162.733 108.107C162.476 108.255 162.185 108.333 161.888 108.333C161.592 108.333 161.3 108.255 161.043 108.107L159.777 107.383C159.649 107.383 159.526 107.332 159.435 107.242C159.345 107.151 159.294 107.028 159.294 106.9C159.294 106.772 159.345 106.65 159.435 106.559C159.526 106.469 159.649 106.418 159.777 106.418ZM163.577 108.59L164.663 107.866C164.92 107.717 165.211 107.639 165.508 107.639C165.804 107.639 166.096 107.717 166.352 107.866L167.619 108.59C168.102 108.891 168.102 109.314 167.619 109.615L166.352 110.339C166.087 110.459 165.799 110.521 165.508 110.521C165.217 110.521 164.929 110.459 164.663 110.339L163.396 109.555C163.095 109.314 163.095 108.891 163.577 108.59ZM167.378 110.761L168.645 110.038C168.91 109.918 169.198 109.856 169.49 109.856C169.781 109.856 170.069 109.918 170.334 110.038L171.601 110.761C172.084 111.063 172.084 111.485 171.601 111.787L170.334 112.511C170.069 112.631 169.781 112.693 169.49 112.693C169.198 112.693 168.91 112.631 168.645 112.511L167.378 111.787C166.895 111.485 166.895 111.063 167.378 110.761ZM171.179 112.994L172.446 112.27C172.702 112.121 172.994 112.043 173.29 112.043C173.587 112.043 173.878 112.121 174.135 112.27L175.402 112.994C175.53 112.994 175.652 113.045 175.743 113.135C175.833 113.226 175.884 113.348 175.884 113.476C175.884 113.604 175.833 113.727 175.743 113.818C175.652 113.908 175.53 113.959 175.402 113.959L174.135 114.683C173.878 114.831 173.587 114.909 173.29 114.909C172.994 114.909 172.702 114.831 172.446 114.683L171.179 113.959C170.696 113.657 170.696 113.235 171.179 112.994ZM174.919 115.165L176.186 114.623C176.454 114.475 176.755 114.397 177.061 114.397C177.367 114.397 177.668 114.475 177.936 114.623L179.202 115.346C179.685 115.648 179.685 116.07 179.202 116.312L177.936 117.096C177.67 117.216 177.382 117.278 177.091 117.278C176.8 117.278 176.512 117.216 176.246 117.096L174.979 116.312C174.827 116.32 174.678 116.267 174.565 116.165C174.452 116.063 174.384 115.921 174.376 115.769C174.368 115.617 174.421 115.468 174.523 115.355C174.624 115.242 174.767 115.173 174.919 115.165ZM178.72 117.337L179.987 116.613C180.263 116.496 180.561 116.435 180.861 116.435C181.162 116.435 181.46 116.496 181.736 116.613L183.003 117.337C183.486 117.639 183.486 118.061 183.003 118.363L181.736 119.087C181.471 119.207 181.183 119.269 180.892 119.269C180.6 119.269 180.312 119.207 180.047 119.087L178.72 118.363C178.632 118.309 178.56 118.233 178.51 118.144C178.461 118.054 178.434 117.953 178.434 117.85C178.434 117.747 178.461 117.646 178.51 117.557C178.56 117.467 178.632 117.391 178.72 117.337ZM182.52 119.569L183.787 118.785C184.064 118.667 184.362 118.607 184.662 118.607C184.963 118.607 185.26 118.667 185.537 118.785L186.804 119.569C186.932 119.569 187.055 119.62 187.145 119.711C187.236 119.801 187.286 119.924 187.286 120.052C187.286 120.18 187.236 120.303 187.145 120.393C187.055 120.484 186.932 120.535 186.804 120.535L185.537 121.259C185.269 121.407 184.968 121.484 184.662 121.484C184.356 121.484 184.055 121.407 183.787 121.259L182.762 120.655C182.038 120.233 182.038 119.811 182.762 119.569H182.52ZM190.665 122.767L189.398 123.491C189.141 123.639 188.85 123.717 188.553 123.717C188.257 123.717 187.966 123.639 187.709 123.491L186.442 122.767C185.959 122.465 185.959 122.043 186.442 121.802L187.769 121.078C188.026 120.929 188.317 120.851 188.614 120.851C188.91 120.851 189.202 120.929 189.458 121.078L190.725 121.802C190.853 121.81 190.973 121.868 191.058 121.964C191.142 122.06 191.186 122.186 191.178 122.314C191.17 122.442 191.111 122.562 191.015 122.647C190.919 122.732 190.793 122.775 190.665 122.767ZM141.557 98.6354L140.29 99.4197C140.029 99.5522 139.739 99.6213 139.446 99.6213C139.152 99.6213 138.863 99.5522 138.601 99.4197L135.645 97.7305C135.557 97.6848 135.482 97.6156 135.43 97.5305C135.378 97.4454 135.351 97.3476 135.351 97.2479C135.351 97.1482 135.378 97.0504 135.43 96.9653C135.482 96.8801 135.557 96.8109 135.645 96.7653L136.912 96.0413C137.18 95.8934 137.481 95.8159 137.787 95.8159C138.093 95.8159 138.394 95.8934 138.662 96.0413L141.618 97.7305C142.04 97.7908 142.04 98.2131 141.557 98.4544V98.6354ZM145.358 100.868L144.091 101.592C143.826 101.711 143.538 101.773 143.247 101.773C142.955 101.773 142.667 101.711 142.402 101.592L141.075 100.868C140.652 100.566 140.592 100.144 141.075 99.842L142.342 99.1181C142.618 99.0002 142.916 98.9395 143.216 98.9395C143.517 98.9395 143.815 99.0002 144.091 99.1181L145.358 99.842C145.841 99.9627 145.841 100.385 145.358 100.687V100.868ZM149.159 103.039L147.892 103.763C147.624 103.911 147.323 103.989 147.017 103.989C146.711 103.989 146.41 103.911 146.142 103.763L144.875 103.039C144.393 102.738 144.393 102.315 144.875 102.074L146.142 101.29C146.408 101.17 146.696 101.108 146.987 101.108C147.278 101.108 147.566 101.17 147.832 101.29L149.159 102.074C149.581 102.134 149.581 102.557 149.159 102.858V103.039ZM175.703 118.363L174.436 119.087C174.18 119.235 173.888 119.313 173.592 119.313C173.295 119.313 173.004 119.235 172.747 119.087L148.616 105.211C148.488 105.211 148.365 105.16 148.275 105.07C148.184 104.979 148.133 104.857 148.133 104.729C148.133 104.601 148.184 104.478 148.275 104.387C148.365 104.297 148.488 104.246 148.616 104.246L149.883 103.522C150.139 103.374 150.431 103.296 150.727 103.296C151.024 103.296 151.315 103.374 151.572 103.522L175.703 117.398C175.766 117.442 175.816 117.501 175.851 117.569C175.886 117.638 175.905 117.713 175.905 117.79C175.905 117.866 175.886 117.942 175.851 118.01C175.816 118.078 175.766 118.137 175.703 118.182V118.363ZM179.504 120.535L178.237 121.319C177.965 121.452 177.666 121.521 177.362 121.521C177.059 121.521 176.76 121.452 176.488 121.319L175.221 120.595C175.093 120.595 174.97 120.544 174.879 120.454C174.789 120.363 174.738 120.24 174.738 120.112C174.738 119.984 174.789 119.862 174.879 119.771C174.97 119.681 175.093 119.63 175.221 119.63L176.729 118.665C176.986 118.516 177.277 118.438 177.574 118.438C177.87 118.438 178.161 118.516 178.418 118.665L179.745 119.389C179.926 119.69 179.987 120.112 179.504 120.655V120.535ZM183.305 122.767L182.038 123.491C181.761 123.609 181.464 123.669 181.163 123.669C180.862 123.669 180.565 123.609 180.288 123.491L179.021 122.767C178.539 122.465 178.539 122.043 179.021 121.741L180.288 120.655C180.554 120.535 180.842 120.473 181.133 120.473C181.424 120.473 181.712 120.535 181.978 120.655L183.305 121.379C183.465 121.379 183.618 121.443 183.731 121.556C183.844 121.669 183.908 121.823 183.908 121.983C183.908 122.143 183.844 122.296 183.731 122.409C183.618 122.522 183.465 122.586 183.305 122.586V122.767ZM187.166 124.999L185.899 125.723C185.622 125.841 185.325 125.902 185.024 125.902C184.723 125.902 184.426 125.841 184.149 125.723L182.882 124.999C182.4 124.697 182.4 124.275 182.882 123.973L184.149 123.25C184.426 123.132 184.723 123.071 185.024 123.071C185.325 123.071 185.622 123.132 185.899 123.25L187.166 123.973C187.648 124.094 187.648 124.516 187.166 124.818V124.999Z" fill="url(#paint19_linear)"/>
<path d="M216.126 113.597L156.883 79.391C155.6 78.502 154.543 77.3234 153.799 75.9505C153.055 74.5776 152.644 73.0489 152.6 71.488V25.0349C152.6 21.9581 154.47 20.5706 156.763 21.8978L216.126 56.1041C217.38 57.0092 218.404 58.1956 219.117 59.5681C219.829 60.9406 220.21 62.4609 220.229 64.0072V110.46C220.229 113.537 218.419 114.925 216.126 113.597Z" fill="url(#paint20_linear)"/>
<path d="M216.612 111.246L158.033 77.4019C157.074 76.725 156.301 75.8177 155.784 74.7634C155.267 73.7092 155.024 72.5419 155.077 71.3691V24.7953C155.071 24.6652 155.099 24.5356 155.16 24.4204C155.221 24.3051 155.311 24.2084 155.423 24.1404C155.534 24.0724 155.661 24.0358 155.792 24.0342C155.922 24.0327 156.05 24.0664 156.163 24.1317L214.923 58.0968C215.97 58.6875 216.816 59.5774 217.353 60.6523C217.891 61.7271 218.095 62.938 217.94 64.1296V110.703C217.933 110.842 217.893 110.978 217.821 111.097C217.75 111.217 217.65 111.317 217.531 111.389C217.411 111.461 217.276 111.502 217.137 111.508C216.998 111.515 216.859 111.487 216.733 111.427L216.612 111.246Z" fill="url(#paint21_linear)"/>
<g style="mix-blend-mode:multiply">
<path d="M217.932 64.0086V110.582C217.925 110.721 217.885 110.857 217.813 110.976C217.742 111.096 217.642 111.196 217.523 111.268C217.403 111.339 217.268 111.38 217.129 111.387C216.99 111.394 216.851 111.366 216.725 111.306L158.146 77.4619C157.187 76.785 156.413 75.8776 155.897 74.8234C155.38 73.7691 155.137 72.6018 155.19 71.429V24.7949C155.193 24.6807 155.223 24.5689 155.277 24.4684C155.332 24.368 155.409 24.282 155.504 24.2172C155.598 24.1525 155.706 24.111 155.819 24.0961C155.932 24.0811 156.048 24.0932 156.155 24.1313L214.915 58.0964C215.941 58.679 216.774 59.5496 217.31 60.6004C217.846 61.6512 218.062 62.8361 217.932 64.0086ZM217.449 64.0086C217.522 62.9287 217.302 61.8492 216.814 60.8833C216.326 59.9174 215.587 59.1007 214.674 58.5187L155.914 24.5536C155.834 24.5536 155.757 24.5854 155.701 24.642C155.644 24.6986 155.612 24.7753 155.612 24.8553V71.5497C155.582 72.6234 155.819 73.6878 156.304 74.6464C156.788 75.6051 157.505 76.4276 158.387 77.0396L217.087 110.944C217.172 110.93 217.25 110.885 217.305 110.819C217.36 110.753 217.39 110.669 217.389 110.582L217.449 64.0086Z" fill="#BCBEC0"/>
</g>
<path d="M217.274 55.4412L158.031 21.2348C157.683 20.9946 157.284 20.8371 156.866 20.7744C156.448 20.7116 156.021 20.7453 155.618 20.8728L154.29 21.5968C154.685 21.3691 155.132 21.2492 155.588 21.2492C156.043 21.2492 156.49 21.3691 156.885 21.5968L216.127 56.1048C217.381 57.0099 218.405 58.1962 219.118 59.5687C219.83 60.9412 220.211 62.4616 220.23 64.0078V110.461C220.23 112.391 219.506 113.658 218.42 114.02H218.782L220.169 113.236C220.622 112.831 220.972 112.325 221.193 111.759C221.413 111.193 221.496 110.583 221.436 109.978V63.5252C221.429 61.9448 221.049 60.3885 220.325 58.9835C219.602 57.5785 218.556 56.3646 217.274 55.4412Z" fill="url(#paint22_linear)"/>
<path style="mix-blend-mode:screen" d="M216.302 55.9844L157.059 21.778C156.677 21.5821 156.253 21.48 155.823 21.48C155.393 21.48 154.969 21.5821 154.586 21.778C155.279 21.6676 155.988 21.8181 156.577 22.2003L215.82 56.1654C217.084 57.0601 218.116 58.2443 218.83 59.6191C219.543 60.9939 219.918 62.5195 219.922 64.0684V110.521C220.016 111.2 219.912 111.89 219.623 112.511C219.334 113.132 218.872 113.656 218.293 114.021C219.56 114.021 220.465 112.452 220.465 110.401V63.9478C220.439 62.3879 220.05 60.8556 219.327 59.473C218.604 58.0904 217.568 56.8958 216.302 55.9844Z" fill="url(#paint23_radial)"/>
<path style="mix-blend-mode:color-dodge" d="M221.254 63.6452C219.745 64.3088 217.755 62.9213 216.789 60.6288C215.824 58.3363 216.367 55.9835 217.875 55.3802C219.383 54.7769 221.374 56.1041 222.279 58.3966C223.184 60.6891 222.762 63.0419 221.254 63.6452Z" fill="url(#paint24_radial)"/>
<g style="mix-blend-mode:color-dodge">
<path style="mix-blend-mode:color-dodge" d="M187.704 53.6941L193.436 57.0122V55.323L187.704 52.0049V53.6941Z" fill="url(#paint25_linear)"/>
<path style="mix-blend-mode:color-dodge" d="M190.057 67.6887L184.325 64.3706V66.0598L190.057 69.3779V67.6887Z" fill="url(#paint26_linear)"/>
<path style="mix-blend-mode:color-dodge" d="M189.76 58.5817V56.8925L183.365 53.2124V54.9619L189.76 58.5817Z" fill="url(#paint27_linear)"/>
<path style="mix-blend-mode:color-dodge" d="M183.061 59.9668V61.656L186.318 63.5865V61.837L183.061 59.9668Z" fill="url(#paint28_linear)"/>
<path style="mix-blend-mode:color-dodge" d="M178.117 62.5015V60.8123L172.808 57.7959V59.5454L178.117 62.5015Z" fill="url(#paint29_linear)"/>
<path style="mix-blend-mode:color-dodge" d="M192.527 65.4564L188.003 62.8623V64.5515L192.527 67.1456V65.4564Z" fill="url(#paint30_linear)"/>
<path style="mix-blend-mode:color-dodge" d="M186.02 58.2163V59.9658L188.734 61.4741V59.7849L186.02 58.2163Z" fill="url(#paint31_linear)"/>
<path style="mix-blend-mode:color-dodge" d="M195.119 56.2876V57.9768L196.627 58.8214V57.1322L195.119 56.2876Z" fill="url(#paint32_linear)"/>
<path style="mix-blend-mode:color-dodge" d="M184.326 59.0021V57.2525L178.836 54.1758V55.865L184.326 59.0021Z" fill="url(#paint33_linear)"/>
<path style="mix-blend-mode:color-dodge" d="M191.502 57.8545V59.5437L199.586 64.189V62.4998L191.502 57.8545Z" fill="url(#paint34_linear)"/>
<path style="mix-blend-mode:color-dodge" d="M181.369 60.6918V59.0026L174.492 55.1416V56.8911L181.369 60.6918Z" fill="url(#paint35_linear)"/>
<path style="mix-blend-mode:color-dodge" d="M176.115 45.3677V47.0569L181.545 50.194V48.4444L176.115 45.3677Z" fill="url(#paint36_linear)"/>
<path style="mix-blend-mode:color-dodge" d="M185.951 51.0397L183.236 49.4712V51.1604L185.951 52.7289V51.0397Z" fill="url(#paint37_linear)"/>
<path style="mix-blend-mode:color-dodge" d="M182.643 63.4077L179.807 61.7788V63.468L182.643 65.0969V63.4077Z" fill="url(#paint38_linear)"/>
<path style="mix-blend-mode:color-dodge" d="M198.081 70.3435L205.441 74.6268V72.9376L198.081 68.6543V70.3435Z" fill="url(#paint39_linear)"/>
<path style="mix-blend-mode:color-dodge" d="M171.117 56.8307L168.523 55.3828V57.072L171.117 58.5802V56.8307Z" fill="url(#paint40_linear)"/>
<path style="mix-blend-mode:color-dodge" d="M163.151 38.189V39.9385L174.734 46.5143V44.8251L163.151 38.189Z" fill="url(#paint41_linear)"/>
<path style="mix-blend-mode:color-dodge" d="M199.77 67.8098L202.484 69.3784V67.6892L199.77 66.1206V67.8098Z" fill="url(#paint42_linear)"/>
<path style="mix-blend-mode:color-dodge" d="M201.278 65.1555L214.008 72.4553V70.7661L201.278 63.4663V65.1555Z" fill="url(#paint43_linear)"/>
<path style="mix-blend-mode:color-dodge" d="M190.414 62.4421L198.076 66.8461V65.0966L190.414 60.7529V62.4421Z" fill="url(#paint44_linear)"/>
<path style="mix-blend-mode:color-dodge" d="M198.323 58.0962V59.7854L204.416 63.2845V61.5953L198.323 58.0962Z" fill="url(#paint45_linear)"/>
<path style="mix-blend-mode:color-dodge" d="M172.744 54.1746L168.521 51.8218V53.511L172.744 55.9241V54.1746Z" fill="url(#paint46_linear)"/>
<path style="mix-blend-mode:color-dodge" d="M196.393 67.689L194.281 66.4824V68.1716L196.393 69.3782V67.689Z" fill="url(#paint47_linear)"/>
<path style="mix-blend-mode:color-dodge" d="M177.15 53.1503L168.523 48.2637V49.9529L177.15 54.8998V53.1503Z" fill="url(#paint48_linear)"/>
<path style="mix-blend-mode:color-dodge" d="M191.683 73.7232L198.561 77.6445V75.9553L191.683 71.9736V73.7232Z" fill="url(#paint49_linear)"/>
<path style="mix-blend-mode:color-dodge" d="M181.676 52.2462L168.524 44.7051V46.4546L181.676 53.9957V52.2462Z" fill="url(#paint50_linear)"/>
</g>
<g style="mix-blend-mode:color-dodge">
<path style="mix-blend-mode:color-dodge" d="M190.057 81.7453L184.325 78.4272V80.1768L190.057 83.4345V81.7453Z" fill="url(#paint51_linear)"/>
<path style="mix-blend-mode:color-dodge" d="M189.762 72.6366V70.9474L183.367 67.3276V69.0168L189.762 72.6366Z" fill="url(#paint52_linear)"/>
<path style="mix-blend-mode:color-dodge" d="M183.065 74.082V75.7712L186.322 77.6414V75.9522L183.065 74.082Z" fill="url(#paint53_linear)"/>
<path style="mix-blend-mode:color-dodge" d="M178.121 76.6168V74.8672L172.812 71.9111V73.6003L178.121 76.6168Z" fill="url(#paint54_linear)"/>
<path style="mix-blend-mode:color-dodge" d="M192.531 79.5734L188.007 76.9189V78.6081L192.531 81.2626V79.5734Z" fill="url(#paint55_linear)"/>
<path style="mix-blend-mode:color-dodge" d="M186.022 72.3354V74.0247L188.736 75.5932V73.8437L186.022 72.3354Z" fill="url(#paint56_linear)"/>
<path style="mix-blend-mode:color-dodge" d="M184.33 73.0582V71.369L178.84 68.2319V69.9211L184.33 73.0582Z" fill="url(#paint57_linear)"/>
<path style="mix-blend-mode:color-dodge" d="M181.373 74.8071V73.1179L174.496 69.2568V70.946L181.373 74.8071Z" fill="url(#paint58_linear)"/>
<path style="mix-blend-mode:color-dodge" d="M182.645 77.4609L179.809 75.832V77.5816L182.645 79.1501V77.4609Z" fill="url(#paint59_linear)"/>
<path style="mix-blend-mode:color-dodge" d="M198.085 84.46L205.445 88.7433V86.9938L198.085 82.7104V84.46Z" fill="url(#paint60_linear)"/>
<path style="mix-blend-mode:color-dodge" d="M171.121 70.9452L168.527 69.437V71.1262L171.121 72.6344V70.9452Z" fill="url(#paint61_linear)"/>
<path style="mix-blend-mode:color-dodge" d="M199.772 81.866L202.486 83.4948V81.7453L199.772 80.1768V81.866Z" fill="url(#paint62_linear)"/>
<path style="mix-blend-mode:color-dodge" d="M190.42 76.5567L198.082 80.9003V79.2111L190.42 74.8071V76.5567Z" fill="url(#paint63_linear)"/>
<path style="mix-blend-mode:color-dodge" d="M172.746 68.2916L168.523 65.8784V67.6279L172.746 69.9808V68.2916Z" fill="url(#paint64_linear)"/>
<path style="mix-blend-mode:color-dodge" d="M196.395 81.7456L194.283 80.5391V82.2283L196.395 83.4952V81.7456Z" fill="url(#paint65_linear)"/>
<path style="mix-blend-mode:color-dodge" d="M177.154 67.2655L168.527 62.3789V64.0681L177.154 68.9547V67.2655Z" fill="url(#paint66_linear)"/>
<path style="mix-blend-mode:color-dodge" d="M182.1 80.5981V82.2874L184.814 83.7956V82.1064L182.1 80.5981Z" fill="url(#paint67_linear)"/>
<path style="mix-blend-mode:color-dodge" d="M180.406 81.3238V79.6346L174.916 76.4976V78.1868L180.406 81.3238Z" fill="url(#paint68_linear)"/>
<path style="mix-blend-mode:color-dodge" d="M195.85 90.1321L198.564 91.7006V90.0114L195.85 88.4429V90.1321Z" fill="url(#paint69_linear)"/>
<path style="mix-blend-mode:color-dodge" d="M186.51 84.8223L194.172 89.1659V87.4767L186.51 83.0728V84.8223Z" fill="url(#paint70_linear)"/>
<path style="mix-blend-mode:color-dodge" d="M173.23 75.5324L164.603 70.5854V72.335L173.23 77.2216V75.5324Z" fill="url(#paint71_linear)"/>
<path style="mix-blend-mode:color-dodge" d="M181.68 66.3614L168.528 58.8203V60.5095L181.68 68.0506V66.3614Z" fill="url(#paint72_linear)"/>
</g>
<g style="mix-blend-mode:multiply" opacity="0.1">
<path d="M153.863 245.779C126.354 256.277 113.926 248.253 95.043 237.394C76.1601 226.534 68.1364 217.184 88.5878 208.919C109.039 200.654 128.767 209.341 147.65 220.26C166.532 231.18 168.825 240.048 153.863 245.779Z" fill="black"/>
</g>
<path d="M85.7553 220.562C85.0724 223.018 84.9692 225.6 85.4537 228.103C86.6166 229.528 88.2307 230.514 90.0295 230.898C91.8283 231.282 93.7042 231.041 95.3476 230.215C99.2689 228.284 100.958 224.182 102.406 223.216C108.172 221.722 113.64 219.253 118.574 215.917C124.607 210.608 123.943 204.756 117.73 204.635C110.202 204.852 102.811 206.705 96.0715 210.065C92.2562 213.173 88.7964 216.693 85.7553 220.562Z" fill="#10054D"/>
<path d="M88.7684 226.296C93.5496 226.324 98.1475 224.458 101.558 221.107C104.213 218.875 108.918 220.022 114.951 215.075C120.984 210.128 123.095 206.991 120.381 205.422C113.334 203.839 105.949 204.959 99.6879 208.559C91.8451 212.782 86.5966 215.799 86.5966 215.799C86.5966 215.799 84.7264 221.831 85.6916 222.917C86.6569 224.003 86.2346 225.753 88.7684 226.296Z" fill="url(#paint73_linear)"/>
<path d="M88.7102 128.079C86.5953 138.767 86.2083 149.725 87.564 160.535C89.7961 178.634 86.2971 179.479 85.5128 192.389C84.7285 205.299 80.2642 221.105 86.7797 224.363C89.6215 225.273 92.6791 225.255 95.5099 224.311C98.3407 223.367 100.798 221.547 102.525 219.115C104.312 217.443 105.741 215.426 106.726 213.186C107.711 210.946 108.232 208.53 108.257 206.084C106.958 200.566 107.125 194.806 108.739 189.373C111.763 174.504 113.778 159.448 114.772 144.307C114.817 139.932 113.648 135.63 111.394 131.879L88.7102 128.079Z" fill="url(#paint74_linear)"/>
<path d="M119.114 239.445C119.114 239.445 116.761 246.323 119.597 247.831C121.258 248.729 123.093 249.258 124.977 249.383C126.862 249.508 128.751 249.225 130.516 248.555C134.136 246.986 135.644 245.358 139.445 245.358C147.36 243.4 154.725 239.666 160.982 234.438C163.878 230.879 160.982 226.716 153.863 227.259C146.744 227.802 136.609 228.647 134.799 229.25C132.989 229.853 119.114 239.445 119.114 239.445Z" fill="#10054D"/>
<path d="M122.426 244.513C127.518 244.801 132.615 244.02 137.387 242.22C143.42 240.953 161.036 233.835 160.734 230.155C160.433 226.474 156.391 227.078 153.012 227.379C149.634 227.681 138.775 228.465 137.93 228.465C137.086 228.465 119.47 236.368 119.47 236.368C119.47 236.368 118.203 242.401 119.47 243.004C120.737 243.608 120.435 244.332 122.426 244.513Z" fill="url(#paint75_linear)"/>
<path d="M102.1 141.352C106.64 145.029 110.367 149.609 113.047 154.801C115.726 159.993 117.298 165.685 117.665 171.516C117.665 190.278 115.614 238.843 118.449 241.558C121.018 243.046 123.913 243.879 126.88 243.984C129.847 244.09 132.794 243.463 135.462 242.161C137.978 240.631 140.136 238.58 141.791 236.144C143.446 233.709 144.559 230.947 145.054 228.044C144.39 225.631 139.323 217.064 141.072 209.403C145.309 192.369 147.497 174.891 147.588 157.339C147.547 154.485 146.909 151.67 145.715 149.078C144.521 146.485 142.797 144.17 140.655 142.284C138.513 140.397 135.999 138.98 133.276 138.123C130.553 137.267 127.681 136.99 124.844 137.31C117.188 138.193 109.592 139.543 102.1 141.352Z" fill="url(#paint76_linear)"/>
<path d="M71.5125 290C69.3934 289.996 67.3127 289.435 65.4797 288.371L16.4928 259.956C15.4401 259.342 14.568 258.46 13.9643 257.401C13.3606 256.342 13.0467 255.143 13.054 253.924C13.0326 252.687 13.3538 251.469 13.982 250.405C14.6103 249.34 15.521 248.47 16.6134 247.891L64.2731 221.225V194.862C64.2731 194.174 64.5464 193.514 65.0329 193.028C65.5194 192.541 66.1792 192.268 66.8672 192.268C67.5552 192.268 68.215 192.541 68.7015 193.028C69.188 193.514 69.4613 194.174 69.4613 194.862V222.794C69.4543 223.258 69.3286 223.712 69.0963 224.113C68.864 224.514 68.5327 224.85 68.1341 225.087L19.0869 252.476C18.8188 252.623 18.5974 252.842 18.448 253.109C18.2987 253.375 18.2274 253.679 18.2423 253.984C18.2317 254.28 18.3055 254.574 18.455 254.83C18.6045 255.086 18.8236 255.295 19.0869 255.432L68.1341 283.847C69.1847 284.468 70.3827 284.795 71.603 284.795C72.8234 284.795 74.0214 284.468 75.0719 283.847L117.302 259.052V187.743C117.302 187.402 117.369 187.065 117.499 186.75C117.63 186.436 117.821 186.15 118.062 185.909C118.303 185.668 118.589 185.477 118.903 185.346C119.218 185.216 119.555 185.149 119.896 185.149C120.237 185.149 120.574 185.216 120.889 185.346C121.204 185.477 121.49 185.668 121.73 185.909C121.971 186.15 122.162 186.436 122.293 186.75C122.423 187.065 122.49 187.402 122.49 187.743V260.56C122.485 261.009 122.366 261.449 122.145 261.839C121.923 262.229 121.606 262.557 121.223 262.792L77.5454 288.311C75.7253 289.412 73.6396 289.996 71.5125 290Z" fill="url(#paint77_linear)"/>
<path opacity="0.3" d="M71.0906 287.828C69.2698 287.826 67.4811 287.348 65.9024 286.441L16.9155 258.026C16.1261 257.571 15.4706 256.916 15.0148 256.127C14.559 255.338 14.319 254.442 14.319 253.531C14.319 252.62 14.559 251.725 15.0148 250.936C15.4706 250.147 16.1261 249.492 16.9155 249.037L65.1784 221.829V194.439C65.1429 194.305 65.1387 194.165 65.166 194.029C65.1933 193.893 65.2515 193.766 65.336 193.656C65.4206 193.546 65.5292 193.457 65.6535 193.396C65.7778 193.335 65.9146 193.303 66.0532 193.303C66.1917 193.303 66.3285 193.335 66.4528 193.396C66.5771 193.457 66.6858 193.546 66.7703 193.656C66.8548 193.766 66.913 193.893 66.9403 194.029C66.9677 194.165 66.9634 194.305 66.9279 194.439V222.372C66.9266 222.518 66.887 222.663 66.8129 222.79C66.7388 222.917 66.6329 223.022 66.5056 223.095L17.4584 250.545C16.9248 250.831 16.4798 251.258 16.1714 251.779C15.863 252.3 15.703 252.896 15.7089 253.501C15.711 254.106 15.8671 254.7 16.1627 255.228C16.4582 255.756 16.8834 256.2 17.3981 256.518L66.385 284.932C67.7154 285.669 69.2081 286.063 70.7286 286.079C72.2784 286.079 73.7996 285.662 75.1326 284.872L118.69 259.413V187.019C118.705 186.79 118.807 186.575 118.975 186.418C119.143 186.261 119.365 186.174 119.595 186.174C119.819 186.174 120.034 186.263 120.192 186.422C120.35 186.58 120.439 186.795 120.439 187.019V260.137C120.433 260.283 120.391 260.425 120.317 260.551C120.244 260.677 120.141 260.784 120.017 260.861L76.3392 286.38C74.7582 287.341 72.9407 287.843 71.0906 287.828Z" fill="white"/>
<path d="M68.1954 215.977V221.286L127.076 187.26V181.771L68.1954 215.977Z" fill="url(#paint78_linear)"/>
<path d="M68.1953 215.979V221.288L10.5211 187.805V182.315L68.1953 215.979Z" fill="url(#paint79_linear)"/>
<path d="M68.1954 212.781V218.089L127.076 184.004V178.574L68.1954 212.781Z" fill="url(#paint80_linear)"/>
<path d="M68.1953 212.78V218.089L10.5211 184.546V179.117L68.1953 212.78Z" fill="url(#paint81_linear)"/>
<path d="M10.5212 179.117L68.1954 212.78L127.076 178.574L69.3416 144.911L10.5212 179.117Z" fill="url(#paint82_linear)"/>
<path d="M106.327 94.9588C110.472 96.1153 114.752 96.7238 119.056 96.7687C122.374 97.191 125.752 97.3117 125.873 95.5621C125.873 92.2441 111.997 90.7358 111.997 90.7358L106.327 94.9588Z" fill="url(#paint83_radial)"/>
<path d="M97.3435 81.6271C102.904 79.382 108.608 77.5077 114.416 76.0165C118.324 75.0619 122.449 75.645 125.939 77.6454C128.654 78.852 130.524 79.9982 130.283 81.6271C130.283 82.2907 128.594 81.6271 128.594 81.6271C128.594 81.6271 131.791 83.1956 131.67 85.1261C131.55 87.0567 129.619 85.4881 129.619 85.4881C129.619 85.4881 133.058 87.2377 132.877 89.1682C132.696 91.0987 130.585 89.1682 130.585 89.1682C130.585 89.1682 133.541 90.7367 133.601 92.3656C133.661 93.9945 132.636 93.9341 130.524 93.3309C126.328 91.8565 121.845 91.3814 117.433 91.9433C112.426 93.0895 109.651 96.3473 105.367 94.8994C102.384 94.0941 99.2268 94.2204 96.3179 95.2614L97.3435 81.6271Z" fill="url(#paint84_radial)"/>
<path d="M100.24 78.4276C101.324 79.2116 102.188 80.2619 102.748 81.4772C103.308 82.6925 103.546 84.0316 103.437 85.3654C102.63 89.5986 101.143 93.6732 99.0333 97.4311H52.8215C52.8215 97.4311 20.4251 99.8443 26.1563 86.391C31.8875 72.9377 32.7924 69.8609 49.0812 73.722C60.712 76.8492 72.692 78.4911 84.7354 78.6086C91.4922 78.7896 100.24 78.4276 100.24 78.4276Z" fill="url(#paint85_linear)"/>
<g style="mix-blend-mode:multiply">
<path d="M101.625 91.9413C100.056 95.5007 99.0309 97.4312 99.0309 97.4312H52.8191C52.8191 97.4312 25.4902 100.991 26.1538 86.5117C39.947 90.1634 54.1201 92.1881 68.3839 92.5446C86.2412 92.4843 96.9797 92.1223 101.625 91.9413Z" fill="#D1D3D4"/>
</g>
<path d="M41.5291 142.197C46.2347 140.267 72.4173 126.089 80.3204 128.382C92.3861 131.941 116.518 155.288 116.518 155.288C116.518 155.288 54.741 199.57 32.6004 183.402C10.4598 167.234 41.5291 142.197 41.5291 142.197Z" fill="url(#paint86_linear)"/>
<path d="M66.0281 154.866C70.7941 152.875 98.0626 141.353 106.267 142.016C125.211 143.464 136.432 168.863 136.432 168.863C136.432 168.863 80.688 209.162 56.9788 196.01C29.1673 180.627 66.0281 154.866 66.0281 154.866Z" fill="url(#paint87_linear)"/>
<path d="M80.8105 32.9411C85.2145 36.0782 89.4375 40.7235 87.869 52.7893C86.3005 64.855 85.4559 70.8879 82.8014 71.8531C80.1469 72.8184 78.5784 71.1895 77.6131 74.5076C76.9373 77.4544 76.6333 80.4742 76.7082 83.4966L51.3702 73.5423C52.8524 70.9485 53.3655 67.9126 52.818 64.9757C51.7925 60.3907 45.5183 50.7984 53.18 39.2757C56.1967 35.002 60.6847 31.9921 65.7836 30.8232C70.8825 29.6542 76.2334 30.4084 80.8105 32.9411Z" fill="url(#paint88_radial)"/>
<path d="M89.3105 44.7651C89.3105 47.0576 87.0784 50.7979 83.7603 50.3153C83.0794 50.3057 82.4039 50.4368 81.776 50.7004C81.1482 50.964 80.5815 51.3543 80.1114 51.847C79.6414 52.3397 79.2781 52.9241 79.0444 53.5637C78.8106 54.2033 78.7114 54.8842 78.753 55.5639C79.2357 57.4944 78.753 57.9167 78.753 57.9167C78.753 57.9167 76.4606 56.5895 75.073 58.339C73.6854 60.0886 74.53 64.3719 75.073 66.0611C75.616 67.7503 69.4021 71.732 64.8774 71.37C60.3528 71.008 54.4406 69.6808 52.8117 67.0867C50.4666 63.7374 48.9627 59.8727 48.4272 55.8193C47.8916 51.7659 48.3402 47.6432 49.735 43.7998C51.5801 38.4708 55.4258 34.0685 60.4585 31.5239C65.4913 28.9794 71.3164 28.4923 76.7019 30.1655C80.0589 30.9892 83.0765 32.8373 85.3358 35.4534C87.5951 38.0695 88.9843 41.3238 89.3105 44.7651Z" fill="url(#paint89_linear)"/>
<g style="mix-blend-mode:multiply">
<path d="M49.3788 44.7646C52.5685 48.0879 56.5563 50.5387 60.9619 51.8834C66.8007 53.7536 72.9766 54.33 79.0605 53.5726C78.7671 54.1924 78.6622 54.8846 78.7589 55.5635C79.2415 57.494 78.7589 57.9163 78.7589 57.9163C78.7589 57.9163 76.4664 56.5891 75.0789 58.3386C73.6913 60.0881 74.5359 64.3715 75.0789 66.0607C75.6218 67.7499 69.4079 71.7316 64.8833 71.3696C60.3586 71.0076 54.4464 69.6804 52.8176 67.0863C50.5487 63.889 49.0565 60.2067 48.4596 56.3319C47.8627 52.4571 48.1774 48.4965 49.3788 44.7646Z" fill="#D1D3D4"/>
</g>
<path d="M59.5121 78.4274C56.0637 76.469 52.8805 74.0766 50.0405 71.3086H40.2673C36.8953 71.4927 33.6859 72.8167 31.1649 75.0637C28.6439 77.3106 26.9609 80.3473 26.3917 83.676C24.8667 95.1154 24.1008 106.643 24.0992 118.184C21.5654 162.345 13.4211 164.758 26.814 171.937C40.207 179.116 59.6931 183.58 70.9143 174.169C82.1354 164.758 80.3859 163.853 82.98 143.281C85.5741 122.709 92.9342 113.599 85.9361 101.714C81.5456 93.0633 74.6498 85.9362 66.1483 81.2628C63.8786 80.4588 61.6621 79.5117 59.5121 78.4274Z" fill="url(#paint90_linear)"/>
<path d="M81.9559 90.1334C80.8699 84.1005 75.923 83.0146 72.1223 81.627C66.1381 79.6334 60.3601 77.0676 54.8683 73.9653C54.0496 73.4119 53.3793 72.6659 52.9165 71.7927C52.4536 70.9196 52.2123 69.9462 52.2138 68.958L49.6197 71.2505C49.6197 71.2505 48.7751 76.9817 56.6178 80.7824C64.4605 84.5831 73.8115 86.212 78.1551 91.159C79.4628 92.8336 80.9385 94.3699 82.5591 95.7439C82.5591 95.7439 83.0418 96.1059 81.9559 90.1334Z" fill="url(#paint91_linear)"/>
<g style="mix-blend-mode:multiply">
<path d="M66.6958 107.87C75.0211 98.8807 83.5275 108.413 89.5 116.316C86.785 125.194 84.5695 134.217 82.8638 143.343C80.33 163.915 82.0796 164.76 70.7981 174.231C68.3896 176.446 65.507 178.08 62.3704 179.011C59.2337 179.942 55.9259 180.143 52.6995 179.6C53.9061 175.498 56.0779 119.634 66.6958 107.87Z" fill="#D1D3D4"/>
</g>
<path d="M155.973 119.693C158.829 116.783 161.528 113.721 164.057 110.523C166.048 107.808 168.34 105.334 169.607 106.42C172.201 108.592 163.574 119.753 163.574 119.753L155.973 119.693Z" fill="url(#paint92_radial)"/>
<path d="M153.862 134.595C159.925 134.46 165.971 133.916 171.961 132.966C175.914 132.309 179.46 130.147 181.855 126.933C183.906 124.761 185.173 122.951 184.268 121.624C183.363 120.297 182.88 122.469 182.88 122.469C182.88 122.469 185.173 119.814 184.268 118.065C183.363 116.315 182.277 118.547 182.277 118.547C182.277 118.547 184.75 115.591 183.785 113.902C182.82 112.213 181.613 114.566 181.613 114.566C181.613 114.566 183.664 111.972 183.121 110.463C182.578 108.955 181.613 109.377 179.924 110.825C176.623 113.824 172.682 116.031 168.401 117.281C163.394 118.246 159.533 116.315 156.336 119.211C153.905 121.11 150.965 122.244 147.889 122.469L153.862 134.595Z" fill="url(#paint93_radial)"/>
<path d="M69.2176 101.956C67.5566 103.02 66.1452 104.431 65.08 106.092C64.0148 107.752 63.321 109.623 63.046 111.577C62.771 113.531 62.9214 115.521 63.4868 117.411C64.0522 119.301 65.0193 121.046 66.3219 122.528C71.6308 129.285 100.89 146.297 110.241 147.625C119.592 148.952 159.107 137.55 159.107 137.55C159.37 133.638 159.168 129.71 158.504 125.846C158.35 124.633 157.894 123.478 157.177 122.487C156.46 121.496 155.506 120.701 154.402 120.175C154.402 120.175 126.832 127.294 118.566 125.906C110.301 124.519 97.8738 113.841 89.7897 107.808C81.7057 101.775 76.2158 97.6123 69.2176 101.956Z" fill="url(#paint94_linear)"/>
<path d="M68.1329 155.95L62.1 132.603L57.7564 135.137L63.7892 158.363C66.6282 169.709 68.0867 181.357 68.1329 193.052V212.9L72.4766 210.548V190.277C72.4165 178.702 70.9581 167.176 68.1329 155.95Z" fill="url(#paint95_linear)"/>
<path d="M58.235 135.137L0.500488 101.293L6.53336 124.761C9.30486 136.034 10.7026 147.6 10.696 159.208V179.117L68.1289 212.78V193.053C68.1172 181.402 66.6992 169.795 63.9059 158.485L58.235 135.137Z" fill="url(#paint96_linear)"/>
<path d="M0.499931 101.292L58.2948 135.076L62.5781 132.602L4.72294 98.8184L0.499931 101.292Z" fill="url(#paint97_linear)"/>
<defs>
<linearGradient id="paint0_linear" x1="286.045" y1="184.847" x2="297.809" y2="184.847" gradientUnits="userSpaceOnUse">
<stop stop-color="#8A92B3"/>
<stop offset="0.06" stop-color="#8E95B6"/>
<stop offset="0.13" stop-color="#9C9EBE"/>
<stop offset="0.2" stop-color="#B1ACCB"/>
<stop offset="0.25" stop-color="#C7BAD8"/>
<stop offset="0.33" stop-color="#B2AACC"/>
<stop offset="0.45" stop-color="#9A97BE"/>
<stop offset="0.56" stop-color="#8B8CB6"/>
<stop offset="0.65" stop-color="#8688B3"/>
<stop offset="0.85" stop-color="#AAABCB"/>
<stop offset="1" stop-color="#9396B3"/>
</linearGradient>
<linearGradient id="paint1_linear" x1="-46644.9" y1="4036.44" x2="-46668.3" y2="4036.44" gradientUnits="userSpaceOnUse">
<stop stop-color="#8A92B3"/>
<stop offset="0.06" stop-color="#8E95B6"/>
<stop offset="0.13" stop-color="#9C9EBE"/>
<stop offset="0.2" stop-color="#B1ACCB"/>
<stop offset="0.25" stop-color="#C7BAD8"/>
<stop offset="0.33" stop-color="#B2AACC"/>
<stop offset="0.45" stop-color="#9A97BE"/>
<stop offset="0.56" stop-color="#8B8CB6"/>
<stop offset="0.65" stop-color="#8688B3"/>
<stop offset="0.85" stop-color="#AAABCB"/>
<stop offset="1" stop-color="#9396B3"/>
</linearGradient>
<linearGradient id="paint2_linear" x1="290.509" y1="135.318" x2="294.672" y2="152.512" gradientUnits="userSpaceOnUse">
<stop stop-color="#4C4C4C"/>
<stop offset="1" stop-color="white"/>
</linearGradient>
<linearGradient id="paint3_linear" x1="-46656.6" y1="3060.94" x2="-46656.6" y2="3413.29" gradientUnits="userSpaceOnUse">
<stop stop-color="#4C4C4C"/>
<stop offset="1" stop-color="white"/>
</linearGradient>
<linearGradient id="paint4_linear" x1="-46476.9" y1="2302.26" x2="-46500.4" y2="2302.26" gradientUnits="userSpaceOnUse">
<stop stop-color="#8A92B3"/>
<stop offset="0.06" stop-color="#8E95B6"/>
<stop offset="0.13" stop-color="#9C9EBE"/>
<stop offset="0.2" stop-color="#B1ACCB"/>
<stop offset="0.25" stop-color="#C7BAD8"/>
<stop offset="0.33" stop-color="#B2AACC"/>
<stop offset="0.45" stop-color="#9A97BE"/>
<stop offset="0.56" stop-color="#8B8CB6"/>
<stop offset="0.65" stop-color="#8688B3"/>
<stop offset="0.85" stop-color="#AAABCB"/>
<stop offset="1" stop-color="#9396B3"/>
</linearGradient>
<linearGradient id="paint5_linear" x1="162.863" y1="193.896" x2="176.437" y2="40.722" gradientUnits="userSpaceOnUse">
<stop stop-color="#45108A"/>
<stop offset="1" stop-color="#7C1DC9"/>
</linearGradient>
<linearGradient id="paint6_linear" x1="-1.01321e+06" y1="441.942" x2="-1.01261e+06" y2="4208.09" gradientUnits="userSpaceOnUse">
<stop stop-color="#45108A"/>
<stop offset="1" stop-color="#7C1DC9"/>
</linearGradient>
<radialGradient id="paint7_radial" cx="0" cy="0" r="1" gradientUnits="userSpaceOnUse" gradientTransform="translate(170.459 128.319) rotate(180) scale(99.12)">
<stop stop-color="white"/>
<stop offset="1"/>
</radialGradient>
<radialGradient id="paint8_radial" cx="0" cy="0" r="1" gradientUnits="userSpaceOnUse" gradientTransform="translate(254.393 175.19) scale(6.71337 10.4574)">
<stop stop-color="#972A74"/>
<stop offset="0.04" stop-color="#8A266A"/>
<stop offset="0.19" stop-color="#601B4A"/>
<stop offset="0.35" stop-color="#3D112F"/>
<stop offset="0.51" stop-color="#230A1B"/>
<stop offset="0.67" stop-color="#0F040C"/>
<stop offset="0.83" stop-color="#040103"/>
<stop offset="1"/>
</radialGradient>
<linearGradient id="paint9_linear" x1="-18279.5" y1="691.771" x2="-18301.1" y2="690.804" gradientUnits="userSpaceOnUse">
<stop stop-color="#45108A"/>
<stop offset="1" stop-color="#7C1DC9"/>
</linearGradient>
<linearGradient id="paint10_linear" x1="-644932" y1="1506.13" x2="-645158" y2="-735.738" gradientUnits="userSpaceOnUse">
<stop stop-color="#45108A"/>
<stop offset="1" stop-color="#7C1DC9"/>
</linearGradient>
<linearGradient id="paint11_linear" x1="-663859" y1="443.762" x2="-663714" y2="922.55" gradientUnits="userSpaceOnUse">
<stop stop-color="#45108A"/>
<stop offset="1" stop-color="#7C1DC9"/>
</linearGradient>
<radialGradient id="paint12_radial" cx="0" cy="0" r="1" gradientUnits="userSpaceOnUse" gradientTransform="translate(-19677 625.344) scale(3.06771 100.212)">
<stop stop-color="white"/>
<stop offset="1"/>
</radialGradient>
<linearGradient id="paint13_linear" x1="111.337" y1="112.331" x2="231.632" y2="112.331" gradientUnits="userSpaceOnUse">
<stop offset="0.06" stop-color="#200041"/>
<stop offset="0.26" stop-color="#210243"/>
<stop offset="0.36" stop-color="#25084B"/>
<stop offset="0.43" stop-color="#2C1358"/>
<stop offset="0.47" stop-color="#311B61"/>
<stop offset="0.48" stop-color="#351F65"/>
<stop offset="0.5" stop-color="#422C73"/>
<stop offset="0.51" stop-color="#584188"/>
<stop offset="0.52" stop-color="#765FA7"/>
<stop offset="0.53" stop-color="#8770B8"/>
<stop offset="0.54" stop-color="#7E67AE"/>
<stop offset="0.56" stop-color="#5C468D"/>
<stop offset="0.59" stop-color="#442E75"/>
<stop offset="0.61" stop-color="#362066"/>
<stop offset="0.63" stop-color="#311B61"/>
<stop offset="0.67" stop-color="#2A1155"/>
<stop offset="0.75" stop-color="#230446"/>
<stop offset="0.81" stop-color="#200041"/>
<stop offset="1" stop-color="#200041"/>
</linearGradient>
<linearGradient id="paint14_linear" x1="108.917" y1="109.376" x2="218.715" y2="109.376" gradientUnits="userSpaceOnUse">
<stop stop-color="#311B61"/>
<stop offset="0.2" stop-color="#290F52"/>
<stop offset="0.49" stop-color="#200041"/>
<stop offset="1" stop-color="#0F001F"/>
</linearGradient>
<linearGradient id="paint15_linear" x1="110.125" y1="109.375" x2="217.449" y2="109.375" gradientUnits="userSpaceOnUse">
<stop stop-color="#3D065F"/>
<stop offset="1" stop-color="#5F27BD"/>
</linearGradient>
<radialGradient id="paint16_radial" cx="0" cy="0" r="1" gradientUnits="userSpaceOnUse" gradientTransform="translate(403214 889.559) scale(751.177 267.097)">
<stop stop-color="white"/>
<stop offset="1"/>
</radialGradient>
<radialGradient id="paint17_radial" cx="0" cy="0" r="1" gradientUnits="userSpaceOnUse" gradientTransform="translate(104352 -36309.2) rotate(-19.1556) scale(75.6531 29.8086)">
<stop stop-color="#972A74"/>
<stop offset="0.04" stop-color="#8A266A"/>
<stop offset="0.19" stop-color="#601B4A"/>
<stop offset="0.35" stop-color="#3D112F"/>
<stop offset="0.51" stop-color="#230A1B"/>
<stop offset="0.67" stop-color="#0F040C"/>
<stop offset="0.83" stop-color="#040103"/>
<stop offset="1"/>
</radialGradient>
<linearGradient id="paint18_linear" x1="171.326" y1="108.679" x2="172.809" y2="72.1975" gradientUnits="userSpaceOnUse">
<stop stop-color="#3D065F"/>
<stop offset="1" stop-color="#10054D"/>
</linearGradient>
<linearGradient id="paint19_linear" x1="155.554" y1="84.0962" x2="183.546" y2="128.136" gradientUnits="userSpaceOnUse">
<stop offset="0.06" stop-color="#9F79B8"/>
<stop offset="0.25" stop-color="#A17BBA"/>
<stop offset="0.35" stop-color="#A883C0"/>
<stop offset="0.42" stop-color="#B490CC"/>
<stop offset="0.48" stop-color="#C5A3DC"/>
<stop offset="0.54" stop-color="#DBBBF0"/>
<stop offset="0.56" stop-color="#E6C6FA"/>
<stop offset="0.6" stop-color="#D6B6F1"/>
<stop offset="0.69" stop-color="#B595DD"/>
<stop offset="0.77" stop-color="#9D7DCF"/>
<stop offset="0.85" stop-color="#8E6EC6"/>
<stop offset="0.92" stop-color="#8969C3"/>
</linearGradient>
<linearGradient id="paint20_linear" x1="-63914" y1="103.902" x2="-62310.8" y2="1119.03" gradientUnits="userSpaceOnUse">
<stop stop-color="#311B61"/>
<stop offset="0.2" stop-color="#290F52"/>
<stop offset="0.49" stop-color="#200041"/>
<stop offset="1" stop-color="#0F001F"/>
</linearGradient>
<linearGradient id="paint21_linear" x1="213.536" y1="109.617" x2="158.999" y2="25.097" gradientUnits="userSpaceOnUse">
<stop offset="0.03" stop-color="#7C1DC9"/>
<stop offset="0.21" stop-color="#6E41D2"/>
<stop offset="0.62" stop-color="#4C9BE8"/>
<stop offset="1" stop-color="#2AF6FF"/>
</linearGradient>
<linearGradient id="paint22_linear" x1="298268" y1="1817.26" x2="297312" y2="717.782" gradientUnits="userSpaceOnUse">
<stop offset="0.06" stop-color="#200041"/>
<stop offset="0.26" stop-color="#210243"/>
<stop offset="0.36" stop-color="#25084B"/>
<stop offset="0.43" stop-color="#2C1358"/>
<stop offset="0.47" stop-color="#311B61"/>
<stop offset="0.48" stop-color="#351F65"/>
<stop offset="0.5" stop-color="#422C73"/>
<stop offset="0.51" stop-color="#584188"/>
<stop offset="0.52" stop-color="#765FA7"/>
<stop offset="0.53" stop-color="#8770B8"/>
<stop offset="0.54" stop-color="#7E67AE"/>
<stop offset="0.56" stop-color="#5C468D"/>
<stop offset="0.59" stop-color="#442E75"/>
<stop offset="0.61" stop-color="#362066"/>
<stop offset="0.63" stop-color="#311B61"/>
<stop offset="0.67" stop-color="#2A1155"/>
<stop offset="0.75" stop-color="#230446"/>
<stop offset="0.81" stop-color="#200041"/>
<stop offset="1" stop-color="#200041"/>
</linearGradient>
<radialGradient id="paint23_radial" cx="0" cy="0" r="1" gradientUnits="userSpaceOnUse" gradientTransform="translate(291827 957.991) scale(104.089 146.214)">
<stop stop-color="white"/>
<stop offset="1"/>
</radialGradient>
<radialGradient id="paint24_radial" cx="0" cy="0" r="1" gradientUnits="userSpaceOnUse" gradientTransform="translate(-2882.87 2085.33) rotate(67.5572) scale(4.74771 4.18397)">
<stop stop-color="#972A74"/>
<stop offset="0.04" stop-color="#8A266A"/>
<stop offset="0.19" stop-color="#601B4A"/>
<stop offset="0.35" stop-color="#3D112F"/>
<stop offset="0.51" stop-color="#230A1B"/>
<stop offset="0.67" stop-color="#0F040C"/>
<stop offset="0.83" stop-color="#040103"/>
<stop offset="1"/>
</radialGradient>
<linearGradient id="paint25_linear" x1="187.644" y1="54.4784" x2="193.436" y2="54.4784" gradientUnits="userSpaceOnUse">
<stop stop-color="#2AF6FF"/>
<stop offset="1" stop-color="#428BCC"/>
</linearGradient>
<linearGradient id="paint26_linear" x1="-22046.8" y1="119.851" x2="-22052.3" y2="119.851" gradientUnits="userSpaceOnUse">
<stop stop-color="#2AF6FF"/>
<stop offset="1" stop-color="#428BCC"/>
</linearGradient>
<linearGradient id="paint27_linear" x1="-24620.9" y1="102.985" x2="-24627.7" y2="102.985" gradientUnits="userSpaceOnUse">
<stop stop-color="#2AF6FF"/>
<stop offset="1" stop-color="#428BCC"/>
</linearGradient>
<linearGradient id="paint28_linear" x1="-12452.9" y1="97.0327" x2="-12454.7" y2="97.0327" gradientUnits="userSpaceOnUse">
<stop stop-color="#2AF6FF"/>
<stop offset="1" stop-color="#428BCC"/>
</linearGradient>
<linearGradient id="paint29_linear" x1="-20410.1" y1="104.711" x2="-20414.8" y2="104.711" gradientUnits="userSpaceOnUse">
<stop stop-color="#2AF6FF"/>
<stop offset="1" stop-color="#428BCC"/>
</linearGradient>
<linearGradient id="paint30_linear" x1="-17365.7" y1="109.037" x2="-17369.1" y2="109.037" gradientUnits="userSpaceOnUse">
<stop stop-color="#2AF6FF"/>
<stop offset="1" stop-color="#428BCC"/>
</linearGradient>
<linearGradient id="paint31_linear" x1="-10345.3" y1="90.5332" x2="-10346.5" y2="90.5332" gradientUnits="userSpaceOnUse">
<stop stop-color="#2AF6FF"/>
<stop offset="1" stop-color="#428BCC"/>
</linearGradient>
<linearGradient id="paint32_linear" x1="-5657.89" y1="80.4601" x2="-5658.27" y2="80.4601" gradientUnits="userSpaceOnUse">
<stop stop-color="#2AF6FF"/>
<stop offset="1" stop-color="#428BCC"/>
</linearGradient>
<linearGradient id="paint33_linear" x1="-21111.3" y1="99.4464" x2="-21116.3" y2="99.4464" gradientUnits="userSpaceOnUse">
<stop stop-color="#2AF6FF"/>
<stop offset="1" stop-color="#428BCC"/>
</linearGradient>
<linearGradient id="paint34_linear" x1="-31175.7" y1="121.896" x2="-31186.6" y2="121.896" gradientUnits="userSpaceOnUse">
<stop stop-color="#2AF6FF"/>
<stop offset="1" stop-color="#428BCC"/>
</linearGradient>
<linearGradient id="paint35_linear" x1="-26491.7" y1="108.424" x2="-26499.6" y2="108.424" gradientUnits="userSpaceOnUse">
<stop stop-color="#2AF6FF"/>
<stop offset="1" stop-color="#428BCC"/>
</linearGradient>
<linearGradient id="paint36_linear" x1="-20877.6" y1="83.5919" x2="-20882.4" y2="83.5919" gradientUnits="userSpaceOnUse">
<stop stop-color="#2AF6FF"/>
<stop offset="1" stop-color="#428BCC"/>
</linearGradient>
<linearGradient id="paint37_linear" x1="-10346.9" y1="77.0643" x2="-10348.1" y2="77.0643" gradientUnits="userSpaceOnUse">
<stop stop-color="#2AF6FF"/>
<stop offset="1" stop-color="#428BCC"/>
</linearGradient>
<linearGradient id="paint38_linear" x1="-10816.6" y1="96.685" x2="-10818" y2="96.685" gradientUnits="userSpaceOnUse">
<stop stop-color="#2AF6FF"/>
<stop offset="1" stop-color="#428BCC"/>
</linearGradient>
<linearGradient id="paint39_linear" x1="-28368.1" y1="139.608" x2="-28377.1" y2="139.608" gradientUnits="userSpaceOnUse">
<stop stop-color="#2AF6FF"/>
<stop offset="1" stop-color="#428BCC"/>
</linearGradient>
<linearGradient id="paint40_linear" x1="-9887.22" y1="85.5664" x2="-9888.34" y2="85.5664" gradientUnits="userSpaceOnUse">
<stop stop-color="#2AF6FF"/>
<stop offset="1" stop-color="#428BCC"/>
</linearGradient>
<linearGradient id="paint41_linear" x1="-44726.6" y1="96.633" x2="-44748.8" y2="96.633" gradientUnits="userSpaceOnUse">
<stop stop-color="#2AF6FF"/>
<stop offset="1" stop-color="#428BCC"/>
</linearGradient>
<linearGradient id="paint42_linear" x1="-10337.8" y1="102.705" x2="-10339" y2="102.705" gradientUnits="userSpaceOnUse">
<stop stop-color="#2AF6FF"/>
<stop offset="1" stop-color="#428BCC"/>
</linearGradient>
<linearGradient id="paint43_linear" x1="-49211.1" y1="164.772" x2="-49237.9" y2="164.772" gradientUnits="userSpaceOnUse">
<stop stop-color="#2AF6FF"/>
<stop offset="1" stop-color="#428BCC"/>
</linearGradient>
<linearGradient id="paint44_linear" x1="-29536.9" y1="125.158" x2="-29546.6" y2="125.158" gradientUnits="userSpaceOnUse">
<stop stop-color="#2AF6FF"/>
<stop offset="1" stop-color="#428BCC"/>
</linearGradient>
<linearGradient id="paint45_linear" x1="-23451.1" y1="110.29" x2="-23457.2" y2="110.29" gradientUnits="userSpaceOnUse">
<stop stop-color="#2AF6FF"/>
<stop offset="1" stop-color="#428BCC"/>
</linearGradient>
<linearGradient id="paint46_linear" x1="-16201.3" y1="88.4558" x2="-16204.3" y2="88.4558" gradientUnits="userSpaceOnUse">
<stop stop-color="#2AF6FF"/>
<stop offset="1" stop-color="#428BCC"/>
</linearGradient>
<linearGradient id="paint47_linear" x1="-7999.63" y1="99.0888" x2="-8000.39" y2="99.0888" gradientUnits="userSpaceOnUse">
<stop stop-color="#2AF6FF"/>
<stop offset="1" stop-color="#428BCC"/>
</linearGradient>
<linearGradient id="paint48_linear" x1="-33272.7" y1="105.003" x2="-33284.9" y2="105.003" gradientUnits="userSpaceOnUse">
<stop stop-color="#2AF6FF"/>
<stop offset="1" stop-color="#428BCC"/>
</linearGradient>
<linearGradient id="paint49_linear" x1="-26494.2" y1="142.293" x2="-26502" y2="142.293" gradientUnits="userSpaceOnUse">
<stop stop-color="#2AF6FF"/>
<stop offset="1" stop-color="#428BCC"/>
</linearGradient>
<linearGradient id="paint50_linear" x1="-50811.7" y1="120.702" x2="-50840.4" y2="120.702" gradientUnits="userSpaceOnUse">
<stop stop-color="#2AF6FF"/>
<stop offset="1" stop-color="#428BCC"/>
</linearGradient>
<linearGradient id="paint51_linear" x1="-22046.8" y1="145.625" x2="-22052.3" y2="145.625" gradientUnits="userSpaceOnUse">
<stop stop-color="#2AF6FF"/>
<stop offset="1" stop-color="#428BCC"/>
</linearGradient>
<linearGradient id="paint52_linear" x1="-24620.9" y1="128.911" x2="-24627.7" y2="128.911" gradientUnits="userSpaceOnUse">
<stop stop-color="#2AF6FF"/>
<stop offset="1" stop-color="#428BCC"/>
</linearGradient>
<linearGradient id="paint53_linear" x1="-12452.9" y1="118.824" x2="-12454.7" y2="118.824" gradientUnits="userSpaceOnUse">
<stop stop-color="#2AF6FF"/>
<stop offset="1" stop-color="#428BCC"/>
</linearGradient>
<linearGradient id="paint54_linear" x1="-20410.1" y1="129.837" x2="-20414.8" y2="129.837" gradientUnits="userSpaceOnUse">
<stop stop-color="#2AF6FF"/>
<stop offset="1" stop-color="#428BCC"/>
</linearGradient>
<linearGradient id="paint55_linear" x1="-17365.7" y1="133.864" x2="-17369.1" y2="133.864" gradientUnits="userSpaceOnUse">
<stop stop-color="#2AF6FF"/>
<stop offset="1" stop-color="#428BCC"/>
</linearGradient>
<linearGradient id="paint56_linear" x1="-10345.3" y1="112.275" x2="-10346.5" y2="112.275" gradientUnits="userSpaceOnUse">
<stop stop-color="#2AF6FF"/>
<stop offset="1" stop-color="#428BCC"/>
</linearGradient>
<linearGradient id="paint57_linear" x1="-21111.3" y1="124.748" x2="-21116.3" y2="124.748" gradientUnits="userSpaceOnUse">
<stop stop-color="#2AF6FF"/>
<stop offset="1" stop-color="#428BCC"/>
</linearGradient>
<linearGradient id="paint58_linear" x1="-26491.7" y1="135.527" x2="-26499.6" y2="135.527" gradientUnits="userSpaceOnUse">
<stop stop-color="#2AF6FF"/>
<stop offset="1" stop-color="#428BCC"/>
</linearGradient>
<linearGradient id="paint59_linear" x1="-10816.6" y1="118.469" x2="-10818" y2="118.469" gradientUnits="userSpaceOnUse">
<stop stop-color="#2AF6FF"/>
<stop offset="1" stop-color="#428BCC"/>
</linearGradient>
<linearGradient id="paint60_linear" x1="-28368.1" y1="168.437" x2="-28377.1" y2="168.437" gradientUnits="userSpaceOnUse">
<stop stop-color="#2AF6FF"/>
<stop offset="1" stop-color="#428BCC"/>
</linearGradient>
<linearGradient id="paint61_linear" x1="-9887.22" y1="107.103" x2="-9888.33" y2="107.103" gradientUnits="userSpaceOnUse">
<stop stop-color="#2AF6FF"/>
<stop offset="1" stop-color="#428BCC"/>
</linearGradient>
<linearGradient id="paint62_linear" x1="-10337.8" y1="125.17" x2="-10339" y2="125.17" gradientUnits="userSpaceOnUse">
<stop stop-color="#2AF6FF"/>
<stop offset="1" stop-color="#428BCC"/>
</linearGradient>
<linearGradient id="paint63_linear" x1="-29536.9" y1="153.47" x2="-29546.6" y2="153.47" gradientUnits="userSpaceOnUse">
<stop stop-color="#2AF6FF"/>
<stop offset="1" stop-color="#428BCC"/>
</linearGradient>
<linearGradient id="paint64_linear" x1="-16201.3" y1="112.071" x2="-16204.3" y2="112.071" gradientUnits="userSpaceOnUse">
<stop stop-color="#2AF6FF"/>
<stop offset="1" stop-color="#428BCC"/>
</linearGradient>
<linearGradient id="paint65_linear" x1="-7999.62" y1="120.712" x2="-8000.39" y2="120.712" gradientUnits="userSpaceOnUse">
<stop stop-color="#2AF6FF"/>
<stop offset="1" stop-color="#428BCC"/>
</linearGradient>
<linearGradient id="paint66_linear" x1="-33272.7" y1="133.924" x2="-33284.9" y2="133.924" gradientUnits="userSpaceOnUse">
<stop stop-color="#2AF6FF"/>
<stop offset="1" stop-color="#428BCC"/>
</linearGradient>
<linearGradient id="paint67_linear" x1="-10347.5" y1="124.179" x2="-10348.7" y2="124.179" gradientUnits="userSpaceOnUse">
<stop stop-color="#2AF6FF"/>
<stop offset="1" stop-color="#428BCC"/>
</linearGradient>
<linearGradient id="paint68_linear" x1="-21111.6" y1="139.625" x2="-21116.6" y2="139.625" gradientUnits="userSpaceOnUse">
<stop stop-color="#2AF6FF"/>
<stop offset="1" stop-color="#428BCC"/>
</linearGradient>
<linearGradient id="paint69_linear" x1="-10339.9" y1="137.081" x2="-10341.1" y2="137.081" gradientUnits="userSpaceOnUse">
<stop stop-color="#2AF6FF"/>
<stop offset="1" stop-color="#428BCC"/>
</linearGradient>
<linearGradient id="paint70_linear" x1="-29535.8" y1="170.084" x2="-29545.5" y2="170.084" gradientUnits="userSpaceOnUse">
<stop stop-color="#2AF6FF"/>
<stop offset="1" stop-color="#428BCC"/>
</linearGradient>
<linearGradient id="paint71_linear" x1="-33271" y1="151.878" x2="-33283.3" y2="151.878" gradientUnits="userSpaceOnUse">
<stop stop-color="#2AF6FF"/>
<stop offset="1" stop-color="#428BCC"/>
</linearGradient>
<linearGradient id="paint72_linear" x1="-50811.7" y1="155.831" x2="-50840.4" y2="155.831" gradientUnits="userSpaceOnUse">
<stop stop-color="#2AF6FF"/>
<stop offset="1" stop-color="#428BCC"/>
</linearGradient>
<linearGradient id="paint73_linear" x1="103.489" y1="218.875" x2="103.489" y2="198.002" gradientUnits="userSpaceOnUse">
<stop offset="0.09" stop-color="#25054D"/>
<stop offset="0.47" stop-color="#330A68"/>
<stop offset="0.89" stop-color="#45108A"/>
</linearGradient>
<linearGradient id="paint74_linear" x1="103.913" y1="218.391" x2="94.6827" y2="147.203" gradientUnits="userSpaceOnUse">
<stop offset="0.04" stop-color="#138BBD"/>
<stop offset="0.23" stop-color="#169AC7"/>
<stop offset="0.59" stop-color="#1FC3DF"/>
<stop offset="1" stop-color="#2AF6FF"/>
</linearGradient>
<linearGradient id="paint75_linear" x1="-111228" y1="926.199" x2="-111239" y2="849.405" gradientUnits="userSpaceOnUse">
<stop offset="0.09" stop-color="#25054D"/>
<stop offset="0.47" stop-color="#330A68"/>
<stop offset="0.89" stop-color="#45108A"/>
</linearGradient>
<linearGradient id="paint76_linear" x1="-105200" y1="3471.95" x2="-105220" y2="2465.01" gradientUnits="userSpaceOnUse">
<stop offset="0.04" stop-color="#138BBD"/>
<stop offset="0.23" stop-color="#169AC7"/>
<stop offset="0.59" stop-color="#1FC3DF"/>
<stop offset="1" stop-color="#2AF6FF"/>
</linearGradient>
<linearGradient id="paint77_linear" x1="43.52" y1="295.611" x2="120.077" y2="172.902" gradientUnits="userSpaceOnUse">
<stop offset="0.04" stop-color="#6B24D6"/>
<stop offset="0.29" stop-color="#7733DC"/>
<stop offset="0.79" stop-color="#975CED"/>
<stop offset="1" stop-color="#A56EF4"/>
</linearGradient>
<linearGradient id="paint78_linear" x1="-227302" y1="1537.94" x2="-228407" y2="1045.15" gradientUnits="userSpaceOnUse">
<stop offset="0.04" stop-color="#6B24D6"/>
<stop offset="0.29" stop-color="#7733DC"/>
<stop offset="0.79" stop-color="#975CED"/>
<stop offset="1" stop-color="#A56EF4"/>
</linearGradient>
<linearGradient id="paint79_linear" x1="-221570" y1="1599.74" x2="-223019" y2="1118.5" gradientUnits="userSpaceOnUse">
<stop offset="0.04" stop-color="#6B24D6"/>
<stop offset="0.29" stop-color="#7733DC"/>
<stop offset="0.79" stop-color="#975CED"/>
<stop offset="1" stop-color="#A56EF4"/>
</linearGradient>
<linearGradient id="paint80_linear" x1="79.1752" y1="203.792" x2="203.754" y2="166.508" gradientUnits="userSpaceOnUse">
<stop offset="0.04" stop-color="#9F19AB"/>
<stop offset="0.24" stop-color="#AE25B1"/>
<stop offset="0.65" stop-color="#D744BF"/>
<stop offset="1" stop-color="#FF63CE"/>
</linearGradient>
<linearGradient id="paint81_linear" x1="-221570" y1="1575.5" x2="-223019" y2="1094.99" gradientUnits="userSpaceOnUse">
<stop offset="0.04" stop-color="#9F19AB"/>
<stop offset="0.24" stop-color="#AE25B1"/>
<stop offset="0.65" stop-color="#D744BF"/>
<stop offset="1" stop-color="#FF63CE"/>
</linearGradient>
<linearGradient id="paint82_linear" x1="-450983" y1="920.658" x2="-450480" y2="2567.14" gradientUnits="userSpaceOnUse">
<stop offset="0.04" stop-color="#9F19AB"/>
<stop offset="0.24" stop-color="#AE25B1"/>
<stop offset="0.65" stop-color="#D744BF"/>
<stop offset="1" stop-color="#FF63CE"/>
</linearGradient>
<radialGradient id="paint83_radial" cx="0" cy="0" r="1" gradientUnits="userSpaceOnUse" gradientTransform="translate(116.108 107.914) rotate(111.01) scale(21.115)">
<stop offset="0.03" stop-color="#FEDFCB"/>
<stop offset="0.78" stop-color="#F9B69E"/>
<stop offset="0.99" stop-color="#F2A78C"/>
</radialGradient>
<radialGradient id="paint84_radial" cx="0" cy="0" r="1" gradientUnits="userSpaceOnUse" gradientTransform="translate(108.548 76.0707) rotate(100.43) scale(23.9505)">
<stop offset="0.03" stop-color="#FEDFCB"/>
<stop offset="1" stop-color="#F9B69E"/>
</radialGradient>
<linearGradient id="paint85_linear" x1="102.907" y1="83.8664" x2="24.9557" y2="88.0881" gradientUnits="userSpaceOnUse">
<stop stop-color="#9F79C8"/>
<stop offset="0.14" stop-color="#A27DCA"/>
<stop offset="0.27" stop-color="#AC88CF"/>
<stop offset="0.4" stop-color="#BC9BD7"/>
<stop offset="0.52" stop-color="#D1B4E3"/>
<stop offset="0.65" stop-color="#DBC4E9"/>
<stop offset="0.9" stop-color="#F4EDF8"/>
<stop offset="1" stop-color="white"/>
</linearGradient>
<linearGradient id="paint86_linear" x1="-354598" y1="1701" x2="-354505" y2="1476.58" gradientUnits="userSpaceOnUse">
<stop offset="0.04" stop-color="#138BBD"/>
<stop offset="0.23" stop-color="#169AC7"/>
<stop offset="0.59" stop-color="#1FC3DF"/>
<stop offset="1" stop-color="#2AF6FF"/>
</linearGradient>
<linearGradient id="paint87_linear" x1="-347042" y1="1892.21" x2="-347045" y2="1357.88" gradientUnits="userSpaceOnUse">
<stop offset="0.04" stop-color="#138BBD"/>
<stop offset="0.23" stop-color="#169AC7"/>
<stop offset="0.59" stop-color="#1FC3DF"/>
<stop offset="1" stop-color="#2AF6FF"/>
</linearGradient>
<radialGradient id="paint88_radial" cx="0" cy="0" r="1" gradientUnits="userSpaceOnUse" gradientTransform="translate(-19263.9 -8882.67) rotate(-171.384) scale(206.556 283.447)">
<stop offset="0.03" stop-color="#FEDFCB"/>
<stop offset="1" stop-color="#F9B69E"/>
</radialGradient>
<linearGradient id="paint89_linear" x1="43.6104" y1="75.9478" x2="70.7891" y2="41.3306" gradientUnits="userSpaceOnUse">
<stop offset="0.04" stop-color="#602213"/>
<stop offset="0.57" stop-color="#6D310E"/>
<stop offset="1" stop-color="#7A4108"/>
</linearGradient>
<linearGradient id="paint90_linear" x1="244864" y1="25840.3" x2="245790" y2="25131.5" gradientUnits="userSpaceOnUse">
<stop stop-color="#9F79C8"/>
<stop offset="0.14" stop-color="#A27DCA"/>
<stop offset="0.27" stop-color="#AC88CF"/>
<stop offset="0.4" stop-color="#BC9BD7"/>
<stop offset="0.52" stop-color="#D1B4E3"/>
<stop offset="0.65" stop-color="#DBC4E9"/>
<stop offset="0.9" stop-color="#F4EDF8"/>
<stop offset="1" stop-color="white"/>
</linearGradient>
<linearGradient id="paint91_linear" x1="95.2282" y1="105.758" x2="62.711" y2="78.9122" gradientUnits="userSpaceOnUse">
<stop offset="0.04" stop-color="#9D9EB3"/>
<stop offset="0.58" stop-color="#D4D1D8"/>
<stop offset="1" stop-color="#EEEBF2"/>
</linearGradient>
<radialGradient id="paint92_radial" cx="0" cy="0" r="1" gradientUnits="userSpaceOnUse" gradientTransform="translate(-5363.02 -16117) rotate(-157.027) scale(54.1828 52.1632)">
<stop offset="0.03" stop-color="#FEDFCB"/>
<stop offset="0.78" stop-color="#F9B69E"/>
<stop offset="0.99" stop-color="#F2A78C"/>
</radialGradient>
<radialGradient id="paint93_radial" cx="0" cy="0" r="1" gradientUnits="userSpaceOnUse" gradientTransform="translate(17041.1 -54371.3) rotate(-124.007) scale(145.781 99.6851)">
<stop offset="0.03" stop-color="#FEDFCB"/>
<stop offset="1" stop-color="#F9B69E"/>
</radialGradient>
<linearGradient id="paint94_linear" x1="344479" y1="-42839.5" x2="344533" y2="-43240.8" gradientUnits="userSpaceOnUse">
<stop stop-color="#9F79C8"/>
<stop offset="0.14" stop-color="#A27DCA"/>
<stop offset="0.27" stop-color="#AC88CF"/>
<stop offset="0.4" stop-color="#BC9BD7"/>
<stop offset="0.52" stop-color="#D1B4E3"/>
<stop offset="0.65" stop-color="#DBC4E9"/>
<stop offset="0.9" stop-color="#F4EDF8"/>
<stop offset="1" stop-color="white"/>
</linearGradient>
<linearGradient id="paint95_linear" x1="-56739.4" y1="2449.99" x2="-56825.1" y2="2445.31" gradientUnits="userSpaceOnUse">
<stop offset="0.04" stop-color="#9F19AB"/>
<stop offset="0.24" stop-color="#AE25B1"/>
<stop offset="0.65" stop-color="#D744BF"/>
<stop offset="1" stop-color="#FF63CE"/>
</linearGradient>
<linearGradient id="paint96_linear" x1="-259653" y1="3370.1" x2="-261753" y2="3084.57" gradientUnits="userSpaceOnUse">
<stop offset="0.04" stop-color="#9F19AB"/>
<stop offset="0.24" stop-color="#AE25B1"/>
<stop offset="0.65" stop-color="#D744BF"/>
<stop offset="1" stop-color="#FF63CE"/>
</linearGradient>
<linearGradient id="paint97_linear" x1="-239297" y1="722.455" x2="-239264" y2="828.092" gradientUnits="userSpaceOnUse">
<stop offset="0.04" stop-color="#9F19AB"/>
<stop offset="0.24" stop-color="#AE25B1"/>
<stop offset="0.65" stop-color="#D744BF"/>
<stop offset="1" stop-color="#FF63CE"/>
</linearGradient>
</defs>
</svg>
