<svg width="238" height="290" viewBox="0 0 238 290" fill="none" xmlns="http://www.w3.org/2000/svg">
<g clip-path="url(#clip0)">
<path d="M89.7794 236.361C89.1146 236.363 88.4613 236.188 87.8864 235.854L72.6313 226.999C72.3019 226.812 72.0281 226.54 71.8377 226.213C71.6472 225.885 71.5469 225.513 71.5469 225.134C71.5469 224.755 71.6472 224.383 71.8377 224.055C72.0281 223.727 72.3019 223.456 72.6313 223.269L87.4825 214.952V206.73C87.4825 206.52 87.5659 206.319 87.7145 206.17C87.863 206.022 88.0645 205.938 88.2745 205.938C88.4846 205.938 88.6861 206.022 88.8346 206.17C88.9831 206.319 89.0666 206.52 89.0666 206.73V215.443C89.0676 215.588 89.0291 215.73 88.9551 215.854C88.8811 215.978 88.7745 216.08 88.6468 216.148L73.4471 224.678C73.364 224.723 73.2948 224.789 73.2473 224.87C73.1997 224.951 73.1757 225.044 73.1778 225.138C73.1743 225.232 73.1969 225.326 73.243 225.408C73.2891 225.491 73.3569 225.559 73.4392 225.605L88.6943 234.453C89.0249 234.645 89.4007 234.747 89.7834 234.747C90.1661 234.747 90.5419 234.645 90.8725 234.453L104.076 226.73V204.497C104.076 204.287 104.16 204.085 104.308 203.937C104.457 203.788 104.658 203.705 104.868 203.705C105.078 203.705 105.28 203.788 105.428 203.937C105.577 204.085 105.66 204.287 105.66 204.497V227.189C105.662 227.33 105.627 227.469 105.557 227.592C105.487 227.714 105.386 227.816 105.264 227.886L91.6566 235.807C91.0916 236.156 90.4434 236.347 89.7794 236.361Z" fill="url(#paint0_linear)"/>
<path opacity="0.3" d="M89.644 235.688C89.0873 235.682 88.5418 235.532 88.0599 235.253L72.7652 226.397C72.5187 226.255 72.3151 226.049 72.1757 225.801C72.0363 225.553 71.9663 225.272 71.9731 224.988C71.9706 224.707 72.0426 224.431 72.1818 224.187C72.3209 223.944 72.5223 223.742 72.7652 223.601L87.8936 215.134V206.588C87.8936 206.516 87.922 206.448 87.9725 206.397C88.023 206.347 88.0915 206.319 88.1629 206.319C88.2343 206.319 88.3028 206.347 88.3533 206.397C88.4038 206.448 88.4322 206.516 88.4322 206.588V215.301C88.4314 215.348 88.4187 215.395 88.3952 215.437C88.3716 215.478 88.3381 215.513 88.2975 215.538L73.0503 224.069C72.8876 224.164 72.7526 224.299 72.6587 224.463C72.5649 224.626 72.5155 224.811 72.5155 224.999C72.5155 225.188 72.5649 225.373 72.6587 225.536C72.7526 225.699 72.8876 225.835 73.0503 225.93L88.3055 234.785C88.7177 235.026 89.1865 235.153 89.6638 235.153C90.1412 235.153 90.61 235.026 91.0222 234.785L104.487 226.912V204.354C104.487 204.283 104.516 204.214 104.566 204.164C104.617 204.113 104.685 204.085 104.757 204.085C104.828 204.085 104.897 204.113 104.947 204.164C104.998 204.214 105.026 204.283 105.026 204.354V227.047C105.027 227.094 105.015 227.14 104.991 227.181C104.967 227.221 104.933 227.255 104.891 227.277L91.2915 235.197C90.7968 235.507 90.2275 235.676 89.644 235.688Z" fill="white"/>
<path style="mix-blend-mode:color-dodge" d="M89.5825 235.379C89.0493 235.378 88.5254 235.238 88.0617 234.975L72.8066 226.12C72.5925 225.998 72.4145 225.822 72.2906 225.609C72.1668 225.396 72.1016 225.154 72.1016 224.908C72.1016 224.662 72.1668 224.42 72.2906 224.207C72.4145 223.994 72.5925 223.818 72.8066 223.696L88.0459 215.173V206.461C88.0459 206.461 88.0459 206.405 88.0934 206.405C88.1075 206.407 88.1207 206.413 88.1307 206.423C88.1408 206.434 88.1472 206.447 88.1489 206.461V215.173C88.1543 215.189 88.1543 215.206 88.1489 215.221L72.8779 223.791C72.6802 223.903 72.5157 224.065 72.4013 224.262C72.2868 224.458 72.2265 224.681 72.2265 224.908C72.2265 225.135 72.2868 225.358 72.4013 225.554C72.5157 225.751 72.6802 225.913 72.8779 226.025L88.133 234.88C88.58 235.137 89.0866 235.272 89.6023 235.272C90.118 235.272 90.6246 235.137 91.0716 234.88L104.648 226.959V204.275C104.647 204.261 104.652 204.248 104.661 204.238C104.67 204.228 104.682 204.221 104.695 204.219C104.71 204.219 104.724 204.225 104.734 204.235C104.745 204.246 104.751 204.26 104.751 204.275V226.967L91.127 234.967C90.658 235.239 90.1248 235.382 89.5825 235.379Z" fill="url(#paint1_radial)"/>
<path d="M88.7344 213.312V214.96L107.086 204.354V202.651L88.7344 213.312Z" fill="url(#paint2_linear)"/>
<path d="M88.7416 213.312V214.96L70.7617 204.52V202.825L88.7416 213.312Z" fill="url(#paint3_linear)"/>
<path d="M88.7344 212.306V213.954L107.086 203.34V201.645L88.7344 212.306Z" fill="url(#paint4_linear)"/>
<path d="M88.7416 212.306V213.953L70.7617 203.514V201.811L88.7416 212.306Z" fill="url(#paint5_linear)"/>
<path d="M70.7617 201.811L88.7416 212.306L107.086 201.645L89.0901 191.166L70.7617 201.811Z" fill="url(#paint6_linear)"/>
<path style="mix-blend-mode:color-dodge" d="M88.623 211.831L90.928 211.308L107.086 201.645L88.623 211.831Z" fill="url(#paint7_radial)"/>
<path d="M88.7812 194.612L86.9832 187.325L85.6367 188.117L87.4347 195.364C88.3072 198.888 88.7488 202.506 88.7495 206.136V212.275L90.0881 211.546V205.305C90.0857 201.701 89.6469 198.11 88.7812 194.612Z" fill="url(#paint8_linear)"/>
<path d="M85.6442 188.109L67.6406 177.566L69.4465 184.885C70.3185 188.404 70.7574 192.016 70.7534 195.641V201.851L88.757 212.275V206.089C88.7558 202.458 88.3143 198.841 87.4422 195.317L85.6442 188.109Z" fill="#DC4DC0"/>
<path d="M67.6406 177.567L85.6442 188.109L86.9828 187.325L68.9634 176.798L67.6406 177.567Z" fill="url(#paint9_linear)"/>
<path style="mix-blend-mode:color-dodge" d="M67.6406 177.566L86.0323 187.792L88.0521 198.073L85.3829 188.117L67.6406 177.566Z" fill="url(#paint10_radial)"/>
<path d="M113.866 250.595C113.199 250.596 112.543 250.421 111.965 250.088L96.7098 241.233C96.3784 241.047 96.1025 240.776 95.9104 240.448C95.7184 240.12 95.6172 239.747 95.6172 239.367C95.6172 238.987 95.7184 238.614 95.9104 238.287C96.1025 237.959 96.3784 237.688 96.7098 237.502L111.553 229.193V220.988C111.553 220.772 111.639 220.566 111.791 220.414C111.943 220.261 112.15 220.176 112.365 220.176C112.58 220.176 112.787 220.261 112.939 220.414C113.091 220.566 113.177 220.772 113.177 220.988V229.7C113.178 229.845 113.139 229.987 113.065 230.111C112.991 230.236 112.885 230.337 112.757 230.405L97.4939 238.944C97.4114 238.99 97.3428 239.057 97.2949 239.138C97.2471 239.22 97.2219 239.313 97.2219 239.407C97.2219 239.501 97.2471 239.594 97.2949 239.676C97.3428 239.757 97.4114 239.824 97.4939 239.87L112.781 248.71C113.112 248.9 113.488 249 113.87 249C114.252 249 114.628 248.9 114.959 248.71L128.155 240.987V218.738C128.155 218.523 128.24 218.316 128.392 218.164C128.545 218.012 128.751 217.926 128.967 217.926C129.182 217.926 129.388 218.012 129.541 218.164C129.693 218.316 129.778 218.523 129.778 218.738V241.431C129.78 241.572 129.743 241.712 129.672 241.834C129.601 241.957 129.498 242.058 129.374 242.128L115.775 250.048C115.199 250.399 114.54 250.588 113.866 250.595Z" fill="url(#paint11_linear)"/>
<path opacity="0.3" d="M113.716 249.921C113.161 249.92 112.615 249.775 112.132 249.502L96.8528 240.63C96.5993 240.495 96.3873 240.294 96.2395 240.048C96.0917 239.801 96.0137 239.52 96.0137 239.232C96.0137 238.945 96.0917 238.663 96.2395 238.417C96.3873 238.171 96.5993 237.97 96.8528 237.834L111.981 229.367V220.821C111.981 220.75 112.01 220.681 112.06 220.631C112.111 220.58 112.179 220.552 112.25 220.552C112.322 220.552 112.39 220.58 112.441 220.631C112.491 220.681 112.52 220.75 112.52 220.821V229.534C112.52 229.582 112.507 229.63 112.481 229.672C112.456 229.714 112.42 229.748 112.377 229.771L97.1141 238.318C96.9482 238.407 96.8097 238.539 96.7134 238.701C96.6172 238.863 96.5668 239.048 96.5676 239.236C96.5614 239.426 96.6077 239.614 96.7013 239.778C96.795 239.943 96.9324 240.079 97.0983 240.171L112.353 249.026C112.765 249.265 113.232 249.39 113.708 249.391C114.187 249.391 114.658 249.263 115.07 249.018L128.535 241.145V218.611C128.535 218.54 128.564 218.471 128.614 218.421C128.665 218.37 128.733 218.342 128.805 218.342C128.876 218.342 128.945 218.37 128.995 218.421C129.046 218.471 129.074 218.54 129.074 218.611V241.304C129.074 241.352 129.061 241.399 129.038 241.44C129.014 241.482 128.98 241.517 128.939 241.541L115.34 249.462C114.849 249.757 114.288 249.915 113.716 249.921Z" fill="white"/>
<path style="mix-blend-mode:color-dodge" d="M113.662 249.612C113.13 249.615 112.608 249.475 112.149 249.208L96.8937 240.353C96.6794 240.233 96.5011 240.057 96.377 239.845C96.2529 239.633 96.1875 239.391 96.1875 239.145C96.1875 238.899 96.2529 238.658 96.377 238.446C96.5011 238.233 96.6794 238.058 96.8937 237.937L112.133 229.407V220.734C112.133 220.727 112.134 220.719 112.137 220.713C112.14 220.706 112.144 220.7 112.149 220.695C112.154 220.689 112.16 220.685 112.167 220.683C112.174 220.68 112.181 220.678 112.188 220.678C112.196 220.678 112.203 220.68 112.21 220.683C112.216 220.685 112.222 220.689 112.228 220.695C112.233 220.7 112.237 220.706 112.24 220.713C112.242 220.719 112.244 220.727 112.244 220.734V229.446C112.25 229.462 112.25 229.479 112.244 229.494L96.9808 238.032C96.7833 238.145 96.6191 238.309 96.5049 238.505C96.3908 238.702 96.3306 238.926 96.3306 239.153C96.3306 239.381 96.3908 239.604 96.5049 239.801C96.6191 239.998 96.7833 240.161 96.9808 240.274L112.236 249.121C112.677 249.382 113.181 249.518 113.693 249.517C114.212 249.517 114.72 249.377 115.167 249.113L128.743 241.193V218.508C128.743 218.493 128.748 218.479 128.759 218.469C128.769 218.458 128.783 218.453 128.798 218.453C128.813 218.453 128.827 218.458 128.837 218.469C128.848 218.479 128.853 218.493 128.853 218.508V241.201L115.222 249.201C114.749 249.476 114.209 249.619 113.662 249.612Z" fill="url(#paint12_radial)"/>
<path d="M112.818 227.546V229.201L131.163 218.588V216.885L112.818 227.546Z" fill="url(#paint13_linear)"/>
<path d="M112.828 227.546V229.201L94.8477 218.762V217.059L112.828 227.546Z" fill="url(#paint14_linear)"/>
<path d="M112.818 226.54V228.188L131.163 217.574V215.879L112.818 226.54Z" fill="url(#paint15_linear)"/>
<path d="M112.828 226.54V228.188L94.8477 217.748V216.053L112.828 226.54Z" fill="url(#paint16_linear)"/>
<path d="M94.8477 216.053L112.828 226.54L131.164 215.879L113.176 205.408L94.8477 216.053Z" fill="url(#paint17_linear)"/>
<path style="mix-blend-mode:color-dodge" d="M112.699 226.065L115.012 225.542L131.162 215.879L112.699 226.065Z" fill="url(#paint18_radial)"/>
<path d="M112.869 208.845L111.071 201.558L109.725 202.35L111.523 209.598C112.392 213.122 112.831 216.739 112.829 220.37V226.532L114.176 225.795V219.522C114.168 215.924 113.73 212.339 112.869 208.845Z" fill="url(#paint19_linear)"/>
<path d="M109.756 202.342L91.752 191.8L93.5579 199.118C94.424 202.63 94.8628 206.234 94.8648 209.851V216.053L112.837 226.532V220.354C112.839 216.723 112.398 213.105 111.522 209.582L109.756 202.342Z" fill="#DB4DC0"/>
<path d="M91.7285 191.8L109.732 202.342L111.071 201.558L93.0513 191.04L91.7285 191.8Z" fill="url(#paint20_linear)"/>
<path style="mix-blend-mode:color-dodge" d="M91.7285 191.8L110.12 202.033L112.14 212.314L109.471 202.358L91.7285 191.8Z" fill="url(#paint21_radial)"/>
<path d="M137.263 264.345C136.598 264.346 135.945 264.171 135.37 263.838L120.115 254.982C119.784 254.795 119.509 254.522 119.321 254.191C119.133 253.861 119.038 253.486 119.045 253.105C119.047 252.726 119.151 252.355 119.344 252.029C119.538 251.703 119.815 251.435 120.146 251.252L134.998 242.935V234.706C134.998 234.496 135.081 234.294 135.23 234.146C135.378 233.997 135.58 233.914 135.79 233.914C136 233.914 136.201 233.997 136.35 234.146C136.498 234.294 136.582 234.496 136.582 234.706V243.418C136.583 243.562 136.546 243.704 136.474 243.828C136.401 243.952 136.296 244.054 136.17 244.123L120.93 252.67C120.847 252.714 120.778 252.78 120.731 252.861C120.683 252.942 120.659 253.035 120.661 253.129C120.659 253.223 120.683 253.316 120.729 253.398C120.775 253.48 120.841 253.549 120.923 253.596L136.186 262.444C136.515 262.637 136.889 262.738 137.271 262.738C137.652 262.738 138.027 262.637 138.356 262.444L151.56 254.721V232.488C151.56 232.278 151.643 232.076 151.792 231.928C151.94 231.779 152.142 231.696 152.352 231.696C152.562 231.696 152.763 231.779 152.912 231.928C153.06 232.076 153.144 232.278 153.144 232.488V255.173C153.146 255.313 153.11 255.452 153.04 255.575C152.971 255.697 152.87 255.799 152.748 255.87L139.14 263.79C138.574 264.136 137.926 264.327 137.263 264.345Z" fill="url(#paint22_linear)"/>
<path opacity="0.3" d="M137.128 263.672C136.558 263.671 135.998 263.52 135.505 263.236L120.249 254.381C120.004 254.239 119.801 254.034 119.662 253.788C119.523 253.541 119.452 253.262 119.457 252.979C119.453 252.697 119.525 252.419 119.664 252.174C119.803 251.929 120.005 251.726 120.249 251.585L135.378 243.118V234.571C135.378 234.5 135.406 234.431 135.457 234.381C135.507 234.33 135.576 234.302 135.647 234.302C135.719 234.302 135.787 234.33 135.838 234.381C135.888 234.431 135.916 234.5 135.916 234.571V243.284C135.916 243.332 135.903 243.378 135.879 243.42C135.856 243.461 135.822 243.496 135.782 243.522L120.511 252.06C120.345 252.151 120.206 252.285 120.11 252.448C120.014 252.611 119.964 252.797 119.964 252.987C119.962 253.175 120.01 253.361 120.104 253.525C120.197 253.69 120.332 253.826 120.495 253.921L135.758 262.777C136.17 263.017 136.639 263.144 137.116 263.144C137.594 263.144 138.063 263.017 138.475 262.777L151.94 254.903V232.345C151.94 232.274 151.968 232.206 152.019 232.155C152.069 232.105 152.138 232.076 152.209 232.076C152.281 232.076 152.349 232.105 152.4 232.155C152.45 232.206 152.478 232.274 152.478 232.345V255.046C152.479 255.092 152.467 255.137 152.445 255.177C152.423 255.218 152.391 255.251 152.352 255.276L138.744 263.236C138.254 263.523 137.696 263.674 137.128 263.672Z" fill="white"/>
<path style="mix-blend-mode:color-dodge" d="M137.067 263.363C136.533 263.364 136.009 263.225 135.546 262.959L120.291 254.104C120.079 253.98 119.903 253.804 119.78 253.591C119.658 253.378 119.594 253.137 119.594 252.892C119.594 252.646 119.658 252.405 119.78 252.193C119.903 251.98 120.079 251.803 120.291 251.68L135.554 243.165V234.453C135.556 234.439 135.562 234.427 135.573 234.418C135.583 234.41 135.596 234.405 135.609 234.405C135.622 234.405 135.634 234.41 135.643 234.419C135.652 234.428 135.657 234.44 135.657 234.453V243.165C135.662 243.181 135.662 243.197 135.657 243.213L120.37 251.775C120.172 251.887 120.008 252.049 119.893 252.245C119.779 252.442 119.719 252.665 119.719 252.892C119.719 253.119 119.779 253.342 119.893 253.538C120.008 253.734 120.172 253.897 120.37 254.009L135.625 262.864C136.069 263.124 136.575 263.261 137.09 263.26C137.609 263.258 138.117 263.119 138.564 262.856L152.14 254.935V232.259C152.14 232.244 152.146 232.23 152.156 232.219C152.166 232.209 152.18 232.203 152.195 232.203C152.209 232.205 152.222 232.211 152.232 232.221C152.243 232.231 152.249 232.244 152.251 232.259V254.951L138.595 262.967C138.13 263.232 137.602 263.368 137.067 263.363Z" fill="url(#paint23_radial)"/>
<path d="M136.225 241.296V242.943L154.569 232.338V230.635L136.225 241.296Z" fill="url(#paint24_linear)"/>
<path d="M136.226 241.296V242.944L118.254 232.504V230.809L136.226 241.296Z" fill="url(#paint25_linear)"/>
<path d="M136.225 240.29V241.938L154.569 231.324V229.629L136.225 240.29Z" fill="url(#paint26_linear)"/>
<path d="M136.226 240.29V241.938L118.254 231.498V229.795L136.226 240.29Z" fill="url(#paint27_linear)"/>
<path d="M118.254 229.795L136.226 240.29L154.57 229.629L136.582 219.158L118.254 229.795Z" fill="url(#paint28_linear)"/>
<path style="mix-blend-mode:color-dodge" d="M136.105 239.815L138.41 239.292L154.568 229.629L136.105 239.815Z" fill="url(#paint29_radial)"/>
<path d="M136.265 222.572L134.467 215.285L133.129 216.077L134.919 223.324C135.791 226.848 136.233 230.466 136.234 234.096V240.282L137.58 239.546V233.272C137.572 229.666 137.13 226.073 136.265 222.572Z" fill="url(#paint30_linear)"/>
<path d="M133.136 216.092L115.133 205.55L116.939 212.868C117.802 216.378 118.238 219.979 118.238 223.593V229.803L136.241 240.298V234.104C136.24 230.473 135.799 226.856 134.926 223.332L133.136 216.092Z" fill="#DB4DC0"/>
<path d="M115.133 205.55L133.136 216.092L134.467 215.308L116.456 204.782L115.133 205.55Z" fill="url(#paint31_linear)"/>
<path style="mix-blend-mode:color-dodge" d="M115.133 205.55L133.517 215.783L135.544 226.056L132.867 216.108L115.133 205.55Z" fill="url(#paint32_radial)"/>
<path d="M55.8389 256.06C55.1742 256.061 54.5211 255.886 53.9459 255.553L38.6907 246.706C38.3615 246.517 38.088 246.245 37.8978 245.917C37.7076 245.588 37.6074 245.216 37.6074 244.836C37.6074 244.457 37.7076 244.084 37.8978 243.756C38.088 243.428 38.3615 243.156 38.6907 242.967L53.5419 234.658V226.429C53.5419 226.219 53.6253 226.017 53.7739 225.869C53.9224 225.72 54.1239 225.637 54.334 225.637C54.544 225.637 54.7455 225.72 54.894 225.869C55.0426 226.017 55.126 226.219 55.126 226.429V235.142C55.1271 235.286 55.0885 235.428 55.0145 235.553C54.9405 235.677 54.8339 235.779 54.7062 235.847L39.5065 244.377C39.4261 244.425 39.3594 244.493 39.3131 244.574C39.2668 244.655 39.2425 244.747 39.2425 244.84C39.2425 244.934 39.2668 245.026 39.3131 245.107C39.3594 245.188 39.4261 245.256 39.5065 245.304L54.7617 254.159C55.0923 254.352 55.4681 254.453 55.8508 254.453C56.2334 254.453 56.6093 254.352 56.9399 254.159L70.1515 246.429V224.203C70.1515 223.993 70.2349 223.792 70.3835 223.643C70.532 223.495 70.7335 223.411 70.9435 223.411C71.1536 223.411 71.3551 223.495 71.5036 223.643C71.6522 223.792 71.7356 223.993 71.7356 224.203V246.896C71.7376 247.037 71.7019 247.176 71.6323 247.298C71.5627 247.421 71.4616 247.522 71.3396 247.593L57.7319 255.513C57.1616 255.863 56.5076 256.052 55.8389 256.06Z" fill="url(#paint33_linear)"/>
<path opacity="0.3" d="M55.7044 255.387C55.1343 255.387 54.5742 255.237 54.0807 254.951L38.8255 246.096C38.5803 245.954 38.3774 245.75 38.2381 245.503C38.0988 245.257 38.0281 244.977 38.0335 244.694C38.0296 244.412 38.1009 244.134 38.2401 243.889C38.3794 243.644 38.5815 243.441 38.8255 243.3L53.954 234.841V226.286C53.954 226.215 53.9823 226.146 54.0328 226.096C54.0833 226.045 54.1518 226.017 54.2233 226.017C54.2947 226.017 54.3632 226.045 54.4137 226.096C54.4642 226.146 54.4926 226.215 54.4926 226.286V234.999C54.4925 235.047 54.4801 235.094 54.4565 235.136C54.4329 235.177 54.399 235.212 54.3579 235.237L39.1107 243.775C38.9442 243.866 38.8053 244 38.7091 244.163C38.6128 244.326 38.5627 244.512 38.5642 244.702C38.5614 244.891 38.6092 245.077 38.7025 245.241C38.7957 245.406 38.9312 245.542 39.0949 245.637L54.35 254.484C54.7617 254.722 55.2288 254.848 55.7044 254.848C56.1839 254.85 56.6548 254.721 57.0668 254.476L70.5319 246.603V224.069C70.5319 223.997 70.5602 223.929 70.6107 223.878C70.6612 223.828 70.7297 223.799 70.8012 223.799C70.8726 223.799 70.9411 223.828 70.9916 223.878C71.0421 223.929 71.0705 223.997 71.0705 224.069V246.761C71.0715 246.808 71.0595 246.855 71.0357 246.895C71.012 246.936 70.9774 246.969 70.9358 246.991L57.3361 254.912C56.8456 255.216 56.2814 255.38 55.7044 255.387Z" fill="white"/>
<path style="mix-blend-mode:color-dodge" d="M55.641 255.086C55.1066 255.086 54.5818 254.943 54.1202 254.674L38.865 245.827C38.6522 245.703 38.4762 245.525 38.355 245.311C38.2339 245.096 38.1721 244.853 38.1759 244.607C38.1748 244.361 38.2405 244.119 38.366 243.907C38.4915 243.695 38.6722 243.521 38.8888 243.403L54.1281 234.873V226.2C54.128 226.186 54.1327 226.173 54.1415 226.163C54.1502 226.153 54.1623 226.146 54.1756 226.144C54.1903 226.144 54.2044 226.15 54.2148 226.16C54.2252 226.171 54.2311 226.185 54.2311 226.2V234.912C54.2353 234.92 54.2374 234.928 54.2374 234.936C54.2374 234.944 54.2353 234.953 54.2311 234.96L38.9363 243.49C38.7388 243.603 38.5746 243.766 38.4605 243.963C38.3463 244.16 38.2861 244.384 38.2861 244.611C38.2861 244.839 38.3463 245.062 38.4605 245.259C38.5746 245.456 38.7388 245.619 38.9363 245.732L54.1915 254.579C54.6358 254.84 55.1417 254.977 55.6568 254.975C56.1742 254.975 56.6824 254.839 57.13 254.579L70.706 246.659V223.974C70.7077 223.96 70.7141 223.947 70.7241 223.937C70.7342 223.927 70.7473 223.92 70.7615 223.918C70.7615 223.918 70.809 223.918 70.809 223.974V246.667L57.1855 254.666C56.7186 254.945 56.1845 255.09 55.641 255.086Z" fill="url(#paint34_radial)"/>
<path d="M54.7949 233.019V234.667L73.147 224.053V222.358L54.7949 233.019Z" fill="url(#paint35_linear)"/>
<path d="M54.8021 233.019V234.667L36.8223 224.227V222.524L54.8021 233.019Z" fill="url(#paint36_linear)"/>
<path d="M54.7949 232.005V233.653L73.147 223.047V221.344L54.7949 232.005Z" fill="url(#paint37_linear)"/>
<path d="M54.8021 232.005V233.653L36.8223 223.214V221.519L54.8021 232.005Z" fill="url(#paint38_linear)"/>
<path d="M36.8223 221.518L54.8021 232.005L73.1463 221.344L55.1506 210.873L36.8223 221.518Z" fill="url(#paint39_linear)"/>
<path style="mix-blend-mode:color-dodge" d="M54.6836 231.538L56.9885 231.007L73.1466 221.344L54.6836 231.538Z" fill="url(#paint40_radial)"/>
<path d="M54.8416 214.31L53.0437 207.023L51.7051 207.816L53.5189 215.055C54.391 218.579 54.8325 222.196 54.8337 225.827V232.013L56.1723 231.284V225.003C56.1621 221.398 55.7153 217.808 54.8416 214.31Z" fill="url(#paint41_linear)"/>
<path d="M51.7046 207.807L33.7168 197.265L35.5148 204.584C36.3847 208.095 36.8236 211.699 36.8217 215.316V221.518L54.8253 232.013V225.827C54.8271 222.194 54.3883 218.574 53.5184 215.047L51.7046 207.807Z" fill="#D952BF"/>
<path d="M33.709 197.265L51.7126 207.808L53.0433 207.031L35.0317 196.505L33.709 197.265Z" fill="url(#paint42_linear)"/>
<path style="mix-blend-mode:color-dodge" d="M33.709 197.265L52.0928 207.499L54.1125 217.78L51.4433 207.823L33.709 197.265Z" fill="url(#paint43_radial)"/>
<path d="M79.9267 270.302C79.2624 270.3 78.6101 270.125 78.0337 269.795L62.7706 260.939C62.4418 260.75 62.1694 260.476 61.9815 260.146C61.7936 259.816 61.6969 259.442 61.7013 259.062C61.7025 258.682 61.8062 258.309 62.0013 257.983C62.1965 257.657 62.4759 257.39 62.8102 257.209L77.6535 248.892V240.663C77.6535 240.453 77.7369 240.251 77.8855 240.103C78.034 239.954 78.2355 239.871 78.4455 239.871C78.6556 239.871 78.8571 239.954 79.0056 240.103C79.1542 240.251 79.2376 240.453 79.2376 240.663V249.375C79.2387 249.52 79.2001 249.662 79.1261 249.786C79.0521 249.911 78.9455 250.012 78.8178 250.08L63.5944 258.619C63.512 258.664 63.4431 258.731 63.3945 258.811C63.3458 258.892 63.3192 258.984 63.3171 259.078C63.315 259.172 63.339 259.265 63.3866 259.346C63.4342 259.427 63.5033 259.493 63.5864 259.538L78.8653 268.393C79.1959 268.586 79.5718 268.687 79.9544 268.687C80.3371 268.687 80.7129 268.586 81.0435 268.393L94.2472 260.678V238.413C94.2472 238.203 94.3307 238.002 94.4792 237.853C94.6277 237.705 94.8292 237.621 95.0393 237.621C95.2494 237.621 95.4508 237.705 95.5994 237.853C95.7479 238.002 95.8313 238.203 95.8313 238.413V261.106C95.8325 261.247 95.7957 261.387 95.7246 261.509C95.6536 261.632 95.5509 261.733 95.4274 261.803L81.8277 269.723C81.2576 270.084 80.6008 270.284 79.9267 270.302Z" fill="url(#paint44_linear)"/>
<path opacity="0.3" d="M79.7925 269.628C79.2363 269.618 78.6915 269.468 78.2084 269.192L62.9136 260.337C62.6671 260.195 62.4635 259.989 62.3241 259.741C62.1847 259.493 62.1148 259.212 62.1215 258.927C62.119 258.647 62.191 258.371 62.3302 258.127C62.4694 257.884 62.6707 257.681 62.9136 257.541L78.0737 249.074V240.52C78.0758 240.45 78.105 240.383 78.1553 240.334C78.2056 240.286 78.2729 240.258 78.343 240.258C78.4131 240.258 78.4804 240.286 78.5307 240.334C78.581 240.383 78.6102 240.45 78.6123 240.52V249.233C78.6126 249.28 78.5994 249.327 78.5742 249.368C78.549 249.409 78.5128 249.441 78.4697 249.462L63.1988 258.009C63.036 258.103 62.901 258.239 62.8072 258.403C62.7133 258.566 62.664 258.751 62.664 258.939C62.664 259.128 62.7133 259.313 62.8072 259.476C62.901 259.639 63.036 259.775 63.1988 259.87L78.4539 268.725C78.8656 268.963 79.3327 269.089 79.8083 269.09C80.2871 269.086 80.7567 268.958 81.1707 268.717L94.6358 260.844V238.302C94.6358 238.231 94.6641 238.162 94.7146 238.112C94.7651 238.061 94.8336 238.033 94.9051 238.033C94.9765 238.033 95.045 238.061 95.0955 238.112C95.146 238.162 95.1744 238.231 95.1744 238.302V260.995C95.1737 261.041 95.161 261.087 95.1374 261.127C95.1138 261.168 95.0801 261.201 95.0397 261.224L81.44 269.145C80.9444 269.452 80.3752 269.619 79.7925 269.628Z" fill="white"/>
<path style="mix-blend-mode:color-dodge" d="M79.7211 269.304C79.1903 269.302 78.669 269.163 78.2082 268.9L62.9531 260.06C62.739 259.939 62.561 259.762 62.4371 259.549C62.3133 259.337 62.248 259.095 62.248 258.848C62.248 258.602 62.3133 258.36 62.4371 258.147C62.561 257.934 62.739 257.758 62.9531 257.637L78.1845 249.114V240.401C78.1861 240.387 78.1925 240.374 78.2026 240.364C78.2126 240.354 78.2258 240.347 78.2399 240.346C78.2546 240.346 78.2687 240.352 78.2791 240.362C78.2895 240.372 78.2954 240.387 78.2954 240.401V249.114C78.2988 249.12 78.3007 249.127 78.3007 249.134C78.3007 249.141 78.2988 249.147 78.2954 249.154L63.0244 257.732C62.8267 257.843 62.6622 258.006 62.5478 258.202C62.4333 258.398 62.373 258.621 62.373 258.848C62.373 259.076 62.4333 259.299 62.5478 259.495C62.6622 259.691 62.8267 259.853 63.0244 259.965L78.2795 268.82C78.7236 269.074 79.2257 269.207 79.7369 269.209C80.2546 269.211 80.7634 269.074 81.2101 268.813L94.7861 260.892V238.215C94.7878 238.201 94.7942 238.188 94.8042 238.178C94.8143 238.168 94.8274 238.161 94.8416 238.16C94.8563 238.16 94.8704 238.166 94.8808 238.176C94.8912 238.186 94.897 238.2 94.897 238.215V260.908L81.2418 268.908C80.7785 269.171 80.254 269.307 79.7211 269.304Z" fill="url(#paint45_radial)"/>
<path d="M78.8789 247.252V248.9L97.2231 238.294V236.591L78.8789 247.252Z" fill="url(#paint46_linear)"/>
<path d="M78.888 247.253V248.9L60.9082 238.461V236.766L78.888 247.253Z" fill="url(#paint47_linear)"/>
<path d="M78.8789 246.239V247.894L97.2231 237.28V235.585L78.8789 246.239Z" fill="url(#paint48_linear)"/>
<path d="M78.888 246.238V247.894L60.9082 237.454V235.751L78.888 246.238Z" fill="url(#paint49_linear)"/>
<path d="M60.9082 235.752L78.888 246.239L97.2243 235.585L79.2366 225.106L60.9082 235.752Z" fill="url(#paint50_linear)"/>
<path style="mix-blend-mode:color-dodge" d="M78.7695 245.771L81.0744 245.249L97.2246 235.585L78.7695 245.771Z" fill="url(#paint51_radial)"/>
<path d="M78.9297 228.552L77.1317 221.265L75.7852 222.057L77.5831 229.304C78.4439 232.824 78.8748 236.436 78.8663 240.06V246.246L80.2049 245.518V239.244C80.2133 235.642 79.7851 232.051 78.9297 228.552Z" fill="url(#paint52_linear)"/>
<path d="M75.7927 222.049L57.7891 211.483L59.595 218.794C60.4601 222.306 60.8989 225.909 60.9019 229.526V235.736L78.8659 246.247V240.061C78.869 236.43 78.4275 232.812 77.5511 229.289L75.7927 222.049Z" fill="#EB5AC6"/>
<path d="M57.7891 211.507L75.7927 222.049L77.1313 221.265L59.1118 210.738L57.7891 211.507Z" fill="url(#paint53_linear)"/>
<path style="mix-blend-mode:color-dodge" d="M57.7891 211.506L76.1808 221.732L78.2005 232.013L75.5313 222.057L57.7891 211.506Z" fill="url(#paint54_radial)"/>
<path d="M103.323 284.051C102.658 284.049 102.005 283.872 101.43 283.536L86.1751 274.689C85.8459 274.5 85.5724 274.228 85.3822 273.9C85.192 273.572 85.0918 273.199 85.0918 272.82C85.0918 272.44 85.192 272.068 85.3822 271.74C85.5724 271.411 85.8459 271.139 86.1751 270.951L101.042 262.642V254.412C101.042 254.202 101.126 254.001 101.274 253.852C101.423 253.704 101.624 253.62 101.834 253.62C102.044 253.62 102.246 253.704 102.394 253.852C102.543 254.001 102.626 254.202 102.626 254.412V263.125C102.628 263.269 102.591 263.41 102.518 263.535C102.446 263.659 102.341 263.761 102.214 263.83L86.9434 272.376C86.8628 272.423 86.7959 272.49 86.7494 272.571C86.7029 272.651 86.6784 272.743 86.6784 272.836C86.6784 272.929 86.7029 273.02 86.7494 273.101C86.7959 273.182 86.8628 273.248 86.9434 273.295L102.206 282.15C102.536 282.343 102.91 282.445 103.292 282.445C103.673 282.445 104.048 282.343 104.377 282.15L117.58 274.436V252.187C117.58 251.977 117.664 251.775 117.812 251.627C117.961 251.478 118.162 251.395 118.372 251.395C118.583 251.395 118.784 251.478 118.933 251.627C119.081 251.775 119.165 251.977 119.165 252.187V274.848C119.167 274.988 119.131 275.127 119.061 275.25C118.992 275.372 118.891 275.474 118.769 275.545L105.24 283.56C104.656 283.892 103.995 284.061 103.323 284.051Z" fill="url(#paint55_linear)"/>
<path opacity="0.3" d="M103.189 283.37C102.619 283.369 102.059 283.218 101.565 282.935L86.3099 274.056C86.0646 273.914 85.8618 273.709 85.7225 273.463C85.5832 273.216 85.5125 272.937 85.5179 272.654C85.5139 272.372 85.5853 272.094 85.7245 271.849C85.8637 271.604 86.0658 271.4 86.3099 271.26L101.438 262.8V254.254C101.44 254.183 101.469 254.116 101.519 254.066C101.57 254.016 101.637 253.987 101.708 253.985C101.779 253.985 101.848 254.013 101.898 254.064C101.949 254.114 101.977 254.183 101.977 254.254V262.967C101.978 263.014 101.966 263.06 101.942 263.101C101.918 263.141 101.884 263.174 101.842 263.196L86.603 271.759C86.435 271.848 86.2946 271.981 86.1969 272.145C86.0991 272.308 86.0479 272.495 86.0485 272.685C86.0474 272.874 86.0959 273.059 86.189 273.223C86.2821 273.388 86.4167 273.524 86.5792 273.62L101.834 282.467C102.241 282.71 102.707 282.836 103.181 282.832C103.662 282.832 104.134 282.706 104.551 282.467L118.016 274.586V252.052C118.016 251.981 118.045 251.912 118.095 251.862C118.146 251.811 118.214 251.783 118.286 251.783C118.321 251.783 118.356 251.79 118.389 251.803C118.421 251.817 118.451 251.837 118.476 251.862C118.501 251.887 118.521 251.916 118.534 251.949C118.548 251.982 118.555 252.017 118.555 252.052V274.745C118.555 274.791 118.544 274.836 118.521 274.876C118.499 274.916 118.467 274.95 118.428 274.974L104.82 282.895C104.33 283.199 103.766 283.363 103.189 283.37Z" fill="white"/>
<path style="mix-blend-mode:color-dodge" d="M103.127 283.069C102.594 283.067 102.071 282.928 101.607 282.665L86.3514 273.81C86.1393 273.687 85.9633 273.51 85.841 273.297C85.7187 273.085 85.6543 272.844 85.6543 272.598C85.6543 272.353 85.7187 272.112 85.841 271.899C85.9633 271.687 86.1393 271.51 86.3514 271.387L101.591 262.856V254.183C101.591 254.168 101.597 254.154 101.607 254.144C101.617 254.133 101.631 254.127 101.646 254.127C101.661 254.127 101.675 254.133 101.685 254.144C101.696 254.154 101.702 254.168 101.702 254.183V262.896C101.705 262.903 101.707 262.911 101.707 262.919C101.707 262.928 101.705 262.936 101.702 262.943L86.4385 271.489C86.2382 271.598 86.0708 271.758 85.9537 271.953C85.8367 272.148 85.7743 272.371 85.7731 272.598C85.7716 272.826 85.8301 273.049 85.9427 273.247C86.0554 273.444 86.2182 273.609 86.4147 273.723L101.67 282.578C102.116 282.833 102.621 282.966 103.135 282.966C103.653 282.968 104.161 282.831 104.608 282.57L118.184 274.65V251.957C118.186 251.944 118.193 251.932 118.203 251.923C118.213 251.914 118.226 251.91 118.24 251.91C118.24 251.91 118.295 251.91 118.295 251.957V274.65L104.664 282.65C104.2 282.927 103.668 283.072 103.127 283.069Z" fill="url(#paint56_radial)"/>
<path d="M102.285 261.002V262.65L120.629 252.036V250.341L102.285 261.002Z" fill="url(#paint57_linear)"/>
<path d="M102.294 261.002V262.65L84.3145 252.21V250.507L102.294 261.002Z" fill="url(#paint58_linear)"/>
<path d="M102.285 259.989V261.636L120.629 251.03V249.335L102.285 259.989Z" fill="url(#paint59_linear)"/>
<path d="M102.294 259.988V261.636L84.3145 251.196V249.501L102.294 259.988Z" fill="url(#paint60_linear)"/>
<path d="M84.3145 249.502L102.294 259.989L120.631 249.335L102.643 238.856L84.3145 249.502Z" fill="url(#paint61_linear)"/>
<path style="mix-blend-mode:color-dodge" d="M102.166 259.521L104.471 258.991L120.629 249.335L102.166 259.521Z" fill="url(#paint62_radial)"/>
<path d="M102.326 242.302L100.528 235.015L99.1895 235.807L100.98 243.055C101.852 246.576 102.294 250.191 102.294 253.819V260.005L103.641 259.276V252.987C103.632 249.386 103.191 245.798 102.326 242.302Z" fill="url(#paint63_linear)"/>
<path d="M99.197 235.799L81.1934 225.249L82.9993 232.567C83.8628 236.079 84.2989 239.683 84.2982 243.3V249.502L102.302 259.996V253.81C102.301 250.177 101.86 246.557 100.987 243.03L99.197 235.799Z" fill="#DB4DC0"/>
<path d="M81.1934 225.249L99.197 235.791L100.528 235.015L82.5161 224.488L81.1934 225.249Z" fill="url(#paint64_linear)"/>
<path style="mix-blend-mode:color-dodge" d="M81.1934 225.249L99.5772 235.482L101.605 245.763L98.9277 235.807L81.1934 225.249Z" fill="url(#paint65_radial)"/>
<path d="M22.6297 275.767C21.9624 275.769 21.3065 275.594 20.7288 275.26L5.43401 266.404C5.10468 266.217 4.83087 265.946 4.64041 265.618C4.44994 265.29 4.34961 264.918 4.34961 264.539C4.34961 264.16 4.44994 263.788 4.64041 263.46C4.83087 263.133 5.10468 262.861 5.43401 262.674L20.2852 254.357V246.128C20.2852 245.918 20.3687 245.716 20.5172 245.568C20.6657 245.419 20.8672 245.336 21.0773 245.336C21.2873 245.336 21.4888 245.419 21.6373 245.568C21.7859 245.716 21.8693 245.918 21.8693 246.128V254.84C21.8712 254.984 21.8338 255.126 21.7612 255.25C21.6887 255.374 21.5836 255.476 21.4575 255.545L6.25775 264.084C6.1761 264.131 6.1087 264.199 6.06269 264.281C6.01667 264.364 5.99376 264.457 5.99637 264.551C5.9946 264.645 6.01787 264.738 6.0638 264.82C6.10973 264.902 6.17667 264.971 6.25775 265.018L21.5208 273.866C21.8499 274.059 22.2245 274.16 22.6059 274.16C22.9874 274.16 23.362 274.059 23.6911 273.866L36.8869 266.135V243.902C36.8869 243.692 36.9703 243.49 37.1189 243.342C37.2674 243.193 37.4689 243.11 37.6789 243.11C37.889 243.11 38.0905 243.193 38.239 243.342C38.3875 243.49 38.471 243.692 38.471 243.902V266.602C38.4715 266.742 38.4352 266.879 38.3657 267C38.2961 267.121 38.1958 267.222 38.075 267.292L24.499 275.252C23.9303 275.581 23.2866 275.758 22.6297 275.767Z" fill="url(#paint66_linear)"/>
<path opacity="0.3" d="M22.4544 275.093C21.8819 275.093 21.3194 274.943 20.8228 274.658L5.56761 265.803C5.31416 265.667 5.10219 265.466 4.95439 265.22C4.80659 264.974 4.72852 264.692 4.72852 264.405C4.72852 264.117 4.80659 263.836 4.95439 263.589C5.10219 263.343 5.31416 263.142 5.56761 263.007L20.6881 254.539V245.993C20.6881 245.922 20.7165 245.853 20.767 245.803C20.8175 245.752 20.886 245.724 20.9574 245.724C21.0288 245.724 21.0973 245.752 21.1478 245.803C21.1983 245.853 21.2267 245.922 21.2267 245.993V254.706C21.2284 254.754 21.2167 254.802 21.1929 254.844C21.1691 254.885 21.1342 254.92 21.0921 254.943L5.86067 263.474C5.69378 263.565 5.5543 263.698 5.45678 263.861C5.35925 264.024 5.30726 264.211 5.30623 264.401C5.30372 264.591 5.35148 264.778 5.44468 264.943C5.53788 265.109 5.6732 265.247 5.83691 265.343L21.1 274.198C21.5122 274.439 21.981 274.566 22.4584 274.566C22.9358 274.566 23.4046 274.439 23.8168 274.198L37.2818 266.325V243.767C37.2818 243.696 37.3102 243.627 37.3607 243.577C37.4112 243.526 37.4797 243.498 37.5511 243.498C37.6226 243.498 37.6911 243.526 37.7416 243.577C37.7921 243.627 37.8204 243.696 37.8204 243.767V266.46C37.8207 266.506 37.8091 266.551 37.7869 266.591C37.7648 266.631 37.7327 266.665 37.6937 266.69L24.0861 274.65C23.5903 274.938 23.0277 275.091 22.4544 275.093Z" fill="white"/>
<path style="mix-blend-mode:color-dodge" d="M22.3851 274.785C21.8543 274.783 21.333 274.644 20.8722 274.381L5.60917 265.526C5.39711 265.402 5.22113 265.225 5.09881 265.013C4.97649 264.8 4.91211 264.559 4.91211 264.314C4.91211 264.068 4.97649 263.827 5.09881 263.615C5.22113 263.402 5.39711 263.225 5.60917 263.102L20.8485 254.579V245.867C20.8485 245.852 20.8543 245.838 20.8647 245.827C20.8751 245.817 20.8892 245.811 20.9039 245.811C20.9186 245.811 20.9327 245.817 20.9431 245.827C20.9535 245.838 20.9594 245.852 20.9594 245.867V254.579C20.9594 254.579 20.9594 254.579 20.9594 254.627L5.68838 263.197C5.48861 263.308 5.32178 263.469 5.20489 263.665C5.08801 263.862 5.02526 264.085 5.02304 264.314C5.02041 264.54 5.07854 264.763 5.19137 264.96C5.30421 265.156 5.46762 265.319 5.66461 265.431L20.9277 274.286C21.3694 274.545 21.8731 274.679 22.3851 274.674C22.9026 274.675 23.4111 274.538 23.8583 274.278L37.4343 266.357V243.68C37.4343 243.666 37.4401 243.652 37.4505 243.641C37.4609 243.631 37.475 243.625 37.4897 243.625C37.5044 243.625 37.5185 243.631 37.5289 243.641C37.5393 243.652 37.5452 243.666 37.5452 243.68V266.373L23.9138 274.373C23.4496 274.643 22.9221 274.785 22.3851 274.785Z" fill="url(#paint67_radial)"/>
<path d="M21.541 252.718V254.365L39.8852 243.76V242.057L21.541 252.718Z" fill="url(#paint68_linear)"/>
<path d="M21.5502 252.718V254.365L3.57031 243.926V242.231L21.5502 252.718Z" fill="url(#paint69_linear)"/>
<path d="M21.541 251.712V253.359L39.8852 242.746V241.051L21.541 251.712Z" fill="url(#paint70_linear)"/>
<path d="M21.5502 251.712V253.359L3.57031 242.92V241.217L21.5502 251.712Z" fill="url(#paint71_linear)"/>
<path d="M3.57031 241.217L21.5502 251.712L39.8864 241.051L21.8987 230.58L3.57031 241.217Z" fill="url(#paint72_linear)"/>
<path style="mix-blend-mode:color-dodge" d="M21.4219 251.237L23.7268 250.714L39.8849 241.051L21.4219 251.237Z" fill="url(#paint73_radial)"/>
<path d="M21.5838 234.017L19.7859 226.73L18.4473 227.523L20.2532 234.762C21.1249 238.289 21.5611 241.909 21.5522 245.542V251.728L22.8987 250.991V244.75C22.8928 241.133 22.4513 237.529 21.5838 234.017Z" fill="url(#paint74_linear)"/>
<path d="M18.4548 227.515L0.451172 216.972L2.25708 224.291C3.1201 227.8 3.55625 231.401 3.55606 235.015V241.225L21.5597 251.72V245.542C21.5623 241.906 21.1235 238.284 20.2528 234.754L18.4548 227.515Z" fill="url(#paint75_linear)"/>
<path d="M0.451172 216.972L18.4548 227.514L19.7854 226.73L1.77392 216.204L0.451172 216.972Z" fill="url(#paint76_linear)"/>
<path style="mix-blend-mode:color-dodge" d="M0.451172 216.972L18.835 227.206L20.8627 237.479L18.1934 227.522L0.451172 216.972Z" fill="url(#paint77_radial)"/>
<path d="M46.6686 290C46.004 290.001 45.3509 289.826 44.7756 289.493L29.5205 280.638C29.1959 280.455 28.9259 280.189 28.738 279.868C28.55 279.546 28.4511 279.18 28.4512 278.808C28.4519 278.428 28.5544 278.055 28.748 277.727C28.9416 277.4 29.2192 277.131 29.5521 276.947L44.4033 268.638V260.401C44.4033 260.19 44.4868 259.989 44.6353 259.84C44.7839 259.692 44.9853 259.608 45.1954 259.608C45.4055 259.608 45.6069 259.692 45.7555 259.84C45.904 259.989 45.9875 260.19 45.9875 260.401V269.113C45.9893 269.257 45.9519 269.399 45.8794 269.523C45.8068 269.647 45.7018 269.749 45.5756 269.818L30.3363 278.317C30.2538 278.362 30.1851 278.428 30.1376 278.509C30.0902 278.59 30.0657 278.683 30.067 278.776C30.0652 278.87 30.0885 278.963 30.1344 279.045C30.1803 279.128 30.2473 279.196 30.3284 279.244L45.5994 288.099C45.9307 288.289 46.3063 288.39 46.6884 288.39C47.0706 288.39 47.4461 288.289 47.7775 288.099L60.9654 280.392V258.143C60.9654 257.933 61.0488 257.732 61.1974 257.583C61.3459 257.435 61.5474 257.351 61.7575 257.351C61.9675 257.351 62.169 257.435 62.3175 257.583C62.4661 257.732 62.5495 257.933 62.5495 258.143V280.836C62.5515 280.977 62.5158 281.116 62.4462 281.238C62.3766 281.361 62.2755 281.462 62.1535 281.533L48.5458 289.453C47.9801 289.8 47.3319 289.989 46.6686 290Z" fill="url(#paint78_linear)"/>
<path opacity="0.3" d="M46.5326 289.327C45.9759 289.32 45.4303 289.17 44.9484 288.891L29.6537 280.036C29.4084 279.894 29.2055 279.69 29.0662 279.443C28.9269 279.197 28.8563 278.917 28.8616 278.634C28.8577 278.352 28.929 278.074 29.0683 277.829C29.2075 277.584 29.4096 277.381 29.6537 277.24L44.8059 268.773V260.226C44.8059 260.155 44.8342 260.087 44.8847 260.036C44.9352 259.986 45.0037 259.957 45.0752 259.957C45.1466 259.957 45.2151 259.986 45.2656 260.036C45.3161 260.087 45.3445 260.155 45.3445 260.226V268.939C45.3444 268.987 45.332 269.034 45.3084 269.076C45.2848 269.117 45.2509 269.152 45.2098 269.177L29.9388 277.715C29.7729 277.804 29.6344 277.937 29.5381 278.099C29.4418 278.261 29.3914 278.446 29.3923 278.634C29.3896 278.823 29.4373 279.009 29.5306 279.173C29.6239 279.338 29.7593 279.474 29.923 279.569L45.1781 288.424C45.5915 288.665 46.0617 288.793 46.5405 288.793C47.0192 288.793 47.4894 288.665 47.9028 288.424L61.3679 280.551V258.001C61.3679 257.929 61.3963 257.861 61.4468 257.81C61.4973 257.76 61.5658 257.731 61.6372 257.731C61.7086 257.731 61.7771 257.76 61.8276 257.81C61.8781 257.861 61.9065 257.929 61.9065 258.001V280.693C61.9082 280.742 61.8965 280.789 61.8727 280.831C61.8489 280.873 61.814 280.908 61.7719 280.931L48.1721 288.852C47.6794 289.157 47.1123 289.321 46.5326 289.327Z" fill="white"/>
<path style="mix-blend-mode:color-dodge" d="M46.471 289.026C45.9366 289.025 45.4118 288.883 44.9501 288.614L29.6951 279.766C29.4824 279.642 29.3061 279.464 29.1838 279.25C29.0615 279.035 28.9975 278.793 28.9981 278.547C29.0002 278.3 29.0681 278.058 29.1948 277.847C29.3215 277.635 29.5024 277.461 29.7188 277.343L44.958 268.812V260.139C44.958 260.124 44.9639 260.11 44.9743 260.1C44.9847 260.089 44.9988 260.084 45.0135 260.084C45.0268 260.086 45.0389 260.092 45.0477 260.102C45.0564 260.113 45.0612 260.126 45.0611 260.139V268.852C45.0653 268.859 45.0675 268.867 45.0675 268.876C45.0675 268.884 45.0653 268.892 45.0611 268.899L29.7584 277.43C29.5609 277.543 29.3967 277.706 29.2826 277.903C29.1684 278.1 29.1082 278.323 29.1082 278.551C29.1082 278.778 29.1684 279.002 29.2826 279.198C29.3967 279.395 29.5609 279.558 29.7584 279.671L45.0135 288.519C45.4578 288.779 45.9639 288.916 46.4789 288.915C46.9971 288.913 47.5055 288.774 47.952 288.511L61.528 280.59V257.913C61.528 257.899 61.5339 257.885 61.5443 257.874C61.5547 257.864 61.5687 257.858 61.5835 257.858C61.5967 257.86 61.6089 257.867 61.6176 257.877C61.6264 257.887 61.6312 257.9 61.6311 257.913V280.606L47.9758 288.606C47.5194 288.875 47.0007 289.019 46.471 289.026Z" fill="url(#paint79_radial)"/>
<path d="M45.6211 266.959V268.606L63.9732 257.992V256.297L45.6211 266.959Z" fill="url(#paint80_linear)"/>
<path d="M45.6301 266.959V268.606L27.6582 258.167V256.464L45.6301 266.959Z" fill="url(#paint81_linear)"/>
<path d="M45.6211 265.945V267.592L63.9732 256.987V255.284L45.6211 265.945Z" fill="url(#paint82_linear)"/>
<path d="M45.6301 265.944V267.592L27.6582 257.153V255.458L45.6301 265.944Z" fill="url(#paint83_linear)"/>
<path d="M27.6582 255.458L45.6301 265.945L63.9743 255.284L45.9786 244.812L27.6582 255.458Z" fill="url(#paint84_linear)"/>
<path style="mix-blend-mode:color-dodge" d="M45.5098 265.478L47.8147 264.947L63.9728 255.284L45.5098 265.478Z" fill="url(#paint85_radial)"/>
<path d="M45.6717 248.25L43.8737 240.963L42.5352 241.755L44.3252 249.003C45.1992 252.535 45.6407 256.16 45.64 259.799V265.985L46.9866 265.256V258.975C46.9841 255.36 46.5426 251.759 45.6717 248.25Z" fill="url(#paint86_linear)"/>
<path d="M42.5328 241.747L24.5371 231.205L26.3351 238.524C27.205 242.035 27.6439 245.639 27.642 249.256V255.458L45.6456 265.953V259.799C45.6444 256.168 45.2029 252.551 44.3308 249.027L42.5328 241.747Z" fill="url(#paint87_linear)"/>
<path d="M24.5371 231.205L42.5328 241.748L43.8714 240.963L25.8599 230.445L24.5371 231.205Z" fill="url(#paint88_linear)"/>
<path style="mix-blend-mode:color-dodge" d="M24.5371 231.205L42.9209 241.439L44.9407 251.72L42.2714 241.763L24.5371 231.205Z" fill="url(#paint89_radial)"/>
<path d="M214.45 232.156L155.584 198.168C148.939 194.335 143.56 184.054 143.56 175.199V18.4253C143.56 13.9264 139.854 12.9284 142.095 11.2968C142.182 11.2334 147.354 8.92057 147.45 8.84928C149.826 7.92257 152.447 7.5107 155.584 9.3166L214.45 43.3041C221.088 47.1376 226.474 57.4266 226.474 66.2739V223.071C226.474 227.776 224.953 231.126 222.513 232.663C222.371 232.75 216.177 235.712 215.979 235.768C213.856 236.48 217.349 233.835 214.45 232.156Z" fill="url(#paint90_linear)"/>
<path style="mix-blend-mode:color-dodge" d="M213.904 43.502L155.038 9.50661C151.869 7.7007 210.648 44.5792 210.648 44.5792C217.294 48.4128 222.672 58.7017 222.672 67.549C222.672 67.549 225.927 227.934 225.927 223.237V66.4798C225.927 57.6245 220.549 47.3356 213.904 43.502Z" fill="url(#paint91_radial)"/>
<path style="mix-blend-mode:screen" opacity="0.6" d="M209.872 234.247L151.006 200.259C144.368 196.426 138.982 186.145 138.982 177.289V20.5163C138.982 11.661 144.368 7.58977 151.006 11.4234L209.872 45.4108C216.518 49.2444 221.896 59.5333 221.896 68.3807V225.162C221.896 234.009 216.518 238.08 209.872 234.247Z" fill="url(#paint92_radial)"/>
<path d="M208.827 234.817L149.961 200.83C143.324 196.996 137.938 186.707 137.938 177.86V21.0866C137.938 12.2313 143.324 8.16009 149.961 11.9937L208.827 45.9811C215.473 49.8147 220.851 60.0957 220.851 68.951V225.74C220.851 234.579 215.473 238.651 208.827 234.817Z" fill="url(#paint93_linear)"/>
<path d="M139.578 178.897V21.9342C139.578 14.172 144.331 10.6077 150.121 13.966L208.67 47.7713C214.492 51.1297 219.212 60.1513 219.212 67.9135V224.877C219.212 232.639 214.46 236.203 208.67 232.845L150.152 199.04C144.299 195.642 139.578 186.66 139.578 178.897Z" fill="url(#paint94_linear)"/>
<path d="M141.922 179.856V23.6845C141.922 17.1896 145.882 14.1798 150.745 17.0153L208.051 50.0998C212.922 52.9117 216.867 60.46 216.867 66.955V223.126C216.867 229.621 212.907 232.631 208.051 229.795L150.745 196.711C145.866 193.899 141.922 186.351 141.922 179.856Z" fill="url(#paint95_linear)"/>
<path d="M151.403 18.742C146.816 16.0886 143.094 18.2114 143.094 23.4944V181.384C143.094 186.652 146.816 193.075 151.403 195.721L207.386 228.045C211.98 230.698 215.702 228.576 215.702 223.293V65.4025C215.702 60.1274 211.98 53.7117 207.386 51.0582L151.403 18.742Z" fill="url(#paint96_linear)"/>
<path d="M222.436 105.227V94.6455C222.444 93.9561 222.615 93.2785 222.934 92.6675C223.253 92.0565 223.712 91.5294 224.273 91.1287C225.287 90.5505 226.111 91.1287 226.111 92.5227V103.105C226.1 103.793 225.929 104.468 225.61 105.078C225.29 105.687 224.833 106.213 224.273 106.614C223.251 107.2 222.436 106.582 222.436 105.227Z" fill="url(#paint97_linear)"/>
<path d="M223.543 106.439C223.012 106.439 222.83 105.79 222.83 105.228V94.6456C222.843 94.0272 222.997 93.42 223.281 92.8707C223.565 92.3214 223.972 91.8447 224.47 91.4774C224.629 91.3764 224.812 91.3191 225 91.311C225.523 91.311 225.713 91.9605 225.713 92.5229V103.105C225.701 103.723 225.546 104.33 225.262 104.88C224.978 105.429 224.571 105.906 224.074 106.273C223.914 106.374 223.731 106.431 223.543 106.439Z" fill="url(#paint98_linear)"/>
<path style="mix-blend-mode:color-dodge" d="M223.369 105.497V94.9149C223.381 94.2966 223.536 93.6893 223.82 93.14C224.104 92.5907 224.511 92.114 225.008 91.7467C225.154 91.6622 225.316 91.6083 225.483 91.5883C225.434 91.5041 225.363 91.4342 225.279 91.3856C225.194 91.337 225.098 91.3113 225 91.311C224.812 91.3191 224.629 91.3764 224.47 91.4774C223.972 91.8447 223.565 92.3214 223.281 92.8707C222.997 93.42 222.843 94.0272 222.83 94.6456V105.228C222.83 105.79 223.012 106.439 223.543 106.439H223.598C223.437 106.152 223.357 105.826 223.369 105.497Z" fill="url(#paint99_radial)"/>
<g style="mix-blend-mode:multiply">
<g style="mix-blend-mode:multiply">
<path d="M207.386 51.0582L151.403 18.742C146.816 16.0886 143.094 18.2114 143.094 23.4944V181.384C143.094 186.652 146.816 193.075 151.403 195.721L207.386 228.045C211.98 230.698 215.702 228.576 215.702 223.293V65.4025C215.702 60.1274 211.98 53.7117 207.386 51.0582ZM214.974 223.364C215.053 224.748 214.662 226.118 213.865 227.253C213.536 227.664 213.117 227.992 212.64 228.214C212.163 228.435 211.642 228.543 211.116 228.528C209.92 228.474 208.759 228.114 207.742 227.483L151.735 195.119C147.347 192.592 143.815 186.406 143.815 181.408V23.4786C143.815 20.3103 145.296 18.3222 147.672 18.3222C148.868 18.3724 150.031 18.7327 151.046 19.3678L207.021 51.684C211.409 54.2186 214.942 60.3967 214.942 65.4025L214.974 223.364Z" fill="#BCBEC0"/>
</g>
</g>
<path style="mix-blend-mode:screen" d="M220.869 194.564L171.016 165.812L156.244 174.921V195.079L206.049 223.736V223.744H206.057H206.065V223.736L220.869 214.714V194.564Z" fill="url(#paint100_linear)"/>
<g opacity="0.9">
<path opacity="0.9" d="M206.047 203.712V223.744L212.36 220.108V199.95L206.047 203.712Z" fill="url(#paint101_linear)"/>
<path opacity="0.9" d="M206.063 203.712V223.744L156.242 195.079V174.921L206.063 203.712Z" fill="url(#paint102_linear)"/>
<path opacity="0.9" d="M156.242 174.921L206.063 203.712L212.36 199.95L162.507 171.206L156.242 174.921Z" fill="url(#paint103_linear)"/>
</g>
<path d="M173.818 190.128V191.942L201.747 208.061V206.255L173.818 190.128Z" fill="white"/>
<path d="M192.915 208.678L173.818 197.645V199.451L192.915 210.484V208.678Z" fill="white"/>
<path d="M173.818 195.697L201.747 211.823V210.009L173.818 193.891V195.697Z" fill="white"/>
<path d="M168.259 193.384C167.631 192.841 167.096 192.198 166.675 191.483C166.413 191.039 166.421 190.564 166.675 190.413C167.024 190.199 167.3 189.884 167.467 189.51C167.744 189.59 168.085 189.51 168.085 189.106C168.088 188.725 167.947 188.357 167.689 188.077C167.704 187.168 167.475 186.271 167.025 185.481C166.575 184.691 165.92 184.036 165.13 183.586C163.213 182.477 162.643 183.53 162.572 185.122C162.342 185.075 162.168 185.297 162.168 185.685C162.234 186.125 162.456 186.527 162.794 186.817C162.987 187.458 163.253 188.074 163.586 188.655C163.839 189.099 163.847 189.59 163.586 189.724C163.087 189.955 162.518 189.981 162.002 189.796C161.21 189.55 160.6 190.033 160.6 191.031V192.75C160.611 192.931 160.663 193.106 160.754 193.263C160.845 193.42 160.971 193.553 161.122 193.653L169.162 198.263C169.455 198.429 169.692 198.263 169.692 197.962V196.243C169.656 195.695 169.511 195.159 169.265 194.668C169.018 194.177 168.676 193.741 168.259 193.384Z" fill="white"/>
<path style="mix-blend-mode:screen" d="M209.645 136.141L151.159 102.32L127.793 116.197V144.593L186.231 178.319V178.335L186.239 178.327L186.247 178.335V178.319L209.645 164.529V136.141Z" fill="url(#paint104_linear)"/>
<g opacity="0.9">
<path opacity="0.9" d="M186.229 150.058V178.334L192.541 174.691V146.295L186.229 150.058Z" fill="url(#paint105_linear)"/>
<path opacity="0.9" d="M186.245 150.058V178.335L127.791 144.593V116.197L186.245 150.058Z" fill="url(#paint106_linear)"/>
<path opacity="0.9" d="M127.791 116.197L186.245 150.058L192.542 146.296L134.056 112.482L127.791 116.197Z" fill="url(#paint107_linear)"/>
</g>
<path d="M148.852 140.957V142.763L181.928 161.852V160.046L148.852 140.957Z" fill="white"/>
<path d="M173.097 162.47L148.852 148.466V150.272L173.097 164.275V162.47Z" fill="white"/>
<path d="M148.852 146.517L181.928 165.606V163.8L148.852 144.711V146.517Z" fill="white"/>
<path d="M148.852 133.44V135.246L181.928 154.335V152.529L148.852 133.44Z" fill="white"/>
<path d="M148.852 139.001L181.928 158.097V156.284L148.852 137.195V139.001Z" fill="white"/>
<path d="M140.487 140.255C139.859 139.712 139.324 139.07 138.903 138.354C138.642 137.91 138.65 137.435 138.903 137.284C139.252 137.07 139.529 136.756 139.695 136.381C139.973 136.461 140.313 136.381 140.313 135.978C140.317 135.596 140.175 135.228 139.917 134.948C139.933 134.039 139.703 133.142 139.253 132.352C138.803 131.562 138.149 130.907 137.359 130.457C135.442 129.348 134.872 130.401 134.8 131.993C134.571 131.946 134.396 132.168 134.396 132.556C134.462 132.996 134.684 133.398 135.022 133.688C135.216 134.329 135.482 134.945 135.814 135.526C136.068 135.97 136.076 136.461 135.814 136.595C135.316 136.826 134.747 136.852 134.23 136.667C133.438 136.421 132.828 136.904 132.828 137.902V139.621C132.839 139.802 132.892 139.978 132.983 140.134C133.073 140.291 133.2 140.425 133.351 140.524L141.39 145.134C141.683 145.3 141.921 145.134 141.921 144.833V143.114C141.885 142.566 141.739 142.031 141.493 141.54C141.247 141.048 140.905 140.612 140.487 140.255Z" fill="white"/>
<path style="mix-blend-mode:screen" d="M222.016 110.328L206.174 101.108L188.686 111.073V128.466L204.471 137.591V137.599H204.487H204.495V137.591L222.016 127.722V110.328Z" fill="url(#paint108_linear)"/>
<g opacity="0.9">
<path opacity="0.9" d="M204.471 120.34V137.599L211.647 133.456V116.062L204.471 120.34Z" fill="url(#paint109_linear)"/>
<path opacity="0.9" d="M204.495 120.34V137.599L188.686 128.466V111.073L204.495 120.34Z" fill="url(#paint110_linear)"/>
<path opacity="0.9" d="M188.686 111.072L204.495 120.34L211.647 116.062L195.814 106.843L188.686 111.072Z" fill="url(#paint111_linear)"/>
</g>
<g opacity="0.9">
<path opacity="0.9" d="M204.471 97.1878V114.455L211.647 110.312V92.9106L204.471 97.1878Z" fill="url(#paint112_linear)"/>
<path opacity="0.9" d="M204.495 97.1876V114.455L188.686 105.322V87.9204L204.495 97.1876Z" fill="url(#paint113_linear)"/>
<path opacity="0.9" d="M188.686 87.9205L204.495 97.1877L211.647 92.9105L195.814 83.6909L188.686 87.9205Z" fill="url(#paint114_linear)"/>
</g>
<path d="M198.991 98.0669C198.001 97.5045 197.154 97.6867 196.726 98.4392C196.331 97.2158 195.532 96.163 194.461 95.4531C193.043 94.661 191.902 95.3739 191.902 97.1006C191.902 100.269 196.726 106.946 196.726 106.946C196.726 106.946 201.542 105.829 201.542 102.669C201.508 101.755 201.259 100.863 200.816 100.063C200.373 99.2638 199.748 98.5799 198.991 98.0669Z" fill="white"/>
<g opacity="0.9">
<path opacity="0.9" d="M204.471 73.4895V90.7486L211.647 86.6061V69.2124L204.471 73.4895Z" fill="url(#paint115_linear)"/>
<path opacity="0.9" d="M204.495 73.4893V90.7484L188.686 81.6238V64.2222L204.495 73.4893Z" fill="url(#paint116_linear)"/>
<path opacity="0.9" d="M188.686 64.2223L204.495 73.4894L211.647 69.2123L195.814 59.9927L188.686 64.2223Z" fill="url(#paint117_linear)"/>
</g>
</g>
<defs>
<linearGradient id="paint0_linear" x1="81.0509" y1="238.112" x2="104.916" y2="199.879" gradientUnits="userSpaceOnUse">
<stop offset="0.04" stop-color="#6B24D6"/>
<stop offset="0.29" stop-color="#7733DC"/>
<stop offset="0.79" stop-color="#975CED"/>
<stop offset="1" stop-color="#A56EF4"/>
</linearGradient>
<radialGradient id="paint1_radial" cx="0" cy="0" r="1" gradientUnits="userSpaceOnUse" gradientTransform="translate(103.238 218.666) scale(15.9522)">
<stop stop-color="white"/>
<stop offset="1"/>
</radialGradient>
<linearGradient id="paint2_linear" x1="2213.91" y1="3474.17" x2="3030.77" y2="3109.47" gradientUnits="userSpaceOnUse">
<stop offset="0.04" stop-color="#6B24D6"/>
<stop offset="0.29" stop-color="#7733DC"/>
<stop offset="0.79" stop-color="#975CED"/>
<stop offset="1" stop-color="#A56EF4"/>
</linearGradient>
<linearGradient id="paint3_linear" x1="1316.59" y1="3486.89" x2="2388.35" y2="3130.82" gradientUnits="userSpaceOnUse">
<stop offset="0.04" stop-color="#6B24D6"/>
<stop offset="0.29" stop-color="#7733DC"/>
<stop offset="0.79" stop-color="#975CED"/>
<stop offset="1" stop-color="#A56EF4"/>
</linearGradient>
<linearGradient id="paint4_linear" x1="92.1719" y1="209.518" x2="130.975" y2="197.899" gradientUnits="userSpaceOnUse">
<stop offset="0.04" stop-color="#9F19AB"/>
<stop offset="0.24" stop-color="#AE25B1"/>
<stop offset="0.65" stop-color="#D744BF"/>
<stop offset="1" stop-color="#FF63CE"/>
</linearGradient>
<linearGradient id="paint5_linear" x1="1316.59" y1="3472.59" x2="2388.48" y2="3116.71" gradientUnits="userSpaceOnUse">
<stop offset="0.04" stop-color="#9F19AB"/>
<stop offset="0.24" stop-color="#AE25B1"/>
<stop offset="0.65" stop-color="#D744BF"/>
<stop offset="1" stop-color="#FF63CE"/>
</linearGradient>
<linearGradient id="paint6_linear" x1="4951.62" y1="4661.68" x2="4580.06" y2="5878.64" gradientUnits="userSpaceOnUse">
<stop offset="0.04" stop-color="#9F19AB"/>
<stop offset="0.24" stop-color="#AE25B1"/>
<stop offset="0.65" stop-color="#D744BF"/>
<stop offset="1" stop-color="#FF63CE"/>
</linearGradient>
<radialGradient id="paint7_radial" cx="0" cy="0" r="1" gradientUnits="userSpaceOnUse" gradientTransform="translate(2404.25 2903.26) scale(285.992 157.78)">
<stop stop-color="white"/>
<stop offset="1"/>
</radialGradient>
<linearGradient id="paint8_linear" x1="568.523" y1="6495.68" x2="630.049" y2="6492.4" gradientUnits="userSpaceOnUse">
<stop offset="0.04" stop-color="#9F19AB"/>
<stop offset="0.24" stop-color="#AE25B1"/>
<stop offset="0.65" stop-color="#D744BF"/>
<stop offset="1" stop-color="#FF63CE"/>
</linearGradient>
<linearGradient id="paint9_linear" x1="1997.02" y1="2723.62" x2="1973.13" y2="2801.53" gradientUnits="userSpaceOnUse">
<stop offset="0.04" stop-color="#9F19AB"/>
<stop offset="0.24" stop-color="#AE25B1"/>
<stop offset="0.65" stop-color="#D744BF"/>
<stop offset="1" stop-color="#FF63CE"/>
</linearGradient>
<radialGradient id="paint10_radial" cx="0" cy="0" r="1" gradientUnits="userSpaceOnUse" gradientTransform="translate(2112.26 5092.57) scale(263.716 264.945)">
<stop stop-color="white"/>
<stop offset="1"/>
</radialGradient>
<linearGradient id="paint11_linear" x1="4610.37" y1="10625.8" x2="5575.12" y2="9010.51" gradientUnits="userSpaceOnUse">
<stop offset="0.04" stop-color="#6B24D6"/>
<stop offset="0.29" stop-color="#7733DC"/>
<stop offset="0.79" stop-color="#975CED"/>
<stop offset="1" stop-color="#A56EF4"/>
</linearGradient>
<radialGradient id="paint12_radial" cx="0" cy="0" r="1" gradientUnits="userSpaceOnUse" gradientTransform="translate(5328.3 9380.74) scale(657.893 627.562)">
<stop stop-color="white"/>
<stop offset="1"/>
</radialGradient>
<linearGradient id="paint13_linear" x1="2794.92" y1="3711.84" x2="3611.72" y2="3347.55" gradientUnits="userSpaceOnUse">
<stop offset="0.04" stop-color="#6B24D6"/>
<stop offset="0.29" stop-color="#7733DC"/>
<stop offset="0.79" stop-color="#975CED"/>
<stop offset="1" stop-color="#A56EF4"/>
</linearGradient>
<linearGradient id="paint14_linear" x1="1887.26" y1="3721.58" x2="2959.35" y2="3365.69" gradientUnits="userSpaceOnUse">
<stop offset="0.04" stop-color="#6B24D6"/>
<stop offset="0.29" stop-color="#7733DC"/>
<stop offset="0.79" stop-color="#975CED"/>
<stop offset="1" stop-color="#A56EF4"/>
</linearGradient>
<linearGradient id="paint15_linear" x1="2794.92" y1="3692.96" x2="3611.55" y2="3328.51" gradientUnits="userSpaceOnUse">
<stop offset="0.04" stop-color="#9F19AB"/>
<stop offset="0.24" stop-color="#AE25B1"/>
<stop offset="0.65" stop-color="#D744BF"/>
<stop offset="1" stop-color="#FF63CE"/>
</linearGradient>
<linearGradient id="paint16_linear" x1="1887.26" y1="3702.76" x2="2959.21" y2="3346.69" gradientUnits="userSpaceOnUse">
<stop offset="0.04" stop-color="#9F19AB"/>
<stop offset="0.24" stop-color="#AE25B1"/>
<stop offset="0.65" stop-color="#D744BF"/>
<stop offset="1" stop-color="#FF63CE"/>
</linearGradient>
<linearGradient id="paint17_linear" x1="6079.02" y1="5054.21" x2="5707.62" y2="6270.56" gradientUnits="userSpaceOnUse">
<stop offset="0.04" stop-color="#9F19AB"/>
<stop offset="0.24" stop-color="#AE25B1"/>
<stop offset="0.65" stop-color="#D744BF"/>
<stop offset="1" stop-color="#FF63CE"/>
</linearGradient>
<radialGradient id="paint18_radial" cx="0" cy="0" r="1" gradientUnits="userSpaceOnUse" gradientTransform="translate(2989.6 3100.64) scale(285.992 157.78)">
<stop stop-color="white"/>
<stop offset="1"/>
</radialGradient>
<linearGradient id="paint19_linear" x1="727.979" y1="6964.71" x2="789.464" y2="6961.42" gradientUnits="userSpaceOnUse">
<stop offset="0.04" stop-color="#9F19AB"/>
<stop offset="0.24" stop-color="#AE25B1"/>
<stop offset="0.65" stop-color="#D744BF"/>
<stop offset="1" stop-color="#FF63CE"/>
</linearGradient>
<linearGradient id="paint20_linear" x1="2609.31" y1="2939.19" x2="2585.45" y2="3017.15" gradientUnits="userSpaceOnUse">
<stop offset="0.04" stop-color="#9F19AB"/>
<stop offset="0.24" stop-color="#AE25B1"/>
<stop offset="0.65" stop-color="#D744BF"/>
<stop offset="1" stop-color="#FF63CE"/>
</linearGradient>
<radialGradient id="paint21_radial" cx="0" cy="0" r="1" gradientUnits="userSpaceOnUse" gradientTransform="translate(2757.06 5477.35) scale(263.716 265.047)">
<stop stop-color="white"/>
<stop offset="1"/>
</radialGradient>
<linearGradient id="paint22_linear" x1="5633.17" y1="11200.1" x2="6597.57" y2="9586.79" gradientUnits="userSpaceOnUse">
<stop offset="0.04" stop-color="#6B24D6"/>
<stop offset="0.29" stop-color="#7733DC"/>
<stop offset="0.79" stop-color="#975CED"/>
<stop offset="1" stop-color="#A56EF4"/>
</linearGradient>
<radialGradient id="paint23_radial" cx="0" cy="0" r="1" gradientUnits="userSpaceOnUse" gradientTransform="translate(6315.25 9935.41) scale(657.709 627.561)">
<stop stop-color="white"/>
<stop offset="1"/>
</radialGradient>
<linearGradient id="paint24_linear" x1="3360.22" y1="3937.02" x2="4176.84" y2="3572.58" gradientUnits="userSpaceOnUse">
<stop offset="0.04" stop-color="#6B24D6"/>
<stop offset="0.29" stop-color="#7733DC"/>
<stop offset="0.79" stop-color="#975CED"/>
<stop offset="1" stop-color="#A56EF4"/>
</linearGradient>
<linearGradient id="paint25_linear" x1="2440.95" y1="3943.58" x2="3512.41" y2="3588.02" gradientUnits="userSpaceOnUse">
<stop offset="0.04" stop-color="#6B24D6"/>
<stop offset="0.29" stop-color="#7733DC"/>
<stop offset="0.79" stop-color="#975CED"/>
<stop offset="1" stop-color="#A56EF4"/>
</linearGradient>
<linearGradient id="paint26_linear" x1="3360.22" y1="3920.39" x2="4176.84" y2="3555.94" gradientUnits="userSpaceOnUse">
<stop offset="0.04" stop-color="#9F19AB"/>
<stop offset="0.24" stop-color="#AE25B1"/>
<stop offset="0.65" stop-color="#D744BF"/>
<stop offset="1" stop-color="#FF63CE"/>
</linearGradient>
<linearGradient id="paint27_linear" x1="2440.95" y1="3929.57" x2="3512.47" y2="3573.97" gradientUnits="userSpaceOnUse">
<stop offset="0.04" stop-color="#9F19AB"/>
<stop offset="0.24" stop-color="#AE25B1"/>
<stop offset="0.65" stop-color="#D744BF"/>
<stop offset="1" stop-color="#FF63CE"/>
</linearGradient>
<linearGradient id="paint28_linear" x1="7175.57" y1="5434.6" x2="6804.01" y2="6651.25" gradientUnits="userSpaceOnUse">
<stop offset="0.04" stop-color="#9F19AB"/>
<stop offset="0.24" stop-color="#AE25B1"/>
<stop offset="0.65" stop-color="#D744BF"/>
<stop offset="1" stop-color="#FF63CE"/>
</linearGradient>
<radialGradient id="paint29_radial" cx="0" cy="0" r="1" gradientUnits="userSpaceOnUse" gradientTransform="translate(3558.59 3291.21) scale(285.992 157.78)">
<stop stop-color="white"/>
<stop offset="1"/>
</radialGradient>
<linearGradient id="paint30_linear" x1="882.925" y1="7418.82" x2="944.411" y2="7415.54" gradientUnits="userSpaceOnUse">
<stop offset="0.04" stop-color="#9F19AB"/>
<stop offset="0.24" stop-color="#AE25B1"/>
<stop offset="0.65" stop-color="#D744BF"/>
<stop offset="1" stop-color="#FF63CE"/>
</linearGradient>
<linearGradient id="paint31_linear" x1="3203.01" y1="3151.21" x2="3179.02" y2="3229.28" gradientUnits="userSpaceOnUse">
<stop offset="0.04" stop-color="#9F19AB"/>
<stop offset="0.24" stop-color="#AE25B1"/>
<stop offset="0.65" stop-color="#D744BF"/>
<stop offset="1" stop-color="#FF63CE"/>
</linearGradient>
<radialGradient id="paint32_radial" cx="0" cy="0" r="1" gradientUnits="userSpaceOnUse" gradientTransform="translate(3383.42 5845.05) scale(263.716 264.944)">
<stop stop-color="white"/>
<stop offset="1"/>
</radialGradient>
<linearGradient id="paint33_linear" x1="2048.1" y1="10850.3" x2="3012.1" y2="9236.26" gradientUnits="userSpaceOnUse">
<stop offset="0.04" stop-color="#6B24D6"/>
<stop offset="0.29" stop-color="#7733DC"/>
<stop offset="0.79" stop-color="#975CED"/>
<stop offset="1" stop-color="#A56EF4"/>
</linearGradient>
<radialGradient id="paint34_radial" cx="0" cy="0" r="1" gradientUnits="userSpaceOnUse" gradientTransform="translate(2874.65 9603.54) scale(657.233 627.719)">
<stop stop-color="white"/>
<stop offset="1"/>
</radialGradient>
<linearGradient id="paint35_linear" x1="1393.58" y1="3800.11" x2="2210.44" y2="3435.41" gradientUnits="userSpaceOnUse">
<stop offset="0.04" stop-color="#6B24D6"/>
<stop offset="0.29" stop-color="#7733DC"/>
<stop offset="0.79" stop-color="#975CED"/>
<stop offset="1" stop-color="#A56EF4"/>
</linearGradient>
<linearGradient id="paint36_linear" x1="512.209" y1="3810.82" x2="1584.11" y2="3454.95" gradientUnits="userSpaceOnUse">
<stop offset="0.04" stop-color="#6B24D6"/>
<stop offset="0.29" stop-color="#7733DC"/>
<stop offset="0.79" stop-color="#975CED"/>
<stop offset="1" stop-color="#A56EF4"/>
</linearGradient>
<linearGradient id="paint37_linear" x1="1393.58" y1="3783.35" x2="2210.44" y2="3418.64" gradientUnits="userSpaceOnUse">
<stop offset="0.04" stop-color="#9F19AB"/>
<stop offset="0.24" stop-color="#AE25B1"/>
<stop offset="0.65" stop-color="#D744BF"/>
<stop offset="1" stop-color="#FF63CE"/>
</linearGradient>
<linearGradient id="paint38_linear" x1="512.21" y1="3791.94" x2="1583.97" y2="3435.88" gradientUnits="userSpaceOnUse">
<stop offset="0.04" stop-color="#9F19AB"/>
<stop offset="0.24" stop-color="#AE25B1"/>
<stop offset="0.65" stop-color="#D744BF"/>
<stop offset="1" stop-color="#FF63CE"/>
</linearGradient>
<linearGradient id="paint39_linear" x1="3361.2" y1="5205.48" x2="2989.89" y2="6422.06" gradientUnits="userSpaceOnUse">
<stop offset="0.04" stop-color="#9F19AB"/>
<stop offset="0.24" stop-color="#AE25B1"/>
<stop offset="0.65" stop-color="#D744BF"/>
<stop offset="1" stop-color="#FF63CE"/>
</linearGradient>
<radialGradient id="paint40_radial" cx="0" cy="0" r="1" gradientUnits="userSpaceOnUse" gradientTransform="translate(1579.17 3178.68) scale(285.992 157.903)">
<stop stop-color="white"/>
<stop offset="1"/>
</radialGradient>
<linearGradient id="paint41_linear" x1="344.935" y1="7146.89" x2="406.638" y2="7143.59" gradientUnits="userSpaceOnUse">
<stop offset="0.04" stop-color="#9F19AB"/>
<stop offset="0.24" stop-color="#AE25B1"/>
<stop offset="0.65" stop-color="#D744BF"/>
<stop offset="1" stop-color="#FF63CE"/>
</linearGradient>
<linearGradient id="paint42_linear" x1="1134.02" y1="3022.64" x2="1110.06" y2="3100.66" gradientUnits="userSpaceOnUse">
<stop offset="0.04" stop-color="#9F19AB"/>
<stop offset="0.24" stop-color="#AE25B1"/>
<stop offset="0.65" stop-color="#D744BF"/>
<stop offset="1" stop-color="#FF63CE"/>
</linearGradient>
<radialGradient id="paint43_radial" cx="0" cy="0" r="1" gradientUnits="userSpaceOnUse" gradientTransform="translate(1203.24 5624.36) scale(263.614 265.047)">
<stop stop-color="white"/>
<stop offset="1"/>
</radialGradient>
<linearGradient id="paint44_linear" x1="3109.87" y1="11462.1" x2="4075.55" y2="9847.25" gradientUnits="userSpaceOnUse">
<stop offset="0.04" stop-color="#6B24D6"/>
<stop offset="0.29" stop-color="#7733DC"/>
<stop offset="0.79" stop-color="#975CED"/>
<stop offset="1" stop-color="#A56EF4"/>
</linearGradient>
<radialGradient id="paint45_radial" cx="0" cy="0" r="1" gradientUnits="userSpaceOnUse" gradientTransform="translate(3892.62 10170.6) scale(657.55 627.241)">
<stop stop-color="white"/>
<stop offset="1"/>
</radialGradient>
<linearGradient id="paint46_linear" x1="1974.94" y1="4035.53" x2="2791.56" y2="3671.09" gradientUnits="userSpaceOnUse">
<stop offset="0.04" stop-color="#6B24D6"/>
<stop offset="0.29" stop-color="#7733DC"/>
<stop offset="0.79" stop-color="#975CED"/>
<stop offset="1" stop-color="#A56EF4"/>
</linearGradient>
<linearGradient id="paint47_linear" x1="1083.06" y1="4040.78" x2="2154.82" y2="3684.71" gradientUnits="userSpaceOnUse">
<stop offset="0.04" stop-color="#6B24D6"/>
<stop offset="0.29" stop-color="#7733DC"/>
<stop offset="0.79" stop-color="#975CED"/>
<stop offset="1" stop-color="#A56EF4"/>
</linearGradient>
<linearGradient id="paint48_linear" x1="1974.94" y1="4018.78" x2="2791.65" y2="3654.54" gradientUnits="userSpaceOnUse">
<stop offset="0.04" stop-color="#9F19AB"/>
<stop offset="0.24" stop-color="#AE25B1"/>
<stop offset="0.65" stop-color="#D744BF"/>
<stop offset="1" stop-color="#FF63CE"/>
</linearGradient>
<linearGradient id="paint49_linear" x1="1083.06" y1="4026.83" x2="2154.96" y2="3670.95" gradientUnits="userSpaceOnUse">
<stop offset="0.04" stop-color="#9F19AB"/>
<stop offset="0.24" stop-color="#AE25B1"/>
<stop offset="0.65" stop-color="#D744BF"/>
<stop offset="1" stop-color="#FF63CE"/>
</linearGradient>
<linearGradient id="paint50_linear" x1="4488.93" y1="5599.46" x2="4117.56" y2="6815.99" gradientUnits="userSpaceOnUse">
<stop offset="0.04" stop-color="#9F19AB"/>
<stop offset="0.24" stop-color="#AE25B1"/>
<stop offset="0.65" stop-color="#D744BF"/>
<stop offset="1" stop-color="#FF63CE"/>
</linearGradient>
<radialGradient id="paint51_radial" cx="0" cy="0" r="1" gradientUnits="userSpaceOnUse" gradientTransform="translate(2163.64 3373.67) scale(285.869 157.78)">
<stop stop-color="white"/>
<stop offset="1"/>
</radialGradient>
<linearGradient id="paint52_linear" x1="500.267" y1="7607.85" x2="561.293" y2="7604.62" gradientUnits="userSpaceOnUse">
<stop offset="0.04" stop-color="#9F19AB"/>
<stop offset="0.24" stop-color="#AE25B1"/>
<stop offset="0.65" stop-color="#D744BF"/>
<stop offset="1" stop-color="#FF63CE"/>
</linearGradient>
<linearGradient id="paint53_linear" x1="1746.56" y1="3242.22" x2="1722.66" y2="3320.13" gradientUnits="userSpaceOnUse">
<stop offset="0.04" stop-color="#9F19AB"/>
<stop offset="0.24" stop-color="#AE25B1"/>
<stop offset="0.65" stop-color="#D744BF"/>
<stop offset="1" stop-color="#FF63CE"/>
</linearGradient>
<radialGradient id="paint54_radial" cx="0" cy="0" r="1" gradientUnits="userSpaceOnUse" gradientTransform="translate(1848.49 6005.22) scale(263.716 264.945)">
<stop stop-color="white"/>
<stop offset="1"/>
</radialGradient>
<linearGradient id="paint55_linear" x1="4134.99" y1="12034.8" x2="5100.09" y2="10421.9" gradientUnits="userSpaceOnUse">
<stop offset="0.04" stop-color="#6B24D6"/>
<stop offset="0.29" stop-color="#7733DC"/>
<stop offset="0.79" stop-color="#975CED"/>
<stop offset="1" stop-color="#A56EF4"/>
</linearGradient>
<radialGradient id="paint56_radial" cx="0" cy="0" r="1" gradientUnits="userSpaceOnUse" gradientTransform="translate(4879.64 10730.3) scale(657.39 627.559)">
<stop stop-color="white"/>
<stop offset="1"/>
</radialGradient>
<linearGradient id="paint57_linear" x1="2540.23" y1="4262.97" x2="3356.85" y2="3898.53" gradientUnits="userSpaceOnUse">
<stop offset="0.04" stop-color="#6B24D6"/>
<stop offset="0.29" stop-color="#7733DC"/>
<stop offset="0.79" stop-color="#975CED"/>
<stop offset="1" stop-color="#A56EF4"/>
</linearGradient>
<linearGradient id="paint58_linear" x1="1637.59" y1="4267.8" x2="2709.68" y2="3911.92" gradientUnits="userSpaceOnUse">
<stop offset="0.04" stop-color="#6B24D6"/>
<stop offset="0.29" stop-color="#7733DC"/>
<stop offset="0.79" stop-color="#975CED"/>
<stop offset="1" stop-color="#A56EF4"/>
</linearGradient>
<linearGradient id="paint59_linear" x1="2540.23" y1="4243.62" x2="3356.67" y2="3879.02" gradientUnits="userSpaceOnUse">
<stop offset="0.04" stop-color="#9F19AB"/>
<stop offset="0.24" stop-color="#AE25B1"/>
<stop offset="0.65" stop-color="#D744BF"/>
<stop offset="1" stop-color="#FF63CE"/>
</linearGradient>
<linearGradient id="paint60_linear" x1="1637.59" y1="4248.63" x2="2709.62" y2="3892.79" gradientUnits="userSpaceOnUse">
<stop offset="0.04" stop-color="#9F19AB"/>
<stop offset="0.24" stop-color="#AE25B1"/>
<stop offset="0.65" stop-color="#D744BF"/>
<stop offset="1" stop-color="#FF63CE"/>
</linearGradient>
<linearGradient id="paint61_linear" x1="5585.48" y1="5980.07" x2="5213.92" y2="7196.72" gradientUnits="userSpaceOnUse">
<stop offset="0.04" stop-color="#9F19AB"/>
<stop offset="0.24" stop-color="#AE25B1"/>
<stop offset="0.65" stop-color="#D744BF"/>
<stop offset="1" stop-color="#FF63CE"/>
</linearGradient>
<radialGradient id="paint62_radial" cx="0" cy="0" r="1" gradientUnits="userSpaceOnUse" gradientTransform="translate(2733.51 3564.24) scale(285.992 157.78)">
<stop stop-color="white"/>
<stop offset="1"/>
</radialGradient>
<linearGradient id="paint63_linear" x1="658.24" y1="8057.77" x2="719.7" y2="8054.49" gradientUnits="userSpaceOnUse">
<stop offset="0.04" stop-color="#9F19AB"/>
<stop offset="0.24" stop-color="#AE25B1"/>
<stop offset="0.65" stop-color="#D744BF"/>
<stop offset="1" stop-color="#FF63CE"/>
</linearGradient>
<linearGradient id="paint64_linear" x1="2340.6" y1="3449.95" x2="2316.64" y2="3527.97" gradientUnits="userSpaceOnUse">
<stop offset="0.04" stop-color="#9F19AB"/>
<stop offset="0.24" stop-color="#AE25B1"/>
<stop offset="0.65" stop-color="#D744BF"/>
<stop offset="1" stop-color="#FF63CE"/>
</linearGradient>
<radialGradient id="paint65_radial" cx="0" cy="0" r="1" gradientUnits="userSpaceOnUse" gradientTransform="translate(2475.05 6377.33) scale(263.716 265.047)">
<stop stop-color="white"/>
<stop offset="1"/>
</radialGradient>
<linearGradient id="paint66_linear" x1="581.684" y1="11684.8" x2="1546.12" y2="10070.7" gradientUnits="userSpaceOnUse">
<stop offset="0.04" stop-color="#6B24D6"/>
<stop offset="0.29" stop-color="#7733DC"/>
<stop offset="0.79" stop-color="#975CED"/>
<stop offset="1" stop-color="#A56EF4"/>
</linearGradient>
<radialGradient id="paint67_radial" cx="0" cy="0" r="1" gradientUnits="userSpaceOnUse" gradientTransform="translate(1471.12 10396.1) scale(657.23 627.559)">
<stop stop-color="white"/>
<stop offset="1"/>
</radialGradient>
<linearGradient id="paint68_linear" x1="589.477" y1="4125.94" x2="1406.1" y2="3761.49" gradientUnits="userSpaceOnUse">
<stop offset="0.04" stop-color="#6B24D6"/>
<stop offset="0.29" stop-color="#7733DC"/>
<stop offset="0.79" stop-color="#975CED"/>
<stop offset="1" stop-color="#A56EF4"/>
</linearGradient>
<linearGradient id="paint69_linear" x1="-276.016" y1="4129.98" x2="795.931" y2="3773.91" gradientUnits="userSpaceOnUse">
<stop offset="0.04" stop-color="#6B24D6"/>
<stop offset="0.29" stop-color="#7733DC"/>
<stop offset="0.79" stop-color="#975CED"/>
<stop offset="1" stop-color="#A56EF4"/>
</linearGradient>
<linearGradient id="paint70_linear" x1="589.477" y1="4109.3" x2="1406.1" y2="3744.85" gradientUnits="userSpaceOnUse">
<stop offset="0.04" stop-color="#9F19AB"/>
<stop offset="0.24" stop-color="#AE25B1"/>
<stop offset="0.65" stop-color="#D744BF"/>
<stop offset="1" stop-color="#FF63CE"/>
</linearGradient>
<linearGradient id="paint71_linear" x1="-276.016" y1="4116.08" x2="796.07" y2="3760.19" gradientUnits="userSpaceOnUse">
<stop offset="0.04" stop-color="#9F19AB"/>
<stop offset="0.24" stop-color="#AE25B1"/>
<stop offset="0.65" stop-color="#D744BF"/>
<stop offset="1" stop-color="#FF63CE"/>
</linearGradient>
<linearGradient id="paint72_linear" x1="1802.67" y1="5750.75" x2="1431.11" y2="6967.41" gradientUnits="userSpaceOnUse">
<stop offset="0.04" stop-color="#9F19AB"/>
<stop offset="0.24" stop-color="#AE25B1"/>
<stop offset="0.65" stop-color="#D744BF"/>
<stop offset="1" stop-color="#FF63CE"/>
</linearGradient>
<radialGradient id="paint73_radial" cx="0" cy="0" r="1" gradientUnits="userSpaceOnUse" gradientTransform="translate(770.651 3449.52) scale(285.992 157.78)">
<stop stop-color="white"/>
<stop offset="1"/>
</radialGradient>
<linearGradient id="paint74_linear" x1="123.723" y1="7790.73" x2="185.209" y2="7787.45" gradientUnits="userSpaceOnUse">
<stop offset="0.04" stop-color="#9F19AB"/>
<stop offset="0.24" stop-color="#AE25B1"/>
<stop offset="0.65" stop-color="#D744BF"/>
<stop offset="1" stop-color="#FF63CE"/>
</linearGradient>
<linearGradient id="paint75_linear" x1="-454.015" y1="10768.8" x2="1101.3" y2="10557.2" gradientUnits="userSpaceOnUse">
<stop offset="0.04" stop-color="#9F19AB"/>
<stop offset="0.24" stop-color="#AE25B1"/>
<stop offset="0.65" stop-color="#D744BF"/>
<stop offset="1" stop-color="#FF63CE"/>
</linearGradient>
<linearGradient id="paint76_linear" x1="288.918" y1="3325.73" x2="265.024" y2="3403.73" gradientUnits="userSpaceOnUse">
<stop offset="0.04" stop-color="#9F19AB"/>
<stop offset="0.24" stop-color="#AE25B1"/>
<stop offset="0.65" stop-color="#D744BF"/>
<stop offset="1" stop-color="#FF63CE"/>
</linearGradient>
<radialGradient id="paint77_radial" cx="0" cy="0" r="1" gradientUnits="userSpaceOnUse" gradientTransform="translate(313.563 6152.18) scale(263.716 264.945)">
<stop stop-color="white"/>
<stop offset="1"/>
</radialGradient>
<linearGradient id="paint78_linear" x1="1642.33" y1="12283.2" x2="2606.73" y2="10670" gradientUnits="userSpaceOnUse">
<stop offset="0.04" stop-color="#6B24D6"/>
<stop offset="0.29" stop-color="#7733DC"/>
<stop offset="0.79" stop-color="#975CED"/>
<stop offset="1" stop-color="#A56EF4"/>
</linearGradient>
<radialGradient id="paint79_radial" cx="0" cy="0" r="1" gradientUnits="userSpaceOnUse" gradientTransform="translate(2487.57 10973) scale(657.229 627.718)">
<stop stop-color="white"/>
<stop offset="1"/>
</radialGradient>
<linearGradient id="paint80_linear" x1="1171.89" y1="4361.49" x2="1988.75" y2="3996.78" gradientUnits="userSpaceOnUse">
<stop offset="0.04" stop-color="#6B24D6"/>
<stop offset="0.29" stop-color="#7733DC"/>
<stop offset="0.79" stop-color="#975CED"/>
<stop offset="1" stop-color="#A56EF4"/>
</linearGradient>
<linearGradient id="paint81_linear" x1="294.721" y1="4365.06" x2="1366.24" y2="4009.47" gradientUnits="userSpaceOnUse">
<stop offset="0.04" stop-color="#6B24D6"/>
<stop offset="0.29" stop-color="#7733DC"/>
<stop offset="0.79" stop-color="#975CED"/>
<stop offset="1" stop-color="#A56EF4"/>
</linearGradient>
<linearGradient id="paint82_linear" x1="1171.89" y1="4344.72" x2="1988.75" y2="3980.01" gradientUnits="userSpaceOnUse">
<stop offset="0.04" stop-color="#9F19AB"/>
<stop offset="0.24" stop-color="#AE25B1"/>
<stop offset="0.65" stop-color="#D744BF"/>
<stop offset="1" stop-color="#FF63CE"/>
</linearGradient>
<linearGradient id="paint83_linear" x1="294.721" y1="4345.86" x2="1366.1" y2="3990.08" gradientUnits="userSpaceOnUse">
<stop offset="0.04" stop-color="#9F19AB"/>
<stop offset="0.24" stop-color="#AE25B1"/>
<stop offset="0.65" stop-color="#D744BF"/>
<stop offset="1" stop-color="#FF63CE"/>
</linearGradient>
<linearGradient id="paint84_linear" x1="2931.13" y1="6144.73" x2="2559.59" y2="7361.57" gradientUnits="userSpaceOnUse">
<stop offset="0.04" stop-color="#9F19AB"/>
<stop offset="0.24" stop-color="#AE25B1"/>
<stop offset="0.65" stop-color="#D744BF"/>
<stop offset="1" stop-color="#FF63CE"/>
</linearGradient>
<radialGradient id="paint85_radial" cx="0" cy="0" r="1" gradientUnits="userSpaceOnUse" gradientTransform="translate(1356.2 3649.44) scale(285.992 157.903)">
<stop stop-color="white"/>
<stop offset="1"/>
</radialGradient>
<linearGradient id="paint86_linear" x1="283.178" y1="8261.79" x2="344.664" y2="8258.51" gradientUnits="userSpaceOnUse">
<stop offset="0.04" stop-color="#9F19AB"/>
<stop offset="0.24" stop-color="#AE25B1"/>
<stop offset="0.65" stop-color="#D744BF"/>
<stop offset="1" stop-color="#FF63CE"/>
</linearGradient>
<linearGradient id="paint87_linear" x1="211.981" y1="11407.8" x2="1767.36" y2="11196" gradientUnits="userSpaceOnUse">
<stop offset="0.04" stop-color="#9F19AB"/>
<stop offset="0.24" stop-color="#AE25B1"/>
<stop offset="0.65" stop-color="#D744BF"/>
<stop offset="1" stop-color="#FF63CE"/>
</linearGradient>
<linearGradient id="paint88_linear" x1="900.96" y1="3540.9" x2="876.999" y2="3618.92" gradientUnits="userSpaceOnUse">
<stop offset="0.04" stop-color="#9F19AB"/>
<stop offset="0.24" stop-color="#AE25B1"/>
<stop offset="0.65" stop-color="#D744BF"/>
<stop offset="1" stop-color="#FF63CE"/>
</linearGradient>
<radialGradient id="paint89_radial" cx="0" cy="0" r="1" gradientUnits="userSpaceOnUse" gradientTransform="translate(957.796 6537.35) scale(263.41 264.841)">
<stop stop-color="white"/>
<stop offset="1"/>
</radialGradient>
<linearGradient id="paint90_linear" x1="124.123" y1="15.2729" x2="201.017" y2="148.458" gradientUnits="userSpaceOnUse">
<stop offset="0.06" stop-color="#200041"/>
<stop offset="0.26" stop-color="#210243"/>
<stop offset="0.36" stop-color="#25084B"/>
<stop offset="0.43" stop-color="#2C1358"/>
<stop offset="0.47" stop-color="#311B61"/>
<stop offset="0.48" stop-color="#351F65"/>
<stop offset="0.5" stop-color="#422C73"/>
<stop offset="0.51" stop-color="#584188"/>
<stop offset="0.52" stop-color="#765FA7"/>
<stop offset="0.53" stop-color="#8770B8"/>
<stop offset="0.54" stop-color="#7E67AE"/>
<stop offset="0.56" stop-color="#5C468D"/>
<stop offset="0.59" stop-color="#442E75"/>
<stop offset="0.61" stop-color="#362066"/>
<stop offset="0.63" stop-color="#311B61"/>
<stop offset="0.67" stop-color="#2A1155"/>
<stop offset="0.75" stop-color="#230446"/>
<stop offset="0.81" stop-color="#200041"/>
<stop offset="1" stop-color="#200041"/>
</linearGradient>
<radialGradient id="paint91_radial" cx="0" cy="0" r="1" gradientUnits="userSpaceOnUse" gradientTransform="translate(243.614 69.3866) scale(144.298)">
<stop stop-color="#711F56"/>
<stop offset="0.16" stop-color="#6C1E52"/>
<stop offset="0.36" stop-color="#5C1946"/>
<stop offset="0.58" stop-color="#431233"/>
<stop offset="0.82" stop-color="#200918"/>
<stop offset="1"/>
</radialGradient>
<radialGradient id="paint92_radial" cx="0" cy="0" r="1" gradientUnits="userSpaceOnUse" gradientTransform="translate(23066.1 16843.3) scale(8899.08 24225.3)">
<stop stop-color="#AF8AFC"/>
<stop offset="1" stop-color="#10054D"/>
</radialGradient>
<linearGradient id="paint93_linear" x1="23783.1" y1="39362.8" x2="-2877.39" y2="36296.9" gradientUnits="userSpaceOnUse">
<stop offset="0.19" stop-color="#3D065F"/>
<stop offset="0.93" stop-color="#3D065F"/>
</linearGradient>
<linearGradient id="paint94_linear" x1="23157.8" y1="64039.1" x2="-18408.1" y2="32449.1" gradientUnits="userSpaceOnUse">
<stop stop-color="#311B61"/>
<stop offset="0.2" stop-color="#290F52"/>
<stop offset="0.49" stop-color="#200041"/>
<stop offset="1" stop-color="#0F001F"/>
</linearGradient>
<linearGradient id="paint95_linear" x1="13527.9" y1="33499.9" x2="20619.2" y2="33499.9" gradientUnits="userSpaceOnUse">
<stop stop-color="#311B61"/>
<stop offset="0.2" stop-color="#290F52"/>
<stop offset="0.49" stop-color="#200041"/>
<stop offset="1" stop-color="#0F001F"/>
</linearGradient>
<linearGradient id="paint96_linear" x1="133.446" y1="35.7952" x2="247.488" y2="253.24" gradientUnits="userSpaceOnUse">
<stop offset="0.01" stop-color="#9F19AB"/>
<stop offset="0.43" stop-color="#5F27BD"/>
<stop offset="0.9" stop-color="#3D065F"/>
</linearGradient>
<linearGradient id="paint97_linear" x1="-135943" y1="77260.4" x2="-135912" y2="77314.3" gradientUnits="userSpaceOnUse">
<stop stop-color="#311B61"/>
<stop offset="0.2" stop-color="#290F52"/>
<stop offset="0.49" stop-color="#200041"/>
<stop offset="1" stop-color="#0F001F"/>
</linearGradient>
<linearGradient id="paint98_linear" x1="227.717" y1="99.0257" x2="218.474" y2="98.6218" gradientUnits="userSpaceOnUse">
<stop stop-color="#3D065F"/>
<stop offset="1" stop-color="#5F27BD"/>
</linearGradient>
<radialGradient id="paint99_radial" cx="0" cy="0" r="1" gradientUnits="userSpaceOnUse" gradientTransform="translate(968.593 1907.33) scale(18.2023 103.781)">
<stop stop-color="#711F56"/>
<stop offset="0.16" stop-color="#6C1E52"/>
<stop offset="0.36" stop-color="#5C1946"/>
<stop offset="0.58" stop-color="#431233"/>
<stop offset="0.82" stop-color="#200918"/>
<stop offset="1"/>
</radialGradient>
<linearGradient id="paint100_linear" x1="180.125" y1="204.655" x2="197.629" y2="184.235" gradientUnits="userSpaceOnUse">
<stop stop-color="#FDD65B"/>
<stop offset="0.01" stop-color="#F7D159"/>
<stop offset="0.13" stop-color="#BEA144"/>
<stop offset="0.25" stop-color="#8B7632"/>
<stop offset="0.37" stop-color="#605223"/>
<stop offset="0.49" stop-color="#3E3416"/>
<stop offset="0.62" stop-color="#231D0C"/>
<stop offset="0.74" stop-color="#0F0D05"/>
<stop offset="0.87" stop-color="#040301"/>
<stop offset="1"/>
</linearGradient>
<linearGradient id="paint101_linear" x1="205.706" y1="212.893" x2="229.365" y2="205.811" gradientUnits="userSpaceOnUse">
<stop offset="0.04" stop-color="#FFA98C"/>
<stop offset="0.32" stop-color="#FFB892"/>
<stop offset="0.86" stop-color="#FEE1A3"/>
<stop offset="1" stop-color="#FEECA8"/>
</linearGradient>
<linearGradient id="paint102_linear" x1="6927.39" y1="13471.3" x2="16301.1" y2="11327.1" gradientUnits="userSpaceOnUse">
<stop offset="0.04" stop-color="#FFA98C"/>
<stop offset="0.32" stop-color="#FFB892"/>
<stop offset="0.86" stop-color="#FEE1A3"/>
<stop offset="1" stop-color="#FEECA8"/>
</linearGradient>
<linearGradient id="paint103_linear" x1="13757.5" y1="7228" x2="13499.7" y2="8076.52" gradientUnits="userSpaceOnUse">
<stop offset="0.04" stop-color="#FFA98C"/>
<stop offset="0.32" stop-color="#FFB892"/>
<stop offset="0.86" stop-color="#FEE1A3"/>
<stop offset="1" stop-color="#FEECA8"/>
</linearGradient>
<linearGradient id="paint104_linear" x1="156.862" y1="154.2" x2="181.471" y2="125.488" gradientUnits="userSpaceOnUse">
<stop stop-color="#43E8E1"/>
<stop offset="0.09" stop-color="#36BDB7"/>
<stop offset="0.22" stop-color="#288B87"/>
<stop offset="0.34" stop-color="#1C605D"/>
<stop offset="0.47" stop-color="#123E3C"/>
<stop offset="0.6" stop-color="#0A2321"/>
<stop offset="0.73" stop-color="#040F0F"/>
<stop offset="0.86" stop-color="#010404"/>
<stop offset="1"/>
</linearGradient>
<linearGradient id="paint105_linear" x1="185.246" y1="163.554" x2="213.246" y2="155.167" gradientUnits="userSpaceOnUse">
<stop offset="0.04" stop-color="#138BBD"/>
<stop offset="0.23" stop-color="#169AC7"/>
<stop offset="0.59" stop-color="#1FC3DF"/>
<stop offset="1" stop-color="#2AF6FF"/>
</linearGradient>
<linearGradient id="paint106_linear" x1="5239.04" y1="13204.2" x2="18482.9" y2="10411.3" gradientUnits="userSpaceOnUse">
<stop offset="0.04" stop-color="#138BBD"/>
<stop offset="0.23" stop-color="#169AC7"/>
<stop offset="0.59" stop-color="#1FC3DF"/>
<stop offset="1" stop-color="#2AF6FF"/>
</linearGradient>
<linearGradient id="paint107_linear" x1="13886.1" y1="5563.19" x2="13570.8" y2="6598.31" gradientUnits="userSpaceOnUse">
<stop offset="0.04" stop-color="#138BBD"/>
<stop offset="0.23" stop-color="#169AC7"/>
<stop offset="0.59" stop-color="#1FC3DF"/>
<stop offset="1" stop-color="#2AF6FF"/>
</linearGradient>
<linearGradient id="paint108_linear" x1="197.739" y1="124.538" x2="220.859" y2="108.926" gradientUnits="userSpaceOnUse">
<stop stop-color="#C211A1"/>
<stop offset="0.01" stop-color="#BD119D"/>
<stop offset="0.15" stop-color="#8B0C73"/>
<stop offset="0.29" stop-color="#600850"/>
<stop offset="0.42" stop-color="#3E0533"/>
<stop offset="0.56" stop-color="#23031D"/>
<stop offset="0.7" stop-color="#0F010D"/>
<stop offset="0.85" stop-color="#040003"/>
<stop offset="1"/>
</linearGradient>
<linearGradient id="paint109_linear" x1="2068.9" y1="3579.52" x2="2303.46" y2="3556.09" gradientUnits="userSpaceOnUse">
<stop offset="0.04" stop-color="#9F19AB"/>
<stop offset="0.24" stop-color="#AE25B1"/>
<stop offset="0.65" stop-color="#D744BF"/>
<stop offset="1" stop-color="#FF63CE"/>
</linearGradient>
<linearGradient id="paint110_linear" x1="3566.72" y1="4477.02" x2="4698.69" y2="4325.74" gradientUnits="userSpaceOnUse">
<stop offset="0.04" stop-color="#9F19AB"/>
<stop offset="0.24" stop-color="#AE25B1"/>
<stop offset="0.65" stop-color="#D744BF"/>
<stop offset="1" stop-color="#FF63CE"/>
</linearGradient>
<linearGradient id="paint111_linear" x1="6210" y1="1782.74" x2="6109.67" y2="2108.08" gradientUnits="userSpaceOnUse">
<stop offset="0.04" stop-color="#9F19AB"/>
<stop offset="0.24" stop-color="#AE25B1"/>
<stop offset="0.65" stop-color="#D744BF"/>
<stop offset="1" stop-color="#FF63CE"/>
</linearGradient>
<linearGradient id="paint112_linear" x1="2068.9" y1="2927.9" x2="2303.42" y2="2904.51" gradientUnits="userSpaceOnUse">
<stop offset="0.04" stop-color="#9F19AB"/>
<stop offset="0.24" stop-color="#AE25B1"/>
<stop offset="0.65" stop-color="#D744BF"/>
<stop offset="1" stop-color="#FF63CE"/>
</linearGradient>
<linearGradient id="paint113_linear" x1="3566.72" y1="3679.58" x2="4698.66" y2="3528.44" gradientUnits="userSpaceOnUse">
<stop offset="0.04" stop-color="#9F19AB"/>
<stop offset="0.24" stop-color="#AE25B1"/>
<stop offset="0.65" stop-color="#D744BF"/>
<stop offset="1" stop-color="#FF63CE"/>
</linearGradient>
<linearGradient id="paint114_linear" x1="6210" y1="1365.07" x2="6109.67" y2="1690.42" gradientUnits="userSpaceOnUse">
<stop offset="0.04" stop-color="#9F19AB"/>
<stop offset="0.24" stop-color="#AE25B1"/>
<stop offset="0.65" stop-color="#D744BF"/>
<stop offset="1" stop-color="#FF63CE"/>
</linearGradient>
<linearGradient id="paint115_linear" x1="2068.9" y1="2258.8" x2="2303.46" y2="2235.37" gradientUnits="userSpaceOnUse">
<stop offset="0.04" stop-color="#9F19AB"/>
<stop offset="0.24" stop-color="#AE25B1"/>
<stop offset="0.65" stop-color="#D744BF"/>
<stop offset="1" stop-color="#FF63CE"/>
</linearGradient>
<linearGradient id="paint116_linear" x1="3566.72" y1="2861.15" x2="4698.69" y2="2709.86" gradientUnits="userSpaceOnUse">
<stop offset="0.04" stop-color="#9F19AB"/>
<stop offset="0.24" stop-color="#AE25B1"/>
<stop offset="0.65" stop-color="#D744BF"/>
<stop offset="1" stop-color="#FF63CE"/>
</linearGradient>
<linearGradient id="paint117_linear" x1="6210" y1="937.552" x2="6109.67" y2="1262.9" gradientUnits="userSpaceOnUse">
<stop offset="0.04" stop-color="#9F19AB"/>
<stop offset="0.24" stop-color="#AE25B1"/>
<stop offset="0.65" stop-color="#D744BF"/>
<stop offset="1" stop-color="#FF63CE"/>
</linearGradient>
<clipPath id="clip0">
<rect width="238" height="290" fill="white"/>
</clipPath>
</defs>
</svg>
