<svg width="201" height="291" viewBox="0 0 201 291" fill="none" xmlns="http://www.w3.org/2000/svg">
<g clip-path="url(#clip0)">
<path d="M34.6663 136.068C42.6659 122.384 42.7463 107.547 34.846 102.928C26.9457 98.31 14.0563 105.659 6.05676 119.343C-1.94281 133.027 -2.02327 147.865 5.87704 152.483C13.7774 157.101 26.6667 149.752 34.6663 136.068Z" fill="url(#paint0_linear)"/>
<path style="mix-blend-mode:color-dodge" d="M0.553643 139.899C0.553643 127.047 9.66897 111.278 20.9198 104.782C26.8517 101.381 32.1212 101.194 35.8385 103.645C32.1014 100.788 26.5551 100.808 20.3563 104.387C9.11533 110.833 0 126.552 0 139.454C0 145.594 2.06627 149.983 5.43756 152.208C2.40241 149.875 0.553643 145.643 0.553643 139.899Z" fill="url(#paint1_radial)"/>
<path d="M10.9349 143.686C12.4082 142.421 13.7169 140.976 14.8302 139.385C18.063 141.234 23.3029 138.209 26.5358 132.633C27.8243 132.927 29.1691 132.859 30.4211 132.435C30.8402 132.263 31.2921 132.186 31.7446 132.209C32.197 132.231 32.6388 132.354 33.0384 132.567C33.438 132.781 33.7854 133.08 34.0559 133.443C34.3264 133.807 34.5133 134.226 34.6031 134.67C31.0934 141.096 26.0612 146.781 20.4457 150.023C15.0378 153.147 10.1638 153.385 6.67383 151.279C7.19744 148.34 8.69905 145.664 10.9349 143.686Z" fill="url(#paint2_radial)"/>
<path d="M26.5255 132.633L28.0678 135.708L20.6035 138.802L26.5255 132.633Z" fill="url(#paint3_linear)"/>
<path d="M14.7905 139.405L13.2383 144.269L20.7026 138.743L14.7905 139.405Z" fill="url(#paint4_linear)"/>
<path d="M14.7018 139.573C15.0775 139.039 15.4334 138.496 15.7695 137.942C16.6099 136.538 16.6494 134.976 15.8289 134.492C14.6794 133.82 13.7673 132.808 13.2188 131.595C12.3291 131.842 11.6765 131.249 11.5381 130.122C11.4099 129.565 11.4341 128.983 11.608 128.439C11.782 127.894 12.0994 127.407 12.5268 127.027C12.7443 121.708 14.5634 116.251 20.6732 112.722C26.7831 109.192 28.5824 112.563 28.8098 117.665C29.5513 117.497 30.0258 118.11 29.7985 119.642C29.6393 120.939 29.0471 122.144 28.1178 123.063C27.469 125.13 26.5937 127.12 25.5077 128.995C24.697 130.399 24.6674 131.891 25.5077 132.336C25.8707 132.528 26.2559 132.674 26.6546 132.771C23.3624 138.436 18.0434 141.511 14.7908 139.642L14.7018 139.573Z" fill="url(#paint5_radial)"/>
<path d="M28.7894 117.625C28.0196 118.261 27.4953 119.146 27.3064 120.126C27.2753 120.8 27.0013 121.439 26.5353 121.926C23.4606 126.039 18.7843 119.454 17.0442 120.047C15.3042 120.641 14.0783 120.917 14.0783 122.45C14.0783 123.982 13.9201 127.126 13.9201 127.126C13.6998 127.004 13.4555 126.932 13.2044 126.915C12.9533 126.898 12.7015 126.936 12.4668 127.027V121.837C12.4668 118.96 13.5148 113.819 20.8011 109.607C27.9095 105.534 28.7894 110.378 28.7894 117.625Z" fill="url(#paint6_linear)"/>
<path style="mix-blend-mode:multiply" d="M61.11 129.457C69.6552 114.839 69.7423 98.9908 61.3046 94.0582C52.8669 89.1257 39.0996 96.9768 30.5544 111.594C22.0093 126.212 21.9221 142.06 30.3598 146.993C38.7975 151.925 52.5648 144.074 61.11 129.457Z" fill="url(#paint7_radial)"/>
<path d="M193.323 58.2873C201.248 44.6556 201.293 29.8956 193.423 25.32C185.553 20.7444 172.748 28.0858 164.823 41.7175C156.897 55.3492 156.853 70.1092 164.723 74.6848C172.593 79.2604 185.397 71.919 193.323 58.2873Z" fill="url(#paint8_linear)"/>
<path style="mix-blend-mode:color-dodge" d="M160.28 61.7962C160.28 48.8943 169.396 33.1748 180.637 26.6794C186.568 23.2785 191.838 23.0906 195.555 25.5425C191.818 22.6853 186.272 22.705 180.083 26.2839C168.832 32.7794 159.717 48.4989 159.717 61.4007C159.717 67.5402 161.783 71.9298 165.164 74.1543C162.139 71.8211 160.28 67.5798 160.28 61.7962Z" fill="url(#paint9_radial)"/>
<path style="mix-blend-mode:multiply" d="M169.417 73.6295C177.962 59.012 178.049 43.1636 169.611 38.2311C161.174 33.2985 147.406 41.1497 138.861 55.7671C130.316 70.3846 130.229 86.233 138.666 91.1656C147.104 96.0981 160.871 88.247 169.417 73.6295Z" fill="url(#paint10_radial)"/>
<path d="M190.435 53.511C189.178 53.9297 187.832 53.998 186.539 53.7087C183.306 59.2847 178.076 62.31 174.844 60.4612C173.727 62.0495 172.419 63.494 170.948 64.7618C169.662 65.8792 168.61 67.2413 167.855 68.7689C167.1 70.2964 166.656 71.9589 166.549 73.6596V74.8658C170.148 76.4575 174.883 75.9632 180.083 72.9577C185.887 69.6062 191.107 63.7929 194.814 57.1393C194.765 54.2228 192.906 52.7596 190.435 53.511Z" fill="url(#paint11_linear)"/>
<path d="M190.435 53.511C189.191 53.9228 187.86 53.9945 186.579 53.7186L180.696 71.2177L174.764 60.5205C173.671 62.0855 172.39 63.51 170.948 64.7618C169.662 65.8792 168.61 67.2413 167.855 68.7689C167.1 70.2964 166.656 71.9589 166.549 73.6596V74.8658C170.148 76.4575 174.883 75.9632 180.083 72.9577C185.887 69.6062 191.107 63.7929 194.814 57.1393C194.765 54.2228 192.906 52.7596 190.435 53.511Z" fill="url(#paint12_linear)"/>
<path d="M174.843 60.4612C175.209 59.9471 175.565 59.4132 175.891 58.8596C176.712 57.4854 176.752 55.8936 175.951 55.4784C174.821 54.812 173.924 53.8146 173.38 52.6212C172.51 52.8684 171.858 52.2851 171.729 51.1679C171.607 50.6183 171.635 50.0461 171.808 49.5106C171.982 48.9752 172.296 48.496 172.718 48.1229C172.925 42.9028 174.695 37.5345 180.716 34.0643C186.737 30.5942 188.516 33.9061 188.724 38.879C189.446 38.7208 189.91 39.3239 189.713 40.8563C189.553 42.1267 188.971 43.3068 188.062 44.2078C187.425 46.2355 186.562 48.1854 185.491 50.0211C184.7 51.4052 184.661 52.8783 185.491 53.3034C185.844 53.4948 186.219 53.641 186.608 53.7384C183.375 59.3144 178.146 62.3396 174.913 60.4909L174.843 60.4612Z" fill="url(#paint13_linear)"/>
<path d="M188.695 38.879C187.937 39.5098 187.42 40.3828 187.232 41.3506C187.232 41.3506 187.232 39.7589 187.232 38.6022C187.232 37.4455 186.886 33.2437 183.396 36.6249C179.906 40.0061 178.907 42.2305 177.187 42.8138C175.467 43.3971 174.31 43.6641 174.31 45.1668C174.31 46.6696 174.162 48.2712 174.162 48.2712C173.946 48.1516 173.708 48.0799 173.462 48.0611C173.216 48.0424 172.969 48.0769 172.738 48.1624V43.0116C172.738 40.1741 175.704 33.1251 182.486 31.7014C189.268 30.2778 188.695 31.7608 188.695 38.879Z" fill="url(#paint14_linear)"/>
<path d="M180.686 72.2259L171.551 63.8916L174.803 60.1743L175.199 61.1234L180.686 71.178L186.183 54.7862L186.578 53.3724L189.831 53.3428L180.686 72.2259Z" fill="url(#paint15_linear)"/>
<path d="M188.003 44.1782C188.003 44.1782 185.867 52.7893 180.371 55.9629C174.874 59.1365 173.381 52.6213 173.381 52.6213C174.402 53.3034 175.599 53.6757 176.827 53.6932C178.054 53.7108 179.261 53.3728 180.301 52.7201C184.108 50.5056 188.003 44.1782 188.003 44.1782Z" fill="url(#paint16_linear)"/>
<path d="M185.214 49.4673L183.019 48.2513C182.635 48.0857 182.215 48.0223 181.799 48.0673C181.383 48.1124 180.986 48.2643 180.647 48.5084L180.261 48.7357C179.307 49.3428 178.516 50.1744 177.958 51.1579L175.674 54.8752L179.539 51.3655C180.038 50.8995 180.642 50.5604 181.299 50.3769L185.214 49.4673Z" fill="url(#paint17_linear)"/>
<g opacity="0.2">
<path opacity="0.2" d="M58.7461 281.998L99.3894 258.537L140.023 235.076C143.236 233.218 142.831 229.985 139.123 227.84L133.083 224.874C129.375 222.728 123.769 222.501 120.556 224.35L79.9229 247.81L39.2796 271.291C36.0764 273.149 36.4719 276.382 40.1793 278.528L46.2199 281.493C49.9274 283.619 55.533 283.846 58.7461 281.998Z" fill="black"/>
</g>
<path d="M53.9614 278.013L126.864 235.917C135.08 231.171 141.753 218.437 141.753 207.473V13.3522C141.753 7.77623 146.331 6.54042 143.563 4.53346C143.454 4.45437 137.047 1.48843 136.929 1.48843C133.963 0.341599 130.74 -0.172498 126.864 2.07173L53.9614 44.1585C45.7359 48.9435 39.0625 61.6378 39.0625 72.6019V266.752C39.0625 272.586 40.9508 276.738 43.9464 278.616C44.1244 278.725 51.8556 282.393 52.0336 282.462C54.693 283.372 50.3627 280.089 53.9614 278.013Z" fill="url(#paint18_linear)"/>
<path style="mix-blend-mode:color-dodge" d="M54.6333 44.3758L127.536 2.28906C131.412 0.0448275 58.6571 45.7203 58.6571 45.7203C50.4217 50.4659 43.7681 63.2095 43.7681 74.1736C43.7681 74.1736 39.7344 272.803 39.7344 266.96V72.8291C39.7344 61.865 46.4077 49.1213 54.6333 44.3758Z" fill="url(#paint19_radial)"/>
<path style="mix-blend-mode:screen" opacity="0.6" d="M59.6156 280.604L132.479 238.507C140.704 233.761 147.378 221.028 147.378 210.064V15.913C147.417 4.94888 140.744 -0.0932262 132.479 4.65228L59.6156 46.739C51.4098 51.4944 44.7266 64.2282 44.7266 75.1923V269.343C44.7266 280.287 51.4098 285.349 59.6156 280.604Z" fill="url(#paint20_radial)"/>
<path d="M60.9224 281.276L133.825 239.179C142.041 234.433 148.714 221.7 148.714 210.736V16.6146C148.714 5.64062 142.041 0.60841 133.825 5.35392L60.9224 47.4406C52.6968 52.196 46.0234 64.9298 46.0234 75.8939V270.045C46.0234 281.009 52.6968 286.051 60.9224 281.276Z" fill="#32084F"/>
<path d="M146.676 212.071V17.6629C146.676 8.05319 140.833 3.63394 133.626 7.77637L61.1087 49.6654C53.9015 53.8276 48.0586 64.9894 48.0586 74.5991V268.997C48.0586 278.607 53.9015 283.026 61.1087 278.883L133.626 237.014C140.833 232.832 146.676 221.66 146.676 212.071Z" fill="url(#paint21_linear)"/>
<path d="M143.779 213.237V19.8278C143.779 11.7802 138.836 8.08264 132.855 11.5726L61.8796 52.5421C55.8489 56.0321 50.9551 65.3946 50.9551 73.4224V266.822C50.9551 274.869 55.8983 278.567 61.8796 275.087L132.855 234.107C138.885 230.627 143.779 221.285 143.779 213.237Z" fill="url(#paint22_linear)"/>
<path d="M132.036 13.708C137.721 10.3861 142.367 13.0555 142.367 19.5805V215.165C142.367 221.69 137.76 229.639 132.075 232.96L62.702 272.951C57.0173 276.233 52.4102 273.604 52.4102 267.079V71.4944C52.4102 64.9693 57.0173 57.0206 62.702 53.6988L132.036 13.708Z" fill="url(#paint23_linear)"/>
<path d="M44.0752 120.818V107.709C44.0596 106.856 43.845 106.018 43.4485 105.263C43.052 104.508 42.4846 103.856 41.7915 103.359C40.5359 102.637 39.5176 103.359 39.5176 105.079V118.149C39.529 119.001 39.7407 119.839 40.1357 120.595C40.5307 121.351 41.0979 122.003 41.7915 122.499C43.047 123.26 44.0752 122.489 44.0752 120.818Z" fill="url(#paint24_linear)"/>
<path d="M42.7008 122.321C43.3435 122.321 43.5807 121.51 43.5807 120.818V107.709C43.5739 106.937 43.3861 106.176 43.0324 105.49C42.6787 104.803 42.169 104.209 41.5441 103.754C41.3469 103.634 41.1223 103.566 40.8916 103.557C40.2391 103.557 40.0117 104.357 40.0117 105.05V118.149C40.0213 118.92 40.2092 119.678 40.5609 120.364C40.9125 121.05 41.4182 121.646 42.0384 122.104C42.2385 122.228 42.4657 122.303 42.7008 122.321Z" fill="url(#paint25_linear)"/>
<path style="mix-blend-mode:color-dodge" d="M42.909 121.115V108.045C42.9021 107.272 42.7143 106.512 42.3606 105.825C42.0069 105.139 41.4972 104.544 40.8724 104.09C40.6958 103.982 40.4957 103.917 40.2891 103.902C40.3504 103.796 40.4381 103.707 40.5438 103.645C40.6495 103.583 40.7695 103.549 40.8921 103.546C41.1235 103.56 41.3478 103.632 41.5446 103.754C42.1695 104.208 42.6792 104.803 43.0329 105.489C43.3866 106.176 43.5744 106.936 43.5813 107.709V120.818C43.5813 121.51 43.344 122.321 42.7014 122.321H42.6223C42.8328 121.955 42.9324 121.536 42.909 121.115Z" fill="url(#paint26_radial)"/>
<path d="M72.6271 59.8186C72.6271 59.3738 72.3206 59.1958 71.9351 59.4232L61.8014 65.2661C61.5997 65.3989 61.432 65.5772 61.3117 65.7867C61.1915 65.9962 61.1222 66.2311 61.1094 66.4722C61.1094 66.9171 61.4159 67.0951 61.8014 66.8677L71.9351 61.0248C72.1379 60.8932 72.3065 60.7151 72.4268 60.5053C72.5472 60.2956 72.6158 60.0602 72.6271 59.8186ZM61.1094 70.0808C61.1094 70.5257 61.4159 70.7037 61.8014 70.4763L71.9351 64.6334C72.1368 64.5005 72.3045 64.3222 72.4247 64.1127C72.545 63.9032 72.6143 63.6684 72.6271 63.4272C72.6271 62.9823 72.3206 62.8044 71.9351 63.0318L61.8014 68.8747C61.5997 69.0075 61.432 69.1858 61.3117 69.3953C61.1915 69.6048 61.1222 69.8396 61.1094 70.0808ZM61.1094 73.6894C61.1094 74.1244 61.4159 74.3023 61.8014 74.0848L71.9351 68.2419C72.1363 68.1085 72.3036 67.9301 72.4237 67.7207C72.5439 67.5113 72.6135 67.2768 72.6271 67.0358C72.6271 66.5909 72.3206 66.4129 71.9351 66.6304L61.8014 72.4832C61.6025 72.6119 61.4363 72.7853 61.3162 72.9896C61.196 73.1938 61.1252 73.4233 61.1094 73.6597V73.6894Z" fill="white"/>
<g style="mix-blend-mode:multiply" opacity="0.8">
<path d="M63.3544 233.643L111.61 205.832C114.29 204.29 116.455 205.931 116.455 209.5V218.823C116.455 222.392 114.29 226.544 111.61 228.087L65.1438 254.928C60.6653 257.44 58.4902 255.798 58.4902 252.229V242.896C58.5001 239.327 60.6751 235.185 63.3544 233.643Z" fill="#B086CC"/>
</g>
<path d="M118.541 214.581C118.541 220.325 122.594 222.639 127.597 219.752C132.6 216.865 136.653 209.865 136.653 204.131C136.653 198.397 132.6 196.074 127.597 198.961C122.594 201.848 118.541 208.847 118.541 214.581Z" fill="url(#paint27_linear)"/>
<path d="M69.9883 239.14L109.396 216.47V213.741L69.9883 236.421V239.14Z" fill="url(#paint28_linear)"/>
<path d="M88.2578 234.889L109.395 222.758V220.039L88.2578 232.16V234.889Z" fill="url(#paint29_linear)"/>
<path d="M124.839 212.169C125.394 211.69 125.865 211.122 126.233 210.489C126.47 210.103 126.461 209.688 126.233 209.559C125.921 209.37 125.673 209.091 125.521 208.759C125.274 208.828 124.968 208.759 124.968 208.403C124.97 208.069 125.097 207.748 125.324 207.503C125.306 206.703 125.506 205.913 125.901 205.217C126.296 204.52 126.872 203.944 127.568 203.548C129.258 202.56 129.753 203.548 129.812 204.893C130.02 204.893 130.168 205.051 130.168 205.387C130.111 205.771 129.918 206.122 129.624 206.376C129.445 206.937 129.206 207.477 128.912 207.988C128.685 208.383 128.675 208.808 128.912 208.976C129.131 209.078 129.368 209.136 129.608 209.146C129.849 209.156 130.09 209.119 130.316 209.035C131.018 208.828 131.542 209.253 131.542 210.123V211.636C131.537 211.796 131.493 211.953 131.414 212.092C131.335 212.232 131.223 212.35 131.087 212.436L124.078 216.48C123.821 216.628 123.613 216.48 123.613 216.213V214.7C123.636 214.218 123.756 213.744 123.966 213.309C124.177 212.874 124.474 212.486 124.839 212.169Z" fill="url(#paint30_linear)"/>
<g style="mix-blend-mode:multiply" opacity="0.8">
<path d="M83.7312 189.144L131.987 161.343C134.666 159.791 136.831 161.432 136.831 165.001V174.334C136.831 177.903 134.666 182.045 131.987 183.587L85.5207 210.439C81.0421 212.94 78.877 211.299 78.877 207.73V198.407C78.8868 194.838 81.0718 190.686 83.7312 189.144Z" fill="#B086CC"/>
</g>
<path d="M73.962 212.482C77.5223 206.392 77.5577 199.788 74.0413 197.732C70.5248 195.677 64.7879 198.947 61.2277 205.038C57.6674 211.128 57.6319 217.731 61.1484 219.787C64.6649 221.843 70.4017 218.572 73.962 212.482Z" fill="url(#paint31_linear)"/>
<path d="M126.46 177.685L87.0527 200.365V203.093L126.46 180.414V177.685Z" fill="url(#paint32_linear)"/>
<path d="M108.19 181.946L87.0527 194.077V196.806L108.19 184.675V181.946Z" fill="url(#paint33_linear)"/>
<path d="M64.8371 211.576C65.3951 211.098 65.8695 210.53 66.241 209.896C66.4684 209.51 66.4684 209.095 66.241 208.966C65.9291 208.776 65.6812 208.497 65.5292 208.165C65.282 208.235 64.9755 208.165 64.9755 207.809C64.9775 207.476 65.1045 207.155 65.3315 206.91C65.3142 206.11 65.5137 205.32 65.9088 204.623C66.3039 203.927 66.8798 203.351 67.5757 202.955C69.2663 201.967 69.7606 202.955 69.8199 204.3C70.0275 204.3 70.1758 204.458 70.1758 204.794C70.1147 205.177 69.9225 205.526 69.6321 205.783C69.4524 206.344 69.2138 206.884 68.9202 207.394C68.6929 207.79 68.683 208.215 68.9202 208.383C69.1388 208.485 69.3753 208.543 69.6163 208.553C69.8572 208.563 70.0978 208.525 70.3241 208.442C71.0261 208.235 71.5501 208.66 71.5501 209.53V211.042C71.5433 211.201 71.4985 211.356 71.4194 211.493C71.3402 211.631 71.229 211.748 71.0953 211.833L64.0858 215.887C63.8287 216.035 63.6211 215.887 63.6211 215.62V214.048C63.6499 213.576 63.7723 213.114 63.9811 212.69C64.1898 212.266 64.4808 211.887 64.8371 211.576Z" fill="url(#paint34_linear)"/>
<path opacity="0.3" d="M91.5703 170.152C91.5703 171.536 92.559 172.129 93.7552 171.398C94.3884 170.976 94.9128 170.41 95.2857 169.747C95.6585 169.084 95.8692 168.342 95.9006 167.582C95.9006 166.197 94.9119 165.604 93.7157 166.336C93.0831 166.758 92.5591 167.324 92.1863 167.987C91.8135 168.65 91.6025 169.392 91.5703 170.152Z" fill="white"/>
<path d="M98.1641 166.316C98.1641 167.7 99.1527 168.293 100.349 167.562C100.984 167.15 101.513 166.594 101.893 165.94C102.272 165.285 102.492 164.55 102.534 163.795C102.534 162.401 101.545 161.818 100.349 162.539C99.7142 162.953 99.1858 163.511 98.8062 164.167C98.4267 164.823 98.2067 165.559 98.1641 166.316Z" fill="white"/>
<path opacity="0.3" d="M104.799 162.48C104.799 163.864 105.787 164.457 106.994 163.726C107.629 163.314 108.158 162.759 108.537 162.104C108.917 161.449 109.137 160.715 109.179 159.959C109.179 158.575 108.19 157.982 106.994 158.713C106.356 159.123 105.825 159.678 105.443 160.333C105.062 160.988 104.841 161.723 104.799 162.48Z" fill="white"/>
<path opacity="0.3" d="M111.473 158.792C111.473 160.176 112.461 160.77 113.658 160.038C114.293 159.627 114.822 159.071 115.201 158.416C115.581 157.762 115.801 157.027 115.842 156.271C115.842 154.877 114.854 154.294 113.658 155.026C113.022 155.437 112.494 155.993 112.114 156.647C111.734 157.302 111.515 158.037 111.473 158.792Z" fill="white"/>
<path opacity="0.3" d="M85.0254 173.929C85.0254 175.313 86.014 175.906 87.2202 175.174C87.8553 174.763 88.3842 174.207 88.7639 173.553C89.1435 172.898 89.3633 172.163 89.4051 171.408C89.4051 170.014 88.4165 169.43 87.2202 170.152C86.5831 170.565 86.0523 171.122 85.6709 171.778C85.2895 172.434 85.0684 173.171 85.0254 173.929Z" fill="white"/>
<path d="M72.2024 163.152L76.3152 164.062L74.8619 159.395L78.856 153.622L73.8535 156.39L72.2024 151.911L70.5613 158.298L65.5488 161.303L69.543 162.47L68.0897 168.817L72.2024 163.152Z" fill="url(#paint35_linear)"/>
<path d="M69.5427 162.47L68.0894 168.817L67.1699 168.214L68.5441 162.183L69.5427 162.47Z" fill="url(#paint36_linear)"/>
<path d="M73.8538 156.39L73.5078 155.47L77.937 153.019L78.7279 153.661L77.5316 154.353L73.8538 156.39Z" fill="url(#paint37_linear)"/>
<path d="M69.6413 157.695L71.2825 151.308L72.2019 151.911L70.5608 158.288L65.5483 161.303L64.6289 160.7L69.6413 157.695Z" fill="url(#paint38_linear)"/>
<path d="M69.5432 162.47L68.0898 168.817L69.2367 162.381L69.5432 162.47Z" fill="white"/>
<path d="M73.8529 156.39L73.7441 156.113L78.7269 153.661L77.5307 154.353L73.8529 156.39Z" fill="white"/>
<path d="M70.2746 158.15L72.2024 151.911L70.5613 158.288L65.5488 161.303L70.2746 158.15Z" fill="white"/>
<path d="M86.6966 154.867L90.8093 155.777L89.3659 151.111L93.3601 145.327L88.3476 148.105L86.6966 143.626L85.0554 150.003L80.043 153.019L84.0371 154.185L82.5838 160.522L86.6966 154.867Z" fill="url(#paint39_linear)"/>
<path d="M84.0368 154.185L82.5835 160.522L81.6641 159.929L83.0482 153.898L84.0368 154.185Z" fill="url(#paint40_linear)"/>
<path d="M88.3479 148.105L88.0117 147.186L92.4409 144.724L93.2219 145.367L92.0256 146.069L88.3479 148.105Z" fill="url(#paint41_linear)"/>
<path d="M84.1355 149.4L85.7767 143.023L86.6961 143.627L85.0549 150.003L80.0425 153.009V153.019L79.123 152.416L84.1355 149.4Z" fill="url(#paint42_linear)"/>
<path d="M84.0373 154.185L82.584 160.522L83.7308 154.096L84.0373 154.185Z" fill="white"/>
<path d="M88.347 148.105L88.2383 147.819L93.2211 145.367L92.0248 146.069L88.347 148.105Z" fill="white"/>
<path d="M84.7786 149.855L86.6966 143.626L85.0554 150.003L80.043 153.009V153.019L84.7786 149.855Z" fill="white"/>
<path d="M101.001 146.73L105.114 147.65L103.661 142.973L107.655 137.2L102.643 139.968L101.001 135.489L99.3503 141.876L94.3379 144.881L98.332 146.048L96.8787 152.395L101.001 146.73Z" fill="url(#paint43_linear)"/>
<path d="M98.3317 146.048L96.8784 152.395L95.959 151.792L97.3431 145.761L98.3317 146.048Z" fill="url(#paint44_linear)"/>
<path d="M102.643 139.968L102.307 139.049L106.736 136.597L107.517 137.239L106.33 137.931L102.643 139.968Z" fill="url(#paint45_linear)"/>
<path d="M98.4304 141.273L100.072 134.886L101.001 135.489L99.3499 141.876L94.3374 144.881L93.418 144.278L98.4304 141.273Z" fill="url(#paint46_linear)"/>
<path d="M98.3322 146.048L96.8789 152.395L98.0356 145.959L98.3322 146.048Z" fill="white"/>
<path d="M102.642 139.968L102.533 139.691L107.516 137.239L106.33 137.931L102.642 139.968Z" fill="white"/>
<path d="M99.0735 141.728L101.001 135.489L99.3503 141.876L94.3379 144.881L99.0735 141.728Z" fill="white"/>
<path d="M115.496 138.446L119.608 139.355L118.155 134.689L122.149 128.905L117.137 131.683L115.496 127.205L113.844 133.581L108.832 136.597L112.826 137.763L111.383 144.11L115.496 138.446Z" fill="url(#paint47_linear)"/>
<path d="M112.826 137.763L111.382 144.11V144.101V144.11L110.453 143.507L111.837 137.477L112.826 137.763Z" fill="url(#paint48_linear)"/>
<path d="M117.137 131.683L116.801 130.764L121.23 128.312L122.021 128.955L120.825 129.647L117.137 131.683Z" fill="url(#paint49_linear)"/>
<path d="M112.925 132.978L114.576 126.602L115.495 127.205L113.844 133.581L108.832 136.597L107.912 135.994L112.925 132.978Z" fill="url(#paint50_linear)"/>
<path d="M112.826 137.763L111.383 144.11V144.101V144.11L112.53 137.674L112.826 137.763Z" fill="white"/>
<path d="M117.136 131.683L117.037 131.397L122.02 128.955L120.824 129.647L117.136 131.683Z" fill="white"/>
<path d="M113.568 133.433L115.496 127.205L113.844 133.581L108.832 136.597L113.568 133.433Z" fill="white"/>
<path d="M129.673 130.319L133.786 131.229L132.333 126.562L136.327 120.779L131.324 123.557L129.673 119.068L128.032 125.455L123.02 128.461L127.014 129.637L125.56 135.974L129.673 130.319Z" fill="url(#paint51_linear)"/>
<path d="M127.013 129.637L125.56 135.974L124.641 135.371L126.015 129.34L127.013 129.637Z" fill="url(#paint52_linear)"/>
<path d="M131.325 123.557L130.979 122.628L135.408 120.176L136.199 120.818L135.002 121.51L131.325 123.557Z" fill="url(#paint53_linear)"/>
<path d="M127.102 124.852L128.753 118.475L129.673 119.068L128.031 125.455L123.019 128.46L122.1 127.867L127.102 124.852Z" fill="url(#paint54_linear)"/>
<path d="M127.014 129.637L125.561 135.974L126.707 129.548L127.014 129.637Z" fill="white"/>
<path d="M131.324 123.557L131.215 123.27L136.198 120.818L135.001 121.51L131.324 123.557Z" fill="white"/>
<path d="M127.745 125.307L129.673 119.068L128.032 125.455L123.02 128.461L127.745 125.307Z" fill="white"/>
<path style="mix-blend-mode:multiply" d="M139.399 106.005C157.683 74.7286 157.865 40.8164 139.807 30.2596C121.748 19.7029 92.2872 36.4991 74.0037 67.7751C55.7202 99.0511 55.5378 132.963 73.5963 143.52C91.6548 154.077 121.116 137.281 139.399 106.005Z" fill="url(#paint55_radial)"/>
<path d="M71.4551 128.616C81.0006 112.287 81.0962 94.5824 71.6686 89.0712C62.241 83.5599 46.8603 92.3291 37.3148 108.658C27.7694 124.986 27.6738 142.691 37.1014 148.202C46.529 153.713 61.9097 144.944 71.4551 128.616Z" fill="url(#paint56_radial)"/>
<path style="mix-blend-mode:color-dodge" d="M30.8175 133.058C30.8175 117.665 41.6927 98.9001 55.1086 91.159C61.5843 87.4219 67.4667 86.9375 71.8168 89.1817C67.4074 86.5124 61.2283 86.809 54.377 90.7636C40.9611 98.5047 30.0859 117.269 30.0859 132.662C30.0859 140.572 33.0024 146.118 37.6689 148.481C33.4276 145.93 30.8175 140.601 30.8175 133.058Z" fill="url(#paint57_radial)"/>
<path d="M44.9336 125.228C44.9336 137.606 65.8534 125.534 65.8534 113.156C65.8534 100.778 61.1672 95.1531 55.3638 98.4947C49.5605 101.836 44.9336 112.85 44.9336 125.228Z" fill="url(#paint58_linear)"/>
<path d="M39.5463 144.556C41.2764 139.612 44.618 136.913 48.7011 131.298L55.1669 128.213L61.6425 123.824C65.7257 124.723 69.0574 123.537 70.7974 126.513C71.1271 127.134 71.3636 127.8 71.4994 128.49C67.1394 136.043 61.079 142.648 54.376 146.513C48.365 149.983 42.878 150.636 38.6367 148.926C38.776 147.44 39.0811 145.974 39.5463 144.556Z" fill="url(#paint59_linear)"/>
<path d="M46.3485 117.091C46.349 116.452 46.4253 115.814 46.5759 115.193C47.4855 105.919 50.6195 101.579 55.2365 98.9099C59.8535 96.2405 63.3632 97.1204 63.9662 105.83C64.0134 106.158 64.0398 106.488 64.0453 106.819C64.8461 106.651 65.3602 107.353 65.1032 109.063C64.9437 110.517 64.2994 111.876 63.2742 112.919C62.5972 115.749 61.451 118.446 59.8831 120.897C59.6063 121.975 59.7645 122.944 60.4071 123.31C60.7979 123.531 61.2125 123.706 61.6429 123.834C58.0739 130.141 52.2804 133.483 48.7114 131.298C49.1167 130.705 49.5023 130.102 49.8681 129.479C50.1847 129.008 50.3986 128.476 50.4957 127.918C50.5928 127.359 50.571 126.786 50.4316 126.236C49.0298 125.539 47.9602 124.317 47.4558 122.835C47.357 122.647 47.2482 122.469 47.1592 122.272C46.1706 122.529 45.4785 121.846 45.3302 120.561C45.1827 119.944 45.199 119.299 45.3777 118.691C45.5563 118.082 45.891 117.531 46.3485 117.091Z" fill="url(#paint60_linear)"/>
<path d="M45.2211 148.658C45.2211 144.318 44.1632 141.016 42.4727 139.217C44.183 136.884 46.3284 134.6 48.7308 131.308C52.2998 133.492 58.0933 130.151 61.6623 123.843C64.0845 124.377 66.2496 124.179 67.9699 124.555C66.2128 128.506 65.2874 132.777 65.2511 137.101C65.2462 137.154 65.2462 137.207 65.2511 137.259C62.1569 140.918 58.483 144.044 54.376 146.513C51.5723 148.232 48.4407 149.346 45.1816 149.785C45.2013 149.38 45.2211 149.014 45.2211 148.658Z" fill="url(#paint61_radial)"/>
<path d="M56.3525 101.994C54.2862 107.452 58.8043 110.527 62.1262 109.904C64.1035 106.058 66.931 109.38 63.9552 101.342C60.1291 90.9711 54.6816 98.7913 54.6816 98.7913L56.3525 101.994Z" fill="url(#paint62_linear)"/>
<path d="M56.967 101.994C56.3837 107.818 51.6777 108.915 49.9476 114.115C48.8872 116.99 48.7082 120.115 49.4335 123.092C49.4335 123.092 43.7488 118.09 47.3178 107.857C50.8868 97.6246 57.8073 93.7491 56.967 101.994Z" fill="url(#paint63_linear)"/>
<path style="mix-blend-mode:multiply" d="M100.901 111.415C109.446 96.7977 109.533 80.9493 101.096 76.0167C92.658 71.0841 78.8906 78.9353 70.3455 93.5528C61.8003 108.17 61.7131 124.019 70.1508 128.951C78.5885 133.884 92.3558 126.033 100.901 111.415Z" fill="url(#paint64_radial)"/>
<path d="M161.731 80.9486C171.276 64.6201 171.372 46.9154 161.944 41.4042C152.516 35.8929 137.136 44.6621 127.59 60.9907C118.045 77.3192 117.949 95.0239 127.377 100.535C136.804 106.046 152.185 97.2772 161.731 80.9486Z" fill="#A56EF4"/>
<path style="mix-blend-mode:color-dodge" d="M121.081 85.3947C121.081 70.0014 131.956 51.2468 145.372 43.4958C151.848 39.7587 157.73 39.2743 162.09 41.5185C157.671 38.8491 151.502 39.1655 144.66 43.1102C131.244 50.8612 120.369 69.6159 120.369 85.0091C120.369 92.9183 123.276 98.4646 127.942 100.827C123.701 98.2767 121.081 92.938 121.081 85.3947Z" fill="url(#paint65_radial)"/>
<path d="M146.657 54.3413C144.591 59.7887 149.119 62.8634 152.441 62.2504C154.418 58.4046 157.236 61.7265 154.27 53.6789C150.444 43.3079 144.996 51.138 144.996 51.138L146.657 54.3413Z" fill="url(#paint66_linear)"/>
<path d="M147.24 54.3412C146.647 60.1544 141.941 61.2617 140.211 66.462C139.161 69.3499 138.992 72.4847 139.726 75.4686C139.726 75.4686 134.051 70.4561 137.611 60.2236C141.17 49.9911 148.07 46.086 147.24 54.3412Z" fill="url(#paint67_linear)"/>
<path style="mix-blend-mode:multiply" d="M128.203 97.4813C136.669 82.9199 136.718 67.1539 128.313 62.2671C119.907 57.3803 106.23 65.2231 97.7645 79.7845C89.2986 94.346 89.2494 110.112 97.6548 114.999C106.06 119.886 119.737 112.043 128.203 97.4813Z" fill="url(#paint68_radial)"/>
<path d="M133.657 91.6332C132.164 108.173 160.528 93.3435 156.989 73.9463C153.815 56.5263 151.057 46.2641 145.53 49.4673C136.039 54.9445 135.229 74.3615 133.657 91.6332Z" fill="url(#paint69_linear)"/>
<path d="M161.447 79.1564C159.657 76.0916 156.217 77.3175 152.015 76.3882L145.332 80.9162L138.658 84.0898C134.457 89.8832 131.016 92.6317 129.227 97.7627C128.86 98.8436 128.592 99.9554 128.426 101.085C132.726 103.062 138.421 102.449 144.659 98.8503C151.451 94.8957 157.581 88.1828 161.99 80.4812C161.858 80.0209 161.676 79.5766 161.447 79.1564Z" fill="url(#paint70_radial)"/>
<path d="M136.207 69.4477C136.209 68.7816 136.288 68.118 136.444 67.4704C137.374 57.9201 140.607 53.4316 145.342 50.6634C150.078 47.8952 153.726 48.8245 154.349 57.8509C154.395 58.1786 154.421 58.5087 154.428 58.8395C155.249 58.6616 155.782 59.3932 155.525 61.153C155.358 62.6418 154.701 64.0328 153.657 65.1076C152.954 68.0212 151.771 70.7977 150.157 73.3232C149.87 74.4404 150.038 75.4389 150.691 75.8146C151.097 76.0429 151.528 76.2221 151.976 76.3485C148.289 82.8637 142.317 86.3141 138.629 84.0501C139.055 83.447 139.45 82.8241 139.826 82.1815C140.152 81.6949 140.373 81.1451 140.474 80.5678C140.574 79.9904 140.552 79.3983 140.409 78.83C139.684 78.4808 139.034 77.9919 138.498 77.3913C137.962 76.7908 137.55 76.0904 137.285 75.3302C137.176 75.1325 137.057 74.9545 136.968 74.7469C135.98 75.0039 135.238 74.302 135.09 72.9871C134.951 72.351 134.981 71.6895 135.177 71.0685C135.373 70.4475 135.728 69.8887 136.207 69.4477Z" fill="url(#paint71_radial)"/>
<path d="M146.568 53.8866C146.568 58.1081 146.568 60.8071 149.939 61.4003C153.311 61.9935 154.606 65.7602 152.905 72.0975C151.205 78.4347 151.076 87.1941 153.993 89.992C153.261 84.7917 159.055 63.1502 154.556 52.5321C150.196 42.2502 144.828 50.5548 144.828 50.5548L146.568 53.8866Z" fill="url(#paint72_linear)"/>
<path d="M147.16 53.8865C146.557 59.8876 141.812 61.0245 139.913 66.383C137.036 74.5393 136.74 94.8758 136.74 94.8758C136.74 94.8758 131.371 76.22 137.135 59.9074C140.862 49.3387 148.02 45.3643 147.16 53.8865Z" fill="url(#paint73_linear)"/>
<path d="M122.406 109.359C134.803 88.1516 134.93 65.1583 122.688 58.0019C110.446 50.8456 90.4722 62.2362 78.0747 83.4435C65.6771 104.651 65.5508 127.644 77.7925 134.8C90.0342 141.957 110.008 130.566 122.406 109.359Z" fill="url(#paint74_linear)"/>
<path d="M85.6377 121.164C87.9098 119.198 89.9349 116.964 91.6685 114.511C96.671 117.368 104.788 112.682 109.79 104.051C111.792 104.495 113.877 104.386 115.821 103.734C118.955 102.746 121.417 104.15 122.277 107.195C116.839 117.16 109.039 125.979 100.349 130.991C91.9651 135.826 84.4118 136.201 79.0039 132.969C79.8206 128.398 82.1585 124.238 85.6377 121.164Z" fill="url(#paint75_linear)"/>
<path d="M109.79 104.051L112.192 108.806L100.625 113.601L109.79 104.051Z" fill="url(#paint76_linear)"/>
<path d="M91.6094 114.54L89.207 122.074L100.784 113.512L91.6094 114.54Z" fill="url(#paint77_linear)"/>
<path d="M91.6686 114.51C92.2321 113.71 92.7759 112.879 93.29 112.029C94.5653 109.893 94.6246 107.491 93.3789 106.779C91.6359 105.75 90.2544 104.206 89.4243 102.36C88.0699 102.736 87.0714 101.836 86.8638 100.116C86.5672 97.6837 87.2296 96.438 88.3467 95.3999C88.673 87.3029 91.4412 78.9884 100.744 73.6497C110.048 68.311 112.816 73.4025 113.152 81.114C114.269 80.8668 114.991 81.806 114.635 84.0799C114.386 86.0506 113.484 87.8812 112.074 89.2802C111.097 92.424 109.771 95.4484 108.12 98.2967C106.884 100.422 106.834 102.706 108.12 103.378C108.672 103.669 109.256 103.895 109.86 104.051C104.857 112.681 96.7403 117.368 91.7378 114.51H91.6686Z" fill="url(#paint78_linear)"/>
<path d="M113.131 81.0745C111.451 82.0632 110.867 84.9006 110.867 84.9006C110.867 84.9006 110.788 82.429 110.788 80.6395C110.788 78.8501 110.235 72.3349 104.856 77.5154C99.4781 82.6959 97.9358 86.1957 95.2368 87.1053C92.5378 88.0148 90.778 88.4202 90.778 90.7534C90.778 93.0866 90.5506 95.5582 90.5506 95.5582C90.2131 95.3727 89.8391 95.2633 89.4548 95.2377C89.0706 95.2121 88.6853 95.2709 88.3262 95.4099V87.5007C88.3262 83.1112 92.9629 72.1372 103.433 69.9819C113.695 67.886 113.131 70.0412 113.131 81.0745Z" fill="url(#paint79_linear)"/>
</g>
<defs>
<linearGradient id="paint0_linear" x1="37.5708" y1="141.923" x2="-5.87041" y2="106.045" gradientUnits="userSpaceOnUse">
<stop offset="0.1" stop-color="#45108A"/>
<stop offset="1" stop-color="#7C1DC9"/>
</linearGradient>
<radialGradient id="paint1_radial" cx="0" cy="0" r="1" gradientUnits="userSpaceOnUse" gradientTransform="translate(18.636 122.894) scale(21.9381)">
<stop stop-color="white"/>
<stop offset="1"/>
</radialGradient>
<radialGradient id="paint2_radial" cx="0" cy="0" r="1" gradientUnits="userSpaceOnUse" gradientTransform="translate(18.3399 114.551) scale(33.6733)">
<stop stop-color="#2AF6FF"/>
<stop offset="1" stop-color="#138BBD"/>
</radialGradient>
<linearGradient id="paint3_linear" x1="17.2421" y1="133.434" x2="26.9309" y2="136.933" gradientUnits="userSpaceOnUse">
<stop offset="0.04" stop-color="#9D9EB3"/>
<stop offset="0.58" stop-color="#D4D1D8"/>
<stop offset="1" stop-color="#EEEBF2"/>
</linearGradient>
<linearGradient id="paint4_linear" x1="31122.8" y1="878.525" x2="31152.3" y2="957.942" gradientUnits="userSpaceOnUse">
<stop offset="0.04" stop-color="#9D9EB3"/>
<stop offset="0.58" stop-color="#D4D1D8"/>
<stop offset="1" stop-color="#EEEBF2"/>
</linearGradient>
<radialGradient id="paint5_radial" cx="0" cy="0" r="1" gradientUnits="userSpaceOnUse" gradientTransform="translate(7.03178 122.987) rotate(150.113) scale(14.0772 13.9878)">
<stop offset="0.03" stop-color="#FEDFCB"/>
<stop offset="1" stop-color="#F9B69E"/>
</radialGradient>
<linearGradient id="paint6_linear" x1="20.1684" y1="123.191" x2="23.4408" y2="97.0515" gradientUnits="userSpaceOnUse">
<stop offset="0.04" stop-color="#FFA98C"/>
<stop offset="0.32" stop-color="#FFB892"/>
<stop offset="0.86" stop-color="#FEE1A3"/>
<stop offset="1" stop-color="#FEECA8"/>
</linearGradient>
<radialGradient id="paint7_radial" cx="0" cy="0" r="1" gradientUnits="userSpaceOnUse" gradientTransform="translate(43.4411 123.145) scale(25.0326)">
<stop stop-color="#8770B8"/>
<stop offset="1" stop-color="white"/>
</radialGradient>
<linearGradient id="paint8_linear" x1="8509.85" y1="1091.69" x2="10447.5" y2="2677.64" gradientUnits="userSpaceOnUse">
<stop offset="0.1" stop-color="#45108A"/>
<stop offset="1" stop-color="#7C1DC9"/>
</linearGradient>
<radialGradient id="paint9_radial" cx="0" cy="0" r="1" gradientUnits="userSpaceOnUse" gradientTransform="translate(6624.98 2295.22) scale(795.256 1124.21)">
<stop stop-color="white"/>
<stop offset="1"/>
</radialGradient>
<radialGradient id="paint10_radial" cx="0" cy="0" r="1" gradientUnits="userSpaceOnUse" gradientTransform="translate(9381.57 2103.37) scale(1552.52 896.165)">
<stop stop-color="#8770B8"/>
<stop offset="1" stop-color="white"/>
</radialGradient>
<linearGradient id="paint11_linear" x1="166.549" y1="64.5542" x2="194.814" y2="64.5542" gradientUnits="userSpaceOnUse">
<stop offset="0.04" stop-color="#9F19AB"/>
<stop offset="0.24" stop-color="#AE25B1"/>
<stop offset="0.65" stop-color="#D744BF"/>
<stop offset="1" stop-color="#FF63CE"/>
</linearGradient>
<linearGradient id="paint12_linear" x1="184.75" y1="72.8984" x2="169.92" y2="45.5425" gradientUnits="userSpaceOnUse">
<stop stop-color="#3746A3"/>
<stop offset="1" stop-color="#1BB0D4"/>
</linearGradient>
<linearGradient id="paint13_linear" x1="-48339.4" y1="47705.3" x2="-48671.1" y2="47705.3" gradientUnits="userSpaceOnUse">
<stop offset="0.04" stop-color="#FFA98C"/>
<stop offset="0.32" stop-color="#FFB892"/>
<stop offset="0.86" stop-color="#FEE1A3"/>
<stop offset="1" stop-color="#FEECA8"/>
</linearGradient>
<linearGradient id="paint14_linear" x1="175.849" y1="31.1043" x2="159.756" y2="31.1043" gradientUnits="userSpaceOnUse">
<stop offset="0.04" stop-color="#602213"/>
<stop offset="0.57" stop-color="#6D310E"/>
<stop offset="1" stop-color="#7A4108"/>
</linearGradient>
<linearGradient id="paint15_linear" x1="3689.74" y1="1706.56" x2="3499.29" y2="1159.48" gradientUnits="userSpaceOnUse">
<stop stop-color="#3746A3"/>
<stop offset="1" stop-color="#1BB0D4"/>
</linearGradient>
<linearGradient id="paint16_linear" x1="47697.9" y1="8028.3" x2="47947.6" y2="8028.3" gradientUnits="userSpaceOnUse">
<stop offset="0.04" stop-color="#602213"/>
<stop offset="0.57" stop-color="#6D310E"/>
<stop offset="1" stop-color="#7A4108"/>
</linearGradient>
<linearGradient id="paint17_linear" x1="31214.8" y1="4340.95" x2="31321.1" y2="4340.95" gradientUnits="userSpaceOnUse">
<stop offset="0.04" stop-color="#602213"/>
<stop offset="0.57" stop-color="#6D310E"/>
<stop offset="1" stop-color="#7A4108"/>
</linearGradient>
<linearGradient id="paint18_linear" x1="165.827" y1="9.41739" x2="70.6004" y2="174.363" gradientUnits="userSpaceOnUse">
<stop offset="0.06" stop-color="#200041"/>
<stop offset="0.26" stop-color="#210243"/>
<stop offset="0.36" stop-color="#25084B"/>
<stop offset="0.43" stop-color="#2C1358"/>
<stop offset="0.47" stop-color="#311B61"/>
<stop offset="0.48" stop-color="#351F65"/>
<stop offset="0.5" stop-color="#422C73"/>
<stop offset="0.51" stop-color="#584188"/>
<stop offset="0.52" stop-color="#765FA7"/>
<stop offset="0.53" stop-color="#8770B8"/>
<stop offset="0.54" stop-color="#7E67AE"/>
<stop offset="0.56" stop-color="#5C468D"/>
<stop offset="0.59" stop-color="#442E75"/>
<stop offset="0.61" stop-color="#362066"/>
<stop offset="0.63" stop-color="#311B61"/>
<stop offset="0.67" stop-color="#2A1155"/>
<stop offset="0.75" stop-color="#230446"/>
<stop offset="0.81" stop-color="#200041"/>
<stop offset="1" stop-color="#200041"/>
</linearGradient>
<radialGradient id="paint19_radial" cx="0" cy="0" r="1" gradientUnits="userSpaceOnUse" gradientTransform="translate(17.8358 76.4277) rotate(180) scale(178.708)">
<stop stop-color="#711F56"/>
<stop offset="0.16" stop-color="#6C1E52"/>
<stop offset="0.36" stop-color="#5C1946"/>
<stop offset="0.58" stop-color="#431233"/>
<stop offset="0.82" stop-color="#200918"/>
<stop offset="1"/>
</radialGradient>
<radialGradient id="paint20_radial" cx="0" cy="0" r="1" gradientUnits="userSpaceOnUse" gradientTransform="translate(47.7321 63.6647) rotate(180) scale(105.281)">
<stop stop-color="#AF8AFC"/>
<stop offset="1" stop-color="#10054D"/>
</radialGradient>
<linearGradient id="paint21_linear" x1="35.4533" y1="274.167" x2="183.256" y2="-38.1463" gradientUnits="userSpaceOnUse">
<stop stop-color="#311B61"/>
<stop offset="0.2" stop-color="#290F52"/>
<stop offset="0.49" stop-color="#200041"/>
<stop offset="1" stop-color="#0F001F"/>
</linearGradient>
<linearGradient id="paint22_linear" x1="373366" y1="38459.2" x2="382081" y2="38459.2" gradientUnits="userSpaceOnUse">
<stop stop-color="#311B61"/>
<stop offset="0.2" stop-color="#290F52"/>
<stop offset="0.49" stop-color="#200041"/>
<stop offset="1" stop-color="#0F001F"/>
</linearGradient>
<linearGradient id="paint23_linear" x1="154.271" y1="34.8255" x2="13.0521" y2="304.113" gradientUnits="userSpaceOnUse">
<stop offset="0.01" stop-color="#9F19AB"/>
<stop offset="0.43" stop-color="#5F27BD"/>
<stop offset="0.9" stop-color="#3D065F"/>
</linearGradient>
<linearGradient id="paint24_linear" x1="80417" y1="52656.1" x2="80378.9" y2="52722.5" gradientUnits="userSpaceOnUse">
<stop stop-color="#311B61"/>
<stop offset="0.2" stop-color="#290F52"/>
<stop offset="0.49" stop-color="#200041"/>
<stop offset="1" stop-color="#0F001F"/>
</linearGradient>
<linearGradient id="paint25_linear" x1="37.5302" y1="113.137" x2="48.9788" y2="112.642" gradientUnits="userSpaceOnUse">
<stop stop-color="#3D065F"/>
<stop offset="1" stop-color="#5F27BD"/>
</linearGradient>
<radialGradient id="paint26_radial" cx="0" cy="0" r="1" gradientUnits="userSpaceOnUse" gradientTransform="translate(13615.4 2149.77) scale(22.387 127.666)">
<stop stop-color="#711F56"/>
<stop offset="0.16" stop-color="#6C1E52"/>
<stop offset="0.36" stop-color="#5C1946"/>
<stop offset="0.58" stop-color="#431233"/>
<stop offset="0.82" stop-color="#200918"/>
<stop offset="1"/>
</radialGradient>
<linearGradient id="paint27_linear" x1="138.472" y1="219.119" x2="119.856" y2="202.411" gradientUnits="userSpaceOnUse">
<stop offset="0.04" stop-color="#6B24D6"/>
<stop offset="0.29" stop-color="#7733DC"/>
<stop offset="0.79" stop-color="#975CED"/>
<stop offset="1" stop-color="#A56EF4"/>
</linearGradient>
<linearGradient id="paint28_linear" x1="94.3288" y1="199.772" x2="54.5753" y2="428.713" gradientUnits="userSpaceOnUse">
<stop stop-color="#BF9FD9"/>
<stop offset="0.47" stop-color="#D1B4E3"/>
<stop offset="0.7" stop-color="#DBC4E9"/>
<stop offset="1" stop-color="#EBDEF3"/>
</linearGradient>
<linearGradient id="paint29_linear" x1="85287.8" y1="3236.71" x2="85713.5" y2="6727.12" gradientUnits="userSpaceOnUse">
<stop stop-color="#BF9FD9"/>
<stop offset="0.47" stop-color="#D1B4E3"/>
<stop offset="0.7" stop-color="#DBC4E9"/>
<stop offset="1" stop-color="#EBDEF3"/>
</linearGradient>
<linearGradient id="paint30_linear" x1="32105" y1="5016.11" x2="31332.9" y2="2589.44" gradientUnits="userSpaceOnUse">
<stop stop-color="#BF9FD9"/>
<stop offset="0.47" stop-color="#D1B4E3"/>
<stop offset="0.7" stop-color="#DBC4E9"/>
<stop offset="1" stop-color="#EBDEF3"/>
</linearGradient>
<linearGradient id="paint31_linear" x1="61.7965" y1="222.708" x2="75.8748" y2="188.817" gradientUnits="userSpaceOnUse">
<stop offset="0.04" stop-color="#138BBD"/>
<stop offset="0.23" stop-color="#169AC7"/>
<stop offset="0.59" stop-color="#1FC3DF"/>
<stop offset="1" stop-color="#2AF6FF"/>
</linearGradient>
<linearGradient id="paint32_linear" x1="6397.28" y1="110714" x2="7067.47" y2="104728" gradientUnits="userSpaceOnUse">
<stop stop-color="#BF9FD9"/>
<stop offset="0.47" stop-color="#D1B4E3"/>
<stop offset="0.7" stop-color="#DBC4E9"/>
<stop offset="1" stop-color="#EBDEF3"/>
</linearGradient>
<linearGradient id="paint33_linear" x1="3251.8" y1="62876.6" x2="3678.04" y2="59383.9" gradientUnits="userSpaceOnUse">
<stop stop-color="#BF9FD9"/>
<stop offset="0.47" stop-color="#D1B4E3"/>
<stop offset="0.7" stop-color="#DBC4E9"/>
<stop offset="1" stop-color="#EBDEF3"/>
</linearGradient>
<linearGradient id="paint34_linear" x1="32526.2" y1="5007.49" x2="31754" y2="2580.82" gradientUnits="userSpaceOnUse">
<stop stop-color="#BF9FD9"/>
<stop offset="0.47" stop-color="#D1B4E3"/>
<stop offset="0.7" stop-color="#DBC4E9"/>
<stop offset="1" stop-color="#EBDEF3"/>
</linearGradient>
<linearGradient id="paint35_linear" x1="78.8659" y1="160.364" x2="65.5488" y2="160.364" gradientUnits="userSpaceOnUse">
<stop offset="0.04" stop-color="#FFBA78"/>
<stop offset="0.4" stop-color="#FFC987"/>
<stop offset="1" stop-color="#FEECA8"/>
</linearGradient>
<linearGradient id="paint36_linear" x1="9632.1" y1="1269.3" x2="9637.8" y2="1269.3" gradientUnits="userSpaceOnUse">
<stop offset="0.04" stop-color="#FFBA78"/>
<stop offset="0.4" stop-color="#FFC987"/>
<stop offset="1" stop-color="#FEECA8"/>
</linearGradient>
<linearGradient id="paint37_linear" x1="21057.7" y1="678.868" x2="21085.2" y2="678.868" gradientUnits="userSpaceOnUse">
<stop offset="0.04" stop-color="#FFBA78"/>
<stop offset="0.4" stop-color="#FFC987"/>
<stop offset="1" stop-color="#FEECA8"/>
</linearGradient>
<linearGradient id="paint38_linear" x1="30557.5" y1="1726.56" x2="30615.6" y2="1726.56" gradientUnits="userSpaceOnUse">
<stop offset="0.04" stop-color="#FFBA78"/>
<stop offset="0.4" stop-color="#FFC987"/>
<stop offset="1" stop-color="#FEECA8"/>
</linearGradient>
<linearGradient id="paint39_linear" x1="53416.6" y1="2733.95" x2="53595.9" y2="2733.95" gradientUnits="userSpaceOnUse">
<stop offset="0.04" stop-color="#FFBA78"/>
<stop offset="0.4" stop-color="#FFC987"/>
<stop offset="1" stop-color="#FEECA8"/>
</linearGradient>
<linearGradient id="paint40_linear" x1="9611.15" y1="1203.86" x2="9616.85" y2="1203.86" gradientUnits="userSpaceOnUse">
<stop offset="0.04" stop-color="#FFBA78"/>
<stop offset="0.4" stop-color="#FFC987"/>
<stop offset="1" stop-color="#FEECA8"/>
</linearGradient>
<linearGradient id="paint41_linear" x1="20956.1" y1="643.75" x2="20983.6" y2="643.75" gradientUnits="userSpaceOnUse">
<stop offset="0.04" stop-color="#FFBA78"/>
<stop offset="0.4" stop-color="#FFC987"/>
<stop offset="1" stop-color="#FEECA8"/>
</linearGradient>
<linearGradient id="paint42_linear" x1="30461.1" y1="1634.41" x2="30519.2" y2="1634.41" gradientUnits="userSpaceOnUse">
<stop offset="0.04" stop-color="#FFBA78"/>
<stop offset="0.4" stop-color="#FFC987"/>
<stop offset="1" stop-color="#FEECA8"/>
</linearGradient>
<linearGradient id="paint43_linear" x1="53238.3" y1="2588.36" x2="53417.5" y2="2588.36" gradientUnits="userSpaceOnUse">
<stop offset="0.04" stop-color="#FFBA78"/>
<stop offset="0.4" stop-color="#FFC987"/>
<stop offset="1" stop-color="#FEECA8"/>
</linearGradient>
<linearGradient id="paint44_linear" x1="9591.83" y1="1142.7" x2="9597.52" y2="1142.7" gradientUnits="userSpaceOnUse">
<stop offset="0.04" stop-color="#FFBA78"/>
<stop offset="0.4" stop-color="#FFC987"/>
<stop offset="1" stop-color="#FEECA8"/>
</linearGradient>
<linearGradient id="paint45_linear" x1="20895" y1="606.452" x2="20922.5" y2="606.452" gradientUnits="userSpaceOnUse">
<stop offset="0.04" stop-color="#FFBA78"/>
<stop offset="0.4" stop-color="#FFC987"/>
<stop offset="1" stop-color="#FEECA8"/>
</linearGradient>
<linearGradient id="paint46_linear" x1="30405.4" y1="1544.11" x2="30463.5" y2="1544.11" gradientUnits="userSpaceOnUse">
<stop offset="0.04" stop-color="#FFBA78"/>
<stop offset="0.4" stop-color="#FFC987"/>
<stop offset="1" stop-color="#FEECA8"/>
</linearGradient>
<linearGradient id="paint47_linear" x1="53057.5" y1="2438.41" x2="53236.8" y2="2438.41" gradientUnits="userSpaceOnUse">
<stop offset="0.04" stop-color="#FFBA78"/>
<stop offset="0.4" stop-color="#FFC987"/>
<stop offset="1" stop-color="#FEECA8"/>
</linearGradient>
<linearGradient id="paint48_linear" x1="9570.79" y1="1078.82" x2="9576.49" y2="1078.82" gradientUnits="userSpaceOnUse">
<stop offset="0.04" stop-color="#FFBA78"/>
<stop offset="0.4" stop-color="#FFC987"/>
<stop offset="1" stop-color="#FEECA8"/>
</linearGradient>
<linearGradient id="paint49_linear" x1="20872.4" y1="569.884" x2="20900" y2="569.884" gradientUnits="userSpaceOnUse">
<stop offset="0.04" stop-color="#FFBA78"/>
<stop offset="0.4" stop-color="#FFC987"/>
<stop offset="1" stop-color="#FEECA8"/>
</linearGradient>
<linearGradient id="paint50_linear" x1="30308.7" y1="1451.97" x2="30366.7" y2="1451.97" gradientUnits="userSpaceOnUse">
<stop offset="0.04" stop-color="#FFBA78"/>
<stop offset="0.4" stop-color="#FFC987"/>
<stop offset="1" stop-color="#FEECA8"/>
</linearGradient>
<linearGradient id="paint51_linear" x1="52841.5" y1="2291.14" x2="53020.8" y2="2291.14" gradientUnits="userSpaceOnUse">
<stop offset="0.04" stop-color="#FFBA78"/>
<stop offset="0.4" stop-color="#FFC987"/>
<stop offset="1" stop-color="#FEECA8"/>
</linearGradient>
<linearGradient id="paint52_linear" x1="9551.65" y1="1016.15" x2="9557.34" y2="1016.15" gradientUnits="userSpaceOnUse">
<stop offset="0.04" stop-color="#FFBA78"/>
<stop offset="0.4" stop-color="#FFC987"/>
<stop offset="1" stop-color="#FEECA8"/>
</linearGradient>
<linearGradient id="paint53_linear" x1="20811.8" y1="535.249" x2="20839.3" y2="535.249" gradientUnits="userSpaceOnUse">
<stop offset="0.04" stop-color="#FFBA78"/>
<stop offset="0.4" stop-color="#FFC987"/>
<stop offset="1" stop-color="#FEECA8"/>
</linearGradient>
<linearGradient id="paint54_linear" x1="30174.8" y1="1360.45" x2="30232.8" y2="1360.45" gradientUnits="userSpaceOnUse">
<stop offset="0.04" stop-color="#FFBA78"/>
<stop offset="0.4" stop-color="#FFC987"/>
<stop offset="1" stop-color="#FEECA8"/>
</linearGradient>
<radialGradient id="paint55_radial" cx="0" cy="0" r="1" gradientUnits="userSpaceOnUse" gradientTransform="translate(12921.7 7629.33) scale(5031.27 2905.02)">
<stop stop-color="#8770B8"/>
<stop offset="1" stop-color="white"/>
</radialGradient>
<radialGradient id="paint56_radial" cx="0" cy="0" r="1" gradientUnits="userSpaceOnUse" gradientTransform="translate(34.1496 112.825) rotate(150.197) scale(26.2596 26.1996)">
<stop stop-color="#BB9AD7"/>
<stop offset="0.39" stop-color="#A783CC"/>
<stop offset="0.65" stop-color="#9F79C8"/>
<stop offset="0.99" stop-color="#9F79C8"/>
<stop offset="1" stop-color="#9F79C8"/>
</radialGradient>
<radialGradient id="paint57_radial" cx="0" cy="0" r="1" gradientUnits="userSpaceOnUse" gradientTransform="translate(2087 6515.2) scale(1103.78 1614.57)">
<stop stop-color="white"/>
<stop offset="1"/>
</radialGradient>
<linearGradient id="paint58_linear" x1="-75296.7" y1="51215.3" x2="-75741.3" y2="51215.3" gradientUnits="userSpaceOnUse">
<stop offset="0.04" stop-color="#602213"/>
<stop offset="0.57" stop-color="#6D310E"/>
<stop offset="1" stop-color="#7A4108"/>
</linearGradient>
<linearGradient id="paint59_linear" x1="-131207" y1="3710.31" x2="-132300" y2="3710.31" gradientUnits="userSpaceOnUse">
<stop offset="0.04" stop-color="#FFA98C"/>
<stop offset="0.32" stop-color="#FFB892"/>
<stop offset="0.86" stop-color="#FEE1A3"/>
<stop offset="1" stop-color="#FEECA8"/>
</linearGradient>
<linearGradient id="paint60_linear" x1="-71606.5" y1="49504" x2="-72010.3" y2="49504" gradientUnits="userSpaceOnUse">
<stop offset="0.04" stop-color="#FFA98C"/>
<stop offset="0.32" stop-color="#FFB892"/>
<stop offset="0.86" stop-color="#FEE1A3"/>
<stop offset="1" stop-color="#FEECA8"/>
</linearGradient>
<radialGradient id="paint61_radial" cx="0" cy="0" r="1" gradientUnits="userSpaceOnUse" gradientTransform="translate(54.9 133.927) rotate(180) scale(20.811)">
<stop stop-color="#FF63CE"/>
<stop offset="1" stop-color="#9F19AB"/>
</radialGradient>
<linearGradient id="paint62_linear" x1="-36257" y1="24134" x2="-36207.7" y2="24038.6" gradientUnits="userSpaceOnUse">
<stop offset="0.04" stop-color="#602213"/>
<stop offset="0.57" stop-color="#6D310E"/>
<stop offset="1" stop-color="#7A4108"/>
</linearGradient>
<linearGradient id="paint63_linear" x1="-37524" y1="27612.1" x2="-37644.3" y2="27612.1" gradientUnits="userSpaceOnUse">
<stop offset="0.04" stop-color="#602213"/>
<stop offset="0.57" stop-color="#6D310E"/>
<stop offset="1" stop-color="#7A4108"/>
</linearGradient>
<radialGradient id="paint64_radial" cx="0" cy="0" r="1" gradientUnits="userSpaceOnUse" gradientTransform="translate(5217.14 3829.43) scale(1552.52 896.166)">
<stop stop-color="#8770B8"/>
<stop offset="1" stop-color="white"/>
</radialGradient>
<radialGradient id="paint65_radial" cx="0" cy="0" r="1" gradientUnits="userSpaceOnUse" gradientTransform="translate(5985.91 3524.85) scale(1103.52 1614.65)">
<stop stop-color="white"/>
<stop offset="1"/>
</radialGradient>
<linearGradient id="paint66_linear" x1="-35350.1" y1="23622" x2="-35300.9" y2="23526.5" gradientUnits="userSpaceOnUse">
<stop offset="0.04" stop-color="#602213"/>
<stop offset="0.57" stop-color="#6D310E"/>
<stop offset="1" stop-color="#7A4108"/>
</linearGradient>
<linearGradient id="paint67_linear" x1="-36509.7" y1="27096" x2="-36629.7" y2="27096" gradientUnits="userSpaceOnUse">
<stop offset="0.04" stop-color="#602213"/>
<stop offset="0.57" stop-color="#6D310E"/>
<stop offset="1" stop-color="#7A4108"/>
</linearGradient>
<radialGradient id="paint68_radial" cx="0" cy="0" r="1" gradientUnits="userSpaceOnUse" gradientTransform="translate(7085.76 3023.61) rotate(-0.136476) scale(1544.43 891.493)">
<stop stop-color="#8770B8"/>
<stop offset="1" stop-color="white"/>
</radialGradient>
<linearGradient id="paint69_linear" x1="-73072.2" y1="3471.26" x2="-72714" y2="1102.35" gradientUnits="userSpaceOnUse">
<stop offset="0.04" stop-color="#602213"/>
<stop offset="0.57" stop-color="#6D310E"/>
<stop offset="1" stop-color="#7A4108"/>
</linearGradient>
<radialGradient id="paint70_radial" cx="0" cy="0" r="1" gradientUnits="userSpaceOnUse" gradientTransform="translate(145.213 89.29) scale(20.7319)">
<stop stop-color="#6618AF"/>
<stop offset="1" stop-color="#45108A"/>
</radialGradient>
<radialGradient id="paint71_radial" cx="0" cy="0" r="1" gradientUnits="userSpaceOnUse" gradientTransform="translate(68088.2 22261.4) scale(397.114 684.01)">
<stop offset="0.03" stop-color="#FEDFCB"/>
<stop offset="1" stop-color="#F9B69E"/>
</radialGradient>
<linearGradient id="paint72_linear" x1="37899.1" y1="26957.7" x2="37546.9" y2="26805.4" gradientUnits="userSpaceOnUse">
<stop offset="0.04" stop-color="#602213"/>
<stop offset="0.57" stop-color="#6D310E"/>
<stop offset="1" stop-color="#7A4108"/>
</linearGradient>
<linearGradient id="paint73_linear" x1="-37962.2" y1="3348.67" x2="-38114.7" y2="3328.41" gradientUnits="userSpaceOnUse">
<stop offset="0.04" stop-color="#602213"/>
<stop offset="0.57" stop-color="#6D310E"/>
<stop offset="1" stop-color="#7A4108"/>
</linearGradient>
<linearGradient id="paint74_linear" x1="113.86" y1="19.2911" x2="45.6219" y2="141.616" gradientUnits="userSpaceOnUse">
<stop offset="0.03" stop-color="#7C1DC9"/>
<stop offset="0.21" stop-color="#6E41D2"/>
<stop offset="0.62" stop-color="#4C9BE8"/>
<stop offset="1" stop-color="#2AF6FF"/>
</linearGradient>
<linearGradient id="paint75_linear" x1="-171852" y1="3904.78" x2="-173746" y2="3904.78" gradientUnits="userSpaceOnUse">
<stop offset="0.04" stop-color="#6B24D6"/>
<stop offset="0.29" stop-color="#7733DC"/>
<stop offset="0.79" stop-color="#975CED"/>
<stop offset="1" stop-color="#A56EF4"/>
</linearGradient>
<linearGradient id="paint76_linear" x1="47437.9" y1="1116.29" x2="47271.2" y2="1189.27" gradientUnits="userSpaceOnUse">
<stop offset="0.04" stop-color="#9D9EB3"/>
<stop offset="0.58" stop-color="#D4D1D8"/>
<stop offset="1" stop-color="#EEEBF2"/>
</linearGradient>
<linearGradient id="paint77_linear" x1="47401.3" y1="1013" x2="47471.9" y2="1203.67" gradientUnits="userSpaceOnUse">
<stop offset="0.04" stop-color="#9D9EB3"/>
<stop offset="0.58" stop-color="#D4D1D8"/>
<stop offset="1" stop-color="#EEEBF2"/>
</linearGradient>
<linearGradient id="paint78_linear" x1="-100421" y1="68587.7" x2="-101214" y2="68587.7" gradientUnits="userSpaceOnUse">
<stop offset="0.04" stop-color="#FFA98C"/>
<stop offset="0.32" stop-color="#FFB892"/>
<stop offset="0.86" stop-color="#FEE1A3"/>
<stop offset="1" stop-color="#FEECA8"/>
</linearGradient>
<linearGradient id="paint79_linear" x1="-88821.6" y1="57204.5" x2="-89447.2" y2="57204.5" gradientUnits="userSpaceOnUse">
<stop offset="0.04" stop-color="#602213"/>
<stop offset="0.57" stop-color="#6D310E"/>
<stop offset="1" stop-color="#7A4108"/>
</linearGradient>
<clipPath id="clip0">
<rect width="200.438" height="290" fill="white" transform="translate(0 0.5)"/>
</clipPath>
</defs>
</svg>
