<svg width="301" height="290" viewBox="0 0 301 290" fill="none" xmlns="http://www.w3.org/2000/svg">
<path d="M3.08789 133.869H15.1536V232.326C15.1536 234.256 12.4992 235.825 9.12076 235.825C5.74235 235.825 3.08789 234.256 3.08789 232.326V133.869Z" fill="url(#paint0_linear)"/>
<path d="M78.3809 177.186H90.4466V275.703C90.4466 277.633 87.7921 279.202 84.4137 279.202C81.0353 279.202 78.3809 277.633 78.3809 275.703V177.186Z" fill="url(#paint1_linear)"/>
<path style="mix-blend-mode:multiply" d="M3.08789 131.035H15.1536V151.547C15.1536 153.477 12.4992 154.986 9.12076 154.986C5.74235 154.986 3.08789 153.477 3.08789 151.547V131.035Z" fill="url(#paint2_linear)"/>
<path style="mix-blend-mode:multiply" d="M78.3809 96.5259H90.4466V194.862C90.4466 196.792 87.7921 198.361 84.4137 198.361C81.0353 198.361 78.3809 196.792 78.3809 194.862V96.5259Z" fill="url(#paint3_linear)"/>
<path d="M246.275 80.3569H258.341V178.874C258.341 180.804 255.687 182.373 252.308 182.373C248.93 182.373 246.275 180.804 246.275 178.874V80.3569Z" fill="url(#paint4_linear)"/>
<path d="M0.0179741 137.49V130.914L4.96493 129.768L168.275 36.1979C170.71 34.8693 173.419 34.1184 176.191 34.0034C178.963 33.8883 181.724 34.4121 184.262 35.5343L258.104 78.428L261.121 77.704V85.0641C260.955 86.1579 260.514 87.1915 259.838 88.0675C259.163 88.9435 258.275 89.6332 257.259 90.0714L92.8035 184.606C90.3678 185.935 87.6593 186.686 84.8873 186.801C82.1152 186.916 79.3538 186.392 76.8164 185.27L2.73276 142.014C1.86934 141.632 1.14517 140.992 0.659254 140.182C0.173335 139.372 -0.0506291 138.432 0.0179741 137.49Z" fill="url(#paint5_linear)"/>
<path d="M76.8137 177.909L2.73005 134.654C-1.31197 132.301 -0.82934 128.138 3.93663 125.423L168.272 30.9487C170.682 29.5555 173.39 28.7575 176.171 28.6211C178.951 28.4847 181.724 29.0138 184.259 30.1645L258.343 73.3598C262.445 75.773 261.902 79.8753 257.196 82.5901L92.8008 177.246C90.3651 178.574 87.6566 179.325 84.8846 179.44C82.1125 179.555 79.3511 179.032 76.8137 177.909Z" fill="url(#paint6_linear)"/>
<path style="mix-blend-mode:color-dodge" d="M257.017 82.0473L92.8023 176.522C90.3667 177.851 87.6581 178.601 84.8861 178.716C82.114 178.832 79.3526 178.308 76.8152 177.186L2.73158 133.93C2.01008 133.589 1.38443 133.074 0.910653 132.432C0.436875 131.79 0.129754 131.04 0.0167881 130.25C-0.0265998 131.172 0.209326 132.086 0.693701 132.871C1.17808 133.657 1.88834 134.278 2.73158 134.654L76.8152 177.91C79.3526 179.032 82.114 179.556 84.8861 179.44C87.6581 179.325 90.3667 178.575 92.8023 177.246L257.017 82.7109C258.141 82.2772 259.11 81.5167 259.798 80.5275C260.486 79.5382 260.862 78.3656 260.878 77.1606C260.669 78.2233 260.21 79.2208 259.538 80.0706C258.867 80.9204 258.002 81.598 257.017 82.0473Z" fill="url(#paint7_radial)"/>
<path style="mix-blend-mode:color-dodge" d="M76.8095 182.194C76.8095 187.925 79.8259 192.631 83.506 192.631C87.186 192.631 90.1421 187.925 90.1421 182.194C90.1421 176.462 87.1257 171.757 83.4456 171.757C79.7656 171.757 76.7492 176.462 76.8095 182.194Z" fill="url(#paint8_radial)"/>
<path d="M11.3539 98.3967V127.535L6.58789 124.76V95.6216L11.3539 98.3967Z" fill="url(#paint9_linear)"/>
<path d="M11.3535 98.3959V127.535L177.499 31.9137V2.7749L11.3535 98.3959Z" fill="url(#paint10_linear)"/>
<path d="M177.499 2.77512L11.3539 98.3961L6.58789 95.621L172.793 0L177.499 2.77512Z" fill="url(#paint11_linear)"/>
<path style="mix-blend-mode:color-dodge" d="M12.2584 97.9751V126.873L11.3535 127.536V98.5784L12.2584 97.9751Z" fill="url(#paint12_radial)"/>
<g opacity="0.2">
<path opacity="0.09" d="M143.896 78.9715L82.4212 114.626C81.4579 115.112 80.6553 115.866 80.1096 116.797C79.5639 117.728 79.2982 118.796 79.3444 119.874C79.2941 120.335 79.2941 120.801 79.3444 121.262C80.086 123.115 81.4516 124.652 83.2054 125.606L118.256 145.393C120.402 146.619 122.845 147.225 125.315 147.143C126.268 147.138 127.218 147.037 128.15 146.841C129.156 146.57 130.127 146.185 131.046 145.695L192.28 110.342C193.248 109.862 194.055 109.11 194.601 108.177C195.148 107.245 195.41 106.173 195.356 105.094C195.442 104.554 195.442 104.004 195.356 103.465C194.572 101.703 193.239 100.243 191.556 99.3022L157.108 79.4541L155.901 78.7905C154.083 78.0413 152.137 77.652 150.17 77.6442C147.995 77.4704 145.815 77.9314 143.896 78.9715Z" fill="black"/>
<path opacity="0.18" d="M144.016 79.2704L82.5407 114.623C81.5898 115.084 80.8092 115.835 80.3107 116.767C79.8122 117.698 79.6214 118.764 79.7656 119.811C79.8214 120.269 79.9433 120.716 80.1275 121.138C80.9741 122.913 82.3423 124.386 84.0489 125.361L118.255 145.149C120.414 146.334 122.852 146.918 125.314 146.839C126.246 146.781 127.173 146.66 128.089 146.477C129.073 146.174 130.024 145.769 130.924 145.27L191.856 110.038C192.796 109.575 193.572 108.836 194.079 107.919C194.586 107.002 194.799 105.952 194.692 104.91C194.623 104.363 194.459 103.833 194.209 103.342C193.377 101.659 192.051 100.27 190.408 99.3598L156.443 79.753L155.237 79.1497C153.476 78.3469 151.562 77.9352 149.626 77.9432C147.672 77.8865 145.737 78.3442 144.016 79.2704Z" fill="black"/>
<path opacity="0.27" d="M144.195 79.5131L82.7202 114.986C81.7864 115.436 81.0297 116.185 80.5705 117.114C80.1114 118.043 79.9762 119.099 80.1864 120.114C80.2721 120.572 80.414 121.018 80.6087 121.442C81.5846 123.115 82.9771 124.508 84.6508 125.484L118.254 144.789C120.423 145.942 122.857 146.503 125.312 146.418C126.232 146.356 127.142 146.194 128.027 145.935C129.017 145.675 129.97 145.29 130.863 144.789L191.674 109.798C192.612 109.35 193.375 108.604 193.845 107.676C194.314 106.748 194.463 105.691 194.268 104.67C194.141 104.169 193.958 103.684 193.725 103.222C192.788 101.643 191.458 100.333 189.864 99.4216L156.382 80.0561L155.175 79.4528C153.447 78.6786 151.578 78.2679 149.685 78.2462C147.777 78.192 145.887 78.6282 144.195 79.5131Z" fill="black"/>
<path opacity="0.36" d="M144.319 79.8155L82.8441 115.289C81.9324 115.733 81.2077 116.485 80.799 117.413C80.3902 118.341 80.3239 119.384 80.6119 120.356C80.7466 120.769 80.9078 121.172 81.0945 121.563C82.1714 123.127 83.57 124.444 85.1969 125.424L118.257 144.79C120.409 145.984 122.86 146.528 125.315 146.358C126.216 146.302 127.107 146.14 127.97 145.875C128.945 145.547 129.893 145.143 130.805 144.669L191.134 109.678C192.044 109.246 192.772 108.508 193.192 107.592C193.611 106.676 193.694 105.642 193.427 104.671C193.277 104.188 193.074 103.723 192.823 103.283C191.775 101.807 190.441 100.556 188.902 99.6033L155.962 80.5998L154.756 79.9362C153.038 79.1954 151.196 78.786 149.326 78.7296C147.595 78.6962 145.881 79.068 144.319 79.8155Z" fill="black"/>
<path opacity="0.45" d="M144.5 80.0563L83.0248 115.53C82.1058 115.94 81.3833 116.693 81.0115 117.628C80.6396 118.564 80.6477 119.607 81.034 120.537C81.1603 120.972 81.3647 121.381 81.6373 121.743C81.6373 122.709 84.6537 124.76 85.7396 125.423L118.619 144.367C120.757 145.535 123.187 146.059 125.617 145.875C126.52 145.799 127.411 145.617 128.271 145.332C129.238 145.009 130.169 144.584 131.046 144.065L191.375 109.255C192.282 108.844 193.002 108.108 193.392 107.192C193.783 106.277 193.817 105.248 193.487 104.308C193.282 103.847 193.039 103.403 192.763 102.981C191.667 101.575 190.316 100.388 188.781 99.4821L156.324 80.7199L155.118 80.1166C153.439 79.316 151.608 78.884 149.748 78.8497C147.923 78.783 146.113 79.1992 144.5 80.0563Z" fill="black"/>
<path opacity="0.55" d="M144.681 80.2983L83.2065 115.832C82.7531 116.026 82.3443 116.311 82.0051 116.67C81.6659 117.028 81.4035 117.452 81.234 117.915C81.0645 118.378 80.9915 118.871 81.0195 119.364C81.0474 119.856 81.1758 120.338 81.3966 120.779C81.5953 121.167 81.8382 121.532 82.1205 121.865C82.1205 122.709 85.4386 124.821 86.3436 125.364L118.74 144.066C120.884 145.277 123.347 145.803 125.799 145.574C126.679 145.451 127.548 145.249 128.393 144.971C129.325 144.61 130.232 144.187 131.107 143.704L191.436 109.015C192.329 108.596 193.021 107.84 193.36 106.914C193.699 105.987 193.658 104.964 193.246 104.068C193.029 103.62 192.766 103.195 192.462 102.801C191.314 101.488 189.947 100.385 188.42 99.5431L156.445 81.0222L155.299 80.4189C153.627 79.6597 151.825 79.2295 149.99 79.152C148.151 79.0646 146.321 79.4598 144.681 80.2983Z" fill="black"/>
<path opacity="0.64" d="M144.8 80.5983L83.3255 116.072C82.881 116.266 82.4837 116.555 82.1605 116.917C81.8374 117.279 81.5961 117.706 81.453 118.17C81.3099 118.633 81.2683 119.123 81.3312 119.604C81.3941 120.085 81.5598 120.547 81.8173 120.958C82.0444 121.325 82.3071 121.669 82.6015 121.984C83.8588 123.311 85.3016 124.449 86.8849 125.362L118.919 143.823C121.059 144.98 123.498 145.464 125.918 145.21C126.804 145.116 127.675 144.913 128.512 144.607C129.42 144.213 130.306 143.77 131.166 143.28L191.073 108.591C191.514 108.401 191.909 108.119 192.232 107.764C192.556 107.409 192.8 106.989 192.948 106.532C193.097 106.076 193.146 105.593 193.093 105.115C193.04 104.638 192.886 104.178 192.641 103.765C192.399 103.321 192.094 102.915 191.736 102.558C190.565 101.345 189.223 100.309 187.754 99.4812L156.203 81.3826L155.056 80.719C153.427 79.9603 151.664 79.5298 149.868 79.4521C148.109 79.3956 146.364 79.7902 144.8 80.5983Z" fill="black"/>
<path opacity="0.73" d="M144.981 80.8409L83.5063 116.314C83.0507 116.497 82.6443 116.785 82.3201 117.154C81.9958 117.523 81.7627 117.962 81.6395 118.438C81.5162 118.913 81.5063 119.411 81.6105 119.891C81.7147 120.371 81.9301 120.819 82.2394 121.201C82.5082 121.552 82.8113 121.875 83.1444 122.166C84.4713 123.37 85.9282 124.422 87.488 125.303L119.04 143.402C121.181 144.614 123.657 145.101 126.098 144.789C126.96 144.64 127.808 144.418 128.632 144.126L131.226 142.799L190.952 108.592C191.388 108.404 191.776 108.12 192.086 107.76C192.396 107.401 192.621 106.976 192.743 106.517C192.865 106.058 192.881 105.577 192.79 105.111C192.699 104.645 192.504 104.206 192.219 103.826C191.98 103.346 191.653 102.917 191.253 102.559C190.016 101.431 188.661 100.44 187.211 99.6032L156.142 81.5046L154.996 80.9013C153.409 80.1428 151.685 79.7119 149.928 79.6344C148.202 79.5952 146.496 80.0114 144.981 80.8409Z" fill="black"/>
<path opacity="0.82" d="M145.103 81.1414L83.6278 116.615C83.1778 116.792 82.7793 117.078 82.4685 117.449C82.1577 117.819 81.9446 118.261 81.8486 118.735C81.7527 119.209 81.7769 119.699 81.919 120.161C82.0612 120.624 82.3168 121.043 82.6626 121.381C82.9545 121.713 83.2777 122.016 83.6278 122.286C85.0174 123.401 86.4897 124.409 88.0318 125.302L119.222 143.401C121.36 144.559 123.806 145.023 126.22 144.728C127.085 144.567 127.934 144.324 128.754 144.004L131.348 142.616L190.651 108.169C191.088 107.998 191.477 107.723 191.784 107.368C192.092 107.013 192.308 106.589 192.415 106.131C192.522 105.674 192.516 105.198 192.398 104.744C192.28 104.289 192.053 103.871 191.737 103.523C191.401 103.174 191.038 102.851 190.651 102.558C189.336 101.557 187.967 100.631 186.549 99.783L155.962 82.1067L154.876 81.5034C153.31 80.745 151.607 80.3139 149.869 80.2365C148.227 80.0957 146.578 80.4087 145.103 81.1414Z" fill="black"/>
<path opacity="0.91" d="M145.282 81.3831L83.8069 116.856C83.363 117.046 82.9749 117.346 82.6793 117.728C82.3838 118.11 82.1906 118.56 82.1181 119.038C82.0456 119.515 82.0962 120.003 82.265 120.455C82.4339 120.908 82.7154 121.309 83.083 121.622L84.1086 122.467C84.1086 122.467 88.3919 125.182 88.5729 125.242L119.341 143.039C121.511 144.167 123.972 144.609 126.399 144.306C127.237 144.089 128.063 143.827 128.872 143.522C128.872 143.522 131.286 142.134 131.406 142.134L190.649 107.928C191.089 107.755 191.478 107.473 191.779 107.107C192.08 106.742 192.282 106.306 192.366 105.841C192.451 105.375 192.415 104.896 192.262 104.448C192.11 104 191.845 103.599 191.494 103.282C191.151 102.917 190.766 102.593 190.347 102.317C190.347 102.317 186.366 99.8437 186.185 99.723L156.02 82.3484L154.934 81.7451C153.399 80.9537 151.712 80.5011 149.988 80.4178C148.361 80.3098 146.735 80.6433 145.282 81.3831Z" fill="black"/>
<path opacity="0.2" d="M128.995 143.159L190.651 107.626C193.064 106.238 192.763 103.825 189.988 102.196L154.876 82.0463C153.44 81.2423 151.835 80.7855 150.191 80.7121C148.546 80.6388 146.907 80.9511 145.405 81.624L83.9297 117.158C81.5166 118.545 81.8182 121.019 84.6536 122.587L119.524 142.737C120.96 143.541 122.565 143.998 124.209 144.071C125.854 144.144 127.493 143.832 128.995 143.159Z" fill="black"/>
</g>
<path d="M128.996 143.099L190.652 107.626C191.104 107.408 191.492 107.077 191.777 106.665C192.063 106.252 192.236 105.773 192.281 105.273V102.196C192.281 101.171 191.496 102.98 189.988 102.196L155.058 82.0463C153.621 81.2423 152.017 80.7855 150.372 80.7121C148.727 80.6388 147.089 80.9511 145.586 81.624L83.9302 117.097C83.146 117.58 82.5427 115.589 82.3617 116.192C82.1807 116.796 82.3617 119.209 82.3617 119.39C82.438 120.075 82.6964 120.728 83.1102 121.279C83.524 121.831 84.0779 122.262 84.7145 122.527L119.584 142.677C121.013 143.471 122.607 143.922 124.24 143.996C125.874 144.069 127.501 143.762 128.996 143.099Z" fill="url(#paint13_linear)"/>
<path d="M128.995 140.084L190.651 104.61C193.064 103.223 192.763 100.749 189.988 99.1206L155.057 78.9708C153.603 78.132 151.972 77.6459 150.295 77.5516C148.619 77.4573 146.944 77.7574 145.405 78.4278L83.9297 114.082C81.5166 115.47 81.8182 117.943 84.6536 119.572L119.524 139.722C120.958 140.535 122.567 140.992 124.215 141.055C125.863 141.118 127.502 140.785 128.995 140.084Z" fill="url(#paint14_linear)"/>
<path d="M124.892 139.842C126.104 139.868 127.305 139.599 128.391 139.058L189.866 103.524C190.228 103.524 190.891 102.86 190.891 102.257C190.891 101.654 190.228 100.809 189.142 100.206L154.453 80.0562C152.984 79.2829 151.346 78.8888 149.687 78.91C148.472 78.8631 147.266 79.1334 146.188 79.6943L84.5317 115.168C84.1697 115.168 83.5664 115.831 83.5664 116.495C83.5664 117.158 84.1697 117.882 85.2556 118.486L120.126 138.756C121.589 139.537 123.234 139.912 124.892 139.842Z" fill="url(#paint15_linear)"/>
<path style="mix-blend-mode:screen" d="M84.6516 119.028L119.522 139.178C120.958 139.982 122.563 140.439 124.207 140.512C125.852 140.585 127.491 140.273 128.993 139.6L190.649 104.127C191.069 103.914 191.434 103.607 191.716 103.23C191.998 102.854 192.191 102.418 192.278 101.955C192.303 102.51 192.161 103.059 191.871 103.532C191.581 104.006 191.155 104.381 190.649 104.61L128.993 140.083C127.5 140.784 125.861 141.117 124.213 141.054C122.565 140.991 120.956 140.534 119.522 139.721L84.6516 119.571C83.9854 119.298 83.4106 118.841 82.994 118.253C82.5775 117.666 82.3364 116.972 82.2988 116.253C82.4594 116.862 82.754 117.427 83.1611 117.907C83.5681 118.387 84.0774 118.77 84.6516 119.028Z" fill="url(#paint16_radial)"/>
<path style="mix-blend-mode:color-dodge" d="M141.784 86.7516C140.155 91.5176 145.343 97.5505 153.306 100.326C161.27 103.101 169.173 101.472 170.802 96.7662C172.431 92.0606 167.242 85.9674 159.219 83.1922C151.195 80.4171 143.412 82.046 141.784 86.7516Z" fill="url(#paint17_radial)"/>
<path d="M118.256 127.051L168.148 98.214C169.173 97.6107 169.053 96.6454 168.148 95.9818L149.386 85.1227C148.774 84.8285 148.104 84.6758 147.425 84.6758C146.746 84.6758 146.076 84.8285 145.464 85.1227L95.5723 113.96C94.5467 114.563 94.6674 115.528 95.5723 116.252L114.154 126.689C114.76 127.07 115.448 127.301 116.161 127.364C116.874 127.427 117.592 127.32 118.256 127.051Z" fill="url(#paint18_linear)"/>
<path style="mix-blend-mode:screen" opacity="0.3" d="M147.881 86.3897C147.659 86.2682 147.41 86.2046 147.157 86.2046C146.904 86.2046 146.655 86.2682 146.433 86.3897L143.236 88.2599C142.813 88.2599 142.813 88.8632 143.236 89.1045C143.47 89.2213 143.728 89.2822 143.99 89.2822C144.252 89.2822 144.51 89.2213 144.744 89.1045L147.941 87.2343C148.424 86.993 148.424 86.631 147.881 86.3897ZM142.391 89.5268C141.926 89.3451 141.409 89.3451 140.943 89.5268L139.435 90.4317C139.013 90.4317 139.013 91.035 139.435 91.2763C139.657 91.3978 139.906 91.4614 140.159 91.4614C140.412 91.4614 140.661 91.3978 140.883 91.2763L142.391 90.492C142.813 90.492 142.813 89.7681 142.391 89.5268ZM138.59 91.7589C138.368 91.6375 138.12 91.5738 137.867 91.5738C137.613 91.5738 137.365 91.6375 137.143 91.7589L135.634 92.6036C135.212 92.6036 135.212 93.2068 135.634 93.4482C135.856 93.5696 136.105 93.6333 136.358 93.6333C136.611 93.6333 136.86 93.5696 137.082 93.4482L138.59 92.6036C139.013 92.3622 139.013 92.0003 138.59 91.7589ZM134.79 93.9308C134.568 93.8093 134.319 93.7457 134.066 93.7457C133.813 93.7457 133.564 93.8093 133.342 93.9308L131.834 94.8357C131.411 94.8357 131.411 95.439 131.834 95.6803C132.299 95.862 132.816 95.862 133.282 95.6803L134.79 94.7754C135.212 94.5341 135.212 94.1721 134.79 93.9308ZM130.989 96.1026C130.767 95.9812 130.518 95.9175 130.265 95.9175C130.012 95.9175 129.763 95.9812 129.541 96.1026L128.033 97.0075C127.611 97.0075 127.611 97.6108 128.033 97.8521C128.255 97.9736 128.504 98.0373 128.757 98.0373C129.01 98.0373 129.259 97.9736 129.481 97.8521L130.989 96.9472C131.411 96.5249 131.411 96.5249 130.989 96.1026ZM127.249 98.3348C127.014 98.2179 126.756 98.1571 126.495 98.1571C126.233 98.1571 125.975 98.2179 125.74 98.3348L124.232 99.1794C123.81 99.1794 123.81 99.7827 124.232 100.024C124.454 100.145 124.703 100.209 124.956 100.209C125.209 100.209 125.458 100.145 125.68 100.024L127.249 99.1794C127.324 99.1376 127.387 99.0765 127.431 99.0022C127.475 98.9279 127.498 98.8433 127.498 98.7571C127.498 98.6709 127.475 98.5862 127.431 98.512C127.387 98.4377 127.324 98.3765 127.249 98.3348ZM123.448 100.507C123.214 100.39 122.956 100.329 122.694 100.329C122.432 100.329 122.174 100.39 121.94 100.507L120.432 101.351C120.339 101.385 120.259 101.447 120.203 101.528C120.147 101.609 120.117 101.705 120.117 101.804C120.117 101.902 120.147 101.998 120.203 102.079C120.259 102.16 120.339 102.222 120.432 102.256C120.669 102.361 120.926 102.415 121.186 102.415C121.445 102.415 121.702 102.361 121.94 102.256L123.448 101.412C123.54 101.377 123.62 101.316 123.676 101.235C123.732 101.154 123.763 101.058 123.763 100.959C123.763 100.861 123.732 100.764 123.676 100.684C123.62 100.603 123.54 100.541 123.448 100.507ZM119.647 102.678C119.443 102.548 119.21 102.469 118.968 102.448C118.727 102.427 118.484 102.465 118.26 102.558L116.691 103.463C116.616 103.504 116.553 103.566 116.509 103.64C116.465 103.714 116.442 103.799 116.442 103.885C116.442 103.971 116.465 104.056 116.509 104.13C116.553 104.204 116.616 104.266 116.691 104.307C116.925 104.424 117.184 104.485 117.445 104.485C117.707 104.485 117.965 104.424 118.199 104.307L119.708 103.402C120.07 103.282 120.07 102.92 119.647 102.558V102.678ZM115.847 104.911C115.625 104.789 115.376 104.726 115.123 104.726C114.87 104.726 114.621 104.789 114.399 104.911L112.89 105.755C112.468 105.755 112.468 106.358 112.89 106.6C113.125 106.717 113.383 106.777 113.645 106.777C113.906 106.777 114.164 106.717 114.399 106.6L115.907 105.755C116.269 105.514 116.269 105.092 115.847 104.911ZM112.046 107.082C111.824 106.961 111.575 106.897 111.322 106.897C111.069 106.897 110.82 106.961 110.598 107.082L109.09 107.927C108.667 107.927 108.667 108.591 109.09 108.772C109.312 108.893 109.561 108.957 109.814 108.957C110.067 108.957 110.316 108.893 110.538 108.772L112.046 107.927C112.227 107.686 112.227 107.324 112.227 107.082H112.046ZM108.245 109.254C108.023 109.133 107.774 109.069 107.521 109.069C107.268 109.069 107.019 109.133 106.797 109.254L105.289 110.159C104.867 110.159 104.867 110.762 105.289 111.004C105.511 111.125 105.76 111.189 106.013 111.189C106.266 111.189 106.515 111.125 106.737 111.004L108.245 110.099C108.667 109.858 108.667 109.496 108.245 109.254ZM104.444 111.426C103.979 111.244 103.462 111.244 102.997 111.426L101.488 112.331C101.066 112.331 101.066 112.934 101.488 113.176C101.71 113.297 101.959 113.361 102.212 113.361C102.465 113.361 102.714 113.297 102.936 113.176L104.444 112.331C104.537 112.297 104.616 112.235 104.673 112.154C104.729 112.073 104.759 111.977 104.759 111.879C104.759 111.78 104.729 111.684 104.673 111.603C104.616 111.522 104.537 111.46 104.444 111.426ZM100.583 113.719C100.361 113.597 100.112 113.533 99.8594 113.533C99.6064 113.533 99.3575 113.597 99.1355 113.719L97.6273 114.563C97.205 114.563 97.205 115.166 97.6273 115.408C97.8492 115.529 98.0982 115.593 98.3512 115.593C98.6042 115.593 98.8532 115.529 99.0752 115.408L100.583 114.563C101.006 114.624 101.006 113.9 100.583 113.719ZM151.259 88.3805L149.993 87.5963C149.727 87.4763 149.439 87.4143 149.148 87.4143C148.857 87.4143 148.569 87.4763 148.303 87.5963L146.976 88.3805C146.554 88.3805 146.554 89.0442 146.976 89.3458L148.303 90.0697C148.56 90.218 148.851 90.2961 149.148 90.2961C149.444 90.2961 149.736 90.218 149.993 90.0697L151.259 89.3458C151.742 89.0442 151.742 88.6219 151.259 88.3805ZM146.192 92.3019L147.519 91.5176C147.608 91.472 147.682 91.4028 147.734 91.3176C147.786 91.2325 147.813 91.1347 147.813 91.035C147.813 90.9353 147.786 90.8375 147.734 90.7524C147.682 90.6673 147.608 90.5981 147.519 90.5524L146.192 89.7681C145.93 89.6356 145.641 89.5665 145.347 89.5665C145.054 89.5665 144.764 89.6356 144.503 89.7681L143.236 90.492C142.753 90.7937 142.753 91.216 143.236 91.4573L144.563 92.2416C144.816 92.3624 145.091 92.4301 145.371 92.4405C145.651 92.4509 145.931 92.4037 146.192 92.3019ZM143.718 92.7242L142.391 92.0003C142.134 91.852 141.843 91.774 141.547 91.774C141.25 91.774 140.959 91.852 140.702 92.0003L139.435 92.7242C138.952 93.0259 138.952 93.4482 139.435 93.6895L140.702 94.4737C140.967 94.5937 141.255 94.6557 141.547 94.6557C141.838 94.6557 142.126 94.5937 142.391 94.4737L143.718 93.6895C144.141 93.4482 144.141 93.0259 143.718 92.7242ZM139.918 94.9564L138.59 94.1721C138.335 94.0534 138.057 93.9919 137.776 93.9919C137.495 93.9919 137.217 94.0534 136.962 94.1721L135.634 94.9564C135.152 94.9564 135.152 95.62 135.634 95.9216L136.901 96.6456C137.158 96.7938 137.449 96.8719 137.746 96.8719C138.042 96.8719 138.334 96.7938 138.59 96.6456L139.918 95.9216C140.34 95.62 140.34 95.1977 139.918 94.9564ZM131.834 98.0935L133.101 98.8174C133.357 98.9657 133.649 99.0437 133.945 99.0437C134.242 99.0437 134.533 98.9657 134.79 98.8174L136.117 98.0935C136.6 97.7918 136.6 97.3695 136.117 97.1282L134.79 96.5249C134.535 96.4062 134.257 96.3447 133.975 96.3447C133.694 96.3447 133.416 96.4062 133.161 96.5249L131.834 97.3092C131.771 97.3539 131.721 97.4127 131.686 97.4809C131.651 97.5491 131.632 97.6247 131.632 97.7013C131.632 97.778 131.651 97.8535 131.686 97.9217C131.721 97.9899 131.771 98.0488 131.834 98.0935ZM128.033 100.265L129.36 101.05C129.615 101.168 129.893 101.23 130.175 101.23C130.456 101.23 130.734 101.168 130.989 101.05L132.316 100.265C132.799 100.265 132.799 99.6017 132.316 99.3L130.989 98.5761C130.744 98.427 130.462 98.3481 130.175 98.3481C129.887 98.3481 129.606 98.427 129.36 98.5761L128.033 99.3C127.55 99.6017 127.55 100.024 128.033 100.265ZM124.293 102.558L125.62 103.282C125.875 103.4 126.153 103.462 126.434 103.462C126.716 103.462 126.994 103.4 127.249 103.282L128.516 102.558C128.998 102.558 128.998 101.894 128.516 101.593L127.249 100.869C126.983 100.749 126.695 100.687 126.404 100.687C126.113 100.687 125.825 100.749 125.559 100.869L124.232 101.653C123.75 101.774 123.75 102.196 124.293 102.558ZM120.492 104.73L121.819 105.454C122.065 105.603 122.346 105.682 122.634 105.682C122.921 105.682 123.202 105.603 123.448 105.454L124.775 104.73C125.258 104.428 125.258 104.006 124.775 103.764L123.508 102.98C123.243 102.86 122.955 102.798 122.664 102.798C122.372 102.798 122.084 102.86 121.819 102.98L120.492 103.764C120.414 103.809 120.348 103.872 120.3 103.948C120.252 104.024 120.224 104.111 120.218 104.201C120.212 104.29 120.228 104.38 120.266 104.462C120.303 104.544 120.36 104.615 120.432 104.669L120.492 104.73ZM116.691 106.901L118.018 107.686C118.284 107.806 118.572 107.868 118.863 107.868C119.154 107.868 119.442 107.806 119.708 107.686L120.974 106.901C121.102 106.901 121.225 106.851 121.316 106.76C121.406 106.67 121.457 106.547 121.457 106.419C121.457 106.291 121.406 106.168 121.316 106.078C121.225 105.987 121.102 105.936 120.974 105.936L119.708 105.212C119.451 105.064 119.159 104.986 118.863 104.986C118.566 104.986 118.275 105.064 118.018 105.212L116.691 105.936C116.209 106.178 116.209 106.6 116.631 106.841L116.691 106.901ZM112.89 109.134L114.218 109.858C114.483 109.977 114.771 110.04 115.062 110.04C115.354 110.04 115.641 109.977 115.907 109.858L117.174 109.073C117.656 109.073 117.656 108.41 117.174 108.108L115.847 107.384C115.581 107.264 115.293 107.202 115.002 107.202C114.711 107.202 114.423 107.264 114.157 107.384L112.83 108.168C112.227 108.591 112.227 108.591 112.83 109.073L112.89 109.134ZM113.433 110.34L112.227 109.496C111.961 109.376 111.673 109.314 111.382 109.314C111.091 109.314 110.803 109.376 110.538 109.496L109.271 110.28C108.788 110.28 108.788 110.943 109.271 111.245L110.538 111.969C110.794 112.117 111.086 112.195 111.382 112.195C111.679 112.195 111.97 112.117 112.227 111.969L113.554 111.245C113.795 110.943 113.795 110.521 113.373 110.28L113.433 110.34ZM105.349 113.477L106.616 114.262C106.882 114.381 107.17 114.444 107.461 114.444C107.752 114.444 108.04 114.381 108.305 114.262L109.633 113.477C109.721 113.432 109.796 113.362 109.848 113.277C109.899 113.192 109.927 113.094 109.927 112.995C109.927 112.895 109.899 112.797 109.848 112.712C109.796 112.627 109.721 112.558 109.633 112.512L108.305 111.788C108.049 111.64 107.757 111.562 107.461 111.562C107.164 111.562 106.873 111.64 106.616 111.788L105.349 112.512C104.806 112.753 104.806 113.176 105.289 113.417L105.349 113.477ZM99.7991 116.675L101.066 117.459C101.331 117.579 101.619 117.641 101.911 117.641C102.202 117.641 102.49 117.579 102.755 117.459L105.772 115.709C105.86 115.664 105.935 115.595 105.987 115.509C106.038 115.424 106.066 115.327 106.066 115.227C106.066 115.127 106.038 115.029 105.987 114.944C105.935 114.859 105.86 114.79 105.772 114.744L104.444 114.02C104.188 113.872 103.896 113.794 103.6 113.794C103.303 113.794 103.012 113.872 102.755 114.02L99.7991 115.709C99.2562 115.951 99.2561 116.373 99.7388 116.614L99.7991 116.675ZM154.819 90.492L153.492 89.7681C153.235 89.6198 152.944 89.5418 152.647 89.5418C152.351 89.5418 152.059 89.6198 151.802 89.7681L148.846 91.5176C148.364 91.5176 148.364 92.1813 148.846 92.4829L150.113 93.2068C150.379 93.3268 150.667 93.3888 150.958 93.3888C151.249 93.3888 151.537 93.3268 151.802 93.2068L154.819 91.4573C155.241 91.0953 155.241 90.492 154.819 90.492ZM149.329 93.6895L148.002 92.9052C147.747 92.7865 147.469 92.725 147.187 92.725C146.906 92.725 146.628 92.7865 146.373 92.9052L145.046 93.6895C144.563 93.6895 144.563 94.3531 145.046 94.6547L146.313 95.3787C146.569 95.5269 146.861 95.605 147.157 95.605C147.454 95.605 147.745 95.5269 148.002 95.3787L149.329 94.6547C149.812 94.2324 149.812 93.8101 149.329 93.5688V93.6895ZM145.528 96.8266C145.656 96.8266 145.779 96.7757 145.87 96.6852C145.96 96.5947 146.011 96.4719 146.011 96.3439C146.011 96.2159 145.96 96.0932 145.87 96.0027C145.779 95.9121 145.656 95.8613 145.528 95.8613L144.201 95.1374C143.956 94.9882 143.674 94.9093 143.387 94.9093C143.099 94.9093 142.818 94.9882 142.572 95.1374L141.245 95.8613C140.762 96.1629 140.762 96.5852 141.245 96.8266L142.572 97.6108C142.827 97.7295 143.105 97.791 143.387 97.791C143.668 97.791 143.946 97.7295 144.201 97.6108L145.528 96.8266ZM141.728 98.9984C142.21 98.9984 142.21 98.3348 141.728 98.0331L140.461 97.3092C140.204 97.1609 139.913 97.0829 139.616 97.0829C139.32 97.0829 139.028 97.1609 138.771 97.3092L137.444 98.0331C136.962 98.3348 136.962 98.7571 137.444 98.9984L138.771 99.7827C139.027 99.9014 139.305 99.9629 139.586 99.9629C139.867 99.9629 140.145 99.9014 140.4 99.7827L141.728 98.9984ZM134.971 99.481L133.643 100.265C133.221 100.265 133.221 100.929 133.643 101.231L134.971 101.954C135.216 102.104 135.498 102.183 135.785 102.183C136.072 102.183 136.354 102.104 136.6 101.954L137.927 101.231C138.409 100.929 138.409 100.507 137.927 100.265L136.66 99.481C136.403 99.3418 136.12 99.259 135.828 99.2382C135.537 99.2174 135.245 99.2591 134.971 99.3604V99.481ZM131.23 101.653L129.782 102.497C129.36 102.497 129.36 103.101 129.782 103.342L131.23 104.187C131.465 104.304 131.723 104.364 131.984 104.364C132.246 104.364 132.504 104.304 132.739 104.187L134.247 103.342C134.669 103.342 134.669 102.739 134.247 102.497L132.739 101.653C132.514 101.517 132.261 101.435 131.999 101.414C131.737 101.393 131.474 101.434 131.23 101.532V101.653ZM127.49 103.825L125.982 104.669C125.889 104.704 125.81 104.765 125.753 104.846C125.697 104.927 125.667 105.023 125.667 105.122C125.667 105.22 125.697 105.316 125.753 105.397C125.81 105.478 125.889 105.54 125.982 105.574L127.43 106.419C127.664 106.536 127.922 106.596 128.184 106.596C128.445 106.596 128.704 106.536 128.938 106.419L130.446 105.514C130.868 105.514 130.868 104.911 130.446 104.669L128.998 103.825C128.773 103.689 128.52 103.607 128.258 103.586C127.997 103.565 127.733 103.606 127.49 103.704V103.825ZM123.689 105.997L122.181 106.841C122.089 106.875 122.009 106.937 121.953 107.018C121.897 107.099 121.866 107.195 121.866 107.294C121.866 107.392 121.897 107.488 121.953 107.569C122.009 107.65 122.089 107.712 122.181 107.746L123.629 108.591C123.863 108.708 124.121 108.768 124.383 108.768C124.645 108.768 124.903 108.708 125.137 108.591L126.645 107.746C126.738 107.712 126.817 107.65 126.874 107.569C126.93 107.488 126.96 107.392 126.96 107.294C126.96 107.195 126.93 107.099 126.874 107.018C126.817 106.937 126.738 106.875 126.645 106.841L125.197 105.997C124.973 105.861 124.719 105.779 124.458 105.758C124.196 105.737 123.933 105.777 123.689 105.876V105.997ZM119.889 108.229L118.38 109.073C117.958 109.073 117.958 109.677 118.38 109.918L119.889 110.762C120.123 110.879 120.381 110.94 120.643 110.94C120.904 110.94 121.163 110.879 121.397 110.762L122.845 109.918C123.267 109.918 123.267 109.315 122.845 109.073L121.397 108.229C121.172 108.093 120.919 108.011 120.657 107.99C120.395 107.969 120.132 108.01 119.889 108.108V108.229ZM116.088 110.401L114.58 111.245C114.504 111.287 114.441 111.348 114.398 111.422C114.354 111.497 114.331 111.581 114.331 111.667C114.331 111.754 114.354 111.838 114.398 111.913C114.441 111.987 114.504 112.048 114.58 112.09L116.088 112.934C116.322 113.051 116.58 113.112 116.842 113.112C117.104 113.112 117.362 113.051 117.596 112.934L119.044 112.09C119.466 112.09 119.466 111.486 119.044 111.245L117.596 110.401C117.371 110.265 117.118 110.183 116.856 110.162C116.594 110.141 116.331 110.181 116.088 110.28V110.401ZM113.795 115.166L115.243 114.322C115.336 114.288 115.415 114.226 115.472 114.145C115.528 114.064 115.558 113.968 115.558 113.869C115.558 113.771 115.528 113.675 115.472 113.594C115.415 113.513 115.336 113.451 115.243 113.417L113.795 112.572C113.561 112.456 113.303 112.395 113.041 112.395C112.78 112.395 112.521 112.456 112.287 112.572L110.839 113.417C110.747 113.451 110.667 113.513 110.611 113.594C110.555 113.675 110.525 113.771 110.525 113.869C110.525 113.968 110.555 114.064 110.611 114.145C110.667 114.226 110.747 114.288 110.839 114.322L112.287 115.166C112.531 115.265 112.794 115.305 113.056 115.284C113.317 115.264 113.571 115.182 113.795 115.046V115.166ZM109.995 117.338L111.443 116.494C111.865 116.494 111.865 115.83 111.443 115.649L109.995 114.624C109.757 114.519 109.5 114.465 109.241 114.465C108.981 114.465 108.724 114.519 108.486 114.624L107.039 115.468C106.616 115.468 106.616 116.071 107.039 116.313L108.486 117.157C108.716 117.284 108.972 117.355 109.233 117.365C109.495 117.376 109.756 117.325 109.995 117.218V117.338ZM103.117 118.726L104.625 119.57C104.86 119.687 105.118 119.748 105.38 119.748C105.641 119.748 105.899 119.687 106.134 119.57L107.582 118.726C108.004 118.726 108.004 118.123 107.582 117.881L106.194 116.916C105.96 116.799 105.702 116.738 105.44 116.738C105.178 116.738 104.92 116.799 104.686 116.916L103.238 117.761C102.755 118.002 102.755 118.364 103.117 118.605V118.726ZM158.378 92.6036L156.93 91.7589C156.696 91.6421 156.438 91.5813 156.176 91.5813C155.915 91.5813 155.656 91.6421 155.422 91.7589L150.656 94.4737C150.564 94.508 150.484 94.5698 150.428 94.6506C150.372 94.7315 150.341 94.8277 150.341 94.9262C150.341 95.0247 150.372 95.1209 150.428 95.2018C150.484 95.2827 150.564 95.3444 150.656 95.3787L152.104 96.2233C152.338 96.3401 152.596 96.4009 152.858 96.4009C153.12 96.4009 153.378 96.3401 153.612 96.2233L158.378 93.4482C158.801 93.0862 158.801 92.7242 158.378 92.4829V92.6036ZM151.32 96.5249L149.872 95.6803C149.638 95.5635 149.38 95.5026 149.118 95.5026C148.856 95.5026 148.598 95.5635 148.364 95.6803L146.855 96.5852C146.433 96.5852 146.433 97.1885 146.855 97.4298L148.303 98.2745C148.538 98.3913 148.796 98.4521 149.057 98.4521C149.319 98.4521 149.577 98.3913 149.812 98.2745L151.32 97.4298C151.412 97.3956 151.492 97.3338 151.548 97.253C151.604 97.1721 151.634 97.0759 151.634 96.9774C151.634 96.8789 151.604 96.7827 151.548 96.7018C151.492 96.6209 151.412 96.5592 151.32 96.5249ZM147.519 98.7571L146.071 97.9125C145.837 97.7956 145.579 97.7348 145.317 97.7348C145.055 97.7348 144.797 97.7956 144.563 97.9125L143.055 98.7571C142.632 98.7571 142.632 99.3604 143.055 99.6017L144.563 100.446C144.797 100.563 145.055 100.624 145.317 100.624C145.579 100.624 145.837 100.563 146.071 100.446L147.519 99.6017C147.941 99.3604 147.941 98.9984 147.519 98.7571ZM143.718 100.929L142.391 100.084C142.157 99.9675 141.899 99.9066 141.637 99.9066C141.375 99.9066 141.117 99.9675 140.883 100.084L139.375 100.929C139.282 100.963 139.203 101.025 139.146 101.106C139.09 101.187 139.06 101.283 139.06 101.381C139.06 101.48 139.09 101.576 139.146 101.657C139.203 101.738 139.282 101.8 139.375 101.834L140.883 102.678C141.126 102.777 141.389 102.817 141.651 102.796C141.913 102.775 142.166 102.694 142.391 102.558L143.839 101.653C144.141 101.532 144.141 101.17 143.718 100.929ZM138.47 104.85L139.918 104.006C140.01 103.971 140.09 103.91 140.146 103.829C140.202 103.748 140.232 103.652 140.232 103.553C140.232 103.455 140.202 103.359 140.146 103.278C140.09 103.197 140.01 103.135 139.918 103.101L138.47 102.558C138.236 102.441 137.977 102.38 137.716 102.38C137.454 102.38 137.196 102.441 136.962 102.558L135.514 103.402C135.421 103.437 135.342 103.498 135.285 103.579C135.229 103.66 135.199 103.756 135.199 103.855C135.199 103.953 135.229 104.05 135.285 104.13C135.342 104.211 135.421 104.273 135.514 104.307L136.962 105.152C137.219 105.225 137.49 105.235 137.752 105.183C138.014 105.13 138.26 105.016 138.47 104.85ZM134.669 107.022L136.358 106.178C136.781 106.178 136.781 105.574 136.358 105.333L134.91 104.488C134.676 104.371 134.418 104.311 134.156 104.311C133.895 104.311 133.636 104.371 133.402 104.488L131.954 105.333C131.532 105.333 131.532 105.936 131.954 106.178L133.402 107.022C133.808 107.186 134.263 107.186 134.669 107.022ZM130.868 109.194L132.377 108.349C132.452 108.308 132.515 108.246 132.559 108.172C132.602 108.098 132.626 108.013 132.626 107.927C132.626 107.841 132.602 107.756 132.559 107.682C132.515 107.608 132.452 107.546 132.377 107.505L130.868 106.66C130.634 106.543 130.376 106.482 130.114 106.482C129.853 106.482 129.594 106.543 129.36 106.66L127.912 107.505C127.82 107.539 127.74 107.601 127.684 107.682C127.628 107.763 127.598 107.859 127.598 107.957C127.598 108.056 127.628 108.152 127.684 108.233C127.74 108.314 127.82 108.375 127.912 108.41L129.36 109.254C129.602 109.35 129.861 109.393 130.121 109.383C130.38 109.373 130.635 109.308 130.868 109.194ZM127.068 111.426L128.576 110.582C128.668 110.547 128.748 110.485 128.804 110.405C128.86 110.324 128.891 110.228 128.891 110.129C128.891 110.031 128.86 109.934 128.804 109.853C128.748 109.773 128.668 109.711 128.576 109.677L127.068 108.591C126.833 108.474 126.575 108.413 126.314 108.413C126.052 108.413 125.794 108.474 125.559 108.591L124.112 109.435C124.019 109.47 123.94 109.531 123.883 109.612C123.827 109.693 123.797 109.789 123.797 109.888C123.797 109.986 123.827 110.082 123.883 110.163C123.94 110.244 124.019 110.306 124.112 110.34L125.559 111.185C125.774 111.341 126.023 111.444 126.285 111.486C126.547 111.528 126.815 111.507 127.068 111.426ZM123.267 113.598L124.775 112.753C125.197 112.753 125.197 112.15 124.775 111.909L123.327 111.064C123.093 110.947 122.835 110.886 122.573 110.886C122.311 110.886 122.053 110.947 121.819 111.064L120.311 111.909C119.889 111.909 119.889 112.512 120.311 112.753L121.759 113.598C121.993 113.715 122.251 113.776 122.513 113.776C122.775 113.776 123.033 113.715 123.267 113.598ZM119.466 115.77L120.974 114.925C121.397 114.925 121.397 114.322 120.974 114.081L119.527 113.236C119.292 113.119 119.034 113.058 118.772 113.058C118.511 113.058 118.253 113.119 118.018 113.236L116.51 114.081C116.088 114.081 116.088 114.684 116.51 114.925L117.958 115.77C118.192 115.887 118.45 115.947 118.712 115.947C118.974 115.947 119.232 115.887 119.466 115.77ZM117.174 116.252L115.726 115.408C115.492 115.291 115.234 115.23 114.972 115.23C114.71 115.23 114.452 115.291 114.218 115.408L112.709 116.252C112.617 116.287 112.537 116.348 112.481 116.429C112.425 116.51 112.395 116.606 112.395 116.705C112.395 116.803 112.425 116.9 112.481 116.98C112.537 117.061 112.617 117.123 112.709 117.157L114.218 118.002C114.452 118.119 114.71 118.18 114.972 118.18C115.234 118.18 115.492 118.119 115.726 118.002L117.174 117.157C117.266 117.123 117.346 117.061 117.402 116.98C117.458 116.9 117.488 116.803 117.488 116.705C117.488 116.606 117.458 116.51 117.402 116.429C117.346 116.348 117.266 116.287 117.174 116.252ZM106.677 120.656L108.124 121.501C108.359 121.618 108.617 121.679 108.879 121.679C109.14 121.679 109.398 121.618 109.633 121.501L113.373 119.329C113.465 119.295 113.545 119.233 113.601 119.152C113.658 119.071 113.688 118.975 113.688 118.877C113.688 118.778 113.658 118.682 113.601 118.601C113.545 118.52 113.465 118.459 113.373 118.424L112.227 117.58C111.993 117.463 111.734 117.402 111.473 117.402C111.211 117.402 110.953 117.463 110.719 117.58L106.978 119.751C106.865 119.732 106.748 119.754 106.649 119.813C106.55 119.873 106.476 119.965 106.44 120.075C106.403 120.184 106.407 120.303 106.451 120.409C106.494 120.516 106.574 120.604 106.677 120.656ZM161.877 94.4737L160.49 93.7498C160.224 93.6299 159.936 93.5678 159.645 93.5678C159.354 93.5678 159.066 93.6299 158.801 93.7498L152.044 97.6712C151.561 97.6712 151.561 98.3348 152.044 98.6364L153.311 99.3604C153.567 99.5086 153.859 99.5867 154.155 99.5867C154.452 99.5867 154.743 99.5086 155 99.3604L161.757 95.439C162.36 95.1977 162.36 94.7754 161.877 94.4737ZM152.647 99.843L151.38 99.1191C151.112 98.9712 150.811 98.8936 150.505 98.8936C150.199 98.8936 149.898 98.9712 149.631 99.1191L148.364 99.843C148.236 99.843 148.113 99.8938 148.022 99.9844C147.932 100.075 147.881 100.198 147.881 100.326C147.881 100.454 147.932 100.576 148.022 100.667C148.113 100.757 148.236 100.808 148.364 100.808L149.631 101.532C149.887 101.68 150.179 101.759 150.475 101.759C150.772 101.759 151.063 101.68 151.32 101.532L152.647 100.808C152.736 100.763 152.81 100.693 152.862 100.608C152.914 100.523 152.941 100.425 152.941 100.326C152.941 100.226 152.914 100.128 152.862 100.043C152.81 99.9579 152.736 99.8887 152.647 99.843ZM148.846 102.015L147.579 101.291C147.314 101.171 147.026 101.109 146.735 101.109C146.444 101.109 146.156 101.171 145.89 101.291L144.563 102.015C144.141 102.316 144.08 102.739 144.563 103.04L145.83 103.764C146.106 103.882 146.404 103.943 146.705 103.943C147.005 103.943 147.303 103.882 147.579 103.764L148.846 102.98C149.329 102.558 149.329 102.558 148.846 102.015ZM145.046 104.187L143.779 103.463C143.513 103.343 143.225 103.281 142.934 103.281C142.643 103.281 142.355 103.343 142.09 103.463L140.762 104.247C140.34 104.247 140.34 104.911 140.762 105.212L142.029 105.936C142.297 106.084 142.598 106.162 142.904 106.162C143.21 106.162 143.511 106.084 143.779 105.936L145.046 105.212C145.528 104.911 145.528 104.488 145.046 104.187ZM141.245 106.419L139.978 105.695C139.721 105.547 139.43 105.469 139.133 105.469C138.837 105.469 138.546 105.547 138.289 105.695L137.022 106.419C136.894 106.419 136.771 106.47 136.681 106.56C136.59 106.651 136.539 106.773 136.539 106.901C136.539 107.029 136.59 107.152 136.681 107.243C136.771 107.333 136.894 107.384 137.022 107.384L138.289 108.108C138.546 108.256 138.837 108.334 139.133 108.334C139.43 108.334 139.721 108.256 139.978 108.108L141.245 107.384C141.373 107.384 141.496 107.333 141.586 107.243C141.677 107.152 141.728 107.029 141.728 106.901C141.728 106.773 141.677 106.651 141.586 106.56C141.496 106.47 141.373 106.419 141.245 106.419ZM137.444 108.591L136.358 107.867C136.101 107.718 135.81 107.64 135.514 107.64C135.217 107.64 134.926 107.718 134.669 107.867L133.402 108.591C132.92 108.892 132.92 109.315 133.402 109.616L134.669 110.34C134.934 110.46 135.222 110.522 135.514 110.522C135.805 110.522 136.093 110.46 136.358 110.34L137.625 109.556C137.927 109.315 137.927 108.892 137.444 108.591ZM133.643 110.762L132.377 110.039C132.111 109.919 131.823 109.857 131.532 109.857C131.241 109.857 130.953 109.919 130.687 110.039L129.42 110.762C128.938 111.064 128.938 111.486 129.42 111.788L130.687 112.512C130.953 112.632 131.241 112.694 131.532 112.694C131.823 112.694 132.111 112.632 132.377 112.512L133.643 111.788C134.126 111.486 134.126 111.064 133.643 110.762ZM129.843 112.995L128.576 112.271C128.319 112.122 128.028 112.044 127.731 112.044C127.435 112.044 127.143 112.122 126.887 112.271L125.62 112.995C125.492 112.995 125.369 113.045 125.279 113.136C125.188 113.227 125.137 113.349 125.137 113.477C125.137 113.605 125.188 113.728 125.279 113.819C125.369 113.909 125.492 113.96 125.62 113.96L126.887 114.684C127.143 114.832 127.435 114.91 127.731 114.91C128.028 114.91 128.319 114.832 128.576 114.684L129.843 113.96C130.325 113.658 130.325 113.236 129.843 112.995ZM126.102 115.166L124.836 114.624C124.568 114.476 124.267 114.398 123.961 114.398C123.655 114.398 123.354 114.476 123.086 114.624L121.819 115.347C121.336 115.649 121.336 116.071 121.819 116.313L123.086 117.097C123.351 117.217 123.639 117.279 123.931 117.279C124.222 117.279 124.51 117.217 124.775 117.097L126.042 116.313C126.194 116.321 126.343 116.268 126.456 116.166C126.569 116.064 126.637 115.922 126.645 115.77C126.653 115.618 126.601 115.469 126.499 115.356C126.397 115.243 126.254 115.174 126.102 115.166ZM122.302 117.338L121.035 116.614C120.758 116.497 120.461 116.436 120.16 116.436C119.859 116.436 119.562 116.497 119.285 116.614L118.018 117.338C117.536 117.64 117.536 118.062 118.018 118.364L119.285 119.088C119.551 119.208 119.839 119.27 120.13 119.27C120.421 119.27 120.709 119.208 120.974 119.088L122.302 118.364C122.389 118.31 122.461 118.234 122.511 118.145C122.561 118.055 122.587 117.954 122.587 117.851C122.587 117.748 122.561 117.647 122.511 117.558C122.461 117.468 122.389 117.392 122.302 117.338ZM118.501 119.57L117.234 118.786C116.958 118.668 116.66 118.608 116.359 118.608C116.059 118.608 115.761 118.668 115.485 118.786L114.218 119.57C114.09 119.57 113.967 119.621 113.876 119.712C113.786 119.802 113.735 119.925 113.735 120.053C113.735 120.181 113.786 120.304 113.876 120.394C113.967 120.485 114.09 120.536 114.218 120.536L115.485 121.26C115.752 121.408 116.053 121.485 116.359 121.485C116.665 121.485 116.966 121.408 117.234 121.26L118.26 120.656C118.984 120.234 118.984 119.812 118.26 119.57H118.501ZM110.357 122.768L111.624 123.492C111.88 123.64 112.172 123.718 112.468 123.718C112.765 123.718 113.056 123.64 113.313 123.492L114.58 122.768C115.062 122.466 115.062 122.044 114.58 121.803L113.252 121.079C112.996 120.93 112.704 120.852 112.408 120.852C112.111 120.852 111.82 120.93 111.563 121.079L110.296 121.803C110.168 121.811 110.049 121.869 109.964 121.965C109.879 122.061 109.836 122.187 109.844 122.315C109.852 122.443 109.91 122.563 110.007 122.648C110.103 122.733 110.229 122.776 110.357 122.768ZM159.464 98.6364L160.731 99.4207C160.993 99.5532 161.282 99.6223 161.576 99.6223C161.869 99.6223 162.158 99.5532 162.42 99.4207L165.376 97.7315C165.465 97.6858 165.539 97.6166 165.591 97.5315C165.643 97.4464 165.671 97.3486 165.671 97.2489C165.671 97.1492 165.643 97.0514 165.591 96.9662C165.539 96.8811 165.465 96.8119 165.376 96.7662L164.109 96.0423C163.842 95.8944 163.541 95.8168 163.235 95.8168C162.929 95.8168 162.628 95.8944 162.36 96.0423L159.404 97.7315C158.982 97.7918 158.982 98.2141 159.464 98.4554V98.6364ZM155.663 100.869L156.93 101.593C157.196 101.712 157.484 101.774 157.775 101.774C158.066 101.774 158.354 101.712 158.62 101.593L159.947 100.869C160.369 100.567 160.429 100.145 159.947 99.843L158.68 99.1191C158.403 99.0012 158.106 98.9405 157.805 98.9405C157.504 98.9405 157.207 99.0012 156.93 99.1191L155.663 99.843C155.181 99.9636 155.181 100.386 155.663 100.688V100.869ZM151.863 103.04L153.13 103.764C153.398 103.912 153.698 103.99 154.004 103.99C154.31 103.99 154.611 103.912 154.879 103.764L156.146 103.04C156.629 102.739 156.629 102.316 156.146 102.075L154.879 101.291C154.614 101.171 154.326 101.109 154.035 101.109C153.743 101.109 153.455 101.171 153.19 101.291L151.863 102.075C151.44 102.135 151.44 102.558 151.863 102.859V103.04ZM125.318 118.364L126.585 119.088C126.842 119.236 127.133 119.314 127.43 119.314C127.726 119.314 128.017 119.236 128.274 119.088L152.406 105.212C152.534 105.212 152.656 105.161 152.747 105.071C152.837 104.98 152.888 104.858 152.888 104.73C152.888 104.602 152.837 104.479 152.747 104.388C152.656 104.298 152.534 104.247 152.406 104.247L151.139 103.523C150.882 103.375 150.591 103.297 150.294 103.297C149.998 103.297 149.706 103.375 149.45 103.523L125.318 117.399C125.256 117.443 125.205 117.502 125.17 117.57C125.135 117.639 125.117 117.714 125.117 117.791C125.117 117.867 125.135 117.943 125.17 118.011C125.205 118.079 125.256 118.138 125.318 118.183V118.364ZM121.517 120.536L122.784 121.32C123.057 121.453 123.356 121.522 123.659 121.522C123.962 121.522 124.262 121.453 124.534 121.32L125.801 120.596C125.929 120.596 126.052 120.545 126.142 120.455C126.233 120.364 126.283 120.241 126.283 120.113C126.283 119.985 126.233 119.863 126.142 119.772C126.052 119.682 125.929 119.631 125.801 119.631L124.293 118.666C124.036 118.517 123.744 118.439 123.448 118.439C123.151 118.439 122.86 118.517 122.603 118.666L121.276 119.389C121.095 119.691 121.035 120.113 121.517 120.656V120.536ZM117.717 122.768L118.984 123.492C119.26 123.61 119.558 123.67 119.858 123.67C120.159 123.67 120.457 123.61 120.733 123.492L122 122.768C122.483 122.466 122.483 122.044 122 121.742L120.733 120.656C120.468 120.536 120.18 120.474 119.889 120.474C119.597 120.474 119.309 120.536 119.044 120.656L117.717 121.38C117.557 121.38 117.403 121.444 117.29 121.557C117.177 121.67 117.113 121.824 117.113 121.984C117.113 122.144 117.177 122.297 117.29 122.41C117.403 122.523 117.557 122.587 117.717 122.587V122.768ZM113.856 125L115.123 125.724C115.399 125.842 115.697 125.903 115.997 125.903C116.298 125.903 116.596 125.842 116.872 125.724L118.139 125C118.622 124.698 118.622 124.276 118.139 123.974L116.872 123.251C116.596 123.133 116.298 123.072 115.997 123.072C115.697 123.072 115.399 123.133 115.123 123.251L113.856 123.974C113.373 124.095 113.373 124.517 113.856 124.819V125Z" fill="url(#paint19_linear)"/>
<path d="M84.8934 113.598L144.136 79.3915C145.42 78.5025 146.477 77.3239 147.221 75.951C147.965 74.5781 148.375 73.0494 148.419 71.4885V25.0354C148.419 21.9586 146.549 20.5711 144.257 21.8983L84.8934 56.1047C83.6395 57.0097 82.6153 58.1961 81.9029 59.5686C81.1904 60.9411 80.8096 62.4614 80.791 64.0077V110.461C80.791 113.538 82.6009 114.925 84.8934 113.598Z" fill="url(#paint20_linear)"/>
<path d="M84.413 111.246L142.992 77.402C143.951 76.725 144.725 75.8177 145.241 74.7634C145.758 73.7092 146.001 72.5419 145.948 71.3691V24.7953C145.955 24.6652 145.926 24.5356 145.866 24.4204C145.805 24.3051 145.714 24.2084 145.603 24.1404C145.492 24.0724 145.364 24.0358 145.234 24.0342C145.103 24.0327 144.975 24.0664 144.862 24.1317L86.1022 58.0968C85.0557 58.6876 84.2095 59.5774 83.6721 60.6523C83.1346 61.7271 82.9305 62.938 83.0857 64.1296V110.703C83.0921 110.843 83.1328 110.978 83.2042 111.098C83.2756 111.217 83.3754 111.317 83.4949 111.389C83.6143 111.461 83.7496 111.502 83.8888 111.508C84.0279 111.515 84.1665 111.487 84.2923 111.427L84.413 111.246Z" fill="url(#paint21_linear)"/>
<g style="mix-blend-mode:multiply">
<path d="M83.0838 64.0091V110.583C83.0902 110.722 83.1309 110.857 83.2023 110.977C83.2737 111.097 83.3735 111.197 83.493 111.268C83.6124 111.34 83.7477 111.381 83.8868 111.388C84.026 111.394 84.1646 111.367 84.2904 111.307L142.87 77.4624C143.829 76.7855 144.602 75.8781 145.119 74.8239C145.635 73.7696 145.879 72.6023 145.826 71.4295V24.7954C145.823 24.6812 145.793 24.5693 145.738 24.4689C145.684 24.3685 145.606 24.2824 145.512 24.2177C145.418 24.153 145.31 24.1115 145.197 24.0965C145.083 24.0816 144.968 24.0937 144.86 24.1318L86.1002 58.0969C85.0745 58.6795 84.242 59.5501 83.7059 60.6009C83.1698 61.6517 82.9535 62.8366 83.0838 64.0091ZM83.5664 64.0091C83.494 62.9292 83.7135 61.8498 84.2017 60.8839C84.69 59.918 85.4291 59.1012 86.3416 58.5192L145.102 24.5541C145.182 24.5541 145.258 24.5859 145.315 24.6425C145.372 24.699 145.403 24.7758 145.403 24.8558V71.5502C145.434 72.6239 145.196 73.6883 144.712 74.6469C144.227 75.6056 143.511 76.4282 142.628 77.0401L83.9284 110.945C83.8432 110.93 83.7659 110.886 83.7106 110.82C83.6553 110.753 83.6256 110.669 83.6268 110.583L83.5664 64.0091Z" fill="#BCBEC0"/>
</g>
<path d="M83.7479 55.4417L142.991 21.2353C143.339 20.9951 143.737 20.8376 144.155 20.7748C144.574 20.7121 145.001 20.7458 145.404 20.8733L146.731 21.5973C146.337 21.3696 145.889 21.2497 145.434 21.2497C144.979 21.2497 144.531 21.3696 144.137 21.5973L84.8942 56.1053C83.6403 57.0104 82.6161 58.1967 81.9037 59.5692C81.1913 60.9417 80.8104 62.4621 80.7918 64.0083V110.461C80.7918 112.392 81.5158 113.659 82.6017 114.021H82.2397L80.8522 113.237C80.3996 112.831 80.0491 112.325 79.8289 111.759C79.6088 111.193 79.5253 110.583 79.5853 109.979V63.5257C79.592 61.9454 79.9727 60.389 80.6962 58.984C81.4197 57.579 82.4654 56.3651 83.7479 55.4417Z" fill="url(#paint22_linear)"/>
<path style="mix-blend-mode:screen" d="M84.7135 55.9849L143.956 21.7785C144.339 21.5826 144.763 21.4805 145.193 21.4805C145.623 21.4805 146.047 21.5826 146.43 21.7785C145.737 21.6681 145.027 21.8186 144.439 22.2008L85.1961 56.1659C83.9317 57.0606 82.8996 58.2448 82.1859 59.6196C81.4723 60.9944 81.0978 62.52 81.0937 64.0689V110.522C81 111.2 81.1038 111.891 81.3927 112.511C81.6816 113.132 82.1434 113.656 82.7226 114.021C81.4557 114.021 80.5508 112.453 80.5508 110.401V63.9483C80.5764 62.3884 80.9661 60.8561 81.6888 59.4735C82.4115 58.0909 83.4473 56.8963 84.7135 55.9849Z" fill="url(#paint23_radial)"/>
<path style="mix-blend-mode:color-dodge" d="M79.7679 63.6462C81.2761 64.3098 83.267 62.9222 84.2322 60.6297C85.1975 58.3373 84.6545 55.9844 83.1463 55.3812C81.6381 54.7779 79.6472 56.1051 78.7423 58.3976C77.8374 60.6901 78.2597 63.0429 79.7679 63.6462Z" fill="url(#paint24_radial)"/>
<g style="mix-blend-mode:color-dodge">
<path style="mix-blend-mode:color-dodge" d="M113.309 53.6931L107.578 57.0112V55.322L113.309 52.0039V53.6931Z" fill="url(#paint25_linear)"/>
<path style="mix-blend-mode:color-dodge" d="M110.955 67.6882L116.686 64.3701V66.0593L110.955 69.3774V67.6882Z" fill="url(#paint26_linear)"/>
<path style="mix-blend-mode:color-dodge" d="M111.256 58.5807V56.8915L117.651 53.2114V54.961L111.256 58.5807Z" fill="url(#paint27_linear)"/>
<path style="mix-blend-mode:color-dodge" d="M117.953 59.9663V61.6555L114.695 63.586V61.8365L117.953 59.9663Z" fill="url(#paint28_linear)"/>
<path style="mix-blend-mode:color-dodge" d="M122.902 62.501V60.8118L128.211 57.7954V59.5449L122.902 62.501Z" fill="url(#paint29_linear)"/>
<path style="mix-blend-mode:color-dodge" d="M108.48 65.4564L113.005 62.8623V64.5515L108.48 67.1456V65.4564Z" fill="url(#paint30_linear)"/>
<path style="mix-blend-mode:color-dodge" d="M115 58.2168V59.9663L112.285 61.4745V59.7853L115 58.2168Z" fill="url(#paint31_linear)"/>
<path style="mix-blend-mode:color-dodge" d="M105.889 56.2871V57.9763L104.381 58.8209V57.1317L105.889 56.2871Z" fill="url(#paint32_linear)"/>
<path style="mix-blend-mode:color-dodge" d="M116.688 59.0016V57.2521L122.177 54.1753V55.8645L116.688 59.0016Z" fill="url(#paint33_linear)"/>
<path style="mix-blend-mode:color-dodge" d="M109.506 57.8545V59.5437L101.422 64.189V62.4998L109.506 57.8545Z" fill="url(#paint34_linear)"/>
<path style="mix-blend-mode:color-dodge" d="M119.645 60.6914V59.0021L126.522 55.1411V56.8906L119.645 60.6914Z" fill="url(#paint35_linear)"/>
<path style="mix-blend-mode:color-dodge" d="M124.892 45.3672V47.0564L119.463 50.1935V48.4439L124.892 45.3672Z" fill="url(#paint36_linear)"/>
<path style="mix-blend-mode:color-dodge" d="M115.061 51.0392L117.775 49.4707V51.1599L115.061 52.7285V51.0392Z" fill="url(#paint37_linear)"/>
<path style="mix-blend-mode:color-dodge" d="M118.377 63.4067L121.212 61.7778V63.467L118.377 65.0959V63.4067Z" fill="url(#paint38_linear)"/>
<path style="mix-blend-mode:color-dodge" d="M102.932 70.3425L95.5723 74.6259V72.9367L102.932 68.6533V70.3425Z" fill="url(#paint39_linear)"/>
<path style="mix-blend-mode:color-dodge" d="M129.9 56.8307L132.495 55.3828V57.072L129.9 58.5802V56.8307Z" fill="url(#paint40_linear)"/>
<path style="mix-blend-mode:color-dodge" d="M137.862 38.1885V39.938L126.279 46.5138V44.8246L137.862 38.1885Z" fill="url(#paint41_linear)"/>
<path style="mix-blend-mode:color-dodge" d="M101.244 67.8093L98.5293 69.3779V67.6887L101.244 66.1201V67.8093Z" fill="url(#paint42_linear)"/>
<path style="mix-blend-mode:color-dodge" d="M99.7352 65.155L87.0059 72.4548V70.7656L99.7352 63.4658V65.155Z" fill="url(#paint43_linear)"/>
<path style="mix-blend-mode:color-dodge" d="M110.593 62.4416L102.932 66.8456V65.0961L110.593 60.7524V62.4416Z" fill="url(#paint44_linear)"/>
<path style="mix-blend-mode:color-dodge" d="M102.691 58.0962V59.7854L96.5977 63.2845V61.5953L102.691 58.0962Z" fill="url(#paint45_linear)"/>
<path style="mix-blend-mode:color-dodge" d="M128.27 54.1746L132.493 51.8218V53.511L128.27 55.9241V54.1746Z" fill="url(#paint46_linear)"/>
<path style="mix-blend-mode:color-dodge" d="M104.621 67.689L106.733 66.4824V68.1716L104.621 69.3782V67.689Z" fill="url(#paint47_linear)"/>
<path style="mix-blend-mode:color-dodge" d="M123.869 53.1498L132.496 48.2632V49.9524L123.869 54.8993V53.1498Z" fill="url(#paint48_linear)"/>
<path style="mix-blend-mode:color-dodge" d="M109.325 73.7227L102.447 77.644V75.9548L109.325 71.9731V73.7227Z" fill="url(#paint49_linear)"/>
<path style="mix-blend-mode:color-dodge" d="M119.344 52.2457L132.495 44.7046V46.4541L119.344 53.9952V52.2457Z" fill="url(#paint50_linear)"/>
</g>
<g style="mix-blend-mode:color-dodge">
<path style="mix-blend-mode:color-dodge" d="M110.955 81.7453L116.686 78.4272V80.1768L110.955 83.4345V81.7453Z" fill="url(#paint51_linear)"/>
<path style="mix-blend-mode:color-dodge" d="M111.256 72.6366V70.9474L117.651 67.3276V69.0168L111.256 72.6366Z" fill="url(#paint52_linear)"/>
<path style="mix-blend-mode:color-dodge" d="M117.953 74.0825V75.7717L114.695 77.6419V75.9527L117.953 74.0825Z" fill="url(#paint53_linear)"/>
<path style="mix-blend-mode:color-dodge" d="M122.902 76.6168V74.8672L128.211 71.9111V73.6003L122.902 76.6168Z" fill="url(#paint54_linear)"/>
<path style="mix-blend-mode:color-dodge" d="M108.48 79.5734L113.005 76.9189V78.6081L108.48 81.2626V79.5734Z" fill="url(#paint55_linear)"/>
<path style="mix-blend-mode:color-dodge" d="M114.996 72.335V74.0242L112.281 75.5927V73.8432L114.996 72.335Z" fill="url(#paint56_linear)"/>
<path style="mix-blend-mode:color-dodge" d="M116.688 73.0582V71.369L122.177 68.2319V69.9211L116.688 73.0582Z" fill="url(#paint57_linear)"/>
<path style="mix-blend-mode:color-dodge" d="M119.645 74.8071V73.1179L126.522 69.2568V70.946L119.645 74.8071Z" fill="url(#paint58_linear)"/>
<path style="mix-blend-mode:color-dodge" d="M118.377 77.4609L121.212 75.832V77.5816L118.377 79.1501V77.4609Z" fill="url(#paint59_linear)"/>
<path style="mix-blend-mode:color-dodge" d="M102.932 84.46L95.5723 88.7433V86.9938L102.932 82.7104V84.46Z" fill="url(#paint60_linear)"/>
<path style="mix-blend-mode:color-dodge" d="M129.902 70.9452L132.496 69.437V71.1262L129.902 72.6344V70.9452Z" fill="url(#paint61_linear)"/>
<path style="mix-blend-mode:color-dodge" d="M101.244 81.866L98.5293 83.4948V81.7453L101.244 80.1768V81.866Z" fill="url(#paint62_linear)"/>
<path style="mix-blend-mode:color-dodge" d="M110.593 76.5567L102.932 80.9003V79.2111L110.593 74.8071V76.5567Z" fill="url(#paint63_linear)"/>
<path style="mix-blend-mode:color-dodge" d="M128.27 68.2916L132.493 65.8784V67.6279L128.27 69.9808V68.2916Z" fill="url(#paint64_linear)"/>
<path style="mix-blend-mode:color-dodge" d="M104.621 81.7456L106.733 80.5391V82.2283L104.621 83.4952V81.7456Z" fill="url(#paint65_linear)"/>
<path style="mix-blend-mode:color-dodge" d="M123.869 67.2655L132.496 62.3789V64.0681L123.869 68.9547V67.2655Z" fill="url(#paint66_linear)"/>
<path style="mix-blend-mode:color-dodge" d="M118.92 80.5981V82.2873L116.205 83.7956V82.1064L118.92 80.5981Z" fill="url(#paint67_linear)"/>
<path style="mix-blend-mode:color-dodge" d="M120.611 81.3239V79.6346L126.101 76.4976V78.1868L120.611 81.3239Z" fill="url(#paint68_linear)"/>
<path style="mix-blend-mode:color-dodge" d="M105.162 90.1316L102.447 91.7001V90.0109L105.162 88.4424V90.1316Z" fill="url(#paint69_linear)"/>
<path style="mix-blend-mode:color-dodge" d="M114.515 84.8223L106.854 89.1659V87.4767L114.515 83.0728V84.8223Z" fill="url(#paint70_linear)"/>
<path style="mix-blend-mode:color-dodge" d="M127.787 75.5324L136.414 70.5854V72.335L127.787 77.2216V75.5324Z" fill="url(#paint71_linear)"/>
<path style="mix-blend-mode:color-dodge" d="M119.344 66.3614L132.495 58.8203V60.5095L119.344 68.0506V66.3614Z" fill="url(#paint72_linear)"/>
</g>
<path d="M215.264 220.562C215.947 223.018 216.05 225.599 215.566 228.103C214.403 229.528 212.789 230.513 210.99 230.897C209.191 231.281 207.315 231.04 205.672 230.214C201.751 228.284 200.061 224.181 198.613 223.216C192.848 221.721 187.38 219.252 182.445 215.916C176.413 210.607 177.076 204.755 183.29 204.635C190.818 204.851 198.208 206.704 204.948 210.064C208.763 213.172 212.223 216.693 215.264 220.562Z" fill="#10054D"/>
<path d="M212.251 226.294C207.47 226.322 202.872 224.457 199.461 221.106C196.807 218.874 192.101 220.02 186.069 215.073C180.036 210.126 177.924 206.989 180.639 205.421C187.686 203.838 195.07 204.957 201.332 208.558C209.174 212.781 214.423 215.797 214.423 215.797C214.423 215.797 216.293 221.83 215.328 222.916C214.363 224.002 214.785 225.751 212.251 226.294Z" fill="url(#paint73_linear)"/>
<path d="M212.311 128.078C214.426 138.766 214.813 149.724 213.458 160.534C211.225 178.633 214.724 179.478 215.509 192.388C216.293 205.298 220.757 221.104 214.242 224.362C211.4 225.272 208.342 225.254 205.512 224.31C202.681 223.366 200.224 221.546 198.496 219.114C196.709 217.442 195.281 215.425 194.295 213.185C193.31 210.946 192.79 208.529 192.765 206.083C194.063 200.565 193.897 194.805 192.282 189.372C189.259 174.503 187.243 159.447 186.249 144.306C186.204 139.931 187.374 135.629 189.628 131.878L212.311 128.078Z" fill="url(#paint74_linear)"/>
<path d="M181.902 239.445C181.902 239.445 184.255 246.322 181.419 247.831C179.758 248.728 177.922 249.257 176.038 249.382C174.154 249.507 172.265 249.225 170.5 248.555C166.88 246.986 165.372 245.357 161.571 245.357C153.656 243.4 146.291 239.666 140.034 234.438C137.138 230.878 140.034 226.716 147.152 227.259C154.271 227.801 164.406 228.646 166.216 229.249C168.026 229.853 181.902 239.445 181.902 239.445Z" fill="#10054D"/>
<path d="M178.584 244.512C173.492 244.8 168.395 244.019 163.623 242.219C157.59 240.952 139.974 233.834 140.275 230.154C140.577 226.473 144.619 227.077 147.997 227.378C151.376 227.68 162.235 228.464 163.08 228.464C163.924 228.464 181.54 236.367 181.54 236.367C181.54 236.367 182.807 242.4 181.54 243.004C180.273 243.607 180.575 244.331 178.584 244.512Z" fill="url(#paint75_linear)"/>
<path d="M198.914 141.351C194.374 145.029 190.646 149.609 187.967 154.801C185.288 159.993 183.715 165.685 183.349 171.516C183.349 190.278 185.4 238.842 182.565 241.557C179.996 243.045 177.1 243.879 174.134 243.984C171.167 244.089 168.22 243.463 165.552 242.161C163.036 240.631 160.877 238.579 159.223 236.144C157.568 233.708 156.455 230.946 155.96 228.044C156.623 225.631 161.691 217.064 159.941 209.402C155.704 192.369 153.517 174.89 153.426 157.338C153.467 154.484 154.105 151.67 155.299 149.077C156.493 146.484 158.216 144.17 160.359 142.283C162.501 140.397 165.015 138.979 167.738 138.123C170.461 137.266 173.333 136.989 176.17 137.309C183.826 138.193 191.422 139.543 198.914 141.351Z" fill="url(#paint76_linear)"/>
<path d="M229.501 290C231.62 289.996 233.701 289.434 235.534 288.371L284.521 259.956C285.574 259.341 286.446 258.46 287.049 257.401C287.653 256.342 287.967 255.142 287.96 253.923C287.981 252.687 287.66 251.469 287.032 250.404C286.403 249.339 285.493 248.469 284.4 247.89L236.741 221.225V194.861C236.741 194.173 236.467 193.514 235.981 193.027C235.494 192.541 234.834 192.267 234.146 192.267C233.458 192.267 232.799 192.541 232.312 193.027C231.826 193.514 231.552 194.173 231.552 194.861V222.794C231.559 223.257 231.685 223.711 231.917 224.113C232.15 224.514 232.481 224.849 232.88 225.086L281.927 252.475C282.195 252.622 282.416 252.841 282.566 253.108C282.715 253.375 282.786 253.678 282.771 253.983C282.782 254.28 282.708 254.573 282.559 254.83C282.409 255.086 282.19 255.295 281.927 255.431L232.88 283.846C231.829 284.467 230.631 284.795 229.411 284.795C228.19 284.795 226.992 284.467 225.942 283.846L183.712 259.051V187.743C183.712 187.402 183.645 187.065 183.514 186.75C183.384 186.435 183.193 186.149 182.952 185.908C182.711 185.667 182.425 185.476 182.11 185.346C181.796 185.216 181.458 185.148 181.118 185.148C180.777 185.148 180.44 185.216 180.125 185.346C179.81 185.476 179.524 185.667 179.283 185.908C179.042 186.149 178.851 186.435 178.721 186.75C178.591 187.065 178.523 187.402 178.523 187.743V260.559C178.529 261.008 178.648 261.448 178.869 261.839C179.091 262.229 179.408 262.557 179.79 262.791L223.468 288.311C225.288 289.411 227.374 289.995 229.501 290Z" fill="url(#paint77_linear)"/>
<path opacity="0.3" d="M229.923 287.828C231.744 287.826 233.533 287.347 235.111 286.44L284.098 258.025C284.888 257.57 285.543 256.915 285.999 256.126C286.455 255.337 286.695 254.442 286.695 253.531C286.695 252.62 286.455 251.725 285.999 250.936C285.543 250.147 284.888 249.491 284.098 249.036L235.835 221.828V194.439C235.871 194.305 235.875 194.165 235.848 194.029C235.82 193.893 235.762 193.765 235.678 193.655C235.593 193.545 235.485 193.456 235.36 193.395C235.236 193.334 235.099 193.302 234.961 193.302C234.822 193.302 234.685 193.334 234.561 193.395C234.437 193.456 234.328 193.545 234.243 193.655C234.159 193.765 234.101 193.893 234.073 194.029C234.046 194.165 234.05 194.305 234.086 194.439V222.371C234.087 222.518 234.127 222.662 234.201 222.789C234.275 222.916 234.381 223.021 234.508 223.095L283.555 250.545C284.089 250.831 284.534 251.257 284.842 251.779C285.151 252.3 285.311 252.895 285.305 253.501C285.303 254.106 285.147 254.7 284.851 255.228C284.555 255.755 284.13 256.199 283.616 256.517L234.629 284.932C233.298 285.668 231.806 286.062 230.285 286.078C228.735 286.079 227.214 285.662 225.881 284.872L182.324 259.413V187.018C182.308 186.789 182.206 186.574 182.038 186.417C181.87 186.26 181.649 186.173 181.419 186.174C181.195 186.174 180.98 186.263 180.822 186.421C180.663 186.58 180.574 186.794 180.574 187.018V260.137C180.581 260.283 180.623 260.425 180.697 260.551C180.77 260.677 180.873 260.783 180.997 260.861L224.674 286.38C226.255 287.341 228.073 287.842 229.923 287.828Z" fill="white"/>
<path d="M232.82 215.976V221.285L173.939 187.26V181.77L232.82 215.976Z" fill="url(#paint78_linear)"/>
<path d="M232.818 215.978V221.287L290.493 187.804V182.314L232.818 215.978Z" fill="url(#paint79_linear)"/>
<path d="M232.82 212.78V218.089L173.939 184.003V178.573L232.82 212.78Z" fill="url(#paint80_linear)"/>
<path d="M232.818 212.779V218.088L290.493 184.545V179.116L232.818 212.779Z" fill="url(#paint81_linear)"/>
<path d="M290.495 179.116L232.82 212.779L173.939 178.573L231.674 144.91L290.495 179.116Z" fill="url(#paint82_linear)"/>
<path d="M194.693 94.9579C190.547 96.1144 186.268 96.7228 181.964 96.7677C178.646 97.19 175.267 97.3107 175.146 95.5612C175.146 92.2431 189.022 90.7349 189.022 90.7349L194.693 94.9579Z" fill="url(#paint83_radial)"/>
<path d="M203.684 81.6256C198.123 79.3805 192.42 77.5062 186.611 76.0151C182.703 75.0604 178.578 75.6435 175.088 77.6439C172.373 78.8505 170.503 79.9967 170.744 81.6256C170.744 82.2892 172.434 81.6256 172.434 81.6256C172.434 81.6256 169.236 83.1942 169.357 85.1247C169.478 87.0552 171.408 85.4867 171.408 85.4867C171.408 85.4867 167.969 87.2362 168.15 89.1667C168.331 91.0972 170.443 89.1667 170.443 89.1667C170.443 89.1667 167.487 90.7353 167.426 92.3641C167.366 93.993 168.392 93.9327 170.503 93.3294C174.7 91.855 179.182 91.3799 183.594 91.9418C188.602 93.0881 191.377 96.3458 195.66 94.8979C198.643 94.0926 201.801 94.2189 204.709 95.2599L203.684 81.6256Z" fill="url(#paint84_radial)"/>
<path d="M200.787 78.4266C199.703 79.2106 198.839 80.2609 198.279 81.4762C197.719 82.6915 197.482 84.0307 197.59 85.3644C198.397 89.5976 199.885 93.6722 201.994 97.4302H248.206C248.206 97.4302 280.602 99.8433 274.871 86.39C269.14 72.9367 268.235 69.8599 251.946 73.721C240.315 76.8482 228.335 78.4901 216.292 78.6076C209.535 78.7886 200.787 78.4266 200.787 78.4266Z" fill="url(#paint85_linear)"/>
<g style="mix-blend-mode:multiply">
<path d="M199.396 91.9403C200.965 95.4997 201.991 97.4302 201.991 97.4302H248.202C248.202 97.4302 275.531 100.99 274.868 86.5107C261.075 90.1624 246.901 92.1872 232.638 92.5436C214.78 92.4833 204.042 92.1213 199.396 91.9403Z" fill="#D1D3D4"/>
</g>
<path d="M259.487 142.196C254.781 140.266 228.598 126.088 220.695 128.381C208.63 131.94 184.498 155.287 184.498 155.287C184.498 155.287 246.275 199.569 268.415 183.401C290.556 167.233 259.487 142.196 259.487 142.196Z" fill="url(#paint86_linear)"/>
<path d="M234.993 154.865C230.227 152.874 202.959 141.351 194.754 142.015C175.811 143.463 164.59 168.861 164.59 168.861C164.59 168.861 220.334 209.161 244.043 196.009C271.854 180.625 234.993 154.865 234.993 154.865Z" fill="url(#paint87_linear)"/>
<path d="M220.211 32.9402C215.807 36.0773 211.584 40.7226 213.152 52.7883C214.721 64.854 215.566 70.8869 218.22 71.8522C220.875 72.8174 222.443 71.1886 223.408 74.5066C224.084 77.4534 224.388 80.4733 224.313 83.4956L249.651 73.5414C248.169 70.9475 247.656 67.9116 248.203 64.9747C249.229 60.3897 255.503 50.7975 247.841 39.2747C244.825 35.001 240.337 31.9911 235.238 30.8222C230.139 29.6532 224.788 30.4074 220.211 32.9402Z" fill="url(#paint88_radial)"/>
<path d="M211.705 44.7641C211.705 47.0566 213.937 50.797 217.255 50.3143C217.936 50.3048 218.612 50.4359 219.24 50.6994C219.867 50.963 220.434 51.3533 220.904 51.846C221.374 52.3387 221.738 52.9232 221.971 53.5627C222.205 54.2023 222.304 54.8833 222.263 55.5629C221.78 57.4935 222.263 57.9158 222.263 57.9158C222.263 57.9158 224.555 56.5885 225.943 58.3381C227.33 60.0876 226.486 64.3709 225.943 66.0601C225.4 67.7493 231.614 71.731 236.138 71.3691C240.663 71.0071 246.575 69.6799 248.204 67.0857C250.549 63.7365 252.053 59.8717 252.588 55.8183C253.124 51.7649 252.675 47.6422 251.281 43.7988C249.436 38.4698 245.59 34.0675 240.557 31.523C235.524 28.9784 229.699 28.4913 224.314 30.1646C220.957 30.9882 217.939 32.8363 215.68 35.4524C213.42 38.0685 212.031 41.3229 211.705 44.7641Z" fill="url(#paint89_radial)"/>
<g style="mix-blend-mode:multiply">
<path d="M251.643 44.7637C248.453 48.0869 244.465 50.5378 240.06 51.8825C234.221 53.7526 228.045 54.329 221.961 53.5717C222.254 54.1914 222.359 54.8837 222.263 55.5625C221.78 57.493 222.263 57.9153 222.263 57.9153C222.263 57.9153 224.555 56.5881 225.943 58.3376C227.33 60.0872 226.486 64.3705 225.943 66.0597C225.4 67.7489 231.614 71.7306 236.138 71.3686C240.663 71.0067 246.575 69.6794 248.204 67.0853C250.473 63.888 251.965 60.2058 252.562 56.331C253.159 52.4562 252.844 48.4956 251.643 44.7637Z" fill="#D1D3D4"/>
</g>
<path d="M241.509 78.4264C244.958 76.4681 248.141 74.0756 250.981 71.3076H260.754C264.126 71.4917 267.336 72.8158 269.857 75.0627C272.378 77.3097 274.061 80.3463 274.63 83.675C276.155 95.1145 276.921 106.642 276.922 118.183C279.456 162.344 287.6 164.757 274.207 171.936C260.815 179.115 241.328 183.579 230.107 174.168C218.886 164.757 220.636 163.852 218.041 143.28C215.447 122.708 208.087 113.598 215.085 101.713C219.476 93.0623 226.372 85.9353 234.873 81.2619C237.143 80.4578 239.359 79.5107 241.509 78.4264Z" fill="url(#paint90_linear)"/>
<path d="M219.066 90.1319C220.152 84.099 225.099 83.0131 228.899 81.6256C234.883 79.632 240.661 77.0662 246.153 73.9638C246.972 73.4104 247.642 72.6644 248.105 71.7913C248.568 70.9182 248.809 69.9447 248.808 68.9565L251.402 71.249C251.402 71.249 252.246 76.9803 244.404 80.781C236.561 84.5817 227.21 86.2105 222.866 91.1575C221.559 92.8321 220.083 94.3685 218.462 95.7425C218.462 95.7425 217.98 96.1045 219.066 90.1319Z" fill="url(#paint91_linear)"/>
<g style="mix-blend-mode:multiply">
<path d="M234.332 107.868C226.006 98.8792 217.5 108.411 211.527 116.314C214.242 125.192 216.458 134.216 218.164 143.341C220.697 163.914 218.948 164.758 230.229 174.23C232.638 176.444 235.52 178.079 238.657 179.01C241.794 179.94 245.101 180.142 248.328 179.599C247.121 175.497 244.949 119.632 234.332 107.868Z" fill="#D1D3D4"/>
</g>
<path d="M145.041 119.693C142.184 116.783 139.486 113.721 136.957 110.523C134.966 107.808 132.673 105.334 131.406 106.42C128.812 108.592 137.439 119.753 137.439 119.753L145.041 119.693Z" fill="url(#paint92_radial)"/>
<path d="M147.154 134.595C141.091 134.46 135.044 133.916 129.055 132.966C125.101 132.309 121.555 130.147 119.161 126.933C117.11 124.761 115.843 122.951 116.748 121.624C117.653 120.297 118.136 122.469 118.136 122.469C118.136 122.469 115.843 119.814 116.748 118.065C117.653 116.315 118.739 118.547 118.739 118.547C118.739 118.547 116.265 115.591 117.231 113.902C118.196 112.213 119.402 114.566 119.402 114.566C119.402 114.566 117.351 111.972 117.894 110.463C118.437 108.955 119.402 109.377 121.092 110.825C124.393 113.824 128.333 116.031 132.614 117.281C137.622 118.246 141.483 116.315 144.68 119.211C147.111 121.11 150.05 122.244 153.126 122.469L147.154 134.595Z" fill="url(#paint93_radial)"/>
<path d="M231.796 101.956C233.457 103.02 234.868 104.431 235.934 106.092C236.999 107.752 237.693 109.623 237.968 111.577C238.243 113.531 238.092 115.521 237.527 117.411C236.962 119.301 235.994 121.046 234.692 122.528C229.383 129.285 200.124 146.298 190.773 147.625C181.422 148.952 141.906 137.55 141.906 137.55C141.644 133.638 141.846 129.71 142.51 125.846C142.664 124.633 143.12 123.478 143.837 122.487C144.554 121.496 145.508 120.701 146.612 120.175C146.612 120.175 174.182 127.294 182.447 125.906C190.712 124.519 203.14 113.841 211.224 107.808C219.308 101.775 224.798 97.6123 231.796 101.956Z" fill="url(#paint94_linear)"/>
<path d="M232.881 155.95L238.914 132.603L243.257 135.136L237.224 158.363C234.385 169.709 232.927 181.356 232.881 193.052V212.9L228.537 210.547V190.277C228.597 178.701 230.056 167.175 232.881 155.95Z" fill="url(#paint95_linear)"/>
<path d="M242.773 135.136L300.507 101.292L294.475 124.76C291.703 136.033 290.305 147.599 290.312 159.208V179.116L232.879 212.779V193.052C232.891 181.401 234.309 169.794 237.102 158.484L242.773 135.136Z" fill="url(#paint96_linear)"/>
<path d="M300.508 101.291L242.713 135.075L238.43 132.602L296.285 98.8179L300.508 101.291Z" fill="url(#paint97_linear)"/>
<defs>
<linearGradient id="paint0_linear" x1="14.9726" y1="184.847" x2="3.20855" y2="184.847" gradientUnits="userSpaceOnUse">
<stop stop-color="#8A92B3"/>
<stop offset="0.06" stop-color="#8E95B6"/>
<stop offset="0.13" stop-color="#9C9EBE"/>
<stop offset="0.2" stop-color="#B1ACCB"/>
<stop offset="0.25" stop-color="#C7BAD8"/>
<stop offset="0.33" stop-color="#B2AACC"/>
<stop offset="0.45" stop-color="#9A97BE"/>
<stop offset="0.56" stop-color="#8B8CB6"/>
<stop offset="0.65" stop-color="#8688B3"/>
<stop offset="0.85" stop-color="#AAABCB"/>
<stop offset="1" stop-color="#9396B3"/>
</linearGradient>
<linearGradient id="paint1_linear" x1="46946" y1="4036.44" x2="46969.4" y2="4036.44" gradientUnits="userSpaceOnUse">
<stop stop-color="#8A92B3"/>
<stop offset="0.06" stop-color="#8E95B6"/>
<stop offset="0.13" stop-color="#9C9EBE"/>
<stop offset="0.2" stop-color="#B1ACCB"/>
<stop offset="0.25" stop-color="#C7BAD8"/>
<stop offset="0.33" stop-color="#B2AACC"/>
<stop offset="0.45" stop-color="#9A97BE"/>
<stop offset="0.56" stop-color="#8B8CB6"/>
<stop offset="0.65" stop-color="#8688B3"/>
<stop offset="0.85" stop-color="#AAABCB"/>
<stop offset="1" stop-color="#9396B3"/>
</linearGradient>
<linearGradient id="paint2_linear" x1="10.5083" y1="135.318" x2="6.34563" y2="152.512" gradientUnits="userSpaceOnUse">
<stop stop-color="#4C4C4C"/>
<stop offset="1" stop-color="white"/>
</linearGradient>
<linearGradient id="paint3_linear" x1="46957.6" y1="3060.94" x2="46957.6" y2="3413.29" gradientUnits="userSpaceOnUse">
<stop stop-color="#4C4C4C"/>
<stop offset="1" stop-color="white"/>
</linearGradient>
<linearGradient id="paint4_linear" x1="46778" y1="2302.26" x2="46801.5" y2="2302.26" gradientUnits="userSpaceOnUse">
<stop stop-color="#8A92B3"/>
<stop offset="0.06" stop-color="#8E95B6"/>
<stop offset="0.13" stop-color="#9C9EBE"/>
<stop offset="0.2" stop-color="#B1ACCB"/>
<stop offset="0.25" stop-color="#C7BAD8"/>
<stop offset="0.33" stop-color="#B2AACC"/>
<stop offset="0.45" stop-color="#9A97BE"/>
<stop offset="0.56" stop-color="#8B8CB6"/>
<stop offset="0.65" stop-color="#8688B3"/>
<stop offset="0.85" stop-color="#AAABCB"/>
<stop offset="1" stop-color="#9396B3"/>
</linearGradient>
<linearGradient id="paint5_linear" x1="138.171" y1="193.897" x2="124.597" y2="40.7225" gradientUnits="userSpaceOnUse">
<stop stop-color="#45108A"/>
<stop offset="1" stop-color="#7C1DC9"/>
</linearGradient>
<linearGradient id="paint6_linear" x1="1.01351e+06" y1="441.942" x2="1.01291e+06" y2="4208.09" gradientUnits="userSpaceOnUse">
<stop stop-color="#45108A"/>
<stop offset="1" stop-color="#7C1DC9"/>
</linearGradient>
<radialGradient id="paint7_radial" cx="0" cy="0" r="1" gradientUnits="userSpaceOnUse" gradientTransform="translate(130.568 128.319) scale(99.12)">
<stop stop-color="white"/>
<stop offset="1"/>
</radialGradient>
<radialGradient id="paint8_radial" cx="0" cy="0" r="1" gradientUnits="userSpaceOnUse" gradientTransform="translate(46.4762 175.478) rotate(180) scale(6.71337 10.4574)">
<stop stop-color="#972A74"/>
<stop offset="0.04" stop-color="#8A266A"/>
<stop offset="0.19" stop-color="#601B4A"/>
<stop offset="0.35" stop-color="#3D112F"/>
<stop offset="0.51" stop-color="#230A1B"/>
<stop offset="0.67" stop-color="#0F040C"/>
<stop offset="0.83" stop-color="#040103"/>
<stop offset="1"/>
</radialGradient>
<linearGradient id="paint9_linear" x1="18580.5" y1="691.772" x2="18602.2" y2="690.804" gradientUnits="userSpaceOnUse">
<stop stop-color="#45108A"/>
<stop offset="1" stop-color="#7C1DC9"/>
</linearGradient>
<linearGradient id="paint10_linear" x1="645233" y1="1506.13" x2="645459" y2="-735.738" gradientUnits="userSpaceOnUse">
<stop stop-color="#45108A"/>
<stop offset="1" stop-color="#7C1DC9"/>
</linearGradient>
<linearGradient id="paint11_linear" x1="664161" y1="443.762" x2="664015" y2="922.551" gradientUnits="userSpaceOnUse">
<stop stop-color="#45108A"/>
<stop offset="1" stop-color="#7C1DC9"/>
</linearGradient>
<radialGradient id="paint12_radial" cx="0" cy="0" r="1" gradientUnits="userSpaceOnUse" gradientTransform="translate(19978 625.344) rotate(180) scale(3.06772 100.212)">
<stop stop-color="white"/>
<stop offset="1"/>
</radialGradient>
<linearGradient id="paint13_linear" x1="189.686" y1="112.331" x2="69.391" y2="112.331" gradientUnits="userSpaceOnUse">
<stop offset="0.06" stop-color="#200041"/>
<stop offset="0.26" stop-color="#210243"/>
<stop offset="0.36" stop-color="#25084B"/>
<stop offset="0.43" stop-color="#2C1358"/>
<stop offset="0.47" stop-color="#311B61"/>
<stop offset="0.48" stop-color="#351F65"/>
<stop offset="0.5" stop-color="#422C73"/>
<stop offset="0.51" stop-color="#584188"/>
<stop offset="0.52" stop-color="#765FA7"/>
<stop offset="0.53" stop-color="#8770B8"/>
<stop offset="0.54" stop-color="#7E67AE"/>
<stop offset="0.56" stop-color="#5C468D"/>
<stop offset="0.59" stop-color="#442E75"/>
<stop offset="0.61" stop-color="#362066"/>
<stop offset="0.63" stop-color="#311B61"/>
<stop offset="0.67" stop-color="#2A1155"/>
<stop offset="0.75" stop-color="#230446"/>
<stop offset="0.81" stop-color="#200041"/>
<stop offset="1" stop-color="#200041"/>
</linearGradient>
<linearGradient id="paint14_linear" x1="192.099" y1="109.376" x2="82.3008" y2="109.376" gradientUnits="userSpaceOnUse">
<stop stop-color="#311B61"/>
<stop offset="0.2" stop-color="#290F52"/>
<stop offset="0.49" stop-color="#200041"/>
<stop offset="1" stop-color="#0F001F"/>
</linearGradient>
<linearGradient id="paint15_linear" x1="190.891" y1="109.376" x2="83.5664" y2="109.376" gradientUnits="userSpaceOnUse">
<stop stop-color="#3D065F"/>
<stop offset="1" stop-color="#5F27BD"/>
</linearGradient>
<radialGradient id="paint16_radial" cx="0" cy="0" r="1" gradientUnits="userSpaceOnUse" gradientTransform="translate(-402913 889.559) rotate(180) scale(751.177 267.097)">
<stop stop-color="white"/>
<stop offset="1"/>
</radialGradient>
<radialGradient id="paint17_radial" cx="0" cy="0" r="1" gradientUnits="userSpaceOnUse" gradientTransform="translate(-103638 -35791.1) rotate(-160.844) scale(75.6531 29.8087)">
<stop stop-color="#972A74"/>
<stop offset="0.04" stop-color="#8A266A"/>
<stop offset="0.19" stop-color="#601B4A"/>
<stop offset="0.35" stop-color="#3D112F"/>
<stop offset="0.51" stop-color="#230A1B"/>
<stop offset="0.67" stop-color="#0F040C"/>
<stop offset="0.83" stop-color="#040103"/>
<stop offset="1"/>
</radialGradient>
<linearGradient id="paint18_linear" x1="127.071" y1="108.568" x2="125.588" y2="72.0868" gradientUnits="userSpaceOnUse">
<stop stop-color="#3D065F"/>
<stop offset="1" stop-color="#10054D"/>
</linearGradient>
<linearGradient id="paint19_linear" x1="145.468" y1="84.0972" x2="117.475" y2="128.137" gradientUnits="userSpaceOnUse">
<stop offset="0.06" stop-color="#9F79B8"/>
<stop offset="0.25" stop-color="#A17BBA"/>
<stop offset="0.35" stop-color="#A883C0"/>
<stop offset="0.42" stop-color="#B490CC"/>
<stop offset="0.48" stop-color="#C5A3DC"/>
<stop offset="0.54" stop-color="#DBBBF0"/>
<stop offset="0.56" stop-color="#E6C6FA"/>
<stop offset="0.6" stop-color="#D6B6F1"/>
<stop offset="0.69" stop-color="#B595DD"/>
<stop offset="0.77" stop-color="#9D7DCF"/>
<stop offset="0.85" stop-color="#8E6EC6"/>
<stop offset="0.92" stop-color="#8969C3"/>
</linearGradient>
<linearGradient id="paint20_linear" x1="64215" y1="103.902" x2="62611.9" y2="1119.03" gradientUnits="userSpaceOnUse">
<stop stop-color="#311B61"/>
<stop offset="0.2" stop-color="#290F52"/>
<stop offset="0.49" stop-color="#200041"/>
<stop offset="1" stop-color="#0F001F"/>
</linearGradient>
<linearGradient id="paint21_linear" x1="87.4897" y1="109.617" x2="142.027" y2="25.097" gradientUnits="userSpaceOnUse">
<stop offset="0.03" stop-color="#7C1DC9"/>
<stop offset="0.21" stop-color="#6E41D2"/>
<stop offset="0.62" stop-color="#4C9BE8"/>
<stop offset="1" stop-color="#2AF6FF"/>
</linearGradient>
<linearGradient id="paint22_linear" x1="-297967" y1="1817.26" x2="-297011" y2="717.783" gradientUnits="userSpaceOnUse">
<stop offset="0.06" stop-color="#200041"/>
<stop offset="0.26" stop-color="#210243"/>
<stop offset="0.36" stop-color="#25084B"/>
<stop offset="0.43" stop-color="#2C1358"/>
<stop offset="0.47" stop-color="#311B61"/>
<stop offset="0.48" stop-color="#351F65"/>
<stop offset="0.5" stop-color="#422C73"/>
<stop offset="0.51" stop-color="#584188"/>
<stop offset="0.52" stop-color="#765FA7"/>
<stop offset="0.53" stop-color="#8770B8"/>
<stop offset="0.54" stop-color="#7E67AE"/>
<stop offset="0.56" stop-color="#5C468D"/>
<stop offset="0.59" stop-color="#442E75"/>
<stop offset="0.61" stop-color="#362066"/>
<stop offset="0.63" stop-color="#311B61"/>
<stop offset="0.67" stop-color="#2A1155"/>
<stop offset="0.75" stop-color="#230446"/>
<stop offset="0.81" stop-color="#200041"/>
<stop offset="1" stop-color="#200041"/>
</linearGradient>
<radialGradient id="paint23_radial" cx="0" cy="0" r="1" gradientUnits="userSpaceOnUse" gradientTransform="translate(-291526 957.992) rotate(180) scale(104.089 146.214)">
<stop stop-color="white"/>
<stop offset="1"/>
</radialGradient>
<radialGradient id="paint24_radial" cx="0" cy="0" r="1" gradientUnits="userSpaceOnUse" gradientTransform="translate(3126.5 2089.48) rotate(112.443) scale(4.74772 4.18397)">
<stop stop-color="#972A74"/>
<stop offset="0.04" stop-color="#8A266A"/>
<stop offset="0.19" stop-color="#601B4A"/>
<stop offset="0.35" stop-color="#3D112F"/>
<stop offset="0.51" stop-color="#230A1B"/>
<stop offset="0.67" stop-color="#0F040C"/>
<stop offset="0.83" stop-color="#040103"/>
<stop offset="1"/>
</radialGradient>
<linearGradient id="paint25_linear" x1="113.37" y1="54.4774" x2="107.578" y2="54.4774" gradientUnits="userSpaceOnUse">
<stop stop-color="#2AF6FF"/>
<stop offset="1" stop-color="#428BCC"/>
</linearGradient>
<linearGradient id="paint26_linear" x1="22347.9" y1="119.851" x2="22353.3" y2="119.851" gradientUnits="userSpaceOnUse">
<stop stop-color="#2AF6FF"/>
<stop offset="1" stop-color="#428BCC"/>
</linearGradient>
<linearGradient id="paint27_linear" x1="24921.9" y1="102.984" x2="24928.7" y2="102.984" gradientUnits="userSpaceOnUse">
<stop stop-color="#2AF6FF"/>
<stop offset="1" stop-color="#428BCC"/>
</linearGradient>
<linearGradient id="paint28_linear" x1="12754" y1="97.0323" x2="12755.7" y2="97.0323" gradientUnits="userSpaceOnUse">
<stop stop-color="#2AF6FF"/>
<stop offset="1" stop-color="#428BCC"/>
</linearGradient>
<linearGradient id="paint29_linear" x1="20711.2" y1="104.711" x2="20715.8" y2="104.711" gradientUnits="userSpaceOnUse">
<stop stop-color="#2AF6FF"/>
<stop offset="1" stop-color="#428BCC"/>
</linearGradient>
<linearGradient id="paint30_linear" x1="17666.7" y1="109.037" x2="17670.1" y2="109.037" gradientUnits="userSpaceOnUse">
<stop stop-color="#2AF6FF"/>
<stop offset="1" stop-color="#428BCC"/>
</linearGradient>
<linearGradient id="paint31_linear" x1="10646.3" y1="90.5337" x2="10647.5" y2="90.5337" gradientUnits="userSpaceOnUse">
<stop stop-color="#2AF6FF"/>
<stop offset="1" stop-color="#428BCC"/>
</linearGradient>
<linearGradient id="paint32_linear" x1="5958.9" y1="80.4596" x2="5959.28" y2="80.4596" gradientUnits="userSpaceOnUse">
<stop stop-color="#2AF6FF"/>
<stop offset="1" stop-color="#428BCC"/>
</linearGradient>
<linearGradient id="paint33_linear" x1="21412.3" y1="99.446" x2="21417.3" y2="99.446" gradientUnits="userSpaceOnUse">
<stop stop-color="#2AF6FF"/>
<stop offset="1" stop-color="#428BCC"/>
</linearGradient>
<linearGradient id="paint34_linear" x1="31476.7" y1="121.896" x2="31487.6" y2="121.896" gradientUnits="userSpaceOnUse">
<stop stop-color="#2AF6FF"/>
<stop offset="1" stop-color="#428BCC"/>
</linearGradient>
<linearGradient id="paint35_linear" x1="26792.7" y1="108.423" x2="26800.6" y2="108.423" gradientUnits="userSpaceOnUse">
<stop stop-color="#2AF6FF"/>
<stop offset="1" stop-color="#428BCC"/>
</linearGradient>
<linearGradient id="paint36_linear" x1="21178.6" y1="83.5914" x2="21183.5" y2="83.5914" gradientUnits="userSpaceOnUse">
<stop stop-color="#2AF6FF"/>
<stop offset="1" stop-color="#428BCC"/>
</linearGradient>
<linearGradient id="paint37_linear" x1="10647.8" y1="77.0638" x2="10649.1" y2="77.0638" gradientUnits="userSpaceOnUse">
<stop stop-color="#2AF6FF"/>
<stop offset="1" stop-color="#428BCC"/>
</linearGradient>
<linearGradient id="paint38_linear" x1="11117.7" y1="96.684" x2="11119" y2="96.684" gradientUnits="userSpaceOnUse">
<stop stop-color="#2AF6FF"/>
<stop offset="1" stop-color="#428BCC"/>
</linearGradient>
<linearGradient id="paint39_linear" x1="28669.2" y1="139.607" x2="28678.2" y2="139.607" gradientUnits="userSpaceOnUse">
<stop stop-color="#2AF6FF"/>
<stop offset="1" stop-color="#428BCC"/>
</linearGradient>
<linearGradient id="paint40_linear" x1="10188.2" y1="85.5664" x2="10189.3" y2="85.5664" gradientUnits="userSpaceOnUse">
<stop stop-color="#2AF6FF"/>
<stop offset="1" stop-color="#428BCC"/>
</linearGradient>
<linearGradient id="paint41_linear" x1="45027.6" y1="96.6325" x2="45049.9" y2="96.6325" gradientUnits="userSpaceOnUse">
<stop stop-color="#2AF6FF"/>
<stop offset="1" stop-color="#428BCC"/>
</linearGradient>
<linearGradient id="paint42_linear" x1="10638.8" y1="102.705" x2="10640" y2="102.705" gradientUnits="userSpaceOnUse">
<stop stop-color="#2AF6FF"/>
<stop offset="1" stop-color="#428BCC"/>
</linearGradient>
<linearGradient id="paint43_linear" x1="49512.2" y1="164.772" x2="49538.9" y2="164.772" gradientUnits="userSpaceOnUse">
<stop stop-color="#2AF6FF"/>
<stop offset="1" stop-color="#428BCC"/>
</linearGradient>
<linearGradient id="paint44_linear" x1="29838" y1="125.158" x2="29847.7" y2="125.158" gradientUnits="userSpaceOnUse">
<stop stop-color="#2AF6FF"/>
<stop offset="1" stop-color="#428BCC"/>
</linearGradient>
<linearGradient id="paint45_linear" x1="23752.1" y1="110.29" x2="23758.3" y2="110.29" gradientUnits="userSpaceOnUse">
<stop stop-color="#2AF6FF"/>
<stop offset="1" stop-color="#428BCC"/>
</linearGradient>
<linearGradient id="paint46_linear" x1="16502.4" y1="88.4558" x2="16505.3" y2="88.4558" gradientUnits="userSpaceOnUse">
<stop stop-color="#2AF6FF"/>
<stop offset="1" stop-color="#428BCC"/>
</linearGradient>
<linearGradient id="paint47_linear" x1="8300.66" y1="99.0888" x2="8301.42" y2="99.0888" gradientUnits="userSpaceOnUse">
<stop stop-color="#2AF6FF"/>
<stop offset="1" stop-color="#428BCC"/>
</linearGradient>
<linearGradient id="paint48_linear" x1="33573.7" y1="105.002" x2="33586" y2="105.002" gradientUnits="userSpaceOnUse">
<stop stop-color="#2AF6FF"/>
<stop offset="1" stop-color="#428BCC"/>
</linearGradient>
<linearGradient id="paint49_linear" x1="26795.2" y1="142.292" x2="26803" y2="142.292" gradientUnits="userSpaceOnUse">
<stop stop-color="#2AF6FF"/>
<stop offset="1" stop-color="#428BCC"/>
</linearGradient>
<linearGradient id="paint50_linear" x1="51112.8" y1="120.702" x2="51141.5" y2="120.702" gradientUnits="userSpaceOnUse">
<stop stop-color="#2AF6FF"/>
<stop offset="1" stop-color="#428BCC"/>
</linearGradient>
<linearGradient id="paint51_linear" x1="22347.9" y1="145.625" x2="22353.3" y2="145.625" gradientUnits="userSpaceOnUse">
<stop stop-color="#2AF6FF"/>
<stop offset="1" stop-color="#428BCC"/>
</linearGradient>
<linearGradient id="paint52_linear" x1="24921.9" y1="128.911" x2="24928.7" y2="128.911" gradientUnits="userSpaceOnUse">
<stop stop-color="#2AF6FF"/>
<stop offset="1" stop-color="#428BCC"/>
</linearGradient>
<linearGradient id="paint53_linear" x1="12754" y1="118.824" x2="12755.7" y2="118.824" gradientUnits="userSpaceOnUse">
<stop stop-color="#2AF6FF"/>
<stop offset="1" stop-color="#428BCC"/>
</linearGradient>
<linearGradient id="paint54_linear" x1="20711.2" y1="129.838" x2="20715.9" y2="129.838" gradientUnits="userSpaceOnUse">
<stop stop-color="#2AF6FF"/>
<stop offset="1" stop-color="#428BCC"/>
</linearGradient>
<linearGradient id="paint55_linear" x1="17666.7" y1="133.865" x2="17670.1" y2="133.865" gradientUnits="userSpaceOnUse">
<stop stop-color="#2AF6FF"/>
<stop offset="1" stop-color="#428BCC"/>
</linearGradient>
<linearGradient id="paint56_linear" x1="10646.3" y1="112.275" x2="10647.5" y2="112.275" gradientUnits="userSpaceOnUse">
<stop stop-color="#2AF6FF"/>
<stop offset="1" stop-color="#428BCC"/>
</linearGradient>
<linearGradient id="paint57_linear" x1="21412.3" y1="124.748" x2="21417.3" y2="124.748" gradientUnits="userSpaceOnUse">
<stop stop-color="#2AF6FF"/>
<stop offset="1" stop-color="#428BCC"/>
</linearGradient>
<linearGradient id="paint58_linear" x1="26792.7" y1="135.527" x2="26800.7" y2="135.527" gradientUnits="userSpaceOnUse">
<stop stop-color="#2AF6FF"/>
<stop offset="1" stop-color="#428BCC"/>
</linearGradient>
<linearGradient id="paint59_linear" x1="11117.7" y1="118.469" x2="11119" y2="118.469" gradientUnits="userSpaceOnUse">
<stop stop-color="#2AF6FF"/>
<stop offset="1" stop-color="#428BCC"/>
</linearGradient>
<linearGradient id="paint60_linear" x1="28669.2" y1="168.437" x2="28678.2" y2="168.437" gradientUnits="userSpaceOnUse">
<stop stop-color="#2AF6FF"/>
<stop offset="1" stop-color="#428BCC"/>
</linearGradient>
<linearGradient id="paint61_linear" x1="10188.2" y1="107.103" x2="10189.3" y2="107.103" gradientUnits="userSpaceOnUse">
<stop stop-color="#2AF6FF"/>
<stop offset="1" stop-color="#428BCC"/>
</linearGradient>
<linearGradient id="paint62_linear" x1="10638.8" y1="125.17" x2="10640" y2="125.17" gradientUnits="userSpaceOnUse">
<stop stop-color="#2AF6FF"/>
<stop offset="1" stop-color="#428BCC"/>
</linearGradient>
<linearGradient id="paint63_linear" x1="29838" y1="153.47" x2="29847.7" y2="153.47" gradientUnits="userSpaceOnUse">
<stop stop-color="#2AF6FF"/>
<stop offset="1" stop-color="#428BCC"/>
</linearGradient>
<linearGradient id="paint64_linear" x1="16502.4" y1="112.071" x2="16505.3" y2="112.071" gradientUnits="userSpaceOnUse">
<stop stop-color="#2AF6FF"/>
<stop offset="1" stop-color="#428BCC"/>
</linearGradient>
<linearGradient id="paint65_linear" x1="8300.66" y1="120.712" x2="8301.42" y2="120.712" gradientUnits="userSpaceOnUse">
<stop stop-color="#2AF6FF"/>
<stop offset="1" stop-color="#428BCC"/>
</linearGradient>
<linearGradient id="paint66_linear" x1="33573.7" y1="133.924" x2="33585.9" y2="133.924" gradientUnits="userSpaceOnUse">
<stop stop-color="#2AF6FF"/>
<stop offset="1" stop-color="#428BCC"/>
</linearGradient>
<linearGradient id="paint67_linear" x1="10648.5" y1="124.179" x2="10649.7" y2="124.179" gradientUnits="userSpaceOnUse">
<stop stop-color="#2AF6FF"/>
<stop offset="1" stop-color="#428BCC"/>
</linearGradient>
<linearGradient id="paint68_linear" x1="21412.7" y1="139.625" x2="21417.7" y2="139.625" gradientUnits="userSpaceOnUse">
<stop stop-color="#2AF6FF"/>
<stop offset="1" stop-color="#428BCC"/>
</linearGradient>
<linearGradient id="paint69_linear" x1="10640.9" y1="137.081" x2="10642.2" y2="137.081" gradientUnits="userSpaceOnUse">
<stop stop-color="#2AF6FF"/>
<stop offset="1" stop-color="#428BCC"/>
</linearGradient>
<linearGradient id="paint70_linear" x1="29836.8" y1="170.083" x2="29846.6" y2="170.083" gradientUnits="userSpaceOnUse">
<stop stop-color="#2AF6FF"/>
<stop offset="1" stop-color="#428BCC"/>
</linearGradient>
<linearGradient id="paint71_linear" x1="33572" y1="151.878" x2="33584.3" y2="151.878" gradientUnits="userSpaceOnUse">
<stop stop-color="#2AF6FF"/>
<stop offset="1" stop-color="#428BCC"/>
</linearGradient>
<linearGradient id="paint72_linear" x1="51112.8" y1="155.831" x2="51141.4" y2="155.831" gradientUnits="userSpaceOnUse">
<stop stop-color="#2AF6FF"/>
<stop offset="1" stop-color="#428BCC"/>
</linearGradient>
<linearGradient id="paint73_linear" x1="197.531" y1="218.874" x2="197.531" y2="198" gradientUnits="userSpaceOnUse">
<stop offset="0.09" stop-color="#25054D"/>
<stop offset="0.47" stop-color="#330A68"/>
<stop offset="0.89" stop-color="#45108A"/>
</linearGradient>
<linearGradient id="paint74_linear" x1="197.108" y1="218.39" x2="206.339" y2="147.202" gradientUnits="userSpaceOnUse">
<stop offset="0.04" stop-color="#9D9EB3"/>
<stop offset="0.58" stop-color="#D4D1D8"/>
<stop offset="1" stop-color="#EEEBF2"/>
</linearGradient>
<linearGradient id="paint75_linear" x1="111529" y1="926.199" x2="111540" y2="849.405" gradientUnits="userSpaceOnUse">
<stop offset="0.09" stop-color="#25054D"/>
<stop offset="0.47" stop-color="#330A68"/>
<stop offset="0.89" stop-color="#45108A"/>
</linearGradient>
<linearGradient id="paint76_linear" x1="105501" y1="3471.95" x2="105521" y2="2465.01" gradientUnits="userSpaceOnUse">
<stop offset="0.04" stop-color="#9D9EB3"/>
<stop offset="0.58" stop-color="#D4D1D8"/>
<stop offset="1" stop-color="#EEEBF2"/>
</linearGradient>
<linearGradient id="paint77_linear" x1="257.494" y1="295.61" x2="180.937" y2="172.902" gradientUnits="userSpaceOnUse">
<stop offset="0.04" stop-color="#6B24D6"/>
<stop offset="0.29" stop-color="#7733DC"/>
<stop offset="0.79" stop-color="#975CED"/>
<stop offset="1" stop-color="#A56EF4"/>
</linearGradient>
<linearGradient id="paint78_linear" x1="227603" y1="1537.94" x2="228708" y2="1045.15" gradientUnits="userSpaceOnUse">
<stop offset="0.04" stop-color="#6B24D6"/>
<stop offset="0.29" stop-color="#7733DC"/>
<stop offset="0.79" stop-color="#975CED"/>
<stop offset="1" stop-color="#A56EF4"/>
</linearGradient>
<linearGradient id="paint79_linear" x1="221871" y1="1599.74" x2="223320" y2="1118.5" gradientUnits="userSpaceOnUse">
<stop offset="0.04" stop-color="#6B24D6"/>
<stop offset="0.29" stop-color="#7733DC"/>
<stop offset="0.79" stop-color="#975CED"/>
<stop offset="1" stop-color="#A56EF4"/>
</linearGradient>
<linearGradient id="paint80_linear" x1="221.84" y1="203.791" x2="97.2617" y2="166.508" gradientUnits="userSpaceOnUse">
<stop offset="0.04" stop-color="#138BBD"/>
<stop offset="0.23" stop-color="#169AC7"/>
<stop offset="0.59" stop-color="#1FC3DF"/>
<stop offset="1" stop-color="#2AF6FF"/>
</linearGradient>
<linearGradient id="paint81_linear" x1="221871" y1="1575.5" x2="223320" y2="1094.99" gradientUnits="userSpaceOnUse">
<stop offset="0.04" stop-color="#138BBD"/>
<stop offset="0.23" stop-color="#169AC7"/>
<stop offset="0.59" stop-color="#1FC3DF"/>
<stop offset="1" stop-color="#2AF6FF"/>
</linearGradient>
<linearGradient id="paint82_linear" x1="451284" y1="920.657" x2="450781" y2="2567.14" gradientUnits="userSpaceOnUse">
<stop offset="0.04" stop-color="#138BBD"/>
<stop offset="0.23" stop-color="#169AC7"/>
<stop offset="0.59" stop-color="#1FC3DF"/>
<stop offset="1" stop-color="#2AF6FF"/>
</linearGradient>
<radialGradient id="paint83_radial" cx="0" cy="0" r="1" gradientUnits="userSpaceOnUse" gradientTransform="translate(184.97 107.917) rotate(68.99) scale(21.115)">
<stop offset="0.03" stop-color="#FEDFCB"/>
<stop offset="0.78" stop-color="#F9B69E"/>
<stop offset="0.99" stop-color="#F2A78C"/>
</radialGradient>
<radialGradient id="paint84_radial" cx="0" cy="0" r="1" gradientUnits="userSpaceOnUse" gradientTransform="translate(192.377 76.0475) rotate(79.57) scale(23.9505)">
<stop offset="0.03" stop-color="#FEDFCB"/>
<stop offset="1" stop-color="#F9B69E"/>
</radialGradient>
<linearGradient id="paint85_linear" x1="145919" y1="8980.7" x2="146927" y2="9035.32" gradientUnits="userSpaceOnUse">
<stop offset="0.03" stop-color="#7C1DC9"/>
<stop offset="0.21" stop-color="#6E41D2"/>
<stop offset="0.62" stop-color="#4C9BE8"/>
<stop offset="1" stop-color="#2AF6FF"/>
</linearGradient>
<linearGradient id="paint86_linear" x1="354899" y1="1701" x2="354806" y2="1476.58" gradientUnits="userSpaceOnUse">
<stop offset="0.04" stop-color="#9D9EB3"/>
<stop offset="0.58" stop-color="#D4D1D8"/>
<stop offset="1" stop-color="#EEEBF2"/>
</linearGradient>
<linearGradient id="paint87_linear" x1="347343" y1="1892.21" x2="347346" y2="1357.88" gradientUnits="userSpaceOnUse">
<stop offset="0.04" stop-color="#9D9EB3"/>
<stop offset="0.58" stop-color="#D4D1D8"/>
<stop offset="1" stop-color="#EEEBF2"/>
</linearGradient>
<radialGradient id="paint88_radial" cx="0" cy="0" r="1" gradientUnits="userSpaceOnUse" gradientTransform="translate(19202.6 -8868.08) rotate(-8.61565) scale(206.556 283.447)">
<stop offset="0.03" stop-color="#FEDFCB"/>
<stop offset="1" stop-color="#F9B69E"/>
</radialGradient>
<radialGradient id="paint89_radial" cx="0" cy="0" r="1" gradientUnits="userSpaceOnUse" gradientTransform="translate(240.998 58.4835) rotate(-8.61565) scale(20.8404)">
<stop stop-color="#FDD65B"/>
<stop offset="1" stop-color="#FFA98C"/>
</radialGradient>
<linearGradient id="paint90_linear" x1="-245267" y1="25859.9" x2="-246193" y2="25150.1" gradientUnits="userSpaceOnUse">
<stop offset="0.03" stop-color="#7C1DC9"/>
<stop offset="0.21" stop-color="#6E41D2"/>
<stop offset="0.62" stop-color="#4C9BE8"/>
<stop offset="1" stop-color="#2AF6FF"/>
</linearGradient>
<linearGradient id="paint91_linear" x1="128051" y1="538.587" x2="127904" y2="388.729" gradientUnits="userSpaceOnUse">
<stop offset="0.04" stop-color="#9D9EB3"/>
<stop offset="0.58" stop-color="#D4D1D8"/>
<stop offset="1" stop-color="#EEEBF2"/>
</linearGradient>
<radialGradient id="paint92_radial" cx="0" cy="0" r="1" gradientUnits="userSpaceOnUse" gradientTransform="translate(5865.2 -15067.3) rotate(-22.9727) scale(54.1828 52.1632)">
<stop offset="0.03" stop-color="#FEDFCB"/>
<stop offset="0.78" stop-color="#F9B69E"/>
<stop offset="0.99" stop-color="#F2A78C"/>
</radialGradient>
<radialGradient id="paint93_radial" cx="0" cy="0" r="1" gradientUnits="userSpaceOnUse" gradientTransform="translate(-15998.4 -51652) rotate(-55.9925) scale(145.782 99.6851)">
<stop offset="0.03" stop-color="#FEDFCB"/>
<stop offset="1" stop-color="#F9B69E"/>
</radialGradient>
<linearGradient id="paint94_linear" x1="-343294" y1="-42742.3" x2="-343348" y2="-43143.6" gradientUnits="userSpaceOnUse">
<stop offset="0.03" stop-color="#7C1DC9"/>
<stop offset="0.21" stop-color="#6E41D2"/>
<stop offset="0.62" stop-color="#4C9BE8"/>
<stop offset="1" stop-color="#2AF6FF"/>
</linearGradient>
<linearGradient id="paint95_linear" x1="57040.5" y1="2449.99" x2="57126.1" y2="2445.31" gradientUnits="userSpaceOnUse">
<stop offset="0.04" stop-color="#138BBD"/>
<stop offset="0.23" stop-color="#169AC7"/>
<stop offset="0.59" stop-color="#1FC3DF"/>
<stop offset="1" stop-color="#2AF6FF"/>
</linearGradient>
<linearGradient id="paint96_linear" x1="259954" y1="3370.11" x2="262054" y2="3084.57" gradientUnits="userSpaceOnUse">
<stop offset="0.04" stop-color="#138BBD"/>
<stop offset="0.23" stop-color="#169AC7"/>
<stop offset="0.59" stop-color="#1FC3DF"/>
<stop offset="1" stop-color="#2AF6FF"/>
</linearGradient>
<linearGradient id="paint97_linear" x1="239598" y1="722.454" x2="239565" y2="828.092" gradientUnits="userSpaceOnUse">
<stop offset="0.04" stop-color="#138BBD"/>
<stop offset="0.23" stop-color="#169AC7"/>
<stop offset="0.59" stop-color="#1FC3DF"/>
<stop offset="1" stop-color="#2AF6FF"/>
</linearGradient>
</defs>
</svg>
