<svg width="198" height="291" viewBox="0 0 198 291" fill="none" xmlns="http://www.w3.org/2000/svg">
<g opacity="0.8">
<path opacity="0.3" d="M165.183 155.668C138.966 139.89 116.358 118.778 98.825 93.7005H98.5507C79.1143 98.045 55.8822 92.923 32.1469 78.9746L31.2323 78.4258L0.5 96.0328L14.86 105.499C19.4333 165.546 42.8484 214.892 80.5777 273.292L81.4924 273.795C88.2608 271.143 77.971 277.271 83.8248 273.795L118.81 254.405C144.923 239.404 161.159 216.355 164.817 171.766L166.098 155.988L165.183 155.668Z" fill="url(#paint0_linear)"/>
<path opacity="0.8" d="M165.185 155.668C138.967 139.89 116.359 118.778 98.8266 93.7005H98.5522C79.1158 98.045 55.8837 92.923 32.1485 78.9746L31.2338 78.4258L27.8496 80.5295L28.7643 81.0783C52.4995 95.0267 75.6859 100.149 95.1222 95.8042H95.3966C112.946 120.884 135.569 141.996 161.8 157.772L162.715 158.275L161.434 173.87C158.005 215.669 143.553 238.536 120.275 253.627C145.611 238.581 161.434 215.578 164.864 171.766L166.099 155.988L165.185 155.668Z" fill="url(#paint1_linear)"/>
<path opacity="0.3" d="M165.182 155.669C138.964 139.891 116.356 118.779 98.8238 93.7009H98.5494H98.1835L32.1914 131.659L129.968 176.523L166.096 155.989L165.182 155.669Z" fill="url(#paint2_linear)"/>
<path style="mix-blend-mode:screen" opacity="0.8" d="M31.9198 97.0388L31.2796 82.3586L28.7643 80.8952L27.8496 80.3921L29.1301 97.4503C31.4514 127.638 38.761 157.232 50.7616 185.028C39.6819 156.935 33.3157 127.206 31.9198 97.0388Z" fill="url(#paint3_radial)"/>
</g>
<g opacity="0.3">
<path opacity="0.3" d="M94.6183 6.4888C87.7414 2.5238 79.9422 0.438487 72.0042 0.442388C64.0662 0.446289 56.2689 2.53927 49.396 6.51102C42.5231 10.4828 36.8164 16.1934 32.8495 23.0692C28.8826 29.9449 26.7952 37.7436 26.7969 45.6816V129.418C26.7969 133.991 33.4738 138.061 41.66 138.061C49.8461 138.061 56.5231 134.174 56.5231 129.418V52.0384C56.4924 48.64 57.3661 45.2945 59.0547 42.3451C60.7432 39.3957 63.1858 36.9484 66.132 35.2542C69.0782 33.56 72.422 32.6799 75.8205 32.7041C79.219 32.7282 82.55 33.6559 85.4718 35.3918C92.7622 39.5902 98.8191 45.6337 103.034 52.9149C107.248 60.196 109.472 68.4583 109.481 76.8712V176.98C109.481 181.553 116.204 185.44 124.299 185.44C132.393 185.44 139.07 181.599 139.162 176.888V83.5939C139.168 67.961 135.053 52.6026 127.233 39.0662C119.413 25.5297 108.164 14.2932 94.6183 6.4888Z" fill="url(#paint4_linear)"/>
<path style="mix-blend-mode:color-dodge" opacity="0.3" d="M35.9442 133.534V52.816C35.926 45.407 37.8625 38.1243 41.5582 31.7028C45.2539 25.2813 50.5781 19.9483 56.9935 16.2419C63.4089 12.5356 70.6884 10.587 78.0975 10.593C85.5065 10.5989 92.7829 12.5591 99.1923 16.2757C103.412 18.7272 107.42 21.5266 111.174 24.6448C105.73 19.1832 99.5771 14.4765 92.8812 10.6506C86.4684 6.932 79.1878 4.97172 71.7749 4.96778C64.3619 4.96384 57.0793 6.91638 50.6625 10.6282C44.2458 14.3399 38.9223 19.6795 35.2299 26.1073C31.5374 32.5352 29.6068 39.8237 29.6331 47.2366V127.909V131.156C29.6331 132.985 32.1484 134.906 35.7612 135.729L35.9442 133.534Z" fill="url(#paint5_radial)"/>
<path style="mix-blend-mode:color-dodge" opacity="0.3" d="M118.584 182.056V85.0116C118.564 77.2275 116.766 69.5509 113.326 62.568C109.886 55.5852 104.896 49.4809 98.7363 44.7212C107.517 54.1328 112.418 66.5147 112.456 79.3865V176.431V179.404C112.456 181.187 114.926 183.108 118.539 183.977L118.584 182.056Z" fill="url(#paint6_radial)"/>
<g opacity="0.3">
<path opacity="0.3" d="M63.5641 21.2607C57.1152 21.2728 50.9338 23.84 46.3737 28.4001C41.8136 32.9602 39.2465 39.1415 39.2344 45.5905V131.522V136.827C42.1125 137.093 45.014 136.734 47.7406 135.775V130.47V44.5386C47.7538 39.3384 49.4297 34.2788 52.5235 30.0989C55.6172 25.9191 59.9666 22.8382 64.9361 21.3065L63.5641 21.2607Z" fill="url(#paint7_linear)"/>
<path opacity="0.3" d="M89.4935 13.7146C83.4334 10.1578 76.5352 8.27934 69.5084 8.27246C66.5658 8.28373 63.6345 8.63671 60.7734 9.32431C67.84 9.31273 74.7833 11.1748 80.8958 14.7208C93.6601 22.0901 104.268 32.6796 111.659 45.4313C119.05 58.1831 122.966 72.651 123.015 87.3898V184.709C125.904 184.918 128.806 184.577 131.567 183.703V86.4294C131.54 71.6854 127.638 57.2076 120.254 44.4459C112.87 31.6842 102.262 21.0866 89.4935 13.7146Z" fill="url(#paint8_linear)"/>
</g>
<path style="mix-blend-mode:screen" opacity="0.5" d="M48.8867 54.4168V135.592C52.2709 134.54 54.4661 132.711 54.5576 131.019V127.726V53.3649C54.5713 48.6443 56.0786 44.0491 58.8634 40.2374C61.6482 36.4257 65.5678 33.593 70.0609 32.145C64.3502 32.438 58.9698 34.9117 55.0298 39.0559C51.0899 43.2001 48.8909 48.6986 48.8867 54.4168Z" fill="url(#paint9_linear)"/>
<g style="mix-blend-mode:screen" opacity="0.5">
<path style="mix-blend-mode:screen" opacity="0.5" d="M94.985 10.8334C91.9981 9.08193 88.802 7.71439 85.4727 6.76318C99.3988 15.1203 110.928 26.9358 118.941 41.0628C126.954 55.1898 131.179 71.1484 131.205 87.3897V183.154C135.275 182.193 137.974 180.09 138.019 178.215V85.1488C137.985 70.0774 133.992 55.2795 126.439 42.2369C118.886 29.1944 108.04 18.3651 94.985 10.8334Z" fill="url(#paint10_linear)"/>
</g>
</g>
<path d="M139.893 170.029C113.661 154.254 91.0371 133.142 73.4892 108.061H73.2605C53.7785 112.634 30.592 107.284 6.85683 93.3351L5.94218 92.832L0.5 96.0333L14.86 105.5C19.4333 165.547 42.8484 214.892 80.5777 273.293L81.4924 273.796C88.2608 271.143 77.971 277.272 83.8248 273.796L93.5201 268.765C119.679 253.765 135.777 230.716 139.527 186.172L140.808 170.532L139.893 170.029Z" fill="url(#paint11_linear)"/>
<path d="M139.892 170.029C113.659 154.254 91.0358 133.142 73.4879 108.061H73.2593H72.8477L32.1914 131.705L129.968 176.569L140.806 170.578L139.892 170.029Z" fill="url(#paint12_linear)"/>
<path style="mix-blend-mode:screen" d="M135.778 172.224C109.623 156.43 87.0779 135.318 69.6025 110.256H69.3281C49.8918 114.829 26.6596 109.524 2.92442 95.5759L2.00977 95.0271L3.15308 111.994C7.72634 172.041 31.2786 221.386 69.008 279.787L69.9226 280.29C107.652 265.472 131.204 243.246 135.778 188.367L137.058 172.772L135.778 172.224Z" fill="url(#paint13_radial)"/>
<path d="M134.222 172.955C108 157.167 85.3786 136.057 67.8184 110.987C48.3363 115.332 25.1499 110.21 1.41466 96.2614L0.5 95.7126L1.78052 112.817C6.35377 172.909 29.7231 222.209 67.4525 280.609L68.4129 281.113C106.142 266.295 129.557 244.069 134.085 189.19L135.365 173.595L134.222 172.955Z" fill="url(#paint14_linear)"/>
<path style="mix-blend-mode:color-dodge" d="M134.222 172.955C108 157.167 85.3786 136.057 67.8184 110.987C48.3363 115.332 25.1499 110.21 1.41466 96.2614L0.5 95.7126L1.78052 112.817C6.35377 172.909 29.7231 222.209 67.4525 280.609L68.4129 281.113C106.142 266.295 129.557 244.069 134.085 189.19L135.365 173.595L134.222 172.955Z" fill="url(#paint15_radial)"/>
<path style="mix-blend-mode:color-dodge" d="M134.222 172.955L133.033 172.223L131.753 187.726C127.18 242.331 104.039 264.603 66.584 279.192C66.8126 279.558 67.0413 279.878 67.2242 280.243L68.1846 280.747C105.914 265.929 129.329 243.703 133.857 188.824L135.137 173.229L134.222 172.955Z" fill="url(#paint16_radial)"/>
<path d="M70.5594 272.057C36.6716 218.962 13.3023 171.08 8.86619 111.993L8.5918 108.289C22.5153 115.369 37.8409 119.259 53.4555 119.676C57.1601 119.684 60.8599 119.409 64.5227 118.853C81.5164 142.276 102.886 162.186 127.451 177.482L126.628 188.458C122.374 238.901 102.115 258.612 70.5594 272.057Z" fill="#F4AF87"/>
<path style="mix-blend-mode:multiply" opacity="0.2" d="M13.6274 111.262V110.667L8.64258 108.427L8.91697 112.131C13.4902 171.08 36.7224 218.962 70.6102 272.195L74.7719 270.366C41.1584 217.544 18.0178 169.708 13.6274 111.262Z" fill="url(#paint17_radial)"/>
<path d="M80.8975 182.879C80.6776 178.955 79.5362 175.137 77.5657 171.737C75.5952 168.336 72.8512 165.447 69.556 163.305C63.1077 159.647 58.0312 162.574 58.0312 169.708C58.3126 175.096 60.3345 180.247 63.7935 184.388V207.254L75.0438 213.748V190.882C78.4281 190.653 80.8975 187.726 80.8975 182.879Z" fill="url(#paint18_linear)"/>
<path d="M69.0536 204.83V181.964C65.5999 177.842 63.592 172.701 63.337 167.329C63.2487 165.344 63.7758 163.379 64.8462 161.704C60.8218 161.384 57.9863 164.357 57.9863 169.708C58.2609 175.083 60.2843 180.222 63.7486 184.342V207.208L74.9988 213.702V208.26L69.0536 204.83Z" fill="url(#paint19_linear)"/>
<g style="mix-blend-mode:multiply" opacity="0.7">
<g style="mix-blend-mode:multiply" opacity="0.7">
<path d="M69.0536 204.83V181.964C65.5999 177.842 63.592 172.701 63.337 167.329C63.2487 165.344 63.7758 163.379 64.8462 161.704C60.8218 161.384 57.9863 164.357 57.9863 169.708C58.2609 175.083 60.2843 180.222 63.7486 184.342V207.208L74.9988 213.702V208.26L69.0536 204.83Z" fill="#7A5608"/>
</g>
</g>
<path style="mix-blend-mode:multiply" d="M61.3258 94.7067C61.3258 100.24 53.597 104.768 44.0389 104.768C34.4808 104.768 26.752 100.195 26.752 94.7067C26.752 89.2188 34.4808 84.6455 44.0389 84.6455C53.597 84.6455 61.3258 89.1273 61.3258 94.7067Z" fill="url(#paint20_linear)"/>
<path style="mix-blend-mode:multiply" d="M143.048 141.948C143.048 147.345 135.502 151.689 126.264 151.689C117.026 151.689 109.48 147.116 109.48 141.948C109.48 136.78 116.981 132.161 126.264 132.161C135.548 132.161 143.048 136.552 143.048 141.948Z" fill="url(#paint21_linear)"/>
<path d="M94.6183 6.30569C87.7414 2.34069 79.9422 0.255382 72.0042 0.259283C64.0662 0.263184 56.2689 2.35616 49.396 6.32792C42.5231 10.2997 36.8164 16.0103 32.8495 22.8861C28.8826 29.7618 26.7952 37.5605 26.7969 45.4985V94.5696C26.7969 99.1428 33.4738 103.213 41.66 103.213C49.8461 103.213 56.5231 99.3258 56.5231 94.5696V51.8553C56.5067 48.4624 57.3895 45.1257 59.0814 42.1847C60.7734 39.2437 63.2142 36.8033 66.1555 35.1119C69.0969 33.4206 72.4338 32.5385 75.8267 32.5555C79.2196 32.5725 82.5475 33.4879 85.4718 35.2087C92.7591 39.4107 98.8135 45.455 103.028 52.7353C107.242 60.0157 109.467 68.2761 109.481 76.6881V142.269C109.481 146.842 116.204 150.729 124.299 150.729C132.393 150.729 139.07 146.842 139.162 142.269V83.4566C139.162 67.8186 135.045 52.4563 127.226 38.9135C119.407 25.3707 108.161 14.1246 94.6183 6.30569Z" fill="url(#paint22_linear)"/>
<path style="mix-blend-mode:color-dodge" d="M35.9439 98.6859V52.6789C35.956 41.4754 40.412 30.7342 48.334 22.8121C56.2561 14.89 66.9973 10.4341 78.2008 10.422C85.5816 10.4281 92.8274 12.4014 99.1921 16.1386C103.421 18.5585 107.43 21.3436 111.174 24.4619C105.74 19.0008 99.5856 14.3079 92.881 10.5134C86.5163 6.77627 79.2705 4.80302 71.8897 4.79688C60.6899 4.82103 49.9557 9.28085 42.0363 17.2003C34.1168 25.1198 29.657 35.854 29.6328 47.0538V93.0608V96.5364C29.6328 98.3657 32.1481 100.286 35.761 101.11L35.9439 98.6859Z" fill="url(#paint23_radial)"/>
<path style="mix-blend-mode:color-dodge" d="M118.584 147.208V84.8742C118.564 77.0836 116.766 69.4003 113.327 62.41C109.887 55.4198 104.897 49.3072 98.7363 44.5381C107.524 53.9637 112.425 66.3624 112.456 79.2491V141.583V144.555C112.456 146.339 114.926 148.26 118.539 149.128L118.584 147.208Z" fill="url(#paint24_radial)"/>
<path d="M63.5641 21.0781C57.1152 21.0902 50.9338 23.6574 46.3737 28.2175C41.8136 32.7776 39.2465 38.9589 39.2344 45.4079V96.5369V101.842C42.0444 102.191 44.8966 101.942 47.6034 101.11V95.8052V44.4017C47.6141 39.1955 49.2882 34.1289 52.3816 29.9413C55.475 25.7537 59.8257 22.6643 64.7989 21.1239L63.5641 21.0781Z" fill="url(#paint25_linear)"/>
<path d="M89.4935 13.5317C83.4213 10.0091 76.5284 8.14789 69.5084 8.13529C66.5676 8.13116 63.6363 8.4688 60.7734 9.14141C67.8468 9.12383 74.7955 11.0031 80.8958 14.5836C93.6864 21.9576 104.312 32.567 111.705 45.3465C119.098 58.1261 122.999 72.6259 123.015 87.3898V149.861C125.908 150.074 128.813 149.716 131.567 148.809V86.2465C131.54 71.5025 127.638 57.0247 120.254 44.263C112.87 31.5013 102.262 20.9037 89.4935 13.5317Z" fill="url(#paint26_linear)"/>
<path style="mix-blend-mode:screen" opacity="0.5" d="M48.8867 54.2334V100.743C52.2709 99.6915 54.4661 97.8622 54.5576 96.1701V92.8774V53.2272C54.5643 48.5049 56.0688 43.9064 58.8547 40.0934C61.6405 36.2803 65.5641 33.4492 70.0609 32.0073C64.3581 32.2998 58.9843 34.7672 55.0456 38.9017C51.1068 43.0361 48.9026 48.5231 48.8867 54.2334Z" fill="url(#paint27_linear)"/>
<g style="mix-blend-mode:screen" opacity="0.5">
<path style="mix-blend-mode:screen" opacity="0.5" d="M94.985 10.6503C91.9981 8.89883 88.802 7.53129 85.4727 6.58008C99.4223 14.9566 110.966 26.8017 118.98 40.9627C126.994 55.1236 131.206 71.1181 131.205 87.3895V148.305C135.275 147.299 137.974 145.241 138.019 143.32V84.9657C137.985 69.8943 133.992 55.0964 126.439 42.0538C118.886 29.0113 108.04 18.182 94.985 10.6503Z" fill="url(#paint28_linear)"/>
</g>
<path style="mix-blend-mode:screen" d="M78.1564 10.6043C85.8606 10.6183 93.4443 12.5182 100.245 16.1379C97.6271 14.1766 94.8935 12.3746 92.0591 10.7415C85.9989 7.18464 79.1008 5.30619 72.0739 5.29932C61.4199 5.32348 51.2092 9.56646 43.6757 17.1C36.1421 24.6335 31.8992 34.8443 31.875 45.4983C34.8077 35.4764 40.8952 26.6679 49.2331 20.3815C57.5709 14.0951 67.7144 10.6663 78.1564 10.6043Z" fill="url(#paint29_linear)"/>
<path style="mix-blend-mode:screen" d="M114.421 77.9227C115.515 70.1727 114.849 62.2758 112.474 54.8181C110.099 47.3603 106.075 40.533 100.701 34.8426C87.759 21.1229 72.1642 17.6472 64.1152 30.7724C67.7783 28.6305 71.9453 27.5016 76.1886 27.5016C80.432 27.5016 84.599 28.6305 88.262 30.7724C96.3021 35.4036 102.984 42.0659 107.639 50.092C112.295 58.1182 114.759 67.2266 114.787 76.505L114.421 77.9227Z" fill="url(#paint30_linear)"/>
<defs>
<linearGradient id="paint0_linear" x1="41.5679" y1="72.0232" x2="138.933" y2="243.429" gradientUnits="userSpaceOnUse">
<stop stop-color="#18065F"/>
<stop offset="0.07" stop-color="#8A6EB3"/>
<stop offset="0.08" stop-color="#AE90A7"/>
<stop offset="0.1" stop-color="#CEAE9D"/>
<stop offset="0.11" stop-color="#E5C496"/>
<stop offset="0.13" stop-color="#F2D192"/>
<stop offset="0.14" stop-color="#F7D590"/>
<stop offset="0.22" stop-color="#FAE59A"/>
<stop offset="0.32" stop-color="#FDF2A3"/>
<stop offset="0.41" stop-color="#FEF7A6"/>
<stop offset="0.55" stop-color="#F9E296"/>
<stop offset="0.69" stop-color="#F5D38B"/>
<stop offset="0.81" stop-color="#F4CE87"/>
</linearGradient>
<linearGradient id="paint1_linear" x1="61.2801" y1="60.8187" x2="158.645" y2="232.179" gradientUnits="userSpaceOnUse">
<stop offset="0.06" stop-color="#F7C290"/>
<stop offset="0.17" stop-color="#FBD59B"/>
<stop offset="0.3" stop-color="#FDE2A3"/>
<stop offset="0.41" stop-color="#FEE7A6"/>
<stop offset="0.55" stop-color="#F9D095"/>
<stop offset="0.69" stop-color="#F5C18B"/>
<stop offset="0.81" stop-color="#F4BC87"/>
</linearGradient>
<linearGradient id="paint2_linear" x1="46.6886" y1="79.2952" x2="146.431" y2="202.133" gradientUnits="userSpaceOnUse">
<stop offset="0.01" stop-color="#F7D590"/>
<stop offset="0.25" stop-color="#F9DB96"/>
<stop offset="0.56" stop-color="#FEECA6"/>
<stop offset="1" stop-color="#F4C187"/>
</linearGradient>
<radialGradient id="paint3_radial" cx="0" cy="0" r="1" gradientUnits="userSpaceOnUse" gradientTransform="translate(32.9717 68.776) scale(45.824)">
<stop stop-color="#FFE9A7"/>
<stop offset="0.04" stop-color="#E9D598"/>
<stop offset="0.15" stop-color="#B3A375"/>
<stop offset="0.26" stop-color="#837856"/>
<stop offset="0.37" stop-color="#5B533B"/>
<stop offset="0.49" stop-color="#3A3526"/>
<stop offset="0.6" stop-color="#201E15"/>
<stop offset="0.73" stop-color="#0E0D09"/>
<stop offset="0.85" stop-color="#030302"/>
<stop offset="1"/>
</radialGradient>
<linearGradient id="paint4_linear" x1="187.776" y1="147.162" x2="-42.0306" y2="7.17475" gradientUnits="userSpaceOnUse">
<stop offset="0.04" stop-color="#9D9EB3"/>
<stop offset="0.58" stop-color="#D4D1D8"/>
<stop offset="1" stop-color="#EEEBF2"/>
</linearGradient>
<radialGradient id="paint5_radial" cx="0" cy="0" r="1" gradientUnits="userSpaceOnUse" gradientTransform="translate(15.1816 143.549) scale(91.7853)">
<stop stop-color="#F49587"/>
<stop offset="0.12" stop-color="#BD7368"/>
<stop offset="0.24" stop-color="#8B554D"/>
<stop offset="0.36" stop-color="#603B35"/>
<stop offset="0.48" stop-color="#3E2622"/>
<stop offset="0.61" stop-color="#231513"/>
<stop offset="0.74" stop-color="#0F0908"/>
<stop offset="0.86" stop-color="#040202"/>
<stop offset="1"/>
</radialGradient>
<radialGradient id="paint6_radial" cx="0" cy="0" r="1" gradientUnits="userSpaceOnUse" gradientTransform="translate(862.684 6898.89) scale(486.672 3414.55)">
<stop stop-color="#F49587"/>
<stop offset="0.12" stop-color="#BD7368"/>
<stop offset="0.24" stop-color="#8B554D"/>
<stop offset="0.36" stop-color="#603B35"/>
<stop offset="0.48" stop-color="#3E2622"/>
<stop offset="0.61" stop-color="#231513"/>
<stop offset="0.74" stop-color="#0F0908"/>
<stop offset="0.86" stop-color="#040202"/>
<stop offset="1"/>
</radialGradient>
<linearGradient id="paint7_linear" x1="854.235" y1="2774.92" x2="270.353" y2="2695.85" gradientUnits="userSpaceOnUse">
<stop offset="0.04" stop-color="#9D9EB3"/>
<stop offset="0.58" stop-color="#D4D1D8"/>
<stop offset="1" stop-color="#EEEBF2"/>
</linearGradient>
<linearGradient id="paint8_linear" x1="3464.55" y1="5170.78" x2="734.281" y2="4820.31" gradientUnits="userSpaceOnUse">
<stop offset="0.04" stop-color="#9D9EB3"/>
<stop offset="0.58" stop-color="#D4D1D8"/>
<stop offset="1" stop-color="#EEEBF2"/>
</linearGradient>
<linearGradient id="paint9_linear" x1="83.2319" y1="98.2743" x2="18.6575" y2="58.9443" gradientUnits="userSpaceOnUse">
<stop stop-color="#FFE4A7"/>
<stop offset="1"/>
</linearGradient>
<linearGradient id="paint10_linear" x1="3219.89" y1="6464.42" x2="475.299" y2="5966.37" gradientUnits="userSpaceOnUse">
<stop stop-color="#FFE4A7"/>
<stop offset="1"/>
</linearGradient>
<linearGradient id="paint11_linear" x1="28.8999" y1="79.2037" x2="126.265" y2="250.609" gradientUnits="userSpaceOnUse">
<stop offset="0.06" stop-color="#F7D590"/>
<stop offset="0.17" stop-color="#FBE99B"/>
<stop offset="0.3" stop-color="#FDF6A3"/>
<stop offset="0.41" stop-color="#FEFBA6"/>
<stop offset="0.55" stop-color="#F9E495"/>
<stop offset="0.69" stop-color="#F5D58B"/>
<stop offset="0.81" stop-color="#F4D087"/>
</linearGradient>
<linearGradient id="paint12_linear" x1="36.4445" y1="89.4481" x2="131.568" y2="206.615" gradientUnits="userSpaceOnUse">
<stop offset="0.01" stop-color="#F7C990"/>
<stop offset="0.18" stop-color="#F8CF93"/>
<stop offset="0.4" stop-color="#FBE19D"/>
<stop offset="0.56" stop-color="#FEF1A6"/>
<stop offset="1" stop-color="#F4C187"/>
</linearGradient>
<radialGradient id="paint13_radial" cx="0" cy="0" r="1" gradientUnits="userSpaceOnUse" gradientTransform="translate(119.177 160.653) scale(108.981)">
<stop offset="0.36" stop-color="white"/>
<stop offset="0.43" stop-color="#E1E1E1"/>
<stop offset="0.64" stop-color="#828282"/>
<stop offset="0.81" stop-color="#3C3C3C"/>
<stop offset="0.94" stop-color="#111111"/>
<stop offset="1"/>
</radialGradient>
<linearGradient id="paint14_linear" x1="40.6532" y1="100.103" x2="127.271" y2="295.381" gradientUnits="userSpaceOnUse">
<stop stop-color="#FFF3A7"/>
<stop offset="0.11" stop-color="#FDE8A0"/>
<stop offset="0.41" stop-color="#F8D092"/>
<stop offset="0.69" stop-color="#F5C18A"/>
<stop offset="0.92" stop-color="#F4BC87"/>
</linearGradient>
<radialGradient id="paint15_radial" cx="0" cy="0" r="1" gradientUnits="userSpaceOnUse" gradientTransform="translate(113.048 280.289) scale(89.3157)">
<stop stop-color="#92402E"/>
<stop offset="1"/>
</radialGradient>
<radialGradient id="paint16_radial" cx="0" cy="0" r="1" gradientUnits="userSpaceOnUse" gradientTransform="translate(123.887 280.564) scale(45.4125)">
<stop stop-color="#FF63CE"/>
<stop offset="1"/>
</radialGradient>
<radialGradient id="paint17_radial" cx="0" cy="0" r="1" gradientUnits="userSpaceOnUse" gradientTransform="translate(31.9662 246.432) scale(62.425 103.625)">
<stop offset="0.14" stop-color="#25166D"/>
<stop offset="0.22" stop-color="#2C1D72"/>
<stop offset="0.34" stop-color="#3E317E"/>
<stop offset="0.48" stop-color="#5D5293"/>
<stop offset="0.64" stop-color="#887FAF"/>
<stop offset="0.82" stop-color="#BEBAD4"/>
<stop offset="1" stop-color="white"/>
</radialGradient>
<linearGradient id="paint18_linear" x1="111.63" y1="186.995" x2="61.7813" y2="187.864" gradientUnits="userSpaceOnUse">
<stop offset="0.02" stop-color="#FFA98C"/>
<stop offset="0.07" stop-color="#C46AA7"/>
<stop offset="0.13" stop-color="#9033C0"/>
<stop offset="0.16" stop-color="#7C1DC9"/>
<stop offset="0.32" stop-color="#6E41D2"/>
<stop offset="0.67" stop-color="#4C9BE8"/>
<stop offset="1" stop-color="#2AF6FF"/>
</linearGradient>
<linearGradient id="paint19_linear" x1="568.362" y1="2269.07" x2="876.43" y2="2439.89" gradientUnits="userSpaceOnUse">
<stop offset="0.06" stop-color="#F7D590"/>
<stop offset="0.17" stop-color="#FBE99B"/>
<stop offset="0.3" stop-color="#FDF6A3"/>
<stop offset="0.41" stop-color="#FEFBA6"/>
<stop offset="0.55" stop-color="#F9E495"/>
<stop offset="0.69" stop-color="#F5D58B"/>
<stop offset="0.81" stop-color="#F4D087"/>
</linearGradient>
<linearGradient id="paint20_linear" x1="54.6488" y1="85.2858" x2="30.1362" y2="107.054" gradientUnits="userSpaceOnUse">
<stop stop-color="white"/>
<stop offset="1"/>
</linearGradient>
<linearGradient id="paint21_linear" x1="1772.43" y1="801.77" x2="1650.88" y2="1011.87" gradientUnits="userSpaceOnUse">
<stop stop-color="white"/>
<stop offset="1"/>
</linearGradient>
<linearGradient id="paint22_linear" x1="6565.31" y1="4953.73" x2="824.784" y2="2341.8" gradientUnits="userSpaceOnUse">
<stop offset="0.04" stop-color="#9D9EB3"/>
<stop offset="0.58" stop-color="#D4D1D8"/>
<stop offset="1" stop-color="#EEEBF2"/>
</linearGradient>
<radialGradient id="paint23_radial" cx="0" cy="0" r="1" gradientUnits="userSpaceOnUse" gradientTransform="translate(1874.91 2819.06) scale(1634.09 1930.11)">
<stop stop-color="#F49587"/>
<stop offset="0.12" stop-color="#BD7368"/>
<stop offset="0.24" stop-color="#8B554D"/>
<stop offset="0.36" stop-color="#603B35"/>
<stop offset="0.48" stop-color="#3E2622"/>
<stop offset="0.61" stop-color="#231513"/>
<stop offset="0.74" stop-color="#0F0908"/>
<stop offset="0.86" stop-color="#040202"/>
<stop offset="1"/>
</radialGradient>
<radialGradient id="paint24_radial" cx="0" cy="0" r="1" gradientUnits="userSpaceOnUse" gradientTransform="translate(862.684 4316.01) scale(468.213 2467.29)">
<stop stop-color="#F49587"/>
<stop offset="0.12" stop-color="#BD7368"/>
<stop offset="0.24" stop-color="#8B554D"/>
<stop offset="0.36" stop-color="#603B35"/>
<stop offset="0.48" stop-color="#3E2622"/>
<stop offset="0.61" stop-color="#231513"/>
<stop offset="0.74" stop-color="#0F0908"/>
<stop offset="0.86" stop-color="#040202"/>
<stop offset="1"/>
</radialGradient>
<linearGradient id="paint25_linear" x1="837.103" y1="1613.52" x2="445.116" y2="1537.98" gradientUnits="userSpaceOnUse">
<stop offset="0.04" stop-color="#9D9EB3"/>
<stop offset="0.58" stop-color="#D4D1D8"/>
<stop offset="1" stop-color="#EEEBF2"/>
</linearGradient>
<linearGradient id="paint26_linear" x1="3417.12" y1="3582.54" x2="947.461" y2="3187.71" gradientUnits="userSpaceOnUse">
<stop offset="0.04" stop-color="#9D9EB3"/>
<stop offset="0.58" stop-color="#D4D1D8"/>
<stop offset="1" stop-color="#EEEBF2"/>
</linearGradient>
<linearGradient id="paint27_linear" x1="796.971" y1="1559.32" x2="549.171" y2="1512.87" gradientUnits="userSpaceOnUse">
<stop stop-color="#FFE4A7"/>
<stop offset="1"/>
</linearGradient>
<linearGradient id="paint28_linear" x1="3105.33" y1="4465.26" x2="769.578" y2="3937.56" gradientUnits="userSpaceOnUse">
<stop stop-color="#FFE4A7"/>
<stop offset="1"/>
</linearGradient>
<linearGradient id="paint29_linear" x1="2170.49" y1="349.804" x2="2234.82" y2="529.527" gradientUnits="userSpaceOnUse">
<stop stop-color="#FFE4A7"/>
<stop offset="1"/>
</linearGradient>
<linearGradient id="paint30_linear" x1="2345.3" y1="863.194" x2="1113.91" y2="1255.5" gradientUnits="userSpaceOnUse">
<stop stop-color="#FFE4A7"/>
<stop offset="1"/>
</linearGradient>
</defs>
</svg>
