<svg width="110" height="121" viewBox="0 0 110 121" fill="none" xmlns="http://www.w3.org/2000/svg">
<path d="M9.64554 94.2081C7.77282 94.2081 6.25268 93.6185 5.08512 92.4394C3.92912 91.2487 3.35112 89.7459 3.35112 87.931C3.35112 86.197 3.94068 84.7173 5.1198 83.492C6.31048 82.2666 7.8075 81.6539 9.61086 81.6539C10.6281 81.6539 11.4951 81.7926 12.2119 82.0701C12.9286 82.336 13.6164 82.7463 14.2753 83.3012L12.9228 84.9138C12.4142 84.4746 11.8997 84.1509 11.3795 83.9428C10.8709 83.7232 10.2524 83.6133 9.52416 83.6133C8.4144 83.6133 7.47804 84.0353 6.71508 84.8792C5.96368 85.723 5.58798 86.7403 5.58798 87.931C5.58798 89.191 5.96946 90.2314 6.73242 91.0522C7.49538 91.8614 8.48954 92.266 9.7149 92.266C10.8478 92.266 11.8246 91.9597 12.6454 91.347V89.0754H9.5415V87.2201H14.7088V92.318C13.2407 93.5781 11.5529 94.2081 9.64554 94.2081ZM21.5959 94.2081C20.2087 94.2081 19.0527 93.7457 18.1279 92.8209C17.2031 91.8961 16.7407 90.769 16.7407 89.4396C16.7407 88.1102 17.2089 86.9831 18.1453 86.0583C19.0816 85.1219 20.2434 84.6537 21.6306 84.6537C23.0178 84.6537 24.1738 85.1161 25.0986 86.0409C26.035 86.9657 26.5031 88.0986 26.5031 89.4396C26.5031 90.7574 26.035 91.8845 25.0986 92.8209C24.1622 93.7457 22.9947 94.2081 21.5959 94.2081ZM21.6306 92.3874C22.4629 92.3874 23.1334 92.1042 23.642 91.5377C24.1507 90.9713 24.405 90.2719 24.405 89.4396C24.405 88.6188 24.1391 87.9252 23.6074 87.3588C23.0756 86.7808 22.4051 86.4918 21.5959 86.4918C20.7752 86.4918 20.1105 86.775 19.6018 87.3414C19.0932 87.9079 18.8389 88.6073 18.8389 89.4396C18.8389 90.2488 19.1047 90.9424 19.6365 91.5204C20.1683 92.0984 20.833 92.3874 21.6306 92.3874ZM32.9922 94.2081C31.605 94.2081 30.449 93.7457 29.5242 92.8209C28.5994 91.8961 28.137 90.769 28.137 89.4396C28.137 88.1102 28.6052 86.9831 29.5416 86.0583C30.4779 85.1219 31.6397 84.6537 33.0269 84.6537C34.4141 84.6537 35.5701 85.1161 36.4949 86.0409C37.4313 86.9657 37.8994 88.0986 37.8994 89.4396C37.8994 90.7574 37.4313 91.8845 36.4949 92.8209C35.5585 93.7457 34.391 94.2081 32.9922 94.2081ZM33.0269 92.3874C33.8592 92.3874 34.5297 92.1042 35.0383 91.5377C35.547 90.9713 35.8013 90.2719 35.8013 89.4396C35.8013 88.6188 35.5354 87.9252 35.0037 87.3588C34.4719 86.7808 33.8014 86.4918 32.9922 86.4918C32.1715 86.4918 31.5068 86.775 30.9981 87.3414C30.4895 87.9079 30.2352 88.6073 30.2352 89.4396C30.2352 90.2488 30.501 90.9424 31.0328 91.5204C31.5646 92.0984 32.2293 92.3874 33.0269 92.3874ZM44.1111 96.8091C42.5852 96.8091 41.2211 96.4449 40.0188 95.7167L40.7991 94.1387C41.8395 94.7861 42.9262 95.1098 44.0591 95.1098C44.9954 95.1098 45.7121 94.867 46.2092 94.3815C46.7063 93.9075 46.9548 93.2139 46.9548 92.3007V91.5897C46.0878 92.7111 45.0128 93.2717 43.7296 93.2717C42.5967 93.2717 41.6199 92.8787 40.7991 92.0926C39.9784 91.3065 39.568 90.2603 39.568 88.9541C39.568 87.6593 39.9784 86.6189 40.7991 85.8329C41.6315 85.0468 42.6083 84.6537 43.7296 84.6537C45.0012 84.6537 46.0705 85.1739 46.9375 86.2143V84.8445H49.0357V92.1273C49.0357 93.6532 48.6484 94.8034 47.8739 95.5779C47.0531 96.3987 45.7988 96.8091 44.1111 96.8091ZM44.2845 91.503C45.0243 91.503 45.6543 91.2661 46.1745 90.7921C46.7063 90.3066 46.9722 89.6939 46.9722 88.9541C46.9722 88.2142 46.7063 87.6073 46.1745 87.1334C45.6543 86.6594 45.0243 86.4224 44.2845 86.4224C43.5446 86.4224 42.9262 86.6594 42.4291 87.1334C41.932 87.5958 41.6835 88.2084 41.6835 88.9714C41.6835 89.7112 41.932 90.3181 42.4291 90.7921C42.9377 91.2661 43.5562 91.503 44.2845 91.503ZM51.774 94V81.3418H53.8722V94H51.774ZM60.8105 94.2081C59.4695 94.2081 58.3482 93.763 57.4465 92.8729C56.5564 91.9828 56.1113 90.8326 56.1113 89.4222C56.1113 88.0928 56.5333 86.9657 57.3771 86.0409C58.221 85.1161 59.2903 84.6537 60.585 84.6537C61.9722 84.6537 63.0473 85.1277 63.8103 86.0756C64.5848 87.012 64.9721 88.1795 64.9721 89.5783C64.9721 89.8326 64.9605 90.0291 64.9374 90.1679H58.2095C58.3251 90.8961 58.6198 91.4684 59.0938 91.8845C59.5678 92.2891 60.1515 92.4914 60.8451 92.4914C61.7468 92.4914 62.5734 92.1273 63.3248 91.399L64.5559 92.4914C63.608 93.6359 62.3595 94.2081 60.8105 94.2081ZM58.1921 88.7807H62.8913C62.8219 88.0755 62.5849 87.4975 62.1803 87.0467C61.7757 86.5958 61.2382 86.3704 60.5677 86.3704C59.9319 86.3704 59.4001 86.5958 58.9724 87.0467C58.5447 87.4859 58.2846 88.0639 58.1921 88.7807ZM72.5205 94V81.862H77.3064C78.7167 81.862 79.838 82.2319 80.6703 82.9718C81.5026 83.7116 81.9188 84.7058 81.9188 85.9542C81.9188 87.2605 81.4564 88.2778 80.5316 89.0061C79.6184 89.7344 78.4624 90.0985 77.0636 90.0985H74.6533V94H72.5205ZM74.6533 88.1738H77.133C77.9306 88.1738 78.5664 87.9715 79.0404 87.5669C79.5143 87.1623 79.7513 86.6305 79.7513 85.9716C79.7513 85.278 79.5143 84.7462 79.0404 84.3763C78.578 83.9948 77.9422 83.8041 77.133 83.8041H74.6533V88.1738ZM83.9817 94V81.3418H86.0798V94H83.9817ZM96.5035 94H94.4227V92.8729C93.6829 93.7515 92.6945 94.1907 91.4576 94.1907C90.5443 94.1907 89.7698 93.9422 89.134 93.4451C88.5098 92.9365 88.1976 92.2313 88.1976 91.3296C88.1976 90.347 88.5387 89.6014 89.2207 89.0928C89.9027 88.5841 90.7986 88.3298 91.9084 88.3298C92.7985 88.3298 93.6424 88.457 94.44 88.7113V88.5379C94.44 87.9021 94.2435 87.4166 93.8505 87.0813C93.469 86.7461 92.9141 86.5785 92.1858 86.5785C91.3535 86.5785 90.4807 86.7692 89.5675 87.1507L88.9953 85.4687C90.1282 84.9601 91.2899 84.7058 92.4806 84.7058C93.81 84.7058 94.81 85.041 95.4804 85.7115C96.1625 86.382 96.5035 87.3357 96.5035 88.5726V94ZM94.4747 90.6881V90.1679C93.8505 89.9251 93.1511 89.8037 92.3766 89.8037C91.7177 89.8037 91.2032 89.9309 90.8333 90.1852C90.4634 90.4395 90.2784 90.7979 90.2784 91.2603C90.2784 91.6764 90.4461 92.0059 90.7813 92.2487C91.1165 92.4914 91.5385 92.6128 92.0471 92.6128C92.7523 92.6128 93.3303 92.4336 93.7811 92.0753C94.2435 91.7169 94.4747 91.2545 94.4747 90.6881ZM100.533 96.8264C99.7701 96.8264 99.0476 96.6415 98.3655 96.2715L99.0765 94.7109C99.5042 94.9421 99.9146 95.0577 100.308 95.0577C100.608 95.0577 100.857 94.9768 101.053 94.815C101.25 94.6647 101.435 94.393 101.608 94L97.7933 84.8445H100.03L102.631 91.6418L105.007 84.8445H107.192L103.55 94.2601C103.18 95.1965 102.77 95.8554 102.319 96.2369C101.868 96.6299 101.273 96.8264 100.533 96.8264ZM26.7265 115V102.862H28.8593V115H26.7265ZM31.8657 115V105.844H33.9639V107.266C34.6922 106.191 35.6459 105.654 36.825 105.654C37.8423 105.654 38.6399 105.972 39.2179 106.607C39.7959 107.243 40.0849 108.099 40.0849 109.174V115H37.9868V109.798C37.9868 109.081 37.8134 108.532 37.4666 108.151C37.1313 107.758 36.6516 107.561 36.0273 107.561C35.4146 107.561 34.9176 107.763 34.5361 108.168C34.1546 108.573 33.9639 109.128 33.9639 109.833V115H31.8657ZM45.7571 115.173C44.3237 115.173 43.0289 114.717 41.8729 113.804L42.8093 112.382C43.8035 113.133 44.8034 113.509 45.8091 113.509C46.26 113.509 46.6068 113.422 46.8495 113.249C47.1038 113.064 47.231 112.809 47.231 112.486C47.231 112.324 47.1848 112.185 47.0923 112.07C47.0114 111.942 46.8611 111.827 46.6414 111.723C46.4218 111.619 46.2368 111.544 46.0866 111.497C45.9363 111.451 45.6877 111.376 45.3409 111.272L45.1849 111.22C44.8612 111.127 44.5838 111.041 44.3526 110.96C44.1329 110.867 43.8844 110.746 43.6069 110.596C43.3295 110.445 43.1041 110.284 42.9307 110.11C42.7573 109.925 42.6128 109.694 42.4972 109.417C42.3816 109.139 42.3238 108.827 42.3238 108.48C42.3238 107.636 42.6301 106.96 43.2428 106.451C43.867 105.943 44.6473 105.688 45.5837 105.688C46.7744 105.688 47.8957 106.035 48.9477 106.729L48.1153 108.22C47.1674 107.642 46.3062 107.353 45.5317 107.353C45.1271 107.353 44.8092 107.44 44.578 107.613C44.3583 107.787 44.2485 108.018 44.2485 108.307C44.2485 108.503 44.3468 108.682 44.5433 108.844C44.7514 109.006 44.9537 109.128 45.1502 109.208C45.3583 109.278 45.6877 109.388 46.1386 109.538C46.1617 109.549 46.1906 109.561 46.2253 109.573C46.26 109.584 46.2889 109.59 46.312 109.59C46.7166 109.717 47.0576 109.844 47.335 109.971C47.6125 110.087 47.9015 110.249 48.202 110.457C48.5142 110.665 48.7511 110.925 48.913 111.237C49.0748 111.538 49.1557 111.89 49.1557 112.295C49.1557 113.22 48.8378 113.931 48.202 114.428C47.5662 114.925 46.7513 115.173 45.7571 115.173ZM54.1884 115.156C52.4313 115.156 51.5527 114.26 51.5527 112.468V107.648H50.3909V105.844H51.5527V103.33H53.6509V105.844H56.1131V107.648H53.6509V112.139C53.6509 112.902 54.0266 113.283 54.778 113.283C55.2288 113.283 55.6623 113.179 56.0785 112.971V114.688C55.5236 115 54.8936 115.156 54.1884 115.156ZM65.913 115H63.8322V113.873C63.0923 114.751 62.1039 115.191 60.867 115.191C59.9538 115.191 59.1793 114.942 58.5435 114.445C57.9192 113.936 57.6071 113.231 57.6071 112.33C57.6071 111.347 57.9481 110.601 58.6302 110.093C59.3122 109.584 60.2081 109.33 61.3179 109.33C62.208 109.33 63.0519 109.457 63.8495 109.711V109.538C63.8495 108.902 63.653 108.417 63.2599 108.081C62.8785 107.746 62.3236 107.578 61.5953 107.578C60.763 107.578 59.8902 107.769 58.977 108.151L58.4047 106.469C59.5376 105.96 60.6994 105.706 61.8901 105.706C63.2195 105.706 64.2194 106.041 64.8899 106.711C65.5719 107.382 65.913 108.336 65.913 109.573V115ZM63.8842 111.688V111.168C63.2599 110.925 62.5606 110.804 61.786 110.804C61.1271 110.804 60.6127 110.931 60.2428 111.185C59.8729 111.44 59.6879 111.798 59.6879 112.26C59.6879 112.676 59.8555 113.006 60.1908 113.249C60.526 113.491 60.9479 113.613 61.4566 113.613C62.1617 113.613 62.7397 113.434 63.1906 113.075C63.653 112.717 63.8842 112.254 63.8842 111.688ZM68.4084 115V105.844H70.5066V107.266C71.2348 106.191 72.1885 105.654 73.3677 105.654C74.3849 105.654 75.1826 105.972 75.7606 106.607C76.3386 107.243 76.6276 108.099 76.6276 109.174V115H74.5294V109.798C74.5294 109.081 74.356 108.532 74.0092 108.151C73.674 107.758 73.1943 107.561 72.57 107.561C71.9573 107.561 71.4603 107.763 71.0788 108.168C70.6973 108.573 70.5066 109.128 70.5066 109.833V115H68.4084ZM82.2304 115.156C80.4733 115.156 79.5948 114.26 79.5948 112.468V107.648H78.433V105.844H79.5948V103.33H81.6929V105.844H84.1552V107.648H81.6929V112.139C81.6929 112.902 82.0686 113.283 82.82 113.283C83.2708 113.283 83.7043 113.179 84.1205 112.971V114.688C83.5656 115 82.9356 115.156 82.2304 115.156Z" fill="#DCD2FF"/>
<path d="M84.5481 32.9593L77.6607 29.0278C78.0893 30.7127 78.3849 32.442 78.5475 34.2156C78.6953 35.797 78.7544 37.3637 78.6953 38.9303L84.5481 35.5162C85.0063 35.2502 85.2871 34.7624 85.2871 34.2451C85.3019 33.713 85.0063 33.2253 84.5481 32.9593ZM67.2557 43.7042C66.2063 42.7288 65.2604 41.6498 64.2849 40.6005C63.4425 39.6989 62.4226 39.2703 61.1811 39.2851C56.4516 39.2998 51.722 39.3146 46.9777 39.2851C46.0909 39.2851 45.3223 39.4624 44.6425 39.8467C44.2286 40.0832 43.8296 40.3936 43.4748 40.7926C42.0264 42.3593 40.5484 43.9112 39.0261 45.3891C38.1984 46.1873 37.2821 46.9263 36.3214 47.5766C34.0896 49.0693 31.3701 48.2269 30.3503 45.7439C29.4044 43.4234 29.3453 40.9552 29.2123 38.5017C29.1975 38.1766 29.2123 37.8514 29.2123 37.5263C29.2862 31.0527 30.7937 25.0077 34.5478 19.6426C36.6613 16.6127 39.5138 14.8687 43.327 15.0313C45.677 15.1347 47.8053 15.9624 49.7711 17.2187C52.3871 18.9036 54.9884 19.0219 57.6044 17.5586L27.217 0.192292C26.7588 -0.0737455 26.1824 -0.0589656 25.739 0.207072C25.2808 0.47311 25 0.946066 25 1.47814L25.2956 67.5294C25.2956 68.0615 25.5764 68.5492 26.0346 68.8005C26.4928 69.0665 27.0544 69.0665 27.5126 68.8005L74.483 41.3986L68.4972 44.8866C68.0981 44.4876 67.6695 44.0885 67.2557 43.7042V43.7042Z" fill="white"/>
<path d="M65.4698 22.4506C65.8245 22.6871 66.2532 22.8201 66.6966 22.8201C67.3025 22.8201 67.8346 22.5689 68.2337 22.1698C68.5736 21.8151 68.8101 21.3422 68.8544 20.8249C68.8692 20.7362 68.8692 20.6475 68.8692 20.5736C68.8544 19.3912 67.8642 18.4453 66.6522 18.4453C65.4403 18.4601 64.45 19.4651 64.4648 20.6918C64.4648 20.8249 64.4796 20.9431 64.5091 21.0761C64.6274 21.6378 64.9821 22.1403 65.4698 22.4506ZM60.9176 27.8009C62.0852 27.8157 63.105 26.8403 63.1346 25.6579C63.1642 24.505 62.1887 23.4557 61.0506 23.3966H60.9472C59.7648 23.3818 58.7745 24.3572 58.7598 25.5544V25.7465C58.8337 26.8994 59.7352 27.7862 60.9176 27.8009ZM69.8151 25.5544C69.7856 26.8107 70.7315 27.7862 71.973 27.8009C72.2242 27.8009 72.4755 27.7566 72.712 27.6679C73.5396 27.3723 74.1604 26.5742 74.19 25.6579C74.2195 24.4755 73.1849 23.3966 72.0025 23.3818C71.7069 23.3818 71.4113 23.4409 71.1601 23.5444C70.3767 23.8843 69.8299 24.6528 69.8151 25.5544V25.5544ZM66.6522 32.8704C67.1104 32.8704 67.5242 32.7522 67.8789 32.5305C68.4554 32.161 68.8396 31.5107 68.8544 30.7569C68.8692 30.1657 68.6623 29.6336 68.3076 29.2198C67.9233 28.7764 67.3469 28.4808 66.7113 28.4808C65.7802 28.466 64.923 29.1164 64.6126 29.9736C64.5387 30.1805 64.4944 30.4022 64.4944 30.6239V30.6387C64.45 31.8506 65.4255 32.8556 66.6522 32.8704V32.8704Z" fill="white"/>
<path fill-rule="evenodd" clip-rule="evenodd" d="M46.7714 26.6926C45.5891 26.737 44.4067 26.7074 43.1799 26.7074V24.2687C43.1652 21.8596 43.4903 22.1847 41.0664 22.1552C39.8693 22.1404 39.8545 22.17 39.8545 23.3819V26.6926C38.5834 26.6926 37.4454 26.737 36.3073 26.6778C35.5092 26.6483 35.2136 26.9587 35.3023 27.7272C35.3466 28.1558 35.3466 28.5992 35.3023 29.0278C35.2136 29.8259 35.5683 30.0772 36.3369 30.0329C37.4897 29.9885 38.6425 30.0181 39.8693 30.0181C39.8693 30.8605 39.8545 31.5848 39.8693 32.309C39.8988 34.9398 39.4702 34.5703 42.2932 34.6146C42.9435 34.6294 43.2243 34.3781 43.1947 33.6983C43.1652 32.5159 43.1799 31.3187 43.1799 30.0033C44.0076 30.0033 44.7318 30.0181 45.456 30.0033C48.1164 29.959 47.7026 30.4024 47.7617 27.6681C47.7765 26.9734 47.5252 26.6631 46.7714 26.6926V26.6926Z" fill="white"/>
</svg>
