<svg width="190" height="200" viewBox="0 0 190 200" fill="none" xmlns="http://www.w3.org/2000/svg">
<path d="M37.4127 184.765V190.486H31.6781V184.765H37.4127ZM42.6617 184.765V190.486H48.3831V184.765H42.6617ZM53.6583 184.765V190.486H59.3928V184.765H53.6583ZM64.668 184.765V190.486H70.3895V184.765H64.668ZM75.6646 184.765V190.486H81.3991V184.765H75.6646ZM86.6744 184.765V190.486H92.3958V184.765H86.6744ZM9.61914 184.765V190.486H15.3537V184.765H9.61914ZM20.6289 184.765V190.486H26.3635V184.765H20.6289Z" fill="url(#paint0_linear)"/>
<path d="M128.404 35.3387H126.908C126.517 35.3375 126.126 35.3023 125.74 35.2337H125.438C124.712 35.0747 124.01 34.8187 123.352 34.4726L122.932 34.2233L122.25 33.7377C121.354 33.0237 120.629 32.1178 120.13 31.0867C119.63 30.0557 119.368 28.9258 119.363 27.7801V22.1899H94.5875V27.7801C94.584 29.7941 93.7824 31.7247 92.3583 33.1488C90.9342 34.573 89.0035 35.3746 86.9895 35.3781H85.4935C84.4987 35.3809 83.5133 35.1864 82.5943 34.8057C81.6752 34.425 80.8409 33.8658 80.1396 33.1603L79.8772 32.8848C79.7663 32.7618 79.6654 32.6302 79.5754 32.4911C78.9815 31.7523 78.536 30.9056 78.2632 29.9978C78.1713 29.696 78.1056 29.3811 78.04 29.0661V28.7774C78.04 28.4625 78.04 28.1082 78.04 27.7801V22.1768H53.2385V27.767C53.235 29.7833 52.4316 31.7158 51.0047 33.1403C49.5777 34.5649 47.6438 35.3649 45.6275 35.3649H44.1447C42.1318 35.3614 40.2025 34.5594 38.7805 33.1349C37.3584 31.7104 36.5598 29.7798 36.5598 27.767V22.1768H14.7108C13.8207 22.1817 12.9362 22.3188 12.0863 22.5836C11.5294 22.7581 10.9893 22.9821 10.4723 23.2529C10.0223 23.5032 9.51744 23.6385 9.00257 23.6465C8.35419 23.6416 7.72641 23.4176 7.22145 23.0109C6.71649 22.6042 6.36399 22.0387 6.22108 21.4062C6.07817 20.7738 6.15327 20.1116 6.43429 19.5272C6.71532 18.9429 7.18569 18.4708 7.76897 18.1876C8.5764 17.7609 9.41947 17.4052 10.2885 17.1247C11.7366 16.6701 13.2457 16.44 14.7634 16.4423H39.2892C40.0514 16.4423 40.7824 16.7451 41.3214 17.284C41.8603 17.8229 42.1631 18.5539 42.1631 19.3161V27.767C42.1614 28.0094 42.2076 28.2497 42.2991 28.4741C42.3907 28.6985 42.5258 28.9026 42.6966 29.0745C42.8673 29.2465 43.0705 29.383 43.2942 29.4762C43.518 29.5693 43.7578 29.6173 44.0002 29.6173H45.483C45.7271 29.619 45.9692 29.5724 46.1952 29.4802C46.4212 29.388 46.6267 29.252 46.7999 29.08C46.9731 28.908 47.1106 28.7035 47.2044 28.4781C47.2982 28.2528 47.3465 28.0111 47.3465 27.767V19.2899C47.3465 18.5277 47.6493 17.7967 48.1883 17.2578C48.7272 16.7188 49.4582 16.416 50.2204 16.416H80.7432C81.5066 16.416 82.2389 16.7184 82.7799 17.257C83.321 17.7955 83.6267 18.5265 83.6302 19.2899V27.7539C83.6302 27.8457 83.6302 27.9507 83.6302 28.0426L83.7089 28.3444C83.7684 28.5411 83.8667 28.724 83.9977 28.8824H84.0632C84.2283 29.0683 84.4302 29.2179 84.656 29.3218C84.8819 29.4257 85.1269 29.4816 85.3754 29.486H86.8714C87.3634 29.4861 87.8354 29.2915 88.1845 28.9449C88.5336 28.5983 88.7314 28.1277 88.7349 27.6358V19.2899C88.7349 18.5299 89.0357 17.801 89.5719 17.2624C90.108 16.7238 90.8356 16.4195 91.5955 16.416H122.118C122.881 16.416 123.612 16.7188 124.151 17.2578C124.69 17.7967 124.992 18.5277 124.992 19.2899V27.7407C124.988 28.0156 125.048 28.2877 125.166 28.5358C125.284 28.7839 125.459 29.0013 125.675 29.1711L126.003 29.4073L126.37 29.5385H126.659H128.325C128.816 29.5385 129.287 29.3436 129.634 28.9966C129.981 28.6496 130.176 28.179 130.176 27.6883V19.2899C130.176 18.5277 130.479 17.7967 131.017 17.2578C131.556 16.7188 132.287 16.416 133.05 16.416H159.806C161.296 16.413 162.778 16.6342 164.202 17.0722C165.103 17.3796 165.98 17.7524 166.827 18.1876C167.495 18.5547 167.99 19.1723 168.203 19.9045C168.416 20.6366 168.329 21.4233 167.962 22.0915C167.595 22.7597 166.977 23.2547 166.245 23.4676C165.513 23.6805 164.726 23.5938 164.058 23.2266C163.516 22.9444 162.949 22.7117 162.365 22.5311C161.514 22.2742 160.63 22.146 159.741 22.1506H135.858V27.7407C135.855 29.7301 135.073 31.6391 133.68 33.0592C132.287 34.4793 130.393 35.2975 128.404 35.3387Z" fill="black"/>
<path d="M98.5237 175.671H19.4737C14.3146 175.668 9.36728 173.619 5.71674 169.973C2.06621 166.327 0.0104214 161.383 0 156.224V31.1533H5.74766V156.224C5.75461 159.861 7.20334 163.347 9.77636 165.917C12.3494 168.488 15.8367 169.933 19.4737 169.937H98.5237V175.671Z" fill="url(#paint1_linear)"/>
<path d="M174.632 31.1533H168.885V116.069H174.632V31.1533Z" fill="url(#paint2_linear)"/>
<path d="M75.9013 94.3248H62.7788C60.8599 94.3248 59.0195 93.5635 57.6615 92.2079C56.3034 90.8523 55.5386 89.0132 55.5352 87.0944V78.2104C55.5386 76.2903 56.303 74.4499 57.6607 73.0922C59.0184 71.7345 60.8587 70.9703 62.7788 70.9668H75.9013C77.8214 70.9703 79.6617 71.7345 81.0194 73.0922C82.3771 74.4499 83.1415 76.2903 83.1449 78.2104V87.0944C83.1415 89.0132 82.3767 90.8523 81.0186 92.2079C79.6606 93.5635 77.8202 94.3248 75.9013 94.3248ZM62.7788 76.7145C62.5823 76.7145 62.3878 76.7531 62.2063 76.8283C62.0248 76.9035 61.8598 77.0137 61.7209 77.1526C61.582 77.2915 61.4719 77.4564 61.3967 77.6379C61.3215 77.8194 61.2828 78.0139 61.2828 78.2104V87.0944C61.2828 87.2908 61.3215 87.4853 61.3967 87.6668C61.4719 87.8483 61.582 88.0132 61.7209 88.1522C61.8598 88.2911 62.0248 88.4013 62.2063 88.4764C62.3878 88.5516 62.5823 88.5903 62.7788 88.5903H75.9013C76.2981 88.5903 76.6786 88.4327 76.9592 88.1522C77.2397 87.8716 77.3973 87.4911 77.3973 87.0944V78.2104C77.3973 77.8136 77.2397 77.4332 76.9592 77.1526C76.6786 76.8721 76.2981 76.7145 75.9013 76.7145H62.7788Z" fill="url(#paint3_linear)"/>
<path d="M111.067 94.3248H97.9448C96.026 94.3248 94.1854 93.5635 92.8273 92.2079C91.4693 90.8523 90.7046 89.0132 90.7012 87.0944V78.2104C90.7046 76.2903 91.4688 74.4499 92.8265 73.0922C94.1842 71.7345 96.0248 70.9703 97.9448 70.9668H111.067C112.986 70.9703 114.825 71.735 116.181 73.093C117.536 74.4511 118.298 76.2915 118.298 78.2104V87.0944C118.298 89.012 117.536 90.8511 116.18 92.2071C114.824 93.5631 112.985 94.3248 111.067 94.3248ZM97.9448 76.7145C97.5481 76.7145 97.1675 76.8721 96.8869 77.1526C96.6064 77.4332 96.4488 77.8136 96.4488 78.2104V87.0944C96.4488 87.4911 96.6064 87.8716 96.8869 88.1522C97.1675 88.4327 97.5481 88.5903 97.9448 88.5903H111.067C111.463 88.5869 111.842 88.4282 112.121 88.1484C112.401 87.8686 112.56 87.4901 112.563 87.0944V78.2104C112.56 77.8147 112.401 77.4362 112.121 77.1564C111.842 76.8766 111.463 76.7179 111.067 76.7145H97.9448Z" fill="url(#paint4_linear)"/>
<path d="M146.224 94.3248H133.102C131.184 94.3248 129.345 93.5631 127.989 92.2071C126.633 90.8511 125.871 89.012 125.871 87.0944V78.2104C125.871 76.2915 126.633 74.4511 127.988 73.093C129.344 71.735 131.183 70.9703 133.102 70.9668H146.224C148.143 70.9703 149.982 71.735 151.338 73.093C152.693 74.4511 153.455 76.2915 153.455 78.2104V87.0944C153.455 89.012 152.693 90.8511 151.337 92.2071C149.981 93.5631 148.142 94.3248 146.224 94.3248ZM133.102 76.7145C132.705 76.7145 132.324 76.8721 132.044 77.1526C131.763 77.4332 131.606 77.8136 131.606 78.2104V87.0944C131.606 87.4911 131.763 87.8716 132.044 88.1522C132.324 88.4327 132.705 88.5903 133.102 88.5903H146.224C146.621 88.5903 147.001 88.4327 147.282 88.1522C147.563 87.8716 147.72 87.4911 147.72 87.0944V78.2104C147.72 77.8136 147.563 77.4332 147.282 77.1526C147.001 76.8721 146.621 76.7145 146.224 76.7145H133.102Z" fill="url(#paint5_linear)"/>
<path d="M75.9013 124.048H62.7788C60.8599 124.048 59.0195 123.286 57.6615 121.931C56.3034 120.575 55.5386 118.736 55.5352 116.817V107.933C55.5386 106.013 56.303 104.173 57.6607 102.815C59.0184 101.457 60.8587 100.693 62.7788 100.689H75.9013C77.8214 100.693 79.6617 101.457 81.0194 102.815C82.3771 104.173 83.1415 106.013 83.1449 107.933V116.817C83.1415 118.736 82.3767 120.575 81.0186 121.931C79.6606 123.286 77.8202 124.048 75.9013 124.048ZM62.7788 106.437C62.5823 106.437 62.3878 106.476 62.2063 106.551C62.0248 106.626 61.8598 106.736 61.7209 106.875C61.582 107.014 61.4719 107.179 61.3967 107.361C61.3215 107.542 61.2828 107.737 61.2828 107.933V116.817C61.2828 117.013 61.3215 117.208 61.3967 117.389C61.4719 117.571 61.582 117.736 61.7209 117.875C61.8598 118.014 62.0248 118.124 62.2063 118.199C62.3878 118.274 62.5823 118.313 62.7788 118.313H75.9013C76.2981 118.313 76.6786 118.155 76.9592 117.875C77.2397 117.594 77.3973 117.214 77.3973 116.817V107.933C77.3973 107.536 77.2397 107.156 76.9592 106.875C76.6786 106.595 76.2981 106.437 75.9013 106.437H62.7788Z" fill="url(#paint6_linear)"/>
<path d="M41.56 124.048H28.4375C26.5199 124.048 24.6808 123.286 23.3249 121.93C21.9689 120.574 21.207 118.735 21.207 116.817V107.933C21.207 106.014 21.9685 104.174 23.3241 102.816C24.6797 101.458 26.5187 100.693 28.4375 100.689H41.56C43.4801 100.693 45.3206 101.457 46.6783 102.815C48.036 104.173 48.8002 106.013 48.8037 107.933V116.817C48.8002 118.736 48.0356 120.575 46.6775 121.931C45.3195 123.286 43.4789 124.048 41.56 124.048ZM28.4375 106.437C28.0418 106.441 27.6633 106.599 27.3835 106.879C27.1037 107.159 26.945 107.537 26.9416 107.933V116.817C26.945 117.213 27.1037 117.591 27.3835 117.871C27.6633 118.151 28.0418 118.31 28.4375 118.313H41.56C41.9568 118.313 42.3374 118.155 42.6179 117.875C42.8985 117.594 43.056 117.214 43.056 116.817V107.933C43.056 107.536 42.8985 107.156 42.6179 106.875C42.3374 106.595 41.9568 106.437 41.56 106.437H28.4375Z" fill="url(#paint7_linear)"/>
<path d="M102.88 124.047H97.92C96.0011 124.044 94.1619 123.279 92.8063 121.921C91.4507 120.563 90.6894 118.722 90.6895 116.803V107.933C90.6895 106.015 91.4511 104.176 92.8071 102.82C94.1631 101.464 96.0023 100.702 97.92 100.702H111.042C112.96 100.702 114.799 101.464 116.155 102.82C117.511 104.176 118.273 106.015 118.273 107.933V110.111H112.538V107.933C112.538 107.536 112.381 107.155 112.1 106.875C111.82 106.594 111.439 106.437 111.042 106.437H97.92C97.5232 106.437 97.1426 106.594 96.8621 106.875C96.5815 107.155 96.424 107.536 96.424 107.933V116.803C96.424 117.2 96.5815 117.581 96.8621 117.861C97.1426 118.142 97.5232 118.299 97.92 118.299H102.88V124.047Z" fill="url(#paint8_linear)"/>
<path d="M75.9013 154.885H62.7788C60.8599 154.885 59.0195 154.123 57.6615 152.768C56.3034 151.412 55.5386 149.573 55.5352 147.654V138.836C55.5386 136.917 56.3034 135.078 57.6615 133.722C59.0195 132.367 60.8599 131.605 62.7788 131.605H75.9013C77.8202 131.605 79.6606 132.367 81.0186 133.722C82.3767 135.078 83.1415 136.917 83.1449 138.836V147.72C83.1242 149.627 82.3519 151.45 80.9957 152.791C79.6395 154.133 77.8089 154.885 75.9013 154.885ZM62.7788 137.274C62.5823 137.274 62.3878 137.313 62.2063 137.388C62.0248 137.463 61.8598 137.574 61.7209 137.713C61.582 137.851 61.4719 138.016 61.3967 138.198C61.3215 138.379 61.2828 138.574 61.2828 138.77V147.654C61.2828 147.851 61.3215 148.045 61.3967 148.227C61.4719 148.408 61.582 148.573 61.7209 148.712C61.8598 148.851 62.0248 148.961 62.2063 149.036C62.3878 149.112 62.5823 149.15 62.7788 149.15H75.9013C76.2981 149.15 76.6786 148.993 76.9592 148.712C77.2397 148.432 77.3973 148.051 77.3973 147.654V138.836C77.3973 138.439 77.2397 138.059 76.9592 137.778C76.6786 137.498 76.2981 137.34 75.9013 137.34L62.7788 137.274Z" fill="url(#paint9_linear)"/>
<path d="M41.56 154.885H28.4375C26.5199 154.885 24.6808 154.123 23.3249 152.767C21.9689 151.411 21.207 149.572 21.207 147.654V138.836C21.207 136.918 21.9689 135.079 23.3249 133.723C24.6808 132.367 26.5199 131.606 28.4375 131.606H41.56C42.5124 131.602 43.4562 131.786 44.3372 132.148C45.2182 132.51 46.0193 133.042 46.6945 133.713C47.3697 134.385 47.9059 135.183 48.2723 136.062C48.6388 136.941 48.8282 137.884 48.83 138.836V147.72C48.8092 149.632 48.0333 151.458 46.6714 152.8C45.3096 154.143 43.4721 154.892 41.56 154.885ZM28.4375 137.274C28.0418 137.278 27.6633 137.437 27.3835 137.716C27.1037 137.996 26.945 138.375 26.9416 138.77V147.654C26.945 148.05 27.1037 148.429 27.3835 148.708C27.6633 148.988 28.0418 149.147 28.4375 149.15H41.56C41.9568 149.15 42.3374 148.993 42.6179 148.712C42.8985 148.432 43.056 148.051 43.056 147.654V138.836C43.056 138.439 42.8985 138.059 42.6179 137.778C42.3374 137.498 41.9568 137.34 41.56 137.34L28.4375 137.274Z" fill="url(#paint10_linear)"/>
<path d="M174.621 62.8174H6.12645e-09V31.1528C-7.65145e-05 28.4973 0.71665 25.891 2.07474 23.609C3.43283 21.3271 5.38191 19.4541 7.71604 18.1878C9.87779 17.0241 12.2946 16.4154 14.7497 16.4162H42.1363V27.7409C42.1363 28.2317 42.3312 28.7023 42.6782 29.0493C43.0252 29.3963 43.4959 29.5912 43.9866 29.5912H45.4825C45.9744 29.5912 46.4464 29.3967 46.7955 29.0501C47.1446 28.7035 47.3425 28.2329 47.3459 27.7409V16.4162H83.6034V27.7409C83.6034 28.2294 83.7965 28.698 84.1407 29.0446C84.4848 29.3913 84.9521 29.5877 85.4406 29.5912H86.884C87.3739 29.5845 87.8421 29.3878 88.1897 29.0426C88.5373 28.6974 88.7373 28.2307 88.7475 27.7409V16.4162H125.005V27.7409C125.005 28.2317 125.2 28.7023 125.547 29.0493C125.894 29.3963 126.364 29.5912 126.855 29.5912H128.351C128.841 29.5845 129.309 29.3878 129.657 29.0426C130.004 28.6974 130.204 28.2307 130.215 27.7409V16.4162H159.832C161.323 16.4081 162.807 16.6339 164.228 17.0855C165.139 17.3707 166.019 17.7488 166.852 18.214C169.176 19.4818 171.114 21.3529 172.463 23.6301C173.811 25.9073 174.521 28.5062 174.516 31.1528L174.621 62.8174ZM5.74766 57.0829H168.887V31.1528C168.882 29.538 168.442 27.9543 167.613 26.5686C166.784 25.1829 165.596 24.0465 164.176 23.2793C163.651 22.988 163.097 22.7548 162.522 22.5838C161.673 22.3158 160.788 22.183 159.898 22.1901H136.015V27.7803C136.011 29.7931 135.209 31.7223 133.785 33.1444C132.36 34.5664 130.43 35.3651 128.417 35.3651H126.921C124.909 35.3651 122.98 34.566 121.558 33.1436C120.135 31.7211 119.336 29.7919 119.336 27.7803V22.1901H94.5606V27.7803C94.5589 28.7781 94.3607 29.7657 93.9772 30.6869C93.5938 31.6081 93.0328 32.4447 92.326 33.149C91.6193 33.8533 90.7807 34.4115 89.8582 34.7918C88.9357 35.172 87.9475 35.3668 86.9497 35.3651H85.4537C83.4432 35.3616 81.5159 34.5614 80.0942 33.1397C78.6725 31.7181 77.8723 29.7908 77.8689 27.7803V22.1901H53.0936V27.7803C53.0901 29.7931 52.2881 31.7223 50.8636 33.1444C49.4391 34.5664 47.5084 35.3651 45.4956 35.3651H43.9996C41.988 35.3651 40.0588 34.566 38.6364 33.1436C37.214 31.7211 36.4149 29.7919 36.4149 27.7803V22.1901H14.7103C13.2266 22.1849 11.7652 22.5503 10.4586 23.253C9.02244 24.0226 7.82201 25.1675 6.98542 26.5656C6.14884 27.9638 5.70746 29.5628 5.70825 31.1922L5.74766 57.0829Z" fill="url(#paint11_linear)"/>
<path d="M45.483 35.3258H43.9872C41.9756 35.3258 40.0463 34.5267 38.6238 33.1042C37.2014 31.6818 36.4024 29.7526 36.4024 27.741V7.61105C36.4006 6.61328 36.5954 5.62493 36.9757 4.70244C37.3559 3.77996 37.9141 2.94142 38.6184 2.23467C39.3227 1.52791 40.1593 0.966803 41.0804 0.58338C42.0016 0.199957 42.9894 0.00172178 43.9872 0H45.483C47.4993 0.00347639 49.432 0.806892 50.8565 2.23386C52.281 3.66084 53.081 5.59475 53.081 7.61105V27.6885C53.0862 28.6896 52.8934 29.6818 52.5139 30.6082C52.1344 31.5345 51.5757 32.3768 50.8696 33.0865C50.1636 33.7962 49.3243 34.3594 48.3999 34.7437C47.4755 35.128 46.4841 35.3258 45.483 35.3258ZM43.9872 5.80014C43.4974 5.8103 43.0305 6.01029 42.6854 6.35793C42.3402 6.70557 42.1436 7.17368 42.1369 7.66353V27.741C42.1369 28.2317 42.3318 28.7023 42.6788 29.0493C43.0258 29.3963 43.4965 29.5912 43.9872 29.5912H45.483C45.975 29.5913 46.447 29.3967 46.7961 29.0501C47.1452 28.7035 47.343 28.2329 47.3465 27.741V7.61105C47.3397 7.11896 47.1412 6.64894 46.7932 6.30095C46.4452 5.95295 45.9751 5.75445 45.483 5.74766L43.9872 5.80014Z" fill="url(#paint12_linear)"/>
<path d="M86.8836 35.3258H85.3876C83.377 35.3223 81.4499 34.5221 80.0282 33.1004C78.6065 31.6787 77.8062 29.7515 77.8027 27.741V7.61105C77.8027 5.59702 78.6011 3.66509 80.0228 2.23849C81.4444 0.811893 83.3736 0.00694495 85.3876 0H86.8836C88.9021 0 90.838 0.80187 92.2654 2.22922C93.6927 3.65657 94.4947 5.59248 94.4947 7.61105V27.6885C94.4999 28.6907 94.3067 29.684 93.9263 30.6112C93.546 31.5384 92.9859 32.3813 92.2785 33.0911C91.571 33.801 90.7302 34.3639 89.8042 34.7474C88.8783 35.131 87.8858 35.3275 86.8836 35.3258ZM85.3876 5.80014C84.899 5.81038 84.4338 6.01081 84.0907 6.35879C83.7476 6.70678 83.5537 7.17487 83.5504 7.66353V27.741C83.5504 28.2294 83.7435 28.6981 84.0877 29.0447C84.4318 29.3913 84.8991 29.5878 85.3876 29.5912H86.8836C87.3734 29.5845 87.8416 29.3878 88.1892 29.0427C88.5369 28.6975 88.7369 28.2308 88.747 27.741V7.61105C88.7402 7.11896 88.5417 6.64894 88.1937 6.30095C87.8457 5.95295 87.3757 5.75445 86.8836 5.74766L85.3876 5.80014Z" fill="url(#paint13_linear)"/>
<path d="M128.403 35.3258H126.907C124.896 35.3258 122.966 34.5267 121.544 33.1042C120.121 31.6818 119.322 29.7526 119.322 27.741V7.61105C119.321 6.61328 119.515 5.62493 119.896 4.70244C120.276 3.77996 120.834 2.94142 121.538 2.23467C122.243 1.52791 123.079 0.966803 124.001 0.58338C124.922 0.199957 125.909 0.00172178 126.907 0H128.403C130.419 0.00347639 132.352 0.806892 133.776 2.23386C135.201 3.66084 136.001 5.59475 136.001 7.61105V27.6885C136.006 28.6896 135.814 29.6818 135.434 30.6082C135.055 31.5345 134.496 32.3768 133.79 33.0865C133.083 33.7962 132.244 34.3594 131.32 34.7437C130.395 35.128 129.404 35.3258 128.403 35.3258ZM126.907 5.80014C126.417 5.8103 125.951 6.01029 125.605 6.35793C125.26 6.70557 125.064 7.17368 125.057 7.66353V27.741C125.057 28.2317 125.252 28.7023 125.599 29.0493C125.946 29.3963 126.416 29.5912 126.907 29.5912H128.403C128.893 29.5845 129.361 29.3878 129.709 29.0427C130.056 28.6975 130.256 28.2308 130.267 27.741V7.61105C130.26 7.11896 130.061 6.64894 129.713 6.30095C129.365 5.95295 128.895 5.75445 128.403 5.74766L126.907 5.80014Z" fill="url(#paint14_linear)"/>
<path d="M117.658 48.6842H73.0411C72.279 48.6842 71.5481 48.3814 71.0092 47.8425C70.4702 47.3035 70.1674 46.5725 70.1674 45.8104C70.1674 45.0482 70.4702 44.3172 71.0092 43.7782C71.5481 43.2393 72.279 42.9365 73.0411 42.9365H117.658C118.42 42.9365 119.151 43.2393 119.69 43.7782C120.229 44.3172 120.532 45.0482 120.532 45.8104C120.532 46.5725 120.229 47.3035 119.69 47.8425C119.151 48.3814 118.42 48.6842 117.658 48.6842ZM61.5721 48.6842H56.9792C56.217 48.6842 55.486 48.3814 54.9471 47.8425C54.4081 47.3035 54.1055 46.5725 54.1055 45.8104C54.1055 45.0482 54.4081 44.3172 54.9471 43.7782C55.486 43.2393 56.217 42.9365 56.9792 42.9365H61.5721C62.3343 42.9365 63.0653 43.2393 63.6042 43.7782C64.1432 44.3172 64.446 45.0482 64.446 45.8104C64.446 46.5725 64.1432 47.3035 63.6042 47.8425C63.0653 48.3814 62.3343 48.6842 61.5721 48.6842Z" fill="url(#paint15_linear)"/>
<path d="M28.8027 89.7319L41.1642 82.6457L28.8027 75.5596V89.7319Z" fill="url(#paint16_linear)"/>
<path d="M139.636 199.999C130.07 200.005 120.706 197.253 112.666 192.071C104.626 186.889 98.2512 179.498 94.3063 170.784C90.3614 162.07 89.0138 152.403 90.425 142.942C91.8363 133.481 95.9465 124.629 102.263 117.445C104.69 114.666 107.424 112.17 110.412 110.005C117.327 104.967 125.428 101.802 133.927 100.819C137.731 100.347 141.579 100.347 145.383 100.819C157.98 102.302 169.535 108.54 177.685 118.259C185.835 127.977 189.965 140.442 189.231 153.104C188.497 165.767 182.955 177.671 173.736 186.382C164.517 195.094 152.319 199.955 139.636 199.973V199.999ZM139.636 106.226C137.955 106.226 136.277 106.331 134.61 106.541C127.086 107.406 119.912 110.199 113.784 114.65C111.142 116.557 108.725 118.758 106.58 121.212C100.998 127.57 97.3663 135.404 96.1214 143.773C94.8765 152.143 96.0708 160.694 99.5609 168.403C103.051 176.111 108.689 182.65 115.8 187.236C122.911 191.822 131.194 194.262 139.655 194.262C148.117 194.262 156.399 191.822 163.511 187.236C170.622 182.65 176.26 176.111 179.75 168.403C183.24 160.694 184.434 152.143 183.189 143.773C181.944 135.404 178.313 127.57 172.731 121.212C170.584 118.76 168.167 116.559 165.526 114.65C159.402 110.202 152.234 107.409 144.714 106.541C143.029 106.333 141.333 106.228 139.636 106.226Z" fill="url(#paint17_linear)"/>
<path d="M139.65 186.234C132.533 186.234 125.577 184.124 119.659 180.17C113.742 176.217 109.13 170.597 106.407 164.022C103.684 157.447 102.971 150.213 104.359 143.233C105.748 136.253 109.175 129.842 114.207 124.809C119.239 119.777 125.65 116.35 132.63 114.962C139.61 113.574 146.845 114.286 153.419 117.009C159.994 119.733 165.614 124.345 169.568 130.262C173.521 136.179 175.632 143.136 175.632 150.252C175.621 159.792 171.827 168.938 165.081 175.684C158.336 182.43 149.19 186.224 139.65 186.234ZM139.65 120.005C133.683 120.005 127.851 121.774 122.889 125.087C117.927 128.401 114.058 133.11 111.772 138.622C109.486 144.133 108.884 150.198 110.043 156.051C111.203 161.904 114.071 167.282 118.285 171.505C122.499 175.729 127.871 178.609 133.722 179.781C139.572 180.953 145.638 180.364 151.155 178.09C156.671 175.816 161.389 171.957 164.713 167.003C168.038 162.048 169.819 156.219 169.832 150.252C169.825 142.244 166.645 134.564 160.988 128.895C155.331 123.226 147.658 120.029 139.65 120.005Z" fill="black"/>
<path d="M139.65 186.234C132.533 186.234 125.577 184.124 119.659 180.17C113.742 176.217 109.13 170.597 106.407 164.022C103.684 157.447 102.971 150.213 104.359 143.233C105.748 136.253 109.175 129.842 114.207 124.809C119.239 119.777 125.65 116.35 132.63 114.962C139.61 113.574 146.845 114.286 153.419 117.009C159.994 119.733 165.614 124.345 169.568 130.262C173.521 136.179 175.632 143.136 175.632 150.252C175.621 159.792 171.827 168.938 165.081 175.684C158.336 182.43 149.19 186.224 139.65 186.234ZM139.65 120.005C133.683 120.005 127.851 121.774 122.889 125.087C117.927 128.401 114.058 133.11 111.772 138.622C109.486 144.133 108.884 150.198 110.043 156.051C111.203 161.904 114.071 167.282 118.285 171.505C122.499 175.729 127.871 178.609 133.722 179.781C139.572 180.953 145.638 180.364 151.155 178.09C156.671 175.816 161.389 171.957 164.713 167.003C168.038 162.048 169.819 156.219 169.832 150.252C169.825 142.244 166.645 134.564 160.988 128.895C155.331 123.226 147.658 120.029 139.65 120.005Z" fill="url(#paint18_linear)"/>
<path d="M115.949 153.112H108.705C107.978 153.063 107.297 152.74 106.8 152.207C106.302 151.675 106.025 150.974 106.025 150.245C106.025 149.517 106.302 148.815 106.8 148.283C107.297 147.751 107.978 147.427 108.705 147.378H115.949C116.676 147.427 117.357 147.751 117.854 148.283C118.352 148.815 118.629 149.517 118.629 150.245C118.629 150.974 118.352 151.675 117.854 152.207C117.357 152.74 116.676 153.063 115.949 153.112Z" fill="url(#paint19_linear)"/>
<path d="M172.691 153.113H165.46C165.068 153.14 164.673 153.085 164.302 152.953C163.932 152.821 163.592 152.614 163.304 152.346C163.016 152.077 162.787 151.752 162.63 151.39C162.473 151.029 162.393 150.64 162.393 150.246C162.393 149.852 162.473 149.463 162.63 149.101C162.787 148.74 163.016 148.415 163.304 148.146C163.592 147.877 163.932 147.671 164.302 147.538C164.673 147.406 165.068 147.352 165.46 147.379H172.691C173.084 147.352 173.478 147.406 173.849 147.538C174.22 147.671 174.56 147.877 174.847 148.146C175.135 148.415 175.364 148.74 175.521 149.101C175.678 149.463 175.759 149.852 175.759 150.246C175.759 150.64 175.678 151.029 175.521 151.39C175.364 151.752 175.135 152.077 174.847 152.346C174.56 152.614 174.22 152.821 173.849 152.953C173.478 153.085 173.084 153.14 172.691 153.113Z" fill="url(#paint20_linear)"/>
<path d="M139.651 129.415C138.889 129.415 138.158 129.112 137.619 128.573C137.08 128.034 136.777 127.303 136.777 126.541V119.31C136.777 118.548 137.08 117.817 137.619 117.278C138.158 116.739 138.889 116.437 139.651 116.437C140.413 116.437 141.144 116.739 141.683 117.278C142.222 117.817 142.525 118.548 142.525 119.31V126.541C142.525 127.303 142.222 128.034 141.683 128.573C141.144 129.112 140.413 129.415 139.651 129.415Z" fill="url(#paint21_linear)"/>
<path d="M139.651 184.056C138.889 184.056 138.158 183.754 137.619 183.215C137.08 182.676 136.777 181.945 136.777 181.182V173.952C136.777 173.19 137.08 172.459 137.619 171.92C138.158 171.381 138.889 171.078 139.651 171.078C140.413 171.078 141.144 171.381 141.683 171.92C142.222 172.459 142.525 173.19 142.525 173.952V181.182C142.525 181.945 142.222 182.676 141.683 183.215C141.144 183.754 140.413 184.056 139.651 184.056Z" fill="url(#paint22_linear)"/>
<path d="M153.809 146.42L141.527 157.01C141.415 157.102 141.296 157.185 141.172 157.259C140.715 157.557 140.182 157.716 139.637 157.718C139.34 157.726 139.046 157.672 138.771 157.561C138.642 157.537 138.518 157.493 138.403 157.43C138.201 157.343 138.015 157.223 137.852 157.075C137.666 156.946 137.502 156.786 137.367 156.603L123.444 138.573C123.213 138.274 123.043 137.932 122.944 137.568C122.845 137.203 122.819 136.822 122.867 136.448C122.915 136.073 123.037 135.711 123.225 135.384C123.412 135.056 123.663 134.768 123.962 134.537C124.261 134.307 124.603 134.137 124.967 134.038C125.332 133.939 125.712 133.913 126.087 133.961C126.462 134.009 126.823 134.131 127.151 134.318C127.479 134.506 127.766 134.757 127.997 135.056L140.07 150.698L150.069 142.09C150.647 141.593 151.397 141.345 152.156 141.399C152.915 141.453 153.623 141.805 154.124 142.378C154.371 142.663 154.559 142.994 154.677 143.353C154.795 143.711 154.841 144.089 154.812 144.465C154.782 144.841 154.679 145.207 154.507 145.543C154.335 145.879 154.097 146.177 153.809 146.42ZM141.172 157.259C141.259 157.232 141.339 157.187 141.408 157.128C141.457 157.099 141.498 157.058 141.527 157.01C141.417 157.083 141.303 157.149 141.185 157.207L141.172 157.259Z" fill="url(#paint23_linear)"/>
<defs>
<linearGradient id="paint0_linear" x1="131069" y1="2274.5" x2="130430" y2="325.63" gradientUnits="userSpaceOnUse">
<stop stop-color="#FF059D"/>
<stop offset="0.45" stop-color="#FF9841"/>
<stop offset="1" stop-color="#FFF904"/>
</linearGradient>
<linearGradient id="paint1_linear" x1="153477" y1="41267.9" x2="146599" y2="45573.8" gradientUnits="userSpaceOnUse">
<stop stop-color="#E3F24C"/>
<stop offset="0.2" stop-color="#CAED62"/>
<stop offset="1" stop-color="#64D8BC"/>
</linearGradient>
<linearGradient id="paint2_linear" x1="9704.14" y1="21719.5" x2="9338.9" y2="21742.2" gradientUnits="userSpaceOnUse">
<stop stop-color="#E3F24C"/>
<stop offset="0.2" stop-color="#CAED62"/>
<stop offset="1" stop-color="#64D8BC"/>
</linearGradient>
<linearGradient id="paint3_linear" x1="43040.1" y1="6778.23" x2="43338.2" y2="6311.25" gradientUnits="userSpaceOnUse">
<stop stop-color="#FF059D"/>
<stop offset="0.45" stop-color="#FF9841"/>
<stop offset="1" stop-color="#FFF904"/>
</linearGradient>
<linearGradient id="paint4_linear" x1="43793.9" y1="6778.22" x2="44092.3" y2="6311.33" gradientUnits="userSpaceOnUse">
<stop stop-color="#1A58FF"/>
<stop offset="0.05" stop-color="#1963FF"/>
<stop offset="0.23" stop-color="#1685FF"/>
<stop offset="0.42" stop-color="#13A0FF"/>
<stop offset="0.6" stop-color="#11B3FF"/>
<stop offset="0.8" stop-color="#10BEFF"/>
<stop offset="1" stop-color="#10C2FF"/>
</linearGradient>
<linearGradient id="paint5_linear" x1="44967.6" y1="6387.21" x2="44572.2" y2="6816" gradientUnits="userSpaceOnUse">
<stop stop-color="#E3F24C"/>
<stop offset="0.2" stop-color="#CAED62"/>
<stop offset="1" stop-color="#64D8BC"/>
</linearGradient>
<linearGradient id="paint6_linear" x1="43040.1" y1="7337.02" x2="43338.2" y2="6870.05" gradientUnits="userSpaceOnUse">
<stop stop-color="#1A58FF"/>
<stop offset="0.05" stop-color="#1963FF"/>
<stop offset="0.23" stop-color="#1685FF"/>
<stop offset="0.42" stop-color="#13A0FF"/>
<stop offset="0.6" stop-color="#11B3FF"/>
<stop offset="0.8" stop-color="#10BEFF"/>
<stop offset="1" stop-color="#10C2FF"/>
</linearGradient>
<linearGradient id="paint7_linear" x1="42262.9" y1="7337.02" x2="42561.3" y2="6870.12" gradientUnits="userSpaceOnUse">
<stop stop-color="#FF059D"/>
<stop offset="0.45" stop-color="#FF9841"/>
<stop offset="1" stop-color="#FFF904"/>
</linearGradient>
<linearGradient id="paint8_linear" x1="44141.8" y1="6894.55" x2="43746.5" y2="7323.35" gradientUnits="userSpaceOnUse">
<stop stop-color="#E3F24C"/>
<stop offset="0.2" stop-color="#CAED62"/>
<stop offset="1" stop-color="#64D8BC"/>
</linearGradient>
<linearGradient id="paint9_linear" x1="43460.6" y1="7500.91" x2="43066.5" y2="7930.22" gradientUnits="userSpaceOnUse">
<stop stop-color="#E3F24C"/>
<stop offset="0.2" stop-color="#CAED62"/>
<stop offset="1" stop-color="#64D8BC"/>
</linearGradient>
<linearGradient id="paint10_linear" x1="42303.1" y1="7890.64" x2="42599.9" y2="7424.15" gradientUnits="userSpaceOnUse">
<stop stop-color="#1A58FF"/>
<stop offset="0.05" stop-color="#1963FF"/>
<stop offset="0.23" stop-color="#1685FF"/>
<stop offset="0.42" stop-color="#13A0FF"/>
<stop offset="0.6" stop-color="#11B3FF"/>
<stop offset="0.8" stop-color="#10BEFF"/>
<stop offset="1" stop-color="#10C2FF"/>
</linearGradient>
<linearGradient id="paint11_linear" x1="270044" y1="13472.8" x2="271210" y2="7664.55" gradientUnits="userSpaceOnUse">
<stop stop-color="#FF059D"/>
<stop offset="0.45" stop-color="#FF9841"/>
<stop offset="1" stop-color="#FFF904"/>
</linearGradient>
<linearGradient id="paint12_linear" x1="25943" y1="7806.64" x2="25509.2" y2="7994.61" gradientUnits="userSpaceOnUse">
<stop stop-color="#E3F24C"/>
<stop offset="0.2" stop-color="#CAED62"/>
<stop offset="1" stop-color="#64D8BC"/>
</linearGradient>
<linearGradient id="paint13_linear" x1="26532.4" y1="7806.64" x2="26098.4" y2="7994.93" gradientUnits="userSpaceOnUse">
<stop stop-color="#E3F24C"/>
<stop offset="0.2" stop-color="#CAED62"/>
<stop offset="1" stop-color="#64D8BC"/>
</linearGradient>
<linearGradient id="paint14_linear" x1="27080.1" y1="7806.64" x2="26646.3" y2="7994.61" gradientUnits="userSpaceOnUse">
<stop stop-color="#E3F24C"/>
<stop offset="0.2" stop-color="#CAED62"/>
<stop offset="1" stop-color="#64D8BC"/>
</linearGradient>
<linearGradient id="paint15_linear" x1="105771" y1="1405.76" x2="105740" y2="1729.63" gradientUnits="userSpaceOnUse">
<stop stop-color="#E3F24C"/>
<stop offset="0.2" stop-color="#CAED62"/>
<stop offset="1" stop-color="#64D8BC"/>
</linearGradient>
<linearGradient id="paint16_linear" x1="806.462" y1="428.449" x2="170.87" y2="937.55" gradientUnits="userSpaceOnUse">
<stop stop-color="#E3F24C"/>
<stop offset="0.2" stop-color="#CAED62"/>
<stop offset="1" stop-color="#64D8BC"/>
</linearGradient>
<linearGradient id="paint17_linear" x1="158624" y1="35927.8" x2="163172" y2="29909.4" gradientUnits="userSpaceOnUse">
<stop stop-color="#1A58FF"/>
<stop offset="0.05" stop-color="#1963FF"/>
<stop offset="0.23" stop-color="#1685FF"/>
<stop offset="0.42" stop-color="#13A0FF"/>
<stop offset="0.6" stop-color="#11B3FF"/>
<stop offset="0.8" stop-color="#10BEFF"/>
<stop offset="1" stop-color="#10C2FF"/>
</linearGradient>
<linearGradient id="paint18_linear" x1="117937" y1="22506.5" x2="115031" y2="25174.2" gradientUnits="userSpaceOnUse">
<stop stop-color="#E3F24C"/>
<stop offset="0.2" stop-color="#CAED62"/>
<stop offset="1" stop-color="#64D8BC"/>
</linearGradient>
<linearGradient id="paint19_linear" x1="20264.8" y1="2021.65" x2="20236.3" y2="2079.13" gradientUnits="userSpaceOnUse">
<stop stop-color="#E3F24C"/>
<stop offset="0.2" stop-color="#CAED62"/>
<stop offset="1" stop-color="#64D8BC"/>
</linearGradient>
<linearGradient id="paint20_linear" x1="22119.8" y1="2025.93" x2="22092.3" y2="2084.71" gradientUnits="userSpaceOnUse">
<stop stop-color="#E3F24C"/>
<stop offset="0.2" stop-color="#CAED62"/>
<stop offset="1" stop-color="#64D8BC"/>
</linearGradient>
<linearGradient id="paint21_linear" x1="9449.08" y1="4089.57" x2="9394.82" y2="4111.63" gradientUnits="userSpaceOnUse">
<stop stop-color="#E3F24C"/>
<stop offset="0.2" stop-color="#CAED62"/>
<stop offset="1" stop-color="#64D8BC"/>
</linearGradient>
<linearGradient id="paint22_linear" x1="9449.08" y1="4684.61" x2="9394.82" y2="4706.67" gradientUnits="userSpaceOnUse">
<stop stop-color="#E3F24C"/>
<stop offset="0.2" stop-color="#CAED62"/>
<stop offset="1" stop-color="#64D8BC"/>
</linearGradient>
<linearGradient id="paint23_linear" x1="-1881.24" y1="-169.728" x2="-1871.16" y2="-183.086" gradientUnits="userSpaceOnUse">
<stop stop-color="#1A58FF"/>
<stop offset="0.05" stop-color="#1963FF"/>
<stop offset="0.23" stop-color="#1685FF"/>
<stop offset="0.42" stop-color="#13A0FF"/>
<stop offset="0.6" stop-color="#11B3FF"/>
<stop offset="0.8" stop-color="#10BEFF"/>
<stop offset="1" stop-color="#10C2FF"/>
</linearGradient>
</defs>
</svg>
