<svg width="165" height="200" viewBox="0 0 165 200" fill="none" xmlns="http://www.w3.org/2000/svg">
<path d="M137.652 50.2912C137.246 50.8264 136.645 51.1792 135.981 51.2726C135.316 51.366 134.641 51.1922 134.104 50.7894C133.569 50.3839 133.216 49.7831 133.122 49.1182C133.029 48.4534 133.203 47.7786 133.606 47.2414C133.805 46.9734 134.056 46.7476 134.344 46.5773C134.632 46.4069 134.95 46.2953 135.282 46.249C135.613 46.2027 135.95 46.2225 136.273 46.3073C136.597 46.3922 136.9 46.5404 137.166 46.7433C137.431 46.9439 137.654 47.195 137.822 47.4821C137.99 47.7692 138.1 48.0867 138.145 48.4163C138.191 48.7459 138.17 49.0812 138.085 49.403C138.001 49.7247 137.853 50.0266 137.652 50.2912ZM131.285 54.5195C131.019 54.3185 130.717 54.1719 130.395 54.0881C130.073 54.0043 129.737 53.985 129.407 54.0313C129.078 54.0776 128.76 54.1886 128.474 54.3578C128.187 54.5271 127.937 54.7514 127.737 55.0177C127.334 55.5548 127.16 56.2296 127.254 56.8945C127.347 57.5593 127.7 58.1602 128.235 58.5656C128.5 58.7666 128.803 58.9132 129.125 58.997C129.447 59.0808 129.783 59.1001 130.113 59.0538C130.442 59.0075 130.76 58.8966 131.046 58.7273C131.333 58.558 131.583 58.3338 131.783 58.0674C131.986 57.8027 132.134 57.5003 132.218 57.1779C132.303 56.8554 132.323 56.5194 132.276 56.1892C132.23 55.8591 132.118 55.5415 131.948 55.2548C131.778 54.9682 131.553 54.7182 131.285 54.5195ZM140.215 61.2509C139.949 61.0495 139.646 60.9026 139.322 60.8187C138.999 60.7347 138.663 60.7153 138.332 60.7616C138.001 60.8079 137.683 60.9189 137.395 61.0883C137.108 61.2578 136.856 61.4823 136.655 61.749C136.252 62.2861 136.079 62.9609 136.172 63.6258C136.265 64.2907 136.618 64.8915 137.153 65.2969C137.419 65.4979 137.721 65.6446 138.043 65.7283C138.366 65.8121 138.701 65.8314 139.031 65.7851C139.361 65.7389 139.678 65.6279 139.965 65.4586C140.251 65.2893 140.502 65.0651 140.701 64.7987C140.904 64.5349 141.052 64.2336 141.138 63.9123C141.223 63.5911 141.245 63.2561 141.201 62.9265C141.157 62.5969 141.048 62.2792 140.881 61.9916C140.714 61.7041 140.492 61.4524 140.227 61.2509H140.215ZM125.416 62.2958C124.879 61.8929 124.204 61.7192 123.539 61.8125C122.875 61.9059 122.274 62.2588 121.868 62.7939C121.667 63.0593 121.521 63.3618 121.437 63.684C121.353 64.0062 121.334 64.3417 121.38 64.6714C121.426 65.0011 121.537 65.3184 121.707 65.605C121.876 65.8917 122.1 66.1421 122.366 66.3418C122.631 66.5435 122.933 66.691 123.255 66.7757C123.576 66.8604 123.912 66.8808 124.241 66.8357C124.571 66.7905 124.888 66.6807 125.176 66.5125C125.463 66.3444 125.714 66.1212 125.914 65.8558C126.121 65.5884 126.273 65.2823 126.36 64.9555C126.447 64.6287 126.468 64.2878 126.422 63.9528C126.375 63.6178 126.263 63.2954 126.09 63.0046C125.917 62.7138 125.688 62.4604 125.416 62.2593V62.2958ZM134.335 69.0271C133.797 68.6242 133.123 68.4505 132.458 68.5439C131.793 68.6372 131.192 68.9901 130.787 69.5253C130.384 70.0624 130.21 70.7372 130.303 71.402C130.397 72.0669 130.75 72.6677 131.285 73.0732C131.55 73.2742 131.853 73.4208 132.175 73.5046C132.497 73.5884 132.833 73.6077 133.162 73.5614C133.492 73.5151 133.809 73.4041 134.096 73.2349C134.383 73.0656 134.633 72.8413 134.833 72.575C135.034 72.3096 135.18 72.0071 135.264 71.685C135.348 71.3628 135.367 71.0272 135.321 70.6975C135.275 70.3678 135.164 70.0505 134.994 69.7639C134.825 69.4772 134.601 69.2268 134.335 69.0271ZM143.265 75.7584C142.999 75.557 142.695 75.4102 142.372 75.3262C142.049 75.2423 141.712 75.2229 141.382 75.2692C141.051 75.3155 140.733 75.4265 140.445 75.5959C140.157 75.7653 139.906 75.9898 139.705 76.2565C139.302 76.7937 139.128 77.4685 139.222 78.1334C139.315 78.7982 139.668 79.3991 140.203 79.8045C140.469 80.0055 140.771 80.1521 141.093 80.2359C141.415 80.3197 141.751 80.339 142.081 80.2927C142.41 80.2464 142.728 80.1354 143.014 79.9661C143.301 79.7969 143.551 79.5726 143.751 79.3063C143.953 79.0417 144.1 78.7398 144.185 78.4181C144.27 78.0964 144.29 77.7611 144.245 77.4314C144.2 77.1018 144.09 76.7843 143.922 76.4972C143.754 76.2101 143.531 75.959 143.265 75.7584Z" fill="url(#paint0_linear)"/>
<path d="M30.1691 46.7433C30.4348 46.5404 30.7382 46.3922 31.0616 46.3073C31.385 46.2225 31.722 46.2027 32.0531 46.249C32.3843 46.2953 32.7029 46.4069 32.9906 46.5773C33.2783 46.7476 33.5293 46.9734 33.7292 47.2414C34.132 47.7786 34.3058 48.4534 34.2125 49.1182C34.1191 49.7831 33.7662 50.3839 33.231 50.7894C32.692 51.1929 32.0153 51.367 31.3484 51.2736C30.6815 51.1803 30.0786 50.8272 29.671 50.2912C29.2681 49.7541 29.0944 49.0793 29.1877 48.4144C29.2811 47.7495 29.6339 47.1487 30.1691 46.7433ZM35.5517 58.0674C35.7515 58.3337 36.0019 58.558 36.2886 58.7273C36.5752 58.8966 36.8925 59.0075 37.2222 59.0538C37.5518 59.1001 37.8874 59.0808 38.2096 58.997C38.5318 58.9132 38.8343 58.7666 39.0997 58.5656C39.6349 58.1602 39.9877 57.5593 40.081 56.8945C40.1744 56.2296 40.0007 55.5548 39.5978 55.0177C39.397 54.751 39.1455 54.5265 38.8578 54.357C38.5701 54.1876 38.2518 54.0766 37.9211 54.0303C37.5905 53.984 37.2539 54.0034 36.9307 54.0874C36.6075 54.1713 36.3041 54.3182 36.0378 54.5195C35.7723 54.7202 35.5491 54.9712 35.381 55.2583C35.2129 55.5454 35.1031 55.8629 35.058 56.1925C35.0128 56.5222 35.0331 56.8575 35.1179 57.1792C35.2026 57.501 35.35 57.8028 35.5517 58.0674ZM26.6212 64.7987C26.8221 65.0655 27.0735 65.29 27.3613 65.4594C27.649 65.6288 27.9672 65.7399 28.2979 65.7861C28.6286 65.8324 28.9651 65.813 29.2883 65.7291C29.6115 65.6451 29.9149 65.4983 30.1813 65.2969C30.7164 64.8915 31.0693 64.2907 31.1627 63.6258C31.2561 62.9609 31.0823 62.2861 30.6795 61.749C30.4786 61.4823 30.2271 61.2578 29.9394 61.0883C29.6517 60.9189 29.3334 60.8079 29.0027 60.7616C28.672 60.7153 28.3355 60.7347 28.0123 60.8187C27.6891 60.9026 27.3857 61.0495 27.1193 61.2508C26.5842 61.6563 26.2313 62.2571 26.138 62.922C26.0446 63.5868 26.2184 64.2616 26.6212 64.7987ZM41.4204 65.8558C41.621 66.1212 41.8721 66.3444 42.1592 66.5125C42.4463 66.6807 42.7638 66.7905 43.0934 66.8357C43.4231 66.8808 43.7583 66.8604 44.08 66.7757C44.4018 66.691 44.7036 66.5435 44.9683 66.3418C45.5034 65.9364 45.8563 65.3356 45.9497 64.6707C46.043 64.0058 45.8693 63.331 45.4665 62.7939C45.0611 62.2587 44.4602 61.9059 43.7953 61.8125C43.1305 61.7192 42.4557 61.8929 41.9186 62.2958C41.6449 62.4969 41.4142 62.7509 41.2405 63.0427C41.0667 63.3346 40.9532 63.6583 40.9067 63.9948C40.8603 64.3313 40.8818 64.6737 40.9701 65.0017C41.0583 65.3297 41.2114 65.6367 41.4204 65.9044V65.8558ZM32.502 72.575C32.7018 72.8413 32.9521 73.0656 33.2388 73.2349C33.5255 73.4041 33.8427 73.5151 34.1724 73.5614C34.5021 73.6077 34.8377 73.5884 35.1598 73.5046C35.482 73.4208 35.7846 73.2742 36.0499 73.0732C36.5851 72.6677 36.9379 72.0669 37.0313 71.402C37.1246 70.7372 36.9509 70.0624 36.5481 69.5253C36.1405 68.9893 35.5375 68.6361 34.8706 68.5428C34.2038 68.4495 33.5271 68.6236 32.988 69.0271C32.7226 69.2277 32.4995 69.4788 32.3313 69.7659C32.1632 70.053 32.0534 70.3705 32.0082 70.7001C31.963 71.0297 31.9834 71.3651 32.0681 71.6868C32.1529 72.0085 32.3004 72.3104 32.502 72.575ZM23.5836 79.2699C23.7834 79.5362 24.0337 79.7604 24.3204 79.9297C24.6071 80.099 24.9244 80.21 25.2541 80.2563C25.5837 80.3025 25.9193 80.2832 26.2415 80.1995C26.5637 80.1157 26.8661 79.9691 27.1315 79.768C27.6667 79.3626 28.0196 78.7618 28.1129 78.0969C28.2063 77.432 28.0326 76.7572 27.6297 76.2201C27.4289 75.9534 27.1774 75.7289 26.8897 75.5594C26.602 75.39 26.2836 75.279 25.953 75.2327C25.6223 75.1864 25.2858 75.2058 24.9626 75.2898C24.6395 75.3737 24.336 75.5206 24.0697 75.7219C23.8043 75.9226 23.581 76.1736 23.4129 76.4607C23.2448 76.7478 23.1349 77.0653 23.0898 77.395C23.0446 77.7246 23.065 78.0599 23.1498 78.3816C23.2345 78.7034 23.3819 79.0052 23.5836 79.2699Z" fill="url(#paint1_linear)"/>
<path d="M81.0906 172.025C77.6387 172.025 74.2643 171.001 71.3944 169.083C68.5246 167.164 66.2883 164.438 64.9684 161.248C63.6485 158.059 63.3044 154.549 63.9796 151.164C64.6548 147.779 66.319 144.67 68.7616 142.231C71.2042 139.792 74.3154 138.132 77.7015 137.461C81.0877 136.791 84.5967 137.14 87.7845 138.464C90.9723 139.788 93.6955 142.028 95.6098 144.901C97.5241 147.773 98.5433 151.149 98.5385 154.601C98.5289 159.223 96.6867 163.653 93.416 166.919C90.1452 170.186 85.7129 172.022 81.0906 172.025ZM81.0906 142.463C78.6875 142.463 76.3383 143.176 74.3402 144.511C72.342 145.846 70.7847 147.743 69.865 149.964C68.9454 152.184 68.7048 154.627 69.1736 156.984C69.6425 159.341 70.7996 161.506 72.4989 163.205C74.1982 164.904 76.3632 166.061 78.7201 166.53C81.0771 166.999 83.5201 166.758 85.7403 165.839C87.9605 164.919 89.8582 163.362 91.1933 161.364C92.5284 159.366 93.241 157.016 93.241 154.613C93.2426 153.017 92.9294 151.435 92.3195 149.96C91.7096 148.484 90.8149 147.143 89.6865 146.014C88.558 144.884 87.218 143.988 85.7431 143.377C84.2681 142.765 82.6872 142.451 81.0906 142.451V142.463Z" fill="url(#paint2_linear)"/>
<path d="M83.314 80.485C78.0274 80.4868 72.8244 79.1655 68.1792 76.6414C63.5341 74.1173 59.5946 70.4707 56.7198 66.0341C53.845 61.5975 52.1263 56.5119 51.7205 51.2409C51.3146 45.9699 52.2344 40.6811 54.3961 35.8567L59.2562 38.0194C57.4718 42.0363 56.7198 46.4355 57.0687 50.817C57.4177 55.1985 58.8564 59.4232 61.2541 63.107C63.6518 66.7907 66.9325 69.8167 70.7976 71.9095C74.6627 74.0024 78.9897 75.0957 83.3851 75.0902C87.7805 75.0847 92.1047 73.9804 95.9646 71.8778C99.8244 69.7752 103.097 66.741 105.486 63.0512C107.874 59.3614 109.302 55.133 109.64 50.7506C109.978 46.3683 109.215 41.971 107.42 37.9587L112.281 35.7959C114.457 40.6268 115.388 45.9266 114.986 51.21C114.584 56.4935 112.864 61.5918 109.982 66.0381C107.1 70.4845 103.148 74.1368 98.4893 76.6607C93.8303 79.1847 88.6126 80.4996 83.314 80.485Z" fill="url(#paint3_linear)"/>
<path d="M142.901 118.564H23.7422V113.291C23.7486 103.2 27.7576 93.5239 34.8896 86.3851C42.0215 79.2462 51.6941 75.228 61.785 75.2119H104.822C114.917 75.2248 124.595 79.2408 131.734 86.3793C138.872 93.5177 142.888 103.196 142.901 113.291V118.564ZM29.0519 113.291H137.579C137.579 104.591 134.123 96.2462 127.97 90.0938C121.818 83.9415 113.474 80.4852 104.773 80.4852H61.785C53.097 80.5045 44.7714 83.9693 38.6348 90.1196C32.4982 96.2698 29.0519 104.603 29.0519 113.291Z" fill="url(#paint4_linear)"/>
<path d="M130.762 199.996H33.4619C30.3422 199.989 27.3305 198.854 24.9831 196.799C22.6358 194.744 21.1115 191.909 20.6918 188.818L12.3688 125.842C12.1687 124.274 12.3049 122.68 12.7684 121.168C13.2318 119.656 14.0119 118.26 15.0567 117.072C16.1014 115.885 17.387 114.934 18.8279 114.282C20.2687 113.63 21.8319 113.292 23.4135 113.291H140.798C142.383 113.291 143.95 113.63 145.394 114.284C146.838 114.938 148.125 115.893 149.17 117.084C150.216 118.276 150.995 119.677 151.456 121.193C151.917 122.71 152.049 124.307 151.843 125.879L143.52 188.854C143.093 191.937 141.567 194.761 139.223 196.809C136.879 198.856 133.874 199.988 130.762 199.996ZM23.4135 118.589C22.5844 118.588 21.7648 118.765 21.0096 119.107C20.2544 119.45 19.581 119.949 19.0345 120.573C18.4881 121.196 18.0812 121.929 17.841 122.723C17.6009 123.516 17.533 124.352 17.642 125.174L26.0137 188.113C26.2599 189.929 27.1544 191.594 28.5322 192.802C29.91 194.01 31.6781 194.68 33.5104 194.686H130.811C132.641 194.677 134.406 194.006 135.781 192.798C137.157 191.591 138.049 189.927 138.295 188.113L146.618 125.15C146.727 124.328 146.66 123.492 146.419 122.699C146.179 121.905 145.772 121.172 145.226 120.548C144.679 119.925 144.006 119.425 143.251 119.083C142.496 118.741 141.676 118.564 140.847 118.564L23.4135 118.589Z" fill="url(#paint5_linear)"/>
<path d="M152.293 185.804L156.934 179.389L160.13 186.679L152.293 185.804ZM161.454 173.97L158.259 166.68L153.593 173.144L161.454 173.97ZM162.803 161.224L159.608 153.934L154.966 160.349L162.803 161.224ZM164.127 148.563L160.932 141.334L156.303 147.749L164.127 148.563Z" fill="url(#paint6_linear)"/>
<path d="M3.99745 186.631L7.19301 179.34L11.8345 185.756L3.99745 186.631ZM10.4979 173.144L5.86858 166.753L2.67303 174.043L10.4979 173.144ZM9.16136 160.398L4.53207 153.983L1.32435 161.273L9.16136 160.398ZM7.78836 147.749L3.14691 141.334L0 148.527L7.78836 147.749Z" fill="url(#paint7_linear)"/>
<path d="M116.097 39.5617H50.9828C50.2968 39.5621 49.6374 39.2964 49.1434 38.8205C48.6493 38.3446 48.3592 37.6956 48.334 37.0101C48.334 36.3783 48.334 35.795 48.334 35.2361C48.334 30.6088 49.2454 26.0269 51.0162 21.7519C52.787 17.4768 55.3824 13.5924 58.6544 10.3204C61.9264 7.04845 65.8108 4.45298 70.0858 2.6822C74.3608 0.911422 78.9428 0 83.5701 0C88.1974 0 92.7794 0.911422 97.0544 2.6822C101.329 4.45298 105.214 7.04845 108.486 10.3204C111.758 13.5924 114.353 17.4768 116.124 21.7519C117.895 26.0269 118.806 30.6088 118.806 35.2361C118.806 35.8315 118.806 36.4512 118.806 37.0101C118.781 37.7062 118.482 38.3644 117.975 38.8419C117.468 39.3195 116.793 39.5781 116.097 39.5617ZM53.6194 34.3127H113.496C113.226 26.5581 109.955 19.2115 104.373 13.8213C98.7918 8.4312 91.3355 5.41863 83.5762 5.41863C75.8168 5.41863 68.3606 8.4312 62.779 13.8213C57.1975 19.2115 53.9266 26.5581 53.6559 34.3127H53.6194Z" fill="url(#paint8_linear)"/>
<path d="M138.211 39.5617H50.9832C50.3101 39.5161 49.6795 39.2166 49.2189 38.7237C48.7582 38.2309 48.502 37.5814 48.502 36.9068C48.502 36.2322 48.7582 35.5828 49.2189 35.0899C49.6795 34.597 50.3101 34.2975 50.9832 34.252H138.211C138.884 34.2975 139.515 34.597 139.975 35.0899C140.436 35.5828 140.692 36.2322 140.692 36.9068C140.692 37.5814 140.436 38.2309 139.975 38.7237C139.515 39.2166 138.884 39.5161 138.211 39.5617Z" fill="url(#paint9_linear)"/>
<path d="M89.1173 18.7755L84.5122 14.1704C83.8431 13.5013 82.7584 13.5014 82.0894 14.1704L77.4843 18.7755C76.8152 19.4446 76.8152 20.5293 77.4842 21.1983L82.0894 25.8035C82.7584 26.4725 83.8431 26.4725 84.5122 25.8035L89.1173 21.1984C89.7863 20.5293 89.7864 19.4446 89.1173 18.7755Z" fill="url(#paint10_linear)"/>
<path d="M35.953 178.161C35.3037 178.157 34.678 177.917 34.1928 177.485C33.7076 177.054 33.3961 176.46 33.3164 175.816L30.8863 154.796C30.8489 154.12 31.0701 153.456 31.5048 152.938C31.9395 152.42 32.5551 152.087 33.2266 152.007C33.898 151.926 34.575 152.104 35.1198 152.505C35.6646 152.906 36.0363 153.499 36.1595 154.164L38.6018 175.257C38.6806 175.957 38.4798 176.66 38.0429 177.213C37.606 177.766 36.9684 178.124 36.2689 178.209L35.953 178.161ZM32.2107 146.57C31.5598 146.571 30.9314 146.333 30.4451 145.9C29.9587 145.468 29.6487 144.871 29.574 144.225L29.0637 140.009C28.98 139.308 29.178 138.602 29.6144 138.047C30.0507 137.493 30.6896 137.134 31.3905 137.05C32.0914 136.966 32.7969 137.164 33.3518 137.601C33.9066 138.037 34.2654 138.676 34.3491 139.377L34.8473 143.593C34.8897 143.939 34.8632 144.291 34.7694 144.627C34.6756 144.963 34.5163 145.277 34.3006 145.552C34.085 145.826 33.8173 146.055 33.5128 146.226C33.2084 146.396 32.8732 146.505 32.5266 146.546L32.2107 146.57Z" fill="url(#paint11_linear)"/>
<path d="M157.808 199.994H5.92852C5.56477 200.018 5.19985 199.968 4.85639 199.845C4.51292 199.723 4.19826 199.532 3.93191 199.283C3.66555 199.034 3.45319 198.733 3.308 198.398C3.16281 198.064 3.08789 197.703 3.08789 197.339C3.08789 196.974 3.16281 196.613 3.308 196.279C3.45319 195.945 3.66555 195.644 3.93191 195.395C4.19826 195.146 4.51292 194.954 4.85639 194.832C5.19985 194.71 5.56477 194.659 5.92852 194.684H157.808C158.172 194.659 158.537 194.71 158.88 194.832C159.224 194.954 159.539 195.146 159.805 195.395C160.071 195.644 160.284 195.945 160.429 196.279C160.574 196.613 160.649 196.974 160.649 197.339C160.649 197.703 160.574 198.064 160.429 198.398C160.284 198.733 160.071 199.034 159.805 199.283C159.539 199.532 159.224 199.723 158.88 199.845C158.537 199.968 158.172 200.018 157.808 199.994Z" fill="url(#paint12_linear)"/>
<defs>
<linearGradient id="paint0_linear" x1="1562.8" y1="895.131" x2="162.302" y2="1759.49" gradientUnits="userSpaceOnUse">
<stop stop-color="#E3F24C"/>
<stop offset="0.2" stop-color="#CAED62"/>
<stop offset="1" stop-color="#64D8BC"/>
</linearGradient>
<linearGradient id="paint1_linear" x1="-962.798" y1="-151.758" x2="-953.466" y2="-164.127" gradientUnits="userSpaceOnUse">
<stop stop-color="#1A58FF"/>
<stop offset="0.05" stop-color="#1963FF"/>
<stop offset="0.23" stop-color="#1685FF"/>
<stop offset="0.42" stop-color="#13A0FF"/>
<stop offset="0.6" stop-color="#11B3FF"/>
<stop offset="0.8" stop-color="#10BEFF"/>
<stop offset="1" stop-color="#10C2FF"/>
</linearGradient>
<linearGradient id="paint2_linear" x1="32436.3" y1="12331.2" x2="33039.6" y2="11532" gradientUnits="userSpaceOnUse">
<stop stop-color="#FF059D"/>
<stop offset="0.45" stop-color="#FF9841"/>
<stop offset="1" stop-color="#FFF904"/>
</linearGradient>
<linearGradient id="paint3_linear" x1="58597.6" y1="12186.8" x2="59733.5" y2="10051.7" gradientUnits="userSpaceOnUse">
<stop stop-color="#FF059D"/>
<stop offset="0.45" stop-color="#FF9841"/>
<stop offset="1" stop-color="#FFF904"/>
</linearGradient>
<linearGradient id="paint4_linear" x1="115430" y1="11841.1" x2="113598" y2="16465.2" gradientUnits="userSpaceOnUse">
<stop stop-color="#E3F24C"/>
<stop offset="0.2" stop-color="#CAED62"/>
<stop offset="1" stop-color="#64D8BC"/>
</linearGradient>
<linearGradient id="paint5_linear" x1="125952" y1="33193.9" x2="130720" y2="23022.7" gradientUnits="userSpaceOnUse">
<stop stop-color="#1A58FF"/>
<stop offset="0.05" stop-color="#1963FF"/>
<stop offset="0.23" stop-color="#1685FF"/>
<stop offset="0.42" stop-color="#13A0FF"/>
<stop offset="0.6" stop-color="#11B3FF"/>
<stop offset="0.8" stop-color="#10BEFF"/>
<stop offset="1" stop-color="#10C2FF"/>
</linearGradient>
<linearGradient id="paint6_linear" x1="896.799" y1="1270.43" x2="-47.8335" y2="1496.83" gradientUnits="userSpaceOnUse">
<stop stop-color="#E3F24C"/>
<stop offset="0.2" stop-color="#CAED62"/>
<stop offset="1" stop-color="#64D8BC"/>
</linearGradient>
<linearGradient id="paint7_linear" x1="-962.795" y1="-151.758" x2="-953.464" y2="-164.127" gradientUnits="userSpaceOnUse">
<stop stop-color="#FF059D"/>
<stop offset="0.45" stop-color="#FF9841"/>
<stop offset="1" stop-color="#FFF904"/>
</linearGradient>
<linearGradient id="paint8_linear" x1="65221.1" y1="10044.1" x2="66083.9" y2="8008.42" gradientUnits="userSpaceOnUse">
<stop stop-color="#1A58FF"/>
<stop offset="0.05" stop-color="#1963FF"/>
<stop offset="0.23" stop-color="#1685FF"/>
<stop offset="0.42" stop-color="#13A0FF"/>
<stop offset="0.6" stop-color="#11B3FF"/>
<stop offset="0.8" stop-color="#10BEFF"/>
<stop offset="1" stop-color="#10C2FF"/>
</linearGradient>
<linearGradient id="paint9_linear" x1="86070.1" y1="1415.53" x2="86083.9" y2="1099.16" gradientUnits="userSpaceOnUse">
<stop stop-color="#1A58FF"/>
<stop offset="0.05" stop-color="#1963FF"/>
<stop offset="0.23" stop-color="#1685FF"/>
<stop offset="0.42" stop-color="#13A0FF"/>
<stop offset="0.6" stop-color="#11B3FF"/>
<stop offset="0.8" stop-color="#10BEFF"/>
<stop offset="1" stop-color="#10C2FF"/>
</linearGradient>
<linearGradient id="paint10_linear" x1="350.432" y1="630.083" x2="-266.902" y2="603.798" gradientUnits="userSpaceOnUse">
<stop stop-color="#E3F24C"/>
<stop offset="0.2" stop-color="#CAED62"/>
<stop offset="1" stop-color="#64D8BC"/>
</linearGradient>
<linearGradient id="paint11_linear" x1="8697.41" y1="13854.7" x2="8427.38" y2="13912.3" gradientUnits="userSpaceOnUse">
<stop stop-color="#E3F24C"/>
<stop offset="0.2" stop-color="#CAED62"/>
<stop offset="1" stop-color="#64D8BC"/>
</linearGradient>
<linearGradient id="paint12_linear" x1="153230" y1="2007.04" x2="153202" y2="2765" gradientUnits="userSpaceOnUse">
<stop stop-color="#E3F24C"/>
<stop offset="0.2" stop-color="#CAED62"/>
<stop offset="1" stop-color="#64D8BC"/>
</linearGradient>
</defs>
</svg>
