<svg width="183" height="200" viewBox="0 0 183 200" fill="none" xmlns="http://www.w3.org/2000/svg">
<path d="M167.765 109.703H167.512V106.726L167.034 103.934C168.934 103.608 170.658 102.621 171.901 101.147C173.144 99.6728 173.826 97.807 173.826 95.8789V13.9837C173.822 11.8144 172.958 9.7351 171.423 8.20239C169.888 6.66968 167.807 5.80882 165.638 5.80883H16.8681C14.7023 5.81235 12.6263 6.67518 11.0961 8.20789C9.5659 9.7406 8.70644 11.8179 8.70644 13.9837V95.8789C8.71458 97.7942 9.39937 99.645 10.6398 101.104C11.8803 102.564 13.5966 103.538 15.4856 103.854L14.5153 109.61C11.2768 109.052 8.33941 107.369 6.22116 104.857C4.10291 102.345 2.93997 99.1649 2.9375 95.8789V13.9837C2.94097 10.2853 4.40806 6.73852 7.01827 4.11834C9.62848 1.49817 13.1697 0.0175599 16.8681 0H165.625C169.336 -6.68125e-06 172.895 1.47242 175.522 4.09412C178.149 6.71581 179.628 10.2726 179.635 13.9837V95.8789C179.622 99.1705 178.449 102.352 176.322 104.864C174.194 107.376 171.249 109.056 168.004 109.61L167.765 109.703Z" fill="url(#paint0_linear)"/>
<path d="M67.6053 109.862H48.2912C47.8933 109.889 47.4941 109.834 47.1183 109.7C46.7426 109.567 46.3983 109.357 46.1069 109.085C45.8156 108.812 45.5832 108.483 45.4244 108.117C45.2656 107.751 45.1836 107.357 45.1836 106.958C45.1836 106.559 45.2656 106.164 45.4244 105.799C45.5832 105.433 45.8156 105.103 46.1069 104.831C46.3983 104.559 46.7426 104.349 47.1183 104.215C47.4941 104.082 47.8933 104.027 48.2912 104.054H67.6053C68.3416 104.103 69.0315 104.431 69.5355 104.97C70.0394 105.509 70.3197 106.22 70.3197 106.958C70.3197 107.696 70.0394 108.406 69.5355 108.946C69.0315 109.485 68.3416 109.813 67.6053 109.862Z" fill="black"/>
<path d="M134.228 109.862H114.914C114.516 109.889 114.117 109.834 113.741 109.7C113.366 109.567 113.021 109.357 112.73 109.085C112.439 108.812 112.206 108.483 112.047 108.117C111.889 107.751 111.807 107.357 111.807 106.958C111.807 106.559 111.889 106.164 112.047 105.799C112.206 105.433 112.439 105.103 112.73 104.831C113.021 104.559 113.366 104.349 113.741 104.215C114.117 104.082 114.516 104.027 114.914 104.054H134.228C134.965 104.103 135.655 104.431 136.159 104.97C136.662 105.509 136.943 106.22 136.943 106.958C136.943 107.696 136.662 108.406 136.159 108.946C135.655 109.485 134.965 109.813 134.228 109.862Z" fill="black"/>
<path d="M67.605 104.056H48.291V109.878H67.605V104.056Z" fill="url(#paint1_linear)"/>
<path d="M134.215 104.057H114.914V109.879H134.215V104.057Z" fill="url(#paint2_linear)"/>
<path d="M80.5786 65.252L109.091 48.9022C109.356 48.7513 109.577 48.5328 109.73 48.269C109.884 48.0052 109.965 47.7054 109.965 47.4002C109.965 47.0949 109.884 46.7952 109.73 46.5313C109.577 46.2675 109.356 46.049 109.091 45.8981L80.5786 29.5483C80.3132 29.3839 80.0086 29.2938 79.6965 29.2875C79.3845 29.2811 79.0764 29.3588 78.8047 29.5124C78.5329 29.6659 78.3074 29.8897 78.1518 30.1603C77.9961 30.4308 77.9161 30.7383 77.9201 31.0504V63.75C77.9161 64.0621 77.9961 64.3695 78.1518 64.6401C78.3074 64.9107 78.5329 65.1344 78.8047 65.288C79.0764 65.4415 79.3845 65.5192 79.6965 65.5129C80.0086 65.5065 80.3132 65.4164 80.5786 65.252Z" fill="url(#paint3_linear)"/>
<path d="M134.601 21.7717C133.988 21.7717 133.39 21.59 132.88 21.2497C132.371 20.9094 131.974 20.4257 131.74 19.8598C131.505 19.2938 131.444 18.6711 131.563 18.0703C131.683 17.4695 131.978 16.9176 132.411 16.4845C132.844 16.0514 133.396 15.7564 133.997 15.6369C134.598 15.5174 135.22 15.5787 135.786 15.8131C136.352 16.0475 136.836 16.4445 137.176 16.9538C137.517 17.4632 137.698 18.062 137.698 18.6745C137.698 19.4959 137.372 20.2837 136.791 20.8645C136.21 21.4454 135.422 21.7717 134.601 21.7717ZM148.758 18.6745C148.76 18.0588 148.58 17.4561 148.24 16.9428C147.9 16.4296 147.415 16.0288 146.847 15.7914C146.279 15.5539 145.653 15.4904 145.049 15.6089C144.444 15.7274 143.889 16.0226 143.452 16.4571C143.016 16.8916 142.719 17.4458 142.597 18.0495C142.476 18.6532 142.537 19.2793 142.772 19.8485C143.007 20.4176 143.406 20.9042 143.918 21.2465C144.43 21.5889 145.031 21.7717 145.647 21.7717C146.055 21.7734 146.459 21.6946 146.836 21.5397C147.214 21.3849 147.557 21.157 147.846 20.8693C148.135 20.5815 148.364 20.2395 148.521 19.8628C148.677 19.4862 148.758 19.0824 148.758 18.6745ZM159.804 18.6745C159.806 18.0582 159.626 17.455 159.285 16.9415C158.944 16.4279 158.459 16.0272 157.89 15.7901C157.321 15.5531 156.694 15.4903 156.09 15.6099C155.485 15.7295 154.93 16.026 154.494 16.4618C154.058 16.8976 153.762 17.4531 153.642 18.0577C153.522 18.6623 153.585 19.2888 153.822 19.8577C154.059 20.4266 154.46 20.9122 154.973 21.253C155.487 21.5938 156.09 21.7743 156.707 21.7717C157.526 21.7682 158.31 21.4403 158.888 20.8599C159.466 20.2794 159.79 19.4936 159.79 18.6745H159.804Z" fill="url(#paint4_linear)"/>
<path d="M91.2533 143.133C76.379 143.133 64.2695 129.216 64.2695 112.109C64.2695 95.0012 76.379 81.084 91.2533 81.084C106.128 81.084 118.237 95.0012 118.237 112.109C118.237 129.216 106.128 143.133 91.2533 143.133ZM91.2533 86.8928C79.5825 86.8928 70.0916 98.2047 70.0916 112.149C70.0916 126.092 79.5825 137.404 91.2533 137.404C102.924 137.404 112.415 126.106 112.415 112.149C112.415 98.1914 102.924 86.8928 91.2533 86.8928Z" fill="url(#paint5_linear)"/>
<path d="M150.912 140.661C139.135 140.661 129.551 129.694 129.551 116.202C129.551 102.71 139.135 91.7441 150.912 91.7441C162.689 91.7441 172.26 102.724 172.26 116.202C172.26 129.681 162.689 140.661 150.912 140.661ZM150.912 97.5663C142.338 97.5663 135.373 105.927 135.373 116.176C135.373 126.424 142.338 134.785 150.912 134.785C159.486 134.785 166.437 126.477 166.437 116.256C166.437 106.034 159.472 97.5663 150.912 97.5663Z" fill="url(#paint6_linear)"/>
<path d="M31.6111 140.661C19.8339 140.661 10.25 129.694 10.25 116.202C10.25 102.71 19.8339 91.7441 31.6111 91.7441C43.3882 91.7441 52.9588 102.724 52.9588 116.202C52.9588 129.681 43.3749 140.661 31.6111 140.661ZM31.6111 97.5663C23.0374 97.5663 16.0721 105.927 16.0721 116.176C16.0721 126.424 23.0374 134.785 31.6111 134.785C40.1847 134.785 47.15 126.411 47.15 116.176C47.15 105.941 40.1582 97.5663 31.6111 97.5663Z" fill="url(#paint7_linear)"/>
<path d="M154.672 56.9305H160.374V62.633H154.672V56.9305ZM154.672 50.6165H160.374V44.9141H154.672V50.6165ZM154.672 67.8968H160.374V73.586H154.672V67.8968ZM154.672 79.5543H160.374V85.2435H154.672V79.5543ZM129.416 79.5543H135.105V85.2435H129.416V79.5543ZM142.11 79.5543H147.826V85.2435H142.124L142.11 79.5543Z" fill="url(#paint8_linear)"/>
<path d="M27.8334 62.633H22.1309V56.9305H27.8334V62.633ZM27.8334 44.9141H22.1309V50.6165H27.8334V44.9141ZM27.8334 73.5594H22.1309V67.8702H27.8334V73.5594ZM27.8334 85.2169H22.1309V79.5278H27.8334V85.2169ZM53.0891 85.2169H47.3866V79.5278H53.0891V85.2169ZM40.3815 85.2169H34.6923V79.5278H40.3815V85.2169Z" fill="url(#paint9_linear)"/>
<path d="M171.18 184.262H130.638C129.741 184.268 128.847 184.156 127.979 183.93L129.441 178.307C129.842 178.403 130.253 178.448 130.664 178.44H171.206C172.669 178.44 174.073 177.859 175.107 176.824C176.142 175.79 176.723 174.387 176.723 172.924V158.794C176.712 153.987 174.796 149.381 171.395 145.985C167.994 142.589 163.385 140.68 158.579 140.676H143.252C139.529 140.685 135.898 141.838 132.85 143.977C129.802 146.117 127.485 149.14 126.211 152.639L120.748 150.659C122.421 146.032 125.479 142.034 129.506 139.208C133.533 136.382 138.333 134.867 143.252 134.867H158.552C164.898 134.867 170.983 137.388 175.471 141.875C179.958 146.362 182.478 152.448 182.478 158.794V172.937C182.471 175.934 181.28 178.806 179.163 180.928C177.046 183.05 174.177 184.248 171.18 184.262Z" fill="url(#paint10_linear)"/>
<path d="M51.8807 184.262H11.3252C8.32143 184.255 5.44287 183.058 3.32013 180.933C1.19738 178.807 0.00350908 175.927 0 172.924V158.794C0 152.448 2.5208 146.362 7.0079 141.875C11.495 137.388 17.5808 134.867 23.9265 134.867H39.2262C44.1387 134.873 48.9309 136.387 52.9555 139.204C56.9801 142.021 60.043 146.005 61.7304 150.619L56.2672 152.599C54.9933 149.1 52.676 146.077 49.6284 143.937C46.5808 141.798 42.9498 140.646 39.2262 140.636H23.9664C19.153 140.64 14.538 142.554 11.1356 145.959C7.73331 149.364 5.82212 153.98 5.82213 158.794V172.937C5.82212 174.398 6.40145 175.799 7.4331 176.833C8.46476 177.867 9.86447 178.45 11.3252 178.453H51.8807C52.2835 178.46 52.6854 178.415 53.077 178.32L54.5392 183.943C53.6709 184.166 52.777 184.273 51.8807 184.262Z" fill="url(#paint11_linear)"/>
<path d="M117.703 200.001H64.7989C61.1147 199.994 57.5836 198.526 54.9798 195.92C52.3759 193.314 50.9117 189.781 50.9082 186.097V167.674C50.9152 159.624 54.1161 151.906 59.8082 146.214C65.5003 140.521 73.2185 137.321 81.2683 137.313H101.207C109.257 137.321 116.975 140.521 122.667 146.214C128.359 151.906 131.56 159.624 131.567 167.674V186.124C131.56 189.8 130.098 193.323 127.5 195.924C124.901 198.525 121.379 199.99 117.703 200.001ZM81.2683 143.109C74.7613 143.116 68.5228 145.703 63.9204 150.303C59.3181 154.903 56.7276 161.14 56.717 167.647V186.097C56.717 188.24 57.5685 190.296 59.0841 191.812C60.5998 193.327 62.6555 194.179 64.7989 194.179H117.703C119.847 194.179 121.902 193.327 123.418 191.812C124.933 190.296 125.785 188.24 125.785 186.097V167.674C125.778 161.177 123.198 154.948 118.609 150.349C114.02 145.75 107.797 143.157 101.3 143.136L81.2683 143.109Z" fill="url(#paint12_linear)"/>
<defs>
<linearGradient id="paint0_linear" x1="82690.2" y1="11277.5" x2="89963.9" y2="-4236.91" gradientUnits="userSpaceOnUse">
<stop stop-color="#1A58FF"/>
<stop offset="0.05" stop-color="#1963FF"/>
<stop offset="0.23" stop-color="#1685FF"/>
<stop offset="0.42" stop-color="#13A0FF"/>
<stop offset="0.6" stop-color="#11B3FF"/>
<stop offset="0.8" stop-color="#10BEFF"/>
<stop offset="1" stop-color="#10C2FF"/>
</linearGradient>
<linearGradient id="paint1_linear" x1="-19802.8" y1="-4148.65" x2="-19734.4" y2="-4449.19" gradientUnits="userSpaceOnUse">
<stop stop-color="#1A58FF"/>
<stop offset="0.05" stop-color="#1963FF"/>
<stop offset="0.23" stop-color="#1685FF"/>
<stop offset="0.42" stop-color="#13A0FF"/>
<stop offset="0.6" stop-color="#11B3FF"/>
<stop offset="0.8" stop-color="#10BEFF"/>
<stop offset="1" stop-color="#10C2FF"/>
</linearGradient>
<linearGradient id="paint2_linear" x1="-19105" y1="-4008.34" x2="-19036.5" y2="-4308.86" gradientUnits="userSpaceOnUse">
<stop stop-color="#1A58FF"/>
<stop offset="0.05" stop-color="#1963FF"/>
<stop offset="0.23" stop-color="#1685FF"/>
<stop offset="0.42" stop-color="#13A0FF"/>
<stop offset="0.6" stop-color="#11B3FF"/>
<stop offset="0.8" stop-color="#10BEFF"/>
<stop offset="1" stop-color="#10C2FF"/>
</linearGradient>
<linearGradient id="paint3_linear" x1="2093.86" y1="931.317" x2="464.363" y2="2255" gradientUnits="userSpaceOnUse">
<stop stop-color="#E3F24C"/>
<stop offset="0.2" stop-color="#CAED62"/>
<stop offset="1" stop-color="#64D8BC"/>
</linearGradient>
<linearGradient id="paint4_linear" x1="-483.315" y1="105.435" x2="-473.106" y2="91.9029" gradientUnits="userSpaceOnUse">
<stop stop-color="#1A58FF"/>
<stop offset="0.05" stop-color="#1963FF"/>
<stop offset="0.23" stop-color="#1685FF"/>
<stop offset="0.42" stop-color="#13A0FF"/>
<stop offset="0.6" stop-color="#11B3FF"/>
<stop offset="0.8" stop-color="#10BEFF"/>
<stop offset="1" stop-color="#10C2FF"/>
</linearGradient>
<linearGradient id="paint5_linear" x1="26833.3" y1="6823.37" x2="28548.3" y2="4847.83" gradientUnits="userSpaceOnUse">
<stop stop-color="#FF059D"/>
<stop offset="0.45" stop-color="#FF9841"/>
<stop offset="1" stop-color="#FFF904"/>
</linearGradient>
<linearGradient id="paint6_linear" x1="24343.8" y1="4120.01" x2="23131.9" y2="5091.49" gradientUnits="userSpaceOnUse">
<stop stop-color="#E3F24C"/>
<stop offset="0.2" stop-color="#CAED62"/>
<stop offset="1" stop-color="#64D8BC"/>
</linearGradient>
<linearGradient id="paint7_linear" x1="20391.3" y1="4120.01" x2="19179.5" y2="5091.49" gradientUnits="userSpaceOnUse">
<stop stop-color="#E3F24C"/>
<stop offset="0.2" stop-color="#CAED62"/>
<stop offset="1" stop-color="#64D8BC"/>
</linearGradient>
<linearGradient id="paint8_linear" x1="2077" y1="1049.12" x2="331.4" y2="2279.65" gradientUnits="userSpaceOnUse">
<stop stop-color="#E3F24C"/>
<stop offset="0.2" stop-color="#CAED62"/>
<stop offset="1" stop-color="#64D8BC"/>
</linearGradient>
<linearGradient id="paint9_linear" x1="-483.317" y1="105.435" x2="-473.108" y2="91.9031" gradientUnits="userSpaceOnUse">
<stop stop-color="#FF059D"/>
<stop offset="0.45" stop-color="#FF9841"/>
<stop offset="1" stop-color="#FFF904"/>
</linearGradient>
<linearGradient id="paint10_linear" x1="33501.5" y1="7430.54" x2="34788" y2="5300.6" gradientUnits="userSpaceOnUse">
<stop stop-color="#1A58FF"/>
<stop offset="0.05" stop-color="#1963FF"/>
<stop offset="0.23" stop-color="#1685FF"/>
<stop offset="0.42" stop-color="#13A0FF"/>
<stop offset="0.6" stop-color="#11B3FF"/>
<stop offset="0.8" stop-color="#10BEFF"/>
<stop offset="1" stop-color="#10C2FF"/>
</linearGradient>
<linearGradient id="paint11_linear" x1="27766.3" y1="7429.63" x2="29072.5" y2="5267.76" gradientUnits="userSpaceOnUse">
<stop stop-color="#1A58FF"/>
<stop offset="0.05" stop-color="#1963FF"/>
<stop offset="0.23" stop-color="#1685FF"/>
<stop offset="0.42" stop-color="#13A0FF"/>
<stop offset="0.6" stop-color="#11B3FF"/>
<stop offset="0.8" stop-color="#10BEFF"/>
<stop offset="1" stop-color="#10C2FF"/>
</linearGradient>
<linearGradient id="paint12_linear" x1="42997" y1="7395.9" x2="40123.9" y2="10790" gradientUnits="userSpaceOnUse">
<stop stop-color="#E3F24C"/>
<stop offset="0.2" stop-color="#CAED62"/>
<stop offset="1" stop-color="#64D8BC"/>
</linearGradient>
</defs>
</svg>
