<svg width="485" height="432" viewBox="0 0 485 432" fill="none" xmlns="http://www.w3.org/2000/svg">
<path d="M283.897 241.912L375.672 287.828C377.643 288.812 379.816 289.324 382.019 289.324C384.223 289.324 386.396 288.812 388.367 287.828L481.491 241.228C482.264 240.842 482.914 240.248 483.367 239.512C483.82 238.777 484.059 237.93 484.057 237.066V212.948L389.222 178.512C385.444 177.05 381.264 177.01 377.458 178.398L281.274 213.633V237.75C281.277 238.62 281.525 239.471 281.988 240.207C282.452 240.943 283.114 241.534 283.897 241.912Z" fill="url(#paint0_linear)"/>
<path d="M282.339 214.888L375.9 261.697C377.861 262.682 380.025 263.194 382.219 263.194C384.413 263.194 386.577 262.682 388.538 261.697L483.106 214.413C483.39 214.245 483.625 214.005 483.788 213.719C483.951 213.432 484.037 213.108 484.037 212.778C484.037 212.449 483.951 212.125 483.788 211.838C483.625 211.552 483.39 211.312 483.106 211.144L389.602 164.335C387.651 163.351 385.497 162.838 383.312 162.838C381.127 162.838 378.972 163.351 377.021 164.335L282.434 211.638C282.149 211.799 281.911 212.031 281.742 212.311C281.574 212.591 281.48 212.91 281.471 213.236C281.461 213.563 281.536 213.887 281.688 214.176C281.84 214.465 282.064 214.711 282.339 214.888Z" fill="url(#paint1_linear)"/>
<path d="M469.518 236.647L399.713 271.559C398.364 272.243 397.28 271.692 397.28 270.362C397.348 269.601 397.606 268.869 398.031 268.235C398.457 267.6 399.035 267.083 399.713 266.732L469.518 231.858C470.867 231.192 471.951 231.725 471.951 233.055C471.878 233.81 471.618 234.534 471.193 235.162C470.768 235.789 470.192 236.3 469.518 236.647Z" fill="url(#paint2_linear)"/>
<path d="M293.495 236.647L363.3 271.559C364.649 272.243 365.733 271.692 365.733 270.362C365.665 269.601 365.407 268.869 364.982 268.235C364.556 267.6 363.978 267.083 363.3 266.732L293.495 231.858C292.146 231.192 291.062 231.725 291.062 233.055C291.135 233.81 291.395 234.534 291.82 235.162C292.245 235.789 292.821 236.3 293.495 236.647Z" fill="url(#paint3_linear)"/>
<path d="M406.649 38.2178L383.577 49.7918L361.208 38.5979L384.28 27.0239L406.649 38.2178Z" fill="url(#paint4_linear)"/>
<path d="M383.576 49.794V206.907L361.207 195.714V38.6001L383.576 49.794Z" fill="url(#paint5_linear)"/>
<path d="M383.574 49.7952V206.909L406.646 195.335V38.2212L383.574 49.7952Z" fill="url(#paint6_linear)"/>
<path d="M443.024 98.6914L419.952 110.265L397.583 99.0715L420.655 87.4976L443.024 98.6914Z" fill="url(#paint7_linear)"/>
<path d="M419.952 110.265V225.644L397.583 214.469V99.0713L419.952 110.265Z" fill="url(#paint8_linear)"/>
<path d="M419.95 110.267V225.646L443.022 214.072V98.6929L419.95 110.267Z" fill="url(#paint9_linear)"/>
<path d="M367.861 117.904L344.789 129.478L322.42 118.303L345.492 106.729L367.861 117.904Z" fill="url(#paint10_linear)"/>
<path d="M344.788 129.477V226.326L322.419 215.132V118.302L344.788 129.477Z" fill="url(#paint11_linear)"/>
<path d="M344.786 129.477V226.326L367.858 214.752V117.903L344.786 129.477Z" fill="url(#paint12_linear)"/>
<path d="M404.236 159.905L381.164 171.479L358.776 160.285L381.867 148.73L404.236 159.905Z" fill="url(#paint13_linear)"/>
<path d="M381.164 171.48V245.066L358.776 233.892V160.286L381.164 171.48Z" fill="url(#paint14_linear)"/>
<path d="M381.164 171.481V245.068L404.236 233.494V159.907L381.164 171.481Z" fill="url(#paint15_linear)"/>
<g style="mix-blend-mode:color-dodge" opacity="0.5">
<g style="mix-blend-mode:color-dodge" opacity="0.5">
<path d="M81.7212 305.747C86.6055 303.162 77.141 307.058 156.867 265.038C161.399 262.962 166.325 261.888 171.31 261.888C176.295 261.888 181.222 262.962 185.754 265.038L358.565 356.262C365.426 359.816 366.034 362.115 365.54 371.466C365.065 380.322 363.013 382.869 357.938 385.586C278.992 427.188 286.974 423.425 277.624 424.66C262.553 426.561 275.001 430.229 85.5412 330.453C76.0197 325.455 77.6541 307.875 81.7212 305.747Z" fill="#54D2FF"/>
</g>
</g>
<path d="M417.5 335.874L158.919 224.562C147.022 218.613 127.58 218.613 115.702 224.562L7.60244 261.545C-4.27562 267.475 -1.40588 292.847 10.4722 298.795L267.152 427.154C280.076 433.616 301.247 433.616 314.17 427.154L417.5 375.48C426.413 370.653 426.147 364.818 426.394 356.779C426.66 348.018 429.036 341.955 417.5 335.874Z" fill="#EDEEEF"/>
<path d="M417.5 335.874L158.919 224.562C147.022 218.613 127.58 218.613 115.702 224.562L7.60244 261.545C-4.27562 267.475 -1.40588 292.847 10.4722 298.795L267.152 427.154C280.076 433.616 301.247 433.616 314.17 427.154L417.5 375.48C426.413 370.653 426.147 364.818 426.394 356.779C426.66 348.018 429.036 341.955 417.5 335.874Z" fill="url(#paint16_linear)"/>
<path d="M10.472 259.187L115.702 206.562C127.58 200.614 147.022 200.614 158.919 206.562L417.5 335.796C429.378 341.744 429.378 351.475 417.5 357.404L314.17 409.079C301.247 415.559 280.075 415.559 267.152 409.079L10.472 280.796C-1.40604 274.847 -1.40604 265.136 10.472 259.187Z" fill="url(#paint17_linear)"/>
<path d="M84.609 227.544C85.2398 227.347 85.9053 227.288 86.5608 227.37C87.2164 227.452 87.8468 227.673 88.41 228.019C89.1892 228.684 88.7521 229.52 87.4597 229.919C86.8285 230.113 86.1635 230.171 85.5083 230.089C84.8532 230.007 84.2228 229.787 83.6587 229.444C82.8605 228.779 83.2976 227.943 84.609 227.544Z" fill="#6387A2"/>
<path d="M84.609 227.542C83.2976 227.941 82.8605 228.778 83.6587 229.443C84.2195 229.794 84.8501 230.019 85.5067 230.101C86.1632 230.183 86.8298 230.12 87.4597 229.918C88.7711 229.538 89.2082 228.683 88.429 228.017C87.8629 227.671 87.2292 227.449 86.5704 227.367C85.9115 227.285 85.2428 227.345 84.609 227.542Z" fill="url(#paint18_linear)"/>
<path d="M61.7848 240.066L78.3761 231.856C78.9851 231.607 79.6676 231.607 80.2766 231.856H80.4477C80.9988 232.122 80.9988 232.56 80.4477 232.845L63.8564 241.131C63.5573 241.264 63.2335 241.333 62.9061 241.333C62.5787 241.333 62.255 241.264 61.9559 241.131H61.7848C61.2527 240.789 61.2527 240.352 61.7848 240.066Z" fill="url(#paint19_linear)"/>
<path opacity="0.7" d="M20.7148 267.285L126.895 214.166C132.633 211.541 138.888 210.242 145.197 210.365C151.506 210.234 157.763 211.534 163.499 214.166L415.484 340.073C419.59 342.126 420.217 344.882 420.217 346.326C420.217 347.77 419.59 350.526 415.484 352.598L314.074 403.303C306.846 406.437 299.052 408.054 291.173 408.054C283.295 408.054 275.501 406.437 268.273 403.303L20.7148 279.619C16.6667 277.585 16.0586 274.887 16.0586 273.442C16.0586 271.998 16.6667 269.299 20.7148 267.285Z" fill="url(#paint20_linear)"/>
<path d="M43.3285 311.681C41.8651 310.959 40.0976 307.177 39.9076 306.759C39.8832 306.28 39.9953 305.805 40.2308 305.388C40.4663 304.97 40.8156 304.629 41.2379 304.402C41.5816 304.289 41.9453 304.249 42.3054 304.285C42.6655 304.321 43.0141 304.432 43.3285 304.611L86.2415 326.068C87.2133 326.559 88.0463 327.286 88.6639 328.182C89.2816 329.079 89.6641 330.116 89.7764 331.199C89.9475 333.784 88.332 334.544 86.3175 333.556C81.8894 331.313 43.3285 311.681 43.3285 311.681Z" fill="url(#paint21_linear)"/>
<path d="M85.9766 326.655L43.1396 305.236C42.852 305.078 42.5354 304.979 42.2087 304.947C41.8821 304.914 41.5523 304.948 41.2391 305.046C40.8642 305.249 40.547 305.543 40.3176 305.902C40.0882 306.262 39.954 306.673 39.9277 307.098C39.9277 307.098 41.8282 311.032 43.1586 311.717L85.7485 333.496C87.383 334.066 89.5495 333.971 89.3025 331.387C89.178 330.386 88.8097 329.431 88.2297 328.606C87.6498 327.781 86.8761 327.111 85.9766 326.655Z" fill="url(#paint22_linear)"/>
<path d="M42.5699 305.862L64.2164 316.695L85.882 327.528C86.6574 327.977 87.3095 328.612 87.7803 329.374C88.2512 330.137 88.5261 331.004 88.5807 331.899C88.63 332.233 88.5813 332.575 88.4404 332.882C88.2995 333.19 88.0726 333.45 87.787 333.631C87.5014 333.812 87.1694 333.906 86.8313 333.902C86.4932 333.898 86.1635 333.797 85.882 333.609L64.2164 322.777L42.5699 311.944C41.7998 311.482 41.1546 310.839 40.6907 310.07C40.2269 309.302 39.9585 308.431 39.9092 307.535C39.8662 307.207 39.9182 306.873 40.059 306.574C40.1999 306.274 40.4236 306.022 40.7036 305.846C40.9837 305.67 41.3084 305.578 41.6391 305.581C41.9699 305.584 42.2929 305.681 42.5699 305.862Z" fill="url(#paint23_linear)"/>
<path d="M39.9091 307.517C39.8973 307.245 39.94 306.974 40.0347 306.72C40.1294 306.465 40.2741 306.232 40.4603 306.034C40.7646 305.794 41.1354 305.652 41.5227 305.628C41.91 305.604 42.2953 305.7 42.6268 305.901L63.6653 316.43L64.2544 316.715L85.901 327.548C86.0868 327.648 86.2646 327.763 86.4331 327.89C87.0352 328.336 87.5342 328.906 87.8965 329.562C88.3329 330.266 88.5755 331.072 88.5997 331.9C88.5997 333.287 87.7445 333.991 86.6992 333.8C86.4213 333.752 86.1522 333.663 85.901 333.534L64.8056 323.082L64.2164 322.778L43.121 312.23L42.5508 311.945C41.4822 311.322 40.6627 310.348 40.2322 309.189C40.0159 308.658 39.9061 308.09 39.9091 307.517Z" fill="url(#paint24_linear)"/>
<path d="M39.9091 307.501C39.8971 307.233 39.9417 306.967 40.04 306.718C40.1382 306.469 40.2879 306.243 40.4793 306.056C40.7856 305.819 41.1574 305.68 41.5447 305.66C41.932 305.639 42.3162 305.738 42.6458 305.942L63.6463 316.452L64.2354 316.756L85.863 327.551C86.0549 327.651 86.2392 327.765 86.4141 327.893C87.002 328.354 87.4984 328.922 87.8775 329.565C88.3001 330.274 88.5355 331.078 88.5617 331.903C88.5617 333.29 87.7064 333.994 86.6612 333.804C86.3916 333.756 86.1296 333.673 85.882 333.556L64.8055 323.085L64.1974 322.781L43.102 312.233L42.5508 311.948C41.4809 311.318 40.6617 310.338 40.2322 309.173C40.0149 308.643 39.9051 308.074 39.9091 307.501Z" fill="url(#paint25_linear)"/>
<path d="M39.9098 307.477C39.8833 307.148 39.9526 306.818 40.1091 306.528C40.2656 306.237 40.5028 305.998 40.792 305.84C41.0813 305.681 41.4102 305.609 41.7393 305.633C42.0683 305.657 42.3834 305.776 42.6465 305.975L63.5519 316.466L64.141 316.77L85.7306 327.565C85.9265 327.658 86.1114 327.773 86.2817 327.907C86.8783 328.351 87.3765 328.914 87.7451 329.56C88.1816 330.264 88.4242 331.07 88.4483 331.898C88.4483 333.285 87.5741 333.988 86.5478 333.798C86.2749 333.766 86.0105 333.682 85.7686 333.551L64.7872 323.08L64.1981 322.775L43.0836 312.228L42.5325 311.943C41.4686 311.311 40.6562 310.331 40.2329 309.168C40.0116 308.632 39.9017 308.056 39.9098 307.477Z" fill="url(#paint26_linear)"/>
<path d="M39.9093 307.459C39.9077 307.2 39.9591 306.943 40.0604 306.705C40.1618 306.466 40.3108 306.251 40.4984 306.072C40.8166 305.851 41.1945 305.733 41.5817 305.733C41.9689 305.733 42.3469 305.851 42.665 306.072L63.5704 316.544L64.1785 316.848L85.7491 327.623L86.3002 327.966C86.8969 328.417 87.3949 328.987 87.7636 329.638C88.1878 330.339 88.4235 331.138 88.4478 331.957C88.4478 333.344 87.5736 334.047 86.5473 333.857C86.2755 333.809 86.0127 333.719 85.7681 333.591L64.7867 323.081L64.1785 322.796L43.0831 312.229L42.532 311.944C41.4629 311.319 40.6486 310.336 40.2324 309.17C40.0007 308.63 39.8904 308.046 39.9093 307.459Z" fill="url(#paint27_linear)"/>
<path d="M39.9097 307.441C39.9111 307.184 39.9679 306.93 40.0761 306.697C40.1843 306.465 40.3415 306.258 40.5369 306.091C40.8531 305.875 41.2274 305.759 41.6106 305.759C41.9939 305.759 42.3682 305.875 42.6844 306.091L63.5898 316.544L64.179 316.848L85.7305 327.624C85.9288 327.712 86.1142 327.828 86.2816 327.966C86.8782 328.41 87.3764 328.973 87.745 329.619C88.1807 330.316 88.4234 331.116 88.4482 331.938C88.4482 333.325 87.555 334.009 86.5477 333.838C86.2761 333.8 86.0127 333.716 85.7685 333.591L64.7681 323.082L64.179 322.778L43.0645 312.23L42.5134 311.945C41.4574 311.3 40.6529 310.315 40.2328 309.151C40.0105 308.609 39.9006 308.027 39.9097 307.441Z" fill="url(#paint28_linear)"/>
<path d="M40.0225 307.423C40.0334 307.17 40.0945 306.923 40.2022 306.694C40.3099 306.466 40.462 306.261 40.6497 306.092C40.9727 305.894 41.3444 305.789 41.7235 305.789C42.1025 305.789 42.4742 305.894 42.7973 306.092L63.7026 316.545L64.2918 316.849L85.8053 327.606C85.9958 327.709 86.1798 327.823 86.3565 327.948C86.9591 328.391 87.4638 328.954 87.8389 329.601C88.2583 330.304 88.4937 331.102 88.523 331.92C88.523 333.307 87.6298 333.992 86.6225 333.82C86.3531 333.763 86.0915 333.674 85.8433 333.554L64.7479 323.083L64.1587 322.779L43.0633 312.231L42.5122 311.946C41.4471 311.308 40.645 310.31 40.2506 309.133C40.0352 308.59 39.9569 308.003 40.0225 307.423Z" fill="url(#paint29_linear)"/>
<path d="M40.042 307.403C40.0788 306.904 40.311 306.44 40.6881 306.111C41.0112 305.913 41.3829 305.808 41.7619 305.808C42.141 305.808 42.5127 305.913 42.8357 306.111L63.7411 316.564L64.3302 316.849L85.8438 327.605C86.0397 327.699 86.2245 327.813 86.3949 327.948C86.9906 328.385 87.4889 328.942 87.8583 329.582C88.2778 330.285 88.5131 331.082 88.5425 331.901C88.5425 333.288 87.6492 333.972 86.642 333.801C86.3702 333.753 86.1074 333.663 85.8628 333.535L64.7483 323.082L64.1402 322.797L43.0448 312.249L42.4936 311.964C41.4377 311.312 40.6441 310.31 40.251 309.133C40.0397 308.582 39.9679 307.988 40.042 307.403Z" fill="url(#paint30_linear)"/>
<path d="M40.0612 307.384C40.077 307.14 40.1445 306.902 40.2591 306.685C40.3738 306.469 40.5331 306.28 40.7264 306.13C41.0502 305.933 41.4215 305.83 41.8002 305.83C42.1788 305.83 42.5501 305.933 42.8739 306.13L63.7793 316.563L64.3685 316.848L85.844 327.605C86.0357 327.699 86.22 327.807 86.3951 327.928C86.9912 328.365 87.4895 328.922 87.8585 329.563C88.2918 330.261 88.5342 331.06 88.5617 331.881C88.5617 333.269 87.6495 333.953 86.6612 333.782C86.3979 333.724 86.1426 333.635 85.901 333.516L64.7296 323.082L64.1404 322.778L43.045 312.23L42.4938 311.945C41.4379 311.293 40.6443 310.291 40.2513 309.113C40.055 308.559 39.99 307.967 40.0612 307.384Z" fill="url(#paint31_linear)"/>
<path d="M40.1002 307.363C40.1147 307.119 40.1836 306.881 40.302 306.667C40.4204 306.454 40.5853 306.269 40.7844 306.127C41.2025 305.709 42.2098 305.823 42.913 306.127L63.8184 316.542L64.3885 316.827L85.864 327.565L86.4152 327.888C87.006 328.339 87.5032 328.9 87.8785 329.541C88.3004 330.237 88.536 331.029 88.5627 331.841C88.5627 333.228 87.6695 333.913 86.6622 333.742C86.3966 333.693 86.1401 333.603 85.902 333.476L64.8446 322.947L64.2555 322.662L43.16 312.095C43.16 312.095 42.6469 311.829 42.6089 311.81C41.5534 311.162 40.7647 310.157 40.3853 308.978C40.1642 308.47 40.0666 307.916 40.1002 307.363Z" fill="url(#paint32_linear)"/>
<path d="M40.119 307.347C40.1398 307.108 40.2138 306.876 40.3354 306.669C40.457 306.462 40.6233 306.285 40.8222 306.15C41.2213 305.751 42.2666 305.884 42.9507 306.15L63.7421 316.546L64.3313 316.831L85.7688 327.568C85.9665 327.65 86.152 327.759 86.3199 327.891C86.9202 328.324 87.4195 328.882 87.7833 329.526C88.2192 330.216 88.462 331.01 88.4865 331.825C88.4865 333.213 87.5742 333.878 86.586 333.726C86.3142 333.678 86.0514 333.588 85.8068 333.46L64.7684 322.95L64.1792 322.646L43.0648 312.098L42.5326 311.813C41.4804 311.153 40.6934 310.144 40.3091 308.963C40.1299 308.444 40.0651 307.893 40.119 307.347Z" fill="url(#paint33_linear)"/>
<path d="M40.1367 307.348C40.1598 307.109 40.2368 306.879 40.3619 306.675C40.487 306.471 40.657 306.298 40.8589 306.169C41.258 305.77 42.3223 305.922 42.9875 306.169L63.7598 316.565L64.3299 316.85L85.7485 327.569L86.3186 327.892C86.91 328.334 87.4074 328.89 87.782 329.526C88.2038 330.221 88.4394 331.013 88.4662 331.826C88.4662 333.213 87.5539 333.879 86.5657 333.727C86.304 333.663 86.0494 333.574 85.8055 333.46L64.615 322.951L64.0259 322.647L42.9304 312.099L42.3793 311.814C41.3323 311.157 40.5565 310.145 40.1937 308.963C40.0474 308.437 40.0279 307.883 40.1367 307.348Z" fill="url(#paint34_linear)"/>
<path d="M40.1758 307.326C40.2042 307.091 40.2836 306.866 40.4084 306.666C40.5331 306.466 40.7003 306.295 40.898 306.166C41.2971 305.786 42.3614 305.957 43.0266 306.28L63.7609 316.657L64.3501 316.942L85.7496 327.661C85.9413 327.754 86.1255 327.862 86.3007 327.984C86.9006 328.409 87.4001 328.961 87.7641 329.599C88.2 330.289 88.4428 331.083 88.4673 331.899C88.4673 333.286 87.536 333.951 86.5668 333.799C86.3011 333.751 86.0447 333.661 85.8066 333.533L64.6161 322.929L64.027 322.644L42.9125 312.096L42.3804 311.792C41.3274 311.133 40.5505 310.112 40.1948 308.922C40.059 308.399 40.0525 307.851 40.1758 307.326Z" fill="url(#paint35_linear)"/>
<path d="M40.195 307.306C40.2235 307.073 40.3073 306.849 40.4395 306.654C40.5717 306.459 40.7485 306.298 40.9552 306.185C41.3163 305.805 42.4185 305.995 43.0647 306.318L63.78 316.676L64.3502 316.98L85.7307 327.661C85.8637 327.661 86.1678 327.889 86.3008 327.984C86.8918 328.426 87.3892 328.982 87.7642 329.618C88.1853 330.307 88.421 331.092 88.4484 331.899C88.4484 333.305 87.5172 333.951 86.5479 333.799C86.2841 333.735 86.0289 333.639 85.7877 333.514L64.6163 322.928L64.0271 322.624L42.9317 312.077L42.3805 311.792C41.3357 311.119 40.567 310.094 40.214 308.903C40.0773 308.38 40.0708 307.832 40.195 307.306Z" fill="url(#paint36_linear)"/>
<path d="M40.2131 307.287C40.2493 307.058 40.3386 306.841 40.4739 306.653C40.6093 306.464 40.7868 306.311 40.9923 306.204C41.3534 305.823 42.4747 306.051 43.1019 306.356L63.7982 316.713L64.3683 316.998L85.7298 327.679C85.9216 327.772 86.1058 327.88 86.281 328.002C86.8761 328.433 87.3746 328.983 87.7444 329.618C88.1737 330.302 88.4101 331.09 88.4285 331.898C88.4285 333.304 87.4973 333.951 86.528 333.799C86.2709 333.741 86.0219 333.652 85.7869 333.533L64.6154 322.909L64.0263 322.624L42.9308 312.057L42.3987 311.772C41.3539 311.1 40.5851 310.074 40.2321 308.883C40.0947 308.361 40.0882 307.812 40.2131 307.287Z" fill="url(#paint37_linear)"/>
<path d="M40.2521 307.267C40.288 307.043 40.3776 306.831 40.5133 306.649C40.649 306.467 40.8267 306.32 41.0313 306.222C41.3924 305.861 42.5327 306.089 43.1408 306.393L63.7992 316.732L64.3693 317.017L85.7118 327.679C85.9019 327.775 86.086 327.883 86.2629 328.002C86.8642 328.431 87.3691 328.981 87.7453 329.617C88.1664 330.305 88.4021 331.091 88.4295 331.898C88.4295 333.304 87.4793 333.95 86.434 333.798C86.1791 333.725 85.9311 333.63 85.6928 333.513L64.6164 322.889L64.0272 322.604L42.9318 312.056L42.3806 311.752C41.3418 311.078 40.5798 310.053 40.2331 308.864C40.0971 308.339 40.1037 307.788 40.2521 307.267Z" fill="url(#paint38_linear)"/>
<path d="M40.2703 307.252C40.3124 307.029 40.4068 306.821 40.5456 306.642C40.6843 306.464 40.8636 306.321 41.0685 306.225C41.4296 305.883 42.5889 306.225 43.178 306.434L63.8173 316.754L64.3875 317.039L85.692 327.701C85.8899 327.794 86.0805 327.902 86.2621 328.024C86.8611 328.442 87.3607 328.987 87.7255 329.62C88.1531 330.306 88.3894 331.093 88.4097 331.901C88.4097 333.307 87.4784 333.934 86.5092 333.687C86.2444 333.626 85.9888 333.53 85.749 333.402L64.6155 322.893L64.0264 322.589L42.931 312.041L42.3988 311.756C41.3575 311.08 40.6001 310.045 40.2703 308.848C40.1182 308.327 40.1182 307.773 40.2703 307.252Z" fill="url(#paint39_linear)"/>
<path d="M40.2899 307.23C40.3395 307.013 40.4392 306.811 40.5811 306.639C40.723 306.467 40.9032 306.331 41.1071 306.242C41.4492 305.9 42.6465 306.242 43.2167 306.451L63.818 316.771L64.3881 317.056L85.6926 327.698L86.2437 328.022C86.8388 328.444 87.3375 328.988 87.7071 329.618C88.1398 330.302 88.3825 331.089 88.4103 331.899C88.4103 333.305 87.4601 333.932 86.4148 333.666C86.1515 333.609 85.8962 333.519 85.6546 333.4L64.6162 322.871L64.027 322.586L42.9126 312.038L42.3804 311.734C41.345 311.056 40.5944 310.021 40.2709 308.827C40.134 308.302 40.1406 307.751 40.2899 307.23Z" fill="url(#paint40_linear)"/>
<path d="M40.3274 307.211C40.3718 306.994 40.4723 306.792 40.619 306.625C40.7657 306.458 40.9534 306.333 41.1636 306.261C41.4867 305.919 42.703 306.261 43.2541 306.489L63.8364 316.79L64.4066 317.075L85.673 327.717C85.871 327.811 86.0616 327.919 86.2432 328.041C86.8378 328.464 87.3365 329.008 87.7066 329.637C88.1277 330.318 88.3635 331.098 88.3907 331.899C88.3907 333.305 87.4405 333.932 86.4902 333.666C86.2315 333.605 85.9822 333.509 85.749 333.381L64.6156 322.871L64.0265 322.567L42.931 312.019L42.3989 311.734C41.3609 311.042 40.6109 309.994 40.2893 308.789C40.1469 308.27 40.1601 307.722 40.3274 307.211Z" fill="url(#paint41_linear)"/>
<path d="M40.3458 307.193C40.3999 306.979 40.5064 306.782 40.6557 306.619C40.805 306.457 40.9924 306.334 41.201 306.262C41.5241 305.939 42.7404 306.262 43.2916 306.528L63.8549 316.809L64.406 317.095L85.6725 327.718L86.2236 328.041C86.8274 328.454 87.3281 329 87.687 329.638C88.1198 330.315 88.3627 331.096 88.3902 331.899C88.3902 333.306 87.421 333.933 86.3757 333.648C86.1211 333.582 85.873 333.493 85.6345 333.382L64.6151 322.853L64.0449 322.568L42.9305 312.001L42.3793 311.678C41.3422 310.989 40.5974 309.939 40.2888 308.732C40.1589 308.225 40.1787 307.69 40.3458 307.193Z" fill="url(#paint42_linear)"/>
<path d="M40.3656 307.172C40.4239 306.961 40.5346 306.769 40.6875 306.613C40.8404 306.456 41.0304 306.342 41.2398 306.279C41.5439 305.975 42.7982 306.279 43.3303 306.564L63.8556 316.827L64.4258 317.112L85.6542 327.735L86.2244 328.058C86.8186 328.474 87.3174 329.012 87.6878 329.636C88.1065 330.318 88.3421 331.097 88.3719 331.897C88.3719 333.304 87.4027 333.931 86.3574 333.646C86.1025 333.573 85.8545 333.477 85.6162 333.361L64.6158 322.832L64.0267 322.547L42.9312 311.999C42.7476 311.909 42.5699 311.808 42.3991 311.695C41.362 311.006 40.6172 309.956 40.3086 308.749C40.1797 308.229 40.1995 307.682 40.3656 307.172Z" fill="url(#paint43_linear)"/>
<path d="M40.4025 307.157C40.4615 306.951 40.5731 306.764 40.7264 306.614C40.8797 306.464 41.0693 306.356 41.2768 306.302C41.5808 305.998 42.8542 306.302 43.3673 306.606L63.8736 316.868L64.4247 317.135L85.6342 327.739L86.2043 328.062C86.7985 328.478 87.2973 329.016 87.6677 329.64C88.0947 330.319 88.331 331.1 88.3519 331.901C88.3519 333.308 87.3826 333.916 86.3564 333.631C86.1004 333.561 85.852 333.465 85.6152 333.346L64.6148 322.836L64.0256 322.532L42.9302 311.984L42.398 311.699C41.3777 310.992 40.6485 309.938 40.3455 308.734C40.197 308.216 40.217 307.663 40.4025 307.157Z" fill="url(#paint44_linear)"/>
<path d="M40.4224 307.135C40.4857 306.927 40.6037 306.739 40.7642 306.592C40.9246 306.445 41.1216 306.344 41.3346 306.299C41.6197 306.014 42.912 306.394 43.4061 306.641L63.8934 316.885L64.4446 317.151L85.635 327.755C85.635 327.755 86.0911 328.002 86.1862 328.078C86.7899 328.481 87.2963 329.014 87.6685 329.637C88.0873 330.319 88.3229 331.098 88.3527 331.898C88.3527 333.305 87.3645 333.913 86.3382 333.628C86.0822 333.558 85.8339 333.462 85.597 333.343L64.6156 322.814L64.0455 322.529L42.931 311.981C42.931 311.981 42.4749 311.734 42.4179 311.677C41.3873 310.98 40.6551 309.922 40.3654 308.712C40.2244 308.193 40.2442 307.643 40.4224 307.135Z" fill="url(#paint45_linear)"/>
<path d="M40.4407 307.116C40.5113 306.912 40.6348 306.731 40.7984 306.591C40.962 306.451 41.16 306.356 41.372 306.318C41.6571 306.033 42.9684 306.432 43.4435 306.66L63.8928 316.903L64.4629 317.188L85.6154 327.755C85.7104 327.755 86.0905 328.002 86.1855 328.078C86.7884 328.484 87.2893 329.024 87.6489 329.656C88.0778 330.327 88.3145 331.102 88.3331 331.898C88.3331 333.305 87.3638 333.913 86.3186 333.609C86.0636 333.535 85.8156 333.44 85.5774 333.324L64.615 322.814L64.0258 322.51L42.9304 311.962L42.3982 311.658C41.3775 310.955 40.6531 309.899 40.3647 308.693C40.2196 308.173 40.2462 307.62 40.4407 307.116Z" fill="url(#paint46_linear)"/>
<path d="M40.4784 307.099C40.5528 306.901 40.6781 306.727 40.8417 306.594C41.0052 306.46 41.2012 306.372 41.4096 306.339C41.6757 306.054 43.025 306.472 43.4811 306.7L63.9114 316.924L64.4626 317.21L85.52 327.776C85.7162 327.873 85.9066 327.98 86.0901 328.099C86.6969 328.493 87.1991 329.028 87.5535 329.658C87.9882 330.327 88.2314 331.103 88.2567 331.9C88.2567 333.307 87.2684 333.915 86.2232 333.592C85.9706 333.53 85.7276 333.434 85.501 333.307L64.6146 322.797L64.0444 322.512L42.93 311.945L42.4169 311.66C41.3935 310.951 40.6691 309.888 40.3834 308.676C40.2415 308.154 40.2749 307.6 40.4784 307.099Z" fill="url(#paint47_linear)"/>
<path d="M40.4986 307.078C40.5835 306.886 40.7147 306.718 40.8805 306.588C41.0463 306.459 41.2416 306.373 41.4489 306.337C41.7149 306.09 43.0833 306.527 43.5204 306.736L63.9127 316.942L64.4828 317.227L85.5212 327.794L86.0914 328.098C86.6851 328.507 87.1841 329.038 87.5547 329.656C87.981 330.328 88.2174 331.103 88.2389 331.899C88.2389 333.324 87.2507 333.913 86.2054 333.59C85.9585 333.512 85.7172 333.417 85.4832 333.305L64.6158 322.776L64.0267 322.491L42.9313 311.944L42.3991 311.64C41.3767 310.928 40.6633 309.855 40.4036 308.637C40.2526 308.122 40.2862 307.571 40.4986 307.078Z" fill="url(#paint48_linear)"/>
<path d="M40.5184 307.062C40.6102 306.871 40.749 306.706 40.9218 306.583C41.0947 306.46 41.2959 306.383 41.5066 306.359C41.7537 306.112 43.141 306.568 43.5591 306.777L63.9324 316.963L64.4835 317.248L85.5219 327.796C85.722 327.885 85.9129 327.993 86.0921 328.119C86.6938 328.511 87.195 329.038 87.5555 329.659C87.9876 330.329 88.2305 331.104 88.2586 331.901C88.2586 333.327 87.2514 333.897 86.2061 333.574C85.9604 333.492 85.7193 333.397 85.4839 333.289L64.6166 322.779L64.0464 322.475L42.932 311.927C42.7529 311.84 42.5813 311.738 42.4188 311.623C41.3937 310.915 40.6794 309.84 40.4233 308.62C40.2707 308.106 40.3043 307.554 40.5184 307.062Z" fill="url(#paint49_linear)"/>
<path d="M40.5553 307.039C40.6444 306.849 40.7834 306.687 40.9575 306.57C41.1315 306.452 41.3341 306.385 41.5436 306.374C41.7716 306.127 43.178 306.602 43.5961 306.811L63.9503 316.978L64.5015 317.263L85.5209 327.811L86.091 328.115C86.6843 328.517 87.1835 329.042 87.5544 329.655C87.9807 330.327 88.2171 331.102 88.2386 331.897C88.2386 333.323 87.2313 333.893 86.2051 333.57C85.9535 333.496 85.7112 333.394 85.4829 333.266L64.4445 322.756L63.8743 322.471L42.7789 311.923L42.2468 311.619C41.2602 310.883 40.5828 309.805 40.3463 308.597C40.229 308.069 40.3031 307.517 40.5553 307.039Z" fill="url(#paint50_linear)"/>
<path d="M40.5741 307.022C40.6735 306.838 40.8181 306.682 40.9943 306.569C41.1704 306.456 41.3725 306.39 41.5814 306.376C41.8094 306.148 43.2348 306.642 43.6149 306.851L63.9501 317.019L64.5013 317.285L85.5207 327.814L86.0908 328.137C86.6968 328.523 87.1991 329.051 87.5542 329.676C87.9807 330.341 88.2173 331.11 88.2384 331.9C88.2384 333.325 87.2311 333.895 86.2048 333.553C85.9579 333.475 85.7166 333.379 85.4827 333.268L64.4632 322.739L63.8741 322.454L42.7787 311.907C42.5973 311.824 42.4253 311.722 42.2655 311.603C41.2735 310.871 40.5946 309.792 40.365 308.581C40.2444 308.053 40.3186 307.5 40.5741 307.022Z" fill="url(#paint51_linear)"/>
<path d="M40.5925 307.002C40.6954 306.82 40.8444 306.668 41.0245 306.561C41.2045 306.455 41.4094 306.397 41.6187 306.394C41.8468 306.166 43.2911 306.698 43.6522 306.869L63.9685 317.037L64.6146 317.379L85.52 327.832L86.1092 328.136C86.7065 328.533 87.2066 329.059 87.5726 329.675C87.9906 330.344 88.2264 331.111 88.2567 331.899C88.2983 332.163 88.2694 332.433 88.1732 332.683C88.077 332.932 87.9167 333.151 87.7086 333.319C87.5005 333.487 87.2518 333.597 86.9877 333.638C86.7236 333.678 86.4533 333.649 86.2042 333.552C85.957 333.467 85.7157 333.366 85.482 333.248L64.4626 322.739L63.8925 322.453L42.778 311.887L42.2649 311.602C41.2744 310.861 40.5965 309.776 40.3644 308.561C40.2495 308.031 40.3305 307.477 40.5925 307.002Z" fill="url(#paint52_linear)"/>
<path d="M40.6309 306.982C40.7373 306.802 40.8907 306.653 41.0747 306.553C41.2588 306.452 41.4666 306.404 41.6761 306.412C41.8852 306.203 43.3486 306.735 43.6907 306.906L63.9689 317.055L64.6151 317.378L85.5204 327.831L86.0906 328.154C86.6874 328.543 87.1879 329.063 87.554 329.674C87.9804 330.339 88.217 331.108 88.2381 331.898C88.2381 333.323 87.2309 333.893 86.1856 333.532C85.9447 333.447 85.7097 333.345 85.4824 333.228L64.444 322.718L63.8739 322.433L42.7784 311.886C42.6834 311.886 42.3603 311.658 42.2653 311.582C41.2604 310.854 40.5787 309.763 40.3648 308.541C40.3039 308.276 40.2961 308.002 40.3418 307.735C40.3874 307.467 40.4857 307.212 40.6309 306.982Z" fill="url(#paint53_linear)"/>
<path d="M40.6503 306.965C40.7622 306.787 40.9199 306.641 41.1071 306.544C41.2943 306.448 41.5041 306.403 41.7146 306.414C41.9046 306.224 43.406 306.775 43.7291 306.946L63.9883 317.076L64.6155 317.38L85.5208 327.89C85.7168 327.98 85.9072 328.081 86.091 328.194C86.7314 328.606 87.2627 329.167 87.6399 329.829C88.0171 330.491 88.229 331.234 88.2575 331.995C88.2575 333.42 87.2313 333.99 86.186 333.61C85.9453 333.532 85.7103 333.437 85.4828 333.325L64.4634 322.816L63.8933 322.511L42.7788 311.869C42.6838 311.869 42.3607 311.641 42.2657 311.565C41.2641 310.825 40.5839 309.73 40.3652 308.505C40.2573 307.974 40.3594 307.422 40.6503 306.965Z" fill="url(#paint54_linear)"/>
<path d="M40.6691 306.945C40.7886 306.771 40.9517 306.633 41.1419 306.543C41.332 306.453 41.5426 306.414 41.7523 306.431C41.9424 306.241 43.4628 306.83 43.7669 306.983L64.0071 317.093L64.6152 317.378L85.5206 327.869L86.0908 328.192C86.6964 328.57 87.1991 329.093 87.5541 329.712C87.98 330.371 88.2167 331.133 88.2383 331.917C88.2782 332.179 88.2478 332.448 88.1502 332.695C88.0526 332.942 87.8912 333.158 87.6825 333.322C87.4739 333.487 87.2254 333.593 86.9625 333.629C86.6996 333.666 86.4315 333.633 86.1858 333.532C85.9385 333.447 85.6973 333.346 85.4636 333.228L64.4442 322.7L63.874 322.415L42.7786 311.867C42.6011 311.777 42.4297 311.675 42.2655 311.563C41.2612 310.818 40.581 309.716 40.365 308.484C40.2585 307.951 40.3678 307.397 40.6691 306.945Z" fill="url(#paint55_linear)"/>
<path d="M40.7083 306.927C40.8266 306.755 40.9907 306.619 41.1822 306.535C41.3736 306.451 41.5846 306.422 41.7915 306.452C41.9816 306.262 43.521 306.87 43.8061 307.022L64.0083 317.114L64.6164 317.38L85.5218 327.851L86.0919 328.156C86.6933 328.539 87.1948 329.06 87.5553 329.676C87.987 330.333 88.2302 331.095 88.2585 331.881C88.2585 333.306 87.2132 333.781 86.187 333.477C85.9415 333.403 85.7055 333.301 85.4838 333.173L64.4644 322.663L63.8942 322.378L42.7608 311.849L42.2477 311.545C41.2405 310.803 40.5594 309.7 40.3472 308.466C40.2593 307.926 40.3891 307.372 40.7083 306.927Z" fill="url(#paint56_linear)"/>
<path d="M40.7262 306.91C40.8557 306.741 41.0279 306.61 41.2249 306.53C41.422 306.449 41.6369 306.423 41.8475 306.454C42.0185 306.283 43.5769 306.91 43.843 307.062L64.0262 317.134L64.6153 317.381L85.5207 327.834C85.7231 327.93 85.9198 328.038 86.1099 328.157C86.7108 328.533 87.2127 329.048 87.5732 329.659C87.9991 330.317 88.2358 331.079 88.2574 331.863C88.3018 332.128 88.2735 332.4 88.1753 332.65C88.0772 332.9 87.913 333.119 87.7003 333.282C87.4876 333.446 87.2343 333.549 86.9676 333.581C86.7009 333.612 86.4307 333.57 86.1859 333.46L85.4827 333.155L64.4253 322.684L63.8551 322.399L42.7597 311.832C42.5784 311.749 42.4063 311.647 42.2466 311.528C41.2333 310.791 40.5507 309.685 40.3461 308.449C40.2949 308.18 40.3023 307.904 40.3679 307.638C40.4335 307.372 40.5557 307.124 40.7262 306.91Z" fill="url(#paint57_linear)"/>
<path d="M40.7462 306.888C40.8817 306.722 41.0589 306.597 41.2594 306.523C41.4599 306.45 41.6764 306.431 41.8865 306.469C42.0386 306.317 43.616 306.945 43.882 307.078L64.0462 317.169L64.6164 317.378L85.5218 327.831L86.0919 328.135C86.6928 328.511 87.1947 329.026 87.5553 329.636C87.9787 330.289 88.2153 331.045 88.2395 331.822C88.2395 333.266 87.1942 333.817 86.1679 333.418C85.9283 333.33 85.6935 333.228 85.4647 333.114L64.4453 322.605L63.8752 322.32L42.7797 311.772L42.2666 311.468C41.2568 310.719 40.5757 309.609 40.3661 308.37C40.3233 308.11 40.3349 307.844 40.4004 307.589C40.4658 307.334 40.5836 307.095 40.7462 306.888Z" fill="url(#paint58_linear)"/>
<path d="M40.7831 306.869C40.9203 306.708 41.0991 306.587 41.3001 306.52C41.5012 306.453 41.7167 306.442 41.9234 306.489C42.0754 306.337 43.6718 307.002 43.9189 307.116L64.0451 317.189L64.6152 317.379L85.5206 327.813C85.5206 327.813 86.0527 328.079 86.1098 328.136C86.7099 328.505 87.2119 329.013 87.5731 329.618C87.9966 330.271 88.2332 331.026 88.2573 331.804C88.2972 332.069 88.265 332.341 88.1641 332.59C88.0632 332.839 87.8973 333.057 87.6837 333.22C87.4702 333.383 87.2168 333.486 86.9499 333.517C86.6831 333.549 86.4126 333.509 86.1668 333.4L85.4636 333.077L64.5582 322.567L63.9881 322.301L42.8736 311.735C42.6983 311.652 42.5326 311.55 42.3795 311.43C41.3636 310.688 40.6809 309.575 40.479 308.333C40.4282 308.081 40.4289 307.821 40.4812 307.57C40.5334 307.318 40.6361 307.08 40.7831 306.869Z" fill="url(#paint59_linear)"/>
<path d="M40.8007 306.851C40.9442 306.693 41.1274 306.576 41.3312 306.512C41.535 306.449 41.7521 306.441 41.96 306.489C42.6548 306.61 43.3275 306.834 43.9555 307.155L64.0627 317.208L64.5948 317.474L85.5002 327.908L86.0704 328.212C86.6752 328.583 87.1781 329.099 87.5338 329.713C87.9565 330.359 88.1932 331.109 88.2179 331.88C88.2179 333.324 87.1727 333.781 86.1464 333.457C85.9054 333.372 85.6705 333.27 85.4432 333.153L64.4238 322.644L63.8536 322.359L42.7582 311.811C42.5804 311.714 42.409 311.606 42.2451 311.488C41.7385 311.119 41.3097 310.654 40.9836 310.119C40.6574 309.584 40.4402 308.99 40.3446 308.371C40.3065 308.1 40.3276 307.823 40.4063 307.561C40.4851 307.298 40.6196 307.056 40.8007 306.851Z" fill="url(#paint60_linear)"/>
<path d="M40.8201 306.835C40.9735 306.68 41.165 306.569 41.3753 306.512C41.5856 306.455 41.8071 306.455 42.0174 306.511C42.6799 306.649 43.3196 306.88 43.9179 307.196L63.9871 317.23L64.5192 317.496L85.4246 327.911L85.9948 328.215C86.6055 328.585 87.1149 329.101 87.4771 329.716C87.8999 330.362 88.1366 331.112 88.1613 331.883C88.1613 333.346 87.097 333.784 86.0708 333.441C85.8298 333.356 85.5949 333.254 85.3676 333.137L64.3482 322.628L63.797 322.343L42.6826 311.795C42.5097 311.707 42.3444 311.606 42.1885 311.491C41.6813 311.119 41.2523 310.65 40.9263 310.112C40.6002 309.574 40.3833 308.977 40.288 308.355C40.2599 308.078 40.2931 307.798 40.385 307.536C40.477 307.273 40.6255 307.034 40.8201 306.835Z" fill="url(#paint61_linear)"/>
<path d="M40.8584 306.814C41.0146 306.664 41.2079 306.559 41.4184 306.509C41.6288 306.459 41.8489 306.465 42.0557 306.529C42.7196 306.671 43.3597 306.908 43.9562 307.232L64.0064 317.247L64.5385 317.514L85.4439 327.928L86.0331 328.232C86.6332 328.601 87.1352 329.11 87.4964 329.715C87.9166 330.362 88.1531 331.11 88.1806 331.881C88.1806 333.345 87.1163 333.782 86.0901 333.44L85.3869 333.117L64.3865 322.626L63.8164 322.341L42.7209 311.774C42.5396 311.691 42.3676 311.589 42.2078 311.47C41.6998 311.099 41.2704 310.63 40.9442 310.092C40.618 309.554 40.4016 308.956 40.3073 308.334C40.2716 308.055 40.3029 307.772 40.3988 307.507C40.4946 307.243 40.6522 307.005 40.8584 306.814Z" fill="url(#paint62_linear)"/>
<path d="M40.8793 306.795C41.0432 306.651 41.2406 306.552 41.4533 306.505C41.6659 306.459 41.8868 306.467 42.0956 306.529C42.7538 306.707 43.391 306.955 43.9961 307.27L64.0272 317.266L64.5403 317.532L85.4457 327.928L86.0159 328.232C86.618 328.605 87.1254 329.112 87.4983 329.715C87.9101 330.365 88.1458 331.112 88.1824 331.881C88.1824 333.344 87.0992 333.782 86.0729 333.42C86.0729 333.42 85.4457 333.135 85.3887 333.116L64.3693 322.607L63.8182 322.322L42.7037 311.774C42.5323 311.684 42.3673 311.582 42.2096 311.47C41.2182 310.695 40.57 309.562 40.4041 308.315C40.3573 308.042 40.3759 307.762 40.4585 307.498C40.5411 307.233 40.6853 306.992 40.8793 306.795Z" fill="url(#paint63_linear)"/>
<path d="M40.8963 306.776C41.0658 306.636 41.2682 306.541 41.4844 306.501C41.7006 306.462 41.9233 306.477 42.1316 306.548C42.7885 306.73 43.4252 306.978 44.0321 307.289L64.1013 317.38L64.6334 317.646L85.4058 328.042L85.9949 328.346C86.5987 328.702 87.1022 329.206 87.4583 329.81C87.8784 330.456 88.1149 331.205 88.1425 331.976C88.1861 332.243 88.1549 332.517 88.0522 332.767C87.9495 333.018 87.7794 333.235 87.5609 333.394C87.3423 333.554 87.0838 333.65 86.8141 333.671C86.5443 333.692 86.2739 333.639 86.0329 333.516L85.3488 333.192L64.4434 322.683L63.8732 322.417L42.6828 311.679C42.5014 311.596 42.3294 311.494 42.1696 311.375C41.6776 310.994 41.2662 310.518 40.9596 309.977C40.6529 309.435 40.4569 308.838 40.3832 308.22C40.3548 307.956 40.3862 307.689 40.475 307.439C40.5639 307.189 40.7078 306.962 40.8963 306.776Z" fill="url(#paint64_linear)"/>
<path d="M40.9357 306.756C41.1116 306.621 41.319 306.532 41.5384 306.499C41.7577 306.466 41.982 306.489 42.19 306.566C42.8455 306.76 43.4817 307.015 44.0905 307.326L64.1217 317.38L64.6538 317.627L85.4072 328.003L85.9773 328.308C86.5774 328.677 87.0795 329.185 87.4407 329.79C87.8628 330.429 88.0996 331.172 88.1249 331.937C88.1718 332.205 88.1425 332.48 88.0402 332.731C87.938 332.983 87.767 333.2 87.5468 333.359C87.3266 333.518 87.0661 333.611 86.7953 333.629C86.5244 333.646 86.2541 333.587 86.0153 333.458L85.3312 333.135L64.4258 322.644L63.8556 322.359L42.6652 311.678C42.4894 311.589 42.3237 311.48 42.171 311.355C41.679 310.974 41.2676 310.499 40.9609 309.957C40.6542 309.416 40.4583 308.818 40.3846 308.2C40.3596 307.933 40.3963 307.664 40.4918 307.414C40.5874 307.164 40.7393 306.938 40.9357 306.756Z" fill="url(#paint65_linear)"/>
<path d="M40.9547 306.739C41.136 306.607 41.3474 306.522 41.5697 306.492C41.792 306.462 42.0183 306.488 42.228 306.568C42.8795 306.789 43.5145 307.056 44.1285 307.366L64.1216 317.382L64.6538 317.629L85.3881 328.005L85.9773 328.309C86.581 328.665 87.0845 329.169 87.4406 329.773C87.861 330.412 88.0976 331.155 88.1248 331.92C88.1643 332.186 88.13 332.457 88.0256 332.705C87.9213 332.952 87.7508 333.166 87.533 333.323C87.3152 333.48 87.0584 333.574 86.7907 333.595C86.523 333.615 86.2547 333.562 86.0153 333.441L85.3311 333.118L64.3117 322.608L63.7606 322.323L42.6461 311.68L42.152 311.376C41.1629 310.588 40.5272 309.44 40.3845 308.183C40.3557 307.914 40.3925 307.642 40.4918 307.391C40.5911 307.139 40.7499 306.915 40.9547 306.739Z" fill="url(#paint66_linear)"/>
<path d="M40.9732 306.719C41.1614 306.593 41.3776 306.515 41.6029 306.492C41.8281 306.468 42.0557 306.501 42.2656 306.586C42.9185 306.81 43.5538 307.084 44.1661 307.403L64.1402 317.381L64.6723 317.647L85.3687 328.004L85.9578 328.289C86.5615 328.646 87.065 329.149 87.4212 329.753C87.8415 330.392 88.0782 331.135 88.1054 331.9C88.1481 332.166 88.1156 332.439 88.0116 332.687C87.9075 332.935 87.7362 333.15 87.5168 333.306C87.2974 333.462 87.0387 333.554 86.7699 333.571C86.5012 333.588 86.2331 333.529 85.9958 333.402L85.3116 333.079L64.4063 322.569L63.8361 322.303L42.6457 311.679C42.4664 311.604 42.2997 311.501 42.1515 311.375C41.1625 310.587 40.5268 309.439 40.3841 308.182C40.3592 307.909 40.3996 307.634 40.5021 307.379C40.6045 307.125 40.766 306.899 40.9732 306.719Z" fill="url(#paint67_linear)"/>
<path d="M41.0111 306.698C41.2088 306.588 41.4312 306.531 41.6573 306.531C41.8834 306.531 42.1058 306.588 42.3035 306.698C42.9536 306.938 43.5883 307.217 44.204 307.534L64.1591 317.379L64.6722 317.645L85.3686 327.984L85.9387 328.288C86.5437 328.641 87.0527 329.137 87.4211 329.732C87.8414 330.372 88.0781 331.115 88.1053 331.88C88.1463 332.147 88.1117 332.42 88.0052 332.668C87.8988 332.917 87.7248 333.13 87.5031 333.284C87.2814 333.439 87.0209 333.528 86.751 333.542C86.4812 333.555 86.2129 333.493 85.9767 333.362L85.2925 333.058L64.2921 322.548L63.741 322.263L42.6266 311.678C42.4508 311.588 42.2851 311.48 42.1324 311.354C41.6434 310.967 41.238 310.484 40.9407 309.935C40.6435 309.386 40.4606 308.783 40.403 308.162C40.3701 307.886 40.4088 307.607 40.5153 307.35C40.6218 307.094 40.7926 306.869 41.0111 306.698Z" fill="url(#paint68_linear)"/>
<path d="M41.0304 306.68C41.2363 306.575 41.4643 306.521 41.6955 306.521C41.9268 306.521 42.1547 306.575 42.3607 306.68C43.0082 306.94 43.6425 307.232 44.2612 307.555L64.1593 317.38L64.6915 317.646L85.3498 327.985L85.9389 328.27C86.5379 328.624 87.0405 329.12 87.4023 329.714C87.8227 330.354 88.0593 331.097 88.0865 331.862C88.1275 332.129 88.0929 332.402 87.9865 332.65C87.88 332.899 87.706 333.112 87.4843 333.267C87.2626 333.421 87.0021 333.51 86.7323 333.524C86.4624 333.538 86.1942 333.475 85.9579 333.344L85.2928 333.021L64.2924 322.511L63.7222 322.245L42.6268 311.679C42.4515 311.596 42.2858 311.494 42.1327 311.375C41.6446 310.982 41.2402 310.495 40.9432 309.944C40.6462 309.392 40.4626 308.786 40.4032 308.163C40.3728 307.883 40.4145 307.6 40.5242 307.34C40.634 307.081 40.8082 306.854 41.0304 306.68Z" fill="url(#paint69_linear)"/>
<path d="M41.0493 306.664C41.2577 306.556 41.4891 306.499 41.7239 306.499C41.9588 306.499 42.1902 306.556 42.3986 306.664C42.3986 306.664 44.2991 307.519 44.2991 307.538L64.1782 317.383L64.6913 317.649L85.3307 327.968L85.9198 328.272C86.5449 328.646 87.0691 329.167 87.4467 329.79C87.8243 330.413 88.0439 331.118 88.0864 331.845C88.1259 332.114 88.0891 332.387 87.9802 332.636C87.8713 332.884 87.6948 333.097 87.4707 333.249C87.2467 333.402 86.9842 333.489 86.7133 333.499C86.4424 333.51 86.174 333.444 85.9388 333.309L85.2736 332.986L64.3683 322.495L63.8171 322.21L42.6077 311.681C42.4345 311.587 42.2692 311.479 42.1135 311.358C41.6274 310.965 41.2254 310.478 40.9316 309.926C40.6377 309.374 40.458 308.769 40.4031 308.146C40.369 307.864 40.411 307.578 40.5246 307.317C40.6382 307.057 40.8193 306.831 41.0493 306.664Z" fill="url(#paint70_linear)"/>
<path d="M41.0877 306.64C41.2961 306.532 41.5275 306.476 41.7623 306.476C41.9972 306.476 42.2286 306.532 42.437 306.64C42.437 306.64 44.3375 307.515 44.3375 307.534L64.1976 317.378L64.7107 317.644L85.331 328.021L85.9202 328.306C86.5395 328.684 87.0583 329.207 87.4322 329.829C87.8061 330.451 88.0242 331.154 88.0677 331.879C88.1124 332.146 88.0798 332.421 87.9739 332.671C87.8679 332.92 87.6929 333.135 87.4694 333.288C87.2459 333.442 86.9832 333.529 86.7122 333.538C86.4411 333.548 86.173 333.48 85.9392 333.342L85.255 333.019L64.3496 322.509L63.7985 322.224L42.589 311.677C42.4152 311.594 42.255 311.485 42.1139 311.354C41.6262 310.962 41.223 310.475 40.929 309.923C40.635 309.371 40.4562 308.765 40.4035 308.142C40.3678 307.853 40.4129 307.56 40.5336 307.295C40.6544 307.03 40.8461 306.803 41.0877 306.64Z" fill="url(#paint71_linear)"/>
<path d="M41.1066 306.623C41.3183 306.515 41.5528 306.458 41.7907 306.458C42.0286 306.458 42.2631 306.515 42.4749 306.623C42.4749 306.623 44.3754 307.535 44.3754 307.554L64.1595 317.456L64.6726 317.703L85.2739 328.003L85.8631 328.308C86.4718 328.64 86.9779 329.133 87.3265 329.733C87.7546 330.362 87.9922 331.101 88.0106 331.861C88.051 332.127 88.0152 332.4 87.9075 332.646C87.7997 332.893 87.6244 333.104 87.4017 333.255C87.1791 333.406 86.9182 333.491 86.6493 333.5C86.3804 333.509 86.1144 333.442 85.8821 333.306L85.2169 332.983L64.3115 322.473L63.7604 322.207L42.5889 311.678C42.4136 311.595 42.2479 311.493 42.0948 311.374C41.607 310.977 41.2067 310.483 40.9189 309.924C40.631 309.365 40.462 308.752 40.4224 308.124C40.3845 307.835 40.4285 307.541 40.5495 307.276C40.6704 307.01 40.8634 306.784 41.1066 306.623Z" fill="url(#paint72_linear)"/>
<path d="M41.1255 306.606C41.341 306.499 41.5785 306.443 41.8192 306.443C42.0599 306.443 42.2973 306.499 42.5128 306.606L44.4133 307.557L64.1784 317.439L64.6915 317.686L85.2738 327.987L85.863 328.272C86.4842 328.644 87.0048 329.162 87.3792 329.781C87.7536 330.401 87.9704 331.103 88.0106 331.826C88.0538 332.095 88.0191 332.37 87.9107 332.62C87.8023 332.869 87.6246 333.083 87.3987 333.235C87.1729 333.387 86.9082 333.471 86.636 333.477C86.3639 333.483 86.0956 333.412 85.863 333.27L85.1978 332.928L64.2354 322.494L63.6843 322.209L42.5698 311.681C42.4029 311.586 42.244 311.478 42.0947 311.358C41.6069 310.96 41.2066 310.467 40.9188 309.907C40.631 309.348 40.4619 308.735 40.4223 308.108C40.384 307.816 40.4299 307.52 40.5545 307.254C40.6791 306.988 40.8772 306.763 41.1255 306.606Z" fill="url(#paint73_linear)"/>
<path d="M42.57 306.678L64.2166 317.511L85.8821 328.344C86.4909 328.677 86.9969 329.17 87.3455 329.769C87.7646 330.396 88.0015 331.126 88.0297 331.879C88.0771 332.148 88.0449 332.426 87.937 332.677C87.8291 332.929 87.6502 333.143 87.4223 333.294C87.1944 333.446 86.9273 333.527 86.6537 333.529C86.3802 333.531 86.112 333.453 85.8821 333.304L64.2166 322.472L42.57 311.677C41.9496 311.3 41.43 310.777 41.0559 310.155C40.6818 309.533 40.4645 308.829 40.4224 308.104C40.3751 307.835 40.408 307.558 40.5171 307.308C40.6262 307.058 40.8067 306.846 41.0359 306.698C41.2651 306.55 41.5329 306.472 41.8058 306.476C42.0787 306.479 42.3445 306.563 42.57 306.716V306.678Z" fill="url(#paint74_linear)"/>
<path fill-rule="evenodd" clip-rule="evenodd" d="M147.61 331.081L150.518 328.364L153.065 329.637L147.61 331.081Z" fill="#4A83FF"/>
<path fill-rule="evenodd" clip-rule="evenodd" d="M148.751 224.161L154.205 225.624L151.659 226.897L148.751 224.161Z" fill="#4A83FF"/>
<path d="M261.108 280.7C261.174 280.7 261.239 280.683 261.296 280.65C261.353 280.616 261.399 280.568 261.431 280.509C261.471 280.421 261.476 280.32 261.444 280.228C261.412 280.136 261.346 280.06 261.26 280.015L153.103 225.927C153.014 225.887 152.914 225.883 152.822 225.914C152.73 225.946 152.654 226.012 152.609 226.098C152.587 226.14 152.573 226.187 152.57 226.234C152.567 226.281 152.573 226.329 152.59 226.374C152.606 226.418 152.631 226.459 152.664 226.494C152.696 226.528 152.736 226.555 152.78 226.574L260.937 280.661C260.988 280.692 261.048 280.705 261.108 280.7Z" fill="white"/>
<path d="M56.5205 277.584L150.747 230.452L244.669 277.47L150.443 324.602L56.5205 277.584ZM150.747 230.832L57.2617 277.584L150.386 324.184L243.928 277.47L150.747 230.832Z" fill="white"/>
<path d="M140.406 319.455L234.271 272.513L234.119 272.228L140.254 319.17L140.406 319.455Z" fill="white"/>
<path d="M129.936 314.224L223.801 267.282L223.649 266.978L129.784 313.92L129.936 314.224Z" fill="white"/>
<path d="M119.444 308.979L213.309 262.037L213.157 261.732L119.292 308.674L119.444 308.979Z" fill="white"/>
<path d="M108.973 303.734L202.839 256.791L202.686 256.506L108.821 303.448L108.973 303.734Z" fill="white"/>
<path d="M98.5007 298.509L192.366 251.567L192.214 251.263L98.3486 298.205L98.5007 298.509Z" fill="white"/>
<path d="M88.03 293.264L181.876 246.322L181.743 246.018L87.8779 292.96L88.03 293.264Z" fill="white"/>
<path d="M77.5378 288.019L171.403 241.077L171.251 240.772L77.3857 287.734L77.5378 288.019Z" fill="white"/>
<path d="M67.0681 282.774L160.933 235.85L160.781 235.546L66.916 282.488L67.0681 282.774Z" fill="white"/>
<path d="M230.814 284.275L230.966 283.971L137.424 237.2L137.271 237.485L230.814 284.275Z" fill="white"/>
<path d="M217.416 290.982L217.568 290.678L124.007 243.907L123.854 244.192L217.416 290.982Z" fill="white"/>
<path d="M203.997 297.695L204.149 297.391L110.607 250.62L110.455 250.905L203.997 297.695Z" fill="white"/>
<path d="M190.581 304.401L190.733 304.097L97.1911 257.326L97.0391 257.611L190.581 304.401Z" fill="white"/>
<path d="M177.162 311.11L177.314 310.806L83.7722 264.035L83.6201 264.32L177.162 311.11Z" fill="white"/>
<path d="M163.764 317.82L163.916 317.516L70.3552 270.726L70.2031 271.03L163.764 317.82Z" fill="white"/>
<path d="M150.5 330.001H150.671L261.166 274.734C261.247 274.69 261.31 274.617 261.341 274.529C261.373 274.442 261.371 274.346 261.337 274.259C261.289 274.176 261.212 274.113 261.121 274.082C261.031 274.05 260.932 274.052 260.842 274.088L150.348 329.316C150.303 329.337 150.264 329.366 150.231 329.402C150.198 329.438 150.173 329.481 150.157 329.527C150.141 329.573 150.134 329.622 150.138 329.671C150.141 329.72 150.155 329.767 150.177 329.811C150.211 329.866 150.258 329.913 150.315 329.946C150.371 329.979 150.435 329.998 150.5 330.001Z" fill="white"/>
<path fill-rule="evenodd" clip-rule="evenodd" d="M244.309 277.414L230.891 284.122L180.452 258.903L196.644 253.601L244.309 277.414Z" fill="#FE1D67"/>
<path fill-rule="evenodd" clip-rule="evenodd" d="M230.891 284.119L217.492 290.828L178.114 271.139L180.452 258.899L230.891 284.119Z" fill="url(#paint75_linear)"/>
<path fill-rule="evenodd" clip-rule="evenodd" d="M217.473 290.831L204.075 297.54L163.195 277.11L178.095 271.142L217.473 290.831Z" fill="#9D20C8"/>
<path style="mix-blend-mode:screen" fill-rule="evenodd" clip-rule="evenodd" d="M148.847 282.845L163.196 277.106L204.075 297.536L190.677 304.245L148.049 282.921L148.847 282.845Z" fill="url(#paint76_linear)"/>
<path fill-rule="evenodd" clip-rule="evenodd" d="M148.01 282.922L190.657 304.246L177.239 310.955L126.002 285.317L148.01 282.922Z" fill="url(#paint77_linear)"/>
<path fill-rule="evenodd" clip-rule="evenodd" d="M126.002 285.319L177.239 310.956L163.841 317.665L103.976 287.713L126.002 285.319Z" fill="#FE6320"/>
<path style="mix-blend-mode:screen" fill-rule="evenodd" clip-rule="evenodd" d="M103.975 287.712L163.841 317.664L150.442 324.373L81.9678 290.126L103.975 287.712Z" fill="url(#paint78_linear)"/>
<path d="M74.4978 281.937C74.4028 281.671 74.7069 281.424 75.201 281.386L133.641 275.02L162.452 263.503L164.79 251.244L178.265 246.816C178.478 246.749 178.702 246.726 178.924 246.749C179.147 246.772 179.362 246.84 179.557 246.949C179.823 247.177 179.709 247.462 179.291 247.595L166.539 251.777L164.22 263.978L134.629 275.818L75.6001 282.279C75.106 282.336 74.6118 282.184 74.4978 281.937Z" fill="white"/>
<path fill-rule="evenodd" clip-rule="evenodd" d="M69.0625 282.471L79.9903 279.487L81.4537 283.041L69.0625 282.471Z" fill="white"/>
<path d="M362.158 322.664L391.73 337.449L380.099 343.284L350.128 328.289C353.929 326.655 357.616 324.963 361.227 323.177L362.158 322.664Z" fill="url(#paint79_linear)"/>
<path d="M374.054 346.306L362.404 352.121L330.096 335.986C334.638 334.447 339.123 332.793 343.513 331.045L374.054 346.306Z" fill="url(#paint80_linear)"/>
<path d="M356.361 355.144L344.73 360.96L307.88 342.544C312.948 341.277 317.914 339.877 322.78 338.344L356.361 355.144Z" fill="url(#paint81_linear)"/>
<path d="M338.686 363.982L327.036 369.816L283.173 347.79C288.722 346.827 294.265 345.712 299.802 344.445L338.686 363.982Z" fill="url(#paint82_linear)"/>
<path d="M321.013 372.819L309.363 378.654L255.047 351.591C261.299 351.04 267.609 350.317 274.052 349.386L321.013 372.819Z" fill="url(#paint83_linear)"/>
<path d="M244.441 352.218L303.357 381.676L291.707 387.491L221.807 352.541C229.086 352.75 236.668 352.617 244.441 352.218Z" fill="url(#paint84_linear)"/>
<path d="M285.074 391.235H285.245L398.609 334.486C398.654 334.464 398.694 334.433 398.727 334.395C398.76 334.357 398.785 334.313 398.801 334.265C398.817 334.217 398.823 334.167 398.82 334.117C398.816 334.067 398.803 334.018 398.78 333.973C398.758 333.928 398.727 333.888 398.689 333.855C398.651 333.822 398.607 333.797 398.559 333.781C398.511 333.765 398.461 333.759 398.411 333.763C398.361 333.766 398.312 333.78 398.267 333.802L284.808 390.551C284.763 390.571 284.724 390.6 284.691 390.636C284.658 390.672 284.633 390.715 284.617 390.761C284.601 390.807 284.594 390.856 284.598 390.905C284.601 390.954 284.614 391.001 284.637 391.045C284.68 391.119 284.745 391.178 284.824 391.212C284.903 391.247 284.99 391.254 285.074 391.235Z" fill="white"/>
<path fill-rule="evenodd" clip-rule="evenodd" d="M215.23 348.569L193.85 336.71L222.091 329.317L220.361 334.144C220.361 334.144 229.636 335.246 241.476 336.045C280.25 337.641 318.986 332.062 355.733 319.586C311.509 339.047 265.422 345.984 216.998 343.666L215.23 348.569Z" fill="#FE1D67"/>
<path d="M137.406 103.18C91.9459 115.229 74.6514 143.432 98.8256 166.162C101.067 168.24 103.462 170.146 105.99 171.863L164.906 155.234C162.028 154.258 159.373 152.721 157.095 150.711C150.044 144.059 155.194 135.811 168.498 132.276C181.801 128.741 198.278 131.288 205.329 137.978C208.655 141.113 209.263 144.629 207.572 147.822L274.374 143.375C274.089 136.324 270.573 129.197 263.541 122.47C239.234 99.7777 182.846 91.2255 137.406 103.18Z" fill="#9328C0"/>
<path d="M142.289 2.96289V82.1943L162.415 134.401C164.309 133.53 166.273 132.825 168.288 132.291C181.23 128.87 197.194 131.189 204.53 137.461L292.789 110.949V31.6983L142.289 2.96289Z" fill="#EFA43A"/>
<path style="mix-blend-mode:multiply" opacity="0.5" d="M142.289 2.96289V82.1943L162.415 134.401C164.309 133.53 166.273 132.825 168.288 132.291C181.23 128.87 197.194 131.189 204.53 137.461L292.789 110.949V31.6983L142.289 2.96289Z" fill="url(#paint85_linear)"/>
<path d="M87.8789 65.1108C88.05 67.8665 87.8789 144.817 87.8789 144.817L120.187 143.297L126.839 79.4595L87.8789 65.1108Z" fill="#9328C0"/>
<path d="M207.362 68.5512V147.802H274.164V64.123L207.362 68.5512Z" fill="#9328C0"/>
<path d="M142.289 2.96374L162.415 55.1132C164.309 54.2428 166.273 53.537 168.288 53.0036C181.23 49.5637 197.194 51.9013 204.53 58.173L292.789 31.5661C261.659 5.58642 198.905 -5.91155 142.289 2.96374Z" fill="#F3CB47"/>
<path style="mix-blend-mode:multiply" opacity="0.5" d="M142.289 2.96374L162.415 55.1132C164.309 54.2428 166.273 53.537 168.288 53.0036C181.23 49.5637 197.194 51.9013 204.53 58.173L292.789 31.5661C261.659 5.58642 198.905 -5.91155 142.289 2.96374Z" fill="url(#paint86_linear)"/>
<path d="M242.35 144.74V64.1217L181.04 43.7104L119.731 64.1217V143.296C119.369 148.484 121.631 153.787 126.838 158.69C142.688 173.647 179.805 179.348 209.7 171.423C230.149 166.007 242.008 155.611 242.274 144.816L242.35 144.74Z" fill="#E23465"/>
<path d="M242.35 144.74V64.1217L181.04 43.7104L119.731 64.1217V143.296C119.369 148.484 121.631 153.787 126.838 158.69C142.688 173.647 179.805 179.348 209.7 171.423C230.149 166.007 242.008 155.611 242.274 144.816L242.35 144.74Z" fill="url(#paint87_linear)"/>
<path d="M274.165 64.1231C273.88 57.0723 270.364 49.9264 263.332 43.2177C239.234 20.5449 182.846 11.8976 137.406 23.9467C91.9651 35.9959 74.6516 64.1991 98.8258 86.929C101.072 89.0015 103.467 90.9071 105.991 92.6304L134.023 84.7054C131.487 83.2147 129.122 81.4493 126.972 79.441C111.027 64.5032 122.411 45.9544 152.325 38.0104C182.238 30.0663 219.336 35.7868 235.205 50.7437C240.45 55.6849 242.693 61.0253 242.294 66.2326L274.165 64.1231Z" fill="#9D20C8"/>
<path style="mix-blend-mode:multiply" opacity="0.5" d="M274.165 64.1231C273.88 57.0723 270.364 49.9264 263.332 43.2177C239.234 20.5449 182.846 11.8976 137.406 23.9467C91.9651 35.9959 74.6516 64.1991 98.8258 86.929C101.072 89.0015 103.467 90.9071 105.991 92.6304L134.023 84.7054C131.487 83.2147 129.122 81.4493 126.972 79.441C111.027 64.5032 122.411 45.9544 152.325 38.0104C182.238 30.0663 219.336 35.7868 235.205 50.7437C240.45 55.6849 242.693 61.0253 242.294 66.2326L274.165 64.1231Z" fill="url(#paint88_linear)"/>
<path d="M152.324 38.0072C122.41 45.9513 111.026 64.5 126.896 79.4569C142.765 94.4137 179.862 100.115 209.757 92.1902C239.652 84.2651 251.055 65.6973 235.204 50.7405C219.354 35.7836 182.238 30.0822 152.324 38.0072ZM193.85 77.1383C180.546 80.6542 164.069 78.1265 157.018 71.4368C149.968 64.7471 155.118 56.556 168.421 53.0211C181.725 49.4862 198.202 52.0328 205.253 58.7225C212.304 65.4123 207.153 73.6034 193.85 77.1383Z" fill="#FA3F7D"/>
<path d="M152.324 38.0072C122.41 45.9513 111.026 64.5 126.896 79.4569C142.765 94.4137 179.862 100.115 209.757 92.1902C239.652 84.2651 251.055 65.6973 235.204 50.7405C219.354 35.7836 182.238 30.0822 152.324 38.0072ZM193.85 77.1383C180.546 80.6542 164.069 78.1265 157.018 71.4368C149.968 64.7471 155.118 56.556 168.421 53.0211C181.725 49.4862 198.202 52.0328 205.253 58.7225C212.304 65.4123 207.153 73.6034 193.85 77.1383Z" fill="url(#paint89_linear)"/>
<path d="M105.914 92.6487V171.88L133.946 163.974V84.7236L105.914 92.6487Z" fill="#811EAA"/>
<path d="M193.85 77.1425C180.547 80.6585 164.07 78.1308 157.019 71.4411C149.968 64.7514 155.118 56.5602 168.422 53.0253C181.725 49.4904 198.202 52.0371 205.253 58.7268C212.304 65.4165 207.154 73.6076 193.85 77.1425Z" fill="url(#paint90_linear)"/>
<defs>
<linearGradient id="paint0_linear" x1="281.331" y1="233.36" x2="484.114" y2="233.36" gradientUnits="userSpaceOnUse">
<stop offset="0.45" stop-color="#4B66EE"/>
<stop offset="0.54" stop-color="#333ABF"/>
</linearGradient>
<linearGradient id="paint1_linear" x1="281.331" y1="213.026" x2="484.114" y2="213.026" gradientUnits="userSpaceOnUse">
<stop stop-color="#5896FA"/>
<stop offset="1" stop-color="#477AD0"/>
</linearGradient>
<linearGradient id="paint2_linear" x1="397.28" y1="251.699" x2="471.951" y2="251.699" gradientUnits="userSpaceOnUse">
<stop stop-color="#85DAFF"/>
<stop offset="1" stop-color="#6EB4D5"/>
</linearGradient>
<linearGradient id="paint3_linear" x1="-99079.2" y1="5566.56" x2="-102012" y2="5566.56" gradientUnits="userSpaceOnUse">
<stop stop-color="#85DAFF"/>
<stop offset="1" stop-color="#6EB4D5"/>
</linearGradient>
<linearGradient id="paint4_linear" x1="361.208" y1="38.4079" x2="406.649" y2="38.4079" gradientUnits="userSpaceOnUse">
<stop stop-color="#7CD2EF"/>
<stop offset="1" stop-color="#8EF1F8"/>
</linearGradient>
<linearGradient id="paint5_linear" x1="361.207" y1="122.754" x2="383.576" y2="122.754" gradientUnits="userSpaceOnUse">
<stop stop-color="#7AC0E7"/>
<stop offset="1" stop-color="#77D6F3"/>
</linearGradient>
<linearGradient id="paint6_linear" x1="5040.18" y1="10916.9" x2="5320.28" y2="10916.9" gradientUnits="userSpaceOnUse">
<stop stop-color="#7AC0E7"/>
<stop offset="1" stop-color="#77D6F3"/>
</linearGradient>
<linearGradient id="paint7_linear" x1="397.583" y1="98.8815" x2="443.024" y2="98.8815" gradientUnits="userSpaceOnUse">
<stop stop-color="#F19A47"/>
<stop offset="1" stop-color="#F7DB98"/>
</linearGradient>
<linearGradient id="paint8_linear" x1="397.583" y1="162.358" x2="419.952" y2="162.358" gradientUnits="userSpaceOnUse">
<stop stop-color="#F18137"/>
<stop offset="1" stop-color="#F7AB4D"/>
</linearGradient>
<linearGradient id="paint9_linear" x1="5518.16" y1="10931.6" x2="5798.25" y2="10931.6" gradientUnits="userSpaceOnUse">
<stop stop-color="#F18137"/>
<stop offset="1" stop-color="#F7AB4D"/>
</linearGradient>
<linearGradient id="paint10_linear" x1="322.42" y1="118.113" x2="367.861" y2="118.113" gradientUnits="userSpaceOnUse">
<stop stop-color="#8317DD"/>
<stop offset="1" stop-color="#8B4AE6"/>
</linearGradient>
<linearGradient id="paint11_linear" x1="322.419" y1="172.314" x2="344.788" y2="172.314" gradientUnits="userSpaceOnUse">
<stop stop-color="#7704D7"/>
<stop offset="1" stop-color="#8619E6"/>
</linearGradient>
<linearGradient id="paint12_linear" x1="4530.5" y1="9937.77" x2="4810.59" y2="9937.77" gradientUnits="userSpaceOnUse">
<stop stop-color="#7704D7"/>
<stop offset="1" stop-color="#8619E6"/>
</linearGradient>
<linearGradient id="paint13_linear" x1="358.776" y1="160.095" x2="404.236" y2="160.095" gradientUnits="userSpaceOnUse">
<stop stop-color="#E62A54"/>
<stop offset="1" stop-color="#E876AA"/>
</linearGradient>
<linearGradient id="paint14_linear" x1="358.776" y1="202.686" x2="381.145" y2="202.686" gradientUnits="userSpaceOnUse">
<stop stop-color="#E32450"/>
<stop offset="1" stop-color="#E8426B"/>
</linearGradient>
<linearGradient id="paint15_linear" x1="381.145" y1="202.497" x2="404.236" y2="202.497" gradientUnits="userSpaceOnUse">
<stop stop-color="#E32450"/>
<stop offset="1" stop-color="#E8456E"/>
</linearGradient>
<linearGradient id="paint16_linear" x1="10285.2" y1="35314.9" x2="123191" y2="50593.9" gradientUnits="userSpaceOnUse">
<stop offset="0.45" stop-color="#4B66EE"/>
<stop offset="0.54" stop-color="#333ABF"/>
</linearGradient>
<linearGradient id="paint17_linear" x1="426.394" y1="308.049" x2="1.55872" y2="308.049" gradientUnits="userSpaceOnUse">
<stop stop-color="#C4A6F2"/>
<stop offset="1" stop-color="#CBB7FA"/>
</linearGradient>
<linearGradient id="paint18_linear" x1="361.48" y1="546.841" x2="356.886" y2="559.039" gradientUnits="userSpaceOnUse">
<stop offset="0.45" stop-color="#4B66EE"/>
<stop offset="0.54" stop-color="#333ABF"/>
</linearGradient>
<linearGradient id="paint19_linear" x1="1583.77" y1="1261.18" x2="1322.06" y2="1492.6" gradientUnits="userSpaceOnUse">
<stop offset="0.45" stop-color="#4B66EE"/>
<stop offset="0.54" stop-color="#333ABF"/>
</linearGradient>
<linearGradient id="paint20_linear" x1="420.198" y1="309.209" x2="16.0396" y2="309.209" gradientUnits="userSpaceOnUse">
<stop stop-color="#9B88FC"/>
<stop offset="1" stop-color="#8069F2"/>
</linearGradient>
<linearGradient id="paint21_linear" x1="39.8886" y1="306.341" x2="89.7954" y2="306.341" gradientUnits="userSpaceOnUse">
<stop stop-color="#97B6DE"/>
<stop offset="1" stop-color="#95B4DB"/>
</linearGradient>
<linearGradient id="paint22_linear" x1="64.5961" y1="322.017" x2="67.0287" y2="317.152" gradientUnits="userSpaceOnUse">
<stop stop-color="#97B6DE"/>
<stop offset="1" stop-color="#A1C2ED"/>
</linearGradient>
<linearGradient id="paint23_linear" x1="83.9815" y1="319.736" x2="41.3535" y2="319.736" gradientUnits="userSpaceOnUse">
<stop stop-color="#98B7DF"/>
<stop offset="0.05" stop-color="#A7C2E4"/>
<stop offset="0.18" stop-color="#CDDCF0"/>
<stop offset="0.31" stop-color="#E9EFF8"/>
<stop offset="0.42" stop-color="#F9FBFD"/>
<stop offset="0.51" stop-color="white"/>
<stop offset="0.66" stop-color="#A2C3EE"/>
<stop offset="0.78" stop-color="#A2C3EE"/>
<stop offset="0.87" stop-color="#A0C0EA"/>
</linearGradient>
<linearGradient id="paint24_linear" x1="83.9625" y1="319.737" x2="41.3915" y2="319.737" gradientUnits="userSpaceOnUse">
<stop stop-color="#98B7DF"/>
<stop offset="0.04" stop-color="#A5C0E3"/>
<stop offset="0.18" stop-color="#CBDBEF"/>
<stop offset="0.31" stop-color="#E7EEF7"/>
<stop offset="0.42" stop-color="#F7FAFC"/>
<stop offset="0.51" stop-color="#FDFEFE"/>
<stop offset="0.66" stop-color="#A2C3EE"/>
<stop offset="0.78" stop-color="#A2C3EE"/>
<stop offset="0.87" stop-color="#A0C0EA"/>
</linearGradient>
<linearGradient id="paint25_linear" x1="83.9625" y1="319.759" x2="41.4105" y2="319.759" gradientUnits="userSpaceOnUse">
<stop stop-color="#98B7DF"/>
<stop offset="0.04" stop-color="#A3BFE3"/>
<stop offset="0.18" stop-color="#C9D9EE"/>
<stop offset="0.31" stop-color="#E5ECF7"/>
<stop offset="0.42" stop-color="#F5F8FC"/>
<stop offset="0.51" stop-color="#FBFCFE"/>
<stop offset="0.66" stop-color="#A2C3EE"/>
<stop offset="0.78" stop-color="#A2C3EE"/>
<stop offset="0.87" stop-color="#A0C0EA"/>
</linearGradient>
<linearGradient id="paint26_linear" x1="83.9632" y1="319.773" x2="41.4302" y2="319.773" gradientUnits="userSpaceOnUse">
<stop stop-color="#98B7DF"/>
<stop offset="0.03" stop-color="#A1BEE2"/>
<stop offset="0.17" stop-color="#C7D8EE"/>
<stop offset="0.3" stop-color="#E3EBF6"/>
<stop offset="0.42" stop-color="#F3F7FB"/>
<stop offset="0.51" stop-color="#F9FBFD"/>
<stop offset="0.66" stop-color="#A2C2ED"/>
<stop offset="0.78" stop-color="#A2C2ED"/>
<stop offset="0.87" stop-color="#A0C0EA"/>
</linearGradient>
<linearGradient id="paint27_linear" x1="83.9436" y1="319.774" x2="41.4487" y2="319.774" gradientUnits="userSpaceOnUse">
<stop stop-color="#98B7DF"/>
<stop offset="0.03" stop-color="#9FBCE1"/>
<stop offset="0.17" stop-color="#C5D7ED"/>
<stop offset="0.3" stop-color="#E1EAF6"/>
<stop offset="0.42" stop-color="#F1F6FB"/>
<stop offset="0.51" stop-color="#F7FAFD"/>
<stop offset="0.66" stop-color="#A2C2ED"/>
<stop offset="0.78" stop-color="#A2C2ED"/>
<stop offset="0.87" stop-color="#A0C0EA"/>
</linearGradient>
<linearGradient id="paint28_linear" x1="83.944" y1="319.794" x2="41.4681" y2="319.794" gradientUnits="userSpaceOnUse">
<stop stop-color="#98B7DF"/>
<stop offset="0.02" stop-color="#9DBBE1"/>
<stop offset="0.16" stop-color="#C3D5EC"/>
<stop offset="0.3" stop-color="#DFE8F5"/>
<stop offset="0.42" stop-color="#EFF4FA"/>
<stop offset="0.51" stop-color="#F5F8FC"/>
<stop offset="0.66" stop-color="#A1C2ED"/>
<stop offset="0.78" stop-color="#A1C2ED"/>
<stop offset="0.87" stop-color="#A0C0E9"/>
</linearGradient>
<linearGradient id="paint29_linear" x1="83.9238" y1="319.795" x2="41.4859" y2="319.795" gradientUnits="userSpaceOnUse">
<stop stop-color="#98B7DE"/>
<stop offset="0.01" stop-color="#9BB9DF"/>
<stop offset="0.16" stop-color="#C1D4EC"/>
<stop offset="0.29" stop-color="#DDE7F5"/>
<stop offset="0.41" stop-color="#EDF3FA"/>
<stop offset="0.51" stop-color="#F3F7FC"/>
<stop offset="0.66" stop-color="#A1C2ED"/>
<stop offset="0.78" stop-color="#A1C2ED"/>
<stop offset="0.87" stop-color="#9FBFE9"/>
</linearGradient>
<linearGradient id="paint30_linear" x1="83.9243" y1="319.813" x2="41.5054" y2="319.813" gradientUnits="userSpaceOnUse">
<stop stop-color="#98B6DE"/>
<stop offset="0.01" stop-color="#99B7DE"/>
<stop offset="0.15" stop-color="#BFD2EB"/>
<stop offset="0.29" stop-color="#DBE6F4"/>
<stop offset="0.41" stop-color="#EBF2F9"/>
<stop offset="0.51" stop-color="#F1F6FB"/>
<stop offset="0.66" stop-color="#A1C2ED"/>
<stop offset="0.78" stop-color="#A1C2ED"/>
<stop offset="0.87" stop-color="#9FBFE9"/>
</linearGradient>
<linearGradient id="paint31_linear" x1="83.9055" y1="319.832" x2="41.5246" y2="319.832" gradientUnits="userSpaceOnUse">
<stop stop-color="#98B6DE"/>
<stop offset="0.15" stop-color="#BDD1EA"/>
<stop offset="0.29" stop-color="#D9E4F4"/>
<stop offset="0.41" stop-color="#E9F0F9"/>
<stop offset="0.51" stop-color="#EFF4FB"/>
<stop offset="0.66" stop-color="#A1C2EC"/>
<stop offset="0.78" stop-color="#A1C2EC"/>
<stop offset="0.87" stop-color="#9FBFE9"/>
</linearGradient>
<linearGradient id="paint32_linear" x1="83.9065" y1="319.83" x2="41.5446" y2="319.83" gradientUnits="userSpaceOnUse">
<stop stop-color="#97B6DE"/>
<stop offset="0.15" stop-color="#BCD0EA"/>
<stop offset="0.29" stop-color="#D8E3F3"/>
<stop offset="0.41" stop-color="#E8EFF8"/>
<stop offset="0.51" stop-color="#EEF3FA"/>
<stop offset="0.66" stop-color="#A1C1EC"/>
<stop offset="0.78" stop-color="#A1C1EC"/>
<stop offset="0.87" stop-color="#9FBFE9"/>
</linearGradient>
<linearGradient id="paint33_linear" x1="83.9063" y1="319.852" x2="41.5634" y2="319.852" gradientUnits="userSpaceOnUse">
<stop stop-color="#97B6DE"/>
<stop offset="0.14" stop-color="#BACEEA"/>
<stop offset="0.29" stop-color="#D6E1F3"/>
<stop offset="0.41" stop-color="#E6EDF8"/>
<stop offset="0.51" stop-color="#ECF1FA"/>
<stop offset="0.66" stop-color="#A1C1EC"/>
<stop offset="0.78" stop-color="#A1C1EC"/>
<stop offset="0.87" stop-color="#9FBFE9"/>
</linearGradient>
<linearGradient id="paint34_linear" x1="83.886" y1="319.853" x2="41.5811" y2="319.853" gradientUnits="userSpaceOnUse">
<stop stop-color="#97B6DE"/>
<stop offset="0.14" stop-color="#B8CDE9"/>
<stop offset="0.28" stop-color="#D4E0F2"/>
<stop offset="0.41" stop-color="#E4ECF7"/>
<stop offset="0.51" stop-color="#EAF0F9"/>
<stop offset="0.66" stop-color="#A1C1EC"/>
<stop offset="0.78" stop-color="#A1C1EC"/>
<stop offset="0.87" stop-color="#9FBFE9"/>
</linearGradient>
<linearGradient id="paint35_linear" x1="83.8871" y1="319.869" x2="41.6012" y2="319.869" gradientUnits="userSpaceOnUse">
<stop stop-color="#97B6DE"/>
<stop offset="0.13" stop-color="#B6CCE8"/>
<stop offset="0.28" stop-color="#D2DFF2"/>
<stop offset="0.41" stop-color="#E2EBF7"/>
<stop offset="0.51" stop-color="#E8EFF9"/>
<stop offset="0.66" stop-color="#A1C1EC"/>
<stop offset="0.78" stop-color="#A1C1EC"/>
<stop offset="0.87" stop-color="#9FBFE9"/>
</linearGradient>
<linearGradient id="paint36_linear" x1="83.8682" y1="319.869" x2="41.6013" y2="319.869" gradientUnits="userSpaceOnUse">
<stop stop-color="#97B6DE"/>
<stop offset="0.13" stop-color="#B4CAE8"/>
<stop offset="0.28" stop-color="#D0DDF1"/>
<stop offset="0.41" stop-color="#E0E9F6"/>
<stop offset="0.51" stop-color="#E6EDF8"/>
<stop offset="0.66" stop-color="#A0C1EB"/>
<stop offset="0.78" stop-color="#A0C1EB"/>
<stop offset="0.87" stop-color="#9FBFE8"/>
</linearGradient>
<linearGradient id="paint37_linear" x1="83.8674" y1="319.887" x2="41.6195" y2="319.887" gradientUnits="userSpaceOnUse">
<stop stop-color="#97B6DE"/>
<stop offset="0.12" stop-color="#B2C9E7"/>
<stop offset="0.27" stop-color="#CEDCF0"/>
<stop offset="0.4" stop-color="#DEE8F6"/>
<stop offset="0.51" stop-color="#E4ECF8"/>
<stop offset="0.66" stop-color="#A0C1EB"/>
<stop offset="0.78" stop-color="#A0C1EB"/>
<stop offset="0.87" stop-color="#9FBFE8"/>
</linearGradient>
<linearGradient id="paint38_linear" x1="83.8493" y1="319.887" x2="41.6395" y2="319.887" gradientUnits="userSpaceOnUse">
<stop stop-color="#97B6DE"/>
<stop offset="0.12" stop-color="#B0C8E6"/>
<stop offset="0.27" stop-color="#CCDBF0"/>
<stop offset="0.4" stop-color="#DCE7F5"/>
<stop offset="0.51" stop-color="#E2EBF7"/>
<stop offset="0.66" stop-color="#A0C0EB"/>
<stop offset="0.78" stop-color="#A0C0EB"/>
<stop offset="0.87" stop-color="#9FBFE8"/>
</linearGradient>
<linearGradient id="paint39_linear" x1="83.8485" y1="319.909" x2="41.6386" y2="319.909" gradientUnits="userSpaceOnUse">
<stop stop-color="#97B6DD"/>
<stop offset="0.11" stop-color="#AEC6E5"/>
<stop offset="0.26" stop-color="#CAD9EF"/>
<stop offset="0.4" stop-color="#DAE5F5"/>
<stop offset="0.51" stop-color="#E0E9F7"/>
<stop offset="0.66" stop-color="#A0C0EB"/>
<stop offset="0.78" stop-color="#A0C0EB"/>
<stop offset="0.87" stop-color="#9EBEE8"/>
</linearGradient>
<linearGradient id="paint40_linear" x1="83.8301" y1="319.906" x2="41.6583" y2="319.906" gradientUnits="userSpaceOnUse">
<stop stop-color="#97B6DD"/>
<stop offset="0.1" stop-color="#ACC5E5"/>
<stop offset="0.26" stop-color="#C8D8EE"/>
<stop offset="0.4" stop-color="#D8E4F4"/>
<stop offset="0.51" stop-color="#DEE8F6"/>
<stop offset="0.66" stop-color="#A0C0EB"/>
<stop offset="0.78" stop-color="#A0C0EB"/>
<stop offset="0.87" stop-color="#9EBEE8"/>
</linearGradient>
<linearGradient id="paint41_linear" x1="83.8295" y1="319.906" x2="41.6767" y2="319.906" gradientUnits="userSpaceOnUse">
<stop stop-color="#97B6DD"/>
<stop offset="0.09" stop-color="#AAC4E4"/>
<stop offset="0.26" stop-color="#C6D7ED"/>
<stop offset="0.4" stop-color="#D6E3F3"/>
<stop offset="0.51" stop-color="#DCE7F5"/>
<stop offset="0.66" stop-color="#A0C0EA"/>
<stop offset="0.78" stop-color="#A0C0EA"/>
<stop offset="0.87" stop-color="#9EBEE8"/>
</linearGradient>
<linearGradient id="paint42_linear" x1="83.829" y1="319.926" x2="41.6762" y2="319.926" gradientUnits="userSpaceOnUse">
<stop stop-color="#97B6DD"/>
<stop offset="0.09" stop-color="#A8C2E3"/>
<stop offset="0.25" stop-color="#C4D5ED"/>
<stop offset="0.4" stop-color="#D4E1F3"/>
<stop offset="0.51" stop-color="#DAE5F5"/>
<stop offset="0.66" stop-color="#A0C0EA"/>
<stop offset="0.78" stop-color="#A0C0EA"/>
<stop offset="0.87" stop-color="#9EBEE8"/>
</linearGradient>
<linearGradient id="paint43_linear" x1="83.8108" y1="319.924" x2="41.6959" y2="319.924" gradientUnits="userSpaceOnUse">
<stop stop-color="#97B5DD"/>
<stop offset="0.08" stop-color="#A6C0E2"/>
<stop offset="0.25" stop-color="#C2D4EC"/>
<stop offset="0.39" stop-color="#D2E0F2"/>
<stop offset="0.51" stop-color="#D8E4F4"/>
<stop offset="0.66" stop-color="#A0BFEA"/>
<stop offset="0.78" stop-color="#A0BFEA"/>
<stop offset="0.87" stop-color="#9EBEE8"/>
</linearGradient>
<linearGradient id="paint44_linear" x1="83.8097" y1="319.947" x2="41.6949" y2="319.947" gradientUnits="userSpaceOnUse">
<stop stop-color="#97B5DD"/>
<stop offset="0.07" stop-color="#A4BFE2"/>
<stop offset="0.24" stop-color="#C0D3EC"/>
<stop offset="0.39" stop-color="#D0DFF2"/>
<stop offset="0.51" stop-color="#D6E3F4"/>
<stop offset="0.66" stop-color="#A0BFEA"/>
<stop offset="0.78" stop-color="#A0BFEA"/>
<stop offset="0.87" stop-color="#9EBEE8"/>
</linearGradient>
<linearGradient id="paint45_linear" x1="83.7915" y1="319.944" x2="41.7147" y2="319.944" gradientUnits="userSpaceOnUse">
<stop stop-color="#97B5DD"/>
<stop offset="0.06" stop-color="#A2BDE1"/>
<stop offset="0.24" stop-color="#BED1EB"/>
<stop offset="0.39" stop-color="#CEDDF1"/>
<stop offset="0.51" stop-color="#D4E1F3"/>
<stop offset="0.66" stop-color="#9FBFEA"/>
<stop offset="0.78" stop-color="#9FBFEA"/>
<stop offset="0.87" stop-color="#9EBEE7"/>
</linearGradient>
<linearGradient id="paint46_linear" x1="83.7909" y1="319.944" x2="41.7141" y2="319.944" gradientUnits="userSpaceOnUse">
<stop stop-color="#97B5DD"/>
<stop offset="0.05" stop-color="#A0BCE1"/>
<stop offset="0.23" stop-color="#BCD0EB"/>
<stop offset="0.39" stop-color="#CCDCF1"/>
<stop offset="0.51" stop-color="#D2E0F3"/>
<stop offset="0.66" stop-color="#9FBFE9"/>
<stop offset="0.78" stop-color="#9FBFE9"/>
<stop offset="0.87" stop-color="#9EBEE7"/>
</linearGradient>
<linearGradient id="paint47_linear" x1="83.7715" y1="319.965" x2="41.7327" y2="319.965" gradientUnits="userSpaceOnUse">
<stop stop-color="#97B5DD"/>
<stop offset="0.04" stop-color="#9EBAE0"/>
<stop offset="0.22" stop-color="#BACEEA"/>
<stop offset="0.38" stop-color="#CADBF0"/>
<stop offset="0.51" stop-color="#D0DFF2"/>
<stop offset="0.66" stop-color="#9FBFE9"/>
<stop offset="0.78" stop-color="#9FBFE9"/>
<stop offset="0.87" stop-color="#9EBEE7"/>
</linearGradient>
<linearGradient id="paint48_linear" x1="83.7728" y1="319.964" x2="41.7339" y2="319.964" gradientUnits="userSpaceOnUse">
<stop stop-color="#97B5DD"/>
<stop offset="0.03" stop-color="#9CB9DF"/>
<stop offset="0.22" stop-color="#B8CDE9"/>
<stop offset="0.38" stop-color="#C8D9F0"/>
<stop offset="0.51" stop-color="#CEDDF2"/>
<stop offset="0.66" stop-color="#9FBFE9"/>
<stop offset="0.78" stop-color="#9FBFE9"/>
<stop offset="0.87" stop-color="#9EBEE7"/>
</linearGradient>
<linearGradient id="paint49_linear" x1="83.7545" y1="319.985" x2="41.7537" y2="319.985" gradientUnits="userSpaceOnUse">
<stop stop-color="#96B5DC"/>
<stop offset="0.03" stop-color="#9BB9DE"/>
<stop offset="0.22" stop-color="#B7CCE8"/>
<stop offset="0.38" stop-color="#C7D8EF"/>
<stop offset="0.51" stop-color="#CDDCF1"/>
<stop offset="0.66" stop-color="#9FBEE9"/>
<stop offset="0.78" stop-color="#9FBEE9"/>
<stop offset="0.87" stop-color="#9DBDE7"/>
</linearGradient>
<linearGradient id="paint50_linear" x1="83.7534" y1="319.981" x2="41.7526" y2="319.981" gradientUnits="userSpaceOnUse">
<stop stop-color="#96B5DC"/>
<stop offset="0.02" stop-color="#99B7DD"/>
<stop offset="0.21" stop-color="#B5CAE8"/>
<stop offset="0.38" stop-color="#C5D6EF"/>
<stop offset="0.51" stop-color="#CBDAF1"/>
<stop offset="0.66" stop-color="#9FBEE9"/>
<stop offset="0.78" stop-color="#9FBEE9"/>
<stop offset="0.87" stop-color="#9DBDE7"/>
</linearGradient>
<linearGradient id="paint51_linear" x1="83.7342" y1="319.984" x2="41.7524" y2="319.984" gradientUnits="userSpaceOnUse">
<stop stop-color="#96B5DC"/>
<stop offset="0.01" stop-color="#97B6DD"/>
<stop offset="0.2" stop-color="#B3C9E7"/>
<stop offset="0.37" stop-color="#C3D5EE"/>
<stop offset="0.51" stop-color="#C9D9F0"/>
<stop offset="0.66" stop-color="#9FBEE9"/>
<stop offset="0.78" stop-color="#9FBEE9"/>
<stop offset="0.87" stop-color="#9DBDE7"/>
</linearGradient>
<linearGradient id="paint52_linear" x1="83.7336" y1="319.983" x2="41.7708" y2="319.983" gradientUnits="userSpaceOnUse">
<stop stop-color="#96B5DC"/>
<stop offset="0.2" stop-color="#B1C8E7"/>
<stop offset="0.37" stop-color="#C1D4EE"/>
<stop offset="0.51" stop-color="#C7D8F0"/>
<stop offset="0.66" stop-color="#9FBEE8"/>
<stop offset="0.78" stop-color="#9FBEE8"/>
<stop offset="0.87" stop-color="#9DBDE7"/>
</linearGradient>
<linearGradient id="paint53_linear" x1="83.715" y1="320.001" x2="41.7712" y2="320.001" gradientUnits="userSpaceOnUse">
<stop stop-color="#96B5DC"/>
<stop offset="0.19" stop-color="#AFC6E6"/>
<stop offset="0.37" stop-color="#BFD2ED"/>
<stop offset="0.51" stop-color="#C5D6EF"/>
<stop offset="0.66" stop-color="#9EBEE8"/>
<stop offset="0.78" stop-color="#9EBEE8"/>
<stop offset="0.87" stop-color="#9DBDE6"/>
</linearGradient>
<linearGradient id="paint54_linear" x1="83.7154" y1="320.003" x2="41.7716" y2="320.003" gradientUnits="userSpaceOnUse">
<stop stop-color="#96B5DC"/>
<stop offset="0.18" stop-color="#ADC5E6"/>
<stop offset="0.36" stop-color="#BDD1ED"/>
<stop offset="0.51" stop-color="#C3D5EF"/>
<stop offset="0.66" stop-color="#9EBEE8"/>
<stop offset="0.78" stop-color="#9EBEE8"/>
<stop offset="0.87" stop-color="#9DBDE6"/>
</linearGradient>
<linearGradient id="paint55_linear" x1="83.6961" y1="320.001" x2="41.7904" y2="320.001" gradientUnits="userSpaceOnUse">
<stop stop-color="#96B4DC"/>
<stop offset="0.17" stop-color="#ABC3E5"/>
<stop offset="0.36" stop-color="#BBD0EC"/>
<stop offset="0.51" stop-color="#C1D4EE"/>
<stop offset="0.66" stop-color="#9EBDE8"/>
<stop offset="0.78" stop-color="#9EBDE8"/>
<stop offset="0.87" stop-color="#9DBDE6"/>
</linearGradient>
<linearGradient id="paint56_linear" x1="83.6973" y1="320.021" x2="41.7915" y2="320.021" gradientUnits="userSpaceOnUse">
<stop stop-color="#96B4DC"/>
<stop offset="0.16" stop-color="#A9C2E4"/>
<stop offset="0.36" stop-color="#B9CEEB"/>
<stop offset="0.51" stop-color="#BFD2EE"/>
<stop offset="0.66" stop-color="#9EBDE8"/>
<stop offset="0.78" stop-color="#9EBDE8"/>
<stop offset="0.87" stop-color="#9DBDE6"/>
</linearGradient>
<linearGradient id="paint57_linear" x1="83.6772" y1="320.023" x2="41.7904" y2="320.023" gradientUnits="userSpaceOnUse">
<stop stop-color="#96B4DC"/>
<stop offset="0.15" stop-color="#A7C0E3"/>
<stop offset="0.35" stop-color="#B7CDEA"/>
<stop offset="0.51" stop-color="#BDD1ED"/>
<stop offset="0.66" stop-color="#9EBDE7"/>
<stop offset="0.78" stop-color="#9EBDE7"/>
<stop offset="0.87" stop-color="#9DBDE6"/>
</linearGradient>
<linearGradient id="paint58_linear" x1="83.6783" y1="320.02" x2="41.8105" y2="320.02" gradientUnits="userSpaceOnUse">
<stop stop-color="#96B4DC"/>
<stop offset="0.14" stop-color="#A5BFE2"/>
<stop offset="0.35" stop-color="#B5CCE9"/>
<stop offset="0.51" stop-color="#BBD0EC"/>
<stop offset="0.66" stop-color="#9EBDE7"/>
<stop offset="0.78" stop-color="#9EBDE7"/>
<stop offset="0.87" stop-color="#9DBDE6"/>
</linearGradient>
<linearGradient id="paint59_linear" x1="83.6581" y1="320.021" x2="41.8094" y2="320.021" gradientUnits="userSpaceOnUse">
<stop stop-color="#96B4DB"/>
<stop offset="0.12" stop-color="#A3BDE1"/>
<stop offset="0.34" stop-color="#B3CAE9"/>
<stop offset="0.51" stop-color="#B9CEEC"/>
<stop offset="0.66" stop-color="#9EBDE7"/>
<stop offset="0.78" stop-color="#9EBDE7"/>
<stop offset="0.87" stop-color="#9CBCE6"/>
</linearGradient>
<linearGradient id="paint60_linear" x1="83.6567" y1="320.021" x2="41.808" y2="320.021" gradientUnits="userSpaceOnUse">
<stop stop-color="#96B4DB"/>
<stop offset="0.11" stop-color="#A1BCE0"/>
<stop offset="0.33" stop-color="#B1C9E8"/>
<stop offset="0.51" stop-color="#B7CDEB"/>
<stop offset="0.66" stop-color="#9EBCE7"/>
<stop offset="0.78" stop-color="#9EBCE7"/>
<stop offset="0.87" stop-color="#9CBCE6"/>
</linearGradient>
<linearGradient id="paint61_linear" x1="83.6382" y1="320.024" x2="41.8274" y2="320.024" gradientUnits="userSpaceOnUse">
<stop stop-color="#96B4DB"/>
<stop offset="0.09" stop-color="#9FBBDF"/>
<stop offset="0.33" stop-color="#AFC7E8"/>
<stop offset="0.51" stop-color="#B5CCEB"/>
<stop offset="0.66" stop-color="#9EBCE7"/>
<stop offset="0.78" stop-color="#9EBCE7"/>
<stop offset="0.87" stop-color="#9CBCE6"/>
</linearGradient>
<linearGradient id="paint62_linear" x1="83.6385" y1="320.022" x2="41.8277" y2="320.022" gradientUnits="userSpaceOnUse">
<stop stop-color="#96B4DB"/>
<stop offset="0.08" stop-color="#9DB9DE"/>
<stop offset="0.32" stop-color="#ADC6E7"/>
<stop offset="0.51" stop-color="#B3CAEA"/>
<stop offset="0.66" stop-color="#9DBCE6"/>
<stop offset="0.78" stop-color="#9DBCE6"/>
<stop offset="0.87" stop-color="#9CBCE5"/>
</linearGradient>
<linearGradient id="paint63_linear" x1="83.6213" y1="320.022" x2="41.8295" y2="320.022" gradientUnits="userSpaceOnUse">
<stop stop-color="#96B4DB"/>
<stop offset="0.06" stop-color="#9BB8DE"/>
<stop offset="0.31" stop-color="#ABC4E7"/>
<stop offset="0.51" stop-color="#B1C9EA"/>
<stop offset="0.66" stop-color="#9DBCE6"/>
<stop offset="0.78" stop-color="#9DBCE6"/>
<stop offset="0.87" stop-color="#9CBCE5"/>
</linearGradient>
<linearGradient id="paint64_linear" x1="83.6193" y1="320.022" x2="41.8276" y2="320.022" gradientUnits="userSpaceOnUse">
<stop stop-color="#96B4DB"/>
<stop offset="0.03" stop-color="#99B6DC"/>
<stop offset="0.3" stop-color="#A9C3E6"/>
<stop offset="0.51" stop-color="#AFC8E9"/>
<stop offset="0.66" stop-color="#9DBCE6"/>
<stop offset="0.78" stop-color="#9DBCE6"/>
<stop offset="0.87" stop-color="#9CBCE5"/>
</linearGradient>
<linearGradient id="paint65_linear" x1="83.6207" y1="320.021" x2="41.848" y2="320.021" gradientUnits="userSpaceOnUse">
<stop stop-color="#96B4DB"/>
<stop offset="0.01" stop-color="#97B4DB"/>
<stop offset="0.29" stop-color="#A7C1E5"/>
<stop offset="0.51" stop-color="#ADC6E9"/>
<stop offset="0.66" stop-color="#9DBCE6"/>
<stop offset="0.78" stop-color="#9DBCE6"/>
<stop offset="0.87" stop-color="#9CBCE5"/>
</linearGradient>
<linearGradient id="paint66_linear" x1="83.6017" y1="320.023" x2="41.8479" y2="320.023" gradientUnits="userSpaceOnUse">
<stop stop-color="#95B4DB"/>
<stop offset="0.01" stop-color="#96B4DB"/>
<stop offset="0.29" stop-color="#A6C1E5"/>
<stop offset="0.51" stop-color="#ACC5E8"/>
<stop offset="0.66" stop-color="#9DBBE6"/>
<stop offset="0.78" stop-color="#9DBBE6"/>
<stop offset="0.87" stop-color="#9CBCE5"/>
</linearGradient>
<linearGradient id="paint67_linear" x1="83.6012" y1="320.022" x2="41.8475" y2="320.022" gradientUnits="userSpaceOnUse">
<stop stop-color="#95B4DB"/>
<stop offset="0.28" stop-color="#A4BFE4"/>
<stop offset="0.51" stop-color="#AAC3E8"/>
<stop offset="0.66" stop-color="#9DBBE5"/>
<stop offset="0.78" stop-color="#9DBBE5"/>
<stop offset="0.87" stop-color="#9CBCE5"/>
</linearGradient>
<linearGradient id="paint68_linear" x1="83.5821" y1="320.021" x2="41.8474" y2="320.021" gradientUnits="userSpaceOnUse">
<stop stop-color="#95B3DB"/>
<stop offset="0.26" stop-color="#A2BDE3"/>
<stop offset="0.51" stop-color="#A8C2E7"/>
<stop offset="0.66" stop-color="#9DBBE5"/>
<stop offset="0.78" stop-color="#9DBBE5"/>
<stop offset="0.87" stop-color="#9CBCE5"/>
</linearGradient>
<linearGradient id="paint69_linear" x1="83.5823" y1="320.003" x2="41.8666" y2="320.003" gradientUnits="userSpaceOnUse">
<stop stop-color="#95B3DA"/>
<stop offset="0.25" stop-color="#A0BCE3"/>
<stop offset="0.51" stop-color="#A6C1E7"/>
<stop offset="0.66" stop-color="#9DBBE5"/>
<stop offset="0.78" stop-color="#9DBBE5"/>
<stop offset="0.87" stop-color="#9BBBE5"/>
</linearGradient>
<linearGradient id="paint70_linear" x1="83.5632" y1="320.005" x2="41.8665" y2="320.005" gradientUnits="userSpaceOnUse">
<stop stop-color="#95B3DA"/>
<stop offset="0.23" stop-color="#9EBAE1"/>
<stop offset="0.51" stop-color="#A4BFE6"/>
<stop offset="0.66" stop-color="#9CBBE5"/>
<stop offset="0.78" stop-color="#9CBBE5"/>
<stop offset="0.87" stop-color="#9BBBE4"/>
</linearGradient>
<linearGradient id="paint71_linear" x1="83.5636" y1="320.001" x2="41.8669" y2="320.001" gradientUnits="userSpaceOnUse">
<stop stop-color="#95B3DA"/>
<stop offset="0.2" stop-color="#9CB9E1"/>
<stop offset="0.51" stop-color="#A2BEE6"/>
<stop offset="0.66" stop-color="#9CBBE5"/>
<stop offset="0.78" stop-color="#9CBBE5"/>
<stop offset="0.87" stop-color="#9BBBE4"/>
</linearGradient>
<linearGradient id="paint72_linear" x1="83.5445" y1="320.002" x2="41.8668" y2="320.002" gradientUnits="userSpaceOnUse">
<stop stop-color="#95B3DA"/>
<stop offset="0.17" stop-color="#9AB8DF"/>
<stop offset="0.51" stop-color="#A0BDE5"/>
<stop offset="0.66" stop-color="#9CBAE4"/>
<stop offset="0.78" stop-color="#9CBAE4"/>
<stop offset="0.87" stop-color="#9BBBE4"/>
</linearGradient>
<linearGradient id="paint73_linear" x1="83.5444" y1="319.986" x2="41.8667" y2="319.986" gradientUnits="userSpaceOnUse">
<stop stop-color="#95B3DA"/>
<stop offset="0.17" stop-color="#99B7DF"/>
<stop offset="0.51" stop-color="#9EBBE5"/>
<stop offset="0.66" stop-color="#9CBAE4"/>
<stop offset="0.78" stop-color="#9CBAE4"/>
<stop offset="0.87" stop-color="#9BBBE4"/>
</linearGradient>
<linearGradient id="paint74_linear" x1="83.5255" y1="319.982" x2="41.8858" y2="319.982" gradientUnits="userSpaceOnUse">
<stop stop-color="#95B3DA"/>
<stop offset="0.14" stop-color="#98B6DE"/>
<stop offset="0.51" stop-color="#9CBAE4"/>
<stop offset="0.66" stop-color="#9CBAE4"/>
<stop offset="0.78" stop-color="#9CBAE4"/>
<stop offset="0.87" stop-color="#9BBBE4"/>
</linearGradient>
<linearGradient id="paint75_linear" x1="230.891" y1="274.864" x2="178.114" y2="274.864" gradientUnits="userSpaceOnUse">
<stop stop-color="#FF2693"/>
<stop offset="1" stop-color="#FF2693"/>
</linearGradient>
<linearGradient id="paint76_linear" x1="23940.2" y1="4428.01" x2="25592.4" y2="4428.01" gradientUnits="userSpaceOnUse">
<stop stop-color="#FF2693"/>
<stop offset="1" stop-color="#FF2693"/>
</linearGradient>
<linearGradient id="paint77_linear" x1="28039.4" y1="4662.96" x2="30238.9" y2="4662.96" gradientUnits="userSpaceOnUse">
<stop stop-color="#FF2693"/>
<stop offset="1" stop-color="#FF2693"/>
</linearGradient>
<linearGradient id="paint78_linear" x1="36583.4" y1="6191.14" x2="40111.4" y2="6191.14" gradientUnits="userSpaceOnUse">
<stop stop-color="#FF2693"/>
<stop offset="1" stop-color="#FF2693"/>
</linearGradient>
<linearGradient id="paint79_linear" x1="-12897.8" y1="3935.34" x2="-13808.9" y2="3935.34" gradientUnits="userSpaceOnUse">
<stop stop-color="#E32450"/>
<stop offset="1" stop-color="#E8456E"/>
</linearGradient>
<linearGradient id="paint80_linear" x1="-14055.1" y1="4119.11" x2="-15071" y2="4119.11" gradientUnits="userSpaceOnUse">
<stop stop-color="#E32450"/>
<stop offset="1" stop-color="#E8456E"/>
</linearGradient>
<linearGradient id="paint81_linear" x1="-16000.1" y1="4499.2" x2="-17236.8" y2="4499.2" gradientUnits="userSpaceOnUse">
<stop stop-color="#E32450"/>
<stop offset="1" stop-color="#E8456E"/>
</linearGradient>
<linearGradient id="paint82_linear" x1="-18914.3" y1="5112.51" x2="-20537.5" y2="5112.51" gradientUnits="userSpaceOnUse">
<stop stop-color="#E32450"/>
<stop offset="1" stop-color="#E8456E"/>
</linearGradient>
<linearGradient id="paint83_linear" x1="-23198.8" y1="5954.71" x2="-25487.8" y2="5954.71" gradientUnits="userSpaceOnUse">
<stop stop-color="#E32450"/>
<stop offset="1" stop-color="#E8456E"/>
</linearGradient>
<linearGradient id="paint84_linear" x1="-29583.1" y1="7216.71" x2="-33080.8" y2="7216.71" gradientUnits="userSpaceOnUse">
<stop stop-color="#E32450"/>
<stop offset="1" stop-color="#E8456E"/>
</linearGradient>
<linearGradient id="paint85_linear" x1="142.289" y1="70.2022" x2="292.789" y2="70.2022" gradientUnits="userSpaceOnUse">
<stop stop-color="#F6944F"/>
<stop offset="1" stop-color="#F6944F"/>
</linearGradient>
<linearGradient id="paint86_linear" x1="11410.2" y1="891.21" x2="23328.3" y2="891.21" gradientUnits="userSpaceOnUse">
<stop stop-color="#F6944F"/>
<stop offset="1" stop-color="#F6944F"/>
</linearGradient>
<linearGradient id="paint87_linear" x1="7847.07" y1="7595.25" x2="15760.9" y2="7595.25" gradientUnits="userSpaceOnUse">
<stop stop-color="#E32450"/>
<stop offset="1" stop-color="#E8456E"/>
</linearGradient>
<linearGradient id="paint88_linear" x1="87.879" y1="55.5709" x2="274.165" y2="55.5709" gradientUnits="userSpaceOnUse">
<stop stop-color="#68489B"/>
<stop offset="1" stop-color="#68489B"/>
</linearGradient>
<linearGradient id="paint89_linear" x1="7844.6" y1="2134.93" x2="15755.8" y2="2134.93" gradientUnits="userSpaceOnUse">
<stop stop-color="#E62A54"/>
<stop offset="1" stop-color="#E876AA"/>
</linearGradient>
<linearGradient id="paint90_linear" x1="4569.16" y1="986.228" x2="6133.31" y2="986.228" gradientUnits="userSpaceOnUse">
<stop stop-color="#E32450"/>
<stop offset="1" stop-color="#E8456E"/>
</linearGradient>
</defs>
</svg>
