<svg width="399" height="432" viewBox="0 0 399 432" fill="none" xmlns="http://www.w3.org/2000/svg">
<path d="M145.787 134.973L192.601 158.427C193.399 158.825 194.279 159.032 195.171 159.032C196.063 159.032 196.943 158.825 197.742 158.427L242.925 135.781C243.045 135.718 243.146 135.623 243.216 135.507C243.287 135.39 243.324 135.257 243.324 135.121C243.324 134.985 243.287 134.852 243.216 134.735C243.146 134.619 243.045 134.524 242.925 134.461L196.064 111.023C195.269 110.625 194.391 110.418 193.502 110.418C192.612 110.418 191.735 110.625 190.939 111.023L145.787 133.576C145.644 133.629 145.521 133.724 145.434 133.849C145.347 133.974 145.301 134.122 145.301 134.274C145.301 134.427 145.347 134.575 145.434 134.7C145.521 134.825 145.644 134.92 145.787 134.973Z" fill="#4B3083"/>
<path d="M145.787 134.973L149.375 136.76L190.939 115.947C191.735 115.549 192.612 115.342 193.502 115.342C194.391 115.342 195.269 115.549 196.064 115.947L239.337 137.583L242.925 135.781C243.045 135.718 243.146 135.623 243.216 135.507C243.287 135.39 243.324 135.257 243.324 135.121C243.324 134.985 243.287 134.852 243.216 134.735C243.146 134.619 243.045 134.524 242.925 134.461L196.064 111.023C195.269 110.625 194.391 110.418 193.502 110.418C192.612 110.418 191.735 110.625 190.939 111.023L145.787 133.576C145.644 133.629 145.521 133.724 145.434 133.849C145.347 133.974 145.301 134.122 145.301 134.274C145.301 134.427 145.347 134.575 145.434 134.7C145.521 134.825 145.644 134.92 145.787 134.973Z" fill="url(#paint0_linear)"/>
<path d="M195.707 101.145C194.46 100.679 193.087 100.679 191.84 101.145L154.873 115.434V139.478L192.927 158.505C193.708 158.814 194.544 158.964 195.384 158.946C196.224 158.927 197.053 158.74 197.819 158.396L233.932 140.317V115.978L195.707 101.145Z" fill="url(#paint1_linear)"/>
<path d="M155.152 115.807L192.958 134.71C193.602 135.03 194.312 135.197 195.031 135.197C195.751 135.197 196.46 135.03 197.105 134.71L233.559 116.491C233.656 116.439 233.738 116.362 233.795 116.268C233.852 116.173 233.882 116.065 233.882 115.955C233.882 115.845 233.852 115.736 233.795 115.642C233.738 115.548 233.656 115.47 233.559 115.419L195.707 96.4854C195.065 96.1677 194.358 96.0024 193.641 96.0024C192.924 96.0024 192.218 96.1677 191.575 96.4854L155.152 114.736C155.055 114.787 154.973 114.864 154.916 114.959C154.859 115.053 154.829 115.161 154.829 115.272C154.829 115.382 154.859 115.49 154.916 115.584C154.973 115.679 155.055 115.756 155.152 115.807Z" fill="url(#paint2_linear)"/>
<path d="M330.262 184.129L362.694 200.36C363.246 200.636 363.855 200.78 364.472 200.78C365.089 200.78 365.698 200.636 366.25 200.36L397.501 184.703C397.586 184.661 397.658 184.595 397.708 184.514C397.757 184.434 397.784 184.34 397.784 184.245C397.784 184.15 397.757 184.057 397.708 183.976C397.658 183.895 397.586 183.83 397.501 183.787L365.008 167.54C364.456 167.273 363.851 167.133 363.237 167.133C362.624 167.133 362.018 167.273 361.467 167.54L330.262 183.275C330.192 183.321 330.134 183.385 330.094 183.459C330.054 183.534 330.033 183.617 330.033 183.702C330.033 183.786 330.054 183.869 330.094 183.944C330.134 184.019 330.192 184.082 330.262 184.129Z" fill="#4B3083"/>
<path d="M330.262 184.129L332.748 185.371L361.529 170.958C362.078 170.682 362.684 170.538 363.299 170.538C363.914 170.538 364.521 170.682 365.07 170.958L395.031 185.931L397.501 184.688C397.586 184.645 397.658 184.58 397.708 184.499C397.757 184.418 397.784 184.325 397.784 184.23C397.784 184.135 397.757 184.041 397.708 183.96C397.658 183.88 397.586 183.814 397.501 183.772L365.008 167.54C364.456 167.273 363.851 167.133 363.237 167.133C362.624 167.133 362.018 167.273 361.467 167.54L330.262 183.275C330.192 183.321 330.134 183.385 330.094 183.459C330.054 183.534 330.033 183.617 330.033 183.702C330.033 183.786 330.054 183.869 330.094 183.944C330.134 184.019 330.192 184.082 330.262 184.129Z" fill="url(#paint3_linear)"/>
<path d="M364.791 160.707C363.93 160.381 362.98 160.381 362.119 160.707L336.522 170.601V187.267L362.927 200.453C363.417 200.669 363.945 200.78 364.48 200.78C365.015 200.78 365.544 200.669 366.034 200.453L391.273 187.857V170.973L364.791 160.707Z" fill="url(#paint4_linear)"/>
<path d="M336.739 170.85L362.926 183.943C363.37 184.166 363.859 184.282 364.355 184.282C364.852 184.282 365.341 184.166 365.784 183.943L391.024 171.315C391.093 171.28 391.15 171.227 391.19 171.161C391.23 171.095 391.251 171.02 391.251 170.943C391.251 170.866 391.23 170.79 391.19 170.724C391.15 170.659 391.093 170.605 391.024 170.57L364.837 157.476C364.393 157.254 363.904 157.138 363.408 157.138C362.912 157.138 362.422 157.254 361.979 157.476L336.739 170.12C336.675 170.156 336.621 170.209 336.583 170.273C336.546 170.337 336.526 170.41 336.526 170.485C336.526 170.559 336.546 170.632 336.583 170.696C336.621 170.76 336.675 170.813 336.739 170.85Z" fill="url(#paint5_linear)"/>
<path d="M271.816 94.1402L306.655 111.567C307.25 111.866 307.907 112.022 308.573 112.022C309.239 112.022 309.896 111.866 310.491 111.567L344.087 94.7459C344.178 94.6989 344.255 94.6276 344.308 94.5399C344.362 94.4523 344.39 94.3516 344.39 94.2489C344.39 94.1462 344.362 94.0455 344.308 93.9578C344.255 93.8702 344.178 93.7989 344.087 93.7519L309.233 76.3403C308.643 76.0415 307.991 75.8857 307.33 75.8857C306.669 75.8857 306.017 76.0415 305.428 76.3403L271.816 93.1927C271.732 93.24 271.662 93.3088 271.613 93.3921C271.565 93.4753 271.539 93.57 271.539 93.6664C271.539 93.7629 271.565 93.8576 271.613 93.9408C271.662 94.0241 271.732 94.0929 271.816 94.1402Z" fill="#4B3083"/>
<path d="M271.816 94.1402L274.488 95.4759L305.412 79.9438C306.004 79.6531 306.655 79.502 307.315 79.502C307.974 79.502 308.625 79.6531 309.217 79.9438L341.4 96.0506L344.072 94.7149C344.163 94.6678 344.239 94.5966 344.293 94.5089C344.346 94.4212 344.375 94.3205 344.375 94.2178C344.375 94.1151 344.346 94.0145 344.293 93.9268C344.239 93.8391 344.163 93.7678 344.072 93.7208L309.233 76.3403C308.643 76.0415 307.991 75.8857 307.33 75.8857C306.669 75.8857 306.017 76.0415 305.428 76.3403L271.816 93.1927C271.732 93.24 271.662 93.3088 271.613 93.3921C271.565 93.4753 271.539 93.57 271.539 93.6664C271.539 93.7629 271.565 93.8576 271.613 93.9408C271.662 94.0241 271.732 94.0929 271.816 94.1402Z" fill="url(#paint6_linear)"/>
<path d="M308.938 68.9759C308.013 68.6265 306.991 68.6265 306.065 68.9759L278.558 79.5999V97.4929L306.873 111.658C307.454 111.887 308.075 111.997 308.699 111.981C309.324 111.965 309.939 111.823 310.507 111.565L337.362 98.1142V80.0193L308.938 68.9759Z" fill="url(#paint7_linear)"/>
<path d="M278.806 79.896L306.919 93.9526C307.402 94.1921 307.933 94.3167 308.472 94.3167C309.011 94.3167 309.542 94.1921 310.025 93.9526L337.051 80.3775C337.123 80.3388 337.182 80.2816 337.224 80.2119C337.265 80.1422 337.287 80.0625 337.287 79.9814C337.287 79.9002 337.265 79.8206 337.224 79.7509C337.182 79.6812 337.123 79.624 337.051 79.5853L308.922 65.5132C308.441 65.2702 307.909 65.1436 307.369 65.1436C306.83 65.1436 306.298 65.2702 305.816 65.5132L278.806 79.0883C278.73 79.1255 278.667 79.183 278.623 79.2544C278.578 79.3258 278.555 79.4081 278.555 79.4921C278.555 79.5761 278.578 79.6585 278.623 79.7298C278.667 79.8012 278.73 79.8587 278.806 79.896Z" fill="url(#paint8_linear)"/>
<path d="M205.105 116.925L208.211 97.0908H180.486L183.593 116.925C183.733 117.842 184.897 118.743 187.01 119.411C191.807 120.7 196.859 120.7 201.657 119.411C203.785 118.743 205.027 117.842 205.105 116.925Z" fill="#C997F5"/>
<path style="mix-blend-mode:multiply" d="M205.105 116.925L208.211 97.0908H180.486L183.593 116.925C183.733 117.842 184.897 118.743 187.01 119.411C191.807 120.7 196.859 120.7 201.657 119.411C203.785 118.743 205.027 117.842 205.105 116.925Z" fill="url(#paint9_linear)"/>
<path d="M204.67 92.5703C209.92 95.1176 209.252 98.9695 203.707 101.191C197.672 103.289 191.104 103.289 185.069 101.191C179.508 98.9695 178.856 95.1176 184.106 92.5703C190.698 89.8854 198.078 89.8854 204.67 92.5703Z" fill="#E3D8F8"/>
<path style="mix-blend-mode:multiply" opacity="0.3" d="M204.67 92.5703C209.92 95.1176 209.252 98.9695 203.707 101.191C197.672 103.289 191.104 103.289 185.069 101.191C179.508 98.9695 178.856 95.1176 184.106 92.5703C190.698 89.8854 198.078 89.8854 204.67 92.5703Z" fill="url(#paint10_linear)"/>
<path d="M203.148 93.1918C207.699 95.2731 207.233 98.4262 202.48 100.274C197.209 102.046 191.504 102.046 186.234 100.274C181.465 98.4262 180.999 95.2731 185.55 93.1918C191.217 91.0324 197.481 91.0324 203.148 93.1918Z" fill="#DFC1FD"/>
<path style="mix-blend-mode:multiply" opacity="0.5" d="M203.148 93.1918C207.699 95.2731 207.233 98.4262 202.48 100.274C197.209 102.046 191.504 102.046 186.234 100.274C181.465 98.4262 180.999 95.2731 185.55 93.1918C191.217 91.0324 197.481 91.0324 203.148 93.1918Z" fill="url(#paint11_linear)"/>
<path d="M202.76 97.2137C197.326 95.2413 191.372 95.2413 185.938 97.2137C185.063 97.5662 184.27 98.0949 183.608 98.7669C184.39 99.4281 185.277 99.9531 186.233 100.32C191.504 102.091 197.209 102.091 202.48 100.32C203.436 99.9531 204.323 99.4281 205.105 98.7669C204.437 98.0949 203.639 97.5663 202.76 97.2137Z" fill="#624A81"/>
<path d="M172.285 68.5413C172.518 59.7656 181.698 58.7715 168.728 45.4139C156.862 33.2056 167.796 30.0371 171.338 23.7776C174.879 17.5182 170.437 9.31718 175.019 3.33731C177.271 0.417262 182.474 -1.16702 185.689 1.02302C189.805 3.8188 187.522 9.50357 189.417 13.6507C191.669 18.5899 199.653 20.9197 200.492 26.154C201.066 29.8196 197.758 33.2522 198.053 36.9333C198.55 43.1462 209.329 47.1535 207.108 53.6304C205.819 57.4047 199.963 59.3152 199.342 63.2137C198.861 66.227 201.812 68.8364 202.666 71.803C204.483 78.0935 196.298 85.9062 188.765 83.5919C181.511 81.3708 172.099 75.7637 172.285 68.5413Z" fill="url(#paint12_linear)"/>
<path d="M196.36 99.3122C196.3 99.3113 196.242 99.2911 196.195 99.2548C196.147 99.2184 196.113 99.1678 196.096 99.1103C189.246 71.4631 182.117 42.8839 179.803 14.1805C179.798 14.1454 179.801 14.1097 179.812 14.0759C179.822 14.042 179.84 14.0108 179.864 13.9844C179.887 13.9579 179.916 13.9367 179.948 13.9224C179.981 13.908 180.016 13.9007 180.051 13.901C180.119 13.8965 180.186 13.9182 180.238 13.9616C180.29 14.005 180.323 14.0667 180.331 14.1339C182.707 42.8063 189.774 71.3544 196.609 98.9861C196.618 99.0187 196.62 99.0529 196.616 99.0866C196.611 99.1202 196.6 99.1526 196.583 99.1817C196.565 99.2108 196.542 99.236 196.514 99.2558C196.487 99.2756 196.455 99.2895 196.422 99.2967L196.36 99.3122Z" fill="#90816F"/>
<path d="M182.428 34.4965C182.383 34.5099 182.334 34.5099 182.289 34.4965C182.265 34.4734 182.246 34.4456 182.233 34.4149C182.22 34.3842 182.213 34.3512 182.213 34.3179C182.213 34.2846 182.22 34.2516 182.233 34.2209C182.246 34.1902 182.265 34.1625 182.289 34.1393C185.41 29.295 188.812 24.6378 192.478 20.1914C192.523 20.1358 192.589 20.1005 192.66 20.0932C192.731 20.0859 192.803 20.1073 192.858 20.1526C192.914 20.1979 192.949 20.2635 192.956 20.3348C192.964 20.4062 192.942 20.4775 192.897 20.5331C189.214 24.9174 185.796 29.518 182.661 34.3101C182.643 34.3591 182.611 34.4022 182.57 34.4349C182.529 34.4677 182.48 34.489 182.428 34.4965Z" fill="#90816F"/>
<path d="M183.904 44.3899H183.764L168.573 36.2045C168.514 36.1688 168.471 36.1126 168.451 36.0467C168.431 35.9808 168.436 35.9097 168.465 35.8473C168.5 35.7883 168.556 35.7446 168.622 35.7245C168.688 35.7044 168.759 35.7094 168.822 35.7385L184.028 43.924C184.058 43.9403 184.085 43.9625 184.108 43.9893C184.13 44.0161 184.146 44.0469 184.156 44.0801C184.166 44.1133 184.17 44.1481 184.166 44.1826C184.163 44.2171 184.153 44.2506 184.137 44.2812C184.108 44.3157 184.073 44.3435 184.033 44.3623C183.992 44.3811 183.948 44.3906 183.904 44.3899Z" fill="#90816F"/>
<path d="M186.172 54.845C186.121 54.8589 186.067 54.8589 186.016 54.845C185.967 54.7955 185.939 54.7285 185.939 54.6586C185.939 54.5888 185.967 54.5218 186.016 54.4723L195.553 41.3321C195.571 41.2984 195.596 41.2689 195.626 41.2457C195.656 41.2224 195.691 41.206 195.728 41.1975C195.765 41.1891 195.804 41.1887 195.841 41.1965C195.878 41.2043 195.913 41.2201 195.944 41.2428C195.975 41.2655 196 41.2945 196.018 41.3279C196.037 41.3613 196.048 41.3982 196.05 41.4362C196.053 41.4742 196.047 41.5123 196.034 41.548C196.021 41.5836 196 41.6159 195.973 41.6427L186.389 54.7363C186.364 54.7705 186.332 54.7983 186.294 54.8172C186.256 54.8361 186.214 54.8457 186.172 54.845Z" fill="#90816F"/>
<path d="M189.621 70.4523C189.565 70.4712 189.505 70.4712 189.45 70.4523C189.426 70.4291 189.407 70.4014 189.394 70.3707C189.381 70.34 189.374 70.307 189.374 70.2737C189.374 70.2404 189.381 70.2074 189.394 70.1767C189.407 70.146 189.426 70.1182 189.45 70.0951L200.788 54.9512C200.811 54.9273 200.839 54.9082 200.87 54.8952C200.901 54.8822 200.934 54.8755 200.967 54.8755C201 54.8755 201.033 54.8822 201.064 54.8952C201.095 54.9082 201.122 54.9273 201.145 54.9512C201.195 55.0007 201.222 55.0677 201.222 55.1376C201.222 55.2075 201.195 55.2745 201.145 55.324L189.807 70.4523C189.778 70.4651 189.746 70.4718 189.714 70.4718C189.682 70.4718 189.65 70.4651 189.621 70.4523Z" fill="#90816F"/>
<path d="M194.373 62.7925C196.516 60.1366 199.84 58.2416 201.114 54.9333C203.335 49.1864 198.365 42.1814 202.76 37.2111C206.162 33.4213 212.421 33.6076 216.832 30.5944C219.737 28.6374 221.492 25.6863 224.055 23.2322C231.526 16.3204 247.011 22.4711 238.531 28.1869C235.533 30.2061 230.314 33.2038 229.817 36.217C229.149 40.3331 230.889 43.8899 228.777 47.8351C226.975 51.2988 222.005 52.2773 220.016 55.6012C218.339 58.3969 219.457 61.814 219.908 65.0758C222.331 81.8194 206.566 90.4087 197.464 81.9592C191.872 76.6162 190.101 67.9803 194.373 62.7925Z" fill="url(#paint13_linear)"/>
<path d="M194.963 101.297C194.927 101.295 194.892 101.286 194.859 101.27C194.827 101.254 194.798 101.231 194.775 101.204C194.752 101.176 194.734 101.144 194.724 101.109C194.714 101.074 194.71 101.038 194.715 101.002C196.563 82.3635 198.753 65.7441 206.954 50.5848C212.462 40.6608 220.005 32.0122 229.087 25.2052C229.111 25.1788 229.139 25.1576 229.172 25.1431C229.204 25.1286 229.239 25.1211 229.274 25.1211C229.309 25.1211 229.344 25.1286 229.376 25.1431C229.408 25.1576 229.437 25.1788 229.46 25.2052C229.509 25.2547 229.537 25.3217 229.537 25.3916C229.537 25.4615 229.509 25.5285 229.46 25.578C220.433 32.337 212.942 40.9344 207.482 50.8022C199.312 65.8529 197.122 82.4567 195.289 101.018C195.297 101.06 195.294 101.104 195.279 101.145C195.265 101.186 195.24 101.223 195.207 101.251C195.174 101.28 195.134 101.299 195.091 101.307C195.048 101.315 195.004 101.312 194.963 101.297Z" fill="#90816F"/>
<path d="M197.759 79.6771C197.707 79.6767 197.657 79.662 197.613 79.6346C197.569 79.6072 197.533 79.5681 197.51 79.5217C197.484 79.4556 197.483 79.3818 197.509 79.3154C197.535 79.249 197.586 79.195 197.65 79.1645C202.707 76.9853 207.446 74.1326 211.738 70.6839C211.787 70.6346 211.854 70.6069 211.924 70.6069C211.994 70.6069 212.061 70.6346 212.111 70.6839C212.135 70.7071 212.154 70.7349 212.167 70.7656C212.18 70.7963 212.186 70.8292 212.186 70.8626C212.186 70.8959 212.18 70.9289 212.167 70.9596C212.154 70.9903 212.135 71.018 212.111 71.0412C207.781 74.5261 203.001 77.4101 197.899 79.6149L197.759 79.6771Z" fill="#90816F"/>
<path d="M200.074 68.2303C200.022 68.2283 199.972 68.2129 199.929 68.1856C199.885 68.1584 199.85 68.1202 199.825 68.0749L197.806 62.9649C197.784 62.8966 197.788 62.8227 197.816 62.757C197.845 62.6912 197.897 62.6382 197.961 62.6076C197.994 62.5952 198.029 62.5894 198.064 62.5905C198.099 62.5916 198.133 62.5996 198.165 62.614C198.196 62.6284 198.225 62.649 198.249 62.6746C198.273 62.7002 198.291 62.7302 198.303 62.763L200.369 67.873C200.395 67.937 200.395 68.0085 200.369 68.0724C200.343 68.1362 200.292 68.1873 200.229 68.2147L200.074 68.2303Z" fill="#90816F"/>
<path d="M203.583 58.8176C203.535 58.8194 203.487 58.8072 203.446 58.7823C203.405 58.7575 203.371 58.7212 203.35 58.6778C203.321 58.6153 203.316 58.5443 203.336 58.4783C203.356 58.4124 203.4 58.3562 203.459 58.3205C207.868 55.9556 212.485 54.0007 217.252 52.4805C217.313 52.472 217.376 52.4857 217.429 52.5192C217.482 52.5527 217.521 52.6037 217.539 52.6633C217.558 52.7229 217.555 52.7871 217.531 52.8446C217.506 52.9022 217.463 52.9492 217.407 52.9775C212.675 54.497 208.09 56.4413 203.708 58.7865L203.583 58.8176Z" fill="#90816F"/>
<path d="M208.228 49.0141C208.156 49.0142 208.087 48.9869 208.035 48.9378C207.983 48.8887 207.952 48.8215 207.948 48.7501C207.866 45.037 206.822 41.4087 204.919 38.2193C204.895 38.1897 204.878 38.1554 204.869 38.1185C204.859 38.0817 204.858 38.0433 204.865 38.0059C204.871 37.9685 204.886 37.933 204.908 37.9018C204.93 37.8706 204.958 37.8445 204.991 37.8253C205.024 37.8061 205.06 37.7942 205.098 37.7904C205.136 37.7866 205.174 37.791 205.21 37.8033C205.246 37.8157 205.279 37.8356 205.306 37.8619C205.334 37.8881 205.356 37.9199 205.37 37.9552C207.312 41.2228 208.381 44.9346 208.476 48.7346C208.476 48.8061 208.449 48.8749 208.4 48.927C208.351 48.979 208.283 49.0102 208.212 49.0141H208.228Z" fill="#90816F"/>
<path d="M212.609 42.4475C212.551 42.4333 212.501 42.4003 212.464 42.3539C212.428 42.3075 212.408 42.2502 212.408 42.1912C212.408 42.1322 212.428 42.075 212.464 42.0285C212.501 41.9821 212.551 41.9491 212.609 41.9349L226.929 38.2693C226.999 38.2551 227.072 38.268 227.133 38.3055C227.193 38.3431 227.237 38.4024 227.255 38.4713C227.265 38.5039 227.267 38.5381 227.263 38.5718C227.258 38.6054 227.247 38.6378 227.229 38.6669C227.212 38.696 227.189 38.7212 227.161 38.741C227.134 38.7608 227.102 38.7747 227.069 38.7819L212.733 42.4475H212.609Z" fill="#90816F"/>
<path d="M222.363 31.3248C222.295 31.3209 222.232 31.2913 222.186 31.2422C222.14 31.1931 222.114 31.1282 222.114 31.0608L223.279 26.6031C223.284 26.5601 223.299 26.5191 223.324 26.4835C223.348 26.4479 223.381 26.4189 223.42 26.3989C223.458 26.379 223.501 26.3688 223.544 26.3692C223.587 26.3695 223.63 26.3805 223.667 26.4011C223.734 26.4226 223.789 26.468 223.824 26.5283C223.858 26.5885 223.869 26.6595 223.854 26.7273L222.627 31.0608C222.627 31.1308 222.599 31.198 222.549 31.2475C222.5 31.297 222.433 31.3248 222.363 31.3248Z" fill="#90816F"/>
<path d="M185.255 61.5983C183.329 59.4549 178.436 56.2087 177.1 53.8322C175.765 51.4558 174.196 45.7555 170.173 42.0433C163.137 35.582 158.602 38.2069 152.373 34.1064C141.501 26.9616 137.727 33.889 141.33 38.005C144.98 43.1927 153.072 42.7889 154.486 48.8775C154.89 50.5705 154.486 52.4033 155.588 53.7856C157.313 56.1465 164.411 58.8957 166.275 61.5517C168.915 66.025 161.429 71.337 170.344 78.373C185.472 90.3638 194.512 72.3621 185.255 61.5983Z" fill="url(#paint14_linear)"/>
<path d="M192.679 99.3091C192.622 99.3049 192.568 99.2833 192.523 99.2472C192.479 99.2111 192.447 99.1622 192.431 99.1072C191.064 93.4224 188.16 82.2082 186.218 76.2438C183.935 69.2544 181.155 61.9232 176.215 55.788C168.962 46.7794 157.577 40.7684 147.419 35.8292C147.387 35.8143 147.358 35.7931 147.335 35.7669C147.311 35.7407 147.293 35.7101 147.281 35.6768C147.27 35.6435 147.265 35.6082 147.267 35.573C147.269 35.5379 147.279 35.5035 147.294 35.472C147.309 35.44 147.331 35.4114 147.357 35.3878C147.383 35.3642 147.414 35.3461 147.447 35.3345C147.48 35.3229 147.515 35.3181 147.551 35.3204C147.586 35.3226 147.62 35.3319 147.652 35.3477C157.825 40.318 169.304 46.36 176.619 55.5395C181.621 61.7523 184.385 69.1146 186.715 76.1506C188.672 82.1305 191.577 93.3758 192.928 99.0606C192.937 99.0943 192.939 99.1296 192.934 99.1642C192.928 99.1987 192.915 99.2317 192.896 99.261C192.877 99.2904 192.852 99.3153 192.823 99.3343C192.794 99.3533 192.761 99.3659 192.726 99.3712L192.679 99.3091Z" fill="#90816F"/>
<path d="M186.466 76.4145C186.426 76.4287 186.382 76.4287 186.342 76.4145C181.015 73.6605 175.221 71.9223 169.257 71.2889C169.185 71.2811 169.12 71.246 169.074 71.1911C169.027 71.1361 169.004 71.0655 169.008 70.9938C169.012 70.959 169.023 70.9254 169.04 70.8948C169.057 70.8642 169.08 70.8373 169.107 70.8156C169.135 70.7939 169.166 70.7779 169.2 70.7685C169.234 70.7591 169.269 70.7565 169.303 70.7608C175.338 71.4005 181.201 73.1598 186.591 75.9486C186.653 75.9815 186.699 76.0377 186.719 76.1047C186.739 76.1717 186.732 76.244 186.699 76.3058C186.674 76.3434 186.639 76.3735 186.598 76.3926C186.557 76.4118 186.512 76.4194 186.466 76.4145Z" fill="#90816F"/>
<path d="M184.959 71.5703C184.891 71.5589 184.829 71.5224 184.786 71.4678C184.743 71.4132 184.721 71.3446 184.726 71.2752C184.95 69.3678 185.308 67.4785 185.798 65.6215C185.817 65.5536 185.861 65.4957 185.922 65.4608C185.984 65.4258 186.056 65.4166 186.124 65.4351C186.192 65.4537 186.25 65.4985 186.285 65.5596C186.32 65.6208 186.329 65.6933 186.311 65.7613C185.826 67.5924 185.473 69.4558 185.254 71.3374C185.25 71.3721 185.24 71.4058 185.223 71.4364C185.206 71.467 185.183 71.4939 185.156 71.5156C185.128 71.5372 185.097 71.5532 185.063 71.5627C185.029 71.5721 184.994 71.5747 184.959 71.5703Z" fill="#90816F"/>
<path d="M181.511 64.0667H181.387C177.263 61.8898 172.985 60.0158 168.589 58.4596C168.522 58.435 168.467 58.386 168.436 58.3225C168.404 58.2591 168.398 58.1859 168.418 58.1179C168.43 58.0852 168.448 58.0552 168.472 58.0296C168.496 58.004 168.524 57.9834 168.556 57.969C168.588 57.9545 168.622 57.9465 168.657 57.9454C168.692 57.9443 168.727 57.9502 168.76 57.9626C173.176 59.5371 177.479 61.4158 181.636 63.5852C181.697 63.6182 181.744 63.6743 181.764 63.7413C181.784 63.8083 181.777 63.8807 181.744 63.9425C181.719 63.9808 181.684 64.0122 181.643 64.0339C181.603 64.0555 181.557 64.0668 181.511 64.0667Z" fill="#90816F"/>
<path d="M172.611 51.764C172.577 51.7621 172.543 51.7532 172.511 51.7381C172.48 51.723 172.452 51.7018 172.429 51.6758C172.406 51.6499 172.388 51.6196 172.377 51.5867C172.366 51.5539 172.361 51.5191 172.363 51.4845C172.482 49.6894 172.399 47.8867 172.114 46.1103C172.108 46.0413 172.127 45.9723 172.167 45.9155C172.206 45.8587 172.265 45.8177 172.332 45.7997C172.367 45.793 172.402 45.7934 172.437 45.8007C172.471 45.8081 172.504 45.8224 172.533 45.8427C172.562 45.8629 172.587 45.8888 172.606 45.9188C172.624 45.9488 172.637 45.9822 172.642 46.0171C172.927 47.8353 173.01 49.6792 172.891 51.5155C172.889 51.5502 172.88 51.5842 172.865 51.6155C172.85 51.6467 172.829 51.6747 172.803 51.6978C172.777 51.7209 172.747 51.7386 172.714 51.75C172.681 51.7614 172.646 51.7661 172.611 51.764Z" fill="#90816F"/>
<path d="M157.748 49.8251C157.691 49.8109 157.64 49.778 157.604 49.7315C157.568 49.6851 157.548 49.6278 157.548 49.5688C157.548 49.5099 157.568 49.4526 157.604 49.4061C157.64 49.3597 157.691 49.3267 157.748 49.3125C161.043 48.4257 164.382 47.7102 167.751 47.1691C167.785 47.1597 167.821 47.1581 167.856 47.1645C167.89 47.1709 167.923 47.1851 167.951 47.2061C167.98 47.227 168.003 47.2541 168.02 47.2854C168.036 47.3167 168.045 47.3513 168.046 47.3866C168.053 47.4204 168.052 47.4552 168.045 47.4889C168.037 47.5225 168.023 47.5542 168.002 47.582C167.982 47.6097 167.956 47.6329 167.926 47.6501C167.896 47.6673 167.863 47.678 167.829 47.6817C164.48 48.2228 161.162 48.9383 157.888 49.8251H157.748Z" fill="#90816F"/>
<path d="M158.804 41.6085C158.758 41.6073 158.713 41.5955 158.673 41.5739C158.633 41.5523 158.598 41.5216 158.571 41.4842C157.717 40.0398 156.925 38.5487 156.21 37.0265C156.179 36.9627 156.175 36.8892 156.198 36.8222C156.222 36.7552 156.271 36.7002 156.335 36.6693C156.398 36.6384 156.472 36.6341 156.539 36.6574C156.606 36.6807 156.661 36.7297 156.692 36.7935C157.396 38.3088 158.179 39.7863 159.037 41.2202C159.071 41.2801 159.081 41.351 159.063 41.4178C159.046 41.4846 159.003 41.5419 158.944 41.5774C158.902 41.6022 158.853 41.6131 158.804 41.6085Z" fill="#90816F"/>
<g style="mix-blend-mode:multiply" opacity="0.4">
<g style="mix-blend-mode:multiply" opacity="0.03">
<path d="M386.754 274.682C398.295 284.762 401.153 309.536 388.603 315.935C385.263 317.644 229.88 400.554 178.22 425.747C171.731 428.967 164.617 430.733 157.376 430.92C149.064 431.137 140.827 429.302 133.394 425.577C94.3461 406.301 66.994 392.446 59.1503 388.563C52.9374 385.457 50.7319 376.526 50.0951 367.766C49.8475 364.245 49.806 360.714 49.9708 357.188C50.1027 354.711 50.8916 352.313 52.2564 350.242C53.6212 348.17 55.5127 346.499 57.7369 345.4C174.352 286.377 232.551 255.08 261.317 242.794C278.837 235.292 287.442 233.987 295.146 236.038C298.291 236.947 301.336 238.176 304.232 239.703C306.096 240.744 380.371 269.106 386.754 274.682Z" fill="#FEFEFE"/>
</g>
<g style="mix-blend-mode:multiply" opacity="0.06">
<path d="M385.481 275.085C396.819 284.902 399.615 309.427 387.174 315.78C380.759 319.026 228.746 400.104 178.142 424.769C171.693 427.965 164.619 429.704 157.422 429.863C149.159 430.098 140.967 428.278 133.581 424.567C95.3715 405.711 68.3456 391.949 59.834 387.787C53.6211 384.758 51.4622 375.967 50.8253 367.222C50.5781 363.743 50.5366 360.253 50.7011 356.769C50.8365 354.31 51.6283 351.933 52.9941 349.884C54.3599 347.836 56.2498 346.19 58.4672 345.12C171.743 287.806 232.893 255.033 260.836 243.136C278.076 235.742 286.774 234.484 294.463 236.566C297.585 237.479 300.608 238.702 303.487 240.216C307.199 242.079 379.144 269.587 385.481 275.085Z" fill="#FCFCFC"/>
</g>
<g style="mix-blend-mode:multiply" opacity="0.08">
<path d="M384.177 275.476C395.298 285.044 398.047 309.336 385.73 315.627C376.24 320.411 227.628 399.671 178.034 423.793C171.63 426.967 164.601 428.68 157.454 428.81C149.248 429.029 141.118 427.198 133.799 423.482C96.5214 405.045 69.7129 391.501 60.5489 386.95C54.4448 383.937 52.2237 375.348 51.6024 366.634C51.352 363.187 51.3157 359.727 51.4937 356.274C51.6357 353.835 52.4317 351.48 53.7982 349.455C55.1647 347.429 57.0513 345.81 59.2598 344.765C169.196 289.144 233.22 254.989 260.417 243.402C277.362 236.118 286.169 234.906 293.842 237.034C296.914 237.987 299.889 239.23 302.726 240.746C308.302 243.48 377.902 270.071 384.177 275.476Z" fill="#FBFBFB"/>
</g>
<g style="mix-blend-mode:multiply" opacity="0.11">
<path d="M382.872 275.877C393.744 285.197 396.462 309.225 384.239 315.469C371.689 321.775 226.463 399.172 177.91 422.827C171.544 425.973 164.554 427.656 157.454 427.751C149.312 427.978 141.244 426.163 133.985 422.47C97.4686 404.452 71.0484 391.064 61.2166 386.202C55.159 383.205 52.9535 374.786 52.3166 366.104C52.0787 362.692 52.0475 359.268 52.2234 355.852C52.3662 353.45 53.1504 351.129 54.4944 349.132C55.8384 347.135 57.693 345.535 59.8653 344.498C166.493 290.555 233.53 254.987 259.826 243.757C276.492 236.581 285.392 235.401 293.065 237.544C296.138 238.483 299.117 239.705 301.965 241.194C309.405 244.875 376.643 270.565 382.872 275.877Z" fill="#F9F9F9"/>
</g>
<g style="mix-blend-mode:multiply" opacity="0.14">
<path d="M381.566 276.266C392.253 285.337 394.893 309.132 382.778 315.314C367.153 323.158 225.375 398.923 177.754 421.849C171.443 424.983 164.499 426.635 157.453 426.679C149.36 426.88 141.347 425.037 134.155 421.321C98.4309 403.723 72.3524 390.489 61.8838 385.286C55.8573 382.304 53.6517 374.087 53.0304 365.421C52.7925 362.045 52.7614 358.658 52.9373 355.278C53.0864 352.901 53.8714 350.607 55.2103 348.637C56.5491 346.667 58.3926 345.093 60.548 344.079C163.837 291.829 233.825 254.832 259.359 243.959C275.73 236.892 284.723 235.758 292.396 237.964C295.448 238.908 298.406 240.13 301.234 241.614C310.507 246.273 375.4 271.047 381.566 276.266Z" fill="#F8F8F8"/>
</g>
<g style="mix-blend-mode:multiply" opacity="0.17">
<path d="M380.246 276.671C390.73 285.493 393.324 309.024 381.318 315.159C362.679 324.479 224.241 398.52 177.676 420.871C171.402 423.992 164.491 425.619 157.484 425.624C149.449 425.805 141.498 423.951 134.372 420.234C99.549 403.056 73.7967 389.978 62.5981 384.51C56.6182 381.559 54.4282 373.529 53.8069 364.893C53.5917 361.547 53.5917 358.19 53.8069 354.844C53.9614 352.492 54.745 350.225 56.0756 348.279C57.4063 346.334 59.2352 344.782 61.371 343.785C161.32 293.228 234.259 254.817 258.909 244.286C275 237.328 284.086 236.24 291.744 238.493C294.773 239.449 297.714 240.665 300.535 242.127C311.609 247.657 374.157 271.529 380.246 276.671Z" fill="#F6F6F6"/>
</g>
<g style="mix-blend-mode:multiply" opacity="0.19">
<path d="M378.989 277.06C389.255 285.65 391.803 308.932 379.89 315.005C358.145 325.878 223.155 398.118 177.614 419.894C171.387 422.994 164.519 424.59 157.562 424.554C149.579 424.727 141.683 422.861 134.621 419.133C100.637 402.374 75.1333 389.451 63.3289 383.595C57.3956 380.66 55.2056 372.832 54.5998 364.211C54.3925 360.901 54.3925 357.581 54.5998 354.271C54.7661 351.95 55.553 349.716 56.8782 347.803C58.2034 345.891 60.0183 344.369 62.1329 343.398C158.634 294.503 234.54 254.725 258.335 244.505C274.131 237.655 283.326 236.599 290.952 238.898C293.952 239.869 296.866 241.084 299.666 242.532C312.713 249.056 372.916 272.012 378.989 277.06Z" fill="#F5F5F5"/>
</g>
<g style="mix-blend-mode:multiply" opacity="0.22">
<path d="M377.638 277.463C387.687 285.803 390.188 308.822 378.383 314.833C353.532 327.259 221.975 397.713 177.444 418.898C171.269 422.005 164.444 423.602 157.532 423.558C149.608 423.711 141.776 421.839 134.777 418.122C101.632 401.782 76.4385 389.015 63.9662 382.817C58.0795 379.897 55.905 372.255 55.2993 363.682C55.0661 360.404 55.0402 357.115 55.2216 353.834C55.3887 351.533 56.1739 349.32 57.4943 347.428C58.8148 345.537 60.6214 344.036 62.7236 343.086C156.01 295.837 234.835 254.599 257.838 244.783C273.371 238.042 282.69 237.017 290.285 239.378C293.27 240.341 296.169 241.552 298.952 242.997C313.754 250.452 371.674 272.508 377.638 277.463Z" fill="#F3F3F3"/>
</g>
<g style="mix-blend-mode:multiply" opacity="0.25">
<path d="M376.334 277.85C386.166 285.942 388.62 308.728 376.924 314.677C348.966 328.656 220.842 397.308 177.336 417.95C171.199 421.008 164.419 422.552 157.564 422.454C149.693 422.587 141.918 420.705 134.98 416.987C102.673 401.066 77.775 388.454 64.6659 381.931C58.8103 379.042 56.6358 371.586 56.0455 363.028C55.8299 359.786 55.8299 356.532 56.0455 353.29C56.2182 351.016 57.0002 348.831 58.3094 346.964C59.6187 345.097 61.4066 343.618 63.4854 342.681C153.448 297.172 235.224 254.521 257.404 245.046C272.626 238.414 282.007 237.435 289.665 239.843C292.619 240.82 295.491 242.03 298.254 243.462C314.92 251.849 370.416 272.988 376.334 277.85Z" fill="#F2F2F2"/>
</g>
<g style="mix-blend-mode:multiply" opacity="0.28">
<path d="M375.027 278.256C384.642 286.023 387.049 308.622 375.462 314.524C344.398 330.056 219.69 396.844 177.21 417.036C171.122 420.083 164.384 421.603 157.577 421.463C150.091 421.463 144.188 420.376 135.18 415.964C103.727 400.432 79.1397 388.007 65.3627 381.172C59.5537 378.284 57.3947 371.03 56.8045 362.534C56.5886 359.333 56.5886 356.121 56.8045 352.92C56.9839 350.67 57.7668 348.51 59.0707 346.667C60.3745 344.825 62.1511 343.368 64.2133 342.451C150.758 298.51 235.471 254.446 256.843 245.406C271.769 238.882 281.26 237.951 288.901 240.389C291.829 241.377 294.68 242.581 297.429 243.993C316.036 253.172 369.172 273.473 375.027 278.256Z" fill="#F0F0F0"/>
</g>
<g style="mix-blend-mode:multiply" opacity="0.31">
<path d="M373.724 278.644C383.044 286.255 385.482 308.528 373.988 314.368C339.926 331.453 218.558 396.471 177.103 415.995C171.057 419.028 164.356 420.522 157.594 420.344C150.186 420.344 144.532 419.303 135.352 414.83C104.754 399.748 80.4773 387.447 66.0324 380.271C60.2545 377.429 58.1111 370.33 57.4742 361.896C57.2586 358.726 57.2586 355.545 57.4742 352.375C57.6647 350.152 58.4503 348.021 59.7485 346.207C61.0467 344.392 62.8096 342.96 64.852 342.062C148.151 299.861 235.799 254.383 256.286 245.607C270.933 239.177 280.516 238.292 288.142 240.777C291.052 241.771 293.887 242.975 296.623 244.38C317.141 254.631 367.931 273.953 373.724 278.644Z" fill="#EFEFEF"/>
</g>
<g style="mix-blend-mode:multiply" opacity="0.33">
<path d="M372.402 279.048C381.582 286.41 383.912 308.419 372.527 314.213C335.389 332.851 217.423 396.052 176.977 415.016C170.983 418.055 164.326 419.55 157.608 419.365C150.293 419.365 144.888 418.402 135.553 413.836C105.793 399.08 81.827 386.95 66.7919 379.432C61.045 376.59 58.9171 369.709 58.3269 361.228C58.1098 358.095 58.1098 354.95 58.3269 351.816C58.52 349.638 59.2932 347.551 60.5661 345.773C61.839 343.994 63.5651 342.59 65.5648 341.705C145.524 301.321 236.123 254.367 255.849 245.933C270.201 239.627 279.893 238.773 287.519 241.274C290.4 242.279 293.208 243.483 295.922 244.877C318.242 256.029 366.687 274.45 372.402 279.048Z" fill="#EDEDED"/>
</g>
<g style="mix-blend-mode:multiply" opacity="0.36">
<path d="M371.098 279.437C380.06 286.566 382.344 308.311 371.098 314.058C330.886 334.25 216.305 395.633 176.947 414.038C170.999 417.05 164.379 418.489 157.718 418.216C150.511 418.216 145.292 417.3 135.848 412.656C106.928 398.428 83.2566 386.438 67.507 378.594C61.8067 375.767 59.741 369.088 59.1042 360.639C58.8872 357.536 58.8872 354.422 59.1042 351.319C59.3047 349.149 60.0872 347.072 61.3693 345.309C62.6514 343.546 64.3855 342.161 66.3887 341.301C143.024 302.471 236.574 254.228 255.477 246.151C269.549 239.938 279.319 239.131 286.945 241.709C289.808 242.722 292.6 243.926 295.301 245.313C319.345 257.412 365.429 274.917 371.098 279.437Z" fill="#ECECEC"/>
</g>
<g style="mix-blend-mode:multiply" opacity="0.39">
<path d="M369.793 279.838C378.538 286.719 380.775 308.216 369.592 313.885C326.319 335.49 215.124 395.211 176.76 413.151C170.849 416.132 164.269 417.539 157.655 417.236C150.526 417.158 145.587 416.366 135.91 411.66C107.844 397.836 84.4835 386.016 68.066 377.831C62.4123 375.035 60.2999 368.512 59.7253 360.109C59.5082 357.042 59.5082 353.964 59.7253 350.898C59.9319 348.753 60.7152 346.703 61.9922 344.967C63.2692 343.23 64.9923 341.872 66.9788 341.035C140.275 303.944 236.776 254.226 254.918 246.507C268.695 240.402 278.573 239.626 286.184 242.251C289.021 243.273 291.791 244.471 294.478 245.839C320.448 258.808 364.186 275.412 369.793 279.838Z" fill="#EAEAEA"/>
</g>
<g style="mix-blend-mode:multiply" opacity="0.42">
<path d="M368.488 280.226C377 286.874 379.19 308.184 368.131 313.729C321.783 336.934 213.99 394.776 176.635 412.094C170.77 415.058 164.233 416.439 157.67 416.101C150.634 415.993 145.944 415.278 136.143 410.494C108.915 397.09 85.8653 385.425 68.7799 376.914C63.1728 374.133 61.0139 367.827 60.5013 359.425C60.2756 356.395 60.2756 353.352 60.5013 350.323C60.8585 346.098 63.3126 342.805 67.7082 340.6C137.681 305.202 237.117 254.07 254.374 246.708C267.871 240.712 277.843 239.967 285.438 242.638C288.245 243.671 290.989 244.869 293.654 246.226C321.519 260.205 362.943 275.908 368.488 280.226Z" fill="#E9E9E9"/>
</g>
<g style="mix-blend-mode:multiply" opacity="0.44">
<path d="M367.184 280.631C375.478 287.03 377.622 308.014 366.672 313.574C317.233 338.302 212.903 394.342 176.527 411.116C170.71 414.069 164.214 415.425 157.702 415.046C150.759 414.906 146.317 414.269 136.361 409.408C109.956 396.438 87.2328 384.929 69.4951 376.091C63.9191 373.327 61.8222 367.207 61.2631 358.835C61.0373 355.836 61.0373 352.825 61.2631 349.826C61.6358 345.664 64.0589 342.449 68.4389 340.259C135.072 306.554 237.46 253.993 253.893 246.973C267.095 241.101 277.191 240.387 284.771 243.121C287.565 244.142 290.293 245.335 292.941 246.693C322.654 261.604 361.686 276.468 367.184 280.631Z" fill="#E7E7E7"/>
</g>
<g style="mix-blend-mode:multiply" opacity="0.47">
<path d="M365.864 281.021C373.94 287.234 376.053 307.907 365.196 313.421C312.697 339.686 211.691 393.924 176.402 410.14C170.649 413.075 164.21 414.406 157.764 413.992C150.914 413.821 146.705 413.262 136.594 408.338C110.997 395.772 88.5371 384.418 70.1625 375.254C64.6331 372.505 62.5362 366.587 61.9926 358.169C61.7668 355.207 61.7668 352.231 61.9926 349.269C62.3861 345.127 64.7677 341.99 69.1374 339.857C132.431 307.829 237.77 253.855 253.38 247.192C266.303 241.414 276.461 240.746 284.071 243.526C286.835 244.561 289.537 245.754 292.164 247.099C323.756 262.988 360.443 276.874 365.864 281.021Z" fill="#E6E6E6"/>
</g>
<g style="mix-blend-mode:multiply" opacity="0.5">
<path d="M364.559 281.409C372.418 287.342 374.484 307.813 363.735 313.265C308.161 341.068 210.542 393.489 176.294 409.161C170.546 412.108 164.097 413.414 157.655 412.935C150.898 412.749 146.922 412.252 136.656 407.25C111.959 395.104 89.8261 383.952 70.7681 374.415C65.2853 371.682 63.1884 365.95 62.6604 357.641C62.4257 354.715 62.4257 351.775 62.6604 348.849C63.0487 344.796 65.394 341.736 69.743 339.53C129.713 309.196 238.003 253.808 252.789 247.502C265.417 241.833 275.684 241.196 283.279 244.023C286.016 245.067 288.697 246.254 291.309 247.58C324.859 264.386 359.2 277.37 364.559 281.409Z" fill="#E5E4E5"/>
</g>
<g style="mix-blend-mode:multiply" opacity="0.53">
<path d="M363.255 281.812C370.881 287.497 372.916 307.704 362.277 313.11C303.627 342.434 209.394 393.054 176.186 408.197C170.499 411.105 164.117 412.379 157.749 411.878C151.086 411.677 147.358 411.257 136.936 406.178C113.079 394.467 91.2562 383.424 71.5459 373.561C66.0941 370.858 64.0128 365.313 63.4847 357.019C63.2499 354.13 63.2499 351.226 63.4847 348.336C63.8885 344.329 66.2028 341.363 70.5363 339.204C127.182 310.547 238.392 253.777 252.371 247.781C264.704 242.221 275.079 241.568 282.659 244.504C285.379 245.552 288.044 246.739 290.642 248.061C325.978 265.783 357.943 277.852 363.255 281.812Z" fill="#E3E3E3"/>
</g>
<g style="mix-blend-mode:multiply" opacity="0.56">
<path d="M361.903 282.199C369.312 287.65 371.3 307.609 360.769 312.937C299.044 343.815 208.197 392.601 175.937 407.217C170.303 410.115 163.967 411.364 157.655 410.82C151.085 410.587 147.606 410.246 137.013 405.105C114.119 393.782 92.6066 382.894 72.2285 372.767C66.8233 370.08 64.742 364.737 64.2139 356.458C63.986 353.604 63.986 350.737 64.2139 347.884C64.6332 343.939 66.9165 341.05 71.2344 338.907C124.541 311.927 238.702 253.713 251.858 248.106C263.911 242.654 274.379 242.095 281.959 244.999C284.615 246.024 287.178 247.22 289.865 248.556C327.08 267.148 356.7 278.347 361.903 282.199Z" fill="#E2E2E2"/>
</g>
<g style="mix-blend-mode:multiply" opacity="0.58">
<path d="M360.645 282.683C367.82 287.902 369.778 307.535 359.34 312.862C294.555 345.278 207.125 392.247 175.952 406.319C167.797 410 163.806 410.124 157.795 409.829C151.302 409.581 148.072 409.301 137.323 404.082C115.159 393.21 93.9421 382.477 72.9116 371.977C67.553 369.321 65.4872 364.211 64.9591 355.917C64.7389 353.095 64.7389 350.259 64.9591 347.437C65.394 343.554 67.6306 340.742 71.9486 338.599C121.915 313.328 239.028 253.685 251.36 248.512C263.118 243.169 273.696 242.641 281.26 245.608C283.9 246.649 286.448 247.844 289.119 249.165C328.182 268.564 355.441 278.831 360.645 282.683Z" fill="#E0E0E0"/>
</g>
<g style="mix-blend-mode:multiply" opacity="0.61">
<path d="M359.34 282.991C366.283 287.977 368.209 307.408 357.88 312.627C290.02 346.564 205.945 391.716 175.828 405.26C167.611 408.957 163.775 409.004 157.811 408.693C151.427 408.413 148.491 408.227 137.51 402.931C116.2 392.462 95.2938 381.884 73.6109 371.059C68.2678 368.418 66.2176 363.448 65.705 355.231C65.4759 352.445 65.4759 349.645 65.705 346.859C66.1399 343.039 68.3455 340.32 72.6324 338.177C119.229 314.584 239.339 253.542 250.848 248.619C262.326 243.384 272.997 242.903 280.546 245.916C283.171 246.972 285.718 248.153 288.312 249.457C329.286 269.96 354.137 279.326 359.34 282.991Z" fill="#DFDFDF"/>
</g>
<g style="mix-blend-mode:multiply" opacity="0.64">
<path d="M358.021 283.395C364.762 288.148 366.641 307.299 356.468 312.472C285.486 347.916 204.781 391.266 175.72 404.282C167.426 407.994 163.745 407.979 157.827 407.637C151.614 407.326 148.772 407.218 137.635 401.844C117.164 391.794 96.5681 381.388 74.2174 370.236C68.9209 367.595 66.8862 362.827 66.4513 354.703C66.222 351.949 66.222 349.18 66.4513 346.425C66.9017 342.666 69.0763 340.026 73.3476 337.898C116.667 315.982 239.666 253.527 250.414 248.961C261.597 243.835 272.361 243.385 279.925 246.444C282.535 247.501 285.051 248.697 287.691 249.986C330.389 271.358 352.942 279.807 358.021 283.395Z" fill="#DDDDDD"/>
</g>
<g style="mix-blend-mode:multiply" opacity="0.67">
<path d="M356.715 283.785C363.223 288.305 365.071 307.208 354.944 312.318C280.934 349.331 203.63 390.817 175.595 403.32C167.254 407.033 163.713 406.939 157.857 406.582C151.644 406.24 149.143 406.209 137.929 400.758C118.297 391.143 98.0115 380.876 74.9929 369.398C69.743 366.789 67.7083 362.207 67.2268 354.037C66.9973 351.318 66.9973 348.585 67.2268 345.867C67.6928 342.155 69.8207 339.654 74.092 337.48C114.072 317.288 240.022 253.389 249.885 249.179C260.757 244.163 271.63 243.743 279.194 246.85C281.788 247.921 284.289 249.102 286.867 250.391C331.491 272.742 351.698 280.306 356.715 283.785Z" fill="#DCDCDC"/>
</g>
<g style="mix-blend-mode:multiply" opacity="0.69">
<path d="M355.411 284.235C361.624 288.522 363.504 307.145 353.485 312.193C276.477 350.697 202.466 390.366 175.518 402.279C167.1 406.007 163.714 405.852 157.905 405.386C151.785 405.028 149.517 405.059 138.132 399.545C119.354 390.335 99.3019 380.239 75.693 368.481C70.4898 365.887 68.4706 361.492 67.9269 353.353C67.6884 350.671 67.6884 347.973 67.9269 345.292C68.3929 341.642 70.4898 339.172 74.7456 337.06C111.386 318.514 240.287 253.186 249.327 249.365C259.935 244.457 270.901 244.084 278.45 247.253C281.012 248.324 283.498 249.505 286.045 250.779C332.595 274.139 350.441 280.787 355.411 284.235Z" fill="#DADADA"/>
</g>
<g style="mix-blend-mode:multiply" opacity="0.72">
<path d="M354.137 284.576C360.179 288.63 361.903 307.005 352.056 311.991C271.894 352.079 201.394 389.915 175.408 401.363C166.912 405.106 163.682 404.873 157.919 404.469C151.893 404.081 149.858 404.19 138.333 398.598C120.363 389.853 100.683 379.866 76.36 367.72C71.1877 365.157 69.1686 360.948 68.6871 352.84C68.4481 350.195 68.4481 347.533 68.6871 344.888C69.1686 341.284 71.2343 338.892 75.4591 336.796C108.838 319.959 240.752 253.17 248.891 249.722C259.22 244.923 270.279 244.581 277.812 247.796C280.375 248.884 282.844 250.064 285.361 251.307C333.697 275.537 349.198 281.284 354.137 284.576Z" fill="#D9D9D9"/>
</g>
<g style="mix-blend-mode:multiply" opacity="0.75">
<path d="M352.801 284.98C358.611 288.801 360.35 306.896 350.549 311.836C267.328 353.462 200.152 389.496 175.254 400.369C166.695 404.128 163.62 403.817 157.904 403.475C151.986 403.071 150.138 403.258 138.504 397.588C121.419 389.232 102.035 379.447 77.0438 366.959C71.9182 364.412 69.9145 360.405 69.4175 352.312C69.1851 349.703 69.1851 347.078 69.4175 344.469C69.9145 340.927 71.9337 338.613 76.1584 336.516C106.213 321.279 241.001 253.171 248.394 250.064C258.428 245.405 269.596 245.063 277.113 248.325C279.661 249.427 282.115 250.592 284.6 251.835C334.8 276.935 347.924 281.781 352.801 284.98Z" fill="#D7D7D7"/>
</g>
<g style="mix-blend-mode:multiply" opacity="0.78">
<path d="M351.496 285.368C357.072 288.972 358.78 306.803 349.088 311.68C262.792 354.828 199.001 388.999 175.128 399.405C166.492 403.18 163.572 402.807 157.919 402.357C152.094 401.937 150.541 402.186 138.69 396.454C122.443 388.486 103.385 378.856 77.6641 366.042C72.5851 363.511 70.5815 359.705 70.1 351.644C69.8573 349.061 69.8573 346.461 70.1 343.878C70.597 340.383 72.5851 338.162 76.7943 336.112C103.447 322.63 241.171 253.093 247.757 250.281C257.495 245.699 268.772 245.435 276.289 248.728C278.805 249.846 281.244 251.011 283.698 252.238C335.917 278.317 346.681 282.278 351.496 285.368Z" fill="#D6D6D6"/>
</g>
<g style="mix-blend-mode:multiply" opacity="0.81">
<path d="M350.176 285.788C355.535 289.158 357.212 306.709 347.629 311.54C258.257 356.226 197.837 388.564 175.02 398.52C166.322 402.294 163.558 401.844 157.935 401.362C152.188 400.912 150.883 401.238 138.877 395.429C123.454 387.896 104.706 378.437 78.4105 365.297C73.3625 362.78 71.3744 359.084 70.8929 351.116C70.6766 348.572 70.7026 346.013 70.9706 343.474C71.4831 340.041 73.4402 337.898 77.6338 335.832C100.932 324.028 241.622 253.077 247.385 250.623C256.844 246.15 268.213 245.963 275.715 249.272C278.232 250.39 280.639 251.57 283.078 252.782C337.052 279.715 345.424 282.774 350.176 285.788Z" fill="#D4D4D4"/>
</g>
<g style="mix-blend-mode:multiply" opacity="0.83">
<path d="M348.871 286.161C353.997 289.268 355.643 306.602 346.153 311.37C253.721 357.594 196.672 388.083 174.911 397.465C166.136 401.239 163.526 400.742 157.966 400.229C152.312 399.748 151.24 400.152 139.079 394.265C124.509 387.167 106.073 377.848 79.109 364.381C74.1077 361.881 72.1195 358.448 71.6536 350.402C71.411 347.892 71.411 345.364 71.6536 342.854C72.1817 339.483 74.0921 337.417 78.2858 335.352C98.2757 325.24 241.886 252.876 246.825 250.779C255.989 246.399 267.467 246.119 274.954 249.614C277.455 250.748 279.862 251.913 282.254 253.109C338.123 281.129 344.165 283.272 348.871 286.161Z" fill="#D3D3D3"/>
</g>
<g style="mix-blend-mode:multiply" opacity="0.86">
<path d="M347.567 286.566C352.444 289.486 354.075 306.494 344.694 311.216C249.171 358.961 195.585 387.618 174.787 396.487C165.95 400.277 163.496 399.702 157.982 399.174C152.421 398.662 151.598 399.174 139.343 393.194C125.613 386.5 107.487 377.351 79.855 363.543C74.9003 361.074 72.9277 357.828 72.4617 349.844C72.2407 347.367 72.2719 344.875 72.5549 342.404C73.083 339.096 74.9624 337.123 79.125 335.057C95.791 326.624 242.352 252.846 246.468 251.091C255.353 246.835 266.924 246.664 274.426 250.128C276.896 251.277 279.288 252.442 281.649 253.622C339.226 282.512 342.907 283.77 347.567 286.566Z" fill="#D1D1D1"/>
</g>
<g style="mix-blend-mode:multiply" opacity="0.89">
<path d="M346.262 286.953C350.922 289.671 352.475 306.399 343.156 311.059C244.558 360.342 194.28 387.166 174.601 395.507C165.685 399.297 163.387 398.614 157.935 398.116C152.468 397.588 151.877 398.116 139.405 392.106C126.513 385.893 108.698 376.837 80.3828 362.703C75.4747 360.249 73.5021 357.189 73.0516 349.237C72.8225 346.797 72.8538 344.339 73.1448 341.906C73.6885 338.644 75.5368 336.764 79.6839 334.714C93.0104 327.973 242.523 252.767 245.878 251.369C254.467 247.222 266.07 247.082 273.618 250.592C276.072 251.757 278.449 252.922 280.794 254.087C340.329 283.893 341.711 284.235 346.262 286.953Z" fill="#D0D0D0"/>
</g>
<g style="mix-blend-mode:multiply" opacity="0.92">
<path d="M344.958 287.341C349.369 289.827 350.938 306.275 341.774 310.873C240.1 361.725 193.193 386.747 174.57 394.513C165.577 398.303 163.434 397.62 158.029 397.045C152.654 396.486 152.313 397.123 139.67 391.003C127.632 385.163 110.158 376.325 81.1754 361.849C76.2828 359.411 74.3413 356.553 73.8909 348.631C73.6613 346.222 73.6925 343.796 73.9841 341.393C74.5432 338.194 76.3449 336.392 80.492 334.342C90.4792 329.278 242.943 252.705 245.412 251.618C253.722 247.564 265.495 247.455 272.966 251.027C275.405 252.192 277.75 253.357 280.065 254.522C341.432 285.291 340.391 284.779 344.958 287.341Z" fill="#CECECE"/>
</g>
<g style="mix-blend-mode:multiply" opacity="0.94">
<path d="M343.638 287.745C347.816 290.029 349.369 306.198 340.298 310.733C235.565 363.092 192.029 386.219 174.446 393.566C165.391 397.356 163.403 396.672 158.044 396.004C152.763 395.43 152.655 396.144 139.872 389.962C128.673 384.526 111.463 375.844 81.859 361.042C77.013 358.634 75.0715 355.963 74.6366 348.057C74.4022 345.689 74.4386 343.302 74.7453 340.943C75.3044 337.837 77.0751 336.066 81.2067 334.031C87.87 330.661 243.269 252.643 244.915 251.928C252.93 247.999 264.812 247.921 272.268 251.556C274.691 252.72 277.036 253.885 279.319 255.019C342.535 286.689 339.134 285.291 343.638 287.745Z" fill="#CDCDCD"/>
</g>
<g style="mix-blend-mode:multiply" opacity="0.97">
<path d="M342.332 288.148C346.277 290.214 347.799 306.088 338.837 310.577C231.029 364.473 190.862 385.737 174.336 392.586C165.203 396.361 163.371 395.569 158.059 394.947C152.871 394.357 153.011 395.134 140.072 388.874C129.712 383.873 112.813 375.33 82.6034 360.202C77.804 357.81 75.878 355.34 75.4276 347.465C75.2119 345.128 75.2536 342.774 75.5518 340.445C76.1265 337.339 77.8661 335.708 81.9666 333.688C85.306 331.995 243.656 252.564 244.464 252.207C252.23 248.37 264.174 248.339 271.63 252.02L278.619 255.484C343.637 288.071 337.874 285.787 342.332 288.148Z" fill="#CBCBCB"/>
</g>
<g style="mix-blend-mode:multiply" opacity="0.4">
<path d="M82.6201 333.315L243.906 252.548C251.361 248.82 263.43 248.82 270.885 252.548C345.3 289.825 336.462 286.33 341.028 288.613C344.741 290.477 346.232 306.072 337.378 310.498C160.529 398.907 172.147 395.692 158.091 393.968C149.284 392.896 156.802 396.22 83.2414 359.455C78.473 357.064 76.547 354.796 76.1121 346.937C75.6617 338.596 76.2053 336.468 82.6201 333.315Z" fill="#CACACA"/>
</g>
</g>
<path d="M54.5528 326.171L266.893 234.765C276.647 229.872 292.614 229.872 302.368 234.765L391.134 265.13C400.889 270.007 398.543 290.836 388.789 295.713L178.018 401.13C167.394 406.442 150.06 406.442 139.389 401.13L54.5528 358.789C47.2372 354.828 47.4546 350.029 47.2527 343.428C47.0197 336.159 45.0471 331.173 54.5528 326.171Z" fill="#EDEEEF"/>
<path d="M54.5528 326.171L266.893 234.765C276.647 229.872 292.614 229.872 302.368 234.765L391.134 265.13C400.889 270.007 398.543 290.836 388.789 295.713L178.018 401.13C167.394 406.442 150.06 406.442 139.389 401.13L54.5528 358.789C47.2372 354.828 47.4546 350.029 47.2527 343.428C47.0197 336.159 45.0471 331.173 54.5528 326.171Z" fill="url(#paint15_linear)"/>
<path d="M54.5529 326.172L266.893 219.979C276.647 215.102 292.614 215.102 302.368 219.979L388.789 263.205C398.543 268.082 398.543 276.066 388.789 280.943L178.018 386.359C167.394 391.671 150.06 391.671 139.39 386.359L54.5529 343.941C44.7988 339.064 44.7988 331.081 54.5529 326.172Z" fill="url(#paint16_linear)"/>
<path opacity="0.7" d="M380.385 269.868L293.172 226.254C288.43 224.194 283.315 223.132 278.145 223.132C272.975 223.132 267.86 224.194 263.118 226.254L56.214 329.636C52.828 331.329 52.3154 333.581 52.3154 334.777C52.3154 335.973 52.828 338.225 56.214 339.918L139.466 381.56C145.363 384.258 151.792 385.59 158.276 385.458C164.754 385.59 171.178 384.257 177.07 381.56L380.385 279.995C383.709 278.333 384.206 276.096 384.206 274.932C384.206 273.767 383.647 271.53 380.385 269.868Z" fill="url(#paint17_linear)"/>
<path style="mix-blend-mode:hard-light" d="M56.2139 329.636L179.477 268.051C181.978 270.955 184.556 273.829 189.138 275.289C199.529 278.628 210.417 272.648 222.532 276.687C242.444 283.319 207 300.28 206.223 313.001C205.54 323.143 216.49 333.767 240.394 326.824C272.592 317.505 316.595 288.802 356.45 291.955L177.07 381.56C171.173 384.259 164.744 385.592 158.26 385.458C151.777 385.59 145.347 384.258 139.451 381.56L56.1984 339.918C52.8124 338.225 52.2998 335.973 52.2998 334.777C52.2998 333.581 52.8124 331.329 56.2139 329.636Z" fill="url(#paint18_linear)"/>
<path style="mix-blend-mode:hard-light" d="M52.3154 334.775C52.3154 333.579 52.828 331.327 56.214 329.634L137.913 288.8C156.552 299.595 139.28 324.245 143.846 340.196C152.094 369.07 193.736 355.837 221.243 359.487L177.07 381.558C171.173 384.258 164.744 385.59 158.26 385.457C151.777 385.589 145.347 384.256 139.451 381.558L56.1985 339.917C52.8125 338.224 52.3154 335.971 52.3154 334.775Z" fill="url(#paint19_linear)"/>
<path d="M312.962 222.187C313.036 222.218 313.115 222.234 313.195 222.234C313.275 222.234 313.354 222.218 313.428 222.187C313.501 222.154 313.566 222.107 313.62 222.047C313.673 221.988 313.715 221.919 313.741 221.843C313.767 221.768 313.777 221.688 313.772 221.608C313.766 221.528 313.744 221.451 313.707 221.38L293.422 179.753C293.346 179.62 293.222 179.521 293.075 179.476C292.929 179.43 292.77 179.443 292.632 179.51C292.494 179.577 292.387 179.694 292.331 179.837C292.276 179.98 292.278 180.139 292.335 180.282L312.62 221.908C312.695 222.041 312.817 222.14 312.962 222.187Z" fill="url(#paint20_linear)"/>
<path d="M231.868 177.78C231.969 177.81 232.077 177.81 232.178 177.78L274.923 169.936C275.08 169.902 275.218 169.809 275.308 169.676C275.397 169.542 275.432 169.38 275.404 169.221C275.391 169.143 275.363 169.068 275.32 169C275.278 168.933 275.223 168.874 275.158 168.828C275.093 168.782 275.02 168.749 274.942 168.731C274.864 168.713 274.784 168.711 274.705 168.724L232.039 176.599C231.882 176.633 231.744 176.726 231.654 176.859C231.564 176.993 231.529 177.155 231.557 177.314C231.569 177.41 231.603 177.503 231.657 177.584C231.711 177.665 231.783 177.732 231.868 177.78Z" fill="url(#paint21_linear)"/>
<path d="M294.446 186.712L286.09 170.838L293.545 155.135L301.902 171.009L294.446 186.712Z" fill="url(#paint22_linear)"/>
<path d="M286.091 170.837L267.25 171.21L274.721 155.507L293.546 155.134L286.091 170.837Z" fill="url(#paint23_linear)"/>
<path d="M286.091 170.837L267.25 171.21L275.606 187.084L294.447 186.711L286.091 170.837Z" fill="url(#paint24_linear)"/>
<path d="M342.114 234.799L318.707 233.852L305.862 215.136L329.269 216.083L342.114 234.799Z" fill="url(#paint25_linear)"/>
<path d="M318.707 233.852L306.794 255.364L293.949 236.663L305.862 215.136L318.707 233.852Z" fill="url(#paint26_linear)"/>
<path d="M318.707 233.853L306.794 255.365L330.216 256.313L342.114 234.8L318.707 233.853Z" fill="url(#paint27_linear)"/>
<path d="M241.063 191.386L229.833 182.175L230.47 168.119L241.7 177.329L241.063 191.386Z" fill="url(#paint28_linear)"/>
<path d="M229.833 182.175L215.916 188.372L216.537 174.315L230.47 168.118L229.833 182.175Z" fill="url(#paint29_linear)"/>
<path d="M229.833 182.176L215.916 188.374L227.146 197.584L241.063 191.387L229.833 182.176Z" fill="url(#paint30_linear)"/>
<path d="M259.857 236.552H260.059L307.338 237.08C307.419 237.082 307.5 237.068 307.575 237.038C307.65 237.009 307.719 236.965 307.777 236.908C307.835 236.852 307.881 236.784 307.912 236.71C307.944 236.635 307.96 236.555 307.96 236.474C307.956 236.313 307.891 236.16 307.779 236.045C307.667 235.929 307.515 235.861 307.354 235.853L260.074 235.325C259.993 235.323 259.913 235.337 259.837 235.366C259.762 235.396 259.694 235.44 259.636 235.497C259.578 235.553 259.532 235.621 259.5 235.695C259.469 235.77 259.453 235.85 259.453 235.931C259.447 236.063 259.483 236.195 259.555 236.306C259.627 236.418 259.733 236.503 259.857 236.552Z" fill="url(#paint31_linear)"/>
<path d="M257.123 235.515C257.204 235.557 257.295 235.579 257.387 235.579C257.479 235.579 257.569 235.557 257.651 235.515C257.72 235.473 257.78 235.419 257.827 235.353C257.874 235.288 257.908 235.214 257.925 235.135C257.943 235.057 257.944 234.976 257.929 234.897C257.914 234.818 257.882 234.742 257.837 234.676L228.994 189.633C228.951 189.565 228.896 189.507 228.83 189.461C228.765 189.415 228.691 189.382 228.613 189.365C228.535 189.348 228.455 189.346 228.376 189.36C228.298 189.374 228.222 189.403 228.155 189.446C228.022 189.535 227.928 189.672 227.894 189.828C227.859 189.984 227.886 190.148 227.969 190.285L256.812 235.328C256.894 235.421 257.003 235.486 257.123 235.515Z" fill="url(#paint32_linear)"/>
<path d="M254.933 229.72C253.694 230.734 252.784 232.092 252.317 233.623C251.851 235.155 251.849 236.79 252.311 238.322C252.774 239.854 253.681 241.215 254.917 242.232C256.153 243.249 257.663 243.876 259.256 244.035C260.849 244.193 262.453 243.876 263.865 243.123C265.278 242.37 266.435 241.215 267.191 239.804C267.947 238.393 268.268 236.79 268.112 235.196C267.957 233.603 267.332 232.092 266.318 230.854C265.646 230.03 264.818 229.348 263.881 228.845C262.945 228.342 261.918 228.029 260.861 227.924C259.803 227.818 258.735 227.923 257.718 228.231C256.7 228.539 255.754 229.045 254.933 229.72Z" fill="url(#paint33_linear)"/>
<path d="M82.9145 274.157V281.752C82.9145 287.064 78.8762 292.361 70.7684 296.415C54.5839 304.507 28.3345 304.507 12.15 296.415C4.0578 292.361 0.00390625 287.096 0.00390625 281.752V274.157H82.9145Z" fill="#A2B1E4"/>
<path d="M82.9145 273.505V281.132C82.9145 286.428 78.8762 291.74 70.7684 295.778C54.5839 303.886 28.3345 303.886 12.15 295.778C4.0578 291.725 0.00390625 286.413 0.00390625 281.132V273.521L82.9145 273.505Z" fill="url(#paint34_linear)"/>
<path d="M12.15 258.857C-4.05001 266.949 -4.05001 280.074 12.15 288.166C28.3501 296.259 54.5838 296.274 70.7683 288.166C86.9528 280.059 86.9684 266.949 70.7683 258.857C54.5683 250.765 28.3345 250.749 12.15 258.857Z" fill="#FCFCFC"/>
<path d="M12.15 258.128C-4.05001 266.22 -4.05001 279.345 12.15 287.437C28.3501 295.529 54.5838 295.545 70.7683 287.437C86.9528 279.329 86.9684 266.22 70.7683 258.128C54.5683 250.036 28.3345 250.067 12.15 258.128Z" fill="url(#paint35_linear)"/>
<g style="mix-blend-mode:multiply">
<g style="mix-blend-mode:multiply" opacity="0.05">
<path d="M111.836 308.25C132.385 308.653 167.161 321.297 189.496 336.518C211.832 351.74 213.323 363.73 192.789 363.327C172.256 362.923 137.464 350.28 115.129 335.074C92.7933 319.868 91.3644 307.846 111.836 308.25Z" fill="#FCFDFF"/>
</g>
<g style="mix-blend-mode:multiply" opacity="0.1">
<path d="M113.234 309.087C133.084 309.476 166.695 321.699 188.285 336.393C209.875 351.086 211.319 362.689 191.391 362.316C171.464 361.943 138.023 349.673 116.495 334.979C94.9677 320.286 93.399 308.684 113.234 309.087Z" fill="#FAFBFF"/>
</g>
<g style="mix-blend-mode:multiply" opacity="0.14">
<path d="M114.586 309.893C133.737 310.266 166.152 322.07 186.997 336.298C207.841 350.525 209.223 361.677 190.103 361.304C170.983 360.931 138.536 349.127 117.692 334.9C96.8479 320.672 95.4345 309.52 114.586 309.893Z" fill="#F7F9FF"/>
</g>
<g style="mix-blend-mode:multiply" opacity="0.19">
<path d="M115.921 310.718C134.373 311.075 165.623 322.444 185.707 336.113C205.79 349.781 207.125 360.576 188.673 360.219C170.221 359.861 138.97 348.476 118.887 334.823C98.8042 321.171 97.4684 310.36 115.921 310.718Z" fill="#F4F7FE"/>
</g>
<g style="mix-blend-mode:multiply" opacity="0.24">
<path d="M117.257 311.539C135.025 311.897 165.096 322.831 184.418 335.987C203.74 349.143 205.029 359.518 187.276 359.177C169.522 358.835 139.452 347.916 120.115 334.729C100.777 321.542 99.5034 311.198 117.257 311.539Z" fill="#F2F5FE"/>
</g>
<g style="mix-blend-mode:multiply" opacity="0.29">
<path d="M118.608 312.38C135.694 312.706 164.552 323.253 183.129 335.849C201.705 348.446 202.932 358.464 185.862 358.138C168.793 357.812 139.918 347.265 121.342 334.653C102.765 322.041 101.538 312.038 118.608 312.38Z" fill="#EFF3FE"/>
</g>
<g style="mix-blend-mode:multiply" opacity="0.33">
<path d="M119.945 313.201C136.315 313.512 164.025 323.608 181.84 335.723C199.656 347.838 200.836 357.468 184.465 357.095C168.094 356.723 140.385 346.689 122.569 334.574C104.754 322.459 103.574 312.875 119.945 313.201Z" fill="#ECF1FE"/>
</g>
<g style="mix-blend-mode:multiply" opacity="0.38">
<path d="M121.28 314.025C136.952 314.335 163.497 323.981 180.551 335.583C197.605 347.186 198.739 356.35 183.067 356.055C167.395 355.76 140.866 346.083 123.796 334.481C106.727 322.878 105.624 313.745 121.28 314.025Z" fill="#EAEFFE"/>
</g>
<g style="mix-blend-mode:multiply" opacity="0.43">
<path d="M122.709 314.848C137.682 315.143 163.092 324.369 179.339 335.459C195.585 346.549 196.719 355.293 181.746 355.014C166.773 354.734 141.363 345.492 125.1 334.403C108.838 323.313 107.658 314.552 122.709 314.848Z" fill="#E7EDFE"/>
</g>
<g style="mix-blend-mode:multiply" opacity="0.48">
<path d="M123.966 315.672C138.24 315.952 162.424 324.759 177.972 335.32C193.519 345.882 194.544 354.254 180.255 353.959C165.965 353.664 141.797 344.873 126.265 334.311C110.733 323.749 109.692 315.393 123.966 315.672Z" fill="#E4EBFE"/>
</g>
<g style="mix-blend-mode:multiply" opacity="0.52">
<path d="M125.302 316.494C138.893 316.758 161.896 325.13 176.683 335.133C191.469 345.135 192.448 353.134 178.857 352.87C165.267 352.606 142.279 344.235 127.492 334.232C112.706 324.229 111.727 316.23 125.302 316.494Z" fill="#E2E8FD"/>
</g>
<g style="mix-blend-mode:multiply" opacity="0.57">
<path d="M126.654 317.335C139.53 317.583 161.353 325.52 175.394 335.057C189.435 344.594 190.336 352.142 177.46 351.894C164.583 351.645 142.745 343.693 128.72 334.156C114.694 324.619 113.762 317.071 126.654 317.335Z" fill="#DFE6FD"/>
</g>
<g style="mix-blend-mode:multiply" opacity="0.62">
<path d="M127.989 318.157C140.182 318.39 160.824 325.923 174.089 334.931C187.353 343.94 188.238 351.085 176.046 350.852C163.853 350.619 143.211 343.086 129.946 334.077C116.682 325.068 115.797 317.908 127.989 318.157Z" fill="#DCE4FD"/>
</g>
<g style="mix-blend-mode:multiply" opacity="0.67">
<path d="M129.325 318.981C140.834 319.198 160.296 326.281 172.815 334.792C185.334 343.304 186.157 350.029 174.663 349.812C163.169 349.595 143.708 342.496 131.173 333.985C118.639 325.473 117.831 318.763 129.325 318.981Z" fill="#DAE2FD"/>
</g>
<g style="mix-blend-mode:multiply" opacity="0.71">
<path d="M130.677 319.802C141.549 320.02 159.753 326.667 171.511 334.666C183.269 342.665 184.045 348.971 173.25 348.77C162.456 348.568 144.159 341.904 132.401 333.905C120.643 325.906 119.866 319.6 130.677 319.802Z" fill="#D7E0FD"/>
</g>
<g style="mix-blend-mode:multiply" opacity="0.76">
<path d="M132.027 320.627C142.138 320.829 159.239 327.057 170.236 334.528C181.232 341.999 181.963 347.932 171.789 347.73C161.615 347.529 144.639 341.3 133.58 333.829C122.521 326.358 121.915 320.44 132.027 320.627Z" fill="#D4DEFD"/>
</g>
<g style="mix-blend-mode:multiply" opacity="0.81">
<path d="M133.348 321.512C142.761 321.699 158.697 327.492 168.932 334.466C179.168 341.44 179.805 346.892 170.486 346.752C161.166 346.612 145.153 340.772 134.917 333.798C124.681 326.824 123.951 321.279 133.348 321.512Z" fill="#D2DCFD"/>
</g>
<g style="mix-blend-mode:multiply" opacity="0.86">
<path d="M134.699 322.289C143.412 322.445 158.152 327.819 167.642 334.28C177.132 340.742 177.754 345.821 169.04 345.65C160.327 345.479 145.571 340.151 136.096 333.659C126.622 327.166 125.985 322.119 134.699 322.289Z" fill="#CFDAFC"/>
</g>
<g style="mix-blend-mode:multiply" opacity="0.9">
<path d="M136.036 323.067C144.05 323.222 157.625 328.161 166.354 334.095C175.083 340.028 175.674 344.719 167.643 344.563C159.613 344.408 146.054 339.469 137.325 333.535C128.596 327.602 128.021 322.958 136.036 323.067Z" fill="#CCD8FC"/>
</g>
<g style="mix-blend-mode:multiply" opacity="0.95">
<path d="M137.371 323.936C144.702 324.076 157.097 328.596 165.065 334.016C173.033 339.437 173.561 343.708 166.245 343.569C158.93 343.429 146.519 338.909 138.551 333.488C130.583 328.068 130.055 323.796 137.371 323.936Z" fill="#CAD6FC"/>
</g>
<g style="mix-blend-mode:multiply">
<path d="M138.723 324.758C145.339 324.882 156.554 328.967 163.776 333.875C170.999 338.784 171.542 342.651 164.832 342.527C158.122 342.403 146.986 338.318 139.795 333.409C132.603 328.501 132.028 324.618 138.723 324.758Z" fill="#C7D4FC"/>
</g>
</g>
<path d="M232.349 287.342C232.707 283.649 232.707 279.93 232.349 276.236L222.113 270.257C221.511 265.816 220.471 261.445 219.007 257.21L227.503 255.656C225.897 251.398 224.019 247.248 221.88 243.231L212.561 242.998C211.319 240.823 210.014 238.68 208.569 236.521C207.125 234.362 205.618 232.312 204.05 230.308L208.492 223.318C205.465 219.66 202.224 216.185 198.784 212.912L192.975 218.41C189.35 215.132 185.459 212.16 181.342 209.526L180.518 198.933C176.927 196.789 173.178 194.919 169.304 193.341L168.512 203.127C164.773 201.713 160.869 200.784 156.894 200.362L151.038 189.039C147.791 188.868 144.535 189.103 141.346 189.738L127.973 196.277C125.768 198.236 123.882 200.526 122.382 203.064L101.631 209.277L109.117 222.386H110.033L91.1309 231.706L101.631 241.025L120.502 238.183L122.366 250.298L95.9614 263.252L119.601 280.663L124.696 306.074L151.1 293.12L154.207 325.66L180.612 312.69L181.419 302.921C185.38 304.365 185.768 305.53 189.511 305.887L198.831 316.993C202.079 317.168 205.336 316.928 208.523 316.278L221.88 309.739C224.102 307.788 226 305.497 227.503 302.952L219.007 292.934C220.583 289.814 221.633 286.455 222.113 282.993L232.349 287.342ZM190.785 276.702C182.025 280.989 167.813 273.876 159.053 260.829C150.293 247.782 150.277 233.694 159.053 229.407C159.053 229.407 166.167 234.89 174.927 247.952C180.897 257.142 186.196 266.751 190.785 276.702Z" fill="url(#paint36_linear)"/>
<g style="mix-blend-mode:multiply" opacity="0.3">
<g style="mix-blend-mode:multiply" opacity="0.3">
<path d="M179.215 254.723C178.019 252.735 176.776 250.747 175.487 248.79L177.708 243.338L204.113 230.384C205.677 232.372 207.183 234.443 208.633 236.597C210.077 238.756 211.382 240.9 212.625 243.074L186.22 256.028L179.215 254.723Z" fill="#6E3FDF"/>
</g>
<g style="mix-blend-mode:multiply" opacity="0.3">
<path d="M169.305 193.435H169.414L169.274 193.776L169.305 193.435Z" fill="#6E3FDF"/>
</g>
<g style="mix-blend-mode:multiply" opacity="0.3">
<path d="M154.984 222.588L181.389 209.619C185.506 212.253 189.397 215.225 193.023 218.504L166.618 231.473L154.984 222.588Z" fill="#6E3FDF"/>
</g>
<g style="mix-blend-mode:multiply" opacity="0.3">
<path d="M192.603 305.888L186.063 304.102L195.693 295.948L221.756 284.516C221.245 287.439 220.319 290.273 219.007 292.935L192.603 305.888Z" fill="#6E3FDF"/>
</g>
<g style="mix-blend-mode:multiply" opacity="0.3">
<path d="M190.46 285.555L192.603 270.256L219.148 259.849L219.707 259.741C220.802 263.172 221.607 266.69 222.114 270.256L195.71 283.225L190.46 285.555Z" fill="#6E3FDF"/>
</g>
<g style="mix-blend-mode:multiply" opacity="0.3">
<path d="M142.17 216.173L130.475 213.408L157.019 200.47C159.938 200.794 162.82 201.397 165.624 202.271L165.391 202.8L142.17 216.173Z" fill="#6E3FDF"/>
</g>
</g>
<path d="M172.441 225.959L198.784 213.005L208.492 223.411L182.133 236.381L172.441 225.959Z" fill="url(#paint37_linear)"/>
<path d="M142.962 206.389L169.304 193.435L180.519 199.027L154.176 211.98L142.962 206.389Z" fill="url(#paint38_linear)"/>
<path d="M114.989 202.802L141.347 189.833L151.039 189.134L124.697 202.088L114.989 202.802Z" fill="url(#paint39_linear)"/>
<path d="M172.441 320.023L190.785 309.787L195.491 322.694L182.133 329.233L172.441 320.023Z" fill="url(#paint40_linear)"/>
<path d="M206.007 300.297C206.357 296.609 206.357 292.896 206.007 289.207L195.709 283.259C195.109 278.817 194.068 274.447 192.603 270.212L201.083 268.658C199.495 264.396 197.622 260.244 195.476 256.233L186.157 255.984C184.915 253.81 183.61 251.666 182.165 249.507C180.721 247.348 179.199 245.298 177.645 243.294L182.072 236.321C179.051 232.657 175.815 229.177 172.38 225.898L166.618 231.428C163.002 228.137 159.11 225.165 154.984 222.544L154.176 211.935C150.581 209.797 146.833 207.928 142.962 206.343L142.17 216.129C138.4 214.74 134.471 213.827 130.474 213.411L124.634 202.088C121.386 201.914 118.129 202.154 114.942 202.802L119.384 214.218C117.858 214.648 116.372 215.209 114.942 215.896C113.536 216.593 112.203 217.43 110.966 218.396L101.647 209.341C99.4379 211.3 97.5464 213.59 96.0396 216.129L104.536 226.147C102.95 229.274 101.9 232.644 101.429 236.119L91.1314 231.754C90.7817 235.437 90.7817 239.145 91.1314 242.828L101.429 248.793C102.022 253.24 103.063 257.617 104.536 261.855L96.024 263.409C97.6245 267.669 99.5028 271.82 101.647 275.834L110.966 276.098C112.177 278.252 113.503 280.406 114.942 282.56C116.387 284.719 117.893 286.769 119.478 288.773L114.942 295.669C117.969 299.327 121.21 302.802 124.65 306.075L130.474 300.593C134.099 303.868 137.99 306.834 142.108 309.461L142.916 320.054C146.503 322.2 150.247 324.075 154.114 325.661L154.922 315.876C158.661 317.287 162.565 318.211 166.54 318.625L172.38 329.948C175.628 330.123 178.885 329.883 182.072 329.234L177.63 317.802C179.188 317.4 180.702 316.843 182.15 316.14C183.569 315.456 184.907 314.618 186.142 313.64L195.461 322.695C197.675 320.743 199.572 318.458 201.083 315.923L192.603 305.889C194.179 302.769 195.229 299.411 195.709 295.948L206.007 300.297ZM164.443 289.658C155.683 293.945 141.471 286.847 132.695 273.784C123.92 260.722 123.935 246.665 132.695 242.378C141.456 238.091 155.683 245.189 164.443 258.252C173.203 271.314 173.203 285.371 164.443 289.658Z" fill="url(#paint41_linear)"/>
<path d="M195.508 256.277L221.85 243.323L227.473 255.733L201.115 268.687L195.508 256.277Z" fill="url(#paint42_linear)"/>
<path d="M206.008 300.297L206.023 289.207L232.366 276.238L232.35 287.343L206.008 300.297Z" fill="url(#paint43_linear)"/>
<path d="M195.491 322.693L201.114 315.921L227.456 302.952L221.834 309.74L195.491 322.693Z" fill="url(#paint44_linear)"/>
<path d="M69.3856 266.189C69.8067 267.139 70.4141 267.994 71.1718 268.705C74.2782 271.019 80.8638 273.66 78.7825 275.167C76.2042 277.046 67.91 275.073 65.2696 273.613C63.53 272.588 64.3376 266.36 64.3376 266.36L69.3856 266.189Z" fill="#624A81"/>
<path d="M19.4189 264.401C19.2658 265.438 19.3239 266.494 19.5898 267.508C20.9722 271.08 25.2124 276.827 22.6962 277.013C19.5121 277.246 13.4701 271.173 12.0722 268.502C11.1403 266.7 15.1787 261.854 15.1787 261.854L19.4189 264.401Z" fill="#624A81"/>
<path d="M51.9445 184.583C48.1547 194.151 68.6416 230.201 68.1912 231.335C66.618 234.158 65.4568 237.192 64.743 240.344C63.7179 245.33 62.2268 264.76 64.013 266.313C65.7992 267.867 69.9618 267.618 69.9618 267.618C69.9618 267.618 78.3026 232.22 78.5977 230.341C78.8928 228.462 68.8591 186.758 68.5484 183.046C68.2378 179.333 51.9445 184.583 51.9445 184.583Z" fill="#8368BA"/>
<path d="M44.3635 175.201C37.9177 183.666 33.0406 215.429 31.5961 217.682C30.1516 219.934 26.253 221.86 21.9506 233.214C18.7528 242.453 16.1587 251.891 14.1846 261.467C14.1846 261.467 17.8657 264.573 19.5276 264.899C19.5276 264.899 39.3311 226.286 40.9465 222.667C42.5618 219.048 62.8778 182.579 62.8778 182.579L44.3635 175.201Z" fill="#8D6EC7"/>
<path d="M148.616 186.244C145.618 184.69 139.188 184.69 139.188 184.69L140.057 187.61C143.692 189.816 145.789 190.903 147.171 190.981C148.553 191.059 145.618 189.024 145.618 189.024C147.151 188.883 148.697 189.014 150.184 189.412C153.011 190.375 150.837 187.377 148.616 186.244Z" fill="#F6B8A0"/>
<path d="M119.772 199.525C114.289 198.609 113.559 199.23 113.559 199.23L111.027 201.141C112.689 202.694 115.205 202.306 116.712 202.321C118.276 202.145 119.859 202.277 121.372 202.709C124.168 203.657 122.242 199.929 119.772 199.525Z" fill="#F6B8A0"/>
<path d="M141.502 184.831C134.187 180.632 126.648 176.837 118.918 173.462C118.918 173.462 104.567 150.661 101.274 147.554C96.7696 143.236 95.0611 156.345 96.1018 158.893C97.1424 161.44 110.205 177.531 112.333 178.836C120.899 183.589 130.322 186.598 140.058 187.689C140.85 187.705 141.502 184.831 141.502 184.831Z" fill="url(#paint45_linear)"/>
<path d="M91.1306 142.894C83.5975 142.894 78.5961 154.248 65.751 159.979C61.5574 161.858 43.5711 169.951 44.3633 175.092C45.1554 180.233 60.5478 190.841 69.2147 190.841C73.8743 190.841 69.2147 187.409 79.4193 179.969C86.2845 175.014 97.1104 169.842 100.621 160.445C102.686 154.9 103.541 150.629 103.168 149.572C101.988 146.481 95.8523 142.894 91.1306 142.894Z" fill="url(#paint46_linear)"/>
<path d="M109.335 142.194L103.122 149.805C103.122 149.805 100.016 159.124 97.9968 159.124C96.9095 159.124 95.9931 147.91 95.7757 145.145C95.7558 144.97 95.7936 144.794 95.8833 144.642C95.9731 144.491 96.1098 144.373 96.2727 144.306C100.921 142.016 104.965 138.664 108.077 134.521C109.304 132.952 109.335 142.194 109.335 142.194Z" fill="#F6B8A0"/>
<path style="mix-blend-mode:multiply" opacity="0.3" d="M109.335 142.194L103.122 149.805C103.122 149.805 100.016 159.124 97.9968 159.124C96.9095 159.124 95.9931 147.91 95.7757 145.145C95.7558 144.97 95.7936 144.794 95.8833 144.642C95.9731 144.491 96.1098 144.373 96.2727 144.306C100.921 142.016 104.965 138.664 108.077 134.521C109.304 132.952 109.335 142.194 109.335 142.194Z" fill="url(#paint47_linear)"/>
<path d="M131.251 119.285C128.657 114.206 118.934 112.963 114.834 121.957C114.619 121.172 114.233 120.445 113.703 119.828C113.173 119.211 112.513 118.719 111.77 118.387C111.027 118.056 110.22 117.894 109.407 117.912C108.594 117.93 107.795 118.129 107.067 118.493C106.371 118.948 105.773 119.539 105.309 120.23C104.845 120.921 104.524 121.698 104.367 122.515C104.209 123.332 104.216 124.172 104.39 124.986C104.563 125.8 104.898 126.571 105.374 127.253C102.843 126.181 99.3791 128.014 100.544 132.301C100.96 133.908 101.88 135.34 103.169 136.386C104.143 137.272 105.296 137.938 106.551 138.337C107.805 138.736 109.131 138.86 110.438 138.7C116.775 138.281 124.417 136.852 125.007 131.322C130.583 129.816 133.224 123.122 131.251 119.285Z" fill="#624A81"/>
<path d="M110.283 134.834C110.578 133.389 115.921 130.376 119.058 131.494C122.475 132.721 121.202 134.336 119.913 137.847C118.018 142.941 113.575 148.875 110.904 148.564C108.574 148.3 105.204 143.221 105.607 138.981C105.623 138.981 109.273 139.664 110.283 134.834Z" fill="#F6B8A0"/>
<path d="M105.313 136.279C105.608 137.832 105.981 139.075 106.866 139.09C107.751 139.106 108.419 137.848 108.419 136.31C108.419 134.772 107.751 133.514 106.866 133.499C106.577 133.572 106.306 133.703 106.069 133.884C105.832 134.066 105.635 134.294 105.49 134.554C105.345 134.814 105.254 135.101 105.223 135.398C105.193 135.695 105.223 135.994 105.313 136.279Z" fill="#F6B8A0"/>
<path d="M113.559 199.229C108.811 192.262 103.688 185.558 98.2129 179.146C98.2129 179.146 95.2618 152.369 93.6776 148.082C91.5031 142.226 82.5255 147.849 83.1157 155.289C83.3331 158.023 88.6296 178.913 89.9654 181.041C95.5829 189.072 102.742 195.904 111.027 201.14C111.695 201.544 113.559 199.229 113.559 199.229Z" fill="url(#paint48_linear)"/>
<defs>
<linearGradient id="paint0_linear" x1="145.368" y1="124.008" x2="243.329" y2="124.008" gradientUnits="userSpaceOnUse">
<stop offset="0.44" stop-color="#5999FF"/>
<stop offset="0.56" stop-color="#4A7DD5"/>
</linearGradient>
<linearGradient id="paint1_linear" x1="154.826" y1="129.864" x2="233.885" y2="129.864" gradientUnits="userSpaceOnUse">
<stop offset="0.45" stop-color="#4B66EE"/>
<stop offset="0.54" stop-color="#333ABF"/>
</linearGradient>
<linearGradient id="paint2_linear" x1="154.826" y1="115.59" x2="233.885" y2="115.59" gradientUnits="userSpaceOnUse">
<stop stop-color="#D85FD1"/>
<stop offset="1" stop-color="#9156FD"/>
</linearGradient>
<linearGradient id="paint3_linear" x1="14723" y1="2303.62" x2="17681.7" y2="2303.62" gradientUnits="userSpaceOnUse">
<stop offset="0.44" stop-color="#5999FF"/>
<stop offset="0.56" stop-color="#4A7DD5"/>
</linearGradient>
<linearGradient id="paint4_linear" x1="12198.8" y1="4848.65" x2="14128.3" y2="4848.65" gradientUnits="userSpaceOnUse">
<stop offset="0.45" stop-color="#4B66EE"/>
<stop offset="0.54" stop-color="#333ABF"/>
</linearGradient>
<linearGradient id="paint5_linear" x1="12193.2" y1="3140.54" x2="14121.7" y2="3140.54" gradientUnits="userSpaceOnUse">
<stop stop-color="#D85FD1"/>
<stop offset="1" stop-color="#9156FD"/>
</linearGradient>
<linearGradient id="paint6_linear" x1="13003.9" y1="1192.21" x2="16421.4" y2="1192.21" gradientUnits="userSpaceOnUse">
<stop offset="0.44" stop-color="#5999FF"/>
<stop offset="0.56" stop-color="#4A7DD5"/>
</linearGradient>
<linearGradient id="paint7_linear" x1="10824.6" y1="2585.64" x2="13050.9" y2="2585.64" gradientUnits="userSpaceOnUse">
<stop offset="0.45" stop-color="#4B66EE"/>
<stop offset="0.54" stop-color="#333ABF"/>
</linearGradient>
<linearGradient id="paint8_linear" x1="10811.6" y1="1562.89" x2="13035.2" y2="1562.89" gradientUnits="userSpaceOnUse">
<stop stop-color="#D85FD1"/>
<stop offset="1" stop-color="#9156FD"/>
</linearGradient>
<linearGradient id="paint9_linear" x1="194.357" y1="120.374" x2="194.357" y2="97.0908" gradientUnits="userSpaceOnUse">
<stop stop-color="#8D2BE5"/>
<stop offset="1" stop-color="#8D2BE5"/>
</linearGradient>
<linearGradient id="paint10_linear" x1="180.44" y1="96.6553" x2="208.258" y2="96.6553" gradientUnits="userSpaceOnUse">
<stop stop-color="#C997F5"/>
<stop offset="1" stop-color="#C997F5"/>
</linearGradient>
<linearGradient id="paint11_linear" x1="2992.49" y1="714.969" x2="3361.29" y2="714.969" gradientUnits="userSpaceOnUse">
<stop stop-color="#C997F5"/>
<stop offset="1" stop-color="#C997F5"/>
</linearGradient>
<linearGradient id="paint12_linear" x1="185.379" y1="84.0113" x2="185.379" y2="-0.00210819" gradientUnits="userSpaceOnUse">
<stop stop-color="#EE5360"/>
<stop offset="0.98" stop-color="#F3BA93"/>
</linearGradient>
<linearGradient id="paint13_linear" x1="216.491" y1="85.2365" x2="216.491" y2="20.1568" gradientUnits="userSpaceOnUse">
<stop stop-color="#F06B76"/>
<stop offset="0.98" stop-color="#F1BF8C"/>
</linearGradient>
<linearGradient id="paint14_linear" x1="164.504" y1="82.3803" x2="164.504" y2="30.9689" gradientUnits="userSpaceOnUse">
<stop stop-color="#F0737E"/>
<stop offset="0.98" stop-color="#F0B69E"/>
</linearGradient>
<linearGradient id="paint15_linear" x1="7550.16" y1="34540.5" x2="68296.4" y2="42266.8" gradientUnits="userSpaceOnUse">
<stop offset="0.45" stop-color="#4B66EE"/>
<stop offset="0.54" stop-color="#333ABF"/>
</linearGradient>
<linearGradient id="paint16_linear" x1="396.105" y1="303.34" x2="47.2373" y2="303.34" gradientUnits="userSpaceOnUse">
<stop stop-color="#C4A6F2"/>
<stop offset="1" stop-color="#CBB7FA"/>
</linearGradient>
<linearGradient id="paint17_linear" x1="52.3154" y1="304.303" x2="384.191" y2="304.303" gradientUnits="userSpaceOnUse">
<stop stop-color="#9B88FC"/>
<stop offset="1" stop-color="#8069F2"/>
</linearGradient>
<linearGradient id="paint18_linear" x1="103.556" y1="361.741" x2="261.766" y2="283.536" gradientUnits="userSpaceOnUse">
<stop stop-color="#9357FA"/>
<stop offset="0.22" stop-color="#8658FA"/>
<stop offset="1" stop-color="#5A5CFA"/>
</linearGradient>
<linearGradient id="paint19_linear" x1="221.243" y1="337.136" x2="52.3154" y2="337.136" gradientUnits="userSpaceOnUse">
<stop stop-color="#5A5CFA"/>
<stop offset="0.78" stop-color="#8658FA"/>
<stop offset="1" stop-color="#9357FA"/>
</linearGradient>
<linearGradient id="paint20_linear" x1="318.498" y1="220.403" x2="289.348" y2="184.775" gradientUnits="userSpaceOnUse">
<stop stop-color="#FFABEF"/>
<stop offset="1" stop-color="#F878F4"/>
</linearGradient>
<linearGradient id="paint21_linear" x1="11881" y1="-332.131" x2="12506.5" y2="-332.131" gradientUnits="userSpaceOnUse">
<stop stop-color="#FFABEF"/>
<stop offset="1" stop-color="#F878F4"/>
</linearGradient>
<linearGradient id="paint22_linear" x1="324.594" y1="150.211" x2="271.381" y2="186.23" gradientUnits="userSpaceOnUse">
<stop stop-color="#E62A54"/>
<stop offset="1" stop-color="#E876AA"/>
</linearGradient>
<linearGradient id="paint23_linear" x1="5647.4" y1="1729.44" x2="4087.19" y2="2484.76" gradientUnits="userSpaceOnUse">
<stop stop-color="#E62A54"/>
<stop offset="1" stop-color="#E876AA"/>
</linearGradient>
<linearGradient id="paint24_linear" x1="4912.46" y1="2328.06" x2="5147.32" y2="1638.6" gradientUnits="userSpaceOnUse">
<stop stop-color="#E62A54"/>
<stop offset="1" stop-color="#E876AA"/>
</linearGradient>
<linearGradient id="paint25_linear" x1="305.866" y1="214.967" x2="341.951" y2="234.928" gradientUnits="userSpaceOnUse">
<stop stop-color="#AB29EE"/>
<stop offset="1" stop-color="#B870FF"/>
</linearGradient>
<linearGradient id="paint26_linear" x1="297.371" y1="230.325" x2="315.135" y2="240.151" gradientUnits="userSpaceOnUse">
<stop stop-color="#9D1DE3"/>
<stop offset="1" stop-color="#AC2FF5"/>
</linearGradient>
<linearGradient id="paint27_linear" x1="18536.9" y1="-6976.09" x2="19013" y2="-6976.09" gradientUnits="userSpaceOnUse">
<stop stop-color="#9D1DE3"/>
<stop offset="1" stop-color="#AC2FF5"/>
</linearGradient>
<linearGradient id="paint28_linear" x1="4635.19" y1="1728.48" x2="4714.61" y2="1906.93" gradientUnits="userSpaceOnUse">
<stop stop-color="#AB29EE"/>
<stop offset="1" stop-color="#B870FF"/>
</linearGradient>
<linearGradient id="paint29_linear" x1="4365.12" y1="2685.13" x2="4413.05" y2="2792.83" gradientUnits="userSpaceOnUse">
<stop stop-color="#9D1DE3"/>
<stop offset="1" stop-color="#AC2FF5"/>
</linearGradient>
<linearGradient id="paint30_linear" x1="4988.85" y1="5988.03" x2="5074.33" y2="6180.1" gradientUnits="userSpaceOnUse">
<stop stop-color="#9D1DE3"/>
<stop offset="1" stop-color="#AC2FF5"/>
</linearGradient>
<linearGradient id="paint31_linear" x1="10873.4" y1="157.151" x2="11859.5" y2="157.151" gradientUnits="userSpaceOnUse">
<stop stop-color="#FFABEF"/>
<stop offset="1" stop-color="#F878F4"/>
</linearGradient>
<linearGradient id="paint32_linear" x1="7441.73" y1="-1379.17" x2="8493.84" y2="-1379.17" gradientUnits="userSpaceOnUse">
<stop stop-color="#FFABEF"/>
<stop offset="1" stop-color="#F878F4"/>
</linearGradient>
<linearGradient id="paint33_linear" x1="257.899" y1="230.211" x2="264.444" y2="244.921" gradientUnits="userSpaceOnUse">
<stop stop-color="#BE6248"/>
<stop offset="1" stop-color="#F6AF85"/>
</linearGradient>
<linearGradient id="paint34_linear" x1="82.9145" y1="287.671" x2="0.00390625" y2="287.671" gradientUnits="userSpaceOnUse">
<stop stop-color="#9C79EE"/>
<stop offset="1" stop-color="#8258BF"/>
</linearGradient>
<linearGradient id="paint35_linear" x1="-16947.2" y1="7530.48" x2="-21373.1" y2="7530.48" gradientUnits="userSpaceOnUse">
<stop stop-color="#D85FD1"/>
<stop offset="1" stop-color="#9156FD"/>
</linearGradient>
<linearGradient id="paint36_linear" x1="232.613" y1="257.365" x2="91.1309" y2="257.365" gradientUnits="userSpaceOnUse">
<stop stop-color="#8B6EEF"/>
<stop offset="1" stop-color="#7335DF"/>
</linearGradient>
<linearGradient id="paint37_linear" x1="4804.16" y1="3594.56" x2="5640.52" y2="3594.56" gradientUnits="userSpaceOnUse">
<stop stop-color="#8B6EEF"/>
<stop offset="1" stop-color="#7335DF"/>
</linearGradient>
<linearGradient id="paint38_linear" x1="5644.27" y1="2613.79" x2="6552.39" y2="2613.79" gradientUnits="userSpaceOnUse">
<stop stop-color="#8B6EEF"/>
<stop offset="1" stop-color="#7335DF"/>
</linearGradient>
<linearGradient id="paint39_linear" x1="6079.84" y1="1913.66" x2="6916.56" y2="1913.66" gradientUnits="userSpaceOnUse">
<stop stop-color="#8B6EEF"/>
<stop offset="1" stop-color="#7335DF"/>
</linearGradient>
<linearGradient id="paint40_linear" x1="3326.56" y1="4310.08" x2="3668.62" y2="4310.08" gradientUnits="userSpaceOnUse">
<stop stop-color="#8B6EEF"/>
<stop offset="1" stop-color="#7335DF"/>
</linearGradient>
<linearGradient id="paint41_linear" x1="206.271" y1="266.018" x2="90.8673" y2="266.018" gradientUnits="userSpaceOnUse">
<stop stop-color="#FAA0F5"/>
<stop offset="1" stop-color="#9B66FF"/>
</linearGradient>
<linearGradient id="paint42_linear" x1="3911.78" y1="4423.82" x2="4569.62" y2="4423.82" gradientUnits="userSpaceOnUse">
<stop stop-color="#8B6EEF"/>
<stop offset="1" stop-color="#7335DF"/>
</linearGradient>
<linearGradient id="paint43_linear" x1="3187.1" y1="4741.64" x2="3634.66" y2="4741.64" gradientUnits="userSpaceOnUse">
<stop stop-color="#8B6EEF"/>
<stop offset="1" stop-color="#7335DF"/>
</linearGradient>
<linearGradient id="paint44_linear" x1="3911.76" y1="4279.06" x2="4569.6" y2="4279.06" gradientUnits="userSpaceOnUse">
<stop stop-color="#8B6EEF"/>
<stop offset="1" stop-color="#7335DF"/>
</linearGradient>
<linearGradient id="paint45_linear" x1="4821.64" y1="5774.45" x2="1508.88" y2="2339.67" gradientUnits="userSpaceOnUse">
<stop stop-color="#E62A54"/>
<stop offset="1" stop-color="#E876AA"/>
</linearGradient>
<linearGradient id="paint46_linear" x1="3834.34" y1="5802.65" x2="1552.58" y2="3645.87" gradientUnits="userSpaceOnUse">
<stop stop-color="#E62A54"/>
<stop offset="1" stop-color="#E876AA"/>
</linearGradient>
<linearGradient id="paint47_linear" x1="109.335" y1="146.714" x2="95.8533" y2="146.714" gradientUnits="userSpaceOnUse">
<stop stop-color="#E6AE96"/>
<stop offset="1" stop-color="#E6AE96"/>
</linearGradient>
<linearGradient id="paint48_linear" x1="2366.88" y1="8132.18" x2="-720.245" y2="4087.25" gradientUnits="userSpaceOnUse">
<stop stop-color="#E62A54"/>
<stop offset="1" stop-color="#E876AA"/>
</linearGradient>
</defs>
</svg>
