<svg width="136" height="164" viewBox="0 0 136 164" fill="none" xmlns="http://www.w3.org/2000/svg">
<path d="M68.8702 104.13C55.5102 104.13 40.5202 101.44 37.1602 95.4201L40.9702 93.2901C42.4302 95.8901 52.3102 99.7501 68.8702 99.7501C84.7402 99.7501 95.0601 95.3301 96.3801 92.8501L100.24 94.9001C97.4402 100.16 83.9602 104.13 68.8702 104.13Z" fill="url(#paint0_linear)"/>
<path d="M68.8698 117.19C61.5063 117.31 54.1621 116.401 47.0498 114.49L48.2998 110.3C55.0071 112.086 61.93 112.93 68.8698 112.81C75.8586 112.908 82.8187 111.896 89.4898 109.81L90.8998 113.96C83.7727 116.192 76.3375 117.282 68.8698 117.19Z" fill="url(#paint1_linear)"/>
<path d="M68.8699 129.61C62.5004 129.677 56.1437 129.026 49.9199 127.67L50.9199 123.41C56.8152 124.694 62.8368 125.308 68.8699 125.24C74.9409 125.307 80.9937 124.567 86.8699 123.04L88.0199 127.26C81.7663 128.875 75.3284 129.665 68.8699 129.61Z" fill="url(#paint2_linear)"/>
<path d="M99.1498 153.54L99.0898 140.54C99.253 122.793 104.878 105.527 115.2 91.0901L117.28 88.2001C117.678 87.6551 118.276 87.2904 118.942 87.1863C119.609 87.0822 120.29 87.2473 120.835 87.6451C121.38 88.0429 121.745 88.641 121.849 89.3077C121.953 89.9744 121.788 90.6551 121.39 91.2001L119.3 94.0901C109.602 107.662 104.316 123.89 104.16 140.57V141.9L104.22 153.55C104.223 154.222 103.959 154.868 103.487 155.346C103.014 155.824 102.372 156.095 101.7 156.1C101.364 156.101 101.031 156.036 100.72 155.908C100.409 155.779 100.127 155.591 99.8902 155.353C99.653 155.115 99.4655 154.832 99.3384 154.521C99.2113 154.209 99.1472 153.876 99.1498 153.54ZM123.8 83.5401C123.529 83.3456 123.3 83.0995 123.125 82.8161C122.95 82.5326 122.832 82.2174 122.779 81.8885C122.727 81.5596 122.739 81.2235 122.816 80.8994C122.894 80.5753 123.034 80.2697 123.23 80.0001L125.61 76.7101C125.807 76.4409 126.055 76.2131 126.34 76.0398C126.625 75.8664 126.941 75.7509 127.271 75.6999C127.601 75.6488 127.937 75.6631 128.261 75.7421C128.585 75.8211 128.891 75.9631 129.16 76.1601C129.429 76.3571 129.657 76.6052 129.83 76.8902C130.003 77.1752 130.119 77.4915 130.17 77.8212C130.221 78.1508 130.207 78.4873 130.128 78.8114C130.049 79.1355 129.907 79.4409 129.71 79.7101L127.34 82.9901C127.105 83.3162 126.795 83.5816 126.437 83.7642C126.079 83.9468 125.682 84.0414 125.28 84.0401C124.746 84.0317 124.229 83.8569 123.8 83.5401Z" fill="url(#paint3_linear)"/>
<path d="M113.22 144.07C112.603 143.942 112.055 143.588 111.685 143.077C111.315 142.567 111.149 141.937 111.22 141.31V141.02C111.658 132.437 113.384 123.969 116.34 115.9C116.569 115.269 117.04 114.755 117.649 114.471C118.257 114.186 118.954 114.156 119.585 114.385C120.216 114.614 120.73 115.085 121.015 115.694C121.299 116.302 121.329 116.999 121.1 117.63C118.326 125.212 116.708 133.167 116.3 141.23C116.3 141.74 116.23 142.03 116.22 142.11C116.097 142.676 115.784 143.183 115.333 143.547C114.881 143.911 114.319 144.11 113.74 144.11C113.566 144.116 113.391 144.103 113.22 144.07ZM121.59 109.73C121.293 109.581 121.029 109.374 120.812 109.122C120.595 108.87 120.429 108.578 120.325 108.262C120.221 107.946 120.181 107.613 120.205 107.282C120.23 106.95 120.32 106.627 120.47 106.33C121.09 105.1 121.74 103.88 122.47 102.64C122.803 102.057 123.354 101.629 124.002 101.452C124.65 101.275 125.342 101.362 125.925 101.695C126.508 102.028 126.936 102.579 127.113 103.227C127.29 103.875 127.203 104.567 126.87 105.15C126.21 106.31 125.59 107.46 125.01 108.61C124.797 109.033 124.469 109.387 124.064 109.633C123.659 109.879 123.194 110.006 122.72 110C122.327 110.002 121.94 109.909 121.59 109.73Z" fill="#BFEB6B"/>
<path d="M34.7204 155.07C34.3882 155.068 34.0594 155.002 33.753 154.873C33.4465 154.745 33.1683 154.558 32.9343 154.322C32.7003 154.086 32.5151 153.806 32.3892 153.499C32.2632 153.191 32.1991 152.862 32.2004 152.53L32.2604 140.87V139.55C32.1032 122.873 26.8173 106.649 17.1204 93.0798L15.0304 90.1898C14.6326 89.6448 14.4676 88.964 14.5717 88.2973C14.6757 87.6306 15.0404 87.0326 15.5854 86.6348C16.1304 86.2369 16.8112 86.0719 17.4778 86.176C18.1445 86.2801 18.7426 86.6448 19.1404 87.1898L21.2304 90.0698C31.5453 104.51 37.1663 121.775 37.3304 139.52L37.2704 152.52C37.2731 152.855 37.2089 153.188 37.0817 153.499C36.9545 153.809 36.7668 154.092 36.5295 154.329C36.2922 154.566 36.01 154.754 35.6994 154.881C35.3888 155.008 35.056 155.072 34.7204 155.07ZM11.1204 83.0698C10.7202 83.0687 10.3258 82.973 9.96955 82.7905C9.61329 82.608 9.30518 82.3439 9.07038 82.0198L6.69037 78.7298C6.29255 78.1847 6.12755 77.504 6.23163 76.8373C6.33572 76.1707 6.70041 75.5726 7.24543 75.1748C7.79045 74.777 8.47113 74.6119 9.13782 74.716C9.80452 74.8201 10.4026 75.1847 10.8004 75.7298L13.1704 79.0198C13.5641 79.564 13.7262 80.242 13.6212 80.9054C13.5163 81.5688 13.1528 82.1637 12.6104 82.5598C12.1634 82.8753 11.6274 83.04 11.0804 83.0298L11.1204 83.0698Z" fill="url(#paint4_linear)"/>
<path d="M22.6196 143.14C22.0413 143.139 21.4808 142.94 21.0314 142.576C20.5819 142.212 20.2707 141.705 20.1496 141.14C20.1003 140.852 20.0735 140.562 20.0696 140.27C19.6523 132.204 18.031 124.246 15.2596 116.66C15.0775 116.039 15.1391 115.372 15.4319 114.795C15.7248 114.218 16.2267 113.775 16.8353 113.556C17.4439 113.336 18.1133 113.357 18.7069 113.614C19.3005 113.872 19.7736 114.346 20.0296 114.94C22.9783 123.007 24.6975 131.472 25.1296 140.05V140.34C25.1977 140.966 25.0308 141.595 24.6612 142.105C24.2917 142.615 23.7458 142.97 23.1296 143.1C22.9615 143.131 22.7906 143.145 22.6196 143.14ZM13.6196 109.01C13.1514 109.009 12.6925 108.879 12.2937 108.633C11.8949 108.388 11.5716 108.037 11.3596 107.62C10.7796 106.47 10.1596 105.32 9.49962 104.15C9.1681 103.565 9.08243 102.873 9.26153 102.225C9.44062 101.577 9.86978 101.026 10.4546 100.695C11.0394 100.363 11.7319 100.278 12.3799 100.457C13.0278 100.636 13.5781 101.065 13.9096 101.65C14.6096 102.88 15.2696 104.11 15.9096 105.33C16.1067 105.716 16.2012 106.146 16.1841 106.58C16.167 107.013 16.0388 107.434 15.8119 107.804C15.585 108.173 15.2671 108.478 14.8884 108.69C14.5098 108.901 14.0832 109.011 13.6496 109.01H13.6196Z" fill="#BFEB6B"/>
<path d="M62.1799 29.1502L62.0898 24.7802C65.7698 24.7002 69.5599 24.7002 73.2399 24.7802L73.1398 29.1502C69.5298 29.0702 65.7999 29.0802 62.1799 29.1502Z" fill="url(#paint5_linear)"/>
<path d="M95.9997 30.6801C92.4097 30.2401 88.5796 29.9001 84.6396 29.6801L84.9097 25.3101C88.9097 25.5701 92.8497 25.9201 96.5297 26.3701L95.9997 30.6801Z" fill="url(#paint6_linear)"/>
<path d="M38.9101 30.8L38.3701 26.4501C42.3001 25.9701 46.3701 25.5901 50.3701 25.3101L50.6701 29.6701C46.7201 29.9501 42.7201 30.33 38.9101 30.8Z" fill="url(#paint7_linear)"/>
<path d="M64.3203 59.22H59.9503V4.37H52.7404V58.68H48.3604V0H64.3203V59.22Z" fill="url(#paint8_linear)"/>
<path d="M75.3798 59.98H71.0098V11.0601H86.9698V59.48H82.5898V15.44H75.3798V59.98Z" fill="url(#paint9_linear)"/>
<path d="M98.84 58.1198H94.46V40.2998H118.51V54.2598H114.13V44.6698H98.84V58.1198Z" fill="url(#paint10_linear)"/>
<path d="M41.0099 59.0902L37.1199 57.0902C37.7012 55.9616 38.003 54.7098 37.9999 53.4402C37.9999 51.2973 37.1487 49.2421 35.6334 47.7268C34.1181 46.2115 32.0629 45.3602 29.9199 45.3602C27.777 45.3602 25.7218 46.2115 24.2065 47.7268C22.6912 49.2421 21.8399 51.2973 21.8399 53.4402C21.825 53.7134 21.825 53.9871 21.8399 54.2602L17.4799 54.7102C17.4799 54.2902 17.4199 53.8602 17.4199 53.4402C17.4199 50.1383 18.7316 46.9716 21.0664 44.6367C23.4012 42.3019 26.568 40.9902 29.8699 40.9902C33.1719 40.9902 36.3386 42.3019 38.6734 44.6367C41.0082 46.9716 42.3199 50.1383 42.3199 53.4402C42.3402 55.4011 41.8911 57.3384 41.0099 59.0902Z" fill="url(#paint11_linear)"/>
<path d="M69.9202 73.6702H66.5202C63.3202 73.6702 60.0802 73.5302 56.9102 73.3702C56.3491 73.3164 55.8303 73.0484 55.4618 72.6218C55.0932 72.1953 54.9034 71.643 54.9317 71.08C54.9601 70.517 55.2044 69.9866 55.6139 69.5992C56.0234 69.2118 56.5665 68.9973 57.1302 69.0002C60.2402 69.1502 63.4202 69.2502 66.5802 69.2902C74.8202 69.4002 82.7902 69.1202 90.3302 68.4702C90.6235 68.4321 90.9216 68.4538 91.2063 68.5341C91.491 68.6143 91.7564 68.7514 91.9867 68.937C92.217 69.1227 92.4073 69.353 92.5461 69.6142C92.6849 69.8754 92.7694 70.162 92.7944 70.4568C92.8194 70.7515 92.7844 71.0482 92.6916 71.3291C92.5988 71.6099 92.4501 71.8691 92.2544 72.0909C92.0587 72.3127 91.8201 72.4925 91.553 72.6196C91.2859 72.7467 90.9958 72.8183 90.7002 72.8302C84.0602 73.3802 77.0702 73.6702 69.9202 73.6702ZM48.2902 72.7702H48.1102L44.5902 72.4502C44.3039 72.4213 44.0262 72.3363 43.7727 72.2C43.5193 72.0638 43.2952 71.879 43.1132 71.6561C42.9312 71.4332 42.7949 71.1767 42.712 70.9012C42.6291 70.6256 42.6013 70.3364 42.6302 70.0502C42.6591 69.7639 42.7441 69.4861 42.8804 69.2327C43.0166 68.9792 43.2014 68.7551 43.4243 68.5731C43.6471 68.3911 43.9037 68.2548 44.1792 68.1719C44.4548 68.0891 44.744 68.0613 45.0302 68.0902C46.1602 68.2102 47.3102 68.3102 48.4802 68.4102C49.0389 68.4635 49.5557 68.7293 49.9241 69.1527C50.2925 69.5761 50.4843 70.1247 50.4599 70.6854C50.4355 71.2461 50.1968 71.776 49.7931 72.1658C49.3894 72.5556 48.8514 72.7755 48.2902 72.7802V72.7702Z" fill="url(#paint12_linear)"/>
<path d="M55.9296 149.9C55.9296 149.295 55.7501 148.703 55.4138 148.2C55.0776 147.697 54.5997 147.304 54.0405 147.073C53.4814 146.841 52.8662 146.781 52.2726 146.899C51.679 147.017 51.1338 147.308 50.7058 147.736C50.2779 148.164 49.9864 148.709 49.8684 149.303C49.7503 149.896 49.8109 150.512 50.0425 151.071C50.2741 151.63 50.6663 152.108 51.1695 152.444C51.6727 152.78 52.2644 152.96 52.8696 152.96C53.6812 152.96 54.4594 152.637 55.0333 152.064C55.6071 151.49 55.9296 150.711 55.9296 149.9Z" fill="url(#paint13_linear)"/>
<path d="M66.4901 149.9C66.4901 149.295 66.3106 148.703 65.9744 148.2C65.6381 147.697 65.1602 147.304 64.6011 147.073C64.042 146.841 63.4267 146.781 62.8332 146.899C62.2396 147.017 61.6943 147.308 61.2664 147.736C60.8384 148.164 60.547 148.709 60.4289 149.303C60.3108 149.896 60.3714 150.512 60.603 151.071C60.8347 151.63 61.2268 152.108 61.7301 152.444C62.2333 152.78 62.8249 152.96 63.4301 152.96C64.2417 152.96 65.02 152.637 65.5938 152.064C66.1677 151.49 66.4901 150.711 66.4901 149.9Z" fill="url(#paint14_linear)"/>
<path d="M77.0604 149.9C77.0604 149.295 76.8809 148.703 76.5447 148.2C76.2085 147.697 75.7305 147.304 75.1714 147.073C74.6123 146.841 73.997 146.781 73.4035 146.899C72.8099 147.017 72.2646 147.308 71.8367 147.736C71.4087 148.164 71.1173 148.709 70.9992 149.303C70.8812 149.896 70.9418 150.512 71.1734 151.071C71.405 151.63 71.7972 152.108 72.3004 152.444C72.8036 152.78 73.3952 152.96 74.0004 152.96C74.812 152.96 75.5903 152.637 76.1641 152.064C76.738 151.49 77.0604 150.711 77.0604 149.9Z" fill="url(#paint15_linear)"/>
<path d="M87.62 149.9C87.62 149.295 87.4405 148.703 87.1043 148.2C86.768 147.697 86.2901 147.304 85.731 147.073C85.1718 146.841 84.5566 146.781 83.963 146.899C83.3695 147.017 82.8242 147.308 82.3963 147.736C81.9683 148.164 81.6769 148.709 81.5588 149.303C81.4407 149.896 81.5013 150.512 81.7329 151.071C81.9645 151.63 82.3567 152.108 82.8599 152.444C83.3632 152.78 83.9548 152.96 84.56 152.96C85.3716 152.96 86.1499 152.637 86.7237 152.064C87.2976 151.49 87.62 150.711 87.62 149.9Z" fill="url(#paint16_linear)"/>
<path d="M55.9296 160.57C55.9296 159.965 55.7501 159.373 55.4138 158.87C55.0776 158.366 54.5997 157.974 54.0405 157.743C53.4814 157.511 52.8662 157.45 52.2726 157.569C51.679 157.687 51.1338 157.978 50.7058 158.406C50.2779 158.834 49.9864 159.379 49.8684 159.973C49.7503 160.566 49.8109 161.182 50.0425 161.741C50.2741 162.3 50.6663 162.778 51.1695 163.114C51.6727 163.45 52.2644 163.63 52.8696 163.63C53.6812 163.63 54.4594 163.307 55.0333 162.734C55.6071 162.16 55.9296 161.381 55.9296 160.57Z" fill="url(#paint17_linear)"/>
<path d="M66.4901 160.57C66.4901 159.965 66.3106 159.373 65.9744 158.87C65.6381 158.366 65.1602 157.974 64.6011 157.743C64.042 157.511 63.4267 157.45 62.8332 157.569C62.2396 157.687 61.6943 157.978 61.2664 158.406C60.8384 158.834 60.547 159.379 60.4289 159.973C60.3108 160.566 60.3714 161.182 60.603 161.741C60.8347 162.3 61.2268 162.778 61.7301 163.114C62.2333 163.45 62.8249 163.63 63.4301 163.63C64.2417 163.63 65.02 163.307 65.5938 162.734C66.1677 162.16 66.4901 161.381 66.4901 160.57Z" fill="url(#paint18_linear)"/>
<path d="M73.9995 163.63C75.6895 163.63 77.0595 162.26 77.0595 160.57C77.0595 158.88 75.6895 157.51 73.9995 157.51C72.3095 157.51 70.9395 158.88 70.9395 160.57C70.9395 162.26 72.3095 163.63 73.9995 163.63Z" fill="url(#paint19_linear)"/>
<path d="M87.62 160.57C87.62 159.965 87.4405 159.373 87.1043 158.87C86.768 158.366 86.2901 157.974 85.731 157.743C85.1718 157.511 84.5566 157.45 83.963 157.569C83.3695 157.687 82.8242 157.978 82.3963 158.406C81.9683 158.834 81.6769 159.379 81.5588 159.973C81.4407 160.566 81.5013 161.182 81.7329 161.741C81.9645 162.3 82.3567 162.778 82.8599 163.114C83.3632 163.45 83.9548 163.63 84.56 163.63C85.3716 163.63 86.1499 163.307 86.7237 162.734C87.2976 162.16 87.62 161.381 87.62 160.57Z" fill="url(#paint20_linear)"/>
<path d="M89.4499 142.65H48.3199V129.97C48.4899 126.78 48.4899 109.74 32.1299 88.0798L2.12988 48.3498L5.47992 45.5498C10.9899 51.5498 34.1999 57.5498 67.8899 57.5498C101.83 57.5498 125.46 51.2398 130.46 45.2998L133.9 47.9998L104.64 88.4398C90.8099 107.57 89.3999 123.73 89.4299 129.79C89.4299 129.96 89.4299 130.1 89.4299 130.22L89.4499 142.65ZM52.7199 138.28H85.0899V129.84C85.0899 123.35 86.5399 106.07 101.09 85.8998L124.09 54.1498C111.89 58.8998 91.1799 61.8998 67.8899 61.8998C44.9699 61.8998 24.3799 58.8998 12.1099 54.2698L35.6299 85.3998C52.4699 107.69 52.9499 125.3 52.6999 130.16V138.24L52.7199 138.28Z" fill="url(#paint21_linear)"/>
<path d="M67.8799 61.9001C23.3199 61.9001 0 52.5401 0 43.2901C0 38.0101 6.17994 33.6201 18.3799 30.2301L19.55 34.4501C8.34999 37.5601 4.37994 41.1601 4.37994 43.2901C4.37994 49.2901 28.5399 57.5301 67.8799 57.5301C107.22 57.5301 131.37 49.2401 131.37 43.2901C131.37 40.9301 126.76 37.0401 113.77 33.8101L114.82 29.5601C124.37 31.9301 135.75 36.2401 135.75 43.2901C135.75 48.9401 128.75 53.5601 114.86 57.0301C102.28 60.2001 85.5999 61.9001 67.8799 61.9001Z" fill="url(#paint22_linear)"/>
<path d="M106.09 38.0299C103.626 38.0299 101.216 37.2991 99.1675 35.93C97.1184 34.5609 95.5214 32.6149 94.5783 30.3381C93.6353 28.0613 93.3885 25.5561 93.8693 23.139C94.3501 20.722 95.5368 18.5019 97.2793 16.7593C99.0219 15.0168 101.242 13.8301 103.659 13.3493C106.076 12.8685 108.581 13.1153 110.858 14.0583C113.135 15.0014 115.081 16.5984 116.45 18.6475C117.819 20.6965 118.55 23.1055 118.55 25.5699C118.547 28.8736 117.234 32.0414 114.898 34.3775C112.561 36.7136 109.394 38.0272 106.09 38.0299ZM106.09 17.4899C104.489 17.4899 102.925 17.9646 101.594 18.854C100.264 19.7434 99.2267 21.0074 98.6147 22.4863C98.0027 23.9651 97.8431 25.5923 98.156 27.1618C98.469 28.7314 99.2406 30.1729 100.373 31.3039C101.505 32.4349 102.948 33.2046 104.518 33.5156C106.088 33.8267 107.715 33.665 109.193 33.0512C110.671 32.4373 111.934 31.3989 112.821 30.0672C113.709 28.7354 114.182 27.1703 114.18 25.5699C114.177 23.426 113.324 21.3708 111.807 19.8558C110.29 18.3408 108.234 17.4899 106.09 17.4899Z" fill="url(#paint23_linear)"/>
<path d="M40.8303 38.0099H16.7803V14.1899H40.8303V38.0099ZM21.1603 33.6299H36.4503V18.5699H21.1603V33.6299Z" fill="url(#paint24_linear)"/>
<defs>
<linearGradient id="paint0_linear" x1="52.7102" y1="111.34" x2="84.7002" y2="79.3601" gradientUnits="userSpaceOnUse">
<stop stop-color="#FF059D"/>
<stop offset="0.14" stop-color="#FF3A7B"/>
<stop offset="0.31" stop-color="#FF7458"/>
<stop offset="0.47" stop-color="#FFA33A"/>
<stop offset="0.63" stop-color="#FFC922"/>
<stop offset="0.77" stop-color="#FFE312"/>
<stop offset="0.9" stop-color="#FFF308"/>
<stop offset="1" stop-color="#FFF904"/>
</linearGradient>
<linearGradient id="paint1_linear" x1="57.1498" y1="124.59" x2="80.6998" y2="101.04" gradientUnits="userSpaceOnUse">
<stop stop-color="#FF059D"/>
<stop offset="0.13" stop-color="#FF2F83"/>
<stop offset="0.37" stop-color="#FF7656"/>
<stop offset="0.58" stop-color="#FFAE33"/>
<stop offset="0.77" stop-color="#FFD719"/>
<stop offset="0.91" stop-color="#FFF00A"/>
<stop offset="1" stop-color="#FFF904"/>
</linearGradient>
<linearGradient id="paint2_linear" x1="26956.1" y1="2348.11" x2="28407.4" y2="2348.11" gradientUnits="userSpaceOnUse">
<stop stop-color="#FF059D"/>
<stop offset="1" stop-color="#FFF904"/>
</linearGradient>
<linearGradient id="paint3_linear" x1="23598.8" y1="26454.4" x2="24566.6" y2="26454.4" gradientUnits="userSpaceOnUse">
<stop stop-color="#4DACFB"/>
<stop offset="1" stop-color="#05FBD3"/>
</linearGradient>
<linearGradient id="paint4_linear" x1="20627.8" y1="26358" x2="21595.9" y2="26358" gradientUnits="userSpaceOnUse">
<stop stop-color="#4DACFB"/>
<stop offset="1" stop-color="#05FBD3"/>
</linearGradient>
<linearGradient id="paint5_linear" x1="8071.93" y1="1083.67" x2="8196.26" y2="1083.67" gradientUnits="userSpaceOnUse">
<stop stop-color="#10C2FF"/>
<stop offset="1" stop-color="#1A68FF"/>
</linearGradient>
<linearGradient id="paint6_linear" x1="8894.19" y1="1314.54" x2="9035.56" y2="1314.54" gradientUnits="userSpaceOnUse">
<stop stop-color="#10C2FF"/>
<stop offset="1" stop-color="#1A68FF"/>
</linearGradient>
<linearGradient id="paint7_linear" x1="8582.56" y1="1343.73" x2="8734.22" y2="1343.73" gradientUnits="userSpaceOnUse">
<stop stop-color="#10C2FF"/>
<stop offset="1" stop-color="#1A68FF"/>
</linearGradient>
<linearGradient id="paint8_linear" x1="11421.7" y1="16067.6" x2="11421.7" y2="12560.6" gradientUnits="userSpaceOnUse">
<stop stop-color="#FF059D"/>
<stop offset="1" stop-color="#FFF904"/>
</linearGradient>
<linearGradient id="paint9_linear" x1="11805.9" y1="13321.2" x2="11805.9" y2="10928" gradientUnits="userSpaceOnUse">
<stop stop-color="#FF059D"/>
<stop offset="1" stop-color="#FFF904"/>
</linearGradient>
<linearGradient id="paint10_linear" x1="18149.7" y1="4696.85" x2="18728.2" y2="4696.85" gradientUnits="userSpaceOnUse">
<stop stop-color="#E3F24C"/>
<stop offset="1" stop-color="#64D8BC"/>
</linearGradient>
<linearGradient id="paint11_linear" x1="16794.2" y1="4785.55" x2="17414.2" y2="4785.55" gradientUnits="userSpaceOnUse">
<stop stop-color="#4DACFB"/>
<stop offset="1" stop-color="#05FBD3"/>
</linearGradient>
<linearGradient id="paint12_linear" x1="35115.6" y1="1650.18" x2="37629.3" y2="1650.18" gradientUnits="userSpaceOnUse">
<stop stop-color="#E3F24C"/>
<stop offset="1" stop-color="#64D8BC"/>
</linearGradient>
<linearGradient id="paint13_linear" x1="4389.82" y1="2447.16" x2="4389.82" y2="2337.37" gradientUnits="userSpaceOnUse">
<stop stop-color="#FF059D"/>
<stop offset="1" stop-color="#FFF904"/>
</linearGradient>
<linearGradient id="paint14_linear" x1="4465.01" y1="2447.16" x2="4465.01" y2="2337.37" gradientUnits="userSpaceOnUse">
<stop stop-color="#FF059D"/>
<stop offset="1" stop-color="#FFF904"/>
</linearGradient>
<linearGradient id="paint15_linear" x1="4540.27" y1="2447.16" x2="4540.27" y2="2337.37" gradientUnits="userSpaceOnUse">
<stop stop-color="#FF059D"/>
<stop offset="1" stop-color="#FFF904"/>
</linearGradient>
<linearGradient id="paint16_linear" x1="4615.45" y1="2447.16" x2="4615.45" y2="2337.37" gradientUnits="userSpaceOnUse">
<stop stop-color="#FF059D"/>
<stop offset="1" stop-color="#FFF904"/>
</linearGradient>
<linearGradient id="paint17_linear" x1="4389.82" y1="2457.84" x2="4389.82" y2="2348.05" gradientUnits="userSpaceOnUse">
<stop stop-color="#FF059D"/>
<stop offset="1" stop-color="#FFF904"/>
</linearGradient>
<linearGradient id="paint18_linear" x1="4465.01" y1="2457.84" x2="4465.01" y2="2348.05" gradientUnits="userSpaceOnUse">
<stop stop-color="#FF059D"/>
<stop offset="1" stop-color="#FFF904"/>
</linearGradient>
<linearGradient id="paint19_linear" x1="4540.29" y1="2457.84" x2="4540.29" y2="2348.05" gradientUnits="userSpaceOnUse">
<stop stop-color="#FF059D"/>
<stop offset="1" stop-color="#FFF904"/>
</linearGradient>
<linearGradient id="paint20_linear" x1="4615.45" y1="2457.84" x2="4615.45" y2="2348.05" gradientUnits="userSpaceOnUse">
<stop stop-color="#FF059D"/>
<stop offset="1" stop-color="#FFF904"/>
</linearGradient>
<linearGradient id="paint21_linear" x1="78.0699" y1="143.85" x2="67.0599" y2="39.0798" gradientUnits="userSpaceOnUse">
<stop stop-color="#10C2FF"/>
<stop offset="0.22" stop-color="#10BEFF"/>
<stop offset="0.43" stop-color="#12B3FF"/>
<stop offset="0.63" stop-color="#14A0FF"/>
<stop offset="0.83" stop-color="#1786FF"/>
<stop offset="1" stop-color="#1A68FF"/>
</linearGradient>
<linearGradient id="paint22_linear" x1="98303.4" y1="8891.69" x2="98303.4" y2="7845.81" gradientUnits="userSpaceOnUse">
<stop stop-color="#10C2FF"/>
<stop offset="1" stop-color="#1A68FF"/>
</linearGradient>
<linearGradient id="paint23_linear" x1="18781.7" y1="5935.85" x2="19402.4" y2="5935.85" gradientUnits="userSpaceOnUse">
<stop stop-color="#4DACFB"/>
<stop offset="1" stop-color="#05FBD3"/>
</linearGradient>
<linearGradient id="paint24_linear" x1="16203.9" y1="5688.12" x2="16782.3" y2="5688.12" gradientUnits="userSpaceOnUse">
<stop stop-color="#E3F24C"/>
<stop offset="1" stop-color="#64D8BC"/>
</linearGradient>
</defs>
</svg>
