<svg width="168" height="168" viewBox="0 0 168 168" fill="none" xmlns="http://www.w3.org/2000/svg">
<path d="M60.6997 147.9H40.1396V122.16H60.6997V147.9ZM44.8497 143.19H55.9896V126.86H44.8497V143.19Z" fill="url(#paint0_linear)"/>
<path d="M89.1298 147.9H68.5498V105.16H89.1099L89.1298 147.9ZM73.2798 143.19H84.4198V109.87H73.2798V143.19Z" fill="url(#paint1_linear)"/>
<path d="M117.55 147.9H96.9902V81.7002H117.55V147.9ZM101.7 143.19H112.84V86.4102H101.7V143.19Z" fill="url(#paint2_linear)"/>
<path d="M145.99 147.9H125.43V58.6499H145.99V147.9ZM130.14 143.19H141.28V63.3499H130.14V143.19Z" fill="url(#paint3_linear)"/>
<path d="M154.721 147.9H14.1405C13.8183 147.921 13.4954 147.876 13.1914 147.767C12.8875 147.658 12.609 147.488 12.3734 147.267C12.1378 147.047 11.95 146.78 11.8217 146.484C11.6933 146.187 11.627 145.868 11.627 145.545C11.627 145.222 11.6933 144.903 11.8217 144.607C11.95 144.31 12.1378 144.044 12.3734 143.823C12.609 143.602 12.8875 143.432 13.1914 143.323C13.4954 143.214 13.8183 143.169 14.1405 143.19H154.721C155.319 143.229 155.879 143.494 156.289 143.931C156.699 144.369 156.927 144.946 156.927 145.545C156.927 146.144 156.699 146.721 156.289 147.159C155.879 147.596 155.319 147.861 154.721 147.9Z" fill="url(#paint4_linear)"/>
<path d="M125.73 23.8901C125.501 23.9041 125.277 23.9631 125.072 24.0637C124.866 24.1644 124.682 24.3047 124.53 24.4766C124.379 24.6484 124.263 24.8485 124.189 25.0654C124.115 25.2822 124.085 25.5115 124.1 25.7401C124.111 25.9701 124.168 26.1955 124.268 26.403C124.368 26.6106 124.508 26.7962 124.68 26.949C124.852 27.1017 125.053 27.2185 125.271 27.2926C125.489 27.3666 125.72 27.3964 125.95 27.3801L133.35 26.9301L51.7396 104.28L39.5496 92.8001L24.2896 109.65C23.8706 110.113 23.6526 110.723 23.6836 111.347C23.7145 111.97 23.9919 112.556 24.4547 112.975C24.9175 113.394 25.5278 113.612 26.1513 113.581C26.7749 113.55 27.3606 113.273 27.7796 112.81L39.7796 99.5201L51.6897 110.75L136.81 30.0701L135.25 37.7401C135.158 38.1949 135.251 38.6674 135.508 39.0537C135.765 39.44 136.165 39.7084 136.62 39.8001C136.736 39.8103 136.853 39.8103 136.97 39.8001C137.373 39.7967 137.763 39.6548 138.074 39.3981C138.386 39.1414 138.599 38.7855 138.68 38.3901L141.85 22.8501L125.73 23.8901Z" fill="url(#paint5_linear)"/>
<path d="M62.2755 53.2157C61.9761 53.2168 61.6795 53.1581 61.4031 53.0431C61.1266 52.928 60.8758 52.7589 60.6655 52.5457C60.2393 52.1183 60 51.5394 60 50.9357C60 50.3321 60.2393 49.7531 60.6655 49.3257L63.1455 46.8557C63.5725 46.4301 64.1512 46.1915 64.7542 46.1924C65.0527 46.1929 65.3481 46.2521 65.6238 46.3668C65.8994 46.4815 66.1498 46.6493 66.3606 46.8607C66.5714 47.0722 66.7384 47.323 66.8522 47.599C66.966 47.875 67.0244 48.1707 67.0239 48.4693C67.0235 48.7678 66.9642 49.0633 66.8495 49.339C66.7348 49.6146 66.567 49.865 66.3556 50.0757L63.8856 52.5457C63.675 52.7585 63.4242 52.9273 63.1478 53.0423C62.8714 53.1573 62.5749 53.2163 62.2755 53.2157ZM70.9355 44.5557C70.332 44.5513 69.7541 44.3108 69.3256 43.8857C68.8993 43.4583 68.6599 42.8794 68.6599 42.2757C68.6599 41.6721 68.8993 41.0931 69.3256 40.6657L78.4055 31.5857C78.8395 31.1949 79.4071 30.9855 79.991 31.0008C80.5748 31.016 81.1305 31.2548 81.5435 31.6678C81.9565 32.0808 82.1953 32.6365 82.2106 33.2204C82.2258 33.8043 82.0165 34.3717 81.6256 34.8057L72.5455 43.8857C72.117 44.3108 71.5391 44.5513 70.9355 44.5557Z" fill="url(#paint6_linear)"/>
<path d="M76.845 67.7853C76.3954 67.7853 75.9561 67.6517 75.5825 67.4017C75.2089 67.1516 74.9179 66.7963 74.7466 66.3807C74.5752 65.9651 74.5311 65.508 74.6199 65.0673C74.7086 64.6266 74.9262 64.2222 75.245 63.9053L77.715 61.4353C78.1406 61.0083 78.7185 60.7679 79.3214 60.767C79.9243 60.766 80.5029 61.0046 80.9299 61.4303C81.3569 61.856 81.5973 62.4338 81.5983 63.0368C81.5992 63.6397 81.3606 64.2183 80.9349 64.6453L78.4549 67.1153C78.2443 67.328 77.9935 67.4968 77.7172 67.6118C77.4408 67.7269 77.1443 67.7858 76.845 67.7853ZM85.515 59.1253C85.0646 59.1272 84.6237 58.9952 84.2486 58.7459C83.8735 58.4966 83.5812 58.1413 83.4086 57.7253C83.2359 57.3093 83.1909 56.8514 83.2793 56.4098C83.3677 55.9682 83.5855 55.5628 83.9049 55.2453L92.985 46.1653C93.412 45.7396 93.9906 45.501 94.5935 45.502C94.892 45.5024 95.1875 45.5617 95.4631 45.6764C95.7388 45.791 95.9892 45.9589 96.1999 46.1703C96.4107 46.3817 96.5778 46.6326 96.6916 46.9086C96.8055 47.1846 96.8637 47.4803 96.8633 47.7788C96.8628 48.0774 96.8035 48.3729 96.6888 48.6485C96.5742 48.9242 96.4064 49.1745 96.1949 49.3853L87.125 58.4653C86.6939 58.884 86.116 59.1173 85.515 59.1153V59.1253Z" fill="url(#paint7_linear)"/>
<path d="M63.2751 66.9744C62.8322 66.9647 62.4019 66.8257 62.037 66.5744C61.6722 66.3231 61.3889 65.9706 61.222 65.5602C61.0551 65.1499 61.0119 64.6996 61.0977 64.2651C61.1836 63.8305 61.3947 63.4305 61.7051 63.1144L64.1851 60.6444C64.3949 60.4292 64.6454 60.2577 64.9219 60.1401C65.1985 60.0224 65.4957 59.9608 65.7962 59.9588C66.0967 59.9569 66.3946 60.0147 66.6727 60.1288C66.9507 60.2429 67.2033 60.4111 67.4158 60.6237C67.6284 60.8362 67.7966 61.0888 67.9107 61.3669C68.0248 61.6449 68.0827 61.9428 68.0807 62.2434C68.0788 62.5439 68.0172 62.8411 67.8995 63.1177C67.7818 63.3942 67.6103 63.6446 67.3951 63.8544L64.9251 66.3344C64.7066 66.5457 64.4481 66.7111 64.1647 66.821C63.8814 66.931 63.5789 66.9831 63.2751 66.9744ZM71.9351 58.3144C71.4856 58.3144 71.0462 58.1809 70.6727 57.9308C70.2991 57.6807 70.0082 57.3254 69.8369 56.9098C69.6655 56.4942 69.6213 56.0371 69.71 55.5964C69.7987 55.1557 70.0163 54.7513 70.3351 54.4344L83.5952 41.1644C83.8022 40.9345 84.054 40.7491 84.335 40.6195C84.6161 40.49 84.9205 40.419 85.2298 40.4109C85.5391 40.4028 85.8469 40.4578 86.1343 40.5725C86.4218 40.6872 86.6827 40.8591 86.9015 41.078C87.1204 41.2968 87.2924 41.5578 87.407 41.8453C87.5217 42.1327 87.5768 42.4404 87.5687 42.7498C87.5606 43.0591 87.4896 43.3636 87.36 43.6446C87.2305 43.9256 87.0451 44.1773 86.8151 44.3844L73.5451 57.6544C73.3337 57.8654 73.0826 58.0323 72.8062 58.1456C72.5299 58.2589 72.2338 58.3162 71.9351 58.3144Z" fill="url(#paint8_linear)"/>
<path d="M20.9099 126.86C19.2442 126.854 17.6062 126.432 16.1449 125.632C14.6836 124.833 13.4453 123.681 12.5423 122.281C11.6392 120.881 11.1002 119.278 10.974 117.617C10.8479 115.956 11.1387 114.29 11.82 112.77C12.5563 111.127 13.7224 109.714 15.1952 108.678C16.6681 107.643 18.393 107.025 20.188 106.889C21.9831 106.752 23.7817 107.103 25.3939 107.904C27.0062 108.705 28.3724 109.926 29.3483 111.439C30.3242 112.951 30.8737 114.7 30.9387 116.499C31.0038 118.298 30.582 120.081 29.7178 121.66C28.8536 123.239 27.5792 124.556 26.029 125.471C24.4787 126.386 22.7101 126.866 20.9099 126.86ZM16.1 114.7C15.6706 115.654 15.5336 116.713 15.7063 117.745C15.8791 118.777 16.3539 119.734 17.0706 120.496C17.7873 121.258 18.7137 121.79 19.7329 122.026C20.7521 122.261 21.8182 122.189 22.7965 121.819C23.7748 121.448 24.6214 120.796 25.2292 119.945C25.8369 119.094 26.1786 118.081 26.2111 117.036C26.2436 115.99 25.9653 114.958 25.4115 114.071C24.8578 113.183 24.0534 112.48 23.1 112.05C21.8201 111.475 20.3643 111.431 19.0522 111.928C17.74 112.425 16.6784 113.421 16.1 114.7Z" fill="url(#paint9_linear)"/>
<defs>
<linearGradient id="paint0_linear" x1="23576.9" y1="4107.48" x2="22226.7" y2="3214.25" gradientUnits="userSpaceOnUse">
<stop stop-color="#FF059D"/>
<stop offset="0.45" stop-color="#FF9841"/>
<stop offset="1" stop-color="#FFF904"/>
</linearGradient>
<linearGradient id="paint1_linear" x1="23509.5" y1="5513.05" x2="23932.7" y2="5513.05" gradientUnits="userSpaceOnUse">
<stop stop-color="#E3F24C"/>
<stop offset="0.2" stop-color="#CAED62"/>
<stop offset="1" stop-color="#64D8BC"/>
</linearGradient>
<linearGradient id="paint2_linear" x1="24849.7" y1="9866.06" x2="22286.5" y2="8863.13" gradientUnits="userSpaceOnUse">
<stop stop-color="#1A58FF"/>
<stop offset="0.05" stop-color="#1963FF"/>
<stop offset="0.23" stop-color="#1685FF"/>
<stop offset="0.42" stop-color="#13A0FF"/>
<stop offset="0.6" stop-color="#11B3FF"/>
<stop offset="0.8" stop-color="#10BEFF"/>
<stop offset="1" stop-color="#10C2FF"/>
</linearGradient>
<linearGradient id="paint3_linear" x1="25390.3" y1="13553.2" x2="19427.9" y2="10650.3" gradientUnits="userSpaceOnUse">
<stop stop-color="#FF059D"/>
<stop offset="0.45" stop-color="#FF9841"/>
<stop offset="1" stop-color="#FFF904"/>
</linearGradient>
<linearGradient id="paint4_linear" x1="157260" y1="830.18" x2="178370" y2="830.18" gradientUnits="userSpaceOnUse">
<stop stop-color="#E3F24C"/>
<stop offset="0.2" stop-color="#CAED62"/>
<stop offset="1" stop-color="#64D8BC"/>
</linearGradient>
<linearGradient id="paint5_linear" x1="129318" y1="6214.54" x2="143287" y2="6214.54" gradientUnits="userSpaceOnUse">
<stop stop-color="#FF059D"/>
<stop offset="0.05" stop-color="#1963FF"/>
<stop offset="0.23" stop-color="#1685FF"/>
<stop offset="0.42" stop-color="#13A0FF"/>
<stop offset="0.6" stop-color="#11B3FF"/>
<stop offset="0.8" stop-color="#10BEFF"/>
<stop offset="1" stop-color="#10C2FF"/>
</linearGradient>
<linearGradient id="paint6_linear" x1="25490.7" y1="564.178" x2="24353.6" y2="1954" gradientUnits="userSpaceOnUse">
<stop stop-color="#FF059D"/>
<stop offset="0.45" stop-color="#FF9841"/>
<stop offset="1" stop-color="#FFF904"/>
</linearGradient>
<linearGradient id="paint7_linear" x1="25947" y1="869.762" x2="24806.4" y2="2264.05" gradientUnits="userSpaceOnUse">
<stop stop-color="#FF059D"/>
<stop offset="0.45" stop-color="#FF9841"/>
<stop offset="1" stop-color="#FFF904"/>
</linearGradient>
<linearGradient id="paint8_linear" x1="30619.8" y1="842.678" x2="29259.5" y2="2502.06" gradientUnits="userSpaceOnUse">
<stop stop-color="#FF059D"/>
<stop offset="0.45" stop-color="#FF9841"/>
<stop offset="1" stop-color="#FFF904"/>
</linearGradient>
<linearGradient id="paint9_linear" x1="21638.7" y1="2444.26" x2="22038.1" y2="2444.26" gradientUnits="userSpaceOnUse">
<stop stop-color="#E3F24C"/>
<stop offset="0.2" stop-color="#CAED62"/>
<stop offset="1" stop-color="#64D8BC"/>
</linearGradient>
</defs>
</svg>
