<svg width="168" height="168" viewBox="0 0 168 168" fill="none" xmlns="http://www.w3.org/2000/svg">
<path d="M125.29 143.061H104.73V117.361H125.29V143.061ZM109.46 138.391H120.6V122.061H109.46V138.391Z" fill="url(#paint0_linear)"/>
<path d="M96.8599 143.061H76.2998V93.3613H96.8599V143.061ZM81.0099 138.351H92.1498V98.0613H81.0099V138.351Z" fill="url(#paint1_linear)"/>
<path d="M68.4604 143.06H47.9004V82.1504H68.4604V143.06ZM52.6105 138.35H63.7505V86.8604H52.6105V138.35Z" fill="url(#paint2_linear)"/>
<path d="M40 143.06H19.46V53.8496H40.02L40 143.06ZM24.1499 138.35H35.2899V58.5496H24.1499V138.35Z" fill="url(#paint3_linear)"/>
<path d="M151.29 143.061H10.7103C10.1123 143.022 9.5515 142.757 9.14172 142.319C8.73195 141.882 8.50391 141.305 8.50391 140.706C8.50391 140.106 8.73195 139.53 9.14172 139.092C9.5515 138.655 10.1123 138.39 10.7103 138.351H151.29C151.612 138.33 151.936 138.375 152.24 138.484C152.543 138.593 152.822 138.763 153.057 138.984C153.293 139.204 153.481 139.471 153.609 139.767C153.738 140.063 153.804 140.383 153.804 140.706C153.804 141.029 153.738 141.348 153.609 141.644C153.481 141.94 153.293 142.207 153.057 142.428C152.822 142.649 152.543 142.819 152.24 142.928C151.936 143.036 151.612 143.082 151.29 143.061Z" fill="url(#paint4_linear)"/>
<path d="M145.04 100.45C144.947 99.9952 144.678 99.5958 144.29 99.3399C143.903 99.0839 143.43 98.9922 142.975 99.085C142.52 99.1779 142.121 99.4476 141.865 99.8348C141.609 100.222 141.517 100.695 141.61 101.15L142.97 107.8L65.17 61.47L65.3301 46.54L36.78 30.67C36.5102 30.5203 36.2135 30.4252 35.9069 30.3902C35.6002 30.3552 35.2897 30.3809 34.993 30.4658C34.6964 30.5508 34.4193 30.6934 34.1777 30.8854C33.9361 31.0774 33.7348 31.3152 33.5851 31.585C33.2827 32.13 33.2093 32.7729 33.3809 33.372C33.5525 33.9712 33.9551 34.4777 34.5001 34.78L60.5901 49.29L60.4601 64.13L140.91 112.03L132.28 111.5C131.83 111.494 131.395 111.661 131.065 111.967C130.735 112.274 130.535 112.695 130.508 113.145C130.481 113.594 130.629 114.037 130.919 114.38C131.21 114.724 131.622 114.942 132.07 114.99L148.24 115.99L145.04 100.45Z" fill="url(#paint5_linear)"/>
<path d="M127.894 56.1069C127.498 56.1045 127.109 56.0013 126.764 55.8069L115.644 49.3869C115.122 49.0858 114.74 48.5896 114.584 48.0073C114.506 47.719 114.486 47.4182 114.525 47.1221C114.563 46.8261 114.66 46.5406 114.809 46.2819C114.958 46.0232 115.157 45.7963 115.394 45.6144C115.63 45.4324 115.901 45.2988 116.189 45.2213C116.771 45.0647 117.392 45.1458 117.914 45.4469L129.034 51.8669C129.469 52.116 129.81 52.5022 130.002 52.9652C130.195 53.4283 130.229 53.942 130.099 54.4263C129.968 54.9106 129.681 55.3381 129.283 55.6421C128.884 55.9461 128.396 56.1096 127.894 56.1069V56.1069ZM109.194 45.3169C108.798 45.3145 108.409 45.2113 108.064 45.0169L105.064 43.2669C104.568 42.9524 104.212 42.4583 104.071 41.8877C103.929 41.3172 104.014 40.7141 104.307 40.2045C104.6 39.6949 105.078 39.3181 105.642 39.1527C106.206 38.9873 106.813 39.0461 107.334 39.3169L110.334 41.0669C110.767 41.3188 111.104 41.706 111.295 42.1688C111.485 42.6316 111.518 43.1442 111.389 43.6276C111.259 44.1109 110.974 44.5382 110.577 44.8435C110.181 45.1488 109.695 45.3151 109.194 45.3169V45.3169Z" fill="url(#paint6_linear)"/>
<path d="M117.594 73.9471C117.193 73.9471 116.799 73.8401 116.454 73.6371L105.334 67.2171C105.056 67.0775 104.81 66.8827 104.61 66.6446C104.411 66.4064 104.262 66.1301 104.173 65.8324C104.084 65.5347 104.057 65.2219 104.094 64.9134C104.13 64.6048 104.229 64.307 104.385 64.0381C104.54 63.7692 104.749 63.5349 104.999 63.3497C105.248 63.1644 105.533 63.0321 105.835 62.9608C106.137 62.8896 106.451 62.8809 106.757 62.9352C107.063 62.9896 107.354 63.1059 107.614 63.2771L118.734 69.6971C119.166 69.949 119.504 70.3362 119.694 70.799C119.885 71.2618 119.918 71.7744 119.788 72.2578C119.658 72.7411 119.373 73.1684 118.977 73.4737C118.58 73.779 118.094 73.9453 117.594 73.9471V73.9471ZM98.8937 63.1471C98.4937 63.1506 98.1002 63.047 97.7538 62.8471L94.7538 61.0971C94.2684 60.7768 93.9237 60.2831 93.7903 59.7171C93.6569 59.151 93.7449 58.5554 94.0361 58.0521C94.3274 57.5488 94.8 57.1758 95.3572 57.0094C95.9144 56.843 96.5141 56.8958 97.0337 57.1571L100.034 58.9071C100.469 59.1562 100.809 59.5424 101.002 60.0054C101.195 60.4685 101.228 60.9822 101.098 61.4665C100.968 61.9508 100.681 62.3783 100.282 62.6823C99.8834 62.9863 99.3951 63.1498 98.8937 63.1471V63.1471Z" fill="url(#paint7_linear)"/>
<path d="M119.984 63.5982C119.588 63.6005 119.198 63.4969 118.854 63.2982L102.604 53.9482C102.327 53.8087 102.081 53.6138 101.881 53.3757C101.681 53.1376 101.533 52.8612 101.444 52.5635C101.355 52.2658 101.328 51.9531 101.364 51.6446C101.4 51.336 101.499 51.0382 101.655 50.7692C101.811 50.5003 102.02 50.2661 102.269 50.0808C102.518 49.8956 102.803 49.7633 103.105 49.692C103.408 49.6207 103.722 49.612 104.027 49.6664C104.333 49.7208 104.625 49.8371 104.884 50.0082L121.124 59.3882C121.559 59.6374 121.9 60.0236 122.092 60.4866C122.285 60.9496 122.319 61.4634 122.189 61.9477C122.058 62.4319 121.771 62.8594 121.373 63.1635C120.974 63.4675 120.486 63.6309 119.984 63.6282V63.5982ZM96.1642 49.8482C95.7642 49.8518 95.3706 49.7482 95.0242 49.5482L92.0242 47.7982C91.5388 47.4779 91.1942 46.9843 91.0608 46.4182C90.9274 45.8522 91.0154 45.2566 91.3066 44.7533C91.5979 44.2499 92.0705 43.8769 92.6277 43.7105C93.1849 43.5442 93.7846 43.597 94.3042 43.8582L97.3042 45.6082C97.7394 45.8574 98.0799 46.2436 98.2725 46.7066C98.465 47.1696 98.4989 47.6834 98.3687 48.1677C98.2384 48.6519 97.9515 49.0794 97.5527 49.3835C97.1539 49.6875 96.6656 49.8509 96.1642 49.8482V49.8482Z" fill="url(#paint8_linear)"/>
<path d="M28.9796 39C27.0565 38.9997 25.1743 38.4448 23.5585 37.4019C21.9427 36.359 20.662 34.8723 19.8696 33.12V33.12C18.9801 31.1527 18.7511 28.9503 19.2171 26.8421C19.683 24.7339 20.8187 22.833 22.4545 21.4238C24.0902 20.0146 26.1382 19.1726 28.2921 19.0238C30.4461 18.875 32.5904 19.4273 34.4044 20.5981C36.2185 21.769 37.6048 23.4955 38.3562 25.5196C39.1077 27.5437 39.1839 29.7567 38.5734 31.8277C37.9629 33.8986 36.6984 35.7164 34.9691 37.0092C33.2399 38.302 31.1387 39.0004 28.9796 39V39ZM24.1596 31.18C24.7351 32.457 25.7943 33.4531 27.1043 33.9491C28.4142 34.4452 29.8676 34.4005 31.1447 33.825C32.4217 33.2495 33.4177 32.1902 33.9137 30.8803C34.4097 29.5704 34.3651 28.117 33.7896 26.84C33.5046 26.2077 33.0979 25.6377 32.5927 25.1626C32.0874 24.6874 31.4935 24.3165 30.8449 24.0709C30.1962 23.8253 29.5056 23.7098 28.8124 23.7311C28.1192 23.7524 27.4369 23.91 26.8046 24.195C26.1723 24.48 25.6023 24.8867 25.1272 25.392C24.6521 25.8972 24.281 26.4911 24.0354 27.1397C23.7898 27.7883 23.6744 28.479 23.6957 29.1722C23.717 29.8654 23.8746 30.5477 24.1596 31.18V31.18Z" fill="url(#paint9_linear)"/>
<defs>
<linearGradient id="paint0_linear" x1="28729.7" y1="3539.83" x2="29152.4" y2="3539.83" gradientUnits="userSpaceOnUse">
<stop stop-color="#E3F24C"/>
<stop offset="0.2" stop-color="#CAED62"/>
<stop offset="1" stop-color="#64D8BC"/>
</linearGradient>
<linearGradient id="paint1_linear" x1="28898.8" y1="7883.84" x2="26177.3" y2="6440.53" gradientUnits="userSpaceOnUse">
<stop stop-color="#1A58FF"/>
<stop offset="0.05" stop-color="#1963FF"/>
<stop offset="0.23" stop-color="#1685FF"/>
<stop offset="0.42" stop-color="#13A0FF"/>
<stop offset="0.6" stop-color="#11B3FF"/>
<stop offset="0.8" stop-color="#10BEFF"/>
<stop offset="1" stop-color="#10C2FF"/>
</linearGradient>
<linearGradient id="paint2_linear" x1="27504" y1="7121.52" x2="27926.7" y2="7121.52" gradientUnits="userSpaceOnUse">
<stop stop-color="#E3F24C"/>
<stop offset="0.2" stop-color="#CAED62"/>
<stop offset="1" stop-color="#64D8BC"/>
</linearGradient>
<linearGradient id="paint3_linear" x1="27955" y1="13684.2" x2="24188.7" y2="12608.9" gradientUnits="userSpaceOnUse">
<stop stop-color="#FF059D"/>
<stop offset="0.45" stop-color="#FF9841"/>
<stop offset="1" stop-color="#FFF904"/>
</linearGradient>
<linearGradient id="paint4_linear" x1="188303" y1="816.563" x2="209413" y2="816.563" gradientUnits="userSpaceOnUse">
<stop stop-color="#E3F24C"/>
<stop offset="0.2" stop-color="#CAED62"/>
<stop offset="1" stop-color="#64D8BC"/>
</linearGradient>
<linearGradient id="paint5_linear" x1="151863" y1="6547.39" x2="165073" y2="6547.39" gradientUnits="userSpaceOnUse">
<stop stop-color="#FF059D"/>
<stop offset="0.45" stop-color="#FF9841"/>
<stop offset="1" stop-color="#FFF904"/>
</linearGradient>
<linearGradient id="paint6_linear" x1="37003.4" y1="885.071" x2="35922.6" y2="28.3495" gradientUnits="userSpaceOnUse">
<stop stop-color="#1A58FF"/>
<stop offset="0.05" stop-color="#1963FF"/>
<stop offset="0.23" stop-color="#1685FF"/>
<stop offset="0.42" stop-color="#13A0FF"/>
<stop offset="0.6" stop-color="#11B3FF"/>
<stop offset="0.8" stop-color="#10BEFF"/>
<stop offset="1" stop-color="#10C2FF"/>
</linearGradient>
<linearGradient id="paint7_linear" x1="36695.2" y1="1213.97" x2="35615.6" y2="358.341" gradientUnits="userSpaceOnUse">
<stop stop-color="#1A58FF"/>
<stop offset="0.05" stop-color="#1963FF"/>
<stop offset="0.23" stop-color="#1685FF"/>
<stop offset="0.42" stop-color="#13A0FF"/>
<stop offset="0.6" stop-color="#11B3FF"/>
<stop offset="0.8" stop-color="#10BEFF"/>
<stop offset="1" stop-color="#10C2FF"/>
</linearGradient>
<linearGradient id="paint8_linear" x1="44026.3" y1="1217.38" x2="42753.1" y2="189.829" gradientUnits="userSpaceOnUse">
<stop stop-color="#1A58FF"/>
<stop offset="0.05" stop-color="#1963FF"/>
<stop offset="0.23" stop-color="#1685FF"/>
<stop offset="0.42" stop-color="#13A0FF"/>
<stop offset="0.6" stop-color="#11B3FF"/>
<stop offset="0.8" stop-color="#10BEFF"/>
<stop offset="1" stop-color="#10C2FF"/>
</linearGradient>
<linearGradient id="paint9_linear" x1="26763.6" y1="1005" x2="25830.2" y2="223.399" gradientUnits="userSpaceOnUse">
<stop stop-color="#1A58FF"/>
<stop offset="0.05" stop-color="#1963FF"/>
<stop offset="0.23" stop-color="#1685FF"/>
<stop offset="0.42" stop-color="#13A0FF"/>
<stop offset="0.6" stop-color="#11B3FF"/>
<stop offset="0.8" stop-color="#10BEFF"/>
<stop offset="1" stop-color="#10C2FF"/>
</linearGradient>
</defs>
</svg>
