<svg width="272" height="387" viewBox="0 0 272 387" fill="none" xmlns="http://www.w3.org/2000/svg">
<g clip-path="url(#clip0)">
<g opacity="0.2">
<path opacity="0.09" d="M123.09 253.586L33.1479 305.716C30.8944 306.912 28.9775 308.657 27.5739 310.789C26.1702 312.922 25.3248 315.374 25.1156 317.919C24.9785 323.374 28.1326 328.573 34.1666 332.065L116.292 379.545C121.326 382.332 126.996 383.765 132.748 383.704C136.129 383.728 139.488 383.17 142.681 382.056C143.924 381.596 145.129 381.038 146.285 380.389L236.09 328.337C238.346 327.146 240.263 325.402 241.664 323.268C243.066 321.134 243.904 318.68 244.103 316.134C244.259 310.68 241.086 305.48 235.071 301.988L153.221 254.665C151.307 253.574 149.284 252.686 147.187 252.017C143.804 250.932 140.276 250.37 136.725 250.349C131.976 250.22 127.276 251.336 123.09 253.586Z" fill="black"/>
<path opacity="0.18" d="M123.836 256.902L38.5368 306.324C36.4395 307.483 34.6398 309.115 33.2799 311.089C31.9199 313.064 31.0369 315.329 30.7005 317.704C30.4262 322.805 33.1493 327.788 38.9286 331.124L117.292 376.485C122.09 379.128 127.49 380.48 132.965 380.409C136.168 380.417 139.349 379.873 142.369 378.8C143.535 378.354 144.668 377.822 145.758 377.211L230.821 327.906C232.92 326.758 234.721 325.135 236.082 323.166C237.442 321.197 238.324 318.937 238.658 316.566C238.932 311.465 236.209 306.481 230.43 303.126L152.477 258.099C150.659 257.058 148.743 256.197 146.757 255.529C143.544 254.469 140.187 253.913 136.805 253.881C132.291 253.718 127.815 254.761 123.836 256.902Z" fill="black"/>
<path opacity="0.27" d="M124.58 260.198L43.924 306.952C40.143 309.13 36.5578 313.643 36.2052 317.469C35.7742 322.236 38.0663 326.984 43.6301 330.202L118.389 373.365C122.916 375.903 128.032 377.196 133.219 377.113C136.239 377.103 139.235 376.572 142.074 375.543C143.175 375.119 144.242 374.614 145.268 374.032L225.59 327.494C229.391 325.297 232.917 320.843 233.25 316.998C233.681 312.23 231.389 307.482 225.845 304.284L151.87 261.513C150.101 260.505 148.246 259.658 146.326 258.982C143.286 257.96 140.108 257.404 136.902 257.334C132.614 257.175 128.36 258.163 124.58 260.198Z" fill="black"/>
<path opacity="0.36" d="M125.382 263.514L49.3106 307.56C45.9801 309.522 42.1795 313.898 41.7485 317.233C41.1803 321.706 43.0415 326.199 48.3506 329.26L119.446 370.461C123.67 372.754 128.415 373.91 133.218 373.816C137.213 373.859 141.145 372.822 144.601 370.815L220.143 327.043C223.454 325.081 227.196 320.745 227.627 317.41C228.195 312.936 226.334 308.443 221.025 305.383L151.007 264.868C149.363 263.951 147.654 263.158 145.894 262.494C143.028 261.5 140.03 260.945 136.999 260.846C132.957 260.664 128.941 261.586 125.382 263.514Z" fill="black"/>
<path opacity="0.45" d="M126.088 266.829L54.6793 308.188C51.8386 309.836 47.7833 314.074 47.2935 317.016C46.5687 321.196 47.9988 325.394 53.0728 328.337L120.485 367.322C124.46 369.51 128.939 370.613 133.474 370.52C136.153 370.486 138.805 369.981 141.31 369.029C142.272 368.637 143.207 368.185 144.112 367.675L214.874 326.65C217.715 325.021 221.692 320.764 222.181 317.88C222.604 315.618 222.266 313.28 221.221 311.232C220.175 309.183 218.48 307.54 216.402 306.559L150.263 268.34C148.715 267.476 147.112 266.715 145.463 266.064C142.773 265.101 139.953 264.545 137.098 264.416C133.277 264.198 129.469 265.032 126.088 266.829Z" fill="black"/>
<path opacity="0.55" d="M126.831 270.126L60.0656 308.816C57.6951 310.17 52.8366 314.368 52.8366 316.782C51.1126 320.411 52.9541 324.63 57.7931 327.416L121.463 364.261C125.169 366.313 129.358 367.329 133.59 367.204C136.067 367.169 138.516 366.684 140.819 365.772C141.427 365.537 142.778 364.791 143.405 364.497L209.427 326.238C211.797 324.865 216.558 320.725 216.558 318.39C218.262 314.741 216.421 310.543 211.582 307.757L149.518 271.774C148.048 270.956 146.53 270.229 144.973 269.596C142.46 268.646 139.818 268.083 137.136 267.928C133.565 267.697 129.999 268.457 126.831 270.126Z" fill="black"/>
<path opacity="0.64" d="M127.577 273.421L65.4545 309.423C63.4954 310.522 58.3821 314.623 58.3821 316.545C56.4231 319.822 57.9316 323.824 62.5158 326.473L122.601 361.22C126.043 363.105 129.925 364.034 133.846 363.908C136.143 363.853 138.412 363.387 140.546 362.534C141.036 362.338 142.505 361.553 142.936 361.318L204.178 325.806C206.137 324.727 211.132 320.685 211.132 318.762C213.091 315.486 211.583 311.503 206.979 308.835L148.892 275.187C147.53 274.424 146.131 273.729 144.7 273.107C142.361 272.191 139.897 271.636 137.392 271.459C134.001 271.166 130.596 271.846 127.577 273.421Z" fill="black"/>
<path opacity="0.73" d="M128.321 276.737L70.822 309.993C69.4114 310.817 63.926 314.819 63.926 316.271C61.6142 319.175 62.8876 322.962 67.2564 325.493L123.639 358.101C126.815 359.843 130.403 360.69 134.022 360.553C136.143 360.484 138.233 360.032 140.193 359.219C140.546 359.062 142.152 358.258 142.368 358.081L198.868 325.336C200.279 324.512 205.627 320.588 205.627 319.136C207.939 316.232 206.665 312.446 202.296 309.915L148.049 278.601C147.52 278.307 144.778 276.855 144.131 276.639C141.966 275.756 139.681 275.2 137.353 274.991C134.238 274.7 131.104 275.305 128.321 276.737Z" fill="black"/>
<path opacity="0.82" d="M129.067 280.034L76.1713 310.66C75.2309 311.209 69.4124 315.133 69.4124 316.095C66.846 318.645 67.806 322.236 71.9397 324.629L124.698 355.118C127.611 356.711 130.903 357.478 134.219 357.335C136.156 357.246 138.06 356.807 139.842 356.041C140.077 355.942 141.605 355.099 141.801 354.981L193.521 325.002C194.481 324.453 200.123 320.627 200.123 319.666C202.709 317.115 201.729 313.525 197.596 311.131L147.306 282.035C146.953 281.819 144.152 280.289 143.74 280.073C141.75 279.217 139.644 278.662 137.491 278.425C134.587 278.136 131.661 278.695 129.067 280.034Z" fill="black"/>
<path opacity="0.91" d="M129.81 283.35L81.5966 311.288C79.2768 312.639 77.069 314.174 74.9945 315.879C72.1342 318.077 72.8199 321.471 76.6989 323.727L125.676 352.097C128.322 353.531 131.311 354.209 134.316 354.059C136.071 353.966 137.793 353.539 139.39 352.804L141.173 351.823L188.191 324.59C190.45 323.285 192.593 321.789 194.597 320.117C197.477 317.939 196.791 314.545 192.893 312.269L146.58 285.449C146.403 285.351 143.504 283.722 143.308 283.644C141.491 282.819 139.564 282.264 137.587 281.996C134.918 281.658 132.209 282.13 129.81 283.35Z" fill="black"/>
<path opacity="0.2" d="M139.096 349.507L189.131 320.528C192.285 318.704 191.894 315.506 188.25 313.406L142.877 287.155C141.008 286.116 138.922 285.528 136.786 285.439C134.65 285.351 132.523 285.764 130.574 286.645L80.539 315.643C77.3849 317.468 77.7767 320.646 81.4206 322.765L126.813 348.997C128.679 350.033 130.762 350.619 132.894 350.708C135.027 350.796 137.15 350.385 139.096 349.507Z" fill="black"/>
</g>
<path d="M272.001 228.727H269.298C267.714 226.774 265.772 225.143 263.577 223.92L158.217 163.099C145.758 155.898 123.972 156.801 109.573 165.061L12.1281 221.369C8.76558 223.213 5.80753 225.715 3.4297 228.727H0.216797V246.385C0.628206 250.564 3.35134 254.527 8.56252 257.529L113.922 318.35C126.402 325.57 148.167 324.668 162.567 316.388L260.012 260.06C266.849 256.136 270.747 251.192 271.766 246.326H272.021L272.001 228.727Z" fill="url(#paint0_linear)"/>
<path d="M114 302.792L8.64038 241.872C-3.91739 234.672 -2.27175 222.076 12.1276 213.855L109.573 157.409C123.972 149.09 145.757 148.188 158.217 155.447L263.577 216.367C276.056 223.587 274.489 236.183 260.09 244.501L162.605 300.79C148.245 309.109 126.48 309.992 114 302.792Z" fill="url(#paint1_linear)"/>
<path d="M268.591 214.189H265.966C264.414 212.29 262.52 210.7 260.383 209.5L157.491 150.013C145.306 142.97 124.03 143.852 109.983 151.975L14.8108 207.009C11.5301 208.815 8.64006 211.256 6.30831 214.189H3.19336V228.904C3.58518 232.985 6.24954 236.752 11.3236 239.793L114.215 299.28C126.4 306.324 147.676 305.441 161.742 297.318L256.895 242.383C263.556 238.459 267.377 233.731 268.278 229.002H268.513L268.591 214.189Z" fill="url(#paint2_linear)"/>
<path d="M271.785 204.418H269.081C267.503 202.46 265.56 200.828 263.36 199.611L158.001 138.79C145.541 131.57 123.756 132.473 109.356 140.752L11.9113 197.041C8.55006 198.903 5.58777 201.41 3.19332 204.418H0V222.076C0.411409 226.255 3.13454 230.199 8.34572 233.22L113.706 294.139C126.185 301.34 147.95 300.437 162.35 292.177L259.795 235.829C266.632 231.906 270.531 226.961 271.451 222.096H271.706L271.785 204.418Z" fill="url(#paint3_linear)"/>
<path d="M113.785 278.483L8.42491 217.662C-4.05449 210.442 -2.48722 197.865 11.9121 189.527L109.357 133.101C123.757 124.762 145.542 123.86 158.001 131.139L263.361 192.058C275.841 199.258 274.273 211.854 259.874 220.193L162.429 276.462C148.03 284.801 126.264 285.703 113.785 278.483Z" fill="url(#paint4_linear)"/>
<path style="mix-blend-mode:color-dodge" d="M259.874 217.956L162.429 274.285C148.03 282.623 126.265 283.526 113.785 276.247L8.42525 215.386C3.40998 212.502 0.706441 208.735 0.157896 204.733C-0.62574 209.912 2.11699 214.974 8.42525 218.643L113.785 279.582C126.265 286.783 148.03 285.88 162.429 277.62L259.874 221.272C268.494 216.289 272.471 209.775 271.629 203.811C270.904 208.755 266.947 213.856 259.874 217.956Z" fill="url(#paint5_radial)"/>
<path d="M160.076 150.268V154.604L163.857 152.426V148.07L160.076 150.268Z" fill="url(#paint6_linear)"/>
<path d="M160.077 150.268V154.604L137.41 141.479V137.143L160.077 150.268Z" fill="url(#paint7_linear)"/>
<path d="M137.41 137.143L160.077 150.268L163.858 148.071L141.172 134.965L137.41 137.143Z" fill="url(#paint8_linear)"/>
<path d="M151.596 4.45336V145.5L147.736 143.263V2.23633L151.596 4.45336Z" fill="url(#paint9_linear)"/>
<path d="M151.596 4.45336V145.5L155.416 143.263V2.23633L151.596 4.45336Z" fill="url(#paint10_linear)"/>
<path d="M155.416 2.23665L151.596 4.45369L147.736 2.23665L151.596 0L155.416 2.23665Z" fill="url(#paint11_linear)"/>
<path d="M39.4367 76.4779V173.655L35.2246 171.359V74.0254L39.4367 76.4779Z" fill="url(#paint12_linear)"/>
<path d="M39.3984 76.4778V173.654L151.576 108.615V11.2812L39.3984 76.4778Z" fill="url(#paint13_linear)"/>
<path opacity="0.5" d="M148.518 107.183V16.2646L42.4531 77.91V168.691L148.518 107.183Z" fill="url(#paint14_linear)"/>
<path d="M151.575 11.2813L39.3975 76.4778L35.2246 74.0253L147.441 8.8877L151.575 11.2813Z" fill="url(#paint15_linear)"/>
<path d="M44.334 216.975V221.311L48.115 219.133V214.777L44.334 216.975Z" fill="url(#paint16_linear)"/>
<path d="M44.3542 216.975V221.311L21.668 208.186V203.85L44.3542 216.975Z" fill="url(#paint17_linear)"/>
<path d="M21.668 203.85L44.3542 216.975L48.1157 214.778L25.4294 201.672L21.668 203.85Z" fill="url(#paint18_linear)"/>
<path d="M35.8711 71.1604V212.207L32.0117 209.97V68.9434L35.8711 71.1604Z" fill="url(#paint19_linear)"/>
<path d="M35.8516 71.1604V212.207L39.6914 209.97V68.9434L35.8516 71.1604Z" fill="url(#paint20_linear)"/>
<path d="M39.6913 68.9437L35.8515 71.1607L32.0117 68.9437L35.8515 66.707L39.6913 68.9437Z" fill="url(#paint21_linear)"/>
<path style="mix-blend-mode:color-dodge" d="M36.5764 70.8271V211.658L35.8516 212.207V71.3373L36.5764 70.8271Z" fill="url(#paint22_radial)"/>
<path d="M89.0035 129.685V63.9788C89.0035 60.7219 87.0444 59.2308 84.5955 60.6434L54.4255 78.3012C53.0844 79.2655 51.9873 80.5307 51.2219 81.9956C50.4565 83.4606 50.044 85.0846 50.0176 86.7377V152.346C50.0176 155.603 51.9767 157.094 54.4255 155.682L84.5955 138.122C85.9366 137.158 87.0337 135.892 87.7992 134.428C88.5646 132.963 88.977 131.339 89.0035 129.685Z" fill="#EBDEF3"/>
<path d="M52.681 157.193C50.8591 157.193 49.0371 155.702 49.0371 152.347V86.6401C49.0577 84.8146 49.5128 83.0204 50.3646 81.4064C51.2164 79.7924 52.4404 78.4052 53.9348 77.3599L84.1048 59.7021C84.7803 59.2952 85.5501 59.072 86.3382 59.0547C88.1601 59.0547 89.9821 60.5458 89.9821 63.9008V129.686C89.9583 131.511 89.5018 133.304 88.6503 134.917C87.7988 136.531 86.5765 137.918 85.0844 138.966L54.9144 156.624C54.2342 157.01 53.4629 157.207 52.681 157.193ZM86.3382 61.0559C85.8939 61.079 85.4627 61.214 85.0844 61.4483L54.9144 79.1061C53.7316 79.9937 52.7647 81.1378 52.0862 82.4527C51.4076 83.7676 51.035 85.2193 50.9962 86.6989V152.347C50.9962 153.681 51.4468 155.231 52.681 155.231C53.1253 155.208 53.5565 155.073 53.9348 154.838L84.1048 137.181C85.2946 136.304 86.267 135.165 86.9464 133.852C87.6259 132.539 87.9943 131.086 88.023 129.607V63.9792C88.023 62.6451 87.5724 61.0951 86.3382 61.0951V61.0559Z" fill="#8969C3"/>
<path opacity="0.5" d="M118.467 61.9786V48.2251V45.9492L102.441 55.2686V57.1521V71.298L118.467 61.9786Z" fill="#8969C3"/>
<path d="M119.897 62.1551L118.467 48.2251V45.9492L102.441 55.2686V57.1521L103.872 71.4549L119.897 62.1551Z" fill="url(#paint23_linear)"/>
<path d="M118.467 48.2251V45.9492L102.441 55.2686V57.1521L118.467 48.2251Z" fill="url(#paint24_linear)"/>
<path opacity="0.5" d="M137.137 51.5607V37.7876V35.5117L121.092 44.8311V46.7146V60.8605L137.137 51.5607Z" fill="#8969C3"/>
<path d="M138.567 51.7176L137.137 37.7876V35.5117L121.092 44.8311V46.7146L122.522 61.0174L138.567 51.7176Z" fill="url(#paint25_linear)"/>
<path d="M137.137 37.7876V35.5117L121.092 44.8311V46.7146L137.137 37.7876Z" fill="url(#paint26_linear)"/>
<path opacity="0.5" d="M131.436 104.77V90.9966V88.7207L115.391 98.0597V99.9236V114.069L131.436 104.77Z" fill="#8969C3"/>
<path d="M132.866 104.927L131.436 90.9966V88.7207L115.391 98.0597V99.9236L116.821 114.226L132.866 104.927Z" fill="url(#paint27_linear)"/>
<path d="M131.436 90.9966V88.7207L115.391 98.0597V99.9236L131.436 90.9966Z" fill="url(#paint28_linear)"/>
<path opacity="0.5" d="M109.906 91.918V78.1646V75.8887L93.8809 85.2081V87.0916V101.218L109.906 91.918Z" fill="#8969C3"/>
<path d="M111.356 92.0946L109.906 78.1646V75.8887L93.8809 85.2081V87.0916L95.311 101.394L111.356 92.0946Z" fill="url(#paint29_linear)"/>
<path d="M109.906 78.1646V75.8887L93.8809 85.2081V87.0916L109.906 78.1646Z" fill="url(#paint30_linear)"/>
<path opacity="0.5" d="M128.576 81.5011V67.728V65.4521L112.531 74.7715V76.655V90.8009L128.576 81.5011Z" fill="#8969C3"/>
<path d="M130.006 81.6581L128.576 67.728V65.4521L112.531 74.7715V76.655L113.961 90.9578L130.006 81.6581Z" fill="url(#paint31_linear)"/>
<path d="M128.576 67.728V65.4521L112.531 74.7715V76.655L128.576 67.728Z" fill="url(#paint32_linear)"/>
<path opacity="0.5" d="M146.775 71.4161V57.6626V55.3867L130.75 64.7061V66.5896V80.7158L146.775 71.4161Z" fill="#8969C3"/>
<path d="M148.225 71.573L146.775 57.6626V55.3867L130.75 64.7061V66.5896L132.18 80.8924L148.225 71.573Z" fill="url(#paint33_linear)"/>
<path d="M146.775 57.6626V55.3867L130.75 64.7061V66.5896L146.775 57.6626Z" fill="url(#paint34_linear)"/>
<path d="M111.493 106.574L105.008 102.866V108.988L80.4023 123.173V126.116L105.008 111.931V117.797L111.493 106.574Z" fill="#9F79C8"/>
<path d="M100.894 67.7863L94.4099 64.0781V70.1995L81.6758 77.6746V80.6176L94.4099 73.1425V79.0088L100.894 67.7863Z" fill="#9F79C8"/>
<path d="M76.6396 132.021L64.4932 139.065C64.2623 139.194 64.0018 139.261 63.7373 139.259C63.4728 139.257 63.2134 139.186 62.9844 139.054C62.7553 138.921 62.5645 138.731 62.4307 138.503C62.2968 138.274 62.2245 138.015 62.2207 137.75V133.532C62.222 132.884 62.3927 132.248 62.7158 131.687C63.0389 131.126 63.5031 130.66 64.0622 130.334L76.2282 123.31C76.4577 123.18 76.7174 123.112 76.9813 123.113C77.2451 123.115 77.504 123.186 77.732 123.319C77.96 123.452 78.1492 123.642 78.2807 123.871C78.4121 124.101 78.4813 124.36 78.4812 124.625V128.843C78.4864 129.489 78.3183 130.125 77.9944 130.684C77.6705 131.243 77.2026 131.705 76.6396 132.021Z" fill="#8969C3"/>
<path d="M81.8116 97.8247L57.7148 111.774V109.499L81.8116 95.5488V97.8247Z" fill="#8969C3"/>
<path d="M81.8116 102.376L57.7148 116.325V114.049L81.8116 100.1V102.376Z" fill="#8969C3"/>
<path d="M81.8116 106.947L57.7148 120.877V118.601L81.8116 104.651V106.947Z" fill="#8969C3"/>
<path d="M81.8116 111.5L57.7148 125.43V123.154L81.8116 109.224V111.5Z" fill="#8969C3"/>
<path d="M250.333 190.959L214.834 211.482L161.566 180.679L197.065 160.156L250.333 190.959Z" fill="url(#paint35_linear)"/>
<path d="M233.837 194.628L220.985 202.084C219.529 202.891 217.904 203.347 216.241 203.415C214.578 203.483 212.922 203.162 211.405 202.476L178.1 183.17C175.652 181.738 175.965 179.246 178.806 177.638L191.657 170.202C193.107 169.386 194.729 168.925 196.391 168.857C198.052 168.788 199.706 169.115 201.218 169.809L234.522 189.115C237.049 190.508 236.658 192.98 233.837 194.628Z" fill="#EBDEF3"/>
<path d="M235.189 194.569L220.888 202.829C219.322 203.627 217.59 204.043 215.833 204.043C214.076 204.043 212.344 203.627 210.779 202.829L177.474 183.523C174.673 181.915 174.673 179.286 177.474 177.638L191.756 169.378C193.322 168.58 195.054 168.164 196.81 168.164C198.567 168.164 200.299 168.58 201.865 169.378L235.169 188.683C237.951 190.312 237.971 192.961 235.189 194.569ZM178.61 178.383C178.149 178.536 177.748 178.831 177.464 179.225C177.18 179.62 177.026 180.094 177.026 180.581C177.026 181.067 177.18 181.541 177.464 181.936C177.748 182.33 178.149 182.625 178.61 182.778L211.915 202.084C213.09 202.679 214.389 202.989 215.706 202.989C217.023 202.989 218.321 202.679 219.497 202.084L233.778 193.824C234.239 193.671 234.641 193.376 234.925 192.982C235.209 192.587 235.362 192.113 235.362 191.626C235.362 191.14 235.209 190.666 234.925 190.271C234.641 189.877 234.239 189.582 233.778 189.429L200.474 170.123C199.299 169.528 198 169.218 196.683 169.218C195.366 169.218 194.068 169.528 192.892 170.123L178.61 178.383Z" fill="#8969C3"/>
<path d="M217.223 183.719L201.903 192.588L194.498 188.291L209.838 179.442L217.223 183.719Z" fill="#EBDEF3"/>
<path d="M218.497 183.72L201.903 193.314L193.225 188.35L209.838 178.756L218.497 183.72ZM201.884 191.842L215.97 183.7L209.838 180.168L195.771 188.35L201.884 191.842Z" fill="#8969C3"/>
<path d="M197.3 182.622L190.991 186.271L183.586 181.994L189.894 178.345L197.3 182.622Z" fill="#EBDEF3"/>
<path d="M198.553 182.621L190.991 186.996L182.332 181.993L189.894 177.618L198.553 182.621ZM190.991 185.545L196.026 182.621L189.894 179.09L184.859 181.993L190.991 185.545Z" fill="#8969C3"/>
<path d="M221.025 185.898L205.686 194.766L204.412 194.04L219.752 185.172L221.025 185.898Z" fill="#8969C3"/>
<path d="M223.552 187.369L208.213 196.238L206.959 195.492L222.279 186.644L223.552 187.369Z" fill="#8969C3"/>
<path d="M226.099 188.84L210.76 197.708L209.486 196.963L224.826 188.095L226.099 188.84Z" fill="#8969C3"/>
<path d="M228.627 190.292L213.287 199.16L212.014 198.435L227.353 189.566L228.627 190.292Z" fill="#8969C3"/>
<path d="M200.729 174.164L194.107 177.99L192.834 177.264L199.456 173.438L200.729 174.164Z" fill="#8969C3"/>
<path d="M203.256 175.636L196.635 179.462L195.381 178.716L201.983 174.891L203.256 175.636Z" fill="#8969C3"/>
<path d="M205.803 177.108L199.182 180.934L197.908 180.188L204.53 176.362L205.803 177.108Z" fill="#8969C3"/>
<path d="M255.897 199.788L220.379 220.311L167.111 189.508L202.61 168.985L255.897 199.788Z" fill="url(#paint36_linear)"/>
<path d="M239.382 203.457L226.53 210.893C225.078 211.7 223.457 212.155 221.797 212.224C220.137 212.292 218.484 211.97 216.97 211.285L183.666 191.979C181.217 190.547 181.511 188.055 184.351 186.446L197.203 179.01C198.652 178.194 200.274 177.733 201.936 177.665C203.598 177.597 205.252 177.923 206.763 178.618L240.166 197.924C242.517 199.336 242.223 201.809 239.382 203.457Z" fill="#EBDEF3"/>
<path d="M240.734 203.398L226.452 211.658C224.886 212.456 223.154 212.871 221.397 212.871C219.641 212.871 217.909 212.456 216.343 211.658L182.941 192.273C180.139 190.665 180.119 188.036 182.941 186.388L197.222 178.128C198.788 177.33 200.52 176.914 202.277 176.914C204.034 176.914 205.765 177.33 207.331 178.128L240.636 197.433C243.496 199.18 243.516 201.789 240.734 203.398ZM184.155 187.212C183.694 187.365 183.293 187.659 183.009 188.054C182.724 188.448 182.571 188.922 182.571 189.409C182.571 189.895 182.724 190.37 183.009 190.764C183.293 191.159 183.694 191.453 184.155 191.606L217.46 210.912C218.635 211.507 219.934 211.817 221.251 211.817C222.567 211.817 223.866 211.507 225.041 210.912L239.323 202.652C241.419 201.456 241.4 199.474 239.323 198.258L206.019 178.952C204.843 178.357 203.545 178.047 202.228 178.047C200.911 178.047 199.612 178.357 198.437 178.952L184.155 187.212Z" fill="#8969C3"/>
<path d="M224.042 192.548L207.448 202.084L198.789 197.061L215.383 187.467L224.042 192.548ZM207.448 200.671L221.515 192.529L215.383 188.997L201.316 197.139L207.448 200.671Z" fill="#8969C3"/>
<path d="M204.098 191.451L196.536 195.826L187.877 190.823L195.439 186.389L204.098 191.451ZM196.536 194.374L201.571 191.451L195.439 187.919L190.404 190.823L196.536 194.374Z" fill="#8969C3"/>
<path d="M226.57 194.727L211.23 203.595L209.957 202.869L225.297 194.001L226.57 194.727Z" fill="#8969C3"/>
<path d="M229.097 196.199L213.777 205.067L212.504 204.321L227.844 195.473L229.097 196.199Z" fill="#8969C3"/>
<path d="M231.644 197.669L216.305 206.538L215.031 205.792L230.371 196.924L231.644 197.669Z" fill="#8969C3"/>
<path d="M234.172 199.121L218.852 207.99L217.578 207.264L232.918 198.396L234.172 199.121Z" fill="#8969C3"/>
<path d="M206.274 182.994L199.652 186.819L198.398 186.093L205.001 182.268L206.274 182.994Z" fill="#8969C3"/>
<path d="M208.801 184.465L202.199 188.291L200.926 187.546L207.548 183.72L208.801 184.465Z" fill="#8969C3"/>
<path d="M211.348 185.937L204.726 189.763L203.473 189.017L210.075 185.191L211.348 185.937Z" fill="#8969C3"/>
<g style="mix-blend-mode:multiply" opacity="0.1">
<path d="M103.343 207.282C112.57 211.638 116.43 209.087 122.346 205.673C128.263 202.26 130.711 199.14 123.815 195.863C116.919 192.587 110.69 195.079 104.773 198.493C98.8567 201.906 98.3277 204.908 103.343 207.282Z" fill="black"/>
</g>
<path d="M125.873 142.067C125.755 144.362 126.01 152.583 123.914 157.763C121.818 162.942 124.168 166.336 124.639 169.181C125.208 174.047 125.076 178.97 124.247 183.798C123.561 189.684 123.62 192.568 124.247 193.824C124.874 195.079 124.482 196.884 120.681 197.924C116.881 198.964 112.434 199.003 112.845 195.491C112.982 194.353 116.234 197.002 117.331 195.276C118.428 193.549 119.682 190.783 119.055 184.504C118.428 178.226 117.684 174.361 117.331 170.908C116.979 167.455 116.293 163.178 115.607 158.567C114.922 153.956 114.177 140.262 114.177 140.262L125.873 142.067Z" fill="url(#paint37_radial)"/>
<path d="M121.719 192.961C121.719 190.999 121.249 186.251 121.249 183.151C121.249 180.051 118.976 168.887 120.014 166.611C121.464 163.256 119.505 158.783 119.505 157.076C119.505 155.369 119.603 143.656 119.603 141.105L125.931 142.067C125.813 144.362 126.068 152.583 123.972 157.763C121.875 162.942 124.226 166.337 124.697 169.181C125.266 174.047 125.134 178.97 124.305 183.798C123.619 189.684 123.678 192.568 124.305 193.824C124.932 195.079 124.54 196.884 120.739 197.924C119.795 198.183 118.832 198.367 117.859 198.474L118.721 198.003C118.721 198.003 121.719 194.844 121.719 192.961Z" fill="url(#paint38_radial)"/>
<path d="M124.776 193.804C125.501 194.589 125.93 195.601 125.991 196.668C125.834 197.943 124.816 199.533 124.776 200.729C124.737 201.926 124.776 202.829 124.776 202.868C124.483 202.894 124.188 202.894 123.895 202.868L123.542 202.593V198.355C122.348 198.222 121.141 198.447 120.075 199.003C118.23 200.062 116.059 200.397 113.982 199.945C112.532 199.317 111.513 194.961 111.67 194.294C111.827 193.627 115.314 195.491 115.882 195.726C116.133 195.851 116.395 195.949 116.666 196.021C116.666 196.021 114.844 195.511 114.413 196.158C114.311 196.405 114.267 196.672 114.287 196.938C114.306 197.205 114.388 197.463 114.525 197.692C114.662 197.921 114.851 198.114 115.077 198.257C115.302 198.399 115.558 198.487 115.823 198.512C117.273 198.748 119.056 196.727 120.564 196.197C122.073 195.668 124.385 194.785 124.776 193.804Z" fill="#10054D"/>
<path d="M118.507 149.915C117.684 152.132 116.548 156.546 115.627 159.725C114.707 162.903 113.453 166.14 114.04 168.397C115.236 172.008 115.896 175.776 116 179.58C116 184.701 115.431 195.531 116.176 197.238C116.92 198.945 117.626 200.357 117.214 201.338C116.803 202.319 113.296 203.163 110.475 205.027C107.654 206.891 103.873 202.947 105.303 202.084C106.733 201.22 106.968 202.26 108.065 201.574C109.078 201.015 109.938 200.213 110.566 199.241C111.195 198.269 111.574 197.156 111.67 196.002C111.474 193.412 108.614 176.421 107.752 172.654C106.965 169.203 106.467 165.692 106.263 162.157C105.891 157.443 105.891 152.706 106.263 147.992C106.772 143.931 120.799 143.636 118.507 149.915Z" fill="url(#paint39_radial)"/>
<path d="M110.239 205.046L112.943 201.652C112.645 200.708 112.551 199.712 112.668 198.729C113.353 197.18 113.681 195.497 113.628 193.804C112.908 187.172 111.836 180.584 110.415 174.067C109.847 171.81 111.179 169.633 110.984 167.847C110.788 166.062 109.024 160.843 109.475 157.272C109.769 155.094 110.69 149.424 111.434 145.127C110.96 145.168 110.488 145.24 110.024 145.343C114.157 144.421 120.113 145.657 118.565 149.915C117.742 152.132 116.606 156.546 115.685 159.725C114.765 162.903 113.511 166.14 114.099 168.396C115.294 172.008 115.954 175.776 116.058 179.58C116.058 184.7 115.489 195.531 116.234 197.238C116.978 198.944 117.664 200.357 117.272 201.338C116.88 202.319 113.354 203.163 110.533 205.027C110.172 205.271 109.765 205.437 109.336 205.515C108.908 205.592 108.468 205.58 108.045 205.478C108.805 205.617 109.588 205.462 110.239 205.046Z" fill="url(#paint40_radial)"/>
<path d="M121.974 131.1L107.222 131.708C107.222 131.708 106.301 142.302 105.968 146.285C105.635 150.268 105.596 163.021 105.596 163.021C107.977 164.236 110.654 164.746 113.315 164.492C116.88 163.806 125.069 161.903 125.069 161.903C125.069 161.903 125.363 157.979 125.578 154.369C125.794 150.759 126.558 142.597 125.343 139.124C124.129 135.651 121.974 131.1 121.974 131.1Z" fill="url(#paint41_linear)"/>
<path d="M121.974 131.1L107.222 131.708C107.222 131.708 106.301 142.302 105.968 146.285C105.635 150.268 105.596 163.021 105.596 163.021C107.977 164.236 110.654 164.746 113.315 164.492C116.88 163.806 125.069 161.903 125.069 161.903C125.069 161.903 125.363 157.979 125.578 154.369C125.794 150.759 126.558 142.597 125.343 139.124C124.129 135.651 121.974 131.1 121.974 131.1Z" fill="url(#paint42_linear)"/>
<path d="M116.842 198.159C117.291 198.566 117.64 199.073 117.861 199.638C118.082 200.203 118.169 200.812 118.115 201.416C117.743 203.143 116.783 203.26 116.783 204.496V207.734L116.019 208.008L115.196 207.714V202.77C113.789 203.197 112.464 203.86 111.278 204.732C110.506 205.35 109.586 205.753 108.609 205.901C107.632 206.049 106.634 205.937 105.714 205.575C104.362 204.889 101.796 201.396 102.501 200.71C103.207 200.023 107.987 201.436 107.987 201.436C107.987 201.436 106.165 201.632 105.89 202.554C105.616 203.476 107.183 204.653 108.437 204.084C110.055 202.871 111.757 201.776 113.531 200.808C116.058 199.866 116.705 198.61 116.842 198.159Z" fill="#10054D"/>
<g style="mix-blend-mode:multiply">
<path d="M105.968 146.284C106.281 142.674 107.065 133.61 107.202 131.962L110.298 132.511C110.298 132.511 110.591 143.95 110.689 149.149C110.689 153.23 110.239 161.254 110.023 164.472C108.487 164.195 106.997 163.707 105.596 163.02C105.596 163.02 105.615 150.267 105.968 146.284Z" fill="#D1D3D4"/>
</g>
<path d="M124.678 106.438C125.834 109.008 127.538 117.935 126.833 120.603C126.382 122.33 122.288 132.375 122.288 132.375L118.898 127.607L124.678 106.438Z" fill="url(#paint43_linear)"/>
<path d="M112.747 108.909C111.258 110.165 106.478 113.736 105.616 116.384C104.754 119.033 105.616 120.308 106.008 122.27C106.959 124.824 107.314 127.562 107.046 130.275C106.654 134.533 105.694 146.187 105.518 147.58C105.342 148.973 106.831 149.542 108.202 149.738C112.601 150.207 117.049 149.834 121.308 148.639C125.52 147.03 126.539 146.403 126.539 145.422C126.524 142.086 125.81 138.791 124.443 135.749C122.758 132.506 121.865 128.908 121.837 125.252C122.014 123.016 125.638 113.481 125.462 109.929C125.285 106.378 123.738 103.2 121.21 104.044C118.248 105.405 115.415 107.034 112.747 108.909Z" fill="url(#paint44_linear)"/>
<path d="M114.392 149.915C112.259 148.08 110.929 145.481 110.689 142.675C110.493 138.143 111.336 133.885 112.374 133.748C113.412 133.611 114.333 131.786 114.333 130.53C114.333 124.389 116.155 113.54 114.647 111.97C113.376 111.145 111.863 110.778 110.356 110.93C111.375 110.067 112.315 109.341 112.805 108.968C115.45 107.055 118.263 105.387 121.21 103.985C123.737 103.18 125.284 106.339 125.461 109.871C125.637 113.402 122.013 122.957 121.836 125.194C121.864 128.85 122.757 132.447 124.442 135.69C125.809 138.732 126.524 142.027 126.538 145.363C126.538 146.344 125.52 146.972 121.307 148.581C117.678 149.638 113.894 150.063 110.121 149.836C111.277 149.993 112.785 149.993 114.392 149.915Z" fill="url(#paint45_linear)"/>
<path d="M121.268 104.749C120.43 105.496 119.384 105.968 118.271 106.103C116.311 106.456 115.156 106.103 114.47 106.652C113.835 107.234 113.276 107.893 112.805 108.614C113.617 107.991 114.574 107.586 115.587 107.437C117.325 107.468 119.055 107.196 120.7 106.633C121.66 105.965 121.483 105.534 121.483 105.357C121.439 105.146 121.366 104.941 121.268 104.749Z" fill="url(#paint46_linear)"/>
<g style="mix-blend-mode:multiply">
<path d="M120.956 104.278C120.956 104.278 122.739 105.848 122.523 107.28C122.308 108.712 120.858 110.047 118.292 109.85C116.564 109.454 114.769 109.454 113.041 109.85C111.886 110.36 109.691 111.44 109.691 111.44C109.691 111.44 111.964 107.751 113.884 107.516C115.775 107.469 117.657 107.245 119.506 106.849C120.643 106.26 121.348 106.083 121.466 105.357C121.502 105.147 121.472 104.93 121.381 104.737C121.29 104.544 121.141 104.384 120.956 104.278Z" fill="#D1D3D4"/>
</g>
<path d="M120.956 104.278C120.956 104.278 122.602 105.181 122.386 106.633C122.171 108.085 120.721 109.399 118.155 109.183C116.374 108.858 114.541 108.959 112.806 109.478C111.714 110.041 110.672 110.698 109.691 111.44C109.691 111.44 111.964 107.751 113.884 107.516C115.775 107.469 117.657 107.245 119.506 106.849C120.643 106.26 121.348 106.083 121.466 105.357C121.502 105.147 121.472 104.93 121.381 104.737C121.29 104.544 121.141 104.384 120.956 104.278Z" fill="url(#paint47_linear)"/>
<path style="mix-blend-mode:color-dodge" d="M112.61 109.183C114.349 108.684 116.178 108.59 117.959 108.909C120.525 109.105 121.877 107.771 122.19 106.338C122.259 105.93 122.175 105.511 121.955 105.161C122.122 105.365 122.246 105.6 122.32 105.853C122.394 106.106 122.417 106.371 122.386 106.633C122.171 108.045 120.721 109.399 118.155 109.183C116.374 108.858 114.541 108.959 112.806 109.477C111.714 110.041 110.672 110.698 109.691 111.439C109.691 111.439 109.907 111.086 110.26 110.596C111.004 110.063 111.79 109.59 112.61 109.183Z" fill="url(#paint48_radial)"/>
<path d="M84.4183 116.502C83.9642 116.116 83.4473 115.811 82.8902 115.6C81.3229 115.109 78.2276 113.52 78.2276 112.618C78.4476 111.542 78.8238 110.504 79.3443 109.537C79.3443 109.537 76.4056 106.712 76.2097 106.437C76.0138 106.163 76.6015 105.751 77.4439 106.437C78.683 107.363 79.9932 108.19 81.3621 108.909L82.4788 109.086C82.0638 108.609 81.6903 108.097 81.3621 107.556C81.1858 107.163 81.3621 106.496 81.7539 106.555C82.1457 106.614 83.6151 108.694 84.242 109.086C84.9311 109.895 85.4627 110.827 85.8092 111.833C86.0371 112.372 86.2989 112.896 86.5929 113.402C86.5929 113.402 85.535 117.405 84.4183 116.502Z" fill="url(#paint49_linear)"/>
<path d="M87.0247 113.5L86.3195 112.695L83.4004 115.933L84.2624 116.502L87.0247 113.5Z" fill="url(#paint50_linear)"/>
<path d="M111.865 90.5453C110.141 91.9187 108.965 96.8629 110.062 100.237C111.159 103.612 112.609 103.887 113.197 104.161C113.785 104.436 115.567 107.418 114.862 108.752C114.157 110.087 119.544 109.321 120.876 108.223C122.209 107.124 122.267 106.653 122.267 106.653C121.892 106.12 121.628 105.518 121.49 104.881C121.352 104.244 121.343 103.585 121.464 102.945C122.091 101.395 124.814 95.6465 121.464 91.7029C120.31 90.3256 118.675 89.4396 116.893 89.2246C115.11 89.0097 113.313 89.4818 111.865 90.5453Z" fill="url(#paint51_radial)"/>
<path d="M110.533 111.636C110.998 111.387 111.513 111.246 112.039 111.223C112.566 111.2 113.091 111.296 113.576 111.503C114.061 111.71 114.493 112.023 114.841 112.42C115.189 112.816 115.444 113.286 115.587 113.794C115.934 115.169 115.752 116.624 115.077 117.871C114.402 119.117 113.283 120.064 111.943 120.523C107.879 122.777 103.954 125.273 100.189 127.998C99.4912 128.655 98.5698 129.021 97.6125 129.021C96.6552 129.021 95.7339 128.655 95.0363 127.998C92.7834 126.036 83.752 116.462 83.752 116.462L86.8277 113.146C86.8277 113.146 93.1948 119.817 94.6641 120.739C96.1334 121.661 97.5048 122.544 97.5048 122.544C97.5048 122.544 108.456 112.695 110.533 111.636Z" fill="url(#paint52_linear)"/>
<g style="mix-blend-mode:multiply" opacity="0.5">
<path d="M112.022 119.366C107.963 121.629 104.039 124.125 100.267 126.841C99.572 127.502 98.6498 127.87 97.6911 127.87C96.7324 127.87 95.8102 127.502 95.1149 126.841C93.1558 125.134 86.2011 117.717 84.242 115.755L83.6738 116.364C83.6738 116.364 92.7052 125.919 94.9582 127.9C95.6557 128.557 96.5771 128.922 97.5344 128.922C98.4917 128.922 99.413 128.557 100.111 127.9C103.876 125.175 107.801 122.679 111.865 120.425C112.978 120.009 113.938 119.265 114.62 118.291C115.302 117.318 115.673 116.16 115.685 114.971C115.483 115.949 115.043 116.862 114.404 117.628C113.765 118.395 112.947 118.992 112.022 119.366Z" fill="#D1D3D4"/>
</g>
<path d="M109.475 94.7827C110.296 95.5492 111.211 96.2084 112.198 96.7447C113.295 97.2156 114.157 99.1187 114.51 99.5895C114.826 100.256 114.909 101.009 114.745 101.728C114.196 106.986 110.67 106.908 111.218 111.989C112.022 119.582 120.132 124.252 125.441 121.956C129.359 120.23 130.927 114.442 127.792 107.261C126.166 103.553 125.97 102.277 124.893 95.8422C124.09 91.0746 119.721 86.9348 114.647 87.9943C107.751 89.2303 109.475 94.7827 109.475 94.7827Z" fill="url(#paint53_linear)"/>
<g style="mix-blend-mode:multiply">
<path d="M127.793 107.202C126.745 104.934 126.019 102.53 125.638 100.061C124.72 102.769 122.981 105.123 120.663 106.793C118.345 108.464 115.564 109.368 112.708 109.38C112.257 109.38 111.787 109.38 111.356 109.38C111.143 110.233 111.097 111.119 111.219 111.989C112.022 119.582 120.133 124.252 125.442 121.956C129.419 120.171 130.927 114.383 127.793 107.202Z" fill="#D1D3D4"/>
</g>
<path d="M63.416 101.356L75.6015 94.2924V92.9387L63.416 100.061V101.356ZM78.0504 74.2999C77.6547 74.5584 77.3246 74.9059 77.0866 75.3146C76.8485 75.7233 76.709 76.182 76.679 76.6543C76.679 77.2821 77.0121 77.6353 77.4627 77.6156L72.3298 88.2888L69.9985 82.1282C70.3008 81.8637 70.548 81.5422 70.7262 81.182C70.9043 80.8218 71.0099 80.4299 71.0368 80.0289C71.0368 79.1656 70.4099 78.8124 69.6655 79.2441C69.2639 79.501 68.9298 79.8507 68.6911 80.2638C68.4525 80.6769 68.3164 81.1413 68.2941 81.6181C68.2941 82.3244 68.7251 82.6972 69.2933 82.5402L66.6093 91.4476L61.4765 86.8369C61.9855 86.3086 62.279 85.6088 62.2993 84.8749C62.2993 84.0117 61.692 83.6585 60.9279 84.0902C60.5348 84.3497 60.2078 84.6978 59.973 85.1067C59.7383 85.5155 59.6024 85.9737 59.5762 86.4445C59.5762 87.3274 60.1835 87.6806 60.9279 87.2293L63.2201 98.8638L75.484 91.7811L77.7761 77.4783H77.8937C78.2926 77.2233 78.6251 76.8766 78.8636 76.4672C79.1021 76.0577 79.2397 75.5973 79.265 75.1239C79.4217 74.2018 78.8144 73.8486 78.0504 74.2999Z" fill="#8969C3"/>
<path d="M148.068 259.353C147.378 258.776 146.808 258.069 146.391 257.271C145.975 256.473 145.719 255.6 145.639 254.704C145.639 253.723 146.991 252.938 148.695 252.938C150.909 252.95 153.117 252.713 155.278 252.231C156.649 252.743 158.158 252.743 159.529 252.231C160.646 251.584 160.998 250.721 160.489 250.152C164.917 247.326 166.993 243.952 160.665 240.342C158.089 238.802 155.144 237.989 152.143 237.989C149.143 237.989 146.198 238.802 143.621 240.342C142.394 240.058 141.104 240.254 140.017 240.891C139.808 241.015 139.633 241.19 139.508 241.398C139.383 241.606 139.311 241.843 139.299 242.086C139.288 242.329 139.336 242.571 139.441 242.79C139.546 243.01 139.703 243.2 139.899 243.344C139.096 244.451 138.657 245.781 138.645 247.15C138.645 248.131 137.293 248.955 135.609 248.916C132.861 248.89 130.135 248.42 127.537 247.523C125.836 246.933 124.034 246.689 122.237 246.807C120.44 246.925 118.686 247.402 117.076 248.209L112.158 251.133C111.964 251.212 111.797 251.348 111.68 251.523C111.563 251.697 111.5 251.903 111.5 252.114C111.5 252.324 111.563 252.53 111.68 252.705C111.797 252.879 111.964 253.015 112.158 253.095L138.469 268.3C139.006 268.563 139.595 268.7 140.193 268.7C140.791 268.7 141.38 268.563 141.917 268.3L146.932 265.416C149.675 263.768 150.086 261.257 148.068 259.353Z" fill="#6B24D6"/>
</g>
<defs>
<linearGradient id="paint0_linear" x1="0.216797" y1="240.734" x2="272.001" y2="240.734" gradientUnits="userSpaceOnUse">
<stop offset="0.04" stop-color="#25054D"/>
<stop offset="0.14" stop-color="#260550"/>
<stop offset="0.21" stop-color="#2B0759"/>
<stop offset="0.27" stop-color="#330A67"/>
<stop offset="0.32" stop-color="#3E0E7D"/>
<stop offset="0.34" stop-color="#45108A"/>
<stop offset="0.38" stop-color="#4E1294"/>
<stop offset="0.44" stop-color="#6518AF"/>
<stop offset="0.49" stop-color="#7C1DC9"/>
<stop offset="0.53" stop-color="#6B19B5"/>
<stop offset="0.59" stop-color="#45108A"/>
<stop offset="0.66" stop-color="#3C0D79"/>
<stop offset="0.79" stop-color="#2F0961"/>
<stop offset="0.9" stop-color="#280652"/>
<stop offset="1" stop-color="#25054D"/>
</linearGradient>
<linearGradient id="paint1_linear" x1="237.011" y1="-31.7646" x2="124.9" y2="257.241" gradientUnits="userSpaceOnUse">
<stop stop-color="#25054D"/>
<stop offset="1" stop-color="#45108A"/>
</linearGradient>
<linearGradient id="paint2_linear" x1="340.235" y1="224.647" x2="12.9496" y2="224.647" gradientUnits="userSpaceOnUse">
<stop offset="0.04" stop-color="#9F19AB"/>
<stop offset="0.16" stop-color="#AE25B1"/>
<stop offset="0.41" stop-color="#D744BF"/>
<stop offset="0.63" stop-color="#FF63CE"/>
<stop offset="0.87" stop-color="#DC48C1"/>
</linearGradient>
<linearGradient id="paint3_linear" x1="0" y1="18345.7" x2="37704.7" y2="18345.7" gradientUnits="userSpaceOnUse">
<stop offset="0.04" stop-color="#25054D"/>
<stop offset="0.14" stop-color="#260550"/>
<stop offset="0.21" stop-color="#2B0759"/>
<stop offset="0.27" stop-color="#330A67"/>
<stop offset="0.32" stop-color="#3E0E7D"/>
<stop offset="0.34" stop-color="#45108A"/>
<stop offset="0.38" stop-color="#4E1294"/>
<stop offset="0.44" stop-color="#6518AF"/>
<stop offset="0.49" stop-color="#7C1DC9"/>
<stop offset="0.53" stop-color="#6B19B5"/>
<stop offset="0.59" stop-color="#45108A"/>
<stop offset="0.66" stop-color="#3C0D79"/>
<stop offset="0.79" stop-color="#2F0961"/>
<stop offset="0.9" stop-color="#280652"/>
<stop offset="1" stop-color="#25054D"/>
</linearGradient>
<linearGradient id="paint4_linear" x1="32850.8" y1="-4364.98" x2="27171.2" y2="20992.9" gradientUnits="userSpaceOnUse">
<stop stop-color="#25054D"/>
<stop offset="1" stop-color="#45108A"/>
</linearGradient>
<radialGradient id="paint5_radial" cx="0" cy="0" r="1" gradientUnits="userSpaceOnUse" gradientTransform="translate(135.884 244.09) scale(100.207 100.355)">
<stop stop-color="white"/>
<stop offset="1"/>
</radialGradient>
<linearGradient id="paint6_linear" x1="153.964" y1="153.152" x2="170.324" y2="149.474" gradientUnits="userSpaceOnUse">
<stop offset="0.04" stop-color="#271273"/>
<stop offset="0.29" stop-color="#361D82"/>
<stop offset="0.8" stop-color="#5D39AB"/>
<stop offset="0.98" stop-color="#6D45BB"/>
</linearGradient>
<linearGradient id="paint7_linear" x1="-229757" y1="1449.38" x2="-229370" y2="1298.98" gradientUnits="userSpaceOnUse">
<stop offset="0.04" stop-color="#271273"/>
<stop offset="0.29" stop-color="#361D82"/>
<stop offset="0.8" stop-color="#5D39AB"/>
<stop offset="0.98" stop-color="#6D45BB"/>
</linearGradient>
<linearGradient id="paint8_linear" x1="-267949" y1="1180.19" x2="-267976" y2="1269.73" gradientUnits="userSpaceOnUse">
<stop offset="0.04" stop-color="#271273"/>
<stop offset="0.29" stop-color="#361D82"/>
<stop offset="0.8" stop-color="#5D39AB"/>
<stop offset="0.98" stop-color="#6D45BB"/>
</linearGradient>
<linearGradient id="paint9_linear" x1="-20557.4" y1="5662.58" x2="-20734" y2="5661.15" gradientUnits="userSpaceOnUse">
<stop offset="0.04" stop-color="#271273"/>
<stop offset="0.29" stop-color="#361D82"/>
<stop offset="0.8" stop-color="#5D39AB"/>
<stop offset="0.98" stop-color="#6D45BB"/>
</linearGradient>
<linearGradient id="paint10_linear" x1="-20049.6" y1="6268.58" x2="-20272.5" y2="6267.25" gradientUnits="userSpaceOnUse">
<stop offset="0.04" stop-color="#271273"/>
<stop offset="0.29" stop-color="#361D82"/>
<stop offset="0.8" stop-color="#5D39AB"/>
<stop offset="0.98" stop-color="#6D45BB"/>
</linearGradient>
<linearGradient id="paint11_linear" x1="-61967.6" y1="-11.1788" x2="-61961" y2="10.5041" gradientUnits="userSpaceOnUse">
<stop offset="0.04" stop-color="#271273"/>
<stop offset="0.29" stop-color="#361D82"/>
<stop offset="0.8" stop-color="#5D39AB"/>
<stop offset="0.98" stop-color="#6D45BB"/>
</linearGradient>
<linearGradient id="paint12_linear" x1="46.1759" y1="126.489" x2="-13.6888" y2="108.585" gradientUnits="userSpaceOnUse">
<stop stop-color="#9F79C8"/>
<stop offset="0.14" stop-color="#A580CB"/>
<stop offset="0.33" stop-color="#B492D3"/>
<stop offset="0.55" stop-color="#CDB0E1"/>
<stop offset="0.58" stop-color="#D1B4E3"/>
<stop offset="0.76" stop-color="#DBC4E9"/>
<stop offset="1" stop-color="#EBDEF3"/>
</linearGradient>
<linearGradient id="paint13_linear" x1="4148.46" y1="8995.39" x2="21482" y2="926.814" gradientUnits="userSpaceOnUse">
<stop stop-color="#9F79C8"/>
<stop offset="0.14" stop-color="#A580CB"/>
<stop offset="0.33" stop-color="#B492D3"/>
<stop offset="0.55" stop-color="#CDB0E1"/>
<stop offset="0.58" stop-color="#D1B4E3"/>
<stop offset="0.76" stop-color="#DBC4E9"/>
<stop offset="1" stop-color="#EBDEF3"/>
</linearGradient>
<linearGradient id="paint14_linear" x1="267.298" y1="131.04" x2="-83.9576" y2="52.4289" gradientUnits="userSpaceOnUse">
<stop stop-color="#D4D1D8"/>
<stop offset="1" stop-color="white"/>
</linearGradient>
<linearGradient id="paint15_linear" x1="1.26417e+06" y1="880.124" x2="1.26393e+06" y2="1678.3" gradientUnits="userSpaceOnUse">
<stop stop-color="#9F79C8"/>
<stop offset="0.14" stop-color="#A580CB"/>
<stop offset="0.33" stop-color="#B492D3"/>
<stop offset="0.55" stop-color="#CDB0E1"/>
<stop offset="0.58" stop-color="#D1B4E3"/>
<stop offset="0.76" stop-color="#DBC4E9"/>
<stop offset="1" stop-color="#EBDEF3"/>
</linearGradient>
<linearGradient id="paint16_linear" x1="-38507.7" y1="946.91" x2="-38475.1" y2="942.66" gradientUnits="userSpaceOnUse">
<stop offset="0.04" stop-color="#271273"/>
<stop offset="0.29" stop-color="#361D82"/>
<stop offset="0.8" stop-color="#5D39AB"/>
<stop offset="0.98" stop-color="#6D45BB"/>
</linearGradient>
<linearGradient id="paint17_linear" x1="-231412" y1="2109.78" x2="-231025" y2="1959.16" gradientUnits="userSpaceOnUse">
<stop offset="0.04" stop-color="#271273"/>
<stop offset="0.29" stop-color="#361D82"/>
<stop offset="0.8" stop-color="#5D39AB"/>
<stop offset="0.98" stop-color="#6D45BB"/>
</linearGradient>
<linearGradient id="paint18_linear" x1="-269627" y1="1767.22" x2="-269654" y2="1856.76" gradientUnits="userSpaceOnUse">
<stop offset="0.04" stop-color="#271273"/>
<stop offset="0.29" stop-color="#361D82"/>
<stop offset="0.8" stop-color="#5D39AB"/>
<stop offset="0.98" stop-color="#6D45BB"/>
</linearGradient>
<linearGradient id="paint19_linear" x1="-20669.7" y1="10600.3" x2="-20846.2" y2="10598.8" gradientUnits="userSpaceOnUse">
<stop offset="0.04" stop-color="#271273"/>
<stop offset="0.29" stop-color="#361D82"/>
<stop offset="0.8" stop-color="#5D39AB"/>
<stop offset="0.98" stop-color="#6D45BB"/>
</linearGradient>
<linearGradient id="paint20_linear" x1="-20372.3" y1="11206.3" x2="-20596.3" y2="11204.9" gradientUnits="userSpaceOnUse">
<stop offset="0.04" stop-color="#271273"/>
<stop offset="0.29" stop-color="#361D82"/>
<stop offset="0.8" stop-color="#5D39AB"/>
<stop offset="0.98" stop-color="#6D45BB"/>
</linearGradient>
<linearGradient id="paint21_linear" x1="-62305.5" y1="206.954" x2="-62298.9" y2="228.637" gradientUnits="userSpaceOnUse">
<stop offset="0.04" stop-color="#271273"/>
<stop offset="0.29" stop-color="#361D82"/>
<stop offset="0.8" stop-color="#5D39AB"/>
<stop offset="0.98" stop-color="#6D45BB"/>
</linearGradient>
<radialGradient id="paint22_radial" cx="0" cy="0" r="1" gradientUnits="userSpaceOnUse" gradientTransform="translate(13429.7 8491.42) rotate(180) scale(18.4696 3602.36)">
<stop stop-color="white"/>
<stop offset="1"/>
</radialGradient>
<linearGradient id="paint23_linear" x1="107.084" y1="52.8946" x2="119.902" y2="71.0447" gradientUnits="userSpaceOnUse">
<stop offset="0.04" stop-color="#FFA98C"/>
<stop offset="0.32" stop-color="#FFB892"/>
<stop offset="0.86" stop-color="#FEE1A3"/>
<stop offset="1" stop-color="#FEECA8"/>
</linearGradient>
<linearGradient id="paint24_linear" x1="999.22" y1="333.639" x2="1013.01" y2="361.476" gradientUnits="userSpaceOnUse">
<stop offset="0.04" stop-color="#FFA98C"/>
<stop offset="0.32" stop-color="#FFB892"/>
<stop offset="0.86" stop-color="#FEE1A3"/>
<stop offset="1" stop-color="#FEECA8"/>
</linearGradient>
<linearGradient id="paint25_linear" x1="1242.82" y1="587.455" x2="1419.56" y2="759.175" gradientUnits="userSpaceOnUse">
<stop offset="0.04" stop-color="#FFA98C"/>
<stop offset="0.32" stop-color="#FFB892"/>
<stop offset="0.86" stop-color="#FEE1A3"/>
<stop offset="1" stop-color="#FEECA8"/>
</linearGradient>
<linearGradient id="paint26_linear" x1="1171.87" y1="263.603" x2="1185.52" y2="291.498" gradientUnits="userSpaceOnUse">
<stop offset="0.04" stop-color="#FFA98C"/>
<stop offset="0.32" stop-color="#FFB892"/>
<stop offset="0.86" stop-color="#FEE1A3"/>
<stop offset="1" stop-color="#FEECA8"/>
</linearGradient>
<linearGradient id="paint27_linear" x1="1186.09" y1="1332.63" x2="1363" y2="1504.26" gradientUnits="userSpaceOnUse">
<stop offset="0.04" stop-color="#FFA98C"/>
<stop offset="0.32" stop-color="#FFB892"/>
<stop offset="0.86" stop-color="#FEE1A3"/>
<stop offset="1" stop-color="#FEECA8"/>
</linearGradient>
<linearGradient id="paint28_linear" x1="1119.32" y1="620.745" x2="1133.1" y2="648.595" gradientUnits="userSpaceOnUse">
<stop offset="0.04" stop-color="#FFA98C"/>
<stop offset="0.32" stop-color="#FFB892"/>
<stop offset="0.86" stop-color="#FEE1A3"/>
<stop offset="1" stop-color="#FEECA8"/>
</linearGradient>
<linearGradient id="paint29_linear" x1="972.702" y1="1152.74" x2="1149.44" y2="1324.46" gradientUnits="userSpaceOnUse">
<stop offset="0.04" stop-color="#FFA98C"/>
<stop offset="0.32" stop-color="#FFB892"/>
<stop offset="0.86" stop-color="#FEE1A3"/>
<stop offset="1" stop-color="#FEECA8"/>
</linearGradient>
<linearGradient id="paint30_linear" x1="920.629" y1="534.535" x2="934.421" y2="562.371" gradientUnits="userSpaceOnUse">
<stop offset="0.04" stop-color="#FFA98C"/>
<stop offset="0.32" stop-color="#FFB892"/>
<stop offset="0.86" stop-color="#FEE1A3"/>
<stop offset="1" stop-color="#FEECA8"/>
</linearGradient>
<linearGradient id="paint31_linear" x1="1157.89" y1="1006.61" x2="1334.7" y2="1178.59" gradientUnits="userSpaceOnUse">
<stop offset="0.04" stop-color="#FFA98C"/>
<stop offset="0.32" stop-color="#FFB892"/>
<stop offset="0.86" stop-color="#FEE1A3"/>
<stop offset="1" stop-color="#FEECA8"/>
</linearGradient>
<linearGradient id="paint32_linear" x1="1093.2" y1="464.499" x2="1106.84" y2="492.395" gradientUnits="userSpaceOnUse">
<stop offset="0.04" stop-color="#FFA98C"/>
<stop offset="0.32" stop-color="#FFB892"/>
<stop offset="0.86" stop-color="#FEE1A3"/>
<stop offset="1" stop-color="#FEECA8"/>
</linearGradient>
<linearGradient id="paint33_linear" x1="1338.45" y1="865.703" x2="1515.2" y2="1037.42" gradientUnits="userSpaceOnUse">
<stop offset="0.04" stop-color="#FFA98C"/>
<stop offset="0.32" stop-color="#FFB892"/>
<stop offset="0.86" stop-color="#FEE1A3"/>
<stop offset="1" stop-color="#FEECA8"/>
</linearGradient>
<linearGradient id="paint34_linear" x1="1259.1" y1="396.963" x2="1272.89" y2="424.799" gradientUnits="userSpaceOnUse">
<stop offset="0.04" stop-color="#FFA98C"/>
<stop offset="0.32" stop-color="#FFB892"/>
<stop offset="0.86" stop-color="#FEE1A3"/>
<stop offset="1" stop-color="#FEECA8"/>
</linearGradient>
<linearGradient id="paint35_linear" x1="6286.44" y1="6042.55" x2="10855.5" y2="1688.72" gradientUnits="userSpaceOnUse">
<stop stop-color="#9F79C8"/>
<stop offset="0.14" stop-color="#A580CB"/>
<stop offset="0.33" stop-color="#B492D3"/>
<stop offset="0.55" stop-color="#CDB0E1"/>
<stop offset="0.58" stop-color="#D1B4E3"/>
<stop offset="0.76" stop-color="#DBC4E9"/>
<stop offset="1" stop-color="#EBDEF3"/>
</linearGradient>
<linearGradient id="paint36_linear" x1="367808" y1="-356359" x2="368931" y2="-358311" gradientUnits="userSpaceOnUse">
<stop stop-color="#9F79C8"/>
<stop offset="0.14" stop-color="#A580CB"/>
<stop offset="0.33" stop-color="#B492D3"/>
<stop offset="0.55" stop-color="#CDB0E1"/>
<stop offset="0.58" stop-color="#D1B4E3"/>
<stop offset="0.76" stop-color="#DBC4E9"/>
<stop offset="1" stop-color="#EBDEF3"/>
</linearGradient>
<radialGradient id="paint37_radial" cx="0" cy="0" r="1" gradientUnits="userSpaceOnUse" gradientTransform="translate(143.544 168.985) rotate(180) scale(42.6298 42.6926)">
<stop offset="0.03" stop-color="#FEDFCB"/>
<stop offset="1" stop-color="#F9B69E"/>
</radialGradient>
<radialGradient id="paint38_radial" cx="0" cy="0" r="1" gradientUnits="userSpaceOnUse" gradientTransform="translate(40587 5129.27) scale(144.64 1028.04)">
<stop offset="0.03" stop-color="#FEDFCB"/>
<stop offset="1" stop-color="#F9B69E"/>
</radialGradient>
<radialGradient id="paint39_radial" cx="0" cy="0" r="1" gradientUnits="userSpaceOnUse" gradientTransform="translate(69127.3 5395.61) scale(273.607 1201.53)">
<stop offset="0.03" stop-color="#FEDFCB"/>
<stop offset="1" stop-color="#F9B69E"/>
</radialGradient>
<radialGradient id="paint40_radial" cx="0" cy="0" r="1" gradientUnits="userSpaceOnUse" gradientTransform="translate(54140.7 5668.33) scale(208.636 1172.06)">
<stop offset="0.03" stop-color="#FEDFCB"/>
<stop offset="1" stop-color="#F9B69E"/>
</radialGradient>
<linearGradient id="paint41_linear" x1="127.381" y1="147.875" x2="93.4298" y2="147.875" gradientUnits="userSpaceOnUse">
<stop offset="0.04" stop-color="#9F19AB"/>
<stop offset="0.24" stop-color="#AE25B1"/>
<stop offset="0.65" stop-color="#D744BF"/>
<stop offset="1" stop-color="#FF63CE"/>
</linearGradient>
<linearGradient id="paint42_linear" x1="102791" y1="2663.07" x2="102451" y2="2648.7" gradientUnits="userSpaceOnUse">
<stop offset="0.04" stop-color="#9F19AB"/>
<stop offset="0.24" stop-color="#AE25B1"/>
<stop offset="0.65" stop-color="#D744BF"/>
<stop offset="1" stop-color="#FF63CE"/>
</linearGradient>
<linearGradient id="paint43_linear" x1="40766.5" y1="1704.44" x2="40903.6" y2="1682.38" gradientUnits="userSpaceOnUse">
<stop offset="0.04" stop-color="#9F19AB"/>
<stop offset="0.24" stop-color="#AE25B1"/>
<stop offset="0.65" stop-color="#D744BF"/>
<stop offset="1" stop-color="#FF63CE"/>
</linearGradient>
<linearGradient id="paint44_linear" x1="104.793" y1="129.844" x2="129.873" y2="124.718" gradientUnits="userSpaceOnUse">
<stop offset="0.07" stop-color="#9F19AB"/>
<stop offset="0.27" stop-color="#AE25B1"/>
<stop offset="0.66" stop-color="#D744BF"/>
<stop offset="1" stop-color="#FF63CE"/>
</linearGradient>
<linearGradient id="paint45_linear" x1="30412.3" y1="3087.5" x2="30593.7" y2="3087.5" gradientUnits="userSpaceOnUse">
<stop offset="0.04" stop-color="#9F19AB"/>
<stop offset="0.24" stop-color="#AE25B1"/>
<stop offset="0.65" stop-color="#D744BF"/>
<stop offset="1" stop-color="#FF63CE"/>
</linearGradient>
<linearGradient id="paint46_linear" x1="121.248" y1="110.105" x2="116.325" y2="106.11" gradientUnits="userSpaceOnUse">
<stop offset="0.04" stop-color="#9D9EB3"/>
<stop offset="0.58" stop-color="#D4D1D8"/>
<stop offset="1" stop-color="#EEEBF2"/>
</linearGradient>
<linearGradient id="paint47_linear" x1="63939.2" y1="498.073" x2="64021.7" y2="498.073" gradientUnits="userSpaceOnUse">
<stop offset="0.04" stop-color="#9F19AB"/>
<stop offset="0.24" stop-color="#AE25B1"/>
<stop offset="0.65" stop-color="#D744BF"/>
<stop offset="1" stop-color="#FF63CE"/>
</linearGradient>
<radialGradient id="paint48_radial" cx="0" cy="0" r="1" gradientUnits="userSpaceOnUse" gradientTransform="translate(-53978.5 460.577) rotate(180) scale(32.5327 16.0725)">
<stop stop-color="white"/>
<stop offset="1"/>
</radialGradient>
<linearGradient id="paint49_linear" x1="86.6125" y1="111.342" x2="76.1901" y2="111.342" gradientUnits="userSpaceOnUse">
<stop offset="0.01" stop-color="#F9B69E"/>
<stop offset="0.81" stop-color="#FDD7C2"/>
<stop offset="1" stop-color="#FEDFCB"/>
</linearGradient>
<linearGradient id="paint50_linear" x1="-18096.5" y1="342.212" x2="-18102.6" y2="335.276" gradientUnits="userSpaceOnUse">
<stop stop-color="#D4D1D8"/>
<stop offset="1" stop-color="white"/>
</linearGradient>
<radialGradient id="paint51_radial" cx="0" cy="0" r="1" gradientUnits="userSpaceOnUse" gradientTransform="translate(-124907 1115.9) rotate(180) scale(59.2493 89.263)">
<stop offset="0.03" stop-color="#FEDFCB"/>
<stop offset="1" stop-color="#F9B69E"/>
</radialGradient>
<linearGradient id="paint52_linear" x1="-326347" y1="1400.72" x2="-326377" y2="1130.75" gradientUnits="userSpaceOnUse">
<stop offset="0.04" stop-color="#9F19AB"/>
<stop offset="0.24" stop-color="#AE25B1"/>
<stop offset="0.65" stop-color="#D744BF"/>
<stop offset="1" stop-color="#FF63CE"/>
</linearGradient>
<linearGradient id="paint53_linear" x1="122.836" y1="123.074" x2="114.368" y2="87.2935" gradientUnits="userSpaceOnUse">
<stop offset="0.04" stop-color="#602213"/>
<stop offset="0.57" stop-color="#6D310E"/>
<stop offset="1" stop-color="#7A4108"/>
</linearGradient>
<clipPath id="clip0">
<rect width="272" height="387" fill="white"/>
</clipPath>
</defs>
</svg>
