<svg width="200" height="200" viewBox="0 0 200 200" fill="none" xmlns="http://www.w3.org/2000/svg">
<path d="M91.1192 192.797C90.2459 192.721 89.438 192.303 88.8716 191.634C88.3052 190.965 88.0262 190.1 88.0954 189.226C88.13 188.792 88.2498 188.369 88.4482 187.981C88.6465 187.593 88.9193 187.249 89.2511 186.967C89.5829 186.685 89.967 186.471 90.3816 186.338C90.7961 186.204 91.2329 186.154 91.6669 186.19C92.1015 186.223 92.5253 186.342 92.9137 186.54C93.3021 186.738 93.6474 187.01 93.9297 187.343C94.212 187.675 94.4257 188.059 94.5583 188.475C94.691 188.89 94.74 189.327 94.7026 189.762C94.633 190.605 94.2445 191.389 93.6162 191.956C92.988 192.522 92.1673 192.827 91.3216 192.809H91.1312L91.1192 192.797ZM99.1073 189.833C99.0653 188.957 99.3726 188.1 99.9619 187.45C100.551 186.801 101.374 186.412 102.25 186.369C102.685 186.345 103.12 186.407 103.53 186.553C103.94 186.698 104.317 186.923 104.639 187.216C104.962 187.508 105.223 187.862 105.407 188.256C105.592 188.65 105.696 189.077 105.714 189.512C105.737 189.946 105.673 190.38 105.527 190.789C105.381 191.199 105.156 191.575 104.864 191.897C104.571 192.219 104.219 192.48 103.825 192.665C103.432 192.85 103.006 192.956 102.572 192.976H102.345C101.509 192.956 100.711 192.621 100.111 192.039C99.5104 191.456 99.1521 190.668 99.1073 189.833ZM79.774 191.095C78.9191 190.904 78.1746 190.382 77.7038 189.644C77.2329 188.905 77.0741 188.01 77.2621 187.154C77.4607 186.306 77.9859 185.57 78.7236 185.107C79.4613 184.643 80.352 184.489 81.2026 184.678C81.6267 184.771 82.0282 184.947 82.3842 185.196C82.7402 185.444 83.0436 185.761 83.277 186.127C83.5103 186.493 83.6692 186.901 83.7442 187.329C83.8193 187.757 83.8092 188.195 83.7145 188.619C83.554 189.369 83.1369 190.04 82.5349 190.516C81.933 190.992 81.184 191.243 80.4169 191.226C80.1986 191.204 79.9832 191.161 79.774 191.095ZM110.119 189.012C109.959 188.148 110.147 187.257 110.642 186.532C111.137 185.807 111.9 185.307 112.762 185.143C113.63 184.986 114.524 185.178 115.251 185.677C115.978 186.177 116.478 186.943 116.643 187.809C116.796 188.672 116.601 189.561 116.102 190.281C115.602 191.001 114.838 191.495 113.976 191.654C113.757 191.698 113.533 191.718 113.31 191.714C112.548 191.699 111.815 191.423 111.234 190.93C110.652 190.438 110.259 189.76 110.119 189.012ZM68.7621 187.916C68.3514 187.767 67.9741 187.539 67.6518 187.244C67.3295 186.949 67.0686 186.594 66.8839 186.198C66.6992 185.802 66.5944 185.373 66.5756 184.937C66.5567 184.501 66.6241 184.065 66.774 183.654C66.9239 183.248 67.1524 182.875 67.4466 182.556C67.7407 182.238 68.0948 181.981 68.4884 181.8C68.882 181.618 69.3075 181.516 69.7405 181.5C70.1736 181.483 70.6056 181.552 71.0121 181.702C71.4238 181.846 71.8027 182.07 72.1266 182.362C72.4504 182.654 72.7126 183.008 72.8978 183.403C73.083 183.798 73.1874 184.225 73.205 184.661C73.2226 185.097 73.153 185.532 73.0002 185.94C72.7657 186.591 72.3326 187.151 71.7622 187.542C71.1918 187.933 70.5129 188.135 69.8216 188.119C69.4602 188.105 69.103 188.037 68.7621 187.916ZM120.929 186.726C120.791 186.312 120.737 185.876 120.77 185.441C120.802 185.007 120.92 184.583 121.117 184.195C121.314 183.806 121.586 183.461 121.918 183.178C122.249 182.895 122.633 182.681 123.048 182.547C123.465 182.408 123.906 182.352 124.345 182.384C124.784 182.416 125.212 182.534 125.605 182.732C125.998 182.931 126.347 183.204 126.634 183.538C126.92 183.872 127.138 184.26 127.274 184.678C127.541 185.515 127.467 186.423 127.068 187.206C126.669 187.988 125.977 188.582 125.143 188.857C124.786 188.976 124.412 189.036 124.036 189.035C123.339 189.026 122.663 188.797 122.105 188.38C121.547 187.963 121.135 187.38 120.929 186.714V186.726ZM58.2264 183.273C57.4481 182.868 56.8629 182.169 56.5995 181.332C56.3361 180.495 56.416 179.587 56.8216 178.809C57.2339 178.031 57.9382 177.449 58.7798 177.19C59.6214 176.931 60.5314 177.016 61.3097 177.428C61.6953 177.629 62.0372 177.904 62.3157 178.238C62.5942 178.571 62.8037 178.957 62.9322 179.372C63.0606 179.787 63.1054 180.224 63.064 180.656C63.0225 181.089 62.8956 181.509 62.6907 181.892C62.4049 182.435 61.9745 182.888 61.4471 183.201C60.9197 183.514 60.3158 183.675 59.7026 183.666C59.1857 183.659 58.6786 183.524 58.2264 183.273ZM131.286 183C130.909 182.208 130.86 181.3 131.15 180.472C131.44 179.645 132.045 178.966 132.834 178.583C133.224 178.395 133.648 178.286 134.081 178.262C134.514 178.238 134.948 178.299 135.357 178.443C135.766 178.587 136.143 178.81 136.466 179.099C136.789 179.389 137.051 179.739 137.238 180.131C137.429 180.521 137.541 180.946 137.568 181.38C137.595 181.814 137.536 182.249 137.394 182.661C137.253 183.072 137.032 183.451 136.743 183.777C136.455 184.103 136.106 184.369 135.714 184.559C135.242 184.78 134.724 184.89 134.203 184.881C133.596 184.861 133.007 184.676 132.498 184.344C131.99 184.012 131.583 183.547 131.322 183H131.286ZM48.4645 177.297C47.753 176.788 47.2713 176.018 47.1242 175.155C46.9771 174.293 47.1764 173.407 47.6788 172.69C48.1849 171.971 48.9552 171.483 49.821 171.331C50.6868 171.179 51.5774 171.377 52.2978 171.881C53.0162 172.393 53.5031 173.168 53.6524 174.038C53.8018 174.907 53.6016 175.801 53.0954 176.523C52.7803 176.966 52.3616 177.324 51.876 177.567C51.3903 177.809 50.8525 177.93 50.3097 177.916C49.6559 177.909 49.0217 177.692 48.5002 177.297H48.4645ZM141.084 177.94C140.846 177.577 140.682 177.17 140.602 176.744C140.522 176.317 140.527 175.879 140.616 175.454C140.706 175.029 140.879 174.627 141.124 174.269C141.37 173.911 141.684 173.605 142.048 173.369C142.409 173.127 142.814 172.959 143.24 172.875C143.666 172.792 144.105 172.794 144.531 172.881C144.956 172.969 145.36 173.14 145.718 173.385C146.077 173.63 146.383 173.944 146.619 174.309C146.858 174.671 147.023 175.076 147.105 175.502C147.187 175.928 147.184 176.365 147.097 176.79C147.009 177.214 146.839 177.618 146.596 177.976C146.353 178.335 146.041 178.642 145.679 178.881C145.123 179.252 144.466 179.443 143.798 179.428C143.265 179.412 142.743 179.269 142.277 179.01C141.811 178.751 141.414 178.384 141.119 177.94H141.084ZM39.5478 170.083C39.2282 169.788 38.9702 169.432 38.7886 169.036C38.6071 168.641 38.5057 168.213 38.4902 167.778C38.4747 167.343 38.5455 166.91 38.6984 166.502C38.8513 166.095 39.0833 165.722 39.3811 165.404C39.6747 165.085 40.0284 164.826 40.422 164.644C40.8156 164.461 41.2414 164.358 41.6749 164.341C42.1085 164.323 42.5412 164.391 42.9484 164.541C43.3556 164.691 43.7292 164.919 44.0478 165.214C44.6929 165.813 45.0741 166.643 45.1075 167.522C45.141 168.402 44.8241 169.258 44.2264 169.904C43.9093 170.247 43.5241 170.519 43.0956 170.703C42.6671 170.888 42.2048 170.981 41.7383 170.976C40.9364 170.945 40.172 170.629 39.5835 170.083H39.5478ZM150.143 171.619C149.573 170.954 149.288 170.093 149.348 169.219C149.408 168.346 149.809 167.532 150.464 166.952C151.134 166.376 152.003 166.087 152.884 166.15C153.765 166.212 154.586 166.62 155.167 167.285C155.732 167.956 156.012 168.821 155.947 169.695C155.883 170.569 155.479 171.384 154.822 171.964C154.197 172.499 153.394 172.78 152.572 172.75C152.113 172.734 151.663 172.621 151.251 172.42C150.839 172.219 150.474 171.934 150.179 171.583L150.143 171.619ZM31.6907 161.75C31.4092 161.418 31.1967 161.033 31.0657 160.618C30.9347 160.203 30.8878 159.766 30.9277 159.332C30.9676 158.899 31.0935 158.478 31.2981 158.094C31.5027 157.709 31.7819 157.37 32.1192 157.095C32.4512 156.813 32.836 156.601 33.2511 156.47C33.6661 156.339 34.1032 156.292 34.5366 156.332C34.97 156.372 35.3911 156.498 35.7753 156.702C36.1595 156.907 36.499 157.186 36.774 157.523C37.0539 157.859 37.2647 158.246 37.3942 158.664C37.5236 159.081 37.5692 159.52 37.5283 159.954C37.4873 160.389 37.3607 160.812 37.1556 161.198C36.9505 161.583 36.6711 161.925 36.3335 162.202C35.718 162.7 34.9467 162.966 34.1549 162.952C33.6869 162.941 33.2268 162.828 32.8072 162.62C32.3876 162.413 32.0187 162.115 31.7264 161.75H31.6907ZM158.298 164.131C157.97 163.842 157.702 163.492 157.509 163.1C157.317 162.707 157.205 162.281 157.178 161.845C157.151 161.409 157.211 160.972 157.355 160.559C157.498 160.146 157.721 159.766 158.012 159.44C158.593 158.787 159.41 158.391 160.283 158.339C161.156 158.288 162.013 158.585 162.667 159.166C162.995 159.452 163.264 159.799 163.457 160.189C163.65 160.579 163.763 161.003 163.791 161.437C163.819 161.872 163.76 162.307 163.618 162.718C163.476 163.129 163.254 163.508 162.964 163.833C162.646 164.196 162.252 164.485 161.81 164.678C161.367 164.871 160.888 164.965 160.405 164.952C159.645 164.943 158.913 164.669 158.334 164.178L158.298 164.131ZM24.9645 152.404C24.729 152.037 24.5693 151.626 24.4945 151.195C24.4197 150.765 24.4314 150.324 24.529 149.899C24.6265 149.473 24.8079 149.071 25.0626 148.717C25.3172 148.362 25.64 148.061 26.0121 147.833C26.7562 147.372 27.6524 147.225 28.5046 147.424C29.3568 147.623 30.0957 148.151 30.5597 148.892C30.7949 149.259 30.9544 149.669 31.0291 150.099C31.1037 150.528 31.0919 150.968 30.9943 151.392C30.8967 151.817 30.7154 152.218 30.4608 152.572C30.2063 152.925 29.8838 153.225 29.5121 153.452C28.965 153.789 28.3331 153.962 27.6907 153.952C27.1549 153.943 26.6298 153.801 26.1623 153.54C25.6948 153.278 25.2996 152.904 25.0121 152.452L24.9645 152.404ZM165.369 155.714C165.009 155.472 164.7 155.161 164.461 154.8C164.221 154.438 164.055 154.033 163.972 153.607C163.889 153.182 163.891 152.744 163.977 152.319C164.064 151.894 164.234 151.49 164.476 151.131C164.718 150.768 165.028 150.457 165.39 150.215C165.751 149.973 166.157 149.804 166.584 149.719C167.011 149.634 167.45 149.634 167.877 149.719C168.304 149.804 168.71 149.972 169.072 150.214C169.433 150.456 169.743 150.767 169.984 151.129C170.225 151.492 170.392 151.898 170.475 152.326C170.558 152.753 170.555 153.192 170.468 153.618C170.38 154.045 170.209 154.449 169.964 154.809C169.658 155.27 169.239 155.645 168.748 155.899C168.256 156.153 167.708 156.278 167.155 156.262C166.519 156.256 165.899 156.066 165.369 155.714ZM19.5359 142.333C19.1779 141.531 19.1523 140.619 19.4646 139.798C19.777 138.977 20.4019 138.313 21.2026 137.952C22.0018 137.592 22.9108 137.563 23.7314 137.871C24.552 138.179 25.2177 138.798 25.5835 139.595C25.7624 139.992 25.8612 140.42 25.8742 140.855C25.8872 141.291 25.8142 141.724 25.6594 142.131C25.5046 142.538 25.271 142.911 24.9719 143.227C24.6729 143.544 24.3144 143.798 23.9168 143.976C23.4737 144.182 22.989 144.284 22.5002 144.273C21.8795 144.256 21.276 144.065 20.7583 143.722C20.2407 143.379 19.8296 142.898 19.5716 142.333H19.5359ZM15.5121 131.619C15.2669 130.776 15.3629 129.87 15.7794 129.097C16.1958 128.325 16.8994 127.746 17.7383 127.488C18.5828 127.243 19.4897 127.341 20.2628 127.76C21.0359 128.178 21.613 128.885 21.8692 129.726C22.1141 130.567 22.0177 131.471 21.6011 132.242C21.1845 133.013 20.481 133.589 19.643 133.845C19.3118 133.947 18.9655 133.991 18.6192 133.976C17.9191 133.956 17.2434 133.714 16.6909 133.283C16.1384 132.853 15.7379 132.257 15.5478 131.583L15.5121 131.619ZM12.9883 120.392C12.8542 119.525 13.0678 118.639 13.5827 117.928C14.0976 117.217 14.8722 116.738 15.7383 116.595C16.1692 116.524 16.6099 116.538 17.0351 116.638C17.4603 116.738 17.8616 116.921 18.2157 117.177C18.5698 117.432 18.8698 117.755 19.0985 118.128C19.3271 118.5 19.4798 118.913 19.5478 119.345C19.675 120.212 19.457 121.094 18.9405 121.802C18.424 122.51 17.6504 122.987 16.7859 123.131C16.5879 123.149 16.3887 123.149 16.1907 123.131C15.4239 123.11 14.6873 122.828 14.1042 122.329C13.5212 121.831 13.1272 121.147 12.9883 120.392ZM11.9526 108.976C11.9399 108.541 12.0135 108.107 12.1691 107.701C12.3246 107.295 12.5592 106.923 12.8591 106.608C13.159 106.292 13.5184 106.039 13.9165 105.863C14.3146 105.687 14.7436 105.592 15.1787 105.583C15.6132 105.57 16.0459 105.644 16.4517 105.8C16.8575 105.955 17.2283 106.19 17.5428 106.49C17.8573 106.79 18.1091 107.15 18.2836 107.548C18.4582 107.946 18.552 108.375 18.5597 108.809C18.5695 109.684 18.2359 110.528 17.6306 111.16C17.0253 111.792 16.1963 112.162 15.3216 112.19H15.1669C14.3259 112.166 13.5256 111.823 12.9285 111.231C12.3315 110.638 11.9825 109.84 11.9526 109V108.976ZM15.3454 101.166C14.4727 101.07 13.6732 100.634 13.1204 99.9517C12.5676 99.2697 12.3062 98.3971 12.393 97.5234C12.489 96.6516 12.9259 95.8531 13.6083 95.3023C14.2908 94.7514 15.1635 94.4928 16.0359 94.583C16.4679 94.6317 16.886 94.7654 17.2662 94.9763C17.6463 95.1872 17.981 95.4713 18.251 95.8121C18.5209 96.1529 18.7208 96.5437 18.8392 96.962C18.9576 97.3803 18.9921 97.8179 18.9407 98.2496C18.8542 99.0734 18.4608 99.8345 17.8388 100.382C17.2167 100.929 16.4116 101.221 15.5835 101.202H15.3692L15.3454 101.166ZM16.7978 90.2258C15.9533 90.0042 15.23 89.4591 14.7844 88.7083C14.3388 87.9574 14.2068 87.0614 14.4168 86.2139C14.6358 85.3703 15.1786 84.6471 15.9275 84.2013C16.6764 83.7555 17.5709 83.6232 18.4168 83.833C19.2631 84.0518 19.9883 84.5964 20.4344 85.348C20.8805 86.0997 21.0111 86.9973 20.7978 87.8449C20.6232 88.5757 20.2026 89.2242 19.6065 89.6815C19.0104 90.1389 18.2751 90.3773 17.524 90.3568C17.2796 90.3388 17.0369 90.303 16.7978 90.2496V90.2258ZM19.7026 79.571C18.884 79.2496 18.2262 78.6167 17.8736 77.8111C17.521 77.0054 17.5023 76.0928 17.8216 75.2734C17.978 74.8676 18.2135 74.4969 18.5143 74.1828C18.8151 73.8686 19.1753 73.6173 19.574 73.4435C19.9726 73.2696 20.4018 73.1766 20.8367 73.1699C21.2716 73.1632 21.7035 73.2429 22.1073 73.4044C22.5127 73.5596 22.8832 73.7938 23.1972 74.0935C23.5112 74.3932 23.7625 74.7523 23.9364 75.1501C24.1104 75.5478 24.2035 75.9761 24.2103 76.4101C24.2172 76.8441 24.1376 77.2752 23.9764 77.6782C23.7377 78.3118 23.3084 78.8558 22.7477 79.2353C22.187 79.6148 21.5224 79.8111 20.8454 79.7972C20.4556 79.7964 20.0689 79.7279 19.7026 79.5949V79.571ZM23.9883 69.4044C23.2223 68.9738 22.6582 68.2572 22.4194 67.4115C22.1807 66.5659 22.2868 65.6601 22.7145 64.8925C22.9242 64.5129 23.2071 64.1786 23.5467 63.9088C23.8863 63.639 24.276 63.4392 24.6932 63.3208C25.1104 63.2023 25.547 63.1677 25.9777 63.2188C26.4084 63.27 26.8247 63.4058 27.2026 63.6187C27.5832 63.8306 27.918 64.1158 28.1877 64.4579C28.4575 64.7999 28.6567 65.1921 28.7741 65.6116C28.8914 66.0311 28.9245 66.4697 28.8713 66.902C28.8182 67.3344 28.6799 67.752 28.4645 68.1306C28.1681 68.6565 27.735 69.0923 27.2111 69.392C26.6871 69.6917 26.0918 69.8441 25.4883 69.8329C24.9633 69.8185 24.4493 69.6798 23.9883 69.4282V69.4044ZM168.703 72.2615C168.518 71.8685 168.413 71.4429 168.393 71.0091C168.373 70.5753 168.439 70.1419 168.588 69.7337C168.736 69.3255 168.963 68.9507 169.257 68.6306C169.55 68.3106 169.904 68.0516 170.298 67.8687C170.691 67.6828 171.118 67.5769 171.553 67.5572C171.987 67.5375 172.422 67.6043 172.83 67.7538C173.239 67.9033 173.614 68.1326 173.933 68.4282C174.253 68.7238 174.51 69.0799 174.691 69.4758C175.057 70.2705 175.095 71.1777 174.796 72.0003C174.498 72.8228 173.886 73.4943 173.095 73.8687C172.558 74.1116 171.969 74.214 171.381 74.1663C170.811 74.1096 170.264 73.9067 169.795 73.5772C169.326 73.2477 168.95 72.8027 168.703 72.2853V72.2615ZM29.6549 59.9163C29.3041 59.6587 29.0077 59.3341 28.7829 58.9614C28.5581 58.5887 28.4094 58.1751 28.3452 57.7446C28.281 57.3141 28.3027 56.8751 28.409 56.4531C28.5152 56.031 28.704 55.6341 28.9645 55.2853C29.226 54.9355 29.554 54.6408 29.9297 54.4179C30.3053 54.195 30.7212 54.0484 31.1536 53.9865C31.5859 53.9246 32.0263 53.9485 32.4494 54.057C32.8724 54.1655 33.27 54.3563 33.6192 54.6187C34.3215 55.1446 34.7862 55.9277 34.9112 56.7961C35.0362 57.6645 34.8113 58.547 34.2859 59.2496C33.972 59.6708 33.5618 60.0106 33.0895 60.2405C32.6172 60.4704 32.0967 60.5838 31.5716 60.571C30.8791 60.5634 30.2074 60.3339 29.6549 59.9163ZM163.643 63.0115C163.171 62.2679 163.014 61.3674 163.206 60.5079C163.398 59.6484 163.923 58.9003 164.667 58.4282C165.032 58.1915 165.44 58.0297 165.868 57.9524C166.295 57.8751 166.734 57.8838 167.159 57.978C167.583 58.0722 167.985 58.2501 168.34 58.5011C168.695 58.7521 168.996 59.0713 169.226 59.4401C169.462 59.8054 169.624 60.2139 169.701 60.6419C169.779 61.0699 169.771 61.509 169.678 61.9339C169.585 62.3588 169.409 62.7611 169.16 63.1177C168.911 63.4743 168.593 63.7781 168.226 64.0115C167.601 64.4124 166.858 64.5887 166.119 64.5115C165.611 64.4665 165.12 64.3084 164.681 64.0489C164.243 63.7893 163.868 63.4349 163.584 63.0115H163.643ZM157.369 54.4877C157.087 54.1563 156.873 53.7722 156.74 53.3577C156.607 52.9432 156.557 52.5064 156.593 52.0725C156.63 51.6387 156.752 51.2163 156.953 50.8299C157.153 50.4435 157.428 50.1006 157.762 49.821C158.092 49.5365 158.475 49.3204 158.89 49.1854C159.304 49.0504 159.741 48.9991 160.175 49.0345C160.609 49.07 161.032 49.1914 161.419 49.3919C161.806 49.5923 162.149 49.8677 162.429 50.202C162.993 50.874 163.268 51.742 163.195 52.6163C163.121 53.4907 162.705 54.3004 162.036 54.8687C161.696 55.1524 161.303 55.3659 160.88 55.4967C160.457 55.6274 160.012 55.673 159.572 55.6306C158.699 55.5537 157.889 55.1446 157.31 54.4877H157.369ZM73.0716 27.5353C72.8484 26.6894 72.9667 25.7896 73.401 25.0302C73.8353 24.2707 74.5508 23.7124 75.3931 23.4758C75.8176 23.3595 76.261 23.329 76.6975 23.3861C77.1339 23.4433 77.5545 23.5869 77.9348 23.8086C78.315 24.0304 78.6472 24.3257 78.9119 24.6774C79.1766 25.0291 79.3685 25.43 79.4764 25.8568C79.5875 26.2797 79.614 26.7203 79.5544 27.1535C79.4947 27.5867 79.3502 28.0038 79.129 28.381C78.9077 28.7581 78.6142 29.0879 78.2653 29.3514C77.9163 29.6148 77.5188 29.8068 77.0954 29.9163C76.7887 30.0181 76.4658 30.0624 76.143 30.0472C75.43 30.0111 74.7473 29.7478 74.1947 29.2958C73.6421 28.8439 73.2485 28.227 73.0716 27.5353ZM119.048 29.7734C118.625 29.6653 118.228 29.4746 117.879 29.2123C117.53 28.95 117.236 28.6213 117.015 28.2451C116.794 27.8689 116.649 27.4526 116.589 27.0202C116.53 26.5879 116.556 26.1479 116.667 25.7258C116.776 25.3012 116.969 24.9024 117.233 24.5525C117.497 24.2026 117.828 23.9085 118.207 23.6872C118.585 23.4658 119.004 23.3216 119.438 23.2629C119.873 23.2041 120.315 23.232 120.738 23.3448C121.157 23.4566 121.55 23.6502 121.894 23.9145C122.238 24.1789 122.526 24.5087 122.742 24.885C122.958 25.2613 123.097 25.6767 123.152 26.107C123.206 26.5374 123.175 26.9743 123.06 27.3925C122.871 28.106 122.448 28.7355 121.858 29.1801C121.269 29.6247 120.548 29.8588 119.81 29.8449C119.553 29.8399 119.298 29.8079 119.048 29.7496V29.7734Z" fill="url(#paint0_linear)"/>
<path d="M60.691 110.869H49.5125C48.7705 110.869 48.0589 110.574 47.5342 110.049C47.0096 109.525 46.7148 108.813 46.7148 108.071C46.7148 107.329 47.0096 106.618 47.5342 106.093C48.0589 105.568 48.7705 105.273 49.5125 105.273H60.691C61.433 105.273 62.1446 105.568 62.6692 106.093C63.1939 106.618 63.4887 107.329 63.4887 108.071C63.4887 108.813 63.1939 109.525 62.6692 110.049C62.1446 110.574 61.433 110.869 60.691 110.869Z" fill="url(#paint1_linear)"/>
<path d="M97.3448 158.738C96.6017 158.738 95.8889 158.443 95.3623 157.919C94.8358 157.395 94.5384 156.683 94.5353 155.94V144.761C94.5102 144.378 94.5642 143.993 94.6938 143.631C94.8233 143.27 95.0258 142.938 95.2886 142.658C95.5514 142.377 95.8689 142.154 96.2216 142.001C96.5742 141.848 96.9545 141.769 97.3388 141.769C97.7232 141.769 98.1034 141.848 98.4561 142.001C98.8087 142.154 99.1263 142.377 99.3891 142.658C99.6519 142.938 99.8543 143.27 99.9839 143.631C100.113 143.993 100.167 144.378 100.142 144.761V155.94C100.142 156.682 99.8476 157.393 99.323 157.918C98.7983 158.443 98.0867 158.738 97.3448 158.738Z" fill="url(#paint2_linear)"/>
<path d="M97.3466 72.5953C96.9777 72.5953 96.6124 72.5226 96.2715 72.3814C95.9306 72.2402 95.6209 72.0333 95.36 71.7724C95.0991 71.5115 94.8922 71.2018 94.751 70.8609C94.6098 70.52 94.5371 70.1547 94.5371 69.7858V58.6072C94.5835 57.8952 94.8991 57.2276 95.4198 56.7397C95.9404 56.2519 96.6272 55.9805 97.3407 55.9805C98.0542 55.9805 98.7409 56.2519 99.2616 56.7397C99.7823 57.2276 100.098 57.8952 100.144 58.6072V69.7858C100.144 70.5288 99.8499 71.2416 99.3256 71.7682C98.8013 72.2947 98.0897 72.5921 97.3466 72.5953Z" fill="url(#paint3_linear)"/>
<path d="M94.5483 104.334C94.0103 104.335 93.4835 104.18 93.0314 103.889C92.5793 103.597 92.2213 103.181 92.0006 102.691L79.1435 74.3811C78.8372 73.7039 78.8125 72.9327 79.0749 72.2373C79.3372 71.5418 79.865 70.979 80.5423 70.6728C81.2195 70.3665 81.9907 70.3419 82.6862 70.6042C83.3816 70.8665 83.9444 71.3944 84.2506 72.0716L97.0959 100.381C97.2491 100.715 97.3345 101.077 97.3474 101.444C97.3602 101.812 97.3002 102.178 97.1707 102.522C97.0412 102.867 96.8448 103.182 96.5929 103.45C96.341 103.718 96.0386 103.933 95.703 104.083C95.3422 104.254 94.9472 104.339 94.5483 104.334Z" fill="url(#paint4_linear)"/>
<path d="M74.0367 132.63C73.4708 132.632 72.9174 132.463 72.4497 132.145C71.9819 131.826 71.6217 131.373 71.4167 130.846C71.2116 130.319 71.1714 129.741 71.3012 129.19C71.431 128.64 71.7248 128.141 72.1438 127.761L90.3938 111.094C90.942 110.596 91.6653 110.336 92.405 110.371C93.1447 110.405 93.8405 110.732 94.34 111.278C94.8394 111.825 95.1018 112.548 95.0695 113.287C95.0372 114.027 94.7129 114.724 94.1676 115.225L75.9176 131.892C75.407 132.368 74.7346 132.631 74.0367 132.63Z" fill="url(#paint5_linear)"/>
<path d="M97.3466 118.012C95.0435 118.016 92.8105 117.22 91.0282 115.762C89.2458 114.303 88.0246 112.272 87.5725 110.013C87.1205 107.755 87.4656 105.41 88.5492 103.378C89.6327 101.345 91.3875 99.7516 93.5145 98.8684C95.6415 97.9852 98.009 97.8669 100.213 98.5339C102.418 99.2008 104.323 100.612 105.603 102.526C106.884 104.44 107.461 106.739 107.236 109.031C107.011 111.323 105.999 113.467 104.37 115.096C103.451 116.023 102.357 116.758 101.151 117.259C99.9454 117.759 98.6521 118.015 97.3466 118.012ZM97.3466 103.726C96.4875 103.727 95.6478 103.982 94.9337 104.459C94.2195 104.937 93.6629 105.615 93.3342 106.409C93.0055 107.203 92.9195 108.076 93.087 108.919C93.2544 109.761 93.6679 110.535 94.2752 111.143C95.1017 111.935 96.202 112.377 97.3466 112.377C98.4911 112.377 99.5914 111.935 100.418 111.143C101.025 110.535 101.439 109.761 101.606 108.919C101.774 108.076 101.688 107.203 101.359 106.409C101.03 105.615 100.474 104.937 99.7595 104.459C99.0453 103.982 98.2056 103.727 97.3466 103.726Z" fill="url(#paint6_linear)"/>
<path d="M60.1426 53.8803C59.6311 53.8787 59.1298 53.7369 58.6933 53.4704C58.2567 53.2038 57.9015 52.8227 57.6664 52.3684L51.7974 41.166C51.4862 40.5128 51.4401 39.7644 51.6689 39.078C51.8977 38.3916 52.3836 37.8205 53.0245 37.4847C53.6653 37.1488 54.4114 37.0743 55.106 37.2768C55.8006 37.4794 56.3898 37.9431 56.7498 38.5707L62.6307 49.7731C62.974 50.4332 63.0414 51.2024 62.8182 51.9121C62.595 52.6218 62.0995 53.214 61.4403 53.5588C61.0391 53.7666 60.5944 53.8768 60.1426 53.8803Z" fill="url(#paint7_linear)"/>
<path d="M134.559 53.8802C134.077 53.8808 133.602 53.7566 133.181 53.5195C132.761 53.2824 132.409 52.9404 132.16 52.527C131.91 52.1136 131.772 51.6427 131.759 51.1601C131.746 50.6775 131.857 50.1996 132.083 49.773L137.952 38.5706C138.123 38.2447 138.356 37.9555 138.638 37.7195C138.92 37.4836 139.246 37.3055 139.597 37.1955C139.948 37.0856 140.317 37.0458 140.683 37.0785C141.05 37.1112 141.406 37.2157 141.732 37.3861C142.058 37.5565 142.347 37.7894 142.583 38.0716C142.819 38.3538 142.997 38.6797 143.107 39.0307C143.217 39.3817 143.257 39.7509 143.224 40.1172C143.191 40.4836 143.087 40.8399 142.917 41.1659L137.036 52.3682C136.803 52.8243 136.448 53.2069 136.011 53.4738C135.574 53.7406 135.071 53.8813 134.559 53.8802Z" fill="url(#paint8_linear)"/>
<path d="M110.476 20.1536C110.468 17.6847 109.764 15.268 108.442 13.1825C107.121 11.0969 105.236 9.42744 103.007 8.36661C100.778 7.30577 98.2936 6.89681 95.8418 7.1869C93.3899 7.47699 91.07 8.45432 89.1497 10.0061C87.2294 11.5579 85.7869 13.621 84.9886 15.9573C84.1903 18.2937 84.0687 20.8081 84.6379 23.2106C85.2072 25.613 86.444 27.8056 88.2057 29.5354C89.9674 31.2652 92.1822 32.4617 94.5946 32.9869V39.4393H100.011V33.0107C102.965 32.3914 105.616 30.7763 107.521 28.4357C109.426 26.0952 110.469 23.1713 110.476 20.1536ZM97.3804 27.8679C95.8546 27.8679 94.3631 27.4155 93.0945 26.5678C91.8259 25.7201 90.8372 24.5153 90.2533 23.1057C89.6694 21.6961 89.5166 20.145 89.8143 18.6486C90.112 17.1522 90.8467 15.7776 91.9255 14.6988C93.0044 13.6199 94.379 12.8852 95.8754 12.5875C97.3718 12.2899 98.9229 12.4427 100.332 13.0265C101.742 13.6104 102.947 14.5992 103.795 15.8678C104.642 17.1364 105.095 18.6279 105.095 20.1536C105.095 21.1697 104.894 22.1757 104.504 23.114C104.114 24.0523 103.543 24.9043 102.823 25.6211C102.102 26.3379 101.248 26.9054 100.308 27.291C99.3677 27.6765 98.3607 27.8726 97.3446 27.8679H97.3804Z" fill="url(#paint9_linear)"/>
<path d="M97.3455 178.821C83.7532 178.827 70.4477 174.913 59.0234 167.548C47.5991 160.184 38.5405 149.682 32.9332 137.3C27.3259 124.918 25.4078 111.182 27.4087 97.7382C29.4096 84.2941 35.2446 71.712 44.2145 61.4998C46.4147 58.9815 48.8025 56.6336 51.3574 54.476C52.8693 53.1546 54.3217 51.9998 55.774 50.9046C64.5128 44.5688 74.5817 40.31 85.2145 38.4522C86.5241 38.2141 87.8574 38.0355 89.2145 37.8807C94.6088 37.1843 100.07 37.1843 105.465 37.8807C117.045 39.2151 128.116 43.3911 137.693 50.0374C147.27 56.6837 155.056 65.5942 160.357 75.976C160.694 76.639 160.753 77.4085 160.522 78.1151C160.291 78.8217 159.788 79.4076 159.125 79.7439C158.462 80.0801 157.693 80.1392 156.986 79.9081C156.279 79.677 155.694 79.1747 155.357 78.5117C150.486 68.939 143.32 60.7211 134.5 54.5911C125.68 48.4612 115.48 44.6098 104.81 43.3807C99.8511 42.7259 94.8279 42.7259 89.8693 43.3807C88.6074 43.5117 87.405 43.6784 86.1907 43.8927C76.3927 45.6076 67.1143 49.5323 59.0598 55.3688C57.7502 56.3212 56.4169 57.3926 54.9883 58.6307C52.6286 60.6104 50.4274 62.7718 48.405 65.095C42.4585 71.8801 37.9873 79.8271 35.2752 88.432C32.5631 97.0368 31.6693 106.111 32.6506 115.08C33.6319 124.049 36.4668 132.715 40.9754 140.53C45.484 148.345 51.5679 155.137 58.8409 160.476C66.114 165.814 74.4173 169.583 83.2241 171.542C92.0309 173.501 101.149 173.608 109.999 171.856C118.85 170.104 127.239 166.532 134.636 161.366C142.032 156.199 148.274 149.552 152.965 141.845C153.374 141.263 153.989 140.858 154.686 140.714C155.383 140.57 156.108 140.696 156.715 141.068C157.321 141.439 157.764 142.028 157.952 142.715C158.14 143.401 158.059 144.133 157.726 144.762C151.468 155.177 142.614 163.79 132.031 169.76C121.447 175.73 109.496 178.852 97.3455 178.821Z" fill="url(#paint10_linear)"/>
<path d="M97.3436 162.059C87.9677 162.063 78.7526 159.624 70.6054 154.984C62.4582 150.344 55.6599 143.662 50.8797 135.596C46.0995 127.531 43.5023 118.359 43.3437 108.984C43.1851 99.6099 45.4706 90.3556 49.9752 82.1328C54.4798 73.9099 61.0482 67.0019 69.0337 62.0888C77.0193 57.1757 86.1467 54.427 95.5173 54.1133C104.888 53.7995 114.179 55.9315 122.475 60.2993C130.771 64.6672 137.787 71.1204 142.832 79.0235C143.231 79.655 143.363 80.4192 143.199 81.1482C143.035 81.8771 142.588 82.511 141.957 82.9104C141.325 83.3098 140.561 83.442 139.832 83.2779C139.103 83.1138 138.469 82.6669 138.07 82.0354C132.519 73.3497 124.34 66.6637 114.724 62.9519C105.108 59.2401 94.5577 58.6965 84.611 61.4003C74.6643 64.1041 65.8411 69.914 59.4274 77.9832C53.0138 86.0524 49.3449 95.9591 48.9555 106.259C48.5661 116.56 51.4765 126.715 57.2627 135.245C63.0488 143.776 71.4081 150.235 81.1222 153.682C90.8364 157.13 101.398 157.384 111.266 154.409C121.135 151.434 129.796 145.384 135.986 137.143C136.207 136.849 136.483 136.601 136.799 136.414C137.115 136.227 137.465 136.104 137.829 136.052C138.193 136 138.563 136.02 138.919 136.111C139.275 136.202 139.609 136.363 139.903 136.583C140.197 136.803 140.445 137.08 140.632 137.396C140.819 137.712 140.942 138.062 140.994 138.425C141.046 138.789 141.026 139.16 140.935 139.515C140.843 139.871 140.683 140.206 140.463 140.5C135.46 147.213 128.954 152.66 121.465 156.404C113.977 160.148 105.716 162.085 97.3436 162.059Z" fill="url(#paint11_linear)"/>
<path d="M168.76 117.596C168.76 122.858 164.975 126.131 159.665 127.12L159.594 133.715C157.989 134.024 156.358 134.176 154.725 134.167C153.588 134.151 152.455 134.056 151.332 133.881L151.403 126.989C147.563 126.249 143.975 124.545 140.975 122.036L144.022 115.929C147.439 119.024 152.26 121.024 155.796 121.06C158.903 121.06 160.772 119.965 160.796 117.917C160.796 111.655 143.022 115.12 143.141 103.298C143.141 98.5362 146.534 95.2029 151.736 94.06L151.856 86.5957C152.969 86.4557 154.09 86.3881 155.213 86.3933C156.862 86.4206 158.505 86.608 160.117 86.9529L159.998 93.9529C163.126 94.4729 166.115 95.6231 168.784 97.3338L165.832 103.524C162.717 101.526 159.17 100.302 155.487 99.9529C152.963 99.9529 151.225 100.822 151.213 102.62C151.141 108.858 168.939 105.608 168.76 117.596Z" fill="url(#paint12_linear)"/>
<path d="M154.916 146.201C149.978 146.196 145.094 145.171 140.571 143.19C132.438 139.629 125.914 133.179 122.26 125.088C118.606 116.996 118.081 107.837 120.788 99.3813C123.495 90.9256 129.241 83.7737 136.914 79.3082C144.588 74.8428 153.645 73.3809 162.334 75.2052C171.023 77.0295 178.727 82.0105 183.957 89.1851C189.186 96.3598 191.57 105.219 190.648 114.049C189.725 122.879 185.562 131.054 178.962 136.993C172.362 142.931 163.795 146.212 154.916 146.201ZM142.821 138.059C149.241 140.862 156.434 141.352 163.175 139.446C169.916 137.539 175.787 133.354 179.787 127.603C183.788 121.853 185.671 114.893 185.114 107.91C184.558 100.927 181.597 94.3529 176.736 89.3084C171.875 84.264 165.416 81.0613 158.458 80.2463C151.501 79.4313 144.476 81.0543 138.581 84.8388C132.686 88.6233 128.286 94.3351 126.13 101.001C123.975 107.666 124.198 114.873 126.762 121.392C129.7 128.852 135.475 134.845 142.821 138.059Z" fill="url(#paint13_linear)"/>
<path d="M43.1675 48.9649L34.0723 31.8578L59.4175 18.334L68.5128 35.4411L43.1675 48.9649ZM41.6437 34.1673L45.477 41.3935L60.9532 33.1554L57.108 25.9292L41.6437 34.1673Z" fill="url(#paint14_linear)"/>
<path d="M151.547 48.9646L126.143 35.4646L135.238 18.3574L160.607 31.8336L151.547 48.9646ZM133.69 33.1551L149.166 41.3931L153.012 34.167L137.535 25.9289L133.69 33.1551Z" fill="url(#paint15_linear)"/>
<defs>
<linearGradient id="paint0_linear" x1="60255.3" y1="61016.9" x2="35200.8" y2="42314.7" gradientUnits="userSpaceOnUse">
<stop stop-color="#FF059D"/>
<stop offset="0.45" stop-color="#FF9841"/>
<stop offset="1" stop-color="#FFF904"/>
</linearGradient>
<linearGradient id="paint1_linear" x1="4182.13" y1="1803.38" x2="4672.76" y2="1717.69" gradientUnits="userSpaceOnUse">
<stop stop-color="#FF059D"/>
<stop offset="0.45" stop-color="#FF9841"/>
<stop offset="1" stop-color="#FFF904"/>
</linearGradient>
<linearGradient id="paint2_linear" x1="1756.98" y1="6063.78" x2="1756.98" y2="5534.19" gradientUnits="userSpaceOnUse">
<stop stop-color="#FF059D"/>
<stop offset="0.45" stop-color="#FF9841"/>
<stop offset="1" stop-color="#FFF904"/>
</linearGradient>
<linearGradient id="paint3_linear" x1="1760.25" y1="4207.53" x2="1636.8" y2="4754.7" gradientUnits="userSpaceOnUse">
<stop stop-color="#FF059D"/>
<stop offset="0.45" stop-color="#FF9841"/>
<stop offset="1" stop-color="#FFF904"/>
</linearGradient>
<linearGradient id="paint4_linear" x1="5252.81" y1="9743.92" x2="5538.86" y2="9743.92" gradientUnits="userSpaceOnUse">
<stop stop-color="#E3F24C"/>
<stop offset="0.2" stop-color="#CAED62"/>
<stop offset="1" stop-color="#64D8BC"/>
</linearGradient>
<linearGradient id="paint5_linear" x1="6603.01" y1="7099.14" x2="7080.87" y2="7099.14" gradientUnits="userSpaceOnUse">
<stop stop-color="#E3F24C"/>
<stop offset="0.2" stop-color="#CAED62"/>
<stop offset="1" stop-color="#64D8BC"/>
</linearGradient>
<linearGradient id="paint6_linear" x1="6195.16" y1="6403.75" x2="5846.83" y2="5956.68" gradientUnits="userSpaceOnUse">
<stop stop-color="#FF059D"/>
<stop offset="0.45" stop-color="#FF9841"/>
<stop offset="1" stop-color="#FFF904"/>
</linearGradient>
<linearGradient id="paint7_linear" x1="2990.81" y1="4217.14" x2="3100.92" y2="4217.14" gradientUnits="userSpaceOnUse">
<stop stop-color="#1A58FF"/>
<stop offset="0.05" stop-color="#1963FF"/>
<stop offset="0.23" stop-color="#1685FF"/>
<stop offset="0.42" stop-color="#13A0FF"/>
<stop offset="0.6" stop-color="#11B3FF"/>
<stop offset="0.8" stop-color="#10BEFF"/>
<stop offset="1" stop-color="#10C2FF"/>
</linearGradient>
<linearGradient id="paint8_linear" x1="3859.3" y1="4241.44" x2="3969.94" y2="4241.44" gradientUnits="userSpaceOnUse">
<stop stop-color="#1A58FF"/>
<stop offset="0.05" stop-color="#1963FF"/>
<stop offset="0.23" stop-color="#1685FF"/>
<stop offset="0.42" stop-color="#13A0FF"/>
<stop offset="0.6" stop-color="#11B3FF"/>
<stop offset="0.8" stop-color="#10BEFF"/>
<stop offset="1" stop-color="#10C2FF"/>
</linearGradient>
<linearGradient id="paint9_linear" x1="7544.11" y1="7490.97" x2="8121.87" y2="7490.97" gradientUnits="userSpaceOnUse">
<stop stop-color="#FF059D"/>
<stop offset="0.45" stop-color="#FF9841"/>
<stop offset="1" stop-color="#FFF904"/>
</linearGradient>
<linearGradient id="paint10_linear" x1="31718.8" y1="42855.4" x2="46808.3" y2="42855.4" gradientUnits="userSpaceOnUse">
<stop stop-color="#1A58FF"/>
<stop offset="0.05" stop-color="#1963FF"/>
<stop offset="0.23" stop-color="#1685FF"/>
<stop offset="0.42" stop-color="#13A0FF"/>
<stop offset="0.6" stop-color="#11B3FF"/>
<stop offset="0.8" stop-color="#10BEFF"/>
<stop offset="1" stop-color="#10C2FF"/>
</linearGradient>
<linearGradient id="paint11_linear" x1="25077.3" y1="32737.5" x2="33463.6" y2="32737.5" gradientUnits="userSpaceOnUse">
<stop stop-color="#1A58FF"/>
<stop offset="0.05" stop-color="#1963FF"/>
<stop offset="0.23" stop-color="#1685FF"/>
<stop offset="0.42" stop-color="#13A0FF"/>
<stop offset="0.6" stop-color="#11B3FF"/>
<stop offset="0.8" stop-color="#10BEFF"/>
<stop offset="1" stop-color="#10C2FF"/>
</linearGradient>
<linearGradient id="paint12_linear" x1="9387.91" y1="14635.6" x2="10037.5" y2="14635.6" gradientUnits="userSpaceOnUse">
<stop stop-color="#E3F24C"/>
<stop offset="0.2" stop-color="#CAED62"/>
<stop offset="1" stop-color="#64D8BC"/>
</linearGradient>
<linearGradient id="paint13_linear" x1="22659.5" y1="21928.1" x2="26987.5" y2="21928.1" gradientUnits="userSpaceOnUse">
<stop stop-color="#E3F24C"/>
<stop offset="0.2" stop-color="#CAED62"/>
<stop offset="1" stop-color="#64D8BC"/>
</linearGradient>
<linearGradient id="paint14_linear" x1="8393.12" y1="7373.74" x2="9390.86" y2="7373.74" gradientUnits="userSpaceOnUse">
<stop stop-color="#E3F24C"/>
<stop offset="0.2" stop-color="#CAED62"/>
<stop offset="1" stop-color="#64D8BC"/>
</linearGradient>
<linearGradient id="paint15_linear" x1="11156.4" y1="7368.05" x2="12155.2" y2="7368.05" gradientUnits="userSpaceOnUse">
<stop stop-color="#E3F24C"/>
<stop offset="0.2" stop-color="#CAED62"/>
<stop offset="1" stop-color="#64D8BC"/>
</linearGradient>
</defs>
</svg>
