<svg width="200" height="200" viewBox="0 0 200 200" fill="none" xmlns="http://www.w3.org/2000/svg">
<path d="M171.372 108.599H171.138V105.842L170.695 103.257C172.455 102.955 174.052 102.04 175.203 100.675C176.354 99.3102 176.986 97.5821 176.986 95.7964V19.9508C176.983 17.9417 176.182 16.016 174.76 14.5965C173.339 13.177 171.412 12.3797 169.403 12.3797H31.6222C29.6164 12.383 27.6938 13.1821 26.2767 14.6016C24.8595 16.0211 24.0635 17.9449 24.0635 19.9508V95.7964C24.071 97.5703 24.7052 99.2844 25.8541 100.636C27.0029 101.988 28.5925 102.89 30.3419 103.183L29.4432 108.513C26.444 107.997 23.7236 106.438 21.7618 104.111C19.8 101.785 18.723 98.8398 18.7207 95.7964V19.9508C18.7239 16.5255 20.0826 13.2408 22.5 10.8141C24.9174 8.3875 28.197 7.01626 31.6222 7H169.39C172.827 6.99999 176.124 8.36366 178.557 10.7917C180.989 13.2197 182.359 16.5137 182.366 19.9508V95.7964C182.354 98.8449 181.267 101.792 179.297 104.118C177.327 106.444 174.599 108 171.594 108.513L171.372 108.599Z" fill="url(#paint0_linear)"/>
<path d="M78.6111 108.748H60.7238C60.3552 108.773 59.9855 108.722 59.6375 108.598C59.2895 108.474 58.9707 108.28 58.7008 108.028C58.431 107.775 58.2158 107.47 58.0687 107.132C57.9216 106.793 57.8457 106.427 57.8457 106.058C57.8457 105.688 57.9216 105.323 58.0687 104.984C58.2158 104.645 58.431 104.34 58.7008 104.088C58.9707 103.836 59.2895 103.642 59.6375 103.518C59.9855 103.394 60.3552 103.343 60.7238 103.368H78.6111C79.2931 103.414 79.932 103.718 80.3988 104.217C80.8655 104.716 81.1251 105.374 81.1251 106.058C81.1251 106.741 80.8655 107.399 80.3988 107.899C79.932 108.398 79.2931 108.702 78.6111 108.748V108.748Z" fill="black"/>
<path d="M140.312 108.748H122.425C122.056 108.773 121.687 108.722 121.339 108.598C120.991 108.474 120.672 108.28 120.402 108.028C120.132 107.776 119.917 107.471 119.77 107.132C119.623 106.793 119.547 106.428 119.547 106.058C119.547 105.689 119.623 105.323 119.77 104.985C119.917 104.646 120.132 104.341 120.402 104.089C120.672 103.836 120.991 103.642 121.339 103.518C121.687 103.395 122.056 103.344 122.425 103.368H140.312C140.994 103.415 141.633 103.718 142.1 104.217C142.567 104.717 142.826 105.375 142.826 106.058C142.826 106.742 142.567 107.4 142.1 107.899C141.633 108.399 140.994 108.702 140.312 108.748V108.748Z" fill="black"/>
<path d="M78.6119 103.369H60.7246V108.761H78.6119V103.369Z" fill="url(#paint1_linear)"/>
<path d="M140.301 103.37H122.426V108.762H140.301V103.37Z" fill="url(#paint2_linear)"/>
<path d="M90.6263 67.4322L117.033 52.2902C117.278 52.1504 117.483 51.9481 117.625 51.7037C117.767 51.4594 117.842 51.1818 117.842 50.8991C117.842 50.6164 117.767 50.3388 117.625 50.0944C117.483 49.8501 117.278 49.6477 117.033 49.508L90.6263 34.3659C90.3806 34.2137 90.0985 34.1302 89.8094 34.1244C89.5204 34.1185 89.2351 34.1904 88.9835 34.3326C88.7318 34.4748 88.5229 34.6821 88.3788 34.9327C88.2347 35.1833 88.1605 35.468 88.1642 35.757V66.0411C88.1605 66.3302 88.2347 66.6149 88.3788 66.8655C88.5229 67.1161 88.7318 67.3233 88.9835 67.4655C89.2351 67.6078 89.5204 67.6797 89.8094 67.6738C90.0985 67.668 90.3806 67.5845 90.6263 67.4322V67.4322Z" fill="url(#paint3_linear)"/>
<path d="M140.657 27.1637C140.09 27.1637 139.536 26.9955 139.064 26.6803C138.592 26.3651 138.224 25.9171 138.007 25.393C137.79 24.8689 137.734 24.2922 137.844 23.7357C137.955 23.1793 138.228 22.6682 138.629 22.2671C139.03 21.8659 139.541 21.5928 140.098 21.4821C140.654 21.3714 141.231 21.4282 141.755 21.6453C142.279 21.8624 142.727 22.2301 143.042 22.7018C143.358 23.1735 143.526 23.728 143.526 24.2953C143.526 25.0561 143.224 25.7857 142.686 26.3236C142.148 26.8615 141.418 27.1637 140.657 27.1637V27.1637ZM153.768 24.2953C153.771 23.7251 153.604 23.1669 153.289 22.6916C152.974 22.2162 152.525 21.8451 151.999 21.6252C151.472 21.4053 150.893 21.3464 150.333 21.4562C149.774 21.566 149.259 21.8393 148.855 22.2417C148.451 22.6441 148.175 23.1574 148.063 23.7165C147.951 24.2756 148.007 24.8555 148.225 25.3826C148.443 25.9096 148.812 26.3603 149.286 26.6774C149.76 26.9944 150.317 27.1637 150.888 27.1637C151.265 27.1653 151.64 27.0923 151.989 26.9489C152.338 26.8055 152.656 26.5945 152.924 26.3279C153.191 26.0614 153.404 25.7447 153.549 25.3959C153.694 25.0471 153.768 24.6731 153.768 24.2953V24.2953ZM163.998 24.2953C164.001 23.7246 163.834 23.1659 163.518 22.6903C163.202 22.2147 162.753 21.8436 162.226 21.624C161.699 21.4044 161.119 21.3464 160.559 21.4571C159.999 21.5679 159.484 21.8425 159.081 22.2461C158.677 22.6497 158.403 23.1641 158.292 23.7241C158.181 24.284 158.239 24.8642 158.459 25.3911C158.678 25.918 159.049 26.3678 159.525 26.6834C160.001 26.999 160.559 27.1661 161.13 27.1637C161.889 27.1605 162.615 26.8568 163.15 26.3192C163.686 25.7817 163.986 25.0539 163.986 24.2953H163.998Z" fill="url(#paint4_linear)"/>
<path d="M100.512 139.561C86.7364 139.561 75.5215 126.671 75.5215 110.828C75.5215 94.9839 86.7364 82.0947 100.512 82.0947C114.288 82.0947 125.503 94.9839 125.503 110.828C125.503 126.671 114.288 139.561 100.512 139.561ZM100.512 87.4745C89.7033 87.4745 80.9135 97.9508 80.9135 110.865C80.9135 123.778 89.7033 134.255 100.512 134.255C111.321 134.255 120.11 123.791 120.11 110.865C120.11 97.9385 111.321 87.4745 100.512 87.4745Z" fill="url(#paint5_linear)"/>
<path d="M155.764 137.27C144.856 137.27 135.98 127.114 135.98 114.619C135.98 102.124 144.856 91.9673 155.764 91.9673C166.671 91.9673 175.534 102.136 175.534 114.619C175.534 127.102 166.671 137.27 155.764 137.27ZM155.764 97.3593C147.823 97.3593 141.373 105.103 141.373 114.594C141.373 124.086 147.823 131.829 155.764 131.829C163.704 131.829 170.142 124.135 170.142 114.668C170.142 105.201 163.692 97.3593 155.764 97.3593Z" fill="url(#paint6_linear)"/>
<path d="M45.2753 137.27C34.3681 137.27 25.4922 127.114 25.4922 114.619C25.4922 102.124 34.3681 91.9673 45.2753 91.9673C56.1825 91.9673 65.0462 102.136 65.0462 114.619C65.0462 127.102 56.1702 137.27 45.2753 137.27ZM45.2753 97.3593C37.335 97.3593 30.8842 105.103 30.8842 114.594C30.8842 124.086 37.335 131.829 45.2753 131.829C53.2157 131.829 59.6665 124.073 59.6665 114.594C59.6665 105.115 53.1911 97.3593 45.2753 97.3593Z" fill="url(#paint7_linear)"/>
<path d="M159.246 59.7255H164.527V65.0067H159.246V59.7255ZM159.246 53.8779H164.527V48.5967H159.246V53.8779ZM159.246 69.8817H164.527V75.1507H159.246V69.8817ZM159.246 80.6781H164.527V85.9471H159.246V80.6781ZM135.855 80.6781H141.124V85.9471H135.855V80.6781ZM147.612 80.6781H152.906V85.9471H147.624L147.612 80.6781Z" fill="url(#paint8_linear)"/>
<path d="M41.7774 65.0067H36.4961V59.7255H41.7774V65.0067ZM41.7774 48.5967H36.4961V53.8779H41.7774V48.5967ZM41.7774 75.126H36.4961V69.8571H41.7774V75.126ZM41.7774 85.9225H36.4961V80.6535H41.7774V85.9225ZM65.1675 85.9225H59.8863V80.6535H65.1675V85.9225ZM53.3986 85.9225H48.1296V80.6535H53.3986V85.9225Z" fill="url(#paint9_linear)"/>
<path d="M174.535 177.651H136.987C136.157 177.656 135.329 177.553 134.525 177.343L135.879 172.135C136.25 172.224 136.631 172.266 137.012 172.258H174.559C175.914 172.258 177.214 171.72 178.172 170.762C179.13 169.804 179.668 168.505 179.668 167.15V154.063C179.658 149.612 177.884 145.346 174.734 142.201C171.584 139.055 167.316 137.287 162.864 137.284H148.67C145.221 137.293 141.859 138.36 139.036 140.341C136.214 142.323 134.068 145.123 132.888 148.364L127.828 146.529C129.377 142.245 132.209 138.542 135.939 135.925C139.668 133.308 144.114 131.904 148.67 131.904H162.84C168.716 131.904 174.353 134.239 178.508 138.395C182.664 142.55 184.999 148.186 184.999 154.063V167.162C184.992 169.937 183.888 172.598 181.928 174.563C179.968 176.528 177.31 177.638 174.535 177.651V177.651Z" fill="url(#paint10_linear)"/>
<path d="M64.0483 177.651H26.4886C23.7067 177.644 21.0408 176.535 19.0749 174.567C17.1089 172.599 16.0032 169.931 16 167.15V154.063C16 148.186 18.3346 142.55 22.4902 138.395C26.6459 134.239 32.2821 131.904 38.1591 131.904H52.3286C56.8782 131.91 61.3165 133.312 65.0438 135.921C68.7711 138.529 71.6077 142.22 73.1705 146.492L68.1108 148.327C66.931 145.086 64.7849 142.286 61.9624 140.304C59.1399 138.323 55.7771 137.256 52.3286 137.247H38.196C33.7382 137.25 29.4641 139.024 26.3131 142.177C23.1621 145.33 21.3921 149.606 21.3921 154.063V167.162C21.392 168.515 21.9286 169.812 22.884 170.77C23.8395 171.728 25.1358 172.268 26.4886 172.271H64.0483C64.4213 172.277 64.7936 172.235 65.1563 172.148L66.5104 177.355C65.7063 177.561 64.8784 177.661 64.0483 177.651V177.651Z" fill="url(#paint11_linear)"/>
<path d="M125.009 192.226H76.013C72.601 192.22 69.3308 190.861 66.9192 188.447C64.5077 186.033 63.1517 182.761 63.1484 179.349V162.287C63.155 154.832 66.1194 147.684 71.391 142.412C76.6627 137.14 83.8107 134.176 91.2659 134.169H109.732C117.187 134.176 124.335 137.14 129.607 142.412C134.878 147.684 137.843 154.832 137.849 162.287V179.374C137.843 182.779 136.488 186.042 134.082 188.45C131.676 190.859 128.414 192.217 125.009 192.226V192.226ZM91.2659 139.537C85.2396 139.543 79.4618 141.939 75.1994 146.199C70.9371 150.459 68.5379 156.236 68.5282 162.262V179.349C68.5282 181.334 69.3168 183.238 70.7204 184.642C72.1241 186.046 74.0279 186.834 76.013 186.834H125.009C126.994 186.834 128.898 186.046 130.302 184.642C131.706 183.238 132.494 181.334 132.494 179.349V162.287C132.488 156.27 130.098 150.501 125.848 146.242C121.598 141.983 115.835 139.581 109.818 139.561L91.2659 139.537Z" fill="url(#paint12_linear)"/>
<defs>
<linearGradient id="paint0_linear" x1="76598" y1="10451.4" x2="83334.4" y2="-3916.93" gradientUnits="userSpaceOnUse">
<stop stop-color="#1A58FF"/>
<stop offset="0.05" stop-color="#1963FF"/>
<stop offset="0.23" stop-color="#1685FF"/>
<stop offset="0.42" stop-color="#13A0FF"/>
<stop offset="0.6" stop-color="#11B3FF"/>
<stop offset="0.8" stop-color="#10BEFF"/>
<stop offset="1" stop-color="#10C2FF"/>
</linearGradient>
<linearGradient id="paint1_linear" x1="-18324" y1="-3835.2" x2="-18260.6" y2="-4113.54" gradientUnits="userSpaceOnUse">
<stop stop-color="#1A58FF"/>
<stop offset="0.05" stop-color="#1963FF"/>
<stop offset="0.23" stop-color="#1685FF"/>
<stop offset="0.42" stop-color="#13A0FF"/>
<stop offset="0.6" stop-color="#11B3FF"/>
<stop offset="0.8" stop-color="#10BEFF"/>
<stop offset="1" stop-color="#10C2FF"/>
</linearGradient>
<linearGradient id="paint2_linear" x1="-17677.7" y1="-3705.25" x2="-17614.3" y2="-3983.57" gradientUnits="userSpaceOnUse">
<stop stop-color="#1A58FF"/>
<stop offset="0.05" stop-color="#1963FF"/>
<stop offset="0.23" stop-color="#1685FF"/>
<stop offset="0.42" stop-color="#13A0FF"/>
<stop offset="0.6" stop-color="#11B3FF"/>
<stop offset="0.8" stop-color="#10BEFF"/>
<stop offset="1" stop-color="#10C2FF"/>
</linearGradient>
<linearGradient id="paint3_linear" x1="1955.18" y1="869.522" x2="446.061" y2="2095.42" gradientUnits="userSpaceOnUse">
<stop stop-color="#E3F24C"/>
<stop offset="0.2" stop-color="#CAED62"/>
<stop offset="1" stop-color="#64D8BC"/>
</linearGradient>
<linearGradient id="paint4_linear" x1="-431.614" y1="104.647" x2="-422.159" y2="92.1145" gradientUnits="userSpaceOnUse">
<stop stop-color="#1A58FF"/>
<stop offset="0.05" stop-color="#1963FF"/>
<stop offset="0.23" stop-color="#1685FF"/>
<stop offset="0.42" stop-color="#13A0FF"/>
<stop offset="0.6" stop-color="#11B3FF"/>
<stop offset="0.8" stop-color="#10BEFF"/>
<stop offset="1" stop-color="#10C2FF"/>
</linearGradient>
<linearGradient id="paint5_linear" x1="24867.1" y1="6326.34" x2="26455.5" y2="4496.73" gradientUnits="userSpaceOnUse">
<stop stop-color="#FF059D"/>
<stop offset="0.45" stop-color="#FF9841"/>
<stop offset="1" stop-color="#FFF904"/>
</linearGradient>
<linearGradient id="paint6_linear" x1="22561.5" y1="3822.67" x2="21439.2" y2="4722.39" gradientUnits="userSpaceOnUse">
<stop stop-color="#E3F24C"/>
<stop offset="0.2" stop-color="#CAED62"/>
<stop offset="1" stop-color="#64D8BC"/>
</linearGradient>
<linearGradient id="paint7_linear" x1="18901.1" y1="3822.67" x2="17778.7" y2="4722.39" gradientUnits="userSpaceOnUse">
<stop stop-color="#E3F24C"/>
<stop offset="0.2" stop-color="#CAED62"/>
<stop offset="1" stop-color="#64D8BC"/>
</linearGradient>
<linearGradient id="paint8_linear" x1="1939.57" y1="978.621" x2="322.919" y2="2118.26" gradientUnits="userSpaceOnUse">
<stop stop-color="#E3F24C"/>
<stop offset="0.2" stop-color="#CAED62"/>
<stop offset="1" stop-color="#64D8BC"/>
</linearGradient>
<linearGradient id="paint9_linear" x1="-431.615" y1="104.647" x2="-422.16" y2="92.1147" gradientUnits="userSpaceOnUse">
<stop stop-color="#FF059D"/>
<stop offset="0.45" stop-color="#FF9841"/>
<stop offset="1" stop-color="#FFF904"/>
</linearGradient>
<linearGradient id="paint10_linear" x1="31042.8" y1="6888.65" x2="32234.3" y2="4916.05" gradientUnits="userSpaceOnUse">
<stop stop-color="#1A58FF"/>
<stop offset="0.05" stop-color="#1963FF"/>
<stop offset="0.23" stop-color="#1685FF"/>
<stop offset="0.42" stop-color="#13A0FF"/>
<stop offset="0.6" stop-color="#11B3FF"/>
<stop offset="0.8" stop-color="#10BEFF"/>
<stop offset="1" stop-color="#10C2FF"/>
</linearGradient>
<linearGradient id="paint11_linear" x1="25731.3" y1="6887.81" x2="26941" y2="4885.64" gradientUnits="userSpaceOnUse">
<stop stop-color="#1A58FF"/>
<stop offset="0.05" stop-color="#1963FF"/>
<stop offset="0.23" stop-color="#1685FF"/>
<stop offset="0.42" stop-color="#13A0FF"/>
<stop offset="0.6" stop-color="#11B3FF"/>
<stop offset="0.8" stop-color="#10BEFF"/>
<stop offset="1" stop-color="#10C2FF"/>
</linearGradient>
<linearGradient id="paint12_linear" x1="39836.8" y1="6856.57" x2="37176" y2="9999.93" gradientUnits="userSpaceOnUse">
<stop stop-color="#E3F24C"/>
<stop offset="0.2" stop-color="#CAED62"/>
<stop offset="1" stop-color="#64D8BC"/>
</linearGradient>
</defs>
</svg>
