<svg width="200" height="200" viewBox="0 0 200 200" fill="none" xmlns="http://www.w3.org/2000/svg">
<path d="M143.45 66.9936C140.228 66.9936 137.078 66.0381 134.399 64.2479C131.72 62.4577 129.631 59.9132 128.398 56.9362C127.165 53.9591 126.843 50.6833 127.471 47.5229C128.1 44.3626 129.652 41.4596 131.93 39.1811C134.209 36.9026 137.112 35.3509 140.272 34.7222C143.432 34.0936 146.708 34.4162 149.685 35.6494C152.662 36.8825 155.207 38.9707 156.997 41.6499C158.787 44.3292 159.743 47.4791 159.743 50.7014C159.73 55.0185 158.01 59.1552 154.957 62.2078C151.904 65.2605 147.768 66.981 143.45 66.9936ZM143.45 39.8218C141.296 39.8218 139.19 40.4606 137.398 41.6576C135.607 42.8546 134.211 44.5559 133.386 46.5464C132.562 48.5368 132.346 50.7271 132.766 52.8402C133.187 54.9533 134.224 56.8943 135.748 58.4177C137.271 59.9412 139.212 60.9786 141.325 61.399C143.438 61.8193 145.629 61.6035 147.619 60.7791C149.61 59.9546 151.311 58.5584 152.508 56.767C153.705 54.9756 154.344 52.8695 154.344 50.715C154.344 47.8259 153.196 45.0552 151.153 43.0123C149.11 40.9694 146.339 39.8218 143.45 39.8218Z" fill="url(#paint0_linear)"/>
<path d="M67.9798 55.5349C65.2867 55.5349 62.6541 54.7363 60.4149 53.2401C58.1757 51.7439 56.4304 49.6172 55.3998 47.1291C54.3692 44.641 54.0995 41.9032 54.6249 39.2619C55.1503 36.6205 56.4472 34.1943 58.3515 32.29C60.2558 30.3856 62.682 29.0888 65.3234 28.5634C67.9647 28.038 70.7026 28.3077 73.1907 29.3383C75.6788 30.3689 77.8054 32.1141 79.3016 34.3534C80.7978 36.5926 81.5964 39.2252 81.5964 41.9183C81.5964 45.5297 80.1618 48.9931 77.6082 51.5467C75.0546 54.1003 71.5912 55.5349 67.9798 55.5349ZM67.9798 33.7484C66.364 33.7484 64.7844 34.2275 63.4409 35.1253C62.0973 36.023 61.0502 37.299 60.4318 38.7918C59.8134 40.2847 59.6517 41.9274 59.9669 43.5122C60.2821 45.097 61.0602 46.5527 62.2028 47.6953C63.3454 48.8379 64.8012 49.616 66.386 49.9313C67.9708 50.2465 69.6135 50.0847 71.1063 49.4664C72.5992 48.848 73.8752 47.8008 74.7729 46.4573C75.6706 45.1137 76.1498 43.5342 76.1498 41.9183C76.148 39.7496 75.2875 37.6697 73.7565 36.1336C72.2255 34.5975 70.1486 33.7301 67.9798 33.7212V33.7484Z" fill="url(#paint1_linear)"/>
<path d="M115.626 50.3811C114.903 50.3811 114.211 50.0942 113.7 49.5835C113.189 49.0728 112.902 48.3801 112.902 47.6578V32.4141C112.902 31.6918 113.189 30.9991 113.7 30.4884C114.211 29.9777 114.903 29.6908 115.626 29.6908C116.348 29.6908 117.041 29.9777 117.551 30.4884C118.062 30.9991 118.349 31.6918 118.349 32.4141V47.6986C118.338 48.4138 118.047 49.096 117.537 49.598C117.027 50.0999 116.341 50.3812 115.626 50.3811ZM115.626 24.6799C114.903 24.6799 114.211 24.3929 113.7 23.8822C113.189 23.3715 112.902 22.6788 112.902 21.9565V17.8307C112.902 17.1085 113.189 16.4158 113.7 15.9051C114.211 15.3943 114.903 15.1074 115.626 15.1074C116.348 15.1074 117.041 15.3943 117.551 15.9051C118.062 16.4158 118.349 17.1085 118.349 17.8307V21.9974C118.345 22.7173 118.057 23.4065 117.547 23.9143C117.036 24.4221 116.346 24.7071 115.626 24.7071V24.6799Z" fill="url(#paint2_linear)"/>
<path d="M91.0821 50.3814C90.3599 50.3814 89.6672 50.0945 89.1565 49.5838C88.6457 49.073 88.3588 48.3804 88.3588 47.6581V32.4144C88.316 32.0335 88.3541 31.6478 88.4706 31.2827C88.5871 30.9175 88.7794 30.5811 89.0348 30.2953C89.2903 30.0096 89.6031 29.781 89.953 29.6245C90.3029 29.4679 90.6818 29.387 91.0651 29.387C91.4484 29.387 91.8274 29.4679 92.1772 29.6245C92.5271 29.781 92.84 30.0096 93.0954 30.2953C93.3509 30.5811 93.5431 30.9175 93.6596 31.2827C93.7761 31.6478 93.8142 32.0335 93.7714 32.4144V47.6989C93.7608 48.4083 93.4739 49.0854 92.9716 49.5864C92.4694 50.0874 91.7915 50.3726 91.0821 50.3814ZM91.0821 24.6802C90.3599 24.6802 89.6672 24.3932 89.1565 23.8825C88.6457 23.3718 88.3588 22.6791 88.3588 21.9568V17.831C88.316 17.4501 88.3541 17.0645 88.4706 16.6994C88.5871 16.3342 88.7794 15.9978 89.0348 15.712C89.2903 15.4263 89.6031 15.1977 89.953 15.0411C90.3029 14.8846 90.6818 14.8037 91.0651 14.8037C91.4484 14.8037 91.8274 14.8846 92.1772 15.0411C92.5271 15.1977 92.84 15.4263 93.0954 15.712C93.3509 15.9978 93.5431 16.3342 93.6596 16.6994C93.7761 17.0645 93.8142 17.4501 93.7714 17.831V21.9977C93.7679 22.7117 93.4841 23.3958 92.9811 23.9027C92.4781 24.4095 91.7961 24.6985 91.0821 24.7074V24.6802Z" fill="url(#paint3_linear)"/>
<path d="M103.193 46.7115C102.471 46.7115 101.779 46.4246 101.268 45.9139C100.757 45.4032 100.47 44.7105 100.47 43.9882V21.6707C100.427 21.2898 100.465 20.9042 100.582 20.539C100.698 20.1739 100.891 19.8374 101.146 19.5517C101.402 19.2659 101.714 19.0373 102.064 18.8808C102.414 18.7243 102.793 18.6434 103.176 18.6434C103.56 18.6434 103.939 18.7243 104.289 18.8808C104.638 19.0373 104.951 19.2659 105.207 19.5517C105.462 19.8374 105.654 20.1739 105.771 20.539C105.887 20.9042 105.926 21.2898 105.883 21.6707V44.0019C105.879 44.7159 105.595 45.4 105.092 45.9068C104.589 46.4136 103.907 46.7026 103.193 46.7115ZM103.193 13.9637C102.471 13.9637 101.779 13.6768 101.268 13.1661C100.757 12.6554 100.47 11.9627 100.47 11.2404V7.08737C100.427 6.70648 100.465 6.32086 100.582 5.95571C100.698 5.59055 100.891 5.2541 101.146 4.96836C101.402 4.68261 101.714 4.454 102.064 4.29748C102.414 4.14096 102.793 4.06006 103.176 4.06006C103.56 4.06006 103.939 4.14096 104.289 4.29748C104.638 4.454 104.951 4.68261 105.207 4.96836C105.462 5.2541 105.654 5.59055 105.771 5.95571C105.887 6.32086 105.926 6.70648 105.883 7.08737V11.254C105.879 11.9681 105.595 12.6522 105.092 13.159C104.589 13.6658 103.907 13.9548 103.193 13.9637Z" fill="url(#paint4_linear)"/>
<path d="M196.793 103.104C196.192 102.714 195.46 102.576 194.758 102.721C194.055 102.867 193.439 103.283 193.042 103.881C190.652 107.509 187.016 109.62 183.088 109.504C178.853 109.436 174.823 106.951 172.304 102.852C168.463 94.6008 162.353 87.613 154.688 82.706C147.022 77.7991 138.118 75.1757 129.017 75.1428H123.332C122.609 75.1428 121.917 75.4297 121.406 75.9404C120.895 76.4511 120.608 77.1438 120.608 77.8661C120.608 78.5883 120.895 79.281 121.406 79.7917C121.917 80.3025 122.609 80.5894 123.332 80.5894H129.017C134.838 80.6143 140.593 81.8338 145.925 84.1725C151.256 86.5111 156.051 89.9191 160.012 94.1854C163.974 98.4518 167.017 103.486 168.954 108.976C170.892 114.466 171.682 120.295 171.276 126.103C170.145 141.721 160.219 155.378 145.404 161.771C143.912 162.417 142.642 163.484 141.749 164.843C140.856 166.201 140.38 167.791 140.38 169.417V180.712C140.369 181.617 140.002 182.482 139.359 183.119C138.715 183.756 137.847 184.114 136.941 184.116H128.22C127.315 184.114 126.446 183.756 125.803 183.119C125.159 182.482 124.793 181.617 124.782 180.712V170.534C124.778 169.144 124.223 167.813 123.239 166.833C122.255 165.853 120.922 165.303 119.533 165.305H86.4649C85.0781 165.305 83.7482 165.856 82.7676 166.836C81.787 167.817 81.2361 169.147 81.2361 170.534V180.657C81.2255 181.557 80.8635 182.417 80.2273 183.053C79.5912 183.689 78.7315 184.051 77.832 184.062H69.1378C68.2211 184.06 67.3424 183.695 66.6942 183.047C66.046 182.398 65.681 181.52 65.6792 180.603V171.568C65.676 169.748 65.0812 167.978 63.9846 166.526C62.888 165.073 61.349 164.016 59.5994 163.514C52.8765 161.488 46.763 157.822 41.8094 152.846C39.1256 150.185 36.821 147.168 34.9602 143.879C34.0055 142.184 32.6229 140.769 30.9504 139.775C29.2779 138.781 27.374 138.243 25.4287 138.215H18.3276C16.8608 138.211 15.4554 137.625 14.4201 136.586C13.3848 135.547 12.8043 134.14 12.8061 132.673V118.614C12.8079 117.15 13.3902 115.746 14.4253 114.711C15.4604 113.676 16.8638 113.094 18.3276 113.092H30.4872L31.0523 111.138C33.5659 102.569 38.7076 95.005 45.7514 89.515C47.3236 88.2614 48.5887 86.6651 49.4501 84.848C50.3114 83.0309 50.7463 81.041 50.7214 79.0303V61.9551C61.0768 64.5627 65.7405 68.4775 65.7405 74.4551V74.707C65.7429 75.5064 65.9077 76.297 66.2249 77.0308C66.5421 77.7646 67.005 78.4263 67.5855 78.9758C68.1884 79.5428 68.9014 79.9798 69.6802 80.2597C70.4591 80.5397 71.2871 80.6565 72.113 80.603C72.7394 80.603 73.3589 80.603 73.9921 80.603H85.5117C86.234 80.603 86.9267 80.3161 87.4374 79.8054C87.9481 79.2946 88.235 78.602 88.235 77.8797C88.235 77.1574 87.9481 76.4647 87.4374 75.954C86.9267 75.4433 86.234 75.1564 85.5117 75.1564H73.9921C73.3113 75.1564 72.6305 75.1564 71.9496 75.1972H71.725C71.6475 75.2027 71.5698 75.1916 71.497 75.1646C71.4242 75.1376 71.358 75.0953 71.3028 75.0406C71.2561 75 71.2185 74.9498 71.1927 74.8934C71.1669 74.837 71.1533 74.7758 71.1531 74.7138V74.4619C71.1531 60.5458 54.7315 57.1825 48.5496 55.9162L45.2952 55.2354V79.0643C45.3179 80.2516 45.0697 81.4285 44.5695 82.5056C44.0693 83.5826 43.3303 84.5316 42.4085 85.2803C35.0172 91.0566 29.4732 98.8652 26.4567 107.748H18.3276C15.4282 107.751 12.6485 108.904 10.5976 110.954C8.54677 113.003 7.39212 115.782 7.38672 118.682V132.727C7.38852 135.63 8.54136 138.413 10.5924 140.466C12.6434 142.52 15.4252 143.676 18.3276 143.682H25.4082C26.406 143.699 27.3813 143.981 28.2343 144.499C29.0873 145.017 29.7872 145.752 30.2625 146.63C32.3691 150.313 34.9689 153.692 37.9899 156.672C43.5754 162.279 50.4681 166.409 58.0471 168.689C58.6793 168.862 59.2375 169.237 59.6369 169.757C60.0363 170.277 60.255 170.913 60.2598 171.568V180.651C60.2598 182.998 61.1923 185.249 62.8521 186.909C64.512 188.569 66.7632 189.501 69.1106 189.501H77.7775C80.1249 189.501 82.3761 188.569 84.0359 186.909C85.6958 185.249 86.6283 182.998 86.6283 180.651V170.711H119.308V180.651C119.308 182.998 120.241 185.249 121.9 186.909C123.56 188.569 125.811 189.501 128.159 189.501H136.826C137.988 189.501 139.139 189.272 140.213 188.828C141.287 188.383 142.262 187.731 143.084 186.909C143.906 186.087 144.558 185.112 145.003 184.038C145.448 182.964 145.676 181.813 145.676 180.651V169.363C145.678 168.794 145.845 168.239 146.157 167.763C146.469 167.288 146.912 166.914 147.433 166.687C164.141 159.511 175.306 144.083 176.586 126.436C176.905 121.969 176.593 117.479 175.66 113.099C177.923 114.24 180.412 114.861 182.945 114.917H183.204C188.929 114.917 194.131 111.989 197.501 106.856C197.898 106.262 198.047 105.537 197.914 104.835C197.782 104.134 197.379 103.512 196.793 103.104Z" fill="url(#paint5_linear)"/>
<path d="M57.0665 111.84C60.24 111.84 62.8127 109.267 62.8127 106.093C62.8127 102.92 60.24 100.347 57.0665 100.347C53.893 100.347 51.3203 102.92 51.3203 106.093C51.3203 109.267 53.893 111.84 57.0665 111.84Z" fill="url(#paint6_linear)"/>
<path d="M112.065 97.2156H96.7596L96.2694 97.0182C91.616 95.1294 87.764 91.6815 85.3729 87.2651C82.9819 82.8487 82.2006 77.7383 83.1629 72.8092C84.1251 67.8802 86.771 63.4389 90.6475 60.246C94.524 57.0531 99.3899 55.3071 104.412 55.3071C109.434 55.3071 114.3 57.0531 118.177 60.246C122.053 63.4389 124.699 67.8802 125.661 72.8092C126.624 77.7383 125.842 82.8487 123.451 87.2651C121.06 91.6815 117.208 95.1294 112.555 97.0182L112.065 97.2156ZM97.8421 91.803H110.975C114.378 90.2959 117.159 87.6654 118.853 84.3522C120.547 81.0389 121.052 77.2441 120.281 73.6033C119.511 69.9626 117.513 66.6971 114.622 64.3538C111.731 62.0106 108.123 60.7318 104.402 60.7318C100.681 60.7318 97.0723 62.0106 94.1814 64.3538C91.2905 66.6971 89.2926 69.9626 88.5224 73.6033C87.7522 77.2441 88.2564 81.0389 89.9506 84.3522C91.6448 87.6654 94.426 90.2959 97.8285 91.803H97.8421Z" fill="url(#paint7_linear)"/>
<path d="M111.799 80.9369C111.799 83.8781 109.756 85.7027 106.781 86.3155V90.1349C105.998 90.2716 105.206 90.3399 104.412 90.3391C103.665 90.338 102.921 90.2742 102.185 90.1485V86.2882C100.038 85.8913 98.028 84.954 96.3438 83.5649L98.005 80.1608C99.8304 81.7928 102.146 82.7722 104.589 82.9454C106.318 82.9454 107.353 82.3054 107.353 81.1616C107.353 77.6689 97.4467 79.7114 97.4467 73.1278C97.4467 70.4726 99.2849 68.6003 102.212 67.9331V63.7528C102.94 63.6384 103.675 63.5793 104.412 63.5758C105.215 63.5722 106.018 63.6451 106.808 63.7937V67.8242C108.549 68.1048 110.217 68.7272 111.717 69.6556L110.11 73.1278C108.362 72.0417 106.381 71.3882 104.33 71.2215C102.914 71.2215 101.967 71.7253 101.967 72.7329C101.94 76.1779 111.826 74.2648 111.799 80.9369Z" fill="url(#paint8_linear)"/>
<path d="M123.91 97.2153H84.933C84.2675 97.1406 83.653 96.8233 83.2067 96.324C82.7604 95.8248 82.5137 95.1787 82.5137 94.509C82.5137 93.8394 82.7604 93.1932 83.2067 92.694C83.653 92.1948 84.2675 91.8775 84.933 91.8027H123.91C124.576 91.8775 125.19 92.1948 125.637 92.694C126.083 93.1932 126.33 93.8394 126.33 94.509C126.33 95.1787 126.083 95.8248 125.637 96.324C125.19 96.8233 124.576 97.1406 123.91 97.2153Z" fill="url(#paint9_linear)"/>
<path d="M149.557 144.907C148.972 144.906 148.402 144.722 147.927 144.381C147.452 144.04 147.096 143.559 146.907 143.006C146.719 142.452 146.709 141.853 146.877 141.294C147.046 140.734 147.385 140.24 147.848 139.883C147.93 139.822 156.651 132.945 156.651 123.468C156.651 123.243 156.651 123.019 156.651 122.787C156.528 119.928 155.555 116.714 153.764 113.256C153.596 112.929 153.493 112.572 153.463 112.206C153.432 111.839 153.474 111.47 153.586 111.12C153.697 110.77 153.877 110.445 154.115 110.164C154.352 109.884 154.642 109.652 154.969 109.484C155.296 109.315 155.653 109.213 156.019 109.182C156.386 109.152 156.755 109.193 157.105 109.305C157.455 109.417 157.78 109.597 158.061 109.834C158.341 110.072 158.573 110.362 158.741 110.689C160.906 114.89 162.084 118.859 162.247 122.556C162.247 122.869 162.247 123.175 162.247 123.482C162.247 135.737 151.701 143.995 151.252 144.342C150.765 144.712 150.169 144.911 149.557 144.907ZM150.489 106.1C150.072 106.101 149.66 106.009 149.283 105.83C148.906 105.651 148.574 105.389 148.311 105.065C146.84 103.241 145.751 102.131 145.737 102.124C145.256 101.588 144.999 100.886 145.021 100.165C145.043 99.4444 145.341 98.7597 145.855 98.2533C146.368 97.7469 147.057 97.4577 147.778 97.4457C148.499 97.4337 149.197 97.6999 149.727 98.189C149.781 98.2435 151.007 99.4894 152.668 101.539C153.002 101.95 153.212 102.447 153.274 102.972C153.336 103.498 153.248 104.03 153.02 104.508C152.792 104.986 152.433 105.389 151.985 105.671C151.537 105.952 151.019 106.101 150.489 106.1Z" fill="url(#paint10_linear)"/>
<path d="M110.996 117.552L104.283 106.086L97.1543 117.436L110.996 117.552Z" fill="url(#paint11_linear)"/>
<path d="M110.996 134.532L104.283 123.066L97.1543 134.416L110.996 134.532Z" fill="url(#paint12_linear)"/>
<path d="M110.996 151.505L104.283 140.046L97.1543 151.396L110.996 151.505Z" fill="url(#paint13_linear)"/>
<defs>
<linearGradient id="paint0_linear" x1="170.513" y1="68.825" x2="113.746" y2="30.8008" gradientUnits="userSpaceOnUse">
<stop stop-color="#1A58FF"/>
<stop offset="0.05" stop-color="#1963FF"/>
<stop offset="0.23" stop-color="#1685FF"/>
<stop offset="0.42" stop-color="#13A0FF"/>
<stop offset="0.6" stop-color="#11B3FF"/>
<stop offset="0.8" stop-color="#10BEFF"/>
<stop offset="1" stop-color="#10C2FF"/>
</linearGradient>
<linearGradient id="paint1_linear" x1="3569.61" y1="2218.12" x2="1694.61" y2="1009.78" gradientUnits="userSpaceOnUse">
<stop stop-color="#1A58FF"/>
<stop offset="0.05" stop-color="#1963FF"/>
<stop offset="0.23" stop-color="#1685FF"/>
<stop offset="0.42" stop-color="#13A0FF"/>
<stop offset="0.6" stop-color="#11B3FF"/>
<stop offset="0.8" stop-color="#10BEFF"/>
<stop offset="1" stop-color="#10C2FF"/>
</linearGradient>
<linearGradient id="paint2_linear" x1="112.916" y1="32.7681" x2="118.329" y2="32.7681" gradientUnits="userSpaceOnUse">
<stop stop-color="#E3F24C"/>
<stop offset="0.2" stop-color="#CAED62"/>
<stop offset="1" stop-color="#64D8BC"/>
</linearGradient>
<linearGradient id="paint3_linear" x1="795.368" y1="1727.16" x2="838.669" y2="1727.16" gradientUnits="userSpaceOnUse">
<stop stop-color="#E3F24C"/>
<stop offset="0.2" stop-color="#CAED62"/>
<stop offset="1" stop-color="#64D8BC"/>
</linearGradient>
<linearGradient id="paint4_linear" x1="904.319" y1="1604.34" x2="947.62" y2="1604.34" gradientUnits="userSpaceOnUse">
<stop stop-color="#E3F24C"/>
<stop offset="0.2" stop-color="#CAED62"/>
<stop offset="1" stop-color="#64D8BC"/>
</linearGradient>
<linearGradient id="paint5_linear" x1="174.367" y1="178.526" x2="4.57493" y2="50.9257" gradientUnits="userSpaceOnUse">
<stop stop-color="#FF059D"/>
<stop offset="0.45" stop-color="#FF9841"/>
<stop offset="1" stop-color="#FFF904"/>
</linearGradient>
<linearGradient id="paint6_linear" x1="1241.7" y1="2127.26" x2="802.117" y2="1670.09" gradientUnits="userSpaceOnUse">
<stop stop-color="#FF059D"/>
<stop offset="0.45" stop-color="#FF9841"/>
<stop offset="1" stop-color="#FFF904"/>
</linearGradient>
<linearGradient id="paint7_linear" x1="5346.83" y1="4750.32" x2="8100.32" y2="4750.32" gradientUnits="userSpaceOnUse">
<stop stop-color="#E3F24C"/>
<stop offset="0.2" stop-color="#CAED62"/>
<stop offset="1" stop-color="#64D8BC"/>
</linearGradient>
<linearGradient id="paint8_linear" x1="2283.36" y1="3089.19" x2="2634.18" y2="3089.19" gradientUnits="userSpaceOnUse">
<stop stop-color="#E3F24C"/>
<stop offset="0.2" stop-color="#CAED62"/>
<stop offset="1" stop-color="#64D8BC"/>
</linearGradient>
<linearGradient id="paint9_linear" x1="8530.24" y1="950.833" x2="8261.4" y2="-146.886" gradientUnits="userSpaceOnUse">
<stop stop-color="#FF059D"/>
<stop offset="0.45" stop-color="#FF9841"/>
<stop offset="1" stop-color="#FFF904"/>
</linearGradient>
<linearGradient id="paint10_linear" x1="3812.47" y1="8540.96" x2="4250.75" y2="8540.96" gradientUnits="userSpaceOnUse">
<stop stop-color="#E3F24C"/>
<stop offset="0.2" stop-color="#CAED62"/>
<stop offset="1" stop-color="#64D8BC"/>
</linearGradient>
<linearGradient id="paint11_linear" x1="2072.3" y1="1989.12" x2="2353.69" y2="1989.12" gradientUnits="userSpaceOnUse">
<stop stop-color="#E3F24C"/>
<stop offset="0.2" stop-color="#CAED62"/>
<stop offset="1" stop-color="#64D8BC"/>
</linearGradient>
<linearGradient id="paint12_linear" x1="2072.3" y1="2292.04" x2="2353.69" y2="2292.04" gradientUnits="userSpaceOnUse">
<stop stop-color="#E3F24C"/>
<stop offset="0.2" stop-color="#CAED62"/>
<stop offset="1" stop-color="#64D8BC"/>
</linearGradient>
<linearGradient id="paint13_linear" x1="2072.3" y1="2593.5" x2="2353.69" y2="2593.5" gradientUnits="userSpaceOnUse">
<stop stop-color="#E3F24C"/>
<stop offset="0.2" stop-color="#CAED62"/>
<stop offset="1" stop-color="#64D8BC"/>
</linearGradient>
</defs>
</svg>
