<svg width="73" height="119" viewBox="0 0 73 119" fill="none" xmlns="http://www.w3.org/2000/svg">
<path d="M1.34407 114.857L6.68619 102.629H8.66346L14.0056 114.857H11.7508L10.5193 111.925H4.77829L3.52948 114.857H1.34407ZM5.55879 110.035H9.73882L7.64014 105.178L5.55879 110.035ZM15.8448 114.857V105.699H17.9435V107.121C18.6719 106.046 19.6259 105.508 20.8053 105.508C21.8229 105.508 22.6207 105.826 23.1989 106.462C23.777 107.098 24.0661 107.954 24.0661 109.029V114.857H21.9674V109.653C21.9674 108.936 21.794 108.387 21.4471 108.006C21.1117 107.612 20.6319 107.416 20.0075 107.416C19.3946 107.416 18.8974 107.618 18.5158 108.023C18.1343 108.428 17.9435 108.983 17.9435 109.688V114.857H15.8448ZM30.3815 115.047C29.2368 115.047 28.2424 114.62 27.3983 113.764C26.5542 112.897 26.1321 111.729 26.1321 110.26C26.1321 108.803 26.5484 107.647 27.3809 106.791C28.225 105.936 29.2252 105.508 30.3815 105.508C31.6303 105.508 32.671 106.046 33.5036 107.121V102.195H35.6022V114.857H33.5036V113.33C32.6941 114.475 31.6535 115.047 30.3815 115.047ZM29.0113 112.411C29.5317 112.955 30.1561 113.226 30.8845 113.226C31.613 113.226 32.2374 112.949 32.7577 112.394C33.2781 111.839 33.5382 111.128 33.5382 110.26C33.5382 109.405 33.2781 108.705 32.7577 108.162C32.2374 107.607 31.613 107.329 30.8845 107.329C30.1445 107.329 29.5201 107.601 29.0113 108.144C28.5025 108.676 28.2482 109.393 28.2482 110.295C28.2482 111.162 28.5025 111.868 29.0113 112.411ZM38.2199 114.857V105.699H40.3186V107.763C40.9661 106.202 42.0473 105.456 43.562 105.525V107.745H43.4406C42.4925 107.745 41.7351 108.058 41.1685 108.682C40.6019 109.295 40.3186 110.191 40.3186 111.37V114.857H38.2199ZM49.4333 115.065C48.0457 115.065 46.8894 114.602 45.9644 113.677C45.0393 112.752 44.5768 111.625 44.5768 110.295C44.5768 108.965 45.0451 107.838 45.9817 106.913C46.9183 105.976 48.0804 105.508 49.468 105.508C50.8556 105.508 52.0119 105.971 52.9369 106.896C53.8735 107.821 54.3418 108.954 54.3418 110.295C54.3418 111.613 53.8735 112.741 52.9369 113.677C52.0003 114.602 50.8324 115.065 49.4333 115.065ZM49.468 113.244C50.3005 113.244 50.9712 112.96 51.48 112.394C51.9887 111.827 52.2431 111.128 52.2431 110.295C52.2431 109.474 51.9772 108.78 51.4453 108.214C50.9134 107.636 50.2427 107.347 49.4333 107.347C48.6123 107.347 47.9475 107.63 47.4387 108.196C46.9299 108.763 46.6755 109.463 46.6755 110.295C46.6755 111.104 46.9415 111.798 47.4734 112.376C48.0053 112.955 48.6701 113.244 49.468 113.244ZM56.5138 104.294V102.299H58.7686V104.294H56.5138ZM56.6005 114.857V105.699H58.6992V114.857H56.6005ZM65.2231 115.047C64.0783 115.047 63.0839 114.62 62.2398 113.764C61.3957 112.897 60.9737 111.729 60.9737 110.26C60.9737 108.803 61.3899 107.647 62.2225 106.791C63.0666 105.936 64.0668 105.508 65.2231 105.508C66.4719 105.508 67.5125 106.046 68.3451 107.121V102.195H70.4438V114.857H68.3451V113.33C67.5357 114.475 66.495 115.047 65.2231 115.047ZM63.8528 112.411C64.3732 112.955 64.9976 113.226 65.7261 113.226C66.4545 113.226 67.0789 112.949 67.5993 112.394C68.1196 111.839 68.3798 111.128 68.3798 110.26C68.3798 109.405 68.1196 108.705 67.5993 108.162C67.0789 107.607 66.4545 107.329 65.7261 107.329C64.986 107.329 64.3616 107.601 63.8528 108.144C63.3441 108.676 63.0897 109.393 63.0897 110.295C63.0897 111.162 63.3441 111.868 63.8528 112.411Z" fill="#DCD2FF"/>
<path d="M10.2163 24.1991C9.05409 24.1991 8.06803 24.648 7.25747 25.5458C6.44691 26.4436 6.0415 27.5209 6.0415 28.7782V48.0837C6.0415 49.3725 6.44678 50.4638 7.25747 51.3617C8.06803 52.2594 9.05409 52.7085 10.2163 52.7085C11.3776 52.7085 12.3577 52.2596 13.1557 51.3617C13.9521 50.4639 14.3514 49.3725 14.3514 48.0837V28.7782C14.3514 27.5207 13.9461 26.4436 13.1354 25.5458C12.3247 24.648 11.3515 24.1991 10.2163 24.1991ZM43.78 6.86861L46.6581 0.988113C46.847 0.5988 46.7798 0.300263 46.4558 0.0903415C46.1042 -0.0906717 45.8341 0.00105068 45.6453 0.359025L42.727 6.28653C40.1591 5.02903 37.4431 4.39913 34.5791 4.39913C31.7144 4.39913 28.9982 5.02917 26.4313 6.28653L23.5128 0.359025C23.3232 0.00105068 23.053 -0.0898612 22.7023 0.0903415C22.3776 0.301208 22.3104 0.5988 22.5 0.988113L25.3782 6.86861C22.4598 8.51705 20.1354 10.8128 18.406 13.7609C16.6766 16.7106 15.8115 19.934 15.8115 23.4367H53.3058C53.3058 19.9348 52.4406 16.7113 50.7113 13.7609C48.9818 10.8128 46.6709 8.51705 43.78 6.86861V6.86861ZM27.1403 15.4219C26.8291 15.7674 26.4574 15.9394 26.0252 15.9394C25.5923 15.9394 25.2281 15.7674 24.931 15.4219C24.6339 15.078 24.4853 14.6679 24.4853 14.1876C24.4853 13.709 24.6339 13.2981 24.931 12.9534C25.2281 12.6094 25.5931 12.4375 26.0252 12.4375C26.4574 12.4375 26.8291 12.6094 27.1403 12.9534C27.4509 13.2989 27.6068 13.709 27.6068 14.1876C27.606 14.667 27.4501 15.078 27.1403 15.4219ZM44.2255 15.4219C43.9278 15.7674 43.5628 15.9394 43.1314 15.9394C42.6983 15.9394 42.3267 15.7674 42.0161 15.4219C41.7049 15.078 41.5497 14.6679 41.5497 14.1876C41.5497 13.709 41.7049 13.2981 42.0161 12.9534C42.3267 12.6094 42.6983 12.4375 43.1314 12.4375C43.5635 12.4375 43.9277 12.6094 44.2255 12.9534C44.5229 13.2989 44.6712 13.709 44.6712 14.1876C44.6712 14.667 44.5227 15.078 44.2255 15.4219ZM15.9725 54.9529C15.9725 56.331 16.4046 57.4976 17.269 58.455C18.134 59.4123 19.1873 59.8909 20.4307 59.8909H23.4305L23.4716 70.0836C23.4716 71.3707 23.8769 72.4636 24.6874 73.3615C25.498 74.2594 26.4714 74.7083 27.6059 74.7083C28.7673 74.7083 29.754 74.2594 30.5647 73.3615C31.3754 72.4636 31.7806 71.3708 31.7806 70.0836V59.8918H37.3743V70.0836C37.3743 71.3707 37.7795 72.4636 38.5901 73.3615C39.4008 74.2594 40.3866 74.7083 41.5489 74.7083C42.7104 74.7083 43.6971 74.2594 44.5077 73.3615C45.3184 72.4636 45.7236 71.3708 45.7236 70.0836V59.8918H48.7639C49.9797 59.8918 51.0194 59.4131 51.8854 58.4558C52.7496 57.4984 53.1819 56.3318 53.1819 54.9538V25.0514H15.9725V54.9529ZM58.9403 24.1991C57.8049 24.1991 56.8324 24.6414 56.0217 25.5235C55.2111 26.4072 54.8059 27.4928 54.8059 28.7782V48.0837C54.8059 49.3725 55.211 50.4638 56.0217 51.3617C56.8324 52.2596 57.8056 52.7085 58.9403 52.7085C60.1017 52.7085 61.0884 52.2596 61.8991 51.3617C62.7097 50.4638 63.1149 49.3725 63.1149 48.0837V28.7782C63.1149 27.4926 62.7097 26.4072 61.8991 25.5235C61.0884 24.6414 60.1017 24.1991 58.9403 24.1991V24.1991Z" fill="white"/>
</svg>
