<svg width="62" height="116" viewBox="0 0 62 116" fill="none" xmlns="http://www.w3.org/2000/svg">
<g clip-path="url(#clip0)">
<path d="M51.2054 71.376C47.3238 75.2868 43.0411 74.6772 38.959 72.8333C34.6191 70.9523 30.6515 70.8333 26.0681 72.8333C20.3603 75.3909 17.331 74.6474 13.8934 71.376C-5.51457 50.6325 -2.64992 19.0339 19.4078 17.8443C24.7575 18.1417 28.5031 20.9149 31.6542 21.1454C36.3379 20.1566 40.821 17.3238 45.8342 17.6956C51.8571 18.2012 56.3617 20.6696 59.3696 25.1082C46.98 32.8406 49.9163 49.7923 61.2961 54.5507C59.0187 60.7589 56.0967 66.8928 51.1982 71.4281L51.2054 71.376ZM31.2245 17.6212C30.6444 8.40187 37.8418 0.818204 46.1206 0.074707C47.2593 10.7067 36.8105 18.6621 31.2245 17.6212Z" fill="white"/>
</g>
<path d="M17.122 104.046V102.061H19.366V104.046H17.122ZM17.2083 114.558V105.444H19.2969V114.558H17.2083ZM32.5732 112.936C31.3764 114.156 29.8631 114.765 28.0334 114.765C26.2037 114.765 24.6963 114.161 23.511 112.953C22.3257 111.745 21.7331 110.266 21.7331 108.517C21.7331 106.791 22.3315 105.318 23.5282 104.098C24.725 102.878 26.2383 102.268 28.068 102.268C29.8977 102.268 31.4051 102.872 32.5904 104.081C33.7757 105.289 34.3683 106.768 34.3683 108.517C34.3683 110.243 33.7699 111.716 32.5732 112.936ZM25.1163 111.572C25.8988 112.401 26.8827 112.815 28.068 112.815C29.2532 112.815 30.2256 112.401 30.9851 111.572C31.7561 110.744 32.1416 109.725 32.1416 108.517C32.1416 107.32 31.7504 106.307 30.9679 105.479C30.1969 104.639 29.2187 104.219 28.0334 104.219C26.8482 104.219 25.87 104.633 25.099 105.462C24.3395 106.29 23.9598 107.309 23.9598 108.517C23.9598 109.714 24.3453 110.732 25.1163 111.572ZM41.1625 114.731C39.2408 114.731 37.5607 114.087 36.1222 112.798L37.3996 111.279C38.6079 112.326 39.8794 112.849 41.2143 112.849C41.8702 112.849 42.3881 112.711 42.7678 112.435C43.1591 112.148 43.3547 111.768 43.3547 111.296C43.3547 110.847 43.1706 110.49 42.8024 110.226C42.4341 109.95 41.7091 109.685 40.6274 109.432C39.2235 109.098 38.1993 108.678 37.5549 108.172C36.922 107.654 36.6056 106.866 36.6056 105.807C36.6056 104.771 36.9911 103.931 37.7621 103.287C38.5331 102.631 39.5227 102.303 40.731 102.303C42.3881 102.303 43.8495 102.809 45.1154 103.822L43.9761 105.427C42.8599 104.599 41.7667 104.184 40.6965 104.184C40.0866 104.184 39.6033 104.322 39.2465 104.599C38.9013 104.875 38.7287 105.226 38.7287 105.652C38.7287 106.123 38.9186 106.492 39.2983 106.756C39.6896 107.009 40.4548 107.274 41.5941 107.55C42.9289 107.872 43.9071 108.304 44.5285 108.845C45.1614 109.386 45.4779 110.145 45.4779 111.123C45.4779 112.24 45.0808 113.12 44.2868 113.764C43.4928 114.409 42.4514 114.731 41.1625 114.731Z" fill="#DCD2FF"/>
<defs>
<clipPath id="clip0">
<rect width="60.3007" height="74.3497" fill="white" transform="translate(0.930664)"/>
</clipPath>
</defs>
</svg>
