<svg width="62" height="115" viewBox="0 0 62 115" fill="none" xmlns="http://www.w3.org/2000/svg">
<path d="M51.2052 71.376C47.3236 75.2868 43.0409 74.6772 38.9588 72.8333C34.6189 70.9523 30.6513 70.8333 26.0679 72.8333C20.3601 75.3909 17.3308 74.6474 13.8932 71.376C-5.51481 50.6325 -2.65016 19.0339 19.4076 17.8443C24.7573 18.1417 28.5029 20.9149 31.654 21.1454C36.3377 20.1566 40.8208 17.3238 45.834 17.6956C51.8569 18.2012 56.3615 20.6696 59.3694 25.1082C46.9798 32.8406 49.9161 49.7923 61.2959 54.5507C59.0185 60.7589 56.0965 66.8928 51.198 71.4281L51.2052 71.376ZM31.2243 17.6212C30.6442 8.40187 37.8416 0.818204 46.1204 0.074707C47.2591 10.7067 36.8103 18.6621 31.2243 17.6212Z" fill="white"/>
<path d="M17.1221 104.046V102.061H19.3661V104.046H17.1221ZM17.2084 114.558V105.444H19.297V114.558H17.2084ZM32.5733 112.936C31.3765 114.156 29.8632 114.765 28.0335 114.765C26.2038 114.765 24.6964 114.161 23.5111 112.953C22.3258 111.745 21.7332 110.266 21.7332 108.517C21.7332 106.791 22.3316 105.318 23.5283 104.098C24.7251 102.878 26.2384 102.268 28.0681 102.268C29.8978 102.268 31.4052 102.872 32.5905 104.081C33.7758 105.289 34.3684 106.768 34.3684 108.517C34.3684 110.243 33.77 111.716 32.5733 112.936ZM25.1164 111.572C25.8989 112.401 26.8828 112.815 28.0681 112.815C29.2533 112.815 30.2257 112.401 30.9852 111.572C31.7562 110.744 32.1417 109.725 32.1417 108.517C32.1417 107.32 31.7505 106.307 30.968 105.479C30.197 104.639 29.2188 104.219 28.0335 104.219C26.8483 104.219 25.8701 104.633 25.0991 105.462C24.3396 106.29 23.9599 107.309 23.9599 108.517C23.9599 109.714 24.3454 110.732 25.1164 111.572ZM41.1626 114.731C39.2409 114.731 37.5608 114.087 36.1223 112.798L37.3997 111.279C38.608 112.326 39.8795 112.849 41.2144 112.849C41.8703 112.849 42.3882 112.711 42.7679 112.435C43.1592 112.148 43.3548 111.768 43.3548 111.296C43.3548 110.847 43.1707 110.49 42.8025 110.226C42.4342 109.95 41.7092 109.685 40.6275 109.432C39.2236 109.098 38.1994 108.678 37.555 108.172C36.9221 107.654 36.6057 106.866 36.6057 105.807C36.6057 104.771 36.9912 103.931 37.7622 103.287C38.5332 102.631 39.5228 102.303 40.7311 102.303C42.3882 102.303 43.8496 102.809 45.1155 103.822L43.9762 105.427C42.86 104.599 41.7668 104.184 40.6966 104.184C40.0867 104.184 39.6034 104.322 39.2466 104.599C38.9014 104.875 38.7288 105.226 38.7288 105.652C38.7288 106.123 38.9187 106.492 39.2984 106.756C39.6897 107.009 40.4549 107.274 41.5942 107.55C42.929 107.872 43.9072 108.304 44.5286 108.845C45.1615 109.386 45.478 110.145 45.478 111.123C45.478 112.24 45.0809 113.12 44.2869 113.764C43.4929 114.409 42.4515 114.731 41.1626 114.731Z" fill="#DCD2FF"/>
</svg>
