<svg width="70" height="115" viewBox="0 0 70 115" fill="none" xmlns="http://www.w3.org/2000/svg">
<path d="M0.344238 114.37L5.68636 102.142H7.66363L13.0058 114.37H10.751L9.51947 111.438H3.77846L2.52965 114.37H0.344238ZM4.55896 109.549H8.73899L6.64031 104.691L4.55896 109.549ZM14.845 114.37V105.212H16.9437V106.634C17.6721 105.559 18.6261 105.021 19.8055 105.021C20.8231 105.021 21.6209 105.339 22.1991 105.975C22.7772 106.611 23.0663 107.467 23.0663 108.542V114.37H20.9676V109.166C20.9676 108.449 20.7942 107.9 20.4473 107.519C20.1119 107.125 19.6321 106.929 19.0077 106.929C18.3948 106.929 17.8976 107.131 17.516 107.536C17.1345 107.941 16.9437 108.496 16.9437 109.201V114.37H14.845ZM29.3817 114.56C28.237 114.56 27.2426 114.133 26.3985 113.277C25.5544 112.41 25.1323 111.242 25.1323 109.773C25.1323 108.316 25.5486 107.16 26.3811 106.304C27.2252 105.449 28.2254 105.021 29.3817 105.021C30.6305 105.021 31.6712 105.559 32.5038 106.634V101.708H34.6024V114.37H32.5038V112.843C31.6943 113.988 30.6537 114.56 29.3817 114.56ZM28.0115 111.924C28.5319 112.468 29.1563 112.739 29.8847 112.739C30.6132 112.739 31.2376 112.462 31.7579 111.907C32.2783 111.352 32.5384 110.641 32.5384 109.773C32.5384 108.918 32.2783 108.218 31.7579 107.675C31.2376 107.12 30.6132 106.842 29.8847 106.842C29.1447 106.842 28.5203 107.114 28.0115 107.657C27.5027 108.189 27.2484 108.906 27.2484 109.808C27.2484 110.675 27.5027 111.381 28.0115 111.924ZM37.2201 114.37V105.212H39.3188V107.276C39.9663 105.715 41.0475 104.969 42.5622 105.038V107.258H42.4408C41.4927 107.258 40.7353 107.571 40.1687 108.195C39.6021 108.808 39.3188 109.704 39.3188 110.883V114.37H37.2201ZM48.4335 114.578C47.0459 114.578 45.8896 114.115 44.9646 113.19C44.0395 112.265 43.577 111.138 43.577 109.808C43.577 108.478 44.0453 107.351 44.9819 106.426C45.9185 105.489 47.0806 105.021 48.4682 105.021C49.8558 105.021 51.0121 105.485 51.9371 106.41C52.8737 107.335 53.342 108.467 53.342 109.808C53.342 111.126 52.8737 112.254 51.9371 113.19C51.0005 114.115 49.8326 114.578 48.4335 114.578ZM48.4682 112.757C49.3007 112.757 49.9714 112.473 50.4802 111.907C50.9889 111.34 51.2433 110.641 51.2433 109.808C51.2433 108.987 50.9774 108.293 50.4455 107.727C49.9136 107.149 49.2429 106.86 48.4335 106.86C47.6125 106.86 46.9477 107.143 46.4389 107.709C45.9301 108.276 45.6757 108.976 45.6757 109.808C45.6757 110.617 45.9417 111.311 46.4736 111.889C47.0055 112.468 47.6703 112.757 48.4682 112.757ZM55.514 103.807V101.812H57.7688V103.807H55.514ZM55.6007 114.37V105.212H57.6994V114.37H55.6007ZM64.2233 114.56C63.0785 114.56 62.0841 114.133 61.24 113.277C60.3959 112.41 59.9739 111.242 59.9739 109.773C59.9739 108.316 60.3901 107.16 61.2227 106.304C62.0668 105.449 63.067 105.021 64.2233 105.021C65.4721 105.021 66.5127 105.559 67.3453 106.634V101.708H69.444V114.37H67.3453V112.843C66.5359 113.988 65.4952 114.56 64.2233 114.56ZM62.853 111.924C63.3734 112.468 63.9978 112.739 64.7263 112.739C65.4547 112.739 66.0791 112.462 66.5995 111.907C67.1198 111.352 67.38 110.641 67.38 109.773C67.38 108.918 67.1198 108.218 66.5995 107.675C66.0791 107.12 65.4547 106.842 64.7263 106.842C63.9862 106.842 63.3618 107.114 62.853 107.657C62.3443 108.189 62.0899 108.906 62.0899 109.808C62.0899 110.675 62.3443 111.381 62.853 111.924Z" fill="#DCD2FF"/>
<path d="M9.2163 24.1991C8.05409 24.1991 7.06803 24.648 6.25747 25.5458C5.44691 26.4436 5.0415 27.5209 5.0415 28.7782V48.0837C5.0415 49.3725 5.44678 50.4638 6.25747 51.3617C7.06803 52.2594 8.05409 52.7085 9.2163 52.7085C10.3776 52.7085 11.3577 52.2596 12.1557 51.3617C12.9521 50.4639 13.3514 49.3725 13.3514 48.0837V28.7782C13.3514 27.5207 12.9461 26.4436 12.1354 25.5458C11.3247 24.648 10.3515 24.1991 9.2163 24.1991ZM42.78 6.86861L45.6581 0.988113C45.847 0.5988 45.7798 0.300263 45.4558 0.0903415C45.1042 -0.0906717 44.8341 0.00105068 44.6453 0.359025L41.727 6.28653C39.1591 5.02903 36.4431 4.39913 33.5791 4.39913C30.7144 4.39913 27.9982 5.02917 25.4313 6.28653L22.5128 0.359025C22.3232 0.00105068 22.053 -0.0898612 21.7023 0.0903415C21.3776 0.301208 21.3104 0.5988 21.5 0.988113L24.3782 6.86861C21.4598 8.51705 19.1354 10.8128 17.406 13.7609C15.6766 16.7106 14.8115 19.934 14.8115 23.4367H52.3058C52.3058 19.9348 51.4406 16.7113 49.7113 13.7609C47.9818 10.8128 45.6709 8.51705 42.78 6.86861ZM26.1403 15.4219C25.8291 15.7674 25.4574 15.9394 25.0252 15.9394C24.5923 15.9394 24.2281 15.7674 23.931 15.4219C23.6339 15.078 23.4853 14.6679 23.4853 14.1876C23.4853 13.709 23.6339 13.2981 23.931 12.9534C24.2281 12.6094 24.5931 12.4375 25.0252 12.4375C25.4574 12.4375 25.8291 12.6094 26.1403 12.9534C26.4509 13.2989 26.6068 13.709 26.6068 14.1876C26.606 14.667 26.4501 15.078 26.1403 15.4219ZM43.2255 15.4219C42.9278 15.7674 42.5628 15.9394 42.1314 15.9394C41.6983 15.9394 41.3267 15.7674 41.0161 15.4219C40.7049 15.078 40.5497 14.6679 40.5497 14.1876C40.5497 13.709 40.7049 13.2981 41.0161 12.9534C41.3267 12.6094 41.6983 12.4375 42.1314 12.4375C42.5635 12.4375 42.9277 12.6094 43.2255 12.9534C43.5229 13.2989 43.6712 13.709 43.6712 14.1876C43.6712 14.667 43.5227 15.078 43.2255 15.4219ZM14.9725 54.9529C14.9725 56.331 15.4046 57.4976 16.269 58.455C17.134 59.4123 18.1873 59.8909 19.4307 59.8909H22.4305L22.4716 70.0836C22.4716 71.3707 22.8769 72.4636 23.6874 73.3615C24.498 74.2594 25.4714 74.7083 26.6059 74.7083C27.7673 74.7083 28.754 74.2594 29.5647 73.3615C30.3754 72.4636 30.7806 71.3708 30.7806 70.0836V59.8918H36.3743V70.0836C36.3743 71.3707 36.7795 72.4636 37.5901 73.3615C38.4008 74.2594 39.3866 74.7083 40.5489 74.7083C41.7104 74.7083 42.6971 74.2594 43.5077 73.3615C44.3184 72.4636 44.7236 71.3708 44.7236 70.0836V59.8918H47.7639C48.9797 59.8918 50.0194 59.4131 50.8854 58.4558C51.7496 57.4984 52.1819 56.3318 52.1819 54.9538V25.0514H14.9725V54.9529ZM57.9403 24.1991C56.8049 24.1991 55.8324 24.6414 55.0217 25.5235C54.2111 26.4072 53.8059 27.4928 53.8059 28.7782V48.0837C53.8059 49.3725 54.211 50.4638 55.0217 51.3617C55.8324 52.2596 56.8056 52.7085 57.9403 52.7085C59.1017 52.7085 60.0884 52.2596 60.8991 51.3617C61.7097 50.4638 62.1149 49.3725 62.1149 48.0837V28.7782C62.1149 27.4926 61.7097 26.4072 60.8991 25.5235C60.0884 24.6414 59.1017 24.1991 57.9403 24.1991Z" fill="white"/>
</svg>
