<svg width="87" height="118" viewBox="0 0 87 118" fill="none" xmlns="http://www.w3.org/2000/svg">
<path d="M37.5372 115.191C35.9303 115.191 34.6645 114.734 33.7397 113.821C32.8265 112.908 32.3699 111.584 32.3699 109.85V102.862H34.5027V109.763C34.5027 110.873 34.7743 111.729 35.3177 112.33C35.861 112.931 36.6124 113.231 37.5719 113.231C38.5313 113.231 39.277 112.942 39.8087 112.364C40.352 111.786 40.6237 110.948 40.6237 109.85V102.862H42.7565V109.746C42.7565 111.515 42.2941 112.867 41.3693 113.804C40.4445 114.728 39.1671 115.191 37.5372 115.191ZM45.4414 115V105.844H47.5395V107.266C48.2678 106.191 49.2215 105.654 50.4006 105.654C51.4179 105.654 52.2155 105.972 52.7935 106.607C53.3715 107.243 53.6605 108.099 53.6605 109.174V115H51.5624V109.798C51.5624 109.081 51.389 108.532 51.0422 108.151C50.707 107.758 50.2272 107.561 49.603 107.561C48.9903 107.561 48.4932 107.763 48.1117 108.168C47.7303 108.573 47.5395 109.128 47.5395 109.833V115H45.4414ZM56.2289 104.44V102.446H58.4831V104.44H56.2289ZM56.3156 115V105.844H58.4137V115H56.3156ZM64.2249 115.156C62.4678 115.156 61.5892 114.26 61.5892 112.468V107.648H60.4275V105.844H61.5892V103.33H63.6874V105.844H66.1497V107.648H63.6874V112.139C63.6874 112.902 64.0631 113.283 64.8145 113.283C65.2653 113.283 65.6988 113.179 66.115 112.971V114.688C65.5601 115 64.9301 115.156 64.2249 115.156ZM70.1406 117.826C69.3776 117.826 68.6551 117.641 67.9731 117.272L68.684 115.711C69.1117 115.942 69.5221 116.058 69.9152 116.058C70.2157 116.058 70.4643 115.977 70.6608 115.815C70.8573 115.665 71.0423 115.393 71.2157 115L67.4009 105.844H69.6377L72.2387 112.642L74.6143 105.844H76.7991L73.1577 115.26C72.7878 116.196 72.3774 116.855 71.9266 117.237C71.4758 117.63 70.8804 117.826 70.1406 117.826Z" fill="#DCD2FF"/>
<path d="M78.3632 42.3606L83.7421 33.2451C83.9577 32.7911 83.9844 32.2723 83.8204 31.7973L73.1674 1.27853C72.8431 0.351524 71.8646 -0.176833 70.9147 0.0539657L39.6043 7.68366C39.0054 7.83054 38.5133 8.25589 38.2844 8.82812L34.9502 17.1674H24.797C24.2648 17.1674 23.7575 17.3905 23.395 17.7816L0.505947 42.5781C-0.1998 43.343 -0.16356 44.5332 0.591781 45.2523L24.5929 68.1414C24.9496 68.479 25.4207 68.6679 25.909 68.6679H36.8557L40.1918 77.0071C40.4379 77.6232 40.9872 78.0657 41.6396 78.1783L74.9394 83.9005C75.0481 83.9196 75.1568 83.9292 75.2636 83.9292C76.1449 83.9292 76.9326 83.3169 77.1253 82.428L83.8814 51.4724C83.9863 50.9936 83.9024 50.492 83.6468 50.0724L78.3632 42.3606ZM34.9502 17.1674L61.8335 12.2405L47.6861 40.0565H15.5784L34.9502 17.1674ZM36.8577 68.6679L15.5784 47.6862H47.6861L64.3761 72.8012L36.8577 68.6679ZM71.3115 68.4714L55.3158 43.8713L69.3029 16.0554L78.3632 42.3626L71.3115 68.4714Z" fill="white"/>
</svg>
