<svg width="200" height="200" viewBox="0 0 200 200" fill="none" xmlns="http://www.w3.org/2000/svg">
<path d="M81.4668 169.907H75.2271C74.3784 169.907 73.6904 170.648 73.6904 171.563V174.755C73.6904 175.67 74.3784 176.411 75.2271 176.411H81.4668C82.3155 176.411 83.0035 175.67 83.0035 174.755V171.563C83.0035 170.648 82.3155 169.907 81.4668 169.907Z" fill="#95E290"/>
<path d="M35.8402 152.238H40.9969C41.4045 152.238 41.7953 152.413 42.0835 152.724C42.3717 153.034 42.5336 153.456 42.5336 153.895V160.444C42.5336 161.544 42.1283 162.599 41.4068 163.377C40.6854 164.155 39.707 164.592 38.6867 164.592H38.1091C37.6039 164.592 37.1037 164.484 36.637 164.276C36.1703 164.068 35.7462 163.762 35.389 163.377C35.0318 162.992 34.7484 162.535 34.555 162.031C34.3617 161.528 34.2622 160.989 34.2622 160.444V153.895C34.2621 153.674 34.3031 153.455 34.3829 153.251C34.4627 153.047 34.5797 152.862 34.7268 152.708C34.8739 152.553 35.0482 152.432 35.2394 152.351C35.4306 152.271 35.6349 152.232 35.8402 152.238Z" fill="#95E290"/>
<path d="M164.335 169.907H158.096C157.247 169.907 156.559 170.648 156.559 171.563V174.755C156.559 175.67 157.247 176.411 158.096 176.411H164.335C165.184 176.411 165.872 175.67 165.872 174.755V171.563C165.872 170.648 165.184 169.907 164.335 169.907Z" fill="#95E290"/>
<path d="M43.1417 72.3359C43.1456 71.6939 42.9736 71.0651 42.6471 70.5282C42.3206 69.9914 41.8542 69.5705 41.3067 69.3184C40.7591 69.0663 40.1546 68.9942 39.5692 69.1112C38.9837 69.2282 38.4434 69.5291 38.016 69.9761C37.5886 70.423 37.2932 70.9961 37.1669 71.6235C37.0406 72.2508 37.089 72.9044 37.306 73.5022C37.5231 74.1 37.8991 74.6153 38.3869 74.9834C38.8746 75.3516 39.4524 75.5562 40.0477 75.5716C40.4488 75.5819 40.8479 75.506 41.2216 75.3483C41.5952 75.1906 41.9359 74.9543 42.2239 74.6531C42.512 74.3519 42.7414 73.9919 42.899 73.594C43.0566 73.1962 43.1391 72.7685 43.1417 72.3359V72.3359Z" fill="#95E290"/>
<path d="M43.1418 106.705C43.1439 106.06 42.9684 105.429 42.6376 104.892C42.3068 104.355 41.8356 103.936 41.2836 103.687C40.7316 103.439 40.1236 103.373 39.5368 103.497C38.9499 103.622 38.4105 103.931 37.9869 104.386C37.5632 104.842 37.2744 105.422 37.157 106.054C37.0395 106.687 37.0988 107.342 37.3272 107.938C37.5556 108.534 37.9429 109.044 38.4401 109.402C38.9373 109.761 39.5218 109.952 40.1199 109.952C40.9196 109.952 41.6867 109.61 42.2531 109.002C42.8195 108.393 43.1391 107.567 43.1418 106.705V106.705Z" fill="#95E290"/>
<path d="M43.1418 140.852C43.1418 140.208 42.9646 139.578 42.6326 139.042C42.3005 138.506 41.8286 138.089 41.2764 137.842C40.7243 137.596 40.1167 137.531 39.5305 137.657C38.9443 137.783 38.4058 138.093 37.9832 138.548C37.5606 139.004 37.2728 139.585 37.1562 140.217C37.0396 140.849 37.0995 141.504 37.3282 142.099C37.5569 142.694 37.9442 143.203 38.4411 143.561C38.938 143.919 39.5223 144.11 40.1199 144.11C40.9214 144.11 41.6901 143.767 42.2568 143.156C42.8235 142.545 43.1418 141.716 43.1418 140.852V140.852Z" fill="#95E290"/>
<path d="M43.1419 38.8784C43.1276 38.2409 42.9401 37.622 42.6027 37.0983C42.2652 36.5746 41.7926 36.1692 41.2435 35.9324C40.6944 35.6955 40.0929 35.6375 39.5135 35.7657C38.9342 35.8939 38.4024 36.2026 37.9842 36.6534C37.5659 37.1043 37.2797 37.6776 37.1608 38.3022C37.0419 38.9269 37.0957 39.5754 37.3154 40.1674C37.5351 40.7594 37.9111 41.2689 38.3968 41.6327C38.8826 41.9965 39.4566 42.1987 40.0479 42.2141C40.4569 42.2248 40.8636 42.1458 41.2435 41.9819C41.6234 41.8181 41.9684 41.5727 42.2577 41.2608C42.547 40.9489 42.7745 40.5769 42.9265 40.1674C43.0785 39.7579 43.1518 39.3193 43.1419 38.8784Z" fill="#95E290"/>
<path d="M115.625 57.1581V53.3331H123.587V36.1985C123.584 32.6989 122.293 29.3435 119.998 26.869C117.703 24.3944 114.591 23.0029 111.345 23H36.2422C32.9962 23.0029 29.8839 24.3944 27.5887 26.869C25.2934 29.3435 24.0027 32.6989 24 36.1985V53.3331H32.0032V57.1359H24V87.4912H32.0136V91.4385H24V121.794H32.0136V125.652H24V142.809C24.0027 146.307 25.292 149.66 27.585 152.135C29.878 154.609 32.9877 156.002 36.2319 156.008H73.5045V96.5089C73.5011 95.8164 73.5738 95.1259 73.7212 94.4519C74.0815 92.7901 74.8606 91.2679 75.9726 90.0533C77.0846 88.8388 78.4861 87.9791 80.0227 87.5691L80.3527 87.4801C80.9179 87.3435 81.4958 87.2764 82.075 87.28H123.587V57.1581H115.625ZM28.5586 48.4852V36.2541C28.5586 34.0442 29.3722 31.9248 30.8206 30.3611C32.2689 28.7975 34.2337 27.9176 36.2833 27.9147H111.386C113.437 27.9147 115.405 28.7933 116.855 30.3572C118.306 31.9212 119.121 34.0423 119.121 36.2541V48.4852H28.5586ZM111.118 53.3554V57.1581H36.5618V53.3331L111.118 53.3554ZM69.0388 151.204H36.273C34.2251 151.201 32.262 150.323 30.8139 148.762C29.3658 147.2 28.551 145.084 28.5483 142.876V130.534H69.0388V151.204ZM69.0388 125.719H36.5618V121.861H69.0388V125.719ZM69.0388 96.5534V117.002H28.5483V96.331H69.0388V96.5534ZM69.8948 91.5052H36.5618V87.658H72.0194C71.1284 88.7959 70.4112 90.0796 69.8948 91.4608V91.5052ZM119.121 82.4431H82.1163C81.2819 82.4368 80.449 82.5225 79.6308 82.6989H28.5483V62.0283H32.0445H115.583H119.08L119.121 82.4431Z" fill="url(#paint0_linear)"/>
<path d="M104.455 40.8243H80.3321C79.7331 40.8243 79.1586 40.5678 78.735 40.1111C78.3114 39.6544 78.0734 39.035 78.0734 38.3892C78.0734 37.7434 78.3114 37.124 78.735 36.6673C79.1586 36.2107 79.7331 35.9541 80.3321 35.9541H104.455C105.054 35.9541 105.629 36.2107 106.052 36.6673C106.476 37.124 106.714 37.7434 106.714 38.3892C106.714 39.035 106.476 39.6544 106.052 40.1111C105.629 40.5678 105.054 40.8243 104.455 40.8243ZM71.3079 40.8243H67.6982C67.0991 40.8243 66.5246 40.5678 66.101 40.1111C65.6775 39.6544 65.4395 39.035 65.4395 38.3892C65.4395 37.7434 65.6775 37.124 66.101 36.6673C66.5246 36.2107 67.0991 35.9541 67.6982 35.9541H71.3079C71.9069 35.9541 72.4813 36.2107 72.9049 36.6673C73.3284 37.124 73.5665 37.7434 73.5665 38.3892C73.5665 39.035 73.3284 39.6544 72.9049 40.1111C72.4813 40.5678 71.9069 40.8243 71.3079 40.8243V40.8243Z" fill="#95E290"/>
<path d="M170.76 160.622H69.0388V96.5086C69.0324 95.4456 69.1432 94.3855 69.3689 93.3507C69.9174 90.812 71.105 88.4857 72.8009 86.6279C74.4968 84.77 76.6353 83.4527 78.981 82.8209C79.1451 82.7588 79.3143 82.7142 79.4864 82.6875C80.3505 82.4875 81.2325 82.3906 82.1163 82.3984H157.673C161.142 82.4043 164.468 83.8928 166.921 86.5377C169.374 89.1826 170.755 92.7681 170.76 96.5086V160.622ZM73.5458 155.752H166.243V96.5086C166.243 94.057 165.34 91.7056 163.733 89.971C162.126 88.2364 159.947 87.2604 157.673 87.2575H82.1163C81.5201 87.2549 80.9252 87.322 80.3423 87.4576L80.064 87.5465C78.5266 87.9586 77.1247 88.8204 76.0128 90.0368C74.9008 91.2533 74.122 92.7772 73.7624 94.4404C73.6153 95.1183 73.5427 95.8124 73.5458 96.5086V155.752Z" fill="url(#paint1_linear)"/>
<path d="M164.943 171.552H74.6078C71.4037 171.546 68.3324 170.171 66.0668 167.729C63.8011 165.286 62.526 161.975 62.5205 158.52V155.763H177V158.52C176.994 161.969 175.723 165.275 173.464 167.717C171.205 170.158 168.142 171.537 164.943 171.552V171.552ZM67.2853 160.622C67.7183 162.359 68.6703 163.894 69.994 164.99C71.3176 166.085 72.9392 166.68 74.6078 166.682H164.943C166.612 166.682 168.235 166.088 169.559 164.992C170.883 163.896 171.834 162.36 172.266 160.622H67.2853Z" fill="url(#paint2_linear)"/>
<path d="M114.398 114.489H83.6636V99.3667H114.398V114.489ZM88.1809 109.63H109.839V104.281H88.1809V109.63Z" fill="#95E290"/>
<path d="M155.455 104.225H122.452C121.881 104.184 121.346 103.91 120.955 103.459C120.564 103.008 120.346 102.413 120.346 101.796C120.346 101.179 120.564 100.584 120.955 100.133C121.346 99.6822 121.881 99.4081 122.452 99.3664H155.455C155.764 99.3439 156.074 99.39 156.365 99.5019C156.657 99.6138 156.924 99.7891 157.15 100.017C157.376 100.245 157.556 100.52 157.68 100.826C157.803 101.132 157.867 101.462 157.867 101.796C157.867 102.13 157.803 102.46 157.68 102.766C157.556 103.072 157.376 103.347 157.15 103.575C156.924 103.803 156.657 103.978 156.365 104.09C156.074 104.202 155.764 104.248 155.455 104.225V104.225Z" fill="url(#paint3_linear)"/>
<path d="M155.455 114.489H122.452C121.881 114.447 121.346 114.173 120.955 113.722C120.564 113.271 120.346 112.676 120.346 112.059C120.346 111.442 120.564 110.847 120.955 110.396C121.346 109.945 121.881 109.671 122.452 109.63H155.455C155.764 109.607 156.074 109.653 156.365 109.765C156.657 109.877 156.924 110.052 157.15 110.28C157.376 110.508 157.556 110.783 157.68 111.089C157.803 111.395 157.867 111.725 157.867 112.059C157.867 112.393 157.803 112.723 157.68 113.029C157.556 113.335 157.376 113.61 157.15 113.838C156.924 114.066 156.657 114.241 156.365 114.353C156.074 114.465 155.764 114.511 155.455 114.489V114.489Z" fill="url(#paint4_linear)"/>
<path d="M155.455 124.641H122.452C122.143 124.663 121.834 124.617 121.542 124.505C121.251 124.393 120.983 124.218 120.757 123.99C120.531 123.762 120.351 123.487 120.228 123.181C120.105 122.875 120.041 122.545 120.041 122.211C120.041 121.877 120.105 121.547 120.228 121.241C120.351 120.935 120.531 120.66 120.757 120.432C120.983 120.204 121.251 120.029 121.542 119.917C121.834 119.805 122.143 119.759 122.452 119.781H155.455C155.764 119.759 156.074 119.805 156.365 119.917C156.657 120.029 156.924 120.204 157.15 120.432C157.376 120.66 157.556 120.935 157.68 121.241C157.803 121.547 157.866 121.877 157.866 122.211C157.866 122.545 157.803 122.875 157.68 123.181C157.556 123.487 157.376 123.762 157.15 123.99C156.924 124.218 156.657 124.393 156.365 124.505C156.074 124.617 155.764 124.663 155.455 124.641V124.641Z" fill="url(#paint5_linear)"/>
<path d="M163.139 163.658C163.141 163.195 163.015 162.743 162.779 162.357C162.542 161.972 162.204 161.671 161.809 161.492C161.413 161.314 160.977 161.266 160.557 161.355C160.136 161.444 159.749 161.665 159.445 161.991C159.141 162.318 158.934 162.734 158.85 163.187C158.765 163.64 158.807 164.11 158.971 164.538C159.135 164.965 159.412 165.33 159.769 165.587C160.125 165.844 160.544 165.982 160.973 165.982C161.257 165.983 161.538 165.924 161.801 165.808C162.064 165.692 162.303 165.521 162.504 165.305C162.705 165.089 162.865 164.832 162.974 164.55C163.083 164.267 163.139 163.964 163.139 163.658V163.658Z" fill="#95E290"/>
<path d="M80.8788 163.658C80.8788 163.198 80.7525 162.749 80.5156 162.367C80.2788 161.985 79.9421 161.687 79.5482 161.511C79.1544 161.335 78.721 161.289 78.3029 161.379C77.8847 161.468 77.5006 161.69 77.1991 162.015C76.8977 162.34 76.6925 162.754 76.6093 163.205C76.5261 163.655 76.5688 164.123 76.7319 164.547C76.8951 164.972 77.1714 165.335 77.5258 165.59C77.8803 165.845 78.297 165.982 78.7234 165.982C79.0068 165.983 79.2877 165.924 79.5499 165.808C79.812 165.692 80.0502 165.521 80.2506 165.304C80.451 165.088 80.6097 164.832 80.7176 164.549C80.8254 164.266 80.8802 163.963 80.8788 163.658V163.658Z" fill="#95E290"/>
<path d="M109.488 142.943C109.116 142.94 108.75 142.837 108.424 142.643C108.097 142.449 107.822 142.17 107.622 141.831C107.299 141.3 107.18 140.655 107.292 140.032C107.404 139.409 107.737 138.857 108.22 138.495L114.862 133.647L108.292 129.199C108.041 129.03 107.824 128.809 107.653 128.549C107.482 128.289 107.359 127.996 107.293 127.685C107.227 127.374 107.218 127.052 107.268 126.738C107.317 126.424 107.423 126.123 107.58 125.853C107.737 125.582 107.942 125.348 108.183 125.164C108.424 124.979 108.697 124.847 108.985 124.776C109.273 124.705 109.572 124.695 109.863 124.748C110.155 124.801 110.434 124.916 110.685 125.085L120.183 131.512C120.5 131.728 120.761 132.026 120.944 132.378C121.127 132.73 121.226 133.125 121.233 133.529C121.239 133.933 121.152 134.331 120.979 134.69C120.807 135.048 120.555 135.355 120.245 135.582L110.757 142.52C110.384 142.797 109.941 142.945 109.488 142.943V142.943Z" fill="url(#paint6_linear)"/>
<path d="M93.3168 142.342C92.8639 142.344 92.4212 142.197 92.0483 141.919L82.5598 134.981C82.2396 134.761 81.9768 134.457 81.7963 134.097C81.6158 133.737 81.5236 133.333 81.5285 132.924C81.5307 132.521 81.6263 132.124 81.8064 131.771C81.9864 131.418 82.2454 131.118 82.5598 130.9L92.0586 124.473C92.565 124.165 93.1622 124.079 93.726 124.233C94.2897 124.388 94.7764 124.771 95.0848 125.302C95.3932 125.834 95.4994 126.473 95.3814 127.087C95.2634 127.701 94.9302 128.243 94.4513 128.599L87.8816 133.046L94.5234 137.894C94.9223 138.187 95.2237 138.61 95.3834 139.101C95.5431 139.592 95.5527 140.125 95.4109 140.622C95.269 141.12 94.9832 141.555 94.5952 141.864C94.2072 142.174 93.7375 142.341 93.2549 142.342H93.3168Z" fill="url(#paint7_linear)"/>
<path d="M98.0608 147.457C97.8554 147.454 97.6511 147.424 97.4523 147.368C97.1667 147.282 96.8996 147.136 96.6665 146.938C96.4334 146.741 96.2389 146.495 96.0941 146.216C95.9494 145.937 95.8573 145.63 95.8231 145.312C95.7889 144.995 95.8133 144.673 95.895 144.366L102.475 119.214C102.544 118.893 102.673 118.59 102.853 118.324C103.034 118.058 103.263 117.835 103.526 117.667C103.789 117.499 104.081 117.391 104.384 117.348C104.687 117.306 104.996 117.33 105.29 117.42C105.584 117.51 105.858 117.663 106.096 117.87C106.334 118.077 106.53 118.335 106.673 118.626C106.815 118.917 106.902 119.237 106.927 119.566C106.951 119.894 106.914 120.225 106.817 120.537L100.237 145.689C100.101 146.198 99.8149 146.645 99.4225 146.964C99.03 147.283 98.5522 147.456 98.0608 147.457V147.457Z" fill="url(#paint8_linear)"/>
<path d="M155.455 135.214H142.429C142.12 135.237 141.811 135.191 141.519 135.079C141.228 134.967 140.961 134.792 140.734 134.564C140.508 134.336 140.328 134.061 140.205 133.754C140.082 133.448 140.018 133.118 140.018 132.785C140.018 132.451 140.082 132.121 140.205 131.815C140.328 131.509 140.508 131.233 140.734 131.006C140.961 130.778 141.228 130.603 141.519 130.491C141.811 130.379 142.12 130.333 142.429 130.355H155.455C155.764 130.333 156.074 130.379 156.365 130.491C156.657 130.603 156.924 130.778 157.15 131.006C157.376 131.233 157.556 131.509 157.679 131.815C157.803 132.121 157.866 132.451 157.866 132.785C157.866 133.118 157.803 133.448 157.679 133.754C157.556 134.061 157.376 134.336 157.15 134.564C156.924 134.792 156.657 134.967 156.365 135.079C156.074 135.191 155.764 135.237 155.455 135.214V135.214Z" fill="#95E290"/>
<path d="M155.455 146.134H142.429C142.12 146.157 141.811 146.111 141.519 145.999C141.228 145.887 140.961 145.712 140.734 145.484C140.508 145.256 140.328 144.98 140.205 144.674C140.082 144.368 140.018 144.038 140.018 143.705C140.018 143.371 140.082 143.041 140.205 142.735C140.328 142.429 140.508 142.153 140.734 141.926C140.961 141.698 141.228 141.522 141.519 141.411C141.811 141.299 142.12 141.253 142.429 141.275H155.455C155.764 141.253 156.074 141.299 156.365 141.411C156.657 141.522 156.924 141.698 157.15 141.926C157.376 142.153 157.556 142.429 157.679 142.735C157.803 143.041 157.866 143.371 157.866 143.705C157.866 144.038 157.803 144.368 157.679 144.674C157.556 144.98 157.376 145.256 157.15 145.484C156.924 145.712 156.657 145.887 156.365 145.999C156.074 146.111 155.764 146.157 155.455 146.134V146.134Z" fill="#95E290"/>
<path d="M135.633 130.322H130.631V135.715H135.633V130.322Z" fill="#95E290"/>
<path d="M135.633 140.774H130.631V146.167H135.633V140.774Z" fill="#95E290"/>
<path d="M158.003 77.0057C157.514 76.8763 157.092 76.545 156.828 76.0833C156.563 75.6215 156.478 75.0662 156.59 74.5372V74.5372C156.712 74.0128 157.021 73.5613 157.449 73.2804C157.877 72.9995 158.391 72.9117 158.879 73.0361V73.0361C159.364 73.1627 159.783 73.4911 160.044 73.9495C160.305 74.4079 160.386 74.959 160.272 75.4823V75.4823V75.549C160.143 76.062 159.834 76.5008 159.411 76.7726C158.987 77.0445 158.482 77.1281 158.003 77.0057V77.0057ZM159.034 71.0458C158.861 71.0559 158.687 71.0372 158.518 70.9902V70.9902C158.122 70.8783 157.77 70.6319 157.514 70.2875C157.257 69.9431 157.111 69.5189 157.095 69.0777V69.0777C157.085 68.8106 157.125 68.5441 157.212 68.2938C157.299 68.0435 157.431 67.8144 157.601 67.6198C157.771 67.4252 157.975 67.269 158.202 67.1604C158.428 67.0518 158.673 66.993 158.921 66.9873C159.098 66.9727 159.276 66.9915 159.447 67.0428V67.0428C159.844 67.1476 160.199 67.3905 160.456 67.7341C160.714 68.0777 160.859 68.5029 160.87 68.9443V68.9443C160.877 69.1393 160.856 69.3342 160.808 69.5224C160.705 69.9449 160.479 70.3207 160.164 70.5948C159.848 70.8689 159.46 71.0269 159.055 71.0458H159.034ZM158.621 65.0081C158.283 65.1022 157.928 65.1022 157.59 65.0081C157.278 64.9171 156.991 64.7433 156.757 64.5025C156.523 64.2617 156.348 63.9615 156.249 63.6293V63.6293C156.105 63.1117 156.156 62.5534 156.391 62.0763C156.627 61.5992 157.028 61.2421 157.508 61.083V61.083C157.844 60.9729 158.203 60.9729 158.539 61.083V61.083C158.854 61.1671 159.144 61.3386 159.379 61.5804C159.614 61.8222 159.787 62.126 159.88 62.4618C159.979 62.8246 159.979 63.2108 159.88 63.5737C159.8 63.9028 159.646 64.2056 159.432 64.4557C159.218 64.7058 158.95 64.8955 158.652 65.0081H158.621ZM156.745 59.2706C156.529 59.417 156.288 59.5152 156.036 59.5591C155.785 59.6031 155.527 59.5919 155.28 59.5263V59.5263C154.809 59.4001 154.402 59.081 154.145 58.6368V58.6368C153.88 58.1778 153.794 57.6243 153.906 57.0971C154.018 56.5699 154.319 56.1121 154.744 55.8236V55.8236C154.959 55.6766 155.2 55.579 155.452 55.5369C155.704 55.4948 155.962 55.5092 156.208 55.579V55.579C156.677 55.7094 157.083 56.0275 157.343 56.4685V56.4685C157.478 56.7052 157.569 56.969 157.608 57.2442C157.647 57.5193 157.634 57.8001 157.57 58.0697V58.0697C157.454 58.5662 157.166 58.9959 156.765 59.2706H156.745ZM153.568 54.2892C153.335 54.556 153.04 54.7504 152.713 54.8521C152.386 54.9538 152.041 54.9591 151.712 54.8674V54.8674C151.404 54.7919 151.122 54.6264 150.897 54.3892V54.3892C150.531 54.021 150.314 53.5116 150.295 52.9722C150.276 52.4328 150.455 51.907 150.794 51.5094C151.024 51.2416 151.317 51.0455 151.642 50.9418C151.967 50.8381 152.311 50.8306 152.64 50.9201V50.9201C152.947 51.0092 153.23 51.1771 153.465 51.4093V51.4093C153.715 51.6611 153.898 51.9808 153.994 52.3348C154.09 52.6889 154.096 53.0644 154.011 53.4219V53.4219C153.934 53.7421 153.789 54.0389 153.589 54.2892H153.568ZM149.278 50.3641C149.076 50.77 148.754 51.0915 148.364 51.2769C147.973 51.4624 147.536 51.5012 147.122 51.3871C146.985 51.3441 146.854 51.2844 146.73 51.2091V51.2091C146.509 51.0872 146.312 50.9189 146.152 50.714C145.992 50.5091 145.871 50.2718 145.797 50.016C145.723 49.7602 145.698 49.491 145.721 49.2243C145.745 48.9575 145.818 48.6986 145.936 48.4627C146.135 48.054 146.456 47.7302 146.848 47.5443C147.239 47.3584 147.678 47.3216 148.092 47.4397V47.4397C148.23 47.4779 148.362 47.5378 148.483 47.6177V47.6177C148.862 47.8283 149.163 48.1732 149.333 48.5944C149.504 49.0156 149.536 49.4874 149.422 49.9304C149.393 50.0787 149.351 50.2238 149.298 50.3641H149.278ZM141.934 49.3189C141.455 49.1946 141.04 48.8718 140.779 48.4203C140.519 47.9687 140.433 47.4248 140.542 46.906C140.658 46.3797 140.96 45.9231 141.384 45.6342C141.808 45.3453 142.32 45.247 142.811 45.3605V45.3605C143.29 45.4875 143.704 45.8103 143.966 46.2606C144.227 46.711 144.316 47.2535 144.214 47.7733V47.7733V47.8512C144.087 48.3638 143.781 48.8033 143.359 49.0771C142.938 49.351 142.435 49.4376 141.955 49.3189H141.934ZM136.84 48.8296C136.648 48.84 136.457 48.8175 136.272 48.7629C135.884 48.6514 135.54 48.4088 135.289 48.0705C135.038 47.7323 134.895 47.3164 134.88 46.8838V46.8838C134.867 46.6162 134.904 46.3485 134.989 46.0964C135.073 45.8443 135.203 45.6128 135.371 45.4152C135.539 45.2176 135.741 45.058 135.967 44.9455C136.192 44.833 136.436 44.77 136.685 44.76V44.76C136.876 44.7479 137.068 44.7705 137.252 44.8268V44.8268C137.64 44.9394 137.985 45.182 138.238 45.5198C138.49 45.8575 138.636 46.2728 138.655 46.7059C138.656 46.9079 138.635 47.1094 138.593 47.3063V47.3063C138.5 47.7356 138.282 48.1212 137.969 48.4057C137.657 48.6902 137.268 48.8584 136.86 48.8852L136.84 48.8296ZM131.827 49.7859C131.49 49.8852 131.133 49.8852 130.796 49.7859V49.7859C130.489 49.6976 130.208 49.5284 129.978 49.2934C129.747 49.0585 129.575 48.7654 129.476 48.4405V48.4405C129.323 47.9244 129.367 47.3642 129.597 46.8827C129.827 46.4012 130.225 46.0377 130.703 45.8719V45.8719C131.041 45.7727 131.397 45.7727 131.734 45.8719V45.8719C132.043 45.9572 132.325 46.1269 132.555 46.3645C132.784 46.6022 132.953 46.8998 133.044 47.2285C133.145 47.5911 133.145 47.9777 133.044 48.3404V48.3404C132.973 48.6716 132.825 48.9779 132.614 49.2307C132.403 49.4835 132.136 49.6745 131.838 49.7859H131.827Z" fill="#95E290"/>
<path d="M139.16 78.1734C137.214 78.1734 135.312 77.5513 133.694 76.3857C132.076 75.2201 130.814 73.5634 130.07 71.6251C129.325 69.6868 129.13 67.5539 129.51 65.4963C129.89 63.4386 130.827 61.5484 132.203 60.0649C133.579 58.5814 135.332 57.5711 137.24 57.1618C139.149 56.7525 141.127 56.9626 142.925 57.7655C144.723 58.5683 146.26 59.928 147.341 61.6724C148.422 63.4168 148.999 65.4677 148.999 67.5657C148.996 70.3781 147.959 73.0745 146.114 75.0632C144.27 77.0519 141.768 78.1705 139.16 78.1734V78.1734ZM139.16 61.8282C138.107 61.8282 137.078 62.1647 136.203 62.7951C135.328 63.4256 134.646 64.3217 134.243 65.3701C133.84 66.4184 133.735 67.5721 133.94 68.685C134.146 69.798 134.653 70.8203 135.397 71.6227C136.141 72.4251 137.089 72.9716 138.122 73.1929C139.154 73.4143 140.224 73.3007 141.196 72.8665C142.169 72.4322 143 71.6968 143.585 70.7533C144.169 69.8098 144.482 68.7005 144.482 67.5657C144.479 66.0449 143.917 64.5873 142.92 63.5119C141.922 62.4366 140.57 61.8311 139.16 61.8282V61.8282Z" fill="url(#paint9_linear)"/>
<defs>
<linearGradient id="paint0_linear" x1="149551" y1="37337" x2="159167" y2="37337" gradientUnits="userSpaceOnUse">
<stop stop-color="#10C2FF"/>
<stop offset="0.22" stop-color="#12B4FF"/>
<stop offset="0.62" stop-color="#1690FF"/>
<stop offset="1" stop-color="#1A68FF"/>
</linearGradient>
<linearGradient id="paint1_linear" x1="69.0388" y1="121.505" x2="170.76" y2="121.505" gradientUnits="userSpaceOnUse">
<stop stop-color="#FF059D"/>
<stop offset="1" stop-color="#FFF904"/>
</linearGradient>
<linearGradient id="paint2_linear" x1="176222" y1="5638.1" x2="188934" y2="5638.1" gradientUnits="userSpaceOnUse">
<stop stop-color="#FF059D"/>
<stop offset="1" stop-color="#FFF904"/>
</linearGradient>
<linearGradient id="paint3_linear" x1="59955.5" y1="1519.46" x2="61319.4" y2="1519.46" gradientUnits="userSpaceOnUse">
<stop stop-color="#10C2FF"/>
<stop offset="0.22" stop-color="#12B4FF"/>
<stop offset="0.62" stop-color="#1690FF"/>
<stop offset="1" stop-color="#1A68FF"/>
</linearGradient>
<linearGradient id="paint4_linear" x1="59955.5" y1="1574.38" x2="61319.4" y2="1574.38" gradientUnits="userSpaceOnUse">
<stop stop-color="#10C2FF"/>
<stop offset="0.22" stop-color="#12B4FF"/>
<stop offset="0.62" stop-color="#1690FF"/>
<stop offset="1" stop-color="#1A68FF"/>
</linearGradient>
<linearGradient id="paint5_linear" x1="60442" y1="1629.24" x2="61816.6" y2="1629.24" gradientUnits="userSpaceOnUse">
<stop stop-color="#10C2FF"/>
<stop offset="0.22" stop-color="#12B4FF"/>
<stop offset="0.62" stop-color="#1690FF"/>
<stop offset="1" stop-color="#1A68FF"/>
</linearGradient>
<linearGradient id="paint6_linear" x1="22251.8" y1="5964.9" x2="22441.8" y2="5964.9" gradientUnits="userSpaceOnUse">
<stop stop-color="#10C2FF"/>
<stop offset="0.22" stop-color="#12B4FF"/>
<stop offset="0.62" stop-color="#1690FF"/>
<stop offset="1" stop-color="#1A68FF"/>
</linearGradient>
<linearGradient id="paint7_linear" x1="21855.6" y1="5940.2" x2="22045.5" y2="5940.2" gradientUnits="userSpaceOnUse">
<stop stop-color="#10C2FF"/>
<stop offset="0.22" stop-color="#12B4FF"/>
<stop offset="0.62" stop-color="#1690FF"/>
<stop offset="1" stop-color="#1A68FF"/>
</linearGradient>
<linearGradient id="paint8_linear" x1="17575.4" y1="9733.19" x2="17695.1" y2="9733.19" gradientUnits="userSpaceOnUse">
<stop stop-color="#10C2FF"/>
<stop offset="0.22" stop-color="#12B4FF"/>
<stop offset="0.62" stop-color="#1690FF"/>
<stop offset="1" stop-color="#1A68FF"/>
</linearGradient>
<linearGradient id="paint9_linear" x1="31684.5" y1="5589.93" x2="32059.8" y2="5589.93" gradientUnits="userSpaceOnUse">
<stop stop-color="#FF059D"/>
<stop offset="1" stop-color="#FFF904"/>
</linearGradient>
</defs>
</svg>
