<svg width="200" height="200" viewBox="0 0 200 200" fill="none" xmlns="http://www.w3.org/2000/svg">
<path d="M72.2619 176.072H47.7856V145.429H72.2619V176.072ZM53.3929 170.464H66.6547V151.024H53.3929V170.464Z" fill="url(#paint0_linear)"/>
<path d="M106.107 176.071H81.6069V125.19H106.083L106.107 176.071ZM87.2379 170.464H100.5V130.798H87.2379V170.464Z" fill="url(#paint1_linear)"/>
<path d="M139.941 176.072H115.464V97.2622H139.941V176.072ZM121.072 170.465H134.334V102.869H121.072V170.465Z" fill="url(#paint2_linear)"/>
<path d="M173.798 176.071H149.322V69.8213H173.798V176.071ZM154.929 170.464H168.191V75.4165H154.929V170.464Z" fill="url(#paint3_linear)"/>
<path d="M184.19 176.072H16.8331C16.4496 176.097 16.0651 176.043 15.7033 175.913C15.3414 175.783 15.0099 175.581 14.7295 175.318C14.449 175.055 14.2255 174.738 14.0726 174.385C13.9198 174.033 13.8408 173.652 13.8408 173.268C13.8408 172.884 13.9198 172.503 14.0726 172.151C14.2255 171.798 14.449 171.481 14.7295 171.218C15.0099 170.955 15.3414 170.753 15.7033 170.623C16.0651 170.493 16.4496 170.439 16.8331 170.464H184.19C184.902 170.511 185.57 170.826 186.058 171.347C186.546 171.868 186.817 172.555 186.817 173.268C186.817 173.982 186.546 174.668 186.058 175.189C185.57 175.71 184.902 176.025 184.19 176.072Z" fill="url(#paint4_linear)"/>
<path d="M149.679 28.4407C149.407 28.4574 149.14 28.5276 148.895 28.6475C148.65 28.7673 148.431 28.9343 148.251 29.1389C148.071 29.3435 147.933 29.5817 147.845 29.8399C147.757 30.098 147.721 30.371 147.738 30.6431C147.752 30.9169 147.82 31.1852 147.939 31.4323C148.057 31.6795 148.224 31.9004 148.429 32.0823C148.634 32.2641 148.874 32.4032 149.133 32.4913C149.393 32.5794 149.667 32.6148 149.941 32.5955L158.75 32.0598L61.5954 124.143L47.0835 110.476L28.9169 130.536C28.418 131.087 28.1585 131.813 28.1953 132.556C28.2322 133.298 28.5624 133.995 29.1133 134.494C29.6643 134.993 30.3908 135.253 31.1332 135.216C31.8755 135.179 32.5728 134.849 33.0716 134.298L47.3573 118.476L61.5359 131.845L162.869 35.7979L161.012 44.9288C160.903 45.4703 161.014 46.0328 161.32 46.4926C161.626 46.9525 162.102 47.2721 162.643 47.3812C162.782 47.3934 162.921 47.3934 163.06 47.3812C163.54 47.3772 164.004 47.2082 164.375 46.9026C164.746 46.597 165 46.1734 165.095 45.7026L168.869 27.2026L149.679 28.4407Z" fill="url(#paint5_linear)"/>
<path d="M74.1377 63.3521C73.7812 63.3534 73.4282 63.2835 73.099 63.1465C72.7699 63.0096 72.4713 62.8083 72.221 62.5545C71.7136 62.0457 71.4287 61.3564 71.4287 60.6378C71.4287 59.9192 71.7136 59.23 72.221 58.7211L75.1734 55.7807C75.6817 55.2739 76.3706 54.9899 77.0884 54.991C77.4438 54.9915 77.7955 55.0621 78.1237 55.1986C78.4518 55.3351 78.7499 55.5349 79.0008 55.7866C79.2518 56.0383 79.4506 56.337 79.5861 56.6655C79.7216 56.9941 79.7911 57.3461 79.7905 57.7015C79.79 58.0569 79.7194 58.4088 79.5829 58.7369C79.4463 59.065 79.2466 59.3631 78.9949 59.614L76.0544 62.5545C75.8037 62.8077 75.5052 63.0087 75.1761 63.1456C74.8471 63.2825 74.494 63.3527 74.1377 63.3521ZM84.4472 53.0426C83.7287 53.0373 83.0407 52.751 82.5306 52.245C82.0231 51.7361 81.7381 51.0469 81.7381 50.3283C81.7381 49.6097 82.0231 48.9204 82.5306 48.4116L93.34 37.6021C93.8567 37.1368 94.5324 36.8875 95.2275 36.9057C95.9226 36.9239 96.584 37.2081 97.0757 37.6998C97.5673 38.1914 97.8517 38.853 97.8699 39.5481C97.888 40.2432 97.6388 40.9187 97.1735 41.4354L86.3639 52.245C85.8537 52.751 85.1658 53.0373 84.4472 53.0426Z" fill="url(#paint6_linear)"/>
<path d="M91.4819 80.6967C90.9467 80.6967 90.4237 80.5377 89.979 80.2401C89.5343 79.9424 89.1878 79.5193 88.9838 79.0246C88.7798 78.5298 88.7273 77.9857 88.833 77.461C88.9386 76.9364 89.1976 76.455 89.5772 76.0777L92.5176 73.1372C93.0243 72.6289 93.7123 72.3427 94.43 72.3416C95.1478 72.3405 95.8366 72.6245 96.3449 73.1313C96.8533 73.638 97.1395 74.326 97.1406 75.0437C97.1417 75.7615 96.8576 76.4503 96.3509 76.9586L93.3985 79.8991C93.1478 80.1524 92.8492 80.3533 92.5202 80.4902C92.1912 80.6272 91.8383 80.6974 91.4819 80.6967ZM101.803 70.3872C101.267 70.3895 100.742 70.2323 100.296 69.9355C99.8493 69.6387 99.5012 69.2158 99.2957 68.7206C99.0902 68.2254 99.0366 67.6802 99.1418 67.1545C99.247 66.6287 99.5063 66.1461 99.8866 65.7682L110.696 54.9586C111.205 54.4519 111.893 54.1678 112.611 54.1689C112.966 54.1695 113.318 54.2401 113.646 54.3766C113.975 54.5131 114.273 54.7129 114.524 54.9646C114.774 55.2163 114.973 55.515 115.109 55.8435C115.244 56.1721 115.314 56.5241 115.313 56.8795C115.313 57.2349 115.242 57.5867 115.106 57.9149C114.969 58.243 114.769 58.5411 114.518 58.792L103.72 69.6015C103.207 70.0999 102.519 70.3777 101.803 70.3753V70.3872Z" fill="url(#paint7_linear)"/>
<path d="M75.3274 79.7315C74.8002 79.72 74.2879 79.5545 73.8536 79.2553C73.4192 78.9562 73.0819 78.5365 72.8832 78.048C72.6845 77.5595 72.6331 77.0235 72.7353 76.5061C72.8375 75.9887 73.0889 75.5126 73.4584 75.1363L76.4108 72.1958C76.6605 71.9396 76.9587 71.7355 77.2879 71.5954C77.6172 71.4553 77.9709 71.382 78.3287 71.3797C78.6865 71.3774 79.0411 71.4462 79.3722 71.582C79.7032 71.7179 80.0039 71.9181 80.2569 72.1711C80.5099 72.4241 80.7101 72.7249 80.846 73.0559C80.9819 73.3869 81.0507 73.7416 81.0484 74.0994C81.0461 74.4571 80.9727 74.8109 80.8326 75.1402C80.6925 75.4694 80.4884 75.7675 80.2322 76.0173L77.2917 78.9696C77.0316 79.2211 76.7238 79.4181 76.3865 79.549C76.0492 79.6798 75.6891 79.7419 75.3274 79.7315ZM85.637 69.422C85.1018 69.422 84.5788 69.263 84.1341 68.9653C83.6893 68.6676 83.3431 68.2446 83.139 67.7499C82.935 67.2551 82.8824 66.7109 82.988 66.1863C83.0937 65.6617 83.3527 65.1802 83.7322 64.803L99.518 49.0054C99.7645 48.7316 100.064 48.5109 100.399 48.3567C100.733 48.2025 101.096 48.118 101.464 48.1083C101.832 48.0987 102.199 48.1642 102.541 48.3007C102.883 48.4372 103.194 48.6419 103.454 48.9024C103.715 49.1629 103.919 49.4737 104.056 49.8159C104.192 50.158 104.258 50.5244 104.248 50.8927C104.239 51.2609 104.154 51.6234 104 51.9579C103.846 52.2925 103.625 52.5922 103.351 52.8387L87.5536 68.6363C87.3019 68.8874 87.003 69.0862 86.674 69.221C86.345 69.3559 85.9925 69.4242 85.637 69.422Z" fill="url(#paint8_linear)"/>
<path d="M24.8929 151.024C22.9099 151.017 20.9599 150.515 19.2203 149.563C17.4806 148.611 16.0065 147.239 14.9314 145.573C13.8564 143.906 13.2146 141.998 13.0645 140.021C12.9143 138.043 13.2604 136.06 14.0715 134.25C14.9481 132.294 16.3363 130.612 18.0897 129.379C19.8431 128.147 21.8965 127.411 24.0335 127.249C26.1705 127.086 28.3117 127.504 30.231 128.457C32.1504 129.411 33.7768 130.865 34.9386 132.665C36.1004 134.466 36.7546 136.547 36.832 138.689C36.9094 140.831 36.4072 142.954 35.3785 144.834C34.3497 146.714 32.8325 148.281 30.987 149.371C29.1415 150.46 27.036 151.031 24.8929 151.024ZM19.1668 136.548C18.6556 137.683 18.4925 138.945 18.6981 140.173C18.9038 141.401 19.469 142.541 20.3223 143.448C21.1755 144.355 22.2784 144.989 23.4917 145.269C24.7051 145.549 25.9742 145.463 27.1389 145.023C28.3035 144.582 29.3113 143.805 30.0348 142.792C30.7584 141.778 31.1652 140.573 31.2038 139.328C31.2425 138.084 30.9112 136.855 30.252 135.799C29.5927 134.742 28.6352 133.905 27.5001 133.393C25.9764 132.709 24.2434 132.656 22.6813 133.248C21.1191 133.839 19.8554 135.026 19.1668 136.548Z" fill="url(#paint9_linear)"/>
<defs>
<linearGradient id="paint0_linear" x1="28067.7" y1="4889.86" x2="26460.3" y2="3826.49" gradientUnits="userSpaceOnUse">
<stop stop-color="#FF059D"/>
<stop offset="0.45" stop-color="#FF9841"/>
<stop offset="1" stop-color="#FFF904"/>
</linearGradient>
<linearGradient id="paint1_linear" x1="27987.5" y1="6563.16" x2="28491.3" y2="6563.16" gradientUnits="userSpaceOnUse">
<stop stop-color="#E3F24C"/>
<stop offset="0.2" stop-color="#CAED62"/>
<stop offset="1" stop-color="#64D8BC"/>
</linearGradient>
<linearGradient id="paint2_linear" x1="29582.9" y1="11745.3" x2="26531.6" y2="10551.3" gradientUnits="userSpaceOnUse">
<stop stop-color="#1A58FF"/>
<stop offset="0.05" stop-color="#1963FF"/>
<stop offset="0.23" stop-color="#1685FF"/>
<stop offset="0.42" stop-color="#13A0FF"/>
<stop offset="0.6" stop-color="#11B3FF"/>
<stop offset="0.8" stop-color="#10BEFF"/>
<stop offset="1" stop-color="#10C2FF"/>
</linearGradient>
<linearGradient id="paint3_linear" x1="30226.6" y1="16134.8" x2="23128.5" y2="12678.9" gradientUnits="userSpaceOnUse">
<stop stop-color="#FF059D"/>
<stop offset="0.45" stop-color="#FF9841"/>
<stop offset="1" stop-color="#FFF904"/>
</linearGradient>
<linearGradient id="paint4_linear" x1="187214" y1="988.31" x2="212346" y2="988.31" gradientUnits="userSpaceOnUse">
<stop stop-color="#E3F24C"/>
<stop offset="0.2" stop-color="#CAED62"/>
<stop offset="1" stop-color="#64D8BC"/>
</linearGradient>
<linearGradient id="paint5_linear" x1="153950" y1="7398.26" x2="170580" y2="7398.26" gradientUnits="userSpaceOnUse">
<stop stop-color="#FF059D"/>
<stop offset="0.05" stop-color="#1963FF"/>
<stop offset="0.23" stop-color="#1685FF"/>
<stop offset="0.42" stop-color="#13A0FF"/>
<stop offset="0.6" stop-color="#11B3FF"/>
<stop offset="0.8" stop-color="#10BEFF"/>
<stop offset="1" stop-color="#10C2FF"/>
</linearGradient>
<linearGradient id="paint6_linear" x1="30346" y1="671.64" x2="28992.4" y2="2326.19" gradientUnits="userSpaceOnUse">
<stop stop-color="#FF059D"/>
<stop offset="0.45" stop-color="#FF9841"/>
<stop offset="1" stop-color="#FFF904"/>
</linearGradient>
<linearGradient id="paint7_linear" x1="30889.3" y1="1035.43" x2="29531.4" y2="2695.29" gradientUnits="userSpaceOnUse">
<stop stop-color="#FF059D"/>
<stop offset="0.45" stop-color="#FF9841"/>
<stop offset="1" stop-color="#FFF904"/>
</linearGradient>
<linearGradient id="paint8_linear" x1="36452.2" y1="1003.19" x2="34832.7" y2="2978.65" gradientUnits="userSpaceOnUse">
<stop stop-color="#FF059D"/>
<stop offset="0.45" stop-color="#FF9841"/>
<stop offset="1" stop-color="#FFF904"/>
</linearGradient>
<linearGradient id="paint9_linear" x1="25760.4" y1="2909.83" x2="26235.8" y2="2909.83" gradientUnits="userSpaceOnUse">
<stop stop-color="#E3F24C"/>
<stop offset="0.2" stop-color="#CAED62"/>
<stop offset="1" stop-color="#64D8BC"/>
</linearGradient>
</defs>
</svg>
