<svg width="200" height="200" viewBox="0 0 200 200" fill="none" xmlns="http://www.w3.org/2000/svg">
<path d="M104.796 75.2713H69.4604C68.8967 75.2713 68.3561 75.0474 67.9575 74.6488C67.5589 74.2502 67.335 73.7096 67.335 73.1459C67.335 72.5822 67.5589 72.0416 67.9575 71.643C68.3561 71.2444 68.8967 71.0205 69.4604 71.0205H104.796C105.36 71.0205 105.901 71.2444 106.299 71.643C106.698 72.0416 106.922 72.5822 106.922 73.1459C106.922 73.7096 106.698 74.2502 106.299 74.6488C105.901 75.0474 105.36 75.2713 104.796 75.2713Z" fill="#BFEB6B"/>
<path d="M82.9025 111.937H69.4706C69.1801 111.957 68.8886 111.917 68.6143 111.819C68.34 111.721 68.0886 111.568 67.8759 111.37C67.6631 111.171 67.4934 110.93 67.3775 110.663C67.2615 110.396 67.2017 110.108 67.2017 109.817C67.2017 109.526 67.2615 109.238 67.3775 108.97C67.4934 108.703 67.6631 108.463 67.8759 108.264C68.0886 108.065 68.34 107.912 68.6143 107.814C68.8886 107.717 69.1801 107.677 69.4706 107.696H82.9025C83.193 107.677 83.4844 107.717 83.7588 107.814C84.0331 107.912 84.2844 108.065 84.4972 108.264C84.7099 108.463 84.8796 108.703 84.9956 108.97C85.1116 109.238 85.1714 109.526 85.1714 109.817C85.1714 110.108 85.1116 110.396 84.9956 110.663C84.8796 110.93 84.7099 111.171 84.4972 111.37C84.2844 111.568 84.0331 111.721 83.7588 111.819C83.4844 111.917 83.193 111.957 82.9025 111.937V111.937Z" fill="#BFEB6B"/>
<path d="M124.43 143.672L86.0273 126.407L87.7743 122.535L124.459 139.033L161.319 123.049L163.008 126.95L124.43 143.672Z" fill="url(#paint0_linear)"/>
<path d="M44.9558 169.41C43.3685 169.408 41.8469 168.776 40.7244 167.653C39.602 166.531 38.9703 165.009 38.9678 163.422V158.23C38.9678 157.666 39.1917 157.126 39.5903 156.727C39.9889 156.328 40.5294 156.104 41.0931 156.104H48.8572C49.4192 156.107 49.9573 156.332 50.3538 156.73C50.7503 157.129 50.9729 157.668 50.9729 158.23V163.422C50.9729 164.211 50.8171 164.992 50.5143 165.72C50.2116 166.449 49.7679 167.11 49.2088 167.667C48.6496 168.223 47.9861 168.663 47.2563 168.963C46.5264 169.262 45.7446 169.414 44.9558 169.41V169.41ZM43.2186 160.346V163.422C43.2186 163.883 43.4016 164.325 43.7274 164.65C44.0532 164.976 44.4951 165.159 44.9558 165.159C45.4166 165.159 45.8583 164.976 46.1841 164.65C46.5099 164.325 46.693 163.883 46.693 163.422V160.346H43.2186Z" fill="#BFEB6B"/>
<path d="M131.806 62.7426H38.958V49.437H131.797L131.806 62.7426ZM43.2185 58.5015H127.555V53.649H43.2185V58.5015Z" fill="url(#paint1_linear)"/>
<path d="M81.01 98.2235H38.9678V84.9082H80.6315V89.1493H43.2186V93.9727H81.01V98.2235Z" fill="url(#paint2_linear)"/>
<path d="M80.6311 89.1889H30V58.4434H140.773V69.8565H136.523V62.6942H34.2508V84.9381H80.6311V89.1889Z" fill="url(#paint3_linear)"/>
<path d="M89.3467 133.909H38.9678V120.584H86.0178V124.835H43.2186V129.658H89.3467V133.909Z" fill="url(#paint4_linear)"/>
<path d="M105.631 160.394H41.5199C38.4645 160.389 35.5358 159.173 33.3763 157.011C31.2167 154.85 30.0026 151.92 30 148.865V129.62H89.3464V133.861H34.2508V148.826C34.2508 150.756 35.016 152.607 36.3787 153.973C37.7413 155.339 39.5902 156.109 41.5199 156.114H105.631V160.394Z" fill="url(#paint5_linear)"/>
<path d="M86.0175 124.835H30V94.1084H80.9223V98.3592H34.2508V120.584H86.0175V124.835Z" fill="url(#paint6_linear)"/>
<path d="M50.9533 73.8158C50.9533 73.1459 50.7547 72.491 50.3826 71.934C50.0104 71.377 49.4814 70.9429 48.8625 70.6865C48.2436 70.4302 47.5625 70.3631 46.9055 70.4938C46.2484 70.6245 45.645 70.9471 45.1713 71.4208C44.6976 71.8944 44.375 72.498 44.2443 73.155C44.1136 73.812 44.1807 74.493 44.437 75.112C44.6934 75.7309 45.1275 76.2598 45.6845 76.632C46.2415 77.0042 46.8964 77.2028 47.5663 77.2028C48.4646 77.2028 49.3261 76.846 49.9613 76.2108C50.5965 75.5756 50.9533 74.7141 50.9533 73.8158Z" fill="#70DBB1"/>
<path d="M50.9533 109.472C50.9533 108.802 50.7547 108.147 50.3826 107.59C50.0104 107.033 49.4814 106.599 48.8625 106.342C48.2436 106.086 47.5625 106.019 46.9055 106.15C46.2484 106.28 45.645 106.603 45.1713 107.077C44.6976 107.55 44.375 108.154 44.2443 108.811C44.1136 109.468 44.1807 110.149 44.437 110.768C44.6934 111.387 45.1275 111.916 45.6845 112.288C46.2415 112.66 46.8964 112.859 47.5663 112.859C48.4646 112.859 49.3261 112.502 49.9613 111.867C50.5965 111.231 50.9533 110.37 50.9533 109.472Z" fill="#70DBB1"/>
<path d="M50.9533 145.022C50.9533 144.352 50.7547 143.697 50.3826 143.14C50.0104 142.583 49.4814 142.149 48.8625 141.893C48.2436 141.636 47.5625 141.569 46.9055 141.7C46.2484 141.831 45.645 142.153 45.1713 142.627C44.6976 143.101 44.375 143.704 44.2443 144.361C44.1136 145.018 44.1807 145.699 44.437 146.318C44.6934 146.937 45.1275 147.466 45.6845 147.838C46.2415 148.21 46.8964 148.409 47.5663 148.409C48.4646 148.409 49.3261 148.052 49.9613 147.417C50.5965 146.782 50.9533 145.92 50.9533 145.022Z" fill="#70DBB1"/>
<path d="M50.9533 39.0911C50.9552 38.4208 50.7583 37.765 50.3873 37.2067C50.0163 36.6484 49.4879 36.2128 48.8692 35.955C48.2505 35.6971 47.5691 35.6286 46.9115 35.7582C46.2538 35.8878 45.6494 36.2097 45.1747 36.683C44.7001 37.1563 44.3764 37.7598 44.245 38.417C44.1135 39.0743 44.1801 39.7558 44.4362 40.3753C44.6922 40.9948 45.1263 41.5244 45.6835 41.897C46.2408 42.2696 46.896 42.4685 47.5663 42.4685C48.4629 42.4685 49.3229 42.1129 49.9578 41.4798C50.5927 40.8467 50.9507 39.9877 50.9533 39.0911V39.0911Z" fill="#70DBB1"/>
<path d="M140.773 53.6874H30V34.5102C30.0051 31.4574 31.2207 28.5313 33.3803 26.3735C35.5399 24.2158 38.4671 23.0026 41.5199 23H129.215C130.73 22.9962 132.23 23.291 133.631 23.8675C135.032 24.4439 136.306 25.2909 137.379 26.3598C138.453 27.4288 139.305 28.6988 139.887 30.0973C140.47 31.4958 140.771 32.9953 140.773 34.5102V53.6874ZM34.2508 49.4366H136.523V34.5102C136.52 32.5831 135.753 30.7357 134.391 29.373C133.028 28.0104 131.181 27.2437 129.254 27.2411H41.5199C39.5928 27.2437 37.7453 28.0104 36.3827 29.373C35.02 30.7357 34.2534 32.5831 34.2508 34.5102V49.4366Z" fill="url(#paint7_linear)"/>
<path d="M138.764 97.6906H134.523V92.0519C134.443 89.4636 133.358 87.0083 131.498 85.206C129.639 83.4037 127.151 82.3958 124.561 82.3958C121.971 82.3958 119.484 83.4037 117.624 85.206C115.765 87.0083 114.68 89.4636 114.599 92.0519V97.6906H110.348V92.0519C110.348 88.2837 111.845 84.6698 114.51 82.0052C117.174 79.3407 120.788 77.8438 124.556 77.8438C128.324 77.8438 131.938 79.3407 134.603 82.0052C137.267 84.6698 138.764 88.2837 138.764 92.0519V97.6906Z" fill="url(#paint8_linear)"/>
<path d="M128.245 108.977C128.246 109.609 128.085 110.231 127.777 110.783C127.47 111.335 127.026 111.799 126.488 112.131V114.615C126.49 114.876 126.439 115.133 126.339 115.373C126.239 115.613 126.091 115.831 125.906 116.013C125.535 116.377 125.037 116.582 124.518 116.586C124.003 116.586 123.509 116.381 123.145 116.017C122.781 115.653 122.577 115.159 122.577 114.645V112.15C122.026 111.807 121.574 111.326 121.267 110.755C120.959 110.184 120.805 109.542 120.821 108.894C120.838 108.245 121.023 107.612 121.359 107.057C121.695 106.502 122.17 106.044 122.738 105.729C123.305 105.414 123.945 105.252 124.593 105.261C125.242 105.269 125.878 105.446 126.437 105.775C126.996 106.104 127.46 106.574 127.782 107.137C128.104 107.7 128.274 108.338 128.274 108.987L128.245 108.977Z" fill="#87DF9D"/>
<path d="M134.068 126.815H115.085C112.604 126.812 110.226 125.826 108.472 124.072C106.718 122.318 105.732 119.94 105.729 117.459V95.5645H143.423V117.459C143.421 119.94 142.434 122.318 140.68 124.072C138.926 125.826 136.548 126.812 134.068 126.815ZM109.98 99.8153V117.459C109.98 118.814 110.517 120.113 111.474 121.072C112.431 122.031 113.73 122.571 115.085 122.574H134.068C135.422 122.571 136.721 122.031 137.678 121.072C138.635 120.113 139.173 118.814 139.173 117.459V99.8153H109.98Z" fill="url(#paint9_linear)"/>
<path d="M126.303 159.337C126.313 158.951 126.207 158.571 126 158.245C125.793 157.92 125.493 157.664 125.139 157.509C124.786 157.355 124.394 157.309 124.014 157.379C123.635 157.448 123.284 157.629 123.008 157.898C122.732 158.168 122.542 158.514 122.463 158.891C122.384 159.269 122.419 159.662 122.565 160.019C122.71 160.377 122.959 160.683 123.279 160.898C123.599 161.114 123.976 161.229 124.362 161.229C124.615 161.236 124.866 161.191 125.101 161.099C125.337 161.007 125.551 160.869 125.732 160.692C125.913 160.516 126.057 160.305 126.155 160.072C126.253 159.839 126.303 159.589 126.303 159.337V159.337Z" fill="#FFF009"/>
<path d="M158.446 96.4675C158.437 96.0954 158.318 95.7344 158.104 95.4296C157.891 95.1249 157.592 94.8899 157.245 94.754C156.899 94.6182 156.52 94.5876 156.156 94.666C155.792 94.7444 155.459 94.9284 155.2 95.1949C154.94 95.4614 154.764 95.7986 154.695 96.1643C154.626 96.53 154.666 96.908 154.811 97.251C154.955 97.594 155.198 97.8867 155.508 98.0926C155.818 98.2985 156.182 98.4084 156.554 98.4085C156.807 98.4086 157.057 98.3581 157.29 98.2599C157.522 98.1618 157.733 98.0181 157.91 97.8372C158.086 97.6562 158.224 97.4419 158.317 97.2066C158.409 96.9714 158.453 96.7201 158.446 96.4675Z" fill="#FFF009"/>
<path d="M94.8297 96.4674C94.8297 96.0835 94.7159 95.7082 94.5026 95.389C94.2894 95.0698 93.9862 94.821 93.6315 94.6741C93.2769 94.5272 92.8866 94.4888 92.5101 94.5637C92.1336 94.6386 91.7877 94.8234 91.5162 95.0949C91.2448 95.3663 91.0599 95.7122 90.985 96.0887C90.9101 96.4652 90.9487 96.8555 91.0956 97.2102C91.2425 97.5649 91.4912 97.868 91.8104 98.0813C92.1296 98.2945 92.5048 98.4084 92.8887 98.4084C93.4035 98.4084 93.8973 98.2039 94.2613 97.8399C94.6253 97.4759 94.8297 96.9822 94.8297 96.4674Z" fill="#FFF009"/>
<path d="M119.694 40.6629H69.4701C68.9064 40.6629 68.3659 40.439 67.9673 40.0404C67.5687 39.6418 67.3447 39.1012 67.3447 38.5375C67.3447 37.9738 67.5687 37.4332 67.9673 37.0346C68.3659 36.636 68.9064 36.4121 69.4701 36.4121H119.694C120.257 36.4121 120.798 36.636 121.197 37.0346C121.595 37.4332 121.819 37.9738 121.819 38.5375C121.819 39.1012 121.595 39.6418 121.197 40.0404C120.798 40.439 120.257 40.6629 119.694 40.6629V40.6629Z" fill="#BFEB6B"/>
<path d="M96.7897 147.641H69.4604C68.8967 147.641 68.3561 147.418 67.9575 147.019C67.5589 146.62 67.335 146.08 67.335 145.516C67.335 144.952 67.5589 144.412 67.9575 144.013C68.3561 143.615 68.8967 143.391 69.4604 143.391H96.7897C97.3534 143.391 97.8941 143.615 98.2927 144.013C98.6912 144.412 98.9152 144.952 98.9152 145.516C98.9152 146.08 98.6912 146.62 98.2927 147.019C97.8941 147.418 97.3534 147.641 96.7897 147.641V147.641Z" fill="#BFEB6B"/>
<path d="M124.683 176L123.625 175.418C101.604 163.383 78.0886 130.192 78.506 85.743V83.802L80.447 83.6661C80.5731 83.6661 92.9859 82.6956 98.9836 75.708C104.981 68.7204 114.289 64.5957 124.411 64.5957H125.44C135.048 64.5957 144.384 69.1377 151.051 77.0473C155.05 81.793 161.727 84.3164 168.452 83.6467L170.762 83.4235V85.743C171.073 118.109 158.844 140.742 148.528 154.018C137.328 168.43 126.206 175.107 125.702 175.369L124.683 176ZM82.7568 87.684C83.0091 128.698 104.253 159.336 124.566 171.147C131.01 166.829 166.075 140.916 166.54 88.0722H166.327C162.83 88.1174 159.365 87.4062 156.169 85.9874C152.973 84.5686 150.122 82.4757 147.81 79.852C141.987 72.9032 133.796 68.9145 125.44 68.9145H124.411C115.54 68.9145 107.456 72.4083 102.254 78.5127C96.6155 85.0539 86.9202 87.0823 82.7568 87.6646V87.684Z" fill="url(#paint10_linear)"/>
<defs>
<linearGradient id="paint0_linear" x1="87728.2" y1="7089.27" x2="93833.5" y2="7089.27" gradientUnits="userSpaceOnUse">
<stop stop-color="#FF059D"/>
<stop offset="1" stop-color="#FFF904"/>
</linearGradient>
<linearGradient id="paint1_linear" x1="101244" y1="3379.03" x2="110126" y2="3379.03" gradientUnits="userSpaceOnUse">
<stop stop-color="#4DACFB"/>
<stop offset="1" stop-color="#05FBD3"/>
</linearGradient>
<linearGradient id="paint2_linear" x1="45865.4" y1="3903.61" x2="47686.7" y2="3903.61" gradientUnits="userSpaceOnUse">
<stop stop-color="#4DACFB"/>
<stop offset="1" stop-color="#05FBD3"/>
</linearGradient>
<linearGradient id="paint3_linear" x1="119751" y1="8313.63" x2="132394" y2="8313.63" gradientUnits="userSpaceOnUse">
<stop stop-color="#4DACFB"/>
<stop offset="1" stop-color="#05FBD3"/>
</linearGradient>
<linearGradient id="paint4_linear" x1="54952.5" y1="4431.9" x2="57567.7" y2="4431.9" gradientUnits="userSpaceOnUse">
<stop stop-color="#4DACFB"/>
<stop offset="1" stop-color="#05FBD3"/>
</linearGradient>
<linearGradient id="paint5_linear" x1="81770.1" y1="10650.9" x2="87664.1" y2="10650.9" gradientUnits="userSpaceOnUse">
<stop stop-color="#4DACFB"/>
<stop offset="1" stop-color="#05FBD3"/>
</linearGradient>
<linearGradient id="paint6_linear" x1="60572" y1="9472.97" x2="63805.4" y2="9472.97" gradientUnits="userSpaceOnUse">
<stop stop-color="#4DACFB"/>
<stop offset="1" stop-color="#05FBD3"/>
</linearGradient>
<linearGradient id="paint7_linear" x1="119751" y1="7140.02" x2="132394" y2="7140.02" gradientUnits="userSpaceOnUse">
<stop stop-color="#4DACFB"/>
<stop offset="1" stop-color="#05FBD3"/>
</linearGradient>
<linearGradient id="paint8_linear" x1="33174.4" y1="5692.11" x2="34006.4" y2="5692.11" gradientUnits="userSpaceOnUse">
<stop stop-color="#E3F24C"/>
<stop offset="1" stop-color="#64D8BC"/>
</linearGradient>
<linearGradient id="paint9_linear" x1="43785.2" y1="9689.7" x2="45249.3" y2="9689.7" gradientUnits="userSpaceOnUse">
<stop stop-color="#E3F24C"/>
<stop offset="1" stop-color="#64D8BC"/>
</linearGradient>
<linearGradient id="paint10_linear" x1="104410" y1="35311.8" x2="113184" y2="35311.8" gradientUnits="userSpaceOnUse">
<stop stop-color="#FF059D"/>
<stop offset="1" stop-color="#FFF904"/>
</linearGradient>
</defs>
</svg>
