<svg width="145" height="156" viewBox="0 0 145 156" fill="none" xmlns="http://www.w3.org/2000/svg">
<path opacity="0.2" d="M117.565 93.8299C117.565 94.5514 117.063 95.3331 116.02 95.8994L101.185 110.035C99.3086 111.117 96.4741 111.237 94.8487 110.3L67.8633 94.6316C67.5341 94.4854 67.2555 94.2451 67.0627 93.941C66.8699 93.637 66.7714 93.2828 66.7797 92.9229C66.7766 92.9613 66.7766 92.9998 66.7797 93.0382V95.0726C66.8071 95.4059 66.9229 95.7259 67.1151 95.9998C67.3073 96.2737 67.569 96.4915 67.8734 96.6309L94.8587 112.28C96.4842 113.217 99.3186 113.101 101.195 112.019L116.03 97.8836C117.068 97.2823 117.595 96.5107 117.58 95.7841C117.565 95.6739 117.59 94.331 117.565 93.8299Z" fill="url(#paint0_linear)"/>
<g opacity="0.2">
<path opacity="0.09" d="M67.2896 88.0583L90.9688 78.9587C92.405 78.1667 94.0243 77.7658 95.6645 77.7962C96.3565 77.8006 97.0454 77.8881 97.7164 78.0567C98.3439 78.2206 98.9476 78.4648 99.5124 78.7833L117.021 89.0303C117.021 89.0303 117.523 89.326 117.523 89.341C118.146 89.6822 118.659 90.1929 119.002 90.8138C119.346 91.4347 119.506 92.1403 119.464 92.8486C119.389 94.2816 118.31 95.855 116.755 96.767L102.206 110.647C100.8 111.429 99.2152 111.833 97.606 111.819C96.2828 111.851 94.9741 111.538 93.8083 110.912L66.833 95.2738C66.2063 94.9542 65.678 94.4709 65.3043 93.8754C64.9306 93.2798 64.7256 92.5942 64.7109 91.8915C64.716 90.3983 65.6541 89.0003 67.2896 88.0583Z" fill="black"/>
<path opacity="0.18" d="M67.3957 88.2328L91.0699 79.1382C92.4994 78.3509 94.1138 77.9599 95.7456 78.0058C96.4235 78.0239 97.0971 78.1214 97.7523 78.2964C98.3698 78.4798 98.9653 78.7301 99.5282 79.043L116.942 89.2349L117.443 89.5456C118.041 89.8954 118.519 90.4176 118.814 91.0435C119.11 91.6695 119.209 92.37 119.099 93.0532C118.958 94.3309 117.764 96.0596 116.37 96.8564L102.072 110.486C100.69 111.248 99.1349 111.641 97.5566 111.628C96.2668 111.66 94.9907 111.356 93.8542 110.746L66.8739 95.0976C66.2789 94.7921 65.778 94.3311 65.4246 93.7637C65.0712 93.1963 64.8785 92.5438 64.8672 91.8756C64.9274 90.4626 65.8254 89.1197 67.3957 88.2328Z" fill="black"/>
<path opacity="0.27" d="M67.4957 88.4132L91.1749 79.3136C92.5989 78.5341 94.2079 78.1549 95.8305 78.2162C96.5102 78.2432 97.184 78.3525 97.8372 78.5419C98.4458 78.7387 99.0338 78.9937 99.5931 79.3036L116.911 89.4404C116.961 89.4705 117.388 89.721 117.413 89.7561C118.742 90.6079 119.013 91.8756 118.782 93.2636C118.592 94.3961 117.277 96.245 116.028 96.9616L101.981 110.33C100.643 111.072 99.1366 111.457 97.6065 111.448C96.3505 111.481 95.1074 111.188 93.9994 110.596L67.0141 94.9422C66.4454 94.6564 65.966 94.2204 65.6281 93.6815C65.2903 93.1426 65.1068 92.5215 65.0977 91.8857C65.1278 90.5327 65.9957 89.275 67.4957 88.4132Z" fill="black"/>
<path opacity="0.36" d="M67.601 88.588L91.2803 79.4934C92.6948 78.7155 94.298 78.346 95.9108 78.4261C96.5916 78.463 97.2655 78.5825 97.9175 78.7819C98.515 78.9963 99.0939 79.2594 99.6483 79.5686L116.871 89.6453C116.936 89.6853 117.327 89.9208 117.373 89.9609C118.672 90.8328 119.063 92.1657 118.456 93.4284C118.456 94.4306 116.761 96.3848 115.677 97.0111L101.916 110.129C100.609 110.846 99.1421 111.22 97.6516 111.217C96.4289 111.251 95.2184 110.966 94.1398 110.39L67.1344 94.7412C66.5946 94.4716 66.1396 94.0587 65.8192 93.5478C65.4989 93.0369 65.3256 92.4478 65.3184 91.845C65.3585 90.6224 66.1662 89.4148 67.601 88.588Z" fill="black"/>
<path opacity="0.45" d="M67.7016 88.7693L91.3808 79.6697C92.7903 78.9006 94.388 78.5429 95.9913 78.6375C96.6615 78.6871 97.3234 78.8166 97.9629 79.0233C98.5501 79.2548 99.1215 79.5242 99.6736 79.83L116.801 89.8516C116.886 89.9017 117.242 90.1172 117.303 90.1723C118.572 91.0542 118.858 92.3971 118.1 93.6147C118.1 94.4766 116.224 96.551 115.296 97.0872L101.801 109.95C100.53 110.65 99.1026 111.015 97.6518 111.012C96.4598 111.048 95.279 110.773 94.2254 110.215L67.24 94.5617C66.7293 94.3098 66.2988 93.921 65.9967 93.4387C65.6946 92.9564 65.5328 92.3997 65.5293 91.8309C65.5694 90.6684 66.342 89.556 67.7016 88.7693Z" fill="black"/>
<path opacity="0.55" d="M67.808 88.9494L91.4873 79.8498C92.8908 79.0866 94.4832 78.739 96.0776 78.8477C96.7431 78.9063 97.3987 79.0477 98.0292 79.2686C98.6058 79.5112 99.1686 79.7855 99.7148 80.0904L116.747 90.0568C116.92 90.1565 117.087 90.2652 117.249 90.3825C117.531 90.554 117.772 90.7858 117.955 91.0612C118.138 91.3366 118.257 91.6489 118.305 91.9758C118.353 92.3027 118.328 92.6361 118.232 92.9523C118.136 93.2685 117.972 93.5596 117.75 93.8049C117.75 94.5214 115.698 96.7211 114.926 97.1671L101.701 109.774C100.471 110.448 99.0912 110.803 97.688 110.806C96.5295 110.841 95.3818 110.575 94.3569 110.035L67.3515 94.3811C66.8691 94.1479 66.4625 93.7834 66.1785 93.3295C65.8944 92.8756 65.7446 92.3508 65.7461 91.8156C65.7862 90.7333 66.5137 89.691 67.808 88.9494Z" fill="black"/>
<path opacity="0.64" d="M67.9086 89.1205L91.5879 80.0209C92.9854 79.2634 94.5731 78.9275 96.1582 79.0538C96.8183 79.1231 97.4672 79.2746 98.0896 79.5048C98.3254 79.5849 99.5646 80.2364 99.7602 80.3516L116.692 90.2579C116.865 90.3574 117.032 90.4662 117.194 90.5836C118.403 91.4906 118.478 92.8535 117.414 93.9859C117.414 94.5622 115.187 96.8822 114.565 97.238L101.606 109.59C100.404 110.247 99.0544 110.592 97.6833 110.592C96.5577 110.631 95.4416 110.374 94.4474 109.845L67.4621 94.1964C67.0089 93.979 66.6269 93.6376 66.3604 93.2118C66.094 92.786 65.9541 92.2933 65.9571 91.7912C65.9972 90.8041 66.6845 89.832 67.9086 89.1205Z" fill="black"/>
<path opacity="0.73" d="M68.0136 89.3061L91.718 80.2065C93.1076 79.454 94.6888 79.128 96.2632 79.2695C96.9192 79.3541 97.5615 79.5225 98.1746 79.7706C98.3552 79.8307 99.6796 80.5523 99.8251 80.6375L116.661 90.4937C116.836 90.5899 117.004 90.6987 117.163 90.8194C118.342 91.7363 118.312 93.1093 117.098 94.2017C117.098 94.6326 114.69 97.0728 114.223 97.3434L101.536 109.439C100.366 110.078 99.0557 110.414 97.7231 110.417C96.63 110.455 95.5459 110.208 94.5775 109.7L67.5972 94.0463C67.173 93.8469 66.8153 93.5296 66.5671 93.1323C66.3188 92.735 66.1905 92.2747 66.1975 91.8065C66.2126 90.8695 66.8547 89.9675 68.0136 89.3061Z" fill="black"/>
<path opacity="0.82" d="M68.1385 89.4803L91.8178 80.3858C93.1971 79.6365 94.7708 79.3204 96.3329 79.4788C96.984 79.5634 97.6214 79.7318 98.2292 79.9799C98.3446 80.02 99.7343 80.8067 99.8547 80.8618L116.596 90.6629C116.772 90.7576 116.939 90.8665 117.097 90.9886C118.246 91.9206 118.101 93.3036 116.746 94.3508C116.746 94.6414 114.158 97.2019 113.846 97.3573L101.425 109.198C100.292 109.818 99.0201 110.144 97.7276 110.145C96.668 110.188 95.6158 109.951 94.6773 109.458L67.6368 93.8497C67.2415 93.667 66.9083 93.3728 66.6783 93.0033C66.4483 92.6338 66.3316 92.2052 66.3425 91.7702C66.4228 90.9385 67.0298 90.1217 68.1385 89.4803Z" fill="black"/>
<path opacity="0.91" d="M68.2196 89.6617L91.8989 80.5621C93.2788 79.8159 94.855 79.5115 96.414 79.6903C97.0587 79.7909 97.6877 79.9745 98.2852 80.2365C98.3454 80.2365 99.8404 81.1133 99.8906 81.1434L116.536 90.8844C116.706 90.9787 116.865 91.0895 117.013 91.2151C118.132 92.1621 117.891 93.5501 116.376 94.5573C115.454 95.5829 114.478 96.5581 113.451 97.4785L101.3 109.058C100.203 109.661 98.9708 109.978 97.7183 109.98C96.6896 110.025 95.6672 109.798 94.7534 109.324L67.7731 93.6703C66.9152 93.1693 66.5139 92.4828 66.5791 91.7562C66.6443 91.0297 67.2012 90.248 68.2196 89.6617Z" fill="black"/>
<path opacity="0.2" d="M94.8475 109.164L67.8621 93.5149C66.2417 92.5779 66.4424 90.9394 68.3187 89.8571L91.9979 80.7625C93.8742 79.6802 96.7137 79.5599 98.3392 80.4969L116.47 91.1097C118.095 92.0468 117.895 93.6853 116.018 94.7626L101.184 108.903C99.3074 109.965 96.4729 110.081 94.8475 109.164Z" fill="black"/>
</g>
<path d="M94.8466 109.107L67.8612 93.4536C67.5569 93.3142 67.2951 93.0964 67.1029 92.8225C66.9107 92.5486 66.795 92.2286 66.7676 91.8953V89.8609C66.7676 89.1494 67.3044 90.362 68.3178 89.8008L91.997 80.7012C93.8733 79.6189 96.7128 79.5036 98.3382 80.4406L116.469 91.0485C117.011 91.3641 117.407 90.0463 117.548 90.4572C117.593 90.5975 117.548 92.4615 117.548 92.6068C117.548 93.3334 117.046 94.11 115.997 94.7063L101.163 108.842C99.3065 109.924 96.472 110.044 94.8466 109.107Z" fill="url(#paint1_linear)"/>
<path d="M94.8475 107.109L67.8621 91.455C66.2417 90.518 66.4424 88.8845 68.3187 87.8022L91.9979 78.7026C93.8742 77.6203 96.7137 77.505 98.3392 78.442L116.47 89.0549C118.095 89.9919 117.895 91.6254 116.018 92.7077L101.184 106.848C99.3074 107.93 96.4729 108.046 94.8475 107.109Z" fill="url(#paint2_linear)"/>
<path style="mix-blend-mode:multiply" opacity="0.82" d="M116.47 89.0549L98.3395 78.442C96.7141 77.505 93.8746 77.6203 91.9983 78.7026L80.0684 83.2875C80.1855 83.3818 80.3096 83.4672 80.4396 83.543L107.42 99.1967C107.824 99.4185 108.258 99.5789 108.709 99.6727L116.019 92.7077C117.895 91.6254 118.096 89.9919 116.47 89.0549Z" fill="url(#paint3_linear)"/>
<path style="mix-blend-mode:screen" opacity="0.6" d="M116.018 92.3665L101.183 106.507C99.3068 107.589 96.4724 107.705 94.8469 106.767L67.8616 91.1238C67.5788 90.9884 67.3327 90.7871 67.1442 90.5368C66.9556 90.2865 66.83 89.9946 66.778 89.6857C66.6927 90.3472 67.0489 90.9935 67.8616 91.4595L94.8469 107.113C96.4724 108.05 99.3068 107.935 101.183 106.853L116.018 92.7122C117.111 92.0809 117.633 91.2591 117.553 90.4975C117.473 91.1489 116.951 91.8303 116.018 92.3665Z" fill="url(#paint4_radial)"/>
<path d="M130.097 107.194L63.8348 68.952C60.4434 66.9978 57.6992 61.7565 57.6992 57.2468V6.63786C57.6992 2.12816 60.4434 0.0536923 63.8348 2.0079L130.097 40.2402C133.488 42.1944 136.232 47.4357 136.232 51.9454V102.554C136.232 107.074 133.488 109.164 130.097 107.194Z" fill="url(#paint5_linear)"/>
<path d="M130.888 103.651L65.5543 65.9751C62.8302 64.2414 61.1445 60.784 61.1445 57.2463V6.29669C61.1436 6.10525 61.1934 5.91697 61.2891 5.75106C61.3847 5.58515 61.5227 5.44755 61.689 5.35229C61.8552 5.25704 62.0438 5.20753 62.2355 5.20883C62.4272 5.21012 62.6151 5.26217 62.78 5.35967L62.9707 5.46991L128.375 43.2161C131.62 45.0852 132.784 48.4073 132.784 51.9449V102.734C132.782 102.938 132.726 103.138 132.622 103.314C132.518 103.489 132.37 103.635 132.193 103.736C132.016 103.837 131.815 103.891 131.611 103.891C131.407 103.891 131.206 103.838 131.028 103.736L130.888 103.651Z" fill="url(#paint6_linear)"/>
<g style="mix-blend-mode:multiply">
<path d="M128.375 43.2161L62.9707 5.46991L62.78 5.35967C62.6151 5.26217 62.4272 5.21012 62.2355 5.20883C62.0438 5.20753 61.8552 5.25704 61.689 5.35229C61.5227 5.44755 61.3847 5.58515 61.2891 5.75106C61.1934 5.91697 61.1436 6.10525 61.1445 6.29669V57.2463C61.1445 60.784 62.8302 64.2614 65.5543 65.9751L130.888 103.651L131.028 103.731C131.206 103.833 131.407 103.886 131.611 103.886C131.815 103.886 132.016 103.832 132.193 103.731C132.37 103.63 132.518 103.484 132.622 103.309C132.726 103.133 132.782 102.933 132.784 102.729V51.9449C132.784 48.4073 131.62 45.0852 128.375 43.2161ZM132.097 102.734C132.097 102.867 132.044 102.995 131.95 103.089C131.856 103.183 131.728 103.235 131.595 103.235C131.507 103.231 131.421 103.202 131.35 103.15L65.8804 65.3738C63.4172 63.8105 61.8118 60.6136 61.8118 57.2413V6.29669C61.8118 6.19037 61.8541 6.08841 61.9293 6.01324C62.0046 5.93806 62.1067 5.89583 62.2131 5.89583C62.2836 5.89694 62.3527 5.9159 62.4138 5.95094L128.008 43.8124C131.37 45.7516 132.077 49.3243 132.077 51.9449L132.097 102.734Z" fill="#BCBEC0"/>
</g>
<path d="M131.852 39.318L65.5701 1.07573C64.2306 0.299056 62.9914 0.158752 61.983 0.549593C61.8526 0.59469 60.1419 1.50665 60.0215 1.55175C61.065 1.05067 62.3944 1.13586 63.8393 1.97266L130.096 40.24C133.487 42.1942 136.232 47.4355 136.232 51.9452V102.554C136.232 105.37 135.163 107.234 133.533 107.765C133.725 107.756 133.91 107.693 134.069 107.585C134.15 107.54 136.006 106.493 136.076 106.442C137.24 105.626 137.962 103.937 137.962 101.632V51.0383C137.967 46.5286 135.223 41.2722 131.852 39.318Z" fill="url(#paint7_linear)"/>
<path style="mix-blend-mode:screen" opacity="0.6" d="M130.393 40.0944L64.126 1.84704C62.7363 1.04531 61.462 0.935076 60.4336 1.37602C61.4705 1.25998 62.5157 1.50417 63.3935 2.06751L129.655 40.3148C133.047 42.264 135.791 47.5053 135.791 52.02V102.649C135.791 105.31 134.833 107.114 133.353 107.75C135.244 107.449 136.528 105.51 136.528 102.429V51.8196C136.528 47.2848 133.779 42.0436 130.393 40.0944Z" fill="url(#paint8_radial)"/>
<g opacity="0.2">
<path opacity="0.09" d="M93.0468 87.6166L95.6856 86.1485C95.796 86.0883 100.748 83.3875 100.838 83.4426L102.539 82.6058C103.435 82.1809 104.422 81.9797 105.413 82.0196C106.24 82.0275 107.051 82.2392 107.776 82.6359L119.696 89.4155L122.204 90.8536L136.653 99.0713C137.111 99.3325 137.495 99.7047 137.771 100.154C137.955 100.475 138.058 100.836 138.072 101.206C138.098 102.158 137.511 103.06 136.457 103.671L133.858 105.154C133.748 105.219 128.796 107.915 128.701 107.865L126.975 108.662C126.081 109.089 125.096 109.291 124.106 109.253C123.279 109.245 122.468 109.034 121.743 108.637L109.823 101.857L107.315 100.419L92.8611 92.1965C92.3926 91.9449 91.9983 91.5752 91.7173 91.1242C91.5337 90.8045 91.4304 90.4452 91.4163 90.0769C91.4012 89.1198 91.9932 88.2279 93.0468 87.6166Z" fill="black"/>
<path opacity="0.18" d="M93.3131 87.8279L95.8817 86.4099C96.0974 86.2846 100.733 83.8493 100.898 83.9596L102.544 83.2781C103.236 82.8773 104.435 82.8522 105.313 82.8522C106.113 82.8892 106.894 83.1086 107.596 83.4936L119.16 90.0828L121.613 91.4758L135.66 99.468C136.101 99.7224 136.478 100.074 136.764 100.495C136.949 100.799 137.061 101.142 137.09 101.497C137.145 102.409 136.588 103.291 135.549 103.893L132.981 105.311C132.765 105.431 128.13 107.866 127.964 107.761L126.314 108.442C125.626 108.843 124.422 108.868 123.544 108.868C122.746 108.832 121.967 108.612 121.267 108.227L109.678 101.648L107.23 100.25L93.1827 92.2625C92.7441 92.0064 92.3687 91.6554 92.084 91.2352C91.8982 90.9313 91.7866 90.588 91.7579 90.2331C91.7178 89.3111 92.2746 88.4292 93.3131 87.8279Z" fill="black"/>
<path opacity="0.27" d="M93.5725 88.0384L96.0809 86.6754C96.402 86.485 100.721 84.3154 101.002 84.4757L102.598 83.9446C103.215 83.5888 104.484 83.684 105.267 83.684C106.036 83.7485 106.784 83.9757 107.459 84.3504L118.677 90.7492L121.055 92.1021L134.66 99.8588C135.083 100.109 135.452 100.441 135.744 100.836C135.935 101.12 136.057 101.444 136.1 101.783C136.18 102.66 135.653 103.522 134.635 104.108L132.127 105.476C131.805 105.661 127.486 107.836 127.205 107.671L125.61 108.202C124.998 108.558 123.723 108.462 122.946 108.462C122.174 108.398 121.425 108.171 120.748 107.796L109.531 101.397L107.153 100.044L93.5524 92.2875C93.1268 92.0392 92.7563 91.7067 92.4638 91.3104C92.2748 91.0258 92.153 90.7019 92.1076 90.3634C92.0273 89.4865 92.5541 88.6196 93.5725 88.0384Z" fill="black"/>
<path opacity="0.36" d="M93.8384 88.2478L96.2615 86.935C96.6929 86.6844 100.696 84.7753 101.068 84.9908L102.613 84.61C103.15 84.2993 104.494 84.5198 105.176 84.5198C105.912 84.6145 106.622 84.8492 107.268 85.2113L118.135 91.4146L120.437 92.7274L133.622 100.244C134.026 100.492 134.388 100.805 134.69 101.171C134.883 101.437 135.013 101.744 135.071 102.068C135.182 102.904 134.685 103.746 133.682 104.322L131.279 105.655C130.847 105.901 126.844 107.815 126.473 107.599L124.927 107.98C124.391 108.286 123.046 108.07 122.364 108.07C121.622 107.978 120.905 107.743 120.252 107.379L109.385 101.146L107.083 99.8327L93.9036 92.3166C93.4953 92.0732 93.1321 91.7613 92.83 91.3946C92.6374 91.1278 92.5071 90.8213 92.4487 90.4976C92.3384 89.6608 92.835 88.824 93.8384 88.2478Z" fill="black"/>
<path opacity="0.45" d="M94.1013 88.4539L96.4592 87.1962C96.996 86.8855 100.683 85.237 101.145 85.5075L102.65 85.277C103.111 85.0115 104.526 85.3522 105.113 85.3522C105.818 85.4745 106.497 85.7168 107.12 86.0688L117.655 92.0817L119.878 93.3494L132.63 100.645C133.024 100.883 133.381 101.176 133.689 101.517C133.885 101.766 134.023 102.055 134.095 102.364C134.236 103.161 133.764 103.982 132.786 104.549L130.428 105.806C129.891 106.117 126.204 107.765 125.737 107.495L124.232 107.725C123.771 107.991 122.356 107.65 121.769 107.65C121.064 107.526 120.386 107.284 119.762 106.934L109.227 100.921L107.015 99.643L94.2568 92.3473C93.8632 92.1098 93.5066 91.8161 93.1983 91.4754C93.0014 91.2268 92.8626 90.9375 92.7919 90.6286C92.6514 89.8419 93.123 89.0201 94.1013 88.4539Z" fill="black"/>
<path opacity="0.55" d="M94.365 88.664L96.6477 87.4564C97.2948 87.0856 100.661 85.7027 101.223 86.0234L102.663 85.9482C103.049 85.7227 104.534 86.1837 105.021 86.1837C105.701 86.3349 106.356 86.5866 106.962 86.9303L117.131 92.7478L119.278 93.9755L131.62 101.036C131.998 101.269 132.348 101.544 132.663 101.857C132.86 102.091 133.007 102.362 133.095 102.654C133.26 103.416 132.824 104.213 131.861 104.764L129.578 105.971C128.931 106.342 125.564 107.73 125.003 107.409L123.563 107.485C123.176 107.705 121.686 107.244 121.2 107.244C120.521 107.095 119.868 106.845 119.263 106.502L109.094 100.685L106.942 99.4523L94.6058 92.3921C94.2267 92.1622 93.8764 91.888 93.5623 91.5753C93.3667 91.3404 93.2185 91.0698 93.1259 90.7786C92.9603 90.0169 93.4018 89.2202 94.365 88.664Z" fill="black"/>
<path opacity="0.64" d="M94.6264 88.8745L96.8388 87.722C97.5913 87.2861 100.647 86.1637 101.299 86.5395L102.688 86.6146C102.994 86.4393 104.555 87.0155 104.946 87.0155C105.594 87.195 106.218 87.4542 106.802 87.7872L116.62 93.4143L118.692 94.6018L130.612 101.432C130.97 101.655 131.306 101.912 131.615 102.198C131.816 102.415 131.973 102.668 132.077 102.945C132.272 103.666 131.861 104.448 130.918 104.984L128.706 106.137C127.953 106.573 124.898 107.695 124.246 107.319L122.856 107.244C122.55 107.419 120.99 106.843 120.598 106.843C119.952 106.664 119.33 106.404 118.747 106.072L108.944 100.444L106.872 99.2569L94.9575 92.4272C94.5912 92.2047 94.2468 91.948 93.9291 91.6605C93.7279 91.4441 93.5711 91.1905 93.4675 90.9139C93.2719 90.1923 93.6833 89.4207 94.6264 88.8745Z" fill="black"/>
<path opacity="0.73" d="M94.8931 89.0842L97.0353 87.9818C97.8931 87.4807 100.632 86.6239 101.375 87.0548L102.714 87.2803C102.945 87.15 104.575 87.8515 104.866 87.8515C105.481 88.0586 106.075 88.3255 106.637 88.6482L116.109 94.0799L118.116 95.2274L129.614 101.822C129.97 102.029 130.306 102.269 130.618 102.538C130.846 102.717 131.02 102.957 131.119 103.23C131.34 103.916 130.959 104.668 130.031 105.204L127.889 106.301C127.031 106.802 124.291 107.659 123.549 107.233L122.21 107.003C121.979 107.138 120.348 106.437 120.057 106.437C119.442 106.229 118.849 105.963 118.286 105.64L108.815 100.203L106.808 99.0606L95.3145 92.4615C94.959 92.2554 94.6231 92.0172 94.3111 91.7499C94.0797 91.5714 93.9054 91.3293 93.8095 91.0534C93.5837 90.3719 93.965 89.6203 94.8931 89.0842Z" fill="black"/>
<path opacity="0.82" d="M95.1529 89.2906L97.2248 88.2433C98.193 87.6871 100.616 87.0858 101.454 87.5719L102.738 87.9477C102.889 87.8625 104.594 88.6843 104.79 88.6843C105.37 88.9197 105.933 89.1942 106.476 89.506L115.596 94.7473L117.518 95.8497L128.59 102.213C128.937 102.413 129.273 102.634 129.593 102.875C129.815 103.041 129.989 103.265 130.095 103.521C130.346 104.168 129.989 104.899 129.091 105.425L127.025 106.473C126.056 107.029 123.633 107.625 122.795 107.144L121.511 106.763C121.356 106.853 119.655 106.032 119.459 106.032C118.879 105.796 118.316 105.522 117.774 105.21L108.653 99.9686L106.732 98.8662L95.6596 92.4975C95.3097 92.3012 94.9744 92.0802 94.6562 91.8361C94.4331 91.6724 94.2595 91.4505 94.1545 91.1947C93.8937 90.5483 94.2248 89.8167 95.1529 89.2906Z" fill="black"/>
<path opacity="0.91" d="M95.4205 89.501L97.4272 88.4989C98.5058 87.8775 100.608 87.5418 101.541 88.078L102.755 88.6191C102.83 88.574 104.606 89.5161 104.702 89.5161C104.797 89.5161 106.242 90.3278 106.302 90.3629L115.076 95.4138L116.917 96.476L127.573 102.609C127.618 102.634 128.531 103.175 128.551 103.216C128.785 103.361 128.974 103.567 129.098 103.812C129.379 104.418 129.053 105.13 128.165 105.641L126.158 106.643C125.085 107.259 122.978 107.6 122.05 107.059L120.815 106.528C120.74 106.568 118.964 105.626 118.864 105.626C118.764 105.626 117.324 104.814 117.264 104.779L108.494 99.728L106.648 98.6657L95.9974 92.5376C95.9473 92.5075 95.0392 91.9663 94.9941 91.9262C94.7605 91.7829 94.5726 91.576 94.4523 91.33C94.2265 90.7237 94.5325 90.0121 95.4205 89.501Z" fill="black"/>
<path opacity="0.2" d="M121.317 106.969L108.363 99.4929L95.395 92.0168C94.3917 91.4255 94.502 90.3933 95.681 89.7119L97.6124 88.7698C98.7914 88.0884 100.582 88.0132 101.626 88.6045L114.594 96.0806L127.558 103.557C128.561 104.148 128.456 105.18 127.272 105.862L125.33 106.804C124.141 107.485 122.35 107.56 121.317 106.969Z" fill="black"/>
</g>
<path d="M140.182 139.103L119.945 127.432C117.662 126.115 115.811 122.582 115.811 119.546V108.812C115.811 107.269 114.537 106.928 115.309 106.372C115.334 106.372 117.115 105.545 117.145 105.53C117.59 105.329 118.078 105.239 118.566 105.268C119.053 105.296 119.527 105.443 119.945 105.696L140.182 117.366C142.465 118.679 144.316 122.211 144.316 125.253V135.981C144.316 137.599 143.815 138.747 142.962 139.278C142.912 139.308 140.769 140.325 140.714 140.345C139.977 140.591 141.181 139.679 140.182 139.103Z" fill="url(#paint9_linear)"/>
<path style="mix-blend-mode:screen" opacity="0.6" d="M138.613 139.819L118.37 128.149C116.088 126.836 114.236 123.304 114.236 120.262V109.534C114.236 106.492 116.088 105.094 118.37 106.412L138.613 118.082C140.896 119.4 142.742 122.933 142.742 125.969V136.702C142.762 139.739 140.896 141.137 138.613 139.819Z" fill="url(#paint10_radial)"/>
<path d="M138.246 140.015L118.003 128.345C115.72 127.027 113.869 123.494 113.869 120.458V109.72C113.869 106.678 115.72 105.28 118.003 106.598L138.246 118.278C140.528 119.596 142.38 123.124 142.38 126.165V136.893C142.385 139.935 140.533 141.333 138.246 140.015Z" fill="url(#paint11_linear)"/>
<path d="M114.441 120.813V110.02C114.441 107.354 116.062 106.126 118.064 107.284L138.196 118.894C140.203 120.046 141.818 123.143 141.818 125.809V136.602C141.818 139.268 140.198 140.49 138.196 139.338L118.064 127.728C116.062 126.575 114.441 123.479 114.441 120.813Z" fill="url(#paint12_linear)"/>
<path d="M115.244 121.144V110.622C115.244 108.387 116.604 107.365 118.279 108.332L137.98 119.691C139.656 120.658 140.99 123.249 140.99 125.479V136.001C140.99 138.231 139.631 139.258 137.98 138.291L118.279 126.932C116.604 125.965 115.244 123.374 115.244 121.144Z" fill="url(#paint13_linear)"/>
<path d="M118.505 108.924C116.93 108.012 115.65 108.743 115.65 110.552V121.676C115.706 122.663 115.994 123.623 116.489 124.479C116.985 125.335 117.676 126.062 118.505 126.602L137.744 137.701C139.32 138.612 140.604 137.881 140.604 136.072V124.948C140.547 123.961 140.259 123 139.762 122.145C139.265 121.289 138.574 120.562 137.744 120.022L118.505 108.924Z" fill="url(#paint14_linear)"/>
<g opacity="0.5">
<g opacity="0.5">
<path opacity="0.5" d="M117.34 118.964V119.876L128.909 126.42V125.513L117.34 118.964Z" fill="#D1B4E3"/>
<path opacity="0.6" d="M122.883 113.793L117.34 110.641V111.553L122.883 114.705V113.793Z" fill="#D1B4E3"/>
<path opacity="0.6" d="M123.775 114.309V115.221L131 119.35V118.438L123.775 114.309Z" fill="#D1B4E3"/>
<path opacity="0.6" d="M130.389 125.267V124.36L124.113 120.753V121.659L130.389 125.267Z" fill="#D1B4E3"/>
<path opacity="0.6" d="M126.455 120.007L117.34 114.79V115.702L126.455 120.919V120.007Z" fill="#D1B4E3"/>
<path opacity="0.6" d="M122.883 115.912L117.34 112.761V113.668L122.883 116.819V115.912Z" fill="#D1B4E3"/>
<path opacity="0.6" d="M123.775 116.429V117.336L131 121.464V120.558L123.775 116.429Z" fill="#D1B4E3"/>
<path opacity="0.6" d="M127.354 120.522V121.434L131.763 124.049V123.137L127.354 120.522Z" fill="#D1B4E3"/>
<path opacity="0.6" d="M131.893 121.985L139.087 126.29V125.383L131.893 121.073V121.985Z" fill="#D1B4E3"/>
<path opacity="0.6" d="M132.656 124.565L139.088 128.323V127.411L132.656 123.653V124.565Z" fill="#D1B4E3"/>
<path opacity="0.6" d="M123.22 120.236L117.34 116.889V117.796L123.22 121.143V120.236Z" fill="#D1B4E3"/>
<path opacity="0.6" d="M131.287 125.784L139.073 130.504V129.592L131.287 124.877V125.784Z" fill="#D1B4E3"/>
</g>
</g>
<g opacity="0.8">
<path opacity="0.7" d="M110.3 75.1999V74.3431L103.723 70.6251V71.4769L110.3 75.1999Z" fill="#D1B4E3"/>
<path opacity="0.8" d="M105.929 69.4476L91.8223 61.3552V62.212L105.929 70.3044V69.4476Z" fill="#D1B4E3"/>
<path opacity="0.8" d="M114.177 69.5532L91.8223 56.7456V57.9282L114.177 70.7357V69.5532Z" fill="#D1B4E3"/>
<path opacity="0.8" d="M102.558 65.7291L91.8223 59.5759V60.4327L102.558 66.586V65.7291Z" fill="#D1B4E3"/>
<path opacity="0.8" d="M103.406 66.2152V67.0721L122.691 78.0206V77.1638L103.406 66.2152Z" fill="#D1B4E3"/>
<path opacity="0.8" d="M106.773 69.9341V70.791L116.531 76.373V75.5161L106.773 69.9341Z" fill="#D1B4E3"/>
<path opacity="0.8" d="M115.02 71.2223L129.769 79.5703V78.3877L115.02 70.0398V71.2223Z" fill="#D1B4E3"/>
<path opacity="0.8" d="M123.539 78.5069L129.77 82.0695V81.2127L123.539 77.65V78.5069Z" fill="#D1B4E3"/>
<path opacity="0.8" d="M117.373 76.8588L129.77 83.8488V82.997L117.373 76.0019V76.8588Z" fill="#D1B4E3"/>
<path opacity="0.7" d="M102.874 70.1387L91.8223 63.8001V64.6569L102.874 70.9906V70.1387Z" fill="#D1B4E3"/>
<path opacity="0.7" d="M111.143 75.6863L117.88 79.5246V78.6678L111.143 74.8295V75.6863Z" fill="#D1B4E3"/>
</g>
<g opacity="0.8">
<path opacity="0.7" d="M110.3 86.9509V86.094L103.723 82.371V83.2279L110.3 86.9509Z" fill="#D1B4E3"/>
<path opacity="0.8" d="M105.929 81.1985L91.8223 73.1011V73.9579L105.929 82.0554V81.1985Z" fill="#D1B4E3"/>
<path opacity="0.8" d="M104.645 75.8874L91.8223 68.4915V69.679L104.645 77.0749V75.8874Z" fill="#D1B4E3"/>
<path opacity="0.8" d="M99.9695 76.027L91.8223 71.3219V72.1787L99.9695 76.8788V76.027Z" fill="#D1B4E3"/>
<path opacity="0.8" d="M100.812 76.5143V77.3712L122.691 89.7679V88.916L100.812 76.5143Z" fill="#D1B4E3"/>
<path opacity="0.8" d="M106.773 81.6841V82.541L113.807 86.6047V85.7479L106.773 81.6841Z" fill="#D1B4E3"/>
<path opacity="0.8" d="M123.539 90.2584L129.77 93.821V92.9642L123.539 89.4015V90.2584Z" fill="#D1B4E3"/>
<path opacity="0.8" d="M114.648 87.0917L124.622 92.6687V91.8118L114.648 86.2348V87.0917Z" fill="#D1B4E3"/>
<path opacity="0.7" d="M102.874 81.8853L91.8223 75.5516V76.4085L102.874 82.7421V81.8853Z" fill="#D1B4E3"/>
<path opacity="0.7" d="M111.143 87.4379L117.88 91.2761V90.4193L111.143 86.581V87.4379Z" fill="#D1B4E3"/>
<g opacity="0.8">
<path opacity="0.8" d="M119.47 84.2958L105.488 76.3737V77.5613L119.47 85.4833V84.2958Z" fill="#D1B4E3"/>
<path opacity="0.8" d="M120.328 84.7823V85.9698L129.77 91.3214V90.1338L120.328 84.7823Z" fill="#D1B4E3"/>
</g>
</g>
<path d="M88 74.2891L65.6953 61.4214V22.3473L88 35.215V74.2891Z" fill="url(#paint15_linear)"/>
<path opacity="0.9" d="M66.1309 22.543L88.0291 35.1151V55.7746L66.1309 22.543Z" fill="url(#paint16_linear)"/>
<path opacity="0.8" d="M67.2363 23.1245L88.0309 35.1153V41.6192L67.2363 23.1245Z" fill="url(#paint17_linear)"/>
<path d="M129.795 74.8745L91.7832 53.0575V36.9629L129.795 58.7798V74.8745Z" fill="url(#paint18_linear)"/>
<path opacity="0.9" d="M102.223 42.9503L129.795 58.8094V72.9348L102.223 42.9503Z" fill="url(#paint19_linear)"/>
<path opacity="0.8" d="M102.078 42.8857L129.796 58.81V62.7885L102.078 42.8857Z" fill="url(#paint20_linear)"/>
<path d="M79.6484 23.9804V22.4271C79.6484 21.7857 80.0448 21.4851 80.5264 21.7657L112.107 40.1102C112.373 40.3017 112.591 40.5529 112.742 40.8435C112.894 41.1341 112.975 41.4561 112.98 41.7838V43.3371C112.98 43.9785 112.589 44.2741 112.107 43.9985L80.5264 25.654C80.2596 25.4627 80.0412 25.2118 79.8888 24.9212C79.7364 24.6306 79.6541 24.3084 79.6484 23.9804Z" fill="url(#paint21_linear)"/>
<path d="M112.604 43.7624L81.0281 25.4179C80.7612 25.2266 80.5429 24.9756 80.3905 24.685C80.238 24.3945 80.1557 24.0723 80.1501 23.7443V22.191C80.1454 22.0169 80.1851 21.8444 80.2655 21.6899C79.9093 21.6297 79.6484 21.9204 79.6484 22.4415V23.9798C79.6541 24.3078 79.7364 24.63 79.8888 24.9205C80.0412 25.2111 80.2596 25.4621 80.5264 25.6534L112.102 44.0229C112.16 44.0699 112.228 44.1034 112.3 44.121C112.373 44.1385 112.449 44.1396 112.522 44.1242C112.595 44.1089 112.663 44.0774 112.723 44.0321C112.782 43.9869 112.831 43.9289 112.865 43.8626C112.773 43.843 112.685 43.8092 112.604 43.7624Z" fill="#9F79C8"/>
<path opacity="0.8" d="M75.417 20.9287C75.417 21.6703 74.9154 21.9659 74.2431 21.5951C73.9052 21.3753 73.6235 21.0796 73.4205 20.7315C73.2175 20.3835 73.0989 19.9928 73.0742 19.5908C73.0742 18.8542 73.5759 18.5536 74.2431 18.9244C74.5817 19.1439 74.8642 19.4395 75.068 19.7875C75.2719 20.1355 75.3914 20.5263 75.417 20.9287Z" fill="url(#paint22_linear)"/>
<path d="M71.7257 18.8743C71.7257 19.6109 71.1989 19.9115 70.5517 19.5407C70.2146 19.3201 69.9335 19.0241 69.7306 18.6763C69.5278 18.3284 69.4087 17.9382 69.3828 17.5364C69.3828 16.7948 69.9096 16.4992 70.5517 16.87C70.8903 17.0895 71.1728 17.3851 71.3766 17.7331C71.5805 18.0811 71.7 18.4719 71.7257 18.8743Z" fill="url(#paint23_linear)"/>
<path d="M68.003 16.7643C68.003 17.5059 67.5013 17.8066 66.8291 17.4307C66.4909 17.2112 66.2089 16.9156 66.0059 16.5675C65.8029 16.2194 65.6845 15.8285 65.6602 15.4264C65.6602 14.6848 66.1869 14.3892 66.8291 14.76C67.1682 14.9789 67.4511 15.2744 67.655 15.6225C67.8589 15.9707 67.9781 16.3617 68.003 16.7643Z" fill="url(#paint24_linear)"/>
<path d="M95.6599 42.1497L97.5914 43.2621L99.0964 54.5263L97.6717 53.7045L97.4108 51.4897V51.5399L95.7854 50.6028L95.5295 52.4919L94.2051 51.7253L95.6599 42.1497ZM97.2151 50.0066L96.578 44.4947H96.5529L95.9309 49.28L97.2151 50.0066Z" fill="white"/>
<path d="M99.7441 44.5239L101.926 45.7766C102.593 46.1469 103.145 46.6929 103.522 47.355C103.888 48.0386 104.071 48.8049 104.054 49.5798V54.8461C104.054 55.6879 103.878 56.2241 103.522 56.4596C103.166 56.6951 102.634 56.5999 101.926 56.189L99.7441 54.9363V44.5239ZM101.901 54.6908C102.132 54.8261 102.313 54.8461 102.438 54.7609C102.564 54.6758 102.624 54.4553 102.624 54.0945V48.6829C102.636 48.3781 102.572 48.075 102.438 47.801C102.313 47.5714 102.128 47.3806 101.901 47.2498L101.174 46.8339V54.2699L101.901 54.6908Z" fill="white"/>
<path d="M72.0223 46.9591L74.6762 48.4623L76.708 63.9306L74.7464 62.7982L74.3902 59.7566V59.7967L72.1527 58.5541L71.7965 61.1496L69.9805 60.1024L72.0223 46.9591ZM74.1595 57.7473L73.2865 50.181H73.2514L72.3935 56.7552L74.1595 57.7473Z" fill="white"/>
<path d="M77.6699 50.2062L80.68 51.9299C81.5974 52.4347 82.3564 53.1842 82.8723 54.0946C83.3747 55.0321 83.6269 56.083 83.6048 57.1462V64.3767C83.6048 65.5342 83.3589 66.2708 82.8723 66.5865C82.3857 66.9022 81.6532 66.7869 80.68 66.2257L77.6699 64.497V50.2062ZM80.6248 64.1613C80.9459 64.3467 81.1917 64.3817 81.3673 64.2615C81.5429 64.1412 81.6231 63.8406 81.6231 63.3495V55.9135C81.6388 55.4961 81.5509 55.0813 81.3673 54.7059C81.1955 54.3906 80.9381 54.1301 80.6248 53.9543L79.6214 53.3781V63.565L80.6248 64.1613Z" fill="white"/>
<path d="M123.373 49.32L129.925 53.0982V51.3143L123.373 47.5362V49.32Z" fill="#9F79C8"/>
<path d="M115.025 44.4347L121.577 48.2128V46.429L115.025 42.6508V44.4347Z" fill="#9F79C8"/>
<g style="mix-blend-mode:multiply" opacity="0.3">
<path style="mix-blend-mode:multiply" opacity="0.09" d="M121.159 37.8194C117.04 35.2488 111.857 36.8172 111.857 43.0055V69.1769C111.857 72.5792 114.265 76.7231 117.235 78.4368L136.741 89.7812C139.711 91.4899 143.207 89.9466 143.207 86.5493V55.9083C143.207 52.506 139.696 48.5324 136.741 46.8237L121.159 37.8194Z" fill="url(#paint25_linear)"/>
<path style="mix-blend-mode:multiply" opacity="0.18" d="M121.009 38.3453C117.036 35.88 112.154 37.4033 112.154 43.2909V69.5074C112.154 72.8796 114.537 76.9835 117.477 78.6771L136.706 89.8662C139.646 91.5648 143.013 90.0516 143.013 86.6793V56.4442C143.013 53.077 139.646 49.1235 136.706 47.4248L121.009 38.3453Z" fill="url(#paint26_linear)"/>
<path style="mix-blend-mode:multiply" opacity="0.27" d="M120.862 38.8766C117.03 36.5116 112.449 37.9998 112.449 43.5768V69.8433C112.449 73.1805 114.812 77.2442 117.722 78.9228L136.68 89.9466C139.59 91.6252 142.826 90.142 142.826 86.8048V56.9806C142.826 53.6434 139.59 49.715 136.68 48.0364L120.862 38.8766Z" fill="url(#paint27_linear)"/>
<path style="mix-blend-mode:multiply" opacity="0.36" d="M120.712 39.402C117.024 37.1422 112.75 38.6003 112.75 43.8616V70.1782C112.75 73.4804 115.083 77.504 117.967 79.1626L136.655 90.041C139.54 91.7046 142.64 90.2515 142.64 86.9493V57.511C142.64 54.2089 139.54 50.3055 136.655 48.6469L120.712 39.402Z" fill="url(#paint28_linear)"/>
<path style="mix-blend-mode:multiply" opacity="0.45" d="M120.562 39.9343C117.02 37.7747 113.037 39.2028 113.037 44.1484V70.5101C113.037 73.7822 115.35 77.7657 118.199 79.4093L136.626 90.1324C139.476 91.7759 142.446 90.3578 142.446 87.0858V58.0483C142.446 54.7813 139.476 50.8979 136.626 49.2544L120.562 39.9343Z" fill="url(#paint29_linear)"/>
<path style="mix-blend-mode:multiply" opacity="0.55" d="M120.417 40.4647C117.016 38.4053 113.344 39.8033 113.344 44.4383V70.8451C113.344 74.077 115.631 78.0205 118.456 79.649L136.612 90.2218C139.436 91.8503 142.271 90.4573 142.271 87.2153V58.6088C142.271 55.3718 139.436 51.5135 136.612 49.885L120.417 40.4647Z" fill="url(#paint30_linear)"/>
<path style="mix-blend-mode:multiply" opacity="0.64" d="M120.266 40.9911C117.01 39.0368 113.639 40.3998 113.639 44.7241V71.176C113.639 74.3779 115.901 78.2813 118.696 79.8948L136.585 90.3072C139.38 91.9207 142.104 90.5577 142.104 87.3558V59.1101C142.104 55.9031 139.4 52.0699 136.585 50.4614L120.266 40.9911Z" fill="url(#paint31_linear)"/>
<path style="mix-blend-mode:multiply" opacity="0.73" d="M120.121 41.5229C117.006 39.6689 113.936 41.0218 113.936 45.0305V71.5325C113.936 74.6993 116.178 78.5476 118.952 80.1561L136.571 90.4181C139.336 92.0116 141.909 90.6837 141.909 87.5119V59.6519C141.909 56.4851 139.336 52.6719 136.571 51.0785L120.121 41.5229Z" fill="url(#paint32_linear)"/>
<path style="mix-blend-mode:multiply" opacity="0.82" d="M119.97 42.0739C117.005 40.3251 114.23 41.6279 114.23 45.3209V71.878C114.23 75.0148 116.448 78.838 119.187 80.3964L136.535 90.4981C139.274 92.0765 141.707 90.7787 141.707 87.6419V60.1879C141.707 57.0511 139.274 53.2629 136.535 51.6695L119.97 42.0739Z" fill="url(#paint33_linear)"/>
<path style="mix-blend-mode:multiply" opacity="0.91" d="M119.82 42.5743C117.001 40.9257 114.527 42.1934 114.527 45.5807V72.1729C114.527 75.2746 116.72 79.0578 119.429 80.6161L136.511 90.5675C139.22 92.1259 141.528 90.8582 141.528 87.7565V60.6983C141.528 57.5916 139.225 53.8285 136.511 52.2701L119.82 42.5743Z" fill="url(#paint34_linear)"/>
<path style="mix-blend-mode:multiply" opacity="0.3" d="M119.683 43.1108C117.004 41.5624 114.832 42.8001 114.832 45.8717V72.509C114.832 75.5806 117.004 79.3237 119.683 80.867L136.49 90.6781C139.163 92.2265 141.336 90.9888 141.336 87.9172V61.2598C141.336 58.1882 139.163 54.4452 136.49 52.9018L119.683 43.1108Z" fill="url(#paint35_linear)"/>
</g>
<path d="M140.398 117.937L119.99 106.167C117.687 104.839 115.821 101.276 115.821 98.2097V43.9128C115.821 42.3544 114.537 42.0087 115.319 41.4475C115.349 41.4475 117.14 40.6157 117.175 40.6007C117.623 40.3958 118.114 40.3037 118.606 40.3326C119.097 40.3614 119.574 40.5102 119.995 40.766L140.403 52.5364C142.706 53.8642 144.572 57.4269 144.572 60.4935V114.79C144.572 116.419 144.045 117.581 143.208 118.112C143.157 118.143 141 119.17 140.945 119.185C140.192 119.435 141.407 118.518 140.398 117.937Z" fill="url(#paint36_linear)"/>
<path style="mix-blend-mode:color-dodge" d="M140.213 52.5959L119.8 40.8256C118.711 40.1992 139.085 52.9717 139.085 52.9717C141.387 54.2996 143.253 57.8623 143.253 60.9289C143.253 60.9289 144.382 116.478 144.382 114.85V60.5531C144.382 57.4865 142.516 53.9238 140.213 52.5959Z" fill="url(#paint37_radial)"/>
<path style="mix-blend-mode:screen" opacity="0.6" d="M138.813 118.658L118.404 106.887C116.102 105.559 114.23 101.997 114.23 98.9301V44.6333C114.23 41.5717 116.102 40.1586 118.404 41.4865L138.813 53.2568C141.115 54.5847 142.982 58.1473 142.982 61.2139V115.511C142.982 118.577 141.115 119.985 138.813 118.658Z" fill="url(#paint38_radial)"/>
<path d="M138.451 118.853L118.038 107.083C115.735 105.755 113.869 102.192 113.869 99.1258V44.8339C113.869 41.7673 115.735 40.3543 118.038 41.6821L138.451 53.4525C140.754 54.7803 142.62 58.343 142.62 61.4096V115.732C142.62 118.773 140.754 120.181 138.451 118.853Z" fill="url(#paint39_linear)"/>
<path d="M114.438 99.4914V45.1244C114.438 42.4386 116.078 41.2009 118.095 42.3684L138.398 54.0987C140.404 55.2662 142.055 58.3879 142.055 61.0737V115.411C142.055 118.101 140.419 119.334 138.398 118.172L118.095 106.461C116.078 105.299 114.438 102.202 114.438 99.4914Z" fill="url(#paint40_linear)"/>
<path d="M115.25 99.8231V45.7316C115.25 43.4818 116.62 42.4496 118.31 43.4217L138.182 54.8813C139.872 55.8584 141.242 58.4691 141.242 60.7189V114.805C141.242 117.06 139.872 118.092 138.182 117.115L118.31 105.661C116.62 104.709 115.25 102.073 115.25 99.8231Z" fill="url(#paint41_linear)"/>
<path d="M118.541 44.0231C116.951 43.1011 115.656 43.8377 115.656 45.6616V100.359C115.713 101.355 116.003 102.324 116.505 103.186C117.006 104.049 117.703 104.782 118.541 105.325L137.951 116.519C139.546 117.436 140.836 116.704 140.836 114.876V60.1828C140.78 59.1868 140.49 58.218 139.988 57.3551C139.487 56.4922 138.789 55.7597 137.951 55.2171L118.541 44.0231Z" fill="url(#paint42_linear)"/>
<path d="M136.405 57.8182L138.913 59.2713C139.009 59.3264 139.084 59.2713 139.084 59.1711C139.081 59.1111 139.064 59.0526 139.035 59.0003C139.005 58.9481 138.964 58.9036 138.913 58.8705L136.405 57.4173C136.31 57.3622 136.234 57.4173 136.234 57.5175C136.237 57.5775 136.254 57.6361 136.284 57.6883C136.313 57.7406 136.355 57.7851 136.405 57.8182ZM138.913 59.7674L136.405 58.3143C136.31 58.2591 136.234 58.3143 136.234 58.4145C136.237 58.4745 136.254 58.533 136.284 58.5852C136.313 58.6375 136.355 58.682 136.405 58.7151L138.913 60.1682C139.009 60.2234 139.084 60.1682 139.084 60.068C139.083 60.0093 139.068 59.9516 139.041 59.8995C139.014 59.8473 138.976 59.8021 138.928 59.7674H138.913ZM138.913 60.6643L136.405 59.2112C136.31 59.1561 136.234 59.2112 136.234 59.3114C136.237 59.3714 136.254 59.4299 136.284 59.4822C136.313 59.5344 136.355 59.5789 136.405 59.612L138.913 61.0652C139.009 61.1203 139.084 61.0652 139.084 60.9649C139.083 60.9063 139.068 60.8486 139.041 60.7964C139.014 60.7443 138.976 60.6991 138.928 60.6643H138.913Z" fill="white"/>
<path d="M120.962 49.1189C120.962 49.3844 120.771 49.4947 120.541 49.3594C120.419 49.2804 120.317 49.174 120.244 49.0487C120.171 48.9234 120.128 48.7827 120.119 48.6378C120.119 48.3723 120.31 48.262 120.541 48.3973C120.662 48.4763 120.764 48.5827 120.837 48.708C120.91 48.8333 120.953 48.974 120.962 49.1189Z" fill="white"/>
<path d="M119.684 48.3876C119.684 48.6531 119.498 48.7583 119.267 48.6231C119.144 48.5453 119.042 48.4392 118.968 48.3136C118.895 48.188 118.853 48.0467 118.846 47.9015C118.846 47.6359 119.031 47.5307 119.267 47.661C119.388 47.7413 119.489 47.8488 119.562 47.9749C119.634 48.1011 119.676 48.2424 119.684 48.3876Z" fill="white"/>
<path d="M118.43 47.6507C118.43 47.9163 118.244 48.0265 118.008 47.8912C117.887 47.812 117.786 47.7055 117.714 47.5801C117.641 47.4548 117.6 47.3142 117.592 47.1697C117.592 46.9041 117.777 46.7939 118.008 46.9292C118.131 47.0075 118.233 47.1138 118.306 47.2392C118.379 47.3647 118.422 47.5057 118.43 47.6507Z" fill="white"/>
<g style="mix-blend-mode:multiply">
<path d="M137.951 55.2175L118.541 44.0234C116.951 43.1014 115.656 43.838 115.656 45.6619V100.36C115.713 101.355 116.003 102.324 116.505 103.187C117.006 104.049 117.703 104.782 118.541 105.325L137.951 116.519C139.546 117.436 140.836 116.705 140.836 114.876V60.1831C140.78 59.1871 140.49 58.2183 139.988 57.3554C139.487 56.4925 138.789 55.76 137.951 55.2175ZM140.585 114.876C140.61 115.356 140.474 115.83 140.198 116.224C140.085 116.366 139.939 116.48 139.774 116.557C139.608 116.633 139.427 116.67 139.245 116.665C138.831 116.647 138.428 116.522 138.076 116.304L118.681 105.11C117.88 104.59 117.213 103.889 116.734 103.064C116.255 102.238 115.977 101.312 115.922 100.36V45.6619C115.922 44.5595 116.424 43.8781 117.262 43.8781C117.676 43.896 118.078 44.0203 118.431 44.2388L137.841 55.4329C138.641 55.9528 139.309 56.6538 139.788 57.479C140.267 58.3043 140.545 59.2306 140.6 60.1831L140.585 114.876Z" fill="#BCBEC0"/>
</g>
<path d="M124.856 51.7703L124.324 51.4646V51.0537C124.434 51.1217 124.552 51.1756 124.675 51.2141C124.708 51.2286 124.743 51.2361 124.778 51.2361C124.814 51.2361 124.849 51.2286 124.881 51.2141C124.948 51.1613 124.997 51.0897 125.022 51.0086L125.363 51.2091V54.907L124.861 54.6114L124.856 51.7703Z" fill="white"/>
<path d="M126.151 55.1476C126.018 54.9033 125.951 54.6289 125.955 54.3509V52.4068C125.955 52.1111 126.021 51.9057 126.151 51.8305C126.281 51.7554 126.472 51.7754 126.723 51.9207C126.965 52.052 127.163 52.2504 127.295 52.4919C127.427 52.7381 127.495 53.0141 127.49 53.2937V55.2378C127.49 55.5351 127.425 55.7256 127.295 55.8091C127.164 55.8943 126.974 55.8642 126.723 55.7239C126.482 55.5893 126.284 55.3896 126.151 55.1476ZM126.984 54.9823V52.978C126.99 52.8787 126.969 52.7795 126.923 52.6912C126.877 52.6029 126.808 52.5288 126.723 52.4769C126.547 52.3767 126.462 52.4469 126.462 52.6924V54.6967C126.455 54.7961 126.476 54.8955 126.522 54.9839C126.568 55.0723 126.637 55.1463 126.723 55.1978C126.898 55.293 126.984 55.2228 126.984 54.9823Z" fill="white"/>
<path d="M127.832 53.7395L128.334 54.0201V54.6013L127.832 54.3157V53.7395ZM127.832 55.7438L128.334 56.0244V56.6056L127.832 56.325V55.7438Z" fill="white"/>
<path d="M128.855 56.7158C128.726 56.4719 128.661 56.1997 128.664 55.924V55.6034L129.166 55.884V56.2097C129.161 56.3094 129.183 56.4087 129.229 56.497C129.276 56.5852 129.346 56.6591 129.432 56.7107C129.517 56.7609 129.582 56.7659 129.627 56.7107C129.673 56.6556 129.693 56.5805 129.693 56.4251V56.1245C129.7 55.9846 129.672 55.8452 129.612 55.7186C129.557 55.6094 129.47 55.52 129.362 55.4631L129.191 55.3628V54.8367L129.377 54.9419C129.477 55.0021 129.552 55.0121 129.602 54.982C129.653 54.952 129.678 54.8668 129.678 54.7265V54.4559C129.681 54.3454 129.659 54.2355 129.612 54.1352C129.568 54.0553 129.504 53.9881 129.427 53.9398C129.261 53.8446 129.181 53.9147 129.181 54.1452V54.3857L128.704 54.1101V53.9147C128.704 53.6191 128.765 53.4136 128.895 53.3435C129.025 53.2733 129.206 53.2834 129.442 53.4237C129.675 53.5522 129.868 53.743 129.999 53.9748C130.126 54.2189 130.19 54.4912 130.184 54.7666V54.8968C130.198 55.0457 130.168 55.1952 130.099 55.3278C130.07 55.3712 130.029 55.4047 129.98 55.4236C129.932 55.4424 129.879 55.4457 129.828 55.433C129.953 55.5587 130.05 55.7088 130.114 55.8739C130.172 56.0467 130.201 56.2279 130.199 56.4101V56.7408C130.199 57.0364 130.134 57.2419 130.009 57.307C129.883 57.3722 129.693 57.3622 129.442 57.2168C129.205 57.1048 129.002 56.9319 128.855 56.7158Z" fill="white"/>
<path d="M130.72 57.7726C130.584 57.5296 130.515 57.2546 130.52 56.9759V55.0317C130.52 54.7361 130.585 54.5307 130.72 54.4555C130.856 54.3803 131.042 54.4004 131.292 54.5457C131.532 54.6804 131.729 54.878 131.864 55.1169C131.997 55.3631 132.064 55.6391 132.06 55.9187V57.8628C132.06 58.1568 131.995 58.3472 131.864 58.4341C131.729 58.5192 131.538 58.4892 131.292 58.3489C131.051 58.2143 130.853 58.0146 130.72 57.7726ZM131.553 57.6073V55.603C131.56 55.5036 131.539 55.4044 131.493 55.3161C131.447 55.2278 131.377 55.1537 131.292 55.1019C131.117 55.0017 131.026 55.0718 131.026 55.3173V57.3217C131.021 57.4215 131.042 57.521 131.089 57.6094C131.136 57.6977 131.206 57.7715 131.292 57.8227C131.453 57.918 131.538 57.8478 131.538 57.6073H131.553Z" fill="white"/>
<path d="M139.12 100.921L117.332 88.3593V54.0054L139.12 66.5674V100.921Z" fill="url(#paint43_linear)"/>
<path opacity="0.9" d="M117.482 54.1011L139.165 66.5529V81.009L117.482 54.1011Z" fill="url(#paint44_linear)"/>
<path opacity="0.8" d="M118.576 54.6767L139.165 66.5523V71.528L118.576 54.6767Z" fill="url(#paint45_linear)"/>
<path d="M123.347 73.2757L126.02 74.814L128.067 90.3876L126.091 89.2501L125.734 86.1835V86.2236L123.492 84.9308L123.131 87.5414L121.305 86.4892L123.347 73.2757ZM125.499 84.1641L124.621 76.5427H124.586L123.723 83.157L125.499 84.1641Z" fill="white"/>
<path d="M129.016 76.5427L132.026 78.2814C132.947 78.7909 133.71 79.5431 134.233 80.4561C134.737 81.4019 134.99 82.4614 134.966 83.5327V90.8134C134.966 91.9759 134.725 92.7225 134.233 93.0432C133.741 93.3639 133.004 93.2386 132.026 92.6724L129.016 90.9336V76.5427ZM131.996 90.5729C132.317 90.7583 132.568 90.7933 132.738 90.6731C132.909 90.5528 132.999 90.2472 132.999 89.7511V82.295C133.017 81.872 132.927 81.4514 132.738 81.0724C132.567 80.7556 132.309 80.4934 131.996 80.3158L130.992 79.7395V90.0167L131.996 90.5729Z" fill="white"/>
<g opacity="0.5">
<g opacity="0.5">
<path opacity="0.5" d="M117.342 91.1498V92.0567L128.911 98.6008V97.6938L117.342 91.1498Z" fill="#D1B4E3"/>
<path opacity="0.6" d="M122.885 102.639L117.342 99.482V100.394L122.885 103.546V102.639Z" fill="#D1B4E3"/>
<path opacity="0.6" d="M123.779 103.156V104.063L131.003 108.192V107.285L123.779 103.156Z" fill="#D1B4E3"/>
<path opacity="0.6" d="M130.391 105.801V104.894L124.115 101.287V102.194L130.391 105.801Z" fill="#D1B4E3"/>
<path opacity="0.6" d="M126.457 100.539L117.342 95.3228V96.2347L126.457 101.451V100.539Z" fill="#D1B4E3"/>
<path opacity="0.6" d="M122.885 96.4464L117.342 93.2946V94.2015L122.885 97.3533V96.4464Z" fill="#D1B4E3"/>
<path opacity="0.6" d="M123.779 96.9627V97.8697L131.003 102.004V101.092L123.779 96.9627Z" fill="#D1B4E3"/>
<path opacity="0.6" d="M127.355 101.056V101.968L131.765 104.583V103.671L127.355 101.056Z" fill="#D1B4E3"/>
<path opacity="0.6" d="M131.896 102.52L139.091 106.824V105.917L131.896 101.608V102.52Z" fill="#D1B4E3"/>
<path opacity="0.6" d="M132.658 105.099L139.09 108.858V107.946L132.658 104.187V105.099Z" fill="#D1B4E3"/>
<path opacity="0.6" d="M123.221 100.765L117.342 97.423V98.3299L123.221 101.677V100.765Z" fill="#D1B4E3"/>
<path opacity="0.6" d="M131.289 106.318L139.075 111.038V110.126L131.289 105.411V106.318Z" fill="#D1B4E3"/>
</g>
</g>
<g style="mix-blend-mode:screen" opacity="0.3">
<g style="mix-blend-mode:screen" opacity="0.3">
<path d="M30.0156 106.914L32.4337 108.312L37.0291 105.661L34.611 104.263L30.0156 106.914Z" fill="#27043D"/>
</g>
<g style="mix-blend-mode:screen" opacity="0.3">
<path d="M34.3047 109.394L37.089 111.002L41.6844 108.352L38.9001 106.743L34.3047 109.394Z" fill="#27043D"/>
</g>
<g style="mix-blend-mode:screen" opacity="0.3">
<path d="M5.91446 123.604L10.6955 120.848L8.27235 119.45L3.48633 122.211L5.91446 123.604Z" fill="#27043D"/>
</g>
<g style="mix-blend-mode:screen" opacity="0.3">
<path d="M15.3605 123.53L12.5712 121.926L7.78516 124.687L10.5745 126.291L15.3605 123.53Z" fill="#27043D"/>
</g>
<g style="mix-blend-mode:screen" opacity="0.3">
<path d="M33.237 118.593L30.1216 116.759L25.5312 119.405L28.6517 121.244L33.237 118.593Z" fill="#27043D"/>
</g>
<g style="mix-blend-mode:screen" opacity="0.3">
<path d="M43.195 109.223L38.5996 111.874L41.7451 113.693L46.3405 111.042L43.195 109.223Z" fill="#27043D"/>
</g>
<g style="mix-blend-mode:screen" opacity="0.3">
<path d="M56.4187 116.87L51.7731 114.184L47.1777 116.835L56.4488 122.191L69.1061 114.946L73.0343 117.211L77.9558 106.718L59.7548 109.554L64.4756 112.275L56.4187 116.87Z" fill="#27043D"/>
</g>
<g style="mix-blend-mode:screen" opacity="0.3">
<path d="M21.2773 116.905L24.0366 118.529L28.6269 115.883L25.8727 114.26L21.2773 116.905Z" fill="#27043D"/>
</g>
<g style="mix-blend-mode:screen" opacity="0.3">
<path d="M19.4195 115.818L24.0149 113.167L21.6219 111.754L17.0215 114.405L19.4195 115.818Z" fill="#27043D"/>
</g>
<g style="mix-blend-mode:screen" opacity="0.3">
<path d="M20.0264 126.214L16.8708 124.4L12.0898 127.161L15.2404 128.975L20.0264 126.214Z" fill="#27043D"/>
</g>
<g style="mix-blend-mode:screen" opacity="0.3">
<path d="M52.3354 144.806L25.4755 129.352L20.6895 132.108L47.5494 147.567L43.4908 149.907L62.4542 152.928L57.2117 141.995L52.3354 144.806Z" fill="#27043D"/>
</g>
<g style="mix-blend-mode:screen" opacity="0.3">
<path d="M6.03018 118.163L4.781 117.446L0 120.202L1.24918 120.924L6.03018 118.163Z" fill="#27043D"/>
</g>
<g style="mix-blend-mode:screen" opacity="0.3">
<path d="M100.02 138.141L104.741 140.867L87.7237 150.678L38.6244 121.766L34.0391 124.411L87.7538 155.999L109.366 143.533L113.294 145.798L118.221 135.305L100.02 138.141Z" fill="#27043D"/>
</g>
<g style="mix-blend-mode:screen" opacity="0.3">
<path d="M19.405 110.451L18.0505 109.654L13.4551 112.305L14.8096 113.101L19.405 110.451Z" fill="#27043D"/>
</g>
<g style="mix-blend-mode:screen" opacity="0.3">
<path d="M24.6884 128.901L21.1716 126.877L16.3906 129.633L19.9074 131.657L24.6884 128.901Z" fill="#27043D"/>
</g>
<g style="mix-blend-mode:screen" opacity="0.3">
<path d="M34.3755 119.265L29.7852 121.91L33.2668 123.955L37.8522 121.309L34.3755 119.265Z" fill="#27043D"/>
</g>
<g style="mix-blend-mode:screen" opacity="0.3">
<path d="M47.4841 111.703L42.8887 114.354L46.3954 116.378L50.9908 113.733L47.4841 111.703Z" fill="#27043D"/>
</g>
<g style="mix-blend-mode:screen" opacity="0.3">
<path d="M32.379 102.97L30.9743 102.163L26.3789 104.814L27.7786 105.621L32.379 102.97Z" fill="#27043D"/>
</g>
</g>
<defs>
<linearGradient id="paint0_linear" x1="68.8065" y1="102.934" x2="122.386" y2="102.934" gradientUnits="userSpaceOnUse">
<stop offset="0.06" stop-color="#200041"/>
<stop offset="0.26" stop-color="#210243"/>
<stop offset="0.36" stop-color="#25084B"/>
<stop offset="0.43" stop-color="#2C1358"/>
<stop offset="0.47" stop-color="#311B61"/>
<stop offset="0.48" stop-color="#351F65"/>
<stop offset="0.5" stop-color="#422C73"/>
<stop offset="0.51" stop-color="#584188"/>
<stop offset="0.52" stop-color="#765FA7"/>
<stop offset="0.53" stop-color="#8770B8"/>
<stop offset="0.54" stop-color="#7E67AE"/>
<stop offset="0.56" stop-color="#5C468D"/>
<stop offset="0.59" stop-color="#442E75"/>
<stop offset="0.61" stop-color="#362066"/>
<stop offset="0.63" stop-color="#311B61"/>
<stop offset="0.67" stop-color="#2A1155"/>
<stop offset="0.75" stop-color="#230446"/>
<stop offset="0.81" stop-color="#200041"/>
<stop offset="1" stop-color="#200041"/>
</linearGradient>
<linearGradient id="paint1_linear" x1="-67796.5" y1="7900.33" x2="-62371" y2="7900.33" gradientUnits="userSpaceOnUse">
<stop offset="0.06" stop-color="#200041"/>
<stop offset="0.26" stop-color="#210243"/>
<stop offset="0.36" stop-color="#25084B"/>
<stop offset="0.43" stop-color="#2C1358"/>
<stop offset="0.47" stop-color="#311B61"/>
<stop offset="0.48" stop-color="#351F65"/>
<stop offset="0.5" stop-color="#422C73"/>
<stop offset="0.51" stop-color="#584188"/>
<stop offset="0.52" stop-color="#765FA7"/>
<stop offset="0.53" stop-color="#8770B8"/>
<stop offset="0.54" stop-color="#7E67AE"/>
<stop offset="0.56" stop-color="#5C468D"/>
<stop offset="0.59" stop-color="#442E75"/>
<stop offset="0.61" stop-color="#362066"/>
<stop offset="0.63" stop-color="#311B61"/>
<stop offset="0.67" stop-color="#2A1155"/>
<stop offset="0.75" stop-color="#230446"/>
<stop offset="0.81" stop-color="#200041"/>
<stop offset="1" stop-color="#200041"/>
</linearGradient>
<linearGradient id="paint2_linear" x1="83.1433" y1="98.2146" x2="107.416" y2="84.771" gradientUnits="userSpaceOnUse">
<stop stop-color="#311B61"/>
<stop offset="0.2" stop-color="#290F52"/>
<stop offset="0.49" stop-color="#200041"/>
<stop offset="1" stop-color="#0F001F"/>
</linearGradient>
<linearGradient id="paint3_linear" x1="-47211.5" y1="5663.89" x2="-47064.9" y2="5242.33" gradientUnits="userSpaceOnUse">
<stop stop-color="white"/>
<stop offset="1"/>
</linearGradient>
<radialGradient id="paint4_radial" cx="0" cy="0" r="1" gradientUnits="userSpaceOnUse" gradientTransform="translate(96.1814 102.719) scale(19.0638 19.041)">
<stop stop-color="#AF8AFC"/>
<stop offset="1" stop-color="#10054D"/>
</radialGradient>
<linearGradient id="paint5_linear" x1="-94437.8" y1="30609.4" x2="-112796" y2="11905.5" gradientUnits="userSpaceOnUse">
<stop stop-color="#311B61"/>
<stop offset="0.2" stop-color="#290F52"/>
<stop offset="0.49" stop-color="#200041"/>
<stop offset="1" stop-color="#0F001F"/>
</linearGradient>
<linearGradient id="paint6_linear" x1="64.4356" y1="5.60019" x2="134.083" y2="110.453" gradientUnits="userSpaceOnUse">
<stop offset="0.01" stop-color="#9F19AB"/>
<stop offset="0.43" stop-color="#5F27BD"/>
<stop offset="0.9" stop-color="#3D065F"/>
</linearGradient>
<linearGradient id="paint7_linear" x1="-91016.2" y1="31354.9" x2="-106216" y2="13734.3" gradientUnits="userSpaceOnUse">
<stop offset="0.06" stop-color="#200041"/>
<stop offset="0.26" stop-color="#210243"/>
<stop offset="0.36" stop-color="#25084B"/>
<stop offset="0.43" stop-color="#2C1358"/>
<stop offset="0.47" stop-color="#311B61"/>
<stop offset="0.48" stop-color="#351F65"/>
<stop offset="0.5" stop-color="#422C73"/>
<stop offset="0.51" stop-color="#584188"/>
<stop offset="0.52" stop-color="#765FA7"/>
<stop offset="0.53" stop-color="#8770B8"/>
<stop offset="0.54" stop-color="#7E67AE"/>
<stop offset="0.56" stop-color="#5C468D"/>
<stop offset="0.59" stop-color="#442E75"/>
<stop offset="0.61" stop-color="#362066"/>
<stop offset="0.63" stop-color="#311B61"/>
<stop offset="0.67" stop-color="#2A1155"/>
<stop offset="0.75" stop-color="#230446"/>
<stop offset="0.81" stop-color="#200041"/>
<stop offset="1" stop-color="#200041"/>
</linearGradient>
<radialGradient id="paint8_radial" cx="0" cy="0" r="1" gradientUnits="userSpaceOnUse" gradientTransform="translate(-91636 18641.1) scale(1666.47 2335.2)">
<stop stop-color="#AF8AFC"/>
<stop offset="1" stop-color="#10054D"/>
</radialGradient>
<linearGradient id="paint9_linear" x1="9276.51" y1="13814.9" x2="9212.86" y2="11673.9" gradientUnits="userSpaceOnUse">
<stop offset="0.06" stop-color="#200041"/>
<stop offset="0.26" stop-color="#210243"/>
<stop offset="0.36" stop-color="#25084B"/>
<stop offset="0.43" stop-color="#2C1358"/>
<stop offset="0.47" stop-color="#311B61"/>
<stop offset="0.48" stop-color="#351F65"/>
<stop offset="0.5" stop-color="#422C73"/>
<stop offset="0.51" stop-color="#584188"/>
<stop offset="0.52" stop-color="#765FA7"/>
<stop offset="0.53" stop-color="#8770B8"/>
<stop offset="0.54" stop-color="#7E67AE"/>
<stop offset="0.56" stop-color="#5C468D"/>
<stop offset="0.59" stop-color="#442E75"/>
<stop offset="0.61" stop-color="#362066"/>
<stop offset="0.63" stop-color="#311B61"/>
<stop offset="0.67" stop-color="#2A1155"/>
<stop offset="0.75" stop-color="#230446"/>
<stop offset="0.81" stop-color="#200041"/>
<stop offset="1" stop-color="#200041"/>
</linearGradient>
<radialGradient id="paint10_radial" cx="0" cy="0" r="1" gradientUnits="userSpaceOnUse" gradientTransform="translate(9700.65 11675.8) scale(737.439 889.909)">
<stop stop-color="#AF8AFC"/>
<stop offset="1" stop-color="#10054D"/>
</radialGradient>
<linearGradient id="paint11_linear" x1="140.002" y1="127.022" x2="80.5654" y2="108.396" gradientUnits="userSpaceOnUse">
<stop offset="0.19" stop-color="#3D065F"/>
<stop offset="0.93" stop-color="#3D065F"/>
</linearGradient>
<linearGradient id="paint12_linear" x1="9044.43" y1="13038.6" x2="7528.29" y2="10375.4" gradientUnits="userSpaceOnUse">
<stop stop-color="#311B61"/>
<stop offset="0.2" stop-color="#290F52"/>
<stop offset="0.49" stop-color="#200041"/>
<stop offset="1" stop-color="#0F001F"/>
</linearGradient>
<linearGradient id="paint13_linear" x1="7405.27" y1="11036.6" x2="8727.85" y2="11036.6" gradientUnits="userSpaceOnUse">
<stop stop-color="#311B61"/>
<stop offset="0.2" stop-color="#290F52"/>
<stop offset="0.49" stop-color="#200041"/>
<stop offset="1" stop-color="#0F001F"/>
</linearGradient>
<linearGradient id="paint14_linear" x1="5951.28" y1="12205.3" x2="8393" y2="10746.3" gradientUnits="userSpaceOnUse">
<stop offset="0.01" stop-color="#9F19AB"/>
<stop offset="0.43" stop-color="#5F27BD"/>
<stop offset="0.9" stop-color="#3D065F"/>
</linearGradient>
<linearGradient id="paint15_linear" x1="-8479.95" y1="154181" x2="-11014.3" y2="153815" gradientUnits="userSpaceOnUse">
<stop offset="0.04" stop-color="#138BBD"/>
<stop offset="0.23" stop-color="#169AC7"/>
<stop offset="0.59" stop-color="#1FC3DF"/>
<stop offset="1" stop-color="#2AF6FF"/>
</linearGradient>
<linearGradient id="paint16_linear" x1="-8390.44" y1="95326.7" x2="-9849.57" y2="95005.9" gradientUnits="userSpaceOnUse">
<stop offset="0.04" stop-color="#9F19AB"/>
<stop offset="0.24" stop-color="#AE25B1"/>
<stop offset="0.65" stop-color="#D744BF"/>
<stop offset="1" stop-color="#FF63CE"/>
</linearGradient>
<linearGradient id="paint17_linear" x1="-8029.64" y1="50179.4" x2="-8917.43" y2="49963.6" gradientUnits="userSpaceOnUse">
<stop offset="0.04" stop-color="#FFA98C"/>
<stop offset="0.32" stop-color="#FFB892"/>
<stop offset="0.86" stop-color="#FEE1A3"/>
<stop offset="1" stop-color="#FEECA8"/>
</linearGradient>
<linearGradient id="paint18_linear" x1="-11821.9" y1="108174" x2="-17238.3" y2="106118" gradientUnits="userSpaceOnUse">
<stop offset="0.04" stop-color="#138BBD"/>
<stop offset="0.23" stop-color="#169AC7"/>
<stop offset="0.59" stop-color="#1FC3DF"/>
<stop offset="1" stop-color="#2AF6FF"/>
</linearGradient>
<linearGradient id="paint19_linear" x1="-8374.74" y1="85192.8" x2="-10457.2" y2="84520.3" gradientUnits="userSpaceOnUse">
<stop offset="0.04" stop-color="#9F19AB"/>
<stop offset="0.24" stop-color="#AE25B1"/>
<stop offset="0.65" stop-color="#D744BF"/>
<stop offset="1" stop-color="#FF63CE"/>
</linearGradient>
<linearGradient id="paint20_linear" x1="-8519.11" y1="54226.5" x2="-10046.5" y2="53751.1" gradientUnits="userSpaceOnUse">
<stop offset="0.04" stop-color="#FFA98C"/>
<stop offset="0.32" stop-color="#FFB892"/>
<stop offset="0.86" stop-color="#FEE1A3"/>
<stop offset="1" stop-color="#FEECA8"/>
</linearGradient>
<linearGradient id="paint21_linear" x1="84.294" y1="53.2635" x2="97.4797" y2="30.8665" gradientUnits="userSpaceOnUse">
<stop stop-color="#9F79C8"/>
<stop offset="0.14" stop-color="#A580CB"/>
<stop offset="0.33" stop-color="#B492D3"/>
<stop offset="0.55" stop-color="#CDB0E1"/>
<stop offset="0.58" stop-color="#D1B4E3"/>
<stop offset="0.76" stop-color="#DBC4E9"/>
<stop offset="1" stop-color="#EBDEF3"/>
</linearGradient>
<linearGradient id="paint22_linear" x1="564.389" y1="362.74" x2="573" y2="351.226" gradientUnits="userSpaceOnUse">
<stop offset="0.04" stop-color="#FFA98C"/>
<stop offset="0.32" stop-color="#FFB892"/>
<stop offset="0.86" stop-color="#FEE1A3"/>
<stop offset="1" stop-color="#FEECA8"/>
</linearGradient>
<linearGradient id="paint23_linear" x1="543.457" y1="348.428" x2="552.068" y2="336.914" gradientUnits="userSpaceOnUse">
<stop offset="0.04" stop-color="#9F19AB"/>
<stop offset="0.24" stop-color="#AE25B1"/>
<stop offset="0.65" stop-color="#D744BF"/>
<stop offset="1" stop-color="#FF63CE"/>
</linearGradient>
<linearGradient id="paint24_linear" x1="522.352" y1="334.093" x2="530.979" y2="322.545" gradientUnits="userSpaceOnUse">
<stop offset="0.04" stop-color="#138BBD"/>
<stop offset="0.23" stop-color="#169AC7"/>
<stop offset="0.59" stop-color="#1FC3DF"/>
<stop offset="1" stop-color="#2AF6FF"/>
</linearGradient>
<linearGradient id="paint25_linear" x1="8243.72" y1="7767.88" x2="12256.6" y2="12223" gradientUnits="userSpaceOnUse">
<stop offset="0.01" stop-color="#9F19AB"/>
<stop offset="0.43" stop-color="#5F27BD"/>
<stop offset="0.9" stop-color="#3D065F"/>
</linearGradient>
<linearGradient id="paint26_linear" x1="8130.68" y1="7777.81" x2="12073.9" y2="12126.2" gradientUnits="userSpaceOnUse">
<stop offset="0.01" stop-color="#9F19AB"/>
<stop offset="0.43" stop-color="#5F27BD"/>
<stop offset="0.9" stop-color="#3D065F"/>
</linearGradient>
<linearGradient id="paint27_linear" x1="8020.1" y1="7783.59" x2="11892.4" y2="12027.8" gradientUnits="userSpaceOnUse">
<stop offset="0.01" stop-color="#9F19AB"/>
<stop offset="0.43" stop-color="#5F27BD"/>
<stop offset="0.9" stop-color="#3D065F"/>
</linearGradient>
<linearGradient id="paint28_linear" x1="7907.78" y1="7790.14" x2="11711.7" y2="11930.9" gradientUnits="userSpaceOnUse">
<stop offset="0.01" stop-color="#9F19AB"/>
<stop offset="0.43" stop-color="#5F27BD"/>
<stop offset="0.9" stop-color="#3D065F"/>
</linearGradient>
<linearGradient id="paint29_linear" x1="7796.29" y1="7794.42" x2="11531.1" y2="11833" gradientUnits="userSpaceOnUse">
<stop offset="0.01" stop-color="#9F19AB"/>
<stop offset="0.43" stop-color="#5F27BD"/>
<stop offset="0.9" stop-color="#3D065F"/>
</linearGradient>
<linearGradient id="paint30_linear" x1="7684.65" y1="7797.39" x2="11350.9" y2="11734.8" gradientUnits="userSpaceOnUse">
<stop offset="0.01" stop-color="#9F19AB"/>
<stop offset="0.43" stop-color="#5F27BD"/>
<stop offset="0.9" stop-color="#3D065F"/>
</linearGradient>
<linearGradient id="paint31_linear" x1="7577.52" y1="7798.23" x2="11175.8" y2="11637.7" gradientUnits="userSpaceOnUse">
<stop offset="0.01" stop-color="#9F19AB"/>
<stop offset="0.43" stop-color="#5F27BD"/>
<stop offset="0.9" stop-color="#3D065F"/>
</linearGradient>
<linearGradient id="paint32_linear" x1="7462.04" y1="7800.53" x2="10994.2" y2="11539.4" gradientUnits="userSpaceOnUse">
<stop offset="0.01" stop-color="#9F19AB"/>
<stop offset="0.43" stop-color="#5F27BD"/>
<stop offset="0.9" stop-color="#3D065F"/>
</linearGradient>
<linearGradient id="paint33_linear" x1="7345.07" y1="7794.32" x2="10808.6" y2="11433.2" gradientUnits="userSpaceOnUse">
<stop offset="0.01" stop-color="#9F19AB"/>
<stop offset="0.43" stop-color="#5F27BD"/>
<stop offset="0.9" stop-color="#3D065F"/>
</linearGradient>
<linearGradient id="paint34_linear" x1="7232.91" y1="7792.27" x2="10630.4" y2="11334.6" gradientUnits="userSpaceOnUse">
<stop offset="0.01" stop-color="#9F19AB"/>
<stop offset="0.43" stop-color="#5F27BD"/>
<stop offset="0.9" stop-color="#3D065F"/>
</linearGradient>
<linearGradient id="paint35_linear" x1="7114.99" y1="7790.5" x2="10448.1" y2="11235" gradientUnits="userSpaceOnUse">
<stop offset="0.01" stop-color="#9F19AB"/>
<stop offset="0.43" stop-color="#5F27BD"/>
<stop offset="0.9" stop-color="#3D065F"/>
</linearGradient>
<linearGradient id="paint36_linear" x1="8106.99" y1="15464.5" x2="12526" y2="18326.8" gradientUnits="userSpaceOnUse">
<stop offset="0.06" stop-color="#200041"/>
<stop offset="0.26" stop-color="#210243"/>
<stop offset="0.36" stop-color="#25084B"/>
<stop offset="0.43" stop-color="#2C1358"/>
<stop offset="0.47" stop-color="#311B61"/>
<stop offset="0.48" stop-color="#351F65"/>
<stop offset="0.5" stop-color="#422C73"/>
<stop offset="0.51" stop-color="#584188"/>
<stop offset="0.52" stop-color="#765FA7"/>
<stop offset="0.53" stop-color="#8770B8"/>
<stop offset="0.54" stop-color="#7E67AE"/>
<stop offset="0.56" stop-color="#5C468D"/>
<stop offset="0.59" stop-color="#442E75"/>
<stop offset="0.61" stop-color="#362066"/>
<stop offset="0.63" stop-color="#311B61"/>
<stop offset="0.67" stop-color="#2A1155"/>
<stop offset="0.75" stop-color="#230446"/>
<stop offset="0.81" stop-color="#200041"/>
<stop offset="1" stop-color="#200041"/>
</linearGradient>
<radialGradient id="paint37_radial" cx="0" cy="0" r="1" gradientUnits="userSpaceOnUse" gradientTransform="translate(8823.26 17293.7) scale(2456.04 7388.91)">
<stop stop-color="#711F56"/>
<stop offset="0.16" stop-color="#6C1E52"/>
<stop offset="0.36" stop-color="#5C1946"/>
<stop offset="0.58" stop-color="#431233"/>
<stop offset="0.82" stop-color="#200918"/>
<stop offset="1"/>
</radialGradient>
<radialGradient id="paint38_radial" cx="0" cy="0" r="1" gradientUnits="userSpaceOnUse" gradientTransform="translate(9796.79 17689.5) scale(1689.42 4593.29)">
<stop stop-color="#AF8AFC"/>
<stop offset="1" stop-color="#10054D"/>
</radialGradient>
<linearGradient id="paint39_linear" x1="9932.7" y1="21958.7" x2="4871.78" y2="21376" gradientUnits="userSpaceOnUse">
<stop offset="0.19" stop-color="#3D065F"/>
<stop offset="0.93" stop-color="#3D065F"/>
</linearGradient>
<linearGradient id="paint40_linear" x1="9604.33" y1="26362.5" x2="1720.66" y2="20362.9" gradientUnits="userSpaceOnUse">
<stop stop-color="#311B61"/>
<stop offset="0.2" stop-color="#290F52"/>
<stop offset="0.49" stop-color="#200041"/>
<stop offset="1" stop-color="#0F001F"/>
</linearGradient>
<linearGradient id="paint41_linear" x1="7475.14" y1="20155.7" x2="8821.78" y2="20155.7" gradientUnits="userSpaceOnUse">
<stop stop-color="#311B61"/>
<stop offset="0.2" stop-color="#290F52"/>
<stop offset="0.49" stop-color="#200041"/>
<stop offset="1" stop-color="#0F001F"/>
</linearGradient>
<linearGradient id="paint42_linear" x1="7098.13" y1="15410.1" x2="13536.1" y2="19627.8" gradientUnits="userSpaceOnUse">
<stop offset="0.01" stop-color="#9F19AB"/>
<stop offset="0.43" stop-color="#5F27BD"/>
<stop offset="0.9" stop-color="#3D065F"/>
</linearGradient>
<linearGradient id="paint43_linear" x1="-6239.11" y1="141916" x2="-8578.77" y2="141547" gradientUnits="userSpaceOnUse">
<stop offset="0.04" stop-color="#138BBD"/>
<stop offset="0.23" stop-color="#169AC7"/>
<stop offset="0.59" stop-color="#1FC3DF"/>
<stop offset="1" stop-color="#2AF6FF"/>
</linearGradient>
<linearGradient id="paint44_linear" x1="-6284.12" y1="78318.5" x2="-7626.23" y2="77947" gradientUnits="userSpaceOnUse">
<stop offset="0.04" stop-color="#9F19AB"/>
<stop offset="0.24" stop-color="#AE25B1"/>
<stop offset="0.65" stop-color="#D744BF"/>
<stop offset="1" stop-color="#FF63CE"/>
</linearGradient>
<linearGradient id="paint45_linear" x1="-6004.98" y1="47169.6" x2="-6864.95" y2="46939.8" gradientUnits="userSpaceOnUse">
<stop offset="0.04" stop-color="#FFA98C"/>
<stop offset="0.32" stop-color="#FFB892"/>
<stop offset="0.86" stop-color="#FEE1A3"/>
<stop offset="1" stop-color="#FEECA8"/>
</linearGradient>
</defs>
</svg>
