<svg width="78" height="80" viewBox="0 0 78 80" fill="none" xmlns="http://www.w3.org/2000/svg">
<path d="M68.0922 65.8558C35.0728 81.5702 14.5806 68.4224 1.46283 60.4367C0.651114 59.9334 -0.728526 60.5543 0.468501 61.9293C4.83867 67.2282 19.1606 80.0001 37.855 80.0001C56.5622 80.0001 67.6912 69.7926 69.0834 68.012C70.4662 66.2464 69.4894 65.2725 68.0919 65.8558H68.0922ZM77.3656 60.7344C76.4789 59.5798 71.9738 59.3645 69.1386 59.7128C66.299 60.0511 62.0368 61.7865 62.4073 62.8285C62.5975 63.2189 62.9856 63.0438 64.9363 62.8684C66.8924 62.6732 72.372 61.9817 73.5138 63.4743C74.6609 64.9772 71.7661 72.1368 71.2374 73.2915C70.7266 74.4461 71.4326 74.7439 72.3921 73.9748C73.3384 73.2061 75.0516 71.2153 76.2012 68.3979C77.343 65.5652 78.0393 61.6136 77.3653 60.7344H77.3656Z" fill="white"/>
<path fill-rule="evenodd" clip-rule="evenodd" d="M45.8905 33.7904C45.8905 37.9136 45.9947 41.3522 43.9107 45.0139C42.2285 47.9912 39.564 49.8221 36.587 49.8221C32.5231 49.8221 30.1563 46.7258 30.1563 42.1561C30.1563 33.1352 38.239 31.498 45.8905 31.498V33.7904ZM56.5634 59.5872C55.8637 60.2122 54.8515 60.2571 54.0626 59.8401C50.5497 56.9226 49.9243 55.5681 47.9893 52.7843C42.184 58.7089 38.0755 60.4801 30.5435 60.4801C21.6419 60.4801 14.7051 54.9873 14.7051 43.9869C14.7051 35.3981 19.3645 29.5479 25.9882 26.6901C31.7342 24.1592 39.7576 23.7127 45.8905 23.0134V21.6438C45.8905 19.128 46.0838 16.1509 44.6104 13.9778C43.3151 12.0277 40.8442 11.2238 38.6707 11.2238C34.6369 11.2238 31.0345 13.2928 30.1563 17.5798C29.9774 18.5327 29.2781 19.4706 28.3255 19.5152L18.0542 18.4138C17.1911 18.2199 16.2385 17.5205 16.4766 16.1955C18.8434 3.75142 30.0816 0 40.1442 0C45.2947 0 52.0228 1.3696 56.0868 5.26974C61.2373 10.0776 60.7459 16.4932 60.7459 23.4746V39.9678C60.7459 44.9248 62.8001 47.0979 64.7352 49.7775C65.4198 50.7301 65.5688 51.8766 64.7053 52.5907C62.5469 54.3918 58.7064 57.7413 56.5929 59.617L56.5631 59.5872" fill="white"/>
<path d="M68.0922 65.8558C35.0728 81.5702 14.5806 68.4224 1.46283 60.4367C0.651114 59.9334 -0.728526 60.5543 0.468501 61.9293C4.83867 67.2282 19.1606 80.0001 37.855 80.0001C56.5622 80.0001 67.6912 69.7926 69.0834 68.012C70.4662 66.2464 69.4894 65.2725 68.0919 65.8558H68.0922ZM77.3656 60.7344C76.4789 59.5798 71.9738 59.3645 69.1386 59.7128C66.299 60.0511 62.0368 61.7865 62.4073 62.8285C62.5975 63.2189 62.9856 63.0438 64.9363 62.8684C66.8924 62.6732 72.372 61.9817 73.5138 63.4743C74.6609 64.9772 71.7661 72.1368 71.2374 73.2915C70.7266 74.4461 71.4326 74.7439 72.3921 73.9748C73.3384 73.2061 75.0516 71.2153 76.2012 68.3979C77.343 65.5652 78.0393 61.6136 77.3653 60.7344H77.3656Z" fill="white"/>
<path fill-rule="evenodd" clip-rule="evenodd" d="M45.8905 33.7904C45.8905 37.9136 45.9947 41.3522 43.9107 45.0139C42.2285 47.9912 39.564 49.8221 36.587 49.8221C32.5231 49.8221 30.1563 46.7258 30.1563 42.1561C30.1563 33.1352 38.239 31.498 45.8905 31.498V33.7904ZM56.5634 59.5872C55.8637 60.2122 54.8515 60.2571 54.0626 59.8401C50.5497 56.9226 49.9243 55.5681 47.9893 52.7843C42.184 58.7089 38.0755 60.4801 30.5435 60.4801C21.6419 60.4801 14.7051 54.9873 14.7051 43.9869C14.7051 35.3981 19.3645 29.5479 25.9882 26.6901C31.7342 24.1592 39.7576 23.7127 45.8905 23.0134V21.6438C45.8905 19.128 46.0838 16.1509 44.6104 13.9778C43.3151 12.0277 40.8442 11.2238 38.6707 11.2238C34.6369 11.2238 31.0345 13.2928 30.1563 17.5798C29.9774 18.5327 29.2781 19.4706 28.3255 19.5152L18.0542 18.4138C17.1911 18.2199 16.2385 17.5205 16.4766 16.1955C18.8434 3.75142 30.0816 0 40.1442 0C45.2947 0 52.0228 1.3696 56.0868 5.26974C61.2373 10.0776 60.7459 16.4932 60.7459 23.4746V39.9678C60.7459 44.9248 62.8001 47.0979 64.7352 49.7775C65.4198 50.7301 65.5688 51.8766 64.7053 52.5907C62.5469 54.3918 58.7064 57.7413 56.5929 59.617L56.5631 59.5872" fill="white"/>
</svg>
