<svg width="58" height="75" viewBox="0 0 58 75" fill="none" xmlns="http://www.w3.org/2000/svg">
<path d="M4.21627 24.1991C3.05409 24.1991 2.06803 24.648 1.25747 25.5458C0.446906 26.4436 0.0415039 27.5209 0.0415039 28.7782V48.0837C0.0415039 49.3726 0.446784 50.4638 1.25747 51.3617C2.06803 52.2594 3.05409 52.7085 4.21627 52.7085C5.37759 52.7085 6.35768 52.2596 7.15568 51.3617C7.95209 50.4639 8.35139 49.3726 8.35139 48.0837V28.7782C8.35139 27.5207 7.94611 26.4436 7.13543 25.5458C6.32475 24.648 5.35149 24.1991 4.21627 24.1991ZM37.78 6.86861L40.6581 0.988113C40.847 0.5988 40.7798 0.300263 40.4558 0.0903415C40.1042 -0.0906717 39.8341 0.00105068 39.6453 0.359025L36.727 6.28653C34.1591 5.02903 31.4431 4.39913 28.5791 4.39913C25.7144 4.39913 22.9982 5.02917 20.4313 6.28653L17.5128 0.359025C17.3232 0.00105068 17.053 -0.0898612 16.7023 0.0903415C16.3776 0.301208 16.3104 0.5988 16.5 0.988113L19.3782 6.86861C16.4598 8.51705 14.1354 10.8128 12.406 13.7609C10.6766 16.7106 9.81152 19.934 9.81152 23.4367H47.3058C47.3058 19.9348 46.4406 16.7113 44.7113 13.7609C42.9818 10.8128 40.6709 8.51705 37.78 6.86861ZM21.1403 15.4219C20.8291 15.7674 20.4574 15.9394 20.0252 15.9394C19.5923 15.9394 19.2281 15.7674 18.931 15.4219C18.6339 15.078 18.4853 14.6679 18.4853 14.1876C18.4853 13.709 18.6339 13.2981 18.931 12.9534C19.2281 12.6094 19.5931 12.4375 20.0252 12.4375C20.4574 12.4375 20.8291 12.6094 21.1403 12.9534C21.4509 13.2989 21.6068 13.709 21.6068 14.1876C21.606 14.667 21.4501 15.078 21.1403 15.4219ZM38.2255 15.4219C37.9278 15.7674 37.5628 15.9394 37.1314 15.9394C36.6983 15.9394 36.3267 15.7674 36.0161 15.4219C35.7049 15.078 35.5497 14.6679 35.5497 14.1876C35.5497 13.709 35.7049 13.2981 36.0161 12.9534C36.3267 12.6094 36.6983 12.4375 37.1314 12.4375C37.5635 12.4375 37.9277 12.6094 38.2255 12.9534C38.5229 13.2989 38.6712 13.709 38.6712 14.1876C38.6712 14.667 38.5227 15.078 38.2255 15.4219ZM9.97251 54.9529C9.97251 56.331 10.4046 57.4976 11.269 58.455C12.134 59.4123 13.1873 59.8909 14.4307 59.8909H17.4305L17.4716 70.0836C17.4716 71.3707 17.8769 72.4636 18.6874 73.3615C19.498 74.2594 20.4714 74.7083 21.6059 74.7083C22.7673 74.7083 23.754 74.2594 24.5647 73.3615C25.3754 72.4636 25.7806 71.3708 25.7806 70.0836V59.8918H31.3743V70.0836C31.3743 71.3707 31.7795 72.4636 32.5901 73.3615C33.4008 74.2594 34.3866 74.7083 35.5489 74.7083C36.7104 74.7083 37.6971 74.2594 38.5077 73.3615C39.3184 72.4636 39.7236 71.3708 39.7236 70.0836V59.8918H42.7639C43.9797 59.8918 45.0194 59.4131 45.8854 58.4558C46.7496 57.4984 47.1819 56.3318 47.1819 54.9538V25.0514H9.97251V54.9529ZM52.9403 24.1991C51.8049 24.1991 50.8324 24.6414 50.0217 25.5235C49.2111 26.4072 48.8059 27.4928 48.8059 28.7782V48.0837C48.8059 49.3726 49.211 50.4638 50.0217 51.3617C50.8324 52.2596 51.8056 52.7085 52.9403 52.7085C54.1017 52.7085 55.0884 52.2596 55.8991 51.3617C56.7097 50.4638 57.1149 49.3726 57.1149 48.0837V28.7782C57.1149 27.4926 56.7097 26.4072 55.8991 25.5235C55.0884 24.6414 54.1017 24.1991 52.9403 24.1991Z" fill="white"/>
</svg>
