<svg width="62" height="75" viewBox="0 0 62 75" fill="none" xmlns="http://www.w3.org/2000/svg">
<g clip-path="url(#clip0)">
<path d="M51.2054 71.3761C47.3238 75.2868 43.0411 74.6772 38.959 72.8333C34.6191 70.9523 30.6515 70.8333 26.0681 72.8333C20.3603 75.3909 17.331 74.6474 13.8934 71.3761C-5.51457 50.6325 -2.64992 19.0339 19.4078 17.8443C24.7575 18.1417 28.5031 20.9149 31.6542 21.1454C36.3379 20.1566 40.821 17.3238 45.8342 17.6956C51.8571 18.2012 56.3617 20.6696 59.3696 25.1082C46.98 32.8406 49.9163 49.7923 61.2961 54.5507C59.0187 60.7589 56.0967 66.8928 51.1982 71.4281L51.2054 71.3761ZM31.2245 17.6212C30.6444 8.40187 37.8418 0.818204 46.1206 0.074707C47.2593 10.7067 36.8105 18.6621 31.2245 17.6212Z" fill="white"/>
</g>
<defs>
<clipPath id="clip0">
<rect width="60.3007" height="74.3497" fill="white" transform="translate(0.930664)"/>
</clipPath>
</defs>
</svg>
