<svg width="80" height="80" viewBox="0 0 80 80" fill="none" xmlns="http://www.w3.org/2000/svg">
<g clip-path="url(#clip0)">
<path d="M39.9995 50.252V19.7439C39.1345 19.8239 38.2796 19.9589 37.4096 19.9989H12.5012C11.1213 19.9989 10.0013 21.1188 10.0013 22.4987V24.9986H2.5018C1.12188 24.9986 0.00195312 26.1185 0.00195312 27.4984V42.4975C0.00195312 43.8774 1.12188 44.9973 2.5018 44.9973H10.0013V47.4972C10.0013 48.8771 11.1213 49.997 12.5012 49.997H14.0161L24.0655 76.7853C24.6804 78.3902 26.0553 79.5552 27.7452 79.8951C28.0802 79.9651 28.4152 80.0001 28.7452 80.0001C30.0801 80.0001 31.35 79.4702 32.2599 78.5202L38.2646 72.5656C39.7995 71.0307 40.1645 68.6359 39.1845 66.781L30.795 49.997H37.4346C38.2946 50.037 39.1445 50.172 39.9995 50.252Z" fill="white"/>
<path d="M79.5878 1.20992C79.5378 1.12493 79.4928 1.05493 79.4278 0.974939C79.1529 0.624961 78.8079 0.339979 78.3829 0.174989C78.3679 0.169989 78.3579 0.149991 78.3429 0.144991C78.2929 0.129992 78.2479 0.15499 78.1979 0.139991C77.9729 0.0749953 77.748 0 77.498 0C77.328 0 77.178 0.0649959 77.013 0.0999938C76.918 0.119993 76.828 0.124992 76.733 0.15499C76.303 0.294982 75.9331 0.534967 75.6381 0.864946C75.6181 0.884945 75.5881 0.889944 75.5681 0.909943C67.7736 10.3744 56.9043 16.704 45 19.0238V50.9768C56.9043 53.2967 67.7736 59.6213 75.5681 69.0857C75.5881 69.1107 75.6231 69.1207 75.6481 69.1507C75.8231 69.3457 76.0381 69.5007 76.268 69.6307C76.343 69.6756 76.403 69.7406 76.478 69.7756C76.793 69.9106 77.133 69.9956 77.498 69.9956C77.7829 69.9956 78.0629 69.9456 78.3429 69.8506C78.3579 69.8456 78.3679 69.8256 78.3829 69.8206C78.8079 69.6556 79.1529 69.3757 79.4278 69.0207C79.4878 68.9407 79.5328 68.8707 79.5878 68.7857C79.8278 68.4007 79.9978 67.9758 79.9978 67.4958V2.49984C79.9978 2.01987 79.8278 1.5949 79.5878 1.20992Z" fill="white"/>
</g>
<defs>
<clipPath id="clip0">
<rect width="80" height="80" fill="white"/>
</clipPath>
</defs>
</svg>
