<svg width="70" height="80" viewBox="0 0 70 80" fill="none" xmlns="http://www.w3.org/2000/svg">
<path d="M69.0413 38.2136L61.0559 33.6554C61.5528 35.609 61.8955 37.6139 62.084 39.6702C62.2554 41.5038 62.3239 43.3202 62.2554 45.1366L69.0413 41.1782C69.5725 40.8697 69.8981 40.3043 69.8981 39.7045C69.9152 39.0876 69.5725 38.5221 69.0413 38.2136ZM48.9921 50.6716C47.7754 49.5406 46.6787 48.2897 45.5477 47.073C44.571 46.0277 43.3886 45.5308 41.9491 45.5479C36.4656 45.565 30.982 45.5822 25.4814 45.5479C24.4532 45.5479 23.5621 45.7535 22.7739 46.1991C22.294 46.4732 21.8314 46.8331 21.4201 47.2958C19.7408 49.1122 18.0272 50.9115 16.2621 52.6251C15.3025 53.5504 14.2401 54.4073 13.1262 55.1612C10.5387 56.892 7.38565 55.9152 6.20326 53.0364C5.10655 50.346 5.03801 47.4843 4.88378 44.6397C4.86665 44.2627 4.88378 43.8857 4.88378 43.5087C4.96946 36.0031 6.71735 28.9944 11.0699 22.774C13.5204 19.2611 16.8276 17.2391 21.2487 17.4276C23.9734 17.5475 26.441 18.5072 28.7201 19.9637C31.7532 21.9172 34.7691 22.0543 37.8022 20.3578L2.57041 0.222948C2.03919 -0.085502 1.37089 -0.0683659 0.856804 0.240084C0.325586 0.548533 0 1.09689 0 1.71379L0.342722 78.295C0.342722 78.9119 0.668307 79.4773 1.19953 79.7687C1.73074 80.0771 2.38192 80.0771 2.91313 79.7687L57.3716 47.9984L50.4315 52.0425C49.9688 51.5798 49.4719 51.1171 48.9921 50.6716Z" fill="white"/>
<path d="M46.9204 26.0299C47.3317 26.304 47.8286 26.4583 48.3427 26.4583C49.0453 26.4583 49.6622 26.1669 50.1249 25.7043C50.519 25.293 50.7932 24.7446 50.8446 24.1449C50.8617 24.0421 50.8617 23.9393 50.8617 23.8536C50.8446 22.4827 49.6965 21.386 48.2913 21.386C46.8861 21.4031 45.738 22.5684 45.7552 23.9907C45.7552 24.1449 45.7723 24.282 45.8066 24.4362C45.9436 25.0874 46.3549 25.67 46.9204 26.0299ZM41.6425 32.2331C42.9962 32.2502 44.1786 31.1193 44.2129 29.7484C44.2472 28.4118 43.1162 27.1951 41.7967 27.1266H41.6768C40.3059 27.1094 39.1578 28.2404 39.1406 29.6284V29.8512C39.2263 31.1878 40.2716 32.216 41.6425 32.2331ZM51.9584 29.6284C51.9241 31.085 53.0209 32.216 54.4603 32.2331C54.7516 32.2331 55.0429 32.1817 55.3171 32.0789C56.2767 31.7362 56.9964 30.8108 57.0307 29.7484C57.065 28.3775 55.8654 27.1266 54.4946 27.1094C54.1518 27.1094 53.8091 27.178 53.5178 27.2979C52.6096 27.692 51.9756 28.5831 51.9584 29.6284ZM48.2913 38.1108C48.8225 38.1108 49.3023 37.9737 49.7136 37.7166C50.3819 37.2882 50.8274 36.5342 50.8446 35.6603C50.8617 34.9749 50.6218 34.358 50.2105 33.8782C49.765 33.3641 49.0967 33.0214 48.3598 33.0214C47.2803 33.0042 46.2864 33.7582 45.9265 34.7521C45.8408 34.992 45.7894 35.249 45.7894 35.5061V35.5232C45.738 36.9284 46.869 38.0936 48.2913 38.1108Z" fill="white"/>
<path fill-rule="evenodd" clip-rule="evenodd" d="M25.241 30.9478C23.8701 30.9992 22.4992 30.9649 21.0769 30.9649V28.1375C21.0598 25.3443 21.4367 25.7213 18.6264 25.687C17.2384 25.6699 17.2213 25.7042 17.2213 27.1093V30.9478C15.7476 30.9478 14.4281 30.9992 13.1086 30.9307C12.1833 30.8964 11.8406 31.2563 11.9434 32.1473C11.9948 32.6443 11.9948 33.1584 11.9434 33.6553C11.8406 34.5806 12.2518 34.872 13.1429 34.8206C14.4795 34.7691 15.8161 34.8034 17.2384 34.8034C17.2384 35.7802 17.2213 36.6198 17.2384 37.4595C17.2727 40.5097 16.7757 40.0813 20.0487 40.1327C20.8027 40.1499 21.1283 39.8586 21.094 39.0703C21.0598 37.6994 21.0769 36.3114 21.0769 34.7863C22.0365 34.7863 22.8762 34.8034 23.7158 34.7863C26.8003 34.7349 26.3205 35.249 26.3891 32.0788C26.4062 31.2734 26.1149 30.9135 25.241 30.9478Z" fill="white"/>
</svg>
