<svg width="78" height="80" viewBox="0 0 78 80" fill="none" xmlns="http://www.w3.org/2000/svg">
<path d="M17.872 0.252876C9.61199 1.6776 2.96616 7.57533 0.871092 15.3285C0.115495 18.1283 0.0639767 19.7684 0.14984 41.4872C0.201358 61.4335 0.218531 61.8973 0.561984 63.438C2.46815 71.7379 8.58162 77.6522 17.271 79.6071C18.4044 79.8556 19.8469 79.9053 29.1373 79.955C38.754 80.0212 39.75 80.0047 40.0076 79.7562C40.2652 79.5077 40.2824 76.3103 40.2824 40.0625C40.2824 13.1914 40.2309 0.534508 40.1107 0.302574C39.9389 0.00437927 39.647 -0.0121918 29.5838 0.00437927C21.4096 0.0209427 18.9539 0.0706406 17.872 0.252876ZM33.4133 40.0128V73.5768L26.424 73.494C19.9843 73.4277 19.2974 73.3946 18.0094 73.0798C12.4798 71.7048 8.37555 67.5963 7.22498 62.2452C6.84718 60.572 6.84718 19.3542 7.20781 17.7141C8.23817 13.0589 11.5868 9.19886 16.1033 7.45937C18.37 6.58133 19.4176 6.48193 26.7675 6.46536L33.4133 6.4488V40.0128Z" fill="white"/>
<path d="M17.0003 24.3164C16.0506 24.4909 14.6033 25.189 13.8345 25.8434C12.2516 27.1669 11.4677 29.0429 11.5883 31.2535C11.6486 32.4025 11.7239 32.7079 12.2064 33.6386C12.9149 35.0493 13.9852 36.0819 15.4476 36.78C16.4576 37.2599 16.7139 37.3181 18.0254 37.3617C19.2164 37.4054 19.6385 37.3617 20.4375 37.0999C23.7088 36.0383 25.6837 32.9696 25.1259 29.8283C24.4777 26.0906 20.7993 23.5892 17.0003 24.3164Z" fill="white"/>
<path d="M42.7335 0.12764C42.6648 0.17733 42.6133 18.1299 42.6133 40.0241C42.6133 76.1446 42.6304 79.8047 42.888 79.9041C43.3515 80.0697 56.6733 80.0034 58.3214 79.8378C65.2913 79.076 71.4372 74.9853 74.7848 68.9073C75.214 68.1289 75.7805 66.8205 76.0723 66.009C77.1539 62.8955 77.1195 63.7235 77.1195 39.9248C77.1195 20.9288 77.0852 18.0968 76.8449 16.8878C75.1453 8.25931 68.3299 1.75066 59.3686 0.260132C58.1668 0.0613937 56.3128 0.0117111 50.3386 0.0117111C46.2184 0.0117111 42.785 0.0613937 42.7335 0.12764ZM61.0681 36.1984C63.7462 36.8775 65.9436 38.8483 66.8363 41.3656C67.4028 42.9224 67.3857 45.2079 66.8192 46.6321C65.772 49.2489 63.7119 51.0872 61.0681 51.7662C56.7763 52.8427 52.2098 50.3419 50.9566 46.2347C50.5789 44.976 50.5961 42.8561 51.0253 41.5644C52.3128 37.5068 56.7763 35.122 61.0681 36.1984Z" fill="white"/>
</svg>
