<svg width="78" height="80" viewBox="0 0 78 80" fill="none" xmlns="http://www.w3.org/2000/svg">
<path d="M52.7289 74.9152C52.1766 74.9152 51.7289 74.4674 51.7289 73.9152V67.4409C51.7289 66.8886 51.2812 66.4409 50.7289 66.4409H26.5485C25.9962 66.4409 25.5485 66.8886 25.5485 67.4409V73.9152C25.5485 74.4674 25.1007 74.9152 24.5485 74.9152H19.7803C19.228 74.9152 18.7803 75.3629 18.7803 75.9152V79C18.7803 79.5523 19.228 80 19.7803 80H57.4584C58.0107 80 58.4584 79.5523 58.4584 79V75.9152C58.4584 75.3629 58.0107 74.9152 57.4584 74.9152H52.7289Z" fill="white"/>
<path d="M1.11914 0C0.566856 0 0.119141 0.447715 0.119141 1V60.356C0.119141 60.9083 0.566856 61.356 1.11914 61.356H4.63086H72.6074H76.1191C76.6714 61.356 77.1191 60.9083 77.1191 60.356V1C77.1191 0.447717 76.6714 0 76.1191 0H1.11914ZM34.5607 23.1785C34.5607 23.7307 34.113 24.1784 33.5607 24.1784H30.2292C29.6769 24.1784 29.2292 24.6262 29.2292 25.1784V41.1849C29.2292 41.7372 28.7815 42.1849 28.2292 42.1849H25.7175C25.1652 42.1849 24.7175 41.7372 24.7175 41.1849V25.1784C24.7175 24.6262 24.2698 24.1784 23.7175 24.1784H20.3861C19.8339 24.1784 19.3861 23.7307 19.3861 23.1784V20.0936C19.3861 19.5413 19.8339 19.0936 20.3861 19.0936H33.5607C34.113 19.0936 34.5607 19.5413 34.5607 20.0936V23.1785ZM49.3856 40.5284C49.0381 41.3331 47.8972 41.3331 47.5496 40.5284L39.444 21.7632C39.2394 21.2896 39.4287 20.7381 39.881 20.4899L42.1764 19.2306C42.6931 18.9471 43.3417 19.1697 43.5754 19.7108L47.5496 28.9114C47.8972 29.716 49.0381 29.716 49.3856 28.9114L53.3598 19.7108C53.5935 19.1697 54.2421 18.9471 54.7588 19.2306L57.0542 20.4899C57.5065 20.7381 57.6958 21.2896 57.4913 21.7632L49.3856 40.5284Z" fill="white"/>
</svg>
