<svg width="109" height="109" viewBox="0 0 109 109" fill="none" xmlns="http://www.w3.org/2000/svg">
<g clip-path="url(#clip0)">
<path d="M29.7937 105.461L4.19434 3.65381L105.444 32.0882" fill="white"/>
<path d="M42.2979 61.7009L48.6935 87.1653" stroke="#4D1682" stroke-width="3" stroke-miterlimit="10"/>
<path d="M67.5597 68.8559L42.2979 61.7009" stroke="#4D1682" stroke-width="3" stroke-miterlimit="10"/>
<path d="M48.6943 87.1653L67.5606 68.856" stroke="#4D1682" stroke-width="3" stroke-miterlimit="10"/>
<path d="M48.6935 87.1654L23.4316 80.0104" stroke="#4D1682" stroke-width="3" stroke-miterlimit="10"/>
<path d="M23.4316 80.0104L29.8273 105.492L48.6935 87.1654" stroke="#4D1682" stroke-width="3" stroke-miterlimit="10"/>
<path d="M23.4316 80.0103L42.2979 61.7009" stroke="#4D1682" stroke-width="3" stroke-miterlimit="10"/>
<path d="M42.2979 61.701L61.181 43.3748" stroke="#4D1682" stroke-width="3" stroke-miterlimit="10"/>
<path d="M61.1826 43.3747L80.0489 25.0653" stroke="#4D1682" stroke-width="3" stroke-miterlimit="10"/>
<path d="M54.7861 17.9104L61.1818 43.3748" stroke="#4D1682" stroke-width="3" stroke-miterlimit="10"/>
<path d="M61.1801 43.3762L35.9014 36.238" stroke="#4D1682" stroke-width="3" stroke-miterlimit="10"/>
<path d="M35.9014 36.238L42.297 61.7024" stroke="#4D1682" stroke-width="3" stroke-miterlimit="10"/>
<path d="M42.298 61.7024L17.0361 54.5474" stroke="#4D1682" stroke-width="3" stroke-miterlimit="10"/>
<path d="M17.0361 54.5474L23.4318 80.0117" stroke="#4D1682" stroke-width="3" stroke-miterlimit="10"/>
<path d="M10.6426 29.0815L17.0382 54.5459" stroke="#4D1682" stroke-width="3" stroke-miterlimit="10"/>
<path d="M35.9045 36.2365L10.6426 29.0815" stroke="#4D1682" stroke-width="3" stroke-miterlimit="10"/>
<path d="M17.0361 54.5474L35.9024 36.238" stroke="#4D1682" stroke-width="3" stroke-miterlimit="10"/>
<path d="M35.9014 36.2198L54.7845 17.9104" stroke="#4D1682" stroke-width="3" stroke-miterlimit="10"/>
<path d="M54.7856 17.9118L29.5068 10.7568" stroke="#4D1682" stroke-width="3" stroke-miterlimit="10"/>
<path d="M29.5068 10.7568L35.9025 36.2212" stroke="#4D1682" stroke-width="3" stroke-miterlimit="10"/>
<path d="M10.6407 29.0816L4.24512 3.60034L29.507 10.7553" stroke="#4D1682" stroke-width="3" stroke-miterlimit="10"/>
<path d="M10.6426 29.0831L29.5088 10.7568" stroke="#4D1682" stroke-width="3" stroke-miterlimit="10"/>
<path d="M86.4435 50.5297L105.31 32.2203L80.0479 25.0653" stroke="#4D1682" stroke-width="3" stroke-miterlimit="10"/>
<path d="M80.0479 25.0653L86.4435 50.5297" stroke="#4D1682" stroke-width="3" stroke-miterlimit="10"/>
<path d="M86.4445 50.5298L61.1826 43.3748" stroke="#4D1682" stroke-width="3" stroke-miterlimit="10"/>
<path d="M61.1826 43.3748L67.5614 68.856" stroke="#4D1682" stroke-width="3" stroke-miterlimit="10"/>
<path d="M67.5605 68.8546L86.4437 50.5283" stroke="#4D1682" stroke-width="3" stroke-miterlimit="10"/>
<path d="M80.048 25.0654L54.7861 17.9104" stroke="#4D1682" stroke-width="3" stroke-miterlimit="10"/>
</g>
<defs>
<clipPath id="clip0">
<rect width="108" height="108" fill="white" transform="translate(0.819336 0.547363)"/>
</clipPath>
</defs>
</svg>
