<svg width="176" height="38" viewBox="0 0 176 38" fill="none" xmlns="http://www.w3.org/2000/svg">
<path d="M153.817 31.4045H143.531V0.547363H173.103V21.1188H169.246L174.388 36.5474H164.103L156.82 11.0474H164.103V9.54736H153.817V31.4045Z" fill="white" stroke="#1F0785"/>
<path d="M143.531 31.4045H116.531V0.547363H119.103H143.531V10.8331V19.8331V31.4045Z" fill="white"/>
<path d="M143.531 19.8331V31.4045H116.531V0.547363H119.103H143.531V10.8331M143.531 19.8331H126.817M143.531 19.8331V10.8331M143.531 10.8331H128.103H126.817H143.531Z" stroke="#1F0785"/>
<path d="M67.6754 31.4045H57.3896L67.6754 0.547363H79.2468L89.5325 31.4045H88.2468H79.2468L74.1039 17.2616L67.6754 31.4045Z" fill="white" stroke="#1F0785"/>
<path d="M116.535 31.4045H89.5347V19.8331H102.392L88.249 10.8331V0.547363H115.673V10.8331H104.963L116.535 19.8331V31.4045Z" fill="white" stroke="#1F0785"/>
<path d="M30.3931 31.4045V0.547363H41.9646V10.8331H47.1074V0.547363H57.3931V31.4045H48.3931V19.8331H41.9646V31.4045H30.3931Z" fill="white"/>
<path d="M30.3931 0.547363V31.4045H41.9646V19.8331H48.3931V31.4045H57.3931V0.547363H47.1074V10.8331H41.9646V0.547363H29.1074" stroke="#1F0785"/>
<path d="M11.1051 31.4045H0.819336V0.547363H30.3908V21.1188H12.8193V11.0474H22.6765V9.54736H11.1051V31.4045Z" fill="white" stroke="#1F0785"/>
</svg>
