<svg width="101" height="101" viewBox="0 0 101 101" fill="none" xmlns="http://www.w3.org/2000/svg">
<path d="M91.3671 5.19724C90.9871 4.78324 90.4531 4.54724 89.8911 4.54724H11.7471C11.1851 4.54724 10.6511 4.78324 10.2711 5.19724C9.89107 5.61124 9.70507 6.16724 9.75507 6.72524L16.7951 85.5792C16.8691 86.4032 17.4431 87.0972 18.2391 87.3252L50.2611 96.4712C50.4391 96.5212 50.6231 96.5472 50.8091 96.5472C50.9951 96.5472 51.1791 96.5212 51.3571 96.4712L83.4051 87.3252C84.2011 87.0972 84.7751 86.4032 84.8491 85.5792L91.8851 6.72524C91.9331 6.16524 91.7451 5.61124 91.3671 5.19724ZM74.5131 32.3852H36.8911L37.7851 42.5652H73.6071L70.9211 72.6452L50.8071 78.7272L50.6091 78.6672L30.7251 72.6432L29.6411 60.3832H39.3791L39.8071 65.1432L50.9191 67.4712L61.8331 65.1392L62.9951 52.2692H28.9091L26.2671 22.6552H75.3851L74.5131 32.3852Z" fill="white"/>
</svg>
