<svg width="163" height="58" viewBox="0 0 163 58" fill="none" xmlns="http://www.w3.org/2000/svg">
<g clip-path="url(#clip0)">
<path d="M146.35 1.89726C152.42 1.89726 156.851 3.15073 160.031 4.59704L157.381 14.3838C155.214 13.3231 151.408 11.8286 146.157 11.8286C140.907 11.8286 138.354 14.1909 138.354 16.9871C138.354 20.4101 141.34 21.9528 148.277 24.5562C157.718 28.0755 162.198 32.993 162.102 40.5621C162.102 49.5774 155.165 57.1947 140.473 57.1947C134.356 57.1947 128.334 55.6037 125.299 53.9164L127.756 43.8886C131.032 45.5277 136.042 47.2151 141.196 47.2151C146.784 47.2151 149.722 44.9492 149.722 41.4298C149.722 38.0551 147.217 36.1749 140.762 33.8608C133.055 31.161 127.708 27.1595 126.359 21.085V36.657C126.359 51.8915 119.037 57.2429 107.284 57.2429C104.49 57.2429 100.877 56.7608 98.4683 55.9894L99.8171 46.2027C101.503 46.7812 103.623 47.1669 106.031 47.1669C111.137 47.1669 114.317 44.8528 114.317 36.5124V2.76504H126.407V14.8659C127.997 7.34504 135.223 1.89726 146.35 1.89726ZM16.4816 2.37936C23.9481 2.37936 29.295 3.82568 32.8597 6.67009C35.8944 9.08062 38.0621 12.9375 38.4957 17.4692H60.5579L64.3634 23.9294C65.4713 25.9061 66.5311 27.8827 67.5427 29.7147H67.6872C68.7469 27.6416 69.7104 25.665 70.7219 23.7366L74.1421 17.4692H97.1196V56.4233H73.7567L69.8549 49.4328C68.7469 47.5044 67.7835 45.5277 66.8201 43.5511H66.5793C65.6158 45.6242 64.6042 47.5044 63.6408 49.4328L59.9799 56.4233H37.1469V26.581C36.328 28.6059 35.1719 30.3896 33.6304 31.836C29.5359 35.741 23.4182 37.4766 16.2407 37.4766C14.6511 37.4766 13.206 37.3802 12.0981 37.2355V56.3751H0.103516V3.4882C3.86084 2.86147 9.11146 2.37936 16.4816 2.37936ZM85.0287 20.7476L74.4793 36.0303L85.0287 52.6629V20.7476ZM49.2378 20.7476V52.6147L59.9317 36.6088L49.2378 20.7476ZM17.1078 11.5394C14.6511 11.5394 12.9651 11.7804 12.0981 12.0215V27.7863C13.1096 28.0273 14.4103 28.1238 16.1444 28.1238C22.5993 28.1238 26.5493 24.8937 26.5493 19.3977C26.5493 14.4802 23.1292 11.5394 17.1078 11.5394ZM43.2164 0.547363C47.1182 0.547363 49.575 3.15073 49.6231 6.67009C49.6231 9.99662 47.1182 12.6964 43.1201 12.6964C39.3146 12.6964 36.7615 9.99662 36.8579 6.67009C36.7615 3.15073 39.3146 0.547363 43.2164 0.547363ZM91.0982 0.547363C95 0.547363 97.4567 3.15073 97.5049 6.67009C97.5049 9.99662 95 12.6964 91.0019 12.6964C87.1964 12.6964 84.6433 9.99662 84.7396 6.67009C84.6433 3.15073 87.1964 0.547363 91.0982 0.547363Z" fill="white"/>
</g>
<defs>
<clipPath id="clip0">
<rect width="162" height="57" fill="white" transform="translate(0.103516 0.547363)"/>
</clipPath>
</defs>
</svg>
