<svg width="101" height="101" viewBox="0 0 101 101" fill="none" xmlns="http://www.w3.org/2000/svg">
<path d="M93.9717 0.547363H6.66934C3.16695 0.547363 0.319336 3.39498 0.319336 6.89736V94.1974C0.319336 97.6997 3.16695 100.547 6.66934 100.547H93.9693C97.4717 100.547 100.319 97.6997 100.319 94.1997V6.89736C100.319 3.39498 97.4717 0.547363 93.9717 0.547363ZM55.0812 77.1712C55.0812 86.6902 49.5003 91.0236 41.3527 91.0236C33.9908 91.0236 28.6765 86.0878 26.5098 81.4997L33.9931 76.9688C35.4384 79.5307 37.636 81.4997 40.7955 81.4997C43.817 81.4997 45.5574 80.3188 45.5574 75.7236V45.7855H55.0812V77.1712ZM75.7408 91.0236C67.3027 91.0236 62.5098 86.7688 59.8431 81.4997L66.986 76.7378C68.9336 79.9164 71.0503 82.9616 75.5312 82.9616C79.2955 82.9616 81.2717 81.0807 81.2717 78.4807C81.2717 75.3664 79.2289 74.2617 75.086 72.4497L72.8146 71.4759C66.2598 68.6831 61.9027 65.1831 61.9027 57.7878C61.9027 50.9736 67.0931 45.7878 75.2074 45.7878C80.9836 45.7878 85.136 47.7974 88.1289 53.0616L81.0551 57.6045C79.4979 54.8116 77.817 53.7117 75.2074 53.7117C72.5455 53.7117 70.8598 55.3997 70.8598 57.6045C70.8598 60.3307 72.5479 61.4331 76.4455 63.1212L78.7169 64.095C86.4384 67.4021 90.7955 70.7759 90.7955 78.364C90.7955 86.5426 84.3693 91.0236 75.7408 91.0236Z" fill="white"/>
</svg>
