<svg width="79" height="101" viewBox="0 0 79 101" fill="none" xmlns="http://www.w3.org/2000/svg">
<path fill-rule="evenodd" clip-rule="evenodd" d="M78.1549 68.1441C67.0539 95.1036 48.799 99.803 40.0944 100.456C8.57826 102.82 0.528773 58.8181 0.827256 37.4183L8.97225 49.3122C8.31778 39.9626 15.5231 32.1978 22.1626 25.0427L22.1626 25.0427C26.7847 20.0616 31.1327 15.3761 32.3635 10.6571C33.315 5.10668 31.9671 1.6046 31.1741 0.547363C45.7639 6.57359 59.2392 26.0531 64.0628 34.8413C64.261 33.8502 65.2522 27.1764 65.4504 24.9298C74.014 36.3479 73.1991 60.2149 71.6132 69.73L78.1549 68.1441ZM63.0381 79.7663C59.2063 86.4031 52.3338 89.609 47.688 86.9267C43.0422 84.2444 42.3823 76.6898 46.2141 70.0529C50.0459 63.4161 56.9184 60.2102 61.5642 62.8925C66.21 65.5747 66.8699 73.1294 63.0381 79.7663ZM32.6225 86.924C37.2683 84.2417 37.9282 76.6871 34.0964 70.0502C30.2646 63.4133 23.3921 60.2075 18.7463 62.8898C14.1005 65.572 13.4406 73.1267 17.2724 79.7635C21.1042 86.4004 27.9767 89.6063 32.6225 86.924ZM32.9324 79.6433C32.9324 82.1613 30.8912 84.2026 28.3731 84.2026C25.8551 84.2026 23.8138 82.1613 23.8138 79.6433C23.8138 77.1253 25.8551 75.084 28.3731 75.084C30.8912 75.084 32.9324 77.1253 32.9324 79.6433ZM52.161 84.2026C54.6791 84.2026 56.7203 82.1613 56.7203 79.6433C56.7203 77.1253 54.6791 75.084 52.161 75.084C49.643 75.084 47.6017 77.1253 47.6017 79.6433C47.6017 82.1613 49.643 84.2026 52.161 84.2026ZM25.2417 33.8501C20.3256 37.1804 16.9158 43.9599 18.1054 46.7352C18.8983 43.2463 22.3343 40.9204 23.8541 40.1935C24.1713 41.4622 25.8364 43.167 26.8276 43.7617C24.6074 39.6385 24.8453 35.436 25.2417 33.8501ZM61.3074 46.1405C62.3601 43.6642 59.3427 37.6148 54.9921 34.6431C55.343 36.0582 55.5535 39.8081 53.5887 43.4873C54.4658 42.9566 55.9394 41.4355 56.2201 40.3034C57.565 40.952 60.6057 43.0274 61.3074 46.1405ZM41.4041 44.1448C37.7752 47.9643 36.0963 54.5127 37.6459 56.7126C37.6777 53.5215 40.2144 50.8534 41.393 49.9367C41.9053 50.9845 43.6656 52.1621 44.6347 52.4965C41.9407 49.3124 41.3584 45.602 41.4041 44.1448ZM45.2327 31.8848C45.5552 30.2103 42.8799 26.8639 39.7885 25.602C40.1943 26.4321 40.8242 28.7275 40.0968 31.2689C40.5696 30.8232 41.28 29.6845 41.3032 28.9456C42.2229 29.1684 44.3833 30.0494 45.2327 31.8848Z" fill="white"/>
</svg>
