<svg width="361" height="288" viewBox="0 0 361 288" fill="none" xmlns="http://www.w3.org/2000/svg">
<path d="M358.229 86.3652H350.523V149.312C350.523 150.544 352.248 151.529 354.359 151.529C356.47 151.529 358.159 150.544 358.159 149.312L358.229 86.3652Z" fill="url(#paint0_linear)"/>
<path d="M310.094 114.056H302.459V177.039C302.459 178.27 304.183 179.255 306.259 179.255C308.335 179.255 310.094 178.27 310.094 177.039V114.056Z" fill="url(#paint1_linear)"/>
<path style="mix-blend-mode:multiply" d="M358.229 84.5359H350.523V97.6601C350.523 98.8916 352.248 99.8768 354.359 99.8768C356.47 99.8768 358.159 98.8916 358.159 97.6601L358.229 84.5359Z" fill="url(#paint2_linear)"/>
<path style="mix-blend-mode:multiply" d="M310.094 62.4041H302.459V125.351C302.459 126.583 304.183 127.568 306.259 127.568C308.335 127.568 310.094 126.583 310.094 125.351V62.4041Z" fill="url(#paint3_linear)"/>
<path d="M202.737 52.165H195.102V115.112C195.102 116.344 196.826 117.329 198.902 117.329C200.978 117.329 202.737 116.379 202.737 115.147V52.165Z" fill="url(#paint4_linear)"/>
<path d="M360.161 88.7231V84.4656L356.994 83.7267L252.598 23.7001C251.041 22.8407 249.306 22.3552 247.529 22.282C245.752 22.2087 243.982 22.5496 242.359 23.2778L195.14 50.8634L193.24 50.4059V55.156C193.363 55.8533 193.655 56.5099 194.09 57.0682C194.526 57.6264 195.092 58.0693 195.738 58.3579L300.838 118.807C302.389 119.666 304.119 120.151 305.89 120.224C307.661 120.298 309.425 119.957 311.042 119.229L358.437 91.5731C358.977 91.3264 359.431 90.9225 359.738 90.4141C360.046 89.9057 360.193 89.3164 360.161 88.7231Z" fill="url(#paint5_linear)"/>
<path d="M311.043 114.514L358.438 86.8582C361.041 85.3452 360.725 82.7063 357.699 80.947L252.599 20.5333C251.045 19.6661 249.309 19.176 247.53 19.1027C245.752 19.0293 243.981 19.3748 242.36 20.1111L195 47.767C192.397 49.28 192.713 51.9189 195.739 53.643L300.839 114.092C302.387 114.959 304.117 115.449 305.89 115.522C307.663 115.595 309.428 115.25 311.043 114.514Z" fill="url(#paint6_linear)"/>
<path style="mix-blend-mode:color-dodge" d="M195.703 53.1855L300.803 113.634C302.351 114.501 304.081 114.991 305.854 115.065C307.627 115.138 309.392 114.793 311.007 114.057L358.402 86.4007C358.861 86.1799 359.258 85.8493 359.559 85.4381C359.86 85.0268 360.054 84.5477 360.126 84.0433C360.151 84.6308 360 85.2124 359.693 85.7138C359.386 86.2153 358.936 86.6137 358.402 86.8581L311.007 114.514C309.392 115.25 307.627 115.595 305.854 115.522C304.081 115.449 302.351 114.959 300.803 114.092L195.703 53.5374C194.995 53.2499 194.383 52.766 193.941 52.1426C193.498 51.5193 193.243 50.7824 193.205 50.0188C193.344 50.7055 193.643 51.35 194.077 51.9001C194.511 52.4501 195.068 52.8905 195.703 53.1855Z" fill="url(#paint7_radial)"/>
<path style="mix-blend-mode:color-dodge" d="M311.077 117.258C311.077 120.777 309.177 123.908 306.785 123.908C304.392 123.908 302.527 120.918 302.527 117.223C302.527 113.529 304.463 110.573 306.82 110.573C309.177 110.573 311.113 113.564 311.077 117.258Z" fill="url(#paint8_radial)"/>
<path d="M352.91 63.6707V82.319L355.971 80.5598V61.9114L352.91 63.6707Z" fill="url(#paint9_linear)"/>
<path d="M352.946 63.6707V82.319L246.686 21.1664V2.51807L352.946 63.6707Z" fill="url(#paint10_linear)"/>
<path d="M246.686 2.51807L352.946 63.6707L355.972 61.9114L249.712 0.758789L246.686 2.51807Z" fill="url(#paint11_linear)"/>
<path style="mix-blend-mode:color-dodge" d="M352.346 63.4246V81.8618L352.944 82.3192V63.8116L352.346 63.4246Z" fill="url(#paint12_radial)"/>
<path d="M296.582 89.2509L303.69 85.0638L313.436 99.0325L296.582 89.2509Z" fill="url(#paint13_linear)"/>
<path d="M321.845 70.6376L338.312 80.1729C338.622 80.3596 338.878 80.6227 339.057 80.9369C339.235 81.2511 339.33 81.6059 339.333 81.9673V83.5859C339.327 83.7381 339.282 83.8862 339.201 84.0157C339.121 84.1453 339.009 84.2517 338.875 84.3248L314.069 99.2786L313.647 95.3379L296.582 85.4507L321.212 70.6376C321.415 70.5554 321.642 70.5554 321.845 70.6376Z" fill="url(#paint14_linear)"/>
<path d="M313.647 95.3379L296.582 85.4507L321.212 70.6376C321.336 70.5698 321.475 70.5343 321.617 70.5343C321.758 70.5343 321.897 70.5698 322.021 70.6376L338.488 80.1729L313.647 95.3379Z" fill="url(#paint15_linear)"/>
<path d="M314.278 96.9211V98.4693C314.278 98.605 314.242 98.7383 314.174 98.8557C314.106 98.9731 314.008 99.0706 313.89 99.1383C313.773 99.206 313.639 99.2416 313.504 99.2415C313.368 99.2414 313.235 99.2057 313.117 99.1378L296.932 89.7784V85.6969L313.293 95.197C313.6 95.3656 313.855 95.6158 314.029 95.9201C314.203 96.2244 314.289 96.5708 314.278 96.9211Z" fill="url(#paint16_linear)"/>
<g style="mix-blend-mode:multiply">
<path d="M313.821 98.9267V97.3433C313.818 97.0004 313.725 96.6643 313.552 96.3681C313.38 96.0719 313.133 95.8259 312.836 95.6544L296.932 86.4358V85.6969L313.293 95.197C313.6 95.3656 313.855 95.6158 314.029 95.9201C314.203 96.2244 314.289 96.5708 314.278 96.9211V98.4693C314.279 98.6323 314.229 98.7916 314.134 98.9242C314.039 99.0569 313.905 99.1563 313.75 99.2082C313.794 99.1206 313.818 99.0245 313.821 98.9267Z" fill="#D1D3D4"/>
</g>
<path d="M313.436 99.0324H313.682C313.813 99.0324 313.938 98.9805 314.031 98.8881C314.123 98.7957 314.175 98.6704 314.175 98.5398V96.9213C314.178 96.6179 314.097 96.3197 313.942 96.059C313.787 95.7984 313.563 95.5854 313.295 95.4435L296.582 85.697V85.3804L313.471 95.162C313.783 95.3376 314.041 95.5934 314.221 95.9027C314.4 96.212 314.494 96.5637 314.491 96.9213V98.5398C314.49 98.6796 314.453 98.8166 314.383 98.9376C314.313 99.0586 314.213 99.1595 314.093 99.2303C313.972 99.3012 313.835 99.3397 313.696 99.342C313.556 99.3443 313.418 99.3104 313.295 99.2435L296.582 89.5675V89.1804L313.436 99.0324Z" fill="url(#paint17_linear)"/>
<path opacity="0.2" d="M266.566 89.7082L232.401 69.9338C230.923 69.0542 230.888 68.5968 232.612 67.6116L256.397 53.9596C258.086 52.9744 258.508 53.0448 259.916 53.9596L293.94 73.6283C295.418 74.4728 295.242 75.2821 293.518 76.3024L270.366 89.6378C269.836 90.082 269.17 90.3312 268.478 90.344C267.787 90.3568 267.112 90.1324 266.566 89.7082Z" fill="black"/>
<path d="M266.603 89.3912L252.001 80.1022H251.227C250.858 80.1439 250.485 80.0569 250.172 79.8559L249.187 79.293C248.956 79.1559 248.753 78.9769 248.588 78.7652L247.814 77.604L232.685 69.7577C231.981 69.3354 231.594 69.0188 231.594 68.7021V68.2447C231.594 67.928 232.086 67.9632 232.896 67.4706L256.435 53.9241C256.922 53.4985 257.547 53.2639 258.194 53.2639C258.841 53.2639 259.466 53.4985 259.953 53.9241L293.661 73.417C294.295 73.804 294.646 73.6984 294.646 74.0855V74.6485C294.646 75.1059 294.154 75.5985 293.239 76.0911L270.298 89.356C269.775 89.7748 269.127 90.006 268.457 90.0123C267.787 90.0187 267.134 89.8 266.603 89.3912Z" fill="url(#paint18_linear)"/>
<path d="M266.601 88.9694L251.999 79.6804H251.225C250.856 79.7046 250.489 79.6189 250.169 79.4341L249.184 78.8711C248.952 78.7211 248.75 78.5304 248.586 78.3081L247.812 77.1822L232.682 69.3358C231.204 68.4562 231.169 68.0339 232.893 67.0487L256.503 53.5375C258.192 52.5523 258.614 52.6226 260.021 53.5375L293.729 73.0303C295.207 73.8747 295.031 74.684 293.307 75.6692L270.366 88.9342C269.835 89.3645 269.173 89.6022 268.489 89.6086C267.806 89.615 267.14 89.3897 266.601 88.9694Z" fill="url(#paint19_linear)"/>
<path style="mix-blend-mode:multiply" d="M251.999 79.2579H251.085C250.865 79.3102 250.636 79.3102 250.416 79.2579L249.396 78.6597C249.216 78.5814 249.067 78.4452 248.973 78.2727L248.094 77.0412L274.026 62.3336L278.037 64.6207L251.999 79.2579Z" fill="url(#paint20_radial)"/>
<path opacity="0.2" d="M250.31 78.0264L232.225 68.3855V68.1392L258.086 53.4668L276.171 63.1077L250.31 78.0264Z" fill="black"/>
<path d="M250.31 78.0266L232.225 68.1394V67.9283L258.086 53.2207L276.171 63.1079L250.31 78.0266Z" fill="#F1F2F2"/>
<path d="M250.31 78.0262L247.178 76.1614L232.225 67.928V67.5409L258.086 53.0093L276.171 63.1075L250.31 78.0262Z" fill="#D1D3D4"/>
<path d="M250.31 78.167L249.782 77.78C247.843 76.383 245.822 75.1024 243.73 73.9447L232.225 67.6113L258.086 52.6926L276.171 63.2483L250.31 78.167Z" fill="#F1F2F2"/>
<path d="M250.308 78.1672C248.558 76.4409 246.609 74.929 244.502 73.6635L232.645 67.3652L258.506 52.4465L276.099 63.2485L250.308 78.1672Z" fill="#D1D3D4"/>
<path opacity="0.2" d="M268.398 89.2856L250.312 78.0262L276.174 63.1075L294.259 74.0151V74.3669L268.398 89.2856Z" fill="black"/>
<path d="M268.398 89.0393L250.312 78.0262L276.174 63.1075L294.259 73.804V74.1558L268.398 89.0393Z" fill="#F1F2F2"/>
<path d="M268.398 88.7227L250.312 78.0262L276.174 63.1075L294.259 73.5929V73.804L268.398 88.7227Z" fill="#D1D3D4"/>
<path d="M268.398 88.4764L250.312 78.0262L276.174 63.1075L294.259 73.3466V73.5577L268.398 88.4764Z" fill="#F1F2F2"/>
<path d="M268.398 88.2301L250.312 78.0262L276.174 63.1075L294.224 72.9243L294.259 73.3466L268.398 88.2301Z" fill="#D1D3D4"/>
<path d="M268.398 87.843L250.312 78.0262L276.174 63.1075L294.259 72.6077V72.9243H294.224L268.398 87.843Z" fill="#F1F2F2"/>
<path d="M268.398 87.5264L250.312 78.0262L276.174 63.1075L294.259 72.6077L268.398 87.5264Z" fill="#D1D3D4"/>
<path d="M268.398 87.0338L250.312 78.0262L276.174 63.1075L294.259 72.1503L268.398 87.0338Z" fill="#F1F2F2"/>
<path d="M268.046 86.5413L264.95 84.8172C260.379 81.9767 255.459 79.7413 250.312 78.1671L276.174 63.2484C281.13 64.7927 285.862 66.9812 290.248 69.7578L293.767 71.7633L268.046 86.5413Z" fill="#D1D3D4"/>
<path d="M267.941 86.0138L261.255 80.9823C258.601 78.8807 255.278 77.8064 251.896 77.9563H250.312L276.174 63.0376C278.03 62.7747 279.92 62.8851 281.732 63.3624C283.545 63.8398 285.244 64.6744 286.73 65.8173L293.767 71.0599L267.941 86.0138Z" fill="url(#paint21_linear)"/>
<g style="mix-blend-mode:multiply">
<path d="M289.538 71.341L284.225 67.6114C281.916 65.8475 279.107 64.8619 276.202 64.7965C275.757 64.7615 275.31 64.7615 274.865 64.7965L275.393 64.4799H276.836C279.655 64.4976 282.394 65.4229 284.647 67.1188L290.171 71.1299L289.538 71.341Z" fill="#A7A9AC"/>
</g>
<g style="mix-blend-mode:multiply">
<path d="M288.028 72.2206L282.68 68.315C280.366 66.5658 277.558 65.5929 274.657 65.5353C274.212 65.5011 273.765 65.5011 273.32 65.5353L273.848 65.2186H275.291C278.114 65.2159 280.859 66.1433 283.102 67.8576L288.661 71.9039L288.028 72.2206Z" fill="#A7A9AC"/>
</g>
<g style="mix-blend-mode:multiply">
<path d="M286.481 73.1002L281.168 69.1946C278.848 67.4518 276.046 66.4686 273.146 66.3798H271.809L272.336 66.0983H273.779C276.591 66.0954 279.325 67.0232 281.555 68.7372L287.185 72.7835L286.481 73.1002Z" fill="#A7A9AC"/>
</g>
<g style="mix-blend-mode:multiply">
<path d="M284.961 73.9446L279.613 70.0742C277.3 68.3189 274.494 67.3343 271.591 67.2593H270.254L270.782 66.9779C271.262 66.9436 271.744 66.9436 272.224 66.9779C275.04 66.9829 277.78 67.896 280.036 69.5816L285.56 73.6631L284.961 73.9446Z" fill="#A7A9AC"/>
</g>
<g style="mix-blend-mode:multiply">
<path d="M283.415 74.8246L278.102 71.1301C275.782 69.3872 272.98 68.4041 270.079 68.3152H268.742L269.27 68.0337C269.738 67.9987 270.209 67.9987 270.677 68.0337C273.495 68.0286 276.238 68.9428 278.489 70.6375L284.048 74.6486L283.415 74.8246Z" fill="#A7A9AC"/>
</g>
<g style="mix-blend-mode:multiply">
<path d="M281.903 75.7038L276.625 71.8334C274.32 70.063 271.509 69.0766 268.603 69.0186H267.266L267.793 68.7371C268.274 68.7022 268.756 68.7022 269.236 68.7371C272.056 68.7548 274.795 69.6801 277.047 71.376L282.571 75.4224L281.903 75.7038Z" fill="#A7A9AC"/>
</g>
<g style="mix-blend-mode:multiply">
<path d="M280.358 76.5835L275.045 72.7131C272.736 70.9492 269.927 69.9636 267.023 69.8982H265.686L266.213 69.5815H267.621C270.441 69.5942 273.182 70.5201 275.432 72.2205L280.991 76.2668L280.358 76.5835Z" fill="#A7A9AC"/>
</g>
<g style="mix-blend-mode:multiply">
<path d="M278.838 77.4631L273.49 73.5575C271.174 71.8126 268.367 70.8402 265.468 70.7779C265.023 70.7428 264.576 70.7428 264.131 70.7779L264.659 70.4612H266.101C268.923 70.4636 271.667 71.3905 273.912 73.1001L279.437 77.1464L278.838 77.4631Z" fill="#A7A9AC"/>
</g>
<g style="mix-blend-mode:multiply">
<path d="M277.292 78.3428L271.979 74.4372C269.659 72.6944 266.857 71.7112 263.956 71.6223C263.511 71.5861 263.064 71.5861 262.619 71.6223L263.147 71.3057H264.554C267.377 71.3029 270.123 72.2304 272.366 73.9446L277.925 78.1669L277.292 78.3428Z" fill="#A7A9AC"/>
</g>
<g style="mix-blend-mode:multiply">
<path d="M275.747 79.1873L270.434 75.3169C268.114 73.5741 265.312 72.5909 262.411 72.5021H261.074L261.602 72.2206C262.082 72.1856 262.564 72.1856 263.045 72.2206C265.867 72.223 268.61 73.1499 270.856 74.8595L276.38 78.9059L275.747 79.1873Z" fill="#A7A9AC"/>
</g>
<g style="mix-blend-mode:multiply">
<path d="M274.235 80.067L268.887 76.1966C266.576 74.437 263.768 73.4519 260.864 73.3818H259.562L260.09 73.1003C260.559 73.0652 261.029 73.0652 261.498 73.1003C264.315 73.1003 267.055 74.0139 269.309 75.704L274.868 79.7855L274.235 80.067Z" fill="#A7A9AC"/>
</g>
<g style="mix-blend-mode:multiply">
<path d="M272.688 80.9466L267.375 77.0762C265.066 75.3123 262.257 74.3267 259.353 74.2614H258.016L258.543 73.9799C259.024 73.9437 259.506 73.9437 259.986 73.9799C262.796 73.9925 265.525 74.9188 267.762 76.6188L273.321 80.7003L272.688 80.9466Z" fill="#A7A9AC"/>
</g>
<g style="mix-blend-mode:multiply">
<path d="M271.17 81.6857L265.822 77.8153C263.52 76.0405 260.707 75.0536 257.8 75.0005H256.463L256.991 74.719H258.433C261.254 74.7317 263.994 75.6575 266.245 77.3579L271.804 81.6857H271.17Z" fill="#A7A9AC"/>
</g>
<g style="mix-blend-mode:multiply">
<path d="M269.588 82.7058L264.275 78.8002C261.951 77.0699 259.15 76.0992 256.253 76.0205C255.808 75.9846 255.361 75.9846 254.916 76.0205L255.444 75.7039H256.886C259.696 75.7165 262.425 76.6428 264.662 78.3428L270.222 82.3891L269.588 82.7058Z" fill="#A7A9AC"/>
</g>
<path d="M259.037 51.8835L261.43 52.5873C267.464 54.2764 272.724 58.0072 276.313 63.1429L250.382 78.1672L250.135 77.8505C246.512 72.8225 241.269 69.1946 235.287 67.5763L233.105 66.9782L259.037 51.8835Z" fill="url(#paint22_linear)"/>
<g style="mix-blend-mode:multiply">
<path d="M260.025 54.663L258.23 54.1704L258.723 53.8889L260.588 54.4167C265.846 55.8936 270.502 58.9975 273.888 63.2835L273.431 63.5298C269.988 59.2574 265.304 56.1592 260.025 54.663Z" fill="#A7A9AC"/>
</g>
<g style="mix-blend-mode:multiply">
<path d="M258.478 55.5426L256.719 55.05L257.211 54.7686L259.041 55.2963C264.294 56.7455 268.952 59.8257 272.341 64.0927L271.884 64.339C268.437 60.0857 263.752 57.0112 258.478 55.5426Z" fill="#A7A9AC"/>
</g>
<g style="mix-blend-mode:multiply">
<path d="M256.925 56.4223L255.166 55.9297L255.659 55.6482L257.523 56.176C262.782 57.6529 267.438 60.7568 270.824 65.0428L270.331 65.2891C266.901 61.0026 262.212 57.9012 256.925 56.4223Z" fill="#A7A9AC"/>
</g>
<g style="mix-blend-mode:multiply">
<path d="M255.523 57.3019L253.764 56.8093L254.221 56.5278L256.086 57.0556C261.344 58.5325 266 61.6365 269.386 65.9224L268.929 66.1687C265.492 61.8893 260.806 58.7895 255.523 57.3019Z" fill="#A7A9AC"/>
</g>
<g style="mix-blend-mode:multiply">
<path d="M253.867 58.1816L252.107 57.689L252.6 57.4075L254.465 57.9353C259.723 59.4122 264.379 62.5161 267.765 66.802L267.272 67.0483C263.836 62.769 259.15 59.6692 253.867 58.1816Z" fill="#A7A9AC"/>
</g>
<g style="mix-blend-mode:multiply">
<path d="M252.355 59.0612L250.596 58.5686L251.053 58.2871L252.918 58.8149C258.116 60.2996 262.718 63.3758 266.077 67.6113L265.62 67.8576C262.211 63.6284 257.578 60.5561 252.355 59.0612Z" fill="#A7A9AC"/>
</g>
<g style="mix-blend-mode:multiply">
<path d="M250.808 59.9408L249.049 59.4482L249.541 59.1667L251.406 59.6945C256.665 61.1715 261.321 64.2754 264.706 68.5613L264.214 68.8076C260.778 64.5282 256.091 61.4284 250.808 59.9408Z" fill="#A7A9AC"/>
</g>
<g style="mix-blend-mode:multiply">
<path d="M249.291 60.8205L247.496 60.3279L247.989 60.0464L249.854 60.5742C255.112 62.0511 259.768 65.155 263.154 69.4409L262.696 69.6872C259.26 65.4079 254.573 62.3081 249.291 60.8205Z" fill="#A7A9AC"/>
</g>
<g style="mix-blend-mode:multiply">
<path d="M247.744 61.7001L245.984 61.2075L246.477 60.926L248.307 61.4538C253.573 62.9351 258.239 66.0375 261.642 70.3206L261.149 70.5669C257.713 66.2875 253.026 63.1877 247.744 61.7001Z" fill="#A7A9AC"/>
</g>
<g style="mix-blend-mode:multiply">
<path d="M246.232 62.5797L244.438 62.0871L244.93 61.8057L246.795 62.3334C252.038 63.8046 256.689 66.8807 260.095 71.1299L259.638 71.3761C256.185 67.1298 251.502 64.0569 246.232 62.5797Z" fill="#A7A9AC"/>
</g>
<g style="mix-blend-mode:multiply">
<path d="M244.685 63.4594L242.926 62.9668L243.418 62.6853L245.248 63.2131C250.514 64.6944 255.18 67.7967 258.583 72.0799L258.091 72.3262C254.655 68.0468 249.968 64.947 244.685 63.4594Z" fill="#A7A9AC"/>
</g>
<g style="mix-blend-mode:multiply">
<path d="M243.132 64.339L241.373 63.8464L241.866 63.5649L243.73 64.0927C248.983 65.5829 253.635 68.6843 257.031 72.9595L256.573 73.2058C253.123 68.9256 248.425 65.8265 243.132 64.339Z" fill="#A7A9AC"/>
</g>
<g style="mix-blend-mode:multiply">
<path d="M241.621 65.2187L239.861 64.7261L240.319 64.4446L242.184 64.9724C247.453 66.447 252.121 69.5507 255.519 73.8391L255.062 74.1206C251.628 69.8151 246.925 66.7004 241.621 65.2187Z" fill="#A7A9AC"/>
</g>
<g style="mix-blend-mode:multiply">
<path d="M240.074 66.0983L238.314 65.6057L238.807 65.3242L240.672 65.852C245.915 67.3232 250.566 70.3992 253.972 74.6484L253.479 74.9299C250.053 70.6476 245.361 67.5568 240.074 66.0983Z" fill="#A7A9AC"/>
</g>
<g style="mix-blend-mode:multiply">
<path d="M266.387 82.3896L268.111 83.586L267.478 83.9026L265.824 82.7415L266.387 82.3896Z" fill="#A7A9AC"/>
</g>
<g style="mix-blend-mode:multiply">
<path d="M237.923 67.295L236.164 66.8024L236.657 66.5209L238.521 67.0487L237.923 67.295Z" fill="#A7A9AC"/>
</g>
<path opacity="0.2" d="M325.892 94.423L342.746 84.7821C343.555 84.2895 343.555 84.0784 342.746 83.5154L319.277 69.23C318.362 68.7023 318.116 68.7374 317.342 69.23L300.558 78.8005C299.784 79.258 299.89 79.7154 300.804 80.2431L323.921 94.3174C324.195 94.5444 324.534 94.6772 324.889 94.6963C325.244 94.7153 325.596 94.6194 325.892 94.423Z" fill="black"/>
<path d="M341.338 84.5708L334.512 80.5948L325.117 94.0006L341.338 84.5708Z" fill="url(#paint23_linear)"/>
<path d="M317.059 66.6966L301.261 75.8801C300.963 76.0598 300.717 76.3125 300.544 76.6142C300.372 76.9159 300.279 77.2567 300.275 77.6042V79.1523C300.284 79.2993 300.33 79.4416 300.41 79.565C300.491 79.6885 300.602 79.7888 300.733 79.856L324.553 94.247L324.976 90.4469L341.372 80.9468L317.868 66.8726C317.76 66.7762 317.628 66.7094 317.487 66.6786C317.345 66.6478 317.198 66.654 317.059 66.6966Z" fill="url(#paint24_linear)"/>
<path d="M324.944 90.447L341.34 80.9469L317.836 66.8726C317.716 66.8109 317.584 66.7787 317.449 66.7787C317.314 66.7787 317.182 66.8109 317.062 66.8726L301.264 75.8801L324.944 90.447Z" fill="url(#paint25_linear)"/>
<path d="M324.307 91.9599V93.4729C324.306 93.6047 324.341 93.7342 324.407 93.8482C324.473 93.9621 324.569 94.0562 324.683 94.1208C324.798 94.1854 324.928 94.2181 325.06 94.2156C325.192 94.213 325.321 94.1753 325.433 94.1062L340.985 85.2043V81.1931L325.257 90.3062C324.964 90.4708 324.722 90.7114 324.554 91.0024C324.387 91.2935 324.302 91.6243 324.307 91.9599Z" fill="url(#paint26_linear)"/>
<g style="mix-blend-mode:multiply">
<path d="M324.764 93.895V92.2413C324.766 91.9071 324.855 91.5791 325.021 91.2893C325.188 90.9994 325.427 90.7577 325.714 90.5876L340.985 81.756V81.0522L325.257 90.1653C324.964 90.33 324.722 90.5705 324.554 90.8616C324.387 91.1526 324.302 91.4834 324.307 91.819V93.332C324.318 93.4877 324.373 93.637 324.467 93.7619C324.56 93.8867 324.688 93.9818 324.835 94.0357C324.807 93.9911 324.783 93.944 324.764 93.895Z" fill="#D1D3D4"/>
</g>
<path d="M325.121 94.0008H324.91C324.779 94.0008 324.654 93.9489 324.561 93.8565C324.469 93.7642 324.417 93.6389 324.417 93.5082V91.9601C324.416 91.6707 324.494 91.3865 324.643 91.1384C324.791 90.8902 325.006 90.6877 325.261 90.5526L341.341 81.1933V80.8766L325.121 90.2711C324.819 90.4369 324.568 90.6817 324.394 90.9791C324.221 91.2766 324.131 91.6157 324.136 91.9601V93.5082C324.129 93.6469 324.161 93.7847 324.226 93.9071C324.292 94.0295 324.389 94.132 324.508 94.204C324.626 94.2759 324.762 94.3146 324.901 94.316C325.04 94.3174 325.176 94.2815 325.297 94.2119L341.341 84.8877V84.5359L325.121 94.0008Z" fill="url(#paint27_linear)"/>
<path d="M197.887 113.353C203.376 114.69 214.424 113.353 220.159 112.755C225.098 111.952 229.897 110.447 234.409 108.286C234.409 108.286 235.782 132.388 236.063 135.766C236.345 139.144 236.063 144.879 236.063 146.04C236.063 147.201 236.802 150.72 240.25 149.313C244.234 147.897 248.3 146.722 252.424 145.794C253.797 145.477 245.071 142.698 244.085 139.214C243.769 138.159 241.904 136.399 244.085 127.603C245.618 119.739 246.466 111.757 246.619 103.747C246.619 101.706 246.619 98.0472 242.432 97.3083C238.245 96.5694 198.485 97.3083 198.485 97.3083L197.887 113.353Z" fill="url(#paint28_linear)"/>
<path d="M236.164 143.296C235.477 145.025 235.477 146.951 236.164 148.679C237.308 150.758 238.342 152.896 239.26 155.083L241.055 154.52L240.07 150.016C241.571 149.431 243.174 149.156 244.785 149.207C247.142 149.383 250.379 151.107 253.053 149.841C255.727 148.574 256.888 146.709 255.974 145.09C255.059 143.472 253.053 143.894 250.942 143.402C249.146 142.874 247.412 142.154 245.77 141.255C245.856 141.652 245.858 142.063 245.777 142.46C245.696 142.858 245.532 143.235 245.297 143.566C245.062 143.897 244.76 144.175 244.412 144.383C244.063 144.591 243.675 144.724 243.272 144.774C240.803 145.119 238.291 144.597 236.164 143.296Z" fill="url(#paint29_linear)"/>
<path d="M205.8 190.48C204.439 190.479 203.102 190.115 201.929 189.425L170.614 171.269C169.937 170.878 169.378 170.313 168.994 169.632C168.61 168.951 168.416 168.18 168.433 167.398C168.432 166.621 168.641 165.858 169.037 165.189C169.433 164.521 170.002 163.971 170.684 163.598L201.155 146.533V129.644C201.155 129.206 201.329 128.785 201.64 128.475C201.95 128.165 202.37 127.99 202.809 127.99C203.248 127.99 203.668 128.165 203.978 128.475C204.288 128.785 204.463 129.206 204.463 129.644V147.518C204.467 147.813 204.39 148.103 204.241 148.357C204.092 148.611 203.877 148.82 203.618 148.961L172.303 166.554C172.135 166.651 171.996 166.789 171.897 166.955C171.798 167.122 171.744 167.31 171.74 167.504C171.734 167.695 171.779 167.885 171.872 168.052C171.965 168.219 172.102 168.358 172.268 168.454L203.583 186.61C204.261 187.005 205.032 187.214 205.817 187.214C206.602 187.214 207.373 187.005 208.052 186.61L235.145 170.776V125.035C235.145 124.596 235.319 124.176 235.629 123.865C235.939 123.555 236.36 123.381 236.798 123.381C237.237 123.381 237.657 123.555 237.968 123.865C238.278 124.176 238.452 124.596 238.452 125.035V171.656C238.461 171.942 238.39 172.226 238.247 172.474C238.104 172.723 237.895 172.927 237.643 173.063L209.776 189.389C208.578 190.117 207.201 190.495 205.8 190.48Z" fill="url(#paint30_linear)"/>
<path opacity="0.3" d="M205.558 189.073C204.329 189.092 203.115 188.789 202.04 188.193L171.076 170.002C170.565 169.716 170.142 169.296 169.85 168.788C169.559 168.28 169.411 167.702 169.422 167.117C169.452 166.536 169.625 165.972 169.926 165.475C170.227 164.978 170.646 164.562 171.147 164.267L202.18 146.92V129.327C202.18 129.178 202.24 129.035 202.345 128.929C202.451 128.824 202.594 128.765 202.743 128.765C202.886 128.773 203.021 128.837 203.119 128.941C203.217 129.046 203.271 129.184 203.271 129.327V147.202C203.273 147.297 203.248 147.391 203.198 147.472C203.148 147.553 203.076 147.618 202.99 147.659L171.674 165.252C171.338 165.442 171.057 165.718 170.862 166.052C170.667 166.386 170.565 166.765 170.565 167.152C170.565 167.539 170.667 167.918 170.862 168.252C171.057 168.586 171.338 168.862 171.674 169.052L202.743 187.243C203.594 187.717 204.549 187.971 205.523 187.982C206.502 187.975 207.461 187.708 208.303 187.208L235.958 171.058V124.789C235.967 124.645 236.031 124.511 236.135 124.413C236.24 124.315 236.378 124.26 236.521 124.261C236.661 124.261 236.796 124.316 236.895 124.415C236.994 124.514 237.049 124.649 237.049 124.789V171.374C237.048 171.465 237.025 171.553 236.982 171.633C236.939 171.713 236.878 171.781 236.803 171.832L208.866 188.158C207.862 188.747 206.722 189.062 205.558 189.073Z" fill="white"/>
<path opacity="0.5" d="M205.419 188.439C204.323 188.439 203.246 188.16 202.287 187.63L171.078 169.439C170.643 169.184 170.284 168.819 170.037 168.38C169.79 167.941 169.663 167.444 169.67 166.941C169.673 166.435 169.811 165.94 170.071 165.507C170.331 165.073 170.703 164.718 171.148 164.478L202.393 146.885V129.187V147.061L171.078 164.654C170.667 164.87 170.322 165.194 170.08 165.59C169.839 165.987 169.709 166.441 169.705 166.906C169.701 167.377 169.822 167.841 170.057 168.249C170.292 168.657 170.633 168.995 171.042 169.228L202.322 187.384C203.242 187.915 204.286 188.194 205.348 188.194C206.411 188.194 207.454 187.915 208.374 187.384L236.206 171.093V124.612V171.198L208.55 187.595C207.601 188.151 206.519 188.443 205.419 188.439Z" fill="white"/>
<path d="M203.693 143.155V146.568L241.342 124.788V121.305L203.693 143.155Z" fill="url(#paint31_linear)"/>
<path d="M203.693 143.155V146.568L166.783 125.14V121.622L203.693 143.155Z" fill="url(#paint32_linear)"/>
<path d="M203.693 141.079V144.492L241.342 122.712V119.229L203.693 141.079Z" fill="url(#paint33_linear)"/>
<path d="M203.693 141.079V144.492L166.783 123.064V119.581L203.693 141.079Z" fill="url(#paint34_linear)"/>
<path d="M166.783 119.581L203.693 141.079L241.342 119.229L204.397 97.7306L166.783 119.581Z" fill="url(#paint35_linear)"/>
<path d="M258.155 77.8506C259.058 77.5257 260.01 77.359 260.97 77.358C263.609 77.358 269.203 76.795 269.696 75.458C269.947 73.6841 269.947 71.8837 269.696 70.1098C269.696 70.1098 275.853 67.5412 276.205 67.1894C276.557 66.8375 275.959 65.9579 274.34 66.4153C271.933 67.1199 269.474 67.6374 266.987 67.9634L265.192 67.6116C266.087 67.1099 266.946 66.5455 267.761 65.9227C268.218 65.4301 268.429 64.3393 267.761 64.1634C267.092 63.9875 263.714 66.4505 262.624 66.732C261.069 67.645 259.697 68.8379 258.577 70.2505C257.933 70.9445 257.239 71.5912 256.501 72.1857C256.501 72.1857 255.938 78.5895 258.155 77.8506Z" fill="url(#paint36_linear)"/>
<path d="M255.873 71.8342L257.386 71.0249L260.025 77.5694L258.371 77.9213L255.873 71.8342Z" fill="url(#paint37_linear)"/>
<path d="M207.281 121.305C212.77 122.642 223.818 121.305 229.554 120.707C234.542 119.906 239.389 118.389 243.945 116.203C243.945 116.203 245.317 140.305 245.563 143.683C245.77 147.104 245.77 150.535 245.563 153.957C245.563 155.118 246.302 158.637 249.785 157.229C253.758 155.815 257.811 154.64 261.925 153.711C263.332 153.394 254.606 150.614 253.586 147.131C253.304 146.075 251.439 144.316 253.586 135.52C255.143 127.659 256.002 119.676 256.154 111.664C256.154 109.623 256.154 105.964 251.932 105.225C247.71 104.486 207.985 105.225 207.985 105.225L207.281 121.305Z" fill="url(#paint38_linear)"/>
<path d="M196.021 90.1656C199.706 91.9725 203.609 93.297 207.633 94.1064L218.54 95.3028C224.467 96.093 230.436 96.5277 236.414 96.6046C238.943 96.6489 241.402 97.4367 243.486 98.8695C245.569 100.302 247.185 102.317 248.131 104.662C249.539 107.899 246.794 112.72 244.613 116.273C242.431 119.827 243.205 118.807 239.264 120.214C235.324 121.622 219.736 132.177 205.416 126.372C190.18 120.39 190.603 109.834 190.603 106.316C191.241 100.609 193.089 95.1031 196.021 90.1656Z" fill="url(#paint39_linear)"/>
<path d="M245.561 151.213C244.87 152.941 244.87 154.868 245.561 156.596C246.72 158.667 247.754 160.806 248.658 163L250.452 162.437L249.502 157.933C251.003 157.348 252.607 157.073 254.217 157.124C256.539 157.3 259.776 159.024 262.486 157.757C265.195 156.491 266.321 154.626 265.406 153.007C264.491 151.389 262.486 151.811 260.339 151.318C258.556 150.786 256.834 150.066 255.202 149.172C255.288 149.569 255.291 149.979 255.209 150.377C255.128 150.775 254.965 151.151 254.73 151.483C254.494 151.814 254.193 152.092 253.844 152.3C253.495 152.508 253.107 152.641 252.704 152.691C250.224 153.044 247.698 152.521 245.561 151.213Z" fill="url(#paint40_linear)"/>
<path d="M193.132 49.2446C190.423 52.0595 186.834 66.0985 185.426 68.7375C184.019 71.3764 179.445 78.4839 184.512 81.545C189.448 83.7816 194.733 85.1504 200.134 85.5914L196.615 77.7098L191.901 75.5635L197.249 62.8263L193.132 49.2446Z" fill="url(#paint41_linear)"/>
<path d="M219.17 21.1666C221.95 23.3832 223.85 31.3704 222.056 36.789C220.261 42.2076 217.939 42.7002 216.989 43.1576C216.039 43.615 213.154 48.4002 214.28 50.5465C215.406 52.6929 206.715 51.4966 204.533 49.7021C202.352 47.9076 202.316 47.2039 202.316 47.2039C203.493 45.4345 203.923 43.272 203.513 41.1872C202.492 38.6538 198.094 29.4 203.513 23.0314C205.385 20.7705 208.054 19.3159 210.969 18.9687C213.883 18.6216 216.82 19.4085 219.17 21.1666Z" fill="url(#paint42_linear)"/>
<path d="M203.054 46.7114C201.605 46.0761 200.017 45.8202 198.441 45.968C196.865 46.1157 195.353 46.6621 194.047 47.5558C190.528 50.7577 191.267 54.03 191.725 60.2227C192.428 69.582 196.404 79.2229 196.791 83.4452C197.178 87.6674 191.408 102.375 191.408 102.375C191.408 102.375 193.836 107.055 203.265 108.04C210.849 108.714 218.402 106.461 224.377 101.742C224.377 101.742 220.577 84.4655 220.682 81.6507C220.788 78.8358 223.568 74.6136 223.849 69.758C224.13 64.9023 224.201 57.5837 220.577 55.2263C218.366 53.8225 216.261 52.2584 214.279 50.5466C212.009 50.9321 209.683 50.8362 207.452 50.2651C206.47 50.1168 205.544 49.7094 204.771 49.0848C203.998 48.4602 203.406 47.641 203.054 46.7114Z" fill="url(#paint43_linear)"/>
<g style="mix-blend-mode:multiply" opacity="0.1">
<path d="M224.375 101.742C224.375 101.742 220.575 84.4655 220.681 81.6507C220.786 78.8358 223.566 74.6135 223.848 69.7579C224.129 64.9023 224.164 59.2022 221.596 56.1763C217.796 56.4226 212.623 57.4781 212.236 60.7152C212.465 69.6445 213.24 78.5515 214.559 87.3859C214.875 89.9545 213.186 102.621 212.94 107.336C217.106 106.304 221.004 104.397 224.375 101.742Z" fill="black"/>
</g>
<path d="M221.179 55.8949C220.622 55.2611 219.931 54.7596 219.156 54.4272C218.38 54.0948 217.54 53.9398 216.697 53.9735C215.854 54.0072 215.029 54.2288 214.283 54.6221C213.537 55.0154 212.887 55.5705 212.383 56.2467C211.094 58.1416 210.563 60.4511 210.896 62.7185C211.228 64.9859 212.399 67.046 214.177 68.4913C219.082 74.183 223.641 80.1636 227.829 86.4008C228.527 87.7778 229.722 88.8382 231.173 89.3674C232.623 89.8965 234.22 89.8549 235.641 89.2508C240.18 87.5267 259.215 78.097 259.215 78.097L256.4 71.3766C256.4 71.3766 243.03 77.9211 240.32 78.4137L235.007 79.5396C235.007 79.5396 223.853 58.6394 221.179 55.8949Z" fill="url(#paint44_linear)"/>
<path d="M223.005 27.9927C221.661 29.1883 220.185 30.2271 218.607 31.089C216.812 31.8279 217.27 33.2354 217.481 34.3613C217.481 34.3613 215.334 34.9243 214.842 35.6632C214.349 36.4021 213.434 37.8095 214.49 39.1817C215.575 40.1913 216.384 41.4616 216.84 42.8719C217.295 44.2822 217.383 45.7856 217.094 47.2392C215.37 52.4115 222.688 56.1764 222.688 56.1764C222.688 56.1764 210.127 61.7357 201.577 57.7949C193.906 54.2763 191.83 47.5911 193.977 46.2892C196.123 44.9873 199.993 44.3188 199.149 32.215C199.023 30.3005 199.319 28.3817 200.017 26.5944C200.714 24.8071 201.796 23.1951 203.186 21.8724C204.576 20.5497 206.24 19.5487 208.059 18.9404C209.879 18.332 211.81 18.1311 213.716 18.3518C224.975 19.1963 223.005 27.9927 223.005 27.9927Z" fill="url(#paint45_radial)"/>
<path d="M203.761 104.803L200.067 89.849L197.322 91.4324L201.017 106.316C202.804 113.545 203.702 120.966 203.691 128.412V141.114L206.471 139.601V126.724C206.45 119.334 205.541 111.975 203.761 104.803Z" fill="url(#paint46_linear)"/>
<path d="M197.32 91.4321L160.516 69.793L164.034 84.8172C165.802 92.0262 166.699 99.4209 166.708 106.843V119.581L203.653 141.114V128.412C203.67 120.967 202.784 113.547 201.014 106.316L197.32 91.4321Z" fill="url(#paint47_linear)"/>
<path d="M160.412 69.7932L197.322 91.4323L200.066 89.849L163.121 68.245L160.412 69.7932Z" fill="url(#paint48_linear)"/>
<path d="M197.852 183.126H190.217V246.073C190.217 247.304 191.906 248.289 194.017 248.289C196.128 248.289 197.852 247.304 197.852 246.073V183.126Z" fill="url(#paint49_linear)"/>
<path d="M149.684 210.817H142.084V273.799C142.084 275.03 143.773 276.016 145.884 276.016C147.995 276.016 149.684 275.03 149.684 273.799V210.817Z" fill="url(#paint50_linear)"/>
<path style="mix-blend-mode:multiply" d="M197.852 181.296H190.217V194.28C190.217 195.511 191.906 196.496 194.017 196.496C196.128 196.496 197.852 195.511 197.852 194.28V181.296Z" fill="url(#paint51_linear)"/>
<path style="mix-blend-mode:multiply" d="M149.684 159.094H142.084V222.111C142.084 223.343 143.773 224.328 145.884 224.328C147.995 224.328 149.684 223.343 149.684 222.111V159.094Z" fill="url(#paint52_linear)"/>
<path d="M42.3267 148.925H34.7266V211.872C34.7266 213.104 36.4155 214.089 38.5266 214.089C40.6378 214.089 42.3267 213.104 42.3267 211.872V148.925Z" fill="url(#paint53_linear)"/>
<path d="M199.786 185.413V181.226L196.619 180.487L92.2234 120.39C90.6663 119.531 88.9307 119.045 87.1537 118.972C85.3767 118.898 83.607 119.239 81.9844 119.968L34.7653 147.624L32.8301 147.166V152.057C32.9468 152.756 33.2365 153.416 33.6728 153.975C34.1091 154.534 34.6781 154.975 35.3283 155.259L140.463 215.567C142.014 216.426 143.744 216.911 145.515 216.985C147.286 217.058 149.05 216.717 150.667 215.989L198.027 188.333C198.586 188.088 199.055 187.675 199.37 187.152C199.685 186.629 199.83 186.022 199.786 185.413Z" fill="url(#paint54_linear)"/>
<path d="M150.668 211.274L198.028 183.724C200.667 182.211 200.315 179.572 197.289 177.813L92.2249 117.294C90.6705 116.426 88.9342 115.936 87.1557 115.863C85.3773 115.79 83.6065 116.135 81.9859 116.871L34.6261 144.527C31.9872 146.04 32.339 148.679 35.365 150.403L140.464 210.852C142.013 211.719 143.743 212.209 145.516 212.282C147.289 212.356 149.054 212.01 150.668 211.274Z" fill="url(#paint55_linear)"/>
<path style="mix-blend-mode:color-dodge" d="M35.3634 149.946L140.463 210.395C142.011 211.262 143.742 211.752 145.514 211.825C147.287 211.898 149.052 211.553 150.667 210.817L198.027 183.161C198.49 182.942 198.893 182.613 199.2 182.202C199.507 181.791 199.708 181.311 199.786 180.804C199.813 181.396 199.659 181.982 199.345 182.485C199.031 182.988 198.571 183.383 198.027 183.618L150.667 211.274C149.052 212.01 147.287 212.356 145.514 212.282C143.742 212.209 142.011 211.719 140.463 210.852L35.3634 150.403C34.655 150.116 34.0435 149.632 33.6009 149.008C33.1583 148.385 32.903 147.648 32.8652 146.885C33.014 147.554 33.3174 148.18 33.7512 148.712C34.185 149.243 34.7371 149.666 35.3634 149.946Z" fill="url(#paint56_radial)"/>
<path style="mix-blend-mode:color-dodge" d="M150.702 214.019C150.702 217.537 148.767 220.669 146.41 220.669C144.052 220.669 142.152 217.678 142.152 213.983C142.152 210.289 144.088 207.333 146.445 207.333C148.802 207.333 150.702 210.324 150.702 214.019Z" fill="url(#paint57_radial)"/>
<path d="M192.531 160.431V179.079L195.592 177.285V158.672L192.531 160.431Z" fill="url(#paint58_linear)"/>
<path d="M192.534 160.431V179.079L86.3086 117.927V99.2784L192.534 160.431Z" fill="url(#paint59_linear)"/>
<path d="M86.3086 99.2784L192.534 160.431L195.595 158.672L89.3345 97.5192L86.3086 99.2784Z" fill="url(#paint60_linear)"/>
<path style="mix-blend-mode:color-dodge" d="M191.969 160.185V178.622L192.532 179.08V160.572L191.969 160.185Z" fill="url(#paint61_radial)"/>
<path d="M139.301 184.956L146.408 180.768L156.155 194.737L139.301 184.956Z" fill="url(#paint62_linear)"/>
<path d="M164.562 166.342L181.029 175.913C181.34 176.088 181.599 176.344 181.779 176.653C181.958 176.963 182.051 177.314 182.049 177.672V179.291C182.1 179.468 182.085 179.658 182.007 179.826C181.93 179.994 181.795 180.128 181.627 180.205L156.997 195.159L156.575 191.218L139.404 181.155L164.034 166.342C164.206 166.286 164.391 166.286 164.562 166.342Z" fill="url(#paint63_linear)"/>
<path d="M156.364 191.042L139.404 181.155L164.034 166.342C164.158 166.274 164.297 166.239 164.439 166.239C164.58 166.239 164.719 166.274 164.844 166.342L181.31 175.913L156.364 191.042Z" fill="url(#paint64_linear)"/>
<path d="M156.997 192.626V194.279C157.003 194.418 156.972 194.556 156.906 194.678C156.841 194.801 156.743 194.903 156.625 194.975C156.506 195.047 156.37 195.086 156.231 195.087C156.093 195.089 155.956 195.053 155.836 194.983L139.65 185.589V181.401L156.012 190.761C156.342 190.94 156.611 191.212 156.787 191.544C156.962 191.876 157.035 192.252 156.997 192.626Z" fill="url(#paint65_linear)"/>
<g style="mix-blend-mode:multiply">
<path d="M156.539 194.631V193.048C156.536 192.705 156.444 192.369 156.271 192.073C156.098 191.776 155.851 191.53 155.554 191.359L139.65 182.14V181.401L156.012 190.761C156.319 190.929 156.574 191.18 156.747 191.484C156.921 191.788 157.008 192.135 156.997 192.485V194.279C156.998 194.442 156.947 194.602 156.853 194.734C156.758 194.867 156.624 194.966 156.469 195.018C156.531 194.899 156.555 194.764 156.539 194.631Z" fill="#D1D3D4"/>
</g>
<path d="M156.153 194.737C156.232 194.767 156.32 194.767 156.399 194.737C156.469 194.752 156.542 194.752 156.612 194.737C156.682 194.721 156.747 194.691 156.804 194.647C156.861 194.604 156.908 194.548 156.941 194.485C156.975 194.421 156.994 194.351 156.997 194.28V192.661C157 192.362 156.923 192.068 156.775 191.808C156.626 191.548 156.412 191.333 156.153 191.183L139.404 181.472V181.155L156.293 190.937C156.605 191.113 156.864 191.368 157.043 191.678C157.223 191.987 157.316 192.339 157.314 192.696V194.28C157.313 194.419 157.275 194.556 157.205 194.677C157.135 194.798 157.035 194.899 156.915 194.97C156.794 195.041 156.658 195.079 156.518 195.082C156.378 195.084 156.24 195.05 156.117 194.983L139.404 185.342V184.955L156.153 194.737Z" fill="url(#paint66_linear)"/>
<path opacity="0.2" d="M111.261 185.307L77.1311 165.497C75.6181 164.653 75.6181 164.195 77.3422 163.21L101.093 149.558C102.817 148.538 103.204 148.643 104.611 149.558L138.6 169.227C140.078 170.107 139.902 170.916 138.178 171.901L115.061 185.272C114.519 185.693 113.854 185.925 113.167 185.932C112.48 185.938 111.811 185.718 111.261 185.307Z" fill="black"/>
<path d="M111.258 184.99L96.7613 175.701H95.952C95.5947 175.725 95.2388 175.639 94.9316 175.455L93.9112 174.857C93.6838 174.729 93.4906 174.548 93.3483 174.329L92.4686 173.168L77.3388 165.322C76.6351 164.899 76.2832 164.583 76.248 164.266V163.809C76.248 163.457 76.7406 163.492 77.5499 163.035L101.089 149.488C102.813 148.503 103.2 148.573 104.608 149.488L138.315 168.981C138.984 169.333 139.301 169.262 139.301 169.649V170.142C139.301 170.635 138.808 171.092 137.893 171.62L114.987 184.85C114.468 185.281 113.821 185.529 113.147 185.554C112.472 185.58 111.808 185.381 111.258 184.99Z" fill="url(#paint67_linear)"/>
<path d="M111.262 184.568L96.7654 175.244H95.9562C95.6006 175.251 95.2492 175.166 94.9358 174.998L93.9154 174.4C93.6954 174.262 93.5042 174.082 93.3525 173.872L92.5432 172.746L77.4134 164.864C75.9356 164.02 75.9356 163.598 77.6245 162.612L101.164 149.066C102.888 148.081 103.275 148.151 104.682 149.066L138.39 168.559C139.868 169.438 139.692 170.248 137.968 171.233L115.062 184.463C114.533 184.906 113.87 185.158 113.18 185.177C112.491 185.196 111.815 184.981 111.262 184.568Z" fill="url(#paint68_linear)"/>
<path style="mix-blend-mode:multiply" d="M96.7299 174.857H95.7798C95.5481 174.908 95.3079 174.908 95.0761 174.857L94.0557 174.259C93.8989 174.148 93.7569 174.018 93.6335 173.872L92.7891 172.64L118.721 157.897L122.732 160.22L96.7299 174.857Z" fill="url(#paint69_radial)"/>
<path opacity="0.2" d="M94.9037 173.59L76.8535 163.984V163.738L102.715 149.066L120.765 158.671L94.9037 173.59Z" fill="black"/>
<path d="M94.9037 173.59L76.8535 163.738V163.492L102.715 148.82L120.765 158.672L94.9037 173.59Z" fill="#F1F2F2"/>
<path d="M94.9037 173.59L91.8074 171.726L76.8535 163.492V163.14L102.715 148.573L120.765 158.672L94.9037 173.59Z" fill="#D1D3D4"/>
<path d="M94.9037 173.59L94.4111 173.238C92.4594 171.841 90.4268 170.56 88.324 169.403L76.8535 163.14L102.715 148.221L120.765 158.777L94.9037 173.59Z" fill="#F1F2F2"/>
<path d="M94.8995 173.59C93.1439 171.885 91.2092 170.375 89.129 169.087L77.2715 162.788L103.133 147.905L120.726 158.672L94.8995 173.59Z" fill="#D1D3D4"/>
<path opacity="0.2" d="M113.019 184.849L94.9336 173.59L120.795 158.707L138.845 169.614L138.88 169.966L113.019 184.849Z" fill="black"/>
<path d="M113.019 184.638L94.9336 173.59L120.795 158.707L138.845 169.403L138.88 169.72L113.019 184.638Z" fill="#F1F2F2"/>
<path d="M113.019 184.286L94.9336 173.59L120.795 158.707L138.845 169.157V169.403L113.019 184.286Z" fill="#D1D3D4"/>
<path d="M113.019 184.04L94.9336 173.59L120.795 158.707L138.845 168.946V169.157L113.019 184.04Z" fill="#F1F2F2"/>
<path d="M113.019 183.829L94.9336 173.59L120.795 158.707L138.845 168.523V168.946L113.019 183.829Z" fill="#D1D3D4"/>
<path d="M113.019 183.442L94.9336 173.59L120.795 158.707L138.845 168.207V168.523L113.019 183.442Z" fill="#F1F2F2"/>
<path d="M112.984 183.09L94.9336 173.59L120.795 158.707L138.845 168.207L112.984 183.09Z" fill="#D1D3D4"/>
<path d="M113.019 182.633L94.9336 173.59L120.795 158.707L138.88 167.714L113.019 182.633Z" fill="#F1F2F2"/>
<path d="M112.632 182.14L109.536 180.416C104.978 177.53 100.071 175.236 94.9336 173.59L120.795 158.707C125.755 160.24 130.488 162.429 134.869 165.216L138.388 167.221L112.632 182.14Z" fill="#D1D3D4"/>
<path d="M112.526 181.612L105.841 176.686C103.173 174.614 99.8571 173.555 96.4818 173.696H94.9336L120.795 158.812C122.649 158.544 124.537 158.649 126.35 159.12C128.162 159.592 129.862 160.42 131.351 161.557L138.388 166.799L112.526 181.612Z" fill="url(#paint70_linear)"/>
<g style="mix-blend-mode:multiply">
<path d="M134.167 166.905L128.854 163.035C126.54 161.279 123.734 160.295 120.831 160.22H119.494L120.022 159.938H121.465C124.287 159.941 127.03 160.868 129.276 162.577L134.8 166.624L134.167 166.905Z" fill="#A7A9AC"/>
</g>
<g style="mix-blend-mode:multiply">
<path d="M132.622 167.785L127.309 163.914C124.989 162.172 122.187 161.188 119.286 161.1H117.949L118.477 160.818C118.945 160.783 119.416 160.783 119.884 160.818C122.701 160.818 125.442 161.732 127.696 163.422L133.255 167.503L132.622 167.785Z" fill="#A7A9AC"/>
</g>
<g style="mix-blend-mode:multiply">
<path d="M131.104 168.664L125.756 164.794C123.451 163.023 120.64 162.037 117.734 161.979H116.396L116.924 161.698C117.405 161.663 117.887 161.663 118.367 161.698C121.186 161.715 123.925 162.641 126.178 164.336L131.702 168.418L131.104 168.664Z" fill="#A7A9AC"/>
</g>
<g style="mix-blend-mode:multiply">
<path d="M129.555 169.65L124.242 165.779C121.934 164.015 119.125 163.03 116.22 162.964H114.883L115.411 162.683C115.879 162.648 116.35 162.648 116.818 162.683C119.638 162.696 122.379 163.621 124.629 165.322L130.189 169.368L129.555 169.65Z" fill="#A7A9AC"/>
</g>
<g style="mix-blend-mode:multiply">
<path d="M128.045 170.424L122.697 166.553C120.392 164.783 117.581 163.796 114.675 163.738C114.23 163.703 113.783 163.703 113.338 163.738L113.866 163.422H115.308C118.128 163.439 120.867 164.365 123.12 166.061L128.644 170.107L128.045 170.424Z" fill="#A7A9AC"/>
</g>
<g style="mix-blend-mode:multiply">
<path d="M126.499 171.303L121.186 167.398C118.861 165.667 116.06 164.697 113.163 164.618C112.718 164.582 112.271 164.582 111.826 164.618L112.354 164.301H113.761C116.584 164.299 119.33 165.226 121.573 166.94L127.132 170.987L126.499 171.303Z" fill="#A7A9AC"/>
</g>
<g style="mix-blend-mode:multiply">
<path d="M124.952 172.183L119.639 168.277C117.319 166.535 114.517 165.551 111.616 165.463H110.279L110.807 165.181H112.25C115.072 165.183 117.815 166.11 120.061 167.82L125.585 171.866L124.952 172.183Z" fill="#A7A9AC"/>
</g>
<g style="mix-blend-mode:multiply">
<path d="M123.434 173.168L118.086 169.298C115.775 167.538 112.967 166.553 110.064 166.483H108.727L109.29 166.202C109.758 166.167 110.228 166.167 110.697 166.202C113.52 166.199 116.265 167.126 118.508 168.841L124.067 172.887L123.434 173.168Z" fill="#A7A9AC"/>
</g>
<g style="mix-blend-mode:multiply">
<path d="M121.819 173.907L116.506 170.036C114.186 168.294 111.384 167.31 108.484 167.222H107.146L107.674 166.94C108.154 166.904 108.637 166.904 109.117 166.94C111.923 166.94 114.653 167.854 116.893 169.544L122.452 173.625L121.819 173.907Z" fill="#A7A9AC"/>
</g>
<g style="mix-blend-mode:multiply">
<path d="M120.376 174.787L115.027 170.916C112.725 169.141 109.912 168.155 107.005 168.101H105.668L106.196 167.82H107.638C110.459 167.833 113.199 168.758 115.45 170.459L121.009 174.54L120.376 174.787Z" fill="#A7A9AC"/>
</g>
<g style="mix-blend-mode:multiply">
<path d="M118.829 175.666L113.516 171.796C111.207 170.032 108.398 169.046 105.493 168.981H104.156L104.684 168.664H106.127C108.936 168.677 111.666 169.603 113.903 171.303L119.462 175.35L118.829 175.666Z" fill="#A7A9AC"/>
</g>
<g style="mix-blend-mode:multiply">
<path d="M117.311 176.687L111.963 172.64C109.646 170.895 106.84 169.923 103.941 169.861C103.496 169.826 103.049 169.826 102.604 169.861L103.131 169.544H104.574C107.394 169.562 110.132 170.487 112.385 172.183L117.909 176.229L117.311 176.687Z" fill="#A7A9AC"/>
</g>
<g style="mix-blend-mode:multiply">
<path d="M115.764 177.426L110.451 173.52C108.127 171.79 105.325 170.819 102.429 170.74C101.984 170.704 101.537 170.704 101.092 170.74L101.62 170.424H103.027C105.85 170.421 108.595 171.348 110.838 173.063L116.398 177.109L115.764 177.426Z" fill="#A7A9AC"/>
</g>
<g style="mix-blend-mode:multiply">
<path d="M114.253 178.27L108.904 174.4C106.591 172.644 103.785 171.66 100.882 171.585H99.5449L100.073 171.303H101.515C104.337 171.306 107.081 172.233 109.327 173.942L114.78 177.988L114.253 178.27Z" fill="#A7A9AC"/>
</g>
<path d="M103.553 147.483L105.945 148.151C111.973 149.853 117.229 153.581 120.829 158.707L94.9676 173.625L94.7564 173.274C91.0927 168.272 85.8489 164.652 79.8729 162.999L77.6914 162.401L103.553 147.483Z" fill="url(#paint71_linear)"/>
<g style="mix-blend-mode:multiply">
<path d="M104.611 150.227L102.852 149.735L103.309 149.453L105.174 149.981C110.426 151.471 115.078 154.572 118.474 158.848L118.017 159.129C114.573 154.851 109.89 151.741 104.611 150.227Z" fill="#A7A9AC"/>
</g>
<g style="mix-blend-mode:multiply">
<path d="M103.066 151.107L101.307 150.614L101.799 150.333L103.664 150.861C108.916 152.351 113.569 155.452 116.964 159.727L116.472 160.009C113.028 155.73 108.345 152.621 103.066 151.107Z" fill="#A7A9AC"/>
</g>
<g style="mix-blend-mode:multiply">
<path d="M101.554 152.057L99.7949 151.564L100.252 151.283L102.117 151.811C107.37 153.301 112.022 156.402 115.417 160.677L114.96 160.959C111.516 156.68 106.834 153.571 101.554 152.057Z" fill="#A7A9AC"/>
</g>
<g style="mix-blend-mode:multiply">
<path d="M100.007 152.866L98.248 152.374L98.7406 152.092L100.57 152.62C105.836 154.101 110.502 157.203 113.906 161.487L113.413 161.768C109.969 157.49 105.287 154.38 100.007 152.866Z" fill="#A7A9AC"/>
</g>
<g style="mix-blend-mode:multiply">
<path d="M98.4898 153.781L96.6953 153.253L97.1879 152.972L99.0527 153.499C104.305 154.99 108.957 158.091 112.353 162.366L111.895 162.648C108.459 158.368 103.773 155.269 98.4898 153.781Z" fill="#A7A9AC"/>
</g>
<g style="mix-blend-mode:multiply">
<path d="M96.9429 154.661L95.1836 154.133L95.6762 153.887L97.5058 154.379C102.772 155.86 107.438 158.963 110.841 163.246L110.349 163.527C106.912 159.248 102.226 156.148 96.9429 154.661Z" fill="#A7A9AC"/>
</g>
<g style="mix-blend-mode:multiply">
<path d="M95.4312 155.576L93.6719 155.013L94.1645 154.766L96.0293 155.259C101.282 156.749 105.934 159.85 109.329 164.126L108.872 164.407C105.415 160.142 100.718 157.056 95.4312 155.576Z" fill="#A7A9AC"/>
</g>
<g style="mix-blend-mode:multiply">
<path d="M93.8843 156.42L92.125 155.892L92.6176 155.575L94.4473 156.068C99.713 157.568 104.369 160.697 107.747 165.005L107.29 165.287C103.854 161.007 99.1671 157.908 93.8843 156.42Z" fill="#A7A9AC"/>
</g>
<g style="mix-blend-mode:multiply">
<path d="M92.3315 157.3L90.5723 156.772L91.0649 156.526L92.9297 157.018C98.1821 158.508 102.834 161.61 106.23 165.885L105.772 166.166C102.322 161.886 97.6242 158.787 92.3315 157.3Z" fill="#A7A9AC"/>
</g>
<g style="mix-blend-mode:multiply">
<path d="M90.8198 158.179L89.0605 157.687L89.518 157.405L91.3828 157.898C96.6392 159.379 101.294 162.482 104.683 166.765L104.226 167.046C100.789 162.767 96.1027 159.667 90.8198 158.179Z" fill="#A7A9AC"/>
</g>
<g style="mix-blend-mode:multiply">
<path d="M89.273 159.094L87.5137 158.601L88.0063 158.32L89.8711 158.813C95.1235 160.303 99.7756 163.404 103.171 167.679L102.679 167.961C99.2488 163.674 94.5598 160.573 89.273 159.094Z" fill="#A7A9AC"/>
</g>
<g style="mix-blend-mode:multiply">
<path d="M87.7612 159.938L86.002 159.446L86.6353 159.094L88.5001 159.587C93.7525 161.077 98.4046 164.178 101.8 168.453L101.343 168.735C97.8501 164.451 93.0989 161.374 87.7612 159.938Z" fill="#A7A9AC"/>
</g>
<g style="mix-blend-mode:multiply">
<path d="M86.2144 160.818L84.4551 160.326L84.9477 160.044L86.8125 160.537C92.0649 162.027 96.717 165.128 100.113 169.403L99.6201 169.685C96.1838 165.406 91.4972 162.306 86.2144 160.818Z" fill="#A7A9AC"/>
</g>
<g style="mix-blend-mode:multiply">
<path d="M84.6986 161.698L83.1152 161.205L83.5727 160.924L85.4375 161.451C90.6934 162.915 95.35 166.007 98.7377 170.283L98.2802 170.565C94.7977 166.255 90.0454 163.152 84.6986 161.698Z" fill="#A7A9AC"/>
</g>
<g style="mix-blend-mode:multiply">
<path d="M110.979 177.953L112.703 179.185L112.07 179.502L110.451 178.34L110.979 177.953Z" fill="#A7A9AC"/>
</g>
<g style="mix-blend-mode:multiply">
<path d="M82.5503 162.894L80.7559 162.401L81.2485 162.12L83.1133 162.648L82.5503 162.894Z" fill="#A7A9AC"/>
</g>
<path opacity="0.2" d="M155.661 189.494L139.405 179.888C138.56 179.396 138.56 179.15 139.405 178.587L164.281 163.422C165.266 162.859 165.477 162.894 166.322 163.422L182.648 172.957C183.528 173.449 183.387 173.942 182.437 174.505L157.807 189.459C157.506 189.707 157.13 189.845 156.74 189.851C156.35 189.858 155.97 189.732 155.661 189.494Z" fill="black"/>
<path d="M139.301 179.22L146.408 175.033L156.155 189.002L139.301 179.22Z" fill="url(#paint72_linear)"/>
<path d="M164.562 160.607L181.029 170.177C181.34 170.353 181.599 170.609 181.779 170.918C181.958 171.228 182.051 171.579 182.049 171.937V173.555C182.051 173.709 182.009 173.86 181.928 173.991C181.847 174.122 181.73 174.227 181.592 174.294L156.962 189.248L156.54 185.307L139.404 175.42L164.034 160.607C164.206 160.551 164.391 160.551 164.562 160.607Z" fill="url(#paint73_linear)"/>
<path d="M156.364 185.307L139.404 175.42L164.034 160.607C164.158 160.539 164.297 160.504 164.439 160.504C164.58 160.504 164.719 160.539 164.844 160.607L181.31 170.177L156.364 185.307Z" fill="url(#paint74_linear)"/>
<path d="M156.997 186.89V188.439C156.997 188.574 156.961 188.708 156.893 188.825C156.824 188.942 156.727 189.04 156.609 189.108C156.491 189.175 156.358 189.211 156.222 189.211C156.087 189.211 155.953 189.175 155.836 189.107L139.65 179.748V175.666L156.012 185.166C156.319 185.335 156.574 185.585 156.747 185.889C156.921 186.194 157.008 186.54 156.997 186.89Z" fill="url(#paint75_linear)"/>
<g style="mix-blend-mode:multiply">
<path d="M156.539 188.896V187.242C156.536 186.899 156.444 186.563 156.271 186.267C156.098 185.971 155.851 185.725 155.554 185.553L139.65 176.335V175.596L156.012 185.096C156.319 185.265 156.574 185.515 156.747 185.819C156.921 186.123 157.008 186.47 156.997 186.82V188.368C156.998 188.531 156.947 188.69 156.853 188.823C156.758 188.956 156.624 189.055 156.469 189.107C156.504 189.041 156.528 188.97 156.539 188.896Z" fill="#D1D3D4"/>
</g>
<path d="M156.153 189.002C156.232 189.031 156.32 189.031 156.399 189.002C156.53 189.002 156.655 188.95 156.747 188.858C156.84 188.765 156.892 188.64 156.892 188.509V186.891C156.894 186.592 156.817 186.297 156.669 186.038C156.521 185.778 156.306 185.562 156.047 185.413L139.404 175.737V175.42L156.293 185.202C156.605 185.377 156.864 185.633 157.043 185.942C157.223 186.252 157.316 186.603 157.314 186.961V188.58C157.313 188.719 157.275 188.856 157.205 188.977C157.135 189.098 157.035 189.199 156.915 189.27C156.794 189.341 156.658 189.379 156.518 189.382C156.378 189.384 156.24 189.35 156.117 189.283L139.404 179.607V179.22L156.153 189.002Z" fill="url(#paint76_linear)"/>
<path d="M54.5362 242.836C54.0828 244.403 54.0104 246.056 54.3251 247.656C55.0684 248.559 56.0938 249.185 57.2363 249.434C58.3788 249.683 59.5719 249.54 60.6233 249.029C63.1567 247.797 64.1418 245.228 65.1974 244.525C68.8693 243.633 72.3578 242.109 75.5068 240.021C79.4828 236.502 79.0254 232.984 74.9438 232.984C70.1341 233.141 65.4159 234.342 61.1159 236.502C58.7023 238.372 56.4964 240.495 54.5362 242.836Z" fill="#10054D"/>
<path d="M56.4368 246.495C59.4951 246.498 62.4349 245.312 64.635 243.188C66.3239 241.745 69.3147 242.484 73.1851 239.458C77.0556 236.432 78.3926 234.286 76.7037 233.265C72.2095 232.259 67.5014 232.975 63.5091 235.271C58.4776 237.98 54.959 240.021 54.959 240.021C54.959 240.021 53.7627 243.751 54.3608 244.56C54.959 245.369 54.959 246.178 56.4368 246.495Z" fill="url(#paint77_linear)"/>
<path d="M56.3996 183.724C55.0596 190.562 54.822 197.57 55.6959 204.484C57.1033 216.095 54.8867 216.623 54.3589 224.856C53.8311 233.089 50.8403 243.223 55.1681 245.299C56.9817 245.9 58.9411 245.9 60.7544 245.298C62.5677 244.695 64.1379 243.523 65.2312 241.956C66.3429 240.87 67.2268 239.573 67.8309 238.141C68.4351 236.709 68.7475 235.171 68.7498 233.617C67.9109 230.135 68.008 226.494 69.0313 223.062C71.0153 213.571 72.3322 203.954 72.972 194.28C73.0164 191.485 72.2857 188.732 70.8609 186.328L56.3996 183.724Z" fill="url(#paint78_linear)"/>
<path d="M75.8274 254.905C75.8274 254.905 74.3496 259.338 76.1793 260.288C77.2515 260.862 78.4344 261.2 79.6483 261.279C80.8622 261.358 82.0788 261.176 83.2164 260.745C85.5387 259.725 86.4887 258.705 88.9165 258.705C93.9864 257.43 98.7019 255.024 102.709 251.667C104.539 249.345 102.709 246.706 98.1703 247.058C94.0805 247.259 90.0047 247.681 85.9609 248.325C84.7294 248.817 75.8274 254.905 75.8274 254.905Z" fill="#10054D"/>
<path d="M77.8651 258.177C81.1264 258.355 84.3884 257.839 87.4356 256.664C91.3764 255.854 102.565 251.315 102.354 248.817C102.143 246.319 99.5746 246.847 97.3931 247.058C95.2116 247.269 88.3152 247.726 87.7874 247.726C87.2596 247.726 76.0706 252.793 76.0706 252.793C76.0706 252.793 75.2613 256.488 76.0706 257.015C76.8799 257.543 76.7039 258.036 77.8651 258.177Z" fill="url(#paint79_linear)"/>
<path d="M64.9551 192.204C67.8847 194.553 70.2858 197.494 72.0016 200.835C73.7174 204.176 74.7093 207.841 74.9126 211.591C74.9126 223.624 73.6107 254.658 75.4404 256.382C77.0757 257.351 78.9278 257.893 80.8272 257.961C82.7266 258.029 84.6127 257.619 86.3127 256.769C90.5702 253.673 92.8221 249.239 92.435 247.726C92.048 246.213 88.7405 240.689 89.8665 235.834C92.594 224.947 93.9998 213.771 94.0536 202.548C94.0353 200.728 93.6354 198.932 92.8799 197.275C92.1243 195.619 91.0298 194.14 89.667 192.933C88.3043 191.726 86.7035 190.818 84.9682 190.268C83.2328 189.719 81.4015 189.539 79.5923 189.741C74.6667 190.256 69.7782 191.079 64.9551 192.204Z" fill="url(#paint80_linear)"/>
<path d="M45.4231 287.24C44.0619 287.239 42.7256 286.875 41.5526 286.184L10.2374 268.169C9.55637 267.787 8.98938 267.23 8.59478 266.556C8.20018 265.882 7.99219 265.115 7.99219 264.334C7.99219 263.553 8.20018 262.786 8.59478 262.112C8.98938 261.438 9.55637 260.881 10.2374 260.499L40.8841 243.293V226.404C40.8841 225.965 41.0583 225.545 41.3685 225.235C41.6786 224.925 42.0993 224.75 42.5378 224.75C42.9764 224.75 43.3971 224.925 43.7072 225.235C44.0173 225.545 44.1916 225.965 44.1916 226.404V244.278C44.1954 244.573 44.1188 244.863 43.97 245.117C43.8212 245.371 43.6058 245.58 43.3471 245.721L12.0319 263.314C11.8595 263.405 11.7157 263.542 11.6163 263.709C11.5169 263.877 11.4659 264.069 11.4689 264.264C11.4625 264.455 11.5082 264.645 11.6012 264.812C11.6941 264.979 11.8309 265.118 11.9967 265.214L43.3119 283.37C43.99 283.765 44.7611 283.974 45.5462 283.974C46.3313 283.974 47.1024 283.765 47.7805 283.37L74.8734 267.536V221.795C74.8734 221.356 75.0477 220.935 75.3578 220.625C75.6679 220.315 76.0886 220.141 76.5271 220.141C76.9657 220.141 77.3864 220.315 77.6965 220.625C78.0066 220.935 78.1809 221.356 78.1809 221.795V268.416C78.1819 268.701 78.1076 268.981 77.9655 269.228C77.8234 269.475 77.6185 269.681 77.3716 269.823L49.4694 286.149C48.2503 286.887 46.8477 287.265 45.4231 287.24Z" fill="url(#paint81_linear)"/>
<path opacity="0.3" d="M45.1395 285.762C43.9796 285.759 42.8402 285.456 41.8321 284.883L10.5169 266.692C10.0125 266.402 9.59353 265.984 9.30218 265.481C9.01083 264.977 8.85742 264.406 8.85742 263.824C8.85742 263.242 9.01083 262.671 9.30218 262.167C9.59353 261.664 10.0125 261.246 10.5169 260.956L41.5858 243.539V225.947C41.5858 225.797 41.6451 225.654 41.7507 225.549C41.8562 225.443 41.9994 225.384 42.1487 225.384C42.298 225.384 42.4412 225.443 42.5468 225.549C42.6524 225.654 42.7117 225.797 42.7117 225.947V243.821C42.7141 243.916 42.6887 244.01 42.6388 244.091C42.5888 244.173 42.5164 244.237 42.4302 244.278L11.0798 261.871C10.747 262.067 10.4692 262.344 10.2723 262.676C10.0754 263.008 9.96588 263.385 9.95389 263.771C9.95552 264.155 10.0569 264.532 10.2481 264.865C10.4393 265.198 10.7138 265.476 11.0446 265.671L42.3598 283.862C43.2125 284.331 44.1666 284.584 45.1395 284.601C46.1295 284.595 47.1005 284.328 47.9543 283.827L75.5751 267.677V221.548C75.5823 221.417 75.6356 221.292 75.7256 221.195C75.8157 221.099 75.9367 221.037 76.0677 221.021C76.2111 221.02 76.3492 221.075 76.4538 221.173C76.5584 221.271 76.6217 221.405 76.6306 221.548V268.169C76.633 268.265 76.6077 268.359 76.5577 268.44C76.5077 268.521 76.4353 268.586 76.3492 268.627L48.447 284.953C47.4334 285.505 46.2935 285.784 45.1395 285.762Z" fill="white"/>
<path d="M43.2812 239.915V243.328L80.9299 221.548V218.065L43.2812 239.915Z" fill="url(#paint82_linear)"/>
<path d="M43.314 239.915V243.328L6.4043 221.9V218.382L43.314 239.915Z" fill="url(#paint83_linear)"/>
<path d="M43.2812 237.839V241.252L80.9299 219.472V215.989L43.2812 237.839Z" fill="url(#paint84_linear)"/>
<path d="M43.314 237.839V241.252L6.4043 219.824V216.341L43.314 237.839Z" fill="url(#paint85_linear)"/>
<path d="M6.4043 216.341L43.314 237.839L80.9274 215.989L44.0177 194.491L6.4043 216.341Z" fill="url(#paint86_linear)"/>
<path d="M67.6641 162.612C70.3099 163.362 73.0422 163.765 75.7919 163.809C77.9383 164.09 80.0846 164.125 80.155 163.035C80.155 160.888 71.3234 159.938 71.3234 159.938L67.6641 162.612Z" fill="url(#paint87_radial)"/>
<path d="M61.9984 154.027C65.5501 152.608 69.1944 151.432 72.906 150.508C75.4136 149.907 78.056 150.285 80.295 151.564C82.0191 152.338 83.2154 153.077 83.0394 154.097C83.0394 154.555 81.9839 154.097 81.9839 154.097C81.9839 154.097 84.0246 155.083 83.9543 156.349C83.8839 157.616 82.6172 156.56 82.6172 156.56C82.6172 156.56 84.8339 157.686 84.6932 158.918C84.5524 160.149 83.2505 158.918 83.2505 158.918C83.2505 158.918 85.1154 159.903 85.1858 160.959C85.2561 162.014 84.5876 161.944 83.2154 161.522C80.5237 160.61 77.6605 160.322 74.8412 160.677C71.6393 161.381 69.8448 163.492 67.3466 162.542C65.4291 162.053 63.4103 162.139 61.541 162.788L61.9984 154.027Z" fill="url(#paint88_radial)"/>
<path d="M63.7918 152.057C64.4839 152.556 65.0332 153.229 65.385 154.006C65.7369 154.784 65.879 155.64 65.7973 156.49C65.287 159.168 64.3484 161.746 63.0177 164.125H33.4618C33.4618 164.125 12.7726 165.709 16.3967 157.088C20.0209 148.468 20.6542 146.533 31.0691 148.996C38.5125 150.968 46.1698 152.02 53.8694 152.127C58.1621 152.057 63.7918 152.057 63.7918 152.057Z" fill="url(#paint89_linear)"/>
<g style="mix-blend-mode:multiply">
<path d="M64.6691 160.607C63.6487 162.894 63.0154 164.125 63.0154 164.125H33.4595C33.4595 164.125 15.8667 166.412 16.3945 157.088C25.1536 159.402 34.1499 160.701 43.2059 160.959C54.6764 160.959 61.6783 160.712 64.6691 160.607Z" fill="#D1D3D4"/>
</g>
<path d="M26.2504 192.731C29.2763 191.465 45.9895 182.422 50.8803 183.9C58.7267 186.152 73.9269 201.106 73.9269 201.106C73.9269 201.106 34.5894 229.465 20.4096 218.91C6.22976 208.354 26.2504 192.731 26.2504 192.731Z" fill="url(#paint90_linear)"/>
<path d="M41.9099 200.824C44.9711 199.592 62.3879 192.203 67.6306 192.59C79.7345 193.54 86.9123 209.796 86.9123 209.796C86.9123 209.796 51.4452 235.552 36.1043 227.143C18.3356 217.326 41.9099 200.824 41.9099 200.824Z" fill="url(#paint91_linear)"/>
<path d="M51.444 122.888C54.294 124.858 57.0033 127.849 55.9478 135.555C54.8922 143.26 54.4348 146.99 52.7459 147.764C51.057 148.538 50.0366 147.342 49.2273 149.453C48.8113 151.335 48.6223 153.261 48.6643 155.188L32.479 148.82C33.4148 147.165 33.7387 145.235 33.3938 143.366C32.7253 140.445 28.7141 134.288 33.6401 126.934C35.5638 124.155 38.4592 122.198 41.7552 121.449C45.0511 120.7 48.5081 121.213 51.444 122.888Z" fill="url(#paint92_radial)"/>
<path d="M56.7951 130.418C56.6191 131.895 55.3525 134.147 53.2765 133.936C52.8264 133.928 52.3797 134.017 51.9664 134.195C51.5531 134.374 51.1826 134.638 50.8795 134.971C50.5765 135.304 50.348 135.698 50.2092 136.126C50.0704 136.554 50.0245 137.007 50.0746 137.455C50.3561 138.686 50.0746 138.933 50.0746 138.933C50.0746 138.933 48.632 138.088 47.7524 139.214C46.8727 140.34 47.3653 143.084 47.7524 144.175C48.1394 145.266 44.2338 147.694 41.243 147.694C38.2522 147.694 34.5578 146.568 33.5374 144.914C32.0398 142.773 31.0817 140.301 30.7448 137.71C30.4078 135.118 30.702 132.484 31.6022 130.031C32.7539 126.591 35.2079 123.74 38.4377 122.089C41.6675 120.438 45.4157 120.118 48.8783 121.199C50.9869 121.733 52.8791 122.905 54.2962 124.555C55.7133 126.205 56.586 128.253 56.7951 130.418Z" fill="url(#paint93_linear)"/>
<g style="mix-blend-mode:multiply">
<path d="M31.2467 130.453C33.3023 132.564 35.8551 134.124 38.6709 134.992C42.4067 136.181 46.3547 136.553 50.247 136.083C50.1173 136.495 50.1173 136.937 50.247 137.349C50.5285 138.581 50.247 138.827 50.247 138.827C50.247 138.827 48.8044 137.983 47.9247 139.109C47.0451 140.234 47.5377 142.979 47.9247 144.07C48.3118 145.16 44.4062 147.588 41.4154 147.588C38.4246 147.588 34.7301 146.462 33.7097 144.809C32.2209 142.767 31.2239 140.409 30.7967 137.919C30.3694 135.429 30.5235 132.874 31.2467 130.453Z" fill="#D1D3D4"/>
</g>
<path d="M37.7558 151.845C35.5305 150.641 33.4723 149.15 31.6335 147.412H25.4056C23.2476 147.526 21.1931 148.373 19.5811 149.812C17.9691 151.252 16.896 153.198 16.5389 155.329C15.5393 162.64 15.0455 170.011 15.0611 177.39C13.4425 205.539 8.19987 207.157 16.7852 211.767C25.3705 216.376 37.8965 219.226 44.9337 213.174C51.9708 207.122 50.9504 206.559 52.6041 193.435C54.2578 180.311 58.9727 174.47 54.469 166.835C51.6948 161.336 47.3302 156.8 41.9429 153.816C40.5096 153.242 39.1115 152.584 37.7558 151.845Z" fill="url(#paint94_linear)"/>
<path d="M52.0736 159.446C51.4403 155.575 48.2032 154.872 45.8106 153.992C41.9775 152.725 38.2772 151.087 34.7623 149.101C34.2225 148.774 33.7809 148.307 33.4837 147.749C33.1866 147.192 33.0448 146.565 33.0734 145.935L31.3845 147.377C31.3845 147.377 30.8919 150.896 35.8882 153.464C40.8846 156.033 46.9013 156.983 49.6458 160.114C50.4766 161.186 51.4203 162.165 52.4606 163.035C52.4606 163.035 52.7773 163.246 52.0736 159.446Z" fill="url(#paint95_linear)"/>
<g style="mix-blend-mode:multiply">
<path d="M42.3318 170.775C47.68 165.04 53.0986 171.127 56.8986 176.194C55.1707 181.87 53.7611 187.637 52.6763 193.47C51.0226 206.594 52.1837 207.157 45.0059 213.209C43.4596 214.664 41.596 215.74 39.5625 216.351C37.5289 216.961 35.3812 217.09 33.2891 216.728C34.1687 214.019 35.4354 178.305 42.3318 170.775Z" fill="#D1D3D4"/>
</g>
<path d="M99.3984 178.341C101.238 176.487 102.965 174.525 104.571 172.465C105.837 170.741 107.315 169.157 108.089 169.861C109.708 171.233 104.184 178.376 104.184 178.376L99.3984 178.341Z" fill="url(#paint96_radial)"/>
<path d="M98.0598 187.841C101.9 187.758 105.732 187.429 109.53 186.856C112.058 186.397 114.319 185.003 115.864 182.95C117.166 181.578 117.975 180.417 117.412 179.431C116.849 178.446 116.497 179.994 116.497 179.994C116.497 179.994 117.94 178.27 117.377 177.144C116.814 176.018 116.11 177.461 116.11 177.461C116.11 177.461 117.693 175.561 117.06 174.47C116.427 173.379 115.688 174.928 115.688 174.928C115.688 174.928 117.025 173.274 116.638 172.289C116.251 171.303 115.688 171.62 114.597 172.535C112.511 174.484 109.99 175.908 107.243 176.687C104.041 177.285 101.578 176.089 99.6432 177.954C98.0749 179.154 96.1932 179.875 94.2246 180.03L98.0598 187.841Z" fill="url(#paint97_radial)"/>
<path d="M43.9796 167.011C42.9059 167.686 41.9924 168.588 41.3027 169.652C40.613 170.717 40.1638 171.919 39.9863 173.175C39.8087 174.431 39.9072 175.711 40.2748 176.925C40.6424 178.139 41.2703 179.259 42.1147 180.205C45.6333 184.533 64.2113 195.441 70.2632 196.25C76.3152 197.059 101.543 189.846 101.543 189.846C101.697 187.341 101.567 184.827 101.156 182.352C101.039 181.598 100.741 180.885 100.287 180.272C99.8339 179.659 99.2386 179.165 98.5525 178.833C98.5525 178.833 80.9597 183.372 75.6115 182.352C70.2632 181.331 62.3817 174.646 57.2094 170.916C52.0371 167.187 48.413 164.231 43.9796 167.011Z" fill="url(#paint98_linear)"/>
<path d="M43.3843 201.563L39.6898 186.609L36.9453 188.192L40.4639 203.076C42.2631 210.304 43.173 217.724 43.1732 225.172V237.874L45.9176 236.361V223.484C45.9549 216.102 45.1044 208.742 43.3843 201.563Z" fill="url(#paint99_linear)"/>
<path d="M36.9449 188.192L0 166.553L3.51856 181.577C5.30339 188.783 6.20141 196.18 6.19266 203.603V216.341L43.1376 237.874V225.172C43.1465 217.714 42.2485 210.282 40.4635 203.04L36.9449 188.192Z" fill="url(#paint100_linear)"/>
<path d="M0 166.553L36.9449 188.192L39.6894 186.609L2.70929 165.005L0 166.553Z" fill="url(#paint101_linear)"/>
<defs>
<linearGradient id="paint0_linear" x1="1421.84" y1="2275.87" x2="1438.25" y2="2275.87" gradientUnits="userSpaceOnUse">
<stop stop-color="#8A92B3"/>
<stop offset="0.06" stop-color="#8E95B6"/>
<stop offset="0.13" stop-color="#9C9EBE"/>
<stop offset="0.2" stop-color="#B1ACCB"/>
<stop offset="0.25" stop-color="#C7BAD8"/>
<stop offset="0.33" stop-color="#B2AACC"/>
<stop offset="0.45" stop-color="#9A97BE"/>
<stop offset="0.56" stop-color="#8B8CB6"/>
<stop offset="0.65" stop-color="#8688B3"/>
<stop offset="0.85" stop-color="#AAABCB"/>
<stop offset="1" stop-color="#9396B3"/>
</linearGradient>
<linearGradient id="paint1_linear" x1="1259.54" y1="2817.86" x2="1275.81" y2="2817.86" gradientUnits="userSpaceOnUse">
<stop stop-color="#8A92B3"/>
<stop offset="0.06" stop-color="#8E95B6"/>
<stop offset="0.13" stop-color="#9C9EBE"/>
<stop offset="0.2" stop-color="#B1ACCB"/>
<stop offset="0.25" stop-color="#C7BAD8"/>
<stop offset="0.33" stop-color="#B2AACC"/>
<stop offset="0.45" stop-color="#9A97BE"/>
<stop offset="0.56" stop-color="#8B8CB6"/>
<stop offset="0.65" stop-color="#8688B3"/>
<stop offset="0.85" stop-color="#AAABCB"/>
<stop offset="1" stop-color="#9396B3"/>
</linearGradient>
<linearGradient id="paint2_linear" x1="1428.01" y1="461.769" x2="1448.12" y2="502.841" gradientUnits="userSpaceOnUse">
<stop stop-color="#4C4C4C"/>
<stop offset="1" stop-color="white"/>
</linearGradient>
<linearGradient id="paint3_linear" x1="1267.71" y1="2142.43" x2="1267.71" y2="2388.75" gradientUnits="userSpaceOnUse">
<stop stop-color="#4C4C4C"/>
<stop offset="1" stop-color="white"/>
</linearGradient>
<linearGradient id="paint4_linear" x1="919.231" y1="1607.62" x2="935.494" y2="1607.62" gradientUnits="userSpaceOnUse">
<stop stop-color="#8A92B3"/>
<stop offset="0.06" stop-color="#8E95B6"/>
<stop offset="0.13" stop-color="#9C9EBE"/>
<stop offset="0.2" stop-color="#B1ACCB"/>
<stop offset="0.25" stop-color="#C7BAD8"/>
<stop offset="0.33" stop-color="#B2AACC"/>
<stop offset="0.45" stop-color="#9A97BE"/>
<stop offset="0.56" stop-color="#8B8CB6"/>
<stop offset="0.65" stop-color="#8688B3"/>
<stop offset="0.85" stop-color="#AAABCB"/>
<stop offset="1" stop-color="#9396B3"/>
</linearGradient>
<linearGradient id="paint5_linear" x1="19663.4" y1="3473.47" x2="19806.1" y2="733.15" gradientUnits="userSpaceOnUse">
<stop stop-color="#45108A"/>
<stop offset="1" stop-color="#7C1DC9"/>
</linearGradient>
<linearGradient id="paint6_linear" x1="20630.5" y1="309.374" x2="20210.2" y2="2947.81" gradientUnits="userSpaceOnUse">
<stop stop-color="#45108A"/>
<stop offset="1" stop-color="#7C1DC9"/>
</linearGradient>
<radialGradient id="paint7_radial" cx="0" cy="0" r="1" gradientUnits="userSpaceOnUse" gradientTransform="translate(447950 1577.78) scale(3007.96 1180.54)">
<stop stop-color="white"/>
<stop offset="1"/>
</radialGradient>
<radialGradient id="paint8_radial" cx="0" cy="0" r="1" gradientUnits="userSpaceOnUse" gradientTransform="translate(-37679.3 9898.59) scale(20.0084 31.2047)">
<stop stop-color="#972A74"/>
<stop offset="0.04" stop-color="#8A266A"/>
<stop offset="0.19" stop-color="#601B4A"/>
<stop offset="0.35" stop-color="#3D112F"/>
<stop offset="0.51" stop-color="#230A1B"/>
<stop offset="0.67" stop-color="#0F040C"/>
<stop offset="0.83" stop-color="#040103"/>
<stop offset="1"/>
</radialGradient>
<linearGradient id="paint9_linear" x1="779.762" y1="479.86" x2="795.034" y2="479.177" gradientUnits="userSpaceOnUse">
<stop stop-color="#45108A"/>
<stop offset="1" stop-color="#7C1DC9"/>
</linearGradient>
<linearGradient id="paint10_linear" x1="13465.5" y1="1056.69" x2="13624.3" y2="-515.606" gradientUnits="userSpaceOnUse">
<stop stop-color="#45108A"/>
<stop offset="1" stop-color="#7C1DC9"/>
</linearGradient>
<linearGradient id="paint11_linear" x1="14139.2" y1="312.172" x2="14037.5" y2="647.717" gradientUnits="userSpaceOnUse">
<stop stop-color="#45108A"/>
<stop offset="1" stop-color="#7C1DC9"/>
</linearGradient>
<radialGradient id="paint12_radial" cx="0" cy="0" r="1" gradientUnits="userSpaceOnUse" gradientTransform="translate(439.759 432.816) scale(2.21913 70.0993)">
<stop stop-color="white"/>
<stop offset="1"/>
</radialGradient>
<linearGradient id="paint13_linear" x1="86775.5" y1="470.739" x2="87053.9" y2="395.509" gradientUnits="userSpaceOnUse">
<stop offset="0.04" stop-color="#9F19AB"/>
<stop offset="0.24" stop-color="#AE25B1"/>
<stop offset="0.65" stop-color="#D744BF"/>
<stop offset="1" stop-color="#FF63CE"/>
</linearGradient>
<linearGradient id="paint14_linear" x1="219883" y1="715.812" x2="219817" y2="872.894" gradientUnits="userSpaceOnUse">
<stop offset="0.03" stop-color="#B82CB4"/>
<stop offset="0.54" stop-color="#DE4AC2"/>
<stop offset="0.72" stop-color="#EC55C7"/>
<stop offset="1" stop-color="#D644BF"/>
</linearGradient>
<linearGradient id="paint15_linear" x1="215734" y1="413.819" x2="215637" y2="726.796" gradientUnits="userSpaceOnUse">
<stop offset="0.04" stop-color="#9F19AB"/>
<stop offset="0.24" stop-color="#AE25B1"/>
<stop offset="0.65" stop-color="#D744BF"/>
<stop offset="1" stop-color="#FF63CE"/>
</linearGradient>
<linearGradient id="paint16_linear" x1="95852.3" y1="465.758" x2="96154.3" y2="378.892" gradientUnits="userSpaceOnUse">
<stop offset="0.04" stop-color="#9D9EB3"/>
<stop offset="0.58" stop-color="#D4D1D8"/>
<stop offset="1" stop-color="#EEEBF2"/>
</linearGradient>
<linearGradient id="paint17_linear" x1="92178.3" y1="477.844" x2="92500" y2="385.357" gradientUnits="userSpaceOnUse">
<stop offset="0.04" stop-color="#9F19AB"/>
<stop offset="0.24" stop-color="#AE25B1"/>
<stop offset="0.65" stop-color="#D744BF"/>
<stop offset="1" stop-color="#FF63CE"/>
</linearGradient>
<linearGradient id="paint18_linear" x1="504741" y1="793.747" x2="504663" y2="793.747" gradientUnits="userSpaceOnUse">
<stop stop-color="#8A1694"/>
<stop offset="0.1" stop-color="#A729A3"/>
<stop offset="0.24" stop-color="#CD41B7"/>
<stop offset="0.35" stop-color="#E450C3"/>
<stop offset="0.42" stop-color="#EC55C7"/>
<stop offset="0.59" stop-color="#FF7AE1"/>
<stop offset="0.77" stop-color="#E24DC3"/>
<stop offset="1" stop-color="#9F19AB"/>
</linearGradient>
<linearGradient id="paint19_linear" x1="-70995.6" y1="789.609" x2="-69862.9" y2="789.609" gradientUnits="userSpaceOnUse">
<stop offset="0.04" stop-color="#9F19AB"/>
<stop offset="0.24" stop-color="#AE25B1"/>
<stop offset="0.65" stop-color="#D744BF"/>
<stop offset="1" stop-color="#FF63CE"/>
</linearGradient>
<radialGradient id="paint20_radial" cx="0" cy="0" r="1" gradientUnits="userSpaceOnUse" gradientTransform="translate(-35536.7 420.604) scale(67.0722 37.9983)">
<stop stop-color="#818181"/>
<stop offset="0.2" stop-color="#9B9B9B"/>
<stop offset="1" stop-color="white"/>
</radialGradient>
<linearGradient id="paint21_linear" x1="347922" y1="503.707" x2="347889" y2="610.799" gradientUnits="userSpaceOnUse">
<stop offset="0.02" stop-color="#DEDDE0"/>
<stop offset="0.12" stop-color="#ECECED"/>
<stop offset="0.25" stop-color="#FAF9FA"/>
<stop offset="0.37" stop-color="#FEFEFE"/>
<stop offset="0.54" stop-color="#F9F8FA"/>
<stop offset="1" stop-color="#EEEBF2"/>
</linearGradient>
<linearGradient id="paint22_linear" x1="346045" y1="586.755" x2="346096" y2="447.208" gradientUnits="userSpaceOnUse">
<stop stop-color="#F0EFF1"/>
<stop offset="0.18" stop-color="#FAF9FA"/>
<stop offset="0.37" stop-color="#FEFEFE"/>
<stop offset="0.54" stop-color="#F9F8FA"/>
<stop offset="1" stop-color="#EEEBF2"/>
</linearGradient>
<linearGradient id="paint23_linear" x1="2368.58" y1="431.691" x2="2625.99" y2="361.989" gradientUnits="userSpaceOnUse">
<stop offset="0.04" stop-color="#FFA98C"/>
<stop offset="0.32" stop-color="#FFB892"/>
<stop offset="0.86" stop-color="#FEE1A3"/>
<stop offset="1" stop-color="#FEECA8"/>
</linearGradient>
<linearGradient id="paint24_linear" x1="5690.12" y1="653.173" x2="5629.52" y2="798.186" gradientUnits="userSpaceOnUse">
<stop offset="0.02" stop-color="#F9B696"/>
<stop offset="0.72" stop-color="#FFDAA7"/>
<stop offset="1" stop-color="#FFBB96"/>
</linearGradient>
<linearGradient id="paint25_linear" x1="5730.02" y1="373.756" x2="5641.24" y2="660.623" gradientUnits="userSpaceOnUse">
<stop offset="0.04" stop-color="#FFA98C"/>
<stop offset="0.32" stop-color="#FFB892"/>
<stop offset="0.86" stop-color="#FEE1A3"/>
<stop offset="1" stop-color="#FEECA8"/>
</linearGradient>
<linearGradient id="paint26_linear" x1="7388.63" y1="427.855" x2="7667.63" y2="347.851" gradientUnits="userSpaceOnUse">
<stop offset="0.04" stop-color="#9D9EB3"/>
<stop offset="0.58" stop-color="#D4D1D8"/>
<stop offset="1" stop-color="#EEEBF2"/>
</linearGradient>
<linearGradient id="paint27_linear" x1="2479.59" y1="439.308" x2="2776.43" y2="354.024" gradientUnits="userSpaceOnUse">
<stop offset="0.04" stop-color="#FFA98C"/>
<stop offset="0.32" stop-color="#FFB892"/>
<stop offset="0.86" stop-color="#FEE1A3"/>
<stop offset="1" stop-color="#FEECA8"/>
</linearGradient>
<linearGradient id="paint28_linear" x1="197.887" y1="123.275" x2="252.636" y2="123.275" gradientUnits="userSpaceOnUse">
<stop offset="0.01" stop-color="#F9B69E"/>
<stop offset="0.81" stop-color="#FDD7C2"/>
<stop offset="1" stop-color="#FEDFCB"/>
</linearGradient>
<linearGradient id="paint29_linear" x1="236.489" y1="149.528" x2="256.481" y2="145.26" gradientUnits="userSpaceOnUse">
<stop offset="0.09" stop-color="#10054D"/>
<stop offset="0.89" stop-color="#270656"/>
</linearGradient>
<linearGradient id="paint30_linear" x1="6664.98" y1="3809.15" x2="7581.04" y2="2278.41" gradientUnits="userSpaceOnUse">
<stop offset="0.04" stop-color="#6B24D6"/>
<stop offset="0.29" stop-color="#7733DC"/>
<stop offset="0.79" stop-color="#975CED"/>
<stop offset="1" stop-color="#A56EF4"/>
</linearGradient>
<linearGradient id="paint31_linear" x1="3941.07" y1="1102.78" x2="4715.21" y2="757.142" gradientUnits="userSpaceOnUse">
<stop offset="0.04" stop-color="#6B24D6"/>
<stop offset="0.29" stop-color="#7733DC"/>
<stop offset="0.79" stop-color="#975CED"/>
<stop offset="1" stop-color="#A56EF4"/>
</linearGradient>
<linearGradient id="paint32_linear" x1="3037.62" y1="1146.68" x2="4054.54" y2="809.284" gradientUnits="userSpaceOnUse">
<stop offset="0.04" stop-color="#6B24D6"/>
<stop offset="0.29" stop-color="#7733DC"/>
<stop offset="0.79" stop-color="#975CED"/>
<stop offset="1" stop-color="#A56EF4"/>
</linearGradient>
<linearGradient id="paint33_linear" x1="3941.07" y1="1085.8" x2="4715.21" y2="740.161" gradientUnits="userSpaceOnUse">
<stop offset="0.04" stop-color="#9F19AB"/>
<stop offset="0.24" stop-color="#AE25B1"/>
<stop offset="0.65" stop-color="#D744BF"/>
<stop offset="1" stop-color="#FF63CE"/>
</linearGradient>
<linearGradient id="paint34_linear" x1="3037.62" y1="1128.49" x2="4054.25" y2="790.717" gradientUnits="userSpaceOnUse">
<stop offset="0.04" stop-color="#9F19AB"/>
<stop offset="0.24" stop-color="#AE25B1"/>
<stop offset="0.65" stop-color="#D744BF"/>
<stop offset="1" stop-color="#FF63CE"/>
</linearGradient>
<linearGradient id="paint35_linear" x1="8207.9" y1="693.775" x2="7856.24" y2="1846.83" gradientUnits="userSpaceOnUse">
<stop offset="0.04" stop-color="#9F19AB"/>
<stop offset="0.24" stop-color="#AE25B1"/>
<stop offset="0.65" stop-color="#D744BF"/>
<stop offset="1" stop-color="#FF63CE"/>
</linearGradient>
<linearGradient id="paint36_linear" x1="-12361.1" y1="13149.2" x2="-12272" y2="13182" gradientUnits="userSpaceOnUse">
<stop offset="0.01" stop-color="#F9B69E"/>
<stop offset="0.81" stop-color="#FDD7C2"/>
<stop offset="1" stop-color="#FEDFCB"/>
</linearGradient>
<linearGradient id="paint37_linear" x1="251.526" y1="78.7198" x2="258.327" y2="74.8117" gradientUnits="userSpaceOnUse">
<stop stop-color="#D4D1D8"/>
<stop offset="1" stop-color="white"/>
</linearGradient>
<linearGradient id="paint38_linear" x1="5593.23" y1="2057" x2="6445.86" y2="2057" gradientUnits="userSpaceOnUse">
<stop offset="0.01" stop-color="#F9B69E"/>
<stop offset="0.81" stop-color="#FDD7C2"/>
<stop offset="1" stop-color="#FEDFCB"/>
</linearGradient>
<linearGradient id="paint39_linear" x1="5608.51" y1="1258.58" x2="6561.78" y2="1258.58" gradientUnits="userSpaceOnUse">
<stop offset="0.09" stop-color="#10054D"/>
<stop offset="0.89" stop-color="#270656"/>
</linearGradient>
<linearGradient id="paint40_linear" x1="28451.8" y1="-10141.3" x2="28571.9" y2="-10141.3" gradientUnits="userSpaceOnUse">
<stop offset="0.09" stop-color="#10054D"/>
<stop offset="0.89" stop-color="#270656"/>
</linearGradient>
<linearGradient id="paint41_linear" x1="1884.24" y1="746.012" x2="1695.18" y2="792.699" gradientUnits="userSpaceOnUse">
<stop offset="0.04" stop-color="#138BBD"/>
<stop offset="0.23" stop-color="#169AC7"/>
<stop offset="0.59" stop-color="#1FC3DF"/>
<stop offset="1" stop-color="#2AF6FF"/>
</linearGradient>
<linearGradient id="paint42_linear" x1="2313.09" y1="341.058" x2="2449.28" y2="341.058" gradientUnits="userSpaceOnUse">
<stop offset="0.01" stop-color="#F9B69E"/>
<stop offset="0.81" stop-color="#FDD7C2"/>
<stop offset="1" stop-color="#FEDFCB"/>
</linearGradient>
<linearGradient id="paint43_linear" x1="3151.65" y1="1752.89" x2="3791.91" y2="1517.22" gradientUnits="userSpaceOnUse">
<stop offset="0.04" stop-color="#138BBD"/>
<stop offset="0.23" stop-color="#169AC7"/>
<stop offset="0.59" stop-color="#1FC3DF"/>
<stop offset="1" stop-color="#2AF6FF"/>
</linearGradient>
<linearGradient id="paint44_linear" x1="-37918.5" y1="42237.1" x2="-37685.6" y2="41806.5" gradientUnits="userSpaceOnUse">
<stop offset="0.04" stop-color="#138BBD"/>
<stop offset="0.23" stop-color="#169AC7"/>
<stop offset="0.59" stop-color="#1FC3DF"/>
<stop offset="1" stop-color="#2AF6FF"/>
</linearGradient>
<radialGradient id="paint45_radial" cx="0" cy="0" r="1" gradientUnits="userSpaceOnUse" gradientTransform="translate(213.294 32.1657) scale(19.3873 25.2035)">
<stop stop-color="#FDD65B"/>
<stop offset="1" stop-color="#FFA98C"/>
</radialGradient>
<linearGradient id="paint46_linear" x1="1074.55" y1="1774.43" x2="1132.91" y2="1771.31" gradientUnits="userSpaceOnUse">
<stop offset="0.04" stop-color="#9F19AB"/>
<stop offset="0.24" stop-color="#AE25B1"/>
<stop offset="0.65" stop-color="#D744BF"/>
<stop offset="1" stop-color="#FF63CE"/>
</linearGradient>
<linearGradient id="paint47_linear" x1="3396.71" y1="2449.78" x2="4865.26" y2="2250.66" gradientUnits="userSpaceOnUse">
<stop offset="0.04" stop-color="#9F19AB"/>
<stop offset="0.24" stop-color="#AE25B1"/>
<stop offset="0.65" stop-color="#D744BF"/>
<stop offset="1" stop-color="#FF63CE"/>
</linearGradient>
<linearGradient id="paint48_linear" x1="3803.04" y1="533.846" x2="3780.26" y2="607.731" gradientUnits="userSpaceOnUse">
<stop offset="0.04" stop-color="#9F19AB"/>
<stop offset="0.24" stop-color="#AE25B1"/>
<stop offset="0.65" stop-color="#D744BF"/>
<stop offset="1" stop-color="#FF63CE"/>
</linearGradient>
<linearGradient id="paint49_linear" x1="903.733" y1="4164.63" x2="919.996" y2="4164.63" gradientUnits="userSpaceOnUse">
<stop stop-color="#8A92B3"/>
<stop offset="0.06" stop-color="#8E95B6"/>
<stop offset="0.13" stop-color="#9C9EBE"/>
<stop offset="0.2" stop-color="#B1ACCB"/>
<stop offset="0.25" stop-color="#C7BAD8"/>
<stop offset="0.33" stop-color="#B2AACC"/>
<stop offset="0.45" stop-color="#9A97BE"/>
<stop offset="0.56" stop-color="#8B8CB6"/>
<stop offset="0.65" stop-color="#8688B3"/>
<stop offset="0.85" stop-color="#AAABCB"/>
<stop offset="1" stop-color="#9396B3"/>
</linearGradient>
<linearGradient id="paint50_linear" x1="748.342" y1="4707.59" x2="764.53" y2="4707.59" gradientUnits="userSpaceOnUse">
<stop stop-color="#8A92B3"/>
<stop offset="0.06" stop-color="#8E95B6"/>
<stop offset="0.13" stop-color="#9C9EBE"/>
<stop offset="0.2" stop-color="#B1ACCB"/>
<stop offset="0.25" stop-color="#C7BAD8"/>
<stop offset="0.33" stop-color="#B2AACC"/>
<stop offset="0.45" stop-color="#9A97BE"/>
<stop offset="0.56" stop-color="#8B8CB6"/>
<stop offset="0.65" stop-color="#8688B3"/>
<stop offset="0.85" stop-color="#AAABCB"/>
<stop offset="1" stop-color="#9396B3"/>
</linearGradient>
<linearGradient id="paint51_linear" x1="909.841" y1="973.074" x2="929.771" y2="1013.77" gradientUnits="userSpaceOnUse">
<stop stop-color="#4C4C4C"/>
<stop offset="1" stop-color="white"/>
</linearGradient>
<linearGradient id="paint52_linear" x1="756.474" y1="4035.31" x2="756.474" y2="4281.89" gradientUnits="userSpaceOnUse">
<stop stop-color="#4C4C4C"/>
<stop offset="1" stop-color="white"/>
</linearGradient>
<linearGradient id="paint53_linear" x1="409.107" y1="3496.39" x2="425.295" y2="3496.39" gradientUnits="userSpaceOnUse">
<stop stop-color="#8A92B3"/>
<stop offset="0.06" stop-color="#8E95B6"/>
<stop offset="0.13" stop-color="#9C9EBE"/>
<stop offset="0.2" stop-color="#B1ACCB"/>
<stop offset="0.25" stop-color="#C7BAD8"/>
<stop offset="0.33" stop-color="#B2AACC"/>
<stop offset="0.45" stop-color="#9A97BE"/>
<stop offset="0.56" stop-color="#8B8CB6"/>
<stop offset="0.65" stop-color="#8688B3"/>
<stop offset="0.85" stop-color="#AAABCB"/>
<stop offset="1" stop-color="#9396B3"/>
</linearGradient>
<linearGradient id="paint54_linear" x1="11895.6" y1="6268.53" x2="12038.5" y2="3526.25" gradientUnits="userSpaceOnUse">
<stop stop-color="#45108A"/>
<stop offset="1" stop-color="#7C1DC9"/>
</linearGradient>
<linearGradient id="paint55_linear" x1="12859.7" y1="3058.2" x2="12439.4" y2="5696.63" gradientUnits="userSpaceOnUse">
<stop stop-color="#45108A"/>
<stop offset="1" stop-color="#7C1DC9"/>
</linearGradient>
<radialGradient id="paint56_radial" cx="0" cy="0" r="1" gradientUnits="userSpaceOnUse" gradientTransform="translate(455399 3470.89) scale(3007.96 1178.64)">
<stop stop-color="white"/>
<stop offset="1"/>
</radialGradient>
<radialGradient id="paint57_radial" cx="0" cy="0" r="1" gradientUnits="userSpaceOnUse" gradientTransform="translate(-38588.5 10451) scale(20.0072 31.2047)">
<stop stop-color="#972A74"/>
<stop offset="0.04" stop-color="#8A266A"/>
<stop offset="0.19" stop-color="#601B4A"/>
<stop offset="0.35" stop-color="#3D112F"/>
<stop offset="0.51" stop-color="#230A1B"/>
<stop offset="0.67" stop-color="#0F040C"/>
<stop offset="0.83" stop-color="#040103"/>
<stop offset="1"/>
</radialGradient>
<linearGradient id="paint58_linear" x1="479.852" y1="1137.83" x2="495.095" y2="1137.15" gradientUnits="userSpaceOnUse">
<stop stop-color="#45108A"/>
<stop offset="1" stop-color="#7C1DC9"/>
</linearGradient>
<linearGradient id="paint59_linear" x1="8458.99" y1="3347.98" x2="8617.89" y2="1775.69" gradientUnits="userSpaceOnUse">
<stop stop-color="#45108A"/>
<stop offset="1" stop-color="#7C1DC9"/>
</linearGradient>
<linearGradient id="paint60_linear" x1="8996.44" y1="2139.01" x2="8895.31" y2="2474.18" gradientUnits="userSpaceOnUse">
<stop stop-color="#45108A"/>
<stop offset="1" stop-color="#7C1DC9"/>
</linearGradient>
<radialGradient id="paint61_radial" cx="0" cy="0" r="1" gradientUnits="userSpaceOnUse" gradientTransform="translate(248.574 1049.18) scale(2.08857 70.0992)">
<stop stop-color="white"/>
<stop offset="1"/>
</radialGradient>
<linearGradient id="paint62_linear" x1="87371.4" y1="946.392" x2="87649.9" y2="871.163" gradientUnits="userSpaceOnUse">
<stop offset="0.04" stop-color="#9F19AB"/>
<stop offset="0.24" stop-color="#AE25B1"/>
<stop offset="0.65" stop-color="#D744BF"/>
<stop offset="1" stop-color="#FF63CE"/>
</linearGradient>
<linearGradient id="paint63_linear" x1="221242" y1="1600.03" x2="221175" y2="1757.63" gradientUnits="userSpaceOnUse">
<stop offset="0.03" stop-color="#B82CB4"/>
<stop offset="0.54" stop-color="#DE4AC2"/>
<stop offset="0.72" stop-color="#EC55C7"/>
<stop offset="1" stop-color="#D644BF"/>
</linearGradient>
<linearGradient id="paint64_linear" x1="217450" y1="1184.43" x2="217353" y2="1497.19" gradientUnits="userSpaceOnUse">
<stop offset="0.04" stop-color="#9F19AB"/>
<stop offset="0.24" stop-color="#AE25B1"/>
<stop offset="0.65" stop-color="#D744BF"/>
<stop offset="1" stop-color="#FF63CE"/>
</linearGradient>
<linearGradient id="paint65_linear" x1="96520.6" y1="937.678" x2="96823.3" y2="851.487" gradientUnits="userSpaceOnUse">
<stop offset="0.04" stop-color="#9D9EB3"/>
<stop offset="0.58" stop-color="#D4D1D8"/>
<stop offset="1" stop-color="#EEEBF2"/>
</linearGradient>
<linearGradient id="paint66_linear" x1="92821.6" y1="951.43" x2="93143.3" y2="858.746" gradientUnits="userSpaceOnUse">
<stop offset="0.04" stop-color="#9F19AB"/>
<stop offset="0.24" stop-color="#AE25B1"/>
<stop offset="0.65" stop-color="#D744BF"/>
<stop offset="1" stop-color="#FF63CE"/>
</linearGradient>
<linearGradient id="paint67_linear" x1="507371" y1="1889.25" x2="507292" y2="1889.25" gradientUnits="userSpaceOnUse">
<stop stop-color="#8A1694"/>
<stop offset="0.1" stop-color="#A729A3"/>
<stop offset="0.24" stop-color="#CD41B7"/>
<stop offset="0.35" stop-color="#E450C3"/>
<stop offset="0.42" stop-color="#EC55C7"/>
<stop offset="0.59" stop-color="#FF7AE1"/>
<stop offset="0.77" stop-color="#E24DC3"/>
<stop offset="1" stop-color="#9F19AB"/>
</linearGradient>
<linearGradient id="paint68_linear" x1="-73836.4" y1="1886.12" x2="-72704.5" y2="1886.12" gradientUnits="userSpaceOnUse">
<stop offset="0.04" stop-color="#9F19AB"/>
<stop offset="0.24" stop-color="#AE25B1"/>
<stop offset="0.65" stop-color="#D744BF"/>
<stop offset="1" stop-color="#FF63CE"/>
</linearGradient>
<radialGradient id="paint69_radial" cx="0" cy="0" r="1" gradientUnits="userSpaceOnUse" gradientTransform="translate(-37014.6 978.739) scale(67.0722 38.0759)">
<stop stop-color="#818181"/>
<stop offset="0.2" stop-color="#9B9B9B"/>
<stop offset="1" stop-color="white"/>
</radialGradient>
<linearGradient id="paint70_linear" x1="349686" y1="1219.65" x2="349653" y2="1326.06" gradientUnits="userSpaceOnUse">
<stop offset="0.02" stop-color="#DEDDE0"/>
<stop offset="0.12" stop-color="#ECECED"/>
<stop offset="0.25" stop-color="#FAF9FA"/>
<stop offset="0.37" stop-color="#FEFEFE"/>
<stop offset="0.54" stop-color="#F9F8FA"/>
<stop offset="1" stop-color="#EEEBF2"/>
</linearGradient>
<linearGradient id="paint71_linear" x1="347232" y1="1389.53" x2="347282" y2="1250.99" gradientUnits="userSpaceOnUse">
<stop stop-color="#F0EFF1"/>
<stop offset="0.18" stop-color="#FAF9FA"/>
<stop offset="0.37" stop-color="#FEFEFE"/>
<stop offset="0.54" stop-color="#F9F8FA"/>
<stop offset="1" stop-color="#EEEBF2"/>
</linearGradient>
<linearGradient id="paint72_linear" x1="87371.4" y1="917.887" x2="87649.9" y2="842.657" gradientUnits="userSpaceOnUse">
<stop offset="0.04" stop-color="#6B24D6"/>
<stop offset="0.29" stop-color="#7733DC"/>
<stop offset="0.79" stop-color="#975CED"/>
<stop offset="1" stop-color="#A56EF4"/>
</linearGradient>
<linearGradient id="paint73_linear" x1="221090" y1="1538.8" x2="221024" y2="1695.69" gradientUnits="userSpaceOnUse">
<stop offset="0.04" stop-color="#5918A6"/>
<stop offset="0.72" stop-color="#7C1DC9"/>
<stop offset="1" stop-color="#6519B0"/>
</linearGradient>
<linearGradient id="paint74_linear" x1="217450" y1="1138.26" x2="217353" y2="1451.03" gradientUnits="userSpaceOnUse">
<stop offset="0.04" stop-color="#6B24D6"/>
<stop offset="0.29" stop-color="#7733DC"/>
<stop offset="0.79" stop-color="#975CED"/>
<stop offset="1" stop-color="#A56EF4"/>
</linearGradient>
<linearGradient id="paint75_linear" x1="96470.3" y1="902.065" x2="96772.4" y2="815.196" gradientUnits="userSpaceOnUse">
<stop offset="0.04" stop-color="#9D9EB3"/>
<stop offset="0.58" stop-color="#D4D1D8"/>
<stop offset="1" stop-color="#EEEBF2"/>
</linearGradient>
<linearGradient id="paint76_linear" x1="92821.6" y1="924.885" x2="93143.4" y2="832.399" gradientUnits="userSpaceOnUse">
<stop offset="0.04" stop-color="#6B24D6"/>
<stop offset="0.29" stop-color="#7733DC"/>
<stop offset="0.79" stop-color="#975CED"/>
<stop offset="1" stop-color="#A56EF4"/>
</linearGradient>
<linearGradient id="paint77_linear" x1="165523" y1="1169.51" x2="165523" y2="1117.69" gradientUnits="userSpaceOnUse">
<stop offset="0.09" stop-color="#25054D"/>
<stop offset="0.47" stop-color="#330A68"/>
<stop offset="0.89" stop-color="#45108A"/>
</linearGradient>
<linearGradient id="paint78_linear" x1="1222.81" y1="4426.28" x2="942.513" y2="3722.55" gradientUnits="userSpaceOnUse">
<stop offset="0.04" stop-color="#138BBD"/>
<stop offset="0.23" stop-color="#169AC7"/>
<stop offset="0.59" stop-color="#1FC3DF"/>
<stop offset="1" stop-color="#2AF6FF"/>
</linearGradient>
<linearGradient id="paint79_linear" x1="189707" y1="1071.89" x2="189715" y2="1017.2" gradientUnits="userSpaceOnUse">
<stop offset="0.09" stop-color="#25054D"/>
<stop offset="0.47" stop-color="#330A68"/>
<stop offset="0.89" stop-color="#45108A"/>
</linearGradient>
<linearGradient id="paint80_linear" x1="-182243" y1="4489.65" x2="-182257" y2="3783.58" gradientUnits="userSpaceOnUse">
<stop offset="0.04" stop-color="#138BBD"/>
<stop offset="0.23" stop-color="#169AC7"/>
<stop offset="0.59" stop-color="#1FC3DF"/>
<stop offset="1" stop-color="#2AF6FF"/>
</linearGradient>
<linearGradient id="paint81_linear" x1="3320.9" y1="5751.2" x2="4235.93" y2="4218.53" gradientUnits="userSpaceOnUse">
<stop offset="0.04" stop-color="#6B24D6"/>
<stop offset="0.29" stop-color="#7733DC"/>
<stop offset="0.79" stop-color="#975CED"/>
<stop offset="1" stop-color="#A56EF4"/>
</linearGradient>
<linearGradient id="paint82_linear" x1="2064.64" y1="1894.28" x2="2838.78" y2="1548.64" gradientUnits="userSpaceOnUse">
<stop offset="0.04" stop-color="#6B24D6"/>
<stop offset="0.29" stop-color="#7733DC"/>
<stop offset="0.79" stop-color="#975CED"/>
<stop offset="1" stop-color="#A56EF4"/>
</linearGradient>
<linearGradient id="paint83_linear" x1="1194.9" y1="1929.47" x2="2211.43" y2="1592.09" gradientUnits="userSpaceOnUse">
<stop offset="0.04" stop-color="#6B24D6"/>
<stop offset="0.29" stop-color="#7733DC"/>
<stop offset="0.79" stop-color="#975CED"/>
<stop offset="1" stop-color="#A56EF4"/>
</linearGradient>
<linearGradient id="paint84_linear" x1="2064.64" y1="1877.3" x2="2838.78" y2="1531.66" gradientUnits="userSpaceOnUse">
<stop offset="0.04" stop-color="#9F19AB"/>
<stop offset="0.24" stop-color="#AE25B1"/>
<stop offset="0.65" stop-color="#D744BF"/>
<stop offset="1" stop-color="#FF63CE"/>
</linearGradient>
<linearGradient id="paint85_linear" x1="1194.9" y1="1910.32" x2="2211.14" y2="1572.55" gradientUnits="userSpaceOnUse">
<stop offset="0.04" stop-color="#9F19AB"/>
<stop offset="0.24" stop-color="#AE25B1"/>
<stop offset="0.65" stop-color="#D744BF"/>
<stop offset="1" stop-color="#FF63CE"/>
</linearGradient>
<linearGradient id="paint86_linear" x1="4646.96" y1="1982.62" x2="4294.79" y2="3135.84" gradientUnits="userSpaceOnUse">
<stop offset="0.04" stop-color="#9F19AB"/>
<stop offset="0.24" stop-color="#AE25B1"/>
<stop offset="0.65" stop-color="#D744BF"/>
<stop offset="1" stop-color="#FF63CE"/>
</linearGradient>
<radialGradient id="paint87_radial" cx="0" cy="0" r="1" gradientUnits="userSpaceOnUse" gradientTransform="translate(14444.6 -15957.5) scale(47.965 15.5049)">
<stop offset="0.03" stop-color="#FEDFCB"/>
<stop offset="0.78" stop-color="#F9B69E"/>
<stop offset="0.99" stop-color="#F2A78C"/>
</radialGradient>
<radialGradient id="paint88_radial" cx="0" cy="0" r="1" gradientUnits="userSpaceOnUse" gradientTransform="translate(-18228 -35196.8) scale(102.876 54.6314)">
<stop offset="0.03" stop-color="#FEDFCB"/>
<stop offset="1" stop-color="#F9B69E"/>
</radialGradient>
<linearGradient id="paint89_linear" x1="-299758" y1="13354.6" x2="-300465" y2="13389.9" gradientUnits="userSpaceOnUse">
<stop offset="0.04" stop-color="#6B24D6"/>
<stop offset="0.29" stop-color="#7733DC"/>
<stop offset="0.79" stop-color="#975CED"/>
<stop offset="1" stop-color="#A56EF4"/>
</linearGradient>
<linearGradient id="paint90_linear" x1="3044.1" y1="2361.42" x2="2979.23" y2="2204.71" gradientUnits="userSpaceOnUse">
<stop offset="0.04" stop-color="#138BBD"/>
<stop offset="0.23" stop-color="#169AC7"/>
<stop offset="0.59" stop-color="#1FC3DF"/>
<stop offset="1" stop-color="#2AF6FF"/>
</linearGradient>
<linearGradient id="paint91_linear" x1="3240.24" y1="2461.74" x2="3242.3" y2="2086.85" gradientUnits="userSpaceOnUse">
<stop offset="0.04" stop-color="#138BBD"/>
<stop offset="0.23" stop-color="#169AC7"/>
<stop offset="0.59" stop-color="#1FC3DF"/>
<stop offset="1" stop-color="#2AF6FF"/>
</linearGradient>
<radialGradient id="paint92_radial" cx="0" cy="0" r="1" gradientUnits="userSpaceOnUse" gradientTransform="translate(-109569 248.494) rotate(-171.384) scale(145.707 198.918)">
<stop offset="0.03" stop-color="#FEDFCB"/>
<stop offset="1" stop-color="#F9B69E"/>
</radialGradient>
<linearGradient id="paint93_linear" x1="132099" y1="14711.9" x2="131990" y2="14526.6" gradientUnits="userSpaceOnUse">
<stop offset="0.04" stop-color="#602213"/>
<stop offset="0.57" stop-color="#6D310E"/>
<stop offset="1" stop-color="#7A4108"/>
</linearGradient>
<linearGradient id="paint94_linear" x1="-1773.07" y1="36827.6" x2="-1123.94" y2="36332.2" gradientUnits="userSpaceOnUse">
<stop offset="0.04" stop-color="#6B24D6"/>
<stop offset="0.29" stop-color="#7733DC"/>
<stop offset="0.79" stop-color="#975CED"/>
<stop offset="1" stop-color="#A56EF4"/>
</linearGradient>
<linearGradient id="paint95_linear" x1="1228.85" y1="965.82" x2="1125.94" y2="860.681" gradientUnits="userSpaceOnUse">
<stop offset="0.04" stop-color="#9D9EB3"/>
<stop offset="0.58" stop-color="#D4D1D8"/>
<stop offset="1" stop-color="#EEEBF2"/>
</linearGradient>
<radialGradient id="paint96_radial" cx="0" cy="0" r="1" gradientUnits="userSpaceOnUse" gradientTransform="translate(-27520.7 -13285.1) rotate(-157.13) scale(37.8389 36.5686)">
<stop offset="0.03" stop-color="#FEDFCB"/>
<stop offset="0.78" stop-color="#F9B69E"/>
<stop offset="0.99" stop-color="#F2A78C"/>
</radialGradient>
<radialGradient id="paint97_radial" cx="0" cy="0" r="1" gradientUnits="userSpaceOnUse" gradientTransform="translate(-52176.3 -57280.2) rotate(-123.77) scale(101.655 70.2819)">
<stop offset="0.03" stop-color="#FEDFCB"/>
<stop offset="1" stop-color="#F9B69E"/>
</radialGradient>
<linearGradient id="paint98_linear" x1="3786.4" y1="-10938" x2="3825.06" y2="-11218.9" gradientUnits="userSpaceOnUse">
<stop offset="0.04" stop-color="#6B24D6"/>
<stop offset="0.29" stop-color="#7733DC"/>
<stop offset="0.79" stop-color="#975CED"/>
<stop offset="1" stop-color="#A56EF4"/>
</linearGradient>
<linearGradient id="paint99_linear" x1="488.402" y1="3280.99" x2="545.654" y2="3277.99" gradientUnits="userSpaceOnUse">
<stop offset="0.04" stop-color="#9F19AB"/>
<stop offset="0.24" stop-color="#AE25B1"/>
<stop offset="0.65" stop-color="#D744BF"/>
<stop offset="1" stop-color="#FF63CE"/>
</linearGradient>
<linearGradient id="paint100_linear" x1="1269.97" y1="4507.88" x2="2738.51" y2="4308.76" gradientUnits="userSpaceOnUse">
<stop offset="0.04" stop-color="#9F19AB"/>
<stop offset="0.24" stop-color="#AE25B1"/>
<stop offset="0.65" stop-color="#D744BF"/>
<stop offset="1" stop-color="#FF63CE"/>
</linearGradient>
<linearGradient id="paint101_linear" x1="1836.43" y1="1268.26" x2="1813.85" y2="1342.02" gradientUnits="userSpaceOnUse">
<stop offset="0.04" stop-color="#9F19AB"/>
<stop offset="0.24" stop-color="#AE25B1"/>
<stop offset="0.65" stop-color="#D744BF"/>
<stop offset="1" stop-color="#FF63CE"/>
</linearGradient>
</defs>
</svg>
