<svg width="278" height="290" viewBox="0 0 278 290" fill="none" xmlns="http://www.w3.org/2000/svg">
<path d="M96.3959 203.443V290L1.0957 235.185V148.664L96.3959 203.443Z" fill="url(#paint0_linear)"/>
<path d="M96.3594 203.442V290L190.317 235.221V148.736L96.3594 203.442Z" fill="url(#paint1_linear)"/>
<path d="M190.318 148.737L96.3597 203.443L1.0957 148.664L95.1625 93.8854L190.318 148.737Z" fill="url(#paint2_linear)"/>
<path d="M101.91 209.392V278.573L183.969 230.687V161.579L101.91 209.392Z" fill="url(#paint3_linear)"/>
<path d="M181.248 229.127V166.331L104.631 210.952V273.784L181.248 229.127Z" fill="url(#paint4_linear)"/>
<path style="mix-blend-mode:color-dodge" d="M181.248 166.331V167.855L105.792 211.786V273.095L104.631 273.784V210.952L181.248 166.331Z" fill="url(#paint5_radial)"/>
<path d="M175.914 193.503V177.142L110.107 214.906V231.34L175.914 193.503Z" fill="url(#paint6_linear)"/>
<path d="M120.085 220.457L115.623 223.032V217.917L120.085 215.305V220.457Z" fill="#FFE4A7"/>
<path d="M128.464 215.595L124.002 218.171V213.056L128.464 210.48V215.595Z" fill="#2AF6FF"/>
<path d="M136.845 210.771L132.383 213.346V208.231L136.845 205.656V210.771Z" fill="#2AF6FF"/>
<path d="M145.263 205.91L140.801 208.485V203.37L145.263 200.794V205.91Z" fill="#4B61B8"/>
<path d="M153.642 201.085L149.18 203.66V198.545L153.642 195.933V201.085Z" fill="#4B61B8"/>
<path d="M162.021 196.223L157.559 198.799V193.684L162.021 191.108V196.223Z" fill="#4B61B8"/>
<path d="M170.402 191.399L165.939 193.974V188.823L170.402 186.247V191.399Z" fill="#4B61B8"/>
<path d="M96.2136 169.669V200.649L5.99219 148.737V117.792L96.2136 169.669Z" fill="url(#paint7_linear)"/>
<path d="M96.1777 169.668V200.649L185.166 148.773V117.865L96.1777 169.668Z" fill="url(#paint8_linear)"/>
<path d="M96.2503 109.557V196.078L0.986328 141.3V54.7786L96.2503 109.557Z" fill="url(#paint9_linear)"/>
<path d="M96.2148 109.557V196.078L190.173 141.3V54.8511L96.2148 109.557Z" fill="url(#paint10_linear)"/>
<path d="M190.172 54.8511L96.214 109.557L0.986328 54.7786L95.0168 0L190.172 54.8511Z" fill="url(#paint11_linear)"/>
<path d="M106.369 114.563V178.629L179.323 137.418V73.3888L106.369 114.563Z" fill="url(#paint12_linear)"/>
<path d="M105.027 180.987V113.802L180.665 71.0308V138.18L105.027 180.987ZM107.748 115.362V176.307L177.944 136.62V75.7105L107.748 115.362Z" fill="#25054D"/>
<path d="M208.997 111.407V150.55L127.555 104.261L162.308 84.671L208.997 111.407Z" fill="url(#paint13_linear)"/>
<path d="M212.988 109.086L208.961 111.407L162.309 84.671L166.444 82.2767L212.988 109.086Z" fill="url(#paint14_linear)"/>
<path style="mix-blend-mode:multiply" d="M143.044 93.6315L149.719 97.622L159.296 91.6362V145.834L119.282 177.396L109.451 171.337V113.004L143.044 93.6315Z" fill="url(#paint15_linear)"/>
<path d="M148.958 96.9689V101.576L180.121 83.4375C180.374 83.2997 180.658 83.2297 180.946 83.2345C181.234 83.2392 181.516 83.3185 181.765 83.4647C182.013 83.6108 182.22 83.8187 182.364 84.0683C182.508 84.3178 182.585 84.6004 182.587 84.8886V142.533L122.948 177.178C122.269 177.587 121.491 177.804 120.698 177.804C119.906 177.804 119.128 177.587 118.449 177.178L117.18 176.38C116.597 176.023 116.118 175.521 115.787 174.923C115.457 174.326 115.286 173.653 115.293 172.97V116.087C115.286 115.293 115.49 114.511 115.885 113.822C116.281 113.134 116.853 112.563 117.542 112.169L146.383 95.5178C146.635 95.3377 146.934 95.2333 147.244 95.2168C147.553 95.2003 147.861 95.2725 148.132 95.4247C148.402 95.577 148.623 95.8031 148.77 96.0766C148.916 96.35 148.982 96.6596 148.958 96.9689Z" fill="url(#paint16_linear)"/>
<g style="mix-blend-mode:color-dodge">
<path style="mix-blend-mode:color-dodge" d="M180.917 84.1268L149.646 102.265V101.213L180.119 83.4376C180.481 83.238 180.903 83.1795 181.305 83.2733C181.707 83.3671 182.06 83.6066 182.296 83.9454C182.067 83.8748 181.825 83.8544 181.587 83.8857C181.349 83.917 181.121 83.9993 180.917 84.1268Z" fill="url(#paint17_radial)"/>
<path style="mix-blend-mode:color-dodge" d="M117.651 112.169L146.492 95.5178C146.851 95.3097 147.276 95.2464 147.681 95.3408C148.085 95.4352 148.438 95.6801 148.668 96.0257C148.434 95.9018 148.172 95.837 147.907 95.837C147.641 95.837 147.38 95.9018 147.145 96.0257L118.449 112.749C117.763 113.137 117.192 113.702 116.797 114.384C116.401 115.067 116.195 115.842 116.2 116.631V173.514C116.196 174.538 116.585 175.526 117.289 176.271C116.739 175.905 116.29 175.408 115.979 174.826C115.669 174.244 115.508 173.593 115.511 172.933V116.087C115.492 115.303 115.68 114.529 116.056 113.841C116.432 113.153 116.982 112.577 117.651 112.169Z" fill="url(#paint18_radial)"/>
</g>
<path d="M185.78 137.382L118.449 176.271V125.193L185.78 86.3035V137.382Z" fill="white"/>
<g style="mix-blend-mode:multiply">
<path d="M185.776 139.087L119.643 177.287V129.51L185.776 91.3097V139.087Z" fill="#E6CFC8"/>
</g>
<path d="M185.271 141.191L122.947 177.142C122.306 177.508 121.581 177.7 120.843 177.7C120.105 177.7 119.38 177.508 118.739 177.142L118.34 176.924H118.739C118.974 177.012 119.227 177.041 119.476 177.01C119.724 176.979 119.962 176.889 120.169 176.746C120.375 176.604 120.544 176.414 120.662 176.192C120.779 175.97 120.841 175.724 120.843 175.473V132.92C120.85 132.124 121.065 131.344 121.465 130.657C121.866 129.97 122.439 129.4 123.128 129.002L185.707 92.7246C185.96 92.5868 186.244 92.5168 186.532 92.5216C186.82 92.5263 187.102 92.6056 187.351 92.7518C187.599 92.8979 187.806 93.1058 187.95 93.3554C188.094 93.6049 188.171 93.8875 188.173 94.1757V136.112C188.172 137.138 187.903 138.145 187.394 139.036C186.886 139.926 186.154 140.669 185.271 141.191Z" fill="url(#paint19_linear)"/>
<path style="mix-blend-mode:color-dodge" d="M118.739 177.142C118.974 177.229 119.227 177.259 119.476 177.228C119.724 177.197 119.962 177.106 120.169 176.964C120.375 176.821 120.544 176.631 120.662 176.41C120.779 176.188 120.841 175.941 120.843 175.691V132.92C120.85 132.124 121.065 131.344 121.465 130.657C121.866 129.97 122.439 129.399 123.128 129.002L185.707 92.7245C186.042 92.5457 186.428 92.4842 186.803 92.5499C187.178 92.6157 187.52 92.8048 187.774 93.0873C187.541 92.9799 187.287 92.9243 187.031 92.9243C186.774 92.9243 186.52 92.9799 186.287 93.0873L123.709 129.365C123.027 129.767 122.461 130.339 122.066 131.026C121.672 131.713 121.463 132.491 121.46 133.282V176.126C121.463 176.504 121.329 176.872 121.082 177.159C120.835 177.446 120.492 177.633 120.117 177.686C119.637 177.6 119.172 177.441 118.739 177.214L118.34 176.996L118.739 177.142Z" fill="url(#paint20_radial)"/>
<path style="mix-blend-mode:multiply" d="M155.455 100.742L162.166 104.732L171.743 98.7465V152.908L131.73 184.506L121.898 178.447V120.114L155.455 100.742Z" fill="url(#paint21_linear)"/>
<path d="M161.403 104.043V108.832L192.638 90.6929C192.892 90.5462 193.18 90.4691 193.474 90.4694C193.767 90.4696 194.055 90.5472 194.309 90.6944C194.563 90.8416 194.774 91.0531 194.92 91.3076C195.066 91.5621 195.142 91.8506 195.141 92.144V149.607L135.501 184.288C134.818 184.705 134.034 184.925 133.234 184.925C132.434 184.925 131.65 184.705 130.967 184.288L129.697 183.526C129.122 183.162 128.648 182.658 128.318 182.062C127.989 181.466 127.814 180.797 127.811 180.116V123.342C127.813 122.555 128.022 121.782 128.417 121.101C128.811 120.42 129.378 119.854 130.06 119.461L159.081 102.81C159.313 102.706 159.565 102.658 159.818 102.666C160.071 102.675 160.319 102.742 160.543 102.86C160.767 102.979 160.961 103.148 161.11 103.352C161.259 103.557 161.359 103.793 161.403 104.043Z" fill="url(#paint22_linear)"/>
<g style="mix-blend-mode:color-dodge">
<path style="mix-blend-mode:color-dodge" d="M193.328 91.2372L162.057 109.376V108.433L192.638 90.693C193.007 90.499 193.433 90.4435 193.839 90.5367C194.245 90.6299 194.604 90.8655 194.851 91.2009C194.613 91.0825 194.35 91.024 194.085 91.0303C193.819 91.0366 193.559 91.1076 193.328 91.2372Z" fill="url(#paint23_radial)"/>
<path style="mix-blend-mode:color-dodge" d="M130.061 119.279L159.083 102.628C159.447 102.418 159.878 102.354 160.289 102.448C160.699 102.542 161.059 102.788 161.295 103.136C161.061 103.012 160.799 102.947 160.534 102.947C160.268 102.947 160.007 103.012 159.772 103.136L130.75 119.751C130.07 120.156 129.506 120.729 129.112 121.415C128.718 122.102 128.508 122.878 128.501 123.669V180.624C128.502 181.637 128.891 182.611 129.589 183.345C129.045 182.982 128.599 182.492 128.289 181.916C127.979 181.341 127.815 180.698 127.812 180.044V123.342C127.782 122.525 127.975 121.714 128.371 120.998C128.768 120.282 129.352 119.688 130.061 119.279Z" fill="url(#paint24_radial)"/>
</g>
<path d="M198.227 137.527L130.896 176.38V125.301L198.227 86.4122V137.527Z" fill="white"/>
<g style="mix-blend-mode:multiply">
<path d="M198.223 146.197L132.09 184.397V136.62L198.223 98.4199V146.197Z" fill="#E6CFC8"/>
</g>
<path d="M197.683 148.265L135.395 184.252C134.745 184.607 134.015 184.794 133.273 184.794C132.532 184.794 131.802 184.607 131.151 184.252L130.752 184.034H131.187C131.422 184.122 131.675 184.151 131.924 184.12C132.173 184.089 132.411 183.999 132.617 183.856C132.824 183.714 132.993 183.524 133.11 183.302C133.227 183.081 133.29 182.834 133.291 182.583V140.03C133.291 139.237 133.499 138.458 133.893 137.771C134.288 137.083 134.856 136.511 135.541 136.112L198.119 99.8348C198.373 99.6881 198.661 99.6109 198.955 99.6112C199.248 99.6115 199.536 99.6891 199.79 99.8363C200.044 99.9834 200.254 100.195 200.401 100.449C200.547 100.704 200.623 100.992 200.622 101.286V143.222C200.621 144.247 200.349 145.254 199.832 146.14C199.316 147.025 198.575 147.759 197.683 148.265Z" fill="url(#paint25_linear)"/>
<path style="mix-blend-mode:color-dodge" d="M131.187 184.252C131.422 184.339 131.675 184.369 131.924 184.338C132.173 184.307 132.411 184.216 132.617 184.074C132.824 183.932 132.993 183.742 133.11 183.52C133.227 183.298 133.29 183.052 133.291 182.801V140.03C133.291 139.237 133.499 138.458 133.893 137.771C134.288 137.083 134.856 136.511 135.541 136.112L198.119 99.8347C198.453 99.6493 198.84 99.5842 199.217 99.6502C199.593 99.7163 199.935 99.9094 200.187 100.198C199.962 100.083 199.713 100.023 199.461 100.023C199.209 100.023 198.96 100.083 198.735 100.198L136.157 136.475C135.463 136.867 134.886 137.436 134.485 138.125C134.083 138.813 133.872 139.596 133.872 140.393V183.236C133.874 183.611 133.739 183.973 133.491 184.254C133.244 184.535 132.901 184.715 132.53 184.76C132.05 184.687 131.585 184.54 131.151 184.324L130.752 184.107L131.187 184.252Z" fill="url(#paint26_radial)"/>
<path d="M154.181 162.667V201.81L107.492 175.074V135.894L154.181 162.667Z" fill="url(#paint27_linear)"/>
<path d="M158.171 160.345L154.145 162.667L107.492 135.894V131.069L158.171 160.345Z" fill="url(#paint28_linear)"/>
<path d="M152.368 147.721V213.963L147.869 211.387V145.145L152.368 147.721Z" fill="url(#paint29_linear)"/>
<path d="M152.332 147.721V213.963L234.173 166.258V100.052L152.332 147.721Z" fill="url(#paint30_linear)"/>
<path d="M231.523 164.735V104.66L154.979 149.244V209.356L231.523 164.735Z" fill="url(#paint31_linear)"/>
<path d="M234.173 100.053L152.331 147.721L147.869 145.145L229.819 97.4406L234.173 100.053Z" fill="url(#paint32_linear)"/>
<path style="mix-blend-mode:color-dodge" d="M233.52 99.7261V100.996L152.731 148.047V213.02L151.643 213.637V147.394L233.52 99.7261Z" fill="url(#paint33_radial)"/>
<path d="M226.121 131.577V115.216L160.314 152.981V169.414L226.121 131.577Z" fill="url(#paint34_linear)"/>
<path d="M170.689 158.06L166.227 160.636V155.521L170.689 152.945V158.06Z" fill="#FFE4A7"/>
<path d="M179.068 153.235L174.605 155.811V150.659L179.068 148.084V153.235Z" fill="#2AF6FF"/>
<path d="M187.448 148.374L182.986 150.95V145.834L187.448 143.259V148.374Z" fill="#2AF6FF"/>
<path d="M195.864 143.549L191.365 146.125V140.973L195.864 138.398V143.549Z" fill="#4B61B8"/>
<path d="M204.245 138.688L199.783 141.264V136.148L204.245 133.573V138.688Z" fill="#4B61B8"/>
<path d="M212.624 133.863L208.162 136.439V131.287L212.624 128.712V133.863Z" fill="#4B61B8"/>
<path d="M221.005 129.002L216.543 131.577V126.462L221.005 123.887V129.002Z" fill="#4B61B8"/>
<path d="M275.35 158.495C275.133 162.449 275.568 176.634 272.085 185.558C268.603 194.482 272.557 200.25 273.355 205.147C274.309 213.505 274.089 221.955 272.702 230.251C271.505 240.445 271.614 245.27 272.702 247.447C273.79 249.623 273.101 252.707 266.571 254.485C260.041 256.262 252.387 256.335 253.112 250.313C253.366 248.354 258.989 252.888 260.839 249.914C262.69 246.939 264.903 242.223 263.814 231.448C262.726 220.674 261.456 214.035 260.839 208.086C260.223 202.136 259.062 194.845 257.901 186.936C256.74 179.028 255.398 155.484 255.398 155.484L275.35 158.495Z" fill="url(#paint35_radial)"/>
<path d="M268.203 245.851C268.203 242.622 267.369 234.351 267.369 228.837C267.369 223.323 263.487 204.35 265.264 200.468C267.84 194.845 264.285 187.19 264.285 184.252C264.285 181.314 264.466 161.216 264.466 156.826L275.349 158.495C275.132 162.449 275.567 176.634 272.085 185.558C268.602 194.482 272.556 200.25 273.354 205.148C274.308 213.505 274.088 221.955 272.701 230.251C271.504 240.445 271.613 245.27 272.701 247.447C273.79 249.624 273.1 252.707 266.57 254.485C264.951 254.918 263.302 255.233 261.637 255.428L263.088 254.63C263.088 254.63 268.203 249.116 268.203 245.851Z" fill="url(#paint36_radial)"/>
<path d="M273.428 247.302C273.428 247.302 275.858 250.022 275.532 252.199C275.205 254.376 273.5 257.133 273.428 259.201C273.355 261.268 273.428 262.828 273.428 262.828C272.939 262.938 272.441 262.999 271.94 263.01L271.324 262.538V255.283C269.276 255.035 267.202 255.415 265.374 256.371C262.199 258.185 258.467 258.767 254.89 258.003C252.387 256.915 250.646 249.442 250.9 248.317C251.154 247.193 257.176 250.349 258.155 250.784C258.589 250.977 259.038 251.134 259.497 251.256C259.497 251.256 256.377 250.385 255.652 251.51C255.472 251.932 255.396 252.391 255.428 252.849C255.461 253.307 255.601 253.751 255.838 254.144C256.076 254.537 256.403 254.868 256.793 255.11C257.183 255.352 257.625 255.499 258.082 255.537C260.549 255.972 263.597 252.489 266.209 251.582C268.821 250.675 272.775 249.007 273.428 247.302Z" fill="#10054D"/>
<path d="M218.686 115.797L224.708 148.156L243.826 137.237L237.767 104.769L218.686 115.797Z" fill="url(#paint37_linear)"/>
<path d="M219.883 116.813L225.941 149.172L243.826 137.237L237.767 104.769L219.883 116.813Z" fill="url(#paint38_linear)"/>
<path d="M222.094 116.014L228.116 148.374L243.824 137.237L237.765 104.769L222.094 116.014Z" fill="url(#paint39_linear)"/>
<path d="M262.655 171.954C261.24 175.799 259.39 183.345 257.721 188.678C256.052 194.01 254.093 199.561 254.964 203.551C257.132 209.742 258.355 216.223 258.592 222.778C258.592 231.557 257.576 250.168 258.882 252.925C260.188 255.682 261.349 258.294 260.66 260.18C259.97 262.066 253.912 263.3 249.087 266.492C244.262 269.685 237.696 262.865 240.199 261.45C242.702 260.035 243.065 261.74 244.915 260.543C246.575 259.581 247.981 258.236 249.015 256.62C250.05 255.005 250.684 253.166 250.865 251.256C250.865 246.83 245.713 217.627 244.335 211.351C242.974 205.387 242.112 199.32 241.759 193.212C241.124 185.111 241.124 176.972 241.759 168.87C242.485 161.687 266.609 161.18 262.655 171.954Z" fill="url(#paint40_radial)"/>
<path d="M248.468 266.637L253.112 260.797C252.611 259.166 252.463 257.447 252.676 255.754C253.832 253.104 254.378 250.228 254.272 247.338C253.043 235.953 251.202 224.642 248.758 213.455C247.815 209.537 250.064 205.837 249.738 202.572C249.411 199.307 246.328 190.564 247.162 184.433C247.634 180.806 249.23 170.866 250.427 163.574C249.623 163.666 248.824 163.799 248.033 163.973C255.288 162.377 265.373 164.517 262.544 171.809C261.129 175.654 259.279 183.2 257.61 188.533C255.941 193.865 253.982 199.416 254.853 203.406C257.021 209.597 258.244 216.078 258.481 222.633C258.481 231.412 257.465 250.023 258.771 252.78C260.077 255.537 261.238 258.149 260.548 260.035C259.859 261.921 253.801 263.155 248.976 266.347C248.357 266.77 247.655 267.056 246.917 267.188C246.179 267.319 245.422 267.292 244.695 267.109C245.969 267.411 247.308 267.243 248.468 266.637Z" fill="url(#paint41_radial)"/>
<path d="M268.601 139.667L243.207 140.719C243.207 140.719 241.61 158.858 241.03 165.751C240.449 172.643 240.377 194.482 240.377 194.482C244.487 196.563 249.105 197.431 253.691 196.985C259.822 195.788 273.897 192.559 273.897 192.559C273.897 192.559 274.405 185.812 274.768 179.608C275.131 173.405 276.436 159.475 274.369 153.416C272.678 148.739 270.753 144.151 268.601 139.667Z" fill="url(#paint42_linear)"/>
<path d="M268.601 139.667L243.207 140.719C243.207 140.719 241.61 158.858 241.03 165.751C240.449 172.643 240.377 194.482 240.377 194.482C244.487 196.563 249.105 197.431 253.691 196.985C259.822 195.788 273.897 192.559 273.897 192.559C273.897 192.559 274.405 185.812 274.768 179.608C275.131 173.405 276.436 159.475 274.369 153.416C272.678 148.739 270.753 144.151 268.601 139.667Z" fill="url(#paint43_linear)"/>
<path d="M259.933 254.92C260.694 255.627 261.284 256.497 261.661 257.464C262.038 258.432 262.191 259.472 262.11 260.507C261.493 263.481 259.788 263.663 259.788 265.803V271.354L258.519 271.861L257.104 271.317V262.865C254.72 263.581 252.475 264.698 250.465 266.166C249.147 267.234 247.569 267.932 245.892 268.187C244.215 268.442 242.5 268.245 240.924 267.617C238.602 266.456 234.286 260.362 235.41 259.273C236.535 258.185 244.842 260.507 244.842 260.507C244.842 260.507 241.686 260.833 241.214 262.429C240.743 264.026 243.464 266.057 245.604 265.078C248.38 262.985 251.301 261.094 254.347 259.418C258.482 257.568 259.571 255.573 259.933 254.92Z" fill="#10054D"/>
<path d="M231.962 133.645L226.557 131.36C226.557 131.36 224.562 128.349 223.183 127.732C221.805 127.115 220.934 127.188 220.825 126.753C220.716 126.317 220.607 125.628 220.607 125.628C220.353 125.576 220.09 125.578 219.836 125.637C219.582 125.695 219.344 125.807 219.138 125.965C218.931 126.123 218.761 126.324 218.639 126.554C218.517 126.784 218.446 127.037 218.431 127.297C218.213 129.256 218.939 129.292 218.939 129.292C218.776 129.35 218.632 129.452 218.524 129.587C218.415 129.721 218.345 129.883 218.322 130.054C218.282 130.321 218.304 130.594 218.386 130.852C218.468 131.11 218.607 131.345 218.794 131.541L219.12 131.868C219.028 132.041 218.98 132.234 218.98 132.43C218.98 132.626 219.028 132.819 219.12 132.992C219.263 133.5 219.585 133.938 220.027 134.226C220.027 134.226 220.027 135.568 220.644 135.894C221.26 136.221 221.986 136.293 223.038 136.656L230.04 138.978L231.962 133.645Z" fill="url(#paint44_radial)"/>
<path d="M226.484 131.831C226.475 130.338 226.18 128.86 225.613 127.478C224.779 125.954 223.799 124.358 223.473 123.85C223.146 123.343 222.348 122.544 221.695 123.089C221.042 123.633 221.332 123.705 221.695 125.193C222.058 126.68 221.695 127.587 222.239 128.82C222.783 130.054 226.484 131.831 226.484 131.831Z" fill="url(#paint45_radial)"/>
<g style="mix-blend-mode:multiply">
<path d="M241.104 165.751C241.648 159.547 242.991 143.984 243.244 141.155L248.577 142.098C248.577 142.098 249.049 161.724 249.23 170.648C249.23 177.65 248.468 191.435 248.106 196.949C245.453 196.481 242.878 195.651 240.451 194.482C240.451 194.482 240.487 172.571 241.104 165.751Z" fill="#D1D3D4"/>
</g>
<path d="M273.282 97.3317C275.277 101.721 278.179 117.066 276.91 121.637C276.148 124.612 269.11 141.916 269.11 141.916L263.27 133.681L273.282 97.3317Z" fill="url(#paint46_linear)"/>
<path d="M252.676 101.576C250.101 103.753 241.793 109.884 240.378 114.455C239.436 117.834 239.693 121.436 241.104 124.648C242.706 129.031 243.313 133.715 242.881 138.361C242.192 145.617 240.523 165.714 240.233 168.072C239.943 170.43 242.482 171.41 244.84 171.7C252.414 172.483 260.067 171.843 267.405 169.814C274.66 167.057 276.365 165.968 276.365 164.263C276.339 158.543 275.102 152.893 272.738 147.684C269.824 142.08 268.282 135.863 268.239 129.546C268.529 125.7 274.769 109.376 274.479 103.245C274.189 97.114 271.504 91.6725 267.223 93.051C262.133 95.4598 257.265 98.3126 252.676 101.576Z" fill="url(#paint47_linear)"/>
<path d="M255.579 171.954C251.937 168.826 249.659 164.401 249.23 159.62C248.904 151.82 250.355 144.528 252.132 144.274C253.91 144.021 255.397 141.046 255.397 138.76C255.397 128.204 258.553 109.739 255.941 106.909C253.789 105.521 251.238 104.883 248.686 105.095C250.427 103.608 252.023 102.374 252.93 101.467C257.516 98.2808 262.371 95.501 267.441 93.1599C271.794 91.7813 274.479 97.2229 274.697 103.354C274.914 109.485 268.747 125.809 268.457 129.655C268.5 135.972 270.041 142.188 272.955 147.793C275.32 153.002 276.556 158.652 276.583 164.372C276.583 166.077 274.842 167.165 267.623 169.922C261.37 171.728 254.855 172.452 248.359 172.063C250.246 172.099 252.676 172.099 255.579 171.954Z" fill="url(#paint48_linear)"/>
<path d="M262.253 66.3511C260.805 65.9317 259.288 65.8041 257.79 65.9755C256.292 66.1468 254.843 66.6139 253.527 67.3496C252.211 68.0852 251.054 69.0748 250.123 70.261C249.193 71.4471 248.507 72.8062 248.105 74.2595C247.052 79.3895 247.364 84.7062 249.012 89.6773C250.246 91.6 253.873 91.2735 254.853 92.8697C255.411 93.7908 255.776 94.8156 255.925 95.882C256.075 96.9484 256.006 98.0341 255.723 99.0731C255.112 99.9353 254.42 100.737 253.656 101.467L262.761 100.379L267.913 97.1142C267.913 97.1142 265.518 92.7609 266.607 90.8745C267.695 88.9881 273.862 83.4377 271.867 74.9488C271.298 72.7235 270.081 70.7176 268.369 69.1866C266.657 67.6555 264.528 66.6685 262.253 66.3511Z" fill="url(#paint49_radial)"/>
<path d="M267.405 94.3208C265.965 95.6029 264.167 96.4132 262.253 96.6425C258.625 97.2593 256.92 96.6425 255.723 97.5857C254.638 98.5666 253.676 99.675 252.857 100.887C254.249 99.8402 255.885 99.1659 257.61 98.928C260.606 98.9797 263.588 98.5133 266.425 97.5495C268.058 96.3886 267.767 95.6631 267.767 95.3728C267.693 95.0078 267.571 94.654 267.405 94.3208Z" fill="url(#paint50_linear)"/>
<g style="mix-blend-mode:multiply">
<path d="M266.899 93.6315C266.899 93.6315 269.947 96.316 269.584 98.7828C269.221 101.25 266.718 103.535 262.328 103.172C259.343 102.5 256.245 102.5 253.259 103.172C251.3 104.043 247.527 105.893 247.527 105.893C247.527 105.893 251.409 99.5809 254.783 99.0368C258.003 98.9557 261.209 98.5793 264.36 97.9122C266.319 96.9327 267.552 96.6062 267.806 95.3728C267.834 95.0267 267.763 94.6798 267.603 94.3719C267.442 94.064 267.199 93.8074 266.899 93.6315Z" fill="#D1D3D4"/>
</g>
<path d="M266.899 93.6315C266.899 93.6315 269.693 95.1914 269.33 97.6582C268.967 100.125 266.464 102.411 262.074 102.048C259.007 101.478 255.847 101.652 252.86 102.556C250.99 103.554 249.206 104.707 247.527 106.002C247.527 106.002 251.409 99.6898 254.783 99.1456C258.003 99.0646 261.209 98.6881 264.36 98.021C266.319 97.0415 267.552 96.715 267.806 95.4816C267.856 95.118 267.796 94.748 267.634 94.4186C267.473 94.0892 267.217 93.8152 266.899 93.6315Z" fill="url(#paint51_linear)"/>
<path style="mix-blend-mode:color-dodge" d="M252.679 102.048C255.624 101.185 258.73 101.024 261.748 101.576C266.138 101.903 268.641 99.6173 269.003 97.1504C269.1 96.4477 268.959 95.7329 268.604 95.1189C268.89 95.4716 269.101 95.8783 269.226 96.3147C269.351 96.751 269.386 97.208 269.33 97.6583C268.967 100.089 266.464 102.411 262.074 102.048C259.007 101.478 255.847 101.652 252.86 102.556C250.99 103.554 249.206 104.707 247.527 106.002C247.527 106.002 247.89 105.385 248.507 104.551C249.823 103.598 251.219 102.761 252.679 102.048Z" fill="url(#paint52_radial)"/>
<path d="M253.002 75.7468C251.62 74.6442 249.868 74.112 248.105 74.2594C244.477 74.731 247.815 67.004 256.013 64.8999C262.289 63.1949 271.177 65.5892 272.665 72.7358C274.732 82.6758 269.218 86.9202 268.71 90.5842C268.203 94.2482 257.065 93.6315 258.444 87.8271C259.133 84.8887 259.496 82.2767 257.138 82.4581C254.78 82.6395 254.707 77.5969 253.002 75.7468Z" fill="url(#paint53_linear)"/>
<path d="M258.845 114.056C258.845 119.207 256.886 135.822 256.487 140.139C256.088 144.456 253.149 148.084 250.066 147.394C246.982 146.705 236.244 142.751 233.523 141.844C230.802 140.937 226.268 139.776 226.268 139.776C226.047 138.088 226.234 136.371 226.812 134.77C227.449 133.588 228.216 132.481 229.097 131.469C229.097 131.469 232.725 132.521 236.571 133.573C240.416 134.625 247.454 136.112 247.454 136.112C247.478 130.851 247.187 125.594 246.583 120.368C245.749 115.398 244.406 109.702 247.272 106.873C250.428 103.68 258.808 105.204 258.845 114.056Z" fill="url(#paint54_linear)"/>
<g style="mix-blend-mode:multiply" opacity="0.5">
<path d="M232.542 138.869C235.263 139.776 245.964 143.803 249.084 144.42C252.204 145.036 255.106 141.445 255.505 137.164C255.904 132.883 257.9 116.232 257.863 111.081C257.901 110.489 257.901 109.895 257.863 109.303C258.597 110.818 258.97 112.482 258.952 114.164C258.952 119.316 256.993 135.931 256.594 140.248C256.195 144.565 253.256 148.192 250.173 147.503C247.089 146.814 236.351 142.86 233.63 141.953C230.909 141.046 226.375 139.885 226.375 139.885C226.279 138.944 226.279 137.996 226.375 137.055C227.608 137.418 230.583 138.216 232.542 138.869Z" fill="#D1D3D4"/>
</g>
<g style="mix-blend-mode:multiply">
<path d="M253.513 76.3635C262.582 76.3635 267.335 74.8761 271.652 70.2327C272.072 71.0196 272.377 71.8625 272.559 72.7358C274.626 82.6757 269.112 86.9202 268.604 90.5842C268.097 94.2482 256.959 93.6315 258.338 87.8271C259.027 84.8887 259.39 82.2767 257.032 82.4581C254.674 82.6395 254.638 78.5401 253.404 76.3635H253.513Z" fill="#D1D3D4"/>
</g>
<path d="M274.444 75.9283C268.785 72.4819 266.173 77.5607 264.54 82.1317C262.908 86.7026 261.566 90.8382 267.515 91.854C275.895 93.2688 280.539 79.8099 274.444 75.9283Z" fill="url(#paint55_linear)"/>
<g style="mix-blend-mode:multiply">
<path d="M264.613 82.1317C265.847 78.6853 267.624 74.8762 270.853 74.8762C267.842 77.7421 267.951 81.6963 272.268 81.9503C273.969 82.1087 275.682 81.8211 277.238 81.1159C277.528 86.3398 273.61 92.9423 267.588 91.9991C261.566 91.0559 262.981 86.7389 264.613 82.1317Z" fill="#D1D3D4"/>
</g>
<defs>
<linearGradient id="paint0_linear" x1="-715089" y1="8908.68" x2="-721756" y2="7562.42" gradientUnits="userSpaceOnUse">
<stop stop-color="#25054D"/>
<stop offset="1" stop-color="#45108A"/>
</linearGradient>
<linearGradient id="paint1_linear" x1="-698755" y1="10035.8" x2="-707142" y2="8785.68" gradientUnits="userSpaceOnUse">
<stop stop-color="#25054D"/>
<stop offset="1" stop-color="#45108A"/>
</linearGradient>
<linearGradient id="paint2_linear" x1="-1.45097e+06" y1="-1088.22" x2="-1.4488e+06" y2="6036.22" gradientUnits="userSpaceOnUse">
<stop stop-color="#25054D"/>
<stop offset="1" stop-color="#45108A"/>
</linearGradient>
<linearGradient id="paint3_linear" x1="-609227" y1="7602.4" x2="-614298" y2="6760.7" gradientUnits="userSpaceOnUse">
<stop stop-color="#25054D"/>
<stop offset="1" stop-color="#45108A"/>
</linearGradient>
<linearGradient id="paint4_linear" x1="225.071" y1="254.521" x2="70.494" y2="189.657" gradientUnits="userSpaceOnUse">
<stop stop-color="#300962"/>
<stop offset="0.53" stop-color="#45108A"/>
<stop offset="1" stop-color="#6217AB"/>
</linearGradient>
<radialGradient id="paint5_radial" cx="0" cy="0" r="1" gradientUnits="userSpaceOnUse" gradientTransform="translate(132.347 216.539) rotate(180) scale(46.6525)">
<stop stop-color="white"/>
<stop offset="1"/>
</radialGradient>
<linearGradient id="paint6_linear" x1="-483164" y1="3205.73" x2="-487637" y2="3410.15" gradientUnits="userSpaceOnUse">
<stop stop-color="#25054D"/>
<stop offset="1" stop-color="#45108A"/>
</linearGradient>
<linearGradient id="paint7_linear" x1="-678554" y1="3737.82" x2="-683715" y2="3836.06" gradientUnits="userSpaceOnUse">
<stop offset="0.01" stop-color="#FFE4A7"/>
<stop offset="0.1" stop-color="#FAC098"/>
<stop offset="0.2" stop-color="#F49587"/>
<stop offset="0.46" stop-color="#A142B5"/>
<stop offset="0.6" stop-color="#7C1DC9"/>
<stop offset="0.63" stop-color="#7926CB"/>
<stop offset="0.7" stop-color="#703ED1"/>
<stop offset="0.78" stop-color="#6165DB"/>
<stop offset="0.87" stop-color="#4C9CE9"/>
<stop offset="0.97" stop-color="#32E1FA"/>
<stop offset="1" stop-color="#2AF6FF"/>
</linearGradient>
<linearGradient id="paint8_linear" x1="-664066" y1="4122.16" x2="-668418" y2="3625.6" gradientUnits="userSpaceOnUse">
<stop offset="0.01" stop-color="#FFE4A7"/>
<stop offset="0.1" stop-color="#FAC098"/>
<stop offset="0.2" stop-color="#F49587"/>
<stop offset="0.46" stop-color="#A142B5"/>
<stop offset="0.6" stop-color="#7C1DC9"/>
<stop offset="0.63" stop-color="#7926CB"/>
<stop offset="0.7" stop-color="#703ED1"/>
<stop offset="0.78" stop-color="#6165DB"/>
<stop offset="0.87" stop-color="#4C9CE9"/>
<stop offset="0.97" stop-color="#32E1FA"/>
<stop offset="1" stop-color="#2AF6FF"/>
</linearGradient>
<linearGradient id="paint9_linear" x1="-718720" y1="5154.3" x2="-725382" y2="3809.42" gradientUnits="userSpaceOnUse">
<stop stop-color="#25054D"/>
<stop offset="1" stop-color="#45108A"/>
</linearGradient>
<linearGradient id="paint10_linear" x1="-702613" y1="6284.38" x2="-711000" y2="5033.31" gradientUnits="userSpaceOnUse">
<stop stop-color="#25054D"/>
<stop offset="1" stop-color="#45108A"/>
</linearGradient>
<linearGradient id="paint11_linear" x1="-1.45861e+06" y1="-4017.44" x2="-1.45644e+06" y2="3106.77" gradientUnits="userSpaceOnUse">
<stop stop-color="#25054D"/>
<stop offset="1" stop-color="#45108A"/>
</linearGradient>
<linearGradient id="paint12_linear" x1="-543092" y1="3126.42" x2="-540784" y2="4109.4" gradientUnits="userSpaceOnUse">
<stop stop-color="#25054D"/>
<stop offset="1" stop-color="#45108A"/>
</linearGradient>
<linearGradient id="paint13_linear" x1="-607849" y1="2217.84" x2="-611461" y2="880.558" gradientUnits="userSpaceOnUse">
<stop stop-color="#25054D"/>
<stop offset="1" stop-color="#45108A"/>
</linearGradient>
<linearGradient id="paint14_linear" x1="-368348" y1="156.265" x2="-368080" y2="1041.36" gradientUnits="userSpaceOnUse">
<stop stop-color="#25054D"/>
<stop offset="1" stop-color="#45108A"/>
</linearGradient>
<linearGradient id="paint15_linear" x1="108.653" y1="94.7923" x2="152.911" y2="157.951" gradientUnits="userSpaceOnUse">
<stop stop-color="white"/>
<stop offset="0.27" stop-color="#F4EEF4"/>
<stop offset="0.79" stop-color="#D8C4D7"/>
<stop offset="1" stop-color="#CCB1CB"/>
</linearGradient>
<linearGradient id="paint16_linear" x1="149.104" y1="129.764" x2="142.537" y2="41.5736" gradientUnits="userSpaceOnUse">
<stop offset="0.04" stop-color="#FFA98C"/>
<stop offset="0.32" stop-color="#FFB892"/>
<stop offset="0.86" stop-color="#FEE1A3"/>
<stop offset="1" stop-color="#FEECA8"/>
</linearGradient>
<radialGradient id="paint17_radial" cx="0" cy="0" r="1" gradientUnits="userSpaceOnUse" gradientTransform="translate(-227154 569.976) rotate(180) scale(120.15 70.0518)">
<stop stop-color="white"/>
<stop offset="1"/>
</radialGradient>
<radialGradient id="paint18_radial" cx="0" cy="0" r="1" gradientUnits="userSpaceOnUse" gradientTransform="translate(-231345 2815.98) rotate(180) scale(220.173 537.659)">
<stop stop-color="white"/>
<stop offset="1"/>
</radialGradient>
<linearGradient id="paint19_linear" x1="545265" y1="6171.71" x2="546596" y2="1901.54" gradientUnits="userSpaceOnUse">
<stop offset="0.04" stop-color="#FFA98C"/>
<stop offset="0.32" stop-color="#FFB892"/>
<stop offset="0.86" stop-color="#FEE1A3"/>
<stop offset="1" stop-color="#FEECA8"/>
</linearGradient>
<radialGradient id="paint20_radial" cx="0" cy="0" r="1" gradientUnits="userSpaceOnUse" gradientTransform="translate(-514538 3270.75) rotate(180) scale(742.95 911.228)">
<stop stop-color="white"/>
<stop offset="1"/>
</radialGradient>
<linearGradient id="paint21_linear" x1="390104" y1="2506.88" x2="389010" y2="3415.01" gradientUnits="userSpaceOnUse">
<stop stop-color="white"/>
<stop offset="0.27" stop-color="#F4EEF4"/>
<stop offset="0.79" stop-color="#D8C4D7"/>
<stop offset="1" stop-color="#CCB1CB"/>
</linearGradient>
<linearGradient id="paint22_linear" x1="526166" y1="3654.29" x2="526404" y2="1370.25" gradientUnits="userSpaceOnUse">
<stop offset="0.04" stop-color="#FFA98C"/>
<stop offset="0.32" stop-color="#FFB892"/>
<stop offset="0.86" stop-color="#FEE1A3"/>
<stop offset="1" stop-color="#FEECA8"/>
</linearGradient>
<radialGradient id="paint23_radial" cx="0" cy="0" r="1" gradientUnits="userSpaceOnUse" gradientTransform="translate(-228187 610.347) rotate(180) scale(120.684 69.4902)">
<stop stop-color="white"/>
<stop offset="1"/>
</radialGradient>
<radialGradient id="paint24_radial" cx="0" cy="0" r="1" gradientUnits="userSpaceOnUse" gradientTransform="translate(-233809 2979.8) rotate(180) scale(222.353 537.438)">
<stop stop-color="white"/>
<stop offset="1"/>
</radialGradient>
<linearGradient id="paint25_linear" x1="545322" y1="6346.06" x2="546651" y2="2074.29" gradientUnits="userSpaceOnUse">
<stop offset="0.04" stop-color="#FFA98C"/>
<stop offset="0.32" stop-color="#FFB892"/>
<stop offset="0.86" stop-color="#FEE1A3"/>
<stop offset="1" stop-color="#FEECA8"/>
</linearGradient>
<radialGradient id="paint26_radial" cx="0" cy="0" r="1" gradientUnits="userSpaceOnUse" gradientTransform="translate(-514312 3443.71) rotate(180) scale(742.95 910.94)">
<stop stop-color="white"/>
<stop offset="1"/>
</radialGradient>
<linearGradient id="paint27_linear" x1="-336876" y1="3355.22" x2="-338567" y2="2996.59" gradientUnits="userSpaceOnUse">
<stop stop-color="#25054D"/>
<stop offset="1" stop-color="#45108A"/>
</linearGradient>
<linearGradient id="paint28_linear" x1="-369130" y1="572.801" x2="-368792" y2="1604.57" gradientUnits="userSpaceOnUse">
<stop stop-color="#25054D"/>
<stop offset="1" stop-color="#45108A"/>
</linearGradient>
<linearGradient id="paint29_linear" x1="-7264.17" y1="3570.21" x2="-7323.9" y2="3569.04" gradientUnits="userSpaceOnUse">
<stop stop-color="#25054D"/>
<stop offset="1" stop-color="#45108A"/>
</linearGradient>
<linearGradient id="paint30_linear" x1="-607846" y1="5953.91" x2="-614041" y2="4955.87" gradientUnits="userSpaceOnUse">
<stop stop-color="#25054D"/>
<stop offset="1" stop-color="#45108A"/>
</linearGradient>
<linearGradient id="paint31_linear" x1="-567233" y1="5322.71" x2="-570729" y2="4749.76" gradientUnits="userSpaceOnUse">
<stop stop-color="#300962"/>
<stop offset="0.53" stop-color="#45108A"/>
<stop offset="1" stop-color="#6217AB"/>
</linearGradient>
<linearGradient id="paint32_linear" x1="-645882" y1="1569.14" x2="-645795" y2="1854.87" gradientUnits="userSpaceOnUse">
<stop stop-color="#25054D"/>
<stop offset="1" stop-color="#45108A"/>
</linearGradient>
<radialGradient id="paint33_radial" cx="0" cy="0" r="1" gradientUnits="userSpaceOnUse" gradientTransform="translate(-611395 4686.9) rotate(180) scale(1119.27 1557.16)">
<stop stop-color="white"/>
<stop offset="1"/>
</radialGradient>
<linearGradient id="paint34_linear" x1="-484957" y1="2219.19" x2="-489429" y2="2422.8" gradientUnits="userSpaceOnUse">
<stop stop-color="#25054D"/>
<stop offset="1" stop-color="#45108A"/>
</linearGradient>
<radialGradient id="paint35_radial" cx="0" cy="0" r="1" gradientUnits="userSpaceOnUse" gradientTransform="translate(305.714 204.676) rotate(180) scale(73.28)">
<stop offset="0.03" stop-color="#FEDFCB"/>
<stop offset="1" stop-color="#F9B69E"/>
</radialGradient>
<radialGradient id="paint36_radial" cx="0" cy="0" r="1" gradientUnits="userSpaceOnUse" gradientTransform="translate(85722 5795.84) scale(228.181 1640.73)">
<stop offset="0.03" stop-color="#FEDFCB"/>
<stop offset="1" stop-color="#F9B69E"/>
</radialGradient>
<linearGradient id="paint37_linear" x1="259.896" y1="132.883" x2="166.519" y2="111.951" gradientUnits="userSpaceOnUse">
<stop offset="0.04" stop-color="#6B24D6"/>
<stop offset="0.29" stop-color="#7733DC"/>
<stop offset="0.79" stop-color="#975CED"/>
<stop offset="1" stop-color="#A56EF4"/>
</linearGradient>
<linearGradient id="paint38_linear" x1="259.135" y1="133.065" x2="170.183" y2="113.149" gradientUnits="userSpaceOnUse">
<stop offset="0.04" stop-color="#9D9EB3"/>
<stop offset="0.58" stop-color="#D4D1D8"/>
<stop offset="1" stop-color="#EEEBF2"/>
</linearGradient>
<linearGradient id="paint39_linear" x1="135843" y1="1694.61" x2="136356" y2="1637.21" gradientUnits="userSpaceOnUse">
<stop offset="0.04" stop-color="#6B24D6"/>
<stop offset="0.29" stop-color="#7733DC"/>
<stop offset="0.79" stop-color="#975CED"/>
<stop offset="1" stop-color="#A56EF4"/>
</linearGradient>
<radialGradient id="paint40_radial" cx="0" cy="0" r="1" gradientUnits="userSpaceOnUse" gradientTransform="translate(146318 6082.29) scale(432.542 1913.09)">
<stop offset="0.03" stop-color="#FEDFCB"/>
<stop offset="1" stop-color="#F9B69E"/>
</radialGradient>
<radialGradient id="paint41_radial" cx="0" cy="0" r="1" gradientUnits="userSpaceOnUse" gradientTransform="translate(114564 6516.77) scale(329.873 1867.27)">
<stop offset="0.03" stop-color="#FEDFCB"/>
<stop offset="1" stop-color="#F9B69E"/>
</radialGradient>
<linearGradient id="paint42_linear" x1="277.924" y1="168.435" x2="219.554" y2="168.435" gradientUnits="userSpaceOnUse">
<stop offset="0.04" stop-color="#9F19AB"/>
<stop offset="0.24" stop-color="#AE25B1"/>
<stop offset="0.65" stop-color="#D744BF"/>
<stop offset="1" stop-color="#FF63CE"/>
</linearGradient>
<linearGradient id="paint43_linear" x1="219683" y1="2823.47" x2="219140" y2="2800.4" gradientUnits="userSpaceOnUse">
<stop offset="0.04" stop-color="#9F19AB"/>
<stop offset="0.24" stop-color="#AE25B1"/>
<stop offset="0.65" stop-color="#D744BF"/>
<stop offset="1" stop-color="#FF63CE"/>
</linearGradient>
<radialGradient id="paint44_radial" cx="0" cy="0" r="1" gradientUnits="userSpaceOnUse" gradientTransform="translate(85619.2 602.179) scale(38.1099 37.3506)">
<stop offset="0.03" stop-color="#FEDFCB"/>
<stop offset="1" stop-color="#F9B69E"/>
</radialGradient>
<radialGradient id="paint45_radial" cx="0" cy="0" r="1" gradientUnits="userSpaceOnUse" gradientTransform="translate(32588.4 439.842) scale(14.9096 25.7047)">
<stop offset="0.03" stop-color="#FEDFCB"/>
<stop offset="1" stop-color="#F9B69E"/>
</radialGradient>
<linearGradient id="paint46_linear" x1="87265.2" y1="1598.5" x2="87484.5" y2="1563.11" gradientUnits="userSpaceOnUse">
<stop offset="0.04" stop-color="#9F19AB"/>
<stop offset="0.24" stop-color="#AE25B1"/>
<stop offset="0.65" stop-color="#D744BF"/>
<stop offset="1" stop-color="#FF63CE"/>
</linearGradient>
<linearGradient id="paint47_linear" x1="239.072" y1="137.527" x2="282.206" y2="128.675" gradientUnits="userSpaceOnUse">
<stop offset="0.07" stop-color="#9F19AB"/>
<stop offset="0.27" stop-color="#AE25B1"/>
<stop offset="0.66" stop-color="#D744BF"/>
<stop offset="1" stop-color="#FF63CE"/>
</linearGradient>
<linearGradient id="paint48_linear" x1="5781.89" y1="2987.68" x2="6071.47" y2="2987.68" gradientUnits="userSpaceOnUse">
<stop offset="0.04" stop-color="#9F19AB"/>
<stop offset="0.24" stop-color="#AE25B1"/>
<stop offset="0.65" stop-color="#D744BF"/>
<stop offset="1" stop-color="#FF63CE"/>
</linearGradient>
<radialGradient id="paint49_radial" cx="0" cy="0" r="1" gradientUnits="userSpaceOnUse" gradientTransform="translate(154812 886.761) scale(104.269 149.732)">
<stop offset="0.03" stop-color="#FEDFCB"/>
<stop offset="1" stop-color="#F9B69E"/>
</radialGradient>
<linearGradient id="paint50_linear" x1="93395.4" y1="281.916" x2="93408.4" y2="257.717" gradientUnits="userSpaceOnUse">
<stop offset="0.04" stop-color="#9D9EB3"/>
<stop offset="0.58" stop-color="#D4D1D8"/>
<stop offset="1" stop-color="#EEEBF2"/>
</linearGradient>
<linearGradient id="paint51_linear" x1="136457" y1="433.945" x2="136589" y2="433.945" gradientUnits="userSpaceOnUse">
<stop offset="0.04" stop-color="#9F19AB"/>
<stop offset="0.24" stop-color="#AE25B1"/>
<stop offset="0.65" stop-color="#D744BF"/>
<stop offset="1" stop-color="#FF63CE"/>
</linearGradient>
<radialGradient id="paint52_radial" cx="0" cy="0" r="1" gradientUnits="userSpaceOnUse" gradientTransform="translate(-114027 410.948) rotate(180) scale(51.9517 25.9019)">
<stop stop-color="white"/>
<stop offset="1"/>
</radialGradient>
<linearGradient id="paint53_linear" x1="264.14" y1="93.2324" x2="258.226" y2="66.6775" gradientUnits="userSpaceOnUse">
<stop offset="0.04" stop-color="#602213"/>
<stop offset="0.57" stop-color="#6D310E"/>
<stop offset="1" stop-color="#7A4108"/>
</linearGradient>
<linearGradient id="paint54_linear" x1="6388.48" y1="1685.5" x2="6809.25" y2="1588.11" gradientUnits="userSpaceOnUse">
<stop offset="0.04" stop-color="#9F19AB"/>
<stop offset="0.24" stop-color="#AE25B1"/>
<stop offset="0.65" stop-color="#D744BF"/>
<stop offset="1" stop-color="#FF63CE"/>
</linearGradient>
<linearGradient id="paint55_linear" x1="88064.1" y1="509.395" x2="88064.1" y2="419.969" gradientUnits="userSpaceOnUse">
<stop offset="0.04" stop-color="#602213"/>
<stop offset="0.57" stop-color="#6D310E"/>
<stop offset="1" stop-color="#7A4108"/>
</linearGradient>
</defs>
</svg>
