<svg width="301" height="290" viewBox="0 0 301 290" fill="none" xmlns="http://www.w3.org/2000/svg">
<path d="M3.50195 133.869H15.5677V232.326C15.5677 234.256 12.9132 235.825 9.53483 235.825C6.15642 235.825 3.50195 234.256 3.50195 232.326V133.869Z" fill="url(#paint0_linear)"/>
<path d="M78.7832 177.187H90.849V275.703C90.849 277.634 88.1945 279.202 84.8161 279.202C81.4377 279.202 78.7832 277.634 78.7832 275.703V177.187Z" fill="url(#paint1_linear)"/>
<path style="mix-blend-mode:multiply" d="M3.50195 131.035H15.5677V151.547C15.5677 153.477 12.9132 154.986 9.53483 154.986C6.15642 154.986 3.50195 153.477 3.50195 151.547V131.035Z" fill="url(#paint2_linear)"/>
<path style="mix-blend-mode:multiply" d="M78.7832 96.5264H90.849V194.862C90.849 196.793 88.1945 198.361 84.8161 198.361C81.4377 198.361 78.7832 196.793 78.7832 194.862V96.5264Z" fill="url(#paint3_linear)"/>
<path d="M246.68 80.3569H258.745V178.874C258.745 180.804 256.091 182.373 252.713 182.373C249.334 182.373 246.68 180.804 246.68 178.874V80.3569Z" fill="url(#paint4_linear)"/>
<path d="M0.414458 137.49V130.914L5.36142 129.768L168.671 36.1979C171.107 34.8693 173.816 34.1184 176.588 34.0034C179.36 33.8883 182.121 34.4121 184.659 35.5343L258.501 78.428L261.517 77.7041V85.0642C261.352 86.158 260.911 87.1916 260.235 88.0676C259.56 88.9436 258.672 89.6333 257.656 90.0715L93.2001 184.607C90.7645 185.935 88.0559 186.686 85.2839 186.801C82.5118 186.916 79.7504 186.392 77.213 185.27L3.12925 142.015C2.26582 141.632 1.54166 140.992 1.05574 140.182C0.56982 139.372 0.345855 138.432 0.414458 137.49Z" fill="url(#paint5_linear)"/>
<path d="M77.2161 177.91L3.1324 134.654C-0.909627 132.301 -0.426997 128.138 4.33898 125.424L168.675 30.9488C171.085 29.5555 173.793 28.7575 176.573 28.6211C179.354 28.4847 182.127 29.0138 184.662 30.1645L258.745 73.3599C262.848 75.773 262.305 79.8754 257.599 82.5902L93.2033 177.246C90.7676 178.575 88.0591 179.326 85.287 179.441C82.515 179.556 79.7535 179.032 77.2161 177.91Z" fill="url(#paint6_linear)"/>
<path style="mix-blend-mode:color-dodge" d="M257.42 82.0473L93.2048 176.522C90.7691 177.851 88.0606 178.602 85.2885 178.717C82.5165 178.832 79.7551 178.308 77.2177 177.186L3.13393 133.93C2.41243 133.589 1.78678 133.074 1.313 132.432C0.839219 131.79 0.532098 131.04 0.419132 130.25C0.375744 131.172 0.61167 132.086 1.09605 132.871C1.58042 133.657 2.29069 134.278 3.13393 134.654L77.2177 177.91C79.7551 179.032 82.5165 179.556 85.2885 179.441C88.0606 179.326 90.7691 178.575 93.2048 177.246L257.42 82.7109C258.544 82.2772 259.513 81.5167 260.201 80.5275C260.889 79.5382 261.265 78.3656 261.281 77.1606C261.072 78.2233 260.612 79.2208 259.941 80.0706C259.269 80.9204 258.405 81.598 257.42 82.0473Z" fill="url(#paint7_radial)"/>
<path style="mix-blend-mode:color-dodge" d="M77.2177 182.194C77.2177 187.925 80.2341 192.631 83.9142 192.631C87.5942 192.631 90.5503 187.925 90.5503 182.194C90.5503 176.462 87.5339 171.757 83.8538 171.757C80.1738 171.757 77.1574 176.462 77.2177 182.194Z" fill="url(#paint8_radial)"/>
<path d="M11.7679 98.3972V127.536L7.00195 124.761V95.6221L11.7679 98.3972Z" fill="url(#paint9_linear)"/>
<path d="M11.7637 98.396V127.535L177.909 31.9137V2.7749L11.7637 98.396Z" fill="url(#paint10_linear)"/>
<path d="M177.913 2.77512L11.7679 98.3962L7.00195 95.6211L173.208 0L177.913 2.77512Z" fill="url(#paint11_linear)"/>
<path style="mix-blend-mode:color-dodge" d="M12.6686 97.9756V126.873L11.7637 127.537V98.5789L12.6686 97.9756Z" fill="url(#paint12_radial)"/>
<g opacity="0.2">
<path opacity="0.09" d="M144.302 78.9715L82.8274 114.626C81.8641 115.112 81.0615 115.866 80.5158 116.797C79.9701 117.728 79.7044 118.796 79.7506 119.874C79.7003 120.336 79.7003 120.801 79.7506 121.262C80.4922 123.116 81.8578 124.652 83.6117 125.606L118.663 145.393C120.808 146.619 123.252 147.225 125.721 147.143C126.674 147.138 127.624 147.037 128.557 146.841C129.562 146.57 130.533 146.185 131.452 145.695L192.686 110.342C193.654 109.862 194.461 109.11 195.008 108.177C195.554 107.245 195.817 106.173 195.763 105.094C195.849 104.554 195.849 104.005 195.763 103.465C194.979 101.703 193.645 100.243 191.962 99.3023L157.514 79.4541L156.308 78.7905C154.49 78.0413 152.543 77.652 150.577 77.6442C148.401 77.4704 146.221 77.9314 144.302 78.9715Z" fill="black"/>
<path opacity="0.18" d="M144.422 79.2704L82.9469 114.623C81.996 115.084 81.2154 115.835 80.7169 116.767C80.2185 117.699 80.0276 118.764 80.1718 119.811C80.2276 120.269 80.3496 120.716 80.5338 121.139C81.3804 122.913 82.7485 124.386 84.4552 125.362L118.662 145.149C120.821 146.334 123.258 146.918 125.72 146.839C126.652 146.781 127.579 146.66 128.495 146.477C129.48 146.174 130.43 145.77 131.331 145.27L192.263 110.038C193.203 109.575 193.978 108.836 194.485 107.919C194.992 107.002 195.206 105.952 195.098 104.91C195.029 104.363 194.866 103.833 194.616 103.342C193.783 101.659 192.457 100.27 190.815 99.3599L156.85 79.753L155.643 79.1497C153.882 78.3469 151.968 77.9352 150.033 77.9432C148.078 77.8865 146.144 78.3442 144.422 79.2704Z" fill="black"/>
<path opacity="0.27" d="M144.607 79.5131L83.1324 114.986C82.1985 115.436 81.4418 116.185 80.9826 117.114C80.5235 118.043 80.3883 119.099 80.5985 120.114C80.6842 120.572 80.8261 121.018 81.0209 121.442C81.9967 123.115 83.3892 124.508 85.0629 125.484L118.666 144.789C120.835 145.942 123.269 146.504 125.724 146.418C126.644 146.356 127.554 146.194 128.439 145.935C129.429 145.675 130.382 145.29 131.275 144.789L192.086 109.798C193.024 109.35 193.788 108.604 194.257 107.676C194.726 106.748 194.875 105.691 194.68 104.67C194.553 104.169 194.371 103.684 194.137 103.222C193.201 101.643 191.87 100.333 190.276 99.4216L156.794 80.0561L155.587 79.4528C153.859 78.6786 151.991 78.2679 150.097 78.2462C148.189 78.192 146.299 78.6282 144.607 79.5131Z" fill="black"/>
<path opacity="0.36" d="M144.729 79.8155L83.2542 115.289C82.3425 115.733 81.6179 116.486 81.2091 117.413C80.8004 118.341 80.7341 119.384 81.022 120.356C81.1568 120.769 81.318 121.172 81.5047 121.563C82.5815 123.128 83.9802 124.444 85.607 125.424L118.667 144.79C120.819 145.984 123.271 146.529 125.726 146.358C126.626 146.302 127.517 146.14 128.38 145.876C129.355 145.547 130.303 145.143 131.216 144.669L191.544 109.678C192.454 109.246 193.183 108.508 193.602 107.592C194.021 106.676 194.104 105.642 193.837 104.671C193.687 104.188 193.485 103.723 193.234 103.283C192.185 101.808 190.852 100.556 189.312 99.6034L156.373 80.5998L155.166 79.9362C153.448 79.1954 151.606 78.786 149.737 78.7296C148.006 78.6962 146.291 79.068 144.729 79.8155Z" fill="black"/>
<path opacity="0.45" d="M144.9 80.0558L83.4252 115.529C82.5062 115.94 81.7837 116.693 81.4119 117.628C81.04 118.563 81.0481 119.607 81.4344 120.536C81.5607 120.972 81.7651 121.381 82.0377 121.743C82.0377 122.708 85.0541 124.759 86.14 125.423L119.019 144.366C121.157 145.535 123.588 146.058 126.017 145.875C126.921 145.799 127.812 145.617 128.672 145.332C129.639 145.008 130.569 144.583 131.447 144.065L191.776 109.255C192.682 108.844 193.402 108.108 193.793 107.192C194.184 106.276 194.217 105.247 193.887 104.308C193.682 103.847 193.44 103.403 193.163 102.981C192.068 101.574 190.717 100.387 189.182 99.4817L156.725 80.7194L155.518 80.1161C153.839 79.3155 152.008 78.8835 150.149 78.8492C148.324 78.7825 146.513 79.1987 144.9 80.0558Z" fill="black"/>
<path opacity="0.55" d="M145.09 80.2988L83.6147 115.832C83.1613 116.027 82.7525 116.312 82.4133 116.67C82.0741 117.028 81.8117 117.452 81.6422 117.915C81.4727 118.379 81.3997 118.872 81.4277 119.364C81.4556 119.857 81.584 120.338 81.8048 120.779C82.0035 121.168 82.2464 121.532 82.5287 121.865C82.5287 122.71 85.8468 124.821 86.7518 125.364L119.148 144.066C121.292 145.277 123.755 145.804 126.207 145.575C127.088 145.451 127.956 145.249 128.801 144.971C129.733 144.611 130.64 144.187 131.516 143.704L191.845 109.015C192.738 108.596 193.429 107.841 193.768 106.914C194.107 105.988 194.066 104.965 193.654 104.068C193.437 103.62 193.174 103.196 192.87 102.801C191.723 101.488 190.355 100.386 188.828 99.5437L156.854 81.0227L155.708 80.4194C154.036 79.6602 152.233 79.23 150.399 79.1525C148.559 79.0651 146.729 79.4603 145.09 80.2988Z" fill="black"/>
<path opacity="0.64" d="M145.201 80.5983L83.7259 116.072C83.2814 116.266 82.8841 116.555 82.5609 116.917C82.2378 117.279 81.9965 117.706 81.8534 118.17C81.7103 118.633 81.6687 119.123 81.7316 119.604C81.7944 120.085 81.9602 120.547 82.2176 120.958C82.4448 121.325 82.7075 121.669 83.0019 121.984C84.2592 123.311 85.702 124.449 87.2853 125.362L119.32 143.823C121.459 144.98 123.899 145.464 126.318 145.21C127.204 145.116 128.075 144.913 128.912 144.607C129.82 144.213 130.707 143.77 131.567 143.28L191.473 108.591C191.914 108.401 192.31 108.119 192.633 107.764C192.956 107.409 193.201 106.989 193.349 106.533C193.497 106.076 193.547 105.593 193.494 105.115C193.441 104.638 193.287 104.178 193.042 103.765C192.8 103.321 192.495 102.915 192.137 102.558C190.965 101.345 189.624 100.309 188.155 99.4812L156.603 81.3826L155.457 80.719C153.827 79.9603 152.064 79.5298 150.269 79.4521C148.509 79.3956 146.765 79.7902 145.201 80.5983Z" fill="black"/>
<path opacity="0.73" d="M145.395 80.8414L83.9204 116.315C83.4647 116.498 83.0584 116.785 82.7342 117.154C82.4099 117.523 82.1768 117.963 82.0535 118.438C81.9303 118.914 81.9204 119.411 82.0246 119.891C82.1288 120.371 82.3442 120.82 82.6535 121.201C82.9222 121.552 83.2254 121.876 83.5584 122.167C84.8854 123.37 86.3423 124.423 87.9021 125.304L119.454 143.402C121.596 144.614 124.072 145.101 126.513 144.79C127.374 144.64 128.222 144.418 129.046 144.126L131.64 142.799L191.366 108.593C191.802 108.405 192.19 108.12 192.5 107.761C192.81 107.401 193.035 106.976 193.157 106.517C193.279 106.058 193.295 105.578 193.204 105.112C193.114 104.646 192.918 104.206 192.633 103.827C192.394 103.347 192.067 102.917 191.668 102.56C190.43 101.432 189.075 100.441 187.626 99.6037L156.556 81.505L155.41 80.9018C153.823 80.1433 152.1 79.7124 150.342 79.6348C148.616 79.5957 146.91 80.0119 145.395 80.8414Z" fill="black"/>
<path opacity="0.82" d="M145.511 81.1414L84.036 116.615C83.586 116.792 83.1875 117.078 82.8767 117.449C82.5659 117.819 82.3528 118.261 82.2568 118.735C82.1609 119.209 82.1851 119.699 82.3272 120.161C82.4694 120.624 82.725 121.043 83.0708 121.381C83.3627 121.713 83.6859 122.016 84.036 122.286C85.4256 123.401 86.8979 124.409 88.44 125.302L119.63 143.401C121.768 144.559 124.214 145.023 126.628 144.728C127.494 144.567 128.342 144.325 129.162 144.004L131.756 142.616L191.059 108.169C191.496 107.998 191.885 107.723 192.193 107.368C192.5 107.013 192.716 106.589 192.823 106.131C192.93 105.674 192.924 105.198 192.806 104.744C192.688 104.289 192.461 103.871 192.145 103.523C191.809 103.174 191.446 102.851 191.059 102.558C189.745 101.557 188.375 100.631 186.957 99.783L156.37 82.1067L155.284 81.5034C153.719 80.745 152.015 80.3139 150.277 80.2365C148.635 80.0957 146.987 80.4087 145.511 81.1414Z" fill="black"/>
<path opacity="0.91" d="M145.69 81.3831L84.2151 116.856C83.7712 117.046 83.3831 117.346 83.0875 117.728C82.792 118.11 82.5988 118.561 82.5263 119.038C82.4538 119.515 82.5044 120.003 82.6732 120.455C82.8421 120.908 83.1236 121.309 83.4912 121.622L84.5168 122.467C84.5168 122.467 88.8001 125.182 88.9811 125.242L119.749 143.039C121.919 144.167 124.38 144.609 126.807 144.306C127.645 144.089 128.471 143.827 129.281 143.522C129.281 143.522 131.694 142.134 131.815 142.134L191.057 107.928C191.498 107.755 191.887 107.473 192.187 107.107C192.488 106.742 192.69 106.306 192.775 105.841C192.859 105.375 192.824 104.896 192.671 104.448C192.518 104 192.253 103.599 191.902 103.282C191.559 102.917 191.174 102.593 190.756 102.317C190.756 102.317 186.774 99.8437 186.593 99.7231L156.429 82.3484L155.343 81.7451C153.808 80.9537 152.121 80.5011 150.396 80.4178C148.769 80.3098 147.143 80.6433 145.69 81.3831Z" fill="black"/>
<path opacity="0.2" d="M129.398 143.159L191.054 107.626C193.467 106.238 193.165 103.825 190.39 102.196L155.279 82.0463C153.842 81.2424 152.238 80.7855 150.593 80.7121C148.948 80.6388 147.309 80.9511 145.807 81.624L84.3321 117.158C81.9189 118.545 82.2205 121.019 85.056 122.587L119.926 142.737C121.363 143.541 122.967 143.998 124.612 144.071C126.256 144.145 127.895 143.832 129.398 143.159Z" fill="black"/>
</g>
<path d="M129.4 143.099L191.056 107.626C191.508 107.408 191.896 107.077 192.182 106.665C192.467 106.252 192.641 105.773 192.685 105.273V102.196C192.685 101.171 191.901 102.98 190.393 102.196L155.462 82.0463C154.026 81.2424 152.421 80.7855 150.776 80.7121C149.132 80.6388 147.493 80.9511 145.991 81.624L84.3345 117.097C83.5503 117.58 82.947 115.589 82.766 116.192C82.585 116.796 82.766 119.209 82.766 119.39C82.8423 120.075 83.1007 120.728 83.5145 121.279C83.9283 121.831 84.4822 122.262 85.1188 122.527L119.989 142.677C121.418 143.471 123.012 143.923 124.645 143.996C126.278 144.069 127.906 143.762 129.4 143.099Z" fill="url(#paint13_linear)"/>
<path d="M129.409 140.084L191.065 104.611C193.479 103.223 193.177 100.75 190.402 99.1211L155.471 78.9713C154.017 78.1325 152.386 77.6464 150.71 77.5521C149.033 77.4578 147.358 77.7579 145.819 78.4283L84.3438 114.083C81.9306 115.47 82.2323 117.944 85.0677 119.573L119.938 139.722C121.373 140.535 122.982 140.993 124.63 141.056C126.278 141.119 127.917 140.785 129.409 140.084Z" fill="url(#paint14_linear)"/>
<path d="M125.306 139.842C126.518 139.868 127.719 139.599 128.805 139.058L190.28 103.524C190.642 103.524 191.305 102.861 191.305 102.257C191.305 101.654 190.642 100.809 189.556 100.206L154.867 80.0562C153.399 79.2829 151.76 78.8888 150.101 78.91C148.886 78.8631 147.68 79.1334 146.602 79.6943L84.9457 115.168C84.5838 115.168 83.9805 115.831 83.9805 116.495C83.9805 117.158 84.5838 117.882 85.6697 118.486L120.54 138.756C122.003 139.537 123.649 139.912 125.306 139.842Z" fill="url(#paint15_linear)"/>
<path style="mix-blend-mode:screen" d="M85.0599 119.029L119.93 139.178C121.366 139.982 122.971 140.439 124.616 140.513C126.26 140.586 127.899 140.274 129.402 139.601L191.058 104.127C191.477 103.914 191.842 103.607 192.124 103.231C192.407 102.854 192.599 102.418 192.686 101.956C192.712 102.51 192.57 103.06 192.279 103.533C191.989 104.006 191.563 104.381 191.058 104.61L129.402 140.083C127.909 140.785 126.27 141.118 124.622 141.055C122.974 140.992 121.365 140.534 119.93 139.721L85.0599 119.572C84.3936 119.298 83.8188 118.841 83.4022 118.254C82.9857 117.666 82.7446 116.973 82.707 116.253C82.8676 116.862 83.1622 117.427 83.5693 117.907C83.9763 118.388 84.4856 118.771 85.0599 119.029Z" fill="url(#paint16_radial)"/>
<path style="mix-blend-mode:color-dodge" d="M142.194 86.7517C140.565 91.5176 145.753 97.5505 153.717 100.326C161.68 103.101 169.583 101.472 171.212 96.7662C172.841 92.0606 167.652 85.9674 159.629 83.1923C151.605 80.4171 143.823 82.046 142.194 86.7517Z" fill="url(#paint17_radial)"/>
<path d="M118.664 127.051L168.556 98.2135C169.582 97.6102 169.461 96.645 168.556 95.9814L149.794 85.1222C149.182 84.828 148.512 84.6753 147.833 84.6753C147.154 84.6753 146.484 84.828 145.872 85.1222L95.9805 113.959C94.9549 114.563 95.0756 115.528 95.9805 116.252L114.562 126.689C115.168 127.069 115.856 127.301 116.569 127.363C117.283 127.426 118 127.319 118.664 127.051Z" fill="url(#paint18_linear)"/>
<path style="mix-blend-mode:screen" opacity="0.3" d="M148.289 86.3892C148.067 86.2678 147.818 86.2041 147.565 86.2041C147.312 86.2041 147.063 86.2678 146.841 86.3892L143.644 88.2594C143.222 88.2594 143.222 88.8627 143.644 89.104C143.878 89.2209 144.136 89.2817 144.398 89.2817C144.66 89.2817 144.918 89.2209 145.152 89.104L148.35 87.2338C148.832 86.9925 148.832 86.6305 148.289 86.3892ZM142.799 89.5263C142.334 89.3446 141.817 89.3446 141.352 89.5263L139.843 90.4312C139.421 90.4312 139.421 91.0345 139.843 91.2758C140.065 91.3973 140.314 91.4609 140.567 91.4609C140.82 91.4609 141.069 91.3973 141.291 91.2758L142.799 90.4916C143.222 90.4916 143.222 89.7676 142.799 89.5263ZM138.999 91.7585C138.777 91.637 138.528 91.5734 138.275 91.5734C138.022 91.5734 137.773 91.637 137.551 91.7585L136.043 92.6031C135.62 92.6031 135.62 93.2064 136.043 93.4477C136.265 93.5691 136.514 93.6328 136.767 93.6328C137.02 93.6328 137.269 93.5691 137.491 93.4477L138.999 92.6031C139.421 92.3618 139.421 91.9998 138.999 91.7585ZM135.198 93.9303C134.976 93.8089 134.727 93.7452 134.474 93.7452C134.221 93.7452 133.972 93.8089 133.75 93.9303L132.242 94.8352C131.82 94.8352 131.82 95.4385 132.242 95.6798C132.707 95.8616 133.224 95.8616 133.69 95.6798L135.198 94.7749C135.62 94.5336 135.62 94.1716 135.198 93.9303ZM131.397 96.1021C131.175 95.9807 130.926 95.917 130.673 95.917C130.42 95.917 130.171 95.9807 129.949 96.1021L128.441 97.0071C128.019 97.0071 128.019 97.6104 128.441 97.8517C128.663 97.9731 128.912 98.0368 129.165 98.0368C129.418 98.0368 129.667 97.9731 129.889 97.8517L131.397 96.9467C131.82 96.5244 131.82 96.5244 131.397 96.1021ZM127.657 98.3343C127.423 98.2175 127.165 98.1566 126.903 98.1566C126.641 98.1566 126.383 98.2175 126.149 98.3343L124.64 99.1789C124.218 99.1789 124.218 99.7822 124.64 100.024C124.862 100.145 125.111 100.209 125.364 100.209C125.617 100.209 125.866 100.145 126.088 100.024L127.657 99.1789C127.732 99.1372 127.795 99.076 127.839 99.0017C127.883 98.9275 127.906 98.8428 127.906 98.7566C127.906 98.6704 127.883 98.5858 127.839 98.5115C127.795 98.4372 127.732 98.376 127.657 98.3343ZM123.856 100.506C123.622 100.389 123.364 100.328 123.102 100.328C122.84 100.328 122.582 100.389 122.348 100.506L120.84 101.351C120.747 101.385 120.668 101.447 120.611 101.528C120.555 101.609 120.525 101.705 120.525 101.803C120.525 101.902 120.555 101.998 120.611 102.079C120.668 102.16 120.747 102.221 120.84 102.256C121.077 102.36 121.334 102.414 121.594 102.414C121.854 102.414 122.11 102.36 122.348 102.256L123.856 101.411C123.949 101.377 124.028 101.315 124.084 101.234C124.141 101.153 124.171 101.057 124.171 100.959C124.171 100.86 124.141 100.764 124.084 100.683C124.028 100.602 123.949 100.54 123.856 100.506ZM120.055 102.678C119.851 102.548 119.618 102.469 119.376 102.448C119.135 102.427 118.892 102.464 118.668 102.557L117.099 103.462C117.024 103.504 116.961 103.565 116.917 103.639C116.873 103.714 116.85 103.798 116.85 103.885C116.85 103.971 116.873 104.055 116.917 104.13C116.961 104.204 117.024 104.265 117.099 104.307C117.334 104.424 117.592 104.485 117.853 104.485C118.115 104.485 118.373 104.424 118.608 104.307L120.116 103.402C120.478 103.281 120.478 102.919 120.055 102.557V102.678ZM116.255 104.91C116.033 104.789 115.784 104.725 115.531 104.725C115.278 104.725 115.029 104.789 114.807 104.91L113.299 105.755C112.876 105.755 112.876 106.358 113.299 106.599C113.533 106.716 113.791 106.777 114.053 106.777C114.315 106.777 114.573 106.716 114.807 106.599L116.315 105.755C116.677 105.513 116.677 105.091 116.255 104.91ZM112.454 107.082C112.232 106.961 111.983 106.897 111.73 106.897C111.477 106.897 111.228 106.961 111.006 107.082L109.498 107.927C109.076 107.927 109.076 108.59 109.498 108.771C109.72 108.893 109.969 108.956 110.222 108.956C110.475 108.956 110.724 108.893 110.946 108.771L112.454 107.927C112.635 107.685 112.635 107.323 112.635 107.082H112.454ZM108.653 109.254C108.431 109.132 108.182 109.069 107.929 109.069C107.676 109.069 107.427 109.132 107.205 109.254L105.697 110.159C105.275 110.159 105.275 110.762 105.697 111.003C105.919 111.125 106.168 111.188 106.421 111.188C106.674 111.188 106.923 111.125 107.145 111.003L108.653 110.098C109.076 109.857 109.076 109.495 108.653 109.254ZM104.853 111.426C104.387 111.244 103.87 111.244 103.405 111.426L101.897 112.331C101.474 112.331 101.474 112.934 101.897 113.175C102.118 113.297 102.367 113.36 102.62 113.36C102.873 113.36 103.122 113.297 103.344 113.175L104.853 112.331C104.945 112.296 105.025 112.235 105.081 112.154C105.137 112.073 105.167 111.977 105.167 111.878C105.167 111.78 105.137 111.683 105.081 111.603C105.025 111.522 104.945 111.46 104.853 111.426ZM100.992 113.718C100.77 113.597 100.521 113.533 100.268 113.533C100.015 113.533 99.7657 113.597 99.5437 113.718L98.0355 114.563C97.6132 114.563 97.6132 115.166 98.0355 115.407C98.2574 115.529 98.5064 115.592 98.7594 115.592C99.0124 115.592 99.2614 115.529 99.4834 115.407L100.992 114.563C101.414 114.623 101.414 113.899 100.992 113.718ZM151.668 88.3801L150.401 87.5958C150.135 87.4759 149.848 87.4138 149.556 87.4138C149.265 87.4138 148.977 87.4759 148.712 87.5958L147.384 88.3801C146.962 88.3801 146.962 89.0437 147.384 89.3453L148.712 90.0693C148.968 90.2175 149.26 90.2956 149.556 90.2956C149.853 90.2956 150.144 90.2175 150.401 90.0693L151.668 89.3453C152.15 89.0437 152.15 88.6214 151.668 88.3801ZM146.6 92.3014L147.927 91.5172C148.016 91.4715 148.09 91.4023 148.142 91.3171C148.194 91.232 148.222 91.1342 148.222 91.0345C148.222 90.9348 148.194 90.837 148.142 90.7519C148.09 90.6668 148.016 90.5976 147.927 90.5519L146.6 89.7676C146.338 89.6351 146.049 89.566 145.756 89.566C145.462 89.566 145.173 89.6351 144.911 89.7676L143.644 90.4916C143.161 90.7932 143.161 91.2155 143.644 91.4568L144.971 92.2411C145.224 92.3619 145.499 92.4296 145.779 92.44C146.06 92.4504 146.339 92.4032 146.6 92.3014ZM144.127 92.7237L142.799 91.9998C142.543 91.8515 142.251 91.7735 141.955 91.7735C141.658 91.7735 141.367 91.8515 141.11 91.9998L139.843 92.7237C139.361 93.0254 139.361 93.4477 139.843 93.689L141.11 94.4733C141.376 94.5932 141.664 94.6552 141.955 94.6552C142.246 94.6552 142.534 94.5932 142.799 94.4733L144.127 93.689C144.549 93.4477 144.549 93.0254 144.127 92.7237ZM140.326 94.9559L138.999 94.1716C138.744 94.0529 138.466 93.9914 138.184 93.9914C137.903 93.9914 137.625 94.0529 137.37 94.1716L136.043 94.9559C135.56 94.9559 135.56 95.6195 136.043 95.9212L137.31 96.6451C137.566 96.7934 137.858 96.8714 138.154 96.8714C138.451 96.8714 138.742 96.7934 138.999 96.6451L140.326 95.9212C140.748 95.6195 140.748 95.1972 140.326 94.9559ZM132.242 98.093L133.509 98.8169C133.766 98.9652 134.057 99.0432 134.353 99.0432C134.65 99.0432 134.941 98.9652 135.198 98.8169L136.525 98.093C137.008 97.7913 137.008 97.369 136.525 97.1277L135.198 96.5244C134.943 96.4057 134.665 96.3442 134.384 96.3442C134.102 96.3442 133.824 96.4057 133.569 96.5244L132.242 97.3087C132.18 97.3534 132.129 97.4123 132.094 97.4805C132.059 97.5487 132.041 97.6242 132.041 97.7009C132.041 97.7775 132.059 97.8531 132.094 97.9212C132.129 97.9894 132.18 98.0483 132.242 98.093ZM128.441 100.265L129.768 101.049C130.024 101.168 130.301 101.229 130.583 101.229C130.864 101.229 131.142 101.168 131.397 101.049L132.725 100.265C133.207 100.265 133.207 99.6012 132.725 99.2996L131.397 98.5756C131.152 98.4265 130.87 98.3476 130.583 98.3476C130.296 98.3476 130.014 98.4265 129.768 98.5756L128.441 99.2996C127.959 99.6012 127.959 100.024 128.441 100.265ZM124.701 102.557L126.028 103.281C126.283 103.4 126.561 103.461 126.842 103.461C127.124 103.461 127.402 103.4 127.657 103.281L128.924 102.557C129.406 102.557 129.406 101.894 128.924 101.592L127.657 100.868C127.391 100.748 127.104 100.686 126.812 100.686C126.521 100.686 126.233 100.748 125.968 100.868L124.64 101.652C124.158 101.773 124.158 102.195 124.701 102.557ZM120.9 104.729L122.227 105.453C122.473 105.602 122.755 105.681 123.042 105.681C123.329 105.681 123.611 105.602 123.856 105.453L125.183 104.729C125.666 104.428 125.666 104.005 125.183 103.764L123.917 102.98C123.651 102.86 123.363 102.798 123.072 102.798C122.781 102.798 122.493 102.86 122.227 102.98L120.9 103.764C120.822 103.808 120.756 103.871 120.708 103.947C120.66 104.024 120.632 104.11 120.626 104.2C120.62 104.29 120.637 104.38 120.674 104.461C120.711 104.543 120.768 104.615 120.84 104.669L120.9 104.729ZM117.099 106.901L118.427 107.685C118.692 107.805 118.98 107.867 119.271 107.867C119.562 107.867 119.85 107.805 120.116 107.685L121.383 106.901C121.511 106.901 121.633 106.85 121.724 106.76C121.814 106.669 121.865 106.546 121.865 106.418C121.865 106.29 121.814 106.168 121.724 106.077C121.633 105.987 121.511 105.936 121.383 105.936L120.116 105.212C119.859 105.064 119.568 104.985 119.271 104.985C118.975 104.985 118.683 105.064 118.427 105.212L117.099 105.936C116.617 106.177 116.617 106.599 117.039 106.841L117.099 106.901ZM113.299 109.133L114.626 109.857C114.891 109.977 115.179 110.039 115.47 110.039C115.762 110.039 116.05 109.977 116.315 109.857L117.582 109.073C118.065 109.073 118.065 108.409 117.582 108.108L116.255 107.384C115.989 107.264 115.701 107.202 115.41 107.202C115.119 107.202 114.831 107.264 114.566 107.384L113.238 108.168C112.635 108.59 112.635 108.59 113.238 109.073L113.299 109.133ZM113.842 110.34L112.635 109.495C112.37 109.375 112.082 109.313 111.79 109.313C111.499 109.313 111.211 109.375 110.946 109.495L109.679 110.279C109.196 110.279 109.196 110.943 109.679 111.245L110.946 111.969C111.203 112.117 111.494 112.195 111.79 112.195C112.087 112.195 112.378 112.117 112.635 111.969L113.962 111.245C114.204 110.943 114.204 110.521 113.781 110.279L113.842 110.34ZM105.758 113.477L107.024 114.261C107.29 114.381 107.578 114.443 107.869 114.443C108.16 114.443 108.448 114.381 108.714 114.261L110.041 113.477C110.13 113.431 110.204 113.362 110.256 113.277C110.308 113.192 110.335 113.094 110.335 112.994C110.335 112.894 110.308 112.797 110.256 112.712C110.204 112.626 110.13 112.557 110.041 112.512L108.714 111.788C108.457 111.639 108.166 111.561 107.869 111.561C107.573 111.561 107.281 111.639 107.024 111.788L105.758 112.512C105.215 112.753 105.215 113.175 105.697 113.416L105.758 113.477ZM100.207 116.674L101.474 117.459C101.74 117.578 102.028 117.64 102.319 117.64C102.61 117.64 102.898 117.578 103.163 117.459L106.18 115.709C106.268 115.663 106.343 115.594 106.395 115.509C106.447 115.424 106.474 115.326 106.474 115.226C106.474 115.127 106.447 115.029 106.395 114.944C106.343 114.859 106.268 114.789 106.18 114.744L104.853 114.02C104.596 113.872 104.305 113.793 104.008 113.793C103.712 113.793 103.42 113.872 103.163 114.02L100.207 115.709C99.6644 115.95 99.6644 116.373 100.147 116.614L100.207 116.674ZM155.227 90.4916L153.9 89.7676C153.643 89.6194 153.352 89.5413 153.055 89.5413C152.759 89.5413 152.468 89.6194 152.211 89.7676L149.255 91.5172C148.772 91.5172 148.772 92.1808 149.255 92.4824L150.522 93.2064C150.787 93.3263 151.075 93.3883 151.366 93.3883C151.657 93.3883 151.945 93.3263 152.211 93.2064L155.227 91.4568C155.649 91.0949 155.649 90.4916 155.227 90.4916ZM149.737 93.689L148.41 92.9047C148.155 92.786 147.877 92.7245 147.596 92.7245C147.314 92.7245 147.036 92.786 146.781 92.9047L145.454 93.689C144.971 93.689 144.971 94.3526 145.454 94.6542L146.721 95.3782C146.978 95.5265 147.269 95.6045 147.565 95.6045C147.862 95.6045 148.153 95.5265 148.41 95.3782L149.737 94.6542C150.22 94.2319 150.22 93.8096 149.737 93.5683V93.689ZM145.937 96.8261C146.065 96.8261 146.187 96.7752 146.278 96.6847C146.368 96.5942 146.419 96.4715 146.419 96.3435C146.419 96.2155 146.368 96.0927 146.278 96.0022C146.187 95.9117 146.065 95.8608 145.937 95.8608L144.609 95.1369C144.364 94.9877 144.082 94.9089 143.795 94.9089C143.508 94.9089 143.226 94.9877 142.98 95.1369L141.653 95.8608C141.171 96.1625 141.171 96.5848 141.653 96.8261L142.98 97.6104C143.236 97.7291 143.513 97.7906 143.795 97.7906C144.076 97.7906 144.354 97.7291 144.609 97.6104L145.937 96.8261ZM142.136 98.9979C142.618 98.9979 142.618 98.3343 142.136 98.0327L140.869 97.3087C140.612 97.1605 140.321 97.0824 140.024 97.0824C139.728 97.0824 139.436 97.1605 139.18 97.3087L137.852 98.0327C137.37 98.3343 137.37 98.7566 137.852 98.9979L139.18 99.7822C139.435 99.9009 139.713 99.9624 139.994 99.9624C140.276 99.9624 140.553 99.9009 140.809 99.7822L142.136 98.9979ZM135.379 99.4806L134.052 100.265C133.629 100.265 133.629 100.928 134.052 101.23L135.379 101.954C135.624 102.103 135.906 102.182 136.193 102.182C136.481 102.182 136.762 102.103 137.008 101.954L138.335 101.23C138.818 100.928 138.818 100.506 138.335 100.265L137.068 99.4806C136.811 99.3413 136.528 99.2586 136.237 99.2378C135.945 99.217 135.653 99.2586 135.379 99.3599V99.4806ZM131.639 101.652L130.191 102.497C129.768 102.497 129.768 103.1 130.191 103.342L131.639 104.186C131.873 104.303 132.131 104.364 132.393 104.364C132.654 104.364 132.913 104.303 133.147 104.186L134.655 103.342C135.077 103.342 135.077 102.738 134.655 102.497L133.147 101.652C132.922 101.516 132.669 101.435 132.407 101.414C132.145 101.393 131.882 101.433 131.639 101.532V101.652ZM127.898 103.824L126.39 104.669C126.298 104.703 126.218 104.765 126.162 104.846C126.105 104.927 126.075 105.023 126.075 105.121C126.075 105.22 126.105 105.316 126.162 105.397C126.218 105.478 126.298 105.539 126.39 105.574L127.838 106.418C128.072 106.535 128.33 106.596 128.592 106.596C128.854 106.596 129.112 106.535 129.346 106.418L130.854 105.513C131.277 105.513 131.277 104.91 130.854 104.669L129.406 103.824C129.182 103.688 128.928 103.607 128.667 103.586C128.405 103.565 128.142 103.605 127.898 103.704V103.824ZM124.098 105.996L122.589 106.841C122.497 106.875 122.417 106.937 122.361 107.018C122.305 107.098 122.275 107.195 122.275 107.293C122.275 107.392 122.305 107.488 122.361 107.569C122.417 107.65 122.497 107.711 122.589 107.746L124.037 108.59C124.271 108.707 124.53 108.768 124.791 108.768C125.053 108.768 125.311 108.707 125.545 108.59L127.054 107.746C127.146 107.711 127.226 107.65 127.282 107.569C127.338 107.488 127.368 107.392 127.368 107.293C127.368 107.195 127.338 107.098 127.282 107.018C127.226 106.937 127.146 106.875 127.054 106.841L125.606 105.996C125.381 105.86 125.128 105.778 124.866 105.757C124.604 105.736 124.341 105.777 124.098 105.875V105.996ZM120.297 108.228L118.789 109.073C118.366 109.073 118.366 109.676 118.789 109.917L120.297 110.762C120.531 110.879 120.789 110.94 121.051 110.94C121.313 110.94 121.571 110.879 121.805 110.762L123.253 109.917C123.675 109.917 123.675 109.314 123.253 109.073L121.805 108.228C121.58 108.092 121.327 108.011 121.065 107.99C120.803 107.969 120.54 108.009 120.297 108.108V108.228ZM116.496 110.4L114.988 111.245C114.912 111.286 114.85 111.348 114.806 111.422C114.762 111.496 114.739 111.581 114.739 111.667C114.739 111.753 114.762 111.838 114.806 111.912C114.85 111.986 114.912 112.048 114.988 112.089L116.496 112.934C116.73 113.051 116.988 113.112 117.25 113.112C117.512 113.112 117.77 113.051 118.004 112.934L119.452 112.089C119.874 112.089 119.874 111.486 119.452 111.245L118.004 110.4C117.78 110.264 117.526 110.182 117.264 110.161C117.003 110.14 116.74 110.181 116.496 110.279V110.4ZM114.204 115.166L115.651 114.321C115.744 114.287 115.823 114.225 115.88 114.145C115.936 114.064 115.966 113.967 115.966 113.869C115.966 113.77 115.936 113.674 115.88 113.593C115.823 113.513 115.744 113.451 115.651 113.416L114.204 112.572C113.969 112.455 113.711 112.394 113.449 112.394C113.188 112.394 112.93 112.455 112.695 112.572L111.247 113.416C111.155 113.451 111.075 113.513 111.019 113.593C110.963 113.674 110.933 113.77 110.933 113.869C110.933 113.967 110.963 114.064 111.019 114.145C111.075 114.225 111.155 114.287 111.247 114.321L112.695 115.166C112.939 115.265 113.202 115.305 113.464 115.284C113.726 115.263 113.979 115.181 114.204 115.045V115.166ZM110.403 117.338L111.851 116.493C112.273 116.493 112.273 115.83 111.851 115.649L110.403 114.623C110.165 114.518 109.908 114.464 109.649 114.464C109.389 114.464 109.132 114.518 108.895 114.623L107.447 115.468C107.024 115.468 107.024 116.071 107.447 116.312L108.895 117.157C109.124 117.283 109.38 117.354 109.642 117.365C109.903 117.375 110.164 117.325 110.403 117.217V117.338ZM103.525 118.725L105.034 119.57C105.268 119.687 105.526 119.748 105.788 119.748C106.049 119.748 106.308 119.687 106.542 119.57L107.99 118.725C108.412 118.725 108.412 118.122 107.99 117.881L106.602 116.916C106.368 116.799 106.11 116.738 105.848 116.738C105.586 116.738 105.328 116.799 105.094 116.916L103.646 117.76C103.163 118.001 103.163 118.363 103.525 118.605V118.725ZM158.787 92.6031L157.339 91.7585C157.104 91.6416 156.846 91.5808 156.585 91.5808C156.323 91.5808 156.065 91.6416 155.83 91.7585L151.064 94.4733C150.972 94.5075 150.892 94.5693 150.836 94.6502C150.78 94.731 150.75 94.8272 150.75 94.9257C150.75 95.0243 150.78 95.1204 150.836 95.2013C150.892 95.2822 150.972 95.3439 151.064 95.3782L152.512 96.2228C152.747 96.3396 153.005 96.4005 153.266 96.4005C153.528 96.4005 153.786 96.3396 154.021 96.2228L158.787 93.4477C159.209 93.0857 159.209 92.7237 158.787 92.4824V92.6031ZM151.728 96.5244L150.28 95.6798C150.046 95.563 149.788 95.5022 149.526 95.5022C149.264 95.5022 149.006 95.563 148.772 95.6798L147.264 96.5848C146.841 96.5848 146.841 97.1881 147.264 97.4294L148.712 98.274C148.946 98.3908 149.204 98.4516 149.466 98.4516C149.727 98.4516 149.986 98.3908 150.22 98.274L151.728 97.4294C151.82 97.3951 151.9 97.3334 151.956 97.2525C152.013 97.1716 152.043 97.0754 152.043 96.9769C152.043 96.8784 152.013 96.7822 151.956 96.7013C151.9 96.6205 151.82 96.5587 151.728 96.5244ZM147.927 98.7566L146.479 97.912C146.245 97.7952 145.987 97.7343 145.725 97.7343C145.464 97.7343 145.205 97.7952 144.971 97.912L143.463 98.7566C143.041 98.7566 143.041 99.3599 143.463 99.6012L144.971 100.446C145.205 100.563 145.464 100.623 145.725 100.623C145.987 100.623 146.245 100.563 146.479 100.446L147.927 99.6012C148.35 99.3599 148.35 98.9979 147.927 98.7566ZM144.127 100.928L142.799 100.084C142.565 99.967 142.307 99.9062 142.045 99.9062C141.784 99.9062 141.525 99.967 141.291 100.084L139.783 100.928C139.691 100.963 139.611 101.024 139.555 101.105C139.498 101.186 139.468 101.282 139.468 101.381C139.468 101.479 139.498 101.576 139.555 101.656C139.611 101.737 139.691 101.799 139.783 101.833L141.291 102.678C141.535 102.777 141.798 102.817 142.06 102.796C142.321 102.775 142.575 102.693 142.799 102.557L144.247 101.652C144.549 101.532 144.549 101.17 144.127 100.928ZM138.878 104.85L140.326 104.005C140.418 103.971 140.498 103.909 140.554 103.828C140.61 103.747 140.641 103.651 140.641 103.553C140.641 103.454 140.61 103.358 140.554 103.277C140.498 103.196 140.418 103.135 140.326 103.1L138.878 102.557C138.644 102.44 138.386 102.38 138.124 102.38C137.862 102.38 137.604 102.44 137.37 102.557L135.922 103.402C135.83 103.436 135.75 103.498 135.694 103.579C135.637 103.66 135.607 103.756 135.607 103.854C135.607 103.953 135.637 104.049 135.694 104.13C135.75 104.211 135.83 104.273 135.922 104.307L137.37 105.151C137.627 105.224 137.898 105.235 138.16 105.182C138.422 105.13 138.668 105.016 138.878 104.85ZM135.077 107.022L136.767 106.177C137.189 106.177 137.189 105.574 136.767 105.332L135.319 104.488C135.084 104.371 134.826 104.31 134.565 104.31C134.303 104.31 134.045 104.371 133.81 104.488L132.363 105.332C131.94 105.332 131.94 105.936 132.363 106.177L133.81 107.022C134.217 107.186 134.671 107.186 135.077 107.022ZM131.277 109.193L132.785 108.349C132.86 108.307 132.923 108.246 132.967 108.172C133.011 108.097 133.034 108.013 133.034 107.927C133.034 107.84 133.011 107.756 132.967 107.681C132.923 107.607 132.86 107.546 132.785 107.504L131.277 106.66C131.042 106.543 130.784 106.482 130.523 106.482C130.261 106.482 130.003 106.543 129.768 106.66L128.321 107.504C128.228 107.539 128.148 107.6 128.092 107.681C128.036 107.762 128.006 107.858 128.006 107.957C128.006 108.055 128.036 108.151 128.092 108.232C128.148 108.313 128.228 108.375 128.321 108.409L129.768 109.254C130.01 109.349 130.269 109.393 130.529 109.383C130.789 109.372 131.043 109.308 131.277 109.193ZM127.476 111.426L128.984 110.581C129.076 110.547 129.156 110.485 129.212 110.404C129.269 110.323 129.299 110.227 129.299 110.129C129.299 110.03 129.269 109.934 129.212 109.853C129.156 109.772 129.076 109.71 128.984 109.676L127.476 108.59C127.242 108.473 126.984 108.413 126.722 108.413C126.46 108.413 126.202 108.473 125.968 108.59L124.52 109.435C124.427 109.469 124.348 109.531 124.292 109.612C124.235 109.693 124.205 109.789 124.205 109.887C124.205 109.986 124.235 110.082 124.292 110.163C124.348 110.244 124.427 110.305 124.52 110.34L125.968 111.184C126.182 111.34 126.431 111.443 126.693 111.485C126.955 111.527 127.223 111.507 127.476 111.426ZM123.675 113.597L125.183 112.753C125.606 112.753 125.606 112.15 125.183 111.908L123.736 111.064C123.501 110.947 123.243 110.886 122.981 110.886C122.72 110.886 122.462 110.947 122.227 111.064L120.719 111.908C120.297 111.908 120.297 112.512 120.719 112.753L122.167 113.597C122.401 113.714 122.659 113.775 122.921 113.775C123.183 113.775 123.441 113.714 123.675 113.597ZM119.874 115.769L121.383 114.925C121.805 114.925 121.805 114.321 121.383 114.08L119.935 113.236C119.701 113.119 119.442 113.058 119.181 113.058C118.919 113.058 118.661 113.119 118.427 113.236L116.918 114.08C116.496 114.08 116.496 114.683 116.918 114.925L118.366 115.769C118.6 115.886 118.859 115.947 119.12 115.947C119.382 115.947 119.64 115.886 119.874 115.769ZM117.582 116.252L116.134 115.407C115.9 115.29 115.642 115.23 115.38 115.23C115.118 115.23 114.86 115.29 114.626 115.407L113.118 116.252C113.025 116.286 112.946 116.348 112.889 116.429C112.833 116.51 112.803 116.606 112.803 116.704C112.803 116.803 112.833 116.899 112.889 116.98C112.946 117.061 113.025 117.123 113.118 117.157L114.626 118.001C114.86 118.118 115.118 118.179 115.38 118.179C115.642 118.179 115.9 118.118 116.134 118.001L117.582 117.157C117.674 117.123 117.754 117.061 117.81 116.98C117.867 116.899 117.897 116.803 117.897 116.704C117.897 116.606 117.867 116.51 117.81 116.429C117.754 116.348 117.674 116.286 117.582 116.252ZM107.085 120.656L108.533 121.501C108.767 121.617 109.025 121.678 109.287 121.678C109.549 121.678 109.807 121.617 110.041 121.501L113.781 119.329C113.874 119.294 113.953 119.233 114.01 119.152C114.066 119.071 114.096 118.975 114.096 118.876C114.096 118.778 114.066 118.682 114.01 118.601C113.953 118.52 113.874 118.458 113.781 118.424L112.635 117.579C112.401 117.462 112.143 117.402 111.881 117.402C111.619 117.402 111.361 117.462 111.127 117.579L107.386 119.751C107.273 119.732 107.156 119.754 107.057 119.813C106.959 119.872 106.884 119.965 106.848 120.074C106.811 120.184 106.815 120.302 106.859 120.409C106.902 120.516 106.982 120.603 107.085 120.656ZM162.286 94.4733L160.898 93.7493C160.633 93.6294 160.345 93.5674 160.053 93.5674C159.762 93.5674 159.474 93.6294 159.209 93.7493L152.452 97.6707C151.969 97.6707 151.969 98.3343 152.452 98.636L153.719 99.3599C153.976 99.5082 154.267 99.5862 154.564 99.5862C154.86 99.5862 155.151 99.5082 155.408 99.3599L162.165 95.4385C162.768 95.1972 162.768 94.7749 162.286 94.4733ZM153.055 99.8425L151.788 99.1186C151.521 98.9707 151.22 98.8931 150.914 98.8931C150.608 98.8931 150.307 98.9707 150.039 99.1186L148.772 99.8425C148.644 99.8425 148.521 99.8934 148.431 99.9839C148.34 100.074 148.289 100.197 148.289 100.325C148.289 100.453 148.34 100.576 148.431 100.666C148.521 100.757 148.644 100.808 148.772 100.808L150.039 101.532C150.296 101.68 150.587 101.758 150.883 101.758C151.18 101.758 151.471 101.68 151.728 101.532L153.055 100.808C153.144 100.762 153.218 100.693 153.27 100.608C153.322 100.523 153.35 100.425 153.35 100.325C153.35 100.225 153.322 100.128 153.27 100.043C153.218 99.9574 153.144 99.8882 153.055 99.8425ZM149.255 102.014L147.988 101.29C147.722 101.17 147.434 101.108 147.143 101.108C146.852 101.108 146.564 101.17 146.298 101.29L144.971 102.014C144.549 102.316 144.489 102.738 144.971 103.04L146.238 103.764C146.515 103.882 146.812 103.942 147.113 103.942C147.414 103.942 147.711 103.882 147.988 103.764L149.255 102.98C149.737 102.557 149.737 102.557 149.255 102.014ZM145.454 104.186L144.187 103.462C143.922 103.342 143.634 103.28 143.342 103.28C143.051 103.28 142.763 103.342 142.498 103.462L141.171 104.247C140.748 104.247 140.748 104.91 141.171 105.212L142.437 105.936C142.705 106.084 143.006 106.161 143.312 106.161C143.618 106.161 143.919 106.084 144.187 105.936L145.454 105.212C145.937 104.91 145.937 104.488 145.454 104.186ZM141.653 106.418L140.386 105.694C140.129 105.546 139.838 105.468 139.542 105.468C139.245 105.468 138.954 105.546 138.697 105.694L137.43 106.418C137.302 106.418 137.179 106.469 137.089 106.56C136.998 106.65 136.948 106.773 136.948 106.901C136.948 107.029 136.998 107.152 137.089 107.242C137.179 107.333 137.302 107.384 137.43 107.384L138.697 108.108C138.954 108.256 139.245 108.334 139.542 108.334C139.838 108.334 140.129 108.256 140.386 108.108L141.653 107.384C141.781 107.384 141.904 107.333 141.994 107.242C142.085 107.152 142.136 107.029 142.136 106.901C142.136 106.773 142.085 106.65 141.994 106.56C141.904 106.469 141.781 106.418 141.653 106.418ZM137.852 108.59L136.767 107.866C136.51 107.718 136.218 107.64 135.922 107.64C135.625 107.64 135.334 107.718 135.077 107.866L133.81 108.59C133.328 108.892 133.328 109.314 133.81 109.616L135.077 110.34C135.343 110.46 135.631 110.522 135.922 110.522C136.213 110.522 136.501 110.46 136.767 110.34L138.033 109.555C138.335 109.314 138.335 108.892 137.852 108.59ZM134.052 110.762L132.785 110.038C132.519 109.918 132.232 109.856 131.94 109.856C131.649 109.856 131.361 109.918 131.096 110.038L129.829 110.762C129.346 111.064 129.346 111.486 129.829 111.788L131.096 112.512C131.361 112.632 131.649 112.694 131.94 112.694C132.232 112.694 132.519 112.632 132.785 112.512L134.052 111.788C134.534 111.486 134.534 111.064 134.052 110.762ZM130.251 112.994L128.984 112.27C128.727 112.122 128.436 112.044 128.14 112.044C127.843 112.044 127.552 112.122 127.295 112.27L126.028 112.994C125.9 112.994 125.777 113.045 125.687 113.136C125.596 113.226 125.545 113.349 125.545 113.477C125.545 113.605 125.596 113.728 125.687 113.818C125.777 113.909 125.9 113.959 126.028 113.959L127.295 114.683C127.552 114.832 127.843 114.91 128.14 114.91C128.436 114.91 128.727 114.832 128.984 114.683L130.251 113.959C130.734 113.658 130.734 113.236 130.251 112.994ZM126.511 115.166L125.244 114.623C124.976 114.475 124.675 114.398 124.369 114.398C124.063 114.398 123.762 114.475 123.494 114.623L122.227 115.347C121.745 115.649 121.745 116.071 122.227 116.312L123.494 117.097C123.76 117.216 124.048 117.279 124.339 117.279C124.63 117.279 124.918 117.216 125.183 117.097L126.45 116.312C126.602 116.32 126.751 116.268 126.864 116.166C126.978 116.064 127.046 115.921 127.054 115.769C127.062 115.617 127.009 115.468 126.907 115.355C126.805 115.242 126.663 115.174 126.511 115.166ZM122.71 117.338L121.443 116.614C121.166 116.496 120.869 116.435 120.568 116.435C120.268 116.435 119.97 116.496 119.694 116.614L118.427 117.338C117.944 117.64 117.944 118.062 118.427 118.363L119.694 119.087C119.959 119.207 120.247 119.269 120.538 119.269C120.829 119.269 121.117 119.207 121.383 119.087L122.71 118.363C122.797 118.309 122.869 118.234 122.919 118.144C122.969 118.054 122.995 117.953 122.995 117.851C122.995 117.748 122.969 117.647 122.919 117.557C122.869 117.467 122.797 117.392 122.71 117.338ZM118.909 119.57L117.642 118.786C117.366 118.668 117.068 118.607 116.768 118.607C116.467 118.607 116.169 118.668 115.893 118.786L114.626 119.57C114.498 119.57 114.375 119.621 114.285 119.711C114.194 119.802 114.143 119.925 114.143 120.053C114.143 120.181 114.194 120.303 114.285 120.394C114.375 120.484 114.498 120.535 114.626 120.535L115.893 121.259C116.161 121.407 116.462 121.485 116.768 121.485C117.074 121.485 117.374 121.407 117.642 121.259L118.668 120.656C119.392 120.234 119.392 119.811 118.668 119.57H118.909ZM110.765 122.767L112.032 123.491C112.289 123.64 112.58 123.718 112.876 123.718C113.173 123.718 113.464 123.64 113.721 123.491L114.988 122.767C115.47 122.466 115.47 122.044 114.988 121.802L113.661 121.078C113.404 120.93 113.113 120.852 112.816 120.852C112.52 120.852 112.228 120.93 111.971 121.078L110.705 121.802C110.577 121.81 110.457 121.869 110.372 121.965C110.287 122.061 110.244 122.187 110.252 122.315C110.26 122.443 110.319 122.563 110.415 122.647C110.511 122.732 110.637 122.775 110.765 122.767ZM159.872 98.636L161.139 99.4202C161.401 99.5527 161.691 99.6218 161.984 99.6218C162.277 99.6218 162.567 99.5527 162.829 99.4202L165.785 97.731C165.873 97.6853 165.948 97.6161 166 97.531C166.051 97.4459 166.079 97.3481 166.079 97.2484C166.079 97.1487 166.051 97.0509 166 96.9658C165.948 96.8806 165.873 96.8114 165.785 96.7658L164.518 96.0418C164.25 95.8939 163.949 95.8164 163.643 95.8164C163.337 95.8164 163.036 95.8939 162.768 96.0418L159.812 97.731C159.39 97.7914 159.39 98.2136 159.872 98.455V98.636ZM156.072 100.868L157.339 101.592C157.604 101.712 157.892 101.774 158.183 101.774C158.475 101.774 158.762 101.712 159.028 101.592L160.355 100.868C160.777 100.566 160.838 100.144 160.355 99.8425L159.088 99.1186C158.812 99.0008 158.514 98.94 158.213 98.94C157.913 98.94 157.615 99.0008 157.339 99.1186L156.072 99.8425C155.589 99.9632 155.589 100.385 156.072 100.687V100.868ZM152.271 103.04L153.538 103.764C153.806 103.912 154.107 103.989 154.413 103.989C154.719 103.989 155.02 103.912 155.287 103.764L156.554 103.04C157.037 102.738 157.037 102.316 156.554 102.075L155.287 101.29C155.022 101.17 154.734 101.108 154.443 101.108C154.152 101.108 153.864 101.17 153.598 101.29L152.271 102.075C151.849 102.135 151.849 102.557 152.271 102.859V103.04ZM125.726 118.363L126.993 119.087C127.25 119.236 127.541 119.314 127.838 119.314C128.134 119.314 128.426 119.236 128.682 119.087L152.814 105.212C152.942 105.212 153.065 105.161 153.155 105.07C153.246 104.98 153.297 104.857 153.297 104.729C153.297 104.601 153.246 104.478 153.155 104.388C153.065 104.297 152.942 104.247 152.814 104.247L151.547 103.523C151.29 103.374 150.999 103.296 150.702 103.296C150.406 103.296 150.115 103.374 149.858 103.523L125.726 117.398C125.664 117.443 125.613 117.502 125.578 117.57C125.543 117.638 125.525 117.714 125.525 117.79C125.525 117.867 125.543 117.943 125.578 118.011C125.613 118.079 125.664 118.138 125.726 118.182V118.363ZM121.926 120.535L123.193 121.32C123.465 121.453 123.764 121.522 124.067 121.522C124.371 121.522 124.67 121.453 124.942 121.32L126.209 120.596C126.337 120.596 126.46 120.545 126.55 120.454C126.641 120.364 126.692 120.241 126.692 120.113C126.692 119.985 126.641 119.862 126.55 119.772C126.46 119.681 126.337 119.63 126.209 119.63L124.701 118.665C124.444 118.517 124.153 118.439 123.856 118.439C123.56 118.439 123.268 118.517 123.012 118.665L121.684 119.389C121.503 119.691 121.443 120.113 121.926 120.656V120.535ZM118.125 122.767L119.392 123.491C119.668 123.609 119.966 123.67 120.267 123.67C120.567 123.67 120.865 123.609 121.141 123.491L122.408 122.767C122.891 122.466 122.891 122.044 122.408 121.742L121.141 120.656C120.876 120.536 120.588 120.474 120.297 120.474C120.006 120.474 119.718 120.536 119.452 120.656L118.125 121.38C117.965 121.38 117.812 121.443 117.698 121.557C117.585 121.67 117.522 121.823 117.522 121.983C117.522 122.143 117.585 122.297 117.698 122.41C117.812 122.523 117.965 122.586 118.125 122.586V122.767ZM114.264 125L115.531 125.724C115.807 125.841 116.105 125.902 116.406 125.902C116.706 125.902 117.004 125.841 117.28 125.724L118.547 125C119.03 124.698 119.03 124.276 118.547 123.974L117.28 123.25C117.004 123.132 116.706 123.072 116.406 123.072C116.105 123.072 115.807 123.132 115.531 123.25L114.264 123.974C113.781 124.095 113.781 124.517 114.264 124.819V125Z" fill="url(#paint19_linear)"/>
<path d="M85.3035 113.598L144.546 79.3916C145.83 78.5026 146.887 77.324 147.631 75.9511C148.375 74.5782 148.786 73.0495 148.83 71.4885V25.0354C148.83 21.9586 146.96 20.5711 144.667 21.8983L85.3035 56.1047C84.0497 57.0098 83.0255 58.1962 82.313 59.5687C81.6006 60.9411 81.2198 62.4615 81.2012 64.0078V110.461C81.2012 113.538 83.011 114.925 85.3035 113.598Z" fill="url(#paint20_linear)"/>
<path d="M84.8172 111.247L143.396 77.4025C144.356 76.7256 145.129 75.8183 145.646 74.764C146.162 73.7098 146.405 72.5425 146.353 71.3696V24.7958C146.359 24.6657 146.331 24.5361 146.27 24.4208C146.209 24.3056 146.118 24.2088 146.007 24.1409C145.896 24.0729 145.768 24.0362 145.638 24.0347C145.508 24.0332 145.379 24.0669 145.267 24.1322L86.5065 58.0973C85.46 58.6881 84.6138 59.578 84.0764 60.6528C83.5389 61.7277 83.3348 62.9385 83.49 64.1302V110.704C83.4964 110.843 83.5371 110.979 83.6085 111.098C83.6799 111.218 83.7797 111.318 83.8992 111.39C84.0186 111.461 84.1539 111.502 84.2931 111.509C84.4322 111.516 84.5708 111.488 84.6966 111.428L84.8172 111.247Z" fill="url(#paint21_linear)"/>
<g style="mix-blend-mode:multiply">
<path d="M83.4979 64.0091V110.583C83.5043 110.722 83.545 110.858 83.6163 110.977C83.6877 111.097 83.7876 111.197 83.907 111.268C84.0265 111.34 84.1618 111.381 84.3009 111.388C84.44 111.395 84.5787 111.367 84.7044 111.307L143.284 77.4625C144.243 76.7856 145.016 75.8782 145.533 74.824C146.05 73.7697 146.293 72.6024 146.24 71.4296V24.7954C146.237 24.6812 146.207 24.5693 146.152 24.4689C146.098 24.3685 146.02 24.2824 145.926 24.2177C145.832 24.153 145.724 24.1115 145.611 24.0965C145.497 24.0816 145.382 24.0937 145.275 24.1318L86.5143 58.0969C85.4885 58.6796 84.6561 59.5501 84.12 60.6009C83.5838 61.6517 83.3675 62.8367 83.4979 64.0091ZM83.9805 64.0091C83.9081 62.9293 84.1275 61.8498 84.6158 60.8839C85.104 59.918 85.8431 59.1012 86.7556 58.5192L145.516 24.5541C145.596 24.5541 145.673 24.5859 145.729 24.6425C145.786 24.699 145.817 24.7758 145.817 24.8558V71.5502C145.848 72.624 145.611 73.6884 145.126 74.647C144.641 75.6057 143.925 76.4282 143.042 77.0402L84.3425 110.945C84.2573 110.931 84.18 110.886 84.1247 110.82C84.0694 110.753 84.0396 110.669 84.0408 110.583L83.9805 64.0091Z" fill="#BCBEC0"/>
</g>
<path d="M84.1561 55.4417L143.399 21.2353C143.747 20.9951 144.145 20.8376 144.564 20.7748C144.982 20.7121 145.409 20.7458 145.812 20.8733L147.139 21.5973C146.745 21.3696 146.298 21.2497 145.842 21.2497C145.387 21.2497 144.94 21.3696 144.545 21.5973L85.3024 56.1053C84.0486 57.0104 83.0243 58.1968 82.3119 59.5693C81.5995 60.9418 81.2187 62.4621 81.2 64.0084V110.462C81.2 112.392 81.924 113.659 83.0099 114.021H82.6479L81.2604 113.237C80.8078 112.832 80.4573 112.325 80.2371 111.759C80.017 111.193 79.9335 110.583 79.9935 109.979V63.5258C80.0002 61.9454 80.3809 60.3891 81.1044 58.9841C81.8279 57.579 82.8736 56.3652 84.1561 55.4417Z" fill="url(#paint22_linear)"/>
<path style="mix-blend-mode:screen" d="M85.1275 55.985L144.37 21.7785C144.753 21.5826 145.177 21.4805 145.607 21.4805C146.037 21.4805 146.461 21.5826 146.844 21.7785C146.151 21.6681 145.442 21.8186 144.853 22.2008L85.6102 56.1659C84.3457 57.0607 83.3136 58.2449 82.6 59.6197C81.8864 60.9945 81.5119 62.52 81.5078 64.069V110.522C81.4141 111.2 81.5179 111.891 81.8068 112.512C82.0957 113.132 82.5574 113.656 83.1367 114.021C81.8698 114.021 80.9648 112.453 80.9648 110.402V63.9484C80.9905 62.3885 81.3802 60.8562 82.1029 59.4736C82.8256 58.091 83.8613 56.8964 85.1275 55.985Z" fill="url(#paint23_radial)"/>
<path style="mix-blend-mode:color-dodge" d="M80.1761 63.6462C81.6843 64.3098 83.6752 62.9222 84.6404 60.6298C85.6057 58.3373 85.0627 55.9844 83.5545 55.3812C82.0463 54.7779 80.0555 56.1051 79.1505 58.3976C78.2456 60.6901 78.6679 63.0429 80.1761 63.6462Z" fill="url(#paint24_radial)"/>
<g style="mix-blend-mode:color-dodge">
<path style="mix-blend-mode:color-dodge" d="M113.725 53.6941L107.994 57.0122V55.323L113.725 52.0049V53.6941Z" fill="url(#paint25_linear)"/>
<path style="mix-blend-mode:color-dodge" d="M111.375 67.6887L117.106 64.3706V66.0598L111.375 69.3779V67.6887Z" fill="url(#paint26_linear)"/>
<path style="mix-blend-mode:color-dodge" d="M111.67 58.5817V56.8925L118.065 53.2124V54.9619L111.67 58.5817Z" fill="url(#paint27_linear)"/>
<path style="mix-blend-mode:color-dodge" d="M118.369 59.9668V61.656L115.111 63.5865V61.837L118.369 59.9668Z" fill="url(#paint28_linear)"/>
<path style="mix-blend-mode:color-dodge" d="M123.312 62.5015V60.8123L128.621 57.7959V59.5454L123.312 62.5015Z" fill="url(#paint29_linear)"/>
<path style="mix-blend-mode:color-dodge" d="M108.902 65.4564L113.427 62.8623V64.5515L108.902 67.1456V65.4564Z" fill="url(#paint30_linear)"/>
<path style="mix-blend-mode:color-dodge" d="M115.41 58.2168V59.9663L112.695 61.4746V59.7853L115.41 58.2168Z" fill="url(#paint31_linear)"/>
<path style="mix-blend-mode:color-dodge" d="M106.311 56.2876V57.9768L104.803 58.8214V57.1322L106.311 56.2876Z" fill="url(#paint32_linear)"/>
<path style="mix-blend-mode:color-dodge" d="M117.104 59.0021V57.2526L122.593 54.1758V55.865L117.104 59.0021Z" fill="url(#paint33_linear)"/>
<path style="mix-blend-mode:color-dodge" d="M109.928 57.8545V59.5437L101.844 64.189V62.4998L109.928 57.8545Z" fill="url(#paint34_linear)"/>
<path style="mix-blend-mode:color-dodge" d="M120.062 60.6918V59.0026L126.94 55.1416V56.8911L120.062 60.6918Z" fill="url(#paint35_linear)"/>
<path style="mix-blend-mode:color-dodge" d="M125.314 45.3677V47.0569L119.885 50.194V48.4444L125.314 45.3677Z" fill="url(#paint36_linear)"/>
<path style="mix-blend-mode:color-dodge" d="M115.479 51.0397L118.193 49.4712V51.1604L115.479 52.7289V51.0397Z" fill="url(#paint37_linear)"/>
<path style="mix-blend-mode:color-dodge" d="M118.787 63.4077L121.623 61.7788V63.468L118.787 65.0969V63.4077Z" fill="url(#paint38_linear)"/>
<path style="mix-blend-mode:color-dodge" d="M103.348 70.3435L95.9883 74.6268V72.9376L103.348 68.6543V70.3435Z" fill="url(#paint39_linear)"/>
<path style="mix-blend-mode:color-dodge" d="M130.312 56.8312L132.907 55.3833V57.0725L130.312 58.5807V56.8312Z" fill="url(#paint40_linear)"/>
<path style="mix-blend-mode:color-dodge" d="M138.278 38.189V39.9385L126.695 46.5143V44.8251L138.278 38.189Z" fill="url(#paint41_linear)"/>
<path style="mix-blend-mode:color-dodge" d="M101.66 67.8098L98.9453 69.3784V67.6892L101.66 66.1206V67.8098Z" fill="url(#paint42_linear)"/>
<path style="mix-blend-mode:color-dodge" d="M100.151 65.1555L87.4219 72.4553V70.7661L100.151 63.4663V65.1555Z" fill="url(#paint43_linear)"/>
<path style="mix-blend-mode:color-dodge" d="M111.015 62.4421L103.354 66.8461V65.0966L111.015 60.7529V62.4421Z" fill="url(#paint44_linear)"/>
<path style="mix-blend-mode:color-dodge" d="M103.107 58.0962V59.7854L97.0137 63.2845V61.5953L103.107 58.0962Z" fill="url(#paint45_linear)"/>
<path style="mix-blend-mode:color-dodge" d="M128.686 54.1746L132.909 51.8218V53.511L128.686 55.9241V54.1746Z" fill="url(#paint46_linear)"/>
<path style="mix-blend-mode:color-dodge" d="M105.037 67.689L107.149 66.4824V68.1716L105.037 69.3782V67.689Z" fill="url(#paint47_linear)"/>
<path style="mix-blend-mode:color-dodge" d="M124.279 53.1503L132.906 48.2637V49.9529L124.279 54.8998V53.1503Z" fill="url(#paint48_linear)"/>
<path style="mix-blend-mode:color-dodge" d="M109.747 73.7232L102.869 77.6445V75.9553L109.747 71.9736V73.7232Z" fill="url(#paint49_linear)"/>
<path style="mix-blend-mode:color-dodge" d="M119.754 52.2462L132.906 44.7051V46.4546L119.754 53.9957V52.2462Z" fill="url(#paint50_linear)"/>
</g>
<g style="mix-blend-mode:color-dodge">
<path style="mix-blend-mode:color-dodge" d="M111.375 81.7458L117.106 78.4277V80.1773L111.375 83.435V81.7458Z" fill="url(#paint51_linear)"/>
<path style="mix-blend-mode:color-dodge" d="M111.67 72.6371V70.9479L118.065 67.3281V69.0173L111.67 72.6371Z" fill="url(#paint52_linear)"/>
<path style="mix-blend-mode:color-dodge" d="M118.367 74.0825V75.7717L115.109 77.6419V75.9527L118.367 74.0825Z" fill="url(#paint53_linear)"/>
<path style="mix-blend-mode:color-dodge" d="M123.311 76.6173V74.8677L128.619 71.9116V73.6008L123.311 76.6173Z" fill="url(#paint54_linear)"/>
<path style="mix-blend-mode:color-dodge" d="M108.9 79.5739L113.425 76.9194V78.6086L108.9 81.2631V79.5739Z" fill="url(#paint55_linear)"/>
<path style="mix-blend-mode:color-dodge" d="M115.41 72.3359V74.0251L112.695 75.5937V73.8442L115.41 72.3359Z" fill="url(#paint56_linear)"/>
<path style="mix-blend-mode:color-dodge" d="M117.102 73.0587V71.3695L122.591 68.2324V69.9216L117.102 73.0587Z" fill="url(#paint57_linear)"/>
<path style="mix-blend-mode:color-dodge" d="M120.059 74.8076V73.1184L126.936 69.2573V70.9465L120.059 74.8076Z" fill="url(#paint58_linear)"/>
<path style="mix-blend-mode:color-dodge" d="M118.787 77.4614L121.623 75.8325V77.5821L118.787 79.1506V77.4614Z" fill="url(#paint59_linear)"/>
<path style="mix-blend-mode:color-dodge" d="M103.346 84.4605L95.9863 88.7438V86.9943L103.346 82.7109V84.4605Z" fill="url(#paint60_linear)"/>
<path style="mix-blend-mode:color-dodge" d="M130.311 70.9457L132.905 69.4375V71.1267L130.311 72.6349V70.9457Z" fill="url(#paint61_linear)"/>
<path style="mix-blend-mode:color-dodge" d="M101.66 81.8665L98.9453 83.4953V81.7458L101.66 80.1772V81.8665Z" fill="url(#paint62_linear)"/>
<path style="mix-blend-mode:color-dodge" d="M111.011 76.5572L103.35 80.9008V79.2116L111.011 74.8076V76.5572Z" fill="url(#paint63_linear)"/>
<path style="mix-blend-mode:color-dodge" d="M128.686 68.2921L132.909 65.8789V67.6284L128.686 69.9813V68.2921Z" fill="url(#paint64_linear)"/>
<path style="mix-blend-mode:color-dodge" d="M105.037 81.7461L107.149 80.5396V82.2288L105.037 83.4957V81.7461Z" fill="url(#paint65_linear)"/>
<path style="mix-blend-mode:color-dodge" d="M124.277 67.266L132.904 62.3794V64.0686L124.277 68.9552V67.266Z" fill="url(#paint66_linear)"/>
<path style="mix-blend-mode:color-dodge" d="M119.332 80.5986V82.2878L116.617 83.7961V82.1069L119.332 80.5986Z" fill="url(#paint67_linear)"/>
<path style="mix-blend-mode:color-dodge" d="M121.025 81.3243V79.6351L126.515 76.498V78.1873L121.025 81.3243Z" fill="url(#paint68_linear)"/>
<path style="mix-blend-mode:color-dodge" d="M105.582 90.1326L102.867 91.7011V90.0119L105.582 88.4434V90.1326Z" fill="url(#paint69_linear)"/>
<path style="mix-blend-mode:color-dodge" d="M114.923 84.8228L107.262 89.1664V87.4772L114.923 83.0732V84.8228Z" fill="url(#paint70_linear)"/>
<path style="mix-blend-mode:color-dodge" d="M128.201 75.5329L136.828 70.5859V72.3355L128.201 77.2221V75.5329Z" fill="url(#paint71_linear)"/>
<path style="mix-blend-mode:color-dodge" d="M119.752 66.3619L132.904 58.8208V60.51L119.752 68.0511V66.3619Z" fill="url(#paint72_linear)"/>
</g>
<path d="M215.674 220.562C216.357 223.018 216.461 225.6 215.976 228.103C214.813 229.528 213.199 230.513 211.4 230.897C209.601 231.281 207.726 231.04 206.082 230.214C202.161 228.284 200.472 224.181 199.024 223.216C193.258 221.721 187.79 219.252 182.856 215.916C176.823 210.607 177.486 204.755 183.7 204.635C191.228 204.851 198.618 206.704 205.358 210.064C209.174 213.172 212.633 216.693 215.674 220.562Z" fill="#10054D"/>
<path d="M212.661 226.295C207.88 226.323 203.282 224.458 199.872 221.107C197.217 218.875 192.512 220.021 186.479 215.074C180.446 210.127 178.334 206.99 181.049 205.422C188.096 203.839 195.481 204.958 201.742 208.559C209.585 212.782 214.833 215.798 214.833 215.798C214.833 215.798 216.703 221.831 215.738 222.917C214.773 224.003 215.195 225.752 212.661 226.295Z" fill="url(#paint73_linear)"/>
<path d="M212.72 128.078C214.834 138.766 215.221 149.724 213.866 160.535C211.634 178.634 215.133 179.478 215.917 192.389C216.701 205.299 221.166 221.105 214.65 224.363C211.808 225.272 208.751 225.254 205.92 224.311C203.089 223.367 200.632 221.547 198.904 219.114C197.118 217.442 195.689 215.426 194.704 213.186C193.719 210.946 193.198 208.53 193.173 206.083C194.471 200.566 194.305 194.805 192.69 189.372C189.667 174.503 187.651 159.447 186.658 144.307C186.612 139.931 187.782 135.629 190.036 131.879L212.72 128.078Z" fill="url(#paint74_linear)"/>
<path d="M182.316 239.445C182.316 239.445 184.669 246.323 181.833 247.831C180.172 248.729 178.337 249.258 176.452 249.383C174.568 249.508 172.679 249.225 170.914 248.555C167.294 246.987 165.786 245.358 161.985 245.358C154.07 243.4 146.705 239.666 140.448 234.438C137.552 230.879 140.448 226.716 147.566 227.259C154.685 227.802 164.821 228.647 166.63 229.25C168.44 229.853 182.316 239.445 182.316 239.445Z" fill="#10054D"/>
<path d="M179.004 244.512C173.912 244.8 168.815 244.019 164.042 242.22C158.01 240.953 140.394 233.834 140.695 230.154C140.997 226.474 145.039 227.077 148.417 227.379C151.796 227.681 162.655 228.465 163.5 228.465C164.344 228.465 181.96 236.368 181.96 236.368C181.96 236.368 183.227 242.401 181.96 243.004C180.693 243.607 180.995 244.331 179.004 244.512Z" fill="url(#paint75_linear)"/>
<path d="M199.33 141.351C194.79 145.029 191.062 149.609 188.383 154.801C185.704 159.993 184.131 165.685 183.765 171.516C183.765 190.278 185.816 238.843 182.981 241.557C180.412 243.046 177.516 243.879 174.55 243.984C171.583 244.089 168.636 243.463 165.968 242.161C163.452 240.631 161.294 238.579 159.639 236.144C157.984 233.709 156.871 230.946 156.376 228.044C157.039 225.631 162.107 217.064 160.357 209.402C156.12 192.369 153.933 174.891 153.842 157.338C153.883 154.484 154.521 151.67 155.715 149.077C156.909 146.484 158.633 144.17 160.775 142.283C162.917 140.397 165.431 138.979 168.154 138.123C170.877 137.266 173.749 136.989 176.586 137.309C184.242 138.193 191.838 139.543 199.33 141.351Z" fill="url(#paint76_linear)"/>
<path d="M229.917 290C232.036 289.997 234.117 289.435 235.95 288.371L284.937 259.957C285.99 259.342 286.862 258.46 287.466 257.401C288.069 256.342 288.383 255.143 288.376 253.924C288.397 252.688 288.076 251.47 287.448 250.405C286.82 249.34 285.909 248.47 284.816 247.891L237.157 221.226V194.862C237.157 194.174 236.883 193.514 236.397 193.028C235.91 192.541 235.251 192.268 234.563 192.268C233.875 192.268 233.215 192.541 232.728 193.028C232.242 193.514 231.968 194.174 231.968 194.862V222.794C231.975 223.258 232.101 223.712 232.333 224.113C232.566 224.515 232.897 224.85 233.296 225.087L282.343 252.476C282.611 252.623 282.832 252.842 282.982 253.109C283.131 253.375 283.203 253.679 283.188 253.984C283.198 254.281 283.124 254.574 282.975 254.83C282.825 255.087 282.606 255.295 282.343 255.432L233.296 283.847C232.245 284.468 231.047 284.795 229.827 284.795C228.606 284.795 227.408 284.468 226.358 283.847L184.128 259.052V187.743C184.128 187.402 184.061 187.065 183.93 186.75C183.8 186.436 183.609 186.15 183.368 185.909C183.127 185.668 182.841 185.477 182.526 185.346C182.212 185.216 181.874 185.149 181.534 185.149C181.193 185.149 180.856 185.216 180.541 185.346C180.226 185.477 179.94 185.668 179.699 185.909C179.458 186.15 179.267 186.436 179.137 186.75C179.007 187.065 178.939 187.402 178.939 187.743V260.56C178.945 261.009 179.064 261.449 179.285 261.839C179.507 262.23 179.824 262.557 180.206 262.792L223.884 288.311C225.704 289.412 227.79 289.996 229.917 290Z" fill="url(#paint77_linear)"/>
<path opacity="0.3" d="M230.339 287.828C232.16 287.826 233.949 287.347 235.527 286.44L284.514 258.025C285.304 257.57 285.959 256.915 286.415 256.126C286.871 255.337 287.111 254.442 287.111 253.531C287.111 252.62 286.871 251.725 286.415 250.936C285.959 250.147 285.304 249.492 284.514 249.036L236.251 221.828V194.439C236.287 194.305 236.291 194.165 236.264 194.029C236.236 193.893 236.178 193.765 236.094 193.655C236.009 193.545 235.901 193.456 235.776 193.395C235.652 193.334 235.515 193.302 235.377 193.302C235.238 193.302 235.101 193.334 234.977 193.395C234.853 193.456 234.744 193.545 234.659 193.655C234.575 193.765 234.517 193.893 234.489 194.029C234.462 194.165 234.466 194.305 234.502 194.439V222.371C234.503 222.518 234.543 222.662 234.617 222.789C234.691 222.916 234.797 223.022 234.924 223.095L283.971 250.545C284.505 250.831 284.95 251.258 285.259 251.779C285.567 252.3 285.727 252.895 285.721 253.501C285.719 254.106 285.563 254.7 285.267 255.228C284.972 255.756 284.546 256.199 284.032 256.517L235.045 284.932C233.714 285.668 232.222 286.062 230.701 286.078C229.151 286.079 227.63 285.662 226.297 284.872L182.74 259.413V187.018C182.724 186.789 182.622 186.574 182.454 186.417C182.286 186.26 182.065 186.173 181.835 186.174C181.611 186.174 181.396 186.263 181.238 186.421C181.079 186.58 180.99 186.794 180.99 187.018V260.137C180.997 260.283 181.039 260.425 181.113 260.551C181.186 260.677 181.289 260.783 181.413 260.861L225.091 286.38C226.672 287.341 228.489 287.842 230.339 287.828Z" fill="white"/>
<path d="M233.234 215.976V221.285L174.354 187.26V181.77L233.234 215.976Z" fill="url(#paint78_linear)"/>
<path d="M233.234 215.978V221.287L290.909 187.805V182.315L233.234 215.978Z" fill="url(#paint79_linear)"/>
<path d="M233.234 212.78V218.089L174.354 184.003V178.574L233.234 212.78Z" fill="url(#paint80_linear)"/>
<path d="M233.234 212.78V218.089L290.909 184.546V179.116L233.234 212.78Z" fill="url(#paint81_linear)"/>
<path d="M290.909 179.117L233.234 212.78L174.354 178.574L232.088 144.91L290.909 179.117Z" fill="url(#paint82_linear)"/>
<path d="M195.103 94.9579C190.957 96.1144 186.678 96.7229 182.374 96.7677C179.056 97.19 175.677 97.3107 175.557 95.5612C175.557 92.2431 189.432 90.7349 189.432 90.7349L195.103 94.9579Z" fill="url(#paint83_radial)"/>
<path d="M204.086 81.6261C198.525 79.381 192.822 77.5067 187.013 76.0156C183.106 75.0609 178.98 75.644 175.49 77.6444C172.776 78.851 170.905 79.9972 171.147 81.6261C171.147 82.2897 172.836 81.6261 172.836 81.6261C172.836 81.6261 169.639 83.1947 169.759 85.1252C169.88 87.0557 171.81 85.4872 171.81 85.4872C171.81 85.4872 168.372 87.2367 168.553 89.1672C168.734 91.0977 170.845 89.1672 170.845 89.1672C170.845 89.1672 167.889 90.7358 167.829 92.3647C167.768 93.9935 168.794 93.9332 170.905 93.3299C175.102 91.8555 179.584 91.3804 183.997 91.9423C189.004 93.0886 191.779 96.3463 196.063 94.8985C199.045 94.0931 202.203 94.2194 205.112 95.2604L204.086 81.6261Z" fill="url(#paint84_radial)"/>
<path d="M201.19 78.4266C200.105 79.2106 199.241 80.2609 198.681 81.4762C198.121 82.6915 197.884 84.0307 197.992 85.3644C198.8 89.5976 200.287 93.6722 202.396 97.4302H248.608C248.608 97.4302 281.005 99.8433 275.274 86.39C269.542 72.9367 268.637 69.8599 252.349 73.721C240.718 76.8482 228.738 78.4901 216.694 78.6076C209.937 78.7886 201.19 78.4266 201.19 78.4266Z" fill="url(#paint85_linear)"/>
<g style="mix-blend-mode:multiply">
<path d="M199.805 91.9403C201.373 95.4997 202.399 97.4302 202.399 97.4302H248.611C248.611 97.4302 275.94 100.99 275.276 86.5107C261.483 90.1624 247.31 92.1872 233.046 92.5436C215.189 92.4833 204.45 92.1213 199.805 91.9403Z" fill="#D1D3D4"/>
</g>
<path d="M259.901 142.197C255.195 140.266 229.012 126.089 221.109 128.381C209.044 131.941 184.912 155.288 184.912 155.288C184.912 155.288 246.689 199.569 268.829 183.401C290.97 167.233 259.901 142.197 259.901 142.197Z" fill="url(#paint86_linear)"/>
<path d="M235.402 154.865C230.636 152.875 203.367 141.352 195.162 142.015C176.219 143.463 164.998 168.862 164.998 168.862C164.998 168.862 220.742 209.161 244.451 196.01C272.263 180.626 235.402 154.865 235.402 154.865Z" fill="url(#paint87_linear)"/>
<path d="M220.619 32.9402C216.215 36.0773 211.992 40.7226 213.561 52.7883C215.129 64.8541 215.974 70.887 218.628 71.8522C221.283 72.8175 222.851 71.1886 223.817 74.5067C224.492 77.4535 224.796 80.4733 224.722 83.4957L250.06 73.5414C248.577 70.9476 248.064 67.9117 248.612 64.9748C249.637 60.3898 255.911 50.7975 248.25 39.2747C245.233 35.001 240.745 31.9911 235.646 30.8222C230.547 29.6532 225.196 30.4074 220.619 32.9402Z" fill="url(#paint88_radial)"/>
<path d="M212.119 44.7641C212.119 47.0566 214.351 50.797 217.669 50.3144C218.35 50.3048 219.026 50.4359 219.654 50.6995C220.282 50.963 220.848 51.3534 221.318 51.8461C221.788 52.3388 222.152 52.9232 222.385 53.5628C222.619 54.2024 222.718 54.8833 222.677 55.563C222.194 57.4935 222.677 57.9158 222.677 57.9158C222.677 57.9158 224.969 56.5886 226.357 58.3381C227.744 60.0876 226.9 64.371 226.357 66.0602C225.814 67.7494 232.028 71.7311 236.552 71.3691C241.077 71.0071 246.989 69.6799 248.618 67.0858C250.963 63.7365 252.467 59.8718 253.003 55.8184C253.538 51.765 253.09 47.6422 251.695 43.7989C249.85 38.4698 246.004 34.0675 240.971 31.523C235.938 28.9784 230.113 28.4913 224.728 30.1646C221.371 30.9883 218.353 32.8363 216.094 35.4524C213.835 38.0685 212.445 41.3229 212.119 44.7641Z" fill="url(#paint89_linear)"/>
<g style="mix-blend-mode:multiply">
<path d="M252.051 44.7637C248.861 48.0869 244.873 50.5378 240.468 51.8825C234.629 53.7526 228.453 54.3291 222.369 53.5717C222.663 54.1914 222.767 54.8837 222.671 55.5625C222.188 57.493 222.671 57.9153 222.671 57.9153C222.671 57.9153 224.963 56.5881 226.351 58.3376C227.738 60.0872 226.894 64.3705 226.351 66.0597C225.808 67.7489 232.022 71.7306 236.546 71.3687C241.071 71.0067 246.983 69.6795 248.612 67.0853C250.881 63.888 252.373 60.2058 252.97 56.331C253.567 52.4562 253.252 48.4956 252.051 44.7637Z" fill="#D1D3D4"/>
</g>
<path d="M241.918 78.4264C245.366 76.4681 248.549 74.0756 251.389 71.3076H261.162C264.534 71.4917 267.744 72.8158 270.265 75.0627C272.786 77.3097 274.469 80.3463 275.038 83.675C276.563 95.1145 277.329 106.642 277.331 118.183C279.864 162.344 288.009 164.757 274.616 171.936C261.223 179.115 241.737 183.579 230.515 174.168C219.294 164.757 221.044 163.852 218.45 143.28C215.856 122.708 208.495 113.598 215.494 101.713C219.884 93.0623 226.78 85.9353 235.281 81.2619C237.551 80.4578 239.768 79.5108 241.918 78.4264Z" fill="url(#paint90_linear)"/>
<path d="M219.474 90.1324C220.56 84.0996 225.507 83.0136 229.307 81.6261C235.292 79.6325 241.07 77.0667 246.561 73.9643C247.38 73.4109 248.05 72.6649 248.513 71.7918C248.976 70.9187 249.217 69.9452 249.216 68.957L251.81 71.2495C251.81 71.2495 252.655 76.9808 244.812 80.7815C236.969 84.5822 227.618 86.2111 223.275 91.158C221.967 92.8326 220.491 94.369 218.871 95.743C218.871 95.743 218.388 96.105 219.474 90.1324Z" fill="url(#paint91_linear)"/>
<g style="mix-blend-mode:multiply">
<path d="M234.734 107.869C226.409 98.8797 217.902 108.412 211.93 116.315C214.645 125.193 216.86 134.216 218.566 143.342C221.1 163.914 219.35 164.759 230.632 174.23C233.04 176.445 235.923 178.08 239.059 179.01C242.196 179.941 245.504 180.142 248.73 179.6C247.524 175.497 245.352 119.633 234.734 107.869Z" fill="#D1D3D4"/>
</g>
<path d="M145.457 119.693C142.6 116.783 139.902 113.721 137.373 110.523C135.382 107.808 133.089 105.334 131.822 106.42C129.228 108.592 137.855 119.753 137.855 119.753L145.457 119.693Z" fill="url(#paint92_radial)"/>
<path d="M147.568 134.595C141.505 134.46 135.458 133.916 129.469 132.966C125.515 132.309 121.969 130.147 119.575 126.933C117.524 124.761 116.257 122.951 117.162 121.624C118.067 120.297 118.55 122.469 118.55 122.469C118.55 122.469 116.257 119.814 117.162 118.065C118.067 116.315 119.153 118.547 119.153 118.547C119.153 118.547 116.679 115.591 117.645 113.902C118.61 112.213 119.816 114.566 119.816 114.566C119.816 114.566 117.765 111.972 118.308 110.463C118.851 108.955 119.816 109.377 121.506 110.825C124.807 113.824 128.747 116.031 133.028 117.281C138.036 118.246 141.897 116.315 145.094 119.211C147.525 121.11 150.464 122.244 153.54 122.469L147.568 134.595Z" fill="url(#paint93_radial)"/>
<path d="M232.212 101.956C233.873 103.02 235.285 104.431 236.35 106.092C237.415 107.752 238.109 109.623 238.384 111.577C238.659 113.531 238.508 115.521 237.943 117.411C237.378 119.301 236.411 121.046 235.108 122.528C229.799 129.285 200.54 146.298 191.189 147.625C181.838 148.952 142.322 137.55 142.322 137.55C142.06 133.639 142.262 129.71 142.926 125.846C143.08 124.633 143.536 123.478 144.253 122.487C144.97 121.496 145.924 120.701 147.028 120.175C147.028 120.175 174.598 127.294 182.863 125.906C191.128 124.519 203.556 113.841 211.64 107.808C219.724 101.775 225.214 97.6123 232.212 101.956Z" fill="url(#paint94_linear)"/>
<path d="M233.299 155.95L239.332 132.603L243.675 135.137L237.642 158.363C234.803 169.709 233.345 181.357 233.299 193.052V212.901L228.955 210.548V190.277C229.015 178.702 230.474 167.176 233.299 155.95Z" fill="url(#paint95_linear)"/>
<path d="M243.197 135.137L300.931 101.293L294.898 124.761C292.127 136.034 290.729 147.6 290.736 159.209V179.117L233.303 212.781V193.053C233.314 181.402 234.732 169.796 237.526 158.485L243.197 135.137Z" fill="url(#paint96_linear)"/>
<path d="M300.932 101.292L243.137 135.076L238.854 132.602L296.709 98.8184L300.932 101.292Z" fill="url(#paint97_linear)"/>
<defs>
<linearGradient id="paint0_linear" x1="15.3867" y1="184.847" x2="3.62261" y2="184.847" gradientUnits="userSpaceOnUse">
<stop stop-color="#8A92B3"/>
<stop offset="0.06" stop-color="#8E95B6"/>
<stop offset="0.13" stop-color="#9C9EBE"/>
<stop offset="0.2" stop-color="#B1ACCB"/>
<stop offset="0.25" stop-color="#C7BAD8"/>
<stop offset="0.33" stop-color="#B2AACC"/>
<stop offset="0.45" stop-color="#9A97BE"/>
<stop offset="0.56" stop-color="#8B8CB6"/>
<stop offset="0.65" stop-color="#8688B3"/>
<stop offset="0.85" stop-color="#AAABCB"/>
<stop offset="1" stop-color="#9396B3"/>
</linearGradient>
<linearGradient id="paint1_linear" x1="46946.4" y1="4036.45" x2="46969.8" y2="4036.45" gradientUnits="userSpaceOnUse">
<stop stop-color="#8A92B3"/>
<stop offset="0.06" stop-color="#8E95B6"/>
<stop offset="0.13" stop-color="#9C9EBE"/>
<stop offset="0.2" stop-color="#B1ACCB"/>
<stop offset="0.25" stop-color="#C7BAD8"/>
<stop offset="0.33" stop-color="#B2AACC"/>
<stop offset="0.45" stop-color="#9A97BE"/>
<stop offset="0.56" stop-color="#8B8CB6"/>
<stop offset="0.65" stop-color="#8688B3"/>
<stop offset="0.85" stop-color="#AAABCB"/>
<stop offset="1" stop-color="#9396B3"/>
</linearGradient>
<linearGradient id="paint2_linear" x1="10.9224" y1="135.319" x2="6.7597" y2="152.512" gradientUnits="userSpaceOnUse">
<stop stop-color="#4C4C4C"/>
<stop offset="1" stop-color="white"/>
</linearGradient>
<linearGradient id="paint3_linear" x1="46958.1" y1="3060.94" x2="46958.1" y2="3413.29" gradientUnits="userSpaceOnUse">
<stop stop-color="#4C4C4C"/>
<stop offset="1" stop-color="white"/>
</linearGradient>
<linearGradient id="paint4_linear" x1="46778.4" y1="2302.26" x2="46801.9" y2="2302.26" gradientUnits="userSpaceOnUse">
<stop stop-color="#8A92B3"/>
<stop offset="0.06" stop-color="#8E95B6"/>
<stop offset="0.13" stop-color="#9C9EBE"/>
<stop offset="0.2" stop-color="#B1ACCB"/>
<stop offset="0.25" stop-color="#C7BAD8"/>
<stop offset="0.33" stop-color="#B2AACC"/>
<stop offset="0.45" stop-color="#9A97BE"/>
<stop offset="0.56" stop-color="#8B8CB6"/>
<stop offset="0.65" stop-color="#8688B3"/>
<stop offset="0.85" stop-color="#AAABCB"/>
<stop offset="1" stop-color="#9396B3"/>
</linearGradient>
<linearGradient id="paint5_linear" x1="138.567" y1="193.897" x2="124.993" y2="40.7225" gradientUnits="userSpaceOnUse">
<stop stop-color="#45108A"/>
<stop offset="1" stop-color="#7C1DC9"/>
</linearGradient>
<linearGradient id="paint6_linear" x1="1.01351e+06" y1="441.943" x2="1.01291e+06" y2="4208.1" gradientUnits="userSpaceOnUse">
<stop stop-color="#45108A"/>
<stop offset="1" stop-color="#7C1DC9"/>
</linearGradient>
<radialGradient id="paint7_radial" cx="0" cy="0" r="1" gradientUnits="userSpaceOnUse" gradientTransform="translate(130.971 128.319) scale(99.1202)">
<stop stop-color="white"/>
<stop offset="1"/>
</radialGradient>
<radialGradient id="paint8_radial" cx="0" cy="0" r="1" gradientUnits="userSpaceOnUse" gradientTransform="translate(47.0364 175.19) rotate(180) scale(6.71339 10.4574)">
<stop stop-color="#972A74"/>
<stop offset="0.04" stop-color="#8A266A"/>
<stop offset="0.19" stop-color="#601B4A"/>
<stop offset="0.35" stop-color="#3D112F"/>
<stop offset="0.51" stop-color="#230A1B"/>
<stop offset="0.67" stop-color="#0F040C"/>
<stop offset="0.83" stop-color="#040103"/>
<stop offset="1"/>
</radialGradient>
<linearGradient id="paint9_linear" x1="18581" y1="691.773" x2="18602.6" y2="690.806" gradientUnits="userSpaceOnUse">
<stop stop-color="#45108A"/>
<stop offset="1" stop-color="#7C1DC9"/>
</linearGradient>
<linearGradient id="paint10_linear" x1="645234" y1="1506.13" x2="645461" y2="-735.739" gradientUnits="userSpaceOnUse">
<stop stop-color="#45108A"/>
<stop offset="1" stop-color="#7C1DC9"/>
</linearGradient>
<linearGradient id="paint11_linear" x1="664162" y1="443.763" x2="664017" y2="922.552" gradientUnits="userSpaceOnUse">
<stop stop-color="#45108A"/>
<stop offset="1" stop-color="#7C1DC9"/>
</linearGradient>
<radialGradient id="paint12_radial" cx="0" cy="0" r="1" gradientUnits="userSpaceOnUse" gradientTransform="translate(19978.5 625.346) rotate(180) scale(3.06772 100.212)">
<stop stop-color="white"/>
<stop offset="1"/>
</radialGradient>
<linearGradient id="paint13_linear" x1="190.091" y1="112.331" x2="69.7953" y2="112.331" gradientUnits="userSpaceOnUse">
<stop offset="0.06" stop-color="#200041"/>
<stop offset="0.26" stop-color="#210243"/>
<stop offset="0.36" stop-color="#25084B"/>
<stop offset="0.43" stop-color="#2C1358"/>
<stop offset="0.47" stop-color="#311B61"/>
<stop offset="0.48" stop-color="#351F65"/>
<stop offset="0.5" stop-color="#422C73"/>
<stop offset="0.51" stop-color="#584188"/>
<stop offset="0.52" stop-color="#765FA7"/>
<stop offset="0.53" stop-color="#8770B8"/>
<stop offset="0.54" stop-color="#7E67AE"/>
<stop offset="0.56" stop-color="#5C468D"/>
<stop offset="0.59" stop-color="#442E75"/>
<stop offset="0.61" stop-color="#362066"/>
<stop offset="0.63" stop-color="#311B61"/>
<stop offset="0.67" stop-color="#2A1155"/>
<stop offset="0.75" stop-color="#230446"/>
<stop offset="0.81" stop-color="#200041"/>
<stop offset="1" stop-color="#200041"/>
</linearGradient>
<linearGradient id="paint14_linear" x1="192.513" y1="109.377" x2="82.7149" y2="109.377" gradientUnits="userSpaceOnUse">
<stop stop-color="#311B61"/>
<stop offset="0.2" stop-color="#290F52"/>
<stop offset="0.49" stop-color="#200041"/>
<stop offset="1" stop-color="#0F001F"/>
</linearGradient>
<linearGradient id="paint15_linear" x1="191.305" y1="109.376" x2="83.9805" y2="109.376" gradientUnits="userSpaceOnUse">
<stop stop-color="#3D065F"/>
<stop offset="1" stop-color="#5F27BD"/>
</linearGradient>
<radialGradient id="paint16_radial" cx="0" cy="0" r="1" gradientUnits="userSpaceOnUse" gradientTransform="translate(-402913 889.561) rotate(180) scale(751.179 267.098)">
<stop stop-color="white"/>
<stop offset="1"/>
</radialGradient>
<radialGradient id="paint17_radial" cx="0" cy="0" r="1" gradientUnits="userSpaceOnUse" gradientTransform="translate(-104050 -36309.3) rotate(-160.844) scale(75.6532 29.8087)">
<stop stop-color="#972A74"/>
<stop offset="0.04" stop-color="#8A266A"/>
<stop offset="0.19" stop-color="#601B4A"/>
<stop offset="0.35" stop-color="#3D112F"/>
<stop offset="0.51" stop-color="#230A1B"/>
<stop offset="0.67" stop-color="#0F040C"/>
<stop offset="0.83" stop-color="#040103"/>
<stop offset="1"/>
</radialGradient>
<linearGradient id="paint18_linear" x1="130.104" y1="108.679" x2="128.62" y2="72.1979" gradientUnits="userSpaceOnUse">
<stop stop-color="#3D065F"/>
<stop offset="1" stop-color="#10054D"/>
</linearGradient>
<linearGradient id="paint19_linear" x1="145.876" y1="84.0967" x2="117.884" y2="128.137" gradientUnits="userSpaceOnUse">
<stop offset="0.06" stop-color="#9F79B8"/>
<stop offset="0.25" stop-color="#A17BBA"/>
<stop offset="0.35" stop-color="#A883C0"/>
<stop offset="0.42" stop-color="#B490CC"/>
<stop offset="0.48" stop-color="#C5A3DC"/>
<stop offset="0.54" stop-color="#DBBBF0"/>
<stop offset="0.56" stop-color="#E6C6FA"/>
<stop offset="0.6" stop-color="#D6B6F1"/>
<stop offset="0.69" stop-color="#B595DD"/>
<stop offset="0.77" stop-color="#9D7DCF"/>
<stop offset="0.85" stop-color="#8E6EC6"/>
<stop offset="0.92" stop-color="#8969C3"/>
</linearGradient>
<linearGradient id="paint20_linear" x1="64215.5" y1="103.903" x2="62612.4" y2="1119.03" gradientUnits="userSpaceOnUse">
<stop stop-color="#311B61"/>
<stop offset="0.2" stop-color="#290F52"/>
<stop offset="0.49" stop-color="#200041"/>
<stop offset="1" stop-color="#0F001F"/>
</linearGradient>
<linearGradient id="paint21_linear" x1="87.894" y1="109.618" x2="142.431" y2="25.0975" gradientUnits="userSpaceOnUse">
<stop offset="0.03" stop-color="#7C1DC9"/>
<stop offset="0.21" stop-color="#6E41D2"/>
<stop offset="0.62" stop-color="#4C9BE8"/>
<stop offset="1" stop-color="#2AF6FF"/>
</linearGradient>
<linearGradient id="paint22_linear" x1="-297967" y1="1817.27" x2="-297011" y2="717.784" gradientUnits="userSpaceOnUse">
<stop offset="0.06" stop-color="#200041"/>
<stop offset="0.26" stop-color="#210243"/>
<stop offset="0.36" stop-color="#25084B"/>
<stop offset="0.43" stop-color="#2C1358"/>
<stop offset="0.47" stop-color="#311B61"/>
<stop offset="0.48" stop-color="#351F65"/>
<stop offset="0.5" stop-color="#422C73"/>
<stop offset="0.51" stop-color="#584188"/>
<stop offset="0.52" stop-color="#765FA7"/>
<stop offset="0.53" stop-color="#8770B8"/>
<stop offset="0.54" stop-color="#7E67AE"/>
<stop offset="0.56" stop-color="#5C468D"/>
<stop offset="0.59" stop-color="#442E75"/>
<stop offset="0.61" stop-color="#362066"/>
<stop offset="0.63" stop-color="#311B61"/>
<stop offset="0.67" stop-color="#2A1155"/>
<stop offset="0.75" stop-color="#230446"/>
<stop offset="0.81" stop-color="#200041"/>
<stop offset="1" stop-color="#200041"/>
</linearGradient>
<radialGradient id="paint23_radial" cx="0" cy="0" r="1" gradientUnits="userSpaceOnUse" gradientTransform="translate(-291526 957.993) rotate(180) scale(104.089 146.214)">
<stop stop-color="white"/>
<stop offset="1"/>
</radialGradient>
<radialGradient id="paint24_radial" cx="0" cy="0" r="1" gradientUnits="userSpaceOnUse" gradientTransform="translate(3184.31 2085.33) rotate(112.443) scale(4.74772 4.18398)">
<stop stop-color="#972A74"/>
<stop offset="0.04" stop-color="#8A266A"/>
<stop offset="0.19" stop-color="#601B4A"/>
<stop offset="0.35" stop-color="#3D112F"/>
<stop offset="0.51" stop-color="#230A1B"/>
<stop offset="0.67" stop-color="#0F040C"/>
<stop offset="0.83" stop-color="#040103"/>
<stop offset="1"/>
</radialGradient>
<linearGradient id="paint25_linear" x1="113.786" y1="54.4784" x2="107.994" y2="54.4784" gradientUnits="userSpaceOnUse">
<stop stop-color="#2AF6FF"/>
<stop offset="1" stop-color="#428BCC"/>
</linearGradient>
<linearGradient id="paint26_linear" x1="22348.3" y1="119.851" x2="22353.8" y2="119.851" gradientUnits="userSpaceOnUse">
<stop stop-color="#2AF6FF"/>
<stop offset="1" stop-color="#428BCC"/>
</linearGradient>
<linearGradient id="paint27_linear" x1="24922.4" y1="102.985" x2="24929.2" y2="102.985" gradientUnits="userSpaceOnUse">
<stop stop-color="#2AF6FF"/>
<stop offset="1" stop-color="#428BCC"/>
</linearGradient>
<linearGradient id="paint28_linear" x1="12754.4" y1="97.0328" x2="12756.2" y2="97.0328" gradientUnits="userSpaceOnUse">
<stop stop-color="#2AF6FF"/>
<stop offset="1" stop-color="#428BCC"/>
</linearGradient>
<linearGradient id="paint29_linear" x1="20711.6" y1="104.711" x2="20716.3" y2="104.711" gradientUnits="userSpaceOnUse">
<stop stop-color="#2AF6FF"/>
<stop offset="1" stop-color="#428BCC"/>
</linearGradient>
<linearGradient id="paint30_linear" x1="17667.2" y1="109.037" x2="17670.5" y2="109.037" gradientUnits="userSpaceOnUse">
<stop stop-color="#2AF6FF"/>
<stop offset="1" stop-color="#428BCC"/>
</linearGradient>
<linearGradient id="paint31_linear" x1="10646.7" y1="90.5337" x2="10647.9" y2="90.5337" gradientUnits="userSpaceOnUse">
<stop stop-color="#2AF6FF"/>
<stop offset="1" stop-color="#428BCC"/>
</linearGradient>
<linearGradient id="paint32_linear" x1="5959.33" y1="80.4601" x2="5959.71" y2="80.4601" gradientUnits="userSpaceOnUse">
<stop stop-color="#2AF6FF"/>
<stop offset="1" stop-color="#428BCC"/>
</linearGradient>
<linearGradient id="paint33_linear" x1="21412.8" y1="99.4465" x2="21417.8" y2="99.4465" gradientUnits="userSpaceOnUse">
<stop stop-color="#2AF6FF"/>
<stop offset="1" stop-color="#428BCC"/>
</linearGradient>
<linearGradient id="paint34_linear" x1="31477.2" y1="121.897" x2="31488.1" y2="121.897" gradientUnits="userSpaceOnUse">
<stop stop-color="#2AF6FF"/>
<stop offset="1" stop-color="#428BCC"/>
</linearGradient>
<linearGradient id="paint35_linear" x1="26793.2" y1="108.424" x2="26801.1" y2="108.424" gradientUnits="userSpaceOnUse">
<stop stop-color="#2AF6FF"/>
<stop offset="1" stop-color="#428BCC"/>
</linearGradient>
<linearGradient id="paint36_linear" x1="21179.1" y1="83.592" x2="21183.9" y2="83.592" gradientUnits="userSpaceOnUse">
<stop stop-color="#2AF6FF"/>
<stop offset="1" stop-color="#428BCC"/>
</linearGradient>
<linearGradient id="paint37_linear" x1="10648.3" y1="77.0644" x2="10649.5" y2="77.0644" gradientUnits="userSpaceOnUse">
<stop stop-color="#2AF6FF"/>
<stop offset="1" stop-color="#428BCC"/>
</linearGradient>
<linearGradient id="paint38_linear" x1="11118.1" y1="96.6851" x2="11119.4" y2="96.6851" gradientUnits="userSpaceOnUse">
<stop stop-color="#2AF6FF"/>
<stop offset="1" stop-color="#428BCC"/>
</linearGradient>
<linearGradient id="paint39_linear" x1="28669.6" y1="139.608" x2="28678.6" y2="139.608" gradientUnits="userSpaceOnUse">
<stop stop-color="#2AF6FF"/>
<stop offset="1" stop-color="#428BCC"/>
</linearGradient>
<linearGradient id="paint40_linear" x1="10188.7" y1="85.567" x2="10189.8" y2="85.567" gradientUnits="userSpaceOnUse">
<stop stop-color="#2AF6FF"/>
<stop offset="1" stop-color="#428BCC"/>
</linearGradient>
<linearGradient id="paint41_linear" x1="45028.1" y1="96.6331" x2="45050.3" y2="96.6331" gradientUnits="userSpaceOnUse">
<stop stop-color="#2AF6FF"/>
<stop offset="1" stop-color="#428BCC"/>
</linearGradient>
<linearGradient id="paint42_linear" x1="10639.2" y1="102.705" x2="10640.4" y2="102.705" gradientUnits="userSpaceOnUse">
<stop stop-color="#2AF6FF"/>
<stop offset="1" stop-color="#428BCC"/>
</linearGradient>
<linearGradient id="paint43_linear" x1="49512.7" y1="164.772" x2="49539.4" y2="164.772" gradientUnits="userSpaceOnUse">
<stop stop-color="#2AF6FF"/>
<stop offset="1" stop-color="#428BCC"/>
</linearGradient>
<linearGradient id="paint44_linear" x1="29838.4" y1="125.158" x2="29848.1" y2="125.158" gradientUnits="userSpaceOnUse">
<stop stop-color="#2AF6FF"/>
<stop offset="1" stop-color="#428BCC"/>
</linearGradient>
<linearGradient id="paint45_linear" x1="23752.6" y1="110.29" x2="23758.7" y2="110.29" gradientUnits="userSpaceOnUse">
<stop stop-color="#2AF6FF"/>
<stop offset="1" stop-color="#428BCC"/>
</linearGradient>
<linearGradient id="paint46_linear" x1="16502.8" y1="88.4558" x2="16505.7" y2="88.4558" gradientUnits="userSpaceOnUse">
<stop stop-color="#2AF6FF"/>
<stop offset="1" stop-color="#428BCC"/>
</linearGradient>
<linearGradient id="paint47_linear" x1="8301.07" y1="99.0889" x2="8301.83" y2="99.0889" gradientUnits="userSpaceOnUse">
<stop stop-color="#2AF6FF"/>
<stop offset="1" stop-color="#428BCC"/>
</linearGradient>
<linearGradient id="paint48_linear" x1="33574.2" y1="105.003" x2="33586.4" y2="105.003" gradientUnits="userSpaceOnUse">
<stop stop-color="#2AF6FF"/>
<stop offset="1" stop-color="#428BCC"/>
</linearGradient>
<linearGradient id="paint49_linear" x1="26795.6" y1="142.293" x2="26803.5" y2="142.293" gradientUnits="userSpaceOnUse">
<stop stop-color="#2AF6FF"/>
<stop offset="1" stop-color="#428BCC"/>
</linearGradient>
<linearGradient id="paint50_linear" x1="51113.3" y1="120.702" x2="51141.9" y2="120.702" gradientUnits="userSpaceOnUse">
<stop stop-color="#2AF6FF"/>
<stop offset="1" stop-color="#428BCC"/>
</linearGradient>
<linearGradient id="paint51_linear" x1="22348.3" y1="145.626" x2="22353.8" y2="145.626" gradientUnits="userSpaceOnUse">
<stop stop-color="#2AF6FF"/>
<stop offset="1" stop-color="#428BCC"/>
</linearGradient>
<linearGradient id="paint52_linear" x1="24922.4" y1="128.912" x2="24929.2" y2="128.912" gradientUnits="userSpaceOnUse">
<stop stop-color="#2AF6FF"/>
<stop offset="1" stop-color="#428BCC"/>
</linearGradient>
<linearGradient id="paint53_linear" x1="12754.4" y1="118.824" x2="12756.2" y2="118.824" gradientUnits="userSpaceOnUse">
<stop stop-color="#2AF6FF"/>
<stop offset="1" stop-color="#428BCC"/>
</linearGradient>
<linearGradient id="paint54_linear" x1="20711.6" y1="129.838" x2="20716.3" y2="129.838" gradientUnits="userSpaceOnUse">
<stop stop-color="#2AF6FF"/>
<stop offset="1" stop-color="#428BCC"/>
</linearGradient>
<linearGradient id="paint55_linear" x1="17667.2" y1="133.865" x2="17670.5" y2="133.865" gradientUnits="userSpaceOnUse">
<stop stop-color="#2AF6FF"/>
<stop offset="1" stop-color="#428BCC"/>
</linearGradient>
<linearGradient id="paint56_linear" x1="10646.7" y1="112.276" x2="10647.9" y2="112.276" gradientUnits="userSpaceOnUse">
<stop stop-color="#2AF6FF"/>
<stop offset="1" stop-color="#428BCC"/>
</linearGradient>
<linearGradient id="paint57_linear" x1="21412.8" y1="124.748" x2="21417.8" y2="124.748" gradientUnits="userSpaceOnUse">
<stop stop-color="#2AF6FF"/>
<stop offset="1" stop-color="#428BCC"/>
</linearGradient>
<linearGradient id="paint58_linear" x1="26793.2" y1="135.527" x2="26801.1" y2="135.527" gradientUnits="userSpaceOnUse">
<stop stop-color="#2AF6FF"/>
<stop offset="1" stop-color="#428BCC"/>
</linearGradient>
<linearGradient id="paint59_linear" x1="11118.1" y1="118.47" x2="11119.4" y2="118.47" gradientUnits="userSpaceOnUse">
<stop stop-color="#2AF6FF"/>
<stop offset="1" stop-color="#428BCC"/>
</linearGradient>
<linearGradient id="paint60_linear" x1="28669.6" y1="168.438" x2="28678.6" y2="168.438" gradientUnits="userSpaceOnUse">
<stop stop-color="#2AF6FF"/>
<stop offset="1" stop-color="#428BCC"/>
</linearGradient>
<linearGradient id="paint61_linear" x1="10188.7" y1="107.103" x2="10189.8" y2="107.103" gradientUnits="userSpaceOnUse">
<stop stop-color="#2AF6FF"/>
<stop offset="1" stop-color="#428BCC"/>
</linearGradient>
<linearGradient id="paint62_linear" x1="10639.2" y1="125.17" x2="10640.4" y2="125.17" gradientUnits="userSpaceOnUse">
<stop stop-color="#2AF6FF"/>
<stop offset="1" stop-color="#428BCC"/>
</linearGradient>
<linearGradient id="paint63_linear" x1="29838.4" y1="153.471" x2="29848.1" y2="153.471" gradientUnits="userSpaceOnUse">
<stop stop-color="#2AF6FF"/>
<stop offset="1" stop-color="#428BCC"/>
</linearGradient>
<linearGradient id="paint64_linear" x1="16502.8" y1="112.071" x2="16505.7" y2="112.071" gradientUnits="userSpaceOnUse">
<stop stop-color="#2AF6FF"/>
<stop offset="1" stop-color="#428BCC"/>
</linearGradient>
<linearGradient id="paint65_linear" x1="8301.07" y1="120.713" x2="8301.83" y2="120.713" gradientUnits="userSpaceOnUse">
<stop stop-color="#2AF6FF"/>
<stop offset="1" stop-color="#428BCC"/>
</linearGradient>
<linearGradient id="paint66_linear" x1="33574.2" y1="133.925" x2="33586.4" y2="133.925" gradientUnits="userSpaceOnUse">
<stop stop-color="#2AF6FF"/>
<stop offset="1" stop-color="#428BCC"/>
</linearGradient>
<linearGradient id="paint67_linear" x1="10648.9" y1="124.18" x2="10650.1" y2="124.18" gradientUnits="userSpaceOnUse">
<stop stop-color="#2AF6FF"/>
<stop offset="1" stop-color="#428BCC"/>
</linearGradient>
<linearGradient id="paint68_linear" x1="21413.1" y1="139.626" x2="21418.1" y2="139.626" gradientUnits="userSpaceOnUse">
<stop stop-color="#2AF6FF"/>
<stop offset="1" stop-color="#428BCC"/>
</linearGradient>
<linearGradient id="paint69_linear" x1="10641.4" y1="137.082" x2="10642.6" y2="137.082" gradientUnits="userSpaceOnUse">
<stop stop-color="#2AF6FF"/>
<stop offset="1" stop-color="#428BCC"/>
</linearGradient>
<linearGradient id="paint70_linear" x1="29837.3" y1="170.084" x2="29847" y2="170.084" gradientUnits="userSpaceOnUse">
<stop stop-color="#2AF6FF"/>
<stop offset="1" stop-color="#428BCC"/>
</linearGradient>
<linearGradient id="paint71_linear" x1="33572.5" y1="151.879" x2="33584.8" y2="151.879" gradientUnits="userSpaceOnUse">
<stop stop-color="#2AF6FF"/>
<stop offset="1" stop-color="#428BCC"/>
</linearGradient>
<linearGradient id="paint72_linear" x1="51113.3" y1="155.831" x2="51141.9" y2="155.831" gradientUnits="userSpaceOnUse">
<stop stop-color="#2AF6FF"/>
<stop offset="1" stop-color="#428BCC"/>
</linearGradient>
<linearGradient id="paint73_linear" x1="197.941" y1="218.875" x2="197.941" y2="198.001" gradientUnits="userSpaceOnUse">
<stop offset="0.09" stop-color="#25054D"/>
<stop offset="0.47" stop-color="#330A68"/>
<stop offset="0.89" stop-color="#45108A"/>
</linearGradient>
<linearGradient id="paint74_linear" x1="197.517" y1="218.39" x2="206.747" y2="147.202" gradientUnits="userSpaceOnUse">
<stop offset="0.04" stop-color="#138BBD"/>
<stop offset="0.23" stop-color="#169AC7"/>
<stop offset="0.59" stop-color="#1FC3DF"/>
<stop offset="1" stop-color="#2AF6FF"/>
</linearGradient>
<linearGradient id="paint75_linear" x1="111530" y1="926.2" x2="111541" y2="849.406" gradientUnits="userSpaceOnUse">
<stop offset="0.09" stop-color="#25054D"/>
<stop offset="0.47" stop-color="#330A68"/>
<stop offset="0.89" stop-color="#45108A"/>
</linearGradient>
<linearGradient id="paint76_linear" x1="105501" y1="3471.96" x2="105521" y2="2465.01" gradientUnits="userSpaceOnUse">
<stop offset="0.04" stop-color="#138BBD"/>
<stop offset="0.23" stop-color="#169AC7"/>
<stop offset="0.59" stop-color="#1FC3DF"/>
<stop offset="1" stop-color="#2AF6FF"/>
</linearGradient>
<linearGradient id="paint77_linear" x1="257.91" y1="295.611" x2="181.353" y2="172.902" gradientUnits="userSpaceOnUse">
<stop offset="0.04" stop-color="#6B24D6"/>
<stop offset="0.29" stop-color="#7733DC"/>
<stop offset="0.79" stop-color="#975CED"/>
<stop offset="1" stop-color="#A56EF4"/>
</linearGradient>
<linearGradient id="paint78_linear" x1="227604" y1="1537.94" x2="228709" y2="1045.16" gradientUnits="userSpaceOnUse">
<stop offset="0.04" stop-color="#6B24D6"/>
<stop offset="0.29" stop-color="#7733DC"/>
<stop offset="0.79" stop-color="#975CED"/>
<stop offset="1" stop-color="#A56EF4"/>
</linearGradient>
<linearGradient id="paint79_linear" x1="221872" y1="1599.74" x2="223321" y2="1118.51" gradientUnits="userSpaceOnUse">
<stop offset="0.04" stop-color="#6B24D6"/>
<stop offset="0.29" stop-color="#7733DC"/>
<stop offset="0.79" stop-color="#975CED"/>
<stop offset="1" stop-color="#A56EF4"/>
</linearGradient>
<linearGradient id="paint80_linear" x1="222.255" y1="203.791" x2="97.6756" y2="166.508" gradientUnits="userSpaceOnUse">
<stop offset="0.04" stop-color="#9F19AB"/>
<stop offset="0.24" stop-color="#AE25B1"/>
<stop offset="0.65" stop-color="#D744BF"/>
<stop offset="1" stop-color="#FF63CE"/>
</linearGradient>
<linearGradient id="paint81_linear" x1="221872" y1="1575.5" x2="223321" y2="1094.99" gradientUnits="userSpaceOnUse">
<stop offset="0.04" stop-color="#9F19AB"/>
<stop offset="0.24" stop-color="#AE25B1"/>
<stop offset="0.65" stop-color="#D744BF"/>
<stop offset="1" stop-color="#FF63CE"/>
</linearGradient>
<linearGradient id="paint82_linear" x1="451285" y1="920.659" x2="450782" y2="2567.14" gradientUnits="userSpaceOnUse">
<stop offset="0.04" stop-color="#9F19AB"/>
<stop offset="0.24" stop-color="#AE25B1"/>
<stop offset="0.65" stop-color="#D744BF"/>
<stop offset="1" stop-color="#FF63CE"/>
</linearGradient>
<radialGradient id="paint83_radial" cx="0" cy="0" r="1" gradientUnits="userSpaceOnUse" gradientTransform="translate(185.322 107.913) rotate(68.99) scale(21.1151)">
<stop offset="0.03" stop-color="#FEDFCB"/>
<stop offset="0.78" stop-color="#F9B69E"/>
<stop offset="0.99" stop-color="#F2A78C"/>
</radialGradient>
<radialGradient id="paint84_radial" cx="0" cy="0" r="1" gradientUnits="userSpaceOnUse" gradientTransform="translate(192.882 76.0697) rotate(79.57) scale(23.9505)">
<stop offset="0.03" stop-color="#FEDFCB"/>
<stop offset="1" stop-color="#F9B69E"/>
</radialGradient>
<linearGradient id="paint85_linear" x1="198.523" y1="83.8655" x2="276.474" y2="88.0871" gradientUnits="userSpaceOnUse">
<stop stop-color="#9F79C8"/>
<stop offset="0.14" stop-color="#A27DCA"/>
<stop offset="0.27" stop-color="#AC88CF"/>
<stop offset="0.4" stop-color="#BC9BD7"/>
<stop offset="0.52" stop-color="#D1B4E3"/>
<stop offset="0.65" stop-color="#DBC4E9"/>
<stop offset="0.9" stop-color="#F4EDF8"/>
<stop offset="1" stop-color="white"/>
</linearGradient>
<linearGradient id="paint86_linear" x1="354900" y1="1701" x2="354807" y2="1476.58" gradientUnits="userSpaceOnUse">
<stop offset="0.04" stop-color="#138BBD"/>
<stop offset="0.23" stop-color="#169AC7"/>
<stop offset="0.59" stop-color="#1FC3DF"/>
<stop offset="1" stop-color="#2AF6FF"/>
</linearGradient>
<linearGradient id="paint87_linear" x1="347344" y1="1892.21" x2="347347" y2="1357.89" gradientUnits="userSpaceOnUse">
<stop offset="0.04" stop-color="#138BBD"/>
<stop offset="0.23" stop-color="#169AC7"/>
<stop offset="0.59" stop-color="#1FC3DF"/>
<stop offset="1" stop-color="#2AF6FF"/>
</linearGradient>
<radialGradient id="paint88_radial" cx="0" cy="0" r="1" gradientUnits="userSpaceOnUse" gradientTransform="translate(19565.4 -8882.69) rotate(-8.61565) scale(206.557 283.448)">
<stop offset="0.03" stop-color="#FEDFCB"/>
<stop offset="1" stop-color="#F9B69E"/>
</radialGradient>
<linearGradient id="paint89_linear" x1="257.819" y1="75.9469" x2="230.641" y2="41.3296" gradientUnits="userSpaceOnUse">
<stop offset="0.04" stop-color="#602213"/>
<stop offset="0.57" stop-color="#6D310E"/>
<stop offset="1" stop-color="#7A4108"/>
</linearGradient>
<linearGradient id="paint90_linear" x1="-244563" y1="25840.3" x2="-245489" y2="25131.5" gradientUnits="userSpaceOnUse">
<stop stop-color="#9F79C8"/>
<stop offset="0.14" stop-color="#A27DCA"/>
<stop offset="0.27" stop-color="#AC88CF"/>
<stop offset="0.4" stop-color="#BC9BD7"/>
<stop offset="0.52" stop-color="#D1B4E3"/>
<stop offset="0.65" stop-color="#DBC4E9"/>
<stop offset="0.9" stop-color="#F4EDF8"/>
<stop offset="1" stop-color="white"/>
</linearGradient>
<linearGradient id="paint91_linear" x1="206.202" y1="105.758" x2="238.719" y2="78.9113" gradientUnits="userSpaceOnUse">
<stop offset="0.04" stop-color="#9D9EB3"/>
<stop offset="0.58" stop-color="#D4D1D8"/>
<stop offset="1" stop-color="#EEEBF2"/>
</linearGradient>
<radialGradient id="paint92_radial" cx="0" cy="0" r="1" gradientUnits="userSpaceOnUse" gradientTransform="translate(5664.46 -16117) rotate(-22.9727) scale(54.1829 52.1633)">
<stop offset="0.03" stop-color="#FEDFCB"/>
<stop offset="0.78" stop-color="#F9B69E"/>
<stop offset="0.99" stop-color="#F2A78C"/>
</radialGradient>
<radialGradient id="paint93_radial" cx="0" cy="0" r="1" gradientUnits="userSpaceOnUse" gradientTransform="translate(-16739.7 -54371.4) rotate(-55.9925) scale(145.782 99.6853)">
<stop offset="0.03" stop-color="#FEDFCB"/>
<stop offset="1" stop-color="#F9B69E"/>
</radialGradient>
<linearGradient id="paint94_linear" x1="-344178" y1="-42839.6" x2="-344232" y2="-43240.9" gradientUnits="userSpaceOnUse">
<stop stop-color="#9F79C8"/>
<stop offset="0.14" stop-color="#A27DCA"/>
<stop offset="0.27" stop-color="#AC88CF"/>
<stop offset="0.4" stop-color="#BC9BD7"/>
<stop offset="0.52" stop-color="#D1B4E3"/>
<stop offset="0.65" stop-color="#DBC4E9"/>
<stop offset="0.9" stop-color="#F4EDF8"/>
<stop offset="1" stop-color="white"/>
</linearGradient>
<linearGradient id="paint95_linear" x1="57041" y1="2450" x2="57126.6" y2="2445.31" gradientUnits="userSpaceOnUse">
<stop offset="0.04" stop-color="#9F19AB"/>
<stop offset="0.24" stop-color="#AE25B1"/>
<stop offset="0.65" stop-color="#D744BF"/>
<stop offset="1" stop-color="#FF63CE"/>
</linearGradient>
<linearGradient id="paint96_linear" x1="259955" y1="3370.11" x2="262055" y2="3084.57" gradientUnits="userSpaceOnUse">
<stop offset="0.04" stop-color="#9F19AB"/>
<stop offset="0.24" stop-color="#AE25B1"/>
<stop offset="0.65" stop-color="#D744BF"/>
<stop offset="1" stop-color="#FF63CE"/>
</linearGradient>
<linearGradient id="paint97_linear" x1="239599" y1="722.456" x2="239566" y2="828.094" gradientUnits="userSpaceOnUse">
<stop offset="0.04" stop-color="#9F19AB"/>
<stop offset="0.24" stop-color="#AE25B1"/>
<stop offset="0.65" stop-color="#D744BF"/>
<stop offset="1" stop-color="#FF63CE"/>
</linearGradient>
</defs>
</svg>
