<svg width="254" height="3693" viewBox="0 0 254 3693" fill="none" xmlns="http://www.w3.org/2000/svg">
<path d="M127.124 80.5C220.79 148 351.924 330.5 127.124 520.5C-97.6763 710.5 33.457 909.333 127.124 985" stroke="#A100FF" stroke-width="5"/>
<path d="M126.999 992C220.665 1059.5 351.799 1242 126.999 1432C-97.8013 1622 33.332 1820.83 126.999 1896.5" stroke="#A100FF" stroke-width="5"/>
<path d="M126.999 1876C220.665 1943.5 351.799 2126 126.999 2316C-97.8013 2506 33.332 2704.83 126.999 2780.5" stroke="#A100FF" stroke-width="5"/>
<path d="M127 2754C220.667 2821.5 351.8 3004 127 3194" stroke="#A100FF" stroke-width="5"/>
<path d="M145.125 3605C51.4583 3537.5 -79.675 3355 145.125 3165" stroke="#A100FF" stroke-width="5"/>
<circle cx="122.5" cy="520.5" r="80.5" fill="white" fill-opacity="0.05"/>
<circle cx="122.625" cy="80.5" r="80.5" fill="white" fill-opacity="0.05"/>
<circle cx="122.125" cy="80" r="50" fill="white"/>
<path d="M96.661 78.952C96.661 73.416 97.829 69.064 100.165 65.896C102.533 62.728 106.165 61.144 111.061 61.144C115.925 61.144 119.541 62.744 121.909 65.944C124.277 69.112 125.461 73.448 125.461 78.952C125.461 84.488 124.277 88.856 121.909 92.056C119.541 95.224 115.925 96.808 111.061 96.808C106.165 96.808 102.533 95.224 100.165 92.056C97.829 88.856 96.661 84.488 96.661 78.952ZM114.949 78.952C114.949 76.392 114.693 74.472 114.181 73.192C113.669 71.88 112.629 71.224 111.061 71.224C109.461 71.224 108.405 71.88 107.893 73.192C107.381 74.472 107.125 76.392 107.125 78.952C107.125 81.544 107.381 83.496 107.893 84.808C108.405 86.088 109.461 86.728 111.061 86.728C112.629 86.728 113.669 86.088 114.181 84.808C114.693 83.496 114.949 81.544 114.949 78.952ZM129.786 71.896V61.912H146.058V97H134.874V71.896H129.786Z" fill="#A100FF"/>
<circle cx="121" cy="520" r="52" fill="white"/>
<path d="M91.536 519.952C91.536 514.416 92.704 510.064 95.04 506.896C97.408 503.728 101.04 502.144 105.936 502.144C110.8 502.144 114.416 503.744 116.784 506.944C119.152 510.112 120.336 514.448 120.336 519.952C120.336 525.488 119.152 529.856 116.784 533.056C114.416 536.224 110.8 537.808 105.936 537.808C101.04 537.808 97.408 536.224 95.04 533.056C92.704 529.856 91.536 525.488 91.536 519.952ZM109.824 519.952C109.824 517.392 109.568 515.472 109.056 514.192C108.544 512.88 107.504 512.224 105.936 512.224C104.336 512.224 103.28 512.88 102.768 514.192C102.256 515.472 102 517.392 102 519.952C102 522.544 102.256 524.496 102.768 525.808C103.28 527.088 104.336 527.728 105.936 527.728C107.504 527.728 108.544 527.088 109.056 525.808C109.568 524.496 109.824 522.544 109.824 519.952ZM125.525 529.504C129.813 526.304 133.205 523.408 135.701 520.816C138.197 518.192 139.445 515.744 139.445 513.472C139.445 512.704 139.269 512.112 138.917 511.696C138.597 511.28 138.165 511.072 137.621 511.072C136.981 511.072 136.469 511.408 136.085 512.08C135.733 512.72 135.605 513.712 135.701 515.056H125.381C125.477 512.08 126.117 509.632 127.301 507.712C128.517 505.792 130.085 504.384 132.005 503.488C133.925 502.592 136.037 502.144 138.341 502.144C142.437 502.144 145.429 503.136 147.317 505.12C149.237 507.072 150.197 509.584 150.197 512.656C150.197 515.888 149.157 518.928 147.077 521.776C145.029 524.592 142.453 526.976 139.349 528.928H150.341V537.52H125.525V529.504Z" fill="#A100FF"/>
<circle cx="122.5" cy="1416.5" r="80.5" fill="white" fill-opacity="0.05"/>
<circle cx="116.5" cy="980.5" r="80.5" fill="white" fill-opacity="0.05"/>
<circle cx="120" cy="982" r="50" fill="white"/>
<path d="M89.536 980.952C89.536 975.416 90.704 971.064 93.04 967.896C95.408 964.728 99.04 963.144 103.936 963.144C108.8 963.144 112.416 964.744 114.784 967.944C117.152 971.112 118.336 975.448 118.336 980.952C118.336 986.488 117.152 990.856 114.784 994.056C112.416 997.224 108.8 998.808 103.936 998.808C99.04 998.808 95.408 997.224 93.04 994.056C90.704 990.856 89.536 986.488 89.536 980.952ZM107.824 980.952C107.824 978.392 107.568 976.472 107.056 975.192C106.544 973.88 105.504 973.224 103.936 973.224C102.336 973.224 101.28 973.88 100.768 975.192C100.256 976.472 100 978.392 100 980.952C100 983.544 100.256 985.496 100.768 986.808C101.28 988.088 102.336 988.728 103.936 988.728C105.504 988.728 106.544 988.088 107.056 986.808C107.568 985.496 107.824 983.544 107.824 980.952ZM124.341 974.904C124.437 971.096 125.541 968.184 127.653 966.168C129.797 964.152 132.821 963.144 136.725 963.144C139.253 963.144 141.413 963.576 143.205 964.44C144.997 965.304 146.341 966.472 147.237 967.944C148.165 969.416 148.629 971.08 148.629 972.936C148.629 975.176 148.101 976.936 147.045 978.216C145.989 979.464 144.805 980.312 143.493 980.76V980.952C147.333 982.392 149.253 985.064 149.253 988.968C149.253 991.016 148.773 992.824 147.813 994.392C146.853 995.96 145.477 997.176 143.685 998.04C141.925 998.904 139.829 999.336 137.397 999.336C133.237 999.336 129.973 998.344 127.605 996.36C125.237 994.376 124.021 991.272 123.957 987.048H134.325C134.261 988.2 134.421 989.08 134.805 989.688C135.221 990.264 135.925 990.552 136.917 990.552C137.493 990.552 137.973 990.344 138.357 989.928C138.741 989.48 138.933 988.904 138.933 988.2C138.933 987.304 138.629 986.632 138.021 986.184C137.445 985.704 136.453 985.464 135.045 985.464H133.269V976.872H134.997C137.173 977 138.261 976.136 138.261 974.28C138.261 973.48 138.085 972.888 137.733 972.504C137.413 972.12 136.997 971.928 136.485 971.928C135.301 971.928 134.709 972.92 134.709 974.904H124.341Z" fill="#A100FF"/>
<circle cx="121" cy="1416" r="52" fill="white"/>
<path d="M88.536 1415.95C88.536 1410.42 89.704 1406.06 92.04 1402.9C94.408 1399.73 98.04 1398.14 102.936 1398.14C107.8 1398.14 111.416 1399.74 113.784 1402.94C116.152 1406.11 117.336 1410.45 117.336 1415.95C117.336 1421.49 116.152 1425.86 113.784 1429.06C111.416 1432.22 107.8 1433.81 102.936 1433.81C98.04 1433.81 94.408 1432.22 92.04 1429.06C89.704 1425.86 88.536 1421.49 88.536 1415.95ZM106.824 1415.95C106.824 1413.39 106.568 1411.47 106.056 1410.19C105.544 1408.88 104.504 1408.22 102.936 1408.22C101.336 1408.22 100.28 1408.88 99.768 1410.19C99.256 1411.47 99 1413.39 99 1415.95C99 1418.54 99.256 1420.5 99.768 1421.81C100.28 1423.09 101.336 1423.73 102.936 1423.73C104.504 1423.73 105.544 1423.09 106.056 1421.81C106.568 1420.5 106.824 1418.54 106.824 1415.95ZM123.677 1428.72V1419.84L137.981 1399.44H149.453V1419.5H152.909V1428.72H149.453V1434H138.701V1428.72H123.677ZM139.565 1411.58L134.381 1419.5H139.565V1411.58Z" fill="#A100FF"/>
<circle cx="122.5" cy="1855.5" r="80.5" fill="white" fill-opacity="0.05"/>
<circle cx="122.5" cy="2306.5" r="80.5" fill="white" fill-opacity="0.05"/>
<circle cx="122.5" cy="1855.5" r="50" fill="white"/>
<path d="M91.036 1854.45C91.036 1848.92 92.204 1844.56 94.54 1841.4C96.908 1838.23 100.54 1836.64 105.436 1836.64C110.3 1836.64 113.916 1838.24 116.284 1841.44C118.652 1844.61 119.836 1848.95 119.836 1854.45C119.836 1859.99 118.652 1864.36 116.284 1867.56C113.916 1870.72 110.3 1872.31 105.436 1872.31C100.54 1872.31 96.908 1870.72 94.54 1867.56C92.204 1864.36 91.036 1859.99 91.036 1854.45ZM109.324 1854.45C109.324 1851.89 109.068 1849.97 108.556 1848.69C108.044 1847.38 107.004 1846.72 105.436 1846.72C103.836 1846.72 102.78 1847.38 102.268 1848.69C101.756 1849.97 101.5 1851.89 101.5 1854.45C101.5 1857.04 101.756 1859 102.268 1860.31C102.78 1861.59 103.836 1862.23 105.436 1862.23C107.004 1862.23 108.044 1861.59 108.556 1860.31C109.068 1859 109.324 1857.04 109.324 1854.45ZM151.713 1846.77H137.793V1850.8C138.401 1850.26 139.185 1849.83 140.145 1849.51C141.137 1849.19 142.241 1849.03 143.457 1849.03C145.633 1849.03 147.473 1849.54 148.977 1850.56C150.481 1851.59 151.601 1852.96 152.337 1854.69C153.073 1856.39 153.441 1858.28 153.441 1860.36C153.441 1864.2 152.353 1867.19 150.177 1869.33C148.033 1871.44 145.073 1872.5 141.297 1872.5C138.545 1872.5 136.161 1872.02 134.145 1871.06C132.161 1870.1 130.641 1868.77 129.585 1867.08C128.561 1865.38 128.081 1863.44 128.145 1861.27H138.513C138.513 1861.78 138.689 1862.26 139.041 1862.71C139.393 1863.16 139.969 1863.38 140.769 1863.38C141.569 1863.38 142.161 1863.09 142.545 1862.52C142.929 1861.94 143.121 1861.16 143.121 1860.16C143.121 1859.24 142.897 1858.53 142.449 1858.05C142.033 1857.57 141.425 1857.33 140.625 1857.33C139.953 1857.33 139.441 1857.49 139.089 1857.81C138.737 1858.13 138.561 1858.5 138.561 1858.92H128.193V1837.41H151.713V1846.77Z" fill="#A100FF"/>
<circle cx="121" cy="2306" r="52" fill="white"/>
<path d="M91.536 2305.95C91.536 2300.42 92.704 2296.06 95.04 2292.9C97.408 2289.73 101.04 2288.14 105.936 2288.14C110.8 2288.14 114.416 2289.74 116.784 2292.94C119.152 2296.11 120.336 2300.45 120.336 2305.95C120.336 2311.49 119.152 2315.86 116.784 2319.06C114.416 2322.22 110.8 2323.81 105.936 2323.81C101.04 2323.81 97.408 2322.22 95.04 2319.06C92.704 2315.86 91.536 2311.49 91.536 2305.95ZM109.824 2305.95C109.824 2303.39 109.568 2301.47 109.056 2300.19C108.544 2298.88 107.504 2298.22 105.936 2298.22C104.336 2298.22 103.28 2298.88 102.768 2300.19C102.256 2301.47 102 2303.39 102 2305.95C102 2308.54 102.256 2310.5 102.768 2311.81C103.28 2313.09 104.336 2313.73 105.936 2313.73C107.504 2313.73 108.544 2313.09 109.056 2311.81C109.568 2310.5 109.824 2308.54 109.824 2305.95ZM141.701 2299.57C141.509 2298.61 141.221 2297.9 140.837 2297.46C140.485 2297.01 139.925 2296.78 139.157 2296.78C137.941 2296.78 137.125 2297.41 136.709 2298.66C136.325 2299.87 136.133 2301.78 136.133 2304.37C136.709 2303.47 137.541 2302.77 138.629 2302.26C139.717 2301.74 140.949 2301.49 142.325 2301.49C145.397 2301.49 147.845 2302.43 149.669 2304.32C151.525 2306.21 152.453 2308.94 152.453 2312.53C152.453 2314.93 151.941 2317.02 150.917 2318.82C149.925 2320.58 148.501 2321.94 146.645 2322.9C144.789 2323.86 142.597 2324.34 140.069 2324.34C135.045 2324.34 131.557 2322.8 129.605 2319.73C127.653 2316.62 126.677 2312.29 126.677 2306.72C126.677 2302.37 127.125 2298.85 128.021 2296.16C128.917 2293.47 130.325 2291.49 132.245 2290.21C134.197 2288.93 136.725 2288.29 139.829 2288.29C143.637 2288.29 146.501 2289.38 148.421 2291.55C150.373 2293.73 151.445 2296.4 151.637 2299.57H141.701ZM139.685 2309.65C138.821 2309.65 138.133 2309.89 137.621 2310.37C137.109 2310.85 136.853 2311.52 136.853 2312.38C136.853 2313.34 137.093 2314.06 137.573 2314.54C138.085 2314.99 138.789 2315.22 139.685 2315.22C140.581 2315.22 141.269 2314.99 141.749 2314.54C142.261 2314.06 142.517 2313.34 142.517 2312.38C142.517 2311.52 142.261 2310.85 141.749 2310.37C141.237 2309.89 140.549 2309.65 139.685 2309.65Z" fill="#A100FF"/>
<circle cx="122.5" cy="2735.5" r="80.5" fill="white" fill-opacity="0.05"/>
<circle cx="126.5" cy="3151.5" r="80.5" fill="white" fill-opacity="0.05"/>
<circle cx="123" cy="2737" r="50" fill="white"/>
<path d="M94.536 2735.95C94.536 2730.42 95.704 2726.06 98.04 2722.9C100.408 2719.73 104.04 2718.14 108.936 2718.14C113.8 2718.14 117.416 2719.74 119.784 2722.94C122.152 2726.11 123.336 2730.45 123.336 2735.95C123.336 2741.49 122.152 2745.86 119.784 2749.06C117.416 2752.22 113.8 2753.81 108.936 2753.81C104.04 2753.81 100.408 2752.22 98.04 2749.06C95.704 2745.86 94.536 2741.49 94.536 2735.95ZM112.824 2735.95C112.824 2733.39 112.568 2731.47 112.056 2730.19C111.544 2728.88 110.504 2728.22 108.936 2728.22C107.336 2728.22 106.28 2728.88 105.768 2730.19C105.256 2731.47 105 2733.39 105 2735.95C105 2738.54 105.256 2740.5 105.768 2741.81C106.28 2743.09 107.336 2743.73 108.936 2743.73C110.504 2743.73 111.544 2743.09 112.056 2741.81C112.568 2740.5 112.824 2738.54 112.824 2735.95ZM151.277 2726.74L140.333 2754H129.389L140.429 2728.03H128.045V2718.91H151.277V2726.74Z" fill="#A100FF"/>
<circle cx="125" cy="3151" r="52" fill="white"/>
<path d="M95.536 3150.95C95.536 3145.42 96.704 3141.06 99.04 3137.9C101.408 3134.73 105.04 3133.14 109.936 3133.14C114.8 3133.14 118.416 3134.74 120.784 3137.94C123.152 3141.11 124.336 3145.45 124.336 3150.95C124.336 3156.49 123.152 3160.86 120.784 3164.06C118.416 3167.22 114.8 3168.81 109.936 3168.81C105.04 3168.81 101.408 3167.22 99.04 3164.06C96.704 3160.86 95.536 3156.49 95.536 3150.95ZM113.824 3150.95C113.824 3148.39 113.568 3146.47 113.056 3145.19C112.544 3143.88 111.504 3143.22 109.936 3143.22C108.336 3143.22 107.28 3143.88 106.768 3145.19C106.256 3146.47 106 3148.39 106 3150.95C106 3153.54 106.256 3155.5 106.768 3156.81C107.28 3158.09 108.336 3158.73 109.936 3158.73C111.504 3158.73 112.544 3158.09 113.056 3156.81C113.568 3155.5 113.824 3153.54 113.824 3150.95ZM135.333 3149.7C134.053 3148.97 133.045 3148.01 132.309 3146.82C131.605 3145.61 131.253 3144.17 131.253 3142.5C131.253 3140.78 131.717 3139.21 132.645 3137.8C133.573 3136.39 134.981 3135.27 136.869 3134.44C138.789 3133.58 141.141 3133.14 143.925 3133.14C146.709 3133.14 149.045 3133.58 150.933 3134.44C152.853 3135.27 154.277 3136.39 155.205 3137.8C156.133 3139.21 156.597 3140.78 156.597 3142.5C156.597 3144.17 156.229 3145.61 155.493 3146.82C154.789 3148.01 153.797 3148.97 152.517 3149.7C155.749 3151.59 157.365 3154.42 157.365 3158.2C157.365 3160.63 156.757 3162.7 155.541 3164.39C154.325 3166.09 152.693 3167.37 150.645 3168.23C148.597 3169.1 146.357 3169.53 143.925 3169.53C141.493 3169.53 139.253 3169.1 137.205 3168.23C135.157 3167.37 133.525 3166.09 132.309 3164.39C131.093 3162.7 130.485 3160.63 130.485 3158.2C130.485 3154.42 132.101 3151.59 135.333 3149.7ZM146.133 3144.28C146.133 3143.38 145.925 3142.68 145.509 3142.17C145.093 3141.62 144.565 3141.35 143.925 3141.35C143.285 3141.35 142.757 3141.62 142.341 3142.17C141.925 3142.68 141.717 3143.38 141.717 3144.28C141.717 3145.21 141.925 3145.91 142.341 3146.39C142.757 3146.87 143.285 3147.11 143.925 3147.11C144.565 3147.11 145.093 3146.87 145.509 3146.39C145.925 3145.91 146.133 3145.21 146.133 3144.28ZM143.925 3154.26C142.965 3154.26 142.197 3154.58 141.621 3155.22C141.077 3155.83 140.805 3156.62 140.805 3157.58C140.805 3158.54 141.077 3159.32 141.621 3159.93C142.165 3160.54 142.933 3160.84 143.925 3160.84C144.917 3160.84 145.685 3160.54 146.229 3159.93C146.773 3159.32 147.045 3158.54 147.045 3157.58C147.045 3156.62 146.757 3155.83 146.181 3155.22C145.637 3154.58 144.885 3154.26 143.925 3154.26Z" fill="#A100FF"/>
<circle cx="124.5" cy="3612.5" r="80.5" fill="white" fill-opacity="0.05"/>
<circle cx="123" cy="3612" r="52" fill="white"/>
<path d="M93.536 3611.95C93.536 3606.42 94.704 3602.06 97.04 3598.9C99.408 3595.73 103.04 3594.14 107.936 3594.14C112.8 3594.14 116.416 3595.74 118.784 3598.94C121.152 3602.11 122.336 3606.45 122.336 3611.95C122.336 3617.49 121.152 3621.86 118.784 3625.06C116.416 3628.22 112.8 3629.81 107.936 3629.81C103.04 3629.81 99.408 3628.22 97.04 3625.06C94.704 3621.86 93.536 3617.49 93.536 3611.95ZM111.824 3611.95C111.824 3609.39 111.568 3607.47 111.056 3606.19C110.544 3604.88 109.504 3604.22 107.936 3604.22C106.336 3604.22 105.28 3604.88 104.768 3606.19C104.256 3607.47 104 3609.39 104 3611.95C104 3614.54 104.256 3616.5 104.768 3617.81C105.28 3619.09 106.336 3619.73 107.936 3619.73C109.504 3619.73 110.544 3619.09 111.056 3617.81C111.568 3616.5 111.824 3614.54 111.824 3611.95ZM138.373 3619.06C138.533 3619.98 138.821 3620.69 139.237 3621.17C139.685 3621.62 140.293 3621.84 141.061 3621.84C142.245 3621.84 143.013 3621.25 143.365 3620.06C143.749 3618.85 143.941 3616.91 143.941 3614.26C143.365 3615.15 142.533 3615.86 141.445 3616.37C140.357 3616.88 139.125 3617.14 137.749 3617.14C134.709 3617.14 132.261 3616.18 130.405 3614.26C128.549 3612.34 127.621 3609.57 127.621 3605.95C127.621 3603.55 128.117 3601.47 129.109 3599.71C130.133 3597.92 131.573 3596.54 133.429 3595.58C135.317 3594.62 137.509 3594.14 140.005 3594.14C145.061 3594.14 148.565 3595.63 150.517 3598.61C152.501 3601.58 153.493 3605.82 153.493 3611.33C153.493 3617.66 152.517 3622.42 150.565 3625.58C148.645 3628.75 145.397 3630.34 140.821 3630.34C138.293 3630.34 136.117 3629.81 134.293 3628.75C132.469 3627.7 131.061 3626.32 130.069 3624.62C129.109 3622.9 128.565 3621.04 128.437 3619.06H138.373ZM140.389 3608.98C141.253 3608.98 141.941 3608.74 142.453 3608.26C142.965 3607.78 143.221 3607.1 143.221 3606.24C143.221 3605.28 142.965 3604.58 142.453 3604.13C141.973 3603.65 141.285 3603.41 140.389 3603.41C139.493 3603.41 138.789 3603.65 138.277 3604.13C137.797 3604.58 137.557 3605.28 137.557 3606.24C137.557 3607.1 137.813 3607.78 138.325 3608.26C138.837 3608.74 139.525 3608.98 140.389 3608.98Z" fill="#A100FF"/>
</svg>
