<svg width="72" height="80" viewBox="0 0 72 80" fill="none" xmlns="http://www.w3.org/2000/svg">
<path d="M36 0C34.7736 0 33.5488 0.310651 32.4542 0.934183L3.58259 17.3962C1.37459 18.6554 0 21.009 0 23.5414V56.462C0 58.9926 1.37287 61.3446 3.58259 62.6038L32.4542 79.0658C33.5479 79.6885 34.7743 80 36 80C37.2257 80 38.452 79.6902 39.5458 79.0658L68.4174 62.6072C70.6271 61.3445 72 58.9892 72 56.4586V23.5414C72 21.009 70.6254 18.6554 68.4174 17.3962L39.5458 0.934183C38.452 0.310651 37.2264 0 36 0ZM36 19.1287C42.48 19.1287 48.4731 22.1798 52.3594 27.3732L44.8493 31.786C42.5899 29.2814 39.3823 27.8251 36 27.8251C29.3829 27.8251 24 33.2864 24 40C24 46.7136 29.3829 52.1749 36 52.1749C39.3823 52.1749 42.5899 50.7186 44.8493 48.214L52.3594 52.6267C48.4731 57.8202 42.48 60.8713 36 60.8713C24.6566 60.8713 15.4286 51.5088 15.4286 40C15.4286 28.4912 24.6566 19.1287 36 19.1287ZM53.1428 31.3036H56.5714V34.7822H60V31.3036H63.4286V34.7822H66.8571V38.2607H63.4286V41.7393H66.8571V45.2178H63.4286V48.6964H60V45.2178H56.5714V48.6964H53.1428V45.2178H49.7143V41.7393H53.1428V38.2607H49.7143V34.7822H53.1428V31.3036ZM56.5714 38.2607V41.7393H60V38.2607H56.5714Z" fill="white"/>
</svg>
