<svg width="62" height="80" viewBox="0 0 62 80" fill="none" xmlns="http://www.w3.org/2000/svg">
<path fill-rule="evenodd" clip-rule="evenodd" d="M61.8684 54.0774C52.9877 75.645 38.3837 79.4045 31.42 79.9268C6.20714 81.8177 -0.232451 46.6166 0.00633591 29.4968L6.52233 39.0119C5.99876 31.5322 11.763 25.3203 17.0746 19.5963C20.7723 15.6114 24.2507 11.863 25.2353 8.08783C25.9966 3.64745 24.9182 0.845786 24.2838 0C35.9557 4.82098 46.7359 20.4046 50.5948 27.4352C50.7533 26.6423 51.5463 21.3032 51.7048 19.5059C58.5557 28.6404 57.9038 47.734 56.6351 55.3461L61.8684 54.0774ZM49.7839 63.3609C46.7184 68.6704 41.2205 71.2351 37.5038 69.0893C33.7872 66.9435 33.2593 60.8998 36.3247 55.5903C39.3901 50.2808 44.8881 47.7161 48.6048 49.8619C52.3214 52.0077 52.8493 58.0514 49.7839 63.3609ZM25.4862 69.092C29.2028 66.9462 29.7307 60.9024 26.6653 55.5929C23.5998 50.2834 18.1019 47.7188 14.3852 49.8646C10.6686 52.0104 10.1407 58.0541 13.2061 63.3636C16.2715 68.6731 21.7695 71.2378 25.4862 69.092ZM25.7324 63.2568C25.7324 65.2712 24.0994 66.9042 22.085 66.9042C20.0705 66.9042 18.4375 65.2712 18.4375 63.2568C18.4375 61.2423 20.0705 59.6093 22.085 59.6093C24.0994 59.6093 25.7324 61.2423 25.7324 63.2568ZM41.1471 66.9042C43.1615 66.9042 44.7945 65.2712 44.7945 63.2568C44.7945 61.2423 43.1615 59.6093 41.1471 59.6093C39.1327 59.6093 37.4996 61.2423 37.4996 63.2568C37.4996 65.2712 39.1327 66.9042 41.1471 66.9042ZM19.4926 26.6406C15.5597 29.3048 12.8319 34.7284 13.7836 36.9486C14.4179 34.1575 17.1667 32.2968 18.3825 31.7153C18.6363 32.7302 19.9684 34.0941 20.7613 34.5698C18.9852 31.2713 19.1755 27.9093 19.4926 26.6406ZM48.4249 36.4634C49.2671 34.4823 46.8531 29.6428 43.3727 27.2655C43.6533 28.3975 43.8217 31.3975 42.2499 34.3408C42.9516 33.9163 44.1305 32.6993 44.355 31.7937C45.431 32.3125 47.8635 33.9729 48.4249 36.4634ZM32.4475 34.8794C29.5444 37.935 28.2013 43.1738 29.441 44.9337C29.4664 42.3808 31.4958 40.2463 32.4387 39.513C32.8485 40.3512 34.2568 41.2932 35.032 41.5608C32.8768 39.0135 32.411 36.0452 32.4475 34.8794ZM35.495 25.0575C35.753 23.7179 33.6128 21.0408 31.1396 20.0313C31.4643 20.6953 31.9682 22.5317 31.3863 24.5648C31.7645 24.2083 32.3329 23.2972 32.3514 22.7062C33.0872 22.8844 34.8155 23.5892 35.495 25.0575Z" fill="white"/>
</svg>
