<svg width="57" height="80" viewBox="0 0 57 80" fill="none" xmlns="http://www.w3.org/2000/svg">
<path d="M48.5462 0H40.4889C40.4889 6.6256 35.0445 12 28.3325 12C21.6206 12 16.1761 6.6256 16.1761 0H8.11886C3.62423 0 0 3.5776 0 8.016V12.048V68V71.984C0 76.4208 3.62423 80 8.12048 80H16.1761C16.1761 73.3744 21.6206 68 28.3325 68C35.0445 68 40.4889 73.3744 40.4889 80H48.5462C53.0408 80 56.6667 76.4224 56.6667 71.984V68V12.0464V8.016C56.665 3.5776 53.0408 0 48.5462 0Z" fill="white"/>
<path d="M0 10.8416V61.1998L25.4993 36.0286L0 10.8416Z" fill="white"/>
<path d="M50.9983 61.1998V10.8416L25.499 36.0286L50.9983 61.1998Z" fill="white"/>
<path d="M43.6916 0H36.44C36.44 5.96304 31.54 10.8 25.4993 10.8C19.4585 10.8 14.5585 5.96304 14.5585 0H7.30697C3.26181 0 0 3.21984 0 7.2144V10.8432L25.4993 36.0144L50.9985 10.8432V7.2144C50.9985 3.21984 47.7367 0 43.6916 0Z" fill="white"/>
</svg>
