<svg width="72" height="80" viewBox="0 0 72 80" fill="none" xmlns="http://www.w3.org/2000/svg">
<path d="M70.9739 0.565217C70.6435 0.205217 70.1791 0 69.6904 0H1.73913C1.25043 0 0.786083 0.205217 0.455648 0.565217C0.125213 0.925217 -0.0365256 1.4087 0.00695267 1.89391L6.12869 70.4626C6.19304 71.1791 6.69217 71.7826 7.38434 71.9809L35.2296 79.9339C35.3843 79.9774 35.5443 80 35.7061 80C35.8678 80 36.0278 79.9774 36.1826 79.9339L64.0504 71.9809C64.7426 71.7826 65.2417 71.1791 65.3061 70.4626L71.4243 1.89391C71.4661 1.40696 71.3026 0.925217 70.9739 0.565217ZM56.3183 24.207H23.6035L24.3809 33.0591H55.5304L53.1948 59.2156L35.7043 64.5043L35.5322 64.4522L18.2417 59.2139L17.2991 48.553H25.767L26.1391 52.6922L35.8017 54.7165L45.2922 52.6887L46.3026 41.4974H16.6626L14.3652 15.7461H57.0765L56.3183 24.207Z" fill="white"/>
</svg>
