<svg width="80" height="80" viewBox="0 0 80 80" fill="none" xmlns="http://www.w3.org/2000/svg">
<path d="M4.25 0C1.90279 0 0 1.90279 0 4.25V75.75C0 78.0972 1.90279 80 4.25 80H75.75C78.0972 80 80 78.0972 80 75.75V4.25C80 1.90279 78.0972 0 75.75 0H4.25ZM28.3516 38.4181C28.3516 41.9979 28.2134 52.6765 28.3333 56.2543C28.3456 56.6226 28.3516 57.0047 28.3516 57.4011V61.7387C28.3516 64.0859 26.4489 65.9887 24.1016 65.9887H18.0962C15.7489 65.9887 13.8462 64.0859 13.8462 61.7387V54.6893C13.8462 53.5324 13.2126 52.9085 12.3288 52.4841C10.6916 51.6981 9.45055 50.3055 9.45055 48.4894V46.4259C9.45055 44.6097 10.6781 43.1521 12.2782 42.2932C13.1883 41.8047 13.8462 41.169 13.8462 40.226V32.4986C13.8462 30.1514 15.7489 28.2486 18.0962 28.2486H24.1016C26.4489 28.2486 28.3516 30.1514 28.3516 32.4986V38.4181ZM28.3516 21.9647C28.3516 24.3119 26.4489 26.2147 24.1016 26.2147H17.8764C15.5292 26.2147 13.6264 24.3119 13.6264 21.9647V18.7133C13.6264 16.3661 15.5292 14.4633 17.8764 14.4633H24.1016C26.4489 14.4633 28.3516 16.3661 28.3516 18.7133V21.9647ZM49.8901 67.7966C36.9231 67.7966 30.5494 60.565 30.5494 51.5254C30.5494 50.0277 31.7636 48.8136 33.2613 48.8136H43.925C44.549 48.8136 45.0549 49.3195 45.0549 49.9435C44.9933 50.5739 45.0613 51.2106 45.2544 51.8122C45.4475 52.4139 45.7615 52.9671 46.176 53.4359C46.5905 53.9047 47.0962 54.2786 47.6603 54.5335C48.2245 54.7884 48.8344 54.9184 49.4505 54.9153C52.0879 54.9153 53.4066 53.5593 53.4066 51.5254C53.4066 45.6497 31.2088 46.5537 31.2088 29.8305C31.2088 20.791 36.7033 12.8814 50.5494 12.8814C62.8571 12.8814 69.011 20.113 69.011 29.1525C69.011 30.7751 67.6957 32.0904 66.0731 32.0904H56.0874C55.2137 32.0904 54.5055 31.3821 54.5055 30.5085C54.5761 29.9246 54.5274 29.3319 54.3624 28.7685C54.1975 28.2051 53.9199 27.6833 53.5475 27.2366C53.1751 26.7898 52.7161 26.428 52.1998 26.1742C51.6835 25.9204 51.1214 25.7802 50.5494 25.7627C50.0947 25.7137 49.635 25.7659 49.2016 25.9157C48.7682 26.0656 48.3712 26.3096 48.0376 26.6311C47.7041 26.9527 47.4417 27.3443 47.2683 27.7794C47.095 28.2144 47.0147 28.6828 47.033 29.1525C47.033 35.7062 69.2308 34.1243 69.2308 50.8475C69.2308 59.661 63.2967 67.7966 49.8901 67.7966Z" fill="white"/>
</svg>
