<svg width="80" height="80" viewBox="0 0 80 80" fill="none" xmlns="http://www.w3.org/2000/svg">
<path d="M80 34.5374V23.6121C80 10.5872 69.4128 0 56.3879 0C50.0356 0 44.2527 2.52669 40 6.63701C35.7473 2.54448 29.9644 0 23.6121 0C10.5872 0 0 10.605 0 23.6121V56.3879C0 69.4128 10.5872 80 23.6121 80H56.3879C69.4128 80 80 69.4128 80 56.3879V40.516H32.7758V54.9644H65.5516V56.3879C65.5516 61.4413 61.4413 65.5516 56.3879 65.5516H23.6121C18.5587 65.5516 14.4484 61.4413 14.4484 56.3879V23.6121C14.4484 18.5587 18.5587 14.4484 23.6121 14.4484C28.6655 14.4484 32.7758 18.5587 32.7758 23.6121V34.5374H47.2242V23.6121C47.2242 18.5587 51.3345 14.4484 56.3879 14.4484C61.4413 14.4484 65.5516 18.5587 65.5516 23.6121V34.5374H80Z" fill="white"/>
</svg>
