<svg width="80" height="80" viewBox="0 0 80 80" fill="none" xmlns="http://www.w3.org/2000/svg">
<path d="M39.7116 0C19.4026 1.45658e-06 20.6709 8.8533 20.6709 8.8533L20.6935 18.0252H40.0739V20.7791H12.9957C12.9957 20.7791 0 19.2975 0 39.8967C-1.449e-06 60.4959 11.3429 59.7654 11.3429 59.7654H18.1125V50.2066C18.1125 50.2066 17.7476 38.8043 29.2743 38.8043C40.801 38.8043 48.4962 38.8043 48.4962 38.8043C48.4962 38.8043 59.2957 38.9798 59.2957 28.3123C59.2957 17.6449 59.2957 10.674 59.2957 10.674C59.2957 10.674 60.9354 0 39.7116 0ZM29.0252 6.16772C30.9535 6.16772 32.5119 7.73433 32.5119 9.67262C32.5119 11.6109 30.9535 13.1775 29.0252 13.1775C27.097 13.1775 25.5386 11.6109 25.5386 9.67262C25.5386 7.73433 27.097 6.16772 29.0252 6.16772Z" fill="white"/>
<path d="M40.2893 79.9998C60.5982 79.9998 59.33 71.1465 59.33 71.1465L59.3074 61.9746H39.927V59.2208H67.0052C67.0052 59.2208 80.0009 60.7023 80.0009 40.1031C80.0009 19.5039 68.6579 20.2344 68.6579 20.2344H61.8884V29.7932C61.8884 29.7932 62.2533 41.1955 50.7266 41.1955C39.1999 41.1955 31.5047 41.1955 31.5047 41.1955C31.5047 41.1955 20.7052 41.0201 20.7052 51.6875C20.7052 62.3549 20.7052 69.3258 20.7052 69.3258C20.7052 69.3258 19.0655 79.9998 40.2893 79.9998ZM50.9756 73.8321C49.0474 73.8321 47.489 72.2655 47.489 70.3272C47.489 68.3889 49.0474 66.8223 50.9756 66.8223C52.9038 66.8223 54.4623 68.3889 54.4623 70.3272C54.4623 72.2655 52.9038 73.8321 50.9756 73.8321Z" fill="white"/>
</svg>
