<svg width="84" height="84" viewBox="0 0 84 84" fill="none" xmlns="http://www.w3.org/2000/svg">
<path d="M78.3632 42.3606L83.7421 33.2451C83.9577 32.7911 83.9844 32.2723 83.8204 31.7973L73.1674 1.27853C72.8431 0.351524 71.8646 -0.176833 70.9147 0.0539657L39.6043 7.68366C39.0054 7.83054 38.5133 8.25589 38.2844 8.82812L34.9502 17.1674H24.797C24.2648 17.1674 23.7575 17.3905 23.395 17.7816L0.505947 42.5781C-0.1998 43.343 -0.16356 44.5332 0.591781 45.2523L24.5929 68.1414C24.9496 68.479 25.4207 68.6679 25.909 68.6679H36.8557L40.1918 77.0071C40.4379 77.6232 40.9872 78.0657 41.6396 78.1783L74.9394 83.9005C75.0481 83.9196 75.1568 83.9292 75.2636 83.9292C76.1449 83.9292 76.9326 83.3169 77.1253 82.428L83.8814 51.4724C83.9863 50.9936 83.9024 50.492 83.6468 50.0724L78.3632 42.3606ZM34.9502 17.1674L61.8335 12.2405L47.6861 40.0565H15.5784L34.9502 17.1674ZM36.8577 68.6679L15.5784 47.6862H47.6861L64.3761 72.8012L36.8577 68.6679ZM71.3115 68.4714L55.3158 43.8713L69.3029 16.0554L78.3632 42.3626L71.3115 68.4714Z" fill="white"/>
</svg>
