<svg width="109" height="109" viewBox="0 0 109 109" fill="none" xmlns="http://www.w3.org/2000/svg">
<path d="M95.1976 14.1748H93.9043C96.3696 10.1613 95.4593 4.77291 91.5028 1.83742C87.2397 -1.32522 81.1816 -0.3072 78.2065 4.13872L71.4908 14.175H13.7992C9.05715 14.175 5.19922 18.033 5.19922 22.775V77.758C5.19922 82.5001 9.05715 86.358 13.7992 86.358H47.2041L44.6801 96.9591H39.2325C35.6822 96.9591 32.7938 99.8474 32.7938 103.398V104.742H26.0783C24.9025 104.742 23.9494 105.695 23.9494 106.871C23.9494 108.046 24.9025 109 26.0783 109H82.9188C84.0945 109 85.0476 108.046 85.0476 106.871C85.0476 105.695 84.0945 104.742 82.9188 104.742H76.2032V103.398C76.2032 99.8474 73.3148 96.9591 69.7645 96.9591H64.3169L61.793 86.358H95.1978C99.9399 86.358 103.798 82.5001 103.798 77.758V65.6597V22.7748C103.798 18.0328 99.9399 14.1748 95.1976 14.1748ZM64.6948 51.6C61.3663 53.9301 55.1307 50.763 49.1758 53.9405C47.7229 46.3926 48.6389 39.2939 56.2017 37.7271C57.1791 37.5234 58.2314 37.4312 59.1272 37.4491C61.6869 39.3482 64.2761 41.2691 66.8286 43.1631C67.946 46.4135 67.5266 49.6179 64.6948 51.6ZM66.8403 28.7812L72.8665 33.2522L68.2321 38.9024C66.3243 37.487 64.6842 36.2701 62.7763 34.8544C63.1725 34.2624 66.4782 29.3221 66.8403 28.7812ZM81.7453 6.50666C83.3577 4.09657 86.6462 3.53583 88.9658 5.25701C91.2863 6.97841 91.7018 10.2879 89.8631 12.5299C86.6006 16.5072 78.8443 25.9638 75.5695 29.9565L69.2106 25.2385L81.7453 6.50666ZM71.9453 103.398V104.742H37.0515V103.398C37.0515 102.195 38.0299 101.217 39.2325 101.217H69.7643C70.9669 101.217 71.9453 102.195 71.9453 103.398ZM59.94 96.9591H49.0568L51.5808 86.358H57.416L59.94 96.9591ZM99.5401 77.758C99.5401 80.1524 97.5922 82.1003 95.1978 82.1003C91.8185 82.1003 17.599 82.1003 13.7994 82.1003C11.4051 82.1003 9.45716 80.1524 9.45716 77.758V67.7886H15.5406C16.7164 67.7886 17.6695 66.8353 17.6695 65.6597C17.6695 64.4841 16.7164 63.5308 15.5406 63.5308H9.45674V22.7748C9.45674 20.3805 11.4046 18.4326 13.799 18.4326H68.6417C66.6023 21.4804 60.6523 30.3723 58.7676 33.1886C54.5957 33.2262 50.4306 34.6796 47.7039 37.8627C43.9935 42.1939 43.3417 48.9994 45.7664 58.0901C46.1809 59.6446 48.1205 60.2015 49.2942 59.0805C54.7988 53.8207 61.6546 59.558 67.794 54.5888C71.5417 51.5551 72.4286 46.7324 71.0154 42.2226C72.9257 39.8936 88.6135 20.7671 90.5282 18.4326H95.1974C97.5917 18.4326 99.5397 20.3805 99.5397 22.7748V63.5306H32.5711C31.3953 63.5306 30.4422 64.4839 30.4422 65.6595C30.4422 66.8351 31.3953 67.7884 32.5711 67.7884H99.5401V77.758Z" fill="#E52C5C"/>
<path d="M23.6452 63.5719C22.6204 63.7814 21.9336 64.6673 21.9336 65.6606C21.9336 66.9922 23.1511 68.012 24.4776 67.7469C25.6564 67.5076 26.3745 66.3717 26.1488 65.2433C25.9119 64.0788 24.7823 63.3431 23.6452 63.5719Z" fill="#E52C5C"/>
</svg>
