<svg width="109" height="109" viewBox="0 0 109 109" fill="none" xmlns="http://www.w3.org/2000/svg">
<path d="M95.1976 14.1749H93.9043C96.3696 10.1613 95.4593 4.77297 91.5028 1.83748C87.2397 -1.32516 81.1816 -0.307139 78.2065 4.13878L71.4908 14.1751H13.7992C9.05715 14.1751 5.19922 18.033 5.19922 22.7751V77.7581C5.19922 82.5002 9.05715 86.3581 13.7992 86.3581H47.2041L44.6801 96.9592H39.2325C35.6822 96.9592 32.7938 99.8474 32.7938 103.398V104.742H26.0783C24.9025 104.742 23.9494 105.695 23.9494 106.871C23.9494 108.047 24.9025 109 26.0783 109H82.9188C84.0945 109 85.0476 108.047 85.0476 106.871C85.0476 105.695 84.0945 104.742 82.9188 104.742H76.2032V103.398C76.2032 99.8474 73.3148 96.9592 69.7645 96.9592H64.3169L61.793 86.3581H95.1978C99.9399 86.3581 103.798 82.5002 103.798 77.7581V65.6598V22.7749C103.798 18.0328 99.9399 14.1749 95.1976 14.1749ZM64.6948 51.6001C61.3663 53.9302 55.1307 50.763 49.1758 53.9406C47.7229 46.3927 48.6389 39.294 56.2017 37.7272C57.1791 37.5234 58.2314 37.4312 59.1272 37.4491C61.6869 39.3483 64.2761 41.2692 66.8286 43.1632C67.946 46.4136 67.5266 49.6179 64.6948 51.6001ZM66.8403 28.7812L72.8665 33.2523L68.2321 38.9025C66.3243 37.487 64.6842 36.2702 62.7763 34.8545C63.1725 34.2624 66.4782 29.3222 66.8403 28.7812ZM81.7453 6.50672C83.3577 4.09663 86.6462 3.53589 88.9658 5.25707C91.2863 6.97847 91.7018 10.288 89.8631 12.5299C86.6006 16.5073 78.8443 25.9639 75.5695 29.9566L69.2106 25.2386L81.7453 6.50672ZM71.9453 103.398V104.742H37.0515V103.398C37.0515 102.195 38.0299 101.217 39.2325 101.217H69.7643C70.9669 101.217 71.9453 102.195 71.9453 103.398ZM59.94 96.9592H49.0568L51.5808 86.3581H57.416L59.94 96.9592ZM99.5401 77.7581C99.5401 80.1524 97.5922 82.1004 95.1978 82.1004C91.8185 82.1004 17.599 82.1004 13.7994 82.1004C11.4051 82.1004 9.45716 80.1524 9.45716 77.7581V67.7886H15.5406C16.7164 67.7886 17.6695 66.8353 17.6695 65.6598C17.6695 64.4842 16.7164 63.5309 15.5406 63.5309H9.45674V22.7749C9.45674 20.3805 11.4046 18.4326 13.799 18.4326H68.6417C66.6023 21.4805 60.6523 30.3724 58.7676 33.1886C54.5957 33.2263 50.4306 34.6797 47.7039 37.8628C43.9935 42.1939 43.3417 48.9995 45.7664 58.0902C46.1809 59.6447 48.1205 60.2016 49.2942 59.0805C54.7988 53.8207 61.6546 59.558 67.794 54.5888C71.5417 51.5552 72.4286 46.7325 71.0154 42.2227C72.9257 39.8937 88.6135 20.7671 90.5282 18.4326H95.1974C97.5917 18.4326 99.5397 20.3805 99.5397 22.7749V63.5307H32.5711C31.3953 63.5307 30.4422 64.484 30.4422 65.6596C30.4422 66.8351 31.3953 67.7884 32.5711 67.7884H99.5401V77.7581Z" fill="#5E7DEF"/>
<path d="M23.6452 63.5719C22.6204 63.7814 21.9336 64.6673 21.9336 65.6606C21.9336 66.9922 23.1511 68.012 24.4776 67.7469C25.6564 67.5076 26.3745 66.3717 26.1488 65.2433C25.9119 64.0788 24.7823 63.3431 23.6452 63.5719Z" fill="#5E7DEF"/>
</svg>
