<svg width="131" height="150" viewBox="0 0 131 150" fill="none" xmlns="http://www.w3.org/2000/svg">
<path opacity="0.2" d="M106.295 89.8022C106.295 90.4941 105.842 91.2436 104.898 91.7865L91.4855 105.34C89.7891 106.378 87.2263 106.493 85.7566 105.594L61.3579 90.5709C61.0602 90.4307 60.8083 90.2003 60.634 89.9088C60.4596 89.6173 60.3706 89.2776 60.3781 88.9326C60.3753 88.9694 60.3753 89.0064 60.3781 89.0431V90.9937C60.4029 91.3133 60.5076 91.6202 60.6813 91.8828C60.8551 92.1454 61.0918 92.3542 61.367 92.4879L85.7657 107.492C87.2353 108.391 89.7982 108.28 91.4946 107.242L104.907 93.689C105.846 93.1125 106.323 92.3726 106.309 91.6759C106.295 91.5703 106.318 90.2827 106.295 89.8022Z" fill="url(#paint0_linear)"/>
<g opacity="0.2">
<path opacity="0.09" d="M60.8403 84.2679L82.2498 75.5429C83.5483 74.7836 85.0124 74.3992 86.4954 74.4283C87.121 74.4325 87.7439 74.5164 88.3506 74.6781C88.918 74.8353 89.4638 75.0694 89.9745 75.3748L105.805 85.1999C105.805 85.1999 106.258 85.4834 106.258 85.4978C106.822 85.8249 107.285 86.3146 107.596 86.91C107.907 87.5053 108.052 88.1818 108.014 88.8609C107.946 90.235 106.971 91.7436 105.564 92.618L92.4102 105.926C91.1389 106.676 89.7058 107.063 88.2508 107.051C87.0544 107.081 85.8712 106.781 84.8171 106.181L60.4275 91.1863C59.8608 90.8799 59.3831 90.4165 59.0453 89.8455C58.7074 89.2744 58.522 88.617 58.5088 87.9433C58.5133 86.5115 59.3615 85.1711 60.8403 84.2679Z" fill="black"/>
<path opacity="0.18" d="M60.9355 84.4352L82.3405 75.7152C83.633 74.9604 85.0926 74.5855 86.568 74.6294C87.181 74.6468 87.79 74.7403 88.3824 74.9081C88.9407 75.0839 89.4791 75.324 89.9881 75.6239L105.732 85.3961L106.186 85.694C106.726 86.0294 107.159 86.53 107.426 87.1302C107.693 87.7303 107.782 88.402 107.683 89.057C107.556 90.2822 106.476 91.9397 105.215 92.7036L92.2878 105.772C91.0385 106.502 89.6325 106.879 88.2055 106.867C87.0393 106.898 85.8856 106.606 84.858 106.021L60.4638 91.0172C59.9258 90.7243 59.4729 90.2823 59.1534 89.7383C58.8338 89.1943 58.6597 88.5686 58.6494 87.928C58.7038 86.5732 59.5158 85.2856 60.9355 84.4352Z" fill="black"/>
<path opacity="0.27" d="M61.0256 84.6079L82.4351 75.883C83.7226 75.1357 85.1773 74.772 86.6444 74.8309C87.2589 74.8567 87.8682 74.9616 88.4588 75.1431C89.009 75.3318 89.5407 75.5764 90.0464 75.8734L105.704 85.5928C105.75 85.6216 106.135 85.8618 106.158 85.8955C107.36 86.7122 107.605 87.9277 107.396 89.2585C107.224 90.3443 106.035 92.1172 104.906 92.8042L92.2055 105.622C90.9959 106.334 89.6336 106.703 88.2502 106.694C87.1146 106.726 85.9906 106.444 84.9888 105.877L60.5901 90.868C60.076 90.594 59.6426 90.1759 59.3371 89.6592C59.0316 89.1425 58.8657 88.5469 58.8574 87.9373C58.8846 86.6401 59.6694 85.4342 61.0256 84.6079Z" fill="black"/>
<path opacity="0.36" d="M61.1224 84.7756L82.532 76.0556C83.8109 75.3098 85.2605 74.9554 86.7186 75.0323C87.3342 75.0677 87.9435 75.1822 88.533 75.3734C89.0732 75.579 89.5966 75.8312 90.0979 76.1277L105.67 85.7894C105.729 85.8278 106.082 86.0536 106.123 86.092C107.298 86.928 107.652 88.206 107.103 89.4167C107.103 90.3776 105.57 92.2513 104.59 92.8519L92.1481 105.43C90.9667 106.117 89.6402 106.475 88.2926 106.472C87.1871 106.506 86.0926 106.232 85.1174 105.68L60.7006 90.6755C60.2125 90.417 59.8011 90.0211 59.5115 89.5312C59.2218 89.0414 59.0651 88.4765 59.0586 87.8985C59.0949 86.7262 59.8252 85.5684 61.1224 84.7756Z" fill="black"/>
<path opacity="0.45" d="M61.2131 84.9496L82.6227 76.2247C83.897 75.4873 85.3415 75.1443 86.7912 75.235C87.3972 75.2826 87.9956 75.4068 88.5738 75.6049C89.1047 75.8268 89.6214 76.0852 90.1205 76.3784L105.606 85.9873C105.683 86.0354 106.005 86.242 106.06 86.2948C107.207 87.1404 107.466 88.428 106.781 89.5955C106.781 90.4219 105.085 92.4109 104.245 92.925L92.0438 105.258C90.8951 105.929 89.6043 106.279 88.2925 106.277C87.2148 106.311 86.1471 106.048 85.1945 105.513L60.7958 90.5035C60.334 90.262 59.9448 89.8892 59.6717 89.4268C59.3985 88.9643 59.2522 88.4306 59.249 87.8851C59.2853 86.7705 59.9838 85.7039 61.2131 84.9496Z" fill="black"/>
<path opacity="0.55" d="M61.3086 85.1215L82.7181 76.3966C83.9872 75.6648 85.4269 75.3314 86.8685 75.4357C87.4702 75.4919 88.063 75.6275 88.633 75.8393C89.1543 76.0719 89.6632 76.3349 90.157 76.6272L105.556 86.1833C105.713 86.2789 105.864 86.3831 106.01 86.4956C106.266 86.6601 106.484 86.8823 106.649 87.1464C106.814 87.4104 106.922 87.7099 106.966 88.0233C107.009 88.3367 106.986 88.6564 106.9 88.9596C106.813 89.2627 106.664 89.5419 106.464 89.7771C106.464 90.4641 104.608 92.5733 103.91 93.0009L91.9533 105.089C90.8409 105.735 89.5932 106.075 88.3245 106.079C87.2771 106.112 86.2393 105.857 85.3127 105.339L60.8958 90.3296C60.4597 90.106 60.0921 89.7565 59.8353 89.3213C59.5785 88.8861 59.443 88.3829 59.4443 87.8697C59.4806 86.8319 60.1383 85.8326 61.3086 85.1215Z" fill="black"/>
<path opacity="0.64" d="M61.3983 85.2864L82.8078 76.5616C84.0714 75.8353 85.5069 75.5132 86.94 75.6343C87.5369 75.7007 88.1236 75.846 88.6864 76.0667C88.8995 76.1436 90.0199 76.7682 90.1968 76.8787L105.506 86.377C105.662 86.4724 105.813 86.5767 105.959 86.6893C107.052 87.5589 107.12 88.8657 106.159 89.9515C106.159 90.504 104.145 92.7285 103.582 93.0696L91.866 104.913C90.7785 105.543 89.5587 105.873 88.3189 105.873C87.3013 105.911 86.2921 105.664 85.3933 105.158L60.9946 90.1533C60.5849 89.9449 60.2394 89.6175 59.9985 89.2092C59.7576 88.801 59.6311 88.3286 59.6338 87.8472C59.6701 86.9007 60.2915 85.9686 61.3983 85.2864Z" fill="black"/>
<path opacity="0.73" d="M61.4938 85.4638L82.926 76.7389C84.1825 76.0174 85.6121 75.7048 87.0356 75.8405C87.6287 75.9216 88.2095 76.0831 88.7638 76.3209C88.9271 76.3786 90.1245 77.0704 90.2561 77.1521L105.479 86.6024C105.637 86.6947 105.788 86.7991 105.932 86.9147C106.998 87.7939 106.971 89.1103 105.873 90.1577C105.873 90.5709 103.696 92.9106 103.274 93.1701L91.8028 104.768C90.7455 105.38 89.5604 105.702 88.3555 105.705C87.3673 105.741 86.3871 105.505 85.5115 105.018L61.1173 90.0088C60.7338 89.8176 60.4104 89.5133 60.1859 89.1324C59.9615 88.7515 59.8455 88.3101 59.8518 87.8612C59.8654 86.9628 60.446 86.098 61.4938 85.4638Z" fill="black"/>
<path opacity="0.82" d="M61.6069 85.6308L83.0164 76.9108C84.2635 76.1923 85.6863 75.8893 87.0987 76.0411C87.6874 76.1222 88.2638 76.2837 88.8133 76.5216C88.9176 76.56 90.1741 77.3143 90.2829 77.3672L105.419 86.7647C105.578 86.8555 105.73 86.9599 105.873 87.077C106.912 87.9706 106.78 89.2966 105.555 90.3007C105.555 90.5794 103.215 93.0345 102.934 93.1834L91.7027 104.536C90.678 105.131 89.5283 105.444 88.3597 105.444C87.4017 105.486 86.4504 105.259 85.6019 104.786L61.1533 89.8203C60.7959 89.6451 60.4946 89.363 60.2867 89.0087C60.0787 88.6545 59.9732 88.2435 59.9831 87.8265C60.0556 87.0289 60.6045 86.2458 61.6069 85.6308Z" fill="black"/>
<path opacity="0.91" d="M61.6799 85.8048L83.0894 77.0801C84.337 76.3646 85.7622 76.0727 87.1717 76.2441C87.7546 76.3406 88.3233 76.5166 88.8636 76.7678C88.918 76.7678 90.2697 77.6085 90.3151 77.6374L105.365 86.9771C105.518 87.0675 105.663 87.1737 105.796 87.2942C106.808 88.2022 106.59 89.533 105.22 90.4987C104.387 91.4821 103.504 92.4171 102.576 93.2996L91.5897 104.403C90.5972 104.98 89.4835 105.284 88.351 105.287C87.4209 105.329 86.4965 105.112 85.6703 104.657L61.2762 89.6483C60.5005 89.1679 60.1376 88.5097 60.1966 87.813C60.2556 87.1164 60.7591 86.3669 61.6799 85.8048Z" fill="black"/>
<path opacity="0.2" d="M85.7556 104.504L61.3568 89.4993C59.8917 88.6009 60.0732 87.0299 61.7696 85.9921L83.1792 77.2721C84.8756 76.2344 87.4429 76.119 88.9126 77.0175L105.305 87.1932C106.775 88.0917 106.594 89.6627 104.897 90.6957L91.4844 104.254C89.788 105.272 87.2252 105.383 85.7556 104.504Z" fill="black"/>
</g>
<path d="M85.7556 104.449L61.357 89.44C61.0818 89.3063 60.8452 89.0975 60.6714 88.8349C60.4976 88.5723 60.3929 88.2654 60.3682 87.9458V85.9952C60.3682 85.313 60.8535 86.4757 61.7698 85.9376L83.1792 77.2127C84.8757 76.175 87.443 76.0645 88.9126 76.9629L105.305 87.1339C105.795 87.4366 106.154 86.173 106.281 86.567C106.321 86.7015 106.281 88.4887 106.281 88.6281C106.281 89.3247 105.827 90.0694 104.879 90.6411L91.4663 104.194C89.7881 105.232 87.2253 105.348 85.7556 104.449Z" fill="url(#paint1_linear)"/>
<path d="M85.7556 102.534L61.3568 87.5246C59.8917 86.6261 60.0732 85.0599 61.7696 84.0221L83.1792 75.2972C84.8756 74.2594 87.4429 74.1489 88.9126 75.0474L105.305 85.2232C106.775 86.1216 106.594 87.6879 104.897 88.7257L91.4844 102.284C89.788 103.322 87.2252 103.432 85.7556 102.534Z" fill="url(#paint2_linear)"/>
<path style="mix-blend-mode:multiply" opacity="0.82" d="M105.306 85.2231L88.9134 75.0474C87.4437 74.1489 84.8764 74.2595 83.18 75.2972L72.3936 79.6932C72.4995 79.7837 72.6117 79.8656 72.7292 79.9382L97.1234 94.9471C97.4884 95.1598 97.8813 95.3136 98.2891 95.4036L104.898 88.7255C106.594 87.6877 106.776 86.1215 105.306 85.2231Z" fill="url(#paint3_linear)"/>
<path style="mix-blend-mode:screen" opacity="0.6" d="M104.898 88.3985L91.4856 101.957C89.7892 102.994 87.2264 103.105 85.7568 102.206L61.3581 87.207C61.1024 87.0771 60.8799 86.8841 60.7094 86.6441C60.5389 86.4042 60.4254 86.1243 60.3783 85.8281C60.3012 86.4623 60.6233 87.0821 61.3581 87.5289L85.7568 102.538C87.2264 103.436 89.7892 103.326 91.4856 102.288L104.898 88.73C105.887 88.1246 106.359 87.3367 106.286 86.6064C106.214 87.231 105.742 87.8844 104.898 88.3985Z" fill="url(#paint4_radial)"/>
<path d="M117.625 102.615L57.7144 65.9478C54.6481 64.074 52.167 59.0486 52.167 54.7247V6.20014C52.167 1.87617 54.6481 -0.112849 57.7144 1.76087L117.625 38.4185C120.691 40.2922 123.172 45.3176 123.172 49.6416V98.1661C123.172 102.5 120.691 104.503 117.625 102.615Z" fill="url(#paint5_linear)"/>
<path d="M118.342 99.2196L59.2703 63.095C56.8073 61.4327 55.2832 58.1176 55.2832 54.7257V5.87414C55.2823 5.69058 55.3274 5.51006 55.4139 5.35099C55.5004 5.19191 55.6251 5.05997 55.7755 4.96864C55.9258 4.8773 56.0963 4.82984 56.2696 4.83108C56.4429 4.83232 56.6128 4.88223 56.7619 4.97571L56.9343 5.08141L116.069 41.2733C119.004 43.0653 120.056 46.2507 120.056 49.6426V98.3404C120.054 98.536 120.003 98.7275 119.909 98.8959C119.815 99.0644 119.682 99.2041 119.521 99.3011C119.361 99.3981 119.18 99.4492 118.995 99.4492C118.81 99.4493 118.629 99.3983 118.469 99.3013L118.342 99.2196Z" fill="url(#paint6_linear)"/>
<g style="mix-blend-mode:multiply">
<path d="M116.069 41.273L56.9343 5.08141L56.7619 4.97571C56.6128 4.88223 56.4429 4.83232 56.2696 4.83108C56.0963 4.82984 55.9258 4.8773 55.7755 4.96864C55.6251 5.05997 55.5004 5.19191 55.4139 5.35098C55.3274 5.51006 55.2823 5.69058 55.2832 5.87414V54.7254C55.2832 58.1173 56.8073 61.4516 59.2703 63.0947L118.342 99.2191L118.469 99.2959C118.629 99.3929 118.81 99.4439 118.995 99.4438C119.18 99.4438 119.361 99.3928 119.521 99.2957C119.682 99.1987 119.815 99.059 119.909 98.8906C120.003 98.7221 120.054 98.5306 120.056 98.335V49.6423C120.056 46.2504 119.004 43.0651 116.069 41.273ZM119.435 98.3399C119.435 98.4673 119.387 98.5895 119.302 98.6796C119.217 98.7697 119.101 98.8203 118.981 98.8203C118.901 98.8165 118.824 98.7881 118.759 98.7386L59.5651 62.5182C57.338 61.0192 55.8865 57.954 55.8865 54.7206V5.87414C55.8865 5.7722 55.9247 5.67444 55.9928 5.60236C56.0608 5.53028 56.1531 5.48979 56.2494 5.48979C56.3131 5.49085 56.3755 5.50903 56.4308 5.54263L115.738 41.8448C118.777 43.7041 119.417 47.1296 119.417 49.6423L119.435 98.3399Z" fill="#BCBEC0"/>
</g>
<path d="M119.213 37.535L59.2843 0.867646C58.0732 0.122961 56.9528 -0.0115644 56.0411 0.36318C55.9232 0.40642 54.3764 1.28082 54.2676 1.32406C55.211 0.843622 56.4131 0.925299 57.7194 1.72764L117.625 38.419C120.692 40.2927 123.173 45.3181 123.173 49.6421V98.1667C123.173 100.867 122.207 102.654 120.732 103.163C120.906 103.154 121.074 103.094 121.218 102.99C121.29 102.947 122.969 101.943 123.032 101.895C124.084 101.112 124.738 99.4928 124.738 97.2827V48.7725C124.742 44.4485 122.261 39.4087 119.213 37.535Z" fill="url(#paint7_linear)"/>
<path style="mix-blend-mode:screen" opacity="0.6" d="M117.892 38.2791L57.9771 1.60695C56.7207 0.838238 55.5685 0.73254 54.6387 1.15533C55.5762 1.04406 56.5212 1.27819 57.3149 1.81834L117.225 38.4905C120.292 40.3594 122.773 45.3849 122.773 49.7136V98.2575C122.773 100.809 121.906 102.538 120.568 103.148C122.278 102.86 123.439 101.001 123.439 98.0461V49.5215C123.439 45.1735 120.954 40.148 117.892 38.2791Z" fill="url(#paint8_radial)"/>
<g opacity="0.2">
<path opacity="0.09" d="M84.1277 83.843L86.5136 82.4353C86.6134 82.3776 91.0904 79.788 91.172 79.8409L92.7097 79.0385C93.5203 78.6311 94.4122 78.4382 95.3088 78.4764C96.056 78.484 96.7899 78.687 97.4452 79.0674L108.223 85.5678L110.49 86.9467L123.554 94.826C123.968 95.0765 124.316 95.4334 124.565 95.8637C124.731 96.172 124.825 96.5181 124.838 96.8727C124.86 97.7855 124.33 98.6503 123.377 99.2365L121.027 100.659C120.928 100.721 116.451 103.306 116.364 103.258L114.804 104.022C113.995 104.431 113.105 104.625 112.21 104.589C111.462 104.581 110.728 104.378 110.073 103.998L99.2958 97.4973L97.0279 96.1184L83.9599 88.2343C83.5363 87.9931 83.1798 87.6386 82.9257 87.2061C82.7597 86.8996 82.6663 86.5551 82.6536 86.202C82.64 85.2843 83.1752 84.4291 84.1277 83.843Z" fill="black"/>
<path opacity="0.18" d="M84.3679 84.0457L86.6903 82.6861C86.8854 82.566 91.0765 80.231 91.2262 80.3367L92.714 79.6833C93.34 79.2989 94.4241 79.2749 95.2178 79.2749C95.9411 79.3104 96.647 79.5208 97.2817 79.8899L107.737 86.2078L109.955 87.5434L122.656 95.2065C123.054 95.4505 123.396 95.7873 123.654 96.1915C123.821 96.4829 123.922 96.812 123.948 97.1524C123.998 98.0268 123.495 98.8724 122.556 99.4489L120.233 100.809C120.038 100.924 115.847 103.259 115.698 103.158L114.205 103.811C113.584 104.196 112.495 104.22 111.701 104.22C110.979 104.185 110.275 103.974 109.642 103.605L99.1641 97.2965L96.9506 95.956L84.25 88.2977C83.8535 88.0522 83.514 87.7156 83.2566 87.3128C83.0887 87.0213 82.9877 86.6922 82.9618 86.3519C82.9255 85.4679 83.429 84.6223 84.3679 84.0457Z" fill="black"/>
<path opacity="0.27" d="M84.6042 84.2477L86.8721 82.9409C87.1624 82.7583 91.0679 80.678 91.3219 80.8317L92.7643 80.3225C93.3222 79.9813 94.4698 80.0726 95.1774 80.0726C95.8734 80.1345 96.5491 80.3523 97.1596 80.7116L107.302 86.8469L109.452 88.1441L121.753 95.5814C122.136 95.821 122.469 96.1396 122.733 96.5183C122.906 96.7902 123.016 97.1012 123.055 97.4263C123.128 98.2671 122.651 99.0935 121.731 99.6556L119.463 100.967C119.172 101.145 115.267 103.23 115.013 103.072L113.571 103.581C113.017 103.922 111.865 103.831 111.162 103.831C110.464 103.769 109.787 103.552 109.175 103.192L99.0329 97.0564L96.8829 95.7592L84.586 88.3219C84.2012 88.0838 83.8662 87.765 83.6017 87.385C83.4308 87.1121 83.3207 86.8016 83.2797 86.477C83.2071 85.6362 83.6834 84.805 84.6042 84.2477Z" fill="black"/>
<path opacity="0.36" d="M84.8443 84.4489L87.0352 83.1902C87.4253 82.95 91.0449 81.1195 91.3806 81.3261L92.7777 80.961C93.263 80.6631 94.4786 80.8745 95.0955 80.8745C95.7602 80.9653 96.4023 81.1904 96.987 81.5375L106.812 87.4853L108.894 88.744L120.814 95.9505C121.18 96.1883 121.507 96.4886 121.78 96.8393C121.954 97.0951 122.072 97.389 122.125 97.6993C122.225 98.5016 121.776 99.3088 120.869 99.8613L118.696 101.139C118.306 101.375 114.686 103.21 114.35 103.003L112.953 103.368C112.468 103.662 111.252 103.455 110.636 103.455C109.965 103.367 109.316 103.141 108.726 102.792L98.9012 96.8153L96.8192 95.5566L84.9033 88.3501C84.5342 88.1167 84.2058 87.8177 83.9326 87.4661C83.7585 87.2103 83.6407 86.9164 83.5879 86.6061C83.4881 85.8038 83.9372 85.0014 84.8443 84.4489Z" fill="black"/>
<path opacity="0.45" d="M85.0809 84.647L87.2128 83.4411C87.6981 83.1432 91.032 81.5626 91.4493 81.822L92.8101 81.601C93.2274 81.3464 94.5065 81.6731 95.0372 81.6731C95.6747 81.7903 96.2884 82.0227 96.8516 82.3601L106.377 88.1254L108.386 89.3409L119.917 96.3362C120.273 96.5638 120.595 96.8455 120.874 97.1721C121.051 97.411 121.176 97.6882 121.241 97.9841C121.368 98.748 120.942 99.5359 120.057 100.079L117.925 101.285C117.44 101.583 114.106 103.163 113.684 102.904L112.324 103.125C111.906 103.379 110.627 103.053 110.096 103.053C109.459 102.934 108.846 102.702 108.282 102.366L98.7567 96.6004L96.7563 95.3753L85.2215 88.38C84.8656 88.1524 84.5432 87.8708 84.2644 87.5441C84.0864 87.3058 83.9609 87.0284 83.897 86.7321C83.77 85.9778 84.1964 85.1899 85.0809 84.647Z" fill="black"/>
<path opacity="0.55" d="M85.3211 84.8481L87.385 83.6903C87.9701 83.3347 91.0137 82.0087 91.5217 82.3162L92.8235 82.2441C93.1728 82.0279 94.5154 82.4699 94.9554 82.4699C95.5708 82.6149 96.1625 82.8562 96.7108 83.1858L105.905 88.7638L107.846 89.9409L119.005 96.7103C119.347 96.9336 119.664 97.198 119.948 97.4983C120.126 97.7219 120.259 97.9819 120.338 98.2622C120.488 98.9925 120.093 99.7564 119.223 100.285L117.159 101.443C116.574 101.798 113.53 103.129 113.022 102.822L111.72 102.894C111.371 103.105 110.024 102.663 109.584 102.663C108.97 102.52 108.38 102.28 107.833 101.952L98.6386 96.374L96.6927 95.1921L85.5388 88.4227C85.1961 88.2023 84.8793 87.9394 84.5954 87.6395C84.4185 87.4143 84.2845 87.1549 84.2007 86.8756C84.0511 86.1453 84.4502 85.3814 85.3211 84.8481Z" fill="black"/>
<path opacity="0.64" d="M85.5557 85.0497L87.556 83.9447C88.2364 83.5267 90.9988 82.4506 91.5885 82.8109L92.8449 82.883C93.1216 82.7148 94.5323 83.2673 94.8861 83.2673C95.4723 83.4395 96.036 83.688 96.5644 84.0072L105.441 89.4025L107.315 90.5411L118.092 97.0894C118.415 97.3037 118.719 97.5498 118.999 97.8245C119.181 98.0319 119.323 98.2751 119.416 98.5403C119.593 99.2321 119.221 99.9816 118.369 100.496L116.368 101.601C115.688 102.019 112.925 103.095 112.336 102.735L111.079 102.662C110.803 102.831 109.392 102.278 109.038 102.278C108.453 102.106 107.891 101.857 107.364 101.538L98.5012 96.143L96.6279 95.0043L85.8551 88.456C85.5238 88.2427 85.2125 87.9966 84.9252 87.7209C84.7433 87.5135 84.6015 87.2703 84.5079 87.0051C84.331 86.3133 84.7029 85.5734 85.5557 85.0497Z" fill="black"/>
<path opacity="0.73" d="M85.7968 85.2507L87.7337 84.1938C88.5093 83.7133 90.9859 82.8918 91.6572 83.305L92.8683 83.5212C93.077 83.3963 94.5511 84.0689 94.8142 84.0689C95.3702 84.2675 95.9065 84.5233 96.4154 84.8328L104.979 90.0407L106.794 91.1409L117.19 97.4634C117.512 97.6619 117.816 97.8919 118.097 98.1504C118.304 98.3222 118.461 98.5519 118.551 98.8134C118.75 99.4716 118.406 100.192 117.566 100.706L115.63 101.758C114.854 102.239 112.377 103.06 111.706 102.652L110.495 102.431C110.286 102.561 108.812 101.888 108.549 101.888C107.993 101.69 107.457 101.434 106.948 101.124L98.384 95.9116L96.5696 94.8162L86.1778 88.4889C85.8564 88.2913 85.5527 88.0629 85.2706 87.8067C85.0614 87.6355 84.9038 87.4034 84.8171 87.1389C84.6129 86.4855 84.9577 85.7648 85.7968 85.2507Z" fill="black"/>
<path opacity="0.82" d="M86.0323 85.4489L87.9057 84.4448C88.7811 83.9115 90.9719 83.335 91.7294 83.801L92.8906 84.1614C93.0267 84.0797 94.5689 84.8676 94.7458 84.8676C95.2701 85.0933 95.7793 85.3566 96.2699 85.6555L104.516 90.6809L106.253 91.7379L116.264 97.8395C116.579 98.0311 116.881 98.2429 117.171 98.4736C117.372 98.6334 117.529 98.8475 117.625 99.0934C117.852 99.7132 117.53 100.415 116.718 100.919L114.849 101.923C113.974 102.456 111.783 103.028 111.025 102.567L109.864 102.202C109.723 102.288 108.186 101.5 108.009 101.5C107.485 101.275 106.975 101.011 106.485 100.712L98.2385 95.6871L96.5012 94.6301L86.4904 88.5237C86.1741 88.3356 85.871 88.1236 85.5833 87.8896C85.3815 87.7327 85.2246 87.5199 85.1297 87.2746C84.8938 86.6548 85.1932 85.9534 86.0323 85.4489Z" fill="black"/>
<path opacity="0.91" d="M86.274 85.6504L88.0883 84.6895C89.0636 84.0938 90.9641 83.7719 91.8078 84.286L92.9055 84.8048C92.9735 84.7616 94.5792 85.6648 94.6654 85.6648C94.7516 85.6648 96.0579 86.4432 96.1124 86.4768L104.046 91.3196L105.71 92.3382L115.345 98.2188C115.385 98.2428 116.211 98.7617 116.229 98.8001C116.44 98.9393 116.611 99.137 116.724 99.3719C116.978 99.9532 116.683 100.635 115.88 101.125L114.066 102.086C113.095 102.677 111.19 103.004 110.351 102.485L109.235 101.976C109.167 102.014 107.561 101.111 107.47 101.111C107.38 101.111 106.078 100.333 106.023 100.299L98.0946 95.4563L96.4254 94.4377L86.7956 88.5619C86.7502 88.5331 85.9292 88.0142 85.8884 87.9758C85.6772 87.8383 85.5073 87.64 85.3985 87.404C85.1944 86.8227 85.4711 86.1405 86.274 85.6504Z" fill="black"/>
<path opacity="0.2" d="M109.689 102.4L97.9768 95.2315L86.2515 88.0634C85.3443 87.4965 85.4441 86.5068 86.5101 85.8534L88.2564 84.9501C89.3223 84.2968 90.9416 84.2247 91.8851 84.7916L103.61 91.9597L115.331 99.1278C116.238 99.6947 116.143 100.684 115.073 101.338L113.317 102.241C112.242 102.894 110.623 102.966 109.689 102.4Z" fill="black"/>
</g>
<path d="M126.746 133.21L108.448 122.021C106.384 120.757 104.711 117.37 104.711 114.458V104.168C104.711 102.688 103.559 102.361 104.257 101.828C104.28 101.828 105.89 101.035 105.917 101.021C106.32 100.828 106.76 100.741 107.201 100.769C107.642 100.796 108.07 100.937 108.448 101.179L126.746 112.369C128.81 113.627 130.484 117.014 130.484 119.931V130.217C130.484 131.769 130.03 132.869 129.259 133.378C129.214 133.407 127.277 134.382 127.227 134.401C126.56 134.637 127.649 133.762 126.746 133.21Z" fill="url(#paint9_linear)"/>
<path style="mix-blend-mode:screen" opacity="0.6" d="M125.326 133.896L107.024 122.706C104.96 121.447 103.286 118.06 103.286 115.144V104.858C103.286 101.941 104.96 100.601 107.024 101.864L125.326 113.054C127.39 114.317 129.059 117.705 129.059 120.616V130.907C129.077 133.819 127.39 135.159 125.326 133.896Z" fill="url(#paint10_radial)"/>
<path d="M124.995 134.084L106.693 122.895C104.629 121.631 102.955 118.244 102.955 115.333V105.037C102.955 102.121 104.629 100.781 106.693 102.044L124.995 113.243C127.059 114.507 128.733 117.889 128.733 120.805V131.091C128.737 134.008 127.064 135.348 124.995 134.084Z" fill="url(#paint11_linear)"/>
<path d="M103.473 115.673V105.324C103.473 102.768 104.938 101.591 106.748 102.701L124.95 113.833C126.765 114.938 128.225 117.907 128.225 120.463V130.812C128.225 133.368 126.76 134.54 124.95 133.435L106.748 122.303C104.938 121.198 103.473 118.229 103.473 115.673Z" fill="url(#paint12_linear)"/>
<path d="M104.198 115.99V105.901C104.198 103.758 105.427 102.778 106.942 103.705L124.755 114.597C126.27 115.524 127.477 118.008 127.477 120.146V130.235C127.477 132.373 126.247 133.358 124.755 132.431L106.942 121.539C105.427 120.612 104.198 118.128 104.198 115.99Z" fill="url(#paint13_linear)"/>
<path d="M107.146 104.273C105.722 103.398 104.565 104.1 104.565 105.834V116.5C104.616 117.447 104.876 118.367 105.324 119.188C105.772 120.008 106.397 120.705 107.146 121.223L124.542 131.865C125.966 132.739 127.127 132.038 127.127 130.303V119.637C127.076 118.691 126.815 117.77 126.366 116.949C125.917 116.129 125.292 115.432 124.542 114.915L107.146 104.273Z" fill="url(#paint14_linear)"/>
<g opacity="0.5">
<g opacity="0.5">
<path opacity="0.5" d="M106.094 113.9V114.775L116.554 121.049V120.18L106.094 113.9Z" fill="#D1B4E3"/>
<path opacity="0.6" d="M111.107 108.943L106.095 105.921V106.795L111.107 109.817V108.943Z" fill="#D1B4E3"/>
<path opacity="0.6" d="M111.913 109.438V110.312L118.445 114.271V113.397L111.913 109.438Z" fill="#D1B4E3"/>
<path opacity="0.6" d="M117.891 119.944V119.075L112.217 115.615V116.485L117.891 119.944Z" fill="#D1B4E3"/>
<path opacity="0.6" d="M114.336 114.9L106.094 109.899V110.773L114.336 115.774V114.9Z" fill="#D1B4E3"/>
<path opacity="0.6" d="M111.106 110.974L106.094 107.952V108.822L111.106 111.844V110.974Z" fill="#D1B4E3"/>
<path opacity="0.6" d="M111.913 111.47V112.339L118.445 116.298V115.429L111.913 111.47Z" fill="#D1B4E3"/>
<path opacity="0.6" d="M115.147 115.395V116.269L119.134 118.777V117.902L115.147 115.395Z" fill="#D1B4E3"/>
<path opacity="0.6" d="M119.252 116.798L125.756 120.925V120.055L119.252 115.923V116.798Z" fill="#D1B4E3"/>
<path opacity="0.6" d="M119.942 119.272L125.757 122.875V122.001L119.942 118.397V119.272Z" fill="#D1B4E3"/>
<path opacity="0.6" d="M111.41 115.12L106.094 111.911V112.781L111.41 115.99V115.12Z" fill="#D1B4E3"/>
<path opacity="0.6" d="M118.704 120.439L125.744 124.965V124.091L118.704 119.57V120.439Z" fill="#D1B4E3"/>
</g>
</g>
<g opacity="0.8">
<path opacity="0.7" d="M99.7278 71.9387V71.1172L93.7812 67.5527V68.3694L99.7278 71.9387Z" fill="#D1B4E3"/>
<path opacity="0.8" d="M95.7765 66.4238L83.0215 58.6646V59.4861L95.7765 67.2454V66.4238Z" fill="#D1B4E3"/>
<path opacity="0.8" d="M103.234 66.5253L83.0215 54.2451V55.379L103.234 67.6592V66.5253Z" fill="#D1B4E3"/>
<path opacity="0.8" d="M92.7283 62.8574L83.0215 56.9575V57.7791L92.7283 63.679V62.8574Z" fill="#D1B4E3"/>
<path opacity="0.8" d="M93.4951 63.3242V64.1458L110.931 74.6431V73.8215L93.4951 63.3242Z" fill="#D1B4E3"/>
<path opacity="0.8" d="M96.5391 66.8901V67.7117L105.361 73.0637V72.2422L96.5391 66.8901Z" fill="#D1B4E3"/>
<path opacity="0.8" d="M103.995 68.1255L117.331 76.1296V74.9958L103.995 66.9917V68.1255Z" fill="#D1B4E3"/>
<path opacity="0.8" d="M111.698 75.1101L117.332 78.5261V77.7046L111.698 74.2886V75.1101Z" fill="#D1B4E3"/>
<path opacity="0.8" d="M106.123 73.5296L117.331 80.2317V79.4149L106.123 72.708V73.5296Z" fill="#D1B4E3"/>
<path opacity="0.7" d="M93.0141 67.0865L83.0215 61.0088V61.8304L93.0141 67.9033V67.0865Z" fill="#D1B4E3"/>
<path opacity="0.7" d="M100.489 72.4055L106.581 76.0857V75.2641L100.489 71.584V72.4055Z" fill="#D1B4E3"/>
</g>
<g opacity="0.8">
<path opacity="0.7" d="M99.7278 83.2058V82.3842L93.7812 78.8145V79.636L99.7278 83.2058Z" fill="#D1B4E3"/>
<path opacity="0.8" d="M95.7765 77.6904L83.0215 69.9268V70.7483L95.7765 78.512V77.6904Z" fill="#D1B4E3"/>
<path opacity="0.8" d="M94.6152 72.598L83.0215 65.5068V66.6454L94.6152 73.7366V72.598Z" fill="#D1B4E3"/>
<path opacity="0.8" d="M90.3878 72.7314L83.0215 68.2202V69.0417L90.3878 73.5481V72.7314Z" fill="#D1B4E3"/>
<path opacity="0.8" d="M91.1504 73.1982V74.0198L110.931 85.9065V85.0897L91.1504 73.1982Z" fill="#D1B4E3"/>
<path opacity="0.8" d="M96.5391 78.1558V78.9773L102.898 82.8738V82.0522L96.5391 78.1558Z" fill="#D1B4E3"/>
<path opacity="0.8" d="M111.698 86.3772L117.332 89.793V88.9715L111.698 85.5557V86.3772Z" fill="#D1B4E3"/>
<path opacity="0.8" d="M103.66 83.3401L112.678 88.6877V87.8661L103.66 82.5186V83.3401Z" fill="#D1B4E3"/>
<path opacity="0.7" d="M93.0141 78.3481L83.0215 72.2754V73.0969L93.0141 79.1697V78.3481Z" fill="#D1B4E3"/>
<path opacity="0.7" d="M100.489 83.6722L106.581 87.3525V86.5309L100.489 82.8506V83.6722Z" fill="#D1B4E3"/>
<g opacity="0.8">
<path opacity="0.8" d="M108.019 80.6597L95.3779 73.064V74.2026L108.019 81.7983V80.6597Z" fill="#D1B4E3"/>
<path opacity="0.8" d="M108.795 81.1265V82.2651L117.332 87.3962V86.2576L108.795 81.1265Z" fill="#D1B4E3"/>
</g>
</g>
<path d="M79.5651 71.0662L59.3984 58.7284V21.2637L79.5651 33.6014V71.0662Z" fill="url(#paint15_linear)"/>
<path opacity="0.9" d="M59.793 21.4497L79.5922 33.5041V53.313L59.793 21.4497Z" fill="url(#paint16_linear)"/>
<path opacity="0.8" d="M60.791 22.0078L79.5924 33.505V39.7412L60.791 22.0078Z" fill="url(#paint17_linear)"/>
<path d="M117.354 71.6274L82.9854 50.7091V35.2773L117.354 56.1957V71.6274Z" fill="url(#paint18_linear)"/>
<path opacity="0.9" d="M92.4238 41.0186L117.353 56.2243V69.7678L92.4238 41.0186Z" fill="url(#paint19_linear)"/>
<path opacity="0.8" d="M92.293 40.957L117.354 56.2252V60.0398L92.293 40.957Z" fill="url(#paint20_linear)"/>
<path d="M72.0137 22.829V21.3396C72.0137 20.7246 72.372 20.4364 72.8075 20.7054L101.361 38.2947C101.602 38.4783 101.798 38.7191 101.935 38.9978C102.072 39.2764 102.146 39.5852 102.15 39.8994V41.3887C102.15 42.0037 101.796 42.2872 101.361 42.0229L72.8075 24.4337C72.5662 24.2503 72.3688 24.0096 72.231 23.731C72.0932 23.4524 72.0187 23.1435 72.0137 22.829Z" fill="url(#paint21_linear)"/>
<path d="M101.81 41.7961L73.261 24.207C73.0198 24.0236 72.8224 23.7829 72.6846 23.5043C72.5468 23.2257 72.4723 22.9168 72.4673 22.6023V21.1129C72.463 20.946 72.4989 20.7807 72.5716 20.6325C72.2495 20.5748 72.0137 20.8535 72.0137 21.3532V22.8281C72.0187 23.1426 72.0932 23.4515 72.231 23.7301C72.3688 24.0087 72.5662 24.2494 72.8075 24.4328L101.357 42.0459C101.409 42.091 101.47 42.1231 101.536 42.1399C101.601 42.1567 101.67 42.1577 101.736 42.143C101.802 42.1283 101.864 42.0981 101.918 42.0547C101.971 42.0113 102.015 41.9558 102.046 41.8921C101.963 41.8734 101.884 41.8409 101.81 41.7961Z" fill="#9F79C8"/>
<path opacity="0.8" d="M68.1885 19.9026C68.1885 20.6134 67.735 20.8968 67.1272 20.5414C66.8216 20.3307 66.5669 20.0472 66.3834 19.7136C66.1999 19.38 66.0927 19.0056 66.0703 18.6202C66.0703 17.9142 66.5239 17.626 67.1272 17.9814C67.4333 18.1919 67.6887 18.4752 67.873 18.8087C68.0573 19.1423 68.1653 19.5169 68.1885 19.9026Z" fill="url(#paint22_linear)"/>
<path d="M64.8506 17.9323C64.8506 18.6385 64.3744 18.9268 63.7893 18.5713C63.4845 18.3597 63.2303 18.0759 63.0469 17.7424C62.8635 17.4089 62.7558 17.0348 62.7324 16.6496C62.7324 15.9386 63.2087 15.6552 63.7893 16.0107C64.0954 16.2211 64.3508 16.5045 64.5351 16.8382C64.7194 17.1718 64.8274 17.5465 64.8506 17.9323Z" fill="url(#paint23_linear)"/>
<path d="M61.4845 15.9091C61.4845 16.6199 61.0309 16.908 60.4231 16.5478C60.1173 16.3375 59.8624 16.0541 59.6788 15.7204C59.4953 15.3868 59.3882 15.0123 59.3662 14.6269C59.3662 13.9161 59.8425 13.6328 60.4231 13.9882C60.7297 14.198 60.9855 14.4811 61.1699 14.8148C61.3542 15.1485 61.462 15.5233 61.4845 15.9091Z" fill="url(#paint24_linear)"/>
<path d="M86.4912 40.25L88.2375 41.3165L89.5983 52.1165L88.3101 51.3286L88.0743 49.2051V49.2531L86.6046 48.3547L86.3733 50.1659L85.1758 49.4309L86.4912 40.25ZM87.8973 47.783L87.3213 42.4984H87.2986L86.7361 47.0864L87.8973 47.783Z" fill="white"/>
<path d="M90.1836 42.5254L92.1567 43.7265C92.7593 44.0816 93.2582 44.6051 93.5991 45.24C93.9298 45.8954 94.0954 46.6301 94.0799 47.3732V52.4227C94.0799 53.2299 93.9212 53.744 93.5991 53.9698C93.2771 54.1956 92.7963 54.1043 92.1567 53.7104L90.1836 52.5092V42.5254ZM92.134 52.2738C92.3427 52.4035 92.506 52.4227 92.6194 52.3411C92.7328 52.2594 92.7872 52.048 92.7872 51.7021V46.5132C92.7983 46.2209 92.7407 45.9303 92.6194 45.6676C92.5066 45.4474 92.3387 45.2645 92.134 45.1391L91.4763 44.7403V51.8702L92.134 52.2738Z" fill="white"/>
<path d="M65.1176 44.8613L67.5171 46.3027L69.3541 61.134L67.5806 60.0482L67.2585 57.1319V57.1704L65.2355 55.9788L64.9135 58.4676L63.2715 57.4634L65.1176 44.8613ZM67.0499 55.2053L66.2606 47.9506H66.2289L65.4533 54.254L67.0499 55.2053Z" fill="white"/>
<path d="M70.2246 47.9731L72.9462 49.6259C73.7757 50.1099 74.4619 50.8284 74.9284 51.7014C75.3826 52.6003 75.6107 53.608 75.5906 54.6273V61.5601C75.5906 62.67 75.3684 63.3762 74.9284 63.6789C74.4884 63.9816 73.8262 63.8711 72.9462 63.333L70.2246 61.6754V47.9731ZM72.8963 61.3535C73.1866 61.5313 73.4088 61.5649 73.5676 61.4496C73.7264 61.3343 73.7989 61.0461 73.7989 60.5752V53.4454C73.8131 53.0452 73.7336 52.6474 73.5676 52.2875C73.4122 51.9853 73.1796 51.7355 72.8963 51.5669L71.9891 51.0144V60.7818L72.8963 61.3535Z" fill="white"/>
<path d="M111.547 47.1254L117.471 50.7478V49.0375L111.547 45.415V47.1254Z" fill="#9F79C8"/>
<path d="M104 42.4404L109.924 46.063V44.3526L104 40.73V42.4404Z" fill="#9F79C8"/>
<g style="mix-blend-mode:multiply" opacity="0.3">
<path style="mix-blend-mode:multiply" opacity="0.09" d="M109.546 36.0985C105.822 33.6338 101.137 35.1376 101.137 41.071V66.1645C101.137 69.4267 103.314 73.4 105.999 75.0431L123.635 85.9203C126.32 87.5586 129.482 86.0788 129.482 82.8214V53.4424C129.482 50.1802 126.306 46.3703 123.635 44.732L109.546 36.0985Z" fill="url(#paint25_linear)"/>
<path style="mix-blend-mode:multiply" opacity="0.18" d="M109.41 36.602C105.818 34.2382 101.404 35.6987 101.404 41.344V66.4808C101.404 69.7142 103.559 73.6491 106.217 75.273L123.603 86.0013C126.261 87.63 129.305 86.1791 129.305 82.9457V53.9556C129.305 50.727 126.261 46.9363 123.603 45.3076L109.41 36.602Z" fill="url(#paint26_linear)"/>
<path style="mix-blend-mode:multiply" opacity="0.27" d="M109.279 37.1117C105.813 34.844 101.672 36.2709 101.672 41.6183V66.8032C101.672 70.0029 103.808 73.8993 106.439 75.5088L123.58 86.0786C126.211 87.6881 129.137 86.266 129.137 83.0662V54.4702C129.137 51.2704 126.211 47.5037 123.58 45.8942L109.279 37.1117Z" fill="url(#paint27_linear)"/>
<path style="mix-blend-mode:multiply" opacity="0.36" d="M109.142 37.6149C105.808 35.4481 101.943 36.8462 101.943 41.8908V67.1236C101.943 70.2897 104.053 74.1476 106.661 75.7379L123.557 86.1683C126.165 87.7633 128.968 86.3701 128.968 83.2039V54.978C128.968 51.8119 126.165 48.0693 123.557 46.479L109.142 37.6149Z" fill="url(#paint28_linear)"/>
<path style="mix-blend-mode:multiply" opacity="0.45" d="M109.006 38.1252C105.804 36.0545 102.202 37.4237 102.202 42.1657V67.4417C102.202 70.5789 104.293 74.3984 106.87 75.9743L123.53 86.2557C126.106 87.8316 128.792 86.4719 128.792 83.3346V55.4931C128.792 52.3606 126.106 48.6372 123.53 47.0614L109.006 38.1252Z" fill="url(#paint29_linear)"/>
<path style="mix-blend-mode:multiply" opacity="0.55" d="M108.875 38.6349C105.8 36.6603 102.479 38.0007 102.479 42.4448V67.764C102.479 70.8629 104.548 74.6439 107.102 76.2054L123.517 86.3427C126.071 87.9041 128.634 86.5685 128.634 83.46V56.0317C128.634 52.928 126.071 49.2286 123.517 47.6672L108.875 38.6349Z" fill="url(#paint30_linear)"/>
<path style="mix-blend-mode:multiply" opacity="0.64" d="M108.739 39.1396C105.795 37.2658 102.747 38.5726 102.747 42.7188V68.0812C102.747 71.1512 104.793 74.8938 107.319 76.4408L123.494 86.4243C126.021 87.9714 128.484 86.6646 128.484 83.5945V56.5122C128.484 53.4374 126.039 49.7621 123.494 48.2198L108.739 39.1396Z" fill="url(#paint31_linear)"/>
<path style="mix-blend-mode:multiply" opacity="0.73" d="M108.607 39.6498C105.791 37.8721 103.015 39.1693 103.015 43.0128V68.4234C103.015 71.4598 105.042 75.1496 107.551 76.6918L123.481 86.5312C125.98 88.059 128.307 86.7859 128.307 83.7447V57.0321C128.307 53.9957 125.98 50.3396 123.481 48.8118L108.607 39.6498Z" fill="url(#paint32_linear)"/>
<path style="mix-blend-mode:multiply" opacity="0.82" d="M108.471 40.1782C105.791 38.5015 103.282 39.7506 103.282 43.2915V68.755C103.282 71.7626 105.287 75.4284 107.764 76.9225L123.449 86.6083C125.926 88.1217 128.125 86.8773 128.125 83.8698V57.5463C128.125 54.5387 125.926 50.9065 123.449 49.3787L108.471 40.1782Z" fill="url(#paint33_linear)"/>
<path style="mix-blend-mode:multiply" opacity="0.91" d="M108.335 40.6577C105.786 39.0771 103.55 40.2926 103.55 43.5404V69.0373C103.55 72.0112 105.532 75.6385 107.981 77.1327L123.426 86.6742C125.876 88.1684 127.962 86.9529 127.962 83.979V58.0352C127.962 55.0565 125.88 51.4484 123.426 49.9542L108.335 40.6577Z" fill="url(#paint34_linear)"/>
<path style="mix-blend-mode:multiply" opacity="0.3" d="M108.212 41.1722C105.79 39.6876 103.826 40.8743 103.826 43.8194V69.3598C103.826 72.3049 105.79 75.8939 108.212 77.3736L123.408 86.7807C125.825 88.2653 127.789 87.0786 127.789 84.1335V58.5738C127.789 55.6287 125.825 52.0398 123.408 50.56L108.212 41.1722Z" fill="url(#paint35_linear)"/>
</g>
<path d="M126.942 112.917L108.49 101.631C106.408 100.358 104.72 96.9418 104.72 94.0015V41.9407C104.72 40.4465 103.559 40.115 104.267 39.5769C104.294 39.5769 105.913 38.7794 105.945 38.7649C106.35 38.5685 106.794 38.4802 107.238 38.5079C107.683 38.5355 108.114 38.6782 108.494 38.9235L126.946 50.2091C129.028 51.4823 130.716 54.8982 130.716 57.8386V109.899C130.716 111.461 130.239 112.575 129.482 113.085C129.437 113.114 127.486 114.098 127.436 114.113C126.756 114.353 127.853 113.474 126.942 112.917Z" fill="url(#paint36_linear)"/>
<path style="mix-blend-mode:color-dodge" d="M126.773 50.266L108.316 38.9804C107.332 38.3798 125.752 50.6263 125.752 50.6263C127.834 51.8995 129.522 55.3155 129.522 58.2558C129.522 58.2558 130.542 111.518 130.542 109.956V57.8954C130.542 54.9551 128.855 51.5392 126.773 50.266Z" fill="url(#paint37_radial)"/>
<path style="mix-blend-mode:screen" opacity="0.6" d="M125.508 113.608L107.056 102.322C104.974 101.049 103.282 97.6331 103.282 94.6928V42.6321C103.282 39.6966 104.974 38.3417 107.056 39.6149L125.508 50.9005C127.59 52.1737 129.278 55.5896 129.278 58.5299V110.591C129.278 113.531 127.59 114.881 125.508 113.608Z" fill="url(#paint38_radial)"/>
<path d="M125.18 113.795L106.723 102.51C104.641 101.237 102.954 97.8206 102.954 94.8803V42.8243C102.954 39.884 104.641 38.5292 106.723 39.8023L125.18 51.0879C127.262 52.3611 128.949 55.7771 128.949 58.7174V110.802C128.949 113.718 127.262 115.069 125.18 113.795Z" fill="url(#paint39_linear)"/>
<path d="M103.468 95.2308V43.1027C103.468 40.5276 104.951 39.3409 106.774 40.4603L125.131 51.7075C126.946 52.8269 128.438 55.82 128.438 58.3952V110.494C128.438 113.074 126.959 114.256 125.131 113.142L106.774 101.914C104.951 100.799 103.468 97.83 103.468 95.2308Z" fill="url(#paint40_linear)"/>
<path d="M104.202 95.5488V43.6851C104.202 41.5279 105.44 40.5382 106.969 41.4703L124.936 52.458C126.464 53.3948 127.703 55.8979 127.703 58.0551V109.914C127.703 112.076 126.464 113.066 124.936 112.129L106.969 101.146C105.44 100.233 104.202 97.7059 104.202 95.5488Z" fill="url(#paint41_linear)"/>
<path d="M107.178 42.0473C105.741 41.1633 104.57 41.8695 104.57 43.6183V96.0633C104.621 97.0181 104.884 97.9467 105.337 98.7739C105.79 99.6011 106.421 100.304 107.178 100.824L124.728 111.557C126.17 112.437 127.336 111.735 127.336 109.982V57.5415C127.286 56.5865 127.023 55.6575 126.57 54.8302C126.117 54.0029 125.486 53.3006 124.728 52.7803L107.178 42.0473Z" fill="url(#paint42_linear)"/>
<path d="M123.33 55.2734L125.598 56.6666C125.684 56.7195 125.752 56.6666 125.752 56.5706C125.75 56.513 125.735 56.4569 125.708 56.4068C125.681 56.3567 125.643 56.3141 125.598 56.2823L123.33 54.8891C123.244 54.8362 123.176 54.8891 123.176 54.9852C123.178 55.0427 123.193 55.0988 123.22 55.1489C123.247 55.199 123.285 55.2417 123.33 55.2734ZM125.598 57.1423L123.33 55.749C123.244 55.6962 123.176 55.749 123.176 55.8451C123.178 55.9026 123.193 55.9588 123.22 56.0088C123.247 56.0589 123.285 56.1016 123.33 56.1334L125.598 57.5266C125.684 57.5794 125.752 57.5266 125.752 57.4305C125.751 57.3742 125.738 57.3189 125.714 57.2689C125.689 57.2189 125.654 57.1756 125.612 57.1423H125.598ZM125.598 58.0022L123.33 56.609C123.244 56.5561 123.176 56.609 123.176 56.7051C123.178 56.7626 123.193 56.8187 123.22 56.8688C123.247 56.9189 123.285 56.9616 123.33 56.9933L125.598 58.3865C125.684 58.4394 125.752 58.3866 125.752 58.2905C125.751 58.2342 125.738 58.1789 125.714 58.1289C125.689 58.0789 125.654 58.0355 125.612 58.0022H125.598Z" fill="white"/>
<path d="M109.368 46.9317C109.368 47.1862 109.196 47.2919 108.987 47.1622C108.877 47.0866 108.785 46.9846 108.719 46.8645C108.653 46.7443 108.614 46.6095 108.606 46.4707C108.606 46.2161 108.779 46.1104 108.987 46.2401C109.098 46.3158 109.19 46.4178 109.256 46.5379C109.322 46.658 109.361 46.7929 109.368 46.9317Z" fill="white"/>
<path d="M108.212 46.2307C108.212 46.4852 108.044 46.5861 107.835 46.4564C107.724 46.3819 107.631 46.2802 107.565 46.1599C107.499 46.0395 107.461 45.9041 107.454 45.7649C107.454 45.5104 107.622 45.4095 107.835 45.5344C107.945 45.6113 108.036 45.7144 108.101 45.8353C108.167 45.9562 108.204 46.0916 108.212 46.2307Z" fill="white"/>
<path d="M107.078 45.5251C107.078 45.7797 106.91 45.8854 106.697 45.7557C106.587 45.6798 106.496 45.5776 106.431 45.4574C106.365 45.3373 106.327 45.2025 106.32 45.064C106.32 44.8094 106.488 44.7037 106.697 44.8334C106.808 44.9085 106.9 45.0104 106.966 45.1306C107.032 45.2509 107.071 45.3861 107.078 45.5251Z" fill="white"/>
<g style="mix-blend-mode:multiply">
<path d="M124.727 52.7798L107.177 42.0468C105.74 41.1628 104.569 41.869 104.569 43.6178V96.0626C104.62 97.0174 104.883 97.9461 105.336 98.7733C105.789 99.6005 106.42 100.303 107.177 100.824L124.727 111.557C126.169 112.436 127.335 111.735 127.335 109.981V57.541C127.285 56.5859 127.022 55.657 126.569 54.8297C126.116 54.0024 125.485 53.3 124.727 52.7798ZM127.108 109.981C127.131 110.441 127.008 110.896 126.759 111.273C126.656 111.41 126.525 111.519 126.375 111.592C126.226 111.666 126.062 111.701 125.897 111.696C125.523 111.679 125.159 111.56 124.84 111.35L107.304 100.617C106.58 100.119 105.977 99.4466 105.544 98.6553C105.11 97.8641 104.859 96.9759 104.81 96.0626V43.6178C104.81 42.5609 105.263 41.9075 106.021 41.9075C106.395 41.9247 106.759 42.0438 107.078 42.2534L124.627 52.9864C125.351 53.4849 125.955 54.157 126.388 54.9482C126.821 55.7395 127.073 56.6277 127.122 57.541L127.108 109.981Z" fill="#BCBEC0"/>
</g>
<path d="M112.888 49.4749L112.407 49.1818V48.7879C112.507 48.8531 112.613 48.9047 112.725 48.9416C112.754 48.9555 112.786 48.9627 112.818 48.9627C112.85 48.9627 112.881 48.9555 112.911 48.9416C112.971 48.891 113.015 48.8223 113.038 48.7446L113.346 48.9368V52.4824L112.893 52.199L112.888 49.4749Z" fill="white"/>
<path d="M114.059 52.7138C113.939 52.4795 113.878 52.2164 113.882 51.9499V50.0858C113.882 49.8023 113.941 49.6053 114.059 49.5332C114.177 49.4612 114.349 49.4804 114.576 49.6197C114.795 49.7455 114.974 49.9358 115.093 50.1674C115.213 50.4035 115.274 50.6681 115.27 50.9362V52.8003C115.27 53.0854 115.211 53.268 115.093 53.348C114.975 53.4297 114.803 53.4009 114.576 53.2664C114.358 53.1373 114.179 52.9458 114.059 52.7138ZM114.812 52.5553V50.6335C114.818 50.5382 114.799 50.4431 114.757 50.3584C114.716 50.2738 114.653 50.2027 114.576 50.153C114.417 50.0569 114.34 50.1242 114.34 50.3596V52.2814C114.334 52.3767 114.353 52.4721 114.394 52.5568C114.436 52.6416 114.499 52.7126 114.576 52.7619C114.735 52.8532 114.812 52.7859 114.812 52.5553Z" fill="white"/>
<path d="M115.578 51.3633L116.032 51.6322V52.1893L115.578 51.9156V51.3633ZM115.578 53.2843L116.032 53.5533V54.1104L115.578 53.8414V53.2843Z" fill="white"/>
<path d="M116.504 54.2166C116.387 53.9827 116.328 53.7218 116.331 53.4575V53.15L116.785 53.419V53.7313C116.78 53.827 116.8 53.9222 116.842 54.0068C116.885 54.0914 116.948 54.1623 117.025 54.2118C117.102 54.2598 117.161 54.2646 117.202 54.2118C117.243 54.1589 117.261 54.0868 117.261 53.9379V53.6496C117.268 53.5156 117.243 53.3818 117.188 53.2605C117.139 53.1558 117.06 53.0701 116.962 53.0154L116.807 52.9194V52.4149L116.975 52.5158C117.066 52.5734 117.134 52.583 117.179 52.5542C117.225 52.5254 117.247 52.4437 117.247 52.3092V52.0497C117.251 51.9438 117.231 51.8385 117.188 51.7423C117.149 51.6657 117.091 51.6012 117.021 51.5549C116.871 51.4636 116.798 51.5309 116.798 51.7519V51.9825L116.367 51.7182V51.5309C116.367 51.2474 116.422 51.0504 116.54 50.9832C116.658 50.9159 116.821 50.9255 117.034 51.06C117.245 51.1833 117.419 51.3663 117.538 51.5885C117.653 51.8225 117.711 52.0836 117.706 52.3476V52.4725C117.718 52.6152 117.691 52.7586 117.628 52.8857C117.603 52.9274 117.565 52.9595 117.521 52.9776C117.477 52.9957 117.429 52.9988 117.384 52.9866C117.496 53.1071 117.584 53.2511 117.642 53.4094C117.694 53.5751 117.72 53.7488 117.719 53.9235V54.2406C117.719 54.5241 117.66 54.721 117.547 54.7835C117.433 54.8459 117.261 54.8363 117.034 54.697C116.82 54.5896 116.637 54.4238 116.504 54.2166Z" fill="white"/>
<path d="M118.191 55.2307C118.068 54.9977 118.005 54.734 118.01 54.4669V52.6028C118.01 52.3194 118.069 52.1224 118.191 52.0503C118.314 51.9783 118.482 51.9975 118.709 52.1368C118.925 52.266 119.104 52.4554 119.226 52.6845C119.346 52.9205 119.406 53.1851 119.403 53.4532V55.3172C119.403 55.599 119.344 55.7816 119.226 55.8649C119.103 55.9466 118.931 55.9177 118.709 55.7832C118.491 55.6542 118.311 55.4627 118.191 55.2307ZM118.944 55.0722V53.1505C118.95 53.0552 118.931 52.9602 118.89 52.8755C118.848 52.7908 118.785 52.7198 118.709 52.6701C118.55 52.574 118.468 52.6412 118.468 52.8766V54.7983C118.463 54.8941 118.482 54.9895 118.525 55.0742C118.567 55.1589 118.631 55.2297 118.709 55.2788C118.854 55.37 118.931 55.3028 118.931 55.0722H118.944Z" fill="white"/>
<path d="M125.784 96.6018L106.085 84.5572V51.6182L125.784 63.6628V96.6018Z" fill="url(#paint43_linear)"/>
<path opacity="0.9" d="M106.221 51.71L125.825 63.6489V77.5095L106.221 51.71Z" fill="url(#paint44_linear)"/>
<path opacity="0.8" d="M107.209 52.2612L125.824 63.6479V68.4187L107.209 52.2612Z" fill="url(#paint45_linear)"/>
<path d="M111.524 70.0947L113.942 71.5697L115.792 86.5017L114.005 85.4111L113.683 82.4708V82.5093L111.655 81.2697L111.329 83.7728L109.678 82.7639L111.524 70.0947ZM113.47 80.5347L112.676 73.2272H112.644L111.864 79.569L113.47 80.5347Z" fill="white"/>
<path d="M116.648 73.2271L119.37 74.8942C120.203 75.3827 120.893 76.1039 121.366 76.9793C121.822 77.8861 122.05 78.902 122.028 79.9291V86.9099C122.028 88.0245 121.81 88.7403 121.366 89.0478C120.921 89.3553 120.255 89.2352 119.37 88.6923L116.648 87.0252V73.2271ZM119.343 86.6793C119.633 86.857 119.86 86.8906 120.014 86.7753C120.168 86.66 120.25 86.367 120.25 85.8913V78.7424C120.266 78.3369 120.185 77.9336 120.014 77.5702C119.859 77.2664 119.626 77.015 119.343 76.8447L118.436 76.2922V86.146L119.343 86.6793Z" fill="white"/>
<g opacity="0.5">
<g opacity="0.5">
<path opacity="0.5" d="M106.094 87.2324V88.102L116.554 94.3765V93.5069L106.094 87.2324Z" fill="#D1B4E3"/>
<path opacity="0.6" d="M111.105 98.2487L106.093 95.2217V96.0962L111.105 99.1184V98.2487Z" fill="#D1B4E3"/>
<path opacity="0.6" d="M111.912 98.7441V99.6138L118.444 103.573V102.703L111.912 98.7441Z" fill="#D1B4E3"/>
<path opacity="0.6" d="M117.89 101.281V100.411L112.216 96.9521V97.8217L117.89 101.281Z" fill="#D1B4E3"/>
<path opacity="0.6" d="M114.335 96.2347L106.093 91.2334V92.1078L114.335 97.1091V96.2347Z" fill="#D1B4E3"/>
<path opacity="0.6" d="M111.105 92.3101L106.093 89.2881V90.1577L111.105 93.1797V92.3101Z" fill="#D1B4E3"/>
<path opacity="0.6" d="M111.912 92.8057V93.6753L118.444 97.6389V96.7645L111.912 92.8057Z" fill="#D1B4E3"/>
<path opacity="0.6" d="M115.146 96.7305V97.6048L119.134 100.113V99.2382L115.146 96.7305Z" fill="#D1B4E3"/>
<path opacity="0.6" d="M119.252 98.1337L125.756 102.261V101.391L119.252 97.2593V98.1337Z" fill="#D1B4E3"/>
<path opacity="0.6" d="M119.941 100.607L125.756 104.211V103.336L119.941 99.7329V100.607Z" fill="#D1B4E3"/>
<path opacity="0.6" d="M111.409 96.4517L106.093 93.2471V94.1167L111.409 97.3262V96.4517Z" fill="#D1B4E3"/>
<path opacity="0.6" d="M118.703 101.775L125.743 106.301V105.427L118.703 100.906V101.775Z" fill="#D1B4E3"/>
</g>
</g>
<g style="mix-blend-mode:screen" opacity="0.3">
<g style="mix-blend-mode:screen" opacity="0.3">
<path d="M27.1387 102.346L29.325 103.687L33.4799 101.145L31.2936 99.8047L27.1387 102.346Z" fill="#27043D"/>
</g>
<g style="mix-blend-mode:screen" opacity="0.3">
<path d="M31.0166 104.725L33.534 106.267L37.6889 103.725L35.1715 102.183L31.0166 104.725Z" fill="#27043D"/>
</g>
<g style="mix-blend-mode:screen" opacity="0.3">
<path d="M5.34771 118.35L9.67041 115.708L7.47958 114.367L3.15234 117.015L5.34771 118.35Z" fill="#27043D"/>
</g>
<g style="mix-blend-mode:screen" opacity="0.3">
<path d="M13.8892 118.279L11.3673 116.741L7.04004 119.388L9.56199 120.926L13.8892 118.279Z" fill="#27043D"/>
</g>
<g style="mix-blend-mode:screen" opacity="0.3">
<path d="M30.0502 113.546L27.2334 111.787L23.083 114.324L25.9043 116.087L30.0502 113.546Z" fill="#27043D"/>
</g>
<g style="mix-blend-mode:screen" opacity="0.3">
<path d="M39.0534 104.561L34.8984 107.103L37.7425 108.847L41.8975 106.305L39.0534 104.561Z" fill="#27043D"/>
</g>
<g style="mix-blend-mode:screen" opacity="0.3">
<path d="M51.0104 111.893L46.8102 109.318L42.6553 111.859L51.0377 116.995L62.4818 110.048L66.0334 112.22L70.4832 102.159L54.0268 104.878L58.2951 107.487L51.0104 111.893Z" fill="#27043D"/>
</g>
<g style="mix-blend-mode:screen" opacity="0.3">
<path d="M19.2373 111.927L21.7321 113.484L25.8824 110.947L23.3922 109.39L19.2373 111.927Z" fill="#27043D"/>
</g>
<g style="mix-blend-mode:screen" opacity="0.3">
<path d="M17.5578 110.885L21.7128 108.343L19.5491 106.988L15.3896 109.53L17.5578 110.885Z" fill="#27043D"/>
</g>
<g style="mix-blend-mode:screen" opacity="0.3">
<path d="M18.1065 120.852L15.2534 119.113L10.9307 121.76L13.7792 123.5L18.1065 120.852Z" fill="#27043D"/>
</g>
<g style="mix-blend-mode:screen" opacity="0.3">
<path d="M47.3186 138.678L23.0333 123.861L18.7061 126.504L42.9913 141.325L39.3218 143.569L56.4675 146.466L51.7275 135.983L47.3186 138.678Z" fill="#27043D"/>
</g>
<g style="mix-blend-mode:screen" opacity="0.3">
<path d="M5.45215 113.132L4.32271 112.445L0 115.088L1.12944 115.78L5.45215 113.132Z" fill="#27043D"/>
</g>
<g style="mix-blend-mode:screen" opacity="0.3">
<path d="M90.4327 132.288L94.701 134.901L79.3152 144.309L34.9222 116.587L30.7764 119.124L79.3424 149.411L98.8831 137.457L102.435 139.629L106.889 129.569L90.4327 132.288Z" fill="#27043D"/>
</g>
<g style="mix-blend-mode:screen" opacity="0.3">
<path d="M17.5447 105.738L16.32 104.974L12.165 107.516L13.3897 108.28L17.5447 105.738Z" fill="#27043D"/>
</g>
<g style="mix-blend-mode:screen" opacity="0.3">
<path d="M22.3207 123.428L19.1411 121.487L14.8184 124.13L17.998 126.071L22.3207 123.428Z" fill="#27043D"/>
</g>
<g style="mix-blend-mode:screen" opacity="0.3">
<path d="M31.0801 114.188L26.9297 116.725L30.0776 118.686L34.2234 116.149L31.0801 114.188Z" fill="#27043D"/>
</g>
<g style="mix-blend-mode:screen" opacity="0.3">
<path d="M42.9323 106.939L38.7773 109.481L41.948 111.422L46.1029 108.885L42.9323 106.939Z" fill="#27043D"/>
</g>
<g style="mix-blend-mode:screen" opacity="0.3">
<path d="M29.2745 98.5655L28.0045 97.792L23.8496 100.334L25.1151 101.107L29.2745 98.5655Z" fill="#27043D"/>
</g>
</g>
<defs>
<linearGradient id="paint0_linear" x1="62.2106" y1="98.5319" x2="110.654" y2="98.5319" gradientUnits="userSpaceOnUse">
<stop offset="0.06" stop-color="#200041"/>
<stop offset="0.26" stop-color="#210243"/>
<stop offset="0.36" stop-color="#25084B"/>
<stop offset="0.43" stop-color="#2C1358"/>
<stop offset="0.47" stop-color="#311B61"/>
<stop offset="0.48" stop-color="#351F65"/>
<stop offset="0.5" stop-color="#422C73"/>
<stop offset="0.51" stop-color="#584188"/>
<stop offset="0.52" stop-color="#765FA7"/>
<stop offset="0.53" stop-color="#8770B8"/>
<stop offset="0.54" stop-color="#7E67AE"/>
<stop offset="0.56" stop-color="#5C468D"/>
<stop offset="0.59" stop-color="#442E75"/>
<stop offset="0.61" stop-color="#362066"/>
<stop offset="0.63" stop-color="#311B61"/>
<stop offset="0.67" stop-color="#2A1155"/>
<stop offset="0.75" stop-color="#230446"/>
<stop offset="0.81" stop-color="#200041"/>
<stop offset="1" stop-color="#200041"/>
</linearGradient>
<linearGradient id="paint1_linear" x1="-61297.9" y1="7574.82" x2="-56392.5" y2="7574.82" gradientUnits="userSpaceOnUse">
<stop offset="0.06" stop-color="#200041"/>
<stop offset="0.26" stop-color="#210243"/>
<stop offset="0.36" stop-color="#25084B"/>
<stop offset="0.43" stop-color="#2C1358"/>
<stop offset="0.47" stop-color="#311B61"/>
<stop offset="0.48" stop-color="#351F65"/>
<stop offset="0.5" stop-color="#422C73"/>
<stop offset="0.51" stop-color="#584188"/>
<stop offset="0.52" stop-color="#765FA7"/>
<stop offset="0.53" stop-color="#8770B8"/>
<stop offset="0.54" stop-color="#7E67AE"/>
<stop offset="0.56" stop-color="#5C468D"/>
<stop offset="0.59" stop-color="#442E75"/>
<stop offset="0.61" stop-color="#362066"/>
<stop offset="0.63" stop-color="#311B61"/>
<stop offset="0.67" stop-color="#2A1155"/>
<stop offset="0.75" stop-color="#230446"/>
<stop offset="0.81" stop-color="#200041"/>
<stop offset="1" stop-color="#200041"/>
</linearGradient>
<linearGradient id="paint2_linear" x1="75.1733" y1="94.0058" x2="97.7053" y2="82.2379" gradientUnits="userSpaceOnUse">
<stop stop-color="#311B61"/>
<stop offset="0.2" stop-color="#290F52"/>
<stop offset="0.49" stop-color="#200041"/>
<stop offset="1" stop-color="#0F001F"/>
</linearGradient>
<linearGradient id="paint3_linear" x1="-42686.2" y1="5430.44" x2="-42539" y2="5031.6" gradientUnits="userSpaceOnUse">
<stop stop-color="white"/>
<stop offset="1"/>
</linearGradient>
<radialGradient id="paint4_radial" cx="0" cy="0" r="1" gradientUnits="userSpaceOnUse" gradientTransform="translate(86.9633 98.3244) scale(17.2365 18.2567)">
<stop stop-color="#AF8AFC"/>
<stop offset="1" stop-color="#10054D"/>
</radialGradient>
<linearGradient id="paint5_linear" x1="-85385.6" y1="29348.6" x2="-102976" y2="12448.1" gradientUnits="userSpaceOnUse">
<stop stop-color="#311B61"/>
<stop offset="0.2" stop-color="#290F52"/>
<stop offset="0.49" stop-color="#200041"/>
<stop offset="1" stop-color="#0F001F"/>
</linearGradient>
<linearGradient id="paint6_linear" x1="58.2588" y1="5.20632" x2="126.474" y2="102.047" gradientUnits="userSpaceOnUse">
<stop offset="0.01" stop-color="#9F19AB"/>
<stop offset="0.43" stop-color="#5F27BD"/>
<stop offset="0.9" stop-color="#3D065F"/>
</linearGradient>
<linearGradient id="paint7_linear" x1="-82292" y1="30063.4" x2="-96967" y2="14021.2" gradientUnits="userSpaceOnUse">
<stop offset="0.06" stop-color="#200041"/>
<stop offset="0.26" stop-color="#210243"/>
<stop offset="0.36" stop-color="#25084B"/>
<stop offset="0.43" stop-color="#2C1358"/>
<stop offset="0.47" stop-color="#311B61"/>
<stop offset="0.48" stop-color="#351F65"/>
<stop offset="0.5" stop-color="#422C73"/>
<stop offset="0.51" stop-color="#584188"/>
<stop offset="0.52" stop-color="#765FA7"/>
<stop offset="0.53" stop-color="#8770B8"/>
<stop offset="0.54" stop-color="#7E67AE"/>
<stop offset="0.56" stop-color="#5C468D"/>
<stop offset="0.59" stop-color="#442E75"/>
<stop offset="0.61" stop-color="#362066"/>
<stop offset="0.63" stop-color="#311B61"/>
<stop offset="0.67" stop-color="#2A1155"/>
<stop offset="0.75" stop-color="#230446"/>
<stop offset="0.81" stop-color="#200041"/>
<stop offset="1" stop-color="#200041"/>
</linearGradient>
<radialGradient id="paint8_radial" cx="0" cy="0" r="1" gradientUnits="userSpaceOnUse" gradientTransform="translate(-82852.4 17873.3) scale(1506.74 2239.03)">
<stop stop-color="#AF8AFC"/>
<stop offset="1" stop-color="#10054D"/>
</radialGradient>
<linearGradient id="paint9_linear" x1="8387.33" y1="13245.6" x2="8322.61" y2="11193.1" gradientUnits="userSpaceOnUse">
<stop offset="0.06" stop-color="#200041"/>
<stop offset="0.26" stop-color="#210243"/>
<stop offset="0.36" stop-color="#25084B"/>
<stop offset="0.43" stop-color="#2C1358"/>
<stop offset="0.47" stop-color="#311B61"/>
<stop offset="0.48" stop-color="#351F65"/>
<stop offset="0.5" stop-color="#422C73"/>
<stop offset="0.51" stop-color="#584188"/>
<stop offset="0.52" stop-color="#765FA7"/>
<stop offset="0.53" stop-color="#8770B8"/>
<stop offset="0.54" stop-color="#7E67AE"/>
<stop offset="0.56" stop-color="#5C468D"/>
<stop offset="0.59" stop-color="#442E75"/>
<stop offset="0.61" stop-color="#362066"/>
<stop offset="0.63" stop-color="#311B61"/>
<stop offset="0.67" stop-color="#2A1155"/>
<stop offset="0.75" stop-color="#230446"/>
<stop offset="0.81" stop-color="#200041"/>
<stop offset="1" stop-color="#200041"/>
</linearGradient>
<radialGradient id="paint10_radial" cx="0" cy="0" r="1" gradientUnits="userSpaceOnUse" gradientTransform="translate(8770.83 11194.8) scale(666.754 853.262)">
<stop stop-color="#AF8AFC"/>
<stop offset="1" stop-color="#10054D"/>
</radialGradient>
<linearGradient id="paint11_linear" x1="126.583" y1="121.627" x2="72.306" y2="105.587" gradientUnits="userSpaceOnUse">
<stop offset="0.19" stop-color="#3D065F"/>
<stop offset="0.93" stop-color="#3D065F"/>
</linearGradient>
<linearGradient id="paint12_linear" x1="8177.49" y1="12501.5" x2="6681.5" y2="10023.5" gradientUnits="userSpaceOnUse">
<stop stop-color="#311B61"/>
<stop offset="0.2" stop-color="#290F52"/>
<stop offset="0.49" stop-color="#200041"/>
<stop offset="1" stop-color="#0F001F"/>
</linearGradient>
<linearGradient id="paint13_linear" x1="6695.45" y1="10581.9" x2="7891.26" y2="10581.9" gradientUnits="userSpaceOnUse">
<stop stop-color="#311B61"/>
<stop offset="0.2" stop-color="#290F52"/>
<stop offset="0.49" stop-color="#200041"/>
<stop offset="1" stop-color="#0F001F"/>
</linearGradient>
<linearGradient id="paint14_linear" x1="5380.85" y1="11702.5" x2="7654.8" y2="10421.2" gradientUnits="userSpaceOnUse">
<stop offset="0.01" stop-color="#9F19AB"/>
<stop offset="0.43" stop-color="#5F27BD"/>
<stop offset="0.9" stop-color="#3D065F"/>
</linearGradient>
<linearGradient id="paint15_linear" x1="-7667.12" y1="147831" x2="-9963.72" y2="147518" gradientUnits="userSpaceOnUse">
<stop offset="0.04" stop-color="#138BBD"/>
<stop offset="0.23" stop-color="#169AC7"/>
<stop offset="0.59" stop-color="#1FC3DF"/>
<stop offset="1" stop-color="#2AF6FF"/>
</linearGradient>
<linearGradient id="paint16_linear" x1="-7586.16" y1="91401.7" x2="-8912.2" y2="91126.7" gradientUnits="userSpaceOnUse">
<stop offset="0.04" stop-color="#9F19AB"/>
<stop offset="0.24" stop-color="#AE25B1"/>
<stop offset="0.65" stop-color="#D744BF"/>
<stop offset="1" stop-color="#FF63CE"/>
</linearGradient>
<linearGradient id="paint17_linear" x1="-7259.98" y1="48113.5" x2="-8067.66" y2="47928.3" gradientUnits="userSpaceOnUse">
<stop offset="0.04" stop-color="#FFA98C"/>
<stop offset="0.32" stop-color="#FFB892"/>
<stop offset="0.86" stop-color="#FEE1A3"/>
<stop offset="1" stop-color="#FEECA8"/>
</linearGradient>
<linearGradient id="paint18_linear" x1="-10688.8" y1="103719" x2="-15655.2" y2="101941" gradientUnits="userSpaceOnUse">
<stop offset="0.04" stop-color="#138BBD"/>
<stop offset="0.23" stop-color="#169AC7"/>
<stop offset="0.59" stop-color="#1FC3DF"/>
<stop offset="1" stop-color="#2AF6FF"/>
</linearGradient>
<linearGradient id="paint19_linear" x1="-7571.99" y1="81683" x2="-9474.73" y2="81103.5" gradientUnits="userSpaceOnUse">
<stop offset="0.04" stop-color="#9F19AB"/>
<stop offset="0.24" stop-color="#AE25B1"/>
<stop offset="0.65" stop-color="#D744BF"/>
<stop offset="1" stop-color="#FF63CE"/>
</linearGradient>
<linearGradient id="paint20_linear" x1="-7702.52" y1="51992" x2="-9097.14" y2="51582.7" gradientUnits="userSpaceOnUse">
<stop offset="0.04" stop-color="#FFA98C"/>
<stop offset="0.32" stop-color="#FFB892"/>
<stop offset="0.86" stop-color="#FEE1A3"/>
<stop offset="1" stop-color="#FEECA8"/>
</linearGradient>
<linearGradient id="paint21_linear" x1="76.2139" y1="50.9064" x2="89.2048" y2="30.0989" gradientUnits="userSpaceOnUse">
<stop stop-color="#9F79C8"/>
<stop offset="0.14" stop-color="#A580CB"/>
<stop offset="0.33" stop-color="#B492D3"/>
<stop offset="0.55" stop-color="#CDB0E1"/>
<stop offset="0.58" stop-color="#D1B4E3"/>
<stop offset="0.76" stop-color="#DBC4E9"/>
<stop offset="1" stop-color="#EBDEF3"/>
</linearGradient>
<linearGradient id="paint22_linear" x1="510.283" y1="347.531" x2="518.661" y2="336.965" gradientUnits="userSpaceOnUse">
<stop offset="0.04" stop-color="#FFA98C"/>
<stop offset="0.32" stop-color="#FFB892"/>
<stop offset="0.86" stop-color="#FEE1A3"/>
<stop offset="1" stop-color="#FEECA8"/>
</linearGradient>
<linearGradient id="paint23_linear" x1="491.355" y1="333.892" x2="499.736" y2="323.325" gradientUnits="userSpaceOnUse">
<stop offset="0.04" stop-color="#9F19AB"/>
<stop offset="0.24" stop-color="#AE25B1"/>
<stop offset="0.65" stop-color="#D744BF"/>
<stop offset="1" stop-color="#FF63CE"/>
</linearGradient>
<linearGradient id="paint24_linear" x1="472.284" y1="320.04" x2="480.676" y2="309.442" gradientUnits="userSpaceOnUse">
<stop offset="0.04" stop-color="#138BBD"/>
<stop offset="0.23" stop-color="#169AC7"/>
<stop offset="0.59" stop-color="#1FC3DF"/>
<stop offset="1" stop-color="#2AF6FF"/>
</linearGradient>
<linearGradient id="paint25_linear" x1="7453.52" y1="7447.81" x2="11318.1" y2="11493.7" gradientUnits="userSpaceOnUse">
<stop offset="0.01" stop-color="#9F19AB"/>
<stop offset="0.43" stop-color="#5F27BD"/>
<stop offset="0.9" stop-color="#3D065F"/>
</linearGradient>
<linearGradient id="paint26_linear" x1="7351.34" y1="7457.37" x2="11147.3" y2="11404.8" gradientUnits="userSpaceOnUse">
<stop offset="0.01" stop-color="#9F19AB"/>
<stop offset="0.43" stop-color="#5F27BD"/>
<stop offset="0.9" stop-color="#3D065F"/>
</linearGradient>
<linearGradient id="paint27_linear" x1="7251.37" y1="7462.91" x2="10977.8" y2="11314.4" gradientUnits="userSpaceOnUse">
<stop offset="0.01" stop-color="#9F19AB"/>
<stop offset="0.43" stop-color="#5F27BD"/>
<stop offset="0.9" stop-color="#3D065F"/>
</linearGradient>
<linearGradient id="paint28_linear" x1="7149.8" y1="7469.13" x2="10809" y2="11225.2" gradientUnits="userSpaceOnUse">
<stop offset="0.01" stop-color="#9F19AB"/>
<stop offset="0.43" stop-color="#5F27BD"/>
<stop offset="0.9" stop-color="#3D065F"/>
</linearGradient>
<linearGradient id="paint29_linear" x1="7048.98" y1="7473.23" x2="10640.3" y2="11135.2" gradientUnits="userSpaceOnUse">
<stop offset="0.01" stop-color="#9F19AB"/>
<stop offset="0.43" stop-color="#5F27BD"/>
<stop offset="0.9" stop-color="#3D065F"/>
</linearGradient>
<linearGradient id="paint30_linear" x1="6948.06" y1="7476.08" x2="10472" y2="11044.9" gradientUnits="userSpaceOnUse">
<stop offset="0.01" stop-color="#9F19AB"/>
<stop offset="0.43" stop-color="#5F27BD"/>
<stop offset="0.9" stop-color="#3D065F"/>
</linearGradient>
<linearGradient id="paint31_linear" x1="6851.2" y1="7476.85" x2="10308.5" y2="10955.6" gradientUnits="userSpaceOnUse">
<stop offset="0.01" stop-color="#9F19AB"/>
<stop offset="0.43" stop-color="#5F27BD"/>
<stop offset="0.9" stop-color="#3D065F"/>
</linearGradient>
<linearGradient id="paint32_linear" x1="6746.78" y1="7479.1" x2="10138.9" y2="10865" gradientUnits="userSpaceOnUse">
<stop offset="0.01" stop-color="#9F19AB"/>
<stop offset="0.43" stop-color="#5F27BD"/>
<stop offset="0.9" stop-color="#3D065F"/>
</linearGradient>
<linearGradient id="paint33_linear" x1="6641.04" y1="7473.18" x2="9965.83" y2="10767.1" gradientUnits="userSpaceOnUse">
<stop offset="0.01" stop-color="#9F19AB"/>
<stop offset="0.43" stop-color="#5F27BD"/>
<stop offset="0.9" stop-color="#3D065F"/>
</linearGradient>
<linearGradient id="paint34_linear" x1="6539.61" y1="7471.16" x2="9799.51" y2="10676.3" gradientUnits="userSpaceOnUse">
<stop offset="0.01" stop-color="#9F19AB"/>
<stop offset="0.43" stop-color="#5F27BD"/>
<stop offset="0.9" stop-color="#3D065F"/>
</linearGradient>
<linearGradient id="paint35_linear" x1="6433" y1="7469.53" x2="9629.52" y2="10584.5" gradientUnits="userSpaceOnUse">
<stop offset="0.01" stop-color="#9F19AB"/>
<stop offset="0.43" stop-color="#5F27BD"/>
<stop offset="0.9" stop-color="#3D065F"/>
</linearGradient>
<linearGradient id="paint36_linear" x1="7329.92" y1="14827.4" x2="11460.6" y2="17350.5" gradientUnits="userSpaceOnUse">
<stop offset="0.06" stop-color="#200041"/>
<stop offset="0.26" stop-color="#210243"/>
<stop offset="0.36" stop-color="#25084B"/>
<stop offset="0.43" stop-color="#2C1358"/>
<stop offset="0.47" stop-color="#311B61"/>
<stop offset="0.48" stop-color="#351F65"/>
<stop offset="0.5" stop-color="#422C73"/>
<stop offset="0.51" stop-color="#584188"/>
<stop offset="0.52" stop-color="#765FA7"/>
<stop offset="0.53" stop-color="#8770B8"/>
<stop offset="0.54" stop-color="#7E67AE"/>
<stop offset="0.56" stop-color="#5C468D"/>
<stop offset="0.59" stop-color="#442E75"/>
<stop offset="0.61" stop-color="#362066"/>
<stop offset="0.63" stop-color="#311B61"/>
<stop offset="0.67" stop-color="#2A1155"/>
<stop offset="0.75" stop-color="#230446"/>
<stop offset="0.81" stop-color="#200041"/>
<stop offset="1" stop-color="#200041"/>
</linearGradient>
<radialGradient id="paint37_radial" cx="0" cy="0" r="1" gradientUnits="userSpaceOnUse" gradientTransform="translate(7977.52 16581.4) scale(2220.62 7084.63)">
<stop stop-color="#711F56"/>
<stop offset="0.16" stop-color="#6C1E52"/>
<stop offset="0.36" stop-color="#5C1946"/>
<stop offset="0.58" stop-color="#431233"/>
<stop offset="0.82" stop-color="#200918"/>
<stop offset="1"/>
</radialGradient>
<radialGradient id="paint38_radial" cx="0" cy="0" r="1" gradientUnits="userSpaceOnUse" gradientTransform="translate(8857.74 16960.8) scale(1527.49 4404.12)">
<stop stop-color="#AF8AFC"/>
<stop offset="1" stop-color="#10054D"/>
</radialGradient>
<linearGradient id="paint39_linear" x1="8980.61" y1="21054.2" x2="4398.15" y2="20556.7" gradientUnits="userSpaceOnUse">
<stop offset="0.19" stop-color="#3D065F"/>
<stop offset="0.93" stop-color="#3D065F"/>
</linearGradient>
<linearGradient id="paint40_linear" x1="8683.73" y1="25276.7" x2="1253.85" y2="19944.8" gradientUnits="userSpaceOnUse">
<stop stop-color="#311B61"/>
<stop offset="0.2" stop-color="#290F52"/>
<stop offset="0.49" stop-color="#200041"/>
<stop offset="1" stop-color="#0F001F"/>
</linearGradient>
<linearGradient id="paint41_linear" x1="6758.63" y1="19325.4" x2="7976.2" y2="19325.4" gradientUnits="userSpaceOnUse">
<stop stop-color="#311B61"/>
<stop offset="0.2" stop-color="#290F52"/>
<stop offset="0.49" stop-color="#200041"/>
<stop offset="1" stop-color="#0F001F"/>
</linearGradient>
<linearGradient id="paint42_linear" x1="6417.76" y1="14775.3" x2="12438.9" y2="18495" gradientUnits="userSpaceOnUse">
<stop offset="0.01" stop-color="#9F19AB"/>
<stop offset="0.43" stop-color="#5F27BD"/>
<stop offset="0.9" stop-color="#3D065F"/>
</linearGradient>
<linearGradient id="paint43_linear" x1="-5641.06" y1="136070" x2="-7762.14" y2="135755" gradientUnits="userSpaceOnUse">
<stop offset="0.04" stop-color="#138BBD"/>
<stop offset="0.23" stop-color="#169AC7"/>
<stop offset="0.59" stop-color="#1FC3DF"/>
<stop offset="1" stop-color="#2AF6FF"/>
</linearGradient>
<linearGradient id="paint44_linear" x1="-5681.77" y1="75092.3" x2="-6904.87" y2="74773.1" gradientUnits="userSpaceOnUse">
<stop offset="0.04" stop-color="#9F19AB"/>
<stop offset="0.24" stop-color="#AE25B1"/>
<stop offset="0.65" stop-color="#D744BF"/>
<stop offset="1" stop-color="#FF63CE"/>
</linearGradient>
<linearGradient id="paint45_linear" x1="-5429.39" y1="45227.4" x2="-6212.73" y2="45030" gradientUnits="userSpaceOnUse">
<stop offset="0.04" stop-color="#FFA98C"/>
<stop offset="0.32" stop-color="#FFB892"/>
<stop offset="0.86" stop-color="#FEE1A3"/>
<stop offset="1" stop-color="#FEECA8"/>
</linearGradient>
</defs>
</svg>
