<svg width="145" height="113" viewBox="0 0 145 113" fill="none" xmlns="http://www.w3.org/2000/svg">
<path d="M33.184 32.2856V6.94521H23.5302V0.496582H49.8178V6.94521H40.164V32.2856H33.184ZM57.452 32.2856V0.496582H64.432V13.0759H77.3038V0.496582H84.2836V32.2856H77.3038V19.5246H64.432V32.2856H57.452ZM94.1535 32.2856V0.496582H118.084V6.71815H101.088V13.1668H116.045V19.3883H101.088V26.0641H118.311V32.2856H94.1535ZM2.06348 71.4897V39.7007H15.026C18.7728 39.7007 21.7339 40.7149 23.9095 42.7434C26.085 44.7719 27.1727 47.4511 27.1727 50.7814C27.1727 54.3236 25.9642 57.0787 23.5468 59.0465C21.1296 60.9841 18.0627 61.9529 14.3462 61.9529H9.04332V71.4897H2.06348ZM9.04332 55.7315H14.5728C16.2951 55.7315 17.6397 55.2772 18.6066 54.369C19.6037 53.4609 20.1023 52.2801 20.1023 50.8268C20.1023 49.2829 19.6037 48.1021 18.6066 47.2846C17.6095 46.4369 16.2195 46.013 14.4368 46.013H9.04332V55.7315ZM34.9217 71.4897V39.7007H41.9015V71.4897H34.9217ZM49.6942 71.4897L60.7534 55.3226L50.1476 39.7007H58.3058L64.9682 50.0093L71.6762 39.7007H79.6079L69.0022 55.232L80.0611 71.4897H71.9029L64.7871 60.5905L57.626 71.4897H49.6942ZM87.5585 71.4897V39.7007H111.49V45.9222H94.493V52.3708H109.45V58.5925H94.493V65.2682H111.716V71.4897H87.5585ZM120.188 71.4897V39.7007H127.168V65.1319H142.986V71.4897H120.188ZM4.8121 110.694V78.9048H11.7919V91.4842H24.6638V78.9048H31.6436V110.694H24.6638V97.9328H11.7919V110.694H4.8121ZM54.7481 111.193C50.4273 111.193 47.0582 109.998 44.6409 107.606C42.2237 105.184 41.0149 101.672 41.0149 97.0699V78.9048H47.9947V96.8882C47.9947 99.4313 48.5839 101.384 49.7624 102.746C50.9711 104.079 52.6633 104.745 54.8387 104.745C57.0142 104.745 58.6911 104.094 59.8695 102.792C61.0783 101.49 61.6825 99.5978 61.6825 97.1153V78.9048H68.6623V96.8427C68.6623 101.566 67.4236 105.138 64.9459 107.56C62.4984 109.982 59.0992 111.193 54.7481 111.193ZM78.038 110.694V78.9048H84.474L99.3401 98.4778V78.9048H106.229V110.694H100.292L84.9271 90.485V110.694H78.038ZM123.499 110.694V85.3534H113.845V78.9048H140.133V85.3534H130.479V110.694H123.499Z" fill="white"/>
</svg>
