<svg width="125" height="118" viewBox="0 0 125 118" fill="none" xmlns="http://www.w3.org/2000/svg">
<path d="M1.5606 114V101.862H10.5947V103.804H3.69342V107.116H9.81444V109.058H3.69342V114H1.5606ZM19.9386 114H17.8578V112.873C17.1179 113.751 16.1295 114.191 14.8926 114.191C13.9794 114.191 13.2049 113.942 12.5691 113.445C11.9448 112.936 11.6327 112.231 11.6327 111.33C11.6327 110.347 11.9737 109.601 12.6558 109.093C13.3378 108.584 14.2337 108.33 15.3435 108.33C16.2336 108.33 17.0775 108.457 17.8751 108.711V108.538C17.8751 107.902 17.6786 107.417 17.2855 107.081C16.9041 106.746 16.3492 106.578 15.6209 106.578C14.7886 106.578 13.9158 106.769 13.0026 107.151L12.4303 105.469C13.5632 104.96 14.725 104.706 15.9157 104.706C17.2451 104.706 18.245 105.041 18.9155 105.711C19.5975 106.382 19.9386 107.336 19.9386 108.573V114ZM17.9098 110.688V110.168C17.2855 109.925 16.5862 109.804 15.8116 109.804C15.1527 109.804 14.6383 109.931 14.2684 110.185C13.8985 110.44 13.7135 110.798 13.7135 111.26C13.7135 111.676 13.8811 112.006 14.2164 112.249C14.5516 112.491 14.9735 112.613 15.4822 112.613C16.1873 112.613 16.7653 112.434 17.2162 112.075C17.6786 111.717 17.9098 111.254 17.9098 110.688ZM26.665 114.208C25.3125 114.208 24.1854 113.746 23.2837 112.821C22.382 111.896 21.9312 110.769 21.9312 109.44C21.9312 108.122 22.382 106.995 23.2837 106.058C24.1969 105.122 25.3298 104.654 26.6823 104.654C28.162 104.654 29.3816 105.18 30.3411 106.232L29.0406 107.636C28.3123 106.873 27.5204 106.492 26.665 106.492C25.9136 106.492 25.2836 106.781 24.7749 107.359C24.2779 107.925 24.0293 108.619 24.0293 109.44C24.0293 110.272 24.2836 110.971 24.7923 111.538C25.3125 112.104 25.9714 112.387 26.769 112.387C27.6129 112.387 28.4048 112.006 29.1446 111.243L30.4104 112.491C29.9134 113.046 29.37 113.474 28.7805 113.775C28.2025 114.064 27.4973 114.208 26.665 114.208ZM36.2825 114.208C34.9415 114.208 33.8202 113.763 32.9185 112.873C32.0284 111.983 31.5833 110.833 31.5833 109.422C31.5833 108.093 32.0053 106.966 32.8491 106.041C33.693 105.116 34.7623 104.654 36.057 104.654C37.4442 104.654 38.5193 105.128 39.2823 106.076C40.0568 107.012 40.4441 108.18 40.4441 109.578C40.4441 109.833 40.4325 110.029 40.4094 110.168H33.6815C33.7971 110.896 34.0918 111.468 34.5658 111.885C35.0398 112.289 35.6235 112.491 36.3171 112.491C37.2188 112.491 38.0454 112.127 38.7968 111.399L40.0279 112.491C39.08 113.636 37.8315 114.208 36.2825 114.208ZM33.6641 108.781H38.3633C38.2939 108.075 38.0569 107.497 37.6523 107.047C37.2477 106.596 36.7102 106.37 36.0397 106.37C35.4039 106.37 34.8721 106.596 34.4444 107.047C34.0167 107.486 33.7566 108.064 33.6641 108.781ZM47.7531 114.191C46.4931 114.191 45.4585 113.653 44.6493 112.578V114H42.5511V101.342H44.6493V106.37C45.4585 105.226 46.4931 104.654 47.7531 104.654C48.9091 104.654 49.9091 105.087 50.753 105.954C51.5968 106.81 52.0188 107.971 52.0188 109.44C52.0188 110.885 51.5968 112.041 50.753 112.908C49.9091 113.763 48.9091 114.191 47.7531 114.191ZM47.2676 112.37C48.0075 112.37 48.6259 112.098 49.123 111.555C49.6316 111.012 49.886 110.295 49.886 109.405C49.886 108.538 49.6316 107.833 49.123 107.289C48.6144 106.746 47.9959 106.474 47.2676 106.474C46.5393 106.474 45.9093 106.752 45.3776 107.307C44.8574 107.862 44.5973 108.573 44.5973 109.44C44.5973 110.295 44.8574 111 45.3776 111.555C45.9093 112.098 46.5393 112.37 47.2676 112.37ZM58.5199 114.208C57.1327 114.208 55.9767 113.746 55.0519 112.821C54.1271 111.896 53.6647 110.769 53.6647 109.44C53.6647 108.11 54.1329 106.983 55.0693 106.058C56.0056 105.122 57.1674 104.654 58.5546 104.654C59.9418 104.654 61.0978 105.116 62.0226 106.041C62.959 106.966 63.4271 108.099 63.4271 109.44C63.4271 110.757 62.959 111.885 62.0226 112.821C61.0862 113.746 59.9187 114.208 58.5199 114.208ZM58.5546 112.387C59.3869 112.387 60.0574 112.104 60.566 111.538C61.0747 110.971 61.329 110.272 61.329 109.44C61.329 108.619 61.0631 107.925 60.5314 107.359C59.9996 106.781 59.3291 106.492 58.5199 106.492C57.6992 106.492 57.0345 106.775 56.5258 107.341C56.0172 107.908 55.7629 108.607 55.7629 109.44C55.7629 110.249 56.0287 110.942 56.5605 111.52C57.0923 112.098 57.757 112.387 58.5546 112.387ZM69.9162 114.208C68.529 114.208 67.373 113.746 66.4482 112.821C65.5234 111.896 65.061 110.769 65.061 109.44C65.061 108.11 65.5292 106.983 66.4656 106.058C67.4019 105.122 68.5637 104.654 69.9509 104.654C71.3381 104.654 72.4941 105.116 73.4189 106.041C74.3553 106.966 74.8235 108.099 74.8235 109.44C74.8235 110.757 74.3553 111.885 73.4189 112.821C72.4826 113.746 71.315 114.208 69.9162 114.208ZM69.9509 112.387C70.7832 112.387 71.4537 112.104 71.9624 111.538C72.471 110.971 72.7253 110.272 72.7253 109.44C72.7253 108.619 72.4594 107.925 71.9277 107.359C71.3959 106.781 70.7254 106.492 69.9162 106.492C69.0955 106.492 68.4308 106.775 67.9221 107.341C67.4135 107.908 67.1592 108.607 67.1592 109.44C67.1592 110.249 67.4251 110.942 67.9568 111.52C68.4886 112.098 69.1533 112.387 69.9509 112.387ZM76.9602 114V101.342H79.0583V108.902L82.8558 104.844H85.4048L81.7634 108.573L85.5262 114H83.0986L80.3415 110.046L79.0583 111.382V114H76.9602ZM91.4536 114L96.7943 101.775H98.7711L104.112 114H101.858L100.626 111.07H94.8869L93.6384 114H91.4536ZM95.6672 109.179H99.8462L97.748 104.324L95.6672 109.179ZM109.29 114.191C108.146 114.191 107.152 113.763 106.308 112.908C105.464 112.041 105.042 110.873 105.042 109.405C105.042 107.948 105.458 106.792 106.291 105.937C107.134 105.081 108.134 104.654 109.29 104.654C110.539 104.654 111.579 105.191 112.412 106.266V101.342H114.51V114H112.412V112.474C111.602 113.619 110.562 114.191 109.29 114.191ZM107.92 111.555C108.441 112.098 109.065 112.37 109.793 112.37C110.521 112.37 111.146 112.093 111.666 111.538C112.186 110.983 112.446 110.272 112.446 109.405C112.446 108.549 112.186 107.85 111.666 107.307C111.146 106.752 110.521 106.474 109.793 106.474C109.053 106.474 108.429 106.746 107.92 107.289C107.412 107.821 107.158 108.538 107.158 109.44C107.158 110.307 107.412 111.012 107.92 111.555ZM120.265 114.173C118.832 114.173 117.537 113.717 116.381 112.804L117.317 111.382C118.312 112.133 119.312 112.509 120.317 112.509C120.768 112.509 121.115 112.422 121.358 112.249C121.612 112.064 121.739 111.809 121.739 111.486C121.739 111.324 121.693 111.185 121.6 111.07C121.519 110.942 121.369 110.827 121.15 110.723C120.93 110.619 120.745 110.544 120.595 110.497C120.444 110.451 120.196 110.376 119.849 110.272L119.693 110.22C119.369 110.127 119.092 110.041 118.861 109.96C118.641 109.867 118.393 109.746 118.115 109.596C117.838 109.445 117.612 109.284 117.439 109.11C117.265 108.925 117.121 108.694 117.005 108.417C116.89 108.139 116.832 107.827 116.832 107.48C116.832 106.636 117.138 105.96 117.751 105.451C118.375 104.943 119.155 104.688 120.092 104.688C121.283 104.688 122.404 105.035 123.456 105.729L122.623 107.22C121.676 106.642 120.814 106.353 120.04 106.353C119.635 106.353 119.317 106.44 119.086 106.613C118.866 106.787 118.757 107.018 118.757 107.307C118.757 107.503 118.855 107.682 119.051 107.844C119.26 108.006 119.462 108.128 119.658 108.208C119.866 108.278 120.196 108.388 120.647 108.538C120.67 108.549 120.699 108.561 120.733 108.573C120.768 108.584 120.797 108.59 120.82 108.59C121.225 108.717 121.566 108.844 121.843 108.971C122.121 109.087 122.41 109.249 122.71 109.457C123.022 109.665 123.259 109.925 123.421 110.237C123.583 110.538 123.664 110.89 123.664 111.295C123.664 112.22 123.346 112.931 122.71 113.428C122.074 113.925 121.259 114.173 120.265 114.173Z" fill="#DCD2FF"/>
<path d="M62.9996 46.4829V18.2629C62.1996 18.3369 61.4087 18.4618 60.604 18.4988H37.5637C36.2873 18.4988 35.2514 19.5347 35.2514 20.8112V23.1235H28.3143C27.0379 23.1235 26.002 24.1594 26.002 25.4359V39.31C26.002 40.5864 27.0379 41.6224 28.3143 41.6224H35.2514V43.9347C35.2514 45.2111 36.2873 46.2471 37.5637 46.2471H38.965L48.2607 71.0263C48.8295 72.5108 50.1013 73.5884 51.6645 73.9028C51.9743 73.9676 52.2842 74 52.5894 74C53.8242 74 54.9989 73.5097 55.8406 72.631L61.3949 67.123C62.8147 65.7032 63.1523 63.488 62.2458 61.7722L54.4856 46.2471H60.6272C61.4226 46.2841 62.2088 46.4089 62.9996 46.4829Z" fill="white"/>
<path d="M99.6188 1.11918C99.5725 1.04056 99.5309 0.975814 99.4708 0.901819C99.2164 0.578089 98.8973 0.31448 98.5042 0.161865C98.4903 0.15724 98.4811 0.138741 98.4672 0.134117C98.421 0.120242 98.3793 0.143366 98.3331 0.129492C98.125 0.0693707 97.9169 0 97.6856 0C97.5284 0 97.3896 0.0601212 97.237 0.0924942C97.1492 0.110993 97.0659 0.115618 96.978 0.143366C96.5803 0.272858 96.2381 0.494844 95.9652 0.800075C95.9467 0.818574 95.919 0.823199 95.9005 0.841697C88.6906 9.59628 78.6364 15.4512 67.625 17.597V47.1536C78.6364 49.2994 88.6906 55.1497 95.9005 63.9043C95.919 63.9274 95.9514 63.9366 95.9745 63.9644C96.1363 64.1447 96.3352 64.2881 96.5479 64.4084C96.6173 64.45 96.6728 64.5101 96.7422 64.5425C97.0335 64.6673 97.348 64.746 97.6856 64.746C97.9492 64.746 98.2082 64.6997 98.4672 64.6118C98.4811 64.6072 98.4903 64.5887 98.5042 64.5841C98.8973 64.4315 99.2164 64.1725 99.4708 63.8441C99.5263 63.7701 99.5679 63.7054 99.6188 63.6268C99.8407 63.2707 99.998 62.8776 99.998 62.4336V2.31236C99.998 1.86838 99.8407 1.47528 99.6188 1.11918Z" fill="white"/>
</svg>
