<svg width="74" height="117" viewBox="0 0 74 117" fill="none" xmlns="http://www.w3.org/2000/svg">
<path d="M31.5237 115.216C29.6997 115.216 28.1757 114.592 26.9517 113.344C25.7277 112.084 25.1157 110.536 25.1157 108.7C25.1157 106.876 25.7277 105.334 26.9517 104.074C28.1757 102.814 29.7297 102.184 31.6137 102.184C32.7057 102.184 33.6297 102.352 34.3857 102.688C35.1537 103.024 35.8737 103.51 36.5457 104.146L35.1237 105.784C33.9957 104.74 32.8197 104.218 31.5957 104.218C30.3957 104.218 29.3997 104.65 28.6077 105.514C27.8277 106.378 27.4377 107.44 27.4377 108.7C27.4377 109.948 27.8337 111.01 28.6257 111.886C29.4177 112.75 30.4077 113.182 31.5957 113.182C32.3157 113.182 32.9517 113.05 33.5037 112.786C34.0557 112.51 34.6257 112.096 35.2137 111.544L36.6357 112.984C35.9277 113.728 35.1777 114.286 34.3857 114.658C33.5937 115.03 32.6397 115.216 31.5237 115.216ZM39.1608 115L39.6648 112.102H38.0448V110.23H39.9888L40.5108 107.098H38.7108V105.226H40.8348L41.3208 102.4H43.2468L42.7608 105.226H45.7128L46.1808 102.4H48.1068L47.6208 105.226H49.2228V107.098H47.2968L46.7748 110.23H48.5748V112.102H46.4508L45.9468 115H44.0208L44.5248 112.102H41.5728L41.0868 115H39.1608ZM41.8968 110.23H44.8488L45.3888 107.098H42.4368L41.8968 110.23Z" fill="#DCD2FF"/>
<path d="M37 0C35.7396 0 34.4807 0.330067 33.3557 0.992569L3.68211 18.4834C1.41277 19.8214 0 22.3221 0 25.0127V59.9909C0 62.6797 1.41101 65.1786 3.68211 66.5166L33.3557 84.0074C34.4798 84.669 35.7402 85 37 85C38.2598 85 39.5202 84.6709 40.6443 84.0074L70.3179 66.5202C72.589 65.1785 74 62.6761 74 59.9873V25.0127C74 22.3221 72.5872 19.8214 70.3179 18.4834L40.6443 0.992569C39.5202 0.330067 38.2604 0 37 0ZM37 20.3242C43.66 20.3242 49.8196 23.566 53.8138 29.0841L46.0951 33.7726C43.773 31.1115 40.4762 29.5641 37 29.5641C30.199 29.5641 24.6667 35.3668 24.6667 42.5C24.6667 49.6332 30.199 55.4359 37 55.4359C40.4762 55.4359 43.773 53.8885 46.0951 51.2274L53.8138 55.9159C49.8196 61.434 43.66 64.6758 37 64.6758C25.3415 64.6758 15.8571 54.7281 15.8571 42.5C15.8571 30.2719 25.3415 20.3242 37 20.3242ZM54.619 33.2601H58.1429V36.9561H61.6667V33.2601H65.1905V36.9561H68.7143V40.652H65.1905V44.348H68.7143V48.044H65.1905V51.7399H61.6667V48.044H58.1429V51.7399H54.619V48.044H51.0952V44.348H54.619V40.652H51.0952V36.9561H54.619V33.2601ZM58.1429 40.652V44.348H61.6667V40.652H58.1429Z" fill="white"/>
</svg>
