<svg width="106" height="119" viewBox="0 0 106 119" fill="none" xmlns="http://www.w3.org/2000/svg">
<path d="M1.56101 115V102.859H3.83314L7.52753 108.6L11.2219 102.859H13.4941V115H11.3607V106.293L7.52753 112.017H7.45815L3.6597 106.328V115H1.56101ZM20.7296 115.208C19.342 115.208 18.1857 114.746 17.2607 113.821C16.3356 112.896 15.8731 111.768 15.8731 110.438C15.8731 109.109 16.3414 107.981 17.278 107.056C18.2146 106.12 19.3767 105.651 20.7643 105.651C22.1518 105.651 23.3081 106.114 24.2332 107.039C25.1698 107.964 25.6381 109.097 25.6381 110.438C25.6381 111.757 25.1698 112.884 24.2332 113.821C23.2966 114.746 22.1287 115.208 20.7296 115.208ZM20.7643 113.387C21.5968 113.387 22.2675 113.104 22.7762 112.537C23.285 111.97 23.5394 111.271 23.5394 110.438C23.5394 109.617 23.2734 108.924 22.7415 108.357C22.2096 107.779 21.539 107.49 20.7296 107.49C19.9086 107.49 19.2437 107.773 18.735 108.34C18.2262 108.906 17.9718 109.606 17.9718 110.438C17.9718 111.248 18.2377 111.942 18.7696 112.52C19.3015 113.098 19.9664 113.387 20.7643 113.387ZM27.7754 115V105.842H29.8741V107.264C30.6025 106.189 31.5565 105.651 32.7359 105.651C33.7535 105.651 34.5513 105.969 35.1295 106.605C35.7076 107.241 35.9967 108.097 35.9967 109.172V115H33.898V109.797C33.898 109.08 33.7246 108.53 33.3777 108.149C33.0423 107.756 32.5625 107.559 31.9381 107.559C31.3252 107.559 30.828 107.762 30.4464 108.166C30.0649 108.571 29.8741 109.126 29.8741 109.831V115H27.7754ZM42.8845 115.208C41.497 115.208 40.3406 114.746 39.4156 113.821C38.4906 112.896 38.028 111.768 38.028 110.438C38.028 109.109 38.4963 107.981 39.433 107.056C40.3696 106.12 41.5316 105.651 42.9192 105.651C44.3068 105.651 45.4631 106.114 46.3881 107.039C47.3247 107.964 47.793 109.097 47.793 110.438C47.793 111.757 47.3247 112.884 46.3881 113.821C45.4515 114.746 44.2836 115.208 42.8845 115.208ZM42.9192 113.387C43.7517 113.387 44.4224 113.104 44.9312 112.537C45.4399 111.97 45.6943 111.271 45.6943 110.438C45.6943 109.617 45.4284 108.924 44.8965 108.357C44.3646 107.779 43.6939 107.49 42.8845 107.49C42.0635 107.49 41.3987 107.773 40.8899 108.34C40.3811 108.906 40.1267 109.606 40.1267 110.438C40.1267 111.248 40.3927 111.942 40.9246 112.52C41.4565 113.098 42.1214 113.387 42.9192 113.387ZM61.1315 115.208C59.2583 115.208 57.7378 114.618 56.5699 113.439C55.4136 112.248 54.8354 110.745 54.8354 108.929C54.8354 107.195 55.4252 105.715 56.6046 104.489C57.7956 103.264 59.293 102.651 61.0968 102.651C62.1144 102.651 62.9816 102.789 63.6985 103.067C64.4154 103.333 65.1034 103.743 65.7625 104.298L64.4096 105.911C63.9009 105.472 63.3863 105.148 62.866 104.94C62.3572 104.72 61.7386 104.611 61.0101 104.611C59.9001 104.611 58.9634 105.033 58.2003 105.877C57.4487 106.721 57.0729 107.738 57.0729 108.929C57.0729 110.19 57.4545 111.23 58.2176 112.051C58.9808 112.861 59.9752 113.266 61.2009 113.266C62.3341 113.266 63.3111 112.959 64.1321 112.346V110.074H61.0274V108.218H66.1961V113.318C64.7276 114.578 63.0394 115.208 61.1315 115.208ZM76.5846 115H74.5032V113.873C73.7632 114.751 72.7745 115.191 71.5373 115.191C70.6238 115.191 69.8491 114.942 69.2131 114.445C68.5887 113.936 68.2765 113.231 68.2765 112.329C68.2765 111.346 68.6176 110.6 69.2998 110.091C69.9821 109.583 70.8782 109.328 71.9882 109.328C72.8786 109.328 73.7227 109.456 74.5205 109.71V109.536C74.5205 108.901 74.324 108.415 73.9308 108.08C73.5493 107.744 72.9942 107.577 72.2658 107.577C71.4332 107.577 70.5602 107.767 69.6467 108.149L69.0744 106.466C70.2075 105.958 71.3696 105.703 72.5606 105.703C73.8904 105.703 74.8906 106.039 75.5612 106.709C76.2434 107.38 76.5846 108.334 76.5846 109.571V115ZM74.5552 111.687V111.167C73.9308 110.924 73.2313 110.803 72.4565 110.803C71.7975 110.803 71.2829 110.93 70.9129 111.184C70.5429 111.439 70.3579 111.797 70.3579 112.26C70.3579 112.676 70.5255 113.005 70.8609 113.248C71.1962 113.491 71.6182 113.612 72.127 113.612C72.8323 113.612 73.4105 113.433 73.8615 113.075C74.324 112.716 74.5552 112.254 74.5552 111.687ZM79.0807 115V105.842H81.1794V107.23C81.9425 106.177 82.8733 105.651 83.9718 105.651C85.2438 105.651 86.1515 106.189 86.6949 107.264C87.5159 106.189 88.5508 105.651 89.7996 105.651C90.8056 105.651 91.5919 105.958 92.1585 106.571C92.725 107.183 93.0083 108.045 93.0083 109.155V115H90.9097V109.797C90.9097 109.068 90.7478 108.513 90.424 108.132C90.1002 107.75 89.6435 107.559 89.0538 107.559C88.4641 107.559 87.99 107.762 87.6315 108.166C87.2731 108.559 87.0939 109.114 87.0939 109.831V115H84.9952V109.779C84.9952 109.074 84.8333 108.53 84.5095 108.149C84.1858 107.756 83.729 107.559 83.1393 107.559C82.5496 107.559 82.0755 107.767 81.717 108.184C81.3586 108.588 81.1794 109.143 81.1794 109.849V115H79.0807ZM99.7588 115.208C98.4174 115.208 97.2958 114.763 96.3939 113.873C95.5036 112.982 95.0584 111.832 95.0584 110.421C95.0584 109.091 95.4804 107.964 96.3245 107.039C97.1686 106.114 98.2382 105.651 99.5333 105.651C100.921 105.651 101.996 106.125 102.759 107.074C103.534 108.01 103.921 109.178 103.921 110.577C103.921 110.832 103.91 111.028 103.887 111.167H97.1571C97.2727 111.895 97.5676 112.468 98.0416 112.884C98.5157 113.289 99.0997 113.491 99.7934 113.491C100.695 113.491 101.522 113.127 102.274 112.398L103.505 113.491C102.557 114.636 101.308 115.208 99.7588 115.208ZM97.1397 109.779H101.84C101.771 109.074 101.534 108.496 101.129 108.045C100.724 107.594 100.187 107.368 99.5159 107.368C98.88 107.368 98.3481 107.594 97.9202 108.045C97.4924 108.484 97.2322 109.062 97.1397 109.779Z" fill="#DCD2FF"/>
<path d="M89 30.6519V20.9557C89 9.39613 79.6039 0 68.0443 0C62.4066 0 57.2742 2.24244 53.5 5.89035C49.7258 2.25823 44.5934 0 38.9557 0C27.3961 0 18 9.41192 18 20.9557V50.0443C18 61.6039 27.3961 71 38.9557 71H68.0443C79.6039 71 89 61.6039 89 50.0443V35.958H47.0885V48.7809H76.1771V50.0443C76.1771 54.5291 72.5291 58.177 68.0443 58.177H38.9557C34.4709 58.177 30.823 54.5291 30.823 50.0443V20.9557C30.823 16.4709 34.4709 12.823 38.9557 12.823C43.4406 12.823 47.0885 16.4709 47.0885 20.9557V30.6519H59.9115V20.9557C59.9115 16.4709 63.5594 12.823 68.0443 12.823C72.5291 12.823 76.1771 16.4709 76.1771 20.9557V30.6519H89Z" fill="white"/>
</svg>
