<svg width="86" height="118" viewBox="0 0 86 118" fill="none" xmlns="http://www.w3.org/2000/svg">
<path d="M18.6009 97.2081C16.7281 97.2081 15.208 96.6185 14.0404 95.4394C12.8844 94.2487 12.3064 92.7459 12.3064 90.931C12.3064 89.197 12.896 87.7173 14.0751 86.492C15.2658 85.2666 16.7628 84.6539 18.5662 84.6539C19.5835 84.6539 20.4505 84.7926 21.1672 85.0701C21.8839 85.336 22.5717 85.7463 23.2306 86.3012L21.8781 87.9138C21.3695 87.4746 20.8551 87.1509 20.3349 86.9428C19.8262 86.7232 19.2078 86.6133 18.4795 86.6133C17.3697 86.6133 16.4334 87.0353 15.6704 87.8792C14.919 88.723 14.5433 89.7403 14.5433 90.931C14.5433 92.191 14.9248 93.2314 15.6877 94.0522C16.4507 94.8614 17.4449 95.266 18.6702 95.266C19.8031 95.266 20.7799 94.9597 21.6007 94.347V92.0754H18.4968V90.2201H23.6641V95.318C22.196 96.5781 20.5083 97.2081 18.6009 97.2081ZM30.5512 97.2081C29.164 97.2081 28.008 96.7457 27.0832 95.8209C26.1584 94.8961 25.696 93.769 25.696 92.4396C25.696 91.1102 26.1642 89.9831 27.1006 89.0583C28.0369 88.1219 29.1987 87.6537 30.5859 87.6537C31.9731 87.6537 33.1291 88.1161 34.0539 89.0409C34.9903 89.9657 35.4585 91.0986 35.4585 92.4396C35.4585 93.7574 34.9903 94.8845 34.0539 95.8209C33.1176 96.7457 31.95 97.2081 30.5512 97.2081ZM30.5859 95.3874C31.4182 95.3874 32.0887 95.1042 32.5974 94.5377C33.106 93.9713 33.3603 93.2719 33.3603 92.4396C33.3603 91.6188 33.0944 90.9252 32.5627 90.3588C32.0309 89.7808 31.3604 89.4918 30.5512 89.4918C29.7305 89.4918 29.0658 89.775 28.5571 90.3414C28.0485 90.9079 27.7942 91.6073 27.7942 92.4396C27.7942 93.2488 28.0601 93.9424 28.5918 94.5204C29.1236 95.0984 29.7883 95.3874 30.5859 95.3874ZM41.9475 97.2081C40.5603 97.2081 39.4043 96.7457 38.4795 95.8209C37.5547 94.8961 37.0923 93.769 37.0923 92.4396C37.0923 91.1102 37.5605 89.9831 38.4969 89.0583C39.4332 88.1219 40.595 87.6537 41.9822 87.6537C43.3694 87.6537 44.5254 88.1161 45.4502 89.0409C46.3866 89.9657 46.8548 91.0986 46.8548 92.4396C46.8548 93.7574 46.3866 94.8845 45.4502 95.8209C44.5139 96.7457 43.3463 97.2081 41.9475 97.2081ZM41.9822 95.3874C42.8145 95.3874 43.485 95.1042 43.9937 94.5377C44.5023 93.9713 44.7566 93.2719 44.7566 92.4396C44.7566 91.6188 44.4907 90.9252 43.959 90.3588C43.4272 89.7808 42.7567 89.4918 41.9475 89.4918C41.1268 89.4918 40.4621 89.775 39.9534 90.3414C39.4448 90.9079 39.1905 91.6073 39.1905 92.4396C39.1905 93.2488 39.4564 93.9424 39.9881 94.5204C40.5199 95.0984 41.1846 95.3874 41.9822 95.3874ZM53.0664 99.8091C51.5405 99.8091 50.1764 99.4449 48.9742 98.7167L49.7545 97.1387C50.7949 97.7861 51.8815 98.1098 53.0144 98.1098C53.9508 98.1098 54.6675 97.867 55.1646 97.3815C55.6616 96.9075 55.9102 96.2139 55.9102 95.3007V94.5897C55.0432 95.7111 53.9681 96.2717 52.6849 96.2717C51.5521 96.2717 50.5752 95.8787 49.7545 95.0926C48.9337 94.3065 48.5233 93.2603 48.5233 91.9541C48.5233 90.6593 48.9337 89.6189 49.7545 88.8329C50.5868 88.0468 51.5636 87.6537 52.6849 87.6537C53.9565 87.6537 55.0258 88.1739 55.8928 89.2143V87.8445H57.991V95.1273C57.991 96.6532 57.6037 97.8034 56.8292 98.5779C56.0084 99.3987 54.7542 99.8091 53.0664 99.8091ZM53.2398 94.503C53.9797 94.503 54.6097 94.2661 55.1299 93.7921C55.6616 93.3066 55.9275 92.6939 55.9275 91.9541C55.9275 91.2142 55.6616 90.6073 55.1299 90.1334C54.6097 89.6594 53.9797 89.4224 53.2398 89.4224C52.5 89.4224 51.8815 89.6594 51.3844 90.1334C50.8874 90.5958 50.6388 91.2084 50.6388 91.9714C50.6388 92.7112 50.8874 93.3181 51.3844 93.7921C51.8931 94.2661 52.5115 94.503 53.2398 94.503ZM60.7293 97V84.3418H62.8275V97H60.7293ZM69.7658 97.2081C68.4248 97.2081 67.3035 96.763 66.4018 95.8729C65.5117 94.9828 65.0666 93.8326 65.0666 92.4222C65.0666 91.0928 65.4886 89.9657 66.3325 89.0409C67.1763 88.1161 68.2456 87.6537 69.5404 87.6537C70.9276 87.6537 72.0026 88.1277 72.7656 89.0756C73.5401 90.012 73.9274 91.1795 73.9274 92.5783C73.9274 92.8326 73.9158 93.0291 73.8927 93.1679H67.1648C67.2804 93.8961 67.5752 94.4684 68.0491 94.8845C68.5231 95.2891 69.1069 95.4914 69.8005 95.4914C70.7021 95.4914 71.5287 95.1273 72.2801 94.399L73.5112 95.4914C72.5633 96.6359 71.3148 97.2081 69.7658 97.2081ZM67.1474 91.7807H71.8466C71.7772 91.0755 71.5402 90.4975 71.1356 90.0467C70.731 89.5958 70.1935 89.3704 69.523 89.3704C68.8872 89.3704 68.3555 89.5958 67.9277 90.0467C67.5 90.4859 67.2399 91.0639 67.1474 91.7807ZM6.72248 114V101.862H11.5083C12.9186 101.862 14.04 102.232 14.8723 102.972C15.7046 103.712 16.1208 104.706 16.1208 105.954C16.1208 107.261 15.6584 108.278 14.7336 109.006C13.8203 109.734 12.6643 110.098 11.2656 110.098H8.8553V114H6.72248ZM8.8553 108.174H11.3349C12.1326 108.174 12.7684 107.971 13.2423 107.567C13.7163 107.162 13.9533 106.63 13.9533 105.972C13.9533 105.278 13.7163 104.746 13.2423 104.376C12.7799 103.995 12.1441 103.804 11.3349 103.804H8.8553V108.174ZM18.1837 114V101.342H20.2818V114H18.1837ZM30.7055 114H28.6247V112.873C27.8848 113.751 26.8964 114.191 25.6595 114.191C24.7463 114.191 23.9718 113.942 23.336 113.445C22.7117 112.936 22.3996 112.231 22.3996 111.33C22.3996 110.347 22.7406 109.601 23.4227 109.093C24.1047 108.584 25.0006 108.33 26.1104 108.33C27.0005 108.33 27.8444 108.457 28.642 108.711V108.538C28.642 107.902 28.4455 107.417 28.0524 107.081C27.671 106.746 27.1161 106.578 26.3878 106.578C25.5555 106.578 24.6827 106.769 23.7695 107.151L23.1972 105.469C24.3301 104.96 25.4919 104.706 26.6826 104.706C28.012 104.706 29.0119 105.041 29.6824 105.711C30.3644 106.382 30.7055 107.336 30.7055 108.573V114ZM28.6767 110.688V110.168C28.0524 109.925 27.3531 109.804 26.5785 109.804C25.9196 109.804 25.4052 109.931 25.0353 110.185C24.6654 110.44 24.4804 110.798 24.4804 111.26C24.4804 111.676 24.648 112.006 24.9833 112.249C25.3185 112.491 25.7404 112.613 26.2491 112.613C26.9542 112.613 27.5322 112.434 27.9831 112.075C28.4455 111.717 28.6767 111.254 28.6767 110.688ZM34.735 116.826C33.972 116.826 33.2495 116.641 32.5675 116.272L33.2784 114.711C33.7061 114.942 34.1165 115.058 34.5096 115.058C34.8101 115.058 35.0587 114.977 35.2552 114.815C35.4517 114.665 35.6367 114.393 35.8101 114L31.9953 104.844H34.2321L36.8331 111.642L39.2087 104.844H41.3935L37.7521 114.26C37.3822 115.196 36.9718 115.855 36.521 116.237C36.0702 116.63 35.4748 116.826 34.735 116.826ZM43.1918 116.774V104.844H45.2899V106.37C46.0991 105.226 47.1337 104.654 48.3938 104.654C49.5498 104.654 50.5497 105.087 51.3936 105.954C52.2375 106.81 52.6594 107.971 52.6594 109.44C52.6594 110.885 52.2375 112.041 51.3936 112.908C50.5497 113.763 49.5498 114.191 48.3938 114.191C47.1337 114.191 46.0991 113.653 45.2899 112.578V116.774H43.1918ZM47.9082 112.37C48.6481 112.37 49.2665 112.098 49.7636 111.555C50.2723 111.012 50.5266 110.295 50.5266 109.405C50.5266 108.538 50.2723 107.833 49.7636 107.289C49.255 106.746 48.6365 106.474 47.9082 106.474C47.18 106.474 46.5499 106.752 46.0182 107.307C45.498 107.862 45.2379 108.573 45.2379 109.44C45.2379 110.295 45.498 111 46.0182 111.555C46.5499 112.098 47.18 112.37 47.9082 112.37ZM62.4898 114H60.409V112.873C59.6692 113.751 58.6808 114.191 57.4439 114.191C56.5306 114.191 55.7561 113.942 55.1203 113.445C54.4961 112.936 54.184 112.231 54.184 111.33C54.184 110.347 54.525 109.601 55.207 109.093C55.8891 108.584 56.785 108.33 57.8947 108.33C58.7848 108.33 59.6287 108.457 60.4264 108.711V108.538C60.4264 107.902 60.2298 107.417 59.8368 107.081C59.4553 106.746 58.9004 106.578 58.1722 106.578C57.3398 106.578 56.4671 106.769 55.5538 107.151L54.9816 105.469C56.1145 104.96 57.2763 104.706 58.4669 104.706C59.7963 104.706 60.7963 105.041 61.4668 105.711C62.1488 106.382 62.4898 107.336 62.4898 108.573V114ZM60.461 110.688V110.168C59.8368 109.925 59.1374 109.804 58.3629 109.804C57.704 109.804 57.1896 109.931 56.8196 110.185C56.4497 110.44 56.2648 110.798 56.2648 111.26C56.2648 111.676 56.4324 112.006 56.7676 112.249C57.1029 112.491 57.5248 112.613 58.0334 112.613C58.7386 112.613 59.3166 112.434 59.7674 112.075C60.2298 111.717 60.461 111.254 60.461 110.688ZM68.1238 114.173C66.6904 114.173 65.3957 113.717 64.2397 112.804L65.176 111.382C66.1702 112.133 67.1701 112.509 68.1759 112.509C68.6267 112.509 68.9735 112.422 69.2163 112.249C69.4706 112.064 69.5977 111.809 69.5977 111.486C69.5977 111.324 69.5515 111.185 69.459 111.07C69.3781 110.942 69.2278 110.827 69.0082 110.723C68.7885 110.619 68.6036 110.544 68.4533 110.497C68.303 110.451 68.0545 110.376 67.7077 110.272L67.5516 110.22C67.2279 110.127 66.9505 110.041 66.7193 109.96C66.4997 109.867 66.2511 109.746 65.9737 109.596C65.6962 109.445 65.4708 109.284 65.2974 109.11C65.124 108.925 64.9795 108.694 64.8639 108.417C64.7483 108.139 64.6905 107.827 64.6905 107.48C64.6905 106.636 64.9969 105.96 65.6095 105.451C66.2338 104.943 67.0141 104.688 67.9504 104.688C69.1411 104.688 70.2624 105.035 71.3144 105.729L70.4821 107.22C69.5342 106.642 68.6729 106.353 67.8984 106.353C67.4938 106.353 67.1759 106.44 66.9447 106.613C66.7251 106.787 66.6153 107.018 66.6153 107.307C66.6153 107.503 66.7135 107.682 66.91 107.844C67.1181 108.006 67.3204 108.128 67.5169 108.208C67.725 108.278 68.0545 108.388 68.5053 108.538C68.5284 108.549 68.5573 108.561 68.592 108.573C68.6267 108.584 68.6556 108.59 68.6787 108.59C69.0833 108.717 69.4243 108.844 69.7018 108.971C69.9792 109.087 70.2682 109.249 70.5688 109.457C70.8809 109.665 71.1179 109.925 71.2797 110.237C71.4416 110.538 71.5225 110.89 71.5225 111.295C71.5225 112.22 71.2046 112.931 70.5688 113.428C69.933 113.925 69.118 114.173 68.1238 114.173ZM76.6245 114.173C75.1911 114.173 73.8963 113.717 72.7403 112.804L73.6767 111.382C74.6709 112.133 75.6708 112.509 76.6765 112.509C77.1274 112.509 77.4742 112.422 77.7169 112.249C77.9712 112.064 78.0984 111.809 78.0984 111.486C78.0984 111.324 78.0522 111.185 77.9597 111.07C77.8788 110.942 77.7285 110.827 77.5088 110.723C77.2892 110.619 77.1042 110.544 76.954 110.497C76.8037 110.451 76.5551 110.376 76.2083 110.272L76.0523 110.22C75.7286 110.127 75.4512 110.041 75.22 109.96C75.0003 109.867 74.7518 109.746 74.4743 109.596C74.1969 109.445 73.9715 109.284 73.7981 109.11C73.6247 108.925 73.4802 108.694 73.3646 108.417C73.249 108.139 73.1912 107.827 73.1912 107.48C73.1912 106.636 73.4975 105.96 74.1102 105.451C74.7344 104.943 75.5147 104.688 76.4511 104.688C77.6418 104.688 78.7631 105.035 79.8151 105.729L78.9827 107.22C78.0348 106.642 77.1736 106.353 76.3991 106.353C75.9945 106.353 75.6766 106.44 75.4454 106.613C75.2257 106.787 75.1159 107.018 75.1159 107.307C75.1159 107.503 75.2142 107.682 75.4107 107.844C75.6188 108.006 75.8211 108.128 76.0176 108.208C76.2257 108.278 76.5551 108.388 77.006 108.538C77.0291 108.549 77.058 108.561 77.0927 108.573C77.1274 108.584 77.1563 108.59 77.1794 108.59C77.584 108.717 77.925 108.844 78.2024 108.971C78.4799 109.087 78.7689 109.249 79.0694 109.457C79.3816 109.665 79.6185 109.925 79.7804 110.237C79.9422 110.538 80.0231 110.89 80.0231 111.295C80.0231 112.22 79.7052 112.931 79.0694 113.428C78.4336 113.925 77.6187 114.173 76.6245 114.173Z" fill="#DCD2FF"/>
<path d="M61.6916 0H54.44C54.44 5.96304 49.54 10.8 43.4993 10.8C37.4585 10.8 32.5585 5.96304 32.5585 0H25.307C21.2618 0 18 3.21984 18 7.2144V10.8432V61.2V64.7856C18 68.7787 21.2618 72 25.3084 72H32.5585C32.5585 66.037 37.4585 61.2 43.4993 61.2C49.54 61.2 54.44 66.037 54.44 72H61.6916C65.7367 72 69 68.7802 69 64.7856V61.2V10.8418V7.2144C68.9985 3.21984 65.7367 0 61.6916 0Z" fill="white"/>
<path d="M18 10.8416V61.1998L43.4993 36.0286L18 10.8416Z" fill="white"/>
<path d="M68.9983 61.1998V10.8416L43.499 36.0286L68.9983 61.1998Z" fill="white"/>
<path d="M61.6916 0H54.44C54.44 5.96304 49.54 10.8 43.4993 10.8C37.4585 10.8 32.5585 5.96304 32.5585 0H25.307C21.2618 0 18 3.21984 18 7.2144V10.8432L43.4993 36.0144L68.9985 10.8432V7.2144C68.9985 3.21984 65.7367 0 61.6916 0Z" fill="white"/>
</svg>
