<?xml version="1.0" standalone="no"?>
<!DOCTYPE svg PUBLIC "-//W3C//DTD SVG 1.1//EN" "http://www.w3.org/Graphics/SVG/1.1/DTD/svg11.dtd" >
<svg>
<metadata>
Created by FontForge 20090914 at Sat Aug 14 14:18:48 2021
 By www-data
Copyright (c) 2019 by Oleh Lishchuk. All rights reserved. |DCNT
</metadata>
<defs>
<font id="MazzardL-Regular" horiz-adv-x="600" >
  <font-face 
    font-family="Mazzard L"
    font-weight="400"
    font-stretch="semi-expanded"
    units-per-em="1000"
    panose-1="0 0 0 0 0 0 0 0 0 0"
    ascent="755"
    descent="-245"
    x-height="380"
    cap-height="650"
    bbox="-101 -238 1164 923"
    underline-thickness="50"
    underline-position="-175"
    unicode-range="U+000D-U+FB04"
  />
<missing-glyph horiz-adv-x="333" 
 />
    <glyph glyph-name="f_f" unicode="ff" horiz-adv-x="490" 
d="M78 324h-64.001v56h64v208c0 32 10.667 58.667 32 80s48.333 32 81 32h50v-62h-46c-15.333 0 -28.166 -5.5 -38.499 -16.5s-15.5 -24.833 -15.5 -41.5v-200h172v208c0 31.333 10.833 57.833 32.5 79.5s48.5 32.5 80.5 32.5h51v-62h-46c-16 0 -29.167 -5.5 -39.5 -16.5
s-15.5 -24.833 -15.5 -41.5v-200h101v-56h-101v-324h-63v324h-172v-324h-63v324z" />
    <glyph glyph-name="fi" unicode="fi" horiz-adv-x="427" 
d="M141 580l-0.000976562 -200h100v-56h-100v-324h-63v324h-64v56h64v208c0 32 10.667 58.667 32 80s48.333 32 81 32h50v-62h-46c-15.333 0 -28.166 -5.5 -38.499 -16.5s-15.5 -24.833 -15.5 -41.5zM372.999 0h-63v380h63v-380zM341.999 589c12 0 22.167 -4 30.5 -12
s12.5 -18.333 12.5 -31s-4.16699 -23 -12.5 -31s-18.5 -12 -30.5 -12c-18 -1.33301 -30.667 5.5 -38 20.5s-7.33301 30 0 45s20 21.833 38 20.5z" />
    <glyph glyph-name="fl" unicode="fl" horiz-adv-x="427" 
d="M141 580l-0.000976562 -200h100v-56h-100v-324h-63v324h-64v56h64v208c0 31.333 10.833 57.833 32.5 79.5s48.5 32.5 80.5 32.5h50v-62h-46c-15.333 0 -28.166 -5.5 -38.499 -16.5s-15.5 -24.833 -15.5 -41.5zM372.999 0h-63v700h63v-700z" />
    <glyph glyph-name="f_f_i" unicode="ffi" horiz-adv-x="662" 
d="M78 0l-0.000976562 324h-64v56h64v208c0 32 10.667 58.667 32 80s48.333 32 81 32h50v-62h-46c-15.333 0 -28.166 -5.5 -38.499 -16.5s-15.5 -24.833 -15.5 -41.5v-200h172v208c0 31.333 10.833 57.833 32.5 79.5s48.5 32.5 80.5 32.5h51v-62h-46
c-16 0 -29.167 -5.5 -39.5 -16.5s-15.5 -24.833 -15.5 -41.5v-200h232v-380h-63v324h-169v-324h-63v324h-172v-324h-63zM576.999 589c12 0 22.167 -4 30.5 -12s12.5 -18.333 12.5 -31s-4.16699 -23 -12.5 -31s-18.5 -12 -30.5 -12c-18 -1.33301 -30.667 5.5 -38 20.5
s-7.33301 30 0 45s20 21.833 38 20.5z" />
    <glyph glyph-name="f_f_l" unicode="ffl" horiz-adv-x="662" 
d="M78 0l-0.000976562 324h-64v56h64v208c0 32 10.667 58.667 32 80s48.333 32 81 32h50v-62h-46c-15.333 0 -28.166 -5.5 -38.499 -16.5s-15.5 -24.833 -15.5 -41.5v-200h172v208c0 31.333 10.833 57.833 32.5 79.5s48.5 32.5 80.5 32.5h51v-62h-46
c-16 0 -29.167 -5.5 -39.5 -16.5s-15.5 -24.833 -15.5 -41.5v-200h101v-56h-101v-324h-63v324h-172v-324h-63zM607.999 700v-700h-63v700h63z" />
    <glyph glyph-name="afii10104_afii10104" unicode="&#x457;&#x457;" horiz-adv-x="344" 
d="M118 0h-64v380h64v-380zM4 589c12.667 0 23.167 -4.33203 31.5 -12.999s12.5 -19.667 12.5 -33c0 -12.667 -4.16699 -23.334 -12.5 -32.001s-18.833 -13 -31.5 -13c-18.667 -2 -32 5 -40 21s-8 32 0 48s21.333 23.333 40 22zM290 0.000976562h-64v380h64v-380z
M173 589.001c12.667 0 23.167 -4.33203 31.5 -12.999s12.5 -19.667 12.5 -33c0 -12.667 -4.16699 -23.334 -12.5 -32.001s-18.833 -13 -31.5 -13c-18.667 -2 -32 5 -40 21s-8 32 0 48s21.333 23.333 40 22zM296 543.002c-1.33301 18.667 5.83398 32 21.501 40
s31.334 8 47.001 0s22.834 -21.333 21.501 -40c1.33301 -18 -5.83398 -30.833 -21.501 -38.5s-31.334 -7.66699 -47.001 0s-22.834 20.5 -21.501 38.5z" />
    <glyph glyph-name=".notdef" horiz-adv-x="333" 
 />
    <glyph glyph-name="uni0000" horiz-adv-x="0" 
 />
    <glyph glyph-name="uni0000" horiz-adv-x="0" 
 />
    <glyph glyph-name="uni000D" unicode="&#xd;" horiz-adv-x="250" 
 />
    <glyph glyph-name="space" unicode=" " horiz-adv-x="254" 
 />
    <glyph glyph-name="exclam" unicode="!" horiz-adv-x="196" 
d="M64 4c-8.66699 9.33301 -13 20.666 -13 33.999s4.33301 24.333 13 33c9.33301 8.66699 20.666 13 33.999 13s24.333 -4.33301 33 -13c9.33301 -8.66699 14 -19.667 14 -33s-4.66699 -24.666 -14 -33.999c-8.66699 -8.66699 -19.667 -13 -33 -13
s-24.666 4.33301 -33.999 13zM128 196h-60l-9 454h78z" />
    <glyph glyph-name="quotedbl" unicode="&#x22;" horiz-adv-x="301" 
d="M115 469h-50l-8 181h65zM236 469h-50l-7 181h64z" />
    <glyph glyph-name="numbersign" unicode="#" horiz-adv-x="637" 
d="M24 183v58h151l29 168h-135v58h146l32 183h59l-32 -183h140l32 183h59l-32 -183h141l-1 -58h-150l-30 -168h136v-58h-146l-32 -183h-59l32 183h-141l-32 -183h-59l32 183h-140zM263 409l-29 -168h140l30 168h-141z" />
    <glyph glyph-name="dollar" unicode="$" horiz-adv-x="575" 
d="M260 -115l-0.00488281 105.997c-53.333 4.66699 -99.166 21.167 -137.499 49.5s-62.5 63.5 -72.5 105.5l71 21c5.33301 -31.333 23.833 -57.166 55.5 -77.499s69.834 -30.5 114.501 -30.5c46 0 84.333 11 115 33c31.333 23.333 47 52 47 86c0 30 -12.5 53.5 -37.5 70.5
s-63.5 31.833 -115.5 44.5l-49 12l-45 14c-20.667 8 -35.667 14.333 -45 19c-32.667 18.667 -55 36.334 -67 53.001c-17.333 24 -26 52.667 -26 86c0 49.333 17.333 90.5 52 123.5s80.334 52.167 137.001 57.5v108h52v-108c50 -4.66699 93 -20.167 129 -46.5
s58.667 -58.833 68 -97.5l-71 -20c-6 28 -23 51 -51 69s-61 27 -99 27c-42 0 -76.667 -10.333 -104 -31c-28 -20.667 -42 -46.667 -42 -78c0 -24 11 -45.667 33 -65c10.667 -8 24.334 -15.333 41.001 -22l48 -16l58 -16c46.667 -11.333 83.334 -23.666 110.001 -36.999
c60 -26.667 91.667 -74 95 -142c0 -54 -19.667 -98.667 -59 -134c-38.667 -34.667 -89.667 -54 -153 -58v-106h-52z" />
    <glyph glyph-name="percent" unicode="%" horiz-adv-x="818" 
d="M175 0l-45 38l515 612l44 -38zM200 660c46.667 0 85.668 -15.667 117.001 -47s47 -70.333 47 -117s-15.667 -85.667 -47 -117c-30.667 -30.667 -69.667 -46 -117 -46c-46.667 0 -85.334 15.333 -116.001 46c-31.333 31.333 -47 70.333 -47 117s15.667 85.667 47 117
s70 47 116 47zM103.001 496c0 -27.333 9.33301 -50.5 28 -69.5s41.667 -28.5 69 -28.5c28 0 51.333 9.5 70 28.5s28 42.167 28 69.5c0 28 -9.33301 51.333 -28 70s-42 28 -70 28c-27.333 0 -50.333 -9.33301 -69 -28s-28 -42 -28 -70zM454.001 154
c0 46.667 15.333 85.333 46 116c31.333 31.333 70.333 47 117 47c46 0 84.667 -15.667 116 -47s47 -70 47 -116c0 -46.667 -15.667 -85.667 -47 -117s-70 -47 -116 -47c-46.667 0 -85.667 15.667 -117 47c-30.667 30.667 -46 69.667 -46 117zM519.001 153.999
c0 -28 9.33301 -51.333 28 -70s42 -28 70 -28c27.333 0 50.5 9.33301 69.5 28s28.5 42 28.5 70c0 27.333 -9.5 50.5 -28.5 69.5s-42.167 28.5 -69.5 28.5c-28 0 -51.333 -9.5 -70 -28.5s-28 -42.167 -28 -69.5z" />
    <glyph glyph-name="ampersand" unicode="&#x26;" horiz-adv-x="640" 
d="M48 190c0 39.333 11 73.333 33 102s55 55.334 99 80.001c-35.333 51.333 -53 99.666 -53 144.999c0 42 13.667 76.167 41 102.5s62 39.5 104 39.5c43.333 0 80.333 -13.667 111 -41c30 -26.667 45 -60 45 -100c0 -39.333 -16 -72.666 -48 -99.999
c-24.667 -20.667 -58.667 -42.334 -102 -65.001l41 -43l139 -142c25.333 45.333 38 97 38 155h62c0 -74 -18.667 -140.667 -56 -200l120 -123h-93l-69 71c-53.333 -53.333 -117 -80 -191 -80c-63.333 0 -116 19 -158 57c-42 38.667 -63 86 -63 142zM114 188
c0 -38 14.999 -69.998 44.999 -95.998c30.667 -25.333 68.334 -38 113.001 -38c55.333 0 103.666 20.333 144.999 61l-145 149c-15.333 15.333 -33 34.666 -53 57.999c-35.333 -20.667 -61.666 -41.334 -78.999 -62.001s-26 -44.667 -26 -72zM236.999 403.002
c25.333 13.333 42 22.335 50 27.002c7.33301 4 20 12 38 24c26.667 19.333 40 41.666 40 66.999c0 21.333 -8.66699 39.166 -26 53.499s-38.333 21.5 -63 21.5s-44.667 -7.5 -60 -22.5s-23 -35.167 -23 -60.5c0 -32 14.667 -68.667 44 -110z" />
    <glyph glyph-name="quotesingle" unicode="'" horiz-adv-x="166" 
d="M115 469h-50l-8 181h65z" />
    <glyph glyph-name="parenleft" unicode="(" horiz-adv-x="285" 
d="M186 732l14.999 17.999h66l-17 -21c-8 -10 -20 -29.333 -36 -58c-35.333 -60 -62.666 -134.667 -81.999 -224c-21.333 -105.333 -21.666 -211.333 -0.999023 -318c21.333 -102 61.666 -197 120.999 -285l15 -19h-66l-1 1c-54 62 -94.667 144.333 -122 247
c-18 68 -27 139.667 -27 215c0 114.667 17.667 213.334 53 296.001c30 72 57.333 121.333 82 148z" />
    <glyph glyph-name="parenright" unicode=")" horiz-adv-x="285" 
d="M32 730l-15 20.002h67l16 -19c7.33301 -8.66699 19.333 -27 36 -55c20 -34 35.333 -64.667 46 -92c34.667 -83.333 52 -182 52 -296c0 -106 -16 -200.667 -48 -284c-12 -32.667 -26.333 -63.334 -43 -92.001c-18.667 -34 -38 -62.667 -58 -86l-1 -1h-67l16 21
c10.667 13.333 23 33 37 59c38 64.667 65.333 139 82 223c22.667 104 23 210 1 318c-9.33301 50 -22 93.333 -38 130c-29.333 71.333 -57 122.666 -83 153.999z" />
    <glyph glyph-name="asterisk" unicode="*" horiz-adv-x="360" 
d="M158 466l-88 -63l-33 56l99 45l-99 45l33 56l88 -64l-10 109h64l-10 -109l89 64l32 -56l-99 -45l99 -45l-32 -56l-89 63l10 -108h-64z" />
    <glyph glyph-name="plus" unicode="+" 
d="M269 294h-192v62h192v192h62v-192h192v-62h-192v-192h-62v192z" />
    <glyph glyph-name="comma" unicode="," horiz-adv-x="174" 
d="M137 14c0 -23.333 -6.66797 -45.666 -20.001 -66.999c-7.33301 -12.667 -15.5 -23.667 -24.5 -33s-16 -15.833 -21 -19.5s-8.5 -5.5 -10.5 -5.5l-21 21l12 14c6 7.33301 12.333 18.166 19 32.499s9.66699 26.166 9 35.499c-12 1.33301 -21.833 6.5 -29.5 15.5
s-11.5 19.5 -11.5 31.5c0 12.667 4.5 23.334 13.5 32.001s20.167 13 33.5 13c14.667 0 26.834 -6.33301 36.501 -19s14.5 -29.667 14.5 -51z" />
    <glyph glyph-name="hyphen" unicode="-" horiz-adv-x="374" 
d="M67 161v58h239v-58h-239z" />
    <glyph glyph-name="period" unicode="." horiz-adv-x="168" 
d="M50 4c-8.66699 9.33301 -13 20.666 -13 33.999s4.33301 24.333 13 33c9.33301 8.66699 20.666 13 33.999 13s24.333 -4.33301 33 -13c9.33301 -8.66699 14 -19.667 14 -33s-4.66699 -24.666 -14 -33.999c-8.66699 -8.66699 -19.667 -13 -33 -13
s-24.666 4.33301 -33.999 13z" />
    <glyph glyph-name="slash" unicode="/" horiz-adv-x="495" 
d="M64 -175h-64l431 925h64z" />
    <glyph glyph-name="zero" unicode="0" horiz-adv-x="605" 
d="M59 219v212c0 65.333 23.333 119.333 70 162c47.333 44 105.333 66 174 66s126 -22 172 -66c46.667 -42.667 70 -96.667 70 -162v-212c0 -65.333 -23.333 -120 -70 -164c-46.667 -43.333 -104 -65 -172 -65c-68.667 0 -126.667 22 -174 66c-46.667 44 -70 98.333 -70 163
zM303 593c-48.667 0 -90.333 -15.667 -125 -47c-33.333 -31.333 -50 -69.666 -50 -114.999v-212c0 -46 16.667 -84.667 50 -116c33.333 -30.667 75 -46 125 -46s91.333 15.333 124 46c33.333 31.333 50 70 50 116v212c0 45.333 -17 83.666 -51 114.999
c-33.333 31.333 -74.333 47 -123 47z" />
    <glyph glyph-name="one" unicode="1" horiz-adv-x="399" 
d="M215 561l-136 -74l-30 61l188 102h46v-650h-68v561z" />
    <glyph glyph-name="two" unicode="2" horiz-adv-x="539" 
d="M408 464c0 36 -14.332 66.335 -42.999 91.002c-29.333 25.333 -64 38 -104 38c-34 0 -64.833 -10.333 -92.5 -31s-48.5 -48.334 -62.5 -83.001l-64 31c19.333 46 48.666 82.333 87.999 109s83 40 131 40c60.667 0 112 -19 154 -57c42.667 -36.667 64 -82 64 -136
c0 -34.667 -10.5 -68.334 -31.5 -101.001s-55.5 -72 -103.5 -118l-188 -181h333v-66h-442v50l250 241l57 59c36 40 54 78 54 114z" />
    <glyph glyph-name="three" unicode="3" horiz-adv-x="548" 
d="M410 479c0 32 -14.332 59.0029 -42.999 81.0029c-28 22 -63 33 -105 33c-33.333 0 -63.166 -7.33301 -89.499 -22s-45.5 -34.334 -57.5 -59.001l-62 31c17.333 36 44.666 64.333 81.999 85s79.666 31 126.999 31c62.667 0 114.667 -17 156 -51c42 -34 63 -76.333 63 -127
c0 -31.333 -9.16699 -59.833 -27.5 -85.5s-42.833 -45.834 -73.5 -60.501c36 -14.667 64.5 -36.167 85.5 -64.5s31.5 -59.5 31.5 -93.5c0 -53.333 -22.333 -98 -67 -134c-44.667 -35.333 -100 -53 -166 -53c-51.333 0 -96.833 11.167 -136.5 33.5s-67.5 52.5 -83.5 90.5
l66 25c11.333 -24.667 30.833 -44.5 58.5 -59.5s59.5 -22.5 95.5 -22.5c45.333 0 83.666 11.667 114.999 35c30.667 22.667 46 52 46 88c0 33.333 -15 61.666 -45 84.999c-28.667 22.667 -65.667 34 -111 34h-50v65h36c44.667 0 81.334 11 110.001 33c30 22 45 49.333 45 82
z" />
    <glyph glyph-name="four" unicode="4" horiz-adv-x="612" 
d="M409 0v137h-365v67l370 446h64v-446h97v-67h-97v-137h-69zM409 544l-282 -340h282v340z" />
    <glyph glyph-name="five" unicode="5" horiz-adv-x="561" 
d="M510 202c0 -60 -23 -110.333 -69 -151c-45.333 -40.667 -102 -61 -170 -61c-51.333 0 -97 12.5 -137 37.5s-69.333 58.833 -88 101.5l68 20c14 -28.667 34.833 -51.167 62.5 -67.5s59.167 -24.5 94.5 -24.5c47.333 0 87 14 119 42c32.667 28 49 62.333 49 103
c0 42 -17 77 -51 105c-32.667 28 -74 42 -124 42h-171l30 301h336v-64h-277l-18 -173h103c69.333 0 127 -20 173 -60c46.667 -40 70 -90.333 70 -151z" />
    <glyph glyph-name="six" unicode="6" horiz-adv-x="575" 
d="M512 548l-63.002 -32.001c-14.667 24 -35 42.833 -61 56.5s-54.667 20.5 -86 20.5c-49.333 0 -90.666 -15.667 -123.999 -47s-50 -69.666 -50 -114.999v-93c41.333 50 97 75 167 75c66 0 121.333 -20.333 166 -61c45.333 -41.333 68 -92 68 -152
c0 -58.667 -22.667 -108.667 -68 -150c-44.667 -40 -100 -60 -166 -60c-67.333 0 -123.333 20.333 -168 61s-67 91 -67 151v229c0 65.333 23.333 119.333 70 162c46.667 44 104.334 66 173.001 66c44.667 0 85.667 -10 123 -30s66 -47 86 -81zM294.998 345.999
c-47.333 0 -86.3311 -14 -116.998 -42c-31.333 -27.333 -47 -61.333 -47 -102s15.667 -75 47 -103c30.667 -28 69.667 -42 117 -42c45.333 0 83.666 13.667 114.999 41c32 28 48 62 48 102c0 41.333 -15.667 76 -47 104c-30.667 28 -69.334 42 -116.001 42z" />
    <glyph glyph-name="seven" unicode="7" horiz-adv-x="490" 
d="M139 0l235 586h-351v64h423v-67l-232 -583h-75z" />
    <glyph glyph-name="eight" unicode="8" horiz-adv-x="569" 
d="M51 177c0 35.333 10.501 67.167 31.501 95.5s49.833 50.5 86.5 66.5c-32 15.333 -56.833 36 -74.5 62s-26.5 54.667 -26.5 86c0 48 20.667 88.667 62 122s92.666 50 153.999 50c60.667 0 111.667 -16.667 153 -50s62 -74 62 -122c0 -31.333 -9 -59.833 -27 -85.5
s-42.333 -46.5 -73 -62.5c36.667 -16 65.667 -38.333 87 -67s32 -60.667 32 -96c0 -52.667 -22.333 -97 -67 -133c-45.333 -35.333 -101 -53 -167 -53s-121.667 17.667 -167 53c-44 36 -66 80.667 -66 134zM284.001 57.001c46.667 0 85.332 12 115.999 36s46 53.667 46 89
c0 36 -15.333 65.333 -46 88c-31.333 23.333 -70 35 -116 35s-84.667 -11.667 -116 -35c-30.667 -22.667 -46 -52 -46 -88c0 -35.333 15.333 -65 46 -89s69.334 -36 116.001 -36zM140.999 482.001c0 -32 13.668 -58.668 41.001 -80.001s61.333 -32 102 -32
c41.333 0 75.666 10.667 102.999 32s41 48 41 80s-14 58.333 -42 79c-27.333 21.333 -61.333 32 -102 32s-74.667 -10.667 -102 -32s-41 -47.666 -41 -78.999z" />
    <glyph glyph-name="nine" unicode="9" horiz-adv-x="575" 
d="M49 107l63.002 33c15.333 -26 36.833 -46.333 64.5 -61s58.5 -22 92.5 -22c51.333 0 93.666 15.333 126.999 46c34 31.333 51 70 51 116v93c-39.333 -56 -94 -84 -164 -84c-65.333 0 -120.666 20.667 -165.999 62c-44.667 40.667 -67 92 -67 154
c0 61.333 22.333 112.333 67 153c45.333 41.333 100.666 62 165.999 62c66.667 0 121.667 -20.333 165 -61c44.667 -40 67 -89.667 67 -149v-230c0 -65.333 -23.667 -120 -71 -164c-47.333 -43.333 -106 -65 -176 -65c-48 0 -91.333 10.5 -130 31.5
s-68.334 49.5 -89.001 85.5zM444.002 443c0 42 -15.667 77.6689 -47 107.002c-30.667 28.667 -68.667 43 -114 43c-46 0 -84.333 -14.333 -115 -43s-46 -64 -46 -106c0 -42.667 15.333 -78.334 46 -107.001s69 -43 115 -43c45.333 0 83.333 14.333 114 43
c31.333 29.333 47 64.666 47 105.999z" />
    <glyph glyph-name="colon" unicode=":" horiz-adv-x="168" 
d="M50 4c-8.66699 9.33301 -13 20.666 -13 33.999s4.33301 24.333 13 33c9.33301 8.66699 20.666 13 33.999 13s24.333 -4.33301 33 -13c9.33301 -8.66699 14 -19.667 14 -33s-4.66699 -24.666 -14 -33.999c-8.66699 -8.66699 -19.667 -13 -33 -13
s-24.666 4.33301 -33.999 13zM131 342c0 -12.667 -4.5 -23.5 -13.5 -32.5s-20.167 -13.5 -33.5 -13.5s-24.5 4.33301 -33.5 13s-13.5 19.667 -13.5 33s4.5 24.5 13.5 33.5s20.167 13.5 33.5 13.5s24.5 -4.5 33.5 -13.5s13.5 -20.167 13.5 -33.5z" />
    <glyph glyph-name="semicolon" unicode=";" horiz-adv-x="168" 
d="M131 342c0 -12.667 -4.5 -23.5 -13.5 -32.5s-20.167 -13.5 -33.5 -13.5s-24.5 4.33301 -33.5 13s-13.5 19.667 -13.5 33s4.5 24.5 13.5 33.5s20.167 13.5 33.5 13.5s24.5 -4.5 33.5 -13.5s13.5 -20.167 13.5 -33.5zM135 14c0 -23.333 -6.66797 -45.666 -20.001 -66.999
c-7.33301 -12.667 -15.5 -23.667 -24.5 -33s-16 -15.833 -21 -19.5s-8.5 -5.5 -10.5 -5.5l-20 21c3.33301 3.33301 7 8 11 14c6 7.33301 12.333 18.166 19 32.499s9.66699 26.166 9 35.499c-12 1.33301 -21.833 6.5 -29.5 15.5s-11.5 19.5 -11.5 31.5
c0 12.667 4.5 23.334 13.5 32.001s20.167 13 33.5 13c14.667 0 26.834 -6.33301 36.501 -19s14.5 -29.667 14.5 -51z" />
    <glyph glyph-name="less" unicode="&#x3c;" 
d="M503 102l-426 198v50l426 199v-69l-333 -155l333 -155v-68z" />
    <glyph glyph-name="equal" unicode="=" 
d="M77 399v63h446v-63h-446zM77 188v63h446v-63h-446z" />
    <glyph glyph-name="greater" unicode="&#x3e;" 
d="M523 350v-50l-426 -198v68l333 155l-333 155v69z" />
    <glyph glyph-name="question" unicode="?" horiz-adv-x="498" 
d="M391 470c0 34.667 -14.6689 64 -44.002 88c-28.667 24 -64.667 36 -108 36c-37.333 0 -69.666 -9.83301 -96.999 -29.5s-45.666 -45.5 -54.999 -77.5l-68 20c13.333 45.333 40 82 80 110s86.333 42 139 42c62 0 114.333 -18.333 157 -55c42.667 -36 64 -81 64 -135
c0 -26 -5.5 -50.5 -16.5 -73.5s-25 -42.333 -42 -58s-33.167 -28.5 -48.5 -38.5s-29.666 -17.667 -42.999 -23l-17 -7l-4 -73h-67l-7 106c17.333 6 37.666 15 60.999 27c22 11.333 40 22.666 54 33.999c17.333 12.667 32 28.834 44 48.501s18 39.167 18 58.5zM221.998 4
c-8.66699 9.33301 -13 20.666 -13 33.999s4.33301 24.333 13 33c9.33301 8.66699 20.666 13 33.999 13s24.333 -4.33301 33 -13s13 -19.667 13 -33s-4.33301 -24.666 -13 -33.999c-8.66699 -8.66699 -19.667 -13 -33 -13s-24.666 4.33301 -33.999 13z" />
    <glyph glyph-name="at" unicode="@" horiz-adv-x="822" 
d="M411 559c104 0 191.334 -34.334 262.001 -103.001c71.333 -69.333 107 -152.666 107 -249.999c0 -58 -13.167 -104.833 -39.5 -140.5s-60.5 -53.5 -102.5 -53.5c-24 0 -45.5 5.66699 -64.5 17s-33.167 27 -42.5 47c-32 -42.667 -75.667 -64 -131 -64
c-46.667 0 -86.667 17 -120 51c-32 34 -48 76.333 -48 127s16 93 48 127c33.333 34 73.333 51 120 51c49.333 0 90 -17.667 122 -53v46h57v-244c0 -13.333 5.66699 -24.5 17 -33.5s25 -13.5 41 -13.5c25.333 0 45.833 12.167 61.5 36.5s23.5 56.833 23.5 97.5
c0 82.667 -30 152.334 -90 209.001c-58.667 58 -132.334 87 -221.001 87s-162.667 -29.667 -222 -89c-58.667 -58.667 -88 -132.334 -88 -221.001s29 -162.334 87 -221.001c59.333 -59.333 131.666 -89 216.999 -89c54 0 101.667 13.333 143 40l28 -52
c-51.333 -31.333 -108.333 -47 -171 -47c-102.667 0 -189 35.333 -259 106c-69.333 70.667 -104 158.334 -104 263.001c0 105.333 35.333 193 106 263c70.667 70.667 158.334 106 263.001 106zM325.001 275.999c-22 -22.667 -33 -51.334 -33 -86.001s11 -63.667 33 -87
c22 -22.667 49.333 -34 82 -34s60 11.333 82 34c22 23.333 33 52.333 33 87s-11 63.334 -33 86.001c-22 23.333 -49.333 35 -82 35s-60 -11.667 -82 -35z" />
    <glyph glyph-name="A" unicode="A" horiz-adv-x="667" 
d="M93 0h-75l288 650h56l287 -650h-75l-67 153h-347zM478 219l-144 328l-144 -328h288z" />
    <glyph glyph-name="B" unicode="B" horiz-adv-x="644" 
d="M403 0h-325v650h306c52 0 95 -16 129 -48c34.667 -32 52 -72 52 -120c0 -60 -25.667 -106 -77 -138c34 -14 60.833 -35.667 80.5 -65s29.5 -62 29.5 -98c0 -50.667 -18.667 -93.667 -56 -129c-36.667 -34.667 -83 -52 -139 -52zM403 305h-253v-239h253
c34 0 62.667 11.5 86 34.5s35 51.5 35 85.5s-11.667 62.333 -35 85s-52 34 -86 34zM384 583h-234v-211h234c30.667 0 56.334 10 77.001 30s31 45.333 31 76c0 30 -10.333 55 -31 75s-46.334 30 -77.001 30z" />
    <glyph glyph-name="C" unicode="C" horiz-adv-x="724" 
d="M385 659c62.667 0 119.498 -14.6709 170.498 -44.0039s90.833 -69.666 119.5 -120.999l-68 -27c-24 38.667 -55.167 68.834 -93.5 90.501s-81.166 32.5 -128.499 32.5c-74 0 -136 -25.333 -186 -76s-75 -113.667 -75 -189s25 -138.666 75 -189.999
c50 -50.667 112 -76 186 -76c46.667 0 89.334 10.833 128.001 32.5s70 51.834 94 90.501l68 -26c-28.667 -51.333 -68.667 -91.833 -120 -121.5s-108 -44.5 -170 -44.5c-95.333 0 -175 32 -239 96c-63.333 64.667 -95 144.334 -95 239.001
c0 95.333 31.667 174.666 95 237.999c64 64 143.667 96 239 96z" />
    <glyph glyph-name="D" unicode="D" horiz-adv-x="718" 
d="M333 0l-254.999 -0.000976562v650h255c95.333 0 174.666 -31.333 237.999 -94c64 -62 96 -139 96 -231c0 -91.333 -32 -168.666 -96 -231.999c-64 -62 -143.333 -93 -238 -93zM333.001 582.999h-183v-517h183c74 0 135.667 25 185 75c50 50 75 111.333 75 184
c0 74 -25.333 135.333 -76 184c-50.667 49.333 -112 74 -184 74z" />
    <glyph glyph-name="E" unicode="E" horiz-adv-x="584" 
d="M78 650h465v-67h-393v-220h346v-67h-346v-230h397v-66h-469v650z" />
    <glyph glyph-name="F" unicode="F" horiz-adv-x="578" 
d="M78 650h465v-67h-393v-216h346v-67h-346v-300h-72v650z" />
    <glyph glyph-name="G" unicode="G" horiz-adv-x="765" 
d="M391 659c63.333 0 121.002 -14.8359 173.002 -44.5029s92 -69.834 120 -120.501l-68 -27c-22.667 38 -53.834 68 -93.501 90s-83.5 33 -131.5 33c-76.667 0 -140.334 -25.333 -191.001 -76s-76 -113.667 -76 -189s24.667 -138.666 74 -189.999
c48.667 -50.667 109.334 -76 182.001 -76c64.667 0 121 20 169 60c48 40.667 76.333 92.334 85 155.001h-275v67h354c0.666992 -4 1 -12.667 1 -26c-2 -91.333 -34.667 -168.666 -98 -231.999c-62.667 -62 -140.667 -93 -234 -93c-94.667 0 -173.334 32 -236.001 96
c-63.333 64.667 -95 144.334 -95 239.001c0 96 32.333 175.333 97 238c65.333 64 146.333 96 243 96z" />
    <glyph glyph-name="H" unicode="H" horiz-adv-x="704" 
d="M150 0h-72v650h72v-287h405v287h71v-650h-71v296h-405v-296z" />
    <glyph glyph-name="I" unicode="I" horiz-adv-x="227" 
d="M150 0h-72v650h72v-650z" />
    <glyph glyph-name="J" unicode="J" horiz-adv-x="554" 
d="M483 650l0.00292969 -418.001c0 -68 -23.667 -125.667 -71 -173c-46.667 -46 -105.334 -69 -176.001 -69c-43.333 0 -83.5 9.83301 -120.5 29.5s-66.5 46.834 -88.5 81.501l60 38c15.333 -25.333 36.166 -45.333 62.499 -60s55.166 -22 86.499 -22
c50 0 92.333 16.667 127 50c34 34 51 75.667 51 125v418h69z" />
    <glyph glyph-name="K" unicode="K" horiz-adv-x="593" 
d="M575 0h-92l-311 331l293 319h91l-292 -319zM78 0v650h72v-650h-72z" />
    <glyph glyph-name="L" unicode="L" horiz-adv-x="538" 
d="M78 650h72v-584h358v-66h-430v650z" />
    <glyph glyph-name="M" unicode="M" horiz-adv-x="838" 
d="M150 0h-72v650h72l269 -471l270 471h71v-650h-71v514l-247 -431h-46l-246 430v-513z" />
    <glyph glyph-name="N" unicode="N" horiz-adv-x="707" 
d="M147 0h-69v650h62l420 -526v526h69v-650h-62l-420 525v-525z" />
    <glyph glyph-name="O" unicode="O" horiz-adv-x="770" 
d="M146 86c-63.333 64.667 -95 144.334 -95 239.001c0 95.333 31.667 174.666 95 237.999c64 64 143.667 96 239 96s174.666 -32 237.999 -96c64 -62.667 96 -142 96 -238c0 -95.333 -32 -175 -96 -239c-63.333 -64 -142.666 -96 -237.999 -96s-175 32 -239 96zM124 325
c0 -75.333 25 -138.666 75 -189.999c50 -50.667 112 -76 186 -76c74.667 0 136.334 25.333 185.001 76c50 51.333 75 114.666 75 189.999s-25 138.333 -75 189c-48.667 50.667 -110.334 76 -185.001 76c-74 0 -136 -25.333 -186 -76s-75 -113.667 -75 -189z" />
    <glyph glyph-name="P" unicode="P" horiz-adv-x="611" 
d="M150 254v-254h-72v650h283c59.333 0 108.666 -19 147.999 -57c39.333 -37.333 59 -84.333 59 -141s-19.667 -104 -59 -142c-39.333 -37.333 -88.666 -56 -147.999 -56h-211zM361 583l-211.001 0.000976562v-262h211c38 0 69.333 12.333 94 37
c26 25.333 39 56.666 39 93.999s-13 68.333 -39 93c-25.333 25.333 -56.666 38 -93.999 38z" />
    <glyph glyph-name="Q" unicode="Q" horiz-adv-x="772" 
d="M385 -10c-95.333 0 -175 32 -239 96c-63.333 64.667 -95 144.334 -95 239.001c0 95.333 31.667 174.666 95 237.999c64 64 143.667 96 239 96s174.666 -32 237.999 -96c64 -62.667 96 -142 96 -238c0 -91.333 -29.333 -168.333 -88 -231l92 -92l-49 -49l-96 96
c-55.333 -39.333 -119.666 -59 -192.999 -59zM124 325c0 -75.333 25.001 -138.667 75.001 -190c50 -50.667 112 -76 186 -76c52 0 99.333 13.667 142 41l-115 115l48 49l120 -119c43.333 49.333 65 109.333 65 180c0 75.333 -25 138.333 -75 189
c-48.667 50.667 -110.334 76 -185.001 76c-74 0 -136 -25.333 -186 -76s-75 -113.667 -75 -189z" />
    <glyph glyph-name="R" unicode="R" horiz-adv-x="631" 
d="M78 650h292c60 0 109.333 -19 148 -57c39.333 -37.333 59 -84.333 59 -141c0 -44 -12.667 -83 -38 -117s-59 -57.667 -101 -71l163 -264h-81l-157 254h-213v-254h-72v650zM370 583l-220.001 0.000976562v-262h220c38.667 0 70.334 12.333 95.001 37
c25.333 25.333 38 56.666 38 93.999c0 36.667 -12.667 67.667 -38 93s-57 38 -95 38z" />
    <glyph glyph-name="S" unicode="S" horiz-adv-x="575" 
d="M506 514l-71.0029 -20.002c-6 28 -23 51 -51 69s-61 27 -99 27c-42 0 -76.667 -10.333 -104 -31c-28 -20.667 -42 -46.667 -42 -78c0 -24 11 -45.667 33 -65c10.667 -8 24.334 -15.333 41.001 -22l48 -16l58 -16c46.667 -11.333 83.334 -23.666 110.001 -36.999
c60 -26.667 91.667 -74 95 -142c0 -57.333 -22 -104 -66 -140c-43.333 -35.333 -99.333 -53 -168 -53c-60.667 0 -113.334 14.667 -158.001 44c-43.333 29.333 -70.666 66.666 -81.999 111.999l71 21c5.33301 -31.333 23.833 -57.166 55.5 -77.499
s69.834 -30.5 114.501 -30.5c46 0 84.333 11 115 33c31.333 23.333 47 52 47 86c0 30 -12.5 53.5 -37.5 70.5s-63.5 31.833 -115.5 44.5l-49 12l-45 14c-20.667 8 -35.667 14.333 -45 19c-32.667 18.667 -55 36.334 -67 53.001c-17.333 24 -26 52.667 -26 86
c0 54 20 97.667 60 131c41.333 34 93 51 155 51c56 0 104.5 -13.5 145.5 -40.5s66.833 -61.833 77.5 -104.5z" />
    <glyph glyph-name="T" unicode="T" horiz-adv-x="626" 
d="M277 583h-251v67h574v-67h-252v-583h-71v583z" />
    <glyph glyph-name="U" unicode="U" horiz-adv-x="684" 
d="M544 260l-0.000976562 390h72v-390c0 -76.667 -26.333 -141 -79 -193c-52.667 -51.333 -117.667 -77 -195 -77s-142.666 25.667 -195.999 77c-52 52 -78 116.333 -78 193v390h71v-390c0 -58 19.333 -106.333 58 -145s87 -58 145 -58s106 19.333 144 58
c38.667 38.667 58 87 58 145z" />
    <glyph glyph-name="V" unicode="V" horiz-adv-x="658" 
d="M357 0h-56l-283 650h75l236 -547l236 547h75z" />
    <glyph glyph-name="W" unicode="W" horiz-adv-x="945" 
d="M299 0h-56l-225 650h73l179 -535l174 535h56l176 -535l178 535h73l-224 -650h-56l-174 526z" />
    <glyph glyph-name="X" unicode="X" horiz-adv-x="623" 
d="M269 331l-241 319h85l198 -262l198 262h86l-241 -319l250 -331h-85l-208 274l-207 -274h-86z" />
    <glyph glyph-name="Y" unicode="Y" horiz-adv-x="618" 
d="M273 263l-255 387h82l208 -318l209 318h83l-256 -384v-266h-71v263z" />
    <glyph glyph-name="Z" unicode="Z" horiz-adv-x="598" 
d="M559 66v-66h-515v55l413 528h-411v67h510v-55l-412 -529h415z" />
    <glyph glyph-name="bracketleft" unicode="[" horiz-adv-x="284" 
d="M129 -117h137v-58h-202v925h202v-58h-137v-809z" />
    <glyph glyph-name="backslash" unicode="\" horiz-adv-x="495" 
d="M64 750l431 -925h-64l-431 925h64z" />
    <glyph glyph-name="bracketright" unicode="]" horiz-adv-x="284" 
d="M219 -175h-202v58h137v809h-137v58h202v-925z" />
    <glyph glyph-name="asciicircum" unicode="^" 
d="M77 363l198 287h50l198 -287h-74l-149 211l-149 -211h-74z" />
    <glyph glyph-name="underscore" unicode="_" horiz-adv-x="254" 
d="M0 -108v58h254v-58h-254z" />
    <glyph glyph-name="grave" unicode="`" horiz-adv-x="291" 
d="M214 650l-160 85l35 55l147 -102z" />
    <glyph glyph-name="a" unicode="a" horiz-adv-x="476" 
d="M222 388c54.667 0 100 -20 136 -60v52h63v-380h-63v51c-36 -40 -81.333 -60 -136 -60c-53.333 0 -98 19 -134 57c-35.333 38.667 -53 86 -53 142c0 56.667 17.667 103.667 53 141c36 38 80.667 57 134 57zM229 325c-36.667 0 -67.334 -12.8301 -92.001 -38.4971
s-37 -57.834 -37 -96.501s12.333 -70.834 37 -96.501s55.334 -38.5 92.001 -38.5c35.333 0 65.666 12.667 90.999 38c24.667 25.333 37 57.666 37 96.999s-12.333 71.333 -37 96c-25.333 26 -55.666 39 -90.999 39z" />
    <glyph glyph-name="b" unicode="b" horiz-adv-x="476" 
d="M54 0l0.000976562 700h63v-372c37.333 40 83 60 137 60c53.333 0 97.666 -19 132.999 -57c36 -36.667 54 -83.667 54 -141c0 -56.667 -18 -104 -54 -142c-35.333 -38 -79.666 -57 -132.999 -57c-54.667 0 -100.334 20.333 -137.001 61v-52h-63zM338.001 286
c-24 26 -54.332 39.001 -90.999 39.001s-67.334 -13 -92.001 -39c-24 -25.333 -36 -57.333 -36 -96s12 -71 36 -97c25.333 -25.333 56 -38 92 -38c36.667 0 67 12.667 91 38c24.667 25.333 37 57.666 37 96.999s-12.333 71.333 -37 96z" />
    <glyph glyph-name="c" unicode="c" horiz-adv-x="440" 
d="M413 273l-63.001 -19c-10.667 22 -26.334 39.333 -47.001 52s-44 19 -70 19c-38 0 -69.667 -13 -95 -39c-25.333 -25.333 -38 -57.333 -38 -96c0 -38 12.667 -70.333 38 -97c25.333 -25.333 57 -38 95 -38c26 0 49.333 6.33301 70 19s36.334 30 47.001 52l63 -19
c-15.333 -35.333 -39.166 -63.5 -71.499 -84.5s-68.833 -31.5 -109.5 -31.5c-56 0 -103 19 -141 57c-37.333 38.667 -56 86 -56 142c0 56.667 18.667 103.667 56 141c38 38 85 57 141 57c40 0 76.333 -10.5 109 -31.5s56.667 -48.833 72 -83.5z" />
    <glyph glyph-name="d" unicode="d" horiz-adv-x="475" 
d="M222 388c54.667 0 100.333 -20 137 -60l-1 372h63v-700h-63v51c-36 -40 -81.333 -60 -136 -60c-53.333 0 -98 19 -134 57c-35.333 38.667 -53 86 -53 142c0 56.667 17.667 103.667 53 141c36 38 80.667 57 134 57zM228.999 325
c-36.667 0 -67.334 -12.8301 -92.001 -38.4971s-37 -57.834 -37 -96.501s12.333 -70.834 37 -96.501s55.334 -38.5 92.001 -38.5c35.333 0 65.666 12.667 90.999 38c24.667 25.333 37 57.666 37 96.999s-12.333 71.333 -37 96c-25.333 26 -55.666 39 -90.999 39z" />
    <glyph glyph-name="e" unicode="e" horiz-adv-x="456" 
d="M425 168l-325 -0.000976562c4.66699 -34 19.667 -62 45 -84s56 -33 92 -33c48 0 85 18 111 54l61 -19c-18 -30 -41.833 -53.333 -71.5 -70s-63.167 -25 -100.5 -25c-58 0 -106.333 19 -145 57c-38 38 -57 85.333 -57 142s18.667 103.667 56 141
c36.667 38 83.334 57 140.001 57c55.333 0 101.666 -19 138.999 -57c37.333 -37.333 56 -84.333 56 -141c0 -11.333 -0.333008 -18.666 -1 -21.999zM100 218.999h261c-6 32 -21.167 58.333 -45.5 79s-52.833 31 -85.5 31s-61 -10.333 -85 -31s-39 -47 -45 -79z" />
    <glyph glyph-name="f" unicode="f" horiz-adv-x="255" 
d="M141 580l-0.000976562 -200h100v-56h-100v-324h-63v324h-64v56h64v208c0 31.333 10.833 57.833 32.5 79.5s48.5 32.5 80.5 32.5h50v-62h-46c-15.333 0 -28.166 -5.5 -38.499 -16.5s-15.5 -24.833 -15.5 -41.5z" />
    <glyph glyph-name="g" unicode="g" horiz-adv-x="475" 
d="M222 389c54.667 0 100.334 -20.334 137.001 -61.001v52h62v-419c0 -55.333 -18.667 -101.666 -56 -138.999s-84.333 -56 -141 -56c-39.333 0 -75.333 9.5 -108 28.5s-56.334 43.833 -71.001 74.5l63 20c10 -18 25.333 -32.5 46 -43.5s43.334 -16.5 68.001 -16.5
c38 0 70.333 12.667 97 38c26.667 24.667 40 56 40 94v91c-36.667 -40.667 -82.334 -61 -137.001 -61c-53.333 0 -98 19 -134 57c-35.333 38.667 -53 86 -53 142s17.667 103.333 53 142c36 38 80.667 57 134 57zM228 324.999c-36 0 -66.332 -13.0029 -90.999 -39.0029
c-24.667 -24.667 -37 -56.667 -37 -96s12.333 -71.666 37 -96.999c25.333 -25.333 55.666 -38 90.999 -38c36.667 0 67.334 12.833 92.001 38.5s37 57.834 37 96.501s-12.333 70.834 -37 96.501s-55.334 38.5 -92.001 38.5z" />
    <glyph glyph-name="h" unicode="h" horiz-adv-x="459" 
d="M54 0l-0.00195312 699.999h64v-382c28.667 46.667 73.334 70 134.001 70c44.667 0 81.334 -14.333 110.001 -43c29.333 -29.333 44 -65.333 44 -108v-237h-63v220c0 30.667 -10.333 56.334 -31 77.001s-46.334 31 -77.001 31c-33.333 0 -61.166 -10.5 -83.499 -31.5
s-33.5 -46.833 -33.5 -77.5v-219h-64z" />
    <glyph glyph-name="i" unicode="i" horiz-adv-x="172" 
d="M118 0h-64v380h64v-380zM55 515c-8 8 -12 18.333 -12 31s4 23 12 31s18.333 12 31 12s23 -4 31 -12s12 -18.333 12 -31s-4 -23 -12 -31s-18.333 -12 -31 -12s-23 4 -31 12z" />
    <glyph glyph-name="j" unicode="j" horiz-adv-x="177" 
d="M59 380h64.001v-493c0 -31.333 -10.833 -57.833 -32.5 -79.5s-48.5 -32.5 -80.5 -32.5h-37v61h32c15.333 0 28.166 5.66699 38.499 17s15.5 25.333 15.5 42v485zM60.001 515c-8 8 -12 18.333 -12 31s4 23 12 31s18.333 12 31 12s23 -4 31 -12
c8.66699 -8 13 -18.333 13 -31s-4.33301 -23 -13 -31c-8 -8 -18.333 -12 -31 -12s-23 4 -31 12z" />
    <glyph glyph-name="k" unicode="k" horiz-adv-x="386" 
d="M54 0v700h64v-700h-64zM372 0h-79l-170 196l155 184h78l-155 -184z" />
    <glyph glyph-name="l" unicode="l" horiz-adv-x="172" 
d="M118 0h-64v700h64v-700z" />
    <glyph glyph-name="m" unicode="m" horiz-adv-x="703" 
d="M118 0l-63.999 -0.000976562v380h64v-54c27.333 41.333 68.666 62 123.999 62c27.333 0 52 -6.5 74 -19.5s39 -30.5 51 -52.5c28.667 48 73.667 72 135 72c42 0 77.333 -13.667 106 -41c28 -27.333 42 -60.666 42 -99.999v-247h-62v230c0 28 -9.33301 51.333 -28 70
s-42 28 -70 28c-30 0 -55.167 -9.5 -75.5 -28.5s-30.5 -42.5 -30.5 -70.5v-229h-63v230c0 28 -9.33301 51.333 -28 70s-41.667 28 -69 28c-30 0 -55.167 -9.5 -75.5 -28.5s-30.5 -42.5 -30.5 -70.5v-229z" />
    <glyph glyph-name="n" unicode="n" horiz-adv-x="457" 
d="M54 0v379.999h64v-62c28.667 46.667 73 70 133 70c44 0 80.333 -14.333 109 -43c29.333 -29.333 44 -65.333 44 -108v-237h-63v220c0 30.667 -10.167 56.334 -30.5 77.001s-45.833 31 -76.5 31c-32.667 0 -60.167 -10.333 -82.5 -31s-33.5 -46.667 -33.5 -78v-219h-64z
" />
    <glyph glyph-name="o" unicode="o" horiz-adv-x="466" 
d="M91 48c-37.333 38.667 -56 86 -56 142c0 56.667 18.667 103.667 56 141c38 38 85.333 57 142 57s103.667 -19 141 -57c38 -36.667 57 -83.667 57 -141c0 -56.667 -19 -104 -57 -142c-37.333 -38 -84.333 -57 -141 -57s-104 19 -142 57zM138 286
c-25.333 -25.333 -38.001 -57.333 -38.001 -96c0 -38 12.667 -70.333 38 -97c26.667 -25.333 58.334 -38 95.001 -38c37.333 0 68.666 12.667 93.999 38c25.333 26.667 38 59 38 97c0 38.667 -12.667 70.667 -38 96c-25.333 26 -56.666 39 -93.999 39s-69 -13 -95 -39z" />
    <glyph glyph-name="p" unicode="p" horiz-adv-x="476" 
d="M117 -225h-62.999v605h63v-52c37.333 40 83 60 137 60c53.333 0 97.666 -19 132.999 -57c36 -36.667 54 -83.667 54 -141c0 -56.667 -18 -104 -54 -142c-35.333 -38 -79.666 -57 -132.999 -57c-54.667 0 -100.334 20.333 -137.001 61v-277zM338.001 286
c-24 26 -54.332 39.001 -90.999 39.001s-67.334 -13 -92.001 -39c-24 -25.333 -36 -57.333 -36 -96s12 -71 36 -97c25.333 -25.333 56 -38 92 -38c36.667 0 67 12.667 91 38c24.667 25.333 37 57.666 37 96.999s-12.333 71.333 -37 96z" />
    <glyph glyph-name="q" unicode="q" horiz-adv-x="475" 
d="M222 388c54.667 0 100.001 -20 136.001 -60v52h63v-605h-62v277c-36.667 -40.667 -82.334 -61 -137.001 -61c-53.333 0 -98 19 -134 57c-35.333 38.667 -53 86 -53 142c0 56.667 17.667 103.667 53 141c36 38 80.667 57 134 57zM229.001 325
c-36.667 0 -67.334 -12.8301 -92.001 -38.4971s-37 -57.834 -37 -96.501s12.333 -70.834 37 -96.501s55.334 -38.5 92.001 -38.5c35.333 0 65.666 12.667 90.999 38c24.667 25.333 37 57.666 37 96.999s-12.333 71.333 -37 96c-25.333 26 -55.666 39 -90.999 39z" />
    <glyph glyph-name="r" unicode="r" horiz-adv-x="279" 
d="M118 215l0.000976562 -214.999h-64v380h64v-63c29.333 47.333 73.666 71 132.999 71h11v-70c-10 3.33301 -19.333 5 -28 5c-32.667 0 -60.167 -10.333 -82.5 -31s-33.5 -46.334 -33.5 -77.001z" />
    <glyph glyph-name="s" unicode="s" horiz-adv-x="354" 
d="M314 297l-59.002 -11c-3.33301 14 -12.166 25.167 -26.499 33.5s-32.166 12.5 -53.499 12.5c-20.667 0 -38 -4.5 -52 -13.5s-21 -20.5 -21 -34.5c0 -20 13.667 -34.667 41 -44l91 -32c58.667 -20.667 88 -55.667 88 -105c0 -34.667 -13.167 -62 -39.5 -82
s-60.833 -30 -103.5 -30c-40.667 0 -74.167 9.16699 -100.5 27.5s-42.166 42.833 -47.499 73.5l60 10c3.33301 -16.667 13 -30 29 -40s36 -15 60 -15c23.333 0 42.666 5 57.999 15s23 23 23 39c0 22 -16.667 38.667 -50 50l-89 32c-53.333 19.333 -80 51.333 -80 96
c0 34.667 12.5 61.5 37.5 80.5s58.167 28.5 99.5 28.5c37.333 0 68 -8.16699 92 -24.5s38.333 -38.5 43 -66.5z" />
    <glyph glyph-name="t" unicode="t" horiz-adv-x="277" 
d="M13 324l0.000976562 56h61v83h63v-83h111v-56h-111v-204c0 -16.667 5.16699 -30.667 15.5 -42s23.166 -17 38.499 -17h57v-61h-61c-32 -0 -58.833 10.833 -80.5 32.5s-32.5 48.5 -32.5 80.5v211h-61z" />
    <glyph glyph-name="u" unicode="u" horiz-adv-x="457" 
d="M53 143l0.00195312 237.001h63v-220c0 -30.667 10.167 -56.334 30.5 -77.001s45.833 -31 76.5 -31c33.333 0 61.166 10.5 83.499 31.5s33.5 46.833 33.5 77.5v219h63v-380h-63v63c-29.333 -48 -74 -72 -134 -72c-44.667 0 -81.334 14.333 -110.001 43s-43 65 -43 109z
" />
    <glyph glyph-name="v" unicode="v" horiz-adv-x="407" 
d="M175 0l-163 380h66l126 -299l126 299h66l-163 -380h-58z" />
    <glyph glyph-name="w" unicode="w" horiz-adv-x="573" 
d="M196 0h-56l-128 380h64l92 -284l91 284h55l92 -283l92 283h63l-129 -380h-55l-90 274z" />
    <glyph glyph-name="x" unicode="x" horiz-adv-x="400" 
d="M310 0l-110 144l-110 -144h-75l148 194l-141 186h75l103 -135l104 135h75l-141 -186l147 -194h-75z" />
    <glyph glyph-name="y" unicode="y" horiz-adv-x="393" 
d="M125 -82l38 92l-151 370h65l118 -293l121 293h66l-203 -483c-17.333 -42 -38 -72.833 -62 -92.5s-53.333 -29.5 -88 -29.5h-10v60h10c40.667 0 72.667 27.667 96 83z" />
    <glyph glyph-name="z" unicode="z" horiz-adv-x="372" 
d="M31 0v49l222 272h-218v59h304v-49l-222 -273h226v-58h-312z" />
    <glyph glyph-name="braceleft" unicode="{" horiz-adv-x="327" 
d="M237 750l73.001 0.00292969v-58h-72c-19.333 0 -35.5 -6.33301 -48.5 -19s-19.5 -28.334 -19.5 -47.001v-221c0 -30.667 -6.83301 -56.167 -20.5 -76.5s-31.834 -33.833 -54.501 -40.5c50 -17.333 75 -56.666 75 -117.999v-221c0 -18.667 6.5 -34.334 19.5 -47.001
s29.167 -19 48.5 -19h72v-58h-73c-38 0 -69.333 13.333 -94 40c-25.333 26.667 -38 59 -38 97v218c0 17.333 -7 32.666 -21 45.999s-29 22 -45 26l-22 6v59c6.66699 1.33301 16.667 4.66602 30 9.99902c38.667 14 58 36.667 58 68v218c0 38 12.667 70.333 38 97
c24.667 26.667 56 40 94 40z" />
    <glyph glyph-name="bar" unicode="|" horiz-adv-x="173" 
d="M116 -175h-59v925h59v-925z" />
    <glyph glyph-name="braceright" unicode="}" horiz-adv-x="327" 
d="M17 692v57.998h73c38 0 69.333 -13.333 94 -40c25.333 -26.667 38 -59 38 -97v-218c0 -17.333 6.83301 -32.666 20.5 -45.999s28.834 -22.333 45.501 -27l22 -5v-59c-6.66699 -1.33301 -17 -4.66602 -31 -9.99902c-38 -14.667 -57 -37.334 -57 -68.001v-218
c0 -38 -12.667 -70.333 -38 -97c-24.667 -26.667 -56 -40 -94 -40h-73v58h72c19.333 0 35.5 6.33301 48.5 19s19.5 28.334 19.5 47.001v221c0 61.333 25 100.666 75 117.999c-22.667 6.66699 -40.834 20.167 -54.501 40.5s-20.5 45.833 -20.5 76.5v221
c0 18.667 -6.5 34.334 -19.5 47.001s-29.167 19 -48.5 19h-72z" />
    <glyph glyph-name="asciitilde" unicode="~" 
d="M384 256c-21.333 -0.666992 -42.6699 5.33496 -64.0029 18.002s-41.166 25.167 -59.499 37.5s-34.166 18.166 -47.499 17.499c-19.333 0 -35.166 -6.5 -47.499 -19.5s-18.5 -29.167 -18.5 -48.5h-70c0 39.333 13 72 39 98c26.667 26 59.667 39 99 39
c19.333 0 37.333 -3.83301 54 -11.5s30.167 -16 40.5 -25s22.5 -17.333 36.5 -25s27.667 -11.5 41 -11.5c19.333 0 35.333 6.33301 48 19s18.667 28.667 18 48h70c0 -38.667 -13.333 -71.334 -40 -98.001c-27.333 -26 -60.333 -38.667 -99 -38z" />
    <glyph glyph-name="exclamdown" unicode="&#xa1;" horiz-adv-x="196" 
d="M64 308c-8.66699 9.33301 -13 20.666 -13 33.999s4.33301 24.333 13 33c9.33301 9.33301 20.666 14 33.999 14s24.333 -4.66699 33 -14c9.33301 -8.66699 14 -19.667 14 -33s-4.66699 -24.666 -14 -33.999c-8.66699 -8.66699 -19.667 -13 -33 -13
s-24.666 4.33301 -33.999 13zM59 -225l9 408h60l9 -408h-78z" />
    <glyph glyph-name="cent" unicode="&#xa2;" horiz-adv-x="440" 
d="M207 21l-0.000976562 108.001c-49.333 4.66699 -90.666 25.667 -123.999 63c-32 37.333 -48 81.666 -48 132.999s16 95.666 48 132.999c32.667 36.667 74 58 124 64v108h52v-108c34.667 -4 65.667 -16.167 93 -36.5s47.666 -46.166 60.999 -77.499l-63 -19
c-10.667 22 -26.334 39.333 -47.001 52s-44 19 -70 19c-38 0 -69.667 -13 -95 -39c-25.333 -25.333 -38 -57.333 -38 -96c0 -38 12.667 -70.333 38 -97c25.333 -25.333 57 -38 95 -38c26 0 49.333 6.33301 70 19s36.334 30 47.001 52l63 -19
c-13.333 -31.333 -33.666 -57 -60.999 -77s-58.333 -32 -93 -36v-108h-52z" />
    <glyph glyph-name="sterling" unicode="&#xa3;" horiz-adv-x="556" 
d="M498 0l-463.999 -0.000976562v67h87v204h-67v52h67v143c0 54.667 19 100.334 57 137.001c39.333 37.333 85.666 56 138.999 56c47.333 0 91 -15 131 -45c40 -29.333 67 -66.333 81 -111l-68 -20c-10 32 -28.5 58.5 -55.5 79.5s-56.5 31.5 -88.5 31.5
c-35.333 0 -65.333 -12.333 -90 -37c-25.333 -25.333 -38 -55.333 -38 -90v-144h212v-52h-212v-204h309v-67z" />
    <glyph glyph-name="currency" unicode="&#xa4;" horiz-adv-x="537" 
d="M98 113l-40.998 41.998l70 69c-21.333 30.667 -32 64.334 -32 101.001s10.333 70.334 31 101.001l-69 69l41 41l70 -70c27.333 21.333 60.666 32 99.999 32s73.333 -10.333 102 -31l69 69l41 -41l-70 -69c21.333 -30 32 -63.667 32 -101s-10.667 -71 -32 -101l70 -69
l-41 -42l-70 70c-28.667 -20.667 -62.334 -31 -101.001 -31c-38 0 -71.333 10.333 -100 31zM154.002 324.998c0 -32 11 -59.167 33 -81.5s49 -33.5 81 -33.5c32.667 0 60 11 82 33s33 49.333 33 82s-11 60 -33 82s-49.333 33 -82 33c-32 0 -59 -11 -81 -33
s-33 -49.333 -33 -82z" />
    <glyph glyph-name="yen" unicode="&#xa5;" horiz-adv-x="618" 
d="M273 245v20l-255 385h82l208 -318l209 318h83l-256 -384v-21h131v-52h-131v-64h131v-52h-131v-77h-71v77h-131v52h131v64h-131v52h131z" />
    <glyph glyph-name="brokenbar" unicode="&#xa6;" horiz-adv-x="173" 
d="M116 750v-381h-59v381h59zM57 -175v381h59v-381h-59z" />
    <glyph glyph-name="section" unicode="&#xa7;" horiz-adv-x="452" 
d="M227 -176c-48 0 -89.334 12.167 -124.001 36.5s-56.334 56.5 -65.001 96.5l58 22c5.33301 -29.333 19.833 -53.166 43.5 -71.499s51.834 -27.5 84.501 -27.5c36 0 66.667 11 92 33s38 48 38 78c0 42 -22.667 71.667 -68 89l-134 53c-29.333 12 -52.833 30.167 -70.5 54.5
s-26.5 50.5 -26.5 78.5c0 48.667 21 88.334 63 119.001c-42 28.667 -63 68.667 -63 120c0 46.667 16.333 85 49 115c32.667 30.667 74.334 46 125.001 46c43.333 0 81 -11.333 113 -34s52.667 -52 62 -88l-58 -22c-6 26 -19.5 47 -40.5 63s-45.167 24 -72.5 24
c-32.667 0 -60.667 -11 -84 -33c-22 -22 -33 -47 -33 -75c0 -20.667 6.33301 -39.5 19 -56.5s27.667 -28.833 45 -35.5l135 -50c30.667 -11.333 54.834 -29.333 72.501 -54s26.5 -52.334 26.5 -83.001c0 -48.667 -21.333 -87.334 -64 -116.001
c42.667 -28.667 64 -68.667 64 -120c0 -46 -17.667 -84.667 -53 -116c-34.667 -30.667 -79.334 -46 -134.001 -46zM285.999 309l-112.001 43c-16 -7.33301 -29.667 -19.833 -41 -37.5s-17 -35.5 -17 -53.5c0 -17.333 4.83301 -32.833 14.5 -46.5
s21.834 -23.167 36.501 -28.5l124 -48c42 20 63 49.333 63 88c0 37.333 -22.667 65 -68 83z" />
    <glyph glyph-name="dieresis" unicode="&#xa8;" horiz-adv-x="378" 
d="M100 745c18 0.666992 30.833 -6.83301 38.5 -22.5s7.66699 -31.334 0 -47.001s-20.5 -22.834 -38.5 -21.501c-18.667 -1.33301 -32 5.83398 -40 21.501s-8 31.334 0 47.001s21.333 23.167 40 22.5zM279 654c-13.333 0 -24.333 4.33398 -33 13.001s-13 19.334 -13 32.001
s4.5 23.5 13.5 32.5s19.833 13.5 32.5 13.5c18 0.666992 30.833 -6.83301 38.5 -22.5s7.66699 -31.334 0 -47.001s-20.5 -22.834 -38.5 -21.501z" />
    <glyph glyph-name="copyright" unicode="&#xa9;" horiz-adv-x="763" 
d="M381 657c91.333 0 169.667 -32.667 235 -98c64.667 -64.667 97 -142.667 97 -234c0 -92 -32.333 -170.333 -97 -235s-143 -97 -235 -97c-91.333 0 -169.333 32.333 -234 97s-97 143 -97 235c0 91.333 32.333 169.333 97 234c65.333 65.333 143.333 98 234 98zM381.001 25
c83.333 0 154.332 29.334 212.999 88.001s88 129.334 88 212.001c0 83.333 -29.333 154.333 -88 213s-129.667 88 -213 88c-82 0 -152.667 -29.667 -212 -89c-58.667 -58.667 -88 -129.334 -88 -212.001s29.333 -153.334 88 -212.001s129.334 -88 212.001 -88zM383 501.001
c34 0 64.833 -7.99902 92.5 -23.999s48.834 -38 63.501 -66l-48 -18c-24 40 -60 60 -108 60c-36 0 -66.167 -12.167 -90.5 -36.5s-36.5 -54.833 -36.5 -91.5s12 -67.334 36 -92.001c24.667 -24.667 55 -37 91 -37c48 0 84 20.333 108 61l48 -19
c-14.667 -27.333 -35.834 -49 -63.501 -65s-58.5 -24 -92.5 -24c-50 0 -92.333 16.667 -127 50c-34 34 -51 76 -51 126s17 91.667 51 125c34 34 76.333 51 127 51z" />
    <glyph glyph-name="ordfeminine" unicode="&#xaa;" horiz-adv-x="324" 
d="M146 654c37.333 0 68.333 -14.333 93 -43v38h53v-266h-53v39c-24.667 -28.667 -55.667 -43 -93 -43c-36.667 0 -67 13 -91 39c-24 26.667 -36 59.667 -36 99s12 72 36 98s54.333 39 91 39zM75 517c0 -24.667 7.66895 -45.167 23.002 -61.5s34.666 -24.5 57.999 -24.5
c22.667 0 41.834 8.16699 57.501 24.5s23.5 36.833 23.5 61.5c0 24 -7.83301 44.167 -23.5 60.5s-34.834 24.5 -57.501 24.5s-41.834 -8.16699 -57.501 -24.5s-23.5 -36.5 -23.5 -60.5z" />
    <glyph glyph-name="guillemotleft" unicode="&#xab;" horiz-adv-x="444" 
d="M185 32l-158 158l158 158l42 -41l-117 -117l117 -117zM356 32l-158 158l158 158l41 -41l-117 -117l117 -117z" />
    <glyph glyph-name="logicalnot" unicode="&#xac;" 
d="M464 164v130h-387v62h446v-192h-59z" />
    <glyph glyph-name="uni00AD" unicode="&#xad;" horiz-adv-x="374" 
d="M67 161v58h239v-58h-239z" />
    <glyph glyph-name="registered" unicode="&#xae;" horiz-adv-x="763" 
d="M381 657c91.333 0 169.667 -32.667 235 -98c64.667 -64.667 97 -142.667 97 -234c0 -92 -32.333 -170.333 -97 -235s-143 -97 -235 -97c-91.333 0 -169.333 32.333 -234 97s-97 143 -97 235c0 91.333 32.333 169.333 97 234c65.333 65.333 143.333 98 234 98zM381.001 25
c83.333 0 154.332 29.334 212.999 88.001s88 129.334 88 212.001c0 83.333 -29.333 154.333 -88 213s-129.667 88 -213 88c-82 0 -152.667 -29.667 -212 -89c-58.667 -58.667 -88 -129.334 -88 -212.001s29.333 -153.334 88 -212.001s129.334 -88 212.001 -88zM307 154.001
h-50.002v343h156c32.667 0 59.834 -10.333 81.501 -31s32.5 -46.667 32.5 -78c0 -22.667 -6.16699 -43 -18.5 -61s-29.166 -31.333 -50.499 -40l81 -133h-56l-76 125h-100v-125zM412.998 451.001h-106v-126h106c18 0 33.167 6 45.5 18s18.5 27 18.5 45s-6.16699 33 -18.5 45
s-27.5 18 -45.5 18z" />
    <glyph glyph-name="overscore" unicode="&#xaf;" horiz-adv-x="332" 
d="M277 678h-223v55h223v-55z" />
    <glyph glyph-name="degree" unicode="&#xb0;" horiz-adv-x="384" 
d="M37 555c0 42.667 14.667 79.334 44 110.001c30 30 67 45 111 45s80.667 -15 110 -45c30 -28.667 45 -65.334 45 -110.001s-14.667 -81.667 -44 -111s-66.333 -44 -111 -44c-43.333 0 -80.333 14.667 -111 44c-29.333 29.333 -44 66.333 -44 111zM103 555
c0 -25.333 8.5 -46.666 25.5 -63.999s38.167 -26 63.5 -26s46.5 8.66699 63.5 26s25.5 38.666 25.5 63.999s-8.5 46.5 -25.5 63.5s-38.167 25.5 -63.5 25.5s-46.5 -8.66699 -63.5 -26s-25.5 -38.333 -25.5 -63z" />
    <glyph glyph-name="plusminus" unicode="&#xb1;" 
d="M269 358h-192v62h192v191h62v-191h192v-62h-192v-173h-62v173zM77 57v62h446v-62h-446z" />
    <glyph glyph-name="twosuperior" unicode="&#xb2;" horiz-adv-x="296" 
d="M215 594c0 17.333 -7.00098 32.167 -21.001 44.5s-30.667 18.5 -50 18.5c-37.333 0 -63.666 -19.667 -78.999 -59l-45 22c24.667 55.333 66 83 124 83c34 0 62.667 -10.667 86 -32c24 -20.667 36 -45.667 36 -75c0 -33.333 -25 -73.666 -75 -120.999l-91 -87h171v-46
h-246v35l134 129c37.333 37.333 56 66.666 56 87.999z" />
    <glyph glyph-name="threesuperior" unicode="&#xb3;" horiz-adv-x="302" 
d="M144 657c-36 0 -60.999 -13.668 -74.999 -41.001l-42 17c10 20.667 25.667 37.5 47 50.5s45.666 19.5 72.999 19.5c34.667 0 63.5 -9.66699 86.5 -29s34.5 -43.333 34.5 -72c0 -34.667 -18 -59.667 -54 -75c42 -16 63 -43.667 63 -83c0 -30.667 -12.333 -56 -37 -76
s-55.667 -30 -93 -30c-30 0 -56 6.66699 -78 20s-37.333 31 -46 53l45 17c12 -29.333 38 -44 78 -44c23.333 0 42.666 5.83301 57.999 17.5s23 26.167 23 43.5c0 16.667 -7.66699 30.834 -23 42.501s-34 17.5 -56 17.5h-27v39h19c22.667 0 41.334 5.5 56.001 16.5
s22 24.5 22 40.5s-7 29.333 -21 40s-31.667 16 -53 16z" />
    <glyph glyph-name="acute" unicode="&#xb4;" horiz-adv-x="291" 
d="M77 645l-23 39l148 102l34 -56z" />
    <glyph glyph-name="mu" unicode="&#xb5;" horiz-adv-x="457" 
d="M54 -225l-0.999023 367.001v1v237h63v-220c0 -30.667 10.167 -56.334 30.5 -77.001s45.833 -31 76.5 -31c33.333 0 61.166 10.5 83.499 31.5s33.5 46.833 33.5 77.5v219h62v-380h-62v63c-29.333 -48 -74 -72 -134 -72c-33.333 0 -63.333 9 -90 27v-243h-62z" />
    <glyph glyph-name="paragraph" unicode="&#xb6;" horiz-adv-x="614" 
d="M232 650h352v-52h-100v-773h-59v773h-135v-773h-58v451c-53.333 0 -98.333 17.667 -135 53c-35.333 36.667 -53 81.334 -53 134.001c0 53.333 17.667 97.666 53 132.999c36 36 81 54 135 54z" />
    <glyph glyph-name="middot" unicode="&#xb7;" horiz-adv-x="168" 
d="M50 291c-8.66699 9.33301 -13 20.666 -13 33.999s4.33301 24.333 13 33c9.33301 9.33301 20.666 14 33.999 14s24.333 -4.66699 33 -14c9.33301 -8.66699 14 -19.667 14 -33s-4.66699 -24.666 -14 -33.999c-8.66699 -8.66699 -19.667 -13 -33 -13
s-24.666 4.33301 -33.999 13z" />
    <glyph glyph-name="cedilla" unicode="&#xb8;" horiz-adv-x="303" 
d="M116 -76l19.002 76.0039h53l-12 -43c2 -0.666992 4.66699 -1.33398 8 -2.00098s9.16602 -2.83398 17.499 -6.50098s15.666 -7.83398 21.999 -12.501s12.166 -11.5 17.499 -20.5s8 -19.167 8 -30.5c0 -22.667 -9.16699 -41.5 -27.5 -56.5s-41.5 -22.5 -69.5 -22.5
c-34.667 0 -63.667 10 -87 30l-11 11l18 33c16.667 -18.667 39.334 -28 68.001 -28c16 0 29.5 3.33301 40.5 10s16.5 14.667 16.5 24s-6.33301 17.166 -19 23.499s-26.667 10.5 -42 12.5z" />
    <glyph glyph-name="onesuperior" unicode="&#xb9;" horiz-adv-x="225" 
d="M116 641l-72 -37l-18 40l105 56h34v-358h-49v299z" />
    <glyph glyph-name="ordmasculine" unicode="&#xba;" horiz-adv-x="318" 
d="M19 516c0 39.333 13.3311 72 39.998 98c26.667 26.667 60 40 100 40s73.333 -13.333 100 -40c26.667 -26 40 -58.667 40 -98c0 -38.667 -13.333 -71.334 -40 -98.001c-27.333 -26 -60.666 -39 -99.999 -39s-72.666 13 -99.999 39c-26.667 26.667 -40 59.334 -40 98.001z
M98.998 577c-16 -16.667 -24 -37 -24 -61s8 -44.333 24 -61c16 -16 36 -24 60 -24s44 8 60 24c16 16.667 24 37 24 61s-8 44.333 -24 61s-36 25 -60 25s-44 -8.33301 -60 -25z" />
    <glyph glyph-name="guillemotright" unicode="&#xbb;" horiz-adv-x="444" 
d="M259 348l158 -158l-158 -158l-41 41l116 117l-116 117zM88 348l158 -158l-158 -158l-41 41l117 117l-117 117z" />
    <glyph glyph-name="onequarter" unicode="&#xbc;" horiz-adv-x="726" 
d="M608 284l-136 -164h136v164zM608 0v73h-194v46l198 239h45v-238h51v-47h-51v-73h-49zM116 292v299l-72 -37l-18 40l105 56h34v-358h-49zM609 650l-456 -650h-61l457 650h60z" />
    <glyph glyph-name="onehalf" unicode="&#xbd;" horiz-adv-x="755" 
d="M116 292v299l-72 -37l-18 40l105 56h34v-358h-49zM609 650l-456 -650h-61l457 650h60zM674 252c0 17.333 -7 32.167 -21 44.5s-31 18.5 -51 18.5c-36 0 -62.333 -19.667 -79 -59l-44 22c10.667 25.333 27 45.5 49 60.5s46.667 22.5 74 22.5
c33.333 0 62.333 -10.667 87 -32c24 -20.667 36 -45.667 36 -75c0 -34 -25.333 -74.333 -76 -121l-91 -87h172v-46h-247v35l134 129c38 36.667 57 66 57 88z" />
    <glyph glyph-name="threequarters" unicode="&#xbe;" horiz-adv-x="800" 
d="M682 284l-137 -164h137v164zM682 0v73h-195v46l198 239h45v-238h51v-47h-51v-73h-48zM144 607c-36 0 -60.999 -13.668 -74.999 -41.001l-42 17c10 20.667 25.667 37.5 47 50.5s45.666 19.5 72.999 19.5c34.667 0 63.5 -9.66699 86.5 -29s34.5 -43.333 34.5 -72
c0 -34.667 -18 -59.667 -54 -75c42 -16 63 -43.667 63 -83c0 -30.667 -12.333 -56 -37 -76s-55.667 -30 -93 -30c-30 0 -56 6.66699 -78 20s-37.333 31 -46 53l45 17c12 -29.333 38 -44 78 -44c23.333 0 42.666 5.83301 57.999 17.5s23 26.167 23 43.5
c0 16.667 -7.66699 30.834 -23 42.501s-34 17.5 -56 17.5h-27v39h19c22.667 0 41.334 5.5 56.001 16.5s22 24.5 22 40.5s-7 29.333 -21 40s-31.667 16 -53 16zM682.001 649.999l-456 -650h-61l457 650h60z" />
    <glyph glyph-name="questiondown" unicode="&#xbf;" horiz-adv-x="465" 
d="M107 -64c0 -29.333 13.001 -53.999 39.001 -73.999c26.667 -20.667 58.667 -31 96 -31c32 0 60.5 10 85.5 30s41.833 46 50.5 78l69 -20c-14 -46 -39.5 -83 -76.5 -111s-79.5 -42 -127.5 -42c-58 0 -106.333 16.333 -145 49c-39.333 32 -59 71.667 -59 119
c0 30 9.16699 58 27.5 84s36.5 45 54.5 57s35.667 21.667 53 29l16 6l4 73h67l7 -105c-14.667 -4.66699 -33.334 -12.334 -56.001 -23.001c-20 -9.33301 -36.333 -19 -49 -29c-37.333 -26.667 -56 -56.667 -56 -90zM226.001 389.001c13.333 0 24.5 -4.5 33.5 -13.5
s13.5 -20.167 13.5 -33.5s-4.5 -24.5 -13.5 -33.5s-20.167 -13.5 -33.5 -13.5s-24.333 4.5 -33 13.5s-13 20.167 -13 33.5s4.5 24.5 13.5 33.5s19.833 13.5 32.5 13.5z" />
    <glyph glyph-name="Agrave" unicode="&#xc0;" horiz-adv-x="667" 
d="M93 0h-75l288 650h56l287 -650h-75l-67 153h-347zM478 219l-144 328l-144 -328h288zM381 737l-159 85l34 56l148 -102z" />
    <glyph glyph-name="Aacute" unicode="&#xc1;" horiz-adv-x="667" 
d="M93 0h-75l288 650h56l287 -650h-75l-67 153h-347zM478 219l-144 328l-144 -328h288zM283 733l-23 38l148 102l34 -56z" />
    <glyph glyph-name="Acircumflex" unicode="&#xc2;" horiz-adv-x="667" 
d="M93 0h-75l288 650h56l287 -650h-75l-67 153h-347zM478 219l-144 328l-144 -328h288zM233 732l-29 37l126 108h8l126 -108l-29 -37l-101 75z" />
    <glyph glyph-name="Atilde" unicode="&#xc3;" horiz-adv-x="667" 
d="M160 153l-67 -153h-75l288 650h56l287 -650h-75l-67 153h-347zM478 219l-144 328l-144 -328h288zM253 749h-51.998c0 26.667 7.66699 48.667 23 66s35 26 59 26c18 0 36.333 -7.66699 55 -23s32.667 -23 42 -23c10 0 18.5 3.83301 25.5 11.5s10.5 17.5 10.5 29.5h52
c0 -26.667 -7.83301 -48.667 -23.5 -66s-35.834 -26 -60.501 -26c-18.667 0 -37.334 7.66699 -56.001 23c-17.333 15.333 -31 23 -41 23c-10.667 0 -19 -3.83301 -25 -11.5s-9 -17.5 -9 -29.5z" />
    <glyph glyph-name="Adieresis" unicode="&#xc4;" horiz-adv-x="667" 
d="M160 153l-67 -153h-75l288 650h56l287 -650h-75l-67 153h-347zM478 219l-144 328l-144 -328h288zM424 832c18 0.666992 30.833 -6.83203 38.5 -22.499s7.66699 -31.334 0 -47.001s-20.5 -22.834 -38.5 -21.501c-13.333 0 -24.333 4.33301 -33 13s-13 19.334 -13 32.001
c0 13.333 4.33301 24.333 13 33s19.667 13 33 13zM199 786.001c0 20.667 9.66797 34.832 29.001 42.499s35.666 4.16699 48.999 -10.5c14 -14 17 -30.333 9 -49s-21.667 -28 -41 -28c-13.333 0 -24.333 4.33301 -33 13s-13 19.334 -13 32.001z" />
    <glyph glyph-name="Aring" unicode="&#xc5;" horiz-adv-x="667" 
d="M160 153l-67 -153h-75l288 650h56l287 -650h-75l-67 153h-347zM478 219l-144 328l-144 -328h288zM428 829c0 -27.333 -9 -50 -27 -68s-40.333 -27 -67 -27s-49 9 -67 27s-27 40.667 -27 68c0 26.667 9 49 27 67s40.333 27 67 27s49 -9 67 -27s27 -40.333 27 -67zM380 829
c0 12.667 -4.33301 23.5 -13 32.5s-19.667 13.5 -33 13.5s-24.333 -4.5 -33 -13.5s-13 -19.833 -13 -32.5c0 -13.333 4.5 -24.5 13.5 -33.5s19.833 -13.5 32.5 -13.5s23.5 4.5 32.5 13.5s13.5 20.167 13.5 33.5z" />
    <glyph glyph-name="AE" unicode="&#xc6;" horiz-adv-x="904" 
d="M193 153l-94 -153h-81l402 650h443v-67h-340v-220h293v-67h-293v-230h344v-66h-415v153h-259zM233 219h219v356z" />
    <glyph glyph-name="Ccedilla" unicode="&#xc7;" horiz-adv-x="724" 
d="M51 325c0 95.333 31.666 174.669 94.999 238.002c64 64 143.667 96 239 96c62.667 0 119.5 -14.667 170.5 -44s90.833 -69.666 119.5 -120.999l-68 -27c-24 38.667 -55.167 68.834 -93.5 90.501s-81.166 32.5 -128.499 32.5c-74 0 -136 -25.333 -186 -76
s-75 -113.667 -75 -189s25 -138.666 75 -189.999c50 -50.667 112 -76 186 -76c46.667 0 89.334 10.833 128.001 32.5s70 51.834 94 90.501l68 -26c-26 -46.667 -61.167 -84.334 -105.5 -113.001s-94.166 -45.667 -149.499 -51l-9 -35
c2 -0.666992 4.66699 -1.33398 8 -2.00098s9 -2.83398 17 -6.50098s15.167 -7.83398 21.5 -12.501s12.166 -11.5 17.499 -20.5s8 -19.167 8 -30.5c0 -22.667 -9.16699 -41.5 -27.5 -56.5s-41.5 -22.5 -69.5 -22.5c-16.667 0 -33.334 3.16699 -50.001 9.5
s-28.667 13.166 -36 20.499l-11 11l17 33c16.667 -18.667 39.667 -28 69 -28c15.333 0 28.5 3.33301 39.5 10s16.5 14.667 16.5 24s-6.33301 17.166 -19 23.499s-26.667 10.5 -42 12.5l-20 2l17 66c-92 5.33301 -167.667 39 -227 101c-59.333 63.333 -89 141.333 -89 234z
" />
    <glyph glyph-name="Egrave" unicode="&#xc8;" horiz-adv-x="584" 
d="M78 650h465v-67h-393v-220h346v-67h-346v-230h397v-66h-469v650zM353 737l-160 85l34 56l148 -102z" />
    <glyph glyph-name="Eacute" unicode="&#xc9;" horiz-adv-x="584" 
d="M78 650h465v-67h-393v-220h346v-67h-346v-230h397v-66h-469v650zM254 733l-23 38l148 102l34 -56z" />
    <glyph glyph-name="Ecircumflex" unicode="&#xca;" horiz-adv-x="584" 
d="M78 650h465v-67h-393v-220h346v-67h-346v-230h397v-66h-469v650zM204 732l-29 37l126 108h8l127 -108l-30 -37l-101 75z" />
    <glyph glyph-name="Edieresis" unicode="&#xcb;" horiz-adv-x="584" 
d="M78 650h465v-67h-393v-220h346v-67h-346v-230h397v-66h-469v650zM395 741c-13.333 0 -24.332 4.33105 -32.999 12.998s-13 19.334 -13 32.001c0 20.667 9.66699 34.834 29 42.501s35.666 4.16699 48.999 -10.5c14 -14 17 -30.333 9 -49s-21.667 -28 -41 -28z
M183.001 752.998c-8 8.66699 -12.002 19.667 -12.002 33s4.33301 24.333 13 33s19.334 13 32.001 13s23.334 -4.33301 32.001 -13s13 -19.667 13 -33s-4.33301 -24.333 -13 -33c-8 -8 -18.667 -12 -32 -12s-24.333 4 -33 12z" />
    <glyph glyph-name="Igrave" unicode="&#xcc;" horiz-adv-x="227" 
d="M150 0h-72v650h72v-650zM161 737l-159 85l34 56l148 -102z" />
    <glyph glyph-name="Iacute" unicode="&#xcd;" horiz-adv-x="227" 
d="M150 0h-72v650h72v-650zM62 733l-22 38l147 102l34 -56z" />
    <glyph glyph-name="Icircumflex" unicode="&#xce;" horiz-adv-x="227" 
d="M150 0h-72v650h72v-650zM114 807l-101 -75l-30 37l127 108h8l126 -108l-29 -37z" />
    <glyph glyph-name="Idieresis" unicode="&#xcf;" horiz-adv-x="227" 
d="M150 0h-72v650h72v-650zM25 832c18 0.666992 30.833 -6.83105 38.5 -22.498s7.66699 -31.334 0 -47.001s-20.5 -22.834 -38.5 -21.501c-18.667 -2 -32 5 -40 21s-8 32 0 48s21.333 23.333 40 22zM171 753.002c-8.66699 8.66699 -13 19.667 -13 33s4.33301 24.333 13 33
s19.334 13 32.001 13s23.334 -4.33301 32.001 -13s13 -19.667 13 -33s-4.33301 -24.333 -13 -33c-8.66699 -8 -19.334 -12 -32.001 -12s-23.334 4 -32.001 12z" />
    <glyph glyph-name="Eth" unicode="&#xd0;" horiz-adv-x="727" 
d="M10 296l0.000976562 57.999h78v296h254c95.333 0 174.666 -31.333 237.999 -94c64 -62 96 -139 96 -231c0 -91.333 -32 -168.666 -96 -231.999c-64 -62 -143.333 -93 -238 -93h-254v296h-78zM159.001 582.999v-229h214v-58h-214v-230h183c74 0 136 25 186 75
s75 111.333 75 184s-25 133.667 -75 183c-50 50 -112 75 -186 75h-183z" />
    <glyph glyph-name="Ntilde" unicode="&#xd1;" horiz-adv-x="706" 
d="M147 0h-69v650h62l420 -526v526h69v-650h-62l-420 525v-525zM272 749h-51.998c0 26.667 7.66699 48.667 23 66s35 26 59 26c18 0 36.333 -7.66699 55 -23s32.667 -23 42 -23c10 0 18.5 3.83301 25.5 11.5s10.5 17.5 10.5 29.5h52c0 -26.667 -7.83301 -48.667 -23.5 -66
s-35.834 -26 -60.501 -26c-18.667 0 -37.334 7.66699 -56.001 23c-17.333 15.333 -31 23 -41 23c-10.667 0 -19 -3.83301 -25 -11.5s-9 -17.5 -9 -29.5z" />
    <glyph glyph-name="Ograve" unicode="&#xd2;" horiz-adv-x="770" 
d="M146 86c-63.333 64.667 -95 144.334 -95 239.001c0 95.333 31.667 174.666 95 237.999c64 64 143.667 96 239 96s174.666 -32 237.999 -96c64 -62.667 96 -142 96 -238c0 -95.333 -32 -175 -96 -239c-63.333 -64 -142.666 -96 -237.999 -96s-175 32 -239 96zM124 325
c0 -75.333 25 -138.666 75 -189.999c50 -50.667 112 -76 186 -76c74.667 0 136.334 25.333 185.001 76c50 51.333 75 114.666 75 189.999s-25 138.333 -75 189c-48.667 50.667 -110.334 76 -185.001 76c-74 0 -136 -25.333 -186 -76s-75 -113.667 -75 -189zM433 737l-160 85
l34 56l148 -102z" />
    <glyph glyph-name="Oacute" unicode="&#xd3;" horiz-adv-x="770" 
d="M146 86c-63.333 64.667 -95 144.334 -95 239.001c0 95.333 31.667 174.666 95 237.999c64 64 143.667 96 239 96s174.666 -32 237.999 -96c64 -62.667 96 -142 96 -238c0 -95.333 -32 -175 -96 -239c-63.333 -64 -142.666 -96 -237.999 -96s-175 32 -239 96zM124 325
c0 -75.333 25 -138.666 75 -189.999c50 -50.667 112 -76 186 -76c74.667 0 136.334 25.333 185.001 76c50 51.333 75 114.666 75 189.999s-25 138.333 -75 189c-48.667 50.667 -110.334 76 -185.001 76c-74 0 -136 -25.333 -186 -76s-75 -113.667 -75 -189zM334 733l-23 38
l148 102l34 -56z" />
    <glyph glyph-name="Ocircumflex" unicode="&#xd4;" horiz-adv-x="770" 
d="M146 86c-63.333 64.667 -95 144.334 -95 239.001c0 95.333 31.667 174.666 95 237.999c64 64 143.667 96 239 96s174.666 -32 237.999 -96c64 -62.667 96 -142 96 -238c0 -95.333 -32 -175 -96 -239c-63.333 -64 -142.666 -96 -237.999 -96s-175 32 -239 96zM124 325
c0 -75.333 25 -138.666 75 -189.999c50 -50.667 112 -76 186 -76c74.667 0 136.334 25.333 185.001 76c50 51.333 75 114.666 75 189.999s-25 138.333 -75 189c-48.667 50.667 -110.334 76 -185.001 76c-74 0 -136 -25.333 -186 -76s-75 -113.667 -75 -189zM385 807
l-101 -75l-29 37l126 108h8l126 -108l-29 -37z" />
    <glyph glyph-name="Otilde" unicode="&#xd5;" horiz-adv-x="770" 
d="M146 86c-63.333 64.667 -95 144.334 -95 239.001c0 95.333 31.667 174.666 95 237.999c64 64 143.667 96 239 96s174.666 -32 237.999 -96c64 -62.667 96 -142 96 -238c0 -95.333 -32 -175 -96 -239c-63.333 -64 -142.666 -96 -237.999 -96s-175 32 -239 96zM124 325
c0 -75.333 25 -138.666 75 -189.999c50 -50.667 112 -76 186 -76c74.667 0 136.334 25.333 185.001 76c50 51.333 75 114.666 75 189.999s-25 138.333 -75 189c-48.667 50.667 -110.334 76 -185.001 76c-74 0 -136 -25.333 -186 -76s-75 -113.667 -75 -189zM304 749h-51.998
c0 26.667 7.66699 48.667 23 66s35 26 59 26c19.333 0 37.666 -7.66699 54.999 -23c18.667 -15.333 32.667 -23 42 -23c10 0 18.5 3.83301 25.5 11.5s10.5 17.5 10.5 29.5h52c0 -26.667 -7.83301 -48.667 -23.5 -66s-35.5 -26 -59.5 -26
c-18.667 0 -37.334 7.66699 -56.001 23s-32.667 23 -42 23c-10 0 -18.167 -3.83301 -24.5 -11.5s-9.5 -17.5 -9.5 -29.5z" />
    <glyph glyph-name="Odieresis" unicode="&#xd6;" horiz-adv-x="770" 
d="M146 86c-63.333 64.667 -95 144.334 -95 239.001c0 95.333 31.667 174.666 95 237.999c64 64 143.667 96 239 96s174.666 -32 237.999 -96c64 -62.667 96 -142 96 -238c0 -95.333 -32 -175 -96 -239c-63.333 -64 -142.666 -96 -237.999 -96s-175 32 -239 96zM124 325
c0 -75.333 25 -138.666 75 -189.999c50 -50.667 112 -76 186 -76c74.667 0 136.334 25.333 185.001 76c50 51.333 75 114.666 75 189.999s-25 138.333 -75 189c-48.667 50.667 -110.334 76 -185.001 76c-74 0 -136 -25.333 -186 -76s-75 -113.667 -75 -189zM263 753
c-8 8.66699 -12.002 19.667 -12.002 33s4.33301 24.333 13 33s19.334 13 32.001 13s23.334 -4.33301 32.001 -13s13 -19.667 13 -33s-4.33301 -24.333 -13 -33c-8 -8 -18.667 -12 -32 -12s-24.333 4 -33 12zM428.998 786c0 20.667 9.66797 34.832 29.001 42.499
s35.666 4.16699 48.999 -10.5c14 -14 17 -30.333 9 -49s-21.667 -28 -41 -28c-13.333 0 -24.333 4.33301 -33 13s-13 19.334 -13 32.001z" />
    <glyph glyph-name="multiply" unicode="&#xd7;" 
d="M256 325l-155 156l44 44l155 -156l156 156l44 -44l-156 -156l156 -155l-44 -44l-156 155l-155 -155l-44 44z" />
    <glyph glyph-name="Oslash" unicode="&#xd8;" horiz-adv-x="770" 
d="M138 22l31 44.001c-37.333 30.667 -66.333 68.5 -87 113.5s-31 93.5 -31 145.5c0 95.333 31.667 174.666 95 237.999c64 64 143.667 96 239 96c61.333 0 117.666 -14.667 168.999 -44l31 44l47 -33l-30 -43c78 -64.667 117 -150.667 117 -258
c0 -95.333 -32 -175 -96 -239c-63.333 -64 -142.666 -96 -237.999 -96c-60.667 0 -116.667 14.333 -168 43l-31 -44zM560 523.001l-302 -431.999c39.333 -21.333 81.666 -32 126.999 -32c74.667 0 136.334 25.333 185.001 76c50 51.333 75 114.666 75 189.999
c0 82 -28.333 148 -85 198zM211 126.002l303 431c-38 22 -81 33 -129 33c-74 0 -136 -25.333 -186 -76s-75 -113.667 -75 -189c0 -82 29 -148.333 87 -199z" />
    <glyph glyph-name="Ugrave" unicode="&#xd9;" horiz-adv-x="684" 
d="M544 260l-0.000976562 390h72v-390c0 -76.667 -26.333 -141 -79 -193c-52.667 -51.333 -117.667 -77 -195 -77s-142.666 25.667 -195.999 77c-52 52 -78 116.333 -78 193v390h71v-390c0 -58 19.333 -106.333 58 -145s87 -58 145 -58s106 19.333 144 58
c38.667 38.667 58 87 58 145zM388.999 737l-159 85l34 56l148 -102z" />
    <glyph glyph-name="Uacute" unicode="&#xda;" horiz-adv-x="684" 
d="M544 260l-0.000976562 390h72v-390c0 -76.667 -26.333 -141 -79 -193c-52.667 -51.333 -117.667 -77 -195 -77s-142.666 25.667 -195.999 77c-52 52 -78 116.333 -78 193v390h71v-390c0 -58 19.333 -106.333 58 -145s87 -58 145 -58s106 19.333 144 58
c38.667 38.667 58 87 58 145zM290.999 733l-23 38l148 102l34 -56z" />
    <glyph glyph-name="Ucircumflex" unicode="&#xdb;" horiz-adv-x="684" 
d="M544 260l-0.000976562 390h72v-390c0 -76.667 -26.333 -141 -79 -193c-52.667 -51.333 -117.667 -77 -195 -77s-142.666 25.667 -195.999 77c-52 52 -78 116.333 -78 193v390h71v-390c0 -58 19.333 -106.333 58 -145s87 -58 145 -58s106 19.333 144 58
c38.667 38.667 58 87 58 145zM341.999 807l-101 -75l-29 37l126 108h8l126 -108l-29 -37z" />
    <glyph glyph-name="Udieresis" unicode="&#xdc;" horiz-adv-x="684" 
d="M544 260l-0.000976562 390h72v-390c0 -76.667 -26.333 -141 -79 -193c-52.667 -51.333 -117.667 -77 -195 -77s-142.666 25.667 -195.999 77c-52 52 -78 116.333 -78 193v390h71v-390c0 -58 19.333 -106.333 58 -145s87 -58 145 -58s106 19.333 144 58
c38.667 38.667 58 87 58 145zM206.999 786c0 20.667 9.66797 34.832 29.001 42.499s35.666 4.16699 48.999 -10.5c14 -14 17 -30.333 9 -49s-21.667 -28 -41 -28c-13.333 0 -24.333 4.33301 -33 13s-13 19.334 -13 32.001zM386 785.998c0 13.333 4.33301 24.334 13 33.001
s19.667 13 33 13c18 0.666992 30.833 -6.83301 38.5 -22.5s7.66699 -31.334 0 -47.001s-20.5 -22.834 -38.5 -21.501c-13.333 0 -24.333 4.33301 -33 13s-13 19.334 -13 32.001z" />
    <glyph glyph-name="Yacute" unicode="&#xdd;" horiz-adv-x="618" 
d="M273 0v263l-255 387h82l208 -318l209 318h83l-256 -384v-266h-71zM417 817l-160 -84l-22 38l147 102z" />
    <glyph glyph-name="Thorn" unicode="&#xde;" horiz-adv-x="611" 
d="M78 0v650h72v-127h211c59.333 0 108.333 -19 147 -57c39.333 -37.333 59 -84.333 59 -141s-19.667 -104 -59 -142c-39.333 -37.333 -88.333 -56 -147 -56h-211v-127h-72zM361 456h-211.001v-262h211c38 0 69.333 12.333 94 37c26 24.667 39 56 39 94
c0 36.667 -13 67.667 -39 93c-25.333 25.333 -56.666 38 -93.999 38z" />
    <glyph glyph-name="germandbls" unicode="&#xdf;" horiz-adv-x="503" 
d="M229 645c-32 0 -58.499 -10.8369 -79.499 -32.5039s-31.5 -49.167 -31.5 -82.5v-530h-64v536c0 49.333 16.333 90.333 49 123c33.333 33.333 74.666 50 123.999 50c48.667 0 88.667 -15.333 120 -46c32.667 -30 49 -65.333 49 -106c0 -38 -15.333 -69.667 -46 -95
c-30.667 -22.667 -46 -44 -46 -64c0 -12 5.66699 -24 17 -36s25 -23.833 41 -35.5s32 -24.667 48 -39s29.667 -33.166 41 -56.499s17 -49.666 17 -78.999c0 -105.333 -69.667 -158 -209 -158v63c49.333 0 85.5 7.66699 108.5 23s34.5 39.333 34.5 72
c0 24 -5.66699 45.167 -17 63.5s-25 33.5 -41 45.5l-48 35.5c-16 11.667 -29.667 25.667 -41 42s-17 34.5 -17 54.5c0 34.667 15.333 65.334 46 92.001s46 51.334 46 74.001s-9.83301 42.667 -29.5 60s-43.5 26 -71.5 26z" />
    <glyph glyph-name="agrave" unicode="&#xe0;" horiz-adv-x="476" 
d="M222 -9c-53.333 0 -98 19 -134 57c-35.333 38.667 -53 86 -53 142c0 56.667 17.667 103.667 53 141c36 38 80.667 57 134 57c54.667 0 100 -20 136 -60v52h63v-380h-63v51c-36 -40 -81.333 -60 -136 -60zM229 55c35.333 0 65.666 12.6699 90.999 38.0029
c24.667 25.333 37 57.666 37 96.999s-12.333 71.333 -37 96c-25.333 26 -55.666 39 -90.999 39c-36.667 0 -67.334 -12.833 -92.001 -38.5s-37 -57.834 -37 -96.501s12.333 -70.834 37 -96.501s55.334 -38.5 92.001 -38.5zM310 532.003l-23 -38l-159 85l34 55z" />
    <glyph glyph-name="aacute" unicode="&#xe1;" horiz-adv-x="476" 
d="M222 -9c-53.333 0 -98 19 -134 57c-35.333 38.667 -53 86 -53 142c0 56.667 17.667 103.667 53 141c36 38 80.667 57 134 57c54.667 0 100 -20 136 -60v52h63v-380h-63v51c-36 -40 -81.333 -60 -136 -60zM229 55c35.333 0 65.666 12.6699 90.999 38.0029
c24.667 25.333 37 57.666 37 96.999s-12.333 71.333 -37 96c-25.333 26 -55.666 39 -90.999 39c-36.667 0 -67.334 -12.833 -92.001 -38.5s-37 -57.834 -37 -96.501s12.333 -70.834 37 -96.501s55.334 -38.5 92.001 -38.5zM347 574.003l-159 -85l-23 39l148 102z" />
    <glyph glyph-name="acircumflex" unicode="&#xe2;" horiz-adv-x="476" 
d="M222 -9c-53.333 0 -98 19 -134 57c-35.333 38.667 -53 86 -53 142c0 56.667 17.667 103.667 53 141c36 38 80.667 57 134 57c54.667 0 100 -20 136 -60v52h63v-380h-63v51c-36 -40 -81.333 -60 -136 -60zM229 55c35.333 0 65.666 12.6699 90.999 38.0029
c24.667 25.333 37 57.666 37 96.999s-12.333 71.333 -37 96c-25.333 26 -55.666 39 -90.999 39c-36.667 0 -67.334 -12.833 -92.001 -38.5s-37 -57.834 -37 -96.501s12.333 -70.834 37 -96.501s55.334 -38.5 92.001 -38.5zM138 489.003l-29 37l126 108h9l126 -108l-30 -37
l-100 75z" />
    <glyph glyph-name="atilde" unicode="&#xe3;" horiz-adv-x="476" 
d="M222 -9c-53.333 0 -98 19 -134 57c-35.333 38.667 -53 86 -53 142c0 56.667 17.667 103.667 53 141c36 38 80.667 57 134 57c54.667 0 100 -20 136 -60v52h63v-380h-63v51c-36 -40 -81.333 -60 -136 -60zM229 325c-36.667 0 -67.334 -12.8301 -92.001 -38.4971
s-37 -57.834 -37 -96.501s12.333 -70.834 37 -96.501s55.334 -38.5 92.001 -38.5c35.333 0 65.666 12.667 90.999 38c24.667 25.333 37 57.666 37 96.999s-12.333 71.333 -37 96c-25.333 26 -55.666 39 -90.999 39zM158 506.003h-52.001c0 26.667 7.66699 48.667 23 66
s35 26 59 26c18.667 0 37.334 -7.66699 56.001 -23s32.334 -23 41.001 -23c10 0 18.5 3.83301 25.5 11.5s10.5 17.5 10.5 29.5h52c0 -27.333 -7.66699 -49.5 -23 -66.5s-35.333 -25.5 -60 -25.5c-18.667 0 -37.334 7.66699 -56.001 23s-32.667 23 -42 23
c-10 0 -18.167 -3.83301 -24.5 -11.5s-9.5 -17.5 -9.5 -29.5z" />
    <glyph glyph-name="adieresis" unicode="&#xe4;" horiz-adv-x="476" 
d="M222 388c54.667 0 100 -20 136 -60v52h63v-380h-63v51c-36 -40 -81.333 -60 -136 -60c-53.333 0 -98 19 -134 57c-35.333 38.667 -53 86 -53 142c0 56.667 17.667 103.667 53 141c36 38 80.667 57 134 57zM229 55c35.333 0 65.666 12.6699 90.999 38.0029
c24.667 25.333 37 57.666 37 96.999s-12.333 71.333 -37 96c-25.333 26 -55.666 39 -90.999 39c-36.667 0 -67.334 -12.833 -92.001 -38.5s-37 -57.834 -37 -96.501s12.333 -70.834 37 -96.501s55.334 -38.5 92.001 -38.5zM284 543.003
c-1.33301 18.667 5.83398 32 21.501 40s31.334 8 47.001 0s22.834 -21.333 21.501 -40c1.33301 -18 -5.83398 -30.833 -21.501 -38.5s-31.334 -7.66699 -47.001 0s-22.834 20.5 -21.501 38.5zM105 543.003c-1.33301 18.667 5.8291 32 21.4961 40s31.334 8 47.001 0
s22.834 -21.333 21.501 -40c0 -12.667 -4.16699 -23.334 -12.5 -32.001s-19.166 -13 -32.499 -13s-24.166 4.33301 -32.499 13s-12.5 19.334 -12.5 32.001z" />
    <glyph glyph-name="aring" unicode="&#xe5;" horiz-adv-x="476" 
d="M222 388c54.667 0 100 -20 136 -60v52h63v-380h-63v51c-36 -40 -81.333 -60 -136 -60c-53.333 0 -98 19 -134 57c-35.333 38.667 -53 86 -53 142c0 56.667 17.667 103.667 53 141c36 38 80.667 57 134 57zM229 55c35.333 0 65.666 12.6699 90.999 38.0029
c24.667 25.333 37 57.666 37 96.999s-12.333 71.333 -37 96c-25.333 26 -55.666 39 -90.999 39c-36.667 0 -67.334 -12.833 -92.001 -38.5s-37 -57.834 -37 -96.501s12.333 -70.834 37 -96.501s55.334 -38.5 92.001 -38.5zM173 517.003c-18 18 -27 40.667 -27 68s9 50 27 68
s40.333 27 67 27s49 -9.33301 67 -28c18 -18 27 -40.333 27 -67s-9 -49 -27 -67s-40.333 -27 -67 -27s-49 8.66699 -67 26zM207 617.003c-8.66699 -8.66699 -13 -19.334 -13 -32.001s4.33301 -23.667 13 -33c8.66699 -8.66699 19.667 -13 33 -13s24.333 4.33301 33 13
c8.66699 9.33301 13 20.333 13 33s-4.33301 23.334 -13 32.001c-8.66699 9.33301 -19.667 14 -33 14s-24.333 -4.66699 -33 -14z" />
    <glyph glyph-name="ae" unicode="&#xe6;" horiz-adv-x="780" 
d="M222 388c54.667 0 100.001 -20.001 136.001 -60.001v52h63v-54c36.667 42 83.334 63 140.001 63c53.333 0 98 -19 134 -57c36.667 -37.333 55 -84.666 55 -141.999c0 -8 -0.666992 -15.333 -2 -22h-325c5.33301 -34 20.666 -62 45.999 -84s56 -33 92 -33
c48 0 85 18 111 54l61 -19c-16.667 -30 -39.5 -53.333 -68.5 -70s-61.5 -25 -97.5 -25c-60.667 0 -109.334 21.333 -146.001 64v-55h-63v51c-36 -40 -81.333 -60 -136 -60c-53.333 0 -98 19 -134 57c-35.333 38.667 -53 86 -53 142c0 56.667 17.667 103.667 53 141
c36 38 80.667 57 134 57zM229.001 324.999c-36.667 0 -67.334 -12.8301 -92.001 -38.4971s-37 -57.834 -37 -96.501s12.333 -70.834 37 -96.501s55.334 -38.5 92.001 -38.5c35.333 0 65.666 12.667 90.999 38c24.667 25.333 37 57.666 37 96.999s-12.333 71.333 -37 96
c-25.333 26 -55.666 39 -90.999 39zM424.001 219.002h260.999c-6 32 -21.167 58.333 -45.5 79s-53.166 31 -86.499 31c-32 0 -60 -10.333 -84 -31s-39 -47 -45 -79z" />
    <glyph glyph-name="ccedilla" unicode="&#xe7;" horiz-adv-x="440" 
d="M190 -76l17.001 68.0049c-50 6 -91.333 27.333 -124 64c-32 37.333 -48 82 -48 134c0 56.667 18.667 103.667 56 141c38 38 85 57 141 57c40 0 76.333 -10.5 109 -31.5s56.667 -48.833 72 -83.5l-63 -19c-10.667 22 -26.334 39.333 -47.001 52s-44 19 -70 19
c-38 0 -69.667 -13 -95 -39c-25.333 -25.333 -38 -57.333 -38 -96c0 -38 12.667 -70.333 38 -97c25.333 -25.333 57 -38 95 -38c26 0 49.333 6.33301 70 19s36.334 30 47.001 52l63 -19c-14 -30.667 -34.5 -56.167 -61.5 -76.5s-57.5 -32.833 -91.5 -37.5l-9 -36
c2 -0.666992 4.66699 -1.33398 8 -2.00098s9 -2.83398 17 -6.50098s15.167 -7.83398 21.5 -12.501s12.166 -11.5 17.499 -20.5s8 -19.167 8 -30.5c0 -22.667 -9.16699 -41.5 -27.5 -56.5s-41.5 -22.5 -69.5 -22.5c-16.667 0 -33.334 3.16699 -50.001 9.5
s-28.667 13.166 -36 20.499l-11 11l18 33c16.667 -18.667 39.334 -28 68.001 -28c16 0 29.333 3.33301 40 10s16 14.667 16 24s-6.33301 17.166 -19 23.499s-26.667 10.5 -42 12.5z" />
    <glyph glyph-name="egrave" unicode="&#xe8;" horiz-adv-x="456" 
d="M425 168l-325 -0.000976562c4.66699 -34 19.667 -62 45 -84s56 -33 92 -33c48 0 85 18 111 54l61 -19c-18 -30 -41.833 -53.333 -71.5 -70s-63.167 -25 -100.5 -25c-58 0 -106.333 19 -145 57c-38 38 -57 85.333 -57 142s18.667 103.667 56 141
c36.667 38 83.334 57 140.001 57c55.333 0 101.666 -19 138.999 -57c37.333 -37.333 56 -84.333 56 -141c0 -11.333 -0.333008 -18.666 -1 -21.999zM100 218.999h261c-6 32 -21.167 58.333 -45.5 79s-52.833 31 -85.5 31s-61 -10.333 -85 -31s-39 -47 -45 -79zM279 493.999
l-159 85l34 55l148 -102z" />
    <glyph glyph-name="eacute" unicode="&#xe9;" horiz-adv-x="456" 
d="M425 168l-325 -0.000976562c4.66699 -34 19.667 -62 45 -84s56 -33 92 -33c48 0 85 18 111 54l61 -19c-18 -30 -41.833 -53.333 -71.5 -70s-63.167 -25 -100.5 -25c-58 0 -106.333 19 -145 57c-38 38 -57 85.333 -57 142s18.667 103.667 56 141
c36.667 38 83.334 57 140.001 57c55.333 0 101.666 -19 138.999 -57c37.333 -37.333 56 -84.333 56 -141c0 -11.333 -0.333008 -18.666 -1 -21.999zM100 218.999h261c-6 32 -21.167 58.333 -45.5 79s-52.833 31 -85.5 31s-61 -10.333 -85 -31s-39 -47 -45 -79zM180 488.999
l-22 39l148 102l34 -56z" />
    <glyph glyph-name="ecircumflex" unicode="&#xea;" horiz-adv-x="456" 
d="M425 168l-325 -0.000976562c4.66699 -34 19.667 -62 45 -84s56 -33 92 -33c48 0 85 18 111 54l61 -19c-18 -30 -41.833 -53.333 -71.5 -70s-63.167 -25 -100.5 -25c-58 0 -106.333 19 -145 57c-38 38 -57 85.333 -57 142s18.667 103.667 56 141
c36.667 38 83.334 57 140.001 57c55.333 0 101.666 -19 138.999 -57c37.333 -37.333 56 -84.333 56 -141c0 -11.333 -0.333008 -18.666 -1 -21.999zM100 218.999h261c-6 32 -21.167 58.333 -45.5 79s-52.833 31 -85.5 31s-61 -10.333 -85 -31s-39 -47 -45 -79zM232 563.999
l-101 -75l-30 37l127 108h8l126 -108l-29 -37z" />
    <glyph glyph-name="edieresis" unicode="&#xeb;" horiz-adv-x="456" 
d="M425 168l-325 -0.000976562c4.66699 -34 19.667 -62 45 -84s56 -33 92 -33c48 0 85 18 111 54l61 -19c-18 -30 -41.833 -53.333 -71.5 -70s-63.167 -25 -100.5 -25c-58 0 -106.333 19 -145 57c-38 38 -57 85.333 -57 142s18.667 103.667 56 141
c36.667 38 83.334 57 140.001 57c55.333 0 101.666 -19 138.999 -57c37.333 -37.333 56 -84.333 56 -141c0 -11.333 -0.333008 -18.666 -1 -21.999zM100 218.999h261c-6 32 -21.167 58.333 -45.5 79s-52.833 31 -85.5 31s-61 -10.333 -85 -31s-39 -47 -45 -79zM143 497.999
c-13.333 0 -24.333 4.33398 -33 13.001s-13 19.334 -13 32.001s4.5 23.5 13.5 32.5s19.833 13.5 32.5 13.5c18 0.666992 30.833 -6.83301 38.5 -22.5s7.66699 -31.334 0 -47.001s-20.5 -22.834 -38.5 -21.501zM322 589c18 0.666992 30.833 -6.83105 38.5 -22.498
s7.66699 -31.334 0 -47.001s-20.5 -22.834 -38.5 -21.501c-18.667 -2 -32 5 -40 21s-8 32 0 48s21.333 23.333 40 22z" />
    <glyph glyph-name="igrave" unicode="&#xec;" horiz-adv-x="172" 
d="M118 0h-64v380h64v-380zM-26 579l34 56l148 -103l-23 -38z" />
    <glyph glyph-name="iacute" unicode="&#xed;" horiz-adv-x="172" 
d="M118 0h-64v380h64v-380zM12 528l147 102l35 -56l-160 -84z" />
    <glyph glyph-name="icircumflex" unicode="&#xee;" horiz-adv-x="172" 
d="M118 0h-64v380h64v-380zM-15 489l-30 37l127 108h8l126 -108l-29 -37l-101 75z" />
    <glyph glyph-name="idieresis" unicode="&#xef;" horiz-adv-x="172" 
d="M118 0h-64v380h64v-380zM4 589c12.667 0 23.167 -4.33203 31.5 -12.999s12.5 -19.667 12.5 -33c0 -12.667 -4.16699 -23.334 -12.5 -32.001s-18.833 -13 -31.5 -13c-18.667 -2 -32 5 -40 21s-8 32 0 48s21.333 23.333 40 22zM170 589.001
c12.667 0 23.167 -4.33203 31.5 -12.999s12.5 -19.667 12.5 -33c0 -12.667 -4.16699 -23.334 -12.5 -32.001s-18.833 -13 -31.5 -13c-18.667 -2 -32 5 -40 21s-8 32 0 48s21.333 23.333 40 22z" />
    <glyph glyph-name="eth" unicode="&#xf0;" horiz-adv-x="466" 
d="M233 388c48.667 0 90.333 -14 125 -42c-14.667 110.667 -55.667 182 -123 214l-58 -90l-49 31l50 79c-30 5.33301 -60 8 -90 8v63c48 0 90 -5 126 -15l47 73l49 -31l-40 -63c56 -29.333 96.833 -78 122.5 -146s38.5 -161 38.5 -279c0 -56.667 -19 -104 -57 -142
c-37.333 -38 -84.333 -57 -141 -57s-104 19 -142 57c-37.333 38.667 -56 86 -56 142c0 56.667 18.667 103.667 56 141c38 38 85.333 57 142 57zM137.999 286c-25.333 -25.333 -38.001 -57.333 -38.001 -96c0 -38 12.667 -70.333 38 -97
c26.667 -25.333 58.334 -38 95.001 -38c37.333 0 68.666 12.667 93.999 38c25.333 26.667 38 59 38 97c0 38.667 -12.667 70.667 -38 96c-25.333 26 -56.666 39 -93.999 39s-69 -13 -95 -39z" />
    <glyph glyph-name="ntilde" unicode="&#xf1;" horiz-adv-x="457" 
d="M54 0v379.999h64v-62c28.667 46.667 73 70 133 70c44 0 80.333 -14.333 109 -43c29.333 -29.333 44 -65.333 44 -108v-237h-63v220c0 30.667 -10.167 56.334 -30.5 77.001s-45.833 31 -76.5 31c-32.667 0 -60.167 -10.333 -82.5 -31s-33.5 -46.667 -33.5 -78v-219h-64z
M151 505.999h-51.998c0 26.667 7.66699 48.667 23 66s35 26 59 26c19.333 0 37.666 -7.66699 54.999 -23c18.667 -15.333 32.667 -23 42 -23c10 0 18.5 3.83301 25.5 11.5s10.5 17.5 10.5 29.5h52c0 -26.667 -7.83301 -48.667 -23.5 -66s-35.5 -26 -59.5 -26
c-18.667 0 -37.334 7.66699 -56.001 23s-32.667 23 -42 23c-10 0 -18.167 -3.83301 -24.5 -11.5s-9.5 -17.5 -9.5 -29.5z" />
    <glyph glyph-name="ograve" unicode="&#xf2;" horiz-adv-x="466" 
d="M91 48c-37.333 38.667 -56 86 -56 142c0 56.667 18.667 103.667 56 141c38 38 85.333 57 142 57s103.667 -19 141 -57c38 -36.667 57 -83.667 57 -141c0 -56.667 -19 -104 -57 -142c-37.333 -38 -84.333 -57 -141 -57s-104 19 -142 57zM138 286
c-25.333 -25.333 -38.001 -57.333 -38.001 -96c0 -38 12.667 -70.333 38 -97c26.667 -25.333 58.334 -38 95.001 -38c37.333 0 68.666 12.667 93.999 38c25.333 26.667 38 59 38 97c0 38.667 -12.667 70.667 -38 96c-25.333 26 -56.666 39 -93.999 39s-69 -13 -95 -39z
M279.999 494l-159 85l34 55l148 -102z" />
    <glyph glyph-name="oacute" unicode="&#xf3;" horiz-adv-x="466" 
d="M91 48c-37.333 38.667 -56 86 -56 142c0 56.667 18.667 103.667 56 141c38 38 85.333 57 142 57s103.667 -19 141 -57c38 -36.667 57 -83.667 57 -141c0 -56.667 -19 -104 -57 -142c-37.333 -38 -84.333 -57 -141 -57s-104 19 -142 57zM138 286
c-25.333 -25.333 -38.001 -57.333 -38.001 -96c0 -38 12.667 -70.333 38 -97c26.667 -25.333 58.334 -38 95.001 -38c37.333 0 68.666 12.667 93.999 38c25.333 26.667 38 59 38 97c0 38.667 -12.667 70.667 -38 96c-25.333 26 -56.666 39 -93.999 39s-69 -13 -95 -39z
M180.999 489l-22 39l148 102l34 -56z" />
    <glyph glyph-name="ocircumflex" unicode="&#xf4;" horiz-adv-x="466" 
d="M91 48c-37.333 38.667 -56 86 -56 142c0 56.667 18.667 103.667 56 141c38 38 85.333 57 142 57s103.667 -19 141 -57c38 -36.667 57 -83.667 57 -141c0 -56.667 -19 -104 -57 -142c-37.333 -38 -84.333 -57 -141 -57s-104 19 -142 57zM138 286
c-25.333 -25.333 -38.001 -57.333 -38.001 -96c0 -38 12.667 -70.333 38 -97c26.667 -25.333 58.334 -38 95.001 -38c37.333 0 68.666 12.667 93.999 38c25.333 26.667 38 59 38 97c0 38.667 -12.667 70.667 -38 96c-25.333 26 -56.666 39 -93.999 39s-69 -13 -95 -39z
M232.999 564l-101 -75l-29 37l126 108h8l126 -108l-29 -37z" />
    <glyph glyph-name="otilde" unicode="&#xf5;" horiz-adv-x="466" 
d="M91 48c-37.333 38.667 -56 86 -56 142c0 56.667 18.667 103.667 56 141c38 38 85.333 57 142 57s103.667 -19 141 -57c38 -36.667 57 -83.667 57 -141c0 -56.667 -19 -104 -57 -142c-37.333 -38 -84.333 -57 -141 -57s-104 19 -142 57zM138 286
c-25.333 -25.333 -38.001 -57.333 -38.001 -96c0 -38 12.667 -70.333 38 -97c26.667 -25.333 58.334 -38 95.001 -38c37.333 0 68.666 12.667 93.999 38c25.333 26.667 38 59 38 97c0 38.667 -12.667 70.667 -38 96c-25.333 26 -56.666 39 -93.999 39s-69 -13 -95 -39z
M151.999 506h-51.998c0 26.667 7.66699 48.667 23 66s35 26 59 26c18 0 36.333 -7.66699 55 -23s32.667 -23 42 -23c10 0 18.5 3.83301 25.5 11.5s10.5 17.5 10.5 29.5h52c0 -26.667 -7.83301 -48.667 -23.5 -66s-35.834 -26 -60.501 -26
c-18.667 0 -37.334 7.66699 -56.001 23c-17.333 15.333 -31 23 -41 23c-10.667 0 -19 -3.83301 -25 -11.5s-9 -17.5 -9 -29.5z" />
    <glyph glyph-name="odieresis" unicode="&#xf6;" horiz-adv-x="466" 
d="M91 48c-37.333 38.667 -56 86 -56 142c0 56.667 18.667 103.667 56 141c38 38 85.333 57 142 57s103.667 -19 141 -57c38 -36.667 57 -83.667 57 -141c0 -56.667 -19 -104 -57 -142c-37.333 -38 -84.333 -57 -141 -57s-104 19 -142 57zM138 286
c-25.333 -25.333 -38.001 -57.333 -38.001 -96c0 -38 12.667 -70.333 38 -97c26.667 -25.333 58.334 -38 95.001 -38c37.333 0 68.666 12.667 93.999 38c25.333 26.667 38 59 38 97c0 38.667 -12.667 70.667 -38 96c-25.333 26 -56.666 39 -93.999 39s-69 -13 -95 -39z
M143.999 589c18 0.666992 30.833 -6.83301 38.5 -22.5s7.66699 -31.334 0 -47.001s-20.5 -22.834 -38.5 -21.501c-18.667 -1.33301 -32 5.83398 -40 21.501s-8 31.334 0 47.001s21.333 23.167 40 22.5zM322.999 498c-13.333 0 -24.333 4.33398 -33 13.001
s-13 19.334 -13 32.001s4.5 23.5 13.5 32.5s19.833 13.5 32.5 13.5c18 0.666992 30.833 -6.83301 38.5 -22.5s7.66699 -31.334 0 -47.001s-20.5 -22.834 -38.5 -21.501z" />
    <glyph glyph-name="divide" unicode="&#xf7;" 
d="M77 294v62h446v-62h-446zM266 116c-8.66699 8.66699 -13 19.667 -13 33s4.33301 24.333 13 33c9.33301 9.33301 20.666 14 33.999 14s24.333 -4.66699 33 -14c9.33301 -8.66699 14 -19.667 14 -33s-4.66699 -24.333 -14 -33c-8.66699 -8.66699 -19.667 -13 -33 -13
s-24.666 4.33301 -33.999 13zM266 467c-8.66699 9.33301 -13 20.666 -13 33.999s4.33301 24.333 13 33c9.33301 8.66699 20.666 13 33.999 13s24.333 -4.33301 33 -13c9.33301 -8.66699 14 -19.667 14 -33s-4.66699 -24.666 -14 -33.999
c-8.66699 -8.66699 -19.667 -13 -33 -13s-24.666 4.33301 -33.999 13z" />
    <glyph glyph-name="oslash" unicode="&#xf8;" horiz-adv-x="466" 
d="M233 389c31.333 0 61 -7.00098 89 -21.001l15 21l47 -34l-14 -20c40.667 -36.667 61 -85 61 -145c0 -56.667 -19 -104 -57 -142c-37.333 -38 -84.333 -57 -141 -57c-31.333 0 -61 7 -89 21l-14 -21l-49 33l15 20c-40.667 38.667 -61 87.334 -61 146.001
c0 56 18.667 103.333 56 142c38 38 85.333 57 142 57zM331 278.999l-149 -213.002c16.667 -7.33301 33.667 -11 51 -11c38 0 69.5 12.833 94.5 38.5s37.5 57.834 37.5 96.501c0 36.667 -11.333 66.334 -34 89.001zM135 99.9971l149 213c-14.667 8 -31.667 12 -51 12
c-37.333 0 -69 -13 -95 -39c-25.333 -25.333 -38 -57.333 -38 -96c0 -34.667 11.667 -64.667 35 -90z" />
    <glyph glyph-name="ugrave" unicode="&#xf9;" horiz-adv-x="457" 
d="M206 -9c-44.667 0 -81.332 14.334 -109.999 43.001s-43 65 -43 109v237h63v-220c0 -30.667 10.167 -56.334 30.5 -77.001s45.833 -31 76.5 -31c33.333 0 61.166 10.5 83.499 31.5s33.5 46.833 33.5 77.5v219h63v-380h-63v63c-29.333 -48 -74 -72 -134 -72z
M298.002 532.001l-23 -38l-159 85l34 55z" />
    <glyph glyph-name="uacute" unicode="&#xfa;" horiz-adv-x="457" 
d="M53 143l0.00195312 237.001h63v-220c0 -30.667 10.167 -56.334 30.5 -77.001s45.833 -31 76.5 -31c33.333 0 61.166 10.5 83.499 31.5s33.5 46.833 33.5 77.5v219h63v-380h-63v63c-29.333 -48 -74 -72 -134 -72c-44.667 0 -81.334 14.333 -110.001 43s-43 65 -43 109z
M335.002 574.001l-159 -85l-23 39l148 102z" />
    <glyph glyph-name="ucircumflex" unicode="&#xfb;" horiz-adv-x="457" 
d="M53 143l0.00195312 237.001h63v-220c0 -30.667 10.167 -56.334 30.5 -77.001s45.833 -31 76.5 -31c33.333 0 61.166 10.5 83.499 31.5s33.5 46.833 33.5 77.5v219h63v-380h-63v63c-29.333 -48 -74 -72 -134 -72c-44.667 0 -81.334 14.333 -110.001 43s-43 65 -43 109z
M228.002 564.001l-102 -75l-29 37l127 108h8l126 -108l-29 -37z" />
    <glyph glyph-name="udieresis" unicode="&#xfc;" horiz-adv-x="457" 
d="M53 143l0.00195312 237.001h63v-220c0 -30.667 10.167 -56.334 30.5 -77.001s45.833 -31 76.5 -31c33.333 0 61.166 10.5 83.499 31.5s33.5 46.833 33.5 77.5v219h63v-380h-63v63c-29.333 -48 -74 -72 -134 -72c-44.667 0 -81.334 14.333 -110.001 43s-43 65 -43 109z
M272.002 543.001c-1.33301 18.667 5.83398 32 21.501 40s31.334 8 47.001 0s22.834 -21.333 21.501 -40c1.33301 -18 -5.83398 -30.833 -21.501 -38.5s-31.334 -7.66699 -47.001 0s-22.834 20.5 -21.501 38.5zM139.002 498.001c-18.667 -2 -32 5.00098 -40 21.001
s-8 32 0 48s21.333 23.333 40 22c12.667 0 23.167 -4.33301 31.5 -13s12.5 -19.667 12.5 -33c0 -12.667 -4.16699 -23.334 -12.5 -32.001s-18.833 -13 -31.5 -13z" />
    <glyph glyph-name="yacute" unicode="&#xfd;" horiz-adv-x="393" 
d="M163 10l-151 370h65l118 -293l121 293h66l-203 -483c-17.333 -42 -38 -72.833 -62 -92.5s-53.333 -29.5 -88 -29.5h-10v60h10c40.667 0 72.667 27.667 96 83zM145 489l-22 39l147 102l35 -56z" />
    <glyph glyph-name="thorn" unicode="&#xfe;" horiz-adv-x="476" 
d="M118 -225h-64.001v925h64v-372c36 40 81.333 60 136 60c53.333 0 98 -19 134 -57c36 -36.667 54 -83.667 54 -141c0 -56.667 -18 -104 -54 -142s-80.667 -57 -134 -57s-98.666 20 -135.999 60v-276zM246.999 325c-35.333 0 -65.666 -13.002 -90.999 -39.002
c-24 -25.333 -36 -57.333 -36 -96s12 -71 36 -97c25.333 -25.333 55.666 -38 90.999 -38c36.667 0 67.167 12.833 91.5 38.5s36.5 57.834 36.5 96.501s-12.167 70.834 -36.5 96.501s-54.833 38.5 -91.5 38.5z" />
    <glyph glyph-name="ydieresis" unicode="&#xff;" horiz-adv-x="393" 
d="M163 10l-151 370h65l118 -293l121 293h66l-203 -483c-17.333 -42 -38 -72.833 -62 -92.5s-53.333 -29.5 -88 -29.5h-10v60h10c40.667 0 72.667 27.667 96 83zM108 498c-18.667 -1.33301 -32 5.83398 -40 21.501s-8 31.334 0 47.001s21.333 23.167 40 22.5
c18 0.666992 30.833 -6.83301 38.5 -22.5s7.66699 -31.334 0 -47.001s-20.5 -22.834 -38.5 -21.501zM287 589c12.667 0 23.167 -4.33203 31.5 -12.999s12.5 -19.667 12.5 -33c0 -12.667 -4.16699 -23.334 -12.5 -32.001s-18.833 -13 -31.5 -13c-18.667 -2 -32 5 -40 21
s-8 32 0 48s21.333 23.333 40 22z" />
    <glyph glyph-name="Amacron" unicode="&#x100;" horiz-adv-x="667" 
d="M93 0h-75l288 650h56l287 -650h-75l-67 153h-347zM478 219l-144 328l-144 -328h288zM223 765v56h223v-56h-223z" />
    <glyph glyph-name="amacron" unicode="&#x101;" horiz-adv-x="476" 
d="M222 388c54.667 0 100 -20 136 -60v52h63v-380h-63v51c-36 -40 -81.333 -60 -136 -60c-53.333 0 -98 19 -134 57c-35.333 38.667 -53 86 -53 142c0 56.667 17.667 103.667 53 141c36 38 80.667 57 134 57zM229 325c-36.667 0 -67.334 -12.8301 -92.001 -38.4971
s-37 -57.834 -37 -96.501s12.333 -70.834 37 -96.501s55.334 -38.5 92.001 -38.5c35.333 0 65.666 12.667 90.999 38c24.667 25.333 37 57.666 37 96.999s-12.333 71.333 -37 96c-25.333 26 -55.666 39 -90.999 39zM351 577.003v-55h-223v55h223z" />
    <glyph glyph-name="Abreve" unicode="&#x102;" horiz-adv-x="667" 
d="M160 153l-67 -153h-75l288 650h56l287 -650h-75l-67 153h-347zM478 219l-144 328l-144 -328h288zM216 855h51.998c0 -18.667 6.33301 -34.5 19 -47.5s28.334 -19.5 47.001 -19.5s34.334 6.33301 47.001 19s19 28.667 19 48h52c0 -33.333 -11.333 -61.333 -34 -84
s-50.667 -34 -84 -34s-61.333 11.333 -84 34s-34 50.667 -34 84z" />
    <glyph glyph-name="abreve" unicode="&#x103;" horiz-adv-x="476" 
d="M222 -9c-53.333 0 -98 19 -134 57c-35.333 38.667 -53 86 -53 142c0 56.667 17.667 103.667 53 141c36 38 80.667 57 134 57c54.667 0 100 -20 136 -60v52h63v-380h-63v51c-36 -40 -81.333 -60 -136 -60zM229 55c35.333 0 65.666 12.6699 90.999 38.0029
c24.667 25.333 37 57.666 37 96.999s-12.333 71.333 -37 96c-25.333 26 -55.666 39 -90.999 39c-36.667 0 -67.334 -12.833 -92.001 -38.5s-37 -57.834 -37 -96.501s12.333 -70.834 37 -96.501s55.334 -38.5 92.001 -38.5zM122 611.003h51.998
c0 -18.667 6.33301 -34.334 19 -47.001s28.334 -19 47.001 -19s34.334 6.33301 47.001 19s19 28.334 19 47.001h52c0 -33.333 -11.333 -61.166 -34 -83.499s-50.667 -33.5 -84 -33.5s-61.333 11.167 -84 33.5s-34 50.166 -34 83.499z" />
    <glyph glyph-name="Aogonek" unicode="&#x104;" horiz-adv-x="667" 
d="M93 0h-75.001l288 650h56l287 -650h-10c-32.667 -30.667 -49 -62 -49 -94c0 -13.333 3.5 -23.833 10.5 -31.5s16.5 -11.5 28.5 -11.5c16.667 0 32.334 7.33301 47.001 22l6 7l21 -26l-12 -13c-5.33301 -7.33301 -15.833 -15.166 -31.5 -23.499s-30.5 -12.5 -44.5 -12.5
c-21.333 0 -39.333 7.66699 -54 23s-22 34.333 -22 57c0 15.333 4.16699 31.666 12.5 48.999s17.5 31 27.5 41l13 13h-18l-67 153h-347zM477.999 219l-144 328l-144 -328h288z" />
    <glyph glyph-name="aogonek" unicode="&#x105;" horiz-adv-x="476" 
d="M222 -9c-53.333 0 -98 19 -134 57c-35.333 38.667 -53 86 -53 142c0 56.667 17.667 103.667 53 141c36 38 80.667 57 134 57c54.667 0 100 -20 136 -60v52h63v-380h-8c-32.667 -30.667 -49 -62 -49 -94c0 -13.333 3.5 -23.833 10.5 -31.5s16.5 -11.5 28.5 -11.5
c18 0 33.667 7.33301 47 22l7 7l21 -26l-12 -13c-5.33301 -7.33301 -16 -15.166 -32 -23.499s-31 -12.5 -45 -12.5c-21.333 0 -39.333 7.66699 -54 23s-22 34.333 -22 57c0 15.333 4.16699 31.666 12.5 48.999s17.5 31 27.5 41l13 13h-8v51c-36 -40 -81.333 -60 -136 -60z
M229 55c35.333 0 65.666 12.6699 90.999 38.0029c24.667 25.333 37 57.666 37 96.999s-12.333 71.333 -37 96c-25.333 26 -55.666 39 -90.999 39c-36.667 0 -67.334 -12.833 -92.001 -38.5s-37 -57.834 -37 -96.501s12.333 -70.834 37 -96.501s55.334 -38.5 92.001 -38.5z
" />
    <glyph glyph-name="Cacute" unicode="&#x106;" horiz-adv-x="724" 
d="M385 659c62.667 0 119.498 -14.6709 170.498 -44.0039s90.833 -69.666 119.5 -120.999l-68 -27c-24 38.667 -55.167 68.834 -93.5 90.501s-81.166 32.5 -128.499 32.5c-74 0 -136 -25.333 -186 -76s-75 -113.667 -75 -189s25 -138.666 75 -189.999
c50 -50.667 112 -76 186 -76c46.667 0 89.334 10.833 128.001 32.5s70 51.834 94 90.501l68 -26c-28.667 -51.333 -68.667 -91.833 -120 -121.5s-108 -44.5 -170 -44.5c-95.333 0 -175 32 -239 96c-63.333 64.667 -95 144.334 -95 239.001
c0 95.333 31.667 174.666 95 237.999c64 64 143.667 96 239 96zM330.998 732.996l-23 38l148 102l34 -56z" />
    <glyph glyph-name="cacute" unicode="&#x107;" horiz-adv-x="440" 
d="M413 273l-63.001 -19c-10.667 22 -26.334 39.333 -47.001 52s-44 19 -70 19c-38 0 -69.667 -13 -95 -39c-25.333 -25.333 -38 -57.333 -38 -96c0 -38 12.667 -70.333 38 -97c25.333 -25.333 57 -38 95 -38c26 0 49.333 6.33301 70 19s36.334 30 47.001 52l63 -19
c-15.333 -35.333 -39.166 -63.5 -71.499 -84.5s-68.833 -31.5 -109.5 -31.5c-56 0 -103 19 -141 57c-37.333 38.667 -56 86 -56 142c0 56.667 18.667 103.667 56 141c38 38 85 57 141 57c40 0 76.333 -10.5 109 -31.5s56.667 -48.833 72 -83.5zM180.999 489l-22 39l148 102
l34 -56z" />
    <glyph glyph-name="Ccircumflex" unicode="&#x108;" horiz-adv-x="724" 
d="M385 659c62.667 0 119.498 -14.6709 170.498 -44.0039s90.833 -69.666 119.5 -120.999l-68 -27c-24 38.667 -55.167 68.834 -93.5 90.501s-81.166 32.5 -128.499 32.5c-74 0 -136 -25.333 -186 -76s-75 -113.667 -75 -189s25 -138.666 75 -189.999
c50 -50.667 112 -76 186 -76c46.667 0 89.334 10.833 128.001 32.5s70 51.834 94 90.501l68 -26c-28.667 -51.333 -68.667 -91.833 -120 -121.5s-108 -44.5 -170 -44.5c-95.333 0 -175 32 -239 96c-63.333 64.667 -95 144.334 -95 239.001
c0 95.333 31.667 174.666 95 237.999c64 64 143.667 96 239 96zM381.998 806.996l-101 -75l-29 37l126 108h8l126 -108l-29 -37z" />
    <glyph glyph-name="ccircumflex" unicode="&#x109;" horiz-adv-x="440" 
d="M413 273l-63.001 -19c-10.667 22 -26.334 39.333 -47.001 52s-44 19 -70 19c-38 0 -69.667 -13 -95 -39c-25.333 -25.333 -38 -57.333 -38 -96c0 -38 12.667 -70.333 38 -97c25.333 -25.333 57 -38 95 -38c26 0 49.333 6.33301 70 19s36.334 30 47.001 52l63 -19
c-15.333 -35.333 -39.166 -63.5 -71.499 -84.5s-68.833 -31.5 -109.5 -31.5c-56 0 -103 19 -141 57c-37.333 38.667 -56 86 -56 142c0 56.667 18.667 103.667 56 141c38 38 85 57 141 57c40 0 76.333 -10.5 109 -31.5s56.667 -48.833 72 -83.5zM232.999 564l-101 -75l-30 37
l127 108h8l126 -108l-29 -37z" />
    <glyph glyph-name="Cdotaccent" unicode="&#x10a;" horiz-adv-x="724" 
d="M385 659c62.667 0 119.498 -14.6709 170.498 -44.0039s90.833 -69.666 119.5 -120.999l-68 -27c-24 38.667 -55.167 68.834 -93.5 90.501s-81.166 32.5 -128.499 32.5c-74 0 -136 -25.333 -186 -76s-75 -113.667 -75 -189s25 -138.666 75 -189.999
c50 -50.667 112 -76 186 -76c46.667 0 89.334 10.833 128.001 32.5s70 51.834 94 90.501l68 -26c-28.667 -51.333 -68.667 -91.833 -120 -121.5s-108 -44.5 -170 -44.5c-95.333 0 -175 32 -239 96c-63.333 64.667 -95 144.334 -95 239.001
c0 95.333 31.667 174.666 95 237.999c64 64 143.667 96 239 96zM347.998 751.996c-9.33301 9.33301 -14 20.666 -14 33.999s4.66699 24.666 14 33.999s20.666 14 33.999 14s24.333 -4.66699 33 -14c9.33301 -9.33301 14 -20.666 14 -33.999s-4.66699 -24.666 -14 -33.999
c-8.66699 -8.66699 -19.667 -13 -33 -13s-24.666 4.33301 -33.999 13z" />
    <glyph glyph-name="cdotaccent" unicode="&#x10b;" horiz-adv-x="440" 
d="M413 273l-63.001 -19c-10.667 22 -26.334 39.333 -47.001 52s-44 19 -70 19c-38 0 -69.667 -13 -95 -39c-25.333 -25.333 -38 -57.333 -38 -96c0 -38 12.667 -70.333 38 -97c25.333 -25.333 57 -38 95 -38c26 0 49.333 6.33301 70 19s36.334 30 47.001 52l63 -19
c-15.333 -35.333 -39.166 -63.5 -71.499 -84.5s-68.833 -31.5 -109.5 -31.5c-56 0 -103 19 -141 57c-37.333 38.667 -56 86 -56 142c0 56.667 18.667 103.667 56 141c38 38 85 57 141 57c40 0 76.333 -10.5 109 -31.5s56.667 -48.833 72 -83.5zM198.999 509
c-9.33301 9.33301 -14 20.666 -14 33.999s4.66699 24.666 14 33.999s20.666 14 33.999 14s24.333 -4.66699 33 -14c9.33301 -9.33301 14 -20.666 14 -33.999s-4.66699 -24.666 -14 -33.999c-8.66699 -8.66699 -19.667 -13 -33 -13s-24.666 4.33301 -33.999 13z" />
    <glyph glyph-name="Ccaron" unicode="&#x10c;" horiz-adv-x="724" 
d="M385 659c62.667 0 119.498 -14.6709 170.498 -44.0039s90.833 -69.666 119.5 -120.999l-68 -27c-24 38.667 -55.167 68.834 -93.5 90.501s-81.166 32.5 -128.499 32.5c-74 0 -136 -25.333 -186 -76s-75 -113.667 -75 -189s25 -138.666 75 -189.999
c50 -50.667 112 -76 186 -76c46.667 0 89.334 10.833 128.001 32.5s70 51.834 94 90.501l68 -26c-28.667 -51.333 -68.667 -91.833 -120 -121.5s-108 -44.5 -170 -44.5c-95.333 0 -175 32 -239 96c-63.333 64.667 -95 144.334 -95 239.001
c0 95.333 31.667 174.666 95 237.999c64 64 143.667 96 239 96zM381.998 800.996l102 76l29 -37l-127 -107h-8l-126 107l29 37z" />
    <glyph glyph-name="ccaron" unicode="&#x10d;" horiz-adv-x="440" 
d="M413 273l-63.001 -19c-10.667 22 -26.334 39.333 -47.001 52s-44 19 -70 19c-38 0 -69.667 -13 -95 -39c-25.333 -25.333 -38 -57.333 -38 -96c0 -38 12.667 -70.333 38 -97c25.333 -25.333 57 -38 95 -38c26 0 49.333 6.33301 70 19s36.334 30 47.001 52l63 -19
c-15.333 -35.333 -39.166 -63.5 -71.499 -84.5s-68.833 -31.5 -109.5 -31.5c-56 0 -103 19 -141 57c-37.333 38.667 -56 86 -56 142c0 56.667 18.667 103.667 56 141c38 38 85 57 141 57c40 0 76.333 -10.5 109 -31.5s56.667 -48.833 72 -83.5zM232.999 558l101 76l30 -37
l-127 -108h-8l-127 108l30 37z" />
    <glyph glyph-name="Dcaron" unicode="&#x10e;" horiz-adv-x="718" 
d="M333 0l-254.999 -0.000976562v650h255c95.333 0 174.666 -31.333 237.999 -94c64 -62 96 -139 96 -231c0 -91.333 -32 -168.666 -96 -231.999c-64 -62 -143.333 -93 -238 -93zM333.001 582.999h-183v-517h183c74 0 135.667 25 185 75c50 50 75 111.333 75 184
s-25 133.667 -75 183c-49.333 50 -111 75 -185 75zM237.001 732.999l-126 107l29 37l101 -76l102 76l29 -37l-126 -107h-9z" />
    <glyph glyph-name="dcaron" unicode="&#x10f;" horiz-adv-x="582" 
d="M222 389c57.333 0 103 -23 137 -69v380h62v-700h-62v59c-34 -45.333 -79.667 -68 -137 -68c-53.333 0 -98 19 -134 57c-35.333 38.667 -53 86 -53 142s17.667 103.333 53 142c36 38 80.667 57 134 57zM229 55c36.667 0 67.667 12.6699 93 38.0029
c24.667 25.333 37 57.666 37 96.999s-12.333 71.333 -37 96c-25.333 26 -56.333 39 -93 39s-67.334 -12.833 -92.001 -38.5s-37 -57.834 -37 -96.501s12.333 -70.834 37 -96.501s55.334 -38.5 92.001 -38.5zM486 669.003c0 11.333 3.83398 20.833 11.501 28.5
s17.5 11.5 29.5 11.5c12.667 0 23.334 -5 32.001 -15s13 -23 13 -39c0 -17.333 -5.66699 -34.333 -17 -51s-22.5 -29.167 -33.5 -37.5s-16.833 -11.5 -17.5 -9.5l-18 18c2 1.33301 5.33301 4.33301 10 9c5.33301 5.33301 11.166 12.5 17.499 21.5s9.16602 16.5 8.49902 22.5
c-10 0.666992 -18.5 5 -25.5 13s-10.5 17.333 -10.5 28z" />
    <glyph glyph-name="Dcroat" unicode="&#x110;" horiz-adv-x="727" 
d="M10 296l0.000976562 57.999h78v296h254c95.333 0 174.666 -31.333 237.999 -94c64 -62 96 -139 96 -231c0 -91.333 -32 -168.666 -96 -231.999c-64 -62 -143.333 -93 -238 -93h-254v296h-78zM159.001 582.999v-229h214v-58h-214v-230h183c74 0 136 25 186 75
s75 111.333 75 184s-25 133.667 -75 183c-50 50 -112 75 -186 75h-183z" />
    <glyph glyph-name="dslash" unicode="&#x111;" horiz-adv-x="475" 
d="M222 388c54.667 0 100.333 -20 137 -60l-1 194h-136v58h136v120h63v-120h47v-58h-47v-522h-63v51c-36 -40 -81.333 -60 -136 -60c-53.333 0 -98 19 -134 57c-35.333 38.667 -53 86 -53 142c0 56.667 17.667 103.667 53 141c36 38 80.667 57 134 57zM228.999 325
c-36.667 0 -67.334 -12.8301 -92.001 -38.4971s-37 -57.834 -37 -96.501s12.333 -70.834 37 -96.501s55.334 -38.5 92.001 -38.5c35.333 0 65.666 12.667 90.999 38c24.667 25.333 37 57.666 37 96.999s-12.333 71.333 -37 96c-25.333 26 -55.666 39 -90.999 39z" />
    <glyph glyph-name="Emacron" unicode="&#x112;" horiz-adv-x="584" 
d="M78 650h465v-67h-393v-220h346v-67h-346v-230h397v-66h-469v650zM194 765v56h223v-56h-223z" />
    <glyph glyph-name="emacron" unicode="&#x113;" horiz-adv-x="456" 
d="M425 168l-325 -0.000976562c4.66699 -34 19.667 -62 45 -84s56 -33 92 -33c48 0 85 18 111 54l61 -19c-18 -30 -41.833 -53.333 -71.5 -70s-63.167 -25 -100.5 -25c-58 0 -106.333 19 -145 57c-38 38 -57 85.333 -57 142s18.667 103.667 56 141
c36.667 38 83.334 57 140.001 57c55.333 0 101.666 -19 138.999 -57c37.333 -37.333 56 -84.333 56 -141c0 -11.333 -0.333008 -18.666 -1 -21.999zM100 218.999h261c-6 32 -21.167 58.333 -45.5 79s-52.833 31 -85.5 31s-61 -10.333 -85 -31s-39 -47 -45 -79zM344 521.999
h-223v55h223v-55z" />
    <glyph glyph-name="Ebreve" unicode="&#x114;" horiz-adv-x="584" 
d="M78 650h465v-67h-393v-220h346v-67h-346v-230h397v-66h-469v650zM305 737c-33.333 0 -61.168 11.333 -83.501 34s-33.5 50.667 -33.5 84h52c0 -19.333 6.16699 -35.333 18.5 -48s27.833 -19 46.5 -19s34.334 6.33301 47.001 19s19 28.667 19 48h52
c0 -33.333 -11.167 -61.333 -33.5 -84s-50.5 -34 -84.5 -34z" />
    <glyph glyph-name="ebreve" unicode="&#x115;" horiz-adv-x="456" 
d="M425 168l-325 -0.000976562c4.66699 -34 19.667 -62 45 -84s56 -33 92 -33c48 0 85 18 111 54l61 -19c-18 -30 -41.833 -53.333 -71.5 -70s-63.167 -25 -100.5 -25c-58 0 -106.333 19 -145 57c-38 38 -57 85.333 -57 142s18.667 103.667 56 141
c36.667 38 83.334 57 140.001 57c55.333 0 101.666 -19 138.999 -57c37.333 -37.333 56 -84.333 56 -141c0 -11.333 -0.333008 -18.666 -1 -21.999zM100 218.999h261c-6 32 -21.167 58.333 -45.5 79s-52.833 31 -85.5 31s-61 -10.333 -85 -31s-39 -47 -45 -79zM114 610.999
h51.998c0 -18.667 6.33301 -34.334 19 -47.001s28.334 -19 47.001 -19s34.334 6.33301 47.001 19s19 28.334 19 47.001h52c0 -33.333 -11.333 -61.166 -34 -83.499s-50.667 -33.5 -84 -33.5s-61.333 11.167 -84 33.5s-34 50.166 -34 83.499z" />
    <glyph glyph-name="Edotaccent" unicode="&#x116;" horiz-adv-x="584" 
d="M78 650h465v-67h-393v-220h346v-67h-346v-230h397v-66h-469v650zM271 752c-8.66699 9.33301 -13 20.666 -13 33.999s4.33301 24.666 13 33.999c9.33301 9.33301 20.666 14 33.999 14s24.333 -4.66699 33 -14c9.33301 -9.33301 14 -20.666 14 -33.999
s-4.66699 -24.666 -14 -33.999c-8.66699 -8.66699 -19.667 -13 -33 -13s-24.666 4.33301 -33.999 13z" />
    <glyph glyph-name="edotaccent" unicode="&#x117;" horiz-adv-x="456" 
d="M425 168l-325 -0.000976562c4.66699 -34 19.667 -62 45 -84s56 -33 92 -33c48 0 85 18 111 54l61 -19c-18 -30 -41.833 -53.333 -71.5 -70s-63.167 -25 -100.5 -25c-58 0 -106.333 19 -145 57c-38 38 -57 85.333 -57 142s18.667 103.667 56 141
c36.667 38 83.334 57 140.001 57c55.333 0 101.666 -19 138.999 -57c37.333 -37.333 56 -84.333 56 -141c0 -11.333 -0.333008 -18.666 -1 -21.999zM100 218.999h261c-6 32 -21.167 58.333 -45.5 79s-52.833 31 -85.5 31s-61 -10.333 -85 -31s-39 -47 -45 -79zM198 508.999
c-9.33301 9.33301 -14 20.666 -14 33.999s4.66699 24.666 14 33.999s20.666 14 33.999 14s24.333 -4.66699 33 -14c9.33301 -9.33301 14 -20.666 14 -33.999s-4.66699 -24.666 -14 -33.999c-8.66699 -8.66699 -19.667 -13 -33 -13s-24.666 4.33301 -33.999 13z" />
    <glyph glyph-name="Eogonek" unicode="&#x118;" horiz-adv-x="584" 
d="M460 0h-382.001v650h465v-67h-393v-220h346v-67h-346v-230h397v-66h-41c-32.667 -30.667 -49 -62 -49 -94c0 -13.333 3.66699 -23.833 11 -31.5s17 -11.5 29 -11.5c16.667 0 32.334 7.33301 47.001 22l6 7l21 -26l-12 -13
c-5.33301 -7.33301 -15.833 -15.166 -31.5 -23.499s-30.5 -12.5 -44.5 -12.5c-21.333 0 -39.5 7.66699 -54.5 23s-22.5 34.333 -22.5 57c0 15.333 4.16699 31.666 12.5 48.999s17.5 31 27.5 41z" />
    <glyph glyph-name="eogonek" unicode="&#x119;" horiz-adv-x="456" 
d="M232 -9c-56.667 0.666992 -103.666 20.3301 -140.999 58.9971s-56 85.334 -56 140.001c0 56.667 18.667 103.667 56 141c36.667 38 83.334 57 140.001 57c55.333 0 101.666 -19 138.999 -57c37.333 -37.333 56 -84.333 56 -141c0 -11.333 -0.333008 -18.666 -1 -21.999
h-325c4.66699 -34 19.667 -62 45 -84s56 -33 92 -33c48 0 85 18 111 54l61 -19c-28 -46.667 -70 -76.667 -126 -90c-30 -33.333 -45 -63.333 -45 -90c0 -13.333 3.66699 -23.833 11 -31.5s17 -11.5 29 -11.5c17.333 0 32.666 7.33301 45.999 22l7 7l21 -26l-12 -13
c-5.33301 -7.33301 -15.833 -15.166 -31.5 -23.499s-30.5 -12.5 -44.5 -12.5c-21.333 0 -39.5 7.66699 -54.5 23s-22.5 34.333 -22.5 57c0 32.667 15 64 45 94zM100.001 218.996h261c-6 32 -21.167 58.333 -45.5 79s-52.833 31 -85.5 31s-61 -10.333 -85 -31
s-39 -47 -45 -79z" />
    <glyph glyph-name="Ecaron" unicode="&#x11a;" horiz-adv-x="584" 
d="M78 650h465v-67h-393v-220h346v-67h-346v-230h397v-66h-469v650zM301 733l-126 107l29 37l101 -76l102 76l29 -37l-127 -107h-8z" />
    <glyph glyph-name="ecaron" unicode="&#x11b;" horiz-adv-x="456" 
d="M425 168l-325 -0.000976562c4.66699 -34 19.667 -62 45 -84s56 -33 92 -33c48 0 85 18 111 54l61 -19c-18 -30 -41.833 -53.333 -71.5 -70s-63.167 -25 -100.5 -25c-58 0 -106.333 19 -145 57c-38 38 -57 85.333 -57 142s18.667 103.667 56 141
c36.667 38 83.334 57 140.001 57c55.333 0 101.666 -19 138.999 -57c37.333 -37.333 56 -84.333 56 -141c0 -11.333 -0.333008 -18.666 -1 -21.999zM100 218.999h261c-6 32 -21.167 58.333 -45.5 79s-52.833 31 -85.5 31s-61 -10.333 -85 -31s-39 -47 -45 -79zM232 557.999
l101 76l30 -37l-127 -108h-8l-127 108l30 37z" />
    <glyph glyph-name="Gcircumflex" unicode="&#x11c;" horiz-adv-x="765" 
d="M391 659c63.333 0 121.002 -14.8359 173.002 -44.5029s92 -69.834 120 -120.501l-68 -27c-22.667 38 -53.834 68 -93.501 90s-83.5 33 -131.5 33c-76.667 0 -140.334 -25.333 -191.001 -76s-76 -113.667 -76 -189s24.667 -138.666 74 -189.999
c48.667 -50.667 109.334 -76 182.001 -76c64.667 0 121 20 169 60c48 40.667 76.333 92.334 85 155.001h-275v67h354c0.666992 -4 1 -12.667 1 -26c-2 -91.333 -34.667 -168.666 -98 -231.999c-62.667 -62 -140.667 -93 -234 -93c-94.667 0 -173.334 32 -236.001 96
c-63.333 64.667 -95 144.334 -95 239.001c0 96 32.333 175.333 97 238c65.333 64 146.333 96 243 96zM382.002 806.997l-101 -75l-29 37l126 108h8l126 -108l-29 -37z" />
    <glyph glyph-name="gcircumflex" unicode="&#x11d;" horiz-adv-x="475" 
d="M222 389c54.667 0 100.334 -20.334 137.001 -61.001v52h62v-419c0 -55.333 -18.667 -101.666 -56 -138.999s-84.333 -56 -141 -56c-39.333 0 -75.333 9.5 -108 28.5s-56.334 43.833 -71.001 74.5l63 20c10 -18 25.333 -32.5 46 -43.5s43.334 -16.5 68.001 -16.5
c38 0 70.333 12.667 97 38c26.667 24.667 40 56 40 94v91c-36.667 -40.667 -82.334 -61 -137.001 -61c-53.333 0 -98 19 -134 57c-35.333 38.667 -53 86 -53 142s17.667 103.333 53 142c36 38 80.667 57 134 57zM228 54.999c36.667 0 67.335 12.8301 92.002 38.4971
s37 57.834 37 96.501s-12.333 70.834 -37 96.501s-55.334 38.5 -92.001 38.5c-36 0 -66.333 -13 -91 -39c-24.667 -24.667 -37 -56.667 -37 -96s12.333 -71.666 37 -96.999c25.333 -25.333 55.666 -38 90.999 -38zM133.001 488.996l-30 37l127 108h8l126 -108l-29 -37
l-101 75z" />
    <glyph glyph-name="Gbreve" unicode="&#x11e;" horiz-adv-x="765" 
d="M391 659c63.333 0 121.002 -14.8359 173.002 -44.5029s92 -69.834 120 -120.501l-68 -27c-22.667 38 -53.834 68 -93.501 90s-83.5 33 -131.5 33c-76.667 0 -140.334 -25.333 -191.001 -76s-76 -113.667 -76 -189s24.667 -138.666 74 -189.999
c48.667 -50.667 109.334 -76 182.001 -76c64.667 0 121 20 169 60c48 40.667 76.333 92.334 85 155.001h-275v67h354c0.666992 -4 1 -12.667 1 -26c-2 -91.333 -34.667 -168.666 -98 -231.999c-62.667 -62 -140.667 -93 -234 -93c-94.667 0 -173.334 32 -236.001 96
c-63.333 64.667 -95 144.334 -95 239.001c0 96 32.333 175.333 97 238c65.333 64 146.333 96 243 96zM264.002 854.997h51.998c0 -18.667 6.33301 -34.5 19 -47.5s28.334 -19.5 47.001 -19.5s34.334 6.33301 47.001 19s19 28.667 19 48h52
c0 -33.333 -11.333 -61.333 -34 -84s-50.667 -34 -84 -34s-61.333 11.333 -84 34s-34 50.667 -34 84z" />
    <glyph glyph-name="gbreve" unicode="&#x11f;" horiz-adv-x="475" 
d="M222 -9c-53.333 0 -98 18.999 -134 56.999c-35.333 38.667 -53 86 -53 142s17.667 103.333 53 142c36 38 80.667 57 134 57c54.667 0 100.334 -20.333 137.001 -61v52h62v-419c0 -55.333 -18.667 -101.666 -56 -138.999s-84.333 -56 -141 -56
c-39.333 0 -75.333 9.5 -108 28.5s-56.334 43.833 -71.001 74.5l63 20c10 -18 25.333 -32.5 46 -43.5s43.334 -16.5 68.001 -16.5c38 0 70.333 12.667 97 38c26.667 24.667 40 56 40 94v91c-36.667 -40.667 -82.334 -61 -137.001 -61zM228 324.999
c-36 0 -66.332 -13.0029 -90.999 -39.0029c-24.667 -24.667 -37 -56.667 -37 -96s12.333 -71.666 37 -96.999c25.333 -25.333 55.666 -38 90.999 -38c36.667 0 67.334 12.833 92.001 38.5s37 57.834 37 96.501s-12.333 70.834 -37 96.501s-55.334 38.5 -92.001 38.5z
M116.001 610.996h51.998c0 -18.667 6.33301 -34.334 19 -47.001s28.334 -19 47.001 -19s34.334 6.33301 47.001 19s19 28.334 19 47.001h52c0 -33.333 -11.333 -61.166 -34 -83.499s-50.667 -33.5 -84 -33.5s-61.333 11.167 -84 33.5s-34 50.166 -34 83.499z" />
    <glyph glyph-name="Gdotaccent" unicode="&#x120;" horiz-adv-x="765" 
d="M391 659c63.333 0 121.002 -14.8359 173.002 -44.5029s92 -69.834 120 -120.501l-68 -27c-22.667 38 -53.834 68 -93.501 90s-83.5 33 -131.5 33c-76.667 0 -140.334 -25.333 -191.001 -76s-76 -113.667 -76 -189s24.667 -138.666 74 -189.999
c48.667 -50.667 109.334 -76 182.001 -76c64.667 0 121 20 169 60c48 40.667 76.333 92.334 85 155.001h-275v67h354c0.666992 -4 1 -12.667 1 -26c-2 -91.333 -34.667 -168.666 -98 -231.999c-62.667 -62 -140.667 -93 -234 -93c-94.667 0 -173.334 32 -236.001 96
c-63.333 64.667 -95 144.334 -95 239.001c0 96 32.333 175.333 97 238c65.333 64 146.333 96 243 96zM348.002 751.997c-9.33301 9.33301 -14 20.666 -14 33.999s4.66699 24.666 14 33.999s20.666 14 33.999 14s24.333 -4.66699 33 -14
c9.33301 -9.33301 14 -20.666 14 -33.999s-4.66699 -24.666 -14 -33.999c-8.66699 -8.66699 -19.667 -13 -33 -13s-24.666 4.33301 -33.999 13z" />
    <glyph glyph-name="gdotaccent" unicode="&#x121;" horiz-adv-x="475" 
d="M222 -9c-53.333 0 -98 18.999 -134 56.999c-35.333 38.667 -53 86 -53 142s17.667 103.333 53 142c36 38 80.667 57 134 57c54.667 0 100.334 -20.333 137.001 -61v52h62v-419c0 -55.333 -18.667 -101.666 -56 -138.999s-84.333 -56 -141 -56
c-39.333 0 -75.333 9.5 -108 28.5s-56.334 43.833 -71.001 74.5l63 20c10 -18 25.333 -32.5 46 -43.5s43.334 -16.5 68.001 -16.5c38 0 70.333 12.667 97 38c26.667 24.667 40 56 40 94v91c-36.667 -40.667 -82.334 -61 -137.001 -61zM228 324.999
c-36 0 -66.332 -13.0029 -90.999 -39.0029c-24.667 -24.667 -37 -56.667 -37 -96s12.333 -71.666 37 -96.999c25.333 -25.333 55.666 -38 90.999 -38c36.667 0 67.334 12.833 92.001 38.5s37 57.834 37 96.501s-12.333 70.834 -37 96.501s-55.334 38.5 -92.001 38.5z
M234.001 590.996c13.333 0 24.5 -4.66699 33.5 -14s13.5 -20.666 13.5 -33.999s-4.5 -24.5 -13.5 -33.5s-20.167 -13.5 -33.5 -13.5c-14 0 -25.5 4.5 -34.5 13.5s-13.5 20.167 -13.5 33.5s4.5 24.666 13.5 33.999s20.5 14 34.5 14z" />
    <glyph glyph-name="uni0122" unicode="&#x122;" horiz-adv-x="765" 
d="M391 659c63.333 0 121.002 -14.8359 173.002 -44.5029s92 -69.834 120 -120.501l-68 -27c-22.667 38 -53.834 68 -93.501 90s-83.5 33 -131.5 33c-76.667 0 -140.334 -25.333 -191.001 -76s-76 -113.667 -76 -189s24.667 -138.666 74 -189.999
c48.667 -50.667 109.334 -76 182.001 -76c64.667 0 121 20 169 60c48 40.667 76.333 92.334 85 155.001h-275v67h354c0.666992 -4 1 -12.667 1 -26c-2 -91.333 -34.667 -168.666 -98 -231.999c-62.667 -62 -140.667 -93 -234 -93c-94.667 0 -173.334 32 -236.001 96
c-63.333 64.667 -95 144.334 -95 239.001c0 96 32.333 175.333 97 238c65.333 64 146.333 96 243 96zM441.002 -108.003c0 -17.333 -5.66797 -34.332 -17.001 -50.999s-22.5 -29.167 -33.5 -37.5s-16.833 -11.5 -17.5 -9.5l-18 18c2 1.33301 5.33301 4.33301 10 9
c5.33301 4.66699 11 11.667 17 21s8.66699 17 8 23c-10 1.33301 -18.5 6 -25.5 14s-10.5 17.333 -10.5 28c0 11.333 4 20.666 12 27.999s18 11 30 11c12.667 0 23.334 -5 32.001 -15s13 -23 13 -39z" />
    <glyph glyph-name="uni0123" unicode="&#x123;" horiz-adv-x="475" 
d="M222 -9c-53.333 0 -98 18.999 -134 56.999c-35.333 38.667 -53 86 -53 142s17.667 103.333 53 142c36 38 80.667 57 134 57c54.667 0 100.334 -20.333 137.001 -61v52h62v-419c0 -55.333 -18.667 -101.666 -56 -138.999s-84.333 -56 -141 -56
c-39.333 0 -75.333 9.5 -108 28.5s-56.334 43.833 -71.001 74.5l63 20c10 -18 25.333 -32.5 46 -43.5s43.334 -16.5 68.001 -16.5c38 0 70.333 12.667 97 38c26.667 24.667 40 56 40 94v91c-36.667 -40.667 -82.334 -61 -137.001 -61zM228 54.999
c36.667 0 67.335 12.8301 92.002 38.4971s37 57.834 37 96.501s-12.333 70.834 -37 96.501s-55.334 38.5 -92.001 38.5c-36 0 -66.333 -13 -91 -39c-24.667 -24.667 -37 -56.667 -37 -96s12.333 -71.666 37 -96.999c25.333 -25.333 55.666 -38 90.999 -38zM188.001 544.996
c0 13.333 2.99707 26.168 8.99707 38.501s12.167 21.5 18.5 27.5s13.833 12.5 22.5 19.5s13.334 10.833 14.001 11.5l3 1l18 -18c-2 -1.33301 -5.33301 -4.33301 -10 -9c-17.333 -17.333 -25.666 -32 -24.999 -44c10 -1.33301 18.5 -6 25.5 -14s10.5 -17.333 10.5 -28
c2 -18 -6.33301 -30 -25 -36c-20.667 -6.66699 -37.667 -2.33398 -51 12.999c-7.33301 10 -10.666 22.667 -9.99902 38z" />
    <glyph glyph-name="Hcircumflex" unicode="&#x124;" horiz-adv-x="704" 
d="M150 0h-72v650h72v-287h405v287h71v-650h-71v296h-405v-296zM251 732l-30 37l127 108h8l126 -108l-29 -37l-101 75z" />
    <glyph glyph-name="hcircumflex" unicode="&#x125;" horiz-adv-x="459" 
d="M118 219l-0.00195312 -219.001h-64v700h64v-382c28.667 46.667 73.334 70 134.001 70c44.667 0 81.334 -14.333 110.001 -43c29.333 -29.333 44 -65.333 44 -108v-237h-63v220c0 30.667 -10.333 56.334 -31 77.001s-46.334 31 -77.001 31
c-33.333 0 -61.166 -10.5 -83.499 -31.5s-33.5 -46.833 -33.5 -77.5zM84.998 813.999l-101 -75l-30 37l127 108h8l126 -108l-29 -37z" />
    <glyph glyph-name="Hbar" unicode="&#x126;" horiz-adv-x="724" 
d="M636 650v-119h77v-59h-77v-472h-72v295h-405v-295h-71v472h-78v59h78v119h71v-119h405v119h72zM564 362v110h-405v-110h405z" />
    <glyph glyph-name="hbar" unicode="&#x127;" horiz-adv-x="459" 
d="M118 700l-0.00195312 -120.001h135v-58h-135v-204c28.667 46.667 73.334 70 134.001 70c44.667 0 81.334 -14.333 110.001 -43c29.333 -29.333 44 -65.333 44 -108v-237h-63v220c0 30.667 -10.333 56.334 -31 77.001s-46.334 31 -77.001 31
c-33.333 0 -61.166 -10.5 -83.499 -31.5s-33.5 -46.833 -33.5 -77.5v-219h-64v522h-47v58h47v120h64z" />
    <glyph glyph-name="Itilde" unicode="&#x128;" horiz-adv-x="227" 
d="M150 0h-72v650h72v-650zM32 749h-52.002c0 26.667 7.66699 48.667 23 66s35 26 59 26c18.667 0 37.334 -7.66699 56.001 -23s32.334 -23 41.001 -23c10.667 0 19.334 3.66699 26.001 11s10 17.333 10 30h52c0 -27.333 -7.66699 -49.5 -23 -66.5s-35.333 -25.5 -60 -25.5
c-18.667 0 -37.334 7.66699 -56.001 23s-32.667 23 -42 23c-10 0 -18.167 -3.83301 -24.5 -11.5s-9.5 -17.5 -9.5 -29.5z" />
    <glyph glyph-name="itilde" unicode="&#x129;" horiz-adv-x="178" 
d="M121 0h-63v380h63v-380zM8 506h-51.999c0 26.667 7.66699 48.667 23 66s35 26 59 26c19.333 0 37.666 -7.66699 54.999 -23c18.667 -15.333 32.667 -23 42 -23c10 0 18.5 3.83301 25.5 11.5s10.5 17.5 10.5 29.5h52c0 -26.667 -7.83301 -48.667 -23.5 -66
s-35.5 -26 -59.5 -26c-19.333 0 -38.333 7.66699 -57 23c-17.333 15.333 -31 23 -41 23s-18.167 -3.83301 -24.5 -11.5s-9.5 -17.5 -9.5 -29.5z" />
    <glyph glyph-name="Imacron" unicode="&#x12a;" horiz-adv-x="227" 
d="M150 0h-72v650h72v-650zM225 765h-222v56h222v-56z" />
    <glyph glyph-name="imacron" unicode="&#x12b;" horiz-adv-x="172" 
d="M118 0h-64v380h64v-380zM-25 522v55h223v-55h-223z" />
    <glyph glyph-name="Ibreve" unicode="&#x12c;" horiz-adv-x="227" 
d="M150 0h-72v650h72v-650zM-4 855h51.998c0 -19.333 6.33301 -35.333 19 -48s28.334 -19 47.001 -19s34.334 6.5 47.001 19.5s19 28.833 19 47.5h52c0 -33.333 -11.333 -61.333 -34 -84s-50.667 -34 -84 -34s-61.333 11.333 -84 34s-34 50.667 -34 84z" />
    <glyph glyph-name="ibreve" unicode="&#x12d;" horiz-adv-x="172" 
d="M118 0h-64v380h64v-380zM-32 611h51.998c0 -18.667 6.33301 -34.334 19 -47.001s28.334 -19 47.001 -19s34.334 6.33301 47.001 19s19 28.334 19 47.001h52c0 -33.333 -11.333 -61.166 -34 -83.499s-50.667 -33.5 -84 -33.5s-61.333 11.167 -84 33.5
s-34 50.166 -34 83.499z" />
    <glyph glyph-name="Iogonek" unicode="&#x12e;" horiz-adv-x="227" 
d="M43 -103c0 15.333 4.16699 31.666 12.5 48.999s17.5 31 27.5 41l13 13h-18v650h72v-650h-7c-32.667 -30.667 -49 -62 -49 -94c0 -22.667 10 -36.667 30 -42c1.33301 -0.666992 4.33301 -1 9 -1c18 0 33.667 7.33301 47 22l7 7l21 -26l-12 -13
c-5.33301 -7.33301 -16 -15.166 -32 -23.499s-31 -12.5 -45 -12.5c-21.333 0 -39.333 7.66699 -54 23s-22 34.333 -22 57z" />
    <glyph glyph-name="iogonek" unicode="&#x12f;" horiz-adv-x="172" 
d="M89 -183c-21.333 0 -39.334 7.66699 -54.001 23s-22 34.333 -22 57c0 15.333 4.16699 31.666 12.5 48.999s17.5 31 27.5 41l13 13h-12v380h64v-380h-5c-32.667 -30.667 -49 -62 -49 -94c0 -13.333 3.5 -23.833 10.5 -31.5s16.5 -11.5 28.5 -11.5
c16.667 0 32.334 7.33301 47.001 22l6 7l21 -26l-12 -13c-5.33301 -7.33301 -15.833 -15.166 -31.5 -23.499s-30.5 -12.5 -44.5 -12.5zM85.999 503c-17.333 -1.33301 -29.665 5.5 -36.998 20.5s-7.33301 30 0 45s19.666 21.833 36.999 20.5
c25.333 0 39.666 -12.333 42.999 -37c0 -32.667 -14.333 -49 -43 -49z" />
    <glyph glyph-name="Idot" unicode="&#x130;" horiz-adv-x="227" 
d="M150 0h-72v650h72v-650zM114 834c13.333 0 24.5 -4.66699 33.5 -14s13.5 -20.666 13.5 -33.999s-4.5 -24.5 -13.5 -33.5s-20.167 -13.5 -33.5 -13.5c-14 0 -25.5 4.5 -34.5 13.5s-13.5 20.167 -13.5 33.5s4.5 24.666 13.5 33.999s20.5 14 34.5 14z" />
    <glyph glyph-name="dotlessi" unicode="&#x131;" horiz-adv-x="172" 
d="M118 0h-64v380h64v-380z" />
    <glyph glyph-name="IJ" unicode="&#x132;" horiz-adv-x="782" 
d="M150 0h-72v650h72v-650zM710 650l0.00195312 -418.001c0 -68 -23.667 -125.667 -71 -173c-47.333 -46 -106 -69 -176 -69c-43.333 0 -83.333 9.83301 -120 29.5s-66 46.834 -88 81.501l59 38c15.333 -25.333 36.166 -45.333 62.499 -60s55.166 -22 86.499 -22
c50 0 92.333 16.667 127 50c34 34 51 75.667 51 125v418h69z" />
    <glyph glyph-name="ij" unicode="&#x133;" horiz-adv-x="349" 
d="M118 0h-64v380h64v-380zM55 515c-8 8 -12 18.333 -12 31s4 23 12 31s18.333 12 31 12s23 -4 31 -12s12 -18.333 12 -31s-4 -23 -12 -31s-18.333 -12 -31 -12s-23 4 -31 12zM231 380h64.001v-493c0 -31.333 -10.833 -57.833 -32.5 -79.5s-48.5 -32.5 -80.5 -32.5h-37v61
h32c15.333 0 28.166 5.66699 38.499 17s15.5 25.333 15.5 42v485zM232.001 515c-8 8 -12 18.333 -12 31s4 23 12 31s18.333 12 31 12s23 -4 31 -12c8.66699 -8 13 -18.333 13 -31s-4.33301 -23 -13 -31c-8 -8 -18.333 -12 -31 -12s-23 4 -31 12z" />
    <glyph glyph-name="Jcircumflex" unicode="&#x134;" horiz-adv-x="554" 
d="M483 650l0.00292969 -418.001c0 -68 -23.667 -125.667 -71 -173c-46.667 -46 -105.334 -69 -176.001 -69c-43.333 0 -83.5 9.83301 -120.5 29.5s-66.5 46.834 -88.5 81.501l60 38c15.333 -25.333 36.166 -45.333 62.499 -60s55.166 -22 86.499 -22
c50 0 92.333 16.667 127 50c34 34 51 75.667 51 125v418h69zM446.003 806.999l-102 -75l-29 37l126 108h9l126 -108l-30 -37z" />
    <glyph glyph-name="jcircumflex" unicode="&#x135;" horiz-adv-x="177" 
d="M60 380h63.001v-493c0 -31.333 -10.833 -57.833 -32.5 -79.5s-48.5 -32.5 -80.5 -32.5h-37v61h33c15.333 0 28.166 5.66699 38.499 17s15.5 25.333 15.5 42v485zM91.001 564l-101 -75l-29 37l126 108h8l127 -108l-30 -37z" />
    <glyph glyph-name="uni0136" unicode="&#x136;" horiz-adv-x="593" 
d="M483 0l-311 331l293 319h91l-292 -319l311 -331h-92zM78 0v650h72v-650h-72zM262 -93c0 11.333 4.00098 20.667 12.001 28s18 11 30 11c12.667 0 23.334 -5 32.001 -15s13 -23 13 -39c0 -17.333 -5.66699 -34.333 -17 -51s-22.5 -29.167 -33.5 -37.5
s-16.833 -11.5 -17.5 -9.5l-18 18c2 1.33301 5.33301 4.33301 10 9c5.33301 5.33301 11.166 12.5 17.499 21.5s9.16602 16.5 8.49902 22.5c-10.667 1.33301 -19.5 6 -26.5 14s-10.5 17.333 -10.5 28z" />
    <glyph glyph-name="uni0137" unicode="&#x137;" horiz-adv-x="386" 
d="M118 0h-64v700h64v-700zM293 0l-170 196l155 184h78l-155 -184l171 -196h-79zM163 -93c0 11.333 3.83496 20.668 11.502 28.001s17.5 11 29.5 11c13.333 0 24.166 -4.83301 32.499 -14.5s12.5 -22.834 12.5 -39.501c0 -17.333 -5.66699 -34.333 -17 -51
s-22.5 -29.167 -33.5 -37.5s-16.833 -11.5 -17.5 -9.5l-17 18c2 1.33301 5.33301 4.33301 10 9c17.333 17.333 25.666 32 24.999 44c-10 1.33301 -18.5 6 -25.5 14s-10.5 17.333 -10.5 28z" />
    <glyph glyph-name="Lacute" unicode="&#x139;" horiz-adv-x="538" 
d="M508 0h-430v650h72v-584h358v-66zM43 771l148 102l34 -56l-159 -84z" />
    <glyph glyph-name="lacute" unicode="&#x13a;" horiz-adv-x="172" 
d="M118 0h-64v700h64v-700zM34 739l-22 39l148 102l34 -56z" />
    <glyph glyph-name="uni013B" unicode="&#x13b;" horiz-adv-x="538" 
d="M78 0v650h72v-584h358v-66h-430zM265 -93c0 11.333 3.99902 20.667 11.999 28s18 11 30 11c12.667 0 23.334 -5 32.001 -15s13 -23 13 -39c0 -17.333 -5.66699 -34.333 -17 -51s-22.5 -29.167 -33.5 -37.5s-16.833 -11.5 -17.5 -9.5l-18 18
c2 1.33301 5.33301 4.33301 10 9c5.33301 4.66699 11 11.667 17 21s8.66699 17 8 23c-10 1.33301 -18.5 6 -25.5 14s-10.5 17.333 -10.5 28z" />
    <glyph glyph-name="uni013C" unicode="&#x13c;" horiz-adv-x="172" 
d="M118 0h-64v700h64v-700zM130 -108c0 -17.333 -5.66504 -34.3311 -16.998 -50.998s-22.5 -29.167 -33.5 -37.5s-16.833 -11.5 -17.5 -9.5l-17 18c2 1.33301 5.33301 4.33301 10 9c17.333 17.333 25.666 32 24.999 44c-10 1.33301 -18.5 6 -25.5 14s-10.5 17.333 -10.5 28
c0 11.333 3.83301 20.666 11.5 27.999s17.5 11 29.5 11c13.333 0 24.166 -4.83301 32.499 -14.5s12.5 -22.834 12.5 -39.501z" />
    <glyph glyph-name="Lcaron" unicode="&#x13d;" horiz-adv-x="538" 
d="M78 0v650h72v-584h358v-66h-430zM312 620c0 11.333 4.00098 20.835 12.001 28.502s18 11.5 30 11.5c12.667 0 23.167 -4.83301 31.5 -14.5s12.5 -23.167 12.5 -40.5c0 -8.66699 -1.16699 -17 -3.5 -25s-5.5 -15.167 -9.5 -21.5s-8.33301 -12.333 -13 -18
s-9.5 -10.334 -14.5 -14.001s-9.33301 -7 -13 -10s-7.16699 -5.16699 -10.5 -6.5l-4 -3l-17 19c2 1.33301 5.33301 4.33301 10 9c17.333 17.333 25.666 31.666 24.999 42.999c-10 0.666992 -18.5 5.16699 -25.5 13.5s-10.5 17.833 -10.5 28.5z" />
    <glyph glyph-name="lcaron" unicode="&#x13e;" horiz-adv-x="278" 
d="M118 0h-64v700h64v-700zM182 669c-2 18 6.33496 30.3311 25.002 36.998c20.667 6.66699 37.667 2.33398 51 -12.999c7.33301 -10 10.666 -22.667 9.99902 -38c0 -17.333 -5.5 -34.333 -16.5 -51s-22 -29.167 -33 -37.5s-16.833 -11.5 -17.5 -9.5l-18 18
c2 1.33301 5.33301 4.33301 10 9c17.333 17.333 25.666 32 24.999 44c-10 1.33301 -18.5 5.83301 -25.5 13.5s-10.5 16.834 -10.5 27.501z" />
    <glyph glyph-name="Ldot" unicode="&#x13f;" horiz-adv-x="538" 
d="M78 0v650h72v-584h358v-66h-430zM417 291c-8.66699 -8.66699 -19.667 -13 -33 -13s-24.666 4.33301 -33.999 13c-8.66699 9.33301 -13 20.666 -13 33.999s4.33301 24.333 13 33c9.33301 9.33301 20.666 14 33.999 14s24.333 -4.66699 33 -14
c8.66699 -8.66699 13 -19.667 13 -33s-4.33301 -24.666 -13 -33.999z" />
    <glyph glyph-name="ldot" unicode="&#x140;" horiz-adv-x="340" 
d="M118 0h-64v700h64v-700zM222 291c-8.66699 9.33301 -13 20.666 -13 33.999s4.33301 24.333 13 33c9.33301 9.33301 20.666 14 33.999 14s24.333 -4.66699 33 -14c8.66699 -8.66699 13 -19.667 13 -33s-4.33301 -24.666 -13 -33.999
c-8.66699 -8.66699 -19.667 -13 -33 -13s-24.666 4.33301 -33.999 13z" />
    <glyph glyph-name="Lslash" unicode="&#x141;" horiz-adv-x="555" 
d="M95 232l-53 -31l-29 50l82 48v351h71v-310l126 73l29 -51l-155 -89v-207h359v-66h-430v232z" />
    <glyph glyph-name="lslash" unicode="&#x142;" horiz-adv-x="185" 
d="M124 700v-337l61 35v-67l-61 -34v-297h-63v261l-61 -34v66l61 35v372h63z" />
    <glyph glyph-name="Nacute" unicode="&#x143;" horiz-adv-x="706" 
d="M78 0v650h62l420 -526v526h69v-650h-62l-420 525v-525h-69zM461 817l-159 -84l-23 38l148 102z" />
    <glyph glyph-name="nacute" unicode="&#x144;" horiz-adv-x="457" 
d="M118 219v-219.001h-64v380h64v-62c28.667 46.667 73 70 133 70c44 0 80.333 -14.333 109 -43c29.333 -29.333 44 -65.333 44 -108v-237h-63v220c0 30.667 -10.167 56.334 -30.5 77.001s-45.833 31 -76.5 31c-32.667 0 -60.167 -10.333 -82.5 -31s-33.5 -46.667 -33.5 -78
zM340 573.999l-159 -85l-23 39l148 102z" />
    <glyph glyph-name="uni0145" unicode="&#x145;" horiz-adv-x="706" 
d="M147 0h-69v650h62l420 -526v526h69v-650h-62l-420 525v-525zM350 -135c-14.667 0.666992 -25 7.83496 -31 21.502s-5.66699 27.167 1 40.5s18.334 19.666 35.001 18.999c13.333 0 24.333 -4.83301 33 -14.5s13 -22.834 13 -39.501c0 -17.333 -5.66699 -34.333 -17 -51
s-22.5 -29.167 -33.5 -37.5s-16.833 -11.5 -17.5 -9.5l-18 18c2 1.33301 5.33301 4.33301 10 9c17.333 17.333 25.666 32 24.999 44z" />
    <glyph glyph-name="uni0146" unicode="&#x146;" horiz-adv-x="457" 
d="M118 0l-64 -0.000976562v380h64v-62c28.667 46.667 73 70 133 70c44 0 80.333 -14.333 109 -43c29.333 -29.333 44 -65.333 44 -108v-237h-63v220c0 30.667 -10.167 56.334 -30.5 77.001s-45.833 31 -76.5 31c-32.667 0 -60.167 -10.333 -82.5 -31
s-33.5 -46.667 -33.5 -78v-219zM228 -135.001c-14.667 0 -25.1641 7 -31.4971 21s-6 27.833 1 41.5s18.833 19.834 35.5 18.501c13.333 0 24.166 -4.83301 32.499 -14.5s12.5 -22.834 12.5 -39.501c0 -17.333 -5.66699 -34.333 -17 -51s-22.5 -29.167 -33.5 -37.5
s-16.833 -11.5 -17.5 -9.5l-18 18c2 1.33301 5.33301 4.33301 10 9c5.33301 5.33301 11.166 12.5 17.499 21.5s9.16602 16.5 8.49902 22.5z" />
    <glyph glyph-name="Ncaron" unicode="&#x147;" horiz-adv-x="706" 
d="M147 0h-69v650h62l420 -526v526h69v-650h-62l-420 525v-525zM349 733l-126 107l29 37l101 -76l102 76l29 -37l-127 -107h-8z" />
    <glyph glyph-name="ncaron" unicode="&#x148;" horiz-adv-x="457" 
d="M54 0v379.999h64v-62c28.667 46.667 73 70 133 70c44 0 80.333 -14.333 109 -43c29.333 -29.333 44 -65.333 44 -108v-237h-63v220c0 30.667 -10.167 56.334 -30.5 77.001s-45.833 31 -76.5 31c-32.667 0 -60.167 -10.333 -82.5 -31s-33.5 -46.667 -33.5 -78v-219h-64z
M236 488.999h-8l-126 108l29 37l101 -76l102 76l29 -37z" />
    <glyph glyph-name="Eng" unicode="&#x14a;" horiz-adv-x="707" 
d="M560 650h68.001v-646c0 -69.333 -23.333 -127 -70 -173s-105.334 -69 -176.001 -69v67c50 0 92.333 16.667 127 50c34 33.333 51 75 51 125v5l-413 516v-525h-69v650h62l420 -526v526z" />
    <glyph glyph-name="eng" unicode="&#x14b;" horiz-adv-x="457" 
d="M54 0l0.00195312 379.999h64v-63c28.667 48 73 72 133 72c43.333 0 79.666 -14.667 108.999 -44s44 -65.333 44 -108v-350c0 -31.333 -10.667 -57.833 -32 -79.5s-48 -32.5 -80 -32.5h-38v61h33c15.333 0 28.166 5.66699 38.499 17s15.5 25.333 15.5 42v325
c0 30.667 -10.167 56.334 -30.5 77.001s-45.833 31 -76.5 31c-32.667 0 -60.167 -10.333 -82.5 -31s-33.5 -46.667 -33.5 -78v-219h-64z" />
    <glyph glyph-name="Omacron" unicode="&#x14c;" horiz-adv-x="770" 
d="M146 86c-63.333 64.667 -95 144.334 -95 239.001c0 95.333 31.667 174.666 95 237.999c64 64 143.667 96 239 96s174.666 -32 237.999 -96c64 -62.667 96 -142 96 -238c0 -95.333 -32 -175 -96 -239c-63.333 -64 -142.666 -96 -237.999 -96s-175 32 -239 96zM124 325
c0 -75.333 25 -138.666 75 -189.999c50 -50.667 112 -76 186 -76c74.667 0 136.334 25.333 185.001 76c50 51.333 75 114.666 75 189.999s-25 138.333 -75 189c-48.667 50.667 -110.334 76 -185.001 76c-74 0 -136 -25.333 -186 -76s-75 -113.667 -75 -189zM497 765h-223v56
h223v-56z" />
    <glyph glyph-name="omacron" unicode="&#x14d;" horiz-adv-x="466" 
d="M91 48c-37.333 38.667 -56 86 -56 142c0 56.667 18.667 103.667 56 141c38 38 85.333 57 142 57s103.667 -19 141 -57c38 -36.667 57 -83.667 57 -141c0 -56.667 -19 -104 -57 -142c-37.333 -38 -84.333 -57 -141 -57s-104 19 -142 57zM138 286
c-25.333 -25.333 -38.001 -57.333 -38.001 -96c0 -38 12.667 -70.333 38 -97c26.667 -25.333 58.334 -38 95.001 -38c37.333 0 68.666 12.667 93.999 38c25.333 26.667 38 59 38 97c0 38.667 -12.667 70.667 -38 96c-25.333 26 -56.666 39 -93.999 39s-69 -13 -95 -39z
M344.999 522h-223v55h223v-55z" />
    <glyph glyph-name="Obreve" unicode="&#x14e;" horiz-adv-x="770" 
d="M146 86c-63.333 64.667 -95 144.334 -95 239.001c0 95.333 31.667 174.666 95 237.999c64 64 143.667 96 239 96s174.666 -32 237.999 -96c64 -62.667 96 -142 96 -238c0 -95.333 -32 -175 -96 -239c-63.333 -64 -142.666 -96 -237.999 -96s-175 32 -239 96zM124 325
c0 -75.333 25 -138.666 75 -189.999c50 -50.667 112 -76 186 -76c74.667 0 136.334 25.333 185.001 76c50 51.333 75 114.666 75 189.999s-25 138.333 -75 189c-48.667 50.667 -110.334 76 -185.001 76c-74 0 -136 -25.333 -186 -76s-75 -113.667 -75 -189zM268 855h51.998
c0 -19.333 6.16699 -35.333 18.5 -48s27.833 -19 46.5 -19s34.334 6.33301 47.001 19s19 28.667 19 48h52c0 -33.333 -11.167 -61.333 -33.5 -84s-50.5 -34 -84.5 -34c-33.333 0 -61.166 11.333 -83.499 34s-33.5 50.667 -33.5 84z" />
    <glyph glyph-name="obreve" unicode="&#x14f;" horiz-adv-x="466" 
d="M91 48c-37.333 38.667 -56 86 -56 142c0 56.667 18.667 103.667 56 141c38 38 85.333 57 142 57s103.667 -19 141 -57c38 -36.667 57 -83.667 57 -141c0 -56.667 -19 -104 -57 -142c-37.333 -38 -84.333 -57 -141 -57s-104 19 -142 57zM138 286
c-25.333 -25.333 -38.001 -57.333 -38.001 -96c0 -38 12.667 -70.333 38 -97c26.667 -25.333 58.334 -38 95.001 -38c37.333 0 68.666 12.667 93.999 38c25.333 26.667 38 59 38 97c0 38.667 -12.667 70.667 -38 96c-25.333 26 -56.666 39 -93.999 39s-69 -13 -95 -39z
M114.999 611h51.998c0 -18.667 6.33301 -34.334 19 -47.001s28.334 -19 47.001 -19s34.334 6.33301 47.001 19s19 28.334 19 47.001h52c0 -33.333 -11.333 -61.166 -34 -83.499s-50.667 -33.5 -84 -33.5s-61.333 11.167 -84 33.5s-34 50.166 -34 83.499z" />
    <glyph glyph-name="Ohungarumlaut" unicode="&#x150;" horiz-adv-x="770" 
d="M146 86c-63.333 64.667 -95 144.334 -95 239.001c0 95.333 31.667 174.666 95 237.999c64 64 143.667 96 239 96s174.666 -32 237.999 -96c64 -62.667 96 -142 96 -238c0 -95.333 -32 -175 -96 -239c-63.333 -64 -142.666 -96 -237.999 -96s-175 32 -239 96zM124 325
c0 -75.333 25 -138.666 75 -189.999c50 -50.667 112 -76 186 -76c74.667 0 136.334 25.333 185.001 76c50 51.333 75 114.666 75 189.999s-25 138.333 -75 189c-48.667 50.667 -110.334 76 -185.001 76c-74 0 -136 -25.333 -186 -76s-75 -113.667 -75 -189zM305 733l-35 28
l104 132l51 -41zM457 732l-34 30l104 131l50 -41z" />
    <glyph glyph-name="ohungarumlaut" unicode="&#x151;" horiz-adv-x="466" 
d="M91 48c-37.333 38.667 -56 86 -56 142c0 56.667 18.667 103.667 56 141c38 38 85.333 57 142 57s103.667 -19 141 -57c38 -36.667 57 -83.667 57 -141c0 -56.667 -19 -104 -57 -142c-37.333 -38 -84.333 -57 -141 -57s-104 19 -142 57zM138 286
c-25.333 -25.333 -38.001 -57.333 -38.001 -96c0 -38 12.667 -70.333 38 -97c26.667 -25.333 58.334 -38 95.001 -38c37.333 0 68.666 12.667 93.999 38c25.333 26.667 38 59 38 97c0 38.667 -12.667 70.667 -38 96c-25.333 26 -56.666 39 -93.999 39s-69 -13 -95 -39z
M152.999 489l-35 29l104 132l51 -41zM304.999 489l-34 29l103 132l51 -41z" />
    <glyph glyph-name="OE" unicode="&#x152;" horiz-adv-x="1147" 
d="M385 -10c-95.333 0 -175 32 -239 96c-63.333 64.667 -95 144.334 -95 239.001c0 95.333 31.667 174.666 95 237.999c64 64 143.667 96 239 96c54 0 104.167 -11.167 150.5 -33.5s84.833 -53.5 115.5 -93.5v118h454v-67h-382v-220h336v-67h-336v-230h387v-66h-459v118
c-30.667 -40.667 -69.167 -72.167 -115.5 -94.5s-96.5 -33.5 -150.5 -33.5zM124 325c0 -75.333 25 -138.666 75 -189.999c50 -50.667 112 -76 186 -76c74.667 0 136.334 25.333 185.001 76c50 51.333 75 114.666 75 189.999s-25 138.333 -75 189
c-48.667 50.667 -110.334 76 -185.001 76c-74 0 -136 -25.333 -186 -76s-75 -113.667 -75 -189z" />
    <glyph glyph-name="oe" unicode="&#x153;" horiz-adv-x="786" 
d="M233 388c34 0 65.665 -7.83398 94.998 -23.501s53 -36.834 71 -63.501c17.333 27.333 40.5 48.833 69.5 64.5s60.5 23.5 94.5 23.5c55.333 0 101.333 -19 138 -57c36.667 -37.333 55 -84.666 55 -141.999c0 -11.333 -0.333008 -18.666 -1 -21.999h-325
c4.66699 -34 19.834 -62 45.501 -84s56.5 -33 92.5 -33c46.667 0 83.667 18 111 54l61 -19c-17.333 -30 -41 -53.333 -71 -70s-63 -25 -99 -25c-75.333 0 -132.333 29.333 -171 88c-37.333 -58.667 -92.666 -88 -165.999 -88c-56.667 0 -104 19 -142 57
c-37.333 38.667 -56 86 -56 142c0 56.667 18.667 103.667 56 141c38 38 85.333 57 142 57zM137.998 92.999c26.667 -25.333 58.333 -38 95 -38c37.333 0 68.666 12.667 93.999 38c25.333 26.667 38 59 38 97c0 38.667 -12.667 70.667 -38 96
c-25.333 26 -56.666 39 -93.999 39s-69 -13 -95 -39c-25.333 -25.333 -38 -57.333 -38 -96c0 -38 12.667 -70.333 38 -97zM430.997 218.999h261c-6.66699 32 -22.167 58.333 -46.5 79s-52.833 31 -85.5 31s-61 -10.333 -85 -31s-38.667 -47 -44 -79z" />
    <glyph glyph-name="Racute" unicode="&#x154;" horiz-adv-x="631" 
d="M78 650h292c60 0 109.333 -19 148 -57c39.333 -37.333 59 -84.333 59 -141c0 -44 -12.667 -83 -38 -117s-59 -57.667 -101 -71l163 -264h-81l-157 254h-213v-254h-72v650zM370 583l-220.001 0.000976562v-262h220c38.667 0 70.334 12.333 95.001 37
c25.333 25.333 38 56.666 38 93.999c0 36.667 -12.667 67.667 -38 93s-57 38 -95 38zM380.999 817.001l-159 -84l-23 38l148 102z" />
    <glyph glyph-name="racute" unicode="&#x155;" horiz-adv-x="280" 
d="M54 0l0.000976562 380.001h64v-63c29.333 47.333 73.666 71 132.999 71h11v-70c-10 3.33301 -19.333 5 -28 5c-32.667 0 -60.167 -10.333 -82.5 -31s-33.5 -46.334 -33.5 -77.001v-215h-64zM259.001 574.001l-159 -85l-23 39l148 102z" />
    <glyph glyph-name="uni0156" unicode="&#x156;" horiz-adv-x="631" 
d="M370 583l-220.001 0.000976562v-262h220c38.667 0 70.334 12.333 95.001 37c25.333 25.333 38 56.666 38 93.999c0 36.667 -12.667 67.667 -38 93s-57 38 -95 38zM437.999 264.001l163 -264h-81l-157 254h-213v-254h-72v650h292c60 0 109.333 -19 148 -57
c39.333 -37.333 59 -84.333 59 -141c0 -44 -12.667 -83 -38 -117s-59 -57.667 -101 -71zM377.999 -107.999c0 -17.333 -5.66602 -34.332 -16.999 -50.999s-22.5 -29.167 -33.5 -37.5s-16.833 -11.5 -17.5 -9.5l-18 18c2 1.33301 5.33301 4.33301 10 9
c5.33301 5.33301 11.166 12.5 17.499 21.5s9.16602 16.5 8.49902 22.5c-10.667 1.33301 -19.5 6 -26.5 14s-10.5 17.333 -10.5 28c0 11.333 4 20.666 12 27.999s18 11 30 11c12.667 0 23.334 -5 32.001 -15s13 -23 13 -39z" />
    <glyph glyph-name="uni0157" unicode="&#x157;" horiz-adv-x="280" 
d="M118 215l0.000976562 -214.999h-64v380h64v-63c29.333 47.333 73.666 71 132.999 71h11v-70c-10 3.33301 -19.333 5 -28 5c-32.667 0 -60.167 -10.333 -82.5 -31s-33.5 -46.334 -33.5 -77.001zM69.001 -205.999l-17.9971 18c2 1.33301 5.33301 4.33301 10 9
c5.33301 5.33301 11.166 12.5 17.499 21.5s9.16602 16.5 8.49902 22.5c-14.667 0 -25.167 7 -31.5 21s-6 27.833 1 41.5s18.833 19.834 35.5 18.501c13.333 0 24.166 -4.83301 32.499 -14.5s12.5 -22.834 12.5 -39.501c0 -17.333 -5.66699 -34.333 -17 -51
s-22.5 -29.167 -33.5 -37.5s-16.833 -11.5 -17.5 -9.5z" />
    <glyph glyph-name="Rcaron" unicode="&#x158;" horiz-adv-x="631" 
d="M78 650h292c60 0 109.333 -19 148 -57c39.333 -37.333 59 -84.333 59 -141c0 -44 -12.667 -83 -38 -117s-59 -57.667 -101 -71l163 -264h-81l-157 254h-213v-254h-72v650zM370 583l-220.001 0.000976562v-262h220c38.667 0 70.334 12.333 95.001 37
c25.333 25.333 38 56.666 38 93.999c0 36.667 -12.667 67.667 -38 93s-57 38 -95 38zM269.999 733.001l-127 107l30 37l101 -76l101 76l30 -37l-127 -107h-8z" />
    <glyph glyph-name="rcaron" unicode="&#x159;" horiz-adv-x="280" 
d="M118 0l-63.999 0.000976562v380h64v-63c29.333 47.333 73.666 71 132.999 71h11v-70c-10 3.33301 -19.333 5 -28 5c-32.667 0 -60.167 -10.333 -82.5 -31s-33.5 -46.334 -33.5 -77.001v-215zM147.001 489.001l-126 108l29 37l101 -76l102 76l29 -37l-126 -108h-9z" />
    <glyph glyph-name="Sacute" unicode="&#x15a;" horiz-adv-x="575" 
d="M506 514l-71.0029 -20.002c-6 28 -23 51 -51 69s-61 27 -99 27c-42 0 -76.667 -10.333 -104 -31c-28 -20.667 -42 -46.667 -42 -78c0 -24 11 -45.667 33 -65c10.667 -8 24.334 -15.333 41.001 -22l48 -16l58 -16c46.667 -11.333 83.334 -23.666 110.001 -36.999
c60 -26.667 91.667 -74 95 -142c0 -57.333 -22 -104 -66 -140c-43.333 -35.333 -99.333 -53 -168 -53c-60.667 0 -113.334 14.667 -158.001 44c-43.333 29.333 -70.666 66.666 -81.999 111.999l71 21c5.33301 -31.333 23.833 -57.166 55.5 -77.499
s69.834 -30.5 114.501 -30.5c46 0 84.333 11 115 33c31.333 23.333 47 52 47 86c0 30 -12.5 53.5 -37.5 70.5s-63.5 31.833 -115.5 44.5l-49 12l-45 14c-20.667 8 -35.667 14.333 -45 19c-32.667 18.667 -55 36.334 -67 53.001c-17.333 24 -26 52.667 -26 86
c0 54 20 97.667 60 131c41.333 34 93 51 155 51c56 0 104.5 -13.5 145.5 -40.5s66.833 -61.833 77.5 -104.5zM235.997 732.998l-23 38l148 102l34 -56z" />
    <glyph glyph-name="sacute" unicode="&#x15b;" horiz-adv-x="355" 
d="M314 297l-59.002 -11c-3.33301 14 -12.166 25.167 -26.499 33.5s-32.166 12.5 -53.499 12.5c-20.667 0 -38 -4.5 -52 -13.5s-21 -20.5 -21 -34.5c0 -20 13.667 -34.667 41 -44l91 -32c58.667 -20.667 88 -55.667 88 -105c0 -34.667 -13.167 -62 -39.5 -82
s-60.833 -30 -103.5 -30c-40.667 0 -74.167 9.16699 -100.5 27.5s-42.166 42.833 -47.499 73.5l60 10c3.33301 -16.667 13 -30 29 -40s36 -15 60 -15c23.333 0 42.666 5 57.999 15s23 23 23 39c0 22 -16.667 38.667 -50 50l-89 32c-53.333 19.333 -80 51.333 -80 96
c0 34.667 12.5 61.5 37.5 80.5s58.167 28.5 99.5 28.5c37.333 0 68 -8.16699 92 -24.5s38.333 -38.5 43 -66.5zM124.998 489l-23 39l148 102l34 -56z" />
    <glyph glyph-name="Scircumflex" unicode="&#x15c;" horiz-adv-x="575" 
d="M506 514l-71.0029 -20.002c-6 28 -23 51 -51 69s-61 27 -99 27c-42 0 -76.667 -10.333 -104 -31c-28 -20.667 -42 -46.667 -42 -78c0 -24 11 -45.667 33 -65c10.667 -8 24.334 -15.333 41.001 -22l48 -16l58 -16c46.667 -11.333 83.334 -23.666 110.001 -36.999
c60 -26.667 91.667 -74 95 -142c0 -57.333 -22 -104 -66 -140c-43.333 -35.333 -99.333 -53 -168 -53c-60.667 0 -113.334 14.667 -158.001 44c-43.333 29.333 -70.666 66.666 -81.999 111.999l71 21c5.33301 -31.333 23.833 -57.166 55.5 -77.499
s69.834 -30.5 114.501 -30.5c46 0 84.333 11 115 33c31.333 23.333 47 52 47 86c0 30 -12.5 53.5 -37.5 70.5s-63.5 31.833 -115.5 44.5l-49 12l-45 14c-20.667 8 -35.667 14.333 -45 19c-32.667 18.667 -55 36.334 -67 53.001c-17.333 24 -26 52.667 -26 86
c0 54 20 97.667 60 131c41.333 34 93 51 155 51c56 0 104.5 -13.5 145.5 -40.5s66.833 -61.833 77.5 -104.5zM287.997 806.998l-101 -75l-30 37l127 108h8l126 -108l-29 -37z" />
    <glyph glyph-name="scircumflex" unicode="&#x15d;" horiz-adv-x="355" 
d="M314 297l-59.002 -11c-3.33301 14 -12.166 25.167 -26.499 33.5s-32.166 12.5 -53.499 12.5c-20.667 0 -38 -4.5 -52 -13.5s-21 -20.5 -21 -34.5c0 -20 13.667 -34.667 41 -44l91 -32c58.667 -20.667 88 -55.667 88 -105c0 -34.667 -13.167 -62 -39.5 -82
s-60.833 -30 -103.5 -30c-40.667 0 -74.167 9.16699 -100.5 27.5s-42.166 42.833 -47.499 73.5l60 10c3.33301 -16.667 13 -30 29 -40s36 -15 60 -15c23.333 0 42.666 5 57.999 15s23 23 23 39c0 22 -16.667 38.667 -50 50l-89 32c-53.333 19.333 -80 51.333 -80 96
c0 34.667 12.5 61.5 37.5 80.5s58.167 28.5 99.5 28.5c37.333 0 68 -8.16699 92 -24.5s38.333 -38.5 43 -66.5zM175.998 564l-101 -75l-29 37l126 108h9l126 -108l-30 -37z" />
    <glyph glyph-name="Scedilla" unicode="&#x15e;" horiz-adv-x="575" 
d="M50 146l70.998 21c5.33301 -31.333 23.833 -57.166 55.5 -77.499s69.834 -30.5 114.501 -30.5c46 0 84.333 11 115 33c31.333 23.333 47 52 47 86c0 30 -12.5 53.5 -37.5 70.5s-63.5 31.833 -115.5 44.5l-49 12l-45 14c-20.667 8 -35.667 14.333 -45 19
c-32.667 18.667 -55 36.334 -67 53.001c-17.333 24 -26 52.667 -26 86c0 54 20 97.667 60 131c41.333 34 93 51 155 51c56 0 104.5 -13.5 145.5 -40.5s66.833 -61.833 77.5 -104.5l-71 -20c-6 28 -23 51 -51 69s-61 27 -99 27c-42 0 -76.667 -10.333 -104 -31
c-28 -20.667 -42 -46.667 -42 -78c0 -24 11 -45.667 33 -65c10.667 -8 24.334 -15.333 41.001 -22l48 -16l58 -16c46.667 -11.333 83.334 -23.666 110.001 -36.999c60 -26.667 91.667 -74 95 -142c0 -50 -17.5 -92.333 -52.5 -127s-81.167 -55.667 -138.5 -63l-10 -36
c2 -0.666992 4.66699 -1.33398 8 -2.00098s9.16602 -2.83398 17.499 -6.50098s15.666 -7.83398 21.999 -12.501s12.166 -11.5 17.499 -20.5s8 -19.167 8 -30.5c0 -22.667 -9.16699 -41.5 -27.5 -56.5s-41.5 -22.5 -69.5 -22.5c-34.667 0 -63.667 10 -87 30l-11 11l18 33
c16.667 -18.667 39.334 -28 68.001 -28c16 0 29.5 3.33301 40.5 10s16.5 14.667 16.5 24s-6.16699 17.166 -18.5 23.499s-26.166 10.5 -41.499 12.5l-21 2l17 66c-60 2 -110.667 17.333 -152 46c-40.667 28.667 -66.667 65.334 -78 110.001z" />
    <glyph glyph-name="scedilla" unicode="&#x15f;" horiz-adv-x="355" 
d="M31 92l60.0029 10.0039c3.33301 -16.667 13 -30 29 -40s36 -15 60 -15c23.333 0 42.666 5 57.999 15s23 23 23 39c0 22 -16.667 38.667 -50 50l-89 32c-53.333 19.333 -80 51.333 -80 96c0 34.667 12.5 61.5 37.5 80.5s58.167 28.5 99.5 28.5
c37.333 0 68 -8.16699 92 -24.5s38.333 -38.5 43 -66.5l-59 -11c-3.33301 14 -12.166 25.167 -26.499 33.5s-32.166 12.5 -53.499 12.5c-20.667 0 -38 -4.5 -52 -13.5s-21 -20.5 -21 -34.5c0 -20 13.667 -34.667 41 -44l91 -32c58.667 -20.667 88 -55.667 88 -105
c0 -30 -9.83301 -54.5 -29.5 -73.5s-46.834 -31.167 -81.501 -36.5l-9 -36c2 -0.666992 4.66699 -1.33398 8 -2.00098s9.16602 -2.83398 17.499 -6.50098s15.666 -7.83398 21.999 -12.501s12.166 -11.5 17.499 -20.5s8 -19.167 8 -30.5c0 -22.667 -9.33301 -41.5 -28 -56.5
s-42 -22.5 -70 -22.5c-34.667 0 -63.667 10 -87 30l-10 11l18 33c16.667 -18.667 39.334 -28 68.001 -28c16 0 29.5 3.33301 40.5 10s16.5 14.667 16.5 24s-6.33301 17.166 -19 23.499s-26.667 10.5 -42 12.5l-20 2l17 68c-35.333 2.66699 -64.333 13 -87 31
s-36.334 41 -41.001 69z" />
    <glyph glyph-name="Scaron" unicode="&#x160;" horiz-adv-x="575" 
d="M506 514l-71.0029 -20.002c-6 28 -23 51 -51 69s-61 27 -99 27c-42 0 -76.667 -10.333 -104 -31c-28 -20.667 -42 -46.667 -42 -78c0 -24 11 -45.667 33 -65c10.667 -8 24.334 -15.333 41.001 -22l48 -16l58 -16c46.667 -11.333 83.334 -23.666 110.001 -36.999
c60 -26.667 91.667 -74 95 -142c0 -57.333 -22 -104 -66 -140c-43.333 -35.333 -99.333 -53 -168 -53c-60.667 0 -113.334 14.667 -158.001 44c-43.333 29.333 -70.666 66.666 -81.999 111.999l71 21c5.33301 -31.333 23.833 -57.166 55.5 -77.499
s69.834 -30.5 114.501 -30.5c46 0 84.333 11 115 33c31.333 23.333 47 52 47 86c0 30 -12.5 53.5 -37.5 70.5s-63.5 31.833 -115.5 44.5l-49 12l-45 14c-20.667 8 -35.667 14.333 -45 19c-32.667 18.667 -55 36.334 -67 53.001c-17.333 24 -26 52.667 -26 86
c0 54 20 97.667 60 131c41.333 34 93 51 155 51c56 0 104.5 -13.5 145.5 -40.5s66.833 -61.833 77.5 -104.5zM287.997 800.998l101 76l30 -37l-127 -107h-8l-127 107l30 37z" />
    <glyph glyph-name="scaron" unicode="&#x161;" horiz-adv-x="355" 
d="M314 297l-59.002 -11c-3.33301 14 -12.166 25.167 -26.499 33.5s-32.166 12.5 -53.499 12.5c-20.667 0 -38 -4.5 -52 -13.5s-21 -20.5 -21 -34.5c0 -20 13.667 -34.667 41 -44l91 -32c58.667 -20.667 88 -55.667 88 -105c0 -34.667 -13.167 -62 -39.5 -82
s-60.833 -30 -103.5 -30c-40.667 0 -74.167 9.16699 -100.5 27.5s-42.166 42.833 -47.499 73.5l60 10c3.33301 -16.667 13 -30 29 -40s36 -15 60 -15c23.333 0 42.666 5 57.999 15s23 23 23 39c0 22 -16.667 38.667 -50 50l-89 32c-53.333 19.333 -80 51.333 -80 96
c0 34.667 12.5 61.5 37.5 80.5s58.167 28.5 99.5 28.5c37.333 0 68 -8.16699 92 -24.5s38.333 -38.5 43 -66.5zM175.998 558l102 76l29 -37l-126 -108h-9l-126 108l29 37z" />
    <glyph glyph-name="uni0162" unicode="&#x162;" horiz-adv-x="625" 
d="M277 0v583h-251v67h574v-67h-252v-583h-71zM310 -135c-10 1.33301 -18.498 6.00195 -25.498 14.002s-10.5 17.333 -10.5 28c0 11.333 3.83301 20.666 11.5 27.999s17.5 11 29.5 11c13.333 0 24.166 -4.83301 32.499 -14.5s12.5 -22.834 12.5 -39.501
c0 -17.333 -5.66699 -34.333 -17 -51s-22.5 -29.167 -33.5 -37.5s-16.833 -11.5 -17.5 -9.5l-17 18c2 1.33301 5.33301 4.33301 10 9c17.333 17.333 25.666 32 24.999 44z" />
    <glyph glyph-name="uni0163" unicode="&#x163;" horiz-adv-x="277" 
d="M13 324l0.000976562 56h61v83h63v-83h111v-56h-111v-204c0 -16.667 5.16699 -30.667 15.5 -42s23.166 -17 38.499 -17h57v-61h-61c-32 -0 -58.833 10.833 -80.5 32.5s-32.5 48.5 -32.5 80.5v211h-61zM209.001 -108c0 -17.333 -5.66602 -34.332 -16.999 -50.999
s-22.5 -29.167 -33.5 -37.5s-16.833 -11.5 -17.5 -9.5l-18 18c2 1.33301 5.33301 4.33301 10 9c5.33301 5.33301 11.166 12.5 17.499 21.5s9.16602 16.5 8.49902 22.5c-10.667 1.33301 -19.5 6 -26.5 14s-10.5 17.333 -10.5 28c0 11.333 4 20.666 12 27.999s18 11 30 11
c12.667 0 23.334 -5 32.001 -15s13 -23 13 -39z" />
    <glyph glyph-name="Tcaron" unicode="&#x164;" horiz-adv-x="625" 
d="M26 650h574v-67h-252v-583h-71v583h-251v67zM309 733l-127 107l30 37l101 -76l101 76l30 -37l-127 -107h-8z" />
    <glyph glyph-name="tcaron" unicode="&#x165;" horiz-adv-x="297" 
d="M13 324l0.000976562 56h61v82h63v-82h111v-56h-111v-204c0 -16.667 5.16699 -30.667 15.5 -42s23.166 -17 38.499 -17h57v-61h-61c-32 -0 -58.833 10.833 -80.5 32.5s-32.5 48.167 -32.5 79.5v212h-61zM285.001 583c0 -17.333 -5.66797 -34.332 -17.001 -50.999
s-22.5 -29.167 -33.5 -37.5s-16.833 -11.5 -17.5 -9.5l-18 18c2 1.33301 5.33301 4.33301 10 9c5.33301 4.66699 11 11.667 17 21s8.66699 17 8 23c-10 1.33301 -18.5 6 -25.5 14s-10.5 17.333 -10.5 28c0 11.333 4 20.666 12 27.999s18 11 30 11
c12.667 0 23.334 -5 32.001 -15s13 -23 13 -39z" />
    <glyph glyph-name="Tbar" unicode="&#x166;" horiz-adv-x="626" 
d="M479 294h-131v-294h-71v294h-131v59h131v230h-252v67h575v-67h-252v-230h131v-59z" />
    <glyph glyph-name="tbar" unicode="&#x167;" horiz-adv-x="277" 
d="M13 324l0.000976562 56h61v83h63v-83h111v-56h-111v-94h77v-58h-77v-52c0 -16.667 5.16699 -30.667 15.5 -42s23.166 -17 38.499 -17h57v-61h-61c-32 -0 -58.833 10.833 -80.5 32.5s-32.5 48.5 -32.5 80.5v59h-51v58h51v94h-61z" />
    <glyph glyph-name="Utilde" unicode="&#x168;" horiz-adv-x="684" 
d="M544 260l-0.000976562 390h72v-390c0 -76.667 -26.333 -141 -79 -193c-52.667 -51.333 -117.667 -77 -195 -77s-142.666 25.667 -195.999 77c-52 52 -78 116.333 -78 193v390h71v-390c0 -58 19.333 -106.333 58 -145s87 -58 145 -58s106 19.333 144 58
c38.667 38.667 58 87 58 145zM260.999 749h-51.998c0 26.667 7.66699 48.667 23 66s35 26 59 26c18 0 36.333 -7.66699 55 -23s32.667 -23 42 -23c10 0 18.5 3.83301 25.5 11.5s10.5 17.5 10.5 29.5h52c0 -26.667 -7.83301 -48.667 -23.5 -66s-35.834 -26 -60.501 -26
c-18.667 0 -37.334 7.66699 -56.001 23c-17.333 15.333 -31 23 -41 23c-10.667 0 -19 -3.83301 -25 -11.5s-9 -17.5 -9 -29.5z" />
    <glyph glyph-name="utilde" unicode="&#x169;" horiz-adv-x="457" 
d="M53 143l0.00195312 237.001h63v-220c0 -30.667 10.167 -56.334 30.5 -77.001s45.833 -31 76.5 -31c33.333 0 61.166 10.5 83.499 31.5s33.5 46.833 33.5 77.5v219h63v-380h-63v63c-29.333 -48 -74 -72 -134 -72c-44.667 0 -81.334 14.333 -110.001 43s-43 65 -43 109z
M146.002 506.001h-52.001c0 26.667 7.66699 48.667 23 66s35 26 59 26c18.667 0 37.334 -7.66699 56.001 -23s32.334 -23 41.001 -23c10 0 18.5 3.83301 25.5 11.5s10.5 17.5 10.5 29.5h52c0 -27.333 -7.66699 -49.5 -23 -66.5s-35.333 -25.5 -60 -25.5
c-18.667 0 -37.334 7.66699 -56.001 23s-32.667 23 -42 23c-10 0 -18.167 -3.83301 -24.5 -11.5s-9.5 -17.5 -9.5 -29.5z" />
    <glyph glyph-name="Umacron" unicode="&#x16a;" horiz-adv-x="684" 
d="M544 260l-0.000976562 390h72v-390c0 -76.667 -26.333 -141 -79 -193c-52.667 -51.333 -117.667 -77 -195 -77s-142.666 25.667 -195.999 77c-52 52 -78 116.333 -78 193v390h71v-390c0 -58 19.333 -106.333 58 -145s87 -58 145 -58s106 19.333 144 58
c38.667 38.667 58 87 58 145zM453.999 765h-223v56h223v-56z" />
    <glyph glyph-name="umacron" unicode="&#x16b;" horiz-adv-x="457" 
d="M206 -9c-44.667 0 -81.332 14.334 -109.999 43.001s-43 65 -43 109v237h63v-220c0 -30.667 10.167 -56.334 30.5 -77.001s45.833 -31 76.5 -31c33.333 0 61.166 10.5 83.499 31.5s33.5 46.833 33.5 77.5v219h63v-380h-63v63c-29.333 -48 -74 -72 -134 -72z
M116.002 522.001v55h223v-55h-223z" />
    <glyph glyph-name="Ubreve" unicode="&#x16c;" horiz-adv-x="684" 
d="M544 260l-0.000976562 390h72v-390c0 -76.667 -26.333 -141 -79 -193c-52.667 -51.333 -117.667 -77 -195 -77s-142.666 25.667 -195.999 77c-52 52 -78 116.333 -78 193v390h71v-390c0 -58 19.333 -106.333 58 -145s87 -58 145 -58s106 19.333 144 58
c38.667 38.667 58 87 58 145zM223.999 855h51.998c0 -18.667 6.33301 -34.5 19 -47.5s28.334 -19.5 47.001 -19.5s34.334 6.33301 47.001 19s19 28.667 19 48h52c0 -33.333 -11.333 -61.333 -34 -84s-50.667 -34 -84 -34s-61.333 11.333 -84 34s-34 50.667 -34 84z" />
    <glyph glyph-name="ubreve" unicode="&#x16d;" horiz-adv-x="457" 
d="M53 143l0.00195312 237.001h63v-220c0 -30.667 10.167 -56.334 30.5 -77.001s45.833 -31 76.5 -31c33.333 0 61.166 10.5 83.499 31.5s33.5 46.833 33.5 77.5v219h63v-380h-63v63c-29.333 -48 -74 -72 -134 -72c-44.667 0 -81.334 14.333 -110.001 43s-43 65 -43 109z
M110.002 611.001h51.998c0 -18.667 6.33301 -34.334 19 -47.001s28.334 -19 47.001 -19s34.334 6.33301 47.001 19s19 28.334 19 47.001h52c0 -33.333 -11.333 -61.166 -34 -83.499s-50.667 -33.5 -84 -33.5s-61.333 11.167 -84 33.5s-34 50.166 -34 83.499z" />
    <glyph glyph-name="Uring" unicode="&#x16e;" horiz-adv-x="684" 
d="M544 260l-0.000976562 390h72v-390c0 -76.667 -26.333 -141 -79 -193c-52.667 -51.333 -117.667 -77 -195 -77s-142.666 25.667 -195.999 77c-52 52 -78 116.333 -78 193v390h71v-390c0 -58 19.333 -106.333 58 -145s87 -58 145 -58s106 19.333 144 58
c38.667 38.667 58 87 58 145zM247.999 829c0 26.667 9 49 27 67s40.333 27 67 27s49 -9 67 -27s27 -40.333 27 -67c0 -27.333 -9 -50 -27 -68s-40.333 -27 -67 -27s-49 9 -67 27s-27 40.667 -27 68zM295.999 829c0 -13.333 4.5 -24.5 13.5 -33.5s19.833 -13.5 32.5 -13.5
s23.5 4.5 32.5 13.5s13.5 20.167 13.5 33.5c0 12.667 -4.33301 23.5 -13 32.5s-19.667 13.5 -33 13.5s-24.333 -4.5 -33 -13.5s-13 -19.833 -13 -32.5z" />
    <glyph glyph-name="uring" unicode="&#x16f;" horiz-adv-x="457" 
d="M206 -9c-44.667 0 -81.332 14.334 -109.999 43.001s-43 65 -43 109v237h63v-220c0 -30.667 10.167 -56.334 30.5 -77.001s45.833 -31 76.5 -31c33.333 0 61.166 10.5 83.499 31.5s33.5 46.833 33.5 77.5v219h63v-380h-63v63c-29.333 -48 -74 -72 -134 -72z
M295.002 518.001c-18 -18 -40.333 -27 -67 -27s-49 8.66699 -67 26c-18 18 -27 40.667 -27 68s9 50 27 68s40.333 27 67 27s49 -9.33301 67 -28c18 -18 27 -40.333 27 -67s-9 -49 -27 -67zM261.002 617.001c-8.66699 9.33301 -19.667 14 -33 14s-24.333 -4.66699 -33 -14
c-8.66699 -8.66699 -13 -19.334 -13 -32.001s4.33301 -23.667 13 -33c8.66699 -8.66699 19.667 -13 33 -13s24.333 4.33301 33 13c8.66699 9.33301 13 20.333 13 33s-4.33301 23.334 -13 32.001z" />
    <glyph glyph-name="Uhungarumlaut" unicode="&#x170;" horiz-adv-x="684" 
d="M544 260l-0.000976562 390h72v-390c0 -76.667 -26.333 -141 -79 -193c-52.667 -51.333 -117.667 -77 -195 -77s-142.666 25.667 -195.999 77c-52 52 -78 116.333 -78 193v390h71v-390c0 -58 19.333 -106.333 58 -145s87 -58 145 -58s106 19.333 144 58
c38.667 38.667 58 87 58 145zM261.999 733l-35 28l104 132l51 -41zM413.999 732l-34 30l103 131l51 -41z" />
    <glyph glyph-name="uhungarumlaut" unicode="&#x171;" horiz-adv-x="457" 
d="M53 143l0.00195312 237.001h63v-220c0 -30.667 10.167 -56.334 30.5 -77.001s45.833 -31 76.5 -31c33.333 0 61.166 10.5 83.499 31.5s33.5 46.833 33.5 77.5v219h63v-380h-63v63c-29.333 -48 -74 -72 -134 -72c-44.667 0 -81.334 14.333 -110.001 43s-43 65 -43 109z
M420.002 609.001l-121 -120l-34 29l104 132zM147.002 489.001l-34 29l104 132l51 -41z" />
    <glyph glyph-name="Uogonek" unicode="&#x172;" horiz-adv-x="684" 
d="M68 260v389.998h71v-390c0 -58 19.333 -106.333 58 -145s87 -58 145 -58s106 19.333 144 58c38.667 38.667 58 87 58 145v390h72v-390c0 -65.333 -20 -122.666 -60 -171.999c-39.333 -48 -91 -78.667 -155 -92c-30 -33.333 -45 -63.333 -45 -90
c0 -13.333 3.5 -23.833 10.5 -31.5s16.5 -11.5 28.5 -11.5c18 0 33.667 7.33301 47 22l7 7l21 -26l-12 -13c-5.33301 -7.33301 -15.833 -15.166 -31.5 -23.499s-30.5 -12.5 -44.5 -12.5c-22 0 -40.333 7.66699 -55 23s-22 34.333 -22 57c0 31.333 14.333 62.333 43 93
c-80 0 -146.667 25 -200 75c-53.333 51.333 -80 116.333 -80 195z" />
    <glyph glyph-name="uogonek" unicode="&#x173;" horiz-adv-x="457" 
d="M53 143l0.00292969 237h63v-220c0 -30.667 10.167 -56.334 30.5 -77.001s45.833 -31 76.5 -31c33.333 0 61.166 10.5 83.499 31.5s33.5 46.833 33.5 77.5v219h63v-380h-7c-33.333 -31.333 -50 -62.666 -50 -93.999c0 -13.333 3.66699 -23.833 11 -31.5s17 -11.5 29 -11.5
c17.333 0 32.666 7.33301 45.999 22l7 7l21 -26l-12 -13c-5.33301 -7.33301 -15.833 -15.166 -31.5 -23.499s-30.5 -12.5 -44.5 -12.5c-21.333 0 -39.333 7.66699 -54 23s-22 34.333 -22 57c0 16 4.16699 32.667 12.5 50s17.5 30.666 27.5 39.999l13 13h-9v63
c-29.333 -48 -74 -72 -134 -72c-44.667 0 -81.334 14.333 -110.001 43s-43 65 -43 109z" />
    <glyph glyph-name="Wcircumflex" unicode="&#x174;" horiz-adv-x="945" 
d="M299 0h-56l-225 650h73l179 -535l174 535h56l176 -535l178 535h73l-224 -650h-56l-174 526zM371 732l-29 37l126 108h9l126 -108l-30 -37l-101 75z" />
    <glyph glyph-name="wcircumflex" unicode="&#x175;" horiz-adv-x="573" 
d="M140 0l-128 380h64l92 -284l91 284h55l92 -283l92 283h63l-129 -380h-55l-90 274l-91 -274h-56zM286 564l-101 -75l-29 37l126 108h8l126 -108l-29 -37z" />
    <glyph glyph-name="Ycircumflex" unicode="&#x176;" horiz-adv-x="618" 
d="M273 0v263l-255 387h82l208 -318l209 318h83l-256 -384v-266h-71zM208 732l-30 37l127 108h8l126 -108l-29 -37l-101 75z" />
    <glyph glyph-name="ycircumflex" unicode="&#x177;" horiz-adv-x="393" 
d="M163 10l-151 370h65l118 -293l121 293h66l-203 -483c-17.333 -42 -38 -72.833 -62 -92.5s-53.333 -29.5 -88 -29.5h-10v60h10c40.667 0 72.667 27.667 96 83zM96 489l-30 37l127 108h8l126 -108l-29 -37l-101 75z" />
    <glyph glyph-name="Ydieresis" unicode="&#x178;" horiz-adv-x="618" 
d="M273 263l-255 387h82l208 -318l209 318h83l-256 -384v-266h-71v263zM220 832c18 0.666992 30.833 -6.83203 38.5 -22.499s7.66699 -31.334 0 -47.001s-20.5 -22.834 -38.5 -21.501c-13.333 0 -24.333 4.33301 -33 13s-13 19.334 -13 32.001
c0 13.333 4.33301 24.333 13 33s19.667 13 33 13zM399 832.001c12.667 0 23.167 -4.33203 31.5 -12.999s12.5 -19.667 12.5 -33c0 -12.667 -4.16699 -23.334 -12.5 -32.001s-18.833 -13 -31.5 -13c-18.667 -2 -32 5 -40 21s-8 32 0 48s21.333 23.333 40 22z" />
    <glyph glyph-name="Zacute" unicode="&#x179;" horiz-adv-x="598" 
d="M559 66v-66h-515v55l413 528h-411v67h510v-55l-412 -529h415zM409 817l-159 -84l-23 38l148 102z" />
    <glyph glyph-name="zacute" unicode="&#x17a;" horiz-adv-x="373" 
d="M343 58v-58h-312v49l222 272h-218v59h304v-49l-222 -273h226zM135 489l-22 39l147 102l35 -56z" />
    <glyph glyph-name="Zdotaccent" unicode="&#x17b;" horiz-adv-x="598" 
d="M559 0h-515v55l413 528h-411v67h510v-55l-412 -529h415v-66zM267 752c-8.66699 9.33301 -13 20.666 -13 33.999s4.33301 24.666 13 33.999c9.33301 9.33301 20.666 14 33.999 14s24.666 -4.66699 33.999 -14s14 -20.666 14 -33.999s-4.66699 -24.666 -14 -33.999
c-9.33301 -8.66699 -20.666 -13 -33.999 -13s-24.666 4.33301 -33.999 13z" />
    <glyph glyph-name="zdotaccent" unicode="&#x17c;" horiz-adv-x="373" 
d="M31 0v49l222 272h-218v59h304v-49l-222 -273h226v-58h-312zM187 496c-14 0 -25.5 4.5 -34.5 13.5s-13.5 20.167 -13.5 33.5s4.5 24.666 13.5 33.999s20.5 14 34.5 14c13.333 0 24.5 -4.66699 33.5 -14s13.5 -20.666 13.5 -33.999s-4.5 -24.5 -13.5 -33.5
s-20.167 -13.5 -33.5 -13.5z" />
    <glyph glyph-name="Zcaron" unicode="&#x17d;" horiz-adv-x="598" 
d="M559 0h-515v55l413 528h-411v67h510v-55l-412 -529h415v-66zM305 733h-8l-126 107l29 37l101 -76l102 76l29 -37z" />
    <glyph glyph-name="zcaron" unicode="&#x17e;" horiz-adv-x="373" 
d="M343 58v-58h-312v49l222 272h-218v59h304v-49l-222 -273h226zM191 489h-8l-127 108l30 37l101 -76l101 76l30 -37z" />
    <glyph glyph-name="uni018F" unicode="&#x18f;" horiz-adv-x="765" 
d="M385 659c95.333 0 174.666 -31.999 237.999 -95.999c64 -62.667 96 -142 96 -238c0 -95.333 -32 -175 -96 -239c-63.333 -64 -142.666 -96 -237.999 -96c-94.667 0 -174 32 -238 96s-96 143.667 -96 239c0 2 0.666992 13 2 33h590
c-7.33301 67.333 -35 122.666 -83 165.999c-48 44 -106.333 66 -175 66c-85.333 0 -152.666 -31.667 -201.999 -95l-69 31c30.667 42 69.667 74.667 117 98s98.666 35 153.999 35zM643 291.001h-515.999c7.33301 -67.333 35 -123 83 -167
c49.333 -43.333 107.666 -65 174.999 -65s125.333 21.667 174 65c48.667 44 76.667 99.667 84 167z" />
    <glyph glyph-name="florin" unicode="&#x192;" horiz-adv-x="261" 
d="M-51 -225h-50l11 62h45c16 0 30 5.5 42 16.5s19.667 24.833 23 41.5l76 429h-64l10 56h64l36 208c5.33301 31.333 20.666 57.666 45.999 78.999c26 22 55 33 87 33h51l-11 -62h-46c-15.333 0 -29.166 -5.5 -41.499 -16.5s-20.166 -24.833 -23.499 -41.5l-35 -200h100
l-10 -56h-100l-77 -437c-5.33301 -31.333 -21 -57.666 -47 -78.999c-24.667 -22 -53.334 -33 -86.001 -33z" />
    <glyph glyph-name="uni01DD" unicode="&#x1dd;" horiz-adv-x="456" 
d="M31 212l326 0.000976562c-5.33301 34 -20.666 62 -45.999 84s-56 33 -92 33c-48 0 -85 -18 -111 -54l-61 19c37.333 62.667 94.666 94 171.999 94c58 0 106 -19 144 -57c38.667 -36.667 58 -83.667 58 -141c0 -56 -18.667 -103.333 -56 -142
c-36.667 -38 -83.334 -57 -140.001 -57c-55.333 0 -101.666 19 -138.999 57c-37.333 38.667 -56 86 -56 142c0 11.333 0.333008 18.666 1 21.999zM356 161.001h-260.999c6 -32 21.167 -58.333 45.5 -79s53.166 -31 86.499 -31c32 0 60 10.333 84 31s39 47 45 79z" />
    <glyph glyph-name="Aringacute" unicode="&#x1fa;" horiz-adv-x="667" 
d="M160 153l-67 -153h-75l283 639c-18 6.66699 -32.667 18.167 -44 34.5s-17 34.833 -17 55.5c0 26.667 9 49 27 67s40.333 27 67 27c30 0 54.667 -11.667 74 -35l128 88l34 -56l-143 -76c0.666992 -2 1 -7 1 -15c0 -20.667 -5.66699 -39.167 -17 -55.5
s-26 -27.833 -44 -34.5l282 -639h-75l-67 153h-347zM478 219l-144 328l-144 -328h288zM380 729c0 12.667 -4.33301 23.5 -13 32.5s-19.667 13.5 -33 13.5s-24.333 -4.5 -33 -13.5s-13 -19.833 -13 -32.5c0 -13.333 4.5 -24.5 13.5 -33.5s19.833 -13.5 32.5 -13.5
s23.5 4.5 32.5 13.5s13.5 20.167 13.5 33.5z" />
    <glyph glyph-name="aringacute" unicode="&#x1fb;" horiz-adv-x="476" 
d="M222 388c54.667 0 100 -20 136 -60v52h63v-380h-63v51c-36 -40 -81.333 -60 -136 -60c-53.333 0 -98 19 -134 57c-35.333 38.667 -53 86 -53 142c0 56.667 17.667 103.667 53 141c36 38 80.667 57 134 57zM229 55c35.333 0 65.666 12.6699 90.999 38.0029
c24.667 25.333 37 57.666 37 96.999s-12.333 71.333 -37 96c-25.333 26 -55.666 39 -90.999 39c-36.667 0 -67.334 -12.833 -92.001 -38.5s-37 -57.834 -37 -96.501s12.333 -70.834 37 -96.501s55.334 -38.5 92.001 -38.5zM240 680.003c25.333 0 46.667 -8.33301 64 -25
l127 88l34 -56l-136 -72c3.33301 -11.333 5 -21.333 5 -30c0 -26.667 -9 -49 -27 -67s-40.333 -27 -67 -27s-49 8.66699 -67 26c-18 18 -27 40.667 -27 68s9 50 27 68s40.333 27 67 27zM207.001 617.003c-8.66699 -8.66699 -13 -19.334 -13 -32.001s4.33301 -23.667 13 -33
c8.66699 -8.66699 19.667 -13 33 -13s24.333 4.33301 33 13c8.66699 9.33301 13 20.333 13 33s-4.33301 23.334 -13 32.001c-8.66699 9.33301 -19.667 14 -33 14s-24.333 -4.66699 -33 -14z" />
    <glyph glyph-name="AEacute" unicode="&#x1fc;" horiz-adv-x="904" 
d="M99 0h-81l402 650h443v-67h-340v-220h293v-67h-293v-230h344v-66h-415v153h-259zM233 219h219v356zM606 817l-159 -84l-23 38l148 102z" />
    <glyph glyph-name="aeacute" unicode="&#x1fd;" horiz-adv-x="780" 
d="M222 -9c-53.333 0 -97.999 18.999 -133.999 56.999c-35.333 38.667 -53 86 -53 142c0 56.667 17.667 103.667 53 141c36 38 80.667 57 134 57c54.667 0 100 -20 136 -60v52h63v-54c36.667 42 83.334 63 140.001 63c53.333 0 98 -19 134 -57
c36.667 -37.333 55 -84.666 55 -141.999c0 -8 -0.666992 -15.333 -2 -22h-325c5.33301 -34 20.666 -62 45.999 -84s56 -33 92 -33c48 0 85 18 111 54l61 -19c-16.667 -30 -39.5 -53.333 -68.5 -70s-61.5 -25 -97.5 -25c-60.667 0 -109.334 21.333 -146.001 64v-55h-63v51
c-36 -40 -81.333 -60 -136 -60zM229.001 54.999c35.333 0 65.666 12.6699 90.999 38.0029c24.667 25.333 37 57.666 37 96.999s-12.333 71.333 -37 96c-25.333 26 -55.666 39 -90.999 39c-36.667 0 -67.334 -12.833 -92.001 -38.5s-37 -57.834 -37 -96.501
s12.333 -70.834 37 -96.501s55.334 -38.5 92.001 -38.5zM424.001 219.002h260.999c-6 32 -21.167 58.333 -45.5 79s-53.166 31 -86.499 31c-32 0 -60 -10.333 -84 -31s-39 -47 -45 -79zM493 574.002l-159 -85l-23 39l148 102z" />
    <glyph glyph-name="Oslashacute" unicode="&#x1fe;" horiz-adv-x="770" 
d="M138 22l31 44.001c-37.333 30.667 -66.333 68.5 -87 113.5s-31 93.5 -31 145.5c0 95.333 31.667 174.666 95 237.999c64 64 143.667 96 239 96c61.333 0 117.666 -14.667 168.999 -44l31 44l47 -33l-30 -43c78 -64.667 117 -150.667 117 -258
c0 -95.333 -32 -175 -96 -239c-63.333 -64 -142.666 -96 -237.999 -96c-60.667 0 -116.667 14.333 -168 43l-31 -44zM560 523.001l-302 -431.999c39.333 -21.333 81.666 -32 126.999 -32c74.667 0 136.334 25.333 185.001 76c50 51.333 75 114.666 75 189.999
c0 82 -28.333 148 -85 198zM211 126.002l303 431c-38 22 -81 33 -129 33c-74 0 -136 -25.333 -186 -76s-75 -113.667 -75 -189c0 -82 29 -148.333 87 -199zM334 733.002l-23 38l148 102l34 -56z" />
    <glyph glyph-name="oslashacute" unicode="&#x1ff;" horiz-adv-x="466" 
d="M233 389c31.333 0 61 -7.00098 89 -21.001l15 21l47 -34l-14 -20c40.667 -36.667 61 -85 61 -145c0 -56.667 -19 -104 -57 -142c-37.333 -38 -84.333 -57 -141 -57c-31.333 0 -61 7 -89 21l-14 -21l-49 33l15 20c-40.667 38.667 -61 87.334 -61 146.001
c0 56 18.667 103.333 56 142c38 38 85.333 57 142 57zM331 278.999l-149 -213.002c16.667 -7.33301 33.667 -11 51 -11c38 0 69.5 12.833 94.5 38.5s37.5 57.834 37.5 96.501c0 36.667 -11.333 66.334 -34 89.001zM135 99.9971l149 213c-14.667 8 -31.667 12 -51 12
c-37.333 0 -69 -13 -95 -39c-25.333 -25.333 -38 -57.333 -38 -96c0 -34.667 11.667 -64.667 35 -90zM181 488.997l-22 39l148 102l34 -56z" />
    <glyph glyph-name="uni0218" unicode="&#x218;" horiz-adv-x="575" 
d="M506 514l-71.0029 -20.002c-6 28 -23 51 -51 69s-61 27 -99 27c-42 0 -76.667 -10.333 -104 -31c-28 -20.667 -42 -46.667 -42 -78c0 -24 11 -45.667 33 -65c10.667 -8 24.334 -15.333 41.001 -22l48 -16l58 -16c46.667 -11.333 83.334 -23.666 110.001 -36.999
c60 -26.667 91.667 -74 95 -142c0 -57.333 -22 -104 -66 -140c-43.333 -35.333 -99.333 -53 -168 -53c-60.667 0 -113.334 14.667 -158.001 44c-43.333 29.333 -70.666 66.666 -81.999 111.999l71 21c5.33301 -31.333 23.833 -57.166 55.5 -77.499
s69.834 -30.5 114.501 -30.5c46 0 84.333 11 115 33c31.333 23.333 47 52 47 86c0 30 -12.5 53.5 -37.5 70.5s-63.5 31.833 -115.5 44.5l-49 12l-45 14c-20.667 8 -35.667 14.333 -45 19c-32.667 18.667 -55 36.334 -67 53.001c-17.333 24 -26 52.667 -26 86
c0 54 20 97.667 60 131c41.333 34 93 51 155 51c56 0 104.5 -13.5 145.5 -40.5s66.833 -61.833 77.5 -104.5zM355.997 -108.002c0 -17.333 -5.49902 -34.332 -16.499 -50.999s-22 -29.167 -33 -37.5s-16.833 -11.5 -17.5 -9.5l-18 18c2 1.33301 5.33301 4.33301 10 9
c17.333 17.333 25.666 32 24.999 44c-14.667 0.666992 -25 7.83398 -31 21.501s-5.66699 27.167 1 40.5s18.334 19.666 35.001 18.999c13.333 0 24.166 -4.83301 32.499 -14.5s12.5 -22.834 12.5 -39.501z" />
    <glyph glyph-name="uni0219" unicode="&#x219;" horiz-adv-x="355" 
d="M314 297l-59.002 -11c-3.33301 14 -12.166 25.167 -26.499 33.5s-32.166 12.5 -53.499 12.5c-20.667 0 -38 -4.5 -52 -13.5s-21 -20.5 -21 -34.5c0 -20 13.667 -34.667 41 -44l91 -32c58.667 -20.667 88 -55.667 88 -105c0 -34.667 -13.167 -62 -39.5 -82
s-60.833 -30 -103.5 -30c-40.667 0 -74.167 9.16699 -100.5 27.5s-42.166 42.833 -47.499 73.5l60 10c3.33301 -16.667 13 -30 29 -40s36 -15 60 -15c23.333 0 42.666 5 57.999 15s23 23 23 39c0 22 -16.667 38.667 -50 50l-89 32c-53.333 19.333 -80 51.333 -80 96
c0 34.667 12.5 61.5 37.5 80.5s58.167 28.5 99.5 28.5c37.333 0 68 -8.16699 92 -24.5s38.333 -38.5 43 -66.5zM234.998 -108c0 -17.333 -5.66504 -34.3311 -16.998 -50.998s-22.5 -29.167 -33.5 -37.5s-16.833 -11.5 -17.5 -9.5l-17 18c2 1.33301 5.33301 4.33301 10 9
c17.333 17.333 25.666 32 24.999 44c-10 1.33301 -18.5 6 -25.5 14s-10.5 17.333 -10.5 28c0 11.333 3.83301 20.666 11.5 27.999s17.5 11 29.5 11c13.333 0 24.166 -4.83301 32.499 -14.5s12.5 -22.834 12.5 -39.501z" />
    <glyph glyph-name="uni021A" unicode="&#x21a;" horiz-adv-x="625" 
d="M277 0v583h-251v67h574v-67h-252v-583h-71zM310 -135c-10 1.33301 -18.498 6.00195 -25.498 14.002s-10.5 17.333 -10.5 28c0 11.333 3.83301 20.666 11.5 27.999s17.5 11 29.5 11c13.333 0 24.166 -4.83301 32.499 -14.5s12.5 -22.834 12.5 -39.501
c0 -17.333 -5.66699 -34.333 -17 -51s-22.5 -29.167 -33.5 -37.5s-16.833 -11.5 -17.5 -9.5l-17 18c2 1.33301 5.33301 4.33301 10 9c17.333 17.333 25.666 32 24.999 44z" />
    <glyph glyph-name="uni021B" unicode="&#x21b;" horiz-adv-x="277" 
d="M13 324l0.000976562 56h61v83h63v-83h111v-56h-111v-204c0 -16.667 5.16699 -30.667 15.5 -42s23.166 -17 38.499 -17h57v-61h-61c-32 -0 -58.833 10.833 -80.5 32.5s-32.5 48.5 -32.5 80.5v211h-61zM209.001 -108c0 -17.333 -5.66602 -34.332 -16.999 -50.999
s-22.5 -29.167 -33.5 -37.5s-16.833 -11.5 -17.5 -9.5l-18 18c2 1.33301 5.33301 4.33301 10 9c5.33301 5.33301 11.166 12.5 17.499 21.5s9.16602 16.5 8.49902 22.5c-10.667 1.33301 -19.5 6 -26.5 14s-10.5 17.333 -10.5 28c0 11.333 4 20.666 12 27.999s18 11 30 11
c12.667 0 23.334 -5 32.001 -15s13 -23 13 -39z" />
    <glyph glyph-name="uni0237" unicode="&#x237;" horiz-adv-x="177" 
d="M60 380h63.001v-493c0 -31.333 -10.833 -57.833 -32.5 -79.5s-48.5 -32.5 -80.5 -32.5h-37v61h33c15.333 0 28.166 5.66699 38.499 17s15.5 25.333 15.5 42v485z" />
    <glyph glyph-name="uni0259" unicode="&#x259;" horiz-adv-x="456" 
d="M31 212l326 0.000976562c-5.33301 34 -20.666 62 -45.999 84s-56 33 -92 33c-48 0 -85 -18 -111 -54l-61 19c37.333 62.667 94.666 94 171.999 94c58 0 106 -19 144 -57c38.667 -36.667 58 -83.667 58 -141c0 -56 -18.667 -103.333 -56 -142
c-36.667 -38 -83.334 -57 -140.001 -57c-55.333 0 -101.666 19 -138.999 57c-37.333 38.667 -56 86 -56 142c0 11.333 0.333008 18.666 1 21.999zM356 161.001h-260.999c6 -32 21.167 -58.333 45.5 -79s53.166 -31 86.499 -31c32 0 60 10.333 84 31s39 47 45 79z" />
    <glyph glyph-name="circumflex" unicode="&#x2c6;" horiz-adv-x="369" 
d="M185 720l-101 -75l-30 37l127 108h8l126 -108l-29 -37z" />
    <glyph glyph-name="caron" unicode="&#x2c7;" horiz-adv-x="370" 
d="M185 714l101 76l30 -37l-127 -108h-8l-127 108l30 37z" />
    <glyph glyph-name="breve" unicode="&#x2d8;" horiz-adv-x="345" 
d="M54 767h51.998c0 -18.667 6.33301 -34.334 19 -47.001s28.334 -19 47.001 -19s34.334 6.33301 47.001 19s19 28.334 19 47.001h52c0 -33.333 -11.333 -61.166 -34 -83.499s-50.667 -33.5 -84 -33.5s-61.333 11.167 -84 33.5s-34 50.166 -34 83.499z" />
    <glyph glyph-name="dotaccent" unicode="&#x2d9;" horiz-adv-x="204" 
d="M68 665c-9.33301 9.33301 -14 20.666 -14 33.999s4.66699 24.666 14 33.999s20.666 14 33.999 14s24.333 -4.66699 33 -14c9.33301 -9.33301 14 -20.666 14 -33.999s-4.66699 -24.666 -14 -33.999c-8.66699 -8.66699 -19.667 -13 -33 -13s-24.666 4.33301 -33.999 13z
" />
    <glyph glyph-name="ring" unicode="&#x2da;" horiz-adv-x="297" 
d="M54 741c0 27.333 9 50 27 68s40.667 27 68 27c26.667 0 49 -9.16699 67 -27.5s27 -40.833 27 -67.5s-9 -49 -27 -67s-40.333 -27 -67 -27c-27.333 0 -50 9 -68 27s-27 40.333 -27 67zM116 773c-8.66699 -8.66699 -13.001 -19.333 -13.001 -32s4.33301 -23.667 13 -33
c9.33301 -8.66699 20.333 -13 33 -13s23.334 4.33301 32.001 13c14 12.667 18 27.5 12 44.5s-16.833 27.833 -32.5 32.5s-30.5 0.666992 -44.5 -12z" />
    <glyph glyph-name="ogonek" unicode="&#x2db;" horiz-adv-x="273" 
d="M94 -13l13.999 13h46c-32.667 -30.667 -49 -62 -49 -94c0 -13.333 3.66699 -23.833 11 -31.5s17 -11.5 29 -11.5c16.667 0 32.334 7.33301 47.001 22l6 7l21 -26l-12 -13c-5.33301 -7.33301 -15.833 -15.166 -31.5 -23.499s-30.5 -12.5 -44.5 -12.5
c-21.333 0 -39.5 7.66699 -54.5 23s-22.5 34.333 -22.5 57c0 15.333 4.16699 31.666 12.5 48.999s17.5 31 27.5 41z" />
    <glyph glyph-name="tilde" unicode="&#x2dc;" horiz-adv-x="376" 
d="M106 662h-51.9971c0 26.667 7.66699 48.667 23 66s35.333 26 60 26c18 0 36.333 -7.66699 55 -23s32.667 -23 42 -23c10 0 18.5 3.83301 25.5 11.5s10.5 17.5 10.5 29.5h52c0 -26.667 -7.83301 -48.667 -23.5 -66s-35.834 -26 -60.501 -26
c-18.667 0 -37.334 7.66699 -56.001 23s-32.334 23 -41.001 23c-10.667 0 -19.167 -3.83301 -25.5 -11.5s-9.5 -17.5 -9.5 -29.5z" />
    <glyph glyph-name="hungarumlaut" unicode="&#x2dd;" horiz-adv-x="416" 
d="M89 645l-35 29l104 132l51 -41zM241 645l-34 29l104 132l50 -41z" />
    <glyph glyph-name="uni0394" unicode="&#x394;" horiz-adv-x="667" 
d="M649 0h-631l287 650h57zM545 67l-211 480l-211 -480h422z" />
    <glyph glyph-name="uni03A9" unicode="&#x3a9;" horiz-adv-x="781" 
d="M315 0l-263.999 -0.000976562v67h133c-40.667 30 -72.334 68 -95.001 114s-34 96 -34 150c0 94 31.667 172 95 234c62.667 62.667 142.334 94 239.001 94c96 0 175.333 -31.333 238 -94c64 -63.333 96 -141.333 96 -234c0 -53.333 -11.5 -103.166 -34.5 -149.499
s-54.833 -84.5 -95.5 -114.5h137v-67h-268v67c55.333 15.333 100 46.333 134 93c34.667 46.667 52 101.334 52 164.001c0 75.333 -24.667 138.666 -74 189.999c-48.667 50.667 -110.334 76 -185.001 76s-137 -25.333 -187 -76c-49.333 -51.333 -74 -115 -74 -191
c0 -62 17.333 -116.333 52 -163s79.667 -77.667 135 -93v-67z" />
    <glyph glyph-name="uni0400" unicode="&#x400;" horiz-adv-x="584" 
d="M78 650h465v-67h-393v-220h346v-67h-346v-230h397v-66h-469v650zM353 737l-160 85l34 56l148 -102z" />
    <glyph glyph-name="uni0401" unicode="&#x401;" horiz-adv-x="584" 
d="M78 650h465v-67h-393v-220h346v-67h-346v-230h397v-66h-469v650zM395 741c-13.333 0 -24.332 4.33105 -32.999 12.998s-13 19.334 -13 32.001c0 20.667 9.66699 34.834 29 42.501s35.666 4.16699 48.999 -10.5c14 -14 17 -30.333 9 -49s-21.667 -28 -41 -28z
M183.001 752.998c-8 8.66699 -12.002 19.667 -12.002 33s4.33301 24.333 13 33s19.334 13 32.001 13s23.334 -4.33301 32.001 -13s13 -19.667 13 -33s-4.33301 -24.333 -13 -33c-8 -8 -18.667 -12 -32 -12s-24.333 4 -33 12z" />
    <glyph glyph-name="uni0402" unicode="&#x402;" horiz-adv-x="820" 
d="M277 0l0.000976562 583.001h-252v67h575v-67h-252v-200c49.333 13.333 99.666 20 150.999 20c84 0 149.167 -18.333 195.5 -55s69.5 -88.334 69.5 -155.001c0 -66 -22 -116.333 -66 -151s-104.333 -52 -181 -52l-2 67c118.667 0 178 45.333 178 136
c0 96 -65.333 144 -196 144c-48 0 -97.667 -6.66699 -149 -20v-317h-71z" />
    <glyph glyph-name="uni0403" unicode="&#x403;" horiz-adv-x="515" 
d="M150 583v-583h-72v650h411v-67h-339zM391 817l-159 -84l-23 38l148 102z" />
    <glyph glyph-name="uni0404" unicode="&#x404;" horiz-adv-x="724" 
d="M385 659c62.667 0 119.497 -14.6689 170.497 -44.002s90.833 -69.666 119.5 -120.999l-68 -27c-24 38.667 -55.167 68.834 -93.5 90.501s-81.166 32.5 -128.499 32.5c-67.333 0 -125.333 -21.333 -174 -64c-48 -42.667 -76.333 -97.334 -85 -164.001h348v-67h-349
c6.66699 -68 34.667 -124.667 84 -170c48.667 -44 107.334 -66 176.001 -66c46.667 0 89.334 10.833 128.001 32.5s70 51.834 94 90.501l68 -26c-28.667 -51.333 -68.667 -91.833 -120 -121.5s-108 -44.5 -170 -44.5c-95.333 0 -175 32 -239 96
c-63.333 64.667 -95 144.334 -95 239.001c0 95.333 31.667 174.666 95 237.999c64 64 143.667 96 239 96z" />
    <glyph glyph-name="uni0405" unicode="&#x405;" horiz-adv-x="575" 
d="M506 514l-71.0029 -20.002c-6 28 -23 51 -51 69s-61 27 -99 27c-42 0 -76.667 -10.333 -104 -31c-28 -20.667 -42 -46.667 -42 -78c0 -24 11 -45.667 33 -65c10.667 -8 24.334 -15.333 41.001 -22l48 -16l58 -16c46.667 -11.333 83.334 -23.666 110.001 -36.999
c60 -26.667 91.667 -74 95 -142c0 -57.333 -22 -104 -66 -140c-43.333 -35.333 -99.333 -53 -168 -53c-60.667 0 -113.334 14.667 -158.001 44c-43.333 29.333 -70.666 66.666 -81.999 111.999l71 21c5.33301 -31.333 23.833 -57.166 55.5 -77.499
s69.834 -30.5 114.501 -30.5c46 0 84.333 11 115 33c31.333 23.333 47 52 47 86c0 30 -12.5 53.5 -37.5 70.5s-63.5 31.833 -115.5 44.5l-49 12l-45 14c-20.667 8 -35.667 14.333 -45 19c-32.667 18.667 -55 36.334 -67 53.001c-17.333 24 -26 52.667 -26 86
c0 54 20 97.667 60 131c41.333 34 93 51 155 51c56 0 104.5 -13.5 145.5 -40.5s66.833 -61.833 77.5 -104.5z" />
    <glyph glyph-name="uni0406" unicode="&#x406;" horiz-adv-x="227" 
d="M150 0h-72v650h72v-650z" />
    <glyph glyph-name="uni0407" unicode="&#x407;" horiz-adv-x="227" 
d="M150 0h-72v650h72v-650zM25 832c18 0.666992 30.833 -6.83105 38.5 -22.498s7.66699 -31.334 0 -47.001s-20.5 -22.834 -38.5 -21.501c-18.667 -2 -32 5 -40 21s-8 32 0 48s21.333 23.333 40 22zM171 753.002c-8.66699 8.66699 -13 19.667 -13 33s4.33301 24.333 13 33
s19.334 13 32.001 13s23.334 -4.33301 32.001 -13s13 -19.667 13 -33s-4.33301 -24.333 -13 -33c-8.66699 -8 -19.334 -12 -32.001 -12s-23.334 4 -32.001 12z" />
    <glyph glyph-name="uni0408" unicode="&#x408;" horiz-adv-x="554" 
d="M483 650l0.00292969 -418.001c0 -68 -23.667 -125.667 -71 -173c-46.667 -46 -105.334 -69 -176.001 -69c-43.333 0 -83.5 9.83301 -120.5 29.5s-66.5 46.834 -88.5 81.501l60 38c15.333 -25.333 36.166 -45.333 62.499 -60s55.166 -22 86.499 -22
c50 0 92.333 16.667 127 50c34 34 51 75.667 51 125v418h69z" />
    <glyph glyph-name="uni0409" unicode="&#x409;" horiz-adv-x="1066" 
d="M41 0l-23 0.000976562v66h23c22 0 40.667 7 56 21c36 32.667 54 115 54 247v316h458v-259h209c58 0 106.667 -18.667 146 -56c38.667 -36.667 58 -83.334 58 -140.001c0 -56 -19.333 -102.333 -58 -139c-39.333 -37.333 -88 -56 -146 -56h-280v583h-316v-249
c0 -222.667 -60.333 -334 -181 -334zM609 324.001v-258h209c37.333 0 68.333 12.333 93 37c25.333 25.333 38 56 38 92s-12.667 66.667 -38 92c-24.667 24.667 -55.667 37 -93 37h-209z" />
    <glyph glyph-name="uni040A" unicode="&#x40a;" horiz-adv-x="1084" 
d="M150 0h-72v650h72v-274h404v274h73v-274h208c58 0 106.667 -18 146 -54c39.333 -35.333 59 -80 59 -134c0 -53.333 -19.667 -98 -59 -134s-88 -54 -146 -54h-281v309h-404v-309zM627 310v-244h208c36.667 0 67.667 11.667 93 35s38 52.333 38 87s-12.667 63.667 -38 87
s-56.333 35 -93 35h-208z" />
    <glyph glyph-name="uni040B" unicode="&#x40b;" horiz-adv-x="820" 
d="M277 0l-0.000976562 583h-252v67h575v-67h-252v-197c46.667 11.333 94.334 17 143.001 17c86.667 0 153.834 -18.667 201.501 -56s71.5 -90 71.5 -158v-189h-71v189c0 98.667 -67.333 148 -202 148c-48.667 0 -96.334 -5.66699 -143.001 -17v-320h-71z" />
    <glyph glyph-name="uni040C" unicode="&#x40c;" horiz-adv-x="593" 
d="M575 0h-92l-311 331l293 319h91l-292 -319zM78 0v650h72v-650h-72zM408 817l-159 -84l-23 38l148 102z" />
    <glyph glyph-name="uni040D" unicode="&#x40d;" horiz-adv-x="706" 
d="M78 0v650h72v-528l414 528h64v-650h-71v527l-414 -527h-65zM423 776l-23 -39l-159 85l34 56z" />
    <glyph glyph-name="uni040E" unicode="&#x40e;" horiz-adv-x="630" 
d="M303 159l-285 491h79l241 -418l198 418h76l-243 -512c-44.667 -92 -106 -138 -184 -138h-68v66h63c50.667 0 91.667 31 123 93zM316 718c-48 0 -88.667 14.666 -122 43.999c-32.667 28.667 -49 65.334 -49 110.001h62c0 -27.333 10.333 -50.166 31 -68.499
s46.334 -27.5 77.001 -27.5s56.167 9.16699 76.5 27.5s30.5 41.166 30.5 68.499h61c0 -44 -16 -80.667 -48 -110c-32.667 -29.333 -72.334 -44 -119.001 -44z" />
    <glyph glyph-name="uni040F" unicode="&#x40f;" horiz-adv-x="686" 
d="M78 0v650h72v-584h387v584h71v-650h-230v-158h-71v158h-229z" />
    <glyph glyph-name="uni0410" unicode="&#x410;" horiz-adv-x="667" 
d="M93 0h-75l288 650h56l287 -650h-75l-67 153h-347zM478 219l-144 328l-144 -328h288z" />
    <glyph glyph-name="uni0411" unicode="&#x411;" horiz-adv-x="617" 
d="M78 650l426 -0.000976562v-67h-354v-192h208c58 0 106.667 -18.667 146 -56s59 -84 59 -140c0 -55.333 -19.667 -101.666 -59 -138.999s-88 -56 -146 -56h-280v650zM150 323.999v-258h208c37.333 0 68.333 12.333 93 37c25.333 25.333 38 56 38 92s-12.667 66.667 -38 92
c-24.667 24.667 -55.667 37 -93 37h-208z" />
    <glyph glyph-name="uni0412" unicode="&#x412;" horiz-adv-x="647" 
d="M403 0h-325v650h306c52 0 95 -16 129 -48c34.667 -32 52 -72 52 -120c0 -60 -25.667 -106 -77 -138c34 -14 60.833 -35.667 80.5 -65s29.5 -62 29.5 -98c0 -50.667 -18.667 -93.667 -56 -129c-36.667 -34.667 -83 -52 -139 -52zM403 305h-253v-239h253
c34 0 62.667 11.5 86 34.5s35 51.5 35 85.5s-11.667 62.333 -35 85s-52 34 -86 34zM384 583h-234v-211h234c30.667 0 56.334 10 77.001 30s31 45.333 31 76c0 30 -10.333 55 -31 75s-46.334 30 -77.001 30z" />
    <glyph glyph-name="uni0413" unicode="&#x413;" horiz-adv-x="515" 
d="M150 583v-583h-72v650h411v-67h-339z" />
    <glyph glyph-name="uni0414" unicode="&#x414;" horiz-adv-x="773" 
d="M94 0v-158h-71v224h71c58.667 16 88 104.333 88 265v319h460v-584h109v-224h-72v158h-585zM195 66l375 0.000976562v517h-317v-248c0 -124.667 -19.333 -214.334 -58 -269.001z" />
    <glyph glyph-name="uni0415" unicode="&#x415;" horiz-adv-x="584" 
d="M78 650h465v-67h-393v-220h346v-67h-346v-230h397v-66h-469v650z" />
    <glyph glyph-name="uni0416" unicode="&#x416;" horiz-adv-x="919" 
d="M901 0h-90l-297 331l278 319h90l-278 -319zM108 0h-90l297 331l-278 319h90l278 -319zM495 650v-650h-71v650h71z" />
    <glyph glyph-name="uni0417" unicode="&#x417;" horiz-adv-x="593" 
d="M295 -10c-120.667 0 -205.337 52 -254.004 156l69 27c34.667 -76 96.334 -114 185.001 -114c52.667 0 95.334 12 128.001 36c33.333 24 50 54.667 50 92c0 32 -12 59.333 -36 82c-22.667 22.667 -51.667 34 -87 34h-126v67h124c30.667 0 56.334 10 77.001 30
s31 44.667 31 74c0 34 -15.167 61.833 -45.5 83.5s-69.5 32.5 -117.5 32.5c-85.333 0 -145.666 -37.667 -180.999 -113l-68 26c46.667 104 130 156 250 156c68 0 124.333 -16.667 169 -50c44.667 -32.667 67 -75.667 67 -129c0 -30 -7.66699 -57.5 -23 -82.5
s-36.333 -44.833 -63 -59.5c32 -15.333 57.167 -37 75.5 -65s27.5 -58.667 27.5 -92c0 -55.333 -24 -101 -72 -137c-47.333 -36 -107.333 -54 -180 -54z" />
    <glyph glyph-name="uni0418" unicode="&#x418;" horiz-adv-x="706" 
d="M143 0h-65v650h72v-528l414 528h64v-650h-71v527z" />
    <glyph glyph-name="uni0419" unicode="&#x419;" horiz-adv-x="706" 
d="M143 0h-65v650h72v-528l414 528h64v-650h-71v527zM186 872l61.001 0.000976562c0 -27.333 10.333 -50.166 31 -68.499s46.667 -27.5 78 -27.5c30.667 0 56 9.16699 76 27.5s30 41.166 30 68.499h62c0 -44 -16 -80.667 -48 -110c-32.667 -29.333 -72.334 -44 -119.001 -44
s-87 14 -121 42c-33.333 29.333 -50 66.666 -50 111.999z" />
    <glyph glyph-name="uni041A" unicode="&#x41a;" horiz-adv-x="593" 
d="M575 0h-92l-311 331l293 319h91l-292 -319zM78 0v650h72v-650h-72z" />
    <glyph glyph-name="uni041B" unicode="&#x41b;" horiz-adv-x="687" 
d="M41 0h-23v66h23c22 0 40.667 7 56 21c36 32.667 54 115 54 247v316h458v-650h-71v583h-316v-249c0 -222.667 -60.333 -334 -181 -334z" />
    <glyph glyph-name="uni041C" unicode="&#x41c;" horiz-adv-x="838" 
d="M150 0h-72v650h72l269 -471l270 471h71v-650h-71v514l-247 -431h-46l-246 430v-513z" />
    <glyph glyph-name="uni041D" unicode="&#x41d;" horiz-adv-x="704" 
d="M150 0h-72v650h72v-287h405v287h71v-650h-71v296h-405v-296z" />
    <glyph glyph-name="uni041E" unicode="&#x41e;" horiz-adv-x="770" 
d="M146 86c-63.333 64.667 -95 144.334 -95 239.001c0 95.333 31.667 174.666 95 237.999c64 64 143.667 96 239 96s174.666 -32 237.999 -96c64 -62.667 96 -142 96 -238c0 -95.333 -32 -175 -96 -239c-63.333 -64 -142.666 -96 -237.999 -96s-175 32 -239 96zM124 325
c0 -75.333 25 -138.666 75 -189.999c50 -50.667 112 -76 186 -76c74.667 0 136.334 25.333 185.001 76c50 51.333 75 114.666 75 189.999s-25 138.333 -75 189c-48.667 50.667 -110.334 76 -185.001 76c-74 0 -136 -25.333 -186 -76s-75 -113.667 -75 -189z" />
    <glyph glyph-name="uni041F" unicode="&#x41f;" horiz-adv-x="704" 
d="M150 583v-583h-72v650h549v-650h-72v583h-405z" />
    <glyph glyph-name="uni0420" unicode="&#x420;" horiz-adv-x="615" 
d="M150 254v-254h-72v650h283c59.333 0 108.666 -19 147.999 -57c39.333 -37.333 59 -84.333 59 -141s-19.667 -104 -59 -142c-39.333 -37.333 -88.666 -56 -147.999 -56h-211zM361 583l-211.001 0.000976562v-262h211c38 0 69.333 12.333 94 37
c26 25.333 39 56.666 39 93.999s-13 68.333 -39 93c-25.333 25.333 -56.666 38 -93.999 38z" />
    <glyph glyph-name="uni0421" unicode="&#x421;" horiz-adv-x="724" 
d="M385 659c62.667 0 119.498 -14.6709 170.498 -44.0039s90.833 -69.666 119.5 -120.999l-68 -27c-24 38.667 -55.167 68.834 -93.5 90.501s-81.166 32.5 -128.499 32.5c-74 0 -136 -25.333 -186 -76s-75 -113.667 -75 -189s25 -138.666 75 -189.999
c50 -50.667 112 -76 186 -76c46.667 0 89.334 10.833 128.001 32.5s70 51.834 94 90.501l68 -26c-28.667 -51.333 -68.667 -91.833 -120 -121.5s-108 -44.5 -170 -44.5c-95.333 0 -175 32 -239 96c-63.333 64.667 -95 144.334 -95 239.001
c0 95.333 31.667 174.666 95 237.999c64 64 143.667 96 239 96z" />
    <glyph glyph-name="uni0422" unicode="&#x422;" horiz-adv-x="626" 
d="M277 583h-251v67h574v-67h-252v-583h-71v583z" />
    <glyph glyph-name="uni0423" unicode="&#x423;" horiz-adv-x="630" 
d="M303 159l-285 491h79l241 -418l198 418h76l-243 -512c-44.667 -92 -106 -138 -184 -138h-68v66h63c50.667 0 91.667 31 123 93z" />
    <glyph glyph-name="uni0424" unicode="&#x424;" horiz-adv-x="794" 
d="M361 590l0.00195312 69h71v-69c91.333 -1.33301 165.666 -26.666 222.999 -75.999c58.667 -48.667 88 -111.667 88 -189c0 -76.667 -29.333 -140 -88 -190c-58 -49.333 -132.333 -74.333 -223 -75v-70h-71v70c-90.667 0.666992 -165 25.667 -223 75
c-58 50 -87 113.333 -87 190s29 139.667 87 189c57.333 49.333 131.666 74.666 222.999 75.999zM432.002 521v-392c70 0 126.667 18.333 170 55c44.667 36.667 67 83.667 67 141s-22.333 104.333 -67 141c-43.333 36.667 -100 55 -170 55zM361.002 129v392
c-68.667 0 -125.334 -18.333 -170.001 -55s-67 -83.667 -67 -141s22.333 -104.333 67 -141s101.334 -55 170.001 -55z" />
    <glyph glyph-name="uni0425" unicode="&#x425;" horiz-adv-x="623" 
d="M269 331l-241 319h85l198 -262l198 262h86l-241 -319l250 -331h-85l-208 274l-207 -274h-86z" />
    <glyph glyph-name="uni0426" unicode="&#x426;" horiz-adv-x="740" 
d="M78 0v650h72v-584h387v584h71v-584h108v-224h-71v158h-567z" />
    <glyph glyph-name="uni0427" unicode="&#x427;" horiz-adv-x="647" 
d="M334 247c-91.333 0 -161.833 18.5 -211.5 55.5s-74.5 89.833 -74.5 158.5v189h71v-189c0 -98.667 71.333 -148 214 -148c54 0 109 7 165 21v316h71v-650h-71v268c-54 -14 -108.667 -21 -164 -21z" />
    <glyph glyph-name="uni0428" unicode="&#x428;" horiz-adv-x="1014" 
d="M78 0v650h72v-584h320v584h71v-584h324v584h71v-650h-858z" />
    <glyph glyph-name="uni0429" unicode="&#x429;" horiz-adv-x="1068" 
d="M78 650h72v-584h320v584h71v-584h324v584h71v-584h109v-224h-71v158h-896v650z" />
    <glyph glyph-name="uni042A" unicode="&#x42a;" horiz-adv-x="792" 
d="M263 0v582.999h-238v67h310v-259h208c58 0 106.667 -18.667 146 -56s59 -84 59 -140c0 -55.333 -19.667 -101.666 -59 -138.999s-88 -56 -146 -56h-280zM335 323.999v-258h208c38 0 69.333 12.333 94 37s37 55.334 37 92.001c0 37.333 -12.333 68.166 -37 92.499
s-56 36.5 -94 36.5h-208z" />
    <glyph glyph-name="uni042B" unicode="&#x42b;" horiz-adv-x="822" 
d="M358 0l-280 -0.000976562v650h72v-259h208c58 0 106.667 -18.667 146 -56s59 -84 59 -140c0 -55.333 -19.667 -101.666 -59 -138.999s-88 -56 -146 -56zM150 323.999v-257.999h208c37.333 0 68.333 12.333 93 37c25.333 25.333 38 56 38 92
c0 37.333 -12.5 68.166 -37.5 92.499s-56.167 36.5 -93.5 36.5h-208zM744 0h-71v650h71v-650z" />
    <glyph glyph-name="uni042C" unicode="&#x42c;" horiz-adv-x="607" 
d="M78 0v649.999h72v-259h208c58 0 106.667 -18.667 146 -56s59 -84 59 -140c0 -55.333 -19.667 -101.666 -59 -138.999s-88 -56 -146 -56h-280zM150 323.999v-258h208c37.333 0 68.333 12.333 93 37c25.333 25.333 38 56 38 92s-12.667 66.667 -38 92
c-24.667 24.667 -55.667 37 -93 37h-208z" />
    <glyph glyph-name="uni042D" unicode="&#x42d;" horiz-adv-x="724" 
d="M48 156l68 26c22.667 -38 53.667 -68 93 -90s82.666 -33 129.999 -33c69.333 0 128 22 176 66c48.667 45.333 76.334 102 83.001 170h-311v67h310c-8.66699 66.667 -37 121.334 -85 164.001c-46.667 42.667 -104.334 64 -173.001 64c-47.333 0 -90.666 -11 -129.999 -33
s-70.333 -52 -93 -90l-68 27c30 51.333 70.5 91.666 121.5 120.999s107.5 44 169.5 44c95.333 0 174.666 -32 237.999 -96c64 -62.667 96 -142 96 -238c0 -95.333 -32 -175 -96 -239c-63.333 -64 -142.666 -96 -237.999 -96c-62 0 -118.5 14.667 -169.5 44
s-91.5 70 -121.5 122z" />
    <glyph glyph-name="uni042E" unicode="&#x42e;" horiz-adv-x="1003" 
d="M78 0v650h72v-288h135c8.66699 86.667 44 157.667 106 213c62 56 137.667 84 227 84c96 0 175.333 -32 238 -96c64 -62.667 96 -142 96 -238c0 -95.333 -32 -175 -96 -239c-62.667 -64 -142 -96 -238 -96c-89.333 0 -165.666 28.667 -228.999 86
c-62.667 58.667 -97.334 131.667 -104.001 219h-135v-295h-72zM357 325c0 -75.333 24.667 -138.666 74 -189.999c50 -50.667 112.333 -76 187 -76s136.334 25.333 185.001 76c50 51.333 75 114.666 75 189.999s-25 138.333 -75 189c-48.667 50.667 -110.334 76 -185.001 76
s-137 -25.333 -187 -76c-49.333 -51.333 -74 -114.333 -74 -189z" />
    <glyph glyph-name="uni042F" unicode="&#x42f;" horiz-adv-x="630" 
d="M283 256l-157 -256h-80l160 263c-45.333 11.333 -82 34.333 -110 69s-42 75.334 -42 122.001c0 55.333 19.667 101.666 59 138.999c40 38 89.333 57 148 57h291v-650h-71v256h-198zM127 454c0 -36.667 12.667 -67.667 38 -93c25.333 -24.667 57.333 -37 96 -37h220v259
h-220c-38.667 0 -70.667 -12.333 -96 -37c-25.333 -25.333 -38 -56 -38 -92z" />
    <glyph glyph-name="uni0430" unicode="&#x430;" horiz-adv-x="476" 
d="M222 388c54.667 0 100 -20 136 -60v52h63v-380h-63v51c-36 -40 -81.333 -60 -136 -60c-53.333 0 -98 19 -134 57c-35.333 38.667 -53 86 -53 142c0 56.667 17.667 103.667 53 141c36 38 80.667 57 134 57zM229 325c-36.667 0 -67.334 -12.8301 -92.001 -38.4971
s-37 -57.834 -37 -96.501s12.333 -70.834 37 -96.501s55.334 -38.5 92.001 -38.5c35.333 0 65.666 12.667 90.999 38c24.667 25.333 37 57.666 37 96.999s-12.333 71.333 -37 96c-25.333 26 -55.666 39 -90.999 39z" />
    <glyph glyph-name="uni0431" unicode="&#x431;" horiz-adv-x="482" 
d="M37 298c0 168.667 64 265 192 289c38 6.66699 65.5 19 82.5 37s25.5 43.333 25.5 76h68c0 -95.333 -48.333 -152.333 -145 -171c-57.333 -10.667 -98.5 -35.5 -123.5 -74.5s-36.833 -95.5 -35.5 -169.5c10.667 31.333 29.667 56.5 57 75.5s59 28.5 95 28.5
c55.333 0 101.333 -19.333 138 -58c37.333 -38.667 56 -86 56 -142c0 -55.333 -18.667 -102.333 -56 -141c-36.667 -38 -82.667 -57 -138 -57c-62 0 -113.667 25.667 -155 77c-40.667 51.333 -61 128 -61 230zM161 286c-24.667 -24.667 -36.999 -56.667 -36.999 -96
s12.333 -71.666 37 -96.999c25.333 -25.333 56 -38 92 -38c36.667 0 67 12.667 91 38c24.667 25.333 37 57.666 37 96.999s-12.333 71.333 -37 96c-24 26 -54.333 39 -91 39s-67.334 -13 -92.001 -39z" />
    <glyph glyph-name="uni0432" unicode="&#x432;" horiz-adv-x="415" 
d="M54 380h197c27.333 0 51.333 -7.16699 72 -21.5s34 -32.833 40 -55.5l3 -17c0 -37.333 -13 -65.333 -39 -84c38 -18.667 57 -49 57 -91c0 -32 -11.333 -58.5 -34 -79.5s-51 -31.5 -85 -31.5h-211v380zM118 170v-108.999h147c15.333 0 28 5.16699 38 15.5s15 23.5 15 39.5
c0 15.333 -5 28.166 -15 38.499s-22.667 15.5 -38 15.5h-147zM251 319.001l-133 0.000976562v-96h133c14 0 25.667 4.66699 35 14s14 20.666 14 33.999c0 14 -4.66699 25.5 -14 34.5s-21 13.5 -35 13.5z" />
    <glyph glyph-name="uni0433" unicode="&#x433;" horiz-adv-x="313" 
d="M118 319v-319h-64v380h245v-61h-181z" />
    <glyph glyph-name="uni0434" unicode="&#x434;" horiz-adv-x="494" 
d="M82 0v-123h-63v184h56c22 20 33 62.333 33 127v192h298v-319h70v-184h-63v123h-331zM146 61l198 0.000976562v258h-173v-133c0 -52.667 -8.33301 -94.334 -25 -125.001z" />
    <glyph glyph-name="uni0435" unicode="&#x435;" horiz-adv-x="456" 
d="M425 168l-325 -0.000976562c4.66699 -34 19.667 -62 45 -84s56 -33 92 -33c48 0 85 18 111 54l61 -19c-18 -30 -41.833 -53.333 -71.5 -70s-63.167 -25 -100.5 -25c-58 0 -106.333 19 -145 57c-38 38 -57 85.333 -57 142s18.667 103.667 56 141
c36.667 38 83.334 57 140.001 57c55.333 0 101.666 -19 138.999 -57c37.333 -37.333 56 -84.333 56 -141c0 -11.333 -0.333008 -18.666 -1 -21.999zM100 218.999h261c-6 32 -21.167 58.333 -45.5 79s-52.833 31 -85.5 31s-61 -10.333 -85 -31s-39 -47 -45 -79z" />
    <glyph glyph-name="uni0436" unicode="&#x436;" horiz-adv-x="555" 
d="M541 0h-76l-155 196l141 184h75l-141 -184zM90 0h-76l155 196l-140 184h74l141 -184zM309 380v-380h-63v380h63z" />
    <glyph glyph-name="uni0437" unicode="&#x437;" horiz-adv-x="397" 
d="M31 97l64.002 16.999c15.333 -41.333 49 -62 101 -62c29.333 0 53.666 6.33301 72.999 19s29 28.334 29 47.001c0 14.667 -5.5 26.834 -16.5 36.501s-24.833 14.5 -41.5 14.5h-91v53h87c15.333 0 28.333 4.5 39 13.5s16 19.833 16 32.5
c0 17.333 -8.83301 31.666 -26.5 42.999s-39.834 17 -66.501 17c-52 0 -85.667 -20.667 -101 -62l-64 16c12 33.333 32.667 59.5 62 78.5s64.333 28.5 105 28.5c44.667 0 81.667 -10.667 111 -32c30 -20.667 45 -47.334 45 -80.001c0 -34 -15.667 -60.667 -47 -80
c36 -19.333 54 -48.333 54 -87c0 -33.333 -15.667 -61.666 -47 -84.999c-30.667 -22.667 -70.334 -34 -119.001 -34c-40.667 0 -75.667 9.33301 -105 28s-49.666 44.667 -60.999 78z" />
    <glyph glyph-name="uni0438" unicode="&#x438;" horiz-adv-x="459" 
d="M342 274l-234 -274h-54v380h64v-275l234 275h53v-380h-63v274z" />
    <glyph glyph-name="uni0439" unicode="&#x439;" horiz-adv-x="459" 
d="M54 0v380h64v-275l234 275h53v-380h-63v274l-234 -274h-54zM96 622h59c0 -19.333 7 -35.833 21 -49.5s31.333 -20.5 52 -20.5s38 6.83301 52 20.5s21 30.167 21 49.5h59c0 -34.667 -13 -64.667 -39 -90c-25.333 -25.333 -56.333 -38 -93 -38c-36 0 -67.333 12.667 -94 38
c-25.333 25.333 -38 55.333 -38 90z" />
    <glyph glyph-name="uni043A" unicode="&#x43a;" horiz-adv-x="382" 
d="M368 0h-78l-171 196l155 184h78l-155 -184zM118 380v-380h-64v380h64z" />
    <glyph glyph-name="uni043B" unicode="&#x43b;" horiz-adv-x="443" 
d="M43 0h-24v61h20c36 0 54 40 54 120v199h295v-380h-63v319h-169v-151c0 -56 -10 -98 -30 -126s-47.667 -42 -83 -42z" />
    <glyph glyph-name="uni043C" unicode="&#x43c;" horiz-adv-x="522" 
d="M118 260v-260h-64v380h64l143 -251l143 251h64v-380h-64v258l-123 -214h-39z" />
    <glyph glyph-name="uni043D" unicode="&#x43d;" horiz-adv-x="458" 
d="M118 163v-163h-64v380h64v-156h222v156h63v-380h-63v163h-222z" />
    <glyph glyph-name="uni043E" unicode="&#x43e;" horiz-adv-x="466" 
d="M91 48c-37.333 38.667 -56 86 -56 142c0 56.667 18.667 103.667 56 141c38 38 85.333 57 142 57s103.667 -19 141 -57c38 -36.667 57 -83.667 57 -141c0 -56.667 -19 -104 -57 -142c-37.333 -38 -84.333 -57 -141 -57s-104 19 -142 57zM138 286
c-25.333 -25.333 -38.001 -57.333 -38.001 -96c0 -38 12.667 -70.333 38 -97c26.667 -25.333 58.334 -38 95.001 -38c37.333 0 68.666 12.667 93.999 38c25.333 26.667 38 59 38 97c0 38.667 -12.667 70.667 -38 96c-25.333 26 -56.666 39 -93.999 39s-69 -13 -95 -39z" />
    <glyph glyph-name="uni043F" unicode="&#x43f;" horiz-adv-x="452" 
d="M118 319v-319h-64v380h344v-380h-63v319h-217z" />
    <glyph glyph-name="uni0440" unicode="&#x440;" horiz-adv-x="476" 
d="M117 -225h-62.999v605h63v-52c37.333 40 83 60 137 60c53.333 0 97.666 -19 132.999 -57c36 -36.667 54 -83.667 54 -141c0 -56.667 -18 -104 -54 -142c-35.333 -38 -79.666 -57 -132.999 -57c-54.667 0 -100.334 20.333 -137.001 61v-277zM338.001 286
c-24 26 -54.332 39.001 -90.999 39.001s-67.334 -13 -92.001 -39c-24 -25.333 -36 -57.333 -36 -96s12 -71 36 -97c25.333 -25.333 56 -38 92 -38c36.667 0 67 12.667 91 38c24.667 25.333 37 57.666 37 96.999s-12.333 71.333 -37 96z" />
    <glyph glyph-name="uni0441" unicode="&#x441;" horiz-adv-x="440" 
d="M413 273l-63.001 -19c-10.667 22 -26.334 39.333 -47.001 52s-44 19 -70 19c-38 0 -69.667 -13 -95 -39c-25.333 -25.333 -38 -57.333 -38 -96c0 -38 12.667 -70.333 38 -97c25.333 -25.333 57 -38 95 -38c26 0 49.333 6.33301 70 19s36.334 30 47.001 52l63 -19
c-15.333 -35.333 -39.166 -63.5 -71.499 -84.5s-68.833 -31.5 -109.5 -31.5c-56 0 -103 19 -141 57c-37.333 38.667 -56 86 -56 142c0 56.667 18.667 103.667 56 141c38 38 85 57 141 57c40 0 76.333 -10.5 109 -31.5s56.667 -48.833 72 -83.5z" />
    <glyph glyph-name="uni0442" unicode="&#x442;" horiz-adv-x="373" 
d="M155 0v319h-141v61h346v-61h-141v-319h-64z" />
    <glyph glyph-name="uni0443" unicode="&#x443;" horiz-adv-x="393" 
d="M125 -82l38 92l-151 370h65l118 -293l121 293h66l-203 -483c-17.333 -42 -38 -72.833 -62 -92.5s-53.333 -29.5 -88 -29.5h-10v60h10c40.667 0 72.667 27.667 96 83z" />
    <glyph glyph-name="uni0444" unicode="&#x444;" horiz-adv-x="575" 
d="M342 -9c-8.66699 0 -16.334 0.666992 -23.001 2v-218h-63v218c-6.66699 -1.33301 -14.334 -2 -23.001 -2c-56.667 0 -104 19 -142 57s-57 85.333 -57 142s19 104 57 142s85.333 57 142 57c0.666992 0 8.33398 -0.666992 23.001 -2v313h63v-313
c14.667 1.33301 22.334 2 23.001 2c56.667 0 104 -19 142 -57s57 -85.333 57 -142s-19 -104 -57 -142s-85.333 -57 -142 -57zM233 325c-38 0 -69.999 -13 -95.999 -39c-25.333 -26.667 -38 -58.667 -38 -96s12.667 -69.333 38 -96c26 -26 58 -39 96 -39
c12 0 19.667 0.333008 23 1v267c-6.66699 1.33301 -14.334 2 -23.001 2zM342.001 325c-8.66699 0 -16.333 -0.666992 -23 -2v-267c3.33301 -0.666992 11 -1 23 -1c38.667 0 70.334 13 95.001 39c25.333 26.667 38 58.667 38 96s-12.667 69.333 -38 96
c-24.667 26 -56.334 39 -95.001 39z" />
    <glyph glyph-name="uni0445" unicode="&#x445;" horiz-adv-x="400" 
d="M310 0l-110 144l-110 -144h-75l148 194l-141 186h75l103 -135l104 135h75l-141 -186l147 -194h-75z" />
    <glyph glyph-name="uni0446" unicode="&#x446;" horiz-adv-x="481" 
d="M54 0v380h64v-319h213v319h63v-319h69v-184h-63v123h-346z" />
    <glyph glyph-name="uni0447" unicode="&#x447;" horiz-adv-x="411" 
d="M36 260l-0.000976562 120h65v-120c0 -18.667 7.33301 -33.5 22 -44.5s35.334 -16.5 62.001 -16.5c24 0 60 3 108 9v172h64v-380h-64v148c-48.667 -6 -86 -9 -112 -9c-44 0 -79.167 11.167 -105.5 33.5s-39.5 51.5 -39.5 87.5z" />
    <glyph glyph-name="uni0448" unicode="&#x448;" horiz-adv-x="642" 
d="M54 0v380h64v-319h171v319h64v-319h172v319h63v-380h-534z" />
    <glyph glyph-name="uni0449" unicode="&#x449;" horiz-adv-x="675" 
d="M54 380h64v-319h171v319h64v-319h172v319h63v-319h69v-184h-63v123h-540v380z" />
    <glyph glyph-name="uni044A" unicode="&#x44a;" horiz-adv-x="492" 
d="M150 0l0.00195312 319h-136v61h200v-137h125c35.333 0 64.666 -11.5 87.999 -34.5s35 -51.833 35 -86.5s-11.833 -63.667 -35.5 -87s-52.834 -35 -87.501 -35h-189zM339.002 183h-125v-122h125c16 0 29.5 5.83301 40.5 17.5s16.5 26.167 16.5 43.5
s-5.5 31.833 -16.5 43.5s-24.5 17.5 -40.5 17.5z" />
    <glyph glyph-name="uni044B" unicode="&#x44b;" horiz-adv-x="543" 
d="M243 0l-189 -0.000976562v380h64v-137h125c34.667 0 63.667 -11.5 87 -34.5s35 -51.833 35 -86.5c0 -28 -7.83301 -52.667 -23.5 -74s-36.5 -35.666 -62.5 -42.999c-5.33301 -1.33301 -11 -2.33301 -17 -3l-10 -2h-9zM489 -0.000976562h-63v380h63v-380zM243 182.999
h-125v-122h125c16 0 29.5 5.83301 40.5 17.5s16.5 26.167 16.5 43.5s-5.5 31.833 -16.5 43.5s-24.5 17.5 -40.5 17.5z" />
    <glyph glyph-name="uni044C" unicode="&#x44c;" horiz-adv-x="395" 
d="M243 0h-189v380h64v-137h125c28 0 52.667 -7.83301 74 -23.5s35.666 -36.5 42.999 -62.5c2.66699 -6 4.33398 -14.667 5.00098 -26c0 -38.667 -11 -70.167 -33 -94.5s-51.667 -36.5 -89 -36.5zM118 183v-122h125c16 0 29.5 5.83301 40.5 17.5s16.5 26.167 16.5 43.5
s-5.5 31.833 -16.5 43.5s-24.5 17.5 -40.5 17.5h-125z" />
    <glyph glyph-name="uni044D" unicode="&#x44d;" horiz-adv-x="444" 
d="M30 107l64.002 19c10 -22 25.5 -39.333 46.5 -52s44.5 -19 70.5 -19c33.333 0 62.166 10.167 86.499 30.5s39.166 46.5 44.499 78.5h-170v58h169c-7.33301 30.667 -22.833 55.5 -46.5 74.5s-51.5 28.5 -83.5 28.5c-26 0 -49.5 -6.5 -70.5 -19.5s-36.5 -30.5 -46.5 -52.5
l-64 20c15.333 35.333 39.166 63.5 71.499 84.5s68.833 31.5 109.5 31.5c56.667 0 103.667 -19 141 -57c38 -38 57 -85.333 57 -142s-19 -104 -57 -142c-37.333 -38 -84.333 -57 -141 -57c-40.667 0 -77.167 10.5 -109.5 31.5s-56.166 49.167 -71.499 84.5z" />
    <glyph glyph-name="uni044E" unicode="&#x44e;" horiz-adv-x="624" 
d="M54 0v380.001h64v-156h85c6.66699 47.333 28 87 64 119c35.333 30.667 78 46 128 46c55.333 0 101.666 -19 138.999 -57c37.333 -38.667 56 -86 56 -142s-18.667 -103.333 -56 -142c-37.333 -38 -83.666 -57 -138.999 -57c-50.667 0 -94 16 -130 48
c-36 33.333 -57 74.666 -63 123.999h-84v-163h-64zM487 286.001c-24.667 26 -55.332 39 -91.999 39s-67.334 -13 -92.001 -39c-24.667 -24.667 -37 -56.667 -37 -96s12.333 -71.666 37 -96.999c25.333 -25.333 56 -38 92 -38s66.667 12.667 92 38
c24.667 25.333 37 57.666 37 96.999s-12.333 71.333 -37 96z" />
    <glyph glyph-name="uni044F" unicode="&#x44f;" horiz-adv-x="422" 
d="M111 0h-73.999l97 140c-28 5.33301 -50.833 19 -68.5 41s-26.5 48 -26.5 78c0 34.667 11.667 63.5 35 86.5s52.666 34.5 87.999 34.5h206v-380h-63v137h-99zM162.001 198l143 -0.000976562v121h-143c-16.667 0 -30.5 -5.66699 -41.5 -17s-16.5 -25.666 -16.5 -42.999
s5.5 -31.833 16.5 -43.5s24.833 -17.5 41.5 -17.5z" />
    <glyph glyph-name="uni0450" unicode="&#x450;" horiz-adv-x="456" 
d="M425 168l-325 -0.000976562c4.66699 -34 19.667 -62 45 -84s56 -33 92 -33c48 0 85 18 111 54l61 -19c-18 -30 -41.833 -53.333 -71.5 -70s-63.167 -25 -100.5 -25c-58 0 -106.333 19 -145 57c-38 38 -57 85.333 -57 142s18.667 103.667 56 141
c36.667 38 83.334 57 140.001 57c55.333 0 101.666 -19 138.999 -57c37.333 -37.333 56 -84.333 56 -141c0 -11.333 -0.333008 -18.666 -1 -21.999zM100 218.999h261c-6 32 -21.167 58.333 -45.5 79s-52.833 31 -85.5 31s-61 -10.333 -85 -31s-39 -47 -45 -79zM279 493.999
l-159 85l34 55l148 -102z" />
    <glyph glyph-name="uni0451" unicode="&#x451;" horiz-adv-x="456" 
d="M425 168l-325 -0.000976562c4.66699 -34 19.667 -62 45 -84s56 -33 92 -33c48 0 85 18 111 54l61 -19c-18 -30 -41.833 -53.333 -71.5 -70s-63.167 -25 -100.5 -25c-58 0 -106.333 19 -145 57c-38 38 -57 85.333 -57 142s18.667 103.667 56 141
c36.667 38 83.334 57 140.001 57c55.333 0 101.666 -19 138.999 -57c37.333 -37.333 56 -84.333 56 -141c0 -11.333 -0.333008 -18.666 -1 -21.999zM100 218.999h261c-6 32 -21.167 58.333 -45.5 79s-52.833 31 -85.5 31s-61 -10.333 -85 -31s-39 -47 -45 -79zM143 497.999
c-13.333 0 -24.333 4.33398 -33 13.001s-13 19.334 -13 32.001s4.5 23.5 13.5 32.5s19.833 13.5 32.5 13.5c18 0.666992 30.833 -6.83301 38.5 -22.5s7.66699 -31.334 0 -47.001s-20.5 -22.834 -38.5 -21.501zM322 589c18 0.666992 30.833 -6.83105 38.5 -22.498
s7.66699 -31.334 0 -47.001s-20.5 -22.834 -38.5 -21.501c-18.667 -2 -32 5 -40 21s-8 32 0 48s21.333 23.333 40 22z" />
    <glyph glyph-name="uni0452" unicode="&#x452;" horiz-adv-x="459" 
d="M118 700v-120.001h135v-58h-135v-205c28.667 48 73.334 72 134.001 72c44 0 80.667 -14.667 110 -44s44 -65.333 44 -108v-350c0 -31.333 -10.667 -57.833 -32 -79.5s-48 -32.5 -80 -32.5h-37v61h32c15.333 0 28.166 5.66699 38.499 17s15.5 25.333 15.5 42v325
c0 30.667 -10.333 56.334 -31 77.001s-46.334 31 -77.001 31c-33.333 0 -61.166 -10.333 -83.499 -31s-33.5 -46.667 -33.5 -78v-219h-64v522h-47v58h47v120h64z" />
    <glyph glyph-name="uni0453" unicode="&#x453;" horiz-adv-x="313" 
d="M118 319v-319h-64v380h245v-61h-181zM281 574l-159 -85l-23 39l148 102z" />
    <glyph glyph-name="uni0454" unicode="&#x454;" horiz-adv-x="444" 
d="M233 -9c-56.667 0 -104 19 -142 57s-57 85.333 -57 142s19 104 57 142s85.333 57 142 57c40.667 0 77.167 -10.5 109.5 -31.5s56.166 -49.167 71.499 -84.5l-64 -20c-10 22 -25.5 39.5 -46.5 52.5s-44.5 19.5 -70.5 19.5c-32 0 -59.833 -9.5 -83.5 -28.5
s-39.167 -43.833 -46.5 -74.5h181v-58h-182c6 -32 21.167 -58.167 45.5 -78.5s52.833 -30.5 85.5 -30.5c26 0 49.5 6.33301 70.5 19s36.5 30 46.5 52l64 -19c-15.333 -35.333 -39.166 -63.5 -71.499 -84.5s-68.833 -31.5 -109.5 -31.5z" />
    <glyph glyph-name="uni0455" unicode="&#x455;" horiz-adv-x="354" 
d="M314 297l-59.002 -11c-3.33301 14 -12.166 25.167 -26.499 33.5s-32.166 12.5 -53.499 12.5c-20.667 0 -38 -4.5 -52 -13.5s-21 -20.5 -21 -34.5c0 -20 13.667 -34.667 41 -44l91 -32c58.667 -20.667 88 -55.667 88 -105c0 -34.667 -13.167 -62 -39.5 -82
s-60.833 -30 -103.5 -30c-40.667 0 -74.167 9.16699 -100.5 27.5s-42.166 42.833 -47.499 73.5l60 10c3.33301 -16.667 13 -30 29 -40s36 -15 60 -15c23.333 0 42.666 5 57.999 15s23 23 23 39c0 22 -16.667 38.667 -50 50l-89 32c-53.333 19.333 -80 51.333 -80 96
c0 34.667 12.5 61.5 37.5 80.5s58.167 28.5 99.5 28.5c37.333 0 68 -8.16699 92 -24.5s38.333 -38.5 43 -66.5z" />
    <glyph glyph-name="uni0456" unicode="&#x456;" horiz-adv-x="172" 
d="M118 0h-64v380h64v-380zM55 515c-8 8 -12 18.333 -12 31s4 23 12 31s18.333 12 31 12s23 -4 31 -12s12 -18.333 12 -31s-4 -23 -12 -31s-18.333 -12 -31 -12s-23 4 -31 12z" />
    <glyph glyph-name="uni0457" unicode="&#x457;" horiz-adv-x="172" 
d="M118 0h-64v380h64v-380zM4 589c12.667 0 23.167 -4.33203 31.5 -12.999s12.5 -19.667 12.5 -33c0 -12.667 -4.16699 -23.334 -12.5 -32.001s-18.833 -13 -31.5 -13c-18.667 -2 -32 5 -40 21s-8 32 0 48s21.333 23.333 40 22zM170 589.001
c12.667 0 23.167 -4.33203 31.5 -12.999s12.5 -19.667 12.5 -33c0 -12.667 -4.16699 -23.334 -12.5 -32.001s-18.833 -13 -31.5 -13c-18.667 -2 -32 5 -40 21s-8 32 0 48s21.333 23.333 40 22z" />
    <glyph glyph-name="uni0458" unicode="&#x458;" horiz-adv-x="177" 
d="M59 380h64.001v-493c0 -31.333 -10.833 -57.833 -32.5 -79.5s-48.5 -32.5 -80.5 -32.5h-37v61h32c15.333 0 28.166 5.66699 38.499 17s15.5 25.333 15.5 42v485zM60.001 515c-8 8 -12 18.333 -12 31s4 23 12 31s18.333 12 31 12s23 -4 31 -12
c8.66699 -8 13 -18.333 13 -31s-4.33301 -23 -13 -31c-8 -8 -18.333 -12 -31 -12s-23 4 -31 12z" />
    <glyph glyph-name="uni0459" unicode="&#x459;" horiz-adv-x="666" 
d="M43 0h-24v61h20c36 0 54 40 54 120v199h295v-137h126c34.667 0 63.667 -11.5 87 -34.5s35 -51.833 35 -86.5s-11.667 -63.667 -35 -87s-52.333 -35 -87 -35h-189v319h-169v-151c0 -56 -10 -98 -30 -126s-47.667 -42 -83 -42zM514 183h-126v-122h126
c16 0 29.5 5.83301 40.5 17.5s16.5 26.167 16.5 43.5s-5.5 31.833 -16.5 43.5s-24.5 17.5 -40.5 17.5z" />
    <glyph glyph-name="uni045A" unicode="&#x45a;" horiz-adv-x="681" 
d="M118 172v-172.001h-64v380h64v-147h222v147h63v-147h126c34.667 0 63.667 -11 87 -33s35 -49.667 35 -83s-11.667 -61.166 -35 -83.499s-52.333 -33.5 -87 -33.5h-189v172h-222zM529 171.999h-126v-111h126c16 0 29.5 5.33301 40.5 16s16.5 24 16.5 40
s-5.5 29.167 -16.5 39.5s-24.5 15.5 -40.5 15.5z" />
    <glyph glyph-name="uni045B" unicode="&#x45b;" horiz-adv-x="459" 
d="M118 700l-0.00195312 -120.001h135v-58h-135v-204c28.667 46.667 73.334 70 134.001 70c44.667 0 81.334 -14.333 110.001 -43c29.333 -29.333 44 -65.333 44 -108v-237h-63v220c0 30.667 -10.333 56.334 -31 77.001s-46.334 31 -77.001 31
c-33.333 0 -61.166 -10.5 -83.499 -31.5s-33.5 -46.833 -33.5 -77.5v-219h-64v522h-47v58h47v120h64z" />
    <glyph glyph-name="uni045C" unicode="&#x45c;" horiz-adv-x="382" 
d="M368 0h-78l-171 196l155 184h78l-155 -184zM118 380v-380h-64v380h64zM293 574l-159 -85l-23 39l148 102z" />
    <glyph glyph-name="uni045D" unicode="&#x45d;" horiz-adv-x="459" 
d="M342 274l-234 -274h-54v380h64v-275l234 275h53v-380h-63v274zM300 532l-23 -38l-159 85l34 55z" />
    <glyph glyph-name="uni045E" unicode="&#x45e;" horiz-adv-x="393" 
d="M163 10l-151 370h65l118 -293l121 293h66l-203 -483c-17.333 -42 -38 -72.833 -62 -92.5s-53.333 -29.5 -88 -29.5h-10v60h10c40.667 0 72.667 27.667 96 83zM65 622h57.999c0 -19.333 7 -35.833 21 -49.5s31.333 -20.5 52 -20.5s38 6.83301 52 20.5s21 30.167 21 49.5
h59c0 -34.667 -12.667 -64.667 -38 -90s-56.666 -38 -93.999 -38c-36.667 0 -67.667 12.667 -93 38s-38 55.333 -38 90z" />
    <glyph glyph-name="uni045F" unicode="&#x45f;" horiz-adv-x="448" 
d="M54 0v380h64v-319h213v319h63v-380h-138v-123h-64v123h-138z" />
    <glyph glyph-name="uni0490" unicode="&#x490;" horiz-adv-x="497" 
d="M150 583v-583h-72v650h322v142h71v-209h-321z" />
    <glyph glyph-name="uni0491" unicode="&#x491;" horiz-adv-x="309" 
d="M118 319v-319h-64v380h178v103h63v-164h-177z" />
    <glyph glyph-name="uni04D8" unicode="&#x4d8;" horiz-adv-x="765" 
d="M385 659c95.333 0 174.666 -31.999 237.999 -95.999c64 -62.667 96 -142 96 -238c0 -95.333 -32 -175 -96 -239c-63.333 -64 -142.666 -96 -237.999 -96c-94.667 0 -174 32 -238 96s-96 143.667 -96 239c0 2 0.666992 13 2 33h590
c-7.33301 67.333 -35 122.666 -83 165.999c-48 44 -106.333 66 -175 66c-85.333 0 -152.666 -31.667 -201.999 -95l-69 31c30.667 42 69.667 74.667 117 98s98.666 35 153.999 35zM643 291.001h-515.999c7.33301 -67.333 35 -123 83 -167
c49.333 -43.333 107.666 -65 174.999 -65s125.333 21.667 174 65c48.667 44 76.667 99.667 84 167z" />
    <glyph glyph-name="uni04D9" unicode="&#x4d9;" horiz-adv-x="456" 
d="M31 212l326 0.000976562c-5.33301 34 -20.666 62 -45.999 84s-56 33 -92 33c-48 0 -85 -18 -111 -54l-61 19c37.333 62.667 94.666 94 171.999 94c58 0 106 -19 144 -57c38.667 -36.667 58 -83.667 58 -141c0 -56 -18.667 -103.333 -56 -142
c-36.667 -38 -83.334 -57 -140.001 -57c-55.333 0 -101.666 19 -138.999 57c-37.333 38.667 -56 86 -56 142c0 11.333 0.333008 18.666 1 21.999zM356 161.001h-260.999c6 -32 21.167 -58.333 45.5 -79s53.166 -31 86.499 -31c32 0 60 10.333 84 31s39 47 45 79z" />
    <glyph glyph-name="Wgrave" unicode="&#x1e80;" horiz-adv-x="945" 
d="M299 0h-56l-225 650h73l179 -535l174 535h56l176 -535l178 535h73l-224 -650h-56l-174 526zM520 737l-159 85l34 56l147 -102z" />
    <glyph glyph-name="wgrave" unicode="&#x1e81;" horiz-adv-x="573" 
d="M140 0l-128 380h64l92 -284l91 284h55l92 -283l92 283h63l-129 -380h-55l-90 274l-91 -274h-56zM208 634l148 -102l-23 -38l-159 85z" />
    <glyph glyph-name="Wacute" unicode="&#x1e82;" horiz-adv-x="945" 
d="M299 0h-56l-225 650h73l179 -535l174 535h56l176 -535l178 535h73l-224 -650h-56l-174 526zM580 817l-159 -84l-23 38l148 102z" />
    <glyph glyph-name="wacute" unicode="&#x1e83;" horiz-adv-x="573" 
d="M140 0l-128 380h64l92 -284l91 284h55l92 -283l92 283h63l-129 -380h-55l-90 274l-91 -274h-56zM394 574l-159 -85l-23 39l148 102z" />
    <glyph glyph-name="Wdieresis" unicode="&#x1e84;" horiz-adv-x="945" 
d="M299 0h-56l-225 650h73l179 -535l174 535h56l176 -535l178 535h73l-224 -650h-56l-174 526zM529 753c-8 8.66699 -12.002 19.667 -12.002 33s4.33301 24.333 13 33s19.334 13 32.001 13s23.334 -4.33301 32.001 -13s13 -19.667 13 -33s-4.33301 -24.333 -13 -33
c-8 -8 -18.667 -12 -32 -12s-24.333 4 -33 12zM350.998 819c8.66699 8.66699 19.334 13 32.001 13s23.334 -4.33301 32.001 -13s13 -19.667 13 -33s-4.33301 -24.333 -13 -33c-8.66699 -8 -19.334 -12 -32.001 -12s-23.334 4 -32.001 12c-8.66699 8.66699 -13 19.667 -13 33
s4.33301 24.333 13 33z" />
    <glyph glyph-name="wdieresis" unicode="&#x1e85;" horiz-adv-x="573" 
d="M196 0h-56l-128 380h64l92 -284l91 284h55l92 -283l92 283h63l-129 -380h-55l-90 274zM376 589c18 0.666992 30.833 -6.83301 38.5 -22.5s7.66699 -31.334 0 -47.001s-20.5 -22.834 -38.5 -21.501c-18.667 -1.33301 -32 5.83398 -40 21.501s-8 31.334 0 47.001
s21.333 23.167 40 22.5zM152 543c0 13.333 4.33398 24.333 13.001 33s19.334 13 32.001 13s23.334 -4.5 32.001 -13.5s13 -19.833 13 -32.5c1.33301 -18 -5.83398 -30.833 -21.501 -38.5s-31.334 -7.66699 -47.001 0s-22.834 20.5 -21.501 38.5z" />
    <glyph glyph-name="Germandbls" unicode="&#x1e9e;" horiz-adv-x="603" 
d="M149 433v-433h-71v434c0 62 22.333 113.333 67 154c45.333 41.333 101 62 167 62h238v-58l-133 -189c42 -10 77 -33 105 -69c28.667 -35.333 43 -76.333 43 -123c0 -63.333 -25.667 -116 -77 -158c-50.667 -42 -113.334 -63 -188.001 -63l1 72c54 0 99.667 14 137 42
c37.333 29.333 56 65.333 56 108c0 41.333 -17.667 76 -53 104c-34.667 28.667 -79 43 -133 43l152 222h-145c-47.333 0 -86.666 -14.333 -117.999 -43c-32 -28 -48 -63 -48 -105z" />
    <glyph glyph-name="Ygrave" unicode="&#x1ef2;" horiz-adv-x="618" 
d="M517 650h83l-256 -384v-266h-71v264l-255 386h82l208 -318zM356 737l-159 85l34 56l148 -102z" />
    <glyph glyph-name="ygrave" unicode="&#x1ef3;" horiz-adv-x="393" 
d="M163 10l-151 370h65l118 -293l121 293h66l-203 -483c-17.333 -42 -38 -72.833 -62 -92.5s-53.333 -29.5 -88 -29.5h-10v60h10c40.667 0 72.667 27.667 96 83zM244 494l-159 85l34 55l148 -102z" />
    <glyph glyph-name="figuredash" unicode="&#x2012;" 
d="M77 294v62h446v-62h-446z" />
    <glyph glyph-name="endash" unicode="&#x2013;" 
d="M67 161v58h466v-58h-466z" />
    <glyph glyph-name="emdash" unicode="&#x2014;" horiz-adv-x="1000" 
d="M67 161v58h866v-58h-866z" />
    <glyph glyph-name="quoteleft" unicode="&#x2018;" horiz-adv-x="174" 
d="M37 593c0 50 25 91.668 75 125.001l1 1l21 -22l-12 -13c-19.333 -24 -28.666 -46.667 -27.999 -68c11.333 -1.33301 21 -6.5 29 -15.5s12 -19.833 12 -32.5c0 -12 -4.5 -22.333 -13.5 -31s-20.167 -13 -33.5 -13c-14.667 0 -26.834 6.16699 -36.501 18.5
s-14.5 29.166 -14.5 50.499z" />
    <glyph glyph-name="quoteright" unicode="&#x2019;" horiz-adv-x="174" 
d="M137 640c0 -24 -6.66699 -46.6689 -20 -68.002c-7.33301 -12.667 -15.5 -23.667 -24.5 -33s-16 -15.833 -21 -19.5s-8.5 -5.5 -10.5 -5.5l-21 21l12 13c5.33301 6 11.333 16 18 30c7.33301 16 10.666 29 9.99902 39c-11.333 1.33301 -21 6.5 -29 15.5s-12 19.5 -12 31.5
c0 12.667 4.5 23.334 13.5 32.001s20.167 13 33.5 13c14.667 0 26.834 -6.16699 36.501 -18.5s14.5 -29.166 14.5 -50.499z" />
    <glyph glyph-name="quotesinglbase" unicode="&#x201a;" horiz-adv-x="174" 
d="M137 15c0 -23.333 -6.66699 -45.667 -20 -67c-7.33301 -12.667 -15.5 -23.834 -24.5 -33.501s-16 -16.334 -21 -20.001s-8.5 -5.5 -10.5 -5.5l-21 21l12 14c19.333 24 28.666 46.667 27.999 68c-12 1.33301 -21.833 6.5 -29.5 15.5s-11.5 19.5 -11.5 31.5
c0 12.667 4.5 23.334 13.5 32.001s20.167 13 33.5 13c14.667 0 26.834 -6.16699 36.501 -18.5s14.5 -29.166 14.5 -50.499z" />
    </font>
</defs>
</svg>
