<svg width="86" height="118" viewBox="0 0 86 118" fill="none" xmlns="http://www.w3.org/2000/svg">
<path d="M7.54478 97L12.8855 84.7753H14.8623L20.203 97H17.9488L16.7176 94.0695H10.9781L9.72962 97H7.54478ZM11.7584 92.1795H15.9373L13.8392 87.3243L11.7584 92.1795ZM22.0417 97V87.8445H24.1398V89.2317C24.9028 88.1797 25.8334 87.6537 26.9316 87.6537C28.2032 87.6537 29.1106 88.1913 29.654 89.2664C30.4747 88.1913 31.5093 87.6537 32.7578 87.6537C33.7635 87.6537 34.5496 87.9601 35.1161 88.5728C35.6825 89.1854 35.9657 90.0467 35.9657 91.1564V97H33.8676V91.798C33.8676 91.0697 33.7057 90.5148 33.3821 90.1334C33.0584 89.7519 32.6018 89.5611 32.0122 89.5611C31.4226 89.5611 30.9487 89.7634 30.5903 90.168C30.232 90.5611 30.0528 91.116 30.0528 91.8327V97H27.9546V91.7807C27.9546 91.0755 27.7928 90.5322 27.4691 90.1507C27.1454 89.7577 26.6888 89.5611 26.0993 89.5611C25.5097 89.5611 25.0357 89.7692 24.6774 90.1854C24.319 90.59 24.1398 91.1449 24.1398 91.85V97H22.0417ZM46.1997 97H44.1189V95.8729C43.3791 96.7515 42.3907 97.1907 41.1538 97.1907C40.2405 97.1907 39.466 96.9422 38.8302 96.4451C38.206 95.9365 37.8938 95.2313 37.8938 94.3296C37.8938 93.347 38.2349 92.6014 38.9169 92.0928C39.5989 91.5841 40.4948 91.3298 41.6046 91.3298C42.4947 91.3298 43.3386 91.457 44.1362 91.7113V91.5379C44.1362 90.9021 43.9397 90.4166 43.5467 90.0813C43.1652 89.7461 42.6103 89.5785 41.882 89.5785C41.0497 89.5785 40.1769 89.7692 39.2637 90.1507L38.6915 88.4687C39.8244 87.9601 40.9861 87.7058 42.1768 87.7058C43.5062 87.7058 44.5062 88.041 45.1766 88.7115C45.8587 89.382 46.1997 90.3357 46.1997 91.5726V97ZM44.1709 93.6881V93.1679C43.5467 92.9251 42.8473 92.8037 42.0728 92.8037C41.4139 92.8037 40.8994 92.9309 40.5295 93.1852C40.1596 93.4395 39.9746 93.7979 39.9746 94.2603C39.9746 94.6764 40.1423 95.0059 40.4775 95.2487C40.8127 95.4914 41.2347 95.6128 41.7433 95.6128C42.4485 95.6128 43.0265 95.4336 43.4773 95.0753C43.9397 94.7169 44.1709 94.2545 44.1709 93.6881ZM48.279 97V95.5608L53.5677 89.5611H48.4698V87.8445H56.2381V89.2837L50.9494 95.2833H56.2381V97H48.279ZM62.4965 97.2081C61.1093 97.2081 59.9533 96.7457 59.0285 95.8209C58.1037 94.8961 57.6413 93.769 57.6413 92.4396C57.6413 91.1102 58.1094 89.9831 59.0458 89.0583C59.9822 88.1219 61.1439 87.6537 62.5311 87.6537C63.9183 87.6537 65.0743 88.1161 65.9991 89.0409C66.9355 89.9657 67.4037 91.0986 67.4037 92.4396C67.4037 93.7574 66.9355 94.8845 65.9991 95.8209C65.0628 96.7457 63.8952 97.2081 62.4965 97.2081ZM62.5311 95.3874C63.3635 95.3874 64.0339 95.1042 64.5426 94.5377C65.0512 93.9713 65.3055 93.2719 65.3055 92.4396C65.3055 91.6188 65.0397 90.9252 64.5079 90.3588C63.9761 89.7808 63.3057 89.4918 62.4965 89.4918C61.6757 89.4918 61.011 89.775 60.5024 90.3414C59.9937 90.9079 59.7394 91.6073 59.7394 92.4396C59.7394 93.2488 60.0053 93.9424 60.537 94.5204C61.0688 95.0984 61.7335 95.3874 62.5311 95.3874ZM69.5404 97V87.8445H71.6386V89.2664C72.3668 88.1913 73.3205 87.6537 74.4997 87.6537C75.5169 87.6537 76.3146 87.9716 76.8926 88.6074C77.4706 89.2432 77.7596 90.0987 77.7596 91.1738V97H75.6614V91.798C75.6614 91.0813 75.488 90.5322 75.1412 90.1507C74.806 89.7577 74.3263 89.5611 73.702 89.5611C73.0893 89.5611 72.5923 89.7634 72.2108 90.168C71.8293 90.5726 71.6386 91.1275 71.6386 91.8327V97H69.5404ZM3.01504 114L8.35576 101.775H10.3325L15.6732 114H13.419L12.1879 111.07H6.44836L5.19988 114H3.01504ZM7.22866 109.179H11.4076L9.30946 104.324L7.22866 109.179ZM17.512 116.774V104.844H19.6101V106.37C20.4193 105.226 21.4539 104.654 22.714 104.654C23.87 104.654 24.8699 105.087 25.7138 105.954C26.5577 106.81 26.9796 107.971 26.9796 109.44C26.9796 110.885 26.5577 112.041 25.7138 112.908C24.8699 113.763 23.87 114.191 22.714 114.191C21.4539 114.191 20.4193 113.653 19.6101 112.578V116.774H17.512ZM22.2284 112.37C22.9683 112.37 23.5867 112.098 24.0838 111.555C24.5925 111.012 24.8468 110.295 24.8468 109.405C24.8468 108.538 24.5925 107.833 24.0838 107.289C23.5752 106.746 22.9567 106.474 22.2284 106.474C21.5002 106.474 20.8701 106.752 20.3384 107.307C19.8182 107.862 19.5581 108.573 19.5581 109.44C19.5581 110.295 19.8182 111 20.3384 111.555C20.8701 112.098 21.5002 112.37 22.2284 112.37ZM29.1284 116.774V104.844H31.2265V106.37C32.0357 105.226 33.0704 104.654 34.3304 104.654C35.4864 104.654 36.4863 105.087 37.3302 105.954C38.1741 106.81 38.596 107.971 38.596 109.44C38.596 110.885 38.1741 112.041 37.3302 112.908C36.4863 113.763 35.4864 114.191 34.3304 114.191C33.0704 114.191 32.0357 113.653 31.2265 112.578V116.774H29.1284ZM33.8449 112.37C34.5847 112.37 35.2032 112.098 35.7003 111.555C36.2089 111.012 36.4632 110.295 36.4632 109.405C36.4632 108.538 36.2089 107.833 35.7003 107.289C35.1916 106.746 34.5732 106.474 33.8449 106.474C33.1166 106.474 32.4866 106.752 31.9548 107.307C31.4346 107.862 31.1745 108.573 31.1745 109.44C31.1745 110.295 31.4346 111 31.9548 111.555C32.4866 112.098 33.1166 112.37 33.8449 112.37ZM43.8834 114.173C42.4499 114.173 41.1552 113.717 39.9992 112.804L40.9356 111.382C41.9297 112.133 42.9297 112.509 43.9354 112.509C44.3863 112.509 44.7331 112.422 44.9758 112.249C45.2301 112.064 45.3573 111.809 45.3573 111.486C45.3573 111.324 45.311 111.185 45.2186 111.07C45.1377 110.942 44.9874 110.827 44.7677 110.723C44.5481 110.619 44.3631 110.544 44.2129 110.497C44.0626 110.451 43.814 110.376 43.4672 110.272L43.3112 110.22C42.9875 110.127 42.71 110.041 42.4788 109.96C42.2592 109.867 42.0107 109.746 41.7332 109.596C41.4558 109.445 41.2304 109.284 41.057 109.11C40.8836 108.925 40.7391 108.694 40.6235 108.417C40.5079 108.139 40.4501 107.827 40.4501 107.48C40.4501 106.636 40.7564 105.96 41.3691 105.451C41.9933 104.943 42.7736 104.688 43.71 104.688C44.9007 104.688 46.022 105.035 47.0739 105.729L46.2416 107.22C45.2937 106.642 44.4325 106.353 43.658 106.353C43.2534 106.353 42.9355 106.44 42.7043 106.613C42.4846 106.787 42.3748 107.018 42.3748 107.307C42.3748 107.503 42.4731 107.682 42.6696 107.844C42.8777 108.006 43.08 108.128 43.2765 108.208C43.4846 108.278 43.814 108.388 44.2649 108.538C44.288 108.549 44.3169 108.561 44.3516 108.573C44.3862 108.584 44.4151 108.59 44.4383 108.59C44.8429 108.717 45.1839 108.844 45.4613 108.971C45.7388 109.087 46.0278 109.249 46.3283 109.457C46.6404 109.665 46.8774 109.925 47.0393 110.237C47.2011 110.538 47.282 110.89 47.282 111.295C47.282 112.22 46.9641 112.931 46.3283 113.428C45.6925 113.925 44.8775 114.173 43.8834 114.173ZM52.3147 114.156C50.5576 114.156 49.679 113.26 49.679 111.468V106.648H48.5172V104.844H49.679V102.33H51.7772V104.844H54.2394V106.648H51.7772V111.139C51.7772 111.902 52.1529 112.283 52.9043 112.283C53.3551 112.283 53.7886 112.179 54.2048 111.971V113.688C53.6499 114 53.0199 114.156 52.3147 114.156ZM60.456 114.208C59.0688 114.208 57.9128 113.746 56.988 112.821C56.0632 111.896 55.6008 110.769 55.6008 109.44C55.6008 108.11 56.0689 106.983 57.0053 106.058C57.9417 105.122 59.1034 104.654 60.4906 104.654C61.8778 104.654 63.0338 105.116 63.9586 106.041C64.895 106.966 65.3632 108.099 65.3632 109.44C65.3632 110.757 64.895 111.885 63.9586 112.821C63.0223 113.746 61.8547 114.208 60.456 114.208ZM60.4906 112.387C61.323 112.387 61.9934 112.104 62.5021 111.538C63.0107 110.971 63.265 110.272 63.265 109.44C63.265 108.619 62.9992 107.925 62.4674 107.359C61.9356 106.781 61.2652 106.492 60.456 106.492C59.6352 106.492 58.9705 106.775 58.4619 107.341C57.9532 107.908 57.6989 108.607 57.6989 109.44C57.6989 110.249 57.9648 110.942 58.4965 111.52C59.0283 112.098 59.693 112.387 60.4906 112.387ZM67.4999 114V104.844H69.5981V106.908C70.2454 105.347 71.3263 104.602 72.8407 104.671V106.891H72.7193C71.7714 106.891 71.0142 107.203 70.4477 107.827C69.8813 108.44 69.5981 109.336 69.5981 110.515V114H67.4999ZM78.5543 114.208C77.2134 114.208 76.092 113.763 75.1904 112.873C74.3002 111.983 73.8552 110.833 73.8552 109.422C73.8552 108.093 74.2771 106.966 75.121 106.041C75.9649 105.116 77.0342 104.654 78.3289 104.654C79.7161 104.654 80.7912 105.128 81.5541 106.076C82.3287 107.012 82.7159 108.18 82.7159 109.578C82.7159 109.833 82.7044 110.029 82.6812 110.168H75.9533C76.0689 110.896 76.3637 111.468 76.8377 111.885C77.3116 112.289 77.8954 112.491 78.589 112.491C79.4907 112.491 80.3172 112.127 81.0686 111.399L82.2998 112.491C81.3518 113.636 80.1034 114.208 78.5543 114.208ZM75.936 108.781H80.6351C80.5658 108.075 80.3288 107.497 79.9242 107.047C79.5196 106.596 78.982 106.37 78.3116 106.37C77.6758 106.37 77.144 106.596 76.7163 107.047C76.2886 107.486 76.0285 108.064 75.936 108.781Z" fill="#DCD2FF"/>
<path d="M68.7295 56.8005C40.2503 70.3543 22.5757 59.0143 11.2617 52.1266C10.5616 51.6925 9.37165 52.2281 10.4041 53.4139C14.1734 57.9843 26.526 69.0001 42.6499 69.0001C58.7849 69.0001 68.3837 60.1961 69.5844 58.6603C70.7771 57.1375 69.9346 56.2975 68.7293 56.8005H68.7295ZM76.7279 52.3834C75.9631 51.3875 72.0774 51.2019 69.6321 51.5022C67.1829 51.794 63.5067 53.2908 63.8263 54.1896C63.9903 54.5262 64.3251 54.3752 66.0076 54.2239C67.6947 54.0556 72.4209 53.4591 73.4057 54.7465C74.3951 56.0428 71.8983 62.2179 71.4423 63.2138C71.0017 64.2097 71.6106 64.4666 72.4382 63.8032C73.2544 63.1402 74.732 61.4231 75.7236 58.9932C76.7084 56.5499 77.3089 53.1417 76.7276 52.3834H76.7279Z" fill="white"/>
<path fill-rule="evenodd" clip-rule="evenodd" d="M49.5811 29.1442C49.5811 32.7005 49.6709 35.6663 47.8734 38.8245C46.4226 41.3924 44.1244 42.9715 41.5567 42.9715C38.0516 42.9715 36.0103 40.301 36.0103 36.3596C36.0103 28.5791 42.9816 27.167 49.5811 27.167V29.1442ZM58.7864 51.3939C58.1829 51.933 57.3098 51.9717 56.6295 51.612C53.5996 49.0958 53.0602 47.9275 51.3913 45.5265C46.3842 50.6364 42.8406 52.1641 36.3442 52.1641C28.6666 52.1641 22.6836 47.4266 22.6836 37.9387C22.6836 30.5309 26.7024 25.4851 32.4153 23.0202C37.3712 20.8373 44.2914 20.4522 49.5811 19.849V18.6677C49.5811 16.4979 49.7478 13.9302 48.4769 12.0558C47.3598 10.3739 45.2286 9.68054 43.354 9.68054C39.8748 9.68054 36.7678 11.465 36.0103 15.1626C35.856 15.9845 35.2528 16.7934 34.4312 16.8318L25.5722 15.8819C24.8278 15.7147 24.0061 15.1115 24.2115 13.9686C26.2529 3.2356 35.9459 0 44.6248 0C49.0671 0 54.8702 1.18128 58.3753 4.54515C62.8176 8.69195 62.3938 14.2254 62.3938 20.2468V34.4723C62.3938 38.7476 64.1656 40.622 65.8345 42.9331C66.425 43.7547 66.5536 44.7436 65.8088 45.3595C63.9472 46.9129 60.6347 49.8018 58.8118 51.4196L58.7861 51.3939" fill="white"/>
<path d="M68.7295 56.8005C40.2503 70.3543 22.5757 59.0143 11.2617 52.1266C10.5616 51.6925 9.37165 52.2281 10.4041 53.4139C14.1734 57.9843 26.526 69.0001 42.6499 69.0001C58.7849 69.0001 68.3837 60.1961 69.5844 58.6603C70.7771 57.1375 69.9346 56.2975 68.7293 56.8005H68.7295ZM76.7279 52.3834C75.9631 51.3875 72.0774 51.2019 69.6321 51.5022C67.1829 51.794 63.5067 53.2908 63.8263 54.1896C63.9903 54.5262 64.3251 54.3752 66.0076 54.2239C67.6947 54.0556 72.4209 53.4591 73.4057 54.7465C74.3951 56.0428 71.8983 62.2179 71.4423 63.2138C71.0017 64.2097 71.6106 64.4666 72.4382 63.8032C73.2544 63.1402 74.732 61.4231 75.7236 58.9932C76.7084 56.5499 77.3089 53.1417 76.7276 52.3834H76.7279Z" fill="white"/>
<path fill-rule="evenodd" clip-rule="evenodd" d="M49.5811 29.1442C49.5811 32.7005 49.6709 35.6663 47.8734 38.8245C46.4226 41.3924 44.1244 42.9715 41.5567 42.9715C38.0516 42.9715 36.0103 40.301 36.0103 36.3596C36.0103 28.5791 42.9816 27.167 49.5811 27.167V29.1442ZM58.7864 51.3939C58.1829 51.933 57.3098 51.9717 56.6295 51.612C53.5996 49.0958 53.0602 47.9275 51.3913 45.5265C46.3842 50.6364 42.8406 52.1641 36.3442 52.1641C28.6666 52.1641 22.6836 47.4266 22.6836 37.9387C22.6836 30.5309 26.7024 25.4851 32.4153 23.0202C37.3712 20.8373 44.2914 20.4522 49.5811 19.849V18.6677C49.5811 16.4979 49.7478 13.9302 48.4769 12.0558C47.3598 10.3739 45.2286 9.68054 43.354 9.68054C39.8748 9.68054 36.7678 11.465 36.0103 15.1626C35.856 15.9845 35.2528 16.7934 34.4312 16.8318L25.5722 15.8819C24.8278 15.7147 24.0061 15.1115 24.2115 13.9686C26.2529 3.2356 35.9459 0 44.6248 0C49.0671 0 54.8702 1.18128 58.3753 4.54515C62.8176 8.69195 62.3938 14.2254 62.3938 20.2468V34.4723C62.3938 38.7476 64.1656 40.622 65.8345 42.9331C66.425 43.7547 66.5536 44.7436 65.8088 45.3595C63.9472 46.9129 60.6347 49.8018 58.8118 51.4196L58.7861 51.3939" fill="white"/>
</svg>
