<svg width="110" height="121" viewBox="0 0 110 121" fill="none" xmlns="http://www.w3.org/2000/svg">
<path d="M13.6932 94V81.862H22.7273V83.8041H15.826V87.116H21.947V89.0581H15.826V94H13.6932ZM32.0712 94H29.9904V92.8729C29.2505 93.7515 28.2621 94.1907 27.0252 94.1907C26.112 94.1907 25.3375 93.9422 24.7017 93.4451C24.0774 92.9365 23.7653 92.2313 23.7653 91.3296C23.7653 90.347 24.1063 89.6014 24.7884 89.0928C25.4704 88.5841 26.3663 88.3298 27.4761 88.3298C28.3662 88.3298 29.2101 88.457 30.0077 88.7113V88.5379C30.0077 87.9021 29.8112 87.4166 29.4181 87.0813C29.0367 86.7461 28.4818 86.5785 27.7535 86.5785C26.9212 86.5785 26.0484 86.7692 25.1352 87.1507L24.5629 85.4687C25.6958 84.9601 26.8576 84.7058 28.0483 84.7058C29.3777 84.7058 30.3776 85.041 31.0481 85.7115C31.7301 86.382 32.0712 87.3357 32.0712 88.5726V94ZM30.0424 90.6881V90.1679C29.4181 89.9251 28.7188 89.8037 27.9442 89.8037C27.2853 89.8037 26.7709 89.9309 26.401 90.1852C26.0311 90.4395 25.8461 90.7979 25.8461 91.2603C25.8461 91.6764 26.0137 92.0059 26.349 92.2487C26.6842 92.4914 27.1061 92.6128 27.6148 92.6128C28.3199 92.6128 28.8979 92.4336 29.3488 92.0753C29.8112 91.7169 30.0424 91.2545 30.0424 90.6881ZM38.7976 94.2081C37.4451 94.2081 36.318 93.7457 35.4163 92.8209C34.5146 91.8961 34.0638 90.769 34.0638 89.4396C34.0638 88.1217 34.5146 86.9946 35.4163 86.0583C36.3295 85.1219 37.4624 84.6537 38.8149 84.6537C40.2946 84.6537 41.5142 85.1797 42.4737 86.2317L41.1732 87.6362C40.4449 86.8733 39.653 86.4918 38.7976 86.4918C38.0462 86.4918 37.4162 86.7808 36.9075 87.3588C36.4105 87.9252 36.1619 88.6188 36.1619 89.4396C36.1619 90.2719 36.4162 90.9713 36.9249 91.5377C37.4451 92.1042 38.104 92.3874 38.9016 92.3874C39.7455 92.3874 40.5374 92.0059 41.2772 91.2429L42.543 92.4914C42.046 93.0463 41.5026 93.474 40.9131 93.7746C40.3351 94.0636 39.6299 94.2081 38.7976 94.2081ZM48.4151 94.2081C47.0741 94.2081 45.9528 93.763 45.0511 92.8729C44.161 91.9828 43.7159 90.8326 43.7159 89.4222C43.7159 88.0928 44.1379 86.9657 44.9817 86.0409C45.8256 85.1161 46.8949 84.6537 48.1896 84.6537C49.5768 84.6537 50.6519 85.1277 51.4149 86.0756C52.1894 87.012 52.5767 88.1795 52.5767 89.5783C52.5767 89.8326 52.5651 90.0291 52.542 90.1679H45.8141C45.9297 90.8961 46.2244 91.4684 46.6984 91.8845C47.1724 92.2891 47.7561 92.4914 48.4497 92.4914C49.3514 92.4914 50.178 92.1273 50.9294 91.399L52.1605 92.4914C51.2126 93.6359 49.9641 94.2081 48.4151 94.2081ZM45.7967 88.7807H50.4959C50.4265 88.0755 50.1895 87.4975 49.7849 87.0467C49.3803 86.5958 48.8428 86.3704 48.1723 86.3704C47.5365 86.3704 47.0047 86.5958 46.577 87.0467C46.1493 87.4859 45.8892 88.0639 45.7967 88.7807ZM59.8857 94.1907C58.6257 94.1907 57.5911 93.6532 56.7819 92.5781V94H54.6837V81.3418H56.7819V86.3704C57.5911 85.226 58.6257 84.6537 59.8857 84.6537C61.0417 84.6537 62.0417 85.0872 62.8856 85.9542C63.7294 86.8097 64.1514 87.9715 64.1514 89.4396C64.1514 90.8846 63.7294 92.0406 62.8856 92.9076C62.0417 93.763 61.0417 94.1907 59.8857 94.1907ZM59.4002 92.37C60.1401 92.37 60.7585 92.0984 61.2556 91.5551C61.7642 91.0117 62.0186 90.295 62.0186 89.4049C62.0186 88.5379 61.7642 87.8327 61.2556 87.2894C60.747 86.7461 60.1285 86.4744 59.4002 86.4744C58.6719 86.4744 58.0419 86.7519 57.5102 87.3068C56.99 87.8616 56.7299 88.5726 56.7299 89.4396C56.7299 90.295 56.99 91.0002 57.5102 91.5551C58.0419 92.0984 58.6719 92.37 59.4002 92.37ZM70.6525 94.2081C69.2653 94.2081 68.1093 93.7457 67.1845 92.8209C66.2597 91.8961 65.7973 90.769 65.7973 89.4396C65.7973 88.1102 66.2655 86.9831 67.2019 86.0583C68.1382 85.1219 69.3 84.6537 70.6872 84.6537C72.0744 84.6537 73.2304 85.1161 74.1552 86.0409C75.0916 86.9657 75.5598 88.0986 75.5598 89.4396C75.5598 90.7574 75.0916 91.8845 74.1552 92.8209C73.2189 93.7457 72.0513 94.2081 70.6525 94.2081ZM70.6872 92.3874C71.5195 92.3874 72.19 92.1042 72.6987 91.5377C73.2073 90.9713 73.4616 90.2719 73.4616 89.4396C73.4616 88.6188 73.1957 87.9252 72.664 87.3588C72.1322 86.7808 71.4617 86.4918 70.6525 86.4918C69.8318 86.4918 69.1671 86.775 68.6584 87.3414C68.1498 87.9079 67.8955 88.6073 67.8955 89.4396C67.8955 90.2488 68.1614 90.9424 68.6931 91.5204C69.2249 92.0984 69.8896 92.3874 70.6872 92.3874ZM82.0488 94.2081C80.6616 94.2081 79.5056 93.7457 78.5808 92.8209C77.656 91.8961 77.1936 90.769 77.1936 89.4396C77.1936 88.1102 77.6618 86.9831 78.5982 86.0583C79.5345 85.1219 80.6963 84.6537 82.0835 84.6537C83.4707 84.6537 84.6267 85.1161 85.5515 86.0409C86.4879 86.9657 86.9561 88.0986 86.9561 89.4396C86.9561 90.7574 86.4879 91.8845 85.5515 92.8209C84.6152 93.7457 83.4476 94.2081 82.0488 94.2081ZM82.0835 92.3874C82.9158 92.3874 83.5863 92.1042 84.095 91.5377C84.6036 90.9713 84.8579 90.2719 84.8579 89.4396C84.8579 88.6188 84.592 87.9252 84.0603 87.3588C83.5285 86.7808 82.858 86.4918 82.0488 86.4918C81.2281 86.4918 80.5634 86.775 80.0547 87.3414C79.5461 87.9079 79.2918 88.6073 79.2918 89.4396C79.2918 90.2488 79.5577 90.9424 80.0894 91.5204C80.6212 92.0984 81.2859 92.3874 82.0835 92.3874ZM89.0928 94V81.3418H91.191V88.902L94.9884 84.8445H97.5374L93.896 88.5726L97.6588 94H95.2312L92.4741 90.0465L91.191 91.3817V94H89.0928ZM32.5398 115.208C30.667 115.208 29.1469 114.619 27.9793 113.439C26.8233 112.249 26.2453 110.746 26.2453 108.931C26.2453 107.197 26.8349 105.717 28.014 104.492C29.2047 103.267 30.7017 102.654 32.5051 102.654C33.5224 102.654 34.3894 102.793 35.1061 103.07C35.8228 103.336 36.5106 103.746 37.1695 104.301L35.817 105.914C35.3084 105.475 34.794 105.151 34.2738 104.943C33.7651 104.723 33.1467 104.613 32.4184 104.613C31.3086 104.613 30.3723 105.035 29.6093 105.879C28.8579 106.723 28.4822 107.74 28.4822 108.931C28.4822 110.191 28.8637 111.231 29.6266 112.052C30.3896 112.861 31.3838 113.266 32.6091 113.266C33.742 113.266 34.7188 112.96 35.5396 112.347V110.075H32.4357V108.22H37.603V113.318C36.1349 114.578 34.4472 115.208 32.5398 115.208ZM47.9887 115H45.9079V113.873C45.1681 114.751 44.1797 115.191 42.9428 115.191C42.0296 115.191 41.255 114.942 40.6192 114.445C39.995 113.936 39.6829 113.231 39.6829 112.33C39.6829 111.347 40.0239 110.601 40.7059 110.093C41.388 109.584 42.2839 109.33 43.3936 109.33C44.2838 109.33 45.1276 109.457 45.9253 109.711V109.538C45.9253 108.902 45.7288 108.417 45.3357 108.081C44.9542 107.746 44.3994 107.578 43.6711 107.578C42.8388 107.578 41.966 107.769 41.0527 108.151L40.4805 106.469C41.6134 105.96 42.7752 105.706 43.9659 105.706C45.2953 105.706 46.2952 106.041 46.9657 106.711C47.6477 107.382 47.9887 108.336 47.9887 109.573V115ZM45.96 111.688V111.168C45.3357 110.925 44.6363 110.804 43.8618 110.804C43.2029 110.804 42.6885 110.931 42.3186 111.185C41.9486 111.44 41.7637 111.798 41.7637 112.26C41.7637 112.676 41.9313 113.006 42.2665 113.249C42.6018 113.491 43.0237 113.613 43.5324 113.613C44.2375 113.613 44.8155 113.434 45.2664 113.075C45.7288 112.717 45.96 112.254 45.96 111.688ZM50.4842 115V105.844H52.5824V107.232C53.3453 106.18 54.2759 105.654 55.3741 105.654C56.6457 105.654 57.5532 106.191 58.0965 107.266C58.9172 106.191 59.9519 105.654 61.2003 105.654C62.2061 105.654 62.9921 105.96 63.5586 106.573C64.125 107.185 64.4082 108.047 64.4082 109.156V115H62.3101V109.798C62.3101 109.07 62.1483 108.515 61.8246 108.133C61.5009 107.752 61.0443 107.561 60.4547 107.561C59.8652 107.561 59.3912 107.763 59.0328 108.168C58.6745 108.561 58.4953 109.116 58.4953 109.833V115H56.3972V109.781C56.3972 109.075 56.2353 108.532 55.9116 108.151C55.588 107.758 55.1313 107.561 54.5418 107.561C53.9522 107.561 53.4783 107.769 53.1199 108.185C52.7615 108.59 52.5824 109.145 52.5824 109.85V115H50.4842ZM71.1569 115.208C69.8159 115.208 68.6946 114.763 67.7929 113.873C66.9028 112.983 66.4577 111.833 66.4577 110.422C66.4577 109.093 66.8797 107.966 67.7236 107.041C68.5674 106.116 69.6367 105.654 70.9315 105.654C72.3187 105.654 73.3937 106.128 74.1567 107.076C74.9312 108.012 75.3185 109.18 75.3185 110.578C75.3185 110.833 75.3069 111.029 75.2838 111.168H68.5559C68.6715 111.896 68.9663 112.468 69.4402 112.885C69.9142 113.289 70.498 113.491 71.1916 113.491C72.0932 113.491 72.9198 113.127 73.6712 112.399L74.9023 113.491C73.9544 114.636 72.7059 115.208 71.1569 115.208ZM68.5385 109.781H73.2377C73.1683 109.075 72.9313 108.497 72.5267 108.047C72.1221 107.596 71.5846 107.37 70.9141 107.37C70.2783 107.37 69.7466 107.596 69.3188 108.047C68.8911 108.486 68.631 109.064 68.5385 109.781ZM80.5641 115.173C79.1307 115.173 77.8359 114.717 76.6799 113.804L77.6163 112.382C78.6105 113.133 79.6104 113.509 80.6161 113.509C81.067 113.509 81.4138 113.422 81.6565 113.249C81.9108 113.064 82.038 112.809 82.038 112.486C82.038 112.324 81.9918 112.185 81.8993 112.07C81.8184 111.942 81.6681 111.827 81.4484 111.723C81.2288 111.619 81.0438 111.544 80.8936 111.497C80.7433 111.451 80.4947 111.376 80.1479 111.272L79.9919 111.22C79.6682 111.127 79.3908 111.041 79.1596 110.96C78.9399 110.867 78.6914 110.746 78.4139 110.596C78.1365 110.445 77.9111 110.284 77.7377 110.11C77.5643 109.925 77.4198 109.694 77.3042 109.417C77.1886 109.139 77.1308 108.827 77.1308 108.48C77.1308 107.636 77.4371 106.96 78.0498 106.451C78.674 105.943 79.4543 105.688 80.3907 105.688C81.5814 105.688 82.7027 106.035 83.7547 106.729L82.9223 108.22C81.9744 107.642 81.1132 107.353 80.3387 107.353C79.9341 107.353 79.6162 107.44 79.385 107.613C79.1653 107.787 79.0555 108.018 79.0555 108.307C79.0555 108.503 79.1538 108.682 79.3503 108.844C79.5584 109.006 79.7607 109.128 79.9572 109.208C80.1653 109.278 80.4947 109.388 80.9456 109.538C80.9687 109.549 80.9976 109.561 81.0323 109.573C81.067 109.584 81.0959 109.59 81.119 109.59C81.5236 109.717 81.8646 109.844 82.142 109.971C82.4195 110.087 82.7085 110.249 83.009 110.457C83.3212 110.665 83.5581 110.925 83.72 111.237C83.8818 111.538 83.9627 111.89 83.9627 112.295C83.9627 113.22 83.6448 113.931 83.009 114.428C82.3732 114.925 81.5583 115.173 80.5641 115.173Z" fill="#DCD2FF"/>
<path d="M84.5481 32.9593L77.6607 29.0278C78.0893 30.7127 78.3849 32.442 78.5475 34.2156C78.6953 35.797 78.7544 37.3637 78.6953 38.9303L84.5481 35.5162C85.0063 35.2502 85.2871 34.7624 85.2871 34.2451C85.3019 33.713 85.0063 33.2253 84.5481 32.9593ZM67.2557 43.7042C66.2063 42.7288 65.2604 41.6498 64.2849 40.6005C63.4425 39.6989 62.4226 39.2703 61.1811 39.2851C56.4516 39.2998 51.722 39.3146 46.9777 39.2851C46.0909 39.2851 45.3223 39.4624 44.6425 39.8467C44.2286 40.0832 43.8296 40.3936 43.4748 40.7926C42.0264 42.3593 40.5484 43.9112 39.0261 45.3891C38.1984 46.1873 37.2821 46.9263 36.3214 47.5766C34.0896 49.0693 31.3701 48.2269 30.3503 45.7439C29.4044 43.4234 29.3453 40.9552 29.2123 38.5017C29.1975 38.1766 29.2123 37.8514 29.2123 37.5263C29.2862 31.0527 30.7937 25.0077 34.5478 19.6426C36.6613 16.6127 39.5138 14.8687 43.327 15.0313C45.677 15.1347 47.8053 15.9624 49.7711 17.2187C52.3871 18.9036 54.9884 19.0219 57.6044 17.5586L27.217 0.192292C26.7588 -0.0737455 26.1824 -0.0589656 25.739 0.207072C25.2808 0.47311 25 0.946066 25 1.47814L25.2956 67.5294C25.2956 68.0615 25.5764 68.5492 26.0346 68.8005C26.4928 69.0665 27.0544 69.0665 27.5126 68.8005L74.483 41.3986L68.4972 44.8866C68.0981 44.4876 67.6695 44.0885 67.2557 43.7042Z" fill="white"/>
<path d="M65.4698 22.4506C65.8245 22.6871 66.2532 22.8201 66.6966 22.8201C67.3025 22.8201 67.8346 22.5689 68.2337 22.1698C68.5736 21.8151 68.8101 21.3422 68.8544 20.8249C68.8692 20.7362 68.8692 20.6475 68.8692 20.5736C68.8544 19.3912 67.8642 18.4453 66.6522 18.4453C65.4403 18.4601 64.45 19.4651 64.4648 20.6918C64.4648 20.8249 64.4796 20.9431 64.5091 21.0761C64.6274 21.6378 64.9821 22.1403 65.4698 22.4506ZM60.9176 27.8009C62.0852 27.8157 63.105 26.8403 63.1346 25.6579C63.1642 24.505 62.1887 23.4557 61.0506 23.3966H60.9472C59.7648 23.3818 58.7745 24.3572 58.7598 25.5544V25.7465C58.8337 26.8994 59.7352 27.7862 60.9176 27.8009ZM69.8151 25.5544C69.7856 26.8107 70.7315 27.7862 71.973 27.8009C72.2242 27.8009 72.4755 27.7566 72.712 27.6679C73.5396 27.3723 74.1604 26.5742 74.19 25.6579C74.2195 24.4755 73.1849 23.3966 72.0025 23.3818C71.7069 23.3818 71.4113 23.4409 71.1601 23.5444C70.3767 23.8843 69.8299 24.6528 69.8151 25.5544ZM66.6522 32.8704C67.1104 32.8704 67.5242 32.7522 67.8789 32.5305C68.4554 32.161 68.8396 31.5107 68.8544 30.7569C68.8692 30.1657 68.6623 29.6336 68.3076 29.2198C67.9233 28.7764 67.3469 28.4808 66.7113 28.4808C65.7802 28.466 64.923 29.1164 64.6126 29.9736C64.5387 30.1805 64.4944 30.4022 64.4944 30.6239V30.6387C64.45 31.8506 65.4255 32.8556 66.6522 32.8704Z" fill="white"/>
<path fill-rule="evenodd" clip-rule="evenodd" d="M46.7714 26.6925C45.5891 26.7368 44.4067 26.7073 43.1799 26.7073V24.2686C43.1652 21.8595 43.4903 22.1846 41.0664 22.1551C39.8693 22.1403 39.8545 22.1698 39.8545 23.3818V26.6925C38.5834 26.6925 37.4454 26.7368 36.3073 26.6777C35.5092 26.6482 35.2136 26.9585 35.3023 27.7271C35.3466 28.1557 35.3466 28.5991 35.3023 29.0277C35.2136 29.8258 35.5683 30.0771 36.3369 30.0327C37.4897 29.9884 38.6425 30.018 39.8693 30.018C39.8693 30.8604 39.8545 31.5846 39.8693 32.3088C39.8988 34.9397 39.4702 34.5702 42.2931 34.6145C42.9435 34.6293 43.2243 34.378 43.1947 33.6982C43.1652 32.5158 43.1799 31.3186 43.1799 30.0032C44.0076 30.0032 44.7318 30.018 45.456 30.0032C48.1164 29.9588 47.7026 30.4022 47.7617 27.668C47.7765 26.9733 47.5252 26.6629 46.7714 26.6925Z" fill="white"/>
</svg>
