<svg width="83" height="115" viewBox="0 0 83 115" fill="none" xmlns="http://www.w3.org/2000/svg">
<path d="M11.9577 111.854V99.716H16.7435C18.1538 99.716 19.2752 100.086 20.1075 100.826C20.9398 101.566 21.356 102.56 21.356 103.808C21.356 105.115 20.8936 106.132 19.9688 106.86C19.0555 107.588 17.8995 107.953 16.5008 107.953H14.0905V111.854H11.9577ZM14.0905 106.028H16.5701C17.3678 106.028 18.0036 105.825 18.4775 105.421C18.9515 105.016 19.1885 104.485 19.1885 103.826C19.1885 103.132 18.9515 102.6 18.4775 102.23C18.0151 101.849 17.3793 101.658 16.5701 101.658H14.0905V106.028ZM25.3396 114.68C24.5766 114.68 23.8541 114.495 23.1721 114.126L23.883 112.565C24.3107 112.796 24.7211 112.912 25.1141 112.912C25.4147 112.912 25.6632 112.831 25.8598 112.669C26.0563 112.519 26.2412 112.247 26.4146 111.854L22.5998 102.698H24.8367L27.4377 109.496L29.8133 102.698H31.9981L28.3567 112.114C27.9868 113.05 27.5764 113.709 27.1256 114.091C26.6747 114.484 26.0794 114.68 25.3396 114.68ZM36.8655 112.01C35.1084 112.01 34.2298 111.114 34.2298 109.322V104.502H33.068V102.698H34.2298V100.184H36.328V102.698H38.7902V104.502H36.328V108.993C36.328 109.756 36.7037 110.137 37.4551 110.137C37.9059 110.137 38.3394 110.033 38.7556 109.825V111.542C38.2007 111.854 37.5707 112.01 36.8655 112.01ZM40.9084 111.854V99.1958H43.0066V104.12C43.7349 103.045 44.6886 102.508 45.8677 102.508C46.885 102.508 47.6826 102.826 48.2606 103.461C48.8386 104.097 49.1276 104.953 49.1276 106.028V111.854H47.0295V106.652C47.0295 105.935 46.8561 105.386 46.5093 105.005C46.174 104.612 45.6943 104.415 45.07 104.415C44.4574 104.415 43.9603 104.617 43.5788 105.022C43.1973 105.427 43.0066 105.982 43.0066 106.687V111.854H40.9084ZM56.0136 112.062C54.6264 112.062 53.4704 111.6 52.5456 110.675C51.6208 109.75 51.1584 108.623 51.1584 107.294C51.1584 105.964 51.6266 104.837 52.5629 103.912C53.4993 102.976 54.6611 102.508 56.0483 102.508C57.4355 102.508 58.5915 102.97 59.5163 103.895C60.4527 104.82 60.9208 105.953 60.9208 107.294C60.9208 108.611 60.4527 109.739 59.5163 110.675C58.5799 111.6 57.4124 112.062 56.0136 112.062ZM56.0483 110.241C56.8806 110.241 57.5511 109.958 58.0597 109.392C58.5684 108.825 58.8227 108.126 58.8227 107.294C58.8227 106.473 58.5568 105.779 58.025 105.213C57.4933 104.635 56.8228 104.346 56.0136 104.346C55.1928 104.346 54.5281 104.629 54.0195 105.195C53.5109 105.762 53.2565 106.461 53.2565 107.294C53.2565 108.103 53.5224 108.796 54.0542 109.374C54.5859 109.952 55.2506 110.241 56.0483 110.241ZM63.0576 111.854V102.698H65.1557V104.12C65.884 103.045 66.8377 102.508 68.0168 102.508C69.0341 102.508 69.8317 102.826 70.4097 103.461C70.9877 104.097 71.2767 104.953 71.2767 106.028V111.854H69.1786V106.652C69.1786 105.935 69.0052 105.386 68.6584 105.005C68.3232 104.612 67.8434 104.415 67.2192 104.415C66.6065 104.415 66.1094 104.617 65.7279 105.022C65.3465 105.427 65.1557 105.982 65.1557 106.687V111.854H63.0576Z" fill="#DCD2FF"/>
<path d="M41.2008 0C20.1302 1.51506e-06 21.446 9.20872 21.446 9.20872L21.4695 18.7489H41.5766V21.6133H13.483C13.483 21.6133 0 20.0722 0 41.4984C-1.50334e-06 62.9246 11.7683 62.1648 11.7683 62.1648H18.7917V52.2222C18.7917 52.2222 18.4131 40.3621 30.3721 40.3621C42.331 40.3621 50.3148 40.3621 50.3148 40.3621C50.3148 40.3621 61.5193 40.5447 61.5193 29.449C61.5193 18.3533 61.5193 11.1025 61.5193 11.1025C61.5193 11.1025 63.2205 0 41.2008 0ZM30.1137 6.41533C32.1142 6.41533 33.7311 8.04483 33.7311 10.0609C33.7311 12.0771 32.1142 13.7066 30.1137 13.7066C28.1132 13.7066 26.4963 12.0771 26.4963 10.0609C26.4963 8.04483 28.1132 6.41533 30.1137 6.41533Z" fill="white"/>
<path d="M41.7992 83.2116C62.8697 83.2116 61.554 74.0028 61.554 74.0028L61.5305 64.4627H41.4234V61.5983H69.5169C69.5169 61.5983 83 63.1393 83 41.7131C83 20.287 71.2317 21.0468 71.2317 21.0468H64.2083V30.9894C64.2083 30.9894 64.5869 42.8494 52.6279 42.8494C40.6689 42.8494 32.6852 42.8494 32.6852 42.8494C32.6852 42.8494 21.4807 42.6669 21.4807 53.7626C21.4807 64.8583 21.4807 72.109 21.4807 72.109C21.4807 72.109 19.7795 83.2116 41.7992 83.2116ZM52.8863 76.7962C50.8858 76.7962 49.2689 75.1667 49.2689 73.1506C49.2689 71.1345 50.8858 69.505 52.8863 69.505C54.8868 69.505 56.5037 71.1345 56.5037 73.1506C56.5037 75.1667 54.8868 76.7962 52.8863 76.7962Z" fill="white"/>
</svg>
