<svg width="160" height="151" viewBox="0 0 160 151" fill="none" xmlns="http://www.w3.org/2000/svg">
<path d="M116.958 139.987H66.9647L67.4591 137.457C69.8051 125.514 70.2123 105.301 58.8991 76.742C55.3607 70.1984 48.9819 54.4454 49.2049 45.3619C50.0095 17.714 79.16 0.438919 105.703 0.293506C113.237 0.231239 120.663 2.09111 127.278 5.69737C133.894 9.30363 139.48 14.5372 143.51 20.9034C150.296 31.7124 151.266 43.8884 146.089 54.2999C145.972 54.552 146.089 55.3178 148.028 57.5766L158.614 69.7525C159.094 70.3133 159.403 70.9994 159.507 71.7301C159.61 72.4609 159.503 73.2059 159.197 73.8778C158.892 74.5497 158.401 75.1204 157.783 75.523C157.164 75.9256 156.443 76.1434 155.706 76.1507H149.763C150.732 79.6697 151.886 84.4489 149.879 87.3572C148.997 88.4323 147.778 89.1772 146.418 89.4705C145.449 89.7808 144.819 90.0134 144.683 90.3624C144.547 90.7114 144.247 92.5727 147.514 98.5055C150.325 103.624 150.761 107.463 148.823 110.236C146.215 113.977 139.836 114.86 128.135 113.095C123.337 112.378 120.031 112.824 118.315 114.433C115.707 116.886 116.202 122.402 116.715 128.238C117.092 131.484 117.216 134.754 117.084 138.019L116.958 139.987ZM72.0735 135.751H112.935C112.935 133.463 112.712 131.01 112.508 128.616C111.917 122.024 111.316 115.209 115.416 111.341C118.17 108.762 122.542 107.967 128.775 108.898C141.222 110.778 144.509 109.024 145.362 107.812C146.215 106.6 145.691 103.934 143.811 100.551C140.66 94.8411 139.749 91.3221 140.747 88.7919C141.639 86.5623 143.733 85.8837 145.129 85.4378C145.582 85.3179 146.019 85.142 146.428 84.9143C147.398 83.4698 146.079 78.6712 145.459 76.616C145.292 76.0619 145.259 75.4763 145.362 74.9069C145.465 74.3375 145.7 73.8004 146.05 73.3394C146.39 72.8909 146.83 72.5277 147.335 72.2787C147.84 72.0297 148.395 71.9016 148.958 71.9046H154.862L144.838 60.3588C143.51 58.8175 140.747 55.628 142.318 52.4289C146.787 43.3649 145.914 32.6915 139.952 23.1524C136.316 17.4496 131.301 12.7549 125.371 9.50184C119.441 6.24876 112.786 4.54215 106.023 4.53956H105.809C81.2346 4.67528 54.2556 20.3702 53.5188 45.4879C53.2862 53.3305 59.3354 68.531 62.7186 74.8323L62.8253 75.0649C73.7797 102.723 74.0706 122.964 72.0735 135.751Z" fill="url(#paint0_linear)"/>
<path d="M132.817 37.8969C132.385 37.8983 131.963 37.767 131.607 37.5209C131.252 37.2747 130.981 36.9255 130.83 36.5204C128.861 31.2419 125.369 26.6668 120.797 23.375C120.186 22.9388 119.556 22.5122 118.926 22.0954C118.692 21.9445 118.49 21.7491 118.332 21.5204C118.174 21.2916 118.063 21.0339 118.004 20.7621C117.946 20.4902 117.941 20.2095 117.991 19.9359C118.041 19.6624 118.145 19.4013 118.295 19.1677C118.446 18.9341 118.642 18.7325 118.87 18.5744C119.099 18.4163 119.357 18.3048 119.629 18.2463C119.901 18.1878 120.181 18.1834 120.455 18.2334C120.728 18.2834 120.99 18.3867 121.223 18.5376C121.921 18.9835 122.609 19.4586 123.278 19.9433C128.532 23.7209 132.544 28.9746 134.805 35.0372C134.999 35.5643 134.977 36.147 134.742 36.6576C134.508 37.1682 134.081 37.565 133.554 37.7612C133.318 37.8482 133.069 37.8941 132.817 37.8969ZM112.566 18.5085C112.287 18.5053 112.011 18.4494 111.752 18.3437C110.782 17.9269 109.735 17.5391 108.718 17.1998C108.205 17.0052 107.787 16.6196 107.552 16.1239C107.317 15.6282 107.283 15.0607 107.458 14.5406C107.632 14.0204 108.001 13.5878 108.487 13.3336C108.973 13.0793 109.538 13.0231 110.065 13.1767C111.17 13.5548 112.295 13.9716 113.38 14.4273C113.832 14.6165 114.205 14.9563 114.435 15.3889C114.665 15.8216 114.738 16.3204 114.642 16.8009C114.547 17.2814 114.287 17.714 113.909 18.0252C113.531 18.3364 113.056 18.5072 112.566 18.5085Z" fill="url(#paint1_linear)"/>
<path d="M118.799 150.292H66.2269C64.2703 150.292 62.3939 149.514 61.0104 148.131C59.6269 146.747 58.8496 144.871 58.8496 142.914C58.8496 140.958 59.6269 139.081 61.0104 137.698C62.3939 136.314 64.2703 135.537 66.2269 135.537H118.799C120.755 135.537 122.632 136.314 124.015 137.698C125.399 139.081 126.176 140.958 126.176 142.914C126.176 144.871 125.399 146.747 124.015 148.131C122.632 149.514 120.755 150.292 118.799 150.292ZM66.2269 139.783C65.4253 139.828 64.6712 140.178 64.1195 140.761C63.5678 141.344 63.2604 142.116 63.2604 142.919C63.2604 143.722 63.5678 144.494 64.1195 145.078C64.6712 145.661 65.4253 146.011 66.2269 146.055H118.799C119.225 146.079 119.652 146.016 120.053 145.869C120.454 145.722 120.821 145.495 121.131 145.201C121.442 144.908 121.689 144.554 121.858 144.161C122.027 143.769 122.114 143.346 122.114 142.919C122.114 142.492 122.027 142.069 121.858 141.677C121.689 141.285 121.442 140.931 121.131 140.637C120.821 140.344 120.454 140.117 120.053 139.97C119.652 139.823 119.225 139.759 118.799 139.783H66.2269Z" fill="url(#paint2_linear)"/>
<path d="M27.6333 44.9746L27.4297 45.1782C27.5068 45.1202 27.5753 45.0517 27.6333 44.9746Z" fill="url(#paint3_linear)"/>
<path d="M26.3171 146.735L25.0568 146.444C23.9558 146.178 22.874 145.838 21.819 145.426C20.7671 145.035 19.7435 144.572 18.7556 144.04L17.6214 143.419L17.7474 137.68C16.675 136.832 15.6821 135.888 14.781 134.859L9.05168 135.305L8.3731 134.2C7.2112 132.281 6.28978 130.227 5.62962 128.083L5.24186 126.842L9.42006 122.868C9.24539 121.505 9.20643 120.128 9.30374 118.757L4.93164 115.025L5.23216 113.765C5.47841 112.667 5.80237 111.588 6.20158 110.537C6.59957 109.491 7.06259 108.471 7.58787 107.483L8.20829 106.339L13.9667 106.484C14.8109 105.403 15.759 104.406 16.7974 103.508L16.3417 97.75L17.4662 97.0811C19.3778 95.9249 21.4219 95.0038 23.5542 94.3376L24.8242 93.9499L28.7988 98.1378C30.1592 97.9737 31.5319 97.9347 32.8994 98.0214L36.6414 93.6396L37.9017 93.9402C38.9838 94.1969 40.049 94.5207 41.0911 94.9096C42.1441 95.309 43.1705 95.7753 44.1641 96.3056L45.3177 96.9163L45.1917 102.675C46.2698 103.527 47.2691 104.474 48.1775 105.505L53.9165 105.04L54.5951 106.174C55.7505 108.095 56.6685 110.149 57.3289 112.291L57.7166 113.542L53.5384 117.516C53.7035 118.877 53.7424 120.25 53.6547 121.617L58.0462 125.349L57.7166 126.629C57.4522 127.706 57.1285 128.767 56.7472 129.809C56.3414 130.851 55.8786 131.871 55.3609 132.862L54.7502 134.035L48.9337 133.909C48.091 134.984 47.1498 135.977 46.1224 136.876L46.578 142.634L45.4534 143.313C43.5289 144.472 41.4676 145.387 39.317 146.037L38.0761 146.405L34.1015 142.256C32.7411 142.421 31.3684 142.46 30.0009 142.372L26.3171 146.735ZM21.9159 140.918C22.3909 141.132 22.8853 141.335 23.3216 141.5C23.7578 141.665 24.291 141.868 24.8048 142.014L28.2656 137.971L29.3901 138.097C31.1104 138.3 32.851 138.251 34.5571 137.952L35.672 137.758L39.3558 141.636C40.3224 141.281 41.2648 140.863 42.1768 140.385L41.76 135.063L42.6421 134.355C44.0002 133.29 45.1926 132.029 46.1805 130.613L46.83 129.644L52.1715 129.77C52.3945 129.285 52.5981 128.801 52.7823 128.335C52.9665 127.87 53.1215 127.366 53.2767 126.881L49.2148 123.42L49.3505 122.296C49.5649 120.582 49.5158 118.847 49.2051 117.148L49.0015 116.024L52.8792 112.34C52.5171 111.371 52.0962 110.426 51.619 109.509L46.3065 109.945L45.5989 109.053C44.5262 107.687 43.2589 106.485 41.8375 105.486L40.9165 104.836L41.0426 99.5046C40.5676 99.2914 40.0731 99.0878 39.6175 98.9036C39.1619 98.7194 38.6481 98.5449 38.1634 98.4092L34.6929 102.471L33.5586 102.335C31.8416 102.133 30.1042 102.182 28.4013 102.481L27.2865 102.675L23.6124 98.797C22.6472 99.1514 21.7078 99.5725 20.8011 100.057L21.2179 105.389L20.3163 106.087C18.959 107.15 17.7666 108.407 16.778 109.819L16.1285 110.789L10.7967 110.672C10.5931 111.118 10.3895 111.642 10.1956 112.107C10.0017 112.572 9.83691 113.077 9.6915 113.542L13.7631 117.012L13.6273 118.147C13.4147 119.856 13.4604 121.588 13.7631 123.285L13.9764 124.419L10.0987 128.103C10.4576 129.066 10.8786 130.005 11.3589 130.914L16.6616 130.497L17.3693 131.379C18.4365 132.738 19.6972 133.934 21.1113 134.927L22.0807 135.577L21.9159 140.918ZM31.4841 131.224C28.7757 131.231 26.1605 130.236 24.1425 128.429C22.1245 126.623 20.8465 124.133 20.5548 121.441C20.2631 118.748 20.9784 116.043 22.5628 113.846C24.1472 111.649 26.4886 110.117 29.1357 109.544C31.7828 108.971 34.5483 109.398 36.8993 110.743C39.2502 112.088 41.0202 114.255 41.8681 116.827C42.7161 119.4 42.5819 122.195 41.4916 124.674C40.4012 127.153 38.4318 129.141 35.9628 130.255C34.5493 130.865 33.0236 131.172 31.4841 131.156V131.224ZM31.4841 113.542C29.9095 113.534 28.3823 114.08 27.169 115.084C25.9558 116.087 25.1337 117.485 24.8462 119.033C24.5588 120.582 24.8242 122.181 25.5963 123.554C26.3683 124.926 27.5978 125.984 29.0702 126.542C30.734 127.173 32.58 127.119 34.2043 126.393C35.8285 125.666 37.0987 124.325 37.7368 122.664C38.3552 120.998 38.2954 119.156 37.5704 117.534C36.8453 115.911 35.5128 114.638 33.8592 113.988C33.1119 113.674 32.3135 113.5 31.5035 113.474L31.4841 113.542Z" fill="url(#paint4_linear)"/>
<path d="M101.717 93.1739L76.6287 93.3387H55.6504L29.796 67.6006H14.4694C13.9064 67.6006 13.3664 67.8242 12.9682 68.2224C12.5701 68.6205 12.3464 69.1605 12.3464 69.7236C12.3464 70.2867 12.5701 70.8267 12.9682 71.2248C13.3664 71.623 13.9064 71.8466 14.4694 71.8466H28.0413L53.8958 97.5848H74.8644L90.7725 115.257C90.9738 115.476 91.218 115.651 91.4899 115.771C91.7618 115.891 92.0555 115.954 92.3527 115.955C92.7623 115.957 93.1637 115.84 93.5081 115.619C93.8524 115.397 94.1249 115.08 94.2923 114.706C94.4597 114.332 94.5149 113.917 94.4511 113.513C94.3872 113.108 94.2072 112.731 93.9329 112.427L80.5646 97.546L101.737 97.4103C102.274 97.3739 102.777 97.1349 103.144 96.7417C103.512 96.3485 103.716 95.8303 103.716 95.2921C103.716 94.7538 103.512 94.2357 103.144 93.8425C102.777 93.4492 102.274 93.2102 101.737 93.1739H101.717ZM8.14881 69.7236C8.14881 70.2867 7.92512 70.8267 7.52697 71.2248C7.12883 71.623 6.58884 71.8466 6.02577 71.8466H2.6328C2.06974 71.8466 1.52975 71.623 1.1316 71.2248C0.733454 70.8267 0.509766 70.2867 0.509766 69.7236C0.509766 69.1605 0.733454 68.6205 1.1316 68.2224C1.52975 67.8242 2.06974 67.6006 2.6328 67.6006H6.02577C6.58884 67.6006 7.12883 67.8242 7.52697 68.2224C7.92512 68.6205 8.14881 69.1605 8.14881 69.7236Z" fill="url(#paint5_linear)"/>
<path d="M93.6129 16.2207H50.464L25.2591 41.3578H16.6119C16.0488 41.3578 15.5088 41.5815 15.1106 41.9796C14.7125 42.3777 14.4888 42.9178 14.4888 43.4808C14.4888 44.0439 14.7125 44.5839 15.1106 44.982C15.5088 45.3802 16.0488 45.6039 16.6119 45.6039H26.1606C26.6229 45.6075 27.0721 45.4497 27.4306 45.1579C27.5133 45.1073 27.5883 45.0453 27.6536 44.9737L52.2381 20.4571H92.1976L105.624 30.5003L108.164 27.0879L93.6129 16.2207ZM10.2428 43.4808C10.2428 44.0389 10.0231 44.5745 9.63126 44.9719C9.23939 45.3692 8.70683 45.5962 8.14882 45.6039H4.75585C4.19278 45.6039 3.65279 45.3802 3.25465 44.982C2.8565 44.5839 2.63281 44.0439 2.63281 43.4808C2.63281 42.9178 2.8565 42.3777 3.25465 41.9796C3.65279 41.5815 4.19278 41.3578 4.75585 41.3578H8.14882C8.70177 41.3704 9.22795 41.5983 9.61541 41.993C10.0029 42.3877 10.221 42.918 10.2234 43.4711L10.2428 43.4808Z" fill="url(#paint6_linear)"/>
<path d="M129.832 98.602C131.315 98.602 132.517 97.3998 132.517 95.9168C132.517 94.4337 131.315 93.2314 129.832 93.2314C128.349 93.2314 127.146 94.4337 127.146 95.9168C127.146 97.3998 128.349 98.602 129.832 98.602Z" fill="#FFE610"/>
<path d="M117.693 76.6642C117.693 76.943 117.638 77.219 117.531 77.4766C117.425 77.7342 117.268 77.9683 117.071 78.1654C116.874 78.3625 116.64 78.5189 116.382 78.6256C116.125 78.7323 115.849 78.7872 115.57 78.7872H51.0066L31.5115 59.0401H22.176C21.8858 59.0597 21.5947 59.0196 21.3206 58.922C21.0466 58.8244 20.7955 58.6716 20.583 58.473C20.3705 58.2744 20.2011 58.0342 20.0852 57.7674C19.9694 57.5006 19.9096 57.2128 19.9096 56.9219C19.9096 56.631 19.9694 56.3433 20.0852 56.0765C20.2011 55.8096 20.3705 55.5695 20.583 55.3708C20.7955 55.1722 21.0466 55.0194 21.3206 54.9218C21.5947 54.8243 21.8858 54.7841 22.176 54.8037H31.8702L50.9775 35.0566H81.6597C82.2227 35.0566 82.7628 35.2803 83.1609 35.6785C83.5591 36.0766 83.7827 36.6166 83.7827 37.1797C83.7827 37.7427 83.5591 38.2827 83.1609 38.6809C82.7628 39.079 82.2227 39.3027 81.6597 39.3027H52.8097L37.8031 54.8134H69.4837C69.774 54.7938 70.0651 54.834 70.3392 54.9315C70.6132 55.0291 70.8643 55.1819 71.0768 55.3805C71.2893 55.5792 71.4587 55.8193 71.5746 56.0861C71.6904 56.353 71.7502 56.6407 71.7502 56.9316C71.7502 57.2225 71.6904 57.5103 71.5746 57.7771C71.4587 58.0439 71.2893 58.2841 71.0768 58.4827C70.8643 58.6813 70.6132 58.8341 70.3392 58.9317C70.0651 59.0292 69.774 59.0695 69.4837 59.0498H37.4929L52.8097 74.5605H77.4718L97.8296 53.4369H108.299C108.862 53.4369 109.402 53.6605 109.801 54.0587C110.199 54.4568 110.422 54.9968 110.422 55.5599C110.422 56.1229 110.199 56.6629 109.801 57.0611C109.402 57.4592 108.862 57.6829 108.299 57.6829H99.6619L83.3562 74.5605H115.58C116.139 74.5605 116.675 74.7818 117.071 75.1761C117.467 75.5703 117.69 76.1054 117.693 76.6642ZM13.6742 54.794H10.2812C9.71817 54.794 9.17815 55.0177 8.78001 55.4159C8.38186 55.814 8.1582 56.354 8.1582 56.9171C8.1582 57.4801 8.38186 58.0202 8.78001 58.4183C9.17815 58.8164 9.71817 59.0401 10.2812 59.0401H13.6742C14.2373 59.0401 14.7773 58.8164 15.1754 58.4183C15.5736 58.0202 15.7972 57.4801 15.7972 56.9171C15.7972 56.354 15.5736 55.814 15.1754 55.4159C14.7773 55.0177 14.2373 54.794 13.6742 54.794Z" fill="url(#paint7_linear)"/>
<path d="M110.102 41.1063C108.345 41.1055 106.642 40.504 105.275 39.4016C103.907 38.2993 102.958 36.7625 102.584 35.0463C102.211 33.3301 102.435 31.5377 103.221 29.9668C104.006 28.3958 105.306 27.1407 106.903 26.4099C107.948 25.9313 109.088 25.6932 110.238 25.7131C111.388 25.7329 112.519 26.0102 113.548 26.5246C114.576 27.0389 115.477 27.7773 116.183 28.6853C116.889 29.5934 117.382 30.6481 117.627 31.7719C117.871 32.8958 117.861 34.0601 117.596 35.1794C117.332 36.2987 116.82 37.3445 116.098 38.2399C115.376 39.1353 114.463 39.8576 113.425 40.3536C112.388 40.8497 111.252 41.1069 110.102 41.1063ZM110.102 29.9483C109.606 29.9478 109.116 30.0571 108.667 30.2682C108.252 30.454 107.878 30.7214 107.569 31.0545C107.259 31.3875 107.019 31.7795 106.864 32.207C106.543 33.0662 106.574 34.0173 106.951 34.8536C107.142 35.2667 107.413 35.6381 107.747 35.9467C108.082 36.2553 108.474 36.495 108.901 36.652C109.328 36.8091 109.782 36.8805 110.237 36.8622C110.691 36.8439 111.138 36.7361 111.551 36.5452C111.964 36.3542 112.336 36.0838 112.644 35.7493C112.953 35.4148 113.192 35.0227 113.349 34.5956C113.507 34.1685 113.578 33.7146 113.56 33.2598C113.541 32.8051 113.434 32.3584 113.243 31.9453C113.057 31.5301 112.789 31.1566 112.456 30.8468C112.123 30.537 111.731 30.2974 111.304 30.1422C110.917 30.0082 110.511 29.9426 110.102 29.9483Z" fill="url(#paint8_linear)"/>
<path d="M87.8828 44.7216C86.3604 44.7216 84.8722 44.2701 83.6064 43.4244C82.3406 42.5786 81.3541 41.3764 80.7715 39.97C80.1889 38.5635 80.0364 37.0158 80.3334 35.5227C80.6304 34.0296 81.3635 32.6581 82.44 31.5816C83.5165 30.5051 84.888 29.7721 86.3811 29.4751C87.8742 29.1781 89.4219 29.3305 90.8284 29.9131C92.2348 30.4956 93.437 31.4822 94.2827 32.748C95.1285 34.0138 95.58 35.502 95.58 37.0244C95.5774 39.065 94.7656 41.0213 93.3227 42.4643C91.8797 43.9072 89.9234 44.719 87.8828 44.7216ZM87.8828 33.5732C87.1974 33.5713 86.527 33.7729 85.9564 34.1524C85.3858 34.532 84.9407 35.0724 84.6775 35.7052C84.4144 36.3379 84.345 37.0346 84.4782 37.7068C84.6115 38.3791 84.9413 38.9966 85.4259 39.4812C85.9105 39.9658 86.5281 40.2956 87.2003 40.4288C87.8725 40.5621 88.5691 40.4927 89.2019 40.2296C89.8347 39.9664 90.3751 39.5213 90.7547 38.9507C91.1342 38.3801 91.3358 37.7097 91.3339 37.0244C91.3313 36.1099 90.9669 35.2335 90.3203 34.5869C89.6736 33.9402 88.7973 33.5758 87.8828 33.5732Z" fill="url(#paint9_linear)"/>
<path d="M121.57 84.6434C120.048 84.6434 118.56 84.192 117.294 83.3462C116.028 82.5004 115.042 81.2983 114.459 79.8918C113.876 78.4854 113.724 76.9377 114.021 75.4446C114.318 73.9515 115.051 72.58 116.127 71.5035C117.204 70.427 118.575 69.6939 120.069 69.3969C121.562 69.0999 123.109 69.2524 124.516 69.8349C125.922 70.4175 127.124 71.4041 127.97 72.6699C128.816 73.9357 129.267 75.4239 129.267 76.9462C129.265 78.9869 128.453 80.9432 127.01 82.3862C125.567 83.8291 123.611 84.6409 121.57 84.6434ZM121.57 73.5242C120.885 73.5223 120.215 73.7236 119.645 74.1027C119.074 74.4818 118.629 75.0217 118.366 75.6539C118.103 76.2861 118.033 76.9822 118.165 77.6542C118.297 78.3262 118.626 78.9438 119.11 79.4287C119.594 79.9137 120.21 80.2443 120.882 80.3786C121.553 80.5129 122.25 80.445 122.883 80.1833C123.516 79.9217 124.057 79.4781 124.437 78.9087C124.818 78.3394 125.021 77.6699 125.021 76.985C125.021 76.0688 124.658 75.19 124.011 74.5413C123.364 73.8925 122.486 73.5267 121.57 73.5242Z" fill="url(#paint10_linear)"/>
<path d="M114.844 63.0926C113.321 63.0926 111.833 62.6412 110.567 61.7954C109.302 60.9496 108.315 59.7475 107.732 58.341C107.15 56.9346 106.997 55.3869 107.294 53.8938C107.591 52.4007 108.324 51.0292 109.401 49.9527C110.477 48.8762 111.849 48.1431 113.342 47.8461C114.835 47.5492 116.383 47.7016 117.789 48.2841C119.196 48.8667 120.398 49.8533 121.244 51.1191C122.089 52.3849 122.541 53.8731 122.541 55.3954C122.538 57.4361 121.727 59.3924 120.284 60.8353C118.841 62.2783 116.884 63.0901 114.844 63.0926ZM114.844 51.9346C114.159 51.9346 113.49 52.1376 112.921 52.5179C112.352 52.8982 111.908 53.4386 111.646 54.071C111.384 54.7034 111.316 55.3993 111.449 56.0706C111.583 56.7419 111.913 57.3586 112.397 57.8426C112.881 58.3266 113.497 58.6562 114.168 58.7898C114.84 58.9233 115.536 58.8548 116.168 58.5928C116.8 58.3309 117.341 57.8873 117.721 57.3182C118.102 56.749 118.305 56.0799 118.305 55.3954C118.305 54.4776 117.94 53.5973 117.291 52.9483C116.642 52.2992 115.762 51.9346 114.844 51.9346Z" fill="url(#paint11_linear)"/>
<path d="M76.2031 64.2167C74.6807 64.2167 73.1925 63.7652 71.9267 62.9194C70.6609 62.0737 69.6744 60.8715 69.0918 59.4651C68.5092 58.0586 68.3568 56.5109 68.6538 55.0178C68.9508 53.5247 69.6838 52.1532 70.7603 51.0767C71.8368 50.0003 73.2083 49.2672 74.7014 48.9702C76.1945 48.6732 77.7422 48.8256 79.1486 49.4082C80.5551 49.9908 81.7573 50.9773 82.6031 52.2431C83.4488 53.5089 83.9003 54.9971 83.9003 56.5195C83.8977 58.5601 83.0859 60.5164 81.643 61.9594C80.2 63.4023 78.2437 64.2141 76.2031 64.2167ZM76.2031 53.0683C75.5182 53.0683 74.8487 53.2715 74.2793 53.6523C73.71 54.033 73.2664 54.5741 73.0048 55.207C72.7431 55.84 72.6751 56.5363 72.8094 57.2079C72.9438 57.8795 73.2744 58.4961 73.7593 58.9798C74.2443 59.4634 74.8619 59.7922 75.5338 59.9247C76.2058 60.0571 76.902 59.9872 77.5342 59.7238C78.1664 59.4603 78.7062 59.0152 79.0854 58.4448C79.4645 57.8744 79.6658 57.2044 79.6639 56.5195C79.6613 55.6033 79.2956 54.7255 78.6468 54.0785C77.9981 53.4316 77.1193 53.0683 76.2031 53.0683Z" fill="url(#paint12_linear)"/>
<path d="M109.104 103.179C108.78 103.179 108.456 103.16 108.135 103.12C107.131 102.996 106.163 102.675 105.284 102.176C104.404 101.676 103.632 101.009 103.011 100.211C102.39 99.4138 101.932 98.5017 101.663 97.5271C101.395 96.5525 101.321 95.5345 101.446 94.5314C101.629 93.0609 102.232 91.6745 103.184 90.5386C104.135 89.4027 105.394 88.5655 106.81 88.1278C108.226 87.69 109.738 87.6701 111.164 88.0706C112.591 88.4711 113.872 89.2748 114.853 90.3853C115.834 91.4958 116.473 92.8659 116.695 94.3311C116.916 95.7963 116.71 97.2942 116.101 98.645C115.492 99.9959 114.506 101.142 113.261 101.946C112.017 102.751 110.566 103.178 109.085 103.179H109.104ZM105.672 95.0548C105.571 95.8518 105.749 96.6595 106.176 97.3399C106.603 98.0204 107.253 98.5315 108.015 98.786C108.777 99.0406 109.604 99.0228 110.355 98.7358C111.105 98.4488 111.733 97.9102 112.131 97.2121C112.528 96.5139 112.671 95.6994 112.535 94.9074C112.4 94.1155 111.993 93.3953 111.386 92.8696C110.778 92.3439 110.007 92.0454 109.203 92.0249C108.4 92.0044 107.615 92.2633 106.981 92.7573C106.258 93.3197 105.787 94.146 105.672 95.0548Z" fill="url(#paint13_linear)"/>
<path d="M96.8233 125.175C95.021 125.174 93.2764 124.539 91.8942 123.383C90.5121 122.226 89.5803 120.62 89.2617 118.846C88.9431 117.072 89.2579 115.243 90.1512 113.677C91.0444 112.112 92.4594 110.91 94.1487 110.282C95.838 109.654 97.6944 109.639 99.3934 110.24C101.092 110.842 102.526 112.021 103.444 113.572C104.362 115.123 104.706 116.948 104.415 118.726C104.125 120.505 103.218 122.125 101.855 123.304C100.458 124.514 98.6712 125.179 96.8233 125.175ZM96.8233 114.036C95.9926 114.031 95.1889 114.331 94.5646 114.88C93.9483 115.412 93.5386 116.143 93.4073 116.947C93.276 117.751 93.4314 118.575 93.8463 119.275C94.2613 119.976 94.9093 120.508 95.6771 120.779C96.4449 121.05 97.2836 121.043 98.0464 120.758C98.8092 120.473 99.4476 119.929 99.8498 119.221C100.252 118.513 100.393 117.687 100.247 116.885C100.101 116.084 99.6783 115.36 99.0525 114.839C98.4266 114.318 97.6376 114.034 96.8233 114.036Z" fill="url(#paint14_linear)"/>
<defs>
<linearGradient id="paint0_linear" x1="57719.1" y1="30402.1" x2="62087.5" y2="49975.4" gradientUnits="userSpaceOnUse">
<stop stop-color="#10C2FF"/>
<stop offset="1" stop-color="#1A68FF"/>
</linearGradient>
<linearGradient id="paint1_linear" x1="107.273" y1="25.4884" x2="134.94" y2="25.4884" gradientUnits="userSpaceOnUse">
<stop stop-color="#FF5B6E"/>
<stop offset="0.43" stop-color="#FF953B"/>
<stop offset="0.81" stop-color="#FFC213"/>
<stop offset="1" stop-color="#FFD404"/>
</linearGradient>
<linearGradient id="paint2_linear" x1="32799.6" y1="5500.01" x2="37475.4" y2="5500.01" gradientUnits="userSpaceOnUse">
<stop stop-color="#10C2FF"/>
<stop offset="0.22" stop-color="#10BEFF"/>
<stop offset="0.43" stop-color="#12B3FF"/>
<stop offset="0.63" stop-color="#14A0FF"/>
<stop offset="0.83" stop-color="#1786FF"/>
<stop offset="1" stop-color="#1A68FF"/>
</linearGradient>
<linearGradient id="paint3_linear" x1="119.824" y1="98.4725" x2="119.861" y2="98.4379" gradientUnits="userSpaceOnUse">
<stop stop-color="#10C2FF"/>
<stop offset="1" stop-color="#1A68FF"/>
</linearGradient>
<linearGradient id="paint4_linear" x1="22880.3" y1="18152.9" x2="25791.5" y2="18152.9" gradientUnits="userSpaceOnUse">
<stop stop-color="#FF059D"/>
<stop offset="1" stop-color="#FFF904"/>
</linearGradient>
<linearGradient id="paint5_linear" x1="43974.8" y1="15097.7" x2="54979.7" y2="15097.7" gradientUnits="userSpaceOnUse">
<stop stop-color="#E3F24C"/>
<stop offset="1" stop-color="#64D8BC"/>
</linearGradient>
<linearGradient id="paint6_linear" x1="45198.5" y1="7304.44" x2="56690.8" y2="7304.44" gradientUnits="userSpaceOnUse">
<stop stop-color="#E3F24C"/>
<stop offset="1" stop-color="#64D8BC"/>
</linearGradient>
<linearGradient id="paint7_linear" x1="45234" y1="12055.7" x2="64917.4" y2="12055.7" gradientUnits="userSpaceOnUse">
<stop stop-color="#FFF904"/>
<stop offset="1" stop-color="#FF059D"/>
</linearGradient>
<linearGradient id="paint8_linear" x1="14768.7" y1="115778" x2="14667.2" y2="115556" gradientUnits="userSpaceOnUse">
<stop stop-color="#E3F24C"/>
<stop offset="1" stop-color="#64D8BC"/>
</linearGradient>
<linearGradient id="paint9_linear" x1="7905.32" y1="3944.9" x2="8149.78" y2="3944.9" gradientUnits="userSpaceOnUse">
<stop stop-color="#FF5B6E"/>
<stop offset="0.43" stop-color="#FF953B"/>
<stop offset="0.81" stop-color="#FFC213"/>
<stop offset="1" stop-color="#FFD404"/>
</linearGradient>
<linearGradient id="paint10_linear" x1="8473.5" y1="4618.76" x2="8717.96" y2="4618.76" gradientUnits="userSpaceOnUse">
<stop stop-color="#FF5B6E"/>
<stop offset="0.43" stop-color="#FF953B"/>
<stop offset="0.81" stop-color="#FFC213"/>
<stop offset="1" stop-color="#FFD404"/>
</linearGradient>
<linearGradient id="paint11_linear" x1="8360.38" y1="4254.99" x2="8604.85" y2="4254.99" gradientUnits="userSpaceOnUse">
<stop stop-color="#FF5B6E"/>
<stop offset="0.43" stop-color="#FF953B"/>
<stop offset="0.81" stop-color="#FFC213"/>
<stop offset="1" stop-color="#FFD404"/>
</linearGradient>
<linearGradient id="paint12_linear" x1="7708.14" y1="4273.97" x2="7952.6" y2="4273.97" gradientUnits="userSpaceOnUse">
<stop stop-color="#FF5B6E"/>
<stop offset="0.43" stop-color="#FF953B"/>
<stop offset="0.81" stop-color="#FFC213"/>
<stop offset="1" stop-color="#FFD404"/>
</linearGradient>
<linearGradient id="paint13_linear" x1="8263.55" y1="4931.63" x2="8508.02" y2="4931.63" gradientUnits="userSpaceOnUse">
<stop stop-color="#E3F24C"/>
<stop offset="1" stop-color="#64D8BC"/>
</linearGradient>
<linearGradient id="paint14_linear" x1="32156.1" y1="122914" x2="31997.4" y2="122729" gradientUnits="userSpaceOnUse">
<stop stop-color="#E3F24C"/>
<stop offset="1" stop-color="#64D8BC"/>
</linearGradient>
</defs>
</svg>
