<svg width="159" height="150" viewBox="0 0 159 150" fill="none" xmlns="http://www.w3.org/2000/svg">
<path d="M106.27 106.764V106.754H107.968L106.27 106.764Z" fill="black"/>
<path d="M111.385 103.435V103.338H113.083L111.385 103.435Z" fill="black"/>
<path d="M84.4974 142.491H63.0244V93.6357C63.0047 93.3452 63.045 93.0538 63.1426 92.7795C63.2403 92.5052 63.3932 92.2539 63.592 92.0412C63.7908 91.8285 64.0312 91.6589 64.2983 91.543C64.5653 91.427 64.8534 91.3672 65.1445 91.3672C65.4357 91.3672 65.7237 91.427 65.9908 91.543C66.2579 91.6589 66.4982 91.8285 66.697 92.0412C66.8958 92.2539 67.0488 92.5052 67.1464 92.7795C67.2441 93.0538 67.2843 93.3452 67.2646 93.6357V141.627H80.2474V96.1973C80.2474 95.6337 80.4714 95.0932 80.8699 94.6947C81.2684 94.2962 81.8088 94.0723 82.3724 94.0723C82.936 94.0723 83.4765 94.2962 83.875 94.6947C84.2735 95.0932 84.4974 95.6337 84.4974 96.1973V142.491Z" fill="url(#paint0_linear)"/>
<path d="M53.6214 142.49H32.1387V116.874H53.6214V142.49ZM36.3789 141.646H49.3811V121.143H36.3789V141.646Z" fill="url(#paint1_linear)"/>
<path d="M112.732 142.491H93.3262V93.6358C93.3626 93.0983 93.6017 92.5946 93.9953 92.2268C94.3889 91.8589 94.9076 91.6543 95.4463 91.6543C95.985 91.6543 96.5037 91.8589 96.8973 92.2268C97.2909 92.5946 97.5301 93.0983 97.5664 93.6358V141.627H110.617V123.356C110.597 123.066 110.638 122.775 110.735 122.5C110.833 122.226 110.986 121.975 111.185 121.762C111.384 121.549 111.624 121.38 111.891 121.264C112.158 121.148 112.446 121.088 112.737 121.088C113.028 121.088 113.316 121.148 113.584 121.264C113.851 121.38 114.091 121.549 114.29 121.762C114.489 121.975 114.642 122.226 114.739 122.5C114.837 122.775 114.877 123.066 114.857 123.356V142.491H112.732Z" fill="url(#paint2_linear)"/>
<path d="M144.25 125.84C143.687 125.84 143.146 125.616 142.748 125.218C142.349 124.819 142.125 124.279 142.125 123.715V52.1836H129.123V96.6336C129.123 97.1972 128.899 97.7377 128.501 98.1362C128.102 98.5347 127.562 98.7586 126.998 98.7586C126.434 98.7586 125.894 98.5347 125.495 98.1362C125.097 97.7377 124.873 97.1972 124.873 96.6336V47.9336H146.365V123.715C146.365 124.277 146.143 124.816 145.747 125.214C145.35 125.612 144.812 125.837 144.25 125.84Z" fill="url(#paint3_linear)"/>
<path d="M156.29 144.16H147.412C146.849 144.16 146.308 143.936 145.909 143.538C145.511 143.139 145.287 142.599 145.287 142.035C145.287 141.472 145.511 140.931 145.909 140.533C146.308 140.134 146.849 139.91 147.412 139.91H156.29C156.854 139.91 157.395 140.134 157.793 140.533C158.192 140.931 158.415 141.472 158.415 142.035C158.415 142.599 158.192 143.139 157.793 143.538C157.395 143.936 156.854 144.16 156.29 144.16Z" fill="url(#paint4_linear)"/>
<path d="M124.191 144.16H4.96874C4.40516 144.16 3.86464 143.936 3.46613 143.538C3.06761 143.139 2.84375 142.599 2.84375 142.035C2.84375 141.472 3.06761 140.931 3.46613 140.533C3.86464 140.134 4.40516 139.91 4.96874 139.91H124.191C124.755 139.91 125.295 140.134 125.694 140.533C126.092 140.931 126.316 141.472 126.316 142.035C126.316 142.599 126.092 143.139 125.694 143.538C125.295 143.936 124.755 144.16 124.191 144.16Z" fill="url(#paint5_linear)"/>
<path d="M54.5048 87.9692L44.0642 97.9343L28.9564 87.4355L14.4017 102.961C14.0157 103.372 13.8091 103.921 13.8273 104.485C13.8455 105.049 14.0871 105.583 14.4988 105.969C14.9106 106.355 15.4588 106.561 16.0229 106.543C16.587 106.525 17.1207 106.283 17.5068 105.871L29.558 93.0051L44.4912 103.378L57.4352 91.0645C57.7899 90.6672 57.9825 90.1511 57.9747 89.6185C57.967 89.0859 57.7595 88.5756 57.3933 88.1887C57.0272 87.8018 56.5291 87.5665 55.9977 87.5295C55.4664 87.4924 54.9405 87.6563 54.5242 87.9886L54.5048 87.9692Z" fill="url(#paint6_linear)"/>
<path d="M130.46 5.67641C130.182 5.69361 129.911 5.76536 129.661 5.88755C129.411 6.00975 129.187 6.18 129.003 6.38858C128.818 6.59717 128.677 6.84001 128.587 7.10323C128.496 7.36645 128.459 7.6449 128.476 7.92268C128.493 8.20046 128.565 8.47214 128.687 8.72219C128.809 8.97225 128.979 9.19579 129.188 9.38005C129.397 9.5643 129.639 9.70567 129.903 9.79608C130.166 9.88649 130.444 9.92417 130.722 9.90697L139.135 9.3927L120.903 26.4314C120.591 26.7222 120.375 27.0999 120.281 27.5154C120.187 27.9309 120.22 28.365 120.376 28.7614C120.532 29.1578 120.803 29.4983 121.155 29.7385C121.507 29.9788 121.922 30.1078 122.348 30.1089C122.885 30.1066 123.401 29.9022 123.794 29.5364L142.531 12.0708L140.726 20.9006C140.66 21.1781 140.65 21.4661 140.697 21.7474C140.744 22.0288 140.848 22.2978 141.001 22.5383C141.155 22.7788 141.355 22.986 141.59 23.1474C141.825 23.3089 142.091 23.4213 142.37 23.478C142.65 23.5347 142.938 23.5345 143.218 23.4775C143.497 23.4204 143.762 23.3077 143.997 23.1459C144.232 22.9842 144.432 22.7768 144.586 22.536C144.739 22.2953 144.842 22.0262 144.889 21.7448L148.392 4.56055L130.46 5.67641Z" fill="url(#paint7_linear)"/>
<path d="M79.9936 75.5389C72.8935 75.5389 66.0842 72.7184 61.0637 67.6979C56.0432 62.6774 53.2227 55.8681 53.2227 48.768C53.2227 41.6679 56.0432 34.8586 61.0637 29.8381C66.0842 24.8176 72.8935 21.9971 79.9936 21.9971H82.0895V46.643H106.735V48.768C106.725 55.8599 103.905 62.6588 98.8933 67.6763C93.8813 72.6938 87.0855 75.521 79.9936 75.5389ZM77.8686 26.3344C73.617 26.7459 69.5699 28.3576 66.1993 30.9815C62.8287 33.6054 60.2733 37.1334 58.8313 41.1541C57.3893 45.1749 57.12 49.5227 58.0548 53.6907C58.9896 57.8587 61.0899 61.6751 64.1109 64.695C67.1319 67.7148 70.9491 69.8136 75.1175 70.7467C79.2858 71.6798 83.6336 71.4088 87.6538 69.9652C91.674 68.5216 95.201 65.9649 97.8235 62.5933C100.446 59.2216 102.056 55.1739 102.466 50.9221H77.9171L77.8686 26.3344Z" fill="url(#paint8_linear)"/>
<path d="M110.947 41.6071H87.8047L88.0084 17.291L92.2584 17.3298L92.0837 37.3668H110.947V41.6071Z" fill="url(#paint9_linear)"/>
<path d="M90.5313 61.333C92.0371 61.333 93.2578 60.1123 93.2578 58.6065C93.2578 57.1006 92.0371 55.8799 90.5313 55.8799C89.0254 55.8799 87.8047 57.1006 87.8047 58.6065C87.8047 60.1123 89.0254 61.333 90.5313 61.333Z" fill="url(#paint10_linear)"/>
<path d="M107.414 109.015L95.5957 90.7442L97.9342 89.7738C100.229 88.7862 102.431 87.5944 104.513 86.2128C106.459 84.9671 108.297 83.5583 110.005 82.0016L111.858 80.2842L123.599 98.4484L107.414 109.015ZM101.418 91.9182L108.889 103.504L117.961 97.5946L110.529 86.0769C109.192 87.1686 107.796 88.1857 106.347 89.1237C104.763 90.1554 103.116 91.0887 101.418 91.9182Z" fill="url(#paint11_linear)"/>
<path d="M135.719 129.615C134.968 129.454 134.186 129.521 133.472 129.805C132.758 130.089 132.145 130.579 131.71 131.213C131.275 131.846 131.037 132.594 131.028 133.362C131.018 134.131 131.237 134.885 131.656 135.528C132.075 136.172 132.676 136.677 133.383 136.979C134.089 137.281 134.87 137.367 135.625 137.225C136.38 137.083 137.076 136.721 137.625 136.183C138.174 135.645 138.551 134.957 138.708 134.204C138.918 133.2 138.721 132.153 138.161 131.293C137.601 130.433 136.723 129.829 135.719 129.615Z" fill="url(#paint12_linear)"/>
<path d="M79.9943 84.0097C73.0291 84.0116 66.2197 81.9478 60.4276 78.0794C54.6354 74.2109 50.1205 68.7115 47.4542 62.2768C44.7878 55.8422 44.0897 48.7613 45.4481 41.9298C46.8064 35.0983 50.1603 28.8231 55.0854 23.898C60.0106 18.9728 66.2858 15.6189 73.1173 14.2605C79.9488 12.9022 87.0297 13.6003 93.4644 16.2667C99.8991 18.933 105.398 23.4478 109.267 29.24C113.135 35.0322 115.199 41.8415 115.197 48.8068C115.187 58.14 111.475 67.0881 104.875 73.6877C98.2756 80.2873 89.3276 83.9994 79.9943 84.0097ZM79.9943 17.8441C73.8705 17.8441 67.8841 19.66 62.7923 23.0622C57.7006 26.4645 53.732 31.3002 51.3885 36.9579C49.045 42.6155 48.4318 48.8411 49.6265 54.8473C50.8212 60.8535 53.7702 66.3705 58.1004 70.7007C62.4306 75.0309 67.9476 77.9798 73.9538 79.1745C79.9599 80.3692 86.1855 79.756 91.8432 77.4125C97.5009 75.0691 102.337 71.1005 105.739 66.0087C109.141 60.9169 110.957 54.9306 110.957 48.8068C110.947 40.5981 107.681 32.7286 101.877 26.9242C96.0725 21.1198 88.203 17.8543 79.9943 17.8441ZM79.9943 97.5941C70.3423 97.596 60.9066 94.7355 52.8804 89.3744C44.8543 84.0132 38.5984 76.3922 34.9038 67.4753C31.2093 58.5585 30.2421 48.7462 32.1247 39.2796C34.0072 29.813 38.6549 21.1173 45.4799 14.2923C52.3048 7.46737 61.0005 2.81971 70.4671 0.93717C79.9337 -0.945365 89.746 0.0217971 98.6629 3.71633C107.58 7.41087 115.201 13.6668 120.562 21.6929C125.923 29.719 128.784 39.1548 128.782 48.8068C128.766 61.7412 123.621 74.1415 114.475 83.2876C105.329 92.4337 92.9288 97.5787 79.9943 97.5941ZM79.9943 4.25969C71.1837 4.25969 62.571 6.87233 55.2452 11.7672C47.9195 16.6621 42.2098 23.6194 38.8382 31.7593C35.4665 39.8993 34.5843 48.8562 36.3032 57.4975C38.022 66.1387 42.2647 74.0763 48.4947 80.3063C54.7247 86.5363 62.6623 90.779 71.3036 92.4979C79.9449 94.2167 88.9018 93.3345 97.0417 89.9629C105.182 86.5912 112.139 80.8815 117.034 73.5558C121.929 66.2301 124.541 57.6173 124.541 48.8068C124.518 36.9992 119.817 25.6819 111.468 17.3327C103.119 8.98352 91.8018 4.28277 79.9943 4.25969Z" fill="url(#paint13_linear)"/>
<path d="M139.135 112.469L140.454 114.409L139.135 112.469Z" fill="url(#paint14_linear)"/>
<path d="M148.488 126.86L141.444 116.021L140.474 114.478L139.154 112.538L125.705 92.1611L100.584 108.53L115.43 130.848L123.425 143.141C125.028 145.64 127.341 147.603 130.067 148.78C132.793 149.956 135.807 150.292 138.725 149.745C141.643 149.198 144.332 147.793 146.446 145.709C148.56 143.625 150.005 140.957 150.594 138.047C151.001 136.136 151.025 134.163 150.663 132.242C150.302 130.322 149.563 128.492 148.488 126.86ZM124.444 98.0218L135.564 114.799L117.613 126.442L106.493 109.666L124.444 98.0218ZM146.412 137.213C145.982 139.285 144.946 141.182 143.435 142.664C141.925 144.146 140.008 145.145 137.928 145.535C135.848 145.925 133.699 145.688 131.755 144.854C129.81 144.02 128.157 142.627 127.006 140.851L119.932 130.032L137.883 118.389L144.927 129.208C146.453 131.578 146.987 134.453 146.412 137.213Z" fill="url(#paint15_linear)"/>
<path d="M140.436 114.479L141.406 116.021L140.436 114.479Z" fill="url(#paint16_linear)"/>
<path d="M10.7334 121.28C8.13027 121.281 5.6207 120.309 3.69765 118.555C1.7746 116.8 0.577029 114.39 0.340168 111.798C0.103307 109.206 0.844281 106.619 2.41754 104.545C3.9908 102.471 6.2826 101.06 8.84284 100.59C11.4031 100.119 14.0467 100.623 16.2544 102.002C18.4621 103.382 20.0743 105.536 20.7744 108.044C21.4744 110.551 21.2117 113.229 20.0379 115.553C18.864 117.876 16.8638 119.677 14.4303 120.601C13.2498 121.051 11.9968 121.281 10.7334 121.28ZM10.7334 104.658C9.53952 104.658 8.37094 105.002 7.36765 105.649C6.36437 106.297 5.56889 107.219 5.07643 108.307C4.52794 109.524 4.38801 110.887 4.67756 112.191C4.9671 113.495 5.67058 114.67 6.68297 115.541C7.69536 116.412 8.96235 116.933 10.2948 117.025C11.6273 117.117 12.9538 116.775 14.0762 116.051C15.1987 115.327 16.0569 114.26 16.5227 113.008C16.9886 111.756 17.0372 110.388 16.6611 109.106C16.2851 107.824 15.5046 106.699 14.4363 105.897C13.3679 105.096 12.069 104.661 10.7334 104.658Z" fill="url(#paint17_linear)"/>
<defs>
<linearGradient id="paint0_linear" x1="15191" y1="6365.27" x2="15666.3" y2="6365.27" gradientUnits="userSpaceOnUse">
<stop stop-color="#64D8BC"/>
<stop offset="1" stop-color="#E3F24C"/>
</linearGradient>
<linearGradient id="paint1_linear" x1="14479.7" y1="3595.31" x2="14955.3" y2="3595.31" gradientUnits="userSpaceOnUse">
<stop stop-color="#64D8BC"/>
<stop offset="1" stop-color="#E3F24C"/>
</linearGradient>
<linearGradient id="paint2_linear" x1="15935.7" y1="6330.34" x2="16412.7" y2="6330.34" gradientUnits="userSpaceOnUse">
<stop stop-color="#64D8BC"/>
<stop offset="1" stop-color="#E3F24C"/>
</linearGradient>
<linearGradient id="paint3_linear" x1="16633" y1="7191.95" x2="17109" y2="7191.95" gradientUnits="userSpaceOnUse">
<stop stop-color="#64D8BC"/>
<stop offset="1" stop-color="#E3F24C"/>
</linearGradient>
<linearGradient id="paint4_linear" x1="10505.2" y1="771.159" x2="10682.9" y2="771.159" gradientUnits="userSpaceOnUse">
<stop stop-color="#64D8BC"/>
<stop offset="1" stop-color="#E3F24C"/>
</linearGradient>
<linearGradient id="paint5_linear" x1="79312.8" y1="771.159" x2="95024.7" y2="771.159" gradientUnits="userSpaceOnUse">
<stop stop-color="#64D8BC"/>
<stop offset="1" stop-color="#E3F24C"/>
</linearGradient>
<linearGradient id="paint6_linear" x1="28874.3" y1="2038.23" x2="30885.3" y2="2038.23" gradientUnits="userSpaceOnUse">
<stop stop-color="#64D8BC"/>
<stop offset="1" stop-color="#E3F24C"/>
</linearGradient>
<linearGradient id="paint7_linear" x1="21615.6" y1="516.038" x2="22433.2" y2="516.038" gradientUnits="userSpaceOnUse">
<stop stop-color="#64D8BC"/>
<stop offset="1" stop-color="#E3F24C"/>
</linearGradient>
<linearGradient id="paint8_linear" x1="41728.4" y1="6234.46" x2="35494.4" y2="-233.761" gradientUnits="userSpaceOnUse">
<stop stop-color="#FF059D"/>
<stop offset="1" stop-color="#FFF904"/>
</linearGradient>
<linearGradient id="paint9_linear" x1="17527.1" y1="1417.17" x2="16616.7" y2="333.358" gradientUnits="userSpaceOnUse">
<stop stop-color="#FF059D"/>
<stop offset="1" stop-color="#FFF904"/>
</linearGradient>
<linearGradient id="paint10_linear" x1="4052.25" y1="449.816" x2="4121.07" y2="332.737" gradientUnits="userSpaceOnUse">
<stop stop-color="#FF059D"/>
<stop offset="1" stop-color="#FFF904"/>
</linearGradient>
<linearGradient id="paint11_linear" x1="20759.8" y1="2945.05" x2="21567.9" y2="2945.05" gradientUnits="userSpaceOnUse">
<stop stop-color="#10C2FF"/>
<stop offset="0.22" stop-color="#10BEFF"/>
<stop offset="0.43" stop-color="#12B3FF"/>
<stop offset="0.63" stop-color="#14A0FF"/>
<stop offset="0.83" stop-color="#1786FF"/>
<stop offset="1" stop-color="#1A68FF"/>
</linearGradient>
<linearGradient id="paint12_linear" x1="6142.62" y1="1213.49" x2="6204.72" y2="1213.49" gradientUnits="userSpaceOnUse">
<stop stop-color="#10C2FF"/>
<stop offset="0.22" stop-color="#10BEFF"/>
<stop offset="0.43" stop-color="#12B3FF"/>
<stop offset="0.63" stop-color="#14A0FF"/>
<stop offset="0.83" stop-color="#1786FF"/>
<stop offset="1" stop-color="#1A68FF"/>
</linearGradient>
<linearGradient id="paint13_linear" x1="65571.5" y1="5118.81" x2="75385.5" y2="5118.81" gradientUnits="userSpaceOnUse">
<stop stop-color="#10C2FF"/>
<stop offset="0.22" stop-color="#10BEFF"/>
<stop offset="0.43" stop-color="#12B3FF"/>
<stop offset="0.63" stop-color="#14A0FF"/>
<stop offset="0.83" stop-color="#1786FF"/>
<stop offset="1" stop-color="#1A68FF"/>
</linearGradient>
<linearGradient id="paint14_linear" x1="1172.13" y1="343.578" x2="1173.93" y2="343.578" gradientUnits="userSpaceOnUse">
<stop stop-color="#10C2FF"/>
<stop offset="0.22" stop-color="#10BEFF"/>
<stop offset="0.43" stop-color="#12B3FF"/>
<stop offset="0.63" stop-color="#14A0FF"/>
<stop offset="0.83" stop-color="#1786FF"/>
<stop offset="1" stop-color="#1A68FF"/>
</linearGradient>
<linearGradient id="paint15_linear" x1="37501.7" y1="7432.59" x2="40111.5" y2="7432.59" gradientUnits="userSpaceOnUse">
<stop stop-color="#10C2FF"/>
<stop offset="0.22" stop-color="#10BEFF"/>
<stop offset="0.43" stop-color="#12B3FF"/>
<stop offset="0.63" stop-color="#14A0FF"/>
<stop offset="0.83" stop-color="#1786FF"/>
<stop offset="1" stop-color="#1A68FF"/>
</linearGradient>
<linearGradient id="paint16_linear" x1="901.287" y1="301.034" x2="902.306" y2="301.034" gradientUnits="userSpaceOnUse">
<stop stop-color="#10C2FF"/>
<stop offset="0.22" stop-color="#10BEFF"/>
<stop offset="0.43" stop-color="#12B3FF"/>
<stop offset="0.63" stop-color="#14A0FF"/>
<stop offset="0.83" stop-color="#1786FF"/>
<stop offset="1" stop-color="#1A68FF"/>
</linearGradient>
<linearGradient id="paint17_linear" x1="13345.8" y1="2528.52" x2="13794.5" y2="2528.52" gradientUnits="userSpaceOnUse">
<stop stop-color="#64D8BC"/>
<stop offset="1" stop-color="#E3F24C"/>
</linearGradient>
</defs>
</svg>
