<svg width="154" height="151" viewBox="0 0 154 151" fill="none" xmlns="http://www.w3.org/2000/svg">
<path d="M83.2539 72.9199V75.3424C83.2527 75.7839 83.1644 76.2208 82.994 76.628C82.8236 77.0353 82.5746 77.405 82.2611 77.7158C81.9476 78.0267 81.5759 78.2726 81.1672 78.4395C80.7585 78.6065 80.3209 78.6911 79.8794 78.6886H74.827C73.9412 78.6862 73.0925 78.3325 72.467 77.7052C71.8415 77.078 71.4902 76.2283 71.4902 75.3424V72.9199H83.2539Z" fill="url(#paint0_linear)"/>
<path d="M83.2539 72.9199V75.3424C83.2527 75.7839 83.1644 76.2208 82.994 76.628C82.8236 77.0353 82.5746 77.405 82.2611 77.7158C81.9476 78.0267 81.5759 78.2726 81.1672 78.4395C80.7585 78.6065 80.3209 78.6911 79.8794 78.6886H74.827C73.9412 78.6862 73.0925 78.3325 72.467 77.7052C71.8415 77.078 71.4902 76.2283 71.4902 75.3424V72.9199H83.2539Z" fill="url(#paint1_linear)"/>
<path d="M89.4934 63.739H65.2403C64.6928 63.739 64.1677 63.5215 63.7806 63.1344C63.3934 62.7472 63.176 62.2222 63.176 61.6747V57.9043C62.8412 53.186 61.6431 48.5693 59.6412 44.2837C58.8143 42.6615 57.8953 41.0879 56.8888 39.5707C54.4569 35.8002 52.1758 32.2184 52.1758 24.8189C52.3034 18.2173 55.0156 11.9291 59.7295 7.30546C64.4433 2.68185 70.7828 0.0917969 77.3857 0.0917969C83.9886 0.0917969 90.328 2.68185 95.0419 7.30546C99.7558 11.9291 102.468 18.2173 102.596 24.8189C102.596 31.7565 99.2965 37.2801 96.8834 41.3145L96.233 42.4079L96.1765 42.5022C92.5569 47.9598 92.2835 50.6934 91.6049 57.3858V57.7912V61.7218C91.5987 61.9929 91.5393 62.2602 91.4298 62.5083C91.3204 62.7564 91.1631 62.9805 90.9671 63.1679C90.771 63.3552 90.5399 63.502 90.2871 63.6C90.0342 63.698 89.7645 63.7452 89.4934 63.739ZM67.3046 59.6198H87.4197V57.6404C87.4148 57.5713 87.4148 57.502 87.4197 57.433V56.924C88.1266 50.0053 88.4848 46.5553 92.6134 40.2588L93.2544 39.1936C95.413 35.574 98.3822 30.6065 98.3822 24.8095C98.3822 19.2171 96.1606 13.8538 92.2062 9.89943C88.2518 5.94503 82.8885 3.72348 77.2961 3.72348C71.7038 3.72348 66.3405 5.94503 62.3861 9.89943C58.4317 13.8538 56.2101 19.2171 56.2101 24.8095C56.3138 30.993 58.0859 33.8208 60.3576 37.3273C61.4477 38.9619 62.4422 40.6583 63.3362 42.4079C65.5743 47.1713 66.9163 52.3061 67.2951 57.5555C67.2998 57.6246 67.2998 57.6938 67.2951 57.7629L67.3046 59.6198Z" fill="url(#paint2_linear)"/>
<path d="M86.3164 74.9836H68.407C67.0336 74.9836 65.7164 74.4387 64.7444 73.4684C63.7725 72.4982 63.2252 71.182 63.2227 69.8087V61.6834C63.2227 61.1359 63.4401 60.6109 63.8273 60.2238C64.2144 59.8366 64.7395 59.6191 65.287 59.6191H89.5024C89.7743 59.6204 90.0433 59.6753 90.2939 59.7808C90.5445 59.8862 90.7718 60.0402 90.9627 60.2337C91.1536 60.4273 91.3045 60.6567 91.4065 60.9087C91.5085 61.1607 91.5598 61.4304 91.5573 61.7023L91.4913 69.8464C91.4789 71.2115 90.9285 72.5167 89.9596 73.4785C88.9908 74.4403 87.6816 74.9811 86.3164 74.9836ZM67.3041 63.7477V69.8087C67.3066 70.087 67.4189 70.3531 67.6166 70.5491C67.8144 70.745 68.0815 70.855 68.3598 70.855H86.2693C86.5452 70.855 86.8099 70.746 87.0058 70.5518C87.2018 70.3577 87.3131 70.094 87.3156 69.8181L87.4193 63.7477H67.3041Z" fill="url(#paint3_linear)"/>
<path d="M80.0863 52.9078C79.9515 52.9223 79.8157 52.9223 79.6809 52.9078C79.1451 52.8008 78.6736 52.4857 78.3697 52.0316C78.0657 51.5775 77.9543 51.0214 78.0597 50.4853L81.9903 30.4078L81.7735 30.5681C81.5165 30.7574 81.2226 30.8906 80.9108 30.9592C80.5991 31.0278 80.2764 31.0301 79.9637 30.9662C79.651 30.9022 79.3552 30.7733 79.0954 30.5878C78.8356 30.4024 78.6176 30.1644 78.4556 29.8894L77.447 28.1644L76.6458 29.6538C76.4877 29.9291 76.2748 30.1691 76.0203 30.3588C75.7657 30.5485 75.4749 30.6839 75.1659 30.7566C74.8598 30.8344 74.5408 30.8477 74.2293 30.7958C73.9178 30.7438 73.6204 30.6278 73.3561 30.455L72.6397 29.9837L76.6552 50.4476C76.7265 50.7203 76.7412 51.0048 76.6984 51.2835C76.6556 51.5622 76.5561 51.8291 76.4061 52.0678C76.2562 52.3066 76.0589 52.5121 75.8265 52.6717C75.5941 52.8313 75.3314 52.9415 75.0547 52.9957C74.778 53.0499 74.4932 53.0468 74.2177 52.9867C73.9423 52.9265 73.6821 52.8106 73.4532 52.6461C73.2242 52.4815 73.0314 52.2718 72.8867 52.0298C72.7419 51.7879 72.6482 51.5189 72.6114 51.2394L67.7853 26.4866C67.7008 26.0477 67.7471 25.5936 67.9185 25.1807C68.0898 24.7679 68.3788 24.4145 68.7493 24.1644C69.1198 23.9144 69.5557 23.7787 70.0027 23.7743C70.4496 23.7699 70.8881 23.8969 71.2635 24.1395L73.9688 25.9116L75.3732 23.3195C75.5675 22.9671 75.8512 22.6721 76.1956 22.4642C76.5401 22.2563 76.9333 22.1428 77.3356 22.1352C77.7379 22.1275 78.1351 22.226 78.4873 22.4207C78.8394 22.6153 79.1341 22.8993 79.3416 23.2441L80.9723 26.0059L83.3571 24.2526C83.7229 23.9838 84.1606 23.8301 84.6142 23.8114C85.0678 23.7928 85.5167 23.9098 85.9034 24.1477C86.29 24.3856 86.5969 24.7335 86.7848 25.1468C86.9726 25.5601 87.0329 26.02 86.9578 26.4678L82.1034 51.2394C82.0119 51.7078 81.7609 52.13 81.3931 52.4342C81.0253 52.7384 80.5635 52.9057 80.0863 52.9078Z" fill="url(#paint4_linear)"/>
<path d="M127.876 60.7596C127.593 59.6379 127.272 58.5351 126.933 57.4417L130.317 56.3294C130.704 57.4982 131.052 58.6859 131.354 59.8736L127.876 60.7596ZM125.727 54.2085C125.293 53.134 124.784 52.0877 124.322 51.0508L127.536 49.4955C128.064 50.5984 128.573 51.7295 129.035 52.8606L125.727 54.2085ZM122.71 48.0062C122.138 46.9945 121.535 46.0142 120.901 45.0653L123.879 43.0952C124.548 44.1038 125.199 45.1595 125.764 46.2247L122.71 48.0062ZM118.94 42.2563C118.233 41.3137 117.507 40.4465 116.753 39.5793L119.439 37.2322C120.241 38.1748 121.032 39.1175 121.777 40.0601L118.94 42.2563ZM114.397 37.0532C113.586 36.2425 112.738 35.4507 111.88 34.6966L114.227 32.0102C115.169 32.8114 116.056 33.6598 116.923 34.5364L114.397 37.0532ZM109.203 32.5098C108.26 31.8029 107.318 31.1336 106.375 30.5021L108.354 27.5234C109.372 28.2021 110.381 28.9185 111.361 29.6726L109.203 32.5098Z" fill="url(#paint5_linear)"/>
<path d="M27.5437 60.0534L24.0938 59.1108C24.4142 57.9231 24.7818 56.7354 25.1777 55.576L28.5523 56.7448C28.1846 57.8383 27.8453 58.9411 27.5437 60.0534ZM29.7871 53.5306L26.4974 52.1449C26.9781 51.0138 27.4965 49.8921 28.0527 48.7987L31.2387 50.4011C30.7202 51.4286 30.2395 52.4843 29.7871 53.5306ZM32.8882 47.3754L29.8153 45.5562C30.4375 44.5004 31.1067 43.4541 31.7948 42.4456L34.7452 44.4627C34.0948 45.4053 33.4726 46.3856 32.8882 47.3754ZM36.7906 41.6726L33.9628 39.4669C34.7169 38.5243 35.5087 37.5817 36.3382 36.6391L38.9869 39.0333C38.2422 39.8911 37.4599 40.7772 36.7906 41.6726ZM41.3999 36.5449L38.9115 33.981C39.7881 33.1326 40.7024 32.2937 41.6356 31.5019L43.9544 34.2166C43.1155 34.9613 42.22 35.706 41.3999 36.5449ZM46.6502 32.0675L44.52 29.2397C45.4626 28.5045 46.5277 27.7975 47.5551 27.1377L49.4403 30.1352C48.526 30.7196 47.574 31.3794 46.6502 32.0675Z" fill="url(#paint6_linear)"/>
<path d="M73.7324 113.047L77.3614 106.712L80.9999 113.047H73.7324ZM80.9999 125.084L77.3614 118.749L73.7324 125.084H80.9999ZM80.9999 101.302L77.3614 94.9675L73.7324 101.302H80.9999ZM80.9999 89.5569L77.3614 83.2227L73.7324 89.5569H80.9999Z" fill="url(#paint7_linear)"/>
<path d="M140.847 143.888H117.159C116.887 143.887 116.618 143.832 116.368 143.727C116.117 143.621 115.89 143.467 115.699 143.274C115.508 143.08 115.357 142.851 115.255 142.599C115.153 142.347 115.102 142.077 115.104 141.805C115.104 140.57 115.208 139.317 115.293 138.101C115.51 134.962 115.717 132.002 114.445 130.824C113.445 129.881 111.193 129.683 107.931 130.183C101.088 131.22 97.8548 130.843 96.4126 128.835C94.9704 126.827 96.1675 124.358 97.3552 122.02C98.213 120.361 99.2404 118.297 98.8257 117.166C98.6466 116.694 98.0999 116.496 97.3552 116.223C96.875 116.102 96.4234 115.887 96.0261 115.591C95.8757 115.468 95.7453 115.321 95.6397 115.158C94.8667 114.008 94.9516 112.396 95.9696 108.748C95.9945 108.707 96.0077 108.66 96.0077 108.611C96.0077 108.563 95.9945 108.516 95.9696 108.475C95.5132 108.329 95.0302 108.288 94.5557 108.352C93.8777 108.395 93.1977 108.395 92.5197 108.352C92.1379 108.324 91.7716 108.19 91.4617 107.965C91.1518 107.74 90.9105 107.433 90.7648 107.079C90.619 106.725 90.5746 106.338 90.6365 105.96C90.6984 105.582 90.8641 105.229 91.1152 104.94C92.0578 103.809 93.0004 102.819 93.7639 101.933C97.2704 97.9648 98.3826 96.6169 97.9868 95.8251C95.0647 89.8867 95.6114 82.9303 99.4855 76.7468C104.453 68.7912 115.415 61.8254 131.261 66.1331C142.261 69.1117 153.534 77.925 153.883 90.8576C154.034 95.8722 151.743 102.508 149.538 106.571C149.524 106.603 149.508 106.635 149.491 106.665C147.964 109.757 140.47 125.97 142.892 141.475C142.94 141.769 142.924 142.07 142.843 142.357C142.763 142.644 142.621 142.91 142.427 143.136C142.233 143.363 141.992 143.544 141.721 143.667C141.449 143.791 141.154 143.853 140.856 143.851L140.847 143.888ZM119.308 139.769H138.509C136.954 124.273 143.628 109.276 145.796 104.893C145.82 104.814 145.858 104.741 145.909 104.676C147.869 101.066 149.886 95.0616 149.764 91.0366C149.453 80.2061 139.688 72.7502 130.158 70.1674C121.194 67.7355 109.355 68.7724 102.954 78.9902C99.8625 83.9389 99.3912 89.4342 101.672 94.0718C103.284 97.3709 101.342 99.6426 97.0347 104.497C97.9225 104.756 98.6986 105.303 99.2404 106.052C99.6512 106.599 99.9297 107.233 100.054 107.905C100.178 108.577 100.145 109.269 99.9568 109.926C99.6891 110.804 99.4781 111.698 99.3253 112.603C100.072 112.847 100.757 113.248 101.334 113.78C101.912 114.312 102.368 114.962 102.671 115.686C103.803 118.514 102.276 121.53 101.041 123.933C100.589 124.738 100.207 125.58 99.9002 126.45C100.485 126.629 102.266 126.893 107.309 126.13C112.022 125.413 115.208 125.941 117.244 127.817C119.978 130.343 119.685 134.415 119.403 138.421C119.374 138.845 119.337 139.307 119.308 139.769Z" fill="url(#paint8_linear)"/>
<path d="M30.015 104.13C27.5131 104.13 25.0674 103.388 22.9872 101.998C20.9069 100.608 19.2856 98.6321 18.3281 96.3207C17.3707 94.0092 17.1202 91.4658 17.6083 89.012C18.0964 86.5582 19.3012 84.3042 21.0703 82.5351C22.8394 80.766 25.0933 79.5612 27.5471 79.0731C30.0009 78.5851 32.5444 78.8356 34.8558 79.793C37.1672 80.7504 39.1429 82.3718 40.5328 84.452C41.9228 86.5322 42.6647 88.9779 42.6647 91.4798C42.6622 94.834 41.3287 98.05 38.9569 100.422C36.5852 102.794 33.3691 104.127 30.015 104.13ZM30.015 82.9493C28.3371 82.9493 26.6969 83.4468 25.3018 84.379C23.9067 85.3111 22.8194 86.6361 22.1773 88.1862C21.5352 89.7364 21.3672 91.4421 21.6946 93.0877C22.0219 94.7333 22.8299 96.2449 24.0163 97.4314C25.2027 98.6178 26.7143 99.4258 28.3599 99.7531C30.0056 100.08 31.7113 99.9124 33.2614 99.2703C34.8116 98.6283 36.1365 97.5409 37.0687 96.1458C38.0008 94.7507 38.4984 93.1106 38.4984 91.4327C38.486 89.1866 37.5883 87.0359 36 85.4477C34.4117 83.8594 32.2611 82.9616 30.015 82.9493Z" fill="url(#paint9_linear)"/>
<path d="M133.268 102.452H115.453C114.905 102.452 114.38 102.234 113.993 101.847C113.606 101.46 113.389 100.935 113.389 100.387V82.5721C113.389 82.0246 113.606 81.4996 113.993 81.1124C114.38 80.7253 114.905 80.5078 115.453 80.5078H133.268C133.816 80.5078 134.341 80.7253 134.728 81.1124C135.115 81.4996 135.332 82.0246 135.332 82.5721V100.387C135.332 100.935 135.115 101.46 134.728 101.847C134.341 102.234 133.816 102.452 133.268 102.452ZM117.517 98.323H131.213V84.627H117.517V98.323Z" fill="url(#paint10_linear)"/>
<path d="M37.4611 143.889H13.7452C13.4477 143.89 13.1536 143.826 12.8831 143.702C12.6127 143.578 12.3723 143.397 12.1787 143.171C11.9851 142.945 11.8429 142.68 11.7618 142.394C11.6807 142.108 11.6628 141.807 11.7092 141.513C14.1317 126.008 6.62856 109.795 5.11097 106.703C5.10928 106.672 5.10928 106.64 5.11097 106.609C2.84872 102.546 0.558196 95.9103 0.699586 90.8956C1.07663 77.9631 12.3407 69.1498 23.3221 66.1712C39.1672 61.8635 50.1297 68.8293 55.1066 76.7849C58.9713 82.9778 59.518 89.9813 56.5865 95.8726C56.2095 96.6549 57.3123 98.0029 60.8282 101.971L63.4675 104.978C63.7185 105.267 63.8843 105.62 63.9462 105.998C64.008 106.376 63.9636 106.763 63.8179 107.118C63.6722 107.472 63.4309 107.778 63.121 108.003C62.8111 108.228 62.4448 108.362 62.063 108.39C61.385 108.433 60.705 108.433 60.027 108.39C59.5827 108.333 59.1328 108.333 58.6885 108.39C58.5754 108.522 58.5377 108.598 58.5848 108.749C59.5934 112.349 59.6782 114.027 58.9147 115.158C58.8116 115.324 58.6809 115.47 58.5283 115.592C58.1326 115.89 57.6804 116.105 57.1992 116.223C56.4545 116.459 55.9173 116.657 55.7287 117.166C55.2857 118.307 56.3414 120.371 57.1992 122.03C58.3963 124.358 59.6405 126.743 58.1418 128.845C56.6431 130.947 53.4759 131.23 46.6232 130.193C43.3524 129.693 41.0995 129.919 40.1098 130.834C38.8373 132.012 39.0447 134.972 39.2615 138.111C39.3557 139.327 39.4406 140.58 39.45 141.815C39.4528 142.351 39.2468 142.868 38.8755 143.255C38.5043 143.642 37.997 143.869 37.4611 143.889ZM16.0829 139.77H35.2837C35.2837 139.308 35.2177 138.827 35.1894 138.393C34.9066 134.416 34.6144 130.315 37.348 127.789C39.384 125.904 42.5323 125.385 47.283 126.102C52.3259 126.865 54.1075 126.601 54.6919 126.422C54.3843 125.554 54.006 124.712 53.5607 123.906C52.3259 121.502 50.7895 118.514 51.9206 115.648C52.2265 114.925 52.6845 114.277 53.2636 113.746C53.8426 113.216 54.5291 112.817 55.2763 112.576C55.1139 111.673 54.9031 110.779 54.6447 109.899C54.4517 109.238 54.4168 108.542 54.5429 107.865C54.669 107.189 54.9525 106.552 55.3705 106.006C55.9134 105.28 56.683 104.755 57.5574 104.516C53.2497 99.6618 51.3079 97.3902 52.9198 94.1476C55.2009 89.4346 54.7296 83.9204 51.6001 78.9717C45.2376 68.7539 33.389 67.7547 24.4343 70.149C14.9046 72.7317 5.13925 80.1877 4.82819 91.0182C4.70565 95.0431 6.71339 101.047 8.69286 104.658L8.74941 104.79C10.974 109.295 17.6664 124.311 16.0829 139.77Z" fill="url(#paint11_linear)"/>
<path d="M40.977 150.091H9.99368C8.66313 150.034 7.40595 149.466 6.48458 148.504C5.5632 147.542 5.04883 146.262 5.04883 144.93C5.04883 143.599 5.5632 142.318 6.48458 141.357C7.40595 140.395 8.66313 139.826 9.99368 139.77H40.977C42.3076 139.826 43.5648 140.395 44.4861 141.357C45.4075 142.318 45.9219 143.599 45.9219 144.93C45.9219 146.262 45.4075 147.542 44.4861 148.504C43.5648 149.466 42.3076 150.034 40.977 150.091ZM9.99368 143.889C9.85286 143.875 9.71072 143.893 9.57782 143.942C9.44492 143.99 9.32467 144.068 9.22597 144.169C9.12728 144.271 9.05269 144.393 9.00773 144.527C8.96277 144.661 8.94859 144.804 8.96625 144.944C8.95012 145.084 8.96545 145.226 9.0111 145.359C9.05675 145.492 9.13157 145.613 9.23008 145.713C9.32859 145.813 9.44829 145.89 9.58041 145.938C9.71254 145.986 9.85374 146.004 9.99368 145.991H40.977C41.117 146.004 41.2582 145.986 41.3903 145.938C41.5224 145.89 41.6421 145.813 41.7406 145.713C41.8391 145.613 41.914 145.492 41.9596 145.359C42.0053 145.226 42.0206 145.084 42.0045 144.944C42.0176 144.806 42 144.667 41.953 144.536C41.906 144.406 41.8308 144.287 41.7326 144.189C41.6344 144.091 41.5158 144.015 41.3852 143.968C41.2546 143.921 41.1152 143.904 40.977 143.917L9.99368 143.889Z" fill="white"/>
<path d="M40.977 150.091H9.99368C8.66313 150.034 7.40595 149.466 6.48458 148.504C5.5632 147.542 5.04883 146.262 5.04883 144.93C5.04883 143.599 5.5632 142.318 6.48458 141.357C7.40595 140.395 8.66313 139.826 9.99368 139.77H40.977C42.3076 139.826 43.5648 140.395 44.4861 141.357C45.4075 142.318 45.9219 143.599 45.9219 144.93C45.9219 146.262 45.4075 147.542 44.4861 148.504C43.5648 149.466 42.3076 150.034 40.977 150.091ZM9.99368 143.889C9.85286 143.875 9.71072 143.893 9.57782 143.942C9.44492 143.99 9.32467 144.068 9.22597 144.169C9.12728 144.271 9.05269 144.393 9.00773 144.527C8.96277 144.661 8.94859 144.804 8.96625 144.944C8.95012 145.084 8.96545 145.226 9.0111 145.359C9.05675 145.492 9.13157 145.613 9.23008 145.713C9.32859 145.813 9.44829 145.89 9.58041 145.938C9.71254 145.986 9.85374 146.004 9.99368 145.991H40.977C41.117 146.004 41.2582 145.986 41.3903 145.938C41.5224 145.89 41.6421 145.813 41.7406 145.713C41.8391 145.613 41.914 145.492 41.9596 145.359C42.0053 145.226 42.0206 145.084 42.0045 144.944C42.0176 144.806 42 144.667 41.953 144.536C41.906 144.406 41.8308 144.287 41.7326 144.189C41.6344 144.091 41.5158 144.015 41.3852 143.968C41.2546 143.921 41.1152 143.904 40.977 143.917L9.99368 143.889Z" fill="black"/>
<path d="M40.977 150.091H9.99368C8.66313 150.034 7.40595 149.466 6.48458 148.504C5.5632 147.542 5.04883 146.262 5.04883 144.93C5.04883 143.599 5.5632 142.318 6.48458 141.357C7.40595 140.395 8.66313 139.826 9.99368 139.77H40.977C42.3076 139.826 43.5648 140.395 44.4861 141.357C45.4075 142.318 45.9219 143.599 45.9219 144.93C45.9219 146.262 45.4075 147.542 44.4861 148.504C43.5648 149.466 42.3076 150.034 40.977 150.091ZM9.99368 143.889C9.85286 143.875 9.71072 143.893 9.57782 143.942C9.44492 143.99 9.32467 144.068 9.22597 144.169C9.12728 144.271 9.05269 144.393 9.00773 144.527C8.96277 144.661 8.94859 144.804 8.96625 144.944C8.95012 145.084 8.96545 145.226 9.0111 145.359C9.05675 145.492 9.13157 145.613 9.23008 145.713C9.32859 145.813 9.44829 145.89 9.58041 145.938C9.71254 145.986 9.85374 146.004 9.99368 145.991H40.977C41.117 146.004 41.2582 145.986 41.3903 145.938C41.5224 145.89 41.6421 145.813 41.7406 145.713C41.8391 145.613 41.914 145.492 41.9596 145.359C42.0053 145.226 42.0206 145.084 42.0045 144.944C42.0176 144.806 42 144.667 41.953 144.536C41.906 144.406 41.8308 144.287 41.7326 144.189C41.6344 144.091 41.5158 144.015 41.3852 143.968C41.2546 143.921 41.1152 143.904 40.977 143.917L9.99368 143.889Z" fill="url(#paint12_linear)"/>
<path d="M40.977 150.091H9.99368C8.66313 150.034 7.40595 149.466 6.48458 148.504C5.5632 147.542 5.04883 146.262 5.04883 144.93C5.04883 143.599 5.5632 142.318 6.48458 141.357C7.40595 140.395 8.66313 139.826 9.99368 139.77H40.977C42.3076 139.826 43.5648 140.395 44.4861 141.357C45.4075 142.318 45.9219 143.599 45.9219 144.93C45.9219 146.262 45.4075 147.542 44.4861 148.504C43.5648 149.466 42.3076 150.034 40.977 150.091ZM9.99368 143.889C9.85286 143.875 9.71072 143.893 9.57782 143.942C9.44492 143.99 9.32467 144.068 9.22597 144.169C9.12728 144.271 9.05269 144.393 9.00773 144.527C8.96277 144.661 8.94859 144.804 8.96625 144.944C8.95012 145.084 8.96545 145.226 9.0111 145.359C9.05675 145.492 9.13157 145.613 9.23008 145.713C9.32859 145.813 9.44829 145.89 9.58041 145.938C9.71254 145.986 9.85374 146.004 9.99368 145.991H40.977C41.117 146.004 41.2582 145.986 41.3903 145.938C41.5224 145.89 41.6421 145.813 41.7406 145.713C41.8391 145.613 41.914 145.492 41.9596 145.359C42.0053 145.226 42.0206 145.084 42.0045 144.944C42.0176 144.806 42 144.667 41.953 144.536C41.906 144.406 41.8308 144.287 41.7326 144.189C41.6344 144.091 41.5158 144.015 41.3852 143.968C41.2546 143.921 41.1152 143.904 40.977 143.917L9.99368 143.889Z" fill="url(#paint13_linear)"/>
<path d="M143.776 150.091H112.793C111.462 150.034 110.205 149.465 109.283 148.504C108.362 147.542 107.848 146.262 107.848 144.93C107.848 143.598 108.362 142.318 109.283 141.357C110.205 140.395 111.462 139.826 112.793 139.769H143.776C144.458 139.757 145.136 139.882 145.769 140.138C146.401 140.393 146.976 140.774 147.457 141.258C147.939 141.741 148.318 142.317 148.571 142.95C148.825 143.584 148.947 144.262 148.932 144.944C148.942 146.226 148.483 147.466 147.641 148.432C147.151 148.967 146.554 149.392 145.887 149.678C145.221 149.965 144.501 150.105 143.776 150.091ZM112.793 143.889C112.654 143.876 112.515 143.893 112.384 143.94C112.254 143.987 112.135 144.062 112.037 144.161C111.939 144.259 111.864 144.377 111.817 144.508C111.77 144.638 111.752 144.778 111.765 144.916C111.749 145.056 111.764 145.197 111.81 145.33C111.856 145.463 111.93 145.584 112.029 145.685C112.127 145.785 112.247 145.862 112.379 145.91C112.511 145.958 112.653 145.976 112.793 145.962H143.776C143.913 145.975 144.052 145.958 144.182 145.911C144.311 145.865 144.43 145.791 144.527 145.693C144.625 145.596 144.701 145.479 144.749 145.35C144.796 145.22 144.815 145.082 144.803 144.944C144.821 144.804 144.807 144.661 144.762 144.527C144.717 144.393 144.642 144.271 144.544 144.169C144.445 144.068 144.325 143.99 144.192 143.941C144.059 143.893 143.917 143.875 143.776 143.889H112.793Z" fill="white"/>
<path d="M143.776 150.091H112.793C111.462 150.034 110.205 149.465 109.283 148.504C108.362 147.542 107.848 146.262 107.848 144.93C107.848 143.598 108.362 142.318 109.283 141.357C110.205 140.395 111.462 139.826 112.793 139.769H143.776C144.458 139.757 145.136 139.882 145.769 140.138C146.401 140.393 146.976 140.774 147.457 141.258C147.939 141.741 148.318 142.317 148.571 142.95C148.825 143.584 148.947 144.262 148.932 144.944C148.942 146.226 148.483 147.466 147.641 148.432C147.151 148.967 146.554 149.392 145.887 149.678C145.221 149.965 144.501 150.105 143.776 150.091ZM112.793 143.889C112.654 143.876 112.515 143.893 112.384 143.94C112.254 143.987 112.135 144.062 112.037 144.161C111.939 144.259 111.864 144.377 111.817 144.508C111.77 144.638 111.752 144.778 111.765 144.916C111.749 145.056 111.764 145.197 111.81 145.33C111.856 145.463 111.93 145.584 112.029 145.685C112.127 145.785 112.247 145.862 112.379 145.91C112.511 145.958 112.653 145.976 112.793 145.962H143.776C143.913 145.975 144.052 145.958 144.182 145.911C144.311 145.865 144.43 145.791 144.527 145.693C144.625 145.596 144.701 145.479 144.749 145.35C144.796 145.22 144.815 145.082 144.803 144.944C144.821 144.804 144.807 144.661 144.762 144.527C144.717 144.393 144.642 144.271 144.544 144.169C144.445 144.068 144.325 143.99 144.192 143.941C144.059 143.893 143.917 143.875 143.776 143.889H112.793Z" fill="black"/>
<path d="M143.776 150.091H112.793C111.462 150.034 110.205 149.465 109.283 148.504C108.362 147.542 107.848 146.262 107.848 144.93C107.848 143.598 108.362 142.318 109.283 141.357C110.205 140.395 111.462 139.826 112.793 139.769H143.776C144.458 139.757 145.136 139.882 145.769 140.138C146.401 140.393 146.976 140.774 147.457 141.258C147.939 141.741 148.318 142.317 148.571 142.95C148.825 143.584 148.947 144.262 148.932 144.944C148.942 146.226 148.483 147.466 147.641 148.432C147.151 148.967 146.554 149.392 145.887 149.678C145.221 149.965 144.501 150.105 143.776 150.091ZM112.793 143.889C112.654 143.876 112.515 143.893 112.384 143.94C112.254 143.987 112.135 144.062 112.037 144.161C111.939 144.259 111.864 144.377 111.817 144.508C111.77 144.638 111.752 144.778 111.765 144.916C111.749 145.056 111.764 145.197 111.81 145.33C111.856 145.463 111.93 145.584 112.029 145.685C112.127 145.785 112.247 145.862 112.379 145.91C112.511 145.958 112.653 145.976 112.793 145.962H143.776C143.913 145.975 144.052 145.958 144.182 145.911C144.311 145.865 144.43 145.791 144.527 145.693C144.625 145.596 144.701 145.479 144.749 145.35C144.796 145.22 144.815 145.082 144.803 144.944C144.821 144.804 144.807 144.661 144.762 144.527C144.717 144.393 144.642 144.271 144.544 144.169C144.445 144.068 144.325 143.99 144.192 143.941C144.059 143.893 143.917 143.875 143.776 143.889H112.793Z" fill="url(#paint14_linear)"/>
<path d="M143.776 150.091H112.793C111.462 150.034 110.205 149.465 109.283 148.504C108.362 147.542 107.848 146.262 107.848 144.93C107.848 143.598 108.362 142.318 109.283 141.357C110.205 140.395 111.462 139.826 112.793 139.769H143.776C144.458 139.757 145.136 139.882 145.769 140.138C146.401 140.393 146.976 140.774 147.457 141.258C147.939 141.741 148.318 142.317 148.571 142.95C148.825 143.584 148.947 144.262 148.932 144.944C148.942 146.226 148.483 147.466 147.641 148.432C147.151 148.967 146.554 149.392 145.887 149.678C145.221 149.965 144.501 150.105 143.776 150.091ZM112.793 143.889C112.654 143.876 112.515 143.893 112.384 143.94C112.254 143.987 112.135 144.062 112.037 144.161C111.939 144.259 111.864 144.377 111.817 144.508C111.77 144.638 111.752 144.778 111.765 144.916C111.749 145.056 111.764 145.197 111.81 145.33C111.856 145.463 111.93 145.584 112.029 145.685C112.127 145.785 112.247 145.862 112.379 145.91C112.511 145.958 112.653 145.976 112.793 145.962H143.776C143.913 145.975 144.052 145.958 144.182 145.911C144.311 145.865 144.43 145.791 144.527 145.693C144.625 145.596 144.701 145.479 144.749 145.35C144.796 145.22 144.815 145.082 144.803 144.944C144.821 144.804 144.807 144.661 144.762 144.527C144.717 144.393 144.642 144.271 144.544 144.169C144.445 144.068 144.325 143.99 144.192 143.941C144.059 143.893 143.917 143.875 143.776 143.889H112.793Z" fill="url(#paint15_linear)"/>
<defs>
<linearGradient id="paint0_linear" x1="73.4603" y1="79.8763" x2="80.6995" y2="70.2806" gradientUnits="userSpaceOnUse">
<stop stop-color="#FF059D"/>
<stop offset="0.45" stop-color="#FF9841"/>
<stop offset="1" stop-color="#FFF904"/>
</linearGradient>
<linearGradient id="paint1_linear" x1="73.4603" y1="79.8763" x2="80.6995" y2="70.2806" gradientUnits="userSpaceOnUse">
<stop stop-color="#1A58FF"/>
<stop offset="0.05" stop-color="#1963FF"/>
<stop offset="0.23" stop-color="#1685FF"/>
<stop offset="0.42" stop-color="#13A0FF"/>
<stop offset="0.6" stop-color="#11B3FF"/>
<stop offset="0.8" stop-color="#10BEFF"/>
<stop offset="1" stop-color="#10C2FF"/>
</linearGradient>
<linearGradient id="paint2_linear" x1="3089.97" y1="4014.99" x2="5793.5" y2="1178.48" gradientUnits="userSpaceOnUse">
<stop stop-color="#FF059D"/>
<stop offset="0.45" stop-color="#FF9841"/>
<stop offset="1" stop-color="#FFF904"/>
</linearGradient>
<linearGradient id="paint3_linear" x1="87.8152" y1="56.8008" x2="66.9648" y2="75.945" gradientUnits="userSpaceOnUse">
<stop stop-color="#E3F24C"/>
<stop offset="0.2" stop-color="#CAED62"/>
<stop offset="1" stop-color="#64D8BC"/>
</linearGradient>
<linearGradient id="paint4_linear" x1="1433.95" y1="1633.85" x2="2041.9" y2="1132.65" gradientUnits="userSpaceOnUse">
<stop stop-color="#FF059D"/>
<stop offset="0.45" stop-color="#FF9841"/>
<stop offset="1" stop-color="#FFF904"/>
</linearGradient>
<linearGradient id="paint5_linear" x1="73.4593" y1="79.8756" x2="80.6985" y2="70.2799" gradientUnits="userSpaceOnUse">
<stop stop-color="#1A58FF"/>
<stop offset="0.05" stop-color="#1963FF"/>
<stop offset="0.23" stop-color="#1685FF"/>
<stop offset="0.42" stop-color="#13A0FF"/>
<stop offset="0.6" stop-color="#11B3FF"/>
<stop offset="0.8" stop-color="#10BEFF"/>
<stop offset="1" stop-color="#10C2FF"/>
</linearGradient>
<linearGradient id="paint6_linear" x1="1618.65" y1="846.738" x2="192.446" y2="1855.28" gradientUnits="userSpaceOnUse">
<stop stop-color="#E3F24C"/>
<stop offset="0.2" stop-color="#CAED62"/>
<stop offset="1" stop-color="#64D8BC"/>
</linearGradient>
<linearGradient id="paint7_linear" x1="73.4591" y1="79.8764" x2="80.6983" y2="70.2807" gradientUnits="userSpaceOnUse">
<stop stop-color="#FF059D"/>
<stop offset="0.45" stop-color="#FF9841"/>
<stop offset="1" stop-color="#FFF904"/>
</linearGradient>
<linearGradient id="paint8_linear" x1="10254.1" y1="6930.72" x2="5902.27" y2="10128.6" gradientUnits="userSpaceOnUse">
<stop stop-color="#E3F24C"/>
<stop offset="0.2" stop-color="#CAED62"/>
<stop offset="1" stop-color="#64D8BC"/>
</linearGradient>
<linearGradient id="paint9_linear" x1="599.759" y1="2833.18" x2="1008.6" y2="2291.52" gradientUnits="userSpaceOnUse">
<stop stop-color="#FF059D"/>
<stop offset="0.45" stop-color="#FF9841"/>
<stop offset="1" stop-color="#FFF904"/>
</linearGradient>
<linearGradient id="paint10_linear" x1="2788.34" y1="2504.86" x2="3196.27" y2="1964.6" gradientUnits="userSpaceOnUse">
<stop stop-color="#FF059D"/>
<stop offset="0.45" stop-color="#FF9841"/>
<stop offset="1" stop-color="#FFF904"/>
</linearGradient>
<linearGradient id="paint11_linear" x1="321.523" y1="11738.4" x2="4544.64" y2="7260.23" gradientUnits="userSpaceOnUse">
<stop stop-color="#1A58FF"/>
<stop offset="0.05" stop-color="#1963FF"/>
<stop offset="0.23" stop-color="#1685FF"/>
<stop offset="0.42" stop-color="#13A0FF"/>
<stop offset="0.6" stop-color="#11B3FF"/>
<stop offset="0.8" stop-color="#10BEFF"/>
<stop offset="1" stop-color="#10C2FF"/>
</linearGradient>
<linearGradient id="paint12_linear" x1="-63064.8" y1="-8383.53" x2="-63202.5" y2="-7883.13" gradientUnits="userSpaceOnUse">
<stop stop-color="#E3F24C"/>
<stop offset="0.2" stop-color="#CAED62"/>
<stop offset="1" stop-color="#64D8BC"/>
</linearGradient>
<linearGradient id="paint13_linear" x1="-63064.8" y1="-8383.53" x2="-63202.5" y2="-7883.13" gradientUnits="userSpaceOnUse">
<stop stop-color="#E3F24C"/>
<stop offset="0.2" stop-color="#CAED62"/>
<stop offset="1" stop-color="#64D8BC"/>
</linearGradient>
<linearGradient id="paint14_linear" x1="-59732.8" y1="-8135.03" x2="-59659.7" y2="-8520.42" gradientUnits="userSpaceOnUse">
<stop stop-color="#1A58FF"/>
<stop offset="0.05" stop-color="#1963FF"/>
<stop offset="0.23" stop-color="#1685FF"/>
<stop offset="0.42" stop-color="#13A0FF"/>
<stop offset="0.6" stop-color="#11B3FF"/>
<stop offset="0.8" stop-color="#10BEFF"/>
<stop offset="1" stop-color="#10C2FF"/>
</linearGradient>
<linearGradient id="paint15_linear" x1="-59732.8" y1="-8135.03" x2="-59659.7" y2="-8520.42" gradientUnits="userSpaceOnUse">
<stop stop-color="#1A58FF"/>
<stop offset="0.05" stop-color="#1963FF"/>
<stop offset="0.23" stop-color="#1685FF"/>
<stop offset="0.42" stop-color="#13A0FF"/>
<stop offset="0.6" stop-color="#11B3FF"/>
<stop offset="0.8" stop-color="#10BEFF"/>
<stop offset="1" stop-color="#10C2FF"/>
</linearGradient>
</defs>
</svg>
