<svg width="123" height="151" viewBox="0 0 123 151" fill="none" xmlns="http://www.w3.org/2000/svg">
<path d="M20.0115 133.282C20.0115 132.639 19.8209 132.011 19.4638 131.477C19.1067 130.942 18.5991 130.526 18.0053 130.28C17.4115 130.034 16.758 129.969 16.1276 130.095C15.4972 130.22 14.9181 130.53 14.4636 130.984C14.0091 131.439 13.6996 132.018 13.5742 132.648C13.4488 133.279 13.5131 133.932 13.7591 134.526C14.0051 135.12 14.4216 135.627 14.9561 135.984C15.4905 136.341 16.1189 136.532 16.7616 136.532C17.1884 136.532 17.611 136.448 18.0053 136.285C18.3996 136.121 18.7579 135.882 19.0596 135.58C19.3614 135.278 19.6008 134.92 19.7641 134.526C19.9274 134.132 20.0115 133.709 20.0115 133.282Z" fill="url(#paint0_linear)"/>
<path d="M95.8998 150.092H71.2548C66.0015 150.092 60.7783 149.298 55.7618 147.739L44.3685 144.209C36.0757 141.641 31.0047 142.098 30.9581 142.107L30.7059 140.081H28.6421V100.933H28.502L28.6421 98.5048H30.6686L30.4258 96.5717H31.0421C36.0944 96.5717 41.4642 94.0315 45.0502 91.8276C46.7686 90.7629 48.4216 89.8291 50.0278 88.9325C56.1074 85.5052 60.5059 83.0304 61.2343 77.4085L64.2601 54.6873C64.3221 54.0523 64.5116 53.4362 64.8172 52.8761C65.1228 52.316 65.5382 51.8233 66.0387 51.4275C66.5391 51.0317 67.1143 50.7409 67.7297 50.5725C68.3452 50.4041 68.9883 50.3616 69.6205 50.4475C74.2899 50.765 80.827 56.1348 80.827 64.1755L80.5282 86.9714C80.5275 87.0943 80.5511 87.2162 80.5976 87.3299C80.644 87.4437 80.7125 87.5472 80.7991 87.6345C80.8855 87.7227 80.9886 87.7929 81.1025 87.841C81.2163 87.8891 81.3385 87.9141 81.4621 87.9146C86.7758 87.9146 91.0717 87.9146 94.5363 87.8586C108.974 87.7559 110.478 87.7465 113.373 90.6602C114.676 91.9267 115.567 93.5579 115.927 95.3395C116.287 97.1212 116.1 98.97 115.39 100.643C114.484 102.834 112.792 104.606 110.646 105.612C110.786 105.761 110.907 105.92 111.038 106.088C111.941 107.25 112.553 108.611 112.823 110.057C113.093 111.504 113.013 112.994 112.59 114.403C112.166 115.812 111.412 117.1 110.39 118.159C109.368 119.217 108.108 120.016 106.714 120.488C107.753 121.755 108.425 123.282 108.657 124.904C108.889 126.525 108.673 128.18 108.031 129.687C107.11 131.915 105.378 133.711 103.184 134.711C104.318 135.989 105.066 137.563 105.34 139.249C105.614 140.936 105.404 142.665 104.734 144.237C104.001 145.974 102.772 147.456 101.2 148.497C99.6289 149.539 97.7851 150.094 95.8998 150.092ZM71.2735 146.002H95.8998C96.9924 146.023 98.066 145.715 98.9806 145.117C99.8952 144.518 100.608 143.659 101.027 142.649C101.428 141.719 101.535 140.689 101.335 139.696C101.134 138.703 100.636 137.795 99.9061 137.093C99.4227 136.607 98.8476 136.223 98.2144 135.961C97.5812 135.7 96.9024 135.567 96.2174 135.57V131.48H99.1964C100.291 131.497 101.365 131.185 102.279 130.584C103.193 129.982 103.906 129.12 104.323 128.109C104.723 127.181 104.829 126.153 104.627 125.163C104.425 124.173 103.924 123.268 103.193 122.571C102.709 122.087 102.133 121.704 101.5 121.443C100.868 121.181 100.189 121.047 99.5046 121.049V116.958H103.418C104.606 116.982 105.77 116.62 106.735 115.926C107.699 115.233 108.413 114.245 108.769 113.111C108.978 112.337 109.006 111.525 108.851 110.738C108.697 109.951 108.363 109.211 107.877 108.574C107.39 107.936 106.764 107.419 106.045 107.063C105.327 106.706 104.537 106.52 103.735 106.517V102.436H106.537C107.634 102.456 108.711 102.144 109.628 101.541C110.544 100.937 111.257 100.071 111.673 99.0558C112.07 98.1289 112.175 97.1027 111.973 96.1147C111.771 95.1267 111.272 94.2239 110.543 93.5272C108.937 91.921 108.19 91.8462 94.6204 91.9396C91.1277 91.9396 86.8225 91.9957 81.5461 91.9957C80.8824 91.9957 80.2252 91.8642 79.6126 91.6088C79 91.3534 78.444 90.9791 77.9768 90.5076C77.5097 90.0361 77.1406 89.4767 76.8908 88.8618C76.6411 88.2468 76.5157 87.5884 76.5219 86.9247L76.8301 64.1475C76.8301 58.2547 71.9086 54.6966 69.3591 54.5285C68.4252 54.4632 68.3785 54.7994 68.3224 55.2289L65.3154 77.9502C64.2881 85.5986 58.6101 88.7925 52.0356 92.4906C50.4761 93.3685 48.8511 94.2837 47.2075 95.2923C42.0432 98.4955 37.187 100.279 32.7511 100.597V137.952C37.1152 138.17 41.4336 138.945 45.6013 140.258L57.0039 143.788C61.6222 145.239 66.4328 145.985 71.2735 146.002Z" fill="url(#paint1_linear)"/>
<path d="M16.7542 125.345C16.2118 125.345 15.6916 125.129 15.308 124.746C14.9245 124.362 14.709 123.842 14.709 123.299V93.4153C14.709 92.8729 14.9245 92.3527 15.308 91.9692C15.6916 91.5856 16.2118 91.3701 16.7542 91.3701C17.2966 91.3701 17.8168 91.5856 18.2003 91.9692C18.5839 92.3527 18.7994 92.8729 18.7994 93.4153V123.299C18.7994 123.842 18.5839 124.362 18.2003 124.746C17.8168 125.129 17.2966 125.345 16.7542 125.345Z" fill="url(#paint2_linear)"/>
<path d="M61.9801 34.2444C61.3636 34.2425 60.7549 34.1061 60.1965 33.8448C59.6381 33.5835 59.1434 33.2036 58.7468 32.7315C58.3503 32.2594 58.0615 31.7065 57.9006 31.1114C57.7396 30.5162 57.7104 29.8931 57.815 29.2855L58.8516 23.2154C58.9056 22.8999 58.882 22.576 58.7827 22.2717C58.6835 21.9675 58.5116 21.6919 58.2819 21.469L53.874 17.1638C53.3079 16.613 52.9073 15.9146 52.7176 15.1479C52.5279 14.3811 52.5566 13.5765 52.8006 12.8253C53.0445 12.074 53.4939 11.406 54.0979 10.897C54.7019 10.3879 55.4363 10.0581 56.2181 9.94496L62.3163 9.05778C62.6323 9.01244 62.9325 8.891 63.1912 8.70392C63.4498 8.51684 63.6592 8.26972 63.8012 7.98382L66.5281 2.45527C66.8769 1.74603 67.4174 1.14868 68.0884 0.730944C68.7593 0.313208 69.5339 0.0917969 70.3243 0.0917969C71.1146 0.0917969 71.8892 0.313208 72.5602 0.730944C73.2311 1.14868 73.7717 1.74603 74.1205 2.45527L76.8474 7.98382C76.9894 8.26972 77.1987 8.51684 77.4574 8.70392C77.716 8.891 78.0163 9.01244 78.3323 9.05778L84.4305 9.94496C85.2121 10.0601 85.9461 10.3914 86.5496 10.9015C87.153 11.4115 87.6019 12.08 87.8457 12.8316C88.0894 13.5832 88.1183 14.388 87.929 15.1551C87.7397 15.9222 87.3398 16.6212 86.7745 17.1732L82.3666 21.469C82.137 21.6919 81.9651 21.9675 81.8658 22.2717C81.7666 22.576 81.743 22.8999 81.797 23.2154L82.8429 29.2855C82.9782 30.0648 82.8923 30.8664 82.5951 31.5993C82.2978 32.3322 81.8011 32.9671 81.1612 33.432C80.5213 33.8968 79.7639 34.173 78.975 34.2291C78.1861 34.2852 77.3972 34.119 76.698 33.7495L71.2441 30.8825C70.9563 30.7304 70.6358 30.6509 70.3102 30.6509C69.9847 30.6509 69.6642 30.7304 69.3764 30.8825L63.9226 33.7495C63.3254 34.0712 62.6584 34.2412 61.9801 34.2444ZM70.3289 26.5773C71.3049 26.5784 72.2661 26.8155 73.1306 27.2684L78.5844 30.1354L80.8071 29.6311L78.7992 29.9766L77.7533 23.9064C77.5883 22.9383 77.661 21.9446 77.9653 21.0108C78.2695 20.077 78.796 19.2311 79.4996 18.546L83.9075 14.2408L83.8235 13.9886L77.7252 13.0548C76.7529 12.9156 75.8293 12.5408 75.035 11.963C74.2407 11.3852 73.5996 10.6218 73.1679 9.73951L70.441 4.2203C70.4311 4.19414 70.413 4.17187 70.3895 4.15674C70.3659 4.14161 70.3382 4.13443 70.3102 4.13625L67.4433 9.73951C67.0116 10.6218 66.3706 11.3852 65.5762 11.963C64.7819 12.5408 63.8583 12.9156 62.8859 13.0548L56.7877 13.9886L56.7037 14.2408L61.1209 18.546C61.8242 19.2311 62.3499 20.0773 62.6526 21.0113C62.9552 21.9453 63.0257 22.939 62.8579 23.9064L61.8213 29.9766L62.0361 30.1354L67.49 27.2684C68.3648 26.8074 69.3401 26.57 70.3289 26.5773Z" fill="url(#paint3_linear)"/>
<path d="M41.2294 108.842C40.8048 108.841 40.391 108.708 40.0455 108.461C39.7001 108.214 39.44 107.866 39.3014 107.464C39.1629 107.063 39.1526 106.628 39.2722 106.221C39.3918 105.814 39.6352 105.453 39.9686 105.191C45.2072 101.101 51.1653 98.0285 57.5349 96.132C57.7953 96.0371 58.0723 95.9962 58.3491 96.0117C58.6258 96.0272 58.8965 96.0987 59.1448 96.222C59.393 96.3454 59.6136 96.5179 59.7931 96.7291C59.9727 96.9402 60.1074 97.1857 60.1891 97.4506C60.2709 97.7154 60.2979 97.9941 60.2686 98.2698C60.2393 98.5454 60.1543 98.8122 60.0187 99.054C59.8832 99.2957 59.6999 99.5074 59.48 99.6762C59.2601 99.8449 59.0082 99.9672 58.7396 100.036C52.8424 101.797 47.3275 104.647 42.4808 108.44C42.1195 108.709 41.6794 108.85 41.2294 108.842ZM66.0612 98.1585C65.56 98.1486 65.0799 97.955 64.7121 97.6144C64.3443 97.2739 64.1144 96.8101 64.066 96.3112C64.0176 95.8123 64.1541 95.3129 64.4496 94.908C64.7451 94.5031 65.179 94.2209 65.6689 94.1148C66.7429 93.9 67.8355 93.7039 68.9469 93.5171C69.2111 93.473 69.4815 93.4813 69.7426 93.5417C70.0036 93.602 70.2503 93.7132 70.4684 93.8689C70.6865 94.0245 70.8718 94.2216 71.0137 94.4489C71.1556 94.6762 71.2514 94.9292 71.2956 95.1935C71.3397 95.4578 71.3313 95.7281 71.271 95.9892C71.2107 96.2503 71.0995 96.4969 70.9438 96.715C70.7882 96.9331 70.5911 97.1184 70.3638 97.2603C70.1365 97.4022 69.8835 97.498 69.6192 97.5421C68.5453 97.7289 67.4993 97.9157 66.4627 98.1212C66.3306 98.1481 66.196 98.1606 66.0612 98.1585Z" fill="url(#paint4_linear)"/>
<path d="M52.6608 25.4291C52.6608 25.9418 52.4571 26.4335 52.0946 26.796C51.732 27.1585 51.2403 27.3622 50.7276 27.3622C50.2141 27.3622 49.7214 27.1588 49.3574 26.7966C48.9934 26.4343 48.7876 25.9426 48.7852 25.4291C48.7852 25.174 48.8354 24.9214 48.933 24.6857C49.0307 24.4501 49.1737 24.2359 49.3541 24.0555C49.5345 23.8752 49.7486 23.7321 49.9843 23.6345C50.2199 23.5368 50.4725 23.4866 50.7276 23.4866C51.2412 23.4891 51.7329 23.6948 52.0951 24.0588C52.4574 24.4229 52.6608 24.9155 52.6608 25.4291ZM59.0391 0.214412C58.5264 0.214412 58.0347 0.418083 57.6722 0.780614C57.3097 1.14315 57.106 1.63483 57.106 2.14753C57.106 2.66109 57.3094 3.15376 57.6716 3.51778C58.0339 3.88179 58.5256 4.08752 59.0391 4.08999C59.2942 4.08999 59.5468 4.03975 59.7825 3.94214C60.0182 3.84452 60.2323 3.70144 60.4127 3.52107C60.593 3.34069 60.7361 3.12655 60.8337 2.89088C60.9313 2.65521 60.9816 2.40262 60.9816 2.14753C60.9816 1.63236 60.7769 1.13828 60.4127 0.774002C60.0484 0.40972 59.5543 0.205078 59.0391 0.205078V0.214412ZM82.2273 0.214412C81.7146 0.214412 81.2229 0.418083 80.8604 0.780614C80.4978 1.14315 80.2941 1.63483 80.2941 2.14753C80.2941 2.66109 80.4975 3.15376 80.8598 3.51778C81.2221 3.88179 81.7137 4.08752 82.2273 4.08999C82.4823 4.08999 82.735 4.03975 82.9706 3.94214C83.2063 3.84452 83.4205 3.70144 83.6008 3.52107C83.7812 3.34069 83.9243 3.12655 84.0219 2.89088C84.1195 2.65521 84.1697 2.40262 84.1697 2.14753C84.1697 1.63236 83.9651 1.13828 83.6008 0.774002C83.2365 0.40972 82.7424 0.205078 82.2273 0.205078V0.214412ZM90.0718 23.4959C89.5567 23.4959 89.0626 23.7006 88.6983 24.0649C88.334 24.4292 88.1294 24.9232 88.1294 25.4384C88.1318 25.952 88.3376 26.4436 88.7016 26.8059C89.0656 27.1682 89.5583 27.3715 90.0718 27.3715C90.5845 27.3715 91.0762 27.1679 91.4387 26.8053C91.8013 26.4428 92.005 25.9511 92.005 25.4384C92.0062 25.1833 91.9571 24.9305 91.8607 24.6944C91.7642 24.4582 91.6221 24.2434 91.4426 24.0621C91.2631 23.8809 91.0497 23.7368 90.8145 23.638C90.5793 23.5393 90.3269 23.4878 90.0718 23.4866V23.4959ZM70.3951 36.5048C69.8815 36.5073 69.3899 36.7131 69.0276 37.0771C68.6653 37.4411 68.4619 37.9338 68.4619 38.4473C68.4619 38.96 68.6656 39.4517 69.0282 39.8142C69.3907 40.1768 69.8824 40.3804 70.3951 40.3804C70.9086 40.3804 71.4013 40.1771 71.7653 39.8148C72.1293 39.4525 72.3351 38.9609 72.3375 38.4473C72.3388 38.1914 72.2894 37.9378 72.1924 37.7011C72.0953 37.4643 71.9524 37.2491 71.7719 37.0677C71.5914 36.8864 71.3768 36.7425 71.1406 36.6442C70.9043 36.546 70.6509 36.4955 70.3951 36.4955V36.5048Z" fill="url(#paint5_linear)"/>
<path d="M30.3961 57.5347C29.7803 57.5293 29.173 57.3908 28.6158 57.1286C28.0586 56.8663 27.5648 56.4866 27.1682 56.0155C26.7716 55.5444 26.4817 54.993 26.3183 54.3993C26.1549 53.8056 26.122 53.1835 26.2217 52.5758L27.2676 46.5056C27.3233 46.1901 27.3004 45.8658 27.2011 45.5613C27.1017 45.2567 26.9289 44.9813 26.698 44.7593L22.2901 40.4541C21.7239 39.9033 21.3233 39.2049 21.1336 38.4382C20.9439 37.6714 20.9726 36.8668 21.2166 36.1155C21.4605 35.3643 21.9099 34.6963 22.5139 34.1872C23.1179 33.6782 23.8524 33.3484 24.6341 33.2352L30.7323 32.3481C31.0495 32.3025 31.3507 32.18 31.6095 31.9911C31.8684 31.8023 32.077 31.5529 32.2172 31.2648L34.9441 25.7456C35.2909 25.0358 35.8303 24.4379 36.5008 24.0201C37.1712 23.6023 37.9457 23.3815 38.7356 23.3828C39.5272 23.3797 40.3036 23.5997 40.9759 24.0176C41.6481 24.4355 42.189 25.0344 42.5365 25.7456L45.2634 31.2648C45.4036 31.5529 45.6122 31.8023 45.8711 31.9911C46.1299 32.18 46.4311 32.3025 46.7483 32.3481L52.8465 33.2352C53.6282 33.3484 54.3627 33.6782 54.9667 34.1872C55.5707 34.6963 56.0201 35.3643 56.264 36.1155C56.508 36.8668 56.5367 37.6714 56.347 38.4382C56.1573 39.2049 55.7567 39.9033 55.1905 40.4541L50.7826 44.7593C50.5517 44.9813 50.3789 45.2567 50.2795 45.5613C50.1802 45.8658 50.1573 46.1901 50.213 46.5056L51.2496 52.5758C51.3836 53.3538 51.2973 54.1538 51.0004 54.8853C50.7035 55.6168 50.2078 56.2506 49.5694 56.715C48.931 57.1795 48.1754 57.456 47.3881 57.5134C46.6007 57.5708 45.813 57.4067 45.114 57.0397L39.6602 54.1728C39.3731 54.0183 39.0523 53.9374 38.7263 53.9374C38.4003 53.9374 38.0795 54.0183 37.7924 54.1728L32.3386 57.0397C31.7398 57.3573 31.0738 57.527 30.3961 57.5347ZM38.7356 49.8582C39.7126 49.8603 40.6743 50.1007 41.5373 50.5586L46.9911 53.4256L49.2231 52.9213L47.2059 53.2669L46.1693 47.1967C46.0024 46.2279 46.0732 45.233 46.3758 44.2977C46.6784 43.3623 47.2036 42.5144 47.9063 41.8269L52.3235 37.5311L52.5383 35.2524L52.2395 37.2789L46.1413 36.3451C45.1694 36.2044 44.2465 35.829 43.4524 35.2513C42.6583 34.6736 42.017 33.9111 41.584 33.0298L38.8477 27.5012C38.8477 27.5012 38.8477 27.4265 38.7169 27.4265L35.8593 33.0298C35.4262 33.9111 34.7849 34.6736 33.9908 35.2513C33.1967 35.829 32.2738 36.2044 31.302 36.3451L25.2038 37.2789L23.6909 38.9973L25.1197 37.5311L29.5276 41.8269C30.2313 42.514 30.7579 43.3615 31.062 44.2968C31.3662 45.232 31.4389 46.2271 31.2739 47.1967L30.228 53.2669L30.4428 53.4256L35.8966 50.5586C36.7716 50.097 37.7463 49.8565 38.7356 49.8582Z" fill="url(#paint6_linear)"/>
<path d="M21.0768 48.7197C21.0768 49.2324 20.8731 49.7241 20.5106 50.0866C20.148 50.4491 19.6563 50.6528 19.1436 50.6528C18.6301 50.6528 18.1374 50.4494 17.7734 50.0872C17.4094 49.7249 17.2036 49.2332 17.2012 48.7197C17.2012 48.2045 17.4058 47.7104 17.7701 47.3461C18.1344 46.9819 18.6284 46.7772 19.1436 46.7772C19.6572 46.7797 20.1489 46.9854 20.5111 47.3494C20.8734 47.7134 21.0768 48.2061 21.0768 48.7197ZM27.4551 23.505C26.9399 23.505 26.4459 23.7097 26.0816 24.0739C25.7173 24.4382 25.5127 24.9323 25.5127 25.4475C25.5151 25.961 25.7209 26.4527 26.0849 26.815C26.4489 27.1772 26.9416 27.3806 27.4551 27.3806C27.9678 27.3806 28.4595 27.1769 28.822 26.8144C29.1846 26.4519 29.3882 25.9602 29.3882 25.4475C29.392 25.1913 29.3447 24.9369 29.2492 24.6991C29.1537 24.4613 29.0119 24.2449 28.832 24.0624C28.6522 23.8799 28.4378 23.735 28.2014 23.6361C27.9651 23.5372 27.7114 23.4863 27.4551 23.4863V23.505ZM58.4878 46.7959C57.9727 46.7959 57.4786 47.0005 57.1143 47.3648C56.75 47.7291 56.5454 48.2232 56.5454 48.7383C56.5478 49.2519 56.7536 49.7436 57.1176 50.1058C57.4816 50.4681 57.9743 50.6715 58.4878 50.6715C59.0005 50.6715 59.4922 50.4678 59.8548 50.1053C60.2173 49.7427 60.421 49.251 60.421 48.7383C60.4234 48.4825 60.3753 48.2286 60.2794 47.9914C60.1834 47.7542 60.0416 47.5383 59.8619 47.356C59.6823 47.1738 59.4685 47.0288 59.2326 46.9295C58.9968 46.8302 58.7437 46.7784 58.4878 46.7772V46.7959ZM38.8111 59.8048C38.2984 59.8048 37.8067 60.0084 37.4441 60.371C37.0816 60.7335 36.8779 61.2252 36.8779 61.7379C36.8779 62.2515 37.0813 62.7441 37.4436 63.1081C37.8058 63.4721 38.2975 63.6779 38.8111 63.6804C39.3262 63.6804 39.8203 63.4757 40.1846 63.1114C40.5489 62.7472 40.7535 62.2531 40.7535 61.7379C40.7548 61.482 40.7054 61.2284 40.6084 60.9917C40.5113 60.7549 40.3684 60.5397 40.1879 60.3583C40.0074 60.177 39.7929 60.0331 39.5566 59.9349C39.3203 59.8367 39.0669 59.7861 38.8111 59.7861V59.8048Z" fill="url(#paint7_linear)"/>
<path d="M92.8551 57.5354C92.2391 57.5319 91.6312 57.3945 91.0736 57.1327C90.5159 56.8709 90.0219 56.491 89.6257 56.0192C89.2295 55.5475 88.9406 54.9953 88.7791 54.4009C88.6175 53.8064 88.5871 53.1839 88.69 52.5765L89.7266 46.5064C89.7823 46.1909 89.7594 45.8666 89.66 45.562C89.5607 45.2574 89.3879 44.982 89.157 44.76L84.749 40.4549C84.1829 39.904 83.7823 39.2057 83.5926 38.4389C83.4029 37.6721 83.4316 36.8675 83.6756 36.1163C83.9195 35.365 84.3689 34.697 84.9729 34.188C85.5769 33.6789 86.3113 33.3492 87.0931 33.236L93.1913 32.3488C93.5084 32.3033 93.8096 32.1807 94.0685 31.9919C94.3273 31.803 94.536 31.5536 94.6761 31.2655L97.403 25.7463C97.7519 25.037 98.2924 24.4397 98.9633 24.022C99.6343 23.6042 100.409 23.3828 101.199 23.3828C101.99 23.3828 102.764 23.6042 103.435 24.022C104.106 24.4397 104.647 25.037 104.995 25.7463L107.722 31.2655C107.865 31.5538 108.075 31.8032 108.336 31.9919C108.596 32.1807 108.898 32.3032 109.217 32.3488L115.306 33.236C116.087 33.3492 116.822 33.6789 117.426 34.188C118.03 34.697 118.479 35.365 118.723 36.1163C118.967 36.8675 118.996 37.6721 118.806 38.4389C118.616 39.2057 118.216 39.904 117.649 40.4549L113.242 44.76C113.013 44.9834 112.841 45.259 112.742 45.5631C112.643 45.8673 112.619 46.1909 112.672 46.5064L113.718 52.5765C113.853 53.3558 113.767 54.1574 113.47 54.8903C113.173 55.6232 112.676 56.2581 112.036 56.723C111.396 57.1878 110.639 57.464 109.85 57.5201C109.061 57.5762 108.272 57.4101 107.573 57.0405L102.119 54.1735C101.833 54.0166 101.512 53.9343 101.185 53.9343C100.859 53.9343 100.538 54.0166 100.251 54.1735L94.7976 57.0405C94.1988 57.358 93.5328 57.5277 92.8551 57.5354ZM101.204 49.859C102.181 49.8633 103.142 50.1036 104.006 50.5594L109.459 53.4264L111.682 52.9221L109.674 53.2676L108.628 47.1974C108.463 46.2279 108.536 45.2328 108.84 44.2975C109.144 43.3622 109.671 42.5147 110.375 41.8277L114.782 37.5318L114.997 35.2532L114.698 37.2797L108.61 36.3458C107.637 36.205 106.712 35.8296 105.917 35.2521C105.121 34.6745 104.478 33.9121 104.043 33.0305L101.316 27.502C101.305 27.4776 101.286 27.4573 101.262 27.4439C101.239 27.4305 101.212 27.4247 101.185 27.4273L98.3276 33.0305C97.8911 33.9111 97.2476 34.6727 96.4522 35.2501C95.6569 35.8275 94.7334 36.2035 93.761 36.3458L87.6627 37.2797L86.1592 38.998L87.5787 37.5318L91.9959 41.8277C92.6986 42.5151 93.2238 43.363 93.5264 44.2984C93.829 45.2338 93.8999 46.2286 93.7329 47.1974L92.6963 53.2676L92.9111 53.4264L98.365 50.5594C99.2391 50.0955 100.214 49.8549 101.204 49.859Z" fill="url(#paint8_linear)"/>
<path d="M83.5436 48.7197C83.5411 49.2332 83.3354 49.7249 82.9714 50.0872C82.6074 50.4494 82.1147 50.6528 81.6011 50.6528C81.3473 50.6528 81.0959 50.6028 80.8613 50.5056C80.6268 50.4085 80.4137 50.2661 80.2342 50.0866C80.0547 49.9071 79.9123 49.694 79.8152 49.4594C79.718 49.2249 79.668 48.9735 79.668 48.7197C79.6668 48.465 79.7159 48.2126 79.8125 47.977C79.9091 47.7414 80.0512 47.5272 80.2309 47.3467C80.4105 47.1662 80.624 47.023 80.8592 46.9252C81.0943 46.8275 81.3465 46.7772 81.6011 46.7772C82.1163 46.7772 82.6104 46.9819 82.9746 47.3461C83.3389 47.7104 83.5436 48.2045 83.5436 48.7197ZM113.101 23.505C112.587 23.5075 112.096 23.7132 111.733 24.0772C111.371 24.4412 111.168 24.9339 111.168 25.4475C111.168 25.9602 111.371 26.4519 111.734 26.8144C112.096 27.1769 112.588 27.3806 113.101 27.3806C113.614 27.3806 114.107 27.1772 114.471 26.815C114.835 26.4527 115.041 25.961 115.043 25.4475C115.046 25.1908 114.997 24.9362 114.901 24.6984C114.804 24.4606 114.662 24.2442 114.481 24.0618C114.3 23.8795 114.085 23.7347 113.848 23.636C113.612 23.5372 113.357 23.4863 113.101 23.4863V23.505ZM120.945 46.7959C120.43 46.7959 119.936 47.0005 119.572 47.3648C119.208 47.7291 119.003 48.2232 119.003 48.7383C119.005 49.2519 119.211 49.7436 119.575 50.1058C119.939 50.4681 120.432 50.6715 120.945 50.6715C121.458 50.6715 121.95 50.4678 122.312 50.1053C122.675 49.7427 122.878 49.251 122.878 48.7383C122.882 48.4821 122.835 48.2277 122.739 47.99C122.644 47.7522 122.502 47.5358 122.322 47.3533C122.142 47.1708 121.928 47.0259 121.692 46.927C121.455 46.8281 121.202 46.7772 120.945 46.7772V46.7959ZM101.278 59.8048C100.765 59.8048 100.273 60.0084 99.9109 60.371C99.5484 60.7335 99.3448 61.2252 99.3448 61.7379C99.3448 62.2515 99.5481 62.7441 99.9104 63.1081C100.273 63.4721 100.764 63.6779 101.278 63.6804C101.791 63.6779 102.283 63.4721 102.645 63.1081C103.008 62.7441 103.211 62.2515 103.211 61.7379C103.214 61.4825 103.165 61.2291 103.069 60.9924C102.973 60.7557 102.831 60.5404 102.651 60.3589C102.472 60.1774 102.258 60.0333 102.022 59.935C101.786 59.8367 101.533 59.7861 101.278 59.7861V59.8048Z" fill="url(#paint9_linear)"/>
<path d="M25.7839 148.654H7.74143C5.90279 148.654 4.13931 147.924 2.83832 146.625C1.53733 145.326 0.805209 143.563 0.802734 141.725V97.2629C0.802734 95.4227 1.53376 93.6578 2.83502 92.3565C4.13627 91.0552 5.90117 90.3242 7.74143 90.3242H25.7839C27.6242 90.3242 29.389 91.0552 30.6903 92.3565C31.9916 93.6578 32.7226 95.4227 32.7226 97.2629V141.725C32.7201 143.563 31.988 145.326 30.687 146.625C29.386 147.924 27.6226 148.654 25.7839 148.654ZM7.74143 94.4146C6.99476 94.4169 6.27864 94.7113 5.74631 95.2349C5.21399 95.7585 4.90773 96.4697 4.89309 97.2162V141.678C4.89555 142.433 5.19643 143.156 5.73007 143.689C6.2637 144.223 6.98676 144.524 7.74143 144.526H25.7839C26.5402 144.526 27.2657 144.227 27.8013 143.693C28.3369 143.159 28.6391 142.434 28.6416 141.678V97.2629C28.6269 96.5148 28.3194 95.8022 27.785 95.2784C27.2507 94.7545 26.5322 94.4611 25.7839 94.4613L7.74143 94.4146Z" fill="url(#paint10_linear)"/>
<defs>
<linearGradient id="paint0_linear" x1="2981.63" y1="2477.17" x2="3027.13" y2="2406.06" gradientUnits="userSpaceOnUse">
<stop stop-color="#E3F24C"/>
<stop offset="0.2" stop-color="#CAED62"/>
<stop offset="1" stop-color="#64D8BC"/>
</linearGradient>
<linearGradient id="paint1_linear" x1="42870.9" y1="37508.1" x2="49346.9" y2="29970.3" gradientUnits="userSpaceOnUse">
<stop stop-color="#1A58FF"/>
<stop offset="0.05" stop-color="#1963FF"/>
<stop offset="0.23" stop-color="#1685FF"/>
<stop offset="0.42" stop-color="#13A0FF"/>
<stop offset="0.6" stop-color="#11B3FF"/>
<stop offset="0.8" stop-color="#10BEFF"/>
<stop offset="1" stop-color="#10C2FF"/>
</linearGradient>
<linearGradient id="paint2_linear" x1="1935.51" y1="10976.1" x2="1792.84" y2="10991.9" gradientUnits="userSpaceOnUse">
<stop stop-color="#E3F24C"/>
<stop offset="0.2" stop-color="#CAED62"/>
<stop offset="1" stop-color="#64D8BC"/>
</linearGradient>
<linearGradient id="paint3_linear" x1="17978.7" y1="8495.9" x2="18726.3" y2="7467.9" gradientUnits="userSpaceOnUse">
<stop stop-color="#FF059D"/>
<stop offset="0.45" stop-color="#FF9841"/>
<stop offset="1" stop-color="#FFF904"/>
</linearGradient>
<linearGradient id="paint4_linear" x1="16556.1" y1="4848.97" x2="16233.7" y2="5468.26" gradientUnits="userSpaceOnUse">
<stop stop-color="#E3F24C"/>
<stop offset="0.2" stop-color="#CAED62"/>
<stop offset="1" stop-color="#64D8BC"/>
</linearGradient>
<linearGradient id="paint5_linear" x1="2767.75" y1="1000.57" x2="921.571" y2="2824.43" gradientUnits="userSpaceOnUse">
<stop stop-color="#E3F24C"/>
<stop offset="0.2" stop-color="#CAED62"/>
<stop offset="1" stop-color="#64D8BC"/>
</linearGradient>
<linearGradient id="paint6_linear" x1="16748.7" y1="9370.75" x2="17496.3" y2="8342.71" gradientUnits="userSpaceOnUse">
<stop stop-color="#FF059D"/>
<stop offset="0.45" stop-color="#FF9841"/>
<stop offset="1" stop-color="#FFF904"/>
</linearGradient>
<linearGradient id="paint7_linear" x1="2736.16" y1="1024.32" x2="889.141" y2="2848.17" gradientUnits="userSpaceOnUse">
<stop stop-color="#E3F24C"/>
<stop offset="0.2" stop-color="#CAED62"/>
<stop offset="1" stop-color="#64D8BC"/>
</linearGradient>
<linearGradient id="paint8_linear" x1="19183.1" y1="9370.95" x2="19930.7" y2="8342.9" gradientUnits="userSpaceOnUse">
<stop stop-color="#FF059D"/>
<stop offset="0.45" stop-color="#FF9841"/>
<stop offset="1" stop-color="#FFF904"/>
</linearGradient>
<linearGradient id="paint9_linear" x1="2798.05" y1="1024.32" x2="951.035" y2="2847.78" gradientUnits="userSpaceOnUse">
<stop stop-color="#E3F24C"/>
<stop offset="0.2" stop-color="#CAED62"/>
<stop offset="1" stop-color="#64D8BC"/>
</linearGradient>
<linearGradient id="paint10_linear" x1="15404.7" y1="18776.9" x2="13284.3" y2="19842.4" gradientUnits="userSpaceOnUse">
<stop stop-color="#E3F24C"/>
<stop offset="0.2" stop-color="#CAED62"/>
<stop offset="1" stop-color="#64D8BC"/>
</linearGradient>
</defs>
</svg>
