<svg width="163" height="151" viewBox="0 0 163 151" fill="none" xmlns="http://www.w3.org/2000/svg">
<path d="M103.863 150.292H63.0675C62.2762 150.292 61.5046 150.045 60.8601 149.586C60.2155 149.126 59.73 148.478 59.4712 147.73C59.2123 146.982 59.1929 146.172 59.4156 145.413C59.6384 144.654 60.0922 143.982 60.714 143.493L92.5235 118.545C93.1132 118.084 93.8135 117.785 94.5546 117.678C95.2958 117.571 96.052 117.66 96.7481 117.936C97.4441 118.212 98.0558 118.666 98.5222 119.251C98.9886 119.837 99.2934 120.535 99.4064 121.275L103.863 150.292ZM65.3269 145.71H98.5381L94.9921 122.457L65.3269 145.71Z" fill="url(#paint0_linear)"/>
<path d="M162.491 96.9447H60.6288V92.3736H157.909V13.9217C157.904 11.5302 156.95 9.23839 155.258 7.54832C153.566 5.85825 151.273 4.90772 148.882 4.90496H13.5996C11.2108 4.9105 8.92164 5.86258 7.23353 7.55265C5.54542 9.24272 4.59608 11.533 4.59331 13.9217V92.3736H24.4678V96.9447H0.0117188V13.8903C0.0117187 10.2838 1.4444 6.82503 3.99458 4.27485C6.54476 1.72467 10.0035 0.291992 13.61 0.291992H148.903C152.509 0.291992 155.968 1.72467 158.518 4.27485C161.069 6.82503 162.501 10.2838 162.501 13.8903L162.491 96.9447Z" fill="url(#paint1_linear)"/>
<path d="M103.808 150.292H58.6934L63.3376 114.728H99.164L103.808 150.292ZM63.913 145.711H98.5888L95.1473 119.278H67.3545L63.913 145.711Z" fill="url(#paint2_linear)"/>
<path d="M110.725 150.292H51.7811C51.1735 150.292 50.5908 150.05 50.1612 149.621C49.7316 149.191 49.4902 148.608 49.4902 148.001C49.4902 147.393 49.7316 146.811 50.1612 146.381C50.5908 145.951 51.1735 145.71 51.7811 145.71H110.725C111.332 145.71 111.915 145.951 112.344 146.381C112.774 146.811 113.015 147.393 113.015 148.001C113.015 148.608 112.774 149.191 112.344 149.621C111.915 150.05 111.332 150.292 110.725 150.292Z" fill="url(#paint3_linear)"/>
<path d="M81.2567 109.873C83.7986 109.873 85.8592 107.812 85.8592 105.27C85.8592 102.729 83.7986 100.668 81.2567 100.668C78.7148 100.668 76.6543 102.729 76.6543 105.27C76.6543 107.812 78.7148 109.873 81.2567 109.873Z" fill="url(#paint4_linear)"/>
<path d="M42.1685 48.8693C39.3917 48.8693 36.6772 48.0457 34.3685 46.5028C32.0598 44.9598 30.2606 42.7668 29.1984 40.2012C28.1362 37.6355 27.8589 34.8125 28.4014 32.0891C28.9439 29.3658 30.2818 26.8646 32.2461 24.9018C34.2103 22.939 36.7126 21.6029 39.4363 21.0624C42.1601 20.5219 44.9829 20.8014 47.5478 21.8655C50.1126 22.9296 52.3043 24.7305 53.8455 27.0403C55.3867 29.3502 56.2083 32.0652 56.2062 34.8421C56.2034 38.5633 54.7232 42.1311 52.0909 44.7614C49.4587 47.3917 45.8897 48.8693 42.1685 48.8693ZM42.1685 25.386C40.3065 25.386 38.4864 25.9381 36.9382 26.9726C35.3901 28.007 34.1835 29.4773 33.471 31.1976C32.7584 32.9178 32.572 34.8107 32.9352 36.6369C33.2985 38.463 34.1951 40.1405 35.5117 41.4571C36.8283 42.7737 38.5058 43.6703 40.332 44.0336C42.1581 44.3968 44.051 44.2104 45.7712 43.4978C47.4915 42.7853 48.9617 41.5786 49.9962 40.0305C51.0306 38.4823 51.5827 36.6622 51.5827 34.8002C51.5827 32.3034 50.5909 29.9089 48.8254 28.1434C47.0599 26.3779 44.6653 25.386 42.1685 25.386Z" fill="url(#paint5_linear)"/>
<path d="M53.684 73.3679H31.5084C29.4008 73.3651 27.3803 72.5266 25.8901 71.0364C24.3998 69.5461 23.5614 67.5256 23.5586 65.4181V57.8972C23.5586 54.2907 24.9913 50.8319 27.5415 48.2817C30.0916 45.7315 33.5504 44.2988 37.1569 44.2988H48.0356C51.6421 44.2988 55.1009 45.7315 57.6511 48.2817C60.2012 50.8319 61.6339 54.2907 61.6339 57.8972V65.4181C61.6312 67.5256 60.7926 69.5461 59.3023 71.0364C57.8121 72.5266 55.7916 73.3651 53.684 73.3679ZM37.1569 48.87C34.7645 48.8755 32.4715 49.8283 30.7798 51.5201C29.088 53.2118 28.1352 55.5047 28.1297 57.8972V65.4181C28.1297 66.3141 28.4857 67.1735 29.1193 67.8071C29.7529 68.4408 30.6123 68.7967 31.5084 68.7967H53.684C54.5801 68.7967 55.4395 68.4408 56.0731 67.8071C56.7067 67.1735 57.0627 66.3141 57.0627 65.4181V57.8972C57.0599 55.5038 56.108 53.2093 54.4157 51.517C52.7234 49.8247 50.4289 48.8727 48.0356 48.87H37.1569Z" fill="url(#paint6_linear)"/>
<path d="M22.8478 21.6515H18.2871V17.0908H22.8478V21.6515ZM67.7013 17.0908H63.1407V21.6515H67.7013V17.0908Z" fill="url(#paint7_linear)"/>
<path d="M22.8478 82.1121H18.2871V77.541H22.8478V82.1121ZM67.7013 77.541H63.1407V82.1121H67.7013V77.541Z" fill="url(#paint8_linear)"/>
<path d="M140.055 54.4445H83.0881C82.7749 54.4657 82.4608 54.4223 82.1651 54.3171C81.8695 54.2118 81.5986 54.0469 81.3693 53.8326C81.1399 53.6183 80.9571 53.3591 80.8321 53.0712C80.7071 52.7833 80.6426 52.4728 80.6426 52.159C80.6426 51.8451 80.7071 51.5346 80.8321 51.2467C80.9571 50.9588 81.1399 50.6996 81.3693 50.4853C81.5986 50.271 81.8695 50.1061 82.1651 50.0008C82.4608 49.8956 82.7749 49.8522 83.0881 49.8734H140.055C140.368 49.8522 140.682 49.8956 140.978 50.0008C141.273 50.1061 141.544 50.271 141.773 50.4853C142.003 50.6996 142.186 50.9588 142.311 51.2467C142.436 51.5346 142.5 51.8451 142.5 52.159C142.5 52.4728 142.436 52.7833 142.311 53.0712C142.186 53.3591 142.003 53.6183 141.773 53.8326C141.544 54.0469 141.273 54.2118 140.978 54.3171C140.682 54.4223 140.368 54.4657 140.055 54.4445Z" fill="url(#paint9_linear)"/>
<path d="M114.981 80.3234H83.0881C82.7749 80.3446 82.4608 80.3012 82.1651 80.196C81.8695 80.0907 81.5986 79.9258 81.3693 79.7115C81.1399 79.4972 80.9571 79.238 80.8321 78.9501C80.7071 78.6622 80.6426 78.3517 80.6426 78.0379C80.6426 77.724 80.7071 77.4135 80.8321 77.1256C80.9571 76.8377 81.1399 76.5785 81.3693 76.3642C81.5986 76.1499 81.8695 75.985 82.1651 75.8797C82.4608 75.7745 82.7749 75.7311 83.0881 75.7523H114.981C115.295 75.7311 115.609 75.7745 115.904 75.8797C116.2 75.985 116.471 76.1499 116.7 76.3642C116.93 76.5785 117.112 76.8377 117.237 77.1256C117.362 77.4135 117.427 77.724 117.427 78.0379C117.427 78.3517 117.362 78.6622 117.237 78.9501C117.112 79.238 116.93 79.4972 116.7 79.7115C116.471 79.9258 116.2 80.0907 115.904 80.196C115.609 80.3012 115.295 80.3446 114.981 80.3234Z" fill="url(#paint10_linear)"/>
<path d="M126.98 80.3234H122.304C121.725 80.2842 121.182 80.0264 120.785 79.602C120.389 79.1777 120.168 78.6186 120.168 78.0379C120.168 77.4571 120.389 76.898 120.785 76.4737C121.182 76.0494 121.725 75.7915 122.304 75.7523H126.98C127.293 75.7311 127.607 75.7745 127.903 75.8797C128.198 75.985 128.469 76.1499 128.699 76.3642C128.928 76.5785 129.111 76.8377 129.236 77.1256C129.361 77.4135 129.425 77.724 129.425 78.0379C129.425 78.3517 129.361 78.6622 129.236 78.9501C129.111 79.238 128.928 79.4972 128.699 79.7115C128.469 79.9258 128.198 80.0907 127.903 80.196C127.607 80.3012 127.293 80.3446 126.98 80.3234Z" fill="url(#paint11_linear)"/>
<path d="M120.473 66.9019H83.0876C82.7868 66.9019 82.489 66.8426 82.211 66.7275C81.9331 66.6124 81.6806 66.4437 81.4679 66.2309C81.2552 66.0182 81.0864 65.7657 80.9713 65.4878C80.8562 65.2098 80.7969 64.9119 80.7969 64.6111C80.7969 64.3103 80.8562 64.0124 80.9713 63.7345C81.0864 63.4565 81.2552 63.204 81.4679 62.9913C81.6806 62.7785 81.9331 62.6098 82.211 62.4947C82.489 62.3796 82.7868 62.3203 83.0876 62.3203H120.473C120.773 62.3203 121.071 62.3796 121.349 62.4947C121.627 62.6098 121.88 62.7785 122.092 62.9913C122.305 63.204 122.474 63.4565 122.589 63.7345C122.704 64.0124 122.763 64.3103 122.763 64.6111C122.763 64.9119 122.704 65.2098 122.589 65.4878C122.474 65.7657 122.305 66.0182 122.092 66.2309C121.88 66.4437 121.627 66.6124 121.349 66.7275C121.071 66.8426 120.773 66.9019 120.473 66.9019Z" fill="url(#paint12_linear)"/>
<path d="M132.722 66.9019H128.056C127.449 66.9019 126.866 66.6606 126.437 66.2309C126.007 65.8013 125.766 65.2187 125.766 64.6111C125.766 64.0036 126.007 63.4209 126.437 62.9913C126.866 62.5617 127.449 62.3203 128.056 62.3203H132.722C133.023 62.3203 133.32 62.3796 133.598 62.4947C133.876 62.6098 134.129 62.7785 134.342 62.9913C134.554 63.204 134.723 63.4565 134.838 63.7345C134.953 64.0124 135.012 64.3103 135.012 64.6111C135.012 64.9119 134.953 65.2098 134.838 65.4878C134.723 65.7657 134.554 66.0182 134.342 66.2309C134.129 66.4437 133.876 66.6124 133.598 66.7275C133.32 66.8426 133.023 66.9019 132.722 66.9019Z" fill="url(#paint13_linear)"/>
<path d="M92.5439 43.0746C89.9625 43.0725 87.4396 42.3052 85.2942 40.8695C83.1488 39.4338 81.4772 37.3942 80.4908 35.0087C79.5043 32.6231 79.2472 29.9986 79.7521 27.467C80.257 24.9354 81.5011 22.6103 83.3273 20.7857C85.1534 18.961 87.4795 17.7188 90.0115 17.2159C92.5435 16.713 95.1678 16.9722 97.5525 17.9605C99.9373 18.9489 101.976 20.6221 103.409 22.7687C104.843 24.9152 105.609 27.4387 105.609 30.0202C105.603 33.4826 104.225 36.8014 101.775 39.2486C99.3262 41.6959 96.0063 43.0718 92.5439 43.0746ZM92.5439 21.537C90.8661 21.537 89.226 22.0345 87.831 22.9666C86.4359 23.8988 85.3485 25.2237 84.7064 26.7738C84.0643 28.3239 83.8964 30.0296 84.2238 31.6752C84.5511 33.3208 85.359 34.8324 86.5454 36.0188C87.7318 37.2052 89.2434 38.0131 90.889 38.3405C92.5346 38.6678 94.2403 38.4998 95.7904 37.8577C97.3405 37.2156 98.6654 36.1283 99.5976 34.7333C100.53 33.3382 101.027 31.698 101.027 30.0202C101.027 28.9062 100.808 27.803 100.381 26.7738C99.9551 25.7446 99.3302 24.8094 98.5425 24.0216C97.7548 23.2339 96.8197 22.609 95.7904 22.1827C94.7612 21.7564 93.658 21.537 92.5439 21.537Z" fill="black"/>
<path d="M92.5439 43.0746C89.9625 43.0725 87.4396 42.3052 85.2942 40.8695C83.1488 39.4338 81.4772 37.3942 80.4908 35.0087C79.5043 32.6231 79.2472 29.9986 79.7521 27.467C80.257 24.9354 81.5011 22.6103 83.3273 20.7857C85.1534 18.961 87.4795 17.7188 90.0115 17.2159C92.5435 16.713 95.1678 16.9722 97.5525 17.9605C99.9373 18.9489 101.976 20.6221 103.409 22.7687C104.843 24.9152 105.609 27.4387 105.609 30.0202C105.603 33.4826 104.225 36.8014 101.775 39.2486C99.3262 41.6959 96.0063 43.0718 92.5439 43.0746ZM92.5439 21.537C90.8661 21.537 89.226 22.0345 87.831 22.9666C86.4359 23.8988 85.3485 25.2237 84.7064 26.7738C84.0643 28.3239 83.8964 30.0296 84.2238 31.6752C84.5511 33.3208 85.359 34.8324 86.5454 36.0188C87.7318 37.2052 89.2434 38.0131 90.889 38.3405C92.5346 38.6678 94.2403 38.4998 95.7904 37.8577C97.3405 37.2156 98.6654 36.1283 99.5976 34.7333C100.53 33.3382 101.027 31.698 101.027 30.0202C101.027 28.9062 100.808 27.803 100.381 26.7738C99.9551 25.7446 99.3302 24.8094 98.5425 24.0216C97.7548 23.2339 96.8197 22.609 95.7904 22.1827C94.7612 21.7564 93.658 21.537 92.5439 21.537Z" fill="url(#paint14_linear)"/>
<path d="M120.024 21.2432C120.025 21.5431 119.967 21.8402 119.853 22.1175C119.739 22.3948 119.571 22.6467 119.359 22.8588C119.147 23.0708 118.895 23.2387 118.617 23.3528C118.34 23.4669 118.043 23.5249 117.743 23.5236C117.443 23.5249 117.146 23.4669 116.869 23.3528C116.592 23.2387 116.34 23.0708 116.128 22.8588C115.916 22.6467 115.748 22.3948 115.634 22.1175C115.52 21.8402 115.462 21.5431 115.463 21.2432C115.463 20.6384 115.703 20.0584 116.131 19.6308C116.558 19.2031 117.138 18.9629 117.743 18.9629C118.043 18.9629 118.339 19.0219 118.616 19.1365C118.893 19.2511 119.144 19.419 119.356 19.6308C119.567 19.8425 119.735 20.0939 119.85 20.3706C119.965 20.6472 120.024 20.9438 120.024 21.2432ZM127.796 18.9629C127.192 18.9656 126.613 19.2068 126.186 19.6338C125.759 20.0609 125.518 20.6393 125.515 21.2432C125.515 21.5427 125.574 21.8392 125.689 22.1159C125.803 22.3925 125.971 22.6439 126.183 22.8557C126.395 23.0674 126.646 23.2354 126.923 23.35C127.2 23.4646 127.496 23.5236 127.796 23.5236C128.096 23.5249 128.394 23.467 128.671 23.353C128.949 23.239 129.202 23.0713 129.415 22.8594C129.628 22.6475 129.797 22.3956 129.912 22.1183C130.027 21.8409 130.086 21.5436 130.086 21.2432C130.084 20.6375 129.841 20.0575 129.412 19.6301C128.982 19.2028 128.401 18.9629 127.796 18.9629ZM137.858 18.9629C137.559 18.9629 137.262 19.0219 136.986 19.1365C136.709 19.2511 136.458 19.419 136.246 19.6308C136.034 19.8425 135.866 20.0939 135.751 20.3706C135.637 20.6472 135.578 20.9438 135.578 21.2432C135.577 21.5431 135.635 21.8402 135.749 22.1175C135.863 22.3948 136.031 22.6467 136.243 22.8588C136.455 23.0708 136.707 23.2387 136.984 23.3528C137.261 23.4669 137.559 23.5249 137.858 23.5236C138.463 23.5236 139.043 23.2833 139.471 22.8557C139.898 22.428 140.139 21.848 140.139 21.2432C140.136 20.6393 139.895 20.0609 139.468 19.6338C139.041 19.2068 138.462 18.9656 137.858 18.9629ZM127.796 27.7286C127.19 27.7313 126.61 27.9739 126.183 28.4032C125.755 28.8325 125.515 29.4136 125.515 30.0194C125.518 30.6233 125.759 31.2017 126.186 31.6288C126.613 32.0558 127.192 32.297 127.796 32.2997C128.401 32.2997 128.982 32.0598 129.412 31.6325C129.841 31.2051 130.084 30.6251 130.086 30.0194C130.086 29.4118 129.845 28.8291 129.415 28.3995C128.986 27.9699 128.403 27.7286 127.796 27.7286ZM137.858 27.7286C137.558 27.7286 137.261 27.7879 136.983 27.9032C136.706 28.0184 136.454 28.1873 136.242 28.4002C136.03 28.613 135.863 28.8656 135.749 29.1435C135.635 29.4214 135.577 29.719 135.578 30.0194C135.578 30.3188 135.637 30.6154 135.751 30.892C135.866 31.1687 136.034 31.4201 136.246 31.6318C136.458 31.8436 136.709 32.0115 136.986 32.1261C137.262 32.2407 137.559 32.2997 137.858 32.2997C138.462 32.297 139.041 32.0558 139.468 31.6288C139.895 31.2017 140.136 30.6233 140.139 30.0194C140.139 29.4136 139.899 28.8325 139.471 28.4032C139.044 27.9739 138.464 27.7313 137.858 27.7286ZM137.858 36.5047C137.559 36.5047 137.262 36.5637 136.986 36.6783C136.709 36.7929 136.458 36.9609 136.246 37.1726C136.034 37.3844 135.866 37.6358 135.751 37.9124C135.637 38.1891 135.578 38.4856 135.578 38.7851C135.577 39.0849 135.635 39.3821 135.749 39.6593C135.863 39.9366 136.031 40.1886 136.243 40.4006C136.455 40.6126 136.707 40.7805 136.984 40.8946C137.261 41.0087 137.559 41.0668 137.858 41.0654C138.463 41.0654 139.043 40.8251 139.471 40.3975C139.898 39.9699 140.139 39.3898 140.139 38.7851C140.136 38.1811 139.895 37.6027 139.468 37.1757C139.041 36.7486 138.462 36.5075 137.858 36.5047Z" fill="url(#paint15_linear)"/>
<path d="M28.1713 119.278H13.6003C9.99378 119.278 6.535 117.845 3.98482 115.295C1.43464 112.745 0.00195312 109.286 0.00195312 105.679V92.374H24.458V96.9451H4.58355V105.679C4.58354 108.07 5.53178 110.363 7.22019 112.055C8.9086 113.748 11.1993 114.701 13.5898 114.707H28.161L28.1713 119.278Z" fill="url(#paint16_linear)"/>
<path d="M148.892 119.278H56.9258V114.707H148.892C151.286 114.704 153.58 113.752 155.272 112.06C156.965 110.367 157.917 108.073 157.919 105.679V96.9451H60.6391V92.374H162.501V105.679C162.501 107.466 162.149 109.235 161.465 110.886C160.781 112.536 159.778 114.036 158.514 115.299C157.251 116.561 155.75 117.563 154.099 118.246C152.448 118.928 150.679 119.279 148.892 119.278Z" fill="url(#paint17_linear)"/>
<path d="M42.5543 125.397C38.1518 125.397 33.8482 124.091 30.1877 121.645C26.5271 119.199 23.6741 115.723 21.9893 111.656C20.3046 107.588 19.8638 103.113 20.7226 98.7948C21.5815 94.4769 23.7016 90.5106 26.8147 87.3976C29.9277 84.2845 33.8939 82.1645 38.2118 81.3056C42.5297 80.4468 47.0053 80.8876 51.0727 82.5723C55.1401 84.2571 58.6165 87.1101 61.0624 90.7707C63.5083 94.4312 64.8138 98.7349 64.8138 103.137C64.8055 109.038 62.4577 114.695 58.2851 118.868C54.1124 123.041 48.4553 125.388 42.5543 125.397ZM42.5543 85.4595C39.058 85.4595 35.6403 86.4963 32.7332 88.4388C29.8261 90.3812 27.5602 93.1421 26.2222 96.3723C24.8842 99.6025 24.5342 103.157 25.2163 106.586C25.8984 110.015 27.582 113.165 30.0543 115.637C32.5265 118.11 35.6764 119.793 39.1056 120.475C42.5348 121.158 46.0892 120.808 49.3194 119.47C52.5496 118.132 55.3105 115.866 57.253 112.959C59.1954 110.052 60.2322 106.634 60.2322 103.137C60.2266 98.4506 58.3624 93.9574 55.0484 90.6434C51.7344 87.3293 47.2411 85.4651 42.5543 85.4595Z" fill="url(#paint18_linear)"/>
<path d="M40.0033 113.618C39.4939 113.618 38.9896 113.517 38.5193 113.321C38.049 113.126 37.622 112.839 37.2627 112.478L29.7209 104.884C29.5093 104.671 29.3417 104.419 29.2278 104.141C29.1138 103.863 29.0557 103.566 29.0567 103.266C29.0576 102.966 29.1177 102.669 29.2335 102.392C29.3493 102.115 29.5184 101.863 29.7314 101.652C29.9443 101.44 30.1967 101.273 30.4744 101.159C30.752 101.045 31.0494 100.987 31.3496 100.988C31.6497 100.989 31.9467 101.049 32.2236 101.164C32.5005 101.28 32.752 101.449 32.9635 101.662L39.9404 108.681L50.6831 94.8108C50.8622 94.5596 51.0902 94.3471 51.3534 94.1862C51.6166 94.0252 51.9096 93.919 52.2148 93.8741C52.52 93.8291 52.8311 93.8463 53.1295 93.9245C53.428 94.0027 53.7076 94.1404 53.9515 94.3293C54.1954 94.5183 54.3986 94.7545 54.5489 95.0239C54.6993 95.2933 54.7937 95.5902 54.8265 95.897C54.8593 96.2038 54.8297 96.514 54.7397 96.8091C54.6496 97.1041 54.501 97.378 54.3025 97.6142L43.0682 112.123C42.7297 112.557 42.303 112.915 41.8162 113.173C41.3294 113.431 40.7935 113.583 40.2438 113.618H40.0033Z" fill="url(#paint19_linear)"/>
<defs>
<linearGradient id="paint0_linear" x1="61995" y1="4368.11" x2="60906.6" y2="5732.81" gradientUnits="userSpaceOnUse">
<stop stop-color="#E3F24C"/>
<stop offset="0.2" stop-color="#CAED62"/>
<stop offset="1" stop-color="#64D8BC"/>
</linearGradient>
<linearGradient id="paint1_linear" x1="214117" y1="12022" x2="221456" y2="-4317.17" gradientUnits="userSpaceOnUse">
<stop stop-color="#1A58FF"/>
<stop offset="0.05" stop-color="#1963FF"/>
<stop offset="0.23" stop-color="#1685FF"/>
<stop offset="0.42" stop-color="#13A0FF"/>
<stop offset="0.6" stop-color="#11B3FF"/>
<stop offset="0.8" stop-color="#10BEFF"/>
<stop offset="1" stop-color="#10C2FF"/>
</linearGradient>
<linearGradient id="paint2_linear" x1="62536.3" y1="4418.78" x2="61197.6" y2="5977.77" gradientUnits="userSpaceOnUse">
<stop stop-color="#E3F24C"/>
<stop offset="0.2" stop-color="#CAED62"/>
<stop offset="1" stop-color="#64D8BC"/>
</linearGradient>
<linearGradient id="paint3_linear" x1="87902.9" y1="766.654" x2="87878.7" y2="1075.69" gradientUnits="userSpaceOnUse">
<stop stop-color="#E3F24C"/>
<stop offset="0.2" stop-color="#CAED62"/>
<stop offset="1" stop-color="#64D8BC"/>
</linearGradient>
<linearGradient id="paint4_linear" x1="655.737" y1="329.873" x2="234.24" y2="716.94" gradientUnits="userSpaceOnUse">
<stop stop-color="#E3F24C"/>
<stop offset="0.2" stop-color="#CAED62"/>
<stop offset="1" stop-color="#64D8BC"/>
</linearGradient>
<linearGradient id="paint5_linear" x1="37105" y1="1524.79" x2="37558.7" y2="923.695" gradientUnits="userSpaceOnUse">
<stop stop-color="#FF059D"/>
<stop offset="0.45" stop-color="#FF9841"/>
<stop offset="1" stop-color="#FFF904"/>
</linearGradient>
<linearGradient id="paint6_linear" x1="51147.7" y1="1638.45" x2="50363.7" y2="2581.18" gradientUnits="userSpaceOnUse">
<stop stop-color="#E3F24C"/>
<stop offset="0.2" stop-color="#CAED62"/>
<stop offset="1" stop-color="#64D8BC"/>
</linearGradient>
<linearGradient id="paint7_linear" x1="-1266.94" y1="79.8105" x2="-1258.91" y2="69.162" gradientUnits="userSpaceOnUse">
<stop stop-color="#FF059D"/>
<stop offset="0.45" stop-color="#FF9841"/>
<stop offset="1" stop-color="#FFF904"/>
</linearGradient>
<linearGradient id="paint8_linear" x1="3126.94" y1="191.362" x2="3085.04" y2="607.286" gradientUnits="userSpaceOnUse">
<stop stop-color="#E3F24C"/>
<stop offset="0.2" stop-color="#CAED62"/>
<stop offset="1" stop-color="#64D8BC"/>
</linearGradient>
<linearGradient id="paint9_linear" x1="85681.7" y1="390.143" x2="85693.6" y2="177.283" gradientUnits="userSpaceOnUse">
<stop stop-color="#1A58FF"/>
<stop offset="0.05" stop-color="#1963FF"/>
<stop offset="0.23" stop-color="#1685FF"/>
<stop offset="0.42" stop-color="#13A0FF"/>
<stop offset="0.6" stop-color="#11B3FF"/>
<stop offset="0.8" stop-color="#10BEFF"/>
<stop offset="1" stop-color="#10C2FF"/>
</linearGradient>
<linearGradient id="paint10_linear" x1="50314.5" y1="461.379" x2="51597.2" y2="461.379" gradientUnits="userSpaceOnUse">
<stop stop-color="#1A58FF"/>
<stop offset="0.05" stop-color="#1963FF"/>
<stop offset="0.23" stop-color="#1685FF"/>
<stop offset="0.42" stop-color="#13A0FF"/>
<stop offset="0.6" stop-color="#11B3FF"/>
<stop offset="0.8" stop-color="#10BEFF"/>
<stop offset="1" stop-color="#10C2FF"/>
</linearGradient>
<linearGradient id="paint11_linear" x1="13109.4" y1="461.379" x2="13191.2" y2="461.379" gradientUnits="userSpaceOnUse">
<stop stop-color="#1A58FF"/>
<stop offset="0.05" stop-color="#1963FF"/>
<stop offset="0.23" stop-color="#1685FF"/>
<stop offset="0.42" stop-color="#13A0FF"/>
<stop offset="0.6" stop-color="#11B3FF"/>
<stop offset="0.8" stop-color="#10BEFF"/>
<stop offset="1" stop-color="#10C2FF"/>
</linearGradient>
<linearGradient id="paint12_linear" x1="57391.5" y1="389.125" x2="59075.2" y2="389.125" gradientUnits="userSpaceOnUse">
<stop stop-color="#1A58FF"/>
<stop offset="0.05" stop-color="#1963FF"/>
<stop offset="0.23" stop-color="#1685FF"/>
<stop offset="0.42" stop-color="#13A0FF"/>
<stop offset="0.6" stop-color="#11B3FF"/>
<stop offset="0.8" stop-color="#10BEFF"/>
<stop offset="1" stop-color="#10C2FF"/>
</linearGradient>
<linearGradient id="paint13_linear" x1="13151" y1="389.125" x2="13232.8" y2="389.125" gradientUnits="userSpaceOnUse">
<stop stop-color="#1A58FF"/>
<stop offset="0.05" stop-color="#1963FF"/>
<stop offset="0.23" stop-color="#1685FF"/>
<stop offset="0.42" stop-color="#13A0FF"/>
<stop offset="0.6" stop-color="#11B3FF"/>
<stop offset="0.8" stop-color="#10BEFF"/>
<stop offset="1" stop-color="#10C2FF"/>
</linearGradient>
<linearGradient id="paint14_linear" x1="-4326.56" y1="-25923.6" x2="-4806.44" y2="-25482.9" gradientUnits="userSpaceOnUse">
<stop stop-color="#E3F24C"/>
<stop offset="0.2" stop-color="#CAED62"/>
<stop offset="1" stop-color="#64D8BC"/>
</linearGradient>
<linearGradient id="paint15_linear" x1="1667.81" y1="569.316" x2="652.377" y2="1610.38" gradientUnits="userSpaceOnUse">
<stop stop-color="#E3F24C"/>
<stop offset="0.2" stop-color="#CAED62"/>
<stop offset="1" stop-color="#64D8BC"/>
</linearGradient>
<linearGradient id="paint16_linear" x1="36449.2" y1="3353.91" x2="36919.5" y2="2701.95" gradientUnits="userSpaceOnUse">
<stop stop-color="#1A58FF"/>
<stop offset="0.05" stop-color="#1963FF"/>
<stop offset="0.23" stop-color="#1685FF"/>
<stop offset="0.42" stop-color="#13A0FF"/>
<stop offset="0.6" stop-color="#11B3FF"/>
<stop offset="0.8" stop-color="#10BEFF"/>
<stop offset="1" stop-color="#10C2FF"/>
</linearGradient>
<linearGradient id="paint17_linear" x1="144464" y1="3925.35" x2="144973" y2="1280.85" gradientUnits="userSpaceOnUse">
<stop stop-color="#1A58FF"/>
<stop offset="0.05" stop-color="#1963FF"/>
<stop offset="0.23" stop-color="#1685FF"/>
<stop offset="0.42" stop-color="#13A0FF"/>
<stop offset="0.6" stop-color="#11B3FF"/>
<stop offset="0.8" stop-color="#10BEFF"/>
<stop offset="1" stop-color="#10C2FF"/>
</linearGradient>
<linearGradient id="paint18_linear" x1="58618.2" y1="5651.52" x2="59759.7" y2="4140.11" gradientUnits="userSpaceOnUse">
<stop stop-color="#FF059D"/>
<stop offset="0.45" stop-color="#FF9841"/>
<stop offset="1" stop-color="#FFF904"/>
</linearGradient>
<linearGradient id="paint19_linear" x1="34087.4" y1="2364.09" x2="34338.7" y2="1929.68" gradientUnits="userSpaceOnUse">
<stop stop-color="#FF059D"/>
<stop offset="0.45" stop-color="#FF9841"/>
<stop offset="1" stop-color="#FFF904"/>
</linearGradient>
</defs>
</svg>
