<svg width="147" height="115" viewBox="0 0 147 115" fill="none" xmlns="http://www.w3.org/2000/svg">
<path d="M32.3304 33.0248V6.69932H22.3013V0H49.6108V6.69932H39.5817V33.0248H32.3304ZM57.5417 33.0248V0H64.7931V13.0684H78.1653V0H85.4165V33.0248H78.1653V19.7677H64.7931V33.0248H57.5417ZM95.67 33.0248V0H120.531V6.46343H102.874V13.1628H118.412V19.6262H102.874V26.5615H120.767V33.0248H95.67ZM0 73.7529V40.7282H13.4665C17.3589 40.7282 20.4351 41.7818 22.6953 43.8892C24.9554 45.9965 26.0854 48.7799 26.0854 52.2396C26.0854 55.9195 24.8298 58.7818 22.3185 60.8261C19.8073 62.839 16.6212 63.8455 12.7602 63.8455H7.25118V73.7529H0ZM7.25118 57.3821H12.9956C14.7848 57.3821 16.1817 56.9102 17.1862 55.9667C18.2221 55.0233 18.74 53.7966 18.74 52.2868C18.74 50.6829 18.2221 49.4562 17.1862 48.6069C16.1503 47.7262 14.7064 47.2859 12.8543 47.2859H7.25118V57.3821ZM34.1356 73.7529V40.7282H41.3867V73.7529H34.1356ZM49.4824 73.7529L60.9714 56.9574L49.9534 40.7282H58.4288L65.3502 51.4375L72.3189 40.7282H80.559L69.541 56.8632L81.0298 73.7529H72.5545L65.162 62.43L57.7225 73.7529H49.4824ZM88.8187 73.7529V40.7282H113.68V47.1915H96.0227V53.8908H111.561V60.3543H96.0227V67.2896H113.915V73.7529H88.8187ZM122.717 73.7529V40.7282H129.968V67.148H146.401V73.7529H122.717ZM1.0162 114.481V81.4563H8.26738V94.5248H21.6397V81.4563H28.8908V114.481H21.6397V101.224H8.26738V114.481H1.0162ZM52.8935 115C48.4045 115 44.9045 113.758 42.3934 111.273C39.882 108.757 38.6265 105.108 38.6265 100.328V81.4563H45.8776V100.139C45.8776 102.781 46.4897 104.81 47.714 106.225C48.9695 107.609 50.7274 108.301 52.9877 108.301C55.2477 108.301 56.9898 107.625 58.2141 106.272C59.4696 104.92 60.0975 102.954 60.0975 100.375V81.4563H67.3486V100.092C67.3486 104.998 66.0618 108.71 63.4876 111.226C60.9451 113.742 57.4135 115 52.8935 115ZM77.0886 114.481V81.4563H84.905L93.5688 95.421L102.232 81.4563H110.049V114.481H102.844V92.9206L93.5688 107.027H93.3804L84.1987 93.0622V114.481H77.0886ZM127.996 114.481V88.1556H117.967V81.4563H145.276V88.1556H135.247V114.481H127.996Z" fill="white"/>
</svg>
