<svg width="200" height="200" viewBox="0 0 200 200" fill="none" xmlns="http://www.w3.org/2000/svg">
<path d="M46.1071 112.978L50.2142 116.847C49.5463 117.136 48.9338 117.538 48.4047 118.038L46.0237 120.419L42.0833 116.693L38.5118 113.359C36.8946 111.837 35.4963 110.099 34.3571 108.193L33.6309 107.002C31.8413 103.92 30.893 100.423 30.8809 96.8592V95.1687C30.91 93.7397 31.0132 92.3132 31.1904 90.8949C31.488 87.9782 31.8809 83.9783 30.8213 82.4544C30.4077 81.8688 30.2437 81.1428 30.3654 80.4361C30.4871 79.7295 30.8845 79.1002 31.4702 78.6866C32.0559 78.273 32.7819 78.109 33.4885 78.2306C34.1951 78.3523 34.8244 78.7497 35.238 79.3354C37.488 82.5021 37.0118 87.252 36.5714 91.4425C36.4285 92.8354 36.2976 94.1449 36.2976 95.1687V96.8592C36.3037 99.4639 36.9933 102.021 38.2976 104.276L39.0237 105.466C39.902 106.927 40.9754 108.26 42.2142 109.431L46.1071 112.978Z" fill="url(#paint0_linear)"/>
<path d="M62.6318 128.537L58.7985 132.371L54.8818 128.704L56.9652 126.621C57.5677 126.009 58.0307 125.274 58.3223 124.466L58.7628 124.871L62.4295 128.347L62.6318 128.537Z" fill="url(#paint1_linear)"/>
<path d="M75.3102 140.489L71.4768 144.323L71.4649 144.299L67.5363 140.62L67.5244 140.573L71.3578 136.739L71.3935 136.763L75.2983 140.477L75.3102 140.489Z" fill="url(#paint2_linear)"/>
<path d="M87.9759 152.428L87.9998 152.452L84.1664 156.285L84.1426 156.262L80.2259 152.547L80.2021 152.535L84.0474 148.702L84.0593 148.726L87.9759 152.428Z" fill="url(#paint3_linear)"/>
<path d="M135.132 154.74C135.128 157.764 133.926 160.663 131.788 162.801C129.65 164.939 126.751 166.141 123.727 166.145C123.393 166.145 123.06 166.145 122.727 166.145C122.926 168.473 122.405 170.807 121.234 172.83C120.063 174.853 118.299 176.467 116.181 177.454C114.062 178.442 111.691 178.754 109.389 178.349C107.087 177.945 104.965 176.843 103.31 175.192L96.6315 168.478L92.7982 164.645L96.6315 160.811L100.465 164.645L107.143 171.359C107.701 171.915 108.362 172.355 109.09 172.655C109.817 172.956 110.597 173.11 111.384 173.108C112.171 173.107 112.95 172.951 113.677 172.649C114.404 172.347 115.064 171.904 115.62 171.347C116.175 170.79 116.616 170.128 116.916 169.401C117.216 168.673 117.37 167.894 117.369 167.106C117.368 166.319 117.212 165.54 116.91 164.813C116.607 164.087 116.165 163.427 115.608 162.871L104.441 151.657C104.543 151.22 104.591 150.772 104.584 150.323C104.585 149.538 104.431 148.761 104.131 148.035C103.831 147.31 103.39 146.651 102.834 146.097C102.114 145.4 101.233 144.892 100.269 144.62C99.3046 144.348 98.288 144.32 97.3101 144.537L96.6077 143.823L93.1077 140.323L92.7744 139.99L94.5601 138.18C95.2791 137.453 95.8032 136.556 96.0839 135.573L99.5006 138.978L100.191 139.657L109.953 149.407L119.477 158.93C120.028 159.489 120.684 159.934 121.407 160.238C122.13 160.542 122.906 160.701 123.691 160.704V160.704C125.265 160.689 126.77 160.057 127.883 158.944C128.996 157.831 129.628 156.326 129.643 154.752C129.643 153.16 129.014 151.632 127.893 150.502L103.346 125.859C103.203 125.716 103.079 125.556 102.977 125.383C102.895 125.266 102.83 125.138 102.786 125.002C102.703 124.831 102.64 124.651 102.596 124.466C102.5 123.978 102.54 123.473 102.712 123.006C102.884 122.539 103.181 122.128 103.57 121.818C103.96 121.508 104.427 121.312 104.921 121.25C105.414 121.188 105.916 121.262 106.37 121.466C106.492 121.494 106.607 121.552 106.703 121.633C106.855 121.726 106.995 121.838 107.12 121.966L107.179 122.026L131.822 146.657C133.724 148.545 134.881 151.055 135.084 153.728C135.124 154.064 135.14 154.402 135.132 154.74Z" fill="url(#paint4_linear)"/>
<path d="M136.06 153.729C134.564 153.733 133.082 153.442 131.699 152.872C130.316 152.302 129.059 151.464 128.001 150.407L103.418 125.8C102.912 125.286 102.628 124.593 102.628 123.871C102.628 123.15 102.912 122.457 103.418 121.943C103.666 121.693 103.962 121.494 104.288 121.359C104.614 121.223 104.963 121.154 105.316 121.154C105.669 121.154 106.019 121.223 106.344 121.359C106.67 121.494 106.966 121.693 107.215 121.943L107.275 122.014L131.822 146.586C132.949 147.708 134.476 148.337 136.067 148.334C137.658 148.33 139.182 147.695 140.304 146.568C141.427 145.441 142.056 143.914 142.052 142.323C142.049 140.732 141.414 139.208 140.287 138.086L120.632 118.348C120.38 118.097 120.18 117.799 120.044 117.471C119.907 117.142 119.837 116.791 119.836 116.435C119.836 116.08 119.905 115.728 120.041 115.399C120.176 115.071 120.375 114.772 120.626 114.52C120.877 114.269 121.175 114.069 121.503 113.932C121.831 113.796 122.183 113.725 122.538 113.725C122.894 113.724 123.246 113.794 123.574 113.929C123.903 114.065 124.202 114.263 124.453 114.514L144.191 134.264C145.328 135.354 146.842 135.963 148.418 135.963C149.993 135.963 151.507 135.354 152.644 134.264C153.203 133.711 153.648 133.052 153.951 132.325C154.254 131.599 154.41 130.819 154.41 130.032C154.41 129.245 154.254 128.466 153.951 127.739C153.648 127.013 153.203 126.354 152.644 125.8L148.191 121.348C147.726 120.831 147.477 120.155 147.495 119.46C147.513 118.765 147.797 118.104 148.289 117.612C148.781 117.12 149.442 116.836 150.137 116.818C150.832 116.8 151.508 117.049 152.025 117.514L156.477 121.979C157.537 123.036 158.379 124.292 158.953 125.675C159.527 127.058 159.822 128.541 159.822 130.038C159.822 131.536 159.527 133.018 158.953 134.401C158.379 135.784 157.537 137.04 156.477 138.098C155.295 139.273 153.871 140.177 152.305 140.747C150.738 141.316 149.066 141.537 147.406 141.395C147.554 142.971 147.37 144.56 146.866 146.06C146.362 147.559 145.55 148.937 144.481 150.104C143.412 151.27 142.11 152.2 140.66 152.832C139.21 153.465 137.643 153.787 136.06 153.776V153.729Z" fill="url(#paint5_linear)"/>
<path d="M69.7616 61.7878C65.1502 61.7769 60.6857 60.1653 57.1306 57.2283C56.8563 57.0024 56.6291 56.7246 56.462 56.4109C56.295 56.0972 56.1914 55.7537 56.1571 55.3999C56.1229 55.0462 56.1586 54.6891 56.2624 54.3492C56.3661 54.0093 56.5357 53.6931 56.7616 53.4187C56.9875 53.1444 57.2653 52.9172 57.579 52.7501C57.8927 52.5831 58.2362 52.4795 58.5899 52.4452C58.9436 52.411 59.3007 52.4467 59.6406 52.5504C59.9806 52.6541 60.2968 52.8238 60.5711 53.0497C62.2078 54.4048 64.1235 55.3817 66.1814 55.9106C68.2394 56.4394 70.3887 56.5073 72.4759 56.1092V56.1092H72.5473C79.816 54.5902 87.286 54.2845 94.6545 55.2044L95.2616 55.2997C95.972 55.4055 96.6113 55.7891 97.0388 56.3662C97.4664 56.9433 97.6471 57.6667 97.5414 58.3771C97.4356 59.0875 97.0519 59.7267 96.4748 60.1543C95.8977 60.5818 95.1744 60.7626 94.464 60.6568L93.9045 60.5735C87.1581 59.7338 80.3192 60.0195 73.6664 61.4187H73.4878C72.2607 61.6628 71.0127 61.7864 69.7616 61.7878V61.7878Z" fill="url(#paint6_linear)"/>
<path d="M106.441 80.8578C106 80.465 105.5 79.9888 105 79.5126L108.726 75.584L110.107 76.8697L106.441 80.8578Z" fill="url(#paint7_linear)"/>
<path d="M107.514 81.8572C107.311 81.6906 107.026 81.4287 106.692 81.1072L106.383 80.8096L110.109 76.8691L111.085 77.7858L107.514 81.8572Z" fill="url(#paint8_linear)"/>
<path d="M148.215 121.369L107.322 81.6899L111.084 77.7852L127.572 93.2018L127.632 93.1661L129.037 94.5114L152.025 117.511L148.215 121.369Z" fill="url(#paint9_linear)"/>
<path d="M105.965 72.9757L105.036 72.4281C103.901 71.8355 102.604 71.6311 101.342 71.8461C100.08 72.0611 98.9228 72.6837 98.0482 73.6185L85.8339 85.8686C85.2656 86.4309 84.5875 86.8702 83.8419 87.159C83.0964 87.4478 82.2994 87.5799 81.5005 87.5471C80.7015 87.5087 79.9196 87.3022 79.2057 86.9412C78.4919 86.5802 77.8622 86.0727 77.3577 85.4519C76.4647 84.2828 76.0362 82.8245 76.1549 81.3582C76.2736 79.892 76.9311 78.5216 78.0005 77.5114L92.6077 62.9043C92.6821 62.8161 92.766 62.7363 92.8577 62.6662L93.0243 62.5233C93.9454 61.6579 94.9882 60.9319 96.1196 60.3685C98.4711 59.1534 101.202 58.8973 103.739 59.6543L110.881 61.8686L120.953 65.2257C124.514 66.4482 128.347 66.6421 132.013 65.785C135.679 64.928 139.029 63.0549 141.679 60.3805L144.06 57.9995L140.155 54.2019L137.774 56.5828C135.854 58.5156 133.433 59.8739 130.783 60.5049C128.133 61.1359 125.359 61.0145 122.774 60.1543L114.715 57.4162L105.274 54.4876C101.408 53.3223 97.2398 53.6977 93.6434 55.5352C92.082 56.3111 90.639 57.3052 89.3577 58.4876C89.1315 58.6781 88.9172 58.8924 88.7148 59.0828L74.1077 73.69C72.1009 75.6631 70.8909 78.3061 70.7086 81.1146C70.5264 83.923 71.3846 86.7002 73.1196 88.9162C74.1083 90.1153 75.3367 91.0946 76.726 91.7913C78.1153 92.488 79.6348 92.8867 81.1872 92.9618C82.7396 93.0369 84.2905 92.7868 85.7406 92.2274C87.1906 91.6681 88.5078 90.8119 89.6077 89.7138L101.512 77.809L102.274 77.0709L104.929 79.5709L125.167 98.4757L150.036 123.309L158.262 115.059C160.149 113.189 161.646 110.964 162.668 108.512C163.69 106.06 164.215 103.43 164.215 100.773V99.0829C164.204 96.8716 164.633 94.6802 165.477 92.6363C166.321 90.5925 167.563 88.737 169.132 87.1781L171.132 85.1781L167.298 81.3448L165.31 83.3448C163.236 85.3955 161.591 87.8396 160.473 90.5338C159.355 93.228 158.785 96.1182 158.798 99.0352V100.726C158.804 102.668 158.424 104.592 157.68 106.387C156.936 108.181 155.843 109.81 154.465 111.178L150.108 115.63L129.036 94.5471L127.608 93.1781H127.548L108.739 75.6067L107.001 73.9638L105.965 72.9757Z" fill="url(#paint10_linear)"/>
<path d="M150.239 123.428L107.322 81.6899L111.084 77.7852L127.572 93.2018L127.632 93.1661L129.037 94.5114L154.048 119.571L150.239 123.428Z" fill="url(#paint11_linear)"/>
<path d="M98.3939 125.893C96.6951 124.188 94.4999 123.066 92.1235 122.688C89.7471 122.309 87.3119 122.693 85.1677 123.786C84.0958 124.327 83.1189 125.039 82.2748 125.893L57.2748 150.893C57.0236 151.14 56.824 151.434 56.6878 151.759C56.5516 152.084 56.4814 152.433 56.4814 152.786C56.4814 153.138 56.5516 153.487 56.6878 153.812C56.824 154.137 57.0236 154.431 57.2748 154.678L69.5606 166.988C70.0699 167.478 70.7469 167.754 71.4534 167.762C72.1724 167.759 72.8614 167.472 73.3701 166.964L84.0844 156.25L87.9177 152.416L96.5486 143.809L98.3343 142C99.0449 141.297 99.6504 140.495 100.132 139.619C100.239 139.452 100.334 139.274 100.442 139.083C101.525 136.947 101.911 134.525 101.544 132.158C101.176 129.791 100.074 127.599 98.3939 125.893V125.893ZM71.4772 144.321L75.3106 140.488L86.0844 129.774C87.0092 128.804 88.234 128.176 89.5605 127.989C90.8871 127.802 92.238 128.068 93.3946 128.744C94.5511 129.42 95.4459 130.467 95.934 131.714C96.4221 132.962 96.475 134.337 96.0843 135.619C95.8036 136.602 95.2795 137.499 94.5606 138.226L92.7748 140.036L84.0486 148.75L80.2153 152.536L71.501 161.238L63.0486 152.762L71.4772 144.321Z" fill="url(#paint12_linear)"/>
<path d="M109.952 149.405C109.762 146.877 108.726 144.487 107.011 142.621C105.296 140.755 103.002 139.521 100.5 139.119C100.173 139.036 99.8374 138.988 99.5 138.976C99.2143 138.976 98.9167 138.976 98.6072 138.976C97.1089 138.963 95.6235 139.252 94.2389 139.824C92.8544 140.397 91.5991 141.242 90.5477 142.309L84.0596 148.774L80.2262 152.536L69.6072 163.155C69.1063 163.668 68.821 164.354 68.8096 165.071C68.8146 165.778 69.0917 166.456 69.5833 166.964V166.964L78.2739 175.631C78.9982 176.362 79.8606 176.941 80.811 177.335C81.7613 177.73 82.7806 177.931 83.8095 177.928C84.8398 177.928 85.86 177.726 86.8119 177.331C87.7638 176.937 88.6287 176.359 89.3572 175.631L106.643 158.345C107.406 157.582 108.059 156.717 108.583 155.774C109.506 154.088 109.986 152.195 109.976 150.274C110 150.012 109.976 149.702 109.952 149.405ZM102.81 154.559L96.6072 160.762L92.7739 164.595L85.5238 171.845C85.062 172.281 84.4508 172.524 83.8155 172.524C83.1802 172.524 82.569 172.281 82.1072 171.845V171.845L75.3334 165.095L94.381 146.047C95.1925 145.252 96.2186 144.71 97.3334 144.488C98.3113 144.27 99.3279 144.298 100.292 144.571C101.256 144.843 102.138 145.35 102.857 146.047C103.413 146.602 103.854 147.26 104.154 147.986C104.455 148.711 104.609 149.489 104.607 150.274C104.615 150.722 104.567 151.17 104.464 151.607C104.21 152.725 103.645 153.749 102.833 154.559H102.81Z" fill="url(#paint13_linear)"/>
<path d="M63.7731 119.737C63.3599 117.912 62.5025 116.217 61.2771 114.803C60.0518 113.389 58.4963 112.299 56.7487 111.63C55.0011 110.961 53.1154 110.734 51.2589 110.969C49.4025 111.203 47.6326 111.893 46.1064 112.975C45.5573 113.349 45.0433 113.771 44.5707 114.237L42.1898 116.678L36.2374 122.63C35.5099 123.356 34.9327 124.217 34.5389 125.166C34.1451 126.115 33.9424 127.133 33.9424 128.16C33.9424 129.187 34.1451 130.205 34.5389 131.153C34.9327 132.102 35.5099 132.964 36.2374 133.69L44.904 142.38C45.4125 142.863 46.09 143.127 46.7912 143.116C47.4923 143.105 48.1612 142.819 48.654 142.321L58.654 132.297L60.6064 130.344C61.2404 129.72 61.7961 129.02 62.2612 128.261C63.3789 126.477 63.9691 124.414 63.9635 122.309C64.0024 121.447 63.9385 120.584 63.7731 119.737V119.737ZM40.154 126.404L46.1064 120.452L48.4874 118.071C49.0165 117.571 49.6289 117.168 50.2969 116.88C51.0428 116.534 51.8555 116.355 52.6779 116.356C54.2565 116.356 55.7705 116.983 56.8868 118.1C58.0031 119.216 58.6302 120.73 58.6302 122.309C58.6381 123.026 58.5046 123.738 58.2374 124.404C57.9457 125.212 57.4827 125.947 56.8802 126.559L54.7969 128.642L46.8207 136.594L40.154 129.844C39.9217 129.622 39.7369 129.355 39.6106 129.059C39.4843 128.764 39.4192 128.446 39.4192 128.124C39.4192 127.803 39.4843 127.485 39.6106 127.189C39.7369 126.893 39.9217 126.626 40.154 126.404V126.404Z" fill="url(#paint14_linear)"/>
<path d="M85.166 123.785C84.7972 121.449 83.6968 119.29 82.0231 117.619C79.8812 115.485 76.981 114.287 73.9577 114.287C70.9344 114.287 68.0342 115.485 65.8922 117.619L63.7732 119.738L58.7137 124.809L54.8565 128.654L44.9755 138.535C44.4651 139.044 44.1744 139.732 44.166 140.452C44.1663 140.809 44.2381 141.163 44.3771 141.492C44.5161 141.821 44.7196 142.119 44.9755 142.369V142.369L57.297 154.678C57.5449 154.927 57.8401 155.124 58.1652 155.257C58.4902 155.389 58.8386 155.456 59.1898 155.452C59.5464 155.454 59.8997 155.384 60.2289 155.247C60.5582 155.11 60.8565 154.909 61.1065 154.654L71.4636 144.309L75.297 140.476L82.0231 133.738C83.0835 132.681 83.924 131.425 84.4962 130.042C85.0683 128.658 85.3607 127.175 85.3565 125.678C85.3591 125.042 85.2953 124.408 85.166 123.785ZM58.7969 132.369L62.6303 128.535L69.7732 121.452C70.9128 120.358 72.4314 119.747 74.0113 119.747C75.5911 119.747 77.1098 120.358 78.2494 121.452C78.8073 122.005 79.2501 122.664 79.5523 123.389C79.8545 124.114 80.0101 124.892 80.0101 125.678C80.0101 126.464 79.8545 127.242 79.5523 127.967C79.2501 128.693 78.8073 129.351 78.2494 129.904L71.416 136.738L67.5351 140.631L59.2017 148.964L50.7256 140.488L58.7969 132.369Z" fill="url(#paint15_linear)"/>
<path d="M175.142 93.0127L130.976 48.846L152.559 27.2627L196.714 71.4294L175.142 93.0127ZM138.63 48.846L175.142 85.346L189.059 71.4294L152.559 34.9174L138.63 48.846Z" fill="url(#paint16_linear)"/>
<path d="M24.871 93.0125L3.25195 71.3815L47.4186 27.2148L69.0019 48.7982L24.871 93.0125ZM10.9425 71.4291L24.871 85.3458L61.371 48.8458L47.4543 34.9172L10.9425 71.4291Z" fill="url(#paint17_linear)"/>
<path d="M28.5469 73.964C28.5492 73.3208 28.3606 72.6912 28.005 72.1552C27.6493 71.6192 27.1425 71.2008 26.5488 70.953C25.9552 70.7052 25.3013 70.6391 24.6701 70.7632C24.0389 70.8872 23.4587 71.1958 23.003 71.6498C22.5473 72.1039 22.2366 72.6829 22.1102 73.3137C21.9838 73.9445 22.0475 74.5986 22.2932 75.1931C22.5388 75.7877 22.9553 76.2959 23.49 76.6536C24.0247 77.0112 24.6536 77.2021 25.2969 77.2021C26.1568 77.2021 26.9816 76.8614 27.5908 76.2545C28.1999 75.6475 28.5437 74.8239 28.5469 73.964V73.964Z" fill="url(#paint18_linear)"/>
<path d="M179.225 72.4162C179.227 71.7729 179.038 71.1434 178.683 70.6074C178.327 70.0713 177.82 69.6529 177.227 69.4051C176.633 69.1573 175.979 69.0912 175.348 69.2153C174.717 69.3394 174.136 69.648 173.681 70.102C173.225 70.5561 172.914 71.1351 172.788 71.7659C172.662 72.3966 172.725 73.0507 172.971 73.6453C173.217 74.2398 173.633 74.7481 174.168 75.1057C174.702 75.4634 175.331 75.6543 175.975 75.6543C176.835 75.6543 177.659 75.3135 178.268 74.7066C178.878 74.0997 179.221 73.2761 179.225 72.4162V72.4162Z" fill="url(#paint19_linear)"/>
<path d="M105.023 79.5243L108.738 75.5957L115.44 81.8576L111.523 85.7743L105.023 79.5243Z" fill="url(#paint20_linear)"/>
<defs>
<linearGradient id="paint0_linear" x1="13312.2" y1="12546.2" x2="13643.3" y2="12546.2" gradientUnits="userSpaceOnUse">
<stop stop-color="#E3F24C"/>
<stop offset="0.2" stop-color="#CAED62"/>
<stop offset="1" stop-color="#64D8BC"/>
</linearGradient>
<linearGradient id="paint1_linear" x1="5389.45" y1="2651.77" x2="5440.21" y2="2651.77" gradientUnits="userSpaceOnUse">
<stop stop-color="#E3F24C"/>
<stop offset="0.2" stop-color="#CAED62"/>
<stop offset="1" stop-color="#64D8BC"/>
</linearGradient>
<linearGradient id="paint2_linear" x1="5509.69" y1="2638.63" x2="5560.61" y2="2638.63" gradientUnits="userSpaceOnUse">
<stop stop-color="#E3F24C"/>
<stop offset="0.2" stop-color="#CAED62"/>
<stop offset="1" stop-color="#64D8BC"/>
</linearGradient>
<linearGradient id="paint3_linear" x1="5613.77" y1="2726.73" x2="5664.77" y2="2726.73" gradientUnits="userSpaceOnUse">
<stop stop-color="#E3F24C"/>
<stop offset="0.2" stop-color="#CAED62"/>
<stop offset="1" stop-color="#64D8BC"/>
</linearGradient>
<linearGradient id="paint4_linear" x1="30599.9" y1="19471.4" x2="32107" y2="19471.4" gradientUnits="userSpaceOnUse">
<stop stop-color="#E3F24C"/>
<stop offset="0.2" stop-color="#CAED62"/>
<stop offset="1" stop-color="#64D8BC"/>
</linearGradient>
<linearGradient id="paint5_linear" x1="41766.5" y1="13099.3" x2="44515.3" y2="13099.3" gradientUnits="userSpaceOnUse">
<stop stop-color="#E3F24C"/>
<stop offset="0.2" stop-color="#CAED62"/>
<stop offset="1" stop-color="#64D8BC"/>
</linearGradient>
<linearGradient id="paint6_linear" x1="28616.7" y1="2483.27" x2="30059.6" y2="2483.27" gradientUnits="userSpaceOnUse">
<stop stop-color="#E3F24C"/>
<stop offset="0.2" stop-color="#CAED62"/>
<stop offset="1" stop-color="#64D8BC"/>
</linearGradient>
<linearGradient id="paint7_linear" x1="3835.65" y1="1539.44" x2="3857.56" y2="1539.44" gradientUnits="userSpaceOnUse">
<stop stop-color="#E3F24C"/>
<stop offset="0.2" stop-color="#CAED62"/>
<stop offset="1" stop-color="#64D8BC"/>
</linearGradient>
<linearGradient id="paint8_linear" x1="3546.8" y1="1466.25" x2="3565.37" y2="1466.25" gradientUnits="userSpaceOnUse">
<stop stop-color="#E3F24C"/>
<stop offset="0.2" stop-color="#CAED62"/>
<stop offset="1" stop-color="#64D8BC"/>
</linearGradient>
<linearGradient id="paint9_linear" x1="32848.2" y1="12957.5" x2="34526.8" y2="12957.5" gradientUnits="userSpaceOnUse">
<stop stop-color="#E3F24C"/>
<stop offset="0.2" stop-color="#CAED62"/>
<stop offset="1" stop-color="#64D8BC"/>
</linearGradient>
<linearGradient id="paint10_linear" x1="70553.3" y1="19943.7" x2="79027" y2="19943.7" gradientUnits="userSpaceOnUse">
<stop stop-color="#1A58FF"/>
<stop offset="0.05" stop-color="#1963FF"/>
<stop offset="0.23" stop-color="#1685FF"/>
<stop offset="0.42" stop-color="#13A0FF"/>
<stop offset="0.6" stop-color="#11B3FF"/>
<stop offset="0.8" stop-color="#10BEFF"/>
<stop offset="1" stop-color="#10C2FF"/>
</linearGradient>
<linearGradient id="paint11_linear" x1="34330.5" y1="13605.4" x2="36164.5" y2="13605.4" gradientUnits="userSpaceOnUse">
<stop stop-color="#E3F24C"/>
<stop offset="0.2" stop-color="#CAED62"/>
<stop offset="1" stop-color="#64D8BC"/>
</linearGradient>
<linearGradient id="paint12_linear" x1="31230" y1="15216" x2="32947.5" y2="15216" gradientUnits="userSpaceOnUse">
<stop stop-color="#1A58FF"/>
<stop offset="0.05" stop-color="#1963FF"/>
<stop offset="0.23" stop-color="#1685FF"/>
<stop offset="0.42" stop-color="#13A0FF"/>
<stop offset="0.6" stop-color="#11B3FF"/>
<stop offset="0.8" stop-color="#10BEFF"/>
<stop offset="1" stop-color="#10C2FF"/>
</linearGradient>
<linearGradient id="paint13_linear" x1="28895.3" y1="13576.5" x2="30320" y2="13576.5" gradientUnits="userSpaceOnUse">
<stop stop-color="#1A58FF"/>
<stop offset="0.05" stop-color="#1963FF"/>
<stop offset="0.23" stop-color="#1685FF"/>
<stop offset="0.42" stop-color="#13A0FF"/>
<stop offset="0.6" stop-color="#11B3FF"/>
<stop offset="0.8" stop-color="#10BEFF"/>
<stop offset="1" stop-color="#10C2FF"/>
</linearGradient>
<linearGradient id="paint14_linear" x1="20179.8" y1="10380.8" x2="20939.4" y2="10380.8" gradientUnits="userSpaceOnUse">
<stop stop-color="#1A58FF"/>
<stop offset="0.05" stop-color="#1963FF"/>
<stop offset="0.23" stop-color="#1685FF"/>
<stop offset="0.42" stop-color="#13A0FF"/>
<stop offset="0.6" stop-color="#11B3FF"/>
<stop offset="0.8" stop-color="#10BEFF"/>
<stop offset="1" stop-color="#10C2FF"/>
</linearGradient>
<linearGradient id="paint15_linear" x1="28027.8" y1="13499.5" x2="29453" y2="13499.5" gradientUnits="userSpaceOnUse">
<stop stop-color="#1A58FF"/>
<stop offset="0.05" stop-color="#1963FF"/>
<stop offset="0.23" stop-color="#1685FF"/>
<stop offset="0.42" stop-color="#13A0FF"/>
<stop offset="0.6" stop-color="#11B3FF"/>
<stop offset="0.8" stop-color="#10BEFF"/>
<stop offset="1" stop-color="#10C2FF"/>
</linearGradient>
<linearGradient id="paint16_linear" x1="49585.1" y1="17276.1" x2="53215.2" y2="17276.1" gradientUnits="userSpaceOnUse">
<stop stop-color="#FF059D"/>
<stop offset="0.45" stop-color="#FF9841"/>
<stop offset="1" stop-color="#FFF904"/>
</linearGradient>
<linearGradient id="paint17_linear" x1="42414" y1="17288.6" x2="46045.3" y2="17288.6" gradientUnits="userSpaceOnUse">
<stop stop-color="#FF059D"/>
<stop offset="0.45" stop-color="#FF9841"/>
<stop offset="1" stop-color="#FFF904"/>
</linearGradient>
<linearGradient id="paint18_linear" x1="4317.25" y1="1851.77" x2="4352.67" y2="1851.77" gradientUnits="userSpaceOnUse">
<stop stop-color="#E3F24C"/>
<stop offset="0.2" stop-color="#CAED62"/>
<stop offset="1" stop-color="#64D8BC"/>
</linearGradient>
<linearGradient id="paint19_linear" x1="5290.63" y1="1841.71" x2="5326.06" y2="1841.71" gradientUnits="userSpaceOnUse">
<stop stop-color="#E3F24C"/>
<stop offset="0.2" stop-color="#CAED62"/>
<stop offset="1" stop-color="#64D8BC"/>
</linearGradient>
<linearGradient id="paint20_linear" x1="107.523" y1="76.3576" x2="112.881" y2="84.929" gradientUnits="userSpaceOnUse">
<stop offset="0.21" stop-color="#1397FF"/>
<stop offset="0.82" stop-color="#CFEE5D"/>
</linearGradient>
</defs>
</svg>
