<svg width="200" height="200" viewBox="0 0 200 200" fill="none" xmlns="http://www.w3.org/2000/svg">
<path d="M100.025 184.049L98.6673 183.275C76.1004 170.244 57.8798 150.845 46.2878 127.506C34.6958 104.168 30.2478 77.9276 33.5007 52.0726L33.703 50.4655L35.2149 49.8821C48.9054 44.6202 57.0721 37.2393 64.2864 30.7274C73.9411 22.0131 82.2744 14.4893 99.5006 14.4893C116.727 14.4893 125.917 22.4655 135.56 30.9178C142.941 37.3821 151.31 44.7155 164.786 49.8821L166.31 50.4655L166.513 52.0726C167.198 57.5699 167.544 63.1042 167.548 68.644C167.553 91.8779 161.441 114.704 149.826 134.826C138.211 154.948 121.503 171.658 101.382 183.275L100.025 184.049ZM38.6792 54.2869C38.152 59.0306 37.8857 63.7997 37.8816 68.5726C37.8769 90.5936 43.604 112.237 54.4998 131.373C65.3956 150.51 81.0849 166.481 100.025 177.715C121.045 165.226 138.012 146.932 148.886 125.032C159.76 103.132 164.078 78.5582 161.322 54.2631C147.846 48.8107 139.441 41.4416 131.989 34.9178C122.37 26.4893 114.774 19.8345 99.5006 19.8345C84.2268 19.8345 77.0958 26.3821 67.9173 34.6797C60.6196 41.3345 52.3935 48.7631 38.6435 54.3345L38.6792 54.2869Z" fill="url(#paint0_linear)"/>
<path d="M100.024 146.882L99.262 146.668C81.0203 141.457 63.2857 134.612 46.2739 126.215L45.4286 125.787L45.0357 124.942C36.7041 107.346 32.409 88.1121 32.4644 68.644C32.4628 63.104 32.8087 57.5693 33.5001 52.0726L33.7024 50.4655L35.2143 49.8821C48.9048 44.6202 57.0715 37.2393 64.2858 30.7274C73.9406 22.0131 82.2738 14.4893 99.5 14.4893C116.726 14.4893 125.917 22.4655 135.56 30.9178C142.941 37.3821 151.31 44.7155 164.786 49.8821L166.31 50.4655L166.512 52.0726C167.197 57.5699 167.543 63.1042 167.548 68.644C167.589 88.1182 163.295 107.357 154.976 124.965L154.571 125.811L153.738 126.227C136.739 134.622 119.016 141.463 100.786 146.668L100.024 146.882ZM49.5358 121.787C65.7664 129.733 82.66 136.245 100.024 141.251C117.373 136.244 134.253 129.74 150.476 121.811C158.192 105.151 162.17 87.0042 162.131 68.644C162.129 63.8707 161.859 59.1013 161.322 54.3583C147.845 48.9059 139.441 41.5369 131.988 35.0131C122.369 26.5845 114.774 19.9297 99.5 19.9297C84.2262 19.9297 77.0952 26.4774 67.9167 34.775C60.619 41.3583 52.4406 48.7869 38.6786 54.3583C38.1514 59.102 37.8851 63.8711 37.881 68.644C37.8282 86.998 41.8069 105.14 49.5358 121.787Z" fill="url(#paint1_linear)"/>
<path d="M102.334 161.369C101.874 161.827 101.288 162.139 100.651 162.265C100.014 162.391 99.354 162.325 98.7542 162.076C98.1545 161.827 97.6419 161.406 97.2814 160.866C96.9209 160.326 96.7284 159.691 96.7284 159.041C96.7284 158.392 96.9209 157.757 97.2814 157.217C97.6419 156.677 98.1545 156.256 98.7542 156.007C99.354 155.758 100.014 155.692 100.651 155.818C101.288 155.944 101.874 156.256 102.334 156.714C102.64 157.019 102.883 157.382 103.049 157.781C103.214 158.181 103.3 158.609 103.3 159.041C103.3 159.474 103.214 159.902 103.049 160.301C102.883 160.701 102.64 161.063 102.334 161.369ZM147.75 63.1663C147.29 62.708 146.705 62.3962 146.068 62.2703C145.431 62.1445 144.771 62.2102 144.171 62.4592C143.571 62.7082 143.059 63.1294 142.698 63.6695C142.338 64.2096 142.145 64.8444 142.145 65.4937C142.145 66.1431 142.338 66.7779 142.698 67.318C143.059 67.8581 143.571 68.2792 144.171 68.5282C144.771 68.7773 145.431 68.843 146.068 68.7171C146.705 68.5913 147.29 68.2795 147.75 67.8211C148.363 67.2015 148.707 66.3652 148.707 65.4937C148.707 64.6223 148.363 63.7859 147.75 63.1663ZM56.524 63.1663C56.064 62.708 55.4785 62.3962 54.8415 62.2703C54.2044 62.1445 53.5443 62.2102 52.9446 62.4592C52.3449 62.7082 51.8324 63.1294 51.4719 63.6695C51.1114 64.2096 50.9189 64.8444 50.9189 65.4937C50.9189 66.1431 51.1114 66.7779 51.4719 67.318C51.8324 67.8581 52.3449 68.2792 52.9446 68.5282C53.5443 68.7773 54.2044 68.843 54.8415 68.7171C55.4785 68.5913 56.064 68.2795 56.524 67.8211C57.1337 67.1984 57.4732 66.3603 57.4687 65.4888C57.4643 64.6173 57.1162 63.7828 56.5002 63.1663H56.524Z" fill="url(#paint2_linear)"/>
<path d="M99.9399 122.774C91.3408 122.765 83.0013 119.827 76.2956 114.444C69.5899 109.061 64.9182 101.554 63.0501 93.1599C61.182 84.7662 62.229 75.9864 66.0187 68.2674C69.8084 60.5484 76.1145 54.3507 83.8981 50.6955C91.6817 47.0403 100.478 46.1457 108.838 48.1592C117.198 50.1726 124.623 54.9739 129.889 61.772C135.155 68.57 137.948 76.9592 137.808 85.5572C137.668 94.1551 134.603 102.449 129.118 109.072C125.566 113.366 121.108 116.821 116.063 119.189C111.019 121.558 105.513 122.782 99.9399 122.774ZM100.035 52.536C99.0232 52.536 97.9994 52.536 96.9756 52.6789C91.6676 53.173 86.5634 54.9685 82.1151 57.9064C77.6668 60.8444 74.0116 64.834 71.4735 69.522C68.9354 74.2099 67.5926 79.4514 67.5641 84.7823C67.5355 90.1132 68.8221 95.3688 71.3099 100.084C73.7976 104.799 77.4097 108.827 81.8262 111.813C86.2428 114.798 91.3275 116.648 96.6299 117.199C101.932 117.75 107.289 116.985 112.225 114.971C117.161 112.958 121.524 109.758 124.928 105.655C128.856 100.922 131.357 95.168 132.138 89.0664C132.918 82.9648 131.947 76.767 129.336 71.1969C126.726 65.6269 122.585 60.9145 117.397 57.6101C112.208 54.3058 106.186 52.5459 100.035 52.536Z" fill="url(#paint3_linear)"/>
<path d="M154.964 181.474V185.76H159.25V181.474H154.964Z" fill="url(#paint4_linear)"/>
<path d="M154.964 172.046V176.332H159.25V172.046H154.964Z" fill="url(#paint5_linear)"/>
<path d="M146.727 181.474V185.76H151.012V181.474H146.727Z" fill="url(#paint6_linear)"/>
<path d="M146.737 172.036V176.321H151.023V172.036H146.737Z" fill="url(#paint7_linear)"/>
<path d="M154.964 162.405V166.69H159.25V162.405H154.964Z" fill="url(#paint8_linear)"/>
<path d="M154.964 152.964V157.25H159.25V152.964H154.964Z" fill="url(#paint9_linear)"/>
<path d="M146.727 162.405V166.69H151.012V162.405H146.727Z" fill="url(#paint10_linear)"/>
<path d="M146.727 152.964V157.25H151.012V152.964H146.727Z" fill="url(#paint11_linear)"/>
<path d="M138.499 181.475V185.761H142.785V181.475H138.499ZM129.726 181.475V185.761H134.011V181.475H129.726ZM138.499 172.047V176.344H142.785V172.059L138.499 172.047ZM129.726 172.047V176.344H134.011V172.059L129.726 172.047Z" fill="url(#paint12_linear)"/>
<path d="M120.643 181.477V185.762H124.928V181.477H120.643Z" fill="url(#paint13_linear)"/>
<path d="M39.9639 181.462V185.748H44.2496V181.462H39.9639Z" fill="url(#paint14_linear)"/>
<path d="M39.9756 172.036V176.321H44.2613V172.036H39.9756Z" fill="url(#paint15_linear)"/>
<path d="M48.2383 181.489V185.774H52.524V181.489H48.2383Z" fill="url(#paint16_linear)"/>
<path d="M48.25 172.048V176.334H52.5357V172.048H48.25Z" fill="url(#paint17_linear)"/>
<path d="M39.9639 162.393V166.679H44.2496V162.393H39.9639Z" fill="url(#paint18_linear)"/>
<path d="M39.9639 152.964V157.25H44.2496V152.964H39.9639Z" fill="url(#paint19_linear)"/>
<path d="M48.2383 162.415V166.701H52.524V162.415H48.2383Z" fill="url(#paint20_linear)"/>
<path d="M48.2383 152.975V157.261H52.524V152.975H48.2383Z" fill="url(#paint21_linear)"/>
<path d="M56.5 181.475V185.761H60.7857V181.475H56.5ZM65.2738 181.475V185.761H69.5595V181.475H65.2738ZM56.5 172.047V176.344H60.7857V172.059L56.5 172.047ZM65.2738 172.047V176.344H69.5595V172.059L65.2738 172.047Z" fill="url(#paint22_linear)"/>
<path d="M74.3564 181.476V185.761H78.6421V181.476H74.3564Z" fill="url(#paint23_linear)"/>
<path d="M105.262 84.9337L100.23 88.8228C100.185 88.8565 100.136 88.8871 100.085 88.9143C99.898 89.0236 99.6795 89.0822 99.4561 89.083C99.3347 89.0857 99.214 89.066 99.1013 89.0251C99.0486 89.0163 98.9978 89.0001 98.9508 88.977C98.868 88.9451 98.7917 88.9011 98.725 88.8468C98.6485 88.7992 98.5813 88.7406 98.5261 88.6734L92.822 82.0518C92.7274 81.942 92.6578 81.8166 92.6173 81.6827C92.5768 81.5488 92.5661 81.4091 92.5858 81.2715C92.6055 81.1339 92.6552 81.0011 92.7322 80.8807C92.8092 80.7604 92.9118 80.6548 93.0343 80.57C93.1568 80.4852 93.2968 80.4228 93.4461 80.3865C93.5955 80.3501 93.7514 80.3405 93.9049 80.3582C94.0584 80.3759 94.2066 80.4205 94.3408 80.4895C94.4751 80.5585 94.5929 80.6505 94.6875 80.7603L99.6336 86.5047L103.73 83.3434C103.967 83.1611 104.274 83.07 104.585 83.0899C104.896 83.1097 105.186 83.2389 105.391 83.4494C105.493 83.554 105.57 83.6757 105.618 83.8072C105.666 83.9388 105.685 84.0776 105.673 84.2157C105.661 84.3538 105.619 84.4884 105.548 84.6116C105.478 84.7349 105.38 84.8444 105.262 84.9337ZM100.085 88.9143C100.121 88.9042 100.154 88.8878 100.182 88.8661C100.202 88.8555 100.218 88.8406 100.23 88.8228C100.186 88.8496 100.139 88.8738 100.091 88.895L100.085 88.9143Z" fill="url(#paint24_linear)"/>
<path d="M99.5629 107.424C95.0718 107.424 90.6816 106.092 86.9474 103.597C83.2132 101.102 80.3026 97.5552 78.5839 93.406C76.8653 89.2567 76.4156 84.691 77.2918 80.2862C78.168 75.8814 80.3307 71.8353 83.5063 68.6597C86.682 65.484 90.7281 63.3213 95.1329 62.4451C99.5377 61.5689 104.103 62.0186 108.253 63.7373C112.402 65.456 115.948 68.3665 118.443 72.1007C120.939 75.8349 122.27 80.2251 122.27 84.7162C122.264 90.7366 119.869 96.5085 115.612 100.766C111.355 105.023 105.583 107.417 99.5629 107.424ZM99.5629 65.6277C95.7975 65.6278 92.1166 66.7438 88.9853 68.8349C85.8539 70.926 83.4125 73.8983 81.9697 77.3763C80.5268 80.8543 80.1472 84.6819 80.8788 88.3755C81.6104 92.0691 83.4204 95.4631 86.08 98.1285C88.7397 100.794 92.1297 102.611 95.8217 103.351C99.5137 104.09 103.342 103.719 106.823 102.284C110.304 100.849 113.282 98.4137 115.38 95.2869C117.478 92.1601 118.602 88.4816 118.61 84.7162C118.606 79.6622 116.599 74.8157 113.029 71.2381C109.459 67.6604 104.617 65.6431 99.5629 65.6277Z" fill="url(#paint25_linear)"/>
<path d="M84.7915 86.4632H80.2738C79.8205 86.4332 79.3956 86.2361 79.0854 85.9119C78.7751 85.5876 78.6025 85.1603 78.6025 84.7165C78.6025 84.2726 78.7751 83.8453 79.0854 83.521C79.3956 83.1968 79.8205 82.9997 80.2738 82.9697H84.7915C85.2449 82.9997 85.6696 83.1968 85.9799 83.521C86.2901 83.8453 86.4628 84.2726 86.4628 84.7165C86.4628 85.1603 86.2901 85.5876 85.9799 85.9119C85.6696 86.2361 85.2449 86.4332 84.7915 86.4632Z" fill="url(#paint26_linear)"/>
<path d="M120.266 86.4592H115.542C115.285 86.4754 115.027 86.4423 114.785 86.362C114.543 86.2817 114.321 86.156 114.133 85.9926C113.945 85.8292 113.795 85.6316 113.692 85.4121C113.59 85.1925 113.537 84.9558 113.537 84.7165C113.537 84.4771 113.59 84.2403 113.692 84.0208C113.795 83.8013 113.945 83.6037 114.133 83.4403C114.321 83.2769 114.543 83.1511 114.785 83.0709C115.027 82.9906 115.285 82.9576 115.542 82.9737H120.266C120.523 82.9576 120.78 82.9906 121.023 83.0709C121.265 83.1511 121.487 83.2769 121.675 83.4403C121.863 83.6037 122.013 83.8013 122.115 84.0208C122.218 84.2403 122.271 84.4771 122.271 84.7165C122.271 84.9558 122.218 85.1925 122.115 85.4121C122.013 85.6316 121.863 85.8292 121.675 85.9926C121.487 86.156 121.265 86.2817 121.023 86.362C120.78 86.4423 120.523 86.4754 120.266 86.4592Z" fill="url(#paint27_linear)"/>
<path d="M99.5631 71.6161C99.0998 71.6161 98.6555 71.4327 98.3279 71.1063C98.0004 70.7799 97.8164 70.3372 97.8164 69.8756V65.4964C97.8164 65.0348 98.0004 64.5921 98.3279 64.2657C98.6555 63.9392 99.0998 63.7559 99.5631 63.7559C100.026 63.7559 100.471 63.9392 100.798 64.2657C101.126 64.5921 101.31 65.0348 101.31 65.4964V69.8756C101.31 70.3372 101.126 70.7799 100.798 71.1063C100.471 71.4327 100.026 71.6161 99.5631 71.6161Z" fill="url(#paint28_linear)"/>
<path d="M99.5631 105.677C99.0998 105.677 98.6555 105.493 98.3279 105.167C98.0004 104.84 97.8164 104.398 97.8164 103.936V99.557C97.8164 99.0953 98.0004 98.6526 98.3279 98.3262C98.6555 97.9998 99.0998 97.8164 99.5631 97.8164C100.026 97.8164 100.471 97.9998 100.798 98.3262C101.126 98.6526 101.31 99.0953 101.31 99.557V103.936C101.31 104.398 101.126 104.84 100.798 105.167C100.471 105.493 100.026 105.677 99.5631 105.677Z" fill="url(#paint29_linear)"/>
<defs>
<linearGradient id="paint0_linear" x1="177236" y1="50078.6" x2="192564" y2="50078.6" gradientUnits="userSpaceOnUse">
<stop stop-color="#FF059D"/>
<stop offset="0.45" stop-color="#FF9841"/>
<stop offset="1" stop-color="#FFF904"/>
</linearGradient>
<linearGradient id="paint1_linear" x1="177237" y1="37038.2" x2="192565" y2="37038.2" gradientUnits="userSpaceOnUse">
<stop stop-color="#1A58FF"/>
<stop offset="0.05" stop-color="#1963FF"/>
<stop offset="0.23" stop-color="#1685FF"/>
<stop offset="0.42" stop-color="#13A0FF"/>
<stop offset="0.6" stop-color="#11B3FF"/>
<stop offset="0.8" stop-color="#10BEFF"/>
<stop offset="1" stop-color="#10C2FF"/>
</linearGradient>
<linearGradient id="paint2_linear" x1="129845" y1="30716.7" x2="137879" y2="30716.7" gradientUnits="userSpaceOnUse">
<stop stop-color="#E3F24C"/>
<stop offset="0.2" stop-color="#CAED62"/>
<stop offset="1" stop-color="#64D8BC"/>
</linearGradient>
<linearGradient id="paint3_linear" x1="105524" y1="23618" x2="100889" y2="18420.5" gradientUnits="userSpaceOnUse">
<stop stop-color="#FF059D"/>
<stop offset="0.45" stop-color="#FF9841"/>
<stop offset="1" stop-color="#FFF904"/>
</linearGradient>
<linearGradient id="paint4_linear" x1="20369.6" y1="15876.8" x2="20395.2" y2="15911.2" gradientUnits="userSpaceOnUse">
<stop stop-color="#E3F24C"/>
<stop offset="0.2" stop-color="#CAED62"/>
<stop offset="1" stop-color="#64D8BC"/>
</linearGradient>
<linearGradient id="paint5_linear" x1="20378.8" y1="15842.9" x2="20404.4" y2="15877.3" gradientUnits="userSpaceOnUse">
<stop stop-color="#E3F24C"/>
<stop offset="0.2" stop-color="#CAED62"/>
<stop offset="1" stop-color="#64D8BC"/>
</linearGradient>
<linearGradient id="paint6_linear" x1="20340" y1="15884.5" x2="20365.5" y2="15919" gradientUnits="userSpaceOnUse">
<stop stop-color="#E3F24C"/>
<stop offset="0.2" stop-color="#CAED62"/>
<stop offset="1" stop-color="#64D8BC"/>
</linearGradient>
<linearGradient id="paint7_linear" x1="20349.2" y1="15850.6" x2="20374.8" y2="15885" gradientUnits="userSpaceOnUse">
<stop stop-color="#E3F24C"/>
<stop offset="0.2" stop-color="#CAED62"/>
<stop offset="1" stop-color="#64D8BC"/>
</linearGradient>
<linearGradient id="paint8_linear" x1="20388.6" y1="15808.2" x2="20414.2" y2="15842.6" gradientUnits="userSpaceOnUse">
<stop stop-color="#FFF904"/>
<stop offset="0.55" stop-color="#FF9841"/>
<stop offset="1" stop-color="#FF059D"/>
</linearGradient>
<linearGradient id="paint9_linear" x1="20398.1" y1="15774.2" x2="20423.7" y2="15808.6" gradientUnits="userSpaceOnUse">
<stop stop-color="#FFF904"/>
<stop offset="0.55" stop-color="#FF9841"/>
<stop offset="1" stop-color="#FF059D"/>
</linearGradient>
<linearGradient id="paint10_linear" x1="20359" y1="15815.9" x2="20384.6" y2="15850.3" gradientUnits="userSpaceOnUse">
<stop stop-color="#FFF904"/>
<stop offset="0.55" stop-color="#FF9841"/>
<stop offset="1" stop-color="#FF059D"/>
</linearGradient>
<linearGradient id="paint11_linear" x1="20368.5" y1="15781.9" x2="20394.1" y2="15816.3" gradientUnits="userSpaceOnUse">
<stop stop-color="#FFF904"/>
<stop offset="0.55" stop-color="#FF9841"/>
<stop offset="1" stop-color="#FF059D"/>
</linearGradient>
<linearGradient id="paint12_linear" x1="83075.4" y1="65240.3" x2="83075.4" y2="65089.7" gradientUnits="userSpaceOnUse">
<stop stop-color="#10C2FF"/>
<stop offset="0.2" stop-color="#10BEFF"/>
<stop offset="0.4" stop-color="#11B3FF"/>
<stop offset="0.58" stop-color="#13A0FF"/>
<stop offset="0.77" stop-color="#1685FF"/>
<stop offset="0.95" stop-color="#1963FF"/>
<stop offset="1" stop-color="#1A58FF"/>
</linearGradient>
<linearGradient id="paint13_linear" x1="20257.1" y1="15933.7" x2="20257.1" y2="15918.2" gradientUnits="userSpaceOnUse">
<stop stop-color="#10C2FF"/>
<stop offset="0.2" stop-color="#10BEFF"/>
<stop offset="0.4" stop-color="#11B3FF"/>
<stop offset="0.58" stop-color="#13A0FF"/>
<stop offset="0.77" stop-color="#1685FF"/>
<stop offset="0.95" stop-color="#1963FF"/>
<stop offset="1" stop-color="#1A58FF"/>
</linearGradient>
<linearGradient id="paint14_linear" x1="1709.34" y1="15991.3" x2="1683.75" y2="16025.7" gradientUnits="userSpaceOnUse">
<stop stop-color="#E3F24C"/>
<stop offset="0.2" stop-color="#CAED62"/>
<stop offset="1" stop-color="#64D8BC"/>
</linearGradient>
<linearGradient id="paint15_linear" x1="1699.9" y1="15957.3" x2="1674.31" y2="15991.7" gradientUnits="userSpaceOnUse">
<stop stop-color="#E3F24C"/>
<stop offset="0.2" stop-color="#CAED62"/>
<stop offset="1" stop-color="#64D8BC"/>
</linearGradient>
<linearGradient id="paint16_linear" x1="1739.18" y1="15983" x2="1713.59" y2="16017.5" gradientUnits="userSpaceOnUse">
<stop stop-color="#E3F24C"/>
<stop offset="0.2" stop-color="#CAED62"/>
<stop offset="1" stop-color="#64D8BC"/>
</linearGradient>
<linearGradient id="paint17_linear" x1="1729.74" y1="15949.1" x2="1704.15" y2="15983.5" gradientUnits="userSpaceOnUse">
<stop stop-color="#E3F24C"/>
<stop offset="0.2" stop-color="#CAED62"/>
<stop offset="1" stop-color="#64D8BC"/>
</linearGradient>
<linearGradient id="paint18_linear" x1="1690.25" y1="15922.6" x2="1664.67" y2="15957" gradientUnits="userSpaceOnUse">
<stop stop-color="#FFF904"/>
<stop offset="0.55" stop-color="#FF9841"/>
<stop offset="1" stop-color="#FF059D"/>
</linearGradient>
<linearGradient id="paint19_linear" x1="1680.83" y1="15888.6" x2="1655.24" y2="15923" gradientUnits="userSpaceOnUse">
<stop stop-color="#FFF904"/>
<stop offset="0.55" stop-color="#FF9841"/>
<stop offset="1" stop-color="#FF059D"/>
</linearGradient>
<linearGradient id="paint20_linear" x1="1720.11" y1="15914.4" x2="1694.52" y2="15948.8" gradientUnits="userSpaceOnUse">
<stop stop-color="#FFF904"/>
<stop offset="0.55" stop-color="#FF9841"/>
<stop offset="1" stop-color="#FF059D"/>
</linearGradient>
<linearGradient id="paint21_linear" x1="1710.67" y1="15880.4" x2="1685.08" y2="15914.8" gradientUnits="userSpaceOnUse">
<stop stop-color="#FFF904"/>
<stop offset="0.55" stop-color="#FF9841"/>
<stop offset="1" stop-color="#FF059D"/>
</linearGradient>
<linearGradient id="paint22_linear" x1="5652.84" y1="65313.5" x2="5652.84" y2="65163" gradientUnits="userSpaceOnUse">
<stop stop-color="#10C2FF"/>
<stop offset="0.2" stop-color="#10BEFF"/>
<stop offset="0.4" stop-color="#11B3FF"/>
<stop offset="0.58" stop-color="#13A0FF"/>
<stop offset="0.77" stop-color="#1685FF"/>
<stop offset="0.95" stop-color="#1963FF"/>
<stop offset="1" stop-color="#1A58FF"/>
</linearGradient>
<linearGradient id="paint23_linear" x1="1821.88" y1="15979.9" x2="1821.88" y2="15964.5" gradientUnits="userSpaceOnUse">
<stop stop-color="#10C2FF"/>
<stop offset="0.2" stop-color="#10BEFF"/>
<stop offset="0.4" stop-color="#11B3FF"/>
<stop offset="0.58" stop-color="#13A0FF"/>
<stop offset="0.77" stop-color="#1685FF"/>
<stop offset="0.95" stop-color="#1963FF"/>
<stop offset="1" stop-color="#1A58FF"/>
</linearGradient>
<linearGradient id="paint24_linear" x1="-728.475" y1="-31.1694" x2="-724.903" y2="-36.4517" gradientUnits="userSpaceOnUse">
<stop stop-color="#1A58FF"/>
<stop offset="0.05" stop-color="#1963FF"/>
<stop offset="0.23" stop-color="#1685FF"/>
<stop offset="0.42" stop-color="#13A0FF"/>
<stop offset="0.6" stop-color="#11B3FF"/>
<stop offset="0.8" stop-color="#10BEFF"/>
<stop offset="1" stop-color="#10C2FF"/>
</linearGradient>
<linearGradient id="paint25_linear" x1="74439.1" y1="14193.3" x2="72605.3" y2="15876.8" gradientUnits="userSpaceOnUse">
<stop stop-color="#E3F24C"/>
<stop offset="0.2" stop-color="#CAED62"/>
<stop offset="1" stop-color="#64D8BC"/>
</linearGradient>
<linearGradient id="paint26_linear" x1="12651.1" y1="1224.77" x2="12634" y2="1260.1" gradientUnits="userSpaceOnUse">
<stop stop-color="#E3F24C"/>
<stop offset="0.2" stop-color="#CAED62"/>
<stop offset="1" stop-color="#64D8BC"/>
</linearGradient>
<linearGradient id="paint27_linear" x1="14460.6" y1="1224.77" x2="14444.7" y2="1261.38" gradientUnits="userSpaceOnUse">
<stop stop-color="#E3F24C"/>
<stop offset="0.2" stop-color="#CAED62"/>
<stop offset="1" stop-color="#64D8BC"/>
</linearGradient>
<linearGradient id="paint28_linear" x1="5757.87" y1="2470.1" x2="5724.92" y2="2483.54" gradientUnits="userSpaceOnUse">
<stop stop-color="#E3F24C"/>
<stop offset="0.2" stop-color="#CAED62"/>
<stop offset="1" stop-color="#64D8BC"/>
</linearGradient>
<linearGradient id="paint29_linear" x1="5757.87" y1="2831.46" x2="5724.92" y2="2844.9" gradientUnits="userSpaceOnUse">
<stop stop-color="#E3F24C"/>
<stop offset="0.2" stop-color="#CAED62"/>
<stop offset="1" stop-color="#64D8BC"/>
</linearGradient>
</defs>
</svg>
