<svg width="200" height="200" viewBox="0 0 200 200" fill="none" xmlns="http://www.w3.org/2000/svg">
<path d="M161.285 132.964V133.071C160.559 134.262 159.809 135.536 159.047 136.643V136.905L155.476 134.524L155.559 134.417C156.285 133.321 157.011 132.167 157.678 131.012V130.905L161.285 132.964ZM156.583 140.107L156.523 140.19C155.666 141.381 154.762 142.476 153.869 143.548L153.785 143.631L150.607 140.94L150.678 140.857C151.547 139.821 152.392 138.75 153.202 137.679V137.595L156.583 140.107ZM151.178 146.762H150.952C150 147.762 149.023 148.726 148.011 149.679L148.119 149.786H147.821L145.107 146.762C146.071 145.869 147.047 144.893 147.976 143.929L148.059 143.845L151.178 146.762ZM144.785 152.5L144.702 152.571C143.583 153.488 142.44 154.369 141.309 155.19H141.226L138.773 151.821L138.857 151.762C139.964 150.964 141.047 150.119 142.059 149.286L142.143 149.214L144.785 152.5ZM137.833 157.548L137.75 157.619C136.559 158.369 135.369 159.107 134.059 159.798H133.976L131.964 156.143H132.047C133.238 155.476 134.392 154.786 135.511 154.071H135.595L137.833 157.548ZM66.4044 155.702L64.3567 159.274H64.2853L64.2257 159.357C63.0353 158.655 61.7734 157.881 60.6543 157.119L60.5711 157.059L62.8449 153.583H62.9282C64.0234 154.309 65.1782 155.036 66.3806 155.714L66.4044 155.702ZM59.6544 151.274L57.1663 154.607H56.94V154.536C55.8329 153.679 54.7377 152.833 53.6901 151.94H53.5234V151.857L53.3805 151.726H53.6306L56.2377 148.69H56.4877L56.3806 148.786C57.3686 149.619 58.4043 150.44 59.4519 151.167L59.6544 151.274ZM53.4995 146.059L50.5949 149.083L50.5353 149C49.5115 148.024 48.4758 146.988 47.5116 145.929V145.869L50.6662 142.929V143.143C51.571 144.107 52.5235 145.059 53.4878 146L53.4995 146.059ZM47.9996 140.107L44.7734 142.75V142.667C43.8448 141.548 42.9639 140.417 42.1306 139.274V139.19L45.5115 136.738V136.821C46.3091 137.94 47.1544 139.012 47.9759 140.024L47.9996 140.107ZM43.2376 133.583L39.7377 135.809L39.6662 135.726C38.94 134.536 38.2259 133.345 37.5592 132.155L37.4639 132.238V131.917L41.0353 129.94L41.1068 130.024C41.7497 131.214 42.4639 132.405 43.1544 133.488L43.2376 133.583Z" fill="url(#paint0_linear)"/>
<path d="M124.418 161.428H75.608V151.666C74.6199 141.785 72.6079 134.047 69.2746 127.333C67.8051 124.463 66.1715 121.681 64.3818 118.999C60.1437 112.404 56.1318 106.178 56.1318 93.297C56.1318 81.659 60.755 70.4977 68.9842 62.2685C77.2135 54.0392 88.3748 49.416 100.013 49.416C111.651 49.416 122.812 54.0392 131.041 62.2685C139.271 70.4977 143.894 81.659 143.894 93.297C143.894 105.38 138.12 115.047 133.894 122.118L132.703 124.178C126.251 133.94 125.751 138.845 124.537 150.714L124.465 151.452L124.418 161.428ZM81.5604 155.476H118.465L118.572 150.118C119.763 137.999 120.429 131.904 127.644 120.964L128.834 119.071C132.703 112.595 137.989 103.737 137.989 93.3089C137.989 83.2527 133.994 73.6085 126.883 66.4977C119.773 59.387 110.128 55.3922 100.072 55.3922C90.0161 55.3922 80.372 59.387 73.2612 66.4977C66.1505 73.6085 62.1556 83.2527 62.1556 93.3089C62.1556 104.44 65.3818 109.452 69.4532 115.785C71.3725 118.65 73.1178 121.627 74.6794 124.702C78.358 132.118 80.5603 140.547 81.6198 151.237V155.476H81.5604Z" fill="url(#paint1_linear)"/>
<path d="M104.488 196.93H95.5002C93.1563 196.923 90.9109 195.987 89.2569 194.326C87.6029 192.666 86.6756 190.416 86.6787 188.073V180.93H113.334V188.073C113.33 190.419 112.398 192.668 110.74 194.328C109.082 195.988 106.834 196.923 104.488 196.93ZM92.5836 186.727V188.096C92.582 188.487 92.6574 188.875 92.8055 189.236C92.9536 189.598 93.1715 189.927 93.4468 190.204C93.7221 190.482 94.0493 190.702 94.4098 190.853C94.7703 191.004 95.157 191.083 95.5479 191.084H104.536C104.928 191.084 105.316 191.007 105.678 190.857C106.04 190.706 106.368 190.486 106.645 190.209C106.921 189.931 107.14 189.601 107.289 189.239C107.438 188.876 107.514 188.488 107.512 188.096V186.751L92.5836 186.727Z" fill="url(#paint2_linear)"/>
<path d="M99.9989 40.4765C99.2211 40.4734 98.4762 40.1622 97.9274 39.6111C97.3785 39.06 97.0704 38.3139 97.0704 37.5361V21.2861C97.0448 20.885 97.1018 20.4829 97.2377 20.1047C97.3736 19.7265 97.5855 19.3801 97.8605 19.087C98.1355 18.7939 98.4677 18.5603 98.8365 18.4007C99.2053 18.241 99.603 18.1586 100.005 18.1586C100.407 18.1586 100.804 18.241 101.173 18.4007C101.542 18.5603 101.874 18.7939 102.149 19.087C102.424 19.3801 102.636 19.7265 102.772 20.1047C102.908 20.4829 102.965 20.885 102.939 21.2861V37.5599C102.93 38.3346 102.617 39.0746 102.066 39.6203C101.516 40.1659 100.774 40.4735 99.9989 40.4765V40.4765ZM99.9989 13.2741C99.2222 13.2741 98.4773 12.9656 97.9281 12.4164C97.3789 11.8672 97.0704 11.1223 97.0704 10.3456V6.01225C97.0448 5.61116 97.1018 5.20909 97.2377 4.83087C97.3736 4.45264 97.5855 4.1063 97.8605 3.81321C98.1355 3.52013 98.4677 3.28653 98.8365 3.12684C99.2053 2.96715 99.603 2.88477 100.005 2.88477C100.407 2.88477 100.804 2.96715 101.173 3.12684C101.542 3.28653 101.874 3.52013 102.149 3.81321C102.424 4.1063 102.636 4.45264 102.772 4.83087C102.908 5.20909 102.965 5.61116 102.939 6.01225V10.3694C102.936 11.1472 102.625 11.8921 102.074 12.4409C101.523 12.9898 100.777 13.298 99.9989 13.298V13.2741Z" fill="black"/>
<path d="M68.2978 50.0956C67.8356 50.0965 67.3796 49.9893 66.9662 49.7826C66.5528 49.5759 66.1934 49.2754 65.9168 48.9051L56.393 35.7265C55.9368 35.0951 55.75 34.3082 55.8739 33.5391C55.9978 32.77 56.4223 32.0816 57.0538 31.6253C57.6853 31.1691 58.472 30.9824 59.2412 31.1063C60.0103 31.2302 60.6987 31.6546 61.1549 32.2861L70.6787 45.4527C70.9981 45.8905 71.1899 46.4083 71.2325 46.9485C71.2752 47.4887 71.167 48.0302 70.9202 48.5126C70.6735 48.9951 70.2977 49.3996 69.8347 49.6811C69.3717 49.9627 68.8397 50.1103 68.2978 50.1075V50.0956ZM52.2859 28.0956C51.8231 28.1003 51.3657 27.9948 50.9517 27.7878C50.5377 27.5808 50.1789 27.2782 49.905 26.9051L47.3335 23.3337C46.8773 22.7022 46.6905 21.9154 46.8144 21.1462C46.9383 20.3771 47.3627 19.6887 47.9941 19.2325C48.6256 18.7762 49.4125 18.5895 50.1817 18.7135C50.9508 18.8374 51.6392 19.2617 52.0954 19.8932L54.655 23.4646C54.9744 23.9024 55.166 24.4202 55.2086 24.9604C55.2513 25.5006 55.1433 26.0421 54.8965 26.5245C54.6497 27.007 54.2739 27.4115 53.8109 27.693C53.3479 27.9746 52.8159 28.1222 52.274 28.1194L52.2859 28.0956ZM47.8216 77.3813C47.5146 77.3795 47.2095 77.3314 46.9169 77.2384L31.4407 72.2027C31.0748 72.0831 30.7361 71.8927 30.4439 71.6422C30.1517 71.3917 29.9116 71.0861 29.7375 70.7428C29.5634 70.3996 29.4586 70.0254 29.4291 69.6417C29.3996 69.2579 29.446 68.8721 29.5656 68.5063C29.6852 68.1405 29.8757 67.8018 30.1262 67.5096C30.3767 67.2174 30.6822 66.9774 31.0255 66.8032C31.3687 66.6291 31.743 66.5243 32.1267 66.4948C32.5105 66.4653 32.8962 66.5117 33.262 66.6313L48.7382 71.6551C49.3967 71.8776 49.9552 72.3261 50.3145 72.9212C50.6737 73.5163 50.8105 74.2194 50.7006 74.9057C50.5907 75.5921 50.2414 76.2173 49.7143 76.6705C49.1872 77.1237 48.5167 77.3755 47.8216 77.3813V77.3813ZM21.9644 69.048C21.6572 69.0471 21.3521 68.9989 21.0596 68.9051L16.9049 67.5599C16.2095 67.2849 15.645 66.7554 15.3262 66.079C15.0074 65.4026 14.9584 64.6302 15.1889 63.9188C15.4194 63.2075 15.9123 62.6107 16.5673 62.2499C17.2222 61.8891 17.99 61.7913 18.7144 61.9765L22.8692 63.3337C23.5327 63.5489 24.0977 63.9939 24.4623 64.5885C24.827 65.1831 24.9673 65.8884 24.8582 66.5774C24.7491 67.2663 24.3977 67.8937 23.8672 68.3467C23.3367 68.7996 22.6619 69.0483 21.9644 69.048V69.048ZM15.6311 120.465C14.937 120.456 14.2684 120.202 13.7434 119.748C13.2184 119.294 12.8709 118.669 12.7626 117.983C12.6543 117.298 12.7919 116.596 13.1513 116.002C13.5107 115.408 14.0687 114.961 14.7263 114.738L18.8692 113.393C19.2439 113.225 19.65 113.137 20.0608 113.136C20.4717 113.135 20.8781 113.22 21.2539 113.386C21.6297 113.552 21.9662 113.795 22.2418 114.1C22.5174 114.405 22.7258 114.764 22.8535 115.154C22.9811 115.545 23.0252 115.958 22.9828 116.367C22.9404 116.775 22.8124 117.17 22.6073 117.526C22.4022 117.882 22.1246 118.191 21.7923 118.433C21.46 118.674 21.0806 118.844 20.6787 118.929L16.524 120.274C16.2373 120.376 15.9354 120.428 15.6311 120.429V120.465ZM30.1549 115.703C29.4608 115.694 28.7921 115.44 28.2671 114.986C27.7422 114.532 27.3948 113.907 27.2865 113.221C27.1782 112.536 27.3158 111.834 27.6752 111.24C28.0346 110.646 28.5924 110.199 29.2501 109.977L44.7263 104.953C45.4651 104.713 46.2691 104.776 46.9612 105.129C47.6533 105.482 48.1769 106.095 48.4169 106.834C48.6568 107.572 48.5933 108.376 48.2406 109.068C47.8878 109.761 47.2746 110.284 46.5358 110.524L31.0596 115.56C30.7826 115.65 30.4938 115.698 30.2025 115.703H30.1549ZM184.381 120.465C184.073 120.466 183.767 120.414 183.476 120.31L179.322 118.965C178.956 118.846 178.617 118.656 178.324 118.406C178.032 118.157 177.791 117.852 177.617 117.509C177.442 117.166 177.337 116.793 177.306 116.409C177.276 116.026 177.322 115.64 177.441 115.274C177.559 114.908 177.749 114.569 177.999 114.277C178.249 113.984 178.554 113.744 178.896 113.569C179.239 113.395 179.613 113.289 179.996 113.259C180.38 113.229 180.765 113.274 181.131 113.393L185.286 114.738C185.944 114.961 186.501 115.408 186.861 116.002C187.22 116.596 187.358 117.298 187.25 117.983C187.141 118.669 186.794 119.294 186.269 119.748C185.744 120.202 185.075 120.456 184.381 120.465V120.465ZM169.845 115.703C169.538 115.702 169.233 115.654 168.941 115.56L153.464 110.524C153.099 110.405 152.76 110.214 152.468 109.964C152.176 109.713 151.935 109.408 151.761 109.064C151.587 108.721 151.482 108.347 151.453 107.963C151.423 107.579 151.47 107.194 151.589 106.828C151.709 106.462 151.9 106.123 152.15 105.831C152.401 105.539 152.706 105.299 153.049 105.125C153.393 104.951 153.767 104.846 154.151 104.816C154.534 104.787 154.92 104.833 155.286 104.953L170.762 109.977C171.435 110.185 172.01 110.628 172.383 111.226C172.755 111.824 172.9 112.536 172.79 113.231C172.68 113.927 172.323 114.56 171.784 115.014C171.246 115.468 170.562 115.712 169.857 115.703H169.845ZM152.179 77.3813C151.485 77.3728 150.816 77.119 150.291 76.6649C149.766 76.2108 149.419 75.5856 149.31 74.9C149.202 74.2143 149.34 73.5125 149.699 72.9186C150.058 72.3248 150.616 71.8772 151.274 71.6551L166.75 66.6313C167.489 66.3913 168.293 66.4547 168.985 66.8075C169.677 67.1602 170.201 67.7734 170.441 68.5123C170.681 69.2511 170.617 70.0549 170.264 70.747C169.912 71.4391 169.298 71.9628 168.56 72.2027L153.083 77.2384C152.791 77.3323 152.486 77.3805 152.179 77.3813V77.3813ZM178.048 69.048C177.35 69.0483 176.675 68.7996 176.145 68.3467C175.614 67.8937 175.263 67.2663 175.154 66.5774C175.045 65.8884 175.185 65.1831 175.55 64.5885C175.915 63.9939 176.48 63.5489 177.143 63.3337L181.286 61.9765C181.66 61.8288 182.059 61.7592 182.461 61.772C182.863 61.7849 183.257 61.8799 183.621 62.0512C183.984 62.2224 184.309 62.4664 184.574 62.7679C184.84 63.0695 185.04 63.4223 185.164 63.8045C185.288 64.1867 185.332 64.5902 185.294 64.9901C185.256 65.3901 185.137 65.778 184.943 66.1299C184.749 66.4818 184.485 66.7902 184.167 67.0362C183.849 67.2821 183.485 67.4604 183.095 67.5599L179.012 68.8694C178.702 68.9806 178.377 69.0409 178.048 69.048ZM131.738 50.1313C131.118 50.1339 130.513 49.9378 130.012 49.5718C129.7 49.3462 129.435 49.0612 129.233 48.7332C129.031 48.4051 128.896 48.0404 128.835 47.66C128.774 47.2796 128.789 46.8909 128.878 46.5162C128.968 46.1416 129.131 45.7882 129.357 45.4765L138.881 32.3099C139.107 31.9972 139.392 31.7321 139.721 31.5297C140.049 31.3272 140.414 31.1915 140.795 31.1301C141.176 31.0688 141.565 31.083 141.94 31.1721C142.315 31.2611 142.67 31.4232 142.982 31.6492C143.295 31.8751 143.56 32.1603 143.763 32.4887C143.965 32.8171 144.101 33.1821 144.162 33.5629C144.223 33.9437 144.209 34.3329 144.12 34.7082C144.031 35.0836 143.869 35.4377 143.643 35.7503L134.119 48.9289C133.843 49.2977 133.483 49.5956 133.069 49.7984C132.655 50.0012 132.199 50.1031 131.738 50.0956V50.1313ZM147.714 28.1313C147.098 28.1339 146.497 27.9377 146 27.5718C145.687 27.3472 145.421 27.0627 145.218 26.7347C145.015 26.4067 144.879 26.0417 144.818 25.6608C144.757 25.2799 144.772 24.8908 144.863 24.5158C144.953 24.1409 145.117 23.7877 145.345 23.4765L147.917 19.9051C148.143 19.5924 148.428 19.3273 148.756 19.1249C149.085 18.9225 149.45 18.7867 149.831 18.7254C150.211 18.664 150.601 18.6783 150.976 18.7673C151.351 18.8564 151.705 19.0185 152.018 19.2444C152.331 19.4703 152.596 19.7556 152.798 20.0839C153.001 20.4123 153.136 20.7773 153.198 21.1581C153.259 21.539 153.245 21.9282 153.156 22.3035C153.067 22.6788 152.905 23.0329 152.679 23.3456L150.119 26.917C149.839 27.2884 149.475 27.5886 149.057 27.7933C148.64 27.9981 148.18 28.1016 147.714 28.0956V28.1313ZM100 40.4765C99.2224 40.4734 98.4775 40.1622 97.9286 39.6111C97.3797 39.06 97.0716 38.3139 97.0716 37.5361V21.2861C97.0461 20.885 97.103 20.4829 97.2389 20.1047C97.3748 19.7265 97.5867 19.3801 97.8617 19.087C98.1367 18.7939 98.4689 18.5603 98.8377 18.4007C99.2065 18.241 99.6042 18.1586 100.006 18.1586C100.408 18.1586 100.806 18.241 101.174 18.4007C101.543 18.5603 101.875 18.7939 102.15 19.087C102.425 19.3801 102.637 19.7265 102.773 20.1047C102.909 20.4829 102.966 20.885 102.941 21.2861V37.5599C102.931 38.3346 102.618 39.0746 102.068 39.6203C101.518 40.1659 100.775 40.4735 100 40.4765V40.4765ZM100 13.2742C99.2234 13.2742 98.4785 12.9656 97.9293 12.4164C97.3801 11.8672 97.0716 11.1223 97.0716 10.3456V6.01225C97.0461 5.61116 97.103 5.20909 97.2389 4.83087C97.3748 4.45264 97.5867 4.1063 97.8617 3.81321C98.1367 3.52013 98.4689 3.28653 98.8377 3.12684C99.2065 2.96715 99.6042 2.88477 100.006 2.88477C100.408 2.88477 100.806 2.96715 101.174 3.12684C101.543 3.28653 101.875 3.52013 102.15 3.81321C102.425 4.1063 102.637 4.45264 102.773 4.83087C102.909 5.20909 102.966 5.61116 102.941 6.01225V10.3694C102.937 11.1472 102.626 11.8921 102.075 12.4409C101.524 12.9898 100.778 13.298 100 13.298V13.2742Z" fill="url(#paint3_linear)"/>
<path d="M117.822 107.822C117.878 109.754 117.487 111.674 116.677 113.43C115.867 115.185 114.662 116.729 113.155 117.941C110.43 120.115 107.109 121.41 103.631 121.655V127.917H95.0954V121.262C89.7811 120.077 84.8985 117.444 80.9883 113.655L87.143 106.131C92.131 110.477 96.762 112.667 101.012 112.667C102.589 112.792 104.16 112.372 105.464 111.477C105.988 111.107 106.411 110.614 106.696 110.04C106.98 109.466 107.118 108.831 107.095 108.191C107.111 107.539 106.964 106.894 106.667 106.314C106.369 105.733 105.932 105.237 105.393 104.87C103.266 103.686 100.963 102.85 98.5716 102.393C93.155 101.12 89.2264 99.4528 86.6669 97.3695C84.1074 95.2862 82.9168 92.0957 82.9168 87.7148C82.8258 85.7575 83.2116 83.8074 84.0411 82.0323C84.8706 80.2572 86.119 78.7101 87.6788 77.5243C89.8591 75.8964 92.3914 74.8035 95.0716 74.3338V68.0957H103.607V74.2147C105.374 74.4756 107.111 74.902 108.798 75.4886C111.75 76.4861 114.497 78.0108 116.905 79.9886L111.667 87.56C108.147 84.7064 103.78 83.099 99.2501 82.9886C97.7965 82.9056 96.3586 83.326 95.1787 84.179C94.701 84.5749 94.3198 85.0744 94.064 85.6396C93.8083 86.2048 93.6846 86.8208 93.7025 87.4409C93.6908 88.0879 93.8511 88.7263 94.1669 89.2911C94.4828 89.8558 94.9428 90.3265 95.5001 90.6552C96.6906 91.4648 99.5359 92.3933 103.917 93.4886C107.69 94.2374 111.217 95.915 114.179 98.3695C116.619 100.536 117.822 103.691 117.822 107.822Z" fill="url(#paint4_linear)"/>
<path d="M75.6426 155.523V178.297C75.6457 180.534 76.5363 182.678 78.1189 184.258C79.7014 185.838 81.8465 186.726 84.083 186.726H115.809C118.027 186.723 120.155 185.847 121.732 184.287C123.31 182.728 124.21 180.61 124.238 178.392L124.393 155.559L75.6426 155.523ZM118.5 161.381V165.916H81.595V161.381H118.5ZM81.5115 168H118.416V173.523H81.5115V168ZM115.821 180.869H84.0949C83.4118 180.869 82.7566 180.598 82.2724 180.116C81.7883 179.634 81.5147 178.98 81.5115 178.297V175.607H118.416V178.321C118.407 179.004 118.127 179.656 117.639 180.133C117.15 180.611 116.492 180.875 115.809 180.869H115.821Z" fill="url(#paint5_linear)"/>
<defs>
<linearGradient id="paint0_linear" x1="99.3924" y1="159.905" x2="99.3924" y2="130.012" gradientUnits="userSpaceOnUse">
<stop stop-color="#FF059D"/>
<stop offset="0.45" stop-color="#FF9841"/>
<stop offset="1" stop-color="#FFF904"/>
</linearGradient>
<linearGradient id="paint1_linear" x1="135716" y1="9969.19" x2="142186" y2="9969.19" gradientUnits="userSpaceOnUse">
<stop stop-color="#FF059D"/>
<stop offset="0.45" stop-color="#FF9841"/>
<stop offset="1" stop-color="#FFF904"/>
</linearGradient>
<linearGradient id="paint2_linear" x1="86.6787" y1="188.894" x2="113.334" y2="188.894" gradientUnits="userSpaceOnUse">
<stop stop-color="#E3F24C"/>
<stop offset="0.2" stop-color="#CAED62"/>
<stop offset="1" stop-color="#64D8BC"/>
</linearGradient>
<linearGradient id="paint3_linear" x1="263473" y1="6101.75" x2="289077" y2="6101.75" gradientUnits="userSpaceOnUse">
<stop stop-color="#E3F24C"/>
<stop offset="0.2" stop-color="#CAED62"/>
<stop offset="1" stop-color="#64D8BC"/>
</linearGradient>
<linearGradient id="paint4_linear" x1="57796.1" y1="4993.19" x2="58934.5" y2="4993.19" gradientUnits="userSpaceOnUse">
<stop stop-color="#E3F24C"/>
<stop offset="0.2" stop-color="#CAED62"/>
<stop offset="1" stop-color="#64D8BC"/>
</linearGradient>
<linearGradient id="paint5_linear" x1="75.6426" y1="171.119" x2="124.393" y2="171.119" gradientUnits="userSpaceOnUse">
<stop stop-color="#1A58FF"/>
<stop offset="0.05" stop-color="#1963FF"/>
<stop offset="0.23" stop-color="#1685FF"/>
<stop offset="0.42" stop-color="#13A0FF"/>
<stop offset="0.6" stop-color="#11B3FF"/>
<stop offset="0.8" stop-color="#10BEFF"/>
<stop offset="1" stop-color="#10C2FF"/>
</linearGradient>
</defs>
</svg>
