<svg width="329" height="537" viewBox="0 0 329 537" fill="none" xmlns="http://www.w3.org/2000/svg">
<g clip-path="url(#clip0)">
<path d="M82.0802 302.353C89.2141 302.835 96.3759 302.716 103.49 301.995C106.412 301.459 108.738 300.327 108.857 298.66C108.976 296.992 105.994 297.468 104.981 297.468C102.977 297.663 100.954 297.482 99.0169 296.932L107.485 295.383C110.527 294.847 110.765 291.571 108.439 291.511C106.114 291.452 101.879 292.107 99.4344 292.107C97.9003 292.102 96.3745 291.882 94.902 291.452C94.902 291.452 107.843 292.107 107.843 289.069C107.843 286.031 102.714 287.401 99.0766 287.58C95.4387 287.758 82.6766 287.58 82.6766 287.58L82.0802 302.353Z" fill="url(#paint0_radial)"/>
<path d="M99.9147 309.206H91.5656C88.5684 309.206 86.1387 306.779 86.1387 303.785V278.17C86.1387 275.176 88.5684 272.749 91.5656 272.749H99.9147C102.912 272.749 105.342 275.176 105.342 278.17V303.785C105.342 306.779 102.912 309.206 99.9147 309.206Z" fill="url(#paint1_linear)"/>
<path d="M87.6299 303.071V278.826C87.6299 276.26 89.7125 274.18 92.2815 274.18H99.259C101.828 274.18 103.911 276.26 103.911 278.826V303.071C103.911 305.637 101.828 307.717 99.259 307.717H92.2815C89.7125 307.717 87.6299 305.637 87.6299 303.071Z" fill="url(#paint2_linear)"/>
<path d="M101.288 288.953H90.3145V277.635H101.288V288.953Z" fill="url(#paint3_linear)"/>
<path d="M97.05 291.097C96.7535 291.105 96.4646 291.192 96.213 291.35C95.9614 291.507 95.7563 291.728 95.6187 291.99C95.5023 291.724 95.3104 291.497 95.0667 291.338C94.823 291.18 94.5381 291.096 94.2471 291.097C93.82 291.097 93.4105 291.266 93.1085 291.568C92.8065 291.869 92.6369 292.278 92.6369 292.705C92.6369 294.313 95.6187 296.339 95.6187 296.339C95.6187 296.339 98.6602 294.313 98.6602 292.705C98.6602 292.278 98.4905 291.869 98.1886 291.568C97.8866 291.266 97.477 291.097 97.05 291.097Z" fill="url(#paint4_linear)"/>
<path d="M78.5042 284.721C79.2145 283.362 80.2403 282.194 81.4958 281.313C82.7513 280.432 84.1999 279.864 85.7202 279.657C90.7893 279.121 96.9915 276.56 98.1842 277.87C99.377 279.181 96.8126 282.398 94.4271 282.993C92.0417 283.589 86.5551 285.138 85.4817 287.818C84.0713 290.779 82.037 293.4 79.518 295.503C78.0271 296.218 78.5042 284.721 78.5042 284.721Z" fill="url(#paint5_radial)"/>
<path d="M101.285 312.183C100.091 309.155 99.1733 306.024 98.5421 302.831C98.5421 301.163 94.4272 294.551 95.5603 293.062C96.6934 291.573 98.3036 293.062 99.6156 294.491L103.134 298.244C103.134 298.244 102.359 296.874 103.611 296.457C104.864 296.04 110.469 296.457 112.02 298.482C113.373 300.958 114.147 303.707 114.286 306.524C114.187 309.886 113.808 313.233 113.153 316.532C112.736 318.259 101.285 312.183 101.285 312.183Z" fill="url(#paint6_radial)"/>
<path d="M105.041 300.745C106.532 301.996 107.724 301.936 107.903 301.222C108.158 300.601 108.5 300.02 108.917 299.494L106.83 297.826C106.83 297.826 106.83 298.839 105.697 298.422C104.759 298.02 103.877 297.499 103.073 296.873C102.715 297.409 103.073 298.243 103.073 298.243C103.596 299.173 104.26 300.017 105.041 300.745Z" fill="url(#paint7_radial)"/>
<path d="M10.2814 248.683C1.03775 255.95 2.46902 265.362 2.64793 274.595C2.82684 283.828 -3.31571 301.222 4.97375 309.026C13.2632 316.829 35.6865 314.149 35.6865 314.149L10.2814 248.683Z" fill="url(#paint8_linear)"/>
<g style="mix-blend-mode:multiply" opacity="0.1">
<path d="M88.6431 530.799C57.9304 542.713 44.0947 533.539 23.0431 521.447C1.99146 509.354 -7.19252 498.87 15.7675 489.756C38.7275 480.642 60.6736 490.233 81.7253 502.325C102.777 514.418 105.341 524.425 88.6431 530.799Z" fill="black"/>
</g>
<path d="M12.429 502.682C11.761 505.442 11.761 508.321 12.429 511.081C13.7273 512.666 15.525 513.765 17.5288 514.197C19.5325 514.63 21.624 514.372 23.4617 513.464C27.8152 511.32 29.7235 506.792 31.3934 505.661C37.7753 503.968 43.8244 501.209 49.2843 497.5C56.2617 491.543 55.2479 485.05 48.3301 484.931C39.945 485.166 31.7083 487.197 24.1774 490.888C19.8294 494.365 15.8883 498.322 12.429 502.682Z" fill="#10054D"/>
<path d="M16.0049 509.058C18.6657 509.055 21.2997 508.527 23.7558 507.505C26.2119 506.482 28.4418 504.986 30.3177 503.101C33.2995 500.599 38.4879 501.91 45.2268 496.608C51.9657 491.306 54.3511 487.613 51.1904 485.826C43.355 484.053 35.1385 485.286 28.1708 489.281C19.4042 494.047 13.5598 497.442 13.5598 497.442C13.5598 497.442 11.4129 503.935 12.4864 505.365C13.5598 506.794 13.1424 508.462 16.0049 509.058Z" fill="url(#paint9_linear)"/>
<path d="M15.9461 359.897C13.5975 371.806 13.1747 384.014 14.6938 396.056C17.1985 416.309 13.2625 456.935 12.368 471.291C11.4734 485.647 6.4043 503.28 13.7992 507.032C17.023 508.132 20.5189 508.145 23.7507 507.069C26.9824 505.992 29.7715 503.887 31.6901 501.076C33.6841 499.211 35.278 496.961 36.3749 494.463C37.4719 491.964 38.049 489.269 38.0712 486.541C37.3556 485.29 36.2821 479.809 38.608 467.896C41.9563 451.349 44.1483 434.589 45.168 417.739C44.8102 408.327 41.4705 364.127 41.4705 364.127L15.9461 359.897Z" fill="url(#paint10_linear)"/>
<g style="mix-blend-mode:multiply">
<path d="M44.8711 417.739C43.8514 434.59 41.6594 451.349 38.3111 467.896C35.9853 479.81 37.0587 485.29 37.7744 486.541C37.414 490.777 35.9611 494.847 33.5572 498.355C31.1534 501.862 27.8806 504.688 24.058 506.556C28.5041 496.9 30.55 486.315 30.0217 475.7C30.0217 451.217 35.0907 420.062 35.9853 403.026C36.4027 393.018 34.0769 374.195 34.0769 362.102L41.0544 364.127C41.0544 364.127 44.5133 408.327 44.8711 417.739Z" fill="#D1D3D4"/>
</g>
<path d="M49.8783 523.711C49.8783 523.711 47.2543 531.396 50.4151 533.063C52.2774 534.06 54.3304 534.649 56.438 534.793C58.5457 534.937 60.6599 534.632 62.6405 533.897C65.6097 531.904 69.0361 530.695 72.5998 530.383C81.3427 528.242 89.494 524.171 96.4544 518.469C99.6151 514.478 96.4543 509.832 88.5227 510.427C81.3704 510.797 74.2434 511.552 67.1729 512.691C65.3838 513.108 49.8783 523.711 49.8783 523.711Z" fill="#10054D"/>
<path d="M53.3979 529.43C59.0854 529.717 64.7707 528.824 70.0961 526.809C76.9543 525.38 96.5151 517.457 96.1573 513.108C95.7994 508.76 91.2671 509.654 87.51 510.011C83.7529 510.368 71.6467 511.202 70.6925 511.202C69.7383 511.202 50.1179 520.078 50.1179 520.078C50.1179 520.078 48.6867 526.452 50.1179 527.405C51.5492 528.358 51.3703 529.192 53.3979 529.43Z" fill="url(#paint11_linear)"/>
<path d="M39.0249 365.198C36.201 373.666 36.201 382.821 39.0249 391.289C44.4123 409.824 47.4968 428.95 48.2089 448.237C48.2089 469.146 45.8831 523.234 49.1035 526.272C51.9537 527.963 55.1822 528.914 58.4947 529.039C61.8072 529.164 65.0983 528.458 68.0679 526.987C75.4628 521.566 79.4584 513.882 78.7428 511.201C78.0271 508.521 72.3617 498.93 74.27 490.471C76.1784 482.012 82.798 452.466 81.6053 432.451C80.4126 412.436 76.9537 360.075 76.9537 360.075L39.0249 365.198Z" fill="url(#paint12_linear)"/>
<path d="M57.2136 199.717C61.9249 202.04 66.6362 205.674 66.8747 217.588C67.1133 229.502 67.2325 235.101 64.9067 236.59C62.5809 238.08 60.7322 236.59 60.2551 239.926C60.0537 242.854 60.2139 245.795 60.7322 248.683L34.9096 242.726C35.9304 240.019 35.9304 237.034 34.9096 234.327C33.2995 230.038 25.8449 221.758 31.5104 209.606C33.8029 205.066 37.7033 201.54 42.4536 199.712C47.2038 197.885 52.4646 197.886 57.2136 199.717Z" fill="url(#paint13_radial)"/>
<path d="M67.1133 209.784C67.1133 212.047 65.8609 215.741 62.6406 215.741C61.9654 215.83 61.3166 216.06 60.7368 216.417C60.157 216.774 59.6594 217.249 59.2764 217.811C58.8935 218.374 58.6339 219.011 58.5148 219.681C58.3957 220.35 58.4197 221.038 58.5853 221.698C59.3009 223.485 58.5853 223.961 58.5853 223.961C58.5853 223.961 56.2595 223.008 55.186 224.914C54.1126 226.821 55.5438 230.871 56.2595 232.36C56.9751 233.85 51.6078 238.615 47.2544 238.973C43.0244 239.723 38.6664 238.873 35.0289 236.59C32.3087 233.703 30.3291 230.201 29.2593 226.384C28.1896 222.566 28.0616 218.546 28.8864 214.669C29.8377 209.258 32.8592 204.43 37.3115 201.206C41.7637 197.982 47.2973 196.614 52.7409 197.394C56.1389 197.68 59.359 199.033 61.9405 201.259C64.522 203.484 66.3326 206.468 67.1133 209.784Z" fill="url(#paint14_linear)"/>
<path d="M64.9688 255.473C64.9688 255.473 62.1658 245.703 56.3811 244.512C51.3924 244.247 46.4402 243.509 41.5913 242.308C39.1849 241.157 37.1271 239.389 35.6277 237.185C35.6277 237.185 31.1549 238.436 34.4349 242.427C37.7149 246.418 64.9688 255.473 64.9688 255.473Z" fill="url(#paint15_linear)"/>
<g style="mix-blend-mode:multiply">
<path d="M63.6566 361.862L77.0152 360.075C77.0152 360.075 80.4145 412.377 81.6668 432.451C82.9192 452.526 76.2996 481.953 74.3316 490.471C72.3635 498.99 78.0886 508.342 78.8043 511.201C78.4027 514.057 77.4172 516.8 75.9091 519.26C74.401 521.719 72.4024 523.843 70.0377 525.498C70.6634 515.212 70.444 504.891 69.3817 494.641C68.6064 485.467 75.3454 451.99 73.6159 432.034C72.0654 414.64 65.3265 372.525 63.6566 361.862Z" fill="#D1D3D4"/>
</g>
<path d="M43.4366 246.299C39.6754 244.937 36.0431 243.242 32.5828 241.236C28.2609 241.166 23.9388 241.365 19.6417 241.832C16.3285 242.303 13.3112 243.994 11.1818 246.573C9.05238 249.151 7.9646 252.432 8.13188 255.771C8.97234 266.787 10.7682 277.709 13.4992 288.414C16.3187 299.494 16.5229 311.077 14.0955 322.249C11.8293 334.64 4.01697 361.863 4.61333 364.782C6.84149 369.388 10.0337 373.463 13.9741 376.731C17.9146 379.999 22.5115 382.384 27.4541 383.724C42.9595 389.145 68.7821 390.456 79.2185 378.542C89.6548 366.628 75.2824 330.887 74.6861 310.634C74.0897 290.38 82.2599 276.798 73.7915 266.434C67.7211 258.439 59.5741 252.259 50.2352 248.563C47.922 247.957 45.6509 247.201 43.4366 246.299Z" fill="url(#paint16_linear)"/>
<g style="mix-blend-mode:multiply">
<path d="M65.7435 256.366C62.8608 252.272 58.6454 249.304 53.8163 247.967C48.0853 247.406 42.4957 245.854 37.297 243.38C33.8977 240.878 33.5399 238.793 33.5399 238.793L26.6221 241.355C26.6221 243.985 27.5294 246.535 29.1914 248.574C30.8534 250.614 33.1684 252.02 35.7465 252.554C45.4076 255.532 56.3806 255.354 63.4177 259.464C67.2643 261.658 70.8806 264.232 74.2119 267.148L65.7435 256.366Z" fill="#D1D3D4"/>
</g>
<path d="M65.7435 256.366C62.8608 252.272 58.6454 249.304 53.8163 247.967C48.0853 247.406 42.4957 245.854 37.297 243.38C33.8977 240.878 33.5399 238.793 33.5399 238.793L26.6221 241.355C26.6221 241.355 26.6221 248.086 36.4025 251.065C46.1828 254.043 58.7661 254.817 64.9683 259.464C68.2119 261.824 71.2995 264.391 74.2119 267.148L65.7435 256.366Z" fill="url(#paint17_linear)"/>
<path style="mix-blend-mode:color-dodge" d="M27.1567 240.818C27.1567 242.188 28.4687 247.669 36.9371 250.23C46.5982 253.209 59.3007 254.043 65.4433 258.629C67.7691 260.357 69.6178 261.906 71.4069 263.097L74.3291 266.909C71.4167 264.152 68.3291 261.585 65.0855 259.225C59.1218 254.579 46.2404 253.745 36.5196 250.826C26.7989 247.907 26.7393 241.116 26.7393 241.116L27.1567 240.818Z" fill="url(#paint18_radial)"/>
<g style="mix-blend-mode:multiply">
<path d="M54.7685 273.702C61.4478 263.813 71.0493 271.736 77.9074 278.407C76.6214 287.332 75.8251 296.321 75.522 305.333C76.1184 325.467 89.6558 366.569 79.2195 378.543C72.9802 384.319 64.7662 387.494 56.2594 387.418C57.1766 382.038 57.7741 376.607 58.0486 371.156C58.8238 353.822 53.6354 344.231 51.4885 320.999C49.3416 297.767 46.1213 286.568 54.7685 273.702Z" fill="#D1D3D4"/>
</g>
<g style="mix-blend-mode:multiply">
<path d="M28.7651 215.74C32.2532 218.399 36.3546 220.14 40.6924 220.803C46.658 221.784 52.7669 221.439 58.5833 219.79C58.4044 220.413 58.4044 221.074 58.5833 221.697C59.2989 223.484 58.5833 223.96 58.5833 223.96C58.5833 223.96 56.2575 223.007 55.184 224.913C54.1106 226.82 55.5418 230.87 56.2575 232.359C56.9731 233.849 51.6058 238.614 47.2524 238.972C43.0224 239.722 38.6643 238.872 35.0269 236.589C32.4403 233.834 30.5286 230.517 29.4421 226.9C28.3556 223.282 28.1238 219.462 28.7651 215.74Z" fill="#D1D3D4"/>
</g>
<path d="M62.1656 263.573C59.8183 263.819 57.559 264.601 55.5625 265.858C53.5661 267.116 51.886 268.815 50.6523 270.825C49.4185 272.835 48.6642 275.101 48.4476 277.448C48.2311 279.796 48.5581 282.162 49.4034 284.363C52.7431 295.86 66.8172 325.346 73.258 331.541C76.0339 334.637 79.8033 336.67 83.9177 337.29C88.0321 337.91 92.234 337.078 95.8005 334.937C104.209 330.35 113.095 326.955 113.691 320.045C113.502 316.745 112.232 313.599 110.077 311.091C107.922 308.583 105.001 306.852 101.764 306.165C97.4703 306.165 89.8369 310.454 88.0478 308.846C86.2587 307.237 80.4143 285.971 78.2674 279.061C76.1205 272.151 73.0194 262.322 62.1656 263.573Z" fill="url(#paint19_linear)"/>
<path d="M252.52 84.3913L116.608 6.17743C108.677 1.70977 101.878 6.59441 101.878 17.1977V44.8971C101.97 50.2905 103.323 55.5877 105.829 60.366C108.335 65.1443 111.924 69.2714 116.31 72.4179L146.486 90.2886L157.519 122.754L168.611 103.036L252.102 150.691C260.034 155.278 266.534 150.393 266.534 139.79V111.912C266.49 106.554 265.202 101.28 262.77 96.504C260.338 91.7283 256.829 87.5819 252.52 84.3913Z" fill="url(#paint20_linear)"/>
<path d="M173.387 105.359L168.914 102.798L157.881 122.515L166.707 117.333L173.387 105.359Z" fill="url(#paint21_linear)"/>
<path d="M259.915 80.0422L124.063 1.94753C122.768 1.03568 121.261 0.469513 119.685 0.302712C118.109 0.135911 116.516 0.374009 115.058 0.994425L107.126 5.64079C108.608 4.86492 110.272 4.50501 111.942 4.59942C113.612 4.69384 115.225 5.23903 116.609 6.17691L252.52 84.3907C256.906 87.5373 260.495 91.6644 263.001 96.4427C265.507 101.221 266.86 106.518 266.952 111.912V139.611C267.131 141.624 266.86 143.651 266.159 145.547C265.457 147.443 264.343 149.159 262.897 150.572L267.31 147.653C269.574 146.509 271.45 144.723 272.702 142.519C273.953 140.315 274.526 137.79 274.347 135.262V107.444C274.25 102.068 272.895 96.7896 270.388 92.0312C267.882 87.2729 264.295 83.1669 259.915 80.0422Z" fill="url(#paint22_linear)"/>
<path style="mix-blend-mode:color-dodge" d="M253.298 83.6164L117.446 5.64089C115.995 4.5479 114.241 3.93214 112.424 3.87879C110.608 3.82543 108.82 4.33711 107.308 5.34305C108.702 4.89782 110.181 4.77908 111.628 4.996C113.076 5.21292 114.455 5.75969 115.657 6.59399L251.568 84.6291C255.954 87.7757 259.544 91.9028 262.049 96.6811C264.555 101.459 265.908 106.757 266 112.15V139.909C266.185 141.97 265.895 144.046 265.15 145.977C264.406 147.909 263.228 149.644 261.706 151.048C265.344 149.678 267.67 145.389 267.67 139.135V111.197C267.608 105.796 266.275 100.485 263.778 95.6938C261.281 90.9026 257.691 86.7653 253.298 83.6164Z" fill="url(#paint23_radial)"/>
<path style="mix-blend-mode:color-dodge" d="M272.5 88.9764C278.464 97.8522 278.762 107.681 273.752 110.957C268.743 114.234 259.917 109.647 254.192 100.771C248.467 91.8953 247.87 82.0664 252.939 78.7901C258.008 75.5139 266.715 80.1007 272.5 88.9764Z" fill="url(#paint24_radial)"/>
<path d="M157.162 63.7204C157.162 71.8813 152.928 77.1233 146.368 77.1233C143.414 77.0312 140.536 76.1687 138.019 74.6214C132.844 71.3033 128.526 66.8115 125.417 61.5117C122.308 56.2119 120.496 50.2538 120.128 44.1222C120.128 35.9613 124.362 30.7192 130.922 30.7192C133.879 30.7944 136.761 31.6582 139.271 33.2211C144.453 36.5322 148.776 41.0222 151.885 46.3235C154.995 51.6248 156.803 57.5865 157.162 63.7204ZM141.358 50.6748C141.426 51.5483 141.685 52.3963 142.118 53.1582C142.551 53.9201 143.147 54.5773 143.863 55.0829C145.294 55.8573 146.428 55.0829 146.428 53.5937C146.36 52.693 146.068 51.8234 145.579 51.064C145.089 50.3046 144.418 49.6793 143.625 49.2451C142.492 48.4112 141.358 49.0664 141.358 50.6748ZM131.041 44.7179C131.094 45.5938 131.353 46.4448 131.799 47.2008C132.245 47.9568 132.864 48.5962 133.606 49.0664C134.977 49.9004 136.11 49.0664 136.11 47.6368C136.043 46.7632 135.784 45.9153 135.351 45.1534C134.918 44.3914 134.322 43.7342 133.606 43.2287C132.174 42.5139 131.041 43.1095 131.041 44.7775V44.7179ZM148.515 64.6735L145.831 63.6608C145.659 64.1602 145.368 64.6107 144.984 64.9737C144.6 65.3368 144.133 65.6016 143.625 65.7457C142.868 65.9249 142.082 65.9378 141.32 65.7835C140.558 65.6293 139.838 65.3115 139.212 64.8522C135.519 62.3806 132.85 58.6557 131.697 54.3681L128.894 55.202C130.253 60.2081 133.364 64.5618 137.661 67.4732C139.1 68.3555 140.744 68.8483 142.432 68.9028C143.163 68.9163 143.891 68.7951 144.579 68.5454C145.492 68.2708 146.327 67.7812 147.011 67.1178C147.696 66.4544 148.212 65.6366 148.515 64.733V64.6735Z" fill="url(#paint25_linear)"/>
<path d="M205.349 90.7648C205.349 98.9257 201.114 104.227 194.554 104.227C191.596 104.112 188.719 103.229 186.205 101.666C181.038 98.3536 176.725 93.8712 173.617 88.5824C170.508 83.2937 168.692 77.3475 168.314 71.2262C168.314 63.0653 172.549 57.7637 179.109 57.7637C182.063 57.8558 184.941 58.7183 187.458 60.2656C192.63 63.5873 196.945 68.0799 200.053 73.379C203.162 78.678 204.976 84.6344 205.349 90.7648ZM181.494 76.23C182.925 77.0044 184.058 76.23 184.058 74.7408C184.016 73.8626 183.761 73.0078 183.314 72.2502C182.867 71.4927 182.243 70.855 181.494 70.3923C180.063 69.5583 178.93 70.3923 178.93 71.8219C179.038 72.7264 179.352 73.5941 179.848 74.3582C180.344 75.1224 181.009 75.7628 181.792 76.23H181.494ZM193.421 91.4796L181.494 84.927L180.063 87.4885L191.99 94.0411L193.421 91.4796ZM194.495 80.6977C194.428 79.8241 194.168 78.9762 193.735 78.2142C193.302 77.4523 192.706 76.7951 191.99 76.2896C190.559 75.5152 189.426 76.2896 189.426 77.7788C189.468 78.657 189.724 79.5118 190.17 80.2693C190.617 81.0269 191.242 81.6646 191.99 82.1273C193.481 82.9613 194.614 82.306 194.614 80.6977H194.495Z" fill="url(#paint26_linear)"/>
<path d="M252.045 117.153C252.045 125.314 247.751 130.616 241.191 130.616C238.316 130.499 235.521 129.637 233.081 128.114C227.905 124.796 223.588 120.304 220.479 115.004C217.37 109.705 215.558 103.746 215.19 97.6149C215.19 89.454 219.424 84.2119 225.984 84.2119C228.938 84.304 231.816 85.1665 234.333 86.7138C239.464 90.0495 243.739 94.5414 246.815 99.8283C249.892 105.115 251.683 111.049 252.045 117.153ZM236.182 104.167C236.256 105.046 236.524 105.897 236.968 106.659C237.411 107.422 238.019 108.076 238.746 108.576C240.177 109.35 241.31 108.576 241.31 107.086C241.268 106.208 241.012 105.353 240.566 104.596C240.119 103.838 239.494 103.201 238.746 102.738C237.315 101.904 236.182 102.559 236.182 104.167ZM225.924 98.2106C225.998 99.0891 226.267 99.9402 226.71 100.703C227.154 101.465 227.761 102.119 228.489 102.619C229.86 103.453 230.993 102.619 230.993 101.189C230.926 100.316 230.667 99.4675 230.234 98.7056C229.801 97.9437 229.205 97.2865 228.489 96.7809C227.117 96.0065 225.924 96.6022 225.924 98.2106ZM243.457 123.349C242.038 118.289 238.813 113.924 234.393 111.077C233.388 110.405 232.248 109.961 231.053 109.776C229.857 109.591 228.636 109.669 227.475 110.005C226.623 110.314 225.852 110.812 225.222 111.462C224.592 112.112 224.118 112.898 223.837 113.758L226.521 114.771C226.669 114.304 226.924 113.878 227.265 113.526C227.607 113.175 228.026 112.907 228.489 112.745C229.251 112.482 230.065 112.404 230.864 112.518C231.663 112.632 232.423 112.934 233.081 113.401C236.847 115.872 239.599 119.615 240.833 123.944L243.457 123.349Z" fill="url(#paint27_linear)"/>
<path d="M135.876 119.357L35.3884 61.3965C27.4567 56.8097 20.9564 61.3965 20.9564 72.2381V99.9971C21.0485 105.39 22.4014 110.688 24.9071 115.466C27.4129 120.244 31.0021 124.371 35.3884 127.518L46.4211 133.713L57.4538 166.238L68.4865 146.461L135.876 185.359C143.867 189.946 150.308 185.359 150.308 174.458V146.759C150.211 141.383 148.855 136.104 146.349 131.346C143.843 126.588 140.256 122.482 135.876 119.357Z" fill="url(#paint28_linear)"/>
<path d="M72.9609 149.081L68.4882 146.46L57.4555 166.237L66.2816 160.995L72.9609 149.081Z" fill="url(#paint29_linear)"/>
<path d="M143.333 114.889L42.8453 56.9286C41.5482 56.0225 40.0446 55.4551 38.4717 55.2782C36.8988 55.1013 35.3065 55.3206 33.8402 55.9159L25.9682 60.5027C27.4599 59.733 29.1364 59.3923 30.8107 59.5185C32.4849 59.6447 34.0912 60.2329 35.4504 61.2176L135.878 119.357C140.274 122.493 143.871 126.618 146.378 131.399C148.885 136.179 150.232 141.481 150.31 146.877V174.577C150.481 176.593 150.212 178.622 149.522 180.525C148.833 182.427 147.738 184.158 146.314 185.597L150.668 182.678C152.938 181.521 154.819 179.726 156.08 177.514C157.341 175.301 157.927 172.769 157.765 170.228V142.41C157.672 137.016 156.32 131.719 153.814 126.941C151.308 122.163 147.719 118.036 143.333 114.889Z" fill="url(#paint30_linear)"/>
<path style="mix-blend-mode:color-dodge" d="M136.711 118.583L36.2838 60.5627C34.8194 59.5016 33.069 58.9056 31.2606 58.8525C29.4523 58.7994 27.6698 59.2916 26.1456 60.2649C27.5418 59.833 29.0176 59.7211 30.4632 59.9377C31.9087 60.1543 33.2867 60.6937 34.4947 61.5158L134.922 119.357C139.387 122.486 143.045 126.628 145.595 131.443C148.146 136.258 149.516 141.61 149.593 147.057V174.756C149.802 176.828 149.522 178.92 148.776 180.865C148.031 182.809 146.84 184.552 145.299 185.955C148.997 184.585 151.263 179.998 151.263 174.041V146.104C151.157 140.7 149.786 135.396 147.259 130.617C144.732 125.838 141.12 121.717 136.711 118.583Z" fill="url(#paint31_radial)"/>
<path style="mix-blend-mode:color-dodge" d="M155.556 123.825C161.52 132.7 161.878 142.589 156.809 145.805C151.74 149.022 143.033 144.555 137.248 135.679C131.463 126.803 131.284 116.915 135.996 113.698C140.707 110.481 150.129 114.949 155.556 123.825Z" fill="url(#paint32_radial)"/>
<path d="M72.5414 134.308C72.972 134.309 73.3981 134.222 73.7937 134.052C74.1894 133.882 74.5461 133.634 74.8421 133.321C75.138 133.009 75.367 132.64 75.5149 132.236C75.6628 131.832 75.7265 131.402 75.7021 130.972C75.7603 130.597 75.7603 130.216 75.7021 129.841C76.3468 129.716 76.9213 129.355 77.3123 128.828C77.833 128.099 78.1048 127.222 78.0875 126.326C78.0884 125.552 77.9469 124.785 77.6701 124.063C78.3057 123.793 78.842 123.333 79.2051 122.746C79.5683 122.159 79.7404 121.475 79.6977 120.786C79.7151 119.393 79.321 118.025 78.5646 116.855C78.9465 116.474 79.2446 116.017 79.4397 115.515C79.6348 115.012 79.7227 114.474 79.6977 113.936C79.6397 112.617 79.2621 111.331 78.5973 110.19C77.9325 109.049 77.0004 108.086 75.881 107.383L64.4309 100.712V94.4568C64.3194 92.5912 63.77 90.778 62.8273 89.1637C61.8845 87.5494 60.5748 86.1793 59.004 85.1641C58.5773 84.8898 58.0801 84.7449 57.5727 84.7471C57.2566 84.7542 56.9454 84.8257 56.6579 84.957C56.3704 85.0884 56.1128 85.2769 55.9007 85.511C55.6886 85.7452 55.5265 86.0201 55.4244 86.3189C55.3222 86.6177 55.2821 86.9342 55.3065 87.249V93.2059C55.3588 93.6687 55.2995 94.1373 55.1335 94.5725C54.9675 95.0078 54.6997 95.397 54.3523 95.7078L47.5538 100.175V116.378C47.6287 117.578 47.9865 118.743 48.598 119.778C49.2095 120.813 50.0573 121.689 51.0723 122.335L70.3945 133.474C71.0236 133.937 71.7645 134.225 72.5414 134.308Z" fill="white"/>
<path d="M57.5154 86.2364C57.0383 86.2364 56.7401 86.5938 56.7401 87.2491V93.206C56.8039 93.9217 56.684 94.6418 56.3918 95.2984C56.0997 95.955 55.6449 96.5265 55.0703 96.9588L49.1067 100.95V116.378C49.1537 117.34 49.4332 118.275 49.9213 119.105C50.4095 119.935 51.0917 120.635 51.9096 121.144L58.4099 125.314L66.6398 130.079L71.0529 132.641C71.5044 132.908 72.0187 133.052 72.5438 133.058C73.498 133.058 74.1539 132.402 74.2136 131.151C74.2542 130.176 74.0274 129.208 73.5576 128.352C73.9607 128.572 74.4102 128.695 74.8696 128.709C75.8238 128.709 76.5394 127.935 76.5394 126.565C76.4587 125.093 75.8925 123.69 74.9292 122.573C75.3598 122.848 75.8514 123.011 76.3605 123.05C77.3743 123.05 78.0899 122.335 78.0899 121.025C78.0704 120.136 77.87 119.26 77.5009 118.451C77.1318 117.642 76.6018 116.917 75.943 116.319H76.4201C77.4339 116.319 78.0899 115.485 78.0899 114.115C78.0238 113.057 77.7152 112.029 77.1878 111.11C76.6604 110.19 75.9284 109.405 75.0485 108.813L63.1212 101.784V94.6356C63.0348 93.024 62.5684 91.4555 61.76 90.058C60.9517 88.6606 59.8243 87.4736 58.4696 86.5939C58.2341 86.5402 57.9895 86.5402 57.7539 86.5939L57.5154 86.2364ZM57.5154 83.258C58.2917 83.2508 59.055 83.4568 59.7219 83.8537C61.4928 85.0155 62.9587 86.5848 63.9965 88.4299C65.0342 90.275 65.6135 92.3419 65.6856 94.4569V99.8777L76.4201 105.835C77.7525 106.685 78.86 107.844 79.649 109.212C80.438 110.581 80.8851 112.12 80.9525 113.698C80.963 114.787 80.6742 115.858 80.1176 116.795C80.705 117.978 80.9918 119.288 80.9525 120.608C80.9671 121.355 80.814 122.096 80.5044 122.776C80.1948 123.456 79.7366 124.059 79.1634 124.539C79.2253 125.054 79.2253 125.574 79.1634 126.088C79.2057 126.972 79.0127 127.851 78.6041 128.635C78.1955 129.42 77.586 130.083 76.8376 130.556C76.8535 131.176 76.745 131.793 76.5183 132.37C76.2917 132.948 75.9516 133.474 75.518 133.918C75.0845 134.363 74.5663 134.715 73.994 134.956C73.4217 135.197 72.807 135.321 72.1859 135.321C71.1329 135.332 70.0986 135.042 69.2041 134.487L64.791 131.985L56.5612 127.22L49.9416 123.407C48.6727 122.624 47.6169 121.54 46.8679 120.252C46.1189 118.963 45.6998 117.51 45.6478 116.021V99.4607L47.0194 98.5672L52.983 94.5761C52.983 94.5761 52.983 94.1591 52.983 93.3251V87.3682C52.959 86.8577 53.038 86.3476 53.2152 85.8682C53.3925 85.3888 53.6645 84.9499 54.015 84.5775C54.3655 84.2052 54.7874 83.9071 55.2555 83.7009C55.7237 83.4947 56.2285 83.3846 56.7401 83.3771L57.5154 83.258Z" fill="#364F87"/>
<path d="M45.7634 118.105L38.4877 113.935C37.8686 113.494 37.3623 112.914 37.0099 112.241C36.6576 111.568 36.4692 110.822 36.4601 110.063V92.7878C36.4601 91.2986 37.3546 90.5838 38.4877 91.239L45.7634 95.528C46.386 95.965 46.8949 96.5446 47.2477 97.2181C47.6004 97.8917 47.7867 98.6398 47.791 99.3999V116.615C47.791 118.045 46.8965 118.76 45.7634 118.105Z" fill="#364F87"/>
<path d="M46.5389 119.833C46.9395 119.812 47.3313 119.708 47.69 119.529C48.0488 119.349 48.3667 119.098 48.624 118.791C48.8814 118.484 49.0726 118.127 49.1859 117.742C49.2991 117.358 49.3319 116.954 49.2822 116.557V99.3414C49.3048 98.309 49.0583 97.2884 48.5669 96.3799C48.0755 95.4713 47.3561 94.706 46.4793 94.1589L39.2036 89.9891C37.4742 88.9168 34.9695 89.6317 34.9695 92.7888V110.064C34.9777 111.076 35.2317 112.07 35.7095 112.963C36.1873 113.855 36.8747 114.618 37.7127 115.187L44.9884 119.356C45.456 119.645 45.9898 119.809 46.5389 119.833ZM37.9513 92.6697L44.9884 96.7204C45.383 97.0372 45.7045 97.4354 45.9309 97.8878C46.1573 98.3401 46.2833 98.8359 46.3004 99.3414V116.676L39.2036 112.625C38.8215 112.314 38.5116 111.924 38.2953 111.482C38.0791 111.04 37.9617 110.556 37.9513 110.064V92.6697Z" fill="#364F87"/>
<path d="M114.943 161.056C115.284 161.056 115.621 160.982 115.931 160.838C116.24 160.694 116.513 160.483 116.732 160.222C117.102 159.746 117.292 159.156 117.269 158.554V152.597C117.217 152.134 117.276 151.666 117.442 151.23C117.608 150.795 117.876 150.406 118.223 150.095L124.962 145.687V129.306C124.887 128.106 124.529 126.941 123.918 125.906C123.306 124.871 122.458 123.994 121.443 123.349L101.883 112.09C101.21 111.707 100.45 111.502 99.6761 111.495C99.243 111.494 98.8142 111.581 98.4155 111.75C98.0168 111.919 97.6564 112.167 97.3557 112.479C97.0551 112.79 96.8204 113.159 96.6658 113.563C96.5111 113.967 96.4397 114.398 96.4557 114.83C96.4277 115.207 96.4277 115.586 96.4557 115.962C95.7174 116.19 95.0788 116.662 94.6451 117.301C94.2115 117.94 94.0087 118.707 94.0703 119.477C94.093 120.248 94.2338 121.012 94.4877 121.74C93.8672 122.03 93.3447 122.494 92.9846 123.076C92.6244 123.658 92.4421 124.333 92.4601 125.017C92.5 126.402 92.8898 127.754 93.5932 128.948C93.2113 129.329 92.9132 129.786 92.7181 130.288C92.523 130.791 92.4351 131.329 92.4601 131.867C92.5283 133.192 92.9097 134.482 93.5731 135.631C94.2365 136.781 95.1631 137.757 96.2768 138.479L107.846 145.091V151.346C107.942 153.217 108.478 155.038 109.41 156.663C110.343 158.288 111.646 159.671 113.214 160.698C113.744 160.979 114.344 161.103 114.943 161.056Z" fill="white"/>
<path d="M99.9746 112.984C99.0204 112.984 98.3048 113.639 98.2451 114.89C98.25 115.868 98.4958 116.829 98.9607 117.69C98.5553 117.475 98.1072 117.353 97.6488 117.332C96.6349 117.332 95.9789 118.107 95.9789 119.477C96.0245 120.945 96.5717 122.353 97.5295 123.468C97.0988 123.202 96.6042 123.058 96.0982 123.051C95.144 123.051 94.4284 123.766 94.3688 125.076C94.4745 126.839 95.241 128.498 96.5157 129.723H95.9193C94.9055 129.723 94.1898 130.497 94.1898 131.867C94.2488 132.933 94.5607 133.97 95.1 134.892C95.6392 135.814 96.3902 136.594 97.2909 137.169L109.218 144.198V151.346C109.305 152.958 109.771 154.526 110.579 155.924C111.388 157.321 112.515 158.508 113.87 159.388H114.526C115.003 159.388 115.361 159.03 115.361 158.375V152.418C115.296 151.708 115.409 150.994 115.69 150.338C115.971 149.683 116.411 149.108 116.971 148.666L122.935 144.674V129.306C122.894 128.35 122.624 127.417 122.146 126.588C121.669 125.758 120.998 125.056 120.191 124.54L113.81 120.728L105.521 115.962L101.108 113.401C100.677 113.135 100.182 112.991 99.6764 112.984H99.9746ZM99.9746 110.005C101.004 110.027 102.011 110.314 102.897 110.839L107.31 113.401L115.599 118.166L122.219 121.979C123.469 122.763 124.508 123.841 125.245 125.118C125.983 126.395 126.398 127.832 126.453 129.306V146.342L125.141 147.236L119.178 151.227C119.091 151.639 119.091 152.065 119.178 152.478V158.435C119.193 158.948 119.107 159.46 118.923 159.939C118.739 160.419 118.461 160.857 118.106 161.229C117.751 161.6 117.325 161.897 116.854 162.103C116.383 162.308 115.875 162.418 115.361 162.426C114.604 162.425 113.862 162.219 113.214 161.83C111.436 160.676 109.965 159.108 108.926 157.261C107.887 155.415 107.312 153.344 107.25 151.227V145.806L96.5157 139.849C95.1652 139.013 94.0405 137.859 93.24 136.489C92.4394 135.118 91.9875 133.572 91.9237 131.986C91.9132 130.897 92.2019 129.826 92.7586 128.889C92.2216 127.688 91.9375 126.391 91.9237 125.076C91.926 124.34 92.087 123.614 92.3957 122.946C92.7044 122.277 93.1536 121.683 93.7128 121.204C93.6537 120.67 93.6537 120.13 93.7128 119.596C93.6761 118.72 93.8652 117.849 94.262 117.067C94.6588 116.284 95.25 115.617 95.9789 115.128C95.971 114.505 96.0871 113.887 96.3203 113.309C96.5535 112.731 96.8993 112.205 97.3376 111.762C97.7758 111.319 98.2979 110.967 98.8734 110.727C99.4489 110.486 100.066 110.363 100.69 110.363L99.9746 110.005Z" fill="#364F87"/>
<path d="M125.74 126.981L133.015 131.151C133.634 131.591 134.141 132.171 134.493 132.844C134.845 133.517 135.034 134.263 135.043 135.023V152.298C135.043 153.787 134.148 154.442 133.015 153.787L125.74 149.617C125.121 149.176 124.614 148.596 124.262 147.923C123.91 147.251 123.721 146.504 123.712 145.745V128.47C123.951 126.981 124.845 126.326 125.74 126.981Z" fill="#364F87"/>
<path d="M134.089 155.574C134.485 155.545 134.87 155.435 135.222 155.253C135.573 155.07 135.884 154.818 136.135 154.511C136.386 154.205 136.572 153.85 136.682 153.47C136.792 153.089 136.823 152.69 136.773 152.297V135.023C136.755 134.004 136.497 133.005 136.02 132.104C135.544 131.204 134.862 130.428 134.03 129.84L126.754 125.67C126.299 125.374 125.767 125.217 125.224 125.218C124.68 125.218 124.149 125.376 123.694 125.673C123.239 125.97 122.88 126.392 122.661 126.888C122.442 127.385 122.372 127.934 122.46 128.47V145.745C122.476 146.77 122.738 147.777 123.226 148.679C123.714 149.581 124.413 150.352 125.263 150.927L132.539 155.097C133.002 155.396 133.538 155.561 134.089 155.574ZM125.442 128.351L132.539 132.461C132.924 132.769 133.236 133.159 133.453 133.601C133.669 134.044 133.785 134.53 133.791 135.023V152.417L126.754 148.306C126.355 148.007 126.029 147.621 125.801 147.177C125.574 146.733 125.451 146.243 125.442 145.745V128.351Z" fill="#364F87"/>
<path d="M302.856 223.545L188.355 157.245C180.065 152.48 173.326 157.543 173.326 168.563V179.405C173.4 185.025 174.799 190.548 177.41 195.526C180.021 200.505 183.771 204.798 188.355 208.057L212.209 222.711L223.838 256.368L235.288 235.816L302.856 274.238C311.146 279.004 317.825 273.94 317.825 262.92V252.138C317.749 246.534 316.355 241.025 313.755 236.058C311.155 231.091 307.421 226.805 302.856 223.545Z" fill="url(#paint33_linear)"/>
<path d="M240 238.615L235.289 235.935L223.839 256.486L233.023 251.005L240 238.615Z" fill="url(#paint34_linear)"/>
<path d="M310.608 219.017L196.046 152.717C194.695 151.78 193.13 151.196 191.494 151.019C189.858 150.842 188.204 151.078 186.683 151.704L178.454 156.47C180.011 155.67 181.758 155.314 183.504 155.44C185.25 155.566 186.928 156.17 188.353 157.185L302.855 223.544C307.42 226.804 311.153 231.09 313.754 236.057C316.354 241.024 317.748 246.533 317.824 252.137V263.038C317.99 265.096 317.703 267.166 316.981 269.101C316.26 271.036 315.123 272.789 313.649 274.237L318.241 271.259C320.56 270.061 322.485 268.223 323.785 265.962C325.086 263.702 325.708 261.115 325.577 258.511V247.61C325.501 242.005 324.107 236.497 321.506 231.53C318.906 226.563 315.173 222.277 310.608 219.017Z" fill="url(#paint35_linear)"/>
<path style="mix-blend-mode:color-dodge" d="M303.69 222.83L189.188 156.53C187.633 155.47 185.793 154.903 183.91 154.903C182.027 154.903 180.188 155.47 178.632 156.53C180.089 156.081 181.628 155.965 183.136 156.192C184.643 156.419 186.08 156.983 187.339 157.841L301.901 223.843C306.411 227.135 310.086 231.435 312.634 236.4C315.181 241.365 316.53 246.857 316.571 252.436V263.278C316.826 265.475 316.553 267.702 315.775 269.774C314.997 271.846 313.737 273.703 312.099 275.191C315.915 273.762 318.36 269.234 318.36 262.622V251.483C318.328 245.894 316.984 240.39 314.436 235.414C311.888 230.438 308.208 226.128 303.69 222.83Z" fill="url(#paint36_radial)"/>
<path style="mix-blend-mode:color-dodge" d="M323.609 228.311C329.573 237.544 330.169 247.79 324.921 251.185C319.673 254.58 310.608 249.815 304.645 240.582C298.681 231.349 298.144 221.162 303.392 217.767C308.64 214.371 317.646 219.137 323.609 228.311Z" fill="url(#paint37_radial)"/>
<path d="M199.868 177.319L201.776 184.884C201.912 185.491 202.275 186.024 202.79 186.373L208.754 189.828C209.827 190.484 210.304 192.33 209.41 192.569L204.818 193.939C204.46 193.939 204.281 194.534 204.4 195.13L206.07 202.397C206.428 203.768 205.235 204.125 204.341 202.874L199.63 196.381C199.212 195.845 198.675 195.487 198.318 195.607L193.547 196.679C192.652 196.679 191.519 195.19 191.817 194.177L193.487 188.816C193.573 188.227 193.423 187.627 193.07 187.148L188.478 180.476C187.583 179.225 188.06 177.915 189.134 178.51L195.097 181.727C195.574 181.727 195.992 181.727 196.171 181.429L198.019 176.306C198.019 175.115 199.51 175.949 199.868 177.319Z" fill="white"/>
<path d="M223.842 191.138L225.751 198.465C225.822 198.772 225.954 199.061 226.138 199.317C226.323 199.572 226.556 199.789 226.824 199.954L232.788 203.469C233.921 204.064 234.338 205.911 233.504 206.209L228.852 207.519C228.494 207.519 228.315 208.115 228.494 208.711L230.164 216.038C230.462 217.408 229.269 217.705 228.375 216.455L223.664 209.962C223.53 209.731 223.339 209.538 223.109 209.402C222.879 209.267 222.618 209.193 222.352 209.187L217.64 210.259C216.746 210.259 215.553 208.77 215.851 207.758L217.521 202.396C217.587 202.105 217.584 201.802 217.511 201.513C217.439 201.223 217.299 200.954 217.104 200.728L212.512 194.116C211.677 192.865 212.094 191.555 213.168 192.151L219.131 195.308C219.608 195.308 220.026 195.308 220.205 195.308L222.113 190.125C222.053 188.934 223.485 189.768 223.842 191.138Z" fill="white"/>
<path d="M247.815 204.96L249.724 212.347C249.904 212.949 250.282 213.474 250.797 213.836L256.761 217.291C257.834 217.946 258.311 219.793 257.417 220.031L252.825 221.341C252.407 221.341 252.288 221.937 252.407 222.592L254.077 229.86C254.077 231.23 253.242 231.528 252.348 230.336L247.577 223.784C247.457 223.545 247.267 223.349 247.033 223.222C246.798 223.094 246.53 223.041 246.265 223.069L241.553 224.082C240.659 224.082 239.466 222.652 239.824 221.639L241.494 216.278C241.58 215.689 241.43 215.09 241.076 214.61L236.484 207.938C235.59 206.688 236.067 205.377 237.14 205.973L243.104 209.189C243.581 209.189 243.999 209.189 244.118 209.189L246.026 204.007C246.026 202.756 247.457 203.59 247.815 204.96Z" fill="white"/>
<path d="M271.846 218.839L273.754 226.166C273.89 226.774 274.252 227.306 274.768 227.656L280.731 231.111C281.805 231.766 282.282 233.612 281.387 233.851L276.795 235.221C276.438 235.221 276.259 235.816 276.378 236.412L278.048 243.68C278.406 245.05 277.213 245.347 276.318 244.156L271.607 237.663C271.19 237.067 270.653 236.77 270.295 236.889L265.524 237.901C264.63 237.901 263.497 236.472 263.795 235.459L265.465 230.098C265.522 229.806 265.514 229.506 265.442 229.217C265.37 228.929 265.235 228.66 265.047 228.43L260.455 221.758C259.561 220.507 260.038 219.197 261.111 219.792L267.075 223.009C267.142 223.085 267.224 223.146 267.317 223.188C267.41 223.23 267.51 223.251 267.611 223.251C267.713 223.251 267.813 223.23 267.906 223.188C267.998 223.146 268.081 223.085 268.148 223.009L270.057 217.886C270.057 216.576 271.488 217.41 271.846 218.839Z" fill="white"/>
<path d="M295.821 232.538L297.73 239.865C297.854 240.495 298.191 241.063 298.684 241.474L304.647 244.929C305.721 245.584 306.138 247.431 305.303 247.728L300.711 249.039C300.294 249.039 300.115 249.635 300.294 250.23L301.904 257.557C301.904 258.927 301.01 259.225 300.115 257.974L295.404 251.481C295.27 251.25 295.079 251.058 294.85 250.922C294.62 250.786 294.359 250.712 294.092 250.707L289.381 251.779C288.486 251.779 287.293 250.29 287.591 249.277L289.261 243.916C289.327 243.629 289.328 243.331 289.267 243.043C289.205 242.755 289.081 242.483 288.903 242.248L284.252 235.636C283.417 234.385 283.834 233.015 284.967 233.67L290.931 236.827C291.408 237.125 291.826 236.827 292.005 236.827L293.913 231.645C294.032 230.454 295.463 231.287 295.821 232.538Z" fill="white"/>
<path d="M130.027 200.727L89.4745 177.257C83.0934 173.564 77.9051 177.257 77.9051 186.014V216.811C77.9741 221.141 79.0564 225.394 81.0653 229.232C83.0742 233.069 85.954 236.384 89.4745 238.911L98.8971 244.868L107.843 270.78L116.728 254.935L130.027 262.321C136.408 265.955 141.537 262.321 141.537 253.565V222.768C141.475 218.451 140.402 214.209 138.403 210.382C136.404 206.555 133.536 203.248 130.027 200.727Z" fill="url(#paint38_linear)"/>
<path d="M120.187 257.021L116.608 254.937L107.723 270.782L114.819 266.552L120.187 257.021Z" fill="url(#paint39_linear)"/>
<path d="M135.991 197.273L95.4387 173.803C94.4003 173.051 93.185 172.578 91.9105 172.432C90.6359 172.286 89.3451 172.471 88.1631 172.969L82.1994 176.722C83.4015 176.114 84.7461 175.843 86.0903 175.937C87.4344 176.032 88.7278 176.488 89.8329 177.258L130.386 200.728C133.894 203.249 136.762 206.556 138.761 210.383C140.76 214.211 141.833 218.452 141.895 222.769V253.625C141.969 255.243 141.693 256.857 141.086 258.357C140.479 259.858 139.555 261.211 138.377 262.322L141.895 259.999C143.635 259.085 145.083 257.702 146.074 256.006C147.065 254.311 147.56 252.371 147.501 250.409V219.314C147.453 214.995 146.386 210.748 144.386 206.918C142.386 203.089 139.51 199.784 135.991 197.273Z" fill="url(#paint40_linear)"/>
<path style="mix-blend-mode:color-dodge" d="M130.683 200.193L89.9511 176.722C88.752 175.89 87.3265 175.443 85.8661 175.443C84.4056 175.443 82.9801 175.89 81.781 176.722C82.909 176.38 84.0991 176.294 85.2649 176.469C86.4306 176.644 87.5425 177.077 88.5199 177.735L129.073 201.205C132.592 203.72 135.472 207.023 137.481 210.851C139.49 214.679 140.573 218.924 140.642 223.246V254.102C140.808 255.758 140.581 257.43 139.98 258.982C139.38 260.535 138.421 261.924 137.183 263.038C140.105 261.906 142.014 258.51 142.014 253.328V222.233C141.972 217.932 140.926 213.7 138.959 209.874C136.992 206.047 134.158 202.732 130.683 200.193Z" fill="url(#paint41_radial)"/>
<path style="mix-blend-mode:color-dodge" d="M146.01 204.422C150.602 211.511 151.079 219.434 147.023 222.293C142.968 225.152 135.931 221.221 131.339 214.132C126.747 207.043 126.329 199.121 130.385 196.261C134.44 193.402 141.418 197.334 146.01 204.422Z" fill="url(#paint42_radial)"/>
<path d="M118.636 206.686C114.342 204.184 110.585 204.839 108.677 207.818C106.878 202.624 103.394 198.179 98.7771 195.189C92.8135 191.615 87.5655 194.474 87.5655 201.563C87.5655 214.549 108.677 242.785 108.677 242.785C108.677 242.785 129.848 238.972 129.848 225.986C129.629 222.115 128.5 218.35 126.552 214.997C124.604 211.644 121.892 208.796 118.636 206.686Z" fill="white"/>
</g>
<defs>
<radialGradient id="paint0_radial" cx="0" cy="0" r="1" gradientUnits="userSpaceOnUse" gradientTransform="translate(95.9755 294.907) scale(11.2713 11.2585)">
<stop offset="0.03" stop-color="#FEDFCB"/>
<stop offset="1" stop-color="#F9B69E"/>
</radialGradient>
<linearGradient id="paint1_linear" x1="86.1983" y1="290.978" x2="105.401" y2="290.978" gradientUnits="userSpaceOnUse">
<stop offset="0.06" stop-color="#200041"/>
<stop offset="0.26" stop-color="#210243"/>
<stop offset="0.36" stop-color="#25084B"/>
<stop offset="0.43" stop-color="#2C1358"/>
<stop offset="0.47" stop-color="#311B61"/>
<stop offset="0.63" stop-color="#311B61"/>
<stop offset="0.67" stop-color="#2A1155"/>
<stop offset="0.75" stop-color="#230446"/>
<stop offset="0.81" stop-color="#200041"/>
<stop offset="1" stop-color="#200041"/>
</linearGradient>
<linearGradient id="paint2_linear" x1="88.4052" y1="276.801" x2="107.217" y2="312.857" gradientUnits="userSpaceOnUse">
<stop offset="0.01" stop-color="#9F19AB"/>
<stop offset="0.43" stop-color="#5F27BD"/>
<stop offset="0.9" stop-color="#3D065F"/>
</linearGradient>
<linearGradient id="paint3_linear" x1="102.48" y1="295.505" x2="92.7765" y2="277.744" gradientUnits="userSpaceOnUse">
<stop offset="0.04" stop-color="#9D9EB3"/>
<stop offset="0.58" stop-color="#D4D1D8"/>
<stop offset="1" stop-color="#EEEBF2"/>
</linearGradient>
<linearGradient id="paint4_linear" x1="97.9445" y1="295.862" x2="94.0739" y2="290.556" gradientUnits="userSpaceOnUse">
<stop offset="0.04" stop-color="#9F19AB"/>
<stop offset="0.24" stop-color="#AE25B1"/>
<stop offset="0.65" stop-color="#D744BF"/>
<stop offset="1" stop-color="#FF63CE"/>
</linearGradient>
<radialGradient id="paint5_radial" cx="0" cy="0" r="1" gradientUnits="userSpaceOnUse" gradientTransform="translate(-251177 1144.18) rotate(180) scale(32.0876 28.8532)">
<stop offset="0.03" stop-color="#FEDFCB"/>
<stop offset="1" stop-color="#F9B69E"/>
</radialGradient>
<radialGradient id="paint6_radial" cx="0" cy="0" r="1" gradientUnits="userSpaceOnUse" gradientTransform="translate(161835 919.151) rotate(1.14446) scale(35.0149 45.1445)">
<stop offset="0.03" stop-color="#FEDFCB"/>
<stop offset="1" stop-color="#F9B69E"/>
</radialGradient>
<radialGradient id="paint7_radial" cx="0" cy="0" r="1" gradientUnits="userSpaceOnUse" gradientTransform="translate(822.766 707.681) rotate(1.14448) scale(28.8219 23.3127)">
<stop offset="0.03" stop-color="#FEDFCB"/>
<stop offset="1" stop-color="#F9B69E"/>
</radialGradient>
<linearGradient id="paint8_linear" x1="0.50102" y1="281.624" x2="35.7462" y2="281.624" gradientUnits="userSpaceOnUse">
<stop offset="0.04" stop-color="#138BBD"/>
<stop offset="0.23" stop-color="#169AC7"/>
<stop offset="0.59" stop-color="#1FC3DF"/>
<stop offset="1" stop-color="#2AF6FF"/>
</linearGradient>
<linearGradient id="paint9_linear" x1="32.4646" y1="500.837" x2="32.4646" y2="477.546" gradientUnits="userSpaceOnUse">
<stop offset="0.09" stop-color="#25054D"/>
<stop offset="0.47" stop-color="#330A68"/>
<stop offset="0.89" stop-color="#45108A"/>
</linearGradient>
<linearGradient id="paint10_linear" x1="161270" y1="11132" x2="161063" y2="11132" gradientUnits="userSpaceOnUse">
<stop offset="0.04" stop-color="#138BBD"/>
<stop offset="0.23" stop-color="#169AC7"/>
<stop offset="0.59" stop-color="#1FC3DF"/>
<stop offset="1" stop-color="#2AF6FF"/>
</linearGradient>
<linearGradient id="paint11_linear" x1="257102" y1="2259.11" x2="257088" y2="2160.64" gradientUnits="userSpaceOnUse">
<stop offset="0.09" stop-color="#25054D"/>
<stop offset="0.47" stop-color="#330A68"/>
<stop offset="0.89" stop-color="#45108A"/>
</linearGradient>
<linearGradient id="paint12_linear" x1="213924" y1="12964.1" x2="213587" y2="12964.1" gradientUnits="userSpaceOnUse">
<stop offset="0.04" stop-color="#138BBD"/>
<stop offset="0.23" stop-color="#169AC7"/>
<stop offset="0.59" stop-color="#1FC3DF"/>
<stop offset="1" stop-color="#2AF6FF"/>
</linearGradient>
<radialGradient id="paint13_radial" cx="0" cy="0" r="1" gradientUnits="userSpaceOnUse" gradientTransform="translate(173782 2053.87) rotate(180) scale(196.537 263.278)">
<stop offset="0.03" stop-color="#FEDFCB"/>
<stop offset="1" stop-color="#F9B69E"/>
</radialGradient>
<linearGradient id="paint14_linear" x1="34.6115" y1="237.126" x2="55.5674" y2="199.935" gradientUnits="userSpaceOnUse">
<stop offset="0.04" stop-color="#602213"/>
<stop offset="0.57" stop-color="#6D310E"/>
<stop offset="1" stop-color="#7A4108"/>
</linearGradient>
<linearGradient id="paint15_linear" x1="141542" y1="1019.71" x2="141556" y2="977.352" gradientUnits="userSpaceOnUse">
<stop offset="0.04" stop-color="#9D9EB3"/>
<stop offset="0.58" stop-color="#D4D1D8"/>
<stop offset="1" stop-color="#EEEBF2"/>
</linearGradient>
<linearGradient id="paint16_linear" x1="398885" y1="7968.79" x2="397854" y2="7968.79" gradientUnits="userSpaceOnUse">
<stop offset="0.04" stop-color="#138BBD"/>
<stop offset="0.23" stop-color="#169AC7"/>
<stop offset="0.59" stop-color="#1FC3DF"/>
<stop offset="1" stop-color="#2AF6FF"/>
</linearGradient>
<linearGradient id="paint17_linear" x1="228900" y1="1600.96" x2="228841" y2="1343.92" gradientUnits="userSpaceOnUse">
<stop offset="0.04" stop-color="#138BBD"/>
<stop offset="0.23" stop-color="#169AC7"/>
<stop offset="0.59" stop-color="#1FC3DF"/>
<stop offset="1" stop-color="#2AF6FF"/>
</linearGradient>
<radialGradient id="paint18_radial" cx="0" cy="0" r="1" gradientUnits="userSpaceOnUse" gradientTransform="translate(48.0891 256.961) rotate(180) scale(19.2029 19.1811)">
<stop stop-color="white"/>
<stop offset="1"/>
</radialGradient>
<linearGradient id="paint19_linear" x1="-817855" y1="4383.68" x2="-818365" y2="3678.59" gradientUnits="userSpaceOnUse">
<stop offset="0.04" stop-color="#138BBD"/>
<stop offset="0.23" stop-color="#169AC7"/>
<stop offset="0.59" stop-color="#1FC3DF"/>
<stop offset="1" stop-color="#2AF6FF"/>
</linearGradient>
<linearGradient id="paint20_linear" x1="-45.9604" y1="130.021" x2="425.295" y2="24.2369" gradientUnits="userSpaceOnUse">
<stop offset="0.04" stop-color="#6B24D6"/>
<stop offset="0.29" stop-color="#7733DC"/>
<stop offset="0.79" stop-color="#975CED"/>
<stop offset="1" stop-color="#A56EF4"/>
</linearGradient>
<linearGradient id="paint21_linear" x1="-194287" y1="478.606" x2="-194469" y2="435.933" gradientUnits="userSpaceOnUse">
<stop offset="0.04" stop-color="#6B24D6"/>
<stop offset="0.29" stop-color="#7733DC"/>
<stop offset="0.79" stop-color="#975CED"/>
<stop offset="1" stop-color="#A56EF4"/>
</linearGradient>
<linearGradient id="paint22_linear" x1="149.826" y1="-17.7697" x2="253.954" y2="160.384" gradientUnits="userSpaceOnUse">
<stop offset="0.04" stop-color="#6B24D6"/>
<stop offset="0.2" stop-color="#7733DC"/>
<stop offset="0.5" stop-color="#975CED"/>
<stop offset="0.63" stop-color="#A56EF4"/>
<stop offset="0.87" stop-color="#6B24D6"/>
</linearGradient>
<radialGradient id="paint23_radial" cx="0" cy="0" r="1" gradientUnits="userSpaceOnUse" gradientTransform="translate(1.9378e+06 1920.07) scale(2046.22 1877.93)">
<stop stop-color="white"/>
<stop offset="1"/>
</radialGradient>
<radialGradient id="paint24_radial" cx="0" cy="0" r="1" gradientUnits="userSpaceOnUse" gradientTransform="translate(747.904 981.162) rotate(-31.9762) scale(10.8886 19.1985)">
<stop stop-color="#972A74"/>
<stop offset="0.04" stop-color="#8A266A"/>
<stop offset="0.19" stop-color="#601B4A"/>
<stop offset="0.35" stop-color="#3D112F"/>
<stop offset="0.51" stop-color="#230A1B"/>
<stop offset="0.67" stop-color="#0F040C"/>
<stop offset="0.83" stop-color="#040103"/>
<stop offset="1"/>
</radialGradient>
<linearGradient id="paint25_linear" x1="160.502" y1="92.3134" x2="122.817" y2="25.5597" gradientUnits="userSpaceOnUse">
<stop offset="0.04" stop-color="#FFA98C"/>
<stop offset="0.32" stop-color="#FFB892"/>
<stop offset="0.86" stop-color="#FEE1A3"/>
<stop offset="1" stop-color="#FEECA8"/>
</linearGradient>
<linearGradient id="paint26_linear" x1="-464506" y1="882.041" x2="-464274" y2="528.359" gradientUnits="userSpaceOnUse">
<stop offset="0.04" stop-color="#FFA98C"/>
<stop offset="0.32" stop-color="#FFB892"/>
<stop offset="0.86" stop-color="#FEE1A3"/>
<stop offset="1" stop-color="#FEECA8"/>
</linearGradient>
<linearGradient id="paint27_linear" x1="-462518" y1="1145.01" x2="-462268" y2="769.619" gradientUnits="userSpaceOnUse">
<stop offset="0.04" stop-color="#FFA98C"/>
<stop offset="0.32" stop-color="#FFB892"/>
<stop offset="0.86" stop-color="#FEE1A3"/>
<stop offset="1" stop-color="#FEECA8"/>
</linearGradient>
<linearGradient id="paint28_linear" x1="-1.61652e+06" y1="3573.5" x2="-1.62464e+06" y2="1725.74" gradientUnits="userSpaceOnUse">
<stop offset="0.04" stop-color="#138BBD"/>
<stop offset="0.23" stop-color="#169AC7"/>
<stop offset="0.59" stop-color="#1FC3DF"/>
<stop offset="1" stop-color="#2AF6FF"/>
</linearGradient>
<linearGradient id="paint29_linear" x1="-194127" y1="668.563" x2="-194309" y2="625.873" gradientUnits="userSpaceOnUse">
<stop offset="0.04" stop-color="#138BBD"/>
<stop offset="0.23" stop-color="#169AC7"/>
<stop offset="0.59" stop-color="#1FC3DF"/>
<stop offset="1" stop-color="#2AF6FF"/>
</linearGradient>
<linearGradient id="paint30_linear" x1="59.6627" y1="42.096" x2="145.87" y2="189.554" gradientUnits="userSpaceOnUse">
<stop stop-color="#4EC1DE"/>
<stop offset="0.24" stop-color="#4DC4DE"/>
<stop offset="0.45" stop-color="#49CFDE"/>
<stop offset="0.64" stop-color="#43E1DE"/>
<stop offset="0.65" stop-color="#43E2DE"/>
<stop offset="0.77" stop-color="#3DABC8"/>
<stop offset="0.84" stop-color="#3A91BD"/>
<stop offset="0.88" stop-color="#3B96BF"/>
<stop offset="1" stop-color="#3CA0C3"/>
</linearGradient>
<radialGradient id="paint31_radial" cx="0" cy="0" r="1" gradientUnits="userSpaceOnUse" gradientTransform="translate(1.49348e+06 2672.16) scale(1323.74 1344.79)">
<stop stop-color="white"/>
<stop offset="1"/>
</radialGradient>
<radialGradient id="paint32_radial" cx="0" cy="0" r="1" gradientUnits="userSpaceOnUse" gradientTransform="translate(-738910 289659) rotate(180) scale(133.944 165.489)">
<stop stop-color="#972A74"/>
<stop offset="0.04" stop-color="#8A266A"/>
<stop offset="0.19" stop-color="#601B4A"/>
<stop offset="0.35" stop-color="#3D112F"/>
<stop offset="0.51" stop-color="#230A1B"/>
<stop offset="0.67" stop-color="#0F040C"/>
<stop offset="0.83" stop-color="#040103"/>
<stop offset="1"/>
</radialGradient>
<linearGradient id="paint33_linear" x1="-1.8092e+06" y1="5415.06" x2="-1.81879e+06" y2="2836.76" gradientUnits="userSpaceOnUse">
<stop offset="0.04" stop-color="#FFA98C"/>
<stop offset="0.32" stop-color="#FFB892"/>
<stop offset="0.86" stop-color="#FEE1A3"/>
<stop offset="1" stop-color="#FEECA8"/>
</linearGradient>
<linearGradient id="paint34_linear" x1="-202627" y1="1088.61" x2="-202823" y2="1042.28" gradientUnits="userSpaceOnUse">
<stop offset="0.04" stop-color="#FFA98C"/>
<stop offset="0.32" stop-color="#FFB892"/>
<stop offset="0.86" stop-color="#FEE1A3"/>
<stop offset="1" stop-color="#FEECA8"/>
</linearGradient>
<linearGradient id="paint35_linear" x1="215.965" y1="135.859" x2="302.887" y2="284.569" gradientUnits="userSpaceOnUse">
<stop offset="0.34" stop-color="#FBCD9C"/>
<stop offset="0.81" stop-color="#FEECA8"/>
<stop offset="0.91" stop-color="#FFA98C"/>
</linearGradient>
<radialGradient id="paint36_radial" cx="0" cy="0" r="1" gradientUnits="userSpaceOnUse" gradientTransform="translate(1.6802e+06 4493.71) scale(1499.28 1290.7)">
<stop stop-color="white"/>
<stop offset="1"/>
</radialGradient>
<radialGradient id="paint37_radial" cx="0" cy="0" r="1" gradientUnits="userSpaceOnUse" gradientTransform="translate(-767533 303377) rotate(180) scale(144.424 179.116)">
<stop stop-color="#972A74"/>
<stop offset="0.04" stop-color="#8A266A"/>
<stop offset="0.19" stop-color="#601B4A"/>
<stop offset="0.35" stop-color="#3D112F"/>
<stop offset="0.51" stop-color="#230A1B"/>
<stop offset="0.67" stop-color="#0F040C"/>
<stop offset="0.83" stop-color="#040103"/>
<stop offset="1"/>
</radialGradient>
<linearGradient id="paint38_linear" x1="-796330" y1="4027.82" x2="-798500" y2="3701.96" gradientUnits="userSpaceOnUse">
<stop offset="0.04" stop-color="#9F19AB"/>
<stop offset="0.24" stop-color="#AE25B1"/>
<stop offset="0.65" stop-color="#D744BF"/>
<stop offset="1" stop-color="#FF63CE"/>
</linearGradient>
<linearGradient id="paint39_linear" x1="-156091" y1="955.931" x2="-156207" y2="928.399" gradientUnits="userSpaceOnUse">
<stop offset="0.04" stop-color="#9F19AB"/>
<stop offset="0.24" stop-color="#AE25B1"/>
<stop offset="0.65" stop-color="#D744BF"/>
<stop offset="1" stop-color="#FF63CE"/>
</linearGradient>
<linearGradient id="paint40_linear" x1="98.8976" y1="167.489" x2="151.349" y2="257.132" gradientUnits="userSpaceOnUse">
<stop offset="0.17" stop-color="#DC48C1"/>
<stop offset="0.31" stop-color="#DF4AC2"/>
<stop offset="0.41" stop-color="#E851C5"/>
<stop offset="0.49" stop-color="#F75DCB"/>
<stop offset="0.52" stop-color="#FF63CE"/>
<stop offset="0.91" stop-color="#9F19AB"/>
</linearGradient>
<radialGradient id="paint41_radial" cx="0" cy="0" r="1" gradientUnits="userSpaceOnUse" gradientTransform="translate(680542 3396.28) scale(393.922 572.866)">
<stop stop-color="white"/>
<stop offset="1"/>
</radialGradient>
<radialGradient id="paint42_radial" cx="0" cy="0" r="1" gradientUnits="userSpaceOnUse" gradientTransform="translate(-591815 236999) rotate(180) scale(86.0757 108.297)">
<stop stop-color="#972A74"/>
<stop offset="0.04" stop-color="#8A266A"/>
<stop offset="0.19" stop-color="#601B4A"/>
<stop offset="0.35" stop-color="#3D112F"/>
<stop offset="0.51" stop-color="#230A1B"/>
<stop offset="0.67" stop-color="#0F040C"/>
<stop offset="0.83" stop-color="#040103"/>
<stop offset="1"/>
</radialGradient>
<clipPath id="clip0">
<rect width="328" height="536" fill="white" transform="matrix(-1 0 0 1 328.5 0.219238)"/>
</clipPath>
</defs>
</svg>
