<svg width="111" height="116" viewBox="0 0 111 116" fill="none" xmlns="http://www.w3.org/2000/svg">
<path d="M7.54623 94.2081C5.67351 94.2081 4.15337 93.6185 2.98581 92.4394C1.82981 91.2487 1.25181 89.7459 1.25181 87.931C1.25181 86.197 1.84137 84.7173 3.02049 83.492C4.21117 82.2666 5.70819 81.6539 7.51155 81.6539C8.52883 81.6539 9.39583 81.7926 10.1125 82.0701C10.8293 82.336 11.5171 82.7463 12.176 83.3012L10.8235 84.9138C10.3148 84.4746 9.80043 84.1509 9.28023 83.9428C8.77159 83.7232 8.15313 83.6133 7.42485 83.6133C6.31509 83.6133 5.37873 84.0353 4.61577 84.8792C3.86437 85.723 3.48867 86.7403 3.48867 87.931C3.48867 89.191 3.87015 90.2314 4.63311 91.0522C5.39607 91.8614 6.39023 92.266 7.61559 92.266C8.74847 92.266 9.72529 91.9597 10.546 91.347V89.0754H7.44219V87.2201H12.6095V92.318C11.1414 93.5781 9.45363 94.2081 7.54623 94.2081ZM19.4966 94.2081C18.1094 94.2081 16.9534 93.7457 16.0286 92.8209C15.1038 91.8961 14.6414 90.769 14.6414 89.4396C14.6414 88.1102 15.1096 86.9831 16.0459 86.0583C16.9823 85.1219 18.1441 84.6537 19.5313 84.6537C20.9185 84.6537 22.0745 85.1161 22.9993 86.0409C23.9356 86.9657 24.4038 88.0986 24.4038 89.4396C24.4038 90.7574 23.9356 91.8845 22.9993 92.8209C22.0629 93.7457 20.8954 94.2081 19.4966 94.2081ZM19.5313 92.3874C20.3636 92.3874 21.0341 92.1042 21.5427 91.5377C22.0514 90.9713 22.3057 90.2719 22.3057 89.4396C22.3057 88.6188 22.0398 87.9252 21.508 87.3588C20.9763 86.7808 20.3058 86.4918 19.4966 86.4918C18.6758 86.4918 18.0111 86.775 17.5025 87.3414C16.9939 87.9079 16.7395 88.6073 16.7395 89.4396C16.7395 90.2488 17.0054 90.9424 17.5372 91.5204C18.0689 92.0984 18.7336 92.3874 19.5313 92.3874ZM30.8929 94.2081C29.5057 94.2081 28.3497 93.7457 27.4249 92.8209C26.5001 91.8961 26.0377 90.769 26.0377 89.4396C26.0377 88.1102 26.5059 86.9831 27.4423 86.0583C28.3786 85.1219 29.5404 84.6537 30.9276 84.6537C32.3148 84.6537 33.4708 85.1161 34.3956 86.0409C35.332 86.9657 35.8001 88.0986 35.8001 89.4396C35.8001 90.7574 35.332 91.8845 34.3956 92.8209C33.4592 93.7457 32.2917 94.2081 30.8929 94.2081ZM30.9276 92.3874C31.7599 92.3874 32.4304 92.1042 32.939 91.5377C33.4477 90.9713 33.702 90.2719 33.702 89.4396C33.702 88.6188 33.4361 87.9252 32.9044 87.3588C32.3726 86.7808 31.7021 86.4918 30.8929 86.4918C30.0722 86.4918 29.4075 86.775 28.8988 87.3414C28.3902 87.9079 28.1359 88.6073 28.1359 89.4396C28.1359 90.2488 28.4017 90.9424 28.9335 91.5204C29.4653 92.0984 30.13 92.3874 30.9276 92.3874ZM42.0118 96.8091C40.4859 96.8091 39.1218 96.4449 37.9195 95.7167L38.6998 94.1387C39.7402 94.7861 40.8269 95.1098 41.9598 95.1098C42.8961 95.1098 43.6128 94.867 44.1099 94.3815C44.607 93.9075 44.8555 93.2139 44.8555 92.3007V91.5897C43.9885 92.7111 42.9135 93.2717 41.6303 93.2717C40.4974 93.2717 39.5206 92.8787 38.6998 92.0926C37.8791 91.3065 37.4687 90.2603 37.4687 88.9541C37.4687 87.6593 37.8791 86.6189 38.6998 85.8329C39.5322 85.0468 40.509 84.6537 41.6303 84.6537C42.9019 84.6537 43.9712 85.1739 44.8382 86.2143V84.8445H46.9363V92.1273C46.9363 93.6532 46.5491 94.8034 45.7746 95.5779C44.9538 96.3987 43.6995 96.8091 42.0118 96.8091ZM42.1852 91.503C42.925 91.503 43.555 91.2661 44.0752 90.7921C44.607 90.3066 44.8729 89.6939 44.8729 88.9541C44.8729 88.2142 44.607 87.6073 44.0752 87.1334C43.555 86.6594 42.925 86.4224 42.1852 86.4224C41.4453 86.4224 40.8269 86.6594 40.3298 87.1334C39.8327 87.5958 39.5842 88.2084 39.5842 88.9714C39.5842 89.7112 39.8327 90.3181 40.3298 90.7921C40.8384 91.2661 41.4569 91.503 42.1852 91.503ZM49.6747 94V81.3418H51.7728V94H49.6747ZM58.7112 94.2081C57.3702 94.2081 56.2489 93.763 55.3472 92.8729C54.4571 91.9828 54.012 90.8326 54.012 89.4222C54.012 88.0928 54.434 86.9657 55.2778 86.0409C56.1217 85.1161 57.191 84.6537 58.4857 84.6537C59.8729 84.6537 60.948 85.1277 61.711 86.0756C62.4855 87.012 62.8728 88.1795 62.8728 89.5783C62.8728 89.8326 62.8612 90.0291 62.8381 90.1679H56.1102C56.2258 90.8961 56.5205 91.4684 56.9945 91.8845C57.4685 92.2891 58.0522 92.4914 58.7458 92.4914C59.6475 92.4914 60.4741 92.1273 61.2255 91.399L62.4566 92.4914C61.5087 93.6359 60.2602 94.2081 58.7112 94.2081ZM56.0928 88.7807H60.792C60.7226 88.0755 60.4856 87.4975 60.081 87.0467C59.6764 86.5958 59.1389 86.3704 58.4684 86.3704C57.8326 86.3704 57.3008 86.5958 56.8731 87.0467C56.4454 87.4859 56.1853 88.0639 56.0928 88.7807ZM70.4212 94V81.862H75.2071C76.6174 81.862 77.7387 82.2319 78.571 82.9718C79.4033 83.7116 79.8195 84.7058 79.8195 85.9542C79.8195 87.2605 79.3571 88.2778 78.4323 89.0061C77.5191 89.7344 76.3631 90.0985 74.9643 90.0985H72.554V94H70.4212ZM72.554 88.1738H75.0337C75.8313 88.1738 76.4671 87.9715 76.9411 87.5669C77.415 87.1623 77.652 86.6305 77.652 85.9716C77.652 85.278 77.415 84.7462 76.9411 84.3763C76.4787 83.9948 75.8429 83.8041 75.0337 83.8041H72.554V88.1738ZM81.8824 94V81.3418H83.9805V94H81.8824ZM94.4042 94H92.3234V92.8729C91.5835 93.7515 90.5952 94.1907 89.3582 94.1907C88.445 94.1907 87.6705 93.9422 87.0347 93.4451C86.4104 92.9365 86.0983 92.2313 86.0983 91.3296C86.0983 90.347 86.4393 89.6014 87.1214 89.0928C87.8034 88.5841 88.6993 88.3298 89.8091 88.3298C90.6992 88.3298 91.5431 88.457 92.3407 88.7113V88.5379C92.3407 87.9021 92.1442 87.4166 91.7512 87.0813C91.3697 86.7461 90.8148 86.5785 90.0865 86.5785C89.2542 86.5785 88.3814 86.7692 87.4682 87.1507L86.896 85.4687C88.0288 84.9601 89.1906 84.7058 90.3813 84.7058C91.7107 84.7058 92.7106 85.041 93.3811 85.7115C94.0632 86.382 94.4042 87.3357 94.4042 88.5726V94ZM92.3754 90.6881V90.1679C91.7512 89.9251 91.0518 89.8037 90.2773 89.8037C89.6183 89.8037 89.1039 89.9309 88.734 90.1852C88.3641 90.4395 88.1791 90.7979 88.1791 91.2603C88.1791 91.6764 88.3467 92.0059 88.682 92.2487C89.0172 92.4914 89.4392 92.6128 89.9478 92.6128C90.653 92.6128 91.231 92.4336 91.6818 92.0753C92.1442 91.7169 92.3754 91.2545 92.3754 90.6881ZM98.4337 96.8264C97.6707 96.8264 96.9482 96.6415 96.2662 96.2715L96.9771 94.7109C97.4049 94.9421 97.8152 95.0577 98.2083 95.0577C98.5088 95.0577 98.7574 94.9768 98.9539 94.815C99.1504 94.6647 99.3354 94.393 99.5088 94L95.694 84.8445H97.9308L100.532 91.6418L102.907 84.8445H105.092L101.451 94.2601C101.081 95.1965 100.671 95.8554 100.22 96.2369C99.7689 96.6299 99.1735 96.8264 98.4337 96.8264ZM27.2265 115V102.862H29.3593V115H27.2265ZM32.3657 115V105.844H34.4639V107.266C35.1922 106.191 36.1459 105.654 37.325 105.654C38.3423 105.654 39.1399 105.972 39.7179 106.607C40.2959 107.243 40.5849 108.099 40.5849 109.174V115H38.4868V109.798C38.4868 109.081 38.3134 108.532 37.9666 108.151C37.6313 107.758 37.1516 107.561 36.5273 107.561C35.9146 107.561 35.4176 107.763 35.0361 108.168C34.6546 108.573 34.4639 109.128 34.4639 109.833V115H32.3657ZM46.2571 115.173C44.8237 115.173 43.5289 114.717 42.3729 113.804L43.3093 112.382C44.3035 113.133 45.3034 113.509 46.3091 113.509C46.76 113.509 47.1068 113.422 47.3495 113.249C47.6038 113.064 47.731 112.809 47.731 112.486C47.731 112.324 47.6848 112.185 47.5923 112.07C47.5114 111.942 47.3611 111.827 47.1414 111.723C46.9218 111.619 46.7368 111.544 46.5866 111.497C46.4363 111.451 46.1877 111.376 45.8409 111.272L45.6849 111.22C45.3612 111.127 45.0838 111.041 44.8526 110.96C44.6329 110.867 44.3844 110.746 44.1069 110.596C43.8295 110.445 43.6041 110.284 43.4307 110.11C43.2573 109.925 43.1128 109.694 42.9972 109.417C42.8816 109.139 42.8238 108.827 42.8238 108.48C42.8238 107.636 43.1301 106.96 43.7428 106.451C44.367 105.943 45.1473 105.688 46.0837 105.688C47.2744 105.688 48.3957 106.035 49.4477 106.729L48.6153 108.22C47.6674 107.642 46.8062 107.353 46.0317 107.353C45.6271 107.353 45.3092 107.44 45.078 107.613C44.8583 107.787 44.7485 108.018 44.7485 108.307C44.7485 108.503 44.8468 108.682 45.0433 108.844C45.2514 109.006 45.4537 109.128 45.6502 109.208C45.8583 109.278 46.1877 109.388 46.6386 109.538C46.6617 109.549 46.6906 109.561 46.7253 109.573C46.76 109.584 46.7889 109.59 46.812 109.59C47.2166 109.717 47.5576 109.844 47.835 109.971C48.1125 110.087 48.4015 110.249 48.702 110.457C49.0142 110.665 49.2511 110.925 49.413 111.237C49.5748 111.538 49.6557 111.89 49.6557 112.295C49.6557 113.22 49.3378 113.931 48.702 114.428C48.0662 114.925 47.2513 115.173 46.2571 115.173ZM54.6884 115.156C52.9313 115.156 52.0527 114.26 52.0527 112.468V107.648H50.8909V105.844H52.0527V103.33H54.1509V105.844H56.6131V107.648H54.1509V112.139C54.1509 112.902 54.5266 113.283 55.278 113.283C55.7288 113.283 56.1623 113.179 56.5785 112.971V114.688C56.0236 115 55.3936 115.156 54.6884 115.156ZM66.413 115H64.3322V113.873C63.5923 114.751 62.6039 115.191 61.367 115.191C60.4538 115.191 59.6793 114.942 59.0435 114.445C58.4192 113.936 58.1071 113.231 58.1071 112.33C58.1071 111.347 58.4481 110.601 59.1302 110.093C59.8122 109.584 60.7081 109.33 61.8179 109.33C62.708 109.33 63.5519 109.457 64.3495 109.711V109.538C64.3495 108.902 64.153 108.417 63.7599 108.081C63.3785 107.746 62.8236 107.578 62.0953 107.578C61.263 107.578 60.3902 107.769 59.477 108.151L58.9047 106.469C60.0376 105.96 61.1994 105.706 62.3901 105.706C63.7195 105.706 64.7194 106.041 65.3899 106.711C66.0719 107.382 66.413 108.336 66.413 109.573V115ZM64.3842 111.688V111.168C63.7599 110.925 63.0606 110.804 62.286 110.804C61.6271 110.804 61.1127 110.931 60.7428 111.185C60.3729 111.44 60.1879 111.798 60.1879 112.26C60.1879 112.676 60.3555 113.006 60.6908 113.249C61.026 113.491 61.4479 113.613 61.9566 113.613C62.6617 113.613 63.2397 113.434 63.6906 113.075C64.153 112.717 64.3842 112.254 64.3842 111.688ZM68.9084 115V105.844H71.0066V107.266C71.7348 106.191 72.6885 105.654 73.8677 105.654C74.8849 105.654 75.6826 105.972 76.2606 106.607C76.8386 107.243 77.1276 108.099 77.1276 109.174V115H75.0294V109.798C75.0294 109.081 74.856 108.532 74.5092 108.151C74.174 107.758 73.6943 107.561 73.07 107.561C72.4573 107.561 71.9603 107.763 71.5788 108.168C71.1973 108.573 71.0066 109.128 71.0066 109.833V115H68.9084ZM82.7304 115.156C80.9733 115.156 80.0948 114.26 80.0948 112.468V107.648H78.933V105.844H80.0948V103.33H82.1929V105.844H84.6552V107.648H82.1929V112.139C82.1929 112.902 82.5686 113.283 83.32 113.283C83.7708 113.283 84.2043 113.179 84.6205 112.971V114.688C84.0656 115 83.4356 115.156 82.7304 115.156Z" fill="#DCD2FF"/>
<path d="M83.8221 32.0039L77.1343 28.1864C77.5505 29.8225 77.8375 31.5016 77.9954 33.2238C78.1389 34.7594 78.1963 36.2807 78.1389 37.8019L83.8221 34.4867C84.267 34.2284 84.5397 33.7548 84.5397 33.2525C84.554 32.7359 84.267 32.2623 83.8221 32.0039ZM67.0309 42.4375C66.0119 41.4903 65.0934 40.4426 64.1462 39.4236C63.3282 38.5482 62.3379 38.132 61.1324 38.1464C56.5399 38.1607 51.9475 38.1751 47.3406 38.1464C46.4796 38.1464 45.7333 38.3186 45.0731 38.6917C44.6713 38.9213 44.2838 39.2227 43.9393 39.6102C42.5329 41.1315 41.0977 42.6384 39.6195 44.0735C38.8159 44.8485 37.9261 45.5661 36.9932 46.1975C34.8262 47.647 32.1855 46.829 31.1952 44.418C30.2767 42.1648 30.2193 39.7681 30.0902 37.3857C30.0758 37.07 30.0902 36.7543 30.0902 36.4385C30.1619 30.1526 31.6258 24.2828 35.2711 19.0733C37.3233 16.1312 40.0931 14.4377 43.7958 14.5956C46.0777 14.6961 48.1443 15.4997 50.0531 16.7196C52.5933 18.3557 55.1191 18.4705 57.6593 17.0497L28.1527 0.186719C27.7078 -0.0716079 27.1481 -0.0572565 26.7176 0.20107C26.2727 0.459397 26 0.918644 26 1.4353L26.287 65.572C26.287 66.0887 26.5597 66.5623 27.0046 66.8063C27.4495 67.0646 27.9949 67.0646 28.4398 66.8063L74.0487 40.1986L68.2364 43.5856C67.8489 43.1981 67.4327 42.8106 67.0309 42.4375V42.4375Z" fill="white"/>
<path d="M65.2949 21.7999C65.6393 22.0295 66.0555 22.1587 66.486 22.1587C67.0744 22.1587 67.5911 21.9147 67.9786 21.5272C68.3087 21.1828 68.5383 20.7235 68.5814 20.2212C68.5957 20.1351 68.5957 20.049 68.5957 19.9772C68.5814 18.8291 67.6198 17.9106 66.443 17.9106C65.2662 17.925 64.3046 18.9009 64.319 20.0921C64.319 20.2212 64.3333 20.336 64.362 20.4652C64.4768 21.0106 64.8213 21.4985 65.2949 21.7999ZM60.8746 26.9951C62.0084 27.0095 62.9986 26.0623 63.0273 24.9141C63.056 23.7947 62.1088 22.7758 61.0038 22.7184H60.9033C59.7552 22.704 58.7936 23.6512 58.7793 24.8137V25.0003C58.8511 26.1197 59.7265 26.9807 60.8746 26.9951ZM69.5142 24.8137C69.4855 26.0336 70.404 26.9807 71.6095 26.9951C71.8535 26.9951 72.0975 26.952 72.3271 26.8659C73.1308 26.5789 73.7335 25.8039 73.7622 24.9141C73.7909 23.766 72.7863 22.7184 71.6382 22.704C71.3512 22.704 71.0642 22.7614 70.8202 22.8619C70.0596 23.192 69.5286 23.9382 69.5142 24.8137V24.8137ZM66.443 31.9176C66.8879 31.9176 67.2897 31.8028 67.6342 31.5876C68.1939 31.2288 68.567 30.5973 68.5814 29.8654C68.5957 29.2913 68.3948 28.7747 68.0503 28.3728C67.6772 27.9423 67.1175 27.6553 66.5004 27.6553C65.5962 27.6409 64.7639 28.2724 64.4625 29.1048C64.3907 29.3057 64.3477 29.521 64.3477 29.7362V29.7506C64.3046 30.9274 65.2518 31.9033 66.443 31.9176V31.9176Z" fill="white"/>
<path fill-rule="evenodd" clip-rule="evenodd" d="M47.1407 25.9189C45.9926 25.962 44.8445 25.9333 43.6533 25.9333V23.5653C43.639 21.226 43.9547 21.5417 41.6011 21.513C40.4386 21.4987 40.4242 21.5274 40.4242 22.7042V25.9189C39.19 25.9189 38.085 25.962 36.9799 25.9046C36.2049 25.8759 35.9179 26.1773 36.004 26.9235C36.047 27.3397 36.047 27.7703 36.004 28.1865C35.9179 28.9615 36.2623 29.2054 37.0086 29.1624C38.128 29.1193 39.2474 29.148 40.4386 29.148C40.4386 29.9661 40.4242 30.6693 40.4386 31.3725C40.4673 33.9271 40.0511 33.5683 42.7922 33.6113C43.4237 33.6257 43.6964 33.3817 43.6677 32.7215C43.639 31.5734 43.6533 30.411 43.6533 29.1337C44.457 29.1337 45.1602 29.148 45.8634 29.1337C48.4467 29.0906 48.0449 29.5212 48.1023 26.8661C48.1166 26.1916 47.8726 25.8902 47.1407 25.9189V25.9189Z" fill="white"/>
</svg>
