<svg width="97" height="116" viewBox="0 0 97 116" fill="none" xmlns="http://www.w3.org/2000/svg">
<path d="M1.68198 114V101.862H3.8148V114H1.68198ZM6.82126 114V104.844H8.9194V106.908C9.56676 105.347 10.6476 104.602 12.162 104.671V106.891H12.0406C11.0927 106.891 10.3355 107.203 9.76906 107.827C9.20262 108.44 8.9194 109.336 8.9194 110.515V114H6.82126ZM18.0317 114.208C16.6445 114.208 15.4885 113.746 14.5637 112.821C13.6389 111.896 13.1765 110.769 13.1765 109.44C13.1765 108.11 13.6447 106.983 14.581 106.058C15.5174 105.122 16.6792 104.654 18.0664 104.654C19.4536 104.654 20.6096 105.116 21.5344 106.041C22.4707 106.966 22.9389 108.099 22.9389 109.44C22.9389 110.757 22.4707 111.885 21.5344 112.821C20.598 113.746 19.4305 114.208 18.0317 114.208ZM18.0664 112.387C18.8987 112.387 19.5692 112.104 20.0778 111.538C20.5865 110.971 20.8408 110.272 20.8408 109.44C20.8408 108.619 20.5749 107.925 20.0431 107.359C19.5114 106.781 18.8409 106.492 18.0317 106.492C17.2109 106.492 16.5462 106.775 16.0376 107.341C15.529 107.908 15.2746 108.607 15.2746 109.44C15.2746 110.249 15.5405 110.942 16.0723 111.52C16.604 112.098 17.2687 112.387 18.0664 112.387ZM25.0757 114V104.844H27.1738V106.266C27.9021 105.191 28.8558 104.654 30.0349 104.654C31.0522 104.654 31.8498 104.972 32.4278 105.607C33.0058 106.243 33.2948 107.099 33.2948 108.174V114H31.1967V108.798C31.1967 108.081 31.0233 107.532 30.6765 107.151C30.3413 106.758 29.8615 106.561 29.2373 106.561C28.6246 106.561 28.1275 106.763 27.746 107.168C27.3646 107.573 27.1738 108.128 27.1738 108.833V114H25.0757ZM40.3196 114.173C38.389 114.173 36.7013 113.526 35.2563 112.231L36.5394 110.705C37.7532 111.757 39.0306 112.283 40.3716 112.283C41.0305 112.283 41.5507 112.145 41.9322 111.867C42.3252 111.578 42.5217 111.197 42.5217 110.723C42.5217 110.272 42.3368 109.914 41.9669 109.648C41.5969 109.37 40.8687 109.104 39.782 108.85C38.3717 108.515 37.3429 108.093 36.6955 107.584C36.0597 107.064 35.7418 106.272 35.7418 105.209C35.7418 104.168 36.1291 103.324 36.9036 102.677C37.6781 102.018 38.6723 101.689 39.8861 101.689C41.5507 101.689 43.0188 102.197 44.2904 103.215L43.146 104.827C42.0247 103.995 40.9265 103.579 39.8514 103.579C39.2387 103.579 38.7532 103.717 38.3948 103.995C38.048 104.272 37.8746 104.625 37.8746 105.053C37.8746 105.527 38.0654 105.896 38.4468 106.162C38.8399 106.417 39.6086 106.683 40.7531 106.96C42.094 107.284 43.0766 107.717 43.7009 108.26C44.3367 108.804 44.6546 109.567 44.6546 110.549C44.6546 111.671 44.2557 112.555 43.4581 113.202C42.6605 113.85 41.6143 114.173 40.3196 114.173ZM51.2723 114.208C49.8851 114.208 48.7291 113.746 47.8043 112.821C46.8795 111.896 46.4171 110.769 46.4171 109.44C46.4171 108.11 46.8853 106.983 47.8217 106.058C48.758 105.122 49.9198 104.654 51.307 104.654C52.6942 104.654 53.8502 105.116 54.775 106.041C55.7114 106.966 56.1796 108.099 56.1796 109.44C56.1796 110.757 55.7114 111.885 54.775 112.821C53.8387 113.746 52.6711 114.208 51.2723 114.208ZM51.307 112.387C52.1393 112.387 52.8098 112.104 53.3185 111.538C53.8271 110.971 54.0814 110.272 54.0814 109.44C54.0814 108.619 53.8155 107.925 53.2838 107.359C52.752 106.781 52.0815 106.492 51.2723 106.492C50.4516 106.492 49.7869 106.775 49.2782 107.341C48.7696 107.908 48.5153 108.607 48.5153 109.44C48.5153 110.249 48.7812 110.942 49.3129 111.52C49.8447 112.098 50.5094 112.387 51.307 112.387ZM61.4722 114.191C60.4549 114.191 59.6573 113.873 59.0793 113.237C58.5013 112.601 58.2123 111.746 58.2123 110.671V104.844H60.3104V110.046C60.3104 110.763 60.478 111.318 60.8133 111.711C61.1601 112.093 61.6456 112.283 62.2698 112.283C62.8825 112.283 63.3796 112.081 63.7611 111.676C64.1426 111.272 64.3333 110.717 64.3333 110.012V104.844H66.4314V114H64.3333V112.578C63.605 113.653 62.6513 114.191 61.4722 114.191ZM69.0692 114V104.844H71.1673V106.908C71.8147 105.347 72.8955 104.602 74.4099 104.671V106.891H74.2885C73.3406 106.891 72.5834 107.203 72.017 107.827C71.4505 108.44 71.1673 109.336 71.1673 110.515V114H69.0692ZM80.1582 114.208C78.8057 114.208 77.6786 113.746 76.7769 112.821C75.8752 111.896 75.4244 110.769 75.4244 109.44C75.4244 108.122 75.8752 106.995 76.7769 106.058C77.6902 105.122 78.823 104.654 80.1756 104.654C81.6552 104.654 82.8748 105.18 83.8343 106.232L82.5338 107.636C81.8055 106.873 81.0137 106.492 80.1582 106.492C79.4068 106.492 78.7768 106.781 78.2682 107.359C77.7711 107.925 77.5225 108.619 77.5225 109.44C77.5225 110.272 77.7769 110.971 78.2855 111.538C78.8057 112.104 79.4646 112.387 80.2623 112.387C81.1061 112.387 81.898 112.006 82.6378 111.243L83.9037 112.491C83.4066 113.046 82.8633 113.474 82.2737 113.775C81.6957 114.064 80.9905 114.208 80.1582 114.208ZM89.7757 114.208C88.4347 114.208 87.3134 113.763 86.4117 112.873C85.5216 111.983 85.0765 110.833 85.0765 109.422C85.0765 108.093 85.4985 106.966 86.3424 106.041C87.1862 105.116 88.2555 104.654 89.5503 104.654C90.9375 104.654 92.0125 105.128 92.7755 106.076C93.55 107.012 93.9373 108.18 93.9373 109.578C93.9373 109.833 93.9257 110.029 93.9026 110.168H87.1747C87.2903 110.896 87.5851 111.468 88.059 111.885C88.533 112.289 89.1168 112.491 89.8104 112.491C90.712 112.491 91.5386 112.127 92.29 111.399L93.5211 112.491C92.5732 113.636 91.3247 114.208 89.7757 114.208ZM87.1573 108.781H91.8565C91.7871 108.075 91.5501 107.497 91.1455 107.047C90.7409 106.596 90.2034 106.37 89.5329 106.37C88.8971 106.37 88.3654 106.596 87.9376 107.047C87.5099 107.486 87.2498 108.064 87.1573 108.781Z" fill="#DCD2FF"/>
<path d="M10.25 0C7.90279 0 6 1.90279 6 4.25V80.75C6 83.0972 7.90279 85 10.25 85H86.75C89.0972 85 91 83.0972 91 80.75V4.25C91 1.90279 89.0972 0 86.75 0H10.25ZM36.1236 40.8192V40.8192C36.1236 44.6228 35.9767 55.9688 36.1041 59.7702C36.1172 60.1615 36.1236 60.5674 36.1236 60.9887V65.863C36.1236 68.2102 34.2208 70.113 31.8736 70.113H24.9615C22.6143 70.113 20.7115 68.2102 20.7115 65.863V58.1073C20.7115 56.8041 19.9549 56.1375 18.9269 55.6852C17.2645 54.9537 16.0412 53.5259 16.0412 51.7097V49.1377C16.0412 47.3216 17.2552 45.8409 18.8772 45.024C19.9304 44.4936 20.7115 43.7994 20.7115 42.7401V34.2641C20.7115 31.9169 22.6143 30.0141 24.9615 30.0141H31.8736C34.2208 30.0141 36.1236 31.9169 36.1236 34.2641V40.8192ZM36.1236 23.6031C36.1236 25.9503 34.2208 27.8531 31.8736 27.8531H24.728C22.3808 27.8531 20.478 25.9503 20.478 23.6031V19.6172C20.478 17.27 22.3808 15.3672 24.728 15.3672H31.8736C34.2208 15.3672 36.1236 17.27 36.1236 19.6172V23.6031ZM59.0082 72.0339C45.2308 72.0339 38.4588 64.3503 38.4588 54.7458V54.7458C38.4588 53.1544 39.7488 51.8644 41.3401 51.8644H52.6703C53.3334 51.8644 53.8709 52.4019 53.8709 53.065V53.065C53.8054 53.7348 53.8776 54.4112 54.0828 55.0505C54.288 55.6897 54.6216 56.2775 55.062 56.7756C55.5024 57.2737 56.0397 57.6711 56.6391 57.9418C57.2385 58.2126 57.8865 58.3508 58.5412 58.3475C61.3434 58.3475 62.7445 56.9068 62.7445 54.7458C62.7445 48.5028 39.1593 49.4633 39.1593 31.6949C39.1593 22.0904 44.9973 13.6864 59.7088 13.6864C72.7857 13.6864 79.3242 21.3701 79.3242 30.9746V30.9746C79.3242 32.6985 77.9266 34.096 76.2027 34.096H65.5929C64.6646 34.096 63.9121 33.3435 63.9121 32.4153V32.4153C63.9871 31.7949 63.9354 31.1652 63.7601 30.5666C63.5848 29.9679 63.2899 29.4135 62.8942 28.9389C62.4985 28.4642 62.0108 28.0797 61.4623 27.8101C60.9138 27.5404 60.3165 27.3915 59.7088 27.3729C59.2256 27.3208 58.7372 27.3763 58.2767 27.5355C57.8162 27.6947 57.3944 27.9539 57.04 28.2956C56.6856 28.6372 56.4068 29.0533 56.2226 29.5156C56.0384 29.9778 55.9531 30.4754 55.9725 30.9746C55.9725 37.9378 79.5577 36.2571 79.5577 54.0254C79.5577 63.3898 73.2527 72.0339 59.0082 72.0339Z" fill="white"/>
</svg>
