<svg width="200" height="200" viewBox="0 0 200 200" fill="none" xmlns="http://www.w3.org/2000/svg">
<g clip-path="url(#clip0)">
<path d="M185.067 182.433C183.107 182.438 181.166 182.029 179.353 181.229C177.541 180.429 175.893 179.255 174.505 177.772L162.444 164.839L183.593 142.159L195.641 155.092C197.732 157.334 199.156 160.19 199.732 163.3C200.308 166.409 200.01 169.632 198.876 172.56C197.742 175.488 195.824 177.989 193.363 179.747C190.903 181.504 188.011 182.439 185.054 182.433H185.067ZM170.109 164.839L178.331 173.656C179.659 175.094 181.357 176.076 183.208 176.475C185.059 176.874 186.979 176.672 188.723 175.895C190.466 175.118 191.954 173.802 192.997 172.114C194.04 170.426 194.59 168.443 194.576 166.419C194.582 165.078 194.339 163.75 193.863 162.51C193.387 161.27 192.687 160.144 191.803 159.195L183.593 150.379L170.109 164.839Z" fill="url(#paint0_linear)"/>
<path d="M144.428 137.87L126.09 118.178L128.777 116.2C132.461 113.415 135.694 110.001 138.348 106.095L140.206 103.267L158.445 122.866L144.428 137.87ZM134.411 118.895L144.428 129.651L150.768 122.866L140.8 112.15C139.933 113.252 138.992 114.354 137.94 115.469C136.825 116.682 135.646 117.826 134.411 118.895V118.895Z" fill="url(#paint1_linear)"/>
<path d="M34.262 101.474C33.6062 101.462 32.9767 101.195 32.4902 100.724C32.0037 100.252 31.6932 99.6069 31.6161 98.9084C31.539 98.2099 31.7006 97.5051 32.071 96.9246C32.4414 96.3441 32.9954 95.9272 33.6305 95.7512L60.6736 88.7136C61.03 88.5908 61.4062 88.5485 61.7786 88.5893C62.151 88.63 62.5115 88.7531 62.8373 88.9506C63.1632 89.1481 63.4474 89.4158 63.6721 89.7369C63.8968 90.0579 64.057 90.4254 64.1428 90.8162C64.2285 91.2069 64.2379 91.6124 64.1703 92.0073C64.1027 92.4021 63.9596 92.7776 63.75 93.1102C63.5405 93.4428 63.269 93.7253 62.9526 93.9399C62.6362 94.1545 62.2819 94.2965 61.9118 94.357L34.8192 101.395C34.6363 101.441 34.4497 101.467 34.262 101.474V101.474Z" fill="url(#paint2_linear)"/>
<path d="M75.5325 91.05C74.8757 91.0408 74.2443 90.7763 73.7556 90.3056C73.267 89.8348 72.9543 89.1899 72.8756 88.4906C72.7969 87.7913 72.9576 87.0851 73.3279 86.5032C73.6981 85.9214 74.2527 85.5034 74.8886 85.327L101.944 78.3425C102.3 78.2197 102.677 78.1774 103.049 78.2182C103.421 78.2589 103.782 78.382 104.108 78.5795C104.434 78.777 104.718 79.0447 104.943 79.3658C105.167 79.6868 105.328 80.0543 105.413 80.4451C105.499 80.8358 105.508 81.2414 105.441 81.6362C105.373 82.031 105.23 82.4065 105.021 82.7391C104.811 83.0718 104.539 83.3542 104.223 83.5688C103.907 83.7834 103.552 83.9254 103.182 83.9859L76.0897 91.0234C75.9053 91.0525 75.7186 91.0614 75.5325 91.05V91.05Z" fill="url(#paint3_linear)"/>
<path d="M138.125 51.2016C137.574 51.203 137.036 51.0234 136.582 50.6869C136.129 50.3504 135.783 49.8732 135.59 49.3194C135.397 48.7656 135.367 48.1617 135.504 47.589C135.64 47.0164 135.937 46.5023 136.355 46.1159L182.615 2.98753C182.88 2.71218 183.194 2.49756 183.538 2.35675C183.883 2.21595 184.25 2.15193 184.618 2.1686C184.987 2.18528 185.348 2.28229 185.68 2.45373C186.012 2.62516 186.308 2.86741 186.55 3.16568C186.792 3.46394 186.975 3.81197 187.087 4.18848C187.199 4.565 187.239 4.9621 187.203 5.35553C187.167 5.74896 187.057 6.13046 186.879 6.47672C186.702 6.82298 186.46 7.12673 186.169 7.36942L139.921 50.458C139.427 50.9319 138.788 51.1962 138.125 51.2016V51.2016Z" fill="url(#paint4_linear)"/>
<path d="M104.52 82.5253C104.132 82.5271 103.749 82.439 103.396 82.2671C103.044 82.0952 102.73 81.8436 102.476 81.5295C102.245 81.2392 102.068 80.9028 101.958 80.5395C101.847 80.1761 101.804 79.793 101.832 79.4119C101.859 79.0308 101.957 78.6593 102.118 78.3186C102.28 77.9779 102.503 77.6748 102.774 77.4264L126.535 55.2912C126.8 55.0159 127.114 54.8013 127.458 54.6605C127.803 54.5197 128.17 54.4556 128.539 54.4723C128.907 54.489 129.268 54.586 129.6 54.7574C129.933 54.9289 130.229 55.1711 130.47 55.4694C130.712 55.7677 130.895 56.1157 131.007 56.4922C131.12 56.8687 131.159 57.2658 131.123 57.6592C131.088 58.0527 130.978 58.4342 130.8 58.7804C130.622 59.1267 130.38 59.4304 130.089 59.6731L106.303 81.8216C105.806 82.278 105.173 82.5278 104.52 82.5253V82.5253Z" fill="url(#paint5_linear)"/>
<path d="M22.5607 116.651C19.662 116.664 16.8248 115.755 14.4083 114.038C11.9918 112.321 10.1047 109.874 8.98574 107.006C7.86682 104.139 7.56645 100.98 8.12264 97.9288C8.67884 94.878 10.0666 92.0728 12.1102 89.8682C14.1539 87.6637 16.7615 86.1589 19.603 85.5444C22.4446 84.9299 25.3923 85.2333 28.0729 86.4161C30.7536 87.599 33.0467 89.6082 34.662 92.1894C36.2773 94.7705 37.1422 97.8076 37.1471 100.916C37.1472 105.073 35.6132 109.061 32.8802 112.01C30.1471 114.958 26.4372 116.626 22.5607 116.651V116.651ZM22.5607 91.0502C20.7351 91.0502 18.9506 91.6311 17.4331 92.7192C15.9155 93.8074 14.7332 95.354 14.0357 97.1631C13.3382 98.9723 13.157 100.963 13.5149 102.882C13.8729 104.802 14.7539 106.565 16.0465 107.947C17.3391 109.329 18.9852 110.27 20.7762 110.648C22.5673 111.027 24.4229 110.827 26.1081 110.074C27.7933 109.322 29.2323 108.05 30.2429 106.419C31.2536 104.789 31.7905 102.874 31.7856 100.916C31.7757 98.2981 30.7999 95.7908 29.0713 93.9421C27.3427 92.0934 25.002 91.0537 22.5607 91.0502V91.0502Z" fill="url(#paint6_linear)"/>
<path d="M184.163 25.8C184.023 25.8128 183.882 25.8128 183.742 25.8C183.39 25.7418 183.053 25.6096 182.749 25.411C182.445 25.2125 182.181 24.9514 181.971 24.6429C181.762 24.3344 181.611 23.9845 181.529 23.6134C181.446 23.2422 181.432 22.8572 181.488 22.4804L183.841 6.63922L168.475 8.36542C167.782 8.40065 167.104 8.15027 166.578 7.66572C166.053 7.18117 165.72 6.49923 165.649 5.75994C165.577 5.02065 165.773 4.28014 166.195 3.69049C166.617 3.10083 167.233 2.70679 167.917 2.5893L190.305 0L186.838 23.3568C186.735 24.0382 186.409 24.6581 185.919 25.1057C185.429 25.5533 184.807 25.7994 184.163 25.8V25.8Z" fill="url(#paint7_linear)"/>
<path d="M75.5325 200H49.7648V130.129H75.5325V200ZM55.2378 194.184H70.0966V135.905H55.2378V194.184Z" fill="url(#paint8_linear)"/>
<path d="M41.3572 200H15.6514V146.368H41.3572V200ZM21.0501 194.184H35.9089V152.184H21.0501V194.184Z" fill="url(#paint9_linear)"/>
<path d="M109.695 200H83.9896V148.294H109.695V200ZM89.4007 194.184H104.26V154.11H89.4007V194.184Z" fill="url(#paint10_linear)"/>
<path d="M143.92 200H118.214V164.016H143.92V200ZM123.638 194.184H138.497V169.818H123.638V194.184Z" fill="url(#paint11_linear)"/>
<path d="M154.371 200.001H2.71174C1.99254 200.001 1.3028 199.694 0.79425 199.149C0.2857 198.603 0 197.864 0 197.093C0 196.321 0.2857 195.582 0.79425 195.036C1.3028 194.491 1.99254 194.185 2.71174 194.185H154.371C155.09 194.185 155.78 194.491 156.288 195.036C156.797 195.582 157.083 196.321 157.083 197.093C157.083 197.864 156.797 198.603 156.288 199.149C155.78 199.694 155.09 200.001 154.371 200.001Z" fill="url(#paint12_linear)"/>
<path d="M140.193 46.4748C139.562 45.6648 138.819 44.8017 137.94 43.8191C132.441 37.9351 125.674 33.5954 118.238 31.1838C110.803 28.7723 102.927 28.3634 95.3091 29.9932C87.691 31.623 80.5649 35.2414 74.5615 40.5281C68.558 45.8148 63.8623 52.6068 60.8897 60.3032C57.9172 67.9996 56.7595 76.3631 57.5191 84.6536C58.2787 92.9441 60.9322 100.906 65.2448 107.835C69.5574 114.764 75.3961 120.446 82.2442 124.378C89.0924 128.311 96.7389 130.373 104.507 130.381C114.165 130.385 123.586 127.179 131.476 121.206L131.823 120.993C134.01 119.369 136.057 117.538 137.94 115.523C139.696 113.683 141.295 111.679 142.719 109.534C142.93 109.215 143.115 108.937 143.227 108.751C149.302 99.5072 152.305 88.3432 151.755 77.05C151.205 65.7568 147.133 54.9892 140.193 46.4748V46.4748ZM138.683 105.471C138.571 105.67 138.447 105.856 138.274 106.108C137.028 108.012 135.623 109.789 134.076 111.42C132.455 113.184 130.69 114.788 128.801 116.213L128.467 116.452C121.944 121.341 114.256 124.133 106.305 124.499C98.3546 124.865 90.4715 122.791 83.5819 118.519C76.6924 114.248 71.0825 107.957 67.4113 100.385C63.74 92.8137 62.1599 84.2758 62.8564 75.7745C63.5529 67.2732 66.4971 59.1616 71.3433 52.3925C76.1895 45.6233 82.7363 40.4776 90.2149 37.5599C97.6934 34.6422 105.793 34.0736 113.563 35.9209C121.332 37.7682 128.449 41.9547 134.076 47.9886C134.755 48.7007 135.4 49.4497 136.008 50.2326V50.2326C142.175 57.7797 145.792 67.3335 146.277 77.3544C146.763 87.3754 144.087 97.2796 138.683 105.471V105.471Z" fill="url(#paint13_linear)"/>
<path d="M130.324 55.5702C129.817 54.9328 129.272 54.2424 128.715 53.7112C123.929 48.5621 117.827 45.0515 111.18 43.6242C104.533 42.1968 97.6406 42.9168 91.3754 45.6929C85.1103 48.4691 79.7543 53.1766 75.9857 59.2192C72.2171 65.2619 70.2054 72.3679 70.2054 79.6374C70.2054 86.9069 72.2171 94.0129 75.9857 100.056C79.7543 106.098 85.1103 110.806 91.3754 113.582C97.6406 116.358 104.533 117.078 111.18 115.651C117.827 114.223 123.929 110.713 128.715 105.564C130.136 104.064 131.421 102.423 132.553 100.664C136.953 93.9691 139.126 85.882 138.722 77.7031C138.317 69.5241 135.36 61.7286 130.324 55.5702V55.5702ZM128.108 97.3442C127.162 98.8211 126.084 100.195 124.889 101.447C123.704 102.719 122.415 103.875 121.038 104.9C116.548 108.271 111.255 110.197 105.78 110.454C100.304 110.71 94.8744 109.285 90.1284 106.346C85.3823 103.407 81.5171 99.0759 78.9871 93.8624C76.4571 88.649 75.3673 82.7694 75.8458 76.9147C76.3244 71.06 78.3514 65.4734 81.6887 60.8115C85.0259 56.1496 89.5347 52.606 94.6852 50.5973C99.8357 48.5886 105.414 48.1981 110.764 49.4719C116.114 50.7456 121.015 53.6305 124.889 57.7877C125.359 58.3056 125.817 58.8367 126.251 59.3678C130.493 64.5544 132.983 71.1214 133.319 78.0107C133.656 84.8999 131.821 91.7102 128.108 97.3442V97.3442Z" fill="url(#paint14_linear)"/>
<path d="M175.644 85.1812C176.018 85.6528 176.552 85.9458 177.128 85.9956C177.704 86.0454 178.275 85.848 178.715 85.4467C179.155 85.0428 179.429 84.4681 179.475 83.8484C179.522 83.2287 179.337 82.6146 178.962 82.1404C178.582 81.6728 178.046 81.3843 177.469 81.3372C176.892 81.29 176.321 81.4878 175.879 81.8881V81.8881C175.444 82.2935 175.175 82.8665 175.131 83.4828C175.087 84.0992 175.271 84.7094 175.644 85.1812ZM169.453 77.3601C169.827 77.8318 170.361 78.1248 170.937 78.1746C171.513 78.2244 172.083 78.0269 172.523 77.6257V77.6257C172.964 77.2218 173.238 76.6471 173.284 76.0274C173.33 75.4077 173.146 74.7936 172.771 74.3194V74.3194C172.391 73.8518 171.855 73.5633 171.278 73.5161C170.701 73.4689 170.13 73.6668 169.688 74.0671V74.0671C169.245 74.465 168.967 75.0342 168.914 75.6508C168.861 76.2674 169.036 76.8817 169.403 77.3601H169.453ZM182.021 79.3519C182.399 79.8186 182.933 80.1067 183.508 80.154C184.083 80.2012 184.652 80.0037 185.092 79.6042V79.6042C185.31 79.4054 185.489 79.1622 185.619 78.8886C185.75 78.6151 185.828 78.3165 185.85 78.0103C185.872 77.7041 185.837 77.3962 185.747 77.1046C185.657 76.8129 185.514 76.5433 185.327 76.3111V76.3111C184.952 75.8395 184.419 75.5465 183.843 75.4967C183.267 75.4469 182.696 75.6443 182.256 76.0456V76.0456C181.817 76.4514 181.546 77.0271 181.502 77.6467C181.458 78.2663 181.644 78.8794 182.021 79.3519ZM175.83 71.5309C176.206 72.0007 176.741 72.2911 177.316 72.3384C177.892 72.3857 178.462 72.186 178.9 71.7832V71.7832C179.338 71.3797 179.609 70.8063 179.653 70.1889C179.698 69.5714 179.511 68.9605 179.136 68.4901V68.4901C178.761 68.0184 178.227 67.7255 177.652 67.6757C177.076 67.6259 176.505 67.8233 176.065 68.2246V68.2246C175.626 68.6304 175.355 69.206 175.311 69.8257C175.267 70.4453 175.453 71.0584 175.83 71.5309ZM163.088 69.3798C163.464 69.8496 163.999 70.14 164.575 70.1873C165.151 70.2346 165.72 70.0349 166.159 69.6321V69.6321C166.599 69.2305 166.872 68.658 166.918 68.0405C166.965 67.423 166.781 66.811 166.407 66.339V66.339C166.221 66.1049 165.994 65.9125 165.739 65.773C165.484 65.6334 165.206 65.5495 164.92 65.526C164.635 65.5026 164.348 65.54 164.076 65.6363C163.804 65.7325 163.552 65.8856 163.336 66.0867V66.0867C163.113 66.2809 162.929 66.5202 162.793 66.7909C162.657 67.0616 162.572 67.3585 162.544 67.6644C162.515 67.9703 162.543 68.2793 162.626 68.5736C162.708 68.868 162.845 69.142 163.026 69.3798H163.088ZM163.162 96.7068C163.539 97.1766 164.073 97.467 164.649 97.5143C165.225 97.5616 165.795 97.3619 166.233 96.9591C166.671 96.5557 166.942 95.9822 166.986 95.3648C167.03 94.7474 166.844 94.1364 166.468 93.6661V93.6661C166.283 93.432 166.056 93.2396 165.801 93.1C165.546 92.9605 165.268 92.8765 164.982 92.8531C164.697 92.8296 164.41 92.8671 164.138 92.9633C163.866 93.0596 163.614 93.2127 163.398 93.4138C163.175 93.6078 162.99 93.8474 162.855 94.1187C162.719 94.3899 162.635 94.6873 162.607 94.9937C162.579 95.3001 162.609 95.6093 162.693 95.9034C162.778 96.1975 162.917 96.4706 163.1 96.7068H163.162ZM169.453 63.5107C169.638 63.7448 169.865 63.9372 170.12 64.0768C170.375 64.2163 170.653 64.3003 170.939 64.3237C171.225 64.3472 171.512 64.3097 171.784 64.2135C172.056 64.1172 172.307 63.9641 172.523 63.763V63.763C172.742 63.5642 172.921 63.321 173.051 63.0474C173.181 62.7739 173.26 62.4753 173.282 62.1691C173.303 61.8629 173.269 61.555 173.179 61.2634C173.089 60.9717 172.946 60.7021 172.759 60.47V60.47C172.382 60.0002 171.848 59.7098 171.272 59.6625C170.696 59.6152 170.126 59.8148 169.688 60.2177V60.2177C169.463 60.413 169.276 60.6545 169.139 60.928C169.002 61.2015 168.918 61.5016 168.89 61.8106C168.862 62.1197 168.892 62.4315 168.978 62.728C169.064 63.0245 169.205 63.2996 169.391 63.5373L169.453 63.5107ZM164.103 56.8715C164.483 57.3335 165.017 57.6163 165.589 57.6586C166.162 57.7008 166.727 57.4991 167.162 57.0972V57.0972C167.602 56.6956 167.875 56.1232 167.921 55.5057C167.968 54.8882 167.784 54.2762 167.41 53.8042V53.8042C167.224 53.57 166.997 53.3777 166.742 53.2381C166.487 53.0986 166.209 53.0146 165.923 52.9912C165.638 52.9677 165.351 53.0052 165.079 53.1014C164.807 53.1977 164.555 53.3508 164.339 53.5519C164.117 53.747 163.934 53.987 163.799 54.2582C163.664 54.5294 163.581 54.8264 163.553 55.1323C163.526 55.4382 163.555 55.7469 163.638 56.0408C163.722 56.3347 163.859 56.6079 164.042 56.8449L164.103 56.8715ZM169.515 90.8909C169.889 91.3626 170.423 91.6555 170.999 91.7053C171.575 91.7551 172.145 91.5577 172.585 91.1565C173.026 90.7525 173.3 90.1778 173.346 89.5581C173.392 88.9385 173.208 88.3243 172.833 87.8501C172.642 87.602 172.405 87.3986 172.138 87.2525C171.871 87.1064 171.578 87.0207 171.279 87.0008C170.979 86.9809 170.679 87.0271 170.397 87.1367C170.115 87.2462 169.857 87.4167 169.638 87.6377V87.6377C169.228 88.0479 168.981 88.6111 168.946 89.2113C168.911 89.8115 169.093 90.4031 169.453 90.8643L169.515 90.8909ZM163.323 83.1761C163.509 83.4102 163.736 83.6026 163.991 83.7422C164.246 83.8817 164.524 83.9656 164.81 83.9891C165.095 84.0126 165.382 83.9751 165.654 83.8789C165.926 83.7826 166.178 83.6295 166.394 83.4284V83.4284C166.832 83.0249 167.103 82.4515 167.147 81.8341C167.191 81.2166 167.005 80.6057 166.629 80.1353V80.1353C166.253 79.6656 165.718 79.3752 165.143 79.3279C164.567 79.2806 163.997 79.4802 163.559 79.883C163.124 80.282 162.854 80.8481 162.805 81.4592C162.756 82.0703 162.934 82.6774 163.299 83.1495L163.323 83.1761Z" fill="url(#paint15_linear)"/>
<path d="M37.0233 81.8885V81.769C36.85 80.242 36.7385 78.6353 36.6766 77.0286V76.9091L39.9208 76.7498V76.8693C39.9208 78.4494 40.0941 79.9632 40.2427 81.3972V81.5167L37.0233 81.8885ZM39.8836 72.4741L36.6271 72.3812V72.1554C36.6271 70.6151 36.7633 69.0616 36.8871 67.508V67.3885L40.1189 67.7072V67.8267C39.9827 69.2873 39.896 70.8276 39.8589 72.3546L39.8836 72.4741ZM40.6637 63.458L37.4567 62.9003V62.7808C37.7167 61.1874 37.9891 59.6073 38.3358 58.1201V58.0006L41.5057 58.784V58.9035C41.1838 60.4173 40.899 61.9045 40.6637 63.3385V63.458ZM42.4963 54.6279L39.475 53.632V53.5125C39.9084 51.9987 40.4037 50.4717 40.9485 49.0111V48.9181L43.9822 50.1663V50.2858C43.5117 51.6137 43.0288 53.0477 42.6201 54.442L43.165 54.6279H42.4963ZM45.6167 46.2359L42.6697 44.7487L42.744 44.6425C43.3507 43.3146 43.9822 41.8275 44.7499 40.4067L44.8861 40.3403L47.635 41.9868L47.5731 42.0797C46.8962 43.381 46.2523 44.7089 45.6414 46.0633L45.6167 46.2359ZM49.74 38.3352L47.053 36.4364L47.1273 36.3435C47.9198 35.0156 48.7866 33.6878 49.6781 32.4396L49.74 32.3466L52.2908 34.5243V34.6173C51.4488 35.7858 50.6439 37.0339 49.8143 38.3087L49.74 38.3352ZM54.8044 31.1383L52.2289 28.7216H52.4641C53.4176 27.5531 54.3958 26.4244 55.3987 25.3489L55.2873 25.2294H55.5845L57.7885 27.593L57.7266 27.6859C56.7484 28.7083 55.8197 29.8105 54.8415 30.9922L54.8044 31.1383ZM141.989 25.8269H141.852C140.812 24.8045 139.735 23.8086 138.645 22.8924L138.559 22.7994L140.577 20.1437H140.664C141.815 21.1131 142.942 22.1621 144.019 23.2111H144.217L141.989 25.8269ZM60.7727 24.8045L58.6429 22.1488V21.8832L58.7667 22.0558C59.8564 21.0334 60.9956 20.0508 62.1224 19.1213L62.209 19.0549L64.1902 21.8434L64.1036 21.9098C62.952 22.8127 61.85 23.7688 60.8098 24.7514L60.7727 24.8045ZM135.327 20.25L135.24 20.1703C134.076 19.3205 132.888 18.4839 131.687 17.7403H131.6L133.247 14.6066L133.333 14.673C134.572 15.4564 135.81 16.293 137.048 17.2092H137.221L135.327 20.25ZM67.5087 19.3205L65.7256 16.4125L65.8123 16.3461C67.0506 15.483 68.2888 14.673 69.6261 13.8763H69.7128L71.2977 16.9171H71.211C69.9728 17.6474 68.7346 18.4308 67.5954 19.2674L67.5087 19.3205ZM128.096 15.6423L127.984 15.576C126.746 14.9253 125.508 14.2481 124.17 13.6904H124.059L125.297 10.477H125.409C126.795 11.0746 128.133 11.8049 129.433 12.4422H129.544L128.096 15.6423ZM74.8514 14.9253L73.4894 11.7119L73.6008 11.6455C74.9381 10.9683 76.3002 10.3177 77.687 9.78655H77.7737L78.95 13.0398H78.8633C77.6251 13.5709 76.263 14.1684 74.9877 14.8058L74.8514 14.9253ZM120.295 12.1634H120.208C118.858 11.6721 117.496 11.2605 116.147 10.8355H116.048L116.865 7.4761H116.976C118.388 7.90101 119.812 8.3392 121.199 8.80395H121.347L120.295 12.1634ZM82.739 11.5924L81.7856 8.24625H81.897C83.2838 7.7815 84.7326 7.36987 86.1813 6.99808H86.2928L87.0357 10.3974H86.9242C85.5993 10.7559 84.2373 11.141 82.8505 11.5924H82.739ZM112.172 9.78655H112.085C110.624 9.5077 109.225 9.26869 107.875 9.10935H107.789L108.16 5.64367H108.271C109.72 5.82957 111.194 6.06858 112.642 6.36071H112.754L112.172 9.78655ZM90.9485 9.52098L90.3913 6.08186H90.5028C91.9515 5.81629 93.4498 5.61712 94.9233 5.47105H95.0347L95.3443 8.92345H95.2328C93.7965 9.05624 92.3973 9.24213 91.0476 9.48115L90.9485 9.52098ZM103.777 8.76411H103.678C102.303 8.76411 100.854 8.67116 99.4428 8.76411H99.3438L99.2695 5.28516H99.3809C100.793 5.28516 102.216 5.28516 103.826 5.28516H103.938L103.777 8.76411Z" fill="url(#paint16_linear)"/>
<path d="M112.963 88.6929C117.624 83.694 117.624 75.5892 112.963 70.5903C108.301 65.5915 100.743 65.5915 96.0817 70.5903C91.4202 75.5892 91.4202 83.694 96.0817 88.6929C100.743 93.6917 108.301 93.6917 112.963 88.6929Z" fill="url(#paint17_linear)"/>
<path d="M166.283 168.942L137.036 137.578L158.172 114.912L187.419 146.276L166.283 168.942ZM144.688 137.578L166.283 160.736L179.755 146.276L158.172 123.118L144.688 137.578Z" fill="url(#paint18_linear)"/>
</g>
<defs>
<linearGradient id="paint0_linear" x1="162.444" y1="162.303" x2="200" y2="162.303" gradientUnits="userSpaceOnUse">
<stop stop-color="#E3F24C"/>
<stop offset="0.2" stop-color="#CAED62"/>
<stop offset="1" stop-color="#64D8BC"/>
</linearGradient>
<linearGradient id="paint1_linear" x1="3420.81" y1="3245.28" x2="4265.6" y2="3245.28" gradientUnits="userSpaceOnUse">
<stop stop-color="#E3F24C"/>
<stop offset="0.2" stop-color="#CAED62"/>
<stop offset="1" stop-color="#64D8BC"/>
</linearGradient>
<linearGradient id="paint2_linear" x1="863.019" y1="1011.96" x2="1719.56" y2="1011.96" gradientUnits="userSpaceOnUse">
<stop stop-color="#E3F24C"/>
<stop offset="0.2" stop-color="#CAED62"/>
<stop offset="1" stop-color="#64D8BC"/>
</linearGradient>
<linearGradient id="paint3_linear" x1="1990.48" y1="897.242" x2="2847.32" y2="897.242" gradientUnits="userSpaceOnUse">
<stop stop-color="#E3F24C"/>
<stop offset="0.2" stop-color="#CAED62"/>
<stop offset="1" stop-color="#64D8BC"/>
</linearGradient>
<linearGradient id="paint4_linear" x1="5800.39" y1="989.742" x2="7961.85" y2="989.742" gradientUnits="userSpaceOnUse">
<stop stop-color="#E3F24C"/>
<stop offset="0.2" stop-color="#CAED62"/>
<stop offset="1" stop-color="#64D8BC"/>
</linearGradient>
<linearGradient id="paint5_linear" x1="2511.88" y1="1502.98" x2="3203.07" y2="1502.98" gradientUnits="userSpaceOnUse">
<stop stop-color="#E3F24C"/>
<stop offset="0.2" stop-color="#CAED62"/>
<stop offset="1" stop-color="#64D8BC"/>
</linearGradient>
<linearGradient id="paint6_linear" x1="42.7811" y1="109.613" x2="-4.11184" y2="92.1291" gradientUnits="userSpaceOnUse">
<stop stop-color="#FF059D"/>
<stop offset="0.45" stop-color="#FF9841"/>
<stop offset="1" stop-color="#FFF904"/>
</linearGradient>
<linearGradient id="paint7_linear" x1="3462.83" y1="250.612" x2="3957.22" y2="250.612" gradientUnits="userSpaceOnUse">
<stop stop-color="#E3F24C"/>
<stop offset="0.2" stop-color="#CAED62"/>
<stop offset="1" stop-color="#64D8BC"/>
</linearGradient>
<linearGradient id="paint8_linear" x1="1085.37" y1="8815.12" x2="1620.31" y2="8815.12" gradientUnits="userSpaceOnUse">
<stop stop-color="#E3F24C"/>
<stop offset="0.2" stop-color="#CAED62"/>
<stop offset="1" stop-color="#64D8BC"/>
</linearGradient>
<linearGradient id="paint9_linear" x1="48.056" y1="193.693" x2="-5.17747" y2="145.137" gradientUnits="userSpaceOnUse">
<stop stop-color="#1A58FF"/>
<stop offset="0.05" stop-color="#1963FF"/>
<stop offset="0.23" stop-color="#1685FF"/>
<stop offset="0.42" stop-color="#13A0FF"/>
<stop offset="0.6" stop-color="#11B3FF"/>
<stop offset="0.8" stop-color="#10BEFF"/>
<stop offset="1" stop-color="#10C2FF"/>
</linearGradient>
<linearGradient id="paint10_linear" x1="2505.73" y1="7679.32" x2="871.244" y2="6942.96" gradientUnits="userSpaceOnUse">
<stop stop-color="#FF059D"/>
<stop offset="0.45" stop-color="#FF9841"/>
<stop offset="1" stop-color="#FFF904"/>
</linearGradient>
<linearGradient id="paint11_linear" x1="2572.35" y1="5096.42" x2="3106" y2="5096.42" gradientUnits="userSpaceOnUse">
<stop stop-color="#E3F24C"/>
<stop offset="0.2" stop-color="#CAED62"/>
<stop offset="1" stop-color="#64D8BC"/>
</linearGradient>
<linearGradient id="paint12_linear" x1="0" y1="1057.45" x2="19927.5" y2="1057.45" gradientUnits="userSpaceOnUse">
<stop stop-color="#E3F24C"/>
<stop offset="0.2" stop-color="#CAED62"/>
<stop offset="1" stop-color="#64D8BC"/>
</linearGradient>
<linearGradient id="paint13_linear" x1="12927.1" y1="8331.03" x2="1900.24" y2="3976.56" gradientUnits="userSpaceOnUse">
<stop stop-color="#1A58FF"/>
<stop offset="0.05" stop-color="#1963FF"/>
<stop offset="0.23" stop-color="#1685FF"/>
<stop offset="0.42" stop-color="#13A0FF"/>
<stop offset="0.6" stop-color="#11B3FF"/>
<stop offset="0.8" stop-color="#10BEFF"/>
<stop offset="1" stop-color="#10C2FF"/>
</linearGradient>
<linearGradient id="paint14_linear" x1="9405.17" y1="6058.25" x2="1409.74" y2="2898.29" gradientUnits="userSpaceOnUse">
<stop stop-color="#1A58FF"/>
<stop offset="0.05" stop-color="#1963FF"/>
<stop offset="0.23" stop-color="#1685FF"/>
<stop offset="0.42" stop-color="#13A0FF"/>
<stop offset="0.6" stop-color="#11B3FF"/>
<stop offset="0.8" stop-color="#10BEFF"/>
<stop offset="1" stop-color="#10C2FF"/>
</linearGradient>
<linearGradient id="paint15_linear" x1="3709.55" y1="3032.05" x2="2434.55" y2="2666.06" gradientUnits="userSpaceOnUse">
<stop stop-color="#1A58FF"/>
<stop offset="0.05" stop-color="#1963FF"/>
<stop offset="0.23" stop-color="#1685FF"/>
<stop offset="0.42" stop-color="#13A0FF"/>
<stop offset="0.6" stop-color="#11B3FF"/>
<stop offset="0.8" stop-color="#10BEFF"/>
<stop offset="1" stop-color="#10C2FF"/>
</linearGradient>
<linearGradient id="paint16_linear" x1="3219.15" y1="2517.11" x2="12567.7" y2="2517.11" gradientUnits="userSpaceOnUse">
<stop stop-color="#E3F24C"/>
<stop offset="0.2" stop-color="#CAED62"/>
<stop offset="1" stop-color="#64D8BC"/>
</linearGradient>
<linearGradient id="paint17_linear" x1="2420.23" y1="1872.73" x2="1847.64" y2="1441.58" gradientUnits="userSpaceOnUse">
<stop stop-color="#FF059D"/>
<stop offset="0.45" stop-color="#FF9841"/>
<stop offset="1" stop-color="#FFF904"/>
</linearGradient>
<linearGradient id="paint18_linear" x1="8108.27" y1="6039.84" x2="5084.19" y2="5751.92" gradientUnits="userSpaceOnUse">
<stop stop-color="#1A58FF"/>
<stop offset="0.05" stop-color="#1963FF"/>
<stop offset="0.23" stop-color="#1685FF"/>
<stop offset="0.42" stop-color="#13A0FF"/>
<stop offset="0.6" stop-color="#11B3FF"/>
<stop offset="0.8" stop-color="#10BEFF"/>
<stop offset="1" stop-color="#10C2FF"/>
</linearGradient>
<clipPath id="clip0">
<rect width="200" height="200" fill="white"/>
</clipPath>
</defs>
</svg>
