<svg width="200" height="200" viewBox="0 0 200 200" fill="none" xmlns="http://www.w3.org/2000/svg">
<path d="M25.2994 123.025H13.3061C12.9209 123.053 12.5344 122.996 12.1706 122.856C11.8069 122.716 11.4736 122.497 11.1915 122.212C10.9094 121.928 10.6845 121.584 10.5307 121.201C10.377 120.819 10.2976 120.406 10.2976 119.989C10.2976 119.572 10.377 119.16 10.5307 118.777C10.6845 118.395 10.9094 118.051 11.1915 117.766C11.4736 117.481 11.8069 117.262 12.1706 117.123C12.5344 116.983 12.9209 116.925 13.3061 116.953H25.2994C25.6847 116.925 26.0711 116.983 26.4349 117.123C26.7987 117.262 27.1319 117.481 27.414 117.766C27.6961 118.051 27.921 118.395 28.0748 118.777C28.2286 119.16 28.3079 119.572 28.3079 119.989C28.3079 120.406 28.2286 120.819 28.0748 121.201C27.921 121.584 27.6961 121.928 27.414 122.212C27.1319 122.497 26.7987 122.716 26.4349 122.856C26.0711 122.996 25.6847 123.053 25.2994 123.025Z" fill="url(#paint0_linear)"/>
<path d="M25.2994 93.8603H13.3061C12.9209 93.8884 12.5344 93.8308 12.1706 93.691C11.8069 93.5511 11.4736 93.3321 11.1915 93.0474C10.9094 92.7627 10.6845 92.4185 10.5307 92.0361C10.377 91.6536 10.2976 91.2411 10.2976 90.8242C10.2976 90.4073 10.377 89.9948 10.5307 89.6124C10.6845 89.23 10.9094 88.8857 11.1915 88.601C11.4736 88.3164 11.8069 88.0973 12.1706 87.9575C12.5344 87.8177 12.9209 87.76 13.3061 87.7882H25.2994C25.6847 87.76 26.0711 87.8177 26.4349 87.9575C26.7987 88.0973 27.1319 88.3164 27.414 88.601C27.6961 88.8857 27.921 89.23 28.0748 89.6124C28.2286 89.9948 28.3079 90.4073 28.3079 90.8242C28.3079 91.2411 28.2286 91.6536 28.0748 92.0361C27.921 92.4185 27.6961 92.7627 27.414 93.0474C27.1319 93.3321 26.7987 93.5511 26.4349 93.691C26.0711 93.8308 25.6847 93.8884 25.2994 93.8603Z" fill="url(#paint1_linear)"/>
<path d="M25.299 152.191H13.3057C12.5583 152.191 11.8415 151.871 11.313 151.3C10.7845 150.729 10.4875 149.955 10.4875 149.148C10.4875 148.341 10.7845 147.567 11.313 146.997C11.8415 146.426 12.5583 146.105 13.3057 146.105H25.299C26.0465 146.105 26.7633 146.426 27.2918 146.997C27.8203 147.567 28.1172 148.341 28.1172 149.148C28.1172 149.955 27.8203 150.729 27.2918 151.3C26.7633 151.871 26.0465 152.191 25.299 152.191V152.191Z" fill="url(#paint2_linear)"/>
<path d="M25.299 64.709H13.3057C12.5583 64.709 11.8415 64.3884 11.313 63.8177C10.7845 63.2471 10.4875 62.4731 10.4875 61.666C10.4875 60.859 10.7845 60.085 11.313 59.5143C11.8415 58.9436 12.5583 58.623 13.3057 58.623H25.299C26.0465 58.623 26.7633 58.9436 27.2918 59.5143C27.8203 60.085 28.1172 60.859 28.1172 61.666C28.1172 62.4731 27.8203 63.2471 27.2918 63.8177C26.7633 64.3884 26.0465 64.709 25.299 64.709V64.709Z" fill="url(#paint3_linear)"/>
<path d="M25.299 35.542H13.3057C12.5583 35.542 11.8415 35.2214 11.313 34.6507C10.7845 34.0801 10.4875 33.3061 10.4875 32.499C10.4875 31.692 10.7845 30.918 11.313 30.3473C11.8415 29.7767 12.5583 29.4561 13.3057 29.4561H25.299C26.0465 29.4561 26.7633 29.7767 27.2918 30.3473C27.8203 30.918 28.1172 31.692 28.1172 32.499C28.1172 33.3061 27.8203 34.0801 27.2918 34.6507C26.7633 35.2214 26.0465 35.542 25.299 35.542V35.542Z" fill="url(#paint4_linear)"/>
<path d="M69.4764 178.064H43.8169V136.615H69.4764V178.064ZM49.479 171.978H63.8143V142.687H49.4404L49.479 171.978Z" fill="url(#paint5_linear)"/>
<path d="M105.302 178.063H79.6807V108.033H105.302V178.063ZM85.3041 171.977H99.6781V114.119H85.3041V171.977Z" fill="url(#paint6_linear)"/>
<path d="M141.179 178.063H115.545V120.774H141.179V178.063ZM121.181 171.977H135.542V126.846H121.181V171.977Z" fill="url(#paint7_linear)"/>
<path d="M177.043 178.063H151.422V72.6426H177.043V178.063ZM157.045 171.977H171.419V78.7146H157.045V171.977Z" fill="url(#paint8_linear)"/>
<path d="M159.954 19.4527C159.59 19.5229 159.243 19.6698 158.932 19.8848C158.622 20.0998 158.353 20.3789 158.142 20.7059C157.931 21.033 157.782 21.4018 157.703 21.7911C157.624 22.1804 157.617 22.5827 157.682 22.975C157.747 23.3673 157.883 23.742 158.082 24.0775C158.282 24.4131 158.54 24.703 158.843 24.9308C159.146 25.1585 159.487 25.3196 159.848 25.4048C160.208 25.49 160.581 25.4977 160.944 25.4275L171.406 23.3988L119.663 89.4689L92.1244 58.0804L54.3944 116.953H27.5124C27.1272 116.925 26.7407 116.982 26.3769 117.122C26.0132 117.262 25.6799 117.481 25.3978 117.766C25.1157 118.05 24.8908 118.395 24.737 118.777C24.5833 119.16 24.5039 119.572 24.5039 119.989C24.5039 120.406 24.5833 120.818 24.737 121.201C24.8908 121.583 25.1157 121.927 25.3978 122.212C25.6799 122.497 26.0132 122.716 26.3769 122.856C26.7407 122.996 27.1272 123.053 27.5124 123.025H57.3413L92.8193 67.6957L119.933 98.6534L175.486 27.6368L174.636 38.3914C174.576 39.1945 174.813 39.9908 175.295 40.6056C175.778 41.2203 176.466 41.6033 177.21 41.6706H177.455C178.158 41.6697 178.835 41.3835 179.352 40.8688C179.87 40.3542 180.189 39.6485 180.247 38.8916L182.113 15.1592L159.954 19.4527Z" fill="url(#paint9_linear)"/>
<path d="M94.0421 38.5718C94.0421 37.7473 93.8156 36.9414 93.3915 36.2559C92.9673 35.5704 92.3643 35.0361 91.6589 34.7206C90.9535 34.4051 90.1773 34.3226 89.4284 34.4834C88.6795 34.6443 87.9917 35.0413 87.4518 35.6242C86.9119 36.2072 86.5442 36.95 86.3952 37.7586C86.2463 38.5672 86.3227 39.4053 86.6149 40.167C86.9071 40.9287 87.4019 41.5797 88.0368 42.0377C88.6716 42.4958 89.418 42.7402 90.1815 42.7402C90.6909 42.7496 91.1968 42.6482 91.6691 42.4421C92.1415 42.2359 92.5705 41.9292 92.9307 41.5403C93.291 41.1513 93.575 40.688 93.7659 40.178C93.9569 39.6681 94.0508 39.1218 94.0421 38.5718V38.5718Z" fill="url(#paint10_linear)"/>
<path d="M70.4285 68.7944C70.4285 67.97 70.2021 67.1641 69.7779 66.4786C69.3537 65.7931 68.7508 65.2588 68.0454 64.9433C67.34 64.6278 66.5637 64.5452 65.8149 64.7061C65.066 64.8669 64.3781 65.2639 63.8382 65.8469C63.2983 66.4299 62.9307 67.1726 62.7817 67.9812C62.6327 68.7898 62.7092 69.6279 63.0014 70.3896C63.2936 71.1513 63.7884 71.8023 64.4232 72.2604C65.0581 72.7184 65.8045 72.9629 66.568 72.9629C67.5919 72.9629 68.5738 72.5237 69.2978 71.742C70.0218 70.9602 70.4285 69.9 70.4285 68.7944V68.7944Z" fill="url(#paint11_linear)"/>
<path d="M50.0965 100.695C50.0964 99.8678 49.8683 99.0592 49.4412 98.3723C49.014 97.6854 48.4073 97.1512 47.6981 96.8379C46.9889 96.5245 46.2094 96.4461 45.4589 96.6127C44.7083 96.7792 44.0206 97.1832 43.4834 97.7731C42.9461 98.3631 42.5836 99.1123 42.442 99.9254C42.3004 100.739 42.3861 101.579 42.6882 102.339C42.9902 103.1 43.495 103.746 44.1383 104.195C44.7816 104.645 45.5342 104.877 46.3003 104.864C47.313 104.845 48.2785 104.398 48.9886 103.618C49.6988 102.839 50.0966 101.789 50.0965 100.695V100.695Z" fill="url(#paint12_linear)"/>
<path d="M116.806 62.207C116.253 62.7842 115.872 63.5266 115.713 64.339C115.553 65.1514 115.622 65.9967 115.91 66.7667C116.198 67.5366 116.693 68.196 117.331 68.6603C117.968 69.1246 118.72 69.3727 119.489 69.3727C120.258 69.3727 121.01 69.1246 121.648 68.6603C122.285 68.196 122.78 67.5366 123.068 66.7667C123.357 65.9967 123.425 65.1514 123.266 64.339C123.106 63.5266 122.725 62.7842 122.172 62.207C121.46 61.4391 120.495 61.0078 119.489 61.0078C118.483 61.0078 117.518 61.4391 116.806 62.207Z" fill="url(#paint13_linear)"/>
<path d="M143.624 35.6819C143.072 36.2599 142.693 37.0024 142.535 37.8142C142.377 38.6261 142.447 39.4705 142.736 40.2393C143.025 41.0081 143.519 41.6663 144.157 42.1298C144.794 42.5933 145.545 42.8408 146.313 42.8408C147.082 42.8408 147.832 42.5933 148.47 42.1298C149.107 41.6663 149.602 41.0081 149.891 40.2393C150.179 39.4705 150.249 38.6261 150.091 37.8142C149.933 37.0024 149.554 36.2599 149.003 35.6819C148.282 34.9265 147.317 34.5039 146.313 34.5039C145.309 34.5039 144.344 34.9265 143.624 35.6819V35.6819Z" fill="url(#paint14_linear)"/>
<path d="M122.391 4.84931C121.656 4.99303 121.003 5.44634 120.577 6.10951C120.151 6.77268 119.987 7.5914 120.12 8.38555C120.253 9.1797 120.673 9.88423 121.287 10.3442C121.901 10.8041 122.659 10.9817 123.395 10.838L133.818 8.80934L116.279 31.3885L88.7788 0L50.9845 58.8725H28.6064C28.2212 58.8444 27.8347 58.902 27.4709 59.0418C27.1072 59.1817 26.7739 59.4007 26.4918 59.6854C26.2097 59.9701 25.9848 60.3143 25.831 60.6967C25.6772 61.0792 25.5979 61.4916 25.5979 61.9086C25.5979 62.3255 25.6772 62.738 25.831 63.1204C25.9848 63.5028 26.2097 63.8471 26.4918 64.1317C26.7739 64.4164 27.1072 64.6355 27.4709 64.7753C27.8347 64.9151 28.2212 64.9727 28.6064 64.9446H53.9313L89.4094 9.61524L116.523 40.5035L137.936 13.0056L137.087 23.7741C137.026 24.5773 137.263 25.3735 137.746 25.9883C138.228 26.603 138.917 26.986 139.66 27.0533H139.905C140.608 27.0524 141.286 26.7663 141.803 26.2516C142.32 25.7369 142.639 25.0312 142.697 24.2743L144.563 0.5419L122.391 4.84931Z" fill="url(#paint15_linear)"/>
<path d="M197.182 171.977H30.3178V9.19868C30.3439 8.78271 30.2906 8.36539 30.1611 7.97262C30.0316 7.57984 29.8287 7.21999 29.5651 6.91539C29.3014 6.61079 28.9826 6.36794 28.6284 6.2019C28.2742 6.03587 27.8922 5.9502 27.5061 5.9502C27.12 5.9502 26.738 6.03587 26.3838 6.2019C26.0296 6.36794 25.7108 6.61079 25.4472 6.91539C25.1835 7.21999 24.9807 7.57984 24.8512 7.97262C24.7217 8.36539 24.6683 8.78271 24.6944 9.19868V171.977H2.81817C2.07074 171.977 1.35393 172.298 0.825423 172.868C0.296914 173.439 0 174.213 0 175.02C0 175.827 0.296914 176.601 0.825423 177.172C1.35393 177.742 2.07074 178.063 2.81817 178.063H24.6944V196.752C24.6683 197.168 24.7217 197.585 24.8512 197.978C24.9807 198.37 25.1835 198.73 25.4472 199.035C25.7108 199.339 26.0296 199.582 26.3838 199.748C26.738 199.914 27.12 200 27.5061 200C27.8922 200 28.2742 199.914 28.6284 199.748C28.9826 199.582 29.3014 199.339 29.5651 199.035C29.8287 198.73 30.0316 198.37 30.1611 197.978C30.2906 197.585 30.3439 197.168 30.3178 196.752V178.063H197.182C197.929 178.063 198.646 177.742 199.175 177.172C199.703 176.601 200 175.827 200 175.02C200 174.213 199.703 173.439 199.175 172.868C198.646 172.298 197.929 171.977 197.182 171.977V171.977Z" fill="url(#paint16_linear)"/>
<defs>
<linearGradient id="paint0_linear" x1="48.3724" y1="155.789" x2="-32.1219" y2="70.7699" gradientUnits="userSpaceOnUse">
<stop stop-color="#1A58FF"/>
<stop offset="0.05" stop-color="#1963FF"/>
<stop offset="0.23" stop-color="#1685FF"/>
<stop offset="0.42" stop-color="#13A0FF"/>
<stop offset="0.6" stop-color="#11B3FF"/>
<stop offset="0.8" stop-color="#10BEFF"/>
<stop offset="1" stop-color="#10C2FF"/>
</linearGradient>
<linearGradient id="paint1_linear" x1="874.972" y1="714.634" x2="682.563" y2="65.3623" gradientUnits="userSpaceOnUse">
<stop stop-color="#1A58FF"/>
<stop offset="0.05" stop-color="#1963FF"/>
<stop offset="0.23" stop-color="#1685FF"/>
<stop offset="0.42" stop-color="#13A0FF"/>
<stop offset="0.6" stop-color="#11B3FF"/>
<stop offset="0.8" stop-color="#10BEFF"/>
<stop offset="1" stop-color="#10C2FF"/>
</linearGradient>
<linearGradient id="paint2_linear" x1="490.014" y1="883.966" x2="294.199" y2="237.053" gradientUnits="userSpaceOnUse">
<stop stop-color="#1A58FF"/>
<stop offset="0.05" stop-color="#1963FF"/>
<stop offset="0.23" stop-color="#1685FF"/>
<stop offset="0.42" stop-color="#13A0FF"/>
<stop offset="0.6" stop-color="#11B3FF"/>
<stop offset="0.8" stop-color="#10BEFF"/>
<stop offset="1" stop-color="#10C2FF"/>
</linearGradient>
<linearGradient id="paint3_linear" x1="1040.24" y1="629.911" x2="844.4" y2="-16.9725" gradientUnits="userSpaceOnUse">
<stop stop-color="#1A58FF"/>
<stop offset="0.05" stop-color="#1963FF"/>
<stop offset="0.23" stop-color="#1685FF"/>
<stop offset="0.42" stop-color="#13A0FF"/>
<stop offset="0.6" stop-color="#11B3FF"/>
<stop offset="0.8" stop-color="#10BEFF"/>
<stop offset="1" stop-color="#10C2FF"/>
</linearGradient>
<linearGradient id="paint4_linear" x1="1223.58" y1="545.24" x2="1027.77" y2="-101.673" gradientUnits="userSpaceOnUse">
<stop stop-color="#1A58FF"/>
<stop offset="0.05" stop-color="#1963FF"/>
<stop offset="0.23" stop-color="#1685FF"/>
<stop offset="0.42" stop-color="#13A0FF"/>
<stop offset="0.6" stop-color="#11B3FF"/>
<stop offset="0.8" stop-color="#10BEFF"/>
<stop offset="1" stop-color="#10C2FF"/>
</linearGradient>
<linearGradient id="paint5_linear" x1="1557.98" y1="5379.83" x2="219.71" y2="4646.77" gradientUnits="userSpaceOnUse">
<stop stop-color="#1A58FF"/>
<stop offset="0.05" stop-color="#1963FF"/>
<stop offset="0.23" stop-color="#1685FF"/>
<stop offset="0.42" stop-color="#13A0FF"/>
<stop offset="0.6" stop-color="#11B3FF"/>
<stop offset="0.8" stop-color="#10BEFF"/>
<stop offset="1" stop-color="#10C2FF"/>
</linearGradient>
<linearGradient id="paint6_linear" x1="79.6807" y1="143.048" x2="105.302" y2="143.048" gradientUnits="userSpaceOnUse">
<stop stop-color="#E3F24C"/>
<stop offset="0.2" stop-color="#CAED62"/>
<stop offset="1" stop-color="#64D8BC"/>
</linearGradient>
<linearGradient id="paint7_linear" x1="3068.55" y1="7357.46" x2="1579.53" y2="6546.79" gradientUnits="userSpaceOnUse">
<stop stop-color="#1A58FF"/>
<stop offset="0.05" stop-color="#1963FF"/>
<stop offset="0.23" stop-color="#1685FF"/>
<stop offset="0.42" stop-color="#13A0FF"/>
<stop offset="0.6" stop-color="#11B3FF"/>
<stop offset="0.8" stop-color="#10BEFF"/>
<stop offset="1" stop-color="#10C2FF"/>
</linearGradient>
<linearGradient id="paint8_linear" x1="193.682" y1="172.283" x2="127.976" y2="82.4576" gradientUnits="userSpaceOnUse">
<stop stop-color="#FF059D"/>
<stop offset="0.45" stop-color="#FF9841"/>
<stop offset="1" stop-color="#FFF904"/>
</linearGradient>
<linearGradient id="paint9_linear" x1="3050.6" y1="5376.44" x2="22330.9" y2="5376.44" gradientUnits="userSpaceOnUse">
<stop stop-color="#1A58FF"/>
<stop offset="0.05" stop-color="#1963FF"/>
<stop offset="0.23" stop-color="#1685FF"/>
<stop offset="0.42" stop-color="#13A0FF"/>
<stop offset="0.6" stop-color="#11B3FF"/>
<stop offset="0.8" stop-color="#10BEFF"/>
<stop offset="1" stop-color="#10C2FF"/>
</linearGradient>
<linearGradient id="paint10_linear" x1="673.546" y1="293.367" x2="531.381" y2="219.95" gradientUnits="userSpaceOnUse">
<stop stop-color="#1A58FF"/>
<stop offset="0.05" stop-color="#1963FF"/>
<stop offset="0.23" stop-color="#1685FF"/>
<stop offset="0.42" stop-color="#13A0FF"/>
<stop offset="0.6" stop-color="#11B3FF"/>
<stop offset="0.8" stop-color="#10BEFF"/>
<stop offset="1" stop-color="#10C2FF"/>
</linearGradient>
<linearGradient id="paint11_linear" x1="538.863" y1="533.744" x2="404.366" y2="448.581" gradientUnits="userSpaceOnUse">
<stop stop-color="#FF059D"/>
<stop offset="0.45" stop-color="#FF9841"/>
<stop offset="1" stop-color="#FFF904"/>
</linearGradient>
<linearGradient id="paint12_linear" x1="297.478" y1="700.704" x2="343.032" y2="700.704" gradientUnits="userSpaceOnUse">
<stop stop-color="#E3F24C"/>
<stop offset="0.2" stop-color="#CAED62"/>
<stop offset="1" stop-color="#64D8BC"/>
</linearGradient>
<linearGradient id="paint13_linear" x1="876.226" y1="477.912" x2="792.448" y2="437.037" gradientUnits="userSpaceOnUse">
<stop stop-color="#FF059D"/>
<stop offset="0.45" stop-color="#FF9841"/>
<stop offset="1" stop-color="#FFF904"/>
</linearGradient>
<linearGradient id="paint14_linear" x1="997.633" y1="265.937" x2="1043.26" y2="265.937" gradientUnits="userSpaceOnUse">
<stop stop-color="#E3F24C"/>
<stop offset="0.2" stop-color="#CAED62"/>
<stop offset="1" stop-color="#64D8BC"/>
</linearGradient>
<linearGradient id="paint15_linear" x1="2410.85" y1="1517.92" x2="13391.3" y2="1517.92" gradientUnits="userSpaceOnUse">
<stop stop-color="#FF059D"/>
<stop offset="0.45" stop-color="#FF9841"/>
<stop offset="1" stop-color="#FFF904"/>
</linearGradient>
<linearGradient id="paint16_linear" x1="0" y1="14387" x2="31086" y2="14387" gradientUnits="userSpaceOnUse">
<stop stop-color="#E3F24C"/>
<stop offset="0.2" stop-color="#CAED62"/>
<stop offset="1" stop-color="#64D8BC"/>
</linearGradient>
</defs>
</svg>
