<svg width="200" height="200" viewBox="0 0 200 200" fill="none" xmlns="http://www.w3.org/2000/svg">
<g clip-path="url(#clip0)">
<path d="M153.511 66.3782L151.239 63.9182C147.223 59.5408 142.688 55.6154 137.725 52.2193L134.641 50.1227L143.715 41.5267C144.898 40.4061 146.302 39.5172 147.847 38.9108C149.393 38.3043 151.049 37.9922 152.722 37.9922C154.395 37.9922 156.051 38.3043 157.596 38.9108C159.142 39.5172 160.546 40.4061 161.729 41.5267C162.912 42.6473 163.85 43.9776 164.49 45.4417C165.13 46.9058 165.46 48.4751 165.46 50.0598C165.46 51.6445 165.13 53.2138 164.49 54.6779C163.85 56.142 162.912 57.4723 161.729 58.5929L153.511 66.3782ZM144.585 49.4099C147.88 51.8827 150.981 54.578 153.865 57.4747L157.244 54.2739C158.249 53.1325 158.766 51.6764 158.696 50.1917C158.625 48.707 157.97 47.3011 156.861 46.2502C155.752 45.1992 154.268 44.5793 152.701 44.5122C151.134 44.4452 149.597 44.9357 148.392 45.8876L144.585 49.4099Z" fill="url(#paint0_linear)"/>
<path d="M24.7417 66.3779L16.524 58.5925C14.2328 56.3089 12.9743 53.2674 13.0172 50.117C13.06 46.9666 14.4008 43.9568 16.7534 41.7299C19.1059 39.5029 22.284 38.2352 25.6094 38.1972C28.9348 38.1591 32.1443 39.3539 34.5529 41.5264L43.5969 50.1084L40.5429 52.205C35.584 55.6165 31.0458 59.5455 27.0138 63.9179L24.7417 66.3779ZM25.5384 44.1261C24.7161 44.1216 23.901 44.2725 23.141 44.5701C22.381 44.8677 21.6913 45.306 21.1123 45.8593C19.9447 46.9745 19.2895 48.4817 19.2895 50.0525C19.2895 51.6233 19.9447 53.1304 21.1123 54.2456L24.4762 57.4464C27.3668 54.5552 30.4731 51.8647 33.7709 49.3955L29.9793 45.8453C29.3954 45.2954 28.7023 44.8604 27.9402 44.5653C27.178 44.2703 26.3618 44.121 25.5384 44.1261V44.1261Z" fill="url(#paint1_linear)"/>
<path d="M42.7854 118.611H28.6219C27.765 118.611 26.9432 118.289 26.3372 117.715C25.7313 117.141 25.3909 116.362 25.3909 115.55C25.3909 114.738 25.7313 113.96 26.3372 113.386C26.9432 112.812 27.765 112.489 28.6219 112.489H42.7854C43.6423 112.489 44.4641 112.812 45.0701 113.386C45.676 113.96 46.0164 114.738 46.0164 115.55C46.0164 116.362 45.676 117.141 45.0701 117.715C44.4641 118.289 43.6423 118.611 42.7854 118.611Z" fill="url(#paint2_linear)"/>
<path d="M89.1265 74.6802C88.2722 74.6802 87.4526 74.3596 86.8471 73.7886C86.2415 73.2175 85.8994 72.4425 85.8955 71.6331V58.229C85.8955 57.4171 86.2359 56.6386 86.8419 56.0645C87.4478 55.4905 88.2696 55.168 89.1265 55.168C89.9835 55.168 90.8053 55.4905 91.4112 56.0645C92.0172 56.6386 92.3576 57.4171 92.3576 58.229V71.6331C92.3537 72.4425 92.0116 73.2175 91.406 73.7886C90.8005 74.3596 89.9809 74.6802 89.1265 74.6802V74.6802Z" fill="url(#paint3_linear)"/>
<path d="M89.1265 175.931C88.2696 175.931 87.4478 175.609 86.8419 175.035C86.2359 174.461 85.8955 173.682 85.8955 172.87V159.466C85.8955 158.654 86.2359 157.876 86.8419 157.302C87.4478 156.728 88.2696 156.405 89.1265 156.405C89.9835 156.405 90.8053 156.728 91.4112 157.302C92.0172 157.876 92.3576 158.654 92.3576 159.466V172.87C92.3576 173.682 92.0172 174.461 91.4112 175.035C90.8053 175.609 89.9835 175.931 89.1265 175.931V175.931Z" fill="url(#paint4_linear)"/>
<path d="M76.0254 38.214V15.9482H102.228V38.2L98.6132 37.7387C92.3222 37.0072 85.9605 37.0072 79.6695 37.7387L76.0254 38.214ZM89.1119 31.1135C91.3101 31.1135 93.5379 31.1974 95.7805 31.3651V22.0563H82.5022V31.3651C84.6858 31.1974 86.9136 31.1135 89.1119 31.1135V31.1135Z" fill="url(#paint5_linear)"/>
<path d="M107.701 22.0561H70.5517C67.4645 22.0561 64.5036 20.8942 62.3206 18.826C60.1376 16.7579 58.9111 13.9528 58.9111 11.028C58.9111 8.10321 60.1376 5.29819 62.3206 3.23004C64.5036 1.16188 67.4645 4.16703e-06 70.5517 4.16703e-06H107.701C109.229 -0.00125906 110.743 0.2847 112.153 0.841322C113.564 1.39794 114.844 2.21417 115.919 3.24272C117.549 4.7823 118.66 6.74553 119.111 8.88369C119.562 11.0219 119.333 13.2387 118.453 15.2535C117.573 17.2682 116.081 18.9902 114.167 20.2012C112.253 21.4122 110.003 22.0577 107.701 22.0561V22.0561ZM70.5517 6.12203C69.1756 6.12571 67.8569 6.64525 66.8838 7.56713C65.9108 8.48901 65.3624 9.73828 65.3585 11.042C65.3497 11.6815 65.4756 12.3162 65.7289 12.909C65.9823 13.5018 66.3579 14.0408 66.8338 14.4944C67.319 14.9448 67.8933 15.3002 68.5236 15.54C69.154 15.7799 69.8282 15.8995 70.5075 15.8921H107.701C109.065 15.8922 110.373 15.383 111.342 14.475C112.312 13.567 112.864 12.3334 112.88 11.042C112.886 9.744 112.357 8.49507 111.404 7.56168C110.925 7.11207 110.356 6.75704 109.73 6.51713C109.105 6.27721 108.435 6.15718 107.76 6.16396L70.5517 6.12203Z" fill="url(#paint6_linear)"/>
<path d="M89.1266 118.611C88.2885 118.61 87.4838 118.299 86.8841 117.744L51.9032 85.5965C51.4116 85.0178 51.1588 84.2895 51.1921 83.5473C51.2254 82.8052 51.5424 82.0998 52.0841 81.5627C52.6257 81.0256 53.3551 80.6934 54.1362 80.6281C54.9172 80.5628 55.6967 80.7688 56.3293 81.2077L91.2954 113.355C91.5956 113.638 91.8338 113.975 91.9964 114.345C92.1589 114.716 92.2426 115.113 92.2426 115.515C92.2426 115.916 92.1589 116.313 91.9964 116.684C91.8338 117.055 91.5956 117.391 91.2954 117.674C90.7275 118.24 89.9502 118.576 89.1266 118.611V118.611Z" fill="url(#paint7_linear)"/>
<path d="M89.1265 118.61C88.419 118.605 87.7327 118.38 87.1731 117.97C86.6135 117.56 86.2115 116.987 86.0289 116.339C85.8463 115.692 85.8931 115.005 86.1622 114.385C86.4313 113.765 86.9077 113.246 87.5184 112.908L124.402 92.7245C124.77 92.5063 125.181 92.3605 125.609 92.2959C126.038 92.2312 126.476 92.249 126.897 92.3482C127.318 92.4474 127.714 92.626 128.06 92.8732C128.407 93.1205 128.698 93.4314 128.915 93.7874C129.132 94.1433 129.271 94.5371 129.324 94.9451C129.377 95.3532 129.343 95.7672 129.223 96.1624C129.104 96.5576 128.901 96.9259 128.628 97.2454C128.355 97.5649 128.017 97.829 127.633 98.0219L90.7494 118.191C90.2578 118.466 89.6974 118.611 89.1265 118.61V118.61Z" fill="url(#paint8_linear)"/>
<path d="M98.1705 115.549C98.1705 113.855 97.64 112.198 96.6463 110.789C95.6525 109.38 94.24 108.282 92.5875 107.634C90.9349 106.985 89.1165 106.815 87.3621 107.146C85.6077 107.477 83.9963 108.293 82.7314 109.491C81.4666 110.689 80.6053 112.216 80.2563 113.878C79.9073 115.54 80.0864 117.263 80.771 118.828C81.4555 120.394 82.6147 121.732 84.1019 122.674C85.5892 123.615 87.3378 124.118 89.1265 124.118C91.5239 124.114 93.822 123.21 95.5172 121.604C97.2125 119.998 98.1666 117.821 98.1705 115.549V115.549Z" fill="url(#paint9_linear)"/>
<path d="M57.3326 141.31C56.3814 141.31 55.4515 141.577 54.6605 142.077C53.8696 142.578 53.2531 143.29 52.8891 144.122C52.525 144.955 52.4298 145.871 52.6154 146.755C52.801 147.639 53.259 148.451 53.9317 149.088C54.6043 149.725 55.4613 150.159 56.3943 150.335C57.3273 150.511 58.2944 150.421 59.1732 150.076C60.0521 149.731 60.8032 149.147 61.3317 148.398C61.8602 147.648 62.1423 146.767 62.1423 145.866C62.1423 144.658 61.6356 143.499 60.7336 142.644C59.8316 141.79 58.6082 141.31 57.3326 141.31V141.31Z" fill="url(#paint10_linear)"/>
<path d="M178.179 112.698C177.502 93.1949 169.677 74.524 156.049 59.892C151.707 55.1858 146.812 50.9652 141.458 47.3126C129.083 38.7874 114.604 33.4163 99.4098 31.714C92.589 30.9313 85.6935 30.9313 78.8728 31.714C63.6491 33.3813 49.1365 38.7394 36.7364 47.2706C31.3852 50.9264 26.49 55.1466 22.1451 59.8501C8.05711 75.049 0.198596 94.5353 0.00018848 114.762C-0.198219 134.988 7.27667 154.609 21.0641 170.053C34.8515 185.498 54.0346 195.738 75.1211 198.91C96.2076 202.082 117.795 197.975 135.954 187.336C138.286 185.939 140.528 184.541 142.697 182.947C140.145 182.384 137.67 181.545 135.32 180.446C130.967 183.253 126.331 185.645 121.481 187.588C111.258 191.737 100.249 193.867 89.1265 193.85C73.2252 193.867 57.6564 189.537 44.2886 181.378C30.9208 173.22 20.322 161.581 13.7643 147.857C7.2066 134.133 4.96853 118.908 7.31873 104.009C9.66892 89.1097 16.5075 75.1696 27.0138 63.8616C31.0572 59.4998 35.5941 55.5719 40.5429 52.1487C52.0579 44.2339 65.5352 39.2702 79.6694 37.7382C82.8115 37.3682 85.975 37.1861 89.1413 37.1931C92.3172 37.1887 95.4904 37.3707 98.6426 37.7382C112.762 39.2961 126.218 44.2788 137.71 52.2046C142.678 55.6057 147.217 59.5357 151.239 63.9175C164.493 78.1689 171.801 96.5134 171.791 115.507V115.507C171.791 117.828 171.702 120.106 171.496 122.37L178.179 119.393C178.179 118.093 178.179 116.793 178.179 115.507C178.253 114.613 178.224 113.648 178.179 112.698Z" fill="url(#paint11_linear)"/>
<path d="M89.1266 51.1289C79.2591 51.1233 69.5085 53.1524 60.5518 57.0751C51.595 60.9979 43.6468 66.7204 37.2588 73.8454C30.8708 80.9704 26.1962 89.3271 23.5594 98.3354C20.9226 107.344 20.3869 116.788 21.9894 126.012C23.5919 135.236 27.2942 144.019 32.8394 151.752C38.3845 159.484 45.6396 165.981 54.101 170.791C62.5624 175.6 72.0272 178.608 81.8386 179.604C91.6499 180.6 101.573 179.562 110.918 176.56C113.96 175.593 116.919 174.406 119.77 173.01L121.629 169.25L120.729 167.853C120.36 167.294 120.006 166.707 119.696 166.119C117.831 167.154 115.905 168.088 113.927 168.915C106.116 172.223 97.6532 173.924 89.0971 173.905C77.4501 173.904 66.0425 170.772 56.1999 164.873C46.3573 158.974 38.4839 150.549 33.4947 140.579C28.5056 130.609 26.6056 119.502 28.0154 108.549C29.4253 97.5957 34.0872 87.2468 41.4594 78.7044C48.8315 70.1621 58.6112 63.7772 69.6618 60.2918C80.7125 56.8064 92.5803 56.3635 103.886 59.0147C115.192 61.6659 125.471 67.3023 133.53 75.2688C141.588 83.2353 147.095 93.2048 149.41 104.019C149.84 106.041 150.151 108.085 150.339 110.141C151.816 110.088 153.295 110.135 154.765 110.28L157.082 116.375C157.096 116.123 157.096 115.871 157.082 115.62C157.087 111.804 156.722 107.995 155.99 104.242C153.179 89.3704 144.945 75.9058 132.725 66.1985C120.505 56.4912 105.074 51.1577 89.1266 51.1289V51.1289Z" fill="url(#paint12_linear)"/>
<path d="M199.528 144.133L199.248 142.316L191.089 139.52C190.231 136.646 189.017 133.878 187.474 131.274L191.192 123.768L189.997 122.301C187.302 118.953 184.141 115.967 180.599 113.425L179.124 112.321L178.253 112.712L171.865 115.508L171.23 115.801C168.468 114.365 165.55 113.216 162.526 112.377L159.575 104.647L157.672 104.382L156.093 104.186C153.908 103.965 151.709 103.89 149.513 103.962C147.785 104.015 146.061 104.155 144.349 104.382L142.431 104.647L139.481 112.349C136.431 113.17 133.495 114.329 130.732 115.801L122.853 112.307L121.275 113.411C117.741 115.964 114.59 118.959 111.906 122.314L110.726 123.712L114.414 131.19C112.889 133.803 111.677 136.569 110.8 139.437L102.67 142.232L102.375 144.049C101.767 148.222 101.767 152.455 102.375 156.629L102.67 158.46L110.8 161.255C111.595 163.856 112.673 166.371 114.016 168.761C114.134 168.998 114.281 169.25 114.414 169.488L110.977 176.476L110.726 176.993L111.906 178.391C114.594 181.743 117.745 184.738 121.275 187.295L121.54 187.462L122.853 188.399L130.732 184.89C132.424 185.8 134.19 186.581 136.014 187.225C137.15 187.658 138.315 188.021 139.481 188.343L142.431 196.072L144.349 196.324C148.755 196.898 153.222 196.898 157.628 196.324L159.531 196.072L162.481 188.315C165.512 187.494 168.433 186.344 171.186 184.89L179.079 188.399L180.555 187.295C184.097 184.752 187.258 181.766 189.953 178.419L191.148 176.951L187.43 169.432C188.971 166.831 190.184 164.068 191.045 161.199L199.203 158.404L199.484 156.573C200.112 152.401 200.112 148.165 199.484 143.993L199.528 144.133ZM193.361 154.057L185.659 156.698L185.246 158.292C184.4 161.669 182.99 164.896 181.071 167.852L180.156 169.25L183.653 176.239C182.009 178.099 180.192 179.816 178.224 181.368L170.847 178.07L169.371 178.922C166.262 180.745 162.865 182.085 159.309 182.892L157.598 183.283L154.824 190.593C152.273 190.817 149.704 190.817 147.152 190.593L144.364 183.311L142.756 182.934C140.204 182.37 137.729 181.531 135.379 180.432C134.425 179.995 133.499 179.504 132.605 178.964L131.13 178.084L123.753 181.382C121.787 179.813 119.966 178.087 118.309 176.225L119.932 172.968L121.791 169.208L120.891 167.81C120.522 167.251 120.168 166.664 119.858 166.077C118.461 163.605 117.4 160.975 116.701 158.25L116.288 156.657L108.616 154.015C108.498 152.813 108.439 151.625 108.439 150.395C108.439 149.165 108.439 147.949 108.616 146.747L116.288 144.105L116.553 142.567C117.415 139.189 118.829 135.958 120.744 132.993L121.643 131.595L118.162 124.607C119.822 122.747 121.643 121.022 123.606 119.449L130.983 122.748L132.458 121.867C135.571 120.045 138.973 118.709 142.535 117.912L144.217 117.52L147.005 110.252C148.082 110.154 149.174 110.112 150.28 110.112C151.757 110.06 153.236 110.106 154.706 110.252L157.023 116.346L157.48 117.548L159.191 117.94C162.747 118.742 166.143 120.077 169.253 121.895L170.729 122.748L171.437 122.454L178.12 119.477C180.089 121.034 181.906 122.756 183.55 124.621L180.053 131.609L180.968 133.007C182.885 135.97 184.294 139.201 185.143 142.581L185.556 144.161L193.258 146.803C193.361 148.005 193.435 149.207 193.435 150.451C193.435 151.695 193.464 152.855 193.361 154.057Z" fill="url(#paint13_linear)"/>
<path d="M167.763 139.772C164.816 135.551 160.22 132.61 154.987 131.595C153.645 131.344 152.282 131.213 150.915 131.204C145.521 131.208 140.35 133.24 136.538 136.854C132.726 140.469 130.584 145.369 130.584 150.479C130.576 152.842 131.041 155.185 131.956 157.383C132.743 159.351 133.881 161.176 135.32 162.779C136.998 164.714 139.064 166.316 141.399 167.491C143.734 168.667 146.291 169.393 148.923 169.627C149.584 169.703 150.249 169.735 150.915 169.725C153.621 169.73 156.301 169.216 158.793 168.216V168.216C162.471 166.739 165.61 164.27 167.818 161.116C170.027 157.963 171.208 154.263 171.216 150.479C171.219 149.867 171.184 149.256 171.112 148.648C170.825 145.465 169.671 142.407 167.763 139.772V139.772ZM154.913 163.03C152.21 163.796 149.323 163.756 146.645 162.916C143.966 162.076 141.625 160.476 139.938 158.334C138.412 156.485 137.466 154.267 137.208 151.932C137.136 151.437 137.102 150.937 137.105 150.437C137.107 147.803 137.942 145.231 139.501 143.051C141.06 140.871 143.273 139.184 145.854 138.207C147.48 137.585 149.22 137.271 150.974 137.284C151.691 137.276 152.407 137.332 153.113 137.452C155.898 137.865 158.484 139.071 160.527 140.912C162.57 142.752 163.972 145.139 164.547 147.753V147.753C164.73 148.633 164.824 149.526 164.827 150.423C164.83 153.256 163.867 156.014 162.08 158.286C160.293 160.558 157.779 162.222 154.913 163.03V163.03Z" fill="url(#paint14_linear)"/>
</g>
<defs>
<linearGradient id="paint0_linear" x1="134.641" y1="52.1913" x2="165.447" y2="52.1913" gradientUnits="userSpaceOnUse">
<stop stop-color="#E3F24C"/>
<stop offset="0.2" stop-color="#CAED62"/>
<stop offset="1" stop-color="#64D8BC"/>
</linearGradient>
<linearGradient id="paint1_linear" x1="278.457" y1="1090.5" x2="916.677" y2="1090.5" gradientUnits="userSpaceOnUse">
<stop stop-color="#E3F24C"/>
<stop offset="0.2" stop-color="#CAED62"/>
<stop offset="1" stop-color="#64D8BC"/>
</linearGradient>
<linearGradient id="paint2_linear" x1="380.357" y1="618.597" x2="668.289" y2="618.597" gradientUnits="userSpaceOnUse">
<stop stop-color="#E3F24C"/>
<stop offset="0.2" stop-color="#CAED62"/>
<stop offset="1" stop-color="#64D8BC"/>
</linearGradient>
<linearGradient id="paint3_linear" x1="476.27" y1="752.339" x2="476.27" y2="1081.12" gradientUnits="userSpaceOnUse">
<stop stop-color="#E3F24C"/>
<stop offset="0.2" stop-color="#CAED62"/>
<stop offset="1" stop-color="#64D8BC"/>
</linearGradient>
<linearGradient id="paint4_linear" x1="478.402" y1="2327.13" x2="440.024" y2="2625.99" gradientUnits="userSpaceOnUse">
<stop stop-color="#E3F24C"/>
<stop offset="0.2" stop-color="#CAED62"/>
<stop offset="1" stop-color="#64D8BC"/>
</linearGradient>
<linearGradient id="paint5_linear" x1="1426.24" y1="447.235" x2="1891.59" y2="447.235" gradientUnits="userSpaceOnUse">
<stop stop-color="#E3F24C"/>
<stop offset="0.2" stop-color="#CAED62"/>
<stop offset="1" stop-color="#64D8BC"/>
</linearGradient>
<linearGradient id="paint6_linear" x1="127.515" y1="30.4564" x2="42.6332" y2="-17.3724" gradientUnits="userSpaceOnUse">
<stop stop-color="#FF059D"/>
<stop offset="0.45" stop-color="#FF9841"/>
<stop offset="1" stop-color="#FFF904"/>
</linearGradient>
<linearGradient id="paint7_linear" x1="2575.97" y1="3299.89" x2="1728.62" y2="2340.27" gradientUnits="userSpaceOnUse">
<stop stop-color="#FF059D"/>
<stop offset="0.45" stop-color="#FF9841"/>
<stop offset="1" stop-color="#FFF904"/>
</linearGradient>
<linearGradient id="paint8_linear" x1="2800.23" y1="2247.89" x2="3872.72" y2="1169.54" gradientUnits="userSpaceOnUse">
<stop stop-color="#FF059D"/>
<stop offset="0.45" stop-color="#FF9841"/>
<stop offset="1" stop-color="#FFF904"/>
</linearGradient>
<linearGradient id="paint9_linear" x1="1061.9" y1="1523.62" x2="1283.65" y2="1523.62" gradientUnits="userSpaceOnUse">
<stop stop-color="#E3F24C"/>
<stop offset="0.2" stop-color="#CAED62"/>
<stop offset="1" stop-color="#64D8BC"/>
</linearGradient>
<linearGradient id="paint10_linear" x1="490.493" y1="1119.42" x2="317.055" y2="1038" gradientUnits="userSpaceOnUse">
<stop stop-color="#FF059D"/>
<stop offset="0.45" stop-color="#FF9841"/>
<stop offset="1" stop-color="#FFF904"/>
</linearGradient>
<linearGradient id="paint11_linear" x1="159.767" y1="155.203" x2="-6.35839" y2="51.3128" gradientUnits="userSpaceOnUse">
<stop stop-color="#1A58FF"/>
<stop offset="0.05" stop-color="#1963FF"/>
<stop offset="0.23" stop-color="#1685FF"/>
<stop offset="0.42" stop-color="#13A0FF"/>
<stop offset="0.6" stop-color="#11B3FF"/>
<stop offset="0.8" stop-color="#10BEFF"/>
<stop offset="1" stop-color="#10C2FF"/>
</linearGradient>
<linearGradient id="paint12_linear" x1="14749.2" y1="14357.7" x2="-564.606" y2="4780.46" gradientUnits="userSpaceOnUse">
<stop stop-color="#1A58FF"/>
<stop offset="0.05" stop-color="#1963FF"/>
<stop offset="0.23" stop-color="#1685FF"/>
<stop offset="0.42" stop-color="#13A0FF"/>
<stop offset="0.6" stop-color="#11B3FF"/>
<stop offset="0.8" stop-color="#10BEFF"/>
<stop offset="1" stop-color="#10C2FF"/>
</linearGradient>
<linearGradient id="paint13_linear" x1="12962.2" y1="12114.7" x2="7829.32" y2="8028.06" gradientUnits="userSpaceOnUse">
<stop stop-color="#E3F24C"/>
<stop offset="0.2" stop-color="#CAED62"/>
<stop offset="1" stop-color="#64D8BC"/>
</linearGradient>
<linearGradient id="paint14_linear" x1="5460.25" y1="5116.46" x2="3331.02" y2="3422.85" gradientUnits="userSpaceOnUse">
<stop stop-color="#E3F24C"/>
<stop offset="0.2" stop-color="#CAED62"/>
<stop offset="1" stop-color="#64D8BC"/>
</linearGradient>
<clipPath id="clip0">
<rect width="200" height="200" fill="white"/>
</clipPath>
</defs>
</svg>
