<svg width="170" height="171" viewBox="0 0 170 171" fill="none" xmlns="http://www.w3.org/2000/svg">
<path d="M158.731 86.3022L169.627 67.8378C170.064 66.9183 170.118 65.8674 169.785 64.9053L148.207 3.08685C147.55 1.20911 145.568 0.138881 143.644 0.606383L80.222 16.061C79.0088 16.3585 78.012 17.2201 77.5484 18.3792L70.7947 35.2711H50.2285C49.1505 35.2711 48.1228 35.7231 47.3887 36.5152L1.02484 86.7427C-0.404713 88.292 -0.331304 90.7029 1.1987 92.1595L49.8151 138.523C50.5376 139.207 51.4919 139.59 52.481 139.59H74.6545L81.412 156.482C81.9104 157.73 83.0232 158.626 84.3445 158.854L151.796 170.445C152.016 170.484 152.237 170.503 152.453 170.503C154.238 170.503 155.834 169.263 156.224 167.462L169.909 104.759C170.122 103.789 169.952 102.773 169.434 101.923L158.731 86.3022ZM70.7947 35.2711L125.249 25.2913L96.5923 81.6349H31.5554L70.7947 35.2711ZM74.6584 139.59L31.5554 97.0895H96.5923L130.399 147.962L74.6584 139.59ZM144.448 139.192L112.047 89.3622L140.379 33.0186L158.731 86.3061L144.448 139.192Z" fill="white"/>
</svg>
