<svg width="171" height="171" viewBox="0 0 171 171" fill="none" xmlns="http://www.w3.org/2000/svg">
<g clip-path="url(#clip0)">
<path d="M167.837 80.5659C167.666 80.451 167.489 80.345 167.307 80.2483L155.243 73.752L88.3416 109.173C86.5643 110.114 84.4362 110.114 82.6589 109.173L15.7581 73.752L3.69399 80.2483C0.761923 81.8046 -0.353701 85.4432 1.20269 88.3753C1.29946 88.5574 1.40547 88.7346 1.52038 88.9061L85.5003 133.367L169.48 88.9061C171.33 86.1494 170.594 82.4155 167.837 80.5659Z" fill="white"/>
<path d="M169.766 119.136C169.204 118.094 168.349 117.239 167.308 116.677L155.244 110.181L88.3426 145.601C86.5653 146.543 84.4372 146.543 82.6599 145.601L15.7587 110.181L3.69461 116.677C0.743679 118.27 -0.357004 121.953 1.23568 124.904C1.79812 125.946 2.65298 126.8 3.69461 127.363L82.6232 169.863C84.4198 170.83 86.5824 170.83 88.3789 169.863L167.308 127.363C170.258 125.77 171.359 122.087 169.766 119.136Z" fill="white"/>
<path d="M167.837 44.137C167.666 44.0221 167.489 43.9161 167.307 43.8193L88.3783 1.31921C86.5817 0.351931 84.4192 0.351931 82.6226 1.31921L3.69399 43.8193C0.761923 45.3757 -0.353701 49.0143 1.20269 51.9464C1.29946 52.1285 1.40547 52.3057 1.52038 52.4771L85.5003 96.9381L169.48 52.4771C171.33 49.7204 170.594 45.9865 167.837 44.137Z" fill="white"/>
</g>
<defs>
<clipPath id="clip0">
<rect width="170" height="170" fill="white" transform="translate(0.5 0.59082)"/>
</clipPath>
</defs>
</svg>
