<svg width="170" height="171" viewBox="0 0 170 171" fill="none" xmlns="http://www.w3.org/2000/svg">
<g clip-path="url(#clip0)">
<path d="M126.094 53.2797C128.002 58.6212 126.862 64.8853 122.504 69.2443C116.53 75.2183 106.86 75.2186 100.885 69.244C94.9114 63.27 94.9101 53.6008 100.885 47.6254C105.223 43.2881 111.489 42.1199 116.85 44.0355L160.756 0.129883L64.8911 17.8826L37.9902 78.4104C39.6235 80.0437 85.9964 126.417 91.7193 132.14L91.7196 132.139L152.247 105.239L170 9.37449L126.094 53.2797Z" fill="white"/>
<path d="M21.6185 76.4502L0 98.0691L72.0613 170.13L93.6799 148.512C88.6825 143.515 25.2333 80.0649 21.6185 76.4502Z" fill="white"/>
<path d="M106.6 58.4347C106.6 61.2505 108.879 63.5302 111.695 63.5302C113.056 63.5302 114.336 62.9999 115.298 62.0379L115.298 62.0372C117.289 60.0466 117.289 56.8232 115.298 54.8312C114.336 53.8691 113.056 53.3389 111.695 53.3389C108.879 53.3392 106.6 55.6183 106.6 58.4347Z" fill="white"/>
</g>
<defs>
<clipPath id="clip0">
<rect width="170" height="170" fill="white" transform="translate(0 0.129883)"/>
</clipPath>
</defs>
</svg>
