<svg width="170" height="170" viewBox="0 0 170 170" fill="none" xmlns="http://www.w3.org/2000/svg">
<path d="M50.1289 19.7203L85.0011 39.4407L119.873 19.7203L85.0011 0L50.1289 19.7203Z" fill="white"/>
<path d="M129.99 25.4414L95.1172 45.1617L129.99 64.8821L164.862 45.1617L129.99 25.4414Z" fill="white"/>
<path d="M125.01 73.5092L89.9805 53.7002V150.191L125.01 170V73.5092Z" fill="white"/>
<path d="M40.0109 79.4092L5.13867 99.1295L40.0109 118.85L74.8835 99.1295L40.0109 79.4092Z" fill="white"/>
<path d="M80.0195 90.5907V48.0671L44.9902 28.2578V70.7817L80.0195 90.5907Z" fill="white"/>
<path d="M134.971 73.5095V170L170 150.191V53.7002L134.971 73.5095Z" fill="white"/>
<path d="M44.9902 127.476V170L80.0195 150.191V107.667L44.9902 127.476Z" fill="white"/>
<path d="M35.0293 127.476L0 107.667V150.191L35.0293 170V127.476Z" fill="white"/>
</svg>
