<svg width="170" height="170" viewBox="0 0 170 170" fill="none" xmlns="http://www.w3.org/2000/svg">
<path d="M82.5076 11C42.3837 20.5382 -4.22812 69.2714 0.306783 106.152C22.1377 67.6775 36.9132 62.446 40.9266 62.446C44.9656 62.446 47.1385 64.6224 47.1385 69.2714V126.613C47.1385 133.735 40.2466 132.877 35.6759 132.182C52.609 157.419 92.1142 159.156 92.1142 159.156L109.804 139.937L126.865 154.507C152.847 137.699 170 109.228 170 104.916C157.142 119.083 146.098 121.658 143.619 121.658C141.144 121.658 137.11 121.361 137.11 117.948V49.9294C137.11 44.0236 153.369 24.6406 158.497 18.1217C124.687 26.9805 111.665 43.8652 111.665 43.8652C111.665 43.8652 107.115 40.4525 97.0888 40.4525C100.841 43.6455 106.092 49.4287 106.092 56.2541V118.541C106.092 118.541 94.9108 126.603 88.4025 126.603C81.889 126.603 77.2365 123.829 77.2365 118.858V44.468C77.2365 44.468 67.9315 50.992 67.9315 31.7572C67.9315 22.1526 82.5076 11 82.5076 11Z" fill="white"/>
</svg>
