<svg width="89" height="101" viewBox="0 0 89 101" fill="none" xmlns="http://www.w3.org/2000/svg">
<path d="M87.2293 48.5263L77.2476 42.8286C77.8688 45.2705 78.2972 47.7766 78.5328 50.347C78.747 52.639 78.8327 54.9095 78.747 57.1801L87.2293 52.232C87.8934 51.8465 88.3004 51.1396 88.3004 50.3899C88.3218 49.6188 87.8934 48.9119 87.2293 48.5263ZM62.1678 64.0988C60.647 62.685 59.2761 61.1214 57.8624 59.6005C56.6414 58.2939 55.1634 57.6727 53.3642 57.6941C46.5097 57.7156 39.6553 57.737 32.7794 57.6941C31.4942 57.6941 30.3804 57.9512 29.3951 58.5081C28.7953 58.8508 28.217 59.3007 27.7029 59.879C25.6037 62.1495 23.4617 64.3986 21.2554 66.5406C20.0559 67.6973 18.7278 68.7683 17.3355 69.7108C14.1011 71.8743 10.1598 70.6533 8.68181 67.0547C7.31093 63.6918 7.22525 60.1146 7.03246 56.5589C7.01104 56.0876 7.03246 55.6164 7.03246 55.1452C7.13957 45.7631 9.32442 37.0023 14.7651 29.2268C17.8282 24.8357 21.9623 22.3081 27.4887 22.5437C30.8945 22.6937 33.979 23.8932 36.8278 25.7139C40.6192 28.1558 44.3891 28.3272 48.1805 26.2066L4.14075 1.03796C3.47673 0.6524 2.64134 0.67382 1.99874 1.05938C1.33472 1.44494 0.927734 2.13039 0.927734 2.90151L1.35614 98.628C1.35614 99.3991 1.76312 100.106 2.42714 100.47C3.09117 100.856 3.90513 100.856 4.56915 100.47L72.6423 60.7572L63.9671 65.8124C63.3888 65.234 62.7676 64.6557 62.1678 64.0988Z" fill="white"/>
<path d="M59.5773 33.2965C60.0913 33.6393 60.7125 33.832 61.3551 33.832C62.2334 33.832 63.0045 33.4679 63.5828 32.8895C64.0755 32.3755 64.4182 31.69 64.4825 30.9403C64.5039 30.8118 64.5039 30.6833 64.5039 30.5762C64.4825 28.8626 63.0473 27.4917 61.2909 27.4917C59.5344 27.5131 58.0993 28.9697 58.1207 30.7475C58.1207 30.9403 58.1421 31.1117 58.185 31.3045C58.3563 32.1184 58.8704 32.8467 59.5773 33.2965ZM52.9799 41.0506C54.6721 41.072 56.1501 39.6583 56.1929 37.9447C56.2357 36.2739 54.822 34.7531 53.1727 34.6674H53.0227C51.3091 34.646 49.874 36.0597 49.8525 37.7947V38.0732C49.9596 39.744 51.2663 41.0292 52.9799 41.0506ZM65.8748 37.7947C65.8319 39.6154 67.2028 41.0292 69.0021 41.0506C69.3663 41.0506 69.7304 40.9863 70.0731 40.8578C71.2726 40.4294 72.1723 39.2727 72.2151 37.9447C72.258 36.2311 70.7586 34.6674 69.045 34.646C68.6166 34.646 68.1881 34.7317 67.824 34.8816C66.6887 35.3743 65.8962 36.4881 65.8748 37.7947ZM61.2909 48.3977C61.9549 48.3977 62.5547 48.2263 63.0687 47.905C63.9041 47.3695 64.4611 46.427 64.4825 45.3346C64.5039 44.4778 64.204 43.7067 63.6899 43.1069C63.133 42.4643 62.2976 42.0359 61.3766 42.0359C60.0271 42.0145 58.7847 42.957 58.3349 44.1993C58.2278 44.4992 58.1635 44.8205 58.1635 45.1418V45.1632C58.0993 46.9197 59.513 48.3762 61.2909 48.3977Z" fill="white"/>
<path fill-rule="evenodd" clip-rule="evenodd" d="M32.4809 39.4442C30.7673 39.5084 29.0537 39.4656 27.2758 39.4656V35.9313C27.2544 32.4398 27.7256 32.911 24.2127 32.8682C22.4777 32.8468 22.4563 32.8896 22.4563 34.646V39.4442C20.6142 39.4442 18.9648 39.5084 17.3155 39.4227C16.1588 39.3799 15.7304 39.8297 15.8589 40.9436C15.9232 41.5647 15.9232 42.2073 15.8589 42.8285C15.7304 43.9852 16.2445 44.3494 17.3583 44.2851C19.0291 44.2208 20.6998 44.2637 22.4777 44.2637C22.4777 45.4846 22.4563 46.5342 22.4777 47.5838C22.5205 51.3966 21.8994 50.8611 25.9906 50.9253C26.9331 50.9467 27.3401 50.5826 27.2972 49.5973C27.2544 47.8837 27.2758 46.1486 27.2758 44.2423C28.4753 44.2423 29.5249 44.2637 30.5745 44.2423C34.4301 44.178 33.8303 44.8206 33.916 40.8579C33.9374 39.8511 33.5733 39.4013 32.4809 39.4442Z" fill="white"/>
</svg>
