<svg width="101" height="101" viewBox="0 0 101 101" fill="none" xmlns="http://www.w3.org/2000/svg">
<path d="M100.915 88.2947C100.915 95.198 95.3184 100.794 88.4151 100.794C81.5119 100.794 75.9268 95.198 75.9268 88.2947C75.9268 81.3914 81.5119 75.795 88.4151 75.795C95.3184 75.795 100.915 81.3914 100.915 88.2947Z" fill="white"/>
<path d="M48.66 0.943214C49.3816 0.79549 52.2395 0.801172 52.9213 0.79549C72.3811 0.642084 99.3691 17.1986 100.926 48.6808V87.9868C100.926 95.0606 95.0851 100.793 87.9887 100.793C82.8752 100.793 75.9265 94.2424 75.9265 88.0096V48.7036C75.2049 38.3288 66.796 26.6529 52.6372 25.7722C51.7622 25.7154 49.7736 25.6813 48.6543 25.8291" fill="white"/>
<path d="M49.3379 100.362C56.4969 100.362 62.2979 94.6693 62.2979 87.6525C62.2979 80.6299 56.3548 75.5334 49.2016 75.5334C49.1561 75.5334 49.1107 75.5391 49.0652 75.5391C36.7586 74.6868 25.2475 63.8518 26.0884 48.9999L26.1055 48.7612C26.8157 37.1081 36.7586 26.5344 49.3436 25.8072C56.5025 25.8072 62.3036 20.6709 62.3036 13.654C62.3036 6.63711 56.4969 0.938362 49.3379 0.938362C49.0482 0.938362 48.7584 0.921317 48.4686 0.938362C26.7589 1.69403 1.19122 19.7562 0.935547 50.4544V50.6419C0.935547 81.7946 28.2588 100.357 48.622 100.357H49.3379V100.362Z" fill="white"/>
</svg>
