<svg width="101" height="101" viewBox="0 0 101 101" fill="none" xmlns="http://www.w3.org/2000/svg">
<path d="M5.59277 0.794434C2.83135 0.794434 0.592773 3.03301 0.592773 5.79443V95.7944C0.592773 98.5559 2.83135 100.794 5.59277 100.794H95.5928C98.3542 100.794 100.593 98.5559 100.593 95.7944V5.79444C100.593 3.03301 98.3542 0.794434 95.5928 0.794434H5.59277ZM36.0323 48.817C36.0323 53.2918 35.8595 66.6401 36.0094 71.1123C36.0248 71.5727 36.0323 72.0503 36.0323 72.5458V78.2803C36.0323 81.0417 33.7938 83.2803 31.0323 83.2803H22.9005C20.139 83.2803 17.9005 81.0417 17.9005 78.2803V69.156C17.9005 67.6228 17.0103 66.8386 15.8008 66.3064C13.8452 65.4459 12.406 63.766 12.406 61.6294V58.6035C12.406 56.4669 13.8342 54.725 15.7425 53.7639C16.9815 53.1398 17.9005 52.3231 17.9005 51.0769V41.1052C17.9005 38.3437 20.139 36.1052 22.9005 36.1052H31.0323C33.7938 36.1052 36.0323 38.3437 36.0323 41.1052V48.817ZM36.0323 28.5628C36.0323 31.3242 33.7938 33.5628 31.0323 33.5628H22.6257C19.8643 33.5628 17.6257 31.3242 17.6257 28.5628V23.8735C17.6257 21.1121 19.8643 18.8735 22.6257 18.8735H31.0323C33.7938 18.8735 36.0323 21.1121 36.0323 23.8735V28.5628ZM62.9554 85.5402C46.7466 85.5402 38.7796 76.5006 38.7796 65.2012C38.7796 63.3291 40.2973 61.8114 42.1694 61.8114H55.499C56.2791 61.8114 56.9115 62.4437 56.9115 63.2238C56.8344 64.0118 56.9194 64.8077 57.1608 65.5597C57.4022 66.3118 57.7947 67.0033 58.3128 67.5893C58.8309 68.1753 59.463 68.6427 60.1682 68.9613C60.8733 69.2799 61.6358 69.4425 62.406 69.4385C65.7027 69.4385 67.351 67.7436 67.351 65.2012C67.351 57.8566 39.6038 58.9865 39.6038 38.0826C39.6038 26.7831 46.4719 16.8961 63.7796 16.8961C79.1642 16.8961 86.8565 25.9357 86.8565 37.2351C86.8565 39.2633 85.2124 40.9074 83.1842 40.9074H70.702C69.6099 40.9074 68.7246 40.0221 68.7246 38.93C68.8129 38.2002 68.752 37.4594 68.5458 36.7551C68.3396 36.0508 67.9926 35.3986 67.5271 34.8402C67.0616 34.2817 66.4879 33.8294 65.8425 33.5122C65.1972 33.1949 64.4946 33.0197 63.7796 32.9978C63.2111 32.9366 62.6365 33.0018 62.0948 33.1891C61.553 33.3764 61.0568 33.6814 60.6398 34.0833C60.2229 34.4853 59.8949 34.9748 59.6782 35.5186C59.4615 36.0625 59.3612 36.6479 59.384 37.2351C59.384 45.4272 87.1312 43.4498 87.1312 64.3538C87.1312 75.3707 79.7137 85.5402 62.9554 85.5402Z" fill="white"/>
</svg>
