<svg width="101" height="101" viewBox="0 0 101 101" fill="none" xmlns="http://www.w3.org/2000/svg">
<path d="M93.8058 50.6911L100.215 39.8301C100.471 39.2892 100.503 38.671 100.308 38.1052L87.6151 1.74259C87.2287 0.638072 86.0628 0.00854553 84.931 0.283537L47.6253 9.37418C46.9117 9.54917 46.3254 10.056 46.0526 10.7378L42.08 20.6738H29.9827C29.3486 20.6738 28.7441 20.9397 28.3123 21.4056L1.04033 50.9502C0.199442 51.8616 0.242622 53.2797 1.1426 54.1365L29.7395 81.4084C30.1645 81.8107 30.7258 82.0357 31.3076 82.0357H44.3504L48.3253 91.9718C48.6185 92.7058 49.273 93.2331 50.0503 93.3672L89.7264 100.185C89.8559 100.208 89.9854 100.219 90.1127 100.219C91.1627 100.219 92.1013 99.4897 92.3308 98.4307L100.381 61.5476C100.506 60.9772 100.406 60.3795 100.101 59.8795L93.8058 50.6911ZM42.08 20.6738L74.1109 14.8036L57.2546 47.9458H18.9989L42.08 20.6738ZM44.3527 82.0357L18.9989 57.0364H57.2546L77.1404 86.9605L44.3527 82.0357ZM85.4038 81.8016L66.3452 52.4911L83.0106 19.3489L93.8058 50.6934L85.4038 81.8016Z" fill="white"/>
</svg>
