<svg width="101" height="101" viewBox="0 0 101 101" fill="none" xmlns="http://www.w3.org/2000/svg">
<g clip-path="url(#clip0)">
<path d="M68.7472 1.51924C68.166 0.700488 67.2222 0.219238 66.216 0.219238H34.966C33.6222 0.219238 32.4285 1.08174 32.0035 2.35674L0.75346 96.1067C0.43471 97.0567 0.59721 98.1067 1.17846 98.9192C1.76596 99.738 2.70971 100.219 3.71596 100.219H23.7035C31.7847 100.219 38.9347 95.0692 41.491 87.4005L69.1847 4.33174C69.4972 3.38174 69.341 2.33174 68.7472 1.51924Z" fill="white"/>
<path d="M100.435 96.1068L72.8104 13.2255L53.8916 69.988L59.6978 87.4067C62.2478 95.0692 69.3978 100.219 77.4791 100.219H97.4666C98.4728 100.219 99.4166 99.738 99.9978 98.9193C100.592 98.1068 100.748 97.0567 100.435 96.1068Z" fill="white"/>
</g>
<defs>
<clipPath id="clip0">
<rect width="100" height="100" fill="white" transform="translate(0.592773 0.219238)"/>
</clipPath>
</defs>
</svg>
