<svg width="99" height="101" viewBox="0 0 99 101" fill="none" xmlns="http://www.w3.org/2000/svg">
<path fill-rule="evenodd" clip-rule="evenodd" d="M12.8255 0.759277C12.0295 0.759277 11.3842 1.40456 11.3842 2.20055V11.283H2.30162C1.50563 11.283 0.860352 11.9283 0.860352 12.7243C0.860352 13.5203 1.50563 14.1656 2.30162 14.1656H11.3842V23.2481C11.3842 24.0441 12.0295 24.6893 12.8255 24.6893C13.6215 24.6893 14.2667 24.0441 14.2667 23.2481V14.1656H23.3491C24.1451 14.1656 24.7904 13.5203 24.7904 12.7243C24.7904 11.9283 24.1451 11.283 23.3491 11.283H14.2667V2.20055C14.2667 1.40456 13.6215 0.759277 12.8255 0.759277ZM80.8254 14.2951H98.7936L65.4239 100.759H47.5906L80.8254 14.2951ZM40.3413 65.5243H30.2776V75.3522H40.3413V65.5243ZM45.0587 36.3945C45.0587 43.5809 39.233 49.4066 32.0466 49.4066C24.8603 49.4066 19.0346 43.5809 19.0346 36.3945C19.0346 29.2082 24.8603 23.3825 32.0466 23.3825C39.233 23.3825 45.0587 29.2082 45.0587 36.3945ZM44.5083 87.7746C46.5925 87.7746 48.2821 86.0849 48.2821 84.0007C48.2821 81.9164 46.5925 80.2268 44.5083 80.2268C42.424 80.2268 40.7344 81.9164 40.7344 84.0007C40.7344 86.0849 42.424 87.7746 44.5083 87.7746ZM52.7859 50.6659C53.1508 50.301 53.7425 50.301 54.1075 50.6659C54.4724 51.0309 54.4724 51.6226 54.1075 51.9876L49.9433 56.1517L54.1075 60.3159C54.4724 60.6809 54.4724 61.2726 54.1075 61.6375C53.7425 62.0025 53.1508 62.0025 52.7859 61.6375L48.6217 57.4734L44.4574 61.6376C44.0925 62.0025 43.5008 62.0025 43.1358 61.6376C42.7709 61.2726 42.7709 60.6809 43.1358 60.316L47.3001 56.1517L43.1358 51.9875C42.7709 51.6226 42.7709 51.0308 43.1358 50.6659C43.5008 50.3009 44.0925 50.3009 44.4574 50.6659L48.6217 54.8301L52.7859 50.6659Z" fill="white"/>
</svg>
