<svg width="99" height="101" viewBox="0 0 99 101" fill="none" xmlns="http://www.w3.org/2000/svg">
<path fill-rule="evenodd" clip-rule="evenodd" d="M32.6761 90.3232C20.9832 90.3232 11.2974 80.9 11.2974 68.9445C11.2974 56.9899 20.7214 47.3049 32.6761 47.5658C44.368 47.5658 54.0548 56.9908 54.0548 68.9445C54.0548 80.6374 44.6289 90.3232 32.6761 90.3232ZM32.6761 37.0946C15.0495 37.0946 0.826172 51.3189 0.826172 68.9445C0.826172 86.6583 15.0495 100.794 32.6761 100.794C50.3008 100.794 64.526 86.5719 64.526 68.9445C64.526 51.3189 50.3008 37.0946 32.6761 37.0946ZM44.6289 28.1958L47.3358 18.9454C62.7808 23.3956 75.259 34.8267 81.2799 50.0972L72.2904 53.0641C67.4911 41.1103 57.2817 31.948 44.6289 28.1958ZM89.3968 47.0422C82.6761 29.4166 67.7563 15.7159 49.6062 10.4803L52.5731 0.794434C73.9518 7.25342 91.1421 23.133 98.8209 44.0754L89.3968 47.0422Z" fill="white"/>
</svg>
