<svg width="123" height="101" viewBox="0 0 123 101" fill="none" xmlns="http://www.w3.org/2000/svg">
<path d="M122.47 12.5565C117.766 14.9117 113.061 16.0893 108.354 16.0893C113.059 12.5566 117.765 7.85246 118.942 1.97077C114.238 4.32219 108.354 6.67486 103.65 7.85246C98.9446 3.14711 91.8816 0.794434 84.8235 0.794434C70.7075 0.794434 60.1192 12.5603 60.1192 25.5026C60.1192 27.8514 60.1192 29.0316 61.2943 31.383C40.1189 30.2066 22.4688 20.7947 9.52786 5.50104C7.17519 9.03257 6.00016 13.7367 6.00016 18.442C6.00016 26.6764 10.7042 34.9132 16.5897 39.6173C13.0569 39.6173 8.35282 38.441 4.8213 36.0883C4.8213 47.8542 13.0582 58.4413 24.8203 60.7939C22.4689 60.7939 20.1162 61.9703 17.7647 61.9703H13.0582C16.591 71.3835 26.0004 78.4415 36.5899 79.6166C28.353 86.6771 17.7648 90.2061 6.00139 90.2061H0.117188C10.7055 97.2654 23.6464 100.794 37.7637 100.794C83.6459 100.794 108.35 63.1466 108.35 30.2054V26.6764C115.413 21.9698 118.944 17.2644 122.47 12.5565Z" fill="white"/>
</svg>
