<svg width="119" height="100" viewBox="0 0 119 100" fill="none" xmlns="http://www.w3.org/2000/svg">
<g clip-path="url(#clip0)">
<path d="M113.646 53.6118C115.114 53.3672 116.189 52.0979 116.189 50.6106L116.189 35.3241C116.189 33.8367 115.113 32.5675 113.646 32.3228L110.905 31.866L110.905 54.0685L113.646 53.6118Z" fill="white"/>
<path d="M58.4979 65.6354C52.9127 64.3871 47.0403 63.5604 41.2685 63.5589L38.2139 63.5588L38.2139 86.2324C38.2137 87.3596 38.8266 88.3435 39.7374 88.8691C40.1844 89.1272 40.7032 89.2749 41.2564 89.2749L55.4553 89.2749C56.2622 89.2749 57.036 88.9544 57.6067 88.3838C58.1773 87.8131 58.4978 87.0392 58.4978 86.2323L58.4979 65.6354Z" fill="white"/>
<path d="M26.2037 28.459C24.3072 28.4591 22.5245 29.1975 21.1836 30.5383C20.6024 31.1195 20.1349 31.7839 19.791 32.5044L10.695 32.4279C9.8838 32.4212 9.1033 32.7386 8.52702 33.31C7.95084 33.8812 7.62697 34.6592 7.6268 35.4704L7.6269 49.8005C7.62672 50.927 8.23912 51.9113 9.15029 52.4374C9.59015 52.6913 10.0999 52.8385 10.6438 52.8432L19.5796 52.9185C20.1676 54.4441 21.2644 55.7189 22.6652 56.5276C23.7076 57.1294 24.9161 57.4739 26.2036 57.4739L35.1703 57.4741L35.1694 28.4594L26.2037 28.459Z" fill="white"/>
<path d="M104.82 73.2039L104.819 12.7306C104.819 11.6463 104.242 10.6442 103.304 10.0997C103.302 10.0984 103.3 10.0972 103.298 10.0959C102.361 9.55521 101.208 9.55231 100.268 10.0884C99.946 10.2721 67.7646 28.4597 41.2544 28.4594L41.2552 57.4738C56.046 57.4741 71.2403 62.4316 81.3823 66.5906C92.4463 71.1274 100.077 75.7314 100.196 75.8035C101.132 76.3741 102.31 76.395 103.268 75.8562C104.227 75.3174 104.82 74.3035 104.82 73.2039Z" fill="white"/>
</g>
<defs>
<clipPath id="clip0">
<rect width="119" height="100" fill="white"/>
</clipPath>
</defs>
</svg>
