<svg width="95" height="116" viewBox="0 0 95 116" fill="none" xmlns="http://www.w3.org/2000/svg">
<path d="M61.6995 67.8496C61.1358 67.8496 60.6788 67.3926 60.6788 66.8288V61.1953C60.6788 60.6316 60.2218 60.1746 59.658 60.1746H34.9761C34.4124 60.1746 33.9554 60.6316 33.9554 61.1953V66.8288C33.9554 67.3926 33.4984 67.8496 32.9347 67.8496H28.0676C27.5039 67.8496 27.0469 68.3066 27.0469 68.8703V71.4341C27.0469 71.9979 27.5039 72.4549 28.0676 72.4549H66.5271C67.0909 72.4549 67.5479 71.9979 67.5479 71.4341V68.8703C67.5479 68.3066 67.0909 67.8496 66.5271 67.8496H61.6995Z" fill="white"/>
<path d="M9.02074 0C8.457 0 8 0.457 8 1.02074V54.5486C8 55.1123 8.457 55.5693 9.02074 55.5693H12.6053H81.9915H85.576C86.1398 55.5693 86.5968 55.1123 86.5968 54.5486V1.02074C86.5968 0.456999 86.1398 0 85.576 0H9.02074ZM43.1558 20.8774C43.1558 21.4411 42.6988 21.8981 42.135 21.8981H38.7345C38.1707 21.8981 37.7137 22.3551 37.7137 22.9188V37.1856C37.7137 37.7493 37.2567 38.2063 36.693 38.2063H34.1292C33.5654 38.2063 33.1084 37.7493 33.1084 37.1856V22.9188C33.1084 22.3551 32.6514 21.8981 32.0877 21.8981H28.6873C28.1235 21.8981 27.6665 21.4411 27.6665 20.8774V18.3136C27.6665 17.7498 28.1235 17.2928 28.6873 17.2928H42.135C42.6988 17.2928 43.1558 17.7498 43.1558 18.3136V20.8774ZM58.2689 36.7457C57.8963 37.511 56.8059 37.511 56.4333 36.7457L48.2187 19.8717C47.972 19.3649 48.1829 18.7539 48.6897 18.5072L50.995 17.385C51.5018 17.1382 52.1127 17.3491 52.3595 17.856L56.4333 26.2243C56.8059 26.9896 57.8963 26.9896 58.2689 26.2243L62.3427 17.856C62.5894 17.3491 63.2004 17.1382 63.7072 17.385L66.0124 18.5072C66.5193 18.7539 66.7302 19.3649 66.4834 19.8717L58.2689 36.7457Z" fill="white"/>
<path d="M7.1171 112L12.4578 99.7753H14.4346L19.7753 112H17.5211L16.29 109.07H10.5504L9.30194 112H7.1171ZM11.3307 107.179H15.5097L13.4115 102.324L11.3307 107.179ZM21.614 114.774V102.844H23.7122V104.37C24.5214 103.226 25.556 102.654 26.816 102.654C27.972 102.654 28.972 103.087 29.8158 103.954C30.6597 104.81 31.0817 105.971 31.0817 107.44C31.0817 108.885 30.6597 110.041 29.8158 110.908C28.972 111.763 27.972 112.191 26.816 112.191C25.556 112.191 24.5214 111.653 23.7122 110.578V114.774H21.614ZM26.3305 110.37C27.0703 110.37 27.6888 110.098 28.1859 109.555C28.6945 109.012 28.9488 108.295 28.9488 107.405C28.9488 106.538 28.6945 105.833 28.1859 105.289C27.6772 104.746 27.0588 104.474 26.3305 104.474C25.6022 104.474 24.9722 104.752 24.4404 105.307C23.9202 105.862 23.6601 106.573 23.6601 107.44C23.6601 108.295 23.9202 109 24.4404 109.555C24.9722 110.098 25.6022 110.37 26.3305 110.37ZM33.2305 114.774V102.844H35.3286V104.37C36.1378 103.226 37.1724 102.654 38.4325 102.654C39.5885 102.654 40.5884 103.087 41.4323 103.954C42.2762 104.81 42.6981 105.971 42.6981 107.44C42.6981 108.885 42.2762 110.041 41.4323 110.908C40.5884 111.763 39.5885 112.191 38.4325 112.191C37.1724 112.191 36.1378 111.653 35.3286 110.578V114.774H33.2305ZM37.9469 110.37C38.6868 110.37 39.3052 110.098 39.8023 109.555C40.311 109.012 40.5653 108.295 40.5653 107.405C40.5653 106.538 40.311 105.833 39.8023 105.289C39.2937 104.746 38.6752 104.474 37.9469 104.474C37.2187 104.474 36.5886 104.752 36.0569 105.307C35.5367 105.862 35.2766 106.573 35.2766 107.44C35.2766 108.295 35.5367 109 36.0569 109.555C36.5886 110.098 37.2187 110.37 37.9469 110.37ZM44.9683 112V99.3418H47.0664V112H44.9683ZM54.0047 112.208C52.6638 112.208 51.5425 111.763 50.6408 110.873C49.7507 109.983 49.3056 108.833 49.3056 107.422C49.3056 106.093 49.7275 104.966 50.5714 104.041C51.4153 103.116 52.4846 102.654 53.7793 102.654C55.1665 102.654 56.2416 103.128 57.0046 104.076C57.7791 105.012 58.1663 106.18 58.1663 107.578C58.1663 107.833 58.1548 108.029 58.1317 108.168H51.4037C51.5193 108.896 51.8141 109.468 52.2881 109.885C52.762 110.289 53.3458 110.491 54.0394 110.491C54.9411 110.491 55.7676 110.127 56.519 109.399L57.7502 110.491C56.8023 111.636 55.5538 112.208 54.0047 112.208ZM51.3864 106.781H56.0855C56.0162 106.075 55.7792 105.497 55.3746 105.047C54.97 104.596 54.4325 104.37 53.762 104.37C53.1262 104.37 52.5944 104.596 52.1667 105.047C51.739 105.486 51.4789 106.064 51.3864 106.781ZM68.6973 112V101.839H64.8478V99.862H74.6969V101.839H70.8474V112H68.6973ZM80.9642 112.087L75.9183 99.862H78.2765L81.9353 109.191L85.5767 99.862H87.8829L82.837 112.087H80.9642Z" fill="#DCD2FF"/>
</svg>
