<svg width="102" height="120" viewBox="0 0 102 120" fill="none" xmlns="http://www.w3.org/2000/svg">
<path d="M12.3094 99V86.862H14.2862L20.7887 95.2546V86.862H22.8868V99H21.1008L14.4076 90.3647V99H12.3094ZM25.8006 88.4399V86.4458H28.0548V88.4399H25.8006ZM25.8873 99V89.8445H27.9855V99H25.8873ZM30.7275 99V89.8445H32.8256V91.2664C33.5539 90.1913 34.5076 89.6537 35.6867 89.6537C36.704 89.6537 37.5017 89.9716 38.0797 90.6074C38.6577 91.2432 38.9467 92.0987 38.9467 93.1738V99H36.8485V93.798C36.8485 93.0813 36.6751 92.5322 36.3283 92.1507C35.9931 91.7577 35.5133 91.5611 34.8891 91.5611C34.2764 91.5611 33.7793 91.7634 33.3979 92.168C33.0164 92.5726 32.8256 93.1275 32.8256 93.8327V99H30.7275ZM44.5495 99.1561C42.7924 99.1561 41.9138 98.2602 41.9138 96.4684V91.6478H40.7521V89.8445H41.9138V87.3302H44.012V89.8445H46.4743V91.6478H44.012V96.1389C44.012 96.9019 44.3877 97.2833 45.1391 97.2833C45.5899 97.2833 46.0234 97.1793 46.4396 96.9712V98.6879C45.8847 99 45.2547 99.1561 44.5495 99.1561ZM52.5347 99.2081C51.1938 99.2081 50.0724 98.763 49.1708 97.8729C48.2806 96.9828 47.8356 95.8326 47.8356 94.4222C47.8356 93.0928 48.2575 91.9657 49.1014 91.0409C49.9453 90.1161 51.0146 89.6537 52.3093 89.6537C53.6965 89.6537 54.7716 90.1277 55.5345 91.0756C56.3091 92.012 56.6963 93.1795 56.6963 94.5783C56.6963 94.8326 56.6848 95.0291 56.6616 95.1679H49.9337C50.0493 95.8961 50.3441 96.4684 50.8181 96.8845C51.292 97.2891 51.8758 97.4914 52.5694 97.4914C53.4711 97.4914 54.2976 97.1273 55.049 96.399L56.2802 97.4914C55.3322 98.6359 54.0838 99.2081 52.5347 99.2081ZM49.9164 93.7807H54.6155C54.5462 93.0755 54.3092 92.4975 53.9046 92.0467C53.5 91.5958 52.9624 91.3704 52.292 91.3704C51.6562 91.3704 51.1244 91.5958 50.6967 92.0467C50.269 92.4859 50.0089 93.0639 49.9164 93.7807ZM58.8034 99V89.8445H60.9015V91.2664C61.6298 90.1913 62.5835 89.6537 63.7626 89.6537C64.7799 89.6537 65.5776 89.9716 66.1556 90.6074C66.7336 91.2432 67.0226 92.0987 67.0226 93.1738V99H64.9244V93.798C64.9244 93.0813 64.751 92.5322 64.4042 92.1507C64.069 91.7577 63.5892 91.5611 62.965 91.5611C62.3523 91.5611 61.8552 91.7634 61.4738 92.168C61.0923 92.5726 60.9015 93.1275 60.9015 93.8327V99H58.8034ZM73.3364 99.1907C72.1919 99.1907 71.1978 98.763 70.3539 97.9076C69.51 97.0406 69.0881 95.873 69.0881 94.4049C69.0881 92.9483 69.5042 91.7923 70.3365 90.9369C71.1804 90.0815 72.1804 89.6537 73.3364 89.6537C74.5848 89.6537 75.6252 90.1913 76.4576 91.2664V86.3418H78.5557V99H76.4576V97.4741C75.6484 98.6185 74.608 99.1907 73.3364 99.1907ZM71.9665 96.5551C72.4867 97.0984 73.1109 97.37 73.8392 97.37C74.5675 97.37 75.1917 97.0926 75.7119 96.5377C76.2321 95.9828 76.4922 95.2719 76.4922 94.4049C76.4922 93.5495 76.2321 92.8501 75.7119 92.3068C75.1917 91.7519 74.5675 91.4744 73.8392 91.4744C73.0994 91.4744 72.4751 91.7461 71.9665 92.2894C71.4579 92.8212 71.2035 93.5379 71.2035 94.4396C71.2035 95.3066 71.4579 96.0117 71.9665 96.5551ZM85.525 99.2081C84.1378 99.2081 82.9818 98.7457 82.057 97.8209C81.1322 96.8961 80.6698 95.769 80.6698 94.4396C80.6698 93.1102 81.138 91.9831 82.0744 91.0583C83.0107 90.1219 84.1725 89.6537 85.5597 89.6537C86.9469 89.6537 88.1029 90.1161 89.0277 91.0409C89.9641 91.9657 90.4322 93.0986 90.4322 94.4396C90.4322 95.7574 89.9641 96.8845 89.0277 97.8209C88.0913 98.7457 86.9238 99.2081 85.525 99.2081ZM85.5597 97.3874C86.392 97.3874 87.0625 97.1042 87.5711 96.5377C88.0798 95.9713 88.3341 95.2719 88.3341 94.4396C88.3341 93.6188 88.0682 92.9252 87.5365 92.3588C87.0047 91.7808 86.3342 91.4918 85.525 91.4918C84.7043 91.4918 84.0396 91.775 83.5309 92.3414C83.0223 92.9079 82.768 93.6073 82.768 94.4396C82.768 95.2488 83.0338 95.9424 83.5656 96.5204C84.0974 97.0984 84.7621 97.3874 85.5597 97.3874ZM27.6408 116.173C25.7103 116.173 24.0225 115.526 22.5775 114.231L23.8607 112.705C25.0745 113.757 26.3518 114.283 27.6928 114.283C28.3517 114.283 28.8719 114.145 29.2534 113.867C29.6464 113.578 29.843 113.197 29.843 112.723C29.843 112.272 29.658 111.914 29.2881 111.648C28.9182 111.37 28.1899 111.104 27.1032 110.85C25.6929 110.515 24.6641 110.093 24.0167 109.584C23.3809 109.064 23.063 108.272 23.063 107.209C23.063 106.168 23.4503 105.324 24.2248 104.677C24.9993 104.018 25.9935 103.689 27.2073 103.689C28.8719 103.689 30.34 104.197 31.6116 105.215L30.4672 106.827C29.3459 105.995 28.2477 105.579 27.1726 105.579C26.5599 105.579 26.0744 105.717 25.716 105.995C25.3692 106.272 25.1958 106.625 25.1958 107.053C25.1958 107.527 25.3866 107.896 25.7681 108.162C26.1611 108.417 26.9298 108.683 28.0743 108.96C29.4152 109.284 30.3978 109.717 31.0221 110.26C31.6579 110.804 31.9758 111.567 31.9758 112.549C31.9758 113.671 31.577 114.555 30.7793 115.202C29.9817 115.85 28.9355 116.173 27.6408 116.173ZM36.2741 116.069L33.3089 106.844H35.4591L37.2971 113.122L39.3259 106.81H41.1119L43.1581 113.122L45.0308 106.844H47.1289L44.1291 116.069H42.2564L40.2103 109.81L38.1468 116.069H36.2741ZM49.042 105.44V103.446H51.2962V105.44H49.042ZM49.1287 116V106.844H51.2268V116H49.1287ZM57.038 116.156C55.2809 116.156 54.4024 115.26 54.4024 113.468V108.648H53.2406V106.844H54.4024V104.33H56.5005V106.844H58.9628V108.648H56.5005V113.139C56.5005 113.902 56.8762 114.283 57.6276 114.283C58.0784 114.283 58.5119 114.179 58.9281 113.971V115.688C58.3732 116 57.7432 116.156 57.038 116.156ZM65.0579 116.208C63.7054 116.208 62.5783 115.746 61.6766 114.821C60.775 113.896 60.3241 112.769 60.3241 111.44C60.3241 110.122 60.775 108.995 61.6766 108.058C62.5899 107.122 63.7228 106.654 65.0753 106.654C66.555 106.654 67.7745 107.18 68.734 108.232L67.4335 109.636C66.7052 108.873 65.9134 108.492 65.0579 108.492C64.3065 108.492 63.6765 108.781 63.1679 109.359C62.6708 109.925 62.4223 110.619 62.4223 111.44C62.4223 112.272 62.6766 112.971 63.1852 113.538C63.7054 114.104 64.3643 114.387 65.162 114.387C66.0059 114.387 66.7977 114.006 67.5376 113.243L68.8034 114.491C68.3063 115.046 67.763 115.474 67.1734 115.775C66.5954 116.064 65.8903 116.208 65.0579 116.208ZM70.7331 116V103.342H72.8313V108.266C73.5595 107.191 74.5132 106.654 75.6924 106.654C76.7096 106.654 77.5073 106.972 78.0853 107.607C78.6633 108.243 78.9523 109.099 78.9523 110.174V116H76.8541V110.798C76.8541 110.081 76.6807 109.532 76.3339 109.151C75.9987 108.758 75.519 108.561 74.8947 108.561C74.282 108.561 73.785 108.763 73.4035 109.168C73.022 109.573 72.8313 110.128 72.8313 110.833V116H70.7331Z" fill="#DCD2FF"/>
<path d="M31.6001 0.227635C23.8764 1.50989 17.6621 6.81785 15.7031 13.7957C14.9966 16.3155 14.9484 17.7916 15.0287 37.3386C15.0769 55.2902 15.0929 55.7077 15.4141 57.0943C17.1965 64.5642 22.913 69.887 31.0381 71.6464C32.0979 71.8701 33.4467 71.9148 42.1339 71.9595C51.1261 72.0192 52.0574 72.0043 52.2983 71.7806C52.5392 71.557 52.5552 68.6793 52.5552 36.0563C52.5552 11.8723 52.5071 0.481105 52.3947 0.272365C52.2341 0.00398587 51.9611 -0.0109241 42.5514 0.00398587C34.908 0.0188958 32.6117 0.0636258 31.6001 0.227635ZM46.1322 36.0116V66.2192L39.5968 66.1446C33.5752 66.085 32.9329 66.0552 31.7286 65.7719C26.558 64.5344 22.7203 60.8367 21.6444 56.0208C21.2912 54.5149 21.2912 17.4188 21.6284 15.9428C22.5918 11.753 25.723 8.27902 29.9462 6.71347C32.0658 5.92325 33.0453 5.83379 39.9179 5.81888L46.1322 5.80397V36.0116Z" fill="white"/>
<path d="M30.7848 21.8848C29.8967 22.0419 28.5435 22.6702 27.8246 23.2592C26.3444 24.4503 25.6114 26.1387 25.7242 28.1283C25.7806 29.1623 25.8511 29.4372 26.3022 30.2749C26.9647 31.5445 27.9655 32.4738 29.3329 33.1021C30.2773 33.534 30.517 33.5864 31.7434 33.6257C32.857 33.6649 33.2517 33.6257 33.9988 33.39C37.0577 32.4346 38.9043 29.6728 38.3828 26.8456C37.7766 23.4817 34.3371 21.2304 30.7848 21.8848Z" fill="white"/>
<path d="M54.8467 0.114872C54.7825 0.159588 54.7344 16.3169 54.7344 36.0217C54.7344 68.5302 54.7504 71.8242 54.9912 71.9137C55.4246 72.0627 67.8814 72.0031 69.4224 71.854C75.9398 71.1684 81.6866 67.4868 84.8168 62.0165C85.2181 61.316 85.7479 60.1385 86.0207 59.4081C87.0321 56.6059 86.9999 57.3512 86.9999 35.9323C86.9999 18.8359 86.9678 16.2871 86.7431 15.199C85.1539 7.43337 78.7811 1.57559 70.4016 0.234114C69.278 0.0552505 67.5443 0.0105347 61.958 0.0105347C58.1054 0.0105347 54.8949 0.0552505 54.8467 0.114872ZM71.9908 32.5786C74.495 33.1897 76.5498 34.9634 77.3845 37.229C77.9142 38.6301 77.8982 40.6871 77.3684 41.9689C76.3892 44.324 74.4629 45.9785 71.9908 46.5896C67.9777 47.5584 63.7077 45.3077 62.5359 41.6112C62.1827 40.4784 62.1988 38.5705 62.6001 37.4079C63.8041 33.7561 67.9777 31.6098 71.9908 32.5786Z" fill="white"/>
</svg>
