<svg width="83" height="118" viewBox="0 0 83 118" fill="none" xmlns="http://www.w3.org/2000/svg">
<path d="M35.3974 114.191C33.7906 114.191 32.5248 113.734 31.6 112.821C30.6867 111.908 30.2301 110.584 30.2301 108.85V101.862H32.3629V108.763C32.3629 109.873 32.6346 110.729 33.1779 111.33C33.7212 111.931 34.4726 112.231 35.4321 112.231C36.3916 112.231 37.1372 111.942 37.669 111.364C38.2123 110.786 38.4839 109.948 38.4839 108.85V101.862H40.6168V108.746C40.6168 110.515 40.1544 111.867 39.2296 112.804C38.3048 113.728 37.0274 114.191 35.3974 114.191ZM43.3016 114V104.844H45.3998V106.266C46.128 105.191 47.0817 104.654 48.2609 104.654C49.2781 104.654 50.0758 104.972 50.6538 105.607C51.2318 106.243 51.5208 107.099 51.5208 108.174V114H49.4226V108.798C49.4226 108.081 49.2492 107.532 48.9024 107.151C48.5672 106.758 48.0875 106.561 47.4632 106.561C46.8505 106.561 46.3535 106.763 45.972 107.168C45.5905 107.573 45.3998 108.128 45.3998 108.833V114H43.3016ZM54.0891 103.44V101.446H56.3433V103.44H54.0891ZM54.1758 114V104.844H56.274V114H54.1758ZM62.0852 114.156C60.3281 114.156 59.4495 113.26 59.4495 111.468V106.648H58.2877V104.844H59.4495V102.33H61.5476V104.844H64.0099V106.648H61.5476V111.139C61.5476 111.902 61.9233 112.283 62.6747 112.283C63.1256 112.283 63.5591 112.179 63.9752 111.971V113.688C63.4204 114 62.7903 114.156 62.0852 114.156ZM68.0008 116.826C67.2379 116.826 66.5154 116.641 65.8333 116.272L66.5443 114.711C66.972 114.942 67.3824 115.058 67.7754 115.058C68.076 115.058 68.3245 114.977 68.521 114.815C68.7175 114.665 68.9025 114.393 69.0759 114L65.2611 104.844H67.498L70.099 111.642L72.4745 104.844H74.6594L71.018 114.26C70.6481 115.196 70.2377 115.855 69.7868 116.237C69.336 116.63 68.7407 116.826 68.0008 116.826Z" fill="#DCD2FF"/>
<path d="M69.0949 37.3505L73.8376 29.313C74.0277 28.9128 74.0512 28.4553 73.9066 28.0365L64.5136 1.12732C64.2277 0.309948 63.3649 -0.155918 62.5273 0.047583L34.9202 6.77488C34.3921 6.90439 33.9582 7.27943 33.7563 7.78398L30.8165 15.1369H21.8642C21.3949 15.1369 20.9476 15.3337 20.628 15.6785L0.446106 37.5422C-0.176169 38.2166 -0.144215 39.2661 0.521788 39.9001L21.6842 60.082C21.9987 60.3797 22.4141 60.5462 22.8447 60.5462H32.4967L35.4382 67.8992C35.6551 68.4424 36.1395 68.8326 36.7147 68.9318L66.076 73.9773C66.1719 73.9941 66.2677 74.0025 66.3619 74.0025C67.1389 74.0025 67.8335 73.4626 68.0034 72.6789L73.9604 45.3846C74.0529 44.9624 73.9789 44.5201 73.7535 44.1501L69.0949 37.3505ZM30.8165 15.1369L54.5202 10.7928L42.0461 35.3188H13.7359L30.8165 15.1369ZM32.4983 60.5462L13.7359 42.0461H42.0461L56.762 64.1907L32.4983 60.5462ZM62.8772 60.373L48.7734 38.6825L61.1062 14.1564L69.0949 37.3522L62.8772 60.373Z" fill="white"/>
</svg>
