<svg width="109" height="119" viewBox="0 0 109 119" fill="none" xmlns="http://www.w3.org/2000/svg">
<path d="M16.0685 115.208C14.3114 115.208 12.8433 114.607 11.6642 113.405C10.4851 112.191 9.89549 110.7 9.89549 108.931C9.89549 107.174 10.4851 105.688 11.6642 104.475C12.8433 103.261 14.3403 102.654 16.1552 102.654C17.2072 102.654 18.0973 102.816 18.8256 103.139C19.5654 103.463 20.259 103.931 20.9064 104.544L19.5365 106.122C18.4499 105.116 17.317 104.613 16.1379 104.613C14.9819 104.613 14.0224 105.029 13.2595 105.862C12.5081 106.694 12.1324 107.717 12.1324 108.931C12.1324 110.133 12.5138 111.156 13.2768 112C14.0398 112.832 14.9935 113.249 16.1379 113.249C16.8315 113.249 17.4442 113.121 17.9759 112.867C18.5077 112.601 19.0568 112.202 19.6232 111.671L20.9931 113.058C20.3111 113.775 19.5886 114.312 18.8256 114.671C18.0626 115.029 17.1436 115.208 16.0685 115.208ZM27.1751 115.208C25.7879 115.208 24.6319 114.746 23.7071 113.821C22.7823 112.896 22.3199 111.769 22.3199 110.44C22.3199 109.11 22.7881 107.983 23.7244 107.058C24.6608 106.122 25.8226 105.654 27.2098 105.654C28.597 105.654 29.753 106.116 30.6778 107.041C31.6141 107.966 32.0823 109.099 32.0823 110.44C32.0823 111.757 31.6141 112.885 30.6778 113.821C29.7414 114.746 28.5738 115.208 27.1751 115.208ZM27.2098 113.387C28.0421 113.387 28.7126 113.104 29.2212 112.538C29.7298 111.971 29.9842 111.272 29.9842 110.44C29.9842 109.619 29.7183 108.925 29.1865 108.359C28.6548 107.781 27.9843 107.492 27.1751 107.492C26.3543 107.492 25.6896 107.775 25.181 108.341C24.6723 108.908 24.418 109.607 24.418 110.44C24.418 111.249 24.6839 111.942 25.2157 112.52C25.7474 113.098 26.4121 113.387 27.2098 113.387ZM38.45 115.208C37.0975 115.208 35.9704 114.746 35.0687 113.821C34.167 112.896 33.7162 111.769 33.7162 110.44C33.7162 109.122 34.167 107.995 35.0687 107.058C35.9819 106.122 37.1148 105.654 38.4673 105.654C39.947 105.654 41.1666 106.18 42.1261 107.232L40.8256 108.636C40.0973 107.873 39.3054 107.492 38.45 107.492C37.6986 107.492 37.0686 107.781 36.5599 108.359C36.0629 108.925 35.8143 109.619 35.8143 110.44C35.8143 111.272 36.0686 111.971 36.5773 112.538C37.0975 113.104 37.7564 113.387 38.554 113.387C39.3979 113.387 40.1898 113.006 40.9296 112.243L42.1954 113.491C41.6984 114.046 41.155 114.474 40.5655 114.775C39.9875 115.064 39.2823 115.208 38.45 115.208ZM48.2235 115.208C46.8363 115.208 45.6803 114.746 44.7555 113.821C43.8307 112.896 43.3683 111.769 43.3683 110.44C43.3683 109.11 43.8365 107.983 44.7729 107.058C45.7092 106.122 46.871 105.654 48.2582 105.654C49.6454 105.654 50.8014 106.116 51.7262 107.041C52.6626 107.966 53.1307 109.099 53.1307 110.44C53.1307 111.757 52.6626 112.885 51.7262 113.821C50.7898 114.746 49.6223 115.208 48.2235 115.208ZM48.2582 113.387C49.0905 113.387 49.761 113.104 50.2696 112.538C50.7783 111.971 51.0326 111.272 51.0326 110.44C51.0326 109.619 50.7667 108.925 50.235 108.359C49.7032 107.781 49.0327 107.492 48.2235 107.492C47.4028 107.492 46.7381 107.775 46.2294 108.341C45.7208 108.908 45.4665 109.607 45.4665 110.44C45.4665 111.249 45.7323 111.942 46.2641 112.52C46.7959 113.098 47.4606 113.387 48.2582 113.387ZM58.406 115.173C56.9726 115.173 55.6779 114.717 54.5219 113.804L55.4582 112.382C56.4524 113.133 57.4523 113.509 58.4581 113.509C58.9089 113.509 59.2557 113.422 59.4985 113.249C59.7528 113.064 59.8799 112.809 59.8799 112.486C59.8799 112.324 59.8337 112.185 59.7412 112.07C59.6603 111.942 59.51 111.827 59.2904 111.723C59.0707 111.619 58.8858 111.544 58.7355 111.497C58.5852 111.451 58.3367 111.376 57.9899 111.272L57.8338 111.22C57.5101 111.127 57.2327 111.041 57.0015 110.96C56.7819 110.867 56.5333 110.746 56.2559 110.596C55.9784 110.445 55.753 110.284 55.5796 110.11C55.4062 109.925 55.2617 109.694 55.1461 109.417C55.0305 109.139 54.9727 108.827 54.9727 108.48C54.9727 107.636 55.2791 106.96 55.8917 106.451C56.516 105.943 57.2963 105.688 58.2326 105.688C59.4233 105.688 60.5446 106.035 61.5966 106.729L60.7643 108.22C59.8164 107.642 58.9551 107.353 58.1806 107.353C57.776 107.353 57.4581 107.44 57.2269 107.613C57.0073 107.787 56.8975 108.018 56.8975 108.307C56.8975 108.503 56.9957 108.682 57.1922 108.844C57.4003 109.006 57.6026 109.128 57.7991 109.208C58.0072 109.278 58.3367 109.388 58.7875 109.538C58.8106 109.549 58.8395 109.561 58.8742 109.573C58.9089 109.584 58.9378 109.59 58.9609 109.59C59.3655 109.717 59.7065 109.844 59.984 109.971C60.2614 110.087 60.5504 110.249 60.851 110.457C61.1631 110.665 61.4001 110.925 61.5619 111.237C61.7238 111.538 61.8047 111.89 61.8047 112.295C61.8047 113.22 61.4868 113.931 60.851 114.428C60.2152 114.925 59.4002 115.173 58.406 115.173ZM68.6679 115V113.318L72.8469 109.763C73.7023 109.047 74.2919 108.457 74.6155 107.995C74.9508 107.521 75.1184 107.018 75.1184 106.486C75.1184 105.908 74.9334 105.451 74.5635 105.116C74.1936 104.769 73.7254 104.596 73.159 104.596C72.6272 104.596 72.1475 104.74 71.7198 105.029C71.3036 105.318 70.847 105.781 70.3499 106.417L68.8413 105.238C69.4656 104.359 70.1071 103.717 70.7661 103.313C71.4365 102.897 72.2862 102.689 73.315 102.689C74.5057 102.689 75.471 103.024 76.2108 103.694C76.9507 104.365 77.3206 105.249 77.3206 106.347C77.3206 106.821 77.2628 107.249 77.1472 107.63C77.0316 108 76.8235 108.382 76.5229 108.775C76.2339 109.156 75.916 109.509 75.5692 109.833C75.234 110.145 74.7658 110.549 74.1647 111.046L71.6677 113.127H77.442V115H68.6679ZM83.5505 115.191C82.4061 115.191 81.4119 114.763 80.5681 113.908C79.7242 113.041 79.3022 111.873 79.3022 110.405C79.3022 108.948 79.7184 107.792 80.5507 106.937C81.3946 106.081 82.3945 105.654 83.5505 105.654C84.799 105.654 85.8394 106.191 86.6717 107.266V102.342H88.7699V115H86.6717V113.474C85.8625 114.619 84.8221 115.191 83.5505 115.191ZM82.1807 112.555C82.7009 113.098 83.3251 113.37 84.0534 113.37C84.7817 113.37 85.4059 113.093 85.9261 112.538C86.4463 111.983 86.7064 111.272 86.7064 110.405C86.7064 109.549 86.4463 108.85 85.9261 108.307C85.4059 107.752 84.7817 107.474 84.0534 107.474C83.3136 107.474 82.6893 107.746 82.1807 108.289C81.672 108.821 81.4177 109.538 81.4177 110.44C81.4177 111.307 81.672 112.012 82.1807 112.555ZM90.5892 115L93.9532 110.353L90.7106 105.844H92.9995L95.115 108.862L97.2304 105.844H99.4673L96.2247 110.301L99.606 115H97.3171L95.0629 111.792L92.8261 115H90.5892Z" fill="#DCD2FF"/>
<path fill-rule="evenodd" clip-rule="evenodd" d="M83.0016 50.6976C74.6759 70.9172 60.9847 74.4417 54.4563 74.9313C30.8192 76.7041 24.7821 43.703 25.0059 27.6532L31.1147 36.5736C30.6238 29.5614 36.0278 23.7378 41.0074 18.3715C44.474 14.6357 47.735 11.1215 48.6581 7.58234C49.3718 3.41949 48.3608 0.792924 47.7661 0C58.7085 4.51967 68.8149 19.1293 72.4326 25.7205C72.5813 24.9771 73.3246 19.9718 73.4733 18.2868C79.896 26.8504 79.2848 44.7507 78.0954 51.887L83.0016 50.6976ZM71.6718 59.401C68.798 64.3787 63.6437 66.783 60.1593 64.7713C56.6749 62.7597 56.18 57.0937 59.0539 52.116C61.9277 47.1384 67.0821 44.734 70.5664 46.7457C74.0508 48.7574 74.5457 54.4234 71.6718 59.401ZM48.8931 64.7739C52.3775 62.7622 52.8724 57.0962 49.9986 52.1185C47.1247 47.1409 41.9704 44.7365 38.486 46.7482C35.0016 48.7599 34.5067 54.4259 37.3806 59.4035C40.2544 64.3812 45.4088 66.7856 48.8931 64.7739ZM49.1243 59.3032C49.1243 61.1917 47.5933 62.7227 45.7048 62.7227C43.8162 62.7227 42.2853 61.1917 42.2853 59.3032C42.2853 57.4147 43.8162 55.8837 45.7048 55.8837C47.5933 55.8837 49.1243 57.4147 49.1243 59.3032ZM63.5753 62.7227C65.4638 62.7227 66.9948 61.1917 66.9948 59.3032C66.9948 57.4147 65.4638 55.8837 63.5753 55.8837C61.6867 55.8837 60.1558 57.4147 60.1558 59.3032C60.1558 61.1917 61.6867 62.7227 63.5753 62.7227ZM44.8851 29.758C40.7873 32.534 37.9451 38.185 38.9366 40.4983C39.5976 37.5902 42.4617 35.6514 43.7285 35.0456C43.9928 36.1031 45.3808 37.5241 46.207 38.0198C44.3564 34.5829 44.5546 31.0799 44.8851 29.758ZM75.0308 39.9928C75.9083 37.9286 73.3931 32.8861 69.7667 30.4091C70.0592 31.5886 70.2346 34.7144 68.5969 37.7812C69.328 37.3388 70.5563 36.0708 70.7903 35.1272C71.9113 35.6678 74.4459 37.3978 75.0308 39.9928ZM58.3834 38.3424C55.3585 41.5262 53.9591 46.9846 55.2507 48.8183C55.2773 46.1584 57.3917 43.9344 58.3741 43.1702C58.8012 44.0436 60.2685 45.0252 61.0762 45.304C58.8306 42.6499 58.3453 39.557 58.3834 38.3424ZM61.5587 28.1086C61.8275 26.7127 59.5975 23.9233 57.0206 22.8715C57.3589 23.5634 57.8839 25.4768 57.2776 27.5951C57.6717 27.2237 58.2639 26.2744 58.2832 25.6586C59.0498 25.8442 60.8507 26.5786 61.5587 28.1086Z" fill="white"/>
</svg>
