<svg width="75" height="119" viewBox="0 0 75 119" fill="none" xmlns="http://www.w3.org/2000/svg">
<path d="M8.5632 115V102.862H10.696V107.908H16.4876V102.862H18.6204V115H16.4876V109.885H10.696V115H8.5632ZM24.72 115V104.839H20.8705V102.862H30.7197V104.839H26.8702V115H24.72ZM32.9814 115V102.862H35.253L38.9464 108.602L42.6398 102.862H44.9114V115H42.7785V106.295L38.9464 112.018H38.877L35.0796 106.33V115H32.9814ZM48.0354 115V102.862H50.1682V113.058H56.5493V115H48.0354ZM62.4821 115.208C60.7827 115.208 59.2973 114.59 58.0257 113.353L59.3435 111.809C60.3839 112.78 61.4243 113.266 62.4647 113.266C63.193 113.266 63.7768 113.075 64.2161 112.694C64.6553 112.301 64.875 111.781 64.875 111.133C64.875 110.52 64.638 110.035 64.164 109.677C63.7016 109.307 63.1005 109.122 62.3607 109.122C61.6324 109.122 60.8868 109.301 60.1238 109.659L58.8407 108.81L59.1875 102.862H66.4356V104.752H61.0255L60.8348 107.596C61.4706 107.365 62.1121 107.249 62.7595 107.249C63.9964 107.249 65.0079 107.578 65.794 108.237C66.5801 108.896 66.9731 109.85 66.9731 111.098C66.9731 112.335 66.557 113.33 65.7246 114.081C64.9039 114.832 63.823 115.208 62.4821 115.208Z" fill="#DCD2FF"/>
<path d="M69.4323 0.505158C69.137 0.183411 68.722 0 68.2852 0H7.55433C7.11756 0 6.70255 0.183411 6.40723 0.505158C6.11191 0.826905 5.96736 1.25901 6.00621 1.69267L11.4775 62.9753C11.535 63.6157 11.9811 64.155 12.5997 64.3322L37.4861 71.4402C37.6244 71.4791 37.7674 71.4993 37.912 71.4993C38.0565 71.4993 38.1995 71.4791 38.3379 71.4402L63.2445 64.3322C63.8631 64.155 64.3092 63.6157 64.3667 62.9753L69.8349 1.69267C69.8722 1.25745 69.7261 0.826905 69.4323 0.505158ZM56.3339 21.6347H27.0954L27.7902 29.5463H55.6298L53.5423 52.9234L37.9104 57.6502L37.7566 57.6035L22.3034 52.9219L21.4609 43.3938H29.029L29.3616 47.0932L37.9975 48.9024L46.4795 47.09L47.3825 37.0879H20.8921L18.8388 14.0729H57.0116L56.3339 21.6347Z" fill="white"/>
</svg>
