<svg width="150" height="151" viewBox="0 0 150 151" fill="none" xmlns="http://www.w3.org/2000/svg">
<path d="M132.25 76.1241L140.71 61.7871C141.049 61.0731 141.091 60.2571 140.833 59.5101L124.078 11.5101C123.568 10.0521 122.029 9.22114 120.535 9.58414L71.2898 21.5841C70.3478 21.8151 69.5738 22.4841 69.2138 23.3841L63.9698 36.5001H48.0008C47.1638 36.5001 46.3658 36.8511 45.7958 37.4661L9.79575 76.4661C8.68575 77.6691 8.74275 79.5411 9.93075 80.6721L47.6798 116.672C48.2408 117.203 48.9818 117.5 49.7498 117.5H66.9668L72.2138 130.616C72.6008 131.585 73.4648 132.281 74.4908 132.458L126.865 141.458C127.036 141.488 127.207 141.503 127.375 141.503C128.761 141.503 130 140.54 130.303 139.142L140.929 90.4551C141.094 89.7021 140.962 88.9131 140.56 88.2531L132.25 76.1241ZM63.9698 36.5001L106.252 28.7511L84.0008 72.5001H33.5018L63.9698 36.5001ZM66.9698 117.5L33.5018 84.5001H84.0008L110.251 124.001L66.9698 117.5ZM121.159 117.191L96.0008 78.5001L118 34.7511L132.25 76.1271L121.159 117.191Z" fill="white"/>
</svg>
