<svg width="117" height="151" viewBox="0 0 117 151" fill="none" xmlns="http://www.w3.org/2000/svg">
<path fill-rule="evenodd" clip-rule="evenodd" d="M116.58 102.108C99.9207 142.547 72.5258 149.596 59.4629 150.575C12.1671 154.121 0.0873937 88.1187 0.535323 56.0191L12.7584 73.8599C11.7762 59.8355 22.5892 48.1883 32.5529 37.4557L32.5529 37.4557L32.5529 37.4557C39.4893 29.984 46.0142 22.9557 47.8613 15.8773C49.2892 7.55162 47.2664 2.29849 46.0764 0.712646C67.9711 9.75198 88.1932 38.9712 95.4319 52.1536C95.7294 50.6669 97.2168 40.6562 97.5143 37.2863C110.366 54.4134 109.143 90.214 106.763 104.487L116.58 102.108ZM93.8935 119.539C88.1432 129.494 77.8298 134.303 70.8579 130.279C63.886 126.256 62.8957 114.924 68.646 104.969C74.3963 95.0134 84.7097 90.2046 91.6816 94.228C98.6535 98.2514 99.6438 109.583 93.8935 119.539ZM48.2504 130.279C55.2223 126.256 56.2125 114.924 50.4622 104.969C44.7119 95.0134 34.3985 90.2046 27.4266 94.228C20.4547 98.2514 19.4645 109.583 25.2148 119.539C30.9651 129.494 41.2785 134.303 48.2504 130.279ZM48.7115 119.354C48.7115 123.131 45.6482 126.193 41.8694 126.193C38.0906 126.193 35.0273 123.131 35.0273 119.354C35.0273 115.577 38.0906 112.515 41.8694 112.515C45.6482 112.515 48.7115 115.577 48.7115 119.354ZM77.5707 126.193C81.3495 126.193 84.4128 123.131 84.4128 119.354C84.4128 115.577 81.3495 112.515 77.5707 112.515C73.7919 112.515 70.7286 115.577 70.7286 119.354C70.7286 123.131 73.7919 126.193 77.5707 126.193ZM37.171 50.6674C29.7935 55.6628 24.6765 65.8321 26.4616 69.995C27.6516 64.7617 32.8079 61.2728 35.0886 60.1825C35.5646 62.0855 38.0635 64.6427 39.5509 65.5348C36.2191 59.3499 36.5761 53.0462 37.171 50.6674ZM91.2965 69.1024C92.8763 65.3879 88.348 56.3137 81.8192 51.8563C82.3457 53.9789 82.6616 59.6038 79.7132 65.1225C81.0294 64.3266 83.2408 62.0448 83.662 60.3467C85.6803 61.3195 90.2435 64.4327 91.2965 69.1024ZM61.4265 66.1092C55.9807 71.8385 53.4612 81.6612 55.7867 84.9609C55.8345 80.1743 59.6412 76.1722 61.4099 74.7971C62.1787 76.3688 64.8204 78.1351 66.2747 78.6369C62.2317 73.8607 61.358 68.295 61.4265 66.1092ZM67.1734 47.7175C67.6573 45.2056 63.6424 40.186 59.0031 38.2933C59.6122 39.5384 60.5574 42.9815 59.4658 46.7935C60.1754 46.1251 61.2415 44.4169 61.2763 43.3087C62.6565 43.6428 65.8987 44.9643 67.1734 47.7175Z" fill="white"/>
</svg>
