<svg width="150" height="151" viewBox="0 0 150 151" fill="none" xmlns="http://www.w3.org/2000/svg">
<g clip-path="url(#clip0)">
<g clip-path="url(#clip1)">
<path d="M74.4593 0.5C36.38 0.500003 38.7579 17.0999 38.7579 17.0999L38.8003 34.2973H75.1385V39.4608H24.3669C24.3669 39.4608 0 36.6829 0 75.3064C-2.71687e-06 113.93 21.268 112.56 21.268 112.56H33.9609V94.6374C33.9609 94.6374 33.2767 73.2581 54.8893 73.2581C76.5019 73.2581 90.9303 73.2581 90.9303 73.2581C90.9303 73.2581 111.179 73.5871 111.179 53.5856C111.179 33.5842 111.179 20.5138 111.179 20.5138C111.179 20.5138 114.254 0.5 74.4593 0.5ZM54.4223 12.0645C58.0377 12.0645 60.9598 15.0019 60.9598 18.6362C60.9598 22.2705 58.0377 25.2079 54.4223 25.2079C50.807 25.2079 47.8849 22.2705 47.8849 18.6362C47.8849 15.0019 50.807 12.0645 54.4223 12.0645Z" fill="white"/>
<path d="M75.4473 150.506C113.527 150.506 111.149 133.906 111.149 133.906L111.106 116.708H74.768V111.545H125.54C125.54 111.545 149.907 114.323 149.907 75.6993C149.907 37.0758 128.639 38.4455 128.639 38.4455H115.946V56.3683C115.946 56.3683 116.63 77.7476 95.0173 77.7476C73.4046 77.7476 58.9762 77.7476 58.9762 77.7476C58.9762 77.7476 38.7269 77.4186 38.7269 97.42C38.7269 117.421 38.7269 130.492 38.7269 130.492C38.7269 130.492 35.6525 150.506 75.4473 150.506ZM95.4842 138.941C91.8689 138.941 88.9468 136.004 88.9468 132.369C88.9468 128.735 91.8689 125.798 95.4842 125.798C99.0996 125.798 102.022 128.735 102.022 132.369C102.022 136.004 99.0996 138.941 95.4842 138.941Z" fill="white"/>
</g>
</g>
<defs>
<clipPath id="clip0">
<rect width="150" height="150" fill="white" transform="translate(0 0.5)"/>
</clipPath>
<clipPath id="clip1">
<rect width="150" height="150" fill="white" transform="translate(0 0.5)"/>
</clipPath>
</defs>
</svg>
