<svg width="137" height="151" viewBox="0 0 137 151" fill="none" xmlns="http://www.w3.org/2000/svg">
<path d="M68.4841 0.5C66.1511 0.5 63.8211 1.08247 61.7389 2.25159L6.81529 33.1178C2.61493 35.4789 0 39.8919 0 44.6401V106.366C0 111.111 2.61167 115.521 6.81529 117.882L61.7389 148.748C63.8195 149.916 66.1524 150.5 68.4841 150.5C70.8158 150.5 73.1487 149.919 75.2293 148.748L130.153 117.889C134.357 115.521 136.968 111.105 136.968 106.36V44.6401C136.968 39.8919 134.353 35.4789 130.153 33.1178L75.2293 2.25159C73.1487 1.08247 70.817 0.5 68.4841 0.5ZM68.4841 36.3662C80.8112 36.3662 92.2121 42.0871 99.6051 51.8248L85.3185 60.0987C81.0203 55.4027 74.9183 52.672 68.4841 52.672C55.8961 52.672 45.6561 62.912 45.6561 75.5C45.6561 88.088 55.8961 98.328 68.4841 98.328C74.9183 98.328 81.0203 95.5973 85.3185 90.9013L99.6051 99.1752C92.2121 108.913 80.8112 114.634 68.4841 114.634C46.9051 114.634 29.3503 97.079 29.3503 75.5C29.3503 53.921 46.9051 36.3662 68.4841 36.3662ZM101.096 59.1943H107.618V65.7166H114.14V59.1943H120.662V65.7166H127.185V72.2389H120.662V78.7611H127.185V85.2834H120.662V91.8057H114.14V85.2834H107.618V91.8057H101.096V85.2834H94.5733V78.7611H101.096V72.2389H94.5733V65.7166H101.096V59.1943ZM107.618 72.2389V78.7611H114.14V72.2389H107.618Z" fill="white"/>
</svg>
