<svg width="137" height="150" viewBox="0 0 137 150" fill="none" xmlns="http://www.w3.org/2000/svg">
<path d="M130.154 32.6134L75.2303 1.75366C71.0692 -0.584552 65.9003 -0.584552 61.7359 1.75366L6.81244 32.6134C2.61214 34.9745 0 39.39 0 44.1382V105.861C0 110.606 2.60888 115.021 6.81244 117.382L61.7359 148.246C63.8165 149.413 66.1514 150 68.4831 150C70.8148 150 73.1497 149.416 75.2303 148.246L130.154 117.386C134.357 115.018 136.966 110.603 136.966 105.858V44.1382C136.966 39.39 134.354 34.9745 130.154 32.6134ZM68.4831 114.131C46.9044 114.131 29.3499 96.5767 29.3499 74.998C29.3499 53.4193 46.9044 35.8648 68.4831 35.8648C80.8101 35.8648 92.2076 41.588 99.6005 51.3256L85.3169 59.5958C81.0188 54.8998 74.9173 52.1703 68.4831 52.1703C55.8953 52.1703 45.6554 62.4101 45.6554 74.998C45.6554 87.5858 55.8953 97.8257 68.4831 97.8257C74.9173 97.8257 81.0188 95.0961 85.3169 90.4001L99.6005 98.6703C92.2076 108.408 80.8101 114.131 68.4831 114.131ZM107.616 78.2591H101.094V84.7813H94.5719V78.2591H88.0497V71.7369H94.5719V65.2147H101.094V71.7369H107.616V78.2591ZM130.444 78.2591H123.922V84.7813H117.4V78.2591H110.877V71.7369H117.4V65.2147H123.922V71.7369H130.444V78.2591Z" fill="white"/>
</svg>
