<svg width="136" height="151" viewBox="0 0 136 151" fill="none" xmlns="http://www.w3.org/2000/svg">
<path d="M113.297 144.624C104.596 152.52 94.9969 151.289 85.8468 147.567C76.1188 143.769 67.2256 143.529 56.9518 147.567C44.1577 152.73 37.3674 151.229 29.662 144.624C-13.841 102.742 -7.41992 38.9439 42.0227 36.5421C54.0141 37.1426 62.4097 42.7418 69.473 43.2072C79.9715 41.2106 90.0205 35.4913 101.257 36.2419C114.758 37.2626 124.855 42.2464 131.597 51.2083C103.826 66.8201 110.408 101.046 135.915 110.653C130.811 123.188 124.261 135.572 113.281 144.729L113.297 144.624ZM68.5098 36.0918C67.2095 17.4776 83.3426 2.16594 101.9 0.664795C104.452 22.1311 81.031 38.1934 68.5098 36.0918Z" fill="white"/>
</svg>
