<svg width="150" height="150" viewBox="0 0 150 150" fill="none" xmlns="http://www.w3.org/2000/svg">
<path d="M75 0C33.6163 0 0 33.6163 0 75C0 116.384 33.6163 150 75 150C116.384 150 150 116.384 150 75C150 33.6163 116.384 0 75 0ZM75 6.52174C112.859 6.52174 143.478 37.1413 143.478 75C143.478 112.859 112.859 143.478 75 143.478C37.1413 143.478 6.52174 112.859 6.52174 75C6.52174 37.1413 37.1413 6.52174 75 6.52174ZM70.5033 27.7174C44.912 33.8054 15.1826 64.9109 18.075 88.4511C31.9989 63.8935 41.4228 60.5543 43.9826 60.5543C46.5587 60.5543 47.9446 61.9435 47.9446 64.9109V101.511C47.9446 106.057 43.5489 105.509 40.6337 105.065C51.4337 121.174 76.6304 122.283 76.6304 122.283L87.913 110.015L98.7946 119.315C115.366 108.587 126.307 90.4141 126.307 87.662C118.105 96.7043 111.062 98.3478 109.48 98.3478C107.902 98.3478 105.329 98.1587 105.329 95.9804V52.5652C105.329 48.7957 115.699 36.4239 118.97 32.263C97.4054 37.9174 89.1 48.6946 89.1 48.6946C89.1 48.6946 86.1978 46.5163 79.8033 46.5163C82.1967 48.5543 85.5457 52.2457 85.5457 56.6022V96.3587C85.5457 96.3587 78.4141 101.504 74.263 101.504C70.1087 101.504 67.1413 99.7337 67.1413 96.5609V49.0794C67.1413 49.0794 61.2065 53.2435 61.2065 40.9663C61.2065 34.8359 70.5033 27.7174 70.5033 27.7174Z" fill="white"/>
</svg>
