<svg width="151" height="151" viewBox="0 0 151 151" fill="none" xmlns="http://www.w3.org/2000/svg">
<path d="M141.133 0.712646H10.1192C4.86322 0.712646 0.589844 4.98407 0.589844 10.2376V141.188C0.589844 146.441 4.86322 150.713 10.1192 150.713H141.129C146.385 150.713 150.658 146.441 150.658 141.191V10.2376C150.658 4.98407 146.385 0.712646 141.133 0.712646ZM82.7702 115.648C82.7702 129.927 74.395 136.427 62.1679 136.427C51.12 136.427 43.145 129.023 39.8935 122.141L51.1236 115.345C53.2925 119.188 56.5904 122.141 61.3319 122.141C65.8661 122.141 68.478 120.37 68.478 113.477V68.5698H82.7702V115.648ZM113.774 136.427C101.111 136.427 93.9182 130.045 89.9163 122.141L100.636 114.998C103.558 119.766 106.735 124.334 113.459 124.334C119.108 124.334 122.074 121.513 122.074 117.613C122.074 112.941 119.008 111.284 112.791 108.566L109.382 107.106C99.5457 102.916 93.007 97.6662 93.007 86.5734C93.007 76.3519 100.796 68.5734 112.973 68.5734C121.642 68.5734 127.873 71.5876 132.364 79.4841L121.749 86.2984C119.412 82.1091 116.889 80.4591 112.973 80.4591C108.979 80.4591 106.449 82.9912 106.449 86.2984C106.449 90.3876 108.982 92.0412 114.831 94.5734L118.24 96.0341C129.827 100.995 136.366 106.055 136.366 117.438C136.366 129.705 126.722 136.427 113.774 136.427Z" fill="white"/>
</svg>
