<svg width="135" height="151" viewBox="0 0 135 151" fill="none" xmlns="http://www.w3.org/2000/svg">
<path d="M134.131 1.77243C133.511 1.09743 132.64 0.712646 131.723 0.712646H4.25649C3.33977 0.712646 2.46872 1.09743 1.84887 1.77243C1.22902 2.44743 0.925624 3.35395 1.00718 4.26373L12.4907 132.83C12.6114 134.174 13.5477 135.305 14.8461 135.677L67.0797 150.589C67.3701 150.67 67.6702 150.713 67.9736 150.713C68.277 150.713 68.5771 150.67 68.8675 150.589L121.144 135.677C122.442 135.305 123.378 134.174 123.499 132.83L134.976 4.26373C135.054 3.35069 134.748 2.44743 134.131 1.77243ZM106.639 46.1007H45.2709L46.7291 62.6985H105.161L100.78 111.742L67.9704 121.658L67.6474 121.56L35.213 111.739L33.4448 91.7496H49.3292L50.0274 99.5105L68.153 103.306L85.9557 99.504L87.8512 78.5203H32.2508L27.9412 30.2366H108.061L106.639 46.1007Z" fill="white"/>
</svg>
