<svg width="93" height="101" viewBox="0 0 93 101" fill="none" xmlns="http://www.w3.org/2000/svg">
<path d="M21.4111 0.407951C11.449 2.18913 3.43368 9.56236 0.906901 19.2553C-0.00439716 22.7555 -0.0665311 24.8059 0.0370255 51.9585C0.0991595 76.8949 0.119871 77.4748 0.534097 79.401C2.83305 89.7773 10.2063 97.1713 20.6862 99.6152C22.0532 99.9259 23.7929 99.988 34.9977 100.05C46.5961 100.133 47.7973 100.112 48.108 99.8016C48.4187 99.491 48.4394 95.4937 48.4394 50.1773C48.4394 16.5835 48.3773 0.76004 48.2323 0.470085C48.0252 0.0972824 47.6731 0.0765686 35.5362 0.0972824C25.6777 0.117989 22.7159 0.180122 21.4111 0.407951ZM40.1549 50.1151V92.0763L31.7254 91.9727C23.9586 91.8899 23.1302 91.8485 21.5768 91.455C14.9078 89.7359 9.95775 84.5995 8.57009 77.9097C8.11444 75.8179 8.11444 24.2881 8.54938 22.2377C9.79206 16.4178 13.8308 11.5921 19.2779 9.41737C22.0117 8.31968 23.2751 8.19541 32.1396 8.1747L40.1549 8.15398V50.1151Z" fill="white"/>
<path d="M20.3602 30.4918C19.2148 30.71 17.4693 31.5827 16.542 32.4009C14.6329 34.0555 13.6875 36.4009 13.8329 39.1645C13.9057 40.6009 13.9966 40.9827 14.5784 42.1464C15.4329 43.91 16.7239 45.2009 18.4875 46.0736C19.7057 46.6736 20.0148 46.7464 21.5966 46.8009C23.0329 46.8555 23.542 46.8009 24.5057 46.4736C28.4511 45.1464 30.8329 41.31 30.1602 37.3827C29.3784 32.71 24.942 29.5827 20.3602 30.4918Z" fill="white"/>
<path d="M51.3949 0.251381C51.3121 0.313499 51.25 22.7575 51.25 50.1293C51.25 95.2865 51.2707 99.8623 51.5813 99.9865C52.1403 100.194 68.2073 100.111 70.1949 99.9037C78.6011 98.9513 86.0134 93.8372 90.0508 86.2385C90.5685 85.2654 91.2517 83.6297 91.6037 82.6152C92.9081 78.7227 92.8667 79.7579 92.8667 50.0051C92.8667 26.2566 92.8253 22.7161 92.5354 21.2047C90.4857 10.4174 82.2658 2.28046 71.4579 0.417023C70.0086 0.168564 67.7725 0.106445 60.5672 0.106445C55.598 0.106445 51.457 0.168564 51.3949 0.251381ZM73.5077 45.3465C76.7376 46.1954 79.3879 48.6593 80.4645 51.8064C81.1478 53.7526 81.1271 56.6099 80.4438 58.3905C79.1808 61.6619 76.6962 63.9601 73.5077 64.809C68.3315 66.1548 62.824 63.0284 61.3125 57.8936C60.857 56.32 60.8777 53.6698 61.3954 52.0548C62.9482 46.9822 68.3315 44.0007 73.5077 45.3465Z" fill="white"/>
</svg>
