<svg width="100" height="101" viewBox="0 0 100 101" fill="none" xmlns="http://www.w3.org/2000/svg">
<path d="M22.2755 8.58556C22.5322 8.34054 22.8005 8.1072 23.0923 7.89719C30.9336 2.81027 39.9767 0.0917969 50.0117 0.0917969C59.3933 0.0917969 68.1914 2.69359 75.6827 7.19715C76.2311 7.51217 77.7247 8.53889 78.4831 9.4606C71.2369 1.4802 49.9534 18.6194 49.9534 18.6194C42.6022 12.9374 35.8227 9.07558 30.7935 7.68718C26.5695 6.53212 23.664 7.5005 22.2755 8.58556ZM86.6745 16.1226C86.4645 15.8776 86.2194 15.6559 85.9977 15.3992C84.1774 13.3925 81.9254 12.9141 79.8951 13.0308C78.0397 13.6258 69.51 16.6943 58.9966 26.6231C58.9966 26.6231 70.8285 38.127 78.0864 49.8993C85.3326 61.6599 89.6617 70.912 87.0012 83.7343C95.3793 74.5289 100.023 62.5349 100 50.086C100 36.9836 94.9592 25.0364 86.6745 16.1226ZM68.6115 54.9162C64.0024 49.7593 59.2299 44.7424 54.3175 39.8771C52.9406 38.5121 51.482 37.077 49.9417 35.5952C49.9417 35.5952 47.6313 37.9054 44.6442 40.9388V40.9272C40.8052 44.8124 35.8227 49.8643 33.0573 52.8278C28.1331 58.078 14.0258 74.5639 13.244 83.816C13.244 83.816 10.1051 76.489 16.9896 59.5714C21.482 48.4992 35.0759 31.9084 40.7469 26.4948C40.7469 26.4948 35.5543 20.8012 29.0549 16.8576L29.0082 16.846C29.0082 16.846 28.9266 16.7876 28.8332 16.7293C25.706 14.8625 22.2755 13.4158 18.9966 13.2175C15.6477 13.4625 13.5123 15.9243 13.5123 15.9243C4.81922 25.153 -0.0232533 37.392 8.39608e-05 50.0976C8.39608e-05 77.714 22.3805 100.092 50.0117 100.092C64.6675 100.092 77.8414 93.7798 87.0012 83.7226C87.0012 83.711 85.9511 77.119 79.2299 67.6568C77.6313 65.4517 71.867 58.5447 68.6115 54.9162Z" fill="white"/>
</svg>
