<svg width="110" height="101" viewBox="0 0 110 101" fill="none" xmlns="http://www.w3.org/2000/svg">
<path d="M54.8749 0.0917969C51.0862 0.0917969 47.4526 1.59687 44.7735 4.27593C42.0945 6.95498 40.5894 10.5886 40.5894 14.3773C40.5894 18.1661 42.0945 21.7996 44.7735 24.4787C47.4526 27.1578 51.0862 28.6628 54.8749 28.6628C58.6637 28.6628 62.2973 27.1578 64.9763 24.4787C67.6554 21.7996 69.1604 18.1661 69.1604 14.3773C69.1604 10.5886 67.6554 6.95498 64.9763 4.27593C62.2973 1.59687 58.6637 0.0917969 54.8749 0.0917969ZM50.1131 33.1085C48.7202 33.3942 47.345 33.7958 46.0069 34.3315L2.98762 51.5931C-0.852805 53.1336 -1.03387 58.5008 2.69465 60.2984L39.3617 77.9832C49.1616 82.7093 60.5836 82.7093 70.3835 77.9832L107.051 60.2984C110.781 58.5008 110.603 53.1336 106.762 51.5931L63.7429 34.3315C62.4072 33.7958 61.0296 33.3964 59.6368 33.1131V57.0293C59.6368 59.6602 57.5058 61.7911 54.8749 61.7911C52.244 61.7911 50.1131 59.6602 50.1131 57.0293V33.1085ZM22.7325 52.472C27.3348 52.472 31.0657 54.6029 31.0657 57.2339C31.0657 59.8624 27.3348 61.9957 22.7325 61.9957C18.1302 61.9957 14.3993 59.8624 14.3993 57.2339C14.3993 54.6029 18.1302 52.472 22.7325 52.472ZM2.30403 68.0829C1.13251 68.1677 0.113774 69.1409 0.113774 70.4498V76.8951C0.113774 77.8117 0.638432 78.6436 1.46699 79.0388L37.0087 96.0401C48.3062 101.442 61.4437 101.442 72.7411 96.0401L108.283 79.0388C109.111 78.6412 109.636 77.8071 109.636 76.8904V70.4638C109.636 68.7138 107.815 67.5604 106.241 68.3247C97.0653 72.7627 72.4528 84.6516 72.4528 84.6516C67.0053 87.2802 60.9248 88.6694 54.8749 88.6694C48.825 88.6694 42.7423 87.2802 37.2924 84.6516C37.2924 84.6516 12.6587 72.751 3.49449 68.3154C3.10224 68.1255 2.69454 68.0546 2.30403 68.0829Z" fill="white"/>
</svg>
