<svg width="100" height="67" viewBox="0 0 100 67" fill="none" xmlns="http://www.w3.org/2000/svg">
<g clip-path="url(#clip0)">
<path d="M96.5625 4.14164C94.375 1.64943 90.9375 0.0917969 87.5 0.0917969H12.8125C9.375 0.0917969 6.25 1.64943 3.75 4.14164C1.25 6.63385 0 10.0606 0 13.4874V53.3628C0 56.7896 1.25 60.2164 3.75 62.7086C6.25 65.5124 9.375 66.7585 12.8125 66.7585H30.625C33.125 66.7585 35.3125 66.1354 37.5 64.8893C39.375 63.6432 41.25 61.774 42.1875 59.5934L47.1875 49.936C47.8125 48.6899 48.75 48.0669 50 48.0669C51.25 48.0669 52.5 48.6899 52.8125 49.936L57.8125 59.5934C58.75 61.774 60.625 63.3317 62.5 64.5778C64.375 65.8239 66.875 66.4469 69.0625 66.4469H86.875C90.3125 66.4469 93.4375 64.8893 95.9375 62.3971C98.4375 59.9049 99.6875 56.4781 99.6875 53.0513V13.4874C100 10.0606 99.0625 6.63385 96.5625 4.14164ZM27.5 43.7055C21.875 43.7055 17.5 39.0326 17.5 33.4251C17.5 27.8177 22.1875 23.4563 27.8125 23.4563C33.4375 23.4563 37.8125 28.1292 37.8125 33.7367C37.5 39.0326 33.125 43.7055 27.5 43.7055ZM73.125 43.7055C67.5 43.7055 62.8125 39.3441 62.8125 33.7367C62.8125 28.1292 67.1875 23.4563 72.8125 23.4563C78.4375 23.4563 83.125 27.8177 83.125 33.4251C83.125 39.0326 78.75 43.7055 73.125 43.7055Z" fill="white"/>
</g>
<defs>
<clipPath id="clip0">
<rect width="100" height="66.6667" fill="white" transform="translate(0 0.0917969)"/>
</clipPath>
</defs>
</svg>
