<svg width="100" height="101" viewBox="0 0 100 101" fill="none" xmlns="http://www.w3.org/2000/svg">
<path d="M2.02396 72.995C-1.72386 76.2208 -0.474585 82.3499 7.52075 85.2531C15.7659 88.8015 24.7607 89.7692 33.5056 87.8337C34.0053 87.8337 34.505 87.5111 34.7549 87.5111V76.5434L26.2598 80.0918C23.0117 81.3821 19.7636 81.7047 16.5155 80.737C14.017 79.7692 14.5167 77.8337 17.5149 76.2208L34.7549 68.4789V56.5434L10.7689 67.1886C7.7706 68.4789 4.77235 70.4144 2.02396 72.995ZM59.9901 24.6079V55.8982C70.2342 62.3499 78.2295 55.8983 78.2295 39.1241C78.2295 22.0273 73.4823 14.2853 59.7403 8.15631C52.4945 4.93051 44.9989 2.02728 37.5033 0.0917969V93.3176L54.993 100.092V21.7047C54.993 18.1563 54.993 15.5757 56.9919 16.5434C59.7403 17.5112 59.9901 21.0595 59.9901 24.6079ZM92.4712 65.5757C85.2254 62.3499 77.4799 61.0595 69.9843 62.0273C65.9866 62.3499 62.2388 63.6402 58.7409 65.2531L57.9913 65.5757V78.1563L74.2318 70.4144C77.4799 69.1241 80.728 68.8015 83.9761 69.7692C86.4747 70.737 85.975 72.6724 82.9767 74.2853L57.9913 86.2208V98.4789L92.4712 82.0273C94.9697 80.737 97.2184 79.1241 99.2172 76.5434C100.966 73.3176 100.217 68.8015 92.4712 65.5757Z" fill="white"/>
</svg>
