<svg width="85" height="101" viewBox="0 0 85 101" fill="none" xmlns="http://www.w3.org/2000/svg">
<path d="M6.18933 32.4833C4.46633 32.4833 3.00444 33.0841 1.80273 34.2858C0.601032 35.4875 0 36.9296 0 38.6126V64.4537C0 66.1789 0.600851 67.6395 1.80273 68.8414C3.00444 70.0431 4.46633 70.6441 6.18933 70.6441C7.91106 70.6441 9.36409 70.0433 10.5472 68.8414C11.7279 67.6397 12.3199 66.1789 12.3199 64.4537V38.6126C12.3199 36.9294 11.719 35.4875 10.5172 34.2858C9.31527 33.0841 7.87236 32.4833 6.18933 32.4833ZM55.9495 9.2857L60.2164 1.41442C60.4965 0.893313 60.3968 0.49371 59.9166 0.212723C59.3953 -0.0295707 58.9948 0.0932032 58.7149 0.572365L54.3883 8.50657C50.5813 6.82335 46.5547 5.98021 42.3086 5.98021C38.0616 5.98021 34.0346 6.82353 30.229 8.50657L25.9022 0.572365C25.6211 0.0932032 25.2206 -0.0284858 24.7005 0.212723C24.2192 0.494976 24.1196 0.893313 24.4007 1.41442L28.6678 9.2857C24.3411 11.4922 20.8951 14.5652 18.3311 18.5113C15.7671 22.4596 14.4846 26.7742 14.4846 31.4628H70.0721C70.0721 26.7753 68.7894 22.4605 66.2256 18.5113C63.6615 14.5652 60.2354 11.4922 55.9495 9.2857ZM31.2802 20.7346C30.8188 21.1971 30.2677 21.4273 29.627 21.4273C28.9851 21.4273 28.4452 21.1971 28.0048 20.7346C27.5643 20.2742 27.3441 19.7253 27.3441 19.0825C27.3441 18.4419 27.5643 17.8918 28.0048 17.4304C28.4452 16.97 28.9864 16.7398 29.627 16.7398C30.2677 16.7398 30.8188 16.97 31.2802 17.4304C31.7406 17.8929 31.9719 18.4419 31.9719 19.0825C31.9706 19.7242 31.7395 20.2742 31.2802 20.7346ZM56.61 20.7346C56.1686 21.1971 55.6275 21.4273 54.9879 21.4273C54.3458 21.4273 53.7949 21.1971 53.3344 20.7346C52.8731 20.2742 52.6429 19.7253 52.6429 19.0825C52.6429 18.4419 52.8731 17.8918 53.3344 17.4304C53.7949 16.97 54.3458 16.7398 54.9879 16.7398C55.6285 16.7398 56.1685 16.97 56.61 17.4304C57.0508 17.8929 57.2707 18.4419 57.2707 19.0825C57.2707 19.7242 57.0507 20.2742 56.61 20.7346ZM14.7233 73.6484C14.7233 75.4931 15.3639 77.0546 16.6454 78.336C17.9279 79.6175 19.4894 80.2581 21.3328 80.2581H25.7802L25.8411 93.9014C25.8411 95.6242 26.442 97.0872 27.6437 98.2891C28.8454 99.4909 30.2885 100.092 31.9704 100.092C33.6923 100.092 35.1551 99.4909 36.357 98.2891C37.5589 97.0872 38.1597 95.6244 38.1597 93.9014V80.2594H46.4527V93.9014C46.4527 95.6242 47.0534 97.0872 48.2552 98.2891C49.4571 99.4909 50.9187 100.092 52.6418 100.092C54.3637 100.092 55.8265 99.4909 57.0284 98.2891C58.2303 97.0872 58.831 95.6244 58.831 93.9014V80.2594H63.3384C65.1409 80.2594 66.6824 79.6186 67.9662 78.3371C69.2474 77.0557 69.8884 75.4941 69.8884 73.6496V33.6241H14.7233V73.6484ZM78.4255 32.4833C76.7422 32.4833 75.3004 33.0753 74.0985 34.256C72.8968 35.4389 72.296 36.8919 72.296 38.6126V64.4537C72.296 66.1789 72.8967 67.6395 74.0985 68.8414C75.3004 70.0433 76.7433 70.6441 78.4255 70.6441C80.1474 70.6441 81.6102 70.0433 82.812 68.8414C84.0139 67.6395 84.6146 66.1789 84.6146 64.4537V38.6126C84.6146 36.8918 84.0139 35.4389 82.812 34.256C81.6102 33.0753 80.1474 32.4833 78.4255 32.4833Z" fill="white"/>
</svg>
