<svg width="100" height="101" viewBox="0 0 100 101" fill="none" xmlns="http://www.w3.org/2000/svg">
<path d="M68.0248 90.3251C67.4725 90.3251 67.0248 89.8774 67.0248 89.3251V81.5601C67.0248 81.0078 66.5771 80.5601 66.0248 80.5601H34.0242C33.4719 80.5601 33.0242 81.0078 33.0242 81.5601V89.3251C33.0242 89.8774 32.5765 90.3251 32.0242 90.3251H25.2344C24.6821 90.3251 24.2344 90.7728 24.2344 91.3251V95.1845C24.2344 95.7368 24.6821 96.1845 25.2344 96.1845H74.7645C75.3167 96.1845 75.7645 95.7368 75.7645 95.1845V91.3251C75.7645 90.7728 75.3167 90.3251 74.7645 90.3251H68.0248Z" fill="white"/>
<path d="M0.999999 3.99902C0.447714 3.99902 0 4.44674 0 4.99902V73.7008C0 74.2531 0.447715 74.7008 1 74.7008H5.85938H94.1406H99C99.5523 74.7008 100 74.2531 100 73.7008V4.99903C100 4.44674 99.5523 3.99902 99 3.99902H0.999999ZM44.7293 30.8604C44.7293 31.4126 44.2816 31.8604 43.7293 31.8604H38.8053C38.253 31.8604 37.8053 32.3081 37.8053 32.8604V51.6096C37.8053 52.1619 37.3576 52.6096 36.8053 52.6096H32.9459C32.3936 52.6096 31.9459 52.1619 31.9459 51.6096V32.8604C31.9459 32.3081 31.4982 31.8604 30.9459 31.8604H26.0221C25.4698 31.8604 25.0221 31.4126 25.0221 30.8604V27.001C25.0221 26.4487 25.4698 26.001 26.0221 26.001H43.7293C44.2816 26.001 44.7293 26.4487 44.7293 27.001V30.8604ZM63.6894 51.3029C63.3244 52.0526 62.2561 52.0526 61.8911 51.3029L51.0403 29.0136C50.7985 28.517 51.0051 27.9185 51.5017 27.6768L54.9718 25.9875C55.4683 25.7458 56.0669 25.9524 56.3086 26.4489L61.8911 37.9163C62.2561 38.6661 63.3244 38.6661 63.6894 37.9163L69.2719 26.4489C69.5136 25.9524 70.1121 25.7458 70.6087 25.9875L74.0788 27.6768C74.5754 27.9185 74.782 28.517 74.5402 29.0136L63.6894 51.3029Z" fill="white"/>
</svg>
