<svg width="90" height="101" viewBox="0 0 90 101" fill="none" xmlns="http://www.w3.org/2000/svg">
<g clip-path="url(#clip0)">
<path d="M75.0357 96.0924C69.2423 101.352 62.8504 100.532 56.7578 98.0524C50.2803 95.5224 44.3587 95.3624 37.5179 98.0524C28.9989 101.492 24.4775 100.492 19.3468 96.0924C-9.61991 68.1924 -5.34437 25.6924 27.5772 24.0924C35.5618 24.4924 41.1521 28.2224 45.8552 28.5324C52.8457 27.2024 59.5369 23.3924 67.0191 23.8924C76.0084 24.5724 82.7317 27.8924 87.221 33.8624C68.7293 44.2624 73.1117 67.0624 90.0963 73.4624C86.6972 81.8124 82.3362 90.0624 75.025 96.1624L75.0357 96.0924ZM45.2138 23.7924C44.348 11.3924 55.0903 1.19238 67.4466 0.192383C69.1461 14.4924 53.5511 25.1924 45.2138 23.7924Z" fill="white"/>
</g>
<defs>
<clipPath id="clip0">
<rect width="90" height="100" fill="white" transform="translate(0 0.0917969)"/>
</clipPath>
</defs>
</svg>
