<svg width="90" height="119" viewBox="0 0 90 119" fill="none" xmlns="http://www.w3.org/2000/svg">
<path d="M59.6088 66.4712C59.0565 66.4712 58.6088 66.0235 58.6088 65.4712V59.9521C58.6088 59.3999 58.1611 58.9521 57.6088 58.9521H33.4283C32.8761 58.9521 32.4283 59.3999 32.4283 59.9521V65.4712C32.4283 66.0235 31.9806 66.4712 31.4283 66.4712H26.6602C26.1079 66.4712 25.6602 66.919 25.6602 67.4712V69.983C25.6602 70.5352 26.1079 70.983 26.6602 70.983H64.3383C64.8906 70.983 65.3383 70.5352 65.3383 69.983V67.4712C65.3383 66.919 64.8906 66.4712 64.3383 66.4712H59.6088Z" fill="white"/>
<path d="M8 0C7.44772 0 7 0.447715 7 1V53.4404C7 53.9926 7.44772 54.4404 8 54.4404H11.5117H79.4883H83C83.5523 54.4404 84 53.9926 84 53.4404V1C84 0.447715 83.5523 0 83 0H8ZM41.4416 20.4532C41.4416 21.0055 40.9938 21.4532 40.4416 21.4532H37.1101C36.5578 21.4532 36.1101 21.9009 36.1101 22.4532V36.4301C36.1101 36.9824 35.6623 37.4301 35.1101 37.4301H32.5983C32.0461 37.4301 31.5983 36.9824 31.5983 36.4301V22.4532C31.5983 21.9009 31.1506 21.4532 30.5983 21.4532H27.267C26.7147 21.4532 26.267 21.0055 26.267 20.4532V17.9415C26.267 17.3892 26.7147 16.9415 27.267 16.9415H40.4416C40.9938 16.9415 41.4416 17.3892 41.4416 17.9415V20.4532ZM56.2476 35.9992C55.8826 36.7489 54.8143 36.7489 54.4494 35.9992L46.4017 19.468C46.1599 18.9714 46.3665 18.3729 46.8631 18.1312L49.1215 17.0318C49.618 16.7901 50.2166 16.9966 50.4583 17.4932L54.4494 25.6915C54.8143 26.4413 55.8826 26.4413 56.2476 25.6915L60.2387 17.4932C60.4804 16.9966 61.0789 16.7901 61.5755 17.0318L63.8339 18.1312C64.3304 18.3729 64.537 18.9714 64.2953 19.468L56.2476 35.9992Z" fill="white"/>
<path d="M10.0697 98L15.4104 85.7753H17.3872L22.7279 98H20.4737L19.2426 95.0695H13.503L12.2546 98H10.0697ZM14.2833 93.1795H18.4623L16.3641 88.3243L14.2833 93.1795ZM24.5666 98V88.8445H26.6648V90.2664C27.3931 89.1913 28.3468 88.6537 29.5259 88.6537C30.5432 88.6537 31.3408 88.9716 31.9188 89.6074C32.4968 90.2432 32.7858 91.0987 32.7858 92.1738V98H30.6877V92.798C30.6877 92.0813 30.5143 91.5322 30.1675 91.1507C29.8322 90.7577 29.3525 90.5611 28.7282 90.5611C28.1156 90.5611 27.6185 90.7634 27.237 91.168C26.8555 91.5726 26.6648 92.1275 26.6648 92.8327V98H24.5666ZM39.0996 98.1907C37.9552 98.1907 36.961 97.763 36.1171 96.9076C35.2732 96.0406 34.8513 94.873 34.8513 93.4049C34.8513 91.9483 35.2675 90.7923 36.0998 89.9369C36.9437 89.0815 37.9436 88.6537 39.0996 88.6537C40.3481 88.6537 41.3885 89.1913 42.2208 90.2664V85.3418H44.3189V98H42.2208V96.4741C41.4116 97.6185 40.3712 98.1907 39.0996 98.1907ZM37.7297 95.5551C38.2499 96.0984 38.8742 96.37 39.6025 96.37C40.3307 96.37 40.955 96.0926 41.4752 95.5377C41.9954 94.9828 42.2555 94.2719 42.2555 93.4049C42.2555 92.5495 41.9954 91.8501 41.4752 91.3068C40.955 90.7519 40.3307 90.4744 39.6025 90.4744C38.8626 90.4744 38.2384 90.7461 37.7297 91.2894C37.2211 91.8212 36.9668 92.5379 36.9668 93.4396C36.9668 94.3066 37.2211 95.0117 37.7297 95.5551ZM46.9359 98V88.8445H49.0341V90.9079C49.6814 89.3473 50.7623 88.6017 52.2766 88.6711V90.8906H52.1553C51.2073 90.8906 50.4502 91.2027 49.8837 91.827C49.3173 92.4396 49.0341 93.3355 49.0341 94.5147V98H46.9359ZM58.1464 98.2081C56.7592 98.2081 55.6032 97.7457 54.6784 96.8209C53.7536 95.8961 53.2912 94.769 53.2912 93.4396C53.2912 92.1102 53.7593 90.9831 54.6957 90.0583C55.6321 89.1219 56.7938 88.6537 58.181 88.6537C59.5682 88.6537 60.7242 89.1161 61.649 90.0409C62.5854 90.9657 63.0536 92.0986 63.0536 93.4396C63.0536 94.7574 62.5854 95.8845 61.649 96.8209C60.7127 97.7457 59.5451 98.2081 58.1464 98.2081ZM58.181 96.3874C59.0134 96.3874 59.6838 96.1042 60.1925 95.5377C60.7011 94.9713 60.9554 94.2719 60.9554 93.4396C60.9554 92.6188 60.6896 91.9252 60.1578 91.3588C59.626 90.7808 58.9556 90.4918 58.1464 90.4918C57.3256 90.4918 56.6609 90.775 56.1523 91.3414C55.6436 91.9079 55.3893 92.6073 55.3893 93.4396C55.3893 94.2488 55.6552 94.9424 56.1869 95.5204C56.7187 96.0984 57.3834 96.3874 58.181 96.3874ZM65.225 87.4399V85.4458H67.4792V87.4399H65.225ZM65.3117 98V88.8445H67.4099V98H65.3117ZM73.932 98.1907C72.7876 98.1907 71.7934 97.763 70.9495 96.9076C70.1056 96.0406 69.6837 94.873 69.6837 93.4049C69.6837 91.9483 70.0999 90.7923 70.9322 89.9369C71.7761 89.0815 72.776 88.6537 73.932 88.6537C75.1805 88.6537 76.2209 89.1913 77.0532 90.2664V85.3418H79.1513V98H77.0532V96.4741C76.244 97.6185 75.2036 98.1907 73.932 98.1907ZM72.5621 95.5551C73.0823 96.0984 73.7066 96.37 74.4349 96.37C75.1631 96.37 75.7874 96.0926 76.3076 95.5377C76.8278 94.9828 77.0879 94.2719 77.0879 93.4049C77.0879 92.5495 76.8278 91.8501 76.3076 91.3068C75.7874 90.7519 75.1631 90.4744 74.4349 90.4744C73.695 90.4744 73.0708 90.7461 72.5621 91.2894C72.0535 91.8212 71.7992 92.5379 71.7992 93.4396C71.7992 94.3066 72.0535 95.0117 72.5621 95.5551ZM37.4186 115V104.839H33.5691V102.862H43.4183V104.839H39.5688V115H37.4186ZM49.6856 115.087L44.6397 102.862H46.9979L50.6566 112.191L54.298 102.862H56.6043L51.5583 115.087H49.6856Z" fill="#DCD2FF"/>
</svg>
