<svg width="360" height="123" viewBox="0 0 360 123" fill="none" xmlns="http://www.w3.org/2000/svg">
<path d="M52.2473 109.318C52.2473 108.589 51.9705 108.026 51.4168 107.628C50.8729 107.22 49.9161 106.87 48.5465 106.579C47.1866 106.287 46.1036 105.938 45.2974 105.53C44.5009 105.122 43.9083 104.636 43.5198 104.073C43.141 103.509 42.9516 102.839 42.9516 102.062C42.9516 100.77 43.4955 99.6773 44.5834 98.7837C45.681 97.8901 47.0798 97.4432 48.7796 97.4432C50.5669 97.4432 52.0142 97.9046 53.1215 98.8274C54.2386 99.7502 54.7971 100.93 54.7971 102.368H52.087C52.087 101.63 51.7714 100.993 51.14 100.459C50.5183 99.925 49.7315 99.6579 48.7796 99.6579C47.7986 99.6579 47.0312 99.8716 46.4775 100.299C45.9239 100.726 45.647 101.285 45.647 101.975C45.647 102.625 45.9045 103.116 46.4193 103.446C46.9341 103.776 47.8617 104.092 49.2022 104.393C50.5523 104.694 51.6451 105.054 52.4804 105.471C53.3158 105.889 53.9326 106.394 54.3308 106.987C54.7388 107.569 54.9428 108.283 54.9428 109.128C54.9428 110.537 54.3794 111.669 53.2526 112.523C52.1259 113.368 50.664 113.791 48.867 113.791C47.6043 113.791 46.4873 113.568 45.5159 113.121C44.5446 112.674 43.7821 112.052 43.2284 111.256C42.6845 110.45 42.4125 109.58 42.4125 108.648H45.108C45.1565 109.551 45.5159 110.27 46.1861 110.804C46.8661 111.329 47.7597 111.591 48.867 111.591C49.887 111.591 50.7029 111.387 51.3148 110.979C51.9365 110.561 52.2473 110.008 52.2473 109.318ZM77.7328 105.471C77.7328 103.927 78.0339 102.538 78.6361 101.304C79.2481 100.071 80.0931 99.1188 81.1713 98.4486C82.2592 97.7784 83.4977 97.4432 84.8867 97.4432C87.0334 97.4432 88.7672 98.1863 90.0882 99.6725C91.419 101.159 92.0843 103.135 92.0843 105.603V105.792C92.0843 107.327 91.7881 108.706 91.1956 109.93C90.6128 111.144 89.7725 112.091 88.6749 112.771C87.587 113.451 86.334 113.791 84.9158 113.791C82.7789 113.791 81.045 113.048 79.7143 111.562C78.3933 110.076 77.7328 108.109 77.7328 105.661V105.471ZM80.4428 105.792C80.4428 107.54 80.8459 108.944 81.6521 110.003C82.4681 111.061 83.556 111.591 84.9158 111.591C86.2854 111.591 87.3733 111.057 88.1795 109.988C88.9858 108.91 89.3889 107.404 89.3889 105.471C89.3889 103.742 88.976 102.344 88.1504 101.275C87.3345 100.197 86.2466 99.6579 84.8867 99.6579C83.556 99.6579 82.4826 100.187 81.6667 101.246C80.8508 102.305 80.4428 103.82 80.4428 105.792ZM116.783 113.5V99.8182H114.292V97.7346H116.783V96.1174C116.783 94.4272 117.235 93.1208 118.138 92.198C119.041 91.2752 120.319 90.8138 121.97 90.8138C122.592 90.8138 123.208 90.8964 123.82 91.0615L123.675 93.247C123.218 93.1596 122.732 93.1159 122.218 93.1159C121.343 93.1159 120.668 93.3733 120.192 93.8881C119.716 94.3932 119.478 95.1217 119.478 96.0737V97.7346H122.844V99.8182H119.478V113.5H116.783ZM149.481 93.9173V97.7346H152.424V99.8182H149.481V109.595C149.481 110.226 149.612 110.702 149.874 111.023C150.136 111.333 150.583 111.489 151.215 111.489C151.525 111.489 151.953 111.431 152.497 111.314V113.5C151.788 113.694 151.098 113.791 150.428 113.791C149.223 113.791 148.315 113.427 147.703 112.698C147.091 111.97 146.785 110.935 146.785 109.595V99.8182H143.915V97.7346H146.785V93.9173H149.481ZM189.536 109.784L192.567 97.7346H195.262L190.673 113.5H188.487L184.655 101.552L180.925 113.5H178.74L174.165 97.7346H176.846L179.949 109.536L183.621 97.7346H185.792L189.536 109.784ZM227.741 113.5C227.586 113.189 227.46 112.635 227.363 111.839C226.11 113.14 224.614 113.791 222.875 113.791C221.321 113.791 220.044 113.354 219.043 112.48C218.052 111.596 217.557 110.479 217.557 109.128C217.557 107.487 218.179 106.214 219.422 105.311C220.675 104.398 222.433 103.942 224.696 103.942H227.319V102.703C227.319 101.761 227.037 101.013 226.474 100.459C225.91 99.8959 225.08 99.6142 223.982 99.6142C223.021 99.6142 222.215 99.857 221.564 100.343C220.913 100.828 220.588 101.416 220.588 102.106H217.877C217.877 101.319 218.154 100.561 218.708 99.8327C219.271 99.0945 220.029 98.5117 220.981 98.0843C221.943 97.6569 222.996 97.4432 224.143 97.4432C225.959 97.4432 227.382 97.8998 228.412 98.8128C229.441 99.7162 229.976 100.964 230.014 102.557V109.813C230.014 111.261 230.199 112.412 230.568 113.266V113.5H227.741ZM223.268 111.445C224.113 111.445 224.915 111.227 225.672 110.789C226.43 110.352 226.979 109.784 227.319 109.085V105.85H225.206C221.904 105.85 220.252 106.817 220.252 108.75C220.252 109.595 220.534 110.255 221.097 110.731C221.661 111.207 222.385 111.445 223.268 111.445ZM261.852 100.153C261.444 100.085 261.003 100.051 260.527 100.051C258.759 100.051 257.559 100.804 256.928 102.31V113.5H254.232V97.7346H256.855L256.899 99.5559C257.783 98.1475 259.036 97.4432 260.658 97.4432C261.182 97.4432 261.58 97.5112 261.852 97.6472V100.153ZM290.587 113.791C288.45 113.791 286.711 113.092 285.371 111.693C284.03 110.284 283.36 108.405 283.36 106.054V105.559C283.36 103.995 283.657 102.601 284.249 101.377C284.851 100.144 285.687 99.1819 286.755 98.4923C287.833 97.7929 288.999 97.4432 290.252 97.4432C292.301 97.4432 293.894 98.1183 295.031 99.4685C296.167 100.819 296.736 102.752 296.736 105.267V106.389H286.056C286.095 107.943 286.546 109.201 287.411 110.163C288.285 111.115 289.392 111.591 290.733 111.591C291.685 111.591 292.491 111.397 293.151 111.008C293.812 110.619 294.39 110.105 294.885 109.464L296.532 110.746C295.211 112.776 293.229 113.791 290.587 113.791ZM290.252 99.6579C289.164 99.6579 288.251 100.056 287.513 100.853C286.775 101.639 286.318 102.747 286.143 104.175H294.04V103.971C293.962 102.601 293.593 101.542 292.933 100.794C292.272 100.037 291.379 99.6579 290.252 99.6579Z" fill="white"/>
<path fill-rule="evenodd" clip-rule="evenodd" d="M12.5735 81.529H0.661765H0V22.6319L9.26471 13.3672H31.7647V25.9407H12.5735V39.8378H30.4412V51.7496H12.5735V81.529ZM52.2795 34.5437H38.3824V81.529H52.2795V34.5437ZM58.8971 81.529H72.1324V56.3819H76.103L84.706 81.529H99.2648L90.0001 56.3819H97.9413V13.3672H69.4854L58.8971 22.6319V81.529ZM72.7935 25.9408H83.3818V44.4702H72.7935V25.9408Z" fill="white"/>
<path fill-rule="evenodd" clip-rule="evenodd" d="M138.97 13.3672H105.882V81.529H138.97V69.6172H119.117V52.4113H138.97V39.8378H119.117V25.279H138.97V13.3672ZM173.382 13.3672H144.926V70.9408L146.25 72.2643L155.514 81.529H185.955V54.3966L177.352 45.7937L183.308 39.8378V23.2937L173.382 13.3672ZM193.235 13.3672H206.47V69.6172H227.647V81.529H193.235V13.3672ZM275.294 13.3672H244.853L234.264 24.6172V81.529H248.161V59.6908H261.397V81.529H275.294V13.3672ZM280.588 13.3672H310.367L321.617 24.6172V71.6025L310.367 81.529H280.588V13.3672ZM360 13.3672H328.235V81.529H360V69.6172H342.132V52.4113H360V39.8378H342.132V25.279H360V13.3672ZM170.735 25.9408H158.823V40.4996H170.735V25.9408ZM158.823 53.7347H170.735V68.2935H158.823V53.7347ZM260.073 25.9408H248.823V46.4555H260.073V25.9408ZM295.147 25.9408H307.059V69.6173H295.147V25.9408Z" fill="white"/>
<path d="M41.029 9.39652C38.9114 7.80828 40.5879 5.64651 41.6908 4.76416C41.1618 6.3524 42.8296 6.98824 43.6756 7.41122C44.7344 7.94063 45.8814 8.95534 46.3226 9.39652C47.3814 10.4553 46.3226 11.6024 45.6609 12.0436L41.029 15.3524C37.3236 18.5289 36.3965 21.5289 36.3961 22.6318C36.1756 22.4112 35.7344 21.3083 35.7344 18.6612C35.7344 16.0142 38.3814 13.5877 39.705 12.7053C41.0627 11.8002 41.0285 12.0436 41.6903 11.3818C42.4095 10.6626 42.2525 10.3141 41.029 9.39652Z" fill="white"/>
<path d="M45.6611 1.45546C46.1905 0.926048 45.4405 0.352518 44.9993 0.131929C46.5871 -0.397483 47.426 0.793695 47.647 1.45546C47.647 1.98487 47.2058 2.99958 46.9852 3.44076C46.4558 3.97017 47.647 4.5437 48.3088 4.76429C49.8529 5.20546 53.2058 6.48488 54.2647 8.07311C55.3235 9.66135 54.2647 11.8231 53.6029 12.7055C51.4852 14.8231 49.6323 18.4408 48.9705 19.9849C51.0882 18.9261 53.8235 13.8084 54.9264 11.3819C55.9853 12.4408 55.8088 15.3525 55.5882 16.6761C55.3676 17.3378 54.9264 19.3231 54.9264 21.9702C54.9264 24.6172 53.1617 27.9261 52.2794 29.2496C50.1617 32.4261 46.1018 32.3378 44.3365 31.8967C41.9101 30.5731 37.3218 26.7349 38.3807 21.9702C39.4395 17.2055 44.9983 12.9261 47.6454 11.3819C49.763 9.7937 48.5277 8.51429 47.6454 8.07311C46.0571 7.5437 44.3372 6.08782 43.6758 5.42605C42.617 3.83782 44.5582 2.11723 45.6611 1.45546Z" fill="white"/>
</svg>
