<svg width="187" height="109" viewBox="0 0 187 109" fill="none" xmlns="http://www.w3.org/2000/svg">
<path d="M0.587891 80.3264C15.6249 71.7872 26.2786 65.6335 30.0047 53.6642L30.1675 53.5675C50.866 51.4418 69.9245 45.584 84.7082 36.8878L85.275 36.5557L93.3602 42.1659C121.788 61.8772 126.521 81.6428 122.729 106.856L122.126 107.937C78.5222 110.129 44.3483 107.387 10.2528 90.949L0.587891 86.2748V80.3264Z" fill="url(#paint0_linear)"/>
<path style="mix-blend-mode:multiply" d="M0.587891 80.3264C15.6249 71.7872 26.2786 65.6335 30.0047 53.6642L30.1675 53.5675C50.866 51.4418 69.9245 45.584 84.7082 36.8878L85.275 36.5557L93.3602 42.1659C121.788 61.8772 126.521 81.6428 122.729 106.856L122.126 107.937C78.5222 110.129 44.3483 107.387 10.2528 90.949L0.587891 86.2748V80.3264Z" fill="url(#paint1_linear)"/>
<path d="M1.19082 79.9996C16.2278 71.4605 26.3087 60.4333 30.0348 48.464L30.1976 48.3673C50.8961 46.2114 69.9908 40.3838 84.7384 31.6876L85.3051 31.3555L93.3602 36.9476C121.788 56.6589 126.521 76.4246 122.729 101.643L122.126 101.976C78.5222 104.168 44.3483 101.432 10.2528 84.9939L0.587891 80.3257L1.19082 79.9996Z" fill="url(#paint2_linear)"/>
<path opacity="0.2" d="M1.19082 97.3389L0.587891 97.6831L1.19082 97.3389Z" fill="url(#paint3_linear)"/>
<g style="mix-blend-mode:soft-light">
<path d="M98.263 101.162C62.4914 101.162 36.3786 95.9257 10.9592 83.6484L3.76025 80.2123C17.8265 71.806 27.2744 61.3223 31.1452 49.7576C51.7351 47.5171 70.4078 41.78 85.2096 33.1201L92.5171 38.1868C120.909 57.8679 124.713 77.386 121.397 100.54C112.92 100.962 105.341 101.162 98.263 101.162Z" fill="#FDD65B"/>
</g>
<path style="mix-blend-mode:screen" d="M118.401 63.4053C124.123 74.9458 124.647 87.2472 122.549 101.221L121.946 101.554C78.3426 103.746 44.1687 101.01 10.0732 84.572L1.28856 80.3447L0.751953 80.6527L10.447 85.3269C44.5305 101.765 78.7104 104.507 122.314 102.309L122.917 101.976C125.063 87.676 124.473 75.1632 118.401 63.4053Z" fill="url(#paint4_radial)"/>
<path d="M98.2622 97.4428C63.0814 97.4428 37.457 92.3217 12.5682 80.3222L11.3623 79.7183C22.2693 72.0911 29.9445 63.0567 33.8756 53.1467C53.1391 50.7915 70.7144 45.4047 85.052 37.4453L90.4241 41.2438C116.115 59.0529 120.57 75.9983 118.159 96.9718C110.924 97.2918 104.4 97.4428 98.2622 97.4428Z" fill="white"/>
<path style="mix-blend-mode:screen" d="M12.8762 79.7343C22.9571 72.3486 30.0958 63.7128 33.84 54.304C53.1035 51.9488 70.6788 46.562 85.0164 38.6026L90.4246 42.3831C111.798 57.2088 118.473 71.4307 118.708 87.8749C118.955 70.6395 112.6 55.9044 90.4246 40.5291L84.9983 36.7607C70.6607 44.702 53.0854 50.0888 33.8219 52.4621C29.9089 62.3118 22.2336 71.3703 11.3267 78.9915L12.5325 79.5954L12.8762 79.7343Z" fill="url(#paint5_radial)"/>
<path d="M12.8762 80.4784C22.9571 73.0927 30.0958 64.457 33.84 55.0663C53.1035 52.7111 70.6788 47.3243 85.0164 39.3649L90.4246 43.097C111.798 57.9228 118.473 72.1446 118.708 88.5888C118.955 71.3535 112.6 56.6183 90.4246 41.243L84.9983 37.5049C70.6788 45.4462 53.1035 50.839 33.84 53.1882C29.9089 63.074 22.2336 72.1084 11.3267 79.7598L12.5325 80.3637L12.8762 80.4784Z" fill="url(#paint6_linear)"/>
<path style="mix-blend-mode:color-dodge" d="M65.8797 100.406C65.4516 103.359 58.9219 104.851 51.3009 103.74C43.6799 102.628 37.8436 99.3492 38.2716 96.3961C38.6997 93.443 45.2234 91.9574 52.8444 93.0626C60.4654 94.1677 66.3077 97.459 65.8797 100.406Z" fill="url(#paint7_radial)"/>
<path d="M67.7954 91.7991C66.7041 91.7991 65.6972 91.0442 64.9978 89.6734C63.5387 86.823 62.0314 83.8759 61.6877 80.7296C61.4882 79.0723 61.6951 77.3912 62.2907 75.832C61.7601 75.1617 61.2295 74.5276 60.717 73.9357C59.8729 72.9574 59.0047 71.9852 58.1305 71.0129C56.6171 69.322 55.0797 67.6069 53.6809 65.8435C53.8644 67.6957 53.7648 69.5651 53.3854 71.3873C52.9681 73.3051 52.1723 75.12 51.0448 76.7254C49.9172 78.3308 48.4807 79.6942 46.8196 80.7357L46.3433 79.9989C47.9082 79.0197 49.2617 77.7368 50.3241 76.2257C51.3865 74.7146 52.1363 73.0059 52.5293 71.2001C52.9778 68.9832 53.0125 66.7022 52.6318 64.4726C50.9418 62.2888 49.6237 59.8402 48.7309 57.2258C48.7069 57.1513 48.7033 57.0717 48.7202 56.9953C48.7372 56.9189 48.7741 56.8484 48.8273 56.791C48.88 56.7341 48.9469 56.6923 49.0211 56.67C49.0953 56.6477 49.1741 56.6457 49.2494 56.6642C51.8299 57.2681 52.5233 59.9132 52.7463 60.7768C53.0441 61.8789 53.2855 62.9956 53.4699 64.1224C55.0797 66.2904 56.9487 68.3497 58.7877 70.4271C59.6619 71.4054 60.5362 72.3777 61.3863 73.362C61.8144 73.8633 62.2545 74.3887 62.7007 74.9382C63.334 73.7284 64.2229 72.6712 65.3053 71.8402C65.5405 71.653 65.7997 71.4658 66.0529 71.2786C66.8098 70.8061 67.4807 70.2077 68.0366 69.5092C68.0806 69.1293 68.1552 68.7537 68.2597 68.3859C68.2788 68.2854 68.3358 68.1961 68.4188 68.1365C68.5019 68.0769 68.6047 68.0516 68.7058 68.0658C68.8038 68.0718 68.897 68.1099 68.9711 68.1744C69.0452 68.2388 69.0961 68.3259 69.1158 68.4221C69.1984 68.8899 69.1175 69.3719 68.8867 69.787C68.7618 71.2204 69.0841 72.6573 69.8092 73.8995C70.2795 71.7798 70.6292 69.6118 70.0503 67.5163C69.6515 66.1798 68.8873 64.9818 67.8442 64.0576C66.8011 63.1334 65.5207 62.5199 64.1477 62.2865C64.0338 62.2659 63.9327 62.2012 63.8661 62.1065C63.7995 62.0117 63.7728 61.8945 63.7918 61.7802C63.8109 61.6659 63.874 61.5637 63.9677 61.4957C64.0614 61.4277 64.178 61.3994 64.2924 61.4169L74.6567 62.9689C74.7223 62.978 74.7849 63.0024 74.8394 63.0401C74.8938 63.0779 74.9387 63.128 74.9702 63.1863C75 63.2464 75.0155 63.3125 75.0155 63.3796C75.0155 63.4466 75 63.5128 74.9702 63.5728C73.1614 67.8001 73.27 72.0274 75.2717 75.8018C76.8666 76.4401 78.6361 76.4894 80.2639 75.9407C80.3303 74.6994 80.5181 73.4675 80.8246 72.2629C80.8944 71.8254 81.0535 71.4071 81.2922 71.034C81.5308 70.661 81.8437 70.3413 82.2114 70.0949C82.8973 69.7428 83.6487 69.5371 84.4181 69.491C84.8907 69.4501 85.3588 69.3672 85.8169 69.2434L86.0641 69.1589C85.9877 67.1982 85.8892 65.2416 85.7686 63.289C85.7654 63.225 85.7761 63.161 85.8 63.1015C85.824 63.0421 85.8606 62.9886 85.9073 62.9448C85.9531 62.9001 86.0082 62.8661 86.0687 62.8452C86.1291 62.8243 86.1934 62.8171 86.257 62.824L88.2648 63.0595C88.3422 63.0683 88.416 63.0975 88.4785 63.1442C88.541 63.1909 88.59 63.2533 88.6205 63.3252C88.8508 63.8606 89.0051 64.4258 89.0787 65.0041C89.5098 63.7903 89.732 62.512 89.7359 61.2236C89.7431 59.3184 90.1931 57.4411 91.0503 55.7402L91.8401 56.1146C91.0427 57.7119 90.6297 59.474 90.6343 61.2599C90.6263 63.1643 90.1785 65.0411 89.3259 66.7433C89.2234 66.9486 89.1269 67.1539 89.0184 67.3472C88.6745 68.8974 88.0021 70.3555 87.0468 71.6228C87.1313 74.6967 87.1674 77.7766 87.1433 80.8323C87.2243 82.0176 87.0174 83.2049 86.5404 84.2926C86.1879 84.9368 85.682 85.4838 85.0678 85.8852C84.4536 86.2866 83.7499 86.5299 83.0193 86.5935C82.9327 86.601 82.8458 86.5826 82.7697 86.5407C82.6935 86.4988 82.6314 86.4352 82.5912 86.358C81.0568 83.4153 80.262 80.1422 80.276 76.8224C78.4674 77.3734 76.521 77.2511 74.7954 76.4782C74.7153 76.4393 74.6498 76.3758 74.6085 76.297C73.5713 74.3791 72.9786 72.2519 72.8742 70.0732C72.7698 67.8945 73.1565 65.7203 74.0055 63.7117L67.6929 62.7636C69.2644 63.827 70.411 65.4116 70.9306 67.2385C71.6602 69.8775 71.0271 72.6313 70.4724 75.0892C70.4532 75.1702 70.4112 75.244 70.3513 75.3019C70.2915 75.3597 70.2163 75.399 70.1348 75.4153C70.0535 75.4318 69.9693 75.4252 69.8916 75.3964C69.8138 75.3676 69.7456 75.3177 69.6946 75.2523C68.7233 73.9833 68.1447 72.4568 68.0305 70.8619C67.5775 71.2607 67.1024 71.6337 66.6076 71.9791C66.3544 72.1603 66.1072 72.3415 65.8781 72.5226C64.7865 73.3547 63.9167 74.4437 63.3458 75.6931C66.692 80.0049 69.9298 85.6695 68.5249 91.4368C68.5044 91.5219 68.459 91.5989 68.3946 91.658C68.3301 91.7172 68.2496 91.7558 68.1632 91.7689L67.7954 91.7991ZM62.9358 76.6533C62.5277 77.9376 62.3982 79.2945 62.556 80.633C62.8876 83.6223 64.3647 86.4969 65.7756 89.2748C66.0951 89.8787 66.7463 90.8752 67.711 90.9235C68.7963 85.7903 65.9866 80.6753 62.9358 76.6533ZM81.1382 76.5688C81.0681 79.742 81.7718 82.8845 83.1881 85.7239C83.7202 85.633 84.2248 85.4228 84.6644 85.1091C85.1039 84.7954 85.467 84.3862 85.7264 83.9122C86.1393 82.9451 86.317 81.8937 86.245 80.8444C86.245 78.151 86.245 75.4093 86.1726 72.7159C85.9616 72.9635 85.7325 73.2111 85.4973 73.4587C84.2936 74.8075 82.8043 75.87 81.1382 76.5688ZM86.1183 70.107C85.6096 70.2478 85.0888 70.3408 84.5628 70.3848C83.9174 70.4113 83.2838 70.5674 82.6998 70.8438C82.4315 71.0325 82.2052 71.2748 82.0351 71.5554C81.8649 71.8361 81.7545 72.1489 81.711 72.4743C81.4524 73.4984 81.283 74.5431 81.2045 75.5965C82.6085 74.9414 83.8673 74.0112 84.9065 72.8608C85.3616 72.391 85.7865 71.8928 86.1786 71.3692C86.1485 70.9525 86.1364 70.5298 86.1183 70.107ZM86.9805 69.7266V70.1251C87.1011 69.9198 87.2157 69.7084 87.3302 69.485C87.2182 69.5719 87.1014 69.6525 86.9805 69.7266ZM86.6972 63.7902C86.7936 65.4147 86.878 67.0513 86.9444 68.6879C87.4619 68.2438 87.8844 67.6994 88.1864 67.0875C88.3955 66.0315 88.3078 64.9382 87.9332 63.9291L86.6972 63.7902ZM49.8704 57.8237C50.4883 59.4263 51.2852 60.9539 52.2459 62.3771C52.1434 61.9242 52.0289 61.4652 51.9083 60.9942C51.4802 59.3818 50.829 58.3551 49.8704 57.8237Z" fill="#4916A1"/>
<path d="M140.563 38.2751L142.794 35.8112L175.871 18.0626L175.238 17.3621L178.331 15.1216L179.44 18.3826L179.76 20.3393L140.563 38.2751Z" fill="#70789C"/>
<path d="M140.563 38.2732C140.899 38.8978 141.469 39.3632 142.148 39.567C142.826 39.7709 143.557 39.6965 144.181 39.3602L179.754 20.3374C179.754 20.3374 177.547 18.4411 177.523 18.4532L140.563 38.2732Z" fill="url(#paint8_linear)"/>
<path style="mix-blend-mode:color-dodge" d="M141.07 38.7564L178.029 18.9364C178.029 18.9364 179.078 19.812 179.736 20.3676H179.784C179.784 20.3676 177.577 18.4714 177.553 18.4835L140.563 38.2733C140.741 38.6076 140.99 38.8984 141.293 39.1248C141.208 39.0085 141.134 38.8853 141.07 38.7564Z" fill="url(#paint9_radial)"/>
<path d="M95.2478 55.6683C94.2349 56.2179 91.0695 57.0029 90.5209 55.9884C89.9722 54.9738 92.2573 52.5401 93.2702 51.9906C93.7554 51.7467 94.3164 51.7018 94.834 51.8655C95.3517 52.0292 95.7853 52.3885 96.0427 52.8672C96.3001 53.346 96.3611 53.9063 96.2126 54.4293C96.0642 54.9523 95.7181 55.3968 95.2478 55.6683Z" fill="url(#paint10_radial)"/>
<path d="M113.161 51.8199C118.533 48.9936 111.352 35.1462 105.491 38.5341C99.6309 41.922 93.1554 50.751 93.1554 50.751C92.3716 51.6568 92.2209 52.8344 93.0349 54.3381C93.8488 55.8419 94.5301 56.2767 96.0917 56.2163C96.0917 56.2163 107.795 54.6461 113.161 51.8199Z" fill="url(#paint11_linear)"/>
<path style="mix-blend-mode:screen" d="M109.235 42.0123C114.004 38.2561 111.834 35.1158 106.552 39.3612C101.27 43.6066 94.2281 50.63 94.2281 50.63C93.4141 51.409 93.0222 52.019 93.2815 52.3451C93.5407 52.6712 93.9628 52.5625 95.1686 51.8197C95.1686 51.8197 104.466 45.7626 109.235 42.0123Z" fill="url(#paint12_radial)"/>
<path style="mix-blend-mode:screen" opacity="0.2" d="M111.429 51.5716C116.409 50.086 115.957 47.8395 110.404 49.5486C104.851 51.2576 96.9465 54.3435 96.9465 54.3435C96.0482 54.6817 95.5236 54.9837 95.596 55.2252C95.6683 55.4668 96.0241 55.4607 97.2058 55.2252C97.2058 55.2252 106.449 53.0633 111.429 51.5716Z" fill="url(#paint13_radial)"/>
<path d="M126.46 44.8329L119.116 31.1787L105.388 38.5282H105.327C103.139 39.736 103.006 43.7278 105.032 47.4961C107.058 51.2644 110.458 53.366 112.677 52.1824H112.725L126.46 44.8329Z" fill="url(#paint14_linear)"/>
<path d="M126.438 44.8529C124.243 46.0607 120.824 43.9349 118.793 40.1666C116.761 36.3983 116.899 32.3823 119.094 31.1987C121.289 30.015 124.701 32.1106 126.733 35.885C128.765 39.6593 128.626 43.6692 126.438 44.8529Z" fill="url(#paint15_linear)"/>
<path d="M176.582 17.863L169.239 4.21484L119.021 31.3179H118.967C116.772 32.5257 116.639 36.5175 118.665 40.2858C120.691 44.0541 124.091 46.1497 126.31 44.966H126.365L176.582 17.863Z" fill="url(#paint16_linear)"/>
<path d="M176.559 17.8812C174.365 19.089 170.946 16.9633 168.92 13.1949C166.894 9.42659 166.997 5.41065 169.216 4.22701C171.434 3.04336 174.829 5.1389 176.855 8.91327C178.88 12.6876 178.748 16.6975 176.559 17.8812Z" fill="url(#paint17_linear)"/>
<path style="mix-blend-mode:color-dodge" d="M169.232 13.1349C167.206 9.36056 167.339 5.34462 169.527 4.16098L169.678 4.10059C169.428 4.15142 169.187 4.23678 168.961 4.35422C166.766 5.56202 166.633 9.5538 168.659 13.3221C170.685 17.0905 173.959 19.0894 176.154 18.0748C173.983 18.5398 171.053 16.5107 169.232 13.1349Z" fill="url(#paint18_radial)"/>
<path d="M184.6 11.9634L178.372 0.374512L170.57 4.69844C170.554 4.69518 170.538 4.69518 170.522 4.69844C168.659 5.70091 168.55 9.10691 170.269 12.3076C171.987 15.5083 174.893 17.2837 176.75 16.2812H176.798L184.6 11.9634Z" fill="url(#paint19_linear)"/>
<path d="M184.584 11.9749C182.721 12.9773 179.821 11.1958 178.096 8.0012C176.372 4.80657 176.486 1.39454 178.349 0.386022C180.212 -0.622491 183.113 1.16505 184.831 4.36573C186.549 7.5664 186.441 10.9784 184.584 11.9749Z" fill="url(#paint20_linear)"/>
<path style="mix-blend-mode:color-dodge" d="M178.348 7.86887C176.78 4.95807 176.738 1.87214 178.149 0.62207L178.029 0.670382C176.172 1.6789 176.057 5.08489 177.775 8.28556C179.494 11.4862 182.4 13.2617 184.263 12.2592C184.425 12.1678 184.575 12.0562 184.709 11.9271C182.846 12.7907 180.036 10.979 178.348 7.86887Z" fill="url(#paint21_radial)"/>
<path style="mix-blend-mode:color-dodge" d="M164.03 7.43408L105.871 39.0664C105.641 39.2134 105.421 39.3769 105.214 39.5555C99.5646 43.2272 93.1554 50.7579 93.1554 50.7579C92.3716 51.6637 92.2209 52.8413 93.0349 54.3451C93.8488 55.8488 94.5301 56.2836 96.0917 56.2232C96.0917 56.2232 105.877 54.9067 111.653 52.5152C112.009 52.4816 112.355 52.3791 112.672 52.2133H112.72L171.247 20.8105L164.03 7.43408Z" fill="url(#paint22_radial)"/>
<path style="mix-blend-mode:multiply" opacity="0.2" d="M155.583 90.9691L104.569 60.4963C104.569 60.4963 104.135 60.2608 103.966 60.1883C100.172 58.2233 96.2361 56.5477 92.1908 55.176C91.3769 54.8982 90.985 55.1277 91.1779 56.106C91.3708 57.0843 91.7808 57.658 92.9445 58.7027C92.9445 58.7027 100.493 64.9592 105.371 68.1961C105.627 68.422 105.904 68.6242 106.197 68.8H106.245L157.494 99.5989L155.583 90.9691Z" fill="url(#paint23_radial)"/>
<path style="mix-blend-mode:multiply" opacity="0.3" d="M120.371 71.6583L97.49 57.9921C97.49 57.9921 97.2971 57.8834 97.2187 57.8532C95.5179 56.9706 93.7522 56.2196 91.9371 55.6067C91.5753 55.4799 91.7562 56.7239 92.2807 57.1889C92.2807 57.1889 95.6692 59.997 97.8518 61.4162C97.969 61.5165 98.094 61.6074 98.2256 61.688L121.203 75.4991L120.371 71.6583Z" fill="url(#paint24_radial)"/>
<path style="mix-blend-mode:screen" d="M167.142 10.1211C167.745 11.2927 160.95 16.0876 151.942 20.8282C142.934 25.5689 135.126 28.4917 134.511 27.2839C133.896 26.0761 140.703 21.3174 149.711 16.5768C158.719 11.8362 166.527 8.94348 167.142 10.1211Z" fill="url(#paint25_radial)"/>
<defs>
<linearGradient id="paint0_linear" x1="115.644" y1="72.5723" x2="0.780822" y2="72.5723" gradientUnits="userSpaceOnUse">
<stop stop-color="#CF7E72"/>
<stop offset="0.14" stop-color="#F7AA90"/>
<stop offset="0.2" stop-color="#F9B996"/>
<stop offset="0.33" stop-color="#FCD09F"/>
<stop offset="0.46" stop-color="#FDDDA4"/>
<stop offset="0.57" stop-color="#FEE2A6"/>
<stop offset="0.67" stop-color="#FAC199"/>
<stop offset="0.76" stop-color="#F7A98F"/>
<stop offset="0.85" stop-color="#F59A89"/>
<stop offset="0.93" stop-color="#F49587"/>
<stop offset="1" stop-color="#CC7D71"/>
</linearGradient>
<linearGradient id="paint1_linear" x1="62.7074" y1="89.4573" x2="55.3234" y2="118.463" gradientUnits="userSpaceOnUse">
<stop stop-color="white"/>
<stop offset="1" stop-color="#A3653D"/>
</linearGradient>
<linearGradient id="paint2_linear" x1="3.79546" y1="78.7677" x2="122.511" y2="64.4465" gradientUnits="userSpaceOnUse">
<stop stop-color="#FEE2A6"/>
<stop offset="0.47" stop-color="#F9BA96"/>
<stop offset="0.63" stop-color="#F7A990"/>
<stop offset="0.69" stop-color="#F59E8B"/>
<stop offset="0.77" stop-color="#F49788"/>
<stop offset="1" stop-color="#F49587"/>
</linearGradient>
<linearGradient id="paint3_linear" x1="0.859208" y1="152.918" x2="0.842836" y2="153.033" gradientUnits="userSpaceOnUse">
<stop stop-color="#FEE2A6"/>
<stop offset="0.47" stop-color="#F9BA96"/>
<stop offset="0.63" stop-color="#F7A990"/>
<stop offset="0.69" stop-color="#F59E8B"/>
<stop offset="0.77" stop-color="#F49788"/>
<stop offset="1" stop-color="#F49587"/>
</linearGradient>
<radialGradient id="paint4_radial" cx="0" cy="0" r="1" gradientUnits="userSpaceOnUse" gradientTransform="translate(62.4133 83.177) scale(45.7682 45.8421)">
<stop offset="0.21" stop-color="white"/>
<stop offset="0.41" stop-color="#BABABA"/>
<stop offset="0.7" stop-color="#575757"/>
<stop offset="0.9" stop-color="#181818"/>
<stop offset="1"/>
</radialGradient>
<radialGradient id="paint5_radial" cx="0" cy="0" r="1" gradientUnits="userSpaceOnUse" gradientTransform="translate(73.6693 42.2381) scale(42.024 42.0918)">
<stop stop-color="white"/>
<stop offset="0.25" stop-color="#BABABA"/>
<stop offset="0.62" stop-color="#575757"/>
<stop offset="0.88" stop-color="#181818"/>
<stop offset="1"/>
</radialGradient>
<linearGradient id="paint6_linear" x1="22.9511" y1="63.0438" x2="130.32" y2="63.0438" gradientUnits="userSpaceOnUse">
<stop offset="0.06" stop-color="#F7AA90"/>
<stop offset="0.08" stop-color="#F4A78E"/>
<stop offset="0.34" stop-color="#E0907F"/>
<stop offset="0.59" stop-color="#D38376"/>
<stop offset="0.81" stop-color="#CF7E73"/>
</linearGradient>
<radialGradient id="paint7_radial" cx="0" cy="0" r="1" gradientUnits="userSpaceOnUse" gradientTransform="translate(52.7781 98.2272) rotate(8.06188) scale(13.944 5.37281)">
<stop offset="0.02" stop-color="#FEF8F7"/>
<stop offset="0.03" stop-color="#F8CBC5"/>
<stop offset="0.05" stop-color="#F2A59A"/>
<stop offset="0.07" stop-color="#EE8678"/>
<stop offset="0.09" stop-color="#EA6E5D"/>
<stop offset="0.1" stop-color="#E85D49"/>
<stop offset="0.12" stop-color="#E6523E"/>
<stop offset="0.14" stop-color="#E64F3A"/>
<stop offset="0.15" stop-color="#DE4C38"/>
<stop offset="0.2" stop-color="#B03C2C"/>
<stop offset="0.26" stop-color="#862E22"/>
<stop offset="0.33" stop-color="#622219"/>
<stop offset="0.39" stop-color="#431711"/>
<stop offset="0.47" stop-color="#2A0F0B"/>
<stop offset="0.55" stop-color="#170806"/>
<stop offset="0.64" stop-color="#0A0303"/>
<stop offset="0.76" stop-color="#020101"/>
<stop offset="1"/>
</radialGradient>
<linearGradient id="paint8_linear" x1="156.451" y1="23.4958" x2="165.225" y2="37.2096" gradientUnits="userSpaceOnUse">
<stop stop-color="#D6DAE6"/>
<stop offset="0.01" stop-color="#D4D8E6"/>
<stop offset="0.28" stop-color="#B4B8E3"/>
<stop offset="0.4" stop-color="#9A9FC8"/>
<stop offset="0.53" stop-color="#838AB0"/>
<stop offset="0.65" stop-color="#757DA1"/>
<stop offset="0.76" stop-color="#70789C"/>
<stop offset="0.85" stop-color="#777EA2"/>
<stop offset="0.99" stop-color="#898EB3"/>
<stop offset="1" stop-color="#8B90B5"/>
</linearGradient>
<radialGradient id="paint9_radial" cx="0" cy="0" r="1" gradientUnits="userSpaceOnUse" gradientTransform="translate(146.743 28.9792) scale(15.664 15.6893)">
<stop stop-color="#B4299A"/>
<stop offset="0.12" stop-color="#8A2076"/>
<stop offset="0.26" stop-color="#601652"/>
<stop offset="0.4" stop-color="#3E0E35"/>
<stop offset="0.55" stop-color="#23081E"/>
<stop offset="0.69" stop-color="#0F030D"/>
<stop offset="0.84" stop-color="#040103"/>
<stop offset="1"/>
</radialGradient>
<radialGradient id="paint10_radial" cx="0" cy="0" r="1" gradientUnits="userSpaceOnUse" gradientTransform="translate(93.3002 53.1816) rotate(61.7186) scale(4.14125 4.13757)">
<stop offset="0.1" stop-color="#8493BA"/>
<stop offset="0.21" stop-color="#606C90"/>
<stop offset="0.33" stop-color="#444D6E"/>
<stop offset="0.43" stop-color="#303756"/>
<stop offset="0.53" stop-color="#232A47"/>
<stop offset="0.62" stop-color="#1F2542"/>
<stop offset="0.71" stop-color="#242A49"/>
<stop offset="0.83" stop-color="#34395B"/>
<stop offset="0.98" stop-color="#4D517A"/>
</radialGradient>
<linearGradient id="paint11_linear" x1="99.5714" y1="41.7824" x2="106.74" y2="55.0632" gradientUnits="userSpaceOnUse">
<stop stop-color="#BEC5D8"/>
<stop offset="0.21" stop-color="#EBEDF3"/>
<stop offset="0.24" stop-color="#E2E4EC"/>
<stop offset="0.5" stop-color="#9097B3"/>
<stop offset="0.62" stop-color="#70789C"/>
<stop offset="0.68" stop-color="#767EA3"/>
<stop offset="0.77" stop-color="#888EB5"/>
<stop offset="0.82" stop-color="#949AC2"/>
<stop offset="1" stop-color="#8B90B5"/>
</linearGradient>
<radialGradient id="paint12_radial" cx="0" cy="0" r="1" gradientUnits="userSpaceOnUse" gradientTransform="translate(125.056 55.7988) rotate(51.7548) scale(2.40478 9.89445)">
<stop stop-color="white"/>
<stop offset="1"/>
</radialGradient>
<radialGradient id="paint13_radial" cx="0" cy="0" r="1" gradientUnits="userSpaceOnUse" gradientTransform="translate(-41539.4 -25774.5) rotate(74.079) scale(46.3149 91.1389)">
<stop stop-color="white"/>
<stop offset="1"/>
</radialGradient>
<linearGradient id="paint14_linear" x1="110.218" y1="35.9734" x2="117.49" y2="49.4455" gradientUnits="userSpaceOnUse">
<stop stop-color="#7D62B8"/>
<stop offset="0.03" stop-color="#8D62BB"/>
<stop offset="0.18" stop-color="#DF63C9"/>
<stop offset="0.25" stop-color="#FD62CD"/>
<stop offset="0.31" stop-color="#BF4AAB"/>
<stop offset="0.37" stop-color="#89358F"/>
<stop offset="0.43" stop-color="#5E2477"/>
<stop offset="0.48" stop-color="#3C1665"/>
<stop offset="0.53" stop-color="#240D58"/>
<stop offset="0.58" stop-color="#150750"/>
<stop offset="0.62" stop-color="#10054D"/>
<stop offset="0.66" stop-color="#160954"/>
<stop offset="0.71" stop-color="#251566"/>
<stop offset="0.78" stop-color="#3F2885"/>
<stop offset="0.85" stop-color="#6343AF"/>
<stop offset="0.88" stop-color="#7550C4"/>
<stop offset="0.9" stop-color="#6A42BB"/>
<stop offset="0.94" stop-color="#582AAD"/>
<stop offset="0.97" stop-color="#4D1BA4"/>
<stop offset="1" stop-color="#4916A1"/>
</linearGradient>
<linearGradient id="paint15_linear" x1="-67632.3" y1="20047.1" x2="-67658.5" y2="20555.4" gradientUnits="userSpaceOnUse">
<stop stop-color="#D6DAE6"/>
<stop offset="0.01" stop-color="#D4D8E6"/>
<stop offset="0.28" stop-color="#B4B8E3"/>
<stop offset="0.4" stop-color="#9A9FC8"/>
<stop offset="0.53" stop-color="#838AB0"/>
<stop offset="0.65" stop-color="#757DA1"/>
<stop offset="0.76" stop-color="#70789C"/>
<stop offset="0.85" stop-color="#777EA2"/>
<stop offset="0.99" stop-color="#898EB3"/>
<stop offset="1" stop-color="#8B90B5"/>
</linearGradient>
<linearGradient id="paint16_linear" x1="142.109" y1="18.9046" x2="149.358" y2="32.3342" gradientUnits="userSpaceOnUse">
<stop stop-color="#BEC5D8"/>
<stop offset="0.12" stop-color="#DFE2EC"/>
<stop offset="0.25" stop-color="white"/>
<stop offset="0.29" stop-color="#E9EAF0"/>
<stop offset="0.36" stop-color="#BEC1D2"/>
<stop offset="0.43" stop-color="#9CA1BA"/>
<stop offset="0.5" stop-color="#848BAA"/>
<stop offset="0.56" stop-color="#757D9F"/>
<stop offset="0.62" stop-color="#70789C"/>
<stop offset="0.67" stop-color="#767EA3"/>
<stop offset="0.75" stop-color="#888FB5"/>
<stop offset="0.84" stop-color="#A5AAD4"/>
<stop offset="0.88" stop-color="#B4B8E3"/>
<stop offset="0.89" stop-color="#B2B6E1"/>
<stop offset="0.93" stop-color="#9DA1C9"/>
<stop offset="0.97" stop-color="#9094BA"/>
<stop offset="1" stop-color="#8B90B5"/>
</linearGradient>
<linearGradient id="paint17_linear" x1="-66416.3" y1="19614.5" x2="-66442.6" y2="20122.8" gradientUnits="userSpaceOnUse">
<stop stop-color="#D6DAE6"/>
<stop offset="0.01" stop-color="#D4D8E6"/>
<stop offset="0.28" stop-color="#B4B8E3"/>
<stop offset="0.4" stop-color="#9A9FC8"/>
<stop offset="0.53" stop-color="#838AB0"/>
<stop offset="0.65" stop-color="#757DA1"/>
<stop offset="0.76" stop-color="#70789C"/>
<stop offset="0.85" stop-color="#777EA2"/>
<stop offset="0.99" stop-color="#898EB3"/>
<stop offset="1" stop-color="#8B90B5"/>
</linearGradient>
<radialGradient id="paint18_radial" cx="0" cy="0" r="1" gradientUnits="userSpaceOnUse" gradientTransform="translate(2655.53 229.895) scale(87.8761 140.089)">
<stop stop-color="#B4299A"/>
<stop offset="0.12" stop-color="#8A2076"/>
<stop offset="0.26" stop-color="#601652"/>
<stop offset="0.4" stop-color="#3E0E35"/>
<stop offset="0.55" stop-color="#23081E"/>
<stop offset="0.69" stop-color="#0F030D"/>
<stop offset="0.84" stop-color="#040103"/>
<stop offset="1"/>
</radialGradient>
<linearGradient id="paint19_linear" x1="8916.88" y1="87947.7" x2="9252.95" y2="87947.7" gradientUnits="userSpaceOnUse">
<stop stop-color="#7D62B8"/>
<stop offset="0.03" stop-color="#8D62BB"/>
<stop offset="0.18" stop-color="#DF63C9"/>
<stop offset="0.25" stop-color="#FD62CD"/>
<stop offset="0.31" stop-color="#BF4AAB"/>
<stop offset="0.37" stop-color="#89358F"/>
<stop offset="0.43" stop-color="#5E2477"/>
<stop offset="0.48" stop-color="#3C1665"/>
<stop offset="0.53" stop-color="#240D58"/>
<stop offset="0.58" stop-color="#150750"/>
<stop offset="0.62" stop-color="#10054D"/>
<stop offset="0.66" stop-color="#160954"/>
<stop offset="0.71" stop-color="#251566"/>
<stop offset="0.78" stop-color="#3F2885"/>
<stop offset="0.85" stop-color="#6343AF"/>
<stop offset="0.88" stop-color="#7550C4"/>
<stop offset="0.9" stop-color="#6A42BB"/>
<stop offset="0.94" stop-color="#582AAD"/>
<stop offset="0.97" stop-color="#4D1BA4"/>
<stop offset="1" stop-color="#4916A1"/>
</linearGradient>
<linearGradient id="paint20_linear" x1="182.624" y1="-10.8465" x2="180.991" y2="13.1461" gradientUnits="userSpaceOnUse">
<stop stop-color="#FF63CE"/>
<stop offset="0.03" stop-color="#F760CC"/>
<stop offset="0.21" stop-color="#C249BF"/>
<stop offset="0.39" stop-color="#9737B4"/>
<stop offset="0.56" stop-color="#7529AC"/>
<stop offset="0.72" stop-color="#5D1EA6"/>
<stop offset="0.87" stop-color="#4E18A2"/>
<stop offset="1" stop-color="#4916A1"/>
</linearGradient>
<radialGradient id="paint21_radial" cx="0" cy="0" r="1" gradientUnits="userSpaceOnUse" gradientTransform="translate(2570.45 113.953) scale(68.9606 100.818)">
<stop stop-color="#B4299A"/>
<stop offset="0.12" stop-color="#8A2076"/>
<stop offset="0.26" stop-color="#601652"/>
<stop offset="0.4" stop-color="#3E0E35"/>
<stop offset="0.55" stop-color="#23081E"/>
<stop offset="0.69" stop-color="#0F030D"/>
<stop offset="0.84" stop-color="#040103"/>
<stop offset="1"/>
</radialGradient>
<radialGradient id="paint22_radial" cx="0" cy="0" r="1" gradientUnits="userSpaceOnUse" gradientTransform="translate(14825.9 4756.11) scale(3555.78 2203.07)">
<stop stop-color="#B4299A"/>
<stop offset="0.12" stop-color="#8A2076"/>
<stop offset="0.26" stop-color="#601652"/>
<stop offset="0.4" stop-color="#3E0E35"/>
<stop offset="0.55" stop-color="#23081E"/>
<stop offset="0.69" stop-color="#0F030D"/>
<stop offset="0.84" stop-color="#040103"/>
<stop offset="1"/>
</radialGradient>
<radialGradient id="paint23_radial" cx="0" cy="0" r="1" gradientUnits="userSpaceOnUse" gradientTransform="translate(90.1984 48.6725) rotate(42.6265) scale(27.3781 10.4105)">
<stop/>
<stop offset="1" stop-color="white"/>
</radialGradient>
<radialGradient id="paint24_radial" cx="0" cy="0" r="1" gradientUnits="userSpaceOnUse" gradientTransform="translate(-1937.71 87649) scale(592.931 400.617)">
<stop/>
<stop offset="1" stop-color="white"/>
</radialGradient>
<radialGradient id="paint25_radial" cx="0" cy="0" r="1" gradientUnits="userSpaceOnUse" gradientTransform="translate(147.761 45.2041) rotate(-27.9355) scale(18.4536 2.36286)">
<stop stop-color="white"/>
<stop offset="0.13" stop-color="#FF63CE"/>
<stop offset="1"/>
</radialGradient>
</defs>
</svg>
