<svg width="560" height="404" viewBox="0 0 560 404" fill="none" xmlns="http://www.w3.org/2000/svg">
<path d="M276.836 142.673H356.311C360.257 142.663 364.038 141.085 366.824 138.285C369.61 135.484 371.174 131.691 371.172 127.737V107.098C371.169 105.062 370.749 103.048 369.938 101.182C369.127 99.3159 367.941 97.6366 366.456 96.2483L366.358 96.1581C364.813 94.7745 363.016 93.703 361.065 93.0025L360.818 92.8973C359.363 92.4329 357.845 92.1972 356.319 92.1986H329.087C322.327 92.2005 315.739 90.0599 310.266 86.083C304.793 82.1061 300.716 76.4965 298.617 70.0568C298.452 69.532 298.147 69.0625 297.734 68.6995C297.322 68.3365 296.818 68.0939 296.277 67.9982C296.197 67.9908 296.117 67.9908 296.037 67.9982H295.745C295.295 67.9997 294.851 68.0993 294.443 68.29C294.035 68.4807 293.673 68.758 293.383 69.1026L265.237 104.34C263.1 107.002 261.936 110.316 261.938 113.732V127.737C261.937 129.698 262.321 131.64 263.07 133.452C263.818 135.264 264.915 136.911 266.299 138.298C267.682 139.685 269.325 140.785 271.133 141.536C272.941 142.287 274.879 142.673 276.836 142.673ZM365.226 120.734V127.737C365.228 130.1 364.295 132.368 362.631 134.042C360.966 135.717 358.707 136.662 356.349 136.67H276.836C274.475 136.664 272.213 135.72 270.547 134.045C268.88 132.371 267.943 130.102 267.943 127.737V113.717C267.97 111.672 268.677 109.694 269.953 108.097L294.928 76.8188C298.05 83.2379 302.913 88.6468 308.959 92.4269C315.005 96.207 321.991 98.2056 329.117 98.1942C329.425 98.1942 329.702 98.1942 330.047 98.1942C330.179 98.2037 330.312 98.2037 330.444 98.1942H356.349C357.209 98.2001 358.064 98.3239 358.891 98.5624C360.185 99.0121 361.378 99.7143 362.4 100.629C363.291 101.453 364.002 102.453 364.488 103.567C364.975 104.68 365.226 105.882 365.226 107.098V119.998C365.204 120.104 365.192 120.212 365.189 120.321C365.187 120.46 365.199 120.598 365.226 120.734Z" fill="#EAEAEA" fill-opacity="0.2"/>
<path d="M339.399 81.3597C346.007 81.3711 352.352 78.771 357.051 74.126C361.75 69.4809 364.422 63.1676 364.484 56.5618V56.0889C364.457 51.0497 362.907 46.1362 360.039 41.9922C357.17 37.8481 353.117 34.6666 348.409 32.8643C343.701 31.062 338.559 30.723 333.655 31.8916C328.751 33.0601 324.315 35.6819 320.927 39.4134C320.809 39.5148 320.75 39.5992 320.767 39.5992L320.623 39.7765L320.547 39.8694L320.454 39.9707L319.027 41.786C318.91 41.887 318.808 42.0034 318.723 42.1322C316.14 45.8961 314.634 50.2937 314.368 54.8504C314.103 59.4071 315.087 63.9498 317.215 67.9882C319.343 72.0266 322.534 75.4072 326.444 77.7652C330.353 80.1232 334.833 81.369 339.399 81.3682V81.3597ZM325.885 43.9644C328.364 41.2479 331.603 39.3399 335.182 38.4884C338.76 37.637 342.512 37.8815 345.949 39.1903C349.387 40.499 352.351 42.8113 354.456 45.8266C356.561 48.8419 357.71 52.4206 357.753 56.0974V56.4942C357.63 61.2921 355.632 65.8509 352.186 69.193C348.74 72.5352 344.122 74.3945 339.321 74.3725C334.519 74.3504 329.918 72.4485 326.503 69.0748C323.089 65.7011 321.132 61.1241 321.054 56.3254C321.053 52.6613 322.16 49.0825 324.23 46.0583L325.75 44.1501L325.868 43.9728L325.885 43.9644Z" fill="#EAEAEA" fill-opacity="0.2"/>
<path d="M478.883 0H399.407C395.461 0.0099497 391.681 1.58824 388.894 4.38851C386.108 7.18878 384.545 10.9823 384.547 14.9365V35.5756C384.55 37.6112 384.97 39.6246 385.781 41.4909C386.592 43.3572 387.777 45.0365 389.263 46.4248L389.36 46.515C390.906 47.8986 392.703 48.9701 394.654 49.6706L394.901 49.7758C396.356 50.2402 397.873 50.4759 399.4 50.4745H426.632C433.392 50.4726 439.98 52.6132 445.453 56.5901C450.926 60.567 455.003 66.1766 457.102 72.6163C457.267 73.1411 457.572 73.6106 457.984 73.9736C458.397 74.3366 458.901 74.5792 459.442 74.6749C459.521 74.6823 459.602 74.6823 459.681 74.6749H459.974C460.424 74.6734 460.868 74.5738 461.276 74.3831C461.684 74.1924 462.045 73.9151 462.336 73.5704L490.482 38.333C492.619 35.6714 493.783 32.3574 493.781 28.9413V14.9365C493.782 12.9753 493.397 11.0332 492.649 9.22111C491.901 7.40898 490.804 5.76233 489.42 4.37525C488.037 2.98817 486.394 1.88783 484.586 1.13711C482.778 0.386389 480.84 -2.4836e-07 478.883 0ZM390.493 21.9389V14.9365C390.491 12.5731 391.424 10.3054 393.088 8.63071C394.752 6.95603 397.011 6.01109 399.37 6.00314H478.883C481.244 6.00911 483.505 6.95293 485.172 8.62761C486.839 10.3023 487.775 12.5711 487.775 14.9365V28.9563C487.748 31.0016 487.041 32.9793 485.766 34.5763L460.791 65.8543C457.668 59.4352 452.806 54.0263 446.76 50.2462C440.714 46.4661 433.728 44.4675 426.602 44.4789C426.294 44.4789 426.017 44.4789 425.672 44.4789C425.54 44.4694 425.407 44.4694 425.274 44.4789H399.37C398.51 44.473 397.655 44.3492 396.828 44.1107C395.534 43.661 394.341 42.9588 393.319 42.0446C392.428 41.2201 391.717 40.2198 391.23 39.1064C390.744 37.9931 390.493 36.791 390.493 35.5756V22.6752C390.514 22.5688 390.527 22.4607 390.53 22.3521C390.532 22.2135 390.519 22.075 390.493 21.9389Z" fill="#EAEAEA" fill-opacity="0.2"/>
<path d="M416.32 61.3134C409.711 61.3019 403.366 63.9021 398.667 68.5471C393.969 73.1922 391.297 79.5055 391.234 86.1113V86.5842C391.262 91.6234 392.812 96.5369 395.68 100.681C398.549 104.825 402.602 108.006 407.31 109.809C412.017 111.611 417.16 111.95 422.064 110.782C426.967 109.613 431.404 106.991 434.792 103.26C434.91 103.158 434.969 103.074 434.952 103.074L435.096 102.897L435.172 102.804L435.265 102.702L436.692 100.887C436.809 100.786 436.911 100.67 436.996 100.541C439.579 96.777 441.085 92.3794 441.35 87.8227C441.616 83.266 440.632 78.7233 438.504 74.6849C436.376 70.6465 433.184 67.2659 429.275 64.9079C425.365 62.5499 420.886 61.3041 416.32 61.3049V61.3134ZM429.834 98.7087C427.355 101.425 424.116 103.333 420.537 104.185C416.959 105.036 413.207 104.792 409.77 103.483C406.332 102.174 403.368 99.8617 401.263 96.8465C399.158 93.8312 398.009 90.2525 397.966 86.5757V86.1789C398.089 81.381 400.087 76.8222 403.533 73.4801C406.979 70.1379 411.597 68.2786 416.398 68.3006C421.199 68.3227 425.801 70.2245 429.215 73.5983C432.63 76.972 434.586 81.549 434.665 86.3477C434.666 90.0118 433.559 93.5906 431.489 96.6148L429.969 98.523L429.851 98.7003L429.834 98.7087Z" fill="#EAEAEA" fill-opacity="0.2"/>
<path d="M468.554 142.673H548.03C551.976 142.663 555.757 141.085 558.543 138.285C561.329 135.484 562.893 131.691 562.891 127.737V107.098C562.888 105.062 562.468 103.048 561.657 101.182C560.845 99.3159 559.66 97.6366 558.175 96.2483L558.077 96.1581C556.532 94.7745 554.734 93.703 552.784 93.0025L552.536 92.8973C551.082 92.4329 549.564 92.1972 548.038 92.1986H520.806C514.046 92.2005 507.458 90.0599 501.985 86.083C496.512 82.1061 492.434 76.4965 490.335 70.0568C490.171 69.532 489.866 69.0625 489.453 68.6995C489.041 68.3365 488.537 68.0939 487.996 67.9982C487.916 67.9908 487.836 67.9908 487.756 67.9982H487.464C487.014 67.9997 486.569 68.0993 486.161 68.29C485.754 68.4807 485.392 68.758 485.102 69.1026L456.955 104.34C454.818 107.002 453.654 110.316 453.656 113.732V127.737C453.656 129.698 454.04 131.64 454.788 133.452C455.537 135.264 456.634 136.911 458.017 138.298C459.401 139.685 461.044 140.785 462.852 141.536C464.659 142.287 466.597 142.673 468.554 142.673ZM556.945 120.734V127.737C556.947 130.1 556.013 132.368 554.349 134.042C552.685 135.717 550.426 136.662 548.068 136.67H468.554C466.194 136.664 463.932 135.72 462.265 134.045C460.598 132.371 459.662 130.102 459.662 127.737V113.717C459.689 111.672 460.396 109.694 461.672 108.097L486.646 76.8188C489.769 83.2379 494.632 88.6468 500.678 92.4269C506.724 96.207 513.71 98.2056 520.836 98.1942C521.143 98.1942 521.421 98.1942 521.766 98.1942C521.898 98.2037 522.031 98.2037 522.163 98.1942H548.068C548.928 98.2001 549.783 98.3239 550.609 98.5624C551.904 99.0121 553.096 99.7143 554.118 100.629C555.009 101.453 555.721 102.453 556.207 103.567C556.694 104.68 556.945 105.882 556.945 107.098V119.998C556.923 120.104 556.91 120.212 556.907 120.321C556.905 120.46 556.918 120.598 556.945 120.734Z" fill="#EAEAEA" fill-opacity="0.2"/>
<path d="M531.114 81.3597C537.722 81.3711 544.067 78.771 548.766 74.126C553.465 69.4809 556.137 63.1676 556.199 56.5618V56.0889C556.171 51.0497 554.622 46.1362 551.753 41.9922C548.885 37.8481 544.832 34.6666 540.124 32.8643C535.416 31.062 530.274 30.723 525.37 31.8916C520.466 33.0601 516.03 35.6819 512.642 39.4134C512.524 39.5148 512.465 39.5992 512.481 39.5992L512.338 39.7765L512.262 39.8694L512.169 39.9707L510.742 41.786C510.625 41.887 510.522 42.0034 510.437 42.1322C507.854 45.8961 506.349 50.2937 506.083 54.8504C505.817 59.4071 506.802 63.9498 508.93 67.9882C511.058 72.0266 514.249 75.4072 518.159 77.7652C522.068 80.1232 526.548 81.369 531.114 81.3682V81.3597ZM517.6 43.9644C520.079 41.2479 523.318 39.3399 526.896 38.4884C530.475 37.637 534.227 37.8815 537.664 39.1903C541.101 40.499 544.065 42.8113 546.17 45.8266C548.276 48.8419 549.424 52.4206 549.468 56.0974V56.4942C549.345 61.2921 547.346 65.8509 543.901 69.193C540.455 72.5352 535.836 74.3945 531.035 74.3725C526.234 74.3504 521.633 72.4485 518.218 69.0748C514.804 65.7011 512.847 61.1241 512.769 56.3254C512.768 52.6613 513.875 49.0825 515.944 46.0583L517.465 44.1501L517.583 43.9728L517.6 43.9644Z" fill="#EAEAEA" fill-opacity="0.2"/>
<path d="M95.4495 156.049H15.9737C12.0278 156.059 8.24691 157.637 5.46089 160.437C2.67487 163.238 1.11128 167.031 1.11328 170.985V191.624C1.11597 193.66 1.53597 195.673 2.34722 197.54C3.15847 199.406 4.34367 201.085 5.82935 202.474L5.92682 202.564C7.47204 203.947 9.26942 205.019 11.2202 205.719L11.4676 205.825C12.9221 206.289 14.4397 206.525 15.9662 206.523H43.1979C49.9584 206.521 56.5462 208.662 62.0191 212.639C67.4921 216.616 71.5696 222.225 73.6686 228.665C73.8332 229.19 74.1383 229.659 74.5508 230.022C74.9633 230.385 75.4673 230.628 76.0079 230.724C76.0877 230.731 76.168 230.731 76.2478 230.724H76.5402C76.9903 230.722 77.4346 230.623 77.8424 230.432C78.2502 230.241 78.6118 229.964 78.902 229.619L107.048 194.382C109.185 191.72 110.35 188.406 110.347 184.99V170.985C110.348 169.024 109.964 167.082 109.216 165.27C108.467 163.458 107.37 161.811 105.987 160.424C104.603 159.037 102.96 157.937 101.152 157.186C99.3444 156.435 97.4065 156.049 95.4495 156.049ZM7.05896 177.988V170.985C7.05696 168.622 7.99043 166.354 9.6546 164.68C11.3188 163.005 13.5778 162.06 15.9363 162.052H95.4495C97.8099 162.058 100.072 163.002 101.739 164.676C103.406 166.351 104.342 168.62 104.342 170.985V185.005C104.315 187.05 103.608 189.028 102.332 190.625L77.3575 221.903C74.2348 215.484 69.3723 210.075 63.3262 206.295C57.28 202.515 50.2943 200.516 43.1679 200.528C42.8605 200.528 42.5831 200.528 42.2382 200.528C42.1059 200.518 41.9731 200.518 41.8409 200.528H15.9363C15.0762 200.522 14.221 200.398 13.3945 200.16C12.1002 199.71 10.9076 199.008 9.88561 198.093C8.99446 197.269 8.28326 196.269 7.79679 195.155C7.31032 194.042 7.0591 192.84 7.05896 191.624V178.724C7.08087 178.618 7.09343 178.51 7.09646 178.401C7.09842 178.262 7.08584 178.124 7.05896 177.988Z" fill="#EAEAEA" fill-opacity="0.2"/>
<path d="M32.8861 217.362C26.2777 217.351 19.9327 219.951 15.2338 224.596C10.535 229.241 7.86318 235.554 7.80078 242.16V242.633C7.82862 247.672 9.37819 252.585 12.2466 256.729C15.115 260.874 19.1685 264.055 23.8762 265.857C28.5839 267.66 33.7263 267.999 38.63 266.83C43.5337 265.662 47.9701 263.04 51.3581 259.308C51.4763 259.207 51.5355 259.122 51.5186 259.122L51.6622 258.945L51.7382 258.852L51.8311 258.751L53.2585 256.936C53.3752 256.835 53.4775 256.718 53.5626 256.59C56.1456 252.826 57.6512 248.428 57.9168 243.871C58.1825 239.315 57.1982 234.772 55.07 230.733C52.9419 226.695 49.7508 223.314 45.8413 220.956C41.9317 218.598 37.4522 217.353 32.8861 217.354V217.362ZM46.4001 254.757C43.9212 257.474 40.6819 259.382 37.1036 260.233C33.5253 261.085 29.7735 260.84 26.3361 259.531C22.8986 258.223 19.9347 255.91 17.8295 252.895C15.7244 249.88 14.5756 246.301 14.5324 242.624V242.227C14.6551 237.43 16.6536 232.871 20.0993 229.529C23.545 226.187 28.1636 224.327 32.9646 224.349C37.7657 224.371 42.3669 226.273 45.7817 229.647C49.1965 233.021 51.1529 237.598 51.2314 242.396C51.2321 246.06 50.1251 249.639 48.0556 252.663L46.5353 254.572L46.417 254.749L46.4001 254.757Z" fill="#EAEAEA" fill-opacity="0.2"/>
<path d="M85.1169 298.722H164.593C168.539 298.712 172.319 297.134 175.106 294.333C177.892 291.533 179.455 287.74 179.453 283.785V263.146C179.45 261.111 179.03 259.097 178.219 257.231C177.408 255.365 176.223 253.685 174.737 252.297L174.64 252.207C173.094 250.823 171.297 249.752 169.346 249.051L169.099 248.946C167.644 248.482 166.127 248.246 164.6 248.247H137.368C130.608 248.249 124.02 246.109 118.547 242.132C113.074 238.155 108.997 232.545 106.898 226.106C106.733 225.581 106.428 225.111 106.016 224.748C105.603 224.385 105.099 224.143 104.558 224.047C104.479 224.04 104.398 224.04 104.319 224.047H104.026C103.576 224.049 103.132 224.148 102.724 224.339C102.316 224.53 101.955 224.807 101.664 225.151L73.518 260.389C71.3809 263.05 70.2168 266.365 70.219 269.781V283.785C70.218 285.747 70.6026 287.689 71.3509 289.501C72.0991 291.313 73.1963 292.96 74.5798 294.347C75.9633 295.734 77.606 296.834 79.414 297.585C81.222 298.336 83.1599 298.722 85.1169 298.722ZM173.507 276.783V283.785C173.509 286.149 172.576 288.417 170.912 290.091C169.248 291.766 166.989 292.711 164.63 292.719H85.1169C82.7565 292.713 80.4947 291.769 78.8278 290.094C77.1608 288.42 76.2247 286.151 76.2247 283.785V269.766C76.2516 267.72 76.9587 265.743 78.234 264.146L103.209 232.868C106.332 239.287 111.194 244.696 117.24 248.476C123.286 252.256 130.272 254.254 137.398 254.243C137.706 254.243 137.983 254.243 138.328 254.243C138.46 254.253 138.593 254.253 138.726 254.243H164.63C165.49 254.249 166.345 254.373 167.172 254.611C168.466 255.061 169.659 255.763 170.681 256.677C171.572 257.502 172.283 258.502 172.77 259.615C173.256 260.729 173.507 261.931 173.507 263.146V276.047C173.486 276.153 173.473 276.261 173.47 276.37C173.468 276.508 173.481 276.647 173.507 276.783Z" fill="#EAEAEA" fill-opacity="0.2"/>
<path d="M147.68 237.409C154.289 237.42 160.634 234.82 165.333 230.175C170.031 225.53 172.703 219.216 172.766 212.611V212.138C172.738 207.098 171.188 202.185 168.32 198.041C165.451 193.897 161.398 190.715 156.69 188.913C151.983 187.111 146.84 186.772 141.936 187.94C137.033 189.109 132.596 191.731 129.208 195.462C129.09 195.564 129.031 195.648 129.048 195.648L128.904 195.825L128.828 195.918L128.735 196.02L127.308 197.835C127.191 197.936 127.089 198.052 127.004 198.181C124.421 201.945 122.915 206.343 122.65 210.899C122.384 215.456 123.368 219.999 125.496 224.037C127.624 228.075 130.816 231.456 134.725 233.814C138.635 236.172 143.114 237.418 147.68 237.417V237.409ZM134.166 200.013C136.645 197.297 139.884 195.389 143.463 194.537C147.041 193.686 150.793 193.93 154.23 195.239C157.668 196.548 160.632 198.86 162.737 201.875C164.842 204.891 165.991 208.469 166.034 212.146V212.543C165.911 217.341 163.913 221.9 160.467 225.242C157.021 228.584 152.403 230.443 147.602 230.421C142.801 230.399 138.199 228.497 134.785 225.124C131.37 221.75 129.414 217.173 129.335 212.374C129.334 208.71 130.441 205.131 132.511 202.107L134.031 200.199L134.149 200.022L134.166 200.013Z" fill="#EAEAEA" fill-opacity="0.2"/>
<path d="M287.164 156.049H207.689C203.743 156.059 199.962 157.637 197.176 160.437C194.39 163.238 192.826 167.031 192.828 170.985V191.624C192.831 193.66 193.251 195.673 194.062 197.54C194.873 199.406 196.059 201.085 197.544 202.474L197.642 202.564C199.187 203.947 200.984 205.019 202.935 205.719L203.182 205.825C204.637 206.289 206.155 206.525 207.681 206.523H234.913C241.673 206.521 248.261 208.662 253.734 212.639C259.207 216.616 263.284 222.225 265.383 228.665C265.548 229.19 265.853 229.659 266.266 230.022C266.678 230.385 267.182 230.628 267.723 230.724C267.803 230.731 267.883 230.731 267.963 230.724H268.255C268.705 230.722 269.149 230.623 269.557 230.432C269.965 230.241 270.327 229.964 270.617 229.619L298.763 194.382C300.9 191.72 302.064 188.406 302.062 184.99V170.985C302.063 169.024 301.679 167.082 300.93 165.27C300.182 163.458 299.085 161.811 297.701 160.424C296.318 159.037 294.675 157.937 292.867 157.186C291.059 156.435 289.121 156.049 287.164 156.049ZM198.774 177.988V170.985C198.772 168.622 199.705 166.354 201.369 164.68C203.034 163.005 205.293 162.06 207.651 162.052H287.164C289.525 162.058 291.787 163.002 293.453 164.676C295.12 166.351 296.057 168.62 296.057 170.985V185.005C296.03 187.05 295.323 189.028 294.047 190.625L269.072 221.903C265.95 215.484 261.087 210.075 255.041 206.295C248.995 202.515 242.009 200.516 234.883 200.528C234.575 200.528 234.298 200.528 233.953 200.528C233.821 200.518 233.688 200.518 233.556 200.528H207.651C206.791 200.522 205.936 200.398 205.109 200.16C203.815 199.71 202.622 199.008 201.6 198.093C200.709 197.269 199.998 196.269 199.512 195.155C199.025 194.042 198.774 192.84 198.774 191.624V178.724C198.796 178.618 198.808 178.51 198.811 178.401C198.813 178.262 198.801 178.124 198.774 177.988Z" fill="#EAEAEA" fill-opacity="0.2"/>
<path d="M224.605 217.362C217.996 217.351 211.651 219.951 206.953 224.596C202.254 229.241 199.582 235.554 199.52 242.16V242.633C199.547 247.672 201.097 252.585 203.965 256.729C206.834 260.874 210.887 264.055 215.595 265.857C220.303 267.66 225.445 267.999 230.349 266.83C235.252 265.662 239.689 263.04 243.077 259.308C243.195 259.207 243.254 259.122 243.237 259.122L243.381 258.945L243.457 258.852L243.55 258.751L244.977 256.936C245.094 256.835 245.196 256.718 245.281 256.59C247.864 252.826 249.37 248.428 249.636 243.871C249.901 239.315 248.917 234.772 246.789 230.733C244.661 226.695 241.47 223.314 237.56 220.956C233.65 218.598 229.171 217.353 224.605 217.354V217.362ZM238.119 254.757C235.64 257.474 232.401 259.382 228.822 260.233C225.244 261.085 221.492 260.84 218.055 259.531C214.617 258.223 211.653 255.91 209.548 252.895C207.443 249.88 206.294 246.301 206.251 242.624V242.227C206.374 237.43 208.372 232.871 211.818 229.529C215.264 226.187 219.882 224.327 224.683 224.349C229.484 224.371 234.086 226.273 237.5 229.647C240.915 233.021 242.872 237.598 242.95 242.396C242.951 246.06 241.844 249.639 239.774 252.663L238.254 254.572L238.136 254.749L238.119 254.757Z" fill="#EAEAEA" fill-opacity="0.2"/>
<path d="M276.836 298.722H356.311C360.257 298.712 364.038 297.134 366.824 294.333C369.61 291.533 371.174 287.74 371.172 283.785V263.146C371.169 261.111 370.749 259.097 369.938 257.231C369.127 255.365 367.941 253.685 366.456 252.297L366.358 252.207C364.813 250.823 363.016 249.752 361.065 249.051L360.818 248.946C359.363 248.482 357.845 248.246 356.319 248.247H329.087C322.327 248.249 315.739 246.109 310.266 242.132C304.793 238.155 300.716 232.545 298.617 226.106C298.452 225.581 298.147 225.111 297.734 224.748C297.322 224.385 296.818 224.143 296.277 224.047C296.197 224.04 296.117 224.04 296.037 224.047H295.745C295.295 224.049 294.851 224.148 294.443 224.339C294.035 224.53 293.673 224.807 293.383 225.151L265.237 260.389C263.1 263.05 261.936 266.365 261.938 269.781V283.785C261.937 285.747 262.321 287.689 263.07 289.501C263.818 291.313 264.915 292.96 266.299 294.347C267.682 295.734 269.325 296.834 271.133 297.585C272.941 298.336 274.879 298.722 276.836 298.722ZM365.226 276.783V283.785C365.228 286.149 364.295 288.417 362.631 290.091C360.966 291.766 358.707 292.711 356.349 292.719H276.836C274.475 292.713 272.213 291.769 270.547 290.094C268.88 288.42 267.943 286.151 267.943 283.785V269.766C267.97 267.72 268.677 265.743 269.953 264.146L294.928 232.868C298.05 239.287 302.913 244.696 308.959 248.476C315.005 252.256 321.991 254.254 329.117 254.243C329.425 254.243 329.702 254.243 330.047 254.243C330.179 254.253 330.312 254.253 330.444 254.243H356.349C357.209 254.249 358.064 254.373 358.891 254.611C360.185 255.061 361.378 255.763 362.4 256.677C363.291 257.502 364.002 258.502 364.488 259.615C364.975 260.729 365.226 261.931 365.226 263.146V276.047C365.204 276.153 365.192 276.261 365.189 276.37C365.187 276.508 365.199 276.647 365.226 276.783Z" fill="#EAEAEA" fill-opacity="0.2"/>
<path d="M339.399 237.409C346.007 237.42 352.352 234.82 357.051 230.175C361.75 225.53 364.422 219.216 364.484 212.611V212.138C364.457 207.098 362.907 202.185 360.039 198.041C357.17 193.897 353.117 190.715 348.409 188.913C343.701 187.111 338.559 186.772 333.655 187.94C328.751 189.109 324.315 191.731 320.927 195.462C320.809 195.564 320.75 195.648 320.767 195.648L320.623 195.825L320.547 195.918L320.454 196.02L319.027 197.835C318.91 197.936 318.808 198.052 318.723 198.181C316.14 201.945 314.634 206.343 314.368 210.899C314.103 215.456 315.087 219.999 317.215 224.037C319.343 228.075 322.534 231.456 326.444 233.814C330.353 236.172 334.833 237.418 339.399 237.417V237.409ZM325.885 200.013C328.364 197.297 331.603 195.389 335.182 194.537C338.76 193.686 342.512 193.93 345.949 195.239C349.387 196.548 352.351 198.86 354.456 201.875C356.561 204.891 357.71 208.469 357.753 212.146V212.543C357.63 217.341 355.632 221.9 352.186 225.242C348.74 228.584 344.122 230.443 339.321 230.421C334.519 230.399 329.918 228.497 326.503 225.124C323.089 221.75 321.132 217.173 321.054 212.374C321.053 208.71 322.16 205.131 324.23 202.107L325.75 200.199L325.868 200.022L325.885 200.013Z" fill="#EAEAEA" fill-opacity="0.2"/>
<path d="M478.883 156.049H399.407C395.461 156.059 391.681 157.637 388.894 160.437C386.108 163.238 384.545 167.031 384.547 170.985V191.624C384.55 193.66 384.97 195.673 385.781 197.54C386.592 199.406 387.777 201.085 389.263 202.474L389.36 202.564C390.906 203.947 392.703 205.019 394.654 205.719L394.901 205.825C396.356 206.289 397.873 206.525 399.4 206.523H426.632C433.392 206.521 439.98 208.662 445.453 212.639C450.926 216.616 455.003 222.225 457.102 228.665C457.267 229.19 457.572 229.659 457.984 230.022C458.397 230.385 458.901 230.628 459.442 230.724C459.521 230.731 459.602 230.731 459.681 230.724H459.974C460.424 230.722 460.868 230.623 461.276 230.432C461.684 230.241 462.045 229.964 462.336 229.619L490.482 194.382C492.619 191.72 493.783 188.406 493.781 184.99V170.985C493.782 169.024 493.397 167.082 492.649 165.27C491.901 163.458 490.804 161.811 489.42 160.424C488.037 159.037 486.394 157.937 484.586 157.186C482.778 156.435 480.84 156.049 478.883 156.049ZM390.493 177.988V170.985C390.491 168.622 391.424 166.354 393.088 164.68C394.752 163.005 397.011 162.06 399.37 162.052H478.883C481.244 162.058 483.505 163.002 485.172 164.676C486.839 166.351 487.775 168.62 487.775 170.985V185.005C487.748 187.05 487.041 189.028 485.766 190.625L460.791 221.903C457.668 215.484 452.806 210.075 446.76 206.295C440.714 202.515 433.728 200.516 426.602 200.528C426.294 200.528 426.017 200.528 425.672 200.528C425.54 200.518 425.407 200.518 425.274 200.528H399.37C398.51 200.522 397.655 200.398 396.828 200.16C395.534 199.71 394.341 199.008 393.319 198.093C392.428 197.269 391.717 196.269 391.23 195.155C390.744 194.042 390.493 192.84 390.493 191.624V178.724C390.514 178.618 390.527 178.51 390.53 178.401C390.532 178.262 390.519 178.124 390.493 177.988Z" fill="#EAEAEA" fill-opacity="0.2"/>
<path d="M416.32 217.362C409.711 217.351 403.366 219.951 398.667 224.596C393.969 229.241 391.297 235.554 391.234 242.16V242.633C391.262 247.672 392.812 252.585 395.68 256.729C398.549 260.874 402.602 264.055 407.31 265.857C412.017 267.66 417.16 267.999 422.064 266.83C426.967 265.662 431.404 263.04 434.792 259.308C434.91 259.207 434.969 259.122 434.952 259.122L435.096 258.945L435.172 258.852L435.265 258.751L436.692 256.936C436.809 256.835 436.911 256.718 436.996 256.59C439.579 252.826 441.085 248.428 441.35 243.871C441.616 239.315 440.632 234.772 438.504 230.733C436.376 226.695 433.184 223.314 429.275 220.956C425.365 218.598 420.886 217.353 416.32 217.354V217.362ZM429.834 254.757C427.355 257.474 424.116 259.382 420.537 260.233C416.959 261.085 413.207 260.84 409.77 259.531C406.332 258.223 403.368 255.91 401.263 252.895C399.158 249.88 398.009 246.301 397.966 242.624V242.227C398.089 237.43 400.087 232.871 403.533 229.529C406.979 226.187 411.597 224.327 416.398 224.349C421.199 224.371 425.801 226.273 429.215 229.647C432.63 233.021 434.586 237.598 434.665 242.396C434.666 246.06 433.559 249.639 431.489 252.663L429.969 254.572L429.851 254.749L429.834 254.757Z" fill="#EAEAEA" fill-opacity="0.2"/>
<path d="M468.554 298.722H548.03C551.976 298.712 555.757 297.134 558.543 294.333C561.329 291.533 562.893 287.74 562.891 283.785V263.146C562.888 261.111 562.468 259.097 561.657 257.231C560.845 255.365 559.66 253.685 558.175 252.297L558.077 252.207C556.532 250.823 554.734 249.752 552.784 249.051L552.536 248.946C551.082 248.482 549.564 248.246 548.038 248.247H520.806C514.046 248.249 507.458 246.109 501.985 242.132C496.512 238.155 492.434 232.545 490.335 226.106C490.171 225.581 489.866 225.111 489.453 224.748C489.041 224.385 488.537 224.143 487.996 224.047C487.916 224.04 487.836 224.04 487.756 224.047H487.464C487.014 224.049 486.569 224.148 486.161 224.339C485.754 224.53 485.392 224.807 485.102 225.151L456.955 260.389C454.818 263.05 453.654 266.365 453.656 269.781V283.785C453.656 285.747 454.04 287.689 454.788 289.501C455.537 291.313 456.634 292.96 458.017 294.347C459.401 295.734 461.044 296.834 462.852 297.585C464.659 298.336 466.597 298.722 468.554 298.722ZM556.945 276.783V283.785C556.947 286.149 556.013 288.417 554.349 290.091C552.685 291.766 550.426 292.711 548.068 292.719H468.554C466.194 292.713 463.932 291.769 462.265 290.094C460.598 288.42 459.662 286.151 459.662 283.785V269.766C459.689 267.72 460.396 265.743 461.672 264.146L486.646 232.868C489.769 239.287 494.632 244.696 500.678 248.476C506.724 252.256 513.71 254.254 520.836 254.243C521.143 254.243 521.421 254.243 521.766 254.243C521.898 254.253 522.031 254.253 522.163 254.243H548.068C548.928 254.249 549.783 254.373 550.609 254.611C551.904 255.061 553.096 255.763 554.118 256.677C555.009 257.502 555.721 258.502 556.207 259.615C556.694 260.729 556.945 261.931 556.945 263.146V276.047C556.923 276.153 556.91 276.261 556.907 276.37C556.905 276.508 556.918 276.647 556.945 276.783Z" fill="#EAEAEA" fill-opacity="0.2"/>
<path d="M531.114 237.409C537.722 237.42 544.067 234.82 548.766 230.175C553.465 225.53 556.137 219.216 556.199 212.611V212.138C556.171 207.098 554.622 202.185 551.753 198.041C548.885 193.897 544.832 190.715 540.124 188.913C535.416 187.111 530.274 186.772 525.37 187.94C520.466 189.109 516.03 191.731 512.642 195.462C512.524 195.564 512.465 195.648 512.481 195.648L512.338 195.825L512.262 195.918L512.169 196.02L510.742 197.835C510.625 197.936 510.522 198.052 510.437 198.181C507.854 201.945 506.349 206.343 506.083 210.899C505.817 215.456 506.802 219.999 508.93 224.037C511.058 228.075 514.249 231.456 518.159 233.814C522.068 236.172 526.548 237.418 531.114 237.417V237.409ZM517.6 200.013C520.079 197.297 523.318 195.389 526.896 194.537C530.475 193.686 534.227 193.93 537.664 195.239C541.101 196.548 544.065 198.86 546.17 201.875C548.276 204.891 549.424 208.469 549.468 212.146V212.543C549.345 217.341 547.346 221.9 543.901 225.242C540.455 228.584 535.836 230.443 531.035 230.421C526.234 230.399 521.633 228.497 518.218 225.124C514.804 221.75 512.847 217.173 512.769 212.374C512.768 208.71 513.875 205.131 515.944 202.107L517.465 200.199L517.583 200.022L517.6 200.013Z" fill="#EAEAEA" fill-opacity="0.2"/>
<path d="M94.3362 314.327H14.8605C10.9145 314.337 7.13363 315.915 4.34761 318.715C1.56159 321.516 -0.00199648 325.309 1.91323e-06 329.263V349.902C0.00268493 351.938 0.422689 353.952 1.23394 355.818C2.04519 357.684 3.23039 359.363 4.71607 360.752L4.81354 360.842C6.35876 362.226 8.15614 363.297 10.1069 363.997L10.3543 364.103C11.8088 364.567 13.3264 364.803 14.853 364.801H42.0847C48.8451 364.799 55.4329 366.94 60.9059 370.917C66.3788 374.894 70.4564 380.503 72.5554 386.943C72.7199 387.468 73.025 387.937 73.4375 388.3C73.85 388.663 74.354 388.906 74.8946 389.002C74.9744 389.009 75.0547 389.009 75.1345 389.002H75.427C75.877 389 76.3213 388.901 76.7291 388.71C77.1369 388.519 77.4985 388.242 77.7887 387.897L105.935 352.66C108.072 349.998 109.236 346.684 109.234 343.268V329.263C109.235 327.302 108.851 325.36 108.102 323.548C107.354 321.736 106.257 320.089 104.873 318.702C103.49 317.315 101.847 316.215 100.039 315.464C98.2311 314.713 96.2933 314.327 94.3362 314.327ZM5.94568 336.266V329.263C5.94368 326.9 6.87715 324.632 8.54132 322.958C10.2055 321.283 12.4645 320.338 14.823 320.33H94.3362C96.6966 320.336 98.9584 321.28 100.625 322.955C102.292 324.629 103.228 326.898 103.228 329.263V343.283C103.202 345.328 102.494 347.306 101.219 348.903L76.2442 380.181C73.1215 373.762 68.259 368.353 62.2129 364.573C56.1668 360.793 49.181 358.794 42.0547 358.806C41.7472 358.806 41.4698 358.806 41.1249 358.806C40.9927 358.796 40.8599 358.796 40.7276 358.806H14.823C13.9629 358.8 13.1077 358.676 12.2813 358.438C10.9869 357.988 9.79429 357.286 8.77233 356.371C7.88118 355.547 7.16998 354.547 6.68351 353.433C6.19704 352.32 5.94582 351.118 5.94568 349.902V337.002C5.96759 336.896 5.98015 336.788 5.98318 336.679C5.98514 336.54 5.97256 336.402 5.94568 336.266Z" fill="#EAEAEA" fill-opacity="0.2"/>
<path d="M31.7729 375.64C25.1645 375.629 18.8194 378.229 14.1206 382.874C9.42168 387.519 6.7499 393.832 6.6875 400.438V400.911C6.71534 405.95 8.26491 410.864 11.1333 415.008C14.0017 419.152 18.0552 422.333 22.7629 424.136C27.4706 425.938 32.613 426.277 37.5167 425.108C42.4204 423.94 46.8568 421.318 50.2448 417.587C50.363 417.485 50.4222 417.401 50.4053 417.401L50.5489 417.224L50.6249 417.131L50.7178 417.029L52.1452 415.214C52.2619 415.113 52.3642 414.997 52.4493 414.868C55.0323 411.104 56.5379 406.706 56.8036 402.15C57.0692 397.593 56.0849 393.05 53.9568 389.012C51.8286 384.973 48.6376 381.593 44.728 379.235C40.8185 376.877 36.3389 375.631 31.7729 375.632V375.64ZM45.2869 413.036C42.8079 415.752 39.5686 417.66 35.9903 418.512C32.412 419.363 28.6602 419.118 25.2228 417.81C21.7854 416.501 18.8214 414.189 16.7163 411.173C14.6112 408.158 13.4623 404.579 13.4192 400.903V400.506C13.5418 395.708 15.5403 391.149 18.986 387.807C22.4317 384.465 27.0503 382.605 31.8513 382.628C36.6524 382.65 41.2537 384.551 44.6684 387.925C48.0832 391.299 50.0396 395.876 50.1181 400.675C50.1188 404.339 49.0118 407.918 46.9423 410.942L45.422 412.85L45.3038 413.027L45.2869 413.036Z" fill="#EAEAEA" fill-opacity="0.2"/>
<path d="M84.0037 457H163.479C167.425 456.99 171.206 455.412 173.992 452.611C176.778 449.811 178.342 446.018 178.34 442.064V421.424C178.337 419.389 177.917 417.375 177.106 415.509C176.295 413.643 175.109 411.963 173.624 410.575L173.526 410.485C171.981 409.101 170.184 408.03 168.233 407.329L167.986 407.224C166.531 406.76 165.013 406.524 163.487 406.525H136.255C129.495 406.527 122.907 404.387 117.434 400.41C111.961 396.433 107.883 390.823 105.784 384.384C105.62 383.859 105.315 383.389 104.902 383.026C104.49 382.663 103.986 382.421 103.445 382.325C103.365 382.318 103.285 382.318 103.205 382.325H102.913C102.463 382.327 102.019 382.426 101.611 382.617C101.203 382.808 100.841 383.085 100.551 383.43L72.4047 418.667C70.2677 421.329 69.1036 424.643 69.1057 428.059V442.064C69.1047 444.025 69.4893 445.967 70.2376 447.779C70.9858 449.591 72.0831 451.238 73.4666 452.625C74.8501 454.012 76.4927 455.112 78.3007 455.863C80.1087 456.614 82.0466 457 84.0037 457ZM172.394 435.061V442.064C172.396 444.427 171.463 446.695 169.799 448.369C168.134 450.044 165.875 450.989 163.517 450.997H84.0037C81.6432 450.991 79.3815 450.047 77.7145 448.372C76.0475 446.698 75.1114 444.429 75.1114 442.064V428.044C75.1383 425.998 75.8454 424.021 77.1208 422.424L102.096 391.146C105.218 397.565 110.081 402.974 116.127 406.754C122.173 410.534 129.159 412.533 136.285 412.521C136.593 412.521 136.87 412.521 137.215 412.521C137.347 412.531 137.48 412.531 137.612 412.521H163.517C164.377 412.527 165.232 412.651 166.059 412.889C167.353 413.339 168.546 414.041 169.568 414.955C170.459 415.78 171.17 416.78 171.656 417.894C172.143 419.007 172.394 420.209 172.394 421.424V434.325C172.372 434.431 172.36 434.539 172.357 434.648C172.355 434.787 172.367 434.925 172.394 435.061Z" fill="#EAEAEA" fill-opacity="0.2"/>
<path d="M146.567 395.687C153.175 395.698 159.52 393.098 164.219 388.453C168.918 383.808 171.59 377.495 171.652 370.889V370.416C171.625 365.377 170.075 360.463 167.207 356.319C164.338 352.175 160.285 348.994 155.577 347.191C150.869 345.389 145.727 345.05 140.823 346.219C135.919 347.387 131.483 350.009 128.095 353.741C127.977 353.842 127.918 353.926 127.935 353.926L127.791 354.104L127.715 354.197L127.622 354.298L126.195 356.113C126.078 356.214 125.976 356.331 125.891 356.459C123.308 360.223 121.802 364.621 121.536 369.178C121.271 373.734 122.255 378.277 124.383 382.315C126.511 386.354 129.702 389.734 133.612 392.092C137.521 394.45 142.001 395.696 146.567 395.695V395.687ZM133.053 358.292C135.532 355.575 138.771 353.667 142.35 352.816C145.928 351.964 149.68 352.209 153.117 353.517C156.554 354.826 159.518 357.138 161.624 360.154C163.729 363.169 164.878 366.748 164.921 370.425V370.821C164.798 375.619 162.8 380.178 159.354 383.52C155.908 386.862 151.29 388.722 146.489 388.7C141.687 388.678 137.086 386.776 133.671 383.402C130.257 380.028 128.3 375.451 128.222 370.653C128.221 366.988 129.328 363.41 131.398 360.385L132.918 358.477L133.036 358.3L133.053 358.292Z" fill="#EAEAEA" fill-opacity="0.2"/>
<path d="M286.055 314.327H206.579C202.633 314.337 198.852 315.915 196.066 318.715C193.28 321.516 191.717 325.309 191.719 329.263V349.902C191.721 351.938 192.141 353.952 192.953 355.818C193.764 357.684 194.949 359.363 196.435 360.752L196.532 360.842C198.078 362.226 199.875 363.297 201.826 363.997L202.073 364.103C203.528 364.567 205.045 364.803 206.572 364.801H233.803C240.564 364.799 247.152 366.94 252.625 370.917C258.098 374.894 262.175 380.503 264.274 386.943C264.439 387.468 264.744 387.937 265.156 388.3C265.569 388.663 266.073 388.906 266.613 389.002C266.693 389.009 266.773 389.009 266.853 389.002H267.146C267.596 389 268.04 388.901 268.448 388.71C268.856 388.519 269.217 388.242 269.507 387.897L297.654 352.66C299.791 349.998 300.955 346.684 300.953 343.268V329.263C300.954 327.302 300.569 325.36 299.821 323.548C299.073 321.736 297.976 320.089 296.592 318.702C295.209 317.315 293.566 316.215 291.758 315.464C289.95 314.713 288.012 314.327 286.055 314.327ZM197.664 336.266V329.263C197.662 326.9 198.596 324.632 200.26 322.958C201.924 321.283 204.183 320.338 206.542 320.33H286.055C288.415 320.336 290.677 321.28 292.344 322.955C294.011 324.629 294.947 326.898 294.947 329.263V343.283C294.92 345.328 294.213 347.306 292.938 348.903L267.963 380.181C264.84 373.762 259.978 368.353 253.932 364.573C247.886 360.793 240.9 358.794 233.773 358.806C233.466 358.806 233.189 358.806 232.844 358.806C232.711 358.796 232.579 358.796 232.446 358.806H206.542C205.682 358.8 204.826 358.676 204 358.438C202.706 357.988 201.513 357.286 200.491 356.371C199.6 355.547 198.889 354.547 198.402 353.433C197.916 352.32 197.665 351.118 197.664 349.902V337.002C197.686 336.896 197.699 336.788 197.702 336.679C197.704 336.54 197.691 336.402 197.664 336.266Z" fill="#EAEAEA" fill-opacity="0.2"/>
<path d="M223.492 375.64C216.883 375.629 210.538 378.229 205.839 382.874C201.14 387.519 198.469 393.832 198.406 400.438V400.911C198.434 405.95 199.984 410.864 202.852 415.008C205.72 419.152 209.774 422.333 214.482 424.136C219.189 425.938 224.332 426.277 229.235 425.108C234.139 423.94 238.576 421.318 241.964 417.587C242.082 417.485 242.141 417.401 242.124 417.401L242.268 417.224L242.344 417.131L242.437 417.029L243.864 415.214C243.981 415.113 244.083 414.997 244.168 414.868C246.751 411.104 248.257 406.706 248.522 402.15C248.788 397.593 247.804 393.05 245.676 389.012C243.547 384.973 240.356 381.593 236.447 379.235C232.537 376.877 228.058 375.631 223.492 375.632V375.64ZM237.006 413.036C234.527 415.752 231.287 417.66 227.709 418.512C224.131 419.363 220.379 419.118 216.942 417.81C213.504 416.501 210.54 414.189 208.435 411.173C206.33 408.158 205.181 404.579 205.138 400.903V400.506C205.261 395.708 207.259 391.149 210.705 387.807C214.15 384.465 218.769 382.605 223.57 382.628C228.371 382.65 232.972 384.551 236.387 387.925C239.802 391.299 241.758 395.876 241.837 400.675C241.838 404.339 240.731 407.918 238.661 410.942L237.141 412.85L237.023 413.027L237.006 413.036Z" fill="#EAEAEA" fill-opacity="0.2"/>
<path d="M275.722 457H355.198C359.144 456.99 362.925 455.412 365.711 452.611C368.497 449.811 370.061 446.018 370.059 442.064V421.424C370.056 419.389 369.636 417.375 368.825 415.509C368.013 413.643 366.828 411.963 365.343 410.575L365.245 410.485C363.7 409.101 361.902 408.03 359.952 407.329L359.704 407.224C358.25 406.76 356.732 406.524 355.206 406.525H327.974C321.214 406.527 314.626 404.387 309.153 400.41C303.68 396.433 299.602 390.823 297.503 384.384C297.339 383.859 297.034 383.389 296.621 383.026C296.209 382.663 295.705 382.421 295.164 382.325C295.084 382.318 295.004 382.318 294.924 382.325H294.632C294.182 382.327 293.737 382.426 293.329 382.617C292.922 382.808 292.56 383.085 292.27 383.43L264.123 418.667C261.986 421.329 260.822 424.643 260.824 428.059V442.064C260.823 444.025 261.208 445.967 261.956 447.779C262.705 449.591 263.802 451.238 265.185 452.625C266.569 454.012 268.211 455.112 270.019 455.863C271.827 456.614 273.765 457 275.722 457ZM364.113 435.061V442.064C364.115 444.427 363.181 446.695 361.517 448.369C359.853 450.044 357.594 450.989 355.236 450.997H275.722C273.362 450.991 271.1 450.047 269.433 448.372C267.766 446.698 266.83 444.429 266.83 442.064V428.044C266.857 425.998 267.564 424.021 268.84 422.424L293.814 391.146C296.937 397.565 301.8 402.974 307.846 406.754C313.892 410.534 320.878 412.533 328.004 412.521C328.311 412.521 328.589 412.521 328.934 412.521C329.066 412.531 329.199 412.531 329.331 412.521H355.236C356.096 412.527 356.951 412.651 357.777 412.889C359.072 413.339 360.264 414.041 361.286 414.955C362.177 415.78 362.889 416.78 363.375 417.894C363.862 419.007 364.113 420.209 364.113 421.424V434.325C364.091 434.431 364.078 434.539 364.075 434.648C364.073 434.787 364.086 434.925 364.113 435.061Z" fill="#EAEAEA" fill-opacity="0.2"/>
<path d="M338.286 395.687C344.894 395.698 351.239 393.098 355.938 388.453C360.637 383.808 363.309 377.495 363.371 370.889V370.416C363.343 365.377 361.794 360.463 358.925 356.319C356.057 352.175 352.003 348.994 347.296 347.191C342.588 345.389 337.446 345.05 332.542 346.219C327.638 347.387 323.202 350.009 319.814 353.741C319.696 353.842 319.636 353.926 319.653 353.926L319.51 354.104L319.434 354.197L319.341 354.298L317.913 356.113C317.797 356.214 317.694 356.331 317.609 356.459C315.026 360.223 313.521 364.621 313.255 369.178C312.989 373.734 313.974 378.277 316.102 382.315C318.23 386.354 321.421 389.734 325.331 392.092C329.24 394.45 333.72 395.696 338.286 395.695V395.687ZM324.772 358.292C327.251 355.575 330.49 353.667 334.068 352.816C337.647 351.964 341.398 352.209 344.836 353.517C348.273 354.826 351.237 357.138 353.342 360.154C355.447 363.169 356.596 366.748 356.639 370.425V370.821C356.517 375.619 354.518 380.178 351.073 383.52C347.627 386.862 343.008 388.722 338.207 388.7C333.406 388.678 328.805 386.776 325.39 383.402C321.975 380.028 320.019 375.451 319.94 370.653C319.94 366.988 321.047 363.41 323.116 360.385L324.637 358.477L324.755 358.3L324.772 358.292Z" fill="#EAEAEA" fill-opacity="0.2"/>
<path d="M477.77 314.327H398.294C394.348 314.337 390.567 315.915 387.781 318.715C384.995 321.516 383.432 325.309 383.434 329.263V349.902C383.436 351.938 383.856 353.952 384.668 355.818C385.479 357.684 386.664 359.363 388.15 360.752L388.247 360.842C389.792 362.226 391.59 363.297 393.541 363.997L393.788 364.103C395.242 364.567 396.76 364.803 398.287 364.801H425.518C432.279 364.799 438.867 366.94 444.339 370.917C449.812 374.894 453.89 380.503 455.989 386.943C456.153 387.468 456.459 387.937 456.871 388.3C457.284 388.663 457.788 388.906 458.328 389.002C458.408 389.009 458.488 389.009 458.568 389.002H458.861C459.311 389 459.755 388.901 460.163 388.71C460.571 388.519 460.932 388.242 461.222 387.897L489.369 352.66C491.506 349.998 492.67 346.684 492.668 343.268V329.263C492.669 327.302 492.284 325.36 491.536 323.548C490.788 321.736 489.69 320.089 488.307 318.702C486.923 317.315 485.281 316.215 483.473 315.464C481.665 314.713 479.727 314.327 477.77 314.327ZM389.379 336.266V329.263C389.377 326.9 390.311 324.632 391.975 322.958C393.639 321.283 395.898 320.338 398.257 320.33H477.77C480.13 320.336 482.392 321.28 484.059 322.955C485.726 324.629 486.662 326.898 486.662 329.263V343.283C486.635 345.328 485.928 347.306 484.653 348.903L459.678 380.181C456.555 373.762 451.693 368.353 445.646 364.573C439.6 360.793 432.615 358.794 425.488 358.806C425.181 358.806 424.903 358.806 424.559 358.806C424.426 358.796 424.293 358.796 424.161 358.806H398.257C397.397 358.8 396.541 358.676 395.715 358.438C394.42 357.988 393.228 357.286 392.206 356.371C391.315 355.547 390.604 354.547 390.117 353.433C389.631 352.32 389.379 351.118 389.379 349.902V337.002C389.401 336.896 389.414 336.788 389.417 336.679C389.419 336.54 389.406 336.402 389.379 336.266Z" fill="#EAEAEA" fill-opacity="0.2"/>
<path d="M415.206 375.64C408.598 375.629 402.253 378.229 397.554 382.874C392.855 387.519 390.183 393.832 390.121 400.438V400.911C390.149 405.95 391.699 410.864 394.567 415.008C397.435 419.152 401.489 422.333 406.196 424.136C410.904 425.938 416.047 426.277 420.95 425.108C425.854 423.94 430.29 421.318 433.678 417.587C433.797 417.485 433.856 417.401 433.839 417.401L433.982 417.224L434.058 417.131L434.151 417.029L435.579 415.214C435.695 415.113 435.798 414.997 435.883 414.868C438.466 411.104 439.971 406.706 440.237 402.15C440.503 397.593 439.518 393.05 437.39 389.012C435.262 384.973 432.071 381.593 428.162 379.235C424.252 376.877 419.772 375.631 415.206 375.632V375.64ZM428.72 413.036C426.241 415.752 423.002 417.66 419.424 418.512C415.846 419.363 412.094 419.118 408.656 417.81C405.219 416.501 402.255 414.189 400.15 411.173C398.045 408.158 396.896 404.579 396.853 400.903V400.506C396.975 395.708 398.974 391.149 402.42 387.807C405.865 384.465 410.484 382.605 415.285 382.628C420.086 382.65 424.687 384.551 428.102 387.925C431.517 391.299 433.473 395.876 433.552 400.675C433.552 404.339 432.445 407.918 430.376 410.942L428.856 412.85L428.737 413.027L428.72 413.036Z" fill="#EAEAEA" fill-opacity="0.2"/>
<path d="M467.441 457H546.917C550.863 456.99 554.644 455.412 557.43 452.611C560.216 449.811 561.779 446.018 561.777 442.064V421.424C561.775 419.389 561.355 417.375 560.543 415.509C559.732 413.643 558.547 411.963 557.061 410.575L556.964 410.485C555.419 409.101 553.621 408.03 551.67 407.329L551.423 407.224C549.969 406.76 548.451 406.524 546.924 406.525H519.693C512.932 406.527 506.344 404.387 500.871 400.41C495.399 396.433 491.321 390.823 489.222 384.384C489.057 383.859 488.752 383.389 488.34 383.026C487.927 382.663 487.423 382.421 486.883 382.325C486.803 382.318 486.723 382.318 486.643 382.325H486.35C485.9 382.327 485.456 382.426 485.048 382.617C484.64 382.808 484.279 383.085 483.989 383.43L455.842 418.667C453.705 421.329 452.541 424.643 452.543 428.059V442.064C452.542 444.025 452.927 445.967 453.675 447.779C454.423 449.591 455.521 451.238 456.904 452.625C458.288 454.012 459.93 455.112 461.738 455.863C463.546 456.614 465.484 457 467.441 457ZM555.832 435.061V442.064C555.834 444.427 554.9 446.695 553.236 448.369C551.572 450.044 549.313 450.989 546.954 450.997H467.441C465.081 450.991 462.819 450.047 461.152 448.372C459.485 446.698 458.549 444.429 458.549 442.064V428.044C458.576 425.998 459.283 424.021 460.558 422.424L485.533 391.146C488.656 397.565 493.518 402.974 499.564 406.754C505.611 410.534 512.596 412.533 519.723 412.521C520.03 412.521 520.308 412.521 520.652 412.521C520.785 412.531 520.917 412.531 521.05 412.521H546.954C547.814 412.527 548.67 412.651 549.496 412.889C550.79 413.339 551.983 414.041 553.005 414.955C553.896 415.78 554.607 416.78 555.094 417.894C555.58 419.007 555.832 420.209 555.832 421.424V434.325C555.81 434.431 555.797 434.539 555.794 434.648C555.792 434.787 555.805 434.925 555.832 435.061Z" fill="#EAEAEA" fill-opacity="0.2"/>
<path d="M530.001 395.687C536.609 395.698 542.954 393.098 547.653 388.453C552.352 383.808 555.024 377.495 555.086 370.889V370.416C555.058 365.377 553.509 360.463 550.64 356.319C547.772 352.175 543.718 348.994 539.011 347.191C534.303 345.389 529.16 345.05 524.257 346.219C519.353 347.387 514.917 350.009 511.529 353.741C511.41 353.842 511.351 353.926 511.368 353.926L511.225 354.104L511.149 354.197L511.056 354.298L509.628 356.113C509.512 356.214 509.409 356.331 509.324 356.459C506.741 360.223 505.236 364.621 504.97 369.178C504.704 373.734 505.689 378.277 507.817 382.315C509.945 386.354 513.136 389.734 517.045 392.092C520.955 394.45 525.435 395.696 530.001 395.695V395.687ZM516.487 358.292C518.966 355.575 522.205 353.667 525.783 352.816C529.361 351.964 533.113 352.209 536.551 353.517C539.988 354.826 542.952 357.138 545.057 360.154C547.162 363.169 548.311 366.748 548.354 370.425V370.821C548.232 375.619 546.233 380.178 542.787 383.52C539.342 386.862 534.723 388.722 529.922 388.7C525.121 388.678 520.52 386.776 517.105 383.402C513.69 380.028 511.734 375.451 511.655 370.653C511.655 366.988 512.762 363.41 514.831 360.385L516.351 358.477L516.47 358.3L516.487 358.292Z" fill="#EAEAEA" fill-opacity="0.2"/>
</svg>
