<svg width="369" height="337" viewBox="0 0 369 337" fill="none" xmlns="http://www.w3.org/2000/svg">
<path d="M350.169 126H254.129C249.361 126.012 244.792 127.893 241.426 131.23C238.059 134.567 236.169 139.088 236.172 143.8V168.397C236.175 170.823 236.683 173.222 237.663 175.447C238.643 177.671 240.076 179.672 241.871 181.327L241.989 181.434C243.856 183.083 246.028 184.36 248.385 185.195L248.684 185.32C250.442 185.873 252.276 186.154 254.12 186.153H287.028C295.197 186.15 303.158 188.701 309.771 193.441C316.385 198.18 321.312 204.866 323.849 212.54C324.048 213.165 324.416 213.725 324.915 214.158C325.413 214.59 326.022 214.879 326.676 214.993C326.772 215.002 326.869 215.002 326.965 214.993H327.319C327.863 214.992 328.4 214.873 328.892 214.646C329.385 214.418 329.822 214.088 330.173 213.677L364.185 171.683C366.768 168.511 368.174 164.562 368.172 160.491V143.8C368.173 141.463 367.708 139.149 366.804 136.989C365.9 134.83 364.574 132.867 362.902 131.214C361.23 129.561 359.245 128.25 357.06 127.355C354.876 126.46 352.534 126 350.169 126ZM243.357 152.146V143.8C243.354 140.984 244.482 138.281 246.493 136.286C248.504 134.29 251.234 133.164 254.084 133.154H350.169C353.021 133.161 355.755 134.286 357.769 136.282C359.783 138.278 360.915 140.982 360.915 143.8V160.509C360.882 162.946 360.027 165.303 358.486 167.206L328.306 204.481C324.533 196.831 318.657 190.385 311.351 185.881C304.045 181.376 295.603 178.994 286.991 179.007C286.62 179.007 286.285 179.007 285.868 179.007C285.708 178.996 285.547 178.996 285.388 179.007H254.084C253.045 179 252.011 178.853 251.013 178.569C249.449 178.033 248.007 177.196 246.772 176.106C245.696 175.124 244.836 173.932 244.248 172.605C243.66 171.278 243.357 169.845 243.357 168.397V153.023C243.383 152.896 243.398 152.767 243.402 152.638C243.404 152.473 243.389 152.308 243.357 152.146Z" fill="#EAEAEA" fill-opacity="0.2"/>
<path d="M350.169 126H254.129C249.361 126.012 244.792 127.893 241.426 131.23C238.059 134.567 236.169 139.088 236.172 143.8V168.397C236.175 170.823 236.683 173.222 237.663 175.447C238.643 177.671 240.076 179.672 241.871 181.327L241.989 181.434C243.856 183.083 246.028 184.36 248.385 185.195L248.684 185.32C250.442 185.873 252.276 186.154 254.12 186.153H287.028C295.197 186.15 303.158 188.701 309.771 193.441C316.385 198.18 321.312 204.866 323.849 212.54C324.048 213.165 324.416 213.725 324.915 214.158C325.413 214.59 326.022 214.879 326.676 214.993C326.772 215.002 326.869 215.002 326.965 214.993H327.319C327.863 214.992 328.4 214.873 328.892 214.646C329.385 214.418 329.822 214.088 330.173 213.677L364.185 171.683C366.768 168.511 368.174 164.562 368.172 160.491V143.8C368.173 141.463 367.708 139.149 366.804 136.989C365.9 134.83 364.574 132.867 362.902 131.214C361.23 129.561 359.245 128.25 357.06 127.355C354.876 126.46 352.534 126 350.169 126ZM243.357 152.146V143.8C243.354 140.984 244.482 138.281 246.493 136.286C248.504 134.29 251.234 133.164 254.084 133.154H350.169C353.021 133.161 355.755 134.286 357.769 136.282C359.783 138.278 360.915 140.982 360.915 143.8V160.509C360.882 162.946 360.027 165.303 358.486 167.206L328.306 204.481C324.533 196.831 318.657 190.385 311.351 185.881C304.045 181.376 295.603 178.994 286.991 179.007C286.62 179.007 286.285 179.007 285.868 179.007C285.708 178.996 285.547 178.996 285.388 179.007H254.084C253.045 179 252.011 178.853 251.013 178.569C249.449 178.033 248.007 177.196 246.772 176.106C245.696 175.124 244.836 173.932 244.248 172.605C243.66 171.278 243.357 169.845 243.357 168.397V153.023C243.383 152.896 243.398 152.767 243.402 152.638C243.404 152.473 243.389 152.308 243.357 152.146Z" fill="#EAEAEA" fill-opacity="0.2"/>
<path d="M280.179 193.01C272.011 192.996 264.168 196.055 258.36 201.519C252.552 206.983 249.249 214.409 249.172 222.179V222.735C249.206 228.663 251.122 234.442 254.667 239.317C258.213 244.191 263.223 247.934 269.042 250.054C274.861 252.174 281.218 252.572 287.279 251.198C293.341 249.823 298.824 246.739 303.012 242.35C303.158 242.231 303.231 242.132 303.211 242.132L303.388 241.923L303.482 241.814L303.597 241.695L305.361 239.559C305.506 239.441 305.632 239.304 305.737 239.152C308.93 234.725 310.791 229.552 311.119 224.192C311.448 218.832 310.231 213.489 307.601 208.738C304.97 203.988 301.026 200.012 296.193 197.238C291.36 194.464 285.823 192.999 280.179 193V193.01ZM296.884 236.997C293.82 240.192 289.816 242.437 285.393 243.438C280.969 244.44 276.332 244.152 272.083 242.613C267.834 241.073 264.17 238.353 261.568 234.806C258.966 231.26 257.546 227.05 257.493 222.725V222.259C257.644 216.615 260.115 211.253 264.374 207.321C268.633 203.39 274.342 201.203 280.276 201.229C286.211 201.255 291.898 203.492 296.119 207.46C300.34 211.429 302.759 216.812 302.856 222.457C302.856 226.767 301.488 230.977 298.93 234.534L297.051 236.778L296.905 236.987L296.884 236.997Z" fill="#EAEAEA" fill-opacity="0.2"/>
<path d="M107.033 172H10.2655C5.46101 171.988 0.857556 170.086 -2.53461 166.711C-5.92678 163.337 -7.83056 158.765 -7.82812 154V129.127C-7.82486 126.673 -7.31347 124.247 -6.32572 121.998C-5.33797 119.749 -3.8949 117.725 -2.08599 116.052L-1.96731 115.943C-0.0859041 114.276 2.10253 112.984 4.47774 112.14L4.77899 112.014C6.54994 111.454 8.39767 111.17 10.2564 111.171H43.4128C51.6441 111.174 59.6652 108.594 66.3289 103.801C72.9925 99.0086 77.9573 92.2484 80.513 84.4877C80.7133 83.8552 81.0848 83.2894 81.5871 82.8519C82.0893 82.4144 82.703 82.1221 83.3612 82.0067C83.4584 81.9978 83.5561 81.9978 83.6533 82.0067H84.0093C84.5573 82.0085 85.0983 82.1285 85.5948 82.3584C86.0914 82.5882 86.5316 82.9224 86.885 83.3377L121.155 125.804C123.757 129.011 125.174 133.005 125.172 137.122V154C125.173 156.363 124.705 158.703 123.794 160.887C122.883 163.071 121.547 165.056 119.862 166.727C118.178 168.399 116.178 169.725 113.976 170.63C111.775 171.534 109.415 172 107.033 172ZM-0.588854 145.561V154C-0.591288 156.848 0.545275 159.581 2.57152 161.599C4.59776 163.617 7.34829 164.756 10.2199 164.765H107.033C109.907 164.758 112.66 163.621 114.69 161.603C116.72 159.584 117.86 156.85 117.86 154V137.104C117.827 134.639 116.966 132.256 115.413 130.331L85.0044 92.6368C81.2023 100.373 75.2819 106.891 67.9203 111.447C60.5587 116.002 52.0531 118.411 43.3763 118.397C43.002 118.397 42.6642 118.397 42.2443 118.397C42.0832 118.408 41.9215 118.408 41.7605 118.397H10.2199C9.17271 118.404 8.13144 118.553 7.12514 118.841C5.54916 119.383 4.09709 120.229 2.85279 121.331C1.76775 122.324 0.901811 123.53 0.309501 124.871C-0.282809 126.213 -0.58868 127.662 -0.588854 129.127V144.673C-0.562181 144.802 -0.54689 144.932 -0.543193 145.063C-0.540812 145.23 -0.556128 145.397 -0.588854 145.561Z" fill="#EAEAEA" fill-opacity="0.2"/>
<path d="M107.033 172H10.2655C5.46101 171.988 0.857556 170.086 -2.53461 166.711C-5.92678 163.337 -7.83056 158.765 -7.82812 154V129.127C-7.82486 126.673 -7.31347 124.247 -6.32572 121.998C-5.33797 119.749 -3.8949 117.725 -2.08599 116.052L-1.96731 115.943C-0.0859041 114.276 2.10253 112.984 4.47774 112.14L4.77899 112.014C6.54994 111.454 8.39767 111.17 10.2564 111.171H43.4128C51.6441 111.174 59.6652 108.594 66.3289 103.801C72.9925 99.0086 77.9573 92.2484 80.513 84.4877C80.7133 83.8552 81.0848 83.2894 81.5871 82.8519C82.0893 82.4144 82.703 82.1221 83.3612 82.0067C83.4584 81.9978 83.5561 81.9978 83.6533 82.0067H84.0093C84.5573 82.0085 85.0983 82.1285 85.5948 82.3584C86.0914 82.5882 86.5316 82.9224 86.885 83.3377L121.155 125.804C123.757 129.011 125.174 133.005 125.172 137.122V154C125.173 156.363 124.705 158.703 123.794 160.887C122.883 163.071 121.547 165.056 119.862 166.727C118.178 168.399 116.178 169.725 113.976 170.63C111.775 171.534 109.415 172 107.033 172ZM-0.588854 145.561V154C-0.591288 156.848 0.545275 159.581 2.57152 161.599C4.59776 163.617 7.34829 164.756 10.2199 164.765H107.033C109.907 164.758 112.66 163.621 114.69 161.603C116.72 159.584 117.86 156.85 117.86 154V137.104C117.827 134.639 116.966 132.256 115.413 130.331L85.0044 92.6368C81.2023 100.373 75.2819 106.891 67.9203 111.447C60.5587 116.002 52.0531 118.411 43.3763 118.397C43.002 118.397 42.6642 118.397 42.2443 118.397C42.0832 118.408 41.9215 118.408 41.7605 118.397H10.2199C9.17271 118.404 8.13144 118.553 7.12514 118.841C5.54916 119.383 4.09709 120.229 2.85279 121.331C1.76775 122.324 0.901811 123.53 0.309501 124.871C-0.282809 126.213 -0.58868 127.662 -0.588854 129.127V144.673C-0.562181 144.802 -0.54689 144.932 -0.543193 145.063C-0.540812 145.23 -0.556128 145.397 -0.588854 145.561Z" fill="#EAEAEA" fill-opacity="0.2"/>
<path d="M37.1794 103.99C29.0109 104.004 21.1679 100.945 15.3597 95.4812C9.55154 90.0174 6.249 82.5912 6.17188 74.821V74.2648C6.20629 68.3372 8.12168 62.5577 11.6672 57.6832C15.2128 52.8087 20.2233 49.0664 26.0423 46.9464C31.8614 44.8264 38.2179 44.4276 44.2793 45.8021C50.3406 47.1767 55.8243 50.2606 60.0122 54.6499C60.1584 54.7691 60.2315 54.8684 60.2106 54.8684L60.3881 55.0769L60.482 55.1862L60.5969 55.3054L62.3613 57.4407C62.5055 57.5594 62.632 57.6964 62.7371 57.8479C65.93 62.2752 67.791 67.448 68.1194 72.8079C68.4478 78.1679 67.231 83.5113 64.6005 88.2615C61.97 93.0117 58.0255 96.9883 53.193 99.7619C48.3605 102.536 42.8234 104.001 37.1794 104V103.99ZM53.8838 60.003C50.8196 56.8077 46.8156 54.5634 42.3925 53.5618C37.9694 52.5603 33.3319 52.848 29.083 54.3874C24.8341 55.9268 21.1703 58.6468 18.5682 62.1936C15.9662 65.7403 14.5461 69.9499 14.4928 74.2747V74.7415C14.6444 80.3851 17.1147 85.7475 21.3738 89.6787C25.633 93.61 31.3419 95.7971 37.2764 95.7712C43.2109 95.7452 48.8984 93.5081 53.1194 89.5397C57.3403 85.5713 59.7586 80.1876 59.8556 74.5429C59.8565 70.2329 58.4882 66.0233 55.9301 62.4661L54.0508 60.2215L53.9047 60.013L53.8838 60.003Z" fill="#EAEAEA" fill-opacity="0.2"/>
<path d="M37.1794 103.99C29.0109 104.004 21.1679 100.945 15.3597 95.4812C9.55154 90.0174 6.249 82.5912 6.17188 74.821V74.2648C6.20629 68.3372 8.12168 62.5577 11.6672 57.6832C15.2128 52.8087 20.2233 49.0664 26.0423 46.9464C31.8614 44.8264 38.2179 44.4276 44.2793 45.8021C50.3406 47.1767 55.8243 50.2606 60.0122 54.6499C60.1584 54.7691 60.2315 54.8684 60.2106 54.8684L60.3881 55.0769L60.482 55.1862L60.5969 55.3054L62.3613 57.4407C62.5055 57.5594 62.632 57.6964 62.7371 57.8479C65.93 62.2752 67.791 67.448 68.1194 72.8079C68.4478 78.1679 67.231 83.5113 64.6005 88.2615C61.97 93.0117 58.0255 96.9883 53.193 99.7619C48.3605 102.536 42.8234 104.001 37.1794 104V103.99ZM53.8838 60.003C50.8196 56.8077 46.8156 54.5634 42.3925 53.5618C37.9694 52.5603 33.3319 52.848 29.083 54.3874C24.8341 55.9268 21.1703 58.6468 18.5682 62.1936C15.9662 65.7403 14.5461 69.9499 14.4928 74.2747V74.7415C14.6444 80.3851 17.1147 85.7475 21.3738 89.6787C25.633 93.61 31.3419 95.7971 37.2764 95.7712C43.2109 95.7452 48.8984 93.5081 53.1194 89.5397C57.3403 85.5713 59.7586 80.1876 59.8556 74.5429C59.8565 70.2329 58.4882 66.0233 55.9301 62.4661L54.0508 60.2215L53.9047 60.013L53.8838 60.003Z" fill="#EAEAEA" fill-opacity="0.2"/>
<path d="M86.1748 -6H182.214C186.983 -5.98801 191.551 -4.08596 194.918 -0.711254C198.285 2.66345 200.174 7.23511 200.172 12.0005V36.8734C200.169 39.3266 199.661 41.753 198.681 44.0021C197.7 46.2512 196.268 48.2751 194.473 49.9482L194.355 50.0568C192.488 51.7243 190.316 53.0155 187.959 53.8597L187.66 53.9865C185.902 54.5462 184.068 54.8303 182.223 54.8285H149.316C141.147 54.8262 133.186 57.4059 126.572 62.1987C119.959 66.9914 115.031 73.7516 112.495 81.5123C112.296 82.1448 111.927 82.7106 111.429 83.1481C110.931 83.5856 110.321 83.8779 109.668 83.9933C109.572 84.0022 109.475 84.0022 109.378 83.9933H109.025C108.481 83.9915 107.944 83.8715 107.451 83.6416C106.959 83.4118 106.522 83.0776 106.171 82.6623L72.1584 40.1964C69.576 36.9889 68.1693 32.995 68.1719 28.8782V12.0005C68.1707 9.63703 68.6355 7.29654 69.5397 5.11267C70.4439 2.92881 71.7698 0.944377 73.4416 -0.72724C75.1134 -2.39886 77.0984 -3.72491 79.2833 -4.62963C81.4681 -5.53435 83.8098 -6 86.1748 -6ZM192.987 20.4393V12.0005C192.989 9.15227 191.861 6.41938 189.85 4.40117C187.839 2.38296 185.11 1.24418 182.26 1.23459H86.1748C83.3224 1.24178 80.5892 2.37921 78.5748 4.39743C76.5604 6.41564 75.4292 9.14987 75.4292 12.0005V28.8963C75.4618 31.361 76.3163 33.7445 77.8574 35.6691L108.037 73.3632C111.811 65.6273 117.687 59.1089 124.993 54.5534C132.299 49.9979 140.741 47.5893 149.352 47.603C149.724 47.603 150.059 47.603 150.476 47.603C150.636 47.5916 150.796 47.5916 150.956 47.603H182.26C183.299 47.596 184.332 47.4467 185.331 47.1593C186.895 46.6174 188.336 45.7711 189.571 44.6693C190.648 43.6758 191.508 42.4702 192.095 41.1285C192.683 39.7868 192.987 38.338 192.987 36.8734V21.3267C192.961 21.1985 192.945 21.0682 192.942 20.9373C192.939 20.7702 192.955 20.6033 192.987 20.4393Z" fill="#EAEAEA" fill-opacity="0.2"/>
<path d="M86.1748 -6H182.214C186.983 -5.98801 191.551 -4.08596 194.918 -0.711254C198.285 2.66345 200.174 7.23511 200.172 12.0005V36.8734C200.169 39.3266 199.661 41.753 198.681 44.0021C197.7 46.2512 196.268 48.2751 194.473 49.9482L194.355 50.0568C192.488 51.7243 190.316 53.0155 187.959 53.8597L187.66 53.9865C185.902 54.5462 184.068 54.8303 182.223 54.8285H149.316C141.147 54.8262 133.186 57.4059 126.572 62.1987C119.959 66.9914 115.031 73.7516 112.495 81.5123C112.296 82.1448 111.927 82.7106 111.429 83.1481C110.931 83.5856 110.321 83.8779 109.668 83.9933C109.572 84.0022 109.475 84.0022 109.378 83.9933H109.025C108.481 83.9915 107.944 83.8715 107.451 83.6416C106.959 83.4118 106.522 83.0776 106.171 82.6623L72.1584 40.1964C69.576 36.9889 68.1693 32.995 68.1719 28.8782V12.0005C68.1707 9.63703 68.6355 7.29654 69.5397 5.11267C70.4439 2.92881 71.7698 0.944377 73.4416 -0.72724C75.1134 -2.39886 77.0984 -3.72491 79.2833 -4.62963C81.4681 -5.53435 83.8098 -6 86.1748 -6ZM192.987 20.4393V12.0005C192.989 9.15227 191.861 6.41938 189.85 4.40117C187.839 2.38296 185.11 1.24418 182.26 1.23459H86.1748C83.3224 1.24178 80.5892 2.37921 78.5748 4.39743C76.5604 6.41564 75.4292 9.14987 75.4292 12.0005V28.8963C75.4618 31.361 76.3163 33.7445 77.8574 35.6691L108.037 73.3632C111.811 65.6273 117.687 59.1089 124.993 54.5534C132.299 49.9979 140.741 47.5893 149.352 47.603C149.724 47.603 150.059 47.603 150.476 47.603C150.636 47.5916 150.796 47.5916 150.956 47.603H182.26C183.299 47.596 184.332 47.4467 185.331 47.1593C186.895 46.6174 188.336 45.7711 189.571 44.6693C190.648 43.6758 191.508 42.4702 192.095 41.1285C192.683 39.7868 192.987 38.338 192.987 36.8734V21.3267C192.961 21.1985 192.945 21.0682 192.942 20.9373C192.939 20.7702 192.955 20.6033 192.987 20.4393Z" fill="#EAEAEA" fill-opacity="0.2"/>
<path d="M156.164 62.0099C164.333 61.9965 172.176 65.055 177.984 70.5188C183.792 75.9826 187.095 83.4088 187.172 91.179V91.7352C187.137 97.6628 185.222 103.442 181.677 108.317C178.131 113.191 173.12 116.934 167.301 119.054C161.482 121.174 155.126 121.572 149.064 120.198C143.003 118.823 137.519 115.739 133.332 111.35C133.185 111.231 133.112 111.132 133.133 111.132L132.956 110.923L132.862 110.814L132.747 110.695L130.982 108.559C130.838 108.441 130.712 108.304 130.607 108.152C127.414 103.725 125.553 98.552 125.224 93.1921C124.896 87.8321 126.113 82.4887 128.743 77.7385C131.374 72.9883 135.318 69.0117 140.151 66.2381C144.983 63.4644 150.52 61.999 156.164 62V62.0099ZM139.46 105.997C142.524 109.192 146.528 111.437 150.951 112.438C155.374 113.44 160.012 113.152 164.261 111.613C168.51 110.073 172.173 107.353 174.776 103.806C177.378 100.26 178.798 96.0501 178.851 91.7253V91.2585C178.699 85.6149 176.229 80.2525 171.97 76.3213C167.711 72.39 162.002 70.2029 156.067 70.2288C150.133 70.2548 144.445 72.4919 140.224 76.4603C136.003 80.4287 133.585 85.8124 133.488 91.4571C133.487 95.7671 134.856 99.9767 137.414 103.534L139.293 105.778L139.439 105.987L139.46 105.997Z" fill="#EAEAEA" fill-opacity="0.2"/>
<path d="M156.164 62.0099C164.333 61.9965 172.176 65.055 177.984 70.5188C183.792 75.9826 187.095 83.4088 187.172 91.179V91.7352C187.137 97.6628 185.222 103.442 181.677 108.317C178.131 113.191 173.12 116.934 167.301 119.054C161.482 121.174 155.126 121.572 149.064 120.198C143.003 118.823 137.519 115.739 133.332 111.35C133.185 111.231 133.112 111.132 133.133 111.132L132.956 110.923L132.862 110.814L132.747 110.695L130.982 108.559C130.838 108.441 130.712 108.304 130.607 108.152C127.414 103.725 125.553 98.552 125.224 93.1921C124.896 87.8321 126.113 82.4887 128.743 77.7385C131.374 72.9883 135.318 69.0117 140.151 66.2381C144.983 63.4644 150.52 61.999 156.164 62V62.0099ZM139.46 105.997C142.524 109.192 146.528 111.437 150.951 112.438C155.374 113.44 160.012 113.152 164.261 111.613C168.51 110.073 172.173 107.353 174.776 103.806C177.378 100.26 178.798 96.0501 178.851 91.7253V91.2585C178.699 85.6149 176.229 80.2525 171.97 76.3213C167.711 72.39 162.002 70.2029 156.067 70.2288C150.133 70.2548 144.445 72.4919 140.224 76.4603C136.003 80.4287 133.585 85.8124 133.488 91.4571C133.487 95.7671 134.856 99.9767 137.414 103.534L139.293 105.778L139.439 105.987L139.46 105.997Z" fill="#EAEAEA" fill-opacity="0.2"/>
<path d="M217.311 108H314.078C318.883 107.988 323.486 106.065 326.878 102.652C330.271 99.2403 332.174 94.6178 332.172 89.7995V64.6503C332.169 62.1698 331.657 59.7164 330.669 57.4423C329.682 55.1682 328.239 53.1219 326.43 51.4302L326.311 51.3203C324.43 49.6344 322.241 48.3287 319.866 47.4752L319.565 47.347C317.794 46.781 315.946 46.4938 314.087 46.4956H280.931C272.7 46.4979 264.679 43.8896 258.015 39.0436C251.351 34.1976 246.386 27.3622 243.831 19.5153C243.63 18.8758 243.259 18.3037 242.757 17.8614C242.254 17.419 241.641 17.1234 240.983 17.0068C240.885 16.9977 240.788 16.9977 240.69 17.0068H240.334C239.786 17.0086 239.245 17.13 238.749 17.3623C238.252 17.5947 237.812 17.9326 237.459 18.3526L203.189 61.2903C200.587 64.5335 199.169 68.5717 199.172 72.7343V89.7995C199.171 92.1892 199.639 94.5557 200.55 96.7639C201.461 98.972 202.797 100.978 204.482 102.669C206.166 104.359 208.166 105.7 210.367 106.614C212.569 107.529 214.928 108 217.311 108ZM324.933 81.2669V89.7995C324.935 92.6794 323.798 95.4426 321.772 97.4833C319.746 99.5239 316.995 100.675 314.124 100.685H217.311C214.437 100.678 211.683 99.5277 209.654 97.487C207.624 95.4464 206.484 92.6818 206.484 89.7995V72.716C206.517 70.2238 207.378 67.8139 208.931 65.8679L239.339 27.755C243.141 35.5768 249.062 42.1677 256.423 46.7738C263.785 51.3799 272.291 53.8153 280.967 53.8014C281.342 53.8014 281.68 53.8014 282.099 53.8014C282.261 53.813 282.422 53.813 282.583 53.8014H314.124C315.171 53.8085 316.212 53.9594 317.219 54.25C318.795 54.798 320.247 55.6537 321.491 56.7677C322.576 57.7723 323.442 58.9912 324.034 60.3478C324.627 61.7044 324.932 63.1693 324.933 64.6503V80.3697C324.906 80.4993 324.891 80.6311 324.887 80.7634C324.885 80.9324 324.9 81.1011 324.933 81.2669Z" fill="#EAEAEA" fill-opacity="0.2"/>
<path d="M217.311 108H314.078C318.883 107.988 323.486 106.065 326.878 102.652C330.271 99.2403 332.174 94.6178 332.172 89.7995V64.6503C332.169 62.1698 331.657 59.7164 330.669 57.4423C329.682 55.1682 328.239 53.1219 326.43 51.4302L326.311 51.3203C324.43 49.6344 322.241 48.3287 319.866 47.4752L319.565 47.347C317.794 46.781 315.946 46.4938 314.087 46.4956H280.931C272.7 46.4979 264.679 43.8896 258.015 39.0436C251.351 34.1976 246.386 27.3622 243.831 19.5153C243.63 18.8758 243.259 18.3037 242.757 17.8614C242.254 17.419 241.641 17.1234 240.983 17.0068C240.885 16.9977 240.788 16.9977 240.69 17.0068H240.334C239.786 17.0086 239.245 17.13 238.749 17.3623C238.252 17.5947 237.812 17.9326 237.459 18.3526L203.189 61.2903C200.587 64.5335 199.169 68.5717 199.172 72.7343V89.7995C199.171 92.1892 199.639 94.5557 200.55 96.7639C201.461 98.972 202.797 100.978 204.482 102.669C206.166 104.359 208.166 105.7 210.367 106.614C212.569 107.529 214.928 108 217.311 108ZM324.933 81.2669V89.7995C324.935 92.6794 323.798 95.4426 321.772 97.4833C319.746 99.5239 316.995 100.675 314.124 100.685H217.311C214.437 100.678 211.683 99.5277 209.654 97.487C207.624 95.4464 206.484 92.6818 206.484 89.7995V72.716C206.517 70.2238 207.378 67.8139 208.931 65.8679L239.339 27.755C243.141 35.5768 249.062 42.1677 256.423 46.7738C263.785 51.3799 272.291 53.8153 280.967 53.8014C281.342 53.8014 281.68 53.8014 282.099 53.8014C282.261 53.813 282.422 53.813 282.583 53.8014H314.124C315.171 53.8085 316.212 53.9594 317.219 54.25C318.795 54.798 320.247 55.6537 321.491 56.7677C322.576 57.7723 323.442 58.9912 324.034 60.3478C324.627 61.7044 324.932 63.1693 324.933 64.6503V80.3697C324.906 80.4993 324.891 80.6311 324.887 80.7634C324.885 80.9324 324.9 81.1011 324.933 81.2669Z" fill="#EAEAEA" fill-opacity="0.2"/>
<path d="M286.664 39.9899C294.701 40.0036 302.418 36.8933 308.132 31.3368C313.847 25.7804 317.096 18.2283 317.172 10.3264V9.76081C317.138 3.73279 315.254 -2.14468 311.765 -7.10183C308.277 -12.059 303.347 -15.8647 297.622 -18.0206C291.897 -20.1765 285.643 -20.5821 279.679 -19.1843C273.716 -17.7864 268.32 -14.6502 264.2 -10.1865C264.056 -10.0653 263.984 -9.96435 264.005 -9.96435L263.83 -9.75226L263.738 -9.64114L263.625 -9.51995L261.889 -7.34847C261.747 -7.2277 261.622 -7.08836 261.519 -6.93437C258.378 -2.43198 256.547 2.8285 256.224 8.27926C255.9 13.73 257.098 19.1641 259.686 23.9948C262.274 28.8255 266.155 32.8695 270.909 35.6901C275.664 38.5108 281.112 40.001 286.664 40V39.9899ZM270.23 -4.7427C273.244 -7.99218 277.184 -10.2746 281.535 -11.293C285.887 -12.3115 290.45 -12.019 294.63 -10.4535C298.811 -8.88799 302.415 -6.12194 304.975 -2.51503C307.536 1.09187 308.933 5.37274 308.985 9.77089V10.2456C308.836 15.9848 306.406 21.4381 302.215 25.436C298.025 29.4339 292.408 31.6581 286.569 31.6317C280.73 31.6053 275.134 29.3303 270.982 25.2946C266.829 21.259 264.449 15.784 264.354 10.0436C264.353 5.6606 265.699 1.37965 268.216 -2.23791L270.065 -4.5205L270.209 -4.73259L270.23 -4.7427Z" fill="#EAEAEA" fill-opacity="0.2"/>
<path d="M286.664 39.9899C294.701 40.0036 302.418 36.8933 308.132 31.3368C313.847 25.7804 317.096 18.2283 317.172 10.3264V9.76081C317.138 3.73279 315.254 -2.14468 311.765 -7.10183C308.277 -12.059 303.347 -15.8647 297.622 -18.0206C291.897 -20.1765 285.643 -20.5821 279.679 -19.1843C273.716 -17.7864 268.32 -14.6502 264.2 -10.1865C264.056 -10.0653 263.984 -9.96435 264.005 -9.96435L263.83 -9.75226L263.738 -9.64114L263.625 -9.51995L261.889 -7.34847C261.747 -7.2277 261.622 -7.08836 261.519 -6.93437C258.378 -2.43198 256.547 2.8285 256.224 8.27926C255.9 13.73 257.098 19.1641 259.686 23.9948C262.274 28.8255 266.155 32.8695 270.909 35.6901C275.664 38.5108 281.112 40.001 286.664 40V39.9899ZM270.23 -4.7427C273.244 -7.99218 277.184 -10.2746 281.535 -11.293C285.887 -12.3115 290.45 -12.019 294.63 -10.4535C298.811 -8.88799 302.415 -6.12194 304.975 -2.51503C307.536 1.09187 308.933 5.37274 308.985 9.77089V10.2456C308.836 15.9848 306.406 21.4381 302.215 25.436C298.025 29.4339 292.408 31.6581 286.569 31.6317C280.73 31.6053 275.134 29.3303 270.982 25.2946C266.829 21.259 264.449 15.784 264.354 10.0436C264.353 5.6606 265.699 1.37965 268.216 -2.23791L270.065 -4.5205L270.209 -4.73259L270.23 -4.7427Z" fill="#EAEAEA" fill-opacity="0.2"/>
<path d="M222.448 143.703L222.795 239.167C222.8 243.907 220.915 248.455 217.553 251.813C214.191 255.172 209.627 257.066 204.862 257.081L179.994 257.169C177.542 257.175 175.114 256.679 172.862 255.712C170.61 254.746 168.581 253.329 166.902 251.551L166.793 251.434C165.119 249.584 163.82 247.43 162.967 245.089L162.84 244.793C162.274 243.047 161.983 241.226 161.978 239.392L161.859 206.682C161.832 198.561 159.224 190.657 154.409 184.101C149.593 177.544 142.816 172.67 135.048 170.176C134.415 169.981 133.848 169.616 133.409 169.122C132.969 168.628 132.675 168.024 132.557 167.375C132.548 167.279 132.548 167.183 132.556 167.087L132.555 166.736C132.555 166.195 132.673 165.661 132.901 165.17C133.129 164.68 133.461 164.244 133.875 163.894L176.21 129.934C179.408 127.356 183.396 125.943 187.512 125.931L204.386 125.871C206.749 125.862 209.091 126.316 211.278 127.207C213.464 128.098 215.453 129.409 217.13 131.064C218.808 132.72 220.141 134.689 221.053 136.857C221.966 139.026 222.44 141.352 222.448 143.703ZM196.399 249.969L204.837 249.939C207.684 249.931 210.412 248.8 212.423 246.794C214.434 244.788 215.562 242.07 215.562 239.238L215.215 143.728C215.197 140.893 214.05 138.18 212.025 136.185C210 134.19 207.262 133.075 204.412 133.085L187.52 133.145C185.056 133.186 182.676 134.044 180.757 135.583L143.179 165.716C150.927 169.44 157.466 175.257 162.047 182.503C166.628 189.75 169.066 198.132 169.084 206.692C169.085 207.062 169.086 207.395 169.088 207.809C169.1 207.968 169.1 208.127 169.089 208.286L169.202 239.402C169.213 240.435 169.366 241.462 169.657 242.454C170.204 244.007 171.056 245.436 172.162 246.66C173.159 247.727 174.367 248.577 175.711 249.156C177.055 249.736 178.504 250.032 179.969 250.027L195.512 249.972C195.64 249.945 195.77 249.93 195.901 249.926C196.068 249.923 196.235 249.937 196.399 249.969Z" fill="#EAEAEA" fill-opacity="0.2"/>
<path d="M154.805 212.733C154.848 220.759 151.766 228.477 146.232 234.203C140.697 239.93 133.158 243.202 125.258 243.305L124.693 243.307C118.666 243.295 112.782 241.434 107.814 237.968C102.845 234.502 99.022 229.592 96.8457 223.882C94.6695 218.172 94.2413 211.928 95.6173 205.967C96.9932 200.007 100.109 194.608 104.557 190.477C104.678 190.333 104.778 190.261 104.779 190.281L104.99 190.106L105.101 190.013L105.221 189.9L107.386 188.159C107.506 188.017 107.645 187.892 107.799 187.788C112.289 184.635 117.542 182.788 122.99 182.446C128.439 182.104 133.876 183.28 138.715 185.847C143.555 188.415 147.612 192.276 150.449 197.014C153.286 201.752 154.796 207.188 154.815 212.733L154.805 212.733ZM110.022 196.479C106.784 199.501 104.516 203.444 103.514 207.793C102.511 212.143 102.82 216.698 104.401 220.868C105.981 225.037 108.759 228.627 112.375 231.171C115.99 233.715 120.275 235.095 124.673 235.132L125.148 235.13C130.885 234.961 136.329 232.514 140.31 228.315C144.292 224.116 146.496 218.499 146.448 212.668C146.401 206.837 144.106 201.257 140.056 197.124C136.006 192.991 130.523 190.634 124.784 190.559C120.402 190.574 116.126 191.933 112.519 194.46L110.243 196.314L110.032 196.459L110.022 196.479Z" fill="#EAEAEA" fill-opacity="0.2"/>
</svg>
