<svg width="302" height="368" viewBox="0 0 302 368" fill="none" xmlns="http://www.w3.org/2000/svg">
<g clip-path="url(#clip0)">
<g opacity="0.3">
<path d="M299.426 35.4164L299.426 138.997C299.413 144.14 297.384 149.067 293.785 152.699C290.186 156.33 285.31 158.367 280.228 158.365L253.7 158.365C251.083 158.361 248.495 157.814 246.097 156.757C243.698 155.699 241.539 154.155 239.755 152.218L239.639 152.091C237.861 150.077 236.483 147.735 235.583 145.192L235.448 144.87C234.851 142.974 234.548 140.996 234.55 139.007L234.55 103.516C234.552 94.705 231.801 86.119 226.689 78.9862C221.578 71.8533 214.368 66.539 206.091 63.8034C205.416 63.5889 204.813 63.1912 204.346 62.6536C203.879 62.116 203.568 61.4592 203.445 60.7546C203.435 60.6506 203.435 60.5459 203.445 60.4419V60.0608C203.447 59.4743 203.574 58.8952 203.82 58.3637C204.065 57.8322 204.421 57.361 204.864 56.9827L250.156 20.2995C253.577 17.5143 257.836 15.9971 262.227 16L280.228 16C282.748 15.9987 285.245 16.4999 287.574 17.4751C289.903 18.4503 292.019 19.8803 293.802 21.6835C295.585 23.4866 296.999 25.6275 297.964 27.9838C298.929 30.3402 299.426 32.8658 299.426 35.4164ZM271.227 150.616H280.228C283.265 150.618 286.18 149.402 288.333 147.233C290.485 145.064 291.7 142.12 291.71 139.046L291.71 35.4164C291.702 32.3401 290.489 29.3923 288.337 27.2198C286.184 25.0472 283.268 23.8271 280.228 23.8271L262.208 23.8271C259.579 23.8622 257.037 24.7838 254.984 26.446L214.782 58.9957C223.033 63.0655 229.985 69.4028 234.843 77.2827C239.702 85.1627 242.271 94.2671 242.256 103.555C242.256 103.956 242.256 104.317 242.256 104.767C242.268 104.939 242.268 105.112 242.256 105.285L242.256 139.046C242.264 140.167 242.423 141.281 242.729 142.359C243.307 144.046 244.21 145.6 245.385 146.932C246.445 148.093 247.73 149.02 249.161 149.654C250.592 150.288 252.138 150.616 253.7 150.616H270.281C270.418 150.587 270.557 150.571 270.696 150.567C270.874 150.564 271.052 150.581 271.227 150.616Z" fill="white" fill-opacity="0.1"/>
<path d="M299.426 35.4164L299.426 138.997C299.413 144.14 297.384 149.067 293.785 152.699C290.186 156.33 285.31 158.367 280.228 158.365L253.7 158.365C251.083 158.361 248.495 157.814 246.097 156.757C243.698 155.699 241.539 154.155 239.755 152.218L239.639 152.091C237.861 150.077 236.483 147.735 235.583 145.192L235.448 144.87C234.851 142.974 234.548 140.996 234.55 139.007L234.55 103.516C234.552 94.705 231.801 86.119 226.689 78.9862C221.578 71.8533 214.368 66.539 206.091 63.8034C205.416 63.5889 204.813 63.1912 204.346 62.6536C203.879 62.116 203.568 61.4592 203.445 60.7546C203.435 60.6506 203.435 60.5459 203.445 60.4419V60.0608C203.447 59.4743 203.574 58.8952 203.82 58.3637C204.065 57.8322 204.421 57.361 204.864 56.9827L250.156 20.2995C253.577 17.5143 257.836 15.9971 262.227 16L280.228 16C282.748 15.9987 285.245 16.4999 287.574 17.4751C289.903 18.4503 292.019 19.8803 293.802 21.6835C295.585 23.4866 296.999 25.6275 297.964 27.9838C298.929 30.3402 299.426 32.8658 299.426 35.4164ZM271.227 150.616H280.228C283.265 150.618 286.18 149.402 288.333 147.233C290.485 145.064 291.7 142.12 291.71 139.046L291.71 35.4164C291.702 32.3401 290.489 29.3923 288.337 27.2198C286.184 25.0472 283.268 23.8271 280.228 23.8271L262.208 23.8271C259.579 23.8622 257.037 24.7838 254.984 26.446L214.782 58.9957C223.033 63.0655 229.985 69.4028 234.843 77.2827C239.702 85.1627 242.271 94.2671 242.256 103.555C242.256 103.956 242.256 104.317 242.256 104.767C242.268 104.939 242.268 105.112 242.256 105.285L242.256 139.046C242.264 140.167 242.423 141.281 242.729 142.359C243.307 144.046 244.21 145.6 245.385 146.932C246.445 148.093 247.73 149.02 249.161 149.654C250.592 150.288 252.138 150.616 253.7 150.616H270.281C270.418 150.587 270.557 150.571 270.696 150.567C270.874 150.564 271.052 150.581 271.227 150.616Z" fill="white" fill-opacity="0.1"/>
<path d="M227.157 110.901C227.172 119.711 223.873 128.17 217.98 134.434C212.087 140.698 204.078 144.26 195.698 144.343H195.098C188.705 144.306 182.472 142.24 177.214 138.416C171.957 134.592 167.921 129.189 165.634 122.913C163.348 116.637 162.918 109.781 164.4 103.244C165.883 96.7063 169.209 90.792 173.943 86.2753C174.071 86.1177 174.178 86.0389 174.178 86.0614L174.403 85.8699L174.521 85.7686L174.65 85.6447L176.953 83.7418C177.081 83.5862 177.229 83.4498 177.392 83.3364C182.167 79.8929 187.746 77.8857 193.527 77.5316C199.307 77.1774 205.071 78.4897 210.194 81.3268C215.317 84.1638 219.606 88.418 222.597 93.63C225.589 98.842 227.169 104.814 227.168 110.901H227.157ZM179.716 92.8849C176.27 96.1898 173.85 100.508 172.769 105.279C171.689 110.049 171.999 115.051 173.66 119.633C175.32 124.216 178.254 128.167 182.079 130.974C185.904 133.78 190.444 135.311 195.109 135.369H195.612C201.699 135.205 207.482 132.541 211.722 127.948C215.962 123.354 218.321 117.197 218.293 110.796C218.265 104.396 215.852 98.2618 211.572 93.7094C207.292 89.157 201.486 86.5489 195.398 86.4442C190.749 86.4433 186.209 87.919 182.373 90.678L179.952 92.7048L179.727 92.8624L179.716 92.8849Z" fill="white" fill-opacity="0.1"/>
<path d="M144.859 229.931L144.859 332.892C144.846 338.004 142.795 342.902 139.156 346.511C135.517 350.12 130.588 352.146 125.449 352.143L98.6284 352.141C95.983 352.137 93.3666 351.593 90.9413 350.541C88.5161 349.49 86.3337 347.955 84.5296 346.03L84.4124 345.903C82.6144 343.902 81.222 341.573 80.3117 339.046L80.175 338.725C79.5714 336.841 79.2651 334.875 79.267 332.897L79.267 297.618C79.2695 288.86 76.4878 280.325 71.3197 273.235C66.1516 266.144 58.8619 260.861 50.4934 258.141C49.8114 257.928 49.2013 257.533 48.7296 256.998C48.2578 256.464 47.9426 255.811 47.8182 255.111C47.8085 255.007 47.8085 254.903 47.8182 254.8V254.421C47.8202 253.838 47.9495 253.262 48.1974 252.734C48.4452 252.206 48.8056 251.737 49.2535 251.361L95.0451 214.901C98.5038 212.133 102.81 210.625 107.25 210.628L125.449 210.63C127.998 210.629 130.522 211.127 132.876 212.097C135.231 213.066 137.371 214.488 139.174 216.28C140.976 218.073 142.406 220.201 143.382 222.543C144.357 224.885 144.859 227.396 144.859 229.931ZM116.349 344.439L125.449 344.44C128.52 344.443 131.467 343.234 133.644 341.078C135.82 338.922 137.048 335.996 137.058 332.94L137.058 229.931C137.05 226.873 135.824 223.943 133.648 221.783C131.471 219.623 128.523 218.41 125.449 218.41L107.23 218.409C104.572 218.443 102.002 219.359 99.9269 221.011L59.2807 253.363C67.6225 257.409 74.6514 263.709 79.5637 271.542C84.4759 279.375 87.0732 288.426 87.0584 297.658C87.0584 298.056 87.0584 298.415 87.0584 298.862C87.0707 299.034 87.0707 299.206 87.0584 299.377L87.0584 332.936C87.066 334.051 87.227 335.159 87.5368 336.229C88.1212 337.906 89.0338 339.451 90.2218 340.775C91.2932 341.93 92.5932 342.851 94.0399 343.482C95.4867 344.112 97.049 344.438 98.6284 344.438L115.393 344.439C115.531 344.411 115.671 344.395 115.812 344.391C115.993 344.388 116.173 344.404 116.349 344.439Z" fill="white" fill-opacity="0.1"/>
<path d="M144.859 229.931L144.859 332.892C144.846 338.004 142.795 342.902 139.156 346.511C135.517 350.12 130.588 352.146 125.449 352.143L98.6284 352.141C95.983 352.137 93.3666 351.593 90.9413 350.541C88.5161 349.49 86.3337 347.955 84.5296 346.03L84.4124 345.903C82.6144 343.902 81.222 341.573 80.3117 339.046L80.175 338.725C79.5714 336.841 79.2651 334.875 79.267 332.897L79.267 297.618C79.2695 288.86 76.4878 280.325 71.3197 273.235C66.1516 266.144 58.8619 260.861 50.4934 258.141C49.8114 257.928 49.2013 257.533 48.7296 256.998C48.2578 256.464 47.9426 255.811 47.8182 255.111C47.8085 255.007 47.8085 254.903 47.8182 254.8V254.421C47.8202 253.838 47.9495 253.262 48.1974 252.734C48.4452 252.206 48.8056 251.737 49.2535 251.361L95.0451 214.901C98.5038 212.133 102.81 210.625 107.25 210.628L125.449 210.63C127.998 210.629 130.522 211.127 132.876 212.097C135.231 213.066 137.371 214.488 139.174 216.28C140.976 218.073 142.406 220.201 143.382 222.543C144.357 224.885 144.859 227.396 144.859 229.931ZM116.349 344.439L125.449 344.44C128.52 344.443 131.467 343.234 133.644 341.078C135.82 338.922 137.048 335.996 137.058 332.94L137.058 229.931C137.05 226.873 135.824 223.943 133.648 221.783C131.471 219.623 128.523 218.41 125.449 218.41L107.23 218.409C104.572 218.443 102.002 219.359 99.9269 221.011L59.2807 253.363C67.6225 257.409 74.6514 263.709 79.5637 271.542C84.4759 279.375 87.0732 288.426 87.0584 297.658C87.0584 298.056 87.0584 298.415 87.0584 298.862C87.0707 299.034 87.0707 299.206 87.0584 299.377L87.0584 332.936C87.066 334.051 87.227 335.159 87.5368 336.229C88.1212 337.906 89.0338 339.451 90.2218 340.775C91.2932 341.93 92.5932 342.851 94.0399 343.482C95.4867 344.112 97.049 344.438 98.6284 344.438L115.393 344.439C115.531 344.411 115.671 344.395 115.812 344.391C115.993 344.388 116.173 344.404 116.349 344.439Z" fill="white" fill-opacity="0.1"/>
<path d="M71.2508 299.949C71.2656 308.605 67.9117 316.916 61.9201 323.071C55.9285 329.225 47.785 332.725 39.2642 332.806L38.6543 332.806C32.1542 332.769 25.8164 330.738 20.4711 326.981C15.1257 323.223 11.0219 317.913 8.69717 311.746C6.37241 305.58 5.93505 298.843 7.44239 292.42C8.94973 285.997 12.3315 280.186 17.1448 275.748C17.2755 275.594 17.3844 275.516 17.3844 275.538L17.6131 275.35L17.7329 275.251L17.8636 275.129L20.2051 273.259C20.3353 273.107 20.4856 272.973 20.6516 272.861C25.5066 269.478 31.1791 267.506 37.0567 267.159C42.9344 266.811 48.794 268.101 54.003 270.889C59.2121 273.677 63.5727 277.857 66.6143 282.979C69.6559 288.1 71.2628 293.968 71.2617 299.949L71.2508 299.949ZM23.015 282.243C19.511 285.49 17.0499 289.733 15.9516 294.42C14.8534 299.107 15.1688 304.022 16.8569 308.525C18.545 313.027 21.5277 316.91 25.4171 319.668C29.3065 322.426 33.9226 323.931 38.6652 323.988L39.1771 323.988C45.3658 323.828 51.2461 321.21 55.5571 316.697C59.8681 312.184 62.2665 306.134 62.238 299.845C62.2095 293.557 59.7564 287.529 55.4047 283.056C51.053 278.583 45.1492 276.019 38.9593 275.916C34.233 275.915 29.6168 277.364 25.7159 280.075L23.2546 282.066L23.0259 282.221L23.015 282.243Z" fill="white" fill-opacity="0.1"/>
<path d="M71.2508 299.949C71.2656 308.605 67.9117 316.916 61.9201 323.071C55.9285 329.225 47.785 332.725 39.2642 332.806L38.6543 332.806C32.1542 332.769 25.8164 330.738 20.4711 326.981C15.1257 323.223 11.0219 317.913 8.69717 311.746C6.37241 305.58 5.93505 298.843 7.44239 292.42C8.94973 285.997 12.3315 280.186 17.1448 275.748C17.2755 275.594 17.3844 275.516 17.3844 275.538L17.6131 275.35L17.7329 275.251L17.8636 275.129L20.2051 273.259C20.3353 273.107 20.4856 272.973 20.6516 272.861C25.5066 269.478 31.1791 267.506 37.0567 267.159C42.9344 266.811 48.794 268.101 54.003 270.889C59.2121 273.677 63.5727 277.857 66.6143 282.979C69.6559 288.1 71.2628 293.968 71.2617 299.949L71.2508 299.949ZM23.015 282.243C19.511 285.49 17.0499 289.733 15.9516 294.42C14.8534 299.107 15.1688 304.022 16.8569 308.525C18.545 313.027 21.5277 316.91 25.4171 319.668C29.3065 322.426 33.9226 323.931 38.6652 323.988L39.1771 323.988C45.3658 323.828 51.2461 321.21 55.5571 316.697C59.8681 312.184 62.2665 306.134 62.238 299.845C62.2095 293.557 59.7564 287.529 55.4047 283.056C51.053 278.583 45.1492 276.019 38.9593 275.916C34.233 275.915 29.6168 277.364 25.7159 280.075L23.2546 282.066L23.0259 282.221L23.015 282.243Z" fill="white" fill-opacity="0.1"/>
<path d="M280.337 173.166L177.377 172.792C172.265 172.786 167.359 174.82 163.737 178.446C160.115 182.071 158.072 186.994 158.056 192.132L157.961 218.953C157.955 221.598 158.49 224.217 159.532 226.646C160.574 229.075 162.102 231.263 164.02 233.074L164.146 233.191C166.142 234.997 168.465 236.398 170.989 237.317L171.309 237.455C173.191 238.065 175.156 238.379 177.134 238.384L212.412 238.512C221.17 238.541 229.695 241.354 236.767 246.548C243.839 251.742 249.095 259.05 251.785 267.429C251.995 268.111 252.388 268.723 252.921 269.197C253.454 269.67 254.106 269.988 254.806 270.115C254.909 270.125 255.013 270.125 255.116 270.116L255.495 270.117C256.078 270.118 256.654 269.99 257.184 269.744C257.713 269.498 258.182 269.14 258.56 268.693L295.186 223.034C297.967 219.586 299.49 215.284 299.503 210.845L299.568 192.646C299.578 190.097 299.089 187.572 298.128 185.213C297.167 182.855 295.753 180.71 293.967 178.901C292.181 177.092 290.058 175.654 287.72 174.67C285.381 173.686 282.872 173.175 280.337 173.166ZM165.726 201.26L165.759 192.16C165.767 189.089 166.987 186.146 169.15 183.978C171.314 181.81 174.245 180.592 177.3 180.593L280.309 180.967C283.367 180.986 286.293 182.223 288.445 184.407C290.596 186.591 291.799 189.544 291.788 192.618L291.723 210.837C291.679 213.494 290.753 216.061 289.094 218.13L256.595 258.659C252.579 250.302 246.305 243.251 238.489 238.31C230.674 233.369 221.633 230.739 212.401 230.72C212.003 230.719 211.643 230.718 211.197 230.716C211.025 230.703 210.853 230.703 210.682 230.714L177.123 230.592C176.009 230.581 174.901 230.416 173.832 230.102C172.157 229.512 170.615 228.593 169.295 227.401C168.145 226.325 167.228 225.022 166.603 223.573C165.978 222.124 165.658 220.56 165.663 218.981L165.723 202.217C165.752 202.079 165.769 201.938 165.773 201.797C165.776 201.617 165.76 201.437 165.726 201.26Z" fill="white" fill-opacity="0.1"/>
<path d="M205.882 246.118C197.226 246.072 188.903 249.395 182.727 255.365C176.55 261.334 173.022 269.465 172.91 277.985L172.908 278.595C172.921 285.095 174.928 291.44 178.666 296.799C182.405 302.158 187.7 306.281 193.858 308.628C200.016 310.976 206.751 311.437 213.179 309.953C219.608 308.469 225.431 305.109 229.886 300.311C230.042 300.181 230.119 300.073 230.097 300.073L230.286 299.845L230.386 299.725L230.508 299.595L232.386 297.26C232.54 297.131 232.674 296.981 232.786 296.815C236.187 291.972 238.179 286.307 238.548 280.431C238.917 274.554 237.649 268.69 234.88 263.471C232.11 258.252 227.946 253.876 222.836 250.816C217.725 247.756 211.863 246.128 205.882 246.107L205.882 246.118ZM223.413 294.418C220.153 297.91 215.901 300.356 211.21 301.437C206.519 302.518 201.606 302.185 197.109 300.48C192.613 298.776 188.741 295.779 185.997 291.88C183.253 287.98 181.765 283.359 181.725 278.616L181.727 278.104C181.91 271.916 184.548 266.045 189.077 261.751C193.606 257.456 199.664 255.08 205.953 255.131C212.242 255.182 218.26 257.657 222.718 262.025C227.175 266.393 229.717 272.306 229.798 278.497C229.782 283.223 228.316 287.834 225.591 291.725L223.591 294.179L223.435 294.407L223.413 294.418Z" fill="white" fill-opacity="0.1"/>
<path d="M22.2999 192.7L125.26 193.074C130.372 193.08 135.277 191.047 138.9 187.421C142.522 183.795 144.565 178.873 144.581 173.734L144.676 146.913C144.682 144.268 144.147 141.65 143.105 139.221C142.062 136.791 140.535 134.604 138.616 132.792L138.491 132.675C136.495 130.87 134.172 129.469 131.648 128.549L131.328 128.411C129.445 127.801 127.481 127.488 125.503 127.482L90.2244 127.354C81.4664 127.325 72.9417 124.512 65.87 119.318C58.7982 114.125 53.5416 106.816 50.8521 98.4376C50.6414 97.7548 50.2482 97.1432 49.7155 96.6696C49.1828 96.1959 48.531 95.8783 47.8311 95.7513C47.7277 95.7413 47.6237 95.7409 47.5203 95.7502L47.1415 95.7488C46.5584 95.7487 45.9824 95.876 45.4532 96.1219C44.924 96.3678 44.4543 96.7265 44.0767 97.173L7.45054 142.832C4.66974 146.281 3.14634 150.582 3.13335 155.021L3.06868 173.22C3.05834 175.769 3.54766 178.294 4.50865 180.653C5.46962 183.011 6.88347 185.156 8.66936 186.965C10.4553 188.774 12.5783 190.212 14.917 191.196C17.2558 192.18 19.7645 192.691 22.2999 192.7ZM136.91 164.606L136.878 173.706C136.87 176.777 135.65 179.72 133.486 181.888C131.323 184.057 128.392 185.274 125.336 185.273L22.3276 184.899C19.2697 184.881 16.344 183.643 14.1922 181.459C12.0403 179.275 10.8381 176.322 10.849 173.249L10.9137 155.03C10.9581 152.372 11.8833 149.805 13.5428 147.736L46.042 107.207C50.0578 115.564 56.3321 122.616 64.1474 127.556C71.9627 132.497 81.0034 135.127 90.2356 135.146C90.6339 135.147 90.9932 135.148 91.44 135.15C91.6114 135.163 91.7834 135.164 91.9548 135.152L125.514 135.274C126.628 135.285 127.736 135.45 128.805 135.764C130.48 136.355 132.022 137.273 133.341 138.466C134.492 139.541 135.409 140.844 136.034 142.294C136.659 143.743 136.979 145.306 136.973 146.885L136.914 163.649C136.885 163.788 136.868 163.928 136.864 164.069C136.861 164.249 136.876 164.429 136.91 164.606Z" fill="white" fill-opacity="0.1"/>
<path d="M22.2999 192.7L125.26 193.074C130.372 193.08 135.277 191.047 138.9 187.421C142.522 183.795 144.565 178.873 144.581 173.734L144.676 146.913C144.682 144.268 144.147 141.65 143.105 139.221C142.062 136.791 140.535 134.604 138.616 132.792L138.491 132.675C136.495 130.87 134.172 129.469 131.648 128.549L131.328 128.411C129.445 127.801 127.481 127.488 125.503 127.482L90.2244 127.354C81.4664 127.325 72.9417 124.512 65.87 119.318C58.7982 114.125 53.5416 106.816 50.8521 98.4376C50.6414 97.7548 50.2482 97.1432 49.7155 96.6696C49.1828 96.1959 48.531 95.8783 47.8311 95.7513C47.7277 95.7413 47.6237 95.7409 47.5203 95.7502L47.1415 95.7488C46.5584 95.7487 45.9824 95.876 45.4532 96.1219C44.924 96.3678 44.4543 96.7265 44.0767 97.173L7.45054 142.832C4.66974 146.281 3.14634 150.582 3.13335 155.021L3.06868 173.22C3.05834 175.769 3.54766 178.294 4.50865 180.653C5.46962 183.011 6.88347 185.156 8.66936 186.965C10.4553 188.774 12.5783 190.212 14.917 191.196C17.2558 192.18 19.7645 192.691 22.2999 192.7ZM136.91 164.606L136.878 173.706C136.87 176.777 135.65 179.72 133.486 181.888C131.323 184.057 128.392 185.274 125.336 185.273L22.3276 184.899C19.2697 184.881 16.344 183.643 14.1922 181.459C12.0403 179.275 10.8381 176.322 10.849 173.249L10.9137 155.03C10.9581 152.372 11.8833 149.805 13.5428 147.736L46.042 107.207C50.0578 115.564 56.3321 122.616 64.1474 127.556C71.9627 132.497 81.0034 135.127 90.2356 135.146C90.6339 135.147 90.9932 135.148 91.44 135.15C91.6114 135.163 91.7834 135.164 91.9548 135.152L125.514 135.274C126.628 135.285 127.736 135.45 128.805 135.764C130.48 136.355 132.022 137.273 133.341 138.466C134.492 139.541 135.409 140.844 136.034 142.294C136.659 143.743 136.979 145.306 136.973 146.885L136.914 163.649C136.885 163.788 136.868 163.928 136.864 164.069C136.861 164.249 136.876 164.429 136.91 164.606Z" fill="white" fill-opacity="0.1"/>
<path d="M96.77 117.014C105.426 117.06 113.749 113.736 119.926 107.767C126.102 101.798 129.631 93.6671 129.743 85.1467L129.745 84.5369C129.731 78.0366 127.724 71.6916 123.986 66.3326C120.248 60.9736 114.953 56.8506 108.794 54.5035C102.636 52.1563 95.9016 51.6945 89.4729 53.1786C83.0442 54.6626 77.2211 58.0232 72.7661 62.8204C72.6107 62.9505 72.5329 63.0591 72.555 63.0592L72.3661 63.2872L72.2661 63.4067L72.1439 63.5369L70.2659 65.8716C70.1125 66.0013 69.978 66.1511 69.866 66.3167C66.4653 71.1594 64.4729 76.8247 64.1041 82.701C63.7352 88.5774 65.0037 94.4416 67.7728 99.6607C70.5419 104.88 74.7064 109.256 79.8167 112.316C84.9269 115.376 90.7889 117.004 96.7699 117.025L96.77 117.014ZM79.2395 68.7141C82.4992 65.2219 86.751 62.7762 91.4421 61.695C96.1332 60.6137 101.046 60.947 105.543 62.6515C110.04 64.3559 113.912 67.3527 116.655 71.252C119.399 75.1514 120.887 79.7729 120.927 84.5157L120.925 85.0276C120.743 91.2157 118.104 97.0865 113.575 101.381C109.046 105.676 102.988 108.052 96.6992 108.001C90.4104 107.949 84.392 105.474 79.9345 101.107C75.477 96.7386 72.9353 90.8256 72.8545 84.6353C72.8704 79.9091 74.3368 75.2982 77.0615 71.4071L79.0617 68.953L79.2174 68.7249L79.2395 68.7141Z" fill="white" fill-opacity="0.1"/>
<path d="M96.77 117.014C105.426 117.06 113.749 113.736 119.926 107.767C126.102 101.798 129.631 93.6671 129.743 85.1467L129.745 84.5369C129.731 78.0366 127.724 71.6916 123.986 66.3326C120.248 60.9736 114.953 56.8506 108.794 54.5035C102.636 52.1563 95.9016 51.6945 89.4729 53.1786C83.0442 54.6626 77.2211 58.0232 72.7661 62.8204C72.6107 62.9505 72.5329 63.0591 72.555 63.0592L72.3661 63.2872L72.2661 63.4067L72.1439 63.5369L70.2659 65.8716C70.1125 66.0013 69.978 66.1511 69.866 66.3167C66.4653 71.1594 64.4729 76.8247 64.1041 82.701C63.7352 88.5774 65.0037 94.4416 67.7728 99.6607C70.5419 104.88 74.7064 109.256 79.8167 112.316C84.9269 115.376 90.7889 117.004 96.7699 117.025L96.77 117.014ZM79.2395 68.7141C82.4992 65.2219 86.751 62.7762 91.4421 61.695C96.1332 60.6137 101.046 60.947 105.543 62.6515C110.04 64.3559 113.912 67.3527 116.655 71.252C119.399 75.1514 120.887 79.7729 120.927 84.5157L120.925 85.0276C120.743 91.2157 118.104 97.0865 113.575 101.381C109.046 105.676 102.988 108.052 96.6992 108.001C90.4104 107.949 84.392 105.474 79.9345 101.107C75.477 96.7386 72.9353 90.8256 72.8545 84.6353C72.8704 79.9091 74.3368 75.2982 77.0615 71.4071L79.0617 68.953L79.2174 68.7249L79.2395 68.7141Z" fill="white" fill-opacity="0.1"/>
</g>
</g>
<defs>
<clipPath id="clip0">
<rect width="302" height="368" fill="white"/>
</clipPath>
</defs>
</svg>
