<svg width="546" height="389" viewBox="0 0 546 389" fill="none" xmlns="http://www.w3.org/2000/svg">
<g opacity="0.6">
<path d="M280.942 5.07031H384.523C389.666 5.08296 394.593 7.08877 398.224 10.6476C401.855 14.2064 403.893 19.0274 403.891 24.0528V50.2826C403.887 52.8696 403.34 55.4284 402.282 57.8002C401.225 60.172 399.68 62.3063 397.744 64.0707L397.617 64.1852C395.603 65.9437 393.261 67.3054 390.718 68.1956L390.396 68.3293C388.5 68.9196 386.522 69.2191 384.533 69.2173H349.042C340.231 69.2148 331.645 71.9353 324.512 76.9895C317.379 82.0437 312.065 89.1727 309.329 97.3568C309.115 98.0238 308.717 98.6205 308.18 99.0818C307.642 99.5431 306.985 99.8514 306.28 99.9731C306.176 99.9825 306.072 99.9825 305.968 99.9731H305.587C305 99.9712 304.421 99.8446 303.89 99.6023C303.358 99.3599 302.887 99.0075 302.509 98.5695L265.825 53.7869C263.04 50.4044 261.523 46.1927 261.526 41.8512V24.0528C261.525 21.5604 262.026 19.0922 263.001 16.7892C263.976 14.4862 265.406 12.3935 267.209 10.6307C269.012 8.86791 271.153 7.46952 273.51 6.51544C275.866 5.56137 278.392 5.07031 280.942 5.07031ZM396.142 32.952V24.0528C396.144 21.0492 394.928 18.1672 392.759 16.0389C390.59 13.9106 387.646 12.7097 384.572 12.6996H280.942C277.866 12.7072 274.918 13.9066 272.746 16.035C270.573 18.1633 269.353 21.0467 269.353 24.0528V41.8703C269.388 44.4695 270.31 46.983 271.972 49.0126L304.522 88.7631C308.591 80.6052 314.929 73.7312 322.809 68.9272C330.689 64.1231 339.793 61.5831 349.081 61.5976C349.481 61.5976 349.843 61.5976 350.293 61.5976C350.465 61.5855 350.638 61.5855 350.81 61.5976H384.572C385.693 61.5902 386.807 61.4327 387.884 61.1297C389.571 60.5582 391.126 59.6657 392.458 58.5039C393.619 57.4561 394.546 56.1848 395.18 54.7699C395.814 53.355 396.141 51.8272 396.142 50.2826V33.8878C396.113 33.7526 396.097 33.6152 396.093 33.4772C396.09 33.3009 396.107 33.1249 396.142 32.952Z" fill="#EAEAEA" fill-opacity="0.2"/>
<path d="M356.425 76.265C365.235 76.25 373.694 79.6604 379.958 85.753C386.222 91.8456 389.784 100.126 389.867 108.791V109.411C389.83 116.021 387.764 122.465 383.94 127.901C380.116 133.336 374.712 137.509 368.436 139.873C362.16 142.237 355.305 142.682 348.768 141.149C342.23 139.616 336.316 136.178 331.799 131.283C331.642 131.15 331.563 131.04 331.585 131.04L331.394 130.807L331.293 130.685L331.169 130.552L329.266 128.171C329.11 128.039 328.974 127.886 328.86 127.717C325.417 122.78 323.41 117.012 323.056 111.036C322.701 105.059 324.014 99.1004 326.851 93.8036C329.688 88.5067 333.942 84.0725 339.154 80.9797C344.366 77.8868 350.338 76.2528 356.425 76.2539V76.265ZM338.409 125.314C341.714 128.877 346.032 131.38 350.802 132.497C355.573 133.613 360.575 133.293 365.157 131.576C369.74 129.859 373.691 126.826 376.497 122.871C379.304 118.917 380.835 114.223 380.893 109.4V108.88C380.729 102.586 378.065 96.607 373.472 92.2233C368.878 87.8396 362.721 85.4008 356.32 85.4297C349.92 85.4587 343.786 87.9532 339.233 92.3783C334.681 96.8034 332.073 102.807 331.968 109.101C331.967 113.907 333.443 118.601 336.202 122.568L338.229 125.07L338.386 125.303L338.409 125.314Z" fill="#EAEAEA" fill-opacity="0.2"/>
<path d="M356.425 76.265C365.235 76.25 373.694 79.6604 379.958 85.753C386.222 91.8456 389.784 100.126 389.867 108.791V109.411C389.83 116.021 387.764 122.465 383.94 127.901C380.116 133.336 374.712 137.509 368.436 139.873C362.16 142.237 355.305 142.682 348.768 141.149C342.23 139.616 336.316 136.178 331.799 131.283C331.642 131.15 331.563 131.04 331.585 131.04L331.394 130.807L331.293 130.685L331.169 130.552L329.266 128.171C329.11 128.039 328.974 127.886 328.86 127.717C325.417 122.78 323.41 117.012 323.056 111.036C322.701 105.059 324.014 99.1004 326.851 93.8036C329.688 88.5067 333.942 84.0725 339.154 80.9797C344.366 77.8868 350.338 76.2528 356.425 76.2539V76.265ZM338.409 125.314C341.714 128.877 346.032 131.38 350.802 132.497C355.573 133.613 360.575 133.293 365.157 131.576C369.74 129.859 373.691 126.826 376.497 122.871C379.304 118.917 380.835 114.223 380.893 109.4V108.88C380.729 102.586 378.065 96.607 373.472 92.2233C368.878 87.8396 362.721 85.4008 356.32 85.4297C349.92 85.4587 343.786 87.9532 339.233 92.3783C334.681 96.8034 332.073 102.807 331.968 109.101C331.967 113.907 333.443 118.601 336.202 122.568L338.229 125.07L338.386 125.303L338.409 125.314Z" fill="#EAEAEA" fill-opacity="0.2"/>
<path d="M137.644 142.043H242.009C247.191 142.03 252.156 139.979 255.814 136.339C259.473 132.699 261.526 127.769 261.523 122.629V95.8031C261.52 93.1573 260.968 90.5404 259.903 88.1147C258.838 85.6889 257.281 83.5062 255.33 81.7017L255.202 81.5845C253.173 79.7861 250.813 78.3935 248.251 77.483L247.926 77.3463C246.016 76.7426 244.024 76.4362 242.019 76.4381H206.259C197.381 76.4406 188.73 73.6583 181.544 68.4893C174.357 63.3202 169.002 56.0291 166.246 47.6591C166.03 46.9769 165.629 46.3667 165.087 45.8949C164.546 45.423 163.884 45.1077 163.174 44.9833C163.069 44.9737 162.964 44.9737 162.859 44.9833H162.475C161.884 44.9853 161.3 45.1147 160.765 45.3626C160.229 45.6105 159.755 45.9709 159.373 46.4188L122.412 92.2192C119.606 95.6786 118.077 99.986 118.08 104.426V122.629C118.079 125.178 118.584 127.702 119.566 130.058C120.549 132.413 121.99 134.553 123.807 136.356C125.623 138.159 127.781 139.589 130.155 140.565C132.529 141.541 135.074 142.043 137.644 142.043ZM253.716 113.528V122.629C253.718 125.701 252.493 128.648 250.307 130.825C248.122 133.002 245.155 134.23 242.058 134.24H137.644C134.544 134.233 131.574 133.006 129.385 130.829C127.196 128.652 125.967 125.704 125.967 122.629V104.407C126.002 101.748 126.931 99.1777 128.605 97.102L161.402 56.448C165.502 64.7914 171.888 71.8216 179.827 76.7348C187.767 81.648 196.94 84.2458 206.298 84.231C206.702 84.231 207.066 84.231 207.519 84.231C207.693 84.2433 207.867 84.2433 208.041 84.231H242.058C243.188 84.2386 244.311 84.3996 245.396 84.7095C247.096 85.294 248.662 86.2067 250.004 87.395C251.174 88.4666 252.108 89.7668 252.747 91.2139C253.386 92.6609 253.716 94.2234 253.716 95.8031V112.571C253.687 112.709 253.67 112.849 253.666 112.99C253.664 113.171 253.68 113.351 253.716 113.528Z" fill="#EAEAEA" fill-opacity="0.2"/>
<path d="M137.644 142.043H242.009C247.191 142.03 252.156 139.979 255.814 136.339C259.473 132.699 261.526 127.769 261.523 122.629V95.8031C261.52 93.1573 260.968 90.5404 259.903 88.1147C258.838 85.6889 257.281 83.5062 255.33 81.7017L255.202 81.5845C253.173 79.7861 250.813 78.3935 248.251 77.483L247.926 77.3463C246.016 76.7426 244.024 76.4362 242.019 76.4381H206.259C197.381 76.4406 188.73 73.6583 181.544 68.4893C174.357 63.3202 169.002 56.0291 166.246 47.6591C166.03 46.9769 165.629 46.3667 165.087 45.8949C164.546 45.423 163.884 45.1077 163.174 44.9833C163.069 44.9737 162.964 44.9737 162.859 44.9833H162.475C161.884 44.9853 161.3 45.1147 160.765 45.3626C160.229 45.6105 159.755 45.9709 159.373 46.4188L122.412 92.2192C119.606 95.6786 118.077 99.986 118.08 104.426V122.629C118.079 125.178 118.584 127.702 119.566 130.058C120.549 132.413 121.99 134.553 123.807 136.356C125.623 138.159 127.781 139.589 130.155 140.565C132.529 141.541 135.074 142.043 137.644 142.043ZM253.716 113.528V122.629C253.718 125.701 252.493 128.648 250.307 130.825C248.122 133.002 245.155 134.23 242.058 134.24H137.644C134.544 134.233 131.574 133.006 129.385 130.829C127.196 128.652 125.967 125.704 125.967 122.629V104.407C126.002 101.748 126.931 99.1777 128.605 97.102L161.402 56.448C165.502 64.7914 171.888 71.8216 179.827 76.7348C187.767 81.648 196.94 84.2458 206.298 84.231C206.702 84.231 207.066 84.231 207.519 84.231C207.693 84.2433 207.867 84.2433 208.041 84.231H242.058C243.188 84.2386 244.311 84.3996 245.396 84.7095C247.096 85.294 248.662 86.2067 250.004 87.395C251.174 88.4666 252.108 89.7668 252.747 91.2139C253.386 92.6609 253.716 94.2234 253.716 95.8031V112.571C253.687 112.709 253.67 112.849 253.666 112.99C253.664 113.171 253.68 113.351 253.716 113.528Z" fill="#EAEAEA" fill-opacity="0.2"/>
<path d="M212.984 68.6924C221.793 68.7069 230.252 65.4083 236.516 59.5154C242.781 53.6226 246.343 45.6132 246.426 37.2329V36.6331C246.389 30.2401 244.323 24.0068 240.499 18.7495C236.675 13.4922 231.271 9.45605 224.995 7.16961C218.719 4.88316 211.863 4.45301 205.326 5.93551C198.789 7.41801 192.875 10.744 188.358 15.478C188.2 15.6065 188.121 15.7136 188.144 15.7136L187.952 15.9386L187.851 16.0564L187.727 16.185L185.824 18.4879C185.669 18.616 185.532 18.7638 185.419 18.9271C181.975 23.7021 179.968 29.281 179.614 35.0618C179.26 40.8426 180.572 46.6057 183.409 51.7289C186.246 56.8521 190.501 61.1409 195.712 64.1323C200.924 67.1237 206.896 68.7042 212.984 68.7031V68.6924ZM194.967 21.2514C198.272 17.8052 202.591 15.3847 207.361 14.3045C212.131 13.2243 217.133 13.5346 221.716 15.1949C226.298 16.8552 230.25 19.7887 233.056 23.614C235.862 27.4393 237.394 31.9793 237.452 36.6438V37.1472C237.288 43.2339 234.624 49.0174 230.03 53.2573C225.437 57.4973 219.279 59.8562 212.879 59.8281C206.478 59.8001 200.344 57.3874 195.792 53.1074C191.24 48.8274 188.631 43.0209 188.527 36.933C188.526 32.2846 190.002 27.7445 192.76 23.9079L194.787 21.4871L194.945 21.2622L194.967 21.2514Z" fill="#EAEAEA" fill-opacity="0.2"/>
<path d="M212.984 68.6924C221.793 68.7069 230.252 65.4083 236.516 59.5154C242.781 53.6226 246.343 45.6132 246.426 37.2329V36.6331C246.389 30.2401 244.323 24.0068 240.499 18.7495C236.675 13.4922 231.271 9.45605 224.995 7.16961C218.719 4.88316 211.863 4.45301 205.326 5.93551C198.789 7.41801 192.875 10.744 188.358 15.478C188.2 15.6065 188.121 15.7136 188.144 15.7136L187.952 15.9386L187.851 16.0564L187.727 16.185L185.824 18.4879C185.669 18.616 185.532 18.7638 185.419 18.9271C181.975 23.7021 179.968 29.281 179.614 35.0618C179.26 40.8426 180.572 46.6057 183.409 51.7289C186.246 56.8521 190.501 61.1409 195.712 64.1323C200.924 67.1237 206.896 68.7042 212.984 68.7031V68.6924ZM194.967 21.2514C198.272 17.8052 202.591 15.3847 207.361 14.3045C212.131 13.2243 217.133 13.5346 221.716 15.1949C226.298 16.8552 230.25 19.7887 233.056 23.614C235.862 27.4393 237.394 31.9793 237.452 36.6438V37.1472C237.288 43.2339 234.624 49.0174 230.03 53.2573C225.437 57.4973 219.279 59.8562 212.879 59.8281C206.478 59.8001 200.344 57.3874 195.792 53.1074C191.24 48.8274 188.631 43.0209 188.527 36.933C188.526 32.2846 190.002 27.7445 192.76 23.9079L194.787 21.4871L194.945 21.2622L194.967 21.2514Z" fill="#EAEAEA" fill-opacity="0.2"/>
<path d="M160.14 -59.9331H56.559C51.4163 -59.9202 46.4887 -57.8688 42.8576 -54.2291C39.2266 -50.5894 37.1888 -45.6588 37.1914 -40.5192V-13.6933C37.1949 -11.0474 37.7423 -8.43051 38.7996 -6.0048C39.8569 -3.57909 41.4016 -1.39632 43.3379 0.408157L43.4649 0.525341C45.4788 2.32373 47.8213 3.7164 50.3638 4.62685L50.6862 4.76358C52.5819 5.36728 54.5597 5.67365 56.5493 5.67177H92.0403C100.851 5.66924 109.437 8.45152 116.57 13.6206C123.703 18.7897 129.017 26.0807 131.753 34.4508C131.967 35.133 132.365 35.7432 132.903 36.215C133.44 36.6868 134.097 37.0021 134.802 37.1266C134.906 37.1362 135.01 37.1362 135.114 37.1266H135.495C136.082 37.1246 136.661 36.9952 137.192 36.7473C137.724 36.4994 138.195 36.139 138.573 35.691L175.257 -10.1093C178.042 -13.5687 179.559 -17.8762 179.556 -22.3163V-40.5192C179.557 -43.0682 179.056 -45.5925 178.081 -47.9479C177.106 -50.3032 175.676 -52.4434 173.873 -54.2463C172.07 -56.0492 169.929 -57.4794 167.572 -58.4551C165.216 -59.4309 162.69 -59.9331 160.14 -59.9331ZM44.9404 -31.4177V-40.5192C44.9378 -43.5911 46.1544 -46.5385 48.3233 -48.7152C50.4922 -50.8919 53.4364 -52.1201 56.5102 -52.1305H160.14C163.216 -52.1227 166.164 -50.8959 168.336 -48.7193C170.509 -46.5426 171.729 -43.5936 171.729 -40.5192V-22.2967C171.694 -19.6384 170.772 -17.0678 169.11 -14.9921L136.56 25.6618C132.491 17.3185 126.153 10.2882 118.273 5.37503C110.394 0.461842 101.289 -2.13591 92.0012 -2.12114C91.6006 -2.12114 91.239 -2.12114 90.7895 -2.12114C90.6171 -2.13345 90.444 -2.13345 90.2716 -2.12114H56.5102C55.3893 -2.12872 54.2747 -2.28971 53.1976 -2.59964C51.5106 -3.18413 49.9563 -4.09688 48.6244 -5.28517C47.4629 -6.35672 46.536 -7.65695 45.902 -9.104C45.268 -10.5511 44.9406 -12.1136 44.9404 -13.6933V-30.4607C44.969 -30.599 44.9853 -30.7395 44.9893 -30.8806C44.9918 -31.0609 44.9754 -31.2409 44.9404 -31.4177Z" fill="#EAEAEA" fill-opacity="0.2"/>
<path d="M160.14 -59.9331H56.559C51.4163 -59.9202 46.4887 -57.8688 42.8576 -54.2291C39.2266 -50.5894 37.1888 -45.6588 37.1914 -40.5192V-13.6933C37.1949 -11.0474 37.7423 -8.43051 38.7996 -6.0048C39.8569 -3.57909 41.4016 -1.39632 43.3379 0.408157L43.4649 0.525341C45.4788 2.32373 47.8213 3.7164 50.3638 4.62685L50.6862 4.76358C52.5819 5.36728 54.5597 5.67365 56.5493 5.67177H92.0403C100.851 5.66924 109.437 8.45152 116.57 13.6206C123.703 18.7897 129.017 26.0807 131.753 34.4508C131.967 35.133 132.365 35.7432 132.903 36.215C133.44 36.6868 134.097 37.0021 134.802 37.1266C134.906 37.1362 135.01 37.1362 135.114 37.1266H135.495C136.082 37.1246 136.661 36.9952 137.192 36.7473C137.724 36.4994 138.195 36.139 138.573 35.691L175.257 -10.1093C178.042 -13.5687 179.559 -17.8762 179.556 -22.3163V-40.5192C179.557 -43.0682 179.056 -45.5925 178.081 -47.9479C177.106 -50.3032 175.676 -52.4434 173.873 -54.2463C172.07 -56.0492 169.929 -57.4794 167.572 -58.4551C165.216 -59.4309 162.69 -59.9331 160.14 -59.9331ZM44.9404 -31.4177V-40.5192C44.9378 -43.5911 46.1544 -46.5385 48.3233 -48.7152C50.4922 -50.8919 53.4364 -52.1201 56.5102 -52.1305H160.14C163.216 -52.1227 166.164 -50.8959 168.336 -48.7193C170.509 -46.5426 171.729 -43.5936 171.729 -40.5192V-22.2967C171.694 -19.6384 170.772 -17.0678 169.11 -14.9921L136.56 25.6618C132.491 17.3185 126.153 10.2882 118.273 5.37503C110.394 0.461842 101.289 -2.13591 92.0012 -2.12114C91.6006 -2.12114 91.239 -2.12114 90.7895 -2.12114C90.6171 -2.13345 90.444 -2.13345 90.2716 -2.12114H56.5102C55.3893 -2.12872 54.2747 -2.28971 53.1976 -2.59964C51.5106 -3.18413 49.9563 -4.09688 48.6244 -5.28517C47.4629 -6.35672 46.536 -7.65695 45.902 -9.104C45.268 -10.5511 44.9406 -12.1136 44.9404 -13.6933V-30.4607C44.969 -30.599 44.9853 -30.7395 44.9893 -30.8806C44.9918 -31.0609 44.9754 -31.2409 44.9404 -31.4177Z" fill="#EAEAEA" fill-opacity="0.2"/>
<path d="M84.6532 23.417C75.8433 23.4025 67.3845 26.7011 61.1202 32.5939C54.856 38.4868 51.2941 46.4961 51.2109 54.8765V55.4763C51.2481 61.8693 53.3138 68.1026 57.1378 73.3599C60.9618 78.6172 66.3656 82.6533 72.6417 84.9398C78.9177 87.2262 85.7732 87.6564 92.3106 86.1739C98.8479 84.6914 104.762 81.3653 109.279 76.6314C109.437 76.5028 109.515 76.3957 109.493 76.3957L109.684 76.1708L109.786 76.053L109.909 75.9244L111.812 73.6215C111.968 73.4934 112.104 73.3456 112.218 73.1823C115.661 68.4073 117.668 62.8283 118.023 57.0475C118.377 51.2668 117.065 45.5037 114.227 40.3805C111.39 35.2573 107.136 30.9685 101.924 27.9771C96.7122 24.9856 90.7404 23.4052 84.6532 23.4063V23.417ZM102.669 70.8579C99.3644 74.3042 95.0461 76.7247 90.2757 77.8049C85.5053 78.885 80.5036 78.5748 75.921 76.9145C71.3385 75.2542 67.3871 72.3207 64.5807 68.4954C61.7743 64.6701 60.2427 60.13 60.1852 55.4656V54.9622C60.3487 48.8754 63.013 43.092 67.6066 38.852C72.2002 34.6121 78.3574 32.2532 84.7578 32.2812C91.1583 32.3093 97.2924 34.722 101.845 39.002C106.397 43.282 109.005 49.0885 109.11 55.1764C109.111 59.8248 107.635 64.3649 104.876 68.2015L102.849 70.6223L102.692 70.8472L102.669 70.8579Z" fill="#EAEAEA" fill-opacity="0.2"/>
<path d="M84.6532 23.417C75.8433 23.4025 67.3845 26.7011 61.1202 32.5939C54.856 38.4868 51.2941 46.4961 51.2109 54.8765V55.4763C51.2481 61.8693 53.3138 68.1026 57.1378 73.3599C60.9618 78.6172 66.3656 82.6533 72.6417 84.9398C78.9177 87.2262 85.7732 87.6564 92.3106 86.1739C98.8479 84.6914 104.762 81.3653 109.279 76.6314C109.437 76.5028 109.515 76.3957 109.493 76.3957L109.684 76.1708L109.786 76.053L109.909 75.9244L111.812 73.6215C111.968 73.4934 112.104 73.3456 112.218 73.1823C115.661 68.4073 117.668 62.8283 118.023 57.0475C118.377 51.2668 117.065 45.5037 114.227 40.3805C111.39 35.2573 107.136 30.9685 101.924 27.9771C96.7122 24.9856 90.7404 23.4052 84.6532 23.4063V23.417ZM102.669 70.8579C99.3644 74.3042 95.0461 76.7247 90.2757 77.8049C85.5053 78.885 80.5036 78.5748 75.921 76.9145C71.3385 75.2542 67.3871 72.3207 64.5807 68.4954C61.7743 64.6701 60.2427 60.13 60.1852 55.4656V54.9622C60.3487 48.8754 63.013 43.092 67.6066 38.852C72.2002 34.6121 78.3574 32.2532 84.7578 32.2812C91.1583 32.3093 97.2924 34.722 101.845 39.002C106.397 43.282 109.005 49.0885 109.11 55.1764C109.111 59.8248 107.635 64.3649 104.876 68.2015L102.849 70.6223L102.692 70.8472L102.669 70.8579Z" fill="#EAEAEA" fill-opacity="0.2"/>
<path d="M18.7079 73.0176H-85.6575C-90.8393 73.0045 -95.8042 70.9303 -99.4627 67.2502C-103.121 63.57 -105.174 58.5846 -105.172 53.388V26.264C-105.168 23.5887 -104.617 20.9427 -103.551 18.4901C-102.486 16.0374 -100.93 13.8304 -98.9789 12.0059L-98.8509 11.8874C-96.8217 10.069 -94.4614 8.66086 -91.8997 7.74029L-91.5748 7.60204C-89.6648 6.99163 -87.672 6.68186 -85.6674 6.68376H-49.9074C-41.0299 6.68631 -32.3789 3.87312 -25.192 -1.35339C-18.0051 -6.5799 -12.6505 -13.952 -9.89415 -22.415C-9.67806 -23.1048 -9.27736 -23.7218 -8.73569 -24.1988C-8.19402 -24.6759 -7.53217 -24.9947 -6.82227 -25.1205C-6.71747 -25.1303 -6.61202 -25.1303 -6.50723 -25.1205H-6.12322C-5.53225 -25.1185 -4.94878 -24.9877 -4.41325 -24.7371C-3.87772 -24.4864 -3.40294 -24.122 -3.0218 -23.669L33.9393 22.6402C36.7456 26.138 38.2743 30.4933 38.2714 34.9828V53.388C38.2727 55.9653 37.7677 58.5176 36.7851 60.8992C35.8025 63.2807 34.3616 65.4447 32.5449 67.2676C30.7281 69.0905 28.571 70.5366 26.1968 71.5232C23.8226 72.5098 21.2778 73.0176 18.7079 73.0176ZM-97.3642 44.1854V53.388C-97.3668 56.494 -96.141 59.4742 -93.9556 61.6751C-91.7703 63.8759 -88.8038 65.1178 -85.7067 65.1282H18.7079C21.8075 65.1204 24.7776 63.88 26.9666 61.6791C29.1557 59.4783 30.385 56.4966 30.3849 53.388V34.963C30.3496 32.2752 29.421 29.676 27.7463 27.5772L-5.05004 -13.5284C-9.1507 -5.09237 -15.536 2.01602 -23.4756 6.9838C-31.4152 11.9516 -40.5887 14.5782 -49.9468 14.5633C-50.3505 14.5633 -50.7148 14.5633 -51.1677 14.5633C-51.3414 14.5757 -51.5158 14.5757 -51.6895 14.5633H-85.7067C-86.8361 14.5709 -87.9591 14.7337 -89.0445 15.0471C-90.7442 15.6381 -92.3103 16.561 -93.6523 17.7624C-94.8225 18.8459 -95.7565 20.1606 -96.3953 21.6237C-97.0341 23.0868 -97.364 24.6667 -97.3642 26.264V43.2177C-97.3354 43.3575 -97.3189 43.4996 -97.3149 43.6423C-97.3124 43.8246 -97.3289 44.0066 -97.3642 44.1854Z" fill="#EAEAEA" fill-opacity="0.2"/>
<path d="M18.7079 73.0176H-85.6575C-90.8393 73.0045 -95.8042 70.9303 -99.4627 67.2502C-103.121 63.57 -105.174 58.5846 -105.172 53.388V26.264C-105.168 23.5887 -104.617 20.9427 -103.551 18.4901C-102.486 16.0374 -100.93 13.8304 -98.9789 12.0059L-98.8509 11.8874C-96.8217 10.069 -94.4614 8.66086 -91.8997 7.74029L-91.5748 7.60204C-89.6648 6.99163 -87.672 6.68186 -85.6674 6.68376H-49.9074C-41.0299 6.68631 -32.3789 3.87312 -25.192 -1.35339C-18.0051 -6.5799 -12.6505 -13.952 -9.89415 -22.415C-9.67806 -23.1048 -9.27736 -23.7218 -8.73569 -24.1988C-8.19402 -24.6759 -7.53217 -24.9947 -6.82227 -25.1205C-6.71747 -25.1303 -6.61202 -25.1303 -6.50723 -25.1205H-6.12322C-5.53225 -25.1185 -4.94878 -24.9877 -4.41325 -24.7371C-3.87772 -24.4864 -3.40294 -24.122 -3.0218 -23.669L33.9393 22.6402C36.7456 26.138 38.2743 30.4933 38.2714 34.9828V53.388C38.2727 55.9653 37.7677 58.5176 36.7851 60.8992C35.8025 63.2807 34.3616 65.4447 32.5449 67.2676C30.7281 69.0905 28.571 70.5366 26.1968 71.5232C23.8226 72.5098 21.2778 73.0176 18.7079 73.0176ZM-97.3642 44.1854V53.388C-97.3668 56.494 -96.141 59.4742 -93.9556 61.6751C-91.7703 63.8759 -88.8038 65.1178 -85.7067 65.1282H18.7079C21.8075 65.1204 24.7776 63.88 26.9666 61.6791C29.1557 59.4783 30.385 56.4966 30.3849 53.388V34.963C30.3496 32.2752 29.421 29.676 27.7463 27.5772L-5.05004 -13.5284C-9.1507 -5.09237 -15.536 2.01602 -23.4756 6.9838C-31.4152 11.9516 -40.5887 14.5782 -49.9468 14.5633C-50.3505 14.5633 -50.7148 14.5633 -51.1677 14.5633C-51.3414 14.5757 -51.5158 14.5757 -51.6895 14.5633H-85.7067C-86.8361 14.5709 -87.9591 14.7337 -89.0445 15.0471C-90.7442 15.6381 -92.3103 16.561 -93.6523 17.7624C-94.8225 18.8459 -95.7565 20.1606 -96.3953 21.6237C-97.0341 23.0868 -97.364 24.6667 -97.3642 26.264V43.2177C-97.3354 43.3575 -97.3189 43.4996 -97.3149 43.6423C-97.3124 43.8246 -97.3289 44.0066 -97.3642 44.1854Z" fill="#EAEAEA" fill-opacity="0.2"/>
<path d="M69.9319 247H172.893C178.005 247.013 182.903 249.064 186.512 252.703C190.121 256.342 192.146 261.272 192.143 266.41L192.141 293.231C192.137 295.876 191.593 298.493 190.542 300.918C189.491 303.343 187.955 305.526 186.03 307.33L185.904 307.447C183.902 309.245 181.573 310.637 179.046 311.548L178.726 311.684C176.841 312.288 174.875 312.594 172.898 312.592H137.619C128.861 312.59 120.326 315.372 113.235 320.54C106.145 325.708 100.862 332.997 98.1418 341.366C97.9286 342.048 97.5332 342.658 96.9988 343.13C96.4644 343.602 95.8114 343.917 95.1111 344.041C95.0077 344.051 94.9037 344.051 94.8003 344.041H94.4214C93.8384 344.039 93.2628 343.91 92.7345 343.662C92.2062 343.414 91.7378 343.054 91.3619 342.606L54.9017 296.814C52.1334 293.356 50.6256 289.049 50.6287 284.61L50.6301 266.41C50.629 263.862 51.1275 261.338 52.0971 258.983C53.0666 256.628 54.4882 254.488 56.2806 252.686C58.0731 250.883 60.2013 249.453 62.5436 248.478C64.886 247.502 67.3965 247 69.9319 247ZM184.44 275.51L184.44 266.41C184.443 263.339 183.234 260.392 181.078 258.216C178.923 256.039 175.996 254.812 172.941 254.801H69.9313C66.8733 254.809 63.9432 256.035 61.7834 258.212C59.6237 260.388 58.4107 263.336 58.4105 266.41L58.4091 284.629C58.4438 287.287 59.3597 289.857 61.0117 291.932L93.3636 332.579C97.4097 324.237 103.71 317.208 111.543 312.296C119.376 307.383 128.426 304.786 137.658 304.801C138.057 304.801 138.416 304.801 138.863 304.801C139.034 304.789 139.206 304.789 139.378 304.801H172.937C174.051 304.793 175.159 304.632 176.23 304.323C177.907 303.738 179.452 302.826 180.776 301.638C181.93 300.566 182.852 299.266 183.482 297.819C184.113 296.373 184.438 294.81 184.438 293.231L184.44 276.467C184.411 276.329 184.395 276.188 184.391 276.047C184.389 275.867 184.405 275.687 184.44 275.51Z" fill="#EAEAEA" fill-opacity="0.2"/>
<path d="M69.9319 247H172.893C178.005 247.013 182.903 249.064 186.512 252.703C190.121 256.342 192.146 261.272 192.143 266.41L192.141 293.231C192.137 295.876 191.593 298.493 190.542 300.918C189.491 303.343 187.955 305.526 186.03 307.33L185.904 307.447C183.902 309.245 181.573 310.637 179.046 311.548L178.726 311.684C176.841 312.288 174.875 312.594 172.898 312.592H137.619C128.861 312.59 120.326 315.372 113.235 320.54C106.145 325.708 100.862 332.997 98.1418 341.366C97.9286 342.048 97.5332 342.658 96.9988 343.13C96.4644 343.602 95.8114 343.917 95.1111 344.041C95.0077 344.051 94.9037 344.051 94.8003 344.041H94.4214C93.8384 344.039 93.2628 343.91 92.7345 343.662C92.2062 343.414 91.7378 343.054 91.3619 342.606L54.9017 296.814C52.1334 293.356 50.6256 289.049 50.6287 284.61L50.6301 266.41C50.629 263.862 51.1275 261.338 52.0971 258.983C53.0666 256.628 54.4882 254.488 56.2806 252.686C58.0731 250.883 60.2013 249.453 62.5436 248.478C64.886 247.502 67.3965 247 69.9319 247ZM184.44 275.51L184.44 266.41C184.443 263.339 183.234 260.392 181.078 258.216C178.923 256.039 175.996 254.812 172.941 254.801H69.9313C66.8733 254.809 63.9432 256.035 61.7834 258.212C59.6237 260.388 58.4107 263.336 58.4105 266.41L58.4091 284.629C58.4438 287.287 59.3597 289.857 61.0117 291.932L93.3636 332.579C97.4097 324.237 103.71 317.208 111.543 312.296C119.376 307.383 128.426 304.786 137.658 304.801C138.057 304.801 138.416 304.801 138.863 304.801C139.034 304.789 139.206 304.789 139.378 304.801H172.937C174.051 304.793 175.159 304.632 176.23 304.323C177.907 303.738 179.452 302.826 180.776 301.638C181.93 300.566 182.852 299.266 183.482 297.819C184.113 296.373 184.438 294.81 184.438 293.231L184.44 276.467C184.411 276.329 184.395 276.188 184.391 276.047C184.389 275.867 184.405 275.687 184.44 275.51Z" fill="#EAEAEA" fill-opacity="0.2"/>
<path d="M139.949 320.607C148.606 320.592 156.917 323.946 163.071 329.937C169.226 335.929 172.725 344.072 172.806 352.593L172.806 353.203C172.769 359.703 170.739 366.041 166.981 371.386C163.223 376.732 157.914 380.835 151.747 383.16C145.58 385.485 138.844 385.922 132.421 384.415C125.997 382.908 120.187 379.526 115.749 374.713C115.594 374.582 115.517 374.473 115.539 374.473L115.351 374.244L115.251 374.125L115.129 373.994L113.26 371.652C113.107 371.522 112.973 371.372 112.862 371.206C109.478 366.351 107.507 360.678 107.159 354.801C106.812 348.923 108.101 343.063 110.889 337.854C113.677 332.645 117.858 328.285 122.979 325.243C128.1 322.202 133.968 320.595 139.949 320.596L139.949 320.607ZM122.244 368.842C125.491 372.346 129.734 374.808 134.421 375.906C139.108 377.004 144.022 376.689 148.525 375.001C153.028 373.312 156.911 370.33 159.668 366.44C162.426 362.551 163.931 357.935 163.988 353.192L163.988 352.68C163.828 346.492 161.211 340.611 156.698 336.3C152.184 331.989 146.135 329.591 139.846 329.619C133.557 329.648 127.53 332.101 123.056 336.453C118.583 340.804 116.02 346.708 115.917 352.898C115.915 357.624 117.365 362.241 120.075 366.142L122.067 368.603L122.222 368.832L122.244 368.842Z" fill="#EAEAEA" fill-opacity="0.2"/>
<path d="M139.949 320.607C148.606 320.592 156.917 323.946 163.071 329.937C169.226 335.929 172.725 344.072 172.806 352.593L172.806 353.203C172.769 359.703 170.739 366.041 166.981 371.386C163.223 376.732 157.914 380.835 151.747 383.16C145.58 385.485 138.844 385.922 132.421 384.415C125.997 382.908 120.187 379.526 115.749 374.713C115.594 374.582 115.517 374.473 115.539 374.473L115.351 374.244L115.251 374.125L115.129 373.994L113.26 371.652C113.107 371.522 112.973 371.372 112.862 371.206C109.478 366.351 107.507 360.678 107.159 354.801C106.812 348.923 108.101 343.063 110.889 337.854C113.677 332.645 117.858 328.285 122.979 325.243C128.1 322.202 133.968 320.595 139.949 320.596L139.949 320.607ZM122.244 368.842C125.491 372.346 129.734 374.808 134.421 375.906C139.108 377.004 144.022 376.689 148.525 375.001C153.028 373.312 156.911 370.33 159.668 366.44C162.426 362.551 163.931 357.935 163.988 353.192L163.988 352.68C163.828 346.492 161.211 340.611 156.698 336.3C152.184 331.989 146.135 329.591 139.846 329.619C133.557 329.648 127.53 332.101 123.056 336.453C118.583 340.804 116.02 346.708 115.917 352.898C115.915 357.624 117.365 362.241 120.075 366.142L122.067 368.603L122.222 368.832L122.244 368.842Z" fill="#EAEAEA" fill-opacity="0.2"/>
<path d="M13.1662 111.523L12.7925 214.483C12.7869 219.595 14.8201 224.5 18.446 228.122C22.0719 231.745 26.9942 233.788 32.1327 233.803L58.9534 233.899C61.5987 233.905 64.2171 233.37 66.6462 232.327C69.0752 231.285 71.2631 229.757 73.0742 227.839L73.1918 227.713C74.9971 225.718 76.398 223.394 77.3174 220.87L77.4553 220.55C78.0657 218.668 78.3792 216.703 78.3845 214.726L78.5125 179.447C78.5418 170.689 81.3545 162.164 86.5483 155.093C91.7421 148.021 99.0509 142.764 107.429 140.075C108.112 139.864 108.723 139.471 109.197 138.938C109.671 138.405 109.988 137.754 110.115 137.054C110.125 136.95 110.126 136.846 110.116 136.743L110.118 136.364C110.118 135.781 109.991 135.205 109.745 134.676C109.499 134.147 109.14 133.677 108.694 133.299L63.0347 96.6732C59.5861 93.8924 55.2849 92.369 50.8457 92.356L32.6463 92.2913C30.0978 92.281 27.5722 92.7703 25.2138 93.7313C22.8554 94.6923 20.7104 96.1061 18.9014 97.892C17.0924 99.6779 15.6548 101.801 14.6707 104.14C13.6866 106.478 13.1754 108.987 13.1662 111.523ZM41.2604 226.133L32.1607 226.101C29.0894 226.092 26.1469 224.873 23.9785 222.709C21.8101 220.545 20.5927 217.614 20.5935 214.559L20.9673 111.55C20.9862 108.492 22.2233 105.567 24.4074 103.415C26.5915 101.263 29.5443 100.061 32.6181 100.072L50.837 100.136C53.4946 100.181 56.0614 101.106 58.1307 102.765L98.6592 135.265C90.3029 139.28 83.2511 145.555 78.3105 153.37C73.3698 161.185 70.7397 170.226 70.721 179.458C70.7195 179.857 70.7182 180.216 70.7166 180.663C70.7037 180.834 70.7031 181.006 70.7147 181.178L70.5929 214.737C70.5813 215.851 70.4163 216.958 70.1026 218.028C69.5121 219.703 68.594 221.244 67.4011 222.564C66.3256 223.715 65.0222 224.631 63.5732 225.257C62.1241 225.882 60.5607 226.201 58.9813 226.196L42.2172 226.136C42.0791 226.108 41.9386 226.091 41.7975 226.086C41.6173 226.083 41.4373 226.099 41.2604 226.133Z" fill="#EAEAEA" fill-opacity="0.2"/>
<path d="M86.1184 185.975C86.0723 194.631 89.396 202.954 95.3652 209.131C101.334 215.307 109.465 218.836 117.986 218.948L118.595 218.95C125.096 218.936 131.441 216.929 136.8 213.191C142.159 209.453 146.282 204.158 148.629 197.999C150.976 191.841 151.438 185.107 149.954 178.678C148.47 172.249 145.109 166.426 140.312 161.971C140.182 161.816 140.073 161.738 140.073 161.76L139.845 161.571L139.726 161.471L139.595 161.349L137.261 159.471C137.131 159.318 136.981 159.183 136.816 159.071C131.973 155.67 126.308 153.678 120.431 153.309C114.555 152.94 108.691 154.209 103.472 156.978C98.2524 159.747 93.8767 163.911 90.8165 169.022C87.7564 174.132 86.1281 179.994 86.1075 185.975L86.1184 185.975ZM134.418 168.445C137.91 171.704 140.356 175.956 141.437 180.647C142.519 185.338 142.185 190.252 140.481 194.748C138.776 199.245 135.78 203.117 131.88 205.86C127.981 208.604 123.359 210.092 118.617 210.132L118.105 210.13C111.917 209.948 106.046 207.309 101.751 202.78C97.4566 198.251 95.0802 192.193 95.1315 185.904C95.1829 179.616 97.6579 173.597 102.026 169.14C106.394 164.682 112.307 162.14 118.497 162.06C123.223 162.075 127.834 163.542 131.725 166.267L134.179 168.267L134.407 168.422L134.418 168.445Z" fill="#EAEAEA" fill-opacity="0.2"/>
<path d="M32.701 369.558L33.0747 266.597C33.0803 261.485 31.0471 256.58 27.4212 252.958C23.7953 249.336 18.873 247.292 13.7345 247.277L-13.0862 247.181C-15.7315 247.176 -18.3499 247.71 -20.779 248.753C-23.208 249.795 -25.3959 251.323 -27.207 253.241L-27.3247 253.367C-29.13 255.362 -30.5308 257.686 -31.4502 260.21L-31.5881 260.53C-32.1985 262.412 -32.512 264.377 -32.5173 266.355L-32.6453 301.633C-32.6746 310.391 -35.4873 318.916 -40.6811 325.987C-45.8749 333.059 -53.1837 338.316 -61.562 341.005C-62.2447 341.216 -62.8563 341.609 -63.33 342.142C-63.8036 342.675 -64.1212 343.326 -64.2482 344.026C-64.2582 344.13 -64.2586 344.234 -64.2493 344.337L-64.2507 344.716C-64.2508 345.299 -64.1235 345.875 -63.8776 346.404C-63.6317 346.933 -63.2731 347.403 -62.8265 347.781L-17.1675 384.407C-13.7189 387.188 -9.41776 388.711 -4.97851 388.724L13.2209 388.789C15.7694 388.799 18.295 388.31 20.6534 387.349C23.0118 386.388 25.1567 384.974 26.9658 383.188C28.7748 381.402 30.2124 379.279 31.1965 376.94C32.1805 374.602 32.6918 372.093 32.701 369.558ZM4.60682 254.947L13.7065 254.979C16.7778 254.988 19.7203 256.207 21.8887 258.371C24.0571 260.535 25.2745 263.466 25.2737 266.521L24.8999 369.53C24.881 372.588 23.6439 375.513 21.4598 377.665C19.2757 379.817 16.3229 381.019 13.2491 381.008L-4.96981 380.944C-7.62745 380.899 -10.1942 379.974 -12.2635 378.315L-52.7921 345.815C-44.4357 341.8 -37.3839 335.525 -32.4433 327.71C-27.5026 319.895 -24.8725 310.854 -24.8538 301.622C-24.8523 301.224 -24.851 300.864 -24.8494 300.417C-24.8365 300.246 -24.8359 300.074 -24.8476 299.903L-24.7258 266.343C-24.7141 265.229 -24.5492 264.122 -24.2354 263.052C-23.6449 261.378 -22.7268 259.836 -21.5339 258.516C-20.4584 257.365 -19.1551 256.449 -17.706 255.824C-16.2569 255.198 -14.6935 254.879 -13.1142 254.884L3.64999 254.944C3.78813 254.972 3.92855 254.989 4.06964 254.994C4.24984 254.997 4.42989 254.981 4.60682 254.947Z" fill="#EAEAEA" fill-opacity="0.2"/>
<path d="M32.701 369.558L33.0747 266.597C33.0803 261.485 31.0471 256.58 27.4212 252.958C23.7953 249.336 18.873 247.292 13.7345 247.277L-13.0862 247.181C-15.7315 247.176 -18.3499 247.71 -20.779 248.753C-23.208 249.795 -25.3959 251.323 -27.207 253.241L-27.3247 253.367C-29.13 255.362 -30.5308 257.686 -31.4502 260.21L-31.5881 260.53C-32.1985 262.412 -32.512 264.377 -32.5173 266.355L-32.6453 301.633C-32.6746 310.391 -35.4873 318.916 -40.6811 325.987C-45.8749 333.059 -53.1837 338.316 -61.562 341.005C-62.2447 341.216 -62.8563 341.609 -63.33 342.142C-63.8036 342.675 -64.1212 343.326 -64.2482 344.026C-64.2582 344.13 -64.2586 344.234 -64.2493 344.337L-64.2507 344.716C-64.2508 345.299 -64.1235 345.875 -63.8776 346.404C-63.6317 346.933 -63.2731 347.403 -62.8265 347.781L-17.1675 384.407C-13.7189 387.188 -9.41776 388.711 -4.97851 388.724L13.2209 388.789C15.7694 388.799 18.295 388.31 20.6534 387.349C23.0118 386.388 25.1567 384.974 26.9658 383.188C28.7748 381.402 30.2124 379.279 31.1965 376.94C32.1805 374.602 32.6918 372.093 32.701 369.558ZM4.60682 254.947L13.7065 254.979C16.7778 254.988 19.7203 256.207 21.8887 258.371C24.0571 260.535 25.2745 263.466 25.2737 266.521L24.8999 369.53C24.881 372.588 23.6439 375.513 21.4598 377.665C19.2757 379.817 16.3229 381.019 13.2491 381.008L-4.96981 380.944C-7.62745 380.899 -10.1942 379.974 -12.2635 378.315L-52.7921 345.815C-44.4357 341.8 -37.3839 335.525 -32.4433 327.71C-27.5026 319.895 -24.8725 310.854 -24.8538 301.622C-24.8523 301.224 -24.851 300.864 -24.8494 300.417C-24.8365 300.246 -24.8359 300.074 -24.8476 299.903L-24.7258 266.343C-24.7141 265.229 -24.5492 264.122 -24.2354 263.052C-23.6449 261.378 -22.7268 259.836 -21.5339 258.516C-20.4584 257.365 -19.1551 256.449 -17.706 255.824C-16.2569 255.198 -14.6935 254.879 -13.1142 254.884L3.64999 254.944C3.78813 254.972 3.92855 254.989 4.06964 254.994C4.24984 254.997 4.42989 254.981 4.60682 254.947Z" fill="#EAEAEA" fill-opacity="0.2"/>
</g>
</svg>
