<svg width="494" height="366" viewBox="0 0 494 366" fill="none" xmlns="http://www.w3.org/2000/svg">
<path d="M276.764 191.111H383.223C388.509 191.098 393.573 188.984 397.305 185.233C401.037 181.482 403.132 176.4 403.129 171.104V143.457C403.125 140.731 402.563 138.034 401.476 135.534C400.389 133.034 398.802 130.784 396.812 128.925L396.681 128.804C394.611 126.95 392.204 125.515 389.591 124.577L389.259 124.436C387.311 123.814 385.278 123.498 383.233 123.5H346.756C337.7 123.503 328.876 120.635 321.545 115.308C314.214 109.981 308.752 102.467 305.94 93.8408C305.719 93.1377 305.311 92.5089 304.758 92.0226C304.206 91.5364 303.531 91.2114 302.806 91.0832C302.7 91.0732 302.592 91.0732 302.485 91.0832H302.093C301.491 91.0852 300.895 91.2186 300.349 91.474C299.803 91.7295 299.318 92.1009 298.93 92.5626L261.227 139.764C258.365 143.329 256.805 147.768 256.808 152.344V171.104C256.807 173.731 257.322 176.332 258.324 178.76C259.327 181.187 260.796 183.393 262.65 185.251C264.503 187.109 266.703 188.583 269.125 189.588C271.547 190.594 274.143 191.111 276.764 191.111ZM395.165 161.724V171.104C395.167 174.269 393.917 177.307 391.688 179.55C389.458 181.794 386.432 183.059 383.273 183.07H276.764C273.602 183.062 270.573 181.798 268.34 179.555C266.107 177.311 264.853 174.272 264.853 171.104V152.324C264.889 149.584 265.836 146.935 267.544 144.796L300.999 102.899C305.182 111.497 311.695 118.742 319.794 123.806C327.893 128.869 337.25 131.546 346.796 131.531C347.208 131.531 347.579 131.531 348.041 131.531C348.219 131.544 348.397 131.544 348.574 131.531H383.273C384.425 131.539 385.571 131.705 386.678 132.024C388.412 132.627 390.009 133.567 391.378 134.792C392.572 135.896 393.525 137.236 394.176 138.728C394.828 140.219 395.164 141.829 395.165 143.457V160.738C395.135 160.88 395.118 161.025 395.114 161.17C395.112 161.356 395.129 161.542 395.165 161.724Z" fill="#EAEAEA" fill-opacity="0.2"/>
<path d="M360.57 108.983C369.422 108.998 377.921 105.515 384.215 99.2931C390.509 93.071 394.088 84.6142 394.172 75.7656V75.1322C394.135 68.3821 392.059 61.8005 388.217 56.2494C384.374 50.6984 378.945 46.4367 372.639 44.0225C366.333 41.6083 359.444 41.1542 352.876 42.7195C346.307 44.2848 340.365 47.7967 335.826 52.7952C335.668 52.9309 335.589 53.044 335.611 53.044L335.419 53.2815L335.317 53.4059L335.193 53.5416L333.281 55.9732C333.124 56.1085 332.987 56.2645 332.873 56.437C329.413 61.4787 327.397 67.3694 327.041 73.4732C326.685 79.577 328.003 85.662 330.854 91.0715C333.705 96.4809 337.979 101.009 343.216 104.168C348.453 107.327 354.453 108.995 360.57 108.994V108.983ZM342.467 58.8912C345.788 55.2524 350.127 52.6966 354.92 51.5561C359.714 50.4156 364.739 50.7432 369.344 52.4962C373.948 54.2493 377.918 57.3467 380.738 61.3857C383.558 65.4248 385.097 70.2185 385.155 75.1435V75.6751C384.99 82.1019 382.313 88.2085 377.698 92.6854C373.082 97.1622 366.896 99.6529 360.465 99.6233C354.033 99.5937 347.87 97.0462 343.296 92.527C338.722 88.0079 336.101 81.877 335.996 75.4489C335.995 70.5408 337.478 65.747 340.25 61.6961L342.286 59.14L342.445 58.9025L342.467 58.8912Z" fill="#EAEAEA" fill-opacity="0.2"/>
<path d="M547.412 0H440.953C435.667 0.0133278 430.602 2.12747 426.871 5.87848C423.139 9.62948 421.044 14.7109 421.047 20.0076V47.654C421.05 50.3808 421.613 53.0778 422.7 55.5777C423.786 58.0776 425.374 60.3271 427.364 62.1868L427.495 62.3075C429.565 64.1609 431.972 65.5962 434.585 66.5345L434.917 66.6754C436.865 67.2975 438.898 67.6133 440.943 67.6113H477.42C486.476 67.6087 495.3 70.4761 502.631 75.8033C509.962 81.1305 515.424 88.6445 518.236 97.2706C518.456 97.9736 518.865 98.6025 519.418 99.0887C519.97 99.575 520.645 99.8999 521.369 100.028C521.476 100.038 521.584 100.038 521.691 100.028H522.082C522.685 100.026 523.28 99.8928 523.827 99.6373C524.373 99.3818 524.857 99.0104 525.246 98.5487L562.949 51.3476C565.811 47.7824 567.371 43.3432 567.368 38.7673V20.0076C567.369 17.3807 566.854 14.7792 565.851 12.3518C564.849 9.92443 563.379 7.71872 561.526 5.86071C559.673 4.0027 557.473 2.52878 555.051 1.52318C552.629 0.517574 550.033 -3.32682e-07 547.412 0ZM429.011 29.3875V20.0076C429.009 16.8419 430.259 13.8042 432.488 11.561C434.717 9.31771 437.743 8.05195 440.902 8.04129H547.412C550.573 8.04929 553.603 9.31355 555.836 11.5568C558.069 13.8001 559.323 16.8392 559.323 20.0076V38.7875C559.287 41.5271 558.34 44.1763 556.631 46.3155L523.177 88.2128C518.994 79.6143 512.481 72.369 504.382 67.3055C496.283 62.2421 486.926 59.5649 477.38 59.5801C476.968 59.5801 476.596 59.5801 476.134 59.5801C475.957 59.5674 475.779 59.5674 475.602 59.5801H440.902C439.75 59.5723 438.605 59.4064 437.498 59.087C435.764 58.4846 434.166 57.5439 432.798 56.3193C431.604 55.215 430.651 53.875 430 52.3837C429.348 50.8924 429.011 49.282 429.011 47.654V30.3738C429.041 30.2313 429.057 30.0865 429.061 29.941C429.064 29.7553 429.047 29.5697 429.011 29.3875Z" fill="#EAEAEA" fill-opacity="0.2"/>
<path d="M463.606 82.1305C454.754 82.1151 446.255 85.5981 439.961 91.8202C433.666 98.0423 430.087 106.499 430.004 115.348V115.981C430.041 122.731 432.117 129.313 435.959 134.864C439.801 140.415 445.231 144.677 451.537 147.091C457.843 149.505 464.731 149.959 471.3 148.394C477.869 146.828 483.811 143.317 488.35 138.318C488.508 138.182 488.587 138.069 488.565 138.069L488.757 137.832L488.859 137.707L488.983 137.572L490.895 135.14C491.052 135.005 491.189 134.849 491.303 134.676C494.762 129.635 496.779 123.744 497.135 117.64C497.491 111.536 496.172 105.451 493.322 100.042C490.471 94.6324 486.197 90.1039 480.96 86.9454C475.723 83.7868 469.722 82.118 463.606 82.1191V82.1305ZM481.708 132.222C478.388 135.861 474.049 138.417 469.255 139.557C464.462 140.698 459.437 140.37 454.832 138.617C450.228 136.864 446.257 133.767 443.438 129.728C440.618 125.689 439.079 120.895 439.021 115.97V115.438C439.185 109.011 441.862 102.905 446.478 98.4279C451.094 93.9511 457.28 91.4604 463.711 91.49C470.142 91.5196 476.306 94.0671 480.88 98.5862C485.454 103.105 488.075 109.236 488.18 115.664C488.181 120.572 486.698 125.366 483.926 129.417L481.889 131.973L481.731 132.211L481.708 132.222Z" fill="#EAEAEA" fill-opacity="0.2"/>
<path d="M271.982 31H165.523C160.237 31.0133 155.173 33.1275 151.441 36.8785C147.709 40.6295 145.615 45.7109 145.617 51.0076V78.654C145.621 81.3808 146.183 84.0778 147.27 86.5777C148.357 89.0776 149.944 91.3271 151.934 93.1868L152.065 93.3075C154.135 95.1609 156.542 96.5962 159.156 97.5345L159.487 97.6754C161.435 98.2975 163.468 98.6133 165.513 98.6113H201.99C211.046 98.6087 219.87 101.476 227.201 106.803C234.533 112.13 239.995 119.645 242.806 128.271C243.027 128.974 243.435 129.602 243.988 130.089C244.54 130.575 245.216 130.9 245.94 131.028C246.047 131.038 246.154 131.038 246.261 131.028H246.653C247.256 131.026 247.851 130.893 248.397 130.637C248.943 130.382 249.428 130.01 249.816 129.549L287.519 82.3476C290.382 78.7824 291.941 74.3432 291.938 69.7673V51.0076C291.939 48.3807 291.424 45.7792 290.422 43.3518C289.419 40.9244 287.95 38.7187 286.097 36.8607C284.243 35.0027 282.043 33.5288 279.621 32.5232C277.199 31.5176 274.603 31 271.982 31ZM153.582 60.3875V51.0076C153.579 47.8419 154.829 44.8042 157.058 42.561C159.288 40.3177 162.314 39.052 165.473 39.0413H271.982C275.144 39.0493 278.173 40.3135 280.406 42.5568C282.639 44.8001 283.893 47.8392 283.893 51.0076V69.7875C283.857 72.5271 282.91 75.1763 281.202 77.3155L247.747 119.213C243.565 110.614 237.051 103.369 228.952 98.3055C220.853 93.2421 211.496 90.5649 201.95 90.5801C201.538 90.5801 201.167 90.5801 200.705 90.5801C200.527 90.5674 200.35 90.5674 200.172 90.5801H165.473C164.321 90.5723 163.175 90.4064 162.068 90.087C160.334 89.4846 158.737 88.5439 157.368 87.3193C156.174 86.215 155.221 84.875 154.57 83.3837C153.918 81.8924 153.582 80.282 153.582 78.654V61.3738C153.611 61.2313 153.628 61.0865 153.632 60.941C153.634 60.7553 153.618 60.5697 153.582 60.3875Z" fill="#EAEAEA" fill-opacity="0.2"/>
<path d="M188.176 113.13C179.324 113.115 170.825 116.598 164.531 122.82C158.237 129.042 154.658 137.499 154.574 146.348V146.981C154.612 153.731 156.687 160.313 160.529 165.864C164.372 171.415 169.801 175.677 176.107 178.091C182.413 180.505 189.302 180.959 195.87 179.394C202.439 177.828 208.382 174.317 212.92 169.318C213.078 169.182 213.157 169.069 213.135 169.069L213.327 168.832L213.429 168.707L213.553 168.572L215.465 166.14C215.622 166.005 215.759 165.849 215.873 165.676C219.333 160.635 221.35 154.744 221.705 148.64C222.061 142.536 220.743 136.451 217.892 131.042C215.041 125.632 210.767 121.104 205.53 117.945C200.293 114.787 194.293 113.118 188.176 113.119V113.13ZM206.279 163.222C202.958 166.861 198.619 169.417 193.826 170.557C189.033 171.698 184.007 171.37 179.403 169.617C174.798 167.864 170.828 164.767 168.008 160.728C165.188 156.689 163.649 151.895 163.591 146.97V146.438C163.756 140.011 166.433 133.905 171.048 129.428C175.664 124.951 181.85 122.46 188.282 122.49C194.713 122.52 200.876 125.067 205.45 129.586C210.024 134.105 212.645 140.236 212.75 146.664C212.751 151.572 211.268 156.366 208.496 160.417L206.46 162.973L206.301 163.211L206.279 163.222Z" fill="#EAEAEA" fill-opacity="0.2"/>
<path d="M19.9556 400.143H126.414C131.7 400.129 136.765 398.015 140.497 394.264C144.229 390.513 146.323 385.432 146.32 380.135V352.489C146.317 349.762 145.754 347.065 144.667 344.565C143.581 342.065 141.993 339.815 140.003 337.956L139.873 337.835C137.803 335.982 135.395 334.546 132.782 333.608L132.451 333.467C130.502 332.845 128.469 332.529 126.425 332.531H89.9473C80.8916 332.534 72.0671 329.666 64.736 324.339C57.4049 319.012 51.9429 311.498 49.1313 302.872C48.9109 302.169 48.5022 301.54 47.9496 301.054C47.3971 300.568 46.722 300.243 45.9978 300.114C45.8909 300.104 45.7834 300.104 45.6765 300.114H45.2848C44.6819 300.116 44.0868 300.25 43.5405 300.505C42.9942 300.761 42.5099 301.132 42.1211 301.594L4.41858 348.795C1.556 352.36 -0.00334167 356.799 -0.000457764 361.375V380.135C-0.00178528 382.762 0.513428 385.363 1.51572 387.791C2.51801 390.218 3.98775 392.424 5.84097 394.282C7.6942 396.14 9.89456 397.614 12.3164 398.619C14.7382 399.625 17.334 400.143 19.9556 400.143ZM138.356 370.755V380.135C138.359 383.301 137.108 386.338 134.879 388.582C132.65 390.825 129.624 392.091 126.465 392.101H19.9556C16.7937 392.093 13.7641 390.829 11.5311 388.586C9.29817 386.343 8.04422 383.303 8.04422 380.135V361.355C8.08031 358.616 9.02751 355.966 10.7358 353.827L44.19 311.93C48.373 320.528 54.8863 327.774 62.9852 332.837C71.0841 337.901 80.4416 340.578 89.9875 340.562C90.3992 340.562 90.7708 340.562 91.2328 340.562C91.41 340.575 91.5879 340.575 91.7651 340.562H126.465C127.617 340.57 128.762 340.736 129.869 341.056C131.603 341.658 133.201 342.599 134.57 343.823C135.763 344.928 136.716 346.268 137.368 347.759C138.019 349.25 138.356 350.861 138.356 352.489V369.769C138.327 369.911 138.31 370.056 138.306 370.202C138.303 370.387 138.32 370.573 138.356 370.755Z" fill="#EAEAEA" fill-opacity="0.2"/>
<path d="M103.761 318.012C112.613 318.027 121.112 314.545 127.407 308.322C133.701 302.1 137.28 293.643 137.363 284.795V284.162C137.326 277.411 135.25 270.83 131.408 265.279C127.566 259.728 122.136 255.466 115.83 253.052C109.524 250.638 102.636 250.183 96.0671 251.749C89.4985 253.314 83.5559 256.826 79.0176 261.824C78.8592 261.96 78.78 262.073 78.8027 262.073L78.6103 262.311L78.5085 262.435L78.384 262.571L76.472 265.003C76.3157 265.138 76.1786 265.294 76.0647 265.466C72.6047 270.508 70.5879 276.399 70.2321 282.503C69.8762 288.606 71.1947 294.691 74.0454 300.101C76.896 305.51 81.1705 310.039 86.4075 313.197C91.6444 316.356 97.6448 318.025 103.761 318.023V318.012ZM85.6589 267.92C88.9795 264.282 93.3185 261.726 98.1117 260.585C102.905 259.445 107.931 259.772 112.535 261.526C117.139 263.279 121.11 266.376 123.93 270.415C126.749 274.454 128.288 279.248 128.346 284.173V284.704C128.182 291.131 125.505 297.238 120.889 301.715C116.274 306.192 110.087 308.682 103.656 308.653C97.2248 308.623 91.0614 306.075 86.4872 301.556C81.9131 297.037 79.2925 290.906 79.1873 284.478C79.1864 279.57 80.6692 274.776 83.4413 270.725L85.4778 268.169L85.6362 267.932L85.6589 267.92Z" fill="#EAEAEA" fill-opacity="0.2"/>
<path d="M290.603 209.029H184.144C178.858 209.043 173.794 211.157 170.062 214.908C166.33 218.659 164.236 223.74 164.238 229.037V256.683C164.242 259.41 164.804 262.107 165.891 264.607C166.978 267.107 168.565 269.356 170.556 271.216L170.686 271.337C172.756 273.19 175.164 274.625 177.777 275.564L178.108 275.705C180.056 276.327 182.089 276.643 184.134 276.641H220.611C229.667 276.638 238.492 279.505 245.823 284.833C253.154 290.16 258.616 297.674 261.427 306.3C261.648 307.003 262.056 307.632 262.609 308.118C263.162 308.604 263.837 308.929 264.561 309.057C264.668 309.067 264.775 309.067 264.882 309.057H265.274C265.877 309.055 266.472 308.922 267.018 308.667C267.564 308.411 268.049 308.04 268.437 307.578L306.14 260.377C309.003 256.812 310.562 252.373 310.559 247.797V229.037C310.56 226.41 310.045 223.808 309.043 221.381C308.041 218.954 306.571 216.748 304.718 214.89C302.864 213.032 300.664 211.558 298.242 210.552C295.82 209.547 293.225 209.029 290.603 209.029ZM172.203 238.417V229.037C172.2 225.871 173.45 222.834 175.68 220.59C177.909 218.347 180.935 217.081 184.094 217.071H290.603C293.765 217.079 296.795 218.343 299.027 220.586C301.26 222.829 302.514 225.868 302.514 229.037V247.817C302.478 250.556 301.531 253.206 299.823 255.345L266.369 297.242C262.186 288.644 255.672 281.398 247.573 276.335C239.474 271.271 230.117 268.594 220.571 268.609C220.159 268.609 219.788 268.609 219.326 268.609C219.149 268.597 218.971 268.597 218.793 268.609H184.094C182.942 268.602 181.796 268.436 180.689 268.116C178.955 267.514 177.358 266.573 175.989 265.349C174.795 264.244 173.843 262.904 173.191 261.413C172.539 259.922 172.203 258.311 172.203 256.683V239.403C172.232 239.261 172.249 239.116 172.253 238.97C172.255 238.785 172.239 238.599 172.203 238.417Z" fill="#EAEAEA" fill-opacity="0.2"/>
<path d="M206.798 291.16C197.945 291.144 189.446 294.627 183.152 300.849C176.858 307.072 173.279 315.528 173.195 324.377V325.01C173.233 331.761 175.308 338.342 179.151 343.893C182.993 349.444 188.423 353.706 194.729 356.12C201.035 358.534 207.923 358.988 214.491 357.423C221.06 355.858 227.003 352.346 231.541 347.347C231.699 347.212 231.779 347.099 231.756 347.099L231.948 346.861L232.05 346.737L232.175 346.601L234.087 344.169C234.243 344.034 234.38 343.878 234.494 343.706C237.954 338.664 239.971 332.773 240.327 326.669C240.682 320.566 239.364 314.481 236.513 309.071C233.663 303.662 229.388 299.133 224.151 295.975C218.914 292.816 212.914 291.147 206.798 291.148V291.16ZM224.9 341.251C221.579 344.89 217.24 347.446 212.447 348.586C207.654 349.727 202.628 349.399 198.024 347.646C193.419 345.893 189.449 342.796 186.629 338.757C183.809 334.718 182.27 329.924 182.212 324.999V324.467C182.377 318.041 185.054 311.934 189.669 307.457C194.285 302.98 200.472 300.49 206.903 300.519C213.334 300.549 219.497 303.096 224.071 307.616C228.645 312.135 231.266 318.266 231.371 324.694C231.372 329.602 229.889 334.396 227.117 338.447L225.081 341.003L224.922 341.24L224.9 341.251Z" fill="#EAEAEA" fill-opacity="0.2"/>
<path d="M276.764 400.143H383.223C388.509 400.129 393.573 398.015 397.305 394.264C401.037 390.513 403.132 385.432 403.129 380.135V352.489C403.125 349.762 402.563 347.065 401.476 344.565C400.389 342.065 398.802 339.815 396.812 337.956L396.681 337.835C394.611 335.982 392.204 334.546 389.591 333.608L389.259 333.467C387.311 332.845 385.278 332.529 383.233 332.531H346.756C337.7 332.534 328.876 329.666 321.545 324.339C314.214 319.012 308.752 311.498 305.94 302.872C305.719 302.169 305.311 301.54 304.758 301.054C304.206 300.568 303.531 300.243 302.806 300.114C302.7 300.104 302.592 300.104 302.485 300.114H302.093C301.491 300.116 300.895 300.25 300.349 300.505C299.803 300.761 299.318 301.132 298.93 301.594L261.227 348.795C258.365 352.36 256.805 356.799 256.808 361.375V380.135C256.807 382.762 257.322 385.363 258.324 387.791C259.327 390.218 260.796 392.424 262.65 394.282C264.503 396.14 266.703 397.614 269.125 398.619C271.547 399.625 274.143 400.143 276.764 400.143ZM395.165 370.755V380.135C395.167 383.301 393.917 386.338 391.688 388.582C389.458 390.825 386.432 392.091 383.273 392.101H276.764C273.602 392.093 270.573 390.829 268.34 388.586C266.107 386.343 264.853 383.303 264.853 380.135V361.355C264.889 358.616 265.836 355.966 267.544 353.827L300.999 311.93C305.182 320.528 311.695 327.774 319.794 332.837C327.893 337.901 337.25 340.578 346.796 340.562C347.208 340.562 347.579 340.562 348.041 340.562C348.219 340.575 348.397 340.575 348.574 340.562H383.273C384.425 340.57 385.571 340.736 386.678 341.056C388.412 341.658 390.009 342.599 391.378 343.823C392.572 344.928 393.525 346.268 394.176 347.759C394.828 349.25 395.164 350.861 395.165 352.489V369.769C395.135 369.911 395.118 370.056 395.114 370.202C395.112 370.387 395.129 370.573 395.165 370.755Z" fill="#EAEAEA" fill-opacity="0.2"/>
<path d="M360.57 318.012C369.422 318.027 377.921 314.545 384.215 308.322C390.509 302.1 394.088 293.643 394.172 284.795V284.162C394.135 277.411 392.059 270.83 388.217 265.279C384.374 259.728 378.945 255.466 372.639 253.052C366.333 250.638 359.444 250.183 352.876 251.749C346.307 253.314 340.365 256.826 335.826 261.824C335.668 261.96 335.589 262.073 335.611 262.073L335.419 262.311L335.317 262.435L335.193 262.571L333.281 265.003C333.124 265.138 332.987 265.294 332.873 265.466C329.413 270.508 327.397 276.399 327.041 282.503C326.685 288.606 328.003 294.691 330.854 300.101C333.705 305.51 337.979 310.039 343.216 313.197C348.453 316.356 354.453 318.025 360.57 318.023V318.012ZM342.467 267.92C345.788 264.282 350.127 261.726 354.92 260.585C359.714 259.445 364.739 259.772 369.344 261.526C373.948 263.279 377.918 266.376 380.738 270.415C383.558 274.454 385.097 279.248 385.155 284.173V284.704C384.99 291.131 382.313 297.238 377.698 301.715C373.082 306.192 366.896 308.682 360.465 308.653C354.033 308.623 347.87 306.075 343.296 301.556C338.722 297.037 336.101 290.906 335.996 284.478C335.995 279.57 337.478 274.776 340.25 270.725L342.286 268.169L342.445 267.932L342.467 267.92Z" fill="#EAEAEA" fill-opacity="0.2"/>
<path d="M547.412 209.029H440.953C435.667 209.043 430.602 211.157 426.871 214.908C423.139 218.659 421.044 223.74 421.047 229.037V256.683C421.05 259.41 421.613 262.107 422.7 264.607C423.786 267.107 425.374 269.356 427.364 271.216L427.495 271.337C429.565 273.19 431.972 274.625 434.585 275.564L434.917 275.705C436.865 276.327 438.898 276.643 440.943 276.641H477.42C486.476 276.638 495.3 279.505 502.631 284.833C509.962 290.16 515.424 297.674 518.236 306.3C518.456 307.003 518.865 307.632 519.418 308.118C519.97 308.604 520.645 308.929 521.369 309.057C521.476 309.067 521.584 309.067 521.691 309.057H522.082C522.685 309.055 523.28 308.922 523.827 308.667C524.373 308.411 524.857 308.04 525.246 307.578L562.949 260.377C565.811 256.812 567.371 252.373 567.368 247.797V229.037C567.369 226.41 566.854 223.808 565.851 221.381C564.849 218.954 563.379 216.748 561.526 214.89C559.673 213.032 557.473 211.558 555.051 210.552C552.629 209.547 550.033 209.029 547.412 209.029ZM429.011 238.417V229.037C429.009 225.871 430.259 222.834 432.488 220.59C434.717 218.347 437.743 217.081 440.902 217.071H547.412C550.573 217.079 553.603 218.343 555.836 220.586C558.069 222.829 559.323 225.868 559.323 229.037V247.817C559.287 250.556 558.34 253.206 556.631 255.345L523.177 297.242C518.994 288.644 512.481 281.398 504.382 276.335C496.283 271.271 486.926 268.594 477.38 268.609C476.968 268.609 476.596 268.609 476.134 268.609C475.957 268.597 475.779 268.597 475.602 268.609H440.902C439.75 268.602 438.605 268.436 437.498 268.116C435.764 267.514 434.166 266.573 432.798 265.349C431.604 264.244 430.651 262.904 430 261.413C429.348 259.922 429.011 258.311 429.011 256.683V239.403C429.041 239.261 429.057 239.116 429.061 238.97C429.064 238.785 429.047 238.599 429.011 238.417Z" fill="#EAEAEA" fill-opacity="0.2"/>
<path d="M463.606 291.16C454.754 291.144 446.255 294.627 439.961 300.849C433.666 307.072 430.087 315.528 430.004 324.377V325.01C430.041 331.761 432.117 338.342 435.959 343.893C439.801 349.444 445.231 353.706 451.537 356.12C457.843 358.534 464.731 358.988 471.3 357.423C477.869 355.858 483.811 352.346 488.35 347.347C488.508 347.212 488.587 347.099 488.565 347.099L488.757 346.861L488.859 346.737L488.983 346.601L490.895 344.169C491.052 344.034 491.189 343.878 491.303 343.706C494.762 338.664 496.779 332.773 497.135 326.669C497.491 320.566 496.172 314.481 493.322 309.071C490.471 303.662 486.197 299.133 480.96 295.975C475.723 292.816 469.722 291.147 463.606 291.148V291.16ZM481.708 341.251C478.388 344.89 474.049 347.446 469.255 348.586C464.462 349.727 459.437 349.399 454.832 347.646C450.228 345.893 446.257 342.796 443.438 338.757C440.618 334.718 439.079 329.924 439.021 324.999V324.467C439.185 318.041 441.862 311.934 446.478 307.457C451.094 302.98 457.28 300.49 463.711 300.519C470.142 300.549 476.306 303.096 480.88 307.616C485.454 312.135 488.075 318.266 488.18 324.694C488.181 329.602 486.698 334.396 483.926 338.447L481.889 341.003L481.731 341.24L481.708 341.251Z" fill="#EAEAEA" fill-opacity="0.2"/>
</svg>
