<svg width="1920" height="8282" viewBox="0 0 1920 8282" fill="none" xmlns="http://www.w3.org/2000/svg">
<path d="M1920 0H0V8282H1920V0Z" fill="url(#paint0_linear)"/>
<rect width="1928.84" height="1545.92" transform="matrix(-1 -2.13535e-09 1.83816e-09 1 1920 4206.3)" fill="url(#paint1_linear)" fill-opacity="0.8"/>
<rect x="1920" y="4206.3" width="1928.84" height="1545.92" transform="rotate(-180 1920 4206.3)" fill="url(#paint2_linear)" fill-opacity="0.8"/>
<rect width="1911.16" height="1545.92" transform="matrix(1 -9.35932e-08 -8.16592e-08 -1 0 1545.92)" fill="url(#paint3_linear)" fill-opacity="0.8"/>
<rect y="1546" width="1920" height="1546" fill="url(#paint4_linear)" fill-opacity="0.8"/>
<rect width="1920" height="1545.92" transform="matrix(1 -9.34027e-08 -8.18257e-08 -1 0 6644.01)" fill="url(#paint5_linear)" fill-opacity="0.8"/>
<rect y="6644.01" width="1920" height="1545.92" fill="url(#paint6_linear)" fill-opacity="0.8"/>
<rect x="-5" width="1925" height="8282" fill="url(#paint7_linear)" fill-opacity="0.7"/>
<defs>
<linearGradient id="paint0_linear" x1="1846.28" y1="8909.57" x2="-952.503" y2="8612.3" gradientUnits="userSpaceOnUse">
<stop offset="0.02" stop-color="#45108A"/>
<stop offset="0.29" stop-color="#3D065F"/>
<stop offset="1" stop-color="#1F0E7E"/>
</linearGradient>
<linearGradient id="paint1_linear" x1="1033.27" y1="-1068.07" x2="1938.09" y2="394.007" gradientUnits="userSpaceOnUse">
<stop stop-color="#4E017B" stop-opacity="0.79"/>
<stop offset="1" stop-color="#A100FF" stop-opacity="0"/>
</linearGradient>
<linearGradient id="paint2_linear" x1="2953.27" y1="3138.24" x2="3858.09" y2="4600.31" gradientUnits="userSpaceOnUse">
<stop stop-color="#4E017B" stop-opacity="0.79"/>
<stop offset="1" stop-color="#A100FF" stop-opacity="0"/>
</linearGradient>
<linearGradient id="paint3_linear" x1="1023.8" y1="-1068.07" x2="1932.31" y2="386.517" gradientUnits="userSpaceOnUse">
<stop stop-color="#4E017B" stop-opacity="0.79"/>
<stop offset="1" stop-color="#A100FF" stop-opacity="0"/>
</linearGradient>
<linearGradient id="paint4_linear" x1="1028.54" y1="477.875" x2="1935.28" y2="1936.26" gradientUnits="userSpaceOnUse">
<stop stop-color="#4E017B" stop-opacity="0.79"/>
<stop offset="1" stop-color="#A100FF" stop-opacity="0"/>
</linearGradient>
<linearGradient id="paint5_linear" x1="1028.54" y1="-1068.07" x2="1935.2" y2="390.278" gradientUnits="userSpaceOnUse">
<stop stop-color="#4E017B" stop-opacity="0.79"/>
<stop offset="1" stop-color="#A100FF" stop-opacity="0"/>
</linearGradient>
<linearGradient id="paint6_linear" x1="1028.54" y1="5575.95" x2="1935.2" y2="7034.29" gradientUnits="userSpaceOnUse">
<stop stop-color="#4E017B" stop-opacity="0.79"/>
<stop offset="1" stop-color="#A100FF" stop-opacity="0"/>
</linearGradient>
<linearGradient id="paint7_linear" x1="2261.39" y1="-2022.45" x2="68.6955" y2="-1981.5" gradientUnits="userSpaceOnUse">
<stop stop-color="#A100FF" stop-opacity="0.57"/>
<stop offset="1" stop-color="#C4C4C4" stop-opacity="0"/>
</linearGradient>
</defs>
</svg>
