<svg width="191" height="198" viewBox="0 0 191 198" fill="none" xmlns="http://www.w3.org/2000/svg">
<g opacity="0.5">
<path d="M176.9 92.3832L108.257 91.8687C104.849 91.8345 101.593 90.4506 99.2053 88.0205C96.817 85.5904 95.4911 82.3128 95.5183 78.9068L95.6516 61.1291C95.667 59.3757 96.0428 57.6441 96.7555 56.0418C97.4682 54.4396 98.5027 53.0007 99.7949 51.8145L99.8797 51.7375C101.223 50.5557 102.783 49.6444 104.472 49.0536L104.686 48.9646C105.946 48.574 107.258 48.3808 108.576 48.3919L132.096 48.5682C137.935 48.6136 143.639 46.8124 148.392 43.4223C153.145 40.0321 156.703 35.2267 158.557 29.6934C158.703 29.2424 158.969 28.84 159.328 28.5299C159.686 28.2199 160.123 28.0142 160.591 27.9353C160.66 27.9294 160.729 27.9299 160.798 27.9368L161.051 27.9387C161.439 27.943 161.822 28.0316 162.173 28.1985C162.524 28.3654 162.835 28.6066 163.083 28.9054L187.166 59.4397C188.995 61.7461 189.979 64.6082 189.955 67.5507L189.864 79.6139C189.852 81.3032 189.508 82.9735 188.85 84.5296C188.192 86.0856 187.234 87.4969 186.03 88.6827C184.826 89.8685 183.4 90.8057 181.833 91.4406C180.267 92.0755 178.591 92.3958 176.9 92.3832ZM100.699 72.9136L100.654 78.9453C100.637 80.981 101.428 82.9403 102.855 84.3936C104.281 85.8469 106.226 86.6754 108.263 86.6976L176.939 87.2123C178.978 87.2224 180.938 86.4241 182.388 84.9924C183.839 83.5607 184.662 81.6125 184.677 79.575L184.768 67.4989C184.758 65.737 184.16 64.0289 183.068 62.6451L161.699 35.5418C158.961 41.0507 154.726 45.6783 149.48 48.8951C144.233 52.112 138.187 53.7883 132.032 53.7324C131.766 53.7304 131.527 53.7286 131.229 53.7264C131.114 53.7337 131 53.7328 130.886 53.7238L108.512 53.5561C107.769 53.5555 107.029 53.6567 106.314 53.8567C105.193 54.2357 104.159 54.8329 103.27 55.6137C102.495 56.3181 101.874 57.1752 101.447 58.131C101.02 59.0868 100.795 60.1207 100.787 61.1675L100.704 72.2794C100.722 72.3712 100.732 72.4644 100.734 72.5579C100.735 72.6774 100.723 72.7966 100.699 72.9136Z" fill="#EAEAEA" fill-opacity="0.2"/>
<path d="M176.9 92.3832L108.257 91.8687C104.849 91.8345 101.593 90.4506 99.2053 88.0205C96.817 85.5904 95.4911 82.3128 95.5183 78.9068L95.6516 61.1291C95.667 59.3757 96.0428 57.6441 96.7555 56.0418C97.4682 54.4396 98.5027 53.0007 99.7949 51.8145L99.8797 51.7375C101.223 50.5557 102.783 49.6444 104.472 49.0536L104.686 48.9646C105.946 48.574 107.258 48.3808 108.576 48.3919L132.096 48.5682C137.935 48.6136 143.639 46.8124 148.392 43.4223C153.145 40.0321 156.703 35.2267 158.557 29.6934C158.703 29.2424 158.969 28.84 159.328 28.5299C159.686 28.2199 160.123 28.0142 160.591 27.9353C160.66 27.9294 160.729 27.9299 160.798 27.9368L161.051 27.9387C161.439 27.943 161.822 28.0316 162.173 28.1985C162.524 28.3654 162.835 28.6066 163.083 28.9054L187.166 59.4397C188.995 61.7461 189.979 64.6082 189.955 67.5507L189.864 79.6139C189.852 81.3032 189.508 82.9735 188.85 84.5296C188.192 86.0856 187.234 87.4969 186.03 88.6827C184.826 89.8685 183.4 90.8057 181.833 91.4406C180.267 92.0755 178.591 92.3958 176.9 92.3832ZM100.699 72.9136L100.654 78.9453C100.637 80.981 101.428 82.9403 102.855 84.3936C104.281 85.8469 106.226 86.6754 108.263 86.6976L176.939 87.2123C178.978 87.2224 180.938 86.4241 182.388 84.9924C183.839 83.5607 184.662 81.6125 184.677 79.575L184.768 67.4989C184.758 65.737 184.16 64.0289 183.068 62.6451L161.699 35.5418C158.961 41.0507 154.726 45.6783 149.48 48.8951C144.233 52.112 138.187 53.7883 132.032 53.7324C131.766 53.7304 131.527 53.7286 131.229 53.7264C131.114 53.7337 131 53.7328 130.886 53.7238L108.512 53.5561C107.769 53.5555 107.029 53.6567 106.314 53.8567C105.193 54.2357 104.159 54.8329 103.27 55.6137C102.495 56.3181 101.874 57.1752 101.447 58.131C101.02 59.0868 100.795 60.1207 100.787 61.1675L100.704 72.2794C100.722 72.3712 100.732 72.4644 100.734 72.5579C100.735 72.6774 100.723 72.7966 100.699 72.9136Z" fill="#EAEAEA" fill-opacity="0.2"/>
<path d="M127.237 43.399C121.398 43.3648 115.809 41.1368 111.687 37.2005C107.565 33.2641 105.244 27.9386 105.231 22.3845L105.234 21.987C105.29 17.7505 106.69 13.6299 109.25 10.1649C111.81 6.69982 115.412 4.05188 119.582 2.56781C123.753 1.08374 128.298 0.832731 132.623 1.84767C136.948 2.8626 140.851 5.09615 143.821 8.25581C143.924 8.34178 143.976 8.41315 143.961 8.41304L144.087 8.56306L144.153 8.64166L144.235 8.72745L145.485 10.2631C145.587 10.3487 145.677 10.4473 145.751 10.5561C148.009 13.7377 149.312 17.4448 149.518 21.2776C149.724 25.1103 148.826 28.923 146.92 32.3041C145.014 35.6851 142.174 38.5062 138.705 40.4628C135.236 42.4193 131.271 43.4371 127.237 43.4061L127.237 43.399ZM139.412 12.0491C137.239 9.74883 134.389 8.12326 131.233 7.38374C128.077 6.64422 124.761 6.82497 121.716 7.9025C118.67 8.98002 116.037 10.9045 114.158 13.4256C112.28 15.9467 111.242 18.9478 111.181 22.0386L111.178 22.3723C111.256 26.4068 112.993 30.2528 116.016 33.0854C119.04 35.9181 123.108 37.5119 127.35 37.5251C131.592 37.5383 135.669 35.9699 138.707 33.1561C141.745 30.3423 143.502 26.5073 143.602 22.4733C143.626 19.3928 142.67 16.3767 140.861 13.8205L139.53 12.2061L139.427 12.0563L139.412 12.0491Z" fill="#EAEAEA" fill-opacity="0.2"/>
<path d="M127.237 43.399C121.398 43.3648 115.809 41.1368 111.687 37.2005C107.565 33.2641 105.244 27.9386 105.231 22.3845L105.234 21.987C105.29 17.7505 106.69 13.6299 109.25 10.1649C111.81 6.69982 115.412 4.05188 119.582 2.56781C123.753 1.08374 128.298 0.832731 132.623 1.84767C136.948 2.8626 140.851 5.09615 143.821 8.25581C143.924 8.34178 143.976 8.41315 143.961 8.41304L144.087 8.56306L144.153 8.64166L144.235 8.72745L145.485 10.2631C145.587 10.3487 145.677 10.4473 145.751 10.5561C148.009 13.7377 149.312 17.4448 149.518 21.2776C149.724 25.1103 148.826 28.923 146.92 32.3041C145.014 35.6851 142.174 38.5062 138.705 40.4628C135.236 42.4193 131.271 43.4371 127.237 43.4061L127.237 43.399ZM139.412 12.0491C137.239 9.74883 134.389 8.12326 131.233 7.38374C128.077 6.64422 124.761 6.82497 121.716 7.9025C118.67 8.98002 116.037 10.9045 114.158 13.4256C112.28 15.9467 111.242 18.9478 111.181 22.0386L111.178 22.3723C111.256 26.4068 112.993 30.2528 116.016 33.0854C119.04 35.9181 123.108 37.5119 127.35 37.5251C131.592 37.5383 135.669 35.9699 138.707 33.1561C141.745 30.3423 143.502 26.5073 143.602 22.4733C143.626 19.3928 142.67 16.3767 140.861 13.8205L139.53 12.2061L139.427 12.0563L139.412 12.0491Z" fill="#EAEAEA" fill-opacity="0.2"/>
<path d="M83.7833 10.1998L14.6198 9.6814C11.1857 9.66433 7.88516 11.0142 5.44235 13.4349C2.99955 15.8556 1.61407 19.1493 1.59 22.5931L1.45527 40.5684C1.44432 42.3413 1.79668 44.0975 2.49049 45.7282C3.1843 47.3589 4.20475 48.8292 5.4886 50.0481L5.57283 50.1272C6.90852 51.3423 8.4657 52.2872 10.1588 52.91L10.3734 53.0033C11.6362 53.4173 12.9553 53.6325 14.2838 53.6412L37.9821 53.8188C43.8653 53.8612 49.5844 55.7685 54.3212 59.2678C59.0581 62.7672 62.57 67.6793 64.3546 73.3015C64.4944 73.7596 64.7568 74.1705 65.1134 74.4894C65.47 74.8082 65.9071 75.0228 66.3769 75.1097C66.4463 75.1167 66.5162 75.1172 66.5857 75.1112L66.8402 75.1131C67.2318 75.1148 67.6191 75.0309 67.9753 74.8675C68.3314 74.7041 68.6479 74.4649 68.9027 74.1666L93.6271 43.6608C95.5042 41.3567 96.5389 38.478 96.5593 35.5029L96.6507 23.3056C96.6644 21.5976 96.3423 19.9037 95.703 18.3205C95.0637 16.7374 94.1196 15.2961 92.9246 14.0791C91.7297 12.862 90.3074 11.893 88.7389 11.2273C87.1704 10.5617 85.4864 10.2126 83.7833 10.1998ZM6.7185 28.7305L6.76421 22.6319C6.7779 20.5735 7.60505 18.6046 9.06422 17.1569C10.5234 15.7093 12.4955 14.901 14.548 14.9095L83.7441 15.4281C85.7983 15.4487 87.7604 16.2855 89.2001 17.7549C90.6399 19.2243 91.4397 21.2064 91.4243 23.2664L91.3328 35.4768C91.296 37.2578 90.6677 38.9757 89.5474 40.3583L67.6089 67.4363C64.9333 61.8253 60.7371 57.0828 55.5001 53.7512C50.2631 50.4196 44.1969 48.6334 37.9951 48.5968C37.7276 48.5948 37.4862 48.593 37.186 48.5907C37.071 48.5816 36.9554 48.5808 36.8402 48.5881L14.2968 48.4192C13.5484 48.4085 12.805 48.295 12.0873 48.082C10.9638 47.6819 9.93053 47.0625 9.04714 46.2596C8.277 45.5358 7.66461 44.6599 7.24853 43.6871C6.83245 42.7143 6.62167 41.6656 6.62948 40.6071L6.71369 29.3718C6.73345 29.2793 6.74509 29.1852 6.74844 29.0907C6.75105 28.9699 6.741 28.8492 6.7185 28.7305Z" fill="#EAEAEA" fill-opacity="0.2"/>
<path d="M83.7833 10.1998L14.6198 9.6814C11.1857 9.66433 7.88516 11.0142 5.44235 13.4349C2.99955 15.8556 1.61407 19.1493 1.59 22.5931L1.45527 40.5684C1.44432 42.3413 1.79668 44.0975 2.49049 45.7282C3.1843 47.3589 4.20475 48.8292 5.4886 50.0481L5.57283 50.1272C6.90852 51.3423 8.4657 52.2872 10.1588 52.91L10.3734 53.0033C11.6362 53.4173 12.9553 53.6325 14.2838 53.6412L37.9821 53.8188C43.8653 53.8612 49.5844 55.7685 54.3212 59.2678C59.0581 62.7672 62.57 67.6793 64.3546 73.3015C64.4944 73.7596 64.7568 74.1705 65.1134 74.4894C65.47 74.8082 65.9071 75.0228 66.3769 75.1097C66.4463 75.1167 66.5162 75.1172 66.5857 75.1112L66.8402 75.1131C67.2318 75.1148 67.6191 75.0309 67.9753 74.8675C68.3314 74.7041 68.6479 74.4649 68.9027 74.1666L93.6271 43.6608C95.5042 41.3567 96.5389 38.478 96.5593 35.5029L96.6507 23.3056C96.6644 21.5976 96.3423 19.9037 95.703 18.3205C95.0637 16.7374 94.1196 15.2961 92.9246 14.0791C91.7297 12.862 90.3074 11.893 88.7389 11.2273C87.1704 10.5617 85.4864 10.2126 83.7833 10.1998ZM6.7185 28.7305L6.76421 22.6319C6.7779 20.5735 7.60505 18.6046 9.06422 17.1569C10.5234 15.7093 12.4955 14.901 14.548 14.9095L83.7441 15.4281C85.7983 15.4487 87.7604 16.2855 89.2001 17.7549C90.6399 19.2243 91.4397 21.2064 91.4243 23.2664L91.3328 35.4768C91.296 37.2578 90.6677 38.9757 89.5474 40.3583L67.6089 67.4363C64.9333 61.8253 60.7371 57.0828 55.5001 53.7512C50.2631 50.4196 44.1969 48.6334 37.9951 48.5968C37.7276 48.5948 37.4862 48.593 37.186 48.5907C37.071 48.5816 36.9554 48.5808 36.8402 48.5881L14.2968 48.4192C13.5484 48.4085 12.805 48.295 12.0873 48.082C10.9638 47.6819 9.93053 47.0625 9.04714 46.2596C8.277 45.5358 7.66461 44.6599 7.24853 43.6871C6.83245 42.7143 6.62167 41.6656 6.62948 40.6071L6.71369 29.3718C6.73345 29.2793 6.74509 29.1852 6.74844 29.0907C6.75105 28.9699 6.741 28.8492 6.7185 28.7305Z" fill="#EAEAEA" fill-opacity="0.2"/>
<path d="M33.8478 58.4387C28.1037 58.3859 22.5718 60.5676 18.4576 64.5084C14.3434 68.4492 11.9806 73.8296 11.884 79.477L11.881 79.8813C11.8729 84.19 13.1883 88.4009 15.6551 91.9627C18.1218 95.5245 21.6248 98.271 25.7053 99.8426C29.7859 101.414 34.2536 101.738 38.5236 100.77C42.7935 99.8032 46.6665 97.5906 49.6354 94.4223C49.7388 94.3364 49.7908 94.2646 49.7761 94.2645L49.902 94.1139L49.9687 94.0349L50.0501 93.9489L51.3025 92.4062C51.4046 92.3206 51.4943 92.2217 51.569 92.1122C53.8384 88.911 55.1753 85.1609 55.4354 81.2667C55.6955 77.3726 54.869 73.4822 53.0451 70.0156C51.2211 66.549 48.469 63.6379 45.0858 61.5964C41.7026 59.5548 37.8168 58.4605 33.8479 58.4315L33.8478 58.4387ZM45.355 90.499C43.1828 92.8054 40.3549 94.4156 37.2391 95.1203C34.1232 95.8249 30.8636 95.5914 27.8841 94.4501C24.9046 93.3087 22.343 91.3124 20.5325 88.7207C18.722 86.129 17.7464 83.0618 17.7324 79.9179L17.7349 79.5787C17.8723 75.4774 19.6387 71.5927 22.6552 68.7577C25.6717 65.9227 29.6982 64.363 33.8713 64.4132C38.0444 64.4634 42.0317 66.1194 44.9783 69.0261C47.925 71.9328 49.5962 75.8587 49.6337 79.9621C49.6108 83.0948 48.6256 86.1474 46.8074 88.7195L45.4736 90.3411L45.3697 90.4919L45.355 90.499Z" fill="#EAEAEA" fill-opacity="0.2"/>
<path d="M33.8478 58.4387C28.1037 58.3859 22.5718 60.5676 18.4576 64.5084C14.3434 68.4492 11.9806 73.8296 11.884 79.477L11.881 79.8813C11.8729 84.19 13.1883 88.4009 15.6551 91.9627C18.1218 95.5245 21.6248 98.271 25.7053 99.8426C29.7859 101.414 34.2536 101.738 38.5236 100.77C42.7935 99.8032 46.6665 97.5906 49.6354 94.4223C49.7388 94.3364 49.7908 94.2646 49.7761 94.2645L49.902 94.1139L49.9687 94.0349L50.0501 93.9489L51.3025 92.4062C51.4046 92.3206 51.4943 92.2217 51.569 92.1122C53.8384 88.911 55.1753 85.1609 55.4354 81.2667C55.6955 77.3726 54.869 73.4822 53.0451 70.0156C51.2211 66.549 48.469 63.6379 45.0858 61.5964C41.7026 59.5548 37.8168 58.4605 33.8479 58.4315L33.8478 58.4387ZM45.355 90.499C43.1828 92.8054 40.3549 94.4156 37.2391 95.1203C34.1232 95.8249 30.8636 95.5914 27.8841 94.4501C24.9046 93.3087 22.343 91.3124 20.5325 88.7207C18.722 86.129 17.7464 83.0618 17.7324 79.9179L17.7349 79.5787C17.8723 75.4774 19.6387 71.5927 22.6552 68.7577C25.6717 65.9227 29.6982 64.363 33.8713 64.4132C38.0444 64.4634 42.0317 66.1194 44.9783 69.0261C47.925 71.9328 49.5962 75.8587 49.6337 79.9621C49.6108 83.0948 48.6256 86.1474 46.8074 88.7195L45.4736 90.3411L45.3697 90.4919L45.355 90.499Z" fill="#EAEAEA" fill-opacity="0.2"/>
</g>
<g opacity="0.5">
<path d="M14.0996 105.103L82.7431 105.618C86.1512 105.652 89.4065 107.036 91.7947 109.466C94.183 111.896 95.5089 115.174 95.4817 118.58L95.3484 136.357C95.333 138.111 94.9572 139.842 94.2445 141.444C93.5318 143.047 92.4973 144.486 91.2051 145.672L91.1203 145.749C89.7768 146.931 88.2175 147.842 86.5281 148.433L86.3137 148.522C85.0544 148.912 83.7422 149.106 82.4237 149.094L58.9036 148.918C53.0646 148.873 47.3608 150.674 42.6081 154.064C37.8555 157.454 34.2974 162.26 32.443 167.793C32.2974 168.244 32.0309 168.646 31.6722 168.956C31.3136 169.266 30.8767 169.472 30.4092 169.551C30.3402 169.557 30.2709 169.556 30.202 169.549L29.9494 169.548C29.5608 169.543 29.1776 169.455 28.8266 169.288C28.4756 169.121 28.1651 168.88 27.9167 168.581L3.83402 138.047C2.00544 135.74 1.02139 132.878 1.0453 129.936L1.13572 117.872C1.14753 116.183 1.49226 114.513 2.15023 112.957C2.80819 111.401 3.7665 109.989 4.97039 108.804C6.17428 107.618 7.60016 106.681 9.16658 106.046C10.733 105.411 12.4092 105.091 14.0996 105.103ZM90.3012 124.573L90.3464 118.541C90.3634 116.505 89.5718 114.546 88.1452 113.093C86.7187 111.639 84.7736 110.811 82.7367 110.789L14.0608 110.274C12.022 110.264 10.0625 111.062 8.61188 112.494C7.16129 113.926 6.33811 115.874 6.32284 117.911L6.23233 129.987C6.24239 131.749 6.84037 133.457 7.93156 134.841L29.3005 161.945C32.0391 156.436 36.2737 151.808 41.5202 148.591C46.7667 145.374 52.8132 143.698 58.9682 143.754C59.2337 143.756 59.4733 143.758 59.7712 143.76C59.8855 143.753 60.0002 143.754 60.1144 143.763L82.4883 143.93C83.2312 143.931 83.9706 143.83 84.686 143.63C85.8068 143.251 86.8414 142.653 87.73 141.873C88.505 141.168 89.1257 140.311 89.5531 139.355C89.9804 138.4 90.2052 137.366 90.2131 136.319L90.2964 125.207C90.2782 125.115 90.268 125.022 90.2661 124.928C90.2653 124.809 90.2771 124.69 90.3012 124.573Z" fill="#EAEAEA" fill-opacity="0.2"/>
<path d="M14.0996 105.103L82.7431 105.618C86.1512 105.652 89.4065 107.036 91.7947 109.466C94.183 111.896 95.5089 115.174 95.4817 118.58L95.3484 136.357C95.333 138.111 94.9572 139.842 94.2445 141.444C93.5318 143.047 92.4973 144.486 91.2051 145.672L91.1203 145.749C89.7768 146.931 88.2175 147.842 86.5281 148.433L86.3137 148.522C85.0544 148.912 83.7422 149.106 82.4237 149.094L58.9036 148.918C53.0646 148.873 47.3608 150.674 42.6081 154.064C37.8555 157.454 34.2974 162.26 32.443 167.793C32.2974 168.244 32.0309 168.646 31.6722 168.956C31.3136 169.266 30.8767 169.472 30.4092 169.551C30.3402 169.557 30.2709 169.556 30.202 169.549L29.9494 169.548C29.5608 169.543 29.1776 169.455 28.8266 169.288C28.4756 169.121 28.1651 168.88 27.9167 168.581L3.83402 138.047C2.00544 135.74 1.02139 132.878 1.0453 129.936L1.13572 117.872C1.14753 116.183 1.49226 114.513 2.15023 112.957C2.80819 111.401 3.7665 109.989 4.97039 108.804C6.17428 107.618 7.60016 106.681 9.16658 106.046C10.733 105.411 12.4092 105.091 14.0996 105.103ZM90.3012 124.573L90.3464 118.541C90.3634 116.505 89.5718 114.546 88.1452 113.093C86.7187 111.639 84.7736 110.811 82.7367 110.789L14.0608 110.274C12.022 110.264 10.0625 111.062 8.61188 112.494C7.16129 113.926 6.33811 115.874 6.32284 117.911L6.23233 129.987C6.24239 131.749 6.84037 133.457 7.93156 134.841L29.3005 161.945C32.0391 156.436 36.2737 151.808 41.5202 148.591C46.7667 145.374 52.8132 143.698 58.9682 143.754C59.2337 143.756 59.4733 143.758 59.7712 143.76C59.8855 143.753 60.0002 143.754 60.1144 143.763L82.4883 143.93C83.2312 143.931 83.9706 143.83 84.686 143.63C85.8068 143.251 86.8414 142.653 87.73 141.873C88.505 141.168 89.1257 140.311 89.5531 139.355C89.9804 138.4 90.2052 137.366 90.2131 136.319L90.2964 125.207C90.2782 125.115 90.268 125.022 90.2661 124.928C90.2653 124.809 90.2771 124.69 90.3012 124.573Z" fill="#EAEAEA" fill-opacity="0.2"/>
<path d="M63.7633 154.087C69.6018 154.121 75.1911 156.35 79.3132 160.286C83.4353 164.222 85.756 169.548 85.7695 175.102L85.7665 175.499C85.7101 179.736 84.3102 183.856 81.7499 187.321C79.1896 190.787 75.5884 193.434 71.4179 194.919C67.2474 196.403 62.702 196.654 58.377 195.639C54.0521 194.624 50.1492 192.39 47.1794 189.231C47.0756 189.145 47.0239 189.073 47.0388 189.073L46.9131 188.923L46.8465 188.845L46.7651 188.759L45.5154 187.223C45.413 187.138 45.3233 187.039 45.249 186.93C42.9906 183.749 41.6882 180.041 41.4822 176.209C41.2762 172.376 42.1745 168.563 44.0801 165.182C45.9857 161.801 48.8262 158.98 52.2951 157.024C55.764 155.067 59.7294 154.049 63.7634 154.08L63.7633 154.087ZM51.5884 185.437C53.7614 187.738 56.6112 189.363 59.7672 190.103C62.9232 190.842 66.2393 190.661 69.2845 189.584C72.3296 188.506 74.9628 186.582 76.8416 184.061C78.7204 181.54 79.7579 178.539 79.8193 175.448L79.8218 175.114C79.7436 171.08 78.0067 167.234 74.9836 164.401C71.9604 161.568 67.8917 159.974 63.65 159.961C59.4082 159.948 55.3311 161.516 52.2929 164.33C49.2548 167.144 47.4975 170.979 47.3979 175.013C47.3742 178.094 48.3297 181.11 50.139 183.666L51.4701 185.28L51.5735 185.43L51.5884 185.437Z" fill="#EAEAEA" fill-opacity="0.2"/>
<path d="M63.7633 154.087C69.6018 154.121 75.1911 156.35 79.3132 160.286C83.4353 164.222 85.756 169.548 85.7695 175.102L85.7665 175.499C85.7101 179.736 84.3102 183.856 81.7499 187.321C79.1896 190.787 75.5884 193.434 71.4179 194.919C67.2474 196.403 62.702 196.654 58.377 195.639C54.0521 194.624 50.1492 192.39 47.1794 189.231C47.0756 189.145 47.0239 189.073 47.0388 189.073L46.9131 188.923L46.8465 188.845L46.7651 188.759L45.5154 187.223C45.413 187.138 45.3233 187.039 45.249 186.93C42.9906 183.749 41.6882 180.041 41.4822 176.209C41.2762 172.376 42.1745 168.563 44.0801 165.182C45.9857 161.801 48.8262 158.98 52.2951 157.024C55.764 155.067 59.7294 154.049 63.7634 154.08L63.7633 154.087ZM51.5884 185.437C53.7614 187.738 56.6112 189.363 59.7672 190.103C62.9232 190.842 66.2393 190.661 69.2845 189.584C72.3296 188.506 74.9628 186.582 76.8416 184.061C78.7204 181.54 79.7579 178.539 79.8193 175.448L79.8218 175.114C79.7436 171.08 78.0067 167.234 74.9836 164.401C71.9604 161.568 67.8917 159.974 63.65 159.961C59.4082 159.948 55.3311 161.516 52.2929 164.33C49.2548 167.144 47.4975 170.979 47.3979 175.013C47.3742 178.094 48.3297 181.11 50.139 183.666L51.4701 185.28L51.5735 185.43L51.5884 185.437Z" fill="#EAEAEA" fill-opacity="0.2"/>
<path d="M107.217 187.287L176.38 187.805C179.814 187.822 183.115 186.472 185.558 184.051C188 181.631 189.386 178.337 189.41 174.893L189.545 156.918C189.556 155.145 189.203 153.389 188.51 151.758C187.816 150.127 186.795 148.657 185.511 147.438L185.427 147.359C184.091 146.144 182.534 145.199 180.841 144.576L180.627 144.483C179.364 144.069 178.045 143.854 176.716 143.845L153.018 143.668C147.135 143.625 141.416 141.718 136.679 138.219C131.942 134.719 128.43 129.807 126.645 124.185C126.506 123.727 126.243 123.316 125.887 122.997C125.53 122.678 125.093 122.464 124.623 122.377C124.554 122.37 124.484 122.369 124.414 122.375L124.16 122.373C123.768 122.372 123.381 122.455 123.025 122.619C122.669 122.782 122.352 123.021 122.097 123.32L97.3729 153.826C95.4958 156.13 94.4611 159.008 94.4407 161.983L94.3493 174.181C94.3356 175.889 94.6577 177.583 95.297 179.166C95.9363 180.749 96.8804 182.19 98.0754 183.407C99.2703 184.624 100.693 185.593 102.261 186.259C103.83 186.925 105.514 187.274 107.217 187.287ZM184.281 168.756L184.236 174.854C184.222 176.913 183.395 178.882 181.936 180.329C180.477 181.777 178.505 182.585 176.452 182.577L107.256 182.058C105.202 182.038 103.24 181.201 101.8 179.731C100.36 178.262 99.5603 176.28 99.5757 174.22L99.6672 162.01C99.704 160.228 100.332 158.511 101.453 157.128L123.391 130.05C126.067 135.661 130.263 140.403 135.5 143.735C140.737 147.067 146.803 148.853 153.005 148.89C153.272 148.892 153.514 148.893 153.814 148.896C153.929 148.905 154.045 148.906 154.16 148.898L176.703 149.067C177.452 149.078 178.195 149.191 178.913 149.404C180.036 149.804 181.069 150.424 181.953 151.227C182.723 151.951 183.335 152.826 183.751 153.799C184.168 154.772 184.378 155.821 184.371 156.879L184.286 168.115C184.267 168.207 184.255 168.301 184.252 168.396C184.249 168.516 184.259 168.637 184.281 168.756Z" fill="#EAEAEA" fill-opacity="0.2"/>
<path d="M107.217 187.287L176.38 187.805C179.814 187.822 183.115 186.472 185.558 184.051C188 181.631 189.386 178.337 189.41 174.893L189.545 156.918C189.556 155.145 189.203 153.389 188.51 151.758C187.816 150.127 186.795 148.657 185.511 147.438L185.427 147.359C184.091 146.144 182.534 145.199 180.841 144.576L180.627 144.483C179.364 144.069 178.045 143.854 176.716 143.845L153.018 143.668C147.135 143.625 141.416 141.718 136.679 138.219C131.942 134.719 128.43 129.807 126.645 124.185C126.506 123.727 126.243 123.316 125.887 122.997C125.53 122.678 125.093 122.464 124.623 122.377C124.554 122.37 124.484 122.369 124.414 122.375L124.16 122.373C123.768 122.372 123.381 122.455 123.025 122.619C122.669 122.782 122.352 123.021 122.097 123.32L97.3729 153.826C95.4958 156.13 94.4611 159.008 94.4407 161.983L94.3493 174.181C94.3356 175.889 94.6577 177.583 95.297 179.166C95.9363 180.749 96.8804 182.19 98.0754 183.407C99.2703 184.624 100.693 185.593 102.261 186.259C103.83 186.925 105.514 187.274 107.217 187.287ZM184.281 168.756L184.236 174.854C184.222 176.913 183.395 178.882 181.936 180.329C180.477 181.777 178.505 182.585 176.452 182.577L107.256 182.058C105.202 182.038 103.24 181.201 101.8 179.731C100.36 178.262 99.5603 176.28 99.5757 174.22L99.6672 162.01C99.704 160.228 100.332 158.511 101.453 157.128L123.391 130.05C126.067 135.661 130.263 140.403 135.5 143.735C140.737 147.067 146.803 148.853 153.005 148.89C153.272 148.892 153.514 148.893 153.814 148.896C153.929 148.905 154.045 148.906 154.16 148.898L176.703 149.067C177.452 149.078 178.195 149.191 178.913 149.404C180.036 149.804 181.069 150.424 181.953 151.227C182.723 151.951 183.335 152.826 183.751 153.799C184.168 154.772 184.378 155.821 184.371 156.879L184.286 168.115C184.267 168.207 184.255 168.301 184.252 168.396C184.249 168.516 184.259 168.637 184.281 168.756Z" fill="#EAEAEA" fill-opacity="0.2"/>
<path d="M157.152 139.048C162.896 139.1 168.428 136.919 172.542 132.978C176.657 129.037 179.019 123.657 179.116 118.009L179.119 117.605C179.127 113.296 177.812 109.085 175.345 105.524C172.878 101.962 169.375 99.2153 165.295 97.6437C161.214 96.0721 156.746 95.7488 152.476 96.7159C148.206 97.6831 144.333 99.8957 141.365 103.064C141.261 103.15 141.209 103.222 141.224 103.222L141.098 103.372L141.031 103.451L140.95 103.537L139.698 105.08C139.595 105.166 139.506 105.265 139.431 105.374C137.162 108.575 135.825 112.325 135.565 116.22C135.304 120.114 136.131 124.004 137.955 127.471C139.779 130.937 142.531 133.848 145.914 135.89C149.297 137.931 153.183 139.026 157.152 139.055L157.152 139.048ZM145.645 106.987C147.817 104.681 150.645 103.071 153.761 102.366C156.877 101.661 160.136 101.895 163.116 103.036C166.095 104.178 168.657 106.174 170.467 108.766C172.278 111.357 173.254 114.425 173.268 117.568L173.265 117.908C173.128 122.009 171.361 125.894 168.345 128.729C165.328 131.564 161.302 133.123 157.129 133.073C152.956 133.023 148.968 131.367 146.022 128.46C143.075 125.554 141.404 121.628 141.366 117.524C141.389 114.391 142.374 111.339 144.193 108.767L145.526 107.145L145.63 106.994L145.645 106.987Z" fill="#EAEAEA" fill-opacity="0.2"/>
<path d="M157.152 139.048C162.896 139.1 168.428 136.919 172.542 132.978C176.657 129.037 179.019 123.657 179.116 118.009L179.119 117.605C179.127 113.296 177.812 109.085 175.345 105.524C172.878 101.962 169.375 99.2153 165.295 97.6437C161.214 96.0721 156.746 95.7488 152.476 96.7159C148.206 97.6831 144.333 99.8957 141.365 103.064C141.261 103.15 141.209 103.222 141.224 103.222L141.098 103.372L141.031 103.451L140.95 103.537L139.698 105.08C139.595 105.166 139.506 105.265 139.431 105.374C137.162 108.575 135.825 112.325 135.565 116.22C135.304 120.114 136.131 124.004 137.955 127.471C139.779 130.937 142.531 133.848 145.914 135.89C149.297 137.931 153.183 139.026 157.152 139.055L157.152 139.048ZM145.645 106.987C147.817 104.681 150.645 103.071 153.761 102.366C156.877 101.661 160.136 101.895 163.116 103.036C166.095 104.178 168.657 106.174 170.467 108.766C172.278 111.357 173.254 114.425 173.268 117.568L173.265 117.908C173.128 122.009 171.361 125.894 168.345 128.729C165.328 131.564 161.302 133.123 157.129 133.073C152.956 133.023 148.968 131.367 146.022 128.46C143.075 125.554 141.404 121.628 141.366 117.524C141.389 114.391 142.374 111.339 144.193 108.767L145.526 107.145L145.63 106.994L145.645 106.987Z" fill="#EAEAEA" fill-opacity="0.2"/>
</g>
</svg>
