<svg width="356" height="1427" viewBox="0 0 356 1427" fill="none" xmlns="http://www.w3.org/2000/svg">
<g opacity="0.5">
<path d="M-35.7579 108.803C-35.8061 117.729 -32.3834 126.312 -26.2357 132.681C-20.088 139.051 -11.7137 142.691 -2.9379 142.808L-2.30973 142.81C4.38536 142.797 10.9209 140.728 16.4408 136.874C21.9607 133.02 26.2078 127.561 28.6258 121.211C31.0438 114.861 31.5199 107.917 29.9919 101.288C28.4639 94.6588 25.003 88.6537 20.0624 84.0592C19.9283 83.899 19.8165 83.8187 19.8164 83.8415L19.5815 83.6467L19.4585 83.5436L19.3244 83.4176L16.9198 81.4807C16.7862 81.3225 16.632 81.1838 16.4614 81.0682C11.4738 77.5609 5.63882 75.5056 -0.413689 75.1244C-6.46619 74.7432 -12.5064 76.0504 -17.8822 78.9049C-23.258 81.7595 -27.7653 86.0531 -30.9176 91.3221C-34.0699 96.5911 -35.7474 102.636 -35.7691 108.803L-35.7579 108.803ZM13.9914 90.7335C17.588 94.0952 20.1067 98.4798 21.22 103.317C22.3333 108.155 21.9896 113.221 20.2337 117.857C18.4778 122.494 15.3909 126.486 11.3744 129.315C7.35794 132.143 2.5977 133.677 -2.28726 133.717L-2.81448 133.715C-9.18809 133.526 -15.2347 130.804 -19.6577 126.134C-24.0807 121.463 -26.5279 115.216 -26.4745 108.731C-26.4212 102.247 -23.8715 96.041 -19.3723 91.4453C-14.873 86.8496 -8.7825 84.2296 -2.40666 84.1472C2.46127 84.1642 7.21033 85.677 11.2178 88.4871L13.7453 90.55L13.9803 90.7106L13.9914 90.7335Z" fill="#EAEAEA" fill-opacity="0.2"/>
<path d="M30.2188 283.98L30.6137 177.315C30.6463 172.019 32.7306 166.952 36.4093 163.227C40.0879 159.501 45.0603 157.421 50.2352 157.443L77.2461 157.543C79.9102 157.556 82.5431 158.13 84.9815 159.228C87.4199 160.326 89.6118 161.924 91.4214 163.925L91.5389 164.056C93.342 166.137 94.7353 168.554 95.6424 171.176L95.7788 171.508C96.3795 173.463 96.6804 175.501 96.6709 177.549L96.5356 214.097C96.4995 223.171 99.2682 232.023 104.446 239.387C109.623 246.752 116.944 252.251 125.362 255.1C126.048 255.323 126.661 255.735 127.134 256.29C127.607 256.846 127.922 257.523 128.044 258.249C128.054 258.356 128.053 258.464 128.043 258.571L128.042 258.964C128.037 259.568 127.905 260.164 127.653 260.71C127.402 261.256 127.037 261.74 126.584 262.128L80.3285 299.733C76.8347 302.588 72.4917 304.134 68.021 304.115L49.6925 304.047C47.126 304.039 44.5862 303.513 42.2183 302.5C39.8505 301.487 37.7009 300.007 35.8925 298.143C34.084 296.28 32.6522 294.07 31.6787 291.64C30.7051 289.209 30.2091 286.607 30.2188 283.98ZM59.3699 165.457L50.2057 165.423C47.1127 165.409 44.1403 166.65 41.9403 168.876C39.7403 171.101 38.4924 174.129 38.4703 177.294L38.0753 284.009C38.0714 287.177 39.2953 290.217 41.4787 292.463C43.6622 294.708 46.6268 295.975 49.7224 295.987L68.0705 296.055C70.7473 296.029 73.3391 295.089 75.4355 293.385L116.494 260.018C108.108 255.796 101.054 249.243 96.1368 241.111C91.2198 232.978 88.6389 223.592 88.6891 214.028C88.6907 213.615 88.692 213.243 88.6938 212.78C88.682 212.603 88.6827 212.424 88.6957 212.247L88.8244 177.48C88.8211 176.326 88.6632 175.177 88.3553 174.067C87.7732 172.328 86.8601 170.724 85.6686 169.348C84.5941 168.148 83.2885 167.188 81.8339 166.53C80.3792 165.872 78.8072 165.529 77.2166 165.523L60.3336 165.46C60.1942 165.489 60.0527 165.505 59.9106 165.509C59.7291 165.511 59.5479 165.493 59.3699 165.457Z" fill="#EAEAEA" fill-opacity="0.2"/>
<path d="M103.821 206.518C103.84 197.446 107.384 188.748 113.682 182.321C119.98 175.893 128.521 172.257 137.443 172.204L138.082 172.206C144.888 172.27 151.517 174.422 157.1 178.38C162.683 182.339 166.959 187.92 169.37 194.391C171.78 200.863 172.212 207.925 170.609 214.651C169.005 221.377 165.442 227.454 160.384 232.087C160.247 232.249 160.132 232.33 160.133 232.306L159.892 232.503L159.766 232.607L159.629 232.734L157.17 234.684C157.033 234.844 156.875 234.984 156.701 235.1C151.604 238.627 145.656 240.672 139.5 241.014C133.344 241.356 127.213 239.982 121.77 237.04C116.326 234.098 111.776 229.701 108.611 224.322C105.446 218.943 103.786 212.787 103.81 206.518L103.821 206.518ZM154.263 225.258C157.944 221.868 160.538 217.431 161.706 212.522C162.874 207.614 162.563 202.462 160.813 197.737C159.063 193.011 155.954 188.931 151.892 186.026C147.83 183.121 143.002 181.526 138.036 181.448L137.5 181.446C131.019 181.59 124.852 184.311 120.32 189.025C115.788 193.739 113.253 200.07 113.259 206.661C113.264 213.252 115.81 219.578 120.349 224.283C124.889 228.988 131.061 231.697 137.542 231.829C142.491 231.848 147.331 230.346 151.426 227.52L154.011 225.442L154.251 225.281L154.263 225.258Z" fill="#EAEAEA" fill-opacity="0.2"/>
<path d="M103.821 206.518C103.84 197.446 107.384 188.748 113.682 182.321C119.98 175.893 128.521 172.257 137.443 172.204L138.082 172.206C144.888 172.27 151.517 174.422 157.1 178.38C162.683 182.339 166.959 187.92 169.37 194.391C171.78 200.863 172.212 207.925 170.609 214.651C169.005 221.377 165.442 227.454 160.384 232.087C160.247 232.249 160.132 232.33 160.133 232.306L159.892 232.503L159.766 232.607L159.629 232.734L157.17 234.684C157.033 234.844 156.875 234.984 156.701 235.1C151.604 238.627 145.656 240.672 139.5 241.014C133.344 241.356 127.213 239.982 121.77 237.04C116.326 234.098 111.776 229.701 108.611 224.322C105.446 218.943 103.786 212.787 103.81 206.518L103.821 206.518ZM154.263 225.258C157.944 221.868 160.538 217.431 161.706 212.522C162.874 207.614 162.563 202.462 160.813 197.737C159.063 193.011 155.954 188.931 151.892 186.026C147.83 183.121 143.002 181.526 138.036 181.448L137.5 181.446C131.019 181.59 124.852 184.311 120.32 189.025C115.788 193.739 113.253 200.07 113.259 206.661C113.264 213.252 115.81 219.578 120.349 224.283C124.889 228.988 131.061 231.697 137.542 231.829C142.491 231.848 147.331 230.346 151.426 227.52L154.011 225.442L154.251 225.281L154.263 225.258Z" fill="#EAEAEA" fill-opacity="0.2"/>
<path d="M118.637 701.913L119.032 595.248C119.064 589.952 121.172 584.885 124.892 581.16C128.613 577.435 133.642 575.355 138.875 575.377L166.193 575.478C168.888 575.491 171.55 576.065 174.017 577.163C176.483 578.261 178.7 579.86 180.53 581.86L180.649 581.992C182.472 584.072 183.882 586.49 184.799 589.111L184.937 589.444C185.545 591.398 185.849 593.436 185.84 595.485L185.704 632.033C185.668 641.106 188.469 649.958 193.705 657.323C198.942 664.688 206.346 670.188 214.86 673.037C215.553 673.26 216.173 673.672 216.652 674.227C217.13 674.783 217.449 675.46 217.573 676.186C217.582 676.293 217.582 676.401 217.572 676.508L217.57 676.901C217.566 677.505 217.432 678.1 217.177 678.647C216.923 679.193 216.554 679.677 216.097 680.065L169.317 717.668C165.783 720.523 161.391 722.069 156.869 722.05L138.333 721.981C135.737 721.973 133.168 721.447 130.773 720.434C128.379 719.421 126.205 717.94 124.376 716.076C122.546 714.213 121.098 712.003 120.114 709.573C119.129 707.142 118.627 704.54 118.637 701.913ZM148.114 583.391L138.846 583.356C135.718 583.342 132.711 584.584 130.487 586.809C128.262 589.034 127 592.062 126.978 595.227L126.583 701.942C126.579 705.11 127.817 708.151 130.025 710.396C132.233 712.642 135.232 713.909 138.362 713.921L156.919 713.989C159.626 713.963 162.248 713.024 164.368 711.32L205.891 677.954C197.41 673.732 190.275 667.179 185.302 659.046C180.329 650.913 177.718 641.528 177.769 631.963C177.77 631.551 177.771 631.178 177.773 630.716C177.761 630.538 177.762 630.36 177.775 630.182L177.904 595.415C177.9 594.261 177.741 593.113 177.429 592.002C176.84 590.263 175.917 588.659 174.712 587.283C173.625 586.083 172.305 585.123 170.833 584.465C169.362 583.807 167.772 583.464 166.164 583.458L149.089 583.394C148.948 583.423 148.805 583.44 148.661 583.443C148.477 583.445 148.294 583.427 148.114 583.391Z" fill="#EAEAEA" fill-opacity="0.2"/>
<path d="M118.637 701.913L119.032 595.248C119.064 589.952 121.172 584.885 124.892 581.16C128.613 577.435 133.642 575.355 138.875 575.377L166.193 575.478C168.888 575.491 171.55 576.065 174.017 577.163C176.483 578.261 178.7 579.86 180.53 581.86L180.649 581.992C182.472 584.072 183.882 586.49 184.799 589.111L184.937 589.444C185.545 591.398 185.849 593.436 185.84 595.485L185.704 632.033C185.668 641.106 188.469 649.958 193.705 657.323C198.942 664.688 206.346 670.188 214.86 673.037C215.553 673.26 216.173 673.672 216.652 674.227C217.13 674.783 217.449 675.46 217.573 676.186C217.582 676.293 217.582 676.401 217.572 676.508L217.57 676.901C217.566 677.505 217.432 678.1 217.177 678.647C216.923 679.193 216.554 679.677 216.097 680.065L169.317 717.668C165.783 720.523 161.391 722.069 156.869 722.05L138.333 721.981C135.737 721.973 133.168 721.447 130.773 720.434C128.379 719.421 126.205 717.94 124.376 716.076C122.546 714.213 121.098 712.003 120.114 709.573C119.129 707.142 118.627 704.54 118.637 701.913ZM148.114 583.391L138.846 583.356C135.718 583.342 132.711 584.584 130.487 586.809C128.262 589.034 127 592.062 126.978 595.227L126.583 701.942C126.579 705.11 127.817 708.151 130.025 710.396C132.233 712.642 135.232 713.909 138.362 713.921L156.919 713.989C159.626 713.963 162.248 713.024 164.368 711.32L205.891 677.954C197.41 673.732 190.275 667.179 185.302 659.046C180.329 650.913 177.718 641.528 177.769 631.963C177.77 631.551 177.771 631.178 177.773 630.716C177.761 630.538 177.762 630.36 177.775 630.182L177.904 595.415C177.9 594.261 177.741 593.113 177.429 592.002C176.84 590.263 175.917 588.659 174.712 587.283C173.625 586.083 172.305 585.123 170.833 584.465C169.362 583.807 167.772 583.464 166.164 583.458L149.089 583.394C148.948 583.423 148.805 583.44 148.661 583.443C148.477 583.445 148.294 583.427 148.114 583.391Z" fill="#EAEAEA" fill-opacity="0.2"/>
<path d="M193.348 624.456C193.367 615.383 196.796 606.685 202.888 600.257C208.981 593.828 217.242 590.191 225.872 590.137L226.49 590.14C233.073 590.202 239.484 592.353 244.883 596.311C250.283 600.269 254.418 605.849 256.749 612.321C259.08 618.792 259.497 625.854 257.945 632.58C256.393 639.306 252.946 645.384 248.054 650.017C247.921 650.179 247.81 650.26 247.81 650.237L247.578 650.433L247.456 650.537L247.323 650.664L244.944 652.615C244.812 652.775 244.659 652.914 244.491 653.031C239.56 656.558 233.808 658.604 227.853 658.947C221.899 659.29 215.969 657.916 210.704 654.975C205.439 652.034 201.039 647.637 197.978 642.258C194.918 636.88 193.313 630.724 193.337 624.455L193.348 624.456ZM242.133 643.189C245.695 639.799 248.204 635.361 249.334 630.453C250.465 625.544 250.165 620.393 248.472 615.667C246.78 610.942 243.774 606.862 239.846 603.957C235.917 601.053 231.248 599.458 226.445 599.381L225.926 599.379C219.658 599.524 213.692 602.246 209.308 606.96C204.924 611.674 202.472 618.006 202.476 624.597C202.481 631.188 204.942 637.514 209.332 642.218C213.722 646.923 219.692 649.631 225.96 649.762C230.747 649.78 235.428 648.278 239.389 645.451L241.89 643.374L242.122 643.212L242.133 643.189Z" fill="#EAEAEA" fill-opacity="0.2"/>
<path d="M170.723 432.066L171.121 324.593C171.127 319.256 169.034 314.136 165.3 310.355C161.566 306.573 156.496 304.44 151.203 304.423L123.579 304.321C120.854 304.314 118.157 304.872 115.655 305.96C113.153 307.048 110.899 308.642 109.034 310.644L108.912 310.776C107.053 312.859 105.61 315.284 104.662 317.918L104.52 318.252C103.891 320.217 103.568 322.268 103.562 324.332L103.426 361.157C103.395 370.299 100.497 379.197 95.1464 386.578C89.796 393.96 82.2674 399.446 73.6376 402.252C72.9343 402.472 72.3043 402.882 71.8164 403.438C71.3285 403.995 71.0013 404.675 70.8704 405.405C70.8601 405.513 70.8597 405.622 70.8692 405.73L70.8678 406.125C70.8675 406.734 70.9986 407.335 71.2518 407.888C71.505 408.44 71.8743 408.93 72.3342 409.325L119.358 447.561C122.909 450.464 127.339 452.055 131.911 452.069L150.657 452.138C153.281 452.149 155.883 451.639 158.312 450.636C160.741 449.633 162.951 448.157 164.814 446.293C166.678 444.429 168.159 442.213 169.173 439.772C170.186 437.331 170.713 434.712 170.723 432.066ZM141.801 312.429L151.174 312.463C154.337 312.472 157.367 313.746 159.601 316.005C161.834 318.263 163.087 321.323 163.086 324.512L162.688 432.036C162.668 435.228 161.394 438.282 159.144 440.528C156.894 442.774 153.853 444.028 150.687 444.017L131.921 443.947C129.184 443.901 126.54 442.935 124.409 441.202L82.6698 407.274C91.2772 403.083 98.5412 396.535 103.631 388.377C108.721 380.22 111.431 370.783 111.451 361.146C111.453 360.731 111.454 360.355 111.456 359.889C111.469 359.71 111.47 359.531 111.458 359.352L111.588 324.321C111.6 323.159 111.77 322.003 112.093 320.886C112.701 319.138 113.647 317.529 114.876 316.151C115.984 314.95 117.327 313.994 118.819 313.341C120.312 312.689 121.922 312.355 123.549 312.361L140.816 312.425C140.958 312.455 141.102 312.473 141.248 312.477C141.433 312.481 141.619 312.464 141.801 312.429Z" fill="#EAEAEA" fill-opacity="0.2"/>
<path d="M170.723 432.066L171.121 324.593C171.127 319.256 169.034 314.136 165.3 310.355C161.566 306.573 156.496 304.44 151.203 304.423L123.579 304.321C120.854 304.314 118.157 304.872 115.655 305.96C113.153 307.048 110.899 308.642 109.034 310.644L108.912 310.776C107.053 312.859 105.61 315.284 104.662 317.918L104.52 318.252C103.891 320.217 103.568 322.268 103.562 324.332L103.426 361.157C103.395 370.299 100.497 379.197 95.1464 386.578C89.796 393.96 82.2674 399.446 73.6376 402.252C72.9343 402.472 72.3043 402.882 71.8164 403.438C71.3285 403.995 71.0013 404.675 70.8704 405.405C70.8601 405.513 70.8597 405.622 70.8692 405.73L70.8678 406.125C70.8675 406.734 70.9986 407.335 71.2518 407.888C71.505 408.44 71.8743 408.93 72.3342 409.325L119.358 447.561C122.909 450.464 127.339 452.055 131.911 452.069L150.657 452.138C153.281 452.149 155.883 451.639 158.312 450.636C160.741 449.633 162.951 448.157 164.814 446.293C166.678 444.429 168.159 442.213 169.173 439.772C170.186 437.331 170.713 434.712 170.723 432.066ZM141.801 312.429L151.174 312.463C154.337 312.472 157.367 313.746 159.601 316.005C161.834 318.263 163.087 321.323 163.086 324.512L162.688 432.036C162.668 435.228 161.394 438.282 159.144 440.528C156.894 442.774 153.853 444.028 150.687 444.017L131.921 443.947C129.184 443.901 126.54 442.935 124.409 441.202L82.6698 407.274C91.2772 403.083 98.5412 396.535 103.631 388.377C108.721 380.22 111.431 370.783 111.451 361.146C111.453 360.731 111.454 360.355 111.456 359.889C111.469 359.71 111.47 359.531 111.458 359.352L111.588 324.321C111.6 323.159 111.77 322.003 112.093 320.886C112.701 319.138 113.647 317.529 114.876 316.151C115.984 314.95 117.327 313.994 118.819 313.341C120.312 312.689 121.922 312.355 123.549 312.361L140.816 312.425C140.958 312.455 141.102 312.473 141.248 312.477C141.433 312.481 141.619 312.464 141.801 312.429Z" fill="#EAEAEA" fill-opacity="0.2"/>
<path d="M95.4787 354.204C95.5272 345.132 92.1626 336.409 86.1181 329.936C80.0737 323.462 71.8394 319.764 63.2098 319.646L62.5921 319.644C56.0086 319.658 49.5818 321.762 44.1534 325.679C38.725 329.597 34.548 335.147 32.1696 341.601C29.7911 348.055 29.322 355.113 30.8237 361.851C32.3255 368.588 35.728 374.691 40.5857 379.361C40.7175 379.523 40.8275 379.605 40.8276 379.582L41.0585 379.78L41.1794 379.885L41.3113 380.013L43.6756 381.981C43.8069 382.142 43.9586 382.283 44.1263 382.4C49.0304 385.964 54.7678 388.053 60.7194 388.439C66.671 388.826 72.6106 387.497 77.8972 384.595C83.1838 381.693 87.6165 377.328 90.7169 371.972C93.8173 366.617 95.4676 360.473 95.4897 354.204L95.4787 354.204ZM46.5563 372.576C43.02 369.16 40.5439 364.704 39.4497 359.787C38.3556 354.87 38.6941 349.721 40.4213 345.008C42.1485 340.296 45.1845 336.238 49.1344 333.362C53.0843 330.487 57.7654 328.927 62.5689 328.886L63.0874 328.888C69.3547 329.079 75.3002 331.845 79.649 336.591C83.9977 341.338 86.4033 347.687 86.35 354.278C86.2968 360.869 83.7888 367.177 79.364 371.849C74.9392 376.52 68.9499 379.184 62.6803 379.268C57.8935 379.252 53.2237 377.715 49.2834 374.859L46.7983 372.763L46.5672 372.599L46.5563 372.576Z" fill="#EAEAEA" fill-opacity="0.2"/>
<path d="M95.4787 354.204C95.5272 345.132 92.1626 336.409 86.1181 329.936C80.0737 323.462 71.8394 319.764 63.2098 319.646L62.5921 319.644C56.0086 319.658 49.5818 321.762 44.1534 325.679C38.725 329.597 34.548 335.147 32.1696 341.601C29.7911 348.055 29.322 355.113 30.8237 361.851C32.3255 368.588 35.728 374.691 40.5857 379.361C40.7175 379.523 40.8275 379.605 40.8276 379.582L41.0585 379.78L41.1794 379.885L41.3113 380.013L43.6756 381.981C43.8069 382.142 43.9586 382.283 44.1263 382.4C49.0304 385.964 54.7678 388.053 60.7194 388.439C66.671 388.826 72.6106 387.497 77.8972 384.595C83.1838 381.693 87.6165 377.328 90.7169 371.972C93.8173 366.617 95.4676 360.473 95.4897 354.204L95.4787 354.204ZM46.5563 372.576C43.02 369.16 40.5439 364.704 39.4497 359.787C38.3556 354.87 38.6941 349.721 40.4213 345.008C42.1485 340.296 45.1845 336.238 49.1344 333.362C53.0843 330.487 57.7654 328.927 62.5689 328.886L63.0874 328.888C69.3547 329.079 75.3002 331.845 79.649 336.591C83.9977 341.338 86.4033 347.687 86.35 354.278C86.2968 360.869 83.7888 367.177 79.364 371.849C74.9392 376.52 68.9499 379.184 62.6803 379.268C57.8935 379.252 53.2237 377.715 49.2834 374.859L46.7983 372.763L46.5672 372.599L46.5563 372.576Z" fill="#EAEAEA" fill-opacity="0.2"/>
<path d="M15.0663 177.308L14.6715 283.973C14.6386 289.269 12.5073 294.335 8.74537 298.061C4.98345 301.786 -0.10177 303.866 -5.39435 303.843L-33.0191 303.741C-35.7438 303.727 -38.4365 303.154 -40.9304 302.056C-43.4244 300.958 -45.6662 299.359 -47.5171 297.358L-47.6373 297.226C-49.4815 295.146 -50.9067 292.728 -51.8346 290.107L-51.9742 289.774C-52.5886 287.82 -52.8966 285.782 -52.8871 283.733L-52.7518 247.185C-52.7156 238.112 -55.548 229.259 -60.8438 221.894C-66.1396 214.53 -73.6275 209.029 -82.2364 206.18C-82.9381 205.957 -83.565 205.545 -84.0488 204.989C-84.5326 204.434 -84.8548 203.756 -84.9802 203.03C-84.9898 202.923 -84.9894 202.815 -84.9791 202.708L-84.9776 202.316C-84.9733 201.712 -84.8379 201.116 -84.5806 200.57C-84.3233 200.023 -83.9503 199.539 -83.4876 199.152L-36.1835 161.551C-32.6105 158.696 -28.169 157.15 -23.5967 157.17L-4.85165 157.239C-2.22673 157.247 0.370796 157.773 2.79256 158.786C5.21433 159.8 7.41286 161.28 9.26255 163.144C11.1122 165.008 12.5768 167.218 13.5727 169.648C14.5685 172.078 15.0761 174.681 15.0663 177.308ZM-14.7373 295.829L-5.36481 295.863C-2.20151 295.878 0.838379 294.636 3.08815 292.411C5.33793 290.186 6.61392 287.159 6.63629 283.993L7.03132 177.278C7.03506 174.11 5.78302 171.07 3.5498 168.824C1.31658 166.579 -1.71552 165.311 -4.88149 165.299L-23.6466 165.23C-26.3842 165.256 -29.0349 166.195 -31.1788 167.899L-73.1674 201.263C-64.5911 205.486 -57.3757 212.038 -52.3462 220.172C-47.3167 228.305 -44.6763 237.691 -44.727 247.255C-44.7285 247.667 -44.7299 248.04 -44.7316 248.503C-44.7196 248.68 -44.7202 248.858 -44.7335 249.036L-44.8622 283.803C-44.8587 284.957 -44.6972 286.105 -44.3821 287.216C-43.7867 288.955 -42.8527 290.559 -41.6341 291.935C-40.535 293.136 -39.1996 294.095 -37.7119 294.753C-36.2241 295.412 -34.6163 295.755 -32.9896 295.761L-15.7228 295.825C-15.5803 295.796 -15.4356 295.78 -15.2902 295.776C-15.1046 295.774 -14.9193 295.792 -14.7373 295.829Z" fill="#EAEAEA" fill-opacity="0.2"/>
<path d="M15.0663 177.308L14.6715 283.973C14.6386 289.269 12.5073 294.335 8.74537 298.061C4.98345 301.786 -0.10177 303.866 -5.39435 303.843L-33.0191 303.741C-35.7438 303.727 -38.4365 303.154 -40.9304 302.056C-43.4244 300.958 -45.6662 299.359 -47.5171 297.358L-47.6373 297.226C-49.4815 295.146 -50.9067 292.728 -51.8346 290.107L-51.9742 289.774C-52.5886 287.82 -52.8966 285.782 -52.8871 283.733L-52.7518 247.185C-52.7156 238.112 -55.548 229.259 -60.8438 221.894C-66.1396 214.53 -73.6275 209.029 -82.2364 206.18C-82.9381 205.957 -83.565 205.545 -84.0488 204.989C-84.5326 204.434 -84.8548 203.756 -84.9802 203.03C-84.9898 202.923 -84.9894 202.815 -84.9791 202.708L-84.9776 202.316C-84.9733 201.712 -84.8379 201.116 -84.5806 200.57C-84.3233 200.023 -83.9503 199.539 -83.4876 199.152L-36.1835 161.551C-32.6105 158.696 -28.169 157.15 -23.5967 157.17L-4.85165 157.239C-2.22673 157.247 0.370796 157.773 2.79256 158.786C5.21433 159.8 7.41286 161.28 9.26255 163.144C11.1122 165.008 12.5768 167.218 13.5727 169.648C14.5685 172.078 15.0761 174.681 15.0663 177.308ZM-14.7373 295.829L-5.36481 295.863C-2.20151 295.878 0.838379 294.636 3.08815 292.411C5.33793 290.186 6.61392 287.159 6.63629 283.993L7.03132 177.278C7.03506 174.11 5.78302 171.07 3.5498 168.824C1.31658 166.579 -1.71552 165.311 -4.88149 165.299L-23.6466 165.23C-26.3842 165.256 -29.0349 166.195 -31.1788 167.899L-73.1674 201.263C-64.5911 205.486 -57.3757 212.038 -52.3462 220.172C-47.3167 228.305 -44.6763 237.691 -44.727 247.255C-44.7285 247.667 -44.7299 248.04 -44.7316 248.503C-44.7196 248.68 -44.7202 248.858 -44.7335 249.036L-44.8622 283.803C-44.8587 284.957 -44.6972 286.105 -44.3821 287.216C-43.7867 288.955 -42.8527 290.559 -41.6341 291.935C-40.535 293.136 -39.1996 294.095 -37.7119 294.753C-36.2241 295.412 -34.6163 295.755 -32.9896 295.761L-15.7228 295.825C-15.5803 295.796 -15.4356 295.78 -15.2902 295.776C-15.1046 295.774 -14.9193 295.792 -14.7373 295.829Z" fill="#EAEAEA" fill-opacity="0.2"/>
<path d="M-26.8829 408.168L-27.2777 514.833C-27.284 520.129 -25.1903 525.212 -21.4561 528.965C-17.7218 532.718 -12.6522 534.835 -7.35956 534.852L20.2652 534.954C22.9899 534.961 25.6868 534.407 28.1888 533.327C30.6908 532.248 32.9444 530.665 34.81 528.678L34.9312 528.548C36.7908 526.481 38.2339 524.074 39.1811 521.459L39.3232 521.128C39.9521 519.178 40.2751 517.142 40.2807 515.094L40.416 478.546C40.447 469.472 43.3449 460.641 48.6951 453.316C54.0453 445.99 61.5737 440.546 70.2035 437.76C70.9067 437.542 71.5367 437.135 72.0246 436.583C72.5125 436.031 72.8397 435.356 72.9705 434.631C72.9809 434.524 72.9813 434.416 72.9717 434.309L72.9732 433.917C72.9734 433.313 72.8423 432.716 72.5891 432.167C72.3358 431.619 71.9665 431.133 71.5066 430.741L24.4822 392.791C20.9304 389.91 16.5005 388.331 11.9282 388.317L-6.81687 388.248C-9.44178 388.237 -12.0431 388.743 -14.4723 389.738C-16.9015 390.734 -19.111 392.198 -20.9744 394.048C-22.8378 395.898 -24.3188 398.097 -25.3326 400.52C-26.3464 402.943 -26.8732 405.542 -26.8829 408.168ZM2.0425 526.907L-7.33002 526.872C-10.4933 526.863 -13.524 525.599 -15.7572 523.357C-17.9904 521.115 -19.244 518.079 -19.2429 514.913L-18.8479 408.198C-18.8282 405.03 -17.5536 401.999 -15.3039 399.77C-13.0541 397.541 -10.0127 396.296 -6.8467 396.308L11.9184 396.377C14.6558 396.424 17.2994 397.382 19.4306 399.102L61.1711 432.776C52.5638 436.935 45.3 443.434 40.2105 451.53C35.1209 459.626 32.4111 468.992 32.3909 478.556C32.3894 478.969 32.388 479.341 32.3863 479.804C32.373 479.982 32.3723 480.16 32.3843 480.337L32.2556 515.104C32.2435 516.258 32.0735 517.406 31.7502 518.514C31.1419 520.249 30.1961 521.846 28.9673 523.213C27.8594 524.405 26.5169 525.354 25.0244 526.002C23.5318 526.649 21.9215 526.98 20.2948 526.974L3.02802 526.91C2.88573 526.88 2.74111 526.863 2.59579 526.858C2.41018 526.855 2.22473 526.871 2.0425 526.907Z" fill="#EAEAEA" fill-opacity="0.2"/>
<path d="M-26.8829 408.168L-27.2777 514.833C-27.284 520.129 -25.1903 525.212 -21.4561 528.965C-17.7218 532.718 -12.6522 534.835 -7.35956 534.852L20.2652 534.954C22.9899 534.961 25.6868 534.407 28.1888 533.327C30.6908 532.248 32.9444 530.665 34.81 528.678L34.9312 528.548C36.7908 526.481 38.2339 524.074 39.1811 521.459L39.3232 521.128C39.9521 519.178 40.2751 517.142 40.2807 515.094L40.416 478.546C40.447 469.472 43.3449 460.641 48.6951 453.316C54.0453 445.99 61.5737 440.546 70.2035 437.76C70.9067 437.542 71.5367 437.135 72.0246 436.583C72.5125 436.031 72.8397 435.356 72.9705 434.631C72.9809 434.524 72.9813 434.416 72.9717 434.309L72.9732 433.917C72.9734 433.313 72.8423 432.716 72.5891 432.167C72.3358 431.619 71.9665 431.133 71.5066 430.741L24.4822 392.791C20.9304 389.91 16.5005 388.331 11.9282 388.317L-6.81687 388.248C-9.44178 388.237 -12.0431 388.743 -14.4723 389.738C-16.9015 390.734 -19.111 392.198 -20.9744 394.048C-22.8378 395.898 -24.3188 398.097 -25.3326 400.52C-26.3464 402.943 -26.8732 405.542 -26.8829 408.168ZM2.0425 526.907L-7.33002 526.872C-10.4933 526.863 -13.524 525.599 -15.7572 523.357C-17.9904 521.115 -19.244 518.079 -19.2429 514.913L-18.8479 408.198C-18.8282 405.03 -17.5536 401.999 -15.3039 399.77C-13.0541 397.541 -10.0127 396.296 -6.8467 396.308L11.9184 396.377C14.6558 396.424 17.2994 397.382 19.4306 399.102L61.1711 432.776C52.5638 436.935 45.3 443.434 40.2105 451.53C35.1209 459.626 32.4111 468.992 32.3909 478.556C32.3894 478.969 32.388 479.341 32.3863 479.804C32.373 479.982 32.3723 480.16 32.3843 480.337L32.2556 515.104C32.2435 516.258 32.0735 517.406 31.7502 518.514C31.1419 520.249 30.1961 521.846 28.9673 523.213C27.8594 524.405 26.5169 525.354 25.0244 526.002C23.5318 526.649 21.9215 526.98 20.2948 526.974L3.02802 526.91C2.88573 526.88 2.74111 526.863 2.59579 526.858C2.41018 526.855 2.22473 526.871 2.0425 526.907Z" fill="#EAEAEA" fill-opacity="0.2"/>
<path d="M48.3651 486.181C48.3166 495.253 51.6812 503.977 57.7256 510.45C63.7701 516.923 72.0044 520.621 80.6339 520.739L81.2516 520.741C87.8351 520.728 94.2619 518.624 99.6904 514.706C105.119 510.788 109.296 505.239 111.674 498.785C114.053 492.331 114.522 485.273 113.02 478.535C111.518 471.797 108.116 465.694 103.258 461.025C103.126 460.862 103.016 460.78 103.016 460.804L102.785 460.606L102.664 460.501L102.532 460.373L100.168 458.404C100.037 458.244 99.8852 458.103 99.7174 457.985C94.8134 454.421 89.0759 452.333 83.1243 451.946C77.1728 451.559 71.2331 452.889 65.9465 455.791C60.6599 458.693 56.2272 463.057 53.1268 468.413C50.0264 473.769 48.3761 479.913 48.354 486.181L48.3651 486.181ZM97.2875 467.809C100.824 471.226 103.3 475.682 104.394 480.598C105.488 485.515 105.15 490.664 103.422 495.377C101.695 500.09 98.6593 504.148 94.7094 507.023C90.7595 509.899 86.0784 511.458 81.2748 511.5L80.7564 511.498C74.489 511.306 68.5435 508.541 64.1948 503.794C59.8461 499.048 57.4405 492.698 57.4937 486.107C57.547 479.516 60.0549 473.209 64.4797 468.537C68.9045 463.865 74.8939 461.202 81.1635 461.117C85.9503 461.134 90.62 462.671 94.5603 465.527L97.0455 467.623L97.2765 467.786L97.2875 467.809Z" fill="#EAEAEA" fill-opacity="0.2"/>
<path d="M48.3651 486.181C48.3166 495.253 51.6812 503.977 57.7256 510.45C63.7701 516.923 72.0044 520.621 80.6339 520.739L81.2516 520.741C87.8351 520.728 94.2619 518.624 99.6904 514.706C105.119 510.788 109.296 505.239 111.674 498.785C114.053 492.331 114.522 485.273 113.02 478.535C111.518 471.797 108.116 465.694 103.258 461.025C103.126 460.862 103.016 460.78 103.016 460.804L102.785 460.606L102.664 460.501L102.532 460.373L100.168 458.404C100.037 458.244 99.8852 458.103 99.7174 457.985C94.8134 454.421 89.0759 452.333 83.1243 451.946C77.1728 451.559 71.2331 452.889 65.9465 455.791C60.6599 458.693 56.2272 463.057 53.1268 468.413C50.0264 473.769 48.3761 479.913 48.354 486.181L48.3651 486.181ZM97.2875 467.809C100.824 471.226 103.3 475.682 104.394 480.598C105.488 485.515 105.15 490.664 103.422 495.377C101.695 500.09 98.6593 504.148 94.7094 507.023C90.7595 509.899 86.0784 511.458 81.2748 511.5L80.7564 511.498C74.489 511.306 68.5435 508.541 64.1948 503.794C59.8461 499.048 57.4405 492.698 57.4937 486.107C57.547 479.516 60.0549 473.209 64.4797 468.537C68.9045 463.865 74.8939 461.202 81.1635 461.117C85.9503 461.134 90.62 462.671 94.5603 465.527L97.0455 467.623L97.2765 467.786L97.2875 467.809Z" fill="#EAEAEA" fill-opacity="0.2"/>
<path d="M99.191 554.282L98.7931 661.755C98.7599 667.091 96.605 672.196 92.8014 675.95C88.9977 679.703 83.856 681.799 78.5046 681.776L50.5729 681.673C47.818 681.659 45.0953 681.081 42.5736 679.974C40.052 678.868 37.7852 677.257 35.9138 675.241L35.7923 675.109C33.9275 673.012 32.4864 670.576 31.5482 667.935L31.407 667.6C30.7857 665.63 30.4743 663.577 30.4839 661.513L30.6203 624.688C30.6567 615.546 27.7927 606.627 22.438 599.206C17.0832 591.785 9.51204 586.243 0.807451 583.372C0.098006 583.147 -0.535846 582.732 -1.02505 582.172C-1.51425 581.613 -1.84003 580.93 -1.96688 580.198C-1.97654 580.09 -1.97614 579.982 -1.96568 579.874L-1.96422 579.479C-1.95991 578.87 -1.82294 578.27 -1.56281 577.719C-1.30267 577.169 -0.925574 576.681 -0.457686 576.29L47.3715 538.405C50.9842 535.529 55.475 533.971 60.0981 533.991L79.0514 534.061C81.7055 534.07 84.3319 534.599 86.7806 535.62C89.2293 536.641 91.4523 538.133 93.3225 540.011C95.1928 541.889 96.6737 544.116 97.6806 546.564C98.6876 549.013 99.2008 551.636 99.191 554.282ZM69.0577 673.701L78.5344 673.736C81.7328 673.75 84.8065 672.499 87.0812 670.257C89.356 668.015 90.6461 664.965 90.6687 661.776L91.0667 554.252C91.0704 551.06 89.8044 547.997 87.5464 545.734C85.2883 543.472 82.2225 542.194 79.0214 542.182L60.0477 542.112C57.2797 542.138 54.5996 543.085 52.4319 544.801L9.97719 578.418C18.6488 582.672 25.9445 589.275 31.03 597.47C36.1154 605.665 38.7853 615.122 38.7342 624.758C38.7327 625.174 38.7313 625.549 38.7296 626.016C38.7417 626.195 38.7411 626.374 38.7276 626.553L38.5979 661.583C38.6015 662.746 38.7649 663.903 39.0834 665.022C39.6855 666.775 40.6299 668.391 41.8621 669.778C42.9733 670.987 44.3236 671.954 45.8279 672.617C47.3322 673.28 48.9578 673.626 50.6026 673.632L68.0613 673.697C68.2053 673.668 68.3517 673.651 68.4987 673.648C68.6863 673.646 68.8737 673.664 69.0577 673.701Z" fill="#EAEAEA" fill-opacity="0.2"/>
<path d="M99.191 554.282L98.7931 661.755C98.7599 667.091 96.605 672.196 92.8014 675.95C88.9977 679.703 83.856 681.799 78.5046 681.776L50.5729 681.673C47.818 681.659 45.0953 681.081 42.5736 679.974C40.052 678.868 37.7852 677.257 35.9138 675.241L35.7923 675.109C33.9275 673.012 32.4864 670.576 31.5482 667.935L31.407 667.6C30.7857 665.63 30.4743 663.577 30.4839 661.513L30.6203 624.688C30.6567 615.546 27.7927 606.627 22.438 599.206C17.0832 591.785 9.51204 586.243 0.807451 583.372C0.098006 583.147 -0.535846 582.732 -1.02505 582.172C-1.51425 581.613 -1.84003 580.93 -1.96688 580.198C-1.97654 580.09 -1.97614 579.982 -1.96568 579.874L-1.96422 579.479C-1.95991 578.87 -1.82294 578.27 -1.56281 577.719C-1.30267 577.169 -0.925574 576.681 -0.457686 576.29L47.3715 538.405C50.9842 535.529 55.475 533.971 60.0981 533.991L79.0514 534.061C81.7055 534.07 84.3319 534.599 86.7806 535.62C89.2293 536.641 91.4523 538.133 93.3225 540.011C95.1928 541.889 96.6737 544.116 97.6806 546.564C98.6876 549.013 99.2008 551.636 99.191 554.282ZM69.0577 673.701L78.5344 673.736C81.7328 673.75 84.8065 672.499 87.0812 670.257C89.356 668.015 90.6461 664.965 90.6687 661.776L91.0667 554.252C91.0704 551.06 89.8044 547.997 87.5464 545.734C85.2883 543.472 82.2225 542.194 79.0214 542.182L60.0477 542.112C57.2797 542.138 54.5996 543.085 52.4319 544.801L9.97719 578.418C18.6488 582.672 25.9445 589.275 31.03 597.47C36.1154 605.665 38.7853 615.122 38.7342 624.758C38.7327 625.174 38.7313 625.549 38.7296 626.016C38.7417 626.195 38.7411 626.374 38.7276 626.553L38.5979 661.583C38.6015 662.746 38.7649 663.903 39.0834 665.022C39.6855 666.775 40.6299 668.391 41.8621 669.778C42.9733 670.987 44.3236 671.954 45.8279 672.617C47.3322 673.28 48.9578 673.626 50.6026 673.632L68.0613 673.697C68.2053 673.668 68.3517 673.651 68.4987 673.648C68.6863 673.646 68.8737 673.664 69.0577 673.701Z" fill="#EAEAEA" fill-opacity="0.2"/>
<path d="M23.372 631.029C23.3542 639.955 19.868 648.512 13.6733 654.836C7.47865 661.16 -0.92236 664.738 -9.69882 664.79L-10.327 664.787C-17.0218 664.725 -23.5418 662.608 -29.0331 658.713C-34.5243 654.818 -38.7308 649.328 -41.1017 642.96C-43.4726 636.593 -43.8974 629.645 -42.3204 623.027C-40.7433 616.41 -37.238 610.43 -32.2635 605.873C-32.1283 605.713 -32.0158 605.634 -32.0159 605.657L-31.7796 605.464L-31.6559 605.361L-31.5208 605.236L-29.1019 603.317C-28.9672 603.16 -28.8119 603.023 -28.6405 602.908C-23.6271 599.438 -17.777 597.426 -11.7219 597.09C-5.66672 596.753 0.363601 598.105 5.71815 600.999C11.0727 603.894 15.5481 608.221 18.6613 613.513C21.7745 618.805 23.4072 624.862 23.3832 631.029L23.372 631.029ZM-26.2422 612.592C-29.8635 615.927 -32.4146 620.293 -33.5637 625.122C-34.7128 629.951 -34.4066 635.019 -32.6851 639.669C-30.9636 644.318 -27.9063 648.333 -23.9109 651.191C-19.9154 654.049 -15.1667 655.619 -10.2821 655.695L-9.75492 655.697C-3.38009 655.555 2.68653 652.878 7.14398 648.24C11.6014 643.603 14.0948 637.373 14.0895 630.889C14.0841 624.404 11.5805 618.179 7.11536 613.55C2.65028 608.922 -3.4207 606.257 -9.79576 606.127C-14.6637 606.108 -19.4238 607.586 -23.452 610.366L-25.9947 612.41L-26.2308 612.569L-26.2422 612.592Z" fill="#EAEAEA" fill-opacity="0.2"/>
<path d="M23.372 631.029C23.3542 639.955 19.868 648.512 13.6733 654.836C7.47865 661.16 -0.92236 664.738 -9.69882 664.79L-10.327 664.787C-17.0218 664.725 -23.5418 662.608 -29.0331 658.713C-34.5243 654.818 -38.7308 649.328 -41.1017 642.96C-43.4726 636.593 -43.8974 629.645 -42.3204 623.027C-40.7433 616.41 -37.238 610.43 -32.2635 605.873C-32.1283 605.713 -32.0158 605.634 -32.0159 605.657L-31.7796 605.464L-31.6559 605.361L-31.5208 605.236L-29.1019 603.317C-28.9672 603.16 -28.8119 603.023 -28.6405 602.908C-23.6271 599.438 -17.777 597.426 -11.7219 597.09C-5.66672 596.753 0.363601 598.105 5.71815 600.999C11.0727 603.894 15.5481 608.221 18.6613 613.513C21.7745 618.805 23.4072 624.862 23.3832 631.029L23.372 631.029ZM-26.2422 612.592C-29.8635 615.927 -32.4146 620.293 -33.5637 625.122C-34.7128 629.951 -34.4066 635.019 -32.6851 639.669C-30.9636 644.318 -27.9063 648.333 -23.9109 651.191C-19.9154 654.049 -15.1667 655.619 -10.2821 655.695L-9.75492 655.697C-3.38009 655.555 2.68653 652.878 7.14398 648.24C11.6014 643.603 14.0948 637.373 14.0895 630.889C14.0841 624.404 11.5805 618.179 7.11536 613.55C2.65028 608.922 -3.4207 606.257 -9.79576 606.127C-14.6637 606.108 -19.4238 607.586 -23.452 610.366L-25.9947 612.41L-26.2308 612.569L-26.2422 612.592Z" fill="#EAEAEA" fill-opacity="0.2"/>
<path d="M67.5021 142.578L173.527 143.355C178.791 143.38 183.85 141.305 187.594 137.585C191.338 133.865 193.461 128.804 193.497 123.513L193.697 95.8937C193.713 93.1696 193.172 90.4712 192.108 87.9658C191.044 85.4605 189.479 83.2016 187.511 81.3292L187.382 81.2077C185.334 79.341 182.946 77.8896 180.351 76.9331L180.022 76.7899C178.086 76.1542 176.064 75.8239 174.027 75.8109L137.698 75.5446C128.68 75.481 119.912 72.5521 112.649 67.1767C105.387 61.8012 100.002 54.2548 97.2639 45.6167C97.0495 44.9128 96.647 44.2816 96.1002 43.7917C95.5534 43.3019 94.8834 42.9724 94.1632 42.839C94.0568 42.8283 93.9496 42.8275 93.8431 42.8366L93.453 42.8338C92.8526 42.8314 92.2589 42.9603 91.713 43.2115C91.1671 43.4627 90.6821 43.8303 90.2915 44.2887L52.4006 91.1677C49.5239 94.7085 47.9387 99.1319 47.9084 103.703L47.7724 122.444C47.7521 125.069 48.2463 127.671 49.227 130.104C50.2076 132.536 51.6553 134.75 53.4875 136.62C55.3197 138.49 57.5004 139.978 59.9051 141C62.3098 142.023 64.8913 142.559 67.5021 142.578ZM185.633 114.084L185.565 123.455C185.544 126.617 184.277 129.643 182.041 131.867C179.804 134.092 176.782 135.335 173.635 135.322L67.5604 134.545C64.4115 134.513 61.4034 133.228 59.1958 130.971C56.9882 128.714 55.7614 125.668 55.7843 122.503L55.9204 103.742C55.9762 101.005 56.9388 98.3656 58.6556 96.241L92.2771 54.6295C96.3806 63.25 102.815 70.5356 110.844 75.6532C118.873 80.7708 128.173 83.5137 137.68 83.5681C138.09 83.5711 138.46 83.5739 138.921 83.5772C139.097 83.5912 139.274 83.5925 139.451 83.5811L174.009 83.8345C175.156 83.8507 176.296 84.0248 177.396 84.352C179.118 84.9664 180.703 85.9178 182.057 87.1512C183.238 88.2632 184.177 89.6088 184.815 91.1034C185.453 92.598 185.777 94.2091 185.765 95.8355L185.64 113.099C185.61 113.241 185.592 113.385 185.587 113.531C185.583 113.716 185.598 113.902 185.633 114.084Z" fill="#EAEAEA" fill-opacity="0.2"/>
<path d="M67.5021 142.578L173.527 143.355C178.791 143.38 183.85 141.305 187.594 137.585C191.338 133.865 193.461 128.804 193.497 123.513L193.697 95.8937C193.713 93.1696 193.172 90.4712 192.108 87.9658C191.044 85.4605 189.479 83.2016 187.511 81.3292L187.382 81.2077C185.334 79.341 182.946 77.8896 180.351 76.9331L180.022 76.7899C178.086 76.1542 176.064 75.8239 174.027 75.8109L137.698 75.5446C128.68 75.481 119.912 72.5521 112.649 67.1767C105.387 61.8012 100.002 54.2548 97.2639 45.6167C97.0495 44.9128 96.647 44.2816 96.1002 43.7917C95.5534 43.3019 94.8834 42.9724 94.1632 42.839C94.0568 42.8283 93.9496 42.8275 93.8431 42.8366L93.453 42.8338C92.8526 42.8314 92.2589 42.9603 91.713 43.2115C91.1671 43.4627 90.6821 43.8303 90.2915 44.2887L52.4006 91.1677C49.5239 94.7085 47.9387 99.1319 47.9084 103.703L47.7724 122.444C47.7521 125.069 48.2463 127.671 49.227 130.104C50.2076 132.536 51.6553 134.75 53.4875 136.62C55.3197 138.49 57.5004 139.978 59.9051 141C62.3098 142.023 64.8913 142.559 67.5021 142.578ZM185.633 114.084L185.565 123.455C185.544 126.617 184.277 129.643 182.041 131.867C179.804 134.092 176.782 135.335 173.635 135.322L67.5604 134.545C64.4115 134.513 61.4034 133.228 59.1958 130.971C56.9882 128.714 55.7614 125.668 55.7843 122.503L55.9204 103.742C55.9762 101.005 56.9388 98.3656 58.6556 96.241L92.2771 54.6295C96.3806 63.25 102.815 70.5356 110.844 75.6532C118.873 80.7708 128.173 83.5137 137.68 83.5681C138.09 83.5711 138.46 83.5739 138.921 83.5772C139.097 83.5912 139.274 83.5925 139.451 83.5811L174.009 83.8345C175.156 83.8507 176.296 84.0248 177.396 84.352C179.118 84.9664 180.703 85.9178 182.057 87.1512C183.238 88.2632 184.177 89.6088 184.815 91.1034C185.453 92.598 185.777 94.2091 185.765 95.8355L185.64 113.099C185.61 113.241 185.592 113.385 185.587 113.531C185.583 113.716 185.598 113.902 185.633 114.084Z" fill="#EAEAEA" fill-opacity="0.2"/>
<path d="M144.448 67.7363C153.362 67.8168 161.946 64.4259 168.329 58.3025C174.712 52.1791 178.376 43.8196 178.524 35.0459L178.529 34.4179C178.54 27.724 176.497 21.1823 172.668 15.6495C168.839 10.1167 163.402 5.85074 157.069 3.41024C150.736 0.969738 143.803 0.468518 137.177 1.97222C130.551 3.47593 124.542 6.91445 119.936 11.8375C119.776 11.9709 119.695 12.0824 119.718 12.0826L119.522 12.3167L119.419 12.4393L119.293 12.573L117.35 14.9701C117.191 15.103 117.052 15.2567 116.936 15.4269C113.416 20.4008 111.343 26.2272 110.94 32.2771C110.538 38.3271 111.822 44.3708 114.654 49.7559C117.485 55.141 121.757 59.663 127.008 62.8337C132.259 66.0044 138.289 67.7035 144.448 67.7475L144.448 67.7363ZM126.58 17.9314C129.95 14.3476 134.338 11.8453 139.173 10.7498C144.007 9.65422 149.066 10.0161 153.69 11.7885C158.314 13.5608 162.29 16.6616 165.1 20.6875C167.911 24.7135 169.426 29.4783 169.449 34.3625L169.445 34.8896C169.233 41.2612 166.493 47.2968 161.813 51.7021C157.133 56.1073 150.885 58.5314 144.41 58.4545C137.934 58.3777 131.746 55.8061 127.172 51.2911C122.598 46.7761 120.004 40.6773 119.944 34.3024C119.978 29.4355 121.506 24.6928 124.327 20.6963L126.396 18.1768L126.557 17.9424L126.58 17.9314Z" fill="#EAEAEA" fill-opacity="0.2"/>
<path d="M144.448 67.7363C153.362 67.8168 161.946 64.4259 168.329 58.3025C174.712 52.1791 178.376 43.8196 178.524 35.0459L178.529 34.4179C178.54 27.724 176.497 21.1823 172.668 15.6495C168.839 10.1167 163.402 5.85074 157.069 3.41024C150.736 0.969738 143.803 0.468518 137.177 1.97222C130.551 3.47593 124.542 6.91445 119.936 11.8375C119.776 11.9709 119.695 12.0824 119.718 12.0826L119.522 12.3167L119.419 12.4393L119.293 12.573L117.35 14.9701C117.191 15.103 117.052 15.2567 116.936 15.4269C113.416 20.4008 111.343 26.2272 110.94 32.2771C110.538 38.3271 111.822 44.3708 114.654 49.7559C117.485 55.141 121.757 59.663 127.008 62.8337C132.259 66.0044 138.289 67.7035 144.448 67.7475L144.448 67.7363ZM126.58 17.9314C129.95 14.3476 134.338 11.8453 139.173 10.7498C144.007 9.65422 149.066 10.0161 153.69 11.7885C158.314 13.5608 162.29 16.6616 165.1 20.6875C167.911 24.7135 169.426 29.4783 169.449 34.3625L169.445 34.8896C169.233 41.2612 166.493 47.2968 161.813 51.7021C157.133 56.1073 150.885 58.5314 144.41 58.4545C137.934 58.3777 131.746 55.8061 127.172 51.2911C122.598 46.7761 120.004 40.6773 119.944 34.3024C119.978 29.4355 121.506 24.6928 124.327 20.6963L126.396 18.1768L126.557 17.9424L126.58 17.9314Z" fill="#EAEAEA" fill-opacity="0.2"/>
<path d="M138.822 560.134L244.847 560.912C250.111 560.937 255.171 558.862 258.915 555.142C262.658 551.422 264.781 546.361 264.817 541.069L265.017 513.45C265.033 510.726 264.493 508.028 263.429 505.522C262.364 503.017 260.8 500.758 258.831 498.886L258.702 498.764C256.654 496.898 254.267 495.446 251.671 494.49L251.342 494.347C249.406 493.711 247.384 493.381 245.347 493.368L209.019 493.101C200 493.038 191.232 490.109 183.97 484.733C176.707 479.358 171.322 471.811 168.584 463.173C168.37 462.469 167.967 461.838 167.421 461.348C166.874 460.859 166.204 460.529 165.483 460.396C165.377 460.385 165.27 460.384 165.163 460.393L164.773 460.39C164.173 460.388 163.579 460.517 163.033 460.768C162.487 461.019 162.002 461.387 161.612 461.845L123.721 508.724C120.844 512.265 119.259 516.689 119.229 521.26L119.093 540.001C119.072 542.625 119.567 545.228 120.547 547.66C121.528 550.093 122.976 552.307 124.808 554.177C126.64 556.046 128.821 557.535 131.225 558.557C133.63 559.579 136.212 560.115 138.822 560.134ZM256.953 531.641L256.885 541.011C256.865 544.174 255.597 547.199 253.361 549.424C251.125 551.649 248.102 552.891 244.956 552.879L138.881 552.101C135.732 552.07 132.724 550.785 130.516 548.528C128.308 546.27 127.082 543.225 127.105 540.06L127.241 521.299C127.297 518.562 128.259 515.922 129.976 513.798L163.597 472.186C167.701 480.807 174.135 488.092 182.164 493.21C190.194 498.327 199.494 501.07 209.001 501.125C209.411 501.128 209.781 501.131 210.241 501.134C210.417 501.148 210.594 501.149 210.771 501.138L245.329 501.391C246.476 501.407 247.616 501.581 248.716 501.909C250.439 502.523 252.023 503.474 253.377 504.708C254.558 505.82 255.497 507.165 256.135 508.66C256.774 510.155 257.097 511.766 257.085 513.392L256.96 530.655C256.93 530.797 256.912 530.942 256.907 531.087C256.903 531.273 256.918 531.458 256.953 531.641Z" fill="#EAEAEA" fill-opacity="0.2"/>
<path d="M215.769 485.293C224.682 485.373 233.266 481.983 239.649 475.859C246.032 469.736 249.697 461.376 249.845 452.603L249.849 451.974C249.86 445.281 247.817 438.739 243.988 433.206C240.159 427.673 234.722 423.407 228.389 420.967C222.056 418.526 215.123 418.025 208.498 419.529C201.872 421.033 195.862 424.471 191.256 429.394C191.096 429.528 191.015 429.639 191.038 429.639L190.843 429.873L190.739 429.996L190.613 430.13L188.67 432.527C188.512 432.66 188.373 432.813 188.257 432.984C184.736 437.957 182.663 443.784 182.261 449.834C181.858 455.884 183.142 461.927 185.974 467.313C188.806 472.698 193.077 477.22 198.328 480.39C203.579 483.561 209.609 485.26 215.768 485.304L215.769 485.293ZM197.9 435.488C201.27 431.904 205.658 429.402 210.493 428.306C215.328 427.211 220.386 427.573 225.01 429.345C229.634 431.117 233.61 434.218 236.42 438.244C239.231 442.27 240.746 447.035 240.769 451.919L240.765 452.446C240.553 458.818 237.814 464.853 233.134 469.259C228.454 473.664 222.206 476.088 215.73 476.011C209.254 475.934 203.066 473.363 198.492 468.848C193.919 464.333 191.324 458.234 191.264 451.859C191.299 446.992 192.826 442.249 195.647 438.253L197.716 435.733L197.877 435.499L197.9 435.488Z" fill="#EAEAEA" fill-opacity="0.2"/>
<path d="M335.623 23.2029L229.598 22.4256C224.334 22.4003 219.275 24.4754 215.531 28.1954C211.787 31.9155 209.664 36.9766 209.628 42.2681L209.428 69.8871C209.412 72.6112 209.953 75.3096 211.017 77.8149C212.081 80.3203 213.646 82.5792 215.614 84.4515L215.743 84.5731C217.791 86.4398 220.179 87.8912 222.774 88.8476L223.103 88.9908C225.039 89.6266 227.061 89.9569 229.098 89.9699L265.427 90.2362C274.445 90.2997 283.213 93.2287 290.476 98.6041C297.738 103.98 303.123 111.526 305.861 120.164C306.076 120.868 306.478 121.499 307.025 121.989C307.572 122.479 308.242 122.808 308.962 122.942C309.068 122.952 309.175 122.953 309.282 122.944L309.672 122.947C310.272 122.949 310.866 122.82 311.412 122.569C311.958 122.318 312.443 121.95 312.833 121.492L350.724 74.613C353.601 71.0723 355.186 66.6489 355.217 62.0775L355.353 43.3364C355.373 40.7121 354.879 38.1094 353.898 35.6771C352.917 33.2448 351.47 31.0306 349.637 29.1609C347.805 27.2912 345.625 25.8026 343.22 24.7803C340.815 23.7581 338.234 23.222 335.623 23.2029ZM217.492 51.6968L217.56 42.3262C217.581 39.1636 218.848 36.1381 221.084 33.9133C223.321 31.6886 226.343 30.4461 229.49 30.4586L335.565 31.2362C338.714 31.2673 341.722 32.5524 343.929 34.8098C346.137 37.0671 347.364 40.1124 347.341 43.2777L347.205 62.0389C347.149 64.7755 346.186 67.4152 344.469 69.5398L310.848 111.151C306.744 102.531 300.31 95.2451 292.281 90.1275C284.252 85.01 274.952 82.2671 265.445 82.2126C265.035 82.2096 264.665 82.2069 264.204 82.2035C264.028 82.1896 263.851 82.1883 263.674 82.1996L229.116 81.9463C227.969 81.9301 226.829 81.756 225.729 81.4288C224.007 80.8144 222.422 79.863 221.068 78.6295C219.887 77.5176 218.948 76.172 218.31 74.6774C217.672 73.1828 217.348 71.5716 217.36 69.9452L217.485 52.6821C217.515 52.5399 217.533 52.3954 217.538 52.2501C217.542 52.0646 217.527 51.8791 217.492 51.6968Z" fill="#EAEAEA" fill-opacity="0.2"/>
<path d="M335.623 23.2029L229.598 22.4256C224.334 22.4003 219.275 24.4754 215.531 28.1954C211.787 31.9155 209.664 36.9766 209.628 42.2681L209.428 69.8871C209.412 72.6112 209.953 75.3096 211.017 77.8149C212.081 80.3203 213.646 82.5792 215.614 84.4515L215.743 84.5731C217.791 86.4398 220.179 87.8912 222.774 88.8476L223.103 88.9908C225.039 89.6266 227.061 89.9569 229.098 89.9699L265.427 90.2362C274.445 90.2997 283.213 93.2287 290.476 98.6041C297.738 103.98 303.123 111.526 305.861 120.164C306.076 120.868 306.478 121.499 307.025 121.989C307.572 122.479 308.242 122.808 308.962 122.942C309.068 122.952 309.175 122.953 309.282 122.944L309.672 122.947C310.272 122.949 310.866 122.82 311.412 122.569C311.958 122.318 312.443 121.95 312.833 121.492L350.724 74.613C353.601 71.0723 355.186 66.6489 355.217 62.0775L355.353 43.3364C355.373 40.7121 354.879 38.1094 353.898 35.6771C352.917 33.2448 351.47 31.0306 349.637 29.1609C347.805 27.2912 345.625 25.8026 343.22 24.7803C340.815 23.7581 338.234 23.222 335.623 23.2029ZM217.492 51.6968L217.56 42.3262C217.581 39.1636 218.848 36.1381 221.084 33.9133C223.321 31.6886 226.343 30.4461 229.49 30.4586L335.565 31.2362C338.714 31.2673 341.722 32.5524 343.929 34.8098C346.137 37.0671 347.364 40.1124 347.341 43.2777L347.205 62.0389C347.149 64.7755 346.186 67.4152 344.469 69.5398L310.848 111.151C306.744 102.531 300.31 95.2451 292.281 90.1275C284.252 85.01 274.952 82.2671 265.445 82.2126C265.035 82.2096 264.665 82.2069 264.204 82.2035C264.028 82.1896 263.851 82.1883 263.674 82.1996L229.116 81.9463C227.969 81.9301 226.829 81.756 225.729 81.4288C224.007 80.8144 222.422 79.863 221.068 78.6295C219.887 77.5176 218.948 76.172 218.31 74.6774C217.672 73.1828 217.348 71.5716 217.36 69.9452L217.485 52.6821C217.515 52.5399 217.533 52.3954 217.538 52.2501C217.542 52.0646 217.527 51.8791 217.492 51.6968Z" fill="#EAEAEA" fill-opacity="0.2"/>
<path d="M258.673 98.0449C249.759 97.9644 241.175 101.355 234.792 107.479C228.409 113.602 224.745 121.962 224.597 130.735L224.592 131.363C224.581 138.057 226.624 144.599 230.453 150.132C234.282 155.665 239.719 159.931 246.052 162.371C252.385 164.812 259.318 165.313 265.944 163.809C272.57 162.305 278.579 158.867 283.185 153.944C283.345 153.81 283.426 153.699 283.403 153.699L283.599 153.465L283.702 153.342L283.828 153.208L285.771 150.811C285.93 150.678 286.069 150.525 286.185 150.354C289.705 145.38 291.778 139.554 292.181 133.504C292.583 127.454 291.299 121.41 288.467 116.025C285.636 110.64 281.364 106.118 276.113 102.948C270.862 99.7768 264.832 98.0777 258.673 98.0337L258.673 98.0449ZM276.541 147.85C273.171 151.434 268.783 153.936 263.949 155.031C259.114 156.127 254.055 155.765 249.431 153.993C244.807 152.22 240.831 149.12 238.021 145.094C235.211 141.068 233.695 136.303 233.673 131.419L233.676 130.892C233.888 124.52 236.628 118.484 241.308 114.079C245.988 109.674 252.236 107.25 258.711 107.327C265.187 107.404 271.375 109.975 275.949 114.49C280.523 119.005 283.117 125.104 283.177 131.479C283.143 136.346 281.615 141.088 278.794 145.085L276.725 147.604L276.564 147.839L276.541 147.85Z" fill="#EAEAEA" fill-opacity="0.2"/>
<path d="M258.673 98.0449C249.759 97.9644 241.175 101.355 234.792 107.479C228.409 113.602 224.745 121.962 224.597 130.735L224.592 131.363C224.581 138.057 226.624 144.599 230.453 150.132C234.282 155.665 239.719 159.931 246.052 162.371C252.385 164.812 259.318 165.313 265.944 163.809C272.57 162.305 278.579 158.867 283.185 153.944C283.345 153.81 283.426 153.699 283.403 153.699L283.599 153.465L283.702 153.342L283.828 153.208L285.771 150.811C285.93 150.678 286.069 150.525 286.185 150.354C289.705 145.38 291.778 139.554 292.181 133.504C292.583 127.454 291.299 121.41 288.467 116.025C285.636 110.64 281.364 106.118 276.113 102.948C270.862 99.7768 264.832 98.0777 258.673 98.0337L258.673 98.0449ZM276.541 147.85C273.171 151.434 268.783 153.936 263.949 155.031C259.114 156.127 254.055 155.765 249.431 153.993C244.807 152.22 240.831 149.12 238.021 145.094C235.211 141.068 233.695 136.303 233.673 131.419L233.676 130.892C233.888 124.52 236.628 118.484 241.308 114.079C245.988 109.674 252.236 107.25 258.711 107.327C265.187 107.404 271.375 109.975 275.949 114.49C280.523 119.005 283.117 125.104 283.177 131.479C283.143 136.346 281.615 141.088 278.794 145.085L276.725 147.604L276.564 147.839L276.541 147.85Z" fill="#EAEAEA" fill-opacity="0.2"/>
</g>
<g opacity="0.5">
<path d="M-37.7579 1369.97C-37.8061 1361.05 -34.3834 1352.46 -28.2357 1346.09C-22.088 1339.72 -13.7137 1336.08 -4.9379 1335.97L-4.30973 1335.97C2.38536 1335.98 8.92085 1338.05 14.4408 1341.9C19.9607 1345.76 24.2078 1351.21 26.6258 1357.56C29.0438 1363.91 29.5199 1370.86 27.9919 1377.49C26.4639 1384.12 23.003 1390.12 18.0624 1394.72C17.9283 1394.88 17.8165 1394.96 17.8164 1394.93L17.5815 1395.13L17.4585 1395.23L17.3244 1395.36L14.9198 1397.29C14.7862 1397.45 14.632 1397.59 14.4614 1397.71C9.47378 1401.21 3.63882 1403.27 -2.41369 1403.65C-8.46619 1404.03 -14.5064 1402.73 -19.8822 1399.87C-25.258 1397.02 -29.7653 1392.72 -32.9176 1387.45C-36.0699 1382.18 -37.7474 1376.14 -37.7691 1369.97L-37.7579 1369.97ZM11.9914 1388.04C15.588 1384.68 18.1067 1380.3 19.22 1375.46C20.3333 1370.62 19.9896 1365.55 18.2337 1360.92C16.4778 1356.28 13.3909 1352.29 9.37444 1349.46C5.35794 1346.63 0.597705 1345.1 -4.28726 1345.06L-4.81448 1345.06C-11.1881 1345.25 -17.2347 1347.97 -21.6577 1352.64C-26.0807 1357.31 -28.5279 1363.56 -28.4745 1370.04C-28.4212 1376.53 -25.8715 1382.73 -21.3723 1387.33C-16.873 1391.93 -10.7825 1394.55 -4.40666 1394.63C0.461273 1394.61 5.21033 1393.1 9.21778 1390.29L11.7453 1388.23L11.9803 1388.06L11.9914 1388.04Z" fill="#EAEAEA" fill-opacity="0.2"/>
<path d="M28.2188 1194.8L28.6137 1301.46C28.6463 1306.76 30.7306 1311.82 34.4093 1315.55C38.0879 1319.27 43.0603 1321.35 48.2352 1321.33L75.2461 1321.23C77.9102 1321.22 80.5431 1320.65 82.9815 1319.55C85.4199 1318.45 87.6118 1316.85 89.4214 1314.85L89.5389 1314.72C91.342 1312.64 92.7353 1310.22 93.6424 1307.6L93.7788 1307.27C94.3795 1305.31 94.6804 1303.27 94.6709 1301.23L94.5356 1264.68C94.4995 1255.6 97.2682 1246.75 102.446 1239.39C107.623 1232.02 114.944 1226.52 123.362 1223.68C124.048 1223.45 124.661 1223.04 125.134 1222.49C125.607 1221.93 125.922 1221.25 126.044 1220.53C126.054 1220.42 126.053 1220.31 126.043 1220.2L126.042 1219.81C126.037 1219.21 125.905 1218.61 125.653 1218.07C125.402 1217.52 125.037 1217.04 124.584 1216.65L78.3285 1179.04C74.8347 1176.19 70.4917 1174.64 66.021 1174.66L47.6925 1174.73C45.126 1174.74 42.5862 1175.26 40.2183 1176.27C37.8505 1177.29 35.7009 1178.77 33.8925 1180.63C32.084 1182.5 30.6522 1184.71 29.6787 1187.14C28.7051 1189.57 28.2091 1192.17 28.2188 1194.8ZM57.3699 1313.32L48.2057 1313.35C45.1127 1313.37 42.1403 1312.12 39.9403 1309.9C37.7403 1307.67 36.4924 1304.65 36.4703 1301.48L36.0753 1194.77C36.0714 1191.6 37.2953 1188.56 39.4787 1186.31C41.6622 1184.07 44.6268 1182.8 47.7224 1182.79L66.0705 1182.72C68.7473 1182.75 71.3391 1183.69 73.4355 1185.39L114.494 1218.76C106.108 1222.98 99.0539 1229.53 94.1368 1237.66C89.2198 1245.8 86.6389 1255.18 86.6891 1264.75C86.6907 1265.16 86.692 1265.53 86.6938 1266C86.682 1266.17 86.6827 1266.35 86.6957 1266.53L86.8244 1301.3C86.8211 1302.45 86.6632 1303.6 86.3553 1304.71C85.7732 1306.45 84.8601 1308.05 83.6686 1309.43C82.5941 1310.63 81.2885 1311.59 79.8339 1312.25C78.3792 1312.9 76.8072 1313.25 75.2166 1313.25L58.3336 1313.32C58.1942 1313.29 58.0527 1313.27 57.9106 1313.27C57.7291 1313.26 57.5479 1313.28 57.3699 1313.32Z" fill="#EAEAEA" fill-opacity="0.2"/>
<path d="M101.821 1272.26C101.84 1281.33 105.384 1290.03 111.682 1296.45C117.98 1302.88 126.521 1306.52 135.443 1306.57L136.082 1306.57C142.888 1306.51 149.517 1304.35 155.1 1300.39C160.683 1296.44 164.959 1290.86 167.37 1284.38C169.78 1277.91 170.212 1270.85 168.609 1264.12C167.005 1257.4 163.442 1251.32 158.384 1246.69C158.247 1246.53 158.132 1246.45 158.133 1246.47L157.892 1246.27L157.766 1246.17L157.629 1246.04L155.17 1244.09C155.033 1243.93 154.875 1243.79 154.701 1243.68C149.604 1240.15 143.656 1238.1 137.5 1237.76C131.344 1237.42 125.213 1238.79 119.77 1241.74C114.326 1244.68 109.776 1249.07 106.611 1254.45C103.446 1259.83 101.786 1265.99 101.81 1272.26L101.821 1272.26ZM152.263 1253.52C155.944 1256.91 158.538 1261.34 159.706 1266.25C160.874 1271.16 160.563 1276.31 158.813 1281.04C157.063 1285.76 153.954 1289.84 149.892 1292.75C145.83 1295.65 141.002 1297.25 136.036 1297.33L135.5 1297.33C129.019 1297.18 122.852 1294.46 118.32 1289.75C113.788 1285.04 111.253 1278.71 111.259 1272.11C111.264 1265.52 113.81 1259.2 118.349 1254.49C122.889 1249.79 129.061 1247.08 135.542 1246.95C140.491 1246.93 145.331 1248.43 149.426 1251.26L152.011 1253.33L152.251 1253.49L152.263 1253.52Z" fill="#EAEAEA" fill-opacity="0.2"/>
<path d="M101.821 1272.26C101.84 1281.33 105.384 1290.03 111.682 1296.45C117.98 1302.88 126.521 1306.52 135.443 1306.57L136.082 1306.57C142.888 1306.51 149.517 1304.35 155.1 1300.39C160.683 1296.44 164.959 1290.86 167.37 1284.38C169.78 1277.91 170.212 1270.85 168.609 1264.12C167.005 1257.4 163.442 1251.32 158.384 1246.69C158.247 1246.53 158.132 1246.45 158.133 1246.47L157.892 1246.27L157.766 1246.17L157.629 1246.04L155.17 1244.09C155.033 1243.93 154.875 1243.79 154.701 1243.68C149.604 1240.15 143.656 1238.1 137.5 1237.76C131.344 1237.42 125.213 1238.79 119.77 1241.74C114.326 1244.68 109.776 1249.07 106.611 1254.45C103.446 1259.83 101.786 1265.99 101.81 1272.26L101.821 1272.26ZM152.263 1253.52C155.944 1256.91 158.538 1261.34 159.706 1266.25C160.874 1271.16 160.563 1276.31 158.813 1281.04C157.063 1285.76 153.954 1289.84 149.892 1292.75C145.83 1295.65 141.002 1297.25 136.036 1297.33L135.5 1297.33C129.019 1297.18 122.852 1294.46 118.32 1289.75C113.788 1285.04 111.253 1278.71 111.259 1272.11C111.264 1265.52 113.81 1259.2 118.349 1254.49C122.889 1249.79 129.061 1247.08 135.542 1246.95C140.491 1246.93 145.331 1248.43 149.426 1251.26L152.011 1253.33L152.251 1253.49L152.263 1253.52Z" fill="#EAEAEA" fill-opacity="0.2"/>
<path d="M116.637 776.862L117.032 883.528C117.064 888.823 119.172 893.89 122.892 897.615C126.613 901.341 131.642 903.421 136.875 903.399L164.193 903.298C166.888 903.284 169.55 902.71 172.017 901.613C174.483 900.515 176.7 898.916 178.53 896.915L178.649 896.784C180.472 894.703 181.882 892.286 182.799 889.664L182.937 889.331C183.545 887.377 183.849 885.339 183.84 883.29L183.704 846.742C183.668 837.669 186.469 828.817 191.705 821.452C196.942 814.088 204.346 808.587 212.86 805.739C213.553 805.515 214.173 805.104 214.652 804.548C215.13 803.993 215.449 803.315 215.573 802.589C215.582 802.482 215.582 802.374 215.572 802.267L215.57 801.875C215.566 801.271 215.432 800.675 215.177 800.129C214.923 799.582 214.554 799.098 214.097 798.71L167.317 761.107C163.783 758.252 159.391 756.706 154.869 756.726L136.333 756.794C133.737 756.803 131.168 757.328 128.773 758.342C126.379 759.355 124.205 760.835 122.376 762.699C120.546 764.563 119.098 766.773 118.114 769.203C117.129 771.633 116.627 774.236 116.637 776.862ZM146.114 895.385L136.846 895.419C133.718 895.433 130.711 894.192 128.487 891.966C126.262 889.741 125 886.714 124.978 883.548L124.583 776.833C124.579 773.665 125.817 770.625 128.025 768.379C130.233 766.134 133.232 764.866 136.362 764.855L154.919 764.786C157.626 764.812 160.248 765.752 162.368 767.455L203.891 800.821C195.41 805.044 188.275 811.596 183.302 819.729C178.329 827.862 175.718 837.248 175.769 846.812C175.77 847.225 175.771 847.597 175.773 848.06C175.761 848.237 175.762 848.416 175.775 848.593L175.904 883.36C175.9 884.514 175.741 885.663 175.429 886.773C174.84 888.512 173.917 890.116 172.712 891.492C171.625 892.693 170.305 893.652 168.833 894.31C167.362 894.969 165.772 895.312 164.164 895.318L147.089 895.381C146.948 895.352 146.805 895.336 146.661 895.332C146.477 895.33 146.294 895.348 146.114 895.385Z" fill="#EAEAEA" fill-opacity="0.2"/>
<path d="M116.637 776.862L117.032 883.528C117.064 888.823 119.172 893.89 122.892 897.615C126.613 901.341 131.642 903.421 136.875 903.399L164.193 903.298C166.888 903.284 169.55 902.71 172.017 901.613C174.483 900.515 176.7 898.916 178.53 896.915L178.649 896.784C180.472 894.703 181.882 892.286 182.799 889.664L182.937 889.331C183.545 887.377 183.849 885.339 183.84 883.29L183.704 846.742C183.668 837.669 186.469 828.817 191.705 821.452C196.942 814.088 204.346 808.587 212.86 805.739C213.553 805.515 214.173 805.104 214.652 804.548C215.13 803.993 215.449 803.315 215.573 802.589C215.582 802.482 215.582 802.374 215.572 802.267L215.57 801.875C215.566 801.271 215.432 800.675 215.177 800.129C214.923 799.582 214.554 799.098 214.097 798.71L167.317 761.107C163.783 758.252 159.391 756.706 154.869 756.726L136.333 756.794C133.737 756.803 131.168 757.328 128.773 758.342C126.379 759.355 124.205 760.835 122.376 762.699C120.546 764.563 119.098 766.773 118.114 769.203C117.129 771.633 116.627 774.236 116.637 776.862ZM146.114 895.385L136.846 895.419C133.718 895.433 130.711 894.192 128.487 891.966C126.262 889.741 125 886.714 124.978 883.548L124.583 776.833C124.579 773.665 125.817 770.625 128.025 768.379C130.233 766.134 133.232 764.866 136.362 764.855L154.919 764.786C157.626 764.812 160.248 765.752 162.368 767.455L203.891 800.821C195.41 805.044 188.275 811.596 183.302 819.729C178.329 827.862 175.718 837.248 175.769 846.812C175.77 847.225 175.771 847.597 175.773 848.06C175.761 848.237 175.762 848.416 175.775 848.593L175.904 883.36C175.9 884.514 175.741 885.663 175.429 886.773C174.84 888.512 173.917 890.116 172.712 891.492C171.625 892.693 170.305 893.652 168.833 894.31C167.362 894.969 165.772 895.312 164.164 895.318L147.089 895.381C146.948 895.352 146.805 895.336 146.661 895.332C146.477 895.33 146.294 895.348 146.114 895.385Z" fill="#EAEAEA" fill-opacity="0.2"/>
<path d="M191.348 854.32C191.367 863.392 194.796 872.09 200.888 878.519C206.981 884.947 215.242 888.584 223.872 888.638L224.49 888.636C231.073 888.573 237.484 886.422 242.883 882.464C248.283 878.506 252.418 872.926 254.749 866.455C257.08 859.983 257.497 852.922 255.945 846.195C254.393 839.469 250.946 833.391 246.054 828.758C245.921 828.596 245.81 828.515 245.81 828.539L245.578 828.342L245.456 828.238L245.323 828.111L242.944 826.161C242.812 826.001 242.659 825.861 242.491 825.745C237.56 822.217 231.808 820.171 225.853 819.829C219.899 819.486 213.969 820.859 208.704 823.8C203.439 826.741 199.039 831.139 195.978 836.517C192.918 841.896 191.313 848.051 191.337 854.32L191.348 854.32ZM240.133 835.586C243.695 838.977 246.204 843.414 247.334 848.323C248.465 853.231 248.165 858.383 246.472 863.108C244.78 867.833 241.774 871.914 237.846 874.818C233.917 877.723 229.248 879.317 224.445 879.394L223.926 879.396C217.658 879.251 211.692 876.53 207.308 871.815C202.924 867.101 200.472 860.77 200.476 854.178C200.481 847.587 202.942 841.261 207.332 836.557C211.722 831.853 217.692 829.145 223.96 829.014C228.747 828.995 233.428 830.497 237.389 833.324L239.89 835.402L240.122 835.563L240.133 835.586Z" fill="#EAEAEA" fill-opacity="0.2"/>
<path d="M168.723 1046.71L169.121 1154.18C169.127 1159.52 167.034 1164.64 163.3 1168.42C159.566 1172.2 154.496 1174.34 149.203 1174.35L121.579 1174.45C118.854 1174.46 116.157 1173.9 113.655 1172.82C111.153 1171.73 108.899 1170.13 107.034 1168.13L106.912 1168C105.053 1165.92 103.61 1163.49 102.662 1160.86L102.52 1160.52C101.891 1158.56 101.568 1156.51 101.562 1154.44L101.426 1117.62C101.395 1108.48 98.4968 1099.58 93.1464 1092.2C87.796 1084.82 80.2674 1079.33 71.6376 1076.52C70.9343 1076.3 70.3043 1075.89 69.8164 1075.34C69.3285 1074.78 69.0013 1074.1 68.8704 1073.37C68.8601 1073.26 68.8597 1073.15 68.8692 1073.05L68.8678 1072.65C68.8675 1072.04 68.9986 1071.44 69.2518 1070.89C69.505 1070.34 69.8743 1069.85 70.3342 1069.45L117.358 1031.21C120.909 1028.31 125.339 1026.72 129.911 1026.71L148.657 1026.64C151.281 1026.63 153.883 1027.14 156.312 1028.14C158.741 1029.14 160.951 1030.62 162.814 1032.48C164.678 1034.35 166.159 1036.56 167.173 1039C168.186 1041.44 168.713 1044.06 168.723 1046.71ZM139.801 1166.35L149.174 1166.31C152.337 1166.3 155.367 1165.03 157.601 1162.77C159.834 1160.51 161.087 1157.45 161.086 1154.26L160.688 1046.74C160.668 1043.55 159.394 1040.49 157.144 1038.25C154.894 1036 151.853 1034.75 148.687 1034.76L129.921 1034.83C127.184 1034.87 124.54 1035.84 122.409 1037.57L80.6698 1071.5C89.2772 1075.69 96.5412 1082.24 101.631 1090.4C106.721 1098.56 109.431 1107.99 109.451 1117.63C109.453 1118.04 109.454 1118.42 109.456 1118.89C109.469 1119.07 109.47 1119.24 109.458 1119.42L109.588 1154.45C109.6 1155.62 109.77 1156.77 110.093 1157.89C110.701 1159.64 111.647 1161.25 112.876 1162.62C113.984 1163.83 115.327 1164.78 116.819 1165.43C118.312 1166.09 119.922 1166.42 121.549 1166.41L138.816 1166.35C138.958 1166.32 139.102 1166.3 139.248 1166.3C139.433 1166.29 139.619 1166.31 139.801 1166.35Z" fill="#EAEAEA" fill-opacity="0.2"/>
<path d="M168.723 1046.71L169.121 1154.18C169.127 1159.52 167.034 1164.64 163.3 1168.42C159.566 1172.2 154.496 1174.34 149.203 1174.35L121.579 1174.45C118.854 1174.46 116.157 1173.9 113.655 1172.82C111.153 1171.73 108.899 1170.13 107.034 1168.13L106.912 1168C105.053 1165.92 103.61 1163.49 102.662 1160.86L102.52 1160.52C101.891 1158.56 101.568 1156.51 101.562 1154.44L101.426 1117.62C101.395 1108.48 98.4968 1099.58 93.1464 1092.2C87.796 1084.82 80.2674 1079.33 71.6376 1076.52C70.9343 1076.3 70.3043 1075.89 69.8164 1075.34C69.3285 1074.78 69.0013 1074.1 68.8704 1073.37C68.8601 1073.26 68.8597 1073.15 68.8692 1073.05L68.8678 1072.65C68.8675 1072.04 68.9986 1071.44 69.2518 1070.89C69.505 1070.34 69.8743 1069.85 70.3342 1069.45L117.358 1031.21C120.909 1028.31 125.339 1026.72 129.911 1026.71L148.657 1026.64C151.281 1026.63 153.883 1027.14 156.312 1028.14C158.741 1029.14 160.951 1030.62 162.814 1032.48C164.678 1034.35 166.159 1036.56 167.173 1039C168.186 1041.44 168.713 1044.06 168.723 1046.71ZM139.801 1166.35L149.174 1166.31C152.337 1166.3 155.367 1165.03 157.601 1162.77C159.834 1160.51 161.087 1157.45 161.086 1154.26L160.688 1046.74C160.668 1043.55 159.394 1040.49 157.144 1038.25C154.894 1036 151.853 1034.75 148.687 1034.76L129.921 1034.83C127.184 1034.87 124.54 1035.84 122.409 1037.57L80.6698 1071.5C89.2772 1075.69 96.5412 1082.24 101.631 1090.4C106.721 1098.56 109.431 1107.99 109.451 1117.63C109.453 1118.04 109.454 1118.42 109.456 1118.89C109.469 1119.07 109.47 1119.24 109.458 1119.42L109.588 1154.45C109.6 1155.62 109.77 1156.77 110.093 1157.89C110.701 1159.64 111.647 1161.25 112.876 1162.62C113.984 1163.83 115.327 1164.78 116.819 1165.43C118.312 1166.09 119.922 1166.42 121.549 1166.41L138.816 1166.35C138.958 1166.32 139.102 1166.3 139.248 1166.3C139.433 1166.29 139.619 1166.31 139.801 1166.35Z" fill="#EAEAEA" fill-opacity="0.2"/>
<path d="M93.4787 1124.57C93.5272 1133.64 90.1626 1142.37 84.1181 1148.84C78.0737 1155.31 69.8394 1159.01 61.2098 1159.13L60.5921 1159.13C54.0086 1159.12 47.5818 1157.01 42.1534 1153.1C36.725 1149.18 32.548 1143.63 30.1696 1137.17C27.7911 1130.72 27.322 1123.66 28.8237 1116.92C30.3255 1110.19 33.728 1104.08 38.5857 1099.41C38.7175 1099.25 38.8275 1099.17 38.8276 1099.19L39.0585 1099L39.1794 1098.89L39.3113 1098.76L41.6756 1096.79C41.8069 1096.63 41.9586 1096.49 42.1263 1096.38C47.0304 1092.81 52.7678 1090.72 58.7194 1090.34C64.671 1089.95 70.6106 1091.28 75.8972 1094.18C81.1838 1097.08 85.6165 1101.45 88.7169 1106.8C91.8173 1112.16 93.4676 1118.3 93.4897 1124.57L93.4787 1124.57ZM44.5563 1106.2C41.02 1109.62 38.5439 1114.07 37.4497 1118.99C36.3556 1123.9 36.6941 1129.05 38.4213 1133.77C40.1485 1138.48 43.1845 1142.54 47.1344 1145.41C51.0843 1148.29 55.7654 1149.85 60.5689 1149.89L61.0874 1149.89C67.3547 1149.7 73.3002 1146.93 77.649 1142.18C81.9977 1137.44 84.4033 1131.09 84.35 1124.5C84.2968 1117.91 81.7888 1111.6 77.364 1106.93C72.9392 1102.26 66.9499 1099.59 60.6803 1099.51C55.8935 1099.52 51.2237 1101.06 47.2834 1103.92L44.7983 1106.01L44.5672 1106.18L44.5563 1106.2Z" fill="#EAEAEA" fill-opacity="0.2"/>
<path d="M93.4787 1124.57C93.5272 1133.64 90.1626 1142.37 84.1181 1148.84C78.0737 1155.31 69.8394 1159.01 61.2098 1159.13L60.5921 1159.13C54.0086 1159.12 47.5818 1157.01 42.1534 1153.1C36.725 1149.18 32.548 1143.63 30.1696 1137.17C27.7911 1130.72 27.322 1123.66 28.8237 1116.92C30.3255 1110.19 33.728 1104.08 38.5857 1099.41C38.7175 1099.25 38.8275 1099.17 38.8276 1099.19L39.0585 1099L39.1794 1098.89L39.3113 1098.76L41.6756 1096.79C41.8069 1096.63 41.9586 1096.49 42.1263 1096.38C47.0304 1092.81 52.7678 1090.72 58.7194 1090.34C64.671 1089.95 70.6106 1091.28 75.8972 1094.18C81.1838 1097.08 85.6165 1101.45 88.7169 1106.8C91.8173 1112.16 93.4676 1118.3 93.4897 1124.57L93.4787 1124.57ZM44.5563 1106.2C41.02 1109.62 38.5439 1114.07 37.4497 1118.99C36.3556 1123.9 36.6941 1129.05 38.4213 1133.77C40.1485 1138.48 43.1845 1142.54 47.1344 1145.41C51.0843 1148.29 55.7654 1149.85 60.5689 1149.89L61.0874 1149.89C67.3547 1149.7 73.3002 1146.93 77.649 1142.18C81.9977 1137.44 84.4033 1131.09 84.35 1124.5C84.2968 1117.91 81.7888 1111.6 77.364 1106.93C72.9392 1102.26 66.9499 1099.59 60.6803 1099.51C55.8935 1099.52 51.2237 1101.06 47.2834 1103.92L44.7983 1106.01L44.5672 1106.18L44.5563 1106.2Z" fill="#EAEAEA" fill-opacity="0.2"/>
<path d="M13.0663 1301.47L12.6715 1194.8C12.6386 1189.51 10.5073 1184.44 6.74537 1180.71C2.98345 1176.99 -2.10177 1174.91 -7.39435 1174.93L-35.0191 1175.03C-37.7438 1175.05 -40.4365 1175.62 -42.9304 1176.72C-45.4244 1177.82 -47.6662 1179.42 -49.5171 1181.42L-49.6373 1181.55C-51.4815 1183.63 -52.9067 1186.05 -53.8346 1188.67L-53.9742 1189C-54.5886 1190.96 -54.8966 1192.99 -54.8871 1195.04L-54.7518 1231.59C-54.7156 1240.66 -57.548 1249.52 -62.8438 1256.88C-68.1396 1264.25 -75.6275 1269.75 -84.2364 1272.6C-84.9381 1272.82 -85.565 1273.23 -86.0488 1273.79C-86.5326 1274.34 -86.8548 1275.02 -86.9802 1275.75C-86.9898 1275.85 -86.9894 1275.96 -86.9791 1276.07L-86.9776 1276.46C-86.9733 1277.06 -86.8379 1277.66 -86.5806 1278.21C-86.3233 1278.75 -85.9503 1279.24 -85.4876 1279.62L-38.1835 1317.22C-34.6105 1320.08 -30.169 1321.63 -25.5967 1321.61L-6.85165 1321.54C-4.22673 1321.53 -1.6292 1321 0.792563 1319.99C3.21433 1318.98 5.41286 1317.5 7.26255 1315.63C9.11224 1313.77 10.5768 1311.56 11.5727 1309.13C12.5685 1306.7 13.0761 1304.09 13.0663 1301.47ZM-16.7373 1182.95L-7.36481 1182.91C-4.20151 1182.9 -1.16162 1184.14 1.08815 1186.36C3.33793 1188.59 4.61392 1191.62 4.63629 1194.78L5.03132 1301.5C5.03506 1304.67 3.78302 1307.71 1.5498 1309.95C-0.683424 1312.2 -3.71552 1313.46 -6.88149 1313.48L-25.6466 1313.55C-28.3842 1313.52 -31.0349 1312.58 -33.1788 1310.88L-75.1674 1277.51C-66.5911 1273.29 -59.3757 1266.74 -54.3462 1258.6C-49.3167 1250.47 -46.6763 1241.08 -46.727 1231.52C-46.7285 1231.11 -46.7299 1230.74 -46.7316 1230.27C-46.7196 1230.1 -46.7202 1229.92 -46.7335 1229.74L-46.8622 1194.97C-46.8587 1193.82 -46.6972 1192.67 -46.3821 1191.56C-45.7867 1189.82 -44.8527 1188.22 -43.6341 1186.84C-42.535 1185.64 -41.1996 1184.68 -39.7119 1184.02C-38.2241 1183.36 -36.6163 1183.02 -34.9896 1183.01L-17.7228 1182.95C-17.5803 1182.98 -17.4356 1183 -17.2902 1183C-17.1046 1183 -16.9193 1182.98 -16.7373 1182.95Z" fill="#EAEAEA" fill-opacity="0.2"/>
<path d="M13.0663 1301.47L12.6715 1194.8C12.6386 1189.51 10.5073 1184.44 6.74537 1180.71C2.98345 1176.99 -2.10177 1174.91 -7.39435 1174.93L-35.0191 1175.03C-37.7438 1175.05 -40.4365 1175.62 -42.9304 1176.72C-45.4244 1177.82 -47.6662 1179.42 -49.5171 1181.42L-49.6373 1181.55C-51.4815 1183.63 -52.9067 1186.05 -53.8346 1188.67L-53.9742 1189C-54.5886 1190.96 -54.8966 1192.99 -54.8871 1195.04L-54.7518 1231.59C-54.7156 1240.66 -57.548 1249.52 -62.8438 1256.88C-68.1396 1264.25 -75.6275 1269.75 -84.2364 1272.6C-84.9381 1272.82 -85.565 1273.23 -86.0488 1273.79C-86.5326 1274.34 -86.8548 1275.02 -86.9802 1275.75C-86.9898 1275.85 -86.9894 1275.96 -86.9791 1276.07L-86.9776 1276.46C-86.9733 1277.06 -86.8379 1277.66 -86.5806 1278.21C-86.3233 1278.75 -85.9503 1279.24 -85.4876 1279.62L-38.1835 1317.22C-34.6105 1320.08 -30.169 1321.63 -25.5967 1321.61L-6.85165 1321.54C-4.22673 1321.53 -1.6292 1321 0.792563 1319.99C3.21433 1318.98 5.41286 1317.5 7.26255 1315.63C9.11224 1313.77 10.5768 1311.56 11.5727 1309.13C12.5685 1306.7 13.0761 1304.09 13.0663 1301.47ZM-16.7373 1182.95L-7.36481 1182.91C-4.20151 1182.9 -1.16162 1184.14 1.08815 1186.36C3.33793 1188.59 4.61392 1191.62 4.63629 1194.78L5.03132 1301.5C5.03506 1304.67 3.78302 1307.71 1.5498 1309.95C-0.683424 1312.2 -3.71552 1313.46 -6.88149 1313.48L-25.6466 1313.55C-28.3842 1313.52 -31.0349 1312.58 -33.1788 1310.88L-75.1674 1277.51C-66.5911 1273.29 -59.3757 1266.74 -54.3462 1258.6C-49.3167 1250.47 -46.6763 1241.08 -46.727 1231.52C-46.7285 1231.11 -46.7299 1230.74 -46.7316 1230.27C-46.7196 1230.1 -46.7202 1229.92 -46.7335 1229.74L-46.8622 1194.97C-46.8587 1193.82 -46.6972 1192.67 -46.3821 1191.56C-45.7867 1189.82 -44.8527 1188.22 -43.6341 1186.84C-42.535 1185.64 -41.1996 1184.68 -39.7119 1184.02C-38.2241 1183.36 -36.6163 1183.02 -34.9896 1183.01L-17.7228 1182.95C-17.5803 1182.98 -17.4356 1183 -17.2902 1183C-17.1046 1183 -16.9193 1182.98 -16.7373 1182.95Z" fill="#EAEAEA" fill-opacity="0.2"/>
<path d="M-28.8829 1070.61L-29.2777 963.942C-29.284 958.646 -27.1903 953.564 -23.4561 949.811C-19.7218 946.058 -14.6522 943.94 -9.35956 943.924L18.2652 943.821C20.9899 943.815 23.6868 944.369 26.1888 945.448C28.6908 946.528 30.9444 948.11 32.81 950.097L32.9312 950.227C34.7908 952.294 36.2339 954.701 37.1811 957.316L37.3232 957.648C37.9521 959.597 38.2751 961.633 38.2807 963.682L38.416 1000.23C38.447 1009.3 41.3449 1018.13 46.6951 1025.46C52.0453 1032.79 59.5737 1038.23 68.2035 1041.02C68.9067 1041.23 69.5367 1041.64 70.0246 1042.19C70.5125 1042.74 70.8397 1043.42 70.9705 1044.14C70.9809 1044.25 70.9813 1044.36 70.9717 1044.47L70.9732 1044.86C70.9734 1045.46 70.8423 1046.06 70.5891 1046.61C70.3358 1047.16 69.9665 1047.64 69.5066 1048.03L22.4822 1085.98C18.9304 1088.87 14.5005 1090.44 9.92816 1090.46L-8.81687 1090.53C-11.4418 1090.54 -14.0431 1090.03 -16.4723 1089.04C-18.9015 1088.04 -21.111 1086.58 -22.9744 1084.73C-24.8378 1082.88 -26.3188 1080.68 -27.3326 1078.26C-28.3464 1075.83 -28.8732 1073.23 -28.8829 1070.61ZM0.0424985 951.869L-9.33002 951.903C-12.4933 951.912 -15.524 953.176 -17.7572 955.418C-19.9904 957.66 -21.244 960.697 -21.2429 963.862L-20.8479 1070.58C-20.8282 1073.75 -19.5536 1076.78 -17.3039 1079.01C-15.0541 1081.23 -12.0127 1082.48 -8.8467 1082.47L9.91844 1082.4C12.6558 1082.35 15.2994 1081.39 17.4306 1079.67L59.1711 1046C50.5638 1041.84 43.3 1035.34 38.2105 1027.25C33.1209 1019.15 30.4111 1009.78 30.3909 1000.22C30.3894 999.807 30.388 999.434 30.3863 998.971C30.373 998.794 30.3723 998.616 30.3843 998.438L30.2556 963.671C30.2435 962.517 30.0735 961.37 29.7502 960.262C29.1419 958.527 28.1961 956.93 26.9673 955.563C25.8594 954.371 24.5169 953.421 23.0244 952.774C21.5318 952.126 19.9215 951.795 18.2948 951.801L1.02802 951.865C0.885734 951.895 0.741107 951.912 0.595787 951.917C0.410181 951.92 0.224735 951.904 0.0424985 951.869Z" fill="#EAEAEA" fill-opacity="0.2"/>
<path d="M-28.8829 1070.61L-29.2777 963.942C-29.284 958.646 -27.1903 953.564 -23.4561 949.811C-19.7218 946.058 -14.6522 943.94 -9.35956 943.924L18.2652 943.821C20.9899 943.815 23.6868 944.369 26.1888 945.448C28.6908 946.528 30.9444 948.11 32.81 950.097L32.9312 950.227C34.7908 952.294 36.2339 954.701 37.1811 957.316L37.3232 957.648C37.9521 959.597 38.2751 961.633 38.2807 963.682L38.416 1000.23C38.447 1009.3 41.3449 1018.13 46.6951 1025.46C52.0453 1032.79 59.5737 1038.23 68.2035 1041.02C68.9067 1041.23 69.5367 1041.64 70.0246 1042.19C70.5125 1042.74 70.8397 1043.42 70.9705 1044.14C70.9809 1044.25 70.9813 1044.36 70.9717 1044.47L70.9732 1044.86C70.9734 1045.46 70.8423 1046.06 70.5891 1046.61C70.3358 1047.16 69.9665 1047.64 69.5066 1048.03L22.4822 1085.98C18.9304 1088.87 14.5005 1090.44 9.92816 1090.46L-8.81687 1090.53C-11.4418 1090.54 -14.0431 1090.03 -16.4723 1089.04C-18.9015 1088.04 -21.111 1086.58 -22.9744 1084.73C-24.8378 1082.88 -26.3188 1080.68 -27.3326 1078.26C-28.3464 1075.83 -28.8732 1073.23 -28.8829 1070.61ZM0.0424985 951.869L-9.33002 951.903C-12.4933 951.912 -15.524 953.176 -17.7572 955.418C-19.9904 957.66 -21.244 960.697 -21.2429 963.862L-20.8479 1070.58C-20.8282 1073.75 -19.5536 1076.78 -17.3039 1079.01C-15.0541 1081.23 -12.0127 1082.48 -8.8467 1082.47L9.91844 1082.4C12.6558 1082.35 15.2994 1081.39 17.4306 1079.67L59.1711 1046C50.5638 1041.84 43.3 1035.34 38.2105 1027.25C33.1209 1019.15 30.4111 1009.78 30.3909 1000.22C30.3894 999.807 30.388 999.434 30.3863 998.971C30.373 998.794 30.3723 998.616 30.3843 998.438L30.2556 963.671C30.2435 962.517 30.0735 961.37 29.7502 960.262C29.1419 958.527 28.1961 956.93 26.9673 955.563C25.8594 954.371 24.5169 953.421 23.0244 952.774C21.5318 952.126 19.9215 951.795 18.2948 951.801L1.02802 951.865C0.885734 951.895 0.741107 951.912 0.595787 951.917C0.410181 951.92 0.224735 951.904 0.0424985 951.869Z" fill="#EAEAEA" fill-opacity="0.2"/>
<path d="M46.3651 992.594C46.3166 983.522 49.6812 974.799 55.7256 968.326C61.7701 961.852 70.0044 958.154 78.6339 958.036L79.2516 958.034C85.8351 958.048 92.2619 960.151 97.6904 964.069C103.119 967.987 107.296 973.536 109.674 979.991C112.053 986.445 112.522 993.503 111.02 1000.24C109.518 1006.98 106.116 1013.08 101.258 1017.75C101.126 1017.91 101.016 1017.99 101.016 1017.97L100.785 1018.17L100.664 1018.27L100.532 1018.4L98.1681 1020.37C98.0368 1020.53 97.8852 1020.67 97.7174 1020.79C92.8134 1024.35 87.0759 1026.44 81.1243 1026.83C75.1728 1027.22 69.2331 1025.89 63.9465 1022.98C58.6599 1020.08 54.2272 1015.72 51.1268 1010.36C48.0264 1005.01 46.3761 998.863 46.354 992.594L46.3651 992.594ZM95.2875 1010.97C98.8237 1007.55 101.3 1003.09 102.394 998.177C103.488 993.26 103.15 988.111 101.422 983.398C99.6952 978.686 96.6593 974.628 92.7094 971.752C88.7595 968.877 84.0784 967.317 79.2748 967.276L78.7564 967.277C72.489 967.469 66.5435 970.235 62.1948 974.981C57.8461 979.728 55.4405 986.077 55.4937 992.668C55.547 999.259 58.0549 1005.57 62.4797 1010.24C66.9045 1014.91 72.8939 1017.57 79.1635 1017.66C83.9503 1017.64 88.62 1016.1 92.5603 1013.25L95.0455 1011.15L95.2765 1010.99L95.2875 1010.97Z" fill="#EAEAEA" fill-opacity="0.2"/>
<path d="M46.3651 992.594C46.3166 983.522 49.6812 974.799 55.7256 968.326C61.7701 961.852 70.0044 958.154 78.6339 958.036L79.2516 958.034C85.8351 958.048 92.2619 960.151 97.6904 964.069C103.119 967.987 107.296 973.536 109.674 979.991C112.053 986.445 112.522 993.503 111.02 1000.24C109.518 1006.98 106.116 1013.08 101.258 1017.75C101.126 1017.91 101.016 1017.99 101.016 1017.97L100.785 1018.17L100.664 1018.27L100.532 1018.4L98.1681 1020.37C98.0368 1020.53 97.8852 1020.67 97.7174 1020.79C92.8134 1024.35 87.0759 1026.44 81.1243 1026.83C75.1728 1027.22 69.2331 1025.89 63.9465 1022.98C58.6599 1020.08 54.2272 1015.72 51.1268 1010.36C48.0264 1005.01 46.3761 998.863 46.354 992.594L46.3651 992.594ZM95.2875 1010.97C98.8237 1007.55 101.3 1003.09 102.394 998.177C103.488 993.26 103.15 988.111 101.422 983.398C99.6952 978.686 96.6593 974.628 92.7094 971.752C88.7595 968.877 84.0784 967.317 79.2748 967.276L78.7564 967.277C72.489 967.469 66.5435 970.235 62.1948 974.981C57.8461 979.728 55.4405 986.077 55.4937 992.668C55.547 999.259 58.0549 1005.57 62.4797 1010.24C66.9045 1014.91 72.8939 1017.57 79.1635 1017.66C83.9503 1017.64 88.62 1016.1 92.5603 1013.25L95.0455 1011.15L95.2765 1010.99L95.2875 1010.97Z" fill="#EAEAEA" fill-opacity="0.2"/>
<path d="M97.191 924.493L96.7931 817.02C96.7599 811.684 94.605 806.579 90.8014 802.826C86.9977 799.072 81.856 796.977 76.5046 796.999L48.5729 797.103C45.818 797.117 43.0953 797.695 40.5736 798.801C38.052 799.907 35.7852 801.519 33.9138 803.535L33.7923 803.667C31.9275 805.763 30.4864 808.199 29.5482 810.841L29.407 811.176C28.7857 813.145 28.4743 815.198 28.4839 817.263L28.6203 854.088C28.6567 863.23 25.7927 872.149 20.438 879.57C15.0832 886.991 7.51204 892.533 -1.19255 895.403C-1.90199 895.628 -2.53585 896.043 -3.02505 896.603C-3.51425 897.163 -3.84003 897.845 -3.96688 898.577C-3.97654 898.685 -3.97614 898.794 -3.96568 898.901L-3.96422 899.297C-3.95991 899.905 -3.82294 900.506 -3.56281 901.056C-3.30267 901.607 -2.92557 902.094 -2.45769 902.485L45.3715 940.37C48.9842 943.247 53.475 944.804 58.0981 944.784L77.0514 944.714C79.7055 944.706 82.3319 944.176 84.7806 943.155C87.2293 942.134 89.4523 940.642 91.3225 938.764C93.1928 936.886 94.6737 934.66 95.6806 932.211C96.6876 929.762 97.2008 927.14 97.191 924.493ZM67.0577 805.075L76.5344 805.04C79.7328 805.025 82.8065 806.276 85.0812 808.518C87.356 810.76 88.6461 813.81 88.6687 816.999L89.0667 924.523C89.0704 927.715 87.8044 930.779 85.5464 933.041C83.2883 935.304 80.2225 936.581 77.0214 936.593L58.0477 936.663C55.2797 936.637 52.5996 935.691 50.4319 933.974L7.97719 900.358C16.6488 896.103 23.9445 889.5 29.03 881.305C34.1154 873.11 36.7853 863.654 36.7342 854.017C36.7327 853.601 36.7313 853.226 36.7296 852.76C36.7417 852.581 36.7411 852.401 36.7276 852.222L36.5979 817.192C36.6015 816.029 36.7649 814.872 37.0834 813.753C37.6855 812.001 38.6299 810.384 39.8621 808.998C40.9733 807.789 42.3236 806.822 43.8279 806.158C45.3322 805.495 46.9578 805.149 48.6026 805.143L66.0613 805.078C66.2053 805.107 66.3517 805.124 66.4987 805.127C66.6863 805.129 66.8737 805.112 67.0577 805.075Z" fill="#EAEAEA" fill-opacity="0.2"/>
<path d="M97.191 924.493L96.7931 817.02C96.7599 811.684 94.605 806.579 90.8014 802.826C86.9977 799.072 81.856 796.977 76.5046 796.999L48.5729 797.103C45.818 797.117 43.0953 797.695 40.5736 798.801C38.052 799.907 35.7852 801.519 33.9138 803.535L33.7923 803.667C31.9275 805.763 30.4864 808.199 29.5482 810.841L29.407 811.176C28.7857 813.145 28.4743 815.198 28.4839 817.263L28.6203 854.088C28.6567 863.23 25.7927 872.149 20.438 879.57C15.0832 886.991 7.51204 892.533 -1.19255 895.403C-1.90199 895.628 -2.53585 896.043 -3.02505 896.603C-3.51425 897.163 -3.84003 897.845 -3.96688 898.577C-3.97654 898.685 -3.97614 898.794 -3.96568 898.901L-3.96422 899.297C-3.95991 899.905 -3.82294 900.506 -3.56281 901.056C-3.30267 901.607 -2.92557 902.094 -2.45769 902.485L45.3715 940.37C48.9842 943.247 53.475 944.804 58.0981 944.784L77.0514 944.714C79.7055 944.706 82.3319 944.176 84.7806 943.155C87.2293 942.134 89.4523 940.642 91.3225 938.764C93.1928 936.886 94.6737 934.66 95.6806 932.211C96.6876 929.762 97.2008 927.14 97.191 924.493ZM67.0577 805.075L76.5344 805.04C79.7328 805.025 82.8065 806.276 85.0812 808.518C87.356 810.76 88.6461 813.81 88.6687 816.999L89.0667 924.523C89.0704 927.715 87.8044 930.779 85.5464 933.041C83.2883 935.304 80.2225 936.581 77.0214 936.593L58.0477 936.663C55.2797 936.637 52.5996 935.691 50.4319 933.974L7.97719 900.358C16.6488 896.103 23.9445 889.5 29.03 881.305C34.1154 873.11 36.7853 863.654 36.7342 854.017C36.7327 853.601 36.7313 853.226 36.7296 852.76C36.7417 852.581 36.7411 852.401 36.7276 852.222L36.5979 817.192C36.6015 816.029 36.7649 814.872 37.0834 813.753C37.6855 812.001 38.6299 810.384 39.8621 808.998C40.9733 807.789 42.3236 806.822 43.8279 806.158C45.3322 805.495 46.9578 805.149 48.6026 805.143L66.0613 805.078C66.2053 805.107 66.3517 805.124 66.4987 805.127C66.6863 805.129 66.8737 805.112 67.0577 805.075Z" fill="#EAEAEA" fill-opacity="0.2"/>
<path d="M21.372 847.746C21.3542 838.821 17.868 830.263 11.6733 823.939C5.47865 817.615 -2.92236 814.038 -11.6988 813.986L-12.327 813.988C-19.0218 814.05 -25.5418 816.168 -31.0331 820.062C-36.5243 823.957 -40.7308 829.448 -43.1017 835.815C-45.4726 842.183 -45.8974 849.13 -44.3204 855.748C-42.7433 862.366 -39.238 868.345 -34.2635 872.903C-34.1283 873.062 -34.0158 873.141 -34.0159 873.119L-33.7796 873.312L-33.6559 873.414L-33.5208 873.539L-31.1019 875.458C-30.9672 875.615 -30.8119 875.753 -30.6405 875.867C-25.6271 879.337 -19.777 881.349 -13.7219 881.686C-7.66672 882.022 -1.6364 880.67 3.71815 877.776C9.07269 874.882 13.5481 870.555 16.6613 865.263C19.7745 859.97 21.4072 853.914 21.3832 847.746L21.372 847.746ZM-28.2422 866.184C-31.8635 862.849 -34.4146 858.483 -35.5637 853.654C-36.7128 848.825 -36.4066 843.756 -34.6851 839.107C-32.9636 834.457 -29.9063 830.443 -25.9109 827.584C-21.9154 824.726 -17.1667 823.157 -12.2821 823.08L-11.7549 823.079C-5.38009 823.221 0.686527 825.898 5.14398 830.535C9.60143 835.173 12.0948 841.402 12.0895 847.887C12.0841 854.372 9.58045 860.596 5.11536 865.225C0.650276 869.854 -5.4207 872.519 -11.7958 872.648C-16.6637 872.667 -21.4238 871.19 -25.452 868.409L-27.9947 866.365L-28.2308 866.207L-28.2422 866.184Z" fill="#EAEAEA" fill-opacity="0.2"/>
<path d="M21.372 847.746C21.3542 838.821 17.868 830.263 11.6733 823.939C5.47865 817.615 -2.92236 814.038 -11.6988 813.986L-12.327 813.988C-19.0218 814.05 -25.5418 816.168 -31.0331 820.062C-36.5243 823.957 -40.7308 829.448 -43.1017 835.815C-45.4726 842.183 -45.8974 849.13 -44.3204 855.748C-42.7433 862.366 -39.238 868.345 -34.2635 872.903C-34.1283 873.062 -34.0158 873.141 -34.0159 873.119L-33.7796 873.312L-33.6559 873.414L-33.5208 873.539L-31.1019 875.458C-30.9672 875.615 -30.8119 875.753 -30.6405 875.867C-25.6271 879.337 -19.777 881.349 -13.7219 881.686C-7.66672 882.022 -1.6364 880.67 3.71815 877.776C9.07269 874.882 13.5481 870.555 16.6613 865.263C19.7745 859.97 21.4072 853.914 21.3832 847.746L21.372 847.746ZM-28.2422 866.184C-31.8635 862.849 -34.4146 858.483 -35.5637 853.654C-36.7128 848.825 -36.4066 843.756 -34.6851 839.107C-32.9636 834.457 -29.9063 830.443 -25.9109 827.584C-21.9154 824.726 -17.1667 823.157 -12.2821 823.08L-11.7549 823.079C-5.38009 823.221 0.686527 825.898 5.14398 830.535C9.60143 835.173 12.0948 841.402 12.0895 847.887C12.0841 854.372 9.58045 860.596 5.11536 865.225C0.650276 869.854 -5.4207 872.519 -11.7958 872.648C-16.6637 872.667 -21.4238 871.19 -25.452 868.409L-27.9947 866.365L-28.2308 866.207L-28.2422 866.184Z" fill="#EAEAEA" fill-opacity="0.2"/>
<path d="M65.5021 1336.2L171.527 1335.42C176.791 1335.39 181.85 1337.47 185.594 1341.19C189.338 1344.91 191.461 1349.97 191.497 1355.26L191.697 1382.88C191.713 1385.61 191.172 1388.3 190.108 1390.81C189.044 1393.31 187.479 1395.57 185.511 1397.45L185.382 1397.57C183.334 1399.43 180.946 1400.89 178.351 1401.84L178.022 1401.99C176.086 1402.62 174.064 1402.95 172.027 1402.96L135.698 1403.23C126.68 1403.29 117.912 1406.22 110.649 1411.6C103.387 1416.97 98.0015 1424.52 95.2639 1433.16C95.0495 1433.86 94.647 1434.49 94.1002 1434.98C93.5534 1435.47 92.8834 1435.8 92.1632 1435.94C92.0568 1435.95 91.9496 1435.95 91.8431 1435.94L91.453 1435.94C90.8526 1435.94 90.2589 1435.82 89.713 1435.56C89.1671 1435.31 88.6821 1434.95 88.2915 1434.49L50.4006 1387.61C47.5239 1384.07 45.9387 1379.64 45.9084 1375.07L45.7724 1356.33C45.7521 1353.71 46.2463 1351.1 47.227 1348.67C48.2076 1346.24 49.6553 1344.03 51.4875 1342.16C53.3197 1340.29 55.5004 1338.8 57.9051 1337.77C60.3098 1336.75 62.8913 1336.22 65.5021 1336.2ZM183.633 1364.69L183.565 1355.32C183.544 1352.16 182.277 1349.13 180.041 1346.91C177.804 1344.68 174.782 1343.44 171.635 1343.45L65.5604 1344.23C62.4115 1344.26 59.4034 1345.55 57.1958 1347.8C54.9882 1350.06 53.7614 1353.11 53.7843 1356.27L53.9204 1375.03C53.9762 1377.77 54.9388 1380.41 56.6556 1382.53L90.2771 1424.15C94.3806 1415.53 100.815 1408.24 108.844 1403.12C116.873 1398 126.173 1395.26 135.68 1395.21C136.09 1395.2 136.46 1395.2 136.921 1395.2C137.097 1395.18 137.274 1395.18 137.451 1395.19L172.009 1394.94C173.156 1394.92 174.296 1394.75 175.396 1394.42C177.118 1393.81 178.703 1392.86 180.057 1391.62C181.238 1390.51 182.177 1389.17 182.815 1387.67C183.453 1386.18 183.777 1384.57 183.765 1382.94L183.64 1365.68C183.61 1365.53 183.592 1365.39 183.587 1365.24C183.583 1365.06 183.598 1364.87 183.633 1364.69Z" fill="#EAEAEA" fill-opacity="0.2"/>
<path d="M65.5021 1336.2L171.527 1335.42C176.791 1335.39 181.85 1337.47 185.594 1341.19C189.338 1344.91 191.461 1349.97 191.497 1355.26L191.697 1382.88C191.713 1385.61 191.172 1388.3 190.108 1390.81C189.044 1393.31 187.479 1395.57 185.511 1397.45L185.382 1397.57C183.334 1399.43 180.946 1400.89 178.351 1401.84L178.022 1401.99C176.086 1402.62 174.064 1402.95 172.027 1402.96L135.698 1403.23C126.68 1403.29 117.912 1406.22 110.649 1411.6C103.387 1416.97 98.0015 1424.52 95.2639 1433.16C95.0495 1433.86 94.647 1434.49 94.1002 1434.98C93.5534 1435.47 92.8834 1435.8 92.1632 1435.94C92.0568 1435.95 91.9496 1435.95 91.8431 1435.94L91.453 1435.94C90.8526 1435.94 90.2589 1435.82 89.713 1435.56C89.1671 1435.31 88.6821 1434.95 88.2915 1434.49L50.4006 1387.61C47.5239 1384.07 45.9387 1379.64 45.9084 1375.07L45.7724 1356.33C45.7521 1353.71 46.2463 1351.1 47.227 1348.67C48.2076 1346.24 49.6553 1344.03 51.4875 1342.16C53.3197 1340.29 55.5004 1338.8 57.9051 1337.77C60.3098 1336.75 62.8913 1336.22 65.5021 1336.2ZM183.633 1364.69L183.565 1355.32C183.544 1352.16 182.277 1349.13 180.041 1346.91C177.804 1344.68 174.782 1343.44 171.635 1343.45L65.5604 1344.23C62.4115 1344.26 59.4034 1345.55 57.1958 1347.8C54.9882 1350.06 53.7614 1353.11 53.7843 1356.27L53.9204 1375.03C53.9762 1377.77 54.9388 1380.41 56.6556 1382.53L90.2771 1424.15C94.3806 1415.53 100.815 1408.24 108.844 1403.12C116.873 1398 126.173 1395.26 135.68 1395.21C136.09 1395.2 136.46 1395.2 136.921 1395.2C137.097 1395.18 137.274 1395.18 137.451 1395.19L172.009 1394.94C173.156 1394.92 174.296 1394.75 175.396 1394.42C177.118 1393.81 178.703 1392.86 180.057 1391.62C181.238 1390.51 182.177 1389.17 182.815 1387.67C183.453 1386.18 183.777 1384.57 183.765 1382.94L183.64 1365.68C183.61 1365.53 183.592 1365.39 183.587 1365.24C183.583 1365.06 183.598 1364.87 183.633 1364.69Z" fill="#EAEAEA" fill-opacity="0.2"/>
<path d="M142.448 1411.04C151.362 1410.96 159.946 1414.35 166.329 1420.47C172.712 1426.6 176.376 1434.96 176.524 1443.73L176.529 1444.36C176.54 1451.05 174.497 1457.59 170.668 1463.13C166.839 1468.66 161.402 1472.92 155.069 1475.37C148.736 1477.81 141.803 1478.31 135.177 1476.8C128.551 1475.3 122.542 1471.86 117.936 1466.94C117.776 1466.8 117.695 1466.69 117.718 1466.69L117.522 1466.46L117.419 1466.34L117.293 1466.2L115.35 1463.81C115.191 1463.67 115.052 1463.52 114.936 1463.35C111.416 1458.37 109.343 1452.55 108.94 1446.5C108.538 1440.45 109.822 1434.4 112.654 1429.02C115.485 1423.63 119.757 1419.11 125.008 1415.94C130.259 1412.77 136.289 1411.07 142.448 1411.03L142.448 1411.04ZM124.58 1460.84C127.95 1464.43 132.338 1466.93 137.173 1468.03C142.007 1469.12 147.066 1468.76 151.69 1466.99C156.314 1465.21 160.29 1462.11 163.1 1458.09C165.911 1454.06 167.426 1449.3 167.449 1444.41L167.445 1443.89C167.233 1437.51 164.493 1431.48 159.813 1427.07C155.133 1422.67 148.885 1420.24 142.41 1420.32C135.934 1420.4 129.746 1422.97 125.172 1427.48C120.598 1432 118.004 1438.1 117.944 1444.47C117.978 1449.34 119.506 1454.08 122.327 1458.08L124.396 1460.6L124.557 1460.83L124.58 1460.84Z" fill="#EAEAEA" fill-opacity="0.2"/>
<path d="M142.448 1411.04C151.362 1410.96 159.946 1414.35 166.329 1420.47C172.712 1426.6 176.376 1434.96 176.524 1443.73L176.529 1444.36C176.54 1451.05 174.497 1457.59 170.668 1463.13C166.839 1468.66 161.402 1472.92 155.069 1475.37C148.736 1477.81 141.803 1478.31 135.177 1476.8C128.551 1475.3 122.542 1471.86 117.936 1466.94C117.776 1466.8 117.695 1466.69 117.718 1466.69L117.522 1466.46L117.419 1466.34L117.293 1466.2L115.35 1463.81C115.191 1463.67 115.052 1463.52 114.936 1463.35C111.416 1458.37 109.343 1452.55 108.94 1446.5C108.538 1440.45 109.822 1434.4 112.654 1429.02C115.485 1423.63 119.757 1419.11 125.008 1415.94C130.259 1412.77 136.289 1411.07 142.448 1411.03L142.448 1411.04ZM124.58 1460.84C127.95 1464.43 132.338 1466.93 137.173 1468.03C142.007 1469.12 147.066 1468.76 151.69 1466.99C156.314 1465.21 160.29 1462.11 163.1 1458.09C165.911 1454.06 167.426 1449.3 167.449 1444.41L167.445 1443.89C167.233 1437.51 164.493 1431.48 159.813 1427.07C155.133 1422.67 148.885 1420.24 142.41 1420.32C135.934 1420.4 129.746 1422.97 125.172 1427.48C120.598 1432 118.004 1438.1 117.944 1444.47C117.978 1449.34 119.506 1454.08 122.327 1458.08L124.396 1460.6L124.557 1460.83L124.58 1460.84Z" fill="#EAEAEA" fill-opacity="0.2"/>
<path d="M136.822 918.641L242.847 917.864C248.111 917.838 253.171 919.913 256.915 923.633C260.658 927.353 262.781 932.415 262.817 937.706L263.017 965.325C263.033 968.049 262.493 970.748 261.429 973.253C260.364 975.758 258.8 978.017 256.831 979.89L256.702 980.011C254.654 981.878 252.267 983.329 249.671 984.286L249.342 984.429C247.406 985.065 245.384 985.395 243.347 985.408L207.019 985.674C198 985.738 189.232 988.667 181.97 994.042C174.707 999.418 169.322 1006.96 166.584 1015.6C166.37 1016.31 165.967 1016.94 165.421 1017.43C164.874 1017.92 164.204 1018.25 163.483 1018.38C163.377 1018.39 163.27 1018.39 163.163 1018.38L162.773 1018.38C162.173 1018.39 161.579 1018.26 161.033 1018.01C160.487 1017.76 160.002 1017.39 159.612 1016.93L121.721 970.051C118.844 966.51 117.259 962.087 117.229 957.515L117.093 938.774C117.072 936.15 117.567 933.547 118.547 931.115C119.528 928.683 120.976 926.469 122.808 924.599C124.64 922.729 126.821 921.241 129.225 920.218C131.63 919.196 134.212 918.66 136.822 918.641ZM254.953 947.135L254.885 937.764C254.865 934.602 253.597 931.576 251.361 929.351C249.125 927.127 246.102 925.884 242.956 925.897L136.881 926.674C133.732 926.705 130.724 927.99 128.516 930.248C126.308 932.505 125.082 935.55 125.105 938.716L125.241 957.477C125.297 960.213 126.259 962.853 127.976 964.978L161.597 1006.59C165.701 997.969 172.135 990.683 180.164 985.566C188.194 980.448 197.494 977.705 207.001 977.651C207.411 977.648 207.781 977.645 208.241 977.642C208.417 977.628 208.594 977.626 208.771 977.638L243.329 977.384C244.476 977.368 245.616 977.194 246.716 976.867C248.439 976.252 250.023 975.301 251.377 974.068C252.558 972.956 253.497 971.61 254.135 970.115C254.774 968.621 255.097 967.01 255.085 965.383L254.96 948.12C254.93 947.978 254.912 947.833 254.907 947.688C254.903 947.503 254.918 947.317 254.953 947.135Z" fill="#EAEAEA" fill-opacity="0.2"/>
<path d="M213.769 993.482C222.682 993.402 231.266 996.793 237.649 1002.92C244.032 1009.04 247.697 1017.4 247.845 1026.17L247.849 1026.8C247.86 1033.49 245.817 1040.04 241.988 1045.57C238.159 1051.1 232.722 1055.37 226.389 1057.81C220.056 1060.25 213.123 1060.75 206.498 1059.25C199.872 1057.74 193.862 1054.3 189.256 1049.38C189.096 1049.25 189.015 1049.14 189.038 1049.14L188.843 1048.9L188.739 1048.78L188.613 1048.65L186.67 1046.25C186.512 1046.12 186.373 1045.96 186.257 1045.79C182.736 1040.82 180.663 1034.99 180.261 1028.94C179.858 1022.89 181.142 1016.85 183.974 1011.46C186.806 1006.08 191.077 1001.56 196.328 998.385C201.579 995.214 207.609 993.515 213.768 993.471L213.769 993.482ZM195.9 1043.29C199.27 1046.87 203.658 1049.37 208.493 1050.47C213.328 1051.56 218.386 1051.2 223.01 1049.43C227.634 1047.66 231.61 1044.56 234.42 1040.53C237.231 1036.51 238.746 1031.74 238.769 1026.86L238.765 1026.33C238.553 1019.96 235.814 1013.92 231.134 1009.52C226.454 1005.11 220.206 1002.69 213.73 1002.76C207.254 1002.84 201.066 1005.41 196.492 1009.93C191.919 1014.44 189.324 1020.54 189.264 1026.92C189.299 1031.78 190.826 1036.53 193.647 1040.52L195.716 1043.04L195.877 1043.28L195.9 1043.29Z" fill="#EAEAEA" fill-opacity="0.2"/>
<path d="M333.623 1455.57L227.598 1456.35C222.334 1456.38 217.275 1454.3 213.531 1450.58C209.787 1446.86 207.664 1441.8 207.628 1436.51L207.428 1408.89C207.412 1406.16 207.953 1403.47 209.017 1400.96C210.081 1398.46 211.646 1396.2 213.614 1394.32L213.743 1394.2C215.791 1392.34 218.179 1390.88 220.774 1389.93L221.103 1389.78C223.039 1389.15 225.061 1388.82 227.098 1388.81L263.427 1388.54C272.445 1388.48 281.213 1385.55 288.476 1380.17C295.738 1374.8 301.123 1367.25 303.861 1358.61C304.076 1357.91 304.478 1357.28 305.025 1356.79C305.572 1356.3 306.242 1355.97 306.962 1355.83C307.068 1355.82 307.175 1355.82 307.282 1355.83L307.672 1355.83C308.272 1355.83 308.866 1355.95 309.412 1356.21C309.958 1356.46 310.443 1356.82 310.833 1357.28L348.724 1404.16C351.601 1407.7 353.186 1412.13 353.217 1416.7L353.353 1435.44C353.373 1438.06 352.879 1440.67 351.898 1443.1C350.917 1445.53 349.47 1447.74 347.637 1449.61C345.805 1451.48 343.625 1452.97 341.22 1454C338.815 1455.02 336.234 1455.55 333.623 1455.57ZM215.492 1427.08L215.56 1436.45C215.581 1439.61 216.848 1442.64 219.084 1444.86C221.321 1447.09 224.343 1448.33 227.49 1448.32L333.565 1447.54C336.714 1447.51 339.722 1446.22 341.929 1443.97C344.137 1441.71 345.364 1438.66 345.341 1435.5L345.205 1416.74C345.149 1414 344.186 1411.36 342.469 1409.24L308.848 1367.62C304.744 1376.24 298.31 1383.53 290.281 1388.65C282.252 1393.77 272.952 1396.51 263.445 1396.56C263.035 1396.57 262.665 1396.57 262.204 1396.57C262.028 1396.59 261.851 1396.59 261.674 1396.58L227.116 1396.83C225.969 1396.85 224.829 1397.02 223.729 1397.35C222.007 1397.96 220.422 1398.91 219.068 1400.15C217.887 1401.26 216.948 1402.6 216.31 1404.1C215.672 1405.59 215.348 1407.2 215.36 1408.83L215.485 1426.09C215.515 1426.24 215.533 1426.38 215.538 1426.53C215.542 1426.71 215.527 1426.9 215.492 1427.08Z" fill="#EAEAEA" fill-opacity="0.2"/>
<path d="M333.623 1455.57L227.598 1456.35C222.334 1456.38 217.275 1454.3 213.531 1450.58C209.787 1446.86 207.664 1441.8 207.628 1436.51L207.428 1408.89C207.412 1406.16 207.953 1403.47 209.017 1400.96C210.081 1398.46 211.646 1396.2 213.614 1394.32L213.743 1394.2C215.791 1392.34 218.179 1390.88 220.774 1389.93L221.103 1389.78C223.039 1389.15 225.061 1388.82 227.098 1388.81L263.427 1388.54C272.445 1388.48 281.213 1385.55 288.476 1380.17C295.738 1374.8 301.123 1367.25 303.861 1358.61C304.076 1357.91 304.478 1357.28 305.025 1356.79C305.572 1356.3 306.242 1355.97 306.962 1355.83C307.068 1355.82 307.175 1355.82 307.282 1355.83L307.672 1355.83C308.272 1355.83 308.866 1355.95 309.412 1356.21C309.958 1356.46 310.443 1356.82 310.833 1357.28L348.724 1404.16C351.601 1407.7 353.186 1412.13 353.217 1416.7L353.353 1435.44C353.373 1438.06 352.879 1440.67 351.898 1443.1C350.917 1445.53 349.47 1447.74 347.637 1449.61C345.805 1451.48 343.625 1452.97 341.22 1454C338.815 1455.02 336.234 1455.55 333.623 1455.57ZM215.492 1427.08L215.56 1436.45C215.581 1439.61 216.848 1442.64 219.084 1444.86C221.321 1447.09 224.343 1448.33 227.49 1448.32L333.565 1447.54C336.714 1447.51 339.722 1446.22 341.929 1443.97C344.137 1441.71 345.364 1438.66 345.341 1435.5L345.205 1416.74C345.149 1414 344.186 1411.36 342.469 1409.24L308.848 1367.62C304.744 1376.24 298.31 1383.53 290.281 1388.65C282.252 1393.77 272.952 1396.51 263.445 1396.56C263.035 1396.57 262.665 1396.57 262.204 1396.57C262.028 1396.59 261.851 1396.59 261.674 1396.58L227.116 1396.83C225.969 1396.85 224.829 1397.02 223.729 1397.35C222.007 1397.96 220.422 1398.91 219.068 1400.15C217.887 1401.26 216.948 1402.6 216.31 1404.1C215.672 1405.59 215.348 1407.2 215.36 1408.83L215.485 1426.09C215.515 1426.24 215.533 1426.38 215.538 1426.53C215.542 1426.71 215.527 1426.9 215.492 1427.08Z" fill="#EAEAEA" fill-opacity="0.2"/>
<path d="M256.673 1380.73C247.759 1380.81 239.175 1377.42 232.792 1371.3C226.409 1365.17 222.745 1356.81 222.597 1348.04L222.592 1347.41C222.581 1340.72 224.624 1334.18 228.453 1328.64C232.282 1323.11 237.719 1318.85 244.052 1316.4C250.385 1313.96 257.318 1313.46 263.944 1314.97C270.57 1316.47 276.579 1319.91 281.185 1324.83C281.345 1324.97 281.426 1325.08 281.403 1325.08L281.599 1325.31L281.702 1325.43L281.828 1325.57L283.771 1327.96C283.93 1328.1 284.069 1328.25 284.185 1328.42C287.705 1333.4 289.778 1339.22 290.181 1345.27C290.583 1351.32 289.299 1357.37 286.467 1362.75C283.636 1368.14 279.364 1372.66 274.113 1375.83C268.862 1379 262.832 1380.7 256.673 1380.74L256.673 1380.73ZM274.541 1330.93C271.171 1327.34 266.783 1324.84 261.949 1323.74C257.114 1322.65 252.055 1323.01 247.431 1324.78C242.807 1326.56 238.831 1329.66 236.021 1333.68C233.211 1337.71 231.695 1342.47 231.673 1347.36L231.676 1347.88C231.888 1354.26 234.628 1360.29 239.308 1364.7C243.988 1369.1 250.236 1371.53 256.711 1371.45C263.187 1371.37 269.375 1368.8 273.949 1364.29C278.523 1359.77 281.117 1353.67 281.177 1347.3C281.143 1342.43 279.615 1337.69 276.794 1333.69L274.725 1331.17L274.564 1330.94L274.541 1330.93Z" fill="#EAEAEA" fill-opacity="0.2"/>
<path d="M256.673 1380.73C247.759 1380.81 239.175 1377.42 232.792 1371.3C226.409 1365.17 222.745 1356.81 222.597 1348.04L222.592 1347.41C222.581 1340.72 224.624 1334.18 228.453 1328.64C232.282 1323.11 237.719 1318.85 244.052 1316.4C250.385 1313.96 257.318 1313.46 263.944 1314.97C270.57 1316.47 276.579 1319.91 281.185 1324.83C281.345 1324.97 281.426 1325.08 281.403 1325.08L281.599 1325.31L281.702 1325.43L281.828 1325.57L283.771 1327.96C283.93 1328.1 284.069 1328.25 284.185 1328.42C287.705 1333.4 289.778 1339.22 290.181 1345.27C290.583 1351.32 289.299 1357.37 286.467 1362.75C283.636 1368.14 279.364 1372.66 274.113 1375.83C268.862 1379 262.832 1380.7 256.673 1380.74L256.673 1380.73ZM274.541 1330.93C271.171 1327.34 266.783 1324.84 261.949 1323.74C257.114 1322.65 252.055 1323.01 247.431 1324.78C242.807 1326.56 238.831 1329.66 236.021 1333.68C233.211 1337.71 231.695 1342.47 231.673 1347.36L231.676 1347.88C231.888 1354.26 234.628 1360.29 239.308 1364.7C243.988 1369.1 250.236 1371.53 256.711 1371.45C263.187 1371.37 269.375 1368.8 273.949 1364.29C278.523 1359.77 281.117 1353.67 281.177 1347.3C281.143 1342.43 279.615 1337.69 276.794 1333.69L274.725 1331.17L274.564 1330.94L274.541 1330.93Z" fill="#EAEAEA" fill-opacity="0.2"/>
</g>
</svg>
