<svg width="281" height="149" viewBox="0 0 281 149" fill="none" xmlns="http://www.w3.org/2000/svg">
<g clip-path="url(#clip0)">
<path d="M289.22 137.383H209.454C205.493 137.393 201.699 138.955 198.903 141.727C196.106 144.498 194.537 148.253 194.539 152.167V172.596C194.542 174.611 194.963 176.604 195.778 178.451C196.592 180.298 197.781 181.96 199.272 183.334L199.37 183.424C200.921 184.793 202.725 185.854 204.683 186.547L204.931 186.651C206.391 187.111 207.914 187.344 209.446 187.343H236.777C243.563 187.341 250.174 189.46 255.667 193.396C261.16 197.332 265.253 202.885 267.359 209.259C267.525 209.778 267.831 210.243 268.245 210.602C268.659 210.962 269.165 211.202 269.707 211.297C269.787 211.304 269.868 211.304 269.948 211.297H270.241C270.693 211.295 271.139 211.197 271.548 211.008C271.958 210.819 272.321 210.544 272.612 210.203L300.861 175.325C303.006 172.691 304.174 169.41 304.172 166.029V152.167C304.173 150.226 303.787 148.304 303.036 146.51C302.285 144.716 301.184 143.086 299.795 141.713C298.407 140.341 296.758 139.251 294.944 138.508C293.129 137.765 291.184 137.383 289.22 137.383ZM200.506 159.098V152.167C200.504 149.828 201.441 147.583 203.112 145.926C204.782 144.268 207.049 143.333 209.416 143.325H289.22C291.589 143.331 293.859 144.265 295.532 145.922C297.205 147.58 298.145 149.826 298.145 152.167V166.044C298.117 168.068 297.408 170.026 296.128 171.607L271.062 202.566C267.928 196.212 263.047 190.858 256.979 187.117C250.911 183.375 243.9 181.397 236.747 181.408C236.439 181.408 236.16 181.408 235.814 181.408C235.681 181.399 235.548 181.399 235.415 181.408H209.416C208.553 181.403 207.695 181.28 206.865 181.044C205.566 180.599 204.369 179.904 203.343 178.999C202.449 178.183 201.735 177.193 201.247 176.091C200.759 174.989 200.507 173.799 200.506 172.596V159.827C200.528 159.722 200.541 159.615 200.544 159.507C200.546 159.37 200.533 159.233 200.506 159.098Z" fill="#EAEAEA" fill-opacity="0.2"/>
<path d="M289.22 137.383H209.454C205.493 137.393 201.699 138.955 198.903 141.727C196.106 144.498 194.537 148.253 194.539 152.167V172.596C194.542 174.611 194.963 176.604 195.778 178.451C196.592 180.298 197.781 181.96 199.272 183.334L199.37 183.424C200.921 184.793 202.725 185.854 204.683 186.547L204.931 186.651C206.391 187.111 207.914 187.344 209.446 187.343H236.777C243.563 187.341 250.174 189.46 255.667 193.396C261.16 197.332 265.253 202.885 267.359 209.259C267.525 209.778 267.831 210.243 268.245 210.602C268.659 210.962 269.165 211.202 269.707 211.297C269.787 211.304 269.868 211.304 269.948 211.297H270.241C270.693 211.295 271.139 211.197 271.548 211.008C271.958 210.819 272.321 210.544 272.612 210.203L300.861 175.325C303.006 172.691 304.174 169.41 304.172 166.029V152.167C304.173 150.226 303.787 148.304 303.036 146.51C302.285 144.716 301.184 143.086 299.795 141.713C298.407 140.341 296.758 139.251 294.944 138.508C293.129 137.765 291.184 137.383 289.22 137.383ZM200.506 159.098V152.167C200.504 149.828 201.441 147.583 203.112 145.926C204.782 144.268 207.049 143.333 209.416 143.325H289.22C291.589 143.331 293.859 144.265 295.532 145.922C297.205 147.58 298.145 149.826 298.145 152.167V166.044C298.117 168.068 297.408 170.026 296.128 171.607L271.062 202.566C267.928 196.212 263.047 190.858 256.979 187.117C250.911 183.375 243.9 181.397 236.747 181.408C236.439 181.408 236.16 181.408 235.814 181.408C235.681 181.399 235.548 181.399 235.415 181.408H209.416C208.553 181.403 207.695 181.28 206.865 181.044C205.566 180.599 204.369 179.904 203.343 178.999C202.449 178.183 201.735 177.193 201.247 176.091C200.759 174.989 200.507 173.799 200.506 172.596V159.827C200.528 159.722 200.541 159.615 200.544 159.507C200.546 159.37 200.533 159.233 200.506 159.098Z" fill="#EAEAEA" fill-opacity="0.2"/>
<path d="M87.2808 175.588H6.91054C2.92015 175.578 -0.903265 173.999 -3.72064 171.196C-6.53802 168.393 -8.11921 164.596 -8.11719 160.638V139.98C-8.11447 137.942 -7.68974 135.927 -6.86936 134.059C-6.04898 132.191 -4.85044 130.51 -3.34804 129.12L-3.24947 129.03C-1.68686 127.645 0.130755 126.573 2.10349 125.872L2.35369 125.766C3.82456 125.302 5.3592 125.066 6.90295 125.067H34.4411C41.2776 125.069 47.9397 122.926 53.4742 118.946C59.0087 114.965 63.1322 109.35 65.2548 102.905C65.4212 102.379 65.7298 101.909 66.1469 101.546C66.564 101.183 67.0737 100.94 67.6204 100.844C67.7011 100.837 67.7823 100.837 67.863 100.844H68.1587C68.6138 100.846 69.0631 100.945 69.4756 101.136C69.888 101.327 70.2536 101.605 70.5471 101.95L99.0103 137.22C101.171 139.884 102.349 143.201 102.346 146.62V160.638C102.347 162.601 101.958 164.545 101.202 166.359C100.445 168.173 99.3355 169.821 97.9365 171.209C96.5374 172.597 94.8763 173.699 93.0479 174.45C91.2196 175.202 89.2599 175.588 87.2808 175.588ZM-2.10459 153.629V160.638C-2.10661 163.004 -1.16263 165.273 0.520271 166.95C2.20317 168.626 4.48764 169.572 6.87264 169.58H87.2808C89.6678 169.574 91.955 168.629 93.6407 166.953C95.3265 165.277 96.2732 163.006 96.2731 160.638V146.605C96.2459 144.558 95.5308 142.578 94.2411 140.98L68.9852 109.673C65.8273 116.098 60.9101 121.512 54.7959 125.296C48.6817 129.079 41.6174 131.08 34.4108 131.068C34.0999 131.068 33.8194 131.068 33.4706 131.068C33.3369 131.078 33.2026 131.078 33.0688 131.068H6.87264C6.00292 131.074 5.13809 131.198 4.3023 131.437C2.99337 131.887 1.78734 132.59 0.75388 133.505C-0.1473 134.33 -0.86651 135.331 -1.35845 136.446C-1.8504 137.56 -2.10444 138.763 -2.10459 139.98V152.892C-2.08243 152.999 -2.06973 153.107 -2.06666 153.215C-2.06468 153.354 -2.0774 153.493 -2.10459 153.629Z" fill="#EAEAEA" fill-opacity="0.2"/>
<path d="M87.2808 175.588H6.91054C2.92015 175.578 -0.903265 173.999 -3.72064 171.196C-6.53802 168.393 -8.11921 164.596 -8.11719 160.638V139.98C-8.11447 137.942 -7.68974 135.927 -6.86936 134.059C-6.04898 132.191 -4.85044 130.51 -3.34804 129.12L-3.24947 129.03C-1.68686 127.645 0.130755 126.573 2.10349 125.872L2.35369 125.766C3.82456 125.302 5.3592 125.066 6.90295 125.067H34.4411C41.2776 125.069 47.9397 122.926 53.4742 118.946C59.0087 114.965 63.1322 109.35 65.2548 102.905C65.4212 102.379 65.7298 101.909 66.1469 101.546C66.564 101.183 67.0737 100.94 67.6204 100.844C67.7011 100.837 67.7823 100.837 67.863 100.844H68.1587C68.6138 100.846 69.0631 100.945 69.4756 101.136C69.888 101.327 70.2536 101.605 70.5471 101.95L99.0103 137.22C101.171 139.884 102.349 143.201 102.346 146.62V160.638C102.347 162.601 101.958 164.545 101.202 166.359C100.445 168.173 99.3355 169.821 97.9365 171.209C96.5374 172.597 94.8763 173.699 93.0479 174.45C91.2196 175.202 89.2599 175.588 87.2808 175.588ZM-2.10459 153.629V160.638C-2.10661 163.004 -1.16263 165.273 0.520271 166.95C2.20317 168.626 4.48764 169.572 6.87264 169.58H87.2808C89.6678 169.574 91.955 168.629 93.6407 166.953C95.3265 165.277 96.2732 163.006 96.2731 160.638V146.605C96.2459 144.558 95.5308 142.578 94.2411 140.98L68.9852 109.673C65.8273 116.098 60.9101 121.512 54.7959 125.296C48.6817 129.079 41.6174 131.08 34.4108 131.068C34.0999 131.068 33.8194 131.068 33.4706 131.068C33.3369 131.078 33.2026 131.078 33.0688 131.068H6.87264C6.00292 131.074 5.13809 131.198 4.3023 131.437C2.99337 131.887 1.78734 132.59 0.75388 133.505C-0.1473 134.33 -0.86651 135.331 -1.35845 136.446C-1.8504 137.56 -2.10444 138.763 -2.10459 139.98V152.892C-2.08243 152.999 -2.06973 153.107 -2.06666 153.215C-2.06468 153.354 -2.0774 153.493 -2.10459 153.629Z" fill="#EAEAEA" fill-opacity="0.2"/>
<path d="M29.2651 119.102C22.4807 119.114 15.9667 116.573 11.1427 112.035C6.31871 107.497 3.57578 101.329 3.51172 94.8758V94.4139C3.5403 89.4908 5.13114 84.6906 8.07592 80.642C11.0207 76.5935 15.1821 73.4853 20.0152 71.7245C24.8483 69.9638 30.1276 69.6325 35.1619 70.7742C40.1962 71.9158 44.7508 74.4771 48.229 78.1227C48.3504 78.2217 48.4111 78.3042 48.3938 78.3042L48.5412 78.4774L48.6192 78.5681L48.7146 78.6671L50.18 80.4406C50.2998 80.5392 50.4049 80.653 50.4922 80.7788C53.144 84.4559 54.6897 88.7522 54.9624 93.2039C55.2352 97.6556 54.2246 102.094 52.0398 106.039C49.855 109.984 46.579 113.287 42.5653 115.591C38.5516 117.894 33.9528 119.111 29.2651 119.111V119.102ZM43.139 82.5687C40.594 79.9149 37.2685 78.0508 33.5949 77.219C29.9213 76.3872 26.0696 76.6261 22.5406 77.9047C19.0117 79.1832 15.9687 81.4423 13.8076 84.3881C11.6464 87.3339 10.467 90.8301 10.4227 94.4222V94.8098C10.5486 99.4971 12.6003 103.951 16.1378 107.216C19.6752 110.481 24.4168 112.298 29.3457 112.276C34.2746 112.255 38.9984 110.397 42.5041 107.101C46.0098 103.805 48.0184 99.3331 48.0989 94.6449C48.0996 91.0652 46.9632 87.5689 44.8386 84.6144L43.2778 82.7502L43.1564 82.577L43.139 82.5687Z" fill="#EAEAEA" fill-opacity="0.2"/>
<path d="M29.2651 119.102C22.4807 119.114 15.9667 116.573 11.1427 112.035C6.31871 107.497 3.57578 101.329 3.51172 94.8758V94.4139C3.5403 89.4908 5.13114 84.6906 8.07592 80.642C11.0207 76.5935 15.1821 73.4853 20.0152 71.7245C24.8483 69.9638 30.1276 69.6325 35.1619 70.7742C40.1962 71.9158 44.7508 74.4771 48.229 78.1227C48.3504 78.2217 48.4111 78.3042 48.3938 78.3042L48.5412 78.4774L48.6192 78.5681L48.7146 78.6671L50.18 80.4406C50.2998 80.5392 50.4049 80.653 50.4922 80.7788C53.144 84.4559 54.6897 88.7522 54.9624 93.2039C55.2352 97.6556 54.2246 102.094 52.0398 106.039C49.855 109.984 46.579 113.287 42.5653 115.591C38.5516 117.894 33.9528 119.111 29.2651 119.111V119.102ZM43.139 82.5687C40.594 79.9149 37.2685 78.0508 33.5949 77.219C29.9213 76.3872 26.0696 76.6261 22.5406 77.9047C19.0117 79.1832 15.9687 81.4423 13.8076 84.3881C11.6464 87.3339 10.467 90.8301 10.4227 94.4222V94.8098C10.5486 99.4971 12.6003 103.951 16.1378 107.216C19.6752 110.481 24.4168 112.298 29.3457 112.276C34.2746 112.255 38.9984 110.397 42.5041 107.101C46.0098 103.805 48.0184 99.3331 48.0989 94.6449C48.0996 91.0652 46.9632 87.5689 44.8386 84.6144L43.2778 82.7502L43.1564 82.577L43.139 82.5687Z" fill="#EAEAEA" fill-opacity="0.2"/>
<path d="M69.9599 27.7498H149.726C153.686 27.7597 157.481 29.3395 160.277 32.1423C163.073 34.9452 164.643 38.7422 164.641 42.7001V63.3584C164.638 65.3959 164.216 67.4112 163.402 69.2792C162.588 71.1472 161.398 72.8281 159.907 74.2177L159.81 74.3079C158.259 75.6928 156.455 76.7653 154.497 77.4664L154.248 77.5717C152.789 78.0366 151.266 78.2726 149.733 78.2711H122.402C115.617 78.2692 109.005 80.4118 103.512 84.3924C98.0194 88.373 93.927 93.9878 91.8203 100.433C91.6552 100.959 91.3489 101.429 90.9349 101.792C90.5209 102.155 90.0151 102.398 89.4725 102.494C89.3924 102.501 89.3118 102.501 89.2317 102.494H88.9382C88.4865 102.492 88.0406 102.393 87.6313 102.202C87.222 102.011 86.8591 101.733 86.5678 101.389L58.3186 66.1183C56.1738 63.4543 55.0054 60.1372 55.0076 56.7179V42.7001C55.0066 40.7371 55.3926 38.7932 56.1436 36.9794C56.8946 35.1656 57.9958 33.5174 59.3844 32.1291C60.7729 30.7407 62.4216 29.6393 64.2362 28.8879C66.0508 28.1365 67.9957 27.7498 69.9599 27.7498ZM158.673 49.709V42.7001C158.675 40.3345 157.738 38.0647 156.068 36.3885C154.398 34.7122 152.131 33.7664 149.764 33.7585H69.9599C67.5909 33.7644 65.3209 34.7091 63.6478 36.3854C61.9747 38.0616 61.0352 40.3325 61.0352 42.7001V56.733C61.0622 58.7801 61.7719 60.7597 63.0519 62.3582L88.118 93.6652C91.2521 87.2401 96.1323 81.8262 102.201 78.0426C108.269 74.259 115.28 72.2585 122.432 72.2699C122.741 72.2699 123.019 72.2699 123.365 72.2699C123.498 72.2604 123.632 72.2604 123.764 72.2699H149.764C150.627 72.2641 151.485 72.1401 152.315 71.9014C153.614 71.4513 154.811 70.7484 155.836 69.8333C156.731 69.0082 157.444 68.0069 157.933 66.8925C158.421 65.7782 158.673 64.5749 158.673 63.3584V50.446C158.651 50.3395 158.639 50.2313 158.636 50.1226C158.634 49.9838 158.646 49.8452 158.673 49.709Z" fill="#EAEAEA" fill-opacity="0.2"/>
<path d="M69.9599 27.7498H149.726C153.686 27.7597 157.481 29.3395 160.277 32.1423C163.073 34.9452 164.643 38.7422 164.641 42.7001V63.3584C164.638 65.3959 164.216 67.4112 163.402 69.2792C162.588 71.1472 161.398 72.8281 159.907 74.2177L159.81 74.3079C158.259 75.6928 156.455 76.7653 154.497 77.4664L154.248 77.5717C152.789 78.0366 151.266 78.2726 149.733 78.2711H122.402C115.617 78.2692 109.005 80.4118 103.512 84.3924C98.0194 88.373 93.927 93.9878 91.8203 100.433C91.6552 100.959 91.3489 101.429 90.9349 101.792C90.5209 102.155 90.0151 102.398 89.4725 102.494C89.3924 102.501 89.3118 102.501 89.2317 102.494H88.9382C88.4865 102.492 88.0406 102.393 87.6313 102.202C87.222 102.011 86.8591 101.733 86.5678 101.389L58.3186 66.1183C56.1738 63.4543 55.0054 60.1372 55.0076 56.7179V42.7001C55.0066 40.7371 55.3926 38.7932 56.1436 36.9794C56.8946 35.1656 57.9958 33.5174 59.3844 32.1291C60.7729 30.7407 62.4216 29.6393 64.2362 28.8879C66.0508 28.1365 67.9957 27.7498 69.9599 27.7498ZM158.673 49.709V42.7001C158.675 40.3345 157.738 38.0647 156.068 36.3885C154.398 34.7122 152.131 33.7664 149.764 33.7585H69.9599C67.5909 33.7644 65.3209 34.7091 63.6478 36.3854C61.9747 38.0616 61.0352 40.3325 61.0352 42.7001V56.733C61.0622 58.7801 61.7719 60.7597 63.0519 62.3582L88.118 93.6652C91.2521 87.2401 96.1323 81.8262 102.201 78.0426C108.269 74.259 115.28 72.2585 122.432 72.2699C122.741 72.2699 123.019 72.2699 123.365 72.2699C123.498 72.2604 123.632 72.2604 123.764 72.2699H149.764C150.627 72.2641 151.485 72.1401 152.315 71.9014C153.614 71.4513 154.811 70.7484 155.836 69.8333C156.731 69.0082 157.444 68.0069 157.933 66.8925C158.421 65.7782 158.673 64.5749 158.673 63.3584V50.446C158.651 50.3395 158.639 50.2313 158.636 50.1226C158.634 49.9838 158.646 49.8452 158.673 49.709Z" fill="#EAEAEA" fill-opacity="0.2"/>
<path d="M128.086 84.2358C134.871 84.2246 141.385 86.7648 146.209 91.3028C151.033 95.8408 153.776 102.009 153.84 108.462V108.924C153.811 113.847 152.22 118.648 149.276 122.696C146.331 126.745 142.169 129.853 137.336 131.614C132.503 133.374 127.224 133.706 122.19 132.564C117.155 131.422 112.601 128.861 109.123 125.215C109.001 125.116 108.94 125.034 108.958 125.034L108.81 124.861L108.732 124.77L108.637 124.671L107.172 122.898C107.052 122.799 106.947 122.685 106.859 122.559C104.208 118.882 102.662 114.586 102.389 110.134C102.116 105.683 103.127 101.244 105.312 97.2992C107.497 93.3539 110.773 90.0511 114.786 87.7475C118.8 85.4438 123.399 84.2267 128.086 84.2275V84.2358ZM114.213 120.769C116.758 123.423 120.083 125.287 123.757 126.119C127.43 126.951 131.282 126.712 134.811 125.433C138.34 124.155 141.383 121.896 143.544 118.95C145.705 116.004 146.885 112.508 146.929 108.916V108.528C146.803 103.841 144.751 99.3872 141.214 96.1221C137.676 92.857 132.935 91.0405 128.006 91.062C123.077 91.0836 118.353 92.9416 114.847 96.2376C111.342 99.5335 109.333 104.005 109.253 108.693C109.252 112.273 110.388 115.769 112.513 118.724L114.074 120.588L114.195 120.761L114.213 120.769Z" fill="#EAEAEA" fill-opacity="0.2"/>
<path d="M128.086 84.2358C134.871 84.2246 141.385 86.7648 146.209 91.3028C151.033 95.8408 153.776 102.009 153.84 108.462V108.924C153.811 113.847 152.22 118.648 149.276 122.696C146.331 126.745 142.169 129.853 137.336 131.614C132.503 133.374 127.224 133.706 122.19 132.564C117.155 131.422 112.601 128.861 109.123 125.215C109.001 125.116 108.94 125.034 108.958 125.034L108.81 124.861L108.732 124.77L108.637 124.671L107.172 122.898C107.052 122.799 106.947 122.685 106.859 122.559C104.208 118.882 102.662 114.586 102.389 110.134C102.116 105.683 103.127 101.244 105.312 97.2992C107.497 93.3539 110.773 90.0511 114.786 87.7475C118.8 85.4438 123.399 84.2267 128.086 84.2275V84.2358ZM114.213 120.769C116.758 123.423 120.083 125.287 123.757 126.119C127.43 126.951 131.282 126.712 134.811 125.433C138.34 124.155 141.383 121.896 143.544 118.95C145.705 116.004 146.885 112.508 146.929 108.916V108.528C146.803 103.841 144.751 99.3872 141.214 96.1221C137.676 92.857 132.935 91.0405 128.006 91.062C123.077 91.0836 118.353 92.9416 114.847 96.2376C111.342 99.5335 109.333 104.005 109.253 108.693C109.252 112.273 110.388 115.769 112.513 118.724L114.074 120.588L114.195 120.761L114.213 120.769Z" fill="#EAEAEA" fill-opacity="0.2"/>
<path d="M178.875 122.433H259.246C263.236 122.423 267.06 120.825 269.877 117.991C272.694 115.157 274.275 111.318 274.273 107.316V86.4286C274.271 84.3684 273.846 82.3308 273.026 80.442C272.205 78.5533 271.007 76.8537 269.504 75.4486L269.406 75.3574C267.843 73.9571 266.025 72.8727 264.053 72.1638L263.803 72.0573C262.332 71.5872 260.797 71.3487 259.253 71.3502H231.715C224.879 71.3521 218.217 69.1857 212.682 65.1609C207.148 61.136 203.024 55.4589 200.901 48.9416C200.735 48.4104 200.426 47.9353 200.009 47.5679C199.592 47.2005 199.083 46.955 198.536 46.8581C198.455 46.8506 198.374 46.8506 198.293 46.8581H197.998C197.542 46.8597 197.093 46.9604 196.681 47.1534C196.268 47.3465 195.903 47.6271 195.609 47.9759L167.146 83.638C164.985 86.3316 163.808 89.6856 163.81 93.1428V107.316C163.809 109.301 164.198 111.267 164.954 113.101C165.711 114.935 166.821 116.601 168.22 118.005C169.619 119.409 171.28 120.522 173.108 121.282C174.937 122.042 176.896 122.433 178.875 122.433ZM268.261 100.23V107.316C268.263 109.708 267.319 112.003 265.636 113.698C263.953 115.393 261.669 116.349 259.284 116.357H178.875C176.488 116.351 174.201 115.396 172.516 113.701C170.83 112.006 169.883 109.71 169.883 107.316V93.1276C169.91 91.0577 170.625 89.0562 171.915 87.4399L197.171 55.7851C200.329 62.2815 205.246 67.7556 211.36 71.5812C217.475 75.4068 224.539 77.4295 231.745 77.418C232.056 77.418 232.337 77.418 232.686 77.418C232.819 77.4276 232.954 77.4276 233.087 77.418H259.284C260.153 77.4239 261.018 77.5493 261.854 77.7906C263.163 78.2457 264.369 78.9564 265.402 79.8817C266.304 80.716 267.023 81.7285 267.515 82.8552C268.007 83.9819 268.261 85.1986 268.261 86.4286V99.4844C268.239 99.5921 268.226 99.7015 268.223 99.8114C268.221 99.9517 268.234 100.092 268.261 100.23Z" fill="#EAEAEA" fill-opacity="0.2"/>
<path d="M178.875 122.433H259.246C263.236 122.423 267.06 120.825 269.877 117.991C272.694 115.157 274.275 111.318 274.273 107.316V86.4286C274.271 84.3684 273.846 82.3308 273.026 80.442C272.205 78.5533 271.007 76.8537 269.504 75.4486L269.406 75.3574C267.843 73.9571 266.025 72.8727 264.053 72.1638L263.803 72.0573C262.332 71.5872 260.797 71.3487 259.253 71.3502H231.715C224.879 71.3521 218.217 69.1857 212.682 65.1609C207.148 61.136 203.024 55.4589 200.901 48.9416C200.735 48.4104 200.426 47.9353 200.009 47.5679C199.592 47.2005 199.083 46.955 198.536 46.8581C198.455 46.8506 198.374 46.8506 198.293 46.8581H197.998C197.542 46.8597 197.093 46.9604 196.681 47.1534C196.268 47.3465 195.903 47.6271 195.609 47.9759L167.146 83.638C164.985 86.3316 163.808 89.6856 163.81 93.1428V107.316C163.809 109.301 164.198 111.267 164.954 113.101C165.711 114.935 166.821 116.601 168.22 118.005C169.619 119.409 171.28 120.522 173.108 121.282C174.937 122.042 176.896 122.433 178.875 122.433ZM268.261 100.23V107.316C268.263 109.708 267.319 112.003 265.636 113.698C263.953 115.393 261.669 116.349 259.284 116.357H178.875C176.488 116.351 174.201 115.396 172.516 113.701C170.83 112.006 169.883 109.71 169.883 107.316V93.1276C169.91 91.0577 170.625 89.0562 171.915 87.4399L197.171 55.7851C200.329 62.2815 205.246 67.7556 211.36 71.5812C217.475 75.4068 224.539 77.4295 231.745 77.418C232.056 77.418 232.337 77.418 232.686 77.418C232.819 77.4276 232.954 77.4276 233.087 77.418H259.284C260.153 77.4239 261.018 77.5493 261.854 77.7906C263.163 78.2457 264.369 78.9564 265.402 79.8817C266.304 80.716 267.023 81.7285 267.515 82.8552C268.007 83.9819 268.261 85.1986 268.261 86.4286V99.4844C268.239 99.5921 268.226 99.7015 268.223 99.8114C268.221 99.9517 268.234 100.092 268.261 100.23Z" fill="#EAEAEA" fill-opacity="0.2"/>
<path d="M236.474 65.9469C243.149 65.9583 249.558 63.375 254.305 58.7601C259.051 54.1452 261.749 47.8728 261.812 41.3098V40.8401C261.784 35.8335 260.219 30.9519 257.322 26.8347C254.425 22.7176 250.33 19.5567 245.575 17.7661C240.82 15.9755 235.626 15.6386 230.673 16.7996C225.72 17.9606 221.239 20.5654 217.816 24.2727C217.697 24.3734 217.637 24.4573 217.654 24.4573L217.509 24.6334L217.433 24.7257L217.339 24.8264L215.897 26.6299C215.779 26.7302 215.676 26.8459 215.59 26.9738C212.981 30.7133 211.46 35.0824 211.192 39.6096C210.923 44.1367 211.918 48.65 214.067 52.6621C216.217 56.6743 219.44 60.033 223.389 62.3757C227.338 64.7184 231.862 65.9562 236.474 65.9553V65.9469ZM222.824 28.7941C225.328 26.0952 228.6 24.1996 232.215 23.3537C235.829 22.5078 239.618 22.7508 243.091 24.051C246.563 25.3512 249.556 27.6486 251.683 30.6443C253.809 33.64 254.969 37.1955 255.013 40.8484V41.2427C254.889 46.0094 252.871 50.5387 249.39 53.8592C245.91 57.1796 241.245 59.0269 236.395 59.005C231.546 58.983 226.898 57.0936 223.449 53.7417C220 50.3899 218.024 45.8426 217.944 41.0749C217.944 37.4346 219.062 33.8791 221.152 30.8745L222.688 28.9787L222.807 28.8025L222.824 28.7941Z" fill="#EAEAEA" fill-opacity="0.2"/>
<path d="M236.474 65.9469C243.149 65.9583 249.558 63.375 254.305 58.7601C259.051 54.1452 261.749 47.8728 261.812 41.3098V40.8401C261.784 35.8335 260.219 30.9519 257.322 26.8347C254.425 22.7176 250.33 19.5567 245.575 17.7661C240.82 15.9755 235.626 15.6386 230.673 16.7996C225.72 17.9606 221.239 20.5654 217.816 24.2727C217.697 24.3734 217.637 24.4573 217.654 24.4573L217.509 24.6334L217.433 24.7257L217.339 24.8264L215.897 26.6299C215.779 26.7302 215.676 26.8459 215.59 26.9738C212.981 30.7133 211.46 35.0824 211.192 39.6096C210.923 44.1367 211.918 48.65 214.067 52.6621C216.217 56.6743 219.44 60.033 223.389 62.3757C227.338 64.7184 231.862 65.9562 236.474 65.9553V65.9469ZM222.824 28.7941C225.328 26.0952 228.6 24.1996 232.215 23.3537C235.829 22.5078 239.618 22.7508 243.091 24.051C246.563 25.3512 249.556 27.6486 251.683 30.6443C253.809 33.64 254.969 37.1955 255.013 40.8484V41.2427C254.889 46.0094 252.871 50.5387 249.39 53.8592C245.91 57.1796 241.245 59.0269 236.395 59.005C231.546 58.983 226.898 57.0936 223.449 53.7417C220 50.3899 218.024 45.8426 217.944 41.0749C217.944 37.4346 219.062 33.8791 221.152 30.8745L222.688 28.9787L222.807 28.8025L222.824 28.7941Z" fill="#EAEAEA" fill-opacity="0.2"/>
<path d="M183.139 152.086L183.427 231.375C183.431 235.311 181.865 239.089 179.073 241.878C176.281 244.668 172.49 246.241 168.533 246.253L147.879 246.326C145.842 246.331 143.825 245.919 141.955 245.116C140.084 244.314 138.399 243.137 137.005 241.66L136.914 241.563C135.524 240.027 134.445 238.237 133.737 236.294L133.631 236.047C133.161 234.598 132.919 233.084 132.915 231.562L132.817 204.394C132.794 197.65 130.628 191.085 126.628 185.639C122.629 180.193 117 176.145 110.548 174.074C110.023 173.912 109.552 173.609 109.187 173.199C108.822 172.789 108.578 172.287 108.48 171.748C108.472 171.668 108.472 171.588 108.479 171.508L108.478 171.217C108.478 170.768 108.576 170.324 108.765 169.916C108.954 169.509 109.231 169.147 109.575 168.856L144.736 140.651C147.392 138.51 150.704 137.337 154.122 137.327L168.138 137.277C170.1 137.269 172.045 137.646 173.861 138.386C175.677 139.126 177.329 140.214 178.722 141.59C180.115 142.965 181.222 144.6 181.98 146.401C182.738 148.202 183.132 150.134 183.139 152.086ZM161.504 240.346L168.512 240.321C170.877 240.315 173.143 239.376 174.813 237.709C176.482 236.043 177.42 233.786 177.419 231.433L177.131 152.108C177.117 149.753 176.164 147.5 174.482 145.843C172.8 144.186 170.526 143.26 168.159 143.268L154.129 143.318C152.083 143.352 150.106 144.065 148.512 145.343L117.302 170.37C123.737 173.462 129.168 178.294 132.972 184.313C136.777 190.331 138.802 197.293 138.817 204.403C138.818 204.709 138.819 204.986 138.82 205.33C138.83 205.462 138.831 205.595 138.822 205.727L138.915 231.57C138.924 232.428 139.051 233.281 139.293 234.105C139.748 235.394 140.455 236.582 141.373 237.598C142.202 238.484 143.205 239.19 144.321 239.671C145.437 240.153 146.641 240.399 147.857 240.395L160.767 240.349C160.874 240.327 160.982 240.314 161.09 240.31C161.229 240.308 161.368 240.32 161.504 240.346Z" fill="#EAEAEA" fill-opacity="0.2"/>
</g>
<defs>
<clipPath id="clip0">
<rect width="288" height="149" fill="white" transform="translate(-7)"/>
</clipPath>
</defs>
</svg>
