<svg width="186" height="431" viewBox="0 0 186 431" fill="none" xmlns="http://www.w3.org/2000/svg">
<path d="M193.867 169.412L193.867 105.649C193.859 102.483 192.625 99.4498 190.434 97.2146C188.243 94.9794 185.275 93.725 182.182 93.7266H166.035C164.443 93.7287 162.867 94.0657 161.407 94.7165C159.947 95.3674 158.634 96.3183 157.547 97.5102L157.477 97.5884C156.394 98.8282 155.556 100.27 155.008 101.835L154.926 102.034C154.562 103.201 154.378 104.418 154.379 105.643V127.491C154.381 132.915 152.706 138.2 149.595 142.591C146.483 146.982 142.095 150.253 137.057 151.937C136.646 152.069 136.279 152.314 135.995 152.645C135.711 152.976 135.521 153.38 135.446 153.814C135.441 153.878 135.441 153.942 135.446 154.007V154.241C135.448 154.602 135.525 154.959 135.675 155.286C135.824 155.613 136.041 155.903 136.31 156.136L163.878 178.718C165.96 180.432 168.553 181.366 171.225 181.364H182.182C183.716 181.365 185.235 181.057 186.653 180.456C188.071 179.856 189.359 178.976 190.444 177.866C191.529 176.756 192.39 175.438 192.978 173.987C193.565 172.537 193.867 170.982 193.867 169.412ZM176.704 98.4967H182.182C184.031 98.4951 185.805 99.2441 187.115 100.579C188.425 101.914 189.164 103.727 189.171 105.619V169.412C189.166 171.306 188.428 173.12 187.118 174.458C185.807 175.795 184.032 176.546 182.182 176.546H171.214C169.614 176.524 168.066 175.957 166.817 174.934L142.347 154.897C147.369 152.391 151.601 148.49 154.558 143.64C157.515 138.789 159.079 133.184 159.07 127.467C159.07 127.22 159.07 126.998 159.07 126.721C159.077 126.615 159.077 126.508 159.07 126.402V105.619C159.074 104.929 159.171 104.243 159.358 103.58C159.71 102.541 160.259 101.584 160.974 100.765C161.619 100.05 162.402 99.479 163.273 99.0887C164.144 98.6984 165.084 98.4969 166.035 98.4967H176.128C176.211 98.5143 176.295 98.5244 176.38 98.5268C176.489 98.5284 176.597 98.5183 176.704 98.4967Z" fill="#EAEAEA" fill-opacity="0.2"/>
<path d="M150.04 122.944C150.049 117.521 147.95 112.314 144.199 108.457C140.449 104.601 135.351 102.409 130.018 102.357H129.636C125.567 102.38 121.6 103.652 118.254 106.006C114.908 108.36 112.339 111.686 110.884 115.55C109.428 119.413 109.155 123.634 110.098 127.658C111.042 131.682 113.159 135.323 116.172 138.103C116.253 138.2 116.322 138.249 116.322 138.235L116.465 138.353L116.54 138.415L116.621 138.491L118.087 139.663C118.169 139.759 118.263 139.843 118.367 139.912C121.406 142.032 124.957 143.268 128.636 143.486C132.315 143.704 135.983 142.896 139.244 141.15C142.504 139.403 145.234 136.784 147.138 133.576C149.042 130.367 150.048 126.691 150.047 122.944H150.04ZM119.846 134.034C117.653 132 116.112 129.342 115.425 126.405C114.737 123.469 114.935 120.39 115.991 117.569C117.048 114.748 118.915 112.315 121.35 110.588C123.784 108.86 126.674 107.917 129.643 107.882H129.963C133.837 107.983 137.518 109.623 140.216 112.45C142.915 115.278 144.416 119.068 144.398 123.008C144.381 126.948 142.845 130.725 140.121 133.527C137.397 136.329 133.701 137.935 129.827 137.999C126.868 138 123.979 137.091 121.537 135.393L119.996 134.145L119.853 134.048L119.846 134.034Z" fill="#EAEAEA" fill-opacity="0.2"/>
<path d="M150.04 122.944C150.049 117.521 147.95 112.314 144.199 108.457C140.449 104.601 135.351 102.409 130.018 102.357H129.636C125.567 102.38 121.6 103.652 118.254 106.006C114.908 108.36 112.339 111.686 110.884 115.55C109.428 119.413 109.155 123.634 110.098 127.658C111.042 131.682 113.159 135.323 116.172 138.103C116.253 138.2 116.322 138.249 116.322 138.235L116.465 138.353L116.54 138.415L116.621 138.491L118.087 139.663C118.169 139.759 118.263 139.843 118.367 139.912C121.406 142.032 124.957 143.268 128.636 143.486C132.315 143.704 135.983 142.896 139.244 141.15C142.504 139.403 145.234 136.784 147.138 133.576C149.042 130.367 150.048 126.691 150.047 122.944H150.04ZM119.846 134.034C117.653 132 116.112 129.342 115.425 126.405C114.737 123.469 114.935 120.39 115.991 117.569C117.048 114.748 118.915 112.315 121.35 110.588C123.784 108.86 126.674 107.917 129.643 107.882H129.963C133.837 107.983 137.518 109.623 140.216 112.45C142.915 115.278 144.416 119.068 144.398 123.008C144.381 126.948 142.845 130.725 140.121 133.527C137.397 136.329 133.701 137.935 129.827 137.999C126.868 138 123.979 137.091 121.537 135.393L119.996 134.145L119.853 134.048L119.846 134.034Z" fill="#EAEAEA" fill-opacity="0.2"/>
<path d="M140.09 419.047L140.09 355.285C140.082 352.119 138.833 349.085 136.618 346.85C134.402 344.615 131.4 343.36 128.272 343.362H111.942C110.331 343.364 108.738 343.701 107.261 344.352C105.785 345.003 104.456 345.954 103.357 347.146L103.286 347.224C102.191 348.464 101.343 349.906 100.789 351.471L100.706 351.669C100.338 352.836 100.152 354.054 100.153 355.278V377.126C100.155 382.55 98.4609 387.836 95.3143 392.226C92.1676 396.617 87.7292 399.889 82.634 401.573C82.2187 401.705 81.8472 401.95 81.56 402.281C81.2728 402.611 81.0809 403.016 81.0051 403.45C80.9992 403.514 80.9992 403.578 81.0051 403.642V403.877C81.0063 404.238 81.0851 404.594 81.236 404.921C81.3869 405.249 81.6063 405.539 81.879 405.771L109.76 428.353C111.866 430.068 114.488 431.002 117.191 431H128.272C129.823 431.001 131.36 430.692 132.794 430.092C134.228 429.491 135.531 428.611 136.628 427.501C137.726 426.391 138.596 425.073 139.19 423.623C139.784 422.172 140.09 420.618 140.09 419.047ZM122.731 348.132H128.272C130.142 348.131 131.936 348.88 133.261 350.215C134.586 351.55 135.334 353.362 135.34 355.254V419.047C135.335 420.941 134.589 422.756 133.263 424.093C131.938 425.431 130.143 426.182 128.272 426.182H117.179C115.561 426.16 113.996 425.593 112.732 424.569L87.9842 404.532C93.0632 402.027 97.3429 398.126 100.334 393.275C103.325 388.424 104.906 382.82 104.897 377.102C104.897 376.856 104.897 376.633 104.897 376.356C104.905 376.25 104.905 376.144 104.897 376.038V355.254C104.902 354.564 105 353.878 105.188 353.215C105.544 352.177 106.1 351.22 106.823 350.4C107.475 349.685 108.267 349.114 109.148 348.724C110.029 348.334 110.98 348.132 111.942 348.132H122.149C122.233 348.15 122.318 348.16 122.404 348.162C122.514 348.164 122.624 348.154 122.731 348.132Z" fill="#EAEAEA" fill-opacity="0.2"/>
<path d="M140.09 419.047L140.09 355.285C140.082 352.119 138.833 349.085 136.618 346.85C134.402 344.615 131.4 343.36 128.272 343.362H111.942C110.331 343.364 108.738 343.701 107.261 344.352C105.785 345.003 104.456 345.954 103.357 347.146L103.286 347.224C102.191 348.464 101.343 349.906 100.789 351.471L100.706 351.669C100.338 352.836 100.152 354.054 100.153 355.278V377.126C100.155 382.55 98.4609 387.836 95.3143 392.226C92.1676 396.617 87.7292 399.889 82.634 401.573C82.2187 401.705 81.8472 401.95 81.56 402.281C81.2728 402.611 81.0809 403.016 81.0051 403.45C80.9992 403.514 80.9992 403.578 81.0051 403.642V403.877C81.0063 404.238 81.0851 404.594 81.236 404.921C81.3869 405.249 81.6063 405.539 81.879 405.771L109.76 428.353C111.866 430.068 114.488 431.002 117.191 431H128.272C129.823 431.001 131.36 430.692 132.794 430.092C134.228 429.491 135.531 428.611 136.628 427.501C137.726 426.391 138.596 425.073 139.19 423.623C139.784 422.172 140.09 420.618 140.09 419.047ZM122.731 348.132H128.272C130.142 348.131 131.936 348.88 133.261 350.215C134.586 351.55 135.334 353.362 135.34 355.254V419.047C135.335 420.941 134.589 422.756 133.263 424.093C131.938 425.431 130.143 426.182 128.272 426.182H117.179C115.561 426.16 113.996 425.593 112.732 424.569L87.9842 404.532C93.0632 402.027 97.3429 398.126 100.334 393.275C103.325 388.424 104.906 382.82 104.897 377.102C104.897 376.856 104.897 376.633 104.897 376.356C104.905 376.25 104.905 376.144 104.897 376.038V355.254C104.902 354.564 105 353.878 105.188 353.215C105.544 352.177 106.1 351.22 106.823 350.4C107.475 349.685 108.267 349.114 109.148 348.724C110.029 348.334 110.98 348.132 111.942 348.132H122.149C122.233 348.15 122.318 348.16 122.404 348.162C122.514 348.164 122.624 348.154 122.731 348.132Z" fill="#EAEAEA" fill-opacity="0.2"/>
<path d="M95.5989 372.579C95.6078 367.156 93.5772 361.948 89.9497 358.092C86.3221 354.236 81.3917 352.043 76.2328 351.992H75.8636C71.9281 352.015 68.091 353.287 64.8547 355.641C61.6184 357.995 59.1338 361.321 57.7263 365.185C56.3188 369.048 56.054 373.268 56.9666 377.293C57.8792 381.317 59.9266 384.958 62.8408 387.738C62.9199 387.835 62.9859 387.884 62.9859 387.87L63.1243 387.988L63.1969 388.05L63.276 388.126L64.6937 389.298C64.7725 389.393 64.8635 389.477 64.964 389.547C67.9034 391.667 71.3378 392.903 74.8963 393.121C78.4549 393.339 82.0026 392.531 85.1563 390.784C88.3101 389.038 90.9502 386.419 92.7917 383.211C94.6332 380.002 95.6061 376.326 95.6055 372.579H95.5989ZM66.3949 383.669C64.2734 381.635 62.7833 378.976 62.1184 376.04C61.4535 373.103 61.6445 370.024 62.6665 367.203C63.6886 364.382 65.4944 361.95 67.8492 360.222C70.204 358.495 72.9988 357.552 75.8702 357.517H76.1801C79.927 357.617 83.4872 359.257 86.0973 362.085C88.7073 364.913 90.1594 368.703 90.1421 372.643C90.1249 376.583 88.6397 380.359 86.005 383.162C83.3702 385.964 79.7958 387.57 76.0482 387.634C73.1867 387.635 70.3919 386.726 68.0301 385.028L66.5399 383.78L66.4015 383.683L66.3949 383.669Z" fill="#EAEAEA" fill-opacity="0.2"/>
<path d="M109.551 257.622L109.551 193.376C109.559 190.186 110.822 187.13 113.062 184.878C115.303 182.626 118.338 181.362 121.502 181.363H138.015C139.644 181.365 141.255 181.705 142.748 182.361C144.242 183.017 145.585 183.975 146.696 185.176L146.768 185.254C147.875 186.504 148.733 187.956 149.293 189.533L149.377 189.733C149.749 190.909 149.937 192.136 149.936 193.37V215.383C149.935 220.848 151.647 226.174 154.829 230.598C158.011 235.022 162.5 238.318 167.652 240.015C168.072 240.148 168.448 240.395 168.738 240.728C169.029 241.062 169.223 241.469 169.299 241.906C169.305 241.97 169.305 242.035 169.299 242.1V242.336C169.298 242.7 169.219 243.059 169.066 243.389C168.913 243.719 168.691 244.011 168.416 244.245L140.222 266.998C138.092 268.726 135.44 269.667 132.707 269.665H121.502C119.933 269.666 118.379 269.355 116.929 268.75C115.479 268.145 114.161 267.258 113.051 266.14C111.942 265.021 111.061 263.694 110.461 262.232C109.86 260.771 109.551 259.204 109.551 257.622ZM127.104 186.17H121.502C119.611 186.168 117.796 186.923 116.456 188.268C115.116 189.613 114.36 191.439 114.354 193.346L114.354 257.622C114.359 259.53 115.114 261.358 116.454 262.706C117.794 264.053 119.609 264.81 121.502 264.81H132.719C134.356 264.788 135.938 264.217 137.216 263.186L162.242 242.997C157.106 240.473 152.778 236.542 149.754 231.654C146.729 226.767 145.13 221.12 145.139 215.359C145.139 215.111 145.139 214.886 145.139 214.608C145.131 214.501 145.131 214.393 145.139 214.286V193.346C145.134 192.651 145.035 191.959 144.844 191.291C144.485 190.245 143.923 189.281 143.191 188.455C142.532 187.734 141.731 187.159 140.84 186.766C139.95 186.373 138.988 186.17 138.015 186.17H127.694C127.608 186.187 127.522 186.197 127.435 186.2C127.324 186.201 127.213 186.191 127.104 186.17Z" fill="#EAEAEA" fill-opacity="0.2"/>
<path d="M109.551 257.622L109.551 193.376C109.559 190.186 110.822 187.13 113.062 184.878C115.303 182.626 118.338 181.362 121.502 181.363H138.015C139.644 181.365 141.255 181.705 142.748 182.361C144.242 183.017 145.585 183.975 146.696 185.176L146.768 185.254C147.875 186.504 148.733 187.956 149.293 189.533L149.377 189.733C149.749 190.909 149.937 192.136 149.936 193.37V215.383C149.935 220.848 151.647 226.174 154.829 230.598C158.011 235.022 162.5 238.318 167.652 240.015C168.072 240.148 168.448 240.395 168.738 240.728C169.029 241.062 169.223 241.469 169.299 241.906C169.305 241.97 169.305 242.035 169.299 242.1V242.336C169.298 242.7 169.219 243.059 169.066 243.389C168.913 243.719 168.691 244.011 168.416 244.245L140.222 266.998C138.092 268.726 135.44 269.667 132.707 269.665H121.502C119.933 269.666 118.379 269.355 116.929 268.75C115.479 268.145 114.161 267.258 113.051 266.14C111.942 265.021 111.061 263.694 110.461 262.232C109.86 260.771 109.551 259.204 109.551 257.622ZM127.104 186.17H121.502C119.611 186.168 117.796 186.923 116.456 188.268C115.116 189.613 114.36 191.439 114.354 193.346L114.354 257.622C114.359 259.53 115.114 261.358 116.454 262.706C117.794 264.053 119.609 264.81 121.502 264.81H132.719C134.356 264.788 135.938 264.217 137.216 263.186L162.242 242.997C157.106 240.473 152.778 236.542 149.754 231.654C146.729 226.767 145.13 221.12 145.139 215.359C145.139 215.111 145.139 214.886 145.139 214.608C145.131 214.501 145.131 214.393 145.139 214.286V193.346C145.134 192.651 145.035 191.959 144.844 191.291C144.485 190.245 143.923 189.281 143.191 188.455C142.532 187.734 141.731 187.159 140.84 186.766C139.95 186.373 138.988 186.17 138.015 186.17H127.694C127.608 186.187 127.522 186.197 127.435 186.2C127.324 186.201 127.213 186.191 127.104 186.17Z" fill="#EAEAEA" fill-opacity="0.2"/>
<path d="M154.702 211.247C154.693 205.823 156.724 200.616 160.351 196.76C163.979 192.904 168.909 190.711 174.068 190.66H174.437C178.373 190.683 182.21 191.954 185.446 194.308C188.682 196.662 191.167 199.989 192.575 203.852C193.982 207.716 194.247 211.936 193.334 215.96C192.422 219.985 190.374 223.625 187.46 226.406C187.381 226.503 187.315 226.551 187.315 226.537L187.176 226.655L187.104 226.718L187.025 226.794L185.607 227.965C185.528 228.061 185.437 228.145 185.337 228.215C182.397 230.335 178.963 231.57 175.404 231.788C171.846 232.006 168.298 231.198 165.144 229.452C161.991 227.706 159.351 225.087 157.509 221.878C155.668 218.67 154.695 214.994 154.695 211.247H154.702ZM183.906 222.337C186.027 220.303 187.517 217.644 188.182 214.708C188.847 211.771 188.656 208.692 187.634 205.871C186.612 203.05 184.806 200.618 182.452 198.89C180.097 197.163 177.302 196.22 174.431 196.184H174.121C170.374 196.285 166.814 197.925 164.204 200.753C161.593 203.581 160.141 207.371 160.159 211.311C160.176 215.251 161.661 219.027 164.296 221.829C166.931 224.632 170.505 226.237 174.253 226.302C177.114 226.302 179.909 225.394 182.271 223.696L183.761 222.448L183.899 222.351L183.906 222.337Z" fill="#EAEAEA" fill-opacity="0.2"/>
<path d="M154.702 211.247C154.693 205.823 156.724 200.616 160.351 196.76C163.979 192.904 168.909 190.711 174.068 190.66H174.437C178.373 190.683 182.21 191.954 185.446 194.308C188.682 196.662 191.167 199.989 192.575 203.852C193.982 207.716 194.247 211.936 193.334 215.96C192.422 219.985 190.374 223.625 187.46 226.406C187.381 226.503 187.315 226.551 187.315 226.537L187.176 226.655L187.104 226.718L187.025 226.794L185.607 227.965C185.528 228.061 185.437 228.145 185.337 228.215C182.397 230.335 178.963 231.57 175.404 231.788C171.846 232.006 168.298 231.198 165.144 229.452C161.991 227.706 159.351 225.087 157.509 221.878C155.668 218.67 154.695 214.994 154.695 211.247H154.702ZM183.906 222.337C186.027 220.303 187.517 217.644 188.182 214.708C188.847 211.771 188.656 208.692 187.634 205.871C186.612 203.05 184.806 200.618 182.452 198.89C180.097 197.163 177.302 196.22 174.431 196.184H174.121C170.374 196.285 166.814 197.925 164.204 200.753C161.593 203.581 160.141 207.371 160.159 211.311C160.176 215.251 161.661 219.027 164.296 221.829C166.931 224.632 170.505 226.237 174.253 226.302C177.114 226.302 179.909 225.394 182.271 223.696L183.761 222.448L183.899 222.351L183.906 222.337Z" fill="#EAEAEA" fill-opacity="0.2"/>
<path d="M227.727 243.777V307.54C227.719 310.706 226.456 313.739 224.215 315.974C221.975 318.209 218.939 319.464 215.776 319.462H199.262C197.633 319.46 196.022 319.123 194.529 318.472C193.036 317.821 191.692 316.87 190.581 315.678L190.509 315.6C189.402 314.361 188.545 312.919 187.984 311.353L187.9 311.155C187.529 309.988 187.34 308.77 187.341 307.546V285.698C187.343 280.274 185.63 274.989 182.448 270.598C179.266 266.207 174.778 262.935 169.625 261.251C169.205 261.119 168.83 260.875 168.539 260.544C168.249 260.213 168.055 259.808 167.978 259.375C167.972 259.311 167.972 259.246 167.978 259.182V258.948C167.979 258.587 168.059 258.23 168.211 257.903C168.364 257.576 168.586 257.286 168.862 257.053L197.056 234.471C199.185 232.757 201.837 231.823 204.57 231.824H215.776C217.345 231.824 218.899 232.132 220.349 232.732C221.799 233.333 223.116 234.213 224.226 235.323C225.336 236.433 226.216 237.751 226.817 239.201C227.417 240.652 227.727 242.207 227.727 243.777ZM210.173 314.692H215.776C217.667 314.694 219.481 313.945 220.821 312.61C222.161 311.274 222.917 309.462 222.923 307.57V243.777C222.919 241.883 222.163 240.069 220.823 238.731C219.484 237.394 217.668 236.643 215.776 236.643H204.558C202.922 236.664 201.339 237.232 200.061 238.255L175.035 258.292C180.172 260.797 184.499 264.698 187.524 269.549C190.548 274.4 192.147 280.005 192.138 285.722C192.138 285.969 192.138 286.191 192.138 286.468C192.146 286.574 192.146 286.681 192.138 286.787V307.57C192.143 308.26 192.242 308.946 192.433 309.609C192.793 310.647 193.355 311.604 194.086 312.424C194.746 313.139 195.546 313.71 196.437 314.1C197.328 314.49 198.29 314.692 199.262 314.692H209.584C209.669 314.674 209.755 314.664 209.842 314.662C209.953 314.66 210.064 314.67 210.173 314.692Z" fill="#EAEAEA" fill-opacity="0.2"/>
<path d="M227.727 243.777V307.54C227.719 310.706 226.456 313.739 224.215 315.974C221.975 318.209 218.939 319.464 215.776 319.462H199.262C197.633 319.46 196.022 319.123 194.529 318.472C193.036 317.821 191.692 316.87 190.581 315.678L190.509 315.6C189.402 314.361 188.545 312.919 187.984 311.353L187.9 311.155C187.529 309.988 187.34 308.77 187.341 307.546V285.698C187.343 280.274 185.63 274.989 182.448 270.598C179.266 266.207 174.778 262.935 169.625 261.251C169.205 261.119 168.83 260.875 168.539 260.544C168.249 260.213 168.055 259.808 167.978 259.375C167.972 259.311 167.972 259.246 167.978 259.182V258.948C167.979 258.587 168.059 258.23 168.211 257.903C168.364 257.576 168.586 257.286 168.862 257.053L197.056 234.471C199.185 232.757 201.837 231.823 204.57 231.824H215.776C217.345 231.824 218.899 232.132 220.349 232.732C221.799 233.333 223.116 234.213 224.226 235.323C225.336 236.433 226.216 237.751 226.817 239.201C227.417 240.652 227.727 242.207 227.727 243.777ZM210.173 314.692H215.776C217.667 314.694 219.481 313.945 220.821 312.61C222.161 311.274 222.917 309.462 222.923 307.57V243.777C222.919 241.883 222.163 240.069 220.823 238.731C219.484 237.394 217.668 236.643 215.776 236.643H204.558C202.922 236.664 201.339 237.232 200.061 238.255L175.035 258.292C180.172 260.797 184.499 264.698 187.524 269.549C190.548 274.4 192.147 280.005 192.138 285.722C192.138 285.969 192.138 286.191 192.138 286.468C192.146 286.574 192.146 286.681 192.138 286.787V307.57C192.143 308.26 192.242 308.946 192.433 309.609C192.793 310.647 193.355 311.604 194.086 312.424C194.746 313.139 195.546 313.71 196.437 314.1C197.328 314.49 198.29 314.692 199.262 314.692H209.584C209.669 314.674 209.755 314.664 209.842 314.662C209.953 314.66 210.064 314.67 210.173 314.692Z" fill="#EAEAEA" fill-opacity="0.2"/>
<path d="M182.575 290.242C182.584 295.665 180.554 300.872 176.926 304.728C173.299 308.584 168.368 310.777 163.209 310.828H162.84C158.905 310.805 155.068 309.534 151.831 307.18C148.595 304.826 146.11 301.499 144.703 297.636C143.295 293.772 143.031 289.552 143.943 285.528C144.856 281.503 146.903 277.863 149.817 275.082C149.896 274.985 149.962 274.937 149.962 274.951L150.101 274.833L150.173 274.77L150.253 274.694L151.67 273.523C151.749 273.427 151.84 273.343 151.941 273.273C154.88 271.153 158.314 269.918 161.873 269.7C165.431 269.482 168.979 270.29 172.133 272.036C175.287 273.782 177.927 276.401 179.768 279.61C181.61 282.818 182.583 286.494 182.582 290.242H182.575ZM153.371 279.151C151.25 281.185 149.76 283.844 149.095 286.78C148.43 289.717 148.621 292.796 149.643 295.617C150.665 298.438 152.471 300.87 154.826 302.598C157.181 304.325 159.975 305.268 162.847 305.304H163.157C166.904 305.203 170.464 303.563 173.074 300.735C175.684 297.907 177.136 294.117 177.119 290.177C177.101 286.237 175.616 282.461 172.982 279.659C170.347 276.856 166.772 275.251 163.025 275.186C160.163 275.186 157.368 276.094 155.007 277.792L153.516 279.04L153.378 279.137L153.371 279.151Z" fill="#EAEAEA" fill-opacity="0.2"/>
<path d="M182.575 290.242C182.584 295.665 180.554 300.872 176.926 304.728C173.299 308.584 168.368 310.777 163.209 310.828H162.84C158.905 310.805 155.068 309.534 151.831 307.18C148.595 304.826 146.11 301.499 144.703 297.636C143.295 293.772 143.031 289.552 143.943 285.528C144.856 281.503 146.903 277.863 149.817 275.082C149.896 274.985 149.962 274.937 149.962 274.951L150.101 274.833L150.173 274.77L150.253 274.694L151.67 273.523C151.749 273.427 151.84 273.343 151.941 273.273C154.88 271.153 158.314 269.918 161.873 269.7C165.431 269.482 168.979 270.29 172.133 272.036C175.287 273.782 177.927 276.401 179.768 279.61C181.61 282.818 182.583 286.494 182.582 290.242H182.575ZM153.371 279.151C151.25 281.185 149.76 283.844 149.095 286.78C148.43 289.717 148.621 292.796 149.643 295.617C150.665 298.438 152.471 300.87 154.826 302.598C157.181 304.325 159.975 305.268 162.847 305.304H163.157C166.904 305.203 170.464 303.563 173.074 300.735C175.684 297.907 177.136 294.117 177.119 290.177C177.101 286.237 175.616 282.461 172.982 279.659C170.347 276.856 166.772 275.251 163.025 275.186C160.163 275.186 157.368 276.094 155.007 277.792L153.516 279.04L153.378 279.137L153.371 279.151Z" fill="#EAEAEA" fill-opacity="0.2"/>
<path d="M152.039 330.841L152.039 395.087C152.047 398.277 153.324 401.333 155.589 403.585C157.855 405.838 160.924 407.101 164.123 407.1H180.82C182.467 407.098 184.096 406.758 185.605 406.102C187.115 405.447 188.474 404.488 189.597 403.288L189.67 403.209C190.789 401.96 191.656 400.507 192.223 398.93L192.308 398.73C192.684 397.554 192.874 396.327 192.873 395.093V373.08C192.872 367.615 194.603 362.289 197.821 357.865C201.038 353.441 205.576 350.145 210.786 348.448C211.211 348.315 211.59 348.069 211.884 347.735C212.178 347.402 212.374 346.994 212.452 346.557C212.458 346.493 212.458 346.428 212.452 346.363V346.127C212.45 345.763 212.37 345.404 212.215 345.074C212.061 344.745 211.837 344.452 211.558 344.218L183.051 321.465C180.897 319.737 178.216 318.796 175.453 318.798H164.123C162.536 318.797 160.965 319.108 159.499 319.713C158.033 320.318 156.701 321.205 155.579 322.323C154.457 323.442 153.566 324.77 152.959 326.231C152.352 327.693 152.039 329.259 152.039 330.841ZM169.788 402.294H164.123C162.211 402.295 160.376 401.541 159.021 400.195C157.667 398.85 156.902 397.024 156.896 395.117V330.841C156.9 328.933 157.664 327.105 159.019 325.757C160.374 324.41 162.209 323.653 164.123 323.653H175.465C177.12 323.675 178.72 324.246 180.012 325.277L205.316 345.466C200.122 347.991 195.747 351.921 192.689 356.809C189.63 361.696 188.014 367.343 188.023 373.104C188.023 373.353 188.023 373.577 188.023 373.856C188.015 373.963 188.015 374.07 188.023 374.177V395.117C188.018 395.813 187.918 396.504 187.725 397.172C187.361 398.218 186.793 399.182 186.053 400.009C185.386 400.729 184.577 401.304 183.676 401.697C182.776 402.09 181.803 402.293 180.82 402.294H170.383C170.297 402.276 170.21 402.266 170.122 402.263C170.01 402.262 169.898 402.272 169.788 402.294Z" fill="#EAEAEA" fill-opacity="0.2"/>
<path d="M152.039 330.841L152.039 395.087C152.047 398.277 153.324 401.333 155.589 403.585C157.855 405.838 160.924 407.101 164.123 407.1H180.82C182.467 407.098 184.096 406.758 185.605 406.102C187.115 405.447 188.474 404.488 189.597 403.288L189.67 403.209C190.789 401.96 191.656 400.507 192.223 398.93L192.308 398.73C192.684 397.554 192.874 396.327 192.873 395.093V373.08C192.872 367.615 194.603 362.289 197.821 357.865C201.038 353.441 205.576 350.145 210.786 348.448C211.211 348.315 211.59 348.069 211.884 347.735C212.178 347.402 212.374 346.994 212.452 346.557C212.458 346.493 212.458 346.428 212.452 346.363V346.127C212.45 345.763 212.37 345.404 212.215 345.074C212.061 344.745 211.837 344.452 211.558 344.218L183.051 321.465C180.897 319.737 178.216 318.796 175.453 318.798H164.123C162.536 318.797 160.965 319.108 159.499 319.713C158.033 320.318 156.701 321.205 155.579 322.323C154.457 323.442 153.566 324.77 152.959 326.231C152.352 327.693 152.039 329.259 152.039 330.841ZM169.788 402.294H164.123C162.211 402.295 160.376 401.541 159.021 400.195C157.667 398.85 156.902 397.024 156.896 395.117V330.841C156.9 328.933 157.664 327.105 159.019 325.757C160.374 324.41 162.209 323.653 164.123 323.653H175.465C177.12 323.675 178.72 324.246 180.012 325.277L205.316 345.466C200.122 347.991 195.747 351.921 192.689 356.809C189.63 361.696 188.014 367.343 188.023 373.104C188.023 373.353 188.023 373.577 188.023 373.856C188.015 373.963 188.015 374.07 188.023 374.177V395.117C188.018 395.813 187.918 396.504 187.725 397.172C187.361 398.218 186.793 399.182 186.053 400.009C185.386 400.729 184.577 401.304 183.676 401.697C182.776 402.09 181.803 402.293 180.82 402.294H170.383C170.297 402.276 170.21 402.266 170.122 402.263C170.01 402.262 169.898 402.272 169.788 402.294Z" fill="#EAEAEA" fill-opacity="0.2"/>
<path d="M171.892 84.8007L108.511 85.0307C105.364 85.0342 102.345 83.7826 100.115 81.5505C97.8851 79.3185 96.6273 76.2884 96.6177 73.1252L96.559 56.6147C96.5554 54.9863 96.8846 53.3744 97.5263 51.8792C98.1679 50.3839 99.1083 49.037 100.289 47.9221L100.367 47.8497C101.595 46.7384 103.025 45.8761 104.579 45.3101L104.776 45.2252C105.935 44.8494 107.144 44.6565 108.362 44.6532L130.079 44.5744C135.47 44.5564 140.718 42.8249 145.071 39.6277C149.424 36.4305 152.66 31.9313 154.316 26.7737C154.445 26.3534 154.687 25.9769 155.015 25.6854C155.343 25.3938 155.745 25.1983 156.175 25.1201C156.239 25.1139 156.303 25.1137 156.367 25.1194L156.6 25.1186C156.959 25.1185 157.313 25.1968 157.639 25.3482C157.965 25.4996 158.254 25.7204 158.487 25.9953L181.033 54.1023C182.745 56.2252 183.683 58.873 183.691 61.6057L183.731 72.809C183.737 74.3778 183.436 75.9325 182.844 77.3843C182.253 78.8361 181.382 80.1566 180.283 81.2702C179.183 82.3838 177.877 83.2688 176.437 83.8745C174.997 84.4803 173.453 84.795 171.892 84.8007ZM101.339 67.5063L101.359 73.108C101.364 74.9986 102.115 76.8099 103.447 78.1448C104.779 79.4797 106.583 80.229 108.464 80.2286L171.875 79.9984C173.757 79.9868 175.558 79.2253 176.883 77.8808C178.208 76.5363 178.948 74.7186 178.941 72.8264L178.901 61.6111C178.874 59.9751 178.304 58.395 177.283 57.1211L157.277 32.1723C154.805 37.3164 150.942 41.6574 146.131 44.6988C141.32 47.7402 135.755 49.3592 130.072 49.3708C129.827 49.3716 129.605 49.3724 129.33 49.3734C129.225 49.3814 129.119 49.3818 129.013 49.3746L108.355 49.4496C107.669 49.4567 106.987 49.5583 106.329 49.7514C105.298 50.1149 104.349 50.6801 103.536 51.4144C102.828 52.0765 102.264 52.8788 101.879 53.7708C101.494 54.6629 101.297 55.6253 101.301 56.5975L101.337 66.9173C101.355 67.0023 101.365 67.0888 101.368 67.1756C101.37 67.2866 101.36 67.3974 101.339 67.5063Z" fill="#EAEAEA" fill-opacity="0.2"/>
<path d="M171.892 84.8007L108.511 85.0307C105.364 85.0342 102.345 83.7826 100.115 81.5505C97.8851 79.3185 96.6273 76.2884 96.6177 73.1252L96.559 56.6147C96.5554 54.9863 96.8846 53.3744 97.5263 51.8792C98.1679 50.3839 99.1083 49.037 100.289 47.9221L100.367 47.8497C101.595 46.7384 103.025 45.8761 104.579 45.3101L104.776 45.2252C105.935 44.8494 107.144 44.6565 108.362 44.6532L130.079 44.5744C135.47 44.5564 140.718 42.8249 145.071 39.6277C149.424 36.4305 152.66 31.9313 154.316 26.7737C154.445 26.3534 154.687 25.9769 155.015 25.6854C155.343 25.3938 155.745 25.1983 156.175 25.1201C156.239 25.1139 156.303 25.1137 156.367 25.1194L156.6 25.1186C156.959 25.1185 157.313 25.1968 157.639 25.3482C157.965 25.4996 158.254 25.7204 158.487 25.9953L181.033 54.1023C182.745 56.2252 183.683 58.873 183.691 61.6057L183.731 72.809C183.737 74.3778 183.436 75.9325 182.844 77.3843C182.253 78.8361 181.382 80.1566 180.283 81.2702C179.183 82.3838 177.877 83.2688 176.437 83.8745C174.997 84.4803 173.453 84.795 171.892 84.8007ZM101.339 67.5063L101.359 73.108C101.364 74.9986 102.115 76.8099 103.447 78.1448C104.779 79.4797 106.583 80.229 108.464 80.2286L171.875 79.9984C173.757 79.9868 175.558 79.2253 176.883 77.8808C178.208 76.5363 178.948 74.7186 178.941 72.8264L178.901 61.6111C178.874 59.9751 178.304 58.395 177.283 57.1211L157.277 32.1723C154.805 37.3164 150.942 41.6574 146.131 44.6988C141.32 47.7402 135.755 49.3592 130.072 49.3708C129.827 49.3716 129.605 49.3724 129.33 49.3734C129.225 49.3814 129.119 49.3818 129.013 49.3746L108.355 49.4496C107.669 49.4567 106.987 49.5583 106.329 49.7514C105.298 50.1149 104.349 50.6801 103.536 51.4144C102.828 52.0765 102.264 52.8788 101.879 53.7708C101.494 54.6629 101.297 55.6253 101.301 56.5975L101.337 66.9173C101.355 67.0023 101.365 67.0888 101.368 67.1756C101.37 67.2866 101.36 67.3974 101.339 67.5063Z" fill="#EAEAEA" fill-opacity="0.2"/>
<path d="M126.06 39.8945C120.731 39.9229 115.607 37.8769 111.805 34.2023C108.003 30.5277 105.831 25.5225 105.762 20.2775L105.761 19.9021C105.769 15.9006 107.005 11.9947 109.306 8.69577C111.607 5.39685 114.867 2.85879 118.658 1.41393C122.448 -0.0309341 126.594 -0.315212 130.552 0.59833C134.509 1.51187 138.094 3.58064 140.836 6.53369C140.932 6.6138 140.98 6.68067 140.966 6.68072L141.082 6.82108L141.144 6.89461L141.219 6.97479L142.375 8.41202C142.469 8.49185 142.552 8.58404 142.621 8.68601C144.715 11.6671 145.941 15.1546 146.168 18.772C146.395 22.3894 145.614 25.9993 143.91 29.2121C142.205 32.425 139.642 35.1186 136.496 37.0024C133.35 38.8862 129.741 39.8885 126.06 39.9012L126.06 39.8945ZM136.851 10.1618C134.844 8.01206 132.227 6.50652 129.339 5.84092C126.452 5.17533 123.427 5.38049 120.659 6.42972C117.891 7.47895 115.507 9.32371 113.818 11.7241C112.129 14.1245 111.213 16.9695 111.189 19.8891L111.19 20.2042C111.302 24.0135 112.927 27.6275 115.715 30.2712C118.502 32.9148 122.232 34.3777 126.103 34.3461C129.974 34.3145 133.679 32.791 136.423 30.1021C139.167 27.4133 140.732 23.7733 140.782 19.9627C140.772 17.0533 139.869 14.2149 138.192 11.8196L136.961 10.3089L136.865 10.1684L136.851 10.1618Z" fill="#EAEAEA" fill-opacity="0.2"/>
<path d="M126.06 39.8945C120.731 39.9229 115.607 37.8769 111.805 34.2023C108.003 30.5277 105.831 25.5225 105.762 20.2775L105.761 19.9021C105.769 15.9006 107.005 11.9947 109.306 8.69577C111.607 5.39685 114.867 2.85879 118.658 1.41393C122.448 -0.0309341 126.594 -0.315212 130.552 0.59833C134.509 1.51187 138.094 3.58064 140.836 6.53369C140.932 6.6138 140.98 6.68067 140.966 6.68072L141.082 6.82108L141.144 6.89461L141.219 6.97479L142.375 8.41202C142.469 8.49185 142.552 8.58404 142.621 8.68601C144.715 11.6671 145.941 15.1546 146.168 18.772C146.395 22.3894 145.614 25.9993 143.91 29.2121C142.205 32.425 139.642 35.1186 136.496 37.0024C133.35 38.8862 129.741 39.8885 126.06 39.9012L126.06 39.8945ZM136.851 10.1618C134.844 8.01206 132.227 6.50652 129.339 5.84092C126.452 5.17533 123.427 5.38049 120.659 6.42972C117.891 7.47895 115.507 9.32371 113.818 11.7241C112.129 14.1245 111.213 16.9695 111.189 19.8891L111.19 20.2042C111.302 24.0135 112.927 27.6275 115.715 30.2712C118.502 32.9148 122.232 34.3777 126.103 34.3461C129.974 34.3145 133.679 32.791 136.423 30.1021C139.167 27.4133 140.732 23.7733 140.782 19.9627C140.772 17.0533 139.869 14.2149 138.192 11.8196L136.961 10.3089L136.865 10.1684L136.851 10.1618Z" fill="#EAEAEA" fill-opacity="0.2"/>
<path d="M128.337 334.248L64.9565 334.478C61.8096 334.482 58.7899 333.23 56.5602 330.998C54.3304 328.766 53.0727 325.736 53.063 322.573L53.0043 306.062C53.0007 304.434 53.3299 302.822 53.9716 301.327C54.6132 299.832 55.5536 298.485 56.7345 297.37L56.812 297.297C58.0403 296.186 59.4707 295.324 61.0244 294.758L61.2214 294.673C62.3801 294.297 63.5896 294.104 64.807 294.101L86.524 294.022C91.9153 294.004 97.163 292.273 101.516 289.075C105.87 285.878 109.105 281.379 110.761 276.221C110.891 275.801 111.133 275.425 111.461 275.133C111.789 274.842 112.19 274.646 112.621 274.568C112.684 274.562 112.748 274.561 112.812 274.567L113.045 274.566C113.404 274.566 113.759 274.645 114.085 274.796C114.41 274.947 114.699 275.168 114.932 275.443L137.478 303.55C139.19 305.673 140.128 308.321 140.136 311.053L140.176 322.257C140.182 323.826 139.881 325.38 139.289 326.832C138.698 328.284 137.828 329.604 136.728 330.718C135.629 331.832 134.322 332.717 132.882 333.322C131.442 333.928 129.898 334.243 128.337 334.248ZM57.7847 316.954L57.8046 322.556C57.8097 324.446 58.5606 326.258 59.8925 327.593C61.2245 328.927 63.0287 329.677 64.9096 329.676L128.32 329.446C130.203 329.435 132.004 328.673 133.328 327.329C134.653 325.984 135.393 324.166 135.386 322.274L135.347 311.059C135.319 309.423 134.75 307.843 133.728 306.569L113.722 281.62C111.25 286.764 107.388 291.105 102.577 294.147C97.7657 297.188 92.2003 298.807 86.5171 298.819C86.2719 298.819 86.0507 298.82 85.7757 298.821C85.6702 298.829 85.5643 298.83 85.4588 298.822L64.8002 298.897C64.1143 298.904 63.4327 299.006 62.7742 299.199C61.7433 299.563 60.7942 300.128 59.9818 300.862C59.2734 301.524 58.7091 302.327 58.3243 303.219C57.9395 304.111 57.7426 305.073 57.7459 306.045L57.7826 316.365C57.8004 316.45 57.8107 316.537 57.8134 316.623C57.8154 316.734 57.8058 316.845 57.7847 316.954Z" fill="#EAEAEA" fill-opacity="0.2"/>
<path d="M82.5049 289.343C77.1762 289.371 72.0526 287.325 68.2505 283.651C64.4485 279.976 62.2763 274.971 62.2074 269.726L62.206 269.351C62.2143 265.349 63.4499 261.443 65.7511 258.144C68.0523 254.845 71.3119 252.307 75.1029 250.862C78.8938 249.418 83.0394 249.133 86.9968 250.047C90.9542 250.96 94.5389 253.029 97.2813 255.982C97.377 256.062 97.4249 256.129 97.4113 256.129L97.5276 256.27L97.5891 256.343L97.6643 256.423L98.8204 257.861C98.9148 257.94 98.9976 258.033 99.0666 258.134C101.16 261.116 102.386 264.603 102.614 268.22C102.841 271.838 102.06 275.448 100.355 278.661C98.6505 281.873 96.0869 284.567 92.9411 286.451C89.7953 288.335 86.1867 289.337 82.5049 289.35L82.5049 289.343ZM93.2963 259.61C91.2898 257.461 88.6724 255.955 85.7846 255.289C82.8969 254.624 79.8723 254.829 77.1042 255.878C74.3362 256.927 71.9527 258.772 70.2637 261.173C68.5748 263.573 67.6585 266.418 67.6341 269.338L67.6352 269.653C67.7477 273.462 69.372 277.076 72.1599 279.72C74.9477 282.363 78.6772 283.826 82.5484 283.795C86.4197 283.763 90.1246 282.239 92.8685 279.551C95.6125 276.862 97.1771 273.222 97.2269 269.411C97.2171 266.502 96.3144 263.663 94.6372 261.268L93.4058 259.757L93.31 259.617L93.2963 259.61Z" fill="#EAEAEA" fill-opacity="0.2"/>
<path d="M11.8813 12.8507L75.2622 12.6206C78.4091 12.6172 81.4288 13.8688 83.6586 16.1008C85.8884 18.3329 87.1461 21.363 87.1557 24.5262L87.2144 41.0366C87.2181 42.6651 86.8888 44.2769 86.2472 45.7722C85.6055 47.2675 84.6651 48.6143 83.4842 49.7292L83.4068 49.8016C82.1784 50.913 80.7481 51.7753 79.1943 52.3413L78.9973 52.4262C77.8387 52.8019 76.6291 52.9949 75.4117 52.9981L53.6948 53.077C48.3034 53.095 43.0558 54.8264 38.7025 58.0237C34.3492 61.2209 31.1133 65.7201 29.4577 70.8777C29.328 71.298 29.086 71.6744 28.758 71.966C28.4301 72.2576 28.0289 72.4531 27.598 72.5313C27.5344 72.5374 27.4703 72.5377 27.4067 72.532L27.1735 72.5328C26.8146 72.5329 26.46 72.4545 26.1342 72.3031C25.8084 72.1518 25.5193 71.931 25.2869 71.6561L2.74028 43.549C1.02846 41.4261 0.0906719 38.7784 0.0826781 36.0457L0.0428686 24.8424C0.0365082 23.2735 0.337718 21.7188 0.929288 20.267C1.52086 18.8152 2.3912 17.4948 3.49058 16.3812C4.58996 15.2676 5.89684 14.3826 7.33655 13.7768C8.77627 13.1711 10.3206 12.8563 11.8813 12.8507ZM82.434 30.1451L82.4141 24.5434C82.409 22.6528 81.6581 20.8414 80.3262 19.5066C78.9943 18.1717 77.1901 17.4223 75.3092 17.4228L11.8984 17.6529C10.016 17.6646 8.21497 18.4261 6.89033 19.7706C5.56569 21.1151 4.82559 22.9328 4.83232 24.825L4.87217 36.0403C4.89947 37.6763 5.46901 39.2564 6.49061 40.5302L26.4967 65.479C28.9687 60.335 32.8311 55.994 37.6421 52.9526C42.4531 49.9112 48.0184 48.2921 53.7017 48.2806C53.9468 48.2797 54.168 48.2789 54.4431 48.2779C54.5486 48.27 54.6545 48.2696 54.76 48.2768L75.4186 48.2018C76.1044 48.1946 76.7861 48.0931 77.4445 47.8999C78.4755 47.5365 79.4246 46.9712 80.237 46.2369C80.9453 45.5749 81.5096 44.7725 81.8944 43.8805C82.2792 42.9885 82.4761 42.0261 82.4728 41.0539L82.4361 30.7341C82.4184 30.649 82.408 30.5626 82.4053 30.4757C82.4034 30.3648 82.413 30.254 82.434 30.1451Z" fill="#EAEAEA" fill-opacity="0.2"/>
<path d="M11.8813 12.8507L75.2622 12.6206C78.4091 12.6172 81.4288 13.8688 83.6586 16.1008C85.8884 18.3329 87.1461 21.363 87.1557 24.5262L87.2144 41.0366C87.2181 42.6651 86.8888 44.2769 86.2472 45.7722C85.6055 47.2675 84.6651 48.6143 83.4842 49.7292L83.4068 49.8016C82.1784 50.913 80.7481 51.7753 79.1943 52.3413L78.9973 52.4262C77.8387 52.8019 76.6291 52.9949 75.4117 52.9981L53.6948 53.077C48.3034 53.095 43.0558 54.8264 38.7025 58.0237C34.3492 61.2209 31.1133 65.7201 29.4577 70.8777C29.328 71.298 29.086 71.6744 28.758 71.966C28.4301 72.2576 28.0289 72.4531 27.598 72.5313C27.5344 72.5374 27.4703 72.5377 27.4067 72.532L27.1735 72.5328C26.8146 72.5329 26.46 72.4545 26.1342 72.3031C25.8084 72.1518 25.5193 71.931 25.2869 71.6561L2.74028 43.549C1.02846 41.4261 0.0906719 38.7784 0.0826781 36.0457L0.0428686 24.8424C0.0365082 23.2735 0.337718 21.7188 0.929288 20.267C1.52086 18.8152 2.3912 17.4948 3.49058 16.3812C4.58996 15.2676 5.89684 14.3826 7.33655 13.7768C8.77627 13.1711 10.3206 12.8563 11.8813 12.8507ZM82.434 30.1451L82.4141 24.5434C82.409 22.6528 81.6581 20.8414 80.3262 19.5066C78.9943 18.1717 77.1901 17.4223 75.3092 17.4228L11.8984 17.6529C10.016 17.6646 8.21497 18.4261 6.89033 19.7706C5.56569 21.1151 4.82559 22.9328 4.83232 24.825L4.87217 36.0403C4.89947 37.6763 5.46901 39.2564 6.49061 40.5302L26.4967 65.479C28.9687 60.335 32.8311 55.994 37.6421 52.9526C42.4531 49.9112 48.0184 48.2921 53.7017 48.2806C53.9468 48.2797 54.168 48.2789 54.4431 48.2779C54.5486 48.27 54.6545 48.2696 54.76 48.2768L75.4186 48.2018C76.1044 48.1946 76.7861 48.0931 77.4445 47.8999C78.4755 47.5365 79.4246 46.9712 80.237 46.2369C80.9453 45.5749 81.5096 44.7725 81.8944 43.8805C82.2792 42.9885 82.4761 42.0261 82.4728 41.0539L82.4361 30.7341C82.4184 30.649 82.408 30.5626 82.4053 30.4757C82.4034 30.3648 82.413 30.254 82.434 30.1451Z" fill="#EAEAEA" fill-opacity="0.2"/>
<path d="M57.7139 57.7598C63.0425 57.7314 68.1662 59.7774 71.9682 63.452C75.7702 67.1265 77.9424 72.1318 78.0114 77.3768L78.0127 77.7522C78.0045 81.7537 76.7689 85.6596 74.4676 88.9585C72.1664 92.2574 68.9069 94.7955 65.1159 96.2404C61.3249 97.6852 57.1793 97.9695 53.2219 97.056C49.2645 96.1424 45.6799 94.0737 42.9374 91.1206C42.8418 91.0405 42.7939 90.9736 42.8075 90.9736L42.6912 90.8332L42.6296 90.7597L42.5544 90.6795L41.3983 89.2423C41.3039 89.1624 41.2211 89.0703 41.1522 88.9683C39.0587 85.9872 37.8323 82.4997 37.6052 78.8823C37.3781 75.2649 38.159 71.655 39.8637 68.4422C41.5683 65.2293 44.1318 62.5357 47.2777 60.6519C50.4235 58.7681 54.032 57.7658 57.7139 57.7531L57.7139 57.7598ZM46.9224 87.4925C48.929 89.6422 51.5463 91.1478 54.4341 91.8134C57.3219 92.479 60.3465 92.2738 63.1145 91.2246C65.8826 90.1753 68.2661 88.3306 69.955 85.9302C71.6439 83.5298 72.5602 80.6848 72.5846 77.7652L72.5835 77.4501C72.4711 73.6408 70.8467 70.0268 68.0589 67.3831C65.271 64.7395 61.5416 63.2766 57.6703 63.3082C53.7991 63.3397 50.0942 64.8633 47.3502 67.5522C44.6062 70.241 43.0416 73.881 42.9919 77.6916C43.0016 80.601 43.9043 83.4394 45.5816 85.8347L46.8129 87.3454L46.9087 87.4859L46.9224 87.4925Z" fill="#EAEAEA" fill-opacity="0.2"/>
<path d="M57.7139 57.7598C63.0425 57.7314 68.1662 59.7774 71.9682 63.452C75.7702 67.1265 77.9424 72.1318 78.0114 77.3768L78.0127 77.7522C78.0045 81.7537 76.7689 85.6596 74.4676 88.9585C72.1664 92.2574 68.9069 94.7955 65.1159 96.2404C61.3249 97.6852 57.1793 97.9695 53.2219 97.056C49.2645 96.1424 45.6799 94.0737 42.9374 91.1206C42.8418 91.0405 42.7939 90.9736 42.8075 90.9736L42.6912 90.8332L42.6296 90.7597L42.5544 90.6795L41.3983 89.2423C41.3039 89.1624 41.2211 89.0703 41.1522 88.9683C39.0587 85.9872 37.8323 82.4997 37.6052 78.8823C37.3781 75.2649 38.159 71.655 39.8637 68.4422C41.5683 65.2293 44.1318 62.5357 47.2777 60.6519C50.4235 58.7681 54.032 57.7658 57.7139 57.7531L57.7139 57.7598ZM46.9224 87.4925C48.929 89.6422 51.5463 91.1478 54.4341 91.8134C57.3219 92.479 60.3465 92.2738 63.1145 91.2246C65.8826 90.1753 68.2661 88.3306 69.955 85.9302C71.6439 83.5298 72.5602 80.6848 72.5846 77.7652L72.5835 77.4501C72.4711 73.6408 70.8467 70.0268 68.0589 67.3831C65.271 64.7395 61.5416 63.2766 57.6703 63.3082C53.7991 63.3397 50.0942 64.8633 47.3502 67.5522C44.6062 70.241 43.0416 73.881 42.9919 77.6916C43.0016 80.601 43.9043 83.4394 45.5816 85.8347L46.8129 87.3454L46.9087 87.4859L46.9224 87.4925Z" fill="#EAEAEA" fill-opacity="0.2"/>
</svg>
