<svg width="270" height="151" viewBox="0 0 270 151" fill="none" xmlns="http://www.w3.org/2000/svg">
<path d="M-8.70703 18.7048L-8.70703 82.4677C-8.69907 85.6335 -7.43625 88.6669 -5.19571 90.9021C-2.95517 93.1373 0.08006 94.3917 3.24389 94.3901H19.7576C21.3863 94.388 22.9973 94.051 24.4905 93.4002C25.9837 92.7493 27.3274 91.7984 28.4382 90.6065L28.5104 90.5283C29.6174 89.2885 30.4747 87.8465 31.0352 86.2814L31.1194 86.0829C31.491 84.916 31.6796 83.6985 31.6784 82.4737L31.6784 60.6259C31.6769 55.2021 33.3896 49.9167 36.5716 45.5258C39.7536 41.1349 44.2419 37.8635 49.3944 36.1795C49.8143 36.0474 50.19 35.8026 50.4804 35.4717C50.7709 35.1408 50.965 34.7364 51.0416 34.3027C51.0475 34.2386 51.0475 34.1742 51.0416 34.1102V33.8756C51.0404 33.5145 50.9607 33.158 50.8081 32.8309C50.6555 32.5037 50.4337 32.2136 50.1579 31.9807L21.9638 9.39907C19.8343 7.68455 17.1827 6.75059 14.4494 6.75231H3.24389C1.67475 6.75153 0.120847 7.0601 -1.32907 7.66042C-2.77899 8.26073 -4.0965 9.14103 -5.20632 10.251C-6.31615 11.361 -7.19655 12.6789 -7.79721 14.1294C-8.39787 15.58 -8.70703 17.1347 -8.70703 18.7048ZM8.84664 89.62H3.24389C1.35291 89.6216 -0.461516 88.8726 -1.80146 87.5375C-3.14139 86.2023 -3.89746 84.3899 -3.90382 82.4978L-3.90382 18.7048C-3.89905 16.8111 -3.14388 14.9965 -1.80394 13.6591C-0.464003 12.3217 1.35132 11.5706 3.24389 11.5706H14.4614C16.0978 11.5922 17.6802 12.1596 18.958 13.1827L43.984 33.2199C38.848 35.7252 34.5203 39.6264 31.4958 44.4771C28.4713 49.3279 26.8721 54.9325 26.8812 60.65C26.8812 60.8966 26.8812 61.1192 26.8812 61.3959C26.8737 61.502 26.8737 61.6085 26.8812 61.7147L26.8812 82.4978C26.8766 83.1878 26.7775 83.8739 26.5867 84.537C26.2269 85.5754 25.665 86.5322 24.9335 87.3522C24.2739 88.0671 23.4735 88.6377 22.5827 89.028C21.6919 89.4183 20.73 89.6198 19.7576 89.62H9.43577C9.35065 89.6024 9.26416 89.5923 9.17728 89.5899C9.06632 89.5883 8.9555 89.5984 8.84664 89.62Z" fill="#EAEAEA" fill-opacity="0.2"/>
<path d="M-8.70703 18.7048L-8.70703 82.4677C-8.69907 85.6335 -7.43625 88.6669 -5.19571 90.9021C-2.95517 93.1373 0.08006 94.3917 3.24389 94.3901H19.7576C21.3863 94.388 22.9973 94.051 24.4905 93.4002C25.9837 92.7493 27.3274 91.7984 28.4382 90.6065L28.5104 90.5283C29.6174 89.2885 30.4747 87.8465 31.0352 86.2814L31.1194 86.0829C31.491 84.916 31.6796 83.6985 31.6784 82.4737L31.6784 60.6259C31.6769 55.2021 33.3896 49.9167 36.5716 45.5258C39.7536 41.1349 44.2419 37.8635 49.3944 36.1795C49.8143 36.0474 50.19 35.8026 50.4804 35.4717C50.7709 35.1408 50.965 34.7364 51.0416 34.3027C51.0475 34.2386 51.0475 34.1742 51.0416 34.1102V33.8756C51.0404 33.5145 50.9607 33.158 50.8081 32.8309C50.6555 32.5037 50.4337 32.2136 50.1579 31.9807L21.9638 9.39907C19.8343 7.68455 17.1827 6.75059 14.4494 6.75231H3.24389C1.67475 6.75153 0.120847 7.0601 -1.32907 7.66042C-2.77899 8.26073 -4.0965 9.14103 -5.20632 10.251C-6.31615 11.361 -7.19655 12.6789 -7.79721 14.1294C-8.39787 15.58 -8.70703 17.1347 -8.70703 18.7048ZM8.84664 89.62H3.24389C1.35291 89.6216 -0.461516 88.8726 -1.80146 87.5375C-3.14139 86.2023 -3.89746 84.3899 -3.90382 82.4978L-3.90382 18.7048C-3.89905 16.8111 -3.14388 14.9965 -1.80394 13.6591C-0.464003 12.3217 1.35132 11.5706 3.24389 11.5706H14.4614C16.0978 11.5922 17.6802 12.1596 18.958 13.1827L43.984 33.2199C38.848 35.7252 34.5203 39.6264 31.4958 44.4771C28.4713 49.3279 26.8721 54.9325 26.8812 60.65C26.8812 60.8966 26.8812 61.1192 26.8812 61.3959C26.8737 61.502 26.8737 61.6085 26.8812 61.7147L26.8812 82.4978C26.8766 83.1878 26.7775 83.8739 26.5867 84.537C26.2269 85.5754 25.665 86.5322 24.9335 87.3522C24.2739 88.0671 23.4735 88.6377 22.5827 89.028C21.6919 89.4183 20.73 89.6198 19.7576 89.62H9.43577C9.35065 89.6024 9.26416 89.5923 9.17728 89.5899C9.06632 89.5883 8.9555 89.5984 8.84664 89.62Z" fill="#EAEAEA" fill-opacity="0.2"/>
<path d="M35.7841 64.8407C35.775 70.1764 37.84 75.2996 41.529 79.0936C45.2181 82.8876 50.2321 85.0448 55.4783 85.0952H55.8538C59.856 85.0727 63.7582 83.8216 67.0493 81.5056C70.3405 79.1895 72.8672 75.9166 74.2986 72.1155C75.7299 68.3144 75.9992 64.1623 75.0711 60.2029C74.1431 56.2435 72.0609 52.6615 69.0973 49.9259C69.0169 49.8304 68.9498 49.7827 68.9498 49.7963L68.809 49.6804L68.7352 49.619L68.6548 49.544L67.2131 48.3915C67.1329 48.2973 67.0404 48.2146 66.9381 48.146C63.9489 46.0604 60.4564 44.8447 56.8375 44.6302C53.2186 44.4157 49.6108 45.2105 46.4036 46.9288C43.1963 48.6471 40.5115 51.2236 38.6388 54.3803C36.7661 57.537 35.7767 61.1539 35.7773 64.8407H35.7841ZM65.4831 53.9291C67.6405 55.9307 69.1558 58.5461 69.832 61.4354C70.5082 64.3246 70.314 67.3539 69.2746 70.1293C68.2352 72.9048 66.3988 75.298 64.0041 76.9977C61.6093 78.6974 58.7672 79.625 55.8471 79.6599H55.532C51.7216 79.5608 48.101 77.9472 45.4467 75.1651C42.7924 72.3829 41.3157 68.6538 41.3333 64.7773C41.3508 60.9008 42.8612 57.1856 45.5406 54.4284C48.2199 51.6712 51.8549 50.0916 55.6661 50.0282C58.5761 50.0277 61.4183 50.9215 63.8201 52.5924L65.3355 53.82L65.4763 53.9154L65.4831 53.9291Z" fill="#EAEAEA" fill-opacity="0.2"/>
<path d="M75.6133 169.411L75.6133 105.648C75.6211 102.482 76.8558 99.4491 79.0466 97.2139C81.2373 94.9787 84.2051 93.7242 87.2986 93.7258H103.445C105.038 93.728 106.613 94.065 108.073 94.7158C109.533 95.3667 110.847 96.3176 111.933 97.5095L112.004 97.5877C113.086 98.8274 113.924 100.269 114.472 101.835L114.555 102.033C114.918 103.2 115.102 104.418 115.101 105.642V127.49C115.1 132.914 116.774 138.199 119.886 142.59C122.997 146.981 127.386 150.253 132.424 151.937C132.834 152.069 133.201 152.313 133.485 152.644C133.769 152.975 133.959 153.38 134.034 153.813C134.04 153.877 134.04 153.942 134.034 154.006V154.24C134.033 154.601 133.955 154.958 133.806 155.285C133.657 155.612 133.44 155.902 133.17 156.135L105.603 178.717C103.52 180.431 100.928 181.365 98.2551 181.364H87.2986C85.7644 181.364 84.245 181.056 82.8273 180.456C81.4096 179.855 80.1214 178.975 79.0362 177.865C77.951 176.755 77.0902 175.437 76.5029 173.987C75.9156 172.536 75.6133 170.981 75.6133 169.411ZM92.7769 98.496H87.2986C85.4497 98.4944 83.6756 99.2433 82.3654 100.578C81.0552 101.914 80.316 103.726 80.3098 105.618L80.3098 169.411C80.3144 171.305 81.0528 173.119 82.363 174.457C83.6731 175.794 85.4481 176.545 87.2986 176.545H98.2669C99.8669 176.524 101.414 175.956 102.664 174.933L127.133 154.896C122.112 152.391 117.88 148.49 114.923 143.639C111.965 138.788 110.402 133.183 110.411 127.466C110.411 127.219 110.411 126.997 110.411 126.72C110.403 126.614 110.403 126.507 110.411 126.401V105.618C110.406 104.928 110.309 104.242 110.123 103.579C109.771 102.541 109.221 101.584 108.506 100.764C107.861 100.049 107.079 99.4783 106.208 99.088C105.337 98.6977 104.396 98.4961 103.445 98.496H93.3529C93.2697 98.5136 93.1851 98.5237 93.1002 98.5261C92.9917 98.5277 92.8833 98.5176 92.7769 98.496Z" fill="#EAEAEA" fill-opacity="0.2"/>
<path d="M119.44 122.944C119.431 117.52 121.531 112.313 125.281 108.457C129.032 104.601 134.129 102.408 139.463 102.357H139.845C143.914 102.38 147.881 103.651 151.227 106.005C154.573 108.359 157.142 111.686 158.597 115.549C160.052 119.413 160.326 123.633 159.382 127.657C158.439 131.682 156.322 135.322 153.309 138.103C153.227 138.2 153.159 138.248 153.159 138.234L153.016 138.352L152.941 138.415L152.859 138.491L151.393 139.662C151.312 139.758 151.218 139.842 151.114 139.912C148.075 142.032 144.524 143.267 140.845 143.485C137.166 143.703 133.498 142.896 130.237 141.149C126.976 139.403 124.247 136.784 122.343 133.575C120.439 130.367 119.433 126.691 119.434 122.944H119.44ZM149.634 134.034C151.828 132 153.368 129.341 154.056 126.405C154.743 123.468 154.546 120.389 153.489 117.568C152.432 114.747 150.565 112.315 148.131 110.587C145.696 108.86 142.807 107.917 139.838 107.881H139.517C135.644 107.982 131.963 109.622 129.264 112.45C126.566 115.278 125.064 119.068 125.082 123.008C125.1 126.948 126.636 130.724 129.36 133.526C132.084 136.329 135.779 137.934 139.654 137.999C142.612 137.999 145.502 137.091 147.944 135.393L149.484 134.145L149.628 134.048L149.634 134.034Z" fill="#EAEAEA" fill-opacity="0.2"/>
<path d="M119.44 122.944C119.431 117.52 121.531 112.313 125.281 108.457C129.032 104.601 134.129 102.408 139.463 102.357H139.845C143.914 102.38 147.881 103.651 151.227 106.005C154.573 108.359 157.142 111.686 158.597 115.549C160.052 119.413 160.326 123.633 159.382 127.657C158.439 131.682 156.322 135.322 153.309 138.103C153.227 138.2 153.159 138.248 153.159 138.234L153.016 138.352L152.941 138.415L152.859 138.491L151.393 139.662C151.312 139.758 151.218 139.842 151.114 139.912C148.075 142.032 144.524 143.267 140.845 143.485C137.166 143.703 133.498 142.896 130.237 141.149C126.976 139.403 124.247 136.784 122.343 133.575C120.439 130.367 119.433 126.691 119.434 122.944H119.44ZM149.634 134.034C151.828 132 153.368 129.341 154.056 126.405C154.743 123.468 154.546 120.389 153.489 117.568C152.432 114.747 150.565 112.315 148.131 110.587C145.696 108.86 142.807 107.917 139.838 107.881H139.517C135.644 107.982 131.963 109.622 129.264 112.45C126.566 115.278 125.064 119.068 125.082 123.008C125.1 126.948 126.636 130.724 129.36 133.526C132.084 136.329 135.779 137.934 139.654 137.999C142.612 137.999 145.502 137.091 147.944 135.393L149.484 134.145L149.628 134.048L149.634 134.034Z" fill="#EAEAEA" fill-opacity="0.2"/>
<path d="M66.3203 105.677L66.3203 169.44C66.3124 172.606 65.0495 175.64 62.809 177.875C60.5684 180.11 57.5332 181.364 54.3694 181.363H37.8557C36.227 181.361 34.616 181.024 33.1228 180.373C31.6295 179.722 30.2859 178.771 29.175 177.579L29.1029 177.501C27.9958 176.261 27.1385 174.819 26.5781 173.254L26.4939 173.056C26.1223 171.889 25.9337 170.671 25.9348 169.446L25.9348 147.599C25.9364 142.175 24.2237 136.889 21.0416 132.498C17.8596 128.108 13.3714 124.836 8.21886 123.152C7.79893 123.02 7.42329 122.775 7.13285 122.444C6.8424 122.113 6.6483 121.709 6.5717 121.275C6.56576 121.211 6.56576 121.147 6.5717 121.083V120.848C6.57292 120.487 6.65258 120.131 6.80517 119.804C6.95776 119.476 7.17963 119.186 7.45539 118.953L35.6495 96.3717C37.779 94.6572 40.4306 93.7232 43.1639 93.725H54.3694C55.9385 93.7242 57.4924 94.0328 58.9424 94.6331C60.3923 95.2334 61.7098 96.1137 62.8196 97.2237C63.9294 98.3336 64.8098 99.6515 65.4105 101.102C66.0112 102.553 66.3203 104.107 66.3203 105.677ZM48.7666 176.593H54.3694C56.2604 176.594 58.0748 175.845 59.4147 174.51C60.7547 173.175 61.5107 171.363 61.5171 169.47L61.5171 105.677C61.5123 103.784 60.7572 101.969 59.4172 100.632C58.0773 99.2943 56.262 98.5433 54.3694 98.5433H43.1519C41.5155 98.5649 39.933 99.1322 38.6552 100.155L13.6292 120.193C18.7653 122.698 23.093 126.599 26.1175 131.45C29.142 136.301 30.7411 141.905 30.7321 147.623C30.7321 147.869 30.7321 148.092 30.7321 148.369C30.7396 148.475 30.7396 148.581 30.7321 148.687L30.7321 169.47C30.7367 170.16 30.8358 170.847 31.0266 171.51C31.3864 172.548 31.9483 173.505 32.6798 174.325C33.3394 175.04 34.1398 175.61 35.0306 176.001C35.9214 176.391 36.8833 176.592 37.8557 176.593H48.1775C48.2626 176.575 48.3491 176.565 48.436 176.563C48.547 176.561 48.6578 176.571 48.7666 176.593Z" fill="#EAEAEA" fill-opacity="0.2"/>
<path d="M66.3203 105.677L66.3203 169.44C66.3124 172.606 65.0495 175.64 62.809 177.875C60.5684 180.11 57.5332 181.364 54.3694 181.363H37.8557C36.227 181.361 34.616 181.024 33.1228 180.373C31.6295 179.722 30.2859 178.771 29.175 177.579L29.1029 177.501C27.9958 176.261 27.1385 174.819 26.5781 173.254L26.4939 173.056C26.1223 171.889 25.9337 170.671 25.9348 169.446L25.9348 147.599C25.9364 142.175 24.2237 136.889 21.0416 132.498C17.8596 128.108 13.3714 124.836 8.21886 123.152C7.79893 123.02 7.42329 122.775 7.13285 122.444C6.8424 122.113 6.6483 121.709 6.5717 121.275C6.56576 121.211 6.56576 121.147 6.5717 121.083V120.848C6.57292 120.487 6.65258 120.131 6.80517 119.804C6.95776 119.476 7.17963 119.186 7.45539 118.953L35.6495 96.3717C37.779 94.6572 40.4306 93.7232 43.1639 93.725H54.3694C55.9385 93.7242 57.4924 94.0328 58.9424 94.6331C60.3923 95.2334 61.7098 96.1137 62.8196 97.2237C63.9294 98.3336 64.8098 99.6515 65.4105 101.102C66.0112 102.553 66.3203 104.107 66.3203 105.677ZM48.7666 176.593H54.3694C56.2604 176.594 58.0748 175.845 59.4147 174.51C60.7547 173.175 61.5107 171.363 61.5171 169.47L61.5171 105.677C61.5123 103.784 60.7572 101.969 59.4172 100.632C58.0773 99.2943 56.262 98.5433 54.3694 98.5433H43.1519C41.5155 98.5649 39.933 99.1322 38.6552 100.155L13.6292 120.193C18.7653 122.698 23.093 126.599 26.1175 131.45C29.142 136.301 30.7411 141.905 30.7321 147.623C30.7321 147.869 30.7321 148.092 30.7321 148.369C30.7396 148.475 30.7396 148.581 30.7321 148.687L30.7321 169.47C30.7367 170.16 30.8358 170.847 31.0266 171.51C31.3864 172.548 31.9483 173.505 32.6798 174.325C33.3394 175.04 34.1398 175.61 35.0306 176.001C35.9214 176.391 36.8833 176.592 37.8557 176.593H48.1775C48.2626 176.575 48.3491 176.565 48.436 176.563C48.547 176.561 48.6578 176.571 48.7666 176.593Z" fill="#EAEAEA" fill-opacity="0.2"/>
<path d="M21.1653 151.484C21.1742 156.907 19.1436 162.115 15.5161 165.971C11.8885 169.827 6.95806 172.02 1.79925 172.071H1.42999C-2.50545 172.048 -6.3426 170.776 -9.57891 168.422C-12.8152 166.068 -15.2998 162.742 -16.7073 158.878C-18.1148 155.015 -18.3796 150.795 -17.467 146.77C-16.5544 142.746 -14.507 139.105 -11.5928 136.325C-11.5137 136.228 -11.4477 136.179 -11.4477 136.193L-11.3093 136.075L-11.2367 136.013L-11.1576 135.937L-9.73993 134.765C-9.66108 134.67 -9.57012 134.586 -9.46958 134.516C-6.53016 132.396 -3.09582 131.16 0.462753 130.942C4.02133 130.724 7.56897 131.532 10.7227 133.279C13.8765 135.025 16.5166 137.644 18.3581 140.852C20.1996 144.061 21.1725 147.737 21.1719 151.484H21.1653ZM-8.03873 140.394C-10.1602 142.428 -11.6502 145.086 -12.3152 148.023C-12.9801 150.96 -12.7891 154.039 -11.7671 156.86C-10.745 159.681 -8.93918 162.113 -6.58438 163.841C-4.22959 165.568 -1.43479 166.511 1.43657 166.546H1.74648C5.49339 166.446 9.0536 164.806 11.6637 161.978C14.2737 159.15 15.7258 155.36 15.7086 151.42C15.6913 147.48 14.2061 143.704 11.5714 140.901C8.93665 138.099 5.36225 136.493 1.61462 136.429C-1.24686 136.428 -4.04171 137.337 -6.40346 139.035L-7.89367 140.283L-8.03214 140.38L-8.03873 140.394Z" fill="#EAEAEA" fill-opacity="0.2"/>
<path d="M21.1653 151.484C21.1742 156.907 19.1436 162.115 15.5161 165.971C11.8885 169.827 6.95806 172.02 1.79925 172.071H1.42999C-2.50545 172.048 -6.3426 170.776 -9.57891 168.422C-12.8152 166.068 -15.2998 162.742 -16.7073 158.878C-18.1148 155.015 -18.3796 150.795 -17.467 146.77C-16.5544 142.746 -14.507 139.105 -11.5928 136.325C-11.5137 136.228 -11.4477 136.179 -11.4477 136.193L-11.3093 136.075L-11.2367 136.013L-11.1576 135.937L-9.73993 134.765C-9.66108 134.67 -9.57012 134.586 -9.46958 134.516C-6.53016 132.396 -3.09582 131.16 0.462753 130.942C4.02133 130.724 7.56897 131.532 10.7227 133.279C13.8765 135.025 16.5166 137.644 18.3581 140.852C20.1996 144.061 21.1725 147.737 21.1719 151.484H21.1653ZM-8.03873 140.394C-10.1602 142.428 -11.6502 145.086 -12.3152 148.023C-12.9801 150.96 -12.7891 154.039 -11.7671 156.86C-10.745 159.681 -8.93918 162.113 -6.58438 163.841C-4.22959 165.568 -1.43479 166.511 1.43657 166.546H1.74648C5.49339 166.446 9.0536 164.806 11.6637 161.978C14.2737 159.15 15.7258 155.36 15.7086 151.42C15.6913 147.48 14.2061 143.704 11.5714 140.901C8.93665 138.099 5.36225 136.493 1.61462 136.429C-1.24686 136.428 -4.04171 137.337 -6.40346 139.035L-7.89367 140.283L-8.03214 140.38L-8.03873 140.394Z" fill="#EAEAEA" fill-opacity="0.2"/>
<path d="M97.5884 84.8002L160.969 85.0302C164.116 85.0337 167.136 83.7821 169.366 81.55C171.595 79.318 172.853 76.2879 172.863 73.1247L172.921 56.6142C172.925 54.9858 172.596 53.374 171.954 51.8787C171.313 50.3834 170.372 49.0365 169.191 47.9216L169.114 47.8492C167.885 46.7379 166.455 45.8756 164.901 45.3096L164.704 45.2247C163.546 44.8489 162.336 44.656 161.119 44.6527L139.402 44.5739C134.01 44.5559 128.763 42.8244 124.41 39.6272C120.056 36.43 116.82 31.9308 115.165 26.7732C115.035 26.3529 114.793 25.9765 114.465 25.6849C114.137 25.3933 113.736 25.1978 113.305 25.1196C113.241 25.1134 113.177 25.1132 113.114 25.1189L112.881 25.1181C112.522 25.118 112.167 25.1964 111.841 25.3477C111.515 25.4991 111.226 25.7199 110.994 25.9948L88.4473 54.1018C86.7355 56.2248 85.7977 58.8725 85.7897 61.6052L85.7499 72.8085C85.7435 74.3773 86.0447 75.932 86.6363 77.3838C87.2279 78.8356 88.0982 80.1561 89.1976 81.2697C90.297 82.3833 91.6039 83.2683 93.0436 83.874C94.4833 84.4798 96.0276 84.7945 97.5884 84.8002ZM168.141 67.5058L168.121 73.1075C168.116 74.9981 167.365 76.8094 166.033 78.1443C164.701 79.4792 162.897 80.2285 161.016 80.2281L97.6054 79.9979C95.723 79.9863 93.922 79.2248 92.5974 77.8803C91.2727 76.5358 90.5326 74.7181 90.5394 72.8259L90.5792 61.6106C90.6065 59.9746 91.176 58.3945 92.1976 57.1207L112.204 32.1719C114.676 37.3159 118.538 41.6569 123.349 44.6983C128.16 47.7397 133.725 49.3587 139.409 49.3703C139.654 49.3712 139.875 49.372 140.15 49.373C140.256 49.3809 140.361 49.3813 140.467 49.3741L161.126 49.4491C161.811 49.4562 162.493 49.5578 163.152 49.7509C164.183 50.1144 165.132 50.6796 165.944 51.4139C166.652 52.076 167.217 52.8783 167.601 53.7704C167.986 54.6624 168.183 55.6248 168.18 56.597L168.143 66.9168C168.125 67.0018 168.115 67.0883 168.112 67.1751C168.11 67.2861 168.12 67.3969 168.141 67.5058Z" fill="#EAEAEA" fill-opacity="0.2"/>
<path d="M97.5884 84.8002L160.969 85.0302C164.116 85.0337 167.136 83.7821 169.366 81.55C171.595 79.318 172.853 76.2879 172.863 73.1247L172.921 56.6142C172.925 54.9858 172.596 53.374 171.954 51.8787C171.313 50.3834 170.372 49.0365 169.191 47.9216L169.114 47.8492C167.885 46.7379 166.455 45.8756 164.901 45.3096L164.704 45.2247C163.546 44.8489 162.336 44.656 161.119 44.6527L139.402 44.5739C134.01 44.5559 128.763 42.8244 124.41 39.6272C120.056 36.43 116.82 31.9308 115.165 26.7732C115.035 26.3529 114.793 25.9765 114.465 25.6849C114.137 25.3933 113.736 25.1978 113.305 25.1196C113.241 25.1134 113.177 25.1132 113.114 25.1189L112.881 25.1181C112.522 25.118 112.167 25.1964 111.841 25.3477C111.515 25.4991 111.226 25.7199 110.994 25.9948L88.4473 54.1018C86.7355 56.2248 85.7977 58.8725 85.7897 61.6052L85.7499 72.8085C85.7435 74.3773 86.0447 75.932 86.6363 77.3838C87.2279 78.8356 88.0982 80.1561 89.1976 81.2697C90.297 82.3833 91.6039 83.2683 93.0436 83.874C94.4833 84.4798 96.0276 84.7945 97.5884 84.8002ZM168.141 67.5058L168.121 73.1075C168.116 74.9981 167.365 76.8094 166.033 78.1443C164.701 79.4792 162.897 80.2285 161.016 80.2281L97.6054 79.9979C95.723 79.9863 93.922 79.2248 92.5974 77.8803C91.2727 76.5358 90.5326 74.7181 90.5394 72.8259L90.5792 61.6106C90.6065 59.9746 91.176 58.3945 92.1976 57.1207L112.204 32.1719C114.676 37.3159 118.538 41.6569 123.349 44.6983C128.16 47.7397 133.725 49.3587 139.409 49.3703C139.654 49.3712 139.875 49.372 140.15 49.373C140.256 49.3809 140.361 49.3813 140.467 49.3741L161.126 49.4491C161.811 49.4562 162.493 49.5578 163.152 49.7509C164.183 50.1144 165.132 50.6796 165.944 51.4139C166.652 52.076 167.217 52.8783 167.601 53.7704C167.986 54.6624 168.183 55.6248 168.18 56.597L168.143 66.9168C168.125 67.0018 168.115 67.0883 168.112 67.1751C168.11 67.2861 168.12 67.3969 168.141 67.5058Z" fill="#EAEAEA" fill-opacity="0.2"/>
<path d="M143.421 39.894C148.75 39.9224 153.873 37.8764 157.675 34.2018C161.477 30.5273 163.649 25.5221 163.718 20.277L163.72 19.9016C163.712 15.9001 162.476 11.9942 160.175 8.69528C157.873 5.39637 154.614 2.8583 150.823 1.41344C147.032 -0.0314224 142.886 -0.3157 138.929 0.597841C134.972 1.51138 131.387 3.58015 128.644 6.53321C128.549 6.61331 128.501 6.68018 128.515 6.68023L128.398 6.82059L128.337 6.89413L128.261 6.9743L127.105 8.41154C127.011 8.49136 126.928 8.58355 126.859 8.68552C124.766 11.6666 123.539 15.1541 123.312 18.7715C123.085 22.3889 123.866 25.9988 125.571 29.2116C127.275 32.4245 129.839 35.1181 132.985 37.0019C136.131 38.8857 139.739 39.888 143.421 39.9007L143.421 39.894ZM132.629 10.1613C134.636 8.01157 137.253 6.50603 140.141 5.84043C143.029 5.17484 146.053 5.38 148.822 6.42923C151.59 7.47847 153.973 9.32322 155.662 11.7236C157.351 14.124 158.267 16.969 158.292 19.8886L158.291 20.2037C158.178 24.013 156.554 27.627 153.766 30.2707C150.978 32.9144 147.249 34.3772 143.377 34.3457C139.506 34.3141 135.801 32.7905 133.057 30.1017C130.313 27.4128 128.749 23.7728 128.699 19.9622C128.709 17.0528 129.611 14.2144 131.289 11.8191L132.52 10.3084L132.616 10.168L132.629 10.1613Z" fill="#EAEAEA" fill-opacity="0.2"/>
<path d="M143.421 39.894C148.75 39.9224 153.873 37.8764 157.675 34.2018C161.477 30.5273 163.649 25.5221 163.718 20.277L163.72 19.9016C163.712 15.9001 162.476 11.9942 160.175 8.69528C157.873 5.39637 154.614 2.8583 150.823 1.41344C147.032 -0.0314224 142.886 -0.3157 138.929 0.597841C134.972 1.51138 131.387 3.58015 128.644 6.53321C128.549 6.61331 128.501 6.68018 128.515 6.68023L128.398 6.82059L128.337 6.89413L128.261 6.9743L127.105 8.41154C127.011 8.49136 126.928 8.58355 126.859 8.68552C124.766 11.6666 123.539 15.1541 123.312 18.7715C123.085 22.3889 123.866 25.9988 125.571 29.2116C127.275 32.4245 129.839 35.1181 132.985 37.0019C136.131 38.8857 139.739 39.888 143.421 39.9007L143.421 39.894ZM132.629 10.1613C134.636 8.01157 137.253 6.50603 140.141 5.84043C143.029 5.17484 146.053 5.38 148.822 6.42923C151.59 7.47847 153.973 9.32322 155.662 11.7236C157.351 14.124 158.267 16.969 158.292 19.8886L158.291 20.2037C158.178 24.013 156.554 27.627 153.766 30.2707C150.978 32.9144 147.249 34.3772 143.377 34.3457C139.506 34.3141 135.801 32.7905 133.057 30.1017C130.313 27.4128 128.749 23.7728 128.699 19.9622C128.709 17.0528 129.611 14.2144 131.289 11.8191L132.52 10.3084L132.616 10.168L132.629 10.1613Z" fill="#EAEAEA" fill-opacity="0.2"/>
<path d="M257.599 12.85L194.218 12.6199C191.071 12.6165 188.052 13.8681 185.822 16.1001C183.592 18.3322 182.334 21.3623 182.325 24.5255L182.266 41.0359C182.262 42.6643 182.592 44.2762 183.233 45.7715C183.875 47.2668 184.815 48.6136 185.996 49.7285L186.074 49.8009C187.302 50.9122 188.732 51.7746 190.286 52.3406L190.483 52.4254C191.642 52.8012 192.851 52.9942 194.069 52.9974L215.786 53.0762C221.177 53.0943 226.425 54.8257 230.778 58.0229C235.131 61.2202 238.367 65.7194 240.023 70.8769C240.152 71.2972 240.395 71.6737 240.722 71.9653C241.05 72.2569 241.452 72.4524 241.882 72.5305C241.946 72.5367 242.01 72.5369 242.074 72.5312L242.307 72.5321C242.666 72.5322 243.021 72.4538 243.346 72.3024C243.672 72.151 243.961 71.9303 244.194 71.6554L266.74 43.5483C268.452 41.4254 269.39 38.7777 269.398 36.0449L269.438 24.8416C269.444 23.2728 269.143 21.7181 268.551 20.2663C267.96 18.8145 267.089 17.4941 265.99 16.3805C264.891 15.2669 263.584 14.3819 262.144 13.7761C260.704 13.1703 259.16 12.8556 257.599 12.85ZM187.046 30.1443L187.066 24.5427C187.071 22.6521 187.822 20.8407 189.154 19.5058C190.486 18.171 192.29 17.4216 194.171 17.4221L257.582 17.6522C259.464 17.6638 261.266 18.4254 262.59 19.7699C263.915 21.1144 264.655 22.9321 264.648 24.8243L264.608 36.0396C264.581 37.6756 264.011 39.2556 262.99 40.5295L242.984 65.4783C240.512 60.3342 236.649 55.9933 231.838 52.9519C227.027 49.9105 221.462 48.2914 215.779 48.2799C215.534 48.279 215.312 48.2782 215.037 48.2772C214.932 48.2692 214.826 48.2689 214.72 48.276L194.062 48.2011C193.376 48.1939 192.694 48.0923 192.036 47.8992C191.005 47.5357 190.056 46.9705 189.243 46.2362C188.535 45.5741 187.971 44.7718 187.586 43.8798C187.201 42.9878 187.004 42.0254 187.008 41.0531L187.044 30.7333C187.062 30.6483 187.072 30.5619 187.075 30.475C187.077 30.3641 187.067 30.2532 187.046 30.1443Z" fill="#EAEAEA" fill-opacity="0.2"/>
<path d="M257.599 12.85L194.218 12.6199C191.071 12.6165 188.052 13.8681 185.822 16.1001C183.592 18.3322 182.334 21.3623 182.325 24.5255L182.266 41.0359C182.262 42.6643 182.592 44.2762 183.233 45.7715C183.875 47.2668 184.815 48.6136 185.996 49.7285L186.074 49.8009C187.302 50.9122 188.732 51.7746 190.286 52.3406L190.483 52.4254C191.642 52.8012 192.851 52.9942 194.069 52.9974L215.786 53.0762C221.177 53.0943 226.425 54.8257 230.778 58.0229C235.131 61.2202 238.367 65.7194 240.023 70.8769C240.152 71.2972 240.395 71.6737 240.722 71.9653C241.05 72.2569 241.452 72.4524 241.882 72.5305C241.946 72.5367 242.01 72.5369 242.074 72.5312L242.307 72.5321C242.666 72.5322 243.021 72.4538 243.346 72.3024C243.672 72.151 243.961 71.9303 244.194 71.6554L266.74 43.5483C268.452 41.4254 269.39 38.7777 269.398 36.0449L269.438 24.8416C269.444 23.2728 269.143 21.7181 268.551 20.2663C267.96 18.8145 267.089 17.4941 265.99 16.3805C264.891 15.2669 263.584 14.3819 262.144 13.7761C260.704 13.1703 259.16 12.8556 257.599 12.85ZM187.046 30.1443L187.066 24.5427C187.071 22.6521 187.822 20.8407 189.154 19.5058C190.486 18.171 192.29 17.4216 194.171 17.4221L257.582 17.6522C259.464 17.6638 261.266 18.4254 262.59 19.7699C263.915 21.1144 264.655 22.9321 264.648 24.8243L264.608 36.0396C264.581 37.6756 264.011 39.2556 262.99 40.5295L242.984 65.4783C240.512 60.3342 236.649 55.9933 231.838 52.9519C227.027 49.9105 221.462 48.2914 215.779 48.2799C215.534 48.279 215.312 48.2782 215.037 48.2772C214.932 48.2692 214.826 48.2689 214.72 48.276L194.062 48.2011C193.376 48.1939 192.694 48.0923 192.036 47.8992C191.005 47.5357 190.056 46.9705 189.243 46.2362C188.535 45.5741 187.971 44.7718 187.586 43.8798C187.201 42.9878 187.004 42.0254 187.008 41.0531L187.044 30.7333C187.062 30.6483 187.072 30.5619 187.075 30.475C187.077 30.3641 187.067 30.2532 187.046 30.1443Z" fill="#EAEAEA" fill-opacity="0.2"/>
<path d="M211.767 57.7593C206.438 57.7309 201.314 59.7769 197.512 63.4515C193.71 67.1261 191.538 72.1313 191.469 77.3763L191.468 77.7517C191.476 81.7532 192.712 85.6591 195.013 88.958C197.314 92.257 200.574 94.795 204.365 96.2399C208.156 97.6847 212.301 97.969 216.259 97.0555C220.216 96.1419 223.801 94.0732 226.543 91.1201C226.639 91.04 226.687 90.9731 226.673 90.9731L226.789 90.8327L226.851 90.7592L226.926 90.679L228.082 89.2418C228.177 89.162 228.259 89.0698 228.328 88.9678C230.422 85.9867 231.648 82.4992 231.875 78.8818C232.102 75.2644 231.321 71.6545 229.617 68.4417C227.912 65.2289 225.349 62.5352 222.203 60.6514C219.057 58.7676 215.448 57.7653 211.767 57.7526L211.767 57.7593ZM222.558 87.492C220.551 89.6418 217.934 91.1473 215.046 91.8129C212.159 92.4785 209.134 92.2733 206.366 91.2241C203.598 90.1749 201.214 88.3301 199.525 85.9297C197.837 83.5293 196.92 80.6843 196.896 77.7648L196.897 77.4496C197.009 73.6403 198.634 70.0263 201.422 67.3827C204.209 64.739 207.939 63.2761 211.81 63.3077C215.681 63.3393 219.386 64.8628 222.13 67.5517C224.874 70.2405 226.439 73.8805 226.489 77.6911C226.479 80.6005 225.576 83.439 223.899 85.8342L222.668 87.3449L222.572 87.4854L222.558 87.492Z" fill="#EAEAEA" fill-opacity="0.2"/>
<path d="M211.767 57.7593C206.438 57.7309 201.314 59.7769 197.512 63.4515C193.71 67.1261 191.538 72.1313 191.469 77.3763L191.468 77.7517C191.476 81.7532 192.712 85.6591 195.013 88.958C197.314 92.257 200.574 94.795 204.365 96.2399C208.156 97.6847 212.301 97.969 216.259 97.0555C220.216 96.1419 223.801 94.0732 226.543 91.1201C226.639 91.04 226.687 90.9731 226.673 90.9731L226.789 90.8327L226.851 90.7592L226.926 90.679L228.082 89.2418C228.177 89.162 228.259 89.0698 228.328 88.9678C230.422 85.9867 231.648 82.4992 231.875 78.8818C232.102 75.2644 231.321 71.6545 229.617 68.4417C227.912 65.2289 225.349 62.5352 222.203 60.6514C219.057 58.7676 215.448 57.7653 211.767 57.7526L211.767 57.7593ZM222.558 87.492C220.551 89.6418 217.934 91.1473 215.046 91.8129C212.159 92.4785 209.134 92.2733 206.366 91.2241C203.598 90.1749 201.214 88.3301 199.525 85.9297C197.837 83.5293 196.92 80.6843 196.896 77.7648L196.897 77.4496C197.009 73.6403 198.634 70.0263 201.422 67.3827C204.209 64.739 207.939 63.2761 211.81 63.3077C215.681 63.3393 219.386 64.8628 222.13 67.5517C224.874 70.2405 226.439 73.8805 226.489 77.6911C226.479 80.6005 225.576 83.439 223.899 85.8342L222.668 87.3449L222.572 87.4854L222.558 87.492Z" fill="#EAEAEA" fill-opacity="0.2"/>
</svg>
