<svg width="521" height="542" viewBox="0 0 521 542" fill="none" xmlns="http://www.w3.org/2000/svg">
<path d="M282.994 467H203.519C199.573 467.01 195.792 468.588 193.006 471.389C190.22 474.189 188.656 477.982 188.658 481.936V502.576C188.661 504.611 189.081 506.625 189.892 508.491C190.703 510.357 191.889 512.037 193.374 513.425L193.472 513.515C195.017 514.899 196.814 515.97 198.765 516.671L199.013 516.776C200.467 517.24 201.985 517.476 203.511 517.475H230.743C237.503 517.473 244.091 519.613 249.564 523.59C255.037 527.567 259.115 533.177 261.214 539.616C261.378 540.141 261.683 540.611 262.096 540.974C262.508 541.337 263.012 541.579 263.553 541.675C263.633 541.682 263.713 541.682 263.793 541.675H264.085C264.535 541.673 264.98 541.574 265.387 541.383C265.795 541.192 266.157 540.915 266.447 540.57L294.593 505.333C296.73 502.671 297.894 499.357 297.892 495.941V481.936C297.893 479.975 297.509 478.033 296.76 476.221C296.012 474.409 294.915 472.762 293.531 471.375C292.148 469.988 290.505 468.888 288.697 468.137C286.889 467.386 284.951 467 282.994 467ZM194.604 488.939V481.936C194.602 479.573 195.535 477.305 197.2 475.631C198.864 473.956 201.123 473.011 203.481 473.003H282.994C285.355 473.009 287.617 473.953 289.284 475.628C290.951 477.302 291.887 479.571 291.887 481.936V495.956C291.86 498.002 291.153 499.979 289.877 501.576L264.902 532.854C261.78 526.435 256.917 521.026 250.871 517.246C244.825 513.466 237.839 511.467 230.713 511.479C230.405 511.479 230.128 511.479 229.783 511.479C229.651 511.469 229.518 511.469 229.386 511.479H203.481C202.621 511.473 201.766 511.349 200.939 511.111C199.645 510.661 198.452 509.959 197.431 509.045C196.539 508.22 195.828 507.22 195.342 506.106C194.855 504.993 194.604 503.791 194.604 502.576V489.675C194.626 489.569 194.638 489.461 194.641 489.352C194.643 489.213 194.631 489.075 194.604 488.939Z" fill="#EAEAEA" fill-opacity="0.2"/>
<path d="M244.055 142.673H164.579C160.633 142.663 156.852 141.085 154.066 138.285C151.28 135.484 149.717 131.691 149.719 127.737V107.098C149.721 105.062 150.141 103.048 150.953 101.182C151.764 99.3159 152.949 97.6366 154.435 96.2483L154.532 96.1581C156.078 94.7745 157.875 93.703 159.826 93.0025L160.073 92.8973C161.528 92.4329 163.045 92.1972 164.572 92.1986H191.803C198.564 92.2005 205.152 90.0599 210.625 86.083C216.098 82.1061 220.175 76.4965 222.274 70.0568C222.439 69.532 222.744 69.0625 223.156 68.6995C223.569 68.3365 224.073 68.0939 224.613 67.9982C224.693 67.9908 224.773 67.9908 224.853 67.9982H225.146C225.596 67.9997 226.04 68.0993 226.448 68.29C226.856 68.4807 227.217 68.758 227.507 69.1026L255.654 104.34C257.791 107.002 258.955 110.316 258.953 113.732V127.737C258.954 129.698 258.569 131.64 257.821 133.452C257.073 135.264 255.976 136.911 254.592 138.298C253.209 139.685 251.566 140.785 249.758 141.536C247.95 142.287 246.012 142.673 244.055 142.673ZM155.664 120.734V127.737C155.662 130.1 156.596 132.368 158.26 134.042C159.924 135.717 162.183 136.662 164.542 136.67H244.055C246.415 136.664 248.677 135.72 250.344 134.045C252.011 132.371 252.947 130.102 252.947 127.737V113.717C252.92 111.672 252.213 109.694 250.938 108.097L225.963 76.8188C222.84 83.2379 217.978 88.6468 211.932 92.4269C205.886 96.207 198.9 98.2056 191.773 98.1942C191.466 98.1942 191.189 98.1942 190.844 98.1942C190.711 98.2037 190.579 98.2037 190.446 98.1942H164.542C163.682 98.2001 162.826 98.3239 162 98.5624C160.706 99.0121 159.513 99.7143 158.491 100.629C157.6 101.453 156.889 102.453 156.402 103.567C155.916 104.68 155.665 105.882 155.664 107.098V119.998C155.686 120.104 155.699 120.212 155.702 120.321C155.704 120.46 155.691 120.598 155.664 120.734Z" fill="#EAEAEA" fill-opacity="0.2"/>
<path d="M181.492 81.3597C174.883 81.3711 168.538 78.771 163.839 74.126C159.14 69.4809 156.469 63.1676 156.406 56.5618V56.0889C156.434 51.0497 157.984 46.1362 160.852 41.9922C163.72 37.8481 167.774 34.6666 172.482 32.8643C177.189 31.062 182.332 30.723 187.235 31.8916C192.139 33.0601 196.576 35.6819 199.964 39.4134C200.082 39.5148 200.141 39.5992 200.124 39.5992L200.268 39.7765L200.344 39.8694L200.437 39.9707L201.864 41.786C201.981 41.887 202.083 42.0034 202.168 42.1322C204.751 45.8961 206.257 50.2937 206.522 54.8504C206.788 59.4071 205.804 63.9498 203.676 67.9882C201.547 72.0266 198.356 75.4072 194.447 77.7652C190.537 80.1232 186.058 81.369 181.492 81.3682V81.3597ZM195.006 43.9644C192.527 41.2479 189.287 39.3399 185.709 38.4884C182.131 37.637 178.379 37.8815 174.942 39.1903C171.504 40.499 168.54 42.8113 166.435 45.8266C164.33 48.8419 163.181 52.4206 163.138 56.0974V56.4942C163.261 61.2921 165.259 65.8509 168.705 69.193C172.15 72.5352 176.769 74.3945 181.57 74.3725C186.371 74.3504 190.972 72.4485 194.387 69.0748C197.802 65.7011 199.758 61.1241 199.837 56.3254C199.838 52.6613 198.731 49.0825 196.661 46.0583L195.141 44.1501L195.023 43.9728L195.006 43.9644Z" fill="#EAEAEA" fill-opacity="0.2"/>
<path d="M42.0076 0L121.483 0C125.429 0.0099497 129.21 1.58824 131.996 4.38851C134.782 7.18878 136.346 10.9823 136.344 14.9365V35.5756C136.341 37.6112 135.921 39.6246 135.11 41.4909C134.299 43.3572 133.113 45.0365 131.628 46.4248L131.53 46.515C129.985 47.8986 128.188 48.9701 126.237 49.6706L125.989 49.7758C124.535 50.2402 123.017 50.4759 121.491 50.4745L94.2591 50.4745C87.4987 50.4726 80.9108 52.6132 75.4379 56.5901C69.965 60.567 65.8874 66.1766 63.7884 72.6163C63.6238 73.1411 63.3187 73.6106 62.9062 73.9736C62.4937 74.3366 61.9897 74.5792 61.4491 74.6749C61.3693 74.6823 61.289 74.6823 61.2092 74.6749H60.9168C60.4668 74.6734 60.0224 74.5738 59.6146 74.3831C59.2068 74.1924 58.8452 73.9151 58.555 73.5704L30.4086 38.333C28.2716 35.6714 27.1075 32.3574 27.1096 28.9413V14.9365C27.1086 12.9753 27.4932 11.0332 28.2415 9.22111C28.9897 7.40898 30.087 5.76233 31.4705 4.37525C32.854 2.98817 34.4966 1.88783 36.3046 1.13711C38.1126 0.386389 40.0505 -2.4836e-07 42.0076 0ZM130.398 21.9389V14.9365C130.4 12.5731 129.467 10.3054 127.802 8.63071C126.138 6.95603 123.879 6.01109 121.521 6.00314L42.0076 6.00314C39.6471 6.00911 37.3854 6.95293 35.7184 8.62761C34.0514 10.3023 33.1153 12.5711 33.1153 14.9365V28.9563C33.1422 31.0016 33.8493 32.9793 35.1247 34.5763L60.0995 65.8543C63.2222 59.4352 68.0847 54.0263 74.1309 50.2462C80.177 46.4661 87.1627 44.4675 94.2891 44.4789C94.5965 44.4789 94.8739 44.4789 95.2188 44.4789C95.3511 44.4694 95.4839 44.4694 95.6162 44.4789L121.521 44.4789C122.381 44.473 123.236 44.3492 124.062 44.1107C125.357 43.661 126.549 42.9588 127.571 42.0446C128.463 41.2201 129.174 40.2198 129.66 39.1064C130.147 37.9931 130.398 36.791 130.398 35.5756V22.6752C130.376 22.5688 130.364 22.4607 130.361 22.3521C130.359 22.2135 130.371 22.075 130.398 21.9389Z" fill="#EAEAEA" fill-opacity="0.2"/>
<path d="M104.571 61.3134C111.179 61.3019 117.524 63.9021 122.223 68.5471C126.922 73.1922 129.594 79.5055 129.656 86.1113V86.5842C129.628 91.6234 128.079 96.5369 125.21 100.681C122.342 104.825 118.289 108.006 113.581 109.809C108.873 111.611 103.731 111.95 98.827 110.782C93.9233 109.613 89.487 106.991 86.0989 103.26C85.9807 103.158 85.9216 103.074 85.9385 103.074L85.7949 102.897L85.7189 102.804L85.6259 102.702L84.1985 100.887C84.0818 100.786 83.9795 100.67 83.8945 100.541C81.3115 96.777 79.8059 92.3794 79.5402 87.8227C79.2745 83.266 80.2589 78.7233 82.387 74.6849C84.5151 70.6465 87.7062 67.2659 91.6157 64.9079C95.5253 62.5499 100.005 61.3041 104.571 61.3049V61.3134ZM91.0569 98.7087C93.5359 101.425 96.7751 103.333 100.353 104.185C103.932 105.036 107.684 104.792 111.121 103.483C114.558 102.174 117.522 99.8617 119.627 96.8465C121.733 93.8312 122.881 90.2525 122.925 86.5757V86.1789C122.802 81.381 120.803 76.8222 117.358 73.4801C113.912 70.1379 109.293 68.2786 104.492 68.3006C99.6914 68.3227 95.0901 70.2245 91.6753 73.5983C88.2605 76.972 86.3041 81.549 86.2256 86.3477C86.225 90.0118 87.3319 93.5906 89.4014 96.6148L90.9218 98.523L91.04 98.7003L91.0569 98.7087Z" fill="#4EBA66" fill-opacity="0.2"/>
<path d="M52.3381 142.673H-27.1376C-31.0836 142.663 -34.8644 141.085 -37.6504 138.285C-40.4365 135.484 -42 131.691 -41.998 127.737L-41.998 107.098C-41.9954 105.062 -41.5754 103.048 -40.7641 101.182C-39.9529 99.3159 -38.7677 97.6366 -37.282 96.2483L-37.1845 96.1581C-35.6393 94.7745 -33.8419 93.703 -31.8911 93.0025L-31.6437 92.8973C-30.1892 92.4329 -28.6716 92.1972 -27.1451 92.1986H0.0866051C6.84702 92.2005 13.4349 90.0599 18.9078 86.083C24.3807 82.1061 28.4583 76.4965 30.5573 70.0568C30.7219 69.532 31.027 69.0625 31.4395 68.6995C31.852 68.3365 32.356 68.0939 32.8966 67.9982C32.9764 67.9908 33.0567 67.9908 33.1365 67.9982H33.4289C33.879 67.9997 34.3233 68.0993 34.7311 68.29C35.1389 68.4807 35.5005 68.758 35.7907 69.1026L63.9371 104.34C66.0741 107.002 67.2382 110.316 67.2361 113.732V127.737C67.2371 129.698 66.8525 131.64 66.1042 133.452C65.356 135.264 64.2587 136.911 62.8752 138.298C61.4917 139.685 59.8491 140.785 58.0411 141.536C56.2331 142.287 54.2952 142.673 52.3381 142.673ZM-36.0524 120.734V127.737C-36.0544 130.1 -35.1209 132.368 -33.4567 134.042C-31.7926 135.717 -29.5335 136.662 -27.1751 136.67H52.3381C54.6986 136.664 56.9603 135.72 58.6273 134.045C60.2943 132.371 61.2304 130.102 61.2304 127.737V113.717C61.2035 111.672 60.4964 109.694 59.221 108.097L34.2462 76.8188C31.1235 83.2379 26.261 88.6468 20.2148 92.4269C14.1687 96.207 7.18299 98.2056 0.0566101 98.1942C-0.250797 98.1942 -0.528206 98.1942 -0.8731 98.1942C-1.00539 98.2037 -1.13819 98.2037 -1.27048 98.1942H-27.1751C-28.0351 98.2001 -28.8903 98.3239 -29.7168 98.5624C-31.0112 99.0121 -32.2038 99.7143 -33.2257 100.629C-34.1169 101.453 -34.8281 102.453 -35.3145 103.567C-35.801 104.68 -36.0522 105.882 -36.0524 107.098L-36.0524 119.998C-36.0305 120.104 -36.0179 120.212 -36.0149 120.321C-36.0129 120.46 -36.0255 120.598 -36.0524 120.734Z" fill="#EAEAEA" fill-opacity="0.2"/>
<path d="M-10.2252 81.3597C-16.8336 81.3711 -23.1786 78.771 -27.8775 74.126C-32.5764 69.4809 -35.2482 63.1676 -35.3105 56.5618V56.0889C-35.2827 51.0497 -33.7331 46.1362 -30.8647 41.9922C-27.9964 37.8481 -23.9429 34.6666 -19.2352 32.8643C-14.5275 31.062 -9.38505 30.723 -4.48134 31.8916C0.422367 33.0601 4.85873 35.6819 8.24675 39.4134C8.365 39.5148 8.42413 39.5992 8.40723 39.5992L8.55083 39.7765L8.62685 39.8694L8.71977 39.9707L10.1472 41.786C10.2639 41.887 10.3662 42.0034 10.4512 42.1322C13.0343 45.8961 14.5398 50.2937 14.8055 54.8504C15.0712 59.4071 14.0868 63.9498 11.9587 67.9882C9.8306 72.0266 6.63951 75.4072 2.72996 77.7652C-1.1796 80.1232 -5.65915 81.369 -10.2252 81.3682V81.3597ZM3.28881 43.9644C0.809834 41.2479 -2.42942 39.3399 -6.00774 38.4884C-9.58606 37.637 -13.3379 37.8815 -16.7753 39.1903C-20.2127 40.499 -23.1767 42.8113 -25.2818 45.8266C-27.3869 48.8419 -28.5357 52.4206 -28.5789 56.0974V56.4942C-28.4562 61.2921 -26.4577 65.8509 -23.012 69.193C-19.5663 72.5352 -14.9478 74.3945 -10.1467 74.3725C-5.34565 74.3504 -0.744385 72.4485 2.67039 69.0748C6.08517 65.7011 8.04157 61.1241 8.12006 56.3254C8.12075 52.6613 7.01379 49.0825 4.94429 46.0583L3.42395 44.1501L3.30572 43.9728L3.28881 43.9644Z" fill="#EAEAEA" fill-opacity="0.2"/>
<path d="M425.441 156.049H504.917C508.863 156.059 512.644 157.637 515.43 160.437C518.216 163.238 519.779 167.031 519.777 170.985V191.624C519.775 193.66 519.355 195.673 518.543 197.54C517.732 199.406 516.547 201.085 515.061 202.474L514.964 202.564C513.419 203.947 511.621 205.019 509.67 205.719L509.423 205.825C507.969 206.289 506.451 206.525 504.924 206.523H477.693C470.932 206.521 464.344 208.662 458.871 212.639C453.399 216.616 449.321 222.225 447.222 228.665C447.057 229.19 446.752 229.659 446.34 230.022C445.927 230.385 445.423 230.628 444.883 230.724C444.803 230.731 444.723 230.731 444.643 230.724H444.35C443.9 230.722 443.456 230.623 443.048 230.432C442.64 230.241 442.279 229.964 441.989 229.619L413.842 194.382C411.705 191.72 410.541 188.406 410.543 184.99V170.985C410.542 169.024 410.927 167.082 411.675 165.27C412.423 163.458 413.521 161.811 414.904 160.424C416.288 159.037 417.93 157.937 419.738 157.186C421.546 156.435 423.484 156.049 425.441 156.049ZM513.832 177.988V170.985C513.834 168.622 512.9 166.354 511.236 164.68C509.572 163.005 507.313 162.06 504.954 162.052H425.441C423.081 162.058 420.819 163.002 419.152 164.676C417.485 166.351 416.549 168.62 416.549 170.985V185.005C416.576 187.05 417.283 189.028 418.558 190.625L443.533 221.903C446.656 215.484 451.518 210.075 457.564 206.295C463.611 202.515 470.596 200.516 477.723 200.528C478.03 200.528 478.308 200.528 478.652 200.528C478.785 200.518 478.917 200.518 479.05 200.528H504.954C505.814 200.522 506.67 200.398 507.496 200.16C508.79 199.71 509.983 199.008 511.005 198.093C511.896 197.269 512.607 196.269 513.094 195.155C513.58 194.042 513.832 192.84 513.832 191.624V178.724C513.81 178.618 513.797 178.51 513.794 178.401C513.792 178.262 513.805 178.124 513.832 177.988Z" fill="#EAEAEA" fill-opacity="0.2"/>
<path d="M488.004 217.362C494.613 217.351 500.958 219.951 505.657 224.596C510.356 229.241 513.027 235.554 513.09 242.16V242.633C513.062 247.672 511.512 252.585 508.644 256.729C505.776 260.874 501.722 264.055 497.014 265.857C492.307 267.66 487.164 267.999 482.261 266.83C477.357 265.662 472.921 263.04 469.533 259.308C469.414 259.207 469.355 259.122 469.372 259.122L469.228 258.945L469.152 258.852L469.06 258.751L467.632 256.936C467.515 256.835 467.413 256.718 467.328 256.59C464.745 252.826 463.239 248.428 462.974 243.871C462.708 239.315 463.692 234.772 465.821 230.733C467.949 226.695 471.14 223.314 475.049 220.956C478.959 218.598 483.438 217.353 488.004 217.354V217.362ZM474.49 254.757C476.969 257.474 480.209 259.382 483.787 260.233C487.365 261.085 491.117 260.84 494.555 259.531C497.992 258.223 500.956 255.91 503.061 252.895C505.166 249.88 506.315 246.301 506.358 242.624V242.227C506.235 237.43 504.237 232.871 500.791 229.529C497.346 226.187 492.727 224.327 487.926 224.349C483.125 224.371 478.524 226.273 475.109 229.647C471.694 233.021 469.738 237.598 469.659 242.396C469.659 246.06 470.766 249.639 472.835 252.663L474.355 254.572L474.474 254.749L474.49 254.757Z" fill="#EAEAEA" fill-opacity="0.2"/>
<path d="M435.774 298.722H356.298C352.352 298.712 348.571 297.134 345.785 294.333C342.999 291.533 341.436 287.74 341.438 283.785V263.146C341.44 261.111 341.86 259.097 342.671 257.231C343.483 255.365 344.668 253.685 346.154 252.297L346.251 252.207C347.796 250.823 349.594 249.752 351.544 249.051L351.792 248.946C353.246 248.482 354.764 248.246 356.29 248.247H383.522C390.283 248.249 396.87 246.109 402.343 242.132C407.816 238.155 411.894 232.545 413.993 226.106C414.157 225.581 414.463 225.111 414.875 224.748C415.288 224.385 415.792 224.143 416.332 224.047C416.412 224.04 416.492 224.04 416.572 224.047H416.864C417.314 224.049 417.759 224.148 418.167 224.339C418.574 224.53 418.936 224.807 419.226 225.151L447.373 260.389C449.51 263.05 450.674 266.365 450.672 269.781V283.785C450.673 285.747 450.288 287.689 449.54 289.501C448.792 291.313 447.694 292.96 446.311 294.347C444.927 295.734 443.285 296.834 441.477 297.585C439.669 298.336 437.731 298.722 435.774 298.722ZM347.383 276.783V283.785C347.381 286.149 348.315 288.417 349.979 290.091C351.643 291.766 353.902 292.711 356.26 292.719H435.774C438.134 292.713 440.396 291.769 442.063 290.094C443.73 288.42 444.666 286.151 444.666 283.785V269.766C444.639 267.72 443.932 265.743 442.657 264.146L417.682 232.868C414.559 239.287 409.697 244.696 403.65 248.476C397.604 252.256 390.619 254.254 383.492 254.243C383.185 254.243 382.907 254.243 382.562 254.243C382.43 254.253 382.297 254.253 382.165 254.243H356.26C355.4 254.249 354.545 254.373 353.719 254.611C352.424 255.061 351.232 255.763 350.21 256.677C349.319 257.502 348.607 258.502 348.121 259.615C347.635 260.729 347.383 261.931 347.383 263.146V276.047C347.405 276.153 347.418 276.261 347.421 276.37C347.423 276.508 347.41 276.647 347.383 276.783Z" fill="#EAEAEA" fill-opacity="0.2"/>
<path d="M373.21 237.409C366.602 237.42 360.257 234.82 355.558 230.175C350.859 225.53 348.187 219.216 348.125 212.611V212.138C348.153 207.098 349.702 202.185 352.571 198.041C355.439 193.897 359.493 190.715 364.2 188.913C368.908 187.111 374.05 186.772 378.954 187.94C383.858 189.109 388.294 191.731 391.682 195.462C391.801 195.564 391.86 195.648 391.843 195.648L391.986 195.825L392.062 195.918L392.155 196.02L393.583 197.835C393.699 197.936 393.802 198.052 393.887 198.181C396.47 201.945 397.975 206.343 398.241 210.899C398.507 215.456 397.522 219.999 395.394 224.037C393.266 228.075 390.075 231.456 386.166 233.814C382.256 236.172 377.776 237.418 373.21 237.417V237.409ZM386.724 200.013C384.245 197.297 381.006 195.389 377.428 194.537C373.849 193.686 370.098 193.93 366.66 195.239C363.223 196.548 360.259 198.86 358.154 201.875C356.049 204.891 354.9 208.469 354.857 212.146V212.543C354.979 217.341 356.978 221.9 360.424 225.242C363.869 228.584 368.488 230.443 373.289 230.421C378.09 230.399 382.691 228.497 386.106 225.124C389.521 221.75 391.477 217.173 391.556 212.374C391.556 208.71 390.449 205.131 388.38 202.107L386.859 200.199L386.741 200.022L386.724 200.013Z" fill="#EAEAEA" fill-opacity="0.2"/>
<path d="M233.726 156.049H313.202C317.148 156.059 320.929 157.637 323.715 160.437C326.501 163.238 328.064 167.031 328.062 170.985V191.624C328.06 193.66 327.64 195.673 326.829 197.54C326.017 199.406 324.832 201.085 323.346 202.474L323.249 202.564C321.704 203.947 319.906 205.019 317.956 205.719L317.708 205.825C316.254 206.289 314.736 206.525 313.21 206.523H285.978C279.217 206.521 272.63 208.662 267.157 212.639C261.684 216.616 257.606 222.225 255.507 228.665C255.343 229.19 255.037 229.659 254.625 230.022C254.212 230.385 253.708 230.628 253.168 230.724C253.088 230.731 253.008 230.731 252.928 230.724H252.636C252.186 230.722 251.741 230.623 251.333 230.432C250.926 230.241 250.564 229.964 250.274 229.619L222.127 194.382C219.99 191.72 218.826 188.406 218.828 184.99V170.985C218.827 169.024 219.212 167.082 219.96 165.27C220.708 163.458 221.806 161.811 223.189 160.424C224.573 159.037 226.215 157.937 228.023 157.186C229.831 156.435 231.769 156.049 233.726 156.049ZM322.117 177.988V170.985C322.119 168.622 321.185 166.354 319.521 164.68C317.857 163.005 315.598 162.06 313.24 162.052H233.726C231.366 162.058 229.104 163.002 227.437 164.676C225.77 166.351 224.834 168.62 224.834 170.985V185.005C224.861 187.05 225.568 189.028 226.843 190.625L251.818 221.903C254.941 215.484 259.803 210.075 265.85 206.295C271.896 202.515 278.881 200.516 286.008 200.528C286.315 200.528 286.593 200.528 286.938 200.528C287.07 200.518 287.203 200.518 287.335 200.528H313.24C314.1 200.522 314.955 200.398 315.781 200.16C317.076 199.71 318.268 199.008 319.29 198.093C320.181 197.269 320.893 196.269 321.379 195.155C321.865 194.042 322.117 192.84 322.117 191.624V178.724C322.095 178.618 322.082 178.51 322.079 178.401C322.077 178.262 322.09 178.124 322.117 177.988Z" fill="#EAEAEA" fill-opacity="0.2"/>
<path d="M296.286 217.362C302.894 217.351 309.239 219.951 313.938 224.596C318.637 229.241 321.309 235.554 321.371 242.16V242.633C321.343 247.672 319.794 252.585 316.925 256.729C314.057 260.874 310.003 264.055 305.296 265.857C300.588 267.66 295.446 267.999 290.542 266.83C285.638 265.662 281.202 263.04 277.814 259.308C277.696 259.207 277.636 259.122 277.653 259.122L277.51 258.945L277.434 258.852L277.341 258.751L275.913 256.936C275.797 256.835 275.694 256.718 275.609 256.59C273.026 252.826 271.521 248.428 271.255 243.871C270.989 239.315 271.974 234.772 274.102 230.733C276.23 226.695 279.421 223.314 283.331 220.956C287.24 218.598 291.72 217.353 296.286 217.354V217.362ZM282.772 254.757C285.251 257.474 288.49 259.382 292.068 260.233C295.647 261.085 299.398 260.84 302.836 259.531C306.273 258.223 309.237 255.91 311.342 252.895C313.447 249.88 314.596 246.301 314.639 242.624V242.227C314.517 237.43 312.518 232.871 309.073 229.529C305.627 226.187 301.008 224.327 296.207 224.349C291.406 224.371 286.805 226.273 283.39 229.647C279.975 233.021 278.019 237.598 277.94 242.396C277.94 246.06 279.047 249.639 281.116 252.663L282.637 254.572L282.755 254.749L282.772 254.757Z" fill="#EAEAEA" fill-opacity="0.2"/>
<path d="M244.055 298.722H164.579C160.633 298.712 156.852 297.134 154.066 294.333C151.28 291.533 149.717 287.74 149.719 283.785V263.146C149.721 261.111 150.141 259.097 150.953 257.231C151.764 255.365 152.949 253.685 154.435 252.297L154.532 252.207C156.078 250.823 157.875 249.752 159.826 249.051L160.073 248.946C161.528 248.482 163.045 248.246 164.572 248.247H191.803C198.564 248.249 205.152 246.109 210.625 242.132C216.098 238.155 220.175 232.545 222.274 226.106C222.439 225.581 222.744 225.111 223.156 224.748C223.569 224.385 224.073 224.143 224.613 224.047C224.693 224.04 224.773 224.04 224.853 224.047H225.146C225.596 224.049 226.04 224.148 226.448 224.339C226.856 224.53 227.217 224.807 227.507 225.151L255.654 260.389C257.791 263.05 258.955 266.365 258.953 269.781V283.785C258.954 285.747 258.569 287.689 257.821 289.501C257.073 291.313 255.976 292.96 254.592 294.347C253.209 295.734 251.566 296.834 249.758 297.585C247.95 298.336 246.012 298.722 244.055 298.722ZM155.664 276.783V283.785C155.662 286.149 156.596 288.417 158.26 290.091C159.924 291.766 162.183 292.711 164.542 292.719H244.055C246.415 292.713 248.677 291.769 250.344 290.094C252.011 288.42 252.947 286.151 252.947 283.785V269.766C252.92 267.72 252.213 265.743 250.938 264.146L225.963 232.868C222.84 239.287 217.978 244.696 211.932 248.476C205.886 252.256 198.9 254.254 191.773 254.243C191.466 254.243 191.189 254.243 190.844 254.243C190.711 254.253 190.579 254.253 190.446 254.243H164.542C163.682 254.249 162.826 254.373 162 254.611C160.706 255.061 159.513 255.763 158.491 256.677C157.6 257.502 156.889 258.502 156.402 259.615C155.916 260.729 155.665 261.931 155.664 263.146V276.047C155.686 276.153 155.699 276.261 155.702 276.37C155.704 276.508 155.691 276.647 155.664 276.783Z" fill="#EAEAEA" fill-opacity="0.2"/>
<path d="M181.492 237.409C174.883 237.42 168.538 234.82 163.839 230.175C159.14 225.53 156.469 219.216 156.406 212.611V212.138C156.434 207.098 157.984 202.185 160.852 198.041C163.72 193.897 167.774 190.715 172.482 188.913C177.189 187.111 182.332 186.772 187.235 187.94C192.139 189.109 196.576 191.731 199.964 195.462C200.082 195.564 200.141 195.648 200.124 195.648L200.268 195.825L200.344 195.918L200.437 196.02L201.864 197.835C201.981 197.936 202.083 198.052 202.168 198.181C204.751 201.945 206.257 206.343 206.522 210.899C206.788 215.456 205.804 219.999 203.676 224.037C201.547 228.075 198.356 231.456 194.447 233.814C190.537 236.172 186.058 237.418 181.492 237.417V237.409ZM195.006 200.013C192.527 197.297 189.287 195.389 185.709 194.537C182.131 193.686 178.379 193.93 174.942 195.239C171.504 196.548 168.54 198.86 166.435 201.875C164.33 204.891 163.181 208.469 163.138 212.146V212.543C163.261 217.341 165.259 221.9 168.705 225.242C172.15 228.584 176.769 230.443 181.57 230.421C186.371 230.399 190.972 228.497 194.387 225.124C197.802 221.75 199.758 217.173 199.837 212.374C199.838 208.71 198.731 205.131 196.661 202.107L195.141 200.199L195.023 200.022L195.006 200.013Z" fill="#EAEAEA" fill-opacity="0.2"/>
<path d="M42.0076 156.049H121.483C125.429 156.059 129.21 157.637 131.996 160.437C134.782 163.238 136.346 167.031 136.344 170.985V191.624C136.341 193.66 135.921 195.673 135.11 197.54C134.299 199.406 133.113 201.085 131.628 202.474L131.53 202.564C129.985 203.947 128.188 205.019 126.237 205.719L125.989 205.825C124.535 206.289 123.017 206.525 121.491 206.523H94.2591C87.4987 206.521 80.9108 208.662 75.4379 212.639C69.965 216.616 65.8874 222.225 63.7884 228.665C63.6238 229.19 63.3187 229.659 62.9062 230.022C62.4937 230.385 61.9897 230.628 61.4491 230.724C61.3693 230.731 61.289 230.731 61.2092 230.724H60.9168C60.4668 230.722 60.0224 230.623 59.6146 230.432C59.2068 230.241 58.8452 229.964 58.555 229.619L30.4086 194.382C28.2716 191.72 27.1075 188.406 27.1096 184.99V170.985C27.1086 169.024 27.4932 167.082 28.2415 165.27C28.9897 163.458 30.087 161.811 31.4705 160.424C32.854 159.037 34.4966 157.937 36.3046 157.186C38.1126 156.435 40.0505 156.049 42.0076 156.049ZM130.398 177.988V170.985C130.4 168.622 129.467 166.354 127.802 164.68C126.138 163.005 123.879 162.06 121.521 162.052H42.0076C39.6471 162.058 37.3854 163.002 35.7184 164.676C34.0514 166.351 33.1153 168.62 33.1153 170.985V185.005C33.1422 187.05 33.8493 189.028 35.1247 190.625L60.0995 221.903C63.2222 215.484 68.0847 210.075 74.1309 206.295C80.177 202.515 87.1627 200.516 94.2891 200.528C94.5965 200.528 94.8739 200.528 95.2188 200.528C95.3511 200.518 95.4839 200.518 95.6162 200.528H121.521C122.381 200.522 123.236 200.398 124.062 200.16C125.357 199.71 126.549 199.008 127.571 198.093C128.463 197.269 129.174 196.269 129.66 195.155C130.147 194.042 130.398 192.84 130.398 191.624V178.724C130.376 178.618 130.364 178.51 130.361 178.401C130.359 178.262 130.371 178.124 130.398 177.988Z" fill="#EAEAEA" fill-opacity="0.2"/>
<path d="M104.571 217.362C111.179 217.351 117.524 219.951 122.223 224.596C126.922 229.241 129.594 235.554 129.656 242.16V242.633C129.628 247.672 128.079 252.585 125.21 256.729C122.342 260.874 118.289 264.055 113.581 265.857C108.873 267.66 103.731 267.999 98.827 266.83C93.9233 265.662 89.487 263.04 86.0989 259.308C85.9807 259.207 85.9216 259.122 85.9385 259.122L85.7949 258.945L85.7189 258.852L85.6259 258.751L84.1985 256.936C84.0818 256.835 83.9795 256.718 83.8945 256.59C81.3115 252.826 79.8059 248.428 79.5402 243.871C79.2745 239.315 80.2589 234.772 82.387 230.733C84.5151 226.695 87.7062 223.314 91.6157 220.956C95.5253 218.598 100.005 217.353 104.571 217.354V217.362ZM91.0569 254.757C93.5359 257.474 96.7751 259.382 100.353 260.233C103.932 261.085 107.684 260.84 111.121 259.531C114.558 258.223 117.522 255.91 119.627 252.895C121.733 249.88 122.881 246.301 122.925 242.624V242.227C122.802 237.43 120.803 232.871 117.358 229.529C113.912 226.187 109.293 224.327 104.492 224.349C99.6914 224.371 95.0901 226.273 91.6753 229.647C88.2605 233.021 86.3041 237.598 86.2256 242.396C86.225 246.06 87.3319 249.639 89.4014 252.663L90.9218 254.572L91.04 254.749L91.0569 254.757Z" fill="#EAEAEA" fill-opacity="0.2"/>
<path d="M52.3381 298.722H-27.1376C-31.0836 298.712 -34.8644 297.134 -37.6504 294.333C-40.4365 291.533 -42 287.74 -41.998 283.785L-41.998 263.146C-41.9954 261.111 -41.5754 259.097 -40.7641 257.231C-39.9529 255.365 -38.7677 253.685 -37.282 252.297L-37.1845 252.207C-35.6393 250.823 -33.8419 249.752 -31.8911 249.051L-31.6437 248.946C-30.1892 248.482 -28.6716 248.246 -27.1451 248.247H0.0866051C6.84702 248.249 13.4349 246.109 18.9078 242.132C24.3807 238.155 28.4583 232.545 30.5573 226.106C30.7219 225.581 31.027 225.111 31.4395 224.748C31.852 224.385 32.356 224.143 32.8966 224.047C32.9764 224.04 33.0567 224.04 33.1365 224.047H33.4289C33.879 224.049 34.3233 224.148 34.7311 224.339C35.1389 224.53 35.5005 224.807 35.7907 225.151L63.9371 260.389C66.0741 263.05 67.2382 266.365 67.2361 269.781V283.785C67.2371 285.747 66.8525 287.689 66.1042 289.501C65.356 291.313 64.2587 292.96 62.8752 294.347C61.4917 295.734 59.8491 296.834 58.0411 297.585C56.2331 298.336 54.2952 298.722 52.3381 298.722ZM-36.0524 276.783V283.785C-36.0544 286.149 -35.1209 288.417 -33.4567 290.091C-31.7926 291.766 -29.5335 292.711 -27.1751 292.719H52.3381C54.6986 292.713 56.9603 291.769 58.6273 290.094C60.2943 288.42 61.2304 286.151 61.2304 283.785V269.766C61.2035 267.72 60.4964 265.743 59.221 264.146L34.2462 232.868C31.1235 239.287 26.261 244.696 20.2148 248.476C14.1687 252.256 7.18299 254.254 0.0566101 254.243C-0.250797 254.243 -0.528206 254.243 -0.8731 254.243C-1.00539 254.253 -1.13819 254.253 -1.27048 254.243H-27.1751C-28.0351 254.249 -28.8903 254.373 -29.7168 254.611C-31.0112 255.061 -32.2038 255.763 -33.2257 256.677C-34.1169 257.502 -34.8281 258.502 -35.3145 259.615C-35.801 260.729 -36.0522 261.931 -36.0524 263.146L-36.0524 276.047C-36.0305 276.153 -36.0179 276.261 -36.0149 276.37C-36.0129 276.508 -36.0255 276.647 -36.0524 276.783Z" fill="#EAEAEA" fill-opacity="0.2"/>
<path d="M-10.2252 237.409C-16.8336 237.42 -23.1786 234.82 -27.8775 230.175C-32.5764 225.53 -35.2482 219.216 -35.3105 212.611V212.138C-35.2827 207.098 -33.7331 202.185 -30.8647 198.041C-27.9964 193.897 -23.9429 190.715 -19.2352 188.913C-14.5275 187.111 -9.38505 186.772 -4.48134 187.94C0.422367 189.109 4.85873 191.731 8.24675 195.462C8.365 195.564 8.42413 195.648 8.40723 195.648L8.55083 195.825L8.62685 195.918L8.71977 196.02L10.1472 197.835C10.2639 197.936 10.3662 198.052 10.4512 198.181C13.0343 201.945 14.5398 206.343 14.8055 210.899C15.0712 215.456 14.0868 219.999 11.9587 224.037C9.8306 228.075 6.63951 231.456 2.72996 233.814C-1.1796 236.172 -5.65915 237.418 -10.2252 237.417V237.409ZM3.28881 200.013C0.809834 197.297 -2.42942 195.389 -6.00774 194.537C-9.58606 193.686 -13.3379 193.93 -16.7753 195.239C-20.2127 196.548 -23.1767 198.86 -25.2818 201.875C-27.3869 204.891 -28.5357 208.469 -28.5789 212.146V212.543C-28.4562 217.341 -26.4577 221.9 -23.012 225.242C-19.5663 228.584 -14.9478 230.443 -10.1467 230.421C-5.34565 230.399 -0.744385 228.497 2.67039 225.124C6.08517 221.75 8.04157 217.173 8.12006 212.374C8.12075 208.71 7.01379 205.131 4.94429 202.107L3.42395 200.199L3.30572 200.022L3.28881 200.013Z" fill="#EAEAEA" fill-opacity="0.2"/>
<path d="M426.554 314.327H506.03C509.976 314.337 513.757 315.915 516.543 318.715C519.329 321.516 520.893 325.309 520.891 329.263V349.902C520.888 351.938 520.468 353.952 519.657 355.818C518.845 357.684 517.66 359.363 516.175 360.752L516.077 360.842C514.532 362.226 512.734 363.297 510.784 363.997L510.536 364.103C509.082 364.567 507.564 364.803 506.038 364.801H478.806C472.046 364.799 465.458 366.94 459.985 370.917C454.512 374.894 450.434 380.503 448.335 386.943C448.171 387.468 447.866 387.937 447.453 388.3C447.041 388.663 446.537 388.906 445.996 389.002C445.916 389.009 445.836 389.009 445.756 389.002H445.464C445.014 389 444.569 388.901 444.161 388.71C443.754 388.519 443.392 388.242 443.102 387.897L414.955 352.66C412.818 349.998 411.654 346.684 411.656 343.268V329.263C411.656 327.302 412.04 325.36 412.788 323.548C413.537 321.736 414.634 320.089 416.017 318.702C417.401 317.315 419.044 316.215 420.852 315.464C422.659 314.713 424.597 314.327 426.554 314.327ZM514.945 336.266V329.263C514.947 326.9 514.013 324.632 512.349 322.958C510.685 321.283 508.426 320.338 506.068 320.33H426.554C424.194 320.336 421.932 321.28 420.265 322.955C418.598 324.629 417.662 326.898 417.662 329.263V343.283C417.689 345.328 418.396 347.306 419.672 348.903L444.646 380.181C447.769 373.762 452.632 368.353 458.678 364.573C464.724 360.793 471.71 358.794 478.836 358.806C479.143 358.806 479.421 358.806 479.766 358.806C479.898 358.796 480.031 358.796 480.163 358.806H506.068C506.928 358.8 507.783 358.676 508.609 358.438C509.904 357.988 511.096 357.286 512.118 356.371C513.009 355.547 513.721 354.547 514.207 353.433C514.694 352.32 514.945 351.118 514.945 349.902V337.002C514.923 336.896 514.91 336.788 514.907 336.679C514.905 336.54 514.918 336.402 514.945 336.266Z" fill="#EAEAEA" fill-opacity="0.2"/>
<path d="M489.118 375.64C495.726 375.629 502.071 378.229 506.77 382.874C511.469 387.519 514.141 393.832 514.203 400.438V400.911C514.175 405.95 512.626 410.864 509.757 415.008C506.889 419.152 502.835 422.333 498.128 424.136C493.42 425.938 488.278 426.277 483.374 425.108C478.47 423.94 474.034 421.318 470.646 417.587C470.528 417.485 470.468 417.401 470.485 417.401L470.342 417.224L470.266 417.131L470.173 417.029L468.745 415.214C468.629 415.113 468.526 414.997 468.441 414.868C465.858 411.104 464.353 406.706 464.087 402.15C463.821 397.593 464.806 393.05 466.934 389.012C469.062 384.973 472.253 381.593 476.163 379.235C480.072 376.877 484.552 375.631 489.118 375.632V375.64ZM475.604 413.036C478.083 415.752 481.322 417.66 484.9 418.512C488.479 419.363 492.23 419.118 495.668 417.81C499.105 416.501 502.069 414.189 504.174 411.173C506.279 408.158 507.428 404.579 507.471 400.903V400.506C507.349 395.708 505.35 391.149 501.905 387.807C498.459 384.465 493.84 382.605 489.039 382.628C484.238 382.65 479.637 384.551 476.222 387.925C472.807 391.299 470.851 395.876 470.773 400.675C470.772 404.339 471.879 407.918 473.948 410.942L475.469 412.85L475.587 413.027L475.604 413.036Z" fill="#EAEAEA" fill-opacity="0.2"/>
<path d="M436.887 457H357.411C353.465 456.99 349.684 455.412 346.898 452.611C344.112 449.811 342.549 446.018 342.551 442.064V421.424C342.553 419.389 342.973 417.375 343.785 415.509C344.596 413.643 345.781 411.963 347.267 410.575L347.364 410.485C348.91 409.101 350.707 408.03 352.658 407.329L352.905 407.224C354.36 406.76 355.877 406.524 357.404 406.525H384.635C391.396 406.527 397.984 404.387 403.457 400.41C408.93 396.433 413.007 390.823 415.106 384.384C415.271 383.859 415.576 383.389 415.988 383.026C416.401 382.663 416.905 382.421 417.445 382.325C417.525 382.318 417.606 382.318 417.685 382.325H417.978C418.428 382.327 418.872 382.426 419.28 382.617C419.688 382.808 420.049 383.085 420.34 383.43L448.486 418.667C450.623 421.329 451.787 424.643 451.785 428.059V442.064C451.786 444.025 451.401 445.967 450.653 447.779C449.905 449.591 448.808 451.238 447.424 452.625C446.041 454.012 444.398 455.112 442.59 455.863C440.782 456.614 438.844 457 436.887 457ZM348.496 435.061V442.064C348.494 444.427 349.428 446.695 351.092 448.369C352.756 450.044 355.015 450.989 357.374 450.997H436.887C439.247 450.991 441.509 450.047 443.176 448.372C444.843 446.698 445.779 444.429 445.779 442.064V428.044C445.752 425.998 445.045 424.021 443.77 422.424L418.795 391.146C415.672 397.565 410.81 402.974 404.764 406.754C398.718 410.534 391.732 412.533 384.605 412.521C384.298 412.521 384.021 412.521 383.676 412.521C383.543 412.531 383.411 412.531 383.278 412.521H357.374C356.514 412.527 355.659 412.651 354.832 412.889C353.538 413.339 352.345 414.041 351.323 414.955C350.432 415.78 349.721 416.78 349.234 417.894C348.748 419.007 348.497 420.209 348.496 421.424V434.325C348.518 434.431 348.531 434.539 348.534 434.648C348.536 434.787 348.523 434.925 348.496 435.061Z" fill="#EAEAEA" fill-opacity="0.2"/>
<path d="M374.324 395.687C367.715 395.698 361.37 393.098 356.671 388.453C351.972 383.808 349.301 377.495 349.238 370.889V370.416C349.266 365.377 350.816 360.463 353.684 356.319C356.552 352.175 360.606 348.994 365.314 347.191C370.021 345.389 375.164 345.05 380.067 346.219C384.971 347.387 389.408 350.009 392.796 353.741C392.914 353.842 392.973 353.926 392.956 353.926L393.1 354.104L393.176 354.197L393.269 354.298L394.696 356.113C394.813 356.214 394.915 356.331 395 356.459C397.583 360.223 399.089 364.621 399.354 369.178C399.62 373.734 398.636 378.277 396.508 382.315C394.379 386.354 391.188 389.734 387.279 392.092C383.369 394.45 378.89 395.696 374.324 395.695V395.687ZM387.838 358.292C385.359 355.575 382.119 353.667 378.541 352.816C374.963 351.964 371.211 352.209 367.774 353.517C364.336 354.826 361.372 357.138 359.267 360.154C357.162 363.169 356.013 366.748 355.97 370.425V370.821C356.093 375.619 358.091 380.178 361.537 383.52C364.982 386.862 369.601 388.722 374.402 388.7C379.203 388.678 383.804 386.776 387.219 383.402C390.634 380.028 392.59 375.451 392.669 370.653C392.67 366.988 391.563 363.41 389.493 360.385L387.973 358.477L387.855 358.3L387.838 358.292Z" fill="#EAEAEA" fill-opacity="0.2"/>
<path d="M234.836 314.327H314.311C318.257 314.337 322.038 315.915 324.824 318.715C327.61 321.516 329.174 325.309 329.172 329.263V349.902C329.169 351.938 328.749 353.952 327.938 355.818C327.127 357.684 325.941 359.363 324.456 360.752L324.358 360.842C322.813 362.226 321.016 363.297 319.065 363.997L318.818 364.103C317.363 364.567 315.845 364.803 314.319 364.801H287.087C280.327 364.799 273.739 366.94 268.266 370.917C262.793 374.894 258.716 380.503 256.617 386.943C256.452 387.468 256.147 387.937 255.734 388.3C255.322 388.663 254.818 388.906 254.277 389.002C254.197 389.009 254.117 389.009 254.037 389.002H253.745C253.295 389 252.851 388.901 252.443 388.71C252.035 388.519 251.673 388.242 251.383 387.897L223.237 352.66C221.1 349.998 219.936 346.684 219.938 343.268V329.263C219.937 327.302 220.321 325.36 221.07 323.548C221.818 321.736 222.915 320.089 224.299 318.702C225.682 317.315 227.325 316.215 229.133 315.464C230.941 314.713 232.879 314.327 234.836 314.327ZM323.226 336.266V329.263C323.228 326.9 322.295 324.632 320.631 322.958C318.966 321.283 316.707 320.338 314.349 320.33H234.836C232.475 320.336 230.213 321.28 228.547 322.955C226.88 324.629 225.943 326.898 225.943 329.263V343.283C225.97 345.328 226.677 347.306 227.953 348.903L252.928 380.181C256.05 373.762 260.913 368.353 266.959 364.573C273.005 360.793 279.991 358.794 287.117 358.806C287.425 358.806 287.702 358.806 288.047 358.806C288.179 358.796 288.312 358.796 288.444 358.806H314.349C315.209 358.8 316.064 358.676 316.891 358.438C318.185 357.988 319.378 357.286 320.4 356.371C321.291 355.547 322.002 354.547 322.488 353.433C322.975 352.32 323.226 351.118 323.226 349.902V337.002C323.204 336.896 323.192 336.788 323.189 336.679C323.187 336.54 323.199 336.402 323.226 336.266Z" fill="#EAEAEA" fill-opacity="0.2"/>
<path d="M297.399 375.64C304.007 375.629 310.352 378.229 315.051 382.874C319.75 387.519 322.422 393.832 322.484 400.438V400.911C322.457 405.95 320.907 410.864 318.039 415.008C315.17 419.152 311.117 422.333 306.409 424.136C301.701 425.938 296.559 426.277 291.655 425.108C286.751 423.94 282.315 421.318 278.927 417.587C278.809 417.485 278.75 417.401 278.767 417.401L278.623 417.224L278.547 417.131L278.454 417.029L277.027 415.214C276.91 415.113 276.808 414.997 276.723 414.868C274.14 411.104 272.634 406.706 272.368 402.15C272.103 397.593 273.087 393.05 275.215 389.012C277.343 384.973 280.534 381.593 284.444 379.235C288.353 376.877 292.833 375.631 297.399 375.632V375.64ZM283.885 413.036C286.364 415.752 289.603 417.66 293.182 418.512C296.76 419.363 300.512 419.118 303.949 417.81C307.387 416.501 310.351 414.189 312.456 411.173C314.561 408.158 315.71 404.579 315.753 400.903V400.506C315.63 395.708 313.632 391.149 310.186 387.807C306.74 384.465 302.122 382.605 297.321 382.628C292.519 382.65 287.918 384.551 284.503 387.925C281.089 391.299 279.132 395.876 279.054 400.675C279.053 404.339 280.16 407.918 282.23 410.942L283.75 412.85L283.868 413.027L283.885 413.036Z" fill="#EAEAEA" fill-opacity="0.2"/>
<path d="M245.168 457H165.692C161.747 456.99 157.966 455.412 155.18 452.611C152.394 449.811 150.83 446.018 150.832 442.064V421.424C150.835 419.389 151.255 417.375 152.066 415.509C152.877 413.643 154.062 411.963 155.548 410.575L155.646 410.485C157.191 409.101 158.988 408.03 160.939 407.329L161.186 407.224C162.641 406.76 164.158 406.524 165.685 406.525H192.917C199.677 406.527 206.265 404.387 211.738 400.41C217.211 396.433 221.288 390.823 223.387 384.384C223.552 383.859 223.857 383.389 224.27 383.026C224.682 382.663 225.186 382.421 225.727 382.325C225.806 382.318 225.887 382.318 225.967 382.325H226.259C226.709 382.327 227.153 382.426 227.561 382.617C227.969 382.808 228.331 383.085 228.621 383.43L256.767 418.667C258.904 421.329 260.068 424.643 260.066 428.059V442.064C260.067 444.025 259.683 445.967 258.934 447.779C258.186 449.591 257.089 451.238 255.705 452.625C254.322 454.012 252.679 455.112 250.871 455.863C249.063 456.614 247.125 457 245.168 457ZM156.778 435.061V442.064C156.776 444.427 157.709 446.695 159.373 448.369C161.038 450.044 163.297 450.989 165.655 450.997H245.168C247.529 450.991 249.79 450.047 251.457 448.372C253.124 446.698 254.061 444.429 254.06 442.064V428.044C254.034 425.998 253.326 424.021 252.051 422.424L227.076 391.146C223.954 397.565 219.091 402.974 213.045 406.754C206.999 410.534 200.013 412.533 192.887 412.521C192.579 412.521 192.302 412.521 191.957 412.521C191.825 412.531 191.692 412.531 191.56 412.521H165.655C164.795 412.527 163.94 412.651 163.113 412.889C161.819 413.339 160.626 414.041 159.604 414.955C158.713 415.78 158.002 416.78 157.516 417.894C157.029 419.007 156.778 420.209 156.778 421.424V434.325C156.8 434.431 156.812 434.539 156.815 434.648C156.817 434.787 156.805 434.925 156.778 435.061Z" fill="#EAEAEA" fill-opacity="0.2"/>
<path d="M182.605 395.687C175.996 395.698 169.651 393.098 164.953 388.453C160.254 383.808 157.582 377.495 157.52 370.889V370.416C157.547 365.377 159.097 360.463 161.965 356.319C164.834 352.175 168.887 348.994 173.595 347.191C178.303 345.389 183.445 345.05 188.349 346.219C193.252 347.387 197.689 350.009 201.077 353.741C201.195 353.842 201.254 353.926 201.237 353.926L201.381 354.104L201.457 354.197L201.55 354.298L202.977 356.113C203.094 356.214 203.196 356.331 203.281 356.459C205.864 360.223 207.37 364.621 207.636 369.178C207.901 373.734 206.917 378.277 204.789 382.315C202.661 386.354 199.47 389.734 195.56 392.092C191.65 394.45 187.171 395.696 182.605 395.695V395.687ZM196.119 358.292C193.64 355.575 190.401 353.667 186.822 352.816C183.244 351.964 179.492 352.209 176.055 353.517C172.617 354.826 169.653 357.138 167.548 360.154C165.443 363.169 164.294 366.748 164.251 370.425V370.821C164.374 375.619 166.372 380.178 169.818 383.52C173.264 386.862 177.882 388.722 182.683 388.7C187.484 388.678 192.086 386.776 195.5 383.402C198.915 380.028 200.872 375.451 200.95 370.653C200.951 366.988 199.844 363.41 197.774 360.385L196.254 358.477L196.136 358.3L196.119 358.292Z" fill="#00589B" fill-opacity="0.2"/>
<path d="M43.1208 314.327H122.597C126.543 314.337 130.323 315.915 133.109 318.715C135.895 321.516 137.459 325.309 137.457 329.263V349.902C137.454 351.938 137.034 353.952 136.223 355.818C135.412 357.684 134.227 359.363 132.741 360.752L132.643 360.842C131.098 362.226 129.301 363.297 127.35 363.997L127.103 364.103C125.648 364.567 124.131 364.803 122.604 364.801H95.3724C88.612 364.799 82.0241 366.94 76.5512 370.917C71.0783 374.894 67.0007 380.503 64.9017 386.943C64.7371 387.468 64.432 387.937 64.0195 388.3C63.607 388.663 63.103 388.906 62.5624 389.002C62.4826 389.009 62.4023 389.009 62.3225 389.002H62.0301C61.58 389 61.1357 388.901 60.7279 388.71C60.3201 388.519 59.9585 388.242 59.6683 387.897L31.5219 352.66C29.3848 349.998 28.2207 346.684 28.2229 343.268V329.263C28.2219 327.302 28.6065 325.36 29.3548 323.548C30.103 321.736 31.2002 320.089 32.5837 318.702C33.9673 317.315 35.6099 316.215 37.4179 315.464C39.2259 314.713 41.1638 314.327 43.1208 314.327ZM131.511 336.266V329.263C131.513 326.9 130.58 324.632 128.916 322.958C127.252 321.283 124.992 320.338 122.634 320.33H43.1208C40.7604 320.336 38.4986 321.28 36.8317 322.955C35.1647 324.629 34.2286 326.898 34.2286 329.263V343.283C34.2555 345.328 34.9626 347.306 36.2379 348.903L61.2128 380.181C64.3355 373.762 69.198 368.353 75.2441 364.573C81.2903 360.793 88.276 358.794 95.4024 358.806C95.7098 358.806 95.9872 358.806 96.3321 358.806C96.4644 358.796 96.5972 358.796 96.7295 358.806H122.634C123.494 358.8 124.349 358.676 125.176 358.438C126.47 357.988 127.663 357.286 128.685 356.371C129.576 355.547 130.287 354.547 130.774 353.433C131.26 352.32 131.511 351.118 131.511 349.902V337.002C131.489 336.896 131.477 336.788 131.474 336.679C131.472 336.54 131.484 336.402 131.511 336.266Z" fill="#EAEAEA" fill-opacity="0.2"/>
<path d="M105.684 375.64C112.293 375.629 118.638 378.229 123.336 382.874C128.035 387.519 130.707 393.832 130.77 400.438V400.911C130.742 405.95 129.192 410.864 126.324 415.008C123.455 419.152 119.402 422.333 114.694 424.136C109.986 425.938 104.844 426.277 99.9403 425.108C95.0366 423.94 90.6003 421.318 87.2122 417.587C87.094 417.485 87.0349 417.401 87.0518 417.401L86.9082 417.224L86.8321 417.131L86.7392 417.029L85.3118 415.214C85.1951 415.113 85.0928 414.997 85.0077 414.868C82.4247 411.104 80.9191 406.706 80.6535 402.15C80.3878 397.593 81.3721 393.05 83.5003 389.012C85.6284 384.973 88.8195 381.593 92.729 379.235C96.6386 376.877 101.118 375.631 105.684 375.632V375.64ZM92.1702 413.036C94.6492 415.752 97.8884 417.66 101.467 418.512C105.045 419.363 108.797 419.118 112.234 417.81C115.672 416.501 118.636 414.189 120.741 411.173C122.846 408.158 123.995 404.579 124.038 400.903V400.506C123.915 395.708 121.917 391.149 118.471 387.807C115.025 384.465 110.407 382.605 105.606 382.628C100.805 382.65 96.2034 384.551 92.7886 387.925C89.3738 391.299 87.4174 395.876 87.3389 400.675C87.3382 404.339 88.4452 407.918 90.5147 410.942L92.035 412.85L92.1533 413.027L92.1702 413.036Z" fill="#EAEAEA" fill-opacity="0.2"/>
<path d="M53.4514 457H-26.0243C-29.9703 456.99 -33.7511 455.412 -36.5372 452.611C-39.3232 449.811 -40.8868 446.018 -40.8848 442.064L-40.8848 421.424C-40.8821 419.389 -40.4621 417.375 -39.6508 415.509C-38.8396 413.643 -37.6544 411.963 -36.1687 410.575L-36.0712 410.485C-34.526 409.101 -32.7286 408.03 -30.7778 407.329L-30.5304 407.224C-29.0759 406.76 -27.5584 406.524 -26.0318 406.525H1.19989C7.9603 406.527 14.5482 404.387 20.0211 400.41C25.494 396.433 29.5716 390.823 31.6706 384.384C31.8351 383.859 32.1403 383.389 32.5528 383.026C32.9653 382.663 33.4693 382.421 34.0099 382.325C34.0897 382.318 34.17 382.318 34.2498 382.325H34.5422C34.9922 382.327 35.4366 382.426 35.8444 382.617C36.2522 382.808 36.6137 383.085 36.904 383.43L65.0504 418.667C67.1874 421.329 68.3515 424.643 68.3494 428.059V442.064C68.3504 444.025 67.9657 445.967 67.2175 447.779C66.4692 449.591 65.372 451.238 63.9885 452.625C62.605 454.012 60.9623 455.112 59.1544 455.863C57.3464 456.614 55.4085 457 53.4514 457ZM-34.9391 435.061V442.064C-34.9411 444.427 -34.0076 446.695 -32.3434 448.369C-30.6793 450.044 -28.4202 450.989 -26.0618 450.997H53.4514C55.8119 450.991 58.0736 450.047 59.7406 448.372C61.4076 446.698 62.3437 444.429 62.3437 442.064V428.044C62.3168 425.998 61.6096 424.021 60.3343 422.424L35.3595 391.146C32.2367 397.565 27.3743 402.974 21.3281 406.754C15.282 410.534 8.29627 412.533 1.16989 412.521C0.862484 412.521 0.585075 412.521 0.240181 412.521C0.107891 412.531 -0.0249062 412.531 -0.157196 412.521H-26.0618C-26.9218 412.527 -27.777 412.651 -28.6035 412.889C-29.8979 413.339 -31.0905 414.041 -32.1124 414.955C-33.0036 415.78 -33.7148 416.78 -34.2013 417.894C-34.6877 419.007 -34.9389 420.209 -34.9391 421.424L-34.9391 434.325C-34.9172 434.431 -34.9046 434.539 -34.9016 434.648C-34.8996 434.787 -34.9122 434.925 -34.9391 435.061Z" fill="#EAEAEA" fill-opacity="0.2"/>
<path d="M-9.11191 395.687C-15.7203 395.698 -22.0653 393.098 -26.7642 388.453C-31.4631 383.808 -34.1349 377.495 -34.1973 370.889V370.416C-34.1694 365.377 -32.6199 360.463 -29.7515 356.319C-26.8831 352.175 -22.8296 348.994 -18.1219 347.191C-13.4142 345.389 -8.27177 345.05 -3.36806 346.219C1.53565 347.387 5.97201 350.009 9.36003 353.741C9.47828 353.842 9.53741 353.926 9.52052 353.926L9.66411 354.104L9.74013 354.197L9.83305 354.298L11.2604 356.113C11.3771 356.214 11.4795 356.331 11.5645 356.459C14.1475 360.223 15.6531 364.621 15.9188 369.178C16.1845 373.734 15.2001 378.277 13.072 382.315C10.9439 386.354 7.7528 389.734 3.84324 392.092C-0.0663147 394.45 -4.54587 395.696 -9.11191 395.695V395.687ZM4.40209 358.292C1.92311 355.575 -1.31614 353.667 -4.89446 352.816C-8.47278 351.964 -12.2246 352.209 -15.662 353.517C-19.0994 354.826 -22.0634 357.138 -24.1685 360.154C-26.2736 363.169 -27.4224 366.748 -27.4656 370.425V370.821C-27.3429 375.619 -25.3445 380.178 -21.8988 383.52C-18.453 386.862 -13.8345 388.722 -9.03343 388.7C-4.23237 388.678 0.368896 386.776 3.78367 383.402C7.19845 380.028 9.15485 375.451 9.23335 370.653C9.23403 366.988 8.12707 363.41 6.05757 360.385L4.53723 358.477L4.419 358.3L4.40209 358.292Z" fill="#EAEAEA" fill-opacity="0.2"/>
</svg>
