<svg width="860" height="120" viewBox="0 0 860 120" fill="none" xmlns="http://www.w3.org/2000/svg">
<path d="M662.929 0H572.166C567.66 0.0113391 563.342 1.81003 560.16 5.00135C556.979 8.19268 555.193 12.5159 555.195 17.0223V40.5436C555.198 42.8635 555.678 45.1581 556.604 47.285C557.531 49.4119 558.884 51.3257 560.581 52.9079L560.692 53.0107C562.457 54.5875 564.51 55.8086 566.738 56.6069L567.02 56.7268C568.681 57.2561 570.414 57.5248 572.158 57.5231H603.257C610.977 57.5209 618.501 59.9604 624.751 64.4927C631.001 69.025 635.658 75.4179 638.055 82.7569C638.243 83.355 638.591 83.8901 639.062 84.3038C639.534 84.7175 640.109 84.9939 640.727 85.103C640.818 85.1115 640.909 85.1115 641 85.103H641.334C641.848 85.1013 642.356 84.9878 642.822 84.7705C643.287 84.5532 643.7 84.2371 644.032 83.8443L676.175 43.6861C678.616 40.6528 679.945 36.876 679.943 32.9829V17.0223C679.944 14.7873 679.505 12.574 678.65 10.5088C677.796 8.44362 676.543 6.56702 674.963 4.98624C673.383 3.40546 671.507 2.15146 669.442 1.2959C667.377 0.440347 665.164 -2.83042e-07 662.929 0ZM561.985 25.0026V17.0223C561.983 14.3289 563.049 11.7445 564.95 9.83597C566.85 7.92742 569.43 6.85053 572.123 6.84146H662.929C665.625 6.84826 668.208 7.92388 670.112 9.83243C672.015 11.741 673.084 14.3266 673.084 17.0223V33C673.054 35.3308 672.246 37.5848 670.79 39.4048L642.268 75.0506C638.702 67.7351 633.149 61.5709 626.244 57.2629C619.339 52.955 611.361 50.6772 603.223 50.6902C602.872 50.6902 602.555 50.6902 602.161 50.6902C602.01 50.6794 601.858 50.6794 601.707 50.6902H572.123C571.141 50.6836 570.165 50.5424 569.221 50.2706C567.743 49.7582 566.381 48.9578 565.213 47.9159C564.196 46.9764 563.384 45.8363 562.828 44.5675C562.272 43.2988 561.986 41.9287 561.985 40.5436V25.8417C562.01 25.7205 562.025 25.5973 562.028 25.4735C562.03 25.3155 562.016 25.1577 561.985 25.0026Z" fill="white" fill-opacity="0.6"/>
<path d="M603.224 68.8174C596.524 68.8058 590.092 71.4427 585.328 76.1533C580.565 80.864 577.856 87.2665 577.793 93.9656V94.4451C577.821 99.5555 579.392 104.538 582.3 108.741C585.208 112.943 589.317 116.17 594.09 117.998C598.862 119.825 604.075 120.169 609.047 118.984C614.018 117.799 618.515 115.14 621.95 111.356C622.07 111.253 622.13 111.168 622.113 111.168L622.258 110.988L622.335 110.894L622.429 110.791L623.877 108.95C623.995 108.848 624.099 108.729 624.185 108.599C626.803 104.782 628.33 100.322 628.599 95.7011C628.868 91.08 627.87 86.4732 625.713 82.3778C623.556 78.2824 620.321 74.854 616.357 72.4627C612.394 70.0714 607.853 68.808 603.224 68.8088V68.8174ZM616.924 106.741C614.411 109.496 611.127 111.431 607.499 112.294C603.872 113.158 600.068 112.91 596.583 111.582C593.099 110.255 590.094 107.91 587.96 104.852C585.826 101.794 584.661 98.1652 584.617 94.4365V94.0341C584.742 89.1685 586.768 84.5453 590.261 81.1559C593.754 77.7666 598.436 75.8809 603.303 75.9033C608.17 75.9258 612.835 77.8544 616.297 81.2758C619.759 84.6971 621.742 89.3388 621.822 94.2053C621.822 97.9212 620.7 101.55 618.602 104.617L617.061 106.553L616.941 106.732L616.924 106.741Z" fill="white" fill-opacity="0.6"/>
<path d="M518.468 50.8614C522.705 50.8718 526.877 49.8235 530.606 47.8116C534.334 45.7998 537.501 42.8883 539.819 39.3415C542.137 35.7947 543.531 31.7251 543.876 27.5024C544.222 23.2796 543.506 19.0375 541.795 15.1615C540.084 11.2854 537.432 7.89828 534.08 5.3077C530.727 2.71711 526.78 1.0052 522.598 0.327469C518.416 -0.35026 514.131 0.0276686 510.131 1.42694C506.132 2.8262 502.546 5.20246 499.699 8.33984C499.623 8.4183 499.551 8.50122 499.485 8.58816C499.432 8.63827 499.383 8.69269 499.339 8.75085L499.228 8.87928L497.755 10.7373C497.606 10.8691 497.489 11.0331 497.413 11.2168C494.826 15.0386 493.329 19.4926 493.083 24.1007C492.837 28.7089 493.85 33.2971 496.015 37.3727C498.18 41.4483 501.413 44.8573 505.369 47.2337C509.325 49.6102 513.853 50.8643 518.468 50.8614ZM499.879 25.4735C499.872 21.7487 500.988 18.1082 503.081 15.0272L504.502 13.1691C504.656 13.055 504.787 12.9126 504.888 12.7495C507.845 9.58237 511.815 7.54611 516.112 6.99176C520.41 6.43741 524.766 7.39971 528.43 9.71279C532.094 12.0259 534.837 15.5448 536.185 19.663C537.533 23.7812 537.402 28.2406 535.815 32.2726C534.227 36.3046 531.283 39.6566 527.49 41.7507C523.696 43.8447 519.291 44.5498 515.033 43.7442C510.775 42.9387 506.932 40.673 504.166 37.3378C501.399 34.0025 499.883 29.8067 499.879 25.4735Z" fill="white" fill-opacity="0.6"/>
<path d="M565.737 74.0238C565.737 73.921 565.685 73.8268 565.66 73.7498C565.586 73.4958 565.488 73.2493 565.369 73.0134C565.3 72.8164 565.223 72.6366 565.095 72.3541C565.073 72.291 565.044 72.2307 565.009 72.1743C564.966 72.0544 564.906 71.9174 564.838 71.7461C564.75 71.5527 564.647 71.3665 564.529 71.1896C564.475 71.1056 564.43 71.0167 564.392 70.9241C564.347 70.8277 564.293 70.7359 564.23 70.6501C564.161 70.5131 564.076 70.3504 563.956 70.1364C563.847 69.9459 563.718 69.7679 563.57 69.6055C563.504 69.4774 563.423 69.3568 563.331 69.2459C563.228 69.0736 563.11 68.9103 562.98 68.7578C562.901 68.6289 562.809 68.5084 562.706 68.3982L562.38 68.0557L562.303 67.9615L561.978 67.6018L561.798 67.3878L561.224 66.8227C561.178 66.774 561.126 66.7308 561.07 66.6942C560.879 66.4791 560.667 66.284 560.437 66.112C560.371 66.0584 560.299 66.0124 560.222 65.975C559.619 65.4509 558.968 64.9837 558.279 64.5793L558.142 64.4851C557.951 64.3666 557.753 64.2579 557.551 64.1597L557.286 64.0227C557.039 63.8949 556.785 63.7834 556.523 63.6888C556.232 63.5209 555.925 63.3804 555.607 63.2692C555.397 63.1814 555.183 63.1042 554.965 63.038L554.58 62.9181L554.4 62.8668C554.159 62.7211 553.885 62.6414 553.604 62.6356L553.398 62.5756H553.278C553.146 62.531 553.007 62.505 552.867 62.4986C552.664 62.4502 552.458 62.413 552.251 62.3873C552.125 62.3556 551.995 62.3383 551.865 62.3359C551.73 62.3082 551.593 62.2911 551.454 62.2845C551.375 62.276 551.294 62.276 551.215 62.2845H551.086C550.931 62.2544 550.773 62.2401 550.615 62.2417C550.494 62.2158 550.371 62.2014 550.247 62.1989H520.09C519.966 62.1724 519.84 62.1581 519.713 62.1561H519.431C519.054 62.1561 518.754 62.1561 518.472 62.1561C510.748 62.1673 503.22 59.7348 496.963 55.2069C490.706 50.679 486.042 44.2877 483.639 36.948C483.453 36.3417 483.103 35.7989 482.626 35.3802C482.15 34.9614 481.567 34.683 480.942 34.5762C480.338 34.4637 479.714 34.5201 479.14 34.7392C478.566 34.9583 478.064 35.3315 477.688 35.8177L445.536 75.976C443.121 79.0093 441.813 82.776 441.828 86.6535V102.631C441.824 107.14 443.608 111.466 446.79 114.661C449.971 117.855 454.291 119.657 458.799 119.671H549.562C554.076 119.662 558.402 117.863 561.592 114.668C564.781 111.474 566.574 107.145 566.576 102.631V79.127C566.54 77.3947 566.257 75.6763 565.737 74.0238ZM550.161 68.989C550.395 69.0429 550.633 69.0744 550.872 69.0832L551.112 69.126H551.352C551.473 69.1694 551.6 69.1926 551.728 69.1945C551.867 69.2457 552.01 69.2802 552.157 69.2972H552.285C552.362 69.3262 552.443 69.3463 552.525 69.3572L552.961 69.5199C553.014 69.5421 553.068 69.5593 553.124 69.5712C553.266 69.6472 553.412 69.7157 553.561 69.7767L553.818 69.8795L554.143 70.0336L554.272 70.085C554.392 70.1901 554.528 70.2766 554.674 70.3419C555.104 70.5988 555.516 70.8849 555.907 71.1981L556.104 71.3437L556.258 71.5064C556.341 71.6045 556.439 71.6884 556.549 71.7547L556.763 71.9431C556.871 72.0953 556.991 72.2385 557.123 72.3712C557.203 72.4757 557.292 72.5731 557.388 72.6623C557.453 72.8002 557.547 72.9228 557.662 73.0219C557.72 73.1379 557.798 73.2424 557.893 73.3302C557.934 73.4157 557.98 73.4986 558.03 73.5785L558.27 73.9724V74.0152L558.399 74.3234C558.454 74.4448 558.523 74.5597 558.604 74.6659C558.647 74.8111 558.711 74.9495 558.793 75.077C558.844 75.2778 558.916 75.4729 559.007 75.6592C559.007 75.6592 559.007 75.702 559.007 75.7191C559.007 75.7363 559.007 75.8133 559.007 75.8561C559.335 76.8712 559.503 77.9316 559.503 78.9986V102.503C559.505 105.195 558.439 107.777 556.538 109.683C554.637 111.589 552.057 112.662 549.365 112.666H458.602C455.907 112.664 453.322 111.593 451.415 109.688C449.508 107.782 448.435 105.198 448.43 102.503V86.6535C448.452 84.3208 449.267 82.0651 450.742 80.2573L479.229 44.62C482.327 50.9242 486.897 56.3899 492.553 60.5549C500.019 66.0368 509.047 68.9781 518.309 68.9462H549.442C549.68 68.987 549.921 69.0014 550.161 68.989ZM552.525 67.7132L552.413 68.2526V67.9272L552.49 67.7132H552.525Z" fill="white" fill-opacity="0.6"/>
<path d="M442.015 0H351.252C346.746 0.0113391 342.428 1.81003 339.246 5.00135C336.065 8.19268 334.279 12.5159 334.281 17.0223V40.5436C334.284 42.8635 334.764 45.1581 335.69 47.285C336.617 49.4119 337.97 51.3257 339.667 52.9079L339.778 53.0107C341.543 54.5875 343.596 55.8086 345.824 56.6069L346.106 56.7268C347.767 57.2561 349.5 57.5248 351.244 57.5231H382.343C390.063 57.5209 397.587 59.9604 403.837 64.4927C410.087 69.025 414.744 75.4179 417.141 82.7569C417.329 83.355 417.677 83.8901 418.148 84.3038C418.619 84.7175 419.195 84.9939 419.812 85.103C419.904 85.1115 419.995 85.1115 420.086 85.103H420.42C420.934 85.1013 421.442 84.9878 421.907 84.7705C422.373 84.5532 422.786 84.2371 423.118 83.8443L455.261 43.6861C457.702 40.6528 459.031 36.876 459.029 32.9829V17.0223C459.03 14.7873 458.591 12.574 457.736 10.5088C456.882 8.44362 455.629 6.56702 454.049 4.98624C452.469 3.40546 450.593 2.15146 448.528 1.2959C446.463 0.440347 444.25 -2.83042e-07 442.015 0ZM341.071 25.0026V17.0223C341.069 14.3289 342.135 11.7445 344.036 9.83597C345.936 7.92742 348.516 6.85053 351.209 6.84146H442.015C444.711 6.84826 447.294 7.92388 449.197 9.83243C451.101 11.741 452.17 14.3266 452.17 17.0223V33C452.139 35.3308 451.332 37.5848 449.875 39.4048L421.354 75.0506C417.787 67.7351 412.234 61.5709 405.33 57.2629C398.425 52.955 390.447 50.6772 382.309 50.6902C381.957 50.6902 381.641 50.6902 381.247 50.6902C381.096 50.6794 380.944 50.6794 380.793 50.6902H351.209C350.227 50.6836 349.251 50.5424 348.307 50.2706C346.829 49.7582 345.467 48.9578 344.299 47.9159C343.282 46.9764 342.47 45.8363 341.914 44.5675C341.358 43.2988 341.072 41.9287 341.071 40.5436V25.8417C341.096 25.7205 341.111 25.5973 341.114 25.4735C341.116 25.3155 341.102 25.1577 341.071 25.0026Z" fill="white" fill-opacity="0.6"/>
<path d="M382.31 68.8174C375.61 68.8058 369.178 71.4427 364.414 76.1533C359.651 80.864 356.942 87.2665 356.879 93.9656V94.4451C356.907 99.5555 358.478 104.538 361.386 108.741C364.294 112.943 368.403 116.17 373.176 117.998C377.948 119.825 383.161 120.169 388.133 118.984C393.104 117.799 397.601 115.14 401.036 111.356C401.156 111.253 401.216 111.168 401.199 111.168L401.344 110.988L401.421 110.894L401.515 110.791L402.962 108.95C403.081 108.848 403.184 108.729 403.271 108.599C405.889 104.782 407.416 100.322 407.685 95.7011C407.954 91.08 406.956 86.4732 404.799 82.3778C402.642 78.2824 399.407 74.854 395.443 72.4627C391.48 70.0714 386.939 68.808 382.31 68.8088V68.8174ZM396.01 106.741C393.497 109.496 390.213 111.431 386.585 112.294C382.958 113.158 379.154 112.91 375.669 111.582C372.185 110.255 369.18 107.91 367.046 104.852C364.912 101.794 363.747 98.1652 363.703 94.4365V94.0341C363.828 89.1685 365.854 84.5453 369.347 81.1559C372.84 77.7666 377.522 75.8809 382.389 75.9033C387.256 75.9258 391.921 77.8544 395.383 81.2758C398.845 84.6971 400.828 89.3388 400.907 94.2053C400.908 97.9212 399.786 101.55 397.688 104.617L396.147 106.553L396.027 106.732L396.01 106.741Z" fill="white" fill-opacity="0.6"/>
<path d="M297.558 50.8614C301.795 50.8718 305.967 49.8235 309.696 47.8116C313.424 45.7998 316.591 42.8883 318.909 39.3415C321.226 35.7947 322.621 31.7251 322.966 27.5024C323.311 23.2796 322.596 19.0375 320.885 15.1615C319.174 11.2854 316.522 7.89828 313.17 5.3077C309.817 2.71711 305.87 1.0052 301.688 0.327469C297.506 -0.35026 293.22 0.0276686 289.221 1.42694C285.222 2.8262 281.636 5.20246 278.789 8.33984C278.712 8.4183 278.641 8.50122 278.575 8.58816C278.522 8.63827 278.473 8.69269 278.429 8.75085L278.318 8.87928L276.845 10.7373C276.696 10.8691 276.579 11.0331 276.502 11.2168C273.916 15.0386 272.419 19.4926 272.173 24.1007C271.927 28.7089 272.94 33.2971 275.105 37.3727C277.269 41.4483 280.503 44.8573 284.459 47.2337C288.415 49.6102 292.943 50.8643 297.558 50.8614ZM278.968 25.4735C278.962 21.7487 280.078 18.1082 282.171 15.0272L283.592 13.1691C283.746 13.055 283.877 12.9126 283.978 12.7495C286.935 9.58237 290.904 7.54611 295.202 6.99176C299.5 6.43741 303.856 7.39971 307.52 9.71279C311.184 12.0259 313.927 15.5448 315.275 19.663C316.623 23.7812 316.492 28.2406 314.904 32.2726C313.317 36.3046 310.373 39.6566 306.579 41.7507C302.786 43.8447 298.38 44.5498 294.123 43.7442C289.865 42.9387 286.022 40.673 283.256 37.3378C280.489 34.0025 278.973 29.8067 278.968 25.4735Z" fill="white" fill-opacity="0.6"/>
<path d="M344.823 74.0238C344.823 73.921 344.771 73.8268 344.746 73.7498C344.672 73.4958 344.574 73.2493 344.454 73.0134C344.386 72.8164 344.309 72.6366 344.18 72.3541C344.159 72.291 344.13 72.2307 344.095 72.1743C344.052 72.0544 343.992 71.9174 343.924 71.7461C343.836 71.5527 343.733 71.3665 343.615 71.1896C343.561 71.1056 343.516 71.0167 343.478 70.9241C343.433 70.8277 343.379 70.7359 343.316 70.6501C343.247 70.5131 343.162 70.3504 343.042 70.1364C342.933 69.9459 342.804 69.7679 342.656 69.6055C342.59 69.4774 342.509 69.3568 342.417 69.2459C342.314 69.0736 342.196 68.9103 342.066 68.7578C341.987 68.6289 341.895 68.5084 341.792 68.3982L341.466 68.0557L341.389 67.9615L341.064 67.6018L340.884 67.3878L340.31 66.8227C340.264 66.774 340.212 66.7308 340.156 66.6942C339.965 66.4791 339.753 66.284 339.522 66.112C339.456 66.0584 339.385 66.0124 339.308 65.975C338.705 65.4509 338.054 64.9837 337.365 64.5793L337.228 64.4851C337.036 64.3666 336.839 64.2579 336.637 64.1597L336.371 64.0227C336.125 63.8949 335.87 63.7834 335.609 63.6888C335.318 63.5209 335.011 63.3804 334.693 63.2692C334.483 63.1814 334.269 63.1042 334.051 63.038L333.666 62.9181L333.486 62.8668C333.245 62.7211 332.971 62.6414 332.69 62.6356L332.484 62.5756H332.364C332.231 62.531 332.093 62.505 331.953 62.4986C331.75 62.4502 331.544 62.413 331.337 62.3873C331.211 62.3556 331.081 62.3383 330.951 62.3359C330.816 62.3082 330.678 62.2911 330.54 62.2845C330.461 62.276 330.38 62.276 330.301 62.2845H330.172C330.017 62.2544 329.859 62.2401 329.701 62.2417C329.58 62.2158 329.457 62.2014 329.333 62.1989H299.176C299.052 62.1724 298.926 62.1581 298.799 62.1561H298.516C298.14 62.1561 297.84 62.1561 297.557 62.1561C289.834 62.1673 282.305 59.7348 276.049 55.2069C269.792 50.679 265.128 44.2877 262.725 36.948C262.539 36.3417 262.189 35.7989 261.712 35.3802C261.236 34.9614 260.653 34.683 260.028 34.5762C259.424 34.4637 258.8 34.5201 258.226 34.7392C257.652 34.9583 257.15 35.3315 256.774 35.8177L224.622 75.976C222.206 79.0093 220.899 82.776 220.914 86.6535V102.631C220.91 107.14 222.694 111.466 225.876 114.661C229.057 117.855 233.376 119.657 237.885 119.671H328.648C333.162 119.662 337.488 117.863 340.678 114.668C343.867 111.474 345.66 107.145 345.662 102.631V79.127C345.626 77.3947 345.343 75.6763 344.823 74.0238ZM329.247 68.989C329.481 69.0429 329.719 69.0744 329.958 69.0832L330.198 69.126H330.438C330.559 69.1694 330.686 69.1926 330.814 69.1945C330.952 69.2457 331.096 69.2802 331.243 69.2972H331.371C331.448 69.3262 331.529 69.3463 331.611 69.3572L332.047 69.5199C332.1 69.5421 332.154 69.5593 332.21 69.5712C332.352 69.6472 332.498 69.7157 332.647 69.7767L332.904 69.8795L333.229 70.0336L333.357 70.085C333.478 70.1901 333.614 70.2766 333.76 70.3419C334.19 70.5988 334.602 70.8849 334.993 71.1981L335.19 71.3437L335.344 71.5064C335.427 71.6045 335.525 71.6884 335.635 71.7547L335.849 71.9431C335.957 72.0953 336.077 72.2385 336.209 72.3712C336.289 72.4757 336.378 72.5731 336.474 72.6623C336.539 72.8002 336.632 72.9228 336.748 73.0219C336.806 73.1379 336.884 73.2424 336.979 73.3302C337.02 73.4157 337.066 73.4986 337.116 73.5785L337.356 73.9724V74.0152L337.485 74.3234C337.54 74.4448 337.609 74.5597 337.69 74.6659C337.733 74.8111 337.797 74.9495 337.878 75.077C337.93 75.2778 338.002 75.4729 338.093 75.6592C338.093 75.6592 338.093 75.702 338.093 75.7191C338.093 75.7363 338.093 75.8133 338.093 75.8561C338.421 76.8712 338.589 77.9316 338.589 78.9986V102.503C338.591 105.195 337.525 107.777 335.624 109.683C333.723 111.589 331.143 112.662 328.451 112.666H237.688C234.993 112.664 232.408 111.593 230.501 109.688C228.594 107.782 227.52 105.198 227.516 102.503V86.6535C227.538 84.3208 228.353 82.0651 229.828 80.2573L258.315 44.62C261.413 50.9242 265.983 56.3899 271.639 60.5549C279.105 66.0368 288.133 68.9781 297.395 68.9462H328.528C328.766 68.987 329.007 69.0014 329.247 68.989ZM331.611 67.7132L331.499 68.2526V67.9272L331.576 67.7132H331.611Z" fill="white" fill-opacity="0.6"/>
<path d="M221.101 0H130.338C125.832 0.0113391 121.514 1.81003 118.332 5.00135C115.151 8.19268 113.365 12.5159 113.367 17.0223V40.5436C113.37 42.8635 113.85 45.1581 114.776 47.285C115.703 49.4119 117.056 51.3257 118.753 52.9079L118.864 53.0107C120.629 54.5875 122.682 55.8086 124.909 56.6069L125.192 56.7268C126.853 57.2561 128.586 57.5248 130.33 57.5231H161.429C169.149 57.5209 176.673 59.9604 182.923 64.4927C189.173 69.025 193.83 75.4179 196.227 82.7569C196.415 83.355 196.763 83.8901 197.234 84.3038C197.705 84.7175 198.281 84.9939 198.898 85.103C198.99 85.1115 199.081 85.1115 199.172 85.103H199.506C200.02 85.1013 200.528 84.9878 200.993 84.7705C201.459 84.5532 201.872 84.2371 202.203 83.8443L234.347 43.6861C236.788 40.6528 238.117 36.876 238.115 32.9829V17.0223C238.116 14.7873 237.677 12.574 236.822 10.5088C235.968 8.44362 234.715 6.56702 233.135 4.98624C231.555 3.40546 229.679 2.15146 227.614 1.2959C225.549 0.440347 223.336 -2.83042e-07 221.101 0ZM120.157 25.0026V17.0223C120.155 14.3289 121.221 11.7445 123.122 9.83597C125.022 7.92742 127.602 6.85053 130.295 6.84146H221.101C223.797 6.84826 226.38 7.92388 228.283 9.83243C230.187 11.741 231.256 14.3266 231.256 17.0223V33C231.225 35.3308 230.418 37.5848 228.961 39.4048L200.44 75.0506C196.873 67.7351 191.32 61.5709 184.416 57.2629C177.511 52.955 169.533 50.6772 161.394 50.6902C161.043 50.6902 160.727 50.6902 160.333 50.6902C160.182 50.6794 160.03 50.6794 159.879 50.6902H130.295C129.313 50.6836 128.336 50.5424 127.393 50.2706C125.914 49.7582 124.552 48.9578 123.385 47.9159C122.368 46.9764 121.555 45.8363 121 44.5675C120.444 43.2988 120.157 41.9287 120.157 40.5436V25.8417C120.182 25.7205 120.197 25.5973 120.2 25.4735C120.202 25.3155 120.188 25.1577 120.157 25.0026Z" fill="white" fill-opacity="0.6"/>
<path d="M161.396 68.8174C154.696 68.8058 148.264 71.4427 143.5 76.1533C138.737 80.864 136.028 87.2665 135.965 93.9656V94.4451C135.993 99.5555 137.564 104.538 140.472 108.741C143.38 112.943 147.489 116.17 152.262 117.998C157.034 119.825 162.247 120.169 167.218 118.984C172.19 117.799 176.687 115.14 180.122 111.356C180.242 111.253 180.302 111.168 180.285 111.168L180.43 110.988L180.507 110.894L180.601 110.791L182.048 108.95C182.167 108.848 182.27 108.729 182.357 108.599C184.975 104.782 186.502 100.322 186.771 95.7011C187.04 91.08 186.042 86.4732 183.885 82.3778C181.727 78.2824 178.492 74.854 174.529 72.4627C170.566 70.0714 166.024 68.808 161.396 68.8088V68.8174ZM175.096 106.741C172.583 109.496 169.299 111.431 165.671 112.294C162.043 113.158 158.24 112.91 154.755 111.582C151.271 110.255 148.266 107.91 146.132 104.852C143.998 101.794 142.833 98.1652 142.789 94.4365V94.0341C142.914 89.1685 144.94 84.5453 148.433 81.1559C151.926 77.7666 156.608 75.8809 161.475 75.9033C166.342 75.9258 171.007 77.8544 174.469 81.2758C177.93 84.6971 179.914 89.3388 179.993 94.2053C179.994 97.9212 178.872 101.55 176.774 104.617L175.233 106.553L175.113 106.732L175.096 106.741Z" fill="white" fill-opacity="0.6"/>
<path d="M76.6437 50.8614C80.8805 50.8718 85.0528 49.8235 88.7815 47.8116C92.5102 45.7998 95.6773 42.8883 97.9948 39.3415C100.312 35.7947 101.707 31.7251 102.052 27.5024C102.397 23.2796 101.682 19.0375 99.9711 15.1615C98.2602 11.2854 95.6081 7.89828 92.2555 5.3077C88.9029 2.71711 84.9563 1.0052 80.774 0.327469C76.5917 -0.35026 72.3063 0.0276686 68.3072 1.42694C64.3081 2.8262 60.722 5.20246 57.8746 8.33984C57.7984 8.4183 57.7269 8.50122 57.6605 8.58816C57.6076 8.63827 57.5589 8.69269 57.515 8.75085L57.4037 8.87928L55.9309 10.7373C55.7818 10.8691 55.6647 11.0331 55.5884 11.2168C53.0019 15.0386 51.5051 19.4926 51.2589 24.1007C51.0126 28.7089 52.0262 33.2971 54.1908 37.3727C56.3553 41.4483 59.589 44.8573 63.5448 47.2337C67.5006 49.6102 72.029 50.8643 76.6437 50.8614ZM58.0544 25.4735C58.0476 21.7487 59.1636 18.1082 61.2568 15.0272L62.6782 13.1691C62.8321 13.055 62.9629 12.9126 63.0635 12.7495C66.0208 9.58237 69.9904 7.54611 74.2879 6.99176C78.5855 6.43741 82.9419 7.39971 86.6061 9.71279C90.2703 12.0259 93.0127 15.5448 94.3607 19.663C95.7087 23.7812 95.5777 28.2406 93.9904 32.2726C92.4031 36.3046 89.4589 39.6566 85.6653 41.7507C81.8717 43.8447 77.4664 44.5498 73.2088 43.7442C68.9511 42.9387 65.1079 40.673 62.3415 37.3378C59.5751 34.0025 58.059 29.8067 58.0544 25.4735Z" fill="white" fill-opacity="0.6"/>
<path d="M123.909 74.0238C123.909 73.921 123.857 73.8268 123.832 73.7498C123.757 73.4958 123.66 73.2493 123.54 73.0134C123.472 72.8164 123.395 72.6366 123.266 72.3541C123.245 72.291 123.216 72.2307 123.181 72.1743C123.138 72.0544 123.078 71.9174 123.01 71.7461C122.922 71.5527 122.819 71.3665 122.701 71.1896C122.647 71.1056 122.601 71.0167 122.564 70.9241C122.519 70.8277 122.465 70.7359 122.402 70.6501C122.333 70.5131 122.247 70.3504 122.128 70.1364C122.019 69.9459 121.89 69.7679 121.742 69.6055C121.675 69.4774 121.595 69.3568 121.503 69.2459C121.399 69.0736 121.282 68.9103 121.151 68.7578C121.073 68.6289 120.981 68.5084 120.877 68.3982L120.552 68.0557L120.475 67.9615L120.15 67.6018L119.97 67.3878L119.396 66.8227C119.35 66.774 119.298 66.7308 119.242 66.6942C119.051 66.4791 118.839 66.284 118.608 66.112C118.542 66.0584 118.471 66.0124 118.394 65.975C117.791 65.4509 117.14 64.9837 116.451 64.5793L116.314 64.4851C116.122 64.3666 115.925 64.2579 115.723 64.1597L115.457 64.0227C115.211 63.8949 114.956 63.7834 114.695 63.6888C114.404 63.5209 114.097 63.3804 113.779 63.2692C113.569 63.1814 113.355 63.1042 113.137 63.038L112.752 62.9181L112.572 62.8668C112.331 62.7211 112.057 62.6414 111.776 62.6356L111.57 62.5756H111.45C111.317 62.531 111.179 62.505 111.039 62.4986C110.836 62.4502 110.63 62.413 110.423 62.3873C110.297 62.3556 110.167 62.3383 110.037 62.3359C109.902 62.3082 109.764 62.2911 109.626 62.2845C109.547 62.276 109.466 62.276 109.387 62.2845H109.258C109.103 62.2544 108.945 62.2401 108.787 62.2417C108.666 62.2158 108.543 62.2014 108.419 62.1989H78.2617C78.1378 62.1724 78.0116 62.1581 77.885 62.1561H77.6024C77.2257 62.1561 76.926 62.1561 76.6434 62.1561C68.9202 62.1673 61.3914 59.7348 55.1348 55.2069C48.8781 50.679 44.2143 44.2877 41.811 36.948C41.6251 36.3417 41.2745 35.7989 40.7982 35.3802C40.322 34.9614 39.7389 34.683 39.1138 34.5762C38.5097 34.4637 37.8863 34.5201 37.3123 34.7392C36.7382 34.9583 36.2357 35.3315 35.8601 35.8177L3.70772 75.976C1.29241 79.0093 -0.0155239 82.776 0.000139057 86.6535V102.631C-0.00441737 107.14 1.77994 111.466 4.96163 114.661C8.14332 117.855 12.4624 119.657 16.9711 119.671H107.734C112.248 119.662 116.574 117.863 119.764 114.668C122.953 111.474 124.745 107.145 124.748 102.631V79.127C124.712 77.3947 124.429 75.6763 123.909 74.0238ZM108.333 68.989C108.567 69.0429 108.805 69.0744 109.044 69.0832L109.284 69.126H109.524C109.644 69.1694 109.772 69.1926 109.9 69.1945C110.038 69.2457 110.182 69.2802 110.328 69.2972H110.457C110.534 69.3262 110.615 69.3463 110.697 69.3572L111.133 69.5199C111.186 69.5421 111.24 69.5593 111.296 69.5712C111.438 69.6472 111.584 69.7157 111.733 69.7767L111.99 69.8795L112.315 70.0336L112.443 70.085C112.564 70.1901 112.7 70.2766 112.846 70.3419C113.276 70.5988 113.688 70.8849 114.079 71.1981L114.276 71.3437L114.43 71.5064C114.513 71.6045 114.611 71.6884 114.721 71.7547L114.935 71.9431C115.043 72.0953 115.163 72.2385 115.295 72.3712C115.375 72.4757 115.463 72.5731 115.56 72.6623C115.625 72.8002 115.718 72.9228 115.834 73.0219C115.892 73.1379 115.97 73.2424 116.065 73.3302C116.106 73.4157 116.152 73.4986 116.202 73.5785L116.442 73.9724V74.0152L116.571 74.3234C116.626 74.4448 116.695 74.5597 116.776 74.6659C116.819 74.8111 116.883 74.9495 116.964 75.077C117.016 75.2778 117.088 75.4729 117.178 75.6592C117.178 75.6592 117.178 75.702 117.178 75.7191C117.178 75.7363 117.178 75.8133 117.178 75.8561C117.507 76.8712 117.675 77.9316 117.675 78.9986V102.503C117.677 105.195 116.611 107.777 114.71 109.683C112.809 111.589 110.229 112.662 107.537 112.666H16.7741C14.0785 112.664 11.4937 111.593 9.58678 109.688C7.67984 107.782 6.60639 105.198 6.60186 102.503V86.6535C6.62406 84.3208 7.43937 82.0651 8.91374 80.2573L37.4013 44.62C40.4987 50.9242 45.0686 56.3899 50.7246 60.5549C58.1905 66.0368 67.2185 68.9781 76.4807 68.9462H107.614C107.852 68.987 108.093 69.0014 108.333 68.989ZM110.697 67.7132L110.585 68.2526V67.9272L110.662 67.7132H110.697Z" fill="white" fill-opacity="0.6"/>
<path d="M882.988 0H792.225C787.718 0.0113391 783.401 1.81003 780.219 5.00135C777.037 8.19268 775.252 12.5159 775.254 17.0223V40.5436C775.257 42.8635 775.737 45.1581 776.663 47.285C777.59 49.4119 778.943 51.3257 780.64 52.9079L780.751 53.0107C782.516 54.5875 784.568 55.8086 786.796 56.6069L787.079 56.7268C788.74 57.2561 790.473 57.5248 792.216 57.5231H823.315C831.036 57.5209 838.559 59.9604 844.81 64.4927C851.06 69.025 855.716 75.4179 858.114 82.7569C858.302 83.355 858.65 83.8901 859.121 84.3038C859.592 84.7175 860.168 84.9939 860.785 85.103C860.876 85.1115 860.968 85.1115 861.059 85.103H861.393C861.907 85.1013 862.414 84.9878 862.88 84.7705C863.346 84.5532 863.759 84.2371 864.09 83.8443L896.234 43.6861C898.675 40.6528 900.004 36.876 900.001 32.9829V17.0223C900.003 14.7873 899.563 12.574 898.709 10.5088C897.854 8.44362 896.601 6.56702 895.021 4.98624C893.441 3.40546 891.565 2.15146 889.501 1.2959C887.436 0.440347 885.223 -2.83042e-07 882.988 0ZM782.044 25.0026V17.0223C782.042 14.3289 783.108 11.7445 785.008 9.83597C786.909 7.92742 789.489 6.85053 792.182 6.84146H882.988C885.683 6.84826 888.266 7.92388 890.17 9.83243C892.074 11.741 893.143 14.3266 893.143 17.0223V33C893.112 35.3308 892.305 37.5848 890.848 39.4048L862.326 75.0506C858.76 67.7351 853.207 61.5709 846.302 57.2629C839.397 52.955 831.42 50.6772 823.281 50.6902C822.93 50.6902 822.613 50.6902 822.219 50.6902C822.068 50.6794 821.917 50.6794 821.766 50.6902H792.182C791.2 50.6836 790.223 50.5424 789.279 50.2706C787.801 49.7582 786.439 48.9578 785.272 47.9159C784.254 46.9764 783.442 45.8363 782.887 44.5675C782.331 43.2988 782.044 41.9287 782.044 40.5436V25.8417C782.069 25.7205 782.083 25.5973 782.087 25.4735C782.089 25.3155 782.075 25.1577 782.044 25.0026Z" fill="white" fill-opacity="0.6"/>
<path d="M823.278 68.8174C816.579 68.8058 810.147 71.4427 805.383 76.1533C800.619 80.864 797.911 87.2665 797.848 93.9656V94.4451C797.876 99.5555 799.447 104.538 802.355 108.741C805.263 112.943 809.372 116.17 814.144 117.998C818.917 119.825 824.13 120.169 829.101 118.984C834.073 117.799 838.57 115.14 842.005 111.356C842.125 111.253 842.184 111.168 842.167 111.168L842.313 110.988L842.39 110.894L842.484 110.791L843.931 108.95C844.05 108.848 844.153 108.729 844.239 108.599C846.858 104.782 848.384 100.322 848.654 95.7011C848.923 91.08 847.925 86.4732 845.768 82.3778C843.61 78.2824 840.375 74.854 836.412 72.4627C832.449 70.0714 827.907 68.808 823.278 68.8088V68.8174ZM836.978 106.741C834.465 109.496 831.181 111.431 827.554 112.294C823.926 113.158 820.123 112.91 816.638 111.582C813.153 110.255 810.149 107.91 808.014 104.852C805.88 101.794 804.716 98.1652 804.672 94.4365V94.0341C804.796 89.1685 806.822 84.5453 810.315 81.1559C813.809 77.7666 818.491 75.8809 823.358 75.9033C828.225 75.9258 832.89 77.8544 836.352 81.2758C839.813 84.6971 841.797 89.3388 841.876 94.2053C841.877 97.9212 840.755 101.55 838.657 104.617L837.115 106.553L836.996 106.732L836.978 106.741Z" fill="white" fill-opacity="0.6"/>
<path d="M738.526 50.8614C742.763 50.8718 746.936 49.8235 750.664 47.8116C754.393 45.7998 757.56 42.8883 759.878 39.3415C762.195 35.7947 763.59 31.7251 763.935 27.5024C764.28 23.2796 763.565 19.0375 761.854 15.1615C760.143 11.2854 757.491 7.89828 754.138 5.3077C750.786 2.71711 746.839 1.0052 742.657 0.327469C738.474 -0.35026 734.189 0.0276686 730.19 1.42694C726.191 2.8262 722.605 5.20246 719.757 8.33984C719.681 8.4183 719.61 8.50122 719.543 8.58816C719.49 8.63827 719.442 8.69269 719.398 8.75085L719.286 8.87928L717.814 10.7373C717.665 10.8691 717.547 11.0331 717.471 11.2168C714.885 15.0386 713.388 19.4926 713.142 24.1007C712.895 28.7089 713.909 33.2971 716.074 37.3727C718.238 41.4483 721.472 44.8573 725.428 47.2337C729.383 49.6102 733.912 50.8643 738.526 50.8614ZM719.937 25.4735C719.93 21.7487 721.046 18.1082 723.14 15.0272L724.561 13.1691C724.715 13.055 724.846 12.9126 724.946 12.7495C727.904 9.58237 731.873 7.54611 736.171 6.99176C740.468 6.43741 744.825 7.39971 748.489 9.71279C752.153 12.0259 754.896 15.5448 756.244 19.663C757.591 23.7812 757.461 28.2406 755.873 32.2726C754.286 36.3046 751.342 39.6566 747.548 41.7507C743.755 43.8447 739.349 44.5498 735.092 43.7442C730.834 42.9387 726.991 40.673 724.224 37.3378C721.458 34.0025 719.942 29.8067 719.937 25.4735Z" fill="white" fill-opacity="0.6"/>
<path d="M785.791 74.0238C785.791 73.921 785.74 73.8268 785.714 73.7498C785.64 73.4958 785.543 73.2493 785.423 73.0134C785.355 72.8164 785.278 72.6366 785.149 72.3541C785.128 72.291 785.099 72.2307 785.064 72.1743C785.021 72.0544 784.961 71.9174 784.892 71.7461C784.805 71.5527 784.702 71.3665 784.584 71.1896C784.53 71.1056 784.484 71.0167 784.447 70.9241C784.402 70.8277 784.347 70.7359 784.284 70.6501C784.216 70.5131 784.13 70.3504 784.01 70.1364C783.902 69.9459 783.773 69.7679 783.625 69.6055C783.558 69.4774 783.478 69.3568 783.385 69.2459C783.282 69.0736 783.165 68.9103 783.034 68.7578C782.955 68.6289 782.864 68.5084 782.76 68.3982L782.435 68.0557L782.358 67.9615L782.032 67.6018L781.853 67.3878L781.279 66.8227C781.233 66.774 781.181 66.7308 781.125 66.6942C780.934 66.4791 780.722 66.284 780.491 66.112C780.425 66.0584 780.353 66.0124 780.277 65.975C779.674 65.4509 779.023 64.9837 778.333 64.5793L778.196 64.4851C778.005 64.3666 777.808 64.2579 777.606 64.1597L777.34 64.0227C777.094 63.8949 776.839 63.7834 776.578 63.6888C776.286 63.5209 775.98 63.3804 775.662 63.2692C775.452 63.1814 775.238 63.1042 775.02 63.038L774.634 62.9181L774.455 62.8668C774.214 62.7211 773.939 62.6414 773.658 62.6356L773.453 62.5756H773.333C773.2 62.531 773.062 62.505 772.922 62.4986C772.719 62.4502 772.513 62.413 772.305 62.3873C772.179 62.3556 772.05 62.3383 771.92 62.3359C771.785 62.3082 771.647 62.2911 771.509 62.2845C771.429 62.276 771.349 62.276 771.269 62.2845H771.141C770.986 62.2544 770.828 62.2401 770.67 62.2417C770.549 62.2158 770.426 62.2014 770.302 62.1989H740.145C740.021 62.1724 739.894 62.1581 739.768 62.1561H739.485C739.108 62.1561 738.809 62.1561 738.526 62.1561C730.803 62.1673 723.274 59.7348 717.018 55.2069C710.761 50.679 706.097 44.2877 703.694 36.948C703.508 36.3417 703.157 35.7989 702.681 35.3802C702.205 34.9614 701.622 34.683 700.997 34.5762C700.393 34.4637 699.769 34.5201 699.195 34.7392C698.621 34.9583 698.118 35.3315 697.743 35.8177L665.591 75.976C663.175 79.0093 661.867 82.776 661.883 86.6535V102.631C661.878 107.14 663.663 111.466 666.844 114.661C670.026 117.855 674.345 119.657 678.854 119.671H769.617C774.131 119.662 778.457 117.863 781.646 114.668C784.836 111.474 786.628 107.145 786.631 102.631V79.127C786.595 77.3947 786.312 75.6763 785.791 74.0238ZM770.216 68.989C770.45 69.0429 770.688 69.0744 770.927 69.0832L771.167 69.126H771.406C771.527 69.1694 771.655 69.1926 771.783 69.1945C771.921 69.2457 772.065 69.2802 772.211 69.2972H772.34C772.417 69.3262 772.498 69.3463 772.579 69.3572L773.016 69.5199C773.069 69.5421 773.123 69.5593 773.179 69.5712C773.321 69.6472 773.467 69.7157 773.615 69.7767L773.872 69.8795L774.198 70.0336L774.326 70.085C774.447 70.1901 774.583 70.2766 774.729 70.3419C775.159 70.5988 775.571 70.8849 775.962 71.1981L776.159 71.3437L776.313 71.5064C776.396 71.6045 776.494 71.6884 776.604 71.7547L776.818 71.9431C776.926 72.0953 777.046 72.2385 777.178 72.3712C777.257 72.4757 777.346 72.5731 777.443 72.6623C777.508 72.8002 777.601 72.9228 777.717 73.0219C777.775 73.1379 777.853 73.2424 777.948 73.3302C777.989 73.4157 778.034 73.4986 778.085 73.5785L778.325 73.9724V74.0152L778.453 74.3234C778.509 74.4448 778.578 74.5597 778.659 74.6659C778.702 74.8111 778.765 74.9495 778.847 75.077C778.899 75.2778 778.97 75.4729 779.061 75.6592C779.061 75.6592 779.061 75.702 779.061 75.7191C779.061 75.7363 779.061 75.8133 779.061 75.8561C779.39 76.8712 779.558 77.9316 779.558 78.9986V102.503C779.56 105.195 778.494 107.777 776.593 109.683C774.692 111.589 772.112 112.662 769.42 112.666H678.657C675.961 112.664 673.377 111.593 671.47 109.688C669.563 107.782 668.489 105.198 668.485 102.503V86.6535C668.507 84.3208 669.322 82.0651 670.797 80.2573L699.284 44.62C702.382 50.9242 706.951 56.3899 712.607 60.5549C720.073 66.0368 729.101 68.9781 738.364 68.9462H769.497C769.734 68.987 769.976 69.0014 770.216 68.989ZM772.579 67.7132L772.468 68.2526V67.9272L772.545 67.7132H772.579Z" fill="white" fill-opacity="0.6"/>
</svg>
