<svg width="670" height="120" viewBox="0 0 670 120" fill="none" xmlns="http://www.w3.org/2000/svg">
<path d="M431.929 0H341.166C336.66 0.0113391 332.342 1.81003 329.16 5.00135C325.979 8.19268 324.193 12.5159 324.195 17.0223V40.5436C324.198 42.8635 324.678 45.1581 325.604 47.285C326.531 49.4119 327.884 51.3257 329.581 52.9079L329.692 53.0107C331.457 54.5875 333.51 55.8086 335.738 56.6069L336.02 56.7268C337.681 57.2561 339.414 57.5248 341.158 57.5231H372.257C379.977 57.5209 387.501 59.9604 393.751 64.4927C400.001 69.025 404.658 75.4179 407.055 82.7569C407.243 83.355 407.591 83.8901 408.062 84.3038C408.534 84.7175 409.109 84.9939 409.727 85.103C409.818 85.1115 409.909 85.1115 410 85.103H410.334C410.848 85.1013 411.356 84.9878 411.822 84.7705C412.287 84.5532 412.7 84.2371 413.032 83.8443L445.175 43.6861C447.616 40.6528 448.945 36.876 448.943 32.9829V17.0223C448.944 14.7873 448.505 12.574 447.65 10.5088C446.796 8.44362 445.543 6.56702 443.963 4.98624C442.383 3.40546 440.507 2.15146 438.442 1.2959C436.377 0.440347 434.164 -2.83042e-07 431.929 0ZM330.985 25.0026V17.0223C330.983 14.3289 332.049 11.7445 333.95 9.83597C335.85 7.92742 338.43 6.85053 341.123 6.84146H431.929C434.625 6.84826 437.208 7.92388 439.112 9.83243C441.015 11.741 442.084 14.3266 442.084 17.0223V33C442.054 35.3308 441.246 37.5848 439.79 39.4048L411.268 75.0506C407.702 67.7351 402.149 61.5709 395.244 57.2629C388.339 52.955 380.361 50.6772 372.223 50.6902C371.872 50.6902 371.555 50.6902 371.161 50.6902C371.01 50.6794 370.858 50.6794 370.707 50.6902H341.123C340.141 50.6836 339.165 50.5424 338.221 50.2706C336.743 49.7582 335.381 48.9578 334.213 47.9159C333.196 46.9764 332.384 45.8363 331.828 44.5675C331.272 43.2988 330.986 41.9287 330.985 40.5436V25.8417C331.01 25.7205 331.025 25.5973 331.028 25.4735C331.03 25.3155 331.016 25.1577 330.985 25.0026Z" fill="white" fill-opacity="0.6"/>
<path d="M372.224 68.8172C365.524 68.8056 359.092 71.4424 354.328 76.1531C349.565 80.8637 346.856 87.2662 346.793 93.9653V94.4448C346.821 99.5553 348.392 104.538 351.3 108.741C354.208 112.943 358.317 116.17 363.09 117.997C367.862 119.825 373.075 120.169 378.047 118.984C383.018 117.799 387.515 115.14 390.95 111.356C391.07 111.253 391.13 111.167 391.113 111.167L391.258 110.988L391.335 110.893L391.429 110.791L392.877 108.95C392.995 108.847 393.099 108.729 393.185 108.599C395.803 104.782 397.33 100.322 397.599 95.7009C397.868 91.0798 396.87 86.4729 394.713 82.3775C392.556 78.2821 389.321 74.8537 385.357 72.4624C381.394 70.0711 376.853 68.8077 372.224 68.8086V68.8172ZM385.924 106.741C383.411 109.496 380.127 111.43 376.499 112.294C372.872 113.157 369.068 112.909 365.583 111.582C362.099 110.255 359.094 107.91 356.96 104.852C354.826 101.794 353.661 98.165 353.617 94.4363V94.0338C353.742 89.1682 355.768 84.545 359.261 81.1557C362.754 77.7663 367.436 75.8807 372.303 75.9031C377.17 75.9255 381.835 77.8542 385.297 81.2755C388.759 84.6969 390.742 89.3385 390.822 94.2051C390.822 97.9209 389.7 101.55 387.602 104.617L386.061 106.552L385.941 106.732L385.924 106.741Z" fill="white" fill-opacity="0.6"/>
<path d="M287.47 50.8614C291.707 50.8718 295.879 49.8235 299.608 47.8116C303.336 45.7998 306.503 42.8883 308.821 39.3415C311.139 35.7947 312.533 31.7251 312.878 27.5024C313.224 23.2796 312.508 19.0375 310.797 15.1615C309.086 11.2854 306.434 7.89829 303.082 5.3077C299.729 2.71711 295.782 1.0052 291.6 0.327469C287.418 -0.35026 283.133 0.0276686 279.133 1.42694C275.134 2.8262 271.548 5.20246 268.701 8.33984C268.625 8.4183 268.553 8.50123 268.487 8.58816C268.434 8.63827 268.385 8.69269 268.341 8.75085L268.23 8.87928L266.757 10.7373C266.608 10.8691 266.491 11.0331 266.415 11.2168C263.828 15.0386 262.331 19.4926 262.085 24.1008C261.839 28.7089 262.852 33.2971 265.017 37.3727C267.181 41.4483 270.415 44.8573 274.371 47.2337C278.327 49.6102 282.855 50.8643 287.47 50.8614ZM268.881 25.4735C268.874 21.7487 269.99 18.1082 272.083 15.0272L273.504 13.1691C273.658 13.055 273.789 12.9126 273.89 12.7495C276.847 9.58237 280.817 7.54611 285.114 6.99176C289.412 6.43742 293.768 7.39971 297.432 9.71279C301.096 12.0259 303.839 15.5448 305.187 19.663C306.535 23.7812 306.404 28.2406 304.817 32.2726C303.229 36.3046 300.285 39.6566 296.492 41.7507C292.698 43.8448 288.293 44.5498 284.035 43.7442C279.777 42.9387 275.934 40.673 273.168 37.3378C270.401 34.0025 268.885 29.8067 268.881 25.4735Z" fill="white" fill-opacity="0.6"/>
<path d="M334.737 74.0235C334.737 73.9208 334.685 73.8266 334.66 73.7495C334.586 73.4956 334.488 73.2491 334.369 73.0131C334.3 72.8162 334.223 72.6364 334.095 72.3538C334.073 72.2908 334.044 72.2304 334.009 72.174C333.966 72.0541 333.906 71.9171 333.838 71.7459C333.75 71.5524 333.647 71.3663 333.529 71.1893C333.475 71.1054 333.43 71.0165 333.392 70.9239C333.347 70.8274 333.293 70.7357 333.23 70.6499C333.161 70.5129 333.076 70.3502 332.956 70.1361C332.847 69.9456 332.718 69.7676 332.57 69.6053C332.504 69.4772 332.423 69.3566 332.331 69.2456C332.228 69.0733 332.11 68.9101 331.98 68.7576C331.901 68.6287 331.809 68.5082 331.706 68.3979L331.38 68.0554L331.303 67.9612L330.978 67.6016L330.798 67.3875L330.224 66.8224C330.178 66.7737 330.126 66.7306 330.07 66.694C329.879 66.4789 329.667 66.2838 329.437 66.1117C329.371 66.0582 329.299 66.0122 329.222 65.9747C328.619 65.4507 327.968 64.9835 327.279 64.579L327.142 64.4849C326.951 64.3663 326.753 64.2577 326.551 64.1595L326.286 64.0225C326.039 63.8947 325.785 63.7831 325.523 63.6885C325.232 63.5207 324.925 63.3802 324.607 63.269C324.397 63.1811 324.183 63.104 323.965 63.0378L323.58 62.9179L323.4 62.8665C323.159 62.7209 322.885 62.6411 322.604 62.6353L322.398 62.5754H322.278C322.146 62.5307 322.007 62.5048 321.867 62.4983C321.664 62.45 321.458 62.4128 321.251 62.387C321.125 62.3553 320.995 62.3381 320.865 62.3357C320.73 62.308 320.593 62.2908 320.454 62.2843C320.375 62.2758 320.294 62.2758 320.215 62.2843H320.086C319.931 62.2542 319.773 62.2399 319.615 62.2415C319.494 62.2155 319.371 62.2012 319.247 62.1986H289.09C288.966 62.1722 288.84 62.1579 288.713 62.1558H288.431C288.054 62.1558 287.754 62.1558 287.472 62.1558C279.748 62.1671 272.22 59.7346 265.963 55.2067C259.706 50.6787 255.042 44.2875 252.639 36.9477C252.453 36.3414 252.103 35.7987 251.626 35.3799C251.15 34.9611 250.567 34.6828 249.942 34.5759C249.338 34.4635 248.714 34.5199 248.14 34.739C247.566 34.958 247.064 35.3312 246.688 35.8175L214.536 75.9758C212.121 79.0091 210.813 82.7758 210.828 86.6533V102.631C210.824 107.14 212.608 111.466 215.79 114.66C218.971 117.855 223.291 119.657 227.799 119.67H318.562C323.076 119.661 327.402 117.862 330.592 114.668C333.781 111.474 335.574 107.145 335.576 102.631V79.1268C335.54 77.3945 335.257 75.6761 334.737 74.0235ZM319.161 68.9888C319.395 69.0426 319.633 69.0742 319.872 69.0829L320.112 69.1257H320.352C320.473 69.1692 320.6 69.1924 320.728 69.1943C320.867 69.2455 321.01 69.28 321.157 69.297H321.285C321.362 69.326 321.443 69.3461 321.525 69.3569L321.961 69.5196C322.014 69.5418 322.068 69.559 322.124 69.571C322.266 69.6469 322.412 69.7155 322.561 69.7765L322.818 69.8792L323.143 70.0334L323.272 70.0848C323.392 70.1898 323.528 70.2764 323.674 70.3416C324.104 70.5986 324.516 70.8847 324.907 71.1979L325.104 71.3435L325.258 71.5061C325.341 71.6043 325.439 71.6882 325.549 71.7544L325.763 71.9428C325.871 72.0951 325.991 72.2383 326.123 72.3709C326.203 72.4754 326.292 72.5728 326.388 72.6621C326.453 72.7999 326.547 72.9225 326.662 73.0217C326.72 73.1377 326.798 73.2422 326.893 73.3299C326.934 73.4155 326.98 73.4984 327.03 73.5783L327.27 73.9721V74.015L327.399 74.3232C327.454 74.4446 327.523 74.5594 327.604 74.6657C327.647 74.8109 327.711 74.9493 327.793 75.0767C327.844 75.2775 327.916 75.4726 328.007 75.659C328.007 75.659 328.007 75.7018 328.007 75.7189C328.007 75.736 328.007 75.8131 328.007 75.8559C328.335 76.871 328.503 77.9313 328.503 78.9983V102.503C328.505 105.194 327.439 107.777 325.538 109.683C323.637 111.589 321.057 112.662 318.365 112.666H227.602C224.907 112.664 222.322 111.593 220.415 109.687C218.508 107.782 217.435 105.198 217.43 102.503V86.6533C217.452 84.3206 218.267 82.0648 219.742 80.257L248.229 44.6198C251.327 50.924 255.897 56.3897 261.553 60.5547C269.019 66.0365 278.047 68.9778 287.309 68.9459H318.442C318.68 68.9868 318.921 69.0012 319.161 68.9888ZM321.525 67.7129L321.413 68.2524V67.927L321.49 67.7129H321.525Z" fill="white" fill-opacity="0.6"/>
<path d="M211.015 0H120.252C115.746 0.0113391 111.428 1.81003 108.246 5.00135C105.065 8.19268 103.279 12.5159 103.281 17.0223V40.5436C103.284 42.8635 103.764 45.1581 104.69 47.285C105.617 49.4119 106.97 51.3257 108.667 52.9079L108.778 53.0107C110.543 54.5875 112.596 55.8086 114.824 56.6069L115.106 56.7268C116.767 57.2561 118.5 57.5248 120.244 57.5231H151.343C159.063 57.5209 166.587 59.9604 172.837 64.4927C179.087 69.025 183.744 75.4179 186.141 82.7569C186.329 83.355 186.677 83.8901 187.148 84.3038C187.619 84.7175 188.195 84.9939 188.812 85.103C188.904 85.1115 188.995 85.1115 189.086 85.103H189.42C189.934 85.1013 190.442 84.9878 190.907 84.7705C191.373 84.5532 191.786 84.2371 192.118 83.8443L224.261 43.6861C226.702 40.6528 228.031 36.876 228.029 32.9829V17.0223C228.03 14.7873 227.591 12.574 226.736 10.5088C225.882 8.44362 224.629 6.56702 223.049 4.98624C221.469 3.40546 219.593 2.15146 217.528 1.2959C215.463 0.440347 213.25 -2.83042e-07 211.015 0ZM110.071 25.0026V17.0223C110.069 14.3289 111.135 11.7445 113.036 9.83597C114.936 7.92742 117.516 6.85053 120.209 6.84146H211.015C213.711 6.84826 216.294 7.92388 218.197 9.83243C220.101 11.741 221.17 14.3266 221.17 17.0223V33C221.139 35.3308 220.332 37.5848 218.875 39.4048L190.354 75.0506C186.787 67.7351 181.234 61.5709 174.33 57.2629C167.425 52.955 159.447 50.6772 151.309 50.6902C150.957 50.6902 150.641 50.6902 150.247 50.6902C150.096 50.6794 149.944 50.6794 149.793 50.6902H120.209C119.227 50.6836 118.251 50.5424 117.307 50.2706C115.829 49.7582 114.467 48.9578 113.299 47.9159C112.282 46.9764 111.47 45.8363 110.914 44.5675C110.358 43.2988 110.072 41.9287 110.071 40.5436V25.8417C110.096 25.7205 110.111 25.5973 110.114 25.4735C110.116 25.3155 110.102 25.1577 110.071 25.0026Z" fill="white" fill-opacity="0.6"/>
<path d="M151.31 68.8172C144.61 68.8056 138.178 71.4424 133.414 76.1531C128.651 80.8637 125.942 87.2662 125.879 93.9653V94.4448C125.907 99.5553 127.478 104.538 130.386 108.741C133.294 112.943 137.403 116.17 142.176 117.997C146.948 119.825 152.161 120.169 157.133 118.984C162.104 117.799 166.601 115.14 170.036 111.356C170.156 111.253 170.216 111.167 170.199 111.167L170.344 110.988L170.421 110.893L170.515 110.791L171.962 108.95C172.081 108.847 172.184 108.729 172.271 108.599C174.889 104.782 176.416 100.322 176.685 95.7009C176.954 91.0798 175.956 86.4729 173.799 82.3775C171.642 78.2821 168.407 74.8537 164.443 72.4624C160.48 70.0711 155.939 68.8077 151.31 68.8086V68.8172ZM165.01 106.741C162.497 109.496 159.213 111.43 155.585 112.294C151.958 113.157 148.154 112.909 144.669 111.582C141.185 110.255 138.18 107.91 136.046 104.852C133.912 101.794 132.747 98.165 132.703 94.4363V94.0338C132.828 89.1682 134.854 84.545 138.347 81.1557C141.84 77.7663 146.522 75.8807 151.389 75.9031C156.256 75.9255 160.921 77.8542 164.383 81.2755C167.845 84.6969 169.828 89.3385 169.907 94.2051C169.908 97.9209 168.786 101.55 166.688 104.617L165.147 106.552L165.027 106.732L165.01 106.741Z" fill="white" fill-opacity="0.6"/>
<path d="M66.5578 50.8614C70.7946 50.8718 74.9669 49.8235 78.6956 47.8116C82.4243 45.7998 85.5913 42.8883 87.9089 39.3415C90.2265 35.7947 91.6212 31.7251 91.9663 27.5024C92.3115 23.2796 91.5961 19.0375 89.8852 15.1615C88.1743 11.2854 85.5221 7.89829 82.1696 5.3077C78.817 2.71711 74.8703 1.0052 70.688 0.327469C66.5058 -0.35026 62.2204 0.0276686 58.2213 1.42694C54.2222 2.8262 50.6361 5.20246 47.7887 8.33984C47.7125 8.4183 47.641 8.50123 47.5746 8.58816C47.5217 8.63827 47.473 8.69269 47.429 8.75085L47.3177 8.87928L45.845 10.7373C45.6959 10.8691 45.5787 11.0331 45.5025 11.2168C42.9159 15.0386 41.4192 19.4926 41.1729 24.1008C40.9267 28.7089 41.9403 33.2971 44.1048 37.3727C46.2694 41.4483 49.5031 44.8573 53.4589 47.2337C57.4147 49.6102 61.943 50.8643 66.5578 50.8614ZM47.9685 25.4735C47.9617 21.7487 49.0777 18.1082 51.1709 15.0272L52.5923 13.1691C52.7462 13.055 52.877 12.9126 52.9776 12.7495C55.9348 9.58237 59.9044 7.54611 64.202 6.99176C68.4996 6.43742 72.8559 7.39971 76.5201 9.71279C80.1843 12.0259 82.9268 15.5448 84.2748 19.663C85.6227 23.7812 85.4918 28.2406 83.9045 32.2726C82.3172 36.3046 79.373 39.6566 75.5794 41.7507C71.7858 43.8448 67.3805 44.5498 63.1228 43.7442C58.8652 42.9387 55.0219 40.673 52.2556 37.3378C49.4892 34.0025 47.9731 29.8067 47.9685 25.4735Z" fill="white" fill-opacity="0.6"/>
<path d="M113.823 74.0235C113.823 73.9208 113.771 73.8266 113.746 73.7495C113.672 73.4956 113.574 73.2491 113.454 73.0131C113.386 72.8162 113.309 72.6364 113.18 72.3538C113.159 72.2908 113.13 72.2304 113.095 72.174C113.052 72.0541 112.992 71.9171 112.924 71.7459C112.836 71.5524 112.733 71.3663 112.615 71.1893C112.561 71.1054 112.516 71.0165 112.478 70.9239C112.433 70.8274 112.379 70.7357 112.316 70.6499C112.247 70.5129 112.162 70.3502 112.042 70.1361C111.933 69.9456 111.804 69.7676 111.656 69.6053C111.59 69.4772 111.509 69.3566 111.417 69.2456C111.314 69.0733 111.196 68.9101 111.066 68.7576C110.987 68.6287 110.895 68.5082 110.792 68.3979L110.466 68.0554L110.389 67.9612L110.064 67.6016L109.884 67.3875L109.31 66.8224C109.264 66.7737 109.212 66.7306 109.156 66.694C108.965 66.4789 108.753 66.2838 108.522 66.1117C108.456 66.0582 108.385 66.0122 108.308 65.9747C107.705 65.4507 107.054 64.9835 106.365 64.579L106.228 64.4849C106.036 64.3663 105.839 64.2577 105.637 64.1595L105.371 64.0225C105.125 63.8947 104.87 63.7831 104.609 63.6885C104.318 63.5207 104.011 63.3802 103.693 63.269C103.483 63.1811 103.269 63.104 103.051 63.0378L102.666 62.9179L102.486 62.8665C102.245 62.7209 101.971 62.6411 101.69 62.6353L101.484 62.5754H101.364C101.231 62.5307 101.093 62.5048 100.953 62.4983C100.75 62.45 100.544 62.4128 100.337 62.387C100.211 62.3553 100.081 62.3381 99.9514 62.3357C99.8159 62.308 99.6785 62.2908 99.5404 62.2843C99.4607 62.2758 99.3803 62.2758 99.3006 62.2843H99.1722C99.017 62.2542 98.8592 62.2399 98.7012 62.2415C98.5801 62.2155 98.4569 62.2012 98.333 62.1986H68.1758C68.0519 62.1722 67.9257 62.1579 67.799 62.1558H67.5165C67.1397 62.1558 66.84 62.1558 66.5575 62.1558C58.8343 62.1671 51.3055 59.7346 45.0488 55.2067C38.7922 50.6787 34.1284 44.2875 31.7251 36.9477C31.5391 36.3414 31.1885 35.7987 30.7123 35.3799C30.2361 34.9611 29.653 34.6828 29.0279 34.5759C28.4238 34.4635 27.8004 34.5199 27.2263 34.739C26.6523 34.958 26.1497 35.3312 25.7741 35.8175L-6.37822 75.9758C-8.79353 79.0091 -10.1015 82.7758 -10.0858 86.6533V102.631C-10.0904 107.14 -8.306 111.466 -5.12431 114.66C-1.94261 117.855 2.3765 119.657 6.88516 119.67H97.648C102.162 119.661 106.488 117.862 109.678 114.668C112.867 111.474 114.66 107.145 114.662 102.631V79.1268C114.626 77.3945 114.343 75.6761 113.823 74.0235ZM98.2474 68.9888C98.4808 69.0426 98.7188 69.0742 98.9581 69.0829L99.1979 69.1257H99.4376C99.5586 69.1692 99.6859 69.1924 99.8144 69.1943C99.9525 69.2455 100.096 69.28 100.243 69.297H100.371C100.448 69.326 100.529 69.3461 100.611 69.3569L101.047 69.5196C101.1 69.5418 101.154 69.559 101.21 69.571C101.352 69.6469 101.498 69.7155 101.647 69.7765L101.904 69.8792L102.229 70.0334L102.357 70.0848C102.478 70.1898 102.614 70.2764 102.76 70.3416C103.19 70.5986 103.602 70.8847 103.993 71.1979L104.19 71.3435L104.344 71.5061C104.427 71.6043 104.525 71.6882 104.635 71.7544L104.849 71.9428C104.957 72.0951 105.077 72.2383 105.209 72.3709C105.289 72.4754 105.378 72.5728 105.474 72.6621C105.539 72.7999 105.632 72.9225 105.748 73.0217C105.806 73.1377 105.884 73.2422 105.979 73.3299C106.02 73.4155 106.066 73.4984 106.116 73.5783L106.356 73.9721V74.015L106.485 74.3232C106.54 74.4446 106.609 74.5594 106.69 74.6657C106.733 74.8109 106.797 74.9493 106.878 75.0767C106.93 75.2775 107.002 75.4726 107.093 75.659C107.093 75.659 107.093 75.7018 107.093 75.7189C107.093 75.736 107.093 75.8131 107.093 75.8559C107.421 76.871 107.589 77.9313 107.589 78.9983V102.503C107.591 105.194 106.525 107.777 104.624 109.683C102.723 111.589 100.143 112.662 97.4511 112.666H6.68821C3.99253 112.664 1.40778 111.593 -0.499156 109.687C-2.4061 107.782 -3.47954 105.198 -3.48408 102.503V86.6533C-3.46188 84.3206 -2.64656 82.0648 -1.17219 80.257L27.3154 44.6198C30.4128 50.924 34.9827 56.3897 40.6387 60.5547C48.1045 66.0365 57.1326 68.9778 66.3948 68.9459H97.5282C97.7656 68.9868 98.0068 69.0012 98.2474 68.9888ZM100.611 67.7129L100.499 68.2524V67.927L100.576 67.7129H100.611Z" fill="white" fill-opacity="0.6"/>
<path d="M-9.89897 0H-100.662C-105.168 0.0113391 -109.486 1.81003 -112.668 5.00135C-115.849 8.19268 -117.635 12.5159 -117.633 17.0223V40.5436C-117.63 42.8635 -117.15 45.1581 -116.224 47.285C-115.297 49.4119 -113.944 51.3257 -112.247 52.9079L-112.136 53.0107C-110.371 54.5875 -108.318 55.8086 -106.091 56.6069L-105.808 56.7268C-104.147 57.2561 -102.414 57.5248 -100.67 57.5231H-69.5713C-61.8508 57.5209 -54.3273 59.9604 -48.0771 64.4927C-41.8269 69.025 -37.1702 75.4179 -34.7731 82.7569C-34.5852 83.355 -34.2367 83.8901 -33.7657 84.3038C-33.2946 84.7175 -32.719 84.9939 -32.1016 85.103C-32.0105 85.1115 -31.9188 85.1115 -31.8276 85.103H-31.4937C-30.9797 85.1013 -30.4723 84.9878 -30.0066 84.7705C-29.5409 84.5532 -29.128 84.2371 -28.7965 83.8443L3.34727 43.6861C5.7878 40.6528 7.11723 36.876 7.11478 32.9829V17.0223C7.11591 14.7873 6.67666 12.574 5.82214 10.5088C4.96762 8.44362 3.71458 6.56702 2.13459 4.98624C0.554604 3.40546 -1.32135 2.15146 -3.38611 1.2959C-5.45087 0.440347 -7.66398 -2.83042e-07 -9.89897 0ZM-110.843 25.0026V17.0223C-110.845 14.3289 -109.779 11.7445 -107.878 9.83597C-105.978 7.92742 -103.398 6.85053 -100.705 6.84146H-9.89897C-7.2033 6.84826 -4.62035 7.92388 -2.71661 9.83243C-0.812889 11.741 0.256187 14.3266 0.25618 17.0223V33C0.225418 35.3308 -0.58213 37.5848 -2.03857 39.4048L-30.5604 75.0506C-34.1266 67.7351 -39.6796 61.5709 -46.5844 57.2629C-53.4893 52.955 -61.4671 50.6772 -69.6055 50.6902C-69.9566 50.6902 -70.2734 50.6902 -70.6673 50.6902C-70.8184 50.6794 -70.97 50.6794 -71.1211 50.6902H-100.705C-101.687 50.6836 -102.664 50.5424 -103.607 50.2706C-105.086 49.7582 -106.448 48.9578 -107.615 47.9159C-108.632 46.9764 -109.445 45.8363 -110 44.5675C-110.556 43.2988 -110.843 41.9287 -110.843 40.5436V25.8417C-110.818 25.7205 -110.803 25.5973 -110.8 25.4735C-110.798 25.3155 -110.812 25.1577 -110.843 25.0026Z" fill="white" fill-opacity="0.6"/>
<path d="M651.988 0H561.225C556.718 0.0113391 552.401 1.81003 549.219 5.00135C546.037 8.19268 544.252 12.5159 544.254 17.0223V40.5436C544.257 42.8635 544.737 45.1581 545.663 47.285C546.59 49.4119 547.943 51.3257 549.64 52.9079L549.751 53.0107C551.516 54.5875 553.568 55.8086 555.796 56.6069L556.079 56.7268C557.74 57.2561 559.473 57.5248 561.216 57.5231H592.315C600.036 57.5209 607.559 59.9604 613.81 64.4927C620.06 69.025 624.716 75.4179 627.114 82.7569C627.302 83.355 627.65 83.8901 628.121 84.3038C628.592 84.7175 629.168 84.9939 629.785 85.103C629.876 85.1115 629.968 85.1115 630.059 85.103H630.393C630.907 85.1013 631.414 84.9878 631.88 84.7705C632.346 84.5532 632.759 84.2371 633.09 83.8443L665.234 43.6861C667.675 40.6528 669.004 36.876 669.001 32.9829V17.0223C669.003 14.7873 668.563 12.574 667.709 10.5088C666.854 8.44362 665.601 6.56702 664.021 4.98624C662.441 3.40546 660.565 2.15146 658.501 1.2959C656.436 0.440347 654.223 -2.83042e-07 651.988 0ZM551.044 25.0026V17.0223C551.042 14.3289 552.108 11.7445 554.008 9.83597C555.909 7.92742 558.489 6.85053 561.182 6.84146H651.988C654.683 6.84826 657.266 7.92388 659.17 9.83243C661.074 11.741 662.143 14.3266 662.143 17.0223V33C662.112 35.3308 661.305 37.5848 659.848 39.4048L631.326 75.0506C627.76 67.7351 622.207 61.5709 615.302 57.2629C608.397 52.955 600.42 50.6772 592.281 50.6902C591.93 50.6902 591.613 50.6902 591.219 50.6902C591.068 50.6794 590.917 50.6794 590.766 50.6902H561.182C560.2 50.6836 559.223 50.5424 558.279 50.2706C556.801 49.7582 555.439 48.9578 554.272 47.9159C553.254 46.9764 552.442 45.8363 551.887 44.5675C551.331 43.2988 551.044 41.9287 551.044 40.5436V25.8417C551.069 25.7205 551.083 25.5973 551.087 25.4735C551.089 25.3155 551.075 25.1577 551.044 25.0026Z" fill="white" fill-opacity="0.6"/>
<path d="M592.278 68.8172C585.579 68.8056 579.147 71.4424 574.383 76.1531C569.619 80.8637 566.911 87.2662 566.848 93.9653V94.4448C566.876 99.5553 568.447 104.538 571.355 108.741C574.263 112.943 578.372 116.17 583.144 117.997C587.917 119.825 593.13 120.169 598.101 118.984C603.073 117.799 607.57 115.14 611.005 111.356C611.125 111.253 611.184 111.167 611.167 111.167L611.313 110.988L611.39 110.893L611.484 110.791L612.931 108.95C613.05 108.847 613.153 108.729 613.239 108.599C615.858 104.782 617.384 100.322 617.654 95.7009C617.923 91.0798 616.925 86.4729 614.768 82.3775C612.61 78.2821 609.375 74.8537 605.412 72.4624C601.449 70.0711 596.907 68.8077 592.278 68.8086V68.8172ZM605.978 106.741C603.465 109.496 600.181 111.43 596.554 112.294C592.926 113.157 589.123 112.909 585.638 111.582C582.153 110.255 579.149 107.91 577.014 104.852C574.88 101.794 573.716 98.165 573.672 94.4363V94.0338C573.796 89.1682 575.822 84.545 579.315 81.1557C582.809 77.7663 587.491 75.8807 592.358 75.9031C597.225 75.9255 601.89 77.8542 605.352 81.2755C608.813 84.6969 610.797 89.3385 610.876 94.2051C610.877 97.9209 609.755 101.55 607.657 104.617L606.115 106.552L605.996 106.732L605.978 106.741Z" fill="white" fill-opacity="0.6"/>
<path d="M507.527 50.8614C511.763 50.8718 515.936 49.8235 519.664 47.8116C523.393 45.7998 526.56 42.8883 528.878 39.3415C531.195 35.7947 532.59 31.7251 532.935 27.5024C533.28 23.2796 532.565 19.0375 530.854 15.1615C529.143 11.2854 526.491 7.89829 523.138 5.3077C519.786 2.71711 515.839 1.0052 511.657 0.327469C507.475 -0.35026 503.189 0.0276686 499.19 1.42694C495.191 2.8262 491.605 5.20246 488.757 8.33984C488.681 8.4183 488.61 8.50123 488.543 8.58816C488.49 8.63827 488.442 8.69269 488.398 8.75085L488.286 8.87928L486.814 10.7373C486.665 10.8691 486.547 11.0331 486.471 11.2168C483.885 15.0386 482.388 19.4926 482.142 24.1008C481.895 28.7089 482.909 33.2971 485.074 37.3727C487.238 41.4483 490.472 44.8573 494.428 47.2337C498.383 49.6102 502.912 50.8643 507.527 50.8614ZM488.937 25.4735C488.93 21.7487 490.046 18.1082 492.14 15.0272L493.561 13.1691C493.715 13.055 493.846 12.9126 493.946 12.7495C496.904 9.58237 500.873 7.54611 505.171 6.99176C509.468 6.43742 513.825 7.39971 517.489 9.71279C521.153 12.0259 523.896 15.5448 525.244 19.663C526.591 23.7812 526.461 28.2406 524.873 32.2726C523.286 36.3046 520.342 39.6566 516.548 41.7507C512.755 43.8448 508.349 44.5498 504.092 43.7442C499.834 42.9387 495.991 40.673 493.224 37.3378C490.458 34.0025 488.942 29.8067 488.937 25.4735Z" fill="white" fill-opacity="0.6"/>
<path d="M554.791 74.0235C554.791 73.9208 554.74 73.8266 554.714 73.7495C554.64 73.4956 554.543 73.2491 554.423 73.0131C554.355 72.8162 554.278 72.6364 554.149 72.3538C554.128 72.2908 554.099 72.2304 554.064 72.174C554.021 72.0541 553.961 71.9171 553.892 71.7459C553.805 71.5524 553.702 71.3663 553.584 71.1893C553.53 71.1054 553.484 71.0165 553.447 70.9239C553.402 70.8274 553.348 70.7357 553.284 70.6499C553.216 70.5129 553.13 70.3502 553.01 70.1361C552.902 69.9456 552.773 69.7676 552.625 69.6053C552.558 69.4772 552.478 69.3566 552.385 69.2456C552.282 69.0733 552.165 68.9101 552.034 68.7576C551.955 68.6287 551.864 68.5082 551.76 68.3979L551.435 68.0554L551.358 67.9612L551.032 67.6016L550.853 67.3875L550.279 66.8224C550.233 66.7737 550.181 66.7306 550.125 66.694C549.934 66.4789 549.722 66.2838 549.491 66.1117C549.425 66.0582 549.353 66.0122 549.277 65.9747C548.674 65.4507 548.023 64.9835 547.333 64.579L547.196 64.4849C547.005 64.3663 546.808 64.2577 546.606 64.1595L546.34 64.0225C546.094 63.8947 545.839 63.7831 545.578 63.6885C545.286 63.5207 544.98 63.3802 544.662 63.269C544.452 63.1811 544.238 63.104 544.02 63.0378L543.634 62.9179L543.455 62.8665C543.214 62.7209 542.939 62.6411 542.658 62.6353L542.453 62.5754H542.333C542.2 62.5307 542.062 62.5048 541.922 62.4983C541.719 62.45 541.513 62.4128 541.305 62.387C541.179 62.3553 541.05 62.3381 540.92 62.3357C540.785 62.308 540.647 62.2908 540.509 62.2843C540.429 62.2758 540.349 62.2758 540.269 62.2843H540.141C539.986 62.2542 539.828 62.2399 539.67 62.2415C539.549 62.2155 539.426 62.2012 539.302 62.1986H509.145C509.021 62.1722 508.894 62.1579 508.768 62.1558H508.485C508.108 62.1558 507.809 62.1558 507.526 62.1558C499.803 62.1671 492.274 59.7346 486.018 55.2067C479.761 50.6787 475.097 44.2875 472.694 36.9477C472.508 36.3414 472.157 35.7987 471.681 35.3799C471.205 34.9611 470.622 34.6828 469.997 34.5759C469.393 34.4635 468.769 34.5199 468.195 34.739C467.621 34.958 467.118 35.3312 466.743 35.8175L434.591 75.9758C432.175 79.0091 430.867 82.7758 430.883 86.6533V102.631C430.878 107.14 432.663 111.466 435.844 114.66C439.026 117.855 443.345 119.657 447.854 119.67H538.617C543.131 119.661 547.457 117.862 550.646 114.668C553.836 111.474 555.628 107.145 555.631 102.631V79.1268C555.595 77.3945 555.312 75.6761 554.791 74.0235ZM539.216 68.9888C539.45 69.0426 539.688 69.0742 539.927 69.0829L540.167 69.1257H540.406C540.527 69.1692 540.655 69.1924 540.783 69.1943C540.921 69.2455 541.065 69.28 541.211 69.297H541.34C541.417 69.326 541.498 69.3461 541.579 69.3569L542.016 69.5196C542.069 69.5418 542.123 69.559 542.179 69.571C542.321 69.6469 542.467 69.7155 542.616 69.7765L542.872 69.8792L543.198 70.0334L543.326 70.0848C543.447 70.1898 543.583 70.2764 543.729 70.3416C544.159 70.5986 544.571 70.8847 544.962 71.1979L545.159 71.3435L545.313 71.5061C545.396 71.6043 545.494 71.6882 545.604 71.7544L545.818 71.9428C545.926 72.0951 546.046 72.2383 546.178 72.3709C546.257 72.4754 546.346 72.5728 546.443 72.6621C546.508 72.7999 546.601 72.9225 546.717 73.0217C546.775 73.1377 546.853 73.2422 546.948 73.3299C546.989 73.4155 547.034 73.4984 547.085 73.5783L547.325 73.9721V74.015L547.453 74.3232C547.509 74.4446 547.578 74.5594 547.659 74.6657C547.702 74.8109 547.765 74.9493 547.847 75.0767C547.899 75.2775 547.97 75.4726 548.061 75.659C548.061 75.659 548.061 75.7018 548.061 75.7189C548.061 75.736 548.061 75.8131 548.061 75.8559C548.39 76.871 548.558 77.9313 548.558 78.9983V102.503C548.56 105.194 547.494 107.777 545.593 109.683C543.692 111.589 541.112 112.662 538.42 112.666H447.657C444.961 112.664 442.377 111.593 440.47 109.687C438.563 107.782 437.489 105.198 437.485 102.503V86.6533C437.507 84.3206 438.322 82.0648 439.797 80.257L468.284 44.6198C471.382 50.924 475.951 56.3897 481.607 60.5547C489.073 66.0365 498.101 68.9778 507.364 68.9459H538.497C538.734 68.9868 538.976 69.0012 539.216 68.9888ZM541.579 67.7129L541.468 68.2524V67.927L541.545 67.7129H541.579Z" fill="white" fill-opacity="0.6"/>
</svg>
