<svg width="112" height="58" viewBox="0 0 112 58" fill="none" xmlns="http://www.w3.org/2000/svg">
<path d="M106.62 0H62.8517C60.6787 0.00546799 58.5965 0.872838 57.0622 2.41177C55.5279 3.95069 54.6669 6.03545 54.668 8.20854V19.551C54.6694 20.6698 54.9007 21.7762 55.3475 22.8019C55.7943 23.8275 56.447 24.7504 57.2651 25.5134L57.3188 25.5629C58.1698 26.3233 59.1596 26.9122 60.2339 27.2971L60.3702 27.3549C61.1712 27.6102 62.0069 27.7397 62.8476 27.7389H77.8443C81.5673 27.7379 85.1953 28.9143 88.2093 31.0998C91.2233 33.2854 93.4688 36.3682 94.6248 39.9072C94.7154 40.1957 94.8834 40.4537 95.1106 40.6532C95.3377 40.8527 95.6153 40.986 95.913 41.0386C95.957 41.0427 96.0012 41.0427 96.0451 41.0386H96.2062C96.454 41.0378 96.6987 40.983 96.9233 40.8782C97.1479 40.7734 97.347 40.621 97.5068 40.4316L113.007 21.0664C114.184 19.6037 114.825 17.7824 114.824 15.9051V8.20854C114.825 7.13077 114.613 6.06347 114.201 5.06758C113.789 4.0717 113.184 3.16676 112.422 2.40448C111.661 1.64219 110.756 1.03748 109.76 0.624914C108.765 0.212345 107.697 -1.36489e-07 106.62 0ZM57.9423 12.0568V8.20854C57.9412 6.90971 58.4553 5.66347 59.3717 4.74312C60.2882 3.82278 61.5323 3.30348 62.8311 3.2991H106.62C107.92 3.30238 109.165 3.82107 110.083 4.74142C111.001 5.66176 111.517 6.90862 111.517 8.20854V15.9133C111.502 17.0373 111.112 18.1242 110.41 19.0019L96.6562 36.1911C94.9365 32.6634 92.2587 29.6909 88.9291 27.6135C85.5994 25.5361 81.7523 24.4377 77.8278 24.4439C77.6585 24.4439 77.5057 24.4439 77.3158 24.4439C77.2429 24.4387 77.1698 24.4387 77.097 24.4439H62.8311C62.3575 24.4407 61.8865 24.3727 61.4314 24.2416C60.7185 23.9945 60.0618 23.6086 59.499 23.1061C59.0082 22.6531 58.6165 22.1033 58.3486 21.4915C58.0807 20.8796 57.9424 20.219 57.9423 19.551V12.4615C57.9544 12.403 57.9613 12.3436 57.963 12.2839C57.964 12.2077 57.9571 12.1316 57.9423 12.0568Z" fill="white" fill-opacity="0.6"/>
<path d="M77.8297 33.1846C74.5991 33.179 71.4972 34.4505 69.2001 36.7221C66.903 38.9937 65.5969 42.0811 65.5664 45.3116V45.5428C65.58 48.0072 66.3375 50.41 67.7398 52.4366C69.142 54.4631 71.1236 56.019 73.425 56.9004C75.7264 57.7818 78.2404 57.9476 80.6376 57.3761C83.0349 56.8046 85.2036 55.5225 86.8599 53.6977C86.9177 53.6481 86.9466 53.6068 86.9383 53.6068L87.0085 53.5201L87.0457 53.4747L87.0911 53.4251L87.7889 52.5374C87.846 52.488 87.896 52.4311 87.9376 52.3681C89.2003 50.5274 89.9363 48.3769 90.0662 46.1485C90.1961 43.9201 89.7149 41.6986 88.6745 39.7237C87.6342 37.7488 86.0742 36.0955 84.1629 34.9424C82.2517 33.7892 80.0618 33.18 77.8297 33.1804V33.1846ZM84.4361 51.4721C83.2243 52.8006 81.6407 53.7336 79.8914 54.15C78.1421 54.5664 76.308 54.4468 74.6276 53.8068C72.9472 53.1668 71.4982 52.036 70.4691 50.5614C69.44 49.0868 68.8784 47.3367 68.8573 45.5387V45.3446C68.9172 42.9983 69.8942 40.7689 71.5787 39.1345C73.2631 37.5 75.521 36.5907 77.868 36.6016C80.2151 36.6124 82.4645 37.5424 84.1338 39.1923C85.8032 40.8421 86.7596 43.0804 86.798 45.4272C86.7983 47.219 86.2571 48.9692 85.2454 50.4481L84.5022 51.3813L84.4444 51.468L84.4361 51.4721Z" fill="white" fill-opacity="0.6"/>
<path d="M36.9578 24.5265C39.0009 24.5315 41.0129 24.026 42.8109 23.0558C44.609 22.0857 46.1362 20.6817 47.2538 18.9714C48.3714 17.261 49.044 15.2986 49.2104 13.2623C49.3768 11.2259 49.0319 9.18032 48.2068 7.31121C47.3818 5.4421 46.1029 3.80873 44.4862 2.55949C42.8695 1.31025 40.9663 0.484729 38.9495 0.157913C36.9327 -0.168903 34.8662 0.0133424 32.9378 0.6881C31.0093 1.36286 29.28 2.50874 27.9069 4.02166C27.8702 4.05949 27.8357 4.09948 27.8037 4.1414C27.7782 4.16557 27.7547 4.19181 27.7335 4.21985L27.6798 4.28179L26.9696 5.17779C26.8977 5.24132 26.8413 5.3204 26.8045 5.40902C25.5572 7.25193 24.8354 9.39977 24.7167 11.6219C24.5979 13.8441 25.0867 16.0566 26.1305 18.0219C27.1743 19.9873 28.7337 21.6312 30.6412 22.7772C32.5488 23.9231 34.7325 24.5279 36.9578 24.5265ZM27.9936 12.2839C27.9904 10.4877 28.5285 8.7322 29.5379 7.24644L30.2233 6.35044C30.2976 6.29542 30.3606 6.22676 30.4091 6.14812C31.8352 4.62083 33.7494 3.6389 35.8218 3.37158C37.8942 3.10427 39.9949 3.56831 41.7619 4.68372C43.5289 5.79914 44.8513 7.49604 45.5013 9.48193C46.1514 11.4678 46.0882 13.6183 45.3228 15.5626C44.5574 17.5069 43.1376 19.1233 41.3083 20.1331C39.4789 21.1429 37.3546 21.4829 35.3014 21.0944C33.2483 20.706 31.395 19.6134 30.061 18.0051C28.727 16.3968 27.9959 14.3734 27.9936 12.2839Z" fill="white" fill-opacity="0.6"/>
<path d="M59.7515 35.6962C59.7515 35.6466 59.7267 35.6012 59.7143 35.5641C59.6786 35.4416 59.6316 35.3227 59.574 35.209C59.5409 35.114 59.5038 35.0273 59.4418 34.891C59.4315 34.8606 59.4176 34.8315 59.4005 34.8043C59.3799 34.7465 59.351 34.6805 59.318 34.5979C59.2757 34.5046 59.226 34.4148 59.1693 34.3295C59.1433 34.289 59.1212 34.2461 59.1033 34.2015C59.0815 34.155 59.0552 34.1107 59.0248 34.0693C58.9918 34.0033 58.9505 33.9248 58.8927 33.8216C58.8403 33.7298 58.778 33.6439 58.7069 33.5656C58.6746 33.5038 58.6359 33.4457 58.5912 33.3922C58.5415 33.3091 58.4849 33.2304 58.422 33.1568C58.3839 33.0947 58.3397 33.0366 58.2898 32.9834L58.1329 32.8182L58.0958 32.7728L57.9389 32.5994L57.8521 32.4962L57.5755 32.2237C57.5532 32.2002 57.5283 32.1794 57.5012 32.1617C57.4091 32.058 57.3068 31.9639 57.1956 31.881C57.1638 31.8551 57.1292 31.833 57.0924 31.8149C56.8013 31.5622 56.4876 31.3369 56.1551 31.1418L56.089 31.0964C55.9968 31.0393 55.9017 30.9869 55.8041 30.9395L55.6761 30.8735C55.5573 30.8118 55.4345 30.758 55.3087 30.7124C55.168 30.6315 55.0201 30.5637 54.8668 30.5101C54.7656 30.4678 54.6622 30.4305 54.5572 30.3986L54.3714 30.3408L54.2847 30.316C54.1687 30.2458 54.0362 30.2074 53.9007 30.2046L53.8015 30.1757H53.7437C53.6797 30.1541 53.613 30.1416 53.5455 30.1385C53.4475 30.1152 53.3483 30.0972 53.2483 30.0848C53.1875 30.0695 53.1251 30.0612 53.0625 30.06C52.9971 30.0467 52.9309 30.0384 52.8643 30.0353C52.8258 30.0312 52.7871 30.0312 52.7486 30.0353H52.6867C52.6119 30.0208 52.5358 30.0138 52.4596 30.0146C52.4012 30.0021 52.3418 29.9952 52.2821 29.994H37.7396C37.6798 29.9812 37.619 29.9743 37.5579 29.9733H37.4216C37.2399 29.9733 37.0954 29.9733 36.9592 29.9733C33.2349 29.9787 29.6043 28.8058 26.5872 26.6223C23.5701 24.4388 21.3211 21.3568 20.1622 17.8174C20.0725 17.5251 19.9035 17.2633 19.6738 17.0614C19.4442 16.8594 19.163 16.7252 18.8616 16.6737C18.5703 16.6195 18.2696 16.6467 17.9928 16.7523C17.716 16.8579 17.4737 17.0379 17.2925 17.2724L1.78795 36.6376C0.623227 38.1003 -0.00748597 39.9167 6.70565e-05 41.7865V49.4913C-0.00213015 51.6655 0.858327 53.7518 2.39261 55.2922C3.92689 56.8327 6.00966 57.7016 8.18384 57.7081H51.9517C54.1285 57.7038 56.2146 56.8363 57.7527 55.2959C59.2907 53.7556 60.1551 51.6681 60.1562 49.4913V38.1571C60.1389 37.3217 60.0026 36.4931 59.7515 35.6962ZM52.2408 33.2683C52.3533 33.2943 52.4681 33.3095 52.5835 33.3137L52.6991 33.3344H52.8147C52.873 33.3553 52.9344 33.3665 52.9964 33.3674C53.063 33.3921 53.1323 33.4088 53.2028 33.417H53.2648C53.3021 33.4309 53.3409 33.4406 53.3804 33.4459L53.591 33.5243C53.6163 33.535 53.6426 33.5433 53.6694 33.5491C53.7379 33.5857 53.8082 33.6188 53.88 33.6482L54.0039 33.6977L54.1608 33.7721L54.2227 33.7968C54.2809 33.8475 54.3463 33.8892 54.4168 33.9207C54.6242 34.0446 54.8228 34.1826 55.0114 34.3336L55.1063 34.4038L55.1807 34.4822C55.2206 34.5296 55.268 34.57 55.321 34.602L55.4243 34.6928C55.4764 34.7663 55.5343 34.8353 55.5977 34.8993C55.6362 34.9497 55.6791 34.9966 55.7257 35.0397C55.757 35.1062 55.802 35.1653 55.8578 35.2131C55.8856 35.269 55.9234 35.3194 55.9693 35.3617C55.9888 35.403 56.0109 35.443 56.0354 35.4815L56.151 35.6714V35.6921L56.2129 35.8407C56.2398 35.8992 56.273 35.9546 56.312 36.0059C56.3328 36.0759 56.3634 36.1426 56.4029 36.2041C56.4277 36.3009 56.4623 36.395 56.5061 36.4848C56.5061 36.4848 56.5061 36.5055 56.5061 36.5137C56.5061 36.522 56.5061 36.5592 56.5061 36.5798C56.6646 37.0693 56.7454 37.5806 56.7456 38.0952V49.4294C56.7467 50.7275 56.2323 51.9729 55.3156 52.8919C54.3989 53.8109 53.1548 54.3284 51.8568 54.3306H8.08887C6.78895 54.3295 5.54253 53.8129 4.62296 52.8941C3.70339 51.9753 3.18575 50.7293 3.18357 49.4294V41.7865C3.19427 40.6617 3.58743 39.5739 4.29841 38.7021L18.0357 21.517C19.5294 24.5571 21.7331 27.1928 24.4605 29.2012C28.0607 31.8447 32.4143 33.263 36.8807 33.2477H51.8939C52.0084 33.2674 52.1247 33.2743 52.2408 33.2683ZM53.3804 32.6531L53.3267 32.9132V32.7563L53.3639 32.6531H53.3804Z" fill="white" fill-opacity="0.6"/>
</svg>
