<svg width="213" height="58" viewBox="0 0 213 58" fill="none" xmlns="http://www.w3.org/2000/svg">
<path d="M98.6782 0H54.9103C52.7373 0.00546799 50.6551 0.872838 49.1208 2.41177C47.5865 3.95069 46.7255 6.03545 46.7266 8.20854V19.551C46.728 20.6698 46.9593 21.7762 47.4061 22.8019C47.8529 23.8275 48.5056 24.7504 49.3237 25.5134L49.3774 25.5629C50.2284 26.3233 51.2182 26.9122 52.2925 27.2971L52.4288 27.3549C53.2298 27.6102 54.0655 27.7397 54.9062 27.7389H69.9029C73.6259 27.7379 77.2539 28.9143 80.2679 31.0998C83.2819 33.2854 85.5274 36.3682 86.6834 39.9072C86.774 40.1957 86.942 40.4537 87.1692 40.6532C87.3963 40.8527 87.6739 40.986 87.9716 41.0386C88.0156 41.0427 88.0598 41.0427 88.1037 41.0386H88.2648C88.5126 41.0378 88.7573 40.983 88.9819 40.8782C89.2065 40.7734 89.4056 40.621 89.5654 40.4316L105.066 21.0664C106.243 19.6037 106.884 17.7824 106.883 15.9051V8.20854C106.883 7.13077 106.671 6.06347 106.259 5.06758C105.847 4.0717 105.243 3.16676 104.481 2.40448C103.719 1.64219 102.815 1.03748 101.819 0.624914C100.823 0.212345 99.756 -1.36489e-07 98.6782 0ZM50.0009 12.0568V8.20854C49.9998 6.90971 50.5139 5.66347 51.4303 4.74312C52.3468 3.82278 53.5909 3.30348 54.8897 3.2991H98.6782C99.9781 3.30238 101.224 3.82107 102.142 4.74142C103.06 5.66176 103.575 6.90862 103.575 8.20854V15.9133C103.56 17.0373 103.171 18.1242 102.469 19.0019L88.7148 36.1911C86.9951 32.6634 84.3173 29.6909 80.9877 27.6135C77.658 25.5361 73.8109 24.4377 69.8864 24.4439C69.7171 24.4439 69.5643 24.4439 69.3744 24.4439C69.3015 24.4387 69.2284 24.4387 69.1556 24.4439H54.8897C54.4161 24.4407 53.9451 24.3727 53.4899 24.2416C52.7771 23.9945 52.1204 23.6086 51.5576 23.1061C51.0668 22.6531 50.6751 22.1033 50.4072 21.4915C50.1393 20.8796 50.001 20.219 50.0009 19.551V12.4615C50.013 12.403 50.0199 12.3436 50.0215 12.2839C50.0226 12.2077 50.0157 12.1316 50.0009 12.0568Z" fill="white" fill-opacity="0.6"/>
<path d="M69.8883 33.1843C66.6577 33.1787 63.5558 34.4503 61.2587 36.7218C58.9616 38.9934 57.6555 42.0809 57.625 45.3113V45.5425C57.6386 48.0069 58.3961 50.4097 59.7984 52.4363C61.2006 54.4629 63.1822 56.0188 65.4836 56.9001C67.785 57.7815 70.299 57.9473 72.6962 57.3759C75.0934 56.8044 77.2622 55.5223 78.9185 53.6974C78.9763 53.6479 79.0052 53.6066 78.9969 53.6066L79.0671 53.5199L79.1043 53.4744L79.1497 53.4249L79.8475 52.5372C79.9046 52.4878 79.9546 52.4308 79.9962 52.3679C81.2589 50.5272 81.9949 48.3766 82.1248 46.1482C82.2547 43.9199 81.7735 41.6983 80.7331 39.7234C79.6928 37.7485 78.1328 36.0953 76.2215 34.9421C74.3103 33.789 72.1204 33.1798 69.8883 33.1802V33.1843ZM76.4947 51.4719C75.2829 52.8003 73.6993 53.7334 71.95 54.1498C70.2007 54.5662 68.3666 54.4466 66.6862 53.8065C65.0058 53.1665 63.5568 52.0357 62.5277 50.5611C61.4986 49.0866 60.937 47.3365 60.9159 45.5384V45.3444C60.9758 42.998 61.9528 40.7686 63.6373 39.1342C65.3217 37.4998 67.5796 36.5905 69.9266 36.6013C72.2737 36.6121 74.5231 37.5422 76.1924 39.192C77.8618 40.8419 78.8182 43.0802 78.8566 45.4269C78.8569 47.2188 78.3157 48.9689 77.304 50.4479L76.5608 51.381L76.503 51.4677L76.4947 51.4719Z" fill="white" fill-opacity="0.6"/>
<path d="M29.0164 24.5265C31.0595 24.5315 33.0715 24.026 34.8695 23.0558C36.6676 22.0857 38.1948 20.6817 39.3124 18.9714C40.43 17.261 41.1026 15.2986 41.269 13.2623C41.4354 11.2259 41.0905 9.18032 40.2654 7.31121C39.4404 5.4421 38.1614 3.80873 36.5448 2.55949C34.9281 1.31025 33.0249 0.484729 31.0081 0.157913C28.9913 -0.168903 26.9248 0.0133424 24.9964 0.6881C23.0679 1.36286 21.3386 2.50874 19.9655 4.02166C19.9288 4.05949 19.8943 4.09948 19.8623 4.1414C19.8368 4.16557 19.8133 4.19181 19.7921 4.21985L19.7384 4.28179L19.0282 5.17779C18.9563 5.24132 18.8999 5.3204 18.8631 5.40902C17.6158 7.25193 16.894 9.39977 16.7753 11.6219C16.6565 13.8441 17.1453 16.0566 18.1891 18.0219C19.2329 19.9873 20.7923 21.6312 22.6998 22.7772C24.6074 23.9231 26.7911 24.5279 29.0164 24.5265ZM20.0522 12.2839C20.049 10.4877 20.5871 8.7322 21.5965 7.24644L22.2819 6.35044C22.3562 6.29542 22.4192 6.22676 22.4677 6.14812C23.8938 4.62083 25.808 3.6389 27.8804 3.37158C29.9528 3.10427 32.0535 3.56831 33.8205 4.68372C35.5874 5.79914 36.9099 7.49604 37.5599 9.48193C38.21 11.4678 38.1468 13.6183 37.3814 15.5626C36.616 17.5069 35.1962 19.1233 33.3668 20.1331C31.5375 21.1429 29.4131 21.4829 27.36 21.0944C25.3069 20.706 23.4536 19.6134 22.1196 18.0051C20.7856 16.3968 20.0544 14.3734 20.0522 12.2839Z" fill="white" fill-opacity="0.6"/>
<path d="M51.8101 35.6962C51.8101 35.6466 51.7853 35.6012 51.7729 35.5641C51.7372 35.4416 51.6902 35.3227 51.6326 35.209C51.5995 35.114 51.5624 35.0273 51.5004 34.891C51.4901 34.8606 51.4762 34.8315 51.4591 34.8043C51.4385 34.7465 51.4096 34.6805 51.3766 34.5979C51.3343 34.5046 51.2846 34.4148 51.2279 34.3295C51.2019 34.289 51.1798 34.2461 51.1618 34.2015C51.1401 34.155 51.1138 34.1107 51.0834 34.0693C51.0504 34.0033 51.0091 33.9248 50.9513 33.8216C50.8989 33.7298 50.8365 33.6439 50.7655 33.5656C50.7332 33.5038 50.6945 33.4457 50.6498 33.3922C50.6001 33.3091 50.5435 33.2304 50.4805 33.1568C50.4425 33.0947 50.3983 33.0366 50.3484 32.9834L50.1915 32.8182L50.1544 32.7728L49.9975 32.5994L49.9107 32.4962L49.6341 32.2237C49.6118 32.2002 49.5869 32.1794 49.5598 32.1617C49.4677 32.058 49.3653 31.9639 49.2542 31.881C49.2224 31.8551 49.1878 31.833 49.151 31.8149C48.8599 31.5622 48.5462 31.3369 48.2137 31.1418L48.1476 31.0964C48.0554 31.0393 47.9603 30.9869 47.8627 30.9395L47.7347 30.8735C47.6159 30.8118 47.4931 30.758 47.3673 30.7124C47.2266 30.6315 47.0786 30.5637 46.9254 30.5101C46.8242 30.4678 46.7208 30.4305 46.6158 30.3986L46.43 30.3408L46.3432 30.316C46.2273 30.2458 46.0948 30.2074 45.9592 30.2046L45.8601 30.1757H45.8023C45.7383 30.1541 45.6716 30.1416 45.6041 30.1385C45.5061 30.1152 45.4069 30.0972 45.3069 30.0848C45.2461 30.0695 45.1837 30.0612 45.1211 30.06C45.0557 30.0467 44.9895 30.0384 44.9229 30.0353C44.8844 30.0312 44.8457 30.0312 44.8072 30.0353H44.7453C44.6705 30.0208 44.5944 30.0138 44.5182 30.0146C44.4598 30.0021 44.4004 29.9952 44.3407 29.994H29.7981C29.7384 29.9812 29.6776 29.9743 29.6165 29.9733H29.4802C29.2985 29.9733 29.154 29.9733 29.0178 29.9733C25.2935 29.9787 21.6629 28.8058 18.6458 26.6223C15.6287 24.4388 13.3797 21.3568 12.2208 17.8174C12.1311 17.5251 11.9621 17.2633 11.7324 17.0614C11.5028 16.8594 11.2216 16.7252 10.9201 16.6737C10.6288 16.6195 10.3282 16.6467 10.0514 16.7523C9.77457 16.8579 9.53225 17.0379 9.35111 17.2724L-6.15346 36.6376C-7.31818 38.1003 -7.94889 39.9167 -7.94134 41.7865V49.4913C-7.94354 51.6655 -7.08308 53.7518 -5.5488 55.2922C-4.01451 56.8327 -1.93174 57.7016 0.242435 57.7081H44.0103C46.1871 57.7038 48.2732 56.8363 49.8113 55.2959C51.3493 53.7556 52.2137 51.6681 52.2148 49.4913V38.1571C52.1975 37.3217 52.0612 36.4931 51.8101 35.6962ZM44.2994 33.2683C44.4119 33.2943 44.5267 33.3095 44.6421 33.3137L44.7577 33.3344H44.8733C44.9316 33.3553 44.993 33.3665 45.055 33.3674C45.1216 33.3921 45.1909 33.4088 45.2614 33.417H45.3234C45.3607 33.4309 45.3995 33.4406 45.439 33.4459L45.6496 33.5243C45.6749 33.535 45.7012 33.5433 45.728 33.5491C45.7965 33.5857 45.8668 33.6188 45.9386 33.6482L46.0625 33.6977L46.2194 33.7721L46.2813 33.7968C46.3395 33.8475 46.4049 33.8892 46.4754 33.9207C46.6828 34.0446 46.8814 34.1826 47.07 34.3336L47.1649 34.4038L47.2393 34.4822C47.2792 34.5296 47.3266 34.57 47.3796 34.602L47.4829 34.6928C47.535 34.7663 47.5929 34.8353 47.6563 34.8993C47.6948 34.9497 47.7377 34.9966 47.7843 35.0397C47.8156 35.1062 47.8606 35.1653 47.9164 35.2131C47.9442 35.269 47.982 35.3194 48.0279 35.3617C48.0474 35.403 48.0695 35.443 48.094 35.4815L48.2096 35.6714V35.6921L48.2715 35.8407C48.2984 35.8992 48.3316 35.9546 48.3706 36.0059C48.3914 36.0759 48.422 36.1426 48.4614 36.2041C48.4863 36.3009 48.5209 36.395 48.5647 36.4848C48.5647 36.4848 48.5647 36.5055 48.5647 36.5137C48.5647 36.522 48.5647 36.5592 48.5647 36.5798C48.7232 37.0693 48.804 37.5806 48.8042 38.0952V49.4294C48.8053 50.7275 48.2909 51.9729 47.3742 52.8919C46.4575 53.8109 45.2134 54.3284 43.9154 54.3306H0.147463C-1.15246 54.3295 -2.39888 53.8129 -3.31845 52.8941C-4.23801 51.9753 -4.75565 50.7293 -4.75784 49.4294V41.7865C-4.74714 40.6617 -4.35397 39.5739 -3.643 38.7021L10.0943 21.517C11.588 24.5571 13.7917 27.1928 16.5191 29.2012C20.1193 31.8447 24.4729 33.263 28.9393 33.2477H43.9525C44.067 33.2674 44.1833 33.2743 44.2994 33.2683ZM45.439 32.6531L45.3853 32.9132V32.7563L45.4225 32.6531H45.439Z" fill="white" fill-opacity="0.6"/>
<path d="M204.795 0H161.028C158.854 0.00546799 156.772 0.872838 155.238 2.41177C153.704 3.95069 152.843 6.03545 152.844 8.20854V19.551C152.845 20.6698 153.077 21.7762 153.523 22.8019C153.97 23.8275 154.623 24.7504 155.441 25.5134L155.495 25.5629C156.346 26.3233 157.335 26.9122 158.41 27.2971L158.546 27.3549C159.347 27.6102 160.183 27.7397 161.023 27.7389H176.02C179.743 27.7379 183.371 28.9143 186.385 31.0998C189.399 33.2854 191.645 36.3682 192.801 39.9072C192.891 40.1957 193.059 40.4537 193.286 40.6532C193.514 40.8527 193.791 40.986 194.089 41.0386C194.133 41.0427 194.177 41.0427 194.221 41.0386H194.382C194.63 41.0378 194.874 40.983 195.099 40.8782C195.324 40.7734 195.523 40.621 195.683 40.4316L211.183 21.0664C212.36 19.6037 213.001 17.7824 213 15.9051V8.20854C213 7.13077 212.789 6.06347 212.376 5.06758C211.964 4.0717 211.36 3.16676 210.598 2.40448C209.836 1.64219 208.932 1.03748 207.936 0.624914C206.94 0.212345 205.873 -1.36489e-07 204.795 0ZM156.118 12.0568V8.20854C156.117 6.90971 156.631 5.66347 157.548 4.74312C158.464 3.82278 159.708 3.30348 161.007 3.2991H204.795C206.095 3.30238 207.341 3.82107 208.259 4.74142C209.177 5.66176 209.692 6.90862 209.692 8.20854V15.9133C209.678 17.0373 209.288 18.1242 208.586 19.0019L194.832 36.1911C193.112 32.6634 190.435 29.6909 187.105 27.6135C183.775 25.5361 179.928 24.4377 176.004 24.4439C175.834 24.4439 175.682 24.4439 175.492 24.4439C175.419 24.4387 175.346 24.4387 175.273 24.4439H161.007C160.533 24.4407 160.062 24.3727 159.607 24.2416C158.894 23.9945 158.238 23.6086 157.675 23.1061C157.184 22.6531 156.792 22.1033 156.524 21.4915C156.257 20.8796 156.118 20.219 156.118 19.551V12.4615C156.13 12.403 156.137 12.3436 156.139 12.2839C156.14 12.2077 156.133 12.1316 156.118 12.0568Z" fill="white" fill-opacity="0.6"/>
<path d="M176.002 33.1843C172.771 33.1787 169.669 34.4503 167.372 36.7218C165.075 38.9934 163.769 42.0809 163.738 45.3113V45.5425C163.752 48.0069 164.509 50.4097 165.912 52.4363C167.314 54.4629 169.296 56.0188 171.597 56.9001C173.898 57.7815 176.412 57.9473 178.809 57.3759C181.207 56.8044 183.375 55.5223 185.032 53.6974C185.09 53.6479 185.118 53.6066 185.11 53.6066L185.18 53.5199L185.218 53.4744L185.263 53.4249L185.961 52.5372C186.018 52.4878 186.068 52.4308 186.109 52.3679C187.372 50.5272 188.108 48.3766 188.238 46.1482C188.368 43.9199 187.887 41.6983 186.846 39.7234C185.806 37.7485 184.246 36.0953 182.335 34.9421C180.424 33.789 178.234 33.1798 176.002 33.1802V33.1843ZM182.608 51.4719C181.396 52.8003 179.813 53.7334 178.063 54.1498C176.314 54.5662 174.48 54.4466 172.799 53.8065C171.119 53.1665 169.67 52.0357 168.641 50.5611C167.612 49.0866 167.05 47.3365 167.029 45.5384V45.3444C167.089 42.998 168.066 40.7686 169.751 39.1342C171.435 37.4998 173.693 36.5905 176.04 36.6013C178.387 36.6121 180.636 37.5422 182.306 39.192C183.975 40.8419 184.931 43.0802 184.97 45.4269C184.97 47.2188 184.429 48.9689 183.417 50.4479L182.674 51.381L182.616 51.4677L182.608 51.4719Z" fill="white" fill-opacity="0.6"/>
<path d="M135.134 24.5265C137.177 24.5315 139.189 24.026 140.987 23.0558C142.785 22.0857 144.312 20.6817 145.43 18.9714C146.547 17.261 147.22 15.2986 147.386 13.2623C147.553 11.2259 147.208 9.18032 146.383 7.31121C145.558 5.4421 144.279 3.80873 142.662 2.55949C141.045 1.31025 139.142 0.484729 137.125 0.157913C135.109 -0.168903 133.042 0.0133424 131.114 0.6881C129.185 1.36286 127.456 2.50874 126.083 4.02166C126.046 4.05949 126.011 4.09948 125.979 4.1414C125.954 4.16557 125.93 4.19181 125.909 4.21985L125.856 4.28179L125.145 5.17779C125.074 5.24132 125.017 5.3204 124.98 5.40902C123.733 7.25193 123.011 9.39977 122.892 11.6219C122.774 13.8441 123.262 16.0566 124.306 18.0219C125.35 19.9873 126.909 21.6312 128.817 22.7772C130.725 23.9231 132.908 24.5279 135.134 24.5265ZM126.169 12.2839C126.166 10.4877 126.704 8.7322 127.714 7.24644L128.399 6.35044C128.473 6.29542 128.536 6.22676 128.585 6.14812C130.011 4.62083 131.925 3.6389 133.998 3.37158C136.07 3.10427 138.171 3.56831 139.938 4.68372C141.705 5.79914 143.027 7.49604 143.677 9.48193C144.327 11.4678 144.264 13.6183 143.499 15.5626C142.733 17.5069 141.313 19.1233 139.484 20.1331C137.655 21.1429 135.53 21.4829 133.477 21.0944C131.424 20.706 129.571 19.6134 128.237 18.0051C126.903 16.3968 126.172 14.3734 126.169 12.2839Z" fill="white" fill-opacity="0.6"/>
<path d="M157.927 35.6962C157.927 35.6466 157.903 35.6012 157.89 35.5641C157.854 35.4416 157.807 35.3227 157.75 35.209C157.717 35.114 157.68 35.0273 157.618 34.891C157.607 34.8606 157.593 34.8315 157.576 34.8043C157.556 34.7465 157.527 34.6805 157.494 34.5979C157.451 34.5046 157.402 34.4148 157.345 34.3295C157.319 34.289 157.297 34.2461 157.279 34.2015C157.257 34.155 157.231 34.1107 157.201 34.0693C157.168 34.0033 157.126 33.9248 157.068 33.8216C157.016 33.7298 156.954 33.6439 156.883 33.5656C156.85 33.5038 156.812 33.4457 156.767 33.3922C156.717 33.3091 156.661 33.2304 156.598 33.1568C156.56 33.0947 156.515 33.0366 156.466 32.9834L156.309 32.8182L156.272 32.7728L156.115 32.5994L156.028 32.4962L155.751 32.2237C155.729 32.2002 155.704 32.1794 155.677 32.1617C155.585 32.058 155.483 31.9639 155.371 31.881C155.34 31.8551 155.305 31.833 155.268 31.8149C154.977 31.5622 154.663 31.3369 154.331 31.1418L154.265 31.0964C154.173 31.0393 154.078 30.9869 153.98 30.9395L153.852 30.8735C153.733 30.8118 153.61 30.758 153.484 30.7124C153.344 30.6315 153.196 30.5637 153.043 30.5101C152.941 30.4678 152.838 30.4305 152.733 30.3986L152.547 30.3408L152.46 30.316C152.344 30.2458 152.212 30.2074 152.076 30.2046L151.977 30.1757H151.92C151.856 30.1541 151.789 30.1416 151.721 30.1385C151.623 30.1152 151.524 30.0972 151.424 30.0848C151.363 30.0695 151.301 30.0612 151.238 30.06C151.173 30.0467 151.107 30.0384 151.04 30.0353C151.002 30.0312 150.963 30.0312 150.924 30.0353H150.862C150.788 30.0208 150.712 30.0138 150.635 30.0146C150.577 30.0021 150.518 29.9952 150.458 29.994H135.915C135.856 29.9812 135.795 29.9743 135.734 29.9733H135.597C135.416 29.9733 135.271 29.9733 135.135 29.9733C131.411 29.9787 127.78 28.8058 124.763 26.6223C121.746 24.4388 119.497 21.3568 118.338 17.8174C118.248 17.5251 118.079 17.2633 117.85 17.0614C117.62 16.8594 117.339 16.7252 117.037 16.6737C116.746 16.6195 116.445 16.6467 116.169 16.7523C115.892 16.8579 115.649 17.0379 115.468 17.2724L99.9637 36.6376C98.799 38.1003 98.1683 39.9167 98.1758 41.7865V49.4913C98.1737 51.6655 99.0341 53.7518 100.568 55.2922C102.103 56.8327 104.185 57.7016 106.36 57.7081H150.128C152.304 57.7038 154.39 56.8363 155.928 55.2959C157.466 53.7556 158.331 51.6681 158.332 49.4913V38.1571C158.315 37.3217 158.178 36.4931 157.927 35.6962ZM150.417 33.2683C150.529 33.2943 150.644 33.3095 150.759 33.3137L150.875 33.3344H150.99C151.049 33.3553 151.11 33.3665 151.172 33.3674C151.239 33.3921 151.308 33.4088 151.379 33.417H151.441C151.478 33.4309 151.517 33.4406 151.556 33.4459L151.767 33.5243C151.792 33.535 151.818 33.5433 151.845 33.5491C151.914 33.5857 151.984 33.6188 152.056 33.6482L152.18 33.6977L152.337 33.7721L152.398 33.7968C152.457 33.8475 152.522 33.8892 152.593 33.9207C152.8 34.0446 152.999 34.1826 153.187 34.3336L153.282 34.4038L153.356 34.4822C153.396 34.5296 153.444 34.57 153.497 34.602L153.6 34.6928C153.652 34.7663 153.71 34.8353 153.773 34.8993C153.812 34.9497 153.855 34.9966 153.901 35.0397C153.933 35.1062 153.978 35.1653 154.034 35.2131C154.061 35.269 154.099 35.3194 154.145 35.3617C154.165 35.403 154.187 35.443 154.211 35.4815L154.327 35.6714V35.6921L154.389 35.8407C154.416 35.8992 154.449 35.9546 154.488 36.0059C154.509 36.0759 154.539 36.1426 154.579 36.2041C154.603 36.3009 154.638 36.395 154.682 36.4848C154.682 36.4848 154.682 36.5055 154.682 36.5137C154.682 36.522 154.682 36.5592 154.682 36.5798C154.84 37.0693 154.921 37.5806 154.921 38.0952V49.4294C154.922 50.7275 154.408 51.9729 153.491 52.8919C152.575 53.8109 151.331 54.3284 150.033 54.3306H106.265C104.965 54.3295 103.718 53.8129 102.799 52.8941C101.879 51.9753 101.362 50.7293 101.359 49.4294V41.7865C101.37 40.6617 101.763 39.5739 102.474 38.7021L116.212 21.517C117.705 24.5571 119.909 27.1928 122.636 29.2012C126.237 31.8447 130.59 33.263 135.056 33.2477H150.07C150.184 33.2674 150.301 33.2743 150.417 33.2683ZM151.556 32.6531L151.502 32.9132V32.7563L151.54 32.6531H151.556Z" fill="white" fill-opacity="0.6"/>
</svg>
