<svg width="19" height="26" viewBox="0 0 19 26" fill="none" xmlns="http://www.w3.org/2000/svg">
<path d="M16.3264 2.10016L11.9448 0.587592L7.37502 15.1021L10.9788 16.3462L16.3264 2.10016ZM6.96163 22.1413C8.22196 22.5764 9.68527 21.8808 10.1555 20.5507C10.5991 19.2337 9.87649 17.7836 8.61616 17.3485C7.31644 16.8998 5.87283 17.6022 5.42924 18.9191C4.95903 20.2493 5.66192 21.6927 6.96163 22.1413Z" fill="white"/>
<path d="M0.112035 1.80247L2.88165 1.63577L3.17976 10.7394L0.901825 10.8765L0.112035 1.80247ZM2.28495 14.8643C1.48829 14.9122 0.756623 14.2757 0.699661 13.4331C0.65591 12.6024 1.30594 11.8827 2.10259 11.8347C2.92414 11.7853 3.64336 12.4226 3.68712 13.2533C3.74408 14.0958 3.1065 14.8148 2.28495 14.8643Z" fill="white"/>
<path d="M17.5502 18.6677L18.7086 19.6166L15.4908 23.3326L14.5381 22.5522L17.5502 18.6677ZM13.6248 24.6389C13.2916 24.366 13.235 23.8457 13.5212 23.491C13.8082 23.1459 14.3295 23.0989 14.6627 23.3718C15.0063 23.6533 15.0577 24.1693 14.7707 24.5145C14.4845 24.8691 13.9684 24.9204 13.6248 24.6389Z" fill="white"/>
</svg>
