<svg width="28" height="28" viewBox="0 0 28 28" fill="none" xmlns="http://www.w3.org/2000/svg">
<g clip-path="url(#clip0)">
<path d="M26.8141 10.1973C26.3572 9.74289 25.6186 9.74492 25.1641 10.2017L11.1393 24.3024C9.31976 26.122 6.36454 26.122 4.5416 24.3C2.72003 22.4774 2.72003 19.5222 4.54182 17.7004L18.9818 3.18461C20.1178 2.04867 21.9647 2.04867 23.104 3.18707C24.2429 4.32602 24.2429 6.1727 23.1037 7.31197L11.1415 19.2741C11.1407 19.2748 11.1401 19.2757 11.1393 19.2765C10.6836 19.7297 9.9471 19.7291 9.4923 19.2743C9.03675 18.8187 9.03675 18.0804 9.4923 17.6248L15.2663 11.8496C15.7219 11.3939 15.7218 10.6552 15.2662 10.1996C14.8105 9.74404 14.0718 9.74409 13.6162 10.1998L7.84224 15.9749C6.47551 17.3416 6.47551 19.5574 7.84234 20.9242C9.20913 22.291 11.4249 22.291 12.7917 20.9242C12.7933 20.9226 12.7946 20.9209 12.7961 20.9193L24.7536 8.96183C26.8041 6.91132 26.8041 3.58723 24.7536 1.53673C22.7028 -0.512569 19.3789 -0.512569 17.3296 1.53673L2.88967 16.0527C0.158844 18.7835 0.158843 23.2157 2.89164 25.9499C5.62625 28.6831 10.0586 28.6831 12.7915 25.9501L26.8186 11.8473C27.2729 11.3904 27.2709 10.6517 26.8141 10.1973Z" fill="#A094C9"/>
</g>
<defs>
<clipPath id="clip0">
<rect width="28" height="28" fill="white"/>
</clipPath>
</defs>
</svg>
