<svg width="463" height="275" viewBox="0 0 463 275" fill="none" xmlns="http://www.w3.org/2000/svg">
<path d="M276.764 122.714H383.223C388.509 122.702 393.573 120.803 397.305 117.434C401.037 114.064 403.132 109.5 403.129 104.742V79.9075C403.125 77.4581 402.563 75.0355 401.476 72.7899C400.389 70.5443 398.802 68.5236 396.812 66.8531L396.681 66.7446C394.611 65.0797 392.204 63.7905 389.591 62.9476L389.259 62.821C387.311 62.2622 385.278 61.9785 383.233 61.9803H346.756C337.7 61.9826 328.876 59.4069 321.545 54.6216C314.214 49.8363 308.752 43.0866 305.94 35.338C305.719 34.7065 305.311 34.1416 304.758 33.7048C304.206 33.268 303.531 32.9761 302.806 32.861C302.7 32.852 302.592 32.852 302.485 32.861H302.093C301.491 32.8628 300.895 32.9826 300.349 33.2121C299.803 33.4415 299.318 33.7752 298.93 34.1899L261.227 76.5897C258.365 79.7922 256.805 83.7798 256.808 87.8903V104.742C256.807 107.101 257.322 109.438 258.324 111.619C259.327 113.799 260.796 115.781 262.65 117.45C264.503 119.119 266.703 120.443 269.125 121.346C271.547 122.249 274.143 122.714 276.764 122.714ZM395.165 96.316V104.742C395.167 107.585 393.917 110.314 391.688 112.329C389.458 114.344 386.432 115.481 383.273 115.491H276.764C273.602 115.484 270.573 114.348 268.34 112.333C266.107 110.318 264.853 107.588 264.853 104.742V87.8722C264.889 85.4112 265.836 83.0315 267.544 81.1099L300.999 43.4744C305.182 51.1983 311.695 57.7066 319.794 62.255C327.893 66.8034 337.25 69.2083 346.796 69.1946C347.208 69.1946 347.579 69.1946 348.041 69.1946C348.219 69.206 348.396 69.206 348.574 69.1946H383.273C384.425 69.2016 385.571 69.3506 386.678 69.6376C388.412 70.1786 390.009 71.0236 391.378 72.1237C392.572 73.1157 393.525 74.3194 394.176 75.659C394.828 76.9986 395.164 78.4451 395.165 79.9075V95.43C395.135 95.558 395.118 95.6881 395.114 95.8187C395.112 95.9856 395.129 96.1523 395.165 96.316Z" fill="#EAEAEA" fill-opacity="0.2"/>
<path d="M360.57 48.9398C369.422 48.9535 377.921 45.8249 384.215 40.2357C390.509 34.6465 394.088 27.0499 394.172 19.1014V18.5325C394.135 12.4689 392.059 6.55679 388.217 1.57041C384.374 -3.41597 378.945 -7.24413 372.639 -9.41276C366.333 -11.5814 359.444 -11.9894 352.876 -10.5833C346.307 -9.17716 340.365 -6.02252 335.826 -1.5325C335.668 -1.41058 335.589 -1.30899 335.611 -1.30899L335.419 -1.09565L335.317 -0.983879L335.193 -0.861969L333.281 1.32231C333.124 1.4438 332.987 1.58395 332.873 1.73885C329.413 6.26779 327.397 11.5593 327.041 17.0422C326.685 22.5251 328.003 27.9912 330.854 32.8504C333.705 37.7096 337.979 41.7774 343.216 44.6147C348.453 47.4519 354.453 48.951 360.57 48.95V48.9398ZM342.467 3.94344C345.788 0.674801 350.127 -1.62103 354.92 -2.64552C359.714 -3.67002 364.739 -3.37577 369.344 -1.80103C373.948 -0.226284 377.918 2.55607 380.738 6.18425C383.558 9.81242 385.097 14.1185 385.155 18.5426V19.0201C384.99 24.7932 382.313 30.2786 377.698 34.3001C373.082 38.3216 366.896 40.5589 360.465 40.5323C354.033 40.5057 347.87 38.2173 343.296 34.1579C338.722 30.0984 336.101 24.5911 335.996 18.8169C335.995 14.4081 337.478 10.1019 340.25 6.46301L342.286 4.16695L342.445 3.95361L342.467 3.94344Z" fill="#EAEAEA" fill-opacity="0.2"/>
<path d="M547.412 -48.957H440.953C435.667 -48.9451 430.602 -47.046 426.871 -43.6765C423.139 -40.3071 421.044 -35.7425 421.047 -30.9846V-6.15043C421.05 -3.70103 421.613 -1.2784 422.7 0.967201C423.786 3.2128 425.374 5.23351 427.364 6.904L427.495 7.01249C429.565 8.67735 431.972 9.96661 434.585 10.8095L434.917 10.936C436.865 11.4949 438.898 11.7785 440.943 11.7768H477.42C486.476 11.7745 495.3 14.3502 502.631 19.1354C509.962 23.9207 515.424 30.6704 518.236 38.4191C518.456 39.0505 518.865 39.6155 519.418 40.0523C519.97 40.489 520.645 40.7809 521.369 40.8961C521.476 40.9051 521.584 40.9051 521.691 40.8961H522.082C522.685 40.8943 523.28 40.7745 523.827 40.545C524.373 40.3156 524.857 39.9819 525.246 39.5672L562.949 -2.83259C565.811 -6.0351 567.371 -10.0227 567.368 -14.1332V-30.9846C567.369 -33.3443 566.854 -35.6812 565.851 -37.8617C564.849 -40.0421 563.379 -42.0235 561.526 -43.6925C559.673 -45.3615 557.473 -46.6855 555.051 -47.5888C552.629 -48.4921 550.033 -48.957 547.412 -48.957ZM429.011 -22.5589V-30.9846C429.009 -33.8284 430.259 -36.557 432.488 -38.5721C434.717 -40.5871 437.743 -41.7241 440.902 -41.7337H547.412C550.574 -41.7265 553.603 -40.5909 555.836 -38.5758C558.069 -36.5607 559.323 -33.8307 559.323 -30.9846V-14.1151C559.287 -11.6542 558.34 -9.27443 556.631 -7.35283L523.177 30.2826C518.994 22.5588 512.481 16.0505 504.382 11.5021C496.283 6.9537 486.926 4.54882 477.38 4.5625C476.968 4.5625 476.596 4.5625 476.134 4.5625C475.957 4.55111 475.779 4.55111 475.602 4.5625H440.902C439.75 4.55548 438.605 4.40644 437.498 4.11953C435.764 3.57844 434.166 2.73346 432.798 1.6334C431.604 0.641411 430.651 -0.562283 430 -1.90189C429.348 -3.24151 429.011 -4.68802 429.011 -6.15043V-21.6729C429.041 -21.8009 429.057 -21.931 429.061 -22.0617C429.064 -22.2285 429.047 -22.3952 429.011 -22.5589Z" fill="#EAEAEA" fill-opacity="0.2"/>
<path d="M463.606 24.819C454.754 24.8052 446.255 27.9339 439.961 33.5231C433.666 39.1123 430.087 46.7089 430.004 54.6574V55.2263C430.041 61.2899 432.117 67.202 435.959 72.1884C439.801 77.1748 445.231 81.0029 451.537 83.1716C457.843 85.3402 464.731 85.7482 471.3 84.3421C477.869 82.9359 483.811 79.7813 488.35 75.2913C488.508 75.1694 488.587 75.0678 488.565 75.0678L488.757 74.8544L488.859 74.7427L488.983 74.6208L490.895 72.4365C491.052 72.315 491.189 72.1748 491.303 72.0199C494.762 67.491 496.779 62.1995 497.135 56.7166C497.491 51.2337 496.172 45.7676 493.322 40.9084C490.471 36.0492 486.197 31.9814 480.96 29.1441C475.723 26.3068 469.722 24.8078 463.606 24.8088V24.819ZM481.708 69.8153C478.388 73.084 474.049 75.3798 469.255 76.4043C464.462 77.4288 459.437 77.1346 454.832 75.5598C450.228 73.9851 446.257 71.2027 443.438 67.5745C440.618 63.9464 439.079 59.6403 439.021 55.2162V54.7387C439.185 48.9656 441.862 43.4802 446.478 39.4587C451.094 35.4372 457.28 33.1999 463.711 33.2265C470.142 33.2531 476.306 35.5415 480.88 39.6009C485.454 43.6604 488.075 49.1677 488.18 54.9419C488.181 59.3507 486.698 63.6569 483.926 67.2958L481.889 69.5918L481.731 69.8052L481.708 69.8153Z" fill="#EAEAEA" fill-opacity="0.2"/>
<path d="M271.982 -21.1104H165.523C160.237 -21.0984 155.173 -19.1993 151.441 -15.8299C147.709 -12.4604 145.615 -7.89589 145.617 -3.13797V21.6961C145.621 24.1455 146.183 26.5681 147.27 28.8137C148.357 31.0593 149.944 33.08 151.934 34.7505L152.065 34.859C154.135 36.5239 156.542 37.8131 159.156 38.656L159.487 38.7826C161.435 39.3414 163.468 39.6251 165.513 39.6233H201.99C211.046 39.621 219.87 42.1967 227.202 46.9819C234.533 51.7672 239.995 58.5169 242.806 66.2655C243.027 66.897 243.435 67.4619 243.988 67.8987C244.54 68.3355 245.216 68.6274 245.94 68.7426C246.047 68.7515 246.154 68.7515 246.261 68.7426H246.653C247.256 68.7407 247.851 68.6209 248.397 68.3915C248.943 68.162 249.428 67.8283 249.816 67.4136L287.519 25.014C290.382 21.8115 291.941 17.8238 291.938 13.7134V-3.13797C291.939 -5.49771 291.424 -7.83455 290.422 -10.015C289.42 -12.1955 287.95 -14.1768 286.097 -15.8458C284.243 -17.5148 282.043 -18.8388 279.621 -19.7421C277.199 -20.6454 274.603 -21.1104 271.982 -21.1104ZM153.582 5.28773V-3.13797C153.579 -5.98171 154.829 -8.71034 157.058 -10.7254C159.288 -12.7405 162.314 -13.8775 165.473 -13.887H271.982C275.144 -13.8799 278.173 -12.7442 280.406 -10.7291C282.639 -8.71408 283.893 -5.98411 283.893 -3.13797V13.7315C283.857 16.1924 282.91 18.5721 281.202 20.4937L247.747 58.1291C243.565 50.4053 237.051 43.897 228.952 39.3486C220.853 34.8002 211.496 32.3954 201.95 32.409C201.538 32.409 201.167 32.409 200.705 32.409C200.527 32.3976 200.35 32.3976 200.172 32.409H165.473C164.321 32.402 163.175 32.253 162.068 31.9661C160.334 31.425 158.737 30.58 157.368 29.4799C156.174 28.488 155.221 27.2843 154.57 25.9447C153.918 24.605 153.582 23.1585 153.582 21.6961V6.17369C153.611 6.04568 153.628 5.91561 153.632 5.78496C153.634 5.61809 153.618 5.45144 153.582 5.28773Z" fill="#EAEAEA" fill-opacity="0.2"/>
<path d="M188.176 52.6657C179.324 52.6519 170.825 55.7806 164.531 61.3698C158.237 66.959 154.658 74.5556 154.574 82.5041V83.073C154.612 89.1366 156.687 95.0487 160.529 100.035C164.372 105.021 169.801 108.85 176.107 111.018C182.413 113.187 189.302 113.595 195.87 112.189C202.439 110.783 208.382 107.628 212.92 103.138C213.078 103.016 213.157 102.914 213.135 102.914L213.327 102.701L213.429 102.589L213.553 102.467L215.465 100.283C215.622 100.162 215.759 100.022 215.873 99.8666C219.333 95.3377 221.35 90.0462 221.705 84.5633C222.061 79.0804 220.743 73.6143 217.892 68.7551C215.041 63.8959 210.767 59.8281 205.53 56.9908C200.293 54.1535 194.293 52.6545 188.176 52.6555V52.6657ZM206.279 97.662C202.958 100.931 198.619 103.226 193.826 104.251C189.033 105.275 184.007 104.981 179.403 103.406C174.798 101.832 170.828 99.0494 168.008 95.4212C165.188 91.793 163.649 87.4869 163.591 83.0629V82.5854C163.756 76.8123 166.433 71.3269 171.048 67.3054C175.664 63.2839 181.85 61.0466 188.282 61.0732C194.713 61.0998 200.876 63.3881 205.45 67.4476C210.024 71.5071 212.645 77.0143 212.75 82.7885C212.751 87.1974 211.268 91.5036 208.496 95.1425L206.46 97.4385L206.301 97.6519L206.279 97.662Z" fill="#EAEAEA" fill-opacity="0.2"/>
<path d="M19.9575 310.482H126.416C131.702 310.47 136.767 308.571 140.499 305.202C144.23 301.832 146.325 297.268 146.322 292.51V267.676C146.319 265.226 145.756 262.804 144.669 260.558C143.583 258.313 141.995 256.292 140.005 254.621L139.874 254.513C137.805 252.848 135.397 251.559 132.784 250.716L132.452 250.589C130.504 250.03 128.471 249.747 126.427 249.749H89.9493C80.8936 249.751 72.069 247.175 64.738 242.39C57.4069 237.605 51.9449 230.855 49.1333 223.106C48.9129 222.475 48.5041 221.91 47.9516 221.473C47.3991 221.036 46.7239 220.744 45.9998 220.629C45.8929 220.62 45.7853 220.62 45.6784 220.629H45.2867C44.6839 220.631 44.0887 220.751 43.5425 220.98C42.9962 221.21 42.5119 221.544 42.1231 221.958L4.42056 264.358C1.55798 267.56 -0.00135803 271.548 0.00152588 275.659V292.51C0.000198364 294.87 0.515411 297.207 1.5177 299.387C2.52 301.568 3.98975 303.549 5.84296 305.218C7.69618 306.887 9.89655 308.211 12.3184 309.114C14.7402 310.017 17.336 310.482 19.9575 310.482ZM138.358 284.084V292.51C138.361 295.354 137.11 298.082 134.881 300.097C132.652 302.113 129.626 303.25 126.467 303.259H19.9575C16.7957 303.252 13.7661 302.116 11.5331 300.101C9.30016 298.086 8.0462 295.356 8.04622 292.51V275.64C8.08229 273.18 9.0295 270.8 10.7378 268.878L44.192 231.243C48.3749 238.967 54.8883 245.475 62.9872 250.023C71.0861 254.572 80.4435 256.977 89.9894 256.963C90.4012 256.963 90.7728 256.963 91.2348 256.963C91.412 256.974 91.5899 256.974 91.7671 256.963H126.467C127.619 256.97 128.764 257.119 129.871 257.406C131.605 257.947 133.203 258.792 134.572 259.892C135.765 260.884 136.718 262.088 137.37 263.427C138.021 264.767 138.358 266.213 138.358 267.676V283.198C138.329 283.326 138.312 283.456 138.308 283.587C138.305 283.754 138.322 283.921 138.358 284.084Z" fill="#EAEAEA" fill-opacity="0.2"/>
<path d="M103.761 236.706C112.613 236.72 121.112 233.591 127.407 228.002C133.701 222.413 137.28 214.816 137.363 206.868V206.299C137.326 200.236 135.25 194.323 131.408 189.337C127.566 184.351 122.136 180.522 115.83 178.354C109.524 176.185 102.636 175.777 96.0671 177.183C89.4985 178.589 83.5559 181.744 79.0176 186.234C78.8592 186.356 78.78 186.458 78.8027 186.458L78.6103 186.671L78.5085 186.783L78.384 186.905L76.472 189.089C76.3157 189.21 76.1786 189.351 76.0647 189.505C72.6047 194.034 70.5879 199.326 70.2321 204.809C69.8762 210.292 71.1947 215.758 74.0454 220.617C76.896 225.476 81.1705 229.544 86.4075 232.381C91.6444 235.219 97.6448 236.718 103.761 236.717V236.706ZM85.6589 191.71C88.9795 188.441 93.3185 186.146 98.1117 185.121C102.905 184.097 107.931 184.391 112.535 185.966C117.139 187.54 121.11 190.323 123.93 193.951C126.749 197.579 128.288 201.885 128.346 206.309V206.787C128.182 212.56 125.505 218.045 120.889 222.067C116.274 226.088 110.087 228.325 103.656 228.299C97.2248 228.272 91.0614 225.984 86.4872 221.924C81.9131 217.865 79.2925 212.358 79.1873 206.584C79.1864 202.175 80.6692 197.868 83.4413 194.23L85.4778 191.934L85.6362 191.72L85.6589 191.71Z" fill="#EAEAEA" fill-opacity="0.2"/>
<path d="M290.603 138.81H184.144C178.858 138.822 173.794 140.721 170.062 144.09C166.33 147.46 164.236 152.024 164.238 156.782V181.616C164.242 184.066 164.804 186.488 165.891 188.734C166.978 190.979 168.565 193 170.556 194.671L170.686 194.779C172.756 196.444 175.164 197.733 177.777 198.576L178.108 198.703C180.056 199.262 182.089 199.545 184.134 199.543H220.611C229.667 199.541 238.492 202.117 245.823 206.902C253.154 211.687 258.616 218.437 261.427 226.186C261.648 226.817 262.056 227.382 262.609 227.819C263.162 228.256 263.837 228.548 264.561 228.663C264.668 228.672 264.775 228.672 264.882 228.663H265.274C265.877 228.661 266.472 228.541 267.018 228.312C267.564 228.082 268.049 227.748 268.437 227.334L306.14 184.934C309.003 181.731 310.562 177.744 310.559 173.633V156.782C310.56 154.422 310.045 152.085 309.043 149.905C308.041 147.724 306.571 145.743 304.718 144.074C302.864 142.405 300.664 141.081 298.242 140.178C295.82 139.274 293.225 138.81 290.603 138.81ZM172.203 165.208V156.782C172.2 153.938 173.45 151.21 175.68 149.195C177.909 147.179 180.935 146.042 184.094 146.033H290.603C293.765 146.04 296.795 147.176 299.027 149.191C301.26 151.206 302.514 153.936 302.514 156.782V173.652C302.478 176.112 301.531 178.492 299.823 180.414L266.369 218.049C262.186 210.325 255.672 203.817 247.573 199.269C239.475 194.72 230.117 192.315 220.571 192.329C220.159 192.329 219.788 192.329 219.326 192.329C219.149 192.318 218.971 192.318 218.793 192.329H184.094C182.942 192.322 181.796 192.173 180.689 191.886C178.955 191.345 177.358 190.5 175.989 189.4C174.795 188.408 173.843 187.204 173.191 185.865C172.539 184.525 172.203 183.079 172.203 181.616V166.094C172.232 165.966 172.249 165.836 172.253 165.705C172.255 165.538 172.239 165.371 172.203 165.208Z" fill="#EAEAEA" fill-opacity="0.2"/>
<path d="M206.799 212.585C197.947 212.572 189.448 215.7 183.154 221.289C176.86 226.879 173.281 234.475 173.197 242.424V242.993C173.235 249.056 175.31 254.968 179.152 259.955C182.995 264.941 188.424 268.769 194.73 270.938C201.037 273.106 207.925 273.514 214.493 272.108C221.062 270.702 227.005 267.547 231.543 263.057C231.701 262.936 231.781 262.834 231.758 262.834L231.95 262.621L232.052 262.509L232.177 262.387L234.089 260.203C234.245 260.081 234.382 259.941 234.496 259.786C237.956 255.257 239.973 249.966 240.328 244.483C240.684 239 239.366 233.534 236.515 228.675C233.665 223.816 229.39 219.748 224.153 216.91C218.916 214.073 212.916 212.574 206.799 212.575V212.585ZM224.902 257.582C221.581 260.85 217.242 263.146 212.449 264.17C207.656 265.195 202.63 264.901 198.026 263.326C193.421 261.751 189.451 258.969 186.631 255.341C183.811 251.713 182.272 247.406 182.214 242.982V242.505C182.379 236.732 185.056 231.246 189.671 227.225C194.287 223.204 200.474 220.966 206.905 220.993C213.336 221.019 219.499 223.308 224.073 227.367C228.647 231.427 231.268 236.934 231.373 242.708C231.374 247.117 229.891 251.423 227.119 255.062L225.083 257.358L224.924 257.571L224.902 257.582Z" fill="#EAEAEA" fill-opacity="0.2"/>
<path d="M276.764 310.482H383.223C388.509 310.47 393.573 308.571 397.305 305.202C401.037 301.832 403.132 297.268 403.129 292.51V267.676C403.125 265.226 402.563 262.804 401.476 260.558C400.389 258.313 398.802 256.292 396.812 254.621L396.681 254.513C394.611 252.848 392.204 251.559 389.591 250.716L389.259 250.589C387.311 250.03 385.278 249.747 383.233 249.749H346.756C337.7 249.751 328.876 247.175 321.545 242.39C314.214 237.605 308.752 230.855 305.94 223.106C305.719 222.475 305.311 221.91 304.758 221.473C304.206 221.036 303.531 220.744 302.806 220.629C302.7 220.62 302.592 220.62 302.485 220.629H302.093C301.491 220.631 300.895 220.751 300.349 220.98C299.803 221.21 299.318 221.544 298.93 221.958L261.227 264.358C258.365 267.56 256.805 271.548 256.808 275.659V292.51C256.807 294.87 257.322 297.207 258.324 299.387C259.327 301.568 260.796 303.549 262.65 305.218C264.503 306.887 266.703 308.211 269.125 309.114C271.547 310.017 274.143 310.482 276.764 310.482ZM395.165 284.084V292.51C395.167 295.354 393.917 298.082 391.688 300.097C389.458 302.113 386.432 303.25 383.273 303.259H276.764C273.602 303.252 270.573 302.116 268.34 300.101C266.107 298.086 264.853 295.356 264.853 292.51V275.64C264.889 273.18 265.836 270.8 267.544 268.878L300.999 231.243C305.182 238.967 311.695 245.475 319.794 250.023C327.893 254.572 337.25 256.977 346.796 256.963C347.208 256.963 347.579 256.963 348.041 256.963C348.219 256.974 348.396 256.974 348.574 256.963H383.273C384.425 256.97 385.571 257.119 386.678 257.406C388.412 257.947 390.009 258.792 391.378 259.892C392.572 260.884 393.525 262.088 394.176 263.427C394.828 264.767 395.164 266.213 395.165 267.676V283.198C395.135 283.326 395.118 283.456 395.114 283.587C395.112 283.754 395.129 283.921 395.165 284.084Z" fill="#EAEAEA" fill-opacity="0.2"/>
<path d="M360.57 236.706C369.422 236.72 377.921 233.591 384.215 228.002C390.509 222.413 394.088 214.816 394.172 206.868V206.299C394.135 200.236 392.059 194.323 388.217 189.337C384.374 184.351 378.945 180.522 372.639 178.354C366.333 176.185 359.444 175.777 352.876 177.183C346.307 178.589 340.365 181.744 335.826 186.234C335.668 186.356 335.589 186.458 335.611 186.458L335.419 186.671L335.317 186.783L335.193 186.905L333.281 189.089C333.124 189.21 332.987 189.351 332.873 189.505C329.413 194.034 327.397 199.326 327.041 204.809C326.685 210.292 328.003 215.758 330.854 220.617C333.705 225.476 337.979 229.544 343.216 232.381C348.453 235.219 354.453 236.718 360.57 236.717V236.706ZM342.467 191.71C345.788 188.441 350.127 186.146 354.92 185.121C359.714 184.097 364.739 184.391 369.344 185.966C373.948 187.54 377.918 190.323 380.738 193.951C383.558 197.579 385.097 201.885 385.155 206.309V206.787C384.99 212.56 382.313 218.045 377.698 222.067C373.082 226.088 366.896 228.325 360.465 228.299C354.033 228.272 347.87 225.984 343.296 221.924C338.722 217.865 336.101 212.358 335.996 206.584C335.995 202.175 337.478 197.868 340.25 194.23L342.286 191.934L342.445 191.72L342.467 191.71Z" fill="#EAEAEA" fill-opacity="0.2"/>
<path d="M547.412 138.81H440.953C435.667 138.822 430.602 140.721 426.871 144.09C423.139 147.46 421.044 152.024 421.047 156.782V181.616C421.05 184.066 421.613 186.488 422.7 188.734C423.786 190.979 425.374 193 427.364 194.671L427.495 194.779C429.565 196.444 431.972 197.733 434.585 198.576L434.917 198.703C436.865 199.262 438.898 199.545 440.943 199.543H477.42C486.476 199.541 495.3 202.117 502.631 206.902C509.962 211.687 515.424 218.437 518.236 226.186C518.456 226.817 518.865 227.382 519.418 227.819C519.97 228.256 520.645 228.548 521.369 228.663C521.476 228.672 521.584 228.672 521.691 228.663H522.082C522.685 228.661 523.28 228.541 523.827 228.312C524.373 228.082 524.857 227.748 525.246 227.334L562.949 184.934C565.811 181.731 567.371 177.744 567.368 173.633V156.782C567.369 154.422 566.854 152.085 565.851 149.905C564.849 147.724 563.379 145.743 561.526 144.074C559.673 142.405 557.473 141.081 555.051 140.178C552.629 139.274 550.033 138.81 547.412 138.81ZM429.011 165.208V156.782C429.009 153.938 430.259 151.21 432.488 149.195C434.717 147.179 437.743 146.042 440.902 146.033H547.412C550.574 146.04 553.603 147.176 555.836 149.191C558.069 151.206 559.323 153.936 559.323 156.782V173.652C559.287 176.112 558.34 178.492 556.631 180.414L523.177 218.049C518.994 210.325 512.481 203.817 504.382 199.269C496.283 194.72 486.926 192.315 477.38 192.329C476.968 192.329 476.596 192.329 476.134 192.329C475.957 192.318 475.779 192.318 475.602 192.329H440.902C439.75 192.322 438.605 192.173 437.498 191.886C435.764 191.345 434.166 190.5 432.798 189.4C431.604 188.408 430.651 187.204 430 185.865C429.348 184.525 429.011 183.079 429.011 181.616V166.094C429.041 165.966 429.057 165.836 429.061 165.705C429.064 165.538 429.047 165.371 429.011 165.208Z" fill="#EAEAEA" fill-opacity="0.2"/>
<path d="M463.606 212.585C454.754 212.572 446.255 215.7 439.961 221.289C433.666 226.879 430.087 234.475 430.004 242.424V242.993C430.041 249.056 432.117 254.968 435.959 259.955C439.801 264.941 445.231 268.769 451.537 270.938C457.843 273.106 464.731 273.514 471.3 272.108C477.869 270.702 483.811 267.547 488.35 263.057C488.508 262.936 488.587 262.834 488.565 262.834L488.757 262.621L488.859 262.509L488.983 262.387L490.895 260.203C491.052 260.081 491.189 259.941 491.303 259.786C494.762 255.257 496.779 249.966 497.135 244.483C497.491 239 496.172 233.534 493.322 228.675C490.471 223.816 486.197 219.748 480.96 216.91C475.723 214.073 469.722 212.574 463.606 212.575V212.585ZM481.708 257.582C478.388 260.85 474.049 263.146 469.255 264.17C464.462 265.195 459.437 264.901 454.832 263.326C450.228 261.751 446.257 258.969 443.438 255.341C440.618 251.713 439.079 247.406 439.021 242.982V242.505C439.185 236.732 441.862 231.246 446.478 227.225C451.094 223.204 457.28 220.966 463.711 220.993C470.142 221.019 476.306 223.308 480.88 227.367C485.454 231.427 488.075 236.934 488.18 242.708C488.181 247.117 486.698 251.423 483.926 255.062L481.889 257.358L481.731 257.571L481.708 257.582Z" fill="#EAEAEA" fill-opacity="0.2"/>
</svg>
