<svg width="464" height="275" viewBox="0 0 464 275" fill="none" xmlns="http://www.w3.org/2000/svg">
<g opacity="0.6">
<path d="M443.759 -36.2927H340.178C335.035 -36.2811 330.108 -34.4384 326.477 -31.1689C322.846 -27.8995 320.808 -23.4704 320.811 -18.8537V5.24352C320.814 7.62023 321.361 9.97095 322.419 12.1499C323.476 14.3289 325.021 16.2896 326.957 17.9105L327.084 18.0158C329.098 19.6313 331.44 20.8823 333.983 21.7001L334.305 21.8229C336.201 22.3652 338.179 22.6404 340.168 22.6387H375.659C384.47 22.6365 393.056 25.1357 400.189 29.779C407.322 34.4223 412.636 40.9717 415.372 48.4903C415.586 49.1031 415.984 49.6512 416.522 50.0751C417.059 50.4989 417.716 50.7821 418.421 50.8939C418.525 50.9026 418.629 50.9026 418.733 50.8939H419.114C419.701 50.8921 420.28 50.7759 420.812 50.5532C421.343 50.3305 421.814 50.0068 422.193 49.6044L458.876 8.46289C461.661 5.35542 463.178 1.48613 463.175 -2.50232V-18.8537C463.177 -21.1434 462.675 -23.4109 461.7 -25.5266C460.725 -27.6424 459.295 -29.5649 457.492 -31.1844C455.689 -32.8039 453.548 -34.0886 451.191 -34.9651C448.835 -35.8416 446.31 -36.2927 443.759 -36.2927ZM328.56 -10.678V-18.8537C328.557 -21.613 329.774 -24.2607 331.942 -26.2159C334.111 -28.1712 337.056 -29.2745 340.129 -29.2838H443.759C446.835 -29.2768 449.783 -28.1748 451.956 -26.2196C454.128 -24.2643 455.348 -21.6153 455.348 -18.8537V-2.48478C455.313 -0.0968857 454.391 2.21223 452.729 4.07681L420.18 40.5954C416.11 33.1007 409.773 26.7856 401.893 22.3722C394.013 17.9588 384.908 15.6253 375.62 15.6385C375.22 15.6385 374.858 15.6385 374.409 15.6385C374.236 15.6275 374.063 15.6275 373.891 15.6385H340.129C339.008 15.6317 337.894 15.4871 336.817 15.2087C335.13 14.6837 333.575 13.8638 332.244 12.7963C331.082 11.8338 330.155 10.6658 329.521 9.36597C328.887 8.06611 328.56 6.66253 328.56 5.24352V-9.81831C328.588 -9.94252 328.604 -10.0687 328.608 -10.1955C328.611 -10.3574 328.595 -10.5191 328.56 -10.678Z" fill="#EAEAEA" fill-opacity="0.2"/>
<path d="M443.759 -36.2927H340.178C335.035 -36.2811 330.108 -34.4384 326.477 -31.1689C322.846 -27.8995 320.808 -23.4704 320.811 -18.8537V5.24352C320.814 7.62023 321.361 9.97095 322.419 12.1499C323.476 14.3289 325.021 16.2896 326.957 17.9105L327.084 18.0158C329.098 19.6313 331.44 20.8823 333.983 21.7001L334.305 21.8229C336.201 22.3652 338.179 22.6404 340.168 22.6387H375.659C384.47 22.6365 393.056 25.1357 400.189 29.779C407.322 34.4223 412.636 40.9717 415.372 48.4903C415.586 49.1031 415.984 49.6512 416.522 50.0751C417.059 50.4989 417.716 50.7821 418.421 50.8939C418.525 50.9026 418.629 50.9026 418.733 50.8939H419.114C419.701 50.8921 420.28 50.7759 420.812 50.5532C421.343 50.3305 421.814 50.0068 422.193 49.6044L458.876 8.46289C461.661 5.35542 463.178 1.48613 463.175 -2.50232V-18.8537C463.177 -21.1434 462.675 -23.4109 461.7 -25.5266C460.725 -27.6424 459.295 -29.5649 457.492 -31.1844C455.689 -32.8039 453.548 -34.0886 451.191 -34.9651C448.835 -35.8416 446.31 -36.2927 443.759 -36.2927ZM328.56 -10.678V-18.8537C328.557 -21.613 329.774 -24.2607 331.942 -26.2159C334.111 -28.1712 337.056 -29.2745 340.129 -29.2838H443.759C446.835 -29.2768 449.783 -28.1748 451.956 -26.2196C454.128 -24.2643 455.348 -21.6153 455.348 -18.8537V-2.48478C455.313 -0.0968857 454.391 2.21223 452.729 4.07681L420.18 40.5954C416.11 33.1007 409.773 26.7856 401.893 22.3722C394.013 17.9588 384.908 15.6253 375.62 15.6385C375.22 15.6385 374.858 15.6385 374.409 15.6385C374.236 15.6275 374.063 15.6275 373.891 15.6385H340.129C339.008 15.6317 337.894 15.4871 336.817 15.2087C335.13 14.6837 333.575 13.8638 332.244 12.7963C331.082 11.8338 330.155 10.6658 329.521 9.36597C328.887 8.06611 328.56 6.66253 328.56 5.24352V-9.81831C328.588 -9.94252 328.604 -10.0687 328.608 -10.1955C328.611 -10.3574 328.595 -10.5191 328.56 -10.678Z" fill="#EAEAEA" fill-opacity="0.2"/>
<path d="M368.813 28.628C360.145 28.6147 351.823 31.628 345.66 37.0112C339.496 42.3943 335.992 49.7109 335.91 57.3664V57.9143C335.947 63.7544 337.979 69.4486 341.741 74.2511C345.504 79.0537 350.82 82.7407 356.995 84.8294C363.17 86.9181 369.915 87.311 376.347 85.9568C382.779 84.6025 388.598 81.5642 393.042 77.2396C393.197 77.1222 393.274 77.0244 393.252 77.0244L393.44 76.8189L393.54 76.7113L393.662 76.5938L395.534 74.4901C395.687 74.3731 395.821 74.2381 395.933 74.0889C399.321 69.7269 401.296 64.6305 401.644 59.3497C401.993 54.0689 400.702 48.8043 397.91 44.1243C395.119 39.4442 390.933 35.5263 385.805 32.7936C380.678 30.0609 374.802 28.6172 368.813 28.6182V28.628ZM386.539 71.9656C383.287 75.1137 379.038 77.3249 374.345 78.3116C369.651 79.2984 364.73 79.015 360.222 77.4983C355.713 75.9816 351.825 73.3018 349.064 69.8074C346.303 66.3129 344.796 62.1656 344.74 57.9046V57.4447C344.901 51.8844 347.522 46.6012 352.041 42.728C356.561 38.8547 362.619 36.6999 368.916 36.7255C375.213 36.7511 381.248 38.9551 385.727 42.8649C390.206 46.7748 392.772 52.079 392.875 57.6404C392.876 61.8867 391.424 66.0341 388.71 69.5389L386.716 71.7503L386.561 71.9558L386.539 71.9656Z" fill="#EAEAEA" fill-opacity="0.2"/>
<path d="M198.94 95.7288H302.521C307.664 95.7401 312.591 97.5419 316.222 100.739C319.853 103.935 321.891 108.266 321.889 112.78V136.342C321.885 138.666 321.338 140.964 320.28 143.095C319.223 145.225 317.679 147.143 315.742 148.727L315.615 148.83C313.601 150.41 311.259 151.633 308.716 152.433L308.394 152.553C306.498 153.083 304.52 153.352 302.531 153.351H267.04C258.229 153.348 249.643 155.792 242.51 160.332C235.377 164.872 230.063 171.276 227.327 178.628C227.113 179.227 226.715 179.763 226.178 180.177C225.64 180.592 224.983 180.868 224.279 180.978C224.175 180.986 224.07 180.986 223.966 180.978H223.585C222.998 180.976 222.419 180.862 221.888 180.645C221.356 180.427 220.885 180.11 220.507 179.717L183.823 139.49C181.038 136.451 179.521 132.668 179.524 128.768V112.78C179.523 110.541 180.024 108.324 180.999 106.256C181.974 104.187 183.404 102.307 185.207 100.724C187.01 99.1401 189.151 97.8839 191.508 97.0269C193.864 96.1699 196.39 95.7288 198.94 95.7288ZM314.14 120.774V112.78C314.142 110.082 312.926 107.493 310.757 105.582C308.588 103.67 305.644 102.591 302.57 102.582H198.94C195.864 102.589 192.916 103.666 190.744 105.578C188.571 107.49 187.351 110.08 187.351 112.78V128.785C187.386 131.12 188.308 133.378 189.97 135.201L222.52 170.908C226.589 163.58 232.927 157.405 240.807 153.09C248.687 148.775 257.791 146.493 267.079 146.506C267.48 146.506 267.841 146.506 268.291 146.506C268.463 146.495 268.636 146.495 268.808 146.506H302.57C303.691 146.499 304.805 146.358 305.883 146.086C307.569 145.572 309.124 144.771 310.456 143.727C311.617 142.786 312.544 141.644 313.178 140.373C313.812 139.102 314.139 137.729 314.14 136.342V121.615C314.111 121.493 314.095 121.37 314.091 121.246C314.088 121.088 314.105 120.93 314.14 120.774Z" fill="#EAEAEA" fill-opacity="0.2"/>
<path d="M274.425 159.681C283.235 159.668 291.694 162.731 297.958 168.204C304.222 173.677 307.784 181.116 307.867 188.899V189.456C307.83 195.393 305.764 201.182 301.94 206.065C298.116 210.947 292.712 214.696 286.436 216.819C280.16 218.943 273.305 219.342 266.768 217.965C260.23 216.588 254.316 213.5 249.799 209.103C249.642 208.984 249.563 208.884 249.585 208.884L249.394 208.675L249.293 208.566L249.169 208.446L247.266 206.308C247.11 206.189 246.974 206.051 246.86 205.9C243.417 201.465 241.41 196.284 241.055 190.915C240.701 185.546 242.014 180.194 244.851 175.436C247.688 170.678 251.942 166.695 257.154 163.916C262.366 161.138 268.338 159.67 274.425 159.671V159.681ZM256.409 203.741C259.714 206.942 264.032 209.19 268.802 210.193C273.573 211.196 278.575 210.908 283.157 209.366C287.74 207.824 291.691 205.1 294.497 201.547C297.304 197.994 298.835 193.778 298.893 189.446V188.978C298.729 183.325 296.065 177.954 291.472 174.016C286.878 170.079 280.721 167.888 274.32 167.914C267.92 167.94 261.786 170.181 257.233 174.156C252.681 178.13 250.073 183.523 249.968 189.177C249.967 193.494 251.443 197.711 254.202 201.274L256.229 203.522L256.386 203.731L256.409 203.741Z" fill="#EAEAEA" fill-opacity="0.2"/>
<path d="M274.425 159.681C283.235 159.668 291.694 162.731 297.958 168.204C304.222 173.677 307.784 181.116 307.867 188.899V189.456C307.83 195.393 305.764 201.182 301.94 206.065C298.116 210.947 292.712 214.696 286.436 216.819C280.16 218.943 273.305 219.342 266.768 217.965C260.23 216.588 254.316 213.5 249.799 209.103C249.642 208.984 249.563 208.884 249.585 208.884L249.394 208.675L249.293 208.566L249.169 208.446L247.266 206.308C247.11 206.189 246.974 206.051 246.86 205.9C243.417 201.465 241.41 196.284 241.055 190.915C240.701 185.546 242.014 180.194 244.851 175.436C247.688 170.678 251.942 166.695 257.154 163.916C262.366 161.138 268.338 159.67 274.425 159.671V159.681ZM256.409 203.741C259.714 206.942 264.032 209.19 268.802 210.193C273.573 211.196 278.575 210.908 283.157 209.366C287.74 207.824 291.691 205.1 294.497 201.547C297.304 197.994 298.835 193.778 298.893 189.446V188.978C298.729 183.325 296.065 177.954 291.472 174.016C286.878 170.079 280.721 167.888 274.32 167.914C267.92 167.94 261.786 170.181 257.233 174.156C252.681 178.13 250.073 183.523 249.968 189.177C249.967 193.494 251.443 197.711 254.202 201.274L256.229 203.522L256.386 203.731L256.409 203.741Z" fill="#EAEAEA" fill-opacity="0.2"/>
<path d="M55.6437 218.768H160.009C165.191 218.757 170.156 216.914 173.814 213.645C177.473 210.375 179.526 205.946 179.523 201.329V177.232C179.52 174.855 178.968 172.505 177.903 170.326C176.838 168.147 175.281 166.186 173.33 164.565L173.202 164.46C171.173 162.844 168.813 161.593 166.251 160.775L165.926 160.653C164.016 160.11 162.024 159.835 160.019 159.837H124.259C115.381 159.839 106.73 157.34 99.5435 152.697C92.3566 148.053 87.002 141.504 84.2457 133.985C84.0296 133.373 83.6289 132.824 83.0872 132.401C82.5456 131.977 81.8837 131.693 81.1738 131.582C81.069 131.573 80.9636 131.573 80.8588 131.582H80.4748C79.8838 131.583 79.3003 131.7 78.7648 131.922C78.2293 132.145 77.7545 132.469 77.3734 132.871L40.4123 174.013C37.606 177.12 36.0773 180.989 36.0801 184.978V201.329C36.0788 203.619 36.5839 205.886 37.5665 208.002C38.5491 210.118 39.9899 212.041 41.8067 213.66C43.6235 215.279 45.7806 216.564 48.1548 217.441C50.529 218.317 53.0737 218.768 55.6437 218.768ZM171.716 193.154V201.329C171.718 204.089 170.493 206.736 168.307 208.692C166.122 210.647 163.155 211.75 160.058 211.759H55.6437C52.544 211.752 49.574 210.65 47.3849 208.695C45.1959 206.74 43.9666 204.091 43.9666 201.329V184.96C44.002 182.572 44.9306 180.263 46.6053 178.399L79.4016 141.88C83.5023 149.375 89.8875 155.69 97.8271 160.103C105.767 164.517 114.94 166.85 124.298 166.837C124.702 166.837 125.066 166.837 125.519 166.837C125.693 166.848 125.867 166.848 126.041 166.837H160.058C161.188 166.844 162.311 166.988 163.396 167.267C165.096 167.792 166.662 168.612 168.004 169.679C169.174 170.642 170.108 171.81 170.747 173.11C171.386 174.409 171.716 175.813 171.716 177.232V192.294C171.687 192.418 171.67 192.544 171.666 192.671C171.664 192.833 171.68 192.995 171.716 193.154Z" fill="#EAEAEA" fill-opacity="0.2"/>
<path d="M55.6437 218.768H160.009C165.191 218.757 170.156 216.914 173.814 213.645C177.473 210.375 179.526 205.946 179.523 201.329V177.232C179.52 174.855 178.968 172.505 177.903 170.326C176.838 168.147 175.281 166.186 173.33 164.565L173.202 164.46C171.173 162.844 168.813 161.593 166.251 160.775L165.926 160.653C164.016 160.11 162.024 159.835 160.019 159.837H124.259C115.381 159.839 106.73 157.34 99.5435 152.697C92.3566 148.053 87.002 141.504 84.2457 133.985C84.0296 133.373 83.6289 132.824 83.0872 132.401C82.5456 131.977 81.8837 131.693 81.1738 131.582C81.069 131.573 80.9636 131.573 80.8588 131.582H80.4748C79.8838 131.583 79.3003 131.7 78.7648 131.922C78.2293 132.145 77.7545 132.469 77.3734 132.871L40.4123 174.013C37.606 177.12 36.0773 180.989 36.0801 184.978V201.329C36.0788 203.619 36.5839 205.886 37.5665 208.002C38.5491 210.118 39.9899 212.041 41.8067 213.66C43.6235 215.279 45.7806 216.564 48.1548 217.441C50.529 218.317 53.0737 218.768 55.6437 218.768ZM171.716 193.154V201.329C171.718 204.089 170.493 206.736 168.307 208.692C166.122 210.647 163.155 211.75 160.058 211.759H55.6437C52.544 211.752 49.574 210.65 47.3849 208.695C45.1959 206.74 43.9666 204.091 43.9666 201.329V184.96C44.002 182.572 44.9306 180.263 46.6053 178.399L79.4016 141.88C83.5023 149.375 89.8875 155.69 97.8271 160.103C105.767 164.517 114.94 166.85 124.298 166.837C124.702 166.837 125.066 166.837 125.519 166.837C125.693 166.848 125.867 166.848 126.041 166.837H160.058C161.188 166.844 162.311 166.988 163.396 167.267C165.096 167.792 166.662 168.612 168.004 169.679C169.174 170.642 170.108 171.81 170.747 173.11C171.386 174.409 171.716 175.813 171.716 177.232V192.294C171.687 192.418 171.67 192.544 171.666 192.671C171.664 192.833 171.68 192.995 171.716 193.154Z" fill="#EAEAEA" fill-opacity="0.2"/>
<path d="M130.982 152.879C139.791 152.892 148.25 149.929 154.515 144.636C160.779 139.342 164.341 132.148 164.424 124.62V124.081C164.387 118.338 162.321 112.739 158.497 108.016C154.673 103.294 149.269 99.6683 142.993 97.6144C136.717 95.5606 129.862 95.1742 123.324 96.5059C116.787 97.8376 110.873 100.825 106.356 105.078C106.198 105.193 106.119 105.289 106.142 105.289L105.951 105.491L105.849 105.597L105.725 105.713L103.822 107.781C103.667 107.896 103.53 108.029 103.417 108.176C99.9735 112.465 97.9663 117.477 97.6121 122.669C97.258 127.862 98.5702 133.039 101.407 137.641C104.244 142.243 108.499 146.096 113.711 148.783C118.923 151.47 124.894 152.89 130.982 152.889V152.879ZM112.966 110.264C116.27 107.168 120.589 104.994 125.359 104.024C130.13 103.053 135.131 103.332 139.714 104.823C144.296 106.315 148.248 108.95 151.054 112.386C153.86 115.822 155.392 119.9 155.45 124.09V124.543C155.286 130.01 152.622 135.205 148.028 139.014C143.435 142.823 137.277 144.942 130.877 144.916C124.476 144.891 118.342 142.724 113.79 138.879C109.238 135.035 106.629 129.819 106.525 124.35C106.524 120.175 108 116.096 110.759 112.65L112.785 110.476L112.943 110.273L112.966 110.264Z" fill="#EAEAEA" fill-opacity="0.2"/>
<path d="M130.982 152.879C139.791 152.892 148.25 149.929 154.515 144.636C160.779 139.342 164.341 132.148 164.424 124.62V124.081C164.387 118.338 162.321 112.739 158.497 108.016C154.673 103.294 149.269 99.6683 142.993 97.6144C136.717 95.5606 129.862 95.1742 123.324 96.5059C116.787 97.8376 110.873 100.825 106.356 105.078C106.198 105.193 106.119 105.289 106.142 105.289L105.951 105.491L105.849 105.597L105.725 105.713L103.822 107.781C103.667 107.896 103.53 108.029 103.417 108.176C99.9735 112.465 97.9663 117.477 97.6121 122.669C97.258 127.862 98.5702 133.039 101.407 137.641C104.244 142.243 108.499 146.096 113.711 148.783C118.923 151.47 124.894 152.89 130.982 152.889V152.879ZM112.966 110.264C116.27 107.168 120.589 104.994 125.359 104.024C130.13 103.053 135.131 103.332 139.714 104.823C144.296 106.315 148.248 108.95 151.054 112.386C153.86 115.822 155.392 119.9 155.45 124.09V124.543C155.286 130.01 152.622 135.205 148.028 139.014C143.435 142.823 137.277 144.942 130.877 144.916C124.476 144.891 118.342 142.724 113.79 138.879C109.238 135.035 106.629 129.819 106.525 124.35C106.524 120.175 108 116.096 110.759 112.65L112.785 110.476L112.943 110.273L112.966 110.264Z" fill="#EAEAEA" fill-opacity="0.2"/>
<path d="M302.472 73.1833H198.891C193.748 73.1717 188.821 71.329 185.19 68.0595C181.559 64.7901 179.521 60.361 179.523 55.7443V31.6471C179.527 29.2704 180.074 26.9197 181.132 24.7407C182.189 22.5617 183.734 20.601 185.67 18.9801L185.797 18.8748C187.811 17.2594 190.153 16.0084 192.696 15.1905L193.018 15.0677C194.914 14.5254 196.892 14.2502 198.881 14.2519H234.372C243.183 14.2542 251.769 11.7549 258.902 7.11163C266.035 2.46836 271.349 -4.08104 274.085 -11.5997C274.299 -12.2125 274.697 -12.7606 275.235 -13.1844C275.772 -13.6083 276.429 -13.8915 277.134 -14.0033C277.238 -14.0119 277.342 -14.0119 277.446 -14.0033H277.827C278.414 -14.0015 278.993 -13.8852 279.524 -13.6626C280.056 -13.4399 280.527 -13.1162 280.905 -12.7138L317.589 28.4277C320.374 31.5352 321.891 35.4045 321.888 39.3929V55.7443C321.89 58.034 321.388 60.3015 320.413 62.4173C319.438 64.533 318.008 66.4556 316.205 68.075C314.402 69.6945 312.261 70.9792 309.904 71.8557C307.548 72.7322 305.022 73.1833 302.472 73.1833ZM187.272 47.5686V55.7443C187.27 58.5036 188.486 61.1513 190.655 63.1066C192.824 65.0618 195.768 66.1651 198.842 66.1744H302.472C305.548 66.1674 308.496 65.0655 310.668 63.1102C312.841 61.1549 314.061 58.506 314.061 55.7443V39.3754C314.026 36.9875 313.104 34.6784 311.442 32.8138L278.892 -3.70474C274.823 3.7899 268.485 10.105 260.605 14.5185C252.726 18.9319 243.621 21.2654 234.333 21.2521C233.933 21.2521 233.571 21.2521 233.122 21.2521C232.949 21.2632 232.776 21.2632 232.604 21.2521H198.842C197.721 21.2589 196.607 21.4035 195.53 21.6819C193.843 22.207 192.288 23.0269 190.956 24.0943C189.795 25.0568 188.868 26.2248 188.234 27.5247C187.6 28.8245 187.273 30.2281 187.272 31.6471V46.7089C187.301 46.8331 187.317 46.9594 187.321 47.0861C187.324 47.248 187.307 47.4098 187.272 47.5686Z" fill="#EAEAEA" fill-opacity="0.2"/>
<path d="M302.472 73.1833H198.891C193.748 73.1717 188.821 71.329 185.19 68.0595C181.559 64.7901 179.521 60.361 179.523 55.7443V31.6471C179.527 29.2704 180.074 26.9197 181.132 24.7407C182.189 22.5617 183.734 20.601 185.67 18.9801L185.797 18.8748C187.811 17.2594 190.153 16.0084 192.696 15.1905L193.018 15.0677C194.914 14.5254 196.892 14.2502 198.881 14.2519H234.372C243.183 14.2542 251.769 11.7549 258.902 7.11163C266.035 2.46836 271.349 -4.08104 274.085 -11.5997C274.299 -12.2125 274.697 -12.7606 275.235 -13.1844C275.772 -13.6083 276.429 -13.8915 277.134 -14.0033C277.238 -14.0119 277.342 -14.0119 277.446 -14.0033H277.827C278.414 -14.0015 278.993 -13.8852 279.524 -13.6626C280.056 -13.4399 280.527 -13.1162 280.905 -12.7138L317.589 28.4277C320.374 31.5352 321.891 35.4045 321.888 39.3929V55.7443C321.89 58.034 321.388 60.3015 320.413 62.4173C319.438 64.533 318.008 66.4556 316.205 68.075C314.402 69.6945 312.261 70.9792 309.904 71.8557C307.548 72.7322 305.022 73.1833 302.472 73.1833ZM187.272 47.5686V55.7443C187.27 58.5036 188.486 61.1513 190.655 63.1066C192.824 65.0618 195.768 66.1651 198.842 66.1744H302.472C305.548 66.1674 308.496 65.0655 310.668 63.1102C312.841 61.1549 314.061 58.506 314.061 55.7443V39.3754C314.026 36.9875 313.104 34.6784 311.442 32.8138L278.892 -3.70474C274.823 3.7899 268.485 10.105 260.605 14.5185C252.726 18.9319 243.621 21.2654 234.333 21.2521C233.933 21.2521 233.571 21.2521 233.122 21.2521C232.949 21.2632 232.776 21.2632 232.604 21.2521H198.842C197.721 21.2589 196.607 21.4035 195.53 21.6819C193.843 22.207 192.288 23.0269 190.956 24.0943C189.795 25.0568 188.868 26.2248 188.234 27.5247C187.6 28.8245 187.273 30.2281 187.272 31.6471V46.7089C187.301 46.8331 187.317 46.9594 187.321 47.0861C187.324 47.248 187.307 47.4098 187.272 47.5686Z" fill="#EAEAEA" fill-opacity="0.2"/>
<path d="M228.065 7.29481C219.255 7.30784 210.797 4.34476 204.532 -0.948655C198.268 -6.24207 194.706 -13.4367 194.623 -20.9646V-21.5034C194.66 -27.2461 196.726 -32.8453 200.55 -37.5678C204.374 -42.2903 209.778 -45.9159 216.054 -47.9698C222.33 -50.0236 229.185 -50.41 235.723 -49.0783C242.26 -47.7466 248.174 -44.7589 252.691 -40.5065C252.849 -40.3911 252.927 -40.2948 252.905 -40.2948L253.096 -40.0928L253.198 -39.9869L253.322 -39.8715L255.225 -37.8028C255.38 -37.6877 255.516 -37.555 255.63 -37.4083C259.073 -33.119 261.081 -28.1076 261.435 -22.9148C261.789 -17.722 260.477 -12.5452 257.64 -7.94317C254.802 -3.34111 250.548 0.511418 245.336 3.19857C240.124 5.88571 234.152 7.30542 228.065 7.30444V7.29481ZM246.081 -35.3204C242.777 -38.416 238.458 -40.5904 233.688 -41.5607C228.917 -42.5309 223.916 -42.2523 219.333 -40.7608C214.751 -39.2694 210.799 -36.6343 207.993 -33.1982C205.186 -29.762 203.655 -25.6837 203.597 -21.4938V-21.0415C203.761 -15.574 206.425 -10.3788 211.019 -6.57016C215.612 -2.7615 221.769 -0.642588 228.17 -0.667763C234.57 -0.692938 240.705 -2.86022 245.257 -6.70485C249.809 -10.5495 252.417 -15.7653 252.522 -21.234C252.523 -25.4095 251.047 -29.4878 248.288 -32.9341L246.262 -35.1087L246.104 -35.3107L246.081 -35.3204Z" fill="#EAEAEA" fill-opacity="0.2"/>
<path d="M228.065 7.29481C219.255 7.30784 210.797 4.34476 204.532 -0.948655C198.268 -6.24207 194.706 -13.4367 194.623 -20.9646V-21.5034C194.66 -27.2461 196.726 -32.8453 200.55 -37.5678C204.374 -42.2903 209.778 -45.9159 216.054 -47.9698C222.33 -50.0236 229.185 -50.41 235.723 -49.0783C242.26 -47.7466 248.174 -44.7589 252.691 -40.5065C252.849 -40.3911 252.927 -40.2948 252.905 -40.2948L253.096 -40.0928L253.198 -39.9869L253.322 -39.8715L255.225 -37.8028C255.38 -37.6877 255.516 -37.555 255.63 -37.4083C259.073 -33.119 261.081 -28.1076 261.435 -22.9148C261.789 -17.722 260.477 -12.5452 257.64 -7.94317C254.802 -3.34111 250.548 0.511418 245.336 3.19857C240.124 5.88571 234.152 7.30542 228.065 7.30444V7.29481ZM246.081 -35.3204C242.777 -38.416 238.458 -40.5904 233.688 -41.5607C228.917 -42.5309 223.916 -42.2523 219.333 -40.7608C214.751 -39.2694 210.799 -36.6343 207.993 -33.1982C205.186 -29.762 203.655 -25.6837 203.597 -21.4938V-21.0415C203.761 -15.574 206.425 -10.3788 211.019 -6.57016C215.612 -2.7615 221.769 -0.642588 228.17 -0.667763C234.57 -0.692938 240.705 -2.86022 245.257 -6.70485C249.809 -10.5495 252.417 -15.7653 252.522 -21.234C252.523 -25.4095 251.047 -29.4878 248.288 -32.9341L246.262 -35.1087L246.104 -35.3107L246.081 -35.3204Z" fill="#EAEAEA" fill-opacity="0.2"/>
<path d="M78.1397 37.3374H-25.441C-30.5837 37.349 -35.5113 39.1918 -39.1424 42.4612C-42.7734 45.7307 -44.8112 50.1598 -44.8086 54.7765V78.8738C-44.8051 81.2505 -44.2577 83.6012 -43.2004 85.7802C-42.1431 87.9591 -40.5984 89.9199 -38.6621 91.5408L-38.5351 91.6461C-36.5212 93.2615 -34.1787 94.5125 -31.6362 95.3304L-31.3138 95.4532C-29.4181 95.9955 -27.4403 96.2707 -25.4507 96.269H10.0403C18.8512 96.2668 27.4371 98.766 34.57 103.409C41.7028 108.053 47.0172 114.602 49.7528 122.121C49.9672 122.733 50.3649 123.282 50.9025 123.705C51.4401 124.129 52.097 124.412 52.8015 124.524C52.9056 124.533 53.0102 124.533 53.1142 124.524H53.4953C54.0819 124.522 54.6609 124.406 55.1924 124.184C55.724 123.961 56.1952 123.637 56.5734 123.235L93.2566 82.0931C96.0418 78.9857 97.559 75.1164 97.5562 71.1279V54.7765C97.5575 52.4868 97.0562 50.2193 96.081 48.1035C95.1058 45.9878 93.6758 44.0652 91.8727 42.4457C90.0696 40.8262 87.9287 39.5415 85.5723 38.665C83.216 37.7885 80.6903 37.3374 78.1397 37.3374ZM-37.0596 62.9522V54.7765C-37.0622 52.0172 -35.8456 49.3695 -33.6767 47.4142C-31.5078 45.4589 -28.5636 44.3557 -25.4898 44.3464H78.1397C81.2161 44.3533 84.1638 45.4553 86.3364 47.4106C88.509 49.3659 89.729 52.0148 89.729 54.7765V71.1454C89.6939 73.5333 88.7723 75.8425 87.1102 77.707L54.5604 114.226C50.4906 106.731 44.1534 100.416 36.2734 96.0025C28.3935 91.589 19.289 89.2555 10.0012 89.2688C9.60057 89.2688 9.23903 89.2688 8.78953 89.2688C8.61711 89.2577 8.44404 89.2577 8.27163 89.2688H-25.4898C-26.6107 89.262 -27.7253 89.1174 -28.8024 88.839C-30.4894 88.3139 -32.0437 87.494 -33.3756 86.4266C-34.5371 85.4641 -35.464 84.2961 -36.098 82.9962C-36.732 81.6964 -37.0594 80.2928 -37.0596 78.8738V63.8119C-37.031 63.6877 -37.0147 63.5615 -37.0107 63.4347C-37.0082 63.2728 -37.0246 63.1111 -37.0596 62.9522Z" fill="#EAEAEA" fill-opacity="0.2"/>
<path d="M78.1397 37.3374H-25.441C-30.5837 37.349 -35.5113 39.1918 -39.1424 42.4612C-42.7734 45.7307 -44.8112 50.1598 -44.8086 54.7765V78.8738C-44.8051 81.2505 -44.2577 83.6012 -43.2004 85.7802C-42.1431 87.9591 -40.5984 89.9199 -38.6621 91.5408L-38.5351 91.6461C-36.5212 93.2615 -34.1787 94.5125 -31.6362 95.3304L-31.3138 95.4532C-29.4181 95.9955 -27.4403 96.2707 -25.4507 96.269H10.0403C18.8512 96.2668 27.4371 98.766 34.57 103.409C41.7028 108.053 47.0172 114.602 49.7528 122.121C49.9672 122.733 50.3649 123.282 50.9025 123.705C51.4401 124.129 52.097 124.412 52.8015 124.524C52.9056 124.533 53.0102 124.533 53.1142 124.524H53.4953C54.0819 124.522 54.6609 124.406 55.1924 124.184C55.724 123.961 56.1952 123.637 56.5734 123.235L93.2566 82.0931C96.0418 78.9857 97.559 75.1164 97.5562 71.1279V54.7765C97.5575 52.4868 97.0562 50.2193 96.081 48.1035C95.1058 45.9878 93.6758 44.0652 91.8727 42.4457C90.0696 40.8262 87.9287 39.5415 85.5723 38.665C83.216 37.7885 80.6903 37.3374 78.1397 37.3374ZM-37.0596 62.9522V54.7765C-37.0622 52.0172 -35.8456 49.3695 -33.6767 47.4142C-31.5078 45.4589 -28.5636 44.3557 -25.4898 44.3464H78.1397C81.2161 44.3533 84.1638 45.4553 86.3364 47.4106C88.509 49.3659 89.729 52.0148 89.729 54.7765V71.1454C89.6939 73.5333 88.7723 75.8425 87.1102 77.707L54.5604 114.226C50.4906 106.731 44.1534 100.416 36.2734 96.0025C28.3935 91.589 19.289 89.2555 10.0012 89.2688C9.60057 89.2688 9.23903 89.2688 8.78953 89.2688C8.61711 89.2577 8.44404 89.2577 8.27163 89.2688H-25.4898C-26.6107 89.262 -27.7253 89.1174 -28.8024 88.839C-30.4894 88.3139 -32.0437 87.494 -33.3756 86.4266C-34.5371 85.4641 -35.464 84.2961 -36.098 82.9962C-36.732 81.6964 -37.0594 80.2928 -37.0596 78.8738V63.8119C-37.031 63.6877 -37.0147 63.5615 -37.0107 63.4347C-37.0082 63.2728 -37.0246 63.1111 -37.0596 62.9522Z" fill="#EAEAEA" fill-opacity="0.2"/>
<path d="M2.65516 112.209C-6.15475 112.196 -14.6136 115.159 -20.8778 120.452C-27.1421 125.746 -30.7039 132.94 -30.7871 140.468V141.007C-30.75 146.75 -28.6842 152.349 -24.8602 157.072C-21.0363 161.794 -15.6324 165.42 -9.35639 167.474C-3.08038 169.528 3.77518 169.914 10.3125 168.582C16.8498 167.251 22.7641 164.263 27.2808 160.01C27.4385 159.895 27.5173 159.799 27.4948 159.799L27.6862 159.597L27.7875 159.491L27.9114 159.375L29.8143 157.307C29.9699 157.192 30.1063 157.059 30.2197 156.912C33.6632 152.623 35.6704 147.611 36.0246 142.419C36.3787 137.226 35.0665 132.049 32.2294 127.447C29.3923 122.845 25.1382 118.992 19.9262 116.305C14.7142 113.618 8.74232 112.198 2.65516 112.199V112.209ZM20.6712 154.824C17.3664 157.92 13.048 160.094 8.27761 161.065C3.50722 162.035 -1.49445 161.756 -6.077 160.265C-10.6596 158.773 -14.611 156.138 -17.4174 152.702C-20.2238 149.266 -21.7553 145.188 -21.8129 140.998V140.545C-21.6493 135.078 -18.9851 129.883 -14.3915 126.074C-9.79788 122.265 -3.64069 120.146 2.75979 120.171C9.16027 120.197 15.2944 122.364 19.8468 126.209C24.3991 130.053 27.0073 135.269 27.1119 140.738C27.1129 144.913 25.6371 148.992 22.8782 152.438L20.8514 154.613L20.6937 154.815L20.6712 154.824Z" fill="#EAEAEA" fill-opacity="0.2"/>
<path d="M2.65516 112.209C-6.15475 112.196 -14.6136 115.159 -20.8778 120.452C-27.1421 125.746 -30.7039 132.94 -30.7871 140.468V141.007C-30.75 146.75 -28.6842 152.349 -24.8602 157.072C-21.0363 161.794 -15.6324 165.42 -9.35639 167.474C-3.08038 169.528 3.77518 169.914 10.3125 168.582C16.8498 167.251 22.7641 164.263 27.2808 160.01C27.4385 159.895 27.5173 159.799 27.4948 159.799L27.6862 159.597L27.7875 159.491L27.9114 159.375L29.8143 157.307C29.9699 157.192 30.1063 157.059 30.2197 156.912C33.6632 152.623 35.6704 147.611 36.0246 142.419C36.3787 137.226 35.0665 132.049 32.2294 127.447C29.3923 122.845 25.1382 118.992 19.9262 116.305C14.7142 113.618 8.74232 112.198 2.65516 112.199V112.209ZM20.6712 154.824C17.3664 157.92 13.048 160.094 8.27761 161.065C3.50722 162.035 -1.49445 161.756 -6.077 160.265C-10.6596 158.773 -14.611 156.138 -17.4174 152.702C-20.2238 149.266 -21.7553 145.188 -21.8129 140.998V140.545C-21.6493 135.078 -18.9851 129.883 -14.3915 126.074C-9.79788 122.265 -3.64069 120.146 2.75979 120.171C9.16027 120.197 15.2944 122.364 19.8468 126.209C24.3991 130.053 27.0073 135.269 27.1119 140.738C27.1129 144.913 25.6371 148.992 22.8782 152.438L20.8514 154.613L20.6937 154.815L20.6712 154.824Z" fill="#EAEAEA" fill-opacity="0.2"/>
<path d="M-68.8338 191.352L-69.2075 283.839C-69.2131 288.431 -67.1799 292.838 -63.554 296.091C-59.9281 299.345 -55.0058 301.18 -49.8673 301.195L-23.0466 301.28C-20.4013 301.285 -17.7829 300.805 -15.3538 299.869C-12.9248 298.932 -10.7369 297.56 -8.92577 295.837L-8.80816 295.724C-7.00285 293.931 -5.60201 291.844 -4.68257 289.577L-4.5447 289.29C-3.93428 287.599 -3.62084 285.834 -3.61554 284.057L-3.4875 252.367C-3.45823 244.5 -0.645528 236.843 4.54827 230.49C9.74207 224.138 17.0509 219.416 25.4292 217C26.1119 216.811 26.7235 216.458 27.1971 215.979C27.6708 215.501 27.9884 214.915 28.1154 214.286C28.1254 214.194 28.1258 214.1 28.1165 214.007L28.1179 213.667C28.118 213.143 27.9907 212.626 27.7448 212.15C27.4989 211.675 27.1402 211.253 26.6937 210.914L-18.9653 178.013C-22.4139 175.515 -26.7151 174.147 -31.1543 174.135L-49.3537 174.077C-51.9022 174.068 -54.4278 174.508 -56.7862 175.371C-59.1446 176.234 -61.2896 177.504 -63.0986 179.108C-64.9076 180.713 -66.3452 182.62 -67.3293 184.72C-68.3134 186.821 -68.8246 189.075 -68.8338 191.352ZM-40.7396 294.305L-49.8393 294.275C-52.9106 294.268 -55.8531 293.172 -58.0215 291.229C-60.1899 289.285 -61.4073 286.652 -61.4065 283.908L-61.0327 191.377C-61.0138 188.63 -59.7767 186.002 -57.5926 184.069C-55.4085 182.136 -52.4557 181.056 -49.3819 181.066L-31.163 181.124C-28.5054 181.164 -25.9386 181.995 -23.8693 183.486L16.6592 212.679C8.30286 216.287 1.25111 221.923 -3.68954 228.943C-8.63018 235.963 -11.2603 244.084 -11.279 252.377C-11.2805 252.735 -11.2818 253.058 -11.2834 253.459C-11.2963 253.613 -11.2969 253.768 -11.2853 253.922L-11.4071 284.067C-11.4187 285.068 -11.5837 286.063 -11.8974 287.024C-12.4879 288.528 -13.406 289.913 -14.5989 291.098C-15.6744 292.132 -16.9778 292.956 -18.4268 293.517C-19.8759 294.079 -21.4393 294.366 -23.0187 294.361L-39.7828 294.308C-39.9209 294.282 -40.0614 294.267 -40.2025 294.263C-40.3827 294.26 -40.5627 294.274 -40.7396 294.305Z" fill="#EAEAEA" fill-opacity="0.2"/>
<path d="M4.11844 258.232C4.07228 266.007 7.39598 273.484 13.3652 279.032C19.3344 284.58 27.4652 287.75 35.9856 287.85L36.5955 287.852C43.0957 287.84 49.4408 286.037 54.7997 282.679C60.1587 279.321 64.2817 274.565 66.6289 269.033C68.976 263.501 69.4378 257.452 67.9538 251.677C66.4698 245.902 63.1091 240.671 58.312 236.669C58.1818 236.53 58.0732 236.46 58.0731 236.48L57.8451 236.31L57.7257 236.22L57.5954 236.111L55.2607 234.424C55.131 234.286 54.9812 234.165 54.8156 234.064C49.9729 231.01 44.3076 229.22 38.4313 228.889C32.5549 228.557 26.6907 229.697 21.4716 232.184C16.2524 234.672 11.8767 238.412 8.81652 243.003C5.75638 247.593 4.12814 252.859 4.10754 258.232L4.11844 258.232ZM52.4182 242.484C55.9104 245.413 58.3561 249.232 59.4373 253.446C60.5186 257.66 60.1853 262.073 58.4809 266.112C56.7764 270.152 53.7797 273.63 49.8803 276.094C45.9809 278.559 41.3594 279.896 36.6166 279.931L36.1047 279.93C29.9166 279.766 24.0458 277.395 19.7512 273.327C15.4566 269.259 13.0802 263.817 13.1315 258.168C13.1829 252.519 15.6579 247.113 20.0258 243.109C24.3937 239.105 30.3068 236.822 36.497 236.749C41.2232 236.763 45.8342 238.08 49.7252 240.528L52.1793 242.325L52.4074 242.465L52.4182 242.484Z" fill="#EAEAEA" fill-opacity="0.2"/>
</g>
</svg>
