<svg width="1440" height="705" viewBox="0 0 1440 705" fill="none" xmlns="http://www.w3.org/2000/svg">
<g opacity="0.5">
<path d="M1475.34 590.972C1475.38 582.047 1471.96 573.464 1465.81 567.094C1459.67 560.724 1451.29 557.085 1442.52 556.968L1441.89 556.966C1435.19 556.978 1428.66 559.047 1423.14 562.901C1417.62 566.755 1413.37 572.214 1410.95 578.564C1408.53 584.914 1408.06 591.858 1409.59 598.487C1411.11 605.117 1414.58 611.122 1419.52 615.716C1419.65 615.876 1419.76 615.957 1419.76 615.934L1420 616.129L1420.12 616.232L1420.25 616.358L1422.66 618.295C1422.79 618.453 1422.95 618.592 1423.12 618.707C1428.1 622.215 1433.94 624.27 1439.99 624.651C1446.04 625.032 1452.08 623.725 1457.46 620.87C1462.84 618.016 1467.34 613.722 1470.5 608.453C1473.65 603.184 1475.33 597.14 1475.35 590.973L1475.34 590.972ZM1425.59 609.042C1421.99 605.68 1419.47 601.296 1418.36 596.458C1417.24 591.621 1417.59 586.554 1419.34 581.918C1421.1 577.281 1424.19 573.289 1428.2 570.461C1432.22 567.632 1436.98 566.098 1441.87 566.058L1442.39 566.06C1448.77 566.249 1454.81 568.971 1459.24 573.642C1463.66 578.312 1466.11 584.559 1466.05 591.044C1466 597.529 1463.45 603.734 1458.95 608.33C1454.45 612.926 1448.36 615.546 1441.98 615.628C1437.12 615.611 1432.37 614.098 1428.36 611.288L1425.83 609.225L1425.6 609.065L1425.59 609.042Z" fill="#EAEAEA" fill-opacity="0.2"/>
<path d="M1409.36 415.795L1408.96 522.46C1408.93 527.756 1406.85 532.823 1403.17 536.549C1399.49 540.274 1394.52 542.354 1389.34 542.332L1362.33 542.232C1359.67 542.219 1357.04 541.646 1354.6 540.548C1352.16 539.45 1349.97 537.851 1348.16 535.85L1348.04 535.719C1346.24 533.639 1344.84 531.221 1343.94 528.6L1343.8 528.267C1343.2 526.313 1342.9 524.275 1342.91 522.226L1343.04 485.678C1343.08 476.605 1340.31 467.753 1335.13 460.388C1329.95 453.024 1322.63 447.524 1314.22 444.676C1313.53 444.452 1312.92 444.041 1312.44 443.485C1311.97 442.93 1311.66 442.252 1311.53 441.526C1311.52 441.419 1311.52 441.311 1311.54 441.204L1311.54 440.812C1311.54 440.208 1311.67 439.612 1311.92 439.065C1312.18 438.519 1312.54 438.035 1312.99 437.647L1359.25 400.042C1362.74 397.187 1367.09 395.641 1371.56 395.66L1389.89 395.728C1392.45 395.736 1394.99 396.262 1397.36 397.275C1399.73 398.288 1401.88 399.769 1403.69 401.632C1405.49 403.496 1406.93 405.706 1407.9 408.136C1408.87 410.566 1409.37 413.169 1409.36 415.795ZM1380.21 534.319L1389.37 534.353C1392.47 534.367 1395.44 533.125 1397.64 530.9C1399.84 528.674 1401.09 525.647 1401.11 522.482L1401.5 415.766C1401.51 412.598 1400.28 409.558 1398.1 407.313C1395.92 405.067 1392.95 403.8 1389.86 403.788L1371.51 403.721C1368.83 403.747 1366.24 404.686 1364.14 406.39L1323.08 439.758C1331.47 443.98 1338.52 450.532 1343.44 458.665C1348.36 466.798 1350.94 476.183 1350.89 485.747C1350.89 486.16 1350.89 486.532 1350.88 486.995C1350.9 487.173 1350.9 487.351 1350.88 487.528L1350.75 522.295C1350.76 523.45 1350.91 524.598 1351.22 525.708C1351.8 527.448 1352.72 529.052 1353.91 530.428C1354.98 531.628 1356.29 532.587 1357.74 533.245C1359.2 533.904 1360.77 534.247 1362.36 534.253L1379.24 534.315C1379.38 534.286 1379.53 534.27 1379.67 534.266C1379.85 534.264 1380.03 534.282 1380.21 534.319Z" fill="#EAEAEA" fill-opacity="0.2"/>
<path d="M1335.76 493.257C1335.74 502.329 1332.19 511.027 1325.9 517.454C1319.6 523.882 1311.06 527.518 1302.13 527.571L1301.5 527.569C1294.69 527.505 1288.06 525.353 1282.48 521.395C1276.9 517.436 1272.62 511.856 1270.21 505.384C1267.8 498.912 1267.37 491.85 1268.97 485.124C1270.57 478.398 1274.14 472.321 1279.19 467.688C1279.33 467.526 1279.45 467.446 1279.45 467.469L1279.69 467.273L1279.81 467.169L1279.95 467.042L1282.41 465.091C1282.55 464.931 1282.7 464.791 1282.88 464.675C1287.97 461.148 1293.92 459.103 1300.08 458.761C1306.23 458.419 1312.36 459.793 1317.81 462.735C1323.25 465.677 1327.8 470.075 1330.97 475.454C1334.13 480.833 1335.79 486.988 1335.77 493.257L1335.76 493.257ZM1285.32 474.517C1281.63 477.907 1279.04 482.344 1277.87 487.253C1276.7 492.161 1277.02 497.313 1278.77 502.038C1280.52 506.764 1283.62 510.844 1287.69 513.749C1291.75 516.655 1296.58 518.25 1301.54 518.327L1302.08 518.329C1308.56 518.185 1314.73 515.464 1319.26 510.75C1323.79 506.037 1326.32 499.705 1326.32 493.114C1326.31 486.523 1323.77 480.197 1319.23 475.492C1314.69 470.787 1308.52 468.078 1302.04 467.947C1297.09 467.927 1292.25 469.429 1288.15 472.255L1285.57 474.333L1285.33 474.494L1285.32 474.517Z" fill="#EAEAEA" fill-opacity="0.2"/>
<path d="M1335.76 493.257C1335.74 502.329 1332.19 511.027 1325.9 517.454C1319.6 523.882 1311.06 527.518 1302.13 527.571L1301.5 527.569C1294.69 527.505 1288.06 525.353 1282.48 521.395C1276.9 517.436 1272.62 511.856 1270.21 505.384C1267.8 498.912 1267.37 491.85 1268.97 485.124C1270.57 478.398 1274.14 472.321 1279.19 467.688C1279.33 467.526 1279.45 467.446 1279.45 467.469L1279.69 467.273L1279.81 467.169L1279.95 467.042L1282.41 465.091C1282.55 464.931 1282.7 464.791 1282.88 464.675C1287.97 461.148 1293.92 459.103 1300.08 458.761C1306.23 458.419 1312.36 459.793 1317.81 462.735C1323.25 465.677 1327.8 470.075 1330.97 475.454C1334.13 480.833 1335.79 486.988 1335.77 493.257L1335.76 493.257ZM1285.32 474.517C1281.63 477.907 1279.04 482.344 1277.87 487.253C1276.7 492.161 1277.02 497.313 1278.77 502.038C1280.52 506.764 1283.62 510.844 1287.69 513.749C1291.75 516.655 1296.58 518.25 1301.54 518.327L1302.08 518.329C1308.56 518.185 1314.73 515.464 1319.26 510.75C1323.79 506.037 1326.32 499.705 1326.32 493.114C1326.31 486.523 1323.77 480.197 1319.23 475.492C1314.69 470.787 1308.52 468.078 1302.04 467.947C1297.09 467.927 1292.25 469.429 1288.15 472.255L1285.57 474.333L1285.33 474.494L1285.32 474.517Z" fill="#EAEAEA" fill-opacity="0.2"/>
<path d="M1320.94 -2.13789L1320.55 104.527C1320.51 109.823 1318.41 114.89 1314.69 118.615C1310.97 122.341 1305.94 124.421 1300.7 124.398L1273.38 124.297C1270.69 124.284 1268.03 123.71 1265.56 122.612C1263.1 121.514 1260.88 119.915 1259.05 117.915L1258.93 117.783C1257.11 115.703 1255.7 113.285 1254.78 110.664L1254.64 110.331C1254.03 108.377 1253.73 106.339 1253.74 104.29L1253.87 67.7421C1253.91 58.6689 1251.11 49.8168 1245.87 42.452C1240.64 35.0873 1233.23 29.5872 1224.72 26.7386C1224.02 26.5152 1223.4 26.1034 1222.93 25.548C1222.45 24.9926 1222.13 24.315 1222.01 23.5889C1222 23.4818 1222 23.374 1222.01 23.267L1222.01 22.8745C1222.01 22.2705 1222.15 21.6747 1222.4 21.1283C1222.66 20.5819 1223.02 20.098 1223.48 19.7101L1270.26 -17.8928C1273.79 -20.7479 1278.19 -22.294 1282.71 -22.2744L1301.25 -22.2058C1303.84 -22.1975 1306.41 -21.6718 1308.8 -20.6586C1311.2 -19.6455 1313.37 -18.1649 1315.2 -16.3013C1317.03 -14.4377 1318.48 -12.2276 1319.46 -9.79742C1320.45 -7.36722 1320.95 -4.76448 1320.94 -2.13789ZM1291.46 116.384L1300.73 116.419C1303.86 116.433 1306.87 115.191 1309.09 112.966C1311.32 110.741 1312.58 107.713 1312.6 104.548L1313 -2.1673C1313 -5.33532 1311.76 -8.37544 1309.55 -10.6209C1307.34 -12.8664 1304.35 -14.1339 1301.22 -14.1455L1282.66 -14.2142C1279.95 -14.188 1277.33 -13.2487 1275.21 -11.5449L1233.69 21.8209C1242.17 26.0434 1249.3 32.5958 1254.28 40.7289C1259.25 48.862 1261.86 58.2474 1261.81 67.8118C1261.81 68.2243 1261.81 68.5967 1261.8 69.0595C1261.82 69.2371 1261.82 69.4154 1261.8 69.5929L1261.67 104.36C1261.68 105.514 1261.84 106.662 1262.15 107.773C1262.74 109.512 1263.66 111.116 1264.87 112.492C1265.95 113.692 1267.27 114.652 1268.74 115.31C1270.22 115.968 1271.81 116.311 1273.41 116.318L1290.49 116.381C1290.63 116.352 1290.77 116.336 1290.92 116.332C1291.1 116.33 1291.28 116.348 1291.46 116.384Z" fill="#EAEAEA" fill-opacity="0.2"/>
<path d="M1320.94 -2.13789L1320.55 104.527C1320.51 109.823 1318.41 114.89 1314.69 118.615C1310.97 122.341 1305.94 124.421 1300.7 124.398L1273.38 124.297C1270.69 124.284 1268.03 123.71 1265.56 122.612C1263.1 121.514 1260.88 119.915 1259.05 117.915L1258.93 117.783C1257.11 115.703 1255.7 113.285 1254.78 110.664L1254.64 110.331C1254.03 108.377 1253.73 106.339 1253.74 104.29L1253.87 67.7421C1253.91 58.6689 1251.11 49.8168 1245.87 42.452C1240.64 35.0873 1233.23 29.5872 1224.72 26.7386C1224.02 26.5152 1223.4 26.1034 1222.93 25.548C1222.45 24.9926 1222.13 24.315 1222.01 23.5889C1222 23.4818 1222 23.374 1222.01 23.267L1222.01 22.8745C1222.01 22.2705 1222.15 21.6747 1222.4 21.1283C1222.66 20.5819 1223.02 20.098 1223.48 19.7101L1270.26 -17.8928C1273.79 -20.7479 1278.19 -22.294 1282.71 -22.2744L1301.25 -22.2058C1303.84 -22.1975 1306.41 -21.6718 1308.8 -20.6586C1311.2 -19.6455 1313.37 -18.1649 1315.2 -16.3013C1317.03 -14.4377 1318.48 -12.2276 1319.46 -9.79742C1320.45 -7.36722 1320.95 -4.76448 1320.94 -2.13789ZM1291.46 116.384L1300.73 116.419C1303.86 116.433 1306.87 115.191 1309.09 112.966C1311.32 110.741 1312.58 107.713 1312.6 104.548L1313 -2.1673C1313 -5.33532 1311.76 -8.37544 1309.55 -10.6209C1307.34 -12.8664 1304.35 -14.1339 1301.22 -14.1455L1282.66 -14.2142C1279.95 -14.188 1277.33 -13.2487 1275.21 -11.5449L1233.69 21.8209C1242.17 26.0434 1249.3 32.5958 1254.28 40.7289C1259.25 48.862 1261.86 58.2474 1261.81 67.8118C1261.81 68.2243 1261.81 68.5967 1261.8 69.0595C1261.82 69.2371 1261.82 69.4154 1261.8 69.5929L1261.67 104.36C1261.68 105.514 1261.84 106.662 1262.15 107.773C1262.74 109.512 1263.66 111.116 1264.87 112.492C1265.95 113.692 1267.27 114.652 1268.74 115.31C1270.22 115.968 1271.81 116.311 1273.41 116.318L1290.49 116.381C1290.63 116.352 1290.77 116.336 1290.92 116.332C1291.1 116.33 1291.28 116.348 1291.46 116.384Z" fill="#EAEAEA" fill-opacity="0.2"/>
<path d="M1246.23 75.3196C1246.21 84.3919 1242.78 93.0901 1236.69 99.5184C1230.6 105.947 1222.34 109.584 1213.71 109.638L1213.09 109.636C1206.5 109.573 1200.09 107.422 1194.69 103.464C1189.3 99.5061 1185.16 93.926 1182.83 87.4543C1180.5 80.9827 1180.08 73.9214 1181.63 67.195C1183.18 60.4687 1186.63 54.3909 1191.52 49.7578C1191.66 49.5959 1191.77 49.5152 1191.77 49.5384L1192 49.3421L1192.12 49.2382L1192.25 49.1111L1194.63 47.1603C1194.77 47.0006 1194.92 46.8607 1195.09 46.7445C1200.02 43.2167 1205.77 41.171 1211.72 40.8283C1217.68 40.4856 1223.61 41.8589 1228.87 44.8C1234.14 47.7411 1238.54 52.1383 1241.6 57.5169C1244.66 62.8955 1246.27 69.0512 1246.24 75.3197L1246.23 75.3196ZM1197.44 56.5862C1193.88 59.9763 1191.37 64.4141 1190.24 69.3224C1189.11 74.2308 1189.41 79.3825 1191.11 84.1079C1192.8 88.8332 1195.8 92.9135 1199.73 95.8181C1203.66 98.7226 1208.33 100.317 1213.13 100.394L1213.65 100.396C1219.92 100.251 1225.89 97.5293 1230.27 92.8151C1234.65 88.1008 1237.11 81.7693 1237.1 75.1781C1237.1 68.5869 1234.64 62.2609 1230.25 57.5567C1225.86 52.8524 1219.89 50.1445 1213.62 50.0135C1208.83 49.9948 1204.15 51.4972 1200.19 54.3237L1197.69 56.4016L1197.46 56.5631L1197.44 56.5862Z" fill="#EAEAEA" fill-opacity="0.2"/>
<path d="M1268.86 267.71L1268.46 375.183C1268.45 380.519 1270.54 385.64 1274.28 389.421C1278.01 393.202 1283.08 395.335 1288.37 395.352L1316 395.455C1318.72 395.461 1321.42 394.903 1323.92 393.815C1326.43 392.727 1328.68 391.133 1330.54 389.131L1330.67 389C1332.53 386.917 1333.97 384.492 1334.92 381.857L1335.06 381.523C1335.69 379.558 1336.01 377.507 1336.02 375.443L1336.15 338.618C1336.18 329.476 1339.08 320.578 1344.43 313.197C1349.78 305.816 1357.31 300.33 1365.94 297.523C1366.64 297.303 1367.27 296.893 1367.76 296.337C1368.25 295.781 1368.58 295.101 1368.71 294.37C1368.72 294.262 1368.72 294.153 1368.71 294.046L1368.71 293.65C1368.71 293.042 1368.58 292.44 1368.33 291.888C1368.07 291.335 1367.7 290.845 1367.24 290.451L1320.22 252.215C1316.67 249.311 1312.24 247.721 1307.67 247.707L1288.92 247.637C1286.3 247.626 1283.7 248.137 1281.27 249.14C1278.84 250.143 1276.63 251.618 1274.76 253.482C1272.9 255.346 1271.42 257.562 1270.41 260.003C1269.39 262.444 1268.86 265.063 1268.86 267.71ZM1297.78 387.347L1288.4 387.312C1285.24 387.303 1282.21 386.03 1279.98 383.771C1277.74 381.512 1276.49 378.453 1276.49 375.263L1276.89 267.739C1276.91 264.547 1278.18 261.494 1280.43 259.248C1282.68 257.002 1285.73 255.747 1288.89 255.759L1307.66 255.828C1310.39 255.875 1313.04 256.841 1315.17 258.573L1356.91 292.501C1348.3 296.692 1341.04 303.241 1335.95 311.398C1330.86 319.555 1328.15 328.992 1328.13 338.629C1328.13 339.045 1328.12 339.42 1328.12 339.886C1328.11 340.065 1328.11 340.245 1328.12 340.424L1327.99 375.454C1327.98 376.617 1327.81 377.773 1327.49 378.889C1326.88 380.637 1325.93 382.247 1324.7 383.624C1323.59 384.825 1322.25 385.782 1320.76 386.434C1319.27 387.086 1317.66 387.42 1316.03 387.414L1298.76 387.35C1298.62 387.32 1298.48 387.303 1298.33 387.298C1298.14 387.295 1297.96 387.311 1297.78 387.347Z" fill="#EAEAEA" fill-opacity="0.2"/>
<path d="M1268.86 267.71L1268.46 375.183C1268.45 380.519 1270.54 385.64 1274.28 389.421C1278.01 393.202 1283.08 395.335 1288.37 395.352L1316 395.455C1318.72 395.461 1321.42 394.903 1323.92 393.815C1326.43 392.727 1328.68 391.133 1330.54 389.131L1330.67 389C1332.53 386.917 1333.97 384.492 1334.92 381.857L1335.06 381.523C1335.69 379.558 1336.01 377.507 1336.02 375.443L1336.15 338.618C1336.18 329.476 1339.08 320.578 1344.43 313.197C1349.78 305.816 1357.31 300.33 1365.94 297.523C1366.64 297.303 1367.27 296.893 1367.76 296.337C1368.25 295.781 1368.58 295.101 1368.71 294.37C1368.72 294.262 1368.72 294.153 1368.71 294.046L1368.71 293.65C1368.71 293.042 1368.58 292.44 1368.33 291.888C1368.07 291.335 1367.7 290.845 1367.24 290.451L1320.22 252.215C1316.67 249.311 1312.24 247.721 1307.67 247.707L1288.92 247.637C1286.3 247.626 1283.7 248.137 1281.27 249.14C1278.84 250.143 1276.63 251.618 1274.76 253.482C1272.9 255.346 1271.42 257.562 1270.41 260.003C1269.39 262.444 1268.86 265.063 1268.86 267.71ZM1297.78 387.347L1288.4 387.312C1285.24 387.303 1282.21 386.03 1279.98 383.771C1277.74 381.512 1276.49 378.453 1276.49 375.263L1276.89 267.739C1276.91 264.547 1278.18 261.494 1280.43 259.248C1282.68 257.002 1285.73 255.747 1288.89 255.759L1307.66 255.828C1310.39 255.875 1313.04 256.841 1315.17 258.573L1356.91 292.501C1348.3 296.692 1341.04 303.241 1335.95 311.398C1330.86 319.555 1328.15 328.992 1328.13 338.629C1328.13 339.045 1328.12 339.42 1328.12 339.886C1328.11 340.065 1328.11 340.245 1328.12 340.424L1327.99 375.454C1327.98 376.617 1327.81 377.773 1327.49 378.889C1326.88 380.637 1325.93 382.247 1324.7 383.624C1323.59 384.825 1322.25 385.782 1320.76 386.434C1319.27 387.086 1317.66 387.42 1316.03 387.414L1298.76 387.35C1298.62 387.32 1298.48 387.303 1298.33 387.298C1298.14 387.295 1297.96 387.311 1297.78 387.347Z" fill="#EAEAEA" fill-opacity="0.2"/>
<path d="M1344.1 345.571C1344.05 354.643 1347.42 363.366 1353.46 369.84C1359.5 376.313 1367.74 380.011 1376.37 380.129L1376.99 380.131C1383.57 380.117 1390 378.014 1395.42 374.096C1400.85 370.178 1405.03 364.629 1407.41 358.175C1409.79 351.721 1410.26 344.662 1408.75 337.925C1407.25 331.187 1403.85 325.084 1398.99 320.415C1398.86 320.252 1398.75 320.17 1398.75 320.194L1398.52 319.996L1398.4 319.891L1398.27 319.763L1395.9 317.794C1395.77 317.634 1395.62 317.493 1395.45 317.375C1390.55 313.811 1384.81 311.723 1378.86 311.336C1372.91 310.949 1366.97 312.279 1361.68 315.181C1356.39 318.083 1351.96 322.447 1348.86 327.803C1345.76 333.159 1344.11 339.302 1344.09 345.571L1344.1 345.571ZM1393.02 327.199C1396.56 330.616 1399.03 335.072 1400.13 339.988C1401.22 344.905 1400.88 350.054 1399.16 354.767C1397.43 359.48 1394.39 363.538 1390.44 366.413C1386.49 369.288 1381.81 370.848 1377.01 370.89L1376.49 370.888C1370.22 370.696 1364.28 367.931 1359.93 363.184C1355.58 358.437 1353.17 352.088 1353.23 345.497C1353.28 338.906 1355.79 332.598 1360.21 327.927C1364.64 323.255 1370.63 320.591 1376.9 320.507C1381.68 320.524 1386.35 322.061 1390.29 324.916L1392.78 327.013L1393.01 327.176L1393.02 327.199Z" fill="#EAEAEA" fill-opacity="0.2"/>
<path d="M1344.1 345.571C1344.05 354.643 1347.42 363.366 1353.46 369.84C1359.5 376.313 1367.74 380.011 1376.37 380.129L1376.99 380.131C1383.57 380.117 1390 378.014 1395.42 374.096C1400.85 370.178 1405.03 364.629 1407.41 358.175C1409.79 351.721 1410.26 344.662 1408.75 337.925C1407.25 331.187 1403.85 325.084 1398.99 320.415C1398.86 320.252 1398.75 320.17 1398.75 320.194L1398.52 319.996L1398.4 319.891L1398.27 319.763L1395.9 317.794C1395.77 317.634 1395.62 317.493 1395.45 317.375C1390.55 313.811 1384.81 311.723 1378.86 311.336C1372.91 310.949 1366.97 312.279 1361.68 315.181C1356.39 318.083 1351.96 322.447 1348.86 327.803C1345.76 333.159 1344.11 339.302 1344.09 345.571L1344.1 345.571ZM1393.02 327.199C1396.56 330.616 1399.03 335.072 1400.13 339.988C1401.22 344.905 1400.88 350.054 1399.16 354.767C1397.43 359.48 1394.39 363.538 1390.44 366.413C1386.49 369.288 1381.81 370.848 1377.01 370.89L1376.49 370.888C1370.22 370.696 1364.28 367.931 1359.93 363.184C1355.58 358.437 1353.17 352.088 1353.23 345.497C1353.28 338.906 1355.79 332.598 1360.21 327.927C1364.64 323.255 1370.63 320.591 1376.9 320.507C1381.68 320.524 1386.35 322.061 1390.29 324.916L1392.78 327.013L1393.01 327.176L1393.02 327.199Z" fill="#EAEAEA" fill-opacity="0.2"/>
<path d="M1424.51 522.468L1424.91 415.803C1424.94 410.507 1427.07 405.44 1430.83 401.715C1434.59 397.99 1439.68 395.91 1444.97 395.932L1472.6 396.034C1475.32 396.048 1478.01 396.622 1480.51 397.72C1483 398.818 1485.24 400.417 1487.1 402.418L1487.22 402.549C1489.06 404.63 1490.48 407.047 1491.41 409.669L1491.55 410.001C1492.17 411.956 1492.47 413.994 1492.47 416.043L1492.33 452.59C1492.29 461.664 1495.13 470.516 1500.42 477.881C1505.72 485.246 1513.21 490.746 1521.81 493.595C1522.52 493.819 1523.14 494.231 1523.63 494.786C1524.11 495.341 1524.43 496.019 1524.56 496.745C1524.57 496.852 1524.57 496.96 1524.56 497.067L1524.56 497.459C1524.55 498.063 1524.42 498.659 1524.16 499.206C1523.9 499.752 1523.53 500.236 1523.07 500.624L1475.76 538.225C1472.19 541.08 1467.75 542.626 1463.17 542.606L1444.43 542.536C1441.8 542.528 1439.21 542.002 1436.79 540.989C1434.36 539.976 1432.17 538.495 1430.32 536.631C1428.47 534.768 1427 532.558 1426.01 530.127C1425.01 527.697 1424.5 525.094 1424.51 522.468ZM1454.32 403.947L1444.94 403.912C1441.78 403.898 1438.74 405.139 1436.49 407.364C1434.24 409.59 1432.96 412.617 1432.94 415.782L1432.55 522.497C1432.54 525.665 1433.8 528.706 1436.03 530.951C1438.26 533.197 1441.29 534.464 1444.46 534.476L1463.22 534.546C1465.96 534.52 1468.61 533.58 1470.76 531.877L1512.75 498.513C1504.17 494.29 1496.95 487.737 1491.92 479.604C1486.89 471.47 1484.25 462.085 1484.31 452.521C1484.31 452.108 1484.31 451.736 1484.31 451.273C1484.3 451.095 1484.3 450.917 1484.31 450.739L1484.44 415.973C1484.44 414.818 1484.28 413.67 1483.96 412.56C1483.36 410.82 1482.43 409.216 1481.21 407.84C1480.11 406.64 1478.78 405.68 1477.29 405.022C1475.8 404.364 1474.19 404.02 1472.57 404.014L1455.3 403.95C1455.16 403.979 1455.01 403.995 1454.87 403.999C1454.68 404.001 1454.5 403.983 1454.32 403.947Z" fill="#EAEAEA" fill-opacity="0.2"/>
<path d="M1424.51 522.468L1424.91 415.803C1424.94 410.507 1427.07 405.44 1430.83 401.715C1434.59 397.99 1439.68 395.91 1444.97 395.932L1472.6 396.034C1475.32 396.048 1478.01 396.622 1480.51 397.72C1483 398.818 1485.24 400.417 1487.1 402.418L1487.22 402.549C1489.06 404.63 1490.48 407.047 1491.41 409.669L1491.55 410.001C1492.17 411.956 1492.47 413.994 1492.47 416.043L1492.33 452.59C1492.29 461.664 1495.13 470.516 1500.42 477.881C1505.72 485.246 1513.21 490.746 1521.81 493.595C1522.52 493.819 1523.14 494.231 1523.63 494.786C1524.11 495.341 1524.43 496.019 1524.56 496.745C1524.57 496.852 1524.57 496.96 1524.56 497.067L1524.56 497.459C1524.55 498.063 1524.42 498.659 1524.16 499.206C1523.9 499.752 1523.53 500.236 1523.07 500.624L1475.76 538.225C1472.19 541.08 1467.75 542.626 1463.17 542.606L1444.43 542.536C1441.8 542.528 1439.21 542.002 1436.79 540.989C1434.36 539.976 1432.17 538.495 1430.32 536.631C1428.47 534.768 1427 532.558 1426.01 530.127C1425.01 527.697 1424.5 525.094 1424.51 522.468ZM1454.32 403.947L1444.94 403.912C1441.78 403.898 1438.74 405.139 1436.49 407.364C1434.24 409.59 1432.96 412.617 1432.94 415.782L1432.55 522.497C1432.54 525.665 1433.8 528.706 1436.03 530.951C1438.26 533.197 1441.29 534.464 1444.46 534.476L1463.22 534.546C1465.96 534.52 1468.61 533.58 1470.76 531.877L1512.75 498.513C1504.17 494.29 1496.95 487.737 1491.92 479.604C1486.89 471.47 1484.25 462.085 1484.31 452.521C1484.31 452.108 1484.31 451.736 1484.31 451.273C1484.3 451.095 1484.3 450.917 1484.31 450.739L1484.44 415.973C1484.44 414.818 1484.28 413.67 1483.96 412.56C1483.36 410.82 1482.43 409.216 1481.21 407.84C1480.11 406.64 1478.78 405.68 1477.29 405.022C1475.8 404.364 1474.19 404.02 1472.57 404.014L1455.3 403.95C1455.16 403.979 1455.01 403.995 1454.87 403.999C1454.68 404.001 1454.5 403.983 1454.32 403.947Z" fill="#EAEAEA" fill-opacity="0.2"/>
<path d="M1466.46 291.607L1466.86 184.942C1466.86 179.646 1464.77 174.564 1461.03 170.811C1457.3 167.058 1452.23 164.94 1446.94 164.924L1419.31 164.821C1416.59 164.815 1413.89 165.369 1411.39 166.448C1408.89 167.528 1406.63 169.11 1404.77 171.097L1404.65 171.227C1402.79 173.294 1401.34 175.701 1400.4 178.316L1400.25 178.648C1399.63 180.597 1399.3 182.633 1399.3 184.682L1399.16 221.23C1399.13 230.303 1396.23 239.134 1390.88 246.46C1385.53 253.785 1378 259.23 1369.37 262.015C1368.67 262.233 1368.04 262.641 1367.55 263.192C1367.07 263.744 1366.74 264.419 1366.61 265.144C1366.6 265.251 1366.6 265.359 1366.61 265.466L1366.6 265.859C1366.6 266.463 1366.74 267.06 1366.99 267.608C1367.24 268.156 1367.61 268.643 1368.07 269.034L1415.1 306.984C1418.65 309.866 1423.08 311.444 1427.65 311.458L1446.39 311.528C1449.02 311.539 1451.62 311.032 1454.05 310.037C1456.48 309.042 1458.69 307.577 1460.55 305.727C1462.42 303.877 1463.9 301.678 1464.91 299.255C1465.92 296.833 1466.45 294.234 1466.46 291.607ZM1437.54 172.869L1446.91 172.903C1450.07 172.912 1453.1 174.176 1455.34 176.418C1457.57 178.66 1458.82 181.697 1458.82 184.862L1458.43 291.577C1458.41 294.745 1457.13 297.776 1454.88 300.005C1452.63 302.234 1449.59 303.479 1446.42 303.468L1427.66 303.398C1424.92 303.352 1422.28 302.393 1420.15 300.673L1378.41 266.999C1387.01 262.84 1394.28 256.341 1399.37 248.245C1404.46 240.149 1407.17 230.784 1407.19 221.219C1407.19 220.807 1407.19 220.434 1407.19 219.971C1407.21 219.794 1407.21 219.616 1407.19 219.438L1407.32 184.671C1407.33 183.517 1407.5 182.37 1407.83 181.262C1408.44 179.527 1409.38 177.93 1410.61 176.563C1411.72 175.371 1413.06 174.421 1414.55 173.774C1416.05 173.126 1417.66 172.795 1419.28 172.801L1436.55 172.865C1436.69 172.895 1436.84 172.912 1436.98 172.917C1437.17 172.92 1437.35 172.904 1437.54 172.869Z" fill="#EAEAEA" fill-opacity="0.2"/>
<path d="M1466.46 291.607L1466.86 184.942C1466.86 179.646 1464.77 174.564 1461.03 170.811C1457.3 167.058 1452.23 164.94 1446.94 164.924L1419.31 164.821C1416.59 164.815 1413.89 165.369 1411.39 166.448C1408.89 167.528 1406.63 169.11 1404.77 171.097L1404.65 171.227C1402.79 173.294 1401.34 175.701 1400.4 178.316L1400.25 178.648C1399.63 180.597 1399.3 182.633 1399.3 184.682L1399.16 221.23C1399.13 230.303 1396.23 239.134 1390.88 246.46C1385.53 253.785 1378 259.23 1369.37 262.015C1368.67 262.233 1368.04 262.641 1367.55 263.192C1367.07 263.744 1366.74 264.419 1366.61 265.144C1366.6 265.251 1366.6 265.359 1366.61 265.466L1366.6 265.859C1366.6 266.463 1366.74 267.06 1366.99 267.608C1367.24 268.156 1367.61 268.643 1368.07 269.034L1415.1 306.984C1418.65 309.866 1423.08 311.444 1427.65 311.458L1446.39 311.528C1449.02 311.539 1451.62 311.032 1454.05 310.037C1456.48 309.042 1458.69 307.577 1460.55 305.727C1462.42 303.877 1463.9 301.678 1464.91 299.255C1465.92 296.833 1466.45 294.234 1466.46 291.607ZM1437.54 172.869L1446.91 172.903C1450.07 172.912 1453.1 174.176 1455.34 176.418C1457.57 178.66 1458.82 181.697 1458.82 184.862L1458.43 291.577C1458.41 294.745 1457.13 297.776 1454.88 300.005C1452.63 302.234 1449.59 303.479 1446.42 303.468L1427.66 303.398C1424.92 303.352 1422.28 302.393 1420.15 300.673L1378.41 266.999C1387.01 262.84 1394.28 256.341 1399.37 248.245C1404.46 240.149 1407.17 230.784 1407.19 221.219C1407.19 220.807 1407.19 220.434 1407.19 219.971C1407.21 219.794 1407.21 219.616 1407.19 219.438L1407.32 184.671C1407.33 183.517 1407.5 182.37 1407.83 181.262C1408.44 179.527 1409.38 177.93 1410.61 176.563C1411.72 175.371 1413.06 174.421 1414.55 173.774C1416.05 173.126 1417.66 172.795 1419.28 172.801L1436.55 172.865C1436.69 172.895 1436.84 172.912 1436.98 172.917C1437.17 172.92 1437.35 172.904 1437.54 172.869Z" fill="#EAEAEA" fill-opacity="0.2"/>
<path d="M1391.21 213.594C1391.26 204.522 1387.9 195.799 1381.85 189.326C1375.81 182.852 1367.57 179.154 1358.94 179.036L1358.33 179.034C1351.74 179.048 1345.32 181.151 1339.89 185.069C1334.46 188.987 1330.28 194.536 1327.9 200.991C1325.53 207.445 1325.06 214.503 1326.56 221.241C1328.06 227.978 1331.46 234.081 1336.32 238.751C1336.45 238.913 1336.56 238.995 1336.56 238.972L1336.79 239.17L1336.91 239.275L1337.05 239.403L1339.41 241.371C1339.54 241.532 1339.69 241.673 1339.86 241.79C1344.76 245.354 1350.5 247.443 1356.45 247.829C1362.41 248.216 1368.35 246.887 1373.63 243.985C1378.92 241.083 1383.35 236.718 1386.45 231.362C1389.55 226.007 1391.2 219.863 1391.22 213.594L1391.21 213.594ZM1342.29 231.966C1338.75 228.55 1336.28 224.093 1335.18 219.177C1334.09 214.26 1334.43 209.111 1336.16 204.398C1337.88 199.686 1340.92 195.628 1344.87 192.752C1348.82 189.877 1353.5 188.317 1358.3 188.276L1358.82 188.277C1365.09 188.469 1371.03 191.235 1375.38 195.981C1379.73 200.728 1382.14 207.077 1382.08 213.668C1382.03 220.259 1379.52 226.567 1375.1 231.238C1370.67 235.91 1364.68 238.574 1358.41 238.658C1353.63 238.642 1348.96 237.105 1345.02 234.249L1342.53 232.152L1342.3 231.989L1342.29 231.966Z" fill="#EAEAEA" fill-opacity="0.2"/>
<path d="M1391.21 213.594C1391.26 204.522 1387.9 195.799 1381.85 189.326C1375.81 182.852 1367.57 179.154 1358.94 179.036L1358.33 179.034C1351.74 179.048 1345.32 181.151 1339.89 185.069C1334.46 188.987 1330.28 194.536 1327.9 200.991C1325.53 207.445 1325.06 214.503 1326.56 221.241C1328.06 227.978 1331.46 234.081 1336.32 238.751C1336.45 238.913 1336.56 238.995 1336.56 238.972L1336.79 239.17L1336.91 239.275L1337.05 239.403L1339.41 241.371C1339.54 241.532 1339.69 241.673 1339.86 241.79C1344.76 245.354 1350.5 247.443 1356.45 247.829C1362.41 248.216 1368.35 246.887 1373.63 243.985C1378.92 241.083 1383.35 236.718 1386.45 231.362C1389.55 226.007 1391.2 219.863 1391.22 213.594L1391.21 213.594ZM1342.29 231.966C1338.75 228.55 1336.28 224.093 1335.18 219.177C1334.09 214.26 1334.43 209.111 1336.16 204.398C1337.88 199.686 1340.92 195.628 1344.87 192.752C1348.82 189.877 1353.5 188.317 1358.3 188.276L1358.82 188.277C1365.09 188.469 1371.03 191.235 1375.38 195.981C1379.73 200.728 1382.14 207.077 1382.08 213.668C1382.03 220.259 1379.52 226.567 1375.1 231.238C1370.67 235.91 1364.68 238.574 1358.41 238.658C1353.63 238.642 1348.96 237.105 1345.02 234.249L1342.53 232.152L1342.3 231.989L1342.29 231.966Z" fill="#EAEAEA" fill-opacity="0.2"/>
<path d="M1340.39 145.493L1340.78 38.0198C1340.82 32.6838 1342.97 27.5789 1346.78 23.8255C1350.58 20.072 1355.72 17.9766 1361.07 17.9991L1389.01 18.1025C1391.76 18.1164 1394.48 18.6944 1397 19.8008C1399.53 20.9072 1401.79 22.5183 1403.66 24.5343L1403.79 24.6666C1405.65 26.7631 1407.09 29.199 1408.03 31.8405L1408.17 32.1756C1408.79 34.1448 1409.1 36.1982 1409.09 38.2625L1408.96 75.0873C1408.92 84.2293 1411.79 93.1486 1417.14 100.569C1422.49 107.99 1430.07 113.532 1438.77 116.403C1439.48 116.628 1440.11 117.043 1440.6 117.603C1441.09 118.162 1441.42 118.845 1441.55 119.577C1441.55 119.685 1441.55 119.793 1441.54 119.901L1441.54 120.297C1441.54 120.905 1441.4 121.506 1441.14 122.056C1440.88 122.607 1440.5 123.094 1440.04 123.485L1392.21 161.37C1388.59 164.247 1384.1 165.804 1379.48 165.784L1360.53 165.714C1357.87 165.706 1355.25 165.176 1352.8 164.155C1350.35 163.134 1348.13 161.642 1346.26 159.764C1344.39 157.886 1342.9 155.659 1341.9 153.211C1340.89 150.762 1340.38 148.14 1340.39 145.493ZM1370.52 26.0744L1361.04 26.0394C1357.85 26.0248 1354.77 27.2758 1352.5 29.5178C1350.22 31.7598 1348.93 34.8099 1348.91 37.9992L1348.51 145.523C1348.51 148.715 1349.77 151.778 1352.03 154.041C1354.29 156.304 1357.36 157.581 1360.56 157.593L1379.53 157.663C1382.3 157.637 1384.98 156.69 1387.15 154.974L1429.6 121.358C1420.93 117.103 1413.63 110.5 1408.55 102.305C1403.46 94.1101 1400.79 84.6535 1400.84 75.0167C1400.85 74.601 1400.85 74.2259 1400.85 73.7595C1400.84 73.5805 1400.84 73.401 1400.85 73.2221L1400.98 38.1919C1400.98 37.0289 1400.81 35.8718 1400.49 34.753C1399.89 33.0004 1398.95 31.3841 1397.72 29.9976C1396.6 28.7884 1395.25 27.8216 1393.75 27.1582C1392.25 26.4948 1390.62 26.149 1388.98 26.1428L1371.52 26.0781C1371.37 26.1072 1371.23 26.1237 1371.08 26.1272C1370.89 26.1292 1370.7 26.1115 1370.52 26.0744Z" fill="#EAEAEA" fill-opacity="0.2"/>
<path d="M1340.39 145.493L1340.78 38.0198C1340.82 32.6838 1342.97 27.5789 1346.78 23.8255C1350.58 20.072 1355.72 17.9766 1361.07 17.9991L1389.01 18.1025C1391.76 18.1164 1394.48 18.6944 1397 19.8008C1399.53 20.9072 1401.79 22.5183 1403.66 24.5343L1403.79 24.6666C1405.65 26.7631 1407.09 29.199 1408.03 31.8405L1408.17 32.1756C1408.79 34.1448 1409.1 36.1982 1409.09 38.2625L1408.96 75.0873C1408.92 84.2293 1411.79 93.1486 1417.14 100.569C1422.49 107.99 1430.07 113.532 1438.77 116.403C1439.48 116.628 1440.11 117.043 1440.6 117.603C1441.09 118.162 1441.42 118.845 1441.55 119.577C1441.55 119.685 1441.55 119.793 1441.54 119.901L1441.54 120.297C1441.54 120.905 1441.4 121.506 1441.14 122.056C1440.88 122.607 1440.5 123.094 1440.04 123.485L1392.21 161.37C1388.59 164.247 1384.1 165.804 1379.48 165.784L1360.53 165.714C1357.87 165.706 1355.25 165.176 1352.8 164.155C1350.35 163.134 1348.13 161.642 1346.26 159.764C1344.39 157.886 1342.9 155.659 1341.9 153.211C1340.89 150.762 1340.38 148.14 1340.39 145.493ZM1370.52 26.0744L1361.04 26.0394C1357.85 26.0248 1354.77 27.2758 1352.5 29.5178C1350.22 31.7598 1348.93 34.8099 1348.91 37.9992L1348.51 145.523C1348.51 148.715 1349.77 151.778 1352.03 154.041C1354.29 156.304 1357.36 157.581 1360.56 157.593L1379.53 157.663C1382.3 157.637 1384.98 156.69 1387.15 154.974L1429.6 121.358C1420.93 117.103 1413.63 110.5 1408.55 102.305C1403.46 94.1101 1400.79 84.6535 1400.84 75.0167C1400.85 74.601 1400.85 74.2259 1400.85 73.7595C1400.84 73.5805 1400.84 73.401 1400.85 73.2221L1400.98 38.1919C1400.98 37.0289 1400.81 35.8718 1400.49 34.753C1399.89 33.0004 1398.95 31.3841 1397.72 29.9976C1396.6 28.7884 1395.25 27.8216 1393.75 27.1582C1392.25 26.4948 1390.62 26.149 1388.98 26.1428L1371.52 26.0781C1371.37 26.1072 1371.23 26.1237 1371.08 26.1272C1370.89 26.1292 1370.7 26.1115 1370.52 26.0744Z" fill="#EAEAEA" fill-opacity="0.2"/>
<path d="M1416.21 68.7465C1416.22 59.8205 1419.71 51.2631 1425.9 44.9392C1432.1 38.6153 1440.5 35.0376 1449.28 34.9858L1449.91 34.9881C1456.6 35.0505 1463.12 37.1676 1468.61 41.0623C1474.1 44.9571 1478.31 50.4477 1480.68 56.8153C1483.05 63.1828 1483.48 70.1303 1481.9 76.748C1480.32 83.3657 1476.82 89.3449 1471.84 93.9028C1471.71 94.062 1471.59 94.1414 1471.59 94.1186L1471.36 94.3117L1471.23 94.4139L1471.1 94.5389L1468.68 96.458C1468.55 96.6151 1468.39 96.7527 1468.22 96.867C1463.21 100.337 1457.36 102.349 1451.3 102.686C1445.24 103.022 1439.21 101.67 1433.86 98.776C1428.51 95.8817 1424.03 91.5549 1420.92 86.2627C1417.8 80.9704 1416.17 74.9138 1416.19 68.7465L1416.21 68.7465ZM1465.82 87.1837C1469.44 83.8487 1471.99 79.4829 1473.14 74.6538C1474.29 69.8248 1473.98 64.7561 1472.26 60.1067C1470.54 55.4574 1467.48 51.4426 1463.49 48.5844C1459.49 45.7262 1454.74 44.1569 1449.86 44.0805L1449.33 44.0785C1442.96 44.2206 1436.89 46.8975 1432.43 51.5352C1427.98 56.1729 1425.48 62.402 1425.49 68.8869C1425.49 75.3718 1428 81.596 1432.46 86.2249C1436.93 90.8539 1443 93.5189 1449.37 93.6485C1454.24 93.6674 1459 92.1899 1463.03 89.4095L1465.57 87.3653L1465.81 87.2065L1465.82 87.1837Z" fill="#EAEAEA" fill-opacity="0.2"/>
<path d="M1416.21 68.7465C1416.22 59.8205 1419.71 51.2631 1425.9 44.9392C1432.1 38.6153 1440.5 35.0376 1449.28 34.9858L1449.91 34.9881C1456.6 35.0505 1463.12 37.1676 1468.61 41.0623C1474.1 44.9571 1478.31 50.4477 1480.68 56.8153C1483.05 63.1828 1483.48 70.1303 1481.9 76.748C1480.32 83.3657 1476.82 89.3449 1471.84 93.9028C1471.71 94.062 1471.59 94.1414 1471.59 94.1186L1471.36 94.3117L1471.23 94.4139L1471.1 94.5389L1468.68 96.458C1468.55 96.6151 1468.39 96.7527 1468.22 96.867C1463.21 100.337 1457.36 102.349 1451.3 102.686C1445.24 103.022 1439.21 101.67 1433.86 98.776C1428.51 95.8817 1424.03 91.5549 1420.92 86.2627C1417.8 80.9704 1416.17 74.9138 1416.19 68.7465L1416.21 68.7465ZM1465.82 87.1837C1469.44 83.8487 1471.99 79.4829 1473.14 74.6538C1474.29 69.8248 1473.98 64.7561 1472.26 60.1067C1470.54 55.4574 1467.48 51.4426 1463.49 48.5844C1459.49 45.7262 1454.74 44.1569 1449.86 44.0805L1449.33 44.0785C1442.96 44.2206 1436.89 46.8975 1432.43 51.5352C1427.98 56.1729 1425.48 62.402 1425.49 68.8869C1425.49 75.3718 1428 81.596 1432.46 86.2249C1436.93 90.8539 1443 93.5189 1449.37 93.6485C1454.24 93.6674 1459 92.1899 1463.03 89.4095L1465.57 87.3653L1465.81 87.2065L1465.82 87.1837Z" fill="#EAEAEA" fill-opacity="0.2"/>
<path d="M1372.08 557.198L1266.05 556.42C1260.79 556.395 1255.73 558.47 1251.98 562.19C1248.24 565.91 1246.12 570.971 1246.08 576.263L1245.88 603.882C1245.86 606.606 1246.41 609.304 1247.47 611.81C1248.53 614.315 1250.1 616.574 1252.07 618.446L1252.2 618.568C1254.24 620.434 1256.63 621.886 1259.23 622.842L1259.56 622.985C1261.49 623.621 1263.51 623.952 1265.55 623.965L1301.88 624.231C1310.9 624.294 1319.67 627.223 1326.93 632.599C1334.19 637.974 1339.58 645.521 1342.31 654.159C1342.53 654.863 1342.93 655.494 1343.48 655.984C1344.02 656.473 1344.69 656.803 1345.41 656.936C1345.52 656.947 1345.63 656.948 1345.74 656.939L1346.13 656.942C1346.73 656.944 1347.32 656.815 1347.87 656.564C1348.41 656.313 1348.9 655.945 1349.29 655.487L1387.18 608.608C1390.05 605.067 1391.64 600.644 1391.67 596.072L1391.81 577.331C1391.83 574.707 1391.33 572.104 1390.35 569.672C1389.37 567.239 1387.92 565.025 1386.09 563.155C1384.26 561.286 1382.08 559.797 1379.67 558.775C1377.27 557.753 1374.69 557.217 1372.08 557.198ZM1253.95 585.691L1254.01 576.321C1254.03 573.158 1255.3 570.133 1257.54 567.908C1259.77 565.683 1262.8 564.441 1265.94 564.453L1372.02 565.231C1375.17 565.262 1378.17 566.547 1380.38 568.804C1382.59 571.062 1383.82 574.107 1383.79 577.272L1383.66 596.034C1383.6 598.77 1382.64 601.41 1380.92 603.534L1347.3 645.146C1343.2 636.525 1336.76 629.24 1328.73 624.122C1320.7 619.005 1311.4 616.262 1301.9 616.207C1301.49 616.204 1301.12 616.202 1300.66 616.198C1300.48 616.184 1300.3 616.183 1300.13 616.194L1265.57 615.941C1264.42 615.925 1263.28 615.751 1262.18 615.423C1260.46 614.809 1258.88 613.858 1257.52 612.624C1256.34 611.512 1255.4 610.167 1254.76 608.672C1254.12 607.177 1253.8 605.566 1253.81 603.94L1253.94 586.677C1253.97 586.535 1253.99 586.39 1253.99 586.245C1254 586.059 1253.98 585.874 1253.95 585.691Z" fill="#EAEAEA" fill-opacity="0.2"/>
<path d="M1372.08 557.198L1266.05 556.42C1260.79 556.395 1255.73 558.47 1251.98 562.19C1248.24 565.91 1246.12 570.971 1246.08 576.263L1245.88 603.882C1245.86 606.606 1246.41 609.304 1247.47 611.81C1248.53 614.315 1250.1 616.574 1252.07 618.446L1252.2 618.568C1254.24 620.434 1256.63 621.886 1259.23 622.842L1259.56 622.985C1261.49 623.621 1263.51 623.952 1265.55 623.965L1301.88 624.231C1310.9 624.294 1319.67 627.223 1326.93 632.599C1334.19 637.974 1339.58 645.521 1342.31 654.159C1342.53 654.863 1342.93 655.494 1343.48 655.984C1344.02 656.473 1344.69 656.803 1345.41 656.936C1345.52 656.947 1345.63 656.948 1345.74 656.939L1346.13 656.942C1346.73 656.944 1347.32 656.815 1347.87 656.564C1348.41 656.313 1348.9 655.945 1349.29 655.487L1387.18 608.608C1390.05 605.067 1391.64 600.644 1391.67 596.072L1391.81 577.331C1391.83 574.707 1391.33 572.104 1390.35 569.672C1389.37 567.239 1387.92 565.025 1386.09 563.155C1384.26 561.286 1382.08 559.797 1379.67 558.775C1377.27 557.753 1374.69 557.217 1372.08 557.198ZM1253.95 585.691L1254.01 576.321C1254.03 573.158 1255.3 570.133 1257.54 567.908C1259.77 565.683 1262.8 564.441 1265.94 564.453L1372.02 565.231C1375.17 565.262 1378.17 566.547 1380.38 568.804C1382.59 571.062 1383.82 574.107 1383.79 577.272L1383.66 596.034C1383.6 598.77 1382.64 601.41 1380.92 603.534L1347.3 645.146C1343.2 636.525 1336.76 629.24 1328.73 624.122C1320.7 619.005 1311.4 616.262 1301.9 616.207C1301.49 616.204 1301.12 616.202 1300.66 616.198C1300.48 616.184 1300.3 616.183 1300.13 616.194L1265.57 615.941C1264.42 615.925 1263.28 615.751 1262.18 615.423C1260.46 614.809 1258.88 613.858 1257.52 612.624C1256.34 611.512 1255.4 610.167 1254.76 608.672C1254.12 607.177 1253.8 605.566 1253.81 603.94L1253.94 586.677C1253.97 586.535 1253.99 586.39 1253.99 586.245C1254 586.059 1253.98 585.874 1253.95 585.691Z" fill="#EAEAEA" fill-opacity="0.2"/>
<path d="M1295.13 632.039C1286.22 631.959 1277.63 635.349 1271.25 641.473C1264.87 647.596 1261.2 655.956 1261.05 664.73L1261.05 665.358C1261.04 672.051 1263.08 678.593 1266.91 684.126C1270.74 689.659 1276.18 693.925 1282.51 696.365C1288.84 698.806 1295.78 699.307 1302.4 697.803C1309.03 696.299 1315.04 692.861 1319.64 687.938C1319.8 687.805 1319.88 687.693 1319.86 687.693L1320.06 687.459L1320.16 687.336L1320.29 687.202L1322.23 684.805C1322.39 684.672 1322.53 684.519 1322.64 684.348C1326.16 679.375 1328.24 673.548 1328.64 667.498C1329.04 661.448 1327.76 655.405 1324.92 650.02C1322.09 644.634 1317.82 640.112 1312.57 636.942C1307.32 633.771 1301.29 632.072 1295.13 632.028L1295.13 632.039ZM1313 681.844C1309.63 685.428 1305.24 687.93 1300.41 689.026C1295.57 690.121 1290.51 689.759 1285.89 687.987C1281.26 686.215 1277.29 683.114 1274.48 679.088C1271.67 675.062 1270.15 670.297 1270.13 665.413L1270.13 664.886C1270.35 658.514 1273.08 652.479 1277.76 648.073C1282.44 643.668 1288.69 641.244 1295.17 641.321C1301.64 641.398 1307.83 643.969 1312.41 648.484C1316.98 652.999 1319.57 659.098 1319.63 665.473C1319.6 670.34 1318.07 675.083 1315.25 679.079L1313.18 681.599L1313.02 681.833L1313 681.844Z" fill="#EAEAEA" fill-opacity="0.2"/>
<path d="M1295.13 632.039C1286.22 631.959 1277.63 635.349 1271.25 641.473C1264.87 647.596 1261.2 655.956 1261.05 664.73L1261.05 665.358C1261.04 672.051 1263.08 678.593 1266.91 684.126C1270.74 689.659 1276.18 693.925 1282.51 696.365C1288.84 698.806 1295.78 699.307 1302.4 697.803C1309.03 696.299 1315.04 692.861 1319.64 687.938C1319.8 687.805 1319.88 687.693 1319.86 687.693L1320.06 687.459L1320.16 687.336L1320.29 687.202L1322.23 684.805C1322.39 684.672 1322.53 684.519 1322.64 684.348C1326.16 679.375 1328.24 673.548 1328.64 667.498C1329.04 661.448 1327.76 655.405 1324.92 650.02C1322.09 644.634 1317.82 640.112 1312.57 636.942C1307.32 633.771 1301.29 632.072 1295.13 632.028L1295.13 632.039ZM1313 681.844C1309.63 685.428 1305.24 687.93 1300.41 689.026C1295.57 690.121 1290.51 689.759 1285.89 687.987C1281.26 686.215 1277.29 683.114 1274.48 679.088C1271.67 675.062 1270.15 670.297 1270.13 665.413L1270.13 664.886C1270.35 658.514 1273.08 652.479 1277.76 648.073C1282.44 643.668 1288.69 641.244 1295.17 641.321C1301.64 641.398 1307.83 643.969 1312.41 648.484C1316.98 652.999 1319.57 659.098 1319.63 665.473C1319.6 670.34 1318.07 675.083 1315.25 679.079L1313.18 681.599L1313.02 681.833L1313 681.844Z" fill="#EAEAEA" fill-opacity="0.2"/>
<path d="M1300.76 139.641L1194.73 138.864C1189.47 138.838 1184.41 140.913 1180.66 144.633C1176.92 148.353 1174.8 153.415 1174.76 158.706L1174.56 186.325C1174.54 189.049 1175.09 191.748 1176.15 194.253C1177.21 196.758 1178.78 199.017 1180.75 200.89L1180.88 201.011C1182.92 202.878 1185.31 204.329 1187.91 205.286L1188.24 205.429C1190.17 206.065 1192.19 206.395 1194.23 206.408L1230.56 206.674C1239.58 206.738 1248.35 209.667 1255.61 215.042C1262.87 220.418 1268.26 227.964 1270.99 236.602C1271.21 237.306 1271.61 237.937 1272.16 238.427C1272.7 238.917 1273.37 239.246 1274.09 239.38C1274.2 239.39 1274.31 239.391 1274.41 239.382L1274.8 239.385C1275.41 239.387 1276 239.258 1276.54 239.007C1277.09 238.756 1277.58 238.388 1277.97 237.93L1315.86 191.051C1318.73 187.51 1320.32 183.087 1320.35 178.515L1320.49 159.774C1320.51 157.15 1320.01 154.547 1319.03 152.115C1318.05 149.683 1316.6 147.469 1314.77 145.599C1312.94 143.729 1310.76 142.241 1308.35 141.218C1305.95 140.196 1303.37 139.66 1300.76 139.641ZM1182.63 168.135L1182.69 158.764C1182.71 155.602 1183.98 152.576 1186.22 150.351C1188.45 148.127 1191.48 146.884 1194.62 146.897L1300.7 147.674C1303.85 147.705 1306.85 148.99 1309.06 151.248C1311.27 153.505 1312.5 156.55 1312.47 159.716L1312.34 178.477C1312.28 181.213 1311.32 183.853 1309.6 185.978L1275.98 227.589C1271.88 218.969 1265.44 211.683 1257.41 206.566C1249.38 201.448 1240.08 198.705 1230.58 198.651C1230.17 198.648 1229.8 198.645 1229.34 198.642C1229.16 198.628 1228.98 198.626 1228.81 198.638L1194.25 198.384C1193.1 198.368 1191.96 198.194 1190.86 197.867C1189.14 197.252 1187.56 196.301 1186.2 195.068C1185.02 193.956 1184.08 192.61 1183.44 191.115C1182.8 189.621 1182.48 188.01 1182.49 186.383L1182.62 169.12C1182.65 168.978 1182.67 168.833 1182.67 168.688C1182.68 168.503 1182.66 168.317 1182.63 168.135Z" fill="#EAEAEA" fill-opacity="0.2"/>
<path d="M1223.81 214.482C1214.9 214.402 1206.31 217.793 1199.93 223.916C1193.55 230.04 1189.88 238.399 1189.73 247.173L1189.73 247.801C1189.72 254.495 1191.76 261.036 1195.59 266.569C1199.42 272.102 1204.86 276.368 1211.19 278.809C1217.52 281.249 1224.45 281.75 1231.08 280.247C1237.71 278.743 1243.72 275.304 1248.32 270.381C1248.48 270.248 1248.56 270.136 1248.54 270.136L1248.74 269.902L1248.84 269.779L1248.97 269.646L1250.91 267.249C1251.07 267.116 1251.21 266.962 1251.32 266.792C1254.84 261.818 1256.92 255.992 1257.32 249.942C1257.72 243.892 1256.44 237.848 1253.6 232.463C1250.77 227.078 1246.5 222.556 1241.25 219.385C1236 216.214 1229.97 214.515 1223.81 214.471L1223.81 214.482ZM1241.68 264.287C1238.31 267.871 1233.92 270.373 1229.09 271.469C1224.25 272.565 1219.19 272.203 1214.57 270.43C1209.94 268.658 1205.97 265.557 1203.16 261.531C1200.35 257.505 1198.83 252.74 1198.81 247.856L1198.81 247.329C1199.02 240.958 1201.76 234.922 1206.44 230.517C1211.12 226.111 1217.37 223.687 1223.85 223.764C1230.32 223.841 1236.51 226.413 1241.09 230.928C1245.66 235.443 1248.25 241.541 1248.31 247.916C1248.28 252.783 1246.75 257.526 1243.93 261.522L1241.86 264.042L1241.7 264.276L1241.68 264.287Z" fill="#EAEAEA" fill-opacity="0.2"/>
<path d="M1103.96 676.572L1209.98 677.35C1215.24 677.375 1220.3 675.3 1224.05 671.58C1227.79 667.86 1229.91 662.799 1229.95 657.507L1230.15 629.888C1230.17 627.164 1229.63 624.466 1228.56 621.96C1227.5 619.455 1225.93 617.196 1223.96 615.324L1223.83 615.202C1221.79 613.336 1219.4 611.884 1216.8 610.928L1216.47 610.785C1214.54 610.149 1212.52 609.819 1210.48 609.806L1174.15 609.539C1165.13 609.476 1156.37 606.547 1149.1 601.171C1141.84 595.796 1136.45 588.249 1133.72 579.611C1133.5 578.907 1133.1 578.276 1132.55 577.786C1132.01 577.297 1131.34 576.967 1130.62 576.834C1130.51 576.823 1130.4 576.822 1130.3 576.831L1129.91 576.828C1129.31 576.826 1128.71 576.955 1128.17 577.206C1127.62 577.457 1127.14 577.825 1126.74 578.283L1088.85 625.162C1085.98 628.703 1084.39 633.126 1084.36 637.698L1084.23 656.439C1084.21 659.063 1084.7 661.666 1085.68 664.098C1086.66 666.531 1088.11 668.745 1089.94 670.615C1091.77 672.484 1093.95 673.973 1096.36 674.995C1098.76 676.017 1101.34 676.553 1103.96 676.572ZM1222.09 648.079L1222.02 657.449C1222 660.612 1220.73 663.637 1218.49 665.862C1216.26 668.087 1213.23 669.329 1210.09 669.317L1104.01 668.539C1100.86 668.508 1097.86 667.223 1095.65 664.966C1093.44 662.708 1092.21 659.663 1092.24 656.498L1092.37 637.737C1092.43 635 1093.39 632.36 1095.11 630.236L1128.73 588.624C1132.83 597.245 1139.27 604.53 1147.3 609.648C1155.33 614.765 1164.63 617.508 1174.13 617.563C1174.54 617.566 1174.91 617.568 1175.37 617.572C1175.55 617.586 1175.73 617.587 1175.9 617.576L1210.46 617.829C1211.61 617.845 1212.75 618.019 1213.85 618.347C1215.57 618.961 1217.16 619.912 1218.51 621.146C1219.69 622.258 1220.63 623.603 1221.27 625.098C1221.91 626.593 1222.23 628.204 1222.22 629.83L1222.09 647.093C1222.06 647.235 1222.04 647.38 1222.04 647.525C1222.04 647.711 1222.05 647.896 1222.09 648.079Z" fill="#EAEAEA" fill-opacity="0.2"/>
<path d="M1103.96 676.572L1209.98 677.35C1215.24 677.375 1220.3 675.3 1224.05 671.58C1227.79 667.86 1229.91 662.799 1229.95 657.507L1230.15 629.888C1230.17 627.164 1229.63 624.466 1228.56 621.96C1227.5 619.455 1225.93 617.196 1223.96 615.324L1223.83 615.202C1221.79 613.336 1219.4 611.884 1216.8 610.928L1216.47 610.785C1214.54 610.149 1212.52 609.819 1210.48 609.806L1174.15 609.539C1165.13 609.476 1156.37 606.547 1149.1 601.171C1141.84 595.796 1136.45 588.249 1133.72 579.611C1133.5 578.907 1133.1 578.276 1132.55 577.786C1132.01 577.297 1131.34 576.967 1130.62 576.834C1130.51 576.823 1130.4 576.822 1130.3 576.831L1129.91 576.828C1129.31 576.826 1128.71 576.955 1128.17 577.206C1127.62 577.457 1127.14 577.825 1126.74 578.283L1088.85 625.162C1085.98 628.703 1084.39 633.126 1084.36 637.698L1084.23 656.439C1084.21 659.063 1084.7 661.666 1085.68 664.098C1086.66 666.531 1088.11 668.745 1089.94 670.615C1091.77 672.484 1093.95 673.973 1096.36 674.995C1098.76 676.017 1101.34 676.553 1103.96 676.572ZM1222.09 648.079L1222.02 657.449C1222 660.612 1220.73 663.637 1218.49 665.862C1216.26 668.087 1213.23 669.329 1210.09 669.317L1104.01 668.539C1100.86 668.508 1097.86 667.223 1095.65 664.966C1093.44 662.708 1092.21 659.663 1092.24 656.498L1092.37 637.737C1092.43 635 1093.39 632.36 1095.11 630.236L1128.73 588.624C1132.83 597.245 1139.27 604.53 1147.3 609.648C1155.33 614.765 1164.63 617.508 1174.13 617.563C1174.54 617.566 1174.91 617.568 1175.37 617.572C1175.55 617.586 1175.73 617.587 1175.9 617.576L1210.46 617.829C1211.61 617.845 1212.75 618.019 1213.85 618.347C1215.57 618.961 1217.16 619.912 1218.51 621.146C1219.69 622.258 1220.63 623.603 1221.27 625.098C1221.91 626.593 1222.23 628.204 1222.22 629.83L1222.09 647.093C1222.06 647.235 1222.04 647.38 1222.04 647.525C1222.04 647.711 1222.05 647.896 1222.09 648.079Z" fill="#EAEAEA" fill-opacity="0.2"/>
<path d="M1180.91 601.731C1189.82 601.811 1198.4 598.42 1204.79 592.297C1211.17 586.173 1214.83 577.814 1214.98 569.04L1214.99 568.412C1215 561.718 1212.95 555.177 1209.12 549.644C1205.3 544.111 1199.86 539.845 1193.53 537.405C1187.19 534.964 1180.26 534.463 1173.63 535.967C1167.01 537.47 1161 540.909 1156.39 545.832C1156.23 545.965 1156.15 546.077 1156.17 546.077L1155.98 546.311L1155.88 546.434L1155.75 546.567L1153.81 548.964C1153.65 549.097 1153.51 549.251 1153.39 549.421C1149.87 554.395 1147.8 560.222 1147.4 566.272C1147 572.321 1148.28 578.365 1151.11 583.75C1153.94 589.135 1158.21 593.657 1163.46 596.828C1168.72 599.999 1174.75 601.698 1180.91 601.742L1180.91 601.731ZM1163.04 551.926C1166.41 548.342 1170.79 545.84 1175.63 544.744C1180.46 543.649 1185.52 544.011 1190.15 545.783C1194.77 547.555 1198.75 550.656 1201.56 554.682C1204.37 558.708 1205.88 563.473 1205.91 568.357L1205.9 568.884C1205.69 575.256 1202.95 581.291 1198.27 585.696C1193.59 590.102 1187.34 592.526 1180.87 592.449C1174.39 592.372 1168.2 589.8 1163.63 585.285C1159.06 580.77 1156.46 574.672 1156.4 568.297C1156.44 563.43 1157.96 558.687 1160.78 554.691L1162.85 552.171L1163.01 551.937L1163.04 551.926Z" fill="#EAEAEA" fill-opacity="0.2"/>
<path d="M1180.91 601.731C1189.82 601.811 1198.4 598.42 1204.79 592.297C1211.17 586.173 1214.83 577.814 1214.98 569.04L1214.99 568.412C1215 561.718 1212.95 555.177 1209.12 549.644C1205.3 544.111 1199.86 539.845 1193.53 537.405C1187.19 534.964 1180.26 534.463 1173.63 535.967C1167.01 537.47 1161 540.909 1156.39 545.832C1156.23 545.965 1156.15 546.077 1156.17 546.077L1155.98 546.311L1155.88 546.434L1155.75 546.567L1153.81 548.964C1153.65 549.097 1153.51 549.251 1153.39 549.421C1149.87 554.395 1147.8 560.222 1147.4 566.272C1147 572.321 1148.28 578.365 1151.11 583.75C1153.94 589.135 1158.21 593.657 1163.46 596.828C1168.72 599.999 1174.75 601.698 1180.91 601.742L1180.91 601.731ZM1163.04 551.926C1166.41 548.342 1170.79 545.84 1175.63 544.744C1180.46 543.649 1185.52 544.011 1190.15 545.783C1194.77 547.555 1198.75 550.656 1201.56 554.682C1204.37 558.708 1205.88 563.473 1205.91 568.357L1205.9 568.884C1205.69 575.256 1202.95 581.291 1198.27 585.696C1193.59 590.102 1187.34 592.526 1180.87 592.449C1174.39 592.372 1168.2 589.8 1163.63 585.285C1159.06 580.77 1156.46 574.672 1156.4 568.297C1156.44 563.43 1157.96 558.687 1160.78 554.691L1162.85 552.171L1163.01 551.937L1163.04 551.926Z" fill="#EAEAEA" fill-opacity="0.2"/>
</g>
<g opacity="0.5">
<path d="M-34.7579 595.972C-34.8061 587.047 -31.3834 578.464 -25.2357 572.094C-19.088 565.724 -10.7137 562.085 -1.9379 561.968L-1.30973 561.966C5.38536 561.978 11.9209 564.047 17.4408 567.901C22.9607 571.755 27.2078 577.214 29.6258 583.564C32.0438 589.914 32.5199 596.858 30.9919 603.487C29.4639 610.117 26.003 616.122 21.0624 620.716C20.9283 620.876 20.8165 620.957 20.8164 620.934L20.5815 621.129L20.4585 621.232L20.3244 621.358L17.9198 623.295C17.7862 623.453 17.632 623.592 17.4614 623.707C12.4738 627.215 6.63882 629.27 0.586311 629.651C-5.46619 630.032 -11.5064 628.725 -16.8822 625.87C-22.258 623.016 -26.7653 618.722 -29.9176 613.453C-33.0699 608.184 -34.7474 602.14 -34.7691 595.973L-34.7579 595.972ZM14.9914 614.042C18.588 610.68 21.1067 606.296 22.22 601.458C23.3333 596.621 22.9896 591.554 21.2337 586.918C19.4778 582.281 16.3909 578.289 12.3744 575.461C8.35794 572.632 3.5977 571.098 -1.28726 571.058L-1.81448 571.06C-8.18809 571.249 -14.2347 573.971 -18.6577 578.642C-23.0807 583.312 -25.5279 589.559 -25.4745 596.044C-25.4212 602.529 -22.8715 608.734 -18.3723 613.33C-13.873 617.926 -7.7825 620.546 -1.40666 620.628C3.46127 620.611 8.21033 619.098 12.2178 616.288L14.7453 614.225L14.9803 614.065L14.9914 614.042Z" fill="#EAEAEA" fill-opacity="0.2"/>
<path d="M31.2188 420.795L31.6137 527.46C31.6463 532.756 33.7306 537.823 37.4093 541.549C41.0879 545.274 46.0603 547.354 51.2352 547.332L78.2461 547.232C80.9102 547.219 83.5431 546.646 85.9815 545.548C88.4199 544.45 90.6118 542.851 92.4214 540.85L92.5389 540.719C94.342 538.639 95.7353 536.221 96.6424 533.6L96.7788 533.267C97.3795 531.313 97.6804 529.275 97.6709 527.226L97.5356 490.678C97.4995 481.605 100.268 472.753 105.446 465.388C110.623 458.024 117.944 452.524 126.362 449.676C127.048 449.452 127.661 449.041 128.134 448.485C128.607 447.93 128.922 447.252 129.044 446.526C129.054 446.419 129.053 446.311 129.043 446.204L129.042 445.812C129.037 445.208 128.905 444.612 128.653 444.065C128.402 443.519 128.037 443.035 127.584 442.647L81.3285 405.042C77.8347 402.187 73.4917 400.641 69.021 400.66L50.6925 400.728C48.126 400.736 45.5862 401.262 43.2183 402.275C40.8505 403.288 38.7009 404.769 36.8925 406.632C35.084 408.496 33.6522 410.706 32.6787 413.136C31.7051 415.566 31.2091 418.169 31.2188 420.795ZM60.3699 539.319L51.2057 539.353C48.1127 539.367 45.1403 538.125 42.9403 535.9C40.7403 533.674 39.4924 530.647 39.4703 527.482L39.0753 420.766C39.0714 417.598 40.2953 414.558 42.4787 412.313C44.6622 410.067 47.6268 408.8 50.7224 408.788L69.0705 408.721C71.7473 408.747 74.3391 409.686 76.4355 411.39L117.494 444.758C109.108 448.98 102.054 455.532 97.1368 463.665C92.2198 471.798 89.6389 481.183 89.6891 490.747C89.6907 491.16 89.692 491.532 89.6938 491.995C89.682 492.173 89.6827 492.351 89.6957 492.528L89.8244 527.295C89.8211 528.45 89.6632 529.598 89.3553 530.708C88.7732 532.448 87.8601 534.052 86.6686 535.428C85.5941 536.628 84.2885 537.587 82.8339 538.245C81.3792 538.904 79.8072 539.247 78.2166 539.253L61.3336 539.315C61.1942 539.286 61.0527 539.27 60.9106 539.266C60.7291 539.264 60.5479 539.282 60.3699 539.319Z" fill="#EAEAEA" fill-opacity="0.2"/>
<path d="M104.821 498.257C104.84 507.329 108.384 516.027 114.682 522.454C120.98 528.882 129.521 532.518 138.443 532.571L139.082 532.569C145.888 532.505 152.517 530.353 158.1 526.395C163.683 522.436 167.959 516.856 170.37 510.384C172.78 503.912 173.212 496.85 171.609 490.124C170.005 483.398 166.442 477.321 161.384 472.688C161.247 472.526 161.132 472.446 161.133 472.469L160.892 472.273L160.766 472.169L160.629 472.042L158.17 470.091C158.033 469.931 157.875 469.791 157.701 469.675C152.604 466.148 146.656 464.103 140.5 463.761C134.344 463.419 128.213 464.793 122.77 467.735C117.326 470.677 112.776 475.075 109.611 480.454C106.446 485.833 104.786 491.988 104.81 498.257L104.821 498.257ZM155.263 479.517C158.944 482.907 161.538 487.344 162.706 492.253C163.874 497.161 163.563 502.313 161.813 507.038C160.063 511.764 156.954 515.844 152.892 518.749C148.83 521.655 144.002 523.25 139.036 523.327L138.5 523.329C132.019 523.185 125.852 520.464 121.32 515.75C116.788 511.037 114.253 504.705 114.259 498.114C114.264 491.523 116.81 485.197 121.349 480.492C125.889 475.787 132.061 473.078 138.542 472.947C143.491 472.927 148.331 474.429 152.426 477.255L155.011 479.333L155.251 479.494L155.263 479.517Z" fill="#EAEAEA" fill-opacity="0.2"/>
<path d="M104.821 498.257C104.84 507.329 108.384 516.027 114.682 522.454C120.98 528.882 129.521 532.518 138.443 532.571L139.082 532.569C145.888 532.505 152.517 530.353 158.1 526.395C163.683 522.436 167.959 516.856 170.37 510.384C172.78 503.912 173.212 496.85 171.609 490.124C170.005 483.398 166.442 477.321 161.384 472.688C161.247 472.526 161.132 472.446 161.133 472.469L160.892 472.273L160.766 472.169L160.629 472.042L158.17 470.091C158.033 469.931 157.875 469.791 157.701 469.675C152.604 466.148 146.656 464.103 140.5 463.761C134.344 463.419 128.213 464.793 122.77 467.735C117.326 470.677 112.776 475.075 109.611 480.454C106.446 485.833 104.786 491.988 104.81 498.257L104.821 498.257ZM155.263 479.517C158.944 482.907 161.538 487.344 162.706 492.253C163.874 497.161 163.563 502.313 161.813 507.038C160.063 511.764 156.954 515.844 152.892 518.749C148.83 521.655 144.002 523.25 139.036 523.327L138.5 523.329C132.019 523.185 125.852 520.464 121.32 515.75C116.788 511.037 114.253 504.705 114.259 498.114C114.264 491.523 116.81 485.197 121.349 480.492C125.889 475.787 132.061 473.078 138.542 472.947C143.491 472.927 148.331 474.429 152.426 477.255L155.011 479.333L155.251 479.494L155.263 479.517Z" fill="#EAEAEA" fill-opacity="0.2"/>
<path d="M119.637 2.86211L120.032 109.527C120.064 114.823 122.172 119.89 125.892 123.615C129.613 127.341 134.642 129.421 139.875 129.398L167.193 129.297C169.888 129.284 172.55 128.71 175.017 127.612C177.483 126.514 179.7 124.915 181.53 122.915L181.649 122.783C183.472 120.703 184.882 118.285 185.799 115.664L185.937 115.331C186.545 113.377 186.849 111.339 186.84 109.29L186.704 72.7421C186.668 63.6689 189.469 54.8168 194.705 47.452C199.942 40.0873 207.346 34.5872 215.86 31.7386C216.553 31.5152 217.173 31.1034 217.652 30.548C218.13 29.9926 218.449 29.315 218.573 28.5889C218.582 28.4818 218.582 28.374 218.572 28.267L218.57 27.8745C218.566 27.2705 218.432 26.6747 218.177 26.1283C217.923 25.5819 217.554 25.098 217.097 24.7101L170.317 -12.8928C166.783 -15.7479 162.391 -17.294 157.869 -17.2744L139.333 -17.2058C136.737 -17.1975 134.168 -16.6718 131.773 -15.6586C129.379 -14.6455 127.205 -13.1649 125.376 -11.3013C123.546 -9.43765 122.098 -7.22763 121.114 -4.79742C120.129 -2.36722 119.627 0.23552 119.637 2.86211ZM149.114 121.384L139.846 121.419C136.718 121.433 133.711 120.191 131.487 117.966C129.262 115.741 128 112.713 127.978 109.548L127.583 2.8327C127.579 -0.335315 128.817 -3.37544 131.025 -5.62092C133.233 -7.8664 136.232 -9.1339 139.362 -9.14548L157.919 -9.21417C160.626 -9.18804 163.248 -8.24869 165.368 -6.5449L206.891 26.8209C198.41 31.0434 191.275 37.5958 186.302 45.7289C181.329 53.862 178.718 63.2474 178.769 72.8118C178.77 73.2243 178.771 73.5967 178.773 74.0595C178.761 74.2371 178.762 74.4154 178.775 74.5929L178.904 109.36C178.9 110.514 178.741 111.662 178.429 112.773C177.84 114.512 176.917 116.116 175.712 117.492C174.625 118.692 173.305 119.652 171.833 120.31C170.362 120.968 168.772 121.311 167.164 121.318L150.089 121.381C149.948 121.352 149.805 121.336 149.661 121.332C149.477 121.33 149.294 121.348 149.114 121.384Z" fill="#EAEAEA" fill-opacity="0.2"/>
<path d="M119.637 2.86211L120.032 109.527C120.064 114.823 122.172 119.89 125.892 123.615C129.613 127.341 134.642 129.421 139.875 129.398L167.193 129.297C169.888 129.284 172.55 128.71 175.017 127.612C177.483 126.514 179.7 124.915 181.53 122.915L181.649 122.783C183.472 120.703 184.882 118.285 185.799 115.664L185.937 115.331C186.545 113.377 186.849 111.339 186.84 109.29L186.704 72.7421C186.668 63.6689 189.469 54.8168 194.705 47.452C199.942 40.0873 207.346 34.5872 215.86 31.7386C216.553 31.5152 217.173 31.1034 217.652 30.548C218.13 29.9926 218.449 29.315 218.573 28.5889C218.582 28.4818 218.582 28.374 218.572 28.267L218.57 27.8745C218.566 27.2705 218.432 26.6747 218.177 26.1283C217.923 25.5819 217.554 25.098 217.097 24.7101L170.317 -12.8928C166.783 -15.7479 162.391 -17.294 157.869 -17.2744L139.333 -17.2058C136.737 -17.1975 134.168 -16.6718 131.773 -15.6586C129.379 -14.6455 127.205 -13.1649 125.376 -11.3013C123.546 -9.43765 122.098 -7.22763 121.114 -4.79742C120.129 -2.36722 119.627 0.23552 119.637 2.86211ZM149.114 121.384L139.846 121.419C136.718 121.433 133.711 120.191 131.487 117.966C129.262 115.741 128 112.713 127.978 109.548L127.583 2.8327C127.579 -0.335315 128.817 -3.37544 131.025 -5.62092C133.233 -7.8664 136.232 -9.1339 139.362 -9.14548L157.919 -9.21417C160.626 -9.18804 163.248 -8.24869 165.368 -6.5449L206.891 26.8209C198.41 31.0434 191.275 37.5958 186.302 45.7289C181.329 53.862 178.718 63.2474 178.769 72.8118C178.77 73.2243 178.771 73.5967 178.773 74.0595C178.761 74.2371 178.762 74.4154 178.775 74.5929L178.904 109.36C178.9 110.514 178.741 111.662 178.429 112.773C177.84 114.512 176.917 116.116 175.712 117.492C174.625 118.692 173.305 119.652 171.833 120.31C170.362 120.968 168.772 121.311 167.164 121.318L150.089 121.381C149.948 121.352 149.805 121.336 149.661 121.332C149.477 121.33 149.294 121.348 149.114 121.384Z" fill="#EAEAEA" fill-opacity="0.2"/>
<path d="M194.348 80.3196C194.367 89.3919 197.796 98.0901 203.888 104.518C209.981 110.947 218.242 114.584 226.872 114.638L227.49 114.636C234.073 114.573 240.484 112.422 245.883 108.464C251.283 104.506 255.418 98.926 257.749 92.4543C260.08 85.9827 260.497 78.9214 258.945 72.195C257.393 65.4687 253.946 59.3909 249.054 54.7578C248.921 54.5959 248.81 54.5152 248.81 54.5384L248.578 54.3421L248.456 54.2382L248.323 54.1111L245.944 52.1603C245.812 52.0006 245.659 51.8607 245.491 51.7445C240.56 48.2167 234.808 46.171 228.853 45.8283C222.899 45.4856 216.969 46.8589 211.704 49.8C206.439 52.7411 202.039 57.1383 198.978 62.5169C195.918 67.8955 194.313 74.0512 194.337 80.3197L194.348 80.3196ZM243.133 61.5862C246.695 64.9763 249.204 69.4141 250.334 74.3224C251.465 79.2308 251.165 84.3825 249.472 89.1079C247.78 93.8332 244.774 97.9135 240.846 100.818C236.917 103.723 232.248 105.317 227.445 105.394L226.926 105.396C220.658 105.251 214.692 102.529 210.308 97.8151C205.924 93.1008 203.472 86.7693 203.476 80.1781C203.481 73.5869 205.942 67.2609 210.332 62.5567C214.722 57.8524 220.692 55.1445 226.96 55.0135C231.747 54.9948 236.428 56.4972 240.389 59.3237L242.89 61.4016L243.122 61.5631L243.133 61.5862Z" fill="#EAEAEA" fill-opacity="0.2"/>
<path d="M171.723 272.71L172.121 380.183C172.127 385.519 170.034 390.64 166.3 394.421C162.566 398.202 157.496 400.335 152.203 400.352L124.579 400.455C121.854 400.461 119.157 399.903 116.655 398.815C114.153 397.727 111.899 396.133 110.034 394.131L109.912 394C108.053 391.917 106.61 389.492 105.662 386.857L105.52 386.523C104.891 384.558 104.568 382.507 104.562 380.443L104.426 343.618C104.395 334.476 101.497 325.578 96.1464 318.197C90.796 310.816 83.2674 305.33 74.6376 302.523C73.9343 302.303 73.3043 301.893 72.8164 301.337C72.3285 300.781 72.0013 300.101 71.8704 299.37C71.8601 299.262 71.8597 299.153 71.8692 299.046L71.8678 298.65C71.8675 298.042 71.9986 297.44 72.2518 296.888C72.505 296.335 72.8743 295.845 73.3342 295.451L120.358 257.215C123.909 254.311 128.339 252.721 132.911 252.707L151.657 252.637C154.281 252.626 156.883 253.137 159.312 254.14C161.741 255.143 163.951 256.618 165.814 258.482C167.678 260.346 169.159 262.562 170.173 265.003C171.186 267.444 171.713 270.063 171.723 272.71ZM142.801 392.347L152.174 392.312C155.337 392.303 158.367 391.03 160.601 388.771C162.834 386.512 164.087 383.453 164.086 380.263L163.688 272.739C163.668 269.547 162.394 266.494 160.144 264.248C157.894 262.002 154.853 260.747 151.687 260.759L132.921 260.828C130.184 260.875 127.54 261.841 125.409 263.573L83.6698 297.501C92.2772 301.692 99.5412 308.241 104.631 316.398C109.721 324.555 112.431 333.992 112.451 343.629C112.453 344.045 112.454 344.42 112.456 344.886C112.469 345.065 112.47 345.245 112.458 345.424L112.588 380.454C112.6 381.617 112.77 382.773 113.093 383.889C113.701 385.637 114.647 387.247 115.876 388.624C116.984 389.825 118.327 390.782 119.819 391.434C121.312 392.086 122.922 392.42 124.549 392.414L141.816 392.35C141.958 392.32 142.102 392.303 142.248 392.298C142.433 392.295 142.619 392.311 142.801 392.347Z" fill="#EAEAEA" fill-opacity="0.2"/>
<path d="M171.723 272.71L172.121 380.183C172.127 385.519 170.034 390.64 166.3 394.421C162.566 398.202 157.496 400.335 152.203 400.352L124.579 400.455C121.854 400.461 119.157 399.903 116.655 398.815C114.153 397.727 111.899 396.133 110.034 394.131L109.912 394C108.053 391.917 106.61 389.492 105.662 386.857L105.52 386.523C104.891 384.558 104.568 382.507 104.562 380.443L104.426 343.618C104.395 334.476 101.497 325.578 96.1464 318.197C90.796 310.816 83.2674 305.33 74.6376 302.523C73.9343 302.303 73.3043 301.893 72.8164 301.337C72.3285 300.781 72.0013 300.101 71.8704 299.37C71.8601 299.262 71.8597 299.153 71.8692 299.046L71.8678 298.65C71.8675 298.042 71.9986 297.44 72.2518 296.888C72.505 296.335 72.8743 295.845 73.3342 295.451L120.358 257.215C123.909 254.311 128.339 252.721 132.911 252.707L151.657 252.637C154.281 252.626 156.883 253.137 159.312 254.14C161.741 255.143 163.951 256.618 165.814 258.482C167.678 260.346 169.159 262.562 170.173 265.003C171.186 267.444 171.713 270.063 171.723 272.71ZM142.801 392.347L152.174 392.312C155.337 392.303 158.367 391.03 160.601 388.771C162.834 386.512 164.087 383.453 164.086 380.263L163.688 272.739C163.668 269.547 162.394 266.494 160.144 264.248C157.894 262.002 154.853 260.747 151.687 260.759L132.921 260.828C130.184 260.875 127.54 261.841 125.409 263.573L83.6698 297.501C92.2772 301.692 99.5412 308.241 104.631 316.398C109.721 324.555 112.431 333.992 112.451 343.629C112.453 344.045 112.454 344.42 112.456 344.886C112.469 345.065 112.47 345.245 112.458 345.424L112.588 380.454C112.6 381.617 112.77 382.773 113.093 383.889C113.701 385.637 114.647 387.247 115.876 388.624C116.984 389.825 118.327 390.782 119.819 391.434C121.312 392.086 122.922 392.42 124.549 392.414L141.816 392.35C141.958 392.32 142.102 392.303 142.248 392.298C142.433 392.295 142.619 392.311 142.801 392.347Z" fill="#EAEAEA" fill-opacity="0.2"/>
<path d="M96.4787 350.571C96.5272 359.643 93.1626 368.366 87.1181 374.84C81.0737 381.313 72.8394 385.011 64.2098 385.129L63.5921 385.131C57.0086 385.117 50.5818 383.014 45.1534 379.096C39.725 375.178 35.548 369.629 33.1696 363.175C30.7911 356.721 30.322 349.662 31.8237 342.925C33.3255 336.187 36.728 330.084 41.5857 325.415C41.7175 325.252 41.8275 325.17 41.8276 325.194L42.0585 324.996L42.1794 324.891L42.3113 324.763L44.6756 322.794C44.8069 322.634 44.9586 322.493 45.1263 322.375C50.0304 318.811 55.7678 316.723 61.7194 316.336C67.671 315.949 73.6106 317.279 78.8972 320.181C84.1838 323.083 88.6165 327.447 91.7169 332.803C94.8173 338.159 96.4676 344.302 96.4897 350.571L96.4787 350.571ZM47.5563 332.199C44.02 335.616 41.5439 340.072 40.4497 344.988C39.3556 349.905 39.6941 355.054 41.4213 359.767C43.1485 364.48 46.1845 368.538 50.1344 371.413C54.0843 374.288 58.7654 375.848 63.5689 375.89L64.0874 375.888C70.3547 375.696 76.3002 372.931 80.649 368.184C84.9977 363.437 87.4033 357.088 87.35 350.497C87.2968 343.906 84.7888 337.598 80.364 332.927C75.9392 328.255 69.9499 325.591 63.6803 325.507C58.8935 325.524 54.2237 327.061 50.2834 329.916L47.7983 332.013L47.5672 332.176L47.5563 332.199Z" fill="#EAEAEA" fill-opacity="0.2"/>
<path d="M96.4787 350.571C96.5272 359.643 93.1626 368.366 87.1181 374.84C81.0737 381.313 72.8394 385.011 64.2098 385.129L63.5921 385.131C57.0086 385.117 50.5818 383.014 45.1534 379.096C39.725 375.178 35.548 369.629 33.1696 363.175C30.7911 356.721 30.322 349.662 31.8237 342.925C33.3255 336.187 36.728 330.084 41.5857 325.415C41.7175 325.252 41.8275 325.17 41.8276 325.194L42.0585 324.996L42.1794 324.891L42.3113 324.763L44.6756 322.794C44.8069 322.634 44.9586 322.493 45.1263 322.375C50.0304 318.811 55.7678 316.723 61.7194 316.336C67.671 315.949 73.6106 317.279 78.8972 320.181C84.1838 323.083 88.6165 327.447 91.7169 332.803C94.8173 338.159 96.4676 344.302 96.4897 350.571L96.4787 350.571ZM47.5563 332.199C44.02 335.616 41.5439 340.072 40.4497 344.988C39.3556 349.905 39.6941 355.054 41.4213 359.767C43.1485 364.48 46.1845 368.538 50.1344 371.413C54.0843 374.288 58.7654 375.848 63.5689 375.89L64.0874 375.888C70.3547 375.696 76.3002 372.931 80.649 368.184C84.9977 363.437 87.4033 357.088 87.35 350.497C87.2968 343.906 84.7888 337.598 80.364 332.927C75.9392 328.255 69.9499 325.591 63.6803 325.507C58.8935 325.524 54.2237 327.061 50.2834 329.916L47.7983 332.013L47.5672 332.176L47.5563 332.199Z" fill="#EAEAEA" fill-opacity="0.2"/>
<path d="M16.0663 527.468L15.6715 420.803C15.6386 415.507 13.5073 410.44 9.74537 406.715C5.98345 402.99 0.89823 400.91 -4.39435 400.932L-32.0191 401.034C-34.7438 401.048 -37.4365 401.622 -39.9304 402.72C-42.4244 403.818 -44.6662 405.417 -46.5171 407.418L-46.6373 407.549C-48.4815 409.63 -49.9067 412.047 -50.8346 414.669L-50.9742 415.001C-51.5886 416.956 -51.8966 418.994 -51.8871 421.043L-51.7518 457.59C-51.7156 466.664 -54.548 475.516 -59.8438 482.881C-65.1396 490.246 -72.6275 495.746 -81.2364 498.595C-81.9381 498.819 -82.565 499.231 -83.0488 499.786C-83.5326 500.341 -83.8548 501.019 -83.9802 501.745C-83.9898 501.852 -83.9894 501.96 -83.9791 502.067L-83.9776 502.459C-83.9733 503.063 -83.8379 503.659 -83.5806 504.206C-83.3233 504.752 -82.9503 505.236 -82.4876 505.624L-35.1835 543.225C-31.6105 546.08 -27.169 547.626 -22.5967 547.606L-3.85165 547.536C-1.22673 547.528 1.3708 547.002 3.79256 545.989C6.21433 544.976 8.41286 543.495 10.2626 541.631C12.1122 539.768 13.5768 537.558 14.5727 535.127C15.5685 532.697 16.0761 530.094 16.0663 527.468ZM-13.7373 408.947L-4.36481 408.912C-1.20151 408.898 1.83838 410.139 4.08815 412.364C6.33793 414.59 7.61392 417.617 7.63629 420.782L8.03132 527.497C8.03506 530.665 6.78302 533.706 4.5498 535.951C2.31658 538.197 -0.715519 539.464 -3.88149 539.476L-22.6466 539.546C-25.3842 539.52 -28.0349 538.58 -30.1788 536.877L-72.1674 503.513C-63.5911 499.29 -56.3757 492.737 -51.3462 484.604C-46.3167 476.47 -43.6763 467.085 -43.727 457.521C-43.7285 457.108 -43.7299 456.736 -43.7316 456.273C-43.7196 456.095 -43.7202 455.917 -43.7335 455.739L-43.8622 420.973C-43.8587 419.818 -43.6972 418.67 -43.3821 417.56C-42.7867 415.82 -41.8527 414.216 -40.6341 412.84C-39.535 411.64 -38.1996 410.68 -36.7119 410.022C-35.2241 409.364 -33.6163 409.02 -31.9896 409.014L-14.7228 408.95C-14.5803 408.979 -14.4356 408.995 -14.2902 408.999C-14.1046 409.001 -13.9193 408.983 -13.7373 408.947Z" fill="#EAEAEA" fill-opacity="0.2"/>
<path d="M16.0663 527.468L15.6715 420.803C15.6386 415.507 13.5073 410.44 9.74537 406.715C5.98345 402.99 0.89823 400.91 -4.39435 400.932L-32.0191 401.034C-34.7438 401.048 -37.4365 401.622 -39.9304 402.72C-42.4244 403.818 -44.6662 405.417 -46.5171 407.418L-46.6373 407.549C-48.4815 409.63 -49.9067 412.047 -50.8346 414.669L-50.9742 415.001C-51.5886 416.956 -51.8966 418.994 -51.8871 421.043L-51.7518 457.59C-51.7156 466.664 -54.548 475.516 -59.8438 482.881C-65.1396 490.246 -72.6275 495.746 -81.2364 498.595C-81.9381 498.819 -82.565 499.231 -83.0488 499.786C-83.5326 500.341 -83.8548 501.019 -83.9802 501.745C-83.9898 501.852 -83.9894 501.96 -83.9791 502.067L-83.9776 502.459C-83.9733 503.063 -83.8379 503.659 -83.5806 504.206C-83.3233 504.752 -82.9503 505.236 -82.4876 505.624L-35.1835 543.225C-31.6105 546.08 -27.169 547.626 -22.5967 547.606L-3.85165 547.536C-1.22673 547.528 1.3708 547.002 3.79256 545.989C6.21433 544.976 8.41286 543.495 10.2626 541.631C12.1122 539.768 13.5768 537.558 14.5727 535.127C15.5685 532.697 16.0761 530.094 16.0663 527.468ZM-13.7373 408.947L-4.36481 408.912C-1.20151 408.898 1.83838 410.139 4.08815 412.364C6.33793 414.59 7.61392 417.617 7.63629 420.782L8.03132 527.497C8.03506 530.665 6.78302 533.706 4.5498 535.951C2.31658 538.197 -0.715519 539.464 -3.88149 539.476L-22.6466 539.546C-25.3842 539.52 -28.0349 538.58 -30.1788 536.877L-72.1674 503.513C-63.5911 499.29 -56.3757 492.737 -51.3462 484.604C-46.3167 476.47 -43.6763 467.085 -43.727 457.521C-43.7285 457.108 -43.7299 456.736 -43.7316 456.273C-43.7196 456.095 -43.7202 455.917 -43.7335 455.739L-43.8622 420.973C-43.8587 419.818 -43.6972 418.67 -43.3821 417.56C-42.7867 415.82 -41.8527 414.216 -40.6341 412.84C-39.535 411.64 -38.1996 410.68 -36.7119 410.022C-35.2241 409.364 -33.6163 409.02 -31.9896 409.014L-14.7228 408.95C-14.5803 408.979 -14.4356 408.995 -14.2902 408.999C-14.1046 409.001 -13.9193 408.983 -13.7373 408.947Z" fill="#EAEAEA" fill-opacity="0.2"/>
<path d="M-25.8829 296.607L-26.2777 189.942C-26.284 184.646 -24.1903 179.564 -20.4561 175.811C-16.7218 172.058 -11.6522 169.94 -6.35956 169.924L21.2652 169.821C23.9899 169.815 26.6868 170.369 29.1888 171.448C31.6908 172.528 33.9444 174.11 35.81 176.097L35.9312 176.227C37.7908 178.294 39.2339 180.701 40.1811 183.316L40.3232 183.648C40.9521 185.597 41.2751 187.633 41.2807 189.682L41.416 226.23C41.447 235.303 44.3449 244.134 49.6951 251.46C55.0453 258.785 62.5737 264.23 71.2035 267.015C71.9067 267.233 72.5367 267.641 73.0246 268.192C73.5125 268.744 73.8397 269.419 73.9705 270.144C73.9809 270.251 73.9813 270.359 73.9717 270.466L73.9732 270.859C73.9734 271.463 73.8423 272.06 73.5891 272.608C73.3358 273.156 72.9665 273.643 72.5066 274.034L25.4822 311.984C21.9304 314.866 17.5005 316.444 12.9282 316.458L-5.81687 316.528C-8.44178 316.539 -11.0431 316.032 -13.4723 315.037C-15.9015 314.042 -18.111 312.577 -19.9744 310.727C-21.8378 308.877 -23.3188 306.678 -24.3326 304.255C-25.3464 301.833 -25.8732 299.234 -25.8829 296.607ZM3.0425 177.869L-6.33002 177.903C-9.49334 177.912 -12.524 179.176 -14.7572 181.418C-16.9904 183.66 -18.244 186.697 -18.2429 189.862L-17.8479 296.577C-17.8282 299.745 -16.5536 302.776 -14.3039 305.005C-12.0541 307.234 -9.01268 308.479 -5.8467 308.468L12.9184 308.398C15.6558 308.352 18.2994 307.393 20.4306 305.673L62.1711 271.999C53.5638 267.84 46.3 261.341 41.2105 253.245C36.1209 245.149 33.4111 235.784 33.3909 226.219C33.3894 225.807 33.388 225.434 33.3863 224.971C33.373 224.794 33.3723 224.616 33.3843 224.438L33.2556 189.671C33.2435 188.517 33.0735 187.37 32.7502 186.262C32.1419 184.527 31.1961 182.93 29.9673 181.563C28.8594 180.371 27.5169 179.421 26.0244 178.774C24.5318 178.126 22.9215 177.795 21.2948 177.801L4.02802 177.865C3.88573 177.895 3.74111 177.912 3.59579 177.917C3.41018 177.92 3.22473 177.904 3.0425 177.869Z" fill="#EAEAEA" fill-opacity="0.2"/>
<path d="M-25.8829 296.607L-26.2777 189.942C-26.284 184.646 -24.1903 179.564 -20.4561 175.811C-16.7218 172.058 -11.6522 169.94 -6.35956 169.924L21.2652 169.821C23.9899 169.815 26.6868 170.369 29.1888 171.448C31.6908 172.528 33.9444 174.11 35.81 176.097L35.9312 176.227C37.7908 178.294 39.2339 180.701 40.1811 183.316L40.3232 183.648C40.9521 185.597 41.2751 187.633 41.2807 189.682L41.416 226.23C41.447 235.303 44.3449 244.134 49.6951 251.46C55.0453 258.785 62.5737 264.23 71.2035 267.015C71.9067 267.233 72.5367 267.641 73.0246 268.192C73.5125 268.744 73.8397 269.419 73.9705 270.144C73.9809 270.251 73.9813 270.359 73.9717 270.466L73.9732 270.859C73.9734 271.463 73.8423 272.06 73.5891 272.608C73.3358 273.156 72.9665 273.643 72.5066 274.034L25.4822 311.984C21.9304 314.866 17.5005 316.444 12.9282 316.458L-5.81687 316.528C-8.44178 316.539 -11.0431 316.032 -13.4723 315.037C-15.9015 314.042 -18.111 312.577 -19.9744 310.727C-21.8378 308.877 -23.3188 306.678 -24.3326 304.255C-25.3464 301.833 -25.8732 299.234 -25.8829 296.607ZM3.0425 177.869L-6.33002 177.903C-9.49334 177.912 -12.524 179.176 -14.7572 181.418C-16.9904 183.66 -18.244 186.697 -18.2429 189.862L-17.8479 296.577C-17.8282 299.745 -16.5536 302.776 -14.3039 305.005C-12.0541 307.234 -9.01268 308.479 -5.8467 308.468L12.9184 308.398C15.6558 308.352 18.2994 307.393 20.4306 305.673L62.1711 271.999C53.5638 267.84 46.3 261.341 41.2105 253.245C36.1209 245.149 33.4111 235.784 33.3909 226.219C33.3894 225.807 33.388 225.434 33.3863 224.971C33.373 224.794 33.3723 224.616 33.3843 224.438L33.2556 189.671C33.2435 188.517 33.0735 187.37 32.7502 186.262C32.1419 184.527 31.1961 182.93 29.9673 181.563C28.8594 180.371 27.5169 179.421 26.0244 178.774C24.5318 178.126 22.9215 177.795 21.2948 177.801L4.02802 177.865C3.88573 177.895 3.74111 177.912 3.59579 177.917C3.41018 177.92 3.22473 177.904 3.0425 177.869Z" fill="#EAEAEA" fill-opacity="0.2"/>
<path d="M49.3651 218.594C49.3166 209.522 52.6812 200.799 58.7256 194.326C64.7701 187.852 73.0044 184.154 81.6339 184.036L82.2516 184.034C88.8351 184.048 95.2619 186.151 100.69 190.069C106.119 193.987 110.296 199.536 112.674 205.991C115.053 212.445 115.522 219.503 114.02 226.241C112.518 232.978 109.116 239.081 104.258 243.751C104.126 243.913 104.016 243.995 104.016 243.972L103.785 244.17L103.664 244.275L103.532 244.403L101.168 246.371C101.037 246.532 100.885 246.673 100.717 246.79C95.8134 250.354 90.0759 252.443 84.1243 252.829C78.1728 253.216 72.2331 251.887 66.9465 248.985C61.6599 246.083 57.2272 241.718 54.1268 236.362C51.0264 231.007 49.3761 224.863 49.354 218.594L49.3651 218.594ZM98.2875 236.966C101.824 233.55 104.3 229.093 105.394 224.177C106.488 219.26 106.15 214.111 104.422 209.398C102.695 204.686 99.6593 200.628 95.7094 197.752C91.7595 194.877 87.0784 193.317 82.2748 193.276L81.7564 193.277C75.489 193.469 69.5435 196.235 65.1948 200.981C60.8461 205.728 58.4405 212.077 58.4937 218.668C58.547 225.259 61.0549 231.567 65.4797 236.238C69.9045 240.91 75.8939 243.574 82.1635 243.658C86.9503 243.642 91.62 242.105 95.5603 239.249L98.0455 237.152L98.2765 236.989L98.2875 236.966Z" fill="#EAEAEA" fill-opacity="0.2"/>
<path d="M49.3651 218.594C49.3166 209.522 52.6812 200.799 58.7256 194.326C64.7701 187.852 73.0044 184.154 81.6339 184.036L82.2516 184.034C88.8351 184.048 95.2619 186.151 100.69 190.069C106.119 193.987 110.296 199.536 112.674 205.991C115.053 212.445 115.522 219.503 114.02 226.241C112.518 232.978 109.116 239.081 104.258 243.751C104.126 243.913 104.016 243.995 104.016 243.972L103.785 244.17L103.664 244.275L103.532 244.403L101.168 246.371C101.037 246.532 100.885 246.673 100.717 246.79C95.8134 250.354 90.0759 252.443 84.1243 252.829C78.1728 253.216 72.2331 251.887 66.9465 248.985C61.6599 246.083 57.2272 241.718 54.1268 236.362C51.0264 231.007 49.3761 224.863 49.354 218.594L49.3651 218.594ZM98.2875 236.966C101.824 233.55 104.3 229.093 105.394 224.177C106.488 219.26 106.15 214.111 104.422 209.398C102.695 204.686 99.6593 200.628 95.7094 197.752C91.7595 194.877 87.0784 193.317 82.2748 193.276L81.7564 193.277C75.489 193.469 69.5435 196.235 65.1948 200.981C60.8461 205.728 58.4405 212.077 58.4937 218.668C58.547 225.259 61.0549 231.567 65.4797 236.238C69.9045 240.91 75.8939 243.574 82.1635 243.658C86.9503 243.642 91.62 242.105 95.5603 239.249L98.0455 237.152L98.2765 236.989L98.2875 236.966Z" fill="#EAEAEA" fill-opacity="0.2"/>
<path d="M100.191 150.493L99.7931 43.0198C99.7599 37.6838 97.605 32.5789 93.8014 28.8255C89.9977 25.072 84.856 22.9766 79.5046 22.9991L51.5729 23.1025C48.818 23.1164 46.0953 23.6944 43.5736 24.8008C41.052 25.9072 38.7852 27.5183 36.9138 29.5343L36.7923 29.6666C34.9275 31.7631 33.4864 34.199 32.5482 36.8405L32.407 37.1756C31.7857 39.1448 31.4743 41.1982 31.4839 43.2625L31.6203 80.0873C31.6567 89.2293 28.7927 98.1486 23.438 105.569C18.0832 112.99 10.512 118.532 1.80745 121.403C1.09801 121.628 0.464154 122.043 -0.0250496 122.603C-0.514253 123.162 -0.840029 123.845 -0.966884 124.577C-0.97654 124.685 -0.976138 124.793 -0.965683 124.901L-0.964219 125.297C-0.959907 125.905 -0.822941 126.506 -0.562806 127.056C-0.302672 127.607 0.0744256 128.094 0.542314 128.485L48.3715 166.37C51.9842 169.247 56.475 170.804 61.0981 170.784L80.0514 170.714C82.7055 170.706 85.3319 170.176 87.7806 169.155C90.2293 168.134 92.4523 166.642 94.3225 164.764C96.1928 162.886 97.6737 160.659 98.6806 158.211C99.6876 155.762 100.201 153.14 100.191 150.493ZM70.0577 31.0744L79.5344 31.0394C82.7328 31.0248 85.8065 32.2758 88.0812 34.5178C90.356 36.7598 91.6461 39.8099 91.6687 42.9992L92.0667 150.523C92.0704 153.715 90.8044 156.778 88.5464 159.041C86.2883 161.304 83.2225 162.581 80.0214 162.593L61.0477 162.663C58.2797 162.637 55.5996 161.69 53.4319 159.974L10.9772 126.358C19.6488 122.103 26.9445 115.5 32.03 107.305C37.1154 99.1101 39.7853 89.6535 39.7342 80.0167C39.7327 79.601 39.7313 79.2259 39.7296 78.7595C39.7417 78.5805 39.7411 78.401 39.7276 78.2221L39.5979 43.1919C39.6015 42.0289 39.7649 40.8718 40.0834 39.753C40.6855 38.0004 41.6299 36.3841 42.8621 34.9976C43.9733 33.7884 45.3236 32.8216 46.8279 32.1582C48.3322 31.4948 49.9578 31.149 51.6026 31.1428L69.0613 31.0781C69.2053 31.1072 69.3517 31.1237 69.4987 31.1272C69.6863 31.1292 69.8737 31.1115 70.0577 31.0744Z" fill="#EAEAEA" fill-opacity="0.2"/>
<path d="M100.191 150.493L99.7931 43.0198C99.7599 37.6838 97.605 32.5789 93.8014 28.8255C89.9977 25.072 84.856 22.9766 79.5046 22.9991L51.5729 23.1025C48.818 23.1164 46.0953 23.6944 43.5736 24.8008C41.052 25.9072 38.7852 27.5183 36.9138 29.5343L36.7923 29.6666C34.9275 31.7631 33.4864 34.199 32.5482 36.8405L32.407 37.1756C31.7857 39.1448 31.4743 41.1982 31.4839 43.2625L31.6203 80.0873C31.6567 89.2293 28.7927 98.1486 23.438 105.569C18.0832 112.99 10.512 118.532 1.80745 121.403C1.09801 121.628 0.464154 122.043 -0.0250496 122.603C-0.514253 123.162 -0.840029 123.845 -0.966884 124.577C-0.97654 124.685 -0.976138 124.793 -0.965683 124.901L-0.964219 125.297C-0.959907 125.905 -0.822941 126.506 -0.562806 127.056C-0.302672 127.607 0.0744256 128.094 0.542314 128.485L48.3715 166.37C51.9842 169.247 56.475 170.804 61.0981 170.784L80.0514 170.714C82.7055 170.706 85.3319 170.176 87.7806 169.155C90.2293 168.134 92.4523 166.642 94.3225 164.764C96.1928 162.886 97.6737 160.659 98.6806 158.211C99.6876 155.762 100.201 153.14 100.191 150.493ZM70.0577 31.0744L79.5344 31.0394C82.7328 31.0248 85.8065 32.2758 88.0812 34.5178C90.356 36.7598 91.6461 39.8099 91.6687 42.9992L92.0667 150.523C92.0704 153.715 90.8044 156.778 88.5464 159.041C86.2883 161.304 83.2225 162.581 80.0214 162.593L61.0477 162.663C58.2797 162.637 55.5996 161.69 53.4319 159.974L10.9772 126.358C19.6488 122.103 26.9445 115.5 32.03 107.305C37.1154 99.1101 39.7853 89.6535 39.7342 80.0167C39.7327 79.601 39.7313 79.2259 39.7296 78.7595C39.7417 78.5805 39.7411 78.401 39.7276 78.2221L39.5979 43.1919C39.6015 42.0289 39.7649 40.8718 40.0834 39.753C40.6855 38.0004 41.6299 36.3841 42.8621 34.9976C43.9733 33.7884 45.3236 32.8216 46.8279 32.1582C48.3322 31.4948 49.9578 31.149 51.6026 31.1428L69.0613 31.0781C69.2053 31.1072 69.3517 31.1237 69.4987 31.1272C69.6863 31.1292 69.8737 31.1115 70.0577 31.0744Z" fill="#EAEAEA" fill-opacity="0.2"/>
<path d="M24.372 73.7465C24.3542 64.8205 20.868 56.2631 14.6733 49.9392C8.47865 43.6153 0.0776395 40.0376 -8.69882 39.9858L-9.32699 39.9881C-16.0218 40.0505 -22.5418 42.1676 -28.0331 46.0623C-33.5243 49.9571 -37.7308 55.4477 -40.1017 61.8153C-42.4726 68.1828 -42.8974 75.1303 -41.3204 81.748C-39.7433 88.3657 -36.238 94.3449 -31.2635 98.9028C-31.1283 99.062 -31.0158 99.1414 -31.0159 99.1186L-30.7796 99.3117L-30.6559 99.4139L-30.5208 99.5389L-28.1019 101.458C-27.9672 101.615 -27.8119 101.753 -27.6405 101.867C-22.6271 105.337 -16.777 107.349 -10.7219 107.686C-4.66672 108.022 1.3636 106.67 6.71815 103.776C12.0727 100.882 16.5481 96.5549 19.6613 91.2627C22.7745 85.9704 24.4072 79.9138 24.3832 73.7465L24.372 73.7465ZM-25.2422 92.1837C-28.8635 88.8487 -31.4146 84.4829 -32.5637 79.6538C-33.7128 74.8248 -33.4066 69.7561 -31.6851 65.1067C-29.9636 60.4574 -26.9063 56.4426 -22.9109 53.5844C-18.9154 50.7262 -14.1667 49.1569 -9.28214 49.0805L-8.75492 49.0785C-2.38009 49.2206 3.68653 51.8975 8.14398 56.5352C12.6014 61.1729 15.0948 67.402 15.0895 73.8869C15.0841 80.3718 12.5805 86.596 8.11536 91.2249C3.65028 95.8539 -2.4207 98.5189 -8.79576 98.6485C-13.6637 98.6674 -18.4238 97.1899 -22.452 94.4095L-24.9947 92.3653L-25.2308 92.2065L-25.2422 92.1837Z" fill="#EAEAEA" fill-opacity="0.2"/>
<path d="M24.372 73.7465C24.3542 64.8205 20.868 56.2631 14.6733 49.9392C8.47865 43.6153 0.0776395 40.0376 -8.69882 39.9858L-9.32699 39.9881C-16.0218 40.0505 -22.5418 42.1676 -28.0331 46.0623C-33.5243 49.9571 -37.7308 55.4477 -40.1017 61.8153C-42.4726 68.1828 -42.8974 75.1303 -41.3204 81.748C-39.7433 88.3657 -36.238 94.3449 -31.2635 98.9028C-31.1283 99.062 -31.0158 99.1414 -31.0159 99.1186L-30.7796 99.3117L-30.6559 99.4139L-30.5208 99.5389L-28.1019 101.458C-27.9672 101.615 -27.8119 101.753 -27.6405 101.867C-22.6271 105.337 -16.777 107.349 -10.7219 107.686C-4.66672 108.022 1.3636 106.67 6.71815 103.776C12.0727 100.882 16.5481 96.5549 19.6613 91.2627C22.7745 85.9704 24.4072 79.9138 24.3832 73.7465L24.372 73.7465ZM-25.2422 92.1837C-28.8635 88.8487 -31.4146 84.4829 -32.5637 79.6538C-33.7128 74.8248 -33.4066 69.7561 -31.6851 65.1067C-29.9636 60.4574 -26.9063 56.4426 -22.9109 53.5844C-18.9154 50.7262 -14.1667 49.1569 -9.28214 49.0805L-8.75492 49.0785C-2.38009 49.2206 3.68653 51.8975 8.14398 56.5352C12.6014 61.1729 15.0948 67.402 15.0895 73.8869C15.0841 80.3718 12.5805 86.596 8.11536 91.2249C3.65028 95.8539 -2.4207 98.5189 -8.79576 98.6485C-13.6637 98.6674 -18.4238 97.1899 -22.452 94.4095L-24.9947 92.3653L-25.2308 92.2065L-25.2422 92.1837Z" fill="#EAEAEA" fill-opacity="0.2"/>
<path d="M68.5021 562.198L174.527 561.42C179.791 561.395 184.85 563.47 188.594 567.19C192.338 570.91 194.461 575.971 194.497 581.263L194.697 608.882C194.713 611.606 194.172 614.304 193.108 616.81C192.044 619.315 190.479 621.574 188.511 623.446L188.382 623.568C186.334 625.434 183.946 626.886 181.351 627.842L181.022 627.985C179.086 628.621 177.064 628.952 175.027 628.965L138.698 629.231C129.68 629.294 120.912 632.223 113.649 637.599C106.387 642.974 101.002 650.521 98.2639 659.159C98.0495 659.863 97.647 660.494 97.1002 660.984C96.5534 661.473 95.8834 661.803 95.1632 661.936C95.0568 661.947 94.9496 661.948 94.8431 661.939L94.453 661.942C93.8526 661.944 93.2589 661.815 92.713 661.564C92.1671 661.313 91.6821 660.945 91.2915 660.487L53.4006 613.608C50.5239 610.067 48.9387 605.644 48.9084 601.072L48.7724 582.331C48.7521 579.707 49.2463 577.104 50.227 574.672C51.2076 572.239 52.6553 570.025 54.4875 568.155C56.3197 566.286 58.5004 564.797 60.9051 563.775C63.3098 562.753 65.8913 562.217 68.5021 562.198ZM186.633 590.691L186.565 581.321C186.544 578.158 185.277 575.133 183.041 572.908C180.804 570.683 177.782 569.441 174.635 569.453L68.5604 570.231C65.4115 570.262 62.4034 571.547 60.1958 573.804C57.9882 576.062 56.7614 579.107 56.7843 582.272L56.9204 601.034C56.9762 603.77 57.9388 606.41 59.6556 608.534L93.2771 650.146C97.3806 641.525 103.815 634.24 111.844 629.122C119.873 624.005 129.173 621.262 138.68 621.207C139.09 621.204 139.46 621.202 139.921 621.198C140.097 621.184 140.274 621.183 140.451 621.194L175.009 620.941C176.156 620.925 177.296 620.751 178.396 620.423C180.118 619.809 181.703 618.858 183.057 617.624C184.238 616.512 185.177 615.167 185.815 613.672C186.453 612.177 186.777 610.566 186.765 608.94L186.64 591.677C186.61 591.535 186.592 591.39 186.587 591.245C186.583 591.059 186.598 590.874 186.633 590.691Z" fill="#EAEAEA" fill-opacity="0.2"/>
<path d="M68.5021 562.198L174.527 561.42C179.791 561.395 184.85 563.47 188.594 567.19C192.338 570.91 194.461 575.971 194.497 581.263L194.697 608.882C194.713 611.606 194.172 614.304 193.108 616.81C192.044 619.315 190.479 621.574 188.511 623.446L188.382 623.568C186.334 625.434 183.946 626.886 181.351 627.842L181.022 627.985C179.086 628.621 177.064 628.952 175.027 628.965L138.698 629.231C129.68 629.294 120.912 632.223 113.649 637.599C106.387 642.974 101.002 650.521 98.2639 659.159C98.0495 659.863 97.647 660.494 97.1002 660.984C96.5534 661.473 95.8834 661.803 95.1632 661.936C95.0568 661.947 94.9496 661.948 94.8431 661.939L94.453 661.942C93.8526 661.944 93.2589 661.815 92.713 661.564C92.1671 661.313 91.6821 660.945 91.2915 660.487L53.4006 613.608C50.5239 610.067 48.9387 605.644 48.9084 601.072L48.7724 582.331C48.7521 579.707 49.2463 577.104 50.227 574.672C51.2076 572.239 52.6553 570.025 54.4875 568.155C56.3197 566.286 58.5004 564.797 60.9051 563.775C63.3098 562.753 65.8913 562.217 68.5021 562.198ZM186.633 590.691L186.565 581.321C186.544 578.158 185.277 575.133 183.041 572.908C180.804 570.683 177.782 569.441 174.635 569.453L68.5604 570.231C65.4115 570.262 62.4034 571.547 60.1958 573.804C57.9882 576.062 56.7614 579.107 56.7843 582.272L56.9204 601.034C56.9762 603.77 57.9388 606.41 59.6556 608.534L93.2771 650.146C97.3806 641.525 103.815 634.24 111.844 629.122C119.873 624.005 129.173 621.262 138.68 621.207C139.09 621.204 139.46 621.202 139.921 621.198C140.097 621.184 140.274 621.183 140.451 621.194L175.009 620.941C176.156 620.925 177.296 620.751 178.396 620.423C180.118 619.809 181.703 618.858 183.057 617.624C184.238 616.512 185.177 615.167 185.815 613.672C186.453 612.177 186.777 610.566 186.765 608.94L186.64 591.677C186.61 591.535 186.592 591.39 186.587 591.245C186.583 591.059 186.598 590.874 186.633 590.691Z" fill="#EAEAEA" fill-opacity="0.2"/>
<path d="M145.448 637.039C154.362 636.959 162.946 640.349 169.329 646.473C175.712 652.596 179.376 660.956 179.524 669.73L179.529 670.358C179.54 677.051 177.497 683.593 173.668 689.126C169.839 694.659 164.402 698.925 158.069 701.365C151.736 703.806 144.803 704.307 138.177 702.803C131.551 701.299 125.542 697.861 120.936 692.938C120.776 692.805 120.695 692.693 120.718 692.693L120.522 692.459L120.419 692.336L120.293 692.202L118.35 689.805C118.191 689.672 118.052 689.519 117.936 689.348C114.416 684.375 112.343 678.548 111.94 672.498C111.538 666.448 112.822 660.405 115.654 655.02C118.485 649.634 122.757 645.112 128.008 641.942C133.259 638.771 139.289 637.072 145.448 637.028L145.448 637.039ZM127.58 686.844C130.95 690.428 135.338 692.93 140.173 694.026C145.007 695.121 150.066 694.759 154.69 692.987C159.314 691.215 163.29 688.114 166.1 684.088C168.911 680.062 170.426 675.297 170.449 670.413L170.445 669.886C170.233 663.514 167.493 657.479 162.813 653.073C158.133 648.668 151.885 646.244 145.41 646.321C138.934 646.398 132.746 648.969 128.172 653.484C123.598 657.999 121.004 664.098 120.944 670.473C120.978 675.34 122.506 680.083 125.327 684.079L127.396 686.599L127.557 686.833L127.58 686.844Z" fill="#EAEAEA" fill-opacity="0.2"/>
<path d="M145.448 637.039C154.362 636.959 162.946 640.349 169.329 646.473C175.712 652.596 179.376 660.956 179.524 669.73L179.529 670.358C179.54 677.051 177.497 683.593 173.668 689.126C169.839 694.659 164.402 698.925 158.069 701.365C151.736 703.806 144.803 704.307 138.177 702.803C131.551 701.299 125.542 697.861 120.936 692.938C120.776 692.805 120.695 692.693 120.718 692.693L120.522 692.459L120.419 692.336L120.293 692.202L118.35 689.805C118.191 689.672 118.052 689.519 117.936 689.348C114.416 684.375 112.343 678.548 111.94 672.498C111.538 666.448 112.822 660.405 115.654 655.02C118.485 649.634 122.757 645.112 128.008 641.942C133.259 638.771 139.289 637.072 145.448 637.028L145.448 637.039ZM127.58 686.844C130.95 690.428 135.338 692.93 140.173 694.026C145.007 695.121 150.066 694.759 154.69 692.987C159.314 691.215 163.29 688.114 166.1 684.088C168.911 680.062 170.426 675.297 170.449 670.413L170.445 669.886C170.233 663.514 167.493 657.479 162.813 653.073C158.133 648.668 151.885 646.244 145.41 646.321C138.934 646.398 132.746 648.969 128.172 653.484C123.598 657.999 121.004 664.098 120.944 670.473C120.978 675.34 122.506 680.083 125.327 684.079L127.396 686.599L127.557 686.833L127.58 686.844Z" fill="#EAEAEA" fill-opacity="0.2"/>
<path d="M139.822 144.641L245.847 143.864C251.111 143.838 256.171 145.913 259.915 149.633C263.658 153.353 265.781 158.415 265.817 163.706L266.017 191.325C266.033 194.049 265.493 196.748 264.429 199.253C263.364 201.758 261.8 204.017 259.831 205.89L259.702 206.011C257.654 207.878 255.267 209.329 252.671 210.286L252.342 210.429C250.406 211.065 248.384 211.395 246.347 211.408L210.019 211.674C201 211.738 192.232 214.667 184.97 220.042C177.707 225.418 172.322 232.964 169.584 241.602C169.37 242.306 168.967 242.937 168.421 243.427C167.874 243.917 167.204 244.246 166.483 244.38C166.377 244.39 166.27 244.391 166.163 244.382L165.773 244.385C165.173 244.387 164.579 244.258 164.033 244.007C163.487 243.756 163.002 243.388 162.612 242.93L124.721 196.051C121.844 192.51 120.259 188.087 120.229 183.515L120.093 164.774C120.072 162.15 120.567 159.547 121.547 157.115C122.528 154.683 123.976 152.469 125.808 150.599C127.64 148.729 129.821 147.241 132.225 146.218C134.63 145.196 137.212 144.66 139.822 144.641ZM257.953 173.135L257.885 163.764C257.865 160.602 256.597 157.576 254.361 155.351C252.125 153.127 249.102 151.884 245.956 151.897L139.881 152.674C136.732 152.705 133.724 153.99 131.516 156.248C129.308 158.505 128.082 161.55 128.105 164.716L128.241 183.477C128.297 186.213 129.259 188.853 130.976 190.978L164.597 232.589C168.701 223.969 175.135 216.683 183.164 211.566C191.194 206.448 200.494 203.705 210.001 203.651C210.411 203.648 210.781 203.645 211.241 203.642C211.417 203.628 211.594 203.626 211.771 203.638L246.329 203.384C247.476 203.368 248.616 203.194 249.716 202.867C251.439 202.252 253.023 201.301 254.377 200.068C255.558 198.956 256.497 197.61 257.135 196.115C257.774 194.621 258.097 193.01 258.085 191.383L257.96 174.12C257.93 173.978 257.912 173.833 257.907 173.688C257.903 173.503 257.918 173.317 257.953 173.135Z" fill="#EAEAEA" fill-opacity="0.2"/>
<path d="M216.769 219.482C225.682 219.402 234.266 222.793 240.649 228.916C247.032 235.04 250.697 243.399 250.845 252.173L250.849 252.801C250.86 259.495 248.817 266.036 244.988 271.569C241.159 277.102 235.722 281.368 229.389 283.809C223.056 286.249 216.123 286.75 209.498 285.247C202.872 283.743 196.862 280.304 192.256 275.381C192.096 275.248 192.015 275.136 192.038 275.136L191.843 274.902L191.739 274.779L191.613 274.646L189.67 272.249C189.512 272.116 189.373 271.962 189.257 271.792C185.736 266.818 183.663 260.992 183.261 254.942C182.858 248.892 184.142 242.848 186.974 237.463C189.806 232.078 194.077 227.556 199.328 224.385C204.579 221.214 210.609 219.515 216.768 219.471L216.769 219.482ZM198.9 269.287C202.27 272.871 206.658 275.373 211.493 276.469C216.328 277.565 221.386 277.203 226.01 275.43C230.634 273.658 234.61 270.557 237.42 266.531C240.231 262.505 241.746 257.74 241.769 252.856L241.765 252.329C241.553 245.958 238.814 239.922 234.134 235.517C229.454 231.111 223.206 228.687 216.73 228.764C210.254 228.841 204.066 231.413 199.492 235.928C194.919 240.443 192.324 246.541 192.264 252.916C192.299 257.783 193.826 262.526 196.647 266.522L198.716 269.042L198.877 269.276L198.9 269.287Z" fill="#EAEAEA" fill-opacity="0.2"/>
<path d="M336.623 681.572L230.598 682.35C225.334 682.375 220.275 680.3 216.531 676.58C212.787 672.86 210.664 667.799 210.628 662.507L210.428 634.888C210.412 632.164 210.953 629.466 212.017 626.96C213.081 624.455 214.646 622.196 216.614 620.324L216.743 620.202C218.791 618.336 221.179 616.884 223.774 615.928L224.103 615.785C226.039 615.149 228.061 614.819 230.098 614.806L266.427 614.539C275.445 614.476 284.213 611.547 291.476 606.171C298.738 600.796 304.123 593.249 306.861 584.611C307.076 583.907 307.478 583.276 308.025 582.786C308.572 582.297 309.242 581.967 309.962 581.834C310.068 581.823 310.175 581.822 310.282 581.831L310.672 581.828C311.272 581.826 311.866 581.955 312.412 582.206C312.958 582.457 313.443 582.825 313.833 583.283L351.724 630.162C354.601 633.703 356.186 638.126 356.217 642.698L356.353 661.439C356.373 664.063 355.879 666.666 354.898 669.098C353.917 671.531 352.47 673.745 350.637 675.615C348.805 677.484 346.625 678.973 344.22 679.995C341.815 681.017 339.234 681.553 336.623 681.572ZM218.492 653.079L218.56 662.449C218.581 665.612 219.848 668.637 222.084 670.862C224.321 673.087 227.343 674.329 230.49 674.317L336.565 673.539C339.714 673.508 342.722 672.223 344.929 669.966C347.137 667.708 348.364 664.663 348.341 661.498L348.205 642.737C348.149 640 347.186 637.36 345.469 635.236L311.848 593.624C307.744 602.245 301.31 609.53 293.281 614.648C285.252 619.765 275.952 622.508 266.445 622.563C266.035 622.566 265.665 622.568 265.204 622.572C265.028 622.586 264.851 622.587 264.674 622.576L230.116 622.829C228.969 622.845 227.829 623.019 226.729 623.347C225.007 623.961 223.422 624.912 222.068 626.146C220.887 627.258 219.948 628.603 219.31 630.098C218.672 631.593 218.348 633.204 218.36 634.83L218.485 652.093C218.515 652.235 218.533 652.38 218.538 652.525C218.542 652.711 218.527 652.896 218.492 653.079Z" fill="#EAEAEA" fill-opacity="0.2"/>
<path d="M336.623 681.572L230.598 682.35C225.334 682.375 220.275 680.3 216.531 676.58C212.787 672.86 210.664 667.799 210.628 662.507L210.428 634.888C210.412 632.164 210.953 629.466 212.017 626.96C213.081 624.455 214.646 622.196 216.614 620.324L216.743 620.202C218.791 618.336 221.179 616.884 223.774 615.928L224.103 615.785C226.039 615.149 228.061 614.819 230.098 614.806L266.427 614.539C275.445 614.476 284.213 611.547 291.476 606.171C298.738 600.796 304.123 593.249 306.861 584.611C307.076 583.907 307.478 583.276 308.025 582.786C308.572 582.297 309.242 581.967 309.962 581.834C310.068 581.823 310.175 581.822 310.282 581.831L310.672 581.828C311.272 581.826 311.866 581.955 312.412 582.206C312.958 582.457 313.443 582.825 313.833 583.283L351.724 630.162C354.601 633.703 356.186 638.126 356.217 642.698L356.353 661.439C356.373 664.063 355.879 666.666 354.898 669.098C353.917 671.531 352.47 673.745 350.637 675.615C348.805 677.484 346.625 678.973 344.22 679.995C341.815 681.017 339.234 681.553 336.623 681.572ZM218.492 653.079L218.56 662.449C218.581 665.612 219.848 668.637 222.084 670.862C224.321 673.087 227.343 674.329 230.49 674.317L336.565 673.539C339.714 673.508 342.722 672.223 344.929 669.966C347.137 667.708 348.364 664.663 348.341 661.498L348.205 642.737C348.149 640 347.186 637.36 345.469 635.236L311.848 593.624C307.744 602.245 301.31 609.53 293.281 614.648C285.252 619.765 275.952 622.508 266.445 622.563C266.035 622.566 265.665 622.568 265.204 622.572C265.028 622.586 264.851 622.587 264.674 622.576L230.116 622.829C228.969 622.845 227.829 623.019 226.729 623.347C225.007 623.961 223.422 624.912 222.068 626.146C220.887 627.258 219.948 628.603 219.31 630.098C218.672 631.593 218.348 633.204 218.36 634.83L218.485 652.093C218.515 652.235 218.533 652.38 218.538 652.525C218.542 652.711 218.527 652.896 218.492 653.079Z" fill="#EAEAEA" fill-opacity="0.2"/>
<path d="M259.673 606.731C250.759 606.811 242.175 603.42 235.792 597.297C229.409 591.173 225.745 582.814 225.597 574.04L225.592 573.412C225.581 566.718 227.624 560.177 231.453 554.644C235.282 549.111 240.719 544.845 247.052 542.405C253.385 539.964 260.318 539.463 266.944 540.967C273.57 542.47 279.579 545.909 284.185 550.832C284.345 550.965 284.426 551.077 284.403 551.077L284.599 551.311L284.702 551.434L284.828 551.567L286.771 553.964C286.93 554.097 287.069 554.251 287.185 554.421C290.705 559.395 292.778 565.222 293.181 571.272C293.583 577.321 292.299 583.365 289.467 588.75C286.636 594.135 282.364 598.657 277.113 601.828C271.862 604.999 265.832 606.698 259.673 606.742L259.673 606.731ZM277.541 556.926C274.171 553.342 269.783 550.84 264.949 549.744C260.114 548.649 255.055 549.011 250.431 550.783C245.807 552.555 241.831 555.656 239.021 559.682C236.211 563.708 234.695 568.473 234.673 573.357L234.676 573.884C234.888 580.256 237.628 586.291 242.308 590.696C246.988 595.102 253.236 597.526 259.711 597.449C266.187 597.372 272.375 594.8 276.949 590.285C281.523 585.77 284.117 579.672 284.177 573.297C284.143 568.43 282.615 563.687 279.794 559.691L277.725 557.171L277.564 556.937L277.541 556.926Z" fill="#EAEAEA" fill-opacity="0.2"/>
<path d="M259.673 606.731C250.759 606.811 242.175 603.42 235.792 597.297C229.409 591.173 225.745 582.814 225.597 574.04L225.592 573.412C225.581 566.718 227.624 560.177 231.453 554.644C235.282 549.111 240.719 544.845 247.052 542.405C253.385 539.964 260.318 539.463 266.944 540.967C273.57 542.47 279.579 545.909 284.185 550.832C284.345 550.965 284.426 551.077 284.403 551.077L284.599 551.311L284.702 551.434L284.828 551.567L286.771 553.964C286.93 554.097 287.069 554.251 287.185 554.421C290.705 559.395 292.778 565.222 293.181 571.272C293.583 577.321 292.299 583.365 289.467 588.75C286.636 594.135 282.364 598.657 277.113 601.828C271.862 604.999 265.832 606.698 259.673 606.742L259.673 606.731ZM277.541 556.926C274.171 553.342 269.783 550.84 264.949 549.744C260.114 548.649 255.055 549.011 250.431 550.783C245.807 552.555 241.831 555.656 239.021 559.682C236.211 563.708 234.695 568.473 234.673 573.357L234.676 573.884C234.888 580.256 237.628 586.291 242.308 590.696C246.988 595.102 253.236 597.526 259.711 597.449C266.187 597.372 272.375 594.8 276.949 590.285C281.523 585.77 284.117 579.672 284.177 573.297C284.143 568.43 282.615 563.687 279.794 559.691L277.725 557.171L277.564 556.937L277.541 556.926Z" fill="#EAEAEA" fill-opacity="0.2"/>
</g>
</svg>
