<svg width="520" height="614" viewBox="0 0 520 614" fill="none" xmlns="http://www.w3.org/2000/svg">
<path d="M237.898 467H317.374C321.32 467.01 325.101 468.588 327.887 471.389C330.673 474.189 332.236 477.982 332.234 481.936V502.576C332.232 504.611 331.812 506.625 331 508.491C330.189 510.357 329.004 512.037 327.518 513.425L327.421 513.515C325.876 514.899 324.078 515.97 322.127 516.671L321.88 516.776C320.426 517.24 318.908 517.476 317.381 517.475H290.15C283.389 517.473 276.801 519.613 271.329 523.59C265.856 527.567 261.778 533.177 259.679 539.616C259.514 540.141 259.209 540.611 258.797 540.974C258.384 541.337 257.88 541.579 257.34 541.675C257.26 541.682 257.18 541.682 257.1 541.675H256.807C256.357 541.673 255.913 541.574 255.505 541.383C255.097 541.192 254.736 540.915 254.446 540.57L226.299 505.333C224.162 502.671 222.998 499.357 223 495.941V481.936C222.999 479.975 223.384 478.033 224.132 476.221C224.88 474.409 225.978 472.762 227.361 471.375C228.745 469.988 230.387 468.888 232.195 468.137C234.003 467.386 235.941 467 237.898 467ZM326.289 488.939V481.936C326.291 479.573 325.357 477.305 323.693 475.631C322.029 473.956 319.77 473.011 317.411 473.003H237.898C235.538 473.009 233.276 473.953 231.609 475.628C229.942 477.302 229.006 479.571 229.006 481.936V495.956C229.033 498.002 229.74 499.979 231.015 501.576L255.99 532.854C259.113 526.435 263.975 521.026 270.021 517.246C276.068 513.466 283.053 511.467 290.18 511.479C290.487 511.479 290.765 511.479 291.109 511.479C291.242 511.469 291.375 511.469 291.507 511.479H317.411C318.271 511.473 319.127 511.349 319.953 511.111C321.247 510.661 322.44 509.959 323.462 509.045C324.353 508.22 325.064 507.22 325.551 506.106C326.037 504.993 326.289 503.791 326.289 502.576V489.675C326.267 489.569 326.254 489.461 326.251 489.352C326.249 489.213 326.262 489.075 326.289 488.939Z" fill="white" fill-opacity="0.6"/>
<path d="M276.838 142.673H356.313C360.259 142.663 364.04 141.085 366.826 138.285C369.612 135.485 371.176 131.691 371.174 127.737V107.098C371.171 105.062 370.751 103.049 369.94 101.182C369.129 99.3162 367.943 97.6368 366.458 96.2485L366.36 96.1584C364.815 94.7747 363.018 93.7032 361.067 93.0028L360.819 92.8976C359.365 92.4331 357.847 92.1974 356.321 92.1988H329.089C322.329 92.2008 315.741 90.0602 310.268 86.0832C304.795 82.1063 300.717 76.4968 298.618 70.0571C298.454 69.5322 298.149 69.0628 297.736 68.6998C297.324 68.3367 296.82 68.0942 296.279 67.9984C296.199 67.991 296.119 67.991 296.039 67.9984H295.747C295.297 68 294.853 68.0995 294.445 68.2902C294.037 68.4809 293.675 68.7582 293.385 69.1029L265.239 104.34C263.102 107.002 261.938 110.316 261.94 113.732V127.737C261.939 129.698 262.323 131.64 263.072 133.452C263.82 135.264 264.917 136.911 266.301 138.298C267.684 139.685 269.327 140.786 271.135 141.536C272.943 142.287 274.881 142.673 276.838 142.673ZM365.228 120.734V127.737C365.23 130.1 364.297 132.368 362.633 134.043C360.968 135.717 358.709 136.662 356.351 136.67H276.838C274.477 136.664 272.215 135.72 270.548 134.046C268.881 132.371 267.945 130.102 267.945 127.737V113.717C267.972 111.672 268.679 109.694 269.955 108.097L294.93 76.8191C298.052 83.2382 302.915 88.6471 308.961 92.4271C315.007 96.2072 321.993 98.2058 329.119 98.1945C329.427 98.1945 329.704 98.1945 330.049 98.1945C330.181 98.2039 330.314 98.2039 330.446 98.1945H356.351C357.211 98.2003 358.066 98.3242 358.893 98.5626C360.187 99.0123 361.38 99.7146 362.401 100.629C363.293 101.453 364.004 102.454 364.49 103.567C364.977 104.68 365.228 105.882 365.228 107.098V119.998C365.206 120.105 365.194 120.213 365.191 120.321C365.189 120.46 365.201 120.598 365.228 120.734Z" fill="white" fill-opacity="0.6"/>
<path d="M339.401 81.3597C346.009 81.3711 352.354 78.771 357.053 74.126C361.752 69.4809 364.424 63.1676 364.486 56.5618V56.0889C364.458 51.0497 362.909 46.1362 360.041 41.9922C357.172 37.8481 353.119 34.6666 348.411 32.8643C343.703 31.062 338.561 30.723 333.657 31.8916C328.753 33.0601 324.317 35.6819 320.929 39.4134C320.811 39.5148 320.752 39.5992 320.769 39.5992L320.625 39.7765L320.549 39.8694L320.456 39.9707L319.029 41.786C318.912 41.887 318.81 42.0034 318.725 42.1322C316.142 45.8961 314.636 50.2937 314.37 54.8504C314.105 59.4071 315.089 63.9498 317.217 67.9882C319.345 72.0266 322.536 75.4072 326.446 77.7652C330.355 80.1232 334.835 81.369 339.401 81.3682V81.3597ZM325.887 43.9644C328.366 41.2479 331.605 39.3399 335.184 38.4884C338.762 37.637 342.514 37.8815 345.951 39.1903C349.388 40.499 352.352 42.8113 354.458 45.8266C356.563 48.8419 357.711 52.4206 357.755 56.0974V56.4942C357.632 61.2921 355.634 65.8509 352.188 69.193C348.742 72.5352 344.124 74.3945 339.322 74.3725C334.521 74.3504 329.92 72.4485 326.505 69.0748C323.091 65.7011 321.134 61.1241 321.056 56.3254C321.055 52.6613 322.162 49.0825 324.231 46.0583L325.752 44.1501L325.87 43.9728L325.887 43.9644Z" fill="white" fill-opacity="0.6"/>
<path d="M478.885 0H399.409C395.463 0.0099497 391.682 1.58824 388.896 4.38851C386.11 7.18878 384.547 10.9823 384.549 14.9365V35.5756C384.552 37.6112 384.972 39.6246 385.783 41.4909C386.594 43.3572 387.779 45.0365 389.265 46.4248L389.362 46.515C390.908 47.8986 392.705 48.9701 394.656 49.6706L394.903 49.7758C396.358 50.2402 397.875 50.4759 399.402 50.4745H426.633C433.394 50.4726 439.982 52.6132 445.455 56.5901C450.928 60.567 455.005 66.1766 457.104 72.6163C457.269 73.1411 457.574 73.6106 457.986 73.9736C458.399 74.3366 458.903 74.5792 459.443 74.6749C459.523 74.6823 459.604 74.6823 459.683 74.6749H459.976C460.426 74.6734 460.87 74.5738 461.278 74.3831C461.686 74.1924 462.047 73.9151 462.338 73.5704L490.484 38.333C492.621 35.6714 493.785 32.3574 493.783 28.9413V14.9365C493.784 12.9753 493.399 11.0332 492.651 9.22111C491.903 7.40898 490.806 5.76233 489.422 4.37525C488.039 2.98817 486.396 1.88783 484.588 1.13711C482.78 0.386389 480.842 -2.4836e-07 478.885 0ZM390.495 21.9389V14.9365C390.493 12.5731 391.426 10.3054 393.09 8.63071C394.754 6.95603 397.013 6.01109 399.372 6.00314H478.885C481.245 6.00911 483.507 6.95293 485.174 8.62761C486.841 10.3023 487.777 12.5711 487.777 14.9365V28.9563C487.75 31.0016 487.043 32.9793 485.768 34.5763L460.793 65.8543C457.67 59.4352 452.808 54.0263 446.762 50.2462C440.716 46.4661 433.73 44.4675 426.603 44.4789C426.296 44.4789 426.019 44.4789 425.674 44.4789C425.541 44.4694 425.409 44.4694 425.276 44.4789H399.372C398.512 44.473 397.657 44.3492 396.83 44.1107C395.536 43.661 394.343 42.9588 393.321 42.0446C392.43 41.2201 391.719 40.2198 391.232 39.1064C390.746 37.9931 390.495 36.791 390.495 35.5756V22.6752C390.516 22.5688 390.529 22.4607 390.532 22.3521C390.534 22.2135 390.521 22.075 390.495 21.9389Z" fill="white" fill-opacity="0.6"/>
<path d="M416.322 61.3131C409.713 61.3017 403.368 63.9018 398.669 68.5469C393.971 73.1919 391.299 79.5053 391.236 86.1111V86.5839C391.264 91.6232 392.814 96.5366 395.682 100.681C398.551 104.825 402.604 108.006 407.312 109.809C412.019 111.611 417.162 111.95 422.066 110.781C426.969 109.613 431.406 106.991 434.794 103.259C434.912 103.158 434.971 103.074 434.954 103.074L435.098 102.896L435.174 102.803L435.267 102.702L436.694 100.887C436.811 100.786 436.913 100.669 436.998 100.541C439.581 96.7768 441.087 92.3792 441.352 87.8224C441.618 83.2657 440.634 78.723 438.506 74.6847C436.377 70.6463 433.186 67.2657 429.277 64.9076C425.367 62.5496 420.888 61.3038 416.322 61.3047V61.3131ZM429.836 98.7085C427.357 101.425 424.117 103.333 420.539 104.184C416.961 105.036 413.209 104.791 409.772 103.483C406.334 102.174 403.37 99.8615 401.265 96.8462C399.16 93.8309 398.011 90.2522 397.968 86.5755V86.1786C398.091 81.3808 400.089 76.822 403.535 73.4798C406.981 70.1377 411.599 68.2783 416.4 68.3004C421.201 68.3225 425.802 70.2243 429.217 73.598C432.632 76.9717 434.588 81.5487 434.667 86.3475C434.668 90.0116 433.561 93.5904 431.491 96.6145L429.971 98.5227L429.853 98.7L429.836 98.7085Z" fill="#4EBA66" fill-opacity="0.3"/>
<path d="M468.554 142.673H548.03C551.976 142.663 555.757 141.085 558.543 138.285C561.329 135.485 562.893 131.691 562.891 127.737V107.098C562.888 105.062 562.468 103.049 561.657 101.182C560.845 99.3162 559.66 97.6368 558.175 96.2485L558.077 96.1584C556.532 94.7747 554.734 93.7032 552.784 93.0028L552.536 92.8976C551.082 92.4331 549.564 92.1974 548.038 92.1988H520.806C514.046 92.2008 507.458 90.0602 501.985 86.0832C496.512 82.1063 492.434 76.4968 490.335 70.0571C490.171 69.5322 489.866 69.0628 489.453 68.6998C489.041 68.3367 488.537 68.0942 487.996 67.9984C487.916 67.991 487.836 67.991 487.756 67.9984H487.464C487.014 68 486.569 68.0995 486.161 68.2902C485.754 68.4809 485.392 68.7582 485.102 69.1029L456.955 104.34C454.818 107.002 453.654 110.316 453.656 113.732V127.737C453.656 129.698 454.04 131.64 454.788 133.452C455.537 135.264 456.634 136.911 458.017 138.298C459.401 139.685 461.044 140.786 462.852 141.536C464.659 142.287 466.597 142.673 468.554 142.673ZM556.945 120.734V127.737C556.947 130.1 556.013 132.368 554.349 134.043C552.685 135.717 550.426 136.662 548.068 136.67H468.554C466.194 136.664 463.932 135.72 462.265 134.046C460.598 132.371 459.662 130.102 459.662 127.737V113.717C459.689 111.672 460.396 109.694 461.672 108.097L486.646 76.8191C489.769 83.2382 494.632 88.6471 500.678 92.4271C506.724 96.2072 513.71 98.2058 520.836 98.1945C521.143 98.1945 521.421 98.1945 521.766 98.1945C521.898 98.2039 522.031 98.2039 522.163 98.1945H548.068C548.928 98.2003 549.783 98.3242 550.609 98.5626C551.904 99.0123 553.096 99.7146 554.118 100.629C555.009 101.453 555.721 102.454 556.207 103.567C556.694 104.68 556.945 105.882 556.945 107.098V119.998C556.923 120.105 556.91 120.213 556.907 120.321C556.905 120.46 556.918 120.598 556.945 120.734Z" fill="white" fill-opacity="0.6"/>
<path d="M531.118 81.3597C537.726 81.3711 544.071 78.771 548.77 74.126C553.469 69.4809 556.141 63.1676 556.203 56.5618V56.0889C556.175 51.0497 554.626 46.1362 551.757 41.9922C548.889 37.8481 544.835 34.6666 540.128 32.8643C535.42 31.062 530.278 30.723 525.374 31.8916C520.47 33.0601 516.034 35.6819 512.646 39.4134C512.528 39.5148 512.468 39.5992 512.485 39.5992L512.342 39.7765L512.266 39.8694L512.173 39.9707L510.745 41.786C510.629 41.887 510.526 42.0034 510.441 42.1322C507.858 45.8961 506.353 50.2937 506.087 54.8504C505.821 59.4071 506.806 63.9498 508.934 67.9882C511.062 72.0266 514.253 75.4072 518.163 77.7652C522.072 80.1232 526.552 81.369 531.118 81.3682V81.3597ZM517.604 43.9644C520.083 41.2479 523.322 39.3399 526.9 38.4884C530.479 37.637 534.23 37.8815 537.668 39.1903C541.105 40.499 544.069 42.8113 546.174 45.8266C548.279 48.8419 549.428 52.4206 549.471 56.0974V56.4942C549.349 61.2921 547.35 65.8509 543.905 69.193C540.459 72.5352 535.84 74.3945 531.039 74.3725C526.238 74.3504 521.637 72.4485 518.222 69.0748C514.807 65.7011 512.851 61.1241 512.773 56.3254C512.772 52.6613 513.879 49.0825 515.948 46.0583L517.469 44.1501L517.587 43.9728L517.604 43.9644Z" fill="white" fill-opacity="0.6"/>
<path d="M95.4514 156.049H15.9757C12.0297 156.059 8.24887 157.637 5.46285 160.437C2.67683 163.238 1.11324 167.031 1.11524 170.985V191.624C1.11792 193.66 1.53792 195.673 2.34917 197.54C3.16042 199.406 4.34563 201.085 5.8313 202.474L5.92878 202.564C7.47399 203.947 9.27138 205.019 11.2222 205.719L11.4696 205.825C12.9241 206.289 14.4416 206.525 15.9682 206.523H43.1999C49.9603 206.521 56.5482 208.662 62.0211 212.639C67.494 216.616 71.5716 222.225 73.6706 228.665C73.8351 229.19 74.1403 229.659 74.5528 230.022C74.9653 230.385 75.4693 230.628 76.0099 230.724C76.0897 230.731 76.17 230.731 76.2498 230.724H76.5422C76.9922 230.722 77.4366 230.623 77.8444 230.432C78.2522 230.241 78.6137 229.964 78.904 229.619L107.05 194.382C109.187 191.72 110.352 188.406 110.349 184.99V170.985C110.35 169.024 109.966 167.082 109.217 165.27C108.469 163.458 107.372 161.811 105.989 160.424C104.605 159.037 102.962 157.937 101.154 157.186C99.3464 156.435 97.4085 156.049 95.4514 156.049ZM7.06091 177.988V170.985C7.05892 168.622 7.99239 166.354 9.65656 164.68C11.3207 163.005 13.5798 162.06 15.9382 162.052H95.4514C97.8119 162.058 100.074 163.002 101.741 164.676C103.408 166.351 104.344 168.62 104.344 170.985V185.005C104.317 187.05 103.61 189.028 102.334 190.625L77.3595 221.903C74.2367 215.484 69.3743 210.075 63.3281 206.295C57.282 202.515 50.2963 200.516 43.1699 200.528C42.8625 200.528 42.5851 200.528 42.2402 200.528C42.1079 200.518 41.9751 200.518 41.8428 200.528H15.9382C15.0782 200.522 14.223 200.398 13.3965 200.16C12.1021 199.71 10.9095 199.008 9.88757 198.093C8.99642 197.269 8.28521 196.269 7.79874 195.155C7.31227 194.042 7.06106 192.84 7.06091 191.624V178.724C7.08282 178.618 7.09538 178.51 7.09842 178.401C7.10037 178.262 7.08779 178.124 7.06091 177.988Z" fill="white" fill-opacity="0.6"/>
<path d="M32.8881 217.362C26.2797 217.351 19.9347 219.951 15.2358 224.596C10.5369 229.241 7.86513 235.554 7.80273 242.16V242.633C7.83058 247.672 9.38015 252.585 12.2485 256.729C15.1169 260.874 19.1704 264.055 23.8781 265.857C28.5858 267.66 33.7282 267.999 38.6319 266.83C43.5356 265.662 47.972 263.04 51.36 259.308C51.4783 259.207 51.5374 259.122 51.5205 259.122L51.6641 258.945L51.7401 258.852L51.833 258.751L53.2604 256.936C53.3771 256.835 53.4795 256.718 53.5645 256.59C56.1475 252.826 57.6531 248.428 57.9188 243.871C58.1845 239.315 57.2001 234.772 55.072 230.733C52.9439 226.695 49.7528 223.314 45.8432 220.956C41.9337 218.598 37.4541 217.353 32.8881 217.354V217.362ZM46.4021 254.757C43.9231 257.474 40.6839 259.382 37.1055 260.233C33.5272 261.085 29.7754 260.84 26.338 259.531C22.9006 258.223 19.9366 255.91 17.8315 252.895C15.7264 249.88 14.5776 246.301 14.5344 242.624V242.227C14.6571 237.43 16.6555 232.871 20.1012 229.529C23.547 226.187 28.1655 224.327 32.9666 224.349C37.7676 224.371 42.3689 226.273 45.7837 229.647C49.1985 233.021 51.1549 237.598 51.2333 242.396C51.234 246.06 50.1271 249.639 48.0576 252.663L46.5372 254.572L46.419 254.749L46.4021 254.757Z" fill="white" fill-opacity="0.6"/>
<path d="M85.1208 298.722H164.597C168.543 298.712 172.323 297.133 175.109 294.333C177.895 291.533 179.459 287.739 179.457 283.785V263.146C179.454 261.11 179.034 259.097 178.223 257.231C177.412 255.365 176.227 253.685 174.741 252.297L174.643 252.207C173.098 250.823 171.301 249.752 169.35 249.051L169.103 248.946C167.648 248.481 166.131 248.246 164.604 248.247H137.372C130.612 248.249 124.024 246.109 118.551 242.132C113.078 238.155 109.001 232.545 106.902 226.105C106.737 225.581 106.432 225.111 106.019 224.748C105.607 224.385 105.103 224.143 104.562 224.047C104.483 224.039 104.402 224.039 104.322 224.047H104.03C103.58 224.048 103.136 224.148 102.728 224.339C102.32 224.529 101.959 224.807 101.668 225.151L73.5219 260.389C71.3848 263.05 70.2207 266.364 70.2229 269.78V283.785C70.2219 285.746 70.6065 287.688 71.3548 289.501C72.103 291.313 73.2002 292.959 74.5837 294.346C75.9673 295.734 77.6099 296.834 79.4179 297.585C81.2259 298.335 83.1638 298.722 85.1208 298.722ZM173.511 276.783V283.785C173.513 286.149 172.58 288.416 170.916 290.091C169.252 291.766 166.992 292.711 164.634 292.719H85.1208C82.7604 292.713 80.4986 291.769 78.8317 290.094C77.1647 288.419 76.2286 286.151 76.2286 283.785V269.765C76.2555 267.72 76.9626 265.742 78.2379 264.145L103.213 232.867C106.336 239.287 111.198 244.695 117.244 248.475C123.29 252.256 130.276 254.254 137.402 254.243C137.71 254.243 137.987 254.243 138.332 254.243C138.464 254.252 138.597 254.252 138.729 254.243H164.634C165.494 254.249 166.349 254.373 167.176 254.611C168.47 255.061 169.663 255.763 170.685 256.677C171.576 257.502 172.287 258.502 172.774 259.615C173.26 260.729 173.511 261.931 173.511 263.146V276.046C173.489 276.153 173.477 276.261 173.474 276.37C173.472 276.508 173.484 276.647 173.511 276.783Z" fill="white" fill-opacity="0.6"/>
<path d="M147.684 237.409C154.293 237.42 160.638 234.82 165.336 230.175C170.035 225.53 172.707 219.216 172.77 212.611V212.138C172.742 207.098 171.192 202.185 168.324 198.041C165.455 193.897 161.402 190.715 156.694 188.913C151.986 187.111 146.844 186.772 141.94 187.94C137.037 189.109 132.6 191.731 129.212 195.462C129.094 195.564 129.035 195.648 129.052 195.648L128.908 195.825L128.832 195.918L128.739 196.02L127.312 197.835C127.195 197.936 127.093 198.052 127.008 198.181C124.425 201.945 122.919 206.343 122.653 210.899C122.388 215.456 123.372 219.999 125.5 224.037C127.628 228.075 130.819 231.456 134.729 233.814C138.639 236.172 143.118 237.418 147.684 237.417V237.409ZM134.17 200.013C136.649 197.297 139.888 195.389 143.467 194.537C147.045 193.686 150.797 193.93 154.234 195.239C157.672 196.548 160.636 198.86 162.741 201.875C164.846 204.891 165.995 208.469 166.038 212.146V212.543C165.915 217.341 163.917 221.9 160.471 225.242C157.025 228.584 152.407 230.443 147.606 230.421C142.805 230.399 138.203 228.497 134.789 225.124C131.374 221.75 129.417 217.173 129.339 212.374C129.338 208.71 130.445 205.131 132.515 202.107L134.035 200.199L134.153 200.022L134.17 200.013Z" fill="white" fill-opacity="0.6"/>
<path d="M287.168 156.049H207.692C203.747 156.059 199.966 157.637 197.18 160.437C194.394 163.238 192.83 167.031 192.832 170.985V191.624C192.835 193.66 193.255 195.673 194.066 197.54C194.877 199.406 196.062 201.085 197.548 202.474L197.646 202.564C199.191 203.947 200.988 205.019 202.939 205.719L203.186 205.825C204.641 206.289 206.158 206.525 207.685 206.523H234.917C241.677 206.521 248.265 208.662 253.738 212.639C259.211 216.616 263.288 222.225 265.387 228.665C265.552 229.19 265.857 229.659 266.27 230.022C266.682 230.385 267.186 230.628 267.727 230.724C267.806 230.731 267.887 230.731 267.967 230.724H268.259C268.709 230.722 269.153 230.623 269.561 230.432C269.969 230.241 270.331 229.964 270.621 229.619L298.767 194.382C300.904 191.72 302.068 188.406 302.066 184.99V170.985C302.067 169.024 301.683 167.082 300.934 165.27C300.186 163.458 299.089 161.811 297.705 160.424C296.322 159.037 294.679 157.937 292.871 157.186C291.063 156.435 289.125 156.049 287.168 156.049ZM198.778 177.988V170.985C198.776 168.622 199.709 166.354 201.373 164.68C203.038 163.005 205.297 162.06 207.655 162.052H287.168C289.529 162.058 291.79 163.002 293.457 164.676C295.124 166.351 296.061 168.62 296.06 170.985V185.005C296.034 187.05 295.326 189.028 294.051 190.625L269.076 221.903C265.954 215.484 261.091 210.075 255.045 206.295C248.999 202.515 242.013 200.516 234.887 200.528C234.579 200.528 234.302 200.528 233.957 200.528C233.825 200.518 233.692 200.518 233.56 200.528H207.655C206.795 200.522 205.94 200.398 205.113 200.16C203.819 199.71 202.626 199.008 201.604 198.093C200.713 197.269 200.002 196.269 199.516 195.155C199.029 194.042 198.778 192.84 198.778 191.624V178.724C198.8 178.618 198.812 178.51 198.815 178.401C198.817 178.262 198.805 178.124 198.778 177.988Z" fill="#4EBA66" fill-opacity="0.3"/>
<path d="M224.605 217.362C217.996 217.351 211.651 219.951 206.953 224.596C202.254 229.241 199.582 235.554 199.52 242.16V242.633C199.547 247.672 201.097 252.585 203.965 256.729C206.834 260.874 210.887 264.055 215.595 265.857C220.303 267.66 225.445 267.999 230.349 266.83C235.252 265.662 239.689 263.04 243.077 259.308C243.195 259.207 243.254 259.122 243.237 259.122L243.381 258.945L243.457 258.852L243.55 258.751L244.977 256.936C245.094 256.835 245.196 256.718 245.281 256.59C247.864 252.826 249.37 248.428 249.636 243.871C249.901 239.315 248.917 234.772 246.789 230.733C244.661 226.695 241.47 223.314 237.56 220.956C233.65 218.598 229.171 217.353 224.605 217.354V217.362ZM238.119 254.757C235.64 257.474 232.401 259.382 228.822 260.233C225.244 261.085 221.492 260.84 218.055 259.531C214.617 258.223 211.653 255.91 209.548 252.895C207.443 249.88 206.294 246.301 206.251 242.624V242.227C206.374 237.43 208.372 232.871 211.818 229.529C215.264 226.187 219.882 224.327 224.683 224.349C229.484 224.371 234.086 226.273 237.5 229.647C240.915 233.021 242.872 237.598 242.95 242.396C242.951 246.06 241.844 249.639 239.774 252.663L238.254 254.572L238.136 254.749L238.119 254.757Z" fill="white" fill-opacity="0.6"/>
<path d="M276.838 298.722H356.313C360.259 298.712 364.04 297.133 366.826 294.333C369.612 291.533 371.176 287.739 371.174 283.785V263.146C371.171 261.11 370.751 259.097 369.94 257.231C369.129 255.365 367.943 253.685 366.458 252.297L366.36 252.207C364.815 250.823 363.018 249.752 361.067 249.051L360.819 248.946C359.365 248.481 357.847 248.246 356.321 248.247H329.089C322.329 248.249 315.741 246.109 310.268 242.132C304.795 238.155 300.717 232.545 298.618 226.105C298.454 225.581 298.149 225.111 297.736 224.748C297.324 224.385 296.82 224.143 296.279 224.047C296.199 224.039 296.119 224.039 296.039 224.047H295.747C295.297 224.048 294.853 224.148 294.445 224.339C294.037 224.529 293.675 224.807 293.385 225.151L265.239 260.389C263.102 263.05 261.938 266.364 261.94 269.78V283.785C261.939 285.746 262.323 287.688 263.072 289.501C263.82 291.313 264.917 292.959 266.301 294.346C267.684 295.734 269.327 296.834 271.135 297.585C272.943 298.335 274.881 298.722 276.838 298.722ZM365.228 276.783V283.785C365.23 286.149 364.297 288.416 362.633 290.091C360.968 291.766 358.709 292.711 356.351 292.719H276.838C274.477 292.713 272.215 291.769 270.548 290.094C268.881 288.419 267.945 286.151 267.945 283.785V269.765C267.972 267.72 268.679 265.742 269.955 264.145L294.93 232.867C298.052 239.287 302.915 244.695 308.961 248.475C315.007 252.256 321.993 254.254 329.119 254.243C329.427 254.243 329.704 254.243 330.049 254.243C330.181 254.252 330.314 254.252 330.446 254.243H356.351C357.211 254.249 358.066 254.373 358.893 254.611C360.187 255.061 361.38 255.763 362.401 256.677C363.293 257.502 364.004 258.502 364.49 259.615C364.977 260.729 365.228 261.931 365.228 263.146V276.046C365.206 276.153 365.194 276.261 365.191 276.37C365.189 276.508 365.201 276.647 365.228 276.783Z" fill="white" fill-opacity="0.6"/>
<path d="M339.401 237.409C346.009 237.42 352.354 234.82 357.053 230.175C361.752 225.53 364.424 219.216 364.486 212.611V212.138C364.458 207.098 362.909 202.185 360.041 198.041C357.172 193.897 353.119 190.715 348.411 188.913C343.703 187.111 338.561 186.772 333.657 187.94C328.753 189.109 324.317 191.731 320.929 195.462C320.811 195.564 320.752 195.648 320.769 195.648L320.625 195.825L320.549 195.918L320.456 196.02L319.029 197.835C318.912 197.936 318.81 198.052 318.725 198.181C316.142 201.945 314.636 206.343 314.37 210.899C314.105 215.456 315.089 219.999 317.217 224.037C319.345 228.075 322.536 231.456 326.446 233.814C330.355 236.172 334.835 237.418 339.401 237.417V237.409ZM325.887 200.013C328.366 197.297 331.605 195.389 335.184 194.537C338.762 193.686 342.514 193.93 345.951 195.239C349.388 196.548 352.352 198.86 354.458 201.875C356.563 204.891 357.711 208.469 357.755 212.146V212.543C357.632 217.341 355.634 221.9 352.188 225.242C348.742 228.584 344.124 230.443 339.322 230.421C334.521 230.399 329.92 228.497 326.505 225.124C323.091 221.75 321.134 217.173 321.056 212.374C321.055 208.71 322.162 205.131 324.231 202.107L325.752 200.199L325.87 200.022L325.887 200.013Z" fill="white" fill-opacity="0.6"/>
<path d="M478.885 156.049H399.409C395.463 156.059 391.682 157.637 388.896 160.437C386.11 163.238 384.547 167.031 384.549 170.985V191.624C384.552 193.66 384.972 195.673 385.783 197.54C386.594 199.406 387.779 201.085 389.265 202.474L389.362 202.564C390.908 203.947 392.705 205.019 394.656 205.719L394.903 205.825C396.358 206.289 397.875 206.525 399.402 206.523H426.633C433.394 206.521 439.982 208.662 445.455 212.639C450.928 216.616 455.005 222.225 457.104 228.665C457.269 229.19 457.574 229.659 457.986 230.022C458.399 230.385 458.903 230.628 459.443 230.724C459.523 230.731 459.604 230.731 459.683 230.724H459.976C460.426 230.722 460.87 230.623 461.278 230.432C461.686 230.241 462.047 229.964 462.338 229.619L490.484 194.382C492.621 191.72 493.785 188.406 493.783 184.99V170.985C493.784 169.024 493.399 167.082 492.651 165.27C491.903 163.458 490.806 161.811 489.422 160.424C488.039 159.037 486.396 157.937 484.588 157.186C482.78 156.435 480.842 156.049 478.885 156.049ZM390.495 177.988V170.985C390.493 168.622 391.426 166.354 393.09 164.68C394.754 163.005 397.013 162.06 399.372 162.052H478.885C481.245 162.058 483.507 163.002 485.174 164.676C486.841 166.351 487.777 168.62 487.777 170.985V185.005C487.75 187.05 487.043 189.028 485.768 190.625L460.793 221.903C457.67 215.484 452.808 210.075 446.762 206.295C440.716 202.515 433.73 200.516 426.603 200.528C426.296 200.528 426.019 200.528 425.674 200.528C425.541 200.518 425.409 200.518 425.276 200.528H399.372C398.512 200.522 397.657 200.398 396.83 200.16C395.536 199.71 394.343 199.008 393.321 198.093C392.43 197.269 391.719 196.269 391.232 195.155C390.746 194.042 390.495 192.84 390.495 191.624V178.724C390.516 178.618 390.529 178.51 390.532 178.401C390.534 178.262 390.521 178.124 390.495 177.988Z" fill="white" fill-opacity="0.6"/>
<path d="M416.322 217.362C409.713 217.351 403.368 219.951 398.669 224.596C393.971 229.241 391.299 235.554 391.236 242.16V242.633C391.264 247.672 392.814 252.585 395.682 256.729C398.551 260.874 402.604 264.055 407.312 265.857C412.019 267.66 417.162 267.999 422.066 266.83C426.969 265.662 431.406 263.04 434.794 259.308C434.912 259.207 434.971 259.122 434.954 259.122L435.098 258.945L435.174 258.852L435.267 258.751L436.694 256.936C436.811 256.835 436.913 256.718 436.998 256.59C439.581 252.826 441.087 248.428 441.352 243.871C441.618 239.315 440.634 234.772 438.506 230.733C436.377 226.695 433.186 223.314 429.277 220.956C425.367 218.598 420.888 217.353 416.322 217.354V217.362ZM429.836 254.757C427.357 257.474 424.117 259.382 420.539 260.233C416.961 261.085 413.209 260.84 409.772 259.531C406.334 258.223 403.37 255.91 401.265 252.895C399.16 249.88 398.011 246.301 397.968 242.624V242.227C398.091 237.43 400.089 232.871 403.535 229.529C406.981 226.187 411.599 224.327 416.4 224.349C421.201 224.371 425.802 226.273 429.217 229.647C432.632 233.021 434.588 237.598 434.667 242.396C434.668 246.06 433.561 249.639 431.491 252.663L429.971 254.572L429.853 254.749L429.836 254.757Z" fill="white" fill-opacity="0.6"/>
<path d="M468.554 298.722H548.03C551.976 298.712 555.757 297.133 558.543 294.333C561.329 291.533 562.893 287.739 562.891 283.785V263.146C562.888 261.11 562.468 259.097 561.657 257.231C560.845 255.365 559.66 253.685 558.175 252.297L558.077 252.207C556.532 250.823 554.734 249.752 552.784 249.051L552.536 248.946C551.082 248.481 549.564 248.246 548.038 248.247H520.806C514.046 248.249 507.458 246.109 501.985 242.132C496.512 238.155 492.434 232.545 490.335 226.105C490.171 225.581 489.866 225.111 489.453 224.748C489.041 224.385 488.537 224.143 487.996 224.047C487.916 224.039 487.836 224.039 487.756 224.047H487.464C487.014 224.048 486.569 224.148 486.161 224.339C485.754 224.529 485.392 224.807 485.102 225.151L456.955 260.389C454.818 263.05 453.654 266.364 453.656 269.78V283.785C453.656 285.746 454.04 287.688 454.788 289.501C455.537 291.313 456.634 292.959 458.017 294.346C459.401 295.734 461.044 296.834 462.852 297.585C464.659 298.335 466.597 298.722 468.554 298.722ZM556.945 276.783V283.785C556.947 286.149 556.013 288.416 554.349 290.091C552.685 291.766 550.426 292.711 548.068 292.719H468.554C466.194 292.713 463.932 291.769 462.265 290.094C460.598 288.419 459.662 286.151 459.662 283.785V269.765C459.689 267.72 460.396 265.742 461.672 264.145L486.646 232.867C489.769 239.287 494.632 244.695 500.678 248.475C506.724 252.256 513.71 254.254 520.836 254.243C521.143 254.243 521.421 254.243 521.766 254.243C521.898 254.252 522.031 254.252 522.163 254.243H548.068C548.928 254.249 549.783 254.373 550.609 254.611C551.904 255.061 553.096 255.763 554.118 256.677C555.009 257.502 555.721 258.502 556.207 259.615C556.694 260.729 556.945 261.931 556.945 263.146V276.046C556.923 276.153 556.91 276.261 556.907 276.37C556.905 276.508 556.918 276.647 556.945 276.783Z" fill="white" fill-opacity="0.6"/>
<path d="M531.118 237.409C537.726 237.42 544.071 234.82 548.77 230.175C553.469 225.53 556.141 219.216 556.203 212.611V212.138C556.175 207.098 554.626 202.185 551.757 198.041C548.889 193.897 544.835 190.715 540.128 188.913C535.42 187.111 530.278 186.772 525.374 187.94C520.47 189.109 516.034 191.731 512.646 195.462C512.528 195.564 512.468 195.648 512.485 195.648L512.342 195.825L512.266 195.918L512.173 196.02L510.745 197.835C510.629 197.936 510.526 198.052 510.441 198.181C507.858 201.945 506.353 206.343 506.087 210.899C505.821 215.456 506.806 219.999 508.934 224.037C511.062 228.075 514.253 231.456 518.163 233.814C522.072 236.172 526.552 237.418 531.118 237.417V237.409ZM517.604 200.013C520.083 197.297 523.322 195.389 526.9 194.537C530.479 193.686 534.23 193.93 537.668 195.239C541.105 196.548 544.069 198.86 546.174 201.875C548.279 204.891 549.428 208.469 549.471 212.146V212.543C549.349 217.341 547.35 221.9 543.905 225.242C540.459 228.584 535.84 230.443 531.039 230.421C526.238 230.399 521.637 228.497 518.222 225.124C514.807 221.75 512.851 217.173 512.773 212.374C512.772 208.71 513.879 205.131 515.948 202.107L517.469 200.199L517.587 200.022L517.604 200.013Z" fill="white" fill-opacity="0.6"/>
<path d="M94.3362 314.327H14.8605C10.9145 314.337 7.13363 315.915 4.34761 318.715C1.56159 321.515 -0.00199648 325.309 1.91323e-06 329.263V349.902C0.00268493 351.938 0.422689 353.951 1.23394 355.818C2.04519 357.684 3.23039 359.363 4.71607 360.751L4.81354 360.842C6.35876 362.225 8.15614 363.297 10.1069 363.997L10.3543 364.102C11.8088 364.567 13.3264 364.803 14.853 364.801H42.0847C48.8451 364.799 55.4329 366.94 60.9059 370.917C66.3788 374.894 70.4564 380.503 72.5554 386.943C72.7199 387.468 73.025 387.937 73.4375 388.3C73.85 388.663 74.354 388.906 74.8946 389.002C74.9744 389.009 75.0547 389.009 75.1345 389.002H75.427C75.877 389 76.3213 388.9 76.7291 388.71C77.1369 388.519 77.4985 388.242 77.7887 387.897L105.935 352.66C108.072 349.998 109.236 346.684 109.234 343.268V329.263C109.235 327.302 108.851 325.36 108.102 323.548C107.354 321.736 106.257 320.089 104.873 318.702C103.49 317.315 101.847 316.214 100.039 315.464C98.2311 314.713 96.2933 314.327 94.3362 314.327ZM5.94568 336.266V329.263C5.94368 326.9 6.87715 324.632 8.54132 322.957C10.2055 321.283 12.4645 320.338 14.823 320.33H94.3362C96.6966 320.336 98.9584 321.28 100.625 322.954C102.292 324.629 103.228 326.898 103.228 329.263V343.283C103.202 345.328 102.494 347.306 101.219 348.903L76.2442 380.181C73.1215 373.762 68.259 368.353 62.2129 364.573C56.1668 360.793 49.181 358.794 42.0547 358.806C41.7472 358.806 41.4698 358.806 41.1249 358.806C40.9927 358.796 40.8599 358.796 40.7276 358.806H14.823C13.9629 358.8 13.1077 358.676 12.2813 358.437C10.9869 357.988 9.79429 357.285 8.77233 356.371C7.88118 355.547 7.16998 354.546 6.68351 353.433C6.19704 352.32 5.94582 351.118 5.94568 349.902V337.002C5.96759 336.895 5.98015 336.787 5.98318 336.679C5.98514 336.54 5.97256 336.402 5.94568 336.266Z" fill="white" fill-opacity="0.6"/>
<path d="M31.7729 375.64C25.1645 375.629 18.8194 378.229 14.1206 382.874C9.42168 387.519 6.7499 393.832 6.6875 400.438V400.911C6.71534 405.95 8.26491 410.864 11.1333 415.008C14.0017 419.152 18.0552 422.333 22.7629 424.135C27.4706 425.938 32.613 426.277 37.5167 425.108C42.4204 423.94 46.8568 421.318 50.2448 417.586C50.363 417.485 50.4222 417.401 50.4053 417.401L50.5489 417.223L50.6249 417.13L50.7178 417.029L52.1452 415.214C52.2619 415.113 52.3642 414.996 52.4493 414.868C55.0323 411.104 56.5379 406.706 56.8036 402.149C57.0692 397.593 56.0849 393.05 53.9568 389.012C51.8286 384.973 48.6376 381.593 44.728 379.235C40.8185 376.877 36.3389 375.631 31.7729 375.632V375.64ZM45.2869 413.035C42.8079 415.752 39.5686 417.66 35.9903 418.511C32.412 419.363 28.6602 419.118 25.2228 417.809C21.7854 416.501 18.8214 414.188 16.7163 411.173C14.6112 408.158 13.4623 404.579 13.4192 400.902V400.506C13.5418 395.708 15.5403 391.149 18.986 387.807C22.4317 384.465 27.0503 382.605 31.8513 382.627C36.6524 382.649 41.2537 384.551 44.6684 387.925C48.0832 391.299 50.0396 395.876 50.1181 400.674C50.1188 404.338 49.0118 407.917 46.9423 410.941L45.422 412.85L45.3038 413.027L45.2869 413.035Z" fill="white" fill-opacity="0.6"/>
<path d="M84.0056 457H163.481C167.427 456.99 171.208 455.412 173.994 452.611C176.78 449.811 178.344 446.018 178.342 442.064V421.424C178.339 419.389 177.919 417.375 177.108 415.509C176.297 413.643 175.111 411.963 173.626 410.575L173.528 410.485C171.983 409.101 170.186 408.03 168.235 407.329L167.987 407.224C166.533 406.76 165.015 406.524 163.489 406.525H136.257C129.497 406.527 122.909 404.387 117.436 400.41C111.963 396.433 107.885 390.823 105.786 384.384C105.622 383.859 105.317 383.389 104.904 383.026C104.492 382.663 103.988 382.421 103.447 382.325C103.367 382.318 103.287 382.318 103.207 382.325H102.915C102.465 382.327 102.02 382.426 101.613 382.617C101.205 382.808 100.843 383.085 100.553 383.43L72.4066 418.667C70.2696 421.329 69.1055 424.643 69.1077 428.059V442.064C69.1067 444.025 69.4913 445.967 70.2395 447.779C70.9878 449.591 72.085 451.238 73.4685 452.625C74.852 454.012 76.4947 455.112 78.3027 455.863C80.1107 456.614 82.0485 457 84.0056 457ZM172.396 435.061V442.064C172.398 444.427 171.465 446.695 169.8 448.369C168.136 450.044 165.877 450.989 163.519 450.997H84.0056C81.6452 450.991 79.3834 450.047 77.7164 448.372C76.0494 446.698 75.1133 444.429 75.1133 442.064V428.044C75.1403 425.998 75.8474 424.021 77.1227 422.424L102.098 391.146C105.22 397.565 110.083 402.974 116.129 406.754C122.175 410.534 129.161 412.533 136.287 412.521C136.595 412.521 136.872 412.521 137.217 412.521C137.349 412.531 137.482 412.531 137.614 412.521H163.519C164.379 412.527 165.234 412.651 166.061 412.889C167.355 413.339 168.548 414.041 169.569 414.955C170.461 415.78 171.172 416.78 171.658 417.894C172.145 419.007 172.396 420.209 172.396 421.424V434.325C172.374 434.431 172.362 434.539 172.359 434.648C172.357 434.787 172.369 434.925 172.396 435.061Z" fill="white" fill-opacity="0.6"/>
<path d="M146.569 395.686C153.177 395.698 159.522 393.098 164.221 388.453C168.92 383.808 171.592 377.494 171.654 370.888V370.416C171.626 365.376 170.077 360.463 167.208 356.319C164.34 352.175 160.287 348.993 155.579 347.191C150.871 345.389 145.729 345.05 140.825 346.218C135.921 347.387 131.485 350.009 128.097 353.74C127.979 353.841 127.92 353.926 127.937 353.926L127.793 354.103L127.717 354.196L127.624 354.297L126.197 356.113C126.08 356.214 125.978 356.33 125.893 356.459C123.309 360.223 121.804 364.62 121.538 369.177C121.273 373.734 122.257 378.276 124.385 382.315C126.513 386.353 129.704 389.734 133.614 392.092C137.523 394.45 142.003 395.696 146.569 395.695V395.686ZM133.055 358.291C135.534 355.575 138.773 353.667 142.351 352.815C145.93 351.964 149.682 352.208 153.119 353.517C156.556 354.826 159.52 357.138 161.626 360.153C163.731 363.169 164.879 366.747 164.923 370.424V370.821C164.8 375.619 162.801 380.178 159.356 383.52C155.91 386.862 151.292 388.721 146.49 388.699C141.689 388.677 137.088 386.775 133.673 383.401C130.259 380.028 128.302 375.451 128.224 370.652C128.223 366.988 129.33 363.409 131.399 360.385L132.92 358.477L133.038 358.299L133.055 358.291Z" fill="white" fill-opacity="0.6"/>
<path d="M286.053 314.327H206.577C202.631 314.337 198.85 315.915 196.064 318.715C193.278 321.515 191.715 325.309 191.717 329.263V349.902C191.719 351.938 192.139 353.951 192.951 355.818C193.762 357.684 194.947 359.363 196.433 360.751L196.53 360.842C198.076 362.225 199.873 363.297 201.824 363.997L202.071 364.102C203.526 364.567 205.043 364.803 206.57 364.801H233.801C240.562 364.799 247.15 366.94 252.623 370.917C258.096 374.894 262.173 380.503 264.272 386.943C264.437 387.468 264.742 387.937 265.154 388.3C265.567 388.663 266.071 388.906 266.611 389.002C266.691 389.009 266.772 389.009 266.851 389.002H267.144C267.594 389 268.038 388.9 268.446 388.71C268.854 388.519 269.215 388.242 269.506 387.897L297.652 352.66C299.789 349.998 300.953 346.684 300.951 343.268V329.263C300.952 327.302 300.567 325.36 299.819 323.548C299.071 321.736 297.974 320.089 296.59 318.702C295.207 317.315 293.564 316.214 291.756 315.464C289.948 314.713 288.01 314.327 286.053 314.327ZM197.662 336.266V329.263C197.66 326.9 198.594 324.632 200.258 322.957C201.922 321.283 204.181 320.338 206.54 320.33H286.053C288.413 320.336 290.675 321.28 292.342 322.954C294.009 324.629 294.945 326.898 294.945 329.263V343.283C294.918 345.328 294.211 347.306 292.936 348.903L267.961 380.181C264.838 373.762 259.976 368.353 253.93 364.573C247.884 360.793 240.898 358.794 233.771 358.806C233.464 358.806 233.187 358.806 232.842 358.806C232.709 358.796 232.577 358.796 232.444 358.806H206.54C205.68 358.8 204.825 358.676 203.998 358.437C202.704 357.988 201.511 357.285 200.489 356.371C199.598 355.547 198.887 354.546 198.4 353.433C197.914 352.32 197.663 351.118 197.662 349.902V337.002C197.684 336.895 197.697 336.787 197.7 336.679C197.702 336.54 197.689 336.402 197.662 336.266Z" fill="white" fill-opacity="0.6"/>
<path d="M223.49 375.64C216.881 375.629 210.536 378.229 205.837 382.874C201.138 387.519 198.467 393.832 198.404 400.438V400.911C198.432 405.95 199.982 410.864 202.85 415.008C205.718 419.152 209.772 422.333 214.48 424.135C219.187 425.938 224.33 426.277 229.234 425.108C234.137 423.94 238.574 421.318 241.962 417.586C242.08 417.485 242.139 417.401 242.122 417.401L242.266 417.223L242.342 417.13L242.435 417.029L243.862 415.214C243.979 415.113 244.081 414.996 244.166 414.868C246.749 411.104 248.255 406.706 248.52 402.149C248.786 397.593 247.802 393.05 245.674 389.012C243.545 384.973 240.354 381.593 236.445 379.235C232.535 376.877 228.056 375.631 223.49 375.632V375.64ZM237.004 413.035C234.525 415.752 231.285 417.66 227.707 418.511C224.129 419.363 220.377 419.118 216.94 417.809C213.502 416.501 210.538 414.188 208.433 411.173C206.328 408.158 205.179 404.579 205.136 400.902V400.506C205.259 395.708 207.257 391.149 210.703 387.807C214.149 384.465 218.767 382.605 223.568 382.627C228.369 382.649 232.97 384.551 236.385 387.925C239.8 391.299 241.756 395.876 241.835 400.674C241.836 404.338 240.729 407.917 238.659 410.941L237.139 412.85L237.021 413.027L237.004 413.035Z" fill="white" fill-opacity="0.6"/>
<path d="M275.722 457H355.198C359.144 456.99 362.925 455.412 365.711 452.611C368.497 449.811 370.061 446.018 370.059 442.064V421.424C370.056 419.389 369.636 417.375 368.825 415.509C368.013 413.643 366.828 411.963 365.343 410.575L365.245 410.485C363.7 409.101 361.902 408.03 359.952 407.329L359.704 407.224C358.25 406.76 356.732 406.524 355.206 406.525H327.974C321.214 406.527 314.626 404.387 309.153 400.41C303.68 396.433 299.602 390.823 297.503 384.384C297.339 383.859 297.034 383.389 296.621 383.026C296.209 382.663 295.705 382.421 295.164 382.325C295.084 382.318 295.004 382.318 294.924 382.325H294.632C294.182 382.327 293.737 382.426 293.329 382.617C292.922 382.808 292.56 383.085 292.27 383.43L264.123 418.667C261.986 421.329 260.822 424.643 260.824 428.059V442.064C260.823 444.025 261.208 445.967 261.956 447.779C262.705 449.591 263.802 451.238 265.185 452.625C266.569 454.012 268.211 455.112 270.019 455.863C271.827 456.614 273.765 457 275.722 457ZM364.113 435.061V442.064C364.115 444.427 363.181 446.695 361.517 448.369C359.853 450.044 357.594 450.989 355.236 450.997H275.722C273.362 450.991 271.1 450.047 269.433 448.372C267.766 446.698 266.83 444.429 266.83 442.064V428.044C266.857 425.998 267.564 424.021 268.84 422.424L293.814 391.146C296.937 397.565 301.8 402.974 307.846 406.754C313.892 410.534 320.878 412.533 328.004 412.521C328.311 412.521 328.589 412.521 328.934 412.521C329.066 412.531 329.199 412.531 329.331 412.521H355.236C356.096 412.527 356.951 412.651 357.777 412.889C359.072 413.339 360.264 414.041 361.286 414.955C362.177 415.78 362.889 416.78 363.375 417.894C363.862 419.007 364.113 420.209 364.113 421.424V434.325C364.091 434.431 364.078 434.539 364.075 434.648C364.073 434.787 364.086 434.925 364.113 435.061Z" fill="white" fill-opacity="0.6"/>
<path d="M338.286 395.686C344.894 395.698 351.239 393.098 355.938 388.453C360.637 383.808 363.309 377.494 363.371 370.888V370.416C363.343 365.376 361.794 360.463 358.925 356.319C356.057 352.175 352.003 348.993 347.296 347.191C342.588 345.389 337.446 345.05 332.542 346.218C327.638 347.387 323.202 350.009 319.814 353.74C319.696 353.841 319.636 353.926 319.653 353.926L319.51 354.103L319.434 354.196L319.341 354.297L317.913 356.113C317.797 356.214 317.694 356.33 317.609 356.459C315.026 360.223 313.521 364.62 313.255 369.177C312.989 373.734 313.974 378.276 316.102 382.315C318.23 386.353 321.421 389.734 325.331 392.092C329.24 394.45 333.72 395.696 338.286 395.695V395.686ZM324.772 358.291C327.251 355.575 330.49 353.667 334.068 352.815C337.647 351.964 341.398 352.208 344.836 353.517C348.273 354.826 351.237 357.138 353.342 360.153C355.447 363.169 356.596 366.747 356.639 370.424V370.821C356.517 375.619 354.518 380.178 351.073 383.52C347.627 386.862 343.008 388.721 338.207 388.699C333.406 388.677 328.805 386.775 325.39 383.401C321.975 380.028 320.019 375.451 319.94 370.652C319.94 366.988 321.047 363.409 323.116 360.385L324.637 358.477L324.755 358.299L324.772 358.291Z" fill="#00589B" fill-opacity="0.3"/>
<path d="M298.898 613.463H378.374C382.32 613.453 386.101 611.875 388.887 609.075C391.673 606.275 393.236 602.481 393.234 598.527V577.888C393.232 575.852 392.812 573.839 392 571.972C391.189 570.106 390.004 568.427 388.518 567.039L388.421 566.948C386.876 565.565 385.078 564.493 383.127 563.793L382.88 563.688C381.426 563.223 379.908 562.987 378.381 562.989H351.15C344.389 562.991 337.801 560.85 332.329 556.873C326.856 552.896 322.778 547.287 320.679 540.847C320.514 540.322 320.209 539.853 319.797 539.49C319.384 539.127 318.88 538.884 318.34 538.788C318.26 538.781 318.18 538.781 318.1 538.788H317.807C317.357 538.79 316.913 538.89 316.505 539.08C316.097 539.271 315.736 539.548 315.446 539.893L287.299 575.13C285.162 577.792 283.998 581.106 284 584.522V598.527C283.999 600.488 284.384 602.43 285.132 604.242C285.88 606.054 286.978 607.701 288.361 609.088C289.745 610.475 291.387 611.576 293.195 612.326C295.003 613.077 296.941 613.463 298.898 613.463ZM387.289 591.524V598.527C387.291 600.89 386.357 603.158 384.693 604.833C383.029 606.507 380.77 607.452 378.411 607.46H298.898C296.538 607.454 294.276 606.51 292.609 604.836C290.942 603.161 290.006 600.892 290.006 598.527V584.507C290.033 582.462 290.74 580.484 292.015 578.887L316.99 547.609C320.113 554.028 324.975 559.437 331.021 563.217C337.068 566.997 344.053 568.996 351.18 568.985C351.487 568.985 351.765 568.985 352.109 568.985C352.242 568.994 352.375 568.994 352.507 568.985H378.411C379.271 568.99 380.127 569.114 380.953 569.353C382.247 569.802 383.44 570.505 384.462 571.419C385.353 572.243 386.064 573.244 386.551 574.357C387.037 575.47 387.289 576.672 387.289 577.888V590.788C387.267 590.895 387.254 591.003 387.251 591.111C387.249 591.25 387.262 591.388 387.289 591.524Z" fill="white" fill-opacity="0.6"/>
<path d="M361.462 552.15C368.07 552.161 374.415 549.561 379.114 544.916C383.813 540.271 386.484 533.958 386.547 527.352V526.879C386.519 521.84 384.969 516.927 382.101 512.782C379.233 508.638 375.179 505.457 370.471 503.655C365.764 501.852 360.621 501.513 355.718 502.682C350.814 503.85 346.378 506.472 342.99 510.204C342.871 510.305 342.812 510.389 342.829 510.389L342.685 510.567L342.609 510.66L342.517 510.761L341.089 512.576C340.972 512.677 340.87 512.794 340.785 512.922C338.202 516.686 336.696 521.084 336.431 525.641C336.165 530.197 337.149 534.74 339.278 538.778C341.406 542.817 344.597 546.197 348.506 548.555C352.416 550.913 356.895 552.159 361.462 552.158V552.15ZM347.948 514.755C350.426 512.038 353.666 510.13 357.244 509.279C360.822 508.427 364.574 508.672 368.012 509.981C371.449 511.289 374.413 513.602 376.518 516.617C378.623 519.632 379.772 523.211 379.815 526.888V527.284C379.693 532.082 377.694 536.641 374.248 539.983C370.803 543.325 366.184 545.185 361.383 545.163C356.582 545.141 351.981 543.239 348.566 539.865C345.151 536.491 343.195 531.914 343.116 527.116C343.116 523.452 344.223 519.873 346.292 516.849L347.812 514.94L347.931 514.763L347.948 514.755Z" fill="white" fill-opacity="0.6"/>
<path d="M477.77 314.327H398.294C394.348 314.337 390.567 315.915 387.781 318.715C384.995 321.515 383.432 325.309 383.434 329.263V349.902C383.436 351.938 383.856 353.951 384.668 355.818C385.479 357.684 386.664 359.363 388.15 360.751L388.247 360.842C389.792 362.225 391.59 363.297 393.541 363.997L393.788 364.102C395.242 364.567 396.76 364.803 398.287 364.801H425.518C432.279 364.799 438.867 366.94 444.339 370.917C449.812 374.894 453.89 380.503 455.989 386.943C456.153 387.468 456.459 387.937 456.871 388.3C457.284 388.663 457.788 388.906 458.328 389.002C458.408 389.009 458.488 389.009 458.568 389.002H458.861C459.311 389 459.755 388.9 460.163 388.71C460.571 388.519 460.932 388.242 461.222 387.897L489.369 352.66C491.506 349.998 492.67 346.684 492.668 343.268V329.263C492.669 327.302 492.284 325.36 491.536 323.548C490.788 321.736 489.69 320.089 488.307 318.702C486.923 317.315 485.281 316.214 483.473 315.464C481.665 314.713 479.727 314.327 477.77 314.327ZM389.379 336.266V329.263C389.377 326.9 390.311 324.632 391.975 322.957C393.639 321.283 395.898 320.338 398.257 320.33H477.77C480.13 320.336 482.392 321.28 484.059 322.954C485.726 324.629 486.662 326.898 486.662 329.263V343.283C486.635 345.328 485.928 347.306 484.653 348.903L459.678 380.181C456.555 373.762 451.693 368.353 445.646 364.573C439.6 360.793 432.615 358.794 425.488 358.806C425.181 358.806 424.903 358.806 424.559 358.806C424.426 358.796 424.293 358.796 424.161 358.806H398.257C397.397 358.8 396.541 358.676 395.715 358.437C394.42 357.988 393.228 357.285 392.206 356.371C391.315 355.547 390.604 354.546 390.117 353.433C389.631 352.32 389.379 351.118 389.379 349.902V337.002C389.401 336.895 389.414 336.787 389.417 336.679C389.419 336.54 389.406 336.402 389.379 336.266Z" fill="white" fill-opacity="0.6"/>
<path d="M415.206 375.64C408.598 375.629 402.253 378.229 397.554 382.874C392.855 387.519 390.183 393.832 390.121 400.438V400.911C390.149 405.95 391.699 410.864 394.567 415.008C397.435 419.152 401.489 422.333 406.196 424.135C410.904 425.938 416.047 426.277 420.95 425.108C425.854 423.94 430.29 421.318 433.678 417.586C433.797 417.485 433.856 417.401 433.839 417.401L433.982 417.223L434.058 417.13L434.151 417.029L435.579 415.214C435.695 415.113 435.798 414.996 435.883 414.868C438.466 411.104 439.971 406.706 440.237 402.149C440.503 397.593 439.518 393.05 437.39 389.012C435.262 384.973 432.071 381.593 428.162 379.235C424.252 376.877 419.772 375.631 415.206 375.632V375.64ZM428.72 413.035C426.241 415.752 423.002 417.66 419.424 418.511C415.846 419.363 412.094 419.118 408.656 417.809C405.219 416.501 402.255 414.188 400.15 411.173C398.045 408.158 396.896 404.579 396.853 400.902V400.506C396.975 395.708 398.974 391.149 402.42 387.807C405.865 384.465 410.484 382.605 415.285 382.627C420.086 382.649 424.687 384.551 428.102 387.925C431.517 391.299 433.473 395.876 433.552 400.674C433.552 404.338 432.445 407.917 430.376 410.941L428.856 412.85L428.737 413.027L428.72 413.035Z" fill="white" fill-opacity="0.6"/>
<path d="M467.439 457H546.915C550.861 456.99 554.642 455.412 557.428 452.611C560.214 449.811 561.777 446.018 561.775 442.064V421.424C561.773 419.389 561.353 417.375 560.541 415.509C559.73 413.643 558.545 411.963 557.059 410.575L556.962 410.485C555.417 409.101 553.619 408.03 551.668 407.329L551.421 407.224C549.967 406.76 548.449 406.524 546.922 406.525H519.691C512.93 406.527 506.342 404.387 500.87 400.41C495.397 396.433 491.319 390.823 489.22 384.384C489.055 383.859 488.75 383.389 488.338 383.026C487.925 382.663 487.421 382.421 486.881 382.325C486.801 382.318 486.721 382.318 486.641 382.325H486.348C485.898 382.327 485.454 382.426 485.046 382.617C484.638 382.808 484.277 383.085 483.987 383.43L455.84 418.667C453.703 421.329 452.539 424.643 452.541 428.059V442.064C452.54 444.025 452.925 445.967 453.673 447.779C454.421 449.591 455.519 451.238 456.902 452.625C458.286 454.012 459.928 455.112 461.736 455.863C463.544 456.614 465.482 457 467.439 457ZM555.83 435.061V442.064C555.832 444.427 554.898 446.695 553.234 448.369C551.57 450.044 549.311 450.989 546.952 450.997H467.439C465.079 450.991 462.817 450.047 461.15 448.372C459.483 446.698 458.547 444.429 458.547 442.064V428.044C458.574 425.998 459.281 424.021 460.556 422.424L485.531 391.146C488.654 397.565 493.516 402.974 499.562 406.754C505.609 410.534 512.594 412.533 519.721 412.521C520.028 412.521 520.306 412.521 520.65 412.521C520.783 412.531 520.916 412.531 521.048 412.521H546.952C547.812 412.527 548.668 412.651 549.494 412.889C550.788 413.339 551.981 414.041 553.003 414.955C553.894 415.78 554.605 416.78 555.092 417.894C555.578 419.007 555.83 420.209 555.83 421.424V434.325C555.808 434.431 555.795 434.539 555.792 434.648C555.79 434.787 555.803 434.925 555.83 435.061Z" fill="white" fill-opacity="0.6"/>
<path d="M530.003 395.686C536.611 395.698 542.956 393.098 547.655 388.453C552.354 383.808 555.025 377.494 555.088 370.888V370.416C555.06 365.376 553.51 360.463 550.642 356.319C547.774 352.175 543.72 348.993 539.013 347.191C534.305 345.389 529.162 345.05 524.259 346.218C519.355 347.387 514.919 350.009 511.531 353.74C511.412 353.841 511.353 353.926 511.37 353.926L511.227 354.103L511.15 354.196L511.058 354.297L509.63 356.113C509.513 356.214 509.411 356.33 509.326 356.459C506.743 360.223 505.237 364.62 504.972 369.177C504.706 373.734 505.691 378.276 507.819 382.315C509.947 386.353 513.138 389.734 517.047 392.092C520.957 394.45 525.436 395.696 530.003 395.695V395.686ZM516.489 358.291C518.968 355.575 522.207 353.667 525.785 352.815C529.363 351.964 533.115 352.208 536.553 353.517C539.99 354.826 542.954 357.138 545.059 360.153C547.164 363.169 548.313 366.747 548.356 370.424V370.821C548.234 375.619 546.235 380.178 542.789 383.52C539.344 386.862 534.725 388.721 529.924 388.699C525.123 388.677 520.522 386.775 517.107 383.401C513.692 380.028 511.736 375.451 511.657 370.652C511.657 366.988 512.764 363.409 514.833 360.385L516.353 358.477L516.472 358.299L516.489 358.291Z" fill="white" fill-opacity="0.6"/>
<path d="M493.336 467H413.86C409.914 467.01 406.134 468.588 403.348 471.389C400.562 474.189 398.998 477.982 399 481.936V502.576C399.003 504.611 399.423 506.625 400.234 508.491C401.045 510.357 402.23 512.037 403.716 513.425L403.814 513.515C405.359 514.899 407.156 515.97 409.107 516.671L409.354 516.776C410.809 517.24 412.326 517.476 413.853 517.475H441.085C447.845 517.473 454.433 519.613 459.906 523.59C465.379 527.567 469.456 533.177 471.555 539.616C471.72 540.141 472.025 540.611 472.438 540.974C472.85 541.337 473.354 541.579 473.895 541.675C473.974 541.682 474.055 541.682 474.135 541.675H474.427C474.877 541.673 475.321 541.574 475.729 541.383C476.137 541.192 476.499 540.915 476.789 540.57L504.935 505.333C507.072 502.671 508.236 499.357 508.234 495.941V481.936C508.235 479.975 507.851 478.033 507.102 476.221C506.354 474.409 505.257 472.762 503.873 471.375C502.49 469.988 500.847 468.888 499.039 468.137C497.231 467.386 495.293 467 493.336 467ZM404.946 488.939V481.936C404.944 479.573 405.877 477.305 407.541 475.631C409.205 473.956 411.465 473.011 413.823 473.003H493.336C495.697 473.009 497.958 473.953 499.625 475.628C501.292 477.302 502.228 479.571 502.228 481.936V495.956C502.202 498.002 501.494 499.979 500.219 501.576L475.244 532.854C472.122 526.435 467.259 521.026 461.213 517.246C455.167 513.466 448.181 511.467 441.055 511.479C440.747 511.479 440.47 511.479 440.125 511.479C439.993 511.469 439.86 511.469 439.728 511.479H413.823C412.963 511.473 412.108 511.349 411.281 511.111C409.987 510.661 408.794 509.959 407.772 509.045C406.881 508.22 406.17 507.22 405.684 506.106C405.197 504.993 404.946 503.791 404.946 502.576V489.675C404.968 489.569 404.98 489.461 404.983 489.352C404.985 489.213 404.973 489.075 404.946 488.939Z" fill="#00589B" fill-opacity="0.3"/>
<path d="M430.773 528.313C424.164 528.302 417.819 530.902 413.121 535.547C408.422 540.192 405.75 546.506 405.688 553.111V553.584C405.715 558.623 407.265 563.537 410.133 567.681C413.002 571.825 417.055 575.006 421.763 576.809C426.471 578.611 431.613 578.95 436.517 577.782C441.42 576.613 445.857 573.991 449.245 570.26C449.363 570.158 449.422 570.074 449.405 570.074L449.549 569.897L449.625 569.804L449.718 569.702L451.145 567.887C451.262 567.786 451.364 567.67 451.449 567.541C454.032 563.777 455.538 559.379 455.804 554.823C456.069 550.266 455.085 545.723 452.957 541.685C450.829 537.647 447.638 534.266 443.728 531.908C439.818 529.55 435.339 528.304 430.773 528.305V528.313ZM444.287 565.709C441.808 568.425 438.569 570.333 434.99 571.185C431.412 572.036 427.66 571.792 424.223 570.483C420.785 569.174 417.821 566.862 415.716 563.846C413.611 560.831 412.462 557.252 412.419 553.576V553.179C412.542 548.381 414.54 543.822 417.986 540.48C421.432 537.138 426.05 535.279 430.851 535.301C435.652 535.323 440.254 537.225 443.668 540.598C447.083 543.972 449.04 548.549 449.118 553.348C449.119 557.012 448.012 560.591 445.942 563.615L444.422 565.523L444.304 565.7L444.287 565.709Z" fill="white" fill-opacity="0.6"/>
</svg>
