<svg width="614" height="433" viewBox="0 0 614 433" fill="none" xmlns="http://www.w3.org/2000/svg">
<path d="M-7.82525 14H88.2143C92.9827 14.012 97.5515 15.914 100.918 19.2887C104.285 22.6635 106.174 27.2351 106.172 32.0005V56.8734C106.169 59.3266 105.661 61.753 104.681 64.0021C103.7 66.2512 102.268 68.2751 100.473 69.9482L100.355 70.0568C98.4879 71.7243 96.3159 73.0155 93.9585 73.8597L93.6596 73.9865C91.9019 74.5462 90.0681 74.8303 88.2234 74.8285H55.3162C47.1468 74.8262 39.186 77.4059 32.5724 82.1987C25.9589 86.9914 21.0315 93.7516 18.495 101.512C18.2962 102.145 17.9274 102.711 17.429 103.148C16.9305 103.586 16.3215 103.878 15.6682 103.993C15.5718 104.002 15.4747 104.002 15.3783 103.993H15.0249C14.4811 103.991 13.9442 103.871 13.4514 103.642C12.9585 103.412 12.5216 103.078 12.1709 102.662L-21.8416 60.1964C-24.424 56.9889 -25.8307 52.995 -25.8281 48.8782V32.0005C-25.8293 29.637 -25.3645 27.2965 -24.4603 25.1127C-23.5561 22.9288 -22.2302 20.9444 -20.5584 19.2728C-18.8866 17.6011 -16.9016 16.2751 -14.7167 15.3704C-12.5319 14.4657 -10.1902 14 -7.82525 14ZM98.987 40.4393V32.0005C98.9895 29.1523 97.8614 26.4194 95.8504 24.4012C93.8394 22.383 91.1096 21.2442 88.2596 21.2346H-7.82525C-10.6776 21.2418 -13.4108 22.3792 -15.4252 24.3974C-17.4396 26.4156 -18.5708 29.1499 -18.5708 32.0005V48.8963C-18.5382 51.361 -17.6837 53.7445 -16.1426 55.6691L14.0373 93.3632C17.8109 85.6273 23.6867 79.1089 30.993 74.5534C38.2992 69.9979 46.7409 67.5893 55.3525 67.603C55.7239 67.603 56.0592 67.603 56.4759 67.603C56.6358 67.5916 56.7963 67.5916 56.9561 67.603H88.2596C89.2989 67.596 90.3323 67.4467 91.331 67.1593C92.8952 66.6174 94.3363 65.7711 95.5713 64.6693C96.6481 63.6758 97.5076 62.4702 98.0954 61.1285C98.6833 59.7868 98.9869 58.338 98.987 56.8734V41.3267C98.9606 41.1985 98.9454 41.0682 98.9417 40.9373C98.9394 40.7702 98.9546 40.6033 98.987 40.4393Z" fill="white" fill-opacity="0.45"/>
<path d="M-7.82525 14H88.2143C92.9827 14.012 97.5515 15.914 100.918 19.2887C104.285 22.6635 106.174 27.2351 106.172 32.0005V56.8734C106.169 59.3266 105.661 61.753 104.681 64.0021C103.7 66.2512 102.268 68.2751 100.473 69.9482L100.355 70.0568C98.4879 71.7243 96.3159 73.0155 93.9585 73.8597L93.6596 73.9865C91.9019 74.5462 90.0681 74.8303 88.2234 74.8285H55.3162C47.1468 74.8262 39.186 77.4059 32.5724 82.1987C25.9589 86.9914 21.0315 93.7516 18.495 101.512C18.2962 102.145 17.9274 102.711 17.429 103.148C16.9305 103.586 16.3215 103.878 15.6682 103.993C15.5718 104.002 15.4747 104.002 15.3783 103.993H15.0249C14.4811 103.991 13.9442 103.871 13.4514 103.642C12.9585 103.412 12.5216 103.078 12.1709 102.662L-21.8416 60.1964C-24.424 56.9889 -25.8307 52.995 -25.8281 48.8782V32.0005C-25.8293 29.637 -25.3645 27.2965 -24.4603 25.1127C-23.5561 22.9288 -22.2302 20.9444 -20.5584 19.2728C-18.8866 17.6011 -16.9016 16.2751 -14.7167 15.3704C-12.5319 14.4657 -10.1902 14 -7.82525 14ZM98.987 40.4393V32.0005C98.9895 29.1523 97.8614 26.4194 95.8504 24.4012C93.8394 22.383 91.1096 21.2442 88.2596 21.2346H-7.82525C-10.6776 21.2418 -13.4108 22.3792 -15.4252 24.3974C-17.4396 26.4156 -18.5708 29.1499 -18.5708 32.0005V48.8963C-18.5382 51.361 -17.6837 53.7445 -16.1426 55.6691L14.0373 93.3632C17.8109 85.6273 23.6867 79.1089 30.993 74.5534C38.2992 69.9979 46.7409 67.5893 55.3525 67.603C55.7239 67.603 56.0592 67.603 56.4759 67.603C56.6358 67.5916 56.7963 67.5916 56.9561 67.603H88.2596C89.2989 67.596 90.3323 67.4467 91.331 67.1593C92.8952 66.6174 94.3363 65.7711 95.5713 64.6693C96.6481 63.6758 97.5076 62.4702 98.0954 61.1285C98.6833 59.7868 98.9869 58.338 98.987 56.8734V41.3267C98.9606 41.1985 98.9454 41.0682 98.9417 40.9373C98.9394 40.7702 98.9546 40.6033 98.987 40.4393Z" fill="white" fill-opacity="0.45"/>
<path d="M61.6645 81.0101C69.7012 80.9964 77.4177 84.1067 83.1322 89.6632C88.8467 95.2196 92.096 102.772 92.1719 110.674V111.239C92.138 117.267 90.2535 123.145 86.7651 128.102C83.2768 133.059 78.3471 136.865 72.6219 139.021C66.8967 141.177 60.6427 141.582 54.6791 140.184C48.7155 138.786 43.3203 135.65 39.1999 131.187C39.0561 131.065 38.9842 130.964 39.0048 130.964L38.8301 130.752L38.7377 130.641L38.6247 130.52L36.8888 128.348C36.7468 128.228 36.6224 128.088 36.519 127.934C33.3776 123.432 31.5466 118.172 31.2235 112.721C30.9004 107.27 32.0975 101.836 34.6856 97.0052C37.2737 92.1745 41.1546 88.1305 45.9091 85.3099C50.6637 82.4892 56.1115 80.999 61.6645 81V81.0101ZM45.2295 125.743C48.2443 128.992 52.1837 131.275 56.5354 132.293C60.8872 133.312 65.4499 133.019 69.6303 131.453C73.8107 129.888 77.4153 127.122 79.9755 123.515C82.5356 119.908 83.9327 115.627 83.9852 111.229V110.754C83.836 105.015 81.4056 99.5619 77.2151 95.564C73.0246 91.5661 67.4078 89.3419 61.569 89.3683C55.7302 89.3947 50.1344 91.6697 45.9816 95.7054C41.8287 99.741 39.4495 105.216 39.354 110.956C39.3532 115.339 40.6994 119.62 43.2162 123.238L45.0652 125.521L45.2089 125.733L45.2295 125.743Z" fill="#00589B" fill-opacity="0.3"/>
<path d="M219.169 141H123.129C118.361 141.012 113.792 142.872 110.426 146.171C107.059 149.471 105.169 153.941 105.172 158.6V182.921C105.175 185.319 105.683 187.692 106.663 189.891C107.643 192.09 109.076 194.069 110.871 195.705L110.989 195.811C112.856 197.441 115.028 198.704 117.385 199.529L117.684 199.653C119.442 200.201 121.276 200.479 123.12 200.477H156.028C164.197 200.475 172.158 202.997 178.771 207.683C185.385 212.369 190.312 218.979 192.849 226.568C193.048 227.186 193.416 227.739 193.915 228.167C194.413 228.595 195.022 228.881 195.676 228.993C195.772 229.002 195.869 229.002 195.965 228.993H196.319C196.863 228.992 197.4 228.874 197.892 228.65C198.385 228.425 198.822 228.098 199.173 227.692L233.185 186.17C235.768 183.034 237.174 179.128 237.172 175.103V158.6C237.173 156.29 236.708 154.001 235.804 151.866C234.9 149.73 233.574 147.79 231.902 146.156C230.23 144.521 228.245 143.225 226.06 142.34C223.876 141.455 221.534 141 219.169 141ZM112.357 166.852V158.6C112.354 155.816 113.482 153.143 115.493 151.17C117.504 149.197 120.234 148.083 123.084 148.074H219.169C222.021 148.081 224.755 149.193 226.769 151.166C228.783 153.14 229.915 155.813 229.915 158.6V175.121C229.882 177.531 229.027 179.861 227.486 181.743L197.306 218.6C193.533 211.036 187.657 204.662 180.351 200.208C173.045 195.754 164.603 193.398 155.991 193.412C155.62 193.412 155.285 193.412 154.868 193.412C154.708 193.401 154.547 193.401 154.388 193.412H123.084C122.045 193.405 121.011 193.259 120.013 192.978C118.449 192.448 117.007 191.621 115.772 190.543C114.696 189.572 113.836 188.393 113.248 187.081C112.66 185.769 112.357 184.353 112.357 182.921V167.719C112.383 167.594 112.398 167.467 112.402 167.339C112.404 167.175 112.389 167.012 112.357 166.852Z" fill="#00589B" fill-opacity="0.3"/>
<path d="M149.179 207.01C141.011 206.996 133.168 210.159 127.36 215.808C121.552 221.457 118.249 229.135 118.172 237.168V237.743C118.206 243.872 120.122 249.847 123.667 254.887C127.213 259.927 132.223 263.796 138.042 265.988C143.861 268.179 150.218 268.592 156.279 267.171C162.341 265.75 167.824 262.561 172.012 258.023C172.158 257.9 172.231 257.797 172.211 257.797L172.388 257.581L172.482 257.468L172.597 257.345L174.361 255.138C174.506 255.015 174.632 254.873 174.737 254.717C177.93 250.139 179.791 244.791 180.119 239.249C180.448 233.708 179.231 228.183 176.601 223.272C173.97 218.361 170.026 214.249 165.193 211.382C160.36 208.514 154.823 206.999 149.179 207V207.01ZM165.884 252.488C162.82 255.792 158.816 258.112 154.393 259.148C149.969 260.183 145.332 259.886 141.083 258.294C136.834 256.703 133.17 253.891 130.568 250.224C127.966 246.557 126.546 242.204 126.493 237.733V237.25C126.644 231.415 129.115 225.871 133.374 221.807C137.633 217.742 143.342 215.481 149.276 215.508C155.211 215.535 160.898 217.848 165.119 221.95C169.34 226.053 171.759 231.62 171.856 237.456C171.856 241.912 170.488 246.264 167.93 249.942L166.051 252.263L165.905 252.478L165.884 252.488Z" fill="white" fill-opacity="0.45"/>
<path d="M149.179 207.01C141.011 206.996 133.168 210.159 127.36 215.808C121.552 221.457 118.249 229.135 118.172 237.168V237.743C118.206 243.872 120.122 249.847 123.667 254.887C127.213 259.927 132.223 263.796 138.042 265.988C143.861 268.179 150.218 268.592 156.279 267.171C162.341 265.75 167.824 262.561 172.012 258.023C172.158 257.9 172.231 257.797 172.211 257.797L172.388 257.581L172.482 257.468L172.597 257.345L174.361 255.138C174.506 255.015 174.632 254.873 174.737 254.717C177.93 250.139 179.791 244.791 180.119 239.249C180.448 233.708 179.231 228.183 176.601 223.272C173.97 218.361 170.026 214.249 165.193 211.382C160.36 208.514 154.823 206.999 149.179 207V207.01ZM165.884 252.488C162.82 255.792 158.816 258.112 154.393 259.148C149.969 260.183 145.332 259.886 141.083 258.294C136.834 256.703 133.17 253.891 130.568 250.224C127.966 246.557 126.546 242.204 126.493 237.733V237.25C126.644 231.415 129.115 225.871 133.374 221.807C137.633 217.742 143.342 215.481 149.276 215.508C155.211 215.535 160.898 217.848 165.119 221.95C169.34 226.053 171.759 231.62 171.856 237.456C171.856 241.912 170.488 246.264 167.93 249.942L166.051 252.263L165.905 252.478L165.884 252.488Z" fill="white" fill-opacity="0.45"/>
<path d="M595.169 222H499.129C494.361 222.012 489.792 223.893 486.426 227.23C483.059 230.567 481.169 235.088 481.172 239.8V264.397C481.175 266.823 481.683 269.222 482.663 271.447C483.643 273.671 485.076 275.672 486.871 277.327L486.989 277.434C488.856 279.083 491.028 280.36 493.385 281.195L493.684 281.32C495.442 281.873 497.276 282.154 499.12 282.153H532.028C540.197 282.15 548.158 284.701 554.771 289.441C561.385 294.18 566.312 300.866 568.849 308.54C569.048 309.165 569.416 309.725 569.915 310.158C570.413 310.59 571.022 310.879 571.676 310.993C571.772 311.002 571.869 311.002 571.965 310.993H572.319C572.863 310.992 573.4 310.873 573.892 310.646C574.385 310.418 574.822 310.088 575.173 309.677L609.185 267.683C611.768 264.511 613.174 260.562 613.172 256.491V239.8C613.173 237.463 612.708 235.149 611.804 232.989C610.9 230.83 609.574 228.867 607.902 227.214C606.23 225.561 604.245 224.25 602.06 223.355C599.876 222.46 597.534 222 595.169 222ZM488.357 248.146V239.8C488.354 236.984 489.482 234.281 491.493 232.286C493.504 230.29 496.234 229.164 499.084 229.154H595.169C598.021 229.161 600.755 230.286 602.769 232.282C604.783 234.278 605.915 236.982 605.915 239.8V256.509C605.882 258.946 605.027 261.303 603.486 263.206L573.306 300.481C569.533 292.831 563.657 286.385 556.351 281.881C549.045 277.376 540.603 274.994 531.991 275.007C531.62 275.007 531.285 275.007 530.868 275.007C530.708 274.996 530.547 274.996 530.388 275.007H499.084C498.045 275 497.011 274.853 496.013 274.569C494.449 274.033 493.007 273.196 491.772 272.106C490.696 271.124 489.836 269.932 489.248 268.605C488.66 267.278 488.357 265.845 488.357 264.397V249.023C488.383 248.896 488.398 248.767 488.402 248.638C488.404 248.473 488.389 248.308 488.357 248.146Z" fill="white" fill-opacity="0.45"/>
<path d="M595.169 222H499.129C494.361 222.012 489.792 223.893 486.426 227.23C483.059 230.567 481.169 235.088 481.172 239.8V264.397C481.175 266.823 481.683 269.222 482.663 271.447C483.643 273.671 485.076 275.672 486.871 277.327L486.989 277.434C488.856 279.083 491.028 280.36 493.385 281.195L493.684 281.32C495.442 281.873 497.276 282.154 499.12 282.153H532.028C540.197 282.15 548.158 284.701 554.771 289.441C561.385 294.18 566.312 300.866 568.849 308.54C569.048 309.165 569.416 309.725 569.915 310.158C570.413 310.59 571.022 310.879 571.676 310.993C571.772 311.002 571.869 311.002 571.965 310.993H572.319C572.863 310.992 573.4 310.873 573.892 310.646C574.385 310.418 574.822 310.088 575.173 309.677L609.185 267.683C611.768 264.511 613.174 260.562 613.172 256.491V239.8C613.173 237.463 612.708 235.149 611.804 232.989C610.9 230.83 609.574 228.867 607.902 227.214C606.23 225.561 604.245 224.25 602.06 223.355C599.876 222.46 597.534 222 595.169 222ZM488.357 248.146V239.8C488.354 236.984 489.482 234.281 491.493 232.286C493.504 230.29 496.234 229.164 499.084 229.154H595.169C598.021 229.161 600.755 230.286 602.769 232.282C604.783 234.278 605.915 236.982 605.915 239.8V256.509C605.882 258.946 605.027 261.303 603.486 263.206L573.306 300.481C569.533 292.831 563.657 286.385 556.351 281.881C549.045 277.376 540.603 274.994 531.991 275.007C531.62 275.007 531.285 275.007 530.868 275.007C530.708 274.996 530.547 274.996 530.388 275.007H499.084C498.045 275 497.011 274.853 496.013 274.569C494.449 274.033 493.007 273.196 491.772 272.106C490.696 271.124 489.836 269.932 489.248 268.605C488.66 267.278 488.357 265.845 488.357 264.397V249.023C488.383 248.896 488.398 248.767 488.402 248.638C488.404 248.473 488.389 248.308 488.357 248.146Z" fill="white" fill-opacity="0.45"/>
<path d="M525.179 289.01C517.011 288.996 509.168 292.055 503.36 297.519C497.552 302.983 494.249 310.409 494.172 318.179V318.735C494.206 324.663 496.122 330.442 499.667 335.317C503.213 340.191 508.223 343.934 514.042 346.054C519.861 348.174 526.218 348.572 532.279 347.198C538.341 345.823 543.824 342.739 548.012 338.35C548.158 338.231 548.231 338.132 548.211 338.132L548.388 337.923L548.482 337.814L548.597 337.695L550.361 335.559C550.506 335.441 550.632 335.304 550.737 335.152C553.93 330.725 555.791 325.552 556.119 320.192C556.448 314.832 555.231 309.489 552.601 304.738C549.97 299.988 546.026 296.012 541.193 293.238C536.36 290.464 530.823 288.999 525.179 289V289.01ZM541.884 332.997C538.82 336.192 534.816 338.437 530.393 339.438C525.969 340.44 521.332 340.152 517.083 338.613C512.834 337.073 509.17 334.353 506.568 330.806C503.966 327.26 502.546 323.05 502.493 318.725V318.259C502.644 312.615 505.115 307.253 509.374 303.321C513.633 299.39 519.342 297.203 525.276 297.229C531.211 297.255 536.898 299.492 541.119 303.46C545.34 307.429 547.759 312.812 547.856 318.457C547.856 322.767 546.488 326.977 543.93 330.534L542.051 332.778L541.905 332.987L541.884 332.997Z" fill="#4EBA66" fill-opacity="0.3"/>
<path d="M352.033 268H255.266C250.461 267.988 245.858 266.086 242.465 262.711C239.073 259.337 237.169 254.765 237.172 250V225.127C237.175 222.673 237.687 220.247 238.674 217.998C239.662 215.749 241.105 213.725 242.914 212.052L243.033 211.943C244.914 210.276 247.103 208.984 249.478 208.14L249.779 208.014C251.55 207.454 253.398 207.17 255.256 207.171H288.413C296.644 207.174 304.665 204.594 311.329 199.801C317.993 195.009 322.957 188.248 325.513 180.488C325.713 179.855 326.085 179.289 326.587 178.852C327.089 178.414 327.703 178.122 328.361 178.007C328.458 177.998 328.556 177.998 328.653 178.007H329.009C329.557 178.009 330.098 178.129 330.595 178.358C331.091 178.588 331.532 178.922 331.885 179.338L366.155 221.804C368.757 225.011 370.174 229.005 370.172 233.122V250C370.173 252.363 369.705 254.703 368.794 256.887C367.883 259.071 366.547 261.056 364.862 262.727C363.178 264.399 361.178 265.725 358.976 266.63C356.775 267.534 354.415 268 352.033 268ZM244.411 241.561V250C244.409 252.848 245.545 255.581 247.572 257.599C249.598 259.617 252.348 260.756 255.22 260.765H352.033C354.907 260.758 357.66 259.621 359.69 257.603C361.72 255.584 362.86 252.85 362.86 250V233.104C362.827 230.639 361.966 228.256 360.413 226.331L330.004 188.637C326.202 196.373 320.282 202.891 312.92 207.447C305.559 212.002 297.053 214.411 288.376 214.397C288.002 214.397 287.664 214.397 287.244 214.397C287.083 214.408 286.922 214.408 286.76 214.397H255.22C254.173 214.404 253.131 214.553 252.125 214.841C250.549 215.383 249.097 216.229 247.853 217.331C246.768 218.324 245.902 219.53 245.31 220.871C244.717 222.213 244.411 223.662 244.411 225.127V240.673C244.438 240.802 244.453 240.932 244.457 241.063C244.459 241.23 244.444 241.397 244.411 241.561Z" fill="white" fill-opacity="0.45"/>
<path d="M352.033 268H255.266C250.461 267.988 245.858 266.086 242.465 262.711C239.073 259.337 237.169 254.765 237.172 250V225.127C237.175 222.673 237.687 220.247 238.674 217.998C239.662 215.749 241.105 213.725 242.914 212.052L243.033 211.943C244.914 210.276 247.103 208.984 249.478 208.14L249.779 208.014C251.55 207.454 253.398 207.17 255.256 207.171H288.413C296.644 207.174 304.665 204.594 311.329 199.801C317.993 195.009 322.957 188.248 325.513 180.488C325.713 179.855 326.085 179.289 326.587 178.852C327.089 178.414 327.703 178.122 328.361 178.007C328.458 177.998 328.556 177.998 328.653 178.007H329.009C329.557 178.009 330.098 178.129 330.595 178.358C331.091 178.588 331.532 178.922 331.885 179.338L366.155 221.804C368.757 225.011 370.174 229.005 370.172 233.122V250C370.173 252.363 369.705 254.703 368.794 256.887C367.883 259.071 366.547 261.056 364.862 262.727C363.178 264.399 361.178 265.725 358.976 266.63C356.775 267.534 354.415 268 352.033 268ZM244.411 241.561V250C244.409 252.848 245.545 255.581 247.572 257.599C249.598 259.617 252.348 260.756 255.22 260.765H352.033C354.907 260.758 357.66 259.621 359.69 257.603C361.72 255.584 362.86 252.85 362.86 250V233.104C362.827 230.639 361.966 228.256 360.413 226.331L330.004 188.637C326.202 196.373 320.282 202.891 312.92 207.447C305.559 212.002 297.053 214.411 288.376 214.397C288.002 214.397 287.664 214.397 287.244 214.397C287.083 214.408 286.922 214.408 286.76 214.397H255.22C254.173 214.404 253.131 214.553 252.125 214.841C250.549 215.383 249.097 216.229 247.853 217.331C246.768 218.324 245.902 219.53 245.31 220.871C244.717 222.213 244.411 223.662 244.411 225.127V240.673C244.438 240.802 244.453 240.932 244.457 241.063C244.459 241.23 244.444 241.397 244.411 241.561Z" fill="white" fill-opacity="0.45"/>
<path d="M282.179 199.99C274.011 200.004 266.168 196.945 260.36 191.481C254.552 186.017 251.249 178.591 251.172 170.821V170.265C251.206 164.337 253.122 158.558 256.667 153.683C260.213 148.809 265.223 145.066 271.042 142.946C276.861 140.826 283.218 140.428 289.279 141.802C295.341 143.177 300.824 146.261 305.012 150.65C305.158 150.769 305.231 150.868 305.211 150.868L305.388 151.077L305.482 151.186L305.597 151.305L307.361 153.441C307.506 153.559 307.632 153.696 307.737 153.848C310.93 158.275 312.791 163.448 313.119 168.808C313.448 174.168 312.231 179.511 309.601 184.262C306.97 189.012 303.026 192.988 298.193 195.762C293.36 198.536 287.823 200.001 282.179 200V199.99ZM298.884 156.003C295.82 152.808 291.816 150.563 287.393 149.562C282.969 148.56 278.332 148.848 274.083 150.387C269.834 151.927 266.17 154.647 263.568 158.194C260.966 161.74 259.546 165.95 259.493 170.275V170.741C259.644 176.385 262.115 181.747 266.374 185.679C270.633 189.61 276.342 191.797 282.276 191.771C288.211 191.745 293.898 189.508 298.119 185.54C302.34 181.571 304.759 176.188 304.856 170.543C304.856 166.233 303.488 162.023 300.93 158.466L299.051 156.222L298.905 156.013L298.884 156.003Z" fill="white" fill-opacity="0.45"/>
<path d="M282.179 199.99C274.011 200.004 266.168 196.945 260.36 191.481C254.552 186.017 251.249 178.591 251.172 170.821V170.265C251.206 164.337 253.122 158.558 256.667 153.683C260.213 148.809 265.223 145.066 271.042 142.946C276.861 140.826 283.218 140.428 289.279 141.802C295.341 143.177 300.824 146.261 305.012 150.65C305.158 150.769 305.231 150.868 305.211 150.868L305.388 151.077L305.482 151.186L305.597 151.305L307.361 153.441C307.506 153.559 307.632 153.696 307.737 153.848C310.93 158.275 312.791 163.448 313.119 168.808C313.448 174.168 312.231 179.511 309.601 184.262C306.97 189.012 303.026 192.988 298.193 195.762C293.36 198.536 287.823 200.001 282.179 200V199.99ZM298.884 156.003C295.82 152.808 291.816 150.563 287.393 149.562C282.969 148.56 278.332 148.848 274.083 150.387C269.834 151.927 266.17 154.647 263.568 158.194C260.966 161.74 259.546 165.95 259.493 170.275V170.741C259.644 176.385 262.115 181.747 266.374 185.679C270.633 189.61 276.342 191.797 282.276 191.771C288.211 191.745 293.898 189.508 298.119 185.54C302.34 181.571 304.759 176.188 304.856 170.543C304.856 166.233 303.488 162.023 300.93 158.466L299.051 156.222L298.905 156.013L298.884 156.003Z" fill="white" fill-opacity="0.45"/>
<path d="M123.175 127H219.214C223.983 126.988 228.551 125.086 231.918 121.711C235.285 118.337 237.174 113.765 237.172 109V84.1266C237.169 81.6734 236.661 79.247 235.681 76.9979C234.7 74.7488 233.268 72.7249 231.473 71.0518L231.355 70.9432C229.488 69.2757 227.316 67.9845 224.959 67.1403L224.66 67.0135C222.902 66.4538 221.068 66.1697 219.223 66.1715H186.316C178.147 66.1738 170.186 63.5941 163.572 58.8013C156.959 54.0086 152.031 47.2484 149.495 39.4877C149.296 38.8552 148.927 38.2894 148.429 37.8519C147.931 37.4144 147.321 37.1221 146.668 37.0067C146.572 36.9978 146.475 36.9978 146.378 37.0067H146.025C145.481 37.0085 144.944 37.1285 144.451 37.3584C143.959 37.5882 143.522 37.9224 143.171 38.3377L109.158 80.8036C106.576 84.0111 105.169 88.005 105.172 92.1218V109C105.171 111.363 105.635 113.703 106.54 115.887C107.444 118.071 108.77 120.056 110.442 121.727C112.113 123.399 114.098 124.725 116.283 125.63C118.468 126.534 120.81 127 123.175 127ZM229.987 100.561V109C229.989 111.848 228.861 114.581 226.85 116.599C224.839 118.617 222.11 119.756 219.26 119.765H123.175C120.322 119.758 117.589 118.621 115.575 116.603C113.56 114.584 112.429 111.85 112.429 109V92.1037C112.462 89.639 113.316 87.2555 114.857 85.3309L145.037 47.6368C148.811 55.3727 154.687 61.8911 161.993 66.4466C169.299 71.0021 177.741 73.4107 186.352 73.397C186.724 73.397 187.059 73.397 187.476 73.397C187.636 73.4084 187.796 73.4084 187.956 73.397H219.26C220.299 73.404 221.332 73.5533 222.331 73.8407C223.895 74.3826 225.336 75.2289 226.571 76.3307C227.648 77.3242 228.508 78.5298 229.095 79.8715C229.683 81.2132 229.987 82.662 229.987 84.1266V99.6733C229.961 99.8015 229.945 99.9318 229.942 100.063C229.939 100.23 229.955 100.397 229.987 100.561Z" fill="white" fill-opacity="0.45"/>
<path d="M123.175 127H219.214C223.983 126.988 228.551 125.086 231.918 121.711C235.285 118.337 237.174 113.765 237.172 109V84.1266C237.169 81.6734 236.661 79.247 235.681 76.9979C234.7 74.7488 233.268 72.7249 231.473 71.0518L231.355 70.9432C229.488 69.2757 227.316 67.9845 224.959 67.1403L224.66 67.0135C222.902 66.4538 221.068 66.1697 219.223 66.1715H186.316C178.147 66.1738 170.186 63.5941 163.572 58.8013C156.959 54.0086 152.031 47.2484 149.495 39.4877C149.296 38.8552 148.927 38.2894 148.429 37.8519C147.931 37.4144 147.321 37.1221 146.668 37.0067C146.572 36.9978 146.475 36.9978 146.378 37.0067H146.025C145.481 37.0085 144.944 37.1285 144.451 37.3584C143.959 37.5882 143.522 37.9224 143.171 38.3377L109.158 80.8036C106.576 84.0111 105.169 88.005 105.172 92.1218V109C105.171 111.363 105.635 113.703 106.54 115.887C107.444 118.071 108.77 120.056 110.442 121.727C112.113 123.399 114.098 124.725 116.283 125.63C118.468 126.534 120.81 127 123.175 127ZM229.987 100.561V109C229.989 111.848 228.861 114.581 226.85 116.599C224.839 118.617 222.11 119.756 219.26 119.765H123.175C120.322 119.758 117.589 118.621 115.575 116.603C113.56 114.584 112.429 111.85 112.429 109V92.1037C112.462 89.639 113.316 87.2555 114.857 85.3309L145.037 47.6368C148.811 55.3727 154.687 61.8911 161.993 66.4466C169.299 71.0021 177.741 73.4107 186.352 73.397C186.724 73.397 187.059 73.397 187.476 73.397C187.636 73.4084 187.796 73.4084 187.956 73.397H219.26C220.299 73.404 221.332 73.5533 222.331 73.8407C223.895 74.3826 225.336 75.2289 226.571 76.3307C227.648 77.3242 228.508 78.5298 229.095 79.8715C229.683 81.2132 229.987 82.662 229.987 84.1266V99.6733C229.961 99.8015 229.945 99.9318 229.942 100.063C229.939 100.23 229.955 100.397 229.987 100.561Z" fill="white" fill-opacity="0.45"/>
<path d="M192.164 58.9901C200.333 59.0035 208.176 55.945 213.984 50.4812C219.792 45.0174 223.095 37.5912 223.172 29.821V29.2648C223.137 23.3372 221.222 17.5577 217.677 12.6832C214.131 7.80867 209.12 4.06638 203.301 1.94639C197.482 -0.173595 191.126 -0.572426 185.064 0.802143C179.003 2.17671 173.519 5.26059 169.332 9.64989C169.185 9.76907 169.112 9.86839 169.133 9.86839L168.956 10.0769L168.862 10.1862L168.747 10.3054L166.982 12.4407C166.838 12.5594 166.712 12.6964 166.607 12.8479C163.414 17.2752 161.553 22.448 161.224 27.8079C160.896 33.1679 162.113 38.5113 164.743 43.2615C167.374 48.0117 171.318 51.9883 176.151 54.7619C180.983 57.5356 186.52 59.001 192.164 59V58.9901ZM175.46 15.003C178.524 11.8077 182.528 9.56335 186.951 8.56184C191.374 7.56032 196.012 7.84797 200.261 9.38739C204.51 10.9268 208.173 13.6468 210.776 17.1936C213.378 20.7403 214.798 24.9499 214.851 29.2747V29.7415C214.699 35.3851 212.229 40.7475 207.97 44.6787C203.711 48.61 198.002 50.7971 192.067 50.7712C186.133 50.7452 180.445 48.5081 176.224 44.5397C172.003 40.5713 169.585 35.1876 169.488 29.5429C169.487 25.2329 170.856 21.0233 173.414 17.4661L175.293 15.2215L175.439 15.013L175.46 15.003Z" fill="white" fill-opacity="0.45"/>
<path d="M192.164 58.9901C200.333 59.0035 208.176 55.945 213.984 50.4812C219.792 45.0174 223.095 37.5912 223.172 29.821V29.2648C223.137 23.3372 221.222 17.5577 217.677 12.6832C214.131 7.80867 209.12 4.06638 203.301 1.94639C197.482 -0.173595 191.126 -0.572426 185.064 0.802143C179.003 2.17671 173.519 5.26059 169.332 9.64989C169.185 9.76907 169.112 9.86839 169.133 9.86839L168.956 10.0769L168.862 10.1862L168.747 10.3054L166.982 12.4407C166.838 12.5594 166.712 12.6964 166.607 12.8479C163.414 17.2752 161.553 22.448 161.224 27.8079C160.896 33.1679 162.113 38.5113 164.743 43.2615C167.374 48.0117 171.318 51.9883 176.151 54.7619C180.983 57.5356 186.52 59.001 192.164 59V58.9901ZM175.46 15.003C178.524 11.8077 182.528 9.56335 186.951 8.56184C191.374 7.56032 196.012 7.84797 200.261 9.38739C204.51 10.9268 208.173 13.6468 210.776 17.1936C213.378 20.7403 214.798 24.9499 214.851 29.2747V29.7415C214.699 35.3851 212.229 40.7475 207.97 44.6787C203.711 48.61 198.002 50.7971 192.067 50.7712C186.133 50.7452 180.445 48.5081 176.224 44.5397C172.003 40.5713 169.585 35.1876 169.488 29.5429C169.487 25.2329 170.856 21.0233 173.414 17.4661L175.293 15.2215L175.439 15.013L175.46 15.003Z" fill="white" fill-opacity="0.45"/>
<path d="M331.175 90H427.214C431.983 90.012 436.551 91.914 439.918 95.2887C443.285 98.6635 445.174 103.235 445.172 108V132.873C445.169 135.327 444.661 137.753 443.681 140.002C442.7 142.251 441.268 144.275 439.473 145.948L439.355 146.057C437.488 147.724 435.316 149.016 432.959 149.86L432.66 149.986C430.902 150.546 429.068 150.83 427.223 150.829H394.316C386.147 150.826 378.186 153.406 371.572 158.199C364.959 162.991 360.031 169.752 357.495 177.512C357.296 178.145 356.927 178.711 356.429 179.148C355.931 179.586 355.321 179.878 354.668 179.993C354.572 180.002 354.475 180.002 354.378 179.993H354.025C353.481 179.991 352.944 179.871 352.451 179.642C351.959 179.412 351.522 179.078 351.171 178.662L317.158 136.196C314.576 132.989 313.169 128.995 313.172 124.878V108C313.171 105.637 313.635 103.297 314.54 101.113C315.444 98.9288 316.77 96.9444 318.442 95.2728C320.113 93.6011 322.098 92.2751 324.283 91.3704C326.468 90.4657 328.81 90 331.175 90ZM437.987 116.439V108C437.989 105.152 436.861 102.419 434.85 100.401C432.839 98.383 430.11 97.2442 427.26 97.2346H331.175C328.322 97.2418 325.589 98.3792 323.575 100.397C321.56 102.416 320.429 105.15 320.429 108V124.896C320.462 127.361 321.316 129.744 322.857 131.669L353.037 169.363C356.811 161.627 362.687 155.109 369.993 150.553C377.299 145.998 385.741 143.589 394.352 143.603C394.724 143.603 395.059 143.603 395.476 143.603C395.636 143.592 395.796 143.592 395.956 143.603H427.26C428.299 143.596 429.332 143.447 430.331 143.159C431.895 142.617 433.336 141.771 434.571 140.669C435.648 139.676 436.508 138.47 437.095 137.129C437.683 135.787 437.987 134.338 437.987 132.873V117.327C437.961 117.198 437.945 117.068 437.942 116.937C437.939 116.77 437.955 116.603 437.987 116.439Z" fill="white" fill-opacity="0.45"/>
<path d="M331.175 90H427.214C431.983 90.012 436.551 91.914 439.918 95.2887C443.285 98.6635 445.174 103.235 445.172 108V132.873C445.169 135.327 444.661 137.753 443.681 140.002C442.7 142.251 441.268 144.275 439.473 145.948L439.355 146.057C437.488 147.724 435.316 149.016 432.959 149.86L432.66 149.986C430.902 150.546 429.068 150.83 427.223 150.829H394.316C386.147 150.826 378.186 153.406 371.572 158.199C364.959 162.991 360.031 169.752 357.495 177.512C357.296 178.145 356.927 178.711 356.429 179.148C355.931 179.586 355.321 179.878 354.668 179.993C354.572 180.002 354.475 180.002 354.378 179.993H354.025C353.481 179.991 352.944 179.871 352.451 179.642C351.959 179.412 351.522 179.078 351.171 178.662L317.158 136.196C314.576 132.989 313.169 128.995 313.172 124.878V108C313.171 105.637 313.635 103.297 314.54 101.113C315.444 98.9288 316.77 96.9444 318.442 95.2728C320.113 93.6011 322.098 92.2751 324.283 91.3704C326.468 90.4657 328.81 90 331.175 90ZM437.987 116.439V108C437.989 105.152 436.861 102.419 434.85 100.401C432.839 98.383 430.11 97.2442 427.26 97.2346H331.175C328.322 97.2418 325.589 98.3792 323.575 100.397C321.56 102.416 320.429 105.15 320.429 108V124.896C320.462 127.361 321.316 129.744 322.857 131.669L353.037 169.363C356.811 161.627 362.687 155.109 369.993 150.553C377.299 145.998 385.741 143.589 394.352 143.603C394.724 143.603 395.059 143.603 395.476 143.603C395.636 143.592 395.796 143.592 395.956 143.603H427.26C428.299 143.596 429.332 143.447 430.331 143.159C431.895 142.617 433.336 141.771 434.571 140.669C435.648 139.676 436.508 138.47 437.095 137.129C437.683 135.787 437.987 134.338 437.987 132.873V117.327C437.961 117.198 437.945 117.068 437.942 116.937C437.939 116.77 437.955 116.603 437.987 116.439Z" fill="white" fill-opacity="0.45"/>
<path d="M401.164 158.01C409.333 157.996 417.176 161.055 422.984 166.519C428.792 171.983 432.095 179.409 432.172 187.179V187.735C432.137 193.663 430.222 199.442 426.677 204.317C423.131 209.191 418.12 212.934 412.301 215.054C406.482 217.174 400.126 217.572 394.064 216.198C388.003 214.823 382.519 211.739 378.332 207.35C378.185 207.231 378.112 207.132 378.133 207.132L377.956 206.923L377.862 206.814L377.747 206.695L375.982 204.559C375.838 204.441 375.712 204.304 375.607 204.152C372.414 199.725 370.553 194.552 370.224 189.192C369.896 183.832 371.113 178.489 373.743 173.738C376.374 168.988 380.318 165.012 385.151 162.238C389.983 159.464 395.52 157.999 401.164 158V158.01ZM384.46 201.997C387.524 205.192 391.528 207.437 395.951 208.438C400.374 209.44 405.012 209.152 409.261 207.613C413.51 206.073 417.173 203.353 419.776 199.806C422.378 196.26 423.798 192.05 423.851 187.725V187.259C423.699 181.615 421.229 176.253 416.97 172.321C412.711 168.39 407.002 166.203 401.067 166.229C395.133 166.255 389.445 168.492 385.224 172.46C381.003 176.429 378.585 181.812 378.488 187.457C378.487 191.767 379.856 195.977 382.414 199.534L384.293 201.778L384.439 201.987L384.46 201.997Z" fill="white" fill-opacity="0.45"/>
<path d="M401.164 158.01C409.333 157.996 417.176 161.055 422.984 166.519C428.792 171.983 432.095 179.409 432.172 187.179V187.735C432.137 193.663 430.222 199.442 426.677 204.317C423.131 209.191 418.12 212.934 412.301 215.054C406.482 217.174 400.126 217.572 394.064 216.198C388.003 214.823 382.519 211.739 378.332 207.35C378.185 207.231 378.112 207.132 378.133 207.132L377.956 206.923L377.862 206.814L377.747 206.695L375.982 204.559C375.838 204.441 375.712 204.304 375.607 204.152C372.414 199.725 370.553 194.552 370.224 189.192C369.896 183.832 371.113 178.489 373.743 173.738C376.374 168.988 380.318 165.012 385.151 162.238C389.983 159.464 395.52 157.999 401.164 158V158.01ZM384.46 201.997C387.524 205.192 391.528 207.437 395.951 208.438C400.374 209.44 405.012 209.152 409.261 207.613C413.51 206.073 417.173 203.353 419.776 199.806C422.378 196.26 423.798 192.05 423.851 187.725V187.259C423.699 181.615 421.229 176.253 416.97 172.321C412.711 168.39 407.002 166.203 401.067 166.229C395.133 166.255 389.445 168.492 385.224 172.46C381.003 176.429 378.585 181.812 378.488 187.457C378.487 191.767 379.856 195.977 382.414 199.534L384.293 201.778L384.439 201.987L384.46 201.997Z" fill="white" fill-opacity="0.45"/>
<path d="M462.311 204H559.078C563.883 203.988 568.486 202.065 571.878 198.652C575.271 195.24 577.174 190.618 577.172 185.8V160.65C577.169 158.17 576.657 155.716 575.669 153.442C574.682 151.168 573.239 149.122 571.43 147.43L571.311 147.32C569.43 145.634 567.241 144.329 564.866 143.475L564.565 143.347C562.794 142.781 560.946 142.494 559.087 142.496H525.931C517.7 142.498 509.679 139.89 503.015 135.044C496.351 130.198 491.386 123.362 488.831 115.515C488.63 114.876 488.259 114.304 487.757 113.861C487.254 113.419 486.641 113.123 485.983 113.007C485.885 112.998 485.788 112.998 485.69 113.007H485.334C484.786 113.009 484.245 113.13 483.749 113.362C483.252 113.595 482.812 113.933 482.459 114.353L448.189 157.29C445.587 160.533 444.169 164.572 444.172 168.734V185.8C444.171 188.189 444.639 190.556 445.55 192.764C446.461 194.972 447.797 196.978 449.482 198.669C451.166 200.359 453.166 201.7 455.367 202.614C457.569 203.529 459.928 204 462.311 204ZM569.933 177.267V185.8C569.935 188.679 568.798 191.443 566.772 193.483C564.746 195.524 561.995 196.675 559.124 196.685H462.311C459.437 196.678 456.683 195.528 454.654 193.487C452.624 191.446 451.484 188.682 451.484 185.8V168.716C451.517 166.224 452.378 163.814 453.931 161.868L484.339 123.755C488.141 131.577 494.062 138.168 501.423 142.774C508.785 147.38 517.291 149.815 525.967 149.801C526.342 149.801 526.68 149.801 527.099 149.801C527.261 149.813 527.422 149.813 527.583 149.801H559.124C560.171 149.809 561.212 149.959 562.219 150.25C563.795 150.798 565.247 151.654 566.491 152.768C567.576 153.772 568.442 154.991 569.034 156.348C569.627 157.704 569.932 159.169 569.933 160.65V176.37C569.906 176.499 569.891 176.631 569.887 176.763C569.885 176.932 569.9 177.101 569.933 177.267Z" fill="white" fill-opacity="0.45"/>
<path d="M462.311 204H559.078C563.883 203.988 568.486 202.065 571.878 198.652C575.271 195.24 577.174 190.618 577.172 185.8V160.65C577.169 158.17 576.657 155.716 575.669 153.442C574.682 151.168 573.239 149.122 571.43 147.43L571.311 147.32C569.43 145.634 567.241 144.329 564.866 143.475L564.565 143.347C562.794 142.781 560.946 142.494 559.087 142.496H525.931C517.7 142.498 509.679 139.89 503.015 135.044C496.351 130.198 491.386 123.362 488.831 115.515C488.63 114.876 488.259 114.304 487.757 113.861C487.254 113.419 486.641 113.123 485.983 113.007C485.885 112.998 485.788 112.998 485.69 113.007H485.334C484.786 113.009 484.245 113.13 483.749 113.362C483.252 113.595 482.812 113.933 482.459 114.353L448.189 157.29C445.587 160.533 444.169 164.572 444.172 168.734V185.8C444.171 188.189 444.639 190.556 445.55 192.764C446.461 194.972 447.797 196.978 449.482 198.669C451.166 200.359 453.166 201.7 455.367 202.614C457.569 203.529 459.928 204 462.311 204ZM569.933 177.267V185.8C569.935 188.679 568.798 191.443 566.772 193.483C564.746 195.524 561.995 196.675 559.124 196.685H462.311C459.437 196.678 456.683 195.528 454.654 193.487C452.624 191.446 451.484 188.682 451.484 185.8V168.716C451.517 166.224 452.378 163.814 453.931 161.868L484.339 123.755C488.141 131.577 494.062 138.168 501.423 142.774C508.785 147.38 517.291 149.815 525.967 149.801C526.342 149.801 526.68 149.801 527.099 149.801C527.261 149.813 527.422 149.813 527.583 149.801H559.124C560.171 149.809 561.212 149.959 562.219 150.25C563.795 150.798 565.247 151.654 566.491 152.768C567.576 153.772 568.442 154.991 569.034 156.348C569.627 157.704 569.932 159.169 569.933 160.65V176.37C569.906 176.499 569.891 176.631 569.887 176.763C569.885 176.932 569.9 177.101 569.933 177.267Z" fill="white" fill-opacity="0.45"/>
<path d="M531.664 135.99C539.701 136.004 547.418 132.893 553.132 127.337C558.847 121.78 562.096 114.228 562.172 106.326V105.761C562.138 99.7328 560.254 93.8553 556.765 88.8982C553.277 83.941 548.347 80.1353 542.622 77.9794C536.897 75.8235 530.643 75.4179 524.679 76.8157C518.716 78.2136 513.32 81.3498 509.2 85.8135C509.056 85.9347 508.984 86.0357 509.005 86.0357L508.83 86.2477L508.738 86.3589L508.625 86.4801L506.889 88.6515C506.747 88.7723 506.622 88.9116 506.519 89.0656C503.378 93.568 501.547 98.8285 501.224 104.279C500.9 109.73 502.098 115.164 504.686 119.995C507.274 124.826 511.155 128.869 515.909 131.69C520.664 134.511 526.112 136.001 531.664 136V135.99ZM515.23 91.2573C518.244 88.0078 522.184 85.7254 526.535 84.707C530.887 83.6885 535.45 83.981 539.63 85.5465C543.811 87.112 547.415 89.8781 549.975 93.485C552.536 97.0919 553.933 101.373 553.985 105.771V106.246C553.836 111.985 551.406 117.438 547.215 121.436C543.025 125.434 537.408 127.658 531.569 127.632C525.73 127.605 520.134 125.33 515.982 121.295C511.829 117.259 509.449 111.784 509.354 106.044C509.353 101.661 510.699 97.3797 513.216 93.7621L515.065 91.4795L515.209 91.2674L515.23 91.2573Z" fill="white" fill-opacity="0.45"/>
<path d="M531.664 135.99C539.701 136.004 547.418 132.893 553.132 127.337C558.847 121.78 562.096 114.228 562.172 106.326V105.761C562.138 99.7328 560.254 93.8553 556.765 88.8982C553.277 83.941 548.347 80.1353 542.622 77.9794C536.897 75.8235 530.643 75.4179 524.679 76.8157C518.716 78.2136 513.32 81.3498 509.2 85.8135C509.056 85.9347 508.984 86.0357 509.005 86.0357L508.83 86.2477L508.738 86.3589L508.625 86.4801L506.889 88.6515C506.747 88.7723 506.622 88.9116 506.519 89.0656C503.378 93.568 501.547 98.8285 501.224 104.279C500.9 109.73 502.098 115.164 504.686 119.995C507.274 124.826 511.155 128.869 515.909 131.69C520.664 134.511 526.112 136.001 531.664 136V135.99ZM515.23 91.2573C518.244 88.0078 522.184 85.7254 526.535 84.707C530.887 83.6885 535.45 83.981 539.63 85.5465C543.811 87.112 547.415 89.8781 549.975 93.485C552.536 97.0919 553.933 101.373 553.985 105.771V106.246C553.836 111.985 551.406 117.438 547.215 121.436C543.025 125.434 537.408 127.658 531.569 127.632C525.73 127.605 520.134 125.33 515.982 121.295C511.829 117.259 509.449 111.784 509.354 106.044C509.353 101.661 510.699 97.3797 513.216 93.7621L515.065 91.4795L515.209 91.2674L515.23 91.2573Z" fill="white" fill-opacity="0.45"/>
<path d="M91.7294 174.098L92.0758 269.562C92.0811 274.302 90.1959 278.85 86.834 282.208C83.4721 285.567 78.9081 287.461 74.1437 287.476L49.2757 287.564C46.823 287.57 44.3952 287.074 42.143 286.107C39.8908 285.141 37.8622 283.724 36.1829 281.946L36.0739 281.829C34.4 279.979 33.1011 277.825 32.2486 275.484L32.1208 275.188C31.5548 273.442 31.2642 271.621 31.2593 269.787L31.1406 237.077C31.1134 228.956 28.5055 221.052 23.6899 214.496C18.8742 207.939 12.0975 203.065 4.32919 200.571C3.69611 200.376 3.1291 200.011 2.68992 199.517C2.25073 199.023 1.95624 198.419 1.83854 197.77C1.82924 197.674 1.82889 197.578 1.83749 197.482L1.83622 197.131C1.83609 196.59 1.95411 196.056 2.18212 195.565C2.41013 195.075 2.74267 194.639 3.15668 194.289L45.4915 160.329C48.6891 157.751 52.6771 156.339 56.7931 156.326L73.6675 156.267C76.0305 156.257 78.3722 156.711 80.5589 157.602C82.7456 158.493 84.7344 159.804 86.4117 161.459C88.089 163.115 89.422 165.084 90.3344 167.252C91.2468 169.421 91.7208 171.747 91.7294 174.098ZM65.6806 280.364L74.1178 280.334C76.9654 280.326 79.6937 279.195 81.7043 277.189C83.7148 275.183 84.8435 272.466 84.8428 269.633L84.4962 174.123C84.4787 171.288 83.3316 168.575 81.3066 166.58C79.2815 164.585 76.5437 163.47 73.6937 163.48L56.8012 163.54C54.337 163.582 51.9571 164.439 50.0385 165.978L12.4606 196.111C20.2086 199.835 26.747 205.652 31.3279 212.898C35.9089 220.145 38.3475 228.527 38.3648 237.087C38.3662 237.457 38.3674 237.79 38.3689 238.204C38.3809 238.363 38.3815 238.522 38.3706 238.681L38.4836 269.797C38.4943 270.83 38.6473 271.857 38.9382 272.849C39.4857 274.402 40.337 275.831 41.443 277.055C42.4402 278.122 43.6487 278.972 44.9922 279.551C46.3358 280.131 47.7854 280.427 49.2498 280.422L64.7934 280.367C64.9215 280.34 65.0517 280.325 65.1825 280.321C65.3496 280.318 65.5165 280.332 65.6806 280.364Z" fill="white" fill-opacity="0.45"/>
<path d="M91.7294 174.098L92.0758 269.562C92.0811 274.302 90.1959 278.85 86.834 282.208C83.4721 285.567 78.9081 287.461 74.1437 287.476L49.2757 287.564C46.823 287.57 44.3952 287.074 42.143 286.107C39.8908 285.141 37.8622 283.724 36.1829 281.946L36.0739 281.829C34.4 279.979 33.1011 277.825 32.2486 275.484L32.1208 275.188C31.5548 273.442 31.2642 271.621 31.2593 269.787L31.1406 237.077C31.1134 228.956 28.5055 221.052 23.6899 214.496C18.8742 207.939 12.0975 203.065 4.32919 200.571C3.69611 200.376 3.1291 200.011 2.68992 199.517C2.25073 199.023 1.95624 198.419 1.83854 197.77C1.82924 197.674 1.82889 197.578 1.83749 197.482L1.83622 197.131C1.83609 196.59 1.95411 196.056 2.18212 195.565C2.41013 195.075 2.74267 194.639 3.15668 194.289L45.4915 160.329C48.6891 157.751 52.6771 156.339 56.7931 156.326L73.6675 156.267C76.0305 156.257 78.3722 156.711 80.5589 157.602C82.7456 158.493 84.7344 159.804 86.4117 161.459C88.089 163.115 89.422 165.084 90.3344 167.252C91.2468 169.421 91.7208 171.747 91.7294 174.098ZM65.6806 280.364L74.1178 280.334C76.9654 280.326 79.6937 279.195 81.7043 277.189C83.7148 275.183 84.8435 272.466 84.8428 269.633L84.4962 174.123C84.4787 171.288 83.3316 168.575 81.3066 166.58C79.2815 164.585 76.5437 163.47 73.6937 163.48L56.8012 163.54C54.337 163.582 51.9571 164.439 50.0385 165.978L12.4606 196.111C20.2086 199.835 26.747 205.652 31.3279 212.898C35.9089 220.145 38.3475 228.527 38.3648 237.087C38.3662 237.457 38.3674 237.79 38.3689 238.204C38.3809 238.363 38.3815 238.522 38.3706 238.681L38.4836 269.797C38.4943 270.83 38.6473 271.857 38.9382 272.849C39.4857 274.402 40.337 275.831 41.443 277.055C42.4402 278.122 43.6487 278.972 44.9922 279.551C46.3358 280.131 47.7854 280.427 49.2498 280.422L64.7934 280.367C64.9215 280.34 65.0517 280.325 65.1825 280.321C65.3496 280.318 65.5165 280.332 65.6806 280.364Z" fill="white" fill-opacity="0.45"/>
<path d="M24.0883 243.128C24.1311 251.154 21.0494 258.872 15.5148 264.598C9.98013 270.325 2.44129 273.597 -5.45877 273.7L-6.02426 273.702C-12.0512 273.69 -17.9344 271.829 -22.9032 268.363C-27.872 264.897 -31.6948 259.987 -33.8711 254.277C-36.0473 248.567 -36.4755 242.323 -35.0995 236.363C-33.7236 230.402 -30.6076 225.003 -26.1597 220.872C-26.039 220.728 -25.9383 220.656 -25.9382 220.676L-25.7268 220.501L-25.6161 220.408L-25.4953 220.295L-23.3305 218.554C-23.2103 218.412 -23.0715 218.287 -22.9179 218.183C-18.4278 215.03 -13.1749 213.183 -7.72642 212.841C-2.2779 212.499 3.1594 213.675 7.99855 216.242C12.8377 218.81 16.8949 222.671 19.7323 227.409C22.5696 232.147 24.0793 237.583 24.0984 243.128L24.0883 243.128ZM-20.6951 226.874C-23.933 229.897 -26.2006 233.839 -27.2031 238.188C-28.2057 242.538 -27.8967 247.093 -26.3163 251.263C-24.7359 255.432 -21.9574 259.022 -18.3419 261.566C-14.7264 264.11 -10.4413 265.49 -6.04385 265.527L-5.56925 265.525C0.168319 265.356 5.61172 262.909 9.59365 258.71C13.5756 254.511 15.779 248.894 15.7314 243.063C15.6838 237.232 13.389 231.652 9.33909 227.519C5.28916 223.386 -0.193395 221.029 -5.93296 220.954C-10.3151 220.969 -14.5903 222.328 -18.1981 224.855L-20.4735 226.709L-20.685 226.854L-20.6951 226.874Z" fill="white" fill-opacity="0.45"/>
<path d="M24.0883 243.128C24.1311 251.154 21.0494 258.872 15.5148 264.598C9.98013 270.325 2.44129 273.597 -5.45877 273.7L-6.02426 273.702C-12.0512 273.69 -17.9344 271.829 -22.9032 268.363C-27.872 264.897 -31.6948 259.987 -33.8711 254.277C-36.0473 248.567 -36.4755 242.323 -35.0995 236.363C-33.7236 230.402 -30.6076 225.003 -26.1597 220.872C-26.039 220.728 -25.9383 220.656 -25.9382 220.676L-25.7268 220.501L-25.6161 220.408L-25.4953 220.295L-23.3305 218.554C-23.2103 218.412 -23.0715 218.287 -22.9179 218.183C-18.4278 215.03 -13.1749 213.183 -7.72642 212.841C-2.2779 212.499 3.1594 213.675 7.99855 216.242C12.8377 218.81 16.8949 222.671 19.7323 227.409C22.5696 232.147 24.0793 237.583 24.0984 243.128L24.0883 243.128ZM-20.6951 226.874C-23.933 229.897 -26.2006 233.839 -27.2031 238.188C-28.2057 242.538 -27.8967 247.093 -26.3163 251.263C-24.7359 255.432 -21.9574 259.022 -18.3419 261.566C-14.7264 264.11 -10.4413 265.49 -6.04385 265.527L-5.56925 265.525C0.168319 265.356 5.61172 262.909 9.59365 258.71C13.5756 254.511 15.779 248.894 15.7314 243.063C15.6838 237.232 13.389 231.652 9.33909 227.519C5.28916 223.386 -0.193395 221.029 -5.93296 220.954C-10.3151 220.969 -14.5903 222.328 -18.1981 224.855L-20.4735 226.709L-20.685 226.854L-20.6951 226.874Z" fill="white" fill-opacity="0.45"/>
<path d="M467.448 239.703L467.795 335.167C467.8 339.907 465.915 344.455 462.553 347.813C459.191 351.172 454.627 353.066 449.862 353.081L424.994 353.169C422.542 353.175 420.114 352.679 417.862 351.712C415.61 350.746 413.581 349.329 411.902 347.551L411.793 347.434C410.119 345.584 408.82 343.43 407.967 341.089L407.84 340.793C407.274 339.047 406.983 337.226 406.978 335.392L406.859 302.682C406.832 294.561 404.224 286.657 399.409 280.101C394.593 273.544 387.816 268.67 380.048 266.176C379.415 265.981 378.848 265.616 378.409 265.122C377.969 264.628 377.675 264.024 377.557 263.375C377.548 263.279 377.548 263.183 377.556 263.087L377.555 262.736C377.555 262.195 377.673 261.661 377.901 261.17C378.129 260.68 378.461 260.244 378.875 259.894L421.21 225.934C424.408 223.356 428.396 221.943 432.512 221.931L449.386 221.871C451.749 221.862 454.091 222.316 456.278 223.207C458.464 224.098 460.453 225.409 462.13 227.064C463.808 228.72 465.141 230.689 466.053 232.857C466.966 235.026 467.44 237.352 467.448 239.703ZM441.399 345.969L449.837 345.939C452.684 345.931 455.412 344.8 457.423 342.794C459.434 340.788 460.562 338.07 460.562 335.238L460.215 239.728C460.197 236.893 459.05 234.18 457.025 232.185C455 230.19 452.262 229.075 449.412 229.085L432.52 229.145C430.056 229.186 427.676 230.044 425.757 231.583L388.179 261.716C395.927 265.44 402.466 271.257 407.047 278.503C411.628 285.75 414.066 294.132 414.084 302.692C414.085 303.062 414.086 303.395 414.088 303.809C414.1 303.968 414.1 304.127 414.089 304.286L414.202 335.402C414.213 336.435 414.366 337.462 414.657 338.454C415.204 340.007 416.056 341.436 417.162 342.66C418.159 343.727 419.367 344.577 420.711 345.156C422.055 345.736 423.504 346.032 424.969 346.027L440.512 345.972C440.64 345.945 440.77 345.93 440.901 345.926C441.068 345.923 441.235 345.937 441.399 345.969Z" fill="#4EBA66" fill-opacity="0.3"/>
<path d="M399.807 308.733C399.85 316.759 396.768 324.477 391.234 330.203C385.699 335.93 378.16 339.202 370.26 339.305L369.694 339.307C363.668 339.295 357.784 337.434 352.816 333.968C347.847 330.502 344.024 325.592 341.848 319.882C339.671 314.172 339.243 307.928 340.619 301.967C341.995 296.007 345.111 290.608 349.559 286.477C349.68 286.333 349.78 286.261 349.781 286.281L349.992 286.106L350.103 286.013L350.223 285.9L352.388 284.159C352.508 284.017 352.647 283.892 352.801 283.788C357.291 280.635 362.544 278.788 367.992 278.446C373.441 278.104 378.878 279.28 383.717 281.847C388.556 284.415 392.614 288.276 395.451 293.014C398.288 297.752 399.798 303.188 399.817 308.733L399.807 308.733ZM355.024 292.479C351.786 295.501 349.518 299.444 348.516 303.793C347.513 308.143 347.822 312.698 349.402 316.868C350.983 321.037 353.761 324.627 357.377 327.171C360.992 329.715 365.277 331.095 369.675 331.132L370.15 331.13C375.887 330.961 381.33 328.514 385.312 324.315C389.294 320.116 391.498 314.499 391.45 308.668C391.403 302.837 389.108 297.257 385.058 293.124C381.008 288.991 375.525 286.634 369.786 286.559C365.404 286.574 361.128 287.933 357.521 290.46L355.245 292.314L355.034 292.459L355.024 292.479Z" fill="white" fill-opacity="0.45"/>
<path d="M-16.6454 415.105L-16.9919 319.641C-16.9971 314.901 -15.1119 310.353 -11.75 306.994C-8.38809 303.636 -3.82415 301.741 0.94028 301.727L25.8083 301.638C28.261 301.633 30.6888 302.129 32.941 303.095C35.1932 304.062 37.2218 305.478 38.9011 307.257L39.0101 307.374C40.684 309.224 41.9828 311.378 42.8353 313.718L42.9632 314.015C43.5292 315.76 43.8198 317.582 43.8247 319.416L43.9434 352.126C43.9705 360.246 46.5785 368.15 51.3941 374.707C56.2098 381.264 62.9865 386.138 70.7548 388.632C71.3879 388.827 71.9549 389.191 72.3941 389.685C72.8332 390.179 73.1277 390.784 73.2454 391.433C73.2547 391.528 73.2551 391.625 73.2465 391.721L73.2478 392.072C73.2479 392.613 73.1299 393.147 72.9019 393.637C72.6739 394.128 72.3413 394.564 71.9273 394.914L29.5925 428.873C26.3949 431.452 22.4069 432.864 18.2909 432.876L1.41649 432.936C-0.946468 432.946 -3.28818 432.492 -5.47488 431.601C-7.66157 430.71 -9.6504 429.399 -11.3277 427.743C-13.005 426.087 -14.338 424.119 -15.2504 421.95C-16.1628 419.782 -16.6368 417.456 -16.6454 415.105ZM9.4034 308.839L0.9662 308.869C-1.88144 308.876 -4.60972 310.007 -6.62028 312.013C-8.63084 314.02 -9.75955 316.737 -9.75886 319.57L-9.41221 415.079C-9.39473 417.915 -8.24767 420.627 -6.22258 422.623C-4.1975 424.618 -1.45972 425.732 1.39031 425.722L18.2828 425.662C20.747 425.621 23.1269 424.763 25.0455 423.225L62.6234 393.091C54.8754 389.368 48.337 383.551 43.7561 376.304C39.1751 369.058 36.7365 360.675 36.7191 352.115C36.7178 351.746 36.7166 351.413 36.7151 350.999C36.7031 350.84 36.7025 350.68 36.7134 350.521L36.6004 319.405C36.5897 318.372 36.4367 317.346 36.1458 316.354C35.5983 314.801 34.747 313.372 33.641 312.148C32.6437 311.081 31.4353 310.231 30.0917 309.651C28.7482 309.072 27.2986 308.775 25.8342 308.78L10.2906 308.835C10.1625 308.862 10.0323 308.878 9.90147 308.882C9.73438 308.885 9.56744 308.87 9.4034 308.839Z" fill="white" fill-opacity="0.45"/>
<path d="M-16.6454 415.105L-16.9919 319.641C-16.9971 314.901 -15.1119 310.353 -11.75 306.994C-8.38809 303.636 -3.82415 301.741 0.94028 301.727L25.8083 301.638C28.261 301.633 30.6888 302.129 32.941 303.095C35.1932 304.062 37.2218 305.478 38.9011 307.257L39.0101 307.374C40.684 309.224 41.9828 311.378 42.8353 313.718L42.9632 314.015C43.5292 315.76 43.8198 317.582 43.8247 319.416L43.9434 352.126C43.9705 360.246 46.5785 368.15 51.3941 374.707C56.2098 381.264 62.9865 386.138 70.7548 388.632C71.3879 388.827 71.9549 389.191 72.3941 389.685C72.8332 390.179 73.1277 390.784 73.2454 391.433C73.2547 391.528 73.2551 391.625 73.2465 391.721L73.2478 392.072C73.2479 392.613 73.1299 393.147 72.9019 393.637C72.6739 394.128 72.3413 394.564 71.9273 394.914L29.5925 428.873C26.3949 431.452 22.4069 432.864 18.2909 432.876L1.41649 432.936C-0.946468 432.946 -3.28818 432.492 -5.47488 431.601C-7.66157 430.71 -9.6504 429.399 -11.3277 427.743C-13.005 426.087 -14.338 424.119 -15.2504 421.95C-16.1628 419.782 -16.6368 417.456 -16.6454 415.105ZM9.4034 308.839L0.9662 308.869C-1.88144 308.876 -4.60972 310.007 -6.62028 312.013C-8.63084 314.02 -9.75955 316.737 -9.75886 319.57L-9.41221 415.079C-9.39473 417.915 -8.24767 420.627 -6.22258 422.623C-4.1975 424.618 -1.45972 425.732 1.39031 425.722L18.2828 425.662C20.747 425.621 23.1269 424.763 25.0455 423.225L62.6234 393.091C54.8754 389.368 48.337 383.551 43.7561 376.304C39.1751 369.058 36.7365 360.675 36.7191 352.115C36.7178 351.746 36.7166 351.413 36.7151 350.999C36.7031 350.84 36.7025 350.68 36.7134 350.521L36.6004 319.405C36.5897 318.372 36.4367 317.346 36.1458 316.354C35.5983 314.801 34.747 313.372 33.641 312.148C32.6437 311.081 31.4353 310.231 30.0917 309.651C28.7482 309.072 27.2986 308.775 25.8342 308.78L10.2906 308.835C10.1625 308.862 10.0323 308.878 9.90147 308.882C9.73438 308.885 9.56744 308.87 9.4034 308.839Z" fill="white" fill-opacity="0.45"/>
<path d="M50.9976 346.074C50.9548 338.048 54.0366 330.331 59.5712 324.604C65.1058 318.878 72.6446 315.606 80.5447 315.502L81.1102 315.5C87.1372 315.513 93.0203 317.374 97.9891 320.84C102.958 324.306 106.781 329.215 108.957 334.925C111.133 340.635 111.561 346.88 110.185 352.84C108.809 358.801 105.694 364.2 101.246 368.331C101.125 368.475 101.024 368.547 101.024 368.526L100.813 368.701L100.702 368.794L100.581 368.907L98.4165 370.649C98.2963 370.791 98.1574 370.916 98.0038 371.02C93.5137 374.173 88.2609 376.02 82.8124 376.362C77.3638 376.704 71.9265 375.528 67.0874 372.96C62.2482 370.393 58.191 366.532 55.3537 361.793C52.5163 357.055 51.0066 351.62 50.9875 346.074L50.9976 346.074ZM95.781 362.328C99.0189 359.306 101.287 355.364 102.289 351.014C103.292 346.665 102.983 342.109 101.402 337.94C99.8219 333.771 97.0433 330.181 93.4278 327.637C89.8124 325.093 85.5273 323.713 81.1298 323.676L80.6552 323.678C74.9176 323.847 69.4742 326.294 65.4923 330.493C61.5104 334.692 59.307 340.309 59.3545 346.14C59.4021 351.971 61.6969 357.551 65.7469 361.684C69.7968 365.817 75.2793 368.174 81.0189 368.249C85.401 368.234 89.6763 366.874 93.284 364.348L95.5594 362.493L95.771 362.349L95.781 362.328Z" fill="white" fill-opacity="0.45"/>
<path d="M50.9976 346.074C50.9548 338.048 54.0366 330.331 59.5712 324.604C65.1058 318.878 72.6446 315.606 80.5447 315.502L81.1102 315.5C87.1372 315.513 93.0203 317.374 97.9891 320.84C102.958 324.306 106.781 329.215 108.957 334.925C111.133 340.635 111.561 346.88 110.185 352.84C108.809 358.801 105.694 364.2 101.246 368.331C101.125 368.475 101.024 368.547 101.024 368.526L100.813 368.701L100.702 368.794L100.581 368.907L98.4165 370.649C98.2963 370.791 98.1574 370.916 98.0038 371.02C93.5137 374.173 88.2609 376.02 82.8124 376.362C77.3638 376.704 71.9265 375.528 67.0874 372.96C62.2482 370.393 58.191 366.532 55.3537 361.793C52.5163 357.055 51.0066 351.62 50.9875 346.074L50.9976 346.074ZM95.781 362.328C99.0189 359.306 101.287 355.364 102.289 351.014C103.292 346.665 102.983 342.109 101.402 337.94C99.8219 333.771 97.0433 330.181 93.4278 327.637C89.8124 325.093 85.5273 323.713 81.1298 323.676L80.6552 323.678C74.9176 323.847 69.4742 326.294 65.4923 330.493C61.5104 334.692 59.307 340.309 59.3545 346.14C59.4021 351.971 61.6969 357.551 65.7469 361.684C69.7968 365.817 75.2793 368.174 81.0189 368.249C85.401 368.234 89.6763 366.874 93.284 364.348L95.5594 362.493L95.771 362.349L95.781 362.328Z" fill="white" fill-opacity="0.45"/>
</svg>
