<svg width="42" height="42" fill="none" xmlns="http://www.w3.org/2000/svg"><path d="M21 42c11.598 0 21-9.402 21-21S32.598 0 21 0 0 9.402 0 21s9.402 21 21 21z" fill="url(#paint0_linear)"/><path d="M30.738 10.904c-2.51.318-5.125.306-7.758.056-3.677-.283-9.05-1.98-11.03 1.414-3.181 5.433-1.612 12.39-.871 18.545L22.13 41.97c10.696-.567 19.268-9.138 19.838-19.834l-11.23-11.232z" fill="#000" fill-opacity=".08"/><path d="M25.859 8.98h-9.717a7.17 7.17 0 0 0-7.162 7.162v9.717c0 3.948 3.213 7.161 7.162 7.161h9.717c3.948 0 7.161-3.212 7.161-7.161v-9.717c0-3.95-3.212-7.162-7.161-7.162zm4.743 16.879a4.743 4.743 0 0 1-4.743 4.743h-9.717a4.743 4.743 0 0 1-4.743-4.743v-9.717a4.743 4.743 0 0 1 4.743-4.744h9.717a4.743 4.743 0 0 1 4.743 4.744v9.717z" fill="#fff"/><path d="M21 14.783A6.225 6.225 0 0 0 14.782 21 6.225 6.225 0 0 0 21 27.218 6.225 6.225 0 0 0 27.218 21 6.225 6.225 0 0 0 21 14.784zM21 24.8a3.8 3.8 0 1 1 0-7.599 3.8 3.8 0 0 1 0 7.599z" fill="#fff"/><path d="M28.72 14.83a1.49 1.49 0 1 1-2.98 0 1.49 1.49 0 0 1 2.98 0z" fill="#D1D1D1"/><path d="M25.859 8.98h-4.906v2.418h4.906a4.743 4.743 0 0 1 4.743 4.744v9.717a4.743 4.743 0 0 1-4.743 4.743h-4.906v2.418h4.906a7.169 7.169 0 0 0 7.161-7.161v-9.717c0-3.95-3.212-7.162-7.161-7.162z" fill="#D1D1D1"/><path d="M21 14.783h-.047v2.42L21 17.2a3.8 3.8 0 1 1 0 7.599l-.047-.002v2.419l.047.001A6.225 6.225 0 0 0 27.218 21 6.225 6.225 0 0 0 21 14.784z" fill="#D1D1D1"/><defs><linearGradient id="paint0_linear" x1="21" y1="0" x2="21" y2="42" gradientUnits="userSpaceOnUse"><stop stop-color="#7B22BA"/><stop offset=".304" stop-color="#AC1C8A"/><stop offset=".52" stop-color="#C63A5B"/><stop offset=".742" stop-color="#CA534B"/><stop offset=".895" stop-color="#DB8A40"/><stop offset="1" stop-color="#DE933E"/></linearGradient></defs></svg>