<svg width="315" height="120" viewBox="0 0 315 120" fill="none" xmlns="http://www.w3.org/2000/svg">
<path d="M20.625 55.4221L39.1935 44.779V23.4453L20.625 34.0845V55.4221Z" fill="#E09EF8"/>
<path d="M39.1914 87.2962L57.7598 76.653V55.3193L39.1914 65.9585V87.2962Z" fill="#0F0BC3"/>
<path d="M57.7617 76.6448L76.3303 66.0016V44.668L57.7617 55.3072V76.6448Z" fill="#0F0BC3"/>
<path d="M57.7617 55.3197L76.3303 44.6765V23.3428L57.7617 33.9821V55.3197Z" fill="#0F0BC3"/>
<path d="M20.625 97.9563L39.1935 87.3131V65.9795L20.625 76.6187V97.9563Z" fill="#0F0BC3"/>
<path d="M20.625 118.076L39.1935 107.433V86.0996L20.625 96.7389V118.076Z" fill="#0F0BC3"/>
<path d="M2.05469 86.1006L20.6232 96.7438V118.077L2.05469 107.438V86.1006Z" fill="#8F0FBA"/>
<path d="M2.05469 65.4277L20.6232 76.0709V97.4047L2.05469 86.7655V65.4277Z" fill="#8F0FBA"/>
<path d="M2.05469 44.668L20.6232 55.3111V76.6448L2.05469 66.0056V44.668Z" fill="#8F0FBA"/>
<path d="M20.625 55.3193L39.1935 65.9625V87.2962L20.625 76.657V55.3193Z" fill="#8F0FBA"/>
<path d="M2.05469 23.4434L20.6232 34.0865V55.4203L2.05469 44.781V23.4434Z" fill="#8F0FBA"/>
<path d="M57.7044 55.3636L39.2111 65.9866L20.707 55.3695L39.1761 44.5586L57.7044 55.3636Z" fill="#E09EF8"/>
<path d="M39.2534 23.4751L20.6116 34.0901L2.05469 23.4436L20.5766 12.6621L39.2534 23.4751Z" fill="#C460E6"/>
<path d="M57.5845 12.932L39.0374 23.4281L20.4805 12.7815L39.0024 2L57.5845 12.932Z" fill="#C460E6"/>
<path d="M76.328 23.3466L57.7484 34.0959L38.8984 23.3844L57.4566 12.8643L76.328 23.3466Z" fill="#C460E6"/>
<path d="M39.1914 23.4434L57.7598 34.0865V55.4203L39.1914 44.781V23.4434Z" fill="#E09EF8"/>
<path d="M76.2045 23.4439L38.9996 2.00781L2.05859 23.4439L2.10658 107.593L20.8177 117.944L39.1307 107.593V87.1302L76.2045 65.9412V23.4439Z" stroke="#15001D" stroke-width="3.41145"/>
<path d="M20.5859 34.082V117.898" stroke="#15001D" stroke-width="3.41145"/>
<path d="M2.01953 23.5603L20.5062 34.2479L39.0508 23.5603M39.0508 23.5603L57.5952 34.2479L76.0241 23.5603M39.0508 23.5603L57.5952 12.7227M39.0508 23.5603L20.5062 13.1209" stroke="#15001D" stroke-width="3.41145"/>
<path d="M57.5977 34.1875V76.4351" stroke="#15001D" stroke-width="3.41145"/>
<path d="M76.2637 44.7764L39.1595 65.9788L2 44.9367" stroke="#15001D" stroke-width="3.41145"/>
<path d="M39.1289 65.8184V87.2965" stroke="#15001D" stroke-width="3.41145"/>
<path d="M39.127 87.0946L20.7891 76.8408" stroke="#15001D" stroke-width="3.41145"/>
<path d="M2.13672 87.0945L20.5661 97.6446L39.2967 86.8066" stroke="#15001D" stroke-width="3.41145"/>
<path d="M2.13672 45.0652L20.5661 55.6154L40.0254 44.5645" stroke="#15001D" stroke-width="3.41145"/>
<path d="M38.3438 44.5566L57.234 55.3" stroke="#15001D" stroke-width="3.41145"/>
<path d="M2.13672 66.2666L20.5661 76.8168" stroke="#15001D" stroke-width="3.41145"/>
<path d="M39.0586 23.5225V32.7692" stroke="#15001D" stroke-width="3.41145" stroke-linecap="round" stroke-linejoin="round"/>
<path d="M39.0586 37.4717V37.9039" stroke="#15001D" stroke-width="3.41145" stroke-linecap="round" stroke-linejoin="round"/>
<path d="M129.215 39.315C129.215 41.4969 128.71 43.4835 127.7 45.2748C126.691 47.0335 125.193 48.4338 123.206 49.476C121.252 50.5181 118.874 51.0393 116.074 51.0393H111.775V62.0308H100.93V27.4441H116.074C120.307 27.4441 123.548 28.5188 125.795 30.6683C128.075 32.8177 129.215 35.7 129.215 39.315ZM114.852 42.4903C117.099 42.4903 118.223 41.4318 118.223 39.315C118.223 37.198 117.099 36.1396 114.852 36.1396H111.775V42.4903H114.852ZM143.499 25.8809V62.0308H132.654V25.8809H143.499ZM146.931 48.2547C146.931 45.3562 147.42 42.8484 148.397 40.7316C149.407 38.5822 150.775 36.9538 152.5 35.8465C154.227 34.7066 156.164 34.1367 158.314 34.1367C160.106 34.1367 161.652 34.5112 162.955 35.2603C164.258 35.9767 165.251 36.9701 165.935 38.2402V34.4787H176.731V62.0308H165.935V58.2692C165.251 59.5394 164.258 60.5489 162.955 61.298C161.652 62.0145 160.106 62.3727 158.314 62.3727C156.164 62.3727 154.227 61.8191 152.5 60.7118C150.775 59.5719 149.407 57.9435 148.397 55.8267C147.42 53.6772 146.931 51.1532 146.931 48.2547ZM165.935 48.2547C165.935 46.7892 165.56 45.6493 164.811 44.8351C164.063 44.0209 163.101 43.6139 161.929 43.6139C160.756 43.6139 159.796 44.0209 159.046 44.8351C158.298 45.6493 157.923 46.7892 157.923 48.2547C157.923 49.7203 158.298 50.8601 159.046 51.6743C159.796 52.4885 160.756 52.8956 161.929 52.8956C163.101 52.8956 164.063 52.4885 164.811 51.6743C165.56 50.8601 165.935 49.7203 165.935 48.2547ZM212.72 34.4787L195.085 75.2206H183.214L190.151 60.663L178.671 34.4787H190.737L195.915 48.4501L200.751 34.4787H212.72ZM247.094 27.4441V49.7691C247.094 53.9052 246.004 57.048 243.821 59.1974C241.672 61.3142 238.643 62.3727 234.735 62.3727C230.534 62.3727 227.197 61.2165 224.721 58.9043C222.246 56.592 221.008 53.2212 221.008 48.7921H231.706C231.706 50.1925 231.935 51.1858 232.39 51.772C232.847 52.3256 233.465 52.6025 234.247 52.6025C234.898 52.6025 235.404 52.3908 235.761 51.9674C236.12 51.544 236.298 50.8112 236.298 49.7691V27.4441H247.094ZM264.869 62.3727C262.101 62.3727 259.609 61.8027 257.394 60.663C255.181 59.5231 253.437 57.8946 252.167 55.7778C250.931 53.6284 250.311 51.1206 250.311 48.2547C250.311 45.3887 250.931 42.8973 252.167 40.7805C253.437 38.631 255.181 36.9863 257.394 35.8465C259.609 34.7066 262.101 34.1367 264.869 34.1367C267.638 34.1367 270.129 34.7066 272.343 35.8465C274.558 36.9863 276.284 38.631 277.521 40.7805C278.791 42.8973 279.426 45.3887 279.426 48.2547C279.426 51.1206 278.791 53.6284 277.521 55.7778C276.284 57.8946 274.558 59.5231 272.343 60.663C270.129 61.8027 267.638 62.3727 264.869 62.3727ZM264.869 52.9933C265.879 52.9933 266.725 52.6025 267.409 51.8209C268.093 51.0066 268.435 49.818 268.435 48.2547C268.435 46.6915 268.093 45.5191 267.409 44.7374C266.725 43.9232 265.879 43.5162 264.869 43.5162C263.859 43.5162 263.012 43.9232 262.328 44.7374C261.644 45.5191 261.302 46.6915 261.302 48.2547C261.302 49.818 261.629 51.0066 262.279 51.8209C262.963 52.6025 263.827 52.9933 264.869 52.9933ZM313.953 34.4787L296.317 75.2206H284.446L291.383 60.663L279.903 34.4787H291.969L297.148 48.4501L301.984 34.4787H313.953Z" fill="white"/>
<path d="M109.512 84.9355L106.208 91.3058V94.708H104.248V91.3058L100.93 84.9355H103.142L105.242 89.4017L107.328 84.9355H109.512ZM114.087 94.834C113.34 94.834 112.668 94.6707 112.071 94.344C111.473 94.008 111.002 93.5366 110.657 92.9299C110.321 92.3232 110.153 91.6232 110.153 90.8298C110.153 90.0364 110.325 89.3364 110.671 88.7297C111.025 88.123 111.506 87.6563 112.113 87.3296C112.719 86.9936 113.396 86.8256 114.143 86.8256C114.889 86.8256 115.566 86.9936 116.173 87.3296C116.78 87.6563 117.256 88.123 117.601 88.7297C117.956 89.3364 118.133 90.0364 118.133 90.8298C118.133 91.6232 117.951 92.3232 117.587 92.9299C117.232 93.5366 116.747 94.008 116.131 94.344C115.524 94.6707 114.843 94.834 114.087 94.834ZM114.087 93.1259C114.441 93.1259 114.773 93.0419 115.081 92.8739C115.398 92.6966 115.65 92.4352 115.837 92.0899C116.023 91.7445 116.117 91.3245 116.117 90.8298C116.117 90.0924 115.921 89.5277 115.529 89.1357C115.146 88.7344 114.675 88.5337 114.115 88.5337C113.555 88.5337 113.083 88.7344 112.701 89.1357C112.327 89.5277 112.141 90.0924 112.141 90.8298C112.141 91.5672 112.323 92.1365 112.687 92.5379C113.06 92.9299 113.527 93.1259 114.087 93.1259ZM126.893 86.9516V94.708H124.919V93.7279C124.667 94.064 124.336 94.33 123.925 94.526C123.524 94.7127 123.085 94.806 122.609 94.806C122.002 94.806 121.466 94.68 120.999 94.428C120.532 94.1666 120.163 93.7886 119.893 93.2939C119.631 92.7899 119.501 92.1925 119.501 91.5018V86.9516H121.461V91.2218C121.461 91.8378 121.615 92.3139 121.923 92.6499C122.231 92.9766 122.651 93.1399 123.183 93.1399C123.724 93.1399 124.149 92.9766 124.457 92.6499C124.765 92.3139 124.919 91.8378 124.919 91.2218V86.9516H126.893ZM130.787 88.1557C131.039 87.745 131.366 87.423 131.767 87.1896C132.178 86.9563 132.645 86.8396 133.167 86.8396V88.8977H132.649C132.033 88.8977 131.566 89.0424 131.249 89.3317C130.941 89.6211 130.787 90.1251 130.787 90.8438V94.708H128.827V86.9516H130.787V88.1557ZM142.864 94.708L140.708 90.8998H139.784V94.708H137.824V84.9355H141.492C142.248 84.9355 142.892 85.0708 143.424 85.3415C143.956 85.6029 144.353 85.9622 144.614 86.4196C144.885 86.8676 145.02 87.3716 145.02 87.9317C145.02 88.5757 144.833 89.159 144.46 89.6817C144.087 90.1951 143.531 90.5498 142.794 90.7458L145.132 94.708H142.864ZM139.784 89.4297H141.422C141.954 89.4297 142.351 89.3037 142.612 89.0517C142.873 88.7904 143.004 88.431 143.004 87.9737C143.004 87.5256 142.873 87.1803 142.612 86.9376C142.351 86.6856 141.954 86.5596 141.422 86.5596H139.784V89.4297ZM154.003 90.6618C154.003 90.9418 153.985 91.1938 153.947 91.4178H148.277C148.324 91.9779 148.52 92.4165 148.865 92.7339C149.21 93.0512 149.635 93.2099 150.139 93.2099C150.867 93.2099 151.385 92.8972 151.693 92.2719H153.807C153.583 93.0186 153.154 93.6346 152.519 94.12C151.884 94.596 151.105 94.834 150.181 94.834C149.434 94.834 148.762 94.6707 148.165 94.344C147.577 94.008 147.115 93.5366 146.779 92.9299C146.452 92.3232 146.289 91.6232 146.289 90.8298C146.289 90.0271 146.452 89.3224 146.779 88.7157C147.105 88.109 147.563 87.6423 148.151 87.3156C148.739 86.9889 149.416 86.8256 150.181 86.8256C150.918 86.8256 151.576 86.9843 152.155 87.3016C152.743 87.619 153.196 88.0717 153.513 88.6597C153.84 89.2384 154.003 89.9058 154.003 90.6618ZM151.973 90.1018C151.964 89.5977 151.782 89.1964 151.427 88.8977C151.072 88.5897 150.638 88.4357 150.125 88.4357C149.64 88.4357 149.229 88.585 148.893 88.8837C148.566 89.173 148.366 89.5791 148.291 90.1018H151.973ZM157.394 84.3475V94.708H155.434V84.3475H157.394ZM160.325 86.0276C159.979 86.0276 159.69 85.9202 159.457 85.7055C159.233 85.4815 159.121 85.2062 159.121 84.8795C159.121 84.5528 159.233 84.2821 159.457 84.0675C159.69 83.8434 159.979 83.7314 160.325 83.7314C160.67 83.7314 160.955 83.8434 161.179 84.0675C161.412 84.2821 161.529 84.5528 161.529 84.8795C161.529 85.2062 161.412 85.4815 161.179 85.7055C160.955 85.9202 160.67 86.0276 160.325 86.0276ZM161.291 86.9516V94.708H159.331V86.9516H161.291ZM162.723 90.8018C162.723 90.0178 162.877 89.3224 163.185 88.7157C163.503 88.109 163.927 87.6423 164.459 87.3156C165.001 86.9889 165.603 86.8256 166.265 86.8256C166.844 86.8256 167.348 86.9423 167.777 87.1756C168.216 87.409 168.566 87.703 168.827 88.0577V86.9516H170.802V94.708H168.827V93.5739C168.575 93.938 168.225 94.2413 167.777 94.484C167.339 94.7173 166.83 94.834 166.251 94.834C165.598 94.834 165.001 94.666 164.459 94.33C163.927 93.994 163.503 93.5226 163.185 92.9159C162.877 92.2999 162.723 91.5952 162.723 90.8018ZM168.827 90.8298C168.827 90.3538 168.734 89.9478 168.547 89.6117C168.361 89.2664 168.109 89.005 167.791 88.8277C167.474 88.641 167.133 88.5477 166.769 88.5477C166.405 88.5477 166.069 88.6364 165.761 88.8137C165.453 88.991 165.201 89.2524 165.005 89.5977C164.819 89.9338 164.725 90.3351 164.725 90.8018C164.725 91.2685 164.819 91.6792 165.005 92.0339C165.201 92.3792 165.453 92.6452 165.761 92.8319C166.079 93.0186 166.415 93.1119 166.769 93.1119C167.133 93.1119 167.474 93.0232 167.791 92.8459C168.109 92.6592 168.361 92.3979 168.547 92.0619C168.734 91.7165 168.827 91.3058 168.827 90.8298ZM174.676 88.0857C174.928 87.7123 175.273 87.409 175.712 87.1756C176.16 86.9423 176.669 86.8256 177.238 86.8256C177.901 86.8256 178.498 86.9889 179.03 87.3156C179.572 87.6423 179.996 88.109 180.304 88.7157C180.622 89.3131 180.78 90.0084 180.78 90.8018C180.78 91.5952 180.622 92.2999 180.304 92.9159C179.996 93.5226 179.572 93.994 179.03 94.33C178.498 94.666 177.901 94.834 177.238 94.834C176.659 94.834 176.151 94.722 175.712 94.498C175.283 94.2646 174.937 93.966 174.676 93.6019V94.708H172.716V84.3475H174.676V88.0857ZM178.778 90.8018C178.778 90.3351 178.68 89.9338 178.484 89.5977C178.298 89.2524 178.046 88.991 177.728 88.8137C177.42 88.6364 177.084 88.5477 176.72 88.5477C176.365 88.5477 176.029 88.641 175.712 88.8277C175.404 89.005 175.152 89.2664 174.956 89.6117C174.769 89.9571 174.676 90.3631 174.676 90.8298C174.676 91.2965 174.769 91.7025 174.956 92.0479C175.152 92.3932 175.404 92.6592 175.712 92.8459C176.029 93.0232 176.365 93.1119 176.72 93.1119C177.084 93.1119 177.42 93.0186 177.728 92.8319C178.046 92.6452 178.298 92.3792 178.484 92.0339C178.68 91.6885 178.778 91.2778 178.778 90.8018ZM184.165 84.3475V94.708H182.205V84.3475H184.165ZM193.312 90.6618C193.312 90.9418 193.293 91.1938 193.256 91.4178H187.585C187.632 91.9779 187.828 92.4165 188.174 92.7339C188.519 93.0512 188.944 93.2099 189.448 93.2099C190.176 93.2099 190.694 92.8972 191.002 92.2719H193.116C192.892 93.0186 192.462 93.6346 191.828 94.12C191.193 94.596 190.414 94.834 189.49 94.834C188.743 94.834 188.071 94.6707 187.473 94.344C186.885 94.008 186.423 93.5366 186.087 92.9299C185.761 92.3232 185.597 91.6232 185.597 90.8298C185.597 90.0271 185.761 89.3224 186.087 88.7157C186.414 88.109 186.871 87.6423 187.459 87.3156C188.047 86.9889 188.724 86.8256 189.49 86.8256C190.227 86.8256 190.885 86.9843 191.464 87.3016C192.052 87.619 192.504 88.0717 192.822 88.6597C193.148 89.2384 193.312 89.9058 193.312 90.6618ZM191.282 90.1018C191.272 89.5977 191.09 89.1964 190.736 88.8977C190.381 88.5897 189.947 88.4357 189.434 88.4357C188.948 88.4357 188.538 88.585 188.202 88.8837C187.875 89.173 187.674 89.5791 187.599 90.1018H191.282ZM202.615 94.806C201.7 94.806 200.86 94.5913 200.095 94.162C199.329 93.7326 198.723 93.1399 198.275 92.3839C197.827 91.6185 197.603 90.7551 197.603 89.7937C197.603 88.8417 197.827 87.9877 198.275 87.2316C198.723 86.4662 199.329 85.8689 200.095 85.4395C200.86 85.0102 201.7 84.7955 202.615 84.7955C203.539 84.7955 204.379 85.0102 205.135 85.4395C205.9 85.8689 206.502 86.4662 206.941 87.2316C207.389 87.9877 207.613 88.8417 207.613 89.7937C207.613 90.7551 207.389 91.6185 206.941 92.3839C206.502 93.1399 205.9 93.7326 205.135 94.162C204.37 94.5913 203.529 94.806 202.615 94.806ZM202.615 93.0559C203.203 93.0559 203.721 92.9252 204.169 92.6639C204.617 92.3932 204.967 92.0105 205.219 91.5158C205.471 91.0211 205.597 90.4471 205.597 89.7937C205.597 89.1404 205.471 88.571 205.219 88.0857C204.967 87.591 204.617 87.213 204.169 86.9516C203.721 86.6903 203.203 86.5596 202.615 86.5596C202.027 86.5596 201.504 86.6903 201.047 86.9516C200.599 87.213 200.249 87.591 199.997 88.0857C199.745 88.571 199.619 89.1404 199.619 89.7937C199.619 90.4471 199.745 91.0211 199.997 91.5158C200.249 92.0105 200.599 92.3932 201.047 92.6639C201.504 92.9252 202.027 93.0559 202.615 93.0559ZM216.394 86.9516V94.708H214.42V93.7279C214.168 94.064 213.836 94.33 213.426 94.526C213.024 94.7127 212.585 94.806 212.109 94.806C211.503 94.806 210.966 94.68 210.499 94.428C210.033 94.1666 209.664 93.7886 209.393 93.2939C209.132 92.7899 209.001 92.1925 209.001 91.5018V86.9516H210.961V91.2218C210.961 91.8378 211.115 92.3139 211.423 92.6499C211.731 92.9766 212.151 93.1399 212.683 93.1399C213.225 93.1399 213.65 92.9766 213.958 92.6499C214.266 92.3139 214.42 91.8378 214.42 91.2218V86.9516H216.394ZM220.61 88.5617V92.3139C220.61 92.5752 220.671 92.7666 220.792 92.8879C220.923 92.9999 221.137 93.0559 221.436 93.0559H222.346V94.708H221.114C219.462 94.708 218.636 93.9053 218.636 92.2999V88.5617H217.712V86.9516H218.636V85.0335H220.61V86.9516H222.346V88.5617H220.61ZM226.724 94.834C226.089 94.834 225.52 94.722 225.016 94.498C224.511 94.2646 224.11 93.952 223.811 93.5599C223.522 93.1679 223.363 92.7339 223.335 92.2579H225.31C225.347 92.5566 225.492 92.8039 225.744 92.9999C226.005 93.1959 226.327 93.2939 226.71 93.2939C227.083 93.2939 227.372 93.2193 227.578 93.0699C227.792 92.9206 227.9 92.7292 227.9 92.4959C227.9 92.2439 227.769 92.0572 227.508 91.9359C227.256 91.8052 226.85 91.6652 226.29 91.5158C225.711 91.3758 225.235 91.2312 224.862 91.0818C224.497 90.9325 224.18 90.7038 223.909 90.3958C223.648 90.0878 223.517 89.6724 223.517 89.1497C223.517 88.7204 223.639 88.3283 223.881 87.9737C224.133 87.619 224.488 87.339 224.946 87.1336C225.412 86.9283 225.958 86.8256 226.584 86.8256C227.508 86.8256 228.245 87.0589 228.796 87.5256C229.346 87.983 229.65 88.6037 229.706 89.3877H227.83C227.802 89.0797 227.671 88.837 227.438 88.6597C227.214 88.473 226.91 88.3797 226.528 88.3797C226.173 88.3797 225.898 88.445 225.702 88.5757C225.515 88.7064 225.422 88.8884 225.422 89.1217C225.422 89.3831 225.552 89.5837 225.814 89.7237C226.075 89.8544 226.481 89.9898 227.032 90.1298C227.592 90.2698 228.054 90.4144 228.418 90.5638C228.782 90.7131 229.094 90.9465 229.356 91.2638C229.626 91.5718 229.766 91.9825 229.776 92.4959C229.776 92.9439 229.65 93.3453 229.398 93.6999C229.155 94.0546 228.8 94.3346 228.334 94.54C227.876 94.736 227.34 94.834 226.724 94.834ZM234.829 94.834C234.082 94.834 233.41 94.6707 232.813 94.344C232.215 94.008 231.744 93.5366 231.399 92.9299C231.063 92.3232 230.895 91.6232 230.895 90.8298C230.895 90.0364 231.067 89.3364 231.413 88.7297C231.767 88.123 232.248 87.6563 232.855 87.3296C233.461 86.9936 234.138 86.8256 234.885 86.8256C235.632 86.8256 236.308 86.9936 236.915 87.3296C237.522 87.6563 237.998 88.123 238.343 88.7297C238.698 89.3364 238.875 90.0364 238.875 90.8298C238.875 91.6232 238.693 92.3232 238.329 92.9299C237.974 93.5366 237.489 94.008 236.873 94.344C236.266 94.6707 235.585 94.834 234.829 94.834ZM234.829 93.1259C235.184 93.1259 235.515 93.0419 235.823 92.8739C236.14 92.6966 236.392 92.4352 236.579 92.0899C236.766 91.7445 236.859 91.3245 236.859 90.8298C236.859 90.0924 236.663 89.5277 236.271 89.1357C235.888 88.7344 235.417 88.5337 234.857 88.5337C234.297 88.5337 233.825 88.7344 233.443 89.1357C233.069 89.5277 232.883 90.0924 232.883 90.8298C232.883 91.5672 233.065 92.1365 233.429 92.5379C233.802 92.9299 234.269 93.1259 234.829 93.1259ZM247.636 86.9516V94.708H245.662V93.7279C245.41 94.064 245.079 94.33 244.668 94.526C244.266 94.7127 243.828 94.806 243.352 94.806C242.745 94.806 242.208 94.68 241.742 94.428C241.275 94.1666 240.906 93.7886 240.636 93.2939C240.374 92.7899 240.244 92.1925 240.244 91.5018V86.9516H242.204V91.2218C242.204 91.8378 242.358 92.3139 242.666 92.6499C242.974 92.9766 243.394 93.1399 243.926 93.1399C244.467 93.1399 244.892 92.9766 245.2 92.6499C245.508 92.3139 245.662 91.8378 245.662 91.2218V86.9516H247.636ZM251.529 88.1557C251.781 87.745 252.108 87.423 252.509 87.1896C252.92 86.9563 253.387 86.8396 253.909 86.8396V88.8977H253.391C252.775 88.8977 252.309 89.0424 251.991 89.3317C251.683 89.6211 251.529 90.1251 251.529 90.8438V94.708H249.569V86.9516H251.529V88.1557ZM254.726 90.8298C254.726 90.0271 254.89 89.3271 255.216 88.7297C255.543 88.123 255.996 87.6563 256.574 87.3296C257.153 86.9936 257.816 86.8256 258.562 86.8256C259.524 86.8256 260.317 87.0683 260.942 87.5536C261.577 88.0297 262.002 88.7017 262.217 89.5697H260.102C259.99 89.2337 259.799 88.9724 259.528 88.7857C259.267 88.5897 258.94 88.4917 258.548 88.4917C257.988 88.4917 257.545 88.697 257.218 89.1077C256.892 89.5091 256.728 90.0831 256.728 90.8298C256.728 91.5672 256.892 92.1412 257.218 92.5519C257.545 92.9532 257.988 93.1539 258.548 93.1539C259.342 93.1539 259.86 92.7992 260.102 92.0899H262.217C262.002 92.9299 261.577 93.5973 260.942 94.092C260.308 94.5867 259.514 94.834 258.562 94.834C257.816 94.834 257.153 94.6707 256.574 94.344C255.996 94.008 255.543 93.5413 255.216 92.9439C254.89 92.3372 254.726 91.6325 254.726 90.8298ZM270.862 90.6618C270.862 90.9418 270.843 91.1938 270.806 91.4178H265.136C265.182 91.9779 265.378 92.4165 265.724 92.7339C266.069 93.0512 266.494 93.2099 266.998 93.2099C267.726 93.2099 268.244 92.8972 268.552 92.2719H270.666C270.442 93.0186 270.013 93.6346 269.378 94.12C268.743 94.596 267.964 94.834 267.04 94.834C266.293 94.834 265.621 94.6707 265.024 94.344C264.436 94.008 263.974 93.5366 263.638 92.9299C263.311 92.3232 263.148 91.6232 263.148 90.8298C263.148 90.0271 263.311 89.3224 263.638 88.7157C263.964 88.109 264.422 87.6423 265.01 87.3156C265.598 86.9889 266.274 86.8256 267.04 86.8256C267.777 86.8256 268.435 86.9843 269.014 87.3016C269.602 87.619 270.055 88.0717 270.372 88.6597C270.699 89.2384 270.862 89.9058 270.862 90.6618ZM268.832 90.1018C268.823 89.5977 268.641 89.1964 268.286 88.8977C267.931 88.5897 267.497 88.4357 266.984 88.4357C266.498 88.4357 266.088 88.585 265.752 88.8837C265.425 89.173 265.224 89.5791 265.15 90.1018H268.832ZM282.28 84.9355V86.5176H279.675V94.708H277.715V86.5176H275.111V84.9355H282.28ZM290.92 90.6618C290.92 90.9418 290.902 91.1938 290.864 91.4178H285.194C285.241 91.9779 285.437 92.4165 285.782 92.7339C286.127 93.0512 286.552 93.2099 287.056 93.2099C287.784 93.2099 288.302 92.8972 288.61 92.2719H290.724C290.5 93.0186 290.071 93.6346 289.436 94.12C288.802 94.596 288.022 94.834 287.098 94.834C286.351 94.834 285.679 94.6707 285.082 94.344C284.494 94.008 284.032 93.5366 283.696 92.9299C283.369 92.3232 283.206 91.6232 283.206 90.8298C283.206 90.0271 283.369 89.3224 283.696 88.7157C284.023 88.109 284.48 87.6423 285.068 87.3156C285.656 86.9889 286.333 86.8256 287.098 86.8256C287.835 86.8256 288.494 86.9843 289.072 87.3016C289.66 87.619 290.113 88.0717 290.43 88.6597C290.757 89.2384 290.92 89.9058 290.92 90.6618ZM288.89 90.1018C288.881 89.5977 288.699 89.1964 288.344 88.8977C287.989 88.5897 287.555 88.4357 287.042 88.4357C286.557 88.4357 286.146 88.585 285.81 88.8837C285.483 89.173 285.283 89.5791 285.208 90.1018H288.89ZM291.847 90.8018C291.847 90.0178 292.001 89.3224 292.309 88.7157C292.626 88.109 293.051 87.6423 293.583 87.3156C294.124 86.9889 294.726 86.8256 295.389 86.8256C295.968 86.8256 296.472 86.9423 296.901 87.1756C297.34 87.409 297.69 87.703 297.951 88.0577V86.9516H299.925V94.708H297.951V93.5739C297.699 93.938 297.349 94.2413 296.901 94.484C296.462 94.7173 295.954 94.834 295.375 94.834C294.721 94.834 294.124 94.666 293.583 94.33C293.051 93.994 292.626 93.5226 292.309 92.9159C292.001 92.2999 291.847 91.5952 291.847 90.8018ZM297.951 90.8298C297.951 90.3538 297.858 89.9478 297.671 89.6117C297.484 89.2664 297.232 89.005 296.915 88.8277C296.598 88.641 296.257 88.5477 295.893 88.5477C295.529 88.5477 295.193 88.6364 294.885 88.8137C294.577 88.991 294.325 89.2524 294.129 89.5977C293.942 89.9338 293.849 90.3351 293.849 90.8018C293.849 91.2685 293.942 91.6792 294.129 92.0339C294.325 92.3792 294.577 92.6452 294.885 92.8319C295.202 93.0186 295.538 93.1119 295.893 93.1119C296.257 93.1119 296.598 93.0232 296.915 92.8459C297.232 92.6592 297.484 92.3979 297.671 92.0619C297.858 91.7165 297.951 91.3058 297.951 90.8298ZM311.472 86.8396C312.424 86.8396 313.19 87.1336 313.768 87.7216C314.356 88.3003 314.65 89.1124 314.65 90.1578V94.708H312.69V90.4238C312.69 89.8171 312.536 89.3551 312.228 89.0377C311.92 88.711 311.5 88.5477 310.968 88.5477C310.436 88.5477 310.011 88.711 309.694 89.0377C309.386 89.3551 309.232 89.8171 309.232 90.4238V94.708H307.272V90.4238C307.272 89.8171 307.118 89.3551 306.81 89.0377C306.502 88.711 306.082 88.5477 305.55 88.5477C305.008 88.5477 304.579 88.711 304.262 89.0377C303.954 89.3551 303.8 89.8171 303.8 90.4238V94.708H301.84V86.9516H303.8V87.8897C304.052 87.563 304.374 87.3063 304.766 87.1196C305.167 86.9329 305.606 86.8396 306.082 86.8396C306.689 86.8396 307.23 86.9703 307.706 87.2316C308.182 87.4836 308.551 87.8476 308.812 88.3237C309.064 87.8757 309.428 87.5163 309.904 87.2456C310.389 86.9749 310.912 86.8396 311.472 86.8396Z" fill="white"/>
</svg>
