<svg width="245" height="109" viewBox="0 0 245 109" fill="none" xmlns="http://www.w3.org/2000/svg">
<path d="M18.0195 51.7617L34.3485 42.4022V23.6416L18.0195 32.9976V51.7617Z" fill="#E09EF8"/>
<path d="M34.3477 79.792L50.6766 70.4325V51.6719L34.3477 61.0279V79.792Z" fill="#0F0BC3"/>
<path d="M50.6758 70.4248L67.0048 61.0653V42.3047L50.6758 51.6607V70.4248Z" fill="#0F0BC3"/>
<path d="M50.6758 51.672L67.0048 42.3125V23.5518L50.6758 32.9079V51.672Z" fill="#0F0BC3"/>
<path d="M18.0195 89.166L34.3485 79.8065V61.0459L18.0195 70.4019V89.166Z" fill="#0F0BC3"/>
<path d="M18.0195 106.859L34.3485 97.5V78.7393L18.0195 88.0954V106.859Z" fill="#0F0BC3"/>
<path d="M1.6875 78.7402L18.0165 88.0997V106.86L1.6875 97.5044V78.7402Z" fill="#8F0FBA"/>
<path d="M1.6875 60.5605L18.0165 69.92V88.6807L1.6875 79.3247V60.5605Z" fill="#8F0FBA"/>
<path d="M1.6875 42.3047L18.0165 51.6642V70.4248L1.6875 61.0688V42.3047Z" fill="#8F0FBA"/>
<path d="M18.0195 51.6719L34.3485 61.0314V79.792L18.0195 70.436V51.6719Z" fill="#8F0FBA"/>
<path d="M1.6875 23.6406L18.0165 33.0001V51.7608L1.6875 42.4047V23.6406Z" fill="#8F0FBA"/>
<path d="M50.6249 51.7108L34.3621 61.0526L18.0898 51.716L34.3313 42.209L50.6249 51.7108Z" fill="#E09EF8"/>
<path d="M34.3997 23.668L18.0063 33.0028L1.6875 23.6403L17.9755 14.1592L34.3997 23.668Z" fill="#C460E6"/>
<path d="M50.5195 14.3967L34.2094 23.6269L17.8906 14.2644L34.1786 4.7832L50.5195 14.3967Z" fill="#C460E6"/>
<path d="M67.005 23.555L50.6663 33.0078L34.0898 23.5882L50.4097 14.3369L67.005 23.555Z" fill="#C460E6"/>
<path d="M34.3477 23.6406L50.6766 33.0001V51.7608L34.3477 42.4047V23.6406Z" fill="#E09EF8"/>
<path d="M66.8946 23.6407L34.177 4.79004L1.69141 23.6407L1.73361 97.6406L18.188 106.743L34.2923 97.6406V79.6458L66.8946 61.0124V23.6407Z" stroke="#15001D" stroke-width="3"/>
<path d="M17.9844 32.9961V106.703" stroke="#15001D" stroke-width="3"/>
<path d="M1.65625 23.7434L17.9132 33.142L34.2211 23.7434M34.2211 23.7434L50.5289 33.142L66.7351 23.7434M34.2211 23.7434L50.5289 14.2129M34.2211 23.7434L17.9132 14.5631" stroke="#15001D" stroke-width="3"/>
<path d="M50.5312 33.0889V70.241" stroke="#15001D" stroke-width="3"/>
<path d="M66.9474 42.4004L34.3183 61.0456L1.64062 42.5414" stroke="#15001D" stroke-width="3"/>
<path d="M34.293 60.9043V79.792" stroke="#15001D" stroke-width="3"/>
<path d="M34.2903 79.6148L18.1641 70.5977" stroke="#15001D" stroke-width="3"/>
<path d="M1.76172 79.6144L17.9683 88.8921L34.4398 79.3613" stroke="#15001D" stroke-width="3"/>
<path d="M1.76172 42.6543L17.9683 51.932L35.0807 42.2139" stroke="#15001D" stroke-width="3"/>
<path d="M33.6016 42.207L50.2135 51.6547" stroke="#15001D" stroke-width="3"/>
<path d="M1.76172 61.2988L17.9683 70.5765" stroke="#15001D" stroke-width="3"/>
<path d="M34.2305 23.71V31.8415" stroke="#15001D" stroke-width="3" stroke-linecap="round" stroke-linejoin="round"/>
<path d="M34.2305 35.9766V36.3567" stroke="#15001D" stroke-width="3" stroke-linecap="round" stroke-linejoin="round"/>
<path d="M100.541 35.8104C100.541 37.5077 100.148 39.0529 99.3631 40.4464C98.5778 41.8144 97.4125 42.9037 95.8671 43.7144C94.3471 44.525 92.4978 44.9304 90.3191 44.9304H86.9751V53.4804H78.5391V26.5764H90.3191C93.6125 26.5764 96.1331 27.4124 97.8811 29.0844C99.6545 30.7564 100.541 32.9984 100.541 35.8104ZM89.3691 38.2803C91.1171 38.2803 91.9911 37.457 91.9911 35.8104C91.9911 34.1637 91.1171 33.3404 89.3691 33.3404H86.9751V38.2803H89.3691ZM111.652 25.3604V53.4804H103.216V25.3604H111.652ZM114.322 42.7644C114.322 40.5097 114.702 38.5589 115.462 36.9123C116.248 35.2403 117.312 33.9736 118.654 33.1124C119.997 32.2257 121.504 31.7824 123.176 31.7824C124.57 31.7824 125.773 32.0737 126.786 32.6564C127.8 33.2137 128.572 33.9864 129.104 34.9743V32.0484H137.502V53.4804H129.104V50.5544C128.572 51.5424 127.8 52.3277 126.786 52.9104C125.773 53.4677 124.57 53.7463 123.176 53.7463C121.504 53.7463 119.997 53.3156 118.654 52.4543C117.312 51.5676 116.248 50.301 115.462 48.6544C114.702 46.9823 114.322 45.019 114.322 42.7644ZM129.104 42.7644C129.104 41.6244 128.813 40.7377 128.23 40.1044C127.648 39.471 126.9 39.1544 125.988 39.1544C125.076 39.1544 124.329 39.471 123.746 40.1044C123.164 40.7377 122.872 41.6244 122.872 42.7644C122.872 43.9044 123.164 44.791 123.746 45.4244C124.329 46.0577 125.076 46.3744 125.988 46.3744C126.9 46.3744 127.648 46.0577 128.23 45.4244C128.813 44.791 129.104 43.9044 129.104 42.7644ZM165.497 32.0484L151.779 63.7404H142.545L147.941 52.4164L139.011 32.0484H148.397L152.425 42.9164L156.187 32.0484H165.497ZM192.236 26.5764V43.9424C192.236 47.1597 191.388 49.6044 189.69 51.2764C188.018 52.923 185.662 53.7463 182.622 53.7463C179.354 53.7463 176.758 52.847 174.832 51.0484C172.907 49.2497 171.944 46.6277 171.944 43.1824H180.266C180.266 44.2717 180.444 45.0444 180.798 45.5004C181.153 45.931 181.634 46.1464 182.242 46.1464C182.749 46.1464 183.142 45.9817 183.42 45.6524C183.699 45.323 183.838 44.753 183.838 43.9424V26.5764H192.236ZM206.062 53.7463C203.909 53.7463 201.971 53.303 200.248 52.4164C198.526 51.5297 197.17 50.263 196.182 48.6164C195.22 46.9444 194.738 44.9937 194.738 42.7644C194.738 40.535 195.22 38.597 196.182 36.9504C197.17 35.2784 198.526 33.999 200.248 33.1124C201.971 32.2257 203.909 31.7824 206.062 31.7824C208.216 31.7824 210.154 32.2257 211.876 33.1124C213.599 33.999 214.942 35.2784 215.904 36.9504C216.892 38.597 217.386 40.535 217.386 42.7644C217.386 44.9937 216.892 46.9444 215.904 48.6164C214.942 50.263 213.599 51.5297 211.876 52.4164C210.154 53.303 208.216 53.7463 206.062 53.7463ZM206.062 46.4504C206.848 46.4504 207.506 46.1464 208.038 45.5384C208.57 44.905 208.836 43.9804 208.836 42.7644C208.836 41.5484 208.57 40.6364 208.038 40.0284C207.506 39.395 206.848 39.0784 206.062 39.0784C205.277 39.0784 204.618 39.395 204.086 40.0284C203.554 40.6364 203.288 41.5484 203.288 42.7644C203.288 43.9804 203.542 44.905 204.048 45.5384C204.58 46.1464 205.252 46.4504 206.062 46.4504ZM244.243 32.0484L230.525 63.7404H221.291L226.687 52.4164L217.757 32.0484H227.143L231.171 42.9164L234.933 32.0484H244.243Z" fill="white"/>
<path d="M98.5391 68.3486L96.2391 72.7786V75.2986H95.0991V72.7786L92.7891 68.3486H94.0591L95.6691 71.7586L97.2791 68.3486H98.5391ZM101.833 75.3886C101.313 75.3886 100.843 75.272 100.423 75.0386C100.003 74.7986 99.6738 74.4653 99.4338 74.0386C99.1938 73.6053 99.0738 73.1053 99.0738 72.5386C99.0738 71.9786 99.1971 71.482 99.4438 71.0486C99.6905 70.6153 100.027 70.282 100.453 70.0486C100.88 69.8153 101.357 69.6986 101.883 69.6986C102.41 69.6986 102.887 69.8153 103.313 70.0486C103.74 70.282 104.077 70.6153 104.323 71.0486C104.57 71.482 104.693 71.9786 104.693 72.5386C104.693 73.0986 104.567 73.5953 104.313 74.0286C104.06 74.462 103.713 74.7986 103.273 75.0386C102.84 75.272 102.36 75.3886 101.833 75.3886ZM101.833 74.3986C102.127 74.3986 102.4 74.3286 102.653 74.1886C102.913 74.0486 103.123 73.8386 103.283 73.5586C103.443 73.2786 103.523 72.9386 103.523 72.5386C103.523 72.1386 103.447 71.802 103.293 71.5286C103.14 71.2486 102.937 71.0386 102.683 70.8986C102.43 70.7586 102.157 70.6886 101.863 70.6886C101.57 70.6886 101.297 70.7586 101.043 70.8986C100.797 71.0386 100.6 71.2486 100.453 71.5286C100.307 71.802 100.233 72.1386 100.233 72.5386C100.233 73.132 100.383 73.592 100.683 73.9186C100.99 74.2386 101.373 74.3986 101.833 74.3986ZM110.81 69.7886V75.2986H109.67V74.6486C109.49 74.8753 109.254 75.0553 108.96 75.1886C108.674 75.3153 108.367 75.3786 108.04 75.3786C107.607 75.3786 107.217 75.2886 106.87 75.1086C106.53 74.9286 106.26 74.662 106.06 74.3086C105.867 73.9553 105.77 73.5286 105.77 73.0286V69.7886H106.9V72.8586C106.9 73.352 107.024 73.732 107.27 73.9986C107.517 74.2586 107.854 74.3886 108.28 74.3886C108.707 74.3886 109.044 74.2586 109.29 73.9986C109.544 73.732 109.67 73.352 109.67 72.8586V69.7886H110.81ZM113.454 70.5886C113.621 70.3086 113.841 70.092 114.114 69.9386C114.394 69.7786 114.724 69.6986 115.104 69.6986V70.8786H114.814C114.368 70.8786 114.028 70.992 113.794 71.2186C113.568 71.4453 113.454 71.8386 113.454 72.3986V75.2986H112.314V69.7886H113.454V70.5886ZM122.36 75.2986L120.76 72.5186H119.89V75.2986H118.75V68.3486H121.15C121.683 68.3486 122.133 68.442 122.5 68.6286C122.873 68.8153 123.15 69.0653 123.33 69.3786C123.517 69.692 123.61 70.042 123.61 70.4286C123.61 70.882 123.477 71.2953 123.21 71.6686C122.95 72.0353 122.547 72.2853 122 72.4186L123.72 75.2986H122.36ZM119.89 71.6086H121.15C121.577 71.6086 121.897 71.502 122.11 71.2886C122.33 71.0753 122.44 70.7886 122.44 70.4286C122.44 70.0686 122.333 69.7886 122.12 69.5886C121.907 69.382 121.583 69.2786 121.15 69.2786H119.89V71.6086ZM130.118 72.4086C130.118 72.6153 130.105 72.802 130.078 72.9686H125.868C125.902 73.4086 126.065 73.762 126.358 74.0286C126.652 74.2953 127.012 74.4286 127.438 74.4286C128.052 74.4286 128.485 74.172 128.738 73.6586H129.968C129.802 74.1653 129.498 74.582 129.058 74.9086C128.625 75.2286 128.085 75.3886 127.438 75.3886C126.912 75.3886 126.438 75.272 126.018 75.0386C125.605 74.7986 125.278 74.4653 125.038 74.0386C124.805 73.6053 124.688 73.1053 124.688 72.5386C124.688 71.972 124.802 71.4753 125.028 71.0486C125.262 70.6153 125.585 70.282 125.998 70.0486C126.418 69.8153 126.898 69.6986 127.438 69.6986C127.958 69.6986 128.422 69.812 128.828 70.0386C129.235 70.2653 129.552 70.5853 129.778 70.9986C130.005 71.4053 130.118 71.8753 130.118 72.4086ZM128.928 72.0486C128.922 71.6286 128.772 71.292 128.478 71.0386C128.185 70.7853 127.822 70.6586 127.388 70.6586C126.995 70.6586 126.658 70.7853 126.378 71.0386C126.098 71.2853 125.932 71.622 125.878 72.0486H128.928ZM132.38 67.8986V75.2986H131.24V67.8986H132.38ZM134.457 69.0586C134.25 69.0586 134.077 68.9886 133.937 68.8486C133.797 68.7086 133.727 68.5353 133.727 68.3286C133.727 68.122 133.797 67.9486 133.937 67.8086C134.077 67.6686 134.25 67.5986 134.457 67.5986C134.657 67.5986 134.827 67.6686 134.967 67.8086C135.107 67.9486 135.177 68.122 135.177 68.3286C135.177 68.5353 135.107 68.7086 134.967 68.8486C134.827 68.9886 134.657 69.0586 134.457 69.0586ZM135.017 69.7886V75.2986H133.877V69.7886H135.017ZM136.134 72.5186C136.134 71.9653 136.247 71.4753 136.474 71.0486C136.707 70.622 137.02 70.292 137.414 70.0586C137.814 69.8186 138.254 69.6986 138.734 69.6986C139.167 69.6986 139.544 69.7853 139.864 69.9586C140.19 70.1253 140.45 70.3353 140.644 70.5886V69.7886H141.794V75.2986H140.644V74.4786C140.45 74.7386 140.187 74.9553 139.854 75.1286C139.52 75.302 139.14 75.3886 138.714 75.3886C138.24 75.3886 137.807 75.2686 137.414 75.0286C137.02 74.782 136.707 74.442 136.474 74.0086C136.247 73.5686 136.134 73.072 136.134 72.5186ZM140.644 72.5386C140.644 72.1586 140.564 71.8286 140.404 71.5486C140.25 71.2686 140.047 71.0553 139.794 70.9086C139.54 70.762 139.267 70.6886 138.974 70.6886C138.68 70.6886 138.407 70.762 138.154 70.9086C137.9 71.0486 137.694 71.2586 137.534 71.5386C137.38 71.812 137.304 72.1386 137.304 72.5186C137.304 72.8986 137.38 73.232 137.534 73.5186C137.694 73.8053 137.9 74.0253 138.154 74.1786C138.414 74.3253 138.687 74.3986 138.974 74.3986C139.267 74.3986 139.54 74.3253 139.794 74.1786C140.047 74.032 140.25 73.8186 140.404 73.5386C140.564 73.252 140.644 72.9186 140.644 72.5386ZM144.431 70.6086C144.624 70.342 144.888 70.1253 145.221 69.9586C145.561 69.7853 145.938 69.6986 146.351 69.6986C146.838 69.6986 147.278 69.8153 147.671 70.0486C148.064 70.282 148.374 70.6153 148.601 71.0486C148.828 71.4753 148.941 71.9653 148.941 72.5186C148.941 73.072 148.828 73.5686 148.601 74.0086C148.374 74.442 148.061 74.782 147.661 75.0286C147.268 75.2686 146.831 75.3886 146.351 75.3886C145.924 75.3886 145.544 75.3053 145.211 75.1386C144.884 74.972 144.624 74.7586 144.431 74.4986V75.2986H143.291V67.8986H144.431V70.6086ZM147.781 72.5186C147.781 72.1386 147.701 71.812 147.541 71.5386C147.388 71.2586 147.181 71.0486 146.921 70.9086C146.668 70.762 146.394 70.6886 146.101 70.6886C145.814 70.6886 145.541 70.762 145.281 70.9086C145.028 71.0553 144.821 71.2686 144.661 71.5486C144.508 71.8286 144.431 72.1586 144.431 72.5386C144.431 72.9186 144.508 73.252 144.661 73.5386C144.821 73.8186 145.028 74.032 145.281 74.1786C145.541 74.3253 145.814 74.3986 146.101 74.3986C146.394 74.3986 146.668 74.3253 146.921 74.1786C147.181 74.0253 147.388 73.8053 147.541 73.5186C147.701 73.232 147.781 72.8986 147.781 72.5186ZM151.208 67.8986V75.2986H150.068V67.8986H151.208ZM157.755 72.4086C157.755 72.6153 157.742 72.802 157.715 72.9686H153.505C153.538 73.4086 153.702 73.762 153.995 74.0286C154.288 74.2953 154.648 74.4286 155.075 74.4286C155.688 74.4286 156.122 74.172 156.375 73.6586H157.605C157.438 74.1653 157.135 74.582 156.695 74.9086C156.262 75.2286 155.722 75.3886 155.075 75.3886C154.548 75.3886 154.075 75.272 153.655 75.0386C153.242 74.7986 152.915 74.4653 152.675 74.0386C152.442 73.6053 152.325 73.1053 152.325 72.5386C152.325 71.972 152.438 71.4753 152.665 71.0486C152.898 70.6153 153.222 70.282 153.635 70.0486C154.055 69.8153 154.535 69.6986 155.075 69.6986C155.595 69.6986 156.058 69.812 156.465 70.0386C156.872 70.2653 157.188 70.5853 157.415 70.9986C157.642 71.4053 157.755 71.8753 157.755 72.4086ZM156.565 72.0486C156.558 71.6286 156.408 71.292 156.115 71.0386C155.822 70.7853 155.458 70.6586 155.025 70.6586C154.632 70.6586 154.295 70.7853 154.015 71.0386C153.735 71.2853 153.568 71.622 153.515 72.0486H156.565ZM164.645 75.3686C163.998 75.3686 163.401 75.2186 162.855 74.9186C162.315 74.612 161.885 74.1886 161.565 73.6486C161.251 73.102 161.095 72.4886 161.095 71.8086C161.095 71.1286 161.251 70.5186 161.565 69.9786C161.885 69.4386 162.315 69.0186 162.855 68.7186C163.401 68.412 163.998 68.2586 164.645 68.2586C165.298 68.2586 165.895 68.412 166.435 68.7186C166.981 69.0186 167.411 69.4386 167.725 69.9786C168.038 70.5186 168.195 71.1286 168.195 71.8086C168.195 72.4886 168.038 73.102 167.725 73.6486C167.411 74.1886 166.981 74.612 166.435 74.9186C165.895 75.2186 165.298 75.3686 164.645 75.3686ZM164.645 74.3786C165.105 74.3786 165.515 74.2753 165.875 74.0686C166.235 73.8553 166.515 73.5553 166.715 73.1686C166.921 72.7753 167.025 72.322 167.025 71.8086C167.025 71.2953 166.921 70.8453 166.715 70.4586C166.515 70.072 166.235 69.7753 165.875 69.5686C165.515 69.362 165.105 69.2586 164.645 69.2586C164.185 69.2586 163.775 69.362 163.415 69.5686C163.055 69.7753 162.771 70.072 162.565 70.4586C162.365 70.8453 162.265 71.2953 162.265 71.8086C162.265 72.322 162.365 72.7753 162.565 73.1686C162.771 73.5553 163.055 73.8553 163.415 74.0686C163.775 74.2753 164.185 74.3786 164.645 74.3786ZM174.306 69.7886V75.2986H173.166V74.6486C172.986 74.8753 172.75 75.0553 172.456 75.1886C172.17 75.3153 171.863 75.3786 171.536 75.3786C171.103 75.3786 170.713 75.2886 170.366 75.1086C170.026 74.9286 169.756 74.662 169.556 74.3086C169.363 73.9553 169.266 73.5286 169.266 73.0286V69.7886H170.396V72.8586C170.396 73.352 170.52 73.732 170.766 73.9986C171.013 74.2586 171.35 74.3886 171.776 74.3886C172.203 74.3886 172.54 74.2586 172.786 73.9986C173.04 73.732 173.166 73.352 173.166 72.8586V69.7886H174.306ZM177.141 70.7186V73.7686C177.141 73.9753 177.187 74.1253 177.281 74.2186C177.381 74.3053 177.547 74.3486 177.781 74.3486H178.481V75.2986H177.581C177.067 75.2986 176.674 75.1786 176.401 74.9386C176.127 74.6986 175.991 74.3086 175.991 73.7686V70.7186H175.341V69.7886H175.991V68.4186H177.141V69.7886H178.481V70.7186H177.141ZM181.531 75.3886C181.098 75.3886 180.708 75.312 180.361 75.1586C180.021 74.9986 179.751 74.7853 179.551 74.5186C179.351 74.2453 179.245 73.942 179.231 73.6086H180.411C180.431 73.842 180.541 74.0386 180.741 74.1986C180.948 74.352 181.205 74.4286 181.511 74.4286C181.831 74.4286 182.078 74.3686 182.251 74.2486C182.431 74.122 182.521 73.962 182.521 73.7686C182.521 73.562 182.421 73.4086 182.221 73.3086C182.028 73.2086 181.718 73.0986 181.291 72.9786C180.878 72.8653 180.541 72.7553 180.281 72.6486C180.021 72.542 179.795 72.3786 179.601 72.1586C179.415 71.9386 179.321 71.6486 179.321 71.2886C179.321 70.9953 179.408 70.7286 179.581 70.4886C179.755 70.242 180.001 70.0486 180.321 69.9086C180.648 69.7686 181.021 69.6986 181.441 69.6986C182.068 69.6986 182.571 69.8586 182.951 70.1786C183.338 70.492 183.545 70.922 183.571 71.4686H182.431C182.411 71.222 182.311 71.0253 182.131 70.8786C181.951 70.732 181.708 70.6586 181.401 70.6586C181.101 70.6586 180.871 70.7153 180.711 70.8286C180.551 70.942 180.471 71.092 180.471 71.2786C180.471 71.4253 180.525 71.5486 180.631 71.6486C180.738 71.7486 180.868 71.8286 181.021 71.8886C181.175 71.942 181.401 72.012 181.701 72.0986C182.101 72.2053 182.428 72.3153 182.681 72.4286C182.941 72.5353 183.165 72.6953 183.351 72.9086C183.538 73.122 183.635 73.4053 183.641 73.7586C183.641 74.072 183.555 74.352 183.381 74.5986C183.208 74.8453 182.961 75.0386 182.641 75.1786C182.328 75.3186 181.958 75.3886 181.531 75.3886ZM187.263 75.3886C186.743 75.3886 186.273 75.272 185.853 75.0386C185.433 74.7986 185.103 74.4653 184.863 74.0386C184.623 73.6053 184.503 73.1053 184.503 72.5386C184.503 71.9786 184.626 71.482 184.873 71.0486C185.12 70.6153 185.456 70.282 185.883 70.0486C186.31 69.8153 186.786 69.6986 187.313 69.6986C187.84 69.6986 188.316 69.8153 188.743 70.0486C189.17 70.282 189.506 70.6153 189.753 71.0486C190 71.482 190.123 71.9786 190.123 72.5386C190.123 73.0986 189.996 73.5953 189.743 74.0286C189.49 74.462 189.143 74.7986 188.703 75.0386C188.27 75.272 187.79 75.3886 187.263 75.3886ZM187.263 74.3986C187.556 74.3986 187.83 74.3286 188.083 74.1886C188.343 74.0486 188.553 73.8386 188.713 73.5586C188.873 73.2786 188.953 72.9386 188.953 72.5386C188.953 72.1386 188.876 71.802 188.723 71.5286C188.57 71.2486 188.366 71.0386 188.113 70.8986C187.86 70.7586 187.586 70.6886 187.293 70.6886C187 70.6886 186.726 70.7586 186.473 70.8986C186.226 71.0386 186.03 71.2486 185.883 71.5286C185.736 71.802 185.663 72.1386 185.663 72.5386C185.663 73.132 185.813 73.592 186.113 73.9186C186.42 74.2386 186.803 74.3986 187.263 74.3986ZM196.24 69.7886V75.2986H195.1V74.6486C194.92 74.8753 194.683 75.0553 194.39 75.1886C194.103 75.3153 193.797 75.3786 193.47 75.3786C193.037 75.3786 192.647 75.2886 192.3 75.1086C191.96 74.9286 191.69 74.662 191.49 74.3086C191.297 73.9553 191.2 73.5286 191.2 73.0286V69.7886H192.33V72.8586C192.33 73.352 192.453 73.732 192.7 73.9986C192.947 74.2586 193.283 74.3886 193.71 74.3886C194.137 74.3886 194.473 74.2586 194.72 73.9986C194.973 73.732 195.1 73.352 195.1 72.8586V69.7886H196.24ZM198.884 70.5886C199.051 70.3086 199.271 70.092 199.544 69.9386C199.824 69.7786 200.154 69.6986 200.534 69.6986V70.8786H200.244C199.797 70.8786 199.457 70.992 199.224 71.2186C198.997 71.4453 198.884 71.8386 198.884 72.3986V75.2986H197.744V69.7886H198.884V70.5886ZM201.202 72.5386C201.202 71.972 201.315 71.4753 201.542 71.0486C201.775 70.6153 202.095 70.282 202.502 70.0486C202.909 69.8153 203.375 69.6986 203.902 69.6986C204.569 69.6986 205.119 69.8586 205.552 70.1786C205.992 70.492 206.289 70.942 206.442 71.5286H205.212C205.112 71.2553 204.952 71.042 204.732 70.8886C204.512 70.7353 204.235 70.6586 203.902 70.6586C203.435 70.6586 203.062 70.8253 202.782 71.1586C202.509 71.4853 202.372 71.9453 202.372 72.5386C202.372 73.132 202.509 73.5953 202.782 73.9286C203.062 74.262 203.435 74.4286 203.902 74.4286C204.562 74.4286 204.999 74.1386 205.212 73.5586H206.442C206.282 74.1186 205.982 74.5653 205.542 74.8986C205.102 75.2253 204.555 75.3886 203.902 75.3886C203.375 75.3886 202.909 75.272 202.502 75.0386C202.095 74.7986 201.775 74.4653 201.542 74.0386C201.315 73.6053 201.202 73.1053 201.202 72.5386ZM212.628 72.4086C212.628 72.6153 212.615 72.802 212.588 72.9686H208.378C208.411 73.4086 208.575 73.762 208.868 74.0286C209.161 74.2953 209.521 74.4286 209.948 74.4286C210.561 74.4286 210.995 74.172 211.248 73.6586H212.478C212.311 74.1653 212.008 74.582 211.568 74.9086C211.135 75.2286 210.595 75.3886 209.948 75.3886C209.421 75.3886 208.948 75.272 208.528 75.0386C208.115 74.7986 207.788 74.4653 207.548 74.0386C207.315 73.6053 207.198 73.1053 207.198 72.5386C207.198 71.972 207.311 71.4753 207.538 71.0486C207.771 70.6153 208.095 70.282 208.508 70.0486C208.928 69.8153 209.408 69.6986 209.948 69.6986C210.468 69.6986 210.931 69.812 211.338 70.0386C211.745 70.2653 212.061 70.5853 212.288 70.9986C212.515 71.4053 212.628 71.8753 212.628 72.4086ZM211.438 72.0486C211.431 71.6286 211.281 71.292 210.988 71.0386C210.695 70.7853 210.331 70.6586 209.898 70.6586C209.505 70.6586 209.168 70.7853 208.888 71.0386C208.608 71.2853 208.441 71.622 208.388 72.0486H211.438ZM220.838 68.3486V69.2786H218.988V75.2986H217.848V69.2786H215.988V68.3486H220.838ZM227.042 72.4086C227.042 72.6153 227.029 72.802 227.002 72.9686H222.792C222.825 73.4086 222.989 73.762 223.282 74.0286C223.575 74.2953 223.935 74.4286 224.362 74.4286C224.975 74.4286 225.409 74.172 225.662 73.6586H226.892C226.725 74.1653 226.422 74.582 225.982 74.9086C225.549 75.2286 225.009 75.3886 224.362 75.3886C223.835 75.3886 223.362 75.272 222.942 75.0386C222.529 74.7986 222.202 74.4653 221.962 74.0386C221.729 73.6053 221.612 73.1053 221.612 72.5386C221.612 71.972 221.725 71.4753 221.952 71.0486C222.185 70.6153 222.509 70.282 222.922 70.0486C223.342 69.8153 223.822 69.6986 224.362 69.6986C224.882 69.6986 225.345 69.812 225.752 70.0386C226.159 70.2653 226.475 70.5853 226.702 70.9986C226.929 71.4053 227.042 71.8753 227.042 72.4086ZM225.852 72.0486C225.845 71.6286 225.695 71.292 225.402 71.0386C225.109 70.7853 224.745 70.6586 224.312 70.6586C223.919 70.6586 223.582 70.7853 223.302 71.0386C223.022 71.2853 222.855 71.622 222.802 72.0486H225.852ZM227.784 72.5186C227.784 71.9653 227.897 71.4753 228.124 71.0486C228.357 70.622 228.671 70.292 229.064 70.0586C229.464 69.8186 229.904 69.6986 230.384 69.6986C230.817 69.6986 231.194 69.7853 231.514 69.9586C231.841 70.1253 232.101 70.3353 232.294 70.5886V69.7886H233.444V75.2986H232.294V74.4786C232.101 74.7386 231.837 74.9553 231.504 75.1286C231.171 75.302 230.791 75.3886 230.364 75.3886C229.891 75.3886 229.457 75.2686 229.064 75.0286C228.671 74.782 228.357 74.442 228.124 74.0086C227.897 73.5686 227.784 73.072 227.784 72.5186ZM232.294 72.5386C232.294 72.1586 232.214 71.8286 232.054 71.5486C231.901 71.2686 231.697 71.0553 231.444 70.9086C231.191 70.762 230.917 70.6886 230.624 70.6886C230.331 70.6886 230.057 70.762 229.804 70.9086C229.551 71.0486 229.344 71.2586 229.184 71.5386C229.031 71.812 228.954 72.1386 228.954 72.5186C228.954 72.8986 229.031 73.232 229.184 73.5186C229.344 73.8053 229.551 74.0253 229.804 74.1786C230.064 74.3253 230.337 74.3986 230.624 74.3986C230.917 74.3986 231.191 74.3253 231.444 74.1786C231.697 74.032 231.901 73.8186 232.054 73.5386C232.214 73.252 232.294 72.9186 232.294 72.5386ZM241.611 69.6986C242.045 69.6986 242.431 69.7886 242.771 69.9686C243.118 70.1486 243.388 70.4153 243.581 70.7686C243.781 71.122 243.881 71.5486 243.881 72.0486V75.2986H242.751V72.2186C242.751 71.7253 242.628 71.3486 242.381 71.0886C242.135 70.822 241.798 70.6886 241.371 70.6886C240.945 70.6886 240.605 70.822 240.351 71.0886C240.105 71.3486 239.981 71.7253 239.981 72.2186V75.2986H238.851V72.2186C238.851 71.7253 238.728 71.3486 238.481 71.0886C238.235 70.822 237.898 70.6886 237.471 70.6886C237.045 70.6886 236.705 70.822 236.451 71.0886C236.205 71.3486 236.081 71.7253 236.081 72.2186V75.2986H234.941V69.7886H236.081V70.4186C236.268 70.192 236.505 70.0153 236.791 69.8886C237.078 69.762 237.385 69.6986 237.711 69.6986C238.151 69.6986 238.545 69.792 238.891 69.9786C239.238 70.1653 239.505 70.4353 239.691 70.7886C239.858 70.4553 240.118 70.192 240.471 69.9986C240.825 69.7986 241.205 69.6986 241.611 69.6986Z" fill="white"/>
</svg>
