<svg width="288" height="108" viewBox="0 0 288 108" fill="none" xmlns="http://www.w3.org/2000/svg">
<path d="M276.649 66.5199C269.218 73.951 260.027 77.6665 249.075 77.6665C238.124 77.6665 228.933 73.951 221.502 66.5199C214.071 59.0888 210.355 49.8976 210.355 38.9465C210.355 28.0932 214.071 18.951 221.502 11.5199C229.031 3.99101 238.222 0.226562 249.075 0.226562C259.929 0.226562 269.12 3.99101 276.649 11.5199C284.178 19.0488 287.942 28.191 287.942 38.9465C287.942 49.7999 284.178 58.991 276.649 66.5199ZM234.849 53.4665C238.662 57.2799 243.404 59.1865 249.075 59.1865C254.747 59.1865 259.489 57.2799 263.302 53.4665C267.115 49.6532 269.022 44.8132 269.022 38.9465C269.022 33.0799 267.115 28.2399 263.302 24.4265C259.489 20.6132 254.747 18.7065 249.075 18.7065C243.404 18.7065 238.662 20.6132 234.849 24.4265C231.133 28.3376 229.275 33.1776 229.275 38.9465C229.275 44.7154 231.133 49.5554 234.849 53.4665Z" fill="white"/>
<path fill-rule="evenodd" clip-rule="evenodd" d="M66.6488 66.5199C59.2177 73.951 50.0266 77.6665 39.0755 77.6665C28.1244 77.6665 18.9333 73.951 11.5022 66.5199C4.07103 59.0888 0.355469 49.8976 0.355469 38.9465C0.355469 28.0932 4.07103 18.951 11.5022 11.5199C19.0311 3.99101 28.2222 0.226562 39.0755 0.226562C48.1113 0.226562 55.9951 2.83583 62.7267 8.05437C63.3132 7.52708 63.7622 7.2635 64.2736 7.26371C65.0915 7.26404 65.7495 7.93927 67.0654 9.28974L67.0654 9.28978L70.4328 12.7455L73.8001 16.2013L73.8002 16.2014C75.1161 17.5518 75.774 18.2271 75.7737 19.0658C75.7734 19.9046 75.1148 20.5793 73.7978 21.9287L50.0896 46.2201L25.6936 46.2103L25.6941 46.211L25.4863 46.2109L25.4647 46.1888L49.5769 21.4835C46.5274 19.6322 43.0269 18.7065 39.0755 18.7065C33.4044 18.7065 28.6622 20.6132 24.8488 24.4265C21.1333 28.3376 19.2755 33.1776 19.2755 38.9465C19.2755 44.7154 21.1333 49.5554 24.8488 53.4665C28.6622 57.2799 33.4044 59.1865 39.0755 59.1865C44.7466 59.1865 49.4888 57.2799 53.3022 53.4665C55.4037 51.365 56.9261 48.9517 57.8695 46.2266H77.3353C75.9945 53.9719 72.4323 60.7364 66.6488 66.5199ZM26.05 46.7895L26.0476 46.7869V46.7855L26.05 46.7895Z" fill="white"/>
<path fill-rule="evenodd" clip-rule="evenodd" d="M183.358 71.653C183.326 71.9233 183.293 72.1991 183.261 72.4803C181.55 87.3059 171.756 90.0172 162.877 91.3093C159.714 99.1022 162.071 105.312 163.389 107.433C187.844 106.634 201.551 88.546 201.551 72.9324L201.214 4.75556C193.56 0.575017 186.447 3.01367 183.848 4.75556V6.68594C177.541 2.37969 170.284 0.226562 162.075 0.226562C151.222 0.226562 142.031 3.99101 134.502 11.5199C127.071 18.951 123.355 28.0932 123.355 38.9465C123.355 49.8976 127.071 59.0888 134.502 66.5199C141.933 73.951 151.124 77.6665 162.075 77.6665C170.119 77.6665 177.213 75.662 183.358 71.653ZM162.075 59.1865C156.404 59.1865 151.662 57.2799 147.849 53.4665C144.133 49.5554 142.275 44.7154 142.275 38.9465C142.275 33.1776 144.133 28.3376 147.849 24.4265C151.662 20.6132 156.404 18.7065 162.075 18.7065C167.747 18.7065 172.489 20.6132 176.302 24.4265C180.115 28.2399 182.022 33.0799 182.022 38.9465C182.022 44.8132 180.115 49.6532 176.302 53.4665C172.489 57.2799 167.747 59.1865 162.075 59.1865Z" fill="#FFFEFE"/>
<path fill-rule="evenodd" clip-rule="evenodd" d="M102.95 73.6253C102.973 75.5101 102.985 76.4535 102.407 77.0316C102 77.4378 101.416 77.5531 100.452 77.5785C100.041 77.5882 99.5628 77.5824 99.0003 77.5746L94.1761 77.514L89.3499 77.4535C88.723 77.4456 88.2015 77.4398 87.7621 77.4124C86.8773 77.3578 86.3246 77.221 85.93 76.8246C85.3363 76.2308 85.3246 75.2894 85.3011 73.4027L85.0941 57.0218H85.0492L84.4007 5.46127C84.3773 3.57651 84.3656 2.63315 84.9437 2.05502C85.5218 1.4769 86.4652 1.48862 88.3499 1.51205L93.1761 1.5726L98.0003 1.63315C99.8851 1.65658 100.828 1.6683 101.422 2.26205C101.649 2.49057 101.791 2.76987 101.881 3.13315C102.024 3.71713 102.035 4.52182 102.049 5.68393L102.077 7.88119C105.149 5.94174 108.498 4.45932 112.018 3.49057C112.805 3.27377 113.598 3.08432 114.397 2.92026C116.032 2.58432 117.686 2.35971 119.346 2.24838C120.137 2.19565 120.928 2.1644 121.721 2.1644C120.926 5.74252 120.09 12.3031 120.862 19.7249C120.491 19.7445 120.121 19.7738 119.752 19.8128C118.713 19.9242 117.682 20.1195 116.668 20.3988C114.059 21.1156 111.627 22.3714 109.532 24.0804C107.434 25.7913 105.715 27.9203 104.487 30.3324C103.426 32.4144 102.752 34.6664 102.491 36.9808L102.95 73.6253Z" fill="white"/>
</svg>
