<svg width="277" height="106" viewBox="0 0 277 106" fill="none" xmlns="http://www.w3.org/2000/svg">
<path d="M18.3789 48.9785L34.7079 39.619V20.8584L18.3789 30.2144V48.9785Z" fill="#E09EF8"/>
<path d="M34.707 77.0088L51.0359 67.6493V48.8887L34.707 58.2447V77.0088Z" fill="#0F0BC3"/>
<path d="M51.0352 67.6416L67.3642 58.2821V39.5215L51.0352 48.8775V67.6416Z" fill="#0F0BC3"/>
<path d="M51.0352 48.8888L67.3642 39.5293V20.7686L51.0352 30.1247V48.8888Z" fill="#0F0BC3"/>
<path d="M18.3789 86.3828L34.7079 77.0233V58.2627L18.3789 67.6187V86.3828Z" fill="#0F0BC3"/>
<path d="M18.3789 104.076L34.7079 94.7168V75.9561L18.3789 85.3122V104.076Z" fill="#0F0BC3"/>
<path d="M2.04688 75.957L18.3758 85.3165V104.077L2.04688 94.7212V75.957Z" fill="#8F0FBA"/>
<path d="M2.04688 57.7773L18.3758 67.1368V85.8975L2.04688 76.5415V57.7773Z" fill="#8F0FBA"/>
<path d="M2.04688 39.5215L18.3758 48.881V67.6416L2.04688 58.2856V39.5215Z" fill="#8F0FBA"/>
<path d="M18.3789 48.8887L34.7079 58.2482V77.0088L18.3789 67.6528V48.8887Z" fill="#8F0FBA"/>
<path d="M2.04688 20.8574L18.3758 30.2169V48.9776L2.04688 39.6215V20.8574Z" fill="#8F0FBA"/>
<path d="M50.9843 48.9276L34.7215 58.2694L18.4492 48.9328L34.6907 39.4258L50.9843 48.9276Z" fill="#E09EF8"/>
<path d="M34.759 20.8848L18.3656 30.2196L2.04688 20.8571L18.3348 11.376L34.759 20.8848Z" fill="#C460E6"/>
<path d="M50.8789 11.6135L34.5688 20.8437L18.25 11.4812L34.538 2L50.8789 11.6135Z" fill="#C460E6"/>
<path d="M67.3644 20.7718L51.0257 30.2246L34.4492 20.805L50.7691 11.5537L67.3644 20.7718Z" fill="#C460E6"/>
<path d="M34.707 20.8574L51.0359 30.2169V48.9776L34.707 39.6215V20.8574Z" fill="#E09EF8"/>
<path d="M67.254 20.8575L34.5364 2.00684L2.05078 20.8575L2.09298 94.8574L18.5474 103.96L34.6517 94.8574V76.8626L67.254 58.2292V20.8575Z" stroke="#15001D" stroke-width="3"/>
<path d="M18.3438 30.2129V103.92" stroke="#15001D" stroke-width="3"/>
<path d="M2.01562 20.9602L18.2726 30.3588L34.5805 20.9602M34.5805 20.9602L50.8883 30.3588L67.0945 20.9602M34.5805 20.9602L50.8883 11.4297M34.5805 20.9602L18.2726 11.7799" stroke="#15001D" stroke-width="3"/>
<path d="M50.8906 30.3057V67.4578" stroke="#15001D" stroke-width="3"/>
<path d="M67.3068 39.6172L34.6777 58.2624L2 39.7582" stroke="#15001D" stroke-width="3"/>
<path d="M34.6523 58.1211V77.0088" stroke="#15001D" stroke-width="3"/>
<path d="M34.6496 76.8316L18.5234 67.8145" stroke="#15001D" stroke-width="3"/>
<path d="M2.12109 76.8312L18.3277 86.1089L34.7992 76.5781" stroke="#15001D" stroke-width="3"/>
<path d="M2.12109 39.871L18.3277 49.1488L35.44 39.4307" stroke="#15001D" stroke-width="3"/>
<path d="M33.9609 39.4238L50.5728 48.8715" stroke="#15001D" stroke-width="3"/>
<path d="M2.12109 58.5156L18.3277 67.7933" stroke="#15001D" stroke-width="3"/>
<path d="M34.5898 20.9268V29.0583" stroke="#15001D" stroke-width="3" stroke-linecap="round" stroke-linejoin="round"/>
<path d="M34.5898 33.1934V33.5735" stroke="#15001D" stroke-width="3" stroke-linecap="round" stroke-linejoin="round"/>
<path d="M113.874 34.8138C113.874 36.7326 113.43 38.4796 112.542 40.0548C111.654 41.6014 110.337 42.8328 108.589 43.7494C106.871 44.6657 104.78 45.124 102.317 45.124H98.537V54.7899H89V24.3747H102.317C106.041 24.3747 108.89 25.3198 110.866 27.21C112.871 29.1002 113.874 31.6348 113.874 34.8138ZM101.243 37.6062C103.22 37.6062 104.208 36.6753 104.208 34.8138C104.208 32.9522 103.22 32.0215 101.243 32.0215H98.537V37.6062H101.243ZM126.435 23V54.7899H116.898V23H126.435ZM129.453 42.6754C129.453 40.1264 129.883 37.9211 130.742 36.0596C131.631 34.1694 132.834 32.7374 134.351 31.7637C135.869 30.7613 137.573 30.2601 139.463 30.2601C141.039 30.2601 142.399 30.5894 143.544 31.2482C144.69 31.8782 145.563 32.7518 146.165 33.8687V30.5608H155.659V54.7899H146.165V51.482C145.563 52.599 144.69 53.4868 143.544 54.1455C142.399 54.7755 141.039 55.0906 139.463 55.0906C137.573 55.0906 135.869 54.6037 134.351 53.63C132.834 52.6276 131.631 51.1956 130.742 49.3341C129.883 47.4439 129.453 45.2242 129.453 42.6754ZM146.165 42.6754C146.165 41.3866 145.836 40.3842 145.177 39.6682C144.519 38.9522 143.673 38.5942 142.642 38.5942C141.611 38.5942 140.766 38.9522 140.107 39.6682C139.449 40.3842 139.119 41.3866 139.119 42.6754C139.119 43.9641 139.449 44.9665 140.107 45.6825C140.766 46.3985 141.611 46.7565 142.642 46.7565C143.673 46.7565 144.519 46.3985 145.177 45.6825C145.836 44.9665 146.165 43.9641 146.165 42.6754ZM187.307 30.5608L171.799 66.3889H161.36L167.46 53.587L157.365 30.5608H167.976L172.529 42.8472L176.782 30.5608H187.307ZM217.536 24.3747V44.0071C217.536 47.6443 216.577 50.408 214.658 52.2983C212.767 54.1598 210.104 55.0906 206.667 55.0906C202.973 55.0906 200.038 54.0738 197.86 52.0405C195.684 50.0071 194.596 47.0429 194.596 43.1479H204.004C204.004 44.3794 204.205 45.2529 204.605 45.7684C205.006 46.2552 205.55 46.4987 206.238 46.4987C206.811 46.4987 207.255 46.3126 207.569 45.9403C207.885 45.5679 208.042 44.9235 208.042 44.0071V24.3747H217.536ZM233.166 55.0906C230.732 55.0906 228.541 54.5893 226.593 53.587C224.647 52.5846 223.114 51.1526 221.997 49.2911C220.909 47.4009 220.364 45.1956 220.364 42.6754C220.364 40.155 220.909 37.9641 221.997 36.1026C223.114 34.2124 224.647 32.766 226.593 31.7637C228.541 30.7613 230.732 30.2601 233.166 30.2601C235.601 30.2601 237.792 30.7613 239.739 31.7637C241.687 32.766 243.205 34.2124 244.293 36.1026C245.41 37.9641 245.968 40.155 245.968 42.6754C245.968 45.1956 245.41 47.4009 244.293 49.2911C243.205 51.1526 241.687 52.5846 239.739 53.587C237.792 54.5893 235.601 55.0906 233.166 55.0906ZM233.166 46.8424C234.055 46.8424 234.799 46.4987 235.4 45.8114C236.002 45.0953 236.302 44.0501 236.302 42.6754C236.302 41.3007 236.002 40.2696 235.4 39.5823C234.799 38.8662 234.055 38.5083 233.166 38.5083C232.279 38.5083 231.534 38.8662 230.932 39.5823C230.331 40.2696 230.03 41.3007 230.03 42.6754C230.03 44.0501 230.317 45.0953 230.889 45.8114C231.491 46.4987 232.251 46.8424 233.166 46.8424ZM276.33 30.5608L260.822 66.3889H250.383L256.483 53.587L246.388 30.5608H256.999L261.552 42.8472L265.805 30.5608H276.33Z" fill="white"/>
<path d="M96.5473 74.9319L93.6417 80.5339V83.5257H91.918V80.5339L89 74.9319H90.9453L92.7921 78.8594L94.6266 74.9319H96.5473ZM100.57 83.6365C99.9135 83.6365 99.3225 83.4929 98.7972 83.2056C98.2719 82.9101 97.8574 82.4956 97.5537 81.9621C97.2582 81.4286 97.1105 80.813 97.1105 80.1153C97.1105 79.4176 97.2623 78.802 97.566 78.2685C97.8779 77.7349 98.3007 77.3245 98.8342 77.0373C99.3677 76.7418 99.9628 76.594 100.619 76.594C101.276 76.594 101.871 76.7418 102.405 77.0373C102.938 77.3245 103.357 77.7349 103.661 78.2685C103.972 78.802 104.128 79.4176 104.128 80.1153C104.128 80.813 103.968 81.4286 103.648 81.9621C103.336 82.4956 102.909 82.9101 102.368 83.2056C101.834 83.4929 101.235 83.6365 100.57 83.6365ZM100.57 82.1344C100.882 82.1344 101.173 82.0606 101.444 81.9128C101.723 81.7569 101.945 81.5271 102.109 81.2234C102.273 80.9197 102.355 80.5503 102.355 80.1153C102.355 79.4668 102.183 78.9702 101.838 78.6255C101.502 78.2726 101.087 78.0961 100.595 78.0961C100.102 78.0961 99.6878 78.2726 99.3513 78.6255C99.023 78.9702 98.8588 79.4668 98.8588 80.1153C98.8588 80.7637 99.0189 81.2644 99.339 81.6173C99.6673 81.9621 100.078 82.1344 100.57 82.1344ZM111.832 76.7048V83.5257H110.096V82.6639C109.874 82.9594 109.583 83.1933 109.222 83.3657C108.869 83.5298 108.483 83.6119 108.065 83.6119C107.531 83.6119 107.059 83.5011 106.649 83.2795C106.238 83.0496 105.914 82.7172 105.676 82.2822C105.446 81.839 105.331 81.3136 105.331 80.7062V76.7048H107.055V80.46C107.055 81.0017 107.19 81.4203 107.461 81.7158C107.732 82.0031 108.101 82.1468 108.569 82.1468C109.045 82.1468 109.419 82.0031 109.69 81.7158C109.961 81.4203 110.096 81.0017 110.096 80.46V76.7048H111.832ZM115.256 77.7637C115.478 77.4025 115.765 77.1193 116.118 76.9141C116.479 76.7089 116.89 76.6063 117.349 76.6063V78.4162H116.894C116.352 78.4162 115.942 78.5434 115.663 78.7979C115.392 79.0523 115.256 79.4956 115.256 80.1276V83.5257H113.533V76.7048H115.256V77.7637ZM125.877 83.5257L123.98 80.1768H123.168V83.5257H121.444V74.9319H124.67C125.335 74.9319 125.901 75.0509 126.369 75.2889C126.837 75.5188 127.186 75.8348 127.416 76.237C127.654 76.631 127.773 77.0742 127.773 77.5667C127.773 78.133 127.608 78.646 127.28 79.1057C126.952 79.5571 126.463 79.869 125.815 80.0414L127.871 83.5257H125.877ZM123.168 78.8841H124.608C125.076 78.8841 125.425 78.7733 125.655 78.5516C125.885 78.3218 126 78.0058 126 77.6036C126 77.2096 125.885 76.9059 125.655 76.6925C125.425 76.4709 125.076 76.3601 124.608 76.3601H123.168V78.8841ZM135.672 79.9675C135.672 80.2138 135.656 80.4354 135.623 80.6324H130.637C130.678 81.1249 130.85 81.5106 131.154 81.7897C131.457 82.0688 131.831 82.2083 132.274 82.2083C132.914 82.2083 133.37 81.9334 133.641 81.3834H135.5C135.303 82.0401 134.925 82.5818 134.367 83.0086C133.809 83.4272 133.124 83.6365 132.311 83.6365C131.654 83.6365 131.063 83.4929 130.538 83.2056C130.021 82.9101 129.615 82.4956 129.319 81.9621C129.032 81.4286 128.888 80.813 128.888 80.1153C128.888 79.4094 129.032 78.7897 129.319 78.2561C129.607 77.7226 130.009 77.3122 130.526 77.0249C131.043 76.7377 131.638 76.594 132.311 76.594C132.96 76.594 133.538 76.7336 134.047 77.0126C134.564 77.2917 134.962 77.6898 135.241 78.2069C135.529 78.7158 135.672 79.3027 135.672 79.9675ZM133.887 79.475C133.879 79.0318 133.719 78.6789 133.407 78.4162C133.095 78.1453 132.713 78.0099 132.262 78.0099C131.835 78.0099 131.474 78.1412 131.178 78.4039C130.891 78.6583 130.715 79.0154 130.649 79.475H133.887ZM138.654 74.4148V83.5257H136.93V74.4148H138.654ZM141.231 75.8922C140.928 75.8922 140.673 75.7978 140.468 75.609C140.271 75.4121 140.172 75.1699 140.172 74.8826C140.172 74.5954 140.271 74.3573 140.468 74.1685C140.673 73.9715 140.928 73.873 141.231 73.873C141.535 73.873 141.785 73.9715 141.982 74.1685C142.188 74.3573 142.29 74.5954 142.29 74.8826C142.29 75.1699 142.188 75.4121 141.982 75.609C141.785 75.7978 141.535 75.8922 141.231 75.8922ZM142.081 76.7048V83.5257H140.357V76.7048H142.081ZM143.341 80.0906C143.341 79.4012 143.476 78.7897 143.747 78.2561C144.026 77.7226 144.399 77.3122 144.867 77.0249C145.343 76.7377 145.873 76.594 146.456 76.594C146.964 76.594 147.408 76.6966 147.785 76.9018C148.171 77.107 148.479 77.3656 148.709 77.6775V76.7048H150.445V83.5257H148.709V82.5284C148.487 82.8485 148.179 83.1153 147.785 83.3287C147.399 83.5339 146.952 83.6365 146.443 83.6365C145.869 83.6365 145.343 83.4888 144.867 83.1933C144.399 82.8978 144.026 82.4833 143.747 81.9498C143.476 81.408 143.341 80.7883 143.341 80.0906ZM148.709 80.1153C148.709 79.6967 148.627 79.3396 148.462 79.0441C148.298 78.7404 148.077 78.5106 147.798 78.3546C147.518 78.1905 147.219 78.1084 146.899 78.1084C146.579 78.1084 146.283 78.1864 146.012 78.3423C145.741 78.4983 145.52 78.7281 145.347 79.0318C145.183 79.3273 145.101 79.6802 145.101 80.0906C145.101 80.501 145.183 80.8622 145.347 81.1741C145.52 81.4778 145.741 81.7117 146.012 81.8759C146.291 82.0401 146.587 82.1221 146.899 82.1221C147.219 82.1221 147.518 82.0442 147.798 81.8882C148.077 81.724 148.298 81.4942 148.462 81.1987C148.627 80.895 148.709 80.5339 148.709 80.1153ZM153.852 77.7021C154.073 77.3738 154.377 77.107 154.763 76.9018C155.157 76.6966 155.604 76.594 156.105 76.594C156.688 76.594 157.213 76.7377 157.681 77.0249C158.157 77.3122 158.53 77.7226 158.801 78.2561C159.08 78.7815 159.22 79.393 159.22 80.0906C159.22 80.7883 159.08 81.408 158.801 81.9498C158.53 82.4833 158.157 82.8978 157.681 83.1933C157.213 83.4888 156.688 83.6365 156.105 83.6365C155.596 83.6365 155.149 83.538 154.763 83.341C154.385 83.1358 154.082 82.8732 153.852 82.5531V83.5257H152.128V74.4148H153.852V77.7021ZM157.459 80.0906C157.459 79.6802 157.373 79.3273 157.201 79.0318C157.037 78.7281 156.815 78.4983 156.536 78.3423C156.265 78.1864 155.969 78.1084 155.649 78.1084C155.337 78.1084 155.042 78.1905 154.763 78.3546C154.492 78.5106 154.27 78.7404 154.098 79.0441C153.934 79.3478 153.852 79.7049 153.852 80.1153C153.852 80.5257 153.934 80.8827 154.098 81.1864C154.27 81.4901 154.492 81.724 154.763 81.8882C155.042 82.0442 155.337 82.1221 155.649 82.1221C155.969 82.1221 156.265 82.0401 156.536 81.8759C156.815 81.7117 157.037 81.4778 157.201 81.1741C157.373 80.8704 157.459 80.5093 157.459 80.0906ZM162.196 74.4148V83.5257H160.472V74.4148H162.196ZM170.24 79.9675C170.24 80.2138 170.223 80.4354 170.191 80.6324H165.204C165.245 81.1249 165.418 81.5106 165.721 81.7897C166.025 82.0688 166.399 82.2083 166.842 82.2083C167.482 82.2083 167.938 81.9334 168.208 81.3834H170.068C169.871 82.0401 169.493 82.5818 168.935 83.0086C168.377 83.4272 167.691 83.6365 166.879 83.6365C166.222 83.6365 165.631 83.4929 165.106 83.2056C164.589 82.9101 164.182 82.4956 163.887 81.9621C163.6 81.4286 163.456 80.813 163.456 80.1153C163.456 79.4094 163.6 78.7897 163.887 78.2561C164.174 77.7226 164.576 77.3122 165.093 77.0249C165.611 76.7377 166.206 76.594 166.879 76.594C167.527 76.594 168.106 76.7336 168.615 77.0126C169.132 77.2917 169.53 77.6898 169.809 78.2069C170.096 78.7158 170.24 79.3027 170.24 79.9675ZM168.455 79.475C168.446 79.0318 168.286 78.6789 167.974 78.4162C167.663 78.1453 167.281 78.0099 166.829 78.0099C166.403 78.0099 166.041 78.1412 165.746 78.4039C165.459 78.6583 165.282 79.0154 165.217 79.475H168.455ZM178.421 83.6119C177.616 83.6119 176.878 83.4231 176.205 83.0455C175.532 82.668 174.998 82.1468 174.604 81.4819C174.21 80.8088 174.013 80.0496 174.013 79.2042C174.013 78.367 174.21 77.6159 174.604 76.9511C174.998 76.278 175.532 75.7527 176.205 75.3751C176.878 74.9975 177.616 74.8088 178.421 74.8088C179.233 74.8088 179.972 74.9975 180.637 75.3751C181.31 75.7527 181.84 76.278 182.225 76.9511C182.619 77.6159 182.816 78.367 182.816 79.2042C182.816 80.0496 182.619 80.8088 182.225 81.4819C181.84 82.1468 181.31 82.668 180.637 83.0455C179.964 83.4231 179.225 83.6119 178.421 83.6119ZM178.421 82.0729C178.938 82.0729 179.394 81.958 179.788 81.7282C180.181 81.4901 180.489 81.1536 180.711 80.7186C180.933 80.2835 181.043 79.7787 181.043 79.2042C181.043 78.6296 180.933 78.1289 180.711 77.7021C180.489 77.2671 180.181 76.9346 179.788 76.7048C179.394 76.475 178.938 76.3601 178.421 76.3601C177.904 76.3601 177.444 76.475 177.042 76.7048C176.648 76.9346 176.34 77.2671 176.118 77.7021C175.897 78.1289 175.786 78.6296 175.786 79.2042C175.786 79.7787 175.897 80.2835 176.118 80.7186C176.34 81.1536 176.648 81.4901 177.042 81.7282C177.444 81.958 177.904 82.0729 178.421 82.0729ZM190.538 76.7048V83.5257H188.802V82.6639C188.58 82.9594 188.289 83.1933 187.928 83.3657C187.575 83.5298 187.189 83.6119 186.77 83.6119C186.237 83.6119 185.765 83.5011 185.355 83.2795C184.944 83.0496 184.62 82.7172 184.382 82.2822C184.152 81.839 184.037 81.3136 184.037 80.7062V76.7048H185.761V80.46C185.761 81.0017 185.896 81.4203 186.167 81.7158C186.438 82.0031 186.807 82.1468 187.275 82.1468C187.751 82.1468 188.125 82.0031 188.396 81.7158C188.666 81.4203 188.802 81.0017 188.802 80.46V76.7048H190.538ZM194.246 78.1207V81.4203C194.246 81.6502 194.299 81.8184 194.406 81.9251C194.521 82.0236 194.709 82.0729 194.972 82.0729H195.772V83.5257H194.689C193.236 83.5257 192.51 82.8198 192.51 81.408V78.1207H191.697V76.7048H192.51V75.0181H194.246V76.7048H195.772V78.1207H194.246ZM199.622 83.6365C199.064 83.6365 198.563 83.538 198.12 83.341C197.677 83.1358 197.324 82.8609 197.061 82.5161C196.807 82.1714 196.667 81.7897 196.642 81.3711H198.378C198.411 81.6338 198.538 81.8513 198.76 82.0236C198.99 82.196 199.273 82.2822 199.61 82.2822C199.938 82.2822 200.192 82.2165 200.373 82.0852C200.562 81.9539 200.656 81.7856 200.656 81.5804C200.656 81.3588 200.541 81.1946 200.311 81.0879C200.09 80.973 199.733 80.8499 199.24 80.7186C198.731 80.5954 198.313 80.4682 197.984 80.3369C197.664 80.2056 197.385 80.0045 197.147 79.7336C196.917 79.4627 196.802 79.0975 196.802 78.6378C196.802 78.2602 196.909 77.9155 197.123 77.6036C197.344 77.2917 197.656 77.0455 198.058 76.8649C198.469 76.6843 198.949 76.594 199.499 76.594C200.311 76.594 200.96 76.7992 201.444 77.2096C201.928 77.6118 202.195 78.1576 202.244 78.8471H200.595C200.57 78.5763 200.455 78.3629 200.25 78.2069C200.053 78.0427 199.786 77.9607 199.45 77.9607C199.138 77.9607 198.896 78.0181 198.723 78.133C198.559 78.2479 198.477 78.408 198.477 78.6132C198.477 78.843 198.592 79.0195 198.822 79.1426C199.051 79.2575 199.409 79.3765 199.893 79.4997C200.385 79.6228 200.792 79.75 201.112 79.8813C201.432 80.0127 201.707 80.2179 201.937 80.4969C202.175 80.7678 202.298 81.129 202.306 81.5804C202.306 81.9744 202.195 82.3273 201.974 82.6392C201.76 82.9511 201.448 83.1974 201.038 83.378C200.636 83.5503 200.164 83.6365 199.622 83.6365ZM206.75 83.6365C206.093 83.6365 205.502 83.4929 204.977 83.2056C204.451 82.9101 204.037 82.4956 203.733 81.9621C203.438 81.4286 203.29 80.813 203.29 80.1153C203.29 79.4176 203.442 78.802 203.745 78.2685C204.057 77.7349 204.48 77.3245 205.014 77.0373C205.547 76.7418 206.142 76.594 206.799 76.594C207.456 76.594 208.051 76.7418 208.584 77.0373C209.118 77.3245 209.536 77.7349 209.84 78.2685C210.152 78.802 210.308 79.4176 210.308 80.1153C210.308 80.813 210.148 81.4286 209.828 81.9621C209.516 82.4956 209.089 82.9101 208.547 83.2056C208.014 83.4929 207.414 83.6365 206.75 83.6365ZM206.75 82.1344C207.062 82.1344 207.353 82.0606 207.624 81.9128C207.903 81.7569 208.124 81.5271 208.289 81.2234C208.453 80.9197 208.535 80.5503 208.535 80.1153C208.535 79.4668 208.362 78.9702 208.018 78.6255C207.681 78.2726 207.267 78.0961 206.774 78.0961C206.282 78.0961 205.867 78.2726 205.531 78.6255C205.202 78.9702 205.038 79.4668 205.038 80.1153C205.038 80.7637 205.198 81.2644 205.518 81.6173C205.847 81.9621 206.257 82.1344 206.75 82.1344ZM218.012 76.7048V83.5257H216.276V82.6639C216.054 82.9594 215.763 83.1933 215.402 83.3657C215.049 83.5298 214.663 83.6119 214.245 83.6119C213.711 83.6119 213.239 83.5011 212.829 83.2795C212.418 83.0496 212.094 82.7172 211.856 82.2822C211.626 81.839 211.511 81.3136 211.511 80.7062V76.7048H213.235V80.46C213.235 81.0017 213.37 81.4203 213.641 81.7158C213.912 82.0031 214.282 82.1468 214.749 82.1468C215.225 82.1468 215.599 82.0031 215.87 81.7158C216.141 81.4203 216.276 81.0017 216.276 80.46V76.7048H218.012ZM221.436 77.7637C221.657 77.4025 221.945 77.1193 222.298 76.9141C222.659 76.7089 223.069 76.6063 223.529 76.6063V78.4162H223.073C222.532 78.4162 222.121 78.5434 221.842 78.7979C221.571 79.0523 221.436 79.4956 221.436 80.1276V83.5257H219.712V76.7048H221.436V77.7637ZM224.247 80.1153C224.247 79.4094 224.391 78.7938 224.678 78.2685C224.965 77.7349 225.363 77.3245 225.872 77.0373C226.381 76.7418 226.964 76.594 227.621 76.594C228.466 76.594 229.164 76.8074 229.714 77.2342C230.272 77.6529 230.645 78.2438 230.834 79.0072H228.975C228.876 78.7117 228.708 78.4819 228.47 78.3177C228.24 78.1453 227.953 78.0592 227.608 78.0592C227.116 78.0592 226.726 78.2397 226.439 78.6009C226.151 78.9538 226.008 79.4586 226.008 80.1153C226.008 80.7637 226.151 81.2685 226.439 81.6297C226.726 81.9826 227.116 82.1591 227.608 82.1591C228.306 82.1591 228.762 81.8472 228.975 81.2234H230.834C230.645 81.9621 230.272 82.549 229.714 82.984C229.156 83.419 228.458 83.6365 227.621 83.6365C226.964 83.6365 226.381 83.4929 225.872 83.2056C225.363 82.9101 224.965 82.4997 224.678 81.9744C224.391 81.4409 224.247 80.8212 224.247 80.1153ZM238.437 79.9675C238.437 80.2138 238.42 80.4354 238.388 80.6324H233.401C233.442 81.1249 233.615 81.5106 233.918 81.7897C234.222 82.0688 234.595 82.2083 235.039 82.2083C235.679 82.2083 236.134 81.9334 236.405 81.3834H238.264C238.067 82.0401 237.69 82.5818 237.132 83.0086C236.574 83.4272 235.888 83.6365 235.076 83.6365C234.419 83.6365 233.828 83.4929 233.303 83.2056C232.786 82.9101 232.379 82.4956 232.084 81.9621C231.796 81.4286 231.653 80.813 231.653 80.1153C231.653 79.4094 231.796 78.7897 232.084 78.2561C232.371 77.7226 232.773 77.3122 233.29 77.0249C233.807 76.7377 234.403 76.594 235.076 76.594C235.724 76.594 236.303 76.7336 236.812 77.0126C237.329 77.2917 237.727 77.6898 238.006 78.2069C238.293 78.7158 238.437 79.3027 238.437 79.9675ZM236.652 79.475C236.643 79.0318 236.483 78.6789 236.171 78.4162C235.859 78.1453 235.478 78.0099 235.026 78.0099C234.6 78.0099 234.238 78.1412 233.943 78.4039C233.656 78.6583 233.479 79.0154 233.413 79.475H236.652ZM248.477 74.9319V76.3231H246.187V83.5257H244.464V76.3231H242.174V74.9319H248.477ZM256.076 79.9675C256.076 80.2138 256.059 80.4354 256.027 80.6324H251.04C251.081 81.1249 251.254 81.5106 251.557 81.7897C251.861 82.0688 252.235 82.2083 252.678 82.2083C253.318 82.2083 253.774 81.9334 254.044 81.3834H255.904C255.707 82.0401 255.329 82.5818 254.771 83.0086C254.213 83.4272 253.527 83.6365 252.715 83.6365C252.058 83.6365 251.467 83.4929 250.942 83.2056C250.425 82.9101 250.018 82.4956 249.723 81.9621C249.436 81.4286 249.292 80.813 249.292 80.1153C249.292 79.4094 249.436 78.7897 249.723 78.2561C250.01 77.7226 250.412 77.3122 250.929 77.0249C251.447 76.7377 252.042 76.594 252.715 76.594C253.363 76.594 253.942 76.7336 254.451 77.0126C254.968 77.2917 255.366 77.6898 255.645 78.2069C255.932 78.7158 256.076 79.3027 256.076 79.9675ZM254.291 79.475C254.282 79.0318 254.122 78.6789 253.81 78.4162C253.499 78.1453 253.117 78.0099 252.665 78.0099C252.239 78.0099 251.877 78.1412 251.582 78.4039C251.295 78.6583 251.118 79.0154 251.053 79.475H254.291ZM256.891 80.0906C256.891 79.4012 257.026 78.7897 257.297 78.2561C257.576 77.7226 257.949 77.3122 258.417 77.0249C258.893 76.7377 259.423 76.594 260.005 76.594C260.514 76.594 260.958 76.6966 261.335 76.9018C261.721 77.107 262.029 77.3656 262.259 77.6775V76.7048H263.995V83.5257H262.259V82.5284C262.037 82.8485 261.729 83.1153 261.335 83.3287C260.949 83.5339 260.502 83.6365 259.993 83.6365C259.419 83.6365 258.893 83.4888 258.417 83.1933C257.949 82.8978 257.576 82.4833 257.297 81.9498C257.026 81.408 256.891 80.7883 256.891 80.0906ZM262.259 80.1153C262.259 79.6967 262.177 79.3396 262.012 79.0441C261.848 78.7404 261.627 78.5106 261.348 78.3546C261.068 78.1905 260.769 78.1084 260.449 78.1084C260.129 78.1084 259.833 78.1864 259.562 78.3423C259.291 78.4983 259.07 78.7281 258.897 79.0318C258.733 79.3273 258.651 79.6802 258.651 80.0906C258.651 80.501 258.733 80.8622 258.897 81.1741C259.07 81.4778 259.291 81.7117 259.562 81.8759C259.841 82.0401 260.137 82.1221 260.449 82.1221C260.769 82.1221 261.068 82.0442 261.348 81.8882C261.627 81.724 261.848 81.4942 262.012 81.1987C262.177 80.895 262.259 80.5339 262.259 80.1153ZM274.149 76.6063C274.986 76.6063 275.659 76.8649 276.168 77.382C276.685 77.8909 276.944 78.605 276.944 79.5243V83.5257H275.22V79.7582C275.22 79.2247 275.085 78.8184 274.814 78.5393C274.543 78.252 274.174 78.1084 273.706 78.1084C273.238 78.1084 272.864 78.252 272.585 78.5393C272.314 78.8184 272.179 79.2247 272.179 79.7582V83.5257H270.455V79.7582C270.455 79.2247 270.32 78.8184 270.049 78.5393C269.778 78.252 269.409 78.1084 268.941 78.1084C268.465 78.1084 268.087 78.252 267.808 78.5393C267.537 78.8184 267.402 79.2247 267.402 79.7582V83.5257H265.678V76.7048H267.402V77.5297C267.624 77.2425 267.907 77.0167 268.252 76.8526C268.604 76.6884 268.99 76.6063 269.409 76.6063C269.942 76.6063 270.418 76.7212 270.837 76.9511C271.256 77.1727 271.58 77.4928 271.81 77.9114C272.031 77.5174 272.351 77.2014 272.77 76.9634C273.197 76.7253 273.657 76.6063 274.149 76.6063Z" fill="white"/>
</svg>
