<svg width="218" height="465" viewBox="0 0 218 465" fill="none" xmlns="http://www.w3.org/2000/svg">
<g opacity="0.5">
<path d="M259.558 20.176L259.812 88.8209C259.816 92.2292 258.468 95.4998 256.065 97.9151C253.662 100.33 250.399 101.693 246.993 101.704L229.215 101.77C227.462 101.774 225.726 101.418 224.116 100.723C222.506 100.028 221.056 99.0097 219.855 97.7309L219.777 97.647C218.58 96.3168 217.651 94.7678 217.042 93.0851L216.95 92.8717C216.546 91.6169 216.338 90.3069 216.334 88.9884L216.247 65.4677C216.227 59.6286 214.362 53.9453 210.919 49.2309C207.476 44.5165 202.631 41.0125 197.077 39.2201C196.625 39.0797 196.219 38.8176 195.905 38.4625C195.591 38.1074 195.381 37.6728 195.297 37.2062C195.29 37.1373 195.29 37.0679 195.296 36.999L195.295 36.7464C195.295 36.3577 195.379 35.9736 195.542 35.6208C195.705 35.2679 195.943 34.9547 196.239 34.703L226.501 10.2799C228.787 8.42562 231.638 7.40958 234.581 7.40055L246.644 7.3559C248.333 7.34879 250.008 7.6748 251.571 8.31531C253.134 8.95581 254.556 9.89825 255.755 11.0888C256.955 12.2793 257.908 13.6946 258.56 15.2538C259.212 16.813 259.551 18.4856 259.558 20.176ZM240.943 96.5908L246.974 96.5685C249.01 96.5626 250.961 95.7492 252.398 94.3064C253.835 92.8637 254.642 90.9095 254.641 88.8724L254.387 20.1951C254.374 18.1564 253.554 16.2058 252.106 14.7714C250.658 13.3369 248.701 12.5356 246.663 12.5431L234.587 12.5878C232.825 12.6176 231.124 13.2347 229.752 14.3413L202.89 36.0124C208.429 38.6891 213.104 42.8717 216.379 48.0818C219.655 53.2919 221.399 59.3193 221.412 65.4745C221.413 65.74 221.414 65.9796 221.415 66.2775C221.423 66.3918 221.424 66.5065 221.416 66.6208L221.499 88.9951C221.507 89.7379 221.616 90.4762 221.824 91.1893C222.216 92.3058 222.824 93.3337 223.615 94.2135C224.328 94.9805 225.192 95.5916 226.153 96.0082C227.113 96.4249 228.149 96.638 229.196 96.6343L240.308 96.5931C240.4 96.5739 240.493 96.5627 240.587 96.5597C240.706 96.5576 240.825 96.568 240.943 96.5908Z" fill="#EAEAEA" fill-opacity="0.2"/>
<path d="M259.558 20.176L259.812 88.8209C259.816 92.2292 258.468 95.4998 256.065 97.9151C253.662 100.33 250.399 101.693 246.993 101.704L229.215 101.77C227.462 101.774 225.726 101.418 224.116 100.723C222.506 100.028 221.056 99.0097 219.855 97.7309L219.777 97.647C218.58 96.3168 217.651 94.7678 217.042 93.0851L216.95 92.8717C216.546 91.6169 216.338 90.3069 216.334 88.9884L216.247 65.4677C216.227 59.6286 214.362 53.9453 210.919 49.2309C207.476 44.5165 202.631 41.0125 197.077 39.2201C196.625 39.0797 196.219 38.8176 195.905 38.4625C195.591 38.1074 195.381 37.6728 195.297 37.2062C195.29 37.1373 195.29 37.0679 195.296 36.999L195.295 36.7464C195.295 36.3577 195.379 35.9736 195.542 35.6208C195.705 35.2679 195.943 34.9547 196.239 34.703L226.501 10.2799C228.787 8.42562 231.638 7.40958 234.581 7.40055L246.644 7.3559C248.333 7.34879 250.008 7.6748 251.571 8.31531C253.134 8.95581 254.556 9.89825 255.755 11.0888C256.955 12.2793 257.908 13.6946 258.56 15.2538C259.212 16.813 259.551 18.4856 259.558 20.176ZM240.943 96.5908L246.974 96.5685C249.01 96.5626 250.961 95.7492 252.398 94.3064C253.835 92.8637 254.642 90.9095 254.641 88.8724L254.387 20.1951C254.374 18.1564 253.554 16.2058 252.106 14.7714C250.658 13.3369 248.701 12.5356 246.663 12.5431L234.587 12.5878C232.825 12.6176 231.124 13.2347 229.752 14.3413L202.89 36.0124C208.429 38.6891 213.104 42.8717 216.379 48.0818C219.655 53.2919 221.399 59.3193 221.412 65.4745C221.413 65.74 221.414 65.9796 221.415 66.2775C221.423 66.3918 221.424 66.5065 221.416 66.6208L221.499 88.9951C221.507 89.7379 221.616 90.4762 221.824 91.1893C222.216 92.3058 222.824 93.3337 223.615 94.2135C224.328 94.9805 225.192 95.5916 226.153 96.0082C227.113 96.4249 228.149 96.638 229.196 96.6343L240.308 96.5931C240.4 96.5739 240.493 96.5627 240.587 96.5597C240.706 96.5576 240.825 96.568 240.943 96.5908Z" fill="#EAEAEA" fill-opacity="0.2"/>
<path d="M211.846 70.0215C211.877 75.7658 209.674 81.2895 205.718 85.3887C201.761 89.4879 196.372 91.8303 190.724 91.9054L190.32 91.9069C186.011 91.8987 181.805 90.5673 178.253 88.087C174.701 85.6068 171.967 82.0934 170.411 78.0069C168.855 73.9205 168.549 69.4515 169.532 65.1853C170.515 60.919 172.743 57.0544 175.922 54.0976C176.008 53.9945 176.08 53.9428 176.081 53.9575L176.232 53.8321L176.311 53.7658L176.397 53.6847L177.945 52.4382C178.031 52.3364 178.13 52.2471 178.24 52.1727C181.449 49.9156 185.205 48.5929 189.1 48.3476C192.995 48.1022 196.882 48.9435 200.342 50.7805C203.801 52.6176 206.702 55.3808 208.731 58.7717C210.759 62.1626 211.839 66.0525 211.853 70.0215L211.846 70.0215ZM179.829 58.3929C177.515 60.5563 175.894 63.3781 175.177 66.4912C174.461 69.6044 174.682 72.8648 175.812 75.8486C176.942 78.8325 178.929 81.4016 181.513 83.2219C184.098 85.0422 187.162 86.0295 190.305 86.0554L190.645 86.0541C194.747 85.9323 198.638 84.1807 201.484 81.175C204.331 78.1692 205.906 74.1487 205.871 69.9754C205.837 65.8022 204.196 61.8086 201.301 58.851C198.405 55.8933 194.485 54.2072 190.382 54.1542C187.25 54.1652 184.193 55.1387 181.614 56.9472L179.988 58.2748L179.836 58.3782L179.829 58.3929Z" fill="#EAEAEA" fill-opacity="0.2"/>
<path d="M169.384 182.757L169.13 114.112C169.109 110.704 167.767 107.443 165.4 105.045C163.032 102.648 159.832 101.309 156.502 101.323L139.119 101.388C137.404 101.396 135.71 101.765 134.141 102.472C132.572 103.178 131.161 104.207 129.996 105.495L129.921 105.579C128.76 106.918 127.864 108.474 127.28 110.161L127.192 110.375C126.806 111.633 126.612 112.944 126.618 114.263L126.705 137.783C126.728 143.623 124.947 149.319 121.614 154.059C118.282 158.798 113.571 162.338 108.154 164.171C107.712 164.314 107.318 164.579 107.014 164.937C106.709 165.294 106.506 165.73 106.428 166.198C106.422 166.267 106.422 166.336 106.428 166.405L106.429 166.657C106.432 167.046 106.517 167.43 106.679 167.781C106.841 168.133 107.076 168.444 107.367 168.694L137.135 192.895C139.384 194.732 142.179 195.727 145.056 195.715L156.851 195.671C158.503 195.666 160.137 195.328 161.661 194.676C163.185 194.024 164.569 193.071 165.732 191.872C166.896 190.672 167.818 189.25 168.444 187.686C169.071 186.122 169.39 184.447 169.384 182.757ZM150.623 106.48L156.521 106.459C158.512 106.45 160.424 107.249 161.84 108.681C163.256 110.113 164.059 112.061 164.073 114.098L164.328 182.776C164.33 184.814 163.542 186.771 162.137 188.216C160.732 189.661 158.824 190.477 156.832 190.484L145.024 190.528C143.301 190.511 141.633 189.906 140.284 188.81L113.861 167.336C119.257 164.619 123.797 160.402 126.962 155.168C130.126 149.934 131.787 143.894 131.755 137.739C131.754 137.473 131.753 137.234 131.752 136.936C131.759 136.822 131.759 136.707 131.751 136.593L131.668 114.218C131.67 113.475 131.771 112.736 131.97 112.022C132.344 110.902 132.932 109.87 133.699 108.985C134.39 108.212 135.23 107.595 136.167 107.171C137.103 106.748 138.114 106.527 139.138 106.523L150.003 106.483C150.093 106.501 150.184 106.512 150.275 106.514C150.392 106.515 150.509 106.504 150.623 106.48Z" fill="#EAEAEA" fill-opacity="0.2"/>
<path d="M122.016 132.907C122.004 127.068 119.724 121.471 115.67 117.334C111.617 113.198 106.121 110.858 100.378 110.824L99.9675 110.825C95.5872 110.866 91.3213 112.251 87.7285 114.798C84.1356 117.346 81.3834 120.937 79.8321 125.103C78.2809 129.268 78.003 133.812 79.0348 138.141C80.0666 142.469 82.3601 146.38 85.6148 149.362C85.7033 149.466 85.7768 149.518 85.7768 149.503L85.9314 149.629L86.0124 149.696L86.1007 149.778L87.6834 151.033C87.7715 151.136 87.8731 151.226 87.9853 151.301C91.2655 153.571 95.093 154.887 99.0548 155.107C103.017 155.327 106.962 154.442 110.465 152.549C113.969 150.656 116.897 147.826 118.934 144.364C120.971 140.903 122.039 136.941 122.023 132.907L122.016 132.907ZM89.5545 144.967C87.1851 142.785 85.5159 139.93 84.7641 136.771C84.0123 133.612 84.2126 130.297 85.339 127.255C86.4653 124.214 88.4657 121.588 91.0798 119.719C93.6939 117.849 96.801 116.823 99.9968 116.773L100.342 116.771C104.513 116.864 108.482 118.615 111.398 121.649C114.315 124.682 115.946 128.757 115.943 132.999C115.939 137.24 114.301 141.312 111.38 144.34C108.458 147.367 104.486 149.111 100.315 149.195C97.13 149.208 94.0156 148.241 91.38 146.423L89.7164 145.086L89.5619 144.982L89.5545 144.967Z" fill="#EAEAEA" fill-opacity="0.2"/>
<path d="M122.016 132.907C122.004 127.068 119.724 121.471 115.67 117.334C111.617 113.198 106.121 110.858 100.378 110.824L99.9675 110.825C95.5872 110.866 91.3213 112.251 87.7285 114.798C84.1356 117.346 81.3834 120.937 79.8321 125.103C78.2809 129.268 78.003 133.812 79.0348 138.141C80.0666 142.469 82.3601 146.38 85.6148 149.362C85.7033 149.466 85.7768 149.518 85.7768 149.503L85.9314 149.629L86.0124 149.696L86.1007 149.778L87.6834 151.033C87.7715 151.136 87.8731 151.226 87.9853 151.301C91.2655 153.571 95.093 154.887 99.0548 155.107C103.017 155.327 106.962 154.442 110.465 152.549C113.969 150.656 116.897 147.826 118.934 144.364C120.971 140.903 122.039 136.941 122.023 132.907L122.016 132.907ZM89.5545 144.967C87.1851 142.785 85.5159 139.93 84.7641 136.771C84.0123 133.612 84.2126 130.297 85.339 127.255C86.4653 124.214 88.4657 121.588 91.0798 119.719C93.6939 117.849 96.801 116.823 99.9968 116.773L100.342 116.771C104.513 116.864 108.482 118.615 111.398 121.649C114.315 124.682 115.946 128.757 115.943 132.999C115.939 137.24 114.301 141.312 111.38 144.34C108.458 147.367 104.486 149.111 100.315 149.195C97.13 149.208 94.0156 148.241 91.38 146.423L89.7164 145.086L89.5619 144.982L89.5545 144.967Z" fill="#EAEAEA" fill-opacity="0.2"/>
<path d="M112.485 451.721L112.231 383.076C112.21 379.667 110.854 376.407 108.459 374.009C106.065 371.612 102.829 370.273 99.4606 370.287L81.88 370.352C80.1461 370.361 78.4324 370.73 76.8453 371.437C75.2582 372.143 73.8315 373.172 72.6536 374.46L72.5772 374.544C71.4035 375.883 70.4966 377.439 69.9061 379.126L69.8173 379.34C69.4263 380.598 69.2304 381.91 69.2365 383.228L69.3236 406.749C69.3468 412.588 67.5445 418.285 64.1744 423.024C60.8043 427.764 56.0391 431.304 50.5605 433.137C50.114 433.281 49.715 433.546 49.4071 433.903C49.0992 434.261 48.8942 434.697 48.8144 435.164C48.8083 435.233 48.8086 435.302 48.8152 435.371L48.8161 435.624C48.8188 436.012 48.9051 436.396 49.0688 436.747C49.2326 437.099 49.4699 437.411 49.7644 437.66L79.87 461.86C82.1439 463.697 84.9706 464.692 87.8804 464.679L99.8098 464.635C101.48 464.63 103.133 464.292 104.675 463.64C106.216 462.988 107.615 462.035 108.792 460.835C109.969 459.636 110.901 458.214 111.535 456.65C112.169 455.086 112.491 453.411 112.485 451.721ZM93.5149 375.445L99.4796 375.423C101.493 375.414 103.427 376.213 104.859 377.645C106.291 379.077 107.103 381.025 107.117 383.062L107.372 451.739C107.374 453.778 106.577 455.735 105.156 457.18C103.735 458.625 101.805 459.441 99.7906 459.448L87.8484 459.492C86.1062 459.475 84.4193 458.871 83.0549 457.774L56.3322 436.302C61.7901 433.584 66.3818 429.367 69.5824 424.133C72.783 418.899 74.4631 412.859 74.4306 406.704C74.4296 406.439 74.4287 406.199 74.4276 405.901C74.4353 405.787 74.4349 405.672 74.4264 405.558L74.3435 383.183C74.3458 382.441 74.4485 381.702 74.649 380.987C75.0279 379.868 75.6223 378.835 76.3978 377.95C77.0972 377.177 77.947 376.56 78.8938 376.136C79.8406 375.713 80.8638 375.492 81.899 375.488L92.8877 375.447C92.9784 375.466 93.0705 375.476 93.163 375.479C93.2811 375.48 93.3991 375.468 93.5149 375.445Z" fill="#EAEAEA" fill-opacity="0.2"/>
<path d="M112.485 451.721L112.231 383.076C112.21 379.667 110.854 376.407 108.459 374.009C106.065 371.612 102.829 370.273 99.4606 370.287L81.88 370.352C80.1461 370.361 78.4324 370.73 76.8453 371.437C75.2582 372.143 73.8315 373.172 72.6536 374.46L72.5772 374.544C71.4035 375.883 70.4966 377.439 69.9061 379.126L69.8173 379.34C69.4263 380.598 69.2304 381.91 69.2365 383.228L69.3236 406.749C69.3468 412.588 67.5445 418.285 64.1744 423.024C60.8043 427.764 56.0391 431.304 50.5605 433.137C50.114 433.281 49.715 433.546 49.4071 433.903C49.0992 434.261 48.8942 434.697 48.8144 435.164C48.8083 435.233 48.8086 435.302 48.8152 435.371L48.8161 435.624C48.8188 436.012 48.9051 436.396 49.0688 436.747C49.2326 437.099 49.4699 437.411 49.7644 437.66L79.87 461.86C82.1439 463.697 84.9706 464.692 87.8804 464.679L99.8098 464.635C101.48 464.63 103.133 464.292 104.675 463.64C106.216 462.988 107.615 462.035 108.792 460.835C109.969 459.636 110.901 458.214 111.535 456.65C112.169 455.086 112.491 453.411 112.485 451.721ZM93.5149 375.445L99.4796 375.423C101.493 375.414 103.427 376.213 104.859 377.645C106.291 379.077 107.103 381.025 107.117 383.062L107.372 451.739C107.374 453.778 106.577 455.735 105.156 457.18C103.735 458.625 101.805 459.441 99.7906 459.448L87.8484 459.492C86.1062 459.475 84.4193 458.871 83.0549 457.774L56.3322 436.302C61.7901 433.584 66.3818 429.367 69.5824 424.133C72.783 418.899 74.4631 412.859 74.4306 406.704C74.4296 406.439 74.4287 406.199 74.4276 405.901C74.4353 405.787 74.4349 405.672 74.4264 405.558L74.3435 383.183C74.3458 382.441 74.4485 381.702 74.649 380.987C75.0279 379.868 75.6223 378.835 76.3978 377.95C77.0972 377.177 77.947 376.56 78.8938 376.136C79.8406 375.713 80.8638 375.492 81.899 375.488L92.8877 375.447C92.9784 375.466 93.0705 375.476 93.163 375.479C93.2811 375.48 93.3991 375.468 93.5149 375.445Z" fill="#EAEAEA" fill-opacity="0.2"/>
<path d="M64.4031 401.872C64.3911 396.033 62.1842 390.435 58.2636 386.298C54.3429 382.161 49.0262 379.821 43.4722 379.786L43.0747 379.787C38.838 379.828 34.7121 381.212 31.2374 383.759C27.7627 386.306 25.1011 389.897 23.6012 394.062C22.1013 398.227 21.8331 402.771 22.8316 407.1C23.8301 411.429 26.0488 415.34 29.1972 418.322C29.2828 418.426 29.354 418.478 29.3539 418.463L29.5035 418.59L29.5818 418.656L29.6673 418.738L31.1982 419.994C31.2834 420.097 31.3817 420.187 31.4902 420.261C34.6631 422.532 38.3654 423.848 42.1973 424.069C46.0292 424.289 49.8452 423.405 53.2335 421.513C56.6218 419.62 59.4537 416.79 61.4234 413.329C63.3931 409.867 64.4258 405.906 64.4102 401.872L64.4031 401.872ZM33.0072 413.928C30.7152 411.746 29.1005 408.89 28.3729 405.731C27.6454 402.572 27.8387 399.257 28.9278 396.216C30.0168 393.175 31.9512 390.549 34.4795 388.68C37.0077 386.811 40.0127 385.784 43.1038 385.735L43.4374 385.734C47.4716 385.827 51.3109 387.578 54.1321 390.612C56.9533 393.646 58.5317 397.721 58.5288 401.963C58.5259 406.205 56.942 410.276 54.1167 413.303C51.2915 416.331 47.4498 418.073 43.4155 418.158C40.3349 418.17 37.3224 417.203 34.7731 415.384L33.1638 414.046L33.0143 413.943L33.0072 413.928Z" fill="#EAEAEA" fill-opacity="0.2"/>
<path d="M78.9602 278.058L78.7041 208.893C78.7 205.459 80.0473 202.164 82.4504 199.731C84.8535 197.297 88.1161 195.924 91.5222 195.913L109.3 195.848C111.054 195.843 112.789 196.202 114.4 196.902C116.01 197.603 117.46 198.629 118.661 199.917L118.739 200.002C119.936 201.342 120.864 202.903 121.474 204.598L121.565 204.813C121.97 206.078 122.178 207.397 122.182 208.726L122.269 232.425C122.29 238.308 124.155 244.035 127.598 248.785C131.041 253.535 135.886 257.066 141.44 258.872C141.893 259.013 142.298 259.277 142.612 259.635C142.926 259.993 143.137 260.431 143.221 260.901C143.228 260.97 143.228 261.04 143.222 261.11L143.223 261.364C143.223 261.756 143.138 262.143 142.975 262.499C142.813 262.854 142.575 263.17 142.279 263.423L112.017 288.03C109.731 289.899 106.88 290.922 103.938 290.931L91.8741 290.976C90.1848 290.983 88.5107 290.655 86.9474 290.009C85.384 289.364 83.9621 288.414 82.7628 287.215C81.5636 286.015 80.6105 284.589 79.958 283.018C79.3055 281.447 78.9665 279.762 78.9602 278.058ZM97.5731 201.065L91.5414 201.088C89.5056 201.093 87.5553 201.913 86.1181 203.367C84.6809 204.82 83.8742 206.789 83.875 208.842L84.1311 278.039C84.1439 280.094 84.9641 282.059 86.4121 283.504C87.86 284.95 89.8173 285.757 91.8548 285.75L103.931 285.705C105.693 285.675 107.394 285.053 108.766 283.938L135.627 262.104C130.088 259.407 125.413 255.192 122.138 249.942C118.862 244.693 117.118 238.62 117.105 232.418C117.104 232.15 117.103 231.909 117.102 231.609C117.093 231.494 117.093 231.378 117.101 231.263L117.017 208.719C117.009 207.971 116.9 207.227 116.692 206.508C116.3 205.383 115.692 204.348 114.901 203.461C114.188 202.688 113.324 202.072 112.363 201.653C111.403 201.233 110.366 201.018 109.319 201.022L98.2073 201.063C98.1158 201.082 98.0227 201.094 97.9292 201.097C97.8097 201.099 97.6904 201.088 97.5731 201.065Z" fill="#EAEAEA" fill-opacity="0.2"/>
<path d="M78.9602 278.058L78.7041 208.893C78.7 205.459 80.0473 202.164 82.4504 199.731C84.8535 197.297 88.1161 195.924 91.5222 195.913L109.3 195.848C111.054 195.843 112.789 196.202 114.4 196.902C116.01 197.603 117.46 198.629 118.661 199.917L118.739 200.002C119.936 201.342 120.864 202.903 121.474 204.598L121.565 204.813C121.97 206.078 122.178 207.397 122.182 208.726L122.269 232.425C122.29 238.308 124.155 244.035 127.598 248.785C131.041 253.535 135.886 257.066 141.44 258.872C141.893 259.013 142.298 259.277 142.612 259.635C142.926 259.993 143.137 260.431 143.221 260.901C143.228 260.97 143.228 261.04 143.222 261.11L143.223 261.364C143.223 261.756 143.138 262.143 142.975 262.499C142.813 262.854 142.575 263.17 142.279 263.423L112.017 288.03C109.731 289.899 106.88 290.922 103.938 290.931L91.8741 290.976C90.1848 290.983 88.5107 290.655 86.9474 290.009C85.384 289.364 83.9621 288.414 82.7628 287.215C81.5636 286.015 80.6105 284.589 79.958 283.018C79.3055 281.447 78.9665 279.762 78.9602 278.058ZM97.5731 201.065L91.5414 201.088C89.5056 201.093 87.5553 201.913 86.1181 203.367C84.6809 204.82 83.8742 206.789 83.875 208.842L84.1311 278.039C84.1439 280.094 84.9641 282.059 86.4121 283.504C87.86 284.95 89.8173 285.757 91.8548 285.75L103.931 285.705C105.693 285.675 107.394 285.053 108.766 283.938L135.627 262.104C130.088 259.407 125.413 255.192 122.138 249.942C118.862 244.693 117.118 238.62 117.105 232.418C117.104 232.15 117.103 231.909 117.102 231.609C117.093 231.494 117.093 231.378 117.101 231.263L117.017 208.719C117.009 207.971 116.9 207.227 116.692 206.508C116.3 205.383 115.692 204.348 114.901 203.461C114.188 202.688 113.324 202.072 112.363 201.653C111.403 201.233 110.366 201.018 109.319 201.022L98.2073 201.063C98.1158 201.082 98.0227 201.094 97.9292 201.097C97.8097 201.099 97.6904 201.088 97.5731 201.065Z" fill="#EAEAEA" fill-opacity="0.2"/>
<path d="M127.386 227.951C127.355 222.112 129.52 216.498 133.41 212.332C137.3 208.166 142.599 205.786 148.153 205.711L148.55 205.709C152.787 205.718 156.923 207.072 160.417 209.593C163.91 212.114 166.598 215.686 168.129 219.839C169.66 223.993 169.961 228.535 168.995 232.871C168.029 237.207 165.839 241.135 162.713 244.14C162.628 244.245 162.557 244.297 162.557 244.282L162.408 244.41L162.331 244.477L162.246 244.56L160.724 245.826C160.64 245.93 160.542 246.021 160.434 246.096C157.278 248.39 153.586 249.734 149.756 249.983C145.925 250.232 142.103 249.376 138.701 247.508C135.298 245.641 132.446 242.832 130.45 239.385C128.455 235.939 127.393 231.985 127.379 227.951L127.386 227.951ZM158.87 239.774C161.146 237.575 162.74 234.707 163.444 231.543C164.148 228.379 163.93 225.065 162.818 222.032C161.707 219 159.753 216.388 157.211 214.538C154.669 212.687 151.657 211.683 148.565 211.657L148.232 211.658C144.198 211.781 140.372 213.561 137.573 216.616C134.775 219.67 133.227 223.757 133.261 227.998C133.295 232.24 134.909 236.299 137.757 239.306C140.604 242.312 144.459 244.026 148.494 244.081C151.574 244.07 154.579 243.081 157.115 241.243L158.715 239.894L158.863 239.789L158.87 239.774Z" fill="#EAEAEA" fill-opacity="0.2"/>
<path d="M127.386 227.951C127.355 222.112 129.52 216.498 133.41 212.332C137.3 208.166 142.599 205.786 148.153 205.711L148.55 205.709C152.787 205.718 156.923 207.072 160.417 209.593C163.91 212.114 166.598 215.686 168.129 219.839C169.66 223.993 169.961 228.535 168.995 232.871C168.029 237.207 165.839 241.135 162.713 244.14C162.628 244.245 162.557 244.297 162.557 244.282L162.408 244.41L162.331 244.477L162.246 244.56L160.724 245.826C160.64 245.93 160.542 246.021 160.434 246.096C157.278 248.39 153.586 249.734 149.756 249.983C145.925 250.232 142.103 249.376 138.701 247.508C135.298 245.641 132.446 242.832 130.45 239.385C128.455 235.939 127.393 231.985 127.379 227.951L127.386 227.951ZM158.87 239.774C161.146 237.575 162.74 234.707 163.444 231.543C164.148 228.379 163.93 225.065 162.818 222.032C161.707 219 159.753 216.388 157.211 214.538C154.669 212.687 151.657 211.683 148.565 211.657L148.232 211.658C144.198 211.781 140.372 213.561 137.573 216.616C134.775 219.67 133.227 223.757 133.261 227.998C133.295 232.24 134.909 236.299 137.757 239.306C140.604 242.312 144.459 244.026 148.494 244.081C151.574 244.07 154.579 243.081 157.115 241.243L158.715 239.894L158.863 239.789L158.87 239.774Z" fill="#EAEAEA" fill-opacity="0.2"/>
<path d="M179.136 114.107L179.39 182.752C179.411 186.161 180.783 189.421 183.204 191.819C185.625 194.216 188.897 195.554 192.303 195.54L210.082 195.474C211.835 195.465 213.568 195.096 215.173 194.39C216.778 193.683 218.221 192.654 219.412 191.366L219.489 191.282C220.676 189.943 221.593 188.387 222.19 186.7L222.28 186.486C222.676 185.228 222.874 183.916 222.868 182.598L222.781 159.077C222.757 153.238 224.58 147.541 227.988 142.801C231.396 138.062 236.215 134.522 241.756 132.688C242.207 132.545 242.611 132.28 242.922 131.922C243.233 131.565 243.441 131.129 243.521 130.661C243.528 130.592 243.527 130.523 243.521 130.454L243.52 130.202C243.517 129.813 243.43 129.429 243.264 129.078C243.099 128.726 242.859 128.415 242.561 128.165L212.118 103.967C209.819 102.13 206.96 101.135 204.018 101.147L191.954 101.192C190.265 101.197 188.593 101.536 187.035 102.188C185.476 102.84 184.061 103.793 182.871 104.992C181.681 106.192 180.738 107.614 180.097 109.178C179.456 110.742 179.13 112.417 179.136 114.107ZM198.316 190.382L192.284 190.405C190.249 190.414 188.292 189.615 186.845 188.183C185.397 186.751 184.575 184.803 184.561 182.766L184.307 114.088C184.304 112.049 185.11 110.093 186.547 108.648C187.985 107.203 189.936 106.387 191.973 106.379L204.05 106.335C205.812 106.351 207.517 106.956 208.897 108.052L235.919 129.524C230.4 132.241 225.756 136.459 222.52 141.693C219.283 146.927 217.584 152.967 217.616 159.122C217.617 159.388 217.618 159.627 217.619 159.925C217.611 160.04 217.612 160.154 217.62 160.269L217.703 182.643C217.701 183.386 217.597 184.125 217.394 184.839C217.011 185.959 216.41 186.991 215.626 187.877C214.918 188.649 214.059 189.267 213.102 189.69C212.144 190.114 211.109 190.335 210.063 190.339L198.95 190.38C198.859 190.361 198.766 190.351 198.672 190.349C198.553 190.347 198.433 190.359 198.316 190.382Z" fill="#EAEAEA" fill-opacity="0.2"/>
<path d="M179.136 114.107L179.39 182.752C179.411 186.161 180.783 189.421 183.204 191.819C185.625 194.216 188.897 195.554 192.303 195.54L210.082 195.474C211.835 195.465 213.568 195.096 215.173 194.39C216.778 193.683 218.221 192.654 219.412 191.366L219.489 191.282C220.676 189.943 221.593 188.387 222.19 186.7L222.28 186.486C222.676 185.228 222.874 183.916 222.868 182.598L222.781 159.077C222.757 153.238 224.58 147.541 227.988 142.801C231.396 138.062 236.215 134.522 241.756 132.688C242.207 132.545 242.611 132.28 242.922 131.922C243.233 131.565 243.441 131.129 243.521 130.661C243.528 130.592 243.527 130.523 243.521 130.454L243.52 130.202C243.517 129.813 243.43 129.429 243.264 129.078C243.099 128.726 242.859 128.415 242.561 128.165L212.118 103.967C209.819 102.13 206.96 101.135 204.018 101.147L191.954 101.192C190.265 101.197 188.593 101.536 187.035 102.188C185.476 102.84 184.061 103.793 182.871 104.992C181.681 106.192 180.738 107.614 180.097 109.178C179.456 110.742 179.13 112.417 179.136 114.107ZM198.316 190.382L192.284 190.405C190.249 190.414 188.292 189.615 186.845 188.183C185.397 186.751 184.575 184.803 184.561 182.766L184.307 114.088C184.304 112.049 185.11 110.093 186.547 108.648C187.985 107.203 189.936 106.387 191.973 106.379L204.05 106.335C205.812 106.351 207.517 106.956 208.897 108.052L235.919 129.524C230.4 132.241 225.756 136.459 222.52 141.693C219.283 146.927 217.584 152.967 217.616 159.122C217.617 159.388 217.618 159.627 217.619 159.925C217.611 160.04 217.612 160.154 217.62 160.269L217.703 182.643C217.701 183.386 217.597 184.125 217.394 184.839C217.011 185.959 216.41 186.991 215.626 187.877C214.918 188.649 214.059 189.267 213.102 189.69C212.144 190.114 211.109 190.335 210.063 190.339L198.95 190.38C198.859 190.361 198.766 190.351 198.672 190.349C198.553 190.347 198.433 190.359 198.316 190.382Z" fill="#EAEAEA" fill-opacity="0.2"/>
<path d="M206.132 262.679L206.386 331.324C206.39 334.733 205.043 338.003 202.64 340.419C200.236 342.834 196.974 344.196 193.568 344.207L175.79 344.273C174.036 344.277 172.3 343.921 170.69 343.226C169.08 342.531 167.63 341.513 166.429 340.234L166.351 340.15C165.154 338.82 164.226 337.271 163.616 335.588L163.525 335.375C163.12 334.12 162.912 332.81 162.908 331.492L162.821 307.971C162.801 302.132 160.936 296.449 157.493 291.734C154.05 287.02 149.205 283.516 143.652 281.724C143.199 281.583 142.794 281.321 142.48 280.966C142.166 280.611 141.955 280.176 141.871 279.71C141.864 279.641 141.864 279.571 141.87 279.502L141.869 279.25C141.869 278.861 141.953 278.477 142.116 278.124C142.279 277.771 142.517 277.458 142.813 277.206L173.076 252.783C175.361 250.929 178.212 249.913 181.155 249.904L193.218 249.859C194.908 249.852 196.582 250.178 198.145 250.819C199.708 251.459 201.13 252.402 202.33 253.592C203.529 254.783 204.482 256.198 205.134 257.757C205.787 259.316 206.126 260.989 206.132 262.679ZM187.517 339.094L193.549 339.072C195.584 339.066 197.535 338.253 198.972 336.81C200.409 335.367 201.216 333.413 201.215 331.376L200.961 262.699C200.948 260.66 200.128 258.709 198.68 257.275C197.232 255.84 195.275 255.039 193.238 255.047L181.161 255.091C179.4 255.121 177.698 255.738 176.327 256.845L149.464 278.516C155.004 281.192 159.678 285.375 162.954 290.585C166.229 295.795 167.973 301.823 167.986 307.978C167.987 308.243 167.988 308.483 167.989 308.781C167.998 308.895 167.998 309.01 167.99 309.124L168.073 331.499C168.081 332.241 168.19 332.98 168.398 333.693C168.79 334.809 169.398 335.837 170.189 336.717C170.902 337.484 171.766 338.095 172.727 338.512C173.687 338.928 174.724 339.141 175.771 339.138L186.883 339.097C186.974 339.077 187.067 339.066 187.161 339.063C187.28 339.061 187.4 339.071 187.517 339.094Z" fill="#EAEAEA" fill-opacity="0.2"/>
<path d="M206.132 262.679L206.386 331.324C206.39 334.733 205.043 338.003 202.64 340.419C200.236 342.834 196.974 344.196 193.568 344.207L175.79 344.273C174.036 344.277 172.3 343.921 170.69 343.226C169.08 342.531 167.63 341.513 166.429 340.234L166.351 340.15C165.154 338.82 164.226 337.271 163.616 335.588L163.525 335.375C163.12 334.12 162.912 332.81 162.908 331.492L162.821 307.971C162.801 302.132 160.936 296.449 157.493 291.734C154.05 287.02 149.205 283.516 143.652 281.724C143.199 281.583 142.794 281.321 142.48 280.966C142.166 280.611 141.955 280.176 141.871 279.71C141.864 279.641 141.864 279.571 141.87 279.502L141.869 279.25C141.869 278.861 141.953 278.477 142.116 278.124C142.279 277.771 142.517 277.458 142.813 277.206L173.076 252.783C175.361 250.929 178.212 249.913 181.155 249.904L193.218 249.859C194.908 249.852 196.582 250.178 198.145 250.819C199.708 251.459 201.13 252.402 202.33 253.592C203.529 254.783 204.482 256.198 205.134 257.757C205.787 259.316 206.126 260.989 206.132 262.679ZM187.517 339.094L193.549 339.072C195.584 339.066 197.535 338.253 198.972 336.81C200.409 335.367 201.216 333.413 201.215 331.376L200.961 262.699C200.948 260.66 200.128 258.709 198.68 257.275C197.232 255.84 195.275 255.039 193.238 255.047L181.161 255.091C179.4 255.121 177.698 255.738 176.327 256.845L149.464 278.516C155.004 281.192 159.678 285.375 162.954 290.585C166.229 295.795 167.973 301.823 167.986 307.978C167.987 308.243 167.988 308.483 167.989 308.781C167.998 308.895 167.998 309.01 167.99 309.124L168.073 331.499C168.081 332.241 168.19 332.98 168.398 333.693C168.79 334.809 169.398 335.837 170.189 336.717C170.902 337.484 171.766 338.095 172.727 338.512C173.687 338.928 174.724 339.141 175.771 339.138L186.883 339.097C186.974 339.077 187.067 339.066 187.161 339.063C187.28 339.061 187.4 339.071 187.517 339.094Z" fill="#EAEAEA" fill-opacity="0.2"/>
<path d="M157.708 312.885C157.739 318.724 155.574 324.338 151.684 328.504C147.794 332.669 142.495 335.05 136.941 335.125L136.543 335.127C132.307 335.118 128.171 333.764 124.677 331.243C121.184 328.721 118.495 325.15 116.965 320.996C115.434 316.843 115.132 312.301 116.099 307.965C117.065 303.628 119.255 299.701 122.381 296.696C122.466 296.591 122.537 296.539 122.537 296.554L122.685 296.426L122.763 296.359L122.848 296.276L124.37 295.009C124.454 294.906 124.552 294.815 124.66 294.74C127.816 292.446 131.508 291.102 135.338 290.853C139.168 290.604 142.991 291.46 146.393 293.327C149.795 295.195 152.648 298.004 154.643 301.451C156.639 304.897 157.701 308.851 157.715 312.885L157.708 312.885ZM126.223 301.062C123.948 303.261 122.354 306.128 121.65 309.293C120.946 312.457 121.164 315.771 122.275 318.803C123.387 321.836 125.341 324.448 127.883 326.298C130.425 328.149 133.437 329.153 136.528 329.179L136.862 329.178C140.896 329.055 144.722 327.275 147.52 324.22C150.319 321.166 151.867 317.079 151.833 312.838C151.799 308.596 150.185 304.537 147.337 301.53C144.489 298.524 140.635 296.81 136.6 296.755C133.52 296.766 130.514 297.755 127.979 299.593L126.379 300.942L126.231 301.047L126.223 301.062Z" fill="#EAEAEA" fill-opacity="0.2"/>
<path d="M157.708 312.885C157.739 318.724 155.574 324.338 151.684 328.504C147.794 332.669 142.495 335.05 136.941 335.125L136.543 335.127C132.307 335.118 128.171 333.764 124.677 331.243C121.184 328.721 118.495 325.15 116.965 320.996C115.434 316.843 115.132 312.301 116.099 307.965C117.065 303.628 119.255 299.701 122.381 296.696C122.466 296.591 122.537 296.539 122.537 296.554L122.685 296.426L122.763 296.359L122.848 296.276L124.37 295.009C124.454 294.906 124.552 294.815 124.66 294.74C127.816 292.446 131.508 291.102 135.338 290.853C139.168 290.604 142.991 291.46 146.393 293.327C149.795 295.195 152.648 298.004 154.643 301.451C156.639 304.897 157.701 308.851 157.715 312.885L157.708 312.885ZM126.223 301.062C123.948 303.261 122.354 306.128 121.65 309.293C120.946 312.457 121.164 315.771 122.275 318.803C123.387 321.836 125.341 324.448 127.883 326.298C130.425 328.149 133.437 329.153 136.528 329.179L136.862 329.178C140.896 329.055 144.722 327.275 147.52 324.22C150.319 321.166 151.867 317.079 151.833 312.838C151.799 308.596 150.185 304.537 147.337 301.53C144.489 298.524 140.635 296.81 136.6 296.755C133.52 296.766 130.514 297.755 127.979 299.593L126.379 300.942L126.231 301.047L126.223 301.062Z" fill="#EAEAEA" fill-opacity="0.2"/>
<path d="M124.997 356.712L125.253 425.877C125.274 429.311 126.661 432.596 129.109 435.011C131.557 437.427 134.866 438.775 138.31 438.761L156.285 438.694C158.058 438.685 159.81 438.313 161.433 437.601C163.056 436.889 164.515 435.853 165.719 434.555L165.797 434.47C166.998 433.121 167.925 431.553 168.529 429.853L168.62 429.638C169.019 428.37 169.22 427.049 169.214 425.72L169.126 402.022C169.102 396.138 170.946 390.398 174.392 385.622C177.838 380.847 182.71 377.28 188.312 375.433C188.769 375.288 189.177 375.021 189.491 374.66C189.806 374.3 190.016 373.861 190.098 373.39C190.104 373.321 190.104 373.251 190.097 373.181L190.096 372.927C190.093 372.535 190.005 372.149 189.838 371.795C189.67 371.44 189.427 371.126 189.126 370.875L158.346 346.494C156.021 344.643 153.131 343.64 150.155 343.653L137.958 343.698C136.25 343.704 134.56 344.045 132.984 344.702C131.408 345.359 129.977 346.319 128.774 347.527C127.57 348.736 126.617 350.169 125.969 351.745C125.321 353.321 124.991 355.008 124.997 356.712ZM144.389 433.564L138.291 433.587C136.232 433.596 134.254 432.791 132.79 431.348C131.326 429.905 130.496 427.942 130.481 425.89L130.225 356.692C130.223 354.638 131.038 352.667 132.491 351.21C133.944 349.754 135.917 348.932 137.977 348.925L150.188 348.88C151.969 348.896 153.694 349.505 155.089 350.61L182.411 372.244C176.83 374.982 172.135 379.231 168.862 384.505C165.589 389.779 163.871 395.865 163.904 402.067C163.905 402.334 163.906 402.576 163.907 402.876C163.899 402.991 163.9 403.107 163.908 403.222L163.992 425.766C163.99 426.514 163.884 427.259 163.679 427.979C163.292 429.107 162.684 430.147 161.891 431.039C161.176 431.817 160.307 432.44 159.339 432.867C158.371 433.294 157.325 433.516 156.266 433.52L145.031 433.562C144.938 433.543 144.844 433.532 144.749 433.53C144.628 433.529 144.508 433.54 144.389 433.564Z" fill="#EAEAEA" fill-opacity="0.2"/>
<path d="M124.997 356.712L125.253 425.877C125.274 429.311 126.661 432.596 129.109 435.011C131.557 437.427 134.866 438.775 138.31 438.761L156.285 438.694C158.058 438.685 159.81 438.313 161.433 437.601C163.056 436.889 164.515 435.853 165.719 434.555L165.797 434.47C166.998 433.121 167.925 431.553 168.529 429.853L168.62 429.638C169.019 428.37 169.22 427.049 169.214 425.72L169.126 402.022C169.102 396.138 170.946 390.398 174.392 385.622C177.838 380.847 182.71 377.28 188.312 375.433C188.769 375.288 189.177 375.021 189.491 374.66C189.806 374.3 190.016 373.861 190.098 373.39C190.104 373.321 190.104 373.251 190.097 373.181L190.096 372.927C190.093 372.535 190.005 372.149 189.838 371.795C189.67 371.44 189.427 371.126 189.126 370.875L158.346 346.494C156.021 344.643 153.131 343.64 150.155 343.653L137.958 343.698C136.25 343.704 134.56 344.045 132.984 344.702C131.408 345.359 129.977 346.319 128.774 347.527C127.57 348.736 126.617 350.169 125.969 351.745C125.321 353.321 124.991 355.008 124.997 356.712ZM144.389 433.564L138.291 433.587C136.232 433.596 134.254 432.791 132.79 431.348C131.326 429.905 130.496 427.942 130.481 425.89L130.225 356.692C130.223 354.638 131.038 352.667 132.491 351.21C133.944 349.754 135.917 348.932 137.977 348.925L150.188 348.88C151.969 348.896 153.694 349.505 155.089 350.61L182.411 372.244C176.83 374.982 172.135 379.231 168.862 384.505C165.589 389.779 163.871 395.865 163.904 402.067C163.905 402.334 163.906 402.576 163.907 402.876C163.899 402.991 163.9 403.107 163.908 403.222L163.992 425.766C163.99 426.514 163.884 427.259 163.679 427.979C163.292 429.107 162.684 430.147 161.891 431.039C161.176 431.817 160.307 432.44 159.339 432.867C158.371 433.294 157.325 433.516 156.266 433.52L145.031 433.562C144.938 433.543 144.844 433.532 144.749 433.53C144.628 433.529 144.508 433.54 144.389 433.564Z" fill="#EAEAEA" fill-opacity="0.2"/>
<path d="M173.794 406.102C173.805 411.846 176.049 417.354 180.035 421.423C184.022 425.493 189.428 427.796 195.077 427.829L195.481 427.827C199.789 427.787 203.985 426.425 207.519 423.918C211.053 421.412 213.76 417.878 215.286 413.78C216.812 409.683 217.085 405.211 216.07 400.953C215.055 396.694 212.8 392.846 209.598 389.913C209.511 389.81 209.439 389.759 209.439 389.774L209.287 389.649L209.207 389.584L209.12 389.503L207.564 388.268C207.477 388.167 207.377 388.078 207.267 388.005C204.04 385.772 200.275 384.477 196.379 384.26C192.482 384.044 188.601 384.914 185.155 386.776C181.709 388.639 178.829 391.424 176.825 394.829C174.822 398.235 173.771 402.133 173.786 406.102L173.794 406.102ZM205.723 394.237C208.054 396.383 209.695 399.193 210.435 402.3C211.174 405.408 210.977 408.67 209.87 411.662C208.762 414.654 206.794 417.238 204.223 419.077C201.652 420.917 198.595 421.927 195.452 421.976L195.113 421.977C191.01 421.886 187.106 420.163 184.237 417.178C181.369 414.194 179.764 410.185 179.768 406.012C179.771 401.838 181.382 397.833 184.256 394.854C187.129 391.875 191.036 390.16 195.139 390.076C198.272 390.064 201.335 391.015 203.928 392.804L205.564 394.12L205.716 394.222L205.723 394.237Z" fill="#EAEAEA" fill-opacity="0.2"/>
<path d="M173.794 406.102C173.805 411.846 176.049 417.354 180.035 421.423C184.022 425.493 189.428 427.796 195.077 427.829L195.481 427.827C199.789 427.787 203.985 426.425 207.519 423.918C211.053 421.412 213.76 417.878 215.286 413.78C216.812 409.683 217.085 405.211 216.07 400.953C215.055 396.694 212.8 392.846 209.598 389.913C209.511 389.81 209.439 389.759 209.439 389.774L209.287 389.649L209.207 389.584L209.12 389.503L207.564 388.268C207.477 388.167 207.377 388.078 207.267 388.005C204.04 385.772 200.275 384.477 196.379 384.26C192.482 384.044 188.601 384.914 185.155 386.776C181.709 388.639 178.829 391.424 176.825 394.829C174.822 398.235 173.771 402.133 173.786 406.102L173.794 406.102ZM205.723 394.237C208.054 396.383 209.695 399.193 210.435 402.3C211.174 405.408 210.977 408.67 209.87 411.662C208.762 414.654 206.794 417.238 204.223 419.077C201.652 420.917 198.595 421.927 195.452 421.976L195.113 421.977C191.01 421.886 187.106 420.163 184.237 417.178C181.369 414.194 179.764 410.185 179.768 406.012C179.771 401.838 181.382 397.833 184.256 394.854C187.129 391.875 191.036 390.16 195.139 390.076C198.272 390.064 201.335 391.015 203.928 392.804L205.564 394.12L205.716 394.222L205.723 394.237Z" fill="#EAEAEA" fill-opacity="0.2"/>
<path d="M145.39 91.7573L77.1567 92.2575C73.7689 92.2738 70.513 90.9384 68.1036 88.5443C65.6942 86.1503 64.3281 82.8932 64.3051 79.4878L64.1762 61.7135C64.1657 59.9604 64.5138 58.2238 65.1986 56.6114C65.8834 54.9991 66.8905 53.5454 68.1573 52.3404L68.2404 52.2622C69.5584 51.0609 71.0948 50.1268 72.7653 49.5113L72.977 49.4191C74.2229 49.01 75.5243 48.7974 76.8349 48.7891L100.214 48.6177C106.018 48.5768 111.661 46.6918 116.335 43.2325C121.009 39.7731 124.474 34.9165 126.236 29.3574C126.374 28.9044 126.633 28.4982 126.985 28.183C127.337 27.8677 127.768 27.6557 128.232 27.5698C128.3 27.5629 128.369 27.5624 128.438 27.5683L128.689 27.5665C129.075 27.5649 129.457 27.6479 129.808 27.8096C130.16 27.9712 130.472 28.2078 130.723 28.5028L155.108 58.672C156.96 60.9507 157.98 63.7974 157.999 66.7393L158.087 78.8003C158.1 80.4892 157.782 82.1641 157.151 83.7295C156.52 85.2948 155.588 86.7198 154.409 87.923C153.23 89.1263 151.826 90.0842 150.279 90.7421C148.731 91.4 147.07 91.745 145.39 91.7573ZM69.3659 73.4199L69.4097 79.4504C69.4228 81.4857 70.2383 83.4328 71.6776 84.8646C73.1168 86.2963 75.0621 87.0959 77.087 87.0879L145.352 86.5874C147.379 86.5674 149.314 85.7404 150.735 84.2876C152.156 82.8349 152.945 80.8751 152.931 78.8381L152.843 66.7642C152.807 65.003 152.188 63.3043 151.083 61.9369L129.445 35.1576C126.805 40.7054 122.664 45.3941 117.497 48.6876C112.329 51.981 106.344 53.7462 100.226 53.7813C99.9621 53.7832 99.7239 53.785 99.4278 53.7871C99.3143 53.7961 99.2003 53.797 99.0867 53.7896L76.8466 53.9527C76.1083 53.9631 75.3748 54.0752 74.6667 54.2857C73.5583 54.6811 72.5388 55.2934 71.6671 56.0872C70.9072 56.8028 70.3028 57.6688 69.8921 58.6306C69.4814 59.5925 69.2733 60.6294 69.2807 61.676L69.3613 72.7858C69.3808 72.8773 69.3923 72.9703 69.3956 73.0638C69.3981 73.1832 69.3882 73.3026 69.3659 73.4199Z" fill="#EAEAEA" fill-opacity="0.2"/>
<path d="M145.39 91.7573L77.1567 92.2575C73.7689 92.2738 70.513 90.9384 68.1036 88.5443C65.6942 86.1503 64.3281 82.8932 64.3051 79.4878L64.1762 61.7135C64.1657 59.9604 64.5138 58.2238 65.1986 56.6114C65.8834 54.9991 66.8905 53.5454 68.1573 52.3404L68.2404 52.2622C69.5584 51.0609 71.0948 50.1268 72.7653 49.5113L72.977 49.4191C74.2229 49.01 75.5243 48.7974 76.8349 48.7891L100.214 48.6177C106.018 48.5768 111.661 46.6918 116.335 43.2325C121.009 39.7731 124.474 34.9165 126.236 29.3574C126.374 28.9044 126.633 28.4982 126.985 28.183C127.337 27.8677 127.768 27.6557 128.232 27.5698C128.3 27.5629 128.369 27.5624 128.438 27.5683L128.689 27.5665C129.075 27.5649 129.457 27.6479 129.808 27.8096C130.16 27.9712 130.472 28.2078 130.723 28.5028L155.108 58.672C156.96 60.9507 157.98 63.7974 157.999 66.7393L158.087 78.8003C158.1 80.4892 157.782 82.1641 157.151 83.7295C156.52 85.2948 155.588 86.7198 154.409 87.923C153.23 89.1263 151.826 90.0842 150.279 90.7421C148.731 91.4 147.07 91.745 145.39 91.7573ZM69.3659 73.4199L69.4097 79.4504C69.4228 81.4857 70.2383 83.4328 71.6776 84.8646C73.1168 86.2963 75.0621 87.0959 77.087 87.0879L145.352 86.5874C147.379 86.5674 149.314 85.7404 150.735 84.2876C152.156 82.8349 152.945 80.8751 152.931 78.8381L152.843 66.7642C152.807 65.003 152.188 63.3043 151.083 61.9369L129.445 35.1576C126.805 40.7054 122.664 45.3941 117.497 48.6876C112.329 51.981 106.344 53.7462 100.226 53.7813C99.9621 53.7832 99.7239 53.785 99.4278 53.7871C99.3143 53.7961 99.2003 53.797 99.0867 53.7896L76.8466 53.9527C76.1083 53.9631 75.3748 54.0752 74.6667 54.2857C73.5583 54.6811 72.5388 55.2934 71.6671 56.0872C70.9072 56.8028 70.3028 57.6688 69.8921 58.6306C69.4814 59.5925 69.2733 60.6294 69.2807 61.676L69.3613 72.7858C69.3808 72.8773 69.3923 72.9703 69.3956 73.0638C69.3981 73.1832 69.3882 73.3026 69.3659 73.4199Z" fill="#EAEAEA" fill-opacity="0.2"/>
<path d="M95.8697 43.5919C90.1332 43.6437 84.6091 41.4615 80.5013 37.5207C76.3935 33.58 74.035 28.2002 73.9399 22.5538L73.937 22.1496C73.9299 17.8418 75.2446 13.6318 77.7088 10.0712C80.1731 6.51051 83.6721 3.76511 87.7476 2.19452C91.8231 0.623922 96.285 0.301359 100.549 1.26908C104.813 2.23679 108.68 4.44967 111.645 7.61791C111.748 7.70377 111.8 7.77556 111.785 7.77567L111.911 7.92632L111.977 8.00524L112.059 8.09125L113.309 9.63392C113.411 9.71949 113.501 9.8184 113.575 9.92791C115.841 13.1289 117.175 16.8785 117.434 20.772C117.693 24.6654 116.866 28.5549 115.044 32.0205C113.222 35.4861 110.473 38.3963 107.093 40.4368C103.714 42.4774 99.8334 43.5708 95.8698 43.5991L95.8697 43.5919ZM107.369 11.5397C105.2 9.23335 102.376 7.62296 99.2649 6.91791C96.1534 6.21286 92.898 6.44578 89.9222 7.58638C86.9464 8.72698 84.3878 10.7225 82.5791 13.3134C80.7704 15.9043 79.7953 18.9708 79.7806 22.114L79.7831 22.4532C79.9193 26.5537 81.6824 30.438 84.6943 33.273C87.7062 36.108 91.727 37.668 95.8945 37.6186C100.062 37.5691 104.045 35.9142 106.988 33.0085C109.931 30.1029 111.601 26.1779 111.64 22.0753C111.617 18.9432 110.634 15.891 108.819 13.3191L107.487 11.6976L107.384 11.5468L107.369 11.5397Z" fill="#EAEAEA" fill-opacity="0.2"/>
<path d="M95.8697 43.5919C90.1332 43.6437 84.6091 41.4615 80.5013 37.5207C76.3935 33.58 74.035 28.2002 73.9399 22.5538L73.937 22.1496C73.9299 17.8418 75.2446 13.6318 77.7088 10.0712C80.1731 6.51051 83.6721 3.76511 87.7476 2.19452C91.8231 0.623922 96.285 0.301359 100.549 1.26908C104.813 2.23679 108.68 4.44967 111.645 7.61791C111.748 7.70377 111.8 7.77556 111.785 7.77567L111.911 7.92632L111.977 8.00524L112.059 8.09125L113.309 9.63392C113.411 9.71949 113.501 9.8184 113.575 9.92791C115.841 13.1289 117.175 16.8785 117.434 20.772C117.693 24.6654 116.866 28.5549 115.044 32.0205C113.222 35.4861 110.473 38.3963 107.093 40.4368C103.714 42.4774 99.8334 43.5708 95.8698 43.5991L95.8697 43.5919ZM107.369 11.5397C105.2 9.23335 102.376 7.62296 99.2649 6.91791C96.1534 6.21286 92.898 6.44578 89.9222 7.58638C86.9464 8.72698 84.3878 10.7225 82.5791 13.3134C80.7704 15.9043 79.7953 18.9708 79.7806 22.114L79.7831 22.4532C79.9193 26.5537 81.6824 30.438 84.6943 33.273C87.7062 36.108 91.727 37.668 95.8945 37.6186C100.062 37.5691 104.045 35.9142 106.988 33.0085C109.931 30.1029 111.601 26.1779 111.64 22.0753C111.617 18.9432 110.634 15.891 108.819 13.3191L107.487 11.6976L107.384 11.5468L107.369 11.5397Z" fill="#EAEAEA" fill-opacity="0.2"/>
<path d="M99.4911 360.478L31.2583 360.978C27.8704 360.995 24.6146 359.659 22.2052 357.265C19.7958 354.871 18.4297 351.614 18.4067 348.209L18.2777 330.434C18.2673 328.681 18.6153 326.945 19.3001 325.332C19.985 323.72 20.992 322.266 22.2588 321.061L22.342 320.983C23.66 319.782 25.1964 318.848 26.8668 318.232L27.0786 318.14C28.3244 317.731 29.6258 317.518 30.9364 317.51L54.3159 317.339C60.1199 317.298 65.7625 315.413 70.4364 311.953C75.1102 308.494 78.5759 303.637 80.3378 298.078C80.4757 297.625 80.7348 297.219 81.0867 296.904C81.4385 296.589 81.8697 296.377 82.3333 296.291C82.4017 296.284 82.4707 296.283 82.5392 296.289L82.7903 296.287C83.1767 296.286 83.5588 296.369 83.9101 296.531C84.2614 296.692 84.5735 296.929 84.8249 297.224L109.21 327.393C111.061 329.672 112.081 332.518 112.101 335.46L112.188 347.521C112.201 349.21 111.883 350.885 111.252 352.45C110.621 354.016 109.689 355.441 108.51 356.644C107.331 357.847 105.928 358.805 104.38 359.463C102.833 360.121 101.171 360.466 99.4911 360.478ZM23.4675 342.141L23.5113 348.171C23.5243 350.207 24.3399 352.154 25.7791 353.586C27.2183 355.017 29.1637 355.817 31.1886 355.809L99.4536 355.308C101.48 355.288 103.416 354.461 104.837 353.009C106.257 351.556 107.047 349.596 107.032 347.559L106.945 335.485C106.909 333.724 106.289 332.025 105.184 330.658L83.547 303.879C80.9062 309.426 76.7654 314.115 71.5981 317.409C66.4309 320.702 60.4459 322.467 54.3276 322.502C54.0637 322.504 53.8255 322.506 53.5294 322.508C53.4159 322.517 53.3019 322.518 53.1882 322.511L30.9482 322.674C30.2098 322.684 29.4764 322.796 28.7683 323.007C27.6599 323.402 26.6403 324.014 25.7687 324.808C25.0087 325.524 24.4044 326.39 23.9937 327.352C23.583 328.313 23.3748 329.35 23.3823 330.397L23.4629 341.507C23.4824 341.598 23.4938 341.691 23.4971 341.785C23.4997 341.904 23.4897 342.024 23.4675 342.141Z" fill="#EAEAEA" fill-opacity="0.2"/>
<path d="M49.9713 312.313C44.2347 312.365 38.7106 310.182 34.6029 306.242C30.4951 302.301 28.1366 296.921 28.0415 291.275L28.0385 290.871C28.0315 286.563 29.3461 282.353 31.8104 278.792C34.2747 275.231 37.7737 272.486 41.8492 270.915C45.9246 269.345 50.3865 269.022 54.6506 269.99C58.9146 270.958 62.782 273.171 65.7462 276.339C65.8495 276.425 65.9013 276.497 65.8866 276.497L66.0124 276.647L66.079 276.726L66.1603 276.812L67.4106 278.355C67.5125 278.44 67.6021 278.539 67.6767 278.649C69.9423 281.85 71.2765 285.599 71.5354 289.493C71.7943 293.386 70.968 297.276 69.1457 300.741C67.3233 304.207 64.5742 307.117 61.195 309.158C57.8159 311.198 53.935 312.292 49.9713 312.32L49.9713 312.313ZM61.4705 280.261C59.3017 277.954 56.478 276.344 53.3665 275.639C50.2549 274.934 46.9996 275.167 44.0238 276.307C41.0479 277.448 38.4893 279.443 36.6806 282.034C34.8719 284.625 33.8969 287.692 33.8822 290.835L33.8846 291.174C34.0209 295.275 35.784 299.159 38.7959 301.994C41.8077 304.829 45.8285 306.389 49.9961 306.34C54.1636 306.29 58.1461 304.635 61.0894 301.729C64.0328 298.824 65.7027 294.899 65.7411 290.796C65.719 287.664 64.7358 284.612 62.9206 282.04L61.589 280.419L61.4853 280.268L61.4705 280.261Z" fill="#EAEAEA" fill-opacity="0.2"/>
<path d="M22.3608 63.098C28.0973 63.0462 33.6214 65.2285 37.7292 69.1692C41.837 73.11 44.1954 78.4898 44.2906 84.1361L44.2935 84.5403C44.3006 88.8481 42.9859 93.0581 40.5216 96.6188C38.0573 100.179 34.5583 102.925 30.4829 104.495C26.4074 106.066 21.9455 106.389 17.6815 105.421C13.4174 104.453 9.55005 102.24 6.58585 99.072C6.48257 98.9862 6.43072 98.9144 6.44539 98.9143L6.31963 98.7636L6.25307 98.6847L6.17178 98.5987L4.92144 97.056C4.8195 96.9705 4.72996 96.8715 4.65532 96.762C2.38973 93.561 1.05548 89.8114 0.796605 85.918C0.537722 82.0245 1.36403 78.135 3.18636 74.6694C5.00869 71.2038 7.75782 68.2937 11.137 66.2531C14.5162 64.2126 18.397 63.1191 22.3607 63.0908L22.3608 63.098ZM10.8615 95.1503C13.0303 97.4566 15.854 99.067 18.9656 99.772C22.0771 100.477 25.3324 100.244 28.3083 99.1036C31.2841 97.963 33.8427 95.9675 35.6514 93.3765C37.4601 90.7856 38.4352 87.7192 38.4498 84.5759L38.4474 84.2367C38.3111 80.1362 36.548 76.252 33.5362 73.417C30.5243 70.582 26.5035 69.0219 22.336 69.0714C18.1684 69.1208 14.186 70.7758 11.2426 73.6814C8.29923 76.5871 6.62931 80.512 6.59094 84.6146C6.61307 87.7467 7.59619 90.7989 9.41143 93.3709L10.743 94.9923L10.8468 95.1432L10.8615 95.1503Z" fill="#EAEAEA" fill-opacity="0.2"/>
<path d="M22.3608 63.098C28.0973 63.0462 33.6214 65.2285 37.7292 69.1692C41.837 73.11 44.1954 78.4898 44.2906 84.1361L44.2935 84.5403C44.3006 88.8481 42.9859 93.0581 40.5216 96.6188C38.0573 100.179 34.5583 102.925 30.4829 104.495C26.4074 106.066 21.9455 106.389 17.6815 105.421C13.4174 104.453 9.55005 102.24 6.58585 99.072C6.48257 98.9862 6.43072 98.9144 6.44539 98.9143L6.31963 98.7636L6.25307 98.6847L6.17178 98.5987L4.92144 97.056C4.8195 96.9705 4.72996 96.8715 4.65532 96.762C2.38973 93.561 1.05548 89.8114 0.796605 85.918C0.537722 82.0245 1.36403 78.135 3.18636 74.6694C5.00869 71.2038 7.75782 68.2937 11.137 66.2531C14.5162 64.2126 18.397 63.1191 22.3607 63.0908L22.3608 63.098ZM10.8615 95.1503C13.0303 97.4566 15.854 99.067 18.9656 99.772C22.0771 100.477 25.3324 100.244 28.3083 99.1036C31.2841 97.963 33.8427 95.9675 35.6514 93.3765C37.4601 90.7856 38.4352 87.7192 38.4498 84.5759L38.4474 84.2367C38.3111 80.1362 36.548 76.252 33.5362 73.417C30.5243 70.582 26.5035 69.0219 22.336 69.0714C18.1684 69.1208 14.186 70.7758 11.2426 73.6814C8.29923 76.5871 6.62931 80.512 6.59094 84.6146C6.61307 87.7467 7.59619 90.7989 9.41143 93.3709L10.743 94.9923L10.8468 95.1432L10.8615 95.1503Z" fill="#EAEAEA" fill-opacity="0.2"/>
</g>
</svg>
