<svg width="80" height="73" viewBox="0 0 80 73" fill="none" xmlns="http://www.w3.org/2000/svg">
<g clip-path="url(#clip0)">
<path d="M62.5001 0.109372C53.7537 0.111279 45.1054 1.95046 37.1152 5.50797C29.125 9.06548 21.971 14.262 16.1171 20.7606C15.962 20.8795 15.8319 21.028 15.7347 21.1976V21.1976C15.4927 21.49 15.2736 21.8005 15.0791 22.1264V22.1264L11.4188 26.6063C11.2055 26.8259 11.0382 27.0859 10.927 27.3711C3.76649 37.7027 -0.0476897 49.9844 0.000450136 62.5547C0.0112534 74.9137 3.68605 86.992 10.5602 97.2629C17.4343 107.534 27.1991 115.536 38.6204 120.258C50.0417 124.98 62.6066 126.21 74.7268 123.792C86.8469 121.375 97.9781 115.418 106.713 106.675C115.449 97.932 121.396 86.7955 123.803 74.6732C126.21 62.5509 124.969 49.987 120.237 38.5698C115.505 27.1526 107.495 17.3946 97.2177 10.5294C86.9409 3.66425 74.8591 4.72173e-06 62.5001 0V0.109372ZM62.5001 108.337C54.2314 108.271 46.1345 105.97 39.0672 101.677C31.9999 97.3837 26.2255 91.2587 22.356 83.9508C18.4865 76.643 16.6662 68.4245 17.0875 60.1662C17.5088 51.9078 20.1561 43.9172 24.7492 37.0411L28.6282 32.3427C28.8946 32.057 29.1325 31.7458 29.3385 31.4139C29.3385 31.4139 29.3385 31.4139 29.3385 31.4139C34.5282 25.8879 41.0104 21.7389 48.2018 19.3402C55.3931 16.9415 63.0678 16.3685 70.5356 17.6725C78.0035 18.9764 85.0302 22.1164 90.9832 26.8102C96.9362 31.504 101.629 37.6042 104.639 44.5619C107.649 51.5196 108.882 59.1166 108.227 66.6691C107.572 74.2217 105.05 81.4929 100.887 87.8285C96.7242 94.1642 91.0513 99.3656 84.3792 102.965C77.7071 106.564 70.2451 108.447 62.6642 108.446L62.5001 108.337Z" fill="#F5F5F5"/>
<circle cx="62.5" cy="62.5" r="33.5" fill="#F5F5F5"/>
</g>
<defs>
<clipPath id="clip0">
<rect width="80" height="73" fill="white"/>
</clipPath>
</defs>
</svg>
