<svg width="435" height="884" viewBox="0 0 435 884" fill="none" xmlns="http://www.w3.org/2000/svg">
<g opacity="0.5">
<path d="M22.9261 38.5511L22.3006 168.849C22.2858 175.318 24.8365 181.529 29.3931 186.119C33.9497 190.708 40.1398 193.302 46.605 193.329L80.3503 193.491C83.6786 193.503 86.9739 192.83 90.0316 191.515C93.0894 190.199 95.8445 188.27 98.1261 185.845L98.2743 185.686C100.549 183.163 102.315 180.225 103.475 177.032L103.649 176.627C104.42 174.246 104.818 171.76 104.827 169.257L105.042 124.612C105.092 113.528 108.643 102.745 115.189 93.8033C121.734 84.8618 130.938 78.2208 141.484 74.8301C142.343 74.5644 143.113 74.0678 143.71 73.3944C144.307 72.721 144.707 71.8966 144.868 71.0111C144.881 70.8803 144.881 70.7486 144.87 70.6177L144.872 70.1383C144.873 69.4005 144.714 68.6713 144.405 68.0012C144.097 67.3311 143.646 66.7362 143.085 66.2576L85.6925 19.8359C81.3577 16.3114 75.9483 14.3769 70.3629 14.3536L47.4648 14.2437C44.2583 14.2267 41.0799 14.842 38.1111 16.0545C35.1424 17.267 32.4415 19.0529 30.1627 21.3102C27.8839 23.5676 26.0719 26.252 24.8302 29.2103C23.5885 32.1685 22.9415 35.3426 22.9261 38.5511ZM58.1009 183.637L46.6518 183.582C42.7876 183.566 39.0872 182.018 36.3622 179.277C33.6372 176.535 32.1099 172.824 32.1155 168.957L32.7414 38.5982C32.7697 34.7284 34.3307 31.0278 37.0819 28.3079C39.8332 25.5881 43.5501 24.0712 47.4175 24.0898L70.3402 24.1998C73.684 24.26 76.9121 25.4349 79.5132 27.5382L130.457 68.7292C119.937 73.7984 111.055 81.7278 104.827 91.6106C98.5986 101.493 95.2758 112.931 95.2383 124.614C95.2359 125.118 95.2337 125.573 95.231 126.138C95.2145 126.355 95.2135 126.573 95.2279 126.79L95.024 169.26C95.0077 170.669 94.7984 172.071 94.4021 173.424C93.6566 175.542 92.4991 177.492 90.9962 179.16C89.6413 180.615 88.0001 181.773 86.1759 182.562C84.3518 183.351 82.3843 183.753 80.3971 183.744L59.3048 183.642C59.131 183.606 58.9543 183.584 58.7768 183.578C58.5501 183.574 58.3235 183.594 58.1009 183.637Z" fill="#EAEAEA" fill-opacity="0.2"/>
<path d="M22.9261 38.5511L22.3006 168.849C22.2858 175.318 24.8365 181.529 29.3931 186.119C33.9497 190.708 40.1398 193.302 46.605 193.329L80.3503 193.491C83.6786 193.503 86.9739 192.83 90.0316 191.515C93.0894 190.199 95.8445 188.27 98.1261 185.845L98.2743 185.686C100.549 183.163 102.315 180.225 103.475 177.032L103.649 176.627C104.42 174.246 104.818 171.76 104.827 169.257L105.042 124.612C105.092 113.528 108.643 102.745 115.189 93.8033C121.734 84.8618 130.938 78.2208 141.484 74.8301C142.343 74.5644 143.113 74.0678 143.71 73.3944C144.307 72.721 144.707 71.8966 144.868 71.0111C144.881 70.8803 144.881 70.7486 144.87 70.6177L144.872 70.1383C144.873 69.4005 144.714 68.6713 144.405 68.0012C144.097 67.3311 143.646 66.7362 143.085 66.2576L85.6925 19.8359C81.3577 16.3114 75.9483 14.3769 70.3629 14.3536L47.4648 14.2437C44.2583 14.2267 41.0799 14.842 38.1111 16.0545C35.1424 17.267 32.4415 19.0529 30.1627 21.3102C27.8839 23.5676 26.0719 26.252 24.8302 29.2103C23.5885 32.1685 22.9415 35.3426 22.9261 38.5511ZM58.1009 183.637L46.6518 183.582C42.7876 183.566 39.0872 182.018 36.3622 179.277C33.6372 176.535 32.1099 172.824 32.1155 168.957L32.7414 38.5982C32.7697 34.7284 34.3307 31.0278 37.0819 28.3079C39.8332 25.5881 43.5501 24.0712 47.4175 24.0898L70.3402 24.1998C73.684 24.26 76.9121 25.4349 79.5132 27.5382L130.457 68.7292C119.937 73.7984 111.055 81.7278 104.827 91.6106C98.5986 101.493 95.2758 112.931 95.2383 124.614C95.2359 125.118 95.2337 125.573 95.231 126.138C95.2145 126.355 95.2135 126.573 95.2279 126.79L95.024 169.26C95.0077 170.669 94.7984 172.071 94.4021 173.424C93.6566 175.542 92.4991 177.492 90.9962 179.16C89.6413 180.615 88.0001 181.773 86.1759 182.562C84.3518 183.351 82.3843 183.753 80.3971 183.744L59.3048 183.642C59.131 183.606 58.9543 183.584 58.7768 183.578C58.5501 183.574 58.3235 183.594 58.1009 183.637Z" fill="#EAEAEA" fill-opacity="0.2"/>
<path d="M101.169 133.206C101.099 144.11 105.268 154.599 112.769 162.388C120.271 170.177 130.495 174.635 141.215 174.789L141.983 174.793C150.161 174.786 158.148 172.268 164.896 167.567C171.644 162.867 176.839 156.204 179.802 148.45C182.764 140.697 183.355 132.215 181.497 124.115C179.639 116.015 175.42 108.674 169.391 103.055C169.227 102.859 169.091 102.761 169.09 102.789L168.804 102.551L168.654 102.425L168.49 102.27L165.555 99.9012C165.392 99.7079 165.204 99.5381 164.996 99.3968C158.908 95.1056 151.783 92.5872 144.39 92.1133C136.997 91.6395 129.617 93.2282 123.046 96.708C116.475 100.188 110.963 105.427 107.106 111.859C103.248 118.291 101.191 125.672 101.156 133.206L101.169 133.206ZM161.966 111.2C166.355 115.312 169.425 120.671 170.779 126.582C172.132 132.492 171.706 138.681 169.555 144.342C167.403 150.004 163.627 154.876 158.717 158.326C153.807 161.776 147.99 163.643 142.022 163.686L141.378 163.683C133.593 163.443 126.21 160.11 120.814 154.399C115.417 148.688 112.436 141.053 112.51 133.131C112.584 125.21 115.707 117.633 121.209 112.025C126.711 106.417 134.155 103.225 141.943 103.133C147.89 103.16 153.689 105.014 158.581 108.452L161.665 110.976L161.952 111.172L161.966 111.2Z" fill="#4EBA66" fill-opacity="0.2"/>
<path d="M144.863 347.109L145.489 216.811C145.535 210.342 148.088 204.156 152.587 199.61C157.086 195.064 163.163 192.529 169.484 192.563L202.48 192.721C205.734 192.741 208.949 193.445 211.927 194.79C214.904 196.134 217.579 198.09 219.787 200.536L219.93 200.697C222.13 203.241 223.829 206.196 224.933 209.399L225.1 209.806C225.831 212.194 226.196 214.684 226.181 217.187L225.967 261.832C225.911 272.915 229.281 283.733 235.596 292.736C241.911 301.739 250.846 308.467 261.125 311.958C261.963 312.231 262.711 312.735 263.288 313.414C263.865 314.093 264.249 314.922 264.398 315.809C264.409 315.94 264.408 316.071 264.396 316.202L264.393 316.681C264.387 317.419 264.225 318.147 263.917 318.814C263.609 319.481 263.162 320.072 262.609 320.545L206.054 366.42C201.782 369.903 196.475 371.786 191.014 371.756L168.624 371.649C165.489 371.635 162.387 370.99 159.496 369.749C156.605 368.508 153.981 366.697 151.775 364.418C149.568 362.139 147.822 359.438 146.636 356.468C145.45 353.498 144.848 350.318 144.863 347.109ZM180.632 202.364L169.437 202.311C165.659 202.289 162.026 203.802 159.336 206.518C156.646 209.233 155.117 212.93 155.086 216.796L154.46 347.155C154.451 351.025 155.942 354.741 158.606 357.486C161.27 360.232 164.89 361.784 168.672 361.803L191.085 361.91C194.355 361.882 197.522 360.738 200.085 358.659L250.286 317.954C240.048 312.785 231.439 304.771 225.444 294.83C219.448 284.888 216.308 273.42 216.382 261.737C216.385 261.233 216.387 260.778 216.389 260.213C216.375 259.996 216.376 259.778 216.393 259.561L216.596 217.091C216.594 215.681 216.403 214.278 216.028 212.922C215.319 210.796 214.206 208.835 212.752 207.153C211.441 205.686 209.848 204.512 208.072 203.706C206.296 202.9 204.376 202.479 202.433 202.469L181.809 202.37C181.639 202.405 181.466 202.425 181.292 202.429C181.071 202.431 180.849 202.409 180.632 202.364Z" fill="#4EBA66" fill-opacity="0.2"/>
<path d="M283.763 252.818C283.797 241.736 288.139 231.116 295.841 223.272C303.543 215.429 313.981 210.999 324.881 210.946L325.661 210.95C333.975 211.037 342.07 213.674 348.884 218.517C355.698 223.36 360.915 230.183 363.851 238.092C366.787 246.002 367.305 254.628 365.337 262.842C363.37 271.057 359.008 278.476 352.824 284.128C352.656 284.325 352.516 284.424 352.516 284.395L352.222 284.635L352.069 284.762L351.901 284.917L348.894 287.296C348.726 287.491 348.533 287.662 348.32 287.803C342.089 292.105 334.821 294.595 327.301 295.005C319.78 295.414 312.293 293.727 305.647 290.126C299.001 286.526 293.449 281.147 289.59 274.572C285.73 267.997 283.711 260.475 283.749 252.818L283.763 252.818ZM345.355 275.777C349.857 271.642 353.031 266.224 354.465 260.23C355.899 254.236 355.525 247.943 353.394 242.168C351.262 236.393 347.47 231.404 342.512 227.85C337.554 224.295 331.659 222.34 325.593 222.239L324.938 222.236C317.021 222.404 309.483 225.719 303.941 231.471C298.398 237.223 295.293 244.953 295.291 253.005C295.289 261.057 298.39 268.788 303.929 274.541C309.468 280.295 317.004 283.612 324.921 283.781C330.967 283.812 336.88 281.984 341.887 278.537L345.047 276.002L345.341 275.806L345.355 275.777Z" fill="#EAEAEA" fill-opacity="0.2"/>
<path d="M283.763 252.818C283.797 241.736 288.139 231.116 295.841 223.272C303.543 215.429 313.981 210.999 324.881 210.946L325.661 210.95C333.975 211.037 342.07 213.674 348.884 218.517C355.698 223.36 360.915 230.183 363.851 238.092C366.787 246.002 367.305 254.628 365.337 262.842C363.37 271.057 359.008 278.476 352.824 284.128C352.656 284.325 352.516 284.424 352.516 284.395L352.222 284.635L352.069 284.762L351.901 284.917L348.894 287.296C348.726 287.491 348.533 287.662 348.32 287.803C342.089 292.105 334.821 294.595 327.301 295.005C319.78 295.414 312.293 293.727 305.647 290.126C299.001 286.526 293.449 281.147 289.59 274.572C285.73 267.997 283.711 260.475 283.749 252.818L283.763 252.818ZM345.355 275.777C349.857 271.642 353.031 266.224 354.465 260.23C355.899 254.236 355.525 247.943 353.394 242.168C351.262 236.393 347.47 231.404 342.512 227.85C337.554 224.295 331.659 222.34 325.593 222.239L324.938 222.236C317.021 222.404 309.483 225.719 303.941 231.471C298.398 237.223 295.293 244.953 295.291 253.005C295.289 261.057 298.39 268.788 303.929 274.541C309.468 280.295 317.004 283.612 324.921 283.781C330.967 283.812 336.88 281.984 341.887 278.537L345.047 276.002L345.341 275.806L345.355 275.777Z" fill="#EAEAEA" fill-opacity="0.2"/>
<path d="M252.306 857.76L252.932 727.462C252.979 720.993 255.561 714.806 260.11 710.26C264.66 705.715 270.806 703.181 277.199 703.215L310.569 703.375C313.861 703.395 317.113 704.099 320.124 705.444C323.135 706.788 325.841 708.744 328.074 711.191L328.219 711.351C330.444 713.895 332.162 716.85 333.279 720.054L333.447 720.461C334.187 722.849 334.556 725.339 334.542 727.841L334.327 772.487C334.271 783.57 337.68 794.387 344.067 803.391C350.454 812.395 359.492 819.123 369.887 822.614C370.735 822.888 371.491 823.392 372.075 824.071C372.659 824.75 373.047 825.579 373.198 826.466C373.209 826.596 373.208 826.728 373.196 826.859L373.193 827.338C373.187 828.076 373.023 828.804 372.711 829.471C372.4 830.138 371.949 830.729 371.389 831.202L314.194 877.073C309.874 880.556 304.506 882.439 298.983 882.409L276.339 882.3C273.168 882.287 270.031 881.641 267.107 880.4C264.183 879.159 261.529 877.348 259.297 875.069C257.066 872.79 255.3 870.088 254.1 867.118C252.9 864.148 252.291 860.968 252.306 857.76ZM288.474 713.017L277.152 712.962C273.331 712.941 269.657 714.453 266.936 717.169C264.215 719.884 262.67 723.58 262.638 727.447L262.012 857.806C262.004 861.676 263.512 865.392 266.206 868.138C268.901 870.884 272.562 872.436 276.386 872.454L299.054 872.563C302.361 872.535 305.565 871.391 308.157 869.312L358.925 828.61C348.571 823.44 339.864 815.426 333.8 805.485C327.736 795.543 324.559 784.074 324.634 772.391C324.636 771.887 324.638 771.432 324.641 770.867C324.627 770.65 324.628 770.432 324.644 770.215L324.848 727.746C324.845 726.336 324.652 724.933 324.273 723.576C323.556 721.45 322.43 719.49 320.96 717.807C319.634 716.34 318.022 715.166 316.226 714.36C314.429 713.553 312.488 713.132 310.522 713.123L289.664 713.022C289.492 713.057 289.317 713.077 289.142 713.081C288.918 713.083 288.694 713.062 288.474 713.017Z" fill="#EAEAEA" fill-opacity="0.2"/>
<path d="M252.306 857.76L252.932 727.462C252.979 720.993 255.561 714.806 260.11 710.26C264.66 705.715 270.806 703.181 277.199 703.215L310.569 703.375C313.861 703.395 317.113 704.099 320.124 705.444C323.135 706.788 325.841 708.744 328.074 711.191L328.219 711.351C330.444 713.895 332.162 716.85 333.279 720.054L333.447 720.461C334.187 722.849 334.556 725.339 334.542 727.841L334.327 772.487C334.271 783.57 337.68 794.387 344.067 803.391C350.454 812.395 359.492 819.123 369.887 822.614C370.735 822.888 371.491 823.392 372.075 824.071C372.659 824.75 373.047 825.579 373.198 826.466C373.209 826.596 373.208 826.728 373.196 826.859L373.193 827.338C373.187 828.076 373.023 828.804 372.711 829.471C372.4 830.138 371.949 830.729 371.389 831.202L314.194 877.073C309.874 880.556 304.506 882.439 298.983 882.409L276.339 882.3C273.168 882.287 270.031 881.641 267.107 880.4C264.183 879.159 261.529 877.348 259.297 875.069C257.066 872.79 255.3 870.088 254.1 867.118C252.9 864.148 252.291 860.968 252.306 857.76ZM288.474 713.017L277.152 712.962C273.331 712.941 269.657 714.453 266.936 717.169C264.215 719.884 262.67 723.58 262.638 727.447L262.012 857.806C262.004 861.676 263.512 865.392 266.206 868.138C268.901 870.884 272.562 872.436 276.386 872.454L299.054 872.563C302.361 872.535 305.565 871.391 308.157 869.312L358.925 828.61C348.571 823.44 339.864 815.426 333.8 805.485C327.736 795.543 324.559 784.074 324.634 772.391C324.636 771.887 324.638 771.432 324.641 770.867C324.627 770.65 324.628 770.432 324.644 770.215L324.848 727.746C324.845 726.336 324.652 724.933 324.273 723.576C323.556 721.45 322.43 719.49 320.96 717.807C319.634 716.34 318.022 715.166 316.226 714.36C314.429 713.553 312.488 713.132 310.522 713.123L289.664 713.022C289.492 713.057 289.317 713.077 289.142 713.081C288.918 713.083 288.694 713.062 288.474 713.017Z" fill="#EAEAEA" fill-opacity="0.2"/>
<path d="M343.677 763.24C343.712 752.158 347.912 741.537 355.363 733.693C362.814 725.848 372.91 721.416 383.453 721.362L384.207 721.366C392.249 721.451 400.078 724.087 406.668 728.929C413.258 733.771 418.303 740.593 421.141 748.502C423.979 756.411 424.479 765.037 422.575 773.252C420.67 781.466 416.451 788.886 410.468 794.539C410.306 794.737 410.17 794.835 410.171 794.807L409.886 795.046L409.738 795.173L409.575 795.328L406.667 797.708C406.505 797.903 406.318 798.073 406.112 798.215C400.084 802.518 393.054 805.009 385.78 805.42C378.506 805.83 371.265 804.145 364.837 800.545C358.41 796.945 353.04 791.568 349.309 784.994C345.577 778.419 343.625 770.897 343.663 763.24L343.677 763.24ZM403.246 786.19C407.601 782.053 410.672 776.636 412.059 770.641C413.447 764.647 413.087 758.353 411.026 752.579C408.965 746.804 405.299 741.816 400.504 738.262C395.709 734.709 390.007 732.755 384.14 732.655L383.506 732.651C375.849 732.82 368.557 736.137 363.196 741.89C357.835 747.643 354.83 755.374 354.827 763.425C354.823 771.477 357.821 779.208 363.178 784.96C368.534 790.713 375.823 794.029 383.48 794.197C389.328 794.226 395.048 792.397 399.891 788.95L402.948 786.415L403.232 786.218L403.246 786.19Z" fill="#4EBA66" fill-opacity="0.2"/>
<path d="M316.299 528.194L316.929 396.909C316.944 390.391 314.394 384.133 309.837 379.508C305.281 374.884 299.091 372.272 292.625 372.244L258.88 372.082C255.552 372.07 252.257 372.748 249.199 374.074C246.141 375.399 243.386 377.344 241.104 379.787L240.956 379.947C238.681 382.489 236.915 385.45 235.754 388.667L235.581 389.075C234.81 391.474 234.412 393.979 234.402 396.5L234.186 441.484C234.136 452.651 230.584 463.517 224.038 472.526C217.492 481.536 208.288 488.228 197.743 491.644C196.883 491.912 196.113 492.412 195.516 493.091C194.92 493.769 194.519 494.6 194.358 495.492C194.345 495.624 194.345 495.757 194.356 495.889L194.354 496.372C194.353 497.115 194.512 497.85 194.821 498.525C195.129 499.2 195.58 499.8 196.141 500.282L253.532 547.053C257.866 550.604 263.276 552.553 268.861 552.576L291.759 552.686C294.966 552.703 298.144 552.083 301.113 550.861C304.082 549.64 306.783 547.84 309.062 545.566C311.34 543.291 313.153 540.586 314.394 537.605C315.636 534.625 316.283 531.427 316.299 528.194ZM281.129 382.01L292.578 382.065C296.442 382.081 300.143 383.64 302.868 386.403C305.593 389.165 307.12 392.904 307.114 396.8L306.483 528.147C306.455 532.046 304.894 535.775 302.143 538.515C299.391 541.256 295.674 542.784 291.807 542.766L268.884 542.656C265.54 542.595 262.312 541.411 259.711 539.292L208.769 497.791C219.289 492.683 228.172 484.693 234.4 474.735C240.628 464.777 243.952 453.254 243.99 441.481C243.992 440.974 243.994 440.515 243.997 439.946C244.014 439.727 244.015 439.508 244 439.289L244.206 396.498C244.222 395.077 244.431 393.665 244.828 392.302C245.573 390.167 246.731 388.203 248.234 386.522C249.589 385.056 251.23 383.889 253.054 383.095C254.878 382.3 256.846 381.894 258.833 381.903L279.925 382.005C280.099 382.042 280.276 382.063 280.453 382.069C280.68 382.073 280.907 382.054 281.129 382.01Z" fill="#EAEAEA" fill-opacity="0.2"/>
<path d="M316.299 528.194L316.929 396.909C316.944 390.391 314.394 384.133 309.837 379.508C305.281 374.884 299.091 372.272 292.625 372.244L258.88 372.082C255.552 372.07 252.257 372.748 249.199 374.074C246.141 375.399 243.386 377.344 241.104 379.787L240.956 379.947C238.681 382.489 236.915 385.45 235.754 388.667L235.581 389.075C234.81 391.474 234.412 393.979 234.402 396.5L234.186 441.484C234.136 452.651 230.584 463.517 224.038 472.526C217.492 481.536 208.288 488.228 197.743 491.644C196.883 491.912 196.113 492.412 195.516 493.091C194.92 493.769 194.519 494.6 194.358 495.492C194.345 495.624 194.345 495.757 194.356 495.889L194.354 496.372C194.353 497.115 194.512 497.85 194.821 498.525C195.129 499.2 195.58 499.8 196.141 500.282L253.532 547.053C257.866 550.604 263.276 552.553 268.861 552.576L291.759 552.686C294.966 552.703 298.144 552.083 301.113 550.861C304.082 549.64 306.783 547.84 309.062 545.566C311.34 543.291 313.153 540.586 314.394 537.605C315.636 534.625 316.283 531.427 316.299 528.194ZM281.129 382.01L292.578 382.065C296.442 382.081 300.143 383.64 302.868 386.403C305.593 389.165 307.12 392.904 307.114 396.8L306.483 528.147C306.455 532.046 304.894 535.775 302.143 538.515C299.391 541.256 295.674 542.784 291.807 542.766L268.884 542.656C265.54 542.595 262.312 541.411 259.711 539.292L208.769 497.791C219.289 492.683 228.172 484.693 234.4 474.735C240.628 464.777 243.952 453.254 243.99 441.481C243.992 440.974 243.994 440.515 243.997 439.946C244.014 439.727 244.015 439.508 244 439.289L244.206 396.498C244.222 395.077 244.431 393.665 244.828 392.302C245.573 390.167 246.731 388.203 248.234 386.522C249.589 385.056 251.23 383.889 253.054 383.095C254.878 382.3 256.846 381.894 258.833 381.903L279.925 382.005C280.099 382.042 280.276 382.063 280.453 382.069C280.68 382.073 280.907 382.054 281.129 382.01Z" fill="#EAEAEA" fill-opacity="0.2"/>
<path d="M224.486 432.98C224.557 421.898 220.459 411.237 213.084 403.322C205.709 395.406 195.655 390.877 185.114 390.722L184.359 390.718C176.317 390.726 168.463 393.287 161.827 398.066C155.19 402.844 150.081 409.618 147.167 417.499C144.252 425.38 143.67 434.001 145.495 442.233C147.321 450.466 151.469 457.926 157.397 463.636C157.557 463.835 157.692 463.935 157.692 463.907L157.974 464.149L158.121 464.277L158.282 464.434L161.168 466.841C161.328 467.038 161.513 467.21 161.718 467.354C167.704 471.714 174.709 474.273 181.979 474.753C189.249 475.234 196.506 473.618 202.968 470.08C209.43 466.542 214.851 461.217 218.645 454.678C222.44 448.14 224.464 440.637 224.499 432.98L224.486 432.98ZM164.699 455.357C160.384 451.178 157.365 445.732 156.035 439.724C154.705 433.717 155.126 427.427 157.242 421.672C159.358 415.918 163.072 410.965 167.901 407.458C172.73 403.951 178.45 402.051 184.318 402.007L184.952 402.01C192.607 402.253 199.867 405.639 205.172 411.443C210.478 417.247 213.408 425.007 213.334 433.058C213.261 441.109 210.188 448.811 204.777 454.512C199.366 460.213 192.046 463.458 184.387 463.553C178.539 463.526 172.837 461.643 168.028 458.149L164.995 455.585L164.713 455.385L164.699 455.357Z" fill="#EAEAEA" fill-opacity="0.2"/>
<path d="M224.486 432.98C224.557 421.898 220.459 411.237 213.084 403.322C205.709 395.406 195.655 390.877 185.114 390.722L184.359 390.718C176.317 390.726 168.463 393.287 161.827 398.066C155.19 402.844 150.081 409.618 147.167 417.499C144.252 425.38 143.67 434.001 145.495 442.233C147.321 450.466 151.469 457.926 157.397 463.636C157.557 463.835 157.692 463.935 157.692 463.907L157.974 464.149L158.121 464.277L158.282 464.434L161.168 466.841C161.328 467.038 161.513 467.21 161.718 467.354C167.704 471.714 174.709 474.273 181.979 474.753C189.249 475.234 196.506 473.618 202.968 470.08C209.43 466.542 214.851 461.217 218.645 454.678C222.44 448.14 224.464 440.637 224.499 432.98L224.486 432.98ZM164.699 455.357C160.384 451.178 157.365 445.732 156.035 439.724C154.705 433.717 155.126 427.427 157.242 421.672C159.358 415.918 163.072 410.965 167.901 407.458C172.73 403.951 178.45 402.051 184.318 402.007L184.952 402.01C192.607 402.253 199.867 405.639 205.172 411.443C210.478 417.247 213.408 425.007 213.334 433.058C213.261 441.109 210.188 448.811 204.777 454.512C199.366 460.213 192.046 463.458 184.387 463.553C178.539 463.526 172.837 461.643 168.028 458.149L164.995 455.585L164.713 455.385L164.699 455.357Z" fill="#EAEAEA" fill-opacity="0.2"/>
<path d="M126.496 216.782L125.871 347.079C125.824 353.549 123.213 359.735 118.613 364.28C114.012 368.826 107.798 371.36 101.332 371.325L67.5872 371.163C64.2589 371.143 60.9703 370.439 57.9253 369.094C54.8803 367.749 52.1438 365.793 49.8856 363.346L49.739 363.186C47.4889 360.642 45.7511 357.687 44.6212 354.483L44.4511 354.076C43.7032 351.688 43.3297 349.198 43.3441 346.695L43.5585 302.05C43.6148 290.967 40.1668 280.149 33.7075 271.145C27.2482 262.141 18.1086 255.412 7.59611 251.921C6.73931 251.647 5.97409 251.143 5.38382 250.464C4.79354 249.784 4.40088 248.956 4.24861 248.069C4.23709 247.938 4.23772 247.807 4.2505 247.676L4.2528 247.196C4.25883 246.459 4.42511 245.731 4.74013 245.064C5.05516 244.397 5.51139 243.806 6.0772 243.333L63.9126 197.465C68.2811 193.982 73.7088 192.099 79.2941 192.13L102.192 192.24C105.399 192.253 108.571 192.899 111.528 194.14C114.485 195.381 117.169 197.193 119.426 199.472C121.683 201.751 123.469 204.453 124.682 207.423C125.895 210.393 126.512 213.573 126.496 216.782ZM89.9302 361.523L101.379 361.578C105.243 361.599 108.959 360.087 111.71 357.372C114.461 354.656 116.024 350.96 116.055 347.094L116.681 216.734C116.69 212.865 115.165 209.149 112.44 206.403C109.715 203.657 106.012 202.104 102.145 202.086L79.2223 201.976C75.8781 202.004 72.6389 203.148 70.0177 205.226L18.6811 245.926C29.1519 251.096 37.9573 259.11 44.0902 269.052C50.223 278.994 53.4359 290.463 53.3612 302.146C53.3588 302.65 53.3566 303.105 53.3539 303.67C53.3683 303.887 53.3673 304.105 53.3507 304.322L53.1469 346.792C53.1496 348.202 53.3454 349.605 53.7288 350.962C54.4538 353.087 55.5926 355.048 57.0794 356.731C58.4203 358.198 60.0503 359.372 61.8668 360.178C63.6833 360.985 65.6468 361.406 67.634 361.416L88.7263 361.517C88.9005 361.482 89.0773 361.462 89.2549 361.458C89.4816 361.456 89.708 361.478 89.9302 361.523Z" fill="#EAEAEA" fill-opacity="0.2"/>
<path d="M126.496 216.782L125.871 347.079C125.824 353.549 123.213 359.735 118.613 364.28C114.012 368.826 107.798 371.36 101.332 371.325L67.5872 371.163C64.2589 371.143 60.9703 370.439 57.9253 369.094C54.8803 367.749 52.1438 365.793 49.8856 363.346L49.739 363.186C47.4889 360.642 45.7511 357.687 44.6212 354.483L44.4511 354.076C43.7032 351.688 43.3297 349.198 43.3441 346.695L43.5585 302.05C43.6148 290.967 40.1668 280.149 33.7075 271.145C27.2482 262.141 18.1086 255.412 7.59611 251.921C6.73931 251.647 5.97409 251.143 5.38382 250.464C4.79354 249.784 4.40088 248.956 4.24861 248.069C4.23709 247.938 4.23772 247.807 4.2505 247.676L4.2528 247.196C4.25883 246.459 4.42511 245.731 4.74013 245.064C5.05516 244.397 5.51139 243.806 6.0772 243.333L63.9126 197.465C68.2811 193.982 73.7088 192.099 79.2941 192.13L102.192 192.24C105.399 192.253 108.571 192.899 111.528 194.14C114.485 195.381 117.169 197.193 119.426 199.472C121.683 201.751 123.469 204.453 124.682 207.423C125.895 210.393 126.512 213.573 126.496 216.782ZM89.9302 361.523L101.379 361.578C105.243 361.599 108.959 360.087 111.71 357.372C114.461 354.656 116.024 350.96 116.055 347.094L116.681 216.734C116.69 212.865 115.165 209.149 112.44 206.403C109.715 203.657 106.012 202.104 102.145 202.086L79.2223 201.976C75.8781 202.004 72.6389 203.148 70.0177 205.226L18.6811 245.926C29.1519 251.096 37.9573 259.11 44.0902 269.052C50.223 278.994 53.4359 290.463 53.3612 302.146C53.3588 302.65 53.3566 303.105 53.3539 303.67C53.3683 303.887 53.3673 304.105 53.3507 304.322L53.1469 346.792C53.1496 348.202 53.3454 349.605 53.7288 350.962C54.4538 353.087 55.5926 355.048 57.0794 356.731C58.4203 358.198 60.0503 359.372 61.8668 360.178C63.6833 360.985 65.6468 361.406 67.634 361.416L88.7263 361.517C88.9005 361.482 89.0773 361.462 89.2549 361.458C89.4816 361.456 89.708 361.478 89.9302 361.523Z" fill="#EAEAEA" fill-opacity="0.2"/>
<path d="M33.7744 309.936C33.7395 321.019 29.5389 331.639 22.0883 339.484C14.6376 347.328 4.54085 351.761 -6.00155 351.815L-6.75611 351.811C-14.7979 351.726 -22.6265 349.089 -29.2167 344.247C-35.807 339.405 -40.8515 332.583 -43.6898 324.675C-46.5281 316.766 -47.0278 308.139 -45.1235 299.925C-43.2191 291.71 -38.9994 284.291 -33.0172 278.637C-32.8545 278.44 -32.7193 278.341 -32.7194 278.37L-32.4353 278.13L-32.2865 278.004L-32.124 277.848L-29.2156 275.469C-29.0535 275.274 -28.8668 275.103 -28.6607 274.961C-22.6333 270.658 -15.6031 268.167 -8.32914 267.757C-1.05514 267.346 6.18646 269.032 12.614 272.631C19.0415 276.231 24.4108 281.609 28.1424 288.183C31.874 294.757 33.826 302.279 33.7879 309.936L33.7744 309.936ZM-25.7944 286.987C-30.1495 291.123 -33.2205 296.541 -34.6081 302.535C-35.9957 308.53 -35.6356 314.823 -33.5748 320.598C-31.5139 326.372 -27.8476 331.361 -23.0525 334.914C-18.2575 338.467 -12.5557 340.421 -6.68846 340.522L-6.05517 340.525C1.60252 340.356 8.89383 337.04 14.2552 331.287C19.6165 325.534 22.621 317.803 22.6244 309.751C22.6278 301.7 19.6298 293.969 14.2733 288.216C8.91684 282.464 1.62839 279.148 -6.02916 278.979C-11.8765 278.95 -17.5966 280.779 -22.4395 284.227L-25.4969 286.762L-25.7808 286.959L-25.7944 286.987Z" fill="#EAEAEA" fill-opacity="0.2"/>
<path d="M33.7744 309.936C33.7395 321.019 29.5389 331.639 22.0883 339.484C14.6376 347.328 4.54085 351.761 -6.00155 351.815L-6.75611 351.811C-14.7979 351.726 -22.6265 349.089 -29.2167 344.247C-35.807 339.405 -40.8515 332.583 -43.6898 324.675C-46.5281 316.766 -47.0278 308.139 -45.1235 299.925C-43.2191 291.71 -38.9994 284.291 -33.0172 278.637C-32.8545 278.44 -32.7193 278.341 -32.7194 278.37L-32.4353 278.13L-32.2865 278.004L-32.124 277.848L-29.2156 275.469C-29.0535 275.274 -28.8668 275.103 -28.6607 274.961C-22.6333 270.658 -15.6031 268.167 -8.32914 267.757C-1.05514 267.346 6.18646 269.032 12.614 272.631C19.0415 276.231 24.4108 281.609 28.1424 288.183C31.874 294.757 33.826 302.279 33.7879 309.936L33.7744 309.936ZM-25.7944 286.987C-30.1495 291.123 -33.2205 296.541 -34.6081 302.535C-35.9957 308.53 -35.6356 314.823 -33.5748 320.598C-31.5139 326.372 -27.8476 331.361 -23.0525 334.914C-18.2575 338.467 -12.5557 340.421 -6.68846 340.522L-6.05517 340.525C1.60252 340.356 8.89383 337.04 14.2552 331.287C19.6165 325.534 22.621 317.803 22.6244 309.751C22.6278 301.7 19.6298 293.969 14.2733 288.216C8.91684 282.464 1.62839 279.148 -6.02916 278.979C-11.8765 278.95 -17.5966 280.779 -22.4395 284.227L-25.4969 286.762L-25.7808 286.959L-25.7944 286.987Z" fill="#EAEAEA" fill-opacity="0.2"/>
<path d="M74.9437 498.735L74.3181 629.033C74.3033 635.503 76.8541 641.714 81.4107 646.303C85.9673 650.893 92.1574 653.486 98.6226 653.514L132.368 653.676C135.696 653.687 138.991 653.015 142.049 651.699C145.107 650.384 147.862 648.454 150.144 646.029L150.292 645.87C152.566 643.348 154.332 640.409 155.493 637.216L155.667 636.812C156.438 634.431 156.835 631.945 156.845 629.442L157.059 584.796C157.109 573.713 160.661 562.929 167.206 553.988C173.752 545.046 182.956 538.405 193.501 535.014C194.361 534.749 195.131 534.252 195.727 533.579C196.324 532.905 196.725 532.081 196.885 531.195C196.898 531.065 196.899 530.933 196.887 530.802L196.89 530.323C196.891 529.585 196.731 528.856 196.423 528.186C196.114 527.515 195.664 526.92 195.102 526.442L137.71 480.02C133.375 476.496 127.966 474.561 122.381 474.538L99.4824 474.428C96.2759 474.411 93.0975 475.026 90.1287 476.239C87.16 477.451 84.459 479.237 82.1802 481.495C79.9015 483.752 78.0895 486.436 76.8478 489.395C75.6061 492.353 74.9591 495.527 74.9437 498.735ZM110.118 643.821L98.6694 643.766C94.8052 643.751 91.1048 642.203 88.3798 639.461C85.6547 636.72 84.1275 633.008 84.1331 629.142L84.7589 498.783C84.7873 494.913 86.3482 491.212 89.0995 488.492C91.8507 485.772 95.5677 484.256 99.4351 484.274L122.358 484.384C125.702 484.444 128.93 485.619 131.531 487.723L182.474 528.914C171.954 533.983 163.072 541.912 156.844 551.795C150.616 561.678 147.293 573.115 147.256 584.798C147.253 585.302 147.251 585.757 147.249 586.323C147.232 586.539 147.231 586.757 147.245 586.974L147.042 629.444C147.025 630.854 146.816 632.255 146.42 633.608C145.674 635.727 144.517 637.676 143.014 639.345C141.659 640.799 140.018 641.957 138.194 642.746C136.369 643.535 134.402 643.937 132.415 643.928L111.322 643.827C111.149 643.79 110.972 643.769 110.794 643.763C110.568 643.758 110.341 643.778 110.118 643.821Z" fill="#EAEAEA" fill-opacity="0.2"/>
<path d="M74.9437 498.735L74.3181 629.033C74.3033 635.503 76.8541 641.714 81.4107 646.303C85.9673 650.893 92.1574 653.486 98.6226 653.514L132.368 653.676C135.696 653.687 138.991 653.015 142.049 651.699C145.107 650.384 147.862 648.454 150.144 646.029L150.292 645.87C152.566 643.348 154.332 640.409 155.493 637.216L155.667 636.812C156.438 634.431 156.835 631.945 156.845 629.442L157.059 584.796C157.109 573.713 160.661 562.929 167.206 553.988C173.752 545.046 182.956 538.405 193.501 535.014C194.361 534.749 195.131 534.252 195.727 533.579C196.324 532.905 196.725 532.081 196.885 531.195C196.898 531.065 196.899 530.933 196.887 530.802L196.89 530.323C196.891 529.585 196.731 528.856 196.423 528.186C196.114 527.515 195.664 526.92 195.102 526.442L137.71 480.02C133.375 476.496 127.966 474.561 122.381 474.538L99.4824 474.428C96.2759 474.411 93.0975 475.026 90.1287 476.239C87.16 477.451 84.459 479.237 82.1802 481.495C79.9015 483.752 78.0895 486.436 76.8478 489.395C75.6061 492.353 74.9591 495.527 74.9437 498.735ZM110.118 643.821L98.6694 643.766C94.8052 643.751 91.1048 642.203 88.3798 639.461C85.6547 636.72 84.1275 633.008 84.1331 629.142L84.7589 498.783C84.7873 494.913 86.3482 491.212 89.0995 488.492C91.8507 485.772 95.5677 484.256 99.4351 484.274L122.358 484.384C125.702 484.444 128.93 485.619 131.531 487.723L182.474 528.914C171.954 533.983 163.072 541.912 156.844 551.795C150.616 561.678 147.293 573.115 147.256 584.798C147.253 585.302 147.251 585.757 147.249 586.323C147.232 586.539 147.231 586.757 147.245 586.974L147.042 629.444C147.025 630.854 146.816 632.255 146.42 633.608C145.674 635.727 144.517 637.676 143.014 639.345C141.659 640.799 140.018 641.957 138.194 642.746C136.369 643.535 134.402 643.937 132.415 643.928L111.322 643.827C111.149 643.79 110.972 643.769 110.794 643.763C110.568 643.758 110.341 643.778 110.118 643.821Z" fill="#EAEAEA" fill-opacity="0.2"/>
<path d="M166.756 594.134C166.685 605.216 170.783 615.877 178.158 623.792C185.533 631.708 195.587 636.237 206.129 636.392L206.883 636.396C214.925 636.388 222.779 633.827 229.415 629.048C236.052 624.27 241.162 617.496 244.076 609.615C246.99 601.734 247.572 593.113 245.747 584.881C243.921 576.648 239.773 569.188 233.845 563.478C233.685 563.279 233.55 563.179 233.55 563.207L233.269 562.965L233.121 562.837L232.96 562.68L230.075 560.273C229.914 560.076 229.729 559.904 229.525 559.76C223.539 555.4 216.533 552.841 209.263 552.361C201.993 551.88 194.736 553.496 188.274 557.034C181.812 560.572 176.392 565.897 172.597 572.436C168.803 578.974 166.778 586.477 166.743 594.134L166.756 594.134ZM226.543 571.757C230.858 575.936 233.877 581.382 235.207 587.39C236.537 593.397 236.116 599.687 234 605.442C231.884 611.196 228.17 616.149 223.341 619.656C218.512 623.163 212.792 625.063 206.924 625.107L206.291 625.104C198.635 624.861 191.376 621.475 186.07 615.671C180.764 609.867 177.834 602.107 177.908 594.056C177.982 586.005 181.054 578.303 186.465 572.602C191.877 566.901 199.197 563.656 206.855 563.561C212.703 563.588 218.405 565.471 223.215 568.965L226.248 571.529L226.53 571.729L226.543 571.757Z" fill="#EAEAEA" fill-opacity="0.2"/>
<path d="M166.756 594.134C166.685 605.216 170.783 615.877 178.158 623.792C185.533 631.708 195.587 636.237 206.129 636.392L206.883 636.396C214.925 636.388 222.779 633.827 229.415 629.048C236.052 624.27 241.162 617.496 244.076 609.615C246.99 601.734 247.572 593.113 245.747 584.881C243.921 576.648 239.773 569.188 233.845 563.478C233.685 563.279 233.55 563.179 233.55 563.207L233.269 562.965L233.121 562.837L232.96 562.68L230.075 560.273C229.914 560.076 229.729 559.904 229.525 559.76C223.539 555.4 216.533 552.841 209.263 552.361C201.993 551.88 194.736 553.496 188.274 557.034C181.812 560.572 176.392 565.897 172.597 572.436C168.803 578.974 166.778 586.477 166.743 594.134L166.756 594.134ZM226.543 571.757C230.858 575.936 233.877 581.382 235.207 587.39C236.537 593.397 236.116 599.687 234 605.442C231.884 611.196 228.17 616.149 223.341 619.656C218.512 623.163 212.792 625.063 206.924 625.107L206.291 625.104C198.635 624.861 191.376 621.475 186.07 615.671C180.764 609.867 177.834 602.107 177.908 594.056C177.982 586.005 181.054 578.303 186.465 572.602C191.877 566.901 199.197 563.656 206.855 563.561C212.703 563.588 218.405 565.471 223.215 568.965L226.248 571.529L226.53 571.729L226.543 571.757Z" fill="#EAEAEA" fill-opacity="0.2"/>
<path d="M228.752 677.392L228.122 808.677C228.074 815.196 225.435 821.429 220.783 826.009C216.132 830.588 209.848 833.141 203.311 833.107L169.191 832.943C165.826 832.922 162.5 832.212 159.422 830.857C156.343 829.503 153.576 827.531 151.292 825.066L151.144 824.904C148.869 822.341 147.112 819.363 145.969 816.135L145.797 815.726C145.041 813.319 144.664 810.811 144.678 808.289L144.894 763.305C144.951 752.138 141.464 741.239 134.933 732.166C128.402 723.094 119.161 716.314 108.531 712.796C107.665 712.52 106.891 712.012 106.294 711.327C105.697 710.643 105.3 709.809 105.146 708.915C105.135 708.783 105.135 708.65 105.148 708.519L105.151 708.036C105.157 707.292 105.325 706.559 105.643 705.887C105.962 705.215 106.423 704.62 106.995 704.143L165.473 657.928C169.89 654.419 175.377 652.522 181.025 652.553L204.177 652.664C207.42 652.678 210.627 653.329 213.617 654.579C216.607 655.83 219.32 657.655 221.603 659.952C223.885 662.248 225.691 664.97 226.917 667.963C228.144 670.955 228.768 674.16 228.752 677.392ZM191.782 823.229L203.358 823.285C207.265 823.307 211.022 821.783 213.803 819.047C216.585 816.312 218.165 812.587 218.197 808.692L218.828 677.345C218.837 673.445 217.294 669.702 214.539 666.935C211.784 664.168 208.04 662.604 204.13 662.585L180.952 662.474C177.571 662.502 174.296 663.654 171.646 665.748L119.739 706.756C130.327 711.965 139.23 720.04 145.431 730.058C151.632 740.075 154.881 751.631 154.806 763.403C154.803 763.91 154.801 764.369 154.798 764.938C154.813 765.157 154.812 765.376 154.795 765.595L154.59 808.386C154.593 809.807 154.79 811.221 155.178 812.588C155.911 814.729 157.063 816.705 158.566 818.4C159.922 819.879 161.57 821.062 163.407 821.874C165.243 822.687 167.229 823.111 169.238 823.121L190.565 823.224C190.741 823.188 190.92 823.168 191.099 823.164C191.328 823.162 191.557 823.184 191.782 823.229Z" fill="#EAEAEA" fill-opacity="0.2"/>
<path d="M228.752 677.392L228.122 808.677C228.074 815.196 225.435 821.429 220.783 826.009C216.132 830.588 209.848 833.141 203.311 833.107L169.191 832.943C165.826 832.922 162.5 832.212 159.422 830.857C156.343 829.503 153.576 827.531 151.292 825.066L151.144 824.904C148.869 822.341 147.112 819.363 145.969 816.135L145.797 815.726C145.041 813.319 144.664 810.811 144.678 808.289L144.894 763.305C144.951 752.138 141.464 741.239 134.933 732.166C128.402 723.094 119.161 716.314 108.531 712.796C107.665 712.52 106.891 712.012 106.294 711.327C105.697 710.643 105.3 709.809 105.146 708.915C105.135 708.783 105.135 708.65 105.148 708.519L105.151 708.036C105.157 707.292 105.325 706.559 105.643 705.887C105.962 705.215 106.423 704.62 106.995 704.143L165.473 657.928C169.89 654.419 175.377 652.522 181.025 652.553L204.177 652.664C207.42 652.678 210.627 653.329 213.617 654.579C216.607 655.83 219.32 657.655 221.603 659.952C223.885 662.248 225.691 664.97 226.917 667.963C228.144 670.955 228.768 674.16 228.752 677.392ZM191.782 823.229L203.358 823.285C207.265 823.307 211.022 821.783 213.803 819.047C216.585 816.312 218.165 812.587 218.197 808.692L218.828 677.345C218.837 673.445 217.294 669.702 214.539 666.935C211.784 664.168 208.04 662.604 204.13 662.585L180.952 662.474C177.571 662.502 174.296 663.654 171.646 665.748L119.739 706.756C130.327 711.965 139.23 720.04 145.431 730.058C151.632 740.075 154.881 751.631 154.806 763.403C154.803 763.91 154.801 764.369 154.798 764.938C154.813 765.157 154.812 765.376 154.795 765.595L154.59 808.386C154.593 809.807 154.79 811.221 155.178 812.588C155.911 814.729 157.063 816.705 158.566 818.4C159.922 819.879 161.57 821.062 163.407 821.874C165.243 822.687 167.229 823.111 169.238 823.121L190.565 823.224C190.741 823.188 190.92 823.168 191.099 823.164C191.328 823.162 191.557 823.184 191.782 823.229Z" fill="#EAEAEA" fill-opacity="0.2"/>
<path d="M136.029 771.043C135.995 781.946 131.725 792.395 124.149 800.112C116.574 807.828 106.306 812.188 95.5853 812.239L94.8179 812.235C86.6399 812.15 78.6781 809.555 71.9754 804.79C65.2727 800.025 60.1416 793.312 57.2539 785.531C54.3663 777.749 53.8567 769.262 55.7921 761.18C57.7274 753.098 62.0174 745.799 68.1002 740.238C68.2656 740.044 68.4031 739.947 68.4029 739.975L68.6918 739.739L68.8432 739.614L69.0083 739.462L71.9657 737.121C72.1305 736.929 72.3203 736.761 72.5299 736.622C78.6588 732.389 85.8077 729.939 93.2049 729.537C100.602 729.134 107.967 730.793 114.504 734.336C121.041 737.879 126.502 743.17 130.298 749.639C134.094 756.108 136.08 763.509 136.042 771.043L136.029 771.043ZM75.4466 748.454C71.0184 752.523 67.8962 757.853 66.4861 763.75C65.0759 769.647 65.4431 775.84 67.5398 781.521C69.6365 787.203 73.3658 792.112 78.2426 795.608C83.1195 799.105 88.9183 801.029 94.8849 801.129L95.529 801.132C103.316 800.967 110.731 797.705 116.182 792.046C121.633 786.386 124.688 778.78 124.69 770.859C124.692 762.937 121.642 755.33 116.194 749.67C110.746 744.009 103.333 740.746 95.5456 740.579C89.5992 740.549 83.7824 742.348 78.858 745.739L75.7492 748.232L75.4605 748.426L75.4466 748.454Z" fill="#EAEAEA" fill-opacity="0.2"/>
<path d="M136.029 771.043C135.995 781.946 131.725 792.395 124.149 800.112C116.574 807.828 106.306 812.188 95.5853 812.239L94.8179 812.235C86.6399 812.15 78.6781 809.555 71.9754 804.79C65.2727 800.025 60.1416 793.312 57.2539 785.531C54.3663 777.749 53.8567 769.262 55.7921 761.18C57.7274 753.098 62.0174 745.799 68.1002 740.238C68.2656 740.044 68.4031 739.947 68.4029 739.975L68.6918 739.739L68.8432 739.614L69.0083 739.462L71.9657 737.121C72.1305 736.929 72.3203 736.761 72.5299 736.622C78.6588 732.389 85.8077 729.939 93.2049 729.537C100.602 729.134 107.967 730.793 114.504 734.336C121.041 737.879 126.502 743.17 130.298 749.639C134.094 756.108 136.08 763.509 136.042 771.043L136.029 771.043ZM75.4466 748.454C71.0184 752.523 67.8962 757.853 66.4861 763.75C65.0759 769.647 65.4431 775.84 67.5398 781.521C69.6365 787.203 73.3658 792.112 78.2426 795.608C83.1195 799.105 88.9183 801.029 94.8849 801.129L95.529 801.132C103.316 800.967 110.731 797.705 116.182 792.046C121.633 786.386 124.688 778.78 124.69 770.859C124.692 762.937 121.642 755.33 116.194 749.67C110.746 744.009 103.333 740.746 95.5456 740.579C89.5992 740.549 83.7824 742.348 78.858 745.739L75.7492 748.232L75.4605 748.426L75.4466 748.454Z" fill="#EAEAEA" fill-opacity="0.2"/>
<path d="M227.268 174.604L356.783 175.695C363.214 175.733 369.397 173.205 373.975 168.666C378.553 164.127 381.153 157.947 381.204 151.483L381.486 117.745C381.509 114.418 380.852 111.121 379.556 108.059C378.259 104.997 376.351 102.236 373.949 99.9457L373.791 99.797C371.292 97.514 368.377 95.7377 365.208 94.5659L364.806 94.3905C362.442 93.6113 359.972 93.2052 357.485 93.1865L313.107 92.8124C302.09 92.7227 291.384 89.133 282.52 82.5569C273.655 75.9807 267.087 66.755 263.754 56.1994C263.493 55.3392 263.002 54.5675 262.335 53.9685C261.668 53.3694 260.85 52.9659 259.97 52.802C259.84 52.7888 259.709 52.7877 259.579 52.7987L259.103 52.7947C258.369 52.791 257.644 52.9477 256.977 53.2538C256.309 53.5599 255.716 54.0083 255.239 54.5677L208.89 111.783C205.371 116.104 203.428 121.505 203.385 127.089L203.194 149.983C203.166 153.189 203.766 156.369 204.961 159.341C206.155 162.314 207.921 165.02 210.156 167.307C212.392 169.593 215.054 171.414 217.99 172.666C220.926 173.918 224.079 174.577 227.268 174.604ZM371.61 139.955L371.515 151.402C371.486 155.265 369.934 158.959 367.199 161.674C364.464 164.389 360.77 165.902 356.926 165.883L227.35 164.79C223.503 164.748 219.831 163.174 217.137 160.414C214.443 157.653 212.949 153.932 212.981 150.065L213.172 127.147C213.244 123.805 214.424 120.581 216.524 117.988L257.65 67.2023C262.652 77.7383 270.502 86.6469 280.303 92.9091C290.104 99.1713 301.461 102.534 313.074 102.614C313.575 102.618 314.027 102.622 314.589 102.626C314.805 102.644 315.021 102.646 315.237 102.632L357.452 102.988C358.853 103.009 360.245 103.223 361.589 103.625C363.692 104.377 365.626 105.542 367.279 107.05C368.72 108.41 369.865 110.055 370.643 111.882C371.42 113.708 371.813 115.677 371.797 117.664L371.62 138.752C371.583 138.925 371.561 139.102 371.555 139.279C371.55 139.506 371.568 139.732 371.61 139.955Z" fill="#EAEAEA" fill-opacity="0.2"/>
<path d="M227.268 174.604L356.783 175.695C363.214 175.733 369.397 173.205 373.975 168.666C378.553 164.127 381.153 157.947 381.204 151.483L381.486 117.745C381.509 114.418 380.852 111.121 379.556 108.059C378.259 104.997 376.351 102.236 373.949 99.9457L373.791 99.797C371.292 97.514 368.377 95.7377 365.208 94.5659L364.806 94.3905C362.442 93.6113 359.972 93.2052 357.485 93.1865L313.107 92.8124C302.09 92.7227 291.384 89.133 282.52 82.5569C273.655 75.9807 267.087 66.755 263.754 56.1994C263.493 55.3392 263.002 54.5675 262.335 53.9685C261.668 53.3694 260.85 52.9659 259.97 52.802C259.84 52.7888 259.709 52.7877 259.579 52.7987L259.103 52.7947C258.369 52.791 257.644 52.9477 256.977 53.2538C256.309 53.5599 255.716 54.0083 255.239 54.5677L208.89 111.783C205.371 116.104 203.428 121.505 203.385 127.089L203.194 149.983C203.166 153.189 203.766 156.369 204.961 159.341C206.155 162.314 207.921 165.02 210.156 167.307C212.392 169.593 215.054 171.414 217.99 172.666C220.926 173.918 224.079 174.577 227.268 174.604ZM371.61 139.955L371.515 151.402C371.486 155.265 369.934 158.959 367.199 161.674C364.464 164.389 360.77 165.902 356.926 165.883L227.35 164.79C223.503 164.748 219.831 163.174 217.137 160.414C214.443 157.653 212.949 153.932 212.981 150.065L213.172 127.147C213.244 123.805 214.424 120.581 216.524 117.988L257.65 67.2023C262.652 77.7383 270.502 86.6469 280.303 92.9091C290.104 99.1713 301.461 102.534 313.074 102.614C313.575 102.618 314.027 102.622 314.589 102.626C314.805 102.644 315.021 102.646 315.237 102.632L357.452 102.988C358.853 103.009 360.245 103.223 361.589 103.625C363.692 104.377 365.626 105.542 367.279 107.05C368.72 108.41 369.865 110.055 370.643 111.882C371.42 113.708 371.813 115.677 371.797 117.664L371.62 138.752C371.583 138.925 371.561 139.102 371.555 139.279C371.55 139.506 371.568 139.732 371.61 139.955Z" fill="#EAEAEA" fill-opacity="0.2"/>
<path d="M321.364 83.2821C332.252 83.3925 342.742 79.2617 350.548 71.7901C358.353 64.3186 362.841 54.1118 363.034 43.3944L363.04 42.6272C363.062 34.4503 360.576 26.4565 355.906 19.6927C351.235 12.9288 344.6 7.71036 336.867 4.72064C329.134 1.73091 320.666 1.10933 312.57 2.9373C304.474 4.76527 297.129 8.95758 291.496 14.9652C291.299 15.1279 291.201 15.2641 291.229 15.2643L290.99 15.55L290.863 15.6997L290.709 15.8628L288.332 18.7884C288.138 18.9506 287.968 19.1382 287.826 19.3459C283.519 25.4171 280.979 32.5316 280.479 39.9215C279.98 47.3113 281.54 54.6958 284.992 61.2779C288.444 67.8599 293.656 73.3895 300.066 77.2698C306.476 81.1502 313.84 83.2338 321.364 83.2958L321.364 83.2821ZM299.603 22.4182C303.725 18.045 309.088 14.9941 314.996 13.6623C320.903 12.3305 327.082 12.7794 332.728 14.9507C338.374 17.1219 343.227 20.915 346.654 25.8367C350.082 30.7584 351.927 36.5811 351.948 42.5474L351.943 43.1913C351.675 50.9744 348.321 58.3436 342.598 63.7186C336.875 69.0935 329.24 72.0463 321.329 71.9438C313.418 71.8412 305.863 68.6915 300.282 63.17C294.701 57.6485 291.539 50.1949 291.475 42.4075C291.524 36.4623 293.396 30.6709 296.847 25.7927L299.378 22.7177L299.575 22.4317L299.603 22.4182Z" fill="#EAEAEA" fill-opacity="0.2"/>
<path d="M321.364 83.2821C332.252 83.3925 342.742 79.2617 350.548 71.7901C358.353 64.3186 362.841 54.1118 363.034 43.3944L363.04 42.6272C363.062 34.4503 360.576 26.4565 355.906 19.6927C351.235 12.9288 344.6 7.71036 336.867 4.72064C329.134 1.73091 320.666 1.10933 312.57 2.9373C304.474 4.76527 297.129 8.95758 291.496 14.9652C291.299 15.1279 291.201 15.2641 291.229 15.2643L290.99 15.55L290.863 15.6997L290.709 15.8628L288.332 18.7884C288.138 18.9506 287.968 19.1382 287.826 19.3459C283.519 25.4171 280.979 32.5316 280.479 39.9215C279.98 47.3113 281.54 54.6958 284.992 61.2779C288.444 67.8599 293.656 73.3895 300.066 77.2698C306.476 81.1502 313.84 83.2338 321.364 83.2958L321.364 83.2821ZM299.603 22.4182C303.725 18.045 309.088 14.9941 314.996 13.6623C320.903 12.3305 327.082 12.7794 332.728 14.9507C338.374 17.1219 343.227 20.915 346.654 25.8367C350.082 30.7584 351.927 36.5811 351.948 42.5474L351.943 43.1913C351.675 50.9744 348.321 58.3436 342.598 63.7186C336.875 69.0935 329.24 72.0463 321.329 71.9438C313.418 71.8412 305.863 68.6915 300.282 63.17C294.701 57.6485 291.539 50.1949 291.475 42.4075C291.524 36.4623 293.396 30.6709 296.847 25.7927L299.378 22.7177L299.575 22.4317L299.603 22.4182Z" fill="#EAEAEA" fill-opacity="0.2"/>
<path d="M277.157 684.594L406.672 685.686C413.102 685.724 419.285 683.196 423.864 678.657C428.442 674.118 431.042 667.938 431.093 661.474L431.375 627.736C431.398 624.408 430.741 621.111 429.444 618.05C428.148 614.988 426.239 612.226 423.837 609.936L423.68 609.788C421.18 607.505 418.266 605.728 415.097 604.557L414.695 604.381C412.331 603.602 409.861 603.196 407.373 603.177L362.996 602.803C351.979 602.713 341.273 599.124 332.408 592.548C323.544 585.971 316.975 576.746 313.643 566.19C313.382 565.33 312.891 564.558 312.224 563.959C311.557 563.36 310.739 562.957 309.859 562.793C309.729 562.78 309.598 562.778 309.468 562.789L308.991 562.785C308.258 562.782 307.533 562.938 306.865 563.245C306.198 563.551 305.605 563.999 305.127 564.558L258.778 621.773C255.259 626.095 253.317 631.496 253.274 637.08L253.083 659.973C253.054 663.179 253.655 666.359 254.849 669.332C256.044 672.304 257.809 675.011 260.045 677.297C262.281 679.584 264.943 681.405 267.879 682.657C270.815 683.909 273.967 684.567 277.157 684.594ZM421.499 649.946L421.403 661.393C421.374 665.256 419.822 668.95 417.087 671.665C414.353 674.379 410.658 675.893 406.815 675.874L277.239 674.781C273.392 674.739 269.719 673.165 267.026 670.405C264.332 667.644 262.837 663.923 262.87 660.056L263.061 637.138C263.133 633.795 264.312 630.572 266.412 627.979L307.539 577.193C312.54 587.729 320.39 596.638 330.192 602.9C339.993 609.162 351.35 612.525 362.963 612.604C363.464 612.609 363.916 612.612 364.478 612.617C364.694 612.635 364.91 612.636 365.126 612.623L407.34 612.979C408.742 613 410.134 613.214 411.477 613.615C413.581 614.368 415.514 615.532 417.167 617.041C418.608 618.401 419.754 620.046 420.531 621.872C421.309 623.699 421.702 625.668 421.685 627.654L421.509 648.742C421.472 648.916 421.45 649.092 421.444 649.27C421.439 649.497 421.457 649.723 421.499 649.946Z" fill="#4EBA66" fill-opacity="0.2"/>
<path d="M371.252 593.275C382.141 593.385 392.631 589.254 400.436 581.783C408.242 574.311 412.73 564.104 412.922 553.387L412.929 552.62C412.951 544.443 410.464 536.449 405.794 529.685C401.124 522.921 394.488 517.703 386.756 514.713C379.023 511.723 370.554 511.102 362.459 512.93C354.363 514.758 347.017 518.95 341.384 524.958C341.188 525.12 341.089 525.257 341.117 525.257L340.878 525.542L340.752 525.692L340.597 525.855L338.221 528.781C338.027 528.943 337.857 529.131 337.715 529.338C333.408 535.41 330.867 542.524 330.368 549.914C329.868 557.304 331.429 564.688 334.881 571.27C338.332 577.852 343.545 583.382 349.954 587.262C356.364 591.143 363.729 593.226 371.252 593.288L371.252 593.275ZM349.492 532.411C353.613 528.037 358.977 524.987 364.884 523.655C370.792 522.323 376.97 522.772 382.617 524.943C388.263 527.114 393.115 530.907 396.543 535.829C399.971 540.751 401.815 546.573 401.837 552.54L401.831 553.184C401.564 560.967 398.209 568.336 392.486 573.711C386.764 579.086 379.128 582.039 371.218 581.936C363.307 581.834 355.751 578.684 350.17 573.162C344.59 567.641 341.428 560.187 341.364 552.4C341.412 546.455 343.285 540.663 346.736 535.785L349.267 532.71L349.464 532.424L349.492 532.411Z" fill="#EAEAEA" fill-opacity="0.2"/>
</g>
</svg>
