<svg width="357" height="723" viewBox="0 0 357 723" fill="none" xmlns="http://www.w3.org/2000/svg">
<g opacity="0.5">
<path d="M-34.7579 108.803C-34.8061 117.729 -31.3834 126.312 -25.2357 132.681C-19.088 139.051 -10.7137 142.691 -1.9379 142.808L-1.30973 142.81C5.38536 142.797 11.9209 140.728 17.4408 136.874C22.9607 133.02 27.2078 127.561 29.6258 121.211C32.0438 114.861 32.5199 107.917 30.9919 101.288C29.4639 94.6588 26.003 88.6537 21.0624 84.0592C20.9283 83.899 20.8165 83.8187 20.8164 83.8415L20.5815 83.6467L20.4585 83.5436L20.3244 83.4176L17.9198 81.4807C17.7862 81.3225 17.632 81.1838 17.4614 81.0682C12.4738 77.5609 6.63882 75.5056 0.586311 75.1244C-5.46619 74.7432 -11.5064 76.0504 -16.8822 78.9049C-22.258 81.7595 -26.7653 86.0531 -29.9176 91.3221C-33.0699 96.5911 -34.7474 102.636 -34.7691 108.803L-34.7579 108.803ZM14.9914 90.7335C18.588 94.0952 21.1067 98.4798 22.22 103.317C23.3333 108.155 22.9896 113.221 21.2337 117.857C19.4778 122.494 16.3909 126.486 12.3744 129.315C8.35794 132.143 3.5977 133.677 -1.28726 133.717L-1.81448 133.715C-8.18809 133.526 -14.2347 130.804 -18.6577 126.134C-23.0807 121.463 -25.5279 115.216 -25.4745 108.731C-25.4212 102.247 -22.8715 96.041 -18.3723 91.4453C-13.873 86.8496 -7.7825 84.2296 -1.40666 84.1472C3.46127 84.1642 8.21033 85.677 12.2178 88.4871L14.7453 90.55L14.9803 90.7106L14.9914 90.7335Z" fill="#EAEAEA" fill-opacity="0.2"/>
<path d="M31.2188 283.98L31.6137 177.315C31.6463 172.019 33.7306 166.952 37.4093 163.227C41.0879 159.501 46.0603 157.421 51.2352 157.443L78.2461 157.543C80.9102 157.556 83.5431 158.13 85.9815 159.228C88.4199 160.326 90.6118 161.924 92.4214 163.925L92.5389 164.056C94.342 166.137 95.7353 168.554 96.6424 171.176L96.7788 171.508C97.3795 173.463 97.6804 175.501 97.6709 177.549L97.5356 214.097C97.4995 223.171 100.268 232.023 105.446 239.387C110.623 246.752 117.944 252.251 126.362 255.1C127.048 255.323 127.661 255.735 128.134 256.29C128.607 256.846 128.922 257.523 129.044 258.249C129.054 258.356 129.053 258.464 129.043 258.571L129.042 258.964C129.037 259.568 128.905 260.164 128.653 260.71C128.402 261.256 128.037 261.74 127.584 262.128L81.3285 299.733C77.8347 302.588 73.4917 304.134 69.021 304.115L50.6925 304.047C48.126 304.039 45.5862 303.513 43.2183 302.5C40.8505 301.487 38.7009 300.007 36.8925 298.143C35.084 296.28 33.6522 294.07 32.6787 291.64C31.7051 289.209 31.2091 286.607 31.2188 283.98ZM60.3699 165.457L51.2057 165.423C48.1127 165.409 45.1403 166.65 42.9403 168.876C40.7403 171.101 39.4924 174.129 39.4703 177.294L39.0753 284.009C39.0714 287.177 40.2953 290.217 42.4787 292.463C44.6622 294.708 47.6268 295.975 50.7224 295.987L69.0705 296.055C71.7473 296.029 74.3391 295.089 76.4355 293.385L117.494 260.018C109.108 255.796 102.054 249.243 97.1368 241.111C92.2198 232.978 89.6389 223.592 89.6891 214.028C89.6907 213.615 89.692 213.243 89.6938 212.78C89.682 212.603 89.6827 212.424 89.6957 212.247L89.8244 177.48C89.8211 176.326 89.6632 175.177 89.3553 174.067C88.7732 172.328 87.8601 170.724 86.6686 169.348C85.5941 168.148 84.2885 167.188 82.8339 166.53C81.3792 165.872 79.8072 165.529 78.2166 165.523L61.3336 165.46C61.1942 165.489 61.0527 165.505 60.9106 165.509C60.7291 165.511 60.5479 165.493 60.3699 165.457Z" fill="#EAEAEA" fill-opacity="0.2"/>
<path d="M104.821 206.519C104.84 197.446 108.384 188.748 114.682 182.321C120.98 175.893 129.521 172.257 138.443 172.204L139.082 172.207C145.888 172.27 152.517 174.422 158.1 178.381C163.683 182.339 167.959 187.92 170.37 194.392C172.78 200.864 173.212 207.925 171.609 214.651C170.005 221.377 166.442 227.455 161.384 232.087C161.247 232.249 161.132 232.33 161.133 232.307L160.892 232.503L160.766 232.607L160.629 232.734L158.17 234.684C158.033 234.844 157.875 234.984 157.701 235.1C152.604 238.627 146.656 240.672 140.5 241.014C134.344 241.356 128.213 239.982 122.77 237.04C117.326 234.099 112.776 229.701 109.611 224.322C106.446 218.943 104.786 212.787 104.81 206.518L104.821 206.519ZM155.263 225.258C158.944 221.868 161.538 217.431 162.706 212.523C163.874 207.615 163.563 202.463 161.813 197.737C160.063 193.012 156.954 188.931 152.892 186.026C148.83 183.121 144.002 181.526 139.036 181.448L138.5 181.446C132.019 181.591 125.852 184.311 121.32 189.025C116.788 193.739 114.253 200.07 114.259 206.661C114.264 213.252 116.81 219.579 121.349 224.283C125.889 228.988 132.061 231.697 138.542 231.829C143.491 231.848 148.331 230.346 152.426 227.52L155.011 225.443L155.251 225.281L155.263 225.258Z" fill="#EAEAEA" fill-opacity="0.2"/>
<path d="M104.821 206.519C104.84 197.446 108.384 188.748 114.682 182.321C120.98 175.893 129.521 172.257 138.443 172.204L139.082 172.207C145.888 172.27 152.517 174.422 158.1 178.381C163.683 182.339 167.959 187.92 170.37 194.392C172.78 200.864 173.212 207.925 171.609 214.651C170.005 221.377 166.442 227.455 161.384 232.087C161.247 232.249 161.132 232.33 161.133 232.307L160.892 232.503L160.766 232.607L160.629 232.734L158.17 234.684C158.033 234.844 157.875 234.984 157.701 235.1C152.604 238.627 146.656 240.672 140.5 241.014C134.344 241.356 128.213 239.982 122.77 237.04C117.326 234.099 112.776 229.701 109.611 224.322C106.446 218.943 104.786 212.787 104.81 206.518L104.821 206.519ZM155.263 225.258C158.944 221.868 161.538 217.431 162.706 212.523C163.874 207.615 163.563 202.463 161.813 197.737C160.063 193.012 156.954 188.931 152.892 186.026C148.83 183.121 144.002 181.526 139.036 181.448L138.5 181.446C132.019 181.591 125.852 184.311 121.32 189.025C116.788 193.739 114.253 200.07 114.259 206.661C114.264 213.252 116.81 219.579 121.349 224.283C125.889 228.988 132.061 231.697 138.542 231.829C143.491 231.848 148.331 230.346 152.426 227.52L155.011 225.443L155.251 225.281L155.263 225.258Z" fill="#EAEAEA" fill-opacity="0.2"/>
<path d="M119.637 701.913L120.032 595.248C120.064 589.952 122.172 584.885 125.892 581.16C129.613 577.435 134.642 575.355 139.875 575.377L167.193 575.478C169.888 575.491 172.55 576.065 175.017 577.163C177.483 578.261 179.7 579.86 181.53 581.86L181.649 581.992C183.472 584.072 184.882 586.49 185.799 589.111L185.937 589.444C186.545 591.398 186.849 593.436 186.84 595.485L186.704 632.033C186.668 641.106 189.469 649.958 194.705 657.323C199.942 664.688 207.346 670.188 215.86 673.037C216.553 673.26 217.173 673.672 217.652 674.227C218.13 674.783 218.449 675.46 218.573 676.186C218.582 676.293 218.582 676.401 218.572 676.508L218.57 676.901C218.566 677.505 218.432 678.1 218.177 678.647C217.923 679.193 217.554 679.677 217.097 680.065L170.317 717.668C166.783 720.523 162.391 722.069 157.869 722.05L139.333 721.981C136.737 721.973 134.168 721.447 131.773 720.434C129.379 719.421 127.205 717.94 125.376 716.076C123.546 714.213 122.098 712.003 121.114 709.573C120.129 707.142 119.627 704.54 119.637 701.913ZM149.114 583.391L139.846 583.356C136.718 583.342 133.711 584.584 131.487 586.809C129.262 589.034 128 592.062 127.978 595.227L127.583 701.942C127.579 705.11 128.817 708.151 131.025 710.396C133.233 712.642 136.232 713.909 139.362 713.921L157.919 713.989C160.626 713.963 163.248 713.024 165.368 711.32L206.891 677.954C198.41 673.732 191.275 667.179 186.302 659.046C181.329 650.913 178.718 641.528 178.769 631.963C178.77 631.551 178.771 631.178 178.773 630.716C178.761 630.538 178.762 630.36 178.775 630.182L178.904 595.415C178.9 594.261 178.741 593.113 178.429 592.002C177.84 590.263 176.917 588.659 175.712 587.283C174.625 586.083 173.305 585.123 171.833 584.465C170.362 583.807 168.772 583.464 167.164 583.458L150.089 583.394C149.948 583.423 149.805 583.44 149.661 583.443C149.477 583.445 149.294 583.427 149.114 583.391Z" fill="#EAEAEA" fill-opacity="0.2"/>
<path d="M119.637 701.913L120.032 595.248C120.064 589.952 122.172 584.885 125.892 581.16C129.613 577.435 134.642 575.355 139.875 575.377L167.193 575.478C169.888 575.491 172.55 576.065 175.017 577.163C177.483 578.261 179.7 579.86 181.53 581.86L181.649 581.992C183.472 584.072 184.882 586.49 185.799 589.111L185.937 589.444C186.545 591.398 186.849 593.436 186.84 595.485L186.704 632.033C186.668 641.106 189.469 649.958 194.705 657.323C199.942 664.688 207.346 670.188 215.86 673.037C216.553 673.26 217.173 673.672 217.652 674.227C218.13 674.783 218.449 675.46 218.573 676.186C218.582 676.293 218.582 676.401 218.572 676.508L218.57 676.901C218.566 677.505 218.432 678.1 218.177 678.647C217.923 679.193 217.554 679.677 217.097 680.065L170.317 717.668C166.783 720.523 162.391 722.069 157.869 722.05L139.333 721.981C136.737 721.973 134.168 721.447 131.773 720.434C129.379 719.421 127.205 717.94 125.376 716.076C123.546 714.213 122.098 712.003 121.114 709.573C120.129 707.142 119.627 704.54 119.637 701.913ZM149.114 583.391L139.846 583.356C136.718 583.342 133.711 584.584 131.487 586.809C129.262 589.034 128 592.062 127.978 595.227L127.583 701.942C127.579 705.11 128.817 708.151 131.025 710.396C133.233 712.642 136.232 713.909 139.362 713.921L157.919 713.989C160.626 713.963 163.248 713.024 165.368 711.32L206.891 677.954C198.41 673.732 191.275 667.179 186.302 659.046C181.329 650.913 178.718 641.528 178.769 631.963C178.77 631.551 178.771 631.178 178.773 630.716C178.761 630.538 178.762 630.36 178.775 630.182L178.904 595.415C178.9 594.261 178.741 593.113 178.429 592.002C177.84 590.263 176.917 588.659 175.712 587.283C174.625 586.083 173.305 585.123 171.833 584.465C170.362 583.807 168.772 583.464 167.164 583.458L150.089 583.394C149.948 583.423 149.805 583.44 149.661 583.443C149.477 583.445 149.294 583.427 149.114 583.391Z" fill="#EAEAEA" fill-opacity="0.2"/>
<path d="M194.348 624.456C194.367 615.383 197.796 606.685 203.888 600.257C209.981 593.828 218.242 590.191 226.872 590.137L227.49 590.14C234.073 590.202 240.484 592.353 245.883 596.311C251.283 600.269 255.418 605.849 257.749 612.321C260.08 618.792 260.497 625.854 258.945 632.58C257.393 639.306 253.946 645.384 249.054 650.017C248.921 650.179 248.81 650.26 248.81 650.237L248.578 650.433L248.456 650.537L248.323 650.664L245.944 652.615C245.812 652.775 245.659 652.914 245.491 653.031C240.56 656.558 234.808 658.604 228.853 658.947C222.899 659.29 216.969 657.916 211.704 654.975C206.439 652.034 202.039 647.637 198.978 642.258C195.918 636.88 194.313 630.724 194.337 624.455L194.348 624.456ZM243.133 643.189C246.695 639.799 249.204 635.361 250.334 630.453C251.465 625.544 251.165 620.393 249.472 615.667C247.78 610.942 244.774 606.862 240.846 603.957C236.917 601.053 232.248 599.458 227.445 599.381L226.926 599.379C220.658 599.524 214.692 602.246 210.308 606.96C205.924 611.674 203.472 618.006 203.476 624.597C203.481 631.188 205.942 637.514 210.332 642.218C214.722 646.923 220.692 649.631 226.96 649.762C231.747 649.78 236.428 648.278 240.389 645.451L242.89 643.374L243.122 643.212L243.133 643.189Z" fill="#EAEAEA" fill-opacity="0.2"/>
<path d="M171.723 432.066L172.121 324.593C172.127 319.256 170.034 314.136 166.3 310.355C162.566 306.573 157.496 304.44 152.203 304.423L124.579 304.321C121.854 304.314 119.157 304.872 116.655 305.96C114.153 307.048 111.899 308.642 110.034 310.644L109.912 310.776C108.053 312.859 106.61 315.284 105.662 317.918L105.52 318.252C104.891 320.217 104.568 322.268 104.562 324.332L104.426 361.157C104.395 370.299 101.497 379.197 96.1464 386.578C90.796 393.96 83.2674 399.446 74.6376 402.252C73.9343 402.472 73.3043 402.882 72.8164 403.438C72.3285 403.995 72.0013 404.675 71.8704 405.405C71.8601 405.513 71.8597 405.622 71.8692 405.73L71.8678 406.125C71.8675 406.734 71.9986 407.335 72.2518 407.888C72.505 408.44 72.8743 408.93 73.3342 409.325L120.358 447.561C123.909 450.464 128.339 452.055 132.911 452.069L151.657 452.138C154.281 452.149 156.883 451.639 159.312 450.636C161.741 449.633 163.951 448.157 165.814 446.293C167.678 444.429 169.159 442.213 170.173 439.772C171.186 437.331 171.713 434.712 171.723 432.066ZM142.801 312.429L152.174 312.463C155.337 312.472 158.367 313.746 160.601 316.005C162.834 318.263 164.087 321.323 164.086 324.512L163.688 432.036C163.668 435.228 162.394 438.282 160.144 440.528C157.894 442.774 154.853 444.028 151.687 444.017L132.921 443.947C130.184 443.901 127.54 442.935 125.409 441.202L83.6698 407.274C92.2772 403.083 99.5412 396.535 104.631 388.377C109.721 380.22 112.431 370.783 112.451 361.146C112.453 360.731 112.454 360.355 112.456 359.889C112.469 359.71 112.47 359.531 112.458 359.352L112.588 324.321C112.6 323.159 112.77 322.003 113.093 320.886C113.701 319.138 114.647 317.529 115.876 316.151C116.984 314.95 118.327 313.994 119.819 313.341C121.312 312.689 122.922 312.355 124.549 312.361L141.816 312.425C141.958 312.455 142.102 312.473 142.248 312.477C142.433 312.481 142.619 312.464 142.801 312.429Z" fill="#EAEAEA" fill-opacity="0.2"/>
<path d="M171.723 432.066L172.121 324.593C172.127 319.256 170.034 314.136 166.3 310.355C162.566 306.573 157.496 304.44 152.203 304.423L124.579 304.321C121.854 304.314 119.157 304.872 116.655 305.96C114.153 307.048 111.899 308.642 110.034 310.644L109.912 310.776C108.053 312.859 106.61 315.284 105.662 317.918L105.52 318.252C104.891 320.217 104.568 322.268 104.562 324.332L104.426 361.157C104.395 370.299 101.497 379.197 96.1464 386.578C90.796 393.96 83.2674 399.446 74.6376 402.252C73.9343 402.472 73.3043 402.882 72.8164 403.438C72.3285 403.995 72.0013 404.675 71.8704 405.405C71.8601 405.513 71.8597 405.622 71.8692 405.73L71.8678 406.125C71.8675 406.734 71.9986 407.335 72.2518 407.888C72.505 408.44 72.8743 408.93 73.3342 409.325L120.358 447.561C123.909 450.464 128.339 452.055 132.911 452.069L151.657 452.138C154.281 452.149 156.883 451.639 159.312 450.636C161.741 449.633 163.951 448.157 165.814 446.293C167.678 444.429 169.159 442.213 170.173 439.772C171.186 437.331 171.713 434.712 171.723 432.066ZM142.801 312.429L152.174 312.463C155.337 312.472 158.367 313.746 160.601 316.005C162.834 318.263 164.087 321.323 164.086 324.512L163.688 432.036C163.668 435.228 162.394 438.282 160.144 440.528C157.894 442.774 154.853 444.028 151.687 444.017L132.921 443.947C130.184 443.901 127.54 442.935 125.409 441.202L83.6698 407.274C92.2772 403.083 99.5412 396.535 104.631 388.377C109.721 380.22 112.431 370.783 112.451 361.146C112.453 360.731 112.454 360.355 112.456 359.889C112.469 359.71 112.47 359.531 112.458 359.352L112.588 324.321C112.6 323.159 112.77 322.003 113.093 320.886C113.701 319.138 114.647 317.529 115.876 316.151C116.984 314.95 118.327 313.994 119.819 313.341C121.312 312.689 122.922 312.355 124.549 312.361L141.816 312.425C141.958 312.455 142.102 312.473 142.248 312.477C142.433 312.481 142.619 312.464 142.801 312.429Z" fill="#EAEAEA" fill-opacity="0.2"/>
<path d="M96.4787 354.204C96.5272 345.132 93.1626 336.409 87.1181 329.936C81.0737 323.462 72.8394 319.764 64.2098 319.646L63.5921 319.644C57.0086 319.658 50.5818 321.762 45.1534 325.679C39.725 329.597 35.548 335.147 33.1696 341.601C30.7911 348.055 30.322 355.113 31.8237 361.851C33.3255 368.588 36.728 374.691 41.5857 379.361C41.7175 379.523 41.8275 379.605 41.8276 379.582L42.0585 379.78L42.1794 379.885L42.3113 380.013L44.6756 381.981C44.8069 382.142 44.9586 382.283 45.1263 382.4C50.0304 385.964 55.7678 388.053 61.7194 388.439C67.671 388.826 73.6106 387.497 78.8972 384.595C84.1838 381.693 88.6165 377.328 91.7169 371.972C94.8173 366.617 96.4676 360.473 96.4897 354.204L96.4787 354.204ZM47.5563 372.576C44.02 369.16 41.5439 364.704 40.4497 359.787C39.3556 354.87 39.6941 349.721 41.4213 345.008C43.1485 340.296 46.1845 336.238 50.1344 333.362C54.0843 330.487 58.7654 328.927 63.5689 328.886L64.0874 328.888C70.3547 329.079 76.3002 331.845 80.649 336.591C84.9977 341.338 87.4033 347.687 87.35 354.278C87.2968 360.869 84.7888 367.177 80.364 371.849C75.9392 376.52 69.9499 379.184 63.6803 379.268C58.8935 379.252 54.2237 377.715 50.2834 374.859L47.7983 372.763L47.5672 372.599L47.5563 372.576Z" fill="#EAEAEA" fill-opacity="0.2"/>
<path d="M96.4787 354.204C96.5272 345.132 93.1626 336.409 87.1181 329.936C81.0737 323.462 72.8394 319.764 64.2098 319.646L63.5921 319.644C57.0086 319.658 50.5818 321.762 45.1534 325.679C39.725 329.597 35.548 335.147 33.1696 341.601C30.7911 348.055 30.322 355.113 31.8237 361.851C33.3255 368.588 36.728 374.691 41.5857 379.361C41.7175 379.523 41.8275 379.605 41.8276 379.582L42.0585 379.78L42.1794 379.885L42.3113 380.013L44.6756 381.981C44.8069 382.142 44.9586 382.283 45.1263 382.4C50.0304 385.964 55.7678 388.053 61.7194 388.439C67.671 388.826 73.6106 387.497 78.8972 384.595C84.1838 381.693 88.6165 377.328 91.7169 371.972C94.8173 366.617 96.4676 360.473 96.4897 354.204L96.4787 354.204ZM47.5563 372.576C44.02 369.16 41.5439 364.704 40.4497 359.787C39.3556 354.87 39.6941 349.721 41.4213 345.008C43.1485 340.296 46.1845 336.238 50.1344 333.362C54.0843 330.487 58.7654 328.927 63.5689 328.886L64.0874 328.888C70.3547 329.079 76.3002 331.845 80.649 336.591C84.9977 341.338 87.4033 347.687 87.35 354.278C87.2968 360.869 84.7888 367.177 80.364 371.849C75.9392 376.52 69.9499 379.184 63.6803 379.268C58.8935 379.252 54.2237 377.715 50.2834 374.859L47.7983 372.763L47.5672 372.599L47.5563 372.576Z" fill="#EAEAEA" fill-opacity="0.2"/>
<path d="M16.0663 177.308L15.6715 283.973C15.6386 289.269 13.5073 294.335 9.74537 298.061C5.98345 301.786 0.89823 303.866 -4.39435 303.843L-32.0191 303.741C-34.7438 303.727 -37.4365 303.154 -39.9304 302.056C-42.4244 300.958 -44.6662 299.359 -46.5171 297.358L-46.6373 297.226C-48.4815 295.146 -49.9067 292.728 -50.8346 290.107L-50.9742 289.774C-51.5886 287.82 -51.8966 285.782 -51.8871 283.733L-51.7518 247.185C-51.7156 238.112 -54.548 229.259 -59.8438 221.894C-65.1396 214.53 -72.6275 209.029 -81.2364 206.18C-81.9381 205.957 -82.565 205.545 -83.0488 204.989C-83.5326 204.434 -83.8548 203.756 -83.9802 203.03C-83.9898 202.923 -83.9894 202.815 -83.9791 202.708L-83.9776 202.316C-83.9733 201.712 -83.8379 201.116 -83.5806 200.57C-83.3233 200.023 -82.9503 199.539 -82.4876 199.152L-35.1835 161.551C-31.6105 158.696 -27.169 157.15 -22.5967 157.17L-3.85165 157.239C-1.22673 157.247 1.3708 157.773 3.79256 158.786C6.21433 159.8 8.41286 161.28 10.2626 163.144C12.1122 165.008 13.5768 167.218 14.5727 169.648C15.5685 172.078 16.0761 174.681 16.0663 177.308ZM-13.7373 295.829L-4.36481 295.863C-1.20151 295.878 1.83838 294.636 4.08815 292.411C6.33793 290.186 7.61392 287.159 7.63629 283.993L8.03132 177.278C8.03506 174.11 6.78302 171.07 4.5498 168.824C2.31658 166.579 -0.715519 165.311 -3.88149 165.299L-22.6466 165.23C-25.3842 165.256 -28.0349 166.195 -30.1788 167.899L-72.1674 201.263C-63.5911 205.486 -56.3757 212.038 -51.3462 220.172C-46.3167 228.305 -43.6763 237.691 -43.727 247.255C-43.7285 247.667 -43.7299 248.04 -43.7316 248.503C-43.7196 248.68 -43.7202 248.858 -43.7335 249.036L-43.8622 283.803C-43.8587 284.957 -43.6972 286.105 -43.3821 287.216C-42.7867 288.955 -41.8527 290.559 -40.6341 291.935C-39.535 293.136 -38.1996 294.095 -36.7119 294.753C-35.2241 295.412 -33.6163 295.755 -31.9896 295.761L-14.7228 295.825C-14.5803 295.796 -14.4356 295.78 -14.2902 295.776C-14.1046 295.774 -13.9193 295.792 -13.7373 295.829Z" fill="#EAEAEA" fill-opacity="0.2"/>
<path d="M16.0663 177.308L15.6715 283.973C15.6386 289.269 13.5073 294.335 9.74537 298.061C5.98345 301.786 0.89823 303.866 -4.39435 303.843L-32.0191 303.741C-34.7438 303.727 -37.4365 303.154 -39.9304 302.056C-42.4244 300.958 -44.6662 299.359 -46.5171 297.358L-46.6373 297.226C-48.4815 295.146 -49.9067 292.728 -50.8346 290.107L-50.9742 289.774C-51.5886 287.82 -51.8966 285.782 -51.8871 283.733L-51.7518 247.185C-51.7156 238.112 -54.548 229.259 -59.8438 221.894C-65.1396 214.53 -72.6275 209.029 -81.2364 206.18C-81.9381 205.957 -82.565 205.545 -83.0488 204.989C-83.5326 204.434 -83.8548 203.756 -83.9802 203.03C-83.9898 202.923 -83.9894 202.815 -83.9791 202.708L-83.9776 202.316C-83.9733 201.712 -83.8379 201.116 -83.5806 200.57C-83.3233 200.023 -82.9503 199.539 -82.4876 199.152L-35.1835 161.551C-31.6105 158.696 -27.169 157.15 -22.5967 157.17L-3.85165 157.239C-1.22673 157.247 1.3708 157.773 3.79256 158.786C6.21433 159.8 8.41286 161.28 10.2626 163.144C12.1122 165.008 13.5768 167.218 14.5727 169.648C15.5685 172.078 16.0761 174.681 16.0663 177.308ZM-13.7373 295.829L-4.36481 295.863C-1.20151 295.878 1.83838 294.636 4.08815 292.411C6.33793 290.186 7.61392 287.159 7.63629 283.993L8.03132 177.278C8.03506 174.11 6.78302 171.07 4.5498 168.824C2.31658 166.579 -0.715519 165.311 -3.88149 165.299L-22.6466 165.23C-25.3842 165.256 -28.0349 166.195 -30.1788 167.899L-72.1674 201.263C-63.5911 205.486 -56.3757 212.038 -51.3462 220.172C-46.3167 228.305 -43.6763 237.691 -43.727 247.255C-43.7285 247.667 -43.7299 248.04 -43.7316 248.503C-43.7196 248.68 -43.7202 248.858 -43.7335 249.036L-43.8622 283.803C-43.8587 284.957 -43.6972 286.105 -43.3821 287.216C-42.7867 288.955 -41.8527 290.559 -40.6341 291.935C-39.535 293.136 -38.1996 294.095 -36.7119 294.753C-35.2241 295.412 -33.6163 295.755 -31.9896 295.761L-14.7228 295.825C-14.5803 295.796 -14.4356 295.78 -14.2902 295.776C-14.1046 295.774 -13.9193 295.792 -13.7373 295.829Z" fill="#EAEAEA" fill-opacity="0.2"/>
<path d="M-25.8829 408.168L-26.2777 514.833C-26.284 520.129 -24.1903 525.212 -20.4561 528.965C-16.7218 532.718 -11.6522 534.835 -6.35956 534.852L21.2652 534.954C23.9899 534.961 26.6868 534.407 29.1888 533.327C31.6908 532.248 33.9444 530.665 35.81 528.678L35.9312 528.548C37.7908 526.481 39.2339 524.074 40.1811 521.459L40.3232 521.128C40.9521 519.178 41.2751 517.142 41.2807 515.094L41.416 478.546C41.447 469.472 44.3449 460.641 49.6951 453.316C55.0453 445.99 62.5737 440.546 71.2035 437.76C71.9067 437.542 72.5367 437.135 73.0246 436.583C73.5125 436.031 73.8397 435.356 73.9705 434.631C73.9809 434.524 73.9813 434.416 73.9717 434.309L73.9732 433.917C73.9734 433.313 73.8423 432.716 73.5891 432.167C73.3358 431.619 72.9665 431.133 72.5066 430.741L25.4822 392.791C21.9304 389.91 17.5005 388.331 12.9282 388.317L-5.81687 388.248C-8.44178 388.237 -11.0431 388.743 -13.4723 389.738C-15.9015 390.734 -18.111 392.198 -19.9744 394.048C-21.8378 395.898 -23.3188 398.097 -24.3326 400.52C-25.3464 402.943 -25.8732 405.542 -25.8829 408.168ZM3.0425 526.907L-6.33002 526.872C-9.49334 526.863 -12.524 525.599 -14.7572 523.357C-16.9904 521.115 -18.244 518.079 -18.2429 514.913L-17.8479 408.198C-17.8282 405.03 -16.5536 401.999 -14.3039 399.77C-12.0541 397.541 -9.01268 396.296 -5.8467 396.308L12.9184 396.377C15.6558 396.424 18.2994 397.382 20.4306 399.102L62.1711 432.776C53.5638 436.935 46.3 443.434 41.2105 451.53C36.1209 459.626 33.4111 468.992 33.3909 478.556C33.3894 478.969 33.388 479.341 33.3863 479.804C33.373 479.982 33.3723 480.16 33.3843 480.337L33.2556 515.104C33.2435 516.258 33.0735 517.406 32.7502 518.514C32.1419 520.249 31.1961 521.846 29.9673 523.213C28.8594 524.405 27.5169 525.354 26.0244 526.002C24.5318 526.649 22.9215 526.98 21.2948 526.974L4.02802 526.91C3.88573 526.88 3.74111 526.863 3.59579 526.858C3.41018 526.855 3.22473 526.871 3.0425 526.907Z" fill="#EAEAEA" fill-opacity="0.2"/>
<path d="M-25.8829 408.168L-26.2777 514.833C-26.284 520.129 -24.1903 525.212 -20.4561 528.965C-16.7218 532.718 -11.6522 534.835 -6.35956 534.852L21.2652 534.954C23.9899 534.961 26.6868 534.407 29.1888 533.327C31.6908 532.248 33.9444 530.665 35.81 528.678L35.9312 528.548C37.7908 526.481 39.2339 524.074 40.1811 521.459L40.3232 521.128C40.9521 519.178 41.2751 517.142 41.2807 515.094L41.416 478.546C41.447 469.472 44.3449 460.641 49.6951 453.316C55.0453 445.99 62.5737 440.546 71.2035 437.76C71.9067 437.542 72.5367 437.135 73.0246 436.583C73.5125 436.031 73.8397 435.356 73.9705 434.631C73.9809 434.524 73.9813 434.416 73.9717 434.309L73.9732 433.917C73.9734 433.313 73.8423 432.716 73.5891 432.167C73.3358 431.619 72.9665 431.133 72.5066 430.741L25.4822 392.791C21.9304 389.91 17.5005 388.331 12.9282 388.317L-5.81687 388.248C-8.44178 388.237 -11.0431 388.743 -13.4723 389.738C-15.9015 390.734 -18.111 392.198 -19.9744 394.048C-21.8378 395.898 -23.3188 398.097 -24.3326 400.52C-25.3464 402.943 -25.8732 405.542 -25.8829 408.168ZM3.0425 526.907L-6.33002 526.872C-9.49334 526.863 -12.524 525.599 -14.7572 523.357C-16.9904 521.115 -18.244 518.079 -18.2429 514.913L-17.8479 408.198C-17.8282 405.03 -16.5536 401.999 -14.3039 399.77C-12.0541 397.541 -9.01268 396.296 -5.8467 396.308L12.9184 396.377C15.6558 396.424 18.2994 397.382 20.4306 399.102L62.1711 432.776C53.5638 436.935 46.3 443.434 41.2105 451.53C36.1209 459.626 33.4111 468.992 33.3909 478.556C33.3894 478.969 33.388 479.341 33.3863 479.804C33.373 479.982 33.3723 480.16 33.3843 480.337L33.2556 515.104C33.2435 516.258 33.0735 517.406 32.7502 518.514C32.1419 520.249 31.1961 521.846 29.9673 523.213C28.8594 524.405 27.5169 525.354 26.0244 526.002C24.5318 526.649 22.9215 526.98 21.2948 526.974L4.02802 526.91C3.88573 526.88 3.74111 526.863 3.59579 526.858C3.41018 526.855 3.22473 526.871 3.0425 526.907Z" fill="#EAEAEA" fill-opacity="0.2"/>
<path d="M49.3651 486.181C49.3166 495.253 52.6812 503.977 58.7256 510.45C64.7701 516.923 73.0044 520.621 81.6339 520.739L82.2516 520.741C88.8351 520.728 95.2619 518.624 100.69 514.706C106.119 510.788 110.296 505.239 112.674 498.785C115.053 492.331 115.522 485.273 114.02 478.535C112.518 471.797 109.116 465.694 104.258 461.025C104.126 460.862 104.016 460.78 104.016 460.804L103.785 460.606L103.664 460.501L103.532 460.373L101.168 458.404C101.037 458.244 100.885 458.103 100.717 457.985C95.8134 454.421 90.0759 452.333 84.1243 451.946C78.1728 451.559 72.2331 452.889 66.9465 455.791C61.6599 458.693 57.2272 463.057 54.1268 468.413C51.0264 473.769 49.3761 479.913 49.354 486.181L49.3651 486.181ZM98.2875 467.809C101.824 471.226 104.3 475.682 105.394 480.598C106.488 485.515 106.15 490.664 104.422 495.377C102.695 500.09 99.6593 504.148 95.7094 507.023C91.7595 509.899 87.0784 511.458 82.2748 511.5L81.7564 511.498C75.489 511.306 69.5435 508.541 65.1948 503.794C60.8461 499.048 58.4405 492.698 58.4937 486.107C58.547 479.516 61.0549 473.209 65.4797 468.537C69.9045 463.865 75.8939 461.202 82.1635 461.117C86.9503 461.134 91.62 462.671 95.5603 465.527L98.0455 467.623L98.2765 467.786L98.2875 467.809Z" fill="#EAEAEA" fill-opacity="0.2"/>
<path d="M49.3651 486.181C49.3166 495.253 52.6812 503.977 58.7256 510.45C64.7701 516.923 73.0044 520.621 81.6339 520.739L82.2516 520.741C88.8351 520.728 95.2619 518.624 100.69 514.706C106.119 510.788 110.296 505.239 112.674 498.785C115.053 492.331 115.522 485.273 114.02 478.535C112.518 471.797 109.116 465.694 104.258 461.025C104.126 460.862 104.016 460.78 104.016 460.804L103.785 460.606L103.664 460.501L103.532 460.373L101.168 458.404C101.037 458.244 100.885 458.103 100.717 457.985C95.8134 454.421 90.0759 452.333 84.1243 451.946C78.1728 451.559 72.2331 452.889 66.9465 455.791C61.6599 458.693 57.2272 463.057 54.1268 468.413C51.0264 473.769 49.3761 479.913 49.354 486.181L49.3651 486.181ZM98.2875 467.809C101.824 471.226 104.3 475.682 105.394 480.598C106.488 485.515 106.15 490.664 104.422 495.377C102.695 500.09 99.6593 504.148 95.7094 507.023C91.7595 509.899 87.0784 511.458 82.2748 511.5L81.7564 511.498C75.489 511.306 69.5435 508.541 65.1948 503.794C60.8461 499.048 58.4405 492.698 58.4937 486.107C58.547 479.516 61.0549 473.209 65.4797 468.537C69.9045 463.865 75.8939 461.202 82.1635 461.117C86.9503 461.134 91.62 462.671 95.5603 465.527L98.0455 467.623L98.2765 467.786L98.2875 467.809Z" fill="#EAEAEA" fill-opacity="0.2"/>
<path d="M100.191 554.282L99.7931 661.755C99.7599 667.091 97.605 672.196 93.8014 675.95C89.9977 679.703 84.856 681.799 79.5046 681.776L51.5729 681.673C48.818 681.659 46.0953 681.081 43.5736 679.974C41.052 678.868 38.7852 677.257 36.9138 675.241L36.7923 675.109C34.9275 673.012 33.4864 670.576 32.5482 667.935L32.407 667.6C31.7857 665.63 31.4743 663.577 31.4839 661.513L31.6203 624.688C31.6567 615.546 28.7927 606.627 23.438 599.206C18.0832 591.785 10.512 586.243 1.80745 583.372C1.09801 583.147 0.464154 582.732 -0.0250496 582.172C-0.514253 581.613 -0.840029 580.93 -0.966884 580.198C-0.97654 580.09 -0.976138 579.982 -0.965683 579.874L-0.964219 579.479C-0.959907 578.87 -0.822941 578.27 -0.562806 577.719C-0.302672 577.169 0.0744256 576.681 0.542314 576.29L48.3715 538.405C51.9842 535.529 56.475 533.971 61.0981 533.991L80.0514 534.061C82.7055 534.07 85.3319 534.599 87.7806 535.62C90.2293 536.641 92.4523 538.133 94.3225 540.011C96.1928 541.889 97.6737 544.116 98.6806 546.564C99.6876 549.013 100.201 551.636 100.191 554.282ZM70.0577 673.701L79.5344 673.736C82.7328 673.75 85.8065 672.499 88.0812 670.257C90.356 668.015 91.6461 664.965 91.6687 661.776L92.0667 554.252C92.0704 551.06 90.8044 547.997 88.5464 545.734C86.2883 543.472 83.2225 542.194 80.0214 542.182L61.0477 542.112C58.2797 542.138 55.5996 543.085 53.4319 544.801L10.9772 578.418C19.6488 582.672 26.9445 589.275 32.03 597.47C37.1154 605.665 39.7853 615.122 39.7342 624.758C39.7327 625.174 39.7313 625.549 39.7296 626.016C39.7417 626.195 39.7411 626.374 39.7276 626.553L39.5979 661.583C39.6015 662.746 39.7649 663.903 40.0834 665.022C40.6855 666.775 41.6299 668.391 42.8621 669.778C43.9733 670.987 45.3236 671.954 46.8279 672.617C48.3322 673.28 49.9578 673.626 51.6026 673.632L69.0613 673.697C69.2053 673.668 69.3517 673.651 69.4987 673.648C69.6863 673.646 69.8737 673.664 70.0577 673.701Z" fill="#EAEAEA" fill-opacity="0.2"/>
<path d="M100.191 554.282L99.7931 661.755C99.7599 667.091 97.605 672.196 93.8014 675.95C89.9977 679.703 84.856 681.799 79.5046 681.776L51.5729 681.673C48.818 681.659 46.0953 681.081 43.5736 679.974C41.052 678.868 38.7852 677.257 36.9138 675.241L36.7923 675.109C34.9275 673.012 33.4864 670.576 32.5482 667.935L32.407 667.6C31.7857 665.63 31.4743 663.577 31.4839 661.513L31.6203 624.688C31.6567 615.546 28.7927 606.627 23.438 599.206C18.0832 591.785 10.512 586.243 1.80745 583.372C1.09801 583.147 0.464154 582.732 -0.0250496 582.172C-0.514253 581.613 -0.840029 580.93 -0.966884 580.198C-0.97654 580.09 -0.976138 579.982 -0.965683 579.874L-0.964219 579.479C-0.959907 578.87 -0.822941 578.27 -0.562806 577.719C-0.302672 577.169 0.0744256 576.681 0.542314 576.29L48.3715 538.405C51.9842 535.529 56.475 533.971 61.0981 533.991L80.0514 534.061C82.7055 534.07 85.3319 534.599 87.7806 535.62C90.2293 536.641 92.4523 538.133 94.3225 540.011C96.1928 541.889 97.6737 544.116 98.6806 546.564C99.6876 549.013 100.201 551.636 100.191 554.282ZM70.0577 673.701L79.5344 673.736C82.7328 673.75 85.8065 672.499 88.0812 670.257C90.356 668.015 91.6461 664.965 91.6687 661.776L92.0667 554.252C92.0704 551.06 90.8044 547.997 88.5464 545.734C86.2883 543.472 83.2225 542.194 80.0214 542.182L61.0477 542.112C58.2797 542.138 55.5996 543.085 53.4319 544.801L10.9772 578.418C19.6488 582.672 26.9445 589.275 32.03 597.47C37.1154 605.665 39.7853 615.122 39.7342 624.758C39.7327 625.174 39.7313 625.549 39.7296 626.016C39.7417 626.195 39.7411 626.374 39.7276 626.553L39.5979 661.583C39.6015 662.746 39.7649 663.903 40.0834 665.022C40.6855 666.775 41.6299 668.391 42.8621 669.778C43.9733 670.987 45.3236 671.954 46.8279 672.617C48.3322 673.28 49.9578 673.626 51.6026 673.632L69.0613 673.697C69.2053 673.668 69.3517 673.651 69.4987 673.648C69.6863 673.646 69.8737 673.664 70.0577 673.701Z" fill="#EAEAEA" fill-opacity="0.2"/>
<path d="M24.372 631.029C24.3542 639.955 20.868 648.512 14.6733 654.836C8.47865 661.16 0.0776395 664.738 -8.69882 664.79L-9.32699 664.787C-16.0218 664.725 -22.5418 662.608 -28.0331 658.713C-33.5243 654.818 -37.7308 649.328 -40.1017 642.96C-42.4726 636.593 -42.8974 629.645 -41.3204 623.027C-39.7433 616.41 -36.238 610.43 -31.2635 605.873C-31.1283 605.713 -31.0158 605.634 -31.0159 605.657L-30.7796 605.464L-30.6559 605.361L-30.5208 605.236L-28.1019 603.317C-27.9672 603.16 -27.8119 603.023 -27.6405 602.908C-22.6271 599.438 -16.777 597.426 -10.7219 597.09C-4.66672 596.753 1.3636 598.105 6.71815 600.999C12.0727 603.894 16.5481 608.221 19.6613 613.513C22.7745 618.805 24.4072 624.862 24.3832 631.029L24.372 631.029ZM-25.2422 612.592C-28.8635 615.927 -31.4146 620.293 -32.5637 625.122C-33.7128 629.951 -33.4066 635.019 -31.6851 639.669C-29.9636 644.318 -26.9063 648.333 -22.9109 651.191C-18.9154 654.049 -14.1667 655.619 -9.28214 655.695L-8.75492 655.697C-2.38009 655.555 3.68653 652.878 8.14398 648.24C12.6014 643.603 15.0948 637.373 15.0895 630.889C15.0841 624.404 12.5805 618.179 8.11536 613.55C3.65028 608.922 -2.4207 606.257 -8.79576 606.127C-13.6637 606.108 -18.4238 607.586 -22.452 610.366L-24.9947 612.41L-25.2308 612.569L-25.2422 612.592Z" fill="#EAEAEA" fill-opacity="0.2"/>
<path d="M24.372 631.029C24.3542 639.955 20.868 648.512 14.6733 654.836C8.47865 661.16 0.0776395 664.738 -8.69882 664.79L-9.32699 664.787C-16.0218 664.725 -22.5418 662.608 -28.0331 658.713C-33.5243 654.818 -37.7308 649.328 -40.1017 642.96C-42.4726 636.593 -42.8974 629.645 -41.3204 623.027C-39.7433 616.41 -36.238 610.43 -31.2635 605.873C-31.1283 605.713 -31.0158 605.634 -31.0159 605.657L-30.7796 605.464L-30.6559 605.361L-30.5208 605.236L-28.1019 603.317C-27.9672 603.16 -27.8119 603.023 -27.6405 602.908C-22.6271 599.438 -16.777 597.426 -10.7219 597.09C-4.66672 596.753 1.3636 598.105 6.71815 600.999C12.0727 603.894 16.5481 608.221 19.6613 613.513C22.7745 618.805 24.4072 624.862 24.3832 631.029L24.372 631.029ZM-25.2422 612.592C-28.8635 615.927 -31.4146 620.293 -32.5637 625.122C-33.7128 629.951 -33.4066 635.019 -31.6851 639.669C-29.9636 644.318 -26.9063 648.333 -22.9109 651.191C-18.9154 654.049 -14.1667 655.619 -9.28214 655.695L-8.75492 655.697C-2.38009 655.555 3.68653 652.878 8.14398 648.24C12.6014 643.603 15.0948 637.373 15.0895 630.889C15.0841 624.404 12.5805 618.179 8.11536 613.55C3.65028 608.922 -2.4207 606.257 -8.79576 606.127C-13.6637 606.108 -18.4238 607.586 -22.452 610.366L-24.9947 612.41L-25.2308 612.569L-25.2422 612.592Z" fill="#EAEAEA" fill-opacity="0.2"/>
<path d="M68.5021 142.578L174.527 143.355C179.791 143.38 184.85 141.305 188.594 137.585C192.338 133.865 194.461 128.804 194.497 123.513L194.697 95.8937C194.713 93.1696 194.172 90.4712 193.108 87.9658C192.044 85.4605 190.479 83.2016 188.511 81.3292L188.382 81.2077C186.334 79.341 183.946 77.8896 181.351 76.9331L181.022 76.7899C179.086 76.1542 177.064 75.8239 175.027 75.8109L138.698 75.5446C129.68 75.481 120.912 72.5521 113.649 67.1767C106.387 61.8012 101.002 54.2548 98.2639 45.6167C98.0495 44.9128 97.647 44.2816 97.1002 43.7917C96.5534 43.3019 95.8834 42.9724 95.1632 42.839C95.0568 42.8283 94.9496 42.8275 94.8431 42.8366L94.453 42.8338C93.8526 42.8314 93.2589 42.9603 92.713 43.2115C92.1671 43.4627 91.6821 43.8303 91.2915 44.2887L53.4006 91.1677C50.5239 94.7085 48.9387 99.1319 48.9084 103.703L48.7724 122.444C48.7521 125.069 49.2463 127.671 50.227 130.104C51.2076 132.536 52.6553 134.75 54.4875 136.62C56.3197 138.49 58.5004 139.978 60.9051 141C63.3098 142.023 65.8913 142.559 68.5021 142.578ZM186.633 114.084L186.565 123.455C186.544 126.617 185.277 129.643 183.041 131.867C180.804 134.092 177.782 135.335 174.635 135.322L68.5604 134.545C65.4115 134.513 62.4034 133.228 60.1958 130.971C57.9882 128.714 56.7614 125.668 56.7843 122.503L56.9204 103.742C56.9762 101.005 57.9388 98.3656 59.6556 96.241L93.2771 54.6295C97.3806 63.25 103.815 70.5356 111.844 75.6532C119.873 80.7708 129.173 83.5137 138.68 83.5681C139.09 83.5711 139.46 83.5739 139.921 83.5772C140.097 83.5912 140.274 83.5925 140.451 83.5811L175.009 83.8345C176.156 83.8507 177.296 84.0248 178.396 84.352C180.118 84.9664 181.703 85.9178 183.057 87.1512C184.238 88.2632 185.177 89.6088 185.815 91.1034C186.453 92.598 186.777 94.2091 186.765 95.8355L186.64 113.099C186.61 113.241 186.592 113.385 186.587 113.531C186.583 113.716 186.598 113.902 186.633 114.084Z" fill="#EAEAEA" fill-opacity="0.2"/>
<path d="M68.5021 142.578L174.527 143.355C179.791 143.38 184.85 141.305 188.594 137.585C192.338 133.865 194.461 128.804 194.497 123.513L194.697 95.8937C194.713 93.1696 194.172 90.4712 193.108 87.9658C192.044 85.4605 190.479 83.2016 188.511 81.3292L188.382 81.2077C186.334 79.341 183.946 77.8896 181.351 76.9331L181.022 76.7899C179.086 76.1542 177.064 75.8239 175.027 75.8109L138.698 75.5446C129.68 75.481 120.912 72.5521 113.649 67.1767C106.387 61.8012 101.002 54.2548 98.2639 45.6167C98.0495 44.9128 97.647 44.2816 97.1002 43.7917C96.5534 43.3019 95.8834 42.9724 95.1632 42.839C95.0568 42.8283 94.9496 42.8275 94.8431 42.8366L94.453 42.8338C93.8526 42.8314 93.2589 42.9603 92.713 43.2115C92.1671 43.4627 91.6821 43.8303 91.2915 44.2887L53.4006 91.1677C50.5239 94.7085 48.9387 99.1319 48.9084 103.703L48.7724 122.444C48.7521 125.069 49.2463 127.671 50.227 130.104C51.2076 132.536 52.6553 134.75 54.4875 136.62C56.3197 138.49 58.5004 139.978 60.9051 141C63.3098 142.023 65.8913 142.559 68.5021 142.578ZM186.633 114.084L186.565 123.455C186.544 126.617 185.277 129.643 183.041 131.867C180.804 134.092 177.782 135.335 174.635 135.322L68.5604 134.545C65.4115 134.513 62.4034 133.228 60.1958 130.971C57.9882 128.714 56.7614 125.668 56.7843 122.503L56.9204 103.742C56.9762 101.005 57.9388 98.3656 59.6556 96.241L93.2771 54.6295C97.3806 63.25 103.815 70.5356 111.844 75.6532C119.873 80.7708 129.173 83.5137 138.68 83.5681C139.09 83.5711 139.46 83.5739 139.921 83.5772C140.097 83.5912 140.274 83.5925 140.451 83.5811L175.009 83.8345C176.156 83.8507 177.296 84.0248 178.396 84.352C180.118 84.9664 181.703 85.9178 183.057 87.1512C184.238 88.2632 185.177 89.6088 185.815 91.1034C186.453 92.598 186.777 94.2091 186.765 95.8355L186.64 113.099C186.61 113.241 186.592 113.385 186.587 113.531C186.583 113.716 186.598 113.902 186.633 114.084Z" fill="#EAEAEA" fill-opacity="0.2"/>
<path d="M145.448 67.7363C154.362 67.8168 162.946 64.4259 169.329 58.3025C175.712 52.1791 179.376 43.8196 179.524 35.0459L179.529 34.4179C179.54 27.724 177.497 21.1823 173.668 15.6495C169.839 10.1167 164.402 5.85074 158.069 3.41024C151.736 0.969738 144.803 0.468518 138.177 1.97222C131.551 3.47593 125.542 6.91445 120.936 11.8375C120.776 11.9709 120.695 12.0824 120.718 12.0826L120.522 12.3167L120.419 12.4393L120.293 12.573L118.35 14.9701C118.191 15.103 118.052 15.2567 117.936 15.4269C114.416 20.4008 112.343 26.2272 111.94 32.2771C111.538 38.3271 112.822 44.3708 115.654 49.7559C118.485 55.141 122.757 59.663 128.008 62.8337C133.259 66.0044 139.289 67.7035 145.448 67.7475L145.448 67.7363ZM127.58 17.9314C130.95 14.3476 135.338 11.8453 140.173 10.7498C145.007 9.65422 150.066 10.0161 154.69 11.7885C159.314 13.5608 163.29 16.6616 166.1 20.6875C168.911 24.7135 170.426 29.4783 170.449 34.3625L170.445 34.8896C170.233 41.2612 167.493 47.2968 162.813 51.7021C158.133 56.1073 151.885 58.5314 145.41 58.4545C138.934 58.3777 132.746 55.8061 128.172 51.2911C123.598 46.7761 121.004 40.6773 120.944 34.3024C120.978 29.4355 122.506 24.6928 125.327 20.6963L127.396 18.1768L127.557 17.9424L127.58 17.9314Z" fill="#EAEAEA" fill-opacity="0.2"/>
<path d="M145.448 67.7363C154.362 67.8168 162.946 64.4259 169.329 58.3025C175.712 52.1791 179.376 43.8196 179.524 35.0459L179.529 34.4179C179.54 27.724 177.497 21.1823 173.668 15.6495C169.839 10.1167 164.402 5.85074 158.069 3.41024C151.736 0.969738 144.803 0.468518 138.177 1.97222C131.551 3.47593 125.542 6.91445 120.936 11.8375C120.776 11.9709 120.695 12.0824 120.718 12.0826L120.522 12.3167L120.419 12.4393L120.293 12.573L118.35 14.9701C118.191 15.103 118.052 15.2567 117.936 15.4269C114.416 20.4008 112.343 26.2272 111.94 32.2771C111.538 38.3271 112.822 44.3708 115.654 49.7559C118.485 55.141 122.757 59.663 128.008 62.8337C133.259 66.0044 139.289 67.7035 145.448 67.7475L145.448 67.7363ZM127.58 17.9314C130.95 14.3476 135.338 11.8453 140.173 10.7498C145.007 9.65422 150.066 10.0161 154.69 11.7885C159.314 13.5608 163.29 16.6616 166.1 20.6875C168.911 24.7135 170.426 29.4783 170.449 34.3625L170.445 34.8896C170.233 41.2612 167.493 47.2968 162.813 51.7021C158.133 56.1073 151.885 58.5314 145.41 58.4545C138.934 58.3777 132.746 55.8061 128.172 51.2911C123.598 46.7761 121.004 40.6773 120.944 34.3024C120.978 29.4355 122.506 24.6928 125.327 20.6963L127.396 18.1768L127.557 17.9424L127.58 17.9314Z" fill="#EAEAEA" fill-opacity="0.2"/>
<path d="M139.822 560.134L245.847 560.912C251.111 560.937 256.171 558.862 259.915 555.142C263.658 551.422 265.781 546.361 265.817 541.069L266.017 513.45C266.033 510.726 265.493 508.028 264.429 505.522C263.364 503.017 261.8 500.758 259.831 498.886L259.702 498.764C257.654 496.898 255.267 495.446 252.671 494.49L252.342 494.347C250.406 493.711 248.384 493.381 246.347 493.368L210.019 493.101C201 493.038 192.232 490.109 184.97 484.733C177.707 479.358 172.322 471.811 169.584 463.173C169.37 462.469 168.967 461.838 168.421 461.348C167.874 460.859 167.204 460.529 166.483 460.396C166.377 460.385 166.27 460.384 166.163 460.393L165.773 460.39C165.173 460.388 164.579 460.517 164.033 460.768C163.487 461.019 163.002 461.387 162.612 461.845L124.721 508.724C121.844 512.265 120.259 516.689 120.229 521.26L120.093 540.001C120.072 542.625 120.567 545.228 121.547 547.66C122.528 550.093 123.976 552.307 125.808 554.177C127.64 556.046 129.821 557.535 132.225 558.557C134.63 559.579 137.212 560.115 139.822 560.134ZM257.953 531.641L257.885 541.011C257.865 544.174 256.597 547.199 254.361 549.424C252.125 551.649 249.102 552.891 245.956 552.879L139.881 552.101C136.732 552.07 133.724 550.785 131.516 548.528C129.308 546.27 128.082 543.225 128.105 540.06L128.241 521.299C128.297 518.562 129.259 515.922 130.976 513.798L164.597 472.186C168.701 480.807 175.135 488.092 183.164 493.21C191.194 498.327 200.494 501.07 210.001 501.125C210.411 501.128 210.781 501.131 211.241 501.134C211.417 501.148 211.594 501.149 211.771 501.138L246.329 501.391C247.476 501.407 248.616 501.581 249.716 501.909C251.439 502.523 253.023 503.474 254.377 504.708C255.558 505.82 256.497 507.165 257.135 508.66C257.774 510.155 258.097 511.766 258.085 513.392L257.96 530.655C257.93 530.797 257.912 530.942 257.907 531.087C257.903 531.273 257.918 531.458 257.953 531.641Z" fill="#EAEAEA" fill-opacity="0.2"/>
<path d="M216.769 485.293C225.682 485.373 234.266 481.983 240.649 475.859C247.032 469.736 250.697 461.376 250.845 452.603L250.849 451.974C250.86 445.281 248.817 438.739 244.988 433.206C241.159 427.673 235.722 423.407 229.389 420.967C223.056 418.526 216.123 418.025 209.498 419.529C202.872 421.033 196.862 424.471 192.256 429.394C192.096 429.528 192.015 429.639 192.038 429.639L191.843 429.873L191.739 429.996L191.613 430.13L189.67 432.527C189.512 432.66 189.373 432.813 189.257 432.984C185.736 437.957 183.663 443.784 183.261 449.834C182.858 455.884 184.142 461.927 186.974 467.313C189.806 472.698 194.077 477.22 199.328 480.39C204.579 483.561 210.609 485.26 216.768 485.304L216.769 485.293ZM198.9 435.488C202.27 431.904 206.658 429.402 211.493 428.306C216.328 427.211 221.386 427.573 226.01 429.345C230.634 431.117 234.61 434.218 237.42 438.244C240.231 442.27 241.746 447.035 241.769 451.919L241.765 452.446C241.553 458.818 238.814 464.853 234.134 469.259C229.454 473.664 223.206 476.088 216.73 476.011C210.254 475.934 204.066 473.363 199.492 468.848C194.919 464.333 192.324 458.234 192.264 451.859C192.299 446.992 193.826 442.249 196.647 438.253L198.716 435.733L198.877 435.499L198.9 435.488Z" fill="#EAEAEA" fill-opacity="0.2"/>
<path d="M336.623 23.2029L230.598 22.4256C225.334 22.4003 220.275 24.4754 216.531 28.1954C212.787 31.9155 210.664 36.9766 210.628 42.2681L210.428 69.8871C210.412 72.6112 210.953 75.3096 212.017 77.8149C213.081 80.3203 214.646 82.5792 216.614 84.4515L216.743 84.5731C218.791 86.4398 221.179 87.8912 223.774 88.8476L224.103 88.9908C226.039 89.6266 228.061 89.9569 230.098 89.9699L266.427 90.2362C275.445 90.2997 284.213 93.2287 291.476 98.6041C298.738 103.98 304.123 111.526 306.861 120.164C307.076 120.868 307.478 121.499 308.025 121.989C308.572 122.479 309.242 122.808 309.962 122.942C310.068 122.952 310.175 122.953 310.282 122.944L310.672 122.947C311.272 122.949 311.866 122.82 312.412 122.569C312.958 122.318 313.443 121.95 313.833 121.492L351.724 74.613C354.601 71.0723 356.186 66.6489 356.217 62.0775L356.353 43.3364C356.373 40.7121 355.879 38.1094 354.898 35.6771C353.917 33.2448 352.47 31.0306 350.637 29.1609C348.805 27.2912 346.625 25.8026 344.22 24.7803C341.815 23.7581 339.234 23.222 336.623 23.2029ZM218.492 51.6968L218.56 42.3262C218.581 39.1636 219.848 36.1381 222.084 33.9133C224.321 31.6886 227.343 30.4461 230.49 30.4586L336.565 31.2362C339.714 31.2673 342.722 32.5524 344.929 34.8098C347.137 37.0671 348.364 40.1124 348.341 43.2777L348.205 62.0389C348.149 64.7755 347.186 67.4152 345.469 69.5398L311.848 111.151C307.744 102.531 301.31 95.2451 293.281 90.1275C285.252 85.01 275.952 82.2671 266.445 82.2126C266.035 82.2096 265.665 82.2069 265.204 82.2035C265.028 82.1896 264.851 82.1883 264.674 82.1996L230.116 81.9463C228.969 81.9301 227.829 81.756 226.729 81.4288C225.007 80.8144 223.422 79.863 222.068 78.6295C220.887 77.5176 219.948 76.172 219.31 74.6774C218.672 73.1828 218.348 71.5716 218.36 69.9452L218.485 52.6821C218.515 52.5399 218.533 52.3954 218.538 52.2501C218.542 52.0646 218.527 51.8791 218.492 51.6968Z" fill="#EAEAEA" fill-opacity="0.2"/>
<path d="M336.623 23.2029L230.598 22.4256C225.334 22.4003 220.275 24.4754 216.531 28.1954C212.787 31.9155 210.664 36.9766 210.628 42.2681L210.428 69.8871C210.412 72.6112 210.953 75.3096 212.017 77.8149C213.081 80.3203 214.646 82.5792 216.614 84.4515L216.743 84.5731C218.791 86.4398 221.179 87.8912 223.774 88.8476L224.103 88.9908C226.039 89.6266 228.061 89.9569 230.098 89.9699L266.427 90.2362C275.445 90.2997 284.213 93.2287 291.476 98.6041C298.738 103.98 304.123 111.526 306.861 120.164C307.076 120.868 307.478 121.499 308.025 121.989C308.572 122.479 309.242 122.808 309.962 122.942C310.068 122.952 310.175 122.953 310.282 122.944L310.672 122.947C311.272 122.949 311.866 122.82 312.412 122.569C312.958 122.318 313.443 121.95 313.833 121.492L351.724 74.613C354.601 71.0723 356.186 66.6489 356.217 62.0775L356.353 43.3364C356.373 40.7121 355.879 38.1094 354.898 35.6771C353.917 33.2448 352.47 31.0306 350.637 29.1609C348.805 27.2912 346.625 25.8026 344.22 24.7803C341.815 23.7581 339.234 23.222 336.623 23.2029ZM218.492 51.6968L218.56 42.3262C218.581 39.1636 219.848 36.1381 222.084 33.9133C224.321 31.6886 227.343 30.4461 230.49 30.4586L336.565 31.2362C339.714 31.2673 342.722 32.5524 344.929 34.8098C347.137 37.0671 348.364 40.1124 348.341 43.2777L348.205 62.0389C348.149 64.7755 347.186 67.4152 345.469 69.5398L311.848 111.151C307.744 102.531 301.31 95.2451 293.281 90.1275C285.252 85.01 275.952 82.2671 266.445 82.2126C266.035 82.2096 265.665 82.2069 265.204 82.2035C265.028 82.1896 264.851 82.1883 264.674 82.1996L230.116 81.9463C228.969 81.9301 227.829 81.756 226.729 81.4288C225.007 80.8144 223.422 79.863 222.068 78.6295C220.887 77.5176 219.948 76.172 219.31 74.6774C218.672 73.1828 218.348 71.5716 218.36 69.9452L218.485 52.6821C218.515 52.5399 218.533 52.3954 218.538 52.2501C218.542 52.0646 218.527 51.8791 218.492 51.6968Z" fill="#EAEAEA" fill-opacity="0.2"/>
<path d="M259.673 98.0447C250.759 97.9642 242.175 101.355 235.792 107.479C229.409 113.602 225.745 121.961 225.597 130.735L225.592 131.363C225.581 138.057 227.624 144.599 231.453 150.131C235.282 155.664 240.719 159.93 247.052 162.371C253.385 164.811 260.318 165.312 266.944 163.809C273.57 162.305 279.579 158.867 284.185 153.944C284.345 153.81 284.426 153.699 284.403 153.698L284.599 153.464L284.702 153.342L284.828 153.208L286.771 150.811C286.93 150.678 287.069 150.524 287.185 150.354C290.705 145.38 292.778 139.554 293.181 133.504C293.583 127.454 292.299 121.41 289.467 116.025C286.636 110.64 282.364 106.118 277.113 102.947C271.862 99.7766 265.832 98.0775 259.673 98.0335L259.673 98.0447ZM277.541 147.85C274.171 151.433 269.783 153.936 264.949 155.031C260.114 156.127 255.055 155.765 250.431 153.993C245.807 152.22 241.831 149.119 239.021 145.093C236.211 141.068 234.695 136.303 234.673 131.419L234.676 130.891C234.888 124.52 237.628 118.484 242.308 114.079C246.988 109.674 253.236 107.25 259.711 107.326C266.187 107.403 272.375 109.975 276.949 114.49C281.523 119.005 284.117 125.104 284.177 131.479C284.143 136.346 282.615 141.088 279.794 145.085L277.725 147.604L277.564 147.839L277.541 147.85Z" fill="#EAEAEA" fill-opacity="0.2"/>
<path d="M259.673 98.0447C250.759 97.9642 242.175 101.355 235.792 107.479C229.409 113.602 225.745 121.961 225.597 130.735L225.592 131.363C225.581 138.057 227.624 144.599 231.453 150.131C235.282 155.664 240.719 159.93 247.052 162.371C253.385 164.811 260.318 165.312 266.944 163.809C273.57 162.305 279.579 158.867 284.185 153.944C284.345 153.81 284.426 153.699 284.403 153.698L284.599 153.464L284.702 153.342L284.828 153.208L286.771 150.811C286.93 150.678 287.069 150.524 287.185 150.354C290.705 145.38 292.778 139.554 293.181 133.504C293.583 127.454 292.299 121.41 289.467 116.025C286.636 110.64 282.364 106.118 277.113 102.947C271.862 99.7766 265.832 98.0775 259.673 98.0335L259.673 98.0447ZM277.541 147.85C274.171 151.433 269.783 153.936 264.949 155.031C260.114 156.127 255.055 155.765 250.431 153.993C245.807 152.22 241.831 149.119 239.021 145.093C236.211 141.068 234.695 136.303 234.673 131.419L234.676 130.891C234.888 124.52 237.628 118.484 242.308 114.079C246.988 109.674 253.236 107.25 259.711 107.326C266.187 107.403 272.375 109.975 276.949 114.49C281.523 119.005 284.117 125.104 284.177 131.479C284.143 136.346 282.615 141.088 279.794 145.085L277.725 147.604L277.564 147.839L277.541 147.85Z" fill="#EAEAEA" fill-opacity="0.2"/>
</g>
</svg>
