<svg width="420" height="1616" viewBox="0 0 420 1616" fill="none" xmlns="http://www.w3.org/2000/svg">
<g opacity="0.5">
<path d="M383.184 35.8828L383.766 157.162C383.78 163.184 381.406 168.965 377.164 173.237C372.923 177.508 367.162 179.922 361.144 179.948L329.734 180.099C326.636 180.11 323.569 179.483 320.723 178.259C317.877 177.035 315.313 175.238 313.189 172.981L313.051 172.833C310.934 170.485 309.29 167.75 308.21 164.779L308.048 164.402C307.33 162.186 306.961 159.872 306.952 157.542L306.752 115.987C306.706 105.671 303.4 95.6332 297.307 87.3106C291.215 78.9881 282.648 72.8067 272.832 69.6507C272.033 69.4034 271.316 68.9412 270.76 68.3144C270.205 67.6876 269.832 66.9203 269.682 66.096C269.671 65.9743 269.67 65.8518 269.681 65.7299L269.678 65.2837C269.678 64.5969 269.826 63.9182 270.113 63.2945C270.4 62.6708 270.82 62.117 271.342 61.6716L324.762 18.463C328.797 15.1825 333.832 13.3818 339.03 13.3602L360.344 13.2578C363.328 13.242 366.287 13.8148 369.05 14.9433C371.813 16.0719 374.327 17.7342 376.448 19.8353C378.569 21.9364 380.256 24.435 381.412 27.1885C382.567 29.942 383.17 32.8964 383.184 35.8828V35.8828ZM350.444 170.926L361.1 170.875C364.697 170.861 368.141 169.42 370.678 166.868C373.214 164.316 374.636 160.862 374.631 157.263L374.048 35.9267C374.022 32.3247 372.569 28.8802 370.008 26.3487C367.447 23.8171 363.987 22.4051 360.388 22.4224L339.052 22.5249C335.939 22.5809 332.935 23.6744 330.514 25.6322L283.096 63.9721C292.888 68.6905 301.155 76.071 306.952 85.2698C312.749 94.4685 315.842 105.114 315.877 115.989C315.879 116.458 315.881 116.881 315.884 117.408C315.899 117.609 315.9 117.812 315.887 118.014L316.076 157.544C316.091 158.856 316.286 160.161 316.655 161.42C317.349 163.392 318.426 165.207 319.825 166.76C321.086 168.113 322.614 169.191 324.312 169.926C326.01 170.66 327.841 171.034 329.691 171.026L349.323 170.931C349.485 170.897 349.649 170.877 349.815 170.872C350.026 170.868 350.237 170.886 350.444 170.926V170.926Z" fill="#EAEAEA" fill-opacity="0.2"/>
<path d="M383.184 35.8828L383.766 157.162C383.78 163.184 381.406 168.965 377.164 173.237C372.923 177.508 367.162 179.922 361.144 179.948L329.734 180.099C326.636 180.11 323.569 179.483 320.723 178.259C317.877 177.035 315.313 175.238 313.189 172.981L313.051 172.833C310.934 170.485 309.29 167.75 308.21 164.779L308.048 164.402C307.33 162.186 306.961 159.872 306.952 157.542L306.752 115.987C306.706 105.671 303.4 95.6332 297.307 87.3106C291.215 78.9881 282.648 72.8067 272.832 69.6507C272.033 69.4034 271.316 68.9412 270.76 68.3144C270.205 67.6876 269.832 66.9203 269.682 66.096C269.671 65.9743 269.67 65.8518 269.681 65.7299L269.678 65.2837C269.678 64.5969 269.826 63.9182 270.113 63.2945C270.4 62.6708 270.82 62.117 271.342 61.6716L324.762 18.463C328.797 15.1825 333.832 13.3818 339.03 13.3602L360.344 13.2578C363.328 13.242 366.287 13.8148 369.05 14.9433C371.813 16.0719 374.327 17.7342 376.448 19.8353C378.569 21.9364 380.256 24.435 381.412 27.1885C382.567 29.942 383.17 32.8964 383.184 35.8828V35.8828ZM350.444 170.926L361.1 170.875C364.697 170.861 368.141 169.42 370.678 166.868C373.214 164.316 374.636 160.862 374.631 157.263L374.048 35.9267C374.022 32.3247 372.569 28.8802 370.008 26.3487C367.447 23.8171 363.987 22.4051 360.388 22.4224L339.052 22.5249C335.939 22.5809 332.935 23.6744 330.514 25.6322L283.096 63.9721C292.888 68.6905 301.155 76.071 306.952 85.2698C312.749 94.4685 315.842 105.114 315.877 115.989C315.879 116.458 315.881 116.881 315.884 117.408C315.899 117.609 315.9 117.812 315.887 118.014L316.076 157.544C316.091 158.856 316.286 160.161 316.655 161.42C317.349 163.392 318.426 165.207 319.825 166.76C321.086 168.113 322.614 169.191 324.312 169.926C326.01 170.66 327.841 171.034 329.691 171.026L349.323 170.931C349.485 170.897 349.649 170.877 349.815 170.872C350.026 170.868 350.237 170.886 350.444 170.926V170.926Z" fill="#EAEAEA" fill-opacity="0.2"/>
<path d="M310.355 123.986C310.421 134.135 306.54 143.898 299.558 151.148C292.576 158.398 283.059 162.547 273.081 162.691L272.367 162.695C264.754 162.688 257.321 160.344 251.04 155.969C244.759 151.594 239.923 145.392 237.166 138.175C234.408 130.958 233.858 123.063 235.587 115.524C237.316 107.985 241.244 101.153 246.856 95.9223C247.008 95.74 247.135 95.6485 247.135 95.6745L247.402 95.4527L247.542 95.3353L247.694 95.1918L250.426 92.9865C250.577 92.8066 250.753 92.6486 250.946 92.517C256.613 88.5229 263.245 86.1788 270.126 85.7377C277.007 85.2967 283.877 86.7754 289.993 90.0144C296.109 93.2534 301.239 98.1296 304.83 104.117C308.42 110.104 310.335 116.974 310.368 123.986L310.355 123.986ZM253.767 103.503C249.682 107.33 246.823 112.319 245.564 117.82C244.304 123.322 244.701 129.082 246.703 134.352C248.705 139.621 252.22 144.156 256.791 147.367C261.361 150.578 266.775 152.317 272.33 152.356L272.929 152.353C280.176 152.13 287.047 149.028 292.071 143.712C297.094 138.396 299.868 131.29 299.8 123.917C299.731 116.543 296.824 109.491 291.703 104.271C286.581 99.0513 279.653 96.08 272.403 95.9942C266.869 96.0197 261.471 97.7457 256.918 100.946L254.046 103.295L253.78 103.477L253.767 103.503Z" fill="#00589B" fill-opacity="0.3"/>
<path d="M269.685 323.084L269.103 201.805C269.059 195.783 266.683 190.025 262.496 185.794C258.308 181.562 252.652 179.203 246.768 179.235L216.057 179.382C213.028 179.401 210.035 180.056 207.264 181.307C204.492 182.559 202.002 184.379 199.947 186.656L199.814 186.806C197.766 189.174 196.185 191.924 195.157 194.906L195.002 195.284C194.322 197.507 193.982 199.824 193.995 202.154L194.195 243.709C194.247 254.026 191.11 264.094 185.233 272.474C179.355 280.854 171.038 287.116 161.471 290.365C160.691 290.62 159.994 291.089 159.457 291.721C158.92 292.353 158.563 293.124 158.424 293.95C158.414 294.072 158.414 294.194 158.426 294.316L158.428 294.762C158.434 295.449 158.585 296.126 158.872 296.747C159.159 297.368 159.574 297.918 160.089 298.358L212.73 341.058C216.706 344.3 221.646 346.053 226.729 346.025L247.568 345.925C250.487 345.912 253.374 345.311 256.065 344.157C258.756 343.002 261.198 341.316 263.252 339.195C265.306 337.074 266.931 334.559 268.035 331.795C269.139 329.03 269.7 326.07 269.685 323.084V323.084ZM236.392 188.358L246.812 188.308C250.329 188.288 253.71 189.696 256.214 192.224C258.718 194.751 260.141 198.192 260.17 201.791L260.752 323.127C260.761 326.729 259.373 330.187 256.893 332.743C254.413 335.299 251.044 336.743 247.524 336.76L226.663 336.86C223.619 336.834 220.671 335.769 218.285 333.834L171.56 295.946C181.089 291.135 189.102 283.676 194.682 274.423C200.263 265.17 203.185 254.495 203.116 243.621C203.114 243.152 203.112 242.728 203.11 242.202C203.123 242 203.122 241.797 203.107 241.596L202.917 202.065C202.919 200.753 203.097 199.447 203.446 198.184C204.106 196.206 205.142 194.381 206.495 192.815C207.715 191.449 209.198 190.357 210.852 189.606C212.505 188.856 214.292 188.464 216.1 188.455L235.296 188.363C235.455 188.396 235.616 188.414 235.777 188.418C235.984 188.42 236.19 188.4 236.392 188.358V188.358Z" fill="#00589B" fill-opacity="0.3"/>
<path d="M140.4 235.319C140.368 225.004 136.327 215.119 129.158 207.818C121.989 200.518 112.273 196.394 102.128 196.345L101.402 196.349C93.6631 196.43 86.1289 198.885 79.7862 203.393C73.4435 207.9 68.5878 214.251 65.8552 221.613C63.1227 228.974 62.6405 237.004 64.4719 244.65C66.3033 252.295 70.3629 259.201 76.119 264.462C76.2755 264.646 76.4056 264.737 76.4055 264.711L76.6788 264.934L76.822 265.052L76.9783 265.196L79.7769 267.411C79.9328 267.592 80.1125 267.751 80.3108 267.883C86.1106 271.887 92.8755 274.205 99.8755 274.586C106.875 274.967 113.845 273.397 120.031 270.045C126.217 266.694 131.384 261.688 134.976 255.568C138.568 249.448 140.448 242.446 140.413 235.319L140.4 235.319ZM83.0709 256.689C78.8805 252.84 75.926 247.798 74.5916 242.218C73.2572 236.639 73.6046 230.781 75.5887 225.406C77.5729 220.031 81.1018 215.387 85.7168 212.079C90.3318 208.771 95.8191 206.951 101.465 206.857L102.075 206.854C109.444 207.01 116.46 210.096 121.619 215.449C126.777 220.803 129.667 227.999 129.67 235.493C129.672 242.987 126.785 250.184 121.63 255.539C116.474 260.894 109.46 263.981 102.091 264.139C96.4634 264.167 90.959 262.466 86.2991 259.258L83.3572 256.899L83.084 256.716L83.0709 256.689Z" fill="#EAEAEA" fill-opacity="0.2"/>
<path d="M140.4 235.319C140.368 225.004 136.327 215.119 129.158 207.818C121.989 200.518 112.273 196.394 102.128 196.345L101.402 196.349C93.6631 196.43 86.1289 198.885 79.7862 203.393C73.4435 207.9 68.5878 214.251 65.8552 221.613C63.1227 228.974 62.6405 237.004 64.4719 244.65C66.3033 252.295 70.3629 259.201 76.119 264.462C76.2755 264.646 76.4056 264.737 76.4055 264.711L76.6788 264.934L76.822 265.052L76.9783 265.196L79.7769 267.411C79.9328 267.592 80.1125 267.751 80.3108 267.883C86.1106 271.887 92.8755 274.205 99.8755 274.586C106.875 274.967 113.845 273.397 120.031 270.045C126.217 266.694 131.384 261.688 134.976 255.568C138.568 249.448 140.448 242.446 140.413 235.319L140.4 235.319ZM83.0709 256.689C78.8805 252.84 75.926 247.798 74.5916 242.218C73.2572 236.639 73.6046 230.781 75.5887 225.406C77.5729 220.031 81.1018 215.387 85.7168 212.079C90.3318 208.771 95.8191 206.951 101.465 206.857L102.075 206.854C109.444 207.01 116.46 210.096 121.619 215.449C126.777 220.803 129.667 227.999 129.67 235.493C129.672 242.987 126.785 250.184 121.63 255.539C116.474 260.894 109.46 263.981 102.091 264.139C96.4634 264.167 90.959 262.466 86.2991 259.258L83.3572 256.899L83.084 256.716L83.0709 256.689Z" fill="#EAEAEA" fill-opacity="0.2"/>
<path d="M169.679 798.389L169.097 677.11C169.053 671.089 166.65 665.33 162.416 661.099C158.181 656.868 152.461 654.509 146.51 654.541L115.449 654.69C112.386 654.709 109.359 655.364 106.556 656.616C103.753 657.867 101.235 659.688 99.1563 661.965L99.0213 662.115C96.9504 664.483 95.351 667.233 94.3111 670.215L94.1546 670.593C93.4663 672.816 93.1227 675.134 93.136 677.463L93.3355 719.019C93.388 729.335 90.2148 739.403 84.2698 747.784C78.3249 756.164 69.9127 762.427 60.2368 765.676C59.4481 765.931 58.7438 766.4 58.2006 767.032C57.6573 767.665 57.2959 768.435 57.1558 769.261C57.1452 769.383 57.1458 769.505 57.1575 769.627L57.1597 770.073C57.1653 770.76 57.3184 771.437 57.6083 772.058C57.8983 772.679 58.3183 773.229 58.8391 773.669L112.076 816.366C116.097 819.608 121.093 821.36 126.234 821.332L147.31 821.231C150.261 821.219 153.181 820.618 155.903 819.463C158.625 818.308 161.095 816.621 163.172 814.5C165.249 812.379 166.893 809.864 168.01 807.1C169.126 804.336 169.694 801.376 169.679 798.389V798.389ZM136.015 663.665L146.553 663.614C150.11 663.594 153.53 665.002 156.062 667.529C158.595 670.057 160.033 673.497 160.063 677.096L160.645 798.433C160.653 802.035 159.25 805.493 156.741 808.049C154.233 810.605 150.826 812.05 147.266 812.067L126.167 812.168C123.089 812.142 120.107 811.077 117.695 809.142L70.4402 771.257C80.0777 766.445 88.1821 758.986 93.8266 749.732C99.4711 740.479 102.428 729.804 102.358 718.929C102.356 718.46 102.354 718.037 102.352 717.511C102.365 717.309 102.364 717.106 102.349 716.904L102.159 677.374C102.161 676.062 102.342 674.756 102.694 673.493C103.362 671.514 104.41 669.689 105.778 668.123C107.012 666.758 108.512 665.665 110.184 664.915C111.856 664.164 113.664 663.772 115.493 663.763L134.907 663.67C135.067 663.703 135.23 663.721 135.394 663.725C135.602 663.727 135.811 663.707 136.015 663.665V663.665Z" fill="#EAEAEA" fill-opacity="0.2"/>
<path d="M169.679 798.389L169.097 677.11C169.053 671.089 166.65 665.33 162.416 661.099C158.181 656.868 152.461 654.509 146.51 654.541L115.449 654.69C112.386 654.709 109.359 655.364 106.556 656.616C103.753 657.867 101.235 659.688 99.1563 661.965L99.0213 662.115C96.9504 664.483 95.351 667.233 94.3111 670.215L94.1546 670.593C93.4663 672.816 93.1227 675.134 93.136 677.463L93.3355 719.019C93.388 729.335 90.2148 739.403 84.2698 747.784C78.3249 756.164 69.9127 762.427 60.2368 765.676C59.4481 765.931 58.7438 766.4 58.2006 767.032C57.6573 767.665 57.2959 768.435 57.1558 769.261C57.1452 769.383 57.1458 769.505 57.1575 769.627L57.1597 770.073C57.1653 770.76 57.3184 771.437 57.6083 772.058C57.8983 772.679 58.3183 773.229 58.8391 773.669L112.076 816.366C116.097 819.608 121.093 821.36 126.234 821.332L147.31 821.231C150.261 821.219 153.181 820.618 155.903 819.463C158.625 818.308 161.095 816.621 163.172 814.5C165.249 812.379 166.893 809.864 168.01 807.1C169.126 804.336 169.694 801.376 169.679 798.389V798.389ZM136.015 663.665L146.553 663.614C150.11 663.594 153.53 665.002 156.062 667.529C158.595 670.057 160.033 673.497 160.063 677.096L160.645 798.433C160.653 802.035 159.25 805.493 156.741 808.049C154.233 810.605 150.826 812.05 147.266 812.067L126.167 812.168C123.089 812.142 120.107 811.077 117.695 809.142L70.4402 771.257C80.0777 766.445 88.1821 758.986 93.8266 749.732C99.4711 740.479 102.428 729.804 102.358 718.929C102.356 718.46 102.354 718.037 102.352 717.511C102.365 717.309 102.364 717.106 102.349 716.904L102.159 677.374C102.161 676.062 102.342 674.756 102.694 673.493C103.362 671.514 104.41 669.689 105.778 668.123C107.012 666.758 108.512 665.665 110.184 664.915C111.856 664.164 113.664 663.772 115.493 663.763L134.907 663.67C135.067 663.703 135.23 663.721 135.394 663.725C135.602 663.727 135.811 663.707 136.015 663.665V663.665Z" fill="#EAEAEA" fill-opacity="0.2"/>
<path d="M84.6344 710.412C84.6019 700.097 80.6921 690.211 73.7571 682.909C66.8222 675.608 57.4243 671.483 47.6116 671.432L46.9092 671.436C39.4241 671.515 32.1373 673.969 26.0033 678.476C19.8692 682.983 15.1738 689.333 12.5319 696.694C9.89007 704.055 9.42496 712.084 11.1975 719.73C12.9701 727.376 16.8977 734.283 22.4659 739.544C22.6173 739.728 22.7431 739.82 22.743 739.794L23.0074 740.016L23.146 740.134L23.2972 740.279L26.0043 742.494C26.1552 742.675 26.329 742.834 26.5208 742.966C32.1311 746.971 38.6746 749.29 45.4451 749.672C52.2156 750.054 58.956 748.485 64.9386 745.135C70.9213 741.784 75.9189 736.779 79.3922 730.66C82.8655 724.54 84.6825 717.539 84.647 710.412L84.6344 710.412ZM29.1887 731.773C25.135 727.923 22.2766 722.88 20.9851 717.301C19.6935 711.721 20.0287 705.863 21.9469 700.488C23.8651 695.114 27.2777 690.47 31.7408 687.163C36.2039 683.856 41.5111 682.037 46.9722 681.943L47.5617 681.94C54.6893 682.098 61.476 685.185 66.4662 690.539C71.4565 695.894 74.253 703.09 74.2561 710.584C74.2593 718.078 71.4688 725.274 66.4831 730.629C61.4974 735.983 54.7134 739.069 47.5859 739.226C42.1433 739.253 36.8191 737.551 32.3114 734.342L29.4656 731.983L29.2013 731.799L29.1887 731.773Z" fill="#00589B" fill-opacity="0.3"/>
<path d="M110.116 491.635L109.53 369.437C109.516 363.369 111.89 357.545 116.131 353.24C120.372 348.936 126.133 346.505 132.151 346.479L163.561 346.328C166.659 346.317 169.726 346.948 172.572 348.182C175.418 349.416 177.983 351.226 180.106 353.5L180.244 353.649C182.361 356.015 184.005 358.771 185.086 361.765L185.248 362.145C185.965 364.377 186.335 366.709 186.344 369.056L186.545 410.926C186.592 421.321 189.898 431.434 195.991 439.82C202.084 448.206 210.651 454.435 220.466 457.615C221.266 457.864 221.983 458.33 222.539 458.961C223.094 459.593 223.467 460.366 223.617 461.197C223.629 461.319 223.629 461.443 223.618 461.565L223.621 462.015C223.622 462.707 223.473 463.391 223.186 464.019C222.899 464.648 222.48 465.206 221.957 465.654L168.539 509.188C164.504 512.494 159.469 514.308 154.271 514.329L132.957 514.432C129.973 514.448 127.014 513.87 124.251 512.733C121.488 511.596 118.974 509.921 116.853 507.804C114.731 505.687 113.045 503.169 111.889 500.395C110.733 497.62 110.131 494.644 110.116 491.635V491.635ZM142.851 355.569L132.195 355.621C128.598 355.635 125.154 357.087 122.618 359.658C120.081 362.229 118.66 365.709 118.665 369.335L119.252 491.591C119.279 495.22 120.732 498.691 123.293 501.241C125.854 503.792 129.313 505.215 132.913 505.198L154.249 505.095C157.361 505.039 160.366 503.937 162.787 501.965L210.203 463.336C200.411 458.582 192.144 451.145 186.346 441.876C180.549 432.608 177.456 421.881 177.42 410.924C177.418 410.451 177.416 410.025 177.414 409.495C177.398 409.291 177.397 409.087 177.411 408.884L177.219 369.054C177.204 367.732 177.009 366.418 176.64 365.149C175.947 363.162 174.869 361.333 173.47 359.769C172.209 358.404 170.681 357.318 168.983 356.578C167.285 355.839 165.454 355.461 163.604 355.47L143.972 355.564C143.81 355.598 143.646 355.619 143.481 355.624C143.27 355.628 143.059 355.61 142.851 355.569V355.569Z" fill="#EAEAEA" fill-opacity="0.2"/>
<path d="M110.116 491.635L109.53 369.437C109.516 363.369 111.89 357.545 116.131 353.24C120.372 348.936 126.133 346.505 132.151 346.479L163.561 346.328C166.659 346.317 169.726 346.948 172.572 348.182C175.418 349.416 177.983 351.226 180.106 353.5L180.244 353.649C182.361 356.015 184.005 358.771 185.086 361.765L185.248 362.145C185.965 364.377 186.335 366.709 186.344 369.056L186.545 410.926C186.592 421.321 189.898 431.434 195.991 439.82C202.084 448.206 210.651 454.435 220.466 457.615C221.266 457.864 221.983 458.33 222.539 458.961C223.094 459.593 223.467 460.366 223.617 461.197C223.629 461.319 223.629 461.443 223.618 461.565L223.621 462.015C223.622 462.707 223.473 463.391 223.186 464.019C222.899 464.648 222.48 465.206 221.957 465.654L168.539 509.188C164.504 512.494 159.469 514.308 154.271 514.329L132.957 514.432C129.973 514.448 127.014 513.87 124.251 512.733C121.488 511.596 118.974 509.921 116.853 507.804C114.731 505.687 113.045 503.169 111.889 500.395C110.733 497.62 110.131 494.644 110.116 491.635V491.635ZM142.851 355.569L132.195 355.621C128.598 355.635 125.154 357.087 122.618 359.658C120.081 362.229 118.66 365.709 118.665 369.335L119.252 491.591C119.279 495.22 120.732 498.691 123.293 501.241C125.854 503.792 129.313 505.215 132.913 505.198L154.249 505.095C157.361 505.039 160.366 503.937 162.787 501.965L210.203 463.336C200.411 458.582 192.144 451.145 186.346 441.876C180.549 432.608 177.456 421.881 177.42 410.924C177.418 410.451 177.416 410.025 177.414 409.495C177.398 409.291 177.397 409.087 177.411 408.884L177.219 369.054C177.204 367.732 177.009 366.418 176.64 365.149C175.947 363.162 174.869 361.333 173.47 359.769C172.209 358.404 170.681 357.318 168.983 356.578C167.285 355.839 165.454 355.461 163.604 355.47L143.972 355.564C143.81 355.598 143.646 355.619 143.481 355.624C143.27 355.628 143.059 355.61 142.851 355.569V355.569Z" fill="#EAEAEA" fill-opacity="0.2"/>
<path d="M195.576 403.011C195.509 392.696 199.324 382.773 206.188 375.406C213.053 368.038 222.411 363.822 232.222 363.678L232.925 363.674C240.41 363.682 247.72 366.066 253.897 370.514C260.074 374.961 264.831 381.266 267.543 388.601C270.255 395.937 270.798 403.961 269.099 411.624C267.399 419.287 263.538 426.23 258.021 431.545C257.871 431.731 257.746 431.824 257.746 431.797L257.484 432.023L257.347 432.142L257.197 432.288L254.511 434.529C254.362 434.712 254.19 434.872 253.999 435.006C248.428 439.065 241.907 441.446 235.14 441.893C228.373 442.34 221.618 440.836 215.604 437.543C209.589 434.25 204.544 429.293 201.012 423.208C197.48 417.122 195.596 410.138 195.563 403.011L195.576 403.011ZM251.224 423.839C255.24 419.95 258.05 414.88 259.288 409.289C260.526 403.697 260.135 397.842 258.165 392.486C256.195 387.13 252.738 382.52 248.244 379.255C243.749 375.991 238.424 374.223 232.963 374.182L232.373 374.185C225.247 374.411 218.491 377.563 213.552 382.965C208.614 388.367 205.886 395.59 205.955 403.084C206.024 410.578 208.883 417.746 213.92 423.053C218.957 428.359 225.77 431.38 232.899 431.468C238.342 431.443 243.649 429.69 248.126 426.438L250.949 424.051L251.211 423.865L251.224 423.839Z" fill="#EAEAEA" fill-opacity="0.2"/>
<path d="M195.576 403.011C195.509 392.696 199.324 382.773 206.188 375.406C213.053 368.038 222.411 363.822 232.222 363.678L232.925 363.674C240.41 363.682 247.72 366.066 253.897 370.514C260.074 374.961 264.831 381.266 267.543 388.601C270.255 395.937 270.798 403.961 269.099 411.624C267.399 419.287 263.538 426.23 258.021 431.545C257.871 431.731 257.746 431.824 257.746 431.797L257.484 432.023L257.347 432.142L257.197 432.288L254.511 434.529C254.362 434.712 254.19 434.872 253.999 435.006C248.428 439.065 241.907 441.446 235.14 441.893C228.373 442.34 221.618 440.836 215.604 437.543C209.589 434.25 204.544 429.293 201.012 423.208C197.48 417.122 195.596 410.138 195.563 403.011L195.576 403.011ZM251.224 423.839C255.24 419.95 258.05 414.88 259.288 409.289C260.526 403.697 260.135 397.842 258.165 392.486C256.195 387.13 252.738 382.52 248.244 379.255C243.749 375.991 238.424 374.223 232.963 374.182L232.373 374.185C225.247 374.411 218.491 377.563 213.552 382.965C208.614 388.367 205.886 395.59 205.955 403.084C206.024 410.578 208.883 417.746 213.92 423.053C218.957 428.359 225.77 431.38 232.899 431.468C238.342 431.443 243.649 429.69 248.126 426.438L250.949 424.051L251.211 423.865L251.224 423.839Z" fill="#EAEAEA" fill-opacity="0.2"/>
<path d="M286.782 201.777L287.364 323.056C287.408 329.077 289.837 334.835 294.119 339.066C298.401 343.297 304.186 345.656 310.204 345.624L341.613 345.473C344.711 345.454 347.772 344.798 350.606 343.547C353.441 342.295 355.988 340.474 358.09 338.197L358.226 338.048C360.321 335.68 361.938 332.929 362.99 329.947L363.148 329.569C363.844 327.346 364.192 325.028 364.178 322.699L363.979 281.143C363.926 270.827 367.136 260.758 373.148 252.378C379.16 243.997 387.667 237.734 397.452 234.484C398.25 234.229 398.962 233.76 399.511 233.128C400.061 232.495 400.426 231.725 400.568 230.899C400.579 230.777 400.578 230.655 400.566 230.533L400.564 230.087C400.558 229.4 400.404 228.723 400.11 228.102C399.817 227.481 399.392 226.931 398.866 226.491L345.034 183.797C340.967 180.555 335.915 178.803 330.717 178.831L309.403 178.934C306.419 178.946 303.466 179.548 300.714 180.703C297.961 181.858 295.464 183.544 293.363 185.665C291.262 187.787 289.599 190.301 288.47 193.066C287.341 195.83 286.767 198.79 286.782 201.777V201.777ZM320.817 336.5L310.16 336.551C306.563 336.571 303.106 335.163 300.545 332.636C297.984 330.109 296.529 326.668 296.5 323.069L295.917 201.733C295.909 198.131 297.329 194.673 299.865 192.117C302.402 189.561 305.848 188.115 309.447 188.098L330.784 187.996C333.896 188.022 336.911 189.087 339.351 191.021L387.134 228.904C377.388 233.716 369.192 241.176 363.484 250.43C357.776 259.684 354.785 270.358 354.855 281.233C354.857 281.702 354.859 282.125 354.861 282.652C354.848 282.854 354.849 283.056 354.864 283.258L355.054 322.788C355.052 324.101 354.869 325.407 354.513 326.67C353.838 328.648 352.778 330.473 351.394 332.039C350.146 333.405 348.629 334.498 346.938 335.248C345.247 335.999 343.419 336.391 341.57 336.4L321.937 336.494C321.775 336.462 321.611 336.443 321.445 336.439C321.234 336.437 321.024 336.458 320.817 336.5V336.5Z" fill="#EAEAEA" fill-opacity="0.2"/>
<path d="M286.782 201.777L287.364 323.056C287.408 329.077 289.837 334.835 294.119 339.066C298.401 343.297 304.186 345.656 310.204 345.624L341.613 345.473C344.711 345.454 347.772 344.798 350.606 343.547C353.441 342.295 355.988 340.474 358.09 338.197L358.226 338.048C360.321 335.68 361.938 332.929 362.99 329.947L363.148 329.569C363.844 327.346 364.192 325.028 364.178 322.699L363.979 281.143C363.926 270.827 367.136 260.758 373.148 252.378C379.16 243.997 387.667 237.734 397.452 234.484C398.25 234.229 398.962 233.76 399.511 233.128C400.061 232.495 400.426 231.725 400.568 230.899C400.579 230.777 400.578 230.655 400.566 230.533L400.564 230.087C400.558 229.4 400.404 228.723 400.11 228.102C399.817 227.481 399.392 226.931 398.866 226.491L345.034 183.797C340.967 180.555 335.915 178.803 330.717 178.831L309.403 178.934C306.419 178.946 303.466 179.548 300.714 180.703C297.961 181.858 295.464 183.544 293.363 185.665C291.262 187.787 289.599 190.301 288.47 193.066C287.341 195.83 286.767 198.79 286.782 201.777V201.777ZM320.817 336.5L310.16 336.551C306.563 336.571 303.106 335.163 300.545 332.636C297.984 330.109 296.529 326.668 296.5 323.069L295.917 201.733C295.909 198.131 297.329 194.673 299.865 192.117C302.402 189.561 305.848 188.115 309.447 188.098L330.784 187.996C333.896 188.022 336.911 189.087 339.351 191.021L387.134 228.904C377.388 233.716 369.192 241.176 363.484 250.43C357.776 259.684 354.785 270.358 354.855 281.233C354.857 281.702 354.859 282.125 354.861 282.652C354.848 282.854 354.849 283.056 354.864 283.258L355.054 322.788C355.052 324.101 354.869 325.407 354.513 326.67C353.838 328.648 352.778 330.473 351.394 332.039C350.146 333.405 348.629 334.498 346.938 335.248C345.247 335.999 343.419 336.391 341.57 336.4L321.937 336.494C321.775 336.462 321.611 336.443 321.445 336.439C321.234 336.437 321.024 336.458 320.817 336.5V336.5Z" fill="#EAEAEA" fill-opacity="0.2"/>
<path d="M373.086 288.484C373.119 298.799 377.029 308.685 383.964 315.987C390.899 323.288 400.296 327.413 410.109 327.464L410.811 327.46C418.297 327.381 425.583 324.927 431.717 320.42C437.852 315.913 442.547 309.563 445.189 302.202C447.831 294.841 448.296 286.812 446.523 279.166C444.751 271.52 440.823 264.613 435.255 259.352C435.103 259.168 434.978 259.076 434.978 259.102L434.713 258.88L434.575 258.762L434.424 258.617L431.716 256.402C431.566 256.221 431.392 256.062 431.2 255.93C425.59 251.925 419.046 249.606 412.276 249.224C405.505 248.842 398.765 250.411 392.782 253.761C386.799 257.112 381.802 262.117 378.328 268.236C374.855 274.356 373.038 281.357 373.074 288.484L373.086 288.484ZM428.532 267.123C432.586 270.973 435.444 276.016 436.736 281.595C438.027 287.175 437.692 293.033 435.774 298.408C433.856 303.782 430.443 308.426 425.98 311.733C421.517 315.04 416.21 316.859 410.748 316.953L410.159 316.956C403.031 316.798 396.245 313.711 391.254 308.357C386.264 303.002 383.468 295.806 383.465 288.312C383.461 280.818 386.252 273.622 391.238 268.267C396.223 262.913 403.007 259.827 410.135 259.67C415.577 259.643 420.902 261.345 425.409 264.554L428.255 266.913L428.519 267.097L428.532 267.123Z" fill="#EAEAEA" fill-opacity="0.2"/>
<path d="M373.086 288.484C373.119 298.799 377.029 308.685 383.964 315.987C390.899 323.288 400.296 327.413 410.109 327.464L410.811 327.46C418.297 327.381 425.583 324.927 431.717 320.42C437.852 315.913 442.547 309.563 445.189 302.202C447.831 294.841 448.296 286.812 446.523 279.166C444.751 271.52 440.823 264.613 435.255 259.352C435.103 259.168 434.978 259.076 434.978 259.102L434.713 258.88L434.575 258.762L434.424 258.617L431.716 256.402C431.566 256.221 431.392 256.062 431.2 255.93C425.59 251.925 419.046 249.606 412.276 249.224C405.505 248.842 398.765 250.411 392.782 253.761C386.799 257.112 381.802 262.117 378.328 268.236C374.855 274.356 373.038 281.357 373.074 288.484L373.086 288.484ZM428.532 267.123C432.586 270.973 435.444 276.016 436.736 281.595C438.027 287.175 437.692 293.033 435.774 298.408C433.856 303.782 430.443 308.426 425.98 311.733C421.517 315.04 416.21 316.859 410.748 316.953L410.159 316.956C403.031 316.798 396.245 313.711 391.254 308.357C386.264 303.002 383.468 295.806 383.465 288.312C383.461 280.818 386.252 273.622 391.238 268.267C396.223 262.913 403.007 259.827 410.135 259.67C415.577 259.643 420.902 261.345 425.409 264.554L428.255 266.913L428.519 267.097L428.532 267.123Z" fill="#EAEAEA" fill-opacity="0.2"/>
<path d="M334.768 464.215L335.35 585.494C335.364 591.516 332.99 597.297 328.748 601.569C324.507 605.841 318.746 608.254 312.728 608.28L281.318 608.431C278.22 608.442 275.153 607.816 272.307 606.591C269.461 605.367 266.897 603.571 264.773 601.314L264.635 601.166C262.518 598.818 260.874 596.083 259.794 593.111L259.632 592.734C258.914 590.518 258.545 588.204 258.536 585.874L258.336 544.319C258.29 534.003 254.984 523.965 248.891 515.643C242.799 507.32 234.232 501.139 224.416 497.983C223.617 497.736 222.9 497.274 222.344 496.647C221.789 496.02 221.416 495.253 221.266 494.428C221.254 494.307 221.254 494.184 221.265 494.062L221.262 493.616C221.262 492.929 221.41 492.25 221.697 491.627C221.984 491.003 222.404 490.449 222.926 490.004L276.346 446.795C280.381 443.515 285.416 441.714 290.614 441.692L311.928 441.59C314.912 441.574 317.871 442.147 320.634 443.276C323.397 444.404 325.911 446.067 328.032 448.168C330.153 450.269 331.84 452.767 332.996 455.521C334.151 458.274 334.754 461.229 334.768 464.215V464.215ZM302.028 599.258L312.684 599.207C316.281 599.193 319.725 597.752 322.262 595.2C324.798 592.648 326.22 589.194 326.215 585.595L325.632 464.259C325.606 460.657 324.153 457.212 321.592 454.681C319.031 452.149 315.571 450.737 311.972 450.755L290.636 450.857C287.523 450.913 284.519 452.007 282.098 453.965L234.68 492.304C244.472 497.023 252.739 504.403 258.536 513.602C264.333 522.801 267.426 533.446 267.461 544.321C267.463 544.79 267.465 545.214 267.468 545.74C267.483 545.942 267.484 546.144 267.471 546.346L267.66 585.876C267.675 587.189 267.87 588.493 268.239 589.752C268.933 591.724 270.01 593.539 271.409 595.092C272.67 596.446 274.198 597.524 275.896 598.258C277.594 598.992 279.425 599.367 281.275 599.358L300.907 599.264C301.069 599.23 301.233 599.21 301.399 599.204C301.61 599.2 301.82 599.218 302.028 599.258V599.258Z" fill="#EAEAEA" fill-opacity="0.2"/>
<path d="M249.309 553.011C249.376 563.326 245.561 573.248 238.697 580.616C231.832 587.984 222.474 592.199 212.662 592.344L211.96 592.347C204.474 592.34 197.164 589.956 190.987 585.508C184.81 581.06 180.054 574.756 177.342 567.42C174.629 560.085 174.087 552.06 175.786 544.398C177.485 536.735 181.346 529.791 186.864 524.476C187.013 524.291 187.138 524.198 187.139 524.225L187.401 523.999L187.538 523.88L187.688 523.734L190.374 521.493C190.523 521.31 190.695 521.15 190.886 521.016C196.457 516.957 202.978 514.576 209.745 514.129C216.511 513.681 223.266 515.185 229.281 518.478C235.295 521.772 240.341 526.728 243.873 532.814C247.405 538.9 249.289 545.883 249.322 553.011L249.309 553.011ZM193.661 532.183C189.644 536.072 186.835 541.142 185.597 546.733C184.359 552.325 184.75 558.179 186.72 563.536C188.69 568.892 192.147 573.502 196.641 576.766C201.136 580.031 206.46 581.798 211.922 581.84L212.512 581.837C219.637 581.611 226.394 578.459 231.333 573.057C236.271 567.654 238.999 560.432 238.93 552.938C238.861 545.444 236.002 538.275 230.965 532.969C225.928 527.663 219.114 524.642 211.986 524.554C206.543 524.579 201.235 526.332 196.759 529.584L193.936 531.971L193.673 532.156L193.661 532.183Z" fill="#EAEAEA" fill-opacity="0.2"/>
<path d="M249.309 553.011C249.376 563.326 245.561 573.248 238.697 580.616C231.832 587.984 222.474 592.199 212.662 592.344L211.96 592.347C204.474 592.34 197.164 589.956 190.987 585.508C184.81 581.06 180.054 574.756 177.342 567.42C174.629 560.085 174.087 552.06 175.786 544.398C177.485 536.735 181.346 529.791 186.864 524.476C187.013 524.291 187.138 524.198 187.139 524.225L187.401 523.999L187.538 523.88L187.688 523.734L190.374 521.493C190.523 521.31 190.695 521.15 190.886 521.016C196.457 516.957 202.978 514.576 209.745 514.129C216.511 513.681 223.266 515.185 229.281 518.478C235.295 521.772 240.341 526.728 243.873 532.814C247.405 538.9 249.289 545.883 249.322 553.011L249.309 553.011ZM193.661 532.183C189.644 536.072 186.835 541.142 185.597 546.733C184.359 552.325 184.75 558.179 186.72 563.536C188.69 568.892 192.147 573.502 196.641 576.766C201.136 580.031 206.46 581.798 211.922 581.84L212.512 581.837C219.637 581.611 226.394 578.459 231.333 573.057C236.271 567.654 238.999 560.432 238.93 552.938C238.861 545.444 236.002 538.275 230.965 532.969C225.928 527.663 219.114 524.642 211.986 524.554C206.543 524.579 201.235 526.332 196.759 529.584L193.936 531.971L193.673 532.156L193.661 532.183Z" fill="#EAEAEA" fill-opacity="0.2"/>
<path d="M191.602 630.506L192.189 752.704C192.234 758.771 194.69 764.573 199.02 768.836C203.349 773.099 209.198 775.475 215.282 775.443L247.041 775.29C250.173 775.271 253.268 774.61 256.134 773.349C259 772.088 261.575 770.253 263.701 767.959L263.839 767.808C265.956 765.422 267.592 762.651 268.655 759.646L268.815 759.265C269.519 757.025 269.871 754.69 269.857 752.343L269.656 710.473C269.603 700.078 272.849 689.933 278.928 681.489C285.007 673.045 293.608 666.734 303.502 663.459C304.308 663.202 305.029 662.73 305.584 662.093C306.14 661.456 306.509 660.679 306.653 659.847C306.663 659.724 306.663 659.601 306.651 659.478L306.649 659.029C306.643 658.337 306.487 657.654 306.19 657.029C305.894 656.403 305.464 655.849 304.932 655.405L250.502 612.389C246.391 609.123 241.283 607.358 236.026 607.386L214.476 607.49C211.458 607.503 208.473 608.108 205.69 609.272C202.907 610.436 200.381 612.135 198.257 614.273C196.133 616.41 194.452 618.944 193.31 621.729C192.168 624.515 191.588 627.497 191.602 630.506V630.506ZM226.014 766.249L215.239 766.301C211.602 766.321 208.106 764.903 205.516 762.357C202.927 759.81 201.456 756.344 201.427 752.718L200.84 630.462C200.832 626.833 202.267 623.348 204.832 620.773C207.396 618.197 210.881 616.741 214.52 616.724L236.094 616.62C239.241 616.646 242.289 617.719 244.756 619.668L293.07 657.837C283.215 662.686 274.928 670.202 269.156 679.526C263.384 688.851 260.361 699.606 260.431 710.563C260.433 711.036 260.435 711.462 260.437 711.993C260.424 712.196 260.425 712.4 260.44 712.604L260.632 752.433C260.629 753.756 260.445 755.072 260.084 756.344C259.401 758.338 258.33 760.176 256.93 761.754C255.668 763.131 254.134 764.232 252.425 764.988C250.715 765.744 248.867 766.139 246.997 766.148L227.147 766.244C226.983 766.211 226.816 766.192 226.649 766.188C226.436 766.186 226.223 766.207 226.014 766.249V766.249Z" fill="#EAEAEA" fill-opacity="0.2"/>
<path d="M277.908 717.675C277.939 727.823 281.914 737.549 288.965 744.732C296.016 751.914 305.573 755.972 315.552 756.02L316.266 756.016C323.878 755.937 331.289 753.521 337.528 749.086C343.766 744.651 348.542 738.403 351.23 731.16C353.918 723.917 354.392 716.017 352.591 708.495C350.79 700.972 346.796 694.178 341.135 689.002C340.981 688.821 340.853 688.731 340.853 688.757L340.584 688.538L340.443 688.422L340.289 688.28L337.537 686.101C337.383 685.922 337.207 685.766 337.012 685.636C331.307 681.697 324.653 679.416 317.768 679.041C310.882 678.666 304.028 680.211 297.943 683.509C291.858 686.806 286.775 691.731 283.242 697.753C279.709 703.774 277.86 710.662 277.895 717.675L277.908 717.675ZM334.297 696.649C338.418 700.437 341.325 705.397 342.637 710.887C343.95 716.376 343.608 722.139 341.656 727.428C339.705 732.716 336.234 737.285 331.694 740.54C327.155 743.795 321.758 745.585 316.204 745.678L315.604 745.681C308.356 745.527 301.455 742.491 296.381 737.224C291.307 731.956 288.464 724.877 288.462 717.503C288.46 710.13 291.299 703.05 296.37 697.781C301.441 692.512 308.341 689.475 315.589 689.319C321.124 689.292 326.538 690.966 331.121 694.122L334.015 696.443L334.284 696.623L334.297 696.649Z" fill="#EAEAEA" fill-opacity="0.2"/>
<path d="M192.986 162.518L72.4352 163.535C66.4497 163.57 60.6948 161.217 56.4333 156.992C52.1718 152.767 49.7519 147.015 49.7047 140.998L49.4423 109.596C49.4205 106.498 50.032 103.429 51.2388 100.579C52.4456 97.7295 54.222 95.1592 56.4578 93.0278L56.6045 92.8894C58.9308 90.7644 61.6435 89.1112 64.5936 88.0204L64.9675 87.8572C67.1678 87.1319 69.4667 86.7539 71.7822 86.7366L113.088 86.3883C123.342 86.3048 133.308 82.9636 141.559 76.8426C149.809 70.7216 155.923 62.1345 159.025 52.3095C159.268 51.5088 159.725 50.7906 160.346 50.233C160.967 49.6754 161.728 49.2999 162.547 49.1473C162.668 49.135 162.79 49.1339 162.911 49.1442L163.355 49.1405C164.037 49.137 164.712 49.2828 165.333 49.5678C165.954 49.8527 166.506 50.27 166.951 50.7907L210.092 104.045C213.367 108.068 215.175 113.095 215.215 118.293L215.393 139.602C215.42 142.585 214.861 145.545 213.749 148.312C212.637 151.079 210.994 153.598 208.913 155.726C206.832 157.855 204.355 159.55 201.622 160.715C198.889 161.881 195.954 162.493 192.986 162.518V162.518ZM58.6342 130.268L58.7232 140.922C58.7502 144.518 60.195 147.957 62.7405 150.484C65.286 153.01 68.7246 154.419 72.3021 154.401L192.909 153.384C196.49 153.345 199.908 151.88 202.416 149.311C204.923 146.741 206.314 143.277 206.284 139.678L206.106 118.347C206.039 115.235 204.941 112.235 202.986 109.822L164.706 62.5508C160.051 72.3576 152.745 80.6495 143.622 86.4783C134.499 92.3071 123.928 95.4374 113.119 95.5112C112.652 95.5151 112.232 95.5187 111.708 95.5231C111.508 95.5392 111.306 95.5409 111.106 95.5282L71.813 95.8594C70.5085 95.8793 69.2129 96.0787 67.9623 96.4521C66.0047 97.1528 64.2047 98.2366 62.6662 99.6407C61.3249 100.906 60.2589 102.438 59.5351 104.138C58.8114 105.838 58.4456 107.67 58.4609 109.519L58.6248 129.148C58.6594 129.309 58.6798 129.474 58.6858 129.639C58.6906 129.85 58.6732 130.061 58.6342 130.268V130.268Z" fill="#EAEAEA" fill-opacity="0.2"/>
<path d="M105.402 77.5179C95.2674 77.6206 85.5034 73.7758 78.2382 66.8213C70.973 59.8669 66.7957 50.3667 66.6167 40.391L66.6107 39.677C66.5898 32.066 68.9044 24.6255 73.2513 18.3298C77.5982 12.0342 83.7748 7.17689 90.9721 4.3941C98.1695 1.61131 106.052 1.03275 113.587 2.7342C121.123 4.43565 127.96 8.33778 133.203 13.9296C133.386 14.081 133.477 14.2078 133.452 14.208L133.674 14.4739L133.792 14.6132L133.936 14.765L136.148 17.4882C136.328 17.6391 136.486 17.8137 136.618 18.007C140.627 23.6581 142.992 30.2801 143.457 37.1585C143.922 44.0368 142.47 50.9102 139.257 57.0367C136.044 63.1631 131.192 68.31 125.226 71.9218C119.26 75.5335 112.405 77.4729 105.402 77.5306L105.402 77.5179ZM125.657 20.8667C121.82 16.7962 116.828 13.9565 111.33 12.7169C105.831 11.4773 100.08 11.8951 94.8246 13.916C89.5693 15.937 85.0526 19.4676 81.8621 24.0486C78.6716 28.6297 76.9548 34.0493 76.935 39.6026L76.94 40.202C77.1887 47.4464 80.3112 54.3055 85.638 59.3084C90.9648 64.3114 98.0716 67.0598 105.435 66.9643C112.798 66.8689 119.83 63.9372 125.025 58.7979C130.22 53.6585 133.162 46.7209 133.222 39.4725C133.177 33.9388 131.434 28.5482 128.222 24.0077L125.866 21.1455L125.683 20.8792L125.657 20.8667Z" fill="#EAEAEA" fill-opacity="0.2"/>
<path d="M105.402 77.5179C95.2674 77.6206 85.5034 73.7758 78.2382 66.8213C70.973 59.8669 66.7957 50.3667 66.6167 40.391L66.6107 39.677C66.5898 32.066 68.9044 24.6255 73.2513 18.3298C77.5982 12.0342 83.7748 7.17689 90.9721 4.3941C98.1695 1.61131 106.052 1.03275 113.587 2.7342C121.123 4.43565 127.96 8.33778 133.203 13.9296C133.386 14.081 133.477 14.2078 133.452 14.208L133.674 14.4739L133.792 14.6132L133.936 14.765L136.148 17.4882C136.328 17.6391 136.486 17.8137 136.618 18.007C140.627 23.6581 142.992 30.2801 143.457 37.1585C143.922 44.0368 142.47 50.9102 139.257 57.0367C136.044 63.1631 131.192 68.31 125.226 71.9218C119.26 75.5335 112.405 77.4729 105.402 77.5306L105.402 77.5179ZM125.657 20.8667C121.82 16.7962 116.828 13.9565 111.33 12.7169C105.831 11.4773 100.08 11.8951 94.8246 13.916C89.5693 15.937 85.0526 19.4676 81.8621 24.0486C78.6716 28.6297 76.9548 34.0493 76.935 39.6026L76.94 40.202C77.1887 47.4464 80.3112 54.3055 85.638 59.3084C90.9648 64.3114 98.0716 67.0598 105.435 66.9643C112.798 66.8689 119.83 63.9372 125.025 58.7979C130.22 53.6585 133.162 46.7209 133.222 39.4725C133.177 33.9388 131.434 28.5482 128.222 24.0077L125.866 21.1455L125.683 20.8792L125.657 20.8667Z" fill="#EAEAEA" fill-opacity="0.2"/>
<path d="M146.55 637.21L25.9997 638.226C20.0142 638.261 14.2592 635.908 9.99776 631.683C5.73626 627.458 3.31635 621.706 3.26912 615.69L3.00677 584.287C2.98496 581.19 3.59644 578.121 4.80324 575.271C6.01004 572.421 7.78643 569.851 10.0223 567.719L10.169 567.581C12.4952 565.456 15.2079 563.803 18.158 562.712L18.532 562.549C20.7323 561.823 23.0311 561.445 25.3467 561.428L66.6523 561.08C76.9067 560.996 86.8721 557.655 95.123 551.534C103.374 545.413 109.488 536.826 112.59 527.001C112.832 526.2 113.289 525.482 113.91 524.924C114.531 524.367 115.293 523.991 116.112 523.839C116.233 523.826 116.354 523.825 116.476 523.836L116.919 523.832C117.602 523.828 118.277 523.974 118.898 524.259C119.519 524.544 120.071 524.961 120.516 525.482L163.657 578.737C166.932 582.759 168.74 587.787 168.78 592.984L168.958 614.293C168.984 617.277 168.426 620.237 167.314 623.004C166.202 625.77 164.558 628.29 162.478 630.418C160.397 632.546 157.919 634.241 155.186 635.407C152.453 636.572 149.519 637.185 146.55 637.21V637.21ZM12.1986 604.959L12.2877 615.614C12.3147 619.21 13.7594 622.648 16.3049 625.175C18.8505 627.702 22.2891 629.111 25.8665 629.093L146.474 628.076C150.054 628.037 153.473 626.572 155.98 624.002C158.487 621.433 159.878 617.969 159.848 614.37L159.67 593.038C159.603 589.927 158.506 586.927 156.551 584.513L118.271 537.242C113.616 547.049 106.309 555.341 97.1862 561.17C88.0633 566.998 77.4926 570.129 66.683 570.203C66.2168 570.207 65.796 570.21 65.2728 570.215C65.0723 570.231 64.8709 570.232 64.6701 570.22L25.3774 570.551C24.073 570.571 22.7774 570.77 21.5268 571.143C19.5692 571.844 17.7691 572.928 16.2306 574.332C14.8894 575.598 13.8233 577.129 13.0996 578.829C12.3758 580.529 12.0101 582.362 12.0253 584.211L12.1893 603.839C12.2239 604.001 12.2443 604.165 12.2503 604.33C12.255 604.541 12.2377 604.752 12.1986 604.959V604.959Z" fill="#EAEAEA" fill-opacity="0.2"/>
<path d="M58.9668 552.211C48.8319 552.313 39.0678 548.469 31.8027 541.514C24.5375 534.56 20.3602 525.06 20.1811 515.084L20.1752 514.37C20.1543 506.759 22.4688 499.318 26.8157 493.023C31.1626 486.727 37.3392 481.87 44.5366 479.087C51.7339 476.304 59.6164 475.726 67.1519 477.427C74.6873 479.129 81.5244 483.031 86.7676 488.622C86.9502 488.774 87.0419 488.901 87.016 488.901L87.2385 489.167L87.3563 489.306L87.5001 489.458L89.7121 492.181C89.8924 492.332 90.0508 492.507 90.1828 492.7C94.1918 498.351 96.5564 504.973 97.0214 511.851C97.4863 518.73 96.034 525.603 92.8211 531.73C89.6082 537.856 84.7567 543.003 78.7905 546.615C72.8243 550.226 65.9698 552.166 58.9669 552.224L58.9668 552.211ZM79.2211 495.56C75.3849 491.489 70.3928 488.649 64.8941 487.41C59.3954 486.17 53.6444 486.588 48.3891 488.609C43.1337 490.63 38.6171 494.16 35.4266 498.741C32.2361 503.323 30.5193 508.742 30.4995 514.296L30.5045 514.895C30.7532 522.139 33.8757 528.998 39.2025 534.001C44.5292 539.004 51.6361 541.753 58.9991 541.657C66.362 541.562 73.3949 538.63 78.5895 533.491C83.7841 528.351 86.7268 521.414 86.7867 514.165C86.7415 508.632 84.9986 503.241 81.7865 498.701L79.4307 495.838L79.2471 495.572L79.2211 495.56Z" fill="#EAEAEA" fill-opacity="0.2"/>
</g>
<g opacity="0.5">
<path d="M153.926 1068.55L153.301 1198.85C153.286 1205.32 155.837 1211.53 160.393 1216.12C164.95 1220.71 171.14 1223.3 177.605 1223.33L211.35 1223.49C214.679 1223.5 217.974 1222.83 221.032 1221.51C224.089 1220.2 226.845 1218.27 229.126 1215.84L229.274 1215.69C231.549 1213.16 233.315 1210.22 234.475 1207.03L234.649 1206.63C235.42 1204.25 235.818 1201.76 235.827 1199.26L236.042 1154.61C236.092 1143.53 239.643 1132.74 246.189 1123.8C252.734 1114.86 261.938 1108.22 272.484 1104.83C273.343 1104.56 274.113 1104.07 274.71 1103.39C275.307 1102.72 275.707 1101.9 275.868 1101.01C275.881 1100.88 275.881 1100.75 275.87 1100.62L275.872 1100.14C275.873 1099.4 275.714 1098.67 275.405 1098C275.097 1097.33 274.646 1096.74 274.085 1096.26L216.692 1049.84C212.358 1046.31 206.948 1044.38 201.363 1044.35L178.465 1044.24C175.258 1044.23 172.08 1044.84 169.111 1046.05C166.142 1047.27 163.441 1049.05 161.163 1051.31C158.884 1053.57 157.072 1056.25 155.83 1059.21C154.589 1062.17 153.942 1065.34 153.926 1068.55V1068.55ZM189.101 1213.64L177.652 1213.58C173.788 1213.57 170.087 1212.02 167.362 1209.28C164.637 1206.54 163.11 1202.82 163.116 1198.96L163.741 1068.6C163.77 1064.73 165.331 1061.03 168.082 1058.31C170.833 1055.59 174.55 1054.07 178.418 1054.09L201.34 1054.2C204.684 1054.26 207.912 1055.43 210.513 1057.54L261.457 1098.73C250.937 1103.8 242.055 1111.73 235.827 1121.61C229.599 1131.49 226.276 1142.93 226.238 1154.61C226.236 1155.12 226.234 1155.57 226.231 1156.14C226.214 1156.36 226.213 1156.57 226.228 1156.79L226.024 1199.26C226.008 1200.67 225.798 1202.07 225.402 1203.42C224.657 1205.54 223.499 1207.49 221.996 1209.16C220.641 1210.61 219 1211.77 217.176 1212.56C215.352 1213.35 213.384 1213.75 211.397 1213.74L190.305 1213.64C190.131 1213.61 189.954 1213.58 189.777 1213.58C189.55 1213.57 189.324 1213.59 189.101 1213.64V1213.64Z" fill="#EAEAEA" fill-opacity="0.2"/>
<path d="M153.926 1068.55L153.301 1198.85C153.286 1205.32 155.837 1211.53 160.393 1216.12C164.95 1220.71 171.14 1223.3 177.605 1223.33L211.35 1223.49C214.679 1223.5 217.974 1222.83 221.032 1221.51C224.089 1220.2 226.845 1218.27 229.126 1215.84L229.274 1215.69C231.549 1213.16 233.315 1210.22 234.475 1207.03L234.649 1206.63C235.42 1204.25 235.818 1201.76 235.827 1199.26L236.042 1154.61C236.092 1143.53 239.643 1132.74 246.189 1123.8C252.734 1114.86 261.938 1108.22 272.484 1104.83C273.343 1104.56 274.113 1104.07 274.71 1103.39C275.307 1102.72 275.707 1101.9 275.868 1101.01C275.881 1100.88 275.881 1100.75 275.87 1100.62L275.872 1100.14C275.873 1099.4 275.714 1098.67 275.405 1098C275.097 1097.33 274.646 1096.74 274.085 1096.26L216.692 1049.84C212.358 1046.31 206.948 1044.38 201.363 1044.35L178.465 1044.24C175.258 1044.23 172.08 1044.84 169.111 1046.05C166.142 1047.27 163.441 1049.05 161.163 1051.31C158.884 1053.57 157.072 1056.25 155.83 1059.21C154.589 1062.17 153.942 1065.34 153.926 1068.55V1068.55ZM189.101 1213.64L177.652 1213.58C173.788 1213.57 170.087 1212.02 167.362 1209.28C164.637 1206.54 163.11 1202.82 163.116 1198.96L163.741 1068.6C163.77 1064.73 165.331 1061.03 168.082 1058.31C170.833 1055.59 174.55 1054.07 178.418 1054.09L201.34 1054.2C204.684 1054.26 207.912 1055.43 210.513 1057.54L261.457 1098.73C250.937 1103.8 242.055 1111.73 235.827 1121.61C229.599 1131.49 226.276 1142.93 226.238 1154.61C226.236 1155.12 226.234 1155.57 226.231 1156.14C226.214 1156.36 226.213 1156.57 226.228 1156.79L226.024 1199.26C226.008 1200.67 225.798 1202.07 225.402 1203.42C224.657 1205.54 223.499 1207.49 221.996 1209.16C220.641 1210.61 219 1211.77 217.176 1212.56C215.352 1213.35 213.384 1213.75 211.397 1213.74L190.305 1213.64C190.131 1213.61 189.954 1213.58 189.777 1213.58C189.55 1213.57 189.324 1213.59 189.101 1213.64V1213.64Z" fill="#EAEAEA" fill-opacity="0.2"/>
<path d="M232.169 1163.21C232.099 1174.11 236.268 1184.6 243.769 1192.39C251.271 1200.18 261.495 1204.63 272.216 1204.79L272.983 1204.79C281.161 1204.79 289.148 1202.27 295.896 1197.57C302.644 1192.87 307.839 1186.2 310.802 1178.45C313.764 1170.7 314.355 1162.21 312.497 1154.11C310.639 1146.01 306.42 1138.67 300.391 1133.06C300.227 1132.86 300.091 1132.76 300.09 1132.79L299.804 1132.55L299.654 1132.42L299.49 1132.27L296.555 1129.9C296.392 1129.71 296.204 1129.54 295.996 1129.4C289.908 1125.11 282.783 1122.59 275.39 1122.11C267.997 1121.64 260.617 1123.23 254.046 1126.71C247.475 1130.19 241.963 1135.43 238.106 1141.86C234.248 1148.29 232.191 1155.67 232.156 1163.21L232.169 1163.21ZM292.966 1141.2C297.355 1145.31 300.425 1150.67 301.779 1156.58C303.132 1162.49 302.706 1168.68 300.555 1174.34C298.403 1180 294.627 1184.88 289.717 1188.33C284.807 1191.78 278.99 1193.64 273.022 1193.69L272.378 1193.68C264.593 1193.44 257.21 1190.11 251.814 1184.4C246.417 1178.69 243.436 1171.05 243.51 1163.13C243.584 1155.21 246.707 1147.63 252.209 1142.02C257.711 1136.42 265.155 1133.22 272.943 1133.13C278.89 1133.16 284.689 1135.01 289.581 1138.45L292.665 1140.98L292.952 1141.17L292.966 1141.2Z" fill="#4EBA66" fill-opacity="0.3"/>
<path d="M275.863 1377.11L276.489 1246.81C276.535 1240.34 279.088 1234.16 283.587 1229.61C288.086 1225.06 294.163 1222.53 300.484 1222.56L333.48 1222.72C336.734 1222.74 339.949 1223.45 342.927 1224.79C345.904 1226.13 348.579 1228.09 350.787 1230.54L350.93 1230.7C353.13 1233.24 354.829 1236.2 355.933 1239.4L356.1 1239.81C356.831 1242.19 357.196 1244.68 357.181 1247.19L356.967 1291.83C356.911 1302.92 360.281 1313.73 366.596 1322.74C372.911 1331.74 381.846 1338.47 392.125 1341.96C392.963 1342.23 393.711 1342.74 394.288 1343.41C394.865 1344.09 395.249 1344.92 395.398 1345.81C395.409 1345.94 395.408 1346.07 395.396 1346.2L395.393 1346.68C395.387 1347.42 395.225 1348.15 394.917 1348.81C394.609 1349.48 394.162 1350.07 393.609 1350.54L337.054 1396.42C332.782 1399.9 327.475 1401.79 322.014 1401.76L299.624 1401.65C296.489 1401.64 293.387 1400.99 290.496 1399.75C287.605 1398.51 284.981 1396.7 282.775 1394.42C280.568 1392.14 278.822 1389.44 277.636 1386.47C276.45 1383.5 275.848 1380.32 275.863 1377.11V1377.11ZM311.632 1232.36L300.437 1232.31C296.659 1232.29 293.026 1233.8 290.336 1236.52C287.646 1239.23 286.117 1242.93 286.086 1246.8L285.46 1377.16C285.451 1381.03 286.942 1384.74 289.606 1387.49C292.27 1390.23 295.89 1391.78 299.672 1391.8L322.085 1391.91C325.355 1391.88 328.522 1390.74 331.085 1388.66L381.286 1347.95C371.048 1342.78 362.439 1334.77 356.444 1324.83C350.448 1314.89 347.308 1303.42 347.382 1291.74C347.385 1291.23 347.387 1290.78 347.389 1290.21C347.375 1290 347.376 1289.78 347.393 1289.56L347.596 1247.09C347.594 1245.68 347.403 1244.28 347.028 1242.92C346.319 1240.8 345.206 1238.84 343.752 1237.15C342.441 1235.69 340.848 1234.51 339.072 1233.71C337.296 1232.9 335.376 1232.48 333.433 1232.47L312.809 1232.37C312.639 1232.41 312.466 1232.42 312.292 1232.43C312.071 1232.43 311.849 1232.41 311.632 1232.36V1232.36Z" fill="#EAEAEA" fill-opacity="0.2"/>
<path d="M414.763 1282.82C414.797 1271.74 419.139 1261.12 426.841 1253.27C434.543 1245.43 444.981 1241 455.881 1240.95L456.661 1240.95C464.975 1241.04 473.07 1243.67 479.884 1248.52C486.698 1253.36 491.915 1260.18 494.851 1268.09C497.787 1276 498.305 1284.63 496.337 1292.84C494.37 1301.06 490.008 1308.48 483.824 1314.13C483.656 1314.33 483.516 1314.42 483.516 1314.4L483.222 1314.63L483.069 1314.76L482.901 1314.92L479.894 1317.3C479.726 1317.49 479.533 1317.66 479.32 1317.8C473.089 1322.11 465.821 1324.6 458.301 1325C450.78 1325.41 443.293 1323.73 436.647 1320.13C430.001 1316.53 424.449 1311.15 420.59 1304.57C416.73 1298 414.711 1290.48 414.749 1282.82L414.763 1282.82ZM476.355 1305.78C480.857 1301.64 484.031 1296.22 485.465 1290.23C486.899 1284.24 486.525 1277.94 484.394 1272.17C482.262 1266.39 478.47 1261.4 473.512 1257.85C468.554 1254.3 462.659 1252.34 456.593 1252.24L455.938 1252.24C448.021 1252.4 440.483 1255.72 434.941 1261.47C429.398 1267.22 426.293 1274.95 426.291 1283.01C426.289 1291.06 429.39 1298.79 434.929 1304.54C440.468 1310.29 448.004 1313.61 455.921 1313.78C461.967 1313.81 467.88 1311.98 472.887 1308.54L476.047 1306L476.341 1305.81L476.355 1305.78Z" fill="#EAEAEA" fill-opacity="0.2"/>
<path d="M414.763 1282.82C414.797 1271.74 419.139 1261.12 426.841 1253.27C434.543 1245.43 444.981 1241 455.881 1240.95L456.661 1240.95C464.975 1241.04 473.07 1243.67 479.884 1248.52C486.698 1253.36 491.915 1260.18 494.851 1268.09C497.787 1276 498.305 1284.63 496.337 1292.84C494.37 1301.06 490.008 1308.48 483.824 1314.13C483.656 1314.33 483.516 1314.42 483.516 1314.4L483.222 1314.63L483.069 1314.76L482.901 1314.92L479.894 1317.3C479.726 1317.49 479.533 1317.66 479.32 1317.8C473.089 1322.11 465.821 1324.6 458.301 1325C450.78 1325.41 443.293 1323.73 436.647 1320.13C430.001 1316.53 424.449 1311.15 420.59 1304.57C416.73 1298 414.711 1290.48 414.749 1282.82L414.763 1282.82ZM476.355 1305.78C480.857 1301.64 484.031 1296.22 485.465 1290.23C486.899 1284.24 486.525 1277.94 484.394 1272.17C482.262 1266.39 478.47 1261.4 473.512 1257.85C468.554 1254.3 462.659 1252.34 456.593 1252.24L455.938 1252.24C448.021 1252.4 440.483 1255.72 434.941 1261.47C429.398 1267.22 426.293 1274.95 426.291 1283.01C426.289 1291.06 429.39 1298.79 434.929 1304.54C440.468 1310.29 448.004 1313.61 455.921 1313.78C461.967 1313.81 467.88 1311.98 472.887 1308.54L476.047 1306L476.341 1305.81L476.355 1305.78Z" fill="#EAEAEA" fill-opacity="0.2"/>
<path d="M447.299 1558.19L447.929 1426.91C447.944 1420.39 445.394 1414.13 440.837 1409.51C436.281 1404.88 430.091 1402.27 423.625 1402.24L389.88 1402.08C386.552 1402.07 383.257 1402.75 380.199 1404.07C377.141 1405.4 374.386 1407.34 372.104 1409.79L371.956 1409.95C369.681 1412.49 367.915 1415.45 366.754 1418.67L366.58 1419.07C365.81 1421.47 365.412 1423.98 365.402 1426.5L365.186 1471.48C365.136 1482.65 361.584 1493.52 355.038 1502.53C348.492 1511.54 339.288 1518.23 328.743 1521.64C327.883 1521.91 327.113 1522.41 326.516 1523.09C325.92 1523.77 325.519 1524.6 325.358 1525.49C325.345 1525.62 325.345 1525.76 325.356 1525.89L325.354 1526.37C325.353 1527.12 325.512 1527.85 325.821 1528.53C326.129 1529.2 326.58 1529.8 327.141 1530.28L384.532 1577.05C388.866 1580.6 394.276 1582.55 399.861 1582.58L422.759 1582.69C425.966 1582.7 429.144 1582.08 432.113 1580.86C435.082 1579.64 437.783 1577.84 440.062 1575.57C442.34 1573.29 444.153 1570.59 445.394 1567.61C446.636 1564.62 447.283 1561.43 447.299 1558.19V1558.19ZM412.129 1412.01L423.578 1412.07C427.442 1412.08 431.143 1413.64 433.868 1416.4C436.593 1419.16 438.12 1422.9 438.114 1426.8L437.483 1558.15C437.455 1562.05 435.894 1565.77 433.143 1568.52C430.391 1571.26 426.674 1572.78 422.807 1572.77L399.884 1572.66C396.54 1572.59 393.312 1571.41 390.711 1569.29L339.769 1527.79C350.289 1522.68 359.172 1514.69 365.4 1504.74C371.628 1494.78 374.952 1483.25 374.99 1471.48C374.992 1470.97 374.994 1470.52 374.997 1469.95C375.014 1469.73 375.015 1469.51 375 1469.29L375.206 1426.5C375.222 1425.08 375.431 1423.67 375.828 1422.3C376.573 1420.17 377.731 1418.2 379.234 1416.52C380.589 1415.06 382.23 1413.89 384.054 1413.09C385.878 1412.3 387.846 1411.89 389.833 1411.9L410.925 1412C411.099 1412.04 411.276 1412.06 411.453 1412.07C411.68 1412.07 411.907 1412.05 412.129 1412.01V1412.01Z" fill="#EAEAEA" fill-opacity="0.2"/>
<path d="M447.299 1558.19L447.929 1426.91C447.944 1420.39 445.394 1414.13 440.837 1409.51C436.281 1404.88 430.091 1402.27 423.625 1402.24L389.88 1402.08C386.552 1402.07 383.257 1402.75 380.199 1404.07C377.141 1405.4 374.386 1407.34 372.104 1409.79L371.956 1409.95C369.681 1412.49 367.915 1415.45 366.754 1418.67L366.58 1419.07C365.81 1421.47 365.412 1423.98 365.402 1426.5L365.186 1471.48C365.136 1482.65 361.584 1493.52 355.038 1502.53C348.492 1511.54 339.288 1518.23 328.743 1521.64C327.883 1521.91 327.113 1522.41 326.516 1523.09C325.92 1523.77 325.519 1524.6 325.358 1525.49C325.345 1525.62 325.345 1525.76 325.356 1525.89L325.354 1526.37C325.353 1527.12 325.512 1527.85 325.821 1528.53C326.129 1529.2 326.58 1529.8 327.141 1530.28L384.532 1577.05C388.866 1580.6 394.276 1582.55 399.861 1582.58L422.759 1582.69C425.966 1582.7 429.144 1582.08 432.113 1580.86C435.082 1579.64 437.783 1577.84 440.062 1575.57C442.34 1573.29 444.153 1570.59 445.394 1567.61C446.636 1564.62 447.283 1561.43 447.299 1558.19V1558.19ZM412.129 1412.01L423.578 1412.07C427.442 1412.08 431.143 1413.64 433.868 1416.4C436.593 1419.16 438.12 1422.9 438.114 1426.8L437.483 1558.15C437.455 1562.05 435.894 1565.77 433.143 1568.52C430.391 1571.26 426.674 1572.78 422.807 1572.77L399.884 1572.66C396.54 1572.59 393.312 1571.41 390.711 1569.29L339.769 1527.79C350.289 1522.68 359.172 1514.69 365.4 1504.74C371.628 1494.78 374.952 1483.25 374.99 1471.48C374.992 1470.97 374.994 1470.52 374.997 1469.95C375.014 1469.73 375.015 1469.51 375 1469.29L375.206 1426.5C375.222 1425.08 375.431 1423.67 375.828 1422.3C376.573 1420.17 377.731 1418.2 379.234 1416.52C380.589 1415.06 382.23 1413.89 384.054 1413.09C385.878 1412.3 387.846 1411.89 389.833 1411.9L410.925 1412C411.099 1412.04 411.276 1412.06 411.453 1412.07C411.68 1412.07 411.907 1412.05 412.129 1412.01V1412.01Z" fill="#EAEAEA" fill-opacity="0.2"/>
<path d="M355.486 1462.98C355.557 1451.9 351.459 1441.24 344.084 1433.32C336.709 1425.41 326.655 1420.88 316.114 1420.72L315.359 1420.72C307.317 1420.73 299.463 1423.29 292.827 1428.07C286.19 1432.84 281.081 1439.62 278.167 1447.5C275.252 1455.38 274.67 1464 276.495 1472.23C278.321 1480.47 282.469 1487.93 288.397 1493.64C288.557 1493.84 288.692 1493.94 288.692 1493.91L288.974 1494.15L289.121 1494.28L289.282 1494.43L292.168 1496.84C292.328 1497.04 292.513 1497.21 292.718 1497.35C298.704 1501.71 305.709 1504.27 312.979 1504.75C320.249 1505.23 327.506 1503.62 333.968 1500.08C340.43 1496.54 345.851 1491.22 349.645 1484.68C353.44 1478.14 355.464 1470.64 355.499 1462.98L355.486 1462.98ZM295.699 1485.36C291.384 1481.18 288.365 1475.73 287.035 1469.72C285.705 1463.72 286.126 1457.43 288.242 1451.67C290.358 1445.92 294.072 1440.96 298.901 1437.46C303.73 1433.95 309.45 1432.05 315.318 1432.01L315.952 1432.01C323.607 1432.25 330.867 1435.64 336.172 1441.44C341.478 1447.25 344.408 1455.01 344.334 1463.06C344.261 1471.11 341.188 1478.81 335.777 1484.51C330.366 1490.21 323.046 1493.46 315.387 1493.55C309.539 1493.53 303.837 1491.64 299.028 1488.15L295.995 1485.58L295.713 1485.38L295.699 1485.36Z" fill="#EAEAEA" fill-opacity="0.2"/>
<path d="M355.486 1462.98C355.557 1451.9 351.459 1441.24 344.084 1433.32C336.709 1425.41 326.655 1420.88 316.114 1420.72L315.359 1420.72C307.317 1420.73 299.463 1423.29 292.827 1428.07C286.19 1432.84 281.081 1439.62 278.167 1447.5C275.252 1455.38 274.67 1464 276.495 1472.23C278.321 1480.47 282.469 1487.93 288.397 1493.64C288.557 1493.84 288.692 1493.94 288.692 1493.91L288.974 1494.15L289.121 1494.28L289.282 1494.43L292.168 1496.84C292.328 1497.04 292.513 1497.21 292.718 1497.35C298.704 1501.71 305.709 1504.27 312.979 1504.75C320.249 1505.23 327.506 1503.62 333.968 1500.08C340.43 1496.54 345.851 1491.22 349.645 1484.68C353.44 1478.14 355.464 1470.64 355.499 1462.98L355.486 1462.98ZM295.699 1485.36C291.384 1481.18 288.365 1475.73 287.035 1469.72C285.705 1463.72 286.126 1457.43 288.242 1451.67C290.358 1445.92 294.072 1440.96 298.901 1437.46C303.73 1433.95 309.45 1432.05 315.318 1432.01L315.952 1432.01C323.607 1432.25 330.867 1435.64 336.172 1441.44C341.478 1447.25 344.408 1455.01 344.334 1463.06C344.261 1471.11 341.188 1478.81 335.777 1484.51C330.366 1490.21 323.046 1493.46 315.387 1493.55C309.539 1493.53 303.837 1491.64 299.028 1488.15L295.995 1485.58L295.713 1485.38L295.699 1485.36Z" fill="#EAEAEA" fill-opacity="0.2"/>
<path d="M257.496 1246.78L256.871 1377.08C256.824 1383.55 254.213 1389.73 249.613 1394.28C245.012 1398.83 238.798 1401.36 232.332 1401.33L198.587 1401.16C195.259 1401.14 191.97 1400.44 188.925 1399.09C185.88 1397.75 183.144 1395.79 180.886 1393.35L180.739 1393.19C178.489 1390.64 176.751 1387.69 175.621 1384.48L175.451 1384.08C174.703 1381.69 174.33 1379.2 174.344 1376.7L174.558 1332.05C174.615 1320.97 171.167 1310.15 164.707 1301.15C158.248 1292.14 149.109 1285.41 138.596 1281.92C137.739 1281.65 136.974 1281.14 136.384 1280.46C135.794 1279.78 135.401 1278.96 135.249 1278.07C135.237 1277.94 135.238 1277.81 135.25 1277.68L135.253 1277.2C135.259 1276.46 135.425 1275.73 135.74 1275.06C136.055 1274.4 136.511 1273.81 137.077 1273.33L194.913 1227.46C199.281 1223.98 204.709 1222.1 210.294 1222.13L233.192 1222.24C236.399 1222.25 239.571 1222.9 242.528 1224.14C245.485 1225.38 248.169 1227.19 250.426 1229.47C252.683 1231.75 254.469 1234.45 255.682 1237.42C256.895 1240.39 257.512 1243.57 257.496 1246.78V1246.78ZM220.93 1391.52L232.379 1391.58C236.243 1391.6 239.959 1390.09 242.71 1387.37C245.461 1384.66 247.024 1380.96 247.055 1377.09L247.681 1246.73C247.69 1242.86 246.165 1239.15 243.44 1236.4C240.715 1233.66 237.012 1232.1 233.145 1232.09L210.222 1231.98C206.878 1232 203.639 1233.15 201.018 1235.23L149.681 1275.93C160.152 1281.1 168.957 1289.11 175.09 1299.05C181.223 1308.99 184.436 1320.46 184.361 1332.15C184.359 1332.65 184.357 1333.11 184.354 1333.67C184.368 1333.89 184.367 1334.11 184.351 1334.32L184.147 1376.79C184.15 1378.2 184.345 1379.6 184.729 1380.96C185.454 1383.09 186.593 1385.05 188.079 1386.73C189.42 1388.2 191.05 1389.37 192.867 1390.18C194.683 1390.98 196.647 1391.41 198.634 1391.42L219.726 1391.52C219.9 1391.48 220.077 1391.46 220.255 1391.46C220.482 1391.46 220.708 1391.48 220.93 1391.52V1391.52Z" fill="#EAEAEA" fill-opacity="0.2"/>
<path d="M257.496 1246.78L256.871 1377.08C256.824 1383.55 254.213 1389.73 249.613 1394.28C245.012 1398.83 238.798 1401.36 232.332 1401.33L198.587 1401.16C195.259 1401.14 191.97 1400.44 188.925 1399.09C185.88 1397.75 183.144 1395.79 180.886 1393.35L180.739 1393.19C178.489 1390.64 176.751 1387.69 175.621 1384.48L175.451 1384.08C174.703 1381.69 174.33 1379.2 174.344 1376.7L174.558 1332.05C174.615 1320.97 171.167 1310.15 164.707 1301.15C158.248 1292.14 149.109 1285.41 138.596 1281.92C137.739 1281.65 136.974 1281.14 136.384 1280.46C135.794 1279.78 135.401 1278.96 135.249 1278.07C135.237 1277.94 135.238 1277.81 135.25 1277.68L135.253 1277.2C135.259 1276.46 135.425 1275.73 135.74 1275.06C136.055 1274.4 136.511 1273.81 137.077 1273.33L194.913 1227.46C199.281 1223.98 204.709 1222.1 210.294 1222.13L233.192 1222.24C236.399 1222.25 239.571 1222.9 242.528 1224.14C245.485 1225.38 248.169 1227.19 250.426 1229.47C252.683 1231.75 254.469 1234.45 255.682 1237.42C256.895 1240.39 257.512 1243.57 257.496 1246.78V1246.78ZM220.93 1391.52L232.379 1391.58C236.243 1391.6 239.959 1390.09 242.71 1387.37C245.461 1384.66 247.024 1380.96 247.055 1377.09L247.681 1246.73C247.69 1242.86 246.165 1239.15 243.44 1236.4C240.715 1233.66 237.012 1232.1 233.145 1232.09L210.222 1231.98C206.878 1232 203.639 1233.15 201.018 1235.23L149.681 1275.93C160.152 1281.1 168.957 1289.11 175.09 1299.05C181.223 1308.99 184.436 1320.46 184.361 1332.15C184.359 1332.65 184.357 1333.11 184.354 1333.67C184.368 1333.89 184.367 1334.11 184.351 1334.32L184.147 1376.79C184.15 1378.2 184.345 1379.6 184.729 1380.96C185.454 1383.09 186.593 1385.05 188.079 1386.73C189.42 1388.2 191.05 1389.37 192.867 1390.18C194.683 1390.98 196.647 1391.41 198.634 1391.42L219.726 1391.52C219.9 1391.48 220.077 1391.46 220.255 1391.46C220.482 1391.46 220.708 1391.48 220.93 1391.52V1391.52Z" fill="#EAEAEA" fill-opacity="0.2"/>
<path d="M164.774 1339.94C164.739 1351.02 160.539 1361.64 153.088 1369.48C145.638 1377.33 135.541 1381.76 124.998 1381.81L124.244 1381.81C116.202 1381.73 108.373 1379.09 101.783 1374.25C95.193 1369.41 90.1485 1362.58 87.3102 1354.67C84.4719 1346.77 83.9722 1338.14 85.8765 1329.92C87.7809 1321.71 92.0005 1314.29 97.9828 1308.64C98.1455 1308.44 98.2807 1308.34 98.2806 1308.37L98.5647 1308.13L98.7135 1308L98.876 1307.85L101.784 1305.47C101.946 1305.27 102.133 1305.1 102.339 1304.96C108.367 1300.66 115.397 1298.17 122.671 1297.76C129.945 1297.35 137.186 1299.03 143.614 1302.63C150.042 1306.23 155.411 1311.61 159.142 1318.18C162.874 1324.76 164.826 1332.28 164.788 1339.94L164.774 1339.94ZM105.206 1316.99C100.85 1321.12 97.7795 1326.54 96.3919 1332.54C95.0043 1338.53 95.3644 1344.82 97.4252 1350.6C99.4861 1356.37 103.152 1361.36 107.947 1364.91C112.742 1368.47 118.444 1370.42 124.312 1370.52L124.945 1370.53C132.603 1370.36 139.894 1367.04 145.255 1361.29C150.617 1355.53 153.621 1347.8 153.624 1339.75C153.628 1331.7 150.63 1323.97 145.273 1318.22C139.917 1312.46 132.628 1309.15 124.971 1308.98C119.123 1308.95 113.403 1310.78 108.561 1314.23L105.503 1316.76L105.219 1316.96L105.206 1316.99Z" fill="#EAEAEA" fill-opacity="0.2"/>
<path d="M164.774 1339.94C164.739 1351.02 160.539 1361.64 153.088 1369.48C145.638 1377.33 135.541 1381.76 124.998 1381.81L124.244 1381.81C116.202 1381.73 108.373 1379.09 101.783 1374.25C95.193 1369.41 90.1485 1362.58 87.3102 1354.67C84.4719 1346.77 83.9722 1338.14 85.8765 1329.92C87.7809 1321.71 92.0005 1314.29 97.9828 1308.64C98.1455 1308.44 98.2807 1308.34 98.2806 1308.37L98.5647 1308.13L98.7135 1308L98.876 1307.85L101.784 1305.47C101.946 1305.27 102.133 1305.1 102.339 1304.96C108.367 1300.66 115.397 1298.17 122.671 1297.76C129.945 1297.35 137.186 1299.03 143.614 1302.63C150.042 1306.23 155.411 1311.61 159.142 1318.18C162.874 1324.76 164.826 1332.28 164.788 1339.94L164.774 1339.94ZM105.206 1316.99C100.85 1321.12 97.7795 1326.54 96.3919 1332.54C95.0043 1338.53 95.3644 1344.82 97.4252 1350.6C99.4861 1356.37 103.152 1361.36 107.947 1364.91C112.742 1368.47 118.444 1370.42 124.312 1370.52L124.945 1370.53C132.603 1370.36 139.894 1367.04 145.255 1361.29C150.617 1355.53 153.621 1347.8 153.624 1339.75C153.628 1331.7 150.63 1323.97 145.273 1318.22C139.917 1312.46 132.628 1309.15 124.971 1308.98C119.123 1308.95 113.403 1310.78 108.561 1314.23L105.503 1316.76L105.219 1316.96L105.206 1316.99Z" fill="#EAEAEA" fill-opacity="0.2"/>
<path d="M205.944 1528.74L205.318 1659.03C205.303 1665.5 207.854 1671.71 212.411 1676.3C216.967 1680.89 223.157 1683.49 229.623 1683.51L263.368 1683.68C266.696 1683.69 269.991 1683.01 273.049 1681.7C276.107 1680.38 278.862 1678.45 281.144 1676.03L281.292 1675.87C283.566 1673.35 285.332 1670.41 286.493 1667.22L286.667 1666.81C287.438 1664.43 287.835 1661.94 287.845 1659.44L288.059 1614.8C288.109 1603.71 291.661 1592.93 298.206 1583.99C304.752 1575.05 313.956 1568.41 324.501 1565.01C325.361 1564.75 326.131 1564.25 326.727 1563.58C327.324 1562.91 327.725 1562.08 327.885 1561.2C327.898 1561.06 327.899 1560.93 327.887 1560.8L327.89 1560.32C327.891 1559.58 327.731 1558.86 327.423 1558.19C327.114 1557.52 326.664 1556.92 326.102 1556.44L268.71 1510.02C264.375 1506.5 258.966 1504.56 253.381 1504.54L230.482 1504.43C227.276 1504.41 224.097 1505.03 221.129 1506.24C218.16 1507.45 215.459 1509.24 213.18 1511.49C210.901 1513.75 209.089 1516.44 207.848 1519.39C206.606 1522.35 205.959 1525.53 205.944 1528.74V1528.74ZM241.118 1673.82L229.669 1673.77C225.805 1673.75 222.105 1672.2 219.38 1669.46C216.655 1666.72 215.128 1663.01 215.133 1659.14L215.759 1528.78C215.787 1524.91 217.348 1521.21 220.099 1518.49C222.851 1515.77 226.568 1514.26 230.435 1514.27L253.358 1514.38C256.702 1514.44 259.93 1515.62 262.531 1517.72L313.474 1558.91C302.954 1563.98 294.072 1571.91 287.844 1581.79C281.616 1591.68 278.293 1603.11 278.256 1614.8C278.253 1615.3 278.251 1615.76 278.249 1616.32C278.232 1616.54 278.231 1616.76 278.245 1616.97L278.042 1659.44C278.025 1660.85 277.816 1662.25 277.42 1663.61C276.674 1665.73 275.517 1667.68 274.014 1669.34C272.659 1670.8 271.018 1671.96 269.194 1672.75C267.369 1673.53 265.402 1673.94 263.415 1673.93L242.322 1673.83C242.149 1673.79 241.972 1673.77 241.794 1673.76C241.568 1673.76 241.341 1673.78 241.118 1673.82V1673.82Z" fill="#EAEAEA" fill-opacity="0.2"/>
<path d="M205.944 1528.74L205.318 1659.03C205.303 1665.5 207.854 1671.71 212.411 1676.3C216.967 1680.89 223.157 1683.49 229.623 1683.51L263.368 1683.68C266.696 1683.69 269.991 1683.01 273.049 1681.7C276.107 1680.38 278.862 1678.45 281.144 1676.03L281.292 1675.87C283.566 1673.35 285.332 1670.41 286.493 1667.22L286.667 1666.81C287.438 1664.43 287.835 1661.94 287.845 1659.44L288.059 1614.8C288.109 1603.71 291.661 1592.93 298.206 1583.99C304.752 1575.05 313.956 1568.41 324.501 1565.01C325.361 1564.75 326.131 1564.25 326.727 1563.58C327.324 1562.91 327.725 1562.08 327.885 1561.2C327.898 1561.06 327.899 1560.93 327.887 1560.8L327.89 1560.32C327.891 1559.58 327.731 1558.86 327.423 1558.19C327.114 1557.52 326.664 1556.92 326.102 1556.44L268.71 1510.02C264.375 1506.5 258.966 1504.56 253.381 1504.54L230.482 1504.43C227.276 1504.41 224.097 1505.03 221.129 1506.24C218.16 1507.45 215.459 1509.24 213.18 1511.49C210.901 1513.75 209.089 1516.44 207.848 1519.39C206.606 1522.35 205.959 1525.53 205.944 1528.74V1528.74ZM241.118 1673.82L229.669 1673.77C225.805 1673.75 222.105 1672.2 219.38 1669.46C216.655 1666.72 215.128 1663.01 215.133 1659.14L215.759 1528.78C215.787 1524.91 217.348 1521.21 220.099 1518.49C222.851 1515.77 226.568 1514.26 230.435 1514.27L253.358 1514.38C256.702 1514.44 259.93 1515.62 262.531 1517.72L313.474 1558.91C302.954 1563.98 294.072 1571.91 287.844 1581.79C281.616 1591.68 278.293 1603.11 278.256 1614.8C278.253 1615.3 278.251 1615.76 278.249 1616.32C278.232 1616.54 278.231 1616.76 278.245 1616.97L278.042 1659.44C278.025 1660.85 277.816 1662.25 277.42 1663.61C276.674 1665.73 275.517 1667.68 274.014 1669.34C272.659 1670.8 271.018 1671.96 269.194 1672.75C267.369 1673.53 265.402 1673.94 263.415 1673.93L242.322 1673.83C242.149 1673.79 241.972 1673.77 241.794 1673.76C241.568 1673.76 241.341 1673.78 241.118 1673.82V1673.82Z" fill="#EAEAEA" fill-opacity="0.2"/>
<path d="M297.756 1624.13C297.685 1635.22 301.783 1645.88 309.158 1653.79C316.533 1661.71 326.587 1666.24 337.129 1666.39L337.883 1666.4C345.925 1666.39 353.779 1663.83 360.415 1659.05C367.052 1654.27 372.162 1647.5 375.076 1639.62C377.99 1631.73 378.572 1623.11 376.747 1614.88C374.921 1606.65 370.773 1599.19 364.845 1593.48C364.685 1593.28 364.55 1593.18 364.55 1593.21L364.269 1592.97L364.121 1592.84L363.96 1592.68L361.075 1590.27C360.914 1590.08 360.729 1589.9 360.525 1589.76C354.539 1585.4 347.533 1582.84 340.263 1582.36C332.993 1581.88 325.736 1583.5 319.274 1587.03C312.812 1590.57 307.392 1595.9 303.597 1602.44C299.803 1608.97 297.778 1616.48 297.743 1624.13L297.756 1624.13ZM357.543 1601.76C361.858 1605.94 364.877 1611.38 366.207 1617.39C367.537 1623.4 367.116 1629.69 365 1635.44C362.884 1641.2 359.17 1646.15 354.341 1649.66C349.512 1653.16 343.792 1655.06 337.924 1655.11L337.291 1655.1C329.635 1654.86 322.376 1651.47 317.07 1645.67C311.764 1639.87 308.834 1632.11 308.908 1624.06C308.982 1616 312.054 1608.3 317.465 1602.6C322.877 1596.9 330.197 1593.66 337.855 1593.56C343.703 1593.59 349.405 1595.47 354.215 1598.97L357.248 1601.53L357.53 1601.73L357.543 1601.76Z" fill="#EAEAEA" fill-opacity="0.2"/>
<path d="M297.756 1624.13C297.685 1635.22 301.783 1645.88 309.158 1653.79C316.533 1661.71 326.587 1666.24 337.129 1666.39L337.883 1666.4C345.925 1666.39 353.779 1663.83 360.415 1659.05C367.052 1654.27 372.162 1647.5 375.076 1639.62C377.99 1631.73 378.572 1623.11 376.747 1614.88C374.921 1606.65 370.773 1599.19 364.845 1593.48C364.685 1593.28 364.55 1593.18 364.55 1593.21L364.269 1592.97L364.121 1592.84L363.96 1592.68L361.075 1590.27C360.914 1590.08 360.729 1589.9 360.525 1589.76C354.539 1585.4 347.533 1582.84 340.263 1582.36C332.993 1581.88 325.736 1583.5 319.274 1587.03C312.812 1590.57 307.392 1595.9 303.597 1602.44C299.803 1608.97 297.778 1616.48 297.743 1624.13L297.756 1624.13ZM357.543 1601.76C361.858 1605.94 364.877 1611.38 366.207 1617.39C367.537 1623.4 367.116 1629.69 365 1635.44C362.884 1641.2 359.17 1646.15 354.341 1649.66C349.512 1653.16 343.792 1655.06 337.924 1655.11L337.291 1655.1C329.635 1654.86 322.376 1651.47 317.07 1645.67C311.764 1639.87 308.834 1632.11 308.908 1624.06C308.982 1616 312.054 1608.3 317.465 1602.6C322.877 1596.9 330.197 1593.66 337.855 1593.56C343.703 1593.59 349.405 1595.47 354.215 1598.97L357.248 1601.53L357.53 1601.73L357.543 1601.76Z" fill="#EAEAEA" fill-opacity="0.2"/>
<path d="M358.268 1204.6L487.783 1205.7C494.214 1205.73 500.397 1203.21 504.975 1198.67C509.553 1194.13 512.153 1187.95 512.204 1181.48L512.486 1147.75C512.509 1144.42 511.852 1141.12 510.556 1138.06C509.259 1135 507.351 1132.24 504.949 1129.95L504.791 1129.8C502.292 1127.51 499.377 1125.74 496.208 1124.57L495.806 1124.39C493.442 1123.61 490.972 1123.21 488.485 1123.19L444.107 1122.81C433.09 1122.72 422.384 1119.13 413.52 1112.56C404.655 1105.98 398.087 1096.75 394.754 1086.2C394.493 1085.34 394.002 1084.57 393.335 1083.97C392.668 1083.37 391.85 1082.97 390.97 1082.8C390.84 1082.79 390.709 1082.79 390.579 1082.8L390.103 1082.79C389.369 1082.79 388.644 1082.95 387.977 1083.25C387.309 1083.56 386.716 1084.01 386.239 1084.57L339.89 1141.78C336.371 1146.1 334.428 1151.51 334.385 1157.09L334.194 1179.98C334.166 1183.19 334.766 1186.37 335.961 1189.34C337.155 1192.31 338.921 1195.02 341.156 1197.31C343.392 1199.59 346.054 1201.41 348.99 1202.67C351.926 1203.92 355.079 1204.58 358.268 1204.6V1204.6ZM502.61 1169.96L502.515 1181.4C502.486 1185.27 500.934 1188.96 498.199 1191.67C495.464 1194.39 491.77 1195.9 487.926 1195.88L358.35 1194.79C354.503 1194.75 350.831 1193.17 348.137 1190.41C345.443 1187.65 343.949 1183.93 343.981 1180.07L344.172 1157.15C344.244 1153.8 345.424 1150.58 347.524 1147.99L388.65 1097.2C393.652 1107.74 401.502 1116.65 411.303 1122.91C421.104 1129.17 432.461 1132.53 444.074 1132.61C444.575 1132.62 445.027 1132.62 445.589 1132.63C445.805 1132.64 446.021 1132.65 446.237 1132.63L488.452 1132.99C489.853 1133.01 491.245 1133.22 492.589 1133.62C494.692 1134.38 496.626 1135.54 498.279 1137.05C499.72 1138.41 500.865 1140.06 501.643 1141.88C502.42 1143.71 502.813 1145.68 502.797 1147.66L502.62 1168.75C502.583 1168.93 502.561 1169.1 502.555 1169.28C502.55 1169.51 502.568 1169.73 502.61 1169.96V1169.96Z" fill="#EAEAEA" fill-opacity="0.2"/>
<path d="M358.268 1204.6L487.783 1205.7C494.214 1205.73 500.397 1203.21 504.975 1198.67C509.553 1194.13 512.153 1187.95 512.204 1181.48L512.486 1147.75C512.509 1144.42 511.852 1141.12 510.556 1138.06C509.259 1135 507.351 1132.24 504.949 1129.95L504.791 1129.8C502.292 1127.51 499.377 1125.74 496.208 1124.57L495.806 1124.39C493.442 1123.61 490.972 1123.21 488.485 1123.19L444.107 1122.81C433.09 1122.72 422.384 1119.13 413.52 1112.56C404.655 1105.98 398.087 1096.75 394.754 1086.2C394.493 1085.34 394.002 1084.57 393.335 1083.97C392.668 1083.37 391.85 1082.97 390.97 1082.8C390.84 1082.79 390.709 1082.79 390.579 1082.8L390.103 1082.79C389.369 1082.79 388.644 1082.95 387.977 1083.25C387.309 1083.56 386.716 1084.01 386.239 1084.57L339.89 1141.78C336.371 1146.1 334.428 1151.51 334.385 1157.09L334.194 1179.98C334.166 1183.19 334.766 1186.37 335.961 1189.34C337.155 1192.31 338.921 1195.02 341.156 1197.31C343.392 1199.59 346.054 1201.41 348.99 1202.67C351.926 1203.92 355.079 1204.58 358.268 1204.6V1204.6ZM502.61 1169.96L502.515 1181.4C502.486 1185.27 500.934 1188.96 498.199 1191.67C495.464 1194.39 491.77 1195.9 487.926 1195.88L358.35 1194.79C354.503 1194.75 350.831 1193.17 348.137 1190.41C345.443 1187.65 343.949 1183.93 343.981 1180.07L344.172 1157.15C344.244 1153.8 345.424 1150.58 347.524 1147.99L388.65 1097.2C393.652 1107.74 401.502 1116.65 411.303 1122.91C421.104 1129.17 432.461 1132.53 444.074 1132.61C444.575 1132.62 445.027 1132.62 445.589 1132.63C445.805 1132.64 446.021 1132.65 446.237 1132.63L488.452 1132.99C489.853 1133.01 491.245 1133.22 492.589 1133.62C494.692 1134.38 496.626 1135.54 498.279 1137.05C499.72 1138.41 500.865 1140.06 501.643 1141.88C502.42 1143.71 502.813 1145.68 502.797 1147.66L502.62 1168.75C502.583 1168.93 502.561 1169.1 502.555 1169.28C502.55 1169.51 502.568 1169.73 502.61 1169.96V1169.96Z" fill="#EAEAEA" fill-opacity="0.2"/>
<path d="M452.364 1113.28C463.252 1113.39 473.742 1109.26 481.548 1101.79C489.353 1094.32 493.841 1084.11 494.034 1073.39L494.04 1072.63C494.062 1064.45 491.576 1056.46 486.906 1049.69C482.235 1042.93 475.6 1037.71 467.867 1034.72C460.134 1031.73 451.666 1031.11 443.57 1032.94C435.474 1034.77 428.129 1038.96 422.496 1044.97C422.299 1045.13 422.201 1045.26 422.229 1045.26L421.99 1045.55L421.863 1045.7L421.709 1045.86L419.332 1048.79C419.138 1048.95 418.968 1049.14 418.826 1049.35C414.519 1055.42 411.979 1062.53 411.479 1069.92C410.98 1077.31 412.54 1084.7 415.992 1091.28C419.444 1097.86 424.656 1103.39 431.066 1107.27C437.476 1111.15 444.84 1113.23 452.364 1113.3L452.364 1113.28ZM430.603 1052.42C434.725 1048.04 440.088 1044.99 445.996 1043.66C451.903 1042.33 458.082 1042.78 463.728 1044.95C469.374 1047.12 474.227 1050.91 477.654 1055.84C481.082 1060.76 482.927 1066.58 482.948 1072.55L482.943 1073.19C482.675 1080.97 479.321 1088.34 473.598 1093.72C467.875 1099.09 460.24 1102.05 452.329 1101.94C444.418 1101.84 436.863 1098.69 431.282 1093.17C425.701 1087.65 422.539 1080.19 422.475 1072.41C422.524 1066.46 424.396 1060.67 427.847 1055.79L430.378 1052.72L430.575 1052.43L430.603 1052.42Z" fill="#EAEAEA" fill-opacity="0.2"/>
<path d="M452.364 1113.28C463.252 1113.39 473.742 1109.26 481.548 1101.79C489.353 1094.32 493.841 1084.11 494.034 1073.39L494.04 1072.63C494.062 1064.45 491.576 1056.46 486.906 1049.69C482.235 1042.93 475.6 1037.71 467.867 1034.72C460.134 1031.73 451.666 1031.11 443.57 1032.94C435.474 1034.77 428.129 1038.96 422.496 1044.97C422.299 1045.13 422.201 1045.26 422.229 1045.26L421.99 1045.55L421.863 1045.7L421.709 1045.86L419.332 1048.79C419.138 1048.95 418.968 1049.14 418.826 1049.35C414.519 1055.42 411.979 1062.53 411.479 1069.92C410.98 1077.31 412.54 1084.7 415.992 1091.28C419.444 1097.86 424.656 1103.39 431.066 1107.27C437.476 1111.15 444.84 1113.23 452.364 1113.3L452.364 1113.28ZM430.603 1052.42C434.725 1048.04 440.088 1044.99 445.996 1043.66C451.903 1042.33 458.082 1042.78 463.728 1044.95C469.374 1047.12 474.227 1050.91 477.654 1055.84C481.082 1060.76 482.927 1066.58 482.948 1072.55L482.943 1073.19C482.675 1080.97 479.321 1088.34 473.598 1093.72C467.875 1099.09 460.24 1102.05 452.329 1101.94C444.418 1101.84 436.863 1098.69 431.282 1093.17C425.701 1087.65 422.539 1080.19 422.475 1072.41C422.524 1066.46 424.396 1060.67 427.847 1055.79L430.378 1052.72L430.575 1052.43L430.603 1052.42Z" fill="#EAEAEA" fill-opacity="0.2"/>
<path d="M408.157 1714.59L537.672 1715.69C544.102 1715.72 550.285 1713.2 554.864 1708.66C559.442 1704.12 562.042 1697.94 562.093 1691.47L562.375 1657.74C562.398 1654.41 561.741 1651.11 560.444 1648.05C559.148 1644.99 557.239 1642.23 554.837 1639.94L554.68 1639.79C552.18 1637.5 549.266 1635.73 546.097 1634.56L545.695 1634.38C543.331 1633.6 540.861 1633.2 538.373 1633.18L493.996 1632.8C482.979 1632.71 472.273 1629.12 463.408 1622.55C454.544 1615.97 447.975 1606.75 444.643 1596.19C444.382 1595.33 443.891 1594.56 443.224 1593.96C442.557 1593.36 441.739 1592.96 440.859 1592.79C440.729 1592.78 440.598 1592.78 440.468 1592.79L439.991 1592.79C439.258 1592.78 438.533 1592.94 437.865 1593.24C437.198 1593.55 436.605 1594 436.127 1594.56L389.778 1651.77C386.259 1656.09 384.317 1661.5 384.274 1667.08L384.083 1689.97C384.054 1693.18 384.655 1696.36 385.849 1699.33C387.044 1702.3 388.809 1705.01 391.045 1707.3C393.281 1709.58 395.943 1711.41 398.879 1712.66C401.815 1713.91 404.967 1714.57 408.157 1714.59V1714.59ZM552.499 1679.95L552.403 1691.39C552.374 1695.26 550.822 1698.95 548.087 1701.66C545.353 1704.38 541.658 1705.89 537.815 1705.87L408.239 1704.78C404.392 1704.74 400.719 1703.17 398.026 1700.4C395.332 1697.64 393.837 1693.92 393.87 1690.06L394.061 1667.14C394.133 1663.8 395.312 1660.57 397.412 1657.98L438.539 1607.19C443.54 1617.73 451.39 1626.64 461.192 1632.9C470.993 1639.16 482.35 1642.53 493.963 1642.6C494.464 1642.61 494.916 1642.61 495.478 1642.62C495.694 1642.63 495.91 1642.64 496.126 1642.62L538.34 1642.98C539.742 1643 541.134 1643.21 542.477 1643.62C544.581 1644.37 546.514 1645.53 548.167 1647.04C549.608 1648.4 550.754 1650.05 551.531 1651.87C552.309 1653.7 552.702 1655.67 552.685 1657.65L552.509 1678.74C552.472 1678.92 552.45 1679.09 552.444 1679.27C552.439 1679.5 552.457 1679.72 552.499 1679.95V1679.95Z" fill="#EAEAEA" fill-opacity="0.2"/>
</g>
</svg>
