<svg width="320" height="208" viewBox="0 0 320 208" fill="none" xmlns="http://www.w3.org/2000/svg">
<g opacity="0.5">
<path d="M305.027 7.46411H253.987C251.453 7.46984 249.025 8.37785 247.235 9.98889C245.446 11.5999 244.442 13.7824 244.443 16.0573V27.9313C244.445 29.1024 244.715 30.2608 245.236 31.3345C245.757 32.4082 246.518 33.3743 247.472 34.173L247.535 34.2249C248.527 35.0209 249.681 35.6374 250.934 36.0404L251.093 36.1009C252.027 36.3681 253.002 36.5037 253.982 36.5029H271.47C275.812 36.5018 280.043 37.7333 283.558 40.0213C287.072 42.3093 289.691 45.5365 291.039 49.2414C291.145 49.5433 291.341 49.8134 291.605 50.0223C291.87 50.2311 292.194 50.3707 292.541 50.4257C292.592 50.43 292.644 50.43 292.695 50.4257H292.883C293.172 50.4249 293.457 50.3676 293.719 50.2579C293.981 50.1482 294.213 49.9886 294.4 49.7903L312.476 29.5177C313.848 27.9864 314.596 26.0798 314.594 24.1145V16.0573C314.595 14.929 314.348 13.8117 313.867 12.7692C313.387 11.7266 312.682 10.7793 311.794 9.98126C310.905 9.18325 309.85 8.55021 308.689 8.11831C307.528 7.68641 306.284 7.46411 305.027 7.46411ZM248.262 20.0859V16.0573C248.26 14.6976 248.86 13.393 249.929 12.4295C250.997 11.466 252.448 10.9224 253.963 10.9178H305.027C306.543 10.9212 307.995 11.4642 309.066 12.4277C310.136 13.3912 310.737 14.6965 310.737 16.0573V24.1231C310.72 25.2998 310.266 26.4376 309.447 27.3564L293.408 45.3511C291.403 41.6581 288.28 38.5463 284.397 36.3715C280.514 34.1968 276.028 33.0469 271.451 33.0535C271.254 33.0535 271.076 33.0535 270.854 33.0535C270.769 33.048 270.684 33.048 270.599 33.0535H253.963C253.41 33.0501 252.861 32.9789 252.33 32.8417C251.499 32.583 250.733 32.179 250.077 31.653C249.505 31.1787 249.048 30.6032 248.736 29.9627C248.423 29.3221 248.262 28.6305 248.262 27.9313V20.5095C248.276 20.4483 248.284 20.3861 248.286 20.3236C248.287 20.2439 248.279 20.1642 248.262 20.0859Z" fill="#EAEAEA" fill-opacity="0.2"/>
<path d="M305.027 7.46411H253.987C251.453 7.46984 249.025 8.37785 247.235 9.98889C245.446 11.5999 244.442 13.7824 244.443 16.0573V27.9313C244.445 29.1024 244.715 30.2608 245.236 31.3345C245.757 32.4082 246.518 33.3743 247.472 34.173L247.535 34.2249C248.527 35.0209 249.681 35.6374 250.934 36.0404L251.093 36.1009C252.027 36.3681 253.002 36.5037 253.982 36.5029H271.47C275.812 36.5018 280.043 37.7333 283.558 40.0213C287.072 42.3093 289.691 45.5365 291.039 49.2414C291.145 49.5433 291.341 49.8134 291.605 50.0223C291.87 50.2311 292.194 50.3707 292.541 50.4257C292.592 50.43 292.644 50.43 292.695 50.4257H292.883C293.172 50.4249 293.457 50.3676 293.719 50.2579C293.981 50.1482 294.213 49.9886 294.4 49.7903L312.476 29.5177C313.848 27.9864 314.596 26.0798 314.594 24.1145V16.0573C314.595 14.929 314.348 13.8117 313.867 12.7692C313.387 11.7266 312.682 10.7793 311.794 9.98126C310.905 9.18325 309.85 8.55021 308.689 8.11831C307.528 7.68641 306.284 7.46411 305.027 7.46411ZM248.262 20.0859V16.0573C248.26 14.6976 248.86 13.393 249.929 12.4295C250.997 11.466 252.448 10.9224 253.963 10.9178H305.027C306.543 10.9212 307.995 11.4642 309.066 12.4277C310.136 13.3912 310.737 14.6965 310.737 16.0573V24.1231C310.72 25.2998 310.266 26.4376 309.447 27.3564L293.408 45.3511C291.403 41.6581 288.28 38.5463 284.397 36.3715C280.514 34.1968 276.028 33.0469 271.451 33.0535C271.254 33.0535 271.076 33.0535 270.854 33.0535C270.769 33.048 270.684 33.048 270.599 33.0535H253.963C253.41 33.0501 252.861 32.9789 252.33 32.8417C251.499 32.583 250.733 32.179 250.077 31.653C249.505 31.1787 249.048 30.6032 248.736 29.9627C248.423 29.3221 248.262 28.6305 248.262 27.9313V20.5095C248.276 20.4483 248.284 20.3861 248.286 20.3236C248.287 20.2439 248.279 20.1642 248.262 20.0859Z" fill="#EAEAEA" fill-opacity="0.2"/>
<path d="M268.096 39.4548C263.825 39.4482 259.724 40.9331 256.687 43.5856C253.65 46.2382 251.923 49.8435 251.883 53.6158V53.8858C251.901 56.7635 252.902 59.5693 254.756 61.9358C256.61 64.3022 259.23 66.1191 262.273 67.1483C265.315 68.1775 268.639 68.3711 271.808 67.7038C274.978 67.0364 277.845 65.5393 280.035 63.4084C280.111 63.3505 280.149 63.3023 280.138 63.3023L280.231 63.2011L280.28 63.148L280.34 63.0902L281.263 62.0535C281.338 61.9959 281.404 61.9293 281.459 61.8558C283.129 59.7064 284.102 57.1952 284.274 54.593C284.445 51.9909 283.809 49.3968 282.434 47.0906C281.058 44.7845 278.996 42.854 276.469 41.5074C273.942 40.1609 271.047 39.4495 268.096 39.45V39.4548ZM276.83 60.8096C275.228 62.3608 273.134 63.4504 270.822 63.9366C268.509 64.4228 266.084 64.2832 263.862 63.5358C261.641 62.7885 259.725 61.468 258.365 59.7461C257.004 58.0242 256.261 55.9806 256.234 53.8809V53.6543C256.313 50.9145 257.605 48.3112 259.832 46.4026C262.059 44.4941 265.044 43.4323 268.147 43.4449C271.25 43.4575 274.223 44.5435 276.43 46.4701C278.637 48.3967 279.902 51.0104 279.953 53.7508C279.953 55.8431 279.238 57.8868 277.9 59.6138L276.918 60.7035L276.841 60.8047L276.83 60.8096Z" fill="#00589B" fill-opacity="0.3"/>
<path d="M184.391 68.0938H235.431C237.965 68.0993 240.393 68.9872 242.183 70.5624C243.972 72.1377 244.976 74.2716 244.975 76.496V88.1061C244.973 89.2512 244.703 90.3838 244.182 91.4336C243.661 92.4834 242.9 93.4281 241.946 94.2091L241.883 94.2598C240.891 95.0381 239.737 95.6409 238.484 96.0349L238.325 96.0941C237.391 96.3554 236.416 96.488 235.436 96.4872H217.948C213.606 96.4861 209.375 97.6902 205.86 99.9274C202.346 102.165 199.727 105.32 198.379 108.943C198.273 109.238 198.077 109.502 197.813 109.706C197.548 109.91 197.224 110.047 196.877 110.101C196.826 110.105 196.774 110.105 196.723 110.101H196.535C196.246 110.1 195.961 110.044 195.699 109.936C195.437 109.829 195.205 109.673 195.018 109.479L176.942 89.6572C175.57 88.16 174.822 86.2958 174.824 84.3741V76.496C174.823 75.3928 175.07 74.3003 175.551 73.2809C176.031 72.2615 176.736 71.3352 177.624 70.555C178.513 69.7747 179.568 69.1557 180.729 68.7334C181.89 68.3111 183.134 68.0937 184.391 68.0938ZM241.156 80.435V76.496C241.158 75.1665 240.558 73.8908 239.489 72.9488C238.421 72.0067 236.97 71.4752 235.455 71.4707H184.391C182.875 71.4741 181.423 72.005 180.352 72.947C179.282 73.8891 178.681 75.1654 178.681 76.496V84.3826C178.698 85.5331 179.152 86.6456 179.971 87.544L196.01 105.139C198.015 101.528 201.138 98.4851 205.021 96.3587C208.904 94.2323 213.39 93.108 217.967 93.1144C218.164 93.1144 218.342 93.1144 218.564 93.1144C218.649 93.1091 218.734 93.1091 218.819 93.1144H235.455C236.008 93.1112 236.557 93.0415 237.088 92.9073C237.919 92.6544 238.685 92.2593 239.341 91.7451C239.913 91.2813 240.37 90.7186 240.682 90.0923C240.995 89.466 241.156 88.7898 241.156 88.1061V80.8492C241.142 80.7894 241.134 80.7286 241.132 80.6675C241.131 80.5895 241.139 80.5116 241.156 80.435Z" fill="#00589B" fill-opacity="0.3"/>
<path d="M221.588 99.6055C225.929 99.5989 230.097 101.108 233.184 103.805C236.27 106.502 238.025 110.167 238.066 114.002V114.277C238.048 117.203 237.03 120.055 235.146 122.461C233.262 124.867 230.599 126.714 227.506 127.76C224.414 128.807 221.036 129.004 217.814 128.325C214.593 127.647 211.679 126.125 209.453 123.958C209.375 123.899 209.337 123.85 209.348 123.85L209.253 123.747L209.203 123.694L209.142 123.635L208.205 122.581C208.128 122.522 208.061 122.455 208.005 122.38C206.308 120.195 205.319 117.641 205.145 114.996C204.97 112.351 205.617 109.713 207.015 107.369C208.413 105.024 210.509 103.061 213.077 101.692C215.645 100.323 218.588 99.6001 221.588 99.6006V99.6055ZM212.71 121.316C214.339 122.893 216.466 124.001 218.817 124.495C221.168 124.99 223.632 124.848 225.89 124.088C228.148 123.328 230.096 121.986 231.478 120.235C232.861 118.484 233.616 116.407 233.644 114.272V114.042C233.564 111.256 232.251 108.609 229.987 106.669C227.724 104.729 224.69 103.649 221.536 103.662C218.382 103.675 215.36 104.779 213.116 106.738C210.873 108.696 209.588 111.354 209.536 114.14C209.536 116.267 210.263 118.345 211.623 120.1L212.621 121.208L212.699 121.311L212.71 121.316Z" fill="#EAEAEA" fill-opacity="0.2"/>
<path d="M221.588 99.6055C225.929 99.5989 230.097 101.108 233.184 103.805C236.27 106.502 238.025 110.167 238.066 114.002V114.277C238.048 117.203 237.03 120.055 235.146 122.461C233.262 124.867 230.599 126.714 227.506 127.76C224.414 128.807 221.036 129.004 217.814 128.325C214.593 127.647 211.679 126.125 209.453 123.958C209.375 123.899 209.337 123.85 209.348 123.85L209.253 123.747L209.203 123.694L209.142 123.635L208.205 122.581C208.128 122.522 208.061 122.455 208.005 122.38C206.308 120.195 205.319 117.641 205.145 114.996C204.97 112.351 205.617 109.713 207.015 107.369C208.413 105.024 210.509 103.061 213.077 101.692C215.645 100.323 218.588 99.6001 221.588 99.6006V99.6055ZM212.71 121.316C214.339 122.893 216.466 124.001 218.817 124.495C221.168 124.99 223.632 124.848 225.89 124.088C228.148 123.328 230.096 121.986 231.478 120.235C232.861 118.484 233.616 116.407 233.644 114.272V114.042C233.564 111.256 232.251 108.609 229.987 106.669C227.724 104.729 224.69 103.649 221.536 103.662C218.382 103.675 215.36 104.779 213.116 106.738C210.873 108.696 209.588 111.354 209.536 114.14C209.536 116.267 210.263 118.345 211.623 120.1L212.621 121.208L212.699 121.311L212.71 121.316Z" fill="#EAEAEA" fill-opacity="0.2"/>
<path d="M-15.433 106.762H35.6069C38.141 106.767 40.5691 107.665 42.3583 109.258C44.1475 110.852 45.1517 113.01 45.1504 115.259V127.002C45.1487 128.16 44.8789 129.305 44.3579 130.367C43.837 131.429 43.0758 132.384 42.1217 133.174L42.0591 133.225C41.0668 134.012 39.9125 134.622 38.6597 135.02L38.5008 135.08C37.5667 135.345 36.5921 135.479 35.6117 135.478H18.1233C13.7817 135.477 9.55098 136.695 6.03623 138.957C2.52148 141.22 -0.0971756 144.411 -1.44516 148.075C-1.55083 148.373 -1.7468 148.641 -2.0117 148.847C-2.27661 149.054 -2.60028 149.192 -2.94746 149.246C-2.99871 149.25 -3.05028 149.25 -3.10153 149.246H-3.28933C-3.57834 149.245 -3.86369 149.189 -4.12559 149.08C-4.38749 148.972 -4.61968 148.814 -4.80608 148.618L-22.8819 128.57C-24.2543 127.056 -25.0019 125.171 -25.0005 123.227V115.259C-25.0012 114.144 -24.7542 113.039 -24.2736 112.008C-23.7931 110.977 -23.0884 110.04 -22.2 109.251C-21.3115 108.462 -20.2565 107.836 -19.0954 107.409C-17.9343 106.982 -16.6898 106.762 -15.433 106.762ZM41.332 119.243V115.259C41.3333 113.915 40.7338 112.625 39.6651 111.672C38.5964 110.719 37.1456 110.182 35.631 110.177H-15.433C-16.9489 110.18 -18.4014 110.717 -19.4719 111.67C-20.5425 112.623 -21.1436 113.914 -21.1436 115.259V123.236C-21.1263 124.399 -20.6722 125.524 -19.8532 126.433L-3.81417 144.228C-1.80874 140.576 1.31397 137.499 5.19684 135.348C9.07972 133.197 13.566 132.06 18.1426 132.067C18.34 132.067 18.5182 132.067 18.7397 132.067C18.8246 132.061 18.9099 132.061 18.9949 132.067H35.631C36.1833 132.063 36.7325 131.993 37.2633 131.857C38.0945 131.602 38.8604 131.202 39.5167 130.682C40.089 130.213 40.5458 129.644 40.8582 129.01C41.1706 128.377 41.3319 127.693 41.332 127.002V119.662C41.318 119.602 41.3099 119.54 41.3079 119.478C41.3067 119.399 41.3148 119.321 41.332 119.243Z" fill="#EAEAEA" fill-opacity="0.2"/>
<path d="M-15.433 106.762H35.6069C38.141 106.767 40.5691 107.665 42.3583 109.258C44.1475 110.852 45.1517 113.01 45.1504 115.259V127.002C45.1487 128.16 44.8789 129.305 44.3579 130.367C43.837 131.429 43.0758 132.384 42.1217 133.174L42.0591 133.225C41.0668 134.012 39.9125 134.622 38.6597 135.02L38.5008 135.08C37.5667 135.345 36.5921 135.479 35.6117 135.478H18.1233C13.7817 135.477 9.55098 136.695 6.03623 138.957C2.52148 141.22 -0.0971756 144.411 -1.44516 148.075C-1.55083 148.373 -1.7468 148.641 -2.0117 148.847C-2.27661 149.054 -2.60028 149.192 -2.94746 149.246C-2.99871 149.25 -3.05028 149.25 -3.10153 149.246H-3.28933C-3.57834 149.245 -3.86369 149.189 -4.12559 149.08C-4.38749 148.972 -4.61968 148.814 -4.80608 148.618L-22.8819 128.57C-24.2543 127.056 -25.0019 125.171 -25.0005 123.227V115.259C-25.0012 114.144 -24.7542 113.039 -24.2736 112.008C-23.7931 110.977 -23.0884 110.04 -22.2 109.251C-21.3115 108.462 -20.2565 107.836 -19.0954 107.409C-17.9343 106.982 -16.6898 106.762 -15.433 106.762ZM41.332 119.243V115.259C41.3333 113.915 40.7338 112.625 39.6651 111.672C38.5964 110.719 37.1456 110.182 35.631 110.177H-15.433C-16.9489 110.18 -18.4014 110.717 -19.4719 111.67C-20.5425 112.623 -21.1436 113.914 -21.1436 115.259V123.236C-21.1263 124.399 -20.6722 125.524 -19.8532 126.433L-3.81417 144.228C-1.80874 140.576 1.31397 137.499 5.19684 135.348C9.07972 133.197 13.566 132.06 18.1426 132.067C18.34 132.067 18.5182 132.067 18.7397 132.067C18.8246 132.061 18.9099 132.061 18.9949 132.067H35.631C36.1833 132.063 36.7325 131.993 37.2633 131.857C38.0945 131.602 38.8604 131.202 39.5167 130.682C40.089 130.213 40.5458 129.644 40.8582 129.01C41.1706 128.377 41.3319 127.693 41.332 127.002V119.662C41.318 119.602 41.3099 119.54 41.3079 119.478C41.3067 119.399 41.3148 119.321 41.332 119.243Z" fill="#EAEAEA" fill-opacity="0.2"/>
<path d="M21.7634 138.751C26.1045 138.744 30.2726 140.204 33.3593 142.813C36.4461 145.421 38.2012 148.966 38.2422 152.676V152.941C38.2239 155.771 37.206 158.53 35.3217 160.857C33.4374 163.184 30.7746 164.97 27.6821 165.983C24.5896 166.995 21.2115 167.185 17.9902 166.529C14.7689 165.873 11.8546 164.4 9.62893 162.305C9.55126 162.248 9.51241 162.201 9.52351 162.201L9.42918 162.101L9.37925 162.049L9.31821 161.992L8.38054 160.973C8.30388 160.916 8.23666 160.851 8.18078 160.778C6.48398 158.665 5.49493 156.195 5.32042 153.637C5.1459 151.078 5.79252 148.527 7.19051 146.259C8.58849 143.992 10.6847 142.093 13.253 140.769C15.8212 139.445 18.7639 138.745 21.7634 138.746V138.751ZM12.8859 159.749C14.5143 161.275 16.6422 162.346 18.9929 162.824C21.3435 163.302 23.8081 163.165 26.0662 162.43C28.3242 161.695 30.2713 160.397 31.6542 158.704C33.0371 157.011 33.7917 155.001 33.8201 152.936V152.713C33.7395 150.019 32.4267 147.459 30.1632 145.583C27.8996 143.706 24.8657 142.662 21.7118 142.674C18.5579 142.687 15.5353 143.755 13.2921 145.649C11.0489 147.543 9.76372 150.114 9.71216 152.808C9.71171 154.866 10.4389 156.875 11.7984 158.574L12.7971 159.645L12.8748 159.745L12.8859 159.749Z" fill="#4EBA66" fill-opacity="0.3"/>
<path d="M113.782 128.722H165.208C167.762 128.716 170.208 127.808 172.011 126.197C173.814 124.586 174.826 122.403 174.824 120.128V108.254C174.822 107.083 174.551 105.925 174.026 104.851C173.501 103.778 172.734 102.811 171.773 102.013L171.71 101.961C170.71 101.165 169.547 100.548 168.284 100.145L168.124 100.085C167.183 99.8177 166.201 99.6821 165.213 99.6829H147.592C143.218 99.684 138.955 98.4525 135.414 96.1645C131.872 93.8765 129.234 90.6493 127.876 86.9444C127.769 86.6425 127.572 86.3724 127.305 86.1635C127.038 85.9547 126.712 85.8151 126.362 85.76C126.31 85.7558 126.258 85.7558 126.207 85.76H126.018C125.726 85.7609 125.439 85.8182 125.175 85.9279C124.911 86.0376 124.677 86.1972 124.489 86.3955L106.277 106.668C104.894 108.199 104.14 110.106 104.142 112.071V120.128C104.141 121.257 104.39 122.374 104.874 123.417C105.358 124.459 106.068 125.407 106.964 126.205C107.859 127.003 108.922 127.636 110.092 128.067C111.262 128.499 112.516 128.722 113.782 128.722ZM170.977 116.1V120.128C170.978 121.488 170.374 122.793 169.297 123.756C168.221 124.72 166.759 125.263 165.233 125.268H113.782C112.255 125.265 110.791 124.722 109.712 123.758C108.634 122.795 108.028 121.489 108.028 120.128V112.063C108.045 110.886 108.503 109.748 109.328 108.829L125.489 90.8347C127.509 94.5277 130.656 97.6395 134.568 99.8143C138.48 101.989 143.001 103.139 147.612 103.132C147.811 103.132 147.99 103.132 148.213 103.132C148.299 103.138 148.385 103.138 148.471 103.132H165.233C165.789 103.136 166.343 103.207 166.877 103.344C167.715 103.603 168.487 104.007 169.148 104.533C169.725 105.007 170.185 105.583 170.5 106.223C170.814 106.864 170.977 107.555 170.977 108.254V115.676C170.963 115.737 170.955 115.8 170.953 115.862C170.951 115.942 170.96 116.022 170.977 116.1Z" fill="#EAEAEA" fill-opacity="0.2"/>
<path d="M113.782 128.722H165.208C167.762 128.716 170.208 127.808 172.011 126.197C173.814 124.586 174.826 122.403 174.824 120.128V108.254C174.822 107.083 174.551 105.925 174.026 104.851C173.501 103.778 172.734 102.811 171.773 102.013L171.71 101.961C170.71 101.165 169.547 100.548 168.284 100.145L168.124 100.085C167.183 99.8177 166.201 99.6821 165.213 99.6829H147.592C143.218 99.684 138.955 98.4525 135.414 96.1645C131.872 93.8765 129.234 90.6493 127.876 86.9444C127.769 86.6425 127.572 86.3724 127.305 86.1635C127.038 85.9547 126.712 85.8151 126.362 85.76C126.31 85.7558 126.258 85.7558 126.207 85.76H126.018C125.726 85.7609 125.439 85.8182 125.175 85.9279C124.911 86.0376 124.677 86.1972 124.489 86.3955L106.277 106.668C104.894 108.199 104.14 110.106 104.142 112.071V120.128C104.141 121.257 104.39 122.374 104.874 123.417C105.358 124.459 106.068 125.407 106.964 126.205C107.859 127.003 108.922 127.636 110.092 128.067C111.262 128.499 112.516 128.722 113.782 128.722ZM170.977 116.1V120.128C170.978 121.488 170.374 122.793 169.297 123.756C168.221 124.72 166.759 125.263 165.233 125.268H113.782C112.255 125.265 110.791 124.722 109.712 123.758C108.634 122.795 108.028 121.489 108.028 120.128V112.063C108.045 110.886 108.503 109.748 109.328 108.829L125.489 90.8347C127.509 94.5277 130.656 97.6395 134.568 99.8143C138.48 101.989 143.001 103.139 147.612 103.132C147.811 103.132 147.99 103.132 148.213 103.132C148.299 103.138 148.385 103.138 148.471 103.132H165.233C165.789 103.136 166.343 103.207 166.877 103.344C167.715 103.603 168.487 104.007 169.148 104.533C169.725 105.007 170.185 105.583 170.5 106.223C170.814 106.864 170.977 107.555 170.977 108.254V115.676C170.963 115.737 170.955 115.8 170.953 115.862C170.951 115.942 170.96 116.022 170.977 116.1Z" fill="#EAEAEA" fill-opacity="0.2"/>
<path d="M150.904 96.254C155.245 96.2605 159.413 94.8004 162.5 92.192C165.587 89.5837 167.342 86.0385 167.383 82.3291V82.0636C167.365 79.2339 166.347 76.4748 164.462 74.1478C162.578 71.8207 159.915 70.0342 156.823 69.0222C153.73 68.0101 150.352 67.8197 147.131 68.4759C143.909 69.1321 140.995 70.6043 138.77 72.6997C138.692 72.7566 138.653 72.804 138.664 72.804L138.57 72.9036L138.52 72.9558L138.459 73.0126L137.521 74.032C137.445 74.0887 137.377 74.1541 137.321 74.2264C135.625 76.3399 134.636 78.8094 134.461 81.3681C134.287 83.9269 134.933 86.4778 136.331 88.7455C137.729 91.0131 139.825 92.9115 142.394 94.2356C144.962 95.5597 147.904 96.2593 150.904 96.2588V96.254ZM142.026 75.2552C143.655 73.7298 145.783 72.6584 148.133 72.1803C150.484 71.7022 152.949 71.8395 155.207 72.5744C157.465 73.3093 159.412 74.6078 160.795 76.301C162.178 77.9942 162.932 80.0037 162.961 82.0683V82.2912C162.88 84.9853 161.567 87.5453 159.304 89.422C157.04 91.2988 154.006 92.3429 150.852 92.3304C147.699 92.318 144.676 91.2501 142.433 89.3556C140.19 87.4612 138.904 84.8911 138.853 82.1964C138.852 80.1388 139.58 78.1292 140.939 76.4311L141.938 75.3595L142.015 75.26L142.026 75.2552Z" fill="#EAEAEA" fill-opacity="0.2"/>
<path d="M150.904 96.254C155.245 96.2605 159.413 94.8004 162.5 92.192C165.587 89.5837 167.342 86.0385 167.383 82.3291V82.0636C167.365 79.2339 166.347 76.4748 164.462 74.1478C162.578 71.8207 159.915 70.0342 156.823 69.0222C153.73 68.0101 150.352 67.8197 147.131 68.4759C143.909 69.1321 140.995 70.6043 138.77 72.6997C138.692 72.7566 138.653 72.804 138.664 72.804L138.57 72.9036L138.52 72.9558L138.459 73.0126L137.521 74.032C137.445 74.0887 137.377 74.1541 137.321 74.2264C135.625 76.3399 134.636 78.8094 134.461 81.3681C134.287 83.9269 134.933 86.4778 136.331 88.7455C137.729 91.0131 139.825 92.9115 142.394 94.2356C144.962 95.5597 147.904 96.2593 150.904 96.2588V96.254ZM142.026 75.2552C143.655 73.7298 145.783 72.6584 148.133 72.1803C150.484 71.7022 152.949 71.8395 155.207 72.5744C157.465 73.3093 159.412 74.6078 160.795 76.301C162.178 77.9942 162.932 80.0037 162.961 82.0683V82.2912C162.88 84.9853 161.567 87.5453 159.304 89.422C157.04 91.2988 154.006 92.3429 150.852 92.3304C147.699 92.318 144.676 91.2501 142.433 89.3556C140.19 87.4612 138.904 84.8911 138.853 82.1964C138.852 80.1388 139.58 78.1292 140.939 76.4311L141.938 75.3595L142.015 75.26L142.026 75.2552Z" fill="#EAEAEA" fill-opacity="0.2"/>
<path d="M235.408 61.4099H184.368C181.834 61.4042 179.405 60.4962 177.616 58.8851C175.827 57.2741 174.823 55.0917 174.824 52.8167V40.9428C174.826 39.7716 175.096 38.6133 175.617 37.5396C176.138 36.4659 176.899 35.4998 177.853 34.7011L177.916 34.6492C178.908 33.8532 180.062 33.2367 181.315 32.8337L181.474 32.7732C182.408 32.506 183.383 32.3704 184.363 32.3712H201.851C206.193 32.3723 210.424 31.1408 213.938 28.8528C217.453 26.5648 220.072 23.3376 221.42 19.6328C221.525 19.3308 221.721 19.0607 221.986 18.8519C222.251 18.643 222.575 18.5035 222.922 18.4484C222.973 18.4441 223.025 18.4441 223.076 18.4484H223.264C223.553 18.4493 223.838 18.5066 224.1 18.6163C224.362 18.726 224.594 18.8855 224.781 19.0838L242.857 39.3564C244.229 40.8876 244.977 42.7942 244.975 44.7596V52.8167C244.976 53.945 244.729 55.0623 244.248 56.1049C243.768 57.1474 243.063 58.0948 242.175 58.8928C241.286 59.6908 240.231 60.3238 239.07 60.7557C237.909 61.1876 236.664 61.4099 235.408 61.4099ZM178.643 48.7882V52.8167C178.641 54.1764 179.241 55.4811 180.31 56.4445C181.378 57.408 182.829 57.9516 184.344 57.9562H235.408C236.923 57.9528 238.376 57.4098 239.447 56.4463C240.517 55.4829 241.118 54.1776 241.118 52.8167V44.7509C241.101 43.5743 240.647 42.4365 239.828 41.5177L223.789 23.523C221.783 27.216 218.661 30.3279 214.778 32.5026C210.895 34.6773 206.409 35.8271 201.832 35.8206C201.635 35.8206 201.456 35.8206 201.235 35.8206C201.15 35.8261 201.065 35.8261 200.98 35.8206H184.344C183.791 35.824 183.242 35.8952 182.711 36.0324C181.88 36.2911 181.114 36.6951 180.458 37.2211C179.886 37.6954 179.429 38.2709 179.116 38.9114C178.804 39.5519 178.643 40.2436 178.643 40.9428V48.3646C178.657 48.4258 178.665 48.4879 178.667 48.5504C178.668 48.6302 178.66 48.7099 178.643 48.7882Z" fill="#EAEAEA" fill-opacity="0.2"/>
<path d="M235.408 61.4099H184.368C181.834 61.4042 179.405 60.4962 177.616 58.8851C175.827 57.2741 174.823 55.0917 174.824 52.8167V40.9428C174.826 39.7716 175.096 38.6133 175.617 37.5396C176.138 36.4659 176.899 35.4998 177.853 34.7011L177.916 34.6492C178.908 33.8532 180.062 33.2367 181.315 32.8337L181.474 32.7732C182.408 32.506 183.383 32.3704 184.363 32.3712H201.851C206.193 32.3723 210.424 31.1408 213.938 28.8528C217.453 26.5648 220.072 23.3376 221.42 19.6328C221.525 19.3308 221.721 19.0607 221.986 18.8519C222.251 18.643 222.575 18.5035 222.922 18.4484C222.973 18.4441 223.025 18.4441 223.076 18.4484H223.264C223.553 18.4493 223.838 18.5066 224.1 18.6163C224.362 18.726 224.594 18.8855 224.781 19.0838L242.857 39.3564C244.229 40.8876 244.977 42.7942 244.975 44.7596V52.8167C244.976 53.945 244.729 55.0623 244.248 56.1049C243.768 57.1474 243.063 58.0948 242.175 58.8928C241.286 59.6908 240.231 60.3238 239.07 60.7557C237.909 61.1876 236.664 61.4099 235.408 61.4099ZM178.643 48.7882V52.8167C178.641 54.1764 179.241 55.4811 180.31 56.4445C181.378 57.408 182.829 57.9516 184.344 57.9562H235.408C236.923 57.9528 238.376 57.4098 239.447 56.4463C240.517 55.4829 241.118 54.1776 241.118 52.8167V44.7509C241.101 43.5743 240.647 42.4365 239.828 41.5177L223.789 23.523C221.783 27.216 218.661 30.3279 214.778 32.5026C210.895 34.6773 206.409 35.8271 201.832 35.8206C201.635 35.8206 201.456 35.8206 201.235 35.8206C201.15 35.8261 201.065 35.8261 200.98 35.8206H184.344C183.791 35.824 183.242 35.8952 182.711 36.0324C181.88 36.2911 181.114 36.6951 180.458 37.2211C179.886 37.6954 179.429 38.2709 179.116 38.9114C178.804 39.5519 178.643 40.2436 178.643 40.9428V48.3646C178.657 48.4258 178.665 48.4879 178.667 48.5504C178.668 48.6302 178.66 48.7099 178.643 48.7882Z" fill="#EAEAEA" fill-opacity="0.2"/>
<path d="M198.743 28.9423C194.401 28.9487 190.233 27.4886 187.147 24.8803C184.06 22.2719 182.305 18.7267 182.264 15.0173V14.7518C182.282 11.9221 183.3 9.16305 185.184 6.83602C187.068 4.50898 189.731 2.72246 192.824 1.71041C195.916 0.698357 199.294 0.507961 202.516 1.16416C205.737 1.82036 208.651 3.29256 210.877 5.38796C210.955 5.44485 210.993 5.49226 210.982 5.49226L211.077 5.59183L211.127 5.64399L211.188 5.70088L212.125 6.72023C212.202 6.77693 212.269 6.84234 212.325 6.91463C214.022 9.02818 215.011 11.4976 215.185 14.0564C215.36 16.6151 214.713 19.166 213.315 21.4337C211.917 23.7014 209.821 25.5997 207.253 26.9238C204.685 28.2479 201.742 28.9475 198.743 28.947V28.9423ZM207.62 7.94346C205.992 6.41806 203.864 5.34664 201.513 4.86853C199.162 4.39042 196.698 4.52774 194.44 5.26264C192.182 5.99754 190.235 7.296 188.852 8.98919C187.469 10.6824 186.714 12.692 186.686 14.7566V14.9794C186.766 17.6736 188.079 20.2335 190.343 22.1103C192.606 23.987 195.64 25.0311 198.794 25.0187C201.948 25.0063 204.971 23.9383 207.214 22.0439C209.457 20.1494 210.742 17.5793 210.794 14.8846C210.794 12.8271 210.067 10.8175 208.708 9.11929L207.709 8.04777L207.631 7.94821L207.62 7.94346Z" fill="#EAEAEA" fill-opacity="0.2"/>
<path d="M198.743 28.9423C194.401 28.9487 190.233 27.4886 187.147 24.8803C184.06 22.2719 182.305 18.7267 182.264 15.0173V14.7518C182.282 11.9221 183.3 9.16305 185.184 6.83602C187.068 4.50898 189.731 2.72246 192.824 1.71041C195.916 0.698357 199.294 0.507961 202.516 1.16416C205.737 1.82036 208.651 3.29256 210.877 5.38796C210.955 5.44485 210.993 5.49226 210.982 5.49226L211.077 5.59183L211.127 5.64399L211.188 5.70088L212.125 6.72023C212.202 6.77693 212.269 6.84234 212.325 6.91463C214.022 9.02818 215.011 11.4976 215.185 14.0564C215.36 16.6151 214.713 19.166 213.315 21.4337C211.917 23.7014 209.821 25.5997 207.253 26.9238C204.685 28.2479 201.742 28.9475 198.743 28.947V28.9423ZM207.62 7.94346C205.992 6.41806 203.864 5.34664 201.513 4.86853C199.162 4.39042 196.698 4.52774 194.44 5.26264C192.182 5.99754 190.235 7.296 188.852 8.98919C187.469 10.6824 186.714 12.692 186.686 14.7566V14.9794C186.766 17.6736 188.079 20.2335 190.343 22.1103C192.606 23.987 195.64 25.0311 198.794 25.0187C201.948 25.0063 204.971 23.9383 207.214 22.0439C209.457 20.1494 210.742 17.5793 210.794 14.8846C210.794 12.8271 210.067 10.8175 208.708 9.11929L207.709 8.04777L207.631 7.94821L207.62 7.94346Z" fill="#EAEAEA" fill-opacity="0.2"/>
<path d="M124.867 43.7461H73.8267C71.2926 43.7518 68.8645 44.6598 67.0753 46.2709C65.2861 47.8819 64.2819 50.0644 64.2832 52.3393V64.2133C64.2849 65.3844 64.5547 66.5427 65.0756 67.6164C65.5966 68.6901 66.3578 69.6563 67.3119 70.455L67.3745 70.5069C68.3668 71.3029 69.5211 71.9193 70.7739 72.3223L70.9328 72.3828C71.8669 72.65 72.8415 72.7856 73.8219 72.7848H91.3103C95.6518 72.7837 99.8826 74.0152 103.397 76.3032C106.912 78.5912 109.531 81.8185 110.879 85.5233C110.984 85.8252 111.18 86.0953 111.445 86.3042C111.71 86.513 112.034 86.6526 112.381 86.7077C112.432 86.7119 112.484 86.7119 112.535 86.7077H112.723C113.012 86.7068 113.297 86.6495 113.559 86.5398C113.821 86.4301 114.053 86.2705 114.24 86.0723L132.315 65.7996C133.688 64.2684 134.436 62.3618 134.434 60.3965V52.3393C134.435 51.211 134.188 50.0937 133.707 49.0511C133.227 48.0086 132.522 47.0612 131.634 46.2632C130.745 45.4652 129.69 44.8322 128.529 44.4003C127.368 43.9684 126.123 43.7461 124.867 43.7461ZM68.1016 56.3679V52.3393C68.1003 50.9796 68.6998 49.6749 69.7685 48.7115C70.8372 47.748 72.288 47.2044 73.8026 47.1998H124.867C126.382 47.2032 127.835 47.7462 128.906 48.7097C129.976 49.6732 130.577 50.9784 130.577 52.3393V60.4051C130.56 61.5817 130.106 62.7196 129.287 63.6384L113.248 81.633C111.242 77.94 108.12 74.8282 104.237 72.6535C100.354 70.4787 95.8676 69.3289 91.291 69.3354C91.0936 69.3354 90.9154 69.3354 90.6939 69.3354C90.609 69.33 90.5237 69.33 90.4387 69.3354H73.8026C73.2503 69.3321 72.7011 69.2608 72.1703 69.1236C71.3391 68.8649 70.5732 68.4609 69.9169 67.9349C69.3446 67.4606 68.8878 66.8851 68.5754 66.2446C68.263 65.6041 68.1017 64.9125 68.1016 64.2133V56.7915C68.1156 56.7303 68.1237 56.6681 68.1256 56.6056C68.1269 56.5258 68.1188 56.4461 68.1016 56.3679Z" fill="#EAEAEA" fill-opacity="0.2"/>
<path d="M124.867 43.7461H73.8267C71.2926 43.7518 68.8645 44.6598 67.0753 46.2709C65.2861 47.8819 64.2819 50.0644 64.2832 52.3393V64.2133C64.2849 65.3844 64.5547 66.5427 65.0756 67.6164C65.5966 68.6901 66.3578 69.6563 67.3119 70.455L67.3745 70.5069C68.3668 71.3029 69.5211 71.9193 70.7739 72.3223L70.9328 72.3828C71.8669 72.65 72.8415 72.7856 73.8219 72.7848H91.3103C95.6518 72.7837 99.8826 74.0152 103.397 76.3032C106.912 78.5912 109.531 81.8185 110.879 85.5233C110.984 85.8252 111.18 86.0953 111.445 86.3042C111.71 86.513 112.034 86.6526 112.381 86.7077C112.432 86.7119 112.484 86.7119 112.535 86.7077H112.723C113.012 86.7068 113.297 86.6495 113.559 86.5398C113.821 86.4301 114.053 86.2705 114.24 86.0723L132.315 65.7996C133.688 64.2684 134.436 62.3618 134.434 60.3965V52.3393C134.435 51.211 134.188 50.0937 133.707 49.0511C133.227 48.0086 132.522 47.0612 131.634 46.2632C130.745 45.4652 129.69 44.8322 128.529 44.4003C127.368 43.9684 126.123 43.7461 124.867 43.7461ZM68.1016 56.3679V52.3393C68.1003 50.9796 68.6998 49.6749 69.7685 48.7115C70.8372 47.748 72.288 47.2044 73.8026 47.1998H124.867C126.382 47.2032 127.835 47.7462 128.906 48.7097C129.976 49.6732 130.577 50.9784 130.577 52.3393V60.4051C130.56 61.5817 130.106 62.7196 129.287 63.6384L113.248 81.633C111.242 77.94 108.12 74.8282 104.237 72.6535C100.354 70.4787 95.8676 69.3289 91.291 69.3354C91.0936 69.3354 90.9154 69.3354 90.6939 69.3354C90.609 69.33 90.5237 69.33 90.4387 69.3354H73.8026C73.2503 69.3321 72.7011 69.2608 72.1703 69.1236C71.3391 68.8649 70.5732 68.4609 69.9169 67.9349C69.3446 67.4606 68.8878 66.8851 68.5754 66.2446C68.263 65.6041 68.1017 64.9125 68.1016 64.2133V56.7915C68.1156 56.7303 68.1237 56.6681 68.1256 56.6056C68.1269 56.5258 68.1188 56.4461 68.1016 56.3679Z" fill="#EAEAEA" fill-opacity="0.2"/>
<path d="M87.6702 76.2123C83.3291 76.2058 79.161 77.6659 76.0743 80.2743C72.9875 82.8826 71.2324 86.4278 71.1914 90.1372V90.4027C71.2097 93.2324 72.2276 95.9915 74.1119 98.3185C75.9962 100.646 78.659 102.432 81.7515 103.444C84.844 104.456 88.2221 104.647 91.4434 103.99C94.6647 103.334 97.579 101.862 99.8047 99.7666C99.8823 99.7097 99.9212 99.6623 99.9101 99.6623L100.004 99.5627L100.054 99.5106L100.115 99.4537L101.053 98.4343C101.13 98.3776 101.197 98.3122 101.253 98.2399C102.95 96.1264 103.939 93.6569 104.113 91.0982C104.288 88.5394 103.641 85.9885 102.243 83.7208C100.845 81.4532 98.7488 79.5548 96.1806 78.2307C93.6124 76.9066 90.6697 76.207 87.6702 76.2075V76.2123ZM96.5477 97.2111C94.9193 98.7365 92.7914 99.8079 90.4407 100.286C88.0901 100.764 85.6255 100.627 83.3674 99.8919C81.1094 99.157 79.1623 97.8585 77.7794 96.1653C76.3965 94.4722 75.6419 92.4626 75.6135 90.398V90.1751C75.6941 87.481 77.0069 84.921 79.2704 83.0443C81.5339 81.1676 84.5679 80.1235 87.7218 80.1359C90.8757 80.1483 93.8983 81.2162 96.1415 83.1107C98.3847 85.0051 99.6699 87.5753 99.7214 90.2699C99.7219 92.3275 98.9947 94.3371 97.6352 96.0353L96.6365 97.1068L96.5588 97.2063L96.5477 97.2111Z" fill="#EAEAEA" fill-opacity="0.2"/>
<path d="M87.6702 76.2123C83.3291 76.2058 79.161 77.6659 76.0743 80.2743C72.9875 82.8826 71.2324 86.4278 71.1914 90.1372V90.4027C71.2097 93.2324 72.2276 95.9915 74.1119 98.3185C75.9962 100.646 78.659 102.432 81.7515 103.444C84.844 104.456 88.2221 104.647 91.4434 103.99C94.6647 103.334 97.579 101.862 99.8047 99.7666C99.8823 99.7097 99.9212 99.6623 99.9101 99.6623L100.004 99.5627L100.054 99.5106L100.115 99.4537L101.053 98.4343C101.13 98.3776 101.197 98.3122 101.253 98.2399C102.95 96.1264 103.939 93.6569 104.113 91.0982C104.288 88.5394 103.641 85.9885 102.243 83.7208C100.845 81.4532 98.7488 79.5548 96.1806 78.2307C93.6124 76.9066 90.6697 76.207 87.6702 76.2075V76.2123ZM96.5477 97.2111C94.9193 98.7365 92.7914 99.8079 90.4407 100.286C88.0901 100.764 85.6255 100.627 83.3674 99.8919C81.1094 99.157 79.1623 97.8585 77.7794 96.1653C76.3965 94.4722 75.6419 92.4626 75.6135 90.398V90.1751C75.6941 87.481 77.0069 84.921 79.2704 83.0443C81.5339 81.1676 84.5679 80.1235 87.7218 80.1359C90.8757 80.1483 93.8983 81.2162 96.1415 83.1107C98.3847 85.0051 99.6699 87.5753 99.7214 90.2699C99.7219 92.3275 98.9947 94.3371 97.6352 96.0353L96.6365 97.1068L96.5588 97.2063L96.5477 97.2111Z" fill="#EAEAEA" fill-opacity="0.2"/>
<path d="M55.1751 98.1677H3.74861C1.19527 98.1619 -1.25121 97.2438 -3.05397 95.6149C-4.85672 93.986 -5.86848 91.7793 -5.86719 89.4791V77.4731C-5.86545 76.289 -5.59368 75.1178 -5.06874 74.0321C-4.5438 72.9465 -3.77689 71.9696 -2.81555 71.162L-2.75248 71.1096C-1.75261 70.3047 -0.589575 69.6814 0.672721 69.274L0.832816 69.2128C1.77398 68.9426 2.75595 68.8055 3.74375 68.8063H21.3646C25.7391 68.8074 30.0019 67.5622 33.5433 65.2488C37.0847 62.9354 39.7232 59.6723 41.0814 55.9263C41.1878 55.621 41.3853 55.3479 41.6522 55.1367C41.9191 54.9255 42.2452 54.7844 42.595 54.7287C42.6467 54.7244 42.6986 54.7244 42.7503 54.7287H42.9395C43.2307 54.7296 43.5182 54.7875 43.7821 54.8985C44.046 55.0094 44.2799 55.1707 44.4677 55.3712L62.6805 75.8691C64.0633 77.4174 64.8166 79.3452 64.8152 81.3323V89.4791C64.8158 90.6199 64.5669 91.7496 64.0828 92.8037C63.5986 93.8579 62.8886 94.8157 61.9934 95.6226C61.0982 96.4295 60.0352 97.0696 58.8653 97.5063C57.6954 97.943 56.4415 98.1677 55.1751 98.1677ZM-2.0199 85.4057V89.4791C-2.0212 90.8539 -1.41717 92.173 -0.340335 93.1472C0.736505 94.1213 2.19826 94.671 3.72436 94.6757H55.1751C56.7025 94.6722 58.166 94.1232 59.2447 93.149C60.3233 92.1748 60.9291 90.855 60.9291 89.4791V81.3236C60.9116 80.1339 60.4541 78.9834 59.6289 78.0544L43.4683 59.8598C41.4477 63.5938 38.3013 66.7402 34.389 68.9391C30.4768 71.138 25.9565 72.3006 21.3452 72.294C21.1463 72.294 20.9668 72.294 20.7436 72.294C20.658 72.2995 20.5721 72.2995 20.4865 72.294H3.72436C3.16785 72.2974 2.61447 72.3695 2.07967 72.5082C1.24212 72.7698 0.470424 73.1783 -0.190856 73.7101C-0.767494 74.1896 -1.22769 74.7716 -1.54248 75.4192C-1.85726 76.0668 -2.01981 76.7661 -2.0199 77.4731V84.9774C-2.00573 85.0393 -1.9976 85.1021 -1.99564 85.1653C-1.99437 85.246 -2.00251 85.3265 -2.0199 85.4057Z" fill="#EAEAEA" fill-opacity="0.2"/>
<path d="M55.1751 98.1677H3.74861C1.19527 98.1619 -1.25121 97.2438 -3.05397 95.6149C-4.85672 93.986 -5.86848 91.7793 -5.86719 89.4791V77.4731C-5.86545 76.289 -5.59368 75.1178 -5.06874 74.0321C-4.5438 72.9465 -3.77689 71.9696 -2.81555 71.162L-2.75248 71.1096C-1.75261 70.3047 -0.589575 69.6814 0.672721 69.274L0.832816 69.2128C1.77398 68.9426 2.75595 68.8055 3.74375 68.8063H21.3646C25.7391 68.8074 30.0019 67.5622 33.5433 65.2488C37.0847 62.9354 39.7232 59.6723 41.0814 55.9263C41.1878 55.621 41.3853 55.3479 41.6522 55.1367C41.9191 54.9255 42.2452 54.7844 42.595 54.7287C42.6467 54.7244 42.6986 54.7244 42.7503 54.7287H42.9395C43.2307 54.7296 43.5182 54.7875 43.7821 54.8985C44.046 55.0094 44.2799 55.1707 44.4677 55.3712L62.6805 75.8691C64.0633 77.4174 64.8166 79.3452 64.8152 81.3323V89.4791C64.8158 90.6199 64.5669 91.7496 64.0828 92.8037C63.5986 93.8579 62.8886 94.8157 61.9934 95.6226C61.0982 96.4295 60.0352 97.0696 58.8653 97.5063C57.6954 97.943 56.4415 98.1677 55.1751 98.1677ZM-2.0199 85.4057V89.4791C-2.0212 90.8539 -1.41717 92.173 -0.340335 93.1472C0.736505 94.1213 2.19826 94.671 3.72436 94.6757H55.1751C56.7025 94.6722 58.166 94.1232 59.2447 93.149C60.3233 92.1748 60.9291 90.855 60.9291 89.4791V81.3236C60.9116 80.1339 60.4541 78.9834 59.6289 78.0544L43.4683 59.8598C41.4477 63.5938 38.3013 66.7402 34.389 68.9391C30.4768 71.138 25.9565 72.3006 21.3452 72.294C21.1463 72.294 20.9668 72.294 20.7436 72.294C20.658 72.2995 20.5721 72.2995 20.4865 72.294H3.72436C3.16785 72.2974 2.61447 72.3695 2.07967 72.5082C1.24212 72.7698 0.470424 73.1783 -0.190856 73.7101C-0.767494 74.1896 -1.22769 74.7716 -1.54248 75.4192C-1.85726 76.0668 -2.01981 76.7661 -2.0199 77.4731V84.9774C-2.00573 85.0393 -1.9976 85.1021 -1.99564 85.1653C-1.99437 85.246 -2.00251 85.3265 -2.0199 85.4057Z" fill="#EAEAEA" fill-opacity="0.2"/>
<path d="M18.3166 65.7012C14.0455 65.7078 9.94456 64.2229 6.90761 61.5704C3.87065 58.9178 2.14384 55.3125 2.10352 51.5403V51.2702C2.12151 48.3925 3.12302 45.5867 4.97691 43.2202C6.83079 40.8538 9.45062 39.037 12.4933 38.0077C15.5359 36.9785 18.8596 36.7849 22.0289 37.4522C25.1982 38.1196 28.0655 39.6167 30.2553 41.7476C30.3317 41.8055 30.3699 41.8537 30.359 41.8537L30.4518 41.955L30.5009 42.008L30.561 42.0659L31.4835 43.1025C31.5589 43.1601 31.6251 43.2267 31.68 43.3002C33.3495 45.4496 34.3226 47.9608 34.4943 50.563C34.666 53.1651 34.0298 55.7592 32.6544 58.0654C31.2789 60.3715 29.2165 62.302 26.6897 63.6486C24.1629 64.9951 21.2677 65.7065 18.3166 65.7061V65.7012ZM27.0509 44.3465C25.4487 42.7952 23.3551 41.7056 21.0424 41.2194C18.7296 40.7332 16.3048 40.8728 14.0831 41.6202C11.8615 42.3675 9.94582 43.688 8.58526 45.4099C7.22469 47.1318 6.48219 49.1754 6.45429 51.2751V51.5017C6.53358 54.2415 7.82522 56.8448 10.0522 58.7534C12.2792 60.6619 15.2643 61.7237 18.3673 61.7111C21.4703 61.6985 24.4441 60.6125 26.6512 58.6859C28.8582 56.7593 30.1226 54.1456 30.1734 51.4053C30.1738 49.3129 29.4584 47.2692 28.1208 45.5422L27.1382 44.4525L27.0618 44.3513L27.0509 44.3465Z" fill="#EAEAEA" fill-opacity="0.2"/>
<path d="M18.3166 65.7012C14.0455 65.7078 9.94456 64.2229 6.90761 61.5704C3.87065 58.9178 2.14384 55.3125 2.10352 51.5403V51.2702C2.12151 48.3925 3.12302 45.5867 4.97691 43.2202C6.83079 40.8538 9.45062 39.037 12.4933 38.0077C15.5359 36.9785 18.8596 36.7849 22.0289 37.4522C25.1982 38.1196 28.0655 39.6167 30.2553 41.7476C30.3317 41.8055 30.3699 41.8537 30.359 41.8537L30.4518 41.955L30.5009 42.008L30.561 42.0659L31.4835 43.1025C31.5589 43.1601 31.6251 43.2267 31.68 43.3002C33.3495 45.4496 34.3226 47.9608 34.4943 50.563C34.666 53.1651 34.0298 55.7592 32.6544 58.0654C31.2789 60.3715 29.2165 62.302 26.6897 63.6486C24.1629 64.9951 21.2677 65.7065 18.3166 65.7061V65.7012ZM27.0509 44.3465C25.4487 42.7952 23.3551 41.7056 21.0424 41.2194C18.7296 40.7332 16.3048 40.8728 14.0831 41.6202C11.8615 42.3675 9.94582 43.688 8.58526 45.4099C7.22469 47.1318 6.48219 49.1754 6.45429 51.2751V51.5017C6.53358 54.2415 7.82522 56.8448 10.0522 58.7534C12.2792 60.6619 15.2643 61.7237 18.3673 61.7111C21.4703 61.6985 24.4441 60.6125 26.6512 58.6859C28.8582 56.7593 30.1226 54.1456 30.1734 51.4053C30.1738 49.3129 29.4584 47.2692 28.1208 45.5422L27.1382 44.4525L27.0618 44.3513L27.0509 44.3465Z" fill="#EAEAEA" fill-opacity="0.2"/>
<path d="M252.119 83.894L251.935 129.467C251.932 131.73 252.934 133.901 254.721 135.505C256.507 137.108 258.933 138.012 261.465 138.019L274.681 138.061C275.984 138.064 277.275 137.827 278.471 137.366C279.668 136.905 280.746 136.228 281.639 135.379L281.697 135.324C282.586 134.44 283.277 133.412 283.73 132.295L283.798 132.153C284.098 131.32 284.253 130.45 284.256 129.575L284.319 113.96C284.333 110.083 285.719 106.31 288.278 103.179C290.838 100.049 294.439 97.7226 298.567 96.5321C298.904 96.4388 299.205 96.2648 299.439 96.029C299.672 95.7932 299.829 95.5047 299.891 95.1949C299.896 95.1492 299.896 95.1031 299.892 95.0574L299.892 94.8897C299.892 94.6316 299.83 94.3766 299.708 94.1424C299.587 93.9081 299.411 93.7002 299.191 93.5331L276.692 77.3212C274.993 76.0904 272.873 75.4161 270.686 75.4103L261.718 75.3817C260.462 75.3771 259.218 75.5937 258.055 76.0191C256.893 76.4444 255.836 77.0702 254.945 77.8607C254.054 78.6512 253.345 79.5909 252.86 80.6261C252.375 81.6613 252.123 82.7718 252.119 83.894ZM265.962 134.624L261.479 134.61C259.965 134.606 258.515 134.066 257.447 133.109C256.378 132.151 255.778 130.854 255.779 129.501L255.963 83.9063C255.972 82.5528 256.582 81.2577 257.658 80.3053C258.734 79.3528 260.189 78.8206 261.704 78.8255L270.681 78.8541C271.991 78.8738 273.256 79.2833 274.275 80.0179L294.246 94.403C290.128 96.1805 286.654 98.9577 284.219 102.417C281.785 105.876 280.489 109.878 280.479 113.964C280.479 114.141 280.478 114.3 280.477 114.498C280.471 114.573 280.47 114.65 280.476 114.725L280.416 129.58C280.411 130.073 280.329 130.563 280.175 131.037C279.884 131.778 279.431 132.46 278.843 133.044C278.313 133.554 277.671 133.96 276.957 134.236C276.243 134.513 275.473 134.654 274.695 134.652L266.434 134.626C266.366 134.613 266.297 134.606 266.227 134.604C266.138 134.602 266.05 134.609 265.962 134.624Z" fill="#EAEAEA" fill-opacity="0.2"/>
<path d="M252.119 83.894L251.935 129.467C251.932 131.73 252.934 133.901 254.721 135.505C256.507 137.108 258.933 138.012 261.465 138.019L274.681 138.061C275.984 138.064 277.275 137.827 278.471 137.366C279.668 136.905 280.746 136.228 281.639 135.379L281.697 135.324C282.586 134.44 283.277 133.412 283.73 132.295L283.798 132.153C284.098 131.32 284.253 130.45 284.256 129.575L284.319 113.96C284.333 110.083 285.719 106.31 288.278 103.179C290.838 100.049 294.439 97.7226 298.567 96.5321C298.904 96.4388 299.205 96.2648 299.439 96.029C299.672 95.7932 299.829 95.5047 299.891 95.1949C299.896 95.1492 299.896 95.1031 299.892 95.0574L299.892 94.8897C299.892 94.6316 299.83 94.3766 299.708 94.1424C299.587 93.9081 299.411 93.7002 299.191 93.5331L276.692 77.3212C274.993 76.0904 272.873 75.4161 270.686 75.4103L261.718 75.3817C260.462 75.3771 259.218 75.5937 258.055 76.0191C256.893 76.4444 255.836 77.0702 254.945 77.8607C254.054 78.6512 253.345 79.5909 252.86 80.6261C252.375 81.6613 252.123 82.7718 252.119 83.894ZM265.962 134.624L261.479 134.61C259.965 134.606 258.515 134.066 257.447 133.109C256.378 132.151 255.778 130.854 255.779 129.501L255.963 83.9063C255.972 82.5528 256.582 81.2577 257.658 80.3053C258.734 79.3528 260.189 78.8206 261.704 78.8255L270.681 78.8541C271.991 78.8738 273.256 79.2833 274.275 80.0179L294.246 94.403C290.128 96.1805 286.654 98.9577 284.219 102.417C281.785 105.876 280.489 109.878 280.479 113.964C280.479 114.141 280.478 114.3 280.477 114.498C280.471 114.573 280.47 114.65 280.476 114.725L280.416 129.58C280.411 130.073 280.329 130.563 280.175 131.037C279.884 131.778 279.431 132.46 278.843 133.044C278.313 133.554 277.671 133.96 276.957 134.236C276.243 134.513 275.473 134.654 274.695 134.652L266.434 134.626C266.366 134.613 266.297 134.606 266.227 134.604C266.138 134.602 266.05 134.609 265.962 134.624Z" fill="#EAEAEA" fill-opacity="0.2"/>
<path d="M288.066 116.847C288.043 120.679 289.681 124.363 292.622 127.097C295.564 129.83 299.57 131.392 303.769 131.442L304.069 131.443C307.272 131.437 310.399 130.549 313.04 128.894C315.68 127.239 317.712 124.895 318.868 122.17C320.025 119.444 320.253 116.463 319.521 113.617C318.79 110.772 317.134 108.194 314.77 106.222C314.706 106.154 314.653 106.119 314.653 106.129L314.54 106.045L314.481 106.001L314.417 105.947L313.267 105.116C313.203 105.048 313.129 104.988 313.047 104.939C310.661 103.433 307.87 102.552 304.974 102.388C302.078 102.225 299.189 102.786 296.617 104.012C294.045 105.238 291.889 107.081 290.381 109.343C288.873 111.605 288.071 114.2 288.061 116.847L288.066 116.847ZM311.866 109.088C313.587 110.53 314.792 112.412 315.325 114.489C315.858 116.565 315.693 118.74 314.853 120.73C314.014 122.721 312.537 124.435 310.615 125.649C308.694 126.863 306.417 127.522 304.08 127.54L303.827 127.539C300.778 127.458 297.885 126.29 295.769 124.286C293.653 122.281 292.482 119.599 292.507 116.816C292.533 114.032 293.752 111.368 295.905 109.395C298.057 107.422 300.971 106.297 304.021 106.261C306.35 106.268 308.622 106.918 310.539 108.124L311.748 109.009L311.861 109.078L311.866 109.088Z" fill="#EAEAEA" fill-opacity="0.2"/>
<path d="M288.066 116.847C288.043 120.679 289.681 124.363 292.622 127.097C295.564 129.83 299.57 131.392 303.769 131.442L304.069 131.443C307.272 131.437 310.399 130.549 313.04 128.894C315.68 127.239 317.712 124.895 318.868 122.17C320.025 119.444 320.253 116.463 319.521 113.617C318.79 110.772 317.134 108.194 314.77 106.222C314.706 106.154 314.653 106.119 314.653 106.129L314.54 106.045L314.481 106.001L314.417 105.947L313.267 105.116C313.203 105.048 313.129 104.988 313.047 104.939C310.661 103.433 307.87 102.552 304.974 102.388C302.078 102.225 299.189 102.786 296.617 104.012C294.045 105.238 291.889 107.081 290.381 109.343C288.873 111.605 288.071 114.2 288.061 116.847L288.066 116.847ZM311.866 109.088C313.587 110.53 314.792 112.412 315.325 114.489C315.858 116.565 315.693 118.74 314.853 120.73C314.014 122.721 312.537 124.435 310.615 125.649C308.694 126.863 306.417 127.522 304.08 127.54L303.827 127.539C300.778 127.458 297.885 126.29 295.769 124.286C293.653 122.281 292.482 119.599 292.507 116.816C292.533 114.032 293.752 111.368 295.905 109.395C298.057 107.422 300.971 106.297 304.021 106.261C306.35 106.268 308.622 106.918 310.539 108.124L311.748 109.009L311.861 109.078L311.866 109.088Z" fill="#EAEAEA" fill-opacity="0.2"/>
<path d="M52.4451 115.212L52.261 160.786C52.2582 163.048 53.2601 165.22 55.0468 166.823C56.8334 168.426 59.2589 169.33 61.791 169.337L75.007 169.38C76.3105 169.382 77.6007 169.145 78.7976 168.684C79.9945 168.223 81.0726 167.547 81.9651 166.697L82.023 166.642C82.9126 165.759 83.6029 164.73 84.0559 163.613L84.1239 163.471C84.4247 162.638 84.5791 161.768 84.5817 160.893L84.6448 145.278C84.6592 141.401 86.0452 137.628 88.6045 134.498C91.1637 131.367 94.7652 129.041 98.8936 127.85C99.2301 127.757 99.5314 127.583 99.7648 127.347C99.9982 127.111 100.155 126.823 100.217 126.513C100.222 126.467 100.222 126.421 100.218 126.376L100.219 126.208C100.219 125.95 100.156 125.695 100.035 125.461C99.9135 125.226 99.7368 125.018 99.5168 124.851L77.0181 108.639C75.3187 107.409 73.1993 106.734 71.0119 106.728L62.044 106.7C60.7883 106.695 59.5438 106.912 58.3816 107.337C57.2195 107.763 56.1626 108.388 55.2712 109.179C54.3798 109.969 53.6714 110.909 53.1865 111.944C52.7016 112.98 52.4497 114.09 52.4451 115.212ZM66.2887 165.942L61.8047 165.928C60.2914 165.924 58.8414 165.384 57.7729 164.427C56.7044 163.469 56.1046 162.172 56.1049 160.819L56.2892 115.224C56.2985 113.871 56.9081 112.576 57.9843 111.623C59.0605 110.671 60.5155 110.139 62.0301 110.144L71.0076 110.172C72.3171 110.192 73.5819 110.601 74.6016 111.336L94.5722 125.721C90.4546 127.499 86.9798 130.276 84.5453 133.735C82.1107 137.194 80.8147 141.196 80.8055 145.283C80.8048 145.459 80.8042 145.618 80.8034 145.816C80.797 145.892 80.7967 145.968 80.8024 146.044L80.7424 160.898C80.7367 161.391 80.6554 161.881 80.5008 162.355C80.2098 163.096 79.7574 163.778 79.1696 164.363C78.6396 164.872 77.9974 165.278 77.2834 165.554C76.5694 165.831 75.799 165.973 75.0207 165.97L66.7601 165.944C66.6921 165.931 66.6229 165.924 66.5534 165.922C66.4646 165.92 66.3758 165.927 66.2887 165.942Z" fill="#4EBA66" fill-opacity="0.3"/>
<path d="M88.3923 148.167C88.3695 151.998 90.0073 155.682 92.9486 158.416C95.89 161.15 99.8965 162.712 104.095 162.762L104.395 162.762C107.598 162.757 110.725 161.868 113.366 160.213C116.006 158.559 118.038 156.215 119.195 153.489C120.351 150.763 120.579 147.782 119.847 144.937C119.116 142.091 117.46 139.514 115.096 137.542C115.032 137.473 114.979 137.439 114.979 137.449L114.866 137.365L114.807 137.321L114.743 137.267L113.593 136.435C113.529 136.367 113.455 136.308 113.374 136.258C110.987 134.753 108.196 133.871 105.3 133.708C102.404 133.545 99.5148 134.106 96.9431 135.332C94.3714 136.557 92.2152 138.401 90.7073 140.663C89.1994 142.925 88.397 145.519 88.3869 148.167L88.3923 148.167ZM112.192 140.407C113.913 141.85 115.118 143.732 115.651 145.809C116.184 147.885 116.019 150.06 115.18 152.05C114.34 154.04 112.863 155.754 110.942 156.969C109.02 158.183 106.743 158.842 104.406 158.859L104.154 158.859C101.104 158.778 98.2116 157.61 96.0954 155.605C93.9792 153.601 92.8082 150.919 92.8335 148.135C92.8588 145.352 94.0784 142.688 96.2307 140.715C98.383 138.742 101.297 137.617 104.347 137.581C106.676 137.588 108.948 138.237 110.865 139.443L112.074 140.329L112.187 140.397L112.192 140.407Z" fill="#EAEAEA" fill-opacity="0.2"/>
<path d="M309.713 198.948L309.897 153.374C309.9 151.112 308.898 148.94 307.111 147.337C305.325 145.734 302.899 144.829 300.367 144.822L287.151 144.78C285.848 144.778 284.558 145.014 283.361 145.476C282.164 145.937 281.086 146.613 280.193 147.462L280.135 147.518C279.246 148.401 278.555 149.43 278.102 150.547L278.034 150.689C277.734 151.522 277.579 152.392 277.576 153.267L277.513 168.882C277.499 172.759 276.113 176.532 273.554 179.662C270.994 182.792 267.393 185.119 263.265 186.31C262.928 186.403 262.627 186.577 262.393 186.813C262.16 187.049 262.003 187.337 261.941 187.647C261.936 187.693 261.936 187.739 261.94 187.784L261.94 187.952C261.94 188.21 262.002 188.465 262.124 188.699C262.245 188.934 262.421 189.142 262.641 189.309L285.14 205.521C286.839 206.751 288.959 207.426 291.146 207.431L300.114 207.46C301.37 207.465 302.614 207.248 303.777 206.823C304.939 206.397 305.996 205.772 306.887 204.981C307.778 204.191 308.487 203.251 308.972 202.216C309.457 201.18 309.709 200.07 309.713 198.948ZM295.87 148.218L300.353 148.232C301.867 148.236 303.317 148.775 304.385 149.733C305.454 150.691 306.054 151.988 306.053 153.341L305.869 198.935C305.86 200.289 305.25 201.584 304.174 202.536C303.098 203.489 301.643 204.021 300.128 204.016L291.151 203.988C289.841 203.968 288.576 203.558 287.557 202.824L267.586 188.439C271.704 186.661 275.178 183.884 277.613 180.425C280.047 176.965 281.343 172.964 281.353 168.877C281.353 168.701 281.354 168.542 281.355 168.344C281.361 168.268 281.362 168.192 281.356 168.116L281.416 153.262C281.422 152.769 281.503 152.279 281.657 151.805C281.948 151.064 282.401 150.382 282.989 149.797C283.519 149.288 284.161 148.882 284.875 148.606C285.589 148.329 286.359 148.187 287.137 148.19L295.398 148.216C295.466 148.229 295.535 148.236 295.605 148.238C295.694 148.24 295.782 148.233 295.87 148.218Z" fill="#EAEAEA" fill-opacity="0.2"/>
<path d="M309.713 198.948L309.897 153.374C309.9 151.112 308.898 148.94 307.111 147.337C305.325 145.734 302.899 144.829 300.367 144.822L287.151 144.78C285.848 144.778 284.558 145.014 283.361 145.476C282.164 145.937 281.086 146.613 280.193 147.462L280.135 147.518C279.246 148.401 278.555 149.43 278.102 150.547L278.034 150.689C277.734 151.522 277.579 152.392 277.576 153.267L277.513 168.882C277.499 172.759 276.113 176.532 273.554 179.662C270.994 182.792 267.393 185.119 263.265 186.31C262.928 186.403 262.627 186.577 262.393 186.813C262.16 187.049 262.003 187.337 261.941 187.647C261.936 187.693 261.936 187.739 261.94 187.784L261.94 187.952C261.94 188.21 262.002 188.465 262.124 188.699C262.245 188.934 262.421 189.142 262.641 189.309L285.14 205.521C286.839 206.751 288.959 207.426 291.146 207.431L300.114 207.46C301.37 207.465 302.614 207.248 303.777 206.823C304.939 206.397 305.996 205.772 306.887 204.981C307.778 204.191 308.487 203.251 308.972 202.216C309.457 201.18 309.709 200.07 309.713 198.948ZM295.87 148.218L300.353 148.232C301.867 148.236 303.317 148.775 304.385 149.733C305.454 150.691 306.054 151.988 306.053 153.341L305.869 198.935C305.86 200.289 305.25 201.584 304.174 202.536C303.098 203.489 301.643 204.021 300.128 204.016L291.151 203.988C289.841 203.968 288.576 203.558 287.557 202.824L267.586 188.439C271.704 186.661 275.178 183.884 277.613 180.425C280.047 176.965 281.343 172.964 281.353 168.877C281.353 168.701 281.354 168.542 281.355 168.344C281.361 168.268 281.362 168.192 281.356 168.116L281.416 153.262C281.422 152.769 281.503 152.279 281.657 151.805C281.948 151.064 282.401 150.382 282.989 149.797C283.519 149.288 284.161 148.882 284.875 148.606C285.589 148.329 286.359 148.187 287.137 148.19L295.398 148.216C295.466 148.229 295.535 148.236 295.605 148.238C295.694 148.24 295.782 148.233 295.87 148.218Z" fill="#EAEAEA" fill-opacity="0.2"/>
<path d="M273.766 165.993C273.789 162.162 272.151 158.478 269.21 155.744C266.268 153.01 262.262 151.448 258.063 151.398L257.763 151.397C254.56 151.403 251.433 152.292 248.792 153.947C246.152 155.601 244.12 157.945 242.964 160.671C241.807 163.397 241.58 166.377 242.311 169.223C243.042 172.069 244.698 174.646 247.062 176.618C247.126 176.687 247.179 176.721 247.18 176.711L247.292 176.795L247.351 176.839L247.415 176.893L248.565 177.725C248.629 177.792 248.703 177.852 248.785 177.902C251.171 179.407 253.963 180.289 256.858 180.452C259.754 180.615 262.643 180.054 265.215 178.828C267.787 177.602 269.943 175.759 271.451 173.497C272.959 171.235 273.761 168.64 273.771 165.993L273.766 165.993ZM249.966 173.753C248.245 172.31 247.04 170.428 246.507 168.351C245.975 166.275 246.139 164.1 246.979 162.11C247.818 160.12 249.295 158.406 251.217 157.191C253.138 155.977 255.415 155.318 257.752 155.3L258.005 155.301C261.054 155.382 263.947 156.55 266.063 158.555C268.179 160.559 269.35 163.241 269.325 166.024C269.299 168.808 268.08 171.472 265.928 173.445C263.775 175.418 260.862 176.543 257.811 176.579C255.482 176.572 253.21 175.923 251.293 174.717L250.084 173.831L249.971 173.762L249.966 173.753Z" fill="#EAEAEA" fill-opacity="0.2"/>
<path d="M273.766 165.993C273.789 162.162 272.151 158.478 269.21 155.744C266.268 153.01 262.262 151.448 258.063 151.398L257.763 151.397C254.56 151.403 251.433 152.292 248.792 153.947C246.152 155.601 244.12 157.945 242.964 160.671C241.807 163.397 241.58 166.377 242.311 169.223C243.042 172.069 244.698 174.646 247.062 176.618C247.126 176.687 247.179 176.721 247.18 176.711L247.292 176.795L247.351 176.839L247.415 176.893L248.565 177.725C248.629 177.792 248.703 177.852 248.785 177.902C251.171 179.407 253.963 180.289 256.858 180.452C259.754 180.615 262.643 180.054 265.215 178.828C267.787 177.602 269.943 175.759 271.451 173.497C272.959 171.235 273.761 168.64 273.771 165.993L273.766 165.993ZM249.966 173.753C248.245 172.31 247.04 170.428 246.507 168.351C245.975 166.275 246.139 164.1 246.979 162.11C247.818 160.12 249.295 158.406 251.217 157.191C253.138 155.977 255.415 155.318 257.752 155.3L258.005 155.301C261.054 155.382 263.947 156.55 266.063 158.555C268.179 160.559 269.35 163.241 269.325 166.024C269.299 168.808 268.08 171.472 265.928 173.445C263.775 175.418 260.862 176.543 257.811 176.579C255.482 176.572 253.21 175.923 251.293 174.717L250.084 173.831L249.971 173.762L249.966 173.753Z" fill="#EAEAEA" fill-opacity="0.2"/>
</g>
</svg>
