<svg width="1440" height="631" viewBox="0 0 1440 631" fill="none" xmlns="http://www.w3.org/2000/svg">
<g opacity="0.5">
<path d="M662.708 24.6074H556.042C550.746 24.6194 545.672 26.517 541.933 29.8838C538.194 33.2507 536.095 37.8117 536.098 42.5659V67.3809C536.101 69.8284 536.665 72.2491 537.754 74.493C538.843 76.7369 540.433 78.756 542.427 80.4252L542.558 80.5336C544.632 82.1972 547.044 83.4854 549.662 84.3276L549.994 84.4541C551.947 85.0126 553.983 85.296 556.032 85.2942H592.58C601.654 85.2919 610.495 87.8656 617.841 92.6472C625.186 97.4288 630.659 104.173 633.476 111.916C633.696 112.547 634.106 113.111 634.66 113.548C635.213 113.984 635.89 114.276 636.615 114.391C636.722 114.4 636.83 114.4 636.937 114.391H637.33C637.934 114.389 638.53 114.269 639.077 114.04C639.625 113.811 640.11 113.477 640.499 113.063L678.275 70.6961C681.143 67.4961 682.706 63.5116 682.703 59.4043V42.5659C682.704 40.208 682.188 37.873 681.184 35.6942C680.18 33.5154 678.707 31.5356 676.85 29.8679C674.993 28.2002 672.789 26.8772 670.362 25.9746C667.936 25.072 665.335 24.6074 662.708 24.6074ZM544.077 50.9851V42.5659C544.075 39.7244 545.328 36.9979 547.561 34.9844C549.795 32.9708 552.827 31.8347 555.992 31.8252H662.708C665.876 31.8323 668.912 32.9671 671.149 34.9806C673.386 36.9941 674.643 39.722 674.643 42.5659V59.4224C674.606 61.8814 673.657 64.2593 671.946 66.1794L638.427 103.786C634.235 96.0678 627.709 89.5646 619.595 85.0197C611.48 80.4749 602.104 78.0718 592.54 78.0855C592.127 78.0855 591.755 78.0855 591.292 78.0855C591.115 78.0741 590.936 78.0741 590.759 78.0855H555.992C554.838 78.0785 553.69 77.9296 552.581 77.6429C550.843 77.1022 549.243 76.2579 547.871 75.1587C546.675 74.1675 545.721 72.9647 545.068 71.6261C544.415 70.2875 544.078 68.8422 544.077 67.3809V51.8704C544.107 51.7425 544.124 51.6125 544.128 51.482C544.13 51.3152 544.114 51.1487 544.077 50.9851Z" fill="#EAEAEA" fill-opacity="0.2"/>
<path d="M662.708 24.6074H556.042C550.746 24.6194 545.672 26.517 541.933 29.8838C538.194 33.2507 536.095 37.8117 536.098 42.5659V67.3809C536.101 69.8284 536.665 72.2491 537.754 74.493C538.843 76.7369 540.433 78.756 542.427 80.4252L542.558 80.5336C544.632 82.1972 547.044 83.4854 549.662 84.3276L549.994 84.4541C551.947 85.0126 553.983 85.296 556.032 85.2942H592.58C601.654 85.2919 610.495 87.8656 617.841 92.6472C625.186 97.4288 630.659 104.173 633.476 111.916C633.696 112.547 634.106 113.111 634.66 113.548C635.213 113.984 635.89 114.276 636.615 114.391C636.722 114.4 636.83 114.4 636.937 114.391H637.33C637.934 114.389 638.53 114.269 639.077 114.04C639.625 113.811 640.11 113.477 640.499 113.063L678.275 70.6961C681.143 67.4961 682.706 63.5116 682.703 59.4043V42.5659C682.704 40.208 682.188 37.873 681.184 35.6942C680.18 33.5154 678.707 31.5356 676.85 29.8679C674.993 28.2002 672.789 26.8772 670.362 25.9746C667.936 25.072 665.335 24.6074 662.708 24.6074ZM544.077 50.9851V42.5659C544.075 39.7244 545.328 36.9979 547.561 34.9844C549.795 32.9708 552.827 31.8347 555.992 31.8252H662.708C665.876 31.8323 668.912 32.9671 671.149 34.9806C673.386 36.9941 674.643 39.722 674.643 42.5659V59.4224C674.606 61.8814 673.657 64.2593 671.946 66.1794L638.427 103.786C634.235 96.0678 627.709 89.5646 619.595 85.0197C611.48 80.4749 602.104 78.0718 592.54 78.0855C592.127 78.0855 591.755 78.0855 591.292 78.0855C591.115 78.0741 590.936 78.0741 590.759 78.0855H555.992C554.838 78.0785 553.69 77.9296 552.581 77.6429C550.843 77.1022 549.243 76.2579 547.871 75.1587C546.675 74.1675 545.721 72.9647 545.068 71.6261C544.415 70.2875 544.078 68.8422 544.077 67.3809V51.8704C544.107 51.7425 544.124 51.6125 544.128 51.482C544.13 51.3152 544.114 51.1487 544.077 50.9851Z" fill="#EAEAEA" fill-opacity="0.2"/>
<path d="M585.529 81.4617C576.603 81.4481 568.033 84.5512 561.686 90.0946C555.34 95.6381 551.731 103.173 551.646 111.056V111.62C551.684 117.634 553.777 123.498 557.651 128.444C561.526 133.389 567.001 137.186 573.36 139.337C579.718 141.488 586.664 141.893 593.288 140.498C599.911 139.103 605.903 135.975 610.48 131.521C610.639 131.4 610.719 131.3 610.696 131.3L610.89 131.088L610.993 130.977L611.118 130.856L613.046 128.69C613.204 128.569 613.342 128.43 613.457 128.277C616.946 123.785 618.98 118.537 619.339 113.099C619.697 107.66 618.368 102.239 615.493 97.4196C612.619 92.6001 608.309 88.5656 603.028 85.7515C597.747 82.9374 591.697 81.4506 585.529 81.4517V81.4617ZM603.783 126.09C600.434 129.332 596.059 131.609 591.226 132.625C586.393 133.641 581.325 133.349 576.682 131.788C572.039 130.226 568.036 127.466 565.192 123.868C562.349 120.269 560.797 115.998 560.739 111.61V111.137C560.905 105.411 563.604 99.9703 568.258 95.9817C572.912 91.9931 579.151 89.7741 585.635 89.8005C592.12 89.8269 598.335 92.0965 602.948 96.1228C607.56 100.149 610.202 105.611 610.308 111.338C610.309 115.711 608.814 119.982 606.019 123.591L603.965 125.868L603.806 126.08L603.783 126.09Z" fill="#00589B" fill-opacity="0.3"/>
<path d="M410.599 141.312H517.264C522.56 141.324 527.635 143.179 531.374 146.471C535.113 149.763 537.212 154.223 537.209 158.871V183.135C537.205 185.528 536.642 187.895 535.553 190.089C534.464 192.283 532.873 194.257 530.879 195.889L530.749 195.995C528.675 197.622 526.262 198.882 523.644 199.705L523.312 199.829C521.36 200.375 519.323 200.652 517.275 200.65H480.726C471.653 200.648 462.811 203.164 455.466 207.84C448.121 212.515 442.648 219.11 439.831 226.68C439.61 227.297 439.201 227.849 438.647 228.276C438.093 228.703 437.417 228.988 436.691 229.1C436.584 229.109 436.477 229.109 436.369 229.1H435.977C435.373 229.098 434.777 228.981 434.229 228.757C433.682 228.533 433.197 228.207 432.807 227.802L395.031 186.376C392.163 183.248 390.601 179.352 390.604 175.336V158.871C390.602 156.566 391.119 154.283 392.123 152.152C393.127 150.022 394.6 148.086 396.457 146.456C398.313 144.825 400.518 143.531 402.945 142.649C405.371 141.766 407.972 141.312 410.599 141.312ZM529.229 167.104V158.871C529.232 156.093 527.979 153.427 525.746 151.458C523.512 149.49 520.48 148.379 517.315 148.369H410.599C407.431 148.376 404.395 149.486 402.158 151.455C399.92 153.423 398.664 156.091 398.664 158.871V175.353C398.7 177.758 399.649 180.083 401.361 181.96L434.88 218.731C439.071 211.184 445.597 204.826 453.712 200.382C461.826 195.938 471.202 193.588 480.767 193.602C481.179 193.602 481.552 193.602 482.014 193.602C482.192 193.59 482.37 193.59 482.548 193.602H517.315C518.469 193.595 519.617 193.449 520.726 193.169C522.463 192.64 524.064 191.815 525.435 190.74C526.631 189.771 527.586 188.595 528.239 187.286C528.892 185.977 529.229 184.564 529.229 183.135V167.969C529.2 167.844 529.183 167.717 529.179 167.589C529.176 167.426 529.193 167.263 529.229 167.104Z" fill="#00589B" fill-opacity="0.3"/>
<path d="M488.331 207.168C497.403 207.155 506.114 210.309 512.565 215.945C519.016 221.581 522.684 229.241 522.77 237.256V237.83C522.731 243.944 520.604 249.905 516.666 254.933C512.728 259.961 507.163 263.821 500.7 266.008C494.238 268.195 487.178 268.606 480.446 267.188C473.714 265.771 467.623 262.59 462.972 258.062C462.81 257.939 462.728 257.837 462.752 257.837L462.555 257.622L462.45 257.509L462.323 257.386L460.363 255.183C460.203 255.061 460.062 254.92 459.946 254.763C456.399 250.197 454.333 244.861 453.968 239.332C453.603 233.804 454.954 228.292 457.876 223.392C460.798 218.492 465.178 214.391 470.546 211.53C475.913 208.669 482.063 207.157 488.331 207.158V207.168ZM469.778 252.54C473.182 255.836 477.629 258.151 482.541 259.184C487.454 260.218 492.604 259.921 497.323 258.333C502.042 256.745 506.112 253.939 509.002 250.281C511.892 246.623 513.469 242.28 513.528 237.819V237.338C513.36 231.517 510.616 225.985 505.886 221.93C501.155 217.875 494.815 215.619 488.223 215.646C481.632 215.673 475.315 217.98 470.627 222.074C465.94 226.167 463.254 231.72 463.146 237.543C463.145 241.988 464.665 246.331 467.506 250L469.593 252.315L469.755 252.53L469.778 252.54Z" fill="#EAEAEA" fill-opacity="0.2"/>
<path d="M488.331 207.168C497.403 207.155 506.114 210.309 512.565 215.945C519.016 221.581 522.684 229.241 522.77 237.256V237.83C522.731 243.944 520.604 249.905 516.666 254.933C512.728 259.961 507.163 263.821 500.7 266.008C494.238 268.195 487.178 268.606 480.446 267.188C473.714 265.771 467.623 262.59 462.972 258.062C462.81 257.939 462.728 257.837 462.752 257.837L462.555 257.622L462.45 257.509L462.323 257.386L460.363 255.183C460.203 255.061 460.062 254.92 459.946 254.763C456.399 250.197 454.333 244.861 453.968 239.332C453.603 233.804 454.954 228.292 457.876 223.392C460.798 218.492 465.178 214.391 470.546 211.53C475.913 208.669 482.063 207.157 488.331 207.158V207.168ZM469.778 252.54C473.182 255.836 477.629 258.151 482.541 259.184C487.454 260.218 492.604 259.921 497.323 258.333C502.042 256.745 506.112 253.939 509.002 250.281C511.892 246.623 513.469 242.28 513.528 237.819V237.338C513.36 231.517 510.616 225.985 505.886 221.93C501.155 217.875 494.815 215.619 488.223 215.646C481.632 215.673 475.315 217.98 470.627 222.074C465.94 226.167 463.254 231.72 463.146 237.543C463.145 241.988 464.665 246.331 467.506 250L469.593 252.315L469.755 252.53L469.778 252.54Z" fill="#EAEAEA" fill-opacity="0.2"/>
<path d="M-7.00497 222.123H99.6609C104.957 222.135 110.031 224.011 113.77 227.341C117.51 230.67 119.608 235.181 119.605 239.882V264.421C119.602 266.842 119.038 269.235 117.949 271.454C116.861 273.673 115.27 275.67 113.276 277.321L113.145 277.428C111.071 279.073 108.659 280.347 106.041 281.18L105.709 281.305C103.757 281.857 101.72 282.137 99.671 282.136H63.1228C54.0496 282.133 45.2079 284.678 37.8625 289.407C30.5172 294.135 25.0446 300.805 22.2275 308.461C22.0067 309.085 21.5971 309.644 21.0435 310.075C20.4899 310.507 19.8135 310.795 19.0879 310.909C18.9808 310.918 18.873 310.918 18.7659 310.909H18.3735C17.7695 310.907 17.1731 310.789 16.6258 310.562C16.0785 310.335 15.5932 310.006 15.2037 309.596L-22.5722 267.7C-25.4403 264.535 -27.0027 260.595 -26.9998 256.533V239.882C-27.0011 237.55 -26.4849 235.241 -25.4807 233.087C-24.4764 230.932 -23.0038 228.974 -21.147 227.325C-19.2902 225.676 -17.0855 224.368 -14.659 223.475C-12.2324 222.582 -9.63158 222.123 -7.00497 222.123ZM111.626 248.208V239.882C111.628 237.072 110.376 234.376 108.142 232.385C105.908 230.394 102.877 229.27 99.7112 229.261H-7.00497C-10.173 229.268 -13.2085 230.39 -15.4458 232.381C-17.6831 234.372 -18.9395 237.07 -18.9395 239.882V256.551C-18.9033 258.983 -17.9543 261.334 -16.2426 263.233L17.2766 300.422C21.4677 292.79 27.9937 286.359 36.1083 281.864C44.223 277.37 53.5986 274.993 63.1631 275.007C63.5757 275.007 63.948 275.007 64.4109 275.007C64.5884 274.996 64.7667 274.996 64.9442 275.007H99.7112C100.866 275 102.013 274.853 103.123 274.569C104.86 274.035 106.46 273.2 107.832 272.113C109.028 271.132 109.983 269.943 110.635 268.619C111.288 267.296 111.625 265.866 111.626 264.421V249.083C111.596 248.957 111.579 248.828 111.575 248.699C111.573 248.534 111.59 248.369 111.626 248.208Z" fill="#EAEAEA" fill-opacity="0.2"/>
<path d="M-7.00497 222.123H99.6609C104.957 222.135 110.031 224.011 113.77 227.341C117.51 230.67 119.608 235.181 119.605 239.882V264.421C119.602 266.842 119.038 269.235 117.949 271.454C116.861 273.673 115.27 275.67 113.276 277.321L113.145 277.428C111.071 279.073 108.659 280.347 106.041 281.18L105.709 281.305C103.757 281.857 101.72 282.137 99.671 282.136H63.1228C54.0496 282.133 45.2079 284.678 37.8625 289.407C30.5172 294.135 25.0446 300.805 22.2275 308.461C22.0067 309.085 21.5971 309.644 21.0435 310.075C20.4899 310.507 19.8135 310.795 19.0879 310.909C18.9808 310.918 18.873 310.918 18.7659 310.909H18.3735C17.7695 310.907 17.1731 310.789 16.6258 310.562C16.0785 310.335 15.5932 310.006 15.2037 309.596L-22.5722 267.7C-25.4403 264.535 -27.0027 260.595 -26.9998 256.533V239.882C-27.0011 237.55 -26.4849 235.241 -25.4807 233.087C-24.4764 230.932 -23.0038 228.974 -21.147 227.325C-19.2902 225.676 -17.0855 224.368 -14.659 223.475C-12.2324 222.582 -9.63158 222.123 -7.00497 222.123ZM111.626 248.208V239.882C111.628 237.072 110.376 234.376 108.142 232.385C105.908 230.394 102.877 229.27 99.7112 229.261H-7.00497C-10.173 229.268 -13.2085 230.39 -15.4458 232.381C-17.6831 234.372 -18.9395 237.07 -18.9395 239.882V256.551C-18.9033 258.983 -17.9543 261.334 -16.2426 263.233L17.2766 300.422C21.4677 292.79 27.9937 286.359 36.1083 281.864C44.223 277.37 53.5986 274.993 63.1631 275.007C63.5757 275.007 63.948 275.007 64.4109 275.007C64.5884 274.996 64.7667 274.996 64.9442 275.007H99.7112C100.866 275 102.013 274.853 103.123 274.569C104.86 274.035 106.46 273.2 107.832 272.113C109.028 271.132 109.983 269.943 110.635 268.619C111.288 267.296 111.625 265.866 111.626 264.421V249.083C111.596 248.957 111.579 248.828 111.575 248.699C111.573 248.534 111.59 248.369 111.626 248.208Z" fill="#EAEAEA" fill-opacity="0.2"/>
<path d="M70.7276 288.977C79.8 288.963 88.5107 292.015 94.9616 297.466C101.412 302.917 105.08 310.326 105.166 318.078V318.633C105.128 324.546 103 330.313 99.0626 335.176C95.1247 340.039 89.5599 343.772 83.097 345.887C76.634 348.003 69.5743 348.4 62.8422 347.029C56.1102 345.658 50.0197 342.581 45.3685 338.202C45.2061 338.083 45.125 337.984 45.1481 337.984L44.951 337.776L44.8467 337.667L44.7191 337.548L42.7595 335.418C42.5993 335.299 42.4588 335.162 42.342 335.011C38.796 330.594 36.729 325.434 36.3643 320.086C35.9996 314.739 37.3509 309.408 40.2725 304.669C43.1941 299.929 47.575 295.962 52.9422 293.195C58.3094 290.428 64.4592 288.966 70.7276 288.967V288.977ZM52.175 332.861C55.5782 336.049 60.0252 338.288 64.9377 339.287C69.8502 340.287 75.0008 340 79.7199 338.464C84.4389 336.928 88.5081 334.214 91.398 330.676C94.288 327.137 95.8652 322.938 95.9245 318.623V318.157C95.756 312.527 93.0125 307.177 88.282 303.255C83.5516 299.333 77.211 297.151 70.6199 297.176C64.0288 297.202 57.7119 299.434 53.024 303.393C48.336 307.353 45.6502 312.724 45.5424 318.355C45.5415 322.655 47.0611 326.855 49.9022 330.404L51.9894 332.643L52.1518 332.851L52.175 332.861Z" fill="#4EBA66" fill-opacity="0.3"/>
<path d="M263.034 268.016H370.508C375.844 268.004 380.957 266.107 384.724 262.74C388.492 259.373 390.606 254.812 390.604 250.058V225.243C390.6 222.795 390.032 220.374 388.935 218.131C387.838 215.887 386.235 213.868 384.226 212.198L384.094 212.09C382.005 210.426 379.574 209.138 376.936 208.296L376.601 208.169C374.635 207.611 372.582 207.328 370.518 207.329H333.693C324.551 207.332 315.642 204.758 308.241 199.976C300.84 195.195 295.326 188.45 292.488 180.708C292.265 180.077 291.853 179.512 291.295 179.076C290.737 178.639 290.056 178.348 289.324 178.233C289.217 178.224 289.108 178.224 289 178.233H288.605C287.996 178.234 287.395 178.354 286.844 178.583C286.292 178.813 285.803 179.146 285.411 179.56L247.349 221.927C244.459 225.127 242.885 229.112 242.888 233.219V250.058C242.886 252.416 243.406 254.751 244.418 256.929C245.43 259.108 246.914 261.088 248.785 262.756C250.656 264.423 252.877 265.746 255.322 266.649C257.767 267.552 260.387 268.016 263.034 268.016ZM382.563 241.638V250.058C382.566 252.899 381.304 255.626 379.053 257.639C376.803 259.653 373.748 260.789 370.559 260.798H263.034C259.842 260.791 256.783 259.656 254.529 257.643C252.275 255.629 251.009 252.902 251.009 250.058V233.201C251.045 230.742 252.002 228.364 253.726 226.444L287.499 188.838C291.722 196.556 298.298 203.059 306.474 207.604C314.65 212.149 324.097 214.552 333.734 214.538C334.149 214.538 334.524 214.538 334.991 214.538C335.17 214.549 335.349 214.549 335.528 214.538H370.559C371.722 214.545 372.878 214.694 373.996 214.981C375.746 215.521 377.359 216.366 378.741 217.465C379.946 218.456 380.908 219.659 381.565 220.997C382.223 222.336 382.563 223.781 382.563 225.243V240.753C382.534 240.881 382.517 241.011 382.513 241.142C382.51 241.308 382.527 241.475 382.563 241.638Z" fill="#EAEAEA" fill-opacity="0.2"/>
<path d="M263.034 268.016H370.508C375.844 268.004 380.957 266.107 384.724 262.74C388.492 259.373 390.606 254.812 390.604 250.058V225.243C390.6 222.795 390.032 220.374 388.935 218.131C387.838 215.887 386.235 213.868 384.226 212.198L384.094 212.09C382.005 210.426 379.574 209.138 376.936 208.296L376.601 208.169C374.635 207.611 372.582 207.328 370.518 207.329H333.693C324.551 207.332 315.642 204.758 308.241 199.976C300.84 195.195 295.326 188.45 292.488 180.708C292.265 180.077 291.853 179.512 291.295 179.076C290.737 178.639 290.056 178.348 289.324 178.233C289.217 178.224 289.108 178.224 289 178.233H288.605C287.996 178.234 287.395 178.354 286.844 178.583C286.292 178.813 285.803 179.146 285.411 179.56L247.349 221.927C244.459 225.127 242.885 229.112 242.888 233.219V250.058C242.886 252.416 243.406 254.751 244.418 256.929C245.43 259.108 246.914 261.088 248.785 262.756C250.656 264.423 252.877 265.746 255.322 266.649C257.767 267.552 260.387 268.016 263.034 268.016ZM382.563 241.638V250.058C382.566 252.899 381.304 255.626 379.053 257.639C376.803 259.653 373.748 260.789 370.559 260.798H263.034C259.842 260.791 256.783 259.656 254.529 257.643C252.275 255.629 251.009 252.902 251.009 250.058V233.201C251.045 230.742 252.002 228.364 253.726 226.444L287.499 188.838C291.722 196.556 298.298 203.059 306.474 207.604C314.65 212.149 324.097 214.552 333.734 214.538C334.149 214.538 334.524 214.538 334.991 214.538C335.17 214.549 335.349 214.549 335.528 214.538H370.559C371.722 214.545 372.878 214.694 373.996 214.981C375.746 215.521 377.359 216.366 378.741 217.465C379.946 218.456 380.908 219.659 381.565 220.997C382.223 222.336 382.563 223.781 382.563 225.243V240.753C382.534 240.881 382.517 241.011 382.513 241.142C382.51 241.308 382.527 241.475 382.563 241.638Z" fill="#EAEAEA" fill-opacity="0.2"/>
<path d="M340.616 200.164C349.689 200.178 358.399 197.126 364.85 191.675C371.301 186.224 374.969 178.815 375.055 171.063V170.508C375.016 164.595 372.889 158.829 368.951 153.966C365.013 149.102 359.449 145.369 352.986 143.254C346.523 141.139 339.463 140.741 332.731 142.112C325.999 143.484 319.908 146.56 315.257 150.939C315.095 151.058 315.014 151.157 315.037 151.157L314.84 151.365L314.735 151.474L314.608 151.593L312.648 153.724C312.488 153.842 312.347 153.979 312.231 154.13C308.685 158.547 306.618 163.708 306.253 169.055C305.888 174.402 307.24 179.733 310.161 184.473C313.083 189.212 317.464 193.179 322.831 195.946C328.198 198.713 334.348 200.175 340.616 200.174V200.164ZM322.064 156.28C325.467 153.092 329.914 150.853 334.826 149.854C339.739 148.855 344.89 149.142 349.609 150.677C354.328 152.213 358.397 154.927 361.287 158.465C364.177 162.004 365.754 166.204 365.813 170.518V170.984C365.645 176.614 362.901 181.964 358.171 185.886C353.44 189.809 347.1 191.991 340.509 191.965C333.917 191.939 327.601 189.707 322.913 185.748C318.225 181.789 315.539 176.417 315.431 170.786C315.43 166.486 316.95 162.286 319.791 158.737L321.878 156.498L322.04 156.29L322.064 156.28Z" fill="#EAEAEA" fill-opacity="0.2"/>
<path d="M340.616 200.164C349.689 200.178 358.399 197.126 364.85 191.675C371.301 186.224 374.969 178.815 375.055 171.063V170.508C375.016 164.595 372.889 158.829 368.951 153.966C365.013 149.102 359.449 145.369 352.986 143.254C346.523 141.139 339.463 140.741 332.731 142.112C325.999 143.484 319.908 146.56 315.257 150.939C315.095 151.058 315.014 151.157 315.037 151.157L314.84 151.365L314.735 151.474L314.608 151.593L312.648 153.724C312.488 153.842 312.347 153.979 312.231 154.13C308.685 158.547 306.618 163.708 306.253 169.055C305.888 174.402 307.24 179.733 310.161 184.473C313.083 189.212 317.464 193.179 322.831 195.946C328.198 198.713 334.348 200.175 340.616 200.174V200.164ZM322.064 156.28C325.467 153.092 329.914 150.853 334.826 149.854C339.739 148.855 344.89 149.142 349.609 150.677C354.328 152.213 358.397 154.927 361.287 158.465C364.177 162.004 365.754 166.204 365.813 170.518V170.984C365.645 176.614 362.901 181.964 358.171 185.886C353.44 189.809 347.1 191.991 340.509 191.965C333.917 191.939 327.601 189.707 322.913 185.748C318.225 181.789 315.539 176.417 315.431 170.786C315.43 166.486 316.95 162.286 319.791 158.737L321.878 156.498L322.04 156.29L322.064 156.28Z" fill="#EAEAEA" fill-opacity="0.2"/>
<path d="M517.214 127.344H410.548C405.252 127.332 400.178 125.435 396.439 122.068C392.699 118.701 390.601 114.14 390.604 109.386V84.5709C390.607 82.1234 391.171 79.7027 392.26 77.4588C393.348 75.2149 394.939 73.1958 396.933 71.5266L397.064 71.4182C399.138 69.7546 401.55 68.4664 404.168 67.6242L404.5 67.4977C406.452 66.9393 408.489 66.6559 410.538 66.6576H447.086C456.159 66.6599 465.001 64.0862 472.346 59.3047C479.692 54.5231 485.164 47.7786 487.981 40.0361C488.202 39.405 488.612 38.8406 489.165 38.4041C489.719 37.9677 490.396 37.676 491.121 37.5609C491.228 37.552 491.336 37.552 491.443 37.5609H491.836C492.44 37.5627 493.036 37.6824 493.583 37.9117C494.131 38.141 494.616 38.4744 495.005 38.8888L532.781 81.2556C535.649 84.4557 537.212 88.4402 537.209 92.5474V109.386C537.21 111.744 536.694 114.079 535.69 116.257C534.685 118.436 533.213 120.416 531.356 122.084C529.499 123.751 527.295 125.074 524.868 125.977C522.441 126.88 519.841 127.344 517.214 127.344ZM398.583 100.967V109.386C398.581 112.227 399.833 114.954 402.067 116.967C404.301 118.981 407.332 120.117 410.498 120.127H517.214C520.382 120.119 523.418 118.985 525.655 116.971C527.892 114.958 529.148 112.23 529.148 109.386V92.5294C529.112 90.0704 528.163 87.6925 526.452 85.7724L492.932 48.1662C488.741 55.884 482.215 62.3872 474.101 66.9321C465.986 71.477 456.61 73.88 447.046 73.8663C446.633 73.8663 446.261 73.8663 445.798 73.8663C445.621 73.8777 445.442 73.8777 445.265 73.8663H410.498C409.343 73.8733 408.196 74.0222 407.086 74.3089C405.349 74.8496 403.749 75.6939 402.377 76.7931C401.181 77.7843 400.226 78.9871 399.574 80.3257C398.921 81.6642 398.584 83.1096 398.583 84.5709V100.081C398.613 100.209 398.63 100.339 398.634 100.47C398.636 100.636 398.619 100.803 398.583 100.967Z" fill="#EAEAEA" fill-opacity="0.2"/>
<path d="M517.214 127.344H410.548C405.252 127.332 400.178 125.435 396.439 122.068C392.699 118.701 390.601 114.14 390.604 109.386V84.5709C390.607 82.1234 391.171 79.7027 392.26 77.4588C393.348 75.2149 394.939 73.1958 396.933 71.5266L397.064 71.4182C399.138 69.7546 401.55 68.4664 404.168 67.6242L404.5 67.4977C406.452 66.9393 408.489 66.6559 410.538 66.6576H447.086C456.159 66.6599 465.001 64.0862 472.346 59.3047C479.692 54.5231 485.164 47.7786 487.981 40.0361C488.202 39.405 488.612 38.8406 489.165 38.4041C489.719 37.9677 490.396 37.676 491.121 37.5609C491.228 37.552 491.336 37.552 491.443 37.5609H491.836C492.44 37.5627 493.036 37.6824 493.583 37.9117C494.131 38.141 494.616 38.4744 495.005 38.8888L532.781 81.2556C535.649 84.4557 537.212 88.4402 537.209 92.5474V109.386C537.21 111.744 536.694 114.079 535.69 116.257C534.685 118.436 533.213 120.416 531.356 122.084C529.499 123.751 527.295 125.074 524.868 125.977C522.441 126.88 519.841 127.344 517.214 127.344ZM398.583 100.967V109.386C398.581 112.227 399.833 114.954 402.067 116.967C404.301 118.981 407.332 120.117 410.498 120.127H517.214C520.382 120.119 523.418 118.985 525.655 116.971C527.892 114.958 529.148 112.23 529.148 109.386V92.5294C529.112 90.0704 528.163 87.6925 526.452 85.7724L492.932 48.1662C488.741 55.884 482.215 62.3872 474.101 66.9321C465.986 71.477 456.61 73.88 447.046 73.8663C446.633 73.8663 446.261 73.8663 445.798 73.8663C445.621 73.8777 445.442 73.8777 445.265 73.8663H410.498C409.343 73.8733 408.196 74.0222 407.086 74.3089C405.349 74.8496 403.749 75.6939 402.377 76.7931C401.181 77.7843 400.226 78.9871 399.574 80.3257C398.921 81.6642 398.584 83.1096 398.583 84.5709V100.081C398.613 100.209 398.63 100.339 398.634 100.47C398.636 100.636 398.619 100.803 398.583 100.967Z" fill="#EAEAEA" fill-opacity="0.2"/>
<path d="M440.591 59.493C431.518 59.5064 422.808 56.4551 416.357 51.004C409.906 45.5529 406.238 38.144 406.152 30.3919V29.8371C406.191 23.9233 408.318 18.1573 412.256 13.2941C416.194 8.43097 421.758 4.6974 428.221 2.58236C434.684 0.467312 441.744 0.0694122 448.476 1.44078C455.208 2.81214 461.299 5.88882 465.95 10.2679C466.112 10.3868 466.193 10.4859 466.17 10.4859L466.367 10.694L466.472 10.803L466.599 10.9219L468.559 13.0522C468.719 13.1707 468.86 13.3073 468.976 13.4584C472.522 17.8754 474.589 23.0362 474.954 28.3836C475.319 33.731 473.967 39.062 471.046 43.8012C468.124 48.5403 463.743 52.5076 458.376 55.2748C453.009 58.0419 446.859 59.5039 440.591 59.5029V59.493ZM459.143 15.6085C455.74 12.4207 451.293 10.1816 446.381 9.18238C441.468 8.1832 436.318 8.47017 431.598 10.006C426.879 11.5418 422.81 14.2554 419.92 17.794C417.03 21.3325 415.453 25.5322 415.394 29.847V30.3126C415.562 35.9431 418.306 41.293 423.036 45.2151C427.767 49.1372 434.107 51.3192 440.698 51.2933C447.29 51.2673 453.606 49.0355 458.294 45.0764C462.982 41.1172 465.668 35.746 465.776 30.1145C465.777 25.8146 464.257 21.6148 461.416 18.0658L459.329 15.8265L459.167 15.6184L459.143 15.6085Z" fill="#EAEAEA" fill-opacity="0.2"/>
<path d="M440.591 59.493C431.518 59.5064 422.808 56.4551 416.357 51.004C409.906 45.5529 406.238 38.144 406.152 30.3919V29.8371C406.191 23.9233 408.318 18.1573 412.256 13.2941C416.194 8.43097 421.758 4.6974 428.221 2.58236C434.684 0.467312 441.744 0.0694122 448.476 1.44078C455.208 2.81214 461.299 5.88882 465.95 10.2679C466.112 10.3868 466.193 10.4859 466.17 10.4859L466.367 10.694L466.472 10.803L466.599 10.9219L468.559 13.0522C468.719 13.1707 468.86 13.3073 468.976 13.4584C472.522 17.8754 474.589 23.0362 474.954 28.3836C475.319 33.731 473.967 39.062 471.046 43.8012C468.124 48.5403 463.743 52.5076 458.376 55.2748C453.009 58.0419 446.859 59.5039 440.591 59.5029V59.493ZM459.143 15.6085C455.74 12.4207 451.293 10.1816 446.381 9.18238C441.468 8.1832 436.318 8.47017 431.598 10.006C426.879 11.5418 422.81 14.2554 419.92 17.794C417.03 21.3325 415.453 25.5322 415.394 29.847V30.3126C415.562 35.9431 418.306 41.293 423.036 45.2151C427.767 49.1372 434.107 51.3192 440.698 51.2933C447.29 51.2673 453.606 49.0355 458.294 45.0764C462.982 41.1172 465.668 35.746 465.776 30.1145C465.777 25.8146 464.257 21.6148 461.416 18.0658L459.329 15.8265L459.167 15.6184L459.143 15.6085Z" fill="#EAEAEA" fill-opacity="0.2"/>
<path d="M286.198 90.4307H179.532C174.236 90.4426 169.162 92.3402 165.423 95.7071C161.684 99.0739 159.585 103.635 159.588 108.389V133.204C159.591 135.652 160.155 138.072 161.244 140.316C162.333 142.56 163.923 144.579 165.917 146.248L166.048 146.357C168.122 148.02 170.534 149.309 173.153 150.151L173.485 150.277C175.437 150.836 177.474 151.119 179.522 151.117H216.071C225.144 151.115 233.986 153.689 241.331 158.47C248.676 163.252 254.149 169.996 256.966 177.739C257.187 178.37 257.596 178.934 258.15 179.371C258.703 179.807 259.38 180.099 260.105 180.214C260.213 180.223 260.32 180.223 260.427 180.214H260.82C261.424 180.212 262.02 180.093 262.568 179.863C263.115 179.634 263.6 179.301 263.99 178.886L301.766 136.519C304.634 133.319 306.196 129.335 306.193 125.228V108.389C306.194 106.031 305.678 103.696 304.674 101.517C303.67 99.3387 302.197 97.3589 300.34 95.6911C298.484 94.0234 296.279 92.7004 293.852 91.7978C291.426 90.8952 288.825 90.4307 286.198 90.4307ZM167.568 116.808V108.389C167.565 105.548 168.818 102.821 171.051 100.808C173.285 98.7941 176.317 97.6579 179.482 97.6484H286.198C289.366 97.6556 292.402 98.7903 294.639 100.804C296.876 102.817 298.133 105.545 298.133 108.389V125.246C298.097 127.705 297.148 130.082 295.436 132.003L261.917 169.609C257.726 161.891 251.2 155.388 243.085 150.843C234.97 146.298 225.595 143.895 216.03 143.909C215.618 143.909 215.245 143.909 214.782 143.909C214.605 143.897 214.427 143.897 214.249 143.909H179.482C178.328 143.902 177.18 143.753 176.071 143.466C174.334 142.925 172.733 142.081 171.361 140.982C170.165 139.991 169.211 138.788 168.558 137.449C167.905 136.111 167.568 134.665 167.568 133.204V117.694C167.597 117.566 167.614 117.436 167.618 117.305C167.621 117.138 167.604 116.972 167.568 116.808Z" fill="#EAEAEA" fill-opacity="0.2"/>
<path d="M286.198 90.4307H179.532C174.236 90.4426 169.162 92.3402 165.423 95.7071C161.684 99.0739 159.585 103.635 159.588 108.389V133.204C159.591 135.652 160.155 138.072 161.244 140.316C162.333 142.56 163.923 144.579 165.917 146.248L166.048 146.357C168.122 148.02 170.534 149.309 173.153 150.151L173.485 150.277C175.437 150.836 177.474 151.119 179.522 151.117H216.071C225.144 151.115 233.986 153.689 241.331 158.47C248.676 163.252 254.149 169.996 256.966 177.739C257.187 178.37 257.596 178.934 258.15 179.371C258.703 179.807 259.38 180.099 260.105 180.214C260.213 180.223 260.32 180.223 260.427 180.214H260.82C261.424 180.212 262.02 180.093 262.568 179.863C263.115 179.634 263.6 179.301 263.99 178.886L301.766 136.519C304.634 133.319 306.196 129.335 306.193 125.228V108.389C306.194 106.031 305.678 103.696 304.674 101.517C303.67 99.3387 302.197 97.3589 300.34 95.6911C298.484 94.0234 296.279 92.7004 293.852 91.7978C291.426 90.8952 288.825 90.4307 286.198 90.4307ZM167.568 116.808V108.389C167.565 105.548 168.818 102.821 171.051 100.808C173.285 98.7941 176.317 97.6579 179.482 97.6484H286.198C289.366 97.6556 292.402 98.7903 294.639 100.804C296.876 102.817 298.133 105.545 298.133 108.389V125.246C298.097 127.705 297.148 130.082 295.436 132.003L261.917 169.609C257.726 161.891 251.2 155.388 243.085 150.843C234.97 146.298 225.595 143.895 216.03 143.909C215.618 143.909 215.245 143.909 214.782 143.909C214.605 143.897 214.427 143.897 214.249 143.909H179.482C178.328 143.902 177.18 143.753 176.071 143.466C174.334 142.925 172.733 142.081 171.361 140.982C170.165 139.991 169.211 138.788 168.558 137.449C167.905 136.111 167.568 134.665 167.568 133.204V117.694C167.597 117.566 167.614 117.436 167.618 117.305C167.621 117.138 167.604 116.972 167.568 116.808Z" fill="#EAEAEA" fill-opacity="0.2"/>
<path d="M208.466 158.282C199.393 158.269 190.683 161.32 184.232 166.771C177.781 172.222 174.113 179.631 174.027 187.383V187.938C174.066 193.852 176.193 199.618 180.131 204.481C184.069 209.344 189.633 213.078 196.096 215.193C202.559 217.308 209.619 217.706 216.351 216.334C223.083 214.963 229.174 211.886 233.825 207.507C233.987 207.388 234.068 207.289 234.045 207.289L234.242 207.081L234.347 206.972L234.474 206.853L236.434 204.723C236.594 204.604 236.735 204.468 236.851 204.317C240.397 199.9 242.464 194.739 242.829 189.392C243.194 184.044 241.842 178.713 238.921 173.974C235.999 169.235 231.618 165.268 226.251 162.5C220.884 159.733 214.734 158.271 208.466 158.272V158.282ZM227.018 202.167C223.615 205.354 219.168 207.594 214.256 208.593C209.343 209.592 204.193 209.305 199.473 207.769C194.754 206.233 190.685 203.52 187.795 199.981C184.905 196.443 183.328 192.243 183.269 187.928V187.462C183.437 181.832 186.181 176.482 190.911 172.56C195.642 168.638 201.982 166.456 208.573 166.482C215.165 166.508 221.481 168.74 226.169 172.699C230.857 176.658 233.543 182.029 233.651 187.661C233.652 191.961 232.132 196.16 229.291 199.709L227.204 201.949L227.042 202.157L227.018 202.167Z" fill="#EAEAEA" fill-opacity="0.2"/>
<path d="M208.466 158.282C199.393 158.269 190.683 161.32 184.232 166.771C177.781 172.222 174.113 179.631 174.027 187.383V187.938C174.066 193.852 176.193 199.618 180.131 204.481C184.069 209.344 189.633 213.078 196.096 215.193C202.559 217.308 209.619 217.706 216.351 216.334C223.083 214.963 229.174 211.886 233.825 207.507C233.987 207.388 234.068 207.289 234.045 207.289L234.242 207.081L234.347 206.972L234.474 206.853L236.434 204.723C236.594 204.604 236.735 204.468 236.851 204.317C240.397 199.9 242.464 194.739 242.829 189.392C243.194 184.044 241.842 178.713 238.921 173.974C235.999 169.235 231.618 165.268 226.251 162.5C220.884 159.733 214.734 158.271 208.466 158.272V158.282ZM227.018 202.167C223.615 205.354 219.168 207.594 214.256 208.593C209.343 209.592 204.193 209.305 199.473 207.769C194.754 206.233 190.685 203.52 187.795 199.981C184.905 196.443 183.328 192.243 183.269 187.928V187.462C183.437 181.832 186.181 176.482 190.911 172.56C195.642 168.638 201.982 166.456 208.573 166.482C215.165 166.508 221.481 168.74 226.169 172.699C230.857 176.658 233.543 182.029 233.651 187.661C233.652 191.961 232.132 196.16 229.291 199.709L227.204 201.949L227.042 202.157L227.018 202.167Z" fill="#EAEAEA" fill-opacity="0.2"/>
<path d="M140.552 204.165H33.078C27.7419 204.153 22.6291 202.234 18.8616 198.83C15.0941 195.426 12.9797 190.814 12.9824 186.007V160.916C12.9861 158.442 13.554 155.994 14.6511 153.725C15.7481 151.456 17.3508 149.415 19.3599 147.727L19.4917 147.617C21.5813 145.935 24.0119 144.633 26.6499 143.781L26.9845 143.653C28.9514 143.089 31.0035 142.802 33.0679 142.804H69.893C79.035 142.806 87.9437 140.204 95.3446 135.369C102.746 130.535 108.26 123.715 111.098 115.887C111.321 115.248 111.733 114.678 112.291 114.236C112.849 113.795 113.53 113.5 114.261 113.384C114.369 113.375 114.478 113.375 114.586 113.384H114.981C115.59 113.386 116.191 113.507 116.742 113.739C117.294 113.97 117.783 114.308 118.175 114.727L156.237 157.564C159.127 160.8 160.701 164.829 160.698 168.982V186.007C160.7 188.391 160.18 190.752 159.168 192.955C158.156 195.158 156.672 197.16 154.801 198.846C152.93 200.532 150.709 201.87 148.264 202.783C145.819 203.695 143.199 204.165 140.552 204.165ZM21.0227 177.494V186.007C21.02 188.88 22.2823 191.637 24.5327 193.673C26.7832 195.709 29.838 196.857 33.0274 196.867H140.552C143.744 196.86 146.803 195.712 149.057 193.677C151.311 191.641 152.577 188.883 152.577 186.007V168.963C152.541 166.477 151.584 164.073 149.86 162.131L116.086 124.107C111.864 131.911 105.288 138.486 97.1121 143.081C88.936 147.677 79.4893 150.107 69.8524 150.093C69.4367 150.093 69.0616 150.093 68.5952 150.093C68.4163 150.104 68.2367 150.104 68.0578 150.093H33.0274C31.8643 150.1 30.7079 150.25 29.5902 150.54C27.8399 151.087 26.2271 151.941 24.8451 153.052C23.64 154.054 22.6783 155.27 22.0204 156.624C21.3626 157.977 21.0229 159.439 21.0227 160.916V176.599C21.0523 176.728 21.0693 176.86 21.0734 176.992C21.076 177.16 21.059 177.329 21.0227 177.494Z" fill="#EAEAEA" fill-opacity="0.2"/>
<path d="M140.552 204.165H33.078C27.7419 204.153 22.6291 202.234 18.8616 198.83C15.0941 195.426 12.9797 190.814 12.9824 186.007V160.916C12.9861 158.442 13.554 155.994 14.6511 153.725C15.7481 151.456 17.3508 149.415 19.3599 147.727L19.4917 147.617C21.5813 145.935 24.0119 144.633 26.6499 143.781L26.9845 143.653C28.9514 143.089 31.0035 142.802 33.0679 142.804H69.893C79.035 142.806 87.9437 140.204 95.3446 135.369C102.746 130.535 108.26 123.715 111.098 115.887C111.321 115.248 111.733 114.678 112.291 114.236C112.849 113.795 113.53 113.5 114.261 113.384C114.369 113.375 114.478 113.375 114.586 113.384H114.981C115.59 113.386 116.191 113.507 116.742 113.739C117.294 113.97 117.783 114.308 118.175 114.727L156.237 157.564C159.127 160.8 160.701 164.829 160.698 168.982V186.007C160.7 188.391 160.18 190.752 159.168 192.955C158.156 195.158 156.672 197.16 154.801 198.846C152.93 200.532 150.709 201.87 148.264 202.783C145.819 203.695 143.199 204.165 140.552 204.165ZM21.0227 177.494V186.007C21.02 188.88 22.2823 191.637 24.5327 193.673C26.7832 195.709 29.838 196.857 33.0274 196.867H140.552C143.744 196.86 146.803 195.712 149.057 193.677C151.311 191.641 152.577 188.883 152.577 186.007V168.963C152.541 166.477 151.584 164.073 149.86 162.131L116.086 124.107C111.864 131.911 105.288 138.486 97.1121 143.081C88.936 147.677 79.4893 150.107 69.8524 150.093C69.4367 150.093 69.0616 150.093 68.5952 150.093C68.4163 150.104 68.2367 150.104 68.0578 150.093H33.0274C31.8643 150.1 30.7079 150.25 29.5902 150.54C27.8399 151.087 26.2271 151.941 24.8451 153.052C23.64 154.054 22.6783 155.27 22.0204 156.624C21.3626 157.977 21.0229 159.439 21.0227 160.916V176.599C21.0523 176.728 21.0693 176.86 21.0734 176.992C21.076 177.16 21.059 177.329 21.0227 177.494Z" fill="#EAEAEA" fill-opacity="0.2"/>
<path d="M63.5255 136.314C54.5995 136.327 46.0292 133.224 39.6824 127.681C33.3356 122.137 29.7269 114.603 29.6426 106.719V106.155C29.6802 100.141 31.7732 94.2772 35.6475 89.3316C39.5219 84.386 44.997 80.5892 51.3557 78.4383C57.7144 76.2874 64.6603 75.8827 71.2837 77.2773C77.9072 78.6719 83.8994 81.8008 88.4756 86.2541C88.6354 86.375 88.7152 86.4758 88.6924 86.4758L88.8864 86.6874L88.989 86.7982L89.1146 86.9191L91.0425 89.0856C91.2002 89.2061 91.3384 89.3451 91.4533 89.4987C94.9421 93.9906 96.9758 99.2388 97.3346 104.677C97.6934 110.115 96.3639 115.536 93.4894 120.356C90.615 125.175 86.3047 129.21 81.0241 132.024C75.7434 134.838 69.6929 136.325 63.5255 136.324V136.314ZM81.7789 91.6853C78.4306 88.4433 74.0553 86.1663 69.222 85.1502C64.3888 84.1341 59.3212 84.4259 54.6783 85.9878C50.0353 87.5496 46.0319 90.3092 43.1885 93.9077C40.3451 97.5062 38.7934 101.777 38.7351 106.165V106.639C38.9008 112.364 41.6001 117.805 46.2542 121.794C50.9084 125.782 57.1467 128.001 63.6315 127.975C70.1163 127.949 76.3313 125.679 80.9436 121.653C85.556 117.626 88.1985 112.164 88.3045 106.437C88.3055 102.064 86.8103 97.7933 84.015 94.1842L81.9615 91.9069L81.8018 91.6953L81.7789 91.6853Z" fill="#EAEAEA" fill-opacity="0.2"/>
<path d="M63.5255 136.314C54.5995 136.327 46.0292 133.224 39.6824 127.681C33.3356 122.137 29.7269 114.603 29.6426 106.719V106.155C29.6802 100.141 31.7732 94.2772 35.6475 89.3316C39.5219 84.386 44.997 80.5892 51.3557 78.4383C57.7144 76.2874 64.6603 75.8827 71.2837 77.2773C77.9072 78.6719 83.8994 81.8008 88.4756 86.2541C88.6354 86.375 88.7152 86.4758 88.6924 86.4758L88.8864 86.6874L88.989 86.7982L89.1146 86.9191L91.0425 89.0856C91.2002 89.2061 91.3384 89.3451 91.4533 89.4987C94.9421 93.9906 96.9758 99.2388 97.3346 104.677C97.6934 110.115 96.3639 115.536 93.4894 120.356C90.615 125.175 86.3047 129.21 81.0241 132.024C75.7434 134.838 69.6929 136.325 63.5255 136.324V136.314ZM81.7789 91.6853C78.4306 88.4433 74.0553 86.1663 69.222 85.1502C64.3888 84.1341 59.3212 84.4259 54.6783 85.9878C50.0353 87.5496 46.0319 90.3092 43.1885 93.9077C40.3451 97.5062 38.7934 101.777 38.7351 106.165V106.639C38.9008 112.364 41.6001 117.805 46.2542 121.794C50.9084 125.782 57.1467 128.001 63.6315 127.975C70.1163 127.949 76.3313 125.679 80.9436 121.653C85.556 117.626 88.1985 112.164 88.3045 106.437C88.3055 102.064 86.8103 97.7933 84.015 94.1842L81.9615 91.9069L81.8018 91.6953L81.7789 91.6853Z" fill="#EAEAEA" fill-opacity="0.2"/>
<path d="M552.136 174.333L551.752 269.574C551.746 274.303 553.84 278.841 557.574 282.191C561.307 285.542 566.376 287.432 571.668 287.447L599.287 287.535C602.012 287.54 604.708 287.046 607.209 286.081C609.711 285.117 611.964 283.704 613.829 281.929L613.95 281.813C615.809 279.967 617.252 277.818 618.198 275.483L618.34 275.187C618.969 273.446 619.292 271.628 619.297 269.799L619.429 237.165C619.459 229.064 622.356 221.178 627.704 214.636C633.053 208.095 640.579 203.232 649.207 200.744C649.91 200.549 650.54 200.186 651.028 199.693C651.516 199.2 651.843 198.597 651.973 197.95C651.984 197.854 651.984 197.758 651.974 197.662L651.976 197.312C651.976 196.773 651.845 196.24 651.592 195.75C651.338 195.261 650.969 194.826 650.509 194.477L603.49 160.596C599.939 158.024 595.51 156.615 590.938 156.603L572.197 156.543C569.572 156.534 566.972 156.986 564.543 157.875C562.114 158.764 559.905 160.072 558.042 161.724C556.18 163.376 554.699 165.34 553.686 167.503C552.672 169.667 552.146 171.987 552.136 174.333ZM581.067 280.351L571.697 280.321C568.534 280.314 565.504 279.185 563.271 277.184C561.038 275.183 559.784 272.471 559.785 269.645L560.17 174.358C560.189 171.53 561.463 168.823 563.712 166.833C565.962 164.842 569.002 163.73 572.168 163.74L590.929 163.8C593.666 163.841 596.309 164.697 598.44 166.232L640.176 196.295C631.571 200.01 624.309 205.814 619.221 213.043C614.133 220.272 611.425 228.635 611.406 237.176C611.404 237.544 611.403 237.876 611.401 238.29C611.388 238.448 611.387 238.607 611.399 238.766L611.274 269.809C611.262 270.84 611.092 271.864 610.769 272.854C610.161 274.403 609.215 275.829 607.987 277.05C606.879 278.114 605.537 278.962 604.045 279.541C602.553 280.119 600.943 280.415 599.316 280.41L582.053 280.355C581.91 280.328 581.766 280.312 581.621 280.308C581.435 280.305 581.25 280.32 581.067 280.351Z" fill="#EAEAEA" fill-opacity="0.2"/>
<path d="M552.136 174.333L551.752 269.574C551.746 274.303 553.84 278.841 557.574 282.191C561.307 285.542 566.376 287.432 571.668 287.447L599.287 287.535C602.012 287.54 604.708 287.046 607.209 286.081C609.711 285.117 611.964 283.704 613.829 281.929L613.95 281.813C615.809 279.967 617.252 277.818 618.198 275.483L618.34 275.187C618.969 273.446 619.292 271.628 619.297 269.799L619.429 237.165C619.459 229.064 622.356 221.178 627.704 214.636C633.053 208.095 640.579 203.232 649.207 200.744C649.91 200.549 650.54 200.186 651.028 199.693C651.516 199.2 651.843 198.597 651.973 197.95C651.984 197.854 651.984 197.758 651.974 197.662L651.976 197.312C651.976 196.773 651.845 196.24 651.592 195.75C651.338 195.261 650.969 194.826 650.509 194.477L603.49 160.596C599.939 158.024 595.51 156.615 590.938 156.603L572.197 156.543C569.572 156.534 566.972 156.986 564.543 157.875C562.114 158.764 559.905 160.072 558.042 161.724C556.18 163.376 554.699 165.34 553.686 167.503C552.672 169.667 552.146 171.987 552.136 174.333ZM581.067 280.351L571.697 280.321C568.534 280.314 565.504 279.185 563.271 277.184C561.038 275.183 559.784 272.471 559.785 269.645L560.17 174.358C560.189 171.53 561.463 168.823 563.712 166.833C565.962 164.842 569.002 163.73 572.168 163.74L590.929 163.8C593.666 163.841 596.309 164.697 598.44 166.232L640.176 196.295C631.571 200.01 624.309 205.814 619.221 213.043C614.133 220.272 611.425 228.635 611.406 237.176C611.404 237.544 611.403 237.876 611.401 238.29C611.388 238.448 611.387 238.607 611.399 238.766L611.274 269.809C611.262 270.84 611.092 271.864 610.769 272.854C610.161 274.403 609.215 275.829 607.987 277.05C606.879 278.114 605.537 278.962 604.045 279.541C602.553 280.119 600.943 280.415 599.316 280.41L582.053 280.355C581.91 280.328 581.766 280.312 581.621 280.308C581.435 280.305 581.25 280.32 581.067 280.351Z" fill="#EAEAEA" fill-opacity="0.2"/>
<path d="M627.263 253.202C627.215 261.209 630.638 268.909 636.785 274.622C642.932 280.335 651.305 283.599 660.079 283.703L660.707 283.705C667.401 283.692 673.935 281.836 679.454 278.378C684.972 274.92 689.218 270.022 691.635 264.325C694.052 258.628 694.528 252.399 693 246.452C691.471 240.505 688.011 235.119 683.071 230.997C682.937 230.854 682.825 230.782 682.825 230.802L682.59 230.627L682.467 230.535L682.333 230.422L679.928 228.685C679.795 228.543 679.641 228.418 679.47 228.315C674.483 225.169 668.649 223.326 662.598 222.985C656.546 222.644 650.508 223.817 645.133 226.379C639.758 228.94 635.252 232.792 632.101 237.52C628.95 242.247 627.273 247.669 627.252 253.202L627.263 253.202ZM677.001 236.986C680.598 240.001 683.116 243.934 684.23 248.273C685.343 252.613 685 257.158 683.245 261.317C681.489 265.477 678.403 269.059 674.388 271.597C670.372 274.135 665.613 275.511 660.729 275.548L660.202 275.546C653.83 275.377 647.784 272.937 643.361 268.747C638.939 264.558 636.492 258.954 636.545 253.136C636.597 247.319 639.146 241.752 643.644 237.629C648.142 233.505 654.231 231.154 660.606 231.079C665.473 231.094 670.221 232.45 674.228 234.971L676.755 236.821L676.99 236.965L677.001 236.986Z" fill="#EAEAEA" fill-opacity="0.2"/>
<path d="M627.263 253.202C627.215 261.209 630.638 268.909 636.785 274.622C642.932 280.335 651.305 283.599 660.079 283.703L660.707 283.705C667.401 283.692 673.935 281.836 679.454 278.378C684.972 274.92 689.218 270.022 691.635 264.325C694.052 258.628 694.528 252.399 693 246.452C691.471 240.505 688.011 235.119 683.071 230.997C682.937 230.854 682.825 230.782 682.825 230.802L682.59 230.627L682.467 230.535L682.333 230.422L679.928 228.685C679.795 228.543 679.641 228.418 679.47 228.315C674.483 225.169 668.649 223.326 662.598 222.985C656.546 222.644 650.508 223.817 645.133 226.379C639.758 228.94 635.252 232.792 632.101 237.52C628.95 242.247 627.273 247.669 627.252 253.202L627.263 253.202ZM677.001 236.986C680.598 240.001 683.116 243.934 684.23 248.273C685.343 252.613 685 257.158 683.245 261.317C681.489 265.477 678.403 269.059 674.388 271.597C670.372 274.135 665.613 275.511 660.729 275.548L660.202 275.546C653.83 275.377 647.784 272.937 643.361 268.747C638.939 264.558 636.492 258.954 636.545 253.136C636.597 247.319 639.146 241.752 643.644 237.629C648.142 233.505 654.231 231.154 660.606 231.079C665.473 231.094 670.221 232.45 674.228 234.971L676.755 236.821L676.99 236.965L677.001 236.986Z" fill="#EAEAEA" fill-opacity="0.2"/>
<path d="M134.847 239.784L134.463 335.026C134.457 339.755 136.551 344.292 140.284 347.643C144.018 350.994 149.087 352.884 154.379 352.898L181.998 352.986C184.723 352.992 187.419 352.497 189.92 351.533C192.422 350.569 194.675 349.155 196.54 347.381L196.661 347.264C198.52 345.419 199.963 343.269 200.909 340.935L201.051 340.638C201.68 338.897 202.003 337.08 202.008 335.25L202.14 302.617C202.17 294.515 205.067 286.63 210.415 280.088C215.764 273.546 223.29 268.684 231.918 266.196C232.621 266.001 233.251 265.637 233.739 265.145C234.226 264.652 234.554 264.049 234.684 263.401C234.695 263.306 234.695 263.21 234.685 263.114L234.687 262.763C234.687 262.224 234.556 261.691 234.303 261.202C234.049 260.712 233.68 260.278 233.22 259.928L186.201 226.048C182.65 223.476 178.221 222.066 173.649 222.054L154.908 221.995C152.283 221.985 149.683 222.438 147.254 223.327C144.825 224.216 142.616 225.523 140.753 227.175C138.891 228.827 137.41 230.791 136.397 232.955C135.383 235.118 134.857 237.439 134.847 239.784ZM163.778 345.803L154.408 345.773C151.245 345.765 148.215 344.637 145.982 342.635C143.749 340.634 142.495 337.923 142.496 335.096L142.881 239.81C142.9 236.981 144.174 234.275 146.423 232.284C148.673 230.294 151.713 229.182 154.879 229.192L173.64 229.252C176.377 229.293 179.02 230.148 181.151 231.684L222.887 261.746C214.282 265.461 207.02 271.265 201.932 278.495C196.844 285.724 194.136 294.087 194.116 302.627C194.115 302.995 194.114 303.328 194.112 303.741C194.099 303.9 194.098 304.059 194.11 304.217L193.985 335.261C193.973 336.291 193.803 337.316 193.48 338.305C192.872 339.854 191.926 341.28 190.698 342.501C189.59 343.566 188.248 344.414 186.756 344.992C185.264 345.57 183.654 345.866 182.027 345.861L164.764 345.806C164.621 345.779 164.477 345.764 164.332 345.76C164.146 345.757 163.961 345.771 163.778 345.803Z" fill="#4EBA66" fill-opacity="0.3"/>
<path d="M209.974 308.655C209.926 316.662 213.349 324.361 219.496 330.074C225.643 335.788 234.016 339.052 242.79 339.155L243.418 339.157C250.112 339.145 256.646 337.288 262.165 333.83C267.683 330.372 271.929 325.474 274.346 319.778C276.763 314.081 277.239 307.851 275.711 301.905C274.182 295.958 270.722 290.571 265.782 286.45C265.648 286.307 265.536 286.235 265.536 286.255L265.301 286.08L265.178 285.988L265.044 285.875L262.639 284.137C262.506 283.996 262.352 283.871 262.181 283.768C257.194 280.622 251.36 278.779 245.309 278.438C239.257 278.096 233.218 279.27 227.844 281.831C222.469 284.393 217.963 288.245 214.812 292.972C211.661 297.699 209.984 303.122 209.963 308.655L209.974 308.655ZM259.712 292.438C263.309 295.454 265.827 299.387 266.94 303.726C268.054 308.066 267.711 312.611 265.956 316.77C264.2 320.93 261.114 324.511 257.099 327.049C253.083 329.587 248.324 330.964 243.44 331.001L242.913 330.999C236.541 330.83 230.495 328.389 226.072 324.2C221.65 320.011 219.203 314.406 219.255 308.589C219.308 302.772 221.857 297.205 226.355 293.081C230.853 288.958 236.942 286.607 243.317 286.532C248.184 286.547 252.932 287.903 256.939 290.424L259.466 292.274L259.701 292.418L259.712 292.438Z" fill="#EAEAEA" fill-opacity="0.2"/>
<path d="M672.504 414.778L672.889 319.537C672.895 314.808 670.801 310.27 667.067 306.92C663.333 303.569 658.264 301.679 652.973 301.664L625.353 301.576C622.629 301.571 619.933 302.066 617.431 303.03C614.93 303.994 612.677 305.407 610.812 307.182L610.691 307.298C608.832 309.144 607.389 311.293 606.442 313.628L606.3 313.924C605.672 315.665 605.349 317.483 605.343 319.312L605.211 351.946C605.181 360.047 602.285 367.933 596.936 374.475C591.588 381.016 584.061 385.879 575.434 388.367C574.73 388.562 574.101 388.925 573.613 389.418C573.125 389.911 572.798 390.514 572.667 391.161C572.657 391.257 572.657 391.353 572.666 391.449L572.665 391.799C572.665 392.338 572.796 392.871 573.049 393.361C573.302 393.85 573.671 394.285 574.131 394.634L621.15 428.515C624.702 431.087 629.131 432.496 633.702 432.508L652.444 432.568C655.068 432.577 657.669 432.125 660.098 431.236C662.526 430.347 664.735 429.039 666.598 427.387C668.461 425.735 669.941 423.771 670.955 421.608C671.968 419.444 672.495 417.124 672.504 414.778ZM643.573 308.76L652.944 308.79C656.107 308.797 659.137 309.926 661.37 311.927C663.603 313.929 664.856 316.64 664.856 319.466L664.471 414.753C664.451 417.581 663.177 420.288 660.928 422.278C658.679 424.269 655.638 425.381 652.473 425.371L633.711 425.311C630.975 425.27 628.331 424.414 626.2 422.879L584.465 392.816C593.07 389.101 600.332 383.297 605.42 376.068C610.507 368.839 613.216 360.476 613.235 351.936C613.237 351.567 613.238 351.235 613.24 350.821C613.253 350.663 613.254 350.504 613.242 350.345L613.367 319.302C613.379 318.271 613.549 317.247 613.872 316.257C614.48 314.708 615.425 313.282 616.654 312.061C617.761 310.997 619.104 310.149 620.596 309.571C622.088 308.992 623.698 308.696 625.324 308.701L642.588 308.757C642.73 308.783 642.875 308.799 643.02 308.803C643.206 308.806 643.391 308.791 643.573 308.76Z" fill="#EAEAEA" fill-opacity="0.2"/>
<path d="M672.504 414.778L672.889 319.537C672.895 314.808 670.801 310.27 667.067 306.92C663.333 303.569 658.264 301.679 652.973 301.664L625.353 301.576C622.629 301.571 619.933 302.066 617.431 303.03C614.93 303.994 612.677 305.407 610.812 307.182L610.691 307.298C608.832 309.144 607.389 311.293 606.442 313.628L606.3 313.924C605.672 315.665 605.349 317.483 605.343 319.312L605.211 351.946C605.181 360.047 602.285 367.933 596.936 374.475C591.588 381.016 584.061 385.879 575.434 388.367C574.73 388.562 574.101 388.925 573.613 389.418C573.125 389.911 572.798 390.514 572.667 391.161C572.657 391.257 572.657 391.353 572.666 391.449L572.665 391.799C572.665 392.338 572.796 392.871 573.049 393.361C573.302 393.85 573.671 394.285 574.131 394.634L621.15 428.515C624.702 431.087 629.131 432.496 633.702 432.508L652.444 432.568C655.068 432.577 657.669 432.125 660.098 431.236C662.526 430.347 664.735 429.039 666.598 427.387C668.461 425.735 669.941 423.771 670.955 421.608C671.968 419.444 672.495 417.124 672.504 414.778ZM643.573 308.76L652.944 308.79C656.107 308.797 659.137 309.926 661.37 311.927C663.603 313.929 664.856 316.64 664.856 319.466L664.471 414.753C664.451 417.581 663.177 420.288 660.928 422.278C658.679 424.269 655.638 425.381 652.473 425.371L633.711 425.311C630.975 425.27 628.331 424.414 626.2 422.879L584.465 392.816C593.07 389.101 600.332 383.297 605.42 376.068C610.507 368.839 613.216 360.476 613.235 351.936C613.237 351.567 613.238 351.235 613.24 350.821C613.253 350.663 613.254 350.504 613.242 350.345L613.367 319.302C613.379 318.271 613.549 317.247 613.872 316.257C614.48 314.708 615.425 313.282 616.654 312.061C617.761 310.997 619.104 310.149 620.596 309.571C622.088 308.992 623.698 308.696 625.324 308.701L642.588 308.757C642.73 308.783 642.875 308.799 643.02 308.803C643.206 308.806 643.391 308.791 643.573 308.76Z" fill="#EAEAEA" fill-opacity="0.2"/>
<path d="M597.378 345.908C597.425 337.901 594.003 330.202 587.856 324.488C581.709 318.775 573.336 315.511 564.561 315.407L563.933 315.405C557.239 315.418 550.705 317.274 545.187 320.732C539.668 324.19 535.422 329.089 533.005 334.785C530.588 340.482 530.113 346.711 531.641 352.658C533.169 358.605 536.63 363.991 541.57 368.113C541.704 368.256 541.816 368.328 541.816 368.308L542.051 368.483L542.174 368.575L542.308 368.688L544.712 370.425C544.846 370.567 545 370.692 545.17 370.795C550.157 373.941 555.991 375.784 562.043 376.125C568.094 376.466 574.133 375.293 579.508 372.731C584.882 370.17 589.388 366.318 592.54 361.59C595.691 356.863 597.368 351.441 597.389 345.908L597.378 345.908ZM547.639 362.124C544.043 359.109 541.524 355.176 540.411 350.837C539.298 346.497 539.641 341.952 541.396 337.793C543.151 333.633 546.237 330.051 550.253 327.514C554.268 324.976 559.027 323.599 563.912 323.562L564.439 323.564C570.811 323.733 576.857 326.174 581.279 330.363C585.702 334.552 588.149 340.156 588.096 345.974C588.043 351.791 585.495 357.358 580.997 361.481C576.498 365.605 570.409 367.956 564.035 368.031C559.168 368.016 554.419 366.66 550.413 364.139L547.885 362.289L547.65 362.145L547.639 362.124Z" fill="#EAEAEA" fill-opacity="0.2"/>
<path d="M597.378 345.908C597.425 337.901 594.003 330.202 587.856 324.488C581.709 318.775 573.336 315.511 564.561 315.407L563.933 315.405C557.239 315.418 550.705 317.274 545.187 320.732C539.668 324.19 535.422 329.089 533.005 334.785C530.588 340.482 530.113 346.711 531.641 352.658C533.169 358.605 536.63 363.991 541.57 368.113C541.704 368.256 541.816 368.328 541.816 368.308L542.051 368.483L542.174 368.575L542.308 368.688L544.712 370.425C544.846 370.567 545 370.692 545.17 370.795C550.157 373.941 555.991 375.784 562.043 376.125C568.094 376.466 574.133 375.293 579.508 372.731C584.882 370.17 589.388 366.318 592.54 361.59C595.691 356.863 597.368 351.441 597.389 345.908L597.378 345.908ZM547.639 362.124C544.043 359.109 541.524 355.176 540.411 350.837C539.298 346.497 539.641 341.952 541.396 337.793C543.151 333.633 546.237 330.051 550.253 327.514C554.268 324.976 559.027 323.599 563.912 323.562L564.439 323.564C570.811 323.733 576.857 326.174 581.279 330.363C585.702 334.552 588.149 340.156 588.096 345.974C588.043 351.791 585.495 357.358 580.997 361.481C576.498 365.605 570.409 367.956 564.035 368.031C559.168 368.016 554.419 366.66 550.413 364.139L547.885 362.289L547.65 362.145L547.639 362.124Z" fill="#EAEAEA" fill-opacity="0.2"/>
</g>
<g opacity="0.5">
<path d="M1042.29 337.916H1148.96C1154.25 337.928 1159.33 339.826 1163.07 343.192C1166.81 346.559 1168.91 351.12 1168.9 355.875V380.689C1168.9 383.137 1168.34 385.558 1167.25 387.802C1166.16 390.045 1164.57 392.065 1162.57 393.734L1162.44 393.842C1160.37 395.506 1157.96 396.794 1155.34 397.636L1155.01 397.763C1153.05 398.321 1151.02 398.604 1148.97 398.603H1112.42C1103.35 398.6 1094.5 401.174 1087.16 405.956C1079.81 410.737 1074.34 417.482 1071.52 425.224C1071.3 425.855 1070.89 426.42 1070.34 426.856C1069.79 427.293 1069.11 427.584 1068.38 427.699C1068.28 427.708 1068.17 427.708 1068.06 427.699H1067.67C1067.07 427.698 1066.47 427.578 1065.92 427.349C1065.38 427.119 1064.89 426.786 1064.5 426.372L1026.72 384.005C1023.86 380.805 1022.29 376.82 1022.3 372.713V355.875C1022.3 353.517 1022.81 351.182 1023.82 349.003C1024.82 346.824 1026.29 344.844 1028.15 343.176C1030.01 341.509 1032.21 340.186 1034.64 339.283C1037.06 338.381 1039.67 337.916 1042.29 337.916ZM1160.92 364.294V355.875C1160.93 353.033 1159.67 350.306 1157.44 348.293C1155.21 346.279 1152.17 345.143 1149.01 345.134H1042.29C1039.12 345.141 1036.09 346.276 1033.85 348.289C1031.61 350.303 1030.36 353.031 1030.36 355.875V372.731C1030.39 375.19 1031.34 377.568 1033.05 379.488L1066.57 417.094C1070.76 409.376 1077.29 402.873 1085.41 398.328C1093.52 393.783 1102.9 391.38 1112.46 391.394C1112.87 391.394 1113.24 391.394 1113.71 391.394C1113.89 391.383 1114.06 391.383 1114.24 391.394H1149.01C1150.16 391.387 1151.31 391.238 1152.42 390.951C1154.16 390.411 1155.76 389.566 1157.13 388.467C1158.32 387.476 1159.28 386.273 1159.93 384.935C1160.59 383.596 1160.92 382.151 1160.92 380.689V365.179C1160.89 365.051 1160.88 364.921 1160.87 364.791C1160.87 364.624 1160.89 364.457 1160.92 364.294Z" fill="#EAEAEA" fill-opacity="0.2"/>
<path d="M1042.29 337.916H1148.96C1154.25 337.928 1159.33 339.826 1163.07 343.192C1166.81 346.559 1168.91 351.12 1168.9 355.875V380.689C1168.9 383.137 1168.34 385.558 1167.25 387.802C1166.16 390.045 1164.57 392.065 1162.57 393.734L1162.44 393.842C1160.37 395.506 1157.96 396.794 1155.34 397.636L1155.01 397.763C1153.05 398.321 1151.02 398.604 1148.97 398.603H1112.42C1103.35 398.6 1094.5 401.174 1087.16 405.956C1079.81 410.737 1074.34 417.482 1071.52 425.224C1071.3 425.855 1070.89 426.42 1070.34 426.856C1069.79 427.293 1069.11 427.584 1068.38 427.699C1068.28 427.708 1068.17 427.708 1068.06 427.699H1067.67C1067.07 427.698 1066.47 427.578 1065.92 427.349C1065.38 427.119 1064.89 426.786 1064.5 426.372L1026.72 384.005C1023.86 380.805 1022.29 376.82 1022.3 372.713V355.875C1022.3 353.517 1022.81 351.182 1023.82 349.003C1024.82 346.824 1026.29 344.844 1028.15 343.176C1030.01 341.509 1032.21 340.186 1034.64 339.283C1037.06 338.381 1039.67 337.916 1042.29 337.916ZM1160.92 364.294V355.875C1160.93 353.033 1159.67 350.306 1157.44 348.293C1155.21 346.279 1152.17 345.143 1149.01 345.134H1042.29C1039.12 345.141 1036.09 346.276 1033.85 348.289C1031.61 350.303 1030.36 353.031 1030.36 355.875V372.731C1030.39 375.19 1031.34 377.568 1033.05 379.488L1066.57 417.094C1070.76 409.376 1077.29 402.873 1085.41 398.328C1093.52 393.783 1102.9 391.38 1112.46 391.394C1112.87 391.394 1113.24 391.394 1113.71 391.394C1113.89 391.383 1114.06 391.383 1114.24 391.394H1149.01C1150.16 391.387 1151.31 391.238 1152.42 390.951C1154.16 390.411 1155.76 389.566 1157.13 388.467C1158.32 387.476 1159.28 386.273 1159.93 384.935C1160.59 383.596 1160.92 382.151 1160.92 380.689V365.179C1160.89 365.051 1160.88 364.921 1160.87 364.791C1160.87 364.624 1160.89 364.457 1160.92 364.294Z" fill="#EAEAEA" fill-opacity="0.2"/>
<path d="M1119.47 395.787C1128.4 395.774 1136.97 398.877 1143.31 404.42C1149.66 409.964 1153.27 417.498 1153.35 425.382V425.946C1153.32 431.96 1151.22 437.824 1147.35 442.769C1143.47 447.715 1138 451.512 1131.64 453.663C1125.28 455.814 1118.34 456.218 1111.71 454.824C1105.09 453.429 1099.1 450.3 1094.52 445.847C1094.36 445.726 1094.28 445.625 1094.3 445.625L1094.11 445.414L1094.01 445.303L1093.88 445.182L1091.95 443.016C1091.8 442.895 1091.66 442.756 1091.54 442.602C1088.05 438.11 1086.02 432.862 1085.66 427.424C1085.3 421.986 1086.63 416.565 1089.51 411.745C1092.38 406.926 1096.69 402.891 1101.97 400.077C1107.25 397.263 1113.3 395.776 1119.47 395.777V395.787ZM1101.22 440.416C1104.57 443.658 1108.94 445.935 1113.77 446.951C1118.61 447.967 1123.67 447.675 1128.32 446.113C1132.96 444.551 1136.96 441.792 1139.81 438.193C1142.65 434.595 1144.2 430.324 1144.26 425.936V425.462C1144.1 419.737 1141.4 414.296 1136.74 410.307C1132.09 406.319 1125.85 404.1 1119.36 404.126C1112.88 404.153 1106.66 406.422 1102.05 410.448C1097.44 414.475 1094.8 419.937 1094.69 425.664C1094.69 430.037 1096.19 434.308 1098.98 437.917L1101.03 440.194L1101.19 440.406L1101.22 440.416Z" fill="#00589B" fill-opacity="0.3"/>
<path d="M1294.4 428.672H1187.74C1182.44 428.684 1177.37 430.539 1173.63 433.831C1169.89 437.123 1167.79 441.583 1167.79 446.231V470.495C1167.8 472.888 1168.36 475.255 1169.45 477.449C1170.54 479.643 1172.13 481.617 1174.12 483.249L1174.25 483.355C1176.33 484.982 1178.74 486.241 1181.36 487.065L1181.69 487.189C1183.64 487.735 1185.68 488.012 1187.73 488.01H1224.28C1233.35 488.008 1242.19 490.524 1249.54 495.2C1256.88 499.875 1262.35 506.47 1265.17 514.04C1265.39 514.657 1265.8 515.209 1266.35 515.636C1266.91 516.063 1267.58 516.348 1268.31 516.46C1268.42 516.469 1268.53 516.469 1268.63 516.46H1269.02C1269.63 516.458 1270.23 516.341 1270.77 516.117C1271.32 515.893 1271.81 515.567 1272.19 515.162L1309.97 473.736C1312.84 470.607 1314.4 466.711 1314.4 462.695V446.231C1314.4 443.926 1313.88 441.643 1312.88 439.512C1311.87 437.382 1310.4 435.446 1308.55 433.815C1306.69 432.185 1304.48 430.891 1302.06 430.009C1299.63 429.126 1297.03 428.672 1294.4 428.672ZM1175.77 454.463V446.231C1175.77 443.453 1177.02 440.787 1179.26 438.818C1181.49 436.849 1184.52 435.739 1187.69 435.729H1294.4C1297.57 435.736 1300.61 436.846 1302.84 438.815C1305.08 440.783 1306.34 443.451 1306.34 446.231V462.713C1306.3 465.118 1305.35 467.443 1303.64 469.32L1270.12 506.091C1265.93 498.544 1259.4 492.186 1251.29 487.742C1243.18 483.298 1233.8 480.948 1224.24 480.962C1223.82 480.962 1223.45 480.962 1222.99 480.962C1222.81 480.95 1222.63 480.95 1222.45 480.962H1187.69C1186.53 480.955 1185.39 480.809 1184.28 480.529C1182.54 480 1180.94 479.175 1179.57 478.1C1178.37 477.131 1177.42 475.955 1176.76 474.646C1176.11 473.337 1175.77 471.924 1175.77 470.495V455.329C1175.8 455.204 1175.82 455.077 1175.82 454.949C1175.83 454.786 1175.81 454.623 1175.77 454.463Z" fill="#00589B" fill-opacity="0.3"/>
<path d="M1216.67 530.477C1207.6 530.463 1198.89 533.618 1192.43 539.254C1185.98 544.89 1182.32 552.55 1182.23 560.565V561.138C1182.27 567.253 1184.4 573.214 1188.33 578.242C1192.27 583.27 1197.84 587.13 1204.3 589.317C1210.76 591.504 1217.82 591.915 1224.55 590.497C1231.29 589.079 1237.38 585.898 1242.03 581.371C1242.19 581.248 1242.27 581.146 1242.25 581.146L1242.45 580.93L1242.55 580.818L1242.68 580.695L1244.64 578.492C1244.8 578.37 1244.94 578.228 1245.05 578.072C1248.6 573.505 1250.67 568.17 1251.03 562.641C1251.4 557.112 1250.05 551.601 1247.12 546.701C1244.2 541.801 1239.82 537.699 1234.45 534.838C1229.09 531.977 1222.94 530.466 1216.67 530.467V530.477ZM1235.22 575.849C1231.82 579.145 1227.37 581.46 1222.46 582.493C1217.55 583.526 1212.4 583.23 1207.68 581.642C1202.96 580.054 1198.89 577.248 1196 573.59C1193.11 569.931 1191.53 565.589 1191.47 561.128V560.647C1191.64 554.825 1194.38 549.294 1199.11 545.239C1203.84 541.184 1210.19 538.928 1216.78 538.955C1223.37 538.982 1229.68 541.289 1234.37 545.382C1239.06 549.476 1241.75 555.029 1241.85 560.852C1241.86 565.297 1240.34 569.639 1237.49 573.309L1235.41 575.624L1235.24 575.839L1235.22 575.849Z" fill="#EAEAEA" fill-opacity="0.2"/>
<path d="M1216.67 530.477C1207.6 530.463 1198.89 533.618 1192.43 539.254C1185.98 544.89 1182.32 552.55 1182.23 560.565V561.138C1182.27 567.253 1184.4 573.214 1188.33 578.242C1192.27 583.27 1197.84 587.13 1204.3 589.317C1210.76 591.504 1217.82 591.915 1224.55 590.497C1231.29 589.079 1237.38 585.898 1242.03 581.371C1242.19 581.248 1242.27 581.146 1242.25 581.146L1242.45 580.93L1242.55 580.818L1242.68 580.695L1244.64 578.492C1244.8 578.37 1244.94 578.228 1245.05 578.072C1248.6 573.505 1250.67 568.17 1251.03 562.641C1251.4 557.112 1250.05 551.601 1247.12 546.701C1244.2 541.801 1239.82 537.699 1234.45 534.838C1229.09 531.977 1222.94 530.466 1216.67 530.467V530.477ZM1235.22 575.849C1231.82 579.145 1227.37 581.46 1222.46 582.493C1217.55 583.526 1212.4 583.23 1207.68 581.642C1202.96 580.054 1198.89 577.248 1196 573.59C1193.11 569.931 1191.53 565.589 1191.47 561.128V560.647C1191.64 554.825 1194.38 549.294 1199.11 545.239C1203.84 541.184 1210.19 538.928 1216.78 538.955C1223.37 538.982 1229.68 541.289 1234.37 545.382C1239.06 549.476 1241.75 555.029 1241.85 560.852C1241.86 565.297 1240.34 569.639 1237.49 573.309L1235.41 575.624L1235.24 575.839L1235.22 575.849Z" fill="#EAEAEA" fill-opacity="0.2"/>
<path d="M1441.97 555.375H1334.49C1329.16 555.363 1324.04 553.465 1320.28 550.099C1316.51 546.732 1314.39 542.171 1314.4 537.416V512.602C1314.4 510.154 1314.97 507.733 1316.07 505.489C1317.16 503.246 1318.76 501.226 1320.77 499.557L1320.91 499.449C1323 497.785 1325.43 496.497 1328.06 495.655L1328.4 495.528C1330.37 494.97 1332.42 494.686 1334.48 494.688H1371.31C1380.45 494.691 1389.36 492.117 1396.76 487.335C1404.16 482.554 1409.67 475.809 1412.51 468.067C1412.73 467.436 1413.15 466.871 1413.71 466.435C1414.26 465.998 1414.94 465.707 1415.68 465.591C1415.78 465.582 1415.89 465.582 1416 465.591H1416.4C1417 465.593 1417.6 465.713 1418.16 465.942C1418.71 466.172 1419.2 466.505 1419.59 466.919L1457.65 509.286C1460.54 512.486 1462.12 516.471 1462.11 520.578V537.416C1462.11 539.774 1461.59 542.109 1460.58 544.288C1459.57 546.467 1458.09 548.447 1456.22 550.115C1454.34 551.782 1452.12 553.105 1449.68 554.008C1447.23 554.91 1444.61 555.375 1441.97 555.375ZM1322.44 528.997V537.416C1322.43 540.258 1323.7 542.985 1325.95 544.998C1328.2 547.012 1331.25 548.148 1334.44 548.157H1441.97C1445.16 548.15 1448.22 547.015 1450.47 545.002C1452.73 542.988 1453.99 540.26 1453.99 537.416V520.56C1453.95 518.101 1453 515.723 1451.27 513.803L1417.5 476.197C1413.28 483.915 1406.7 490.418 1398.53 494.963C1390.35 499.508 1380.9 501.911 1371.27 501.897C1370.85 501.897 1370.48 501.897 1370.01 501.897C1369.83 501.908 1369.65 501.908 1369.47 501.897H1334.44C1333.28 501.904 1332.12 502.053 1331 502.34C1329.25 502.88 1327.64 503.725 1326.26 504.824C1325.05 505.815 1324.09 507.018 1323.43 508.356C1322.78 509.695 1322.44 511.14 1322.44 512.602V528.112C1322.47 528.24 1322.48 528.37 1322.49 528.5C1322.49 528.667 1322.47 528.834 1322.44 528.997Z" fill="#EAEAEA" fill-opacity="0.2"/>
<path d="M1441.97 555.375H1334.49C1329.16 555.363 1324.04 553.465 1320.28 550.099C1316.51 546.732 1314.39 542.171 1314.4 537.416V512.602C1314.4 510.154 1314.97 507.733 1316.07 505.489C1317.16 503.246 1318.76 501.226 1320.77 499.557L1320.91 499.449C1323 497.785 1325.43 496.497 1328.06 495.655L1328.4 495.528C1330.37 494.97 1332.42 494.686 1334.48 494.688H1371.31C1380.45 494.691 1389.36 492.117 1396.76 487.335C1404.16 482.554 1409.67 475.809 1412.51 468.067C1412.73 467.436 1413.15 466.871 1413.71 466.435C1414.26 465.998 1414.94 465.707 1415.68 465.591C1415.78 465.582 1415.89 465.582 1416 465.591H1416.4C1417 465.593 1417.6 465.713 1418.16 465.942C1418.71 466.172 1419.2 466.505 1419.59 466.919L1457.65 509.286C1460.54 512.486 1462.12 516.471 1462.11 520.578V537.416C1462.11 539.774 1461.59 542.109 1460.58 544.288C1459.57 546.467 1458.09 548.447 1456.22 550.115C1454.34 551.782 1452.12 553.105 1449.68 554.008C1447.23 554.91 1444.61 555.375 1441.97 555.375ZM1322.44 528.997V537.416C1322.43 540.258 1323.7 542.985 1325.95 544.998C1328.2 547.012 1331.25 548.148 1334.44 548.157H1441.97C1445.16 548.15 1448.22 547.015 1450.47 545.002C1452.73 542.988 1453.99 540.26 1453.99 537.416V520.56C1453.95 518.101 1453 515.723 1451.27 513.803L1417.5 476.197C1413.28 483.915 1406.7 490.418 1398.53 494.963C1390.35 499.508 1380.9 501.911 1371.27 501.897C1370.85 501.897 1370.48 501.897 1370.01 501.897C1369.83 501.908 1369.65 501.908 1369.47 501.897H1334.44C1333.28 501.904 1332.12 502.053 1331 502.34C1329.25 502.88 1327.64 503.725 1326.26 504.824C1325.05 505.815 1324.09 507.018 1323.43 508.356C1322.78 509.695 1322.44 511.14 1322.44 512.602V528.112C1322.47 528.24 1322.48 528.37 1322.49 528.5C1322.49 528.667 1322.47 528.834 1322.44 528.997Z" fill="#EAEAEA" fill-opacity="0.2"/>
<path d="M1364.38 487.525C1355.31 487.539 1346.6 484.487 1340.15 479.036C1333.7 473.585 1330.03 466.176 1329.95 458.424V457.869C1329.98 451.956 1332.11 446.19 1336.05 441.326C1339.99 436.463 1345.55 432.73 1352.01 430.615C1358.48 428.5 1365.54 428.102 1372.27 429.473C1379 430.844 1385.09 433.921 1389.74 438.3C1389.91 438.419 1389.99 438.518 1389.96 438.518L1390.16 438.726L1390.26 438.835L1390.39 438.954L1392.35 441.084C1392.51 441.203 1392.65 441.34 1392.77 441.491C1396.32 445.908 1398.38 451.068 1398.75 456.416C1399.11 461.763 1397.76 467.094 1394.84 471.833C1391.92 476.573 1387.54 480.54 1382.17 483.307C1376.8 486.074 1370.65 487.536 1364.38 487.535V487.525ZM1382.94 443.641C1379.53 440.453 1375.09 438.214 1370.17 437.215C1365.26 436.215 1360.11 436.502 1355.39 438.038C1350.67 439.574 1346.6 442.288 1343.71 445.826C1340.82 449.365 1339.25 453.564 1339.19 457.879V458.345C1339.36 463.975 1342.1 469.325 1346.83 473.247C1351.56 477.169 1357.9 479.351 1364.49 479.325C1371.08 479.3 1377.4 477.068 1382.09 473.109C1386.78 469.149 1389.46 463.778 1389.57 458.147C1389.57 453.847 1388.05 449.647 1385.21 446.098L1383.12 443.859L1382.96 443.651L1382.94 443.641Z" fill="#EAEAEA" fill-opacity="0.2"/>
<path d="M1364.38 487.525C1355.31 487.539 1346.6 484.487 1340.15 479.036C1333.7 473.585 1330.03 466.176 1329.95 458.424V457.869C1329.98 451.956 1332.11 446.19 1336.05 441.326C1339.99 436.463 1345.55 432.73 1352.01 430.615C1358.48 428.5 1365.54 428.102 1372.27 429.473C1379 430.844 1385.09 433.921 1389.74 438.3C1389.91 438.419 1389.99 438.518 1389.96 438.518L1390.16 438.726L1390.26 438.835L1390.39 438.954L1392.35 441.084C1392.51 441.203 1392.65 441.34 1392.77 441.491C1396.32 445.908 1398.38 451.068 1398.75 456.416C1399.11 461.763 1397.76 467.094 1394.84 471.833C1391.92 476.573 1387.54 480.54 1382.17 483.307C1376.8 486.074 1370.65 487.536 1364.38 487.535V487.525ZM1382.94 443.641C1379.53 440.453 1375.09 438.214 1370.17 437.215C1365.26 436.215 1360.11 436.502 1355.39 438.038C1350.67 439.574 1346.6 442.288 1343.71 445.826C1340.82 449.365 1339.25 453.564 1339.19 457.879V458.345C1339.36 463.975 1342.1 469.325 1346.83 473.247C1351.56 477.169 1357.9 479.351 1364.49 479.325C1371.08 479.3 1377.4 477.068 1382.09 473.109C1386.78 469.149 1389.46 463.778 1389.57 458.147C1389.57 453.847 1388.05 449.647 1385.21 446.098L1383.12 443.859L1382.96 443.651L1382.94 443.641Z" fill="#EAEAEA" fill-opacity="0.2"/>
<path d="M1187.79 414.705H1294.45C1299.75 414.693 1304.82 412.795 1308.56 409.429C1312.3 406.062 1314.4 401.501 1314.4 396.747V371.932C1314.39 369.484 1313.83 367.063 1312.74 364.82C1311.65 362.576 1310.06 360.557 1308.07 358.887L1307.94 358.779C1305.86 357.115 1303.45 355.827 1300.83 354.985L1300.5 354.858C1298.55 354.3 1296.51 354.017 1294.46 354.018H1257.91C1248.84 354.021 1240 351.447 1232.65 346.665C1225.31 341.884 1219.84 335.139 1217.02 327.397C1216.8 326.766 1216.39 326.201 1215.83 325.765C1215.28 325.328 1214.6 325.037 1213.88 324.922C1213.77 324.913 1213.66 324.913 1213.56 324.922H1213.16C1212.56 324.923 1211.96 325.043 1211.42 325.272C1210.87 325.502 1210.38 325.835 1209.99 326.25L1172.22 368.616C1169.35 371.816 1167.79 375.801 1167.79 379.908V396.747C1167.79 399.105 1168.31 401.44 1169.31 403.618C1170.31 405.797 1171.79 407.777 1173.64 409.445C1175.5 411.112 1177.71 412.435 1180.13 413.338C1182.56 414.241 1185.16 414.705 1187.79 414.705ZM1306.42 388.327V396.747C1306.42 399.588 1305.17 402.315 1302.93 404.328C1300.7 406.342 1297.67 407.478 1294.5 407.487H1187.79C1184.62 407.48 1181.58 406.345 1179.35 404.332C1177.11 402.318 1175.85 399.591 1175.85 396.747V379.89C1175.89 377.431 1176.84 375.053 1178.55 373.133L1212.07 335.527C1216.26 343.245 1222.78 349.748 1230.9 354.293C1239.01 358.838 1248.39 361.241 1257.95 361.227C1258.37 361.227 1258.74 361.227 1259.2 361.227C1259.38 361.238 1259.56 361.238 1259.74 361.227H1294.5C1295.66 361.234 1296.8 361.383 1297.91 361.67C1299.65 362.21 1301.25 363.055 1302.62 364.154C1303.82 365.145 1304.77 366.348 1305.43 367.686C1306.08 369.025 1306.42 370.47 1306.42 371.932V387.442C1306.39 387.57 1306.37 387.7 1306.37 387.831C1306.36 387.997 1306.38 388.164 1306.42 388.327Z" fill="#EAEAEA" fill-opacity="0.2"/>
<path d="M1187.79 414.705H1294.45C1299.75 414.693 1304.82 412.795 1308.56 409.429C1312.3 406.062 1314.4 401.501 1314.4 396.747V371.932C1314.39 369.484 1313.83 367.063 1312.74 364.82C1311.65 362.576 1310.06 360.557 1308.07 358.887L1307.94 358.779C1305.86 357.115 1303.45 355.827 1300.83 354.985L1300.5 354.858C1298.55 354.3 1296.51 354.017 1294.46 354.018H1257.91C1248.84 354.021 1240 351.447 1232.65 346.665C1225.31 341.884 1219.84 335.139 1217.02 327.397C1216.8 326.766 1216.39 326.201 1215.83 325.765C1215.28 325.328 1214.6 325.037 1213.88 324.922C1213.77 324.913 1213.66 324.913 1213.56 324.922H1213.16C1212.56 324.923 1211.96 325.043 1211.42 325.272C1210.87 325.502 1210.38 325.835 1209.99 326.25L1172.22 368.616C1169.35 371.816 1167.79 375.801 1167.79 379.908V396.747C1167.79 399.105 1168.31 401.44 1169.31 403.618C1170.31 405.797 1171.79 407.777 1173.64 409.445C1175.5 411.112 1177.71 412.435 1180.13 413.338C1182.56 414.241 1185.16 414.705 1187.79 414.705ZM1306.42 388.327V396.747C1306.42 399.588 1305.17 402.315 1302.93 404.328C1300.7 406.342 1297.67 407.478 1294.5 407.487H1187.79C1184.62 407.48 1181.58 406.345 1179.35 404.332C1177.11 402.318 1175.85 399.591 1175.85 396.747V379.89C1175.89 377.431 1176.84 375.053 1178.55 373.133L1212.07 335.527C1216.26 343.245 1222.78 349.748 1230.9 354.293C1239.01 358.838 1248.39 361.241 1257.95 361.227C1258.37 361.227 1258.74 361.227 1259.2 361.227C1259.38 361.238 1259.56 361.238 1259.74 361.227H1294.5C1295.66 361.234 1296.8 361.383 1297.91 361.67C1299.65 362.21 1301.25 363.055 1302.62 364.154C1303.82 365.145 1304.77 366.348 1305.43 367.686C1306.08 369.025 1306.42 370.47 1306.42 371.932V387.442C1306.39 387.57 1306.37 387.7 1306.37 387.831C1306.36 387.997 1306.38 388.164 1306.42 388.327Z" fill="#EAEAEA" fill-opacity="0.2"/>
<path d="M1264.41 346.853C1273.48 346.867 1282.19 343.815 1288.64 338.364C1295.09 332.913 1298.76 325.504 1298.85 317.752V317.197C1298.81 311.284 1296.68 305.518 1292.74 300.655C1288.81 295.791 1283.24 292.058 1276.78 289.943C1270.32 287.828 1263.26 287.43 1256.52 288.801C1249.79 290.173 1243.7 293.249 1239.05 297.628C1238.89 297.747 1238.81 297.846 1238.83 297.846L1238.63 298.054L1238.53 298.163L1238.4 298.282L1236.44 300.413C1236.28 300.531 1236.14 300.668 1236.02 300.819C1232.48 305.236 1230.41 310.397 1230.05 315.744C1229.68 321.091 1231.03 326.422 1233.95 331.162C1236.88 335.901 1241.26 339.868 1246.62 342.635C1251.99 345.402 1258.14 346.864 1264.41 346.863V346.853ZM1245.86 302.969C1249.26 299.781 1253.71 297.542 1258.62 296.543C1263.53 295.544 1268.68 295.831 1273.4 297.366C1278.12 298.902 1282.19 301.616 1285.08 305.154C1287.97 308.693 1289.55 312.893 1289.61 317.207V317.673C1289.44 323.303 1286.69 328.653 1281.96 332.575C1277.23 336.498 1270.89 338.68 1264.3 338.654C1257.71 338.628 1251.39 336.396 1246.71 332.437C1242.02 328.478 1239.33 323.106 1239.22 317.475C1239.22 313.175 1240.74 308.975 1243.58 305.426L1245.67 303.187L1245.83 302.979L1245.86 302.969Z" fill="#EAEAEA" fill-opacity="0.2"/>
<path d="M1264.41 346.853C1273.48 346.867 1282.19 343.815 1288.64 338.364C1295.09 332.913 1298.76 325.504 1298.85 317.752V317.197C1298.81 311.284 1296.68 305.518 1292.74 300.655C1288.81 295.791 1283.24 292.058 1276.78 289.943C1270.32 287.828 1263.26 287.43 1256.52 288.801C1249.79 290.173 1243.7 293.249 1239.05 297.628C1238.89 297.747 1238.81 297.846 1238.83 297.846L1238.63 298.054L1238.53 298.163L1238.4 298.282L1236.44 300.413C1236.28 300.531 1236.14 300.668 1236.02 300.819C1232.48 305.236 1230.41 310.397 1230.05 315.744C1229.68 321.091 1231.03 326.422 1233.95 331.162C1236.88 335.901 1241.26 339.868 1246.62 342.635C1251.99 345.402 1258.14 346.864 1264.41 346.863V346.853ZM1245.86 302.969C1249.26 299.781 1253.71 297.542 1258.62 296.543C1263.53 295.544 1268.68 295.831 1273.4 297.366C1278.12 298.902 1282.19 301.616 1285.08 305.154C1287.97 308.693 1289.55 312.893 1289.61 317.207V317.673C1289.44 323.303 1286.69 328.653 1281.96 332.575C1277.23 336.498 1270.89 338.68 1264.3 338.654C1257.71 338.628 1251.39 336.396 1246.71 332.437C1242.02 328.478 1239.33 323.106 1239.22 317.475C1239.22 313.175 1240.74 308.975 1243.58 305.426L1245.67 303.187L1245.83 302.979L1245.86 302.969Z" fill="#EAEAEA" fill-opacity="0.2"/>
<path d="M1418.8 367.792H1525.47C1530.76 367.803 1535.84 369.701 1539.58 373.068C1543.32 376.435 1545.41 380.996 1545.41 385.75V410.565C1545.41 413.012 1544.84 415.433 1543.76 417.677C1542.67 419.921 1541.08 421.94 1539.08 423.609L1538.95 423.718C1536.88 425.381 1534.47 426.67 1531.85 427.512L1531.52 427.638C1529.56 428.197 1527.53 428.48 1525.48 428.478H1488.93C1479.86 428.476 1471.01 431.05 1463.67 435.831C1456.32 440.613 1450.85 447.357 1448.03 455.1C1447.81 455.731 1447.4 456.295 1446.85 456.732C1446.3 457.168 1445.62 457.46 1444.89 457.575C1444.79 457.584 1444.68 457.584 1444.57 457.575H1444.18C1443.58 457.573 1442.98 457.454 1442.43 457.224C1441.89 456.995 1441.4 456.662 1441.01 456.247L1403.23 413.88C1400.37 410.68 1398.8 406.696 1398.81 402.588V385.75C1398.81 383.392 1399.32 381.057 1400.33 378.878C1401.33 376.7 1402.8 374.72 1404.66 373.052C1406.52 371.384 1408.72 370.061 1411.15 369.159C1413.57 368.256 1416.18 367.792 1418.8 367.792ZM1537.43 394.169V385.75C1537.43 382.908 1536.18 380.182 1533.95 378.168C1531.72 376.155 1528.68 375.019 1525.52 375.009H1418.8C1415.63 375.016 1412.6 376.151 1410.36 378.165C1408.12 380.178 1406.87 382.906 1406.87 385.75V402.606C1406.9 405.065 1407.85 407.443 1409.56 409.363L1443.08 446.97C1447.27 439.252 1453.8 432.749 1461.91 428.204C1470.03 423.659 1479.41 421.256 1488.97 421.27C1489.38 421.27 1489.75 421.27 1490.22 421.27C1490.4 421.258 1490.57 421.258 1490.75 421.27H1525.52C1526.67 421.263 1527.82 421.114 1528.93 420.827C1530.67 420.286 1532.27 419.442 1533.64 418.343C1534.83 417.352 1535.79 416.149 1536.44 414.81C1537.09 413.472 1537.43 412.026 1537.43 410.565V395.054C1537.4 394.927 1537.39 394.797 1537.38 394.666C1537.38 394.499 1537.4 394.333 1537.43 394.169Z" fill="#EAEAEA" fill-opacity="0.2"/>
<path d="M1418.8 367.792H1525.47C1530.76 367.803 1535.84 369.701 1539.58 373.068C1543.32 376.435 1545.41 380.996 1545.41 385.75V410.565C1545.41 413.012 1544.84 415.433 1543.76 417.677C1542.67 419.921 1541.08 421.94 1539.08 423.609L1538.95 423.718C1536.88 425.381 1534.47 426.67 1531.85 427.512L1531.52 427.638C1529.56 428.197 1527.53 428.48 1525.48 428.478H1488.93C1479.86 428.476 1471.01 431.05 1463.67 435.831C1456.32 440.613 1450.85 447.357 1448.03 455.1C1447.81 455.731 1447.4 456.295 1446.85 456.732C1446.3 457.168 1445.62 457.46 1444.89 457.575C1444.79 457.584 1444.68 457.584 1444.57 457.575H1444.18C1443.58 457.573 1442.98 457.454 1442.43 457.224C1441.89 456.995 1441.4 456.662 1441.01 456.247L1403.23 413.88C1400.37 410.68 1398.8 406.696 1398.81 402.588V385.75C1398.81 383.392 1399.32 381.057 1400.33 378.878C1401.33 376.7 1402.8 374.72 1404.66 373.052C1406.52 371.384 1408.72 370.061 1411.15 369.159C1413.57 368.256 1416.18 367.792 1418.8 367.792ZM1537.43 394.169V385.75C1537.43 382.908 1536.18 380.182 1533.95 378.168C1531.72 376.155 1528.68 375.019 1525.52 375.009H1418.8C1415.63 375.016 1412.6 376.151 1410.36 378.165C1408.12 380.178 1406.87 382.906 1406.87 385.75V402.606C1406.9 405.065 1407.85 407.443 1409.56 409.363L1443.08 446.97C1447.27 439.252 1453.8 432.749 1461.91 428.204C1470.03 423.659 1479.41 421.256 1488.97 421.27C1489.38 421.27 1489.75 421.27 1490.22 421.27C1490.4 421.258 1490.57 421.258 1490.75 421.27H1525.52C1526.67 421.263 1527.82 421.114 1528.93 420.827C1530.67 420.286 1532.27 419.442 1533.64 418.343C1534.83 417.352 1535.79 416.149 1536.44 414.81C1537.09 413.472 1537.43 412.026 1537.43 410.565V395.054C1537.4 394.927 1537.39 394.797 1537.38 394.666C1537.38 394.499 1537.4 394.333 1537.43 394.169Z" fill="#EAEAEA" fill-opacity="0.2"/>
<path d="M1152.86 488.659L1153.25 583.901C1153.25 588.629 1151.16 593.167 1147.43 596.518C1143.69 599.868 1138.62 601.758 1133.33 601.773L1105.71 601.861C1102.99 601.866 1100.29 601.372 1097.79 600.407C1095.29 599.443 1093.04 598.03 1091.17 596.256L1091.05 596.139C1089.19 594.293 1087.75 592.144 1086.8 589.809L1086.66 589.513C1086.03 587.772 1085.71 585.955 1085.7 584.125L1085.57 551.491C1085.54 543.39 1082.64 535.504 1077.3 528.963C1071.95 522.421 1064.42 517.559 1055.79 515.071C1055.09 514.876 1054.46 514.512 1053.97 514.019C1053.48 513.527 1053.16 512.924 1053.03 512.276C1053.02 512.181 1053.02 512.084 1053.03 511.989L1053.02 511.638C1053.02 511.099 1053.15 510.566 1053.41 510.076C1053.66 509.587 1054.03 509.152 1054.49 508.803L1101.51 474.923C1105.06 472.35 1109.49 470.941 1114.06 470.929L1132.8 470.869C1135.43 470.86 1138.03 471.312 1140.46 472.201C1142.89 473.09 1145.09 474.398 1146.96 476.05C1148.82 477.702 1150.3 479.666 1151.31 481.829C1152.33 483.993 1152.85 486.314 1152.86 488.659ZM1123.93 594.678L1133.3 594.648C1136.47 594.64 1139.5 593.512 1141.73 591.51C1143.96 589.509 1145.22 586.797 1145.22 583.971L1144.83 488.685C1144.81 485.856 1143.54 483.149 1141.29 481.159C1139.04 479.168 1136 478.056 1132.83 478.066L1114.07 478.126C1111.33 478.167 1108.69 479.023 1106.56 480.558L1064.82 510.621C1073.43 514.336 1080.69 520.14 1085.78 527.369C1090.87 534.599 1093.58 542.962 1093.59 551.502C1093.6 551.87 1093.6 552.203 1093.6 552.616C1093.61 552.774 1093.61 552.934 1093.6 553.092L1093.73 584.135C1093.74 585.166 1093.91 586.19 1094.23 587.18C1094.84 588.729 1095.78 590.155 1097.01 591.376C1098.12 592.44 1099.46 593.288 1100.96 593.867C1102.45 594.445 1104.06 594.741 1105.68 594.736L1122.95 594.681C1123.09 594.654 1123.23 594.638 1123.38 594.634C1123.56 594.631 1123.75 594.646 1123.93 594.678Z" fill="#EAEAEA" fill-opacity="0.2"/>
<path d="M1152.86 488.659L1153.25 583.901C1153.25 588.629 1151.16 593.167 1147.43 596.518C1143.69 599.868 1138.62 601.758 1133.33 601.773L1105.71 601.861C1102.99 601.866 1100.29 601.372 1097.79 600.407C1095.29 599.443 1093.04 598.03 1091.17 596.256L1091.05 596.139C1089.19 594.293 1087.75 592.144 1086.8 589.809L1086.66 589.513C1086.03 587.772 1085.71 585.955 1085.7 584.125L1085.57 551.491C1085.54 543.39 1082.64 535.504 1077.3 528.963C1071.95 522.421 1064.42 517.559 1055.79 515.071C1055.09 514.876 1054.46 514.512 1053.97 514.019C1053.48 513.527 1053.16 512.924 1053.03 512.276C1053.02 512.181 1053.02 512.084 1053.03 511.989L1053.02 511.638C1053.02 511.099 1053.15 510.566 1053.41 510.076C1053.66 509.587 1054.03 509.152 1054.49 508.803L1101.51 474.923C1105.06 472.35 1109.49 470.941 1114.06 470.929L1132.8 470.869C1135.43 470.86 1138.03 471.312 1140.46 472.201C1142.89 473.09 1145.09 474.398 1146.96 476.05C1148.82 477.702 1150.3 479.666 1151.31 481.829C1152.33 483.993 1152.85 486.314 1152.86 488.659ZM1123.93 594.678L1133.3 594.648C1136.47 594.64 1139.5 593.512 1141.73 591.51C1143.96 589.509 1145.22 586.797 1145.22 583.971L1144.83 488.685C1144.81 485.856 1143.54 483.149 1141.29 481.159C1139.04 479.168 1136 478.056 1132.83 478.066L1114.07 478.126C1111.33 478.167 1108.69 479.023 1106.56 480.558L1064.82 510.621C1073.43 514.336 1080.69 520.14 1085.78 527.369C1090.87 534.599 1093.58 542.962 1093.59 551.502C1093.6 551.87 1093.6 552.203 1093.6 552.616C1093.61 552.774 1093.61 552.934 1093.6 553.092L1093.73 584.135C1093.74 585.166 1093.91 586.19 1094.23 587.18C1094.84 588.729 1095.78 590.155 1097.01 591.376C1098.12 592.44 1099.46 593.288 1100.96 593.867C1102.45 594.445 1104.06 594.741 1105.68 594.736L1122.95 594.681C1123.09 594.654 1123.23 594.638 1123.38 594.634C1123.56 594.631 1123.75 594.646 1123.93 594.678Z" fill="#EAEAEA" fill-opacity="0.2"/>
<path d="M1077.74 557.528C1077.78 565.535 1074.36 573.235 1068.21 578.948C1062.07 584.661 1053.69 587.925 1044.92 588.029L1044.29 588.031C1037.6 588.019 1031.06 586.162 1025.55 582.704C1020.03 579.246 1015.78 574.348 1013.36 568.651C1010.95 562.954 1010.47 556.725 1012 550.778C1013.53 544.831 1016.99 539.445 1021.93 535.324C1022.06 535.18 1022.18 535.108 1022.18 535.129L1022.41 534.954L1022.53 534.861L1022.67 534.748L1025.07 533.011C1025.21 532.869 1025.36 532.745 1025.53 532.641C1030.52 529.495 1036.35 527.652 1042.4 527.311C1048.45 526.97 1054.49 528.143 1059.87 530.705C1065.24 533.266 1069.75 537.119 1072.9 541.846C1076.05 546.573 1077.73 551.996 1077.75 557.528L1077.74 557.528ZM1028 541.312C1024.4 544.327 1021.88 548.26 1020.77 552.6C1019.66 556.939 1020 561.484 1021.76 565.644C1023.51 569.803 1026.6 573.385 1030.61 575.923C1034.63 578.461 1039.39 579.838 1044.27 579.874L1044.8 579.873C1051.17 579.704 1057.22 577.263 1061.64 573.073C1066.06 568.884 1068.51 563.28 1068.46 557.463C1068.4 551.645 1065.85 546.078 1061.36 541.955C1056.86 537.831 1050.77 535.48 1044.39 535.406C1039.53 535.42 1034.78 536.777 1030.77 539.297L1028.24 541.147L1028.01 541.291L1028 541.312Z" fill="#EAEAEA" fill-opacity="0.2"/>
<path d="M1077.74 557.528C1077.78 565.535 1074.36 573.235 1068.21 578.948C1062.07 584.661 1053.69 587.925 1044.92 588.029L1044.29 588.031C1037.6 588.019 1031.06 586.162 1025.55 582.704C1020.03 579.246 1015.78 574.348 1013.36 568.651C1010.95 562.954 1010.47 556.725 1012 550.778C1013.53 544.831 1016.99 539.445 1021.93 535.324C1022.06 535.18 1022.18 535.108 1022.18 535.129L1022.41 534.954L1022.53 534.861L1022.67 534.748L1025.07 533.011C1025.21 532.869 1025.36 532.745 1025.53 532.641C1030.52 529.495 1036.35 527.652 1042.4 527.311C1048.45 526.97 1054.49 528.143 1059.87 530.705C1065.24 533.266 1069.75 537.119 1072.9 541.846C1076.05 546.573 1077.73 551.996 1077.75 557.528L1077.74 557.528ZM1028 541.312C1024.4 544.327 1021.88 548.26 1020.77 552.6C1019.66 556.939 1020 561.484 1021.76 565.644C1023.51 569.803 1026.6 573.385 1030.61 575.923C1034.63 578.461 1039.39 579.838 1044.27 579.874L1044.8 579.873C1051.17 579.704 1057.22 577.263 1061.64 573.073C1066.06 568.884 1068.51 563.28 1068.46 557.463C1068.4 551.645 1065.85 546.078 1061.36 541.955C1056.86 537.831 1050.77 535.48 1044.39 535.406C1039.53 535.42 1034.78 536.777 1030.77 539.297L1028.24 541.147L1028.01 541.291L1028 541.312Z" fill="#EAEAEA" fill-opacity="0.2"/>
<path d="M1495.03 586.014C1495.07 594.021 1491.65 601.721 1485.5 607.434C1479.36 613.147 1470.98 616.411 1462.21 616.515L1461.58 616.517C1454.89 616.504 1448.35 614.648 1442.84 611.19C1437.32 607.732 1433.07 602.834 1430.65 597.137C1428.24 591.44 1427.76 585.211 1429.29 579.264C1430.82 573.317 1434.28 567.931 1439.22 563.809C1439.35 563.666 1439.46 563.594 1439.46 563.614L1439.7 563.44L1439.82 563.347L1439.96 563.234L1442.36 561.497C1442.49 561.355 1442.65 561.23 1442.82 561.127C1447.81 557.981 1453.64 556.138 1459.69 555.797C1465.74 555.456 1471.78 556.629 1477.16 559.191C1482.53 561.752 1487.04 565.604 1490.19 570.332C1493.34 575.059 1495.02 580.481 1495.04 586.014L1495.03 586.014ZM1445.29 569.798C1441.69 572.813 1439.17 576.746 1438.06 581.085C1436.95 585.425 1437.29 589.97 1439.04 594.129C1440.8 598.289 1443.89 601.871 1447.9 604.409C1451.92 606.947 1456.68 608.323 1461.56 608.36L1462.09 608.358C1468.46 608.189 1474.51 605.749 1478.93 601.559C1483.35 597.37 1485.8 591.766 1485.74 585.948C1485.69 580.131 1483.14 574.564 1478.64 570.441C1474.15 566.317 1468.06 563.966 1461.68 563.891C1456.82 563.906 1452.07 565.262 1448.06 567.783L1445.53 569.633L1445.3 569.777L1445.29 569.798Z" fill="#EAEAEA" fill-opacity="0.2"/>
</g>
</svg>
