<svg width="479" height="723" viewBox="0 0 479 723" fill="none" xmlns="http://www.w3.org/2000/svg">
<g opacity="0.5">
<path d="M465.477 31.3495L465.871 138.015C465.878 143.311 463.784 148.393 460.05 152.146C456.316 155.899 451.246 158.016 445.953 158.033L418.329 158.135C415.604 158.142 412.907 157.588 410.405 156.509C407.903 155.429 405.649 153.847 403.784 151.86L403.663 151.729C401.803 149.662 400.36 147.255 399.413 144.641L399.271 144.309C398.642 142.359 398.319 140.324 398.313 138.275L398.178 101.727C398.147 92.6537 395.249 83.8227 389.899 76.4971C384.548 69.1716 377.02 63.7268 368.39 60.9416C367.687 60.7234 367.057 60.3162 366.569 59.7644C366.081 59.2125 365.754 58.5373 365.623 57.8122C365.613 57.7052 365.612 57.5974 365.622 57.4903L365.621 57.0978C365.62 56.4938 365.751 55.897 366.005 55.3487C366.258 54.8004 366.627 54.3138 367.087 53.9226L414.112 15.9724C417.663 13.0911 422.093 11.5123 426.666 11.4983L445.411 11.4289C448.036 11.4178 450.637 11.9244 453.066 12.9197C455.495 13.9149 457.705 15.3794 459.568 17.2293C461.432 19.0792 462.913 21.2784 463.926 23.7012C464.94 26.124 465.467 28.7229 465.477 31.3495ZM436.551 150.088L445.924 150.053C449.087 150.044 452.118 148.78 454.351 146.538C456.584 144.297 457.838 141.26 457.837 138.095L457.442 31.3793C457.422 28.2113 456.147 25.1805 453.898 22.9515C451.648 20.7225 448.606 19.4774 445.44 19.4891L426.675 19.5586C423.938 19.6049 421.294 20.5637 419.163 22.2833L377.423 55.9573C386.03 60.1165 393.294 66.6156 398.383 74.7115C403.473 82.8074 406.183 92.1731 406.203 101.738C406.204 102.15 406.206 102.522 406.207 102.985C406.221 103.163 406.221 103.341 406.209 103.519L406.338 138.285C406.35 139.44 406.52 140.587 406.844 141.695C407.452 143.43 408.398 145.027 409.626 146.394C410.734 147.586 412.077 148.535 413.569 149.183C415.062 149.83 416.672 150.161 418.299 150.156L435.566 150.092C435.708 150.062 435.853 150.044 435.998 150.04C436.184 150.036 436.369 150.053 436.551 150.088Z" fill="#EAEAEA" fill-opacity="0.2"/>
<path d="M465.477 31.3495L465.871 138.015C465.878 143.311 463.784 148.393 460.05 152.146C456.316 155.899 451.246 158.016 445.953 158.033L418.329 158.135C415.604 158.142 412.907 157.588 410.405 156.509C407.903 155.429 405.649 153.847 403.784 151.86L403.663 151.729C401.803 149.662 400.36 147.255 399.413 144.641L399.271 144.309C398.642 142.359 398.319 140.324 398.313 138.275L398.178 101.727C398.147 92.6537 395.249 83.8227 389.899 76.4971C384.548 69.1716 377.02 63.7268 368.39 60.9416C367.687 60.7234 367.057 60.3162 366.569 59.7644C366.081 59.2125 365.754 58.5373 365.623 57.8122C365.613 57.7052 365.612 57.5974 365.622 57.4903L365.621 57.0978C365.62 56.4938 365.751 55.897 366.005 55.3487C366.258 54.8004 366.627 54.3138 367.087 53.9226L414.112 15.9724C417.663 13.0911 422.093 11.5123 426.666 11.4983L445.411 11.4289C448.036 11.4178 450.637 11.9244 453.066 12.9197C455.495 13.9149 457.705 15.3794 459.568 17.2293C461.432 19.0792 462.913 21.2784 463.926 23.7012C464.94 26.124 465.467 28.7229 465.477 31.3495ZM436.551 150.088L445.924 150.053C449.087 150.044 452.118 148.78 454.351 146.538C456.584 144.297 457.838 141.26 457.837 138.095L457.442 31.3793C457.422 28.2113 456.147 25.1805 453.898 22.9515C451.648 20.7225 448.606 19.4774 445.44 19.4891L426.675 19.5586C423.938 19.6049 421.294 20.5637 419.163 22.2833L377.423 55.9573C386.03 60.1165 393.294 66.6156 398.383 74.7115C403.473 82.8074 406.183 92.1731 406.203 101.738C406.204 102.15 406.206 102.522 406.207 102.985C406.221 103.163 406.221 103.341 406.209 103.519L406.338 138.285C406.35 139.44 406.52 140.587 406.844 141.695C407.452 143.43 408.398 145.027 409.626 146.394C410.734 147.586 412.077 148.535 413.569 149.183C415.062 149.83 416.672 150.161 418.299 150.156L435.566 150.092C435.708 150.062 435.853 150.044 435.998 150.04C436.184 150.036 436.369 150.053 436.551 150.088Z" fill="#EAEAEA" fill-opacity="0.2"/>
<path d="M391.336 108.803C391.384 117.729 387.962 126.312 381.814 132.681C375.666 139.051 367.292 142.691 358.516 142.808L357.888 142.81C351.193 142.797 344.657 140.728 339.137 136.874C333.617 133.02 329.37 127.561 326.952 121.211C324.534 114.861 324.058 107.917 325.586 101.288C327.114 94.6589 330.575 88.6539 335.516 84.0593C335.65 83.8991 335.762 83.8188 335.762 83.8417L335.997 83.6468L336.12 83.5437L336.254 83.4177L338.658 81.4808C338.792 81.3227 338.946 81.1839 339.117 81.0684C344.104 77.561 349.939 75.5058 355.992 75.1245C362.044 74.7433 368.084 76.0505 373.46 78.9051C378.836 81.7596 383.343 86.0532 386.496 91.3222C389.648 96.5913 391.326 102.636 391.347 108.803L391.336 108.803ZM341.587 90.7336C337.99 94.0953 335.471 98.48 334.358 103.317C333.245 108.155 333.588 113.221 335.344 117.858C337.1 122.494 340.187 126.486 344.204 129.315C348.22 132.143 352.98 133.677 357.865 133.718L358.393 133.716C364.766 133.526 370.813 130.805 375.236 126.134C379.659 121.463 382.106 115.216 382.053 108.731C381.999 102.247 379.45 96.0412 374.95 91.4454C370.451 86.8497 364.361 84.2297 357.985 84.1473C353.117 84.1644 348.368 85.6771 344.36 88.4873L341.833 90.5502L341.598 90.7107L341.587 90.7336Z" fill="#EAEAEA" fill-opacity="0.2"/>
<path d="M325.359 283.98L324.964 177.315C324.932 172.019 322.847 166.952 319.169 163.227C315.49 159.501 310.518 157.421 305.343 157.443L278.332 157.543C275.668 157.556 273.035 158.13 270.597 159.228C268.158 160.326 265.966 161.924 264.157 163.925L264.039 164.056C262.236 166.137 260.843 168.554 259.936 171.176L259.799 171.508C259.199 173.463 258.898 175.501 258.907 177.549L259.042 214.097C259.079 223.171 256.31 232.023 251.132 239.387C245.955 246.752 238.634 252.251 230.216 255.1C229.53 255.323 228.917 255.735 228.444 256.29C227.971 256.846 227.656 257.523 227.534 258.249C227.525 258.356 227.525 258.464 227.535 258.571L227.536 258.964C227.541 259.568 227.673 260.164 227.925 260.71C228.176 261.256 228.541 261.74 228.994 262.128L275.25 299.733C278.743 302.588 283.086 304.134 287.557 304.115L305.886 304.047C308.452 304.039 310.992 303.513 313.36 302.5C315.728 301.487 317.877 300.007 319.686 298.143C321.494 296.28 322.926 294.07 323.899 291.64C324.873 289.209 325.369 286.607 325.359 283.98ZM296.208 165.457L305.372 165.423C308.465 165.409 311.438 166.65 313.638 168.876C315.838 171.101 317.086 174.129 317.108 177.294L317.503 284.009C317.507 287.177 316.283 290.217 314.099 292.463C311.916 294.708 308.951 295.975 305.856 295.987L287.508 296.055C284.831 296.029 282.239 295.089 280.143 293.385L239.084 260.018C247.47 255.796 254.524 249.243 259.441 241.111C264.358 232.978 266.939 223.592 266.889 214.028C266.887 213.615 266.886 213.243 266.884 212.78C266.896 212.603 266.895 212.424 266.882 212.247L266.754 177.48C266.757 176.326 266.915 175.177 267.223 174.067C267.805 172.328 268.718 170.724 269.909 169.348C270.984 168.148 272.29 167.188 273.744 166.53C275.199 165.872 276.771 165.529 278.362 165.523L295.245 165.46C295.384 165.489 295.525 165.505 295.668 165.509C295.849 165.511 296.03 165.493 296.208 165.457Z" fill="#EAEAEA" fill-opacity="0.2"/>
<path d="M251.757 206.518C251.739 197.446 248.194 188.748 241.896 182.321C235.598 175.893 227.057 172.257 218.135 172.204L217.496 172.207C210.69 172.27 204.061 174.422 198.478 178.38C192.895 182.339 188.619 187.92 186.208 194.392C183.798 200.864 183.366 207.925 184.969 214.651C186.573 221.377 190.136 227.455 195.194 232.087C195.331 232.249 195.446 232.33 195.446 232.306L195.686 232.503L195.812 232.607L195.949 232.734L198.408 234.684C198.545 234.844 198.703 234.984 198.877 235.1C203.974 238.627 209.922 240.672 216.078 241.014C222.234 241.356 228.365 239.982 233.809 237.04C239.252 234.098 243.802 229.701 246.967 224.322C250.133 218.943 251.792 212.787 251.768 206.518L251.757 206.518ZM201.316 225.258C197.634 221.868 195.04 217.431 193.872 212.523C192.704 207.614 193.015 202.463 194.765 197.737C196.516 193.011 199.624 188.931 203.686 186.026C207.748 183.121 212.576 181.526 217.542 181.448L218.078 181.446C224.559 181.59 230.726 184.311 235.258 189.025C239.79 193.739 242.325 200.07 242.319 206.661C242.314 213.252 239.769 219.579 235.229 224.283C230.69 228.988 224.517 231.697 218.036 231.829C213.087 231.848 208.248 230.346 204.152 227.52L201.567 225.443L201.327 225.281L201.316 225.258Z" fill="#EAEAEA" fill-opacity="0.2"/>
<path d="M251.757 206.518C251.739 197.446 248.194 188.748 241.896 182.321C235.598 175.893 227.057 172.257 218.135 172.204L217.496 172.207C210.69 172.27 204.061 174.422 198.478 178.38C192.895 182.339 188.619 187.92 186.208 194.392C183.798 200.864 183.366 207.925 184.969 214.651C186.573 221.377 190.136 227.455 195.194 232.087C195.331 232.249 195.446 232.33 195.446 232.306L195.686 232.503L195.812 232.607L195.949 232.734L198.408 234.684C198.545 234.844 198.703 234.984 198.877 235.1C203.974 238.627 209.922 240.672 216.078 241.014C222.234 241.356 228.365 239.982 233.809 237.04C239.252 234.098 243.802 229.701 246.967 224.322C250.133 218.943 251.792 212.787 251.768 206.518L251.757 206.518ZM201.316 225.258C197.634 221.868 195.04 217.431 193.872 212.523C192.704 207.614 193.015 202.463 194.765 197.737C196.516 193.011 199.624 188.931 203.686 186.026C207.748 183.121 212.576 181.526 217.542 181.448L218.078 181.446C224.559 181.59 230.726 184.311 235.258 189.025C239.79 193.739 242.325 200.07 242.319 206.661C242.314 213.252 239.769 219.579 235.229 224.283C230.69 228.988 224.517 231.697 218.036 231.829C213.087 231.848 208.248 230.346 204.152 227.52L201.567 225.443L201.327 225.281L201.316 225.258Z" fill="#EAEAEA" fill-opacity="0.2"/>
<path d="M236.941 701.913L236.546 595.248C236.514 589.952 234.406 584.885 230.686 581.16C226.965 577.435 221.937 575.355 216.703 575.377L189.385 575.478C186.691 575.491 184.028 576.065 181.562 577.163C179.095 578.261 176.879 579.86 175.048 581.86L174.93 581.992C173.106 584.072 171.697 586.49 170.779 589.111L170.641 589.444C170.034 591.398 169.729 593.436 169.739 595.485L169.874 632.033C169.91 641.106 167.109 649.958 161.873 657.323C156.636 664.688 149.232 670.188 140.719 673.037C140.025 673.26 139.405 673.672 138.926 674.227C138.448 674.783 138.129 675.46 138.005 676.186C137.996 676.293 137.996 676.401 138.007 676.508L138.008 676.901C138.012 677.505 138.146 678.1 138.401 678.647C138.655 679.193 139.024 679.677 139.482 680.065L186.262 717.668C189.795 720.523 194.187 722.069 198.709 722.05L217.245 721.981C219.841 721.973 222.41 721.447 224.805 720.434C227.2 719.421 229.374 717.94 231.203 716.076C233.032 714.213 234.48 712.003 235.465 709.573C236.449 707.142 236.951 704.54 236.941 701.913ZM207.464 583.391L216.732 583.356C219.86 583.342 222.867 584.584 225.092 586.809C227.316 589.034 228.578 592.062 228.601 595.227L228.996 701.942C228.999 705.11 227.761 708.151 225.553 710.396C223.345 712.642 220.346 713.909 217.216 713.921L198.659 713.989C195.952 713.963 193.331 713.024 191.21 711.32L149.687 677.954C158.168 673.732 165.303 667.179 170.276 659.046C175.249 650.913 177.86 641.528 177.81 631.963C177.808 631.551 177.807 631.178 177.805 630.716C177.817 630.538 177.816 630.36 177.803 630.182L177.674 595.415C177.678 594.261 177.837 593.113 178.149 592.002C178.738 590.263 179.661 588.659 180.866 587.283C181.953 586.083 183.274 585.123 184.745 584.465C186.216 583.807 187.806 583.464 189.414 583.458L206.489 583.394C206.63 583.423 206.773 583.44 206.917 583.443C207.101 583.445 207.284 583.427 207.464 583.391Z" fill="#EAEAEA" fill-opacity="0.2"/>
<path d="M236.941 701.913L236.546 595.248C236.514 589.952 234.406 584.885 230.686 581.16C226.965 577.435 221.937 575.355 216.703 575.377L189.385 575.478C186.691 575.491 184.028 576.065 181.562 577.163C179.095 578.261 176.879 579.86 175.048 581.86L174.93 581.992C173.106 584.072 171.697 586.49 170.779 589.111L170.641 589.444C170.034 591.398 169.729 593.436 169.739 595.485L169.874 632.033C169.91 641.106 167.109 649.958 161.873 657.323C156.636 664.688 149.232 670.188 140.719 673.037C140.025 673.26 139.405 673.672 138.926 674.227C138.448 674.783 138.129 675.46 138.005 676.186C137.996 676.293 137.996 676.401 138.007 676.508L138.008 676.901C138.012 677.505 138.146 678.1 138.401 678.647C138.655 679.193 139.024 679.677 139.482 680.065L186.262 717.668C189.795 720.523 194.187 722.069 198.709 722.05L217.245 721.981C219.841 721.973 222.41 721.447 224.805 720.434C227.2 719.421 229.374 717.94 231.203 716.076C233.032 714.213 234.48 712.003 235.465 709.573C236.449 707.142 236.951 704.54 236.941 701.913ZM207.464 583.391L216.732 583.356C219.86 583.342 222.867 584.584 225.092 586.809C227.316 589.034 228.578 592.062 228.601 595.227L228.996 701.942C228.999 705.11 227.761 708.151 225.553 710.396C223.345 712.642 220.346 713.909 217.216 713.921L198.659 713.989C195.952 713.963 193.331 713.024 191.21 711.32L149.687 677.954C158.168 673.732 165.303 667.179 170.276 659.046C175.249 650.913 177.86 641.528 177.81 631.963C177.808 631.551 177.807 631.178 177.805 630.716C177.817 630.538 177.816 630.36 177.803 630.182L177.674 595.415C177.678 594.261 177.837 593.113 178.149 592.002C178.738 590.263 179.661 588.659 180.866 587.283C181.953 586.083 183.274 585.123 184.745 584.465C186.216 583.807 187.806 583.464 189.414 583.458L206.489 583.394C206.63 583.423 206.773 583.44 206.917 583.443C207.101 583.445 207.284 583.427 207.464 583.391Z" fill="#EAEAEA" fill-opacity="0.2"/>
<path d="M162.23 624.456C162.211 615.383 158.782 606.685 152.69 600.257C146.598 593.828 138.336 590.191 129.706 590.137L129.088 590.14C122.505 590.202 116.094 592.353 110.695 596.311C105.295 600.269 101.16 605.849 98.8291 612.321C96.4984 618.792 96.0816 625.854 97.6332 632.58C99.1848 639.306 102.632 645.384 107.525 650.017C107.657 650.179 107.768 650.26 107.768 650.237L108 650.433L108.122 650.537L108.255 650.664L110.634 652.615C110.766 652.775 110.919 652.914 111.088 653.031C116.018 656.558 121.771 658.604 127.725 658.947C133.679 659.29 139.609 657.916 144.874 654.975C150.139 652.034 154.539 647.637 157.6 642.258C160.66 636.88 162.265 630.724 162.241 624.455L162.23 624.456ZM113.445 643.189C109.883 639.799 107.374 635.361 106.244 630.453C105.113 625.544 105.414 620.393 107.106 615.667C108.798 610.942 111.804 606.862 115.732 603.957C119.661 601.053 124.33 599.458 129.133 599.381L129.652 599.379C135.92 599.524 141.886 602.246 146.27 606.96C150.654 611.674 153.106 618.006 153.102 624.597C153.097 631.188 150.636 637.514 146.246 642.218C141.856 646.923 135.887 649.631 129.618 649.762C124.831 649.78 120.15 648.278 116.189 645.451L113.688 643.374L113.456 643.212L113.445 643.189Z" fill="#EAEAEA" fill-opacity="0.2"/>
<path d="M184.855 432.066L184.457 324.592C184.451 319.256 186.544 314.136 190.278 310.354C194.013 306.573 199.082 304.44 204.375 304.423L232 304.321C234.724 304.314 237.421 304.872 239.923 305.96C242.425 307.048 244.679 308.642 246.545 310.644L246.666 310.776C248.525 312.858 249.969 315.284 250.916 317.918L251.058 318.252C251.687 320.217 252.01 322.268 252.016 324.332L252.152 361.157C252.183 370.299 255.081 379.197 260.432 386.578C265.782 393.959 273.311 399.446 281.941 402.252C282.644 402.472 283.274 402.882 283.762 403.438C284.25 403.994 284.577 404.675 284.708 405.405C284.718 405.513 284.718 405.622 284.709 405.73L284.71 406.125C284.711 406.734 284.58 407.335 284.326 407.888C284.073 408.44 283.704 408.93 283.244 409.324L236.221 447.561C232.669 450.464 228.239 452.054 223.667 452.068L204.922 452.138C202.297 452.149 199.695 451.638 197.266 450.636C194.837 449.633 192.627 448.157 190.764 446.293C188.9 444.429 187.419 442.213 186.406 439.772C185.392 437.331 184.865 434.712 184.855 432.066ZM213.777 312.428L204.405 312.463C201.241 312.472 198.211 313.746 195.978 316.004C193.744 318.263 192.491 321.323 192.492 324.512L192.89 432.036C192.91 435.228 194.184 438.282 196.434 440.528C198.684 442.774 201.726 444.028 204.892 444.016L223.657 443.947C226.394 443.9 229.038 442.934 231.169 441.202L272.908 407.274C264.301 403.083 257.037 396.534 251.947 388.377C246.857 380.22 244.147 370.783 244.127 361.146C244.125 360.73 244.124 360.355 244.122 359.889C244.109 359.71 244.108 359.53 244.12 359.352L243.991 324.321C243.978 323.158 243.808 322.003 243.485 320.886C242.877 319.138 241.931 317.529 240.702 316.151C239.594 314.95 238.252 313.993 236.759 313.341C235.266 312.689 233.656 312.355 232.029 312.361L214.763 312.425C214.62 312.455 214.476 312.472 214.33 312.477C214.145 312.48 213.959 312.464 213.777 312.428Z" fill="#EAEAEA" fill-opacity="0.2"/>
<path d="M184.855 432.066L184.457 324.592C184.451 319.256 186.544 314.136 190.278 310.354C194.013 306.573 199.082 304.44 204.375 304.423L232 304.321C234.724 304.314 237.421 304.872 239.923 305.96C242.425 307.048 244.679 308.642 246.545 310.644L246.666 310.776C248.525 312.858 249.969 315.284 250.916 317.918L251.058 318.252C251.687 320.217 252.01 322.268 252.016 324.332L252.152 361.157C252.183 370.299 255.081 379.197 260.432 386.578C265.782 393.959 273.311 399.446 281.941 402.252C282.644 402.472 283.274 402.882 283.762 403.438C284.25 403.994 284.577 404.675 284.708 405.405C284.718 405.513 284.718 405.622 284.709 405.73L284.71 406.125C284.711 406.734 284.58 407.335 284.326 407.888C284.073 408.44 283.704 408.93 283.244 409.324L236.221 447.561C232.669 450.464 228.239 452.054 223.667 452.068L204.922 452.138C202.297 452.149 199.695 451.638 197.266 450.636C194.837 449.633 192.627 448.157 190.764 446.293C188.9 444.429 187.419 442.213 186.406 439.772C185.392 437.331 184.865 434.712 184.855 432.066ZM213.777 312.428L204.405 312.463C201.241 312.472 198.211 313.746 195.978 316.004C193.744 318.263 192.491 321.323 192.492 324.512L192.89 432.036C192.91 435.228 194.184 438.282 196.434 440.528C198.684 442.774 201.726 444.028 204.892 444.016L223.657 443.947C226.394 443.9 229.038 442.934 231.169 441.202L272.908 407.274C264.301 403.083 257.037 396.534 251.947 388.377C246.857 380.22 244.147 370.783 244.127 361.146C244.125 360.73 244.124 360.355 244.122 359.889C244.109 359.71 244.108 359.53 244.12 359.352L243.991 324.321C243.978 323.158 243.808 322.003 243.485 320.886C242.877 319.138 241.931 317.529 240.702 316.151C239.594 314.95 238.252 313.993 236.759 313.341C235.266 312.689 233.656 312.355 232.029 312.361L214.763 312.425C214.62 312.455 214.476 312.472 214.33 312.477C214.145 312.48 213.959 312.464 213.777 312.428Z" fill="#EAEAEA" fill-opacity="0.2"/>
<path d="M260.099 354.204C260.051 345.132 263.416 336.409 269.46 329.936C275.504 323.462 283.739 319.764 292.368 319.646L292.986 319.644C299.57 319.658 305.996 321.762 311.425 325.679C316.853 329.597 321.03 335.147 323.409 341.601C325.787 348.055 326.256 355.113 324.754 361.851C323.253 368.588 319.85 374.691 314.992 379.361C314.861 379.523 314.751 379.605 314.751 379.582L314.52 379.78L314.399 379.885L314.267 380.013L311.903 381.981C311.771 382.142 311.62 382.283 311.452 382.4C306.548 385.964 300.81 388.053 294.859 388.439C288.907 388.826 282.967 387.497 277.681 384.595C272.394 381.693 267.962 377.328 264.861 371.972C261.761 366.617 260.111 360.473 260.088 354.204L260.099 354.204ZM309.022 372.576C312.558 369.16 315.034 364.704 316.128 359.787C317.223 354.87 316.884 349.721 315.157 345.008C313.43 340.296 310.394 336.238 306.444 333.362C302.494 330.487 297.813 328.927 293.009 328.886L292.491 328.888C286.223 329.079 280.278 331.845 275.929 336.591C271.58 341.338 269.175 347.687 269.228 354.278C269.281 360.869 271.789 367.177 276.214 371.849C280.639 376.52 286.628 379.184 292.898 379.268C297.685 379.252 302.354 377.715 306.295 374.859L308.78 372.763L309.011 372.599L309.022 372.576Z" fill="#EAEAEA" fill-opacity="0.2"/>
<path d="M260.099 354.204C260.051 345.132 263.416 336.409 269.46 329.936C275.504 323.462 283.739 319.764 292.368 319.646L292.986 319.644C299.57 319.658 305.996 321.762 311.425 325.679C316.853 329.597 321.03 335.147 323.409 341.601C325.787 348.055 326.256 355.113 324.754 361.851C323.253 368.588 319.85 374.691 314.992 379.361C314.861 379.523 314.751 379.605 314.751 379.582L314.52 379.78L314.399 379.885L314.267 380.013L311.903 381.981C311.771 382.142 311.62 382.283 311.452 382.4C306.548 385.964 300.81 388.053 294.859 388.439C288.907 388.826 282.967 387.497 277.681 384.595C272.394 381.693 267.962 377.328 264.861 371.972C261.761 366.617 260.111 360.473 260.088 354.204L260.099 354.204ZM309.022 372.576C312.558 369.16 315.034 364.704 316.128 359.787C317.223 354.87 316.884 349.721 315.157 345.008C313.43 340.296 310.394 336.238 306.444 333.362C302.494 330.487 297.813 328.927 293.009 328.886L292.491 328.888C286.223 329.079 280.278 331.845 275.929 336.591C271.58 341.338 269.175 347.687 269.228 354.278C269.281 360.869 271.789 367.177 276.214 371.849C280.639 376.52 286.628 379.184 292.898 379.268C297.685 379.252 302.354 377.715 306.295 374.859L308.78 372.763L309.011 372.599L309.022 372.576Z" fill="#EAEAEA" fill-opacity="0.2"/>
<path d="M340.512 177.308L340.907 283.973C340.94 289.269 343.071 294.335 346.833 298.061C350.595 301.786 355.68 303.866 360.972 303.843L388.597 303.741C391.322 303.727 394.015 303.154 396.509 302.056C399.002 300.958 401.244 299.359 403.095 297.358L403.215 297.226C405.06 295.146 406.485 292.728 407.413 290.107L407.552 289.774C408.167 287.82 408.475 285.782 408.465 283.733L408.33 247.185C408.294 238.112 411.126 229.259 416.422 221.894C421.718 214.53 429.206 209.029 437.815 206.18C438.516 205.957 439.143 205.545 439.627 204.989C440.111 204.434 440.433 203.756 440.558 203.03C440.568 202.923 440.568 202.815 440.557 202.708L440.556 202.316C440.551 201.712 440.416 201.116 440.159 200.57C439.901 200.023 439.528 199.539 439.066 199.152L391.762 161.551C388.189 158.696 383.747 157.15 379.175 157.17L360.43 157.239C357.805 157.247 355.207 157.773 352.786 158.786C350.364 159.8 348.165 161.28 346.316 163.144C344.466 165.008 343.001 167.218 342.005 169.648C341.01 172.078 340.502 174.681 340.512 177.308ZM370.315 295.829L360.943 295.863C357.78 295.878 354.74 294.636 352.49 292.411C350.24 290.186 348.964 287.159 348.942 283.993L348.547 177.278C348.543 174.11 349.795 171.07 352.028 168.824C354.262 166.579 357.294 165.311 360.46 165.299L379.225 165.23C381.962 165.256 384.613 166.195 386.757 167.899L428.746 201.263C420.169 205.486 412.954 212.038 407.924 220.172C402.895 228.305 400.254 237.691 400.305 247.255C400.307 247.667 400.308 248.04 400.31 248.503C400.298 248.68 400.298 248.858 400.312 249.036L400.44 283.803C400.437 284.957 400.275 286.105 399.96 287.216C399.365 288.955 398.431 290.559 397.212 291.935C396.113 293.136 394.778 294.095 393.29 294.753C391.802 295.412 390.194 295.755 388.568 295.761L371.301 295.825C371.158 295.796 371.014 295.78 370.868 295.776C370.683 295.774 370.497 295.792 370.315 295.829Z" fill="#EAEAEA" fill-opacity="0.2"/>
<path d="M340.512 177.308L340.907 283.973C340.94 289.269 343.071 294.335 346.833 298.061C350.595 301.786 355.68 303.866 360.972 303.843L388.597 303.741C391.322 303.727 394.015 303.154 396.509 302.056C399.002 300.958 401.244 299.359 403.095 297.358L403.215 297.226C405.06 295.146 406.485 292.728 407.413 290.107L407.552 289.774C408.167 287.82 408.475 285.782 408.465 283.733L408.33 247.185C408.294 238.112 411.126 229.259 416.422 221.894C421.718 214.53 429.206 209.029 437.815 206.18C438.516 205.957 439.143 205.545 439.627 204.989C440.111 204.434 440.433 203.756 440.558 203.03C440.568 202.923 440.568 202.815 440.557 202.708L440.556 202.316C440.551 201.712 440.416 201.116 440.159 200.57C439.901 200.023 439.528 199.539 439.066 199.152L391.762 161.551C388.189 158.696 383.747 157.15 379.175 157.17L360.43 157.239C357.805 157.247 355.207 157.773 352.786 158.786C350.364 159.8 348.165 161.28 346.316 163.144C344.466 165.008 343.001 167.218 342.005 169.648C341.01 172.078 340.502 174.681 340.512 177.308ZM370.315 295.829L360.943 295.863C357.78 295.878 354.74 294.636 352.49 292.411C350.24 290.186 348.964 287.159 348.942 283.993L348.547 177.278C348.543 174.11 349.795 171.07 352.028 168.824C354.262 166.579 357.294 165.311 360.46 165.299L379.225 165.23C381.962 165.256 384.613 166.195 386.757 167.899L428.746 201.263C420.169 205.486 412.954 212.038 407.924 220.172C402.895 228.305 400.254 237.691 400.305 247.255C400.307 247.667 400.308 248.04 400.31 248.503C400.298 248.68 400.298 248.858 400.312 249.036L400.44 283.803C400.437 284.957 400.275 286.105 399.96 287.216C399.365 288.955 398.431 290.559 397.212 291.935C396.113 293.136 394.778 294.095 393.29 294.753C391.802 295.412 390.194 295.755 388.568 295.761L371.301 295.825C371.158 295.796 371.014 295.78 370.868 295.776C370.683 295.774 370.497 295.792 370.315 295.829Z" fill="#EAEAEA" fill-opacity="0.2"/>
<path d="M416.329 253.651C416.348 262.723 419.777 271.421 425.869 277.849C431.961 284.278 440.222 287.915 448.853 287.969L449.47 287.966C456.054 287.904 462.465 285.753 467.864 281.795C473.263 277.837 477.399 272.257 479.73 265.785C482.06 259.314 482.477 252.252 480.925 245.526C479.374 238.8 475.926 232.722 471.034 228.089C470.901 227.927 470.791 227.846 470.791 227.869L470.558 227.673L470.436 227.569L470.304 227.442L467.925 225.491C467.792 225.332 467.64 225.192 467.471 225.075C462.541 221.548 456.788 219.502 450.834 219.159C444.879 218.817 438.95 220.19 433.685 223.131C428.42 226.072 424.02 230.469 420.959 235.848C417.898 241.226 416.294 247.382 416.318 253.651L416.329 253.651ZM465.114 234.917C468.675 238.307 471.184 242.745 472.315 247.653C473.445 252.562 473.145 257.713 471.453 262.439C469.761 267.164 466.755 271.244 462.826 274.149C458.898 277.054 454.228 278.648 449.425 278.725L448.907 278.727C442.638 278.582 436.672 275.86 432.289 271.146C427.905 266.432 425.452 260.1 425.457 253.509C425.461 246.918 427.922 240.592 432.312 235.888C436.703 231.183 442.672 228.475 448.941 228.344C453.728 228.326 458.409 229.828 462.37 232.655L464.871 234.733L465.103 234.894L465.114 234.917Z" fill="#EAEAEA" fill-opacity="0.2"/>
<path d="M416.329 253.651C416.348 262.723 419.777 271.421 425.869 277.849C431.961 284.278 440.222 287.915 448.853 287.969L449.47 287.966C456.054 287.904 462.465 285.753 467.864 281.795C473.263 277.837 477.399 272.257 479.73 265.785C482.06 259.314 482.477 252.252 480.925 245.526C479.374 238.8 475.926 232.722 471.034 228.089C470.901 227.927 470.791 227.846 470.791 227.869L470.558 227.673L470.436 227.569L470.304 227.442L467.925 225.491C467.792 225.332 467.64 225.192 467.471 225.075C462.541 221.548 456.788 219.502 450.834 219.159C444.879 218.817 438.95 220.19 433.685 223.131C428.42 226.072 424.02 230.469 420.959 235.848C417.898 241.226 416.294 247.382 416.318 253.651L416.329 253.651ZM465.114 234.917C468.675 238.307 471.184 242.745 472.315 247.653C473.445 252.562 473.145 257.713 471.453 262.439C469.761 267.164 466.755 271.244 462.826 274.149C458.898 277.054 454.228 278.648 449.425 278.725L448.907 278.727C442.638 278.582 436.672 275.86 432.289 271.146C427.905 266.432 425.452 260.1 425.457 253.509C425.461 246.918 427.922 240.592 432.312 235.888C436.703 231.183 442.672 228.475 448.941 228.344C453.728 228.326 458.409 229.828 462.37 232.655L464.871 234.733L465.103 234.894L465.114 234.917Z" fill="#EAEAEA" fill-opacity="0.2"/>
<path d="M382.461 408.168L382.856 514.833C382.862 520.129 380.768 525.212 377.034 528.965C373.3 532.718 368.23 534.835 362.938 534.852L335.313 534.954C332.588 534.961 329.891 534.407 327.389 533.327C324.887 532.248 322.634 530.665 320.768 528.678L320.647 528.548C318.787 526.481 317.344 524.074 316.397 521.459L316.255 521.128C315.626 519.178 315.303 517.142 315.297 515.094L315.162 478.546C315.131 469.472 312.233 460.641 306.883 453.316C301.533 445.99 294.004 440.546 285.375 437.76C284.671 437.542 284.041 437.135 283.554 436.583C283.066 436.031 282.738 435.356 282.608 434.631C282.597 434.524 282.597 434.416 282.606 434.309L282.605 433.917C282.605 433.313 282.736 432.716 282.989 432.167C283.242 431.619 283.612 431.133 284.072 430.741L331.096 392.791C334.648 389.91 339.078 388.331 343.65 388.317L362.395 388.248C365.02 388.237 367.621 388.743 370.05 389.738C372.48 390.734 374.689 392.198 376.553 394.048C378.416 395.898 379.897 398.097 380.911 400.52C381.924 402.943 382.451 405.542 382.461 408.168ZM353.536 526.907L362.908 526.872C366.071 526.863 369.102 525.599 371.335 523.357C373.569 521.115 374.822 518.079 374.821 514.913L374.426 408.198C374.406 405.03 373.132 401.999 370.882 399.77C368.632 397.541 365.591 396.296 362.425 396.308L343.66 396.377C340.922 396.424 338.279 397.382 336.148 399.102L294.407 432.776C303.014 436.935 310.278 443.434 315.368 451.53C320.457 459.626 323.167 468.992 323.187 478.556C323.189 478.969 323.19 479.341 323.192 479.804C323.205 479.982 323.206 480.16 323.194 480.337L323.323 515.104C323.335 516.258 323.505 517.406 323.828 518.514C324.436 520.249 325.382 521.846 326.611 523.213C327.719 524.405 329.061 525.354 330.554 526.002C332.046 526.649 333.657 526.98 335.283 526.974L352.55 526.91C352.692 526.88 352.837 526.863 352.982 526.858C353.168 526.855 353.353 526.871 353.536 526.907Z" fill="#EAEAEA" fill-opacity="0.2"/>
<path d="M382.461 408.168L382.856 514.833C382.862 520.129 380.768 525.212 377.034 528.965C373.3 532.718 368.23 534.835 362.938 534.852L335.313 534.954C332.588 534.961 329.891 534.407 327.389 533.327C324.887 532.248 322.634 530.665 320.768 528.678L320.647 528.548C318.787 526.481 317.344 524.074 316.397 521.459L316.255 521.128C315.626 519.178 315.303 517.142 315.297 515.094L315.162 478.546C315.131 469.472 312.233 460.641 306.883 453.316C301.533 445.99 294.004 440.546 285.375 437.76C284.671 437.542 284.041 437.135 283.554 436.583C283.066 436.031 282.738 435.356 282.608 434.631C282.597 434.524 282.597 434.416 282.606 434.309L282.605 433.917C282.605 433.313 282.736 432.716 282.989 432.167C283.242 431.619 283.612 431.133 284.072 430.741L331.096 392.791C334.648 389.91 339.078 388.331 343.65 388.317L362.395 388.248C365.02 388.237 367.621 388.743 370.05 389.738C372.48 390.734 374.689 392.198 376.553 394.048C378.416 395.898 379.897 398.097 380.911 400.52C381.924 402.943 382.451 405.542 382.461 408.168ZM353.536 526.907L362.908 526.872C366.071 526.863 369.102 525.599 371.335 523.357C373.569 521.115 374.822 518.079 374.821 514.913L374.426 408.198C374.406 405.03 373.132 401.999 370.882 399.77C368.632 397.541 365.591 396.296 362.425 396.308L343.66 396.377C340.922 396.424 338.279 397.382 336.148 399.102L294.407 432.776C303.014 436.935 310.278 443.434 315.368 451.53C320.457 459.626 323.167 468.992 323.187 478.556C323.189 478.969 323.19 479.341 323.192 479.804C323.205 479.982 323.206 480.16 323.194 480.337L323.323 515.104C323.335 516.258 323.505 517.406 323.828 518.514C324.436 520.249 325.382 521.846 326.611 523.213C327.719 524.405 329.061 525.354 330.554 526.002C332.046 526.649 333.657 526.98 335.283 526.974L352.55 526.91C352.692 526.88 352.837 526.863 352.982 526.858C353.168 526.855 353.353 526.871 353.536 526.907Z" fill="#EAEAEA" fill-opacity="0.2"/>
<path d="M307.213 486.181C307.262 495.253 303.897 503.977 297.853 510.45C291.808 516.923 283.574 520.621 274.944 520.739L274.327 520.741C267.743 520.728 261.316 518.624 255.888 514.706C250.459 510.788 246.282 505.239 243.904 498.785C241.525 492.331 241.056 485.273 242.558 478.535C244.06 471.797 247.462 465.694 252.32 461.025C252.452 460.862 252.562 460.78 252.562 460.804L252.793 460.606L252.914 460.501L253.046 460.373L255.41 458.404C255.541 458.244 255.693 458.103 255.861 457.985C260.765 454.421 266.502 452.333 272.454 451.946C278.405 451.559 284.345 452.889 289.632 455.791C294.918 458.693 299.351 463.057 302.451 468.413C305.552 473.769 307.202 479.913 307.224 486.181L307.213 486.181ZM258.291 467.809C254.754 471.226 252.278 475.682 251.184 480.598C250.09 485.515 250.428 490.664 252.156 495.377C253.883 500.09 256.919 504.148 260.869 507.023C264.819 509.899 269.5 511.458 274.303 511.5L274.822 511.498C281.089 511.306 287.035 508.541 291.383 503.794C295.732 499.048 298.138 492.698 298.084 486.107C298.031 479.516 295.523 473.209 291.098 468.537C286.674 463.865 280.684 461.202 274.415 461.117C269.628 461.134 264.958 462.671 261.018 465.527L258.533 467.623L258.302 467.786L258.291 467.809Z" fill="#EAEAEA" fill-opacity="0.2"/>
<path d="M307.213 486.181C307.262 495.253 303.897 503.977 297.853 510.45C291.808 516.923 283.574 520.621 274.944 520.739L274.327 520.741C267.743 520.728 261.316 518.624 255.888 514.706C250.459 510.788 246.282 505.239 243.904 498.785C241.525 492.331 241.056 485.273 242.558 478.535C244.06 471.797 247.462 465.694 252.32 461.025C252.452 460.862 252.562 460.78 252.562 460.804L252.793 460.606L252.914 460.501L253.046 460.373L255.41 458.404C255.541 458.244 255.693 458.103 255.861 457.985C260.765 454.421 266.502 452.333 272.454 451.946C278.405 451.559 284.345 452.889 289.632 455.791C294.918 458.693 299.351 463.057 302.451 468.413C305.552 473.769 307.202 479.913 307.224 486.181L307.213 486.181ZM258.291 467.809C254.754 471.226 252.278 475.682 251.184 480.598C250.09 485.515 250.428 490.664 252.156 495.377C253.883 500.09 256.919 504.148 260.869 507.023C264.819 509.899 269.5 511.458 274.303 511.5L274.822 511.498C281.089 511.306 287.035 508.541 291.383 503.794C295.732 499.048 298.138 492.698 298.084 486.107C298.031 479.516 295.523 473.209 291.098 468.537C286.674 463.865 280.684 461.202 274.415 461.117C269.628 461.134 264.958 462.671 261.018 465.527L258.533 467.623L258.302 467.786L258.291 467.809Z" fill="#EAEAEA" fill-opacity="0.2"/>
<path d="M256.387 554.282L256.785 661.755C256.818 667.091 258.973 672.196 262.777 675.95C266.58 679.703 271.722 681.799 277.074 681.776L305.005 681.673C307.76 681.659 310.483 681.081 313.004 679.974C315.526 678.868 317.793 677.257 319.664 675.241L319.786 675.109C321.651 673.012 323.092 670.576 324.03 667.935L324.171 667.6C324.792 665.63 325.104 663.577 325.094 661.513L324.958 624.688C324.921 615.546 327.785 606.627 333.14 599.206C338.495 591.785 346.066 586.243 354.771 583.372C355.48 583.147 356.114 582.732 356.603 582.172C357.092 581.613 357.418 580.93 357.545 580.198C357.555 580.09 357.554 579.982 357.544 579.874L357.542 579.479C357.538 578.87 357.401 578.27 357.141 577.719C356.881 577.169 356.504 576.681 356.036 576.29L308.207 538.405C304.594 535.529 300.103 533.971 295.48 533.991L276.527 534.061C273.873 534.07 271.246 534.599 268.798 535.62C266.349 536.641 264.126 538.133 262.256 540.011C260.385 541.889 258.904 544.116 257.897 546.564C256.891 549.013 256.377 551.636 256.387 554.282ZM286.52 673.701L277.044 673.736C273.845 673.75 270.772 672.499 268.497 670.257C266.222 668.015 264.932 664.965 264.909 661.776L264.511 554.252C264.508 551.06 265.774 547.997 268.032 545.734C270.29 543.472 273.356 542.194 276.557 542.182L295.53 542.112C298.298 542.138 300.979 543.085 303.146 544.801L345.601 578.418C336.929 582.672 329.634 589.275 324.548 597.47C319.463 605.665 316.793 615.122 316.844 624.758C316.845 625.174 316.847 625.549 316.849 626.016C316.836 626.195 316.837 626.374 316.851 626.553L316.98 661.583C316.977 662.746 316.813 663.903 316.495 665.022C315.893 666.775 314.948 668.391 313.716 669.778C312.605 670.987 311.255 671.954 309.75 672.617C308.246 673.28 306.62 673.626 304.975 673.632L287.517 673.697C287.373 673.668 287.226 673.651 287.079 673.648C286.892 673.646 286.704 673.664 286.52 673.701Z" fill="#EAEAEA" fill-opacity="0.2"/>
<path d="M256.387 554.282L256.785 661.755C256.818 667.091 258.973 672.196 262.777 675.95C266.58 679.703 271.722 681.799 277.074 681.776L305.005 681.673C307.76 681.659 310.483 681.081 313.004 679.974C315.526 678.868 317.793 677.257 319.664 675.241L319.786 675.109C321.651 673.012 323.092 670.576 324.03 667.935L324.171 667.6C324.792 665.63 325.104 663.577 325.094 661.513L324.958 624.688C324.921 615.546 327.785 606.627 333.14 599.206C338.495 591.785 346.066 586.243 354.771 583.372C355.48 583.147 356.114 582.732 356.603 582.172C357.092 581.613 357.418 580.93 357.545 580.198C357.555 580.09 357.554 579.982 357.544 579.874L357.542 579.479C357.538 578.87 357.401 578.27 357.141 577.719C356.881 577.169 356.504 576.681 356.036 576.29L308.207 538.405C304.594 535.529 300.103 533.971 295.48 533.991L276.527 534.061C273.873 534.07 271.246 534.599 268.798 535.62C266.349 536.641 264.126 538.133 262.256 540.011C260.385 541.889 258.904 544.116 257.897 546.564C256.891 549.013 256.377 551.636 256.387 554.282ZM286.52 673.701L277.044 673.736C273.845 673.75 270.772 672.499 268.497 670.257C266.222 668.015 264.932 664.965 264.909 661.776L264.511 554.252C264.508 551.06 265.774 547.997 268.032 545.734C270.29 543.472 273.356 542.194 276.557 542.182L295.53 542.112C298.298 542.138 300.979 543.085 303.146 544.801L345.601 578.418C336.929 582.672 329.634 589.275 324.548 597.47C319.463 605.665 316.793 615.122 316.844 624.758C316.845 625.174 316.847 625.549 316.849 626.016C316.836 626.195 316.837 626.374 316.851 626.553L316.98 661.583C316.977 662.746 316.813 663.903 316.495 665.022C315.893 666.775 314.948 668.391 313.716 669.778C312.605 670.987 311.255 671.954 309.75 672.617C308.246 673.28 306.62 673.626 304.975 673.632L287.517 673.697C287.373 673.668 287.226 673.651 287.079 673.648C286.892 673.646 286.704 673.664 286.52 673.701Z" fill="#EAEAEA" fill-opacity="0.2"/>
<path d="M332.206 631.029C332.224 639.955 335.71 648.512 341.905 654.836C348.099 661.16 356.5 664.738 365.277 664.79L365.905 664.787C372.6 664.725 379.12 662.608 384.611 658.713C390.102 654.818 394.309 649.328 396.68 642.96C399.051 636.593 399.476 629.645 397.898 623.027C396.321 616.41 392.816 610.43 387.842 605.873C387.706 605.713 387.594 605.634 387.594 605.657L387.358 605.464L387.234 605.361L387.099 605.236L384.68 603.317C384.545 603.16 384.39 603.023 384.219 602.908C379.205 599.438 373.355 597.426 367.3 597.09C361.245 596.753 355.215 598.105 349.86 600.999C344.505 603.894 340.03 608.221 336.917 613.513C333.804 618.805 332.171 624.862 332.195 631.029L332.206 631.029ZM381.82 612.592C385.442 615.927 387.993 620.293 389.142 625.122C390.291 629.951 389.985 635.019 388.263 639.669C386.542 644.318 383.484 648.333 379.489 651.191C375.494 654.049 370.745 655.619 365.86 655.695L365.333 655.697C358.958 655.555 352.892 652.878 348.434 648.24C343.977 643.603 341.483 637.373 341.489 630.889C341.494 624.404 343.998 618.179 348.463 613.55C352.928 608.922 358.999 606.257 365.374 606.127C370.242 606.108 375.002 607.586 379.03 610.366L381.573 612.41L381.809 612.569L381.82 612.592Z" fill="#EAEAEA" fill-opacity="0.2"/>
<path d="M332.206 631.029C332.224 639.955 335.71 648.512 341.905 654.836C348.099 661.16 356.5 664.738 365.277 664.79L365.905 664.787C372.6 664.725 379.12 662.608 384.611 658.713C390.102 654.818 394.309 649.328 396.68 642.96C399.051 636.593 399.476 629.645 397.898 623.027C396.321 616.41 392.816 610.43 387.842 605.873C387.706 605.713 387.594 605.634 387.594 605.657L387.358 605.464L387.234 605.361L387.099 605.236L384.68 603.317C384.545 603.16 384.39 603.023 384.219 602.908C379.205 599.438 373.355 597.426 367.3 597.09C361.245 596.753 355.215 598.105 349.86 600.999C344.505 603.894 340.03 608.221 336.917 613.513C333.804 618.805 332.171 624.862 332.195 631.029L332.206 631.029ZM381.82 612.592C385.442 615.927 387.993 620.293 389.142 625.122C390.291 629.951 389.985 635.019 388.263 639.669C386.542 644.318 383.484 648.333 379.489 651.191C375.494 654.049 370.745 655.619 365.86 655.695L365.333 655.697C358.958 655.555 352.892 652.878 348.434 648.24C343.977 643.603 341.483 637.373 341.489 630.889C341.494 624.404 343.998 618.179 348.463 613.55C352.928 608.922 358.999 606.257 365.374 606.127C370.242 606.108 375.002 607.586 379.03 610.366L381.573 612.41L381.809 612.569L381.82 612.592Z" fill="#EAEAEA" fill-opacity="0.2"/>
<path d="M288.076 142.578L182.051 143.355C176.787 143.381 171.728 141.305 167.984 137.585C164.24 133.865 162.117 128.804 162.082 123.513L161.881 95.8938C161.865 93.1697 162.406 90.4713 163.47 87.966C164.534 85.4606 166.099 83.2017 168.067 81.3294L168.196 81.2078C170.244 79.3411 172.632 77.8897 175.227 76.9332L175.557 76.7901C177.492 76.1543 179.515 75.824 181.551 75.811L217.88 75.5447C226.898 75.4812 235.666 72.5522 242.929 67.1768C250.191 61.8014 255.577 54.2549 258.314 45.6168C258.529 44.9129 258.931 44.2817 259.478 43.7919C260.025 43.3021 260.695 42.9725 261.415 42.8391C261.521 42.8284 261.628 42.8276 261.735 42.8368L262.125 42.8339C262.726 42.8315 263.319 42.9604 263.865 43.2116C264.411 43.4629 264.896 43.8304 265.287 44.2888L303.177 91.1679C306.054 94.7086 307.639 99.132 307.67 103.703L307.806 122.444C307.826 125.069 307.332 127.671 306.351 130.104C305.371 132.536 303.923 134.75 302.091 136.62C300.258 138.49 298.078 139.978 295.673 141.001C293.268 142.023 290.687 142.559 288.076 142.578ZM169.945 114.084L170.013 123.455C170.034 126.617 171.301 129.643 173.537 131.868C175.774 134.092 178.797 135.335 181.943 135.322L288.018 134.545C291.167 134.514 294.175 133.228 296.382 130.971C298.59 128.714 299.817 125.669 299.794 122.503L299.658 103.742C299.602 101.005 298.639 98.3657 296.922 96.2411L263.301 54.6296C259.197 63.2501 252.763 70.5358 244.734 75.6533C236.705 80.7709 227.405 83.5138 217.898 83.5683C217.488 83.5713 217.118 83.574 216.658 83.5774C216.481 83.5913 216.304 83.5926 216.127 83.5812L181.569 83.8346C180.422 83.8508 179.282 84.0249 178.182 84.3521C176.46 84.9665 174.876 85.9179 173.521 87.1513C172.34 88.2633 171.401 89.6089 170.763 91.1035C170.125 92.5981 169.801 94.2093 169.813 95.8357L169.938 113.099C169.969 113.241 169.986 113.385 169.991 113.531C169.995 113.716 169.98 113.902 169.945 114.084Z" fill="#EAEAEA" fill-opacity="0.2"/>
<path d="M288.076 142.578L182.051 143.355C176.787 143.381 171.728 141.305 167.984 137.585C164.24 133.865 162.117 128.804 162.082 123.513L161.881 95.8938C161.865 93.1697 162.406 90.4713 163.47 87.966C164.534 85.4606 166.099 83.2017 168.067 81.3294L168.196 81.2078C170.244 79.3411 172.632 77.8897 175.227 76.9332L175.557 76.7901C177.492 76.1543 179.515 75.824 181.551 75.811L217.88 75.5447C226.898 75.4812 235.666 72.5522 242.929 67.1768C250.191 61.8014 255.577 54.2549 258.314 45.6168C258.529 44.9129 258.931 44.2817 259.478 43.7919C260.025 43.3021 260.695 42.9725 261.415 42.8391C261.521 42.8284 261.628 42.8276 261.735 42.8368L262.125 42.8339C262.726 42.8315 263.319 42.9604 263.865 43.2116C264.411 43.4629 264.896 43.8304 265.287 44.2888L303.177 91.1679C306.054 94.7086 307.639 99.132 307.67 103.703L307.806 122.444C307.826 125.069 307.332 127.671 306.351 130.104C305.371 132.536 303.923 134.75 302.091 136.62C300.258 138.49 298.078 139.978 295.673 141.001C293.268 142.023 290.687 142.559 288.076 142.578ZM169.945 114.084L170.013 123.455C170.034 126.617 171.301 129.643 173.537 131.868C175.774 134.092 178.797 135.335 181.943 135.322L288.018 134.545C291.167 134.514 294.175 133.228 296.382 130.971C298.59 128.714 299.817 125.669 299.794 122.503L299.658 103.742C299.602 101.005 298.639 98.3657 296.922 96.2411L263.301 54.6296C259.197 63.2501 252.763 70.5358 244.734 75.6533C236.705 80.7709 227.405 83.5138 217.898 83.5683C217.488 83.5713 217.118 83.574 216.658 83.5774C216.481 83.5913 216.304 83.5926 216.127 83.5812L181.569 83.8346C180.422 83.8508 179.282 84.0249 178.182 84.3521C176.46 84.9665 174.876 85.9179 173.521 87.1513C172.34 88.2633 171.401 89.6089 170.763 91.1035C170.125 92.5981 169.801 94.2093 169.813 95.8357L169.938 113.099C169.969 113.241 169.986 113.385 169.991 113.531C169.995 113.716 169.98 113.902 169.945 114.084Z" fill="#EAEAEA" fill-opacity="0.2"/>
<path d="M211.13 67.7363C202.216 67.8168 193.632 64.4259 187.249 58.3025C180.866 52.1791 177.202 43.8196 177.054 35.0459L177.049 34.4179C177.038 27.724 179.081 21.1823 182.91 15.6495C186.74 10.1167 192.177 5.85074 198.509 3.41024C204.842 0.969738 211.775 0.468518 218.401 1.97222C225.027 3.47593 231.036 6.91445 235.642 11.8375C235.803 11.9709 235.883 12.0824 235.86 12.0826L236.056 12.3167L236.159 12.4393L236.285 12.573L238.228 14.9701C238.387 15.103 238.526 15.2567 238.642 15.4269C242.162 20.4008 244.235 26.2272 244.638 32.2771C245.04 38.3271 243.756 44.3708 240.924 49.7559C238.093 55.141 233.821 59.663 228.57 62.8337C223.319 66.0044 217.289 67.7035 211.13 67.7475L211.13 67.7363ZM228.998 17.9314C225.628 14.3476 221.241 11.8453 216.406 10.7498C211.571 9.65422 206.512 10.0161 201.888 11.7885C197.264 13.5608 193.288 16.6616 190.478 20.6875C187.668 24.7135 186.152 29.4783 186.13 34.3625L186.133 34.8896C186.345 41.2612 189.085 47.2968 193.765 51.7021C198.445 56.1073 204.693 58.5314 211.168 58.4545C217.644 58.3777 223.832 55.8061 228.406 51.2911C232.98 46.7761 235.575 40.6773 235.634 34.3024C235.6 29.4355 234.072 24.6928 231.251 20.6963L229.182 18.1768L229.021 17.9424L228.998 17.9314Z" fill="#EAEAEA" fill-opacity="0.2"/>
<path d="M211.13 67.7363C202.216 67.8168 193.632 64.4259 187.249 58.3025C180.866 52.1791 177.202 43.8196 177.054 35.0459L177.049 34.4179C177.038 27.724 179.081 21.1823 182.91 15.6495C186.74 10.1167 192.177 5.85074 198.509 3.41024C204.842 0.969738 211.775 0.468518 218.401 1.97222C225.027 3.47593 231.036 6.91445 235.642 11.8375C235.803 11.9709 235.883 12.0824 235.86 12.0826L236.056 12.3167L236.159 12.4393L236.285 12.573L238.228 14.9701C238.387 15.103 238.526 15.2567 238.642 15.4269C242.162 20.4008 244.235 26.2272 244.638 32.2771C245.04 38.3271 243.756 44.3708 240.924 49.7559C238.093 55.141 233.821 59.663 228.57 62.8337C223.319 66.0044 217.289 67.7035 211.13 67.7475L211.13 67.7363ZM228.998 17.9314C225.628 14.3476 221.241 11.8453 216.406 10.7498C211.571 9.65422 206.512 10.0161 201.888 11.7885C197.264 13.5608 193.288 16.6616 190.478 20.6875C187.668 24.7135 186.152 29.4783 186.13 34.3625L186.133 34.8896C186.345 41.2612 189.085 47.2968 193.765 51.7021C198.445 56.1073 204.693 58.5314 211.168 58.4545C217.644 58.3777 223.832 55.8061 228.406 51.2911C232.98 46.7761 235.575 40.6773 235.634 34.3024C235.6 29.4355 234.072 24.6928 231.251 20.6963L229.182 18.1768L229.021 17.9424L228.998 17.9314Z" fill="#EAEAEA" fill-opacity="0.2"/>
<path d="M216.756 560.134L110.731 560.912C105.467 560.937 100.407 558.862 96.6636 555.142C92.9197 551.422 90.797 546.361 90.7612 541.069L90.5609 513.45C90.5447 510.726 91.0854 508.028 92.1496 505.522C93.2137 503.017 94.7785 500.758 96.747 498.886L96.8762 498.764C98.9241 496.898 101.312 495.446 103.907 494.49L104.236 494.347C106.172 493.711 108.194 493.381 110.231 493.368L146.559 493.101C155.578 493.038 164.346 490.109 171.608 484.733C178.871 479.358 184.256 471.811 186.994 463.173C187.208 462.469 187.611 461.838 188.158 461.348C188.704 460.859 189.374 460.529 190.095 460.396C190.201 460.385 190.308 460.384 190.415 460.393L190.805 460.39C191.405 460.388 191.999 460.517 192.545 460.768C193.091 461.019 193.576 461.387 193.966 461.845L231.857 508.724C234.734 512.265 236.319 516.689 236.349 521.26L236.485 540.001C236.506 542.625 236.011 545.228 235.031 547.66C234.05 550.093 232.602 552.307 230.77 554.177C228.938 556.046 226.757 557.535 224.353 558.557C221.948 559.579 219.367 560.115 216.756 560.134ZM98.6251 531.641L98.6931 541.011C98.7134 544.174 99.9807 547.199 102.217 549.424C104.453 551.649 107.476 552.891 110.623 552.879L216.697 552.101C219.846 552.07 222.854 550.785 225.062 548.528C227.27 546.27 228.496 543.225 228.473 540.06L228.337 521.299C228.282 518.562 227.319 515.922 225.602 513.798L191.981 472.186C187.877 480.807 181.443 488.092 173.414 493.21C165.385 498.327 156.085 501.07 146.578 501.125C146.167 501.128 145.797 501.131 145.337 501.134C145.161 501.148 144.984 501.149 144.807 501.138L110.249 501.391C109.102 501.407 107.962 501.581 106.862 501.909C105.139 502.523 103.555 503.474 102.201 504.708C101.02 505.82 100.081 507.165 99.4427 508.66C98.8046 510.155 98.4811 511.766 98.4927 513.392L98.618 530.655C98.6482 530.797 98.666 530.942 98.6711 531.087C98.6751 531.273 98.6596 531.458 98.6251 531.641Z" fill="#EAEAEA" fill-opacity="0.2"/>
<path d="M139.81 485.293C130.896 485.373 122.312 481.983 115.929 475.859C109.546 469.736 105.881 461.376 105.734 452.603L105.729 451.974C105.718 445.281 107.761 438.739 111.59 433.206C115.419 427.673 120.856 423.407 127.189 420.967C133.522 418.526 140.455 418.025 147.081 419.529C153.706 421.033 159.716 424.471 164.322 429.394C164.482 429.528 164.563 429.639 164.54 429.639L164.735 429.873L164.839 429.996L164.965 430.13L166.908 432.527C167.066 432.66 167.206 432.813 167.322 432.984C170.842 437.957 172.915 443.784 173.317 449.834C173.72 455.884 172.436 461.927 169.604 467.313C166.772 472.698 162.501 477.22 157.25 480.39C151.999 483.561 145.969 485.26 139.81 485.304L139.81 485.293ZM157.678 435.488C154.308 431.904 149.92 429.402 145.085 428.306C140.25 427.211 135.192 427.573 130.568 429.345C125.944 431.117 121.968 434.218 119.158 438.244C116.347 442.27 114.832 447.035 114.809 451.919L114.813 452.446C115.025 458.818 117.764 464.853 122.444 469.259C127.125 473.664 133.372 476.088 139.848 476.011C146.324 475.934 152.512 473.363 157.086 468.848C161.659 464.333 164.254 458.234 164.314 451.859C164.279 446.992 162.752 442.249 159.931 438.253L157.862 435.733L157.701 435.499L157.678 435.488Z" fill="#EAEAEA" fill-opacity="0.2"/>
<path d="M19.9552 23.203L125.98 22.4257C131.244 22.4005 136.303 24.4755 140.047 28.1956C143.791 31.9156 145.914 36.9767 145.95 42.2682L146.15 69.8872C146.166 72.6113 145.626 75.3097 144.561 77.815C143.497 80.3204 141.932 82.5793 139.964 84.4516L139.835 84.5732C137.787 86.4399 135.399 87.8913 132.804 88.8478L132.475 88.991C130.539 89.6267 128.517 89.957 126.48 89.97L90.1516 90.2363C81.1328 90.2998 72.365 93.2288 65.1025 98.6042C57.8399 103.98 52.4547 111.526 49.717 120.164C49.5026 120.868 49.1001 121.499 48.5533 121.989C48.0066 122.479 47.3365 122.808 46.6163 122.942C46.5099 122.953 46.4028 122.953 46.2962 122.944L45.9061 122.947C45.3057 122.949 44.712 122.821 44.1661 122.569C43.6202 122.318 43.1352 121.951 42.7447 121.492L4.85376 74.6132C1.97701 71.0724 0.391838 66.649 0.36154 62.0776L0.225569 43.3365C0.205217 40.7122 0.69947 38.1095 1.68008 35.6772C2.66069 33.2449 4.10845 31.0307 5.94066 29.161C7.77284 27.2913 9.95357 25.8028 12.3582 24.7805C14.7629 23.7582 17.3444 23.2222 19.9552 23.203ZM138.086 51.6969L138.018 42.3264C137.998 39.1637 136.73 36.1382 134.494 33.9134C132.258 31.6887 129.235 30.4463 126.088 30.4587L20.0135 31.2364C16.8646 31.2674 13.8565 32.5526 11.6489 34.8099C9.4413 37.0672 8.21449 40.1125 8.23745 43.2778L8.37357 62.039C8.42936 64.7756 9.39191 67.4153 11.1088 69.5399L44.7302 111.151C48.8338 102.531 55.268 95.2452 63.2972 90.1277C71.3264 85.0101 80.6263 82.2672 90.1334 82.2127C90.5435 82.2097 90.9136 82.207 91.3737 82.2036C91.5501 82.1897 91.7272 82.1884 91.9038 82.1998L126.462 81.9464C127.609 81.9302 128.749 81.7561 129.849 81.4289C131.571 80.8145 133.156 79.8631 134.51 78.6297C135.691 77.5177 136.63 76.1721 137.268 74.6775C137.906 73.1829 138.23 71.5717 138.218 69.9453L138.093 52.6822C138.063 52.5401 138.045 52.3955 138.04 52.2503C138.036 52.0647 138.051 51.8792 138.086 51.6969Z" fill="#EAEAEA" fill-opacity="0.2"/>
<path d="M19.9552 23.203L125.98 22.4257C131.244 22.4005 136.303 24.4755 140.047 28.1956C143.791 31.9156 145.914 36.9767 145.95 42.2682L146.15 69.8872C146.166 72.6113 145.626 75.3097 144.561 77.815C143.497 80.3204 141.932 82.5793 139.964 84.4516L139.835 84.5732C137.787 86.4399 135.399 87.8913 132.804 88.8478L132.475 88.991C130.539 89.6267 128.517 89.957 126.48 89.97L90.1516 90.2363C81.1328 90.2998 72.365 93.2288 65.1025 98.6042C57.8399 103.98 52.4547 111.526 49.717 120.164C49.5026 120.868 49.1001 121.499 48.5533 121.989C48.0066 122.479 47.3365 122.808 46.6163 122.942C46.5099 122.953 46.4028 122.953 46.2962 122.944L45.9061 122.947C45.3057 122.949 44.712 122.821 44.1661 122.569C43.6202 122.318 43.1352 121.951 42.7447 121.492L4.85376 74.6132C1.97701 71.0724 0.391838 66.649 0.36154 62.0776L0.225569 43.3365C0.205217 40.7122 0.69947 38.1095 1.68008 35.6772C2.66069 33.2449 4.10845 31.0307 5.94066 29.161C7.77284 27.2913 9.95357 25.8028 12.3582 24.7805C14.7629 23.7582 17.3444 23.2222 19.9552 23.203ZM138.086 51.6969L138.018 42.3264C137.998 39.1637 136.73 36.1382 134.494 33.9134C132.258 31.6887 129.235 30.4463 126.088 30.4587L20.0135 31.2364C16.8646 31.2674 13.8565 32.5526 11.6489 34.8099C9.4413 37.0672 8.21449 40.1125 8.23745 43.2778L8.37357 62.039C8.42936 64.7756 9.39191 67.4153 11.1088 69.5399L44.7302 111.151C48.8338 102.531 55.268 95.2452 63.2972 90.1277C71.3264 85.0101 80.6263 82.2672 90.1334 82.2127C90.5435 82.2097 90.9136 82.207 91.3737 82.2036C91.5501 82.1897 91.7272 82.1884 91.9038 82.1998L126.462 81.9464C127.609 81.9302 128.749 81.7561 129.849 81.4289C131.571 80.8145 133.156 79.8631 134.51 78.6297C135.691 77.5177 136.63 76.1721 137.268 74.6775C137.906 73.1829 138.23 71.5717 138.218 69.9453L138.093 52.6822C138.063 52.5401 138.045 52.3955 138.04 52.2503C138.036 52.0647 138.051 51.8792 138.086 51.6969Z" fill="#EAEAEA" fill-opacity="0.2"/>
<path d="M96.9052 98.0448C105.819 97.9643 114.403 101.355 120.786 107.479C127.169 113.602 130.833 121.962 130.981 130.735L130.986 131.363C130.997 138.057 128.954 144.599 125.125 150.132C121.296 155.664 115.859 159.93 109.526 162.371C103.193 164.811 96.26 165.313 89.6342 163.809C83.0085 162.305 76.9991 158.867 72.3931 153.944C72.2326 153.81 72.1521 153.699 72.1749 153.699L71.9795 153.464L71.876 153.342L71.7497 153.208L69.8068 150.811C69.6485 150.678 69.5093 150.524 69.3933 150.354C65.8729 145.38 63.7997 139.554 63.3974 133.504C62.9951 127.454 64.2791 121.41 67.1108 116.025C69.9424 110.64 74.2142 106.118 79.465 102.947C84.7158 99.7767 90.7461 98.0776 96.9052 98.0336L96.9052 98.0448ZM79.0369 147.85C82.4069 151.433 86.7947 153.936 91.6296 155.031C96.4645 156.127 101.523 155.765 106.147 153.993C110.771 152.22 114.747 149.12 117.557 145.094C120.368 141.068 121.883 136.303 121.906 131.419L121.902 130.892C121.69 124.52 118.95 118.484 114.27 114.079C109.59 109.674 103.343 107.25 96.8667 107.327C90.3909 107.403 84.2027 109.975 79.6291 114.49C75.0555 119.005 72.4607 125.104 72.401 131.479C72.4354 136.346 73.9631 141.088 76.7837 145.085L78.8528 147.604L79.014 147.839L79.0369 147.85Z" fill="#EAEAEA" fill-opacity="0.2"/>
<path d="M96.9052 98.0448C105.819 97.9643 114.403 101.355 120.786 107.479C127.169 113.602 130.833 121.962 130.981 130.735L130.986 131.363C130.997 138.057 128.954 144.599 125.125 150.132C121.296 155.664 115.859 159.93 109.526 162.371C103.193 164.811 96.26 165.313 89.6342 163.809C83.0085 162.305 76.9991 158.867 72.3931 153.944C72.2326 153.81 72.1521 153.699 72.1749 153.699L71.9795 153.464L71.876 153.342L71.7497 153.208L69.8068 150.811C69.6485 150.678 69.5093 150.524 69.3933 150.354C65.8729 145.38 63.7997 139.554 63.3974 133.504C62.9951 127.454 64.2791 121.41 67.1108 116.025C69.9424 110.64 74.2142 106.118 79.465 102.947C84.7158 99.7767 90.7461 98.0776 96.9052 98.0336L96.9052 98.0448ZM79.0369 147.85C82.4069 151.433 86.7947 153.936 91.6296 155.031C96.4645 156.127 101.523 155.765 106.147 153.993C110.771 152.22 114.747 149.12 117.557 145.094C120.368 141.068 121.883 136.303 121.906 131.419L121.902 130.892C121.69 124.52 118.95 118.484 114.27 114.079C109.59 109.674 103.343 107.25 96.8667 107.327C90.3909 107.403 84.2027 109.975 79.6291 114.49C75.0555 119.005 72.4607 125.104 72.401 131.479C72.4354 136.346 73.9631 141.088 76.7837 145.085L78.8528 147.604L79.014 147.839L79.0369 147.85Z" fill="#EAEAEA" fill-opacity="0.2"/>
</g>
</svg>
