<svg width="454" height="723" viewBox="0 0 454 723" fill="none" xmlns="http://www.w3.org/2000/svg">
<g opacity="0.5">
<path d="M465.477 31.3504L465.871 138.016C465.878 143.312 463.784 148.394 460.05 152.147C456.316 155.9 451.246 158.017 445.953 158.034L418.329 158.136C415.604 158.143 412.907 157.589 410.405 156.509C407.903 155.43 405.649 153.848 403.784 151.86L403.663 151.73C401.803 149.663 400.36 147.256 399.413 144.641L399.271 144.31C398.642 142.36 398.319 140.325 398.313 138.276L398.178 101.728C398.147 92.6546 395.249 83.8235 389.899 76.498C384.548 69.1724 377.02 63.7276 368.39 60.9425C367.687 60.7242 367.057 60.317 366.569 59.7652C366.081 59.2134 365.754 58.5382 365.623 57.8131C365.613 57.706 365.612 57.5983 365.622 57.4911L365.621 57.0986C365.62 56.4946 365.751 55.8978 366.005 55.3496C366.258 54.8013 366.627 54.3147 367.087 53.9234L414.112 15.9732C417.663 13.0919 422.093 11.5131 426.666 11.4991L445.411 11.4297C448.036 11.4187 450.637 11.9253 453.066 12.9205C455.495 13.9158 457.705 15.3802 459.568 17.2301C461.432 19.0801 462.913 21.2793 463.926 23.7021C464.94 26.1249 465.467 28.7238 465.477 31.3504ZM436.551 150.089L445.924 150.054C449.087 150.045 452.118 148.781 454.351 146.539C456.584 144.298 457.838 141.261 457.837 138.096L457.442 31.3801C457.422 28.2122 456.147 25.1814 453.898 22.9524C451.648 20.7234 448.606 19.4783 445.44 19.49L426.675 19.5595C423.938 19.6057 421.294 20.5646 419.163 22.2841L377.423 55.9581C386.03 60.1173 393.294 66.6165 398.383 74.7124C403.473 82.8082 406.183 92.1739 406.203 101.738C406.204 102.151 406.206 102.523 406.207 102.986C406.221 103.164 406.221 103.342 406.209 103.519L406.338 138.286C406.35 139.44 406.52 140.588 406.844 141.696C407.452 143.431 408.398 145.028 409.626 146.395C410.734 147.587 412.077 148.536 413.569 149.184C415.062 149.831 416.672 150.162 418.299 150.156L435.566 150.093C435.708 150.063 435.853 150.045 435.998 150.041C436.184 150.037 436.369 150.054 436.551 150.089Z" fill="#EAEAEA" fill-opacity="0.15"/>
<path d="M465.477 31.3504L465.871 138.016C465.878 143.312 463.784 148.394 460.05 152.147C456.316 155.9 451.246 158.017 445.953 158.034L418.329 158.136C415.604 158.143 412.907 157.589 410.405 156.509C407.903 155.43 405.649 153.848 403.784 151.86L403.663 151.73C401.803 149.663 400.36 147.256 399.413 144.641L399.271 144.31C398.642 142.36 398.319 140.325 398.313 138.276L398.178 101.728C398.147 92.6546 395.249 83.8235 389.899 76.498C384.548 69.1724 377.02 63.7276 368.39 60.9425C367.687 60.7242 367.057 60.317 366.569 59.7652C366.081 59.2134 365.754 58.5382 365.623 57.8131C365.613 57.706 365.612 57.5983 365.622 57.4911L365.621 57.0986C365.62 56.4946 365.751 55.8978 366.005 55.3496C366.258 54.8013 366.627 54.3147 367.087 53.9234L414.112 15.9732C417.663 13.0919 422.093 11.5131 426.666 11.4991L445.411 11.4297C448.036 11.4187 450.637 11.9253 453.066 12.9205C455.495 13.9158 457.705 15.3802 459.568 17.2301C461.432 19.0801 462.913 21.2793 463.926 23.7021C464.94 26.1249 465.467 28.7238 465.477 31.3504ZM436.551 150.089L445.924 150.054C449.087 150.045 452.118 148.781 454.351 146.539C456.584 144.298 457.838 141.261 457.837 138.096L457.442 31.3801C457.422 28.2122 456.147 25.1814 453.898 22.9524C451.648 20.7234 448.606 19.4783 445.44 19.49L426.675 19.5595C423.938 19.6057 421.294 20.5646 419.163 22.2841L377.423 55.9581C386.03 60.1173 393.294 66.6165 398.383 74.7124C403.473 82.8082 406.183 92.1739 406.203 101.738C406.204 102.151 406.206 102.523 406.207 102.986C406.221 103.164 406.221 103.342 406.209 103.519L406.338 138.286C406.35 139.44 406.52 140.588 406.844 141.696C407.452 143.431 408.398 145.028 409.626 146.395C410.734 147.587 412.077 148.536 413.569 149.184C415.062 149.831 416.672 150.162 418.299 150.156L435.566 150.093C435.708 150.063 435.853 150.045 435.998 150.041C436.184 150.037 436.369 150.054 436.551 150.089Z" fill="#EAEAEA" fill-opacity="0.15"/>
<path d="M391.336 108.804C391.384 117.73 387.962 126.313 381.814 132.682C375.666 139.052 367.292 142.692 358.516 142.809L357.888 142.811C351.193 142.798 344.657 140.729 339.137 136.875C333.617 133.021 329.37 127.562 326.952 121.212C324.534 114.862 324.058 107.918 325.586 101.289C327.114 94.6598 330.575 88.6547 335.516 84.0602C335.65 83.9 335.762 83.8197 335.762 83.8425L335.997 83.6477L336.12 83.5446L336.254 83.4185L338.658 81.4816C338.792 81.3235 338.946 81.1847 339.117 81.0692C344.104 77.5618 349.939 75.5066 355.992 75.1254C362.044 74.7441 368.084 76.0513 373.46 78.9059C378.836 81.7605 383.343 86.0541 386.496 91.3231C389.648 96.5921 391.326 102.637 391.347 108.804L391.336 108.804ZM341.587 90.7345C337.99 94.0962 335.471 98.4808 334.358 103.318C333.245 108.156 333.588 113.222 335.344 117.858C337.1 122.495 340.187 126.487 344.204 129.316C348.22 132.144 352.98 133.678 357.865 133.718L358.393 133.716C364.766 133.527 370.813 130.805 375.236 126.135C379.659 121.464 382.106 115.217 382.053 108.732C381.999 102.248 379.45 96.042 374.95 91.4463C370.451 86.8505 364.361 84.2305 357.985 84.1481C353.117 84.1652 348.368 85.678 344.36 88.4881L341.833 90.551L341.598 90.7116L341.587 90.7345Z" fill="#EAEAEA" fill-opacity="0.15"/>
<path d="M325.359 283.981L324.964 177.316C324.932 172.02 322.847 166.953 319.169 163.228C315.49 159.502 310.518 157.422 305.343 157.444L278.332 157.544C275.668 157.557 273.035 158.131 270.597 159.229C268.158 160.326 265.966 161.925 264.157 163.926L264.039 164.057C262.236 166.138 260.843 168.555 259.936 171.177L259.799 171.509C259.199 173.464 258.898 175.502 258.907 177.55L259.042 214.098C259.079 223.172 256.31 232.024 251.132 239.388C245.955 246.753 238.634 252.252 230.216 255.101C229.53 255.324 228.917 255.736 228.444 256.291C227.971 256.847 227.656 257.524 227.534 258.25C227.525 258.357 227.525 258.465 227.535 258.572L227.536 258.965C227.541 259.569 227.673 260.164 227.925 260.711C228.176 261.257 228.541 261.741 228.994 262.129L275.25 299.734C278.743 302.589 283.086 304.135 287.557 304.116L305.886 304.048C308.452 304.04 310.992 303.514 313.36 302.501C315.728 301.488 317.877 300.008 319.686 298.144C321.494 296.281 322.926 294.071 323.899 291.641C324.873 289.21 325.369 286.608 325.359 283.981ZM296.208 165.458L305.372 165.424C308.465 165.41 311.438 166.651 313.638 168.877C315.838 171.102 317.086 174.129 317.108 177.295L317.503 284.01C317.507 287.178 316.283 290.218 314.099 292.464C311.916 294.709 308.951 295.976 305.856 295.988L287.508 296.056C284.831 296.03 282.239 295.09 280.143 293.386L239.084 260.019C247.47 255.797 254.524 249.244 259.441 241.112C264.358 232.979 266.939 223.593 266.889 214.029C266.887 213.616 266.886 213.244 266.884 212.781C266.896 212.604 266.895 212.425 266.882 212.248L266.754 177.481C266.757 176.327 266.915 175.178 267.223 174.068C267.805 172.329 268.718 170.725 269.909 169.349C270.984 168.149 272.29 167.189 273.744 166.531C275.199 165.873 276.771 165.53 278.362 165.524L295.245 165.461C295.384 165.49 295.525 165.506 295.668 165.51C295.849 165.512 296.03 165.494 296.208 165.458Z" fill="#EAEAEA" fill-opacity="0.15"/>
<path d="M251.757 206.519C251.739 197.447 248.194 188.749 241.896 182.322C235.598 175.894 227.057 172.258 218.135 172.205L217.496 172.208C210.69 172.271 204.061 174.423 198.478 178.382C192.895 182.34 188.619 187.921 186.208 194.393C183.798 200.865 183.366 207.926 184.969 214.652C186.573 221.378 190.136 227.456 195.194 232.088C195.331 232.25 195.446 232.331 195.446 232.308L195.686 232.504L195.812 232.608L195.949 232.735L198.408 234.685C198.545 234.845 198.703 234.985 198.877 235.101C203.974 238.628 209.922 240.673 216.078 241.015C222.234 241.357 228.365 239.983 233.809 237.041C239.252 234.1 243.802 229.702 246.967 224.323C250.133 218.944 251.792 212.788 251.768 206.519L251.757 206.519ZM201.316 225.259C197.634 221.869 195.04 217.432 193.872 212.524C192.704 207.616 193.015 202.464 194.765 197.738C196.516 193.013 199.624 188.932 203.686 186.027C207.748 183.122 212.576 181.527 217.542 181.449L218.078 181.447C224.559 181.592 230.726 184.312 235.258 189.026C239.79 193.74 242.325 200.071 242.319 206.662C242.314 213.253 239.769 219.58 235.229 224.284C230.69 228.989 224.517 231.698 218.036 231.83C213.087 231.849 208.248 230.347 204.152 227.521L201.567 225.444L201.327 225.282L201.316 225.259Z" fill="#EAEAEA" fill-opacity="0.15"/>
<path d="M251.757 206.519C251.739 197.447 248.194 188.749 241.896 182.322C235.598 175.894 227.057 172.258 218.135 172.205L217.496 172.208C210.69 172.271 204.061 174.423 198.478 178.382C192.895 182.34 188.619 187.921 186.208 194.393C183.798 200.865 183.366 207.926 184.969 214.652C186.573 221.378 190.136 227.456 195.194 232.088C195.331 232.25 195.446 232.331 195.446 232.308L195.686 232.504L195.812 232.608L195.949 232.735L198.408 234.685C198.545 234.845 198.703 234.985 198.877 235.101C203.974 238.628 209.922 240.673 216.078 241.015C222.234 241.357 228.365 239.983 233.809 237.041C239.252 234.1 243.802 229.702 246.967 224.323C250.133 218.944 251.792 212.788 251.768 206.519L251.757 206.519ZM201.316 225.259C197.634 221.869 195.04 217.432 193.872 212.524C192.704 207.616 193.015 202.464 194.765 197.738C196.516 193.013 199.624 188.932 203.686 186.027C207.748 183.122 212.576 181.527 217.542 181.449L218.078 181.447C224.559 181.592 230.726 184.312 235.258 189.026C239.79 193.74 242.325 200.071 242.319 206.662C242.314 213.253 239.769 219.58 235.229 224.284C230.69 228.989 224.517 231.698 218.036 231.83C213.087 231.849 208.248 230.347 204.152 227.521L201.567 225.444L201.327 225.282L201.316 225.259Z" fill="#EAEAEA" fill-opacity="0.15"/>
<path d="M236.941 701.914L236.546 595.249C236.514 589.953 234.406 584.886 230.686 581.161C226.965 577.435 221.937 575.356 216.703 575.378L189.385 575.479C186.691 575.492 184.028 576.066 181.562 577.164C179.095 578.262 176.879 579.861 175.048 581.861L174.93 581.993C173.106 584.073 171.697 586.491 170.779 589.112L170.641 589.445C170.034 591.399 169.729 593.437 169.739 595.486L169.874 632.034C169.91 641.107 167.109 649.959 161.873 657.324C156.636 664.689 149.232 670.189 140.719 673.038C140.025 673.261 139.405 673.673 138.926 674.228C138.448 674.784 138.129 675.461 138.005 676.187C137.996 676.294 137.996 676.402 138.007 676.509L138.008 676.902C138.012 677.506 138.146 678.101 138.401 678.648C138.655 679.194 139.024 679.678 139.482 680.066L186.262 717.669C189.795 720.524 194.187 722.07 198.709 722.05L217.245 721.982C219.841 721.974 222.41 721.448 224.805 720.435C227.2 719.422 229.374 717.941 231.203 716.077C233.032 714.214 234.48 712.004 235.465 709.574C236.449 707.143 236.951 704.541 236.941 701.914ZM207.464 583.392L216.732 583.357C219.86 583.343 222.867 584.585 225.092 586.81C227.316 589.035 228.578 592.063 228.601 595.228L228.996 701.943C228.999 705.111 227.761 708.152 225.553 710.397C223.345 712.643 220.346 713.91 217.216 713.922L198.659 713.99C195.952 713.964 193.331 713.025 191.21 711.321L149.687 677.955C158.168 673.733 165.303 667.18 170.276 659.047C175.249 650.914 177.86 641.529 177.81 631.964C177.808 631.552 177.807 631.179 177.805 630.717C177.817 630.539 177.816 630.361 177.803 630.183L177.674 595.416C177.678 594.262 177.837 593.114 178.149 592.003C178.738 590.264 179.661 588.66 180.866 587.284C181.953 586.084 183.274 585.124 184.745 584.466C186.216 583.808 187.806 583.465 189.414 583.459L206.489 583.395C206.63 583.424 206.773 583.441 206.917 583.444C207.101 583.446 207.284 583.428 207.464 583.392Z" fill="#EAEAEA" fill-opacity="0.15"/>
<path d="M236.941 701.914L236.546 595.249C236.514 589.953 234.406 584.886 230.686 581.161C226.965 577.435 221.937 575.356 216.703 575.378L189.385 575.479C186.691 575.492 184.028 576.066 181.562 577.164C179.095 578.262 176.879 579.861 175.048 581.861L174.93 581.993C173.106 584.073 171.697 586.491 170.779 589.112L170.641 589.445C170.034 591.399 169.729 593.437 169.739 595.486L169.874 632.034C169.91 641.107 167.109 649.959 161.873 657.324C156.636 664.689 149.232 670.189 140.719 673.038C140.025 673.261 139.405 673.673 138.926 674.228C138.448 674.784 138.129 675.461 138.005 676.187C137.996 676.294 137.996 676.402 138.007 676.509L138.008 676.902C138.012 677.506 138.146 678.101 138.401 678.648C138.655 679.194 139.024 679.678 139.482 680.066L186.262 717.669C189.795 720.524 194.187 722.07 198.709 722.05L217.245 721.982C219.841 721.974 222.41 721.448 224.805 720.435C227.2 719.422 229.374 717.941 231.203 716.077C233.032 714.214 234.48 712.004 235.465 709.574C236.449 707.143 236.951 704.541 236.941 701.914ZM207.464 583.392L216.732 583.357C219.86 583.343 222.867 584.585 225.092 586.81C227.316 589.035 228.578 592.063 228.601 595.228L228.996 701.943C228.999 705.111 227.761 708.152 225.553 710.397C223.345 712.643 220.346 713.91 217.216 713.922L198.659 713.99C195.952 713.964 193.331 713.025 191.21 711.321L149.687 677.955C158.168 673.733 165.303 667.18 170.276 659.047C175.249 650.914 177.86 641.529 177.81 631.964C177.808 631.552 177.807 631.179 177.805 630.717C177.817 630.539 177.816 630.361 177.803 630.183L177.674 595.416C177.678 594.262 177.837 593.114 178.149 592.003C178.738 590.264 179.661 588.66 180.866 587.284C181.953 586.084 183.274 585.124 184.745 584.466C186.216 583.808 187.806 583.465 189.414 583.459L206.489 583.395C206.63 583.424 206.773 583.441 206.917 583.444C207.101 583.446 207.284 583.428 207.464 583.392Z" fill="#EAEAEA" fill-opacity="0.15"/>
<path d="M162.23 624.456C162.211 615.384 158.782 606.686 152.69 600.258C146.598 593.829 138.336 590.192 129.706 590.138L129.088 590.141C122.505 590.203 116.094 592.354 110.695 596.312C105.295 600.27 101.16 605.85 98.8291 612.322C96.4984 618.793 96.0816 625.855 97.6332 632.581C99.1848 639.307 102.632 645.385 107.525 650.018C107.657 650.18 107.768 650.261 107.768 650.238L108 650.434L108.122 650.538L108.255 650.665L110.634 652.616C110.766 652.776 110.919 652.915 111.088 653.032C116.018 656.559 121.771 658.605 127.725 658.948C133.679 659.29 139.609 657.917 144.874 654.976C150.139 652.035 154.539 647.638 157.6 642.259C160.66 636.881 162.265 630.725 162.241 624.456L162.23 624.456ZM113.445 643.19C109.883 639.8 107.374 635.362 106.244 630.454C105.113 625.545 105.414 620.394 107.106 615.668C108.798 610.943 111.804 606.863 115.732 603.958C119.661 601.054 124.33 599.459 129.133 599.382L129.652 599.38C135.92 599.525 141.886 602.247 146.27 606.961C150.654 611.675 153.106 618.007 153.102 624.598C153.097 631.189 150.636 637.515 146.246 642.219C141.856 646.924 135.887 649.632 129.618 649.763C124.831 649.781 120.15 648.279 116.189 645.452L113.688 643.375L113.456 643.213L113.445 643.19Z" fill="#EAEAEA" fill-opacity="0.15"/>
<path d="M184.855 432.067L184.457 324.594C184.451 319.257 186.544 314.137 190.278 310.355C194.013 306.574 199.082 304.441 204.375 304.424L232 304.322C234.724 304.315 237.421 304.873 239.923 305.961C242.425 307.049 244.679 308.643 246.545 310.645L246.666 310.777C248.525 312.86 249.969 315.285 250.916 317.919L251.058 318.253C251.687 320.218 252.01 322.269 252.016 324.333L252.152 361.158C252.183 370.3 255.081 379.198 260.432 386.579C265.782 393.96 273.311 399.447 281.941 402.253C282.644 402.473 283.274 402.883 283.762 403.439C284.25 403.995 284.577 404.676 284.708 405.406C284.718 405.514 284.718 405.623 284.709 405.731L284.71 406.126C284.711 406.735 284.58 407.336 284.326 407.889C284.073 408.441 283.704 408.931 283.244 409.326L236.221 447.562C232.669 450.465 228.239 452.056 223.667 452.07L204.922 452.139C202.297 452.15 199.695 451.639 197.266 450.637C194.837 449.634 192.627 448.158 190.764 446.294C188.9 444.43 187.419 442.214 186.406 439.773C185.392 437.332 184.865 434.713 184.855 432.067ZM213.777 312.43L204.405 312.464C201.241 312.473 198.211 313.747 195.978 316.006C193.744 318.264 192.491 321.324 192.492 324.513L192.89 432.037C192.91 435.229 194.184 438.283 196.434 440.529C198.684 442.775 201.726 444.029 204.892 444.018L223.657 443.948C226.394 443.902 229.038 442.936 231.169 441.203L272.908 407.275C264.301 403.084 257.037 396.536 251.947 388.378C246.857 380.221 244.147 370.784 244.127 361.147C244.125 360.732 244.124 360.356 244.122 359.89C244.109 359.711 244.108 359.532 244.12 359.353L243.991 324.322C243.978 323.159 243.808 322.004 243.485 320.887C242.877 319.139 241.931 317.53 240.702 316.152C239.594 314.951 238.252 313.995 236.759 313.342C235.266 312.69 233.656 312.356 232.029 312.362L214.763 312.426C214.62 312.456 214.476 312.474 214.33 312.478C214.145 312.482 213.959 312.465 213.777 312.43Z" fill="#EAEAEA" fill-opacity="0.15"/>
<path d="M184.855 432.067L184.457 324.594C184.451 319.257 186.544 314.137 190.278 310.355C194.013 306.574 199.082 304.441 204.375 304.424L232 304.322C234.724 304.315 237.421 304.873 239.923 305.961C242.425 307.049 244.679 308.643 246.545 310.645L246.666 310.777C248.525 312.86 249.969 315.285 250.916 317.919L251.058 318.253C251.687 320.218 252.01 322.269 252.016 324.333L252.152 361.158C252.183 370.3 255.081 379.198 260.432 386.579C265.782 393.96 273.311 399.447 281.941 402.253C282.644 402.473 283.274 402.883 283.762 403.439C284.25 403.995 284.577 404.676 284.708 405.406C284.718 405.514 284.718 405.623 284.709 405.731L284.71 406.126C284.711 406.735 284.58 407.336 284.326 407.889C284.073 408.441 283.704 408.931 283.244 409.326L236.221 447.562C232.669 450.465 228.239 452.056 223.667 452.07L204.922 452.139C202.297 452.15 199.695 451.639 197.266 450.637C194.837 449.634 192.627 448.158 190.764 446.294C188.9 444.43 187.419 442.214 186.406 439.773C185.392 437.332 184.865 434.713 184.855 432.067ZM213.777 312.43L204.405 312.464C201.241 312.473 198.211 313.747 195.978 316.006C193.744 318.264 192.491 321.324 192.492 324.513L192.89 432.037C192.91 435.229 194.184 438.283 196.434 440.529C198.684 442.775 201.726 444.029 204.892 444.018L223.657 443.948C226.394 443.902 229.038 442.936 231.169 441.203L272.908 407.275C264.301 403.084 257.037 396.536 251.947 388.378C246.857 380.221 244.147 370.784 244.127 361.147C244.125 360.732 244.124 360.356 244.122 359.89C244.109 359.711 244.108 359.532 244.12 359.353L243.991 324.322C243.978 323.159 243.808 322.004 243.485 320.887C242.877 319.139 241.931 317.53 240.702 316.152C239.594 314.951 238.252 313.995 236.759 313.342C235.266 312.69 233.656 312.356 232.029 312.362L214.763 312.426C214.62 312.456 214.476 312.474 214.33 312.478C214.145 312.482 213.959 312.465 213.777 312.43Z" fill="#EAEAEA" fill-opacity="0.15"/>
<path d="M260.099 354.205C260.051 345.133 263.416 336.41 269.46 329.937C275.504 323.463 283.739 319.765 292.368 319.647L292.986 319.645C299.57 319.659 305.996 321.762 311.425 325.68C316.853 329.598 321.03 335.147 323.409 341.602C325.787 348.056 326.256 355.114 324.754 361.852C323.253 368.589 319.85 374.692 314.992 379.362C314.861 379.524 314.751 379.606 314.751 379.583L314.52 379.781L314.399 379.886L314.267 380.014L311.903 381.982C311.771 382.143 311.62 382.284 311.452 382.401C306.548 385.965 300.81 388.054 294.859 388.44C288.907 388.827 282.967 387.498 277.681 384.596C272.394 381.694 267.962 377.329 264.861 371.973C261.761 366.618 260.111 360.474 260.088 354.205L260.099 354.205ZM309.022 372.577C312.558 369.161 315.034 364.705 316.128 359.788C317.223 354.871 316.884 349.722 315.157 345.009C313.43 340.297 310.394 336.239 306.444 333.363C302.494 330.488 297.813 328.928 293.009 328.887L292.491 328.889C286.223 329.08 280.278 331.846 275.929 336.592C271.58 341.339 269.175 347.688 269.228 354.279C269.281 360.87 271.789 367.178 276.214 371.85C280.639 376.521 286.628 379.185 292.898 379.269C297.685 379.253 302.354 377.716 306.295 374.86L308.78 372.764L309.011 372.6L309.022 372.577Z" fill="#EAEAEA" fill-opacity="0.15"/>
<path d="M260.099 354.205C260.051 345.133 263.416 336.41 269.46 329.937C275.504 323.463 283.739 319.765 292.368 319.647L292.986 319.645C299.57 319.659 305.996 321.762 311.425 325.68C316.853 329.598 321.03 335.147 323.409 341.602C325.787 348.056 326.256 355.114 324.754 361.852C323.253 368.589 319.85 374.692 314.992 379.362C314.861 379.524 314.751 379.606 314.751 379.583L314.52 379.781L314.399 379.886L314.267 380.014L311.903 381.982C311.771 382.143 311.62 382.284 311.452 382.401C306.548 385.965 300.81 388.054 294.859 388.44C288.907 388.827 282.967 387.498 277.681 384.596C272.394 381.694 267.962 377.329 264.861 371.973C261.761 366.618 260.111 360.474 260.088 354.205L260.099 354.205ZM309.022 372.577C312.558 369.161 315.034 364.705 316.128 359.788C317.223 354.871 316.884 349.722 315.157 345.009C313.43 340.297 310.394 336.239 306.444 333.363C302.494 330.488 297.813 328.928 293.009 328.887L292.491 328.889C286.223 329.08 280.278 331.846 275.929 336.592C271.58 341.339 269.175 347.688 269.228 354.279C269.281 360.87 271.789 367.178 276.214 371.85C280.639 376.521 286.628 379.185 292.898 379.269C297.685 379.253 302.354 377.716 306.295 374.86L308.78 372.764L309.011 372.6L309.022 372.577Z" fill="#EAEAEA" fill-opacity="0.15"/>
<path d="M340.512 177.309L340.907 283.974C340.94 289.27 343.071 294.336 346.833 298.061C350.595 301.787 355.68 303.866 360.972 303.844L388.597 303.742C391.322 303.728 394.015 303.155 396.509 302.057C399.002 300.959 401.244 299.36 403.095 297.359L403.215 297.227C405.06 295.147 406.485 292.729 407.413 290.108L407.552 289.775C408.167 287.821 408.475 285.783 408.465 283.734L408.33 247.186C408.294 238.113 411.126 229.26 416.422 221.895C421.718 214.53 429.206 209.03 437.815 206.181C438.516 205.958 439.143 205.546 439.627 204.99C440.111 204.435 440.433 203.757 440.558 203.031C440.568 202.924 440.568 202.816 440.557 202.709L440.556 202.317C440.551 201.713 440.416 201.117 440.159 200.571C439.901 200.024 439.528 199.54 439.066 199.153L391.762 161.552C388.189 158.697 383.747 157.151 379.175 157.171L360.43 157.24C357.805 157.248 355.207 157.774 352.786 158.787C350.364 159.801 348.165 161.281 346.316 163.145C344.466 165.009 343.001 167.219 342.005 169.649C341.01 172.079 340.502 174.682 340.512 177.309ZM370.315 295.83L360.943 295.864C357.78 295.879 354.74 294.637 352.49 292.412C350.24 290.187 348.964 287.16 348.942 283.994L348.547 177.279C348.543 174.111 349.795 171.071 352.028 168.825C354.262 166.58 357.294 165.312 360.46 165.3L379.225 165.231C381.962 165.257 384.613 166.196 386.757 167.9L428.746 201.264C420.169 205.487 412.954 212.039 407.924 220.173C402.895 228.306 400.254 237.692 400.305 247.256C400.307 247.668 400.308 248.041 400.31 248.504C400.298 248.681 400.298 248.859 400.312 249.037L400.44 283.804C400.437 284.958 400.275 286.106 399.96 287.217C399.365 288.956 398.431 290.56 397.212 291.936C396.113 293.137 394.778 294.096 393.29 294.754C391.802 295.413 390.194 295.756 388.568 295.762L371.301 295.826C371.158 295.797 371.014 295.781 370.868 295.777C370.683 295.775 370.497 295.793 370.315 295.83Z" fill="#EAEAEA" fill-opacity="0.15"/>
<path d="M340.512 177.309L340.907 283.974C340.94 289.27 343.071 294.336 346.833 298.061C350.595 301.787 355.68 303.866 360.972 303.844L388.597 303.742C391.322 303.728 394.015 303.155 396.509 302.057C399.002 300.959 401.244 299.36 403.095 297.359L403.215 297.227C405.06 295.147 406.485 292.729 407.413 290.108L407.552 289.775C408.167 287.821 408.475 285.783 408.465 283.734L408.33 247.186C408.294 238.113 411.126 229.26 416.422 221.895C421.718 214.53 429.206 209.03 437.815 206.181C438.516 205.958 439.143 205.546 439.627 204.99C440.111 204.435 440.433 203.757 440.558 203.031C440.568 202.924 440.568 202.816 440.557 202.709L440.556 202.317C440.551 201.713 440.416 201.117 440.159 200.571C439.901 200.024 439.528 199.54 439.066 199.153L391.762 161.552C388.189 158.697 383.747 157.151 379.175 157.171L360.43 157.24C357.805 157.248 355.207 157.774 352.786 158.787C350.364 159.801 348.165 161.281 346.316 163.145C344.466 165.009 343.001 167.219 342.005 169.649C341.01 172.079 340.502 174.682 340.512 177.309ZM370.315 295.83L360.943 295.864C357.78 295.879 354.74 294.637 352.49 292.412C350.24 290.187 348.964 287.16 348.942 283.994L348.547 177.279C348.543 174.111 349.795 171.071 352.028 168.825C354.262 166.58 357.294 165.312 360.46 165.3L379.225 165.231C381.962 165.257 384.613 166.196 386.757 167.9L428.746 201.264C420.169 205.487 412.954 212.039 407.924 220.173C402.895 228.306 400.254 237.692 400.305 247.256C400.307 247.668 400.308 248.041 400.31 248.504C400.298 248.681 400.298 248.859 400.312 249.037L400.44 283.804C400.437 284.958 400.275 286.106 399.96 287.217C399.365 288.956 398.431 290.56 397.212 291.936C396.113 293.137 394.778 294.096 393.29 294.754C391.802 295.413 390.194 295.756 388.568 295.762L371.301 295.826C371.158 295.797 371.014 295.781 370.868 295.777C370.683 295.775 370.497 295.793 370.315 295.83Z" fill="#EAEAEA" fill-opacity="0.15"/>
<path d="M416.329 253.652C416.348 262.724 419.777 271.422 425.869 277.85C431.961 284.279 440.222 287.916 448.853 287.97L449.47 287.968C456.054 287.905 462.465 285.754 467.864 281.796C473.263 277.838 477.399 272.258 479.73 265.786C482.06 259.315 482.477 252.253 480.925 245.527C479.374 238.801 475.926 232.723 471.034 228.09C470.901 227.928 470.791 227.847 470.791 227.87L470.558 227.674L470.436 227.57L470.304 227.443L467.925 225.492C467.792 225.333 467.64 225.193 467.471 225.077C462.541 221.549 456.788 219.503 450.834 219.16C444.879 218.818 438.95 220.191 433.685 223.132C428.42 226.073 424.02 230.47 420.959 235.849C417.898 241.228 416.294 247.383 416.318 253.652L416.329 253.652ZM465.114 234.918C468.675 238.308 471.184 242.746 472.315 247.654C473.445 252.563 473.145 257.715 471.453 262.44C469.761 267.165 466.755 271.246 462.826 274.15C458.898 277.055 454.228 278.649 449.425 278.726L448.907 278.728C442.638 278.583 436.672 275.861 432.289 271.147C427.905 266.433 425.452 260.101 425.457 253.51C425.461 246.919 427.922 240.593 432.312 235.889C436.703 231.184 442.672 228.476 448.941 228.346C453.728 228.327 458.409 229.829 462.37 232.656L464.871 234.734L465.103 234.895L465.114 234.918Z" fill="#EAEAEA" fill-opacity="0.15"/>
<path d="M416.329 253.652C416.348 262.724 419.777 271.422 425.869 277.85C431.961 284.279 440.222 287.916 448.853 287.97L449.47 287.968C456.054 287.905 462.465 285.754 467.864 281.796C473.263 277.838 477.399 272.258 479.73 265.786C482.06 259.315 482.477 252.253 480.925 245.527C479.374 238.801 475.926 232.723 471.034 228.09C470.901 227.928 470.791 227.847 470.791 227.87L470.558 227.674L470.436 227.57L470.304 227.443L467.925 225.492C467.792 225.333 467.64 225.193 467.471 225.077C462.541 221.549 456.788 219.503 450.834 219.16C444.879 218.818 438.95 220.191 433.685 223.132C428.42 226.073 424.02 230.47 420.959 235.849C417.898 241.228 416.294 247.383 416.318 253.652L416.329 253.652ZM465.114 234.918C468.675 238.308 471.184 242.746 472.315 247.654C473.445 252.563 473.145 257.715 471.453 262.44C469.761 267.165 466.755 271.246 462.826 274.15C458.898 277.055 454.228 278.649 449.425 278.726L448.907 278.728C442.638 278.583 436.672 275.861 432.289 271.147C427.905 266.433 425.452 260.101 425.457 253.51C425.461 246.919 427.922 240.593 432.312 235.889C436.703 231.184 442.672 228.476 448.941 228.346C453.728 228.327 458.409 229.829 462.37 232.656L464.871 234.734L465.103 234.895L465.114 234.918Z" fill="#EAEAEA" fill-opacity="0.15"/>
<path d="M382.461 408.169L382.856 514.834C382.862 520.13 380.768 525.213 377.034 528.966C373.3 532.719 368.23 534.836 362.938 534.853L335.313 534.955C332.588 534.962 329.891 534.408 327.389 533.328C324.887 532.249 322.634 530.666 320.768 528.679L320.647 528.549C318.787 526.482 317.344 524.075 316.397 521.46L316.255 521.129C315.626 519.179 315.303 517.143 315.297 515.095L315.162 478.547C315.131 469.473 312.233 460.642 306.883 453.317C301.533 445.991 294.004 440.546 285.375 437.761C284.671 437.543 284.041 437.136 283.554 436.584C283.066 436.032 282.738 435.357 282.608 434.632C282.597 434.525 282.597 434.417 282.606 434.31L282.605 433.917C282.605 433.313 282.736 432.717 282.989 432.168C283.242 431.62 283.612 431.134 284.072 430.742L331.096 392.792C334.648 389.911 339.078 388.332 343.65 388.318L362.395 388.249C365.02 388.238 367.621 388.744 370.05 389.739C372.48 390.735 374.689 392.199 376.553 394.049C378.416 395.899 379.897 398.098 380.911 400.521C381.924 402.944 382.451 405.543 382.461 408.169ZM353.536 526.908L362.908 526.873C366.071 526.864 369.102 525.6 371.335 523.358C373.569 521.116 374.822 518.08 374.821 514.914L374.426 408.199C374.406 405.031 373.132 402 370.882 399.771C368.632 397.542 365.591 396.297 362.425 396.309L343.66 396.378C340.922 396.425 338.279 397.383 336.148 399.103L294.407 432.777C303.014 436.936 310.278 443.435 315.368 451.531C320.457 459.627 323.167 468.993 323.187 478.557C323.189 478.97 323.19 479.342 323.192 479.805C323.205 479.982 323.206 480.161 323.194 480.338L323.323 515.105C323.335 516.259 323.505 517.407 323.828 518.515C324.436 520.25 325.382 521.847 326.611 523.214C327.719 524.406 329.061 525.355 330.554 526.003C332.046 526.65 333.657 526.981 335.283 526.975L352.55 526.911C352.692 526.881 352.837 526.864 352.982 526.859C353.168 526.856 353.353 526.872 353.536 526.908Z" fill="#EAEAEA" fill-opacity="0.15"/>
<path d="M382.461 408.169L382.856 514.834C382.862 520.13 380.768 525.213 377.034 528.966C373.3 532.719 368.23 534.836 362.938 534.853L335.313 534.955C332.588 534.962 329.891 534.408 327.389 533.328C324.887 532.249 322.634 530.666 320.768 528.679L320.647 528.549C318.787 526.482 317.344 524.075 316.397 521.46L316.255 521.129C315.626 519.179 315.303 517.143 315.297 515.095L315.162 478.547C315.131 469.473 312.233 460.642 306.883 453.317C301.533 445.991 294.004 440.546 285.375 437.761C284.671 437.543 284.041 437.136 283.554 436.584C283.066 436.032 282.738 435.357 282.608 434.632C282.597 434.525 282.597 434.417 282.606 434.31L282.605 433.917C282.605 433.313 282.736 432.717 282.989 432.168C283.242 431.62 283.612 431.134 284.072 430.742L331.096 392.792C334.648 389.911 339.078 388.332 343.65 388.318L362.395 388.249C365.02 388.238 367.621 388.744 370.05 389.739C372.48 390.735 374.689 392.199 376.553 394.049C378.416 395.899 379.897 398.098 380.911 400.521C381.924 402.944 382.451 405.543 382.461 408.169ZM353.536 526.908L362.908 526.873C366.071 526.864 369.102 525.6 371.335 523.358C373.569 521.116 374.822 518.08 374.821 514.914L374.426 408.199C374.406 405.031 373.132 402 370.882 399.771C368.632 397.542 365.591 396.297 362.425 396.309L343.66 396.378C340.922 396.425 338.279 397.383 336.148 399.103L294.407 432.777C303.014 436.936 310.278 443.435 315.368 451.531C320.457 459.627 323.167 468.993 323.187 478.557C323.189 478.97 323.19 479.342 323.192 479.805C323.205 479.982 323.206 480.161 323.194 480.338L323.323 515.105C323.335 516.259 323.505 517.407 323.828 518.515C324.436 520.25 325.382 521.847 326.611 523.214C327.719 524.406 329.061 525.355 330.554 526.003C332.046 526.65 333.657 526.981 335.283 526.975L352.55 526.911C352.692 526.881 352.837 526.864 352.982 526.859C353.168 526.856 353.353 526.872 353.536 526.908Z" fill="#EAEAEA" fill-opacity="0.15"/>
<path d="M307.213 486.182C307.262 495.254 303.897 503.977 297.853 510.451C291.808 516.924 283.574 520.622 274.944 520.74L274.327 520.742C267.743 520.729 261.316 518.625 255.888 514.707C250.459 510.789 246.282 505.24 243.904 498.786C241.525 492.332 241.056 485.274 242.558 478.536C244.06 471.798 247.462 465.695 252.32 461.026C252.452 460.863 252.562 460.781 252.562 460.805L252.793 460.607L252.914 460.502L253.046 460.374L255.41 458.405C255.541 458.245 255.693 458.104 255.861 457.986C260.765 454.422 266.502 452.334 272.454 451.947C278.405 451.56 284.345 452.89 289.632 455.792C294.918 458.694 299.351 463.058 302.451 468.414C305.552 473.77 307.202 479.914 307.224 486.182L307.213 486.182ZM258.291 467.81C254.754 471.227 252.278 475.683 251.184 480.599C250.09 485.516 250.428 490.665 252.156 495.378C253.883 500.091 256.919 504.149 260.869 507.024C264.819 509.9 269.5 511.459 274.303 511.501L274.822 511.499C281.089 511.307 287.035 508.542 291.383 503.795C295.732 499.049 298.138 492.699 298.084 486.108C298.031 479.517 295.523 473.209 291.098 468.538C286.674 463.866 280.684 461.203 274.415 461.118C269.628 461.135 264.958 462.672 261.018 465.527L258.533 467.624L258.302 467.787L258.291 467.81Z" fill="#EAEAEA" fill-opacity="0.15"/>
<path d="M307.213 486.182C307.262 495.254 303.897 503.977 297.853 510.451C291.808 516.924 283.574 520.622 274.944 520.74L274.327 520.742C267.743 520.729 261.316 518.625 255.888 514.707C250.459 510.789 246.282 505.24 243.904 498.786C241.525 492.332 241.056 485.274 242.558 478.536C244.06 471.798 247.462 465.695 252.32 461.026C252.452 460.863 252.562 460.781 252.562 460.805L252.793 460.607L252.914 460.502L253.046 460.374L255.41 458.405C255.541 458.245 255.693 458.104 255.861 457.986C260.765 454.422 266.502 452.334 272.454 451.947C278.405 451.56 284.345 452.89 289.632 455.792C294.918 458.694 299.351 463.058 302.451 468.414C305.552 473.77 307.202 479.914 307.224 486.182L307.213 486.182ZM258.291 467.81C254.754 471.227 252.278 475.683 251.184 480.599C250.09 485.516 250.428 490.665 252.156 495.378C253.883 500.091 256.919 504.149 260.869 507.024C264.819 509.9 269.5 511.459 274.303 511.501L274.822 511.499C281.089 511.307 287.035 508.542 291.383 503.795C295.732 499.049 298.138 492.699 298.084 486.108C298.031 479.517 295.523 473.209 291.098 468.538C286.674 463.866 280.684 461.203 274.415 461.118C269.628 461.135 264.958 462.672 261.018 465.527L258.533 467.624L258.302 467.787L258.291 467.81Z" fill="#EAEAEA" fill-opacity="0.15"/>
<path d="M256.387 554.283L256.785 661.756C256.818 667.092 258.973 672.197 262.777 675.951C266.58 679.704 271.722 681.799 277.074 681.777L305.005 681.674C307.76 681.66 310.483 681.082 313.004 679.975C315.526 678.869 317.793 677.258 319.664 675.242L319.786 675.11C321.651 673.013 323.092 670.577 324.03 667.936L324.171 667.601C324.792 665.631 325.104 663.578 325.094 661.514L324.958 624.689C324.921 615.547 327.785 606.628 333.14 599.207C338.495 591.786 346.066 586.244 354.771 583.373C355.48 583.148 356.114 582.733 356.603 582.173C357.092 581.614 357.418 580.931 357.545 580.199C357.555 580.091 357.554 579.983 357.544 579.875L357.542 579.48C357.538 578.871 357.401 578.271 357.141 577.72C356.881 577.17 356.504 576.682 356.036 576.291L308.207 538.406C304.594 535.53 300.103 533.972 295.48 533.992L276.527 534.062C273.873 534.071 271.246 534.6 268.798 535.621C266.349 536.642 264.126 538.134 262.256 540.012C260.385 541.89 258.904 544.117 257.897 546.565C256.891 549.014 256.377 551.637 256.387 554.283ZM286.52 673.702L277.044 673.737C273.845 673.751 270.772 672.5 268.497 670.258C266.222 668.016 264.932 664.966 264.909 661.777L264.511 554.253C264.508 551.061 265.774 547.998 268.032 545.735C270.29 543.473 273.356 542.195 276.557 542.183L295.53 542.113C298.298 542.139 300.979 543.086 303.146 544.802L345.601 578.419C336.929 582.673 329.634 589.276 324.548 597.471C319.463 605.666 316.793 615.123 316.844 624.759C316.845 625.175 316.847 625.55 316.849 626.017C316.836 626.196 316.837 626.375 316.851 626.554L316.98 661.584C316.977 662.747 316.813 663.904 316.495 665.023C315.893 666.776 314.948 668.392 313.716 669.779C312.605 670.988 311.255 671.955 309.75 672.618C308.246 673.281 306.62 673.627 304.975 673.633L287.517 673.698C287.373 673.669 287.226 673.652 287.079 673.649C286.892 673.647 286.704 673.665 286.52 673.702Z" fill="#EAEAEA" fill-opacity="0.15"/>
<path d="M256.387 554.283L256.785 661.756C256.818 667.092 258.973 672.197 262.777 675.951C266.58 679.704 271.722 681.799 277.074 681.777L305.005 681.674C307.76 681.66 310.483 681.082 313.004 679.975C315.526 678.869 317.793 677.258 319.664 675.242L319.786 675.11C321.651 673.013 323.092 670.577 324.03 667.936L324.171 667.601C324.792 665.631 325.104 663.578 325.094 661.514L324.958 624.689C324.921 615.547 327.785 606.628 333.14 599.207C338.495 591.786 346.066 586.244 354.771 583.373C355.48 583.148 356.114 582.733 356.603 582.173C357.092 581.614 357.418 580.931 357.545 580.199C357.555 580.091 357.554 579.983 357.544 579.875L357.542 579.48C357.538 578.871 357.401 578.271 357.141 577.72C356.881 577.17 356.504 576.682 356.036 576.291L308.207 538.406C304.594 535.53 300.103 533.972 295.48 533.992L276.527 534.062C273.873 534.071 271.246 534.6 268.798 535.621C266.349 536.642 264.126 538.134 262.256 540.012C260.385 541.89 258.904 544.117 257.897 546.565C256.891 549.014 256.377 551.637 256.387 554.283ZM286.52 673.702L277.044 673.737C273.845 673.751 270.772 672.5 268.497 670.258C266.222 668.016 264.932 664.966 264.909 661.777L264.511 554.253C264.508 551.061 265.774 547.998 268.032 545.735C270.29 543.473 273.356 542.195 276.557 542.183L295.53 542.113C298.298 542.139 300.979 543.086 303.146 544.802L345.601 578.419C336.929 582.673 329.634 589.276 324.548 597.471C319.463 605.666 316.793 615.123 316.844 624.759C316.845 625.175 316.847 625.55 316.849 626.017C316.836 626.196 316.837 626.375 316.851 626.554L316.98 661.584C316.977 662.747 316.813 663.904 316.495 665.023C315.893 666.776 314.948 668.392 313.716 669.779C312.605 670.988 311.255 671.955 309.75 672.618C308.246 673.281 306.62 673.627 304.975 673.633L287.517 673.698C287.373 673.669 287.226 673.652 287.079 673.649C286.892 673.647 286.704 673.665 286.52 673.702Z" fill="#EAEAEA" fill-opacity="0.15"/>
<path d="M332.206 631.03C332.224 639.956 335.71 648.513 341.905 654.837C348.099 661.161 356.5 664.739 365.277 664.791L365.905 664.788C372.6 664.726 379.12 662.609 384.611 658.714C390.102 654.819 394.309 649.329 396.68 642.961C399.051 636.594 399.476 629.646 397.898 623.028C396.321 616.411 392.816 610.431 387.842 605.874C387.706 605.714 387.594 605.635 387.594 605.658L387.358 605.465L387.234 605.362L387.099 605.237L384.68 603.318C384.545 603.161 384.39 603.024 384.219 602.909C379.205 599.439 373.355 597.427 367.3 597.091C361.245 596.754 355.215 598.106 349.86 601C344.505 603.895 340.03 608.221 336.917 613.514C333.804 618.806 332.171 624.863 332.195 631.03L332.206 631.03ZM381.82 612.593C385.442 615.928 387.993 620.293 389.142 625.123C390.291 629.952 389.985 635.02 388.263 639.67C386.542 644.319 383.484 648.334 379.489 651.192C375.494 654.05 370.745 655.619 365.86 655.696L365.333 655.698C358.958 655.556 352.892 652.879 348.434 648.241C343.977 643.604 341.483 637.374 341.489 630.889C341.494 624.405 343.998 618.18 348.463 613.551C352.928 608.923 358.999 606.258 365.374 606.128C370.242 606.109 375.002 607.587 379.03 610.367L381.573 612.411L381.809 612.57L381.82 612.593Z" fill="#EAEAEA" fill-opacity="0.15"/>
<path d="M332.206 631.03C332.224 639.956 335.71 648.513 341.905 654.837C348.099 661.161 356.5 664.739 365.277 664.791L365.905 664.788C372.6 664.726 379.12 662.609 384.611 658.714C390.102 654.819 394.309 649.329 396.68 642.961C399.051 636.594 399.476 629.646 397.898 623.028C396.321 616.411 392.816 610.431 387.842 605.874C387.706 605.714 387.594 605.635 387.594 605.658L387.358 605.465L387.234 605.362L387.099 605.237L384.68 603.318C384.545 603.161 384.39 603.024 384.219 602.909C379.205 599.439 373.355 597.427 367.3 597.091C361.245 596.754 355.215 598.106 349.86 601C344.505 603.895 340.03 608.221 336.917 613.514C333.804 618.806 332.171 624.863 332.195 631.03L332.206 631.03ZM381.82 612.593C385.442 615.928 387.993 620.293 389.142 625.123C390.291 629.952 389.985 635.02 388.263 639.67C386.542 644.319 383.484 648.334 379.489 651.192C375.494 654.05 370.745 655.619 365.86 655.696L365.333 655.698C358.958 655.556 352.892 652.879 348.434 648.241C343.977 643.604 341.483 637.374 341.489 630.889C341.494 624.405 343.998 618.18 348.463 613.551C352.928 608.923 358.999 606.258 365.374 606.128C370.242 606.109 375.002 607.587 379.03 610.367L381.573 612.411L381.809 612.57L381.82 612.593Z" fill="#EAEAEA" fill-opacity="0.15"/>
<path d="M288.076 142.579L182.051 143.356C176.787 143.381 171.728 141.306 167.984 137.586C164.24 133.866 162.117 128.805 162.082 123.514L161.881 95.8947C161.865 93.1706 162.406 90.4722 163.47 87.9668C164.534 85.4615 166.099 83.2026 168.067 81.3302L168.196 81.2086C170.244 79.342 172.632 77.8905 175.227 76.9341L175.557 76.7909C177.492 76.1551 179.515 75.8249 181.551 75.8119L217.88 75.5455C226.898 75.482 235.666 72.5531 242.929 67.1776C250.191 61.8022 255.577 54.2557 258.314 45.6177C258.529 44.9138 258.931 44.2825 259.478 43.7927C260.025 43.3029 260.695 42.9734 261.415 42.84C261.521 42.8293 261.628 42.8285 261.735 42.8376L262.125 42.8348C262.726 42.8324 263.319 42.9613 263.865 43.2125C264.411 43.4637 264.896 43.8313 265.287 44.2896L303.177 91.1687C306.054 94.7094 307.639 99.1328 307.67 103.704L307.806 122.445C307.826 125.07 307.332 127.672 306.351 130.105C305.371 132.537 303.923 134.751 302.091 136.621C300.258 138.491 298.078 139.979 295.673 141.001C293.268 142.024 290.687 142.56 288.076 142.579ZM169.945 114.085L170.013 123.456C170.034 126.618 171.301 129.644 173.537 131.868C175.774 134.093 178.797 135.336 181.943 135.323L288.018 134.546C291.167 134.514 294.175 133.229 296.382 130.972C298.59 128.715 299.817 125.669 299.794 122.504L299.658 103.743C299.602 101.006 298.639 98.3666 296.922 96.2419L263.301 54.6304C259.197 63.251 252.763 70.5366 244.734 75.6542C236.705 80.7718 227.405 83.5146 217.898 83.5691C217.488 83.5721 217.118 83.5748 216.658 83.5782C216.481 83.5922 216.304 83.5935 216.127 83.5821L181.569 83.8355C180.422 83.8517 179.282 84.0258 178.182 84.353C176.46 84.9674 174.876 85.9188 173.521 87.1522C172.34 88.2641 171.401 89.6098 170.763 91.1044C170.125 92.5989 169.801 94.2101 169.813 95.8365L169.938 113.1C169.969 113.242 169.986 113.386 169.991 113.532C169.995 113.717 169.98 113.903 169.945 114.085Z" fill="#EAEAEA" fill-opacity="0.15"/>
<path d="M288.076 142.579L182.051 143.356C176.787 143.381 171.728 141.306 167.984 137.586C164.24 133.866 162.117 128.805 162.082 123.514L161.881 95.8947C161.865 93.1706 162.406 90.4722 163.47 87.9668C164.534 85.4615 166.099 83.2026 168.067 81.3302L168.196 81.2086C170.244 79.342 172.632 77.8905 175.227 76.9341L175.557 76.7909C177.492 76.1551 179.515 75.8249 181.551 75.8119L217.88 75.5455C226.898 75.482 235.666 72.5531 242.929 67.1776C250.191 61.8022 255.577 54.2557 258.314 45.6177C258.529 44.9138 258.931 44.2825 259.478 43.7927C260.025 43.3029 260.695 42.9734 261.415 42.84C261.521 42.8293 261.628 42.8285 261.735 42.8376L262.125 42.8348C262.726 42.8324 263.319 42.9613 263.865 43.2125C264.411 43.4637 264.896 43.8313 265.287 44.2896L303.177 91.1687C306.054 94.7094 307.639 99.1328 307.67 103.704L307.806 122.445C307.826 125.07 307.332 127.672 306.351 130.105C305.371 132.537 303.923 134.751 302.091 136.621C300.258 138.491 298.078 139.979 295.673 141.001C293.268 142.024 290.687 142.56 288.076 142.579ZM169.945 114.085L170.013 123.456C170.034 126.618 171.301 129.644 173.537 131.868C175.774 134.093 178.797 135.336 181.943 135.323L288.018 134.546C291.167 134.514 294.175 133.229 296.382 130.972C298.59 128.715 299.817 125.669 299.794 122.504L299.658 103.743C299.602 101.006 298.639 98.3666 296.922 96.2419L263.301 54.6304C259.197 63.251 252.763 70.5366 244.734 75.6542C236.705 80.7718 227.405 83.5146 217.898 83.5691C217.488 83.5721 217.118 83.5748 216.658 83.5782C216.481 83.5922 216.304 83.5935 216.127 83.5821L181.569 83.8355C180.422 83.8517 179.282 84.0258 178.182 84.353C176.46 84.9674 174.876 85.9188 173.521 87.1522C172.34 88.2641 171.401 89.6098 170.763 91.1044C170.125 92.5989 169.801 94.2101 169.813 95.8365L169.938 113.1C169.969 113.242 169.986 113.386 169.991 113.532C169.995 113.717 169.98 113.903 169.945 114.085Z" fill="#EAEAEA" fill-opacity="0.15"/>
<path d="M211.13 67.7373C202.216 67.8178 193.632 64.4269 187.249 58.3034C180.866 52.18 177.202 43.8206 177.054 35.0469L177.049 34.4188C177.038 27.725 179.081 21.1833 182.91 15.6505C186.74 10.1177 192.177 5.85171 198.509 3.41122C204.842 0.970715 211.775 0.469495 218.401 1.9732C225.027 3.47691 231.036 6.91543 235.642 11.8384C235.803 11.9719 235.883 12.0834 235.86 12.0836L236.056 12.3177L236.159 12.4403L236.285 12.574L238.228 14.9711C238.387 15.104 238.526 15.2577 238.642 15.4279C242.162 20.4018 244.235 26.2282 244.638 32.2781C245.04 38.3281 243.756 44.3718 240.924 49.7569C238.093 55.142 233.821 59.6639 228.57 62.8347C223.319 66.0054 217.289 67.7045 211.13 67.7485L211.13 67.7373ZM228.998 17.9323C225.628 14.3486 221.241 11.8463 216.406 10.7507C211.571 9.65519 206.512 10.0171 201.888 11.7895C197.264 13.5618 193.288 16.6625 190.478 20.6885C187.668 24.7144 186.152 29.4793 186.13 34.3635L186.133 34.8906C186.345 41.2622 189.085 47.2978 193.765 51.703C198.445 56.1083 204.693 58.5323 211.168 58.4555C217.644 58.3787 223.832 55.8071 228.406 51.2921C232.98 46.7771 235.575 40.6782 235.634 34.3034C235.6 29.4364 234.072 24.6938 231.251 20.6973L229.182 18.1777L229.021 17.9434L228.998 17.9323Z" fill="#EAEAEA" fill-opacity="0.15"/>
<path d="M211.13 67.7373C202.216 67.8178 193.632 64.4269 187.249 58.3034C180.866 52.18 177.202 43.8206 177.054 35.0469L177.049 34.4188C177.038 27.725 179.081 21.1833 182.91 15.6505C186.74 10.1177 192.177 5.85171 198.509 3.41122C204.842 0.970715 211.775 0.469495 218.401 1.9732C225.027 3.47691 231.036 6.91543 235.642 11.8384C235.803 11.9719 235.883 12.0834 235.86 12.0836L236.056 12.3177L236.159 12.4403L236.285 12.574L238.228 14.9711C238.387 15.104 238.526 15.2577 238.642 15.4279C242.162 20.4018 244.235 26.2282 244.638 32.2781C245.04 38.3281 243.756 44.3718 240.924 49.7569C238.093 55.142 233.821 59.6639 228.57 62.8347C223.319 66.0054 217.289 67.7045 211.13 67.7485L211.13 67.7373ZM228.998 17.9323C225.628 14.3486 221.241 11.8463 216.406 10.7507C211.571 9.65519 206.512 10.0171 201.888 11.7895C197.264 13.5618 193.288 16.6625 190.478 20.6885C187.668 24.7144 186.152 29.4793 186.13 34.3635L186.133 34.8906C186.345 41.2622 189.085 47.2978 193.765 51.703C198.445 56.1083 204.693 58.5323 211.168 58.4555C217.644 58.3787 223.832 55.8071 228.406 51.2921C232.98 46.7771 235.575 40.6782 235.634 34.3034C235.6 29.4364 234.072 24.6938 231.251 20.6973L229.182 18.1777L229.021 17.9434L228.998 17.9323Z" fill="#EAEAEA" fill-opacity="0.15"/>
<path d="M216.756 560.135L110.731 560.913C105.467 560.938 100.407 558.863 96.6636 555.143C92.9197 551.423 90.797 546.362 90.7612 541.07L90.5609 513.451C90.5447 510.727 91.0854 508.029 92.1496 505.523C93.2137 503.018 94.7785 500.759 96.747 498.887L96.8762 498.765C98.9241 496.899 101.312 495.447 103.907 494.491L104.236 494.348C106.172 493.712 108.194 493.382 110.231 493.369L146.559 493.102C155.578 493.039 164.346 490.11 171.608 484.734C178.871 479.359 184.256 471.812 186.994 463.174C187.208 462.47 187.611 461.839 188.158 461.349C188.704 460.86 189.374 460.53 190.095 460.397C190.201 460.386 190.308 460.385 190.415 460.394L190.805 460.391C191.405 460.389 191.999 460.518 192.545 460.769C193.091 461.02 193.576 461.388 193.966 461.846L231.857 508.725C234.734 512.266 236.319 516.689 236.349 521.261L236.485 540.002C236.506 542.626 236.011 545.229 235.031 547.661C234.05 550.094 232.602 552.308 230.77 554.178C228.938 556.047 226.757 557.536 224.353 558.558C221.948 559.58 219.367 560.116 216.756 560.135ZM98.6251 531.642L98.6931 541.012C98.7134 544.175 99.9807 547.2 102.217 549.425C104.453 551.65 107.476 552.892 110.623 552.88L216.697 552.102C219.846 552.071 222.854 550.786 225.062 548.529C227.27 546.271 228.496 543.226 228.473 540.061L228.337 521.299C228.282 518.563 227.319 515.923 225.602 513.799L191.981 472.187C187.877 480.808 181.443 488.093 173.414 493.211C165.385 498.328 156.085 501.071 146.578 501.126C146.167 501.129 145.797 501.131 145.337 501.135C145.161 501.149 144.984 501.15 144.807 501.139L110.249 501.392C109.102 501.408 107.962 501.582 106.862 501.91C105.139 502.524 103.555 503.475 102.201 504.709C101.02 505.821 100.081 507.166 99.4427 508.661C98.8046 510.156 98.4811 511.767 98.4927 513.393L98.618 530.656C98.6482 530.798 98.666 530.943 98.6711 531.088C98.6751 531.274 98.6596 531.459 98.6251 531.642Z" fill="#EAEAEA" fill-opacity="0.15"/>
<path d="M139.81 485.294C130.896 485.374 122.312 481.984 115.929 475.86C109.546 469.737 105.881 461.377 105.734 452.604L105.729 451.975C105.718 445.282 107.761 438.74 111.59 433.207C115.419 427.674 120.856 423.408 127.189 420.968C133.522 418.527 140.455 418.026 147.081 419.53C153.706 421.034 159.716 424.472 164.322 429.395C164.482 429.528 164.563 429.64 164.54 429.64L164.735 429.874L164.839 429.997L164.965 430.131L166.908 432.528C167.066 432.661 167.206 432.814 167.322 432.985C170.842 437.958 172.915 443.785 173.317 449.835C173.72 455.885 172.436 461.928 169.604 467.314C166.772 472.699 162.501 477.221 157.25 480.391C151.999 483.562 145.969 485.261 139.81 485.305L139.81 485.294ZM157.678 435.489C154.308 431.905 149.92 429.403 145.085 428.307C140.25 427.212 135.192 427.574 130.568 429.346C125.944 431.118 121.968 434.219 119.158 438.245C116.347 442.271 114.832 447.036 114.809 451.92L114.813 452.447C115.025 458.819 117.764 464.854 122.444 469.26C127.125 473.665 133.372 476.089 139.848 476.012C146.324 475.935 152.512 473.364 157.086 468.849C161.659 464.334 164.254 458.235 164.314 451.86C164.279 446.993 162.752 442.25 159.931 438.254L157.862 435.734L157.701 435.5L157.678 435.489Z" fill="#EAEAEA" fill-opacity="0.15"/>
<path d="M19.9552 23.2039L125.98 22.4266C131.244 22.4013 136.303 24.4764 140.047 28.1964C143.791 31.9165 145.914 36.9776 145.95 42.2691L146.15 69.888C146.166 72.6121 145.626 75.3105 144.561 77.8159C143.497 80.3212 141.932 82.5801 139.964 84.4525L139.835 84.5741C137.787 86.4408 135.399 87.8922 132.804 88.8486L132.475 88.9918C130.539 89.6276 128.517 89.9578 126.48 89.9708L90.1516 90.2372C81.1328 90.3007 72.365 93.2297 65.1025 98.6051C57.8399 103.98 52.4547 111.527 49.717 120.165C49.5026 120.869 49.1001 121.5 48.5533 121.99C48.0066 122.48 47.3365 122.809 46.6163 122.943C46.5099 122.953 46.4028 122.954 46.2962 122.945L45.9061 122.948C45.3057 122.95 44.712 122.821 44.1661 122.57C43.6202 122.319 43.1352 121.951 42.7447 121.493L4.85376 74.614C1.97701 71.0733 0.391838 66.6499 0.36154 62.0785L0.225569 43.3374C0.205217 40.713 0.69947 38.1104 1.68008 35.6781C2.66069 33.2458 4.10845 31.0315 5.94066 29.1618C7.77284 27.2921 9.95357 25.8036 12.3582 24.7813C14.7629 23.759 17.3444 23.223 19.9552 23.2039ZM138.086 51.6978L138.018 42.3272C137.998 39.1645 136.73 36.1391 134.494 33.9143C132.258 31.6895 129.235 30.4471 126.088 30.4595L20.0135 31.2372C16.8646 31.2683 13.8565 32.5534 11.6489 34.8107C9.4413 37.0681 8.21449 40.1133 8.23745 43.2787L8.37357 62.0399C8.42936 64.7765 9.39191 67.4162 11.1088 69.5408L44.7302 111.152C48.8338 102.532 55.268 95.2461 63.2972 90.1285C71.3264 85.011 80.6263 82.2681 90.1334 82.2136C90.5435 82.2106 90.9136 82.2079 91.3737 82.2045C91.5501 82.1905 91.7272 82.1892 91.9038 82.2006L126.462 81.9473C127.609 81.931 128.749 81.7569 129.849 81.4298C131.571 80.8153 133.156 79.8639 134.51 78.6305C135.691 77.5186 136.63 76.173 137.268 74.6784C137.906 73.1838 138.23 71.5726 138.218 69.9462L138.093 52.6831C138.063 52.5409 138.045 52.3964 138.04 52.2511C138.036 52.0656 138.051 51.8801 138.086 51.6978Z" fill="#EAEAEA" fill-opacity="0.15"/>
<path d="M19.9552 23.2039L125.98 22.4266C131.244 22.4013 136.303 24.4764 140.047 28.1964C143.791 31.9165 145.914 36.9776 145.95 42.2691L146.15 69.888C146.166 72.6121 145.626 75.3105 144.561 77.8159C143.497 80.3212 141.932 82.5801 139.964 84.4525L139.835 84.5741C137.787 86.4408 135.399 87.8922 132.804 88.8486L132.475 88.9918C130.539 89.6276 128.517 89.9578 126.48 89.9708L90.1516 90.2372C81.1328 90.3007 72.365 93.2297 65.1025 98.6051C57.8399 103.98 52.4547 111.527 49.717 120.165C49.5026 120.869 49.1001 121.5 48.5533 121.99C48.0066 122.48 47.3365 122.809 46.6163 122.943C46.5099 122.953 46.4028 122.954 46.2962 122.945L45.9061 122.948C45.3057 122.95 44.712 122.821 44.1661 122.57C43.6202 122.319 43.1352 121.951 42.7447 121.493L4.85376 74.614C1.97701 71.0733 0.391838 66.6499 0.36154 62.0785L0.225569 43.3374C0.205217 40.713 0.69947 38.1104 1.68008 35.6781C2.66069 33.2458 4.10845 31.0315 5.94066 29.1618C7.77284 27.2921 9.95357 25.8036 12.3582 24.7813C14.7629 23.759 17.3444 23.223 19.9552 23.2039ZM138.086 51.6978L138.018 42.3272C137.998 39.1645 136.73 36.1391 134.494 33.9143C132.258 31.6895 129.235 30.4471 126.088 30.4595L20.0135 31.2372C16.8646 31.2683 13.8565 32.5534 11.6489 34.8107C9.4413 37.0681 8.21449 40.1133 8.23745 43.2787L8.37357 62.0399C8.42936 64.7765 9.39191 67.4162 11.1088 69.5408L44.7302 111.152C48.8338 102.532 55.268 95.2461 63.2972 90.1285C71.3264 85.011 80.6263 82.2681 90.1334 82.2136C90.5435 82.2106 90.9136 82.2079 91.3737 82.2045C91.5501 82.1905 91.7272 82.1892 91.9038 82.2006L126.462 81.9473C127.609 81.931 128.749 81.7569 129.849 81.4298C131.571 80.8153 133.156 79.8639 134.51 78.6305C135.691 77.5186 136.63 76.173 137.268 74.6784C137.906 73.1838 138.23 71.5726 138.218 69.9462L138.093 52.6831C138.063 52.5409 138.045 52.3964 138.04 52.2511C138.036 52.0656 138.051 51.8801 138.086 51.6978Z" fill="#EAEAEA" fill-opacity="0.15"/>
<path d="M96.9052 98.0457C105.819 97.9651 114.403 101.356 120.786 107.48C127.169 113.603 130.833 121.962 130.981 130.736L130.986 131.364C130.997 138.058 128.954 144.6 125.125 150.132C121.296 155.665 115.859 159.931 109.526 162.372C103.193 164.812 96.26 165.313 89.6342 163.81C83.0085 162.306 76.9991 158.868 72.3931 153.945C72.2326 153.811 72.1521 153.7 72.1749 153.699L71.9795 153.465L71.876 153.343L71.7497 153.209L69.8068 150.812C69.6485 150.679 69.5093 150.525 69.3933 150.355C65.8729 145.381 63.7997 139.555 63.3974 133.505C62.9951 127.455 64.2791 121.411 67.1108 116.026C69.9424 110.641 74.2142 106.119 79.465 102.948C84.7158 99.7775 90.7461 98.0785 96.9052 98.0344L96.9052 98.0457ZM79.0369 147.851C82.4069 151.434 86.7947 153.937 91.6296 155.032C96.4645 156.128 101.523 155.766 106.147 153.994C110.771 152.221 114.747 149.12 117.557 145.094C120.368 141.069 121.883 136.304 121.906 131.42L121.902 130.892C121.69 124.521 118.95 118.485 114.27 114.08C109.59 109.675 103.343 107.251 96.8667 107.327C90.3909 107.404 84.2027 109.976 79.6291 114.491C75.0555 119.006 72.4607 125.105 72.401 131.48C72.4354 136.347 73.9631 141.089 76.7837 145.086L78.8528 147.605L79.014 147.84L79.0369 147.851Z" fill="#EAEAEA" fill-opacity="0.15"/>
<path d="M96.9052 98.0457C105.819 97.9651 114.403 101.356 120.786 107.48C127.169 113.603 130.833 121.962 130.981 130.736L130.986 131.364C130.997 138.058 128.954 144.6 125.125 150.132C121.296 155.665 115.859 159.931 109.526 162.372C103.193 164.812 96.26 165.313 89.6342 163.81C83.0085 162.306 76.9991 158.868 72.3931 153.945C72.2326 153.811 72.1521 153.7 72.1749 153.699L71.9795 153.465L71.876 153.343L71.7497 153.209L69.8068 150.812C69.6485 150.679 69.5093 150.525 69.3933 150.355C65.8729 145.381 63.7997 139.555 63.3974 133.505C62.9951 127.455 64.2791 121.411 67.1108 116.026C69.9424 110.641 74.2142 106.119 79.465 102.948C84.7158 99.7775 90.7461 98.0785 96.9052 98.0344L96.9052 98.0457ZM79.0369 147.851C82.4069 151.434 86.7947 153.937 91.6296 155.032C96.4645 156.128 101.523 155.766 106.147 153.994C110.771 152.221 114.747 149.12 117.557 145.094C120.368 141.069 121.883 136.304 121.906 131.42L121.902 130.892C121.69 124.521 118.95 118.485 114.27 114.08C109.59 109.675 103.343 107.251 96.8667 107.327C90.3909 107.404 84.2027 109.976 79.6291 114.491C75.0555 119.006 72.4607 125.105 72.401 131.48C72.4354 136.347 73.9631 141.089 76.7837 145.086L78.8528 147.605L79.014 147.84L79.0369 147.851Z" fill="#EAEAEA" fill-opacity="0.15"/>
</g>
</svg>
