<svg width="378" height="723" viewBox="0 0 378 723" fill="none" xmlns="http://www.w3.org/2000/svg">
<g opacity="0.5">
<path d="M-87.8985 31.3504L-88.2934 138.016C-88.2996 143.312 -86.2059 148.394 -82.4717 152.147C-78.7375 155.9 -73.6678 158.017 -68.3752 158.034L-40.7504 158.136C-38.0257 158.143 -35.3288 157.589 -32.8268 156.509C-30.3248 155.43 -28.0712 153.848 -26.2056 151.86L-26.0844 151.73C-24.2248 149.663 -22.7818 147.256 -21.8345 144.641L-21.6925 144.31C-21.0636 142.36 -20.7405 140.325 -20.7349 138.276L-20.5996 101.728C-20.5686 92.6546 -17.6707 83.8235 -12.3205 76.498C-6.97034 69.1724 0.558087 63.7276 9.18784 60.9425C9.89112 60.7242 10.521 60.317 11.009 59.7652C11.4969 59.2134 11.8241 58.5382 11.9549 57.8131C11.9652 57.706 11.9656 57.5983 11.9561 57.4911L11.9575 57.0986C11.9577 56.4946 11.8267 55.8978 11.5735 55.3496C11.3202 54.8013 10.9509 54.3147 10.491 53.9234L-36.5334 15.9732C-40.0852 13.0919 -44.5151 11.5131 -49.0875 11.4991L-67.8325 11.4297C-70.4574 11.4187 -73.0588 11.9253 -75.488 12.9205C-77.9172 13.9158 -80.1266 15.3802 -81.99 17.2301C-83.8535 19.0801 -85.3344 21.2793 -86.3482 23.7021C-87.362 26.1249 -87.8888 28.7238 -87.8985 31.3504ZM-58.9731 150.089L-68.3456 150.054C-71.509 150.045 -74.5396 148.781 -76.7728 146.539C-79.0061 144.298 -80.2596 141.261 -80.2585 138.096L-79.8635 31.3801C-79.8438 28.2122 -78.5693 25.1814 -76.3195 22.9524C-74.0697 20.7234 -71.0283 19.4783 -67.8623 19.49L-49.0972 19.5595C-46.3599 19.6057 -43.7162 20.5646 -41.585 22.2841L0.155456 55.9581C-8.45185 60.1173 -15.7156 66.6165 -20.8052 74.7124C-25.8947 82.8082 -28.6045 92.1739 -28.6247 101.738C-28.6262 102.151 -28.6276 102.523 -28.6293 102.986C-28.6427 103.164 -28.6433 103.342 -28.6313 103.519L-28.76 138.286C-28.7721 139.44 -28.9421 140.588 -29.2654 141.696C-29.8737 143.431 -30.8196 145.028 -32.0483 146.395C-33.1562 147.587 -34.4987 148.536 -35.9912 149.184C-37.4838 149.831 -39.0941 150.162 -40.7209 150.156L-57.9876 150.093C-58.1299 150.063 -58.2745 150.045 -58.4198 150.041C-58.6054 150.037 -58.7909 150.054 -58.9731 150.089Z" fill="#EAEAEA" fill-opacity="0.15"/>
<path d="M-87.8985 31.3504L-88.2934 138.016C-88.2996 143.312 -86.2059 148.394 -82.4717 152.147C-78.7375 155.9 -73.6678 158.017 -68.3752 158.034L-40.7504 158.136C-38.0257 158.143 -35.3288 157.589 -32.8268 156.509C-30.3248 155.43 -28.0712 153.848 -26.2056 151.86L-26.0844 151.73C-24.2248 149.663 -22.7818 147.256 -21.8345 144.641L-21.6925 144.31C-21.0636 142.36 -20.7405 140.325 -20.7349 138.276L-20.5996 101.728C-20.5686 92.6546 -17.6707 83.8235 -12.3205 76.498C-6.97034 69.1724 0.558087 63.7276 9.18784 60.9425C9.89112 60.7242 10.521 60.317 11.009 59.7652C11.4969 59.2134 11.8241 58.5382 11.9549 57.8131C11.9652 57.706 11.9656 57.5983 11.9561 57.4911L11.9575 57.0986C11.9577 56.4946 11.8267 55.8978 11.5735 55.3496C11.3202 54.8013 10.9509 54.3147 10.491 53.9234L-36.5334 15.9732C-40.0852 13.0919 -44.5151 11.5131 -49.0875 11.4991L-67.8325 11.4297C-70.4574 11.4187 -73.0588 11.9253 -75.488 12.9205C-77.9172 13.9158 -80.1266 15.3802 -81.99 17.2301C-83.8535 19.0801 -85.3344 21.2793 -86.3482 23.7021C-87.362 26.1249 -87.8888 28.7238 -87.8985 31.3504ZM-58.9731 150.089L-68.3456 150.054C-71.509 150.045 -74.5396 148.781 -76.7728 146.539C-79.0061 144.298 -80.2596 141.261 -80.2585 138.096L-79.8635 31.3801C-79.8438 28.2122 -78.5693 25.1814 -76.3195 22.9524C-74.0697 20.7234 -71.0283 19.4783 -67.8623 19.49L-49.0972 19.5595C-46.3599 19.6057 -43.7162 20.5646 -41.585 22.2841L0.155456 55.9581C-8.45185 60.1173 -15.7156 66.6165 -20.8052 74.7124C-25.8947 82.8082 -28.6045 92.1739 -28.6247 101.738C-28.6262 102.151 -28.6276 102.523 -28.6293 102.986C-28.6427 103.164 -28.6433 103.342 -28.6313 103.519L-28.76 138.286C-28.7721 139.44 -28.9421 140.588 -29.2654 141.696C-29.8737 143.431 -30.8196 145.028 -32.0483 146.395C-33.1562 147.587 -34.4987 148.536 -35.9912 149.184C-37.4838 149.831 -39.0941 150.162 -40.7209 150.156L-57.9876 150.093C-58.1299 150.063 -58.2745 150.045 -58.4198 150.041C-58.6054 150.037 -58.7909 150.054 -58.9731 150.089Z" fill="#EAEAEA" fill-opacity="0.15"/>
<path d="M-13.7579 108.804C-13.8061 117.73 -10.3834 126.313 -4.23572 132.682C1.91197 139.052 10.2863 142.692 19.0621 142.809L19.6903 142.811C26.3854 142.798 32.9209 140.729 38.4408 136.875C43.9607 133.021 48.2078 127.562 50.6258 121.212C53.0438 114.862 53.5199 107.918 51.9919 101.289C50.4639 94.6598 47.003 88.6547 42.0624 84.0602C41.9283 83.9 41.8165 83.8197 41.8164 83.8425L41.5815 83.6477L41.4585 83.5446L41.3244 83.4185L38.9198 81.4816C38.7862 81.3235 38.632 81.1847 38.4614 81.0692C33.4738 77.5618 27.6388 75.5066 21.5863 75.1254C15.5338 74.7441 9.49365 76.0513 4.11782 78.9059C-1.258 81.7605 -5.76532 86.0541 -8.91761 91.3231C-12.0699 96.5921 -13.7474 102.637 -13.7691 108.804L-13.7579 108.804ZM35.9914 90.7345C39.588 94.0962 42.1067 98.4808 43.22 103.318C44.3333 108.156 43.9896 113.222 42.2337 117.858C40.4778 122.495 37.3909 126.487 33.3744 129.316C29.3579 132.144 24.5977 133.678 19.7127 133.718L19.1855 133.716C12.8119 133.527 6.76528 130.805 2.34229 126.135C-2.08071 121.464 -4.52789 115.217 -4.47454 108.732C-4.42118 102.248 -1.87152 96.042 2.62772 91.4463C7.12696 86.8505 13.2175 84.2305 19.5933 84.1481C24.4613 84.1652 29.2103 85.678 33.2178 88.4881L35.7453 90.551L35.9803 90.7116L35.9914 90.7345Z" fill="#EAEAEA" fill-opacity="0.15"/>
<path d="M52.2188 283.981L52.6137 177.316C52.6463 172.02 54.7306 166.953 58.4093 163.228C62.0879 159.502 67.0603 157.422 72.2352 157.444L99.2461 157.544C101.91 157.557 104.543 158.131 106.982 159.229C109.42 160.326 111.612 161.925 113.421 163.926L113.539 164.057C115.342 166.138 116.735 168.555 117.642 171.177L117.779 171.509C118.379 173.464 118.68 175.502 118.671 177.55L118.536 214.098C118.499 223.172 121.268 232.024 126.446 239.388C131.623 246.753 138.944 252.252 147.362 255.101C148.048 255.324 148.661 255.736 149.134 256.291C149.607 256.847 149.922 257.524 150.044 258.25C150.054 258.357 150.053 258.465 150.043 258.572L150.042 258.965C150.037 259.569 149.905 260.164 149.653 260.711C149.402 261.257 149.037 261.741 148.584 262.129L102.328 299.734C98.8347 302.589 94.4917 304.135 90.021 304.116L71.6925 304.048C69.126 304.04 66.5862 303.514 64.2183 302.501C61.8505 301.488 59.7009 300.008 57.8925 298.144C56.084 296.281 54.6522 294.071 53.6787 291.641C52.7051 289.21 52.2091 286.608 52.2188 283.981ZM81.3699 165.458L72.2057 165.424C69.1127 165.41 66.1403 166.651 63.9403 168.877C61.7403 171.102 60.4924 174.129 60.4703 177.295L60.0753 284.01C60.0714 287.178 61.2953 290.218 63.4787 292.464C65.6622 294.709 68.6268 295.976 71.7224 295.988L90.0705 296.056C92.7473 296.03 95.3391 295.09 97.4355 293.386L138.494 260.019C130.108 255.797 123.054 249.244 118.137 241.112C113.22 232.979 110.639 223.593 110.689 214.029C110.691 213.616 110.692 213.244 110.694 212.781C110.682 212.604 110.683 212.425 110.696 212.248L110.824 177.481C110.821 176.327 110.663 175.178 110.355 174.068C109.773 172.329 108.86 170.725 107.669 169.349C106.594 168.149 105.288 167.189 103.834 166.531C102.379 165.873 100.807 165.53 99.2166 165.524L82.3336 165.461C82.1942 165.49 82.0527 165.506 81.9106 165.51C81.7291 165.512 81.5479 165.494 81.3699 165.458Z" fill="#EAEAEA" fill-opacity="0.15"/>
<path d="M125.821 206.519C125.84 197.447 129.384 188.749 135.682 182.322C141.98 175.894 150.521 172.258 159.443 172.205L160.082 172.208C166.888 172.271 173.517 174.423 179.1 178.382C184.683 182.34 188.959 187.921 191.37 194.393C193.78 200.865 194.212 207.926 192.609 214.652C191.005 221.378 187.442 227.456 182.384 232.088C182.247 232.25 182.132 232.331 182.133 232.308L181.892 232.504L181.766 232.608L181.629 232.735L179.17 234.685C179.033 234.845 178.875 234.985 178.701 235.101C173.604 238.628 167.656 240.673 161.5 241.015C155.344 241.357 149.213 239.983 143.77 237.041C138.326 234.1 133.776 229.702 130.611 224.323C127.446 218.944 125.786 212.788 125.81 206.519L125.821 206.519ZM176.263 225.259C179.944 221.869 182.538 217.432 183.706 212.524C184.874 207.616 184.563 202.464 182.813 197.738C181.063 193.013 177.954 188.932 173.892 186.027C169.83 183.122 165.002 181.527 160.036 181.449L159.5 181.447C153.019 181.592 146.852 184.312 142.32 189.026C137.788 193.74 135.253 200.071 135.259 206.662C135.264 213.253 137.81 219.58 142.349 224.284C146.889 228.989 153.061 231.698 159.542 231.83C164.491 231.849 169.331 230.347 173.426 227.521L176.011 225.444L176.251 225.282L176.263 225.259Z" fill="#EAEAEA" fill-opacity="0.15"/>
<path d="M125.821 206.519C125.84 197.447 129.384 188.749 135.682 182.322C141.98 175.894 150.521 172.258 159.443 172.205L160.082 172.208C166.888 172.271 173.517 174.423 179.1 178.382C184.683 182.34 188.959 187.921 191.37 194.393C193.78 200.865 194.212 207.926 192.609 214.652C191.005 221.378 187.442 227.456 182.384 232.088C182.247 232.25 182.132 232.331 182.133 232.308L181.892 232.504L181.766 232.608L181.629 232.735L179.17 234.685C179.033 234.845 178.875 234.985 178.701 235.101C173.604 238.628 167.656 240.673 161.5 241.015C155.344 241.357 149.213 239.983 143.77 237.041C138.326 234.1 133.776 229.702 130.611 224.323C127.446 218.944 125.786 212.788 125.81 206.519L125.821 206.519ZM176.263 225.259C179.944 221.869 182.538 217.432 183.706 212.524C184.874 207.616 184.563 202.464 182.813 197.738C181.063 193.013 177.954 188.932 173.892 186.027C169.83 183.122 165.002 181.527 160.036 181.449L159.5 181.447C153.019 181.592 146.852 184.312 142.32 189.026C137.788 193.74 135.253 200.071 135.259 206.662C135.264 213.253 137.81 219.58 142.349 224.284C146.889 228.989 153.061 231.698 159.542 231.83C164.491 231.849 169.331 230.347 173.426 227.521L176.011 225.444L176.251 225.282L176.263 225.259Z" fill="#EAEAEA" fill-opacity="0.15"/>
<path d="M140.637 701.914L141.032 595.249C141.064 589.953 143.172 584.886 146.892 581.161C150.613 577.435 155.642 575.356 160.875 575.378L188.193 575.479C190.888 575.492 193.55 576.066 196.017 577.164C198.483 578.262 200.7 579.861 202.53 581.861L202.649 581.993C204.472 584.073 205.882 586.491 206.799 589.112L206.937 589.445C207.545 591.399 207.849 593.437 207.84 595.486L207.704 632.034C207.668 641.107 210.469 649.959 215.705 657.324C220.942 664.689 228.346 670.189 236.86 673.038C237.553 673.261 238.173 673.673 238.652 674.228C239.13 674.784 239.449 675.461 239.573 676.187C239.582 676.294 239.582 676.402 239.572 676.509L239.57 676.902C239.566 677.506 239.432 678.101 239.177 678.648C238.923 679.194 238.554 679.678 238.097 680.066L191.317 717.669C187.783 720.524 183.391 722.07 178.869 722.05L160.333 721.982C157.737 721.974 155.168 721.448 152.773 720.435C150.379 719.422 148.205 717.941 146.376 716.077C144.546 714.214 143.098 712.004 142.114 709.574C141.129 707.143 140.627 704.541 140.637 701.914ZM170.114 583.392L160.846 583.357C157.718 583.343 154.711 584.585 152.487 586.81C150.262 589.035 149 592.063 148.978 595.228L148.583 701.943C148.579 705.111 149.817 708.152 152.025 710.397C154.233 712.643 157.232 713.91 160.362 713.922L178.919 713.99C181.626 713.964 184.248 713.025 186.368 711.321L227.891 677.955C219.41 673.733 212.275 667.18 207.302 659.047C202.329 650.914 199.718 641.529 199.769 631.964C199.77 631.552 199.771 631.179 199.773 630.717C199.761 630.539 199.762 630.361 199.775 630.183L199.904 595.416C199.9 594.262 199.741 593.114 199.429 592.003C198.84 590.264 197.917 588.66 196.712 587.284C195.625 586.084 194.305 585.124 192.833 584.466C191.362 583.808 189.772 583.465 188.164 583.459L171.089 583.395C170.948 583.424 170.805 583.441 170.661 583.444C170.477 583.446 170.294 583.428 170.114 583.392Z" fill="#EAEAEA" fill-opacity="0.15"/>
<path d="M140.637 701.914L141.032 595.249C141.064 589.953 143.172 584.886 146.892 581.161C150.613 577.435 155.642 575.356 160.875 575.378L188.193 575.479C190.888 575.492 193.55 576.066 196.017 577.164C198.483 578.262 200.7 579.861 202.53 581.861L202.649 581.993C204.472 584.073 205.882 586.491 206.799 589.112L206.937 589.445C207.545 591.399 207.849 593.437 207.84 595.486L207.704 632.034C207.668 641.107 210.469 649.959 215.705 657.324C220.942 664.689 228.346 670.189 236.86 673.038C237.553 673.261 238.173 673.673 238.652 674.228C239.13 674.784 239.449 675.461 239.573 676.187C239.582 676.294 239.582 676.402 239.572 676.509L239.57 676.902C239.566 677.506 239.432 678.101 239.177 678.648C238.923 679.194 238.554 679.678 238.097 680.066L191.317 717.669C187.783 720.524 183.391 722.07 178.869 722.05L160.333 721.982C157.737 721.974 155.168 721.448 152.773 720.435C150.379 719.422 148.205 717.941 146.376 716.077C144.546 714.214 143.098 712.004 142.114 709.574C141.129 707.143 140.627 704.541 140.637 701.914ZM170.114 583.392L160.846 583.357C157.718 583.343 154.711 584.585 152.487 586.81C150.262 589.035 149 592.063 148.978 595.228L148.583 701.943C148.579 705.111 149.817 708.152 152.025 710.397C154.233 712.643 157.232 713.91 160.362 713.922L178.919 713.99C181.626 713.964 184.248 713.025 186.368 711.321L227.891 677.955C219.41 673.733 212.275 667.18 207.302 659.047C202.329 650.914 199.718 641.529 199.769 631.964C199.77 631.552 199.771 631.179 199.773 630.717C199.761 630.539 199.762 630.361 199.775 630.183L199.904 595.416C199.9 594.262 199.741 593.114 199.429 592.003C198.84 590.264 197.917 588.66 196.712 587.284C195.625 586.084 194.305 585.124 192.833 584.466C191.362 583.808 189.772 583.465 188.164 583.459L171.089 583.395C170.948 583.424 170.805 583.441 170.661 583.444C170.477 583.446 170.294 583.428 170.114 583.392Z" fill="#EAEAEA" fill-opacity="0.15"/>
<path d="M215.348 624.456C215.367 615.384 218.796 606.686 224.888 600.258C230.981 593.829 239.242 590.192 247.872 590.138L248.49 590.141C255.073 590.203 261.484 592.354 266.883 596.312C272.283 600.27 276.418 605.85 278.749 612.322C281.08 618.793 281.497 625.855 279.945 632.581C278.393 639.307 274.946 645.385 270.054 650.018C269.921 650.18 269.81 650.261 269.81 650.238L269.578 650.434L269.456 650.538L269.323 650.665L266.944 652.616C266.812 652.776 266.659 652.915 266.491 653.032C261.56 656.559 255.808 658.605 249.853 658.948C243.899 659.29 237.969 657.917 232.704 654.976C227.439 652.035 223.039 647.638 219.978 642.259C216.918 636.881 215.313 630.725 215.337 624.456L215.348 624.456ZM264.133 643.19C267.695 639.8 270.204 635.362 271.334 630.454C272.465 625.545 272.165 620.394 270.472 615.668C268.78 610.943 265.774 606.863 261.846 603.958C257.917 601.054 253.248 599.459 248.445 599.382L247.926 599.38C241.658 599.525 235.692 602.247 231.308 606.961C226.924 611.675 224.472 618.007 224.476 624.598C224.481 631.189 226.942 637.515 231.332 642.219C235.722 646.924 241.692 649.632 247.96 649.763C252.747 649.781 257.428 648.279 261.389 645.452L263.89 643.375L264.122 643.213L264.133 643.19Z" fill="#EAEAEA" fill-opacity="0.15"/>
<path d="M192.723 432.067L193.121 324.594C193.127 319.257 191.034 314.137 187.3 310.355C183.566 306.574 178.496 304.441 173.203 304.424L145.579 304.322C142.854 304.315 140.157 304.873 137.655 305.961C135.153 307.049 132.899 308.643 131.034 310.645L130.912 310.777C129.053 312.86 127.61 315.285 126.662 317.919L126.52 318.253C125.891 320.218 125.568 322.269 125.562 324.333L125.426 361.158C125.395 370.3 122.497 379.198 117.146 386.579C111.796 393.96 104.267 399.447 95.6376 402.253C94.9343 402.473 94.3043 402.883 93.8164 403.439C93.3285 403.995 93.0013 404.676 92.8704 405.406C92.8601 405.514 92.8597 405.623 92.8692 405.731L92.8678 406.126C92.8675 406.735 92.9986 407.336 93.2518 407.889C93.505 408.441 93.8743 408.931 94.3342 409.326L141.358 447.562C144.909 450.465 149.339 452.056 153.911 452.07L172.657 452.139C175.281 452.15 177.883 451.639 180.312 450.637C182.741 449.634 184.951 448.158 186.814 446.294C188.678 444.43 190.159 442.214 191.173 439.773C192.186 437.332 192.713 434.713 192.723 432.067ZM163.801 312.43L173.174 312.464C176.337 312.473 179.367 313.747 181.601 316.006C183.834 318.264 185.087 321.324 185.086 324.513L184.688 432.037C184.668 435.229 183.394 438.283 181.144 440.529C178.894 442.775 175.853 444.029 172.687 444.018L153.921 443.948C151.184 443.902 148.54 442.936 146.409 441.203L104.67 407.275C113.277 403.084 120.541 396.536 125.631 388.378C130.721 380.221 133.431 370.784 133.451 361.147C133.453 360.732 133.454 360.356 133.456 359.89C133.469 359.711 133.47 359.532 133.458 359.353L133.588 324.322C133.6 323.159 133.77 322.004 134.093 320.887C134.701 319.139 135.647 317.53 136.876 316.152C137.984 314.951 139.327 313.995 140.819 313.342C142.312 312.69 143.922 312.356 145.549 312.362L162.816 312.426C162.958 312.456 163.102 312.474 163.248 312.478C163.433 312.482 163.619 312.465 163.801 312.43Z" fill="#EAEAEA" fill-opacity="0.15"/>
<path d="M192.723 432.067L193.121 324.594C193.127 319.257 191.034 314.137 187.3 310.355C183.566 306.574 178.496 304.441 173.203 304.424L145.579 304.322C142.854 304.315 140.157 304.873 137.655 305.961C135.153 307.049 132.899 308.643 131.034 310.645L130.912 310.777C129.053 312.86 127.61 315.285 126.662 317.919L126.52 318.253C125.891 320.218 125.568 322.269 125.562 324.333L125.426 361.158C125.395 370.3 122.497 379.198 117.146 386.579C111.796 393.96 104.267 399.447 95.6376 402.253C94.9343 402.473 94.3043 402.883 93.8164 403.439C93.3285 403.995 93.0013 404.676 92.8704 405.406C92.8601 405.514 92.8597 405.623 92.8692 405.731L92.8678 406.126C92.8675 406.735 92.9986 407.336 93.2518 407.889C93.505 408.441 93.8743 408.931 94.3342 409.326L141.358 447.562C144.909 450.465 149.339 452.056 153.911 452.07L172.657 452.139C175.281 452.15 177.883 451.639 180.312 450.637C182.741 449.634 184.951 448.158 186.814 446.294C188.678 444.43 190.159 442.214 191.173 439.773C192.186 437.332 192.713 434.713 192.723 432.067ZM163.801 312.43L173.174 312.464C176.337 312.473 179.367 313.747 181.601 316.006C183.834 318.264 185.087 321.324 185.086 324.513L184.688 432.037C184.668 435.229 183.394 438.283 181.144 440.529C178.894 442.775 175.853 444.029 172.687 444.018L153.921 443.948C151.184 443.902 148.54 442.936 146.409 441.203L104.67 407.275C113.277 403.084 120.541 396.536 125.631 388.378C130.721 380.221 133.431 370.784 133.451 361.147C133.453 360.732 133.454 360.356 133.456 359.89C133.469 359.711 133.47 359.532 133.458 359.353L133.588 324.322C133.6 323.159 133.77 322.004 134.093 320.887C134.701 319.139 135.647 317.53 136.876 316.152C137.984 314.951 139.327 313.995 140.819 313.342C142.312 312.69 143.922 312.356 145.549 312.362L162.816 312.426C162.958 312.456 163.102 312.474 163.248 312.478C163.433 312.482 163.619 312.465 163.801 312.43Z" fill="#EAEAEA" fill-opacity="0.15"/>
<path d="M117.479 354.205C117.527 345.133 114.163 336.41 108.118 329.937C102.074 323.463 93.8394 319.765 85.2098 319.647L84.5921 319.645C78.0086 319.659 71.5818 321.762 66.1534 325.68C60.725 329.598 56.548 335.147 54.1696 341.602C51.7911 348.056 51.322 355.114 52.8237 361.852C54.3255 368.589 57.728 374.692 62.5857 379.362C62.7175 379.524 62.8275 379.606 62.8276 379.583L63.0585 379.781L63.1794 379.886L63.3113 380.014L65.6756 381.982C65.8069 382.143 65.9586 382.284 66.1263 382.401C71.0304 385.965 76.7678 388.054 82.7194 388.44C88.671 388.827 94.6106 387.498 99.8972 384.596C105.184 381.694 109.617 377.329 112.717 371.973C115.817 366.618 117.468 360.474 117.49 354.205L117.479 354.205ZM68.5563 372.577C65.02 369.161 62.5439 364.705 61.4497 359.788C60.3556 354.871 60.6941 349.722 62.4213 345.009C64.1485 340.297 67.1845 336.239 71.1344 333.363C75.0843 330.488 79.7654 328.928 84.5689 328.887L85.0874 328.889C91.3547 329.08 97.3002 331.846 101.649 336.592C105.998 341.339 108.403 347.688 108.35 354.279C108.297 360.87 105.789 367.178 101.364 371.85C96.9392 376.521 90.9499 379.185 84.6803 379.269C79.8935 379.253 75.2237 377.716 71.2834 374.86L68.7983 372.764L68.5672 372.6L68.5563 372.577Z" fill="#EAEAEA" fill-opacity="0.15"/>
<path d="M117.479 354.205C117.527 345.133 114.163 336.41 108.118 329.937C102.074 323.463 93.8394 319.765 85.2098 319.647L84.5921 319.645C78.0086 319.659 71.5818 321.762 66.1534 325.68C60.725 329.598 56.548 335.147 54.1696 341.602C51.7911 348.056 51.322 355.114 52.8237 361.852C54.3255 368.589 57.728 374.692 62.5857 379.362C62.7175 379.524 62.8275 379.606 62.8276 379.583L63.0585 379.781L63.1794 379.886L63.3113 380.014L65.6756 381.982C65.8069 382.143 65.9586 382.284 66.1263 382.401C71.0304 385.965 76.7678 388.054 82.7194 388.44C88.671 388.827 94.6106 387.498 99.8972 384.596C105.184 381.694 109.617 377.329 112.717 371.973C115.817 366.618 117.468 360.474 117.49 354.205L117.479 354.205ZM68.5563 372.577C65.02 369.161 62.5439 364.705 61.4497 359.788C60.3556 354.871 60.6941 349.722 62.4213 345.009C64.1485 340.297 67.1845 336.239 71.1344 333.363C75.0843 330.488 79.7654 328.928 84.5689 328.887L85.0874 328.889C91.3547 329.08 97.3002 331.846 101.649 336.592C105.998 341.339 108.403 347.688 108.35 354.279C108.297 360.87 105.789 367.178 101.364 371.85C96.9392 376.521 90.9499 379.185 84.6803 379.269C79.8935 379.253 75.2237 377.716 71.2834 374.86L68.7983 372.764L68.5672 372.6L68.5563 372.577Z" fill="#EAEAEA" fill-opacity="0.15"/>
<path d="M37.0663 177.309L36.6715 283.974C36.6386 289.27 34.5073 294.336 30.7454 298.061C26.9835 301.787 21.8982 303.866 16.6057 303.844L-11.0191 303.742C-13.7438 303.728 -16.4365 303.155 -18.9304 302.057C-21.4244 300.959 -23.6662 299.36 -25.5171 297.359L-25.6373 297.227C-27.4815 295.147 -28.9067 292.729 -29.8346 290.108L-29.9742 289.775C-30.5886 287.821 -30.8966 285.783 -30.8871 283.734L-30.7518 247.186C-30.7156 238.113 -33.548 229.26 -38.8438 221.895C-44.1396 214.53 -51.6275 209.03 -60.2364 206.181C-60.9381 205.958 -61.565 205.546 -62.0488 204.99C-62.5326 204.435 -62.8548 203.757 -62.9802 203.031C-62.9898 202.924 -62.9894 202.816 -62.9791 202.709L-62.9776 202.317C-62.9733 201.713 -62.8379 201.117 -62.5806 200.571C-62.3233 200.024 -61.9503 199.54 -61.4876 199.153L-14.1835 161.552C-10.6105 158.697 -6.169 157.151 -1.59668 157.171L17.1483 157.24C19.7733 157.248 22.3708 157.774 24.7926 158.787C27.2143 159.801 29.4129 161.281 31.2626 163.145C33.1122 165.009 34.5768 167.219 35.5727 169.649C36.5685 172.079 37.0761 174.682 37.0663 177.309ZM7.26267 295.83L16.6352 295.864C19.7985 295.879 22.8384 294.637 25.0882 292.412C27.3379 290.187 28.6139 287.16 28.6363 283.994L29.0313 177.279C29.0351 174.111 27.783 171.071 25.5498 168.825C23.3166 166.58 20.2845 165.312 17.1185 165.3L-1.64664 165.231C-4.38423 165.257 -7.03489 166.196 -9.17876 167.9L-51.1674 201.264C-42.5911 205.487 -35.3757 212.039 -30.3462 220.173C-25.3167 228.306 -22.6763 237.692 -22.727 247.256C-22.7285 247.668 -22.7299 248.041 -22.7316 248.504C-22.7196 248.681 -22.7202 248.859 -22.7335 249.037L-22.8622 283.804C-22.8587 284.958 -22.6972 286.106 -22.3821 287.217C-21.7867 288.956 -20.8527 290.56 -19.6341 291.936C-18.535 293.137 -17.1996 294.096 -15.7119 294.754C-14.2241 295.413 -12.6163 295.756 -10.9896 295.762L6.27715 295.826C6.41966 295.797 6.56441 295.781 6.70976 295.777C6.89538 295.775 7.0807 295.793 7.26267 295.83Z" fill="#EAEAEA" fill-opacity="0.15"/>
<path d="M37.0663 177.309L36.6715 283.974C36.6386 289.27 34.5073 294.336 30.7454 298.061C26.9835 301.787 21.8982 303.866 16.6057 303.844L-11.0191 303.742C-13.7438 303.728 -16.4365 303.155 -18.9304 302.057C-21.4244 300.959 -23.6662 299.36 -25.5171 297.359L-25.6373 297.227C-27.4815 295.147 -28.9067 292.729 -29.8346 290.108L-29.9742 289.775C-30.5886 287.821 -30.8966 285.783 -30.8871 283.734L-30.7518 247.186C-30.7156 238.113 -33.548 229.26 -38.8438 221.895C-44.1396 214.53 -51.6275 209.03 -60.2364 206.181C-60.9381 205.958 -61.565 205.546 -62.0488 204.99C-62.5326 204.435 -62.8548 203.757 -62.9802 203.031C-62.9898 202.924 -62.9894 202.816 -62.9791 202.709L-62.9776 202.317C-62.9733 201.713 -62.8379 201.117 -62.5806 200.571C-62.3233 200.024 -61.9503 199.54 -61.4876 199.153L-14.1835 161.552C-10.6105 158.697 -6.169 157.151 -1.59668 157.171L17.1483 157.24C19.7733 157.248 22.3708 157.774 24.7926 158.787C27.2143 159.801 29.4129 161.281 31.2626 163.145C33.1122 165.009 34.5768 167.219 35.5727 169.649C36.5685 172.079 37.0761 174.682 37.0663 177.309ZM7.26267 295.83L16.6352 295.864C19.7985 295.879 22.8384 294.637 25.0882 292.412C27.3379 290.187 28.6139 287.16 28.6363 283.994L29.0313 177.279C29.0351 174.111 27.783 171.071 25.5498 168.825C23.3166 166.58 20.2845 165.312 17.1185 165.3L-1.64664 165.231C-4.38423 165.257 -7.03489 166.196 -9.17876 167.9L-51.1674 201.264C-42.5911 205.487 -35.3757 212.039 -30.3462 220.173C-25.3167 228.306 -22.6763 237.692 -22.727 247.256C-22.7285 247.668 -22.7299 248.041 -22.7316 248.504C-22.7196 248.681 -22.7202 248.859 -22.7335 249.037L-22.8622 283.804C-22.8587 284.958 -22.6972 286.106 -22.3821 287.217C-21.7867 288.956 -20.8527 290.56 -19.6341 291.936C-18.535 293.137 -17.1996 294.096 -15.7119 294.754C-14.2241 295.413 -12.6163 295.756 -10.9896 295.762L6.27715 295.826C6.41966 295.797 6.56441 295.781 6.70976 295.777C6.89538 295.775 7.0807 295.793 7.26267 295.83Z" fill="#EAEAEA" fill-opacity="0.15"/>
<path d="M-4.88289 408.169L-5.27773 514.834C-5.28402 520.13 -3.19031 525.213 0.543921 528.966C4.27816 532.719 9.34784 534.836 14.6404 534.853L42.2652 534.955C44.9899 534.962 47.6868 534.408 50.1888 533.328C52.6908 532.249 54.9444 530.666 56.81 528.679L56.9312 528.549C58.7908 526.482 60.2339 524.075 61.1811 521.46L61.3232 521.129C61.9521 519.179 62.2751 517.143 62.2807 515.095L62.416 478.547C62.447 469.473 65.3449 460.642 70.6951 453.317C76.0453 445.991 83.5737 440.546 92.2035 437.761C92.9067 437.543 93.5367 437.136 94.0246 436.584C94.5125 436.032 94.8397 435.357 94.9705 434.632C94.9809 434.525 94.9813 434.417 94.9717 434.31L94.9732 433.917C94.9734 433.313 94.8423 432.717 94.5891 432.168C94.3358 431.62 93.9665 431.134 93.5066 430.742L46.4822 392.792C42.9304 389.911 38.5005 388.332 33.9282 388.318L15.1831 388.249C12.5582 388.238 9.95687 388.744 7.52767 389.739C5.09847 390.735 2.88903 392.199 1.02559 394.049C-0.837841 395.899 -2.31877 398.098 -3.33257 400.521C-4.34637 402.944 -4.87316 405.543 -4.88289 408.169ZM24.0425 526.908L14.67 526.873C11.5067 526.864 8.47605 525.6 6.24281 523.358C4.00957 521.116 2.75602 518.08 2.75709 514.914L3.15212 408.199C3.17184 405.031 4.44635 402 6.69614 399.771C8.94593 397.542 11.9873 396.297 15.1533 396.309L33.9184 396.378C36.6558 396.425 39.2994 397.383 41.4306 399.103L83.1711 432.777C74.5638 436.936 67.3 443.435 62.2105 451.531C57.1209 459.627 54.4111 468.993 54.3909 478.557C54.3894 478.97 54.388 479.342 54.3863 479.805C54.373 479.982 54.3723 480.161 54.3843 480.338L54.2556 515.105C54.2435 516.259 54.0735 517.407 53.7502 518.515C53.1419 520.25 52.1961 521.847 50.9673 523.214C49.8594 524.406 48.5169 525.355 47.0244 526.003C45.5318 526.65 43.9215 526.981 42.2948 526.975L25.028 526.911C24.8857 526.881 24.7411 526.864 24.5958 526.859C24.4102 526.856 24.2247 526.872 24.0425 526.908Z" fill="#EAEAEA" fill-opacity="0.15"/>
<path d="M-4.88289 408.169L-5.27773 514.834C-5.28402 520.13 -3.19031 525.213 0.543921 528.966C4.27816 532.719 9.34784 534.836 14.6404 534.853L42.2652 534.955C44.9899 534.962 47.6868 534.408 50.1888 533.328C52.6908 532.249 54.9444 530.666 56.81 528.679L56.9312 528.549C58.7908 526.482 60.2339 524.075 61.1811 521.46L61.3232 521.129C61.9521 519.179 62.2751 517.143 62.2807 515.095L62.416 478.547C62.447 469.473 65.3449 460.642 70.6951 453.317C76.0453 445.991 83.5737 440.546 92.2035 437.761C92.9067 437.543 93.5367 437.136 94.0246 436.584C94.5125 436.032 94.8397 435.357 94.9705 434.632C94.9809 434.525 94.9813 434.417 94.9717 434.31L94.9732 433.917C94.9734 433.313 94.8423 432.717 94.5891 432.168C94.3358 431.62 93.9665 431.134 93.5066 430.742L46.4822 392.792C42.9304 389.911 38.5005 388.332 33.9282 388.318L15.1831 388.249C12.5582 388.238 9.95687 388.744 7.52767 389.739C5.09847 390.735 2.88903 392.199 1.02559 394.049C-0.837841 395.899 -2.31877 398.098 -3.33257 400.521C-4.34637 402.944 -4.87316 405.543 -4.88289 408.169ZM24.0425 526.908L14.67 526.873C11.5067 526.864 8.47605 525.6 6.24281 523.358C4.00957 521.116 2.75602 518.08 2.75709 514.914L3.15212 408.199C3.17184 405.031 4.44635 402 6.69614 399.771C8.94593 397.542 11.9873 396.297 15.1533 396.309L33.9184 396.378C36.6558 396.425 39.2994 397.383 41.4306 399.103L83.1711 432.777C74.5638 436.936 67.3 443.435 62.2105 451.531C57.1209 459.627 54.4111 468.993 54.3909 478.557C54.3894 478.97 54.388 479.342 54.3863 479.805C54.373 479.982 54.3723 480.161 54.3843 480.338L54.2556 515.105C54.2435 516.259 54.0735 517.407 53.7502 518.515C53.1419 520.25 52.1961 521.847 50.9673 523.214C49.8594 524.406 48.5169 525.355 47.0244 526.003C45.5318 526.65 43.9215 526.981 42.2948 526.975L25.028 526.911C24.8857 526.881 24.7411 526.864 24.5958 526.859C24.4102 526.856 24.2247 526.872 24.0425 526.908Z" fill="#EAEAEA" fill-opacity="0.15"/>
<path d="M70.3651 486.182C70.3166 495.254 73.6812 503.977 79.7256 510.451C85.7701 516.924 94.0044 520.622 102.634 520.74L103.252 520.742C109.835 520.729 116.262 518.625 121.69 514.707C127.119 510.789 131.296 505.24 133.674 498.786C136.053 492.332 136.522 485.274 135.02 478.536C133.518 471.798 130.116 465.695 125.258 461.026C125.126 460.863 125.016 460.781 125.016 460.805L124.785 460.607L124.664 460.502L124.532 460.374L122.168 458.405C122.037 458.245 121.885 458.104 121.717 457.986C116.813 454.422 111.076 452.334 105.124 451.947C99.1728 451.56 93.2331 452.89 87.9465 455.792C82.6599 458.694 78.2272 463.058 75.1268 468.414C72.0264 473.77 70.3761 479.914 70.354 486.182L70.3651 486.182ZM119.287 467.81C122.824 471.227 125.3 475.683 126.394 480.599C127.488 485.516 127.15 490.665 125.422 495.378C123.695 500.091 120.659 504.149 116.709 507.024C112.759 509.9 108.078 511.459 103.275 511.501L102.756 511.499C96.489 511.307 90.5435 508.542 86.1948 503.795C81.8461 499.049 79.4405 492.699 79.4937 486.108C79.547 479.517 82.0549 473.209 86.4797 468.538C90.9045 463.866 96.8939 461.203 103.163 461.118C107.95 461.135 112.62 462.672 116.56 465.527L119.045 467.624L119.277 467.787L119.287 467.81Z" fill="#EAEAEA" fill-opacity="0.15"/>
<path d="M70.3651 486.182C70.3166 495.254 73.6812 503.977 79.7256 510.451C85.7701 516.924 94.0044 520.622 102.634 520.74L103.252 520.742C109.835 520.729 116.262 518.625 121.69 514.707C127.119 510.789 131.296 505.24 133.674 498.786C136.053 492.332 136.522 485.274 135.02 478.536C133.518 471.798 130.116 465.695 125.258 461.026C125.126 460.863 125.016 460.781 125.016 460.805L124.785 460.607L124.664 460.502L124.532 460.374L122.168 458.405C122.037 458.245 121.885 458.104 121.717 457.986C116.813 454.422 111.076 452.334 105.124 451.947C99.1728 451.56 93.2331 452.89 87.9465 455.792C82.6599 458.694 78.2272 463.058 75.1268 468.414C72.0264 473.77 70.3761 479.914 70.354 486.182L70.3651 486.182ZM119.287 467.81C122.824 471.227 125.3 475.683 126.394 480.599C127.488 485.516 127.15 490.665 125.422 495.378C123.695 500.091 120.659 504.149 116.709 507.024C112.759 509.9 108.078 511.459 103.275 511.501L102.756 511.499C96.489 511.307 90.5435 508.542 86.1948 503.795C81.8461 499.049 79.4405 492.699 79.4937 486.108C79.547 479.517 82.0549 473.209 86.4797 468.538C90.9045 463.866 96.8939 461.203 103.163 461.118C107.95 461.135 112.62 462.672 116.56 465.527L119.045 467.624L119.277 467.787L119.287 467.81Z" fill="#EAEAEA" fill-opacity="0.15"/>
<path d="M121.191 554.283L120.793 661.756C120.76 667.092 118.605 672.197 114.801 675.951C110.998 679.704 105.856 681.799 100.505 681.777L72.5729 681.674C69.818 681.66 67.0953 681.082 64.5736 679.975C62.052 678.869 59.7852 677.258 57.9138 675.242L57.7923 675.11C55.9275 673.013 54.4864 670.577 53.5482 667.936L53.407 667.601C52.7857 665.631 52.4743 663.578 52.4839 661.514L52.6203 624.689C52.6567 615.547 49.7927 606.628 44.438 599.207C39.0832 591.786 31.512 586.244 22.8075 583.373C22.098 583.148 21.4642 582.733 20.975 582.173C20.4857 581.614 20.16 580.931 20.0331 580.199C20.0235 580.091 20.0239 579.983 20.0343 579.875L20.0358 579.48C20.0401 578.871 20.1771 578.271 20.4372 577.72C20.6973 577.17 21.0744 576.682 21.5423 576.291L69.3715 538.406C72.9842 535.53 77.475 533.972 82.0981 533.992L101.051 534.062C103.706 534.071 106.332 534.6 108.781 535.621C111.229 536.642 113.452 538.134 115.323 540.012C117.193 541.89 118.674 544.117 119.681 546.565C120.688 549.014 121.201 551.637 121.191 554.283ZM91.0577 673.702L100.534 673.737C103.733 673.751 106.806 672.5 109.081 670.258C111.356 668.016 112.646 664.966 112.669 661.777L113.067 554.253C113.07 551.061 111.804 547.998 109.546 545.735C107.288 543.473 104.223 542.195 101.021 542.183L82.0477 542.113C79.2797 542.139 76.5996 543.086 74.4319 544.802L31.9772 578.419C40.6488 582.673 47.9445 589.276 53.03 597.471C58.1154 605.666 60.7853 615.123 60.7342 624.759C60.7327 625.175 60.7313 625.55 60.7296 626.017C60.7417 626.196 60.7411 626.375 60.7276 626.554L60.5979 661.584C60.6015 662.747 60.7649 663.904 61.0834 665.023C61.6855 666.776 62.6299 668.392 63.8621 669.779C64.9733 670.988 66.3236 671.955 67.8279 672.618C69.3322 673.281 70.9578 673.627 72.6026 673.633L90.0613 673.698C90.2053 673.669 90.3517 673.652 90.4987 673.649C90.6863 673.647 90.8737 673.665 91.0577 673.702Z" fill="#EAEAEA" fill-opacity="0.15"/>
<path d="M121.191 554.283L120.793 661.756C120.76 667.092 118.605 672.197 114.801 675.951C110.998 679.704 105.856 681.799 100.505 681.777L72.5729 681.674C69.818 681.66 67.0953 681.082 64.5736 679.975C62.052 678.869 59.7852 677.258 57.9138 675.242L57.7923 675.11C55.9275 673.013 54.4864 670.577 53.5482 667.936L53.407 667.601C52.7857 665.631 52.4743 663.578 52.4839 661.514L52.6203 624.689C52.6567 615.547 49.7927 606.628 44.438 599.207C39.0832 591.786 31.512 586.244 22.8075 583.373C22.098 583.148 21.4642 582.733 20.975 582.173C20.4857 581.614 20.16 580.931 20.0331 580.199C20.0235 580.091 20.0239 579.983 20.0343 579.875L20.0358 579.48C20.0401 578.871 20.1771 578.271 20.4372 577.72C20.6973 577.17 21.0744 576.682 21.5423 576.291L69.3715 538.406C72.9842 535.53 77.475 533.972 82.0981 533.992L101.051 534.062C103.706 534.071 106.332 534.6 108.781 535.621C111.229 536.642 113.452 538.134 115.323 540.012C117.193 541.89 118.674 544.117 119.681 546.565C120.688 549.014 121.201 551.637 121.191 554.283ZM91.0577 673.702L100.534 673.737C103.733 673.751 106.806 672.5 109.081 670.258C111.356 668.016 112.646 664.966 112.669 661.777L113.067 554.253C113.07 551.061 111.804 547.998 109.546 545.735C107.288 543.473 104.223 542.195 101.021 542.183L82.0477 542.113C79.2797 542.139 76.5996 543.086 74.4319 544.802L31.9772 578.419C40.6488 582.673 47.9445 589.276 53.03 597.471C58.1154 605.666 60.7853 615.123 60.7342 624.759C60.7327 625.175 60.7313 625.55 60.7296 626.017C60.7417 626.196 60.7411 626.375 60.7276 626.554L60.5979 661.584C60.6015 662.747 60.7649 663.904 61.0834 665.023C61.6855 666.776 62.6299 668.392 63.8621 669.779C64.9733 670.988 66.3236 671.955 67.8279 672.618C69.3322 673.281 70.9578 673.627 72.6026 673.633L90.0613 673.698C90.2053 673.669 90.3517 673.652 90.4987 673.649C90.6863 673.647 90.8737 673.665 91.0577 673.702Z" fill="#EAEAEA" fill-opacity="0.15"/>
<path d="M45.372 631.03C45.3542 639.956 41.868 648.513 35.6733 654.837C29.4787 661.161 21.0776 664.739 12.3012 664.791L11.673 664.788C4.97819 664.726 -1.5418 662.609 -7.03306 658.714C-12.5243 654.819 -16.7308 649.329 -19.1017 642.961C-21.4726 636.594 -21.8974 629.646 -20.3204 623.028C-18.7433 616.411 -15.238 610.431 -10.2635 605.874C-10.1283 605.714 -10.0158 605.635 -10.0159 605.658L-9.77965 605.465L-9.65586 605.362L-9.52079 605.237L-7.10193 603.318C-6.96721 603.161 -6.81195 603.024 -6.64049 602.909C-1.62705 599.439 4.22296 597.427 10.2781 597.091C16.3333 596.754 22.3636 598.106 27.7181 601C33.0727 603.895 37.5481 608.221 40.6613 613.514C43.7745 618.806 45.4072 624.863 45.3832 631.03L45.372 631.03ZM-4.24215 612.593C-7.86355 615.928 -10.4146 620.293 -11.5637 625.123C-12.7128 629.952 -12.4066 635.02 -10.6851 639.67C-8.96358 644.319 -5.90632 648.334 -1.91087 651.192C2.08457 654.05 6.83332 655.619 11.7179 655.696L12.2451 655.698C18.6199 655.556 24.6865 652.879 29.144 648.241C33.6014 643.604 36.0948 637.374 36.0895 630.889C36.0841 624.405 33.5805 618.18 29.1154 613.551C24.6503 608.923 18.5793 606.258 12.2042 606.128C7.33632 606.109 2.57619 607.587 -1.45196 610.367L-3.9947 612.411L-4.23084 612.57L-4.24215 612.593Z" fill="#EAEAEA" fill-opacity="0.15"/>
<path d="M45.372 631.03C45.3542 639.956 41.868 648.513 35.6733 654.837C29.4787 661.161 21.0776 664.739 12.3012 664.791L11.673 664.788C4.97819 664.726 -1.5418 662.609 -7.03306 658.714C-12.5243 654.819 -16.7308 649.329 -19.1017 642.961C-21.4726 636.594 -21.8974 629.646 -20.3204 623.028C-18.7433 616.411 -15.238 610.431 -10.2635 605.874C-10.1283 605.714 -10.0158 605.635 -10.0159 605.658L-9.77965 605.465L-9.65586 605.362L-9.52079 605.237L-7.10193 603.318C-6.96721 603.161 -6.81195 603.024 -6.64049 602.909C-1.62705 599.439 4.22296 597.427 10.2781 597.091C16.3333 596.754 22.3636 598.106 27.7181 601C33.0727 603.895 37.5481 608.221 40.6613 613.514C43.7745 618.806 45.4072 624.863 45.3832 631.03L45.372 631.03ZM-4.24215 612.593C-7.86355 615.928 -10.4146 620.293 -11.5637 625.123C-12.7128 629.952 -12.4066 635.02 -10.6851 639.67C-8.96358 644.319 -5.90632 648.334 -1.91087 651.192C2.08457 654.05 6.83332 655.619 11.7179 655.696L12.2451 655.698C18.6199 655.556 24.6865 652.879 29.144 648.241C33.6014 643.604 36.0948 637.374 36.0895 630.889C36.0841 624.405 33.5805 618.18 29.1154 613.551C24.6503 608.923 18.5793 606.258 12.2042 606.128C7.33632 606.109 2.57619 607.587 -1.45196 610.367L-3.9947 612.411L-4.23084 612.57L-4.24215 612.593Z" fill="#EAEAEA" fill-opacity="0.15"/>
<path d="M89.5021 142.579L195.527 143.356C200.791 143.381 205.85 141.306 209.594 137.586C213.338 133.866 215.461 128.805 215.497 123.514L215.697 95.8947C215.713 93.1706 215.172 90.4722 214.108 87.9668C213.044 85.4615 211.479 83.2026 209.511 81.3302L209.382 81.2086C207.334 79.342 204.946 77.8905 202.351 76.9341L202.022 76.7909C200.086 76.1551 198.064 75.8249 196.027 75.8119L159.698 75.5455C150.68 75.482 141.912 72.5531 134.649 67.1776C127.387 61.8022 122.002 54.2557 119.264 45.6177C119.049 44.9138 118.647 44.2825 118.1 43.7927C117.553 43.3029 116.883 42.9734 116.163 42.84C116.057 42.8293 115.95 42.8285 115.843 42.8376L115.453 42.8348C114.853 42.8324 114.259 42.9613 113.713 43.2125C113.167 43.4637 112.682 43.8313 112.292 44.2896L74.4006 91.1687C71.5239 94.7094 69.9387 99.1328 69.9084 103.704L69.7724 122.445C69.7521 125.07 70.2463 127.672 71.227 130.105C72.2076 132.537 73.6553 134.751 75.4875 136.621C77.3197 138.491 79.5004 139.979 81.9051 141.001C84.3098 142.024 86.8913 142.56 89.5021 142.579ZM207.633 114.085L207.565 123.456C207.544 126.618 206.277 129.644 204.041 131.868C201.804 134.093 198.782 135.336 195.635 135.323L89.5604 134.546C86.4115 134.514 83.4034 133.229 81.1958 130.972C78.9882 128.715 77.7614 125.669 77.7843 122.504L77.9204 103.743C77.9762 101.006 78.9388 98.3666 80.6556 96.2419L114.277 54.6304C118.381 63.251 124.815 70.5366 132.844 75.6542C140.873 80.7718 150.173 83.5146 159.68 83.5691C160.09 83.5721 160.46 83.5748 160.921 83.5782C161.097 83.5922 161.274 83.5935 161.451 83.5821L196.009 83.8355C197.156 83.8517 198.296 84.0258 199.396 84.353C201.118 84.9674 202.703 85.9188 204.057 87.1522C205.238 88.2641 206.177 89.6098 206.815 91.1044C207.453 92.5989 207.777 94.2101 207.765 95.8365L207.64 113.1C207.61 113.242 207.592 113.386 207.587 113.532C207.583 113.717 207.598 113.903 207.633 114.085Z" fill="#EAEAEA" fill-opacity="0.15"/>
<path d="M89.5021 142.579L195.527 143.356C200.791 143.381 205.85 141.306 209.594 137.586C213.338 133.866 215.461 128.805 215.497 123.514L215.697 95.8947C215.713 93.1706 215.172 90.4722 214.108 87.9668C213.044 85.4615 211.479 83.2026 209.511 81.3302L209.382 81.2086C207.334 79.342 204.946 77.8905 202.351 76.9341L202.022 76.7909C200.086 76.1551 198.064 75.8249 196.027 75.8119L159.698 75.5455C150.68 75.482 141.912 72.5531 134.649 67.1776C127.387 61.8022 122.002 54.2557 119.264 45.6177C119.049 44.9138 118.647 44.2825 118.1 43.7927C117.553 43.3029 116.883 42.9734 116.163 42.84C116.057 42.8293 115.95 42.8285 115.843 42.8376L115.453 42.8348C114.853 42.8324 114.259 42.9613 113.713 43.2125C113.167 43.4637 112.682 43.8313 112.292 44.2896L74.4006 91.1687C71.5239 94.7094 69.9387 99.1328 69.9084 103.704L69.7724 122.445C69.7521 125.07 70.2463 127.672 71.227 130.105C72.2076 132.537 73.6553 134.751 75.4875 136.621C77.3197 138.491 79.5004 139.979 81.9051 141.001C84.3098 142.024 86.8913 142.56 89.5021 142.579ZM207.633 114.085L207.565 123.456C207.544 126.618 206.277 129.644 204.041 131.868C201.804 134.093 198.782 135.336 195.635 135.323L89.5604 134.546C86.4115 134.514 83.4034 133.229 81.1958 130.972C78.9882 128.715 77.7614 125.669 77.7843 122.504L77.9204 103.743C77.9762 101.006 78.9388 98.3666 80.6556 96.2419L114.277 54.6304C118.381 63.251 124.815 70.5366 132.844 75.6542C140.873 80.7718 150.173 83.5146 159.68 83.5691C160.09 83.5721 160.46 83.5748 160.921 83.5782C161.097 83.5922 161.274 83.5935 161.451 83.5821L196.009 83.8355C197.156 83.8517 198.296 84.0258 199.396 84.353C201.118 84.9674 202.703 85.9188 204.057 87.1522C205.238 88.2641 206.177 89.6098 206.815 91.1044C207.453 92.5989 207.777 94.2101 207.765 95.8365L207.64 113.1C207.61 113.242 207.592 113.386 207.587 113.532C207.583 113.717 207.598 113.903 207.633 114.085Z" fill="#EAEAEA" fill-opacity="0.15"/>
<path d="M166.448 67.7373C175.362 67.8178 183.946 64.4269 190.329 58.3034C196.712 52.18 200.376 43.8206 200.524 35.0469L200.529 34.4188C200.54 27.725 198.497 21.1833 194.668 15.6505C190.839 10.1177 185.402 5.85171 179.069 3.41122C172.736 0.970715 165.803 0.469495 159.177 1.9732C152.551 3.47691 146.542 6.91543 141.936 11.8384C141.776 11.9719 141.695 12.0834 141.718 12.0836L141.522 12.3177L141.419 12.4403L141.293 12.574L139.35 14.9711C139.191 15.104 139.052 15.2577 138.936 15.4279C135.416 20.4018 133.343 26.2282 132.94 32.2781C132.538 38.3281 133.822 44.3718 136.654 49.7569C139.485 55.142 143.757 59.6639 149.008 62.8347C154.259 66.0054 160.289 67.7045 166.448 67.7485L166.448 67.7373ZM148.58 17.9323C151.95 14.3486 156.338 11.8463 161.173 10.7507C166.007 9.65519 171.066 10.0171 175.69 11.7895C180.314 13.5618 184.29 16.6625 187.1 20.6885C189.911 24.7144 191.426 29.4793 191.449 34.3635L191.445 34.8906C191.233 41.2622 188.493 47.2978 183.813 51.703C179.133 56.1083 172.885 58.5323 166.41 58.4555C159.934 58.3787 153.746 55.8071 149.172 51.2921C144.598 46.7771 142.004 40.6782 141.944 34.3034C141.978 29.4364 143.506 24.6938 146.327 20.6973L148.396 18.1777L148.557 17.9434L148.58 17.9323Z" fill="#EAEAEA" fill-opacity="0.15"/>
<path d="M166.448 67.7373C175.362 67.8178 183.946 64.4269 190.329 58.3034C196.712 52.18 200.376 43.8206 200.524 35.0469L200.529 34.4188C200.54 27.725 198.497 21.1833 194.668 15.6505C190.839 10.1177 185.402 5.85171 179.069 3.41122C172.736 0.970715 165.803 0.469495 159.177 1.9732C152.551 3.47691 146.542 6.91543 141.936 11.8384C141.776 11.9719 141.695 12.0834 141.718 12.0836L141.522 12.3177L141.419 12.4403L141.293 12.574L139.35 14.9711C139.191 15.104 139.052 15.2577 138.936 15.4279C135.416 20.4018 133.343 26.2282 132.94 32.2781C132.538 38.3281 133.822 44.3718 136.654 49.7569C139.485 55.142 143.757 59.6639 149.008 62.8347C154.259 66.0054 160.289 67.7045 166.448 67.7485L166.448 67.7373ZM148.58 17.9323C151.95 14.3486 156.338 11.8463 161.173 10.7507C166.007 9.65519 171.066 10.0171 175.69 11.7895C180.314 13.5618 184.29 16.6625 187.1 20.6885C189.911 24.7144 191.426 29.4793 191.449 34.3635L191.445 34.8906C191.233 41.2622 188.493 47.2978 183.813 51.703C179.133 56.1083 172.885 58.5323 166.41 58.4555C159.934 58.3787 153.746 55.8071 149.172 51.2921C144.598 46.7771 142.004 40.6782 141.944 34.3034C141.978 29.4364 143.506 24.6938 146.327 20.6973L148.396 18.1777L148.557 17.9434L148.58 17.9323Z" fill="#EAEAEA" fill-opacity="0.15"/>
<path d="M160.822 560.135L266.847 560.913C272.111 560.938 277.171 558.863 280.915 555.143C284.658 551.423 286.781 546.362 286.817 541.07L287.017 513.451C287.033 510.727 286.493 508.029 285.429 505.523C284.364 503.018 282.8 500.759 280.831 498.887L280.702 498.765C278.654 496.899 276.267 495.447 273.671 494.491L273.342 494.348C271.406 493.712 269.384 493.382 267.347 493.369L231.019 493.102C222 493.039 213.232 490.11 205.97 484.734C198.707 479.359 193.322 471.812 190.584 463.174C190.37 462.47 189.967 461.839 189.421 461.349C188.874 460.86 188.204 460.53 187.483 460.397C187.377 460.386 187.27 460.385 187.163 460.394L186.773 460.391C186.173 460.389 185.579 460.518 185.033 460.769C184.487 461.02 184.002 461.388 183.612 461.846L145.721 508.725C142.844 512.266 141.259 516.689 141.229 521.261L141.093 540.002C141.072 542.626 141.567 545.229 142.547 547.661C143.528 550.094 144.976 552.308 146.808 554.178C148.64 556.047 150.821 557.536 153.225 558.558C155.63 559.58 158.212 560.116 160.822 560.135ZM278.953 531.642L278.885 541.012C278.865 544.175 277.597 547.2 275.361 549.425C273.125 551.65 270.102 552.892 266.956 552.88L160.881 552.102C157.732 552.071 154.724 550.786 152.516 548.529C150.308 546.271 149.082 543.226 149.105 540.061L149.241 521.299C149.297 518.563 150.259 515.923 151.976 513.799L185.597 472.187C189.701 480.808 196.135 488.093 204.164 493.211C212.194 498.328 221.494 501.071 231.001 501.126C231.411 501.129 231.781 501.131 232.241 501.135C232.417 501.149 232.594 501.15 232.771 501.139L267.329 501.392C268.476 501.408 269.616 501.582 270.716 501.91C272.439 502.524 274.023 503.475 275.377 504.709C276.558 505.821 277.497 507.166 278.135 508.661C278.774 510.156 279.097 511.767 279.085 513.393L278.96 530.656C278.93 530.798 278.912 530.943 278.907 531.088C278.903 531.274 278.918 531.459 278.953 531.642Z" fill="#EAEAEA" fill-opacity="0.15"/>
<path d="M237.769 485.294C246.682 485.374 255.266 481.984 261.649 475.86C268.032 469.737 271.697 461.377 271.845 452.604L271.849 451.975C271.86 445.282 269.817 438.74 265.988 433.207C262.159 427.674 256.722 423.408 250.389 420.968C244.056 418.527 237.123 418.026 230.498 419.53C223.872 421.034 217.862 424.472 213.256 429.395C213.096 429.528 213.015 429.64 213.038 429.64L212.843 429.874L212.739 429.997L212.613 430.131L210.67 432.528C210.512 432.661 210.373 432.814 210.257 432.985C206.736 437.958 204.663 443.785 204.261 449.835C203.858 455.885 205.142 461.928 207.974 467.314C210.806 472.699 215.077 477.221 220.328 480.391C225.579 483.562 231.609 485.261 237.768 485.305L237.769 485.294ZM219.9 435.489C223.27 431.905 227.658 429.403 232.493 428.307C237.328 427.212 242.386 427.574 247.01 429.346C251.634 431.118 255.61 434.219 258.42 438.245C261.231 442.271 262.746 447.036 262.769 451.92L262.765 452.447C262.553 458.819 259.814 464.854 255.134 469.26C250.454 473.665 244.206 476.089 237.73 476.012C231.254 475.935 225.066 473.364 220.492 468.849C215.919 464.334 213.324 458.235 213.264 451.86C213.299 446.993 214.826 442.25 217.647 438.254L219.716 435.734L219.877 435.5L219.9 435.489Z" fill="#EAEAEA" fill-opacity="0.15"/>
<path d="M357.623 23.2039L251.598 22.4266C246.334 22.4013 241.275 24.4764 237.531 28.1964C233.787 31.9165 231.664 36.9776 231.628 42.2691L231.428 69.888C231.412 72.6121 231.953 75.3105 233.017 77.8159C234.081 80.3212 235.646 82.5801 237.614 84.4525L237.743 84.5741C239.791 86.4408 242.179 87.8922 244.774 88.8486L245.103 88.9918C247.039 89.6276 249.061 89.9578 251.098 89.9708L287.427 90.2372C296.445 90.3007 305.213 93.2297 312.476 98.6051C319.738 103.98 325.123 111.527 327.861 120.165C328.076 120.869 328.478 121.5 329.025 121.99C329.572 122.48 330.242 122.809 330.962 122.943C331.068 122.953 331.175 122.954 331.282 122.945L331.672 122.948C332.272 122.95 332.866 122.821 333.412 122.57C333.958 122.319 334.443 121.951 334.833 121.493L372.724 74.614C375.601 71.0733 377.186 66.6499 377.217 62.0785L377.353 43.3374C377.373 40.713 376.879 38.1104 375.898 35.6781C374.917 33.2458 373.47 31.0315 371.637 29.1618C369.805 27.2921 367.625 25.8036 365.22 24.7813C362.815 23.759 360.234 23.223 357.623 23.2039ZM239.492 51.6978L239.56 42.3272C239.581 39.1645 240.848 36.1391 243.084 33.9143C245.321 31.6895 248.343 30.4471 251.49 30.4595L357.565 31.2372C360.714 31.2683 363.722 32.5534 365.929 34.8107C368.137 37.0681 369.364 40.1133 369.341 43.2787L369.205 62.0399C369.149 64.7765 368.186 67.4162 366.469 69.5408L332.848 111.152C328.744 102.532 322.31 95.2461 314.281 90.1285C306.252 85.011 296.952 82.2681 287.445 82.2136C287.035 82.2106 286.665 82.2079 286.204 82.2045C286.028 82.1905 285.851 82.1892 285.674 82.2006L251.116 81.9473C249.969 81.931 248.829 81.7569 247.729 81.4298C246.007 80.8153 244.422 79.8639 243.068 78.6305C241.887 77.5186 240.948 76.173 240.31 74.6784C239.672 73.1838 239.348 71.5726 239.36 69.9462L239.485 52.6831C239.515 52.5409 239.533 52.3964 239.538 52.2511C239.542 52.0656 239.527 51.8801 239.492 51.6978Z" fill="#EAEAEA" fill-opacity="0.15"/>
<path d="M357.623 23.2039L251.598 22.4266C246.334 22.4013 241.275 24.4764 237.531 28.1964C233.787 31.9165 231.664 36.9776 231.628 42.2691L231.428 69.888C231.412 72.6121 231.953 75.3105 233.017 77.8159C234.081 80.3212 235.646 82.5801 237.614 84.4525L237.743 84.5741C239.791 86.4408 242.179 87.8922 244.774 88.8486L245.103 88.9918C247.039 89.6276 249.061 89.9578 251.098 89.9708L287.427 90.2372C296.445 90.3007 305.213 93.2297 312.476 98.6051C319.738 103.98 325.123 111.527 327.861 120.165C328.076 120.869 328.478 121.5 329.025 121.99C329.572 122.48 330.242 122.809 330.962 122.943C331.068 122.953 331.175 122.954 331.282 122.945L331.672 122.948C332.272 122.95 332.866 122.821 333.412 122.57C333.958 122.319 334.443 121.951 334.833 121.493L372.724 74.614C375.601 71.0733 377.186 66.6499 377.217 62.0785L377.353 43.3374C377.373 40.713 376.879 38.1104 375.898 35.6781C374.917 33.2458 373.47 31.0315 371.637 29.1618C369.805 27.2921 367.625 25.8036 365.22 24.7813C362.815 23.759 360.234 23.223 357.623 23.2039ZM239.492 51.6978L239.56 42.3272C239.581 39.1645 240.848 36.1391 243.084 33.9143C245.321 31.6895 248.343 30.4471 251.49 30.4595L357.565 31.2372C360.714 31.2683 363.722 32.5534 365.929 34.8107C368.137 37.0681 369.364 40.1133 369.341 43.2787L369.205 62.0399C369.149 64.7765 368.186 67.4162 366.469 69.5408L332.848 111.152C328.744 102.532 322.31 95.2461 314.281 90.1285C306.252 85.011 296.952 82.2681 287.445 82.2136C287.035 82.2106 286.665 82.2079 286.204 82.2045C286.028 82.1905 285.851 82.1892 285.674 82.2006L251.116 81.9473C249.969 81.931 248.829 81.7569 247.729 81.4298C246.007 80.8153 244.422 79.8639 243.068 78.6305C241.887 77.5186 240.948 76.173 240.31 74.6784C239.672 73.1838 239.348 71.5726 239.36 69.9462L239.485 52.6831C239.515 52.5409 239.533 52.3964 239.538 52.2511C239.542 52.0656 239.527 51.8801 239.492 51.6978Z" fill="#EAEAEA" fill-opacity="0.15"/>
<path d="M280.673 98.0457C271.759 97.9651 263.175 101.356 256.792 107.48C250.409 113.603 246.745 121.962 246.597 130.736L246.592 131.364C246.581 138.058 248.624 144.6 252.453 150.132C256.282 155.665 261.719 159.931 268.052 162.372C274.385 164.812 281.318 165.313 287.944 163.81C294.57 162.306 300.579 158.868 305.185 153.945C305.345 153.811 305.426 153.7 305.403 153.699L305.599 153.465L305.702 153.343L305.828 153.209L307.771 150.812C307.93 150.679 308.069 150.525 308.185 150.355C311.705 145.381 313.778 139.555 314.181 133.505C314.583 127.455 313.299 121.411 310.467 116.026C307.636 110.641 303.364 106.119 298.113 102.948C292.862 99.7775 286.832 98.0785 280.673 98.0344L280.673 98.0457ZM298.541 147.851C295.171 151.434 290.783 153.937 285.949 155.032C281.114 156.128 276.055 155.766 271.431 153.994C266.807 152.221 262.831 149.12 260.021 145.094C257.211 141.069 255.695 136.304 255.673 131.42L255.676 130.892C255.888 124.521 258.628 118.485 263.308 114.08C267.988 109.675 274.236 107.251 280.711 107.327C287.187 107.404 293.375 109.976 297.949 114.491C302.523 119.006 305.117 125.105 305.177 131.48C305.143 136.347 303.615 141.089 300.794 145.086L298.725 147.605L298.564 147.84L298.541 147.851Z" fill="#EAEAEA" fill-opacity="0.15"/>
<path d="M280.673 98.0457C271.759 97.9651 263.175 101.356 256.792 107.48C250.409 113.603 246.745 121.962 246.597 130.736L246.592 131.364C246.581 138.058 248.624 144.6 252.453 150.132C256.282 155.665 261.719 159.931 268.052 162.372C274.385 164.812 281.318 165.313 287.944 163.81C294.57 162.306 300.579 158.868 305.185 153.945C305.345 153.811 305.426 153.7 305.403 153.699L305.599 153.465L305.702 153.343L305.828 153.209L307.771 150.812C307.93 150.679 308.069 150.525 308.185 150.355C311.705 145.381 313.778 139.555 314.181 133.505C314.583 127.455 313.299 121.411 310.467 116.026C307.636 110.641 303.364 106.119 298.113 102.948C292.862 99.7775 286.832 98.0785 280.673 98.0344L280.673 98.0457ZM298.541 147.851C295.171 151.434 290.783 153.937 285.949 155.032C281.114 156.128 276.055 155.766 271.431 153.994C266.807 152.221 262.831 149.12 260.021 145.094C257.211 141.069 255.695 136.304 255.673 131.42L255.676 130.892C255.888 124.521 258.628 118.485 263.308 114.08C267.988 109.675 274.236 107.251 280.711 107.327C287.187 107.404 293.375 109.976 297.949 114.491C302.523 119.006 305.117 125.105 305.177 131.48C305.143 136.347 303.615 141.089 300.794 145.086L298.725 147.605L298.564 147.84L298.541 147.851Z" fill="#EAEAEA" fill-opacity="0.15"/>
</g>
</svg>
