<svg width="1440" height="558" viewBox="0 0 1440 558" fill="none" xmlns="http://www.w3.org/2000/svg">
<g opacity="0.6">
<path d="M1398.61 169.498L1502.17 171.314C1507.31 171.417 1512.2 173.509 1515.77 177.131C1519.34 180.753 1521.29 185.609 1521.2 190.633L1520.74 216.859C1520.69 219.446 1520.1 221.995 1519 224.347C1517.9 226.7 1516.32 228.807 1514.35 230.537L1514.23 230.65C1512.18 232.372 1509.82 233.693 1507.26 234.538L1506.93 234.666C1505.03 235.223 1503.04 235.488 1501.06 235.451L1465.57 234.829C1456.76 234.672 1448.13 237.242 1440.91 242.17C1433.69 247.098 1428.25 254.133 1425.37 262.268C1425.14 262.931 1424.74 263.521 1424.19 263.972C1423.64 264.424 1422.98 264.721 1422.28 264.83C1422.17 264.838 1422.07 264.836 1421.96 264.825L1421.58 264.818C1421 264.806 1420.42 264.669 1419.89 264.417C1419.36 264.166 1418.9 263.805 1418.53 263.361L1382.64 217.942C1379.91 214.511 1378.47 210.273 1378.55 205.932L1378.86 188.137C1378.9 185.645 1379.45 183.186 1380.46 180.9C1381.48 178.615 1382.94 176.547 1384.78 174.816C1386.61 173.085 1388.78 171.725 1391.15 170.812C1393.52 169.9 1396.06 169.453 1398.61 169.498ZM1513.3 199.395L1513.45 190.497C1513.51 187.494 1512.34 184.592 1510.21 182.425C1508.08 180.259 1505.16 179.007 1502.09 178.943L1398.47 177.126C1395.4 177.079 1392.43 178.227 1390.22 180.317C1388.01 182.407 1386.74 185.268 1386.69 188.274L1386.37 206.089C1386.36 208.688 1387.24 211.217 1388.87 213.276L1420.71 253.591C1424.93 245.506 1431.38 238.744 1439.35 234.079C1447.31 229.414 1456.46 227.034 1465.74 227.211C1466.14 227.218 1466.5 227.225 1466.95 227.232C1467.13 227.223 1467.3 227.226 1467.47 227.241L1501.23 227.834C1502.35 227.846 1503.47 227.708 1504.55 227.424C1506.25 226.882 1507.81 226.017 1509.17 224.879C1510.35 223.851 1511.3 222.597 1511.95 221.193C1512.61 219.789 1512.97 218.268 1512.99 216.723L1513.28 200.331C1513.26 200.195 1513.24 200.058 1513.24 199.92C1513.24 199.743 1513.26 199.568 1513.3 199.395Z" fill="#EAEAEA" fill-opacity="0.1"/>
<path d="M1472.83 242.005C1481.64 242.145 1490.04 245.703 1496.2 251.904C1502.35 258.106 1505.77 266.448 1505.7 275.113L1505.69 275.733C1505.54 282.341 1503.36 288.748 1499.44 294.116C1495.52 299.483 1490.04 303.561 1483.73 305.814C1477.41 308.068 1470.55 308.392 1464.04 306.745C1457.53 305.098 1451.68 301.556 1447.25 296.583C1447.09 296.447 1447.01 296.335 1447.04 296.336L1446.85 296.1L1446.75 295.976L1446.63 295.841L1444.77 293.427C1444.61 293.292 1444.48 293.137 1444.37 292.966C1441.01 287.97 1439.11 282.167 1438.86 276.185C1438.61 270.203 1440.03 264.269 1442.95 259.022C1445.88 253.776 1450.22 249.417 1455.48 246.416C1460.75 243.415 1466.75 241.886 1472.83 241.994L1472.83 242.005ZM1453.96 290.731C1457.2 294.351 1461.47 296.929 1466.22 298.129C1470.97 299.33 1475.98 299.097 1480.59 297.461C1485.2 295.825 1489.21 292.862 1492.08 288.957C1494.96 285.051 1496.57 280.385 1496.72 275.564L1496.72 275.044C1496.67 268.749 1494.11 262.724 1489.6 258.26C1485.08 253.796 1478.97 251.25 1472.57 251.167C1466.17 251.083 1459.99 253.47 1455.36 257.815C1450.73 262.159 1448.02 268.116 1447.8 274.407C1447.72 279.212 1449.11 283.932 1451.8 287.946L1453.78 290.484L1453.94 290.719L1453.96 290.731Z" fill="#EAEAEA" fill-opacity="0.1"/>
<path d="M1472.83 242.005C1481.64 242.145 1490.04 245.703 1496.2 251.904C1502.35 258.106 1505.77 266.448 1505.7 275.113L1505.69 275.733C1505.54 282.341 1503.36 288.748 1499.44 294.116C1495.52 299.483 1490.04 303.561 1483.73 305.814C1477.41 308.068 1470.55 308.392 1464.04 306.745C1457.53 305.098 1451.68 301.556 1447.25 296.583C1447.09 296.447 1447.01 296.335 1447.04 296.336L1446.85 296.1L1446.75 295.976L1446.63 295.841L1444.77 293.427C1444.61 293.292 1444.48 293.137 1444.37 292.966C1441.01 287.97 1439.11 282.167 1438.86 276.185C1438.61 270.203 1440.03 264.269 1442.95 259.022C1445.88 253.776 1450.22 249.417 1455.48 246.416C1460.75 243.415 1466.75 241.886 1472.83 241.994L1472.83 242.005ZM1453.96 290.731C1457.2 294.351 1461.47 296.929 1466.22 298.129C1470.97 299.33 1475.98 299.097 1480.59 297.461C1485.2 295.825 1489.21 292.862 1492.08 288.957C1494.96 285.051 1496.57 280.385 1496.72 275.564L1496.72 275.044C1496.67 268.749 1494.11 262.724 1489.6 258.26C1485.08 253.796 1478.97 251.25 1472.57 251.167C1466.17 251.083 1459.99 253.47 1455.36 257.815C1450.73 262.159 1448.02 268.116 1447.8 274.407C1447.72 279.212 1449.11 283.932 1451.8 287.946L1453.78 290.484L1453.94 290.719L1453.96 290.731Z" fill="#EAEAEA" fill-opacity="0.1"/>
<path d="M1065.82 323.317C1074.63 323.457 1083.03 326.904 1089.19 332.905C1095.35 338.907 1098.77 346.978 1098.71 355.358L1098.7 355.958C1098.55 362.349 1096.37 368.545 1092.46 373.735C1088.54 378.924 1083.07 382.865 1076.75 385.041C1070.44 387.217 1063.57 387.527 1057.06 385.93C1050.55 384.333 1044.7 380.904 1040.27 376.091C1040.11 375.96 1040.03 375.852 1040.06 375.852L1039.87 375.624L1039.77 375.504L1039.65 375.374L1037.79 373.038C1037.63 372.907 1037.5 372.757 1037.39 372.591C1034.03 367.757 1032.12 362.143 1031.87 356.357C1031.61 350.571 1033.03 344.832 1035.95 339.759C1038.88 334.687 1043.21 330.473 1048.47 327.574C1053.74 324.674 1059.73 323.199 1065.82 323.306L1065.82 323.317ZM1046.98 370.435C1050.22 373.938 1054.49 376.434 1059.25 377.598C1064 378.762 1069 378.539 1073.61 376.959C1078.22 375.38 1082.23 372.516 1085.1 368.741C1087.97 364.965 1089.58 360.453 1089.72 355.79L1089.73 355.287C1089.67 349.198 1087.11 343.369 1082.59 339.049C1078.08 334.729 1071.96 332.262 1065.56 332.178C1059.16 332.094 1052.98 334.399 1048.36 338.598C1043.73 342.798 1041.02 348.558 1040.81 354.643C1040.73 359.29 1042.12 363.856 1044.82 367.74L1046.8 370.196L1046.95 370.424L1046.98 370.435Z" fill="#EAEAEA" fill-opacity="0.1"/>
<path d="M1252.93 303.936L1357.28 305.766C1362.46 305.844 1367.46 303.88 1371.18 300.305C1374.91 296.73 1377.05 291.837 1377.13 286.698L1377.6 259.876C1377.65 257.23 1377.14 254.604 1376.12 252.16C1375.1 249.716 1373.58 247.506 1371.66 245.668L1371.53 245.549C1369.54 243.715 1367.2 242.281 1364.66 241.326L1364.33 241.183C1362.43 240.546 1360.45 240.205 1358.44 240.172L1322.69 239.545C1313.81 239.392 1305.21 236.458 1298.12 231.164C1291.02 225.869 1285.79 218.485 1283.19 210.068C1282.98 209.383 1282.59 208.765 1282.06 208.284C1281.52 207.803 1280.87 207.476 1280.16 207.339C1280.06 207.328 1279.95 207.326 1279.85 207.334L1279.46 207.327C1278.87 207.319 1278.29 207.438 1277.75 207.676C1277.21 207.915 1276.72 208.267 1276.34 208.708L1238.58 253.853C1235.71 257.263 1234.11 261.543 1234.03 265.982L1233.71 284.182C1233.67 286.731 1234.13 289.264 1235.07 291.636C1236.01 294.008 1237.41 296.173 1239.2 298.008C1240.98 299.842 1243.11 301.31 1245.47 302.327C1247.83 303.344 1250.36 303.891 1252.93 303.936ZM1369.49 277.461L1369.33 286.561C1369.28 289.632 1368 292.558 1365.78 294.696C1363.55 296.834 1360.56 298.01 1357.47 297.966L1253.07 296.135C1249.97 296.073 1247.02 294.794 1244.87 292.579C1242.72 290.364 1241.54 287.394 1241.6 284.32L1241.92 266.101C1242 263.444 1242.97 260.89 1244.68 258.844L1278.19 218.771C1282.14 227.185 1288.4 234.326 1296.25 239.378C1304.11 244.43 1313.23 247.188 1322.59 247.337C1322.99 247.344 1323.36 247.351 1323.81 247.358C1323.98 247.374 1324.16 247.377 1324.33 247.368L1358.34 247.964C1359.47 247.992 1360.59 248.172 1361.67 248.501C1363.36 249.115 1364.91 250.055 1366.23 251.267C1367.38 252.359 1368.3 253.675 1368.91 255.133C1369.52 256.591 1369.82 258.16 1369.8 259.739L1369.5 276.504C1369.47 276.642 1369.45 276.782 1369.45 276.923C1369.44 277.103 1369.45 277.283 1369.49 277.461Z" fill="#EAEAEA" fill-opacity="0.1"/>
<path d="M1252.93 303.936L1357.28 305.766C1362.46 305.844 1367.46 303.88 1371.18 300.305C1374.91 296.73 1377.05 291.837 1377.13 286.698L1377.6 259.876C1377.65 257.23 1377.14 254.604 1376.12 252.16C1375.1 249.716 1373.58 247.506 1371.66 245.668L1371.53 245.549C1369.54 243.715 1367.2 242.281 1364.66 241.326L1364.33 241.183C1362.43 240.546 1360.45 240.205 1358.44 240.172L1322.69 239.545C1313.81 239.392 1305.21 236.458 1298.12 231.164C1291.02 225.869 1285.79 218.485 1283.19 210.068C1282.98 209.383 1282.59 208.765 1282.06 208.284C1281.52 207.803 1280.87 207.476 1280.16 207.339C1280.06 207.328 1279.95 207.326 1279.85 207.334L1279.46 207.327C1278.87 207.319 1278.29 207.438 1277.75 207.676C1277.21 207.915 1276.72 208.267 1276.34 208.708L1238.58 253.853C1235.71 257.263 1234.11 261.543 1234.03 265.982L1233.71 284.182C1233.67 286.731 1234.13 289.264 1235.07 291.636C1236.01 294.008 1237.41 296.173 1239.2 298.008C1240.98 299.842 1243.11 301.31 1245.47 302.327C1247.83 303.344 1250.36 303.891 1252.93 303.936ZM1369.49 277.461L1369.33 286.561C1369.28 289.632 1368 292.558 1365.78 294.696C1363.55 296.834 1360.56 298.01 1357.47 297.966L1253.07 296.135C1249.97 296.073 1247.02 294.794 1244.87 292.579C1242.72 290.364 1241.54 287.394 1241.6 284.32L1241.92 266.101C1242 263.444 1242.97 260.89 1244.68 258.844L1278.19 218.771C1282.14 227.185 1288.4 234.326 1296.25 239.378C1304.11 244.43 1313.23 247.188 1322.59 247.337C1322.99 247.344 1323.36 247.351 1323.81 247.358C1323.98 247.374 1324.16 247.377 1324.33 247.368L1358.34 247.964C1359.47 247.992 1360.59 248.172 1361.67 248.501C1363.36 249.115 1364.91 250.055 1366.23 251.267C1367.38 252.359 1368.3 253.675 1368.91 255.133C1369.52 256.591 1369.82 258.16 1369.8 259.739L1369.5 276.504C1369.47 276.642 1369.45 276.782 1369.45 276.923C1369.44 277.103 1369.45 277.283 1369.49 277.461Z" fill="#EAEAEA" fill-opacity="0.1"/>
<path d="M1329.54 231.918C1338.35 232.087 1346.87 228.937 1353.23 223.155C1359.6 217.373 1363.3 209.428 1363.53 201.05L1363.54 200.45C1363.62 194.058 1361.66 187.789 1357.93 182.465C1354.2 177.142 1348.87 173.012 1342.63 170.615C1336.4 168.219 1329.55 167.669 1322.99 169.037C1316.43 170.404 1310.45 173.626 1305.85 178.28C1305.69 178.406 1305.61 178.512 1305.64 178.512L1305.44 178.733L1305.34 178.85L1305.21 178.976L1303.27 181.245C1303.11 181.37 1302.97 181.516 1302.86 181.677C1299.33 186.391 1297.22 191.934 1296.77 197.708C1296.31 203.481 1297.52 209.266 1300.27 214.439C1303.02 219.611 1307.2 223.974 1312.36 227.056C1317.51 230.138 1323.46 231.823 1329.54 231.929L1329.54 231.918ZM1312.36 184.169C1315.73 180.781 1320.09 178.436 1324.88 177.44C1329.66 176.444 1334.66 176.842 1339.21 178.582C1343.77 180.322 1347.66 183.325 1350.4 187.199C1353.14 191.073 1354.59 195.639 1354.57 200.304L1354.56 200.807C1354.29 206.89 1351.53 212.626 1346.86 216.784C1342.19 220.943 1335.99 223.194 1329.59 223.053C1323.2 222.913 1317.1 220.393 1312.63 216.034C1308.15 211.675 1305.65 205.824 1305.65 199.735C1305.73 195.087 1307.28 190.574 1310.11 186.786L1312.18 184.401L1312.34 184.179L1312.36 184.169Z" fill="#EAEAEA" fill-opacity="0.1"/>
<path d="M1329.54 231.918C1338.35 232.087 1346.87 228.937 1353.23 223.155C1359.6 217.373 1363.3 209.428 1363.53 201.05L1363.54 200.45C1363.62 194.058 1361.66 187.789 1357.93 182.465C1354.2 177.142 1348.87 173.012 1342.63 170.615C1336.4 168.219 1329.55 167.669 1322.99 169.037C1316.43 170.404 1310.45 173.626 1305.85 178.28C1305.69 178.406 1305.61 178.512 1305.64 178.512L1305.44 178.733L1305.34 178.85L1305.21 178.976L1303.27 181.245C1303.11 181.37 1302.97 181.516 1302.86 181.677C1299.33 186.391 1297.22 191.934 1296.77 197.708C1296.31 203.481 1297.52 209.266 1300.27 214.439C1303.02 219.611 1307.2 223.974 1312.36 227.056C1317.51 230.138 1323.46 231.823 1329.54 231.929L1329.54 231.918ZM1312.36 184.169C1315.73 180.781 1320.09 178.436 1324.88 177.44C1329.66 176.444 1334.66 176.842 1339.21 178.582C1343.77 180.322 1347.66 183.325 1350.4 187.199C1353.14 191.073 1354.59 195.639 1354.57 200.304L1354.56 200.807C1354.29 206.89 1351.53 212.626 1346.86 216.784C1342.19 220.943 1335.99 223.194 1329.59 223.053C1323.2 222.913 1317.1 220.393 1312.63 216.034C1308.15 211.675 1305.65 205.824 1305.65 199.735C1305.73 195.087 1307.28 190.574 1310.11 186.786L1312.18 184.401L1312.34 184.179L1312.36 184.169Z" fill="#EAEAEA" fill-opacity="0.1"/>
<path d="M1502.56 146.218L1399 144.402C1393.86 144.299 1388.96 142.161 1385.4 138.458C1381.83 134.756 1379.88 129.79 1379.97 124.651L1380.44 97.8295C1380.49 95.1842 1381.09 92.5772 1382.19 90.1704C1383.29 87.7636 1384.87 85.6083 1386.84 83.8381L1386.97 83.7231C1389.01 81.9603 1391.38 80.609 1393.94 79.7432L1394.26 79.6122C1396.17 79.0418 1398.15 78.7702 1400.14 78.807L1435.62 79.4294C1444.43 79.5864 1453.07 76.9551 1460.29 71.9119C1467.51 66.8687 1472.95 59.672 1475.83 51.3512C1476.06 50.6729 1476.47 50.0697 1477.02 49.6074C1477.56 49.1451 1478.22 48.8414 1478.93 48.7293C1479.03 48.7215 1479.14 48.7233 1479.24 48.7348L1479.62 48.7415C1480.21 48.7538 1480.79 48.8933 1481.31 49.1504C1481.84 49.4076 1482.31 49.7762 1482.68 50.2308L1518.55 96.6674C1521.27 100.175 1522.72 104.508 1522.64 108.948L1522.32 127.148C1522.27 129.697 1521.73 132.212 1520.71 134.55C1519.69 136.888 1518.23 139.002 1516.39 140.773C1514.56 142.544 1512.39 143.937 1510.02 144.871C1507.65 145.805 1505.11 146.263 1502.56 146.218ZM1387.88 115.687L1387.72 124.787C1387.66 127.859 1388.83 130.827 1390.96 133.041C1393.09 135.256 1396.01 136.535 1399.09 136.6L1502.7 138.417C1505.78 138.463 1508.74 137.288 1510.95 135.15C1513.16 133.012 1514.44 130.085 1514.49 127.011L1514.81 108.791C1514.82 106.133 1513.94 103.546 1512.32 101.442L1480.49 60.2231C1476.27 68.4938 1469.81 75.4119 1461.85 80.1861C1453.88 84.9603 1444.73 87.398 1435.45 87.2204C1435.05 87.2134 1434.69 87.207 1434.24 87.1991C1434.06 87.2084 1433.89 87.2054 1433.72 87.1901L1399.96 86.598C1398.84 86.5859 1397.72 86.7273 1396.64 87.0183C1394.95 87.5731 1393.37 88.4585 1392.02 89.6232C1390.84 90.6742 1389.89 91.958 1389.23 93.3937C1388.57 94.8294 1388.22 96.386 1388.19 97.9654L1387.9 114.73C1387.92 114.869 1387.94 115.01 1387.94 115.151C1387.94 115.331 1387.92 115.511 1387.88 115.687Z" fill="#EAEAEA" fill-opacity="0.1"/>
<path d="M1502.56 146.218L1399 144.402C1393.86 144.299 1388.96 142.161 1385.4 138.458C1381.83 134.756 1379.88 129.79 1379.97 124.651L1380.44 97.8295C1380.49 95.1842 1381.09 92.5772 1382.19 90.1704C1383.29 87.7636 1384.87 85.6083 1386.84 83.8381L1386.97 83.7231C1389.01 81.9603 1391.38 80.609 1393.94 79.7432L1394.26 79.6122C1396.17 79.0418 1398.15 78.7702 1400.14 78.807L1435.62 79.4294C1444.43 79.5864 1453.07 76.9551 1460.29 71.9119C1467.51 66.8687 1472.95 59.672 1475.83 51.3512C1476.06 50.6729 1476.47 50.0697 1477.02 49.6074C1477.56 49.1451 1478.22 48.8414 1478.93 48.7293C1479.03 48.7215 1479.14 48.7233 1479.24 48.7348L1479.62 48.7415C1480.21 48.7538 1480.79 48.8933 1481.31 49.1504C1481.84 49.4076 1482.31 49.7762 1482.68 50.2308L1518.55 96.6674C1521.27 100.175 1522.72 104.508 1522.64 108.948L1522.32 127.148C1522.27 129.697 1521.73 132.212 1520.71 134.55C1519.69 136.888 1518.23 139.002 1516.39 140.773C1514.56 142.544 1512.39 143.937 1510.02 144.871C1507.65 145.805 1505.11 146.263 1502.56 146.218ZM1387.88 115.687L1387.72 124.787C1387.66 127.859 1388.83 130.827 1390.96 133.041C1393.09 135.256 1396.01 136.535 1399.09 136.6L1502.7 138.417C1505.78 138.463 1508.74 137.288 1510.95 135.15C1513.16 133.012 1514.44 130.085 1514.49 127.011L1514.81 108.791C1514.82 106.133 1513.94 103.546 1512.32 101.442L1480.49 60.2231C1476.27 68.4938 1469.81 75.4119 1461.85 80.1861C1453.88 84.9603 1444.73 87.398 1435.45 87.2204C1435.05 87.2134 1434.69 87.207 1434.24 87.1991C1434.06 87.2084 1433.89 87.2054 1433.72 87.1901L1399.96 86.598C1398.84 86.5859 1397.72 86.7273 1396.64 87.0183C1394.95 87.5731 1393.37 88.4585 1392.02 89.6232C1390.84 90.6742 1389.89 91.958 1389.23 93.3937C1388.57 94.8294 1388.22 96.386 1388.19 97.9654L1387.9 114.73C1387.92 114.869 1387.94 115.01 1387.94 115.151C1387.94 115.331 1387.92 115.511 1387.88 115.687Z" fill="#EAEAEA" fill-opacity="0.1"/>
<path d="M1429.45 71.5753C1420.64 71.4353 1412.24 67.9888 1406.08 61.987C1399.92 55.9852 1396.5 47.9146 1396.57 39.5341L1396.58 38.9344C1396.73 32.543 1398.9 26.3469 1402.82 21.1575C1406.73 15.9681 1412.21 12.0273 1418.52 9.85129C1424.84 7.67525 1431.7 7.3654 1438.21 8.96231C1444.72 10.5592 1450.58 13.9885 1455.01 18.8009C1455.16 18.9322 1455.24 19.0407 1455.22 19.0403L1455.41 19.2685L1455.5 19.3881L1455.63 19.5188L1457.49 21.8548C1457.64 21.9856 1457.78 22.1357 1457.89 22.301C1461.25 27.1356 1463.15 32.749 1463.41 38.5351C1463.66 44.3212 1462.25 50.0603 1459.32 55.133C1456.39 60.2056 1452.06 64.4192 1446.8 67.3187C1441.54 70.2183 1435.54 71.6938 1429.45 71.586L1429.45 71.5753ZM1448.3 24.4576C1445.05 20.9539 1440.78 18.458 1436.03 17.2943C1431.28 16.1307 1426.27 16.3532 1421.66 17.9328C1417.05 19.5125 1413.05 22.3763 1410.17 26.1518C1407.3 29.9273 1405.69 34.4398 1405.55 39.1025L1405.54 39.6058C1405.6 45.6945 1408.16 51.5238 1412.68 55.8436C1417.2 60.1635 1423.31 62.63 1429.71 62.7142C1436.11 62.7984 1442.29 60.4937 1446.92 56.2942C1451.54 52.0946 1454.25 46.3348 1454.46 40.2497C1454.55 35.602 1453.15 31.0367 1450.46 27.1523L1448.47 24.6963L1448.32 24.4687L1448.3 24.4576Z" fill="#EAEAEA" fill-opacity="0.1"/>
<path d="M1429.45 71.5753C1420.64 71.4353 1412.24 67.9888 1406.08 61.987C1399.92 55.9852 1396.5 47.9146 1396.57 39.5341L1396.58 38.9344C1396.73 32.543 1398.9 26.3469 1402.82 21.1575C1406.73 15.9681 1412.21 12.0273 1418.52 9.85129C1424.84 7.67525 1431.7 7.3654 1438.21 8.96231C1444.72 10.5592 1450.58 13.9885 1455.01 18.8009C1455.16 18.9322 1455.24 19.0407 1455.22 19.0403L1455.41 19.2685L1455.5 19.3881L1455.63 19.5188L1457.49 21.8548C1457.64 21.9856 1457.78 22.1357 1457.89 22.301C1461.25 27.1356 1463.15 32.749 1463.41 38.5351C1463.66 44.3212 1462.25 50.0603 1459.32 55.133C1456.39 60.2056 1452.06 64.4192 1446.8 67.3187C1441.54 70.2183 1435.54 71.6938 1429.45 71.586L1429.45 71.5753ZM1448.3 24.4576C1445.05 20.9539 1440.78 18.458 1436.03 17.2943C1431.28 16.1307 1426.27 16.3532 1421.66 17.9328C1417.05 19.5125 1413.05 22.3763 1410.17 26.1518C1407.3 29.9273 1405.69 34.4398 1405.55 39.1025L1405.54 39.6058C1405.6 45.6945 1408.16 51.5238 1412.68 55.8436C1417.2 60.1635 1423.31 62.63 1429.71 62.7142C1436.11 62.7984 1442.29 60.4937 1446.92 56.2942C1451.54 52.0946 1454.25 46.3348 1454.46 40.2497C1454.55 35.602 1453.15 31.0367 1450.46 27.1523L1448.47 24.6963L1448.32 24.4687L1448.3 24.4576Z" fill="#EAEAEA" fill-opacity="0.1"/>
<path d="M1278.96 102.386L1175.4 100.569C1170.26 100.492 1165.29 102.457 1161.6 106.032C1157.91 109.607 1155.78 114.502 1155.69 119.64L1155.22 146.462C1155.18 149.108 1155.68 151.734 1156.7 154.178C1157.71 156.622 1159.22 158.831 1161.12 160.669L1161.25 160.789C1163.23 162.622 1165.55 164.056 1168.07 165.011L1168.39 165.153C1170.28 165.79 1172.25 166.131 1174.24 166.164L1209.73 166.786C1218.53 166.938 1227.07 169.871 1234.11 175.164C1241.15 180.457 1246.34 187.84 1248.93 196.257C1249.13 196.943 1249.52 197.56 1250.05 198.041C1250.57 198.522 1251.23 198.849 1251.93 198.986C1252.03 198.997 1252.14 198.999 1252.24 198.992L1252.62 198.998C1253.21 199.006 1253.79 198.887 1254.33 198.649C1254.86 198.41 1255.34 198.058 1255.72 197.617L1293.21 152.467C1296.05 149.057 1297.64 144.777 1297.72 140.337L1298.04 122.137C1298.08 119.588 1297.63 117.056 1296.69 114.684C1295.76 112.312 1294.37 110.147 1292.6 108.312C1290.82 106.478 1288.71 105.011 1286.37 103.994C1284.03 102.977 1281.51 102.43 1278.96 102.386ZM1163.28 128.876L1163.44 119.776C1163.49 116.705 1164.76 113.779 1166.97 111.641C1169.18 109.503 1172.14 108.326 1175.21 108.37L1278.83 110.187C1281.9 110.249 1284.83 111.527 1286.96 113.742C1289.1 115.956 1290.27 118.926 1290.21 122L1289.89 140.219C1289.81 142.877 1288.84 145.431 1287.15 147.477L1253.89 187.554C1249.96 179.14 1243.75 172 1235.96 166.95C1228.17 161.899 1219.11 159.142 1209.82 158.994C1209.42 158.987 1209.06 158.98 1208.61 158.973C1208.44 158.957 1208.27 158.954 1208.09 158.963L1174.34 158.371C1173.22 158.344 1172.1 158.164 1171.03 157.835C1169.36 157.221 1167.82 156.281 1166.51 155.07C1165.37 153.978 1164.46 152.661 1163.85 151.204C1163.24 149.746 1162.94 148.178 1162.97 146.598L1163.27 129.833C1163.3 129.695 1163.32 129.555 1163.32 129.414C1163.33 129.234 1163.31 129.054 1163.28 128.876Z" fill="#EAEAEA" fill-opacity="0.1"/>
<path d="M1278.96 102.386L1175.4 100.569C1170.26 100.492 1165.29 102.457 1161.6 106.032C1157.91 109.607 1155.78 114.502 1155.69 119.64L1155.22 146.462C1155.18 149.108 1155.68 151.734 1156.7 154.178C1157.71 156.622 1159.22 158.831 1161.12 160.669L1161.25 160.789C1163.23 162.622 1165.55 164.056 1168.07 165.011L1168.39 165.153C1170.28 165.79 1172.25 166.131 1174.24 166.164L1209.73 166.786C1218.53 166.938 1227.07 169.871 1234.11 175.164C1241.15 180.457 1246.34 187.84 1248.93 196.257C1249.13 196.943 1249.52 197.56 1250.05 198.041C1250.57 198.522 1251.23 198.849 1251.93 198.986C1252.03 198.997 1252.14 198.999 1252.24 198.992L1252.62 198.998C1253.21 199.006 1253.79 198.887 1254.33 198.649C1254.86 198.41 1255.34 198.058 1255.72 197.617L1293.21 152.467C1296.05 149.057 1297.64 144.777 1297.72 140.337L1298.04 122.137C1298.08 119.588 1297.63 117.056 1296.69 114.684C1295.76 112.312 1294.37 110.147 1292.6 108.312C1290.82 106.478 1288.71 105.011 1286.37 103.994C1284.03 102.977 1281.51 102.43 1278.96 102.386ZM1163.28 128.876L1163.44 119.776C1163.49 116.705 1164.76 113.779 1166.97 111.641C1169.18 109.503 1172.14 108.326 1175.21 108.37L1278.83 110.187C1281.9 110.249 1284.83 111.527 1286.96 113.742C1289.1 115.956 1290.27 118.926 1290.21 122L1289.89 140.219C1289.81 142.877 1288.84 145.431 1287.15 147.477L1253.89 187.554C1249.96 179.14 1243.75 172 1235.96 166.95C1228.17 161.899 1219.11 159.142 1209.82 158.994C1209.42 158.987 1209.06 158.98 1208.61 158.973C1208.44 158.957 1208.27 158.954 1208.09 158.963L1174.34 158.371C1173.22 158.344 1172.1 158.164 1171.03 157.835C1169.36 157.221 1167.82 156.281 1166.51 155.07C1165.37 153.978 1164.46 152.661 1163.85 151.204C1163.24 149.746 1162.94 148.178 1162.97 146.598L1163.27 129.833C1163.3 129.695 1163.32 129.555 1163.32 129.414C1163.33 129.234 1163.31 129.054 1163.28 128.876Z" fill="#EAEAEA" fill-opacity="0.1"/>
<path d="M1202.03 184.399C1193.22 184.23 1184.71 187.38 1178.34 193.162C1171.97 198.944 1168.27 206.89 1168.04 215.267L1168.03 215.867C1167.96 222.26 1169.91 228.528 1173.64 233.852C1177.37 239.175 1182.71 243.306 1188.94 245.702C1195.18 248.098 1202.02 248.648 1208.59 247.281C1215.15 245.913 1221.12 242.691 1225.72 238.037C1225.88 237.912 1225.96 237.806 1225.94 237.805L1226.13 237.584L1226.24 237.468L1226.36 237.341L1228.31 235.072C1228.46 234.947 1228.6 234.802 1228.72 234.64C1232.25 229.926 1234.35 224.383 1234.81 218.61C1235.26 212.836 1234.05 207.051 1231.3 201.879C1228.56 196.707 1224.38 192.344 1219.22 189.261C1214.06 186.179 1208.12 184.494 1202.03 184.388L1202.03 184.399ZM1219.21 232.149C1215.85 235.537 1211.49 237.881 1206.7 238.877C1201.91 239.874 1196.91 239.476 1192.36 237.735C1187.81 235.995 1183.91 232.993 1181.17 229.119C1178.43 225.245 1176.98 220.679 1177 216.014L1177.01 215.51C1177.28 209.428 1180.05 203.692 1184.72 199.533C1189.38 195.374 1195.58 193.124 1201.98 193.264C1208.38 193.404 1214.47 195.924 1218.95 200.283C1223.42 204.642 1225.93 210.494 1225.93 216.583C1225.85 221.23 1224.29 225.744 1221.47 229.531L1219.4 231.916L1219.23 232.138L1219.21 232.149Z" fill="#EAEAEA" fill-opacity="0.1"/>
<path d="M1202.03 184.399C1193.22 184.23 1184.71 187.38 1178.34 193.162C1171.97 198.944 1168.27 206.89 1168.04 215.267L1168.03 215.867C1167.96 222.26 1169.91 228.528 1173.64 233.852C1177.37 239.175 1182.71 243.306 1188.94 245.702C1195.18 248.098 1202.02 248.648 1208.59 247.281C1215.15 245.913 1221.12 242.691 1225.72 238.037C1225.88 237.912 1225.96 237.806 1225.94 237.805L1226.13 237.584L1226.24 237.468L1226.36 237.341L1228.31 235.072C1228.46 234.947 1228.6 234.802 1228.72 234.64C1232.25 229.926 1234.35 224.383 1234.81 218.61C1235.26 212.836 1234.05 207.051 1231.3 201.879C1228.56 196.707 1224.38 192.344 1219.22 189.261C1214.06 186.179 1208.12 184.494 1202.03 184.388L1202.03 184.399ZM1219.21 232.149C1215.85 235.537 1211.49 237.881 1206.7 238.877C1201.91 239.874 1196.91 239.476 1192.36 237.735C1187.81 235.995 1183.91 232.993 1181.17 229.119C1178.43 225.245 1176.98 220.679 1177 216.014L1177.01 215.51C1177.28 209.428 1180.05 203.692 1184.72 199.533C1189.38 195.374 1195.58 193.124 1201.98 193.264C1208.38 193.404 1214.47 195.924 1218.95 200.283C1223.42 204.642 1225.93 210.494 1225.93 216.583C1225.85 221.23 1224.29 225.744 1221.47 229.531L1219.4 231.916L1219.23 232.138L1219.21 232.149Z" fill="#EAEAEA" fill-opacity="0.1"/>
<path d="M1135.22 232.836L1030.87 231.005C1025.69 230.901 1020.77 228.74 1017.17 224.997C1013.58 221.253 1011.61 216.232 1011.71 211.037L1012.18 183.917C1012.23 181.242 1012.83 178.606 1013.94 176.172C1015.05 173.739 1016.64 171.559 1018.63 169.769L1018.76 169.653C1020.82 167.871 1023.2 166.504 1025.78 165.629L1026.11 165.496C1028.03 164.919 1030.02 164.644 1032.03 164.682L1067.78 165.309C1076.66 165.467 1085.36 162.806 1092.64 157.706C1099.91 152.606 1105.4 145.329 1108.3 136.916C1108.53 136.23 1108.94 135.62 1109.49 135.153C1110.04 134.685 1110.71 134.378 1111.42 134.265C1111.52 134.257 1111.63 134.259 1111.73 134.27L1112.12 134.277C1112.71 134.289 1113.29 134.431 1113.82 134.69C1114.35 134.95 1114.82 135.323 1115.19 135.783L1151.34 182.733C1154.08 186.28 1155.53 190.661 1155.45 195.15L1155.13 213.552C1155.08 216.129 1154.54 218.672 1153.51 221.036C1152.49 223.4 1151.01 225.538 1149.16 227.329C1147.31 229.12 1145.13 230.528 1142.74 231.473C1140.35 232.418 1137.79 232.881 1135.22 232.836ZM1019.68 201.972L1019.51 211.173C1019.46 214.279 1020.63 217.28 1022.78 219.519C1024.92 221.758 1027.87 223.052 1030.96 223.116L1135.36 224.947C1138.46 224.994 1141.45 223.806 1143.68 221.644C1145.91 219.482 1147.19 216.522 1147.24 213.414L1147.57 194.992C1147.58 192.304 1146.7 189.689 1145.06 187.561L1112.99 145.886C1108.74 154.249 1102.23 161.244 1094.21 166.072C1086.18 170.9 1076.96 173.365 1067.6 173.186C1067.2 173.179 1066.84 173.173 1066.38 173.165C1066.21 173.174 1066.04 173.171 1065.86 173.156L1031.85 172.559C1030.72 172.547 1029.6 172.69 1028.5 172.984C1026.8 173.545 1025.21 174.441 1023.85 175.618C1022.66 176.681 1021.7 177.979 1021.04 179.431C1020.38 180.883 1020.02 182.457 1019.99 184.054L1019.69 201.005C1019.72 201.145 1019.73 201.287 1019.73 201.43C1019.73 201.612 1019.71 201.794 1019.68 201.972Z" fill="#EAEAEA" fill-opacity="0.1"/>
<path d="M1135.22 232.836L1030.87 231.005C1025.69 230.901 1020.77 228.74 1017.17 224.997C1013.58 221.253 1011.61 216.232 1011.71 211.037L1012.18 183.917C1012.23 181.242 1012.83 178.606 1013.94 176.172C1015.05 173.739 1016.64 171.559 1018.63 169.769L1018.76 169.653C1020.82 167.871 1023.2 166.504 1025.78 165.629L1026.11 165.496C1028.03 164.919 1030.02 164.644 1032.03 164.682L1067.78 165.309C1076.66 165.467 1085.36 162.806 1092.64 157.706C1099.91 152.606 1105.4 145.329 1108.3 136.916C1108.53 136.23 1108.94 135.62 1109.49 135.153C1110.04 134.685 1110.71 134.378 1111.42 134.265C1111.52 134.257 1111.63 134.259 1111.73 134.27L1112.12 134.277C1112.71 134.289 1113.29 134.431 1113.82 134.69C1114.35 134.95 1114.82 135.323 1115.19 135.783L1151.34 182.733C1154.08 186.28 1155.53 190.661 1155.45 195.15L1155.13 213.552C1155.08 216.129 1154.54 218.672 1153.51 221.036C1152.49 223.4 1151.01 225.538 1149.16 227.329C1147.31 229.12 1145.13 230.528 1142.74 231.473C1140.35 232.418 1137.79 232.881 1135.22 232.836ZM1019.68 201.972L1019.51 211.173C1019.46 214.279 1020.63 217.28 1022.78 219.519C1024.92 221.758 1027.87 223.052 1030.96 223.116L1135.36 224.947C1138.46 224.994 1141.45 223.806 1143.68 221.644C1145.91 219.482 1147.19 216.522 1147.24 213.414L1147.57 194.992C1147.58 192.304 1146.7 189.689 1145.06 187.561L1112.99 145.886C1108.74 154.249 1102.23 161.244 1094.21 166.072C1086.18 170.9 1076.96 173.365 1067.6 173.186C1067.2 173.179 1066.84 173.173 1066.38 173.165C1066.21 173.174 1066.04 173.171 1065.86 173.156L1031.85 172.559C1030.72 172.547 1029.6 172.69 1028.5 172.984C1026.8 173.545 1025.21 174.441 1023.85 175.618C1022.66 176.681 1021.7 177.979 1021.04 179.431C1020.38 180.883 1020.02 182.457 1019.99 184.054L1019.69 201.005C1019.72 201.145 1019.73 201.287 1019.73 201.43C1019.73 201.612 1019.71 201.794 1019.68 201.972Z" fill="#EAEAEA" fill-opacity="0.1"/>
<path d="M1061.9 148.186C1053.23 148.049 1044.97 144.549 1038.91 138.449C1032.85 132.349 1029.49 124.144 1029.56 115.622L1029.57 115.012C1029.72 108.512 1031.87 102.21 1035.72 96.9301C1039.58 91.6505 1044.96 87.6398 1051.18 85.4233C1057.39 83.2067 1064.15 82.8876 1070.55 84.5078C1076.95 86.128 1082.71 89.612 1087.07 94.5033C1087.22 94.6368 1087.3 94.747 1087.28 94.7466L1087.46 94.9787L1087.56 95.1002L1087.68 95.2331L1089.51 97.6075C1089.66 97.7404 1089.79 97.893 1089.9 98.0611C1093.2 102.976 1095.08 108.683 1095.32 114.567C1095.57 120.451 1094.18 126.288 1091.29 131.448C1088.41 136.609 1084.15 140.896 1078.97 143.848C1073.79 146.8 1067.89 148.304 1061.9 148.197L1061.9 148.186ZM1080.47 100.26C1077.28 96.6986 1073.07 94.1629 1068.4 92.9823C1063.73 91.8017 1058.8 92.0308 1054.26 93.6399C1049.72 95.249 1045.79 98.1636 1042.96 102.005C1040.13 105.846 1038.54 110.436 1038.4 115.177L1038.39 115.689C1038.44 121.881 1040.96 127.808 1045.4 132.198C1049.85 136.589 1055.86 139.093 1062.16 139.175C1068.46 139.257 1074.53 136.91 1079.09 132.636C1083.64 128.363 1086.31 122.504 1086.52 116.316C1086.61 111.589 1085.24 106.947 1082.59 102.999L1080.64 100.502L1080.49 100.271L1080.47 100.26Z" fill="#EAEAEA" fill-opacity="0.1"/>
<path d="M1061.9 148.186C1053.23 148.049 1044.97 144.549 1038.91 138.449C1032.85 132.349 1029.49 124.144 1029.56 115.622L1029.57 115.012C1029.72 108.512 1031.87 102.21 1035.72 96.9301C1039.58 91.6505 1044.96 87.6398 1051.18 85.4233C1057.39 83.2067 1064.15 82.8876 1070.55 84.5078C1076.95 86.128 1082.71 89.612 1087.07 94.5033C1087.22 94.6368 1087.3 94.747 1087.28 94.7466L1087.46 94.9787L1087.56 95.1002L1087.68 95.2331L1089.51 97.6075C1089.66 97.7404 1089.79 97.893 1089.9 98.0611C1093.2 102.976 1095.08 108.683 1095.32 114.567C1095.57 120.451 1094.18 126.288 1091.29 131.448C1088.41 136.609 1084.15 140.896 1078.97 143.848C1073.79 146.8 1067.89 148.304 1061.9 148.197L1061.9 148.186ZM1080.47 100.26C1077.28 96.6986 1073.07 94.1629 1068.4 92.9823C1063.73 91.8017 1058.8 92.0308 1054.26 93.6399C1049.72 95.249 1045.79 98.1636 1042.96 102.005C1040.13 105.846 1038.54 110.436 1038.4 115.177L1038.39 115.689C1038.44 121.881 1040.96 127.808 1045.4 132.198C1049.85 136.589 1055.86 139.093 1062.16 139.175C1068.46 139.257 1074.53 136.91 1079.09 132.636C1083.64 128.363 1086.31 122.504 1086.52 116.316C1086.61 111.589 1085.24 106.947 1082.59 102.999L1080.64 100.502L1080.49 100.271L1080.47 100.26Z" fill="#EAEAEA" fill-opacity="0.1"/>
<path d="M1183.39 407.69L1286.33 409.495C1291.44 409.598 1296.31 411.735 1299.85 415.436C1303.39 419.138 1305.33 424.102 1305.24 429.24L1304.77 456.057C1304.72 458.702 1304.13 461.308 1303.03 463.715C1301.94 466.121 1300.37 468.276 1298.41 470.046L1298.28 470.161C1296.25 471.924 1293.9 473.275 1291.35 474.141L1291.03 474.272C1289.14 474.843 1287.17 475.114 1285.19 475.078L1249.91 474.459C1241.16 474.303 1232.58 476.935 1225.4 481.978C1218.22 487.021 1212.81 494.216 1209.94 502.536C1209.71 503.214 1209.31 503.817 1208.77 504.279C1208.22 504.742 1207.56 505.045 1206.86 505.158C1206.76 505.165 1206.65 505.164 1206.55 505.152L1206.17 505.145C1205.59 505.133 1205.02 504.994 1204.49 504.737C1203.97 504.48 1203.51 504.111 1203.14 503.657L1167.49 457.233C1164.78 453.726 1163.35 449.394 1163.43 444.955L1163.75 426.758C1163.79 424.21 1164.34 421.696 1165.35 419.358C1166.36 417.021 1167.82 414.906 1169.64 413.135C1171.46 411.364 1173.62 409.972 1175.98 409.038C1178.33 408.103 1180.85 407.645 1183.39 407.69ZM1297.38 438.203L1297.54 429.105C1297.6 426.034 1296.44 423.067 1294.32 420.853C1292.2 418.639 1289.3 417.36 1286.24 417.296L1183.25 415.49C1180.19 415.444 1177.24 416.619 1175.04 418.757C1172.85 420.895 1171.58 423.822 1171.53 426.895L1171.21 445.111C1171.2 447.769 1172.07 450.355 1173.68 452.459L1205.32 493.666C1209.51 485.397 1215.93 478.479 1223.85 473.705C1231.77 468.931 1240.86 466.493 1250.09 466.67C1250.49 466.677 1250.85 466.683 1251.29 466.691C1251.47 466.681 1251.64 466.684 1251.81 466.7L1285.36 467.288C1286.48 467.3 1287.59 467.159 1288.66 466.868C1290.35 466.313 1291.91 465.427 1293.26 464.263C1294.43 463.212 1295.37 461.928 1296.03 460.493C1296.69 459.057 1297.04 457.501 1297.07 455.922L1297.36 439.16C1297.34 439.021 1297.32 438.881 1297.32 438.74C1297.32 438.559 1297.34 438.38 1297.38 438.203Z" fill="#EAEAEA" fill-opacity="0.1"/>
<path d="M1183.39 407.69L1286.33 409.495C1291.44 409.598 1296.31 411.735 1299.85 415.436C1303.39 419.138 1305.33 424.102 1305.24 429.24L1304.77 456.057C1304.72 458.702 1304.13 461.308 1303.03 463.715C1301.94 466.121 1300.37 468.276 1298.41 470.046L1298.28 470.161C1296.25 471.924 1293.9 473.275 1291.35 474.141L1291.03 474.272C1289.14 474.843 1287.17 475.114 1285.19 475.078L1249.91 474.459C1241.16 474.303 1232.58 476.935 1225.4 481.978C1218.22 487.021 1212.81 494.216 1209.94 502.536C1209.71 503.214 1209.31 503.817 1208.77 504.279C1208.22 504.742 1207.56 505.045 1206.86 505.158C1206.76 505.165 1206.65 505.164 1206.55 505.152L1206.17 505.145C1205.59 505.133 1205.02 504.994 1204.49 504.737C1203.97 504.48 1203.51 504.111 1203.14 503.657L1167.49 457.233C1164.78 453.726 1163.35 449.394 1163.43 444.955L1163.75 426.758C1163.79 424.21 1164.34 421.696 1165.35 419.358C1166.36 417.021 1167.82 414.906 1169.64 413.135C1171.46 411.364 1173.62 409.972 1175.98 409.038C1178.33 408.103 1180.85 407.645 1183.39 407.69ZM1297.38 438.203L1297.54 429.105C1297.6 426.034 1296.44 423.067 1294.32 420.853C1292.2 418.639 1289.3 417.36 1286.24 417.296L1183.25 415.49C1180.19 415.444 1177.24 416.619 1175.04 418.757C1172.85 420.895 1171.58 423.822 1171.53 426.895L1171.21 445.111C1171.2 447.769 1172.07 450.355 1173.68 452.459L1205.32 493.666C1209.51 485.397 1215.93 478.479 1223.85 473.705C1231.77 468.931 1240.86 466.493 1250.09 466.67C1250.49 466.677 1250.85 466.683 1251.29 466.691C1251.47 466.681 1251.64 466.684 1251.81 466.7L1285.36 467.288C1286.48 467.3 1287.59 467.159 1288.66 466.868C1290.35 466.313 1291.91 465.427 1293.26 464.263C1294.43 463.212 1295.37 461.928 1296.03 460.493C1296.69 459.057 1297.04 457.501 1297.07 455.922L1297.36 439.16C1297.34 439.021 1297.32 438.881 1297.32 438.74C1297.32 438.559 1297.34 438.38 1297.38 438.203Z" fill="#EAEAEA" fill-opacity="0.1"/>
<path d="M1252.1 482.513C1260.76 482.65 1269.01 486.149 1275.06 492.248C1281.11 498.346 1284.46 506.55 1284.39 515.071L1284.38 515.68C1284.23 522.179 1282.09 528.48 1278.24 533.759C1274.39 539.037 1269.01 543.047 1262.8 545.264C1256.59 547.48 1249.85 547.799 1243.46 546.179C1237.06 544.56 1231.31 541.076 1226.96 536.186C1226.8 536.053 1226.73 535.942 1226.75 535.943L1226.57 535.711L1226.47 535.589L1226.35 535.457L1224.52 533.083C1224.37 532.95 1224.24 532.797 1224.13 532.629C1220.83 527.716 1218.96 522.009 1218.72 516.127C1218.47 510.244 1219.87 504.408 1222.74 499.248C1225.62 494.089 1229.88 489.802 1235.05 486.851C1240.23 483.9 1246.12 482.396 1252.1 482.502L1252.1 482.513ZM1233.55 530.431C1236.74 533.991 1240.94 536.526 1245.61 537.707C1250.27 538.887 1255.19 538.658 1259.72 537.049C1264.25 535.44 1268.19 532.526 1271.01 528.685C1273.84 524.845 1275.43 520.256 1275.57 515.515L1275.58 515.003C1275.52 508.813 1273.01 502.887 1268.57 498.498C1264.14 494.108 1258.13 491.604 1251.84 491.522C1245.55 491.441 1239.48 493.788 1234.93 498.06C1230.39 502.333 1227.72 508.191 1227.51 514.378C1227.42 519.103 1228.79 523.744 1231.43 527.692L1233.38 530.188L1233.53 530.419L1233.55 530.431Z" fill="#EAEAEA" fill-opacity="0.1"/>
<path d="M1252.1 482.513C1260.76 482.65 1269.01 486.149 1275.06 492.248C1281.11 498.346 1284.46 506.55 1284.39 515.071L1284.38 515.68C1284.23 522.179 1282.09 528.48 1278.24 533.759C1274.39 539.037 1269.01 543.047 1262.8 545.264C1256.59 547.48 1249.85 547.799 1243.46 546.179C1237.06 544.56 1231.31 541.076 1226.96 536.186C1226.8 536.053 1226.73 535.942 1226.75 535.943L1226.57 535.711L1226.47 535.589L1226.35 535.457L1224.52 533.083C1224.37 532.95 1224.24 532.797 1224.13 532.629C1220.83 527.716 1218.96 522.009 1218.72 516.127C1218.47 510.244 1219.87 504.408 1222.74 499.248C1225.62 494.089 1229.88 489.802 1235.05 486.851C1240.23 483.9 1246.12 482.396 1252.1 482.502L1252.1 482.513ZM1233.55 530.431C1236.74 533.991 1240.94 536.526 1245.61 537.707C1250.27 538.887 1255.19 538.658 1259.72 537.049C1264.25 535.44 1268.19 532.526 1271.01 528.685C1273.84 524.845 1275.43 520.256 1275.57 515.515L1275.58 515.003C1275.52 508.813 1273.01 502.887 1268.57 498.498C1264.14 494.108 1258.13 491.604 1251.84 491.522C1245.55 491.441 1239.48 493.788 1234.93 498.06C1230.39 502.333 1227.72 508.191 1227.51 514.378C1227.42 519.103 1228.79 523.744 1231.43 527.692L1233.38 530.188L1233.53 530.419L1233.55 530.431Z" fill="#EAEAEA" fill-opacity="0.1"/>
<path d="M1129.01 271.238L1126.83 374.175C1126.73 379.287 1128.68 384.227 1132.24 387.912C1135.8 391.597 1140.69 393.726 1145.83 393.832L1172.64 394.398C1175.29 394.45 1177.91 393.961 1180.36 392.962C1182.81 391.962 1185.02 390.473 1186.87 388.587L1186.99 388.463C1188.83 386.5 1190.27 384.201 1191.23 381.694L1191.38 381.376C1192.02 379.505 1192.37 377.546 1192.41 375.568L1193.15 340.298C1193.34 331.541 1196.3 323.067 1201.62 316.088C1206.93 309.108 1214.33 303.981 1222.76 301.439C1223.44 301.24 1224.06 300.857 1224.54 300.333C1225.03 299.809 1225.36 299.163 1225.5 298.465C1225.51 298.362 1225.51 298.258 1225.5 298.154L1225.51 297.776C1225.52 297.193 1225.4 296.614 1225.17 296.081C1224.93 295.548 1224.58 295.072 1224.14 294.686L1179.13 257.265C1175.73 254.424 1171.46 252.826 1167.02 252.735L1148.82 252.351C1146.28 252.296 1143.74 252.741 1141.37 253.66C1138.99 254.58 1136.82 255.956 1134.98 257.71C1133.14 259.464 1131.67 261.561 1130.64 263.882C1129.62 266.203 1129.06 268.703 1129.01 271.238ZM1155.09 386.323L1145.99 386.131C1142.92 386.069 1140 384.798 1137.87 382.597C1135.74 380.395 1134.57 377.443 1134.63 374.388L1136.81 271.402C1136.88 268.345 1138.17 265.441 1140.39 263.328C1142.61 261.215 1145.59 260.065 1148.66 260.13L1166.87 260.514C1169.53 260.605 1172.08 261.575 1174.12 263.27L1214.07 296.475C1205.65 300.344 1198.49 306.494 1193.41 314.221C1188.33 321.949 1185.54 330.942 1185.36 340.172C1185.35 340.57 1185.35 340.93 1185.34 341.376C1185.32 341.547 1185.32 341.719 1185.33 341.891L1184.62 375.443C1184.59 376.557 1184.4 377.661 1184.07 378.725C1183.45 380.389 1182.5 381.915 1181.29 383.213C1180.19 384.345 1178.87 385.239 1177.41 385.838C1175.95 386.438 1174.38 386.73 1172.81 386.697L1156.05 386.343C1155.91 386.312 1155.77 386.293 1155.63 386.286C1155.45 386.28 1155.27 386.292 1155.09 386.323Z" fill="#EAEAEA" fill-opacity="0.1"/>
<path d="M1200.64 346.958C1200.45 355.612 1203.62 363.992 1209.48 370.272C1215.34 376.552 1223.41 380.223 1231.93 380.484L1232.54 380.497C1239.04 380.598 1245.42 378.702 1250.84 375.058C1256.26 371.415 1260.48 366.193 1262.93 360.077C1265.39 353.961 1265.97 347.235 1264.6 340.782C1263.23 334.328 1259.97 328.447 1255.25 323.908C1255.12 323.751 1255.02 323.671 1255.01 323.693L1254.79 323.5L1254.67 323.398L1254.54 323.274L1252.24 321.355C1252.12 321.199 1251.97 321.062 1251.81 320.947C1247.02 317.462 1241.39 315.371 1235.52 314.899C1229.66 314.427 1223.77 315.592 1218.5 318.27C1213.24 320.947 1208.79 325.034 1205.64 330.09C1202.49 335.145 1200.76 340.978 1200.63 346.958L1200.64 346.958ZM1249.24 330.277C1252.68 333.598 1255.05 337.892 1256.05 342.601C1257.05 347.31 1256.63 352.217 1254.84 356.683C1253.06 361.149 1250 364.968 1246.05 367.643C1242.1 370.318 1237.46 371.725 1232.71 371.681L1232.2 371.67C1226.02 371.379 1220.19 368.638 1215.98 364.035C1211.77 359.431 1209.5 353.332 1209.66 347.045C1209.82 340.758 1212.4 334.784 1216.84 330.404C1221.29 326.024 1227.25 323.586 1233.44 323.614C1238.16 323.713 1242.75 325.26 1246.59 328.052L1249.01 330.095L1249.23 330.255L1249.24 330.277Z" fill="#EAEAEA" fill-opacity="0.1"/>
<path d="M1144.01 529.575L1146.19 426.638C1146.29 421.526 1144.34 416.586 1140.78 412.901C1137.22 409.216 1132.33 407.087 1127.2 406.981L1100.38 406.415C1097.74 406.363 1095.11 406.852 1092.66 407.851C1090.21 408.851 1088 410.34 1086.16 412.226L1086.04 412.35C1084.2 414.313 1082.75 416.612 1081.79 419.119L1081.65 419.437C1081 421.308 1080.66 423.267 1080.62 425.245L1079.87 460.515C1079.69 469.272 1076.73 477.746 1071.41 484.725C1066.09 491.705 1058.69 496.832 1050.27 499.374C1049.58 499.573 1048.96 499.956 1048.48 500.48C1048 501.004 1047.67 501.65 1047.53 502.348C1047.52 502.451 1047.51 502.555 1047.52 502.659L1047.51 503.037C1047.5 503.62 1047.62 504.199 1047.86 504.732C1048.09 505.265 1048.44 505.741 1048.88 506.127L1093.89 543.548C1097.29 546.389 1101.57 547.987 1106.01 548.078L1124.2 548.462C1126.75 548.517 1129.28 548.072 1131.66 547.153C1134.03 546.233 1136.2 544.857 1138.04 543.103C1139.88 541.349 1141.36 539.252 1142.38 536.931C1143.41 534.61 1143.96 532.11 1144.01 529.575ZM1117.93 414.49L1127.03 414.682C1130.1 414.744 1133.02 416.015 1135.15 418.216C1137.28 420.418 1138.45 423.37 1138.4 426.425L1136.22 529.411C1136.14 532.468 1134.85 535.372 1132.63 537.485C1130.41 539.598 1127.44 540.748 1124.37 540.683L1106.15 540.299C1103.49 540.208 1100.94 539.238 1098.9 537.543L1058.95 504.338C1067.38 500.469 1074.54 494.319 1079.61 486.592C1084.69 478.864 1087.48 469.871 1087.66 460.641C1087.67 460.243 1087.68 459.883 1087.69 459.437C1087.7 459.266 1087.71 459.094 1087.7 458.922L1088.41 425.37C1088.44 424.256 1088.62 423.152 1088.96 422.088C1089.57 420.424 1090.52 418.898 1091.74 417.6C1092.83 416.468 1094.15 415.574 1095.61 414.975C1097.07 414.375 1098.64 414.083 1100.22 414.116L1116.98 414.47C1117.12 414.501 1117.26 414.52 1117.4 414.527C1117.58 414.533 1117.76 414.521 1117.93 414.49Z" fill="#EAEAEA" fill-opacity="0.1"/>
<path d="M1144.01 529.575L1146.19 426.638C1146.29 421.526 1144.34 416.586 1140.78 412.901C1137.22 409.216 1132.33 407.087 1127.2 406.981L1100.38 406.415C1097.74 406.363 1095.11 406.852 1092.66 407.851C1090.21 408.851 1088 410.34 1086.16 412.226L1086.04 412.35C1084.2 414.313 1082.75 416.612 1081.79 419.119L1081.65 419.437C1081 421.308 1080.66 423.267 1080.62 425.245L1079.87 460.515C1079.69 469.272 1076.73 477.746 1071.41 484.725C1066.09 491.705 1058.69 496.832 1050.27 499.374C1049.58 499.573 1048.96 499.956 1048.48 500.48C1048 501.004 1047.67 501.65 1047.53 502.348C1047.52 502.451 1047.51 502.555 1047.52 502.659L1047.51 503.037C1047.5 503.62 1047.62 504.199 1047.86 504.732C1048.09 505.265 1048.44 505.741 1048.88 506.127L1093.89 543.548C1097.29 546.389 1101.57 547.987 1106.01 548.078L1124.2 548.462C1126.75 548.517 1129.28 548.072 1131.66 547.153C1134.03 546.233 1136.2 544.857 1138.04 543.103C1139.88 541.349 1141.36 539.252 1142.38 536.931C1143.41 534.61 1143.96 532.11 1144.01 529.575ZM1117.93 414.49L1127.03 414.682C1130.1 414.744 1133.02 416.015 1135.15 418.216C1137.28 420.418 1138.45 423.37 1138.4 426.425L1136.22 529.411C1136.14 532.468 1134.85 535.372 1132.63 537.485C1130.41 539.598 1127.44 540.748 1124.37 540.683L1106.15 540.299C1103.49 540.208 1100.94 539.238 1098.9 537.543L1058.95 504.338C1067.38 500.469 1074.54 494.319 1079.61 486.592C1084.69 478.864 1087.48 469.871 1087.66 460.641C1087.67 460.243 1087.68 459.883 1087.69 459.437C1087.7 459.266 1087.71 459.094 1087.7 458.922L1088.41 425.37C1088.44 424.256 1088.62 423.152 1088.96 422.088C1089.57 420.424 1090.52 418.898 1091.74 417.6C1092.83 416.468 1094.15 415.574 1095.61 414.975C1097.07 414.375 1098.64 414.083 1100.22 414.116L1116.98 414.47C1117.12 414.501 1117.26 414.52 1117.4 414.527C1117.58 414.533 1117.76 414.521 1117.93 414.49Z" fill="#EAEAEA" fill-opacity="0.1"/>
<path d="M1069.65 453.791C1069.84 445.137 1066.67 436.757 1060.81 430.477C1054.95 424.197 1046.88 420.526 1038.36 420.265L1037.75 420.252C1031.25 420.151 1024.87 422.047 1019.45 425.691C1014.03 429.334 1009.81 434.556 1007.36 440.673C1004.9 446.789 1004.32 453.514 1005.69 459.968C1007.06 466.421 1010.32 472.303 1015.04 476.841C1015.17 476.999 1015.27 477.078 1015.27 477.056L1015.5 477.249L1015.62 477.351L1015.74 477.476L1018.05 479.394C1018.17 479.55 1018.32 479.687 1018.48 479.802C1023.27 483.287 1028.9 485.379 1034.76 485.85C1040.63 486.322 1046.52 485.157 1051.79 482.48C1057.05 479.803 1061.5 475.715 1064.65 470.66C1067.8 465.604 1069.53 459.771 1069.66 453.792L1069.65 453.791ZM1021.05 470.472C1017.61 467.152 1015.24 462.858 1014.24 458.148C1013.24 453.439 1013.66 448.532 1015.44 444.066C1017.23 439.6 1020.29 435.781 1024.24 433.107C1028.19 430.432 1032.83 429.025 1037.58 429.068L1038.09 429.079C1044.27 429.37 1050.09 432.111 1054.31 436.715C1058.52 441.318 1060.79 447.417 1060.63 453.704C1060.47 459.991 1057.89 465.965 1053.45 470.345C1049 474.725 1043.04 477.163 1036.85 477.135C1032.13 477.036 1027.54 475.489 1023.7 472.697L1021.28 470.654L1021.06 470.494L1021.05 470.472Z" fill="#EAEAEA" fill-opacity="0.1"/>
<path d="M1069.65 453.791C1069.84 445.137 1066.67 436.757 1060.81 430.477C1054.95 424.197 1046.88 420.526 1038.36 420.265L1037.75 420.252C1031.25 420.151 1024.87 422.047 1019.45 425.691C1014.03 429.334 1009.81 434.556 1007.36 440.673C1004.9 446.789 1004.32 453.514 1005.69 459.968C1007.06 466.421 1010.32 472.303 1015.04 476.841C1015.17 476.999 1015.27 477.078 1015.27 477.056L1015.5 477.249L1015.62 477.351L1015.74 477.476L1018.05 479.394C1018.17 479.55 1018.32 479.687 1018.48 479.802C1023.27 483.287 1028.9 485.379 1034.76 485.85C1040.63 486.322 1046.52 485.157 1051.79 482.48C1057.05 479.803 1061.5 475.715 1064.65 470.66C1067.8 465.604 1069.53 459.771 1069.66 453.792L1069.65 453.791ZM1021.05 470.472C1017.61 467.152 1015.24 462.858 1014.24 458.148C1013.24 453.439 1013.66 448.532 1015.44 444.066C1017.23 439.6 1020.29 435.781 1024.24 433.107C1028.19 430.432 1032.83 429.025 1037.58 429.068L1038.09 429.079C1044.27 429.37 1050.09 432.111 1054.31 436.715C1058.52 441.318 1060.79 447.417 1060.63 453.704C1060.47 459.991 1057.89 465.965 1053.45 470.345C1049 474.725 1043.04 477.163 1036.85 477.135C1032.13 477.036 1027.54 475.489 1023.7 472.697L1021.28 470.654L1021.06 470.494L1021.05 470.472Z" fill="#EAEAEA" fill-opacity="0.1"/>
</g>
<path d="M830.582 455.662L724.128 456.677C718.842 456.741 713.798 458.903 710.102 462.69C706.406 466.476 704.36 471.577 704.414 476.874L704.677 504.519C704.707 507.246 705.295 509.937 706.406 512.427C707.516 514.916 709.125 517.15 711.133 518.991L711.265 519.11C713.352 520.944 715.773 522.356 718.395 523.269L718.728 523.407C720.682 524.011 722.718 524.307 724.762 524.286L761.238 523.938C770.293 523.849 779.145 526.632 786.526 531.889C793.908 537.146 799.441 544.607 802.335 553.206C802.562 553.907 802.977 554.532 803.534 555.013C804.091 555.494 804.769 555.812 805.495 555.934C805.602 555.943 805.709 555.942 805.816 555.931L806.208 555.927C806.811 555.919 807.404 555.78 807.948 555.52C808.492 555.259 808.973 554.883 809.357 554.417L846.608 506.859C849.436 503.267 850.953 498.813 850.907 494.237L850.728 475.478C850.704 472.851 850.164 470.255 849.138 467.837C848.113 465.419 846.622 463.228 844.752 461.388C842.881 459.547 840.666 458.094 838.235 457.112C835.804 456.13 833.203 455.637 830.582 455.662ZM712.467 486.177L712.377 476.798C712.345 473.632 713.566 470.583 715.774 468.318C717.981 466.054 720.995 464.76 724.154 464.719L830.658 463.703C833.82 463.681 836.862 464.916 839.116 467.138C841.37 469.36 842.653 472.387 842.683 475.555L842.862 494.334C842.852 497.074 841.931 499.732 840.243 501.887L807.19 544.102C802.925 535.544 796.343 528.361 788.196 523.375C780.049 518.389 770.667 515.801 761.121 515.907C760.71 515.911 760.338 515.915 759.876 515.919C759.699 515.908 759.521 515.91 759.344 515.924L724.646 516.255C723.494 516.258 722.347 516.103 721.236 515.795C719.497 515.209 717.891 514.283 716.51 513.072C715.306 511.979 714.34 510.648 713.675 509.163C713.009 507.678 712.657 506.071 712.641 504.443L712.476 487.164C712.504 487.021 712.52 486.876 712.522 486.73C712.523 486.545 712.505 486.359 712.467 486.177Z" fill="#EAEAEA" fill-opacity="0.1"/>
<path d="M747.566 538.586C738.714 538.655 730.248 542.219 724.014 548.501C717.779 554.782 714.281 563.273 714.282 572.122L714.288 572.755C714.39 579.505 716.528 586.066 720.423 591.581C724.318 597.095 729.788 601.304 736.117 603.658C742.446 606.012 749.338 606.401 755.891 604.773C762.445 603.145 768.354 599.576 772.844 594.535C773.001 594.398 773.079 594.284 773.057 594.284L773.247 594.045L773.347 593.919L773.47 593.782L775.359 591.333C775.514 591.196 775.65 591.039 775.762 590.865C779.174 585.791 781.134 579.881 781.432 573.774C781.729 567.667 780.353 561.595 777.451 556.213C774.549 550.831 770.231 546.343 764.964 543.235C759.698 540.126 753.682 538.515 747.566 538.574L747.566 538.586ZM766.145 588.502C762.859 592.173 758.545 594.77 753.763 595.956C748.98 597.142 743.952 596.863 739.331 595.154C734.71 593.444 730.71 590.385 727.852 586.373C724.994 582.361 723.409 577.582 723.304 572.658L723.299 572.127C723.402 565.698 726.021 559.567 730.594 555.046C735.166 550.525 741.329 547.976 747.76 547.944C754.191 547.912 760.379 550.401 764.996 554.876C769.613 559.351 772.292 565.457 772.458 571.884C772.506 576.792 771.069 581.599 768.336 585.677L766.323 588.252L766.167 588.491L766.145 588.502Z" fill="#EAEAEA" fill-opacity="0.1"/>
<path d="M561.77 649.346L668.224 648.331C673.509 648.267 678.553 646.104 682.249 642.318C685.945 638.532 687.991 633.43 687.938 628.134L687.674 600.489C687.645 597.762 687.056 595.071 685.946 592.581C684.835 590.092 683.226 587.858 681.219 586.017L681.087 585.897C679 584.064 676.578 582.652 673.956 581.738L673.624 581.601C671.67 580.997 669.634 580.701 667.589 580.722L631.114 581.07C622.058 581.159 613.207 578.376 605.825 573.119C598.444 567.862 592.91 560.4 590.016 551.802C589.789 551.101 589.375 550.476 588.817 549.995C588.26 549.514 587.582 549.195 586.857 549.074C586.75 549.065 586.642 549.066 586.535 549.077L586.144 549.081C585.541 549.089 584.947 549.228 584.403 549.488C583.86 549.749 583.379 550.125 582.994 550.59L545.744 598.149C542.915 601.741 541.398 606.195 541.445 610.771L541.624 629.53C541.648 632.157 542.188 634.753 543.213 637.171C544.238 639.588 545.729 641.78 547.6 643.62C549.471 645.46 551.685 646.913 554.117 647.896C556.548 648.878 559.149 649.371 561.77 649.346ZM679.885 618.83L679.974 628.21C680.007 631.375 678.786 634.425 676.578 636.689C674.37 638.954 671.356 640.248 668.197 640.289L561.693 641.305C558.531 641.327 555.49 640.092 553.236 637.87C550.981 635.648 549.698 632.621 549.668 629.453L549.489 610.674C549.499 607.934 550.421 605.276 552.109 603.121L585.162 560.906C589.427 569.464 596.009 576.647 604.156 581.633C612.302 586.619 621.685 589.207 631.23 589.101C631.642 589.097 632.014 589.093 632.476 589.089C632.653 589.1 632.831 589.098 633.008 589.084L667.706 588.753C668.858 588.749 670.005 588.904 671.115 589.213C672.855 589.799 674.461 590.724 675.842 591.936C677.046 593.029 678.011 594.36 678.677 595.845C679.343 597.33 679.695 598.937 679.71 600.565L679.875 617.844C679.847 617.987 679.832 618.132 679.829 618.277C679.828 618.463 679.847 618.649 679.885 618.83Z" fill="#EAEAEA" fill-opacity="0.1"/>
<path d="M644.79 566.42C653.642 566.351 662.107 562.787 668.342 556.505C674.576 550.223 678.074 541.733 678.074 532.884L678.068 532.25C677.966 525.501 675.828 518.939 671.933 513.425C668.038 507.911 662.567 503.701 656.239 501.347C649.91 498.993 643.017 498.605 636.464 500.233C629.911 501.861 624.002 505.429 619.512 510.471C619.354 510.608 619.276 510.722 619.299 510.722L619.109 510.961L619.008 511.086L618.885 511.223L616.996 513.673C616.841 513.81 616.706 513.967 616.593 514.141C613.182 519.215 611.221 525.125 610.924 531.232C610.626 537.339 612.003 543.411 614.905 548.793C617.807 554.175 622.124 558.662 627.391 561.771C632.658 564.879 638.674 566.491 644.79 566.431L644.79 566.42ZM626.211 516.503C629.496 512.833 633.811 510.236 638.593 509.05C643.375 507.863 648.404 508.143 653.025 509.852C657.646 511.561 661.645 514.621 664.503 518.632C667.362 522.644 668.946 527.423 669.051 532.348L669.056 532.879C668.953 539.307 666.334 545.439 661.762 549.96C657.189 554.48 651.027 557.03 644.595 557.062C638.164 557.093 631.977 554.605 627.36 550.13C622.743 545.654 620.064 539.549 619.897 533.122C619.85 528.214 621.287 523.406 624.02 519.329L626.032 516.754L626.188 516.515L626.211 516.503Z" fill="#EAEAEA" fill-opacity="0.1"/>
<path d="M836.891 615.72L943.345 614.705C948.63 614.641 953.675 612.479 957.37 608.692C961.066 604.906 963.112 599.805 963.059 594.508L962.795 566.863C962.766 564.136 962.178 561.445 961.067 558.955C959.957 556.466 958.348 554.232 956.34 552.391L956.208 552.272C954.121 550.438 951.7 549.026 949.078 548.112L948.745 547.975C946.791 547.371 944.755 547.075 942.71 547.096L906.235 547.444C897.179 547.533 888.328 544.75 880.946 539.493C873.565 534.236 868.031 526.775 865.138 518.176C864.91 517.475 864.496 516.85 863.939 516.369C863.381 515.888 862.703 515.569 861.978 515.448C861.871 515.439 861.763 515.44 861.657 515.451L861.265 515.455C860.662 515.463 860.068 515.602 859.524 515.862C858.981 516.123 858.5 516.499 858.115 516.964L820.865 564.523C818.036 568.115 816.52 572.569 816.566 577.145L816.745 595.904C816.769 598.531 817.309 601.127 818.334 603.545C819.36 605.963 820.85 608.154 822.721 609.994C824.592 611.835 826.806 613.287 829.238 614.27C831.669 615.252 834.27 615.745 836.891 615.72ZM955.006 585.205L955.095 594.584C955.128 597.75 953.907 600.799 951.699 603.063C949.491 605.328 946.478 606.622 943.319 606.663L836.814 607.679C833.653 607.701 830.611 606.466 828.357 604.244C826.102 602.022 824.82 598.995 824.789 595.827L824.61 577.048C824.62 574.308 825.542 571.65 827.23 569.495L860.283 527.28C864.548 535.838 871.13 543.021 879.277 548.007C887.423 552.993 896.806 555.581 906.351 555.475C906.763 555.471 907.135 555.467 907.597 555.463C907.774 555.474 907.952 555.472 908.129 555.458L942.827 555.127C943.979 555.124 945.126 555.279 946.236 555.587C947.976 556.173 949.582 557.099 950.963 558.31C952.167 559.403 953.132 560.734 953.798 562.219C954.464 563.704 954.816 565.311 954.831 566.939L954.996 584.218C954.968 584.361 954.953 584.506 954.95 584.652C954.949 584.837 954.968 585.023 955.006 585.205Z" fill="#EAEAEA" fill-opacity="0.1"/>
<path d="M919.911 532.794C928.763 532.725 937.228 529.161 943.463 522.879C949.698 516.597 953.196 508.107 953.195 499.258L953.189 498.625C953.087 491.875 950.949 485.313 947.054 479.799C943.159 474.285 937.688 470.076 931.36 467.722C925.031 465.368 918.139 464.979 911.585 466.607C905.032 468.235 899.123 471.803 894.633 476.845C894.476 476.982 894.397 477.096 894.42 477.096L894.23 477.335L894.129 477.461L894.006 477.597L892.117 480.047C891.962 480.184 891.827 480.341 891.715 480.515C888.303 485.589 886.342 491.499 886.045 497.606C885.747 503.713 887.124 509.785 890.026 515.167C892.928 520.549 897.245 525.036 902.512 528.145C907.779 531.253 913.795 532.865 919.911 532.805L919.911 532.794ZM901.332 482.877C904.617 479.207 908.932 476.61 913.714 475.424C918.496 474.238 923.525 474.517 928.146 476.226C932.767 477.935 936.766 480.995 939.625 485.007C942.483 489.019 944.067 493.798 944.172 498.722L944.177 499.253C944.074 505.681 941.456 511.813 936.883 516.334C932.31 520.855 926.148 523.404 919.717 523.436C913.285 523.468 907.098 520.979 902.481 516.504C897.864 512.029 895.185 505.923 895.018 499.496C894.971 494.588 896.408 489.78 899.141 485.703L901.153 483.128L901.309 482.889L901.332 482.877Z" fill="#EAEAEA" fill-opacity="0.1"/>
<path d="M1002.37 327.116C993.515 327.185 985.049 330.749 978.814 337.031C972.58 343.313 969.082 351.804 969.083 360.653L969.089 361.286C969.19 368.035 971.329 374.597 975.224 380.111C979.119 385.625 984.589 389.835 990.918 392.189C997.246 394.543 1004.14 394.931 1010.69 393.303C1017.25 391.675 1023.15 388.107 1027.64 383.065C1027.8 382.928 1027.88 382.814 1027.86 382.815L1028.05 382.575L1028.15 382.45L1028.27 382.313L1030.16 379.863C1030.31 379.726 1030.45 379.569 1030.56 379.396C1033.97 374.321 1035.93 368.411 1036.23 362.304C1036.53 356.198 1035.15 350.125 1032.25 344.743C1029.35 339.361 1025.03 334.874 1019.77 331.765C1014.5 328.657 1008.48 327.046 1002.37 327.105L1002.37 327.116ZM1020.95 377.033C1017.66 380.703 1013.35 383.3 1008.56 384.487C1003.78 385.673 998.753 385.393 994.132 383.684C989.511 381.975 985.511 378.916 982.653 374.904C979.795 370.892 978.21 366.113 978.105 361.189L978.1 360.657C978.203 354.229 980.822 348.097 985.394 343.576C989.967 339.056 996.13 336.506 1002.56 336.474C1008.99 336.443 1015.18 338.931 1019.8 343.407C1024.41 347.882 1027.09 353.988 1027.26 360.414C1027.31 365.322 1025.87 370.13 1023.14 374.207L1021.12 376.782L1020.97 377.021L1020.95 377.033Z" fill="#EAEAEA" fill-opacity="0.1"/>
<path d="M816.575 437.877L923.029 436.861C928.314 436.797 933.358 434.635 937.054 430.848C940.75 427.062 942.796 421.961 942.743 416.664L942.479 389.019C942.449 386.293 941.861 383.601 940.751 381.112C939.64 378.622 938.031 376.388 936.023 374.547L935.892 374.428C933.804 372.594 931.383 371.182 928.761 370.269L928.428 370.131C926.474 369.528 924.439 369.231 922.394 369.253L885.918 369.601C876.863 369.69 868.011 366.907 860.63 361.65C853.248 356.393 847.715 348.931 844.821 340.332C844.594 339.631 844.179 339.006 843.622 338.525C843.065 338.044 842.387 337.726 841.662 337.605C841.555 337.596 841.447 337.597 841.34 337.608L840.948 337.611C840.346 337.619 839.752 337.758 839.208 338.019C838.664 338.279 838.183 338.656 837.799 339.121L800.549 386.679C797.72 390.272 796.203 394.726 796.25 399.301L796.429 418.06C796.452 420.687 796.992 423.283 798.018 425.701C799.043 428.119 800.534 430.31 802.405 432.151C804.276 433.991 806.49 435.444 808.921 436.426C811.353 437.409 813.953 437.902 816.575 437.877ZM934.689 407.361L934.779 416.74C934.812 419.906 933.59 422.955 931.383 425.22C929.175 427.484 926.161 428.779 923.002 428.82L816.498 429.836C813.336 429.858 810.295 428.622 808.04 426.401C805.786 424.179 804.503 421.152 804.473 417.983L804.294 399.204C804.304 396.465 805.226 393.807 806.913 391.651L839.967 349.437C844.231 357.995 850.813 365.178 858.96 370.164C867.107 375.15 876.49 377.737 886.035 377.631C886.447 377.627 886.818 377.624 887.28 377.619C887.458 377.63 887.635 377.629 887.813 377.614L922.511 377.283C923.663 377.28 924.81 377.435 925.92 377.744C927.659 378.33 929.266 379.255 930.646 380.466C931.85 381.559 932.816 382.89 933.482 384.375C934.147 385.86 934.499 387.467 934.515 389.095L934.68 406.375C934.652 406.517 934.636 406.662 934.634 406.808C934.633 406.994 934.652 407.179 934.689 407.361Z" fill="#EAEAEA" fill-opacity="0.1"/>
<path d="M899.591 354.95C908.442 354.881 916.908 351.317 923.143 345.036C929.377 338.754 932.875 330.263 932.874 321.414L932.868 320.781C932.767 314.031 930.628 307.47 926.733 301.956C922.838 296.441 917.368 292.232 911.039 289.878C904.711 287.524 897.818 287.135 891.265 288.763C884.712 290.391 878.803 293.96 874.312 299.001C874.155 299.138 874.077 299.252 874.1 299.252L873.91 299.491L873.809 299.617L873.686 299.754L871.797 302.203C871.642 302.34 871.507 302.498 871.394 302.671C867.983 307.746 866.022 313.655 865.724 319.762C865.427 325.869 866.803 331.941 869.705 337.323C872.608 342.705 876.925 347.193 882.192 350.301C887.459 353.41 893.475 355.021 899.591 354.962L899.591 354.95ZM881.011 305.034C884.297 301.363 888.612 298.766 893.394 297.58C898.176 296.394 903.204 296.674 907.825 298.383C912.446 300.092 916.446 303.151 919.304 307.163C922.162 311.175 923.747 315.954 923.852 320.878L923.857 321.41C923.754 327.838 921.135 333.97 916.563 338.49C911.99 343.011 905.827 345.56 899.396 345.592C892.965 345.624 886.778 343.135 882.161 338.66C877.544 334.185 874.865 328.079 874.698 321.652C874.65 316.744 876.087 311.937 878.821 307.86L880.833 305.284L880.989 305.045L881.011 305.034Z" fill="#EAEAEA" fill-opacity="0.1"/>
<path d="M828.589 246.64L722.135 247.656C716.85 247.719 711.806 249.882 708.11 253.668C704.414 257.455 702.368 262.556 702.421 267.852L702.685 295.497C702.715 298.224 703.303 300.915 704.413 303.405C705.524 305.894 707.133 308.129 709.141 309.969L709.272 310.089C711.36 311.922 713.781 313.334 716.403 314.248L716.736 314.386C718.69 314.989 720.726 315.285 722.77 315.264L759.246 314.916C768.301 314.827 777.153 317.61 784.534 322.867C791.916 328.124 797.449 335.586 800.343 344.185C800.57 344.885 800.985 345.51 801.542 345.991C802.099 346.472 802.777 346.791 803.503 346.912C803.61 346.921 803.717 346.92 803.824 346.909L804.216 346.905C804.818 346.897 805.412 346.758 805.956 346.498C806.5 346.237 806.981 345.861 807.365 345.396L844.616 297.837C847.444 294.245 848.961 289.791 848.914 285.215L848.735 266.456C848.712 263.83 848.172 261.233 847.146 258.815C846.121 256.398 844.63 254.206 842.759 252.366C840.888 250.526 838.674 249.073 836.243 248.09C833.811 247.108 831.211 246.615 828.589 246.64ZM710.475 277.156L710.385 267.776C710.352 264.611 711.574 261.561 713.781 259.297C715.989 257.032 719.003 255.738 722.162 255.697L828.666 254.681C831.828 254.659 834.87 255.894 837.124 258.116C839.378 260.338 840.661 263.365 840.691 266.533L840.87 285.312C840.86 288.052 839.938 290.71 838.251 292.865L805.198 335.08C800.933 326.522 794.351 319.339 786.204 314.353C778.057 309.367 768.674 306.779 759.129 306.885C758.717 306.889 758.346 306.893 757.884 306.897C757.706 306.886 757.529 306.888 757.352 306.902L722.654 307.233C721.501 307.237 720.354 307.082 719.244 306.773C717.505 306.187 715.898 305.262 714.518 304.05C713.314 302.957 712.348 301.626 711.682 300.141C711.017 298.656 710.665 297.049 710.649 295.421L710.484 278.142C710.512 277.999 710.528 277.854 710.53 277.709C710.531 277.523 710.513 277.338 710.475 277.156Z" fill="#EAEAEA" fill-opacity="0.1"/>
<path d="M745.573 329.566C736.722 329.635 728.256 333.199 722.021 339.481C715.787 345.763 712.289 354.253 712.29 363.102L712.296 363.736C712.397 370.485 714.536 377.047 718.431 382.561C722.326 388.075 727.796 392.285 734.125 394.638C740.453 396.992 747.346 397.381 753.899 395.753C760.453 394.125 766.361 390.557 770.852 385.515C771.009 385.378 771.087 385.264 771.064 385.264L771.254 385.025L771.355 384.9L771.478 384.763L773.367 382.313C773.522 382.176 773.658 382.019 773.77 381.845C777.182 376.771 779.142 370.861 779.44 364.754C779.737 358.647 778.361 352.575 775.459 347.193C772.557 341.811 768.239 337.324 762.972 334.215C757.705 331.107 751.689 329.495 745.573 329.555L745.573 329.566ZM764.153 379.483C760.867 383.153 756.552 385.75 751.77 386.936C746.988 388.122 741.96 387.843 737.339 386.134C732.718 384.425 728.718 381.365 725.86 377.353C723.002 373.341 721.417 368.563 721.312 363.638L721.307 363.107C721.41 356.679 724.029 350.547 728.602 346.026C733.174 341.505 739.337 338.956 745.768 338.924C752.199 338.892 758.386 341.381 763.003 345.856C767.621 350.332 770.299 356.437 770.466 362.864C770.514 367.772 769.077 372.58 766.343 376.657L764.331 379.232L764.175 379.471L764.153 379.483Z" fill="#EAEAEA" fill-opacity="0.1"/>
<path d="M559.778 440.326L666.232 439.311C671.517 439.247 676.561 437.085 680.257 433.298C683.953 429.512 685.999 424.411 685.946 419.114L685.682 391.469C685.653 388.742 685.064 386.051 683.954 383.561C682.843 381.072 681.234 378.838 679.227 376.997L679.095 376.878C677.007 375.044 674.586 373.632 671.964 372.719L671.632 372.581C669.677 371.977 667.642 371.681 665.597 371.702L629.121 372.05C620.066 372.139 611.215 369.356 603.833 364.099C596.452 358.842 590.918 351.381 588.024 342.782C587.797 342.081 587.382 341.456 586.825 340.975C586.268 340.494 585.59 340.176 584.865 340.054C584.758 340.045 584.65 340.046 584.543 340.057L584.152 340.061C583.549 340.069 582.955 340.208 582.411 340.469C581.867 340.729 581.387 341.105 581.002 341.571L543.752 389.129C540.923 392.722 539.406 397.175 539.453 401.751L539.632 420.51C539.655 423.137 540.195 425.733 541.221 428.151C542.246 430.569 543.737 432.76 545.608 434.6C547.479 436.441 549.693 437.894 552.124 438.876C554.556 439.858 557.156 440.351 559.778 440.326ZM677.892 409.811L677.982 419.19C678.015 422.356 676.793 425.405 674.586 427.67C672.378 429.934 669.364 431.229 666.205 431.269L559.701 432.285C556.539 432.307 553.498 431.072 551.243 428.85C548.989 426.628 547.706 423.601 547.676 420.433L547.497 401.654C547.507 398.914 548.429 396.256 550.117 394.101L583.17 351.886C587.434 360.445 594.017 367.627 602.163 372.613C610.31 377.599 619.693 380.187 629.238 380.081C629.65 380.077 630.021 380.073 630.483 380.069C630.661 380.08 630.839 380.078 631.016 380.064L665.714 379.733C666.866 379.73 668.013 379.885 669.123 380.194C670.862 380.779 672.469 381.705 673.849 382.916C675.054 384.009 676.019 385.34 676.685 386.825C677.351 388.31 677.702 389.917 677.718 391.545L677.883 408.824C677.855 408.967 677.84 409.112 677.837 409.258C677.836 409.443 677.855 409.629 677.892 409.811Z" fill="#EAEAEA" fill-opacity="0.1"/>
<path d="M642.794 357.4C651.646 357.331 660.111 353.767 666.346 347.485C672.58 341.203 676.078 332.713 676.078 323.864L676.072 323.23C675.97 316.481 673.831 309.919 669.936 304.405C666.041 298.891 660.571 294.682 654.243 292.328C647.914 289.974 641.021 289.585 634.468 291.213C627.915 292.841 622.006 296.409 617.515 301.451C617.358 301.588 617.28 301.702 617.303 301.702L617.113 301.941L617.012 302.067L616.889 302.203L615 304.653C614.845 304.79 614.71 304.947 614.597 305.121C611.186 310.195 609.225 316.105 608.928 322.212C608.63 328.319 610.006 334.391 612.909 339.773C615.811 345.155 620.128 349.642 625.395 352.751C630.662 355.859 636.678 357.471 642.794 357.411L642.794 357.4ZM624.215 307.483C627.5 303.813 631.815 301.216 636.597 300.03C641.379 298.844 646.407 299.123 651.028 300.832C655.649 302.541 659.649 305.601 662.507 309.613C665.366 313.625 666.95 318.403 667.055 323.328L667.06 323.859C666.957 330.287 664.338 336.419 659.766 340.94C655.193 345.461 649.03 348.01 642.599 348.042C636.168 348.074 629.981 345.585 625.364 341.11C620.747 336.634 618.068 330.529 617.901 324.102C617.854 319.194 619.291 314.386 622.024 310.309L624.036 307.734L624.192 307.495L624.215 307.483Z" fill="#EAEAEA" fill-opacity="0.1"/>
<path d="M252.575 335.663L359.029 336.678C364.314 336.742 369.358 338.904 373.054 342.691C376.75 346.477 378.796 351.578 378.743 356.875L378.479 384.52C378.449 387.246 377.861 389.938 376.751 392.427C375.64 394.917 374.031 397.151 372.023 398.992L371.892 399.111C369.804 400.945 367.383 402.357 364.761 403.27L364.428 403.408C362.474 404.012 360.439 404.308 358.394 404.286L321.918 403.938C312.863 403.849 304.011 406.633 296.63 411.89C289.248 417.147 283.715 424.608 280.821 433.207C280.594 433.908 280.179 434.533 279.622 435.014C279.065 435.495 278.387 435.813 277.662 435.935C277.555 435.943 277.447 435.942 277.34 435.931L276.948 435.928C276.346 435.92 275.752 435.781 275.208 435.52C274.664 435.26 274.183 434.884 273.799 434.418L236.549 386.86C233.72 383.267 232.203 378.813 232.25 374.238L232.429 355.479C232.452 352.852 232.992 350.256 234.018 347.838C235.043 345.42 236.534 343.229 238.405 341.388C240.276 339.548 242.49 338.095 244.921 337.113C247.353 336.13 249.953 335.638 252.575 335.663ZM370.689 366.178L370.779 356.799C370.812 353.633 369.59 350.584 367.383 348.319C365.175 346.055 362.161 344.76 359.002 344.719L252.498 343.703C249.336 343.681 246.295 344.917 244.04 347.138C241.786 349.36 240.503 352.387 240.473 355.556L240.294 374.335C240.304 377.074 241.226 379.733 242.913 381.888L275.967 424.102C280.231 415.544 286.813 408.361 294.96 403.375C303.107 398.389 312.49 395.802 322.035 395.908C322.447 395.912 322.818 395.915 323.28 395.92C323.458 395.909 323.635 395.911 323.813 395.925L358.511 396.256C359.663 396.259 360.81 396.104 361.92 395.795C363.659 395.209 365.266 394.284 366.646 393.073C367.85 391.98 368.816 390.649 369.482 389.164C370.147 387.679 370.499 386.072 370.515 384.444L370.68 367.164C370.652 367.022 370.636 366.877 370.634 366.731C370.633 366.545 370.652 366.36 370.689 366.178Z" fill="#EAEAEA" fill-opacity="0.1"/>
<path d="M335.591 418.587C344.442 418.656 352.908 422.22 359.143 428.501C365.377 434.783 368.875 443.274 368.874 452.123L368.868 452.756C368.767 459.506 366.628 466.067 362.733 471.581C358.838 477.095 353.368 481.305 347.039 483.659C340.711 486.013 333.818 486.401 327.265 484.773C320.712 483.146 314.803 479.577 310.312 474.536C310.155 474.398 310.077 474.285 310.1 474.285L309.91 474.045L309.809 473.92L309.686 473.783L307.797 471.333C307.642 471.197 307.507 471.039 307.394 470.866C303.983 465.791 302.022 459.882 301.724 453.775C301.427 447.668 302.803 441.596 305.705 436.214C308.608 430.832 312.925 426.344 318.192 423.236C323.459 420.127 329.475 418.516 335.591 418.575L335.591 418.587ZM317.011 468.503C320.297 472.174 324.612 474.771 329.394 475.957C334.176 477.143 339.204 476.863 343.825 475.154C348.446 473.445 352.446 470.386 355.304 466.374C358.162 462.362 359.747 457.583 359.852 452.659L359.857 452.127C359.754 445.699 357.135 439.567 352.563 435.047C347.99 430.526 341.827 427.976 335.396 427.945C328.965 427.913 322.778 430.401 318.161 434.877C313.544 439.352 310.865 445.458 310.698 451.885C310.65 456.792 312.087 461.6 314.821 465.677L316.833 468.253L316.989 468.492L317.011 468.503Z" fill="#EAEAEA" fill-opacity="0.1"/>
<path d="M521.386 529.347L414.932 528.331C409.647 528.267 404.603 526.105 400.907 522.319C397.211 518.532 395.165 513.431 395.218 508.135L395.482 480.489C395.512 477.763 396.1 475.071 397.21 472.582C398.321 470.093 399.93 467.858 401.937 466.018L402.069 465.898C404.157 464.065 406.578 462.652 409.2 461.739L409.533 461.601C411.487 460.998 413.522 460.701 415.567 460.723L452.043 461.071C461.098 461.16 469.949 458.377 477.331 453.12C484.713 447.863 490.246 440.401 493.14 431.802C493.367 431.101 493.782 430.476 494.339 429.996C494.896 429.515 495.574 429.196 496.299 429.075C496.406 429.066 496.514 429.067 496.621 429.078L497.012 429.082C497.615 429.089 498.209 429.228 498.753 429.489C499.297 429.75 499.777 430.126 500.162 430.591L537.412 478.15C540.241 481.742 541.758 486.196 541.711 490.772L541.532 509.53C541.509 512.157 540.969 514.754 539.943 517.171C538.918 519.589 537.427 521.781 535.556 523.621C533.685 525.461 531.471 526.914 529.04 527.897C526.608 528.879 524.008 529.372 521.386 529.347ZM403.272 498.831L403.182 508.211C403.149 511.376 404.371 514.426 406.578 516.69C408.786 518.954 411.8 520.249 414.959 520.29L521.463 521.306C524.625 521.328 527.666 520.093 529.921 517.871C532.175 515.649 533.458 512.622 533.488 509.454L533.667 490.675C533.657 487.935 532.735 485.277 531.047 483.121L497.994 440.907C493.73 449.465 487.148 456.648 479.001 461.634C470.854 466.62 461.471 469.208 451.926 469.101C451.514 469.097 451.143 469.094 450.681 469.089C450.503 469.1 450.325 469.099 450.148 469.084L415.45 468.753C414.298 468.75 413.151 468.905 412.041 469.214C410.302 469.8 408.695 470.725 407.315 471.937C406.111 473.03 405.145 474.36 404.479 475.845C403.813 477.33 403.462 478.938 403.446 480.565L403.281 497.845C403.309 497.988 403.324 498.133 403.327 498.278C403.328 498.464 403.309 498.649 403.272 498.831Z" fill="#EAEAEA" fill-opacity="0.1"/>
<path d="M438.366 446.421C429.515 446.351 421.049 442.788 414.814 436.506C408.58 430.224 405.082 421.733 405.083 412.884L405.089 412.251C405.19 405.501 407.329 398.94 411.224 393.426C415.119 387.912 420.589 383.702 426.918 381.348C433.246 378.994 440.139 378.606 446.692 380.234C453.245 381.862 459.154 385.43 463.645 390.471C463.802 390.609 463.88 390.723 463.857 390.722L464.047 390.962L464.148 391.087L464.271 391.224L466.16 393.674C466.315 393.81 466.45 393.968 466.563 394.141C469.975 399.216 471.935 405.125 472.233 411.232C472.53 417.339 471.154 423.411 468.252 428.793C465.349 434.175 461.032 438.663 455.765 441.771C450.498 444.88 444.482 446.491 438.366 446.432L438.366 446.421ZM456.946 396.504C453.66 392.834 449.345 390.236 444.563 389.05C439.781 387.864 434.753 388.144 430.132 389.853C425.511 391.562 421.511 394.621 418.653 398.633C415.795 402.645 414.21 407.424 414.105 412.348L414.1 412.88C414.203 419.308 416.822 425.44 421.394 429.96C425.967 434.481 432.13 437.031 438.561 437.062C444.992 437.094 451.179 434.606 455.796 430.13C460.413 425.655 463.092 419.549 463.259 413.123C463.307 408.215 461.87 403.407 459.136 399.33L457.124 396.754L456.968 396.515L456.946 396.504Z" fill="#EAEAEA" fill-opacity="0.1"/>
<path d="M246.265 495.721L139.811 494.705C134.526 494.642 129.482 492.479 125.786 488.693C122.09 484.906 120.044 479.805 120.097 474.509L120.361 446.864C120.39 444.137 120.979 441.445 122.089 438.956C123.2 436.467 124.809 434.232 126.816 432.392L126.948 432.272C129.036 430.439 131.457 429.026 134.079 428.113L134.411 427.975C136.366 427.372 138.401 427.075 140.446 427.097L176.922 427.445C185.977 427.534 194.828 424.751 202.21 419.494C209.591 414.237 215.125 406.775 218.019 398.176C218.246 397.475 218.661 396.85 219.218 396.37C219.775 395.889 220.453 395.57 221.178 395.449C221.285 395.44 221.393 395.441 221.5 395.452L221.891 395.456C222.494 395.463 223.088 395.602 223.632 395.863C224.176 396.124 224.656 396.5 225.041 396.965L262.291 444.524C265.12 448.116 266.637 452.57 266.59 457.146L266.411 475.904C266.387 478.531 265.847 481.128 264.822 483.545C263.797 485.963 262.306 488.155 260.435 489.995C258.564 491.835 256.35 493.288 253.919 494.271C251.487 495.253 248.887 495.746 246.265 495.721ZM128.151 465.205L128.061 474.585C128.028 477.75 129.25 480.8 131.457 483.064C133.665 485.328 136.679 486.623 139.838 486.664L246.342 487.68C249.504 487.702 252.545 486.467 254.8 484.245C257.054 482.023 258.337 478.996 258.367 475.828L258.546 457.049C258.536 454.309 257.614 451.651 255.926 449.495L222.873 407.281C218.609 415.839 212.026 423.022 203.88 428.008C195.733 432.994 186.35 435.582 176.805 435.475C176.393 435.471 176.022 435.468 175.56 435.463C175.382 435.474 175.204 435.473 175.027 435.458L140.329 435.127C139.177 435.124 138.03 435.279 136.92 435.588C135.181 436.174 133.574 437.099 132.194 438.311C130.989 439.404 130.024 440.734 129.358 442.219C128.692 443.705 128.341 445.312 128.325 446.939L128.16 464.219C128.188 464.362 128.203 464.507 128.206 464.652C128.207 464.838 128.188 465.023 128.151 465.205Z" fill="#EAEAEA" fill-opacity="0.1"/>
<path d="M163.245 412.795C154.394 412.726 145.928 409.162 139.693 402.88C133.459 396.598 129.961 388.108 129.961 379.259L129.968 378.625C130.069 371.876 132.208 365.314 136.103 359.8C139.998 354.286 145.468 350.076 151.797 347.722C158.125 345.368 165.018 344.98 171.571 346.608C178.124 348.236 184.033 351.804 188.524 356.846C188.681 356.983 188.759 357.097 188.736 357.097L188.926 357.336L189.027 357.461L189.15 357.598L191.039 360.048C191.194 360.185 191.329 360.342 191.442 360.516C194.853 365.59 196.814 371.5 197.112 377.607C197.409 383.714 196.033 389.786 193.13 395.168C190.228 400.55 185.911 405.037 180.644 408.146C175.377 411.254 169.361 412.866 163.245 412.806L163.245 412.795ZM181.825 362.878C178.539 359.208 174.224 356.611 169.442 355.425C164.66 354.238 159.632 354.518 155.011 356.227C150.39 357.936 146.39 360.996 143.532 365.007C140.674 369.019 139.089 373.798 138.984 378.723L138.979 379.254C139.082 385.682 141.701 391.814 146.273 396.335C150.846 400.855 157.009 403.405 163.44 403.437C169.871 403.468 176.058 400.98 180.675 396.505C185.292 392.029 187.971 385.924 188.138 379.497C188.186 374.589 186.749 369.781 184.015 365.704L182.003 363.129L181.847 362.89L181.825 362.878Z" fill="#EAEAEA" fill-opacity="0.1"/>
<path d="M-2.23009 124.191L104.224 125.207C109.509 125.27 114.553 127.433 118.249 131.219C121.945 135.006 123.991 140.107 123.938 145.403L123.674 173.048C123.645 175.775 123.056 178.466 121.946 180.956C120.835 183.445 119.226 185.68 117.219 187.52L117.087 187.64C115 189.473 112.578 190.885 109.956 191.799L109.624 191.937C107.67 192.54 105.634 192.836 103.589 192.815L67.1135 192.467C58.0583 192.378 49.2068 195.161 41.8252 200.418C34.4437 205.675 28.9103 213.137 26.0165 221.736C25.7894 222.436 25.3746 223.061 24.8175 223.542C24.2603 224.023 23.5821 224.342 22.8568 224.463C22.7498 224.472 22.6423 224.471 22.5355 224.46L22.1438 224.456C21.541 224.449 20.9471 224.309 20.4033 224.049C19.8595 223.788 19.3788 223.412 18.9944 222.947L-18.2562 175.388C-21.0846 171.796 -22.6015 167.342 -22.555 162.766L-22.3761 144.007C-22.3523 141.381 -21.8123 138.784 -20.7869 136.366C-19.7615 133.949 -18.2708 131.757 -16.3999 129.917C-14.5291 128.077 -12.3148 126.624 -9.88344 125.641C-7.45212 124.659 -4.85149 124.166 -2.23009 124.191ZM115.885 154.707L115.974 145.327C116.007 142.162 114.786 139.112 112.578 136.848C110.37 134.583 107.356 133.289 104.197 133.248L-2.3068 132.232C-5.46859 132.21 -8.51014 133.445 -10.7644 135.667C-13.0186 137.889 -14.3015 140.916 -14.3317 144.084L-14.5109 162.863C-14.5009 165.603 -13.579 168.261 -11.8912 170.417L21.1618 212.631C25.4266 204.073 32.0087 196.89 40.1556 191.904C48.3024 186.918 57.685 184.33 67.2303 184.437C67.6421 184.44 68.0136 184.444 68.4756 184.448C68.6529 184.437 68.8308 184.439 69.0079 184.453L103.706 184.784C104.858 184.788 106.005 184.633 107.115 184.324C108.855 183.738 110.461 182.813 111.842 181.601C113.046 180.508 114.011 179.177 114.677 177.692C115.343 176.207 115.695 174.6 115.71 172.972L115.875 155.693C115.847 155.55 115.832 155.405 115.829 155.26C115.828 155.074 115.847 154.889 115.885 154.707Z" fill="#EAEAEA" fill-opacity="0.1"/>
<path d="M80.7898 207.117C89.6416 207.186 98.1073 210.75 104.342 217.032C110.576 223.314 114.074 231.804 114.074 240.653L114.068 241.287C113.966 248.036 111.828 254.598 107.933 260.112C104.038 265.626 98.5674 269.836 92.2386 272.19C85.9099 274.543 79.0175 274.932 72.4641 273.304C65.9108 271.676 60.002 268.108 55.5115 263.066C55.3545 262.929 55.2763 262.815 55.299 262.815L55.1089 262.576L55.0083 262.451L54.8851 262.314L52.9964 259.864C52.8413 259.727 52.7058 259.57 52.5935 259.396C49.1817 254.322 47.2213 248.412 46.9236 242.305C46.626 236.198 48.0025 230.126 50.9047 224.744C53.8068 219.362 58.1243 214.875 63.3911 211.766C68.6579 208.658 74.674 207.046 80.79 207.106L80.7898 207.117ZM62.2106 257.034C65.4964 260.704 69.8109 263.301 74.593 264.487C79.3751 265.673 84.4036 265.394 89.0245 263.685C93.6455 261.976 97.6452 258.916 100.503 254.904C103.362 250.892 104.946 246.114 105.051 241.189L105.056 240.658C104.953 234.23 102.334 228.098 97.7618 223.577C93.1891 219.056 87.0265 216.507 80.5954 216.475C74.1644 216.443 67.9769 218.932 63.3598 223.407C58.7428 227.883 56.0638 233.988 55.8973 240.415C55.8496 245.323 57.2866 250.131 60.0199 254.208L62.032 256.783L62.1881 257.022L62.2106 257.034Z" fill="#EAEAEA" fill-opacity="0.1"/>
<path d="M266.582 317.877L160.128 316.862C154.842 316.798 149.798 314.636 146.102 310.849C142.406 307.063 140.36 301.962 140.414 296.665L140.677 269.02C140.707 266.293 141.295 263.602 142.406 261.113C143.516 258.623 145.125 256.389 147.133 254.548L147.265 254.429C149.352 252.595 151.773 251.183 154.395 250.27L154.728 250.132C156.682 249.528 158.718 249.232 160.762 249.253L197.238 249.601C206.293 249.69 215.145 246.907 222.526 241.65C229.908 236.393 235.441 228.932 238.335 220.333C238.562 219.632 238.977 219.007 239.534 218.526C240.091 218.045 240.769 217.727 241.495 217.605C241.602 217.596 241.709 217.597 241.816 217.608L242.208 217.612C242.811 217.62 243.404 217.759 243.948 218.02C244.492 218.28 244.973 218.656 245.357 219.122L282.608 266.68C285.436 270.273 286.953 274.726 286.907 279.302L286.728 298.061C286.704 300.688 286.164 303.284 285.138 305.702C284.113 308.12 282.622 310.311 280.752 312.151C278.881 313.992 276.666 315.445 274.235 316.427C271.804 317.409 269.203 317.902 266.582 317.877ZM148.467 287.362L148.377 296.741C148.345 299.907 149.566 302.956 151.774 305.221C153.981 307.485 156.995 308.78 160.154 308.82L266.658 309.836C269.82 309.859 272.862 308.623 275.116 306.401C277.37 304.179 278.653 301.152 278.683 297.984L278.862 279.205C278.852 276.465 277.931 273.807 276.243 271.652L243.19 229.437C238.925 237.996 232.343 245.178 224.196 250.164C216.049 255.15 206.667 257.738 197.121 257.632C196.71 257.628 196.338 257.624 195.876 257.62C195.699 257.631 195.521 257.629 195.344 257.615L160.646 257.284C159.494 257.281 158.347 257.436 157.236 257.745C155.497 258.33 153.891 259.256 152.51 260.467C151.306 261.56 150.34 262.891 149.675 264.376C149.009 265.861 148.657 267.468 148.641 269.096L148.476 286.375C148.504 286.518 148.52 286.663 148.522 286.809C148.523 286.994 148.505 287.18 148.467 287.362Z" fill="#EAEAEA" fill-opacity="0.1"/>
<path d="M183.566 234.951C174.714 234.882 166.248 231.318 160.014 225.036C153.779 218.754 150.281 210.264 150.282 201.415L150.288 200.781C150.39 194.032 152.528 187.47 156.423 181.956C160.318 176.442 165.788 172.233 172.117 169.879C178.446 167.525 185.338 167.136 191.891 168.764C198.445 170.392 204.354 173.96 208.844 179.002C209.001 179.139 209.079 179.253 209.057 179.253L209.247 179.492L209.347 179.618L209.47 179.754L211.359 182.204C211.514 182.341 211.65 182.498 211.762 182.672C215.174 187.746 217.134 193.656 217.432 199.763C217.729 205.87 216.353 211.942 213.451 217.324C210.549 222.706 206.231 227.193 200.964 230.302C195.698 233.41 189.682 235.022 183.566 234.962L183.566 234.951ZM202.145 185.034C198.859 181.364 194.545 178.767 189.763 177.581C184.98 176.395 179.952 176.674 175.331 178.383C170.71 180.092 166.71 183.152 163.852 187.164C160.994 191.176 159.409 195.955 159.304 200.879L159.299 201.41C159.402 207.838 162.021 213.97 166.594 218.491C171.166 223.012 177.329 225.561 183.76 225.593C190.191 225.625 196.379 223.136 200.996 218.661C205.613 214.185 208.292 208.08 208.458 201.653C208.506 196.745 207.069 191.937 204.336 187.86L202.323 185.285L202.167 185.046L202.145 185.034Z" fill="#EAEAEA" fill-opacity="0.1"/>
<path d="M254.567 126.641L361.021 127.656C366.306 127.72 371.35 129.882 375.046 133.669C378.742 137.455 380.788 142.556 380.735 147.853L380.471 175.498C380.442 178.225 379.853 180.916 378.743 183.406C377.632 185.895 376.023 188.129 374.016 189.97L373.884 190.089C371.796 191.923 369.375 193.335 366.753 194.248L366.421 194.386C364.466 194.99 362.431 195.286 360.386 195.265L323.91 194.917C314.855 194.828 306.004 197.611 298.622 202.868C291.241 208.125 285.707 215.586 282.813 224.185C282.586 224.886 282.172 225.511 281.614 225.992C281.057 226.473 280.379 226.791 279.654 226.913C279.547 226.922 279.439 226.921 279.332 226.91L278.941 226.906C278.338 226.898 277.744 226.759 277.2 226.499C276.656 226.238 276.176 225.862 275.791 225.396L238.541 177.838C235.712 174.246 234.195 169.792 234.242 165.216L234.421 146.457C234.445 143.83 234.985 141.234 236.01 138.816C237.035 136.398 238.526 134.207 240.397 132.367C242.268 130.526 244.482 129.073 246.913 128.091C249.345 127.109 251.945 126.616 254.567 126.641ZM372.681 157.156L372.771 147.777C372.804 144.611 371.582 141.562 369.375 139.297C367.167 137.033 364.153 135.739 360.994 135.698L254.49 134.682C251.328 134.66 248.287 135.895 246.032 138.117C243.778 140.339 242.495 143.366 242.465 146.534L242.286 165.313C242.296 168.053 243.218 170.711 244.906 172.866L277.959 215.081C282.223 206.523 288.806 199.34 296.952 194.354C305.099 189.368 314.482 186.78 324.027 186.886C324.439 186.89 324.811 186.894 325.272 186.898C325.45 186.887 325.628 186.889 325.805 186.903L360.503 187.234C361.655 187.237 362.802 187.082 363.912 186.774C365.651 186.188 367.258 185.262 368.638 184.051C369.843 182.958 370.808 181.627 371.474 180.142C372.14 178.657 372.492 177.05 372.507 175.422L372.672 158.143C372.644 158 372.629 157.855 372.626 157.709C372.625 157.524 372.644 157.338 372.681 157.156Z" fill="#EAEAEA" fill-opacity="0.1"/>
<path d="M337.583 209.567C346.435 209.636 354.9 213.2 361.135 219.482C367.369 225.763 370.867 234.254 370.867 243.103L370.861 243.736C370.759 250.486 368.621 257.047 364.726 262.561C360.83 268.076 355.36 272.285 349.032 274.639C342.703 276.993 335.81 277.382 329.257 275.754C322.704 274.126 316.795 270.557 312.305 265.516C312.147 265.379 312.069 265.265 312.092 265.265L311.902 265.026L311.801 264.9L311.678 264.763L309.789 262.314C309.634 262.177 309.499 262.02 309.386 261.846C305.975 256.771 304.014 250.862 303.717 244.755C303.419 238.648 304.796 232.576 307.698 227.194C310.6 221.812 314.917 217.324 320.184 214.216C325.451 211.107 331.467 209.496 337.583 209.555L337.583 209.567ZM319.004 259.483C322.289 263.154 326.604 265.751 331.386 266.937C336.168 268.123 341.197 267.844 345.818 266.134C350.438 264.425 354.438 261.366 357.296 257.354C360.155 253.342 361.739 248.563 361.844 243.639L361.849 243.107C361.746 236.679 359.127 230.548 354.555 226.027C349.982 221.506 343.819 218.957 337.388 218.925C330.957 218.893 324.77 221.382 320.153 225.857C315.536 230.332 312.857 236.438 312.69 242.865C312.643 247.773 314.08 252.58 316.813 256.658L318.825 259.233L318.981 259.472L319.004 259.483Z" fill="#EAEAEA" fill-opacity="0.1"/>
<path d="M523.379 320.327L416.924 319.311C411.639 319.248 406.595 317.085 402.899 313.299C399.203 309.512 397.157 304.411 397.21 299.115L397.474 271.47C397.504 268.743 398.092 266.052 399.202 263.562C400.313 261.073 401.922 258.839 403.93 256.998L404.061 256.878C406.149 255.045 408.57 253.633 411.192 252.719L411.525 252.582C413.479 251.978 415.515 251.682 417.559 251.703L454.035 252.051C463.09 252.14 471.942 249.357 479.323 244.1C486.705 238.843 492.238 231.381 495.132 222.783C495.359 222.082 495.774 221.457 496.331 220.976C496.888 220.495 497.566 220.176 498.292 220.055C498.399 220.046 498.506 220.047 498.613 220.058L499.005 220.062C499.607 220.07 500.201 220.209 500.745 220.469C501.289 220.73 501.77 221.106 502.154 221.571L539.405 269.13C542.233 272.722 543.75 277.176 543.703 281.752L543.524 300.511C543.501 303.137 542.961 305.734 541.935 308.152C540.91 310.569 539.419 312.761 537.548 314.601C535.678 316.441 533.463 317.894 531.032 318.877C528.601 319.859 526 320.352 523.379 320.327ZM405.264 289.811L405.174 299.191C405.141 302.356 406.363 305.406 408.571 307.67C410.778 309.935 413.792 311.229 416.951 311.27L523.455 312.286C526.617 312.308 529.659 311.073 531.913 308.851C534.167 306.629 535.45 303.602 535.48 300.434L535.659 281.655C535.649 278.915 534.727 276.257 533.04 274.102L499.987 231.887C495.722 240.445 489.14 247.628 480.993 252.614C472.846 257.6 463.463 260.188 453.918 260.082C453.506 260.078 453.135 260.074 452.673 260.07C452.496 260.081 452.318 260.079 452.141 260.065L417.443 259.734C416.291 259.73 415.143 259.885 414.033 260.194C412.294 260.78 410.687 261.705 409.307 262.917C408.103 264.01 407.137 265.341 406.471 266.826C405.806 268.311 405.454 269.918 405.438 271.546L405.273 288.825C405.301 288.968 405.317 289.113 405.319 289.258C405.32 289.444 405.302 289.63 405.264 289.811Z" fill="#EAEAEA" fill-opacity="0.1"/>
<path d="M440.362 237.401C431.511 237.332 423.045 233.768 416.81 227.486C410.576 221.204 407.078 212.713 407.079 203.865L407.085 203.231C407.186 196.482 409.325 189.92 413.22 184.406C417.115 178.892 422.585 174.682 428.914 172.328C435.242 169.974 442.135 169.586 448.688 171.214C455.242 172.842 461.15 176.41 465.641 181.452C465.798 181.589 465.876 181.703 465.853 181.703L466.043 181.942L466.144 182.067L466.267 182.204L468.156 184.654C468.311 184.791 468.447 184.948 468.559 185.121C471.971 190.196 473.931 196.106 474.229 202.213C474.526 208.319 473.15 214.392 470.248 219.774C467.346 225.156 463.028 229.643 457.761 232.752C452.494 235.86 446.478 237.472 440.362 237.412L440.362 237.401ZM458.942 187.484C455.656 183.814 451.341 181.217 446.559 180.031C441.777 178.844 436.749 179.124 432.128 180.833C427.507 182.542 423.507 185.602 420.649 189.613C417.791 193.625 416.206 198.404 416.101 203.328L416.096 203.86C416.199 210.288 418.818 216.42 423.391 220.941C427.963 225.461 434.126 228.011 440.557 228.043C446.988 228.074 453.175 225.586 457.793 221.111C462.41 216.635 465.089 210.53 465.255 204.103C465.303 199.195 463.866 194.387 461.132 190.31L459.12 187.735L458.964 187.496L458.942 187.484Z" fill="#EAEAEA" fill-opacity="0.1"/>
</svg>
