<svg width="272" height="399" viewBox="0 0 272 399" fill="none" xmlns="http://www.w3.org/2000/svg">
<g opacity="0.3">
<path d="M162.86 235.973H266.441C271.584 235.961 276.511 233.955 280.142 230.396C283.773 226.837 285.811 222.016 285.809 216.991V190.761C285.805 188.174 285.258 185.615 284.2 183.243C283.143 180.872 281.598 178.737 279.662 176.973L279.535 176.858C277.521 175.1 275.179 173.738 272.636 172.848L272.314 172.714C270.418 172.124 268.44 171.825 266.451 171.826H230.96C222.149 171.829 213.563 169.108 206.43 164.054C199.297 159 193.983 151.871 191.247 143.687C191.033 143.02 190.635 142.423 190.097 141.962C189.56 141.501 188.903 141.192 188.198 141.071C188.094 141.061 187.99 141.061 187.886 141.071H187.505C186.918 141.073 186.339 141.199 185.808 141.441C185.276 141.684 184.805 142.036 184.427 142.474L147.743 187.257C144.958 190.639 143.441 194.851 143.444 199.192V216.991C143.443 219.483 143.944 221.951 144.919 224.254C145.894 226.557 147.324 228.65 149.127 230.413C150.93 232.176 153.071 233.574 155.428 234.528C157.784 235.482 160.31 235.973 162.86 235.973ZM278.06 208.092V216.991C278.062 219.995 276.846 222.876 274.677 225.005C272.508 227.133 269.564 228.334 266.49 228.344H162.86C159.784 228.337 156.836 227.137 154.664 225.009C152.491 222.88 151.271 219.997 151.271 216.991V199.173C151.306 196.574 152.228 194.061 153.89 192.031L186.44 152.281C190.509 160.438 196.847 167.313 204.727 172.117C212.606 176.921 221.711 179.461 230.999 179.446C231.399 179.446 231.761 179.446 232.21 179.446C232.383 179.458 232.556 179.458 232.728 179.446H266.49C267.611 179.454 268.725 179.611 269.802 179.914C271.489 180.486 273.044 181.378 274.376 182.54C275.537 183.588 276.464 184.859 277.098 186.274C277.732 187.689 278.059 189.217 278.06 190.761V207.156C278.031 207.291 278.015 207.429 278.011 207.567C278.008 207.743 278.025 207.919 278.06 208.092Z" fill="white" fill-opacity="0.1"/>
<path d="M238.343 164.779C247.153 164.794 255.612 161.383 261.876 155.291C268.14 149.198 271.702 140.917 271.785 132.253V131.633C271.748 125.023 269.682 118.578 265.858 113.143C262.034 107.707 256.63 103.534 250.354 101.17C244.078 98.8064 237.223 98.3617 230.686 99.8945C224.148 101.427 218.234 104.866 213.717 109.76C213.56 109.893 213.481 110.004 213.503 110.004L213.312 110.237L213.21 110.358L213.087 110.491L211.184 112.872C211.028 113.005 210.892 113.158 210.778 113.326C207.335 118.263 205.328 124.031 204.973 130.008C204.619 135.985 205.932 141.943 208.769 147.24C211.606 152.537 215.86 156.971 221.072 160.064C226.284 163.157 232.256 164.791 238.343 164.79V164.779ZM220.327 115.73C223.632 112.167 227.95 109.664 232.72 108.547C237.491 107.43 242.492 107.751 247.075 109.468C251.658 111.184 255.609 114.217 258.415 118.172C261.222 122.127 262.753 126.821 262.811 131.644V132.164C262.647 138.457 259.983 144.437 255.39 148.82C250.796 153.204 244.639 155.643 238.238 155.614C231.838 155.585 225.704 153.09 221.151 148.665C216.599 144.24 213.991 138.237 213.886 131.943C213.885 127.137 215.361 122.443 218.12 118.476L220.147 115.973L220.304 115.741L220.327 115.73Z" fill="white" fill-opacity="0.1"/>
<path d="M238.343 164.779C247.153 164.794 255.612 161.383 261.876 155.291C268.14 149.198 271.702 140.917 271.785 132.253V131.633C271.748 125.023 269.682 118.578 265.858 113.143C262.034 107.707 256.63 103.534 250.354 101.17C244.078 98.8064 237.223 98.3617 230.686 99.8945C224.148 101.427 218.234 104.866 213.717 109.76C213.56 109.893 213.481 110.004 213.503 110.004L213.312 110.237L213.21 110.358L213.087 110.491L211.184 112.872C211.028 113.005 210.892 113.158 210.778 113.326C207.335 118.263 205.328 124.031 204.973 130.008C204.619 135.985 205.932 141.943 208.769 147.24C211.606 152.537 215.86 156.971 221.072 160.064C226.284 163.157 232.256 164.791 238.343 164.79V164.779ZM220.327 115.73C223.632 112.167 227.95 109.664 232.72 108.547C237.491 107.43 242.492 107.751 247.075 109.468C251.658 111.184 255.609 114.217 258.415 118.172C261.222 122.127 262.753 126.821 262.811 131.644V132.164C262.647 138.457 259.983 144.437 255.39 148.82C250.796 153.204 244.639 155.643 238.238 155.614C231.838 155.585 225.704 153.09 221.151 148.665C216.599 144.24 213.991 138.237 213.886 131.943C213.885 127.137 215.361 122.443 218.12 118.476L220.147 115.973L220.304 115.741L220.327 115.73Z" fill="white" fill-opacity="0.1"/>
<path d="M19.5617 99.0005H123.927C129.109 99.0134 134.074 101.065 137.732 104.705C141.391 108.344 143.444 113.275 143.441 118.414V145.24C143.438 147.886 142.886 150.503 141.821 152.929C140.756 155.355 139.199 157.537 137.248 159.342L137.12 159.459C135.091 161.257 132.731 162.65 130.169 163.56L129.844 163.697C127.934 164.301 125.942 164.607 123.937 164.605H88.177C79.2994 164.603 70.6484 167.385 63.4615 172.554C56.2746 177.723 50.92 185.014 48.1637 193.384C47.9476 194.067 47.5469 194.677 47.0052 195.149C46.4635 195.62 45.8017 195.936 45.0918 196.06C44.987 196.07 44.8816 196.07 44.7768 196.06H44.3928C43.8018 196.058 43.2183 195.929 42.6828 195.681C42.1473 195.433 41.6725 195.073 41.2913 194.625L4.33023 148.824C1.52396 145.365 -0.00473022 141.057 -0.00190735 136.617V118.414C-0.00320435 115.865 0.501877 113.341 1.48445 110.986C2.46704 108.63 3.90788 106.49 5.72466 104.687C7.54143 102.884 9.69853 101.454 12.0727 100.478C14.4469 99.5027 16.9917 99.0005 19.5617 99.0005ZM135.634 127.516V118.414C135.636 115.343 134.411 112.395 132.225 110.218C130.04 108.042 127.073 106.813 123.976 106.803H19.5617C16.462 106.811 13.4919 108.038 11.3029 110.214C9.11386 112.391 7.88457 115.34 7.88458 118.414V136.637C7.91995 139.295 8.84853 141.866 10.5232 143.941L43.3196 184.595C47.4202 176.252 53.8055 169.222 61.7451 164.309C69.6847 159.395 78.8582 156.798 88.2164 156.812C88.62 156.812 88.9843 156.812 89.4372 156.812C89.611 156.8 89.7853 156.8 89.9591 156.812H123.976C125.106 156.805 126.229 156.644 127.314 156.334C129.014 155.749 130.58 154.837 131.922 153.648C133.092 152.577 134.026 151.277 134.665 149.83C135.304 148.383 135.634 146.82 135.634 145.24V128.473C135.605 128.335 135.588 128.194 135.584 128.053C135.582 127.873 135.598 127.693 135.634 127.516Z" fill="white" fill-opacity="0.1"/>
<path d="M19.5617 99.0005H123.927C129.109 99.0134 134.074 101.065 137.732 104.705C141.391 108.344 143.444 113.275 143.441 118.414V145.24C143.438 147.886 142.886 150.503 141.821 152.929C140.756 155.355 139.199 157.537 137.248 159.342L137.12 159.459C135.091 161.257 132.731 162.65 130.169 163.56L129.844 163.697C127.934 164.301 125.942 164.607 123.937 164.605H88.177C79.2994 164.603 70.6484 167.385 63.4615 172.554C56.2746 177.723 50.92 185.014 48.1637 193.384C47.9476 194.067 47.5469 194.677 47.0052 195.149C46.4635 195.62 45.8017 195.936 45.0918 196.06C44.987 196.07 44.8816 196.07 44.7768 196.06H44.3928C43.8018 196.058 43.2183 195.929 42.6828 195.681C42.1473 195.433 41.6725 195.073 41.2913 194.625L4.33023 148.824C1.52396 145.365 -0.00473022 141.057 -0.00190735 136.617V118.414C-0.00320435 115.865 0.501877 113.341 1.48445 110.986C2.46704 108.63 3.90788 106.49 5.72466 104.687C7.54143 102.884 9.69853 101.454 12.0727 100.478C14.4469 99.5027 16.9917 99.0005 19.5617 99.0005ZM135.634 127.516V118.414C135.636 115.343 134.411 112.395 132.225 110.218C130.04 108.042 127.073 106.813 123.976 106.803H19.5617C16.462 106.811 13.4919 108.038 11.3029 110.214C9.11386 112.391 7.88457 115.34 7.88458 118.414V136.637C7.91995 139.295 8.84853 141.866 10.5232 143.941L43.3196 184.595C47.4202 176.252 53.8055 169.222 61.7451 164.309C69.6847 159.395 78.8582 156.798 88.2164 156.812C88.62 156.812 88.9843 156.812 89.4372 156.812C89.611 156.8 89.7853 156.8 89.9591 156.812H123.976C125.106 156.805 126.229 156.644 127.314 156.334C129.014 155.749 130.58 154.837 131.922 153.648C133.092 152.577 134.026 151.277 134.665 149.83C135.304 148.383 135.634 146.82 135.634 145.24V128.473C135.605 128.335 135.588 128.194 135.584 128.053C135.582 127.873 135.598 127.693 135.634 127.516Z" fill="white" fill-opacity="0.1"/>
<path d="M94.9015 172.351C103.711 172.337 112.17 175.635 118.434 181.528C124.699 187.421 128.261 195.43 128.344 203.811V204.411C128.307 210.804 126.241 217.037 122.417 222.294C118.593 227.552 113.189 231.588 106.913 233.874C100.637 236.161 93.7815 236.591 87.2441 235.108C80.7068 233.626 74.7925 230.3 70.2758 225.566C70.1182 225.437 70.0393 225.33 70.0619 225.33L69.8704 225.105L69.7691 224.987L69.6452 224.859L67.7423 222.556C67.5867 222.428 67.4503 222.28 67.3369 222.117C63.8934 217.342 61.8862 211.763 61.5321 205.982C61.1779 200.201 62.4902 194.438 65.3272 189.315C68.1643 184.192 72.4185 179.903 77.6305 176.911C82.8424 173.92 88.8143 172.339 94.9015 172.341V172.351ZM76.8854 219.792C80.1903 223.238 84.5086 225.659 89.279 226.739C94.0494 227.819 99.0511 227.509 103.634 225.849C108.216 224.189 112.168 221.255 114.974 217.43C117.78 213.604 119.312 209.064 119.37 204.4V203.896C119.206 197.81 116.542 192.026 111.948 187.786C107.355 183.546 101.197 181.188 94.7968 181.216C88.3964 181.244 82.2622 183.656 77.7099 187.936C73.1575 192.216 70.5493 198.023 70.4447 204.111C70.4438 208.759 71.9195 213.299 74.6784 217.136L76.7053 219.557L76.8629 219.782L76.8854 219.792Z" fill="white" fill-opacity="0.1"/>
<path d="M94.9015 172.351C103.711 172.337 112.17 175.635 118.434 181.528C124.699 187.421 128.261 195.43 128.344 203.811V204.411C128.307 210.804 126.241 217.037 122.417 222.294C118.593 227.552 113.189 231.588 106.913 233.874C100.637 236.161 93.7815 236.591 87.2441 235.108C80.7068 233.626 74.7925 230.3 70.2758 225.566C70.1182 225.437 70.0393 225.33 70.0619 225.33L69.8704 225.105L69.7691 224.987L69.6452 224.859L67.7423 222.556C67.5867 222.428 67.4503 222.28 67.3369 222.117C63.8934 217.342 61.8862 211.763 61.5321 205.982C61.1779 200.201 62.4902 194.438 65.3272 189.315C68.1643 184.192 72.4185 179.903 77.6305 176.911C82.8424 173.92 88.8143 172.339 94.9015 172.341V172.351ZM76.8854 219.792C80.1903 223.238 84.5086 225.659 89.279 226.739C94.0494 227.819 99.0511 227.509 103.634 225.849C108.216 224.189 112.168 221.255 114.974 217.43C117.78 213.604 119.312 209.064 119.37 204.4V203.896C119.206 197.81 116.542 192.026 111.948 187.786C107.355 183.546 101.197 181.188 94.7968 181.216C88.3964 181.244 82.2622 183.656 77.7099 187.936C73.1575 192.216 70.5493 198.023 70.4447 204.111C70.4438 208.759 71.9195 213.299 74.6784 217.136L76.7053 219.557L76.8629 219.782L76.8854 219.792Z" fill="white" fill-opacity="0.1"/>
<path d="M266.39 261.073H162.809C157.666 261.086 152.739 263.137 149.108 266.777C145.477 270.417 143.439 275.347 143.441 280.487V307.313C143.445 309.959 143.992 312.576 145.05 315.001C146.107 317.427 147.652 319.61 149.588 321.414L149.715 321.531C151.729 323.33 154.071 324.722 156.614 325.633L156.936 325.77C158.832 326.373 160.81 326.68 162.799 326.678H198.29C207.101 326.675 215.687 329.458 222.82 334.627C229.953 339.796 235.267 347.087 238.003 355.457C238.217 356.139 238.615 356.749 239.153 357.221C239.69 357.693 240.347 358.008 241.052 358.133C241.156 358.142 241.26 358.142 241.364 358.133H241.745C242.332 358.131 242.911 358.001 243.442 357.753C243.974 357.506 244.445 357.145 244.823 356.697L281.507 310.897C284.292 307.437 285.809 303.13 285.806 298.69V280.487C285.807 277.938 285.306 275.414 284.331 273.058C283.356 270.703 281.926 268.563 280.123 266.76C278.32 264.957 276.179 263.527 273.822 262.551C271.466 261.575 268.94 261.073 266.39 261.073ZM151.19 289.588V280.487C151.188 277.415 152.404 274.468 154.573 272.291C156.742 270.114 159.686 268.886 162.76 268.876H266.39C269.466 268.883 272.414 270.11 274.586 272.287C276.759 274.464 277.979 277.412 277.979 280.487V298.709C277.944 301.368 277.022 303.938 275.36 306.014L242.81 346.668C238.741 338.325 232.403 331.294 224.523 326.381C216.644 321.468 207.539 318.87 198.251 318.885C197.851 318.885 197.489 318.885 197.04 318.885C196.867 318.873 196.694 318.873 196.522 318.885H162.76C161.639 318.877 160.525 318.716 159.448 318.406C157.761 317.822 156.206 316.909 154.874 315.721C153.713 314.649 152.786 313.349 152.152 311.902C151.518 310.455 151.191 308.893 151.19 307.313V290.545C151.219 290.407 151.235 290.267 151.239 290.125C151.242 289.945 151.225 289.765 151.19 289.588Z" fill="white" fill-opacity="0.1"/>
<path d="M266.39 261.073H162.809C157.666 261.086 152.739 263.137 149.108 266.777C145.477 270.417 143.439 275.347 143.441 280.487V307.313C143.445 309.959 143.992 312.576 145.05 315.001C146.107 317.427 147.652 319.61 149.588 321.414L149.715 321.531C151.729 323.33 154.071 324.722 156.614 325.633L156.936 325.77C158.832 326.373 160.81 326.68 162.799 326.678H198.29C207.101 326.675 215.687 329.458 222.82 334.627C229.953 339.796 235.267 347.087 238.003 355.457C238.217 356.139 238.615 356.749 239.153 357.221C239.69 357.693 240.347 358.008 241.052 358.133C241.156 358.142 241.26 358.142 241.364 358.133H241.745C242.332 358.131 242.911 358.001 243.442 357.753C243.974 357.506 244.445 357.145 244.823 356.697L281.507 310.897C284.292 307.437 285.809 303.13 285.806 298.69V280.487C285.807 277.938 285.306 275.414 284.331 273.058C283.356 270.703 281.926 268.563 280.123 266.76C278.32 264.957 276.179 263.527 273.822 262.551C271.466 261.575 268.94 261.073 266.39 261.073ZM151.19 289.588V280.487C151.188 277.415 152.404 274.468 154.573 272.291C156.742 270.114 159.686 268.886 162.76 268.876H266.39C269.466 268.883 272.414 270.11 274.586 272.287C276.759 274.464 277.979 277.412 277.979 280.487V298.709C277.944 301.368 277.022 303.938 275.36 306.014L242.81 346.668C238.741 338.325 232.403 331.294 224.523 326.381C216.644 321.468 207.539 318.87 198.251 318.885C197.851 318.885 197.489 318.885 197.04 318.885C196.867 318.873 196.694 318.873 196.522 318.885H162.76C161.639 318.877 160.525 318.716 159.448 318.406C157.761 317.822 156.206 316.909 154.874 315.721C153.713 314.649 152.786 313.349 152.152 311.902C151.518 310.455 151.191 308.893 151.19 307.313V290.545C151.219 290.407 151.235 290.267 151.239 290.125C151.242 289.945 151.225 289.765 151.19 289.588Z" fill="white" fill-opacity="0.1"/>
<path d="M191.985 334.422C183.175 334.407 174.717 337.706 168.452 343.599C162.188 349.491 158.626 357.501 158.543 365.881V366.481C158.58 372.874 160.646 379.107 164.47 384.365C168.294 389.622 173.698 393.658 179.974 395.944C186.25 398.231 193.105 398.661 199.643 397.179C206.18 395.696 212.094 392.37 216.611 387.636C216.769 387.507 216.847 387.4 216.825 387.4L217.016 387.175L217.118 387.058L217.242 386.929L219.144 384.626C219.3 384.498 219.436 384.35 219.55 384.187C222.993 379.412 225 373.833 225.355 368.052C225.709 362.271 224.397 356.508 221.559 351.385C218.722 346.262 214.468 341.973 209.256 338.982C204.044 335.99 198.072 334.41 191.985 334.411V334.422ZM210.001 381.863C206.696 385.309 202.378 387.729 197.608 388.81C192.837 389.89 187.836 389.579 183.253 387.919C178.671 386.259 174.719 383.325 171.913 379.5C169.106 375.675 167.575 371.135 167.517 366.47V365.967C167.681 359.88 170.345 354.097 174.939 349.857C179.532 345.617 185.689 343.258 192.09 343.286C198.49 343.314 204.624 345.727 209.177 350.007C213.729 354.287 216.337 360.093 216.442 366.181C216.443 370.829 214.967 375.37 212.208 379.206L210.181 381.627L210.024 381.852L210.001 381.863Z" fill="white" fill-opacity="0.1"/>
<path d="M191.985 334.422C183.175 334.407 174.717 337.706 168.452 343.599C162.188 349.491 158.626 357.501 158.543 365.881V366.481C158.58 372.874 160.646 379.107 164.47 384.365C168.294 389.622 173.698 393.658 179.974 395.944C186.25 398.231 193.105 398.661 199.643 397.179C206.18 395.696 212.094 392.37 216.611 387.636C216.769 387.507 216.847 387.4 216.825 387.4L217.016 387.175L217.118 387.058L217.242 386.929L219.144 384.626C219.3 384.498 219.436 384.35 219.55 384.187C222.993 379.412 225 373.833 225.355 368.052C225.709 362.271 224.397 356.508 221.559 351.385C218.722 346.262 214.468 341.973 209.256 338.982C204.044 335.99 198.072 334.41 191.985 334.411V334.422ZM210.001 381.863C206.696 385.309 202.378 387.729 197.608 388.81C192.837 389.89 187.836 389.579 183.253 387.919C178.671 386.259 174.719 383.325 171.913 379.5C169.106 375.675 167.575 371.135 167.517 366.47V365.967C167.681 359.88 170.345 354.097 174.939 349.857C179.532 345.617 185.689 343.258 192.09 343.286C198.49 343.314 204.624 345.727 209.177 350.007C213.729 354.287 216.337 360.093 216.442 366.181C216.443 370.829 214.967 375.37 212.208 379.206L210.181 381.627L210.024 381.852L210.001 381.863Z" fill="white" fill-opacity="0.1"/>
</g>
<g opacity="0.3">
<path d="M243.948 83.9727H140.368C135.225 83.9597 130.297 81.9083 126.666 78.2686C123.035 74.6289 120.997 69.6983 121 64.5588V37.7328C121.003 35.087 121.551 32.4701 122.608 30.0443C123.665 27.6186 125.21 25.4359 127.146 23.6314L127.273 23.5142C129.287 21.7158 131.63 20.3232 134.172 19.4127L134.495 19.276C136.39 18.6723 138.368 18.3659 140.358 18.3678H175.849C184.66 18.3703 193.246 15.588 200.379 10.419C207.511 5.24987 212.826 -2.04118 215.561 -10.4113C215.776 -11.0934 216.174 -11.7036 216.711 -12.1754C217.249 -12.6473 217.906 -12.9626 218.61 -13.087C218.714 -13.0967 218.819 -13.0967 218.923 -13.087H219.304C219.89 -13.085 220.47 -12.9556 221.001 -12.7077C221.533 -12.4599 222.004 -12.0994 222.382 -11.6515L259.065 34.1489C261.85 37.6083 263.368 41.9157 263.365 46.3558V64.5588C263.366 67.1078 262.865 69.6321 261.89 71.9874C260.914 74.3427 259.484 76.483 257.681 78.2859C255.878 80.0887 253.737 81.5189 251.381 82.4947C249.025 83.4704 246.499 83.9727 243.948 83.9727ZM128.749 55.4573V64.5588C128.746 67.6306 129.963 70.5781 132.132 72.7548C134.301 74.9315 137.245 76.1597 140.319 76.17H243.948C247.025 76.1622 249.972 74.9355 252.145 72.7588C254.318 70.5821 255.538 67.6332 255.538 64.5588V46.3363C255.503 43.678 254.581 41.1074 252.919 39.0317L220.369 -1.62228C216.299 6.72106 209.962 13.7513 202.082 18.6645C194.202 23.5777 185.098 26.1755 175.81 26.1607C175.409 26.1607 175.048 26.1607 174.598 26.1607C174.426 26.173 174.253 26.173 174.08 26.1607H140.319C139.198 26.1683 138.083 26.3293 137.006 26.6392C135.319 27.2237 133.765 28.1364 132.433 29.3247C131.272 30.3963 130.345 31.6965 129.711 33.1436C129.077 34.5906 128.749 36.1531 128.749 37.7328V54.5003C128.778 54.6385 128.794 54.7791 128.798 54.9202C128.8 55.1004 128.784 55.2805 128.749 55.4573Z" fill="white" fill-opacity="0.1"/>
<path d="M243.948 83.9727H140.368C135.225 83.9597 130.297 81.9083 126.666 78.2686C123.035 74.6289 120.997 69.6983 121 64.5588V37.7328C121.003 35.087 121.551 32.4701 122.608 30.0443C123.665 27.6186 125.21 25.4359 127.146 23.6314L127.273 23.5142C129.287 21.7158 131.63 20.3232 134.172 19.4127L134.495 19.276C136.39 18.6723 138.368 18.3659 140.358 18.3678H175.849C184.66 18.3703 193.246 15.588 200.379 10.419C207.511 5.24987 212.826 -2.04118 215.561 -10.4113C215.776 -11.0934 216.174 -11.7036 216.711 -12.1754C217.249 -12.6473 217.906 -12.9626 218.61 -13.087C218.714 -13.0967 218.819 -13.0967 218.923 -13.087H219.304C219.89 -13.085 220.47 -12.9556 221.001 -12.7077C221.533 -12.4599 222.004 -12.0994 222.382 -11.6515L259.065 34.1489C261.85 37.6083 263.368 41.9157 263.365 46.3558V64.5588C263.366 67.1078 262.865 69.6321 261.89 71.9874C260.914 74.3427 259.484 76.483 257.681 78.2859C255.878 80.0887 253.737 81.5189 251.381 82.4947C249.025 83.4704 246.499 83.9727 243.948 83.9727ZM128.749 55.4573V64.5588C128.746 67.6306 129.963 70.5781 132.132 72.7548C134.301 74.9315 137.245 76.1597 140.319 76.17H243.948C247.025 76.1622 249.972 74.9355 252.145 72.7588C254.318 70.5821 255.538 67.6332 255.538 64.5588V46.3363C255.503 43.678 254.581 41.1074 252.919 39.0317L220.369 -1.62228C216.299 6.72106 209.962 13.7513 202.082 18.6645C194.202 23.5777 185.098 26.1755 175.81 26.1607C175.409 26.1607 175.048 26.1607 174.598 26.1607C174.426 26.173 174.253 26.173 174.08 26.1607H140.319C139.198 26.1683 138.083 26.3293 137.006 26.6392C135.319 27.2237 133.765 28.1364 132.433 29.3247C131.272 30.3963 130.345 31.6965 129.711 33.1436C129.077 34.5906 128.749 36.1531 128.749 37.7328V54.5003C128.778 54.6385 128.794 54.7791 128.798 54.9202C128.8 55.1004 128.784 55.2805 128.749 55.4573Z" fill="white" fill-opacity="0.1"/>
</g>
<g opacity="0.3">
<path d="M56.4423 32.6216C47.6324 32.6361 39.1735 29.3375 32.9093 23.4446C26.645 17.5518 23.0832 9.54244 23 1.16212V0.562283C23.0371 -5.83071 25.1029 -12.064 28.9269 -17.3213C32.7508 -22.5786 38.1547 -26.6147 44.4307 -28.9012C50.7067 -31.1876 57.5623 -31.6178 64.0996 -30.1353C70.6369 -28.6528 76.5512 -25.3268 81.0679 -20.5928C81.2256 -20.4643 81.3044 -20.3572 81.2819 -20.3572L81.4733 -20.1322L81.5747 -20.0144L81.6985 -19.8858L83.6015 -17.5829C83.757 -17.4548 83.8934 -17.307 84.0068 -17.1437C87.4503 -12.3687 89.4575 -6.78975 89.8117 -1.00897C90.1659 4.77182 88.8536 10.5349 86.0165 15.6581C83.1794 20.7813 78.9253 25.0701 73.7133 28.0615C68.5013 31.0529 62.5294 32.6334 56.4423 32.6323V32.6216ZM74.4583 -14.8194C71.1535 -18.2656 66.8351 -20.6861 62.0647 -21.7663C57.2943 -22.8465 52.2927 -22.5362 47.7101 -20.8759C43.1276 -19.2156 39.1761 -16.2821 36.3697 -12.4568C33.5633 -8.63152 32.0318 -4.09147 31.9742 0.572971V1.07641C32.1378 7.16313 34.802 12.9466 39.3956 17.1865C43.9892 21.4265 50.1464 23.7854 56.5469 23.7573C62.9474 23.7293 69.0815 21.3166 73.6339 17.0366C78.1863 12.7566 80.7944 6.9501 80.8991 0.8622C80.9 -3.78618 79.4242 -8.32632 76.6653 -12.1629L74.6385 -14.5837L74.4809 -14.8086L74.4583 -14.8194Z" fill="white" fill-opacity="0.1"/>
<path d="M56.4423 32.6216C47.6324 32.6361 39.1735 29.3375 32.9093 23.4446C26.645 17.5518 23.0832 9.54244 23 1.16212V0.562283C23.0371 -5.83071 25.1029 -12.064 28.9269 -17.3213C32.7508 -22.5786 38.1547 -26.6147 44.4307 -28.9012C50.7067 -31.1876 57.5623 -31.6178 64.0996 -30.1353C70.6369 -28.6528 76.5512 -25.3268 81.0679 -20.5928C81.2256 -20.4643 81.3044 -20.3572 81.2819 -20.3572L81.4733 -20.1322L81.5747 -20.0144L81.6985 -19.8858L83.6015 -17.5829C83.757 -17.4548 83.8934 -17.307 84.0068 -17.1437C87.4503 -12.3687 89.4575 -6.78975 89.8117 -1.00897C90.1659 4.77182 88.8536 10.5349 86.0165 15.6581C83.1794 20.7813 78.9253 25.0701 73.7133 28.0615C68.5013 31.0529 62.5294 32.6334 56.4423 32.6323V32.6216ZM74.4583 -14.8194C71.1535 -18.2656 66.8351 -20.6861 62.0647 -21.7663C57.2943 -22.8465 52.2927 -22.5362 47.7101 -20.8759C43.1276 -19.2156 39.1761 -16.2821 36.3697 -12.4568C33.5633 -8.63152 32.0318 -4.09147 31.9742 0.572971V1.07641C32.1378 7.16313 34.802 12.9466 39.3956 17.1865C43.9892 21.4265 50.1464 23.7854 56.5469 23.7573C62.9474 23.7293 69.0815 21.3166 73.6339 17.0366C78.1863 12.7566 80.7944 6.9501 80.8991 0.8622C80.9 -3.78618 79.4242 -8.32632 76.6653 -12.1629L74.6385 -14.5837L74.4809 -14.8086L74.4583 -14.8194Z" fill="white" fill-opacity="0.1"/>
</g>
</svg>
