<svg width="356" height="723" viewBox="0 0 356 723" fill="none" xmlns="http://www.w3.org/2000/svg">
<g opacity="0.5">
<path d="M-35.7579 108.803C-35.8061 117.729 -32.3834 126.312 -26.2357 132.681C-20.088 139.051 -11.7137 142.691 -2.9379 142.808L-2.30973 142.81C4.38536 142.797 10.9209 140.728 16.4408 136.874C21.9607 133.02 26.2078 127.561 28.6258 121.211C31.0438 114.861 31.5199 107.917 29.9919 101.288C28.4639 94.6589 25.003 88.6539 20.0624 84.0593C19.9283 83.8991 19.8165 83.8188 19.8164 83.8417L19.5815 83.6468L19.4585 83.5437L19.3244 83.4177L16.9198 81.4808C16.7862 81.3227 16.632 81.1839 16.4614 81.0684C11.4738 77.561 5.63882 75.5058 -0.413689 75.1245C-6.46619 74.7433 -12.5064 76.0505 -17.8822 78.9051C-23.258 81.7596 -27.7653 86.0532 -30.9176 91.3222C-34.0699 96.5913 -35.7474 102.636 -35.7691 108.803L-35.7579 108.803ZM13.9914 90.7336C17.588 94.0953 20.1067 98.48 21.22 103.317C22.3333 108.155 21.9896 113.221 20.2337 117.858C18.4778 122.494 15.3909 126.486 11.3744 129.315C7.35794 132.143 2.5977 133.677 -2.28726 133.718L-2.81448 133.716C-9.18809 133.526 -15.2347 130.805 -19.6577 126.134C-24.0807 121.463 -26.5279 115.216 -26.4745 108.731C-26.4212 102.247 -23.8715 96.0412 -19.3723 91.4454C-14.873 86.8497 -8.7825 84.2297 -2.40666 84.1473C2.46127 84.1644 7.21033 85.6771 11.2178 88.4873L13.7453 90.5502L13.9803 90.7107L13.9914 90.7336Z" fill="#EAEAEA" fill-opacity="0.2"/>
<path d="M30.2188 283.98L30.6137 177.315C30.6463 172.019 32.7306 166.952 36.4093 163.227C40.0879 159.501 45.0603 157.421 50.2352 157.443L77.2461 157.543C79.9102 157.556 82.5431 158.13 84.9815 159.228C87.4199 160.326 89.6118 161.924 91.4214 163.925L91.5389 164.056C93.342 166.137 94.7353 168.554 95.6424 171.176L95.7788 171.508C96.3795 173.463 96.6804 175.501 96.6709 177.549L96.5356 214.097C96.4995 223.171 99.2682 232.023 104.446 239.387C109.623 246.752 116.944 252.251 125.362 255.1C126.048 255.323 126.661 255.735 127.134 256.29C127.607 256.846 127.922 257.523 128.044 258.249C128.054 258.356 128.053 258.464 128.043 258.571L128.042 258.964C128.037 259.568 127.905 260.164 127.653 260.71C127.402 261.256 127.037 261.74 126.584 262.128L80.3285 299.733C76.8347 302.588 72.4917 304.134 68.021 304.115L49.6925 304.047C47.126 304.039 44.5862 303.513 42.2183 302.5C39.8505 301.487 37.7009 300.007 35.8925 298.143C34.084 296.28 32.6522 294.07 31.6787 291.64C30.7051 289.209 30.2091 286.607 30.2188 283.98ZM59.3699 165.457L50.2057 165.423C47.1127 165.409 44.1403 166.65 41.9403 168.876C39.7403 171.101 38.4924 174.129 38.4703 177.294L38.0753 284.009C38.0714 287.177 39.2953 290.217 41.4787 292.463C43.6622 294.708 46.6268 295.975 49.7224 295.987L68.0705 296.055C70.7473 296.029 73.3391 295.089 75.4355 293.385L116.494 260.018C108.108 255.796 101.054 249.243 96.1368 241.111C91.2198 232.978 88.6389 223.592 88.6891 214.028C88.6907 213.615 88.692 213.243 88.6938 212.78C88.682 212.603 88.6827 212.424 88.6957 212.247L88.8244 177.48C88.8211 176.326 88.6632 175.177 88.3553 174.067C87.7732 172.328 86.8601 170.724 85.6686 169.348C84.5941 168.148 83.2885 167.188 81.8339 166.53C80.3792 165.872 78.8072 165.529 77.2166 165.523L60.3336 165.46C60.1942 165.489 60.0527 165.505 59.9106 165.509C59.7291 165.511 59.5479 165.493 59.3699 165.457Z" fill="#EAEAEA" fill-opacity="0.2"/>
<path d="M103.821 206.518C103.84 197.446 107.384 188.748 113.682 182.321C119.98 175.893 128.521 172.257 137.443 172.204L138.082 172.207C144.888 172.27 151.517 174.422 157.1 178.38C162.683 182.339 166.959 187.92 169.37 194.392C171.78 200.864 172.212 207.925 170.609 214.651C169.005 221.377 165.442 227.455 160.384 232.087C160.247 232.249 160.132 232.33 160.133 232.306L159.892 232.503L159.766 232.607L159.629 232.734L157.17 234.684C157.033 234.844 156.875 234.984 156.701 235.1C151.604 238.627 145.656 240.672 139.5 241.014C133.344 241.356 127.213 239.982 121.77 237.04C116.326 234.098 111.776 229.701 108.611 224.322C105.446 218.943 103.786 212.787 103.81 206.518L103.821 206.518ZM154.263 225.258C157.944 221.868 160.538 217.431 161.706 212.523C162.874 207.614 162.563 202.463 160.813 197.737C159.063 193.011 155.954 188.931 151.892 186.026C147.83 183.121 143.002 181.526 138.036 181.448L137.5 181.446C131.019 181.59 124.852 184.311 120.32 189.025C115.788 193.739 113.253 200.07 113.259 206.661C113.264 213.252 115.81 219.579 120.349 224.283C124.889 228.988 131.061 231.697 137.542 231.829C142.491 231.848 147.331 230.346 151.426 227.52L154.011 225.443L154.251 225.281L154.263 225.258Z" fill="#EAEAEA" fill-opacity="0.2"/>
<path d="M103.821 206.518C103.84 197.446 107.384 188.748 113.682 182.321C119.98 175.893 128.521 172.257 137.443 172.204L138.082 172.207C144.888 172.27 151.517 174.422 157.1 178.38C162.683 182.339 166.959 187.92 169.37 194.392C171.78 200.864 172.212 207.925 170.609 214.651C169.005 221.377 165.442 227.455 160.384 232.087C160.247 232.249 160.132 232.33 160.133 232.306L159.892 232.503L159.766 232.607L159.629 232.734L157.17 234.684C157.033 234.844 156.875 234.984 156.701 235.1C151.604 238.627 145.656 240.672 139.5 241.014C133.344 241.356 127.213 239.982 121.77 237.04C116.326 234.098 111.776 229.701 108.611 224.322C105.446 218.943 103.786 212.787 103.81 206.518L103.821 206.518ZM154.263 225.258C157.944 221.868 160.538 217.431 161.706 212.523C162.874 207.614 162.563 202.463 160.813 197.737C159.063 193.011 155.954 188.931 151.892 186.026C147.83 183.121 143.002 181.526 138.036 181.448L137.5 181.446C131.019 181.59 124.852 184.311 120.32 189.025C115.788 193.739 113.253 200.07 113.259 206.661C113.264 213.252 115.81 219.579 120.349 224.283C124.889 228.988 131.061 231.697 137.542 231.829C142.491 231.848 147.331 230.346 151.426 227.52L154.011 225.443L154.251 225.281L154.263 225.258Z" fill="#EAEAEA" fill-opacity="0.2"/>
<path d="M118.637 701.913L119.032 595.248C119.064 589.952 121.172 584.885 124.892 581.16C128.613 577.435 133.642 575.355 138.875 575.377L166.193 575.478C168.888 575.491 171.55 576.065 174.017 577.163C176.483 578.261 178.7 579.86 180.53 581.86L180.649 581.992C182.472 584.072 183.882 586.49 184.799 589.111L184.937 589.444C185.545 591.398 185.849 593.436 185.84 595.485L185.704 632.033C185.668 641.106 188.469 649.958 193.705 657.323C198.942 664.688 206.346 670.188 214.86 673.037C215.553 673.26 216.173 673.672 216.652 674.227C217.13 674.783 217.449 675.46 217.573 676.186C217.582 676.293 217.582 676.401 217.572 676.508L217.57 676.901C217.566 677.505 217.432 678.1 217.177 678.647C216.923 679.193 216.554 679.677 216.097 680.065L169.317 717.668C165.783 720.523 161.391 722.069 156.869 722.05L138.333 721.981C135.737 721.973 133.168 721.447 130.773 720.434C128.379 719.421 126.205 717.94 124.376 716.076C122.546 714.213 121.098 712.003 120.114 709.573C119.129 707.142 118.627 704.54 118.637 701.913ZM148.114 583.391L138.846 583.356C135.718 583.342 132.711 584.584 130.487 586.809C128.262 589.034 127 592.062 126.978 595.227L126.583 701.942C126.579 705.11 127.817 708.151 130.025 710.396C132.233 712.642 135.232 713.909 138.362 713.921L156.919 713.989C159.626 713.963 162.248 713.024 164.368 711.32L205.891 677.954C197.41 673.732 190.275 667.179 185.302 659.046C180.329 650.913 177.718 641.528 177.769 631.963C177.77 631.551 177.771 631.178 177.773 630.716C177.761 630.538 177.762 630.36 177.775 630.182L177.904 595.415C177.9 594.261 177.741 593.113 177.429 592.002C176.84 590.263 175.917 588.659 174.712 587.283C173.625 586.083 172.305 585.123 170.833 584.465C169.362 583.807 167.772 583.464 166.164 583.458L149.089 583.394C148.948 583.423 148.805 583.44 148.661 583.443C148.477 583.445 148.294 583.427 148.114 583.391Z" fill="#EAEAEA" fill-opacity="0.2"/>
<path d="M118.637 701.913L119.032 595.248C119.064 589.952 121.172 584.885 124.892 581.16C128.613 577.435 133.642 575.355 138.875 575.377L166.193 575.478C168.888 575.491 171.55 576.065 174.017 577.163C176.483 578.261 178.7 579.86 180.53 581.86L180.649 581.992C182.472 584.072 183.882 586.49 184.799 589.111L184.937 589.444C185.545 591.398 185.849 593.436 185.84 595.485L185.704 632.033C185.668 641.106 188.469 649.958 193.705 657.323C198.942 664.688 206.346 670.188 214.86 673.037C215.553 673.26 216.173 673.672 216.652 674.227C217.13 674.783 217.449 675.46 217.573 676.186C217.582 676.293 217.582 676.401 217.572 676.508L217.57 676.901C217.566 677.505 217.432 678.1 217.177 678.647C216.923 679.193 216.554 679.677 216.097 680.065L169.317 717.668C165.783 720.523 161.391 722.069 156.869 722.05L138.333 721.981C135.737 721.973 133.168 721.447 130.773 720.434C128.379 719.421 126.205 717.94 124.376 716.076C122.546 714.213 121.098 712.003 120.114 709.573C119.129 707.142 118.627 704.54 118.637 701.913ZM148.114 583.391L138.846 583.356C135.718 583.342 132.711 584.584 130.487 586.809C128.262 589.034 127 592.062 126.978 595.227L126.583 701.942C126.579 705.11 127.817 708.151 130.025 710.396C132.233 712.642 135.232 713.909 138.362 713.921L156.919 713.989C159.626 713.963 162.248 713.024 164.368 711.32L205.891 677.954C197.41 673.732 190.275 667.179 185.302 659.046C180.329 650.913 177.718 641.528 177.769 631.963C177.77 631.551 177.771 631.178 177.773 630.716C177.761 630.538 177.762 630.36 177.775 630.182L177.904 595.415C177.9 594.261 177.741 593.113 177.429 592.002C176.84 590.263 175.917 588.659 174.712 587.283C173.625 586.083 172.305 585.123 170.833 584.465C169.362 583.807 167.772 583.464 166.164 583.458L149.089 583.394C148.948 583.423 148.805 583.44 148.661 583.443C148.477 583.445 148.294 583.427 148.114 583.391Z" fill="#EAEAEA" fill-opacity="0.2"/>
<path d="M193.348 624.456C193.367 615.383 196.796 606.685 202.888 600.257C208.981 593.828 217.242 590.191 225.872 590.137L226.49 590.14C233.073 590.202 239.484 592.353 244.883 596.311C250.283 600.269 254.418 605.849 256.749 612.321C259.08 618.792 259.497 625.854 257.945 632.58C256.393 639.306 252.946 645.384 248.054 650.017C247.921 650.179 247.81 650.26 247.81 650.237L247.578 650.433L247.456 650.537L247.323 650.664L244.944 652.615C244.812 652.775 244.659 652.914 244.491 653.031C239.56 656.558 233.808 658.604 227.853 658.947C221.899 659.29 215.969 657.916 210.704 654.975C205.439 652.034 201.039 647.637 197.978 642.258C194.918 636.88 193.313 630.724 193.337 624.455L193.348 624.456ZM242.133 643.189C245.695 639.799 248.204 635.361 249.334 630.453C250.465 625.544 250.165 620.393 248.472 615.667C246.78 610.942 243.774 606.862 239.846 603.957C235.917 601.053 231.248 599.458 226.445 599.381L225.926 599.379C219.658 599.524 213.692 602.246 209.308 606.96C204.924 611.674 202.472 618.006 202.476 624.597C202.481 631.188 204.942 637.514 209.332 642.218C213.722 646.923 219.692 649.631 225.96 649.762C230.747 649.78 235.428 648.278 239.389 645.451L241.89 643.374L242.122 643.212L242.133 643.189Z" fill="#EAEAEA" fill-opacity="0.2"/>
<path d="M170.723 432.066L171.121 324.592C171.127 319.256 169.034 314.136 165.3 310.354C161.566 306.573 156.496 304.44 151.203 304.423L123.579 304.321C120.854 304.314 118.157 304.872 115.655 305.96C113.153 307.048 110.899 308.642 109.034 310.644L108.912 310.776C107.053 312.858 105.61 315.284 104.662 317.918L104.52 318.252C103.891 320.217 103.568 322.268 103.562 324.332L103.426 361.157C103.395 370.299 100.497 379.197 95.1464 386.578C89.796 393.959 82.2674 399.446 73.6376 402.252C72.9343 402.472 72.3043 402.882 71.8164 403.438C71.3285 403.994 71.0013 404.675 70.8704 405.405C70.8601 405.513 70.8597 405.622 70.8692 405.73L70.8678 406.125C70.8675 406.734 70.9986 407.335 71.2518 407.888C71.505 408.44 71.8743 408.93 72.3342 409.324L119.358 447.561C122.909 450.464 127.339 452.054 131.911 452.068L150.657 452.138C153.281 452.149 155.883 451.638 158.312 450.636C160.741 449.633 162.951 448.157 164.814 446.293C166.678 444.429 168.159 442.213 169.173 439.772C170.186 437.331 170.713 434.712 170.723 432.066ZM141.801 312.428L151.174 312.463C154.337 312.472 157.367 313.746 159.601 316.004C161.834 318.263 163.087 321.323 163.086 324.512L162.688 432.036C162.668 435.228 161.394 438.282 159.144 440.528C156.894 442.774 153.853 444.028 150.687 444.016L131.921 443.947C129.184 443.9 126.54 442.934 124.409 441.202L82.6698 407.274C91.2772 403.083 98.5412 396.534 103.631 388.377C108.721 380.22 111.431 370.783 111.451 361.146C111.453 360.73 111.454 360.355 111.456 359.889C111.469 359.71 111.47 359.53 111.458 359.352L111.588 324.321C111.6 323.158 111.77 322.003 112.093 320.886C112.701 319.138 113.647 317.529 114.876 316.151C115.984 314.95 117.327 313.993 118.819 313.341C120.312 312.689 121.922 312.355 123.549 312.361L140.816 312.425C140.958 312.455 141.102 312.472 141.248 312.477C141.433 312.48 141.619 312.464 141.801 312.428Z" fill="#EAEAEA" fill-opacity="0.2"/>
<path d="M170.723 432.066L171.121 324.592C171.127 319.256 169.034 314.136 165.3 310.354C161.566 306.573 156.496 304.44 151.203 304.423L123.579 304.321C120.854 304.314 118.157 304.872 115.655 305.96C113.153 307.048 110.899 308.642 109.034 310.644L108.912 310.776C107.053 312.858 105.61 315.284 104.662 317.918L104.52 318.252C103.891 320.217 103.568 322.268 103.562 324.332L103.426 361.157C103.395 370.299 100.497 379.197 95.1464 386.578C89.796 393.959 82.2674 399.446 73.6376 402.252C72.9343 402.472 72.3043 402.882 71.8164 403.438C71.3285 403.994 71.0013 404.675 70.8704 405.405C70.8601 405.513 70.8597 405.622 70.8692 405.73L70.8678 406.125C70.8675 406.734 70.9986 407.335 71.2518 407.888C71.505 408.44 71.8743 408.93 72.3342 409.324L119.358 447.561C122.909 450.464 127.339 452.054 131.911 452.068L150.657 452.138C153.281 452.149 155.883 451.638 158.312 450.636C160.741 449.633 162.951 448.157 164.814 446.293C166.678 444.429 168.159 442.213 169.173 439.772C170.186 437.331 170.713 434.712 170.723 432.066ZM141.801 312.428L151.174 312.463C154.337 312.472 157.367 313.746 159.601 316.004C161.834 318.263 163.087 321.323 163.086 324.512L162.688 432.036C162.668 435.228 161.394 438.282 159.144 440.528C156.894 442.774 153.853 444.028 150.687 444.016L131.921 443.947C129.184 443.9 126.54 442.934 124.409 441.202L82.6698 407.274C91.2772 403.083 98.5412 396.534 103.631 388.377C108.721 380.22 111.431 370.783 111.451 361.146C111.453 360.73 111.454 360.355 111.456 359.889C111.469 359.71 111.47 359.53 111.458 359.352L111.588 324.321C111.6 323.158 111.77 322.003 112.093 320.886C112.701 319.138 113.647 317.529 114.876 316.151C115.984 314.95 117.327 313.993 118.819 313.341C120.312 312.689 121.922 312.355 123.549 312.361L140.816 312.425C140.958 312.455 141.102 312.472 141.248 312.477C141.433 312.48 141.619 312.464 141.801 312.428Z" fill="#EAEAEA" fill-opacity="0.2"/>
<path d="M95.4787 354.204C95.5272 345.132 92.1626 336.409 86.1181 329.936C80.0737 323.462 71.8394 319.764 63.2098 319.646L62.5921 319.644C56.0086 319.658 49.5818 321.762 44.1534 325.679C38.725 329.597 34.548 335.147 32.1696 341.601C29.7911 348.055 29.322 355.113 30.8237 361.851C32.3255 368.588 35.728 374.691 40.5857 379.361C40.7175 379.523 40.8275 379.605 40.8276 379.582L41.0585 379.78L41.1794 379.885L41.3113 380.013L43.6756 381.981C43.8069 382.142 43.9586 382.283 44.1263 382.4C49.0304 385.964 54.7678 388.053 60.7194 388.439C66.671 388.826 72.6106 387.497 77.8972 384.595C83.1838 381.693 87.6165 377.328 90.7169 371.972C93.8173 366.617 95.4676 360.473 95.4897 354.204L95.4787 354.204ZM46.5563 372.576C43.02 369.16 40.5439 364.704 39.4497 359.787C38.3556 354.87 38.6941 349.721 40.4213 345.008C42.1485 340.296 45.1845 336.238 49.1344 333.362C53.0843 330.487 57.7654 328.927 62.5689 328.886L63.0874 328.888C69.3547 329.079 75.3002 331.845 79.649 336.591C83.9977 341.338 86.4033 347.687 86.35 354.278C86.2968 360.869 83.7888 367.177 79.364 371.849C74.9392 376.52 68.9499 379.184 62.6803 379.268C57.8935 379.252 53.2237 377.715 49.2834 374.859L46.7983 372.763L46.5672 372.599L46.5563 372.576Z" fill="#EAEAEA" fill-opacity="0.2"/>
<path d="M95.4787 354.204C95.5272 345.132 92.1626 336.409 86.1181 329.936C80.0737 323.462 71.8394 319.764 63.2098 319.646L62.5921 319.644C56.0086 319.658 49.5818 321.762 44.1534 325.679C38.725 329.597 34.548 335.147 32.1696 341.601C29.7911 348.055 29.322 355.113 30.8237 361.851C32.3255 368.588 35.728 374.691 40.5857 379.361C40.7175 379.523 40.8275 379.605 40.8276 379.582L41.0585 379.78L41.1794 379.885L41.3113 380.013L43.6756 381.981C43.8069 382.142 43.9586 382.283 44.1263 382.4C49.0304 385.964 54.7678 388.053 60.7194 388.439C66.671 388.826 72.6106 387.497 77.8972 384.595C83.1838 381.693 87.6165 377.328 90.7169 371.972C93.8173 366.617 95.4676 360.473 95.4897 354.204L95.4787 354.204ZM46.5563 372.576C43.02 369.16 40.5439 364.704 39.4497 359.787C38.3556 354.87 38.6941 349.721 40.4213 345.008C42.1485 340.296 45.1845 336.238 49.1344 333.362C53.0843 330.487 57.7654 328.927 62.5689 328.886L63.0874 328.888C69.3547 329.079 75.3002 331.845 79.649 336.591C83.9977 341.338 86.4033 347.687 86.35 354.278C86.2968 360.869 83.7888 367.177 79.364 371.849C74.9392 376.52 68.9499 379.184 62.6803 379.268C57.8935 379.252 53.2237 377.715 49.2834 374.859L46.7983 372.763L46.5672 372.599L46.5563 372.576Z" fill="#EAEAEA" fill-opacity="0.2"/>
<path d="M15.0663 177.308L14.6715 283.973C14.6386 289.269 12.5073 294.335 8.74537 298.061C4.98345 301.786 -0.10177 303.866 -5.39435 303.843L-33.0191 303.741C-35.7438 303.727 -38.4365 303.154 -40.9304 302.056C-43.4244 300.958 -45.6662 299.359 -47.5171 297.358L-47.6373 297.226C-49.4815 295.146 -50.9067 292.728 -51.8346 290.107L-51.9742 289.774C-52.5886 287.82 -52.8966 285.782 -52.8871 283.733L-52.7518 247.185C-52.7156 238.112 -55.548 229.259 -60.8438 221.894C-66.1396 214.53 -73.6275 209.029 -82.2364 206.18C-82.9381 205.957 -83.565 205.545 -84.0488 204.989C-84.5326 204.434 -84.8548 203.756 -84.9802 203.03C-84.9898 202.923 -84.9894 202.815 -84.9791 202.708L-84.9776 202.316C-84.9733 201.712 -84.8379 201.116 -84.5806 200.57C-84.3233 200.023 -83.9503 199.539 -83.4876 199.152L-36.1835 161.551C-32.6105 158.696 -28.169 157.15 -23.5967 157.17L-4.85165 157.239C-2.22673 157.247 0.370796 157.773 2.79256 158.786C5.21433 159.8 7.41286 161.28 9.26255 163.144C11.1122 165.008 12.5768 167.218 13.5727 169.648C14.5685 172.078 15.0761 174.681 15.0663 177.308ZM-14.7373 295.829L-5.36481 295.863C-2.20151 295.878 0.838379 294.636 3.08815 292.411C5.33793 290.186 6.61392 287.159 6.63629 283.993L7.03132 177.278C7.03506 174.11 5.78302 171.07 3.5498 168.824C1.31658 166.579 -1.71552 165.311 -4.88149 165.299L-23.6466 165.23C-26.3842 165.256 -29.0349 166.195 -31.1788 167.899L-73.1674 201.263C-64.5911 205.486 -57.3757 212.038 -52.3462 220.172C-47.3167 228.305 -44.6763 237.691 -44.727 247.255C-44.7285 247.667 -44.7299 248.04 -44.7316 248.503C-44.7196 248.68 -44.7202 248.858 -44.7335 249.036L-44.8622 283.803C-44.8587 284.957 -44.6972 286.105 -44.3821 287.216C-43.7867 288.955 -42.8527 290.559 -41.6341 291.935C-40.535 293.136 -39.1996 294.095 -37.7119 294.753C-36.2241 295.412 -34.6163 295.755 -32.9896 295.761L-15.7228 295.825C-15.5803 295.796 -15.4356 295.78 -15.2902 295.776C-15.1046 295.774 -14.9193 295.792 -14.7373 295.829Z" fill="#EAEAEA" fill-opacity="0.2"/>
<path d="M15.0663 177.308L14.6715 283.973C14.6386 289.269 12.5073 294.335 8.74537 298.061C4.98345 301.786 -0.10177 303.866 -5.39435 303.843L-33.0191 303.741C-35.7438 303.727 -38.4365 303.154 -40.9304 302.056C-43.4244 300.958 -45.6662 299.359 -47.5171 297.358L-47.6373 297.226C-49.4815 295.146 -50.9067 292.728 -51.8346 290.107L-51.9742 289.774C-52.5886 287.82 -52.8966 285.782 -52.8871 283.733L-52.7518 247.185C-52.7156 238.112 -55.548 229.259 -60.8438 221.894C-66.1396 214.53 -73.6275 209.029 -82.2364 206.18C-82.9381 205.957 -83.565 205.545 -84.0488 204.989C-84.5326 204.434 -84.8548 203.756 -84.9802 203.03C-84.9898 202.923 -84.9894 202.815 -84.9791 202.708L-84.9776 202.316C-84.9733 201.712 -84.8379 201.116 -84.5806 200.57C-84.3233 200.023 -83.9503 199.539 -83.4876 199.152L-36.1835 161.551C-32.6105 158.696 -28.169 157.15 -23.5967 157.17L-4.85165 157.239C-2.22673 157.247 0.370796 157.773 2.79256 158.786C5.21433 159.8 7.41286 161.28 9.26255 163.144C11.1122 165.008 12.5768 167.218 13.5727 169.648C14.5685 172.078 15.0761 174.681 15.0663 177.308ZM-14.7373 295.829L-5.36481 295.863C-2.20151 295.878 0.838379 294.636 3.08815 292.411C5.33793 290.186 6.61392 287.159 6.63629 283.993L7.03132 177.278C7.03506 174.11 5.78302 171.07 3.5498 168.824C1.31658 166.579 -1.71552 165.311 -4.88149 165.299L-23.6466 165.23C-26.3842 165.256 -29.0349 166.195 -31.1788 167.899L-73.1674 201.263C-64.5911 205.486 -57.3757 212.038 -52.3462 220.172C-47.3167 228.305 -44.6763 237.691 -44.727 247.255C-44.7285 247.667 -44.7299 248.04 -44.7316 248.503C-44.7196 248.68 -44.7202 248.858 -44.7335 249.036L-44.8622 283.803C-44.8587 284.957 -44.6972 286.105 -44.3821 287.216C-43.7867 288.955 -42.8527 290.559 -41.6341 291.935C-40.535 293.136 -39.1996 294.095 -37.7119 294.753C-36.2241 295.412 -34.6163 295.755 -32.9896 295.761L-15.7228 295.825C-15.5803 295.796 -15.4356 295.78 -15.2902 295.776C-15.1046 295.774 -14.9193 295.792 -14.7373 295.829Z" fill="#EAEAEA" fill-opacity="0.2"/>
<path d="M-26.8829 408.168L-27.2777 514.833C-27.284 520.129 -25.1903 525.212 -21.4561 528.965C-17.7218 532.718 -12.6522 534.835 -7.35956 534.852L20.2652 534.954C22.9899 534.961 25.6868 534.407 28.1888 533.327C30.6908 532.248 32.9444 530.665 34.81 528.678L34.9312 528.548C36.7908 526.481 38.2339 524.074 39.1811 521.459L39.3232 521.128C39.9521 519.178 40.2751 517.142 40.2807 515.094L40.416 478.546C40.447 469.472 43.3449 460.641 48.6951 453.316C54.0453 445.99 61.5737 440.546 70.2035 437.76C70.9067 437.542 71.5367 437.135 72.0246 436.583C72.5125 436.031 72.8397 435.356 72.9705 434.631C72.9809 434.524 72.9813 434.416 72.9717 434.309L72.9732 433.917C72.9734 433.313 72.8423 432.716 72.5891 432.167C72.3358 431.619 71.9665 431.133 71.5066 430.741L24.4822 392.791C20.9304 389.91 16.5005 388.331 11.9282 388.317L-6.81687 388.248C-9.44178 388.237 -12.0431 388.743 -14.4723 389.738C-16.9015 390.734 -19.111 392.198 -20.9744 394.048C-22.8378 395.898 -24.3188 398.097 -25.3326 400.52C-26.3464 402.943 -26.8732 405.542 -26.8829 408.168ZM2.0425 526.907L-7.33002 526.872C-10.4933 526.863 -13.524 525.599 -15.7572 523.357C-17.9904 521.115 -19.244 518.079 -19.2429 514.913L-18.8479 408.198C-18.8282 405.03 -17.5536 401.999 -15.3039 399.77C-13.0541 397.541 -10.0127 396.296 -6.8467 396.308L11.9184 396.377C14.6558 396.424 17.2994 397.382 19.4306 399.102L61.1711 432.776C52.5638 436.935 45.3 443.434 40.2105 451.53C35.1209 459.626 32.4111 468.992 32.3909 478.556C32.3894 478.969 32.388 479.341 32.3863 479.804C32.373 479.982 32.3723 480.16 32.3843 480.337L32.2556 515.104C32.2435 516.258 32.0735 517.406 31.7502 518.514C31.1419 520.249 30.1961 521.846 28.9673 523.213C27.8594 524.405 26.5169 525.354 25.0244 526.002C23.5318 526.649 21.9215 526.98 20.2948 526.974L3.02802 526.91C2.88573 526.88 2.74111 526.863 2.59579 526.858C2.41018 526.855 2.22473 526.871 2.0425 526.907Z" fill="#EAEAEA" fill-opacity="0.2"/>
<path d="M-26.8829 408.168L-27.2777 514.833C-27.284 520.129 -25.1903 525.212 -21.4561 528.965C-17.7218 532.718 -12.6522 534.835 -7.35956 534.852L20.2652 534.954C22.9899 534.961 25.6868 534.407 28.1888 533.327C30.6908 532.248 32.9444 530.665 34.81 528.678L34.9312 528.548C36.7908 526.481 38.2339 524.074 39.1811 521.459L39.3232 521.128C39.9521 519.178 40.2751 517.142 40.2807 515.094L40.416 478.546C40.447 469.472 43.3449 460.641 48.6951 453.316C54.0453 445.99 61.5737 440.546 70.2035 437.76C70.9067 437.542 71.5367 437.135 72.0246 436.583C72.5125 436.031 72.8397 435.356 72.9705 434.631C72.9809 434.524 72.9813 434.416 72.9717 434.309L72.9732 433.917C72.9734 433.313 72.8423 432.716 72.5891 432.167C72.3358 431.619 71.9665 431.133 71.5066 430.741L24.4822 392.791C20.9304 389.91 16.5005 388.331 11.9282 388.317L-6.81687 388.248C-9.44178 388.237 -12.0431 388.743 -14.4723 389.738C-16.9015 390.734 -19.111 392.198 -20.9744 394.048C-22.8378 395.898 -24.3188 398.097 -25.3326 400.52C-26.3464 402.943 -26.8732 405.542 -26.8829 408.168ZM2.0425 526.907L-7.33002 526.872C-10.4933 526.863 -13.524 525.599 -15.7572 523.357C-17.9904 521.115 -19.244 518.079 -19.2429 514.913L-18.8479 408.198C-18.8282 405.03 -17.5536 401.999 -15.3039 399.77C-13.0541 397.541 -10.0127 396.296 -6.8467 396.308L11.9184 396.377C14.6558 396.424 17.2994 397.382 19.4306 399.102L61.1711 432.776C52.5638 436.935 45.3 443.434 40.2105 451.53C35.1209 459.626 32.4111 468.992 32.3909 478.556C32.3894 478.969 32.388 479.341 32.3863 479.804C32.373 479.982 32.3723 480.16 32.3843 480.337L32.2556 515.104C32.2435 516.258 32.0735 517.406 31.7502 518.514C31.1419 520.249 30.1961 521.846 28.9673 523.213C27.8594 524.405 26.5169 525.354 25.0244 526.002C23.5318 526.649 21.9215 526.98 20.2948 526.974L3.02802 526.91C2.88573 526.88 2.74111 526.863 2.59579 526.858C2.41018 526.855 2.22473 526.871 2.0425 526.907Z" fill="#EAEAEA" fill-opacity="0.2"/>
<path d="M48.3651 486.181C48.3166 495.253 51.6812 503.977 57.7256 510.45C63.7701 516.923 72.0044 520.621 80.6339 520.739L81.2516 520.741C87.8351 520.728 94.2619 518.624 99.6904 514.706C105.119 510.788 109.296 505.239 111.674 498.785C114.053 492.331 114.522 485.273 113.02 478.535C111.518 471.797 108.116 465.694 103.258 461.025C103.126 460.862 103.016 460.78 103.016 460.804L102.785 460.606L102.664 460.501L102.532 460.373L100.168 458.404C100.037 458.244 99.8852 458.103 99.7174 457.985C94.8134 454.421 89.0759 452.333 83.1243 451.946C77.1728 451.559 71.2331 452.889 65.9465 455.791C60.6599 458.693 56.2272 463.057 53.1268 468.413C50.0264 473.769 48.3761 479.913 48.354 486.181L48.3651 486.181ZM97.2875 467.809C100.824 471.226 103.3 475.682 104.394 480.598C105.488 485.515 105.15 490.664 103.422 495.377C101.695 500.09 98.6593 504.148 94.7094 507.023C90.7595 509.899 86.0784 511.458 81.2748 511.5L80.7564 511.498C74.489 511.306 68.5435 508.541 64.1948 503.794C59.8461 499.048 57.4405 492.698 57.4937 486.107C57.547 479.516 60.0549 473.209 64.4797 468.537C68.9045 463.865 74.8939 461.202 81.1635 461.117C85.9503 461.134 90.62 462.671 94.5603 465.527L97.0455 467.623L97.2765 467.786L97.2875 467.809Z" fill="#EAEAEA" fill-opacity="0.2"/>
<path d="M48.3651 486.181C48.3166 495.253 51.6812 503.977 57.7256 510.45C63.7701 516.923 72.0044 520.621 80.6339 520.739L81.2516 520.741C87.8351 520.728 94.2619 518.624 99.6904 514.706C105.119 510.788 109.296 505.239 111.674 498.785C114.053 492.331 114.522 485.273 113.02 478.535C111.518 471.797 108.116 465.694 103.258 461.025C103.126 460.862 103.016 460.78 103.016 460.804L102.785 460.606L102.664 460.501L102.532 460.373L100.168 458.404C100.037 458.244 99.8852 458.103 99.7174 457.985C94.8134 454.421 89.0759 452.333 83.1243 451.946C77.1728 451.559 71.2331 452.889 65.9465 455.791C60.6599 458.693 56.2272 463.057 53.1268 468.413C50.0264 473.769 48.3761 479.913 48.354 486.181L48.3651 486.181ZM97.2875 467.809C100.824 471.226 103.3 475.682 104.394 480.598C105.488 485.515 105.15 490.664 103.422 495.377C101.695 500.09 98.6593 504.148 94.7094 507.023C90.7595 509.899 86.0784 511.458 81.2748 511.5L80.7564 511.498C74.489 511.306 68.5435 508.541 64.1948 503.794C59.8461 499.048 57.4405 492.698 57.4937 486.107C57.547 479.516 60.0549 473.209 64.4797 468.537C68.9045 463.865 74.8939 461.202 81.1635 461.117C85.9503 461.134 90.62 462.671 94.5603 465.527L97.0455 467.623L97.2765 467.786L97.2875 467.809Z" fill="#EAEAEA" fill-opacity="0.2"/>
<path d="M99.191 554.282L98.7931 661.755C98.7599 667.091 96.605 672.196 92.8014 675.95C88.9977 679.703 83.856 681.799 78.5046 681.776L50.5729 681.673C47.818 681.659 45.0953 681.081 42.5736 679.974C40.052 678.868 37.7852 677.257 35.9138 675.241L35.7923 675.109C33.9275 673.012 32.4864 670.576 31.5482 667.935L31.407 667.6C30.7857 665.63 30.4743 663.577 30.4839 661.513L30.6203 624.688C30.6567 615.546 27.7927 606.627 22.438 599.206C17.0832 591.785 9.51204 586.243 0.807451 583.372C0.098006 583.147 -0.535846 582.732 -1.02505 582.172C-1.51425 581.613 -1.84003 580.93 -1.96688 580.198C-1.97654 580.09 -1.97614 579.982 -1.96568 579.874L-1.96422 579.479C-1.95991 578.87 -1.82294 578.27 -1.56281 577.719C-1.30267 577.169 -0.925574 576.681 -0.457686 576.29L47.3715 538.405C50.9842 535.529 55.475 533.971 60.0981 533.991L79.0514 534.061C81.7055 534.07 84.3319 534.599 86.7806 535.62C89.2293 536.641 91.4523 538.133 93.3225 540.011C95.1928 541.889 96.6737 544.116 97.6806 546.564C98.6876 549.013 99.2008 551.636 99.191 554.282ZM69.0577 673.701L78.5344 673.736C81.7328 673.75 84.8065 672.499 87.0812 670.257C89.356 668.015 90.6461 664.965 90.6687 661.776L91.0667 554.252C91.0704 551.06 89.8044 547.997 87.5464 545.734C85.2883 543.472 82.2225 542.194 79.0214 542.182L60.0477 542.112C57.2797 542.138 54.5996 543.085 52.4319 544.801L9.97719 578.418C18.6488 582.672 25.9445 589.275 31.03 597.47C36.1154 605.665 38.7853 615.122 38.7342 624.758C38.7327 625.174 38.7313 625.549 38.7296 626.016C38.7417 626.195 38.7411 626.374 38.7276 626.553L38.5979 661.583C38.6015 662.746 38.7649 663.903 39.0834 665.022C39.6855 666.775 40.6299 668.391 41.8621 669.778C42.9733 670.987 44.3236 671.954 45.8279 672.617C47.3322 673.28 48.9578 673.626 50.6026 673.632L68.0613 673.697C68.2053 673.668 68.3517 673.651 68.4987 673.648C68.6863 673.646 68.8737 673.664 69.0577 673.701Z" fill="#EAEAEA" fill-opacity="0.2"/>
<path d="M99.191 554.282L98.7931 661.755C98.7599 667.091 96.605 672.196 92.8014 675.95C88.9977 679.703 83.856 681.799 78.5046 681.776L50.5729 681.673C47.818 681.659 45.0953 681.081 42.5736 679.974C40.052 678.868 37.7852 677.257 35.9138 675.241L35.7923 675.109C33.9275 673.012 32.4864 670.576 31.5482 667.935L31.407 667.6C30.7857 665.63 30.4743 663.577 30.4839 661.513L30.6203 624.688C30.6567 615.546 27.7927 606.627 22.438 599.206C17.0832 591.785 9.51204 586.243 0.807451 583.372C0.098006 583.147 -0.535846 582.732 -1.02505 582.172C-1.51425 581.613 -1.84003 580.93 -1.96688 580.198C-1.97654 580.09 -1.97614 579.982 -1.96568 579.874L-1.96422 579.479C-1.95991 578.87 -1.82294 578.27 -1.56281 577.719C-1.30267 577.169 -0.925574 576.681 -0.457686 576.29L47.3715 538.405C50.9842 535.529 55.475 533.971 60.0981 533.991L79.0514 534.061C81.7055 534.07 84.3319 534.599 86.7806 535.62C89.2293 536.641 91.4523 538.133 93.3225 540.011C95.1928 541.889 96.6737 544.116 97.6806 546.564C98.6876 549.013 99.2008 551.636 99.191 554.282ZM69.0577 673.701L78.5344 673.736C81.7328 673.75 84.8065 672.499 87.0812 670.257C89.356 668.015 90.6461 664.965 90.6687 661.776L91.0667 554.252C91.0704 551.06 89.8044 547.997 87.5464 545.734C85.2883 543.472 82.2225 542.194 79.0214 542.182L60.0477 542.112C57.2797 542.138 54.5996 543.085 52.4319 544.801L9.97719 578.418C18.6488 582.672 25.9445 589.275 31.03 597.47C36.1154 605.665 38.7853 615.122 38.7342 624.758C38.7327 625.174 38.7313 625.549 38.7296 626.016C38.7417 626.195 38.7411 626.374 38.7276 626.553L38.5979 661.583C38.6015 662.746 38.7649 663.903 39.0834 665.022C39.6855 666.775 40.6299 668.391 41.8621 669.778C42.9733 670.987 44.3236 671.954 45.8279 672.617C47.3322 673.28 48.9578 673.626 50.6026 673.632L68.0613 673.697C68.2053 673.668 68.3517 673.651 68.4987 673.648C68.6863 673.646 68.8737 673.664 69.0577 673.701Z" fill="#EAEAEA" fill-opacity="0.2"/>
<path d="M23.372 631.029C23.3542 639.955 19.868 648.512 13.6733 654.836C7.47865 661.16 -0.92236 664.738 -9.69882 664.79L-10.327 664.787C-17.0218 664.725 -23.5418 662.608 -29.0331 658.713C-34.5243 654.818 -38.7308 649.328 -41.1017 642.96C-43.4726 636.593 -43.8974 629.645 -42.3204 623.027C-40.7433 616.41 -37.238 610.43 -32.2635 605.873C-32.1283 605.713 -32.0158 605.634 -32.0159 605.657L-31.7796 605.464L-31.6559 605.361L-31.5208 605.236L-29.1019 603.317C-28.9672 603.16 -28.8119 603.023 -28.6405 602.908C-23.6271 599.438 -17.777 597.426 -11.7219 597.09C-5.66672 596.753 0.363601 598.105 5.71815 600.999C11.0727 603.894 15.5481 608.221 18.6613 613.513C21.7745 618.805 23.4072 624.862 23.3832 631.029L23.372 631.029ZM-26.2422 612.592C-29.8635 615.927 -32.4146 620.293 -33.5637 625.122C-34.7128 629.951 -34.4066 635.019 -32.6851 639.669C-30.9636 644.318 -27.9063 648.333 -23.9109 651.191C-19.9154 654.049 -15.1667 655.619 -10.2821 655.695L-9.75492 655.697C-3.38009 655.555 2.68653 652.878 7.14398 648.24C11.6014 643.603 14.0948 637.373 14.0895 630.889C14.0841 624.404 11.5805 618.179 7.11536 613.55C2.65028 608.922 -3.4207 606.257 -9.79576 606.127C-14.6637 606.108 -19.4238 607.586 -23.452 610.366L-25.9947 612.41L-26.2308 612.569L-26.2422 612.592Z" fill="#EAEAEA" fill-opacity="0.2"/>
<path d="M23.372 631.029C23.3542 639.955 19.868 648.512 13.6733 654.836C7.47865 661.16 -0.92236 664.738 -9.69882 664.79L-10.327 664.787C-17.0218 664.725 -23.5418 662.608 -29.0331 658.713C-34.5243 654.818 -38.7308 649.328 -41.1017 642.96C-43.4726 636.593 -43.8974 629.645 -42.3204 623.027C-40.7433 616.41 -37.238 610.43 -32.2635 605.873C-32.1283 605.713 -32.0158 605.634 -32.0159 605.657L-31.7796 605.464L-31.6559 605.361L-31.5208 605.236L-29.1019 603.317C-28.9672 603.16 -28.8119 603.023 -28.6405 602.908C-23.6271 599.438 -17.777 597.426 -11.7219 597.09C-5.66672 596.753 0.363601 598.105 5.71815 600.999C11.0727 603.894 15.5481 608.221 18.6613 613.513C21.7745 618.805 23.4072 624.862 23.3832 631.029L23.372 631.029ZM-26.2422 612.592C-29.8635 615.927 -32.4146 620.293 -33.5637 625.122C-34.7128 629.951 -34.4066 635.019 -32.6851 639.669C-30.9636 644.318 -27.9063 648.333 -23.9109 651.191C-19.9154 654.049 -15.1667 655.619 -10.2821 655.695L-9.75492 655.697C-3.38009 655.555 2.68653 652.878 7.14398 648.24C11.6014 643.603 14.0948 637.373 14.0895 630.889C14.0841 624.404 11.5805 618.179 7.11536 613.55C2.65028 608.922 -3.4207 606.257 -9.79576 606.127C-14.6637 606.108 -19.4238 607.586 -23.452 610.366L-25.9947 612.41L-26.2308 612.569L-26.2422 612.592Z" fill="#EAEAEA" fill-opacity="0.2"/>
<path d="M67.5021 142.578L173.527 143.355C178.791 143.381 183.85 141.305 187.594 137.585C191.338 133.865 193.461 128.804 193.497 123.513L193.697 95.8938C193.713 93.1697 193.172 90.4713 192.108 87.966C191.044 85.4606 189.479 83.2017 187.511 81.3294L187.382 81.2078C185.334 79.3411 182.946 77.8897 180.351 76.9332L180.022 76.7901C178.086 76.1543 176.064 75.824 174.027 75.811L137.698 75.5447C128.68 75.4812 119.912 72.5522 112.649 67.1768C105.387 61.8014 100.002 54.2549 97.2639 45.6168C97.0495 44.9129 96.647 44.2817 96.1002 43.7919C95.5534 43.3021 94.8834 42.9725 94.1632 42.8391C94.0568 42.8284 93.9496 42.8276 93.8431 42.8368L93.453 42.8339C92.8526 42.8315 92.2589 42.9604 91.713 43.2116C91.1671 43.4629 90.6821 43.8304 90.2915 44.2888L52.4006 91.1679C49.5239 94.7086 47.9387 99.132 47.9084 103.703L47.7724 122.444C47.7521 125.069 48.2463 127.671 49.227 130.104C50.2076 132.536 51.6553 134.75 53.4875 136.62C55.3197 138.49 57.5004 139.978 59.9051 141.001C62.3098 142.023 64.8913 142.559 67.5021 142.578ZM185.633 114.084L185.565 123.455C185.544 126.617 184.277 129.643 182.041 131.868C179.804 134.092 176.782 135.335 173.635 135.322L67.5604 134.545C64.4115 134.514 61.4034 133.228 59.1958 130.971C56.9882 128.714 55.7614 125.669 55.7843 122.503L55.9204 103.742C55.9762 101.005 56.9388 98.3657 58.6556 96.2411L92.2771 54.6296C96.3806 63.2501 102.815 70.5358 110.844 75.6533C118.873 80.7709 128.173 83.5138 137.68 83.5683C138.09 83.5713 138.46 83.574 138.921 83.5774C139.097 83.5913 139.274 83.5926 139.451 83.5812L174.009 83.8346C175.156 83.8508 176.296 84.0249 177.396 84.3521C179.118 84.9665 180.703 85.9179 182.057 87.1513C183.238 88.2633 184.177 89.6089 184.815 91.1035C185.453 92.5981 185.777 94.2093 185.765 95.8357L185.64 113.099C185.61 113.241 185.592 113.385 185.587 113.531C185.583 113.716 185.598 113.902 185.633 114.084Z" fill="#EAEAEA" fill-opacity="0.2"/>
<path d="M67.5021 142.578L173.527 143.355C178.791 143.381 183.85 141.305 187.594 137.585C191.338 133.865 193.461 128.804 193.497 123.513L193.697 95.8938C193.713 93.1697 193.172 90.4713 192.108 87.966C191.044 85.4606 189.479 83.2017 187.511 81.3294L187.382 81.2078C185.334 79.3411 182.946 77.8897 180.351 76.9332L180.022 76.7901C178.086 76.1543 176.064 75.824 174.027 75.811L137.698 75.5447C128.68 75.4812 119.912 72.5522 112.649 67.1768C105.387 61.8014 100.002 54.2549 97.2639 45.6168C97.0495 44.9129 96.647 44.2817 96.1002 43.7919C95.5534 43.3021 94.8834 42.9725 94.1632 42.8391C94.0568 42.8284 93.9496 42.8276 93.8431 42.8368L93.453 42.8339C92.8526 42.8315 92.2589 42.9604 91.713 43.2116C91.1671 43.4629 90.6821 43.8304 90.2915 44.2888L52.4006 91.1679C49.5239 94.7086 47.9387 99.132 47.9084 103.703L47.7724 122.444C47.7521 125.069 48.2463 127.671 49.227 130.104C50.2076 132.536 51.6553 134.75 53.4875 136.62C55.3197 138.49 57.5004 139.978 59.9051 141.001C62.3098 142.023 64.8913 142.559 67.5021 142.578ZM185.633 114.084L185.565 123.455C185.544 126.617 184.277 129.643 182.041 131.868C179.804 134.092 176.782 135.335 173.635 135.322L67.5604 134.545C64.4115 134.514 61.4034 133.228 59.1958 130.971C56.9882 128.714 55.7614 125.669 55.7843 122.503L55.9204 103.742C55.9762 101.005 56.9388 98.3657 58.6556 96.2411L92.2771 54.6296C96.3806 63.2501 102.815 70.5358 110.844 75.6533C118.873 80.7709 128.173 83.5138 137.68 83.5683C138.09 83.5713 138.46 83.574 138.921 83.5774C139.097 83.5913 139.274 83.5926 139.451 83.5812L174.009 83.8346C175.156 83.8508 176.296 84.0249 177.396 84.3521C179.118 84.9665 180.703 85.9179 182.057 87.1513C183.238 88.2633 184.177 89.6089 184.815 91.1035C185.453 92.5981 185.777 94.2093 185.765 95.8357L185.64 113.099C185.61 113.241 185.592 113.385 185.587 113.531C185.583 113.716 185.598 113.902 185.633 114.084Z" fill="#EAEAEA" fill-opacity="0.2"/>
<path d="M144.448 67.7363C153.362 67.8168 161.946 64.4259 168.329 58.3025C174.712 52.1791 178.376 43.8196 178.524 35.0459L178.529 34.4179C178.54 27.724 176.497 21.1823 172.668 15.6495C168.839 10.1167 163.402 5.85074 157.069 3.41024C150.736 0.969738 143.803 0.468518 137.177 1.97222C130.551 3.47593 124.542 6.91445 119.936 11.8375C119.776 11.9709 119.695 12.0824 119.718 12.0826L119.522 12.3167L119.419 12.4393L119.293 12.573L117.35 14.9701C117.191 15.103 117.052 15.2567 116.936 15.4269C113.416 20.4008 111.343 26.2272 110.94 32.2771C110.538 38.3271 111.822 44.3708 114.654 49.7559C117.485 55.141 121.757 59.663 127.008 62.8337C132.259 66.0044 138.289 67.7035 144.448 67.7475L144.448 67.7363ZM126.58 17.9314C129.95 14.3476 134.338 11.8453 139.173 10.7498C144.007 9.65422 149.066 10.0161 153.69 11.7885C158.314 13.5608 162.29 16.6616 165.1 20.6875C167.911 24.7135 169.426 29.4783 169.449 34.3625L169.445 34.8896C169.233 41.2612 166.493 47.2968 161.813 51.7021C157.133 56.1073 150.885 58.5314 144.41 58.4545C137.934 58.3777 131.746 55.8061 127.172 51.2911C122.598 46.7761 120.004 40.6773 119.944 34.3024C119.978 29.4355 121.506 24.6928 124.327 20.6963L126.396 18.1768L126.557 17.9424L126.58 17.9314Z" fill="#EAEAEA" fill-opacity="0.2"/>
<path d="M144.448 67.7363C153.362 67.8168 161.946 64.4259 168.329 58.3025C174.712 52.1791 178.376 43.8196 178.524 35.0459L178.529 34.4179C178.54 27.724 176.497 21.1823 172.668 15.6495C168.839 10.1167 163.402 5.85074 157.069 3.41024C150.736 0.969738 143.803 0.468518 137.177 1.97222C130.551 3.47593 124.542 6.91445 119.936 11.8375C119.776 11.9709 119.695 12.0824 119.718 12.0826L119.522 12.3167L119.419 12.4393L119.293 12.573L117.35 14.9701C117.191 15.103 117.052 15.2567 116.936 15.4269C113.416 20.4008 111.343 26.2272 110.94 32.2771C110.538 38.3271 111.822 44.3708 114.654 49.7559C117.485 55.141 121.757 59.663 127.008 62.8337C132.259 66.0044 138.289 67.7035 144.448 67.7475L144.448 67.7363ZM126.58 17.9314C129.95 14.3476 134.338 11.8453 139.173 10.7498C144.007 9.65422 149.066 10.0161 153.69 11.7885C158.314 13.5608 162.29 16.6616 165.1 20.6875C167.911 24.7135 169.426 29.4783 169.449 34.3625L169.445 34.8896C169.233 41.2612 166.493 47.2968 161.813 51.7021C157.133 56.1073 150.885 58.5314 144.41 58.4545C137.934 58.3777 131.746 55.8061 127.172 51.2911C122.598 46.7761 120.004 40.6773 119.944 34.3024C119.978 29.4355 121.506 24.6928 124.327 20.6963L126.396 18.1768L126.557 17.9424L126.58 17.9314Z" fill="#EAEAEA" fill-opacity="0.2"/>
<path d="M138.822 560.134L244.847 560.912C250.111 560.937 255.171 558.862 258.915 555.142C262.658 551.422 264.781 546.361 264.817 541.069L265.017 513.45C265.033 510.726 264.493 508.028 263.429 505.522C262.364 503.017 260.8 500.758 258.831 498.886L258.702 498.764C256.654 496.898 254.267 495.446 251.671 494.49L251.342 494.347C249.406 493.711 247.384 493.381 245.347 493.368L209.019 493.101C200 493.038 191.232 490.109 183.97 484.733C176.707 479.358 171.322 471.811 168.584 463.173C168.37 462.469 167.967 461.838 167.421 461.348C166.874 460.859 166.204 460.529 165.483 460.396C165.377 460.385 165.27 460.384 165.163 460.393L164.773 460.39C164.173 460.388 163.579 460.517 163.033 460.768C162.487 461.019 162.002 461.387 161.612 461.845L123.721 508.724C120.844 512.265 119.259 516.689 119.229 521.26L119.093 540.001C119.072 542.625 119.567 545.228 120.547 547.66C121.528 550.093 122.976 552.307 124.808 554.177C126.64 556.046 128.821 557.535 131.225 558.557C133.63 559.579 136.212 560.115 138.822 560.134ZM256.953 531.641L256.885 541.011C256.865 544.174 255.597 547.199 253.361 549.424C251.125 551.649 248.102 552.891 244.956 552.879L138.881 552.101C135.732 552.07 132.724 550.785 130.516 548.528C128.308 546.27 127.082 543.225 127.105 540.06L127.241 521.299C127.297 518.562 128.259 515.922 129.976 513.798L163.597 472.186C167.701 480.807 174.135 488.092 182.164 493.21C190.194 498.327 199.494 501.07 209.001 501.125C209.411 501.128 209.781 501.131 210.241 501.134C210.417 501.148 210.594 501.149 210.771 501.138L245.329 501.391C246.476 501.407 247.616 501.581 248.716 501.909C250.439 502.523 252.023 503.474 253.377 504.708C254.558 505.82 255.497 507.165 256.135 508.66C256.774 510.155 257.097 511.766 257.085 513.392L256.96 530.655C256.93 530.797 256.912 530.942 256.907 531.087C256.903 531.273 256.918 531.458 256.953 531.641Z" fill="#EAEAEA" fill-opacity="0.2"/>
<path d="M215.769 485.293C224.682 485.373 233.266 481.983 239.649 475.859C246.032 469.736 249.697 461.376 249.845 452.603L249.849 451.974C249.86 445.281 247.817 438.739 243.988 433.206C240.159 427.673 234.722 423.407 228.389 420.967C222.056 418.526 215.123 418.025 208.498 419.529C201.872 421.033 195.862 424.471 191.256 429.394C191.096 429.528 191.015 429.639 191.038 429.639L190.843 429.873L190.739 429.996L190.613 430.13L188.67 432.527C188.512 432.66 188.373 432.813 188.257 432.984C184.736 437.957 182.663 443.784 182.261 449.834C181.858 455.884 183.142 461.927 185.974 467.313C188.806 472.698 193.077 477.22 198.328 480.39C203.579 483.561 209.609 485.26 215.768 485.304L215.769 485.293ZM197.9 435.488C201.27 431.904 205.658 429.402 210.493 428.306C215.328 427.211 220.386 427.573 225.01 429.345C229.634 431.117 233.61 434.218 236.42 438.244C239.231 442.27 240.746 447.035 240.769 451.919L240.765 452.446C240.553 458.818 237.814 464.853 233.134 469.259C228.454 473.664 222.206 476.088 215.73 476.011C209.254 475.934 203.066 473.363 198.492 468.848C193.919 464.333 191.324 458.234 191.264 451.859C191.299 446.992 192.826 442.249 195.647 438.253L197.716 435.733L197.877 435.499L197.9 435.488Z" fill="#EAEAEA" fill-opacity="0.2"/>
<path d="M335.623 23.203L229.598 22.4257C224.334 22.4005 219.275 24.4755 215.531 28.1956C211.787 31.9156 209.664 36.9767 209.628 42.2682L209.428 69.8872C209.412 72.6113 209.953 75.3097 211.017 77.815C212.081 80.3204 213.646 82.5793 215.614 84.4516L215.743 84.5732C217.791 86.4399 220.179 87.8913 222.774 88.8478L223.103 88.991C225.039 89.6267 227.061 89.957 229.098 89.97L265.427 90.2363C274.445 90.2998 283.213 93.2288 290.476 98.6042C297.738 103.98 303.123 111.526 305.861 120.164C306.076 120.868 306.478 121.499 307.025 121.989C307.572 122.479 308.242 122.808 308.962 122.942C309.068 122.953 309.175 122.953 309.282 122.944L309.672 122.947C310.272 122.949 310.866 122.821 311.412 122.569C311.958 122.318 312.443 121.951 312.833 121.492L350.724 74.6132C353.601 71.0724 355.186 66.649 355.217 62.0776L355.353 43.3365C355.373 40.7122 354.879 38.1095 353.898 35.6772C352.917 33.2449 351.47 31.0307 349.637 29.161C347.805 27.2913 345.625 25.8028 343.22 24.7805C340.815 23.7582 338.234 23.2222 335.623 23.203ZM217.492 51.6969L217.56 42.3264C217.581 39.1637 218.848 36.1382 221.084 33.9134C223.321 31.6887 226.343 30.4463 229.49 30.4587L335.565 31.2364C338.714 31.2674 341.722 32.5526 343.929 34.8099C346.137 37.0672 347.364 40.1125 347.341 43.2778L347.205 62.039C347.149 64.7756 346.186 67.4153 344.469 69.5399L310.848 111.151C306.744 102.531 300.31 95.2452 292.281 90.1277C284.252 85.0101 274.952 82.2672 265.445 82.2127C265.035 82.2097 264.665 82.207 264.204 82.2036C264.028 82.1897 263.851 82.1884 263.674 82.1998L229.116 81.9464C227.969 81.9302 226.829 81.7561 225.729 81.4289C224.007 80.8145 222.422 79.8631 221.068 78.6297C219.887 77.5177 218.948 76.1721 218.31 74.6775C217.672 73.1829 217.348 71.5717 217.36 69.9453L217.485 52.6822C217.515 52.5401 217.533 52.3955 217.538 52.2503C217.542 52.0647 217.527 51.8792 217.492 51.6969Z" fill="#EAEAEA" fill-opacity="0.2"/>
<path d="M335.623 23.203L229.598 22.4257C224.334 22.4005 219.275 24.4755 215.531 28.1956C211.787 31.9156 209.664 36.9767 209.628 42.2682L209.428 69.8872C209.412 72.6113 209.953 75.3097 211.017 77.815C212.081 80.3204 213.646 82.5793 215.614 84.4516L215.743 84.5732C217.791 86.4399 220.179 87.8913 222.774 88.8478L223.103 88.991C225.039 89.6267 227.061 89.957 229.098 89.97L265.427 90.2363C274.445 90.2998 283.213 93.2288 290.476 98.6042C297.738 103.98 303.123 111.526 305.861 120.164C306.076 120.868 306.478 121.499 307.025 121.989C307.572 122.479 308.242 122.808 308.962 122.942C309.068 122.953 309.175 122.953 309.282 122.944L309.672 122.947C310.272 122.949 310.866 122.821 311.412 122.569C311.958 122.318 312.443 121.951 312.833 121.492L350.724 74.6132C353.601 71.0724 355.186 66.649 355.217 62.0776L355.353 43.3365C355.373 40.7122 354.879 38.1095 353.898 35.6772C352.917 33.2449 351.47 31.0307 349.637 29.161C347.805 27.2913 345.625 25.8028 343.22 24.7805C340.815 23.7582 338.234 23.2222 335.623 23.203ZM217.492 51.6969L217.56 42.3264C217.581 39.1637 218.848 36.1382 221.084 33.9134C223.321 31.6887 226.343 30.4463 229.49 30.4587L335.565 31.2364C338.714 31.2674 341.722 32.5526 343.929 34.8099C346.137 37.0672 347.364 40.1125 347.341 43.2778L347.205 62.039C347.149 64.7756 346.186 67.4153 344.469 69.5399L310.848 111.151C306.744 102.531 300.31 95.2452 292.281 90.1277C284.252 85.0101 274.952 82.2672 265.445 82.2127C265.035 82.2097 264.665 82.207 264.204 82.2036C264.028 82.1897 263.851 82.1884 263.674 82.1998L229.116 81.9464C227.969 81.9302 226.829 81.7561 225.729 81.4289C224.007 80.8145 222.422 79.8631 221.068 78.6297C219.887 77.5177 218.948 76.1721 218.31 74.6775C217.672 73.1829 217.348 71.5717 217.36 69.9453L217.485 52.6822C217.515 52.5401 217.533 52.3955 217.538 52.2503C217.542 52.0647 217.527 51.8792 217.492 51.6969Z" fill="#EAEAEA" fill-opacity="0.2"/>
<path d="M258.673 98.0448C249.759 97.9643 241.175 101.355 234.792 107.479C228.409 113.602 224.745 121.962 224.597 130.735L224.592 131.363C224.581 138.057 226.624 144.599 230.453 150.132C234.282 155.664 239.719 159.93 246.052 162.371C252.385 164.811 259.318 165.313 265.944 163.809C272.57 162.305 278.579 158.867 283.185 153.944C283.345 153.81 283.426 153.699 283.403 153.699L283.599 153.464L283.702 153.342L283.828 153.208L285.771 150.811C285.93 150.678 286.069 150.524 286.185 150.354C289.705 145.38 291.778 139.554 292.181 133.504C292.583 127.454 291.299 121.41 288.467 116.025C285.636 110.64 281.364 106.118 276.113 102.947C270.862 99.7767 264.832 98.0776 258.673 98.0336L258.673 98.0448ZM276.541 147.85C273.171 151.433 268.783 153.936 263.949 155.031C259.114 156.127 254.055 155.765 249.431 153.993C244.807 152.22 240.831 149.12 238.021 145.094C235.211 141.068 233.695 136.303 233.673 131.419L233.676 130.892C233.888 124.52 236.628 118.484 241.308 114.079C245.988 109.674 252.236 107.25 258.711 107.327C265.187 107.403 271.375 109.975 275.949 114.49C280.523 119.005 283.117 125.104 283.177 131.479C283.143 136.346 281.615 141.088 278.794 145.085L276.725 147.604L276.564 147.839L276.541 147.85Z" fill="#EAEAEA" fill-opacity="0.2"/>
<path d="M258.673 98.0448C249.759 97.9643 241.175 101.355 234.792 107.479C228.409 113.602 224.745 121.962 224.597 130.735L224.592 131.363C224.581 138.057 226.624 144.599 230.453 150.132C234.282 155.664 239.719 159.93 246.052 162.371C252.385 164.811 259.318 165.313 265.944 163.809C272.57 162.305 278.579 158.867 283.185 153.944C283.345 153.81 283.426 153.699 283.403 153.699L283.599 153.464L283.702 153.342L283.828 153.208L285.771 150.811C285.93 150.678 286.069 150.524 286.185 150.354C289.705 145.38 291.778 139.554 292.181 133.504C292.583 127.454 291.299 121.41 288.467 116.025C285.636 110.64 281.364 106.118 276.113 102.947C270.862 99.7767 264.832 98.0776 258.673 98.0336L258.673 98.0448ZM276.541 147.85C273.171 151.433 268.783 153.936 263.949 155.031C259.114 156.127 254.055 155.765 249.431 153.993C244.807 152.22 240.831 149.12 238.021 145.094C235.211 141.068 233.695 136.303 233.673 131.419L233.676 130.892C233.888 124.52 236.628 118.484 241.308 114.079C245.988 109.674 252.236 107.25 258.711 107.327C265.187 107.403 271.375 109.975 275.949 114.49C280.523 119.005 283.117 125.104 283.177 131.479C283.143 136.346 281.615 141.088 278.794 145.085L276.725 147.604L276.564 147.839L276.541 147.85Z" fill="#EAEAEA" fill-opacity="0.2"/>
</g>
</svg>
