<svg width="493" height="546" viewBox="0 0 493 546" fill="none" xmlns="http://www.w3.org/2000/svg">
<g opacity="0.3">
<path d="M472.757 530.759H369.176C364.033 530.746 359.106 528.694 355.475 525.055C351.844 521.415 349.806 516.484 349.809 511.345V484.519C349.812 481.873 350.359 479.256 351.417 476.83C352.474 474.405 354.019 472.222 355.955 470.418L356.082 470.3C358.096 468.502 360.438 467.109 362.981 466.199L363.303 466.062C365.199 465.458 367.177 465.152 369.166 465.154H404.657C413.468 465.156 422.054 462.374 429.187 457.205C436.32 452.036 441.634 444.745 444.37 436.375C444.584 435.693 444.982 435.083 445.52 434.611C446.057 434.139 446.714 433.824 447.419 433.699C447.523 433.689 447.627 433.689 447.731 433.699H448.113C448.699 433.701 449.278 433.831 449.81 434.078C450.341 434.326 450.812 434.687 451.191 435.135L487.874 480.935C490.659 484.394 492.176 488.702 492.173 493.142V511.345C492.175 513.894 491.673 516.418 490.698 518.774C489.723 521.129 488.293 523.269 486.49 525.072C484.687 526.875 482.546 528.305 480.19 529.281C477.833 530.257 475.308 530.759 472.757 530.759ZM357.558 502.243V511.345C357.555 514.417 358.772 517.364 360.94 519.541C363.109 521.718 366.054 522.946 369.127 522.956H472.757C475.833 522.948 478.781 521.722 480.954 519.545C483.126 517.368 484.346 514.419 484.346 511.345V493.122C484.311 490.464 483.389 487.894 481.727 485.818L449.178 445.164C445.108 453.507 438.771 460.537 430.891 465.451C423.011 470.364 413.906 472.962 404.618 472.947C404.218 472.947 403.856 472.947 403.407 472.947C403.234 472.959 403.061 472.959 402.889 472.947H369.127C368.006 472.954 366.892 473.115 365.815 473.425C364.128 474.01 362.573 474.923 361.242 476.111C360.08 477.182 359.153 478.483 358.519 479.93C357.885 481.377 357.558 482.939 357.558 484.519V501.286C357.586 501.425 357.603 501.565 357.606 501.706C357.609 501.887 357.593 502.067 357.558 502.243Z" fill="white" fill-opacity="0.1"/>
<path d="M472.757 530.759H369.176C364.033 530.746 359.106 528.694 355.475 525.055C351.844 521.415 349.806 516.484 349.809 511.345V484.519C349.812 481.873 350.359 479.256 351.417 476.83C352.474 474.405 354.019 472.222 355.955 470.418L356.082 470.3C358.096 468.502 360.438 467.109 362.981 466.199L363.303 466.062C365.199 465.458 367.177 465.152 369.166 465.154H404.657C413.468 465.156 422.054 462.374 429.187 457.205C436.32 452.036 441.634 444.745 444.37 436.375C444.584 435.693 444.982 435.083 445.52 434.611C446.057 434.139 446.714 433.824 447.419 433.699C447.523 433.689 447.627 433.689 447.731 433.699H448.113C448.699 433.701 449.278 433.831 449.81 434.078C450.341 434.326 450.812 434.687 451.191 435.135L487.874 480.935C490.659 484.394 492.176 488.702 492.173 493.142V511.345C492.175 513.894 491.673 516.418 490.698 518.774C489.723 521.129 488.293 523.269 486.49 525.072C484.687 526.875 482.546 528.305 480.19 529.281C477.833 530.257 475.308 530.759 472.757 530.759ZM357.558 502.243V511.345C357.555 514.417 358.772 517.364 360.94 519.541C363.109 521.718 366.054 522.946 369.127 522.956H472.757C475.833 522.948 478.781 521.722 480.954 519.545C483.126 517.368 484.346 514.419 484.346 511.345V493.122C484.311 490.464 483.389 487.894 481.727 485.818L449.178 445.164C445.108 453.507 438.771 460.537 430.891 465.451C423.011 470.364 413.906 472.962 404.618 472.947C404.218 472.947 403.856 472.947 403.407 472.947C403.234 472.959 403.061 472.959 402.889 472.947H369.127C368.006 472.954 366.892 473.115 365.815 473.425C364.128 474.01 362.573 474.923 361.242 476.111C360.08 477.182 359.153 478.483 358.519 479.93C357.885 481.377 357.558 482.939 357.558 484.519V501.286C357.586 501.425 357.603 501.565 357.606 501.706C357.609 501.887 357.593 502.067 357.558 502.243Z" fill="white" fill-opacity="0.1"/>
<path d="M397.813 458.486C389.145 458.501 380.823 455.147 374.66 449.154C368.496 443.161 364.992 435.016 364.91 426.494V425.884C364.947 419.382 366.979 413.043 370.741 407.697C374.504 402.351 379.82 398.246 385.995 395.921C392.17 393.596 398.915 393.158 405.347 394.666C411.779 396.173 417.598 399.556 422.042 404.37C422.197 404.501 422.274 404.61 422.252 404.61L422.44 404.838L422.54 404.958L422.662 405.089L424.534 407.431C424.687 407.561 424.821 407.712 424.933 407.878C428.321 412.734 430.296 418.407 430.644 424.286C430.993 430.165 429.702 436.025 426.91 441.235C424.119 446.445 419.933 450.807 414.805 453.849C409.678 456.891 403.802 458.498 397.813 458.497V458.486ZM415.538 410.241C412.287 406.737 408.038 404.275 403.345 403.177C398.651 402.078 393.73 402.394 389.222 404.082C384.713 405.771 380.825 408.754 378.064 412.644C375.303 416.534 373.796 421.151 373.74 425.895V426.407C373.901 432.596 376.522 438.478 381.041 442.79C385.561 447.102 391.619 449.5 397.916 449.472C404.213 449.443 410.248 446.99 414.727 442.637C419.206 438.285 421.772 432.38 421.875 426.189C421.876 421.462 420.424 416.844 417.71 412.943L415.716 410.481L415.561 410.252L415.538 410.241Z" fill="white" fill-opacity="0.1"/>
<path d="M227.942 383.787H331.523C336.666 383.774 341.593 381.769 345.224 378.21C348.855 374.651 350.893 369.83 350.891 364.805V338.575C350.887 335.988 350.34 333.429 349.282 331.057C348.225 328.685 346.68 326.551 344.744 324.787L344.617 324.672C342.603 322.914 340.261 321.552 337.718 320.662L337.396 320.528C335.5 319.938 333.522 319.638 331.533 319.64H296.042C287.231 319.643 278.645 316.922 271.512 311.868C264.379 306.814 259.065 299.685 256.329 291.501C256.115 290.834 255.717 290.237 255.18 289.776C254.642 289.314 253.985 289.006 253.28 288.884C253.176 288.875 253.072 288.875 252.968 288.884H252.587C252 288.886 251.421 289.013 250.89 289.255C250.358 289.498 249.887 289.85 249.509 290.288L212.825 335.071C210.04 338.453 208.523 342.665 208.526 347.006V364.805C208.525 367.297 209.026 369.765 210.001 372.068C210.976 374.371 212.406 376.464 214.209 378.227C216.012 379.99 218.153 381.388 220.51 382.342C222.866 383.296 225.392 383.787 227.942 383.787ZM343.142 355.905V364.805C343.144 367.808 341.928 370.69 339.759 372.819C337.59 374.947 334.646 376.148 331.572 376.158H227.942C224.866 376.15 221.918 374.951 219.746 372.822C217.573 370.694 216.353 367.811 216.353 364.805V346.987C216.388 344.388 217.31 341.874 218.972 339.845L251.522 300.094C255.591 308.252 261.929 315.126 269.809 319.93C277.689 324.734 286.793 327.274 296.081 327.26C296.481 327.26 296.843 327.26 297.293 327.26C297.465 327.272 297.638 327.272 297.81 327.26H331.572C332.693 327.267 333.807 327.425 334.884 327.728C336.571 328.299 338.126 329.192 339.458 330.354C340.619 331.401 341.546 332.673 342.18 334.088C342.814 335.502 343.141 337.03 343.142 338.575V354.97C343.113 355.105 343.097 355.242 343.093 355.38C343.09 355.556 343.107 355.733 343.142 355.905Z" fill="white" fill-opacity="0.1"/>
<path d="M303.425 312.592C312.235 312.607 320.694 309.197 326.958 303.104C333.222 297.012 336.784 288.731 336.867 280.067V279.446C336.83 272.837 334.764 266.392 330.94 260.957C327.116 255.521 321.712 251.348 315.436 248.984C309.16 246.62 302.305 246.175 295.768 247.708C289.23 249.241 283.316 252.68 278.799 257.574C278.642 257.707 278.563 257.818 278.585 257.818L278.394 258.05L278.293 258.172L278.169 258.305L276.266 260.686C276.11 260.819 275.974 260.971 275.86 261.14C272.417 266.077 270.41 271.845 270.056 277.822C269.701 283.799 271.014 289.757 273.851 295.054C276.688 300.351 280.942 304.785 286.154 307.878C291.366 310.971 297.338 312.605 303.425 312.604V312.592ZM285.409 263.543C288.714 259.98 293.032 257.478 297.802 256.361C302.573 255.244 307.575 255.565 312.157 257.281C316.74 258.998 320.691 262.031 323.497 265.986C326.304 269.941 327.835 274.635 327.893 279.457V279.978C327.729 286.271 325.065 292.25 320.472 296.634C315.878 301.018 309.721 303.457 303.32 303.428C296.92 303.399 290.786 300.904 286.233 296.479C281.681 292.054 279.073 286.051 278.968 279.756C278.967 274.95 280.443 270.256 283.202 266.29L285.229 263.787L285.386 263.554L285.409 263.543Z" fill="white" fill-opacity="0.1"/>
<path d="M303.425 312.592C312.235 312.607 320.694 309.197 326.958 303.104C333.222 297.012 336.784 288.731 336.867 280.067V279.446C336.83 272.837 334.764 266.392 330.94 260.957C327.116 255.521 321.712 251.348 315.436 248.984C309.16 246.62 302.305 246.175 295.768 247.708C289.23 249.241 283.316 252.68 278.799 257.574C278.642 257.707 278.563 257.818 278.585 257.818L278.394 258.05L278.293 258.172L278.169 258.305L276.266 260.686C276.11 260.819 275.974 260.971 275.86 261.14C272.417 266.077 270.41 271.845 270.056 277.822C269.701 283.799 271.014 289.757 273.851 295.054C276.688 300.351 280.942 304.785 286.154 307.878C291.366 310.971 297.338 312.605 303.425 312.604V312.592ZM285.409 263.543C288.714 259.98 293.032 257.478 297.802 256.361C302.573 255.244 307.575 255.565 312.157 257.281C316.74 258.998 320.691 262.031 323.497 265.986C326.304 269.941 327.835 274.635 327.893 279.457V279.978C327.729 286.271 325.065 292.25 320.472 296.634C315.878 301.018 309.721 303.457 303.32 303.428C296.92 303.399 290.786 300.904 286.233 296.479C281.681 292.054 279.073 286.051 278.968 279.756C278.967 274.95 280.443 270.256 283.202 266.29L285.229 263.787L285.386 263.554L285.409 263.543Z" fill="white" fill-opacity="0.1"/>
<path d="M84.6437 246.814H189.009C194.191 246.827 199.156 248.879 202.814 252.518C206.473 256.158 208.526 261.089 208.523 266.228V293.054C208.52 295.7 207.968 298.317 206.903 300.743C205.838 303.168 204.281 305.351 202.33 307.156L202.202 307.273C200.173 309.071 197.813 310.464 195.251 311.374L194.926 311.511C193.016 312.115 191.024 312.421 189.019 312.419H153.259C144.381 312.417 135.73 315.199 128.544 320.368C121.357 325.537 116.002 332.828 113.246 341.198C113.03 341.881 112.629 342.491 112.087 342.963C111.546 343.434 110.884 343.75 110.174 343.874C110.069 343.884 109.964 343.884 109.859 343.874H109.475C108.884 343.872 108.3 343.743 107.765 343.495C107.229 343.247 106.755 342.887 106.373 342.439L69.4123 296.638C66.606 293.179 65.0773 288.871 65.0801 284.431V266.228C65.0788 263.679 65.5839 261.155 66.5665 258.8C67.5491 256.444 68.9899 254.304 70.8067 252.501C72.6235 250.698 74.7806 249.268 77.1548 248.292C79.529 247.317 82.0737 246.814 84.6437 246.814ZM200.716 275.33V266.228C200.718 263.156 199.493 260.209 197.307 258.032C195.122 255.856 192.155 254.627 189.058 254.617H84.6437C81.544 254.625 78.574 255.852 76.3849 258.028C74.1959 260.205 72.9666 263.154 72.9666 266.228V284.451C73.002 287.109 73.9306 289.68 75.6053 291.755L108.402 332.409C112.502 324.066 118.888 317.036 126.827 312.123C134.767 307.209 143.94 304.612 153.298 304.626C153.702 304.626 154.066 304.626 154.519 304.626C154.693 304.614 154.867 304.614 155.041 304.626H189.058C190.188 304.619 191.311 304.458 192.396 304.148C194.096 303.563 195.662 302.651 197.004 301.462C198.174 300.391 199.108 299.091 199.747 297.644C200.386 296.197 200.716 294.634 200.716 293.054V276.287C200.687 276.149 200.67 276.008 200.666 275.867C200.664 275.687 200.68 275.507 200.716 275.33Z" fill="white" fill-opacity="0.1"/>
<path d="M84.6437 246.814H189.009C194.191 246.827 199.156 248.879 202.814 252.518C206.473 256.158 208.526 261.089 208.523 266.228V293.054C208.52 295.7 207.968 298.317 206.903 300.743C205.838 303.168 204.281 305.351 202.33 307.156L202.202 307.273C200.173 309.071 197.813 310.464 195.251 311.374L194.926 311.511C193.016 312.115 191.024 312.421 189.019 312.419H153.259C144.381 312.417 135.73 315.199 128.544 320.368C121.357 325.537 116.002 332.828 113.246 341.198C113.03 341.881 112.629 342.491 112.087 342.963C111.546 343.434 110.884 343.75 110.174 343.874C110.069 343.884 109.964 343.884 109.859 343.874H109.475C108.884 343.872 108.3 343.743 107.765 343.495C107.229 343.247 106.755 342.887 106.373 342.439L69.4123 296.638C66.606 293.179 65.0773 288.871 65.0801 284.431V266.228C65.0788 263.679 65.5839 261.155 66.5665 258.8C67.5491 256.444 68.9899 254.304 70.8067 252.501C72.6235 250.698 74.7806 249.268 77.1548 248.292C79.529 247.317 82.0737 246.814 84.6437 246.814ZM200.716 275.33V266.228C200.718 263.156 199.493 260.209 197.307 258.032C195.122 255.856 192.155 254.627 189.058 254.617H84.6437C81.544 254.625 78.574 255.852 76.3849 258.028C74.1959 260.205 72.9666 263.154 72.9666 266.228V284.451C73.002 287.109 73.9306 289.68 75.6053 291.755L108.402 332.409C112.502 324.066 118.888 317.036 126.827 312.123C134.767 307.209 143.94 304.612 153.298 304.626C153.702 304.626 154.066 304.626 154.519 304.626C154.693 304.614 154.867 304.614 155.041 304.626H189.058C190.188 304.619 191.311 304.458 192.396 304.148C194.096 303.563 195.662 302.651 197.004 301.462C198.174 300.391 199.108 299.091 199.747 297.644C200.386 296.197 200.716 294.634 200.716 293.054V276.287C200.687 276.149 200.67 276.008 200.666 275.867C200.664 275.687 200.68 275.507 200.716 275.33Z" fill="white" fill-opacity="0.1"/>
<path d="M159.984 320.165C168.793 320.151 177.252 323.449 183.516 329.342C189.781 335.235 193.343 343.244 193.426 351.625V352.224C193.389 358.617 191.323 364.851 187.499 370.108C183.675 375.365 178.271 379.401 171.995 381.688C165.719 383.974 158.863 384.404 152.326 382.922C145.789 381.439 139.875 378.113 135.358 373.379C135.2 373.251 135.121 373.144 135.144 373.144L134.952 372.919L134.851 372.801L134.727 372.672L132.824 370.37C132.669 370.241 132.532 370.094 132.419 369.93C128.975 365.155 126.968 359.576 126.614 353.796C126.26 348.015 127.572 342.252 130.409 337.129C133.246 332.005 137.501 327.717 142.712 324.725C147.924 321.734 153.896 320.153 159.984 320.154V320.165ZM141.967 367.606C145.272 371.052 149.591 373.473 154.361 374.553C159.131 375.633 164.133 375.323 168.716 373.663C173.298 372.002 177.25 369.069 180.056 365.243C182.862 361.418 184.394 356.878 184.452 352.214V351.71C184.288 345.623 181.624 339.84 177.03 335.6C172.437 331.36 166.279 329.001 159.879 329.029C153.478 329.057 147.344 331.47 142.792 335.75C138.24 340.03 135.631 345.837 135.527 351.924C135.526 356.573 137.002 361.113 139.76 364.95L141.787 367.37L141.945 367.595L141.967 367.606Z" fill="white" fill-opacity="0.1"/>
<path d="M159.984 320.165C168.793 320.151 177.252 323.449 183.516 329.342C189.781 335.235 193.343 343.244 193.426 351.625V352.224C193.389 358.617 191.323 364.851 187.499 370.108C183.675 375.365 178.271 379.401 171.995 381.688C165.719 383.974 158.863 384.404 152.326 382.922C145.789 381.439 139.875 378.113 135.358 373.379C135.2 373.251 135.121 373.144 135.144 373.144L134.952 372.919L134.851 372.801L134.727 372.672L132.824 370.37C132.669 370.241 132.532 370.094 132.419 369.93C128.975 365.155 126.968 359.576 126.614 353.796C126.26 348.015 127.572 342.252 130.409 337.129C133.246 332.005 137.501 327.717 142.712 324.725C147.924 321.734 153.896 320.153 159.984 320.154V320.165ZM141.967 367.606C145.272 371.052 149.591 373.473 154.361 374.553C159.131 375.633 164.133 375.323 168.716 373.663C173.298 372.002 177.25 369.069 180.056 365.243C182.862 361.418 184.394 356.878 184.452 352.214V351.71C184.288 345.623 181.624 339.84 177.03 335.6C172.437 331.36 166.279 329.001 159.879 329.029C153.478 329.057 147.344 331.47 142.792 335.75C138.24 340.03 135.631 345.837 135.527 351.924C135.526 356.573 137.002 361.113 139.76 364.95L141.787 367.37L141.945 367.595L141.967 367.606Z" fill="white" fill-opacity="0.1"/>
<path d="M331.472 408.886H227.891C222.748 408.899 217.821 410.95 214.19 414.59C210.559 418.229 208.521 423.16 208.523 428.3V455.126C208.527 457.771 209.074 460.388 210.132 462.814C211.189 465.24 212.734 467.423 214.67 469.227L214.797 469.344C216.811 471.143 219.153 472.535 221.696 473.446L222.018 473.582C223.914 474.186 225.892 474.492 227.881 474.491H263.372C272.183 474.488 280.769 477.27 287.902 482.439C295.035 487.609 300.349 494.9 303.085 503.27C303.299 503.952 303.697 504.562 304.235 505.034C304.772 505.506 305.429 505.821 306.134 505.945C306.238 505.955 306.342 505.955 306.446 505.945H306.827C307.414 505.943 307.993 505.814 308.524 505.566C309.056 505.318 309.527 504.958 309.905 504.51L346.589 458.71C349.374 455.25 350.891 450.943 350.888 446.503V428.3C350.89 425.751 350.388 423.226 349.413 420.871C348.438 418.516 347.008 416.375 345.205 414.573C343.402 412.77 341.261 411.339 338.904 410.364C336.548 409.388 334.022 408.886 331.472 408.886ZM216.272 437.401V428.3C216.27 425.228 217.486 422.28 219.655 420.104C221.824 417.927 224.768 416.699 227.842 416.688H331.472C334.548 416.696 337.496 417.923 339.668 420.1C341.841 422.276 343.061 425.225 343.061 428.3V446.522C343.026 449.18 342.104 451.751 340.442 453.827L307.892 494.481C303.823 486.137 297.485 479.107 289.605 474.194C281.726 469.281 272.621 466.683 263.333 466.698C262.933 466.698 262.571 466.698 262.122 466.698C261.949 466.685 261.776 466.685 261.604 466.698H227.842C226.721 466.69 225.607 466.529 224.53 466.219C222.843 465.635 221.288 464.722 219.956 463.534C218.795 462.462 217.868 461.162 217.234 459.715C216.6 458.268 216.273 456.705 216.272 455.126V438.358C216.301 438.22 216.317 438.079 216.321 437.938C216.324 437.758 216.307 437.578 216.272 437.401Z" fill="white" fill-opacity="0.1"/>
<path d="M331.472 408.886H227.891C222.748 408.899 217.821 410.95 214.19 414.59C210.559 418.229 208.521 423.16 208.523 428.3V455.126C208.527 457.771 209.074 460.388 210.132 462.814C211.189 465.24 212.734 467.423 214.67 469.227L214.797 469.344C216.811 471.143 219.153 472.535 221.696 473.446L222.018 473.582C223.914 474.186 225.892 474.492 227.881 474.491H263.372C272.183 474.488 280.769 477.27 287.902 482.439C295.035 487.609 300.349 494.9 303.085 503.27C303.299 503.952 303.697 504.562 304.235 505.034C304.772 505.506 305.429 505.821 306.134 505.945C306.238 505.955 306.342 505.955 306.446 505.945H306.827C307.414 505.943 307.993 505.814 308.524 505.566C309.056 505.318 309.527 504.958 309.905 504.51L346.589 458.71C349.374 455.25 350.891 450.943 350.888 446.503V428.3C350.89 425.751 350.388 423.226 349.413 420.871C348.438 418.516 347.008 416.375 345.205 414.573C343.402 412.77 341.261 411.339 338.904 410.364C336.548 409.388 334.022 408.886 331.472 408.886ZM216.272 437.401V428.3C216.27 425.228 217.486 422.28 219.655 420.104C221.824 417.927 224.768 416.699 227.842 416.688H331.472C334.548 416.696 337.496 417.923 339.668 420.1C341.841 422.276 343.061 425.225 343.061 428.3V446.522C343.026 449.18 342.104 451.751 340.442 453.827L307.892 494.481C303.823 486.137 297.485 479.107 289.605 474.194C281.726 469.281 272.621 466.683 263.333 466.698C262.933 466.698 262.571 466.698 262.122 466.698C261.949 466.685 261.776 466.685 261.604 466.698H227.842C226.721 466.69 225.607 466.529 224.53 466.219C222.843 465.635 221.288 464.722 219.956 463.534C218.795 462.462 217.868 461.162 217.234 459.715C216.6 458.268 216.273 456.705 216.272 455.126V438.358C216.301 438.22 216.317 438.079 216.321 437.938C216.324 437.758 216.307 437.578 216.272 437.401Z" fill="white" fill-opacity="0.1"/>
<path d="M257.067 482.235C248.257 482.221 239.799 485.519 233.534 491.412C227.27 497.305 223.708 505.314 223.625 513.695V514.295C223.662 520.688 225.728 526.921 229.552 532.178C233.376 537.436 238.78 541.472 245.056 543.758C251.332 546.045 258.187 546.475 264.725 544.992C271.262 543.51 277.176 540.184 281.693 535.45C281.851 535.321 281.929 535.214 281.907 535.214L282.098 534.989L282.2 534.871L282.324 534.743L284.226 532.44C284.382 532.312 284.518 532.164 284.632 532.001C288.075 527.226 290.083 521.647 290.437 515.866C290.791 510.085 289.479 504.322 286.642 499.199C283.804 494.076 279.55 489.787 274.338 486.795C269.126 483.804 263.154 482.224 257.067 482.225V482.235ZM275.083 529.676C271.778 533.123 267.46 535.543 262.69 536.623C257.919 537.703 252.918 537.393 248.335 535.733C243.753 534.073 239.801 531.139 236.995 527.314C234.188 523.488 232.657 518.948 232.599 514.284V513.781C232.763 507.694 235.427 501.91 240.021 497.67C244.614 493.43 250.771 491.072 257.172 491.1C263.572 491.128 269.707 493.54 274.259 497.82C278.811 502.1 281.419 507.907 281.524 513.995C281.525 518.643 280.049 523.183 277.29 527.02L275.263 529.441L275.106 529.666L275.083 529.676Z" fill="white" fill-opacity="0.1"/>
<path d="M257.067 482.235C248.257 482.221 239.799 485.519 233.534 491.412C227.27 497.305 223.708 505.314 223.625 513.695V514.295C223.662 520.688 225.728 526.921 229.552 532.178C233.376 537.436 238.78 541.472 245.056 543.758C251.332 546.045 258.187 546.475 264.725 544.992C271.262 543.51 277.176 540.184 281.693 535.45C281.851 535.321 281.929 535.214 281.907 535.214L282.098 534.989L282.2 534.871L282.324 534.743L284.226 532.44C284.382 532.312 284.518 532.164 284.632 532.001C288.075 527.226 290.083 521.647 290.437 515.866C290.791 510.085 289.479 504.322 286.642 499.199C283.804 494.076 279.55 489.787 274.338 486.795C269.126 483.804 263.154 482.224 257.067 482.225V482.235ZM275.083 529.676C271.778 533.123 267.46 535.543 262.69 536.623C257.919 537.703 252.918 537.393 248.335 535.733C243.753 534.073 239.801 531.139 236.995 527.314C234.188 523.488 232.657 518.948 232.599 514.284V513.781C232.763 507.694 235.427 501.91 240.021 497.67C244.614 493.43 250.771 491.072 257.172 491.1C263.572 491.128 269.707 493.54 274.259 497.82C278.811 502.1 281.419 507.907 281.524 513.995C281.525 518.643 280.049 523.183 277.29 527.02L275.263 529.441L275.106 529.666L275.083 529.676Z" fill="white" fill-opacity="0.1"/>
<path d="M107.14 448.791H3.55905C-1.58375 448.778 -6.51134 446.726 -10.1424 443.087C-13.7734 439.447 -15.8112 434.516 -15.8086 429.377V402.551C-15.8051 399.905 -15.2577 397.288 -14.2004 394.862C-13.1431 392.437 -11.5984 390.254 -9.66215 388.449L-9.53511 388.332C-7.52123 386.534 -5.1787 385.141 -2.63625 384.231L-2.31379 384.094C-0.418143 383.49 1.55969 383.184 3.54926 383.186H39.0403C47.8512 383.188 56.4371 380.406 63.57 375.237C70.7028 370.068 76.0172 362.777 78.7528 354.407C78.9672 353.724 79.3649 353.114 79.9025 352.642C80.4401 352.171 81.097 351.855 81.8015 351.731C81.9056 351.721 82.0102 351.721 82.1142 351.731H82.4953C83.0819 351.733 83.6609 351.862 84.1924 352.11C84.724 352.358 85.1952 352.718 85.5734 353.166L122.257 398.967C125.042 402.426 126.559 406.734 126.556 411.174V429.377C126.557 431.926 126.056 434.45 125.081 436.805C124.106 439.161 122.676 441.301 120.873 443.104C119.07 444.907 116.929 446.337 114.572 447.313C112.216 448.288 109.69 448.791 107.14 448.791ZM-8.05959 420.275V429.377C-8.0622 432.448 -6.84561 435.396 -4.67669 437.573C-2.50778 439.749 0.436424 440.978 3.5102 440.988H107.14C110.216 440.98 113.164 439.753 115.336 437.577C117.509 435.4 118.729 432.451 118.729 429.377V411.154C118.694 408.496 117.772 405.925 116.11 403.85L83.5604 363.196C79.4906 371.539 73.1534 378.569 65.2734 383.482C57.3935 388.396 48.289 390.993 39.0012 390.979C38.6006 390.979 38.239 390.979 37.7895 390.979C37.6171 390.991 37.444 390.991 37.2716 390.979H3.5102C2.38931 390.986 1.27472 391.147 0.197557 391.457C-1.48938 392.042 -3.0437 392.954 -4.37562 394.143C-5.53705 395.214 -6.46397 396.514 -7.09798 397.961C-7.732 399.408 -8.05941 400.971 -8.05959 402.551V419.318C-8.03104 419.456 -8.01467 419.597 -8.01072 419.738C-8.00817 419.918 -8.02456 420.098 -8.05959 420.275Z" fill="white" fill-opacity="0.1"/>
<path d="M107.14 448.791H3.55905C-1.58375 448.778 -6.51134 446.726 -10.1424 443.087C-13.7734 439.447 -15.8112 434.516 -15.8086 429.377V402.551C-15.8051 399.905 -15.2577 397.288 -14.2004 394.862C-13.1431 392.437 -11.5984 390.254 -9.66215 388.449L-9.53511 388.332C-7.52123 386.534 -5.1787 385.141 -2.63625 384.231L-2.31379 384.094C-0.418143 383.49 1.55969 383.184 3.54926 383.186H39.0403C47.8512 383.188 56.4371 380.406 63.57 375.237C70.7028 370.068 76.0172 362.777 78.7528 354.407C78.9672 353.724 79.3649 353.114 79.9025 352.642C80.4401 352.171 81.097 351.855 81.8015 351.731C81.9056 351.721 82.0102 351.721 82.1142 351.731H82.4953C83.0819 351.733 83.6609 351.862 84.1924 352.11C84.724 352.358 85.1952 352.718 85.5734 353.166L122.257 398.967C125.042 402.426 126.559 406.734 126.556 411.174V429.377C126.557 431.926 126.056 434.45 125.081 436.805C124.106 439.161 122.676 441.301 120.873 443.104C119.07 444.907 116.929 446.337 114.572 447.313C112.216 448.288 109.69 448.791 107.14 448.791ZM-8.05959 420.275V429.377C-8.0622 432.448 -6.84561 435.396 -4.67669 437.573C-2.50778 439.749 0.436424 440.978 3.5102 440.988H107.14C110.216 440.98 113.164 439.753 115.336 437.577C117.509 435.4 118.729 432.451 118.729 429.377V411.154C118.694 408.496 117.772 405.925 116.11 403.85L83.5604 363.196C79.4906 371.539 73.1534 378.569 65.2734 383.482C57.3935 388.396 48.289 390.993 39.0012 390.979C38.6006 390.979 38.239 390.979 37.7895 390.979C37.6171 390.991 37.444 390.991 37.2716 390.979H3.5102C2.38931 390.986 1.27472 391.147 0.197557 391.457C-1.48938 392.042 -3.0437 392.954 -4.37562 394.143C-5.53705 395.214 -6.46397 396.514 -7.09798 397.961C-7.732 399.408 -8.05941 400.971 -8.05959 402.551V419.318C-8.03104 419.456 -8.01467 419.597 -8.01072 419.738C-8.00817 419.918 -8.02456 420.098 -8.05959 420.275Z" fill="white" fill-opacity="0.1"/>
<path d="M31.6532 365.44C22.8433 365.455 14.3845 362.156 8.12023 356.263C1.85597 350.371 -1.70588 342.361 -1.78906 333.981L-1.78906 333.381C-1.75194 326.988 0.313847 320.755 4.13781 315.498C7.96178 310.24 13.3656 306.204 19.6417 303.918C25.9177 301.631 32.7732 301.201 39.3106 302.684C45.8479 304.166 51.7622 307.492 56.2789 312.226C56.4365 312.355 56.5153 312.462 56.4928 312.462L56.6843 312.687L56.7856 312.804L56.9095 312.933L58.8124 315.236C58.968 315.364 59.1044 315.512 59.2178 315.675C62.6613 320.45 64.6684 326.029 65.0226 331.81C65.3768 337.591 64.0645 343.354 61.2274 348.477C58.3904 353.6 54.1362 357.889 48.9242 360.88C43.7122 363.872 37.7404 365.452 31.6532 365.451V365.44ZM49.6693 317.999C46.3644 314.553 42.0461 312.133 37.2757 311.053C32.5053 309.972 27.5036 310.283 22.921 311.943C18.3385 313.603 14.3871 316.537 11.5807 320.362C8.77427 324.187 7.24273 328.727 7.18518 333.392V333.895C7.34874 339.982 10.013 345.765 14.6066 350.005C19.2002 354.245 25.3574 356.604 31.7578 356.576C38.1583 356.548 44.2924 354.135 48.8448 349.855C53.3972 345.575 56.0053 339.769 56.11 333.681C56.1109 329.033 54.6352 324.493 51.8762 320.656L49.8494 318.235L49.6918 318.01L49.6693 317.999Z" fill="white" fill-opacity="0.1"/>
<path d="M31.6532 365.44C22.8433 365.455 14.3845 362.156 8.12023 356.263C1.85597 350.371 -1.70588 342.361 -1.78906 333.981L-1.78906 333.381C-1.75194 326.988 0.313847 320.755 4.13781 315.498C7.96178 310.24 13.3656 306.204 19.6417 303.918C25.9177 301.631 32.7732 301.201 39.3106 302.684C45.8479 304.166 51.7622 307.492 56.2789 312.226C56.4365 312.355 56.5153 312.462 56.4928 312.462L56.6843 312.687L56.7856 312.804L56.9095 312.933L58.8124 315.236C58.968 315.364 59.1044 315.512 59.2178 315.675C62.6613 320.45 64.6684 326.029 65.0226 331.81C65.3768 337.591 64.0645 343.354 61.2274 348.477C58.3904 353.6 54.1362 357.889 48.9242 360.88C43.7122 363.872 37.7404 365.452 31.6532 365.451V365.44ZM49.6693 317.999C46.3644 314.553 42.0461 312.133 37.2757 311.053C32.5053 309.972 27.5036 310.283 22.921 311.943C18.3385 313.603 14.3871 316.537 11.5807 320.362C8.77427 324.187 7.24273 328.727 7.18518 333.392V333.895C7.34874 339.982 10.013 345.765 14.6066 350.005C19.2002 354.245 25.3574 356.604 31.7578 356.576C38.1583 356.548 44.2924 354.135 48.8448 349.855C53.3972 345.575 56.0053 339.769 56.11 333.681C56.1109 329.033 54.6352 324.493 51.8762 320.656L49.8494 318.235L49.6918 318.01L49.6693 317.999Z" fill="white" fill-opacity="0.1"/>
<path d="M16.9319 141.857H119.893C125.005 141.844 129.903 139.793 133.512 136.154C137.121 132.515 139.146 127.586 139.143 122.447L139.141 95.6264C139.137 92.9811 138.593 90.3646 137.542 87.9394C136.491 85.5141 134.955 83.3318 133.03 81.5276L132.904 81.4105C130.902 79.6124 128.573 78.22 126.046 77.3098L125.726 77.173C123.841 76.5695 121.875 76.2632 119.898 76.265H84.6188C75.8607 76.2676 67.3259 73.4858 60.2353 68.3177C53.1448 63.1496 47.8617 55.86 45.1418 47.4915C44.9286 46.8095 44.5332 46.1993 43.9988 45.7276C43.4644 45.2559 42.8114 44.9406 42.1111 44.8162C42.0077 44.8066 41.9037 44.8066 41.8003 44.8162H41.4214C40.8384 44.8182 40.2628 44.9476 39.7345 45.1954C39.2062 45.4433 38.7378 45.8036 38.3619 46.2515L1.90165 92.0431C-0.866607 95.5018 -2.37438 99.8085 -2.37127 104.248L-2.36988 122.447C-2.37097 124.996 -1.87249 127.52 -0.90295 129.874C0.0665746 132.229 1.4882 134.369 3.28065 136.172C5.07311 137.974 7.20131 139.404 9.54363 140.38C11.886 141.355 14.3965 141.857 16.9319 141.857ZM131.44 113.347L131.44 122.447C131.443 125.518 130.234 128.465 128.078 130.642C125.923 132.818 122.996 134.046 119.941 134.056H16.9313C13.8733 134.048 10.9432 132.822 8.78342 130.646C6.62368 128.469 5.4107 125.521 5.41047 122.447L5.40908 104.228C5.44378 101.57 6.35967 99.0003 8.01169 96.925L40.3636 56.2788C44.4097 64.6205 50.7095 71.6495 58.5427 76.5617C66.3759 81.474 75.4261 84.0712 84.6583 84.0565C85.0565 84.0565 85.4159 84.0565 85.8627 84.0565C86.0341 84.0688 86.2061 84.0688 86.3775 84.0565H119.937C121.051 84.064 122.159 84.225 123.23 84.5349C124.907 85.1192 126.452 86.0318 127.776 87.2199C128.93 88.2912 129.852 89.5912 130.482 91.038C131.113 92.4848 131.438 94.047 131.438 95.6264L131.44 112.391C131.411 112.529 131.395 112.669 131.391 112.81C131.389 112.991 131.405 113.171 131.44 113.347Z" fill="white" fill-opacity="0.1"/>
<path d="M16.9319 141.857H119.893C125.005 141.844 129.903 139.793 133.512 136.154C137.121 132.515 139.146 127.586 139.143 122.447L139.141 95.6264C139.137 92.9811 138.593 90.3646 137.542 87.9394C136.491 85.5141 134.955 83.3318 133.03 81.5276L132.904 81.4105C130.902 79.6124 128.573 78.22 126.046 77.3098L125.726 77.173C123.841 76.5695 121.875 76.2632 119.898 76.265H84.6188C75.8607 76.2676 67.3259 73.4858 60.2353 68.3177C53.1448 63.1496 47.8617 55.86 45.1418 47.4915C44.9286 46.8095 44.5332 46.1993 43.9988 45.7276C43.4644 45.2559 42.8114 44.9406 42.1111 44.8162C42.0077 44.8066 41.9037 44.8066 41.8003 44.8162H41.4214C40.8384 44.8182 40.2628 44.9476 39.7345 45.1954C39.2062 45.4433 38.7378 45.8036 38.3619 46.2515L1.90165 92.0431C-0.866607 95.5018 -2.37438 99.8085 -2.37127 104.248L-2.36988 122.447C-2.37097 124.996 -1.87249 127.52 -0.90295 129.874C0.0665746 132.229 1.4882 134.369 3.28065 136.172C5.07311 137.974 7.20131 139.404 9.54363 140.38C11.886 141.355 14.3965 141.857 16.9319 141.857ZM131.44 113.347L131.44 122.447C131.443 125.518 130.234 128.465 128.078 130.642C125.923 132.818 122.996 134.046 119.941 134.056H16.9313C13.8733 134.048 10.9432 132.822 8.78342 130.646C6.62368 128.469 5.4107 125.521 5.41047 122.447L5.40908 104.228C5.44378 101.57 6.35967 99.0003 8.01169 96.925L40.3636 56.2788C44.4097 64.6205 50.7095 71.6495 58.5427 76.5617C66.3759 81.474 75.4261 84.0712 84.6583 84.0565C85.0565 84.0565 85.4159 84.0565 85.8627 84.0565C86.0341 84.0688 86.2061 84.0688 86.3775 84.0565H119.937C121.051 84.064 122.159 84.225 123.23 84.5349C124.907 85.1192 126.452 86.0318 127.776 87.2199C128.93 88.2912 129.852 89.5912 130.482 91.038C131.113 92.4848 131.438 94.047 131.438 95.6264L131.44 112.391C131.411 112.529 131.395 112.669 131.391 112.81C131.389 112.991 131.405 113.171 131.44 113.347Z" fill="white" fill-opacity="0.1"/>
<path d="M86.9494 68.2508C95.6057 68.2656 103.917 64.9117 110.071 58.9201C116.226 52.9285 119.725 44.785 119.806 36.2642L119.806 35.6543C119.769 29.1542 117.739 22.8164 113.981 17.4711C110.223 12.1257 104.914 8.02193 98.7468 5.69717C92.58 3.37241 85.8439 2.93505 79.4207 4.44239C72.9975 5.94973 67.1866 9.33149 62.749 14.1448C62.5941 14.2755 62.5166 14.3844 62.5388 14.3844L62.3507 14.6131L62.2511 14.7329L62.1294 14.8636L60.2599 17.2051C60.107 17.3353 59.973 17.4856 59.8616 17.6516C56.4785 22.5066 54.5067 28.1791 54.1592 34.0567C53.8116 39.9344 55.1015 45.794 57.8895 51.003C60.6775 56.2121 64.8578 60.5727 69.9791 63.6143C75.1005 66.6559 80.9684 68.2628 86.9494 68.2617L86.9494 68.2508ZM69.2438 20.015C72.4907 16.511 76.7336 14.0499 81.4208 12.9516C86.1079 11.8534 91.0224 12.1688 95.5252 13.8569C100.028 15.545 103.911 18.5277 106.668 22.4171C109.426 26.3065 110.931 30.9226 110.988 35.6652L110.988 36.1771C110.828 42.3658 108.211 48.2461 103.698 52.5571C99.1844 56.8681 93.1348 59.2665 86.8459 59.238C80.557 59.2095 74.5297 56.7564 70.0563 52.4047C65.583 48.053 63.0199 42.1492 62.9166 35.9593C62.9153 31.233 64.365 26.6168 67.0755 22.7159L69.0668 20.2546L69.2217 20.0259L69.2438 20.015Z" fill="white" fill-opacity="0.1"/>
<path d="M86.9494 68.2508C95.6057 68.2656 103.917 64.9117 110.071 58.9201C116.226 52.9285 119.725 44.785 119.806 36.2642L119.806 35.6543C119.769 29.1542 117.739 22.8164 113.981 17.4711C110.223 12.1257 104.914 8.02193 98.7468 5.69717C92.58 3.37241 85.8439 2.93505 79.4207 4.44239C72.9975 5.94973 67.1866 9.33149 62.749 14.1448C62.5941 14.2755 62.5166 14.3844 62.5388 14.3844L62.3507 14.6131L62.2511 14.7329L62.1294 14.8636L60.2599 17.2051C60.107 17.3353 59.973 17.4856 59.8616 17.6516C56.4785 22.5066 54.5067 28.1791 54.1592 34.0567C53.8116 39.9344 55.1015 45.794 57.8895 51.003C60.6775 56.2121 64.8578 60.5727 69.9791 63.6143C75.1005 66.6559 80.9684 68.2628 86.9494 68.2617L86.9494 68.2508ZM69.2438 20.015C72.4907 16.511 76.7336 14.0499 81.4208 12.9516C86.1079 11.8534 91.0224 12.1688 95.5252 13.8569C100.028 15.545 103.911 18.5277 106.668 22.4171C109.426 26.3065 110.931 30.9226 110.988 35.6652L110.988 36.1771C110.828 42.3658 108.211 48.2461 103.698 52.5571C99.1844 56.8681 93.1348 59.2665 86.8459 59.238C80.557 59.2095 74.5297 56.7564 70.0563 52.4047C65.583 48.053 63.0199 42.1492 62.9166 35.9593C62.9153 31.233 64.365 26.6168 67.0755 22.7159L69.0668 20.2546L69.2217 20.0259L69.2438 20.015Z" fill="white" fill-opacity="0.1"/>
<path d="M-39.8338 277.335L-40.2075 174.375C-40.2131 169.263 -38.1799 164.357 -34.554 160.735C-30.9281 157.113 -26.0058 155.07 -20.8673 155.054L5.95339 154.959C8.59873 154.953 11.2171 155.488 13.6462 156.53C16.0752 157.572 18.2631 159.1 20.0742 161.018L20.1918 161.144C21.9971 163.14 23.398 165.463 24.3174 167.987L24.4553 168.307C25.0657 170.189 25.3792 172.154 25.3845 174.132L25.5125 209.41C25.5418 218.168 28.3545 226.693 33.5483 233.765C38.7421 240.837 46.0509 246.093 54.4291 248.783C55.1119 248.993 55.7235 249.387 56.1971 249.919C56.6708 250.452 56.9884 251.104 57.1154 251.804C57.1254 251.907 57.1258 252.011 57.1165 252.114L57.1179 252.493C57.118 253.076 56.9907 253.652 56.7448 254.182C56.4989 254.711 56.1402 255.18 55.6937 255.558L10.0347 292.184C6.58608 294.965 2.28494 296.488 -2.1543 296.501L-20.3537 296.566C-22.9022 296.576 -25.4278 296.087 -27.7862 295.126C-30.1446 294.165 -32.2896 292.751 -34.0986 290.965C-35.9076 289.179 -37.3452 287.057 -38.3293 284.718C-39.3134 282.379 -39.8246 279.87 -39.8338 277.335ZM-11.7396 162.724L-20.8393 162.757C-23.9106 162.765 -26.8531 163.985 -29.0215 166.148C-31.1899 168.312 -32.4073 171.243 -32.4065 174.298L-32.0327 277.307C-32.0138 280.365 -30.7767 283.291 -28.5926 285.443C-26.4085 287.594 -23.4557 288.797 -20.3819 288.786L-2.163 288.721C0.494639 288.677 3.06141 287.751 5.13073 286.092L45.6592 253.593C37.3029 249.577 30.2511 243.303 25.3105 235.487C20.3698 227.672 17.7397 218.631 17.721 209.399C17.7195 209.001 17.7182 208.642 17.7166 208.195C17.7037 208.023 17.7031 207.851 17.7147 207.68L17.5929 174.121C17.5813 173.007 17.4163 171.899 17.1026 170.83C16.5121 169.155 15.594 167.613 14.4011 166.293C13.3256 165.143 12.0222 164.226 10.5732 163.601C9.12413 162.976 7.56073 162.656 5.98134 162.661L-10.7828 162.721C-10.9209 162.75 -11.0614 162.767 -11.2025 162.771C-11.3827 162.774 -11.5627 162.759 -11.7396 162.724Z" fill="white" fill-opacity="0.1"/>
<path d="M33.1184 202.882C33.0723 194.226 36.396 185.903 42.3652 179.727C48.3344 173.55 56.4652 170.022 64.9856 169.91L65.5955 169.908C72.0957 169.921 78.4408 171.928 83.7997 175.666C89.1587 179.405 93.2817 184.7 95.6289 190.858C97.976 197.016 98.4378 203.751 96.9538 210.179C95.4698 216.608 92.1091 222.431 87.312 226.886C87.1818 227.042 87.0732 227.119 87.0731 227.097L86.8451 227.286L86.7257 227.386L86.5954 227.508L84.2607 229.386C84.131 229.54 83.9812 229.674 83.8156 229.786C78.9729 233.187 73.3076 235.179 67.4313 235.548C61.5549 235.917 55.6907 234.649 50.4716 231.88C45.2524 229.11 40.8767 224.946 37.8165 219.836C34.7564 214.725 33.1281 208.863 33.1075 202.882L33.1184 202.882ZM81.4182 220.413C84.9104 217.153 87.3561 212.901 88.4373 208.21C89.5186 203.519 89.1853 198.606 87.4809 194.109C85.7764 189.613 82.7797 185.741 78.8803 182.997C74.9809 180.253 70.3594 178.765 65.6166 178.725L65.1047 178.727C58.9166 178.91 53.0458 181.548 48.7512 186.077C44.4566 190.606 42.0802 196.664 42.1315 202.953C42.1829 209.242 44.6579 215.26 49.0258 219.718C53.3937 224.175 59.3068 226.717 65.497 226.798C70.2232 226.782 74.8342 225.316 78.7252 222.591L81.1793 220.591L81.4074 220.435L81.4182 220.413Z" fill="white" fill-opacity="0.1"/>
</g>
</svg>
