<svg width="33" height="33" fill="none" xmlns="http://www.w3.org/2000/svg"><path d="M20.863 6.954c-1.245 0-2.557.724-3.517 1.253-.229.126-.687.432-.846.432-.158 0-.614-.305-.843-.431-.956-.53-2.266-1.254-3.52-1.254a5.425 5.425 0 0 0-4.095 1.834C7.04 9.91 6.489 11.384 6.489 12.941c0 2.177.778 5.267 2.083 8.264.58 1.335 1.2 2.49 1.79 3.34.737 1.06 1.389 1.574 1.994 1.574.29 0 .82-.117 1.105-.907.238-.657.45-1.408.677-2.207.514-1.814 1.291-4.557 2.325-4.557h.075c.44 0 .853.415 1.26 1.268.434.908.767 2.128 1.09 3.308.215.79.419 1.537.65 2.185.28.786.805.904 1.094.904.603 0 1.254-.522 1.992-1.598.59-.859 1.21-2.025 1.794-3.372 1.311-3.02 2.094-6.086 2.094-8.202 0-1.557-.552-3.031-1.553-4.152a5.423 5.423 0 0 0-4.096-1.835zm2.44 13.705c-.547 1.259-1.145 2.384-1.683 3.168-.478.698-.61.772-.858.995-.033.029-.064.016-.078-.021-.216-.604-.413-1.33-.623-2.099-.336-1.23-.683-2.504-1.164-3.51-.63-1.32-1.402-1.96-2.36-1.96h-.074c-.926 0-1.681.636-2.31 1.945-.477.997-.838 2.27-1.188 3.504-.219.772-.425 1.5-.648 2.116-.01.027-.025.087-.087.069-.15-.045-.38-.315-.868-1.016-.538-.774-1.133-1.886-1.675-3.131-1.222-2.81-1.982-5.79-1.982-7.778 0-2.345 1.658-4.77 4.432-4.77.717 0 1.667.331 2.542.887.126.08.31.221.487.358l.21.16c.218.164.512.376.857.58.183.108.35.204.537.283.753.32 1.55.482 2.372.482.846 0 2.587-.359 2.587-.553 0-.133-2.055.116-3.544-.455-.236-.09-.718-.248-.718-.31 0-.044.044-.084.087-.11.106-.064.226-.136.381-.221.843-.465 1.996-1.101 2.928-1.101 2.774 0 4.432 2.425 4.432 4.77 0 1.928-.764 4.885-1.993 7.718z" fill="url(#paint0_linear)"/><path d="M31.078 7.753c-.04-.956-.73-1.968-1.605-2.356L17.893.267C17.507.094 17.008 0 16.489 0c-.52 0-1.02.095-1.406.266L3.502 5.397c-.876.388-1.563 1.404-1.597 2.362-.017.482-.394 11.867 1.737 15.597 2.123 3.716 11.043 9.056 11.421 9.281.393.234.9.363 1.43.363.524 0 1.028-.127 1.418-.358.383-.225 9.384-5.57 11.508-9.286 2.132-3.732 1.68-15.12 1.659-15.603zm-3.025 14.823c-1.918 3.357-10.851 8.66-10.941 8.712-.148.087-.38.14-.62.14-.242 0-.475-.053-.624-.142-.09-.053-8.942-5.352-10.86-8.71-1.586-2.775-1.643-11.597-1.531-14.762.012-.351.34-.837.662-.98l11.58-5.13c.185-.082.473-.131.769-.131.296 0 .583.049.768.131l11.58 5.13c.323.144.655.632.67.985.134 3.164.132 11.983-1.453 14.757z" fill="url(#paint1_linear)"/><defs><linearGradient id="paint0_linear" x1="16.5" y1="6.954" x2="16.5" y2="26.119" gradientUnits="userSpaceOnUse"><stop stop-color="#50CCF8"/><stop offset="1" stop-color="#19B4EA"/></linearGradient><linearGradient id="paint1_linear" x1="16.5" y1="0" x2="16.5" y2="33" gradientUnits="userSpaceOnUse"><stop stop-color="#50CCF8"/><stop offset="1" stop-color="#19B4EA"/></linearGradient></defs></svg>