<svg width="33" height="33" fill="none" xmlns="http://www.w3.org/2000/svg"><g clip-path="url(#clip0)"><path d="M30.518 8.954l-.001-.026a34.604 34.604 0 0 1-.03-1.025 3.497 3.497 0 0 0-3.293-3.427c-3.794-.211-6.73-1.449-9.237-3.893l-.022-.02a2.112 2.112 0 0 0-2.87 0l-.021.02C12.536 3.027 9.6 4.265 5.807 4.477a3.497 3.497 0 0 0-3.294 3.426c-.005.37-.015.706-.03 1.025v.06c-.075 3.869-.166 8.684 1.445 13.054.885 2.404 2.227 4.493 3.986 6.21 2.004 1.956 4.63 3.509 7.802 4.615A2.414 2.414 0 0 0 16.5 33a2.372 2.372 0 0 0 .785-.134c3.17-1.108 5.792-2.661 7.794-4.617 1.759-1.718 3.1-3.807 3.987-6.211 1.617-4.384 1.525-9.208 1.452-13.084zm-3.269 12.414c-1.699 4.606-5.167 7.77-10.602 9.67a.437.437 0 0 1-.293 0c-5.441-1.897-8.912-5.059-10.61-9.665-1.484-4.029-1.4-8.449-1.326-12.348v-.022c.016-.335.026-.686.032-1.072A1.554 1.554 0 0 1 5.915 6.41c2.147-.12 4.033-.535 5.766-1.269 1.731-.732 3.268-1.765 4.7-3.157a.179.179 0 0 1 .239 0c1.431 1.392 2.969 2.425 4.7 3.157 1.732.734 3.619 1.149 5.766 1.269.81.045 1.453.713 1.465 1.522.006.387.016.738.03 1.071.075 3.904.157 8.328-1.332 12.365z" fill="url(#paint0_linear)"/><path d="M16.5 8.277c-4.535 0-8.224 3.689-8.224 8.224s3.69 8.224 8.224 8.224c4.535 0 8.224-3.69 8.224-8.224 0-4.535-3.69-8.224-8.224-8.224zm0 14.511a6.295 6.295 0 0 1-6.288-6.287 6.295 6.295 0 0 1 6.288-6.288 6.295 6.295 0 0 1 6.287 6.288 6.295 6.295 0 0 1-6.287 6.287z" fill="url(#paint1_linear)"/><path d="M18.863 13.947l-3.82 3.82-1.036-1.037a.968.968 0 0 0-1.37 1.37l1.722 1.721a.965.965 0 0 0 1.37 0l4.504-4.505a.968.968 0 0 0-1.37-1.369z" fill="url(#paint2_linear)"/></g><defs><linearGradient id="paint0_linear" x1="16.5" y1="0" x2="16.5" y2="33" gradientUnits="userSpaceOnUse"><stop stop-color="#50CCF8"/><stop offset="1" stop-color="#19B4EA"/></linearGradient><linearGradient id="paint1_linear" x1="16.5" y1="8.277" x2="16.5" y2="24.725" gradientUnits="userSpaceOnUse"><stop stop-color="#50CCF8"/><stop offset="1" stop-color="#19B4EA"/></linearGradient><linearGradient id="paint2_linear" x1="16.435" y1="13.664" x2="16.435" y2="20.105" gradientUnits="userSpaceOnUse"><stop stop-color="#50CCF8"/><stop offset="1" stop-color="#19B4EA"/></linearGradient><clipPath id="clip0"><path fill="#fff" d="M0 0h33v33H0z"/></clipPath></defs></svg>