<svg width="32" height="32" fill="none" xmlns="http://www.w3.org/2000/svg"><path d="M30.723 9.77c-1.687-3.933-4.554-6.793-8.52-8.485a15.727 15.727 0 0 0-6.23-1.277c-2.169 0-4.23.428-6.21 1.277C5.829 2.972 2.95 5.831 1.26 9.771A15.57 15.57 0 0 0 0 15.98c0 2.17.413 4.255 1.26 6.23 1.69 3.94 4.57 6.815 8.503 8.503 1.98.85 4.041 1.277 6.21 1.277 2.17 0 4.247-.432 6.23-1.277 3.965-1.692 6.832-4.57 8.52-8.503.85-1.98 1.277-4.06 1.277-6.23 0-2.169-.427-4.23-1.277-6.21zm-2.554 13.28c-1.256 2.154-2.977 3.863-5.144 5.127-2.154 1.256-4.514 1.889-7.05 1.889-1.908 0-3.727-.367-5.46-1.12-1.732-.752-3.228-1.74-4.479-2.991-1.25-1.252-2.247-2.762-2.991-4.497-.743-1.729-1.103-3.569-1.103-5.476 0-2.537.624-4.885 1.873-7.033A14.044 14.044 0 0 1 8.94 3.822c2.151-1.26 4.496-1.89 7.033-1.89s4.896.634 7.05 1.89a14.08 14.08 0 0 1 5.144 5.127c1.26 2.151 1.89 4.496 1.89 7.033s-.626 4.9-1.89 7.068z" fill="url(#paint0_linear)"/><path d="M16.988 15.842V6.78c0-.543-.472-.98-1.014-.98a.986.986 0 0 0-.963.98v9.202c0 .018.035.088.035.14a.915.915 0 0 0 .263.788l5.231 5.231c.35.35.998.35 1.347 0 .403-.402.376-.986 0-1.364l-4.899-4.935z" fill="url(#paint1_linear)"/><defs><linearGradient id="paint0_linear" x1="16" y1=".008" x2="16" y2="31.991" gradientUnits="userSpaceOnUse"><stop stop-color="#50CCF8"/><stop offset="1" stop-color="#19B4EA"/></linearGradient><linearGradient id="paint1_linear" x1="18.595" y1="5.8" x2="18.595" y2="22.404" gradientUnits="userSpaceOnUse"><stop stop-color="#50CCF8"/><stop offset="1" stop-color="#19B4EA"/></linearGradient></defs></svg>