<svg width="357" height="705" viewBox="0 0 357 705" fill="none" xmlns="http://www.w3.org/2000/svg">
<g opacity="0.5">
<path d="M-34.7579 595.972C-34.8061 587.047 -31.3834 578.464 -25.2357 572.094C-19.088 565.724 -10.7137 562.085 -1.9379 561.968L-1.30973 561.966C5.38536 561.978 11.9209 564.047 17.4408 567.901C22.9607 571.755 27.2078 577.214 29.6258 583.564C32.0438 589.914 32.5199 596.858 30.9919 603.487C29.4639 610.117 26.003 616.122 21.0624 620.716C20.9283 620.876 20.8165 620.957 20.8164 620.934L20.5815 621.129L20.4585 621.232L20.3244 621.358L17.9198 623.295C17.7862 623.453 17.632 623.592 17.4614 623.707C12.4738 627.215 6.63882 629.27 0.586311 629.651C-5.46619 630.032 -11.5064 628.725 -16.8822 625.87C-22.258 623.016 -26.7653 618.722 -29.9176 613.453C-33.0699 608.184 -34.7474 602.14 -34.7691 595.973L-34.7579 595.972ZM14.9914 614.042C18.588 610.68 21.1067 606.296 22.22 601.458C23.3333 596.621 22.9896 591.554 21.2337 586.918C19.4778 582.281 16.3909 578.289 12.3744 575.461C8.35794 572.632 3.5977 571.098 -1.28726 571.058L-1.81448 571.06C-8.18809 571.249 -14.2347 573.971 -18.6577 578.642C-23.0807 583.312 -25.5279 589.559 -25.4745 596.044C-25.4212 602.529 -22.8715 608.734 -18.3723 613.33C-13.873 617.926 -7.7825 620.546 -1.40666 620.628C3.46127 620.611 8.21033 619.098 12.2178 616.288L14.7453 614.225L14.9803 614.065L14.9914 614.042Z" fill="#EAEAEA" fill-opacity="0.2"/>
<path d="M31.2188 420.795L31.6137 527.46C31.6463 532.756 33.7306 537.823 37.4093 541.549C41.0879 545.274 46.0603 547.354 51.2352 547.332L78.2461 547.232C80.9102 547.219 83.5431 546.646 85.9815 545.548C88.4199 544.45 90.6118 542.851 92.4214 540.85L92.5389 540.719C94.342 538.639 95.7353 536.221 96.6424 533.6L96.7788 533.267C97.3795 531.313 97.6804 529.275 97.6709 527.226L97.5356 490.678C97.4995 481.605 100.268 472.753 105.446 465.388C110.623 458.024 117.944 452.524 126.362 449.676C127.048 449.452 127.661 449.041 128.134 448.485C128.607 447.93 128.922 447.252 129.044 446.526C129.054 446.419 129.053 446.311 129.043 446.204L129.042 445.812C129.037 445.208 128.905 444.612 128.653 444.065C128.402 443.519 128.037 443.035 127.584 442.647L81.3285 405.042C77.8347 402.187 73.4917 400.641 69.021 400.66L50.6925 400.728C48.126 400.736 45.5862 401.262 43.2183 402.275C40.8505 403.288 38.7009 404.769 36.8925 406.632C35.084 408.496 33.6522 410.706 32.6787 413.136C31.7051 415.566 31.2091 418.169 31.2188 420.795ZM60.3699 539.319L51.2057 539.353C48.1127 539.367 45.1403 538.125 42.9403 535.9C40.7403 533.674 39.4924 530.647 39.4703 527.482L39.0753 420.766C39.0714 417.598 40.2953 414.558 42.4787 412.313C44.6622 410.067 47.6268 408.8 50.7224 408.788L69.0705 408.721C71.7473 408.747 74.3391 409.686 76.4355 411.39L117.494 444.758C109.108 448.98 102.054 455.532 97.1368 463.665C92.2198 471.798 89.6389 481.183 89.6891 490.747C89.6907 491.16 89.692 491.532 89.6938 491.995C89.682 492.173 89.6827 492.351 89.6957 492.528L89.8244 527.295C89.8211 528.45 89.6632 529.598 89.3553 530.708C88.7732 532.448 87.8601 534.052 86.6686 535.428C85.5941 536.628 84.2885 537.587 82.8339 538.245C81.3792 538.904 79.8072 539.247 78.2166 539.253L61.3336 539.315C61.1942 539.286 61.0527 539.27 60.9106 539.266C60.7291 539.264 60.5479 539.282 60.3699 539.319Z" fill="#EAEAEA" fill-opacity="0.2"/>
<path d="M104.821 498.257C104.84 507.329 108.384 516.027 114.682 522.454C120.98 528.882 129.521 532.518 138.443 532.571L139.082 532.569C145.888 532.505 152.517 530.353 158.1 526.395C163.683 522.436 167.959 516.856 170.37 510.384C172.78 503.912 173.212 496.85 171.609 490.124C170.005 483.398 166.442 477.321 161.384 472.688C161.247 472.526 161.132 472.446 161.133 472.469L160.892 472.273L160.766 472.169L160.629 472.042L158.17 470.091C158.033 469.931 157.875 469.791 157.701 469.675C152.604 466.148 146.656 464.103 140.5 463.761C134.344 463.419 128.213 464.793 122.77 467.735C117.326 470.677 112.776 475.075 109.611 480.454C106.446 485.833 104.786 491.988 104.81 498.257L104.821 498.257ZM155.263 479.517C158.944 482.907 161.538 487.344 162.706 492.253C163.874 497.161 163.563 502.313 161.813 507.038C160.063 511.764 156.954 515.844 152.892 518.749C148.83 521.655 144.002 523.25 139.036 523.327L138.5 523.329C132.019 523.185 125.852 520.464 121.32 515.75C116.788 511.037 114.253 504.705 114.259 498.114C114.264 491.523 116.81 485.197 121.349 480.492C125.889 475.787 132.061 473.078 138.542 472.947C143.491 472.927 148.331 474.429 152.426 477.255L155.011 479.333L155.251 479.494L155.263 479.517Z" fill="#EAEAEA" fill-opacity="0.2"/>
<path d="M104.821 498.257C104.84 507.329 108.384 516.027 114.682 522.454C120.98 528.882 129.521 532.518 138.443 532.571L139.082 532.569C145.888 532.505 152.517 530.353 158.1 526.395C163.683 522.436 167.959 516.856 170.37 510.384C172.78 503.912 173.212 496.85 171.609 490.124C170.005 483.398 166.442 477.321 161.384 472.688C161.247 472.526 161.132 472.446 161.133 472.469L160.892 472.273L160.766 472.169L160.629 472.042L158.17 470.091C158.033 469.931 157.875 469.791 157.701 469.675C152.604 466.148 146.656 464.103 140.5 463.761C134.344 463.419 128.213 464.793 122.77 467.735C117.326 470.677 112.776 475.075 109.611 480.454C106.446 485.833 104.786 491.988 104.81 498.257L104.821 498.257ZM155.263 479.517C158.944 482.907 161.538 487.344 162.706 492.253C163.874 497.161 163.563 502.313 161.813 507.038C160.063 511.764 156.954 515.844 152.892 518.749C148.83 521.655 144.002 523.25 139.036 523.327L138.5 523.329C132.019 523.185 125.852 520.464 121.32 515.75C116.788 511.037 114.253 504.705 114.259 498.114C114.264 491.523 116.81 485.197 121.349 480.492C125.889 475.787 132.061 473.078 138.542 472.947C143.491 472.927 148.331 474.429 152.426 477.255L155.011 479.333L155.251 479.494L155.263 479.517Z" fill="#EAEAEA" fill-opacity="0.2"/>
<path d="M119.637 2.86211L120.032 109.527C120.064 114.823 122.172 119.89 125.892 123.615C129.613 127.341 134.642 129.421 139.875 129.398L167.193 129.297C169.888 129.284 172.55 128.71 175.017 127.612C177.483 126.514 179.7 124.915 181.53 122.915L181.649 122.783C183.472 120.703 184.882 118.285 185.799 115.664L185.937 115.331C186.545 113.377 186.849 111.339 186.84 109.29L186.704 72.7421C186.668 63.6689 189.469 54.8168 194.705 47.452C199.942 40.0873 207.346 34.5872 215.86 31.7386C216.553 31.5152 217.173 31.1034 217.652 30.548C218.13 29.9926 218.449 29.315 218.573 28.5889C218.582 28.4818 218.582 28.374 218.572 28.267L218.57 27.8745C218.566 27.2705 218.432 26.6747 218.177 26.1283C217.923 25.5819 217.554 25.098 217.097 24.7101L170.317 -12.8928C166.783 -15.7479 162.391 -17.294 157.869 -17.2744L139.333 -17.2058C136.737 -17.1975 134.168 -16.6718 131.773 -15.6586C129.379 -14.6455 127.205 -13.1649 125.376 -11.3013C123.546 -9.43765 122.098 -7.22763 121.114 -4.79742C120.129 -2.36722 119.627 0.23552 119.637 2.86211ZM149.114 121.384L139.846 121.419C136.718 121.433 133.711 120.191 131.487 117.966C129.262 115.741 128 112.713 127.978 109.548L127.583 2.8327C127.579 -0.335315 128.817 -3.37544 131.025 -5.62092C133.233 -7.8664 136.232 -9.1339 139.362 -9.14548L157.919 -9.21417C160.626 -9.18804 163.248 -8.24869 165.368 -6.5449L206.891 26.8209C198.41 31.0434 191.275 37.5958 186.302 45.7289C181.329 53.862 178.718 63.2474 178.769 72.8118C178.77 73.2243 178.771 73.5967 178.773 74.0595C178.761 74.2371 178.762 74.4154 178.775 74.5929L178.904 109.36C178.9 110.514 178.741 111.662 178.429 112.773C177.84 114.512 176.917 116.116 175.712 117.492C174.625 118.692 173.305 119.652 171.833 120.31C170.362 120.968 168.772 121.311 167.164 121.318L150.089 121.381C149.948 121.352 149.805 121.336 149.661 121.332C149.477 121.33 149.294 121.348 149.114 121.384Z" fill="#EAEAEA" fill-opacity="0.2"/>
<path d="M119.637 2.86211L120.032 109.527C120.064 114.823 122.172 119.89 125.892 123.615C129.613 127.341 134.642 129.421 139.875 129.398L167.193 129.297C169.888 129.284 172.55 128.71 175.017 127.612C177.483 126.514 179.7 124.915 181.53 122.915L181.649 122.783C183.472 120.703 184.882 118.285 185.799 115.664L185.937 115.331C186.545 113.377 186.849 111.339 186.84 109.29L186.704 72.7421C186.668 63.6689 189.469 54.8168 194.705 47.452C199.942 40.0873 207.346 34.5872 215.86 31.7386C216.553 31.5152 217.173 31.1034 217.652 30.548C218.13 29.9926 218.449 29.315 218.573 28.5889C218.582 28.4818 218.582 28.374 218.572 28.267L218.57 27.8745C218.566 27.2705 218.432 26.6747 218.177 26.1283C217.923 25.5819 217.554 25.098 217.097 24.7101L170.317 -12.8928C166.783 -15.7479 162.391 -17.294 157.869 -17.2744L139.333 -17.2058C136.737 -17.1975 134.168 -16.6718 131.773 -15.6586C129.379 -14.6455 127.205 -13.1649 125.376 -11.3013C123.546 -9.43765 122.098 -7.22763 121.114 -4.79742C120.129 -2.36722 119.627 0.23552 119.637 2.86211ZM149.114 121.384L139.846 121.419C136.718 121.433 133.711 120.191 131.487 117.966C129.262 115.741 128 112.713 127.978 109.548L127.583 2.8327C127.579 -0.335315 128.817 -3.37544 131.025 -5.62092C133.233 -7.8664 136.232 -9.1339 139.362 -9.14548L157.919 -9.21417C160.626 -9.18804 163.248 -8.24869 165.368 -6.5449L206.891 26.8209C198.41 31.0434 191.275 37.5958 186.302 45.7289C181.329 53.862 178.718 63.2474 178.769 72.8118C178.77 73.2243 178.771 73.5967 178.773 74.0595C178.761 74.2371 178.762 74.4154 178.775 74.5929L178.904 109.36C178.9 110.514 178.741 111.662 178.429 112.773C177.84 114.512 176.917 116.116 175.712 117.492C174.625 118.692 173.305 119.652 171.833 120.31C170.362 120.968 168.772 121.311 167.164 121.318L150.089 121.381C149.948 121.352 149.805 121.336 149.661 121.332C149.477 121.33 149.294 121.348 149.114 121.384Z" fill="#EAEAEA" fill-opacity="0.2"/>
<path d="M194.348 80.3196C194.367 89.3919 197.796 98.0901 203.888 104.518C209.981 110.947 218.242 114.584 226.872 114.638L227.49 114.636C234.073 114.573 240.484 112.422 245.883 108.464C251.283 104.506 255.418 98.926 257.749 92.4543C260.08 85.9827 260.497 78.9214 258.945 72.195C257.393 65.4687 253.946 59.3909 249.054 54.7578C248.921 54.5959 248.81 54.5152 248.81 54.5384L248.578 54.3421L248.456 54.2382L248.323 54.1111L245.944 52.1603C245.812 52.0006 245.659 51.8607 245.491 51.7445C240.56 48.2167 234.808 46.171 228.853 45.8283C222.899 45.4856 216.969 46.8589 211.704 49.8C206.439 52.7411 202.039 57.1383 198.978 62.5169C195.918 67.8955 194.313 74.0512 194.337 80.3197L194.348 80.3196ZM243.133 61.5862C246.695 64.9763 249.204 69.4141 250.334 74.3224C251.465 79.2308 251.165 84.3825 249.472 89.1079C247.78 93.8332 244.774 97.9135 240.846 100.818C236.917 103.723 232.248 105.317 227.445 105.394L226.926 105.396C220.658 105.251 214.692 102.529 210.308 97.8151C205.924 93.1008 203.472 86.7693 203.476 80.1781C203.481 73.5869 205.942 67.2609 210.332 62.5567C214.722 57.8524 220.692 55.1445 226.96 55.0135C231.747 54.9948 236.428 56.4972 240.389 59.3237L242.89 61.4016L243.122 61.5631L243.133 61.5862Z" fill="#EAEAEA" fill-opacity="0.2"/>
<path d="M171.723 272.71L172.121 380.183C172.127 385.519 170.034 390.64 166.3 394.421C162.566 398.202 157.496 400.335 152.203 400.352L124.579 400.455C121.854 400.461 119.157 399.903 116.655 398.815C114.153 397.727 111.899 396.133 110.034 394.131L109.912 394C108.053 391.917 106.61 389.492 105.662 386.857L105.52 386.523C104.891 384.558 104.568 382.507 104.562 380.443L104.426 343.618C104.395 334.476 101.497 325.578 96.1464 318.197C90.796 310.816 83.2674 305.33 74.6376 302.523C73.9343 302.303 73.3043 301.893 72.8164 301.337C72.3285 300.781 72.0013 300.101 71.8704 299.37C71.8601 299.262 71.8597 299.153 71.8692 299.046L71.8678 298.65C71.8675 298.042 71.9986 297.44 72.2518 296.888C72.505 296.335 72.8743 295.845 73.3342 295.451L120.358 257.215C123.909 254.311 128.339 252.721 132.911 252.707L151.657 252.637C154.281 252.626 156.883 253.137 159.312 254.14C161.741 255.143 163.951 256.618 165.814 258.482C167.678 260.346 169.159 262.562 170.173 265.003C171.186 267.444 171.713 270.063 171.723 272.71ZM142.801 392.347L152.174 392.312C155.337 392.303 158.367 391.03 160.601 388.771C162.834 386.512 164.087 383.453 164.086 380.263L163.688 272.739C163.668 269.547 162.394 266.494 160.144 264.248C157.894 262.002 154.853 260.747 151.687 260.759L132.921 260.828C130.184 260.875 127.54 261.841 125.409 263.573L83.6698 297.501C92.2772 301.692 99.5412 308.241 104.631 316.398C109.721 324.555 112.431 333.992 112.451 343.629C112.453 344.045 112.454 344.42 112.456 344.886C112.469 345.065 112.47 345.245 112.458 345.424L112.588 380.454C112.6 381.617 112.77 382.773 113.093 383.889C113.701 385.637 114.647 387.247 115.876 388.624C116.984 389.825 118.327 390.782 119.819 391.434C121.312 392.086 122.922 392.42 124.549 392.414L141.816 392.35C141.958 392.32 142.102 392.303 142.248 392.298C142.433 392.295 142.619 392.311 142.801 392.347Z" fill="#EAEAEA" fill-opacity="0.2"/>
<path d="M171.723 272.71L172.121 380.183C172.127 385.519 170.034 390.64 166.3 394.421C162.566 398.202 157.496 400.335 152.203 400.352L124.579 400.455C121.854 400.461 119.157 399.903 116.655 398.815C114.153 397.727 111.899 396.133 110.034 394.131L109.912 394C108.053 391.917 106.61 389.492 105.662 386.857L105.52 386.523C104.891 384.558 104.568 382.507 104.562 380.443L104.426 343.618C104.395 334.476 101.497 325.578 96.1464 318.197C90.796 310.816 83.2674 305.33 74.6376 302.523C73.9343 302.303 73.3043 301.893 72.8164 301.337C72.3285 300.781 72.0013 300.101 71.8704 299.37C71.8601 299.262 71.8597 299.153 71.8692 299.046L71.8678 298.65C71.8675 298.042 71.9986 297.44 72.2518 296.888C72.505 296.335 72.8743 295.845 73.3342 295.451L120.358 257.215C123.909 254.311 128.339 252.721 132.911 252.707L151.657 252.637C154.281 252.626 156.883 253.137 159.312 254.14C161.741 255.143 163.951 256.618 165.814 258.482C167.678 260.346 169.159 262.562 170.173 265.003C171.186 267.444 171.713 270.063 171.723 272.71ZM142.801 392.347L152.174 392.312C155.337 392.303 158.367 391.03 160.601 388.771C162.834 386.512 164.087 383.453 164.086 380.263L163.688 272.739C163.668 269.547 162.394 266.494 160.144 264.248C157.894 262.002 154.853 260.747 151.687 260.759L132.921 260.828C130.184 260.875 127.54 261.841 125.409 263.573L83.6698 297.501C92.2772 301.692 99.5412 308.241 104.631 316.398C109.721 324.555 112.431 333.992 112.451 343.629C112.453 344.045 112.454 344.42 112.456 344.886C112.469 345.065 112.47 345.245 112.458 345.424L112.588 380.454C112.6 381.617 112.77 382.773 113.093 383.889C113.701 385.637 114.647 387.247 115.876 388.624C116.984 389.825 118.327 390.782 119.819 391.434C121.312 392.086 122.922 392.42 124.549 392.414L141.816 392.35C141.958 392.32 142.102 392.303 142.248 392.298C142.433 392.295 142.619 392.311 142.801 392.347Z" fill="#EAEAEA" fill-opacity="0.2"/>
<path d="M96.4787 350.571C96.5272 359.643 93.1626 368.366 87.1181 374.84C81.0737 381.313 72.8394 385.011 64.2098 385.129L63.5921 385.131C57.0086 385.117 50.5818 383.014 45.1534 379.096C39.725 375.178 35.548 369.629 33.1696 363.175C30.7911 356.721 30.322 349.662 31.8237 342.925C33.3255 336.187 36.728 330.084 41.5857 325.415C41.7175 325.252 41.8275 325.17 41.8276 325.194L42.0585 324.996L42.1794 324.891L42.3113 324.763L44.6756 322.794C44.8069 322.634 44.9586 322.493 45.1263 322.375C50.0304 318.811 55.7678 316.723 61.7194 316.336C67.671 315.949 73.6106 317.279 78.8972 320.181C84.1838 323.083 88.6165 327.447 91.7169 332.803C94.8173 338.159 96.4676 344.302 96.4897 350.571L96.4787 350.571ZM47.5563 332.199C44.02 335.616 41.5439 340.072 40.4497 344.988C39.3556 349.905 39.6941 355.054 41.4213 359.767C43.1485 364.48 46.1845 368.538 50.1344 371.413C54.0843 374.288 58.7654 375.848 63.5689 375.89L64.0874 375.888C70.3547 375.696 76.3002 372.931 80.649 368.184C84.9977 363.437 87.4033 357.088 87.35 350.497C87.2968 343.906 84.7888 337.598 80.364 332.927C75.9392 328.255 69.9499 325.591 63.6803 325.507C58.8935 325.524 54.2237 327.061 50.2834 329.916L47.7983 332.013L47.5672 332.176L47.5563 332.199Z" fill="#EAEAEA" fill-opacity="0.2"/>
<path d="M96.4787 350.571C96.5272 359.643 93.1626 368.366 87.1181 374.84C81.0737 381.313 72.8394 385.011 64.2098 385.129L63.5921 385.131C57.0086 385.117 50.5818 383.014 45.1534 379.096C39.725 375.178 35.548 369.629 33.1696 363.175C30.7911 356.721 30.322 349.662 31.8237 342.925C33.3255 336.187 36.728 330.084 41.5857 325.415C41.7175 325.252 41.8275 325.17 41.8276 325.194L42.0585 324.996L42.1794 324.891L42.3113 324.763L44.6756 322.794C44.8069 322.634 44.9586 322.493 45.1263 322.375C50.0304 318.811 55.7678 316.723 61.7194 316.336C67.671 315.949 73.6106 317.279 78.8972 320.181C84.1838 323.083 88.6165 327.447 91.7169 332.803C94.8173 338.159 96.4676 344.302 96.4897 350.571L96.4787 350.571ZM47.5563 332.199C44.02 335.616 41.5439 340.072 40.4497 344.988C39.3556 349.905 39.6941 355.054 41.4213 359.767C43.1485 364.48 46.1845 368.538 50.1344 371.413C54.0843 374.288 58.7654 375.848 63.5689 375.89L64.0874 375.888C70.3547 375.696 76.3002 372.931 80.649 368.184C84.9977 363.437 87.4033 357.088 87.35 350.497C87.2968 343.906 84.7888 337.598 80.364 332.927C75.9392 328.255 69.9499 325.591 63.6803 325.507C58.8935 325.524 54.2237 327.061 50.2834 329.916L47.7983 332.013L47.5672 332.176L47.5563 332.199Z" fill="#EAEAEA" fill-opacity="0.2"/>
<path d="M16.0663 527.468L15.6715 420.803C15.6386 415.507 13.5073 410.44 9.74537 406.715C5.98345 402.99 0.89823 400.91 -4.39435 400.932L-32.0191 401.034C-34.7438 401.048 -37.4365 401.622 -39.9304 402.72C-42.4244 403.818 -44.6662 405.417 -46.5171 407.418L-46.6373 407.549C-48.4815 409.63 -49.9067 412.047 -50.8346 414.669L-50.9742 415.001C-51.5886 416.956 -51.8966 418.994 -51.8871 421.043L-51.7518 457.59C-51.7156 466.664 -54.548 475.516 -59.8438 482.881C-65.1396 490.246 -72.6275 495.746 -81.2364 498.595C-81.9381 498.819 -82.565 499.231 -83.0488 499.786C-83.5326 500.341 -83.8548 501.019 -83.9802 501.745C-83.9898 501.852 -83.9894 501.96 -83.9791 502.067L-83.9776 502.459C-83.9733 503.063 -83.8379 503.659 -83.5806 504.206C-83.3233 504.752 -82.9503 505.236 -82.4876 505.624L-35.1835 543.225C-31.6105 546.08 -27.169 547.626 -22.5967 547.606L-3.85165 547.536C-1.22673 547.528 1.3708 547.002 3.79256 545.989C6.21433 544.976 8.41286 543.495 10.2626 541.631C12.1122 539.768 13.5768 537.558 14.5727 535.127C15.5685 532.697 16.0761 530.094 16.0663 527.468ZM-13.7373 408.947L-4.36481 408.912C-1.20151 408.898 1.83838 410.139 4.08815 412.364C6.33793 414.59 7.61392 417.617 7.63629 420.782L8.03132 527.497C8.03506 530.665 6.78302 533.706 4.5498 535.951C2.31658 538.197 -0.715519 539.464 -3.88149 539.476L-22.6466 539.546C-25.3842 539.52 -28.0349 538.58 -30.1788 536.877L-72.1674 503.513C-63.5911 499.29 -56.3757 492.737 -51.3462 484.604C-46.3167 476.47 -43.6763 467.085 -43.727 457.521C-43.7285 457.108 -43.7299 456.736 -43.7316 456.273C-43.7196 456.095 -43.7202 455.917 -43.7335 455.739L-43.8622 420.973C-43.8587 419.818 -43.6972 418.67 -43.3821 417.56C-42.7867 415.82 -41.8527 414.216 -40.6341 412.84C-39.535 411.64 -38.1996 410.68 -36.7119 410.022C-35.2241 409.364 -33.6163 409.02 -31.9896 409.014L-14.7228 408.95C-14.5803 408.979 -14.4356 408.995 -14.2902 408.999C-14.1046 409.001 -13.9193 408.983 -13.7373 408.947Z" fill="#EAEAEA" fill-opacity="0.2"/>
<path d="M16.0663 527.468L15.6715 420.803C15.6386 415.507 13.5073 410.44 9.74537 406.715C5.98345 402.99 0.89823 400.91 -4.39435 400.932L-32.0191 401.034C-34.7438 401.048 -37.4365 401.622 -39.9304 402.72C-42.4244 403.818 -44.6662 405.417 -46.5171 407.418L-46.6373 407.549C-48.4815 409.63 -49.9067 412.047 -50.8346 414.669L-50.9742 415.001C-51.5886 416.956 -51.8966 418.994 -51.8871 421.043L-51.7518 457.59C-51.7156 466.664 -54.548 475.516 -59.8438 482.881C-65.1396 490.246 -72.6275 495.746 -81.2364 498.595C-81.9381 498.819 -82.565 499.231 -83.0488 499.786C-83.5326 500.341 -83.8548 501.019 -83.9802 501.745C-83.9898 501.852 -83.9894 501.96 -83.9791 502.067L-83.9776 502.459C-83.9733 503.063 -83.8379 503.659 -83.5806 504.206C-83.3233 504.752 -82.9503 505.236 -82.4876 505.624L-35.1835 543.225C-31.6105 546.08 -27.169 547.626 -22.5967 547.606L-3.85165 547.536C-1.22673 547.528 1.3708 547.002 3.79256 545.989C6.21433 544.976 8.41286 543.495 10.2626 541.631C12.1122 539.768 13.5768 537.558 14.5727 535.127C15.5685 532.697 16.0761 530.094 16.0663 527.468ZM-13.7373 408.947L-4.36481 408.912C-1.20151 408.898 1.83838 410.139 4.08815 412.364C6.33793 414.59 7.61392 417.617 7.63629 420.782L8.03132 527.497C8.03506 530.665 6.78302 533.706 4.5498 535.951C2.31658 538.197 -0.715519 539.464 -3.88149 539.476L-22.6466 539.546C-25.3842 539.52 -28.0349 538.58 -30.1788 536.877L-72.1674 503.513C-63.5911 499.29 -56.3757 492.737 -51.3462 484.604C-46.3167 476.47 -43.6763 467.085 -43.727 457.521C-43.7285 457.108 -43.7299 456.736 -43.7316 456.273C-43.7196 456.095 -43.7202 455.917 -43.7335 455.739L-43.8622 420.973C-43.8587 419.818 -43.6972 418.67 -43.3821 417.56C-42.7867 415.82 -41.8527 414.216 -40.6341 412.84C-39.535 411.64 -38.1996 410.68 -36.7119 410.022C-35.2241 409.364 -33.6163 409.02 -31.9896 409.014L-14.7228 408.95C-14.5803 408.979 -14.4356 408.995 -14.2902 408.999C-14.1046 409.001 -13.9193 408.983 -13.7373 408.947Z" fill="#EAEAEA" fill-opacity="0.2"/>
<path d="M-25.8829 296.607L-26.2777 189.942C-26.284 184.646 -24.1903 179.564 -20.4561 175.811C-16.7218 172.058 -11.6522 169.94 -6.35956 169.924L21.2652 169.821C23.9899 169.815 26.6868 170.369 29.1888 171.448C31.6908 172.528 33.9444 174.11 35.81 176.097L35.9312 176.227C37.7908 178.294 39.2339 180.701 40.1811 183.316L40.3232 183.648C40.9521 185.597 41.2751 187.633 41.2807 189.682L41.416 226.23C41.447 235.303 44.3449 244.134 49.6951 251.46C55.0453 258.785 62.5737 264.23 71.2035 267.015C71.9067 267.233 72.5367 267.641 73.0246 268.192C73.5125 268.744 73.8397 269.419 73.9705 270.144C73.9809 270.251 73.9813 270.359 73.9717 270.466L73.9732 270.859C73.9734 271.463 73.8423 272.06 73.5891 272.608C73.3358 273.156 72.9665 273.643 72.5066 274.034L25.4822 311.984C21.9304 314.866 17.5005 316.444 12.9282 316.458L-5.81687 316.528C-8.44178 316.539 -11.0431 316.032 -13.4723 315.037C-15.9015 314.042 -18.111 312.577 -19.9744 310.727C-21.8378 308.877 -23.3188 306.678 -24.3326 304.255C-25.3464 301.833 -25.8732 299.234 -25.8829 296.607ZM3.0425 177.869L-6.33002 177.903C-9.49334 177.912 -12.524 179.176 -14.7572 181.418C-16.9904 183.66 -18.244 186.697 -18.2429 189.862L-17.8479 296.577C-17.8282 299.745 -16.5536 302.776 -14.3039 305.005C-12.0541 307.234 -9.01268 308.479 -5.8467 308.468L12.9184 308.398C15.6558 308.352 18.2994 307.393 20.4306 305.673L62.1711 271.999C53.5638 267.84 46.3 261.341 41.2105 253.245C36.1209 245.149 33.4111 235.784 33.3909 226.219C33.3894 225.807 33.388 225.434 33.3863 224.971C33.373 224.794 33.3723 224.616 33.3843 224.438L33.2556 189.671C33.2435 188.517 33.0735 187.37 32.7502 186.262C32.1419 184.527 31.1961 182.93 29.9673 181.563C28.8594 180.371 27.5169 179.421 26.0244 178.774C24.5318 178.126 22.9215 177.795 21.2948 177.801L4.02802 177.865C3.88573 177.895 3.74111 177.912 3.59579 177.917C3.41018 177.92 3.22473 177.904 3.0425 177.869Z" fill="#EAEAEA" fill-opacity="0.2"/>
<path d="M-25.8829 296.607L-26.2777 189.942C-26.284 184.646 -24.1903 179.564 -20.4561 175.811C-16.7218 172.058 -11.6522 169.94 -6.35956 169.924L21.2652 169.821C23.9899 169.815 26.6868 170.369 29.1888 171.448C31.6908 172.528 33.9444 174.11 35.81 176.097L35.9312 176.227C37.7908 178.294 39.2339 180.701 40.1811 183.316L40.3232 183.648C40.9521 185.597 41.2751 187.633 41.2807 189.682L41.416 226.23C41.447 235.303 44.3449 244.134 49.6951 251.46C55.0453 258.785 62.5737 264.23 71.2035 267.015C71.9067 267.233 72.5367 267.641 73.0246 268.192C73.5125 268.744 73.8397 269.419 73.9705 270.144C73.9809 270.251 73.9813 270.359 73.9717 270.466L73.9732 270.859C73.9734 271.463 73.8423 272.06 73.5891 272.608C73.3358 273.156 72.9665 273.643 72.5066 274.034L25.4822 311.984C21.9304 314.866 17.5005 316.444 12.9282 316.458L-5.81687 316.528C-8.44178 316.539 -11.0431 316.032 -13.4723 315.037C-15.9015 314.042 -18.111 312.577 -19.9744 310.727C-21.8378 308.877 -23.3188 306.678 -24.3326 304.255C-25.3464 301.833 -25.8732 299.234 -25.8829 296.607ZM3.0425 177.869L-6.33002 177.903C-9.49334 177.912 -12.524 179.176 -14.7572 181.418C-16.9904 183.66 -18.244 186.697 -18.2429 189.862L-17.8479 296.577C-17.8282 299.745 -16.5536 302.776 -14.3039 305.005C-12.0541 307.234 -9.01268 308.479 -5.8467 308.468L12.9184 308.398C15.6558 308.352 18.2994 307.393 20.4306 305.673L62.1711 271.999C53.5638 267.84 46.3 261.341 41.2105 253.245C36.1209 245.149 33.4111 235.784 33.3909 226.219C33.3894 225.807 33.388 225.434 33.3863 224.971C33.373 224.794 33.3723 224.616 33.3843 224.438L33.2556 189.671C33.2435 188.517 33.0735 187.37 32.7502 186.262C32.1419 184.527 31.1961 182.93 29.9673 181.563C28.8594 180.371 27.5169 179.421 26.0244 178.774C24.5318 178.126 22.9215 177.795 21.2948 177.801L4.02802 177.865C3.88573 177.895 3.74111 177.912 3.59579 177.917C3.41018 177.92 3.22473 177.904 3.0425 177.869Z" fill="#EAEAEA" fill-opacity="0.2"/>
<path d="M49.3651 218.594C49.3166 209.522 52.6812 200.799 58.7256 194.326C64.7701 187.852 73.0044 184.154 81.6339 184.036L82.2516 184.034C88.8351 184.048 95.2619 186.151 100.69 190.069C106.119 193.987 110.296 199.536 112.674 205.991C115.053 212.445 115.522 219.503 114.02 226.241C112.518 232.978 109.116 239.081 104.258 243.751C104.126 243.913 104.016 243.995 104.016 243.972L103.785 244.17L103.664 244.275L103.532 244.403L101.168 246.371C101.037 246.532 100.885 246.673 100.717 246.79C95.8134 250.354 90.0759 252.443 84.1243 252.829C78.1728 253.216 72.2331 251.887 66.9465 248.985C61.6599 246.083 57.2272 241.718 54.1268 236.362C51.0264 231.007 49.3761 224.863 49.354 218.594L49.3651 218.594ZM98.2875 236.966C101.824 233.55 104.3 229.093 105.394 224.177C106.488 219.26 106.15 214.111 104.422 209.398C102.695 204.686 99.6593 200.628 95.7094 197.752C91.7595 194.877 87.0784 193.317 82.2748 193.276L81.7564 193.277C75.489 193.469 69.5435 196.235 65.1948 200.981C60.8461 205.728 58.4405 212.077 58.4937 218.668C58.547 225.259 61.0549 231.567 65.4797 236.238C69.9045 240.91 75.8939 243.574 82.1635 243.658C86.9503 243.642 91.62 242.105 95.5603 239.249L98.0455 237.152L98.2765 236.989L98.2875 236.966Z" fill="#EAEAEA" fill-opacity="0.2"/>
<path d="M49.3651 218.594C49.3166 209.522 52.6812 200.799 58.7256 194.326C64.7701 187.852 73.0044 184.154 81.6339 184.036L82.2516 184.034C88.8351 184.048 95.2619 186.151 100.69 190.069C106.119 193.987 110.296 199.536 112.674 205.991C115.053 212.445 115.522 219.503 114.02 226.241C112.518 232.978 109.116 239.081 104.258 243.751C104.126 243.913 104.016 243.995 104.016 243.972L103.785 244.17L103.664 244.275L103.532 244.403L101.168 246.371C101.037 246.532 100.885 246.673 100.717 246.79C95.8134 250.354 90.0759 252.443 84.1243 252.829C78.1728 253.216 72.2331 251.887 66.9465 248.985C61.6599 246.083 57.2272 241.718 54.1268 236.362C51.0264 231.007 49.3761 224.863 49.354 218.594L49.3651 218.594ZM98.2875 236.966C101.824 233.55 104.3 229.093 105.394 224.177C106.488 219.26 106.15 214.111 104.422 209.398C102.695 204.686 99.6593 200.628 95.7094 197.752C91.7595 194.877 87.0784 193.317 82.2748 193.276L81.7564 193.277C75.489 193.469 69.5435 196.235 65.1948 200.981C60.8461 205.728 58.4405 212.077 58.4937 218.668C58.547 225.259 61.0549 231.567 65.4797 236.238C69.9045 240.91 75.8939 243.574 82.1635 243.658C86.9503 243.642 91.62 242.105 95.5603 239.249L98.0455 237.152L98.2765 236.989L98.2875 236.966Z" fill="#EAEAEA" fill-opacity="0.2"/>
<path d="M100.191 150.493L99.7931 43.0198C99.7599 37.6838 97.605 32.5789 93.8014 28.8255C89.9977 25.072 84.856 22.9766 79.5046 22.9991L51.5729 23.1025C48.818 23.1164 46.0953 23.6944 43.5736 24.8008C41.052 25.9072 38.7852 27.5183 36.9138 29.5343L36.7923 29.6666C34.9275 31.7631 33.4864 34.199 32.5482 36.8405L32.407 37.1756C31.7857 39.1448 31.4743 41.1982 31.4839 43.2625L31.6203 80.0873C31.6567 89.2293 28.7927 98.1486 23.438 105.569C18.0832 112.99 10.512 118.532 1.80745 121.403C1.09801 121.628 0.464154 122.043 -0.0250496 122.603C-0.514253 123.162 -0.840029 123.845 -0.966884 124.577C-0.97654 124.685 -0.976138 124.793 -0.965683 124.901L-0.964219 125.297C-0.959907 125.905 -0.822941 126.506 -0.562806 127.056C-0.302672 127.607 0.0744256 128.094 0.542314 128.485L48.3715 166.37C51.9842 169.247 56.475 170.804 61.0981 170.784L80.0514 170.714C82.7055 170.706 85.3319 170.176 87.7806 169.155C90.2293 168.134 92.4523 166.642 94.3225 164.764C96.1928 162.886 97.6737 160.659 98.6806 158.211C99.6876 155.762 100.201 153.14 100.191 150.493ZM70.0577 31.0744L79.5344 31.0394C82.7328 31.0248 85.8065 32.2758 88.0812 34.5178C90.356 36.7598 91.6461 39.8099 91.6687 42.9992L92.0667 150.523C92.0704 153.715 90.8044 156.778 88.5464 159.041C86.2883 161.304 83.2225 162.581 80.0214 162.593L61.0477 162.663C58.2797 162.637 55.5996 161.69 53.4319 159.974L10.9772 126.358C19.6488 122.103 26.9445 115.5 32.03 107.305C37.1154 99.1101 39.7853 89.6535 39.7342 80.0167C39.7327 79.601 39.7313 79.2259 39.7296 78.7595C39.7417 78.5805 39.7411 78.401 39.7276 78.2221L39.5979 43.1919C39.6015 42.0289 39.7649 40.8718 40.0834 39.753C40.6855 38.0004 41.6299 36.3841 42.8621 34.9976C43.9733 33.7884 45.3236 32.8216 46.8279 32.1582C48.3322 31.4948 49.9578 31.149 51.6026 31.1428L69.0613 31.0781C69.2053 31.1072 69.3517 31.1237 69.4987 31.1272C69.6863 31.1292 69.8737 31.1115 70.0577 31.0744Z" fill="#EAEAEA" fill-opacity="0.2"/>
<path d="M100.191 150.493L99.7931 43.0198C99.7599 37.6838 97.605 32.5789 93.8014 28.8255C89.9977 25.072 84.856 22.9766 79.5046 22.9991L51.5729 23.1025C48.818 23.1164 46.0953 23.6944 43.5736 24.8008C41.052 25.9072 38.7852 27.5183 36.9138 29.5343L36.7923 29.6666C34.9275 31.7631 33.4864 34.199 32.5482 36.8405L32.407 37.1756C31.7857 39.1448 31.4743 41.1982 31.4839 43.2625L31.6203 80.0873C31.6567 89.2293 28.7927 98.1486 23.438 105.569C18.0832 112.99 10.512 118.532 1.80745 121.403C1.09801 121.628 0.464154 122.043 -0.0250496 122.603C-0.514253 123.162 -0.840029 123.845 -0.966884 124.577C-0.97654 124.685 -0.976138 124.793 -0.965683 124.901L-0.964219 125.297C-0.959907 125.905 -0.822941 126.506 -0.562806 127.056C-0.302672 127.607 0.0744256 128.094 0.542314 128.485L48.3715 166.37C51.9842 169.247 56.475 170.804 61.0981 170.784L80.0514 170.714C82.7055 170.706 85.3319 170.176 87.7806 169.155C90.2293 168.134 92.4523 166.642 94.3225 164.764C96.1928 162.886 97.6737 160.659 98.6806 158.211C99.6876 155.762 100.201 153.14 100.191 150.493ZM70.0577 31.0744L79.5344 31.0394C82.7328 31.0248 85.8065 32.2758 88.0812 34.5178C90.356 36.7598 91.6461 39.8099 91.6687 42.9992L92.0667 150.523C92.0704 153.715 90.8044 156.778 88.5464 159.041C86.2883 161.304 83.2225 162.581 80.0214 162.593L61.0477 162.663C58.2797 162.637 55.5996 161.69 53.4319 159.974L10.9772 126.358C19.6488 122.103 26.9445 115.5 32.03 107.305C37.1154 99.1101 39.7853 89.6535 39.7342 80.0167C39.7327 79.601 39.7313 79.2259 39.7296 78.7595C39.7417 78.5805 39.7411 78.401 39.7276 78.2221L39.5979 43.1919C39.6015 42.0289 39.7649 40.8718 40.0834 39.753C40.6855 38.0004 41.6299 36.3841 42.8621 34.9976C43.9733 33.7884 45.3236 32.8216 46.8279 32.1582C48.3322 31.4948 49.9578 31.149 51.6026 31.1428L69.0613 31.0781C69.2053 31.1072 69.3517 31.1237 69.4987 31.1272C69.6863 31.1292 69.8737 31.1115 70.0577 31.0744Z" fill="#EAEAEA" fill-opacity="0.2"/>
<path d="M24.372 73.7465C24.3542 64.8205 20.868 56.2631 14.6733 49.9392C8.47865 43.6153 0.0776395 40.0376 -8.69882 39.9858L-9.32699 39.9881C-16.0218 40.0505 -22.5418 42.1676 -28.0331 46.0623C-33.5243 49.9571 -37.7308 55.4477 -40.1017 61.8153C-42.4726 68.1828 -42.8974 75.1303 -41.3204 81.748C-39.7433 88.3657 -36.238 94.3449 -31.2635 98.9028C-31.1283 99.062 -31.0158 99.1414 -31.0159 99.1186L-30.7796 99.3117L-30.6559 99.4139L-30.5208 99.5389L-28.1019 101.458C-27.9672 101.615 -27.8119 101.753 -27.6405 101.867C-22.6271 105.337 -16.777 107.349 -10.7219 107.686C-4.66672 108.022 1.3636 106.67 6.71815 103.776C12.0727 100.882 16.5481 96.5549 19.6613 91.2627C22.7745 85.9704 24.4072 79.9138 24.3832 73.7465L24.372 73.7465ZM-25.2422 92.1837C-28.8635 88.8487 -31.4146 84.4829 -32.5637 79.6538C-33.7128 74.8248 -33.4066 69.7561 -31.6851 65.1067C-29.9636 60.4574 -26.9063 56.4426 -22.9109 53.5844C-18.9154 50.7262 -14.1667 49.1569 -9.28214 49.0805L-8.75492 49.0785C-2.38009 49.2206 3.68653 51.8975 8.14398 56.5352C12.6014 61.1729 15.0948 67.402 15.0895 73.8869C15.0841 80.3718 12.5805 86.596 8.11536 91.2249C3.65028 95.8539 -2.4207 98.5189 -8.79576 98.6485C-13.6637 98.6674 -18.4238 97.1899 -22.452 94.4095L-24.9947 92.3653L-25.2308 92.2065L-25.2422 92.1837Z" fill="#EAEAEA" fill-opacity="0.2"/>
<path d="M24.372 73.7465C24.3542 64.8205 20.868 56.2631 14.6733 49.9392C8.47865 43.6153 0.0776395 40.0376 -8.69882 39.9858L-9.32699 39.9881C-16.0218 40.0505 -22.5418 42.1676 -28.0331 46.0623C-33.5243 49.9571 -37.7308 55.4477 -40.1017 61.8153C-42.4726 68.1828 -42.8974 75.1303 -41.3204 81.748C-39.7433 88.3657 -36.238 94.3449 -31.2635 98.9028C-31.1283 99.062 -31.0158 99.1414 -31.0159 99.1186L-30.7796 99.3117L-30.6559 99.4139L-30.5208 99.5389L-28.1019 101.458C-27.9672 101.615 -27.8119 101.753 -27.6405 101.867C-22.6271 105.337 -16.777 107.349 -10.7219 107.686C-4.66672 108.022 1.3636 106.67 6.71815 103.776C12.0727 100.882 16.5481 96.5549 19.6613 91.2627C22.7745 85.9704 24.4072 79.9138 24.3832 73.7465L24.372 73.7465ZM-25.2422 92.1837C-28.8635 88.8487 -31.4146 84.4829 -32.5637 79.6538C-33.7128 74.8248 -33.4066 69.7561 -31.6851 65.1067C-29.9636 60.4574 -26.9063 56.4426 -22.9109 53.5844C-18.9154 50.7262 -14.1667 49.1569 -9.28214 49.0805L-8.75492 49.0785C-2.38009 49.2206 3.68653 51.8975 8.14398 56.5352C12.6014 61.1729 15.0948 67.402 15.0895 73.8869C15.0841 80.3718 12.5805 86.596 8.11536 91.2249C3.65028 95.8539 -2.4207 98.5189 -8.79576 98.6485C-13.6637 98.6674 -18.4238 97.1899 -22.452 94.4095L-24.9947 92.3653L-25.2308 92.2065L-25.2422 92.1837Z" fill="#EAEAEA" fill-opacity="0.2"/>
<path d="M68.5021 562.198L174.527 561.42C179.791 561.395 184.85 563.47 188.594 567.19C192.338 570.91 194.461 575.971 194.497 581.263L194.697 608.882C194.713 611.606 194.172 614.304 193.108 616.81C192.044 619.315 190.479 621.574 188.511 623.446L188.382 623.568C186.334 625.434 183.946 626.886 181.351 627.842L181.022 627.985C179.086 628.621 177.064 628.952 175.027 628.965L138.698 629.231C129.68 629.294 120.912 632.223 113.649 637.599C106.387 642.974 101.002 650.521 98.2639 659.159C98.0495 659.863 97.647 660.494 97.1002 660.984C96.5534 661.473 95.8834 661.803 95.1632 661.936C95.0568 661.947 94.9496 661.948 94.8431 661.939L94.453 661.942C93.8526 661.944 93.2589 661.815 92.713 661.564C92.1671 661.313 91.6821 660.945 91.2915 660.487L53.4006 613.608C50.5239 610.067 48.9387 605.644 48.9084 601.072L48.7724 582.331C48.7521 579.707 49.2463 577.104 50.227 574.672C51.2076 572.239 52.6553 570.025 54.4875 568.155C56.3197 566.286 58.5004 564.797 60.9051 563.775C63.3098 562.753 65.8913 562.217 68.5021 562.198ZM186.633 590.691L186.565 581.321C186.544 578.158 185.277 575.133 183.041 572.908C180.804 570.683 177.782 569.441 174.635 569.453L68.5604 570.231C65.4115 570.262 62.4034 571.547 60.1958 573.804C57.9882 576.062 56.7614 579.107 56.7843 582.272L56.9204 601.034C56.9762 603.77 57.9388 606.41 59.6556 608.534L93.2771 650.146C97.3806 641.525 103.815 634.24 111.844 629.122C119.873 624.005 129.173 621.262 138.68 621.207C139.09 621.204 139.46 621.202 139.921 621.198C140.097 621.184 140.274 621.183 140.451 621.194L175.009 620.941C176.156 620.925 177.296 620.751 178.396 620.423C180.118 619.809 181.703 618.858 183.057 617.624C184.238 616.512 185.177 615.167 185.815 613.672C186.453 612.177 186.777 610.566 186.765 608.94L186.64 591.677C186.61 591.535 186.592 591.39 186.587 591.245C186.583 591.059 186.598 590.874 186.633 590.691Z" fill="#EAEAEA" fill-opacity="0.2"/>
<path d="M68.5021 562.198L174.527 561.42C179.791 561.395 184.85 563.47 188.594 567.19C192.338 570.91 194.461 575.971 194.497 581.263L194.697 608.882C194.713 611.606 194.172 614.304 193.108 616.81C192.044 619.315 190.479 621.574 188.511 623.446L188.382 623.568C186.334 625.434 183.946 626.886 181.351 627.842L181.022 627.985C179.086 628.621 177.064 628.952 175.027 628.965L138.698 629.231C129.68 629.294 120.912 632.223 113.649 637.599C106.387 642.974 101.002 650.521 98.2639 659.159C98.0495 659.863 97.647 660.494 97.1002 660.984C96.5534 661.473 95.8834 661.803 95.1632 661.936C95.0568 661.947 94.9496 661.948 94.8431 661.939L94.453 661.942C93.8526 661.944 93.2589 661.815 92.713 661.564C92.1671 661.313 91.6821 660.945 91.2915 660.487L53.4006 613.608C50.5239 610.067 48.9387 605.644 48.9084 601.072L48.7724 582.331C48.7521 579.707 49.2463 577.104 50.227 574.672C51.2076 572.239 52.6553 570.025 54.4875 568.155C56.3197 566.286 58.5004 564.797 60.9051 563.775C63.3098 562.753 65.8913 562.217 68.5021 562.198ZM186.633 590.691L186.565 581.321C186.544 578.158 185.277 575.133 183.041 572.908C180.804 570.683 177.782 569.441 174.635 569.453L68.5604 570.231C65.4115 570.262 62.4034 571.547 60.1958 573.804C57.9882 576.062 56.7614 579.107 56.7843 582.272L56.9204 601.034C56.9762 603.77 57.9388 606.41 59.6556 608.534L93.2771 650.146C97.3806 641.525 103.815 634.24 111.844 629.122C119.873 624.005 129.173 621.262 138.68 621.207C139.09 621.204 139.46 621.202 139.921 621.198C140.097 621.184 140.274 621.183 140.451 621.194L175.009 620.941C176.156 620.925 177.296 620.751 178.396 620.423C180.118 619.809 181.703 618.858 183.057 617.624C184.238 616.512 185.177 615.167 185.815 613.672C186.453 612.177 186.777 610.566 186.765 608.94L186.64 591.677C186.61 591.535 186.592 591.39 186.587 591.245C186.583 591.059 186.598 590.874 186.633 590.691Z" fill="#EAEAEA" fill-opacity="0.2"/>
<path d="M145.448 637.039C154.362 636.959 162.946 640.349 169.329 646.473C175.712 652.596 179.376 660.956 179.524 669.73L179.529 670.358C179.54 677.051 177.497 683.593 173.668 689.126C169.839 694.659 164.402 698.925 158.069 701.365C151.736 703.806 144.803 704.307 138.177 702.803C131.551 701.299 125.542 697.861 120.936 692.938C120.776 692.805 120.695 692.693 120.718 692.693L120.522 692.459L120.419 692.336L120.293 692.202L118.35 689.805C118.191 689.672 118.052 689.519 117.936 689.348C114.416 684.375 112.343 678.548 111.94 672.498C111.538 666.448 112.822 660.405 115.654 655.02C118.485 649.634 122.757 645.112 128.008 641.942C133.259 638.771 139.289 637.072 145.448 637.028L145.448 637.039ZM127.58 686.844C130.95 690.428 135.338 692.93 140.173 694.026C145.007 695.121 150.066 694.759 154.69 692.987C159.314 691.215 163.29 688.114 166.1 684.088C168.911 680.062 170.426 675.297 170.449 670.413L170.445 669.886C170.233 663.514 167.493 657.479 162.813 653.073C158.133 648.668 151.885 646.244 145.41 646.321C138.934 646.398 132.746 648.969 128.172 653.484C123.598 657.999 121.004 664.098 120.944 670.473C120.978 675.34 122.506 680.083 125.327 684.079L127.396 686.599L127.557 686.833L127.58 686.844Z" fill="#EAEAEA" fill-opacity="0.2"/>
<path d="M145.448 637.039C154.362 636.959 162.946 640.349 169.329 646.473C175.712 652.596 179.376 660.956 179.524 669.73L179.529 670.358C179.54 677.051 177.497 683.593 173.668 689.126C169.839 694.659 164.402 698.925 158.069 701.365C151.736 703.806 144.803 704.307 138.177 702.803C131.551 701.299 125.542 697.861 120.936 692.938C120.776 692.805 120.695 692.693 120.718 692.693L120.522 692.459L120.419 692.336L120.293 692.202L118.35 689.805C118.191 689.672 118.052 689.519 117.936 689.348C114.416 684.375 112.343 678.548 111.94 672.498C111.538 666.448 112.822 660.405 115.654 655.02C118.485 649.634 122.757 645.112 128.008 641.942C133.259 638.771 139.289 637.072 145.448 637.028L145.448 637.039ZM127.58 686.844C130.95 690.428 135.338 692.93 140.173 694.026C145.007 695.121 150.066 694.759 154.69 692.987C159.314 691.215 163.29 688.114 166.1 684.088C168.911 680.062 170.426 675.297 170.449 670.413L170.445 669.886C170.233 663.514 167.493 657.479 162.813 653.073C158.133 648.668 151.885 646.244 145.41 646.321C138.934 646.398 132.746 648.969 128.172 653.484C123.598 657.999 121.004 664.098 120.944 670.473C120.978 675.34 122.506 680.083 125.327 684.079L127.396 686.599L127.557 686.833L127.58 686.844Z" fill="#EAEAEA" fill-opacity="0.2"/>
<path d="M139.822 144.641L245.847 143.864C251.111 143.838 256.171 145.913 259.915 149.633C263.658 153.353 265.781 158.415 265.817 163.706L266.017 191.325C266.033 194.049 265.493 196.748 264.429 199.253C263.364 201.758 261.8 204.017 259.831 205.89L259.702 206.011C257.654 207.878 255.267 209.329 252.671 210.286L252.342 210.429C250.406 211.065 248.384 211.395 246.347 211.408L210.019 211.674C201 211.738 192.232 214.667 184.97 220.042C177.707 225.418 172.322 232.964 169.584 241.602C169.37 242.306 168.967 242.937 168.421 243.427C167.874 243.917 167.204 244.246 166.483 244.38C166.377 244.39 166.27 244.391 166.163 244.382L165.773 244.385C165.173 244.387 164.579 244.258 164.033 244.007C163.487 243.756 163.002 243.388 162.612 242.93L124.721 196.051C121.844 192.51 120.259 188.087 120.229 183.515L120.093 164.774C120.072 162.15 120.567 159.547 121.547 157.115C122.528 154.683 123.976 152.469 125.808 150.599C127.64 148.729 129.821 147.241 132.225 146.218C134.63 145.196 137.212 144.66 139.822 144.641ZM257.953 173.135L257.885 163.764C257.865 160.602 256.597 157.576 254.361 155.351C252.125 153.127 249.102 151.884 245.956 151.897L139.881 152.674C136.732 152.705 133.724 153.99 131.516 156.248C129.308 158.505 128.082 161.55 128.105 164.716L128.241 183.477C128.297 186.213 129.259 188.853 130.976 190.978L164.597 232.589C168.701 223.969 175.135 216.683 183.164 211.566C191.194 206.448 200.494 203.705 210.001 203.651C210.411 203.648 210.781 203.645 211.241 203.642C211.417 203.628 211.594 203.626 211.771 203.638L246.329 203.384C247.476 203.368 248.616 203.194 249.716 202.867C251.439 202.252 253.023 201.301 254.377 200.068C255.558 198.956 256.497 197.61 257.135 196.115C257.774 194.621 258.097 193.01 258.085 191.383L257.96 174.12C257.93 173.978 257.912 173.833 257.907 173.688C257.903 173.503 257.918 173.317 257.953 173.135Z" fill="#EAEAEA" fill-opacity="0.2"/>
<path d="M216.769 219.482C225.682 219.402 234.266 222.793 240.649 228.916C247.032 235.04 250.697 243.399 250.845 252.173L250.849 252.801C250.86 259.495 248.817 266.036 244.988 271.569C241.159 277.102 235.722 281.368 229.389 283.809C223.056 286.249 216.123 286.75 209.498 285.247C202.872 283.743 196.862 280.304 192.256 275.381C192.096 275.248 192.015 275.136 192.038 275.136L191.843 274.902L191.739 274.779L191.613 274.646L189.67 272.249C189.512 272.116 189.373 271.962 189.257 271.792C185.736 266.818 183.663 260.992 183.261 254.942C182.858 248.892 184.142 242.848 186.974 237.463C189.806 232.078 194.077 227.556 199.328 224.385C204.579 221.214 210.609 219.515 216.768 219.471L216.769 219.482ZM198.9 269.287C202.27 272.871 206.658 275.373 211.493 276.469C216.328 277.565 221.386 277.203 226.01 275.43C230.634 273.658 234.61 270.557 237.42 266.531C240.231 262.505 241.746 257.74 241.769 252.856L241.765 252.329C241.553 245.958 238.814 239.922 234.134 235.517C229.454 231.111 223.206 228.687 216.73 228.764C210.254 228.841 204.066 231.413 199.492 235.928C194.919 240.443 192.324 246.541 192.264 252.916C192.299 257.783 193.826 262.526 196.647 266.522L198.716 269.042L198.877 269.276L198.9 269.287Z" fill="#EAEAEA" fill-opacity="0.2"/>
<path d="M336.623 681.572L230.598 682.35C225.334 682.375 220.275 680.3 216.531 676.58C212.787 672.86 210.664 667.799 210.628 662.507L210.428 634.888C210.412 632.164 210.953 629.466 212.017 626.96C213.081 624.455 214.646 622.196 216.614 620.324L216.743 620.202C218.791 618.336 221.179 616.884 223.774 615.928L224.103 615.785C226.039 615.149 228.061 614.819 230.098 614.806L266.427 614.539C275.445 614.476 284.213 611.547 291.476 606.171C298.738 600.796 304.123 593.249 306.861 584.611C307.076 583.907 307.478 583.276 308.025 582.786C308.572 582.297 309.242 581.967 309.962 581.834C310.068 581.823 310.175 581.822 310.282 581.831L310.672 581.828C311.272 581.826 311.866 581.955 312.412 582.206C312.958 582.457 313.443 582.825 313.833 583.283L351.724 630.162C354.601 633.703 356.186 638.126 356.217 642.698L356.353 661.439C356.373 664.063 355.879 666.666 354.898 669.098C353.917 671.531 352.47 673.745 350.637 675.615C348.805 677.484 346.625 678.973 344.22 679.995C341.815 681.017 339.234 681.553 336.623 681.572ZM218.492 653.079L218.56 662.449C218.581 665.612 219.848 668.637 222.084 670.862C224.321 673.087 227.343 674.329 230.49 674.317L336.565 673.539C339.714 673.508 342.722 672.223 344.929 669.966C347.137 667.708 348.364 664.663 348.341 661.498L348.205 642.737C348.149 640 347.186 637.36 345.469 635.236L311.848 593.624C307.744 602.245 301.31 609.53 293.281 614.648C285.252 619.765 275.952 622.508 266.445 622.563C266.035 622.566 265.665 622.568 265.204 622.572C265.028 622.586 264.851 622.587 264.674 622.576L230.116 622.829C228.969 622.845 227.829 623.019 226.729 623.347C225.007 623.961 223.422 624.912 222.068 626.146C220.887 627.258 219.948 628.603 219.31 630.098C218.672 631.593 218.348 633.204 218.36 634.83L218.485 652.093C218.515 652.235 218.533 652.38 218.538 652.525C218.542 652.711 218.527 652.896 218.492 653.079Z" fill="#EAEAEA" fill-opacity="0.2"/>
<path d="M336.623 681.572L230.598 682.35C225.334 682.375 220.275 680.3 216.531 676.58C212.787 672.86 210.664 667.799 210.628 662.507L210.428 634.888C210.412 632.164 210.953 629.466 212.017 626.96C213.081 624.455 214.646 622.196 216.614 620.324L216.743 620.202C218.791 618.336 221.179 616.884 223.774 615.928L224.103 615.785C226.039 615.149 228.061 614.819 230.098 614.806L266.427 614.539C275.445 614.476 284.213 611.547 291.476 606.171C298.738 600.796 304.123 593.249 306.861 584.611C307.076 583.907 307.478 583.276 308.025 582.786C308.572 582.297 309.242 581.967 309.962 581.834C310.068 581.823 310.175 581.822 310.282 581.831L310.672 581.828C311.272 581.826 311.866 581.955 312.412 582.206C312.958 582.457 313.443 582.825 313.833 583.283L351.724 630.162C354.601 633.703 356.186 638.126 356.217 642.698L356.353 661.439C356.373 664.063 355.879 666.666 354.898 669.098C353.917 671.531 352.47 673.745 350.637 675.615C348.805 677.484 346.625 678.973 344.22 679.995C341.815 681.017 339.234 681.553 336.623 681.572ZM218.492 653.079L218.56 662.449C218.581 665.612 219.848 668.637 222.084 670.862C224.321 673.087 227.343 674.329 230.49 674.317L336.565 673.539C339.714 673.508 342.722 672.223 344.929 669.966C347.137 667.708 348.364 664.663 348.341 661.498L348.205 642.737C348.149 640 347.186 637.36 345.469 635.236L311.848 593.624C307.744 602.245 301.31 609.53 293.281 614.648C285.252 619.765 275.952 622.508 266.445 622.563C266.035 622.566 265.665 622.568 265.204 622.572C265.028 622.586 264.851 622.587 264.674 622.576L230.116 622.829C228.969 622.845 227.829 623.019 226.729 623.347C225.007 623.961 223.422 624.912 222.068 626.146C220.887 627.258 219.948 628.603 219.31 630.098C218.672 631.593 218.348 633.204 218.36 634.83L218.485 652.093C218.515 652.235 218.533 652.38 218.538 652.525C218.542 652.711 218.527 652.896 218.492 653.079Z" fill="#EAEAEA" fill-opacity="0.2"/>
<path d="M259.673 606.731C250.759 606.811 242.175 603.42 235.792 597.297C229.409 591.173 225.745 582.814 225.597 574.04L225.592 573.412C225.581 566.718 227.624 560.177 231.453 554.644C235.282 549.111 240.719 544.845 247.052 542.405C253.385 539.964 260.318 539.463 266.944 540.967C273.57 542.47 279.579 545.909 284.185 550.832C284.345 550.965 284.426 551.077 284.403 551.077L284.599 551.311L284.702 551.434L284.828 551.567L286.771 553.964C286.93 554.097 287.069 554.251 287.185 554.421C290.705 559.395 292.778 565.222 293.181 571.272C293.583 577.321 292.299 583.365 289.467 588.75C286.636 594.135 282.364 598.657 277.113 601.828C271.862 604.999 265.832 606.698 259.673 606.742L259.673 606.731ZM277.541 556.926C274.171 553.342 269.783 550.84 264.949 549.744C260.114 548.649 255.055 549.011 250.431 550.783C245.807 552.555 241.831 555.656 239.021 559.682C236.211 563.708 234.695 568.473 234.673 573.357L234.676 573.884C234.888 580.256 237.628 586.291 242.308 590.696C246.988 595.102 253.236 597.526 259.711 597.449C266.187 597.372 272.375 594.8 276.949 590.285C281.523 585.77 284.117 579.672 284.177 573.297C284.143 568.43 282.615 563.687 279.794 559.691L277.725 557.171L277.564 556.937L277.541 556.926Z" fill="#EAEAEA" fill-opacity="0.2"/>
<path d="M259.673 606.731C250.759 606.811 242.175 603.42 235.792 597.297C229.409 591.173 225.745 582.814 225.597 574.04L225.592 573.412C225.581 566.718 227.624 560.177 231.453 554.644C235.282 549.111 240.719 544.845 247.052 542.405C253.385 539.964 260.318 539.463 266.944 540.967C273.57 542.47 279.579 545.909 284.185 550.832C284.345 550.965 284.426 551.077 284.403 551.077L284.599 551.311L284.702 551.434L284.828 551.567L286.771 553.964C286.93 554.097 287.069 554.251 287.185 554.421C290.705 559.395 292.778 565.222 293.181 571.272C293.583 577.321 292.299 583.365 289.467 588.75C286.636 594.135 282.364 598.657 277.113 601.828C271.862 604.999 265.832 606.698 259.673 606.742L259.673 606.731ZM277.541 556.926C274.171 553.342 269.783 550.84 264.949 549.744C260.114 548.649 255.055 549.011 250.431 550.783C245.807 552.555 241.831 555.656 239.021 559.682C236.211 563.708 234.695 568.473 234.673 573.357L234.676 573.884C234.888 580.256 237.628 586.291 242.308 590.696C246.988 595.102 253.236 597.526 259.711 597.449C266.187 597.372 272.375 594.8 276.949 590.285C281.523 585.77 284.117 579.672 284.177 573.297C284.143 568.43 282.615 563.687 279.794 559.691L277.725 557.171L277.564 556.937L277.541 556.926Z" fill="#EAEAEA" fill-opacity="0.2"/>
</g>
</svg>
