<svg width="356" height="700" viewBox="0 0 356 700" fill="none" xmlns="http://www.w3.org/2000/svg">
<g opacity="0.5">
<path d="M398.754 602.129C398.802 593.203 395.38 584.62 389.232 578.251C383.084 571.881 374.71 568.241 365.934 568.125L365.306 568.122C358.611 568.135 352.075 570.204 346.555 574.058C341.035 577.912 336.788 583.371 334.37 589.721C331.952 596.071 331.476 603.015 333.004 609.644C334.532 616.273 337.993 622.278 342.934 626.873C343.068 627.033 343.18 627.113 343.18 627.091L343.415 627.285L343.538 627.389L343.672 627.515L346.076 629.451C346.21 629.61 346.364 629.748 346.535 629.864C351.522 633.371 357.357 635.426 363.41 635.808C369.462 636.189 375.502 634.882 380.878 632.027C386.254 629.173 390.761 624.879 393.914 619.61C397.066 614.341 398.744 608.297 398.765 602.129L398.754 602.129ZM349.005 620.199C345.408 616.837 342.889 612.452 341.776 607.615C340.663 602.777 341.006 597.711 342.762 593.075C344.518 588.438 347.605 584.446 351.622 581.618C355.638 578.789 360.398 577.255 365.283 577.215L365.811 577.217C372.184 577.406 378.231 580.128 382.654 584.798C387.077 589.469 389.524 595.716 389.471 602.201C389.417 608.686 386.868 614.891 382.368 619.487C377.869 624.083 371.779 626.703 365.403 626.785C360.535 626.768 355.786 625.255 351.778 622.445L349.251 620.382L349.016 620.222L349.005 620.199Z" fill="#EAEAEA" fill-opacity="0.2"/>
<path d="M325.359 415.795L324.964 522.46C324.932 527.756 322.847 532.823 319.169 536.549C315.49 540.274 310.518 542.354 305.343 542.332L278.332 542.232C275.668 542.219 273.035 541.646 270.597 540.548C268.158 539.45 265.966 537.851 264.157 535.85L264.039 535.719C262.236 533.639 260.843 531.221 259.936 528.6L259.799 528.267C259.199 526.313 258.898 524.275 258.907 522.226L259.042 485.678C259.079 476.605 256.31 467.753 251.132 460.388C245.955 453.024 238.634 447.524 230.216 444.676C229.53 444.452 228.917 444.041 228.444 443.485C227.971 442.93 227.656 442.252 227.534 441.526C227.525 441.419 227.525 441.311 227.535 441.204L227.536 440.812C227.541 440.208 227.673 439.612 227.925 439.065C228.176 438.519 228.541 438.035 228.994 437.647L275.25 400.042C278.743 397.187 283.086 395.641 287.557 395.66L305.886 395.728C308.452 395.736 310.992 396.262 313.36 397.275C315.728 398.288 317.877 399.769 319.686 401.632C321.494 403.496 322.926 405.706 323.899 408.136C324.873 410.566 325.369 413.169 325.359 415.795ZM296.208 534.319L305.372 534.353C308.465 534.367 311.438 533.125 313.638 530.9C315.838 528.674 317.086 525.647 317.108 522.482L317.503 415.766C317.507 412.598 316.283 409.558 314.099 407.313C311.916 405.067 308.951 403.8 305.856 403.788L287.508 403.721C284.831 403.747 282.239 404.686 280.143 406.39L239.084 439.758C247.47 443.98 254.524 450.532 259.441 458.665C264.358 466.798 266.939 476.183 266.889 485.747C266.887 486.16 266.886 486.532 266.884 486.995C266.896 487.173 266.895 487.351 266.882 487.528L266.754 522.295C266.757 523.45 266.915 524.598 267.223 525.708C267.805 527.448 268.718 529.052 269.909 530.428C270.984 531.628 272.29 532.587 273.744 533.245C275.199 533.904 276.771 534.247 278.362 534.253L295.245 534.315C295.384 534.286 295.525 534.27 295.668 534.266C295.849 534.264 296.03 534.282 296.208 534.319Z" fill="#EAEAEA" fill-opacity="0.2"/>
<path d="M251.757 493.257C251.739 502.329 248.194 511.027 241.896 517.454C235.598 523.882 227.057 527.518 218.135 527.571L217.496 527.569C210.69 527.505 204.061 525.353 198.478 521.395C192.895 517.436 188.619 511.856 186.208 505.384C183.798 498.912 183.366 491.85 184.969 485.124C186.573 478.398 190.136 472.321 195.194 467.688C195.331 467.526 195.446 467.446 195.446 467.469L195.686 467.273L195.812 467.169L195.949 467.042L198.408 465.091C198.545 464.931 198.703 464.791 198.877 464.675C203.974 461.148 209.922 459.103 216.078 458.761C222.234 458.419 228.365 459.793 233.809 462.735C239.252 465.677 243.802 470.075 246.967 475.454C250.133 480.833 251.792 486.988 251.768 493.257L251.757 493.257ZM201.316 474.517C197.634 477.907 195.04 482.344 193.872 487.253C192.704 492.161 193.015 497.313 194.765 502.038C196.516 506.764 199.624 510.844 203.686 513.749C207.748 516.655 212.576 518.25 217.542 518.327L218.078 518.329C224.559 518.185 230.726 515.464 235.258 510.75C239.79 506.037 242.325 499.705 242.319 493.114C242.314 486.523 239.769 480.197 235.229 475.492C230.69 470.787 224.517 468.078 218.036 467.947C213.087 467.927 208.248 469.429 204.152 472.255L201.567 474.333L201.327 474.494L201.316 474.517Z" fill="#EAEAEA" fill-opacity="0.2"/>
<path d="M251.757 493.257C251.739 502.329 248.194 511.027 241.896 517.454C235.598 523.882 227.057 527.518 218.135 527.571L217.496 527.569C210.69 527.505 204.061 525.353 198.478 521.395C192.895 517.436 188.619 511.856 186.208 505.384C183.798 498.912 183.366 491.85 184.969 485.124C186.573 478.398 190.136 472.321 195.194 467.688C195.331 467.526 195.446 467.446 195.446 467.469L195.686 467.273L195.812 467.169L195.949 467.042L198.408 465.091C198.545 464.931 198.703 464.791 198.877 464.675C203.974 461.148 209.922 459.103 216.078 458.761C222.234 458.419 228.365 459.793 233.809 462.735C239.252 465.677 243.802 470.075 246.967 475.454C250.133 480.833 251.792 486.988 251.768 493.257L251.757 493.257ZM201.316 474.517C197.634 477.907 195.04 482.344 193.872 487.253C192.704 492.161 193.015 497.313 194.765 502.038C196.516 506.764 199.624 510.844 203.686 513.749C207.748 516.655 212.576 518.25 217.542 518.327L218.078 518.329C224.559 518.185 230.726 515.464 235.258 510.75C239.79 506.037 242.325 499.705 242.319 493.114C242.314 486.523 239.769 480.197 235.229 475.492C230.69 470.787 224.517 468.078 218.036 467.947C213.087 467.927 208.248 469.429 204.152 472.255L201.567 474.333L201.327 474.494L201.316 474.517Z" fill="#EAEAEA" fill-opacity="0.2"/>
<path d="M236.941 -2.13789L236.546 104.527C236.514 109.823 234.406 114.89 230.686 118.615C226.965 122.341 221.937 124.421 216.703 124.398L189.385 124.297C186.691 124.284 184.028 123.71 181.562 122.612C179.095 121.514 176.879 119.915 175.048 117.915L174.93 117.783C173.106 115.703 171.697 113.285 170.779 110.664L170.641 110.331C170.034 108.377 169.729 106.339 169.739 104.29L169.874 67.7421C169.91 58.6689 167.109 49.8168 161.873 42.452C156.636 35.0873 149.232 29.5872 140.719 26.7386C140.025 26.5152 139.405 26.1034 138.926 25.548C138.448 24.9926 138.129 24.315 138.005 23.5889C137.996 23.4818 137.996 23.374 138.007 23.267L138.008 22.8745C138.012 22.2705 138.146 21.6747 138.401 21.1283C138.655 20.5819 139.024 20.098 139.482 19.7101L186.262 -17.8928C189.795 -20.7479 194.187 -22.294 198.709 -22.2744L217.245 -22.2058C219.841 -22.1975 222.41 -21.6718 224.805 -20.6586C227.2 -19.6455 229.374 -18.1649 231.203 -16.3013C233.032 -14.4377 234.48 -12.2276 235.465 -9.79742C236.449 -7.36722 236.951 -4.76448 236.941 -2.13789ZM207.464 116.384L216.732 116.419C219.86 116.433 222.867 115.191 225.092 112.966C227.316 110.741 228.578 107.713 228.601 104.548L228.996 -2.1673C228.999 -5.33532 227.761 -8.37544 225.553 -10.6209C223.345 -12.8664 220.346 -14.1339 217.216 -14.1455L198.659 -14.2142C195.952 -14.188 193.331 -13.2487 191.21 -11.5449L149.687 21.8209C158.168 26.0434 165.303 32.5958 170.276 40.7289C175.249 48.862 177.86 58.2474 177.81 67.8118C177.808 68.2243 177.807 68.5967 177.805 69.0595C177.817 69.2371 177.816 69.4154 177.803 69.5929L177.674 104.36C177.678 105.514 177.837 106.662 178.149 107.773C178.738 109.512 179.661 111.116 180.866 112.492C181.953 113.692 183.274 114.652 184.745 115.31C186.216 115.968 187.806 116.311 189.414 116.318L206.489 116.381C206.63 116.352 206.773 116.336 206.917 116.332C207.101 116.33 207.284 116.348 207.464 116.384Z" fill="#EAEAEA" fill-opacity="0.2"/>
<path d="M236.941 -2.13789L236.546 104.527C236.514 109.823 234.406 114.89 230.686 118.615C226.965 122.341 221.937 124.421 216.703 124.398L189.385 124.297C186.691 124.284 184.028 123.71 181.562 122.612C179.095 121.514 176.879 119.915 175.048 117.915L174.93 117.783C173.106 115.703 171.697 113.285 170.779 110.664L170.641 110.331C170.034 108.377 169.729 106.339 169.739 104.29L169.874 67.7421C169.91 58.6689 167.109 49.8168 161.873 42.452C156.636 35.0873 149.232 29.5872 140.719 26.7386C140.025 26.5152 139.405 26.1034 138.926 25.548C138.448 24.9926 138.129 24.315 138.005 23.5889C137.996 23.4818 137.996 23.374 138.007 23.267L138.008 22.8745C138.012 22.2705 138.146 21.6747 138.401 21.1283C138.655 20.5819 139.024 20.098 139.482 19.7101L186.262 -17.8928C189.795 -20.7479 194.187 -22.294 198.709 -22.2744L217.245 -22.2058C219.841 -22.1975 222.41 -21.6718 224.805 -20.6586C227.2 -19.6455 229.374 -18.1649 231.203 -16.3013C233.032 -14.4377 234.48 -12.2276 235.465 -9.79742C236.449 -7.36722 236.951 -4.76448 236.941 -2.13789ZM207.464 116.384L216.732 116.419C219.86 116.433 222.867 115.191 225.092 112.966C227.316 110.741 228.578 107.713 228.601 104.548L228.996 -2.1673C228.999 -5.33532 227.761 -8.37544 225.553 -10.6209C223.345 -12.8664 220.346 -14.1339 217.216 -14.1455L198.659 -14.2142C195.952 -14.188 193.331 -13.2487 191.21 -11.5449L149.687 21.8209C158.168 26.0434 165.303 32.5958 170.276 40.7289C175.249 48.862 177.86 58.2474 177.81 67.8118C177.808 68.2243 177.807 68.5967 177.805 69.0595C177.817 69.2371 177.816 69.4154 177.803 69.5929L177.674 104.36C177.678 105.514 177.837 106.662 178.149 107.773C178.738 109.512 179.661 111.116 180.866 112.492C181.953 113.692 183.274 114.652 184.745 115.31C186.216 115.968 187.806 116.311 189.414 116.318L206.489 116.381C206.63 116.352 206.773 116.336 206.917 116.332C207.101 116.33 207.284 116.348 207.464 116.384Z" fill="#EAEAEA" fill-opacity="0.2"/>
<path d="M162.23 75.3196C162.211 84.3919 158.782 93.0901 152.69 99.5184C146.598 105.947 138.336 109.584 129.706 109.638L129.088 109.636C122.505 109.573 116.094 107.422 110.695 103.464C105.295 99.5061 101.16 93.926 98.8291 87.4543C96.4984 80.9827 96.0816 73.9214 97.6332 67.195C99.1848 60.4687 102.632 54.3909 107.525 49.7578C107.657 49.5959 107.768 49.5152 107.768 49.5384L108 49.3421L108.122 49.2382L108.255 49.1111L110.634 47.1603C110.766 47.0006 110.919 46.8607 111.088 46.7445C116.018 43.2167 121.771 41.171 127.725 40.8283C133.679 40.4856 139.609 41.8589 144.874 44.8C150.139 47.7411 154.539 52.1383 157.6 57.5169C160.66 62.8955 162.265 69.0512 162.241 75.3197L162.23 75.3196ZM113.445 56.5862C109.883 59.9763 107.374 64.4141 106.244 69.3224C105.113 74.2308 105.414 79.3825 107.106 84.1079C108.798 88.8332 111.804 92.9135 115.732 95.8181C119.661 98.7226 124.33 100.317 129.133 100.394L129.652 100.396C135.92 100.251 141.886 97.5293 146.27 92.8151C150.654 88.1008 153.106 81.7693 153.102 75.1781C153.097 68.5869 150.636 62.2609 146.246 57.5567C141.856 52.8524 135.887 50.1445 129.618 50.0135C124.831 49.9948 120.15 51.4972 116.189 54.3237L113.688 56.4016L113.456 56.5631L113.445 56.5862Z" fill="#EAEAEA" fill-opacity="0.2"/>
<path d="M184.855 267.71L184.457 375.183C184.451 380.519 186.544 385.64 190.278 389.421C194.013 393.202 199.082 395.335 204.375 395.352L232 395.455C234.724 395.461 237.421 394.903 239.923 393.815C242.425 392.727 244.679 391.133 246.545 389.131L246.666 389C248.525 386.917 249.969 384.492 250.916 381.857L251.058 381.523C251.687 379.558 252.01 377.507 252.016 375.443L252.152 338.618C252.183 329.476 255.081 320.578 260.432 313.197C265.782 305.816 273.311 300.33 281.941 297.523C282.644 297.303 283.274 296.893 283.762 296.337C284.25 295.781 284.577 295.101 284.708 294.37C284.718 294.262 284.718 294.153 284.709 294.046L284.71 293.65C284.711 293.042 284.58 292.44 284.326 291.888C284.073 291.335 283.704 290.845 283.244 290.451L236.221 252.215C232.669 249.311 228.239 247.721 223.667 247.707L204.922 247.637C202.297 247.626 199.695 248.137 197.266 249.14C194.837 250.143 192.627 251.618 190.764 253.482C188.9 255.346 187.419 257.562 186.406 260.003C185.392 262.444 184.865 265.063 184.855 267.71ZM213.777 387.347L204.405 387.312C201.241 387.303 198.211 386.03 195.978 383.771C193.744 381.512 192.491 378.453 192.492 375.263L192.89 267.739C192.91 264.547 194.184 261.494 196.434 259.248C198.684 257.002 201.726 255.747 204.892 255.759L223.657 255.828C226.394 255.875 229.038 256.841 231.169 258.573L272.908 292.501C264.301 296.692 257.037 303.241 251.947 311.398C246.857 319.555 244.147 328.992 244.127 338.629C244.125 339.045 244.124 339.42 244.122 339.886C244.109 340.065 244.108 340.245 244.12 340.424L243.991 375.454C243.978 376.617 243.808 377.773 243.485 378.889C242.877 380.637 241.931 382.247 240.702 383.624C239.594 384.825 238.252 385.782 236.759 386.434C235.266 387.086 233.656 387.42 232.029 387.414L214.763 387.35C214.62 387.32 214.476 387.303 214.33 387.298C214.145 387.295 213.959 387.311 213.777 387.347Z" fill="#EAEAEA" fill-opacity="0.2"/>
<path d="M184.855 267.71L184.457 375.183C184.451 380.519 186.544 385.64 190.278 389.421C194.013 393.202 199.082 395.335 204.375 395.352L232 395.455C234.724 395.461 237.421 394.903 239.923 393.815C242.425 392.727 244.679 391.133 246.545 389.131L246.666 389C248.525 386.917 249.969 384.492 250.916 381.857L251.058 381.523C251.687 379.558 252.01 377.507 252.016 375.443L252.152 338.618C252.183 329.476 255.081 320.578 260.432 313.197C265.782 305.816 273.311 300.33 281.941 297.523C282.644 297.303 283.274 296.893 283.762 296.337C284.25 295.781 284.577 295.101 284.708 294.37C284.718 294.262 284.718 294.153 284.709 294.046L284.71 293.65C284.711 293.042 284.58 292.44 284.326 291.888C284.073 291.335 283.704 290.845 283.244 290.451L236.221 252.215C232.669 249.311 228.239 247.721 223.667 247.707L204.922 247.637C202.297 247.626 199.695 248.137 197.266 249.14C194.837 250.143 192.627 251.618 190.764 253.482C188.9 255.346 187.419 257.562 186.406 260.003C185.392 262.444 184.865 265.063 184.855 267.71ZM213.777 387.347L204.405 387.312C201.241 387.303 198.211 386.03 195.978 383.771C193.744 381.512 192.491 378.453 192.492 375.263L192.89 267.739C192.91 264.547 194.184 261.494 196.434 259.248C198.684 257.002 201.726 255.747 204.892 255.759L223.657 255.828C226.394 255.875 229.038 256.841 231.169 258.573L272.908 292.501C264.301 296.692 257.037 303.241 251.947 311.398C246.857 319.555 244.147 328.992 244.127 338.629C244.125 339.045 244.124 339.42 244.122 339.886C244.109 340.065 244.108 340.245 244.12 340.424L243.991 375.454C243.978 376.617 243.808 377.773 243.485 378.889C242.877 380.637 241.931 382.247 240.702 383.624C239.594 384.825 238.252 385.782 236.759 386.434C235.266 387.086 233.656 387.42 232.029 387.414L214.763 387.35C214.62 387.32 214.476 387.303 214.33 387.298C214.145 387.295 213.959 387.311 213.777 387.347Z" fill="#EAEAEA" fill-opacity="0.2"/>
<path d="M260.099 345.571C260.051 354.643 263.416 363.366 269.46 369.84C275.504 376.313 283.739 380.011 292.368 380.129L292.986 380.131C299.57 380.117 305.996 378.014 311.425 374.096C316.853 370.178 321.03 364.629 323.409 358.175C325.787 351.721 326.256 344.662 324.754 337.925C323.253 331.187 319.85 325.084 314.992 320.415C314.861 320.252 314.751 320.17 314.751 320.194L314.52 319.996L314.399 319.891L314.267 319.763L311.903 317.794C311.771 317.634 311.62 317.493 311.452 317.375C306.548 313.811 300.81 311.723 294.859 311.336C288.907 310.949 282.967 312.279 277.681 315.181C272.394 318.083 267.962 322.447 264.861 327.803C261.761 333.159 260.111 339.302 260.088 345.571L260.099 345.571ZM309.022 327.199C312.558 330.616 315.034 335.072 316.128 339.988C317.223 344.905 316.884 350.054 315.157 354.767C313.43 359.48 310.394 363.538 306.444 366.413C302.494 369.288 297.813 370.848 293.009 370.89L292.491 370.888C286.223 370.696 280.278 367.931 275.929 363.184C271.58 358.437 269.175 352.088 269.228 345.497C269.281 338.906 271.789 332.598 276.214 327.927C280.639 323.255 286.628 320.591 292.898 320.507C297.685 320.524 302.354 322.061 306.295 324.916L308.78 327.013L309.011 327.176L309.022 327.199Z" fill="#EAEAEA" fill-opacity="0.2"/>
<path d="M260.099 345.571C260.051 354.643 263.416 363.366 269.46 369.84C275.504 376.313 283.739 380.011 292.368 380.129L292.986 380.131C299.57 380.117 305.996 378.014 311.425 374.096C316.853 370.178 321.03 364.629 323.409 358.175C325.787 351.721 326.256 344.662 324.754 337.925C323.253 331.187 319.85 325.084 314.992 320.415C314.861 320.252 314.751 320.17 314.751 320.194L314.52 319.996L314.399 319.891L314.267 319.763L311.903 317.794C311.771 317.634 311.62 317.493 311.452 317.375C306.548 313.811 300.81 311.723 294.859 311.336C288.907 310.949 282.967 312.279 277.681 315.181C272.394 318.083 267.962 322.447 264.861 327.803C261.761 333.159 260.111 339.302 260.088 345.571L260.099 345.571ZM309.022 327.199C312.558 330.616 315.034 335.072 316.128 339.988C317.223 344.905 316.884 350.054 315.157 354.767C313.43 359.48 310.394 363.538 306.444 366.413C302.494 369.288 297.813 370.848 293.009 370.89L292.491 370.888C286.223 370.696 280.278 367.931 275.929 363.184C271.58 358.437 269.175 352.088 269.228 345.497C269.281 338.906 271.789 332.598 276.214 327.927C280.639 323.255 286.628 320.591 292.898 320.507C297.685 320.524 302.354 322.061 306.295 324.916L308.78 327.013L309.011 327.176L309.022 327.199Z" fill="#EAEAEA" fill-opacity="0.2"/>
<path d="M340.512 522.468L340.907 415.803C340.94 410.507 343.071 405.44 346.833 401.715C350.595 397.99 355.68 395.91 360.972 395.932L388.597 396.034C391.322 396.048 394.015 396.622 396.509 397.72C399.002 398.818 401.244 400.417 403.095 402.418L403.215 402.549C405.06 404.63 406.485 407.047 407.413 409.669L407.552 410.001C408.167 411.956 408.475 413.994 408.465 416.043L408.33 452.59C408.294 461.664 411.126 470.516 416.422 477.881C421.718 485.246 429.206 490.746 437.815 493.595C438.516 493.819 439.143 494.231 439.627 494.786C440.111 495.341 440.433 496.019 440.558 496.745C440.568 496.852 440.568 496.96 440.557 497.067L440.556 497.459C440.551 498.063 440.416 498.659 440.159 499.206C439.901 499.752 439.528 500.236 439.066 500.624L391.762 538.225C388.189 541.08 383.747 542.626 379.175 542.606L360.43 542.536C357.805 542.528 355.207 542.002 352.786 540.989C350.364 539.976 348.165 538.495 346.316 536.631C344.466 534.768 343.001 532.558 342.005 530.127C341.01 527.697 340.502 525.094 340.512 522.468ZM370.315 403.947L360.943 403.912C357.78 403.898 354.74 405.139 352.49 407.364C350.24 409.59 348.964 412.617 348.942 415.782L348.547 522.497C348.543 525.665 349.795 528.706 352.028 530.951C354.262 533.197 357.294 534.464 360.46 534.476L379.225 534.546C381.962 534.52 384.613 533.58 386.757 531.877L428.746 498.513C420.169 494.29 412.954 487.737 407.924 479.604C402.895 471.47 400.254 462.085 400.305 452.521C400.307 452.108 400.308 451.736 400.31 451.273C400.298 451.095 400.298 450.917 400.312 450.739L400.44 415.973C400.437 414.818 400.275 413.67 399.96 412.56C399.365 410.82 398.431 409.216 397.212 407.84C396.113 406.64 394.778 405.68 393.29 405.022C391.802 404.364 390.194 404.02 388.568 404.014L371.301 403.95C371.158 403.979 371.014 403.995 370.868 403.999C370.683 404.001 370.497 403.983 370.315 403.947Z" fill="#EAEAEA" fill-opacity="0.2"/>
<path d="M340.512 522.468L340.907 415.803C340.94 410.507 343.071 405.44 346.833 401.715C350.595 397.99 355.68 395.91 360.972 395.932L388.597 396.034C391.322 396.048 394.015 396.622 396.509 397.72C399.002 398.818 401.244 400.417 403.095 402.418L403.215 402.549C405.06 404.63 406.485 407.047 407.413 409.669L407.552 410.001C408.167 411.956 408.475 413.994 408.465 416.043L408.33 452.59C408.294 461.664 411.126 470.516 416.422 477.881C421.718 485.246 429.206 490.746 437.815 493.595C438.516 493.819 439.143 494.231 439.627 494.786C440.111 495.341 440.433 496.019 440.558 496.745C440.568 496.852 440.568 496.96 440.557 497.067L440.556 497.459C440.551 498.063 440.416 498.659 440.159 499.206C439.901 499.752 439.528 500.236 439.066 500.624L391.762 538.225C388.189 541.08 383.747 542.626 379.175 542.606L360.43 542.536C357.805 542.528 355.207 542.002 352.786 540.989C350.364 539.976 348.165 538.495 346.316 536.631C344.466 534.768 343.001 532.558 342.005 530.127C341.01 527.697 340.502 525.094 340.512 522.468ZM370.315 403.947L360.943 403.912C357.78 403.898 354.74 405.139 352.49 407.364C350.24 409.59 348.964 412.617 348.942 415.782L348.547 522.497C348.543 525.665 349.795 528.706 352.028 530.951C354.262 533.197 357.294 534.464 360.46 534.476L379.225 534.546C381.962 534.52 384.613 533.58 386.757 531.877L428.746 498.513C420.169 494.29 412.954 487.737 407.924 479.604C402.895 471.47 400.254 462.085 400.305 452.521C400.307 452.108 400.308 451.736 400.31 451.273C400.298 451.095 400.298 450.917 400.312 450.739L400.44 415.973C400.437 414.818 400.275 413.67 399.96 412.56C399.365 410.82 398.431 409.216 397.212 407.84C396.113 406.64 394.778 405.68 393.29 405.022C391.802 404.364 390.194 404.02 388.568 404.014L371.301 403.95C371.158 403.979 371.014 403.995 370.868 403.999C370.683 404.001 370.497 403.983 370.315 403.947Z" fill="#EAEAEA" fill-opacity="0.2"/>
<path d="M382.461 291.607L382.856 184.942C382.862 179.646 380.768 174.564 377.034 170.811C373.3 167.058 368.23 164.94 362.938 164.924L335.313 164.821C332.588 164.815 329.891 165.369 327.389 166.448C324.887 167.528 322.634 169.11 320.768 171.097L320.647 171.227C318.787 173.294 317.344 175.701 316.397 178.316L316.255 178.648C315.626 180.597 315.303 182.633 315.297 184.682L315.162 221.23C315.131 230.303 312.233 239.134 306.883 246.46C301.533 253.785 294.004 259.23 285.375 262.015C284.671 262.233 284.041 262.641 283.554 263.192C283.066 263.744 282.738 264.419 282.608 265.144C282.597 265.251 282.597 265.359 282.606 265.466L282.605 265.859C282.605 266.463 282.736 267.06 282.989 267.608C283.242 268.156 283.612 268.643 284.072 269.034L331.096 306.984C334.648 309.866 339.078 311.444 343.65 311.458L362.395 311.528C365.02 311.539 367.621 311.032 370.05 310.037C372.48 309.042 374.689 307.577 376.553 305.727C378.416 303.877 379.897 301.678 380.911 299.255C381.924 296.833 382.451 294.234 382.461 291.607ZM353.536 172.869L362.908 172.903C366.071 172.912 369.102 174.176 371.335 176.418C373.569 178.66 374.822 181.697 374.821 184.862L374.426 291.577C374.406 294.745 373.132 297.776 370.882 300.005C368.632 302.234 365.591 303.479 362.425 303.468L343.66 303.398C340.922 303.352 338.279 302.393 336.148 300.673L294.407 266.999C303.014 262.84 310.278 256.341 315.368 248.245C320.457 240.149 323.167 230.784 323.187 221.219C323.189 220.807 323.19 220.434 323.192 219.971C323.205 219.794 323.206 219.616 323.194 219.438L323.323 184.671C323.335 183.517 323.505 182.37 323.828 181.262C324.436 179.527 325.382 177.93 326.611 176.563C327.719 175.371 329.061 174.421 330.554 173.774C332.046 173.126 333.657 172.795 335.283 172.801L352.55 172.865C352.692 172.895 352.837 172.912 352.982 172.917C353.168 172.92 353.353 172.904 353.536 172.869Z" fill="#EAEAEA" fill-opacity="0.2"/>
<path d="M382.461 291.607L382.856 184.942C382.862 179.646 380.768 174.564 377.034 170.811C373.3 167.058 368.23 164.94 362.938 164.924L335.313 164.821C332.588 164.815 329.891 165.369 327.389 166.448C324.887 167.528 322.634 169.11 320.768 171.097L320.647 171.227C318.787 173.294 317.344 175.701 316.397 178.316L316.255 178.648C315.626 180.597 315.303 182.633 315.297 184.682L315.162 221.23C315.131 230.303 312.233 239.134 306.883 246.46C301.533 253.785 294.004 259.23 285.375 262.015C284.671 262.233 284.041 262.641 283.554 263.192C283.066 263.744 282.738 264.419 282.608 265.144C282.597 265.251 282.597 265.359 282.606 265.466L282.605 265.859C282.605 266.463 282.736 267.06 282.989 267.608C283.242 268.156 283.612 268.643 284.072 269.034L331.096 306.984C334.648 309.866 339.078 311.444 343.65 311.458L362.395 311.528C365.02 311.539 367.621 311.032 370.05 310.037C372.48 309.042 374.689 307.577 376.553 305.727C378.416 303.877 379.897 301.678 380.911 299.255C381.924 296.833 382.451 294.234 382.461 291.607ZM353.536 172.869L362.908 172.903C366.071 172.912 369.102 174.176 371.335 176.418C373.569 178.66 374.822 181.697 374.821 184.862L374.426 291.577C374.406 294.745 373.132 297.776 370.882 300.005C368.632 302.234 365.591 303.479 362.425 303.468L343.66 303.398C340.922 303.352 338.279 302.393 336.148 300.673L294.407 266.999C303.014 262.84 310.278 256.341 315.368 248.245C320.457 240.149 323.167 230.784 323.187 221.219C323.189 220.807 323.19 220.434 323.192 219.971C323.205 219.794 323.206 219.616 323.194 219.438L323.323 184.671C323.335 183.517 323.505 182.37 323.828 181.262C324.436 179.527 325.382 177.93 326.611 176.563C327.719 175.371 329.061 174.421 330.554 173.774C332.046 173.126 333.657 172.795 335.283 172.801L352.55 172.865C352.692 172.895 352.837 172.912 352.982 172.917C353.168 172.92 353.353 172.904 353.536 172.869Z" fill="#EAEAEA" fill-opacity="0.2"/>
<path d="M307.213 213.594C307.262 204.522 303.897 195.799 297.853 189.326C291.808 182.852 283.574 179.154 274.944 179.036L274.327 179.034C267.743 179.048 261.316 181.151 255.888 185.069C250.459 188.987 246.282 194.536 243.904 200.991C241.525 207.445 241.056 214.503 242.558 221.241C244.06 227.978 247.462 234.081 252.32 238.751C252.452 238.913 252.562 238.995 252.562 238.972L252.793 239.17L252.914 239.275L253.046 239.403L255.41 241.371C255.541 241.532 255.693 241.673 255.861 241.79C260.765 245.354 266.502 247.443 272.454 247.829C278.405 248.216 284.345 246.887 289.632 243.985C294.918 241.083 299.351 236.718 302.451 231.362C305.552 226.007 307.202 219.863 307.224 213.594L307.213 213.594ZM258.291 231.966C254.754 228.55 252.278 224.093 251.184 219.177C250.09 214.26 250.428 209.111 252.156 204.398C253.883 199.686 256.919 195.628 260.869 192.752C264.819 189.877 269.5 188.317 274.303 188.276L274.822 188.277C281.089 188.469 287.035 191.235 291.383 195.981C295.732 200.728 298.138 207.077 298.084 213.668C298.031 220.259 295.523 226.567 291.098 231.238C286.674 235.91 280.684 238.574 274.415 238.658C269.628 238.642 264.958 237.105 261.018 234.249L258.533 232.152L258.302 231.989L258.291 231.966Z" fill="#EAEAEA" fill-opacity="0.2"/>
<path d="M307.213 213.594C307.262 204.522 303.897 195.799 297.853 189.326C291.808 182.852 283.574 179.154 274.944 179.036L274.327 179.034C267.743 179.048 261.316 181.151 255.888 185.069C250.459 188.987 246.282 194.536 243.904 200.991C241.525 207.445 241.056 214.503 242.558 221.241C244.06 227.978 247.462 234.081 252.32 238.751C252.452 238.913 252.562 238.995 252.562 238.972L252.793 239.17L252.914 239.275L253.046 239.403L255.41 241.371C255.541 241.532 255.693 241.673 255.861 241.79C260.765 245.354 266.502 247.443 272.454 247.829C278.405 248.216 284.345 246.887 289.632 243.985C294.918 241.083 299.351 236.718 302.451 231.362C305.552 226.007 307.202 219.863 307.224 213.594L307.213 213.594ZM258.291 231.966C254.754 228.55 252.278 224.093 251.184 219.177C250.09 214.26 250.428 209.111 252.156 204.398C253.883 199.686 256.919 195.628 260.869 192.752C264.819 189.877 269.5 188.317 274.303 188.276L274.822 188.277C281.089 188.469 287.035 191.235 291.383 195.981C295.732 200.728 298.138 207.077 298.084 213.668C298.031 220.259 295.523 226.567 291.098 231.238C286.674 235.91 280.684 238.574 274.415 238.658C269.628 238.642 264.958 237.105 261.018 234.249L258.533 232.152L258.302 231.989L258.291 231.966Z" fill="#EAEAEA" fill-opacity="0.2"/>
<path d="M256.387 145.493L256.785 38.0198C256.818 32.6838 258.973 27.5789 262.777 23.8255C266.58 20.072 271.722 17.9766 277.074 17.9991L305.005 18.1025C307.76 18.1164 310.483 18.6944 313.004 19.8008C315.526 20.9072 317.793 22.5183 319.664 24.5343L319.786 24.6666C321.651 26.7631 323.092 29.199 324.03 31.8405L324.171 32.1756C324.792 34.1448 325.104 36.1982 325.094 38.2625L324.958 75.0873C324.921 84.2293 327.785 93.1486 333.14 100.569C338.495 107.99 346.066 113.532 354.771 116.403C355.48 116.628 356.114 117.043 356.603 117.603C357.092 118.162 357.418 118.845 357.545 119.577C357.555 119.685 357.554 119.793 357.544 119.901L357.542 120.297C357.538 120.905 357.401 121.506 357.141 122.056C356.881 122.607 356.504 123.094 356.036 123.485L308.207 161.37C304.594 164.247 300.103 165.804 295.48 165.784L276.527 165.714C273.873 165.706 271.246 165.176 268.798 164.155C266.349 163.134 264.126 161.642 262.256 159.764C260.385 157.886 258.904 155.659 257.897 153.211C256.891 150.762 256.377 148.14 256.387 145.493ZM286.52 26.0744L277.044 26.0394C273.845 26.0248 270.772 27.2758 268.497 29.5178C266.222 31.7598 264.932 34.8099 264.909 37.9992L264.511 145.523C264.508 148.715 265.774 151.778 268.032 154.041C270.29 156.304 273.356 157.581 276.557 157.593L295.53 157.663C298.298 157.637 300.979 156.69 303.146 154.974L345.601 121.358C336.929 117.103 329.634 110.5 324.548 102.305C319.463 94.1101 316.793 84.6535 316.844 75.0167C316.845 74.601 316.847 74.2259 316.849 73.7595C316.836 73.5805 316.837 73.401 316.851 73.2221L316.98 38.1919C316.977 37.0289 316.813 35.8718 316.495 34.753C315.893 33.0004 314.948 31.3841 313.716 29.9976C312.605 28.7884 311.255 27.8216 309.75 27.1582C308.246 26.4948 306.62 26.149 304.975 26.1428L287.517 26.0781C287.373 26.1072 287.226 26.1237 287.079 26.1272C286.892 26.1292 286.704 26.1115 286.52 26.0744Z" fill="#EAEAEA" fill-opacity="0.2"/>
<path d="M256.387 145.493L256.785 38.0198C256.818 32.6838 258.973 27.5789 262.777 23.8255C266.58 20.072 271.722 17.9766 277.074 17.9991L305.005 18.1025C307.76 18.1164 310.483 18.6944 313.004 19.8008C315.526 20.9072 317.793 22.5183 319.664 24.5343L319.786 24.6666C321.651 26.7631 323.092 29.199 324.03 31.8405L324.171 32.1756C324.792 34.1448 325.104 36.1982 325.094 38.2625L324.958 75.0873C324.921 84.2293 327.785 93.1486 333.14 100.569C338.495 107.99 346.066 113.532 354.771 116.403C355.48 116.628 356.114 117.043 356.603 117.603C357.092 118.162 357.418 118.845 357.545 119.577C357.555 119.685 357.554 119.793 357.544 119.901L357.542 120.297C357.538 120.905 357.401 121.506 357.141 122.056C356.881 122.607 356.504 123.094 356.036 123.485L308.207 161.37C304.594 164.247 300.103 165.804 295.48 165.784L276.527 165.714C273.873 165.706 271.246 165.176 268.798 164.155C266.349 163.134 264.126 161.642 262.256 159.764C260.385 157.886 258.904 155.659 257.897 153.211C256.891 150.762 256.377 148.14 256.387 145.493ZM286.52 26.0744L277.044 26.0394C273.845 26.0248 270.772 27.2758 268.497 29.5178C266.222 31.7598 264.932 34.8099 264.909 37.9992L264.511 145.523C264.508 148.715 265.774 151.778 268.032 154.041C270.29 156.304 273.356 157.581 276.557 157.593L295.53 157.663C298.298 157.637 300.979 156.69 303.146 154.974L345.601 121.358C336.929 117.103 329.634 110.5 324.548 102.305C319.463 94.1101 316.793 84.6535 316.844 75.0167C316.845 74.601 316.847 74.2259 316.849 73.7595C316.836 73.5805 316.837 73.401 316.851 73.2221L316.98 38.1919C316.977 37.0289 316.813 35.8718 316.495 34.753C315.893 33.0004 314.948 31.3841 313.716 29.9976C312.605 28.7884 311.255 27.8216 309.75 27.1582C308.246 26.4948 306.62 26.149 304.975 26.1428L287.517 26.0781C287.373 26.1072 287.226 26.1237 287.079 26.1272C286.892 26.1292 286.704 26.1115 286.52 26.0744Z" fill="#EAEAEA" fill-opacity="0.2"/>
<path d="M332.206 68.7465C332.224 59.8205 335.71 51.2631 341.905 44.9392C348.099 38.6153 356.5 35.0376 365.277 34.9858L365.905 34.9881C372.6 35.0505 379.12 37.1676 384.611 41.0623C390.102 44.9571 394.309 50.4477 396.68 56.8153C399.051 63.1828 399.476 70.1303 397.898 76.748C396.321 83.3657 392.816 89.3449 387.842 93.9028C387.706 94.062 387.594 94.1414 387.594 94.1186L387.358 94.3117L387.234 94.4139L387.099 94.5389L384.68 96.458C384.545 96.6151 384.39 96.7527 384.219 96.867C379.205 100.337 373.355 102.349 367.3 102.686C361.245 103.022 355.215 101.67 349.86 98.776C344.505 95.8817 340.03 91.5549 336.917 86.2627C333.804 80.9704 332.171 74.9138 332.195 68.7465L332.206 68.7465ZM381.82 87.1837C385.442 83.8487 387.993 79.4829 389.142 74.6538C390.291 69.8248 389.985 64.7561 388.263 60.1067C386.542 55.4574 383.484 51.4426 379.489 48.5844C375.494 45.7262 370.745 44.1569 365.86 44.0805L365.333 44.0785C358.958 44.2206 352.892 46.8975 348.434 51.5352C343.977 56.1729 341.483 62.402 341.489 68.8869C341.494 75.3718 343.998 81.596 348.463 86.2249C352.928 90.8539 358.999 93.5189 365.374 93.6485C370.242 93.6674 375.002 92.1899 379.03 89.4095L381.573 87.3653L381.809 87.2065L381.82 87.1837Z" fill="#EAEAEA" fill-opacity="0.2"/>
<path d="M332.206 68.7465C332.224 59.8205 335.71 51.2631 341.905 44.9392C348.099 38.6153 356.5 35.0376 365.277 34.9858L365.905 34.9881C372.6 35.0505 379.12 37.1676 384.611 41.0623C390.102 44.9571 394.309 50.4477 396.68 56.8153C399.051 63.1828 399.476 70.1303 397.898 76.748C396.321 83.3657 392.816 89.3449 387.842 93.9028C387.706 94.062 387.594 94.1414 387.594 94.1186L387.358 94.3117L387.234 94.4139L387.099 94.5389L384.68 96.458C384.545 96.6151 384.39 96.7527 384.219 96.867C379.205 100.337 373.355 102.349 367.3 102.686C361.245 103.022 355.215 101.67 349.86 98.776C344.505 95.8817 340.03 91.5549 336.917 86.2627C333.804 80.9704 332.171 74.9138 332.195 68.7465L332.206 68.7465ZM381.82 87.1837C385.442 83.8487 387.993 79.4829 389.142 74.6538C390.291 69.8248 389.985 64.7561 388.263 60.1067C386.542 55.4574 383.484 51.4426 379.489 48.5844C375.494 45.7262 370.745 44.1569 365.86 44.0805L365.333 44.0785C358.958 44.2206 352.892 46.8975 348.434 51.5352C343.977 56.1729 341.483 62.402 341.489 68.8869C341.494 75.3718 343.998 81.596 348.463 86.2249C352.928 90.8539 358.999 93.5189 365.374 93.6485C370.242 93.6674 375.002 92.1899 379.03 89.4095L381.573 87.3653L381.809 87.2065L381.82 87.1837Z" fill="#EAEAEA" fill-opacity="0.2"/>
<path d="M288.076 557.198L182.051 556.42C176.787 556.395 171.728 558.47 167.984 562.19C164.24 565.91 162.117 570.971 162.082 576.263L161.881 603.882C161.865 606.606 162.406 609.304 163.47 611.81C164.534 614.315 166.099 616.574 168.067 618.446L168.196 618.568C170.244 620.434 172.632 621.886 175.227 622.842L175.557 622.985C177.492 623.621 179.515 623.952 181.551 623.965L217.88 624.231C226.898 624.294 235.666 627.223 242.929 632.599C250.191 637.974 255.577 645.521 258.314 654.159C258.529 654.863 258.931 655.494 259.478 655.984C260.025 656.473 260.695 656.803 261.415 656.936C261.521 656.947 261.628 656.948 261.735 656.939L262.125 656.942C262.726 656.944 263.319 656.815 263.865 656.564C264.411 656.313 264.896 655.945 265.287 655.487L303.177 608.608C306.054 605.067 307.639 600.644 307.67 596.072L307.806 577.331C307.826 574.707 307.332 572.104 306.351 569.672C305.371 567.239 303.923 565.025 302.091 563.155C300.258 561.286 298.078 559.797 295.673 558.775C293.268 557.753 290.687 557.217 288.076 557.198ZM169.945 585.691L170.013 576.321C170.034 573.158 171.301 570.133 173.537 567.908C175.774 565.683 178.797 564.441 181.943 564.453L288.018 565.231C291.167 565.262 294.175 566.547 296.382 568.804C298.59 571.062 299.817 574.107 299.794 577.272L299.658 596.034C299.602 598.77 298.639 601.41 296.922 603.534L263.301 645.146C259.197 636.525 252.763 629.24 244.734 624.122C236.705 619.005 227.405 616.262 217.898 616.207C217.488 616.204 217.118 616.202 216.658 616.198C216.481 616.184 216.304 616.183 216.127 616.194L181.569 615.941C180.422 615.925 179.282 615.751 178.182 615.423C176.46 614.809 174.876 613.858 173.521 612.624C172.34 611.512 171.401 610.167 170.763 608.672C170.125 607.177 169.801 605.566 169.813 603.94L169.938 586.677C169.969 586.535 169.986 586.39 169.991 586.245C169.995 586.059 169.98 585.874 169.945 585.691Z" fill="#EAEAEA" fill-opacity="0.2"/>
<path d="M288.076 557.198L182.051 556.42C176.787 556.395 171.728 558.47 167.984 562.19C164.24 565.91 162.117 570.971 162.082 576.263L161.881 603.882C161.865 606.606 162.406 609.304 163.47 611.81C164.534 614.315 166.099 616.574 168.067 618.446L168.196 618.568C170.244 620.434 172.632 621.886 175.227 622.842L175.557 622.985C177.492 623.621 179.515 623.952 181.551 623.965L217.88 624.231C226.898 624.294 235.666 627.223 242.929 632.599C250.191 637.974 255.577 645.521 258.314 654.159C258.529 654.863 258.931 655.494 259.478 655.984C260.025 656.473 260.695 656.803 261.415 656.936C261.521 656.947 261.628 656.948 261.735 656.939L262.125 656.942C262.726 656.944 263.319 656.815 263.865 656.564C264.411 656.313 264.896 655.945 265.287 655.487L303.177 608.608C306.054 605.067 307.639 600.644 307.67 596.072L307.806 577.331C307.826 574.707 307.332 572.104 306.351 569.672C305.371 567.239 303.923 565.025 302.091 563.155C300.258 561.286 298.078 559.797 295.673 558.775C293.268 557.753 290.687 557.217 288.076 557.198ZM169.945 585.691L170.013 576.321C170.034 573.158 171.301 570.133 173.537 567.908C175.774 565.683 178.797 564.441 181.943 564.453L288.018 565.231C291.167 565.262 294.175 566.547 296.382 568.804C298.59 571.062 299.817 574.107 299.794 577.272L299.658 596.034C299.602 598.77 298.639 601.41 296.922 603.534L263.301 645.146C259.197 636.525 252.763 629.24 244.734 624.122C236.705 619.005 227.405 616.262 217.898 616.207C217.488 616.204 217.118 616.202 216.658 616.198C216.481 616.184 216.304 616.183 216.127 616.194L181.569 615.941C180.422 615.925 179.282 615.751 178.182 615.423C176.46 614.809 174.876 613.858 173.521 612.624C172.34 611.512 171.401 610.167 170.763 608.672C170.125 607.177 169.801 605.566 169.813 603.94L169.938 586.677C169.969 586.535 169.986 586.39 169.991 586.245C169.995 586.059 169.98 585.874 169.945 585.691Z" fill="#EAEAEA" fill-opacity="0.2"/>
<path d="M211.13 632.039C202.216 631.959 193.632 635.349 187.249 641.473C180.866 647.596 177.202 655.956 177.054 664.73L177.049 665.358C177.038 672.051 179.081 678.593 182.91 684.126C186.74 689.659 192.177 693.925 198.509 696.365C204.842 698.806 211.775 699.307 218.401 697.803C225.027 696.299 231.036 692.861 235.642 687.938C235.803 687.805 235.883 687.693 235.86 687.693L236.056 687.459L236.159 687.336L236.285 687.202L238.228 684.805C238.387 684.672 238.526 684.519 238.642 684.348C242.162 679.375 244.235 673.548 244.638 667.498C245.04 661.448 243.756 655.405 240.924 650.02C238.093 644.634 233.821 640.112 228.57 636.942C223.319 633.771 217.289 632.072 211.13 632.028L211.13 632.039ZM228.998 681.844C225.628 685.428 221.241 687.93 216.406 689.026C211.571 690.121 206.512 689.759 201.888 687.987C197.264 686.215 193.288 683.114 190.478 679.088C187.668 675.062 186.152 670.297 186.13 665.413L186.133 664.886C186.345 658.514 189.085 652.479 193.765 648.073C198.445 643.668 204.693 641.244 211.168 641.321C217.644 641.398 223.832 643.969 228.406 648.484C232.98 652.999 235.575 659.098 235.634 665.473C235.6 670.34 234.072 675.083 231.251 679.079L229.182 681.599L229.021 681.833L228.998 681.844Z" fill="#EAEAEA" fill-opacity="0.2"/>
<path d="M211.13 632.039C202.216 631.959 193.632 635.349 187.249 641.473C180.866 647.596 177.202 655.956 177.054 664.73L177.049 665.358C177.038 672.051 179.081 678.593 182.91 684.126C186.74 689.659 192.177 693.925 198.509 696.365C204.842 698.806 211.775 699.307 218.401 697.803C225.027 696.299 231.036 692.861 235.642 687.938C235.803 687.805 235.883 687.693 235.86 687.693L236.056 687.459L236.159 687.336L236.285 687.202L238.228 684.805C238.387 684.672 238.526 684.519 238.642 684.348C242.162 679.375 244.235 673.548 244.638 667.498C245.04 661.448 243.756 655.405 240.924 650.02C238.093 644.634 233.821 640.112 228.57 636.942C223.319 633.771 217.289 632.072 211.13 632.028L211.13 632.039ZM228.998 681.844C225.628 685.428 221.241 687.93 216.406 689.026C211.571 690.121 206.512 689.759 201.888 687.987C197.264 686.215 193.288 683.114 190.478 679.088C187.668 675.062 186.152 670.297 186.13 665.413L186.133 664.886C186.345 658.514 189.085 652.479 193.765 648.073C198.445 643.668 204.693 641.244 211.168 641.321C217.644 641.398 223.832 643.969 228.406 648.484C232.98 652.999 235.575 659.098 235.634 665.473C235.6 670.34 234.072 675.083 231.251 679.079L229.182 681.599L229.021 681.833L228.998 681.844Z" fill="#EAEAEA" fill-opacity="0.2"/>
<path d="M216.756 139.641L110.731 138.864C105.467 138.838 100.407 140.913 96.6636 144.633C92.9197 148.353 90.797 153.415 90.7612 158.706L90.5609 186.325C90.5447 189.049 91.0854 191.748 92.1496 194.253C93.2137 196.758 94.7785 199.017 96.747 200.89L96.8762 201.011C98.9241 202.878 101.312 204.329 103.907 205.286L104.236 205.429C106.172 206.065 108.194 206.395 110.231 206.408L146.559 206.674C155.578 206.738 164.346 209.667 171.608 215.042C178.871 220.418 184.256 227.964 186.994 236.602C187.208 237.306 187.611 237.937 188.158 238.427C188.704 238.917 189.374 239.246 190.095 239.38C190.201 239.39 190.308 239.391 190.415 239.382L190.805 239.385C191.405 239.387 191.999 239.258 192.545 239.007C193.091 238.756 193.576 238.388 193.966 237.93L231.857 191.051C234.734 187.51 236.319 183.087 236.349 178.515L236.485 159.774C236.506 157.15 236.011 154.547 235.031 152.115C234.05 149.683 232.602 147.469 230.77 145.599C228.938 143.729 226.757 142.241 224.353 141.218C221.948 140.196 219.367 139.66 216.756 139.641ZM98.6251 168.135L98.6931 158.764C98.7134 155.602 99.9807 152.576 102.217 150.351C104.453 148.127 107.476 146.884 110.623 146.897L216.697 147.674C219.846 147.705 222.854 148.99 225.062 151.248C227.27 153.505 228.496 156.55 228.473 159.716L228.337 178.477C228.282 181.213 227.319 183.853 225.602 185.978L191.981 227.589C187.877 218.969 181.443 211.683 173.414 206.566C165.385 201.448 156.085 198.705 146.578 198.651C146.167 198.648 145.797 198.645 145.337 198.642C145.161 198.628 144.984 198.626 144.807 198.638L110.249 198.384C109.102 198.368 107.962 198.194 106.862 197.867C105.139 197.252 103.555 196.301 102.201 195.068C101.02 193.956 100.081 192.61 99.4427 191.115C98.8046 189.621 98.4811 188.01 98.4927 186.383L98.618 169.12C98.6482 168.978 98.666 168.833 98.6711 168.688C98.6751 168.503 98.6596 168.317 98.6251 168.135Z" fill="#EAEAEA" fill-opacity="0.2"/>
<path d="M139.81 214.482C130.896 214.402 122.312 217.793 115.929 223.916C109.546 230.04 105.881 238.399 105.734 247.173L105.729 247.801C105.718 254.495 107.761 261.036 111.59 266.569C115.419 272.102 120.856 276.368 127.189 278.809C133.522 281.249 140.455 281.75 147.081 280.247C153.706 278.743 159.716 275.304 164.322 270.381C164.482 270.248 164.563 270.136 164.54 270.136L164.735 269.902L164.839 269.779L164.965 269.646L166.908 267.249C167.066 267.116 167.206 266.962 167.322 266.792C170.842 261.818 172.915 255.992 173.317 249.942C173.72 243.892 172.436 237.848 169.604 232.463C166.772 227.078 162.501 222.556 157.25 219.385C151.999 216.214 145.969 214.515 139.81 214.471L139.81 214.482ZM157.678 264.287C154.308 267.871 149.92 270.373 145.085 271.469C140.25 272.565 135.192 272.203 130.568 270.43C125.944 268.658 121.968 265.557 119.158 261.531C116.347 257.505 114.832 252.74 114.809 247.856L114.813 247.329C115.025 240.958 117.764 234.922 122.444 230.517C127.125 226.111 133.372 223.687 139.848 223.764C146.324 223.841 152.512 226.413 157.086 230.928C161.659 235.443 164.254 241.541 164.314 247.916C164.279 252.783 162.752 257.526 159.931 261.522L157.862 264.042L157.701 264.276L157.678 264.287Z" fill="#EAEAEA" fill-opacity="0.2"/>
<path d="M19.9552 676.572L125.98 677.35C131.244 677.375 136.303 675.3 140.047 671.58C143.791 667.86 145.914 662.799 145.95 657.507L146.15 629.888C146.166 627.164 145.626 624.466 144.561 621.96C143.497 619.455 141.932 617.196 139.964 615.324L139.835 615.202C137.787 613.336 135.399 611.884 132.804 610.928L132.475 610.785C130.539 610.149 128.517 609.819 126.48 609.806L90.1516 609.539C81.1328 609.476 72.365 606.547 65.1025 601.171C57.8399 595.796 52.4547 588.249 49.717 579.611C49.5026 578.907 49.1001 578.276 48.5533 577.786C48.0066 577.297 47.3365 576.967 46.6163 576.834C46.5099 576.823 46.4028 576.822 46.2962 576.831L45.9061 576.828C45.3057 576.826 44.712 576.955 44.1661 577.206C43.6202 577.457 43.1352 577.825 42.7447 578.283L4.85376 625.162C1.97701 628.703 0.391838 633.126 0.36154 637.698L0.225569 656.439C0.205217 659.063 0.69947 661.666 1.68008 664.098C2.66069 666.531 4.10845 668.745 5.94066 670.615C7.77284 672.484 9.95357 673.973 12.3582 674.995C14.7629 676.017 17.3444 676.553 19.9552 676.572ZM138.086 648.079L138.018 657.449C137.998 660.612 136.73 663.637 134.494 665.862C132.258 668.087 129.235 669.329 126.088 669.317L20.0135 668.539C16.8646 668.508 13.8565 667.223 11.6489 664.966C9.4413 662.708 8.21449 659.663 8.23745 656.498L8.37357 637.737C8.42936 635 9.39191 632.36 11.1088 630.236L44.7302 588.624C48.8338 597.245 55.268 604.53 63.2972 609.648C71.3264 614.765 80.6263 617.508 90.1334 617.563C90.5435 617.566 90.9136 617.568 91.3737 617.572C91.5501 617.586 91.7272 617.587 91.9038 617.576L126.462 617.829C127.609 617.845 128.749 618.019 129.849 618.347C131.571 618.961 133.156 619.912 134.51 621.146C135.691 622.258 136.63 623.603 137.268 625.098C137.906 626.593 138.23 628.204 138.218 629.83L138.093 647.093C138.063 647.235 138.045 647.38 138.04 647.525C138.036 647.711 138.051 647.896 138.086 648.079Z" fill="#EAEAEA" fill-opacity="0.2"/>
<path d="M19.9552 676.572L125.98 677.35C131.244 677.375 136.303 675.3 140.047 671.58C143.791 667.86 145.914 662.799 145.95 657.507L146.15 629.888C146.166 627.164 145.626 624.466 144.561 621.96C143.497 619.455 141.932 617.196 139.964 615.324L139.835 615.202C137.787 613.336 135.399 611.884 132.804 610.928L132.475 610.785C130.539 610.149 128.517 609.819 126.48 609.806L90.1516 609.539C81.1328 609.476 72.365 606.547 65.1025 601.171C57.8399 595.796 52.4547 588.249 49.717 579.611C49.5026 578.907 49.1001 578.276 48.5533 577.786C48.0066 577.297 47.3365 576.967 46.6163 576.834C46.5099 576.823 46.4028 576.822 46.2962 576.831L45.9061 576.828C45.3057 576.826 44.712 576.955 44.1661 577.206C43.6202 577.457 43.1352 577.825 42.7447 578.283L4.85376 625.162C1.97701 628.703 0.391838 633.126 0.36154 637.698L0.225569 656.439C0.205217 659.063 0.69947 661.666 1.68008 664.098C2.66069 666.531 4.10845 668.745 5.94066 670.615C7.77284 672.484 9.95357 673.973 12.3582 674.995C14.7629 676.017 17.3444 676.553 19.9552 676.572ZM138.086 648.079L138.018 657.449C137.998 660.612 136.73 663.637 134.494 665.862C132.258 668.087 129.235 669.329 126.088 669.317L20.0135 668.539C16.8646 668.508 13.8565 667.223 11.6489 664.966C9.4413 662.708 8.21449 659.663 8.23745 656.498L8.37357 637.737C8.42936 635 9.39191 632.36 11.1088 630.236L44.7302 588.624C48.8338 597.245 55.268 604.53 63.2972 609.648C71.3264 614.765 80.6263 617.508 90.1334 617.563C90.5435 617.566 90.9136 617.568 91.3737 617.572C91.5501 617.586 91.7272 617.587 91.9038 617.576L126.462 617.829C127.609 617.845 128.749 618.019 129.849 618.347C131.571 618.961 133.156 619.912 134.51 621.146C135.691 622.258 136.63 623.603 137.268 625.098C137.906 626.593 138.23 628.204 138.218 629.83L138.093 647.093C138.063 647.235 138.045 647.38 138.04 647.525C138.036 647.711 138.051 647.896 138.086 648.079Z" fill="#EAEAEA" fill-opacity="0.2"/>
<path d="M96.9052 601.731C105.819 601.811 114.403 598.42 120.786 592.297C127.169 586.173 130.833 577.814 130.981 569.04L130.986 568.412C130.997 561.718 128.954 555.177 125.125 549.644C121.296 544.111 115.859 539.845 109.526 537.405C103.193 534.964 96.26 534.463 89.6342 535.967C83.0085 537.47 76.9991 540.909 72.3931 545.832C72.2326 545.965 72.1521 546.077 72.1749 546.077L71.9795 546.311L71.876 546.434L71.7497 546.567L69.8068 548.964C69.6485 549.097 69.5093 549.251 69.3933 549.421C65.8729 554.395 63.7997 560.222 63.3974 566.272C62.9951 572.321 64.2791 578.365 67.1108 583.75C69.9424 589.135 74.2142 593.657 79.465 596.828C84.7158 599.999 90.7461 601.698 96.9052 601.742L96.9052 601.731ZM79.0369 551.926C82.4069 548.342 86.7947 545.84 91.6296 544.744C96.4645 543.649 101.523 544.011 106.147 545.783C110.771 547.555 114.747 550.656 117.557 554.682C120.368 558.708 121.883 563.473 121.906 568.357L121.902 568.884C121.69 575.256 118.95 581.291 114.27 585.696C109.59 590.102 103.343 592.526 96.8667 592.449C90.3909 592.372 84.2027 589.8 79.6291 585.285C75.0555 580.77 72.4607 574.672 72.401 568.297C72.4354 563.43 73.9631 558.687 76.7837 554.691L78.8528 552.171L79.014 551.937L79.0369 551.926Z" fill="#EAEAEA" fill-opacity="0.2"/>
<path d="M96.9052 601.731C105.819 601.811 114.403 598.42 120.786 592.297C127.169 586.173 130.833 577.814 130.981 569.04L130.986 568.412C130.997 561.718 128.954 555.177 125.125 549.644C121.296 544.111 115.859 539.845 109.526 537.405C103.193 534.964 96.26 534.463 89.6342 535.967C83.0085 537.47 76.9991 540.909 72.3931 545.832C72.2326 545.965 72.1521 546.077 72.1749 546.077L71.9795 546.311L71.876 546.434L71.7497 546.567L69.8068 548.964C69.6485 549.097 69.5093 549.251 69.3933 549.421C65.8729 554.395 63.7997 560.222 63.3974 566.272C62.9951 572.321 64.2791 578.365 67.1108 583.75C69.9424 589.135 74.2142 593.657 79.465 596.828C84.7158 599.999 90.7461 601.698 96.9052 601.742L96.9052 601.731ZM79.0369 551.926C82.4069 548.342 86.7947 545.84 91.6296 544.744C96.4645 543.649 101.523 544.011 106.147 545.783C110.771 547.555 114.747 550.656 117.557 554.682C120.368 558.708 121.883 563.473 121.906 568.357L121.902 568.884C121.69 575.256 118.95 581.291 114.27 585.696C109.59 590.102 103.343 592.526 96.8667 592.449C90.3909 592.372 84.2027 589.8 79.6291 585.285C75.0555 580.77 72.4607 574.672 72.401 568.297C72.4354 563.43 73.9631 558.687 76.7837 554.691L78.8528 552.171L79.014 551.937L79.0369 551.926Z" fill="#EAEAEA" fill-opacity="0.2"/>
</g>
</svg>
