<svg width="113" height="58" viewBox="0 0 113 58" fill="none" xmlns="http://www.w3.org/2000/svg">
<path d="M-1.32177 0H-45.0897C-47.2627 0.00546799 -49.3449 0.872838 -50.8792 2.41177C-52.4135 3.95069 -53.2745 6.03545 -53.2734 8.20854V19.551C-53.272 20.6698 -53.0407 21.7762 -52.5939 22.8019C-52.1471 23.8275 -51.4944 24.7504 -50.6763 25.5134L-50.6226 25.5629C-49.7716 26.3233 -48.7818 26.9122 -47.7075 27.2971L-47.5712 27.3549C-46.7702 27.6102 -45.9345 27.7397 -45.0938 27.7389H-30.0971C-26.3741 27.7379 -22.7461 28.9143 -19.7321 31.0998C-16.7181 33.2854 -14.4726 36.3682 -13.3166 39.9072C-13.226 40.1957 -13.058 40.4537 -12.8308 40.6532C-12.6037 40.8527 -12.3261 40.986 -12.0284 41.0386C-11.9844 41.0427 -11.9402 41.0427 -11.8963 41.0386H-11.7352C-11.4874 41.0378 -11.2427 40.983 -11.0181 40.8782C-10.7935 40.7734 -10.5944 40.621 -10.4346 40.4316L5.06587 21.0664C6.24274 19.6037 6.88383 17.7824 6.88264 15.9051V8.20854C6.88319 7.13077 6.67138 6.06347 6.25931 5.06758C5.84724 4.0717 5.24299 3.16676 4.48109 2.40448C3.71918 1.64219 2.81456 1.03748 1.81888 0.624914C0.823208 0.212345 -0.243999 -1.36489e-07 -1.32177 0ZM-49.9991 12.0568V8.20854C-50.0002 6.90971 -49.4861 5.66347 -48.5697 4.74312C-47.6532 3.82278 -46.4091 3.30348 -45.1103 3.2991H-1.32177C-0.0218506 3.30238 1.22371 3.82107 2.14173 4.74142C3.05975 5.66176 3.57528 6.90862 3.57528 8.20854V15.9133C3.56044 17.0373 3.17102 18.1242 2.46869 19.0019L-11.2852 36.1911C-13.0049 32.6634 -15.6827 29.6909 -19.0123 27.6135C-22.342 25.5361 -26.1891 24.4377 -30.1136 24.4439C-30.2829 24.4439 -30.4357 24.4439 -30.6256 24.4439C-30.6985 24.4387 -30.7716 24.4387 -30.8444 24.4439H-45.1103C-45.5839 24.4407 -46.0549 24.3727 -46.5101 24.2416C-47.2229 23.9945 -47.8796 23.6086 -48.4424 23.1061C-48.9332 22.6531 -49.3249 22.1033 -49.5928 21.4915C-49.8607 20.8796 -49.999 20.219 -49.9991 19.551V12.4615C-49.987 12.403 -49.9801 12.3436 -49.9785 12.2839C-49.9774 12.2077 -49.9843 12.1316 -49.9991 12.0568Z" fill="white" fill-opacity="0.6"/>
<path d="M104.795 0H61.0275C58.8544 0.00546799 56.7723 0.872838 55.238 2.41177C53.7037 3.95069 52.8427 6.03545 52.8438 8.20854V19.551C52.8452 20.6698 53.0765 21.7762 53.5233 22.8019C53.9701 23.8275 54.6228 24.7504 55.4409 25.5134L55.4946 25.5629C56.3456 26.3233 57.3354 26.9122 58.4097 27.2971L58.546 27.3549C59.347 27.6102 60.1827 27.7397 61.0234 27.7389H76.0201C79.7431 27.7379 83.3711 28.9143 86.3851 31.0998C89.3991 33.2854 91.6446 36.3682 92.8005 39.9072C92.8912 40.1957 93.0592 40.4537 93.2864 40.6532C93.5135 40.8527 93.7911 40.986 94.0888 41.0386C94.1328 41.0427 94.177 41.0427 94.2209 41.0386H94.382C94.6298 41.0378 94.8745 40.983 95.0991 40.8782C95.3237 40.7734 95.5228 40.621 95.6826 40.4316L111.183 21.0664C112.36 19.6037 113.001 17.7824 113 15.9051V8.20854C113 7.13077 112.789 6.06347 112.376 5.06758C111.964 4.0717 111.36 3.16676 110.598 2.40448C109.836 1.64219 108.932 1.03748 107.936 0.624914C106.94 0.212345 105.873 -1.36489e-07 104.795 0ZM56.1181 12.0568V8.20854C56.117 6.90971 56.6311 5.66347 57.5475 4.74312C58.464 3.82278 59.7081 3.30348 61.0069 3.2991H104.795C106.095 3.30238 107.341 3.82107 108.259 4.74142C109.177 5.66176 109.692 6.90862 109.692 8.20854V15.9133C109.678 17.0373 109.288 18.1242 108.586 19.0019L94.832 36.1911C93.1123 32.6634 90.4345 29.6909 87.1049 27.6135C83.7752 25.5361 79.9281 24.4377 76.0036 24.4439C75.8343 24.4439 75.6815 24.4439 75.4916 24.4439C75.4187 24.4387 75.3456 24.4387 75.2727 24.4439H61.0069C60.5333 24.4407 60.0623 24.3727 59.6071 24.2416C58.8943 23.9945 58.2375 23.6086 57.6747 23.1061C57.184 22.6531 56.7923 22.1033 56.5244 21.4915C56.2565 20.8796 56.1182 20.219 56.1181 19.551V12.4615C56.1301 12.403 56.1371 12.3436 56.1387 12.2839C56.1398 12.2077 56.1329 12.1316 56.1181 12.0568Z" fill="white" fill-opacity="0.6"/>
<path d="M76.0015 33.1843C72.771 33.1787 69.6691 34.4503 67.372 36.7218C65.0749 38.9934 63.7688 42.0809 63.7383 45.3113V45.5425C63.7519 48.0069 64.5094 50.4097 65.9117 52.4363C67.3139 54.4629 69.2955 56.0188 71.5969 56.9001C73.8983 57.7815 76.4123 57.9473 78.8095 57.3759C81.2067 56.8044 83.3755 55.5223 85.0318 53.6974C85.0896 53.6479 85.1185 53.6066 85.1102 53.6066L85.1804 53.5199L85.2176 53.4744L85.263 53.4249L85.9608 52.5372C86.0179 52.4878 86.0679 52.4308 86.1095 52.3679C87.3722 50.5272 88.1082 48.3766 88.2381 46.1482C88.368 43.9199 87.8868 41.6983 86.8464 39.7234C85.806 37.7485 84.2461 36.0953 82.3348 34.9421C80.4236 33.789 78.2337 33.1798 76.0015 33.1802V33.1843ZM82.608 51.4719C81.3961 52.8003 79.8126 53.7334 78.0633 54.1498C76.314 54.5662 74.4799 54.4466 72.7995 53.8065C71.119 53.1665 69.6701 52.0357 68.641 50.5611C67.6119 49.0866 67.0502 47.3365 67.0291 45.5384V45.3444C67.0891 42.998 68.0661 40.7686 69.7506 39.1342C71.435 37.4998 73.6929 36.5905 76.0399 36.6013C78.387 36.6121 80.6363 37.5422 82.3057 39.192C83.9751 40.8419 84.9315 43.0802 84.9698 45.4269C84.9702 47.2188 84.429 48.9689 83.4173 50.4479L82.6741 51.381L82.6163 51.4677L82.608 51.4719Z" fill="white" fill-opacity="0.6"/>
<path d="M35.1336 24.5265C37.1767 24.5315 39.1886 24.026 40.9867 23.0558C42.7848 22.0857 44.312 20.6817 45.4296 18.9714C46.5472 17.261 47.2197 15.2986 47.3862 13.2623C47.5526 11.2259 47.2076 9.18032 46.3826 7.31121C45.5576 5.4421 44.2786 3.80873 42.662 2.55949C41.0453 1.31025 39.1421 0.484729 37.1253 0.157913C35.1085 -0.168903 33.042 0.0133424 31.1136 0.6881C29.1851 1.36286 27.4558 2.50874 26.0827 4.02166C26.046 4.05949 26.0115 4.09948 25.9795 4.1414C25.954 4.16557 25.9305 4.19181 25.9093 4.21985L25.8556 4.28179L25.1454 5.17779C25.0735 5.24132 25.017 5.3204 24.9803 5.40902C23.733 7.25193 23.0112 9.39977 22.8925 11.6219C22.7737 13.8441 23.2625 16.0566 24.3063 18.0219C25.3501 19.9873 26.9095 21.6312 28.817 22.7772C30.7246 23.9231 32.9083 24.5279 35.1336 24.5265ZM26.1694 12.2839C26.1662 10.4877 26.7043 8.7322 27.7137 7.24644L28.3991 6.35044C28.4734 6.29542 28.5364 6.22676 28.5849 6.14812C30.011 4.62083 31.9252 3.6389 33.9976 3.37158C36.07 3.10427 38.1707 3.56831 39.9377 4.68372C41.7046 5.79914 43.0271 7.49604 43.6771 9.48193C44.3272 11.4678 44.264 13.6183 43.4986 15.5626C42.7331 17.5069 41.3134 19.1233 39.484 20.1331C37.6547 21.1429 35.5303 21.4829 33.4772 21.0944C31.4241 20.706 29.5708 19.6134 28.2368 18.0051C26.9028 16.3968 26.1716 14.3734 26.1694 12.2839Z" fill="white" fill-opacity="0.6"/>
<path d="M57.9273 35.6962C57.9273 35.6466 57.9025 35.6012 57.8901 35.5641C57.8544 35.4416 57.8074 35.3227 57.7497 35.209C57.7167 35.114 57.6795 35.0273 57.6176 34.891C57.6073 34.8606 57.5934 34.8315 57.5763 34.8043C57.5557 34.7465 57.5268 34.6805 57.4937 34.5979C57.4515 34.5046 57.4017 34.4148 57.3451 34.3295C57.3191 34.289 57.297 34.2461 57.279 34.2015C57.2573 34.155 57.231 34.1107 57.2006 34.0693C57.1676 34.0033 57.1263 33.9248 57.0685 33.8216C57.016 33.7298 56.9537 33.6439 56.8826 33.5656C56.8504 33.5038 56.8117 33.4457 56.767 33.3922C56.7173 33.3091 56.6607 33.2304 56.5977 33.1568C56.5597 33.0947 56.5154 33.0366 56.4656 32.9834L56.3087 32.8182L56.2715 32.7728L56.1146 32.5994L56.0279 32.4962L55.7513 32.2237C55.729 32.2002 55.7041 32.1794 55.677 32.1617C55.5849 32.058 55.4825 31.9639 55.3714 31.881C55.3396 31.8551 55.305 31.833 55.2682 31.8149C54.9771 31.5622 54.6634 31.3369 54.3309 31.1418L54.2648 31.0964C54.1726 31.0393 54.0775 30.9869 53.9799 30.9395L53.8519 30.8735C53.7331 30.8118 53.6103 30.758 53.4844 30.7124C53.3437 30.6315 53.1958 30.5637 53.0426 30.5101C52.9413 30.4678 52.838 30.4305 52.733 30.3986L52.5471 30.3408L52.4604 30.316C52.3444 30.2458 52.212 30.2074 52.0764 30.2046L51.9773 30.1757H51.9195C51.8555 30.1541 51.7888 30.1416 51.7213 30.1385C51.6233 30.1152 51.524 30.0972 51.424 30.0848C51.3632 30.0695 51.3009 30.0612 51.2382 30.06C51.1729 30.0467 51.1066 30.0384 51.04 30.0353C51.0016 30.0312 50.9629 30.0312 50.9244 30.0353H50.8625C50.7877 30.0208 50.7116 30.0138 50.6354 30.0146C50.577 30.0021 50.5175 29.9952 50.4578 29.994H35.9153C35.8556 29.9812 35.7947 29.9743 35.7337 29.9733H35.5974C35.4157 29.9733 35.2712 29.9733 35.135 29.9733C31.4107 29.9787 27.7801 28.8058 24.763 26.6223C21.7459 24.4388 19.4969 21.3568 18.338 17.8174C18.2483 17.5251 18.0793 17.2633 17.8496 17.0614C17.62 16.8594 17.3388 16.7252 17.0373 16.6737C16.746 16.6195 16.4454 16.6467 16.1686 16.7523C15.8918 16.8579 15.6494 17.0379 15.4683 17.2724L-0.0362735 36.6376C-1.20099 38.1003 -1.8317 39.9167 -1.82415 41.7865V49.4913C-1.82635 51.6655 -0.965892 53.7518 0.568391 55.2922C2.10267 56.8327 4.18544 57.7016 6.35962 57.7081H50.1275C52.3043 57.7038 54.3904 56.8363 55.9285 55.2959C57.4665 53.7556 58.3308 51.6681 58.3319 49.4913V38.1571C58.3146 37.3217 58.1784 36.4931 57.9273 35.6962ZM50.4165 33.2683C50.5291 33.2943 50.6438 33.3095 50.7593 33.3137L50.8749 33.3344H50.9905C51.0488 33.3553 51.1102 33.3665 51.1722 33.3674C51.2388 33.3921 51.3081 33.4088 51.3786 33.417H51.4406C51.4779 33.4309 51.5167 33.4406 51.5562 33.4459L51.7668 33.5243C51.7921 33.535 51.8183 33.5433 51.8452 33.5491C51.9137 33.5857 51.9839 33.6188 52.0558 33.6482L52.1797 33.6977L52.3366 33.7721L52.3985 33.7968C52.4567 33.8475 52.5221 33.8892 52.5926 33.9207C52.7999 34.0446 52.9986 34.1826 53.1871 34.3336L53.2821 34.4038L53.3564 34.4822C53.3964 34.5296 53.4438 34.57 53.4968 34.602L53.6001 34.6928C53.6521 34.7663 53.7101 34.8353 53.7735 34.8993C53.812 34.9497 53.8548 34.9966 53.9015 35.0397C53.9328 35.1062 53.9778 35.1653 54.0336 35.2131C54.0614 35.269 54.0992 35.3194 54.1451 35.3617C54.1646 35.403 54.1867 35.443 54.2111 35.4815L54.3268 35.6714V35.6921L54.3887 35.8407C54.4156 35.8992 54.4488 35.9546 54.4878 36.0059C54.5086 36.0759 54.5392 36.1426 54.5786 36.2041C54.6035 36.3009 54.638 36.395 54.6819 36.4848C54.6819 36.4848 54.6819 36.5055 54.6819 36.5137C54.6819 36.522 54.6819 36.5592 54.6819 36.5798C54.8404 37.0693 54.9212 37.5806 54.9213 38.0952V49.4294C54.9224 50.7275 54.4081 51.9729 53.4914 52.8919C52.5747 53.8109 51.3306 54.3284 50.0325 54.3306H6.26465C4.96473 54.3295 3.71831 53.8129 2.79874 52.8941C1.87917 51.9753 1.36153 50.7293 1.35935 49.4294V41.7865C1.37005 40.6617 1.76321 39.5739 2.47419 38.7021L16.2115 21.517C17.7052 24.5571 19.9089 27.1928 22.6363 29.2012C26.2365 31.8447 30.59 33.263 35.0565 33.2477H50.0697C50.1842 33.2674 50.3005 33.2743 50.4165 33.2683ZM51.5562 32.6531L51.5025 32.9132V32.7563L51.5396 32.6531H51.5562Z" fill="white" fill-opacity="0.6"/>
</svg>
