<svg width="14" height="15" viewBox="0 0 14 15" fill="none" xmlns="http://www.w3.org/2000/svg">
<path d="M12.8766 9.31879C12.0195 9.31879 11.1779 9.18473 10.3804 8.92118C9.98958 8.78788 9.50917 8.91016 9.27066 9.15513L7.6965 10.3435C5.87092 9.36896 4.7464 8.2448 3.78521 6.43293L4.93857 4.89979C5.23822 4.60053 5.3457 4.1634 5.21693 3.75324C4.95224 2.95152 4.81779 2.11032 4.81779 1.25282C4.81782 0.633358 4.31386 0.129395 3.69443 0.129395H1.12339C0.503964 0.129395 0 0.633358 0 1.25279C0 8.35305 5.77638 14.1294 12.8766 14.1294C13.4961 14.1294 14 13.6254 14 13.006V10.4421C14 9.82275 13.496 9.31879 12.8766 9.31879Z" fill="#94C93B"/>
</svg>
