<svg width="114" height="115" viewBox="0 0 114 115" fill="none" xmlns="http://www.w3.org/2000/svg">
<g filter="url(#filter0_d)">
<path d="M62.8766 55.7844C62.0195 55.7844 61.1779 55.6503 60.3804 55.3868C59.9896 55.2535 59.5092 55.3757 59.2707 55.6207L57.6965 56.809C55.8709 55.8345 54.7464 54.7104 53.7852 52.8985L54.9386 51.3654C55.2382 51.0661 55.3457 50.629 55.2169 50.2188C54.9522 49.4171 54.8178 48.5759 54.8178 47.7184C54.8178 47.0989 54.3139 46.595 53.6944 46.595H51.1234C50.504 46.595 50 47.0989 50 47.7184C50 54.8186 55.7764 60.595 62.8766 60.595C63.4961 60.595 64 60.091 64 59.4716V56.9077C64 56.2883 63.496 55.7844 62.8766 55.7844Z" fill="white"/>
</g>
<defs>
<filter id="filter0_d" x="0" y="0.594971" width="114" height="114" filterUnits="userSpaceOnUse" color-interpolation-filters="sRGB">
<feFlood flood-opacity="0" result="BackgroundImageFix"/>
<feColorMatrix in="SourceAlpha" type="matrix" values="0 0 0 0 0 0 0 0 0 0 0 0 0 0 0 0 0 0 127 0" result="hardAlpha"/>
<feOffset dy="4"/>
<feGaussianBlur stdDeviation="25"/>
<feColorMatrix type="matrix" values="0 0 0 0 0.580392 0 0 0 0 0.788235 0 0 0 0 0.231373 0 0 0 0.3 0"/>
<feBlend mode="normal" in2="BackgroundImageFix" result="effect1_dropShadow"/>
<feBlend mode="normal" in="SourceGraphic" in2="effect1_dropShadow" result="shape"/>
</filter>
</defs>
</svg>
