<svg width="42" height="42" fill="none" xmlns="http://www.w3.org/2000/svg"><path d="M21 42c11.598 0 21-9.402 21-21S32.597 0 21 0 0 9.402 0 21s9.402 21 21 21z" fill="#41B4E6"/><path d="M42 21c0-.511-.02-1.018-.055-1.52l-8.703-8.704-24.483 9.63 9.367 9.368.123.442.159-.16-.16.16 10.363 10.362C36.446 37.529 42 29.914 42 21z" fill="#0091C8"/><path d="M18.96 24.06l9.491 7.165 4.79-20.45L8.76 20.407l7.45 2.468 13.596-9.12L18.96 24.06z" fill="#fff"/><path d="M16.209 22.874l2.04 7.342.712-6.156 10.844-10.306-13.596 9.12z" fill="#D2D2D7"/><path d="M22.045 26.388l-3.797 3.827.712-6.155 3.085 2.328z" fill="#B9B9BE"/></svg>