<svg width="420" height="1374" viewBox="0 0 420 1374" fill="none" xmlns="http://www.w3.org/2000/svg">
<g opacity="0.5">
<path d="M383.188 35.8828L383.77 157.162C383.784 163.184 381.41 168.965 377.168 173.237C372.927 177.508 367.166 179.922 361.148 179.948L329.738 180.099C326.64 180.11 323.573 179.483 320.727 178.259C317.881 177.035 315.316 175.238 313.193 172.981L313.055 172.833C310.938 170.485 309.294 167.75 308.214 164.779L308.052 164.402C307.334 162.186 306.965 159.872 306.956 157.542L306.756 115.987C306.709 105.671 303.404 95.6332 297.311 87.3106C291.219 78.9881 282.652 72.8067 272.836 69.6507C272.036 69.4034 271.32 68.9412 270.764 68.3144C270.209 67.6876 269.836 66.9203 269.686 66.096C269.674 65.9743 269.674 65.8518 269.685 65.7299L269.682 65.2837C269.681 64.5969 269.83 63.9182 270.117 63.2945C270.404 62.6708 270.824 62.117 271.346 61.6716L324.766 18.463C328.801 15.1825 333.836 13.3819 339.034 13.3602L360.348 13.2578C363.332 13.242 366.291 13.8147 369.054 14.9433C371.817 16.0719 374.331 17.7342 376.452 19.8353C378.573 21.9364 380.26 24.435 381.415 27.1885C382.571 29.942 383.173 32.8964 383.188 35.8828ZM350.448 170.926L361.104 170.875C364.701 170.861 368.145 169.42 370.682 166.868C373.218 164.316 374.64 160.862 374.634 157.263L374.052 35.9267C374.026 32.3247 372.573 28.8802 370.012 26.3486C367.451 23.8171 363.991 22.4052 360.392 22.4224L339.055 22.5249C335.943 22.5809 332.938 23.6744 330.517 25.6322L283.1 63.9721C292.892 68.6905 301.159 76.071 306.956 85.2698C312.753 94.4685 315.846 105.114 315.881 115.989C315.883 116.458 315.885 116.881 315.888 117.408C315.903 117.609 315.904 117.812 315.89 118.014L316.08 157.544C316.095 158.856 316.29 160.161 316.659 161.42C317.353 163.392 318.43 165.207 319.829 166.76C321.09 168.113 322.618 169.191 324.316 169.926C326.014 170.66 327.845 171.034 329.695 171.026L349.327 170.931C349.489 170.897 349.653 170.877 349.819 170.872C350.03 170.868 350.24 170.886 350.448 170.926Z" fill="#EAEAEA" fill-opacity="0.2"/>
<path d="M383.188 35.8828L383.77 157.162C383.784 163.184 381.41 168.965 377.168 173.237C372.927 177.508 367.166 179.922 361.148 179.948L329.738 180.099C326.64 180.11 323.573 179.483 320.727 178.259C317.881 177.035 315.316 175.238 313.193 172.981L313.055 172.833C310.938 170.485 309.294 167.75 308.214 164.779L308.052 164.402C307.334 162.186 306.965 159.872 306.956 157.542L306.756 115.987C306.709 105.671 303.404 95.6332 297.311 87.3106C291.219 78.9881 282.652 72.8067 272.836 69.6507C272.036 69.4034 271.32 68.9412 270.764 68.3144C270.209 67.6876 269.836 66.9203 269.686 66.096C269.674 65.9743 269.674 65.8518 269.685 65.7299L269.682 65.2837C269.681 64.5969 269.83 63.9182 270.117 63.2945C270.404 62.6708 270.824 62.117 271.346 61.6716L324.766 18.463C328.801 15.1825 333.836 13.3819 339.034 13.3602L360.348 13.2578C363.332 13.242 366.291 13.8147 369.054 14.9433C371.817 16.0719 374.331 17.7342 376.452 19.8353C378.573 21.9364 380.26 24.435 381.415 27.1885C382.571 29.942 383.173 32.8964 383.188 35.8828ZM350.448 170.926L361.104 170.875C364.701 170.861 368.145 169.42 370.682 166.868C373.218 164.316 374.64 160.862 374.634 157.263L374.052 35.9267C374.026 32.3247 372.573 28.8802 370.012 26.3486C367.451 23.8171 363.991 22.4052 360.392 22.4224L339.055 22.5249C335.943 22.5809 332.938 23.6744 330.517 25.6322L283.1 63.9721C292.892 68.6905 301.159 76.071 306.956 85.2698C312.753 94.4685 315.846 105.114 315.881 115.989C315.883 116.458 315.885 116.881 315.888 117.408C315.903 117.609 315.904 117.812 315.89 118.014L316.08 157.544C316.095 158.856 316.29 160.161 316.659 161.42C317.353 163.392 318.43 165.207 319.829 166.76C321.09 168.113 322.618 169.191 324.316 169.926C326.014 170.66 327.845 171.034 329.695 171.026L349.327 170.931C349.489 170.897 349.653 170.877 349.819 170.872C350.03 170.868 350.24 170.886 350.448 170.926Z" fill="#EAEAEA" fill-opacity="0.2"/>
<path d="M309.943 123.506C310.009 133.655 306.128 143.418 299.146 150.668C292.164 157.918 282.647 162.067 272.669 162.211L271.954 162.215C264.342 162.208 256.909 159.864 250.627 155.489C244.346 151.114 239.511 144.912 236.753 137.695C233.996 130.478 233.446 122.583 235.175 115.044C236.904 107.505 240.832 100.673 246.444 95.4423C246.596 95.26 246.723 95.1686 246.723 95.1945L246.99 94.9727L247.13 94.8553L247.282 94.7118L250.014 92.5066C250.165 92.3266 250.34 92.1686 250.534 92.0371C256.201 88.0429 262.833 85.6988 269.714 85.2577C276.595 84.8167 283.465 86.2954 289.581 89.5344C295.697 92.7734 300.827 97.6496 304.418 103.637C308.008 109.624 309.923 116.494 309.956 123.506L309.943 123.506ZM253.355 103.023C249.27 106.85 246.411 111.839 245.151 117.34C243.892 122.842 244.289 128.602 246.291 133.872C248.293 139.141 251.808 143.676 256.379 146.887C260.949 150.098 266.363 151.837 271.918 151.876L272.517 151.873C279.764 151.65 286.635 148.548 291.658 143.232C296.682 137.916 299.456 130.81 299.388 123.437C299.319 116.063 296.412 109.011 291.291 103.791C286.169 98.5713 279.241 95.6 271.991 95.5142C266.456 95.5398 261.059 97.2657 256.506 100.466L253.634 102.815L253.367 102.997L253.355 103.023Z" fill="#00589B" fill-opacity="0.15"/>
<path d="M269.687 323.084L269.105 201.805C269.061 195.783 266.685 190.025 262.498 185.794C258.31 181.562 252.654 179.203 246.77 179.235L216.059 179.382C213.029 179.401 210.037 180.056 207.265 181.307C204.494 182.559 202.004 184.379 199.949 186.656L199.816 186.806C197.768 189.174 196.187 191.924 195.159 194.906L195.004 195.284C194.324 197.507 193.984 199.824 193.997 202.154L194.197 243.709C194.249 254.026 191.112 264.094 185.235 272.474C179.357 280.854 171.04 287.116 161.472 290.365C160.693 290.62 159.996 291.089 159.459 291.721C158.922 292.353 158.565 293.124 158.426 293.95C158.416 294.072 158.416 294.194 158.428 294.316L158.43 294.762C158.436 295.449 158.587 296.126 158.874 296.747C159.161 297.368 159.576 297.918 160.091 298.358L212.732 341.058C216.708 344.3 221.648 346.053 226.731 346.025L247.57 345.925C250.489 345.912 253.376 345.311 256.067 344.157C258.758 343.002 261.2 341.316 263.254 339.195C265.308 337.074 266.933 334.559 268.037 331.795C269.141 329.03 269.702 326.07 269.687 323.084ZM236.394 188.358L246.814 188.308C250.33 188.288 253.712 189.696 256.216 192.224C258.72 194.751 260.143 198.192 260.172 201.791L260.754 323.127C260.763 326.729 259.375 330.187 256.895 332.743C254.415 335.299 251.046 336.743 247.526 336.76L226.664 336.86C223.621 336.834 220.673 335.769 218.287 333.834L171.562 295.946C181.091 291.135 189.103 283.676 194.684 274.423C200.265 265.17 203.187 254.495 203.118 243.621C203.116 243.152 203.114 242.728 203.112 242.202C203.125 242 203.124 241.797 203.109 241.596L202.919 202.065C202.921 200.753 203.099 199.447 203.448 198.184C204.108 196.206 205.144 194.381 206.497 192.815C207.717 191.449 209.2 190.357 210.854 189.606C212.507 188.856 214.294 188.464 216.102 188.455L235.298 188.363C235.457 188.396 235.618 188.414 235.779 188.418C235.986 188.42 236.192 188.4 236.394 188.358Z" fill="#00589B" fill-opacity="0.3"/>
<path d="M140.402 235.319C140.37 225.004 136.329 215.119 129.16 207.818C121.991 200.518 112.275 196.394 102.13 196.345L101.404 196.349C93.6651 196.43 86.1309 198.885 79.7882 203.393C73.4454 207.9 68.5898 214.251 65.8572 221.613C63.1246 228.974 62.6424 237.004 64.4738 244.65C66.3052 252.295 70.3648 259.201 76.1209 264.462C76.2774 264.646 76.4075 264.737 76.4074 264.711L76.6808 264.934L76.824 265.052L76.9803 265.196L79.7788 267.411C79.9348 267.592 80.1144 267.751 80.3128 267.883C86.1125 271.887 92.8775 274.205 99.8774 274.586C106.877 274.967 113.847 273.397 120.032 270.045C126.218 266.694 131.386 261.688 134.978 255.568C138.57 249.448 140.45 242.446 140.415 235.319L140.402 235.319ZM83.0729 256.689C78.8824 252.84 75.9279 247.798 74.5935 242.218C73.2591 236.639 73.6066 230.781 75.5907 225.406C77.5748 220.031 81.1038 215.387 85.7188 212.079C90.3337 208.771 95.8211 206.951 101.467 206.857L102.077 206.854C109.446 207.01 116.462 210.096 121.621 215.449C126.779 220.803 129.669 227.999 129.671 235.493C129.674 242.987 126.787 250.184 121.632 255.539C116.476 260.894 109.462 263.981 102.092 264.139C96.4654 264.167 90.961 262.466 86.3011 259.258L83.3591 256.899L83.086 256.716L83.0729 256.689Z" fill="#EAEAEA" fill-opacity="0.2"/>
<path d="M140.402 235.319C140.37 225.004 136.329 215.119 129.16 207.818C121.991 200.518 112.275 196.394 102.13 196.345L101.404 196.349C93.6651 196.43 86.1309 198.885 79.7882 203.393C73.4454 207.9 68.5898 214.251 65.8572 221.613C63.1246 228.974 62.6424 237.004 64.4738 244.65C66.3052 252.295 70.3648 259.201 76.1209 264.462C76.2774 264.646 76.4075 264.737 76.4074 264.711L76.6808 264.934L76.824 265.052L76.9803 265.196L79.7788 267.411C79.9348 267.592 80.1144 267.751 80.3128 267.883C86.1125 271.887 92.8775 274.205 99.8774 274.586C106.877 274.967 113.847 273.397 120.032 270.045C126.218 266.694 131.386 261.688 134.978 255.568C138.57 249.448 140.45 242.446 140.415 235.319L140.402 235.319ZM83.0729 256.689C78.8824 252.84 75.9279 247.798 74.5935 242.218C73.2591 236.639 73.6066 230.781 75.5907 225.406C77.5748 220.031 81.1038 215.387 85.7188 212.079C90.3337 208.771 95.8211 206.951 101.467 206.857L102.077 206.854C109.446 207.01 116.462 210.096 121.621 215.449C126.779 220.803 129.669 227.999 129.671 235.493C129.674 242.987 126.787 250.184 121.632 255.539C116.476 260.894 109.462 263.981 102.092 264.139C96.4654 264.167 90.961 262.466 86.3011 259.258L83.3591 256.899L83.086 256.716L83.0729 256.689Z" fill="#EAEAEA" fill-opacity="0.2"/>
<path d="M169.683 798.389L169.101 677.11C169.057 671.089 166.654 665.33 162.42 661.099C158.185 656.868 152.465 654.509 146.514 654.541L115.453 654.69C112.39 654.709 109.363 655.364 106.56 656.616C103.757 657.867 101.239 659.688 99.1602 661.965L99.0252 662.115C96.9543 664.483 95.3549 667.233 94.315 670.215L94.1585 670.593C93.4702 672.816 93.1266 675.134 93.1399 677.463L93.3395 719.019C93.3919 729.335 90.2187 739.403 84.2737 747.784C78.3288 756.164 69.9166 762.427 60.2407 765.676C59.4521 765.931 58.7477 766.4 58.2045 767.032C57.6612 767.665 57.2998 768.435 57.1597 769.261C57.1491 769.383 57.1497 769.505 57.1614 769.627L57.1636 770.073C57.1692 770.76 57.3223 771.437 57.6123 772.058C57.9022 772.679 58.3222 773.229 58.843 773.669L112.08 816.366C116.101 819.608 121.097 821.36 126.238 821.332L147.314 821.231C150.265 821.219 153.185 820.618 155.907 819.463C158.629 818.308 161.099 816.621 163.176 814.5C165.253 812.379 166.897 809.864 168.014 807.1C169.13 804.336 169.698 801.376 169.683 798.389ZM136.019 663.665L146.557 663.614C150.114 663.594 153.534 665.002 156.066 667.529C158.599 670.057 160.037 673.497 160.066 677.096L160.649 798.433C160.657 802.035 159.253 805.493 156.745 808.049C154.237 810.605 150.83 812.049 147.27 812.067L126.171 812.168C123.093 812.142 120.111 811.077 117.699 809.142L70.4441 771.257C80.0816 766.445 88.186 758.986 93.8305 749.732C99.475 740.479 102.432 729.804 102.362 718.929C102.36 718.46 102.358 718.037 102.355 717.511C102.369 717.309 102.368 717.106 102.353 716.904L102.163 677.374C102.165 676.062 102.345 674.756 102.698 673.493C103.365 671.514 104.414 669.689 105.782 668.123C107.016 666.758 108.516 665.665 110.188 664.915C111.86 664.164 113.668 663.772 115.497 663.763L134.911 663.67C135.071 663.703 135.234 663.721 135.397 663.725C135.606 663.727 135.814 663.707 136.019 663.665Z" fill="#EAEAEA" fill-opacity="0.2"/>
<path d="M169.683 798.389L169.101 677.11C169.057 671.089 166.654 665.33 162.42 661.099C158.185 656.868 152.465 654.509 146.514 654.541L115.453 654.69C112.39 654.709 109.363 655.364 106.56 656.616C103.757 657.867 101.239 659.688 99.1602 661.965L99.0252 662.115C96.9543 664.483 95.3549 667.233 94.315 670.215L94.1585 670.593C93.4702 672.816 93.1266 675.134 93.1399 677.463L93.3395 719.019C93.3919 729.335 90.2187 739.403 84.2737 747.784C78.3288 756.164 69.9166 762.427 60.2407 765.676C59.4521 765.931 58.7477 766.4 58.2045 767.032C57.6612 767.665 57.2998 768.435 57.1597 769.261C57.1491 769.383 57.1497 769.505 57.1614 769.627L57.1636 770.073C57.1692 770.76 57.3223 771.437 57.6123 772.058C57.9022 772.679 58.3222 773.229 58.843 773.669L112.08 816.366C116.101 819.608 121.097 821.36 126.238 821.332L147.314 821.231C150.265 821.219 153.185 820.618 155.907 819.463C158.629 818.308 161.099 816.621 163.176 814.5C165.253 812.379 166.897 809.864 168.014 807.1C169.13 804.336 169.698 801.376 169.683 798.389ZM136.019 663.665L146.557 663.614C150.114 663.594 153.534 665.002 156.066 667.529C158.599 670.057 160.037 673.497 160.066 677.096L160.649 798.433C160.657 802.035 159.253 805.493 156.745 808.049C154.237 810.605 150.83 812.049 147.27 812.067L126.171 812.168C123.093 812.142 120.111 811.077 117.699 809.142L70.4441 771.257C80.0816 766.445 88.186 758.986 93.8305 749.732C99.475 740.479 102.432 729.804 102.362 718.929C102.36 718.46 102.358 718.037 102.355 717.511C102.369 717.309 102.368 717.106 102.353 716.904L102.163 677.374C102.165 676.062 102.345 674.756 102.698 673.493C103.365 671.514 104.414 669.689 105.782 668.123C107.016 666.758 108.516 665.665 110.188 664.915C111.86 664.164 113.668 663.772 115.497 663.763L134.911 663.67C135.071 663.703 135.234 663.721 135.397 663.725C135.606 663.727 135.814 663.707 136.019 663.665Z" fill="#EAEAEA" fill-opacity="0.2"/>
<path d="M84.6364 710.412C84.6038 700.097 80.694 690.211 73.7591 682.909C66.8241 675.608 57.4262 671.483 47.6135 671.432L46.9112 671.436C39.4261 671.515 32.1393 673.969 26.0052 678.476C19.8711 682.983 15.1757 689.333 12.5339 696.694C9.89203 704.055 9.42692 712.084 11.1995 719.73C12.972 727.376 16.8996 734.283 22.4678 739.544C22.6192 739.728 22.7451 739.82 22.745 739.794L23.0094 740.016L23.1479 740.134L23.2991 740.279L26.0063 742.494C26.1571 742.675 26.3309 742.834 26.5228 742.966C32.133 746.971 38.6765 749.29 45.447 749.672C52.2176 750.054 58.9579 748.485 64.9406 745.135C70.9232 741.784 75.9209 736.779 79.3942 730.66C82.8675 724.54 84.6844 717.539 84.6489 710.412L84.6364 710.412ZM29.1906 731.773C25.137 727.923 22.2785 722.88 20.987 717.301C19.6955 711.721 20.0306 705.863 21.9488 700.488C23.8671 695.114 27.2796 690.47 31.7427 687.163C36.2059 683.856 41.513 682.037 46.9742 681.943L47.5636 681.94C54.6913 682.098 61.4779 685.185 66.4682 690.539C71.4584 695.894 74.2549 703.09 74.2581 710.584C74.2613 718.078 71.4708 725.274 66.4851 730.629C61.4993 735.983 54.7154 739.069 47.5878 739.226C42.1452 739.253 36.821 737.551 32.3134 734.342L29.4675 731.983L29.2033 731.799L29.1906 731.773Z" fill="#00589B" fill-opacity="0.3"/>
<path d="M110.118 491.635L109.532 369.437C109.518 363.369 111.892 357.545 116.133 353.24C120.374 348.936 126.135 346.505 132.153 346.479L163.563 346.328C166.66 346.317 169.728 346.948 172.574 348.182C175.42 349.416 177.984 351.226 180.108 353.5L180.246 353.649C182.363 356.015 184.007 358.771 185.088 361.765L185.249 362.145C185.967 364.377 186.337 366.709 186.346 369.056L186.547 410.926C186.594 421.321 189.9 431.434 195.993 439.82C202.086 448.206 210.653 454.435 220.468 457.615C221.268 457.864 221.985 458.33 222.541 458.961C223.096 459.593 223.469 460.366 223.619 461.197C223.631 461.319 223.631 461.443 223.62 461.565L223.623 462.015C223.624 462.707 223.475 463.391 223.188 464.019C222.901 464.648 222.482 465.206 221.959 465.654L168.541 509.188C164.506 512.494 159.471 514.308 154.273 514.329L132.959 514.432C129.975 514.448 127.016 513.87 124.253 512.733C121.49 511.596 118.976 509.921 116.854 507.804C114.733 505.687 113.047 503.169 111.891 500.395C110.735 497.62 110.133 494.644 110.118 491.635ZM142.853 355.569L132.197 355.621C128.6 355.635 125.156 357.087 122.62 359.658C120.083 362.229 118.662 365.709 118.667 369.335L119.254 491.591C119.281 495.22 120.734 498.691 123.295 501.241C125.855 503.792 129.315 505.215 132.915 505.198L154.251 505.095C157.363 505.039 160.368 503.937 162.789 501.965L210.205 463.336C200.413 458.582 192.146 451.145 186.348 441.876C180.551 432.608 177.458 421.881 177.422 410.924C177.42 410.451 177.418 410.025 177.416 409.495C177.4 409.291 177.399 409.087 177.413 408.884L177.221 369.054C177.206 367.732 177.011 366.418 176.642 365.149C175.948 363.162 174.871 361.333 173.472 359.769C172.211 358.404 170.683 357.318 168.985 356.578C167.287 355.839 165.456 355.461 163.606 355.47L143.974 355.564C143.812 355.598 143.648 355.619 143.483 355.624C143.272 355.628 143.061 355.61 142.853 355.569Z" fill="#EAEAEA" fill-opacity="0.2"/>
<path d="M110.118 491.635L109.532 369.437C109.518 363.369 111.892 357.545 116.133 353.24C120.374 348.936 126.135 346.505 132.153 346.479L163.563 346.328C166.66 346.317 169.728 346.948 172.574 348.182C175.42 349.416 177.984 351.226 180.108 353.5L180.246 353.649C182.363 356.015 184.007 358.771 185.088 361.765L185.249 362.145C185.967 364.377 186.337 366.709 186.346 369.056L186.547 410.926C186.594 421.321 189.9 431.434 195.993 439.82C202.086 448.206 210.653 454.435 220.468 457.615C221.268 457.864 221.985 458.33 222.541 458.961C223.096 459.593 223.469 460.366 223.619 461.197C223.631 461.319 223.631 461.443 223.62 461.565L223.623 462.015C223.624 462.707 223.475 463.391 223.188 464.019C222.901 464.648 222.482 465.206 221.959 465.654L168.541 509.188C164.506 512.494 159.471 514.308 154.273 514.329L132.959 514.432C129.975 514.448 127.016 513.87 124.253 512.733C121.49 511.596 118.976 509.921 116.854 507.804C114.733 505.687 113.047 503.169 111.891 500.395C110.735 497.62 110.133 494.644 110.118 491.635ZM142.853 355.569L132.197 355.621C128.6 355.635 125.156 357.087 122.62 359.658C120.083 362.229 118.662 365.709 118.667 369.335L119.254 491.591C119.281 495.22 120.734 498.691 123.295 501.241C125.855 503.792 129.315 505.215 132.915 505.198L154.251 505.095C157.363 505.039 160.368 503.937 162.789 501.965L210.205 463.336C200.413 458.582 192.146 451.145 186.348 441.876C180.551 432.608 177.458 421.881 177.422 410.924C177.42 410.451 177.418 410.025 177.416 409.495C177.4 409.291 177.399 409.087 177.413 408.884L177.221 369.054C177.206 367.732 177.011 366.418 176.642 365.149C175.948 363.162 174.871 361.333 173.472 359.769C172.211 358.404 170.683 357.318 168.985 356.578C167.287 355.839 165.456 355.461 163.606 355.47L143.974 355.564C143.812 355.598 143.648 355.619 143.483 355.624C143.272 355.628 143.061 355.61 142.853 355.569Z" fill="#EAEAEA" fill-opacity="0.2"/>
<path d="M195.579 403.011C195.513 392.696 199.328 382.773 206.192 375.406C213.057 368.038 222.415 363.822 232.226 363.678L232.929 363.674C240.414 363.682 247.724 366.066 253.901 370.514C260.078 374.961 264.835 381.266 267.547 388.601C270.259 395.937 270.801 403.961 269.102 411.624C267.403 419.287 263.542 426.23 258.025 431.545C257.875 431.731 257.75 431.824 257.75 431.797L257.488 432.023L257.35 432.142L257.201 432.288L254.515 434.529C254.366 434.712 254.194 434.872 254.003 435.006C248.431 439.065 241.91 441.446 235.144 441.893C228.377 442.34 221.622 440.836 215.608 437.543C209.593 434.25 204.548 429.293 201.016 423.208C197.484 417.122 195.6 410.138 195.567 403.011L195.579 403.011ZM251.228 423.839C255.244 419.95 258.054 414.88 259.292 409.289C260.53 403.697 260.139 397.842 258.169 392.486C256.199 387.13 252.742 382.52 248.247 379.255C243.753 375.991 238.428 374.223 232.967 374.182L232.377 374.185C225.251 374.411 218.495 377.563 213.556 382.965C208.617 388.367 205.89 395.59 205.959 403.084C206.028 410.578 208.887 417.746 213.924 423.053C218.961 428.359 225.774 431.38 232.903 431.468C238.346 431.443 243.653 429.69 248.13 426.438L250.953 424.051L251.215 423.865L251.228 423.839Z" fill="#EAEAEA" fill-opacity="0.2"/>
<path d="M195.579 403.011C195.513 392.696 199.328 382.773 206.192 375.406C213.057 368.038 222.415 363.822 232.226 363.678L232.929 363.674C240.414 363.682 247.724 366.066 253.901 370.514C260.078 374.961 264.835 381.266 267.547 388.601C270.259 395.937 270.801 403.961 269.102 411.624C267.403 419.287 263.542 426.23 258.025 431.545C257.875 431.731 257.75 431.824 257.75 431.797L257.488 432.023L257.35 432.142L257.201 432.288L254.515 434.529C254.366 434.712 254.194 434.872 254.003 435.006C248.431 439.065 241.91 441.446 235.144 441.893C228.377 442.34 221.622 440.836 215.608 437.543C209.593 434.25 204.548 429.293 201.016 423.208C197.484 417.122 195.6 410.138 195.567 403.011L195.579 403.011ZM251.228 423.839C255.244 419.95 258.054 414.88 259.292 409.289C260.53 403.697 260.139 397.842 258.169 392.486C256.199 387.13 252.742 382.52 248.247 379.255C243.753 375.991 238.428 374.223 232.967 374.182L232.377 374.185C225.251 374.411 218.495 377.563 213.556 382.965C208.617 388.367 205.89 395.59 205.959 403.084C206.028 410.578 208.887 417.746 213.924 423.053C218.961 428.359 225.774 431.38 232.903 431.468C238.346 431.443 243.653 429.69 248.13 426.438L250.953 424.051L251.215 423.865L251.228 423.839Z" fill="#EAEAEA" fill-opacity="0.2"/>
<path d="M286.785 201.777L287.368 323.056C287.412 329.077 289.841 334.835 294.123 339.066C298.405 343.297 304.19 345.656 310.208 345.624L341.617 345.473C344.715 345.454 347.776 344.798 350.61 343.547C353.445 342.295 355.992 340.474 358.094 338.197L358.23 338.048C360.324 335.68 361.942 332.929 362.994 329.947L363.152 329.569C363.848 327.346 364.196 325.028 364.182 322.699L363.983 281.143C363.93 270.827 367.14 260.758 373.152 252.378C379.164 243.997 387.671 237.734 397.456 234.484C398.253 234.229 398.966 233.76 399.515 233.128C400.065 232.495 400.43 231.725 400.572 230.899C400.582 230.777 400.582 230.655 400.57 230.533L400.568 230.087C400.562 229.4 400.407 228.723 400.114 228.102C399.821 227.481 399.396 226.931 398.87 226.491L345.037 183.797C340.971 180.555 335.919 178.803 330.721 178.831L309.407 178.934C306.423 178.946 303.47 179.548 300.718 180.703C297.965 181.858 295.467 183.544 293.367 185.665C291.266 187.787 289.603 190.301 288.474 193.066C287.345 195.83 286.771 198.79 286.785 201.777ZM320.821 336.5L310.164 336.551C306.567 336.571 303.109 335.163 300.549 332.636C297.988 330.109 296.533 326.668 296.504 323.069L295.921 201.733C295.913 198.131 297.333 194.673 299.869 192.117C302.406 189.561 305.852 188.115 309.451 188.098L330.787 187.996C333.9 188.022 336.915 189.087 339.355 191.021L387.138 228.904C377.392 233.716 369.196 241.176 363.488 250.43C357.779 259.684 354.789 270.358 354.859 281.233C354.861 281.702 354.863 282.125 354.865 282.652C354.852 282.854 354.853 283.056 354.868 283.258L355.058 322.788C355.055 324.101 354.873 325.407 354.516 326.67C353.842 328.648 352.782 330.473 351.398 332.039C350.15 333.405 348.632 334.498 346.942 335.248C345.251 335.999 343.423 336.391 341.574 336.4L321.941 336.494C321.779 336.462 321.615 336.443 321.449 336.439C321.238 336.437 321.028 336.458 320.821 336.5Z" fill="#EAEAEA" fill-opacity="0.2"/>
<path d="M286.785 201.777L287.368 323.056C287.412 329.077 289.841 334.835 294.123 339.066C298.405 343.297 304.19 345.656 310.208 345.624L341.617 345.473C344.715 345.454 347.776 344.798 350.61 343.547C353.445 342.295 355.992 340.474 358.094 338.197L358.23 338.048C360.324 335.68 361.942 332.929 362.994 329.947L363.152 329.569C363.848 327.346 364.196 325.028 364.182 322.699L363.983 281.143C363.93 270.827 367.14 260.758 373.152 252.378C379.164 243.997 387.671 237.734 397.456 234.484C398.253 234.229 398.966 233.76 399.515 233.128C400.065 232.495 400.43 231.725 400.572 230.899C400.582 230.777 400.582 230.655 400.57 230.533L400.568 230.087C400.562 229.4 400.407 228.723 400.114 228.102C399.821 227.481 399.396 226.931 398.87 226.491L345.037 183.797C340.971 180.555 335.919 178.803 330.721 178.831L309.407 178.934C306.423 178.946 303.47 179.548 300.718 180.703C297.965 181.858 295.467 183.544 293.367 185.665C291.266 187.787 289.603 190.301 288.474 193.066C287.345 195.83 286.771 198.79 286.785 201.777ZM320.821 336.5L310.164 336.551C306.567 336.571 303.109 335.163 300.549 332.636C297.988 330.109 296.533 326.668 296.504 323.069L295.921 201.733C295.913 198.131 297.333 194.673 299.869 192.117C302.406 189.561 305.852 188.115 309.451 188.098L330.787 187.996C333.9 188.022 336.915 189.087 339.355 191.021L387.138 228.904C377.392 233.716 369.196 241.176 363.488 250.43C357.779 259.684 354.789 270.358 354.859 281.233C354.861 281.702 354.863 282.125 354.865 282.652C354.852 282.854 354.853 283.056 354.868 283.258L355.058 322.788C355.055 324.101 354.873 325.407 354.516 326.67C353.842 328.648 352.782 330.473 351.398 332.039C350.15 333.405 348.632 334.498 346.942 335.248C345.251 335.999 343.423 336.391 341.574 336.4L321.941 336.494C321.779 336.462 321.615 336.443 321.449 336.439C321.238 336.437 321.028 336.458 320.821 336.5Z" fill="#EAEAEA" fill-opacity="0.2"/>
<path d="M373.086 288.484C373.119 298.799 377.029 308.685 383.964 315.987C390.899 323.288 400.296 327.413 410.109 327.464L410.811 327.46C418.297 327.381 425.583 324.927 431.717 320.42C437.852 315.913 442.547 309.563 445.189 302.202C447.831 294.841 448.296 286.812 446.523 279.166C444.751 271.52 440.823 264.613 435.255 259.352C435.103 259.168 434.978 259.076 434.978 259.102L434.713 258.88L434.575 258.762L434.424 258.617L431.716 256.402C431.566 256.221 431.392 256.062 431.2 255.93C425.59 251.925 419.046 249.606 412.276 249.224C405.505 248.842 398.765 250.411 392.782 253.761C386.799 257.112 381.802 262.117 378.328 268.236C374.855 274.356 373.038 281.357 373.074 288.484L373.086 288.484ZM428.532 267.123C432.586 270.973 435.444 276.016 436.736 281.595C438.027 287.175 437.692 293.033 435.774 298.408C433.856 303.782 430.443 308.426 425.98 311.733C421.517 315.04 416.21 316.859 410.748 316.953L410.159 316.956C403.031 316.798 396.245 313.711 391.254 308.357C386.264 303.002 383.468 295.806 383.465 288.312C383.461 280.818 386.252 273.622 391.238 268.267C396.223 262.913 403.007 259.827 410.135 259.67C415.577 259.643 420.902 261.345 425.409 264.554L428.255 266.913L428.519 267.097L428.532 267.123Z" fill="#EAEAEA" fill-opacity="0.2"/>
<path d="M373.086 288.484C373.119 298.799 377.029 308.685 383.964 315.987C390.899 323.288 400.296 327.413 410.109 327.464L410.811 327.46C418.297 327.381 425.583 324.927 431.717 320.42C437.852 315.913 442.547 309.563 445.189 302.202C447.831 294.841 448.296 286.812 446.523 279.166C444.751 271.52 440.823 264.613 435.255 259.352C435.103 259.168 434.978 259.076 434.978 259.102L434.713 258.88L434.575 258.762L434.424 258.617L431.716 256.402C431.566 256.221 431.392 256.062 431.2 255.93C425.59 251.925 419.046 249.606 412.276 249.224C405.505 248.842 398.765 250.411 392.782 253.761C386.799 257.112 381.802 262.117 378.328 268.236C374.855 274.356 373.038 281.357 373.074 288.484L373.086 288.484ZM428.532 267.123C432.586 270.973 435.444 276.016 436.736 281.595C438.027 287.175 437.692 293.033 435.774 298.408C433.856 303.782 430.443 308.426 425.98 311.733C421.517 315.04 416.21 316.859 410.748 316.953L410.159 316.956C403.031 316.798 396.245 313.711 391.254 308.357C386.264 303.002 383.468 295.806 383.465 288.312C383.461 280.818 386.252 273.622 391.238 268.267C396.223 262.913 403.007 259.827 410.135 259.67C415.577 259.643 420.902 261.345 425.409 264.554L428.255 266.913L428.519 267.097L428.532 267.123Z" fill="#EAEAEA" fill-opacity="0.2"/>
<path d="M334.77 464.215L335.352 585.494C335.366 591.516 332.992 597.297 328.75 601.569C324.509 605.841 318.748 608.254 312.73 608.28L281.32 608.431C278.222 608.442 275.155 607.816 272.309 606.591C269.463 605.367 266.899 603.571 264.775 601.314L264.637 601.166C262.52 598.818 260.876 596.083 259.796 593.111L259.634 592.734C258.916 590.518 258.547 588.204 258.538 585.874L258.338 544.319C258.291 534.003 254.986 523.965 248.893 515.643C242.801 507.32 234.234 501.139 224.418 497.983C223.619 497.736 222.902 497.274 222.346 496.647C221.791 496.02 221.418 495.253 221.268 494.428C221.256 494.307 221.256 494.184 221.267 494.062L221.264 493.616C221.263 492.929 221.412 492.25 221.699 491.627C221.986 491.003 222.406 490.449 222.928 490.004L276.348 446.795C280.383 443.515 285.418 441.714 290.616 441.692L311.93 441.59C314.914 441.574 317.873 442.147 320.636 443.276C323.399 444.404 325.913 446.067 328.034 448.168C330.155 450.269 331.842 452.767 332.998 455.521C334.153 458.274 334.755 461.229 334.77 464.215ZM302.03 599.258L312.686 599.207C316.283 599.193 319.727 597.752 322.264 595.2C324.8 592.648 326.222 589.194 326.216 585.595L325.634 464.259C325.608 460.657 324.155 457.212 321.594 454.681C319.033 452.149 315.573 450.737 311.974 450.755L290.637 450.857C287.525 450.913 284.521 452.007 282.099 453.965L234.682 492.304C244.474 497.023 252.741 504.403 258.538 513.602C264.335 522.801 267.428 533.446 267.463 544.321C267.465 544.79 267.467 545.214 267.47 545.74C267.485 545.942 267.486 546.144 267.472 546.346L267.662 585.876C267.677 587.189 267.872 588.493 268.241 589.752C268.935 591.724 270.012 593.539 271.411 595.092C272.672 596.446 274.2 597.524 275.898 598.258C277.596 598.992 279.427 599.367 281.277 599.358L300.909 599.264C301.071 599.23 301.235 599.21 301.401 599.204C301.612 599.2 301.822 599.218 302.03 599.258Z" fill="#EAEAEA" fill-opacity="0.2"/>
<path d="M249.311 553.011C249.378 563.326 245.563 573.248 238.698 580.616C231.834 587.984 222.476 592.199 212.664 592.344L211.962 592.347C204.476 592.34 197.166 589.956 190.989 585.508C184.812 581.06 180.056 574.756 177.344 567.42C174.631 560.085 174.089 552.06 175.788 544.398C177.487 536.735 181.348 529.791 186.866 524.476C187.015 524.291 187.14 524.198 187.141 524.225L187.403 523.999L187.54 523.88L187.69 523.734L190.376 521.493C190.525 521.31 190.697 521.15 190.888 521.016C196.459 516.957 202.98 514.576 209.747 514.129C216.513 513.681 223.268 515.185 229.283 518.478C235.297 521.772 240.343 526.728 243.875 532.814C247.407 538.9 249.291 545.883 249.324 553.011L249.311 553.011ZM193.663 532.183C189.646 536.072 186.837 541.142 185.599 546.733C184.361 552.325 184.752 558.179 186.722 563.536C188.692 568.892 192.149 573.502 196.643 576.766C201.138 580.031 206.462 581.798 211.924 581.84L212.514 581.837C219.639 581.611 226.396 578.459 231.335 573.057C236.273 567.654 239.001 560.432 238.932 552.938C238.863 545.444 236.003 538.275 230.967 532.969C225.93 527.663 219.116 524.642 211.988 524.554C206.545 524.579 201.237 526.332 196.761 529.584L193.938 531.971L193.675 532.156L193.663 532.183Z" fill="#EAEAEA" fill-opacity="0.2"/>
<path d="M249.311 553.011C249.378 563.326 245.563 573.248 238.698 580.616C231.834 587.984 222.476 592.199 212.664 592.344L211.962 592.347C204.476 592.34 197.166 589.956 190.989 585.508C184.812 581.06 180.056 574.756 177.344 567.42C174.631 560.085 174.089 552.06 175.788 544.398C177.487 536.735 181.348 529.791 186.866 524.476C187.015 524.291 187.14 524.198 187.141 524.225L187.403 523.999L187.54 523.88L187.69 523.734L190.376 521.493C190.525 521.31 190.697 521.15 190.888 521.016C196.459 516.957 202.98 514.576 209.747 514.129C216.513 513.681 223.268 515.185 229.283 518.478C235.297 521.772 240.343 526.728 243.875 532.814C247.407 538.9 249.291 545.883 249.324 553.011L249.311 553.011ZM193.663 532.183C189.646 536.072 186.837 541.142 185.599 546.733C184.361 552.325 184.752 558.179 186.722 563.536C188.692 568.892 192.149 573.502 196.643 576.766C201.138 580.031 206.462 581.798 211.924 581.84L212.514 581.837C219.639 581.611 226.396 578.459 231.335 573.057C236.273 567.654 239.001 560.432 238.932 552.938C238.863 545.444 236.003 538.275 230.967 532.969C225.93 527.663 219.116 524.642 211.988 524.554C206.545 524.579 201.237 526.332 196.761 529.584L193.938 531.971L193.675 532.156L193.663 532.183Z" fill="#EAEAEA" fill-opacity="0.2"/>
<path d="M191.604 630.506L192.191 752.704C192.236 758.771 194.692 764.573 199.022 768.836C203.351 773.099 209.2 775.475 215.284 775.443L247.043 775.29C250.175 775.271 253.27 774.61 256.136 773.349C259.002 772.088 261.577 770.253 263.703 767.959L263.841 767.808C265.958 765.422 267.594 762.651 268.657 759.646L268.817 759.265C269.521 757.025 269.873 754.69 269.859 752.343L269.658 710.473C269.605 700.078 272.851 689.933 278.93 681.489C285.009 673.045 293.61 666.734 303.504 663.459C304.31 663.202 305.031 662.73 305.586 662.093C306.142 661.456 306.511 660.679 306.655 659.847C306.665 659.724 306.665 659.601 306.653 659.478L306.651 659.029C306.645 658.337 306.488 657.654 306.192 657.029C305.896 656.403 305.466 655.849 304.934 655.405L250.504 612.389C246.393 609.123 241.285 607.358 236.028 607.386L214.478 607.49C211.46 607.503 208.475 608.108 205.692 609.272C202.909 610.436 200.383 612.135 198.259 614.273C196.135 616.41 194.454 618.944 193.312 621.729C192.17 624.515 191.59 627.497 191.604 630.506ZM226.016 766.249L215.241 766.301C211.604 766.321 208.108 764.903 205.518 762.357C202.929 759.81 201.458 756.344 201.429 752.718L200.842 630.462C200.834 626.833 202.269 623.348 204.834 620.773C207.398 618.197 210.883 616.741 214.522 616.724L236.096 616.62C239.243 616.646 242.291 617.719 244.758 619.668L293.072 657.837C283.217 662.686 274.93 670.202 269.158 679.526C263.386 688.851 260.362 699.606 260.433 710.563C260.435 711.036 260.437 711.462 260.439 711.993C260.426 712.196 260.427 712.4 260.442 712.604L260.634 752.433C260.631 753.756 260.447 755.072 260.086 756.344C259.403 758.338 258.332 760.176 256.932 761.754C255.67 763.131 254.136 764.232 252.427 764.988C250.717 765.744 248.869 766.139 246.999 766.148L227.149 766.244C226.985 766.211 226.818 766.192 226.651 766.188C226.438 766.186 226.225 766.207 226.016 766.249Z" fill="#EAEAEA" fill-opacity="0.2"/>
<path d="M277.91 717.675C277.941 727.823 281.916 737.549 288.967 744.732C296.018 751.914 305.575 755.972 315.554 756.02L316.268 756.016C323.88 755.937 331.291 753.521 337.53 749.086C343.768 744.651 348.544 738.403 351.232 731.16C353.92 723.917 354.394 716.017 352.593 708.495C350.791 700.972 346.798 694.178 341.137 689.002C340.983 688.821 340.855 688.731 340.855 688.757L340.586 688.538L340.445 688.422L340.291 688.28L337.539 686.101C337.385 685.922 337.209 685.766 337.014 685.636C331.309 681.697 324.655 679.416 317.77 679.041C310.884 678.666 304.03 680.211 297.945 683.509C291.86 686.806 286.777 691.731 283.244 697.753C279.711 703.774 277.862 710.662 277.897 717.675L277.91 717.675ZM334.299 696.649C338.42 700.437 341.327 705.397 342.639 710.887C343.952 716.376 343.61 722.139 341.658 727.428C339.707 732.716 336.236 737.285 331.696 740.54C327.157 743.795 321.76 745.585 316.206 745.678L315.606 745.681C308.358 745.527 301.457 742.491 296.383 737.224C291.309 731.956 288.466 724.877 288.464 717.503C288.462 710.13 291.301 703.05 296.372 697.781C301.443 692.512 308.343 689.475 315.591 689.319C321.126 689.292 326.54 690.966 331.123 694.122L334.017 696.443L334.286 696.623L334.299 696.649Z" fill="#EAEAEA" fill-opacity="0.2"/>
<path d="M192.986 162.518L72.4352 163.535C66.4497 163.57 60.6948 161.217 56.4333 156.992C52.1718 152.767 49.7519 147.015 49.7047 140.998L49.4423 109.596C49.4205 106.498 50.032 103.429 51.2388 100.579C52.4456 97.7295 54.222 95.1592 56.4578 93.0278L56.6045 92.8894C58.9308 90.7644 61.6435 89.1112 64.5936 88.0204L64.9675 87.8572C67.1678 87.1319 69.4667 86.7539 71.7822 86.7365L113.088 86.3883C123.342 86.3048 133.308 82.9636 141.559 76.8426C149.809 70.7216 155.923 62.1344 159.025 52.3095C159.268 51.5088 159.725 50.7906 160.346 50.233C160.967 49.6754 161.728 49.2999 162.547 49.1473C162.668 49.135 162.79 49.1339 162.911 49.1442L163.355 49.1405C164.037 49.137 164.712 49.2828 165.333 49.5678C165.954 49.8527 166.506 50.27 166.951 50.7907L210.092 104.045C213.367 108.068 215.175 113.095 215.215 118.293L215.393 139.602C215.42 142.585 214.861 145.545 213.749 148.312C212.637 151.079 210.994 153.598 208.913 155.726C206.832 157.855 204.355 159.55 201.622 160.715C198.889 161.881 195.954 162.493 192.986 162.518ZM58.6342 130.268L58.7232 140.922C58.7502 144.518 60.195 147.957 62.7405 150.484C65.286 153.01 68.7246 154.419 72.3021 154.401L192.909 153.384C196.49 153.345 199.908 151.88 202.416 149.311C204.923 146.741 206.314 143.277 206.284 139.678L206.106 118.347C206.039 115.235 204.941 112.235 202.986 109.822L164.706 62.5508C160.051 72.3576 152.745 80.6495 143.622 86.4783C134.499 92.3071 123.928 95.4374 113.119 95.5112C112.652 95.5151 112.232 95.5187 111.708 95.5231C111.508 95.5392 111.306 95.5409 111.106 95.5282L71.813 95.8594C70.5085 95.8793 69.2129 96.0787 67.9623 96.4521C66.0047 97.1528 64.2047 98.2366 62.6662 99.6407C61.3249 100.906 60.2589 102.438 59.5351 104.138C58.8114 105.838 58.4456 107.67 58.4609 109.519L58.6248 129.148C58.6594 129.309 58.6798 129.474 58.6858 129.639C58.6906 129.85 58.6732 130.061 58.6342 130.268Z" fill="#EAEAEA" fill-opacity="0.2"/>
<path d="M105.406 77.5179C95.2713 77.6206 85.5073 73.7758 78.2421 66.8213C70.9769 59.8669 66.7996 50.3667 66.6206 40.391L66.6146 39.677C66.5938 32.066 68.9083 24.6255 73.2552 18.3298C77.6021 12.0342 83.7787 7.17689 90.976 4.3941C98.1734 1.61131 106.056 1.03275 113.591 2.7342C121.127 4.43565 127.964 8.33778 133.207 13.9296C133.39 14.081 133.481 14.2078 133.455 14.208L133.678 14.4739L133.796 14.6132L133.94 14.765L136.152 17.4882C136.332 17.6391 136.49 17.8137 136.622 18.007C140.631 23.6581 142.996 30.2801 143.461 37.1585C143.926 44.0368 142.473 50.9102 139.261 57.0367C136.048 63.1631 131.196 68.31 125.23 71.9218C119.264 75.5335 112.409 77.4729 105.406 77.5306L105.406 77.5179ZM125.661 20.8667C121.824 16.7962 116.832 13.9565 111.334 12.7169C105.835 11.4773 100.084 11.8951 94.8285 13.916C89.5732 15.937 85.0565 19.4676 81.866 24.0486C78.6755 28.6297 76.9587 34.0493 76.9389 39.6027L76.9439 40.202C77.1926 47.4464 80.3152 54.3055 85.6419 59.3084C90.9687 64.3114 98.0755 67.0598 105.439 66.9643C112.801 66.8689 119.834 63.9372 125.029 58.7979C130.224 53.6585 133.166 46.7209 133.226 39.4725C133.181 33.9388 131.438 28.5482 128.226 24.0077L125.87 21.1455L125.687 20.8792L125.661 20.8667Z" fill="#EAEAEA" fill-opacity="0.2"/>
<path d="M105.406 77.5179C95.2713 77.6206 85.5073 73.7758 78.2421 66.8213C70.9769 59.8669 66.7996 50.3667 66.6206 40.391L66.6146 39.677C66.5938 32.066 68.9083 24.6255 73.2552 18.3298C77.6021 12.0342 83.7787 7.17689 90.976 4.3941C98.1734 1.61131 106.056 1.03275 113.591 2.7342C121.127 4.43565 127.964 8.33778 133.207 13.9296C133.39 14.081 133.481 14.2078 133.455 14.208L133.678 14.4739L133.796 14.6132L133.94 14.765L136.152 17.4882C136.332 17.6391 136.49 17.8137 136.622 18.007C140.631 23.6581 142.996 30.2801 143.461 37.1585C143.926 44.0368 142.473 50.9102 139.261 57.0367C136.048 63.1631 131.196 68.31 125.23 71.9218C119.264 75.5335 112.409 77.4729 105.406 77.5306L105.406 77.5179ZM125.661 20.8667C121.824 16.7962 116.832 13.9565 111.334 12.7169C105.835 11.4773 100.084 11.8951 94.8285 13.916C89.5732 15.937 85.0565 19.4676 81.866 24.0486C78.6755 28.6297 76.9587 34.0493 76.9389 39.6027L76.9439 40.202C77.1926 47.4464 80.3152 54.3055 85.6419 59.3084C90.9687 64.3114 98.0755 67.0598 105.439 66.9643C112.801 66.8689 119.834 63.9372 125.029 58.7979C130.224 53.6585 133.166 46.7209 133.226 39.4725C133.181 33.9388 131.438 28.5482 128.226 24.0077L125.87 21.1455L125.687 20.8792L125.661 20.8667Z" fill="#EAEAEA" fill-opacity="0.2"/>
<path d="M146.552 637.21L26.0016 638.226C20.0161 638.261 14.2612 635.908 9.99971 631.683C5.73822 627.458 3.31831 621.706 3.27107 615.69L3.00872 584.287C2.98691 581.19 3.59839 578.121 4.80519 575.271C6.01199 572.421 7.78839 569.851 10.0242 567.719L10.1709 567.581C12.4972 565.456 15.2099 563.803 18.16 562.712L18.5339 562.549C20.7342 561.823 23.0331 561.445 25.3486 561.428L66.6543 561.08C76.9087 560.996 86.8741 557.655 95.125 551.534C103.376 545.413 109.49 536.826 112.591 527.001C112.834 526.2 113.291 525.482 113.912 524.924C114.533 524.367 115.295 523.991 116.114 523.839C116.235 523.826 116.356 523.825 116.477 523.836L116.921 523.832C117.604 523.828 118.279 523.974 118.9 524.259C119.521 524.544 120.073 524.961 120.517 525.482L163.658 578.737C166.934 582.759 168.742 587.787 168.782 592.984L168.96 614.293C168.986 617.277 168.428 620.237 167.316 623.004C166.204 625.77 164.56 628.29 162.479 630.418C160.399 632.546 157.921 634.241 155.188 635.407C152.455 636.572 149.521 637.185 146.552 637.21ZM12.2006 604.959L12.2896 615.614C12.3166 619.21 13.7614 622.648 16.3069 625.175C18.8524 627.702 22.291 629.111 25.8685 629.093L146.476 628.076C150.056 628.037 153.475 626.572 155.982 624.002C158.489 621.433 159.88 617.969 159.85 614.37L159.672 593.038C159.605 589.927 158.508 586.927 156.553 584.513L118.273 537.242C113.618 547.049 106.311 555.341 97.1882 561.17C88.0653 566.998 77.4946 570.129 66.685 570.203C66.2187 570.207 65.7979 570.21 65.2748 570.215C65.0742 570.231 64.8728 570.232 64.672 570.22L25.3794 570.551C24.0749 570.571 22.7793 570.77 21.5287 571.143C19.5711 571.844 17.7711 572.928 16.2326 574.332C14.8913 575.598 13.8253 577.129 13.1015 578.829C12.3778 580.529 12.012 582.362 12.0273 584.211L12.1912 603.839C12.2258 604.001 12.2462 604.165 12.2522 604.33C12.257 604.541 12.2396 604.752 12.2006 604.959Z" fill="#EAEAEA" fill-opacity="0.2"/>
<path d="M58.9688 552.211C48.8338 552.313 39.0698 548.469 31.8046 541.514C24.5394 534.56 20.3621 525.06 20.1831 515.084L20.1771 514.37C20.1563 506.759 22.4708 499.318 26.8177 493.023C31.1646 486.727 37.3412 481.87 44.5385 479.087C51.7359 476.304 59.6184 475.726 67.1538 477.427C74.6893 479.129 81.5263 483.031 86.7695 488.622C86.9522 488.774 87.0439 488.901 87.018 488.901L87.2405 489.167L87.3582 489.306L87.502 489.458L89.7141 492.181C89.8943 492.332 90.0527 492.507 90.1848 492.7C94.1938 498.351 96.5584 504.973 97.0233 511.851C97.4883 518.73 96.0359 525.603 92.823 531.73C89.6101 537.856 84.7587 543.003 78.7924 546.615C72.8262 550.226 65.9717 552.166 58.9689 552.224L58.9688 552.211ZM79.2231 495.56C75.3868 491.489 70.3948 488.649 64.8961 487.41C59.3974 486.17 53.6464 486.588 48.391 488.609C43.1357 490.63 38.619 494.16 35.4285 498.741C32.238 503.323 30.5212 508.742 30.5014 514.296L30.5064 514.895C30.7551 522.139 33.8777 528.998 39.2044 534.001C44.5312 539.004 51.638 541.753 59.001 541.657C66.364 541.562 73.3968 538.63 78.5914 533.491C83.786 528.351 86.7288 521.414 86.7886 514.165C86.7434 508.632 85.0005 503.241 81.7885 498.701L79.4327 495.838L79.2491 495.572L79.2231 495.56Z" fill="#EAEAEA" fill-opacity="0.2"/>
</g>
<g opacity="0.5">
<path d="M153.922 1068.55L153.297 1198.85C153.282 1205.32 155.833 1211.53 160.389 1216.12C164.946 1220.71 171.136 1223.3 177.601 1223.33L211.346 1223.49C214.675 1223.5 217.97 1222.83 221.028 1221.51C224.086 1220.2 226.841 1218.27 229.122 1215.84L229.27 1215.69C231.545 1213.16 233.311 1210.22 234.472 1207.03L234.645 1206.63C235.416 1204.25 235.814 1201.76 235.823 1199.26L236.038 1154.61C236.088 1143.53 239.639 1132.74 246.185 1123.8C252.73 1114.86 261.934 1108.22 272.48 1104.83C273.339 1104.56 274.109 1104.07 274.706 1103.39C275.303 1102.72 275.703 1101.9 275.864 1101.01C275.877 1100.88 275.877 1100.75 275.866 1100.62L275.868 1100.14C275.869 1099.4 275.71 1098.67 275.401 1098C275.093 1097.33 274.642 1096.74 274.081 1096.26L216.689 1049.84C212.354 1046.31 206.944 1044.38 201.359 1044.35L178.461 1044.24C175.254 1044.23 172.076 1044.84 169.107 1046.05C166.138 1047.27 163.438 1049.05 161.159 1051.31C158.88 1053.57 157.068 1056.25 155.826 1059.21C154.585 1062.17 153.938 1065.34 153.922 1068.55ZM189.097 1213.64L177.648 1213.58C173.784 1213.57 170.083 1212.02 167.358 1209.28C164.633 1206.54 163.106 1202.82 163.112 1198.96L163.737 1068.6C163.766 1064.73 165.327 1061.03 168.078 1058.31C170.829 1055.59 174.546 1054.07 178.414 1054.09L201.336 1054.2C204.68 1054.26 207.908 1055.43 210.509 1057.54L261.453 1098.73C250.933 1103.8 242.051 1111.73 235.823 1121.61C229.595 1131.49 226.272 1142.93 226.234 1154.61C226.232 1155.12 226.23 1155.57 226.227 1156.14C226.211 1156.36 226.21 1156.57 226.224 1156.79L226.02 1199.26C226.004 1200.67 225.795 1202.07 225.398 1203.42C224.653 1205.54 223.495 1207.49 221.992 1209.16C220.637 1210.61 218.996 1211.77 217.172 1212.56C215.348 1213.35 213.38 1213.75 211.393 1213.74L190.301 1213.64C190.127 1213.61 189.95 1213.58 189.773 1213.58C189.546 1213.57 189.32 1213.59 189.097 1213.64Z" fill="#EAEAEA" fill-opacity="0.2"/>
<path d="M153.922 1068.55L153.297 1198.85C153.282 1205.32 155.833 1211.53 160.389 1216.12C164.946 1220.71 171.136 1223.3 177.601 1223.33L211.346 1223.49C214.675 1223.5 217.97 1222.83 221.028 1221.51C224.086 1220.2 226.841 1218.27 229.122 1215.84L229.27 1215.69C231.545 1213.16 233.311 1210.22 234.472 1207.03L234.645 1206.63C235.416 1204.25 235.814 1201.76 235.823 1199.26L236.038 1154.61C236.088 1143.53 239.639 1132.74 246.185 1123.8C252.73 1114.86 261.934 1108.22 272.48 1104.83C273.339 1104.56 274.109 1104.07 274.706 1103.39C275.303 1102.72 275.703 1101.9 275.864 1101.01C275.877 1100.88 275.877 1100.75 275.866 1100.62L275.868 1100.14C275.869 1099.4 275.71 1098.67 275.401 1098C275.093 1097.33 274.642 1096.74 274.081 1096.26L216.689 1049.84C212.354 1046.31 206.944 1044.38 201.359 1044.35L178.461 1044.24C175.254 1044.23 172.076 1044.84 169.107 1046.05C166.138 1047.27 163.438 1049.05 161.159 1051.31C158.88 1053.57 157.068 1056.25 155.826 1059.21C154.585 1062.17 153.938 1065.34 153.922 1068.55ZM189.097 1213.64L177.648 1213.58C173.784 1213.57 170.083 1212.02 167.358 1209.28C164.633 1206.54 163.106 1202.82 163.112 1198.96L163.737 1068.6C163.766 1064.73 165.327 1061.03 168.078 1058.31C170.829 1055.59 174.546 1054.07 178.414 1054.09L201.336 1054.2C204.68 1054.26 207.908 1055.43 210.509 1057.54L261.453 1098.73C250.933 1103.8 242.051 1111.73 235.823 1121.61C229.595 1131.49 226.272 1142.93 226.234 1154.61C226.232 1155.12 226.23 1155.57 226.227 1156.14C226.211 1156.36 226.21 1156.57 226.224 1156.79L226.02 1199.26C226.004 1200.67 225.795 1202.07 225.398 1203.42C224.653 1205.54 223.495 1207.49 221.992 1209.16C220.637 1210.61 218.996 1211.77 217.172 1212.56C215.348 1213.35 213.38 1213.75 211.393 1213.74L190.301 1213.64C190.127 1213.61 189.95 1213.58 189.773 1213.58C189.546 1213.57 189.32 1213.59 189.097 1213.64Z" fill="#EAEAEA" fill-opacity="0.2"/>
<path d="M232.166 1163.21C232.095 1174.11 236.264 1184.6 243.765 1192.39C251.267 1200.18 261.492 1204.63 272.212 1204.79L272.979 1204.79C281.157 1204.79 289.144 1202.27 295.892 1197.57C302.64 1192.87 307.835 1186.2 310.798 1178.45C313.76 1170.7 314.351 1162.21 312.493 1154.11C310.636 1146.01 306.416 1138.67 300.387 1133.06C300.223 1132.86 300.087 1132.76 300.087 1132.79L299.8 1132.55L299.65 1132.42L299.486 1132.27L296.551 1129.9C296.388 1129.71 296.2 1129.54 295.992 1129.4C289.904 1125.11 282.779 1122.59 275.386 1122.11C267.993 1121.64 260.613 1123.23 254.042 1126.71C247.471 1130.19 241.96 1135.43 238.102 1141.86C234.244 1148.29 232.187 1155.67 232.152 1163.21L232.166 1163.21ZM292.962 1141.2C297.351 1145.31 300.422 1150.67 301.775 1156.58C303.128 1162.49 302.702 1168.68 300.551 1174.34C298.4 1180 294.623 1184.88 289.713 1188.33C284.803 1191.78 278.986 1193.64 273.019 1193.69L272.375 1193.68C264.589 1193.44 257.206 1190.11 251.81 1184.4C246.413 1178.69 243.432 1171.05 243.506 1163.13C243.58 1155.21 246.703 1147.63 252.205 1142.02C257.707 1136.42 265.151 1133.22 272.939 1133.13C278.886 1133.16 284.685 1135.01 289.577 1138.45L292.661 1140.98L292.948 1141.17L292.962 1141.2Z" fill="#4EBA66" fill-opacity="0.3"/>
<path d="M275.859 1377.11L276.485 1246.81C276.532 1240.34 279.085 1234.16 283.583 1229.61C288.082 1225.06 294.159 1222.53 300.48 1222.56L333.476 1222.72C336.73 1222.74 339.945 1223.45 342.923 1224.79C345.9 1226.13 348.575 1228.09 350.783 1230.54L350.926 1230.7C353.126 1233.24 354.825 1236.2 355.93 1239.4L356.096 1239.81C356.827 1242.19 357.192 1244.68 357.177 1247.19L356.963 1291.83C356.907 1302.92 360.277 1313.73 366.592 1322.74C372.907 1331.74 381.842 1338.47 392.121 1341.96C392.959 1342.23 393.707 1342.74 394.284 1343.41C394.861 1344.09 395.245 1344.92 395.394 1345.81C395.405 1345.94 395.404 1346.07 395.392 1346.2L395.389 1346.68C395.383 1347.42 395.221 1348.15 394.913 1348.81C394.605 1349.48 394.158 1350.07 393.605 1350.54L337.05 1396.42C332.778 1399.9 327.471 1401.79 322.01 1401.76L299.62 1401.65C296.485 1401.64 293.383 1400.99 290.492 1399.75C287.601 1398.51 284.977 1396.7 282.771 1394.42C280.564 1392.14 278.818 1389.44 277.632 1386.47C276.446 1383.5 275.844 1380.32 275.859 1377.11ZM311.628 1232.36L300.433 1232.31C296.655 1232.29 293.023 1233.8 290.332 1236.52C287.642 1239.23 286.113 1242.93 286.082 1246.8L285.456 1377.16C285.447 1381.03 286.938 1384.74 289.602 1387.49C292.267 1390.23 295.886 1391.78 299.668 1391.8L322.081 1391.91C325.351 1391.88 328.518 1390.74 331.081 1388.66L381.282 1347.95C371.044 1342.78 362.435 1334.77 356.44 1324.83C350.444 1314.89 347.304 1303.42 347.378 1291.74C347.381 1291.23 347.383 1290.78 347.386 1290.21C347.371 1290 347.372 1289.78 347.389 1289.56L347.593 1247.09C347.59 1245.68 347.399 1244.28 347.024 1242.92C346.315 1240.8 345.202 1238.84 343.748 1237.15C342.437 1235.69 340.844 1234.51 339.068 1233.71C337.292 1232.9 335.372 1232.48 333.429 1232.47L312.805 1232.37C312.635 1232.41 312.462 1232.42 312.288 1232.43C312.067 1232.43 311.845 1232.41 311.628 1232.36Z" fill="#EAEAEA" fill-opacity="0.2"/>
<path d="M414.757 1282.82C414.792 1271.74 419.133 1261.12 426.835 1253.27C434.537 1245.43 444.975 1241 455.875 1240.95L456.655 1240.95C464.969 1241.04 473.064 1243.67 479.878 1248.52C486.693 1253.36 491.909 1260.18 494.845 1268.09C497.781 1276 498.299 1284.63 496.331 1292.84C494.364 1301.06 490.002 1308.48 483.818 1314.13C483.65 1314.33 483.51 1314.42 483.51 1314.4L483.217 1314.63L483.063 1314.76L482.895 1314.92L479.888 1317.3C479.721 1317.49 479.528 1317.66 479.314 1317.8C473.083 1322.11 465.815 1324.6 458.295 1325C450.774 1325.41 443.287 1323.73 436.641 1320.13C429.995 1316.53 424.443 1311.15 420.584 1304.57C416.725 1298 414.705 1290.48 414.743 1282.82L414.757 1282.82ZM476.349 1305.78C480.851 1301.64 484.025 1296.22 485.459 1290.23C486.893 1284.24 486.519 1277.94 484.388 1272.17C482.256 1266.39 478.465 1261.4 473.506 1257.85C468.548 1254.3 462.653 1252.34 456.587 1252.24L455.932 1252.24C448.015 1252.4 440.477 1255.72 434.935 1261.47C429.393 1267.22 426.288 1274.95 426.285 1283.01C426.283 1291.06 429.384 1298.79 434.923 1304.54C440.462 1310.29 447.998 1313.61 455.915 1313.78C461.961 1313.81 467.874 1311.98 472.881 1308.54L476.042 1306L476.335 1305.81L476.349 1305.78Z" fill="#EAEAEA" fill-opacity="0.2"/>
<path d="M414.757 1282.82C414.792 1271.74 419.133 1261.12 426.835 1253.27C434.537 1245.43 444.975 1241 455.875 1240.95L456.655 1240.95C464.969 1241.04 473.064 1243.67 479.878 1248.52C486.693 1253.36 491.909 1260.18 494.845 1268.09C497.781 1276 498.299 1284.63 496.331 1292.84C494.364 1301.06 490.002 1308.48 483.818 1314.13C483.65 1314.33 483.51 1314.42 483.51 1314.4L483.217 1314.63L483.063 1314.76L482.895 1314.92L479.888 1317.3C479.721 1317.49 479.528 1317.66 479.314 1317.8C473.083 1322.11 465.815 1324.6 458.295 1325C450.774 1325.41 443.287 1323.73 436.641 1320.13C429.995 1316.53 424.443 1311.15 420.584 1304.57C416.725 1298 414.705 1290.48 414.743 1282.82L414.757 1282.82ZM476.349 1305.78C480.851 1301.64 484.025 1296.22 485.459 1290.23C486.893 1284.24 486.519 1277.94 484.388 1272.17C482.256 1266.39 478.465 1261.4 473.506 1257.85C468.548 1254.3 462.653 1252.34 456.587 1252.24L455.932 1252.24C448.015 1252.4 440.477 1255.72 434.935 1261.47C429.393 1267.22 426.288 1274.95 426.285 1283.01C426.283 1291.06 429.384 1298.79 434.923 1304.54C440.462 1310.29 447.998 1313.61 455.915 1313.78C461.961 1313.81 467.874 1311.98 472.881 1308.54L476.042 1306L476.335 1305.81L476.349 1305.78Z" fill="#EAEAEA" fill-opacity="0.2"/>
<path d="M257.493 1246.78L256.867 1377.08C256.82 1383.55 254.209 1389.73 249.609 1394.28C245.009 1398.83 238.794 1401.36 232.329 1401.33L198.583 1401.16C195.255 1401.14 191.966 1400.44 188.921 1399.09C185.876 1397.75 183.14 1395.79 180.882 1393.35L180.735 1393.19C178.485 1390.64 176.747 1387.69 175.617 1384.48L175.447 1384.08C174.699 1381.69 174.326 1379.2 174.34 1376.7L174.555 1332.05C174.611 1320.97 171.163 1310.15 164.704 1301.15C158.244 1292.14 149.105 1285.41 138.592 1281.92C137.735 1281.65 136.97 1281.14 136.38 1280.46C135.79 1279.78 135.397 1278.96 135.245 1278.07C135.233 1277.94 135.234 1277.81 135.247 1277.68L135.249 1277.2C135.255 1276.46 135.421 1275.73 135.736 1275.06C136.051 1274.4 136.507 1273.81 137.073 1273.33L194.909 1227.46C199.277 1223.98 204.705 1222.1 210.29 1222.13L233.188 1222.24C236.395 1222.25 239.567 1222.9 242.524 1224.14C245.481 1225.38 248.165 1227.19 250.422 1229.47C252.679 1231.75 254.465 1234.45 255.678 1237.42C256.891 1240.39 257.508 1243.57 257.493 1246.78ZM220.926 1391.52L232.375 1391.58C236.24 1391.6 239.955 1390.09 242.706 1387.37C245.457 1384.66 247.02 1380.96 247.051 1377.09L247.677 1246.73C247.686 1242.86 246.161 1239.15 243.436 1236.4C240.711 1233.66 237.009 1232.1 233.141 1232.09L210.218 1231.98C206.874 1232 203.635 1233.15 201.014 1235.23L149.677 1275.93C160.148 1281.1 168.953 1289.11 175.086 1299.05C181.219 1308.99 184.432 1320.46 184.357 1332.15C184.355 1332.65 184.353 1333.11 184.35 1333.67C184.364 1333.89 184.363 1334.11 184.347 1334.32L184.143 1376.79C184.146 1378.2 184.342 1379.6 184.725 1380.96C185.45 1383.09 186.589 1385.05 188.075 1386.73C189.416 1388.2 191.046 1389.37 192.863 1390.18C194.679 1390.98 196.643 1391.41 198.63 1391.42L219.722 1391.52C219.897 1391.48 220.073 1391.46 220.251 1391.46C220.478 1391.46 220.704 1391.48 220.926 1391.52Z" fill="#EAEAEA" fill-opacity="0.2"/>
<path d="M257.493 1246.78L256.867 1377.08C256.82 1383.55 254.209 1389.73 249.609 1394.28C245.009 1398.83 238.794 1401.36 232.329 1401.33L198.583 1401.16C195.255 1401.14 191.966 1400.44 188.921 1399.09C185.876 1397.75 183.14 1395.79 180.882 1393.35L180.735 1393.19C178.485 1390.64 176.747 1387.69 175.617 1384.48L175.447 1384.08C174.699 1381.69 174.326 1379.2 174.34 1376.7L174.555 1332.05C174.611 1320.97 171.163 1310.15 164.704 1301.15C158.244 1292.14 149.105 1285.41 138.592 1281.92C137.735 1281.65 136.97 1281.14 136.38 1280.46C135.79 1279.78 135.397 1278.96 135.245 1278.07C135.233 1277.94 135.234 1277.81 135.247 1277.68L135.249 1277.2C135.255 1276.46 135.421 1275.73 135.736 1275.06C136.051 1274.4 136.507 1273.81 137.073 1273.33L194.909 1227.46C199.277 1223.98 204.705 1222.1 210.29 1222.13L233.188 1222.24C236.395 1222.25 239.567 1222.9 242.524 1224.14C245.481 1225.38 248.165 1227.19 250.422 1229.47C252.679 1231.75 254.465 1234.45 255.678 1237.42C256.891 1240.39 257.508 1243.57 257.493 1246.78ZM220.926 1391.52L232.375 1391.58C236.24 1391.6 239.955 1390.09 242.706 1387.37C245.457 1384.66 247.02 1380.96 247.051 1377.09L247.677 1246.73C247.686 1242.86 246.161 1239.15 243.436 1236.4C240.711 1233.66 237.009 1232.1 233.141 1232.09L210.218 1231.98C206.874 1232 203.635 1233.15 201.014 1235.23L149.677 1275.93C160.148 1281.1 168.953 1289.11 175.086 1299.05C181.219 1308.99 184.432 1320.46 184.357 1332.15C184.355 1332.65 184.353 1333.11 184.35 1333.67C184.364 1333.89 184.363 1334.11 184.347 1334.32L184.143 1376.79C184.146 1378.2 184.342 1379.6 184.725 1380.96C185.45 1383.09 186.589 1385.05 188.075 1386.73C189.416 1388.2 191.046 1389.37 192.863 1390.18C194.679 1390.98 196.643 1391.41 198.63 1391.42L219.722 1391.52C219.897 1391.48 220.073 1391.46 220.251 1391.46C220.478 1391.46 220.704 1391.48 220.926 1391.52Z" fill="#EAEAEA" fill-opacity="0.2"/>
<path d="M164.771 1339.94C164.736 1351.02 160.535 1361.64 153.084 1369.48C145.634 1377.33 135.537 1381.76 124.995 1381.81L124.24 1381.81C116.198 1381.73 108.37 1379.09 101.779 1374.25C95.1891 1369.41 90.1446 1362.58 87.3063 1354.67C84.468 1346.77 83.9683 1338.14 85.8726 1329.92C87.777 1321.71 91.9966 1314.29 97.9789 1308.64C98.1416 1308.44 98.2768 1308.34 98.2767 1308.37L98.5608 1308.13L98.7096 1308L98.8721 1307.85L101.781 1305.47C101.943 1305.27 102.129 1305.1 102.335 1304.96C108.363 1300.66 115.393 1298.17 122.667 1297.76C129.941 1297.35 137.183 1299.03 143.61 1302.63C150.038 1306.23 155.407 1311.61 159.138 1318.18C162.87 1324.76 164.822 1332.28 164.784 1339.94L164.771 1339.94ZM105.202 1316.99C100.847 1321.12 97.7756 1326.54 96.388 1332.54C95.0004 1338.53 95.3605 1344.82 97.4213 1350.6C99.4822 1356.37 103.149 1361.36 107.944 1364.91C112.739 1368.47 118.44 1370.42 124.308 1370.52L124.941 1370.53C132.599 1370.36 139.89 1367.04 145.251 1361.29C150.613 1355.53 153.617 1347.8 153.62 1339.75C153.624 1331.7 150.626 1323.97 145.269 1318.22C139.913 1312.46 132.624 1309.15 124.967 1308.98C119.12 1308.95 113.399 1310.78 108.557 1314.23L105.499 1316.76L105.215 1316.96L105.202 1316.99Z" fill="#EAEAEA" fill-opacity="0.2"/>
<path d="M164.771 1339.94C164.736 1351.02 160.535 1361.64 153.084 1369.48C145.634 1377.33 135.537 1381.76 124.995 1381.81L124.24 1381.81C116.198 1381.73 108.37 1379.09 101.779 1374.25C95.1891 1369.41 90.1446 1362.58 87.3063 1354.67C84.468 1346.77 83.9683 1338.14 85.8726 1329.92C87.777 1321.71 91.9966 1314.29 97.9789 1308.64C98.1416 1308.44 98.2768 1308.34 98.2767 1308.37L98.5608 1308.13L98.7096 1308L98.8721 1307.85L101.781 1305.47C101.943 1305.27 102.129 1305.1 102.335 1304.96C108.363 1300.66 115.393 1298.17 122.667 1297.76C129.941 1297.35 137.183 1299.03 143.61 1302.63C150.038 1306.23 155.407 1311.61 159.138 1318.18C162.87 1324.76 164.822 1332.28 164.784 1339.94L164.771 1339.94ZM105.202 1316.99C100.847 1321.12 97.7756 1326.54 96.388 1332.54C95.0004 1338.53 95.3605 1344.82 97.4213 1350.6C99.4822 1356.37 103.149 1361.36 107.944 1364.91C112.739 1368.47 118.44 1370.42 124.308 1370.52L124.941 1370.53C132.599 1370.36 139.89 1367.04 145.251 1361.29C150.613 1355.53 153.617 1347.8 153.62 1339.75C153.624 1331.7 150.626 1323.97 145.269 1318.22C139.913 1312.46 132.624 1309.15 124.967 1308.98C119.12 1308.95 113.399 1310.78 108.557 1314.23L105.499 1316.76L105.215 1316.96L105.202 1316.99Z" fill="#EAEAEA" fill-opacity="0.2"/>
<path d="M358.264 1204.6L487.779 1205.7C494.21 1205.73 500.393 1203.21 504.971 1198.67C509.549 1194.13 512.149 1187.95 512.2 1181.48L512.482 1147.75C512.505 1144.42 511.848 1141.12 510.552 1138.06C509.255 1135 507.347 1132.24 504.945 1129.95L504.787 1129.8C502.288 1127.51 499.373 1125.74 496.204 1124.57L495.802 1124.39C493.438 1123.61 490.968 1123.21 488.481 1123.19L444.104 1122.81C433.087 1122.72 422.38 1119.13 413.516 1112.56C404.651 1105.98 398.083 1096.75 394.75 1086.2C394.489 1085.34 393.998 1084.57 393.331 1083.97C392.664 1083.37 391.846 1082.97 390.966 1082.8C390.836 1082.79 390.705 1082.79 390.575 1082.8L390.099 1082.79C389.365 1082.79 388.64 1082.95 387.973 1083.25C387.306 1083.56 386.713 1084.01 386.235 1084.57L339.886 1141.78C336.367 1146.1 334.425 1151.51 334.381 1157.09L334.19 1179.98C334.162 1183.19 334.762 1186.37 335.957 1189.34C337.151 1192.31 338.917 1195.02 341.152 1197.31C343.388 1199.59 346.05 1201.41 348.986 1202.67C351.922 1203.92 355.075 1204.58 358.264 1204.6ZM502.607 1169.96L502.511 1181.4C502.482 1185.27 500.93 1188.96 498.195 1191.67C495.46 1194.39 491.766 1195.9 487.922 1195.88L358.346 1194.79C354.5 1194.75 350.827 1193.17 348.133 1190.41C345.439 1187.65 343.945 1183.93 343.977 1180.07L344.169 1157.15C344.24 1153.8 345.42 1150.58 347.52 1147.99L388.647 1097.2C393.648 1107.74 401.498 1116.65 411.299 1122.91C421.1 1129.17 432.457 1132.53 444.071 1132.61C444.571 1132.62 445.024 1132.62 445.586 1132.63C445.801 1132.64 446.017 1132.65 446.233 1132.63L488.448 1132.99C489.849 1133.01 491.241 1133.22 492.585 1133.62C494.688 1134.38 496.622 1135.54 498.275 1137.05C499.716 1138.41 500.861 1140.06 501.639 1141.88C502.416 1143.71 502.809 1145.68 502.793 1147.66L502.617 1168.75C502.579 1168.93 502.557 1169.1 502.551 1169.28C502.546 1169.51 502.565 1169.73 502.607 1169.96Z" fill="#EAEAEA" fill-opacity="0.2"/>
<path d="M358.264 1204.6L487.779 1205.7C494.21 1205.73 500.393 1203.21 504.971 1198.67C509.549 1194.13 512.149 1187.95 512.2 1181.48L512.482 1147.75C512.505 1144.42 511.848 1141.12 510.552 1138.06C509.255 1135 507.347 1132.24 504.945 1129.95L504.787 1129.8C502.288 1127.51 499.373 1125.74 496.204 1124.57L495.802 1124.39C493.438 1123.61 490.968 1123.21 488.481 1123.19L444.104 1122.81C433.087 1122.72 422.38 1119.13 413.516 1112.56C404.651 1105.98 398.083 1096.75 394.75 1086.2C394.489 1085.34 393.998 1084.57 393.331 1083.97C392.664 1083.37 391.846 1082.97 390.966 1082.8C390.836 1082.79 390.705 1082.79 390.575 1082.8L390.099 1082.79C389.365 1082.79 388.64 1082.95 387.973 1083.25C387.306 1083.56 386.713 1084.01 386.235 1084.57L339.886 1141.78C336.367 1146.1 334.425 1151.51 334.381 1157.09L334.19 1179.98C334.162 1183.19 334.762 1186.37 335.957 1189.34C337.151 1192.31 338.917 1195.02 341.152 1197.31C343.388 1199.59 346.05 1201.41 348.986 1202.67C351.922 1203.92 355.075 1204.58 358.264 1204.6ZM502.607 1169.96L502.511 1181.4C502.482 1185.27 500.93 1188.96 498.195 1191.67C495.46 1194.39 491.766 1195.9 487.922 1195.88L358.346 1194.79C354.5 1194.75 350.827 1193.17 348.133 1190.41C345.439 1187.65 343.945 1183.93 343.977 1180.07L344.169 1157.15C344.24 1153.8 345.42 1150.58 347.52 1147.99L388.647 1097.2C393.648 1107.74 401.498 1116.65 411.299 1122.91C421.1 1129.17 432.457 1132.53 444.071 1132.61C444.571 1132.62 445.024 1132.62 445.586 1132.63C445.801 1132.64 446.017 1132.65 446.233 1132.63L488.448 1132.99C489.849 1133.01 491.241 1133.22 492.585 1133.62C494.688 1134.38 496.622 1135.54 498.275 1137.05C499.716 1138.41 500.861 1140.06 501.639 1141.88C502.416 1143.71 502.809 1145.68 502.793 1147.66L502.617 1168.75C502.579 1168.93 502.557 1169.1 502.551 1169.28C502.546 1169.51 502.565 1169.73 502.607 1169.96Z" fill="#EAEAEA" fill-opacity="0.2"/>
<path d="M452.358 1113.28C463.246 1113.39 473.737 1109.26 481.542 1101.79C489.347 1094.32 493.835 1084.11 494.028 1073.39L494.034 1072.63C494.057 1064.45 491.57 1056.46 486.9 1049.69C482.23 1042.93 475.594 1037.71 467.861 1034.72C460.129 1031.73 451.66 1031.11 443.564 1032.94C435.468 1034.77 428.123 1038.96 422.49 1044.97C422.293 1045.13 422.195 1045.26 422.223 1045.26L421.984 1045.55L421.857 1045.7L421.703 1045.86L419.326 1048.79C419.133 1048.95 418.962 1049.14 418.82 1049.35C414.513 1055.42 411.973 1062.53 411.473 1069.92C410.974 1077.31 412.534 1084.7 415.986 1091.28C419.438 1097.86 424.65 1103.39 431.06 1107.27C437.47 1111.15 444.834 1113.23 452.358 1113.3L452.358 1113.28ZM430.597 1052.42C434.719 1048.04 440.082 1044.99 445.99 1043.66C451.897 1042.33 458.076 1042.78 463.722 1044.95C469.368 1047.12 474.221 1050.91 477.649 1055.84C481.076 1060.76 482.921 1066.58 482.942 1072.55L482.937 1073.19C482.669 1080.97 479.315 1088.34 473.592 1093.72C467.869 1099.09 460.234 1102.05 452.323 1101.94C444.413 1101.84 436.857 1098.69 431.276 1093.17C425.695 1087.65 422.533 1080.19 422.469 1072.41C422.518 1066.46 424.39 1060.67 427.841 1055.79L430.372 1052.72L430.569 1052.43L430.597 1052.42Z" fill="#EAEAEA" fill-opacity="0.2"/>
<path d="M452.358 1113.28C463.246 1113.39 473.737 1109.26 481.542 1101.79C489.347 1094.32 493.835 1084.11 494.028 1073.39L494.034 1072.63C494.057 1064.45 491.57 1056.46 486.9 1049.69C482.23 1042.93 475.594 1037.71 467.861 1034.72C460.129 1031.73 451.66 1031.11 443.564 1032.94C435.468 1034.77 428.123 1038.96 422.49 1044.97C422.293 1045.13 422.195 1045.26 422.223 1045.26L421.984 1045.55L421.857 1045.7L421.703 1045.86L419.326 1048.79C419.133 1048.95 418.962 1049.14 418.82 1049.35C414.513 1055.42 411.973 1062.53 411.473 1069.92C410.974 1077.31 412.534 1084.7 415.986 1091.28C419.438 1097.86 424.65 1103.39 431.06 1107.27C437.47 1111.15 444.834 1113.23 452.358 1113.3L452.358 1113.28ZM430.597 1052.42C434.719 1048.04 440.082 1044.99 445.99 1043.66C451.897 1042.33 458.076 1042.78 463.722 1044.95C469.368 1047.12 474.221 1050.91 477.649 1055.84C481.076 1060.76 482.921 1066.58 482.942 1072.55L482.937 1073.19C482.669 1080.97 479.315 1088.34 473.592 1093.72C467.869 1099.09 460.234 1102.05 452.323 1101.94C444.413 1101.84 436.857 1098.69 431.276 1093.17C425.695 1087.65 422.533 1080.19 422.469 1072.41C422.518 1066.46 424.39 1060.67 427.841 1055.79L430.372 1052.72L430.569 1052.43L430.597 1052.42Z" fill="#EAEAEA" fill-opacity="0.2"/>
</g>
</svg>
