<svg width="435" height="864" viewBox="0 0 435 864" fill="none" xmlns="http://www.w3.org/2000/svg">
<g opacity="0.5">
<path d="M22.9261 38.5514L22.3006 168.849C22.2858 175.319 24.8365 181.53 29.3931 186.119C33.9497 190.709 40.1398 193.302 46.605 193.33L80.3503 193.492C83.6786 193.503 86.9739 192.83 90.0316 191.515C93.0894 190.2 95.8445 188.27 98.1261 185.845L98.2743 185.686C100.549 183.163 102.315 180.225 103.475 177.032L103.649 176.628C104.42 174.247 104.818 171.76 104.827 169.258L105.042 124.612C105.092 113.529 108.643 102.745 115.189 93.8035C121.734 84.862 130.938 78.221 141.484 74.8303C142.343 74.5647 143.113 74.0681 143.71 73.3947C144.307 72.7213 144.707 71.8969 144.868 71.0113C144.881 70.8805 144.881 70.7489 144.87 70.618L144.872 70.1386C144.873 69.4007 144.714 68.6715 144.405 68.0014C144.097 67.3313 143.646 66.7364 143.085 66.2579L85.6925 19.8361C81.3577 16.3117 75.9483 14.3771 70.3629 14.3538L47.4648 14.2439C44.2583 14.2269 41.0799 14.8422 38.1111 16.0547C35.1424 17.2672 32.4415 19.0532 30.1627 21.3105C27.8839 23.5678 26.0719 26.2523 24.8302 29.2105C23.5885 32.1688 22.9415 35.3428 22.9261 38.5514ZM58.1009 183.637L46.6518 183.582C42.7876 183.567 39.0872 182.018 36.3622 179.277C33.6372 176.535 32.1099 172.824 32.1155 168.958L32.7414 38.5985C32.7697 34.7287 34.3307 31.028 37.0819 28.3082C39.8332 25.5884 43.5501 24.0714 47.4175 24.09L70.3402 24.2001C73.684 24.2603 76.9121 25.4351 79.5132 27.5385L130.457 68.7295C119.937 73.7987 111.055 81.7281 104.827 91.6108C98.5986 101.494 95.2758 112.931 95.2383 124.614C95.2359 125.118 95.2337 125.573 95.231 126.139C95.2145 126.355 95.2135 126.573 95.2279 126.79L95.024 169.26C95.0077 170.67 94.7984 172.071 94.4021 173.424C93.6566 175.542 92.4991 177.492 90.9962 179.16C89.6413 180.615 88.0001 181.773 86.1759 182.562C84.3518 183.351 82.3843 183.753 80.3971 183.744L59.3048 183.643C59.131 183.606 58.9543 183.584 58.7768 183.579C58.5501 183.574 58.3235 183.594 58.1009 183.637Z" fill="#EAEAEA" fill-opacity="0.2"/>
<path d="M22.9261 38.5514L22.3006 168.849C22.2858 175.319 24.8365 181.53 29.3931 186.119C33.9497 190.709 40.1398 193.302 46.605 193.33L80.3503 193.492C83.6786 193.503 86.9739 192.83 90.0316 191.515C93.0894 190.2 95.8445 188.27 98.1261 185.845L98.2743 185.686C100.549 183.163 102.315 180.225 103.475 177.032L103.649 176.628C104.42 174.247 104.818 171.76 104.827 169.258L105.042 124.612C105.092 113.529 108.643 102.745 115.189 93.8035C121.734 84.862 130.938 78.221 141.484 74.8303C142.343 74.5647 143.113 74.0681 143.71 73.3947C144.307 72.7213 144.707 71.8969 144.868 71.0113C144.881 70.8805 144.881 70.7489 144.87 70.618L144.872 70.1386C144.873 69.4007 144.714 68.6715 144.405 68.0014C144.097 67.3313 143.646 66.7364 143.085 66.2579L85.6925 19.8361C81.3577 16.3117 75.9483 14.3771 70.3629 14.3538L47.4648 14.2439C44.2583 14.2269 41.0799 14.8422 38.1111 16.0547C35.1424 17.2672 32.4415 19.0532 30.1627 21.3105C27.8839 23.5678 26.0719 26.2523 24.8302 29.2105C23.5885 32.1688 22.9415 35.3428 22.9261 38.5514ZM58.1009 183.637L46.6518 183.582C42.7876 183.567 39.0872 182.018 36.3622 179.277C33.6372 176.535 32.1099 172.824 32.1155 168.958L32.7414 38.5985C32.7697 34.7287 34.3307 31.028 37.0819 28.3082C39.8332 25.5884 43.5501 24.0714 47.4175 24.09L70.3402 24.2001C73.684 24.2603 76.9121 25.4351 79.5132 27.5385L130.457 68.7295C119.937 73.7987 111.055 81.7281 104.827 91.6108C98.5986 101.494 95.2758 112.931 95.2383 124.614C95.2359 125.118 95.2337 125.573 95.231 126.139C95.2145 126.355 95.2135 126.573 95.2279 126.79L95.024 169.26C95.0077 170.67 94.7984 172.071 94.4021 173.424C93.6566 175.542 92.4991 177.492 90.9962 179.16C89.6413 180.615 88.0001 181.773 86.1759 182.562C84.3518 183.351 82.3843 183.753 80.3971 183.744L59.3048 183.643C59.131 183.606 58.9543 183.584 58.7768 183.579C58.5501 183.574 58.3235 183.594 58.1009 183.637Z" fill="#EAEAEA" fill-opacity="0.2"/>
<path d="M101.169 133.207C101.099 144.11 105.268 154.599 112.769 162.388C120.271 170.178 130.495 174.635 141.215 174.789L141.983 174.793C150.161 174.786 158.148 172.268 164.896 167.568C171.644 162.867 176.839 156.204 179.802 148.45C182.764 140.697 183.355 132.215 181.497 124.115C179.639 116.015 175.42 108.675 169.391 103.056C169.227 102.86 169.091 102.761 169.09 102.789L168.804 102.551L168.654 102.425L168.49 102.271L165.555 99.9014C165.392 99.7081 165.204 99.5384 164.996 99.397C158.908 95.1058 151.783 92.5874 144.39 92.1136C136.997 91.6397 129.617 93.2284 123.046 96.7083C116.475 100.188 110.963 105.427 107.106 111.859C103.248 118.291 101.191 125.673 101.156 133.206L101.169 133.207ZM161.966 111.2C166.355 115.312 169.425 120.671 170.779 126.582C172.132 132.493 171.706 138.681 169.555 144.342C167.403 150.004 163.627 154.876 158.717 158.326C153.807 161.776 147.99 163.644 142.022 163.686L141.378 163.683C133.593 163.443 126.21 160.11 120.814 154.399C115.417 148.688 112.436 141.053 112.51 133.131C112.584 125.21 115.707 117.633 121.209 112.025C126.711 106.417 134.155 103.225 141.943 103.133C147.89 103.16 153.689 105.015 158.581 108.453L161.665 110.976L161.952 111.172L161.966 111.2Z" fill="#4EBA66" fill-opacity="0.2"/>
<path d="M144.863 347.11L145.489 216.812C145.535 210.342 148.088 204.156 152.587 199.61C157.086 195.064 163.163 192.53 169.484 192.563L202.48 192.722C205.734 192.742 208.949 193.446 211.927 194.79C214.904 196.134 217.579 198.09 219.787 200.537L219.93 200.697C222.13 203.241 223.829 206.196 224.933 209.4L225.1 209.806C225.831 212.194 226.196 214.684 226.181 217.187L225.967 261.832C225.911 272.916 229.281 283.733 235.596 292.736C241.911 301.739 250.846 308.467 261.125 311.958C261.963 312.232 262.711 312.736 263.288 313.415C263.865 314.094 264.249 314.922 264.398 315.809C264.409 315.94 264.408 316.071 264.396 316.202L264.393 316.682C264.387 317.419 264.225 318.147 263.917 318.814C263.609 319.481 263.162 320.072 262.609 320.545L206.054 366.42C201.782 369.903 196.475 371.786 191.014 371.756L168.624 371.649C165.489 371.635 162.387 370.99 159.496 369.749C156.605 368.509 153.981 366.697 151.775 364.418C149.568 362.139 147.822 359.438 146.636 356.468C145.45 353.498 144.848 350.318 144.863 347.11ZM180.632 202.365L169.437 202.311C165.659 202.289 162.026 203.802 159.336 206.518C156.646 209.233 155.117 212.93 155.086 216.796L154.46 347.156C154.451 351.026 155.942 354.741 158.606 357.487C161.27 360.232 164.89 361.785 168.672 361.803L191.085 361.91C194.355 361.882 197.522 360.738 200.085 358.659L250.286 317.954C240.048 312.785 231.439 304.772 225.444 294.83C219.448 284.889 216.308 273.42 216.382 261.737C216.385 261.233 216.387 260.778 216.389 260.213C216.375 259.996 216.376 259.778 216.393 259.561L216.596 217.092C216.594 215.682 216.403 214.279 216.028 212.922C215.319 210.796 214.206 208.836 212.752 207.153C211.441 205.686 209.848 204.512 208.072 203.706C206.296 202.9 204.376 202.479 202.433 202.469L181.809 202.37C181.639 202.405 181.466 202.425 181.292 202.429C181.071 202.431 180.849 202.41 180.632 202.365Z" fill="#4EBA66" fill-opacity="0.2"/>
<path d="M283.761 252.818C283.796 241.736 288.137 231.116 295.839 223.273C303.541 215.429 313.979 210.999 324.879 210.947L325.659 210.95C333.973 211.037 342.068 213.674 348.882 218.518C355.696 223.361 360.913 230.184 363.849 238.093C366.785 246.002 367.303 254.628 365.335 262.843C363.368 271.057 359.006 278.476 352.822 284.128C352.654 284.326 352.514 284.424 352.514 284.396L352.22 284.635L352.067 284.762L351.899 284.917L348.892 287.296C348.724 287.491 348.531 287.662 348.318 287.803C342.087 292.105 334.819 294.595 327.299 295.005C319.778 295.414 312.291 293.728 305.645 290.127C298.999 286.526 293.447 281.148 289.588 274.573C285.729 267.998 283.709 260.475 283.747 252.818L283.761 252.818ZM345.353 275.778C349.855 271.642 353.029 266.225 354.463 260.231C355.897 254.236 355.523 247.943 353.392 242.168C351.26 236.393 347.469 231.404 342.51 227.85C337.552 224.296 331.657 222.341 325.591 222.239L324.936 222.236C317.019 222.404 309.481 225.719 303.939 231.471C298.396 237.223 295.291 244.954 295.289 253.005C295.287 261.057 298.388 268.788 303.927 274.542C309.466 280.295 317.002 283.612 324.919 283.782C330.965 283.812 336.878 281.984 341.885 278.537L345.045 276.003L345.339 275.806L345.353 275.778Z" fill="#EAEAEA" fill-opacity="0.2"/>
<path d="M283.761 252.818C283.796 241.736 288.137 231.116 295.839 223.273C303.541 215.429 313.979 210.999 324.879 210.947L325.659 210.95C333.973 211.037 342.068 213.674 348.882 218.518C355.696 223.361 360.913 230.184 363.849 238.093C366.785 246.002 367.303 254.628 365.335 262.843C363.368 271.057 359.006 278.476 352.822 284.128C352.654 284.326 352.514 284.424 352.514 284.396L352.22 284.635L352.067 284.762L351.899 284.917L348.892 287.296C348.724 287.491 348.531 287.662 348.318 287.803C342.087 292.105 334.819 294.595 327.299 295.005C319.778 295.414 312.291 293.728 305.645 290.127C298.999 286.526 293.447 281.148 289.588 274.573C285.729 267.998 283.709 260.475 283.747 252.818L283.761 252.818ZM345.353 275.778C349.855 271.642 353.029 266.225 354.463 260.231C355.897 254.236 355.523 247.943 353.392 242.168C351.26 236.393 347.469 231.404 342.51 227.85C337.552 224.296 331.657 222.341 325.591 222.239L324.936 222.236C317.019 222.404 309.481 225.719 303.939 231.471C298.396 237.223 295.291 244.954 295.289 253.005C295.287 261.057 298.388 268.788 303.927 274.542C309.466 280.295 317.002 283.612 324.919 283.782C330.965 283.812 336.878 281.984 341.885 278.537L345.045 276.003L345.339 275.806L345.353 275.778Z" fill="#EAEAEA" fill-opacity="0.2"/>
<path d="M252.304 857.76L252.93 727.462C252.977 720.993 255.559 714.807 260.108 710.261C264.658 705.715 270.804 703.181 277.197 703.215L310.567 703.375C313.859 703.395 317.111 704.099 320.122 705.444C323.133 706.788 325.839 708.745 328.072 711.191L328.217 711.352C330.442 713.896 332.16 716.851 333.277 720.054L333.445 720.461C334.185 722.849 334.554 725.339 334.54 727.842L334.325 772.487C334.269 783.571 337.678 794.388 344.065 803.391C350.452 812.395 359.49 819.123 369.885 822.615C370.733 822.888 371.489 823.392 372.073 824.071C372.657 824.751 373.045 825.579 373.196 826.466C373.207 826.597 373.206 826.728 373.194 826.859L373.191 827.339C373.185 828.076 373.021 828.804 372.709 829.471C372.398 830.138 371.947 830.729 371.387 831.202L314.192 877.074C309.872 880.557 304.504 882.439 298.981 882.409L276.337 882.301C273.166 882.287 270.029 881.641 267.105 880.401C264.181 879.16 261.527 877.348 259.296 875.069C257.064 872.79 255.298 870.088 254.098 867.119C252.898 864.149 252.289 860.968 252.304 857.76ZM288.472 713.017L277.15 712.963C273.329 712.941 269.655 714.454 266.934 717.169C264.213 719.884 262.668 723.581 262.636 727.447L262.011 857.807C262.002 861.676 263.51 865.392 266.204 868.138C268.899 870.884 272.56 872.436 276.384 872.454L299.052 872.563C302.359 872.535 305.563 871.391 308.155 869.313L358.923 828.61C348.569 823.441 339.862 815.427 333.798 805.485C327.734 795.543 324.557 784.075 324.632 772.391C324.634 771.887 324.636 771.433 324.639 770.867C324.625 770.65 324.626 770.432 324.642 770.216L324.846 727.746C324.843 726.336 324.65 724.933 324.271 723.576C323.554 721.45 322.428 719.49 320.958 717.807C319.632 716.34 318.02 715.166 316.224 714.36C314.427 713.554 312.486 713.132 310.521 713.123L289.663 713.023C289.49 713.058 289.315 713.077 289.14 713.082C288.916 713.084 288.692 713.062 288.472 713.017Z" fill="#EAEAEA" fill-opacity="0.2"/>
<path d="M252.304 857.76L252.93 727.462C252.977 720.993 255.559 714.807 260.108 710.261C264.658 705.715 270.804 703.181 277.197 703.215L310.567 703.375C313.859 703.395 317.111 704.099 320.122 705.444C323.133 706.788 325.839 708.745 328.072 711.191L328.217 711.352C330.442 713.896 332.16 716.851 333.277 720.054L333.445 720.461C334.185 722.849 334.554 725.339 334.54 727.842L334.325 772.487C334.269 783.571 337.678 794.388 344.065 803.391C350.452 812.395 359.49 819.123 369.885 822.615C370.733 822.888 371.489 823.392 372.073 824.071C372.657 824.751 373.045 825.579 373.196 826.466C373.207 826.597 373.206 826.728 373.194 826.859L373.191 827.339C373.185 828.076 373.021 828.804 372.709 829.471C372.398 830.138 371.947 830.729 371.387 831.202L314.192 877.074C309.872 880.557 304.504 882.439 298.981 882.409L276.337 882.301C273.166 882.287 270.029 881.641 267.105 880.401C264.181 879.16 261.527 877.348 259.296 875.069C257.064 872.79 255.298 870.088 254.098 867.119C252.898 864.149 252.289 860.968 252.304 857.76ZM288.472 713.017L277.15 712.963C273.329 712.941 269.655 714.454 266.934 717.169C264.213 719.884 262.668 723.581 262.636 727.447L262.011 857.807C262.002 861.676 263.51 865.392 266.204 868.138C268.899 870.884 272.56 872.436 276.384 872.454L299.052 872.563C302.359 872.535 305.563 871.391 308.155 869.313L358.923 828.61C348.569 823.441 339.862 815.427 333.798 805.485C327.734 795.543 324.557 784.075 324.632 772.391C324.634 771.887 324.636 771.433 324.639 770.867C324.625 770.65 324.626 770.432 324.642 770.216L324.846 727.746C324.843 726.336 324.65 724.933 324.271 723.576C323.554 721.45 322.428 719.49 320.958 717.807C319.632 716.34 318.02 715.166 316.224 714.36C314.427 713.554 312.486 713.132 310.521 713.123L289.663 713.023C289.49 713.058 289.315 713.077 289.14 713.082C288.916 713.084 288.692 713.062 288.472 713.017Z" fill="#EAEAEA" fill-opacity="0.2"/>
<path d="M343.675 763.24C343.71 752.158 347.91 741.537 355.361 733.693C362.812 725.848 372.908 721.416 383.451 721.362L384.205 721.366C392.247 721.451 400.076 724.087 406.666 728.929C413.256 733.771 418.301 740.594 421.139 748.502C423.977 756.411 424.477 765.037 422.573 773.252C420.668 781.466 416.449 788.886 410.466 794.539C410.304 794.737 410.169 794.835 410.169 794.807L409.885 795.046L409.736 795.173L409.573 795.328L406.665 797.708C406.503 797.903 406.316 798.074 406.11 798.215C400.082 802.518 393.052 805.009 385.778 805.42C378.504 805.831 371.263 804.145 364.835 800.545C358.408 796.946 353.038 791.568 349.307 784.994C345.575 778.419 343.623 770.898 343.661 763.24L343.675 763.24ZM403.244 786.19C407.599 782.054 410.67 776.636 412.057 770.642C413.445 764.647 413.085 758.354 411.024 752.579C408.963 746.804 405.297 741.816 400.502 738.263C395.707 734.709 390.005 732.755 384.138 732.655L383.504 732.652C375.847 732.821 368.555 736.137 363.194 741.89C357.833 747.643 354.828 755.374 354.825 763.426C354.821 771.477 357.819 779.208 363.176 784.96C368.532 790.713 375.821 794.029 383.478 794.197C389.326 794.226 395.046 792.398 399.889 788.95L402.946 786.415L403.23 786.218L403.244 786.19Z" fill="#4EBA66" fill-opacity="0.2"/>
<path d="M316.299 528.194L316.929 396.909C316.944 390.391 314.394 384.133 309.837 379.509C305.281 374.884 299.091 372.272 292.625 372.244L258.88 372.082C255.552 372.071 252.257 372.749 249.199 374.074C246.141 375.399 243.386 377.344 241.104 379.787L240.956 379.948C238.681 382.489 236.915 385.45 235.754 388.667L235.581 389.075C234.81 391.474 234.412 393.979 234.402 396.501L234.186 441.484C234.136 452.652 230.584 463.517 224.038 472.527C217.492 481.536 208.288 488.228 197.743 491.645C196.883 491.912 196.113 492.413 195.516 493.091C194.92 493.77 194.519 494.6 194.358 495.493C194.345 495.624 194.345 495.757 194.356 495.889L194.354 496.372C194.353 497.115 194.512 497.85 194.821 498.525C195.129 499.2 195.58 499.8 196.141 500.282L253.532 547.053C257.866 550.604 263.276 552.553 268.861 552.577L291.759 552.687C294.966 552.704 298.144 552.083 301.113 550.862C304.082 549.64 306.783 547.84 309.062 545.566C311.34 543.291 313.153 540.586 314.394 537.606C315.636 534.625 316.283 531.427 316.299 528.194ZM281.129 382.011L292.578 382.066C296.442 382.081 300.143 383.641 302.868 386.403C305.593 389.165 307.12 392.904 307.114 396.8L306.483 528.147C306.455 532.046 304.894 535.775 302.143 538.515C299.391 541.256 295.674 542.784 291.807 542.766L268.884 542.656C265.54 542.595 262.312 541.412 259.711 539.292L208.769 497.791C219.289 492.683 228.172 484.693 234.4 474.736C240.628 464.778 243.952 453.254 243.99 441.482C243.992 440.974 243.994 440.516 243.997 439.946C244.014 439.727 244.015 439.508 244 439.29L244.206 396.498C244.222 395.077 244.431 393.666 244.828 392.302C245.573 390.168 246.731 388.203 248.234 386.522C249.589 385.057 251.23 383.89 253.054 383.095C254.878 382.3 256.846 381.894 258.833 381.904L279.925 382.005C280.099 382.042 280.276 382.064 280.453 382.069C280.68 382.074 280.907 382.054 281.129 382.011Z" fill="#EAEAEA" fill-opacity="0.2"/>
<path d="M316.299 528.194L316.929 396.909C316.944 390.391 314.394 384.133 309.837 379.509C305.281 374.884 299.091 372.272 292.625 372.244L258.88 372.082C255.552 372.071 252.257 372.749 249.199 374.074C246.141 375.399 243.386 377.344 241.104 379.787L240.956 379.948C238.681 382.489 236.915 385.45 235.754 388.667L235.581 389.075C234.81 391.474 234.412 393.979 234.402 396.501L234.186 441.484C234.136 452.652 230.584 463.517 224.038 472.527C217.492 481.536 208.288 488.228 197.743 491.645C196.883 491.912 196.113 492.413 195.516 493.091C194.92 493.77 194.519 494.6 194.358 495.493C194.345 495.624 194.345 495.757 194.356 495.889L194.354 496.372C194.353 497.115 194.512 497.85 194.821 498.525C195.129 499.2 195.58 499.8 196.141 500.282L253.532 547.053C257.866 550.604 263.276 552.553 268.861 552.577L291.759 552.687C294.966 552.704 298.144 552.083 301.113 550.862C304.082 549.64 306.783 547.84 309.062 545.566C311.34 543.291 313.153 540.586 314.394 537.606C315.636 534.625 316.283 531.427 316.299 528.194ZM281.129 382.011L292.578 382.066C296.442 382.081 300.143 383.641 302.868 386.403C305.593 389.165 307.12 392.904 307.114 396.8L306.483 528.147C306.455 532.046 304.894 535.775 302.143 538.515C299.391 541.256 295.674 542.784 291.807 542.766L268.884 542.656C265.54 542.595 262.312 541.412 259.711 539.292L208.769 497.791C219.289 492.683 228.172 484.693 234.4 474.736C240.628 464.778 243.952 453.254 243.99 441.482C243.992 440.974 243.994 440.516 243.997 439.946C244.014 439.727 244.015 439.508 244 439.29L244.206 396.498C244.222 395.077 244.431 393.666 244.828 392.302C245.573 390.168 246.731 388.203 248.234 386.522C249.589 385.057 251.23 383.89 253.054 383.095C254.878 382.3 256.846 381.894 258.833 381.904L279.925 382.005C280.099 382.042 280.276 382.064 280.453 382.069C280.68 382.074 280.907 382.054 281.129 382.011Z" fill="#EAEAEA" fill-opacity="0.2"/>
<path d="M224.484 432.98C224.555 421.898 220.457 411.237 213.082 403.322C205.707 395.406 195.653 390.877 185.112 390.722L184.357 390.718C176.315 390.727 168.461 393.287 161.825 398.066C155.189 402.845 150.079 409.618 147.165 417.499C144.25 425.38 143.668 434.001 145.493 442.234C147.319 450.466 151.467 457.926 157.395 463.636C157.555 463.835 157.69 463.935 157.69 463.907L157.972 464.149L158.119 464.277L158.28 464.434L161.166 466.842C161.326 467.038 161.511 467.211 161.716 467.354C167.702 471.715 174.707 474.273 181.977 474.754C189.247 475.234 196.504 473.618 202.966 470.08C209.428 466.542 214.849 461.217 218.643 454.679C222.438 448.14 224.462 440.638 224.497 432.98L224.484 432.98ZM164.697 455.357C160.382 451.179 157.363 445.732 156.033 439.724C154.703 433.717 155.124 427.427 157.24 421.673C159.356 415.918 163.07 410.965 167.899 407.458C172.728 403.951 178.449 402.052 184.316 402.008L184.95 402.011C192.605 402.253 199.865 405.639 205.17 411.443C210.476 417.248 213.406 425.007 213.332 433.058C213.259 441.11 210.186 448.811 204.775 454.512C199.364 460.213 192.044 463.459 184.385 463.554C178.537 463.527 172.835 461.643 168.026 458.149L164.993 455.585L164.711 455.385L164.697 455.357Z" fill="#EAEAEA" fill-opacity="0.2"/>
<path d="M224.484 432.98C224.555 421.898 220.457 411.237 213.082 403.322C205.707 395.406 195.653 390.877 185.112 390.722L184.357 390.718C176.315 390.727 168.461 393.287 161.825 398.066C155.189 402.845 150.079 409.618 147.165 417.499C144.25 425.38 143.668 434.001 145.493 442.234C147.319 450.466 151.467 457.926 157.395 463.636C157.555 463.835 157.69 463.935 157.69 463.907L157.972 464.149L158.119 464.277L158.28 464.434L161.166 466.842C161.326 467.038 161.511 467.211 161.716 467.354C167.702 471.715 174.707 474.273 181.977 474.754C189.247 475.234 196.504 473.618 202.966 470.08C209.428 466.542 214.849 461.217 218.643 454.679C222.438 448.14 224.462 440.638 224.497 432.98L224.484 432.98ZM164.697 455.357C160.382 451.179 157.363 445.732 156.033 439.724C154.703 433.717 155.124 427.427 157.24 421.673C159.356 415.918 163.07 410.965 167.899 407.458C172.728 403.951 178.449 402.052 184.316 402.008L184.95 402.011C192.605 402.253 199.865 405.639 205.17 411.443C210.476 417.248 213.406 425.007 213.332 433.058C213.259 441.11 210.186 448.811 204.775 454.512C199.364 460.213 192.044 463.459 184.385 463.554C178.537 463.527 172.835 461.643 168.026 458.149L164.993 455.585L164.711 455.385L164.697 455.357Z" fill="#EAEAEA" fill-opacity="0.2"/>
<path d="M126.496 216.782L125.871 347.08C125.824 353.549 123.213 359.735 118.613 364.281C114.012 368.826 107.798 371.36 101.332 371.326L67.5872 371.164C64.2589 371.143 60.9703 370.439 57.9253 369.094C54.8803 367.75 52.1438 365.793 49.8856 363.347L49.739 363.186C47.4889 360.642 45.7511 357.687 44.6212 354.483L44.4511 354.077C43.7032 351.688 43.3297 349.198 43.3441 346.696L43.5585 302.05C43.6148 290.967 40.1668 280.149 33.7075 271.146C27.2482 262.142 18.1086 255.413 7.59611 251.921C6.73931 251.647 5.97409 251.143 5.38382 250.464C4.79354 249.785 4.40088 248.956 4.24861 248.069C4.23709 247.939 4.23772 247.807 4.2505 247.676L4.2528 247.197C4.25883 246.459 4.42511 245.731 4.74013 245.064C5.05516 244.397 5.51139 243.806 6.0772 243.333L63.9126 197.465C68.2811 193.982 73.7088 192.1 79.2941 192.13L102.192 192.24C105.399 192.254 108.571 192.899 111.528 194.14C114.485 195.381 117.169 197.193 119.426 199.472C121.683 201.751 123.469 204.453 124.682 207.423C125.895 210.393 126.512 213.573 126.496 216.782ZM89.9302 361.523L101.379 361.578C105.243 361.6 108.959 360.087 111.71 357.372C114.461 354.657 116.024 350.961 116.055 347.094L116.681 216.735C116.69 212.865 115.165 209.149 112.44 206.403C109.715 203.657 106.012 202.105 102.145 202.086L79.2223 201.976C75.8781 202.004 72.6389 203.148 70.0177 205.226L18.6811 245.926C29.1519 251.096 37.9573 259.11 44.0902 269.052C50.223 278.995 53.4359 290.463 53.3612 302.147C53.3588 302.65 53.3566 303.105 53.3539 303.671C53.3683 303.888 53.3673 304.105 53.3507 304.322L53.1469 346.792C53.1496 348.202 53.3454 349.605 53.7288 350.962C54.4538 353.088 55.5926 355.048 57.0794 356.731C58.4203 358.198 60.0503 359.372 61.8668 360.179C63.6833 360.985 65.6468 361.406 67.634 361.416L88.7263 361.517C88.9005 361.482 89.0773 361.462 89.2549 361.458C89.4816 361.456 89.708 361.478 89.9302 361.523Z" fill="#EAEAEA" fill-opacity="0.2"/>
<path d="M126.496 216.782L125.871 347.08C125.824 353.549 123.213 359.735 118.613 364.281C114.012 368.826 107.798 371.36 101.332 371.326L67.5872 371.164C64.2589 371.143 60.9703 370.439 57.9253 369.094C54.8803 367.75 52.1438 365.793 49.8856 363.347L49.739 363.186C47.4889 360.642 45.7511 357.687 44.6212 354.483L44.4511 354.077C43.7032 351.688 43.3297 349.198 43.3441 346.696L43.5585 302.05C43.6148 290.967 40.1668 280.149 33.7075 271.146C27.2482 262.142 18.1086 255.413 7.59611 251.921C6.73931 251.647 5.97409 251.143 5.38382 250.464C4.79354 249.785 4.40088 248.956 4.24861 248.069C4.23709 247.939 4.23772 247.807 4.2505 247.676L4.2528 247.197C4.25883 246.459 4.42511 245.731 4.74013 245.064C5.05516 244.397 5.51139 243.806 6.0772 243.333L63.9126 197.465C68.2811 193.982 73.7088 192.1 79.2941 192.13L102.192 192.24C105.399 192.254 108.571 192.899 111.528 194.14C114.485 195.381 117.169 197.193 119.426 199.472C121.683 201.751 123.469 204.453 124.682 207.423C125.895 210.393 126.512 213.573 126.496 216.782ZM89.9302 361.523L101.379 361.578C105.243 361.6 108.959 360.087 111.71 357.372C114.461 354.657 116.024 350.961 116.055 347.094L116.681 216.735C116.69 212.865 115.165 209.149 112.44 206.403C109.715 203.657 106.012 202.105 102.145 202.086L79.2223 201.976C75.8781 202.004 72.6389 203.148 70.0177 205.226L18.6811 245.926C29.1519 251.096 37.9573 259.11 44.0902 269.052C50.223 278.995 53.4359 290.463 53.3612 302.147C53.3588 302.65 53.3566 303.105 53.3539 303.671C53.3683 303.888 53.3673 304.105 53.3507 304.322L53.1469 346.792C53.1496 348.202 53.3454 349.605 53.7288 350.962C54.4538 353.088 55.5926 355.048 57.0794 356.731C58.4203 358.198 60.0503 359.372 61.8668 360.179C63.6833 360.985 65.6468 361.406 67.634 361.416L88.7263 361.517C88.9005 361.482 89.0773 361.462 89.2549 361.458C89.4816 361.456 89.708 361.478 89.9302 361.523Z" fill="#EAEAEA" fill-opacity="0.2"/>
<path d="M33.7744 309.937C33.7395 321.019 29.5389 331.64 22.0883 339.484C14.6376 347.329 4.54085 351.761 -6.00155 351.815L-6.75611 351.811C-14.7979 351.726 -22.6265 349.09 -29.2167 344.248C-35.807 339.406 -40.8515 332.583 -43.6898 324.675C-46.5281 316.766 -47.0278 308.14 -45.1235 299.925C-43.2191 291.711 -38.9994 284.291 -33.0172 278.638C-32.8545 278.44 -32.7193 278.342 -32.7194 278.37L-32.4353 278.131L-32.2865 278.004L-32.124 277.849L-29.2156 275.469C-29.0535 275.274 -28.8668 275.103 -28.6607 274.962C-22.6333 270.659 -15.6031 268.168 -8.32914 267.757C-1.05514 267.346 6.18646 269.032 12.614 272.632C19.0415 276.231 24.4108 281.609 28.1424 288.183C31.874 294.758 33.826 302.279 33.7879 309.937L33.7744 309.937ZM-25.7944 286.987C-30.1495 291.123 -33.2205 296.541 -34.6081 302.535C-35.9957 308.53 -35.6356 314.823 -33.5748 320.598C-31.5139 326.373 -27.8476 331.361 -23.0525 334.914C-18.2575 338.468 -12.5557 340.422 -6.68846 340.522L-6.05517 340.525C1.60252 340.356 8.89383 337.04 14.2552 331.287C19.6165 325.534 22.621 317.803 22.6244 309.751C22.6278 301.7 19.6298 293.969 14.2733 288.217C8.91684 282.464 1.62839 279.148 -6.02916 278.98C-11.8765 278.951 -17.5966 280.779 -22.4395 284.227L-25.4969 286.762L-25.7808 286.959L-25.7944 286.987Z" fill="#EAEAEA" fill-opacity="0.2"/>
<path d="M33.7744 309.937C33.7395 321.019 29.5389 331.64 22.0883 339.484C14.6376 347.329 4.54085 351.761 -6.00155 351.815L-6.75611 351.811C-14.7979 351.726 -22.6265 349.09 -29.2167 344.248C-35.807 339.406 -40.8515 332.583 -43.6898 324.675C-46.5281 316.766 -47.0278 308.14 -45.1235 299.925C-43.2191 291.711 -38.9994 284.291 -33.0172 278.638C-32.8545 278.44 -32.7193 278.342 -32.7194 278.37L-32.4353 278.131L-32.2865 278.004L-32.124 277.849L-29.2156 275.469C-29.0535 275.274 -28.8668 275.103 -28.6607 274.962C-22.6333 270.659 -15.6031 268.168 -8.32914 267.757C-1.05514 267.346 6.18646 269.032 12.614 272.632C19.0415 276.231 24.4108 281.609 28.1424 288.183C31.874 294.758 33.826 302.279 33.7879 309.937L33.7744 309.937ZM-25.7944 286.987C-30.1495 291.123 -33.2205 296.541 -34.6081 302.535C-35.9957 308.53 -35.6356 314.823 -33.5748 320.598C-31.5139 326.373 -27.8476 331.361 -23.0525 334.914C-18.2575 338.468 -12.5557 340.422 -6.68846 340.522L-6.05517 340.525C1.60252 340.356 8.89383 337.04 14.2552 331.287C19.6165 325.534 22.621 317.803 22.6244 309.751C22.6278 301.7 19.6298 293.969 14.2733 288.217C8.91684 282.464 1.62839 279.148 -6.02916 278.98C-11.8765 278.951 -17.5966 280.779 -22.4395 284.227L-25.4969 286.762L-25.7808 286.959L-25.7944 286.987Z" fill="#EAEAEA" fill-opacity="0.2"/>
<path d="M74.9417 498.736L74.3162 629.033C74.3014 635.503 76.8522 641.714 81.4087 646.303C85.9653 650.893 92.1554 653.486 98.6206 653.514L132.366 653.676C135.694 653.688 138.989 653.015 142.047 651.699C145.105 650.384 147.86 648.454 150.142 646.029L150.29 645.87C152.564 643.348 154.33 640.409 155.491 637.217L155.665 636.812C156.436 634.431 156.833 631.945 156.843 629.442L157.057 584.797C157.107 573.713 160.659 562.929 167.204 553.988C173.75 545.046 182.954 538.405 193.499 535.015C194.359 534.749 195.129 534.252 195.725 533.579C196.322 532.906 196.723 532.081 196.884 531.196C196.896 531.065 196.897 530.933 196.885 530.802L196.888 530.323C196.889 529.585 196.729 528.856 196.421 528.186C196.112 527.516 195.662 526.921 195.1 526.442L137.708 480.02C133.373 476.496 127.964 474.561 122.379 474.538L99.4804 474.428C96.2739 474.411 93.0955 475.027 90.1268 476.239C87.158 477.452 84.4571 479.237 82.1783 481.495C79.8995 483.752 78.0875 486.437 76.8458 489.395C75.6042 492.353 74.9571 495.527 74.9417 498.736ZM110.117 643.821L98.6674 643.766C94.8032 643.751 91.1029 642.203 88.3778 639.461C85.6528 636.72 84.1256 633.009 84.1311 629.142L84.757 498.783C84.7853 494.913 86.3463 491.212 89.0975 488.493C91.8488 485.773 95.5657 484.256 99.4331 484.274L122.356 484.384C125.7 484.445 128.928 485.619 131.529 487.723L182.472 528.914C171.952 533.983 163.07 541.912 156.842 551.795C150.614 561.678 147.291 573.115 147.254 584.799C147.252 585.303 147.249 585.757 147.247 586.323C147.23 586.54 147.229 586.757 147.244 586.974L147.04 629.444C147.023 630.854 146.814 632.255 146.418 633.608C145.672 635.727 144.515 637.677 143.012 639.345C141.657 640.799 140.016 641.958 138.192 642.746C136.367 643.535 134.4 643.938 132.413 643.928L111.32 643.827C111.147 643.79 110.97 643.769 110.792 643.763C110.566 643.759 110.339 643.778 110.117 643.821Z" fill="#EAEAEA" fill-opacity="0.2"/>
<path d="M74.9417 498.736L74.3162 629.033C74.3014 635.503 76.8522 641.714 81.4087 646.303C85.9653 650.893 92.1554 653.486 98.6206 653.514L132.366 653.676C135.694 653.688 138.989 653.015 142.047 651.699C145.105 650.384 147.86 648.454 150.142 646.029L150.29 645.87C152.564 643.348 154.33 640.409 155.491 637.217L155.665 636.812C156.436 634.431 156.833 631.945 156.843 629.442L157.057 584.797C157.107 573.713 160.659 562.929 167.204 553.988C173.75 545.046 182.954 538.405 193.499 535.015C194.359 534.749 195.129 534.252 195.725 533.579C196.322 532.906 196.723 532.081 196.884 531.196C196.896 531.065 196.897 530.933 196.885 530.802L196.888 530.323C196.889 529.585 196.729 528.856 196.421 528.186C196.112 527.516 195.662 526.921 195.1 526.442L137.708 480.02C133.373 476.496 127.964 474.561 122.379 474.538L99.4804 474.428C96.2739 474.411 93.0955 475.027 90.1268 476.239C87.158 477.452 84.4571 479.237 82.1783 481.495C79.8995 483.752 78.0875 486.437 76.8458 489.395C75.6042 492.353 74.9571 495.527 74.9417 498.736ZM110.117 643.821L98.6674 643.766C94.8032 643.751 91.1029 642.203 88.3778 639.461C85.6528 636.72 84.1256 633.009 84.1311 629.142L84.757 498.783C84.7853 494.913 86.3463 491.212 89.0975 488.493C91.8488 485.773 95.5657 484.256 99.4331 484.274L122.356 484.384C125.7 484.445 128.928 485.619 131.529 487.723L182.472 528.914C171.952 533.983 163.07 541.912 156.842 551.795C150.614 561.678 147.291 573.115 147.254 584.799C147.252 585.303 147.249 585.757 147.247 586.323C147.23 586.54 147.229 586.757 147.244 586.974L147.04 629.444C147.023 630.854 146.814 632.255 146.418 633.608C145.672 635.727 144.515 637.677 143.012 639.345C141.657 640.799 140.016 641.958 138.192 642.746C136.367 643.535 134.4 643.938 132.413 643.928L111.32 643.827C111.147 643.79 110.97 643.769 110.792 643.763C110.566 643.759 110.339 643.778 110.117 643.821Z" fill="#EAEAEA" fill-opacity="0.2"/>
<path d="M166.755 594.134C166.683 605.216 170.781 615.877 178.156 623.793C185.531 631.708 195.585 636.237 206.127 636.392L206.881 636.396C214.923 636.388 222.777 633.827 229.413 629.048C236.05 624.27 241.16 617.497 244.074 609.616C246.988 601.735 247.57 593.113 245.745 584.881C243.919 576.648 239.771 569.188 233.844 563.478C233.683 563.279 233.549 563.179 233.548 563.208L233.267 562.965L233.119 562.837L232.958 562.681L230.073 560.273C229.912 560.076 229.727 559.904 229.523 559.76C223.537 555.4 216.531 552.841 209.261 552.361C201.991 551.88 194.734 553.496 188.272 557.034C181.81 560.572 176.39 565.898 172.595 572.436C168.801 578.974 166.776 586.477 166.741 594.134L166.755 594.134ZM226.541 571.758C230.856 575.936 233.875 581.383 235.205 587.39C236.535 593.397 236.114 599.687 233.998 605.442C231.882 611.196 228.168 616.149 223.339 619.656C218.51 623.164 212.79 625.063 206.922 625.107L206.289 625.104C198.633 624.861 191.374 621.475 186.068 615.671C180.762 609.867 177.832 602.107 177.906 594.056C177.98 586.005 181.052 578.303 186.463 572.602C191.875 566.902 199.195 563.656 206.854 563.561C212.701 563.588 218.403 565.472 223.213 568.965L226.246 571.53L226.528 571.729L226.541 571.758Z" fill="#EAEAEA" fill-opacity="0.2"/>
<path d="M166.755 594.134C166.683 605.216 170.781 615.877 178.156 623.793C185.531 631.708 195.585 636.237 206.127 636.392L206.881 636.396C214.923 636.388 222.777 633.827 229.413 629.048C236.05 624.27 241.16 617.497 244.074 609.616C246.988 601.735 247.57 593.113 245.745 584.881C243.919 576.648 239.771 569.188 233.844 563.478C233.683 563.279 233.549 563.179 233.548 563.208L233.267 562.965L233.119 562.837L232.958 562.681L230.073 560.273C229.912 560.076 229.727 559.904 229.523 559.76C223.537 555.4 216.531 552.841 209.261 552.361C201.991 551.88 194.734 553.496 188.272 557.034C181.81 560.572 176.39 565.898 172.595 572.436C168.801 578.974 166.776 586.477 166.741 594.134L166.755 594.134ZM226.541 571.758C230.856 575.936 233.875 581.383 235.205 587.39C236.535 593.397 236.114 599.687 233.998 605.442C231.882 611.196 228.168 616.149 223.339 619.656C218.51 623.164 212.79 625.063 206.922 625.107L206.289 625.104C198.633 624.861 191.374 621.475 186.068 615.671C180.762 609.867 177.832 602.107 177.906 594.056C177.98 586.005 181.052 578.303 186.463 572.602C191.875 566.902 199.195 563.656 206.854 563.561C212.701 563.588 218.403 565.472 223.213 568.965L226.246 571.53L226.528 571.729L226.541 571.758Z" fill="#EAEAEA" fill-opacity="0.2"/>
<path d="M228.752 677.393L228.122 808.678C228.074 815.196 225.435 821.429 220.783 826.009C216.132 830.589 209.848 833.141 203.311 833.107L169.191 832.943C165.826 832.922 162.5 832.213 159.422 830.858C156.343 829.503 153.576 827.532 151.292 825.066L151.144 824.905C148.869 822.341 147.112 819.364 145.969 816.136L145.797 815.726C145.041 813.32 144.664 810.811 144.678 808.289L144.894 763.306C144.951 752.138 141.464 741.239 134.933 732.167C128.402 723.094 119.161 716.314 108.531 712.796C107.665 712.52 106.891 712.012 106.294 711.328C105.697 710.643 105.3 709.809 105.146 708.915C105.135 708.783 105.135 708.651 105.148 708.519L105.151 708.036C105.157 707.292 105.325 706.559 105.643 705.887C105.962 705.215 106.423 704.62 106.995 704.143L165.473 657.928C169.89 654.419 175.377 652.523 181.025 652.553L204.177 652.664C207.42 652.678 210.627 653.329 213.617 654.579C216.607 655.83 219.32 657.655 221.603 659.952C223.885 662.248 225.691 664.97 226.917 667.963C228.144 670.956 228.768 674.16 228.752 677.393ZM191.782 823.23L203.358 823.285C207.265 823.307 211.022 821.783 213.803 819.048C216.585 816.312 218.165 812.588 218.197 808.692L218.828 677.345C218.837 673.446 217.294 669.702 214.539 666.935C211.784 664.168 208.04 662.604 204.13 662.585L180.952 662.474C177.571 662.502 174.296 663.654 171.646 665.748L119.739 706.756C130.327 711.965 139.23 720.04 145.431 730.058C151.632 740.075 154.881 751.631 154.806 763.403C154.803 763.911 154.801 764.369 154.798 764.939C154.813 765.157 154.812 765.377 154.795 765.595L154.59 808.386C154.593 809.807 154.79 811.221 155.178 812.588C155.911 814.73 157.063 816.705 158.566 818.401C159.922 819.879 161.57 821.062 163.407 821.875C165.243 822.687 167.229 823.112 169.238 823.121L190.565 823.224C190.741 823.188 190.92 823.169 191.099 823.164C191.328 823.162 191.557 823.184 191.782 823.23Z" fill="#EAEAEA" fill-opacity="0.2"/>
<path d="M228.752 677.393L228.122 808.678C228.074 815.196 225.435 821.429 220.783 826.009C216.132 830.589 209.848 833.141 203.311 833.107L169.191 832.943C165.826 832.922 162.5 832.213 159.422 830.858C156.343 829.503 153.576 827.532 151.292 825.066L151.144 824.905C148.869 822.341 147.112 819.364 145.969 816.136L145.797 815.726C145.041 813.32 144.664 810.811 144.678 808.289L144.894 763.306C144.951 752.138 141.464 741.239 134.933 732.167C128.402 723.094 119.161 716.314 108.531 712.796C107.665 712.52 106.891 712.012 106.294 711.328C105.697 710.643 105.3 709.809 105.146 708.915C105.135 708.783 105.135 708.651 105.148 708.519L105.151 708.036C105.157 707.292 105.325 706.559 105.643 705.887C105.962 705.215 106.423 704.62 106.995 704.143L165.473 657.928C169.89 654.419 175.377 652.523 181.025 652.553L204.177 652.664C207.42 652.678 210.627 653.329 213.617 654.579C216.607 655.83 219.32 657.655 221.603 659.952C223.885 662.248 225.691 664.97 226.917 667.963C228.144 670.956 228.768 674.16 228.752 677.393ZM191.782 823.23L203.358 823.285C207.265 823.307 211.022 821.783 213.803 819.048C216.585 816.312 218.165 812.588 218.197 808.692L218.828 677.345C218.837 673.446 217.294 669.702 214.539 666.935C211.784 664.168 208.04 662.604 204.13 662.585L180.952 662.474C177.571 662.502 174.296 663.654 171.646 665.748L119.739 706.756C130.327 711.965 139.23 720.04 145.431 730.058C151.632 740.075 154.881 751.631 154.806 763.403C154.803 763.911 154.801 764.369 154.798 764.939C154.813 765.157 154.812 765.377 154.795 765.595L154.59 808.386C154.593 809.807 154.79 811.221 155.178 812.588C155.911 814.73 157.063 816.705 158.566 818.401C159.922 819.879 161.57 821.062 163.407 821.875C165.243 822.687 167.229 823.112 169.238 823.121L190.565 823.224C190.741 823.188 190.92 823.169 191.099 823.164C191.328 823.162 191.557 823.184 191.782 823.23Z" fill="#EAEAEA" fill-opacity="0.2"/>
<path d="M136.029 771.043C135.995 781.946 131.725 792.395 124.149 800.112C116.574 807.829 106.306 812.188 95.5853 812.239L94.8179 812.236C86.6399 812.15 78.6781 809.555 71.9754 804.79C65.2727 800.025 60.1416 793.313 57.2539 785.531C54.3663 777.75 53.8567 769.262 55.7921 761.18C57.7274 753.099 62.0174 745.799 68.1002 740.238C68.2656 740.044 68.4031 739.947 68.4029 739.975L68.6918 739.739L68.8432 739.615L69.0083 739.462L71.9657 737.121C72.1305 736.929 72.3203 736.761 72.5299 736.622C78.6588 732.389 85.8077 729.94 93.2049 729.537C100.602 729.134 107.967 730.793 114.504 734.336C121.041 737.879 126.502 743.17 130.298 749.639C134.094 756.108 136.08 763.509 136.042 771.043L136.029 771.043ZM75.4466 748.454C71.0184 752.523 67.8962 757.853 66.4861 763.75C65.0759 769.648 65.4431 775.84 67.5398 781.522C69.6365 787.203 73.3658 792.112 78.2426 795.609C83.1195 799.106 88.9183 801.029 94.8849 801.129L95.529 801.132C103.316 800.967 110.731 797.705 116.182 792.046C121.633 786.387 124.688 778.781 124.69 770.859C124.692 762.937 121.642 755.331 116.194 749.67C110.746 744.009 103.333 740.746 95.5456 740.579C89.5992 740.549 83.7824 742.348 78.858 745.739L75.7492 748.232L75.4605 748.426L75.4466 748.454Z" fill="#EAEAEA" fill-opacity="0.2"/>
<path d="M136.029 771.043C135.995 781.946 131.725 792.395 124.149 800.112C116.574 807.829 106.306 812.188 95.5853 812.239L94.8179 812.236C86.6399 812.15 78.6781 809.555 71.9754 804.79C65.2727 800.025 60.1416 793.313 57.2539 785.531C54.3663 777.75 53.8567 769.262 55.7921 761.18C57.7274 753.099 62.0174 745.799 68.1002 740.238C68.2656 740.044 68.4031 739.947 68.4029 739.975L68.6918 739.739L68.8432 739.615L69.0083 739.462L71.9657 737.121C72.1305 736.929 72.3203 736.761 72.5299 736.622C78.6588 732.389 85.8077 729.94 93.2049 729.537C100.602 729.134 107.967 730.793 114.504 734.336C121.041 737.879 126.502 743.17 130.298 749.639C134.094 756.108 136.08 763.509 136.042 771.043L136.029 771.043ZM75.4466 748.454C71.0184 752.523 67.8962 757.853 66.4861 763.75C65.0759 769.648 65.4431 775.84 67.5398 781.522C69.6365 787.203 73.3658 792.112 78.2426 795.609C83.1195 799.106 88.9183 801.029 94.8849 801.129L95.529 801.132C103.316 800.967 110.731 797.705 116.182 792.046C121.633 786.387 124.688 778.781 124.69 770.859C124.692 762.937 121.642 755.331 116.194 749.67C110.746 744.009 103.333 740.746 95.5456 740.579C89.5992 740.549 83.7824 742.348 78.858 745.739L75.7492 748.232L75.4605 748.426L75.4466 748.454Z" fill="#EAEAEA" fill-opacity="0.2"/>
<path d="M227.268 174.604L356.783 175.696C363.214 175.734 369.397 173.206 373.975 168.666C378.553 164.127 381.153 157.948 381.204 151.484L381.486 117.746C381.509 114.418 380.852 111.121 379.556 108.059C378.259 104.997 376.351 102.236 373.949 99.9459L373.791 99.7972C371.292 97.5142 368.377 95.738 365.208 94.5661L364.806 94.3908C362.442 93.6115 359.972 93.2054 357.485 93.1868L313.107 92.8127C302.09 92.723 291.384 89.1333 282.52 82.5571C273.655 75.9809 267.087 66.7552 263.754 56.1996C263.493 55.3394 263.002 54.5678 262.335 53.9687C261.668 53.3697 260.85 52.9662 259.97 52.8023C259.84 52.789 259.709 52.7879 259.579 52.799L259.103 52.795C258.369 52.7913 257.644 52.9479 256.977 53.254C256.309 53.5602 255.716 54.0085 255.239 54.5679L208.89 111.783C205.371 116.104 203.428 121.506 203.385 127.09L203.194 149.983C203.166 153.189 203.766 156.369 204.961 159.341C206.155 162.314 207.921 165.021 210.156 167.307C212.392 169.593 215.054 171.415 217.99 172.667C220.926 173.919 224.079 174.577 227.268 174.604ZM371.61 139.955L371.515 151.402C371.486 155.265 369.934 158.96 367.199 161.674C364.464 164.389 360.77 165.903 356.926 165.883L227.35 164.791C223.503 164.749 219.831 163.175 217.137 160.414C214.443 157.654 212.949 153.932 212.981 150.066L213.172 127.148C213.244 123.805 214.424 120.582 216.524 117.989L257.65 67.2025C262.652 77.7386 270.502 86.6471 280.303 92.9093C290.104 99.1715 301.461 102.535 313.074 102.614C313.575 102.618 314.027 102.622 314.589 102.627C314.805 102.644 315.021 102.646 315.237 102.632L357.452 102.988C358.853 103.009 360.245 103.224 361.589 103.625C363.692 104.378 365.626 105.542 367.279 107.05C368.72 108.41 369.865 110.055 370.643 111.882C371.42 113.709 371.813 115.677 371.797 117.664L371.62 138.752C371.583 138.925 371.561 139.102 371.555 139.279C371.55 139.506 371.568 139.733 371.61 139.955Z" fill="#EAEAEA" fill-opacity="0.2"/>
<path d="M227.268 174.604L356.783 175.696C363.214 175.734 369.397 173.206 373.975 168.666C378.553 164.127 381.153 157.948 381.204 151.484L381.486 117.746C381.509 114.418 380.852 111.121 379.556 108.059C378.259 104.997 376.351 102.236 373.949 99.9459L373.791 99.7972C371.292 97.5142 368.377 95.738 365.208 94.5661L364.806 94.3908C362.442 93.6115 359.972 93.2054 357.485 93.1868L313.107 92.8127C302.09 92.723 291.384 89.1333 282.52 82.5571C273.655 75.9809 267.087 66.7552 263.754 56.1996C263.493 55.3394 263.002 54.5678 262.335 53.9687C261.668 53.3697 260.85 52.9662 259.97 52.8023C259.84 52.789 259.709 52.7879 259.579 52.799L259.103 52.795C258.369 52.7913 257.644 52.9479 256.977 53.254C256.309 53.5602 255.716 54.0085 255.239 54.5679L208.89 111.783C205.371 116.104 203.428 121.506 203.385 127.09L203.194 149.983C203.166 153.189 203.766 156.369 204.961 159.341C206.155 162.314 207.921 165.021 210.156 167.307C212.392 169.593 215.054 171.415 217.99 172.667C220.926 173.919 224.079 174.577 227.268 174.604ZM371.61 139.955L371.515 151.402C371.486 155.265 369.934 158.96 367.199 161.674C364.464 164.389 360.77 165.903 356.926 165.883L227.35 164.791C223.503 164.749 219.831 163.175 217.137 160.414C214.443 157.654 212.949 153.932 212.981 150.066L213.172 127.148C213.244 123.805 214.424 120.582 216.524 117.989L257.65 67.2025C262.652 77.7386 270.502 86.6471 280.303 92.9093C290.104 99.1715 301.461 102.535 313.074 102.614C313.575 102.618 314.027 102.622 314.589 102.627C314.805 102.644 315.021 102.646 315.237 102.632L357.452 102.988C358.853 103.009 360.245 103.224 361.589 103.625C363.692 104.378 365.626 105.542 367.279 107.05C368.72 108.41 369.865 110.055 370.643 111.882C371.42 113.709 371.813 115.677 371.797 117.664L371.62 138.752C371.583 138.925 371.561 139.102 371.555 139.279C371.55 139.506 371.568 139.733 371.61 139.955Z" fill="#EAEAEA" fill-opacity="0.2"/>
<path d="M321.362 83.2824C332.25 83.3927 342.74 79.262 350.546 71.7904C358.351 64.3188 362.839 54.1121 363.032 43.3947L363.038 42.6275C363.06 34.4506 360.574 26.4567 355.904 19.6929C351.233 12.9291 344.598 7.71061 336.865 4.72088C329.132 1.73116 320.664 1.10957 312.568 2.93754C304.472 4.76552 297.127 8.95782 291.494 14.9654C291.297 15.1282 291.199 15.2644 291.227 15.2646L290.988 15.5503L290.861 15.6999L290.707 15.863L288.33 18.7886C288.136 18.9508 287.966 19.1384 287.824 19.3461C283.517 25.4174 280.977 32.5319 280.477 39.9217C279.978 47.3116 281.538 54.6961 284.99 61.2781C288.442 67.8602 293.654 73.3898 300.064 77.2701C306.474 81.1504 313.838 83.234 321.362 83.2961L321.362 83.2824ZM299.601 22.4184C303.723 18.0452 309.086 14.9944 314.994 13.6626C320.901 12.3308 327.08 12.7797 332.726 14.9509C338.372 17.1221 343.225 20.9152 346.652 25.837C350.08 30.7587 351.925 36.5813 351.946 42.5476L351.941 43.1915C351.673 50.9746 348.319 58.3438 342.596 63.7188C336.873 69.0938 329.238 72.0466 321.327 71.944C313.417 71.8415 305.861 68.6918 300.28 63.1703C294.699 57.6488 291.537 50.1952 291.473 42.4078C291.522 36.4626 293.394 30.6712 296.845 25.793L299.376 22.718L299.573 22.4319L299.601 22.4184Z" fill="#EAEAEA" fill-opacity="0.2"/>
<path d="M321.362 83.2824C332.25 83.3927 342.74 79.262 350.546 71.7904C358.351 64.3188 362.839 54.1121 363.032 43.3947L363.038 42.6275C363.06 34.4506 360.574 26.4567 355.904 19.6929C351.233 12.9291 344.598 7.71061 336.865 4.72088C329.132 1.73116 320.664 1.10957 312.568 2.93754C304.472 4.76552 297.127 8.95782 291.494 14.9654C291.297 15.1282 291.199 15.2644 291.227 15.2646L290.988 15.5503L290.861 15.6999L290.707 15.863L288.33 18.7886C288.136 18.9508 287.966 19.1384 287.824 19.3461C283.517 25.4174 280.977 32.5319 280.477 39.9217C279.978 47.3116 281.538 54.6961 284.99 61.2781C288.442 67.8602 293.654 73.3898 300.064 77.2701C306.474 81.1504 313.838 83.234 321.362 83.2961L321.362 83.2824ZM299.601 22.4184C303.723 18.0452 309.086 14.9944 314.994 13.6626C320.901 12.3308 327.08 12.7797 332.726 14.9509C338.372 17.1221 343.225 20.9152 346.652 25.837C350.08 30.7587 351.925 36.5813 351.946 42.5476L351.941 43.1915C351.673 50.9746 348.319 58.3438 342.596 63.7188C336.873 69.0938 329.238 72.0466 321.327 71.944C313.417 71.8415 305.861 68.6918 300.28 63.1703C294.699 57.6488 291.537 50.1952 291.473 42.4078C291.522 36.4626 293.394 30.6712 296.845 25.793L299.376 22.718L299.573 22.4319L299.601 22.4184Z" fill="#EAEAEA" fill-opacity="0.2"/>
<path d="M277.155 684.595L406.67 685.686C413.1 685.724 419.283 683.196 423.862 678.657C428.44 674.118 431.04 667.938 431.091 661.474L431.373 627.736C431.396 624.409 430.739 621.112 429.443 618.05C428.146 614.988 426.237 612.226 423.835 609.937L423.678 609.788C421.179 607.505 418.264 605.729 415.095 604.557L414.693 604.382C412.329 603.602 409.859 603.196 407.371 603.178L362.994 602.803C351.977 602.714 341.271 599.124 332.406 592.548C323.542 585.972 316.974 576.746 313.641 566.19C313.38 565.33 312.889 564.558 312.222 563.959C311.555 563.36 310.737 562.957 309.857 562.793C309.727 562.78 309.596 562.779 309.466 562.79L308.989 562.786C308.256 562.782 307.531 562.939 306.863 563.245C306.196 563.551 305.603 563.999 305.126 564.559L258.776 621.774C255.258 626.095 253.315 631.496 253.272 637.08L253.081 659.974C253.052 663.18 253.653 666.359 254.847 669.332C256.042 672.305 257.807 675.011 260.043 677.298C262.279 679.584 264.941 681.405 267.877 682.657C270.813 683.909 273.966 684.568 277.155 684.595ZM421.497 649.946L421.402 661.393C421.372 665.256 419.82 668.95 417.085 671.665C414.351 674.38 410.656 675.893 406.813 675.874L277.237 674.781C273.39 674.739 269.717 673.165 267.024 670.405C264.33 667.644 262.835 663.923 262.868 660.056L263.059 637.138C263.131 633.796 264.31 630.572 266.41 627.979L307.537 577.193C312.538 587.729 320.388 596.638 330.19 602.9C339.991 609.162 351.348 612.525 362.961 612.605C363.462 612.609 363.914 612.613 364.476 612.617C364.692 612.635 364.908 612.637 365.124 612.623L407.338 612.979C408.74 613 410.132 613.214 411.475 613.616C413.579 614.368 415.512 615.533 417.165 617.041C418.606 618.401 419.752 620.046 420.529 621.873C421.307 623.699 421.7 625.668 421.683 627.655L421.507 648.743C421.47 648.916 421.448 649.093 421.442 649.27C421.437 649.497 421.455 649.723 421.497 649.946Z" fill="#4EBA66" fill-opacity="0.2"/>
<path d="M371.252 593.275C382.141 593.385 392.631 589.254 400.436 581.783C408.242 574.311 412.73 564.105 412.922 553.387L412.929 552.62C412.951 544.443 410.464 536.449 405.794 529.685C401.124 522.922 394.488 517.703 386.756 514.713C379.023 511.724 370.554 511.102 362.459 512.93C354.363 514.758 347.017 518.95 341.384 524.958C341.188 525.121 341.089 525.257 341.117 525.257L340.878 525.543L340.752 525.692L340.597 525.855L338.221 528.781C338.027 528.943 337.857 529.131 337.715 529.339C333.408 535.41 330.867 542.524 330.368 549.914C329.868 557.304 331.429 564.688 334.881 571.271C338.332 577.853 343.545 583.382 349.954 587.263C356.364 591.143 363.729 593.226 371.252 593.288L371.252 593.275ZM349.492 532.411C353.613 528.038 358.977 524.987 364.884 523.655C370.792 522.323 376.97 522.772 382.617 524.943C388.263 527.115 393.115 530.908 396.543 535.829C399.971 540.751 401.815 546.574 401.837 552.54L401.831 553.184C401.564 560.967 398.209 568.336 392.486 573.711C386.764 579.086 379.128 582.039 371.218 581.936C363.307 581.834 355.751 578.684 350.17 573.163C344.59 567.641 341.428 560.188 341.364 552.4C341.412 546.455 343.285 540.664 346.736 535.785L349.267 532.71L349.464 532.424L349.492 532.411Z" fill="#EAEAEA" fill-opacity="0.2"/>
</g>
</svg>
