<svg width="42" height="42" fill="none" xmlns="http://www.w3.org/2000/svg"><path d="M21 42c11.598 0 21-9.402 21-21S32.598 0 21 0 0 9.402 0 21s9.402 21 21 21z" fill="#6F3FAA"/><path d="M30.11 11.52c-5.11-1.233-10.232-2.677-15.474-.842-3.394 1.272-3.394 4.95-3.252 8.06 0 .849-.99 1.98-.566 2.97.848 2.828 1.556 5.656 4.525 7.07.425.284 0 .85.283 1.273-.141 0-.424.142-.424.283 0 .678.304 1.715.102 2.383l9.024 9.02c9.277-1.477 16.527-9.029 17.548-18.45L30.11 11.52z" fill="#512D84"/><path d="M32.11 14.759l-.008-.028c-.56-2.268-3.09-4.702-5.414-5.208l-.026-.006a30.086 30.086 0 0 0-11.324 0l-.027.006c-2.322.506-4.852 2.94-5.414 5.208l-.006.028a22.166 22.166 0 0 0 0 9.548l.006.028c.538 2.172 2.88 4.494 5.116 5.133V32c0 .916 1.117 1.366 1.752.705l2.565-2.667c.557.031 1.113.049 1.67.049 1.891 0 3.784-.18 5.662-.538l.026-.005c2.323-.506 4.853-2.94 5.414-5.209l.007-.028c.694-3.167.694-6.38 0-9.548zm-2.031 9.089c-.375 1.48-2.296 3.32-3.822 3.66-1.998.38-4.011.542-6.023.486a.142.142 0 0 0-.106.043l-1.874 1.923-1.992 2.045a.233.233 0 0 1-.402-.16v-4.196a.144.144 0 0 0-.117-.141h-.001c-1.526-.34-3.446-2.18-3.822-3.66a20.115 20.115 0 0 1 0-8.63c.376-1.48 2.296-3.32 3.822-3.66a28.017 28.017 0 0 1 10.515 0c1.527.34 3.447 2.18 3.822 3.66a20.091 20.091 0 0 1 0 8.63z" fill="#fff"/><path d="M24.32 25.784c-.235-.071-.458-.12-.666-.205-2.152-.893-4.132-2.045-5.7-3.81-.893-1.004-1.59-2.137-2.18-3.337-.28-.569-.517-1.16-.757-1.747-.22-.535.104-1.089.444-1.492a3.5 3.5 0 0 1 1.174-.883c.347-.166.689-.07.942.224.548.636 1.052 1.304 1.459 2.042.25.453.182 1.007-.272 1.316-.11.075-.211.163-.314.247a1.03 1.03 0 0 0-.237.25.684.684 0 0 0-.046.6c.56 1.54 1.504 2.736 3.053 3.381.248.103.497.223.783.19.478-.056.633-.58.968-.854.328-.268.746-.272 1.1-.049.352.224.694.464 1.034.706.334.238.666.47.974.742.296.26.398.603.232.956-.305.648-.75 1.188-1.39 1.532-.181.097-.397.128-.601.191-.235-.071.204-.063 0 0zM21.006 13.57c2.814.079 5.126 1.947 5.621 4.73.085.473.115.958.152 1.44.016.202-.099.394-.317.397-.226.002-.327-.187-.342-.389-.029-.4-.049-.803-.104-1.2-.291-2.096-1.963-3.83-4.05-4.203-.314-.056-.635-.07-.954-.104-.2-.021-.464-.033-.509-.283-.037-.21.14-.377.34-.388.054-.003.108 0 .163 0 2.814.079-.055 0 0 0z" fill="#fff"/><path d="M25.283 19.114c-.005.035-.007.118-.028.196-.075.282-.503.318-.602.033a.849.849 0 0 1-.034-.272c0-.597-.13-1.192-.43-1.71a3.184 3.184 0 0 0-1.335-1.253 3.838 3.838 0 0 0-1.064-.327c-.16-.026-.323-.042-.484-.065-.195-.027-.3-.151-.29-.344.008-.18.14-.31.337-.299.645.037 1.27.177 1.844.48 1.167.62 1.835 1.595 2.03 2.899.008.059.022.117.027.176.01.147.018.293.029.486-.005.035-.011-.193 0 0z" fill="#fff"/><path d="M23.532 19.047c-.235.004-.361-.127-.386-.342-.016-.15-.03-.303-.066-.45a1.265 1.265 0 0 0-.466-.732 1.225 1.225 0 0 0-.38-.184c-.173-.05-.353-.036-.525-.078-.187-.046-.29-.198-.261-.373a.338.338 0 0 1 .357-.272c1.09.079 1.87.643 1.982 1.928.008.09.017.186-.003.273-.035.148-.144.223-.252.23-.235.004.108-.008 0 0z" fill="#fff"/><path d="M32.11 14.76l-.008-.028c-.314-1.272-1.247-2.596-2.416-3.603l-1.58 1.4c.94.749 1.744 1.786 1.973 2.69a20.09 20.09 0 0 1 0 8.63c-.375 1.48-2.295 3.319-3.821 3.659-1.998.38-4.012.542-6.024.486a.143.143 0 0 0-.106.044l-1.873 1.923-1.993 2.044a.233.233 0 0 1-.401-.16V27.65c0-.07-.05-.128-.118-.142-.868-.193-1.862-.871-2.628-1.692L11.554 27.2c.975 1.06 2.232 1.918 3.459 2.268V32c0 .916 1.117 1.367 1.752.705l2.565-2.667c.557.032 1.113.049 1.67.049a30.19 30.19 0 0 0 5.662-.537l.026-.006c2.323-.506 4.853-2.94 5.414-5.209l.007-.027c.694-3.168.694-6.38 0-9.549z" fill="#D1D1D1"/><path d="M24.32 25.785c.204-.063-.235-.072 0 0z" fill="#fff"/><path d="M26.08 23.106c-.308-.272-.641-.504-.975-.742-.34-.243-.682-.482-1.035-.706-.353-.223-.771-.22-1.099.048-.335.274-.49.8-.968.855-.286.033-.535-.087-.783-.19a5.063 5.063 0 0 1-2.223-1.768l-1.161 1.029c.04.046.077.093.117.138 1.569 1.765 3.55 2.917 5.7 3.81.208.086.432.134.667.205-.235-.072.204-.063 0 0 .204-.063.42-.095.6-.192.641-.344 1.085-.883 1.39-1.53.167-.355.066-.697-.23-.957z" fill="#D1D1D1"/><path d="M21.014 13.572zm-.008-.002h.007c.157.006 2.697.076-.007 0z" fill="#fff"/><path d="M25.043 15.244l-.495.44a4.97 4.97 0 0 1 1.468 2.864c.055.397.076.8.105 1.2.014.202.116.391.341.388.219-.002.333-.194.317-.397-.037-.481-.067-.966-.151-1.44a5.651 5.651 0 0 0-1.585-3.055zm.184 3.208c-.142-.95-.536-1.725-1.19-2.315l-.494.437c.255.227.476.493.646.787.3.518.43 1.114.431 1.71 0 .091.005.187.034.272.099.285.527.25.602-.033.02-.078.023-.16.027-.195-.004.035-.011-.193 0 0-.011-.193-.018-.34-.029-.486-.004-.06-.019-.118-.027-.177z" fill="#D1D1D1"/><path d="M25.283 19.115c-.011-.193-.005.035 0 0zm-1.751-.068c.004 0 .008-.003.011-.003h-.041l.03.003zm0 .001l-.03-.002a.43.43 0 0 0 .03.002z" fill="#fff"/><path d="M23.543 19.044c-.004 0-.007.002-.01.003.027-.002.024-.003.01-.003z" fill="#fff"/><path d="M23.035 17.023l-.502.446c.027.017.055.034.08.053.244.177.397.445.468.733.035.147.049.299.066.45.023.206.14.333.356.34l.04-.001a.279.279 0 0 0 .241-.227c.02-.087.011-.183.003-.274-.062-.718-.334-1.21-.752-1.52z" fill="#D1D1D1"/></svg>