<svg width="42" height="42" fill="none" xmlns="http://www.w3.org/2000/svg"><g clip-path="url(#clip0)"><path d="M21 42c11.598 0 21-9.402 21-21S32.598 0 21 0 0 9.402 0 21s9.402 21 21 21z" fill="#5BB73B"/><path d="M29.55 12.454c-1.217-.304-3.007-1.356-4.166-1.777-4.526-1.414-10.606-.283-12.303 4.95-.142.14-.425.14-.566.14-3.394 3.96-1.131 8.768-1.414 13.152-.097 1.546-.91 2.912-1.955 4.068l8.8 8.791c.997.145 2.017.222 3.054.222 10.372 0 18.986-7.52 20.692-17.404L29.551 12.454z" fill="#52891D"/><path d="M20.413 8.896C14.012 9.2 8.96 14.53 8.98 20.939a11.968 11.968 0 0 0 1.308 5.422l-1.276 6.194a.468.468 0 0 0 .566.55l6.07-1.438a11.962 11.962 0 0 0 5.165 1.254c6.542.1 11.997-5.095 12.201-11.635.219-7.01-5.567-12.725-12.601-12.39zm7.242 18.661A9.35 9.35 0 0 1 21 30.314a9.315 9.315 0 0 1-4.189-.982l-.845-.421-3.722.881.784-3.802-.417-.816a9.305 9.305 0 0 1-1.023-4.272 9.35 9.35 0 0 1 2.757-6.656A9.428 9.428 0 0 1 21 11.49a9.35 9.35 0 0 1 6.655 2.756 9.35 9.35 0 0 1 2.757 6.655 9.428 9.428 0 0 1-2.757 6.656z" fill="#fff"/><path d="M26.834 23.508l-2.329-.668a.868.868 0 0 0-.858.226l-.57.58a.848.848 0 0 1-.922.195c-1.101-.446-3.418-2.506-4.01-3.536a.848.848 0 0 1 .067-.94l.497-.643a.868.868 0 0 0 .107-.882l-.98-2.215a.868.868 0 0 0-1.355-.31c-.65.549-1.42 1.384-1.514 2.31-.166 1.63.534 3.687 3.18 6.156 3.056 2.853 5.503 3.23 7.097 2.844.904-.22 1.626-1.097 2.082-1.815a.869.869 0 0 0-.492-1.302z" fill="#fff"/><path d="M29.204 12.117l-1.823 1.868c.092.086.185.172.274.262a9.35 9.35 0 0 1 2.757 6.655 9.429 9.429 0 0 1-2.756 6.655A9.35 9.35 0 0 1 21 30.314a9.313 9.313 0 0 1-4.189-.982l-.845-.42-3.721.88.076-.373-3.295 3.378a.468.468 0 0 0 .552.308l6.07-1.438a11.961 11.961 0 0 0 5.165 1.254c6.542.1 11.997-5.095 12.201-11.635a11.99 11.99 0 0 0-3.81-9.17z" fill="#D1D1D1"/><path d="M26.834 23.509l-2.328-.669a.868.868 0 0 0-.86.227l-.569.58a.848.848 0 0 1-.922.194c-.636-.257-1.677-1.053-2.558-1.879l-1.619 1.66.169.16c3.056 2.852 5.504 3.229 7.097 2.843.904-.219 1.627-1.096 2.082-1.815a.869.869 0 0 0-.492-1.301z" fill="#D1D1D1"/></g><defs><clipPath id="clip0"><path fill="#fff" d="M0 0h42v42H0z"/></clipPath></defs></svg>